<?xml-stylesheet href="TE_export636286484618233452.css" type="text/css"?><svg xmlns="http://www.w3.org/2000/svg" width="241pt" height="68" viewBox="-59.7 -9.6 120.6 25.3"><g stroke="#000" stroke-width=".5"><g fill="#CFF"><path d="M60.7 6a9.4 9.4 0 1 0-19 0 9.4 9.4 0 0 0 19 0zm-9.5 0"/><text fill="#000" stroke="none" font-size="10" text-anchor="middle" transform="translate(51.2 8.3)"><tspan font-family="cmmi">j</tspan></text></g><g fill="#CFF"><path d="M-42.9 6a8.3 8.3 0 1 0-16.6 0A8.3 8.3 0 0 0-43 6zm-8.3 0"/><text fill="#000" stroke="none" font-size="10" text-anchor="middle" transform="translate(-51.2 9.3)"><tspan font-family="cmmi">i</tspan></text></g><g fill="#FCC"><path d="M9.1 6A9.1 9.1 0 1 0-9 6 9.1 9.1 0 0 0 9 6zM0 6"/><text fill="#000" stroke="none" font-size="10" text-anchor="middle" transform="translate(0 9.5)"><tspan font-family="cmmi">k</tspan></text></g><path fill="none" d="M-42.7 6h29.8"/><path stroke="none" d="M-9.3 6c-1-.2-2.8-.8-4-1.5v3c1.2-.7 3-1.3 4-1.5"/><text stroke="none" font-size="10" text-anchor="middle" transform="translate(-26 2.5)"><tspan font-family="cmmi">c</tspan><tspan baseline-shift="sub"><tspan font-family="cmsy" font-size="7">-</tspan></tspan></text><g><path fill="none" d="M41.6 6H12.9"/><path stroke="none" d="M9.3 6c1 .2 2.8.8 4 1.5v-3c-1.2.7-3 1.3-4 1.5"/><text stroke="none" font-size="10" text-anchor="middle" transform="translate(25.4 1.6)"><tspan font-family="cmsy">-</tspan><tspan font-family="cmmi">c</tspan><tspan baseline-shift="sub"><tspan font-family="cmr" font-size="7">+</tspan></tspan></text></g></g></svg>