<?xml-stylesheet href="TE_export636271789316763912.css" type="text/css"?><svg xmlns="http://www.w3.org/2000/svg" width="508.477" height="407.216" viewBox="-162.235 -170.916 381.358 305.412"><g stroke-linejoin="bevel" stroke-width=".4pt" stroke="#000"><path d="M56.905 85.358v28.453h28.453V85.358Zm-199.169-256.074v28.452h28.453v-28.452Zm312.98 28.452v28.453h28.453v-28.453Zm28.453 28.453" transform="matrix(1 0 0 -1 0 -36.421)" style="fill:none"/><path d="M56.905 85.358v28.453h28.453V85.358Zm-199.169-256.074v28.452h28.453v-28.452Zm312.98 28.452v28.453h28.453v-28.453Zm28.453 28.453" transform="matrix(1 0 0 -1 0 -36.421)" style="stroke:none" fill="#CFF" stroke="none"/><path d="M56.905 85.358-113.81-142.264h284.527L56.906 85.358" transform="matrix(1 0 0 -1 0 -36.421)" style="fill:none"/><path d="m56.905 113.811-199.169-284.527 341.433 56.905L56.905 113.811" transform="matrix(1 0 0 -1 0 -36.421)" style="fill:none"/><text style="stroke:none" font-size="10" text-anchor="middle" transform="translate(99.585 -163.278)"><tspan font-family="cmmi">p</tspan></text><text style="stroke:none" font-size="10" text-anchor="middle" transform="translate(-156.49 92.797)"><tspan font-family="cmmi">q</tspan></text><text style="stroke:none" font-size="10" text-anchor="middle" transform="translate(213.396 65.316)"><tspan font-family="cmmi">r</tspan></text></g></svg>