<?xml version="1.0" encoding="UTF-8" standalone="no"?>
<!DOCTYPE svg PUBLIC "-//W3C//DTD SVG 1.1//EN"
 "http://www.w3.org/Graphics/SVG/1.1/DTD/svg11.dtd">
<!-- Generated by graphviz version 2.40.1 (20161225.0304)
 -->
<!-- Title: source/pgcpp/ck_plane.hpp Pages: 1 -->
<svg width="516pt" height="252pt"
 viewBox="0.00 0.00 516.37 252.00" xmlns="http://www.w3.org/2000/svg" xmlns:xlink="http://www.w3.org/1999/xlink">
<g id="graph0" class="graph" transform="scale(1 1) rotate(0) translate(4 248)">
<title>source/pgcpp/ck_plane.hpp</title>
<polygon fill="#ffffff" stroke="transparent" points="-4,4 -4,-248 512.3669,-248 512.3669,4 -4,4"/>
<!-- Node0 -->
<g id="node1" class="node">
<title>Node0</title>
<polygon fill="#bfbfbf" stroke="#000000" points="201,-224.5 201,-243.5 337,-243.5 337,-224.5 201,-224.5"/>
<text text-anchor="middle" x="269" y="-231.5" font-family="Helvetica,sans-Serif" font-size="10.00" fill="#000000">source/pgcpp/ck_plane.hpp</text>
</g>
<!-- Node1 -->
<g id="node2" class="node">
<title>Node1</title>
<polygon fill="#ffffff" stroke="#bfbfbf" points="0,-56.5 0,-75.5 62,-75.5 62,-56.5 0,-56.5"/>
<text text-anchor="middle" x="31" y="-63.5" font-family="Helvetica,sans-Serif" font-size="10.00" fill="#000000">type_traits</text>
</g>
<!-- Node0&#45;&gt;Node1 -->
<g id="edge1" class="edge">
<title>Node0&#45;&gt;Node1</title>
<path fill="none" stroke="#191970" d="M241.152,-224.3449C219.3313,-216.189 188.6451,-203.3916 164,-188 131.3711,-167.6222 126.3891,-157.9607 98,-132 80.2725,-115.7889 60.7919,-96.412 47.4285,-82.8625"/>
<polygon fill="#191970" stroke="#191970" points="49.8291,-80.3117 40.3266,-75.6261 44.8331,-85.2148 49.8291,-80.3117"/>
</g>
<!-- Node2 -->
<g id="node3" class="node">
<title>Node2</title>
<g id="a_node3"><a xlink:href="pg__common_8hpp.html" target="_top" xlink:title="pgcpp/pg_common.hpp">
<polygon fill="#ffffff" stroke="#000000" points="389,-168.5 389,-187.5 507,-187.5 507,-168.5 389,-168.5"/>
<text text-anchor="middle" x="448" y="-175.5" font-family="Helvetica,sans-Serif" font-size="10.00" fill="#000000">pgcpp/pg_common.hpp</text>
</a>
</g>
</g>
<!-- Node0&#45;&gt;Node2 -->
<g id="edge2" class="edge">
<title>Node0&#45;&gt;Node2</title>
<path fill="none" stroke="#191970" d="M299.7712,-224.3733C329.665,-215.021 375.2093,-200.7725 407.9217,-190.5385"/>
<polygon fill="#191970" stroke="#191970" points="409.1315,-193.8273 417.6303,-187.5011 407.0414,-187.1466 409.1315,-193.8273"/>
</g>
<!-- Node7 -->
<g id="node8" class="node">
<title>Node7</title>
<g id="a_node8"><a xlink:href="proj__plane_8hpp.html" target="_top" xlink:title="pgcpp/proj_plane.hpp">
<polygon fill="#ffffff" stroke="#000000" points="173.5,-168.5 173.5,-187.5 282.5,-187.5 282.5,-168.5 173.5,-168.5"/>
<text text-anchor="middle" x="228" y="-175.5" font-family="Helvetica,sans-Serif" font-size="10.00" fill="#000000">pgcpp/proj_plane.hpp</text>
</a>
</g>
</g>
<!-- Node0&#45;&gt;Node7 -->
<g id="edge7" class="edge">
<title>Node0&#45;&gt;Node7</title>
<path fill="none" stroke="#191970" d="M261.8583,-224.2455C256.1556,-216.4564 248.01,-205.3308 241.1375,-195.9439"/>
<polygon fill="#191970" stroke="#191970" points="243.7913,-193.6437 235.0598,-187.6427 238.1432,-197.7789 243.7913,-193.6437"/>
</g>
<!-- Node12 -->
<g id="node13" class="node">
<title>Node12</title>
<g id="a_node13"><a xlink:href="proj__plane__concepts_8h.html" target="_top" xlink:title="pgcpp/proj_plane_concepts.h">
<polygon fill="#ffffff" stroke="#000000" points="239.5,-112.5 239.5,-131.5 382.5,-131.5 382.5,-112.5 239.5,-112.5"/>
<text text-anchor="middle" x="311" y="-119.5" font-family="Helvetica,sans-Serif" font-size="10.00" fill="#000000">pgcpp/proj_plane_concepts.h</text>
</a>
</g>
</g>
<!-- Node0&#45;&gt;Node12 -->
<g id="edge18" class="edge">
<title>Node0&#45;&gt;Node12</title>
<path fill="none" stroke="#191970" d="M274.1612,-224.32C278.9274,-215.1397 286.004,-200.8744 291,-188 296.9558,-172.6524 302.2835,-154.7514 305.9396,-141.4674"/>
<polygon fill="#191970" stroke="#191970" points="309.3889,-142.1173 308.5947,-131.5523 302.6271,-140.3066 309.3889,-142.1173"/>
</g>
<!-- Node3 -->
<g id="node4" class="node">
<title>Node3</title>
<polygon fill="#ffffff" stroke="#bfbfbf" points="457,-112.5 457,-131.5 495,-131.5 495,-112.5 457,-112.5"/>
<text text-anchor="middle" x="476" y="-119.5" font-family="Helvetica,sans-Serif" font-size="10.00" fill="#000000">array</text>
</g>
<!-- Node2&#45;&gt;Node3 -->
<g id="edge3" class="edge">
<title>Node2&#45;&gt;Node3</title>
<path fill="none" stroke="#191970" d="M452.8772,-168.2455C456.6513,-160.6973 461.9921,-150.0158 466.5901,-140.8197"/>
<polygon fill="#191970" stroke="#191970" points="469.837,-142.1522 471.1787,-131.6427 463.576,-139.0217 469.837,-142.1522"/>
</g>
<!-- Node4 -->
<g id="node5" class="node">
<title>Node4</title>
<polygon fill="#ffffff" stroke="#bfbfbf" points="401,-112.5 401,-131.5 439,-131.5 439,-112.5 401,-112.5"/>
<text text-anchor="middle" x="420" y="-119.5" font-family="Helvetica,sans-Serif" font-size="10.00" fill="#000000">tuple</text>
</g>
<!-- Node2&#45;&gt;Node4 -->
<g id="edge4" class="edge">
<title>Node2&#45;&gt;Node4</title>
<path fill="none" stroke="#191970" d="M443.1228,-168.2455C439.3487,-160.6973 434.0079,-150.0158 429.4099,-140.8197"/>
<polygon fill="#191970" stroke="#191970" points="432.424,-139.0217 424.8213,-131.6427 426.163,-142.1522 432.424,-139.0217"/>
</g>
<!-- Node5 -->
<g id="node6" class="node">
<title>Node5</title>
<g id="a_node6"><a xlink:href="common__concepts_8h.html" target="_top" xlink:title="pgcpp/common_concepts.h">
<polygon fill="#ffffff" stroke="#000000" points="279.5,-56.5 279.5,-75.5 416.5,-75.5 416.5,-56.5 279.5,-56.5"/>
<text text-anchor="middle" x="348" y="-63.5" font-family="Helvetica,sans-Serif" font-size="10.00" fill="#000000">pgcpp/common_concepts.h</text>
</a>
</g>
</g>
<!-- Node2&#45;&gt;Node5 -->
<g id="edge5" class="edge">
<title>Node2&#45;&gt;Node5</title>
<path fill="none" stroke="#191970" d="M466.3754,-168.4689C488.1599,-155.9056 519.6575,-132.9409 504,-112 492.9022,-97.1574 452.1679,-85.4415 415.1085,-77.5484"/>
<polygon fill="#191970" stroke="#191970" points="415.7859,-74.1145 405.2853,-75.5245 414.3732,-80.9705 415.7859,-74.1145"/>
</g>
<!-- Node6 -->
<g id="node7" class="node">
<title>Node6</title>
<polygon fill="#ffffff" stroke="#bfbfbf" points="328,-.5 328,-19.5 368,-19.5 368,-.5 328,-.5"/>
<text text-anchor="middle" x="348" y="-7.5" font-family="Helvetica,sans-Serif" font-size="10.00" fill="#000000">utility</text>
</g>
<!-- Node5&#45;&gt;Node6 -->
<g id="edge6" class="edge">
<title>Node5&#45;&gt;Node6</title>
<path fill="none" stroke="#191970" d="M348,-56.2455C348,-48.9382 348,-38.6944 348,-29.7046"/>
<polygon fill="#191970" stroke="#191970" points="351.5001,-29.6426 348,-19.6427 344.5001,-29.6427 351.5001,-29.6426"/>
</g>
<!-- Node7&#45;&gt;Node4 -->
<g id="edge9" class="edge">
<title>Node7&#45;&gt;Node4</title>
<path fill="none" stroke="#191970" d="M264.1073,-168.4446C297.2536,-159.5228 347.648,-145.5795 391,-132 391.0985,-131.9692 391.1971,-131.9382 391.2959,-131.9072"/>
<polygon fill="#191970" stroke="#191970" points="392.2941,-135.2632 400.7076,-128.824 390.1149,-128.6111 392.2941,-135.2632"/>
</g>
<!-- Node8 -->
<g id="node9" class="node">
<title>Node8</title>
<polygon fill="#ffffff" stroke="#bfbfbf" points="80.5,-56.5 80.5,-75.5 129.5,-75.5 129.5,-56.5 80.5,-56.5"/>
<text text-anchor="middle" x="105" y="-63.5" font-family="Helvetica,sans-Serif" font-size="10.00" fill="#000000">cassert</text>
</g>
<!-- Node7&#45;&gt;Node8 -->
<g id="edge8" class="edge">
<title>Node7&#45;&gt;Node8</title>
<path fill="none" stroke="#191970" d="M173.4317,-169.9195C150.1669,-163.5694 124.9814,-152.2333 110,-132 100.2879,-118.8832 99.8134,-100.0053 101.3159,-85.7965"/>
<polygon fill="#191970" stroke="#191970" points="104.8229,-86.0027 102.806,-75.6016 97.8965,-84.9903 104.8229,-86.0027"/>
</g>
<!-- Node9 -->
<g id="node10" class="node">
<title>Node9</title>
<g id="a_node10"><a xlink:href="fractions_8hpp.html" target="_top" xlink:title="pgcpp/fractions.hpp">
<polygon fill="#ffffff" stroke="#000000" points="119,-112.5 119,-131.5 221,-131.5 221,-112.5 119,-112.5"/>
<text text-anchor="middle" x="170" y="-119.5" font-family="Helvetica,sans-Serif" font-size="10.00" fill="#000000">pgcpp/fractions.hpp</text>
</a>
</g>
</g>
<!-- Node7&#45;&gt;Node9 -->
<g id="edge10" class="edge">
<title>Node7&#45;&gt;Node9</title>
<path fill="none" stroke="#191970" d="M217.8972,-168.2455C209.4972,-160.1352 197.3506,-148.4075 187.3916,-138.7919"/>
<polygon fill="#191970" stroke="#191970" points="189.6122,-136.0707 179.9871,-131.6427 184.75,-141.1066 189.6122,-136.0707"/>
</g>
<!-- Node7&#45;&gt;Node12 -->
<g id="edge16" class="edge">
<title>Node7&#45;&gt;Node12</title>
<path fill="none" stroke="#191970" d="M242.4575,-168.2455C255.0732,-159.7337 273.5944,-147.2375 288.2045,-137.3801"/>
<polygon fill="#191970" stroke="#191970" points="290.3761,-140.1371 296.7082,-131.6427 286.4609,-134.3343 290.3761,-140.1371"/>
</g>
<!-- Node9&#45;&gt;Node1 -->
<g id="edge14" class="edge">
<title>Node9&#45;&gt;Node1</title>
<path fill="none" stroke="#191970" d="M146.105,-112.3733C123.4918,-103.2629 89.3458,-89.5062 64.1127,-79.3404"/>
<polygon fill="#191970" stroke="#191970" points="65.1666,-75.9917 54.5831,-75.5011 62.5507,-82.4845 65.1666,-75.9917"/>
</g>
<!-- Node9&#45;&gt;Node5 -->
<g id="edge15" class="edge">
<title>Node9&#45;&gt;Node5</title>
<path fill="none" stroke="#191970" d="M200.5993,-112.3733C230.3261,-103.021 275.6159,-88.7725 308.1456,-78.5385"/>
<polygon fill="#191970" stroke="#191970" points="309.3113,-81.8409 317.8,-75.5011 307.2105,-75.1636 309.3113,-81.8409"/>
</g>
<!-- Node9&#45;&gt;Node8 -->
<g id="edge11" class="edge">
<title>Node9&#45;&gt;Node8</title>
<path fill="none" stroke="#191970" d="M158.6779,-112.2455C149.0777,-103.9746 135.1108,-91.9416 123.8305,-82.2232"/>
<polygon fill="#191970" stroke="#191970" points="126.053,-79.5182 116.1924,-75.6427 121.484,-84.8214 126.053,-79.5182"/>
</g>
<!-- Node10 -->
<g id="node11" class="node">
<title>Node10</title>
<polygon fill="#ffffff" stroke="#bfbfbf" points="148,-56.5 148,-75.5 192,-75.5 192,-56.5 148,-56.5"/>
<text text-anchor="middle" x="170" y="-63.5" font-family="Helvetica,sans-Serif" font-size="10.00" fill="#000000">cmath</text>
</g>
<!-- Node9&#45;&gt;Node10 -->
<g id="edge12" class="edge">
<title>Node9&#45;&gt;Node10</title>
<path fill="none" stroke="#191970" d="M170,-112.2455C170,-104.9382 170,-94.6944 170,-85.7046"/>
<polygon fill="#191970" stroke="#191970" points="173.5001,-85.6426 170,-75.6427 166.5001,-85.6427 173.5001,-85.6426"/>
</g>
<!-- Node11 -->
<g id="node12" class="node">
<title>Node11</title>
<polygon fill="#ffffff" stroke="#bfbfbf" points="210.5,-56.5 210.5,-75.5 261.5,-75.5 261.5,-56.5 210.5,-56.5"/>
<text text-anchor="middle" x="236" y="-63.5" font-family="Helvetica,sans-Serif" font-size="10.00" fill="#000000">numeric</text>
</g>
<!-- Node9&#45;&gt;Node11 -->
<g id="edge13" class="edge">
<title>Node9&#45;&gt;Node11</title>
<path fill="none" stroke="#191970" d="M181.4963,-112.2455C191.2442,-103.9746 205.4259,-91.9416 216.8798,-82.2232"/>
<polygon fill="#191970" stroke="#191970" points="219.2747,-84.7813 224.6354,-75.6427 214.7459,-79.4437 219.2747,-84.7813"/>
</g>
<!-- Node12&#45;&gt;Node5 -->
<g id="edge17" class="edge">
<title>Node12&#45;&gt;Node5</title>
<path fill="none" stroke="#191970" d="M317.4449,-112.2455C322.5382,-104.5367 329.7908,-93.5598 335.952,-84.2348"/>
<polygon fill="#191970" stroke="#191970" points="339.0365,-85.9155 341.6289,-75.6427 333.1962,-82.0566 339.0365,-85.9155"/>
</g>
</g>
</svg>
