<?xml version="1.0" encoding="UTF-8" standalone="no"?>
<!DOCTYPE svg PUBLIC "-//W3C//DTD SVG 1.1//EN"
 "http://www.w3.org/Graphics/SVG/1.1/DTD/svg11.dtd">
<!-- Generated by graphviz version 2.40.1 (20161225.0304)
 -->
<!-- Title: BaseClass Pages: 1 -->
<svg width="97pt" height="248pt"
 viewBox="0.00 0.00 97.00 248.00" xmlns="http://www.w3.org/2000/svg" xmlns:xlink="http://www.w3.org/1999/xlink">
<g id="graph0" class="graph" transform="scale(1 1) rotate(0) translate(4 244)">
<title>BaseClass</title>
<polygon fill="#ffffff" stroke="transparent" points="-4,4 -4,-244 93,-244 93,4 -4,4"/>
<!-- Node0 -->
<g id="node1" class="node">
<title>Node0</title>
<polygon fill="#bfbfbf" stroke="#000000" points="1.5,-160.5 1.5,-239.5 87.5,-239.5 87.5,-160.5 1.5,-160.5"/>
<text text-anchor="middle" x="44.5" y="-227.5" font-family="Helvetica,sans-Serif" font-size="10.00" fill="#000000">BaseClass</text>
<polyline fill="none" stroke="#000000" points="1.5,-220.5 87.5,-220.5 "/>
<text text-anchor="start" x="9.5" y="-208.5" font-family="Helvetica,sans-Serif" font-size="10.00" fill="#000000">+ mPointer</text>
<polyline fill="none" stroke="#000000" points="1.5,-201.5 87.5,-201.5 "/>
<text text-anchor="start" x="9.5" y="-189.5" font-family="Helvetica,sans-Serif" font-size="10.00" fill="#000000">+ BaseClass()</text>
<text text-anchor="start" x="9.5" y="-178.5" font-family="Helvetica,sans-Serif" font-size="10.00" fill="#000000">+ ~BaseClass()</text>
<text text-anchor="start" x="9.5" y="-167.5" font-family="Helvetica,sans-Serif" font-size="10.00" fill="#000000">+ freePtr()</text>
</g>
<!-- Node1 -->
<g id="node2" class="node">
<title>Node1</title>
<g id="a_node2"><a xlink:href="classSomeClass.html" target="_top" xlink:title="SomeClass description. ">
<polygon fill="#ffffff" stroke="#000000" points="0,-.5 0,-123.5 89,-123.5 89,-.5 0,-.5"/>
<text text-anchor="middle" x="44.5" y="-111.5" font-family="Helvetica,sans-Serif" font-size="10.00" fill="#000000">SomeClass</text>
<polyline fill="none" stroke="#000000" points="0,-104.5 89,-104.5 "/>
<text text-anchor="start" x="8" y="-92.5" font-family="Helvetica,sans-Serif" font-size="10.00" fill="#000000">+ mParent</text>
<text text-anchor="start" x="8" y="-81.5" font-family="Helvetica,sans-Serif" font-size="10.00" fill="#000000">&#45; mVal</text>
<text text-anchor="start" x="8" y="-70.5" font-family="Helvetica,sans-Serif" font-size="10.00" fill="#000000">&#45; mData</text>
<text text-anchor="start" x="8" y="-59.5" font-family="Helvetica,sans-Serif" font-size="10.00" fill="#000000">&#45; mStrings</text>
<polyline fill="none" stroke="#000000" points="0,-52.5 89,-52.5 "/>
<text text-anchor="start" x="8" y="-40.5" font-family="Helvetica,sans-Serif" font-size="10.00" fill="#000000">+ SomeClass()</text>
<text text-anchor="start" x="8" y="-29.5" font-family="Helvetica,sans-Serif" font-size="10.00" fill="#000000">+ ~SomeClass()</text>
<text text-anchor="start" x="8" y="-18.5" font-family="Helvetica,sans-Serif" font-size="10.00" fill="#000000">+ set()</text>
<text text-anchor="start" x="8" y="-7.5" font-family="Helvetica,sans-Serif" font-size="10.00" fill="#000000">+ get()</text>
</a>
</g>
</g>
<!-- Node0&#45;&gt;Node1 -->
<g id="edge1" class="edge">
<title>Node0&#45;&gt;Node1</title>
<path fill="none" stroke="#191970" d="M44.5,-150.214C44.5,-141.6094 44.5,-132.5717 44.5,-123.6969"/>
<polygon fill="none" stroke="#191970" points="41.0001,-150.4547 44.5,-160.4547 48.0001,-150.4548 41.0001,-150.4547"/>
</g>
</g>
</svg>
