<?xml version="1.0" encoding="UTF-8" standalone="no"?>
<!DOCTYPE svg PUBLIC "-//W3C//DTD SVG 1.1//EN"
 "http://www.w3.org/Graphics/SVG/1.1/DTD/svg11.dtd">
<!-- Generated by graphviz version 2.40.1 (20161225.0304)
 -->
<!-- Title: fun::pg_point&lt; _K &gt; Pages: 1 -->
<svg width="111pt" height="482pt"
 viewBox="0.00 0.00 111.00 482.00" xmlns="http://www.w3.org/2000/svg" xmlns:xlink="http://www.w3.org/1999/xlink">
<g id="graph0" class="graph" transform="scale(1 1) rotate(0) translate(4 478)">
<title>fun::pg_point&lt; _K &gt;</title>
<polygon fill="#ffffff" stroke="transparent" points="-4,4 -4,-478 107,-478 107,4 -4,4"/>
<!-- Node3 -->
<g id="node1" class="node">
<title>Node3</title>
<polygon fill="#bfbfbf" stroke="#000000" points="0,-.5 0,-112.5 103,-112.5 103,-.5 0,-.5"/>
<text text-anchor="middle" x="51.5" y="-100.5" font-family="Helvetica,sans-Serif" font-size="10.00" fill="#000000">fun::pg_point&lt; _K &gt;</text>
<polyline fill="none" stroke="#000000" points="0,-93.5 103,-93.5 "/>
<text text-anchor="middle" x="51.5" y="-81.5" font-family="Helvetica,sans-Serif" font-size="10.00" fill="#000000"> </text>
<polyline fill="none" stroke="#000000" points="0,-74.5 103,-74.5 "/>
<text text-anchor="start" x="8" y="-62.5" font-family="Helvetica,sans-Serif" font-size="10.00" fill="#000000">+ pg_point()</text>
<text text-anchor="start" x="8" y="-51.5" font-family="Helvetica,sans-Serif" font-size="10.00" fill="#000000">+ pg_point()</text>
<text text-anchor="start" x="8" y="-40.5" font-family="Helvetica,sans-Serif" font-size="10.00" fill="#000000">+ operator=()</text>
<text text-anchor="start" x="8" y="-29.5" font-family="Helvetica,sans-Serif" font-size="10.00" fill="#000000">+ operator=()</text>
<text text-anchor="start" x="8" y="-18.5" font-family="Helvetica,sans-Serif" font-size="10.00" fill="#000000">+ pg_point()</text>
<text text-anchor="start" x="8" y="-7.5" font-family="Helvetica,sans-Serif" font-size="10.00" fill="#000000">+ pg_point()</text>
</g>
<!-- Node4 -->
<g id="node2" class="node">
<title>Node4</title>
<g id="a_node2"><a xlink:href="classfun_1_1pg__object.html" target="_top" xlink:title="{fun::pg_object\&lt; _K,\l pg_line\&lt; _K \&gt; \&gt;\n||+ pg_object()\l+ operator==()\l+ operator!=()\l+ dot()\l+ operator*()\l+ aux()\l}">
<polygon fill="#ffffff" stroke="#000000" points=".5,-150.5 .5,-273.5 102.5,-273.5 102.5,-150.5 .5,-150.5"/>
<text text-anchor="start" x="8.5" y="-261.5" font-family="Helvetica,sans-Serif" font-size="10.00" fill="#000000">fun::pg_object&lt; _K,</text>
<text text-anchor="middle" x="51.5" y="-250.5" font-family="Helvetica,sans-Serif" font-size="10.00" fill="#000000"> pg_line&lt; _K &gt; &gt;</text>
<polyline fill="none" stroke="#000000" points=".5,-243.5 102.5,-243.5 "/>
<text text-anchor="middle" x="51.5" y="-231.5" font-family="Helvetica,sans-Serif" font-size="10.00" fill="#000000"> </text>
<polyline fill="none" stroke="#000000" points=".5,-224.5 102.5,-224.5 "/>
<text text-anchor="start" x="8.5" y="-212.5" font-family="Helvetica,sans-Serif" font-size="10.00" fill="#000000">+ pg_object()</text>
<text text-anchor="start" x="8.5" y="-201.5" font-family="Helvetica,sans-Serif" font-size="10.00" fill="#000000">+ operator==()</text>
<text text-anchor="start" x="8.5" y="-190.5" font-family="Helvetica,sans-Serif" font-size="10.00" fill="#000000">+ operator!=()</text>
<text text-anchor="start" x="8.5" y="-179.5" font-family="Helvetica,sans-Serif" font-size="10.00" fill="#000000">+ dot()</text>
<text text-anchor="start" x="8.5" y="-168.5" font-family="Helvetica,sans-Serif" font-size="10.00" fill="#000000">+ operator*()</text>
<text text-anchor="start" x="8.5" y="-157.5" font-family="Helvetica,sans-Serif" font-size="10.00" fill="#000000">+ aux()</text>
</a>
</g>
</g>
<!-- Node4&#45;&gt;Node3 -->
<g id="edge1" class="edge">
<title>Node4&#45;&gt;Node3</title>
<path fill="none" stroke="#191970" d="M51.5,-139.8537C51.5,-130.7194 51.5,-121.4815 51.5,-112.6477"/>
<polygon fill="none" stroke="#191970" points="48.0001,-140.0954 51.5,-150.0955 55.0001,-140.0955 48.0001,-140.0954"/>
</g>
<!-- Node5 -->
<g id="node3" class="node">
<title>Node5</title>
<g id="a_node3"><a xlink:title="STL class. ">
<polygon fill="#ffffff" stroke="#bfbfbf" points="2,-311.5 2,-368.5 101,-368.5 101,-311.5 2,-311.5"/>
<text text-anchor="middle" x="51.5" y="-356.5" font-family="Helvetica,sans-Serif" font-size="10.00" fill="#000000">std::array&lt; _K, 3 &gt;</text>
<polyline fill="none" stroke="#bfbfbf" points="2,-349.5 101,-349.5 "/>
<text text-anchor="middle" x="51.5" y="-337.5" font-family="Helvetica,sans-Serif" font-size="10.00" fill="#000000"> </text>
<polyline fill="none" stroke="#bfbfbf" points="2,-330.5 101,-330.5 "/>
<text text-anchor="middle" x="51.5" y="-318.5" font-family="Helvetica,sans-Serif" font-size="10.00" fill="#000000"> </text>
</a>
</g>
</g>
<!-- Node5&#45;&gt;Node4 -->
<g id="edge2" class="edge">
<title>Node5&#45;&gt;Node4</title>
<path fill="none" stroke="#191970" d="M51.5,-301.0868C51.5,-292.3923 51.5,-282.9639 51.5,-273.604"/>
<polygon fill="none" stroke="#191970" points="48.0001,-301.2743 51.5,-311.2743 55.0001,-301.2743 48.0001,-301.2743"/>
</g>
<!-- Node6 -->
<g id="node4" class="node">
<title>Node6</title>
<polygon fill="#ffffff" stroke="#bfbfbf" points="37,-416.5 37,-473.5 66,-473.5 66,-416.5 37,-416.5"/>
<text text-anchor="middle" x="51.5" y="-461.5" font-family="Helvetica,sans-Serif" font-size="10.00" fill="#000000">T</text>
<polyline fill="none" stroke="#bfbfbf" points="37,-454.5 66,-454.5 "/>
<text text-anchor="middle" x="51.5" y="-442.5" font-family="Helvetica,sans-Serif" font-size="10.00" fill="#000000"> </text>
<polyline fill="none" stroke="#bfbfbf" points="37,-435.5 66,-435.5 "/>
<text text-anchor="middle" x="51.5" y="-423.5" font-family="Helvetica,sans-Serif" font-size="10.00" fill="#000000"> </text>
</g>
<!-- Node6&#45;&gt;Node5 -->
<g id="edge3" class="edge">
<title>Node6&#45;&gt;Node5</title>
<path fill="none" stroke="#404040" d="M51.5,-416.3083C51.5,-405.4281 51.5,-392.817 51.5,-381.0192"/>
<polygon fill="none" stroke="#404040" points="51.5001,-380.657 47.5,-374.6571 51.5,-368.657 55.5,-374.657 51.5001,-380.657"/>
<text text-anchor="middle" x="76" y="-390" font-family="Helvetica,sans-Serif" font-size="10.00" fill="#000000"> +elements</text>
</g>
</g>
</svg>
