<?xml version="1.0" encoding="UTF-8" standalone="no"?>
<!DOCTYPE svg PUBLIC "-//W3C//DTD SVG 1.1//EN"
 "http://www.w3.org/Graphics/SVG/1.1/DTD/svg11.dtd">
<!-- Generated by graphviz version 2.40.1 (20161225.0304)
 -->
<!-- Title: source/pgcpp/fractions.hpp Pages: 1 -->
<!--zoomable 296 -->
<svg id="main" version="1.1" xmlns="http://www.w3.org/2000/svg" xmlns:xlink="http://www.w3.org/1999/xlink" xml:space="preserve" onload="init(evt)">
<style type="text/css"><![CDATA[
.edge:hover path { stroke: red; }
.edge:hover polygon { stroke: red; fill: red; }
]]></style>
<script type="text/javascript"><![CDATA[
var edges = document.getElementsByTagName('g');
if (edges && edges.length) {
  for (var i=0;i<edges.length;i++) {
    if (edges[i].id.substr(0,4)=='edge') {
      edges[i].setAttribute('class','edge');
    }
  }
}
]]></script>
        <defs>
                <circle id="rim" cx="0" cy="0" r="7"/>
                <circle id="rim2" cx="0" cy="0" r="3.5"/>
                <g id="zoomPlus">
                        <use xlink:href="#rim" fill="#404040">
                                <set attributeName="fill" to="#808080" begin="zoomplus.mouseover" end="zoomplus.mouseout"/>
                        </use>
                        <path d="M-4,0h8M0,-4v8" fill="none" stroke="white" stroke-width="1.5" pointer-events="none"/>
                </g>
                <g id="zoomMin">
                        <use xlink:href="#rim" fill="#404040">
                                <set attributeName="fill" to="#808080" begin="zoomminus.mouseover" end="zoomminus.mouseout"/>
                        </use>
                        <path d="M-4,0h8" fill="none" stroke="white" stroke-width="1.5" pointer-events="none"/>
                </g>
                <g id="dirArrow">
                        <path fill="none" stroke="white" stroke-width="1.5" d="M0,-3.0v7 M-2.5,-0.5L0,-3.0L2.5,-0.5"/>
                </g>
               <g id="resetDef">
                       <use xlink:href="#rim2" fill="#404040">
                               <set attributeName="fill" to="#808080" begin="reset.mouseover" end="reset.mouseout"/>
                       </use>
               </g>
        </defs>

<script type="text/javascript">
var viewWidth = 582;
var viewHeight = 296;
var sectionId = 'dynsection-1';
</script>
<script xlink:href="svgpan.js"/>
<svg id="graph" class="graph">
<g id="viewport">
<title>source/pgcpp/fractions.hpp</title>
<polygon fill="#ffffff" stroke="transparent" points="-4,4 -4,-292 577.5,-292 577.5,4 -4,4"/>
<!-- Node7 -->
<g id="node1" class="node">
<title>Node7</title>
<polygon fill="#bfbfbf" stroke="#000000" points="260,-268.5 260,-287.5 394,-287.5 394,-268.5 260,-268.5"/>
<text text-anchor="middle" x="327" y="-275.5" font-family="Helvetica,sans-Serif" font-size="10.00" fill="#000000">source/pgcpp/fractions.hpp</text>
</g>
<!-- Node8 -->
<g id="node2" class="node">
<title>Node8</title>
<g id="a_node2"><a xlink:href="fraction_8cpp.html" target="_top" xlink:title="source/fraction.cpp">
<polygon fill="#ffffff" stroke="#000000" points="100,-207 100,-226 200,-226 200,-207 100,-207"/>
<text text-anchor="middle" x="150" y="-214" font-family="Helvetica,sans-Serif" font-size="10.00" fill="#000000">source/fraction.cpp</text>
</a>
</g>
</g>
<!-- Node7&#45;&gt;Node8 -->
<g id="edge1" class="edge">
<title>Node7&#45;&gt;Node8</title>
<path fill="none" stroke="#191970" d="M289.8756,-265.1009C256.3053,-253.4366 207.6479,-236.5302 177.462,-226.0419"/>
<polygon fill="#191970" stroke="#191970" points="288.7489,-268.4146 299.3438,-268.3906 291.0465,-261.8023 288.7489,-268.4146"/>
</g>
<!-- Node9 -->
<g id="node3" class="node">
<title>Node9</title>
<g id="a_node3"><a xlink:href="euclid__plane_8hpp.html" target="_top" xlink:title="source/pgcpp/euclid\l_plane.hpp">
<polygon fill="#ffffff" stroke="#000000" points="0,-134.5 0,-164.5 104,-164.5 104,-134.5 0,-134.5"/>
<text text-anchor="start" x="8" y="-152.5" font-family="Helvetica,sans-Serif" font-size="10.00" fill="#000000">source/pgcpp/euclid</text>
<text text-anchor="middle" x="52" y="-141.5" font-family="Helvetica,sans-Serif" font-size="10.00" fill="#000000">_plane.hpp</text>
</a>
</g>
</g>
<!-- Node7&#45;&gt;Node9 -->
<g id="edge2" class="edge">
<title>Node7&#45;&gt;Node9</title>
<path fill="none" stroke="#191970" d="M299.1864,-263.4612C283.4848,-254.898 263.7186,-243.5132 247,-232 229.0489,-219.638 228.1211,-211.4616 209,-201 190.692,-190.9833 142.479,-175.7166 104.2686,-164.4034"/>
<polygon fill="#191970" stroke="#191970" points="297.9094,-266.7485 308.3741,-268.4043 301.2261,-260.5841 297.9094,-266.7485"/>
</g>
<!-- Node12 -->
<g id="node6" class="node">
<title>Node12</title>
<g id="a_node6"><a xlink:href="persp__plane_8hpp.html" target="_top" xlink:title="source/pgcpp/persp\l_plane.hpp">
<polygon fill="#ffffff" stroke="#000000" points="326,-67.5 326,-97.5 428,-97.5 428,-67.5 326,-67.5"/>
<text text-anchor="start" x="334" y="-85.5" font-family="Helvetica,sans-Serif" font-size="10.00" fill="#000000">source/pgcpp/persp</text>
<text text-anchor="middle" x="377" y="-74.5" font-family="Helvetica,sans-Serif" font-size="10.00" fill="#000000">_plane.hpp</text>
</a>
</g>
</g>
<!-- Node7&#45;&gt;Node12 -->
<g id="edge5" class="edge">
<title>Node7&#45;&gt;Node12</title>
<path fill="none" stroke="#191970" d="M368.1035,-264.4361C383.0807,-257.2753 398.4293,-246.8146 407,-232 432.4522,-188.0052 402.8511,-125.9088 386.4598,-97.6103"/>
<polygon fill="#191970" stroke="#191970" points="366.6417,-261.2554 358.89,-268.4777 369.4537,-267.6658 366.6417,-261.2554"/>
</g>
<!-- Node14 -->
<g id="node8" class="node">
<title>Node14</title>
<g id="a_node8"><a xlink:href="proj__plane_8hpp.html" target="_top" xlink:title="source/pgcpp/proj_plane.hpp">
<polygon fill="#ffffff" stroke="#000000" points="256.5,-207 256.5,-226 397.5,-226 397.5,-207 256.5,-207"/>
<text text-anchor="middle" x="327" y="-214" font-family="Helvetica,sans-Serif" font-size="10.00" fill="#000000">source/pgcpp/proj_plane.hpp</text>
</a>
</g>
</g>
<!-- Node7&#45;&gt;Node14 -->
<g id="edge8" class="edge">
<title>Node7&#45;&gt;Node14</title>
<path fill="none" stroke="#191970" d="M327,-258.2462C327,-247.5519 327,-234.814 327,-226.2449"/>
<polygon fill="#191970" stroke="#191970" points="323.5001,-258.3906 327,-268.3906 330.5001,-258.3907 323.5001,-258.3906"/>
</g>
<!-- Node18 -->
<g id="node12" class="node">
<title>Node18</title>
<g id="a_node12"><a xlink:href="test__frac_8cpp.html" target="_top" xlink:title="source/unittest/test\l_frac.cpp">
<polygon fill="#ffffff" stroke="#000000" points="472.5,-201.5 472.5,-231.5 573.5,-231.5 573.5,-201.5 472.5,-201.5"/>
<text text-anchor="start" x="480.5" y="-219.5" font-family="Helvetica,sans-Serif" font-size="10.00" fill="#000000">source/unittest/test</text>
<text text-anchor="middle" x="523" y="-208.5" font-family="Helvetica,sans-Serif" font-size="10.00" fill="#000000">_frac.cpp</text>
</a>
</g>
</g>
<!-- Node7&#45;&gt;Node18 -->
<g id="edge17" class="edge">
<title>Node7&#45;&gt;Node18</title>
<path fill="none" stroke="#191970" d="M367.3199,-265.3486C398.5841,-255.5386 442.008,-241.9133 475.053,-231.5446"/>
<polygon fill="#191970" stroke="#191970" points="366.1185,-262.0573 357.625,-268.3906 368.2142,-268.7362 366.1185,-262.0573"/>
</g>
<!-- Node10 -->
<g id="node4" class="node">
<title>Node10</title>
<g id="a_node4"><a xlink:href="test__euclid_8cpp.html" target="_top" xlink:title="source/unittest/test\l_euclid.cpp">
<polygon fill="#ffffff" stroke="#000000" points="49.5,-67.5 49.5,-97.5 150.5,-97.5 150.5,-67.5 49.5,-67.5"/>
<text text-anchor="start" x="57.5" y="-85.5" font-family="Helvetica,sans-Serif" font-size="10.00" fill="#000000">source/unittest/test</text>
<text text-anchor="middle" x="100" y="-74.5" font-family="Helvetica,sans-Serif" font-size="10.00" fill="#000000">_euclid.cpp</text>
</a>
</g>
</g>
<!-- Node9&#45;&gt;Node10 -->
<g id="edge3" class="edge">
<title>Node9&#45;&gt;Node10</title>
<path fill="none" stroke="#191970" d="M68.791,-126.0626C75.5476,-116.6315 83.1444,-106.0276 89.1512,-97.6432"/>
<polygon fill="#191970" stroke="#191970" points="65.8706,-124.1292 62.8919,-134.2967 71.561,-128.2059 65.8706,-124.1292"/>
</g>
<!-- Node11 -->
<g id="node5" class="node">
<title>Node11</title>
<g id="a_node5"><a xlink:href="test__persp__plane_8cpp.html" target="_top" xlink:title="source/unittest/test\l_persp_plane.cpp">
<polygon fill="#ffffff" stroke="#000000" points="88.5,-.5 88.5,-30.5 189.5,-30.5 189.5,-.5 88.5,-.5"/>
<text text-anchor="start" x="96.5" y="-18.5" font-family="Helvetica,sans-Serif" font-size="10.00" fill="#000000">source/unittest/test</text>
<text text-anchor="middle" x="139" y="-7.5" font-family="Helvetica,sans-Serif" font-size="10.00" fill="#000000">_persp_plane.cpp</text>
</a>
</g>
</g>
<!-- Node9&#45;&gt;Node11 -->
<g id="edge4" class="edge">
<title>Node9&#45;&gt;Node11</title>
<path fill="none" stroke="#191970" d="M40.4239,-124.8657C34.0889,-107.5153 29.4527,-84.3758 40,-67 50.7568,-49.2791 69.8167,-37.3748 88.3596,-29.5206"/>
<polygon fill="#191970" stroke="#191970" points="37.2551,-126.3659 44.2482,-134.325 43.7448,-123.7421 37.2551,-126.3659"/>
</g>
<!-- Node12&#45;&gt;Node11 -->
<g id="edge7" class="edge">
<title>Node12&#45;&gt;Node11</title>
<path fill="none" stroke="#191970" d="M316.2282,-65.392C277.0084,-54.3511 226.5903,-40.1578 189.5635,-29.7343"/>
<polygon fill="#191970" stroke="#191970" points="315.3687,-68.786 325.943,-68.1268 317.2656,-62.0479 315.3687,-68.786"/>
</g>
<!-- Node13 -->
<g id="node7" class="node">
<title>Node13</title>
<g id="a_node7"><a xlink:href="test__ck__plane_8cpp.html" target="_top" xlink:title="source/unittest/test\l_ck_plane.cpp">
<polygon fill="#ffffff" stroke="#000000" points="286.5,-.5 286.5,-30.5 387.5,-30.5 387.5,-.5 286.5,-.5"/>
<text text-anchor="start" x="294.5" y="-18.5" font-family="Helvetica,sans-Serif" font-size="10.00" fill="#000000">source/unittest/test</text>
<text text-anchor="middle" x="337" y="-7.5" font-family="Helvetica,sans-Serif" font-size="10.00" fill="#000000">_ck_plane.cpp</text>
</a>
</g>
</g>
<!-- Node12&#45;&gt;Node13 -->
<g id="edge6" class="edge">
<title>Node12&#45;&gt;Node13</title>
<path fill="none" stroke="#191970" d="M362.6619,-58.4837C357.1192,-49.1996 350.9442,-38.8565 346.0407,-30.6432"/>
<polygon fill="#191970" stroke="#191970" points="359.7921,-60.5046 367.9234,-67.2967 365.8024,-56.9163 359.7921,-60.5046"/>
</g>
<!-- Node14&#45;&gt;Node9 -->
<g id="edge14" class="edge">
<title>Node14&#45;&gt;Node9</title>
<path fill="none" stroke="#191970" d="M276.989,-204.6539C233.5912,-194.329 169.0959,-178.8762 113,-165 110.1361,-164.2916 107.1977,-163.5601 104.2325,-162.8185"/>
<polygon fill="#191970" stroke="#191970" points="276.194,-208.0623 286.7324,-206.9701 277.8131,-201.2521 276.194,-208.0623"/>
</g>
<!-- Node14&#45;&gt;Node12 -->
<g id="edge15" class="edge">
<title>Node14&#45;&gt;Node12</title>
<path fill="none" stroke="#191970" d="M353.3989,-201.4222C366.0812,-192.6021 380.0142,-180.2023 387,-165 397.0605,-143.1065 389.7397,-114.6691 383.4334,-97.5424"/>
<polygon fill="#191970" stroke="#191970" points="351.3874,-198.5554 344.9195,-206.9469 355.2087,-204.4204 351.3874,-198.5554"/>
</g>
<!-- Node15 -->
<g id="node9" class="node">
<title>Node15</title>
<g id="a_node9"><a xlink:href="ck__plane_8hpp.html" target="_top" xlink:title="source/pgcpp/ck_plane.hpp">
<polygon fill="#ffffff" stroke="#000000" points="122,-140 122,-159 258,-159 258,-140 122,-140"/>
<text text-anchor="middle" x="190" y="-147" font-family="Helvetica,sans-Serif" font-size="10.00" fill="#000000">source/pgcpp/ck_plane.hpp</text>
</a>
</g>
</g>
<!-- Node14&#45;&gt;Node15 -->
<g id="edge9" class="edge">
<title>Node14&#45;&gt;Node15</title>
<path fill="none" stroke="#191970" d="M298.1714,-202.4013C271.564,-189.389 232.7712,-170.4173 209.5923,-159.0817"/>
<polygon fill="#191970" stroke="#191970" points="296.8503,-205.6513 307.3712,-206.9005 299.9256,-199.3631 296.8503,-205.6513"/>
</g>
<!-- Node17 -->
<g id="node11" class="node">
<title>Node17</title>
<g id="a_node11"><a xlink:href="test__proj__plane_8cpp.html" target="_top" xlink:title="source/unittest/test\l_proj_plane.cpp">
<polygon fill="#ffffff" stroke="#000000" points="276.5,-134.5 276.5,-164.5 377.5,-164.5 377.5,-134.5 276.5,-134.5"/>
<text text-anchor="start" x="284.5" y="-152.5" font-family="Helvetica,sans-Serif" font-size="10.00" fill="#000000">source/unittest/test</text>
<text text-anchor="middle" x="327" y="-141.5" font-family="Helvetica,sans-Serif" font-size="10.00" fill="#000000">_proj_plane.cpp</text>
</a>
</g>
</g>
<!-- Node14&#45;&gt;Node17 -->
<g id="edge16" class="edge">
<title>Node14&#45;&gt;Node17</title>
<path fill="none" stroke="#191970" d="M327,-196.7758C327,-186.4641 327,-174.0437 327,-164.5218"/>
<polygon fill="#191970" stroke="#191970" points="323.5001,-196.9005 327,-206.9005 330.5001,-196.9006 323.5001,-196.9005"/>
</g>
<!-- Node15&#45;&gt;Node10 -->
<g id="edge13" class="edge">
<title>Node15&#45;&gt;Node10</title>
<path fill="none" stroke="#191970" d="M169.0714,-133.9198C154.3425,-122.955 134.738,-108.3605 120.1785,-97.5218"/>
<polygon fill="#191970" stroke="#191970" points="166.9938,-136.7365 177.1052,-139.9005 171.1739,-131.1216 166.9938,-136.7365"/>
</g>
<!-- Node15&#45;&gt;Node12 -->
<g id="edge10" class="edge">
<title>Node15&#45;&gt;Node12</title>
<path fill="none" stroke="#191970" d="M226.3937,-136.4605C257.5505,-125.2974 302.4189,-109.2216 335.0736,-97.5218"/>
<polygon fill="#191970" stroke="#191970" points="225.026,-133.2326 216.7925,-139.9005 227.3871,-139.8224 225.026,-133.2326"/>
</g>
<!-- Node15&#45;&gt;Node13 -->
<g id="edge11" class="edge">
<title>Node15&#45;&gt;Node13</title>
<path fill="none" stroke="#191970" d="M221.3433,-135.2583C239.1775,-126.1989 261.2308,-113.3035 278,-98 299.9813,-77.94 318.653,-48.4115 328.8052,-30.6581"/>
<polygon fill="#191970" stroke="#191970" points="219.3589,-132.3337 211.9298,-139.8875 222.4479,-138.6153 219.3589,-132.3337"/>
</g>
<!-- Node16 -->
<g id="node10" class="node">
<title>Node16</title>
<g id="a_node10"><a xlink:href="test__ell__plane_8cpp.html" target="_top" xlink:title="source/unittest/test\l_ell_plane.cpp">
<polygon fill="#ffffff" stroke="#000000" points="168.5,-67.5 168.5,-97.5 269.5,-97.5 269.5,-67.5 168.5,-67.5"/>
<text text-anchor="start" x="176.5" y="-85.5" font-family="Helvetica,sans-Serif" font-size="10.00" fill="#000000">source/unittest/test</text>
<text text-anchor="middle" x="219" y="-74.5" font-family="Helvetica,sans-Serif" font-size="10.00" fill="#000000">_ell_plane.cpp</text>
</a>
</g>
</g>
<!-- Node15&#45;&gt;Node16 -->
<g id="edge12" class="edge">
<title>Node15&#45;&gt;Node16</title>
<path fill="none" stroke="#191970" d="M198.2537,-130.4311C202.7713,-119.9939 208.2889,-107.2463 212.498,-97.5218"/>
<polygon fill="#191970" stroke="#191970" points="194.9153,-129.333 194.155,-139.9005 201.3393,-132.1136 194.9153,-129.333"/>
</g>
</g>
</svg>
        <g id="navigator" transform="translate(0 0)" fill="#404254">
                <rect fill="#f2f5e9" fill-opacity="0.5" stroke="#606060" stroke-width=".5" x="0" y="0" width="60" height="60"/>
                <use id="zoomplus" xlink:href="#zoomPlus" x="17" y="9" onmousedown="handleZoom(evt,'in')"/>
                <use id="zoomminus" xlink:href="#zoomMin" x="42" y="9" onmousedown="handleZoom(evt,'out')"/>
                <use id="reset" xlink:href="#resetDef" x="30" y="36" onmousedown="handleReset()"/>
                <g id="arrowUp" xlink:href="#dirArrow" transform="translate(30 24)" onmousedown="handlePan(0,-1)">
                  <use xlink:href="#rim" fill="#404040">
                        <set attributeName="fill" to="#808080" begin="arrowUp.mouseover" end="arrowUp.mouseout"/>
                  </use>
                  <path fill="none" stroke="white" stroke-width="1.5" d="M0,-3.0v7 M-2.5,-0.5L0,-3.0L2.5,-0.5"/>
                </g>
                <g id="arrowRight" xlink:href="#dirArrow" transform="rotate(90) translate(36 -43)" onmousedown="handlePan(1,0)">
                  <use xlink:href="#rim" fill="#404040">
                        <set attributeName="fill" to="#808080" begin="arrowRight.mouseover" end="arrowRight.mouseout"/>
                  </use>
                  <path fill="none" stroke="white" stroke-width="1.5" d="M0,-3.0v7 M-2.5,-0.5L0,-3.0L2.5,-0.5"/>
                </g>
                <g id="arrowDown" xlink:href="#dirArrow" transform="rotate(180) translate(-30 -48)" onmousedown="handlePan(0,1)">
                  <use xlink:href="#rim" fill="#404040">
                        <set attributeName="fill" to="#808080" begin="arrowDown.mouseover" end="arrowDown.mouseout"/>
                  </use>
                  <path fill="none" stroke="white" stroke-width="1.5" d="M0,-3.0v7 M-2.5,-0.5L0,-3.0L2.5,-0.5"/>
                </g>
                <g id="arrowLeft" xlink:href="#dirArrow" transform="rotate(270) translate(-36 17)" onmousedown="handlePan(-1,0)">
                  <use xlink:href="#rim" fill="#404040">
                        <set attributeName="fill" to="#808080" begin="arrowLeft.mouseover" end="arrowLeft.mouseout"/>
                  </use>
                  <path fill="none" stroke="white" stroke-width="1.5" d="M0,-3.0v7 M-2.5,-0.5L0,-3.0L2.5,-0.5"/>
                </g>
        </g>
        <svg viewBox="0 0 15 15" width="100%" height="30px" preserveAspectRatio="xMaxYMin meet">
         <g id="arrow_out" transform="scale(0.3 0.3)">
          <a xlink:href="fractions_8hpp__dep__incl_org.svg" target="_base">
           <rect id="button" ry="5" rx="5" y="6" x="6" height="38" width="38"
                fill="#f2f5e9" fill-opacity="0.5" stroke="#606060" stroke-width="1.0"/>
           <path id="arrow"
             d="M 11.500037,31.436501 C 11.940474,20.09759 22.043105,11.32322 32.158766,21.979434 L 37.068811,17.246167 C 37.068811,17.246167 37.088388,32 37.088388,32 L 22.160133,31.978069 C 22.160133,31.978069 26.997745,27.140456 26.997745,27.140456 C 18.528582,18.264221 13.291696,25.230495 11.500037,31.436501 z"
             style="fill:#404040;"/>
          </a>
         </g>
        </svg>
</svg>
