<?xml version="1.0" encoding="UTF-8" standalone="no"?>
<!DOCTYPE svg PUBLIC "-//W3C//DTD SVG 1.1//EN"
 "http://www.w3.org/Graphics/SVG/1.1/DTD/svg11.dtd">
<!-- Generated by graphviz version 2.40.1 (20161225.0304)
 -->
<!-- Title: source/pgcpp/pg_common.hpp Pages: 1 -->
<svg width="645pt" height="218pt"
 viewBox="0.00 0.00 644.50 218.00" xmlns="http://www.w3.org/2000/svg" xmlns:xlink="http://www.w3.org/1999/xlink">
<g id="graph0" class="graph" transform="scale(1 1) rotate(0) translate(4 214)">
<title>source/pgcpp/pg_common.hpp</title>
<polygon fill="#ffffff" stroke="transparent" points="-4,4 -4,-214 640.5,-214 640.5,4 -4,4"/>
<!-- Node5 -->
<g id="node1" class="node">
<title>Node5</title>
<polygon fill="#bfbfbf" stroke="#000000" points="210.5,-190.5 210.5,-209.5 360.5,-209.5 360.5,-190.5 210.5,-190.5"/>
<text text-anchor="middle" x="285.5" y="-197.5" font-family="Helvetica,sans-Serif" font-size="10.00" fill="#000000">source/pgcpp/pg_common.hpp</text>
</g>
<!-- Node6 -->
<g id="node2" class="node">
<title>Node6</title>
<g id="a_node2"><a xlink:href="ck__plane_8hpp.html" target="_top" xlink:title="source/pgcpp/ck_plane.hpp">
<polygon fill="#ffffff" stroke="#000000" points="72.5,-134.5 72.5,-153.5 208.5,-153.5 208.5,-134.5 72.5,-134.5"/>
<text text-anchor="middle" x="140.5" y="-141.5" font-family="Helvetica,sans-Serif" font-size="10.00" fill="#000000">source/pgcpp/ck_plane.hpp</text>
</a>
</g>
</g>
<!-- Node5&#45;&gt;Node6 -->
<g id="edge1" class="edge">
<title>Node5&#45;&gt;Node6</title>
<path fill="none" stroke="#191970" d="M250.9435,-186.6541C224.5014,-176.4419 188.6831,-162.6086 165.1011,-153.5011"/>
<polygon fill="#191970" stroke="#191970" points="249.9842,-190.0354 260.5736,-190.3733 252.5061,-183.5055 249.9842,-190.0354"/>
</g>
<!-- Node8 -->
<g id="node4" class="node">
<title>Node8</title>
<g id="a_node4"><a xlink:href="test__ck__plane_8cpp.html" target="_top" xlink:title="source/unittest/test\l_ck_plane.cpp">
<polygon fill="#ffffff" stroke="#000000" points="0,-.5 0,-30.5 101,-30.5 101,-.5 0,-.5"/>
<text text-anchor="start" x="8" y="-18.5" font-family="Helvetica,sans-Serif" font-size="10.00" fill="#000000">source/unittest/test</text>
<text text-anchor="middle" x="50.5" y="-7.5" font-family="Helvetica,sans-Serif" font-size="10.00" fill="#000000">_ck_plane.cpp</text>
</a>
</g>
</g>
<!-- Node5&#45;&gt;Node8 -->
<g id="edge26" class="edge">
<title>Node5&#45;&gt;Node8</title>
<path fill="none" stroke="#191970" d="M202.5313,-188.9467C149.5256,-180.7286 86.564,-168.4645 63.5,-154 36.9156,-137.3278 30.5917,-127.7128 20.5,-98 16.0691,-84.9541 16.9083,-80.3014 20.5,-67 24.0606,-53.8138 31.9254,-40.5336 38.7091,-30.7621"/>
<polygon fill="#191970" stroke="#191970" points="202.2297,-192.4411 212.6423,-190.4848 203.2824,-185.5207 202.2297,-192.4411"/>
</g>
<!-- Node12 -->
<g id="node8" class="node">
<title>Node12</title>
<g id="a_node8"><a xlink:href="euclid__plane_8hpp.html" target="_top" xlink:title="source/pgcpp/euclid\l_plane.hpp">
<polygon fill="#ffffff" stroke="#000000" points="532.5,-67.5 532.5,-97.5 636.5,-97.5 636.5,-67.5 532.5,-67.5"/>
<text text-anchor="start" x="540.5" y="-85.5" font-family="Helvetica,sans-Serif" font-size="10.00" fill="#000000">source/pgcpp/euclid</text>
<text text-anchor="middle" x="584.5" y="-74.5" font-family="Helvetica,sans-Serif" font-size="10.00" fill="#000000">_plane.hpp</text>
</a>
</g>
</g>
<!-- Node5&#45;&gt;Node12 -->
<g id="edge8" class="edge">
<title>Node5&#45;&gt;Node12</title>
<path fill="none" stroke="#191970" d="M329.7406,-187.5607C358.7229,-179.0226 397.253,-166.931 430.5,-154 474.7307,-136.797 524.238,-112.9522 554.8907,-97.624"/>
<polygon fill="#191970" stroke="#191970" points="328.5314,-184.2675 319.9117,-190.428 330.4918,-190.9874 328.5314,-184.2675"/>
</g>
<!-- Node13 -->
<g id="node9" class="node">
<title>Node13</title>
<g id="a_node9"><a xlink:href="pg__line_8hpp.html" target="_top" xlink:title="source/pgcpp/pg_line.hpp">
<polygon fill="#ffffff" stroke="#000000" points="196.5,-73 196.5,-92 324.5,-92 324.5,-73 196.5,-73"/>
<text text-anchor="middle" x="260.5" y="-80" font-family="Helvetica,sans-Serif" font-size="10.00" fill="#000000">source/pgcpp/pg_line.hpp</text>
</a>
</g>
</g>
<!-- Node5&#45;&gt;Node13 -->
<g id="edge11" class="edge">
<title>Node5&#45;&gt;Node13</title>
<path fill="none" stroke="#191970" d="M270.5309,-182.3445C264.6244,-174.2525 258.5326,-164.2016 255.5,-154 249.1886,-132.7688 254.0713,-106.4949 257.6326,-92.4552"/>
<polygon fill="#191970" stroke="#191970" points="267.8036,-184.5387 276.7139,-190.2709 273.323,-180.2333 267.8036,-184.5387"/>
</g>
<!-- Node15 -->
<g id="node11" class="node">
<title>Node15</title>
<g id="a_node11"><a xlink:href="pg__object_8hpp.html" target="_top" xlink:title="source/pgcpp/pg_object.hpp">
<polygon fill="#ffffff" stroke="#000000" points="265,-134.5 265,-153.5 404,-153.5 404,-134.5 265,-134.5"/>
<text text-anchor="middle" x="334.5" y="-141.5" font-family="Helvetica,sans-Serif" font-size="10.00" fill="#000000">source/pgcpp/pg_object.hpp</text>
</a>
</g>
</g>
<!-- Node5&#45;&gt;Node15 -->
<g id="edge17" class="edge">
<title>Node5&#45;&gt;Node15</title>
<path fill="none" stroke="#191970" d="M300.8122,-182.5004C309.1447,-172.9775 319.1353,-161.5596 326.0627,-153.6427"/>
<polygon fill="#191970" stroke="#191970" points="297.9862,-180.415 294.0351,-190.2455 303.2543,-185.0245 297.9862,-180.415"/>
</g>
<!-- Node16 -->
<g id="node12" class="node">
<title>Node16</title>
<g id="a_node12"><a xlink:href="pg__point_8hpp.html" target="_top" xlink:title="source/pgcpp/pg_point.hpp">
<polygon fill="#ffffff" stroke="#000000" points="342.5,-73 342.5,-92 476.5,-92 476.5,-73 342.5,-73"/>
<text text-anchor="middle" x="409.5" y="-80" font-family="Helvetica,sans-Serif" font-size="10.00" fill="#000000">source/pgcpp/pg_point.hpp</text>
</a>
</g>
</g>
<!-- Node5&#45;&gt;Node16 -->
<g id="edge25" class="edge">
<title>Node5&#45;&gt;Node16</title>
<path fill="none" stroke="#191970" d="M336.8449,-187.807C367.9412,-179.2672 403.3263,-167.0796 412.5,-154 425.4841,-135.4875 418.4901,-107.1591 413.3618,-92.3285"/>
<polygon fill="#191970" stroke="#191970" points="335.6991,-184.4901 326.9381,-190.448 337.5022,-191.2539 335.6991,-184.4901"/>
</g>
<!-- Node7 -->
<g id="node3" class="node">
<title>Node7</title>
<g id="a_node3"><a xlink:href="persp__plane_8hpp.html" target="_top" xlink:title="source/pgcpp/persp\l_plane.hpp">
<polygon fill="#ffffff" stroke="#000000" points="38.5,-67.5 38.5,-97.5 140.5,-97.5 140.5,-67.5 38.5,-67.5"/>
<text text-anchor="start" x="46.5" y="-85.5" font-family="Helvetica,sans-Serif" font-size="10.00" fill="#000000">source/pgcpp/persp</text>
<text text-anchor="middle" x="89.5" y="-74.5" font-family="Helvetica,sans-Serif" font-size="10.00" fill="#000000">_plane.hpp</text>
</a>
</g>
</g>
<!-- Node6&#45;&gt;Node7 -->
<g id="edge2" class="edge">
<title>Node6&#45;&gt;Node7</title>
<path fill="none" stroke="#191970" d="M126.1133,-126.6514C118.5116,-117.4845 109.2717,-106.3423 101.976,-97.5446"/>
<polygon fill="#191970" stroke="#191970" points="123.4537,-128.9272 132.5313,-134.3906 128.842,-124.4588 123.4537,-128.9272"/>
</g>
<!-- Node6&#45;&gt;Node8 -->
<g id="edge5" class="edge">
<title>Node6&#45;&gt;Node8</title>
<path fill="none" stroke="#191970" d="M74.8201,-131.0047C57.1656,-124.1881 40.0593,-113.8061 29.5,-98 15.7071,-77.3536 29.0613,-48.2758 39.8722,-30.7245"/>
<polygon fill="#191970" stroke="#191970" points="74.0516,-134.4436 84.6464,-134.4367 76.3598,-127.835 74.0516,-134.4436"/>
</g>
<!-- Node10 -->
<g id="node6" class="node">
<title>Node10</title>
<g id="a_node6"><a xlink:href="test__ell__plane_8cpp.html" target="_top" xlink:title="source/unittest/test\l_ell_plane.cpp">
<polygon fill="#ffffff" stroke="#000000" points="119,-.5 119,-30.5 220,-30.5 220,-.5 119,-.5"/>
<text text-anchor="start" x="127" y="-18.5" font-family="Helvetica,sans-Serif" font-size="10.00" fill="#000000">source/unittest/test</text>
<text text-anchor="middle" x="169.5" y="-7.5" font-family="Helvetica,sans-Serif" font-size="10.00" fill="#000000">_ell_plane.cpp</text>
</a>
</g>
</g>
<!-- Node6&#45;&gt;Node10 -->
<g id="edge6" class="edge">
<title>Node6&#45;&gt;Node10</title>
<path fill="none" stroke="#191970" d="M144.9523,-124.2718C150.7641,-98.5195 160.8124,-53.9952 166.0693,-30.7016"/>
<polygon fill="#191970" stroke="#191970" points="141.4671,-123.8164 142.6797,-134.3416 148.2954,-125.3575 141.4671,-123.8164"/>
</g>
<!-- Node11 -->
<g id="node7" class="node">
<title>Node11</title>
<g id="a_node7"><a xlink:href="test__euclid_8cpp.html" target="_top" xlink:title="source/unittest/test\l_euclid.cpp">
<polygon fill="#ffffff" stroke="#000000" points="476,-.5 476,-30.5 577,-30.5 577,-.5 476,-.5"/>
<text text-anchor="start" x="484" y="-18.5" font-family="Helvetica,sans-Serif" font-size="10.00" fill="#000000">source/unittest/test</text>
<text text-anchor="middle" x="526.5" y="-7.5" font-family="Helvetica,sans-Serif" font-size="10.00" fill="#000000">_euclid.cpp</text>
</a>
</g>
</g>
<!-- Node6&#45;&gt;Node11 -->
<g id="edge7" class="edge">
<title>Node6&#45;&gt;Node11</title>
<path fill="none" stroke="#191970" d="M218.9389,-135.4191C317.38,-124.3749 474.7468,-105.6941 485.5,-98 508.0028,-81.8989 518.8155,-49.8833 523.4615,-30.8157"/>
<polygon fill="#191970" stroke="#191970" points="218.2672,-131.9724 208.7181,-136.5622 219.0452,-138.929 218.2672,-131.9724"/>
</g>
<!-- Node7&#45;&gt;Node8 -->
<g id="edge3" class="edge">
<title>Node7&#45;&gt;Node8</title>
<path fill="none" stroke="#191970" d="M75.5204,-58.4837C70.1162,-49.1996 64.0956,-38.8565 59.3147,-30.6432"/>
<polygon fill="#191970" stroke="#191970" points="72.5947,-60.4149 80.6503,-67.2967 78.6444,-56.8934 72.5947,-60.4149"/>
</g>
<!-- Node9 -->
<g id="node5" class="node">
<title>Node9</title>
<g id="a_node5"><a xlink:href="test__persp__plane_8cpp.html" target="_top" xlink:title="source/unittest/test\l_persp_plane.cpp">
<polygon fill="#ffffff" stroke="#000000" points="357,-.5 357,-30.5 458,-30.5 458,-.5 357,-.5"/>
<text text-anchor="start" x="365" y="-18.5" font-family="Helvetica,sans-Serif" font-size="10.00" fill="#000000">source/unittest/test</text>
<text text-anchor="middle" x="407.5" y="-7.5" font-family="Helvetica,sans-Serif" font-size="10.00" fill="#000000">_persp_plane.cpp</text>
</a>
</g>
</g>
<!-- Node7&#45;&gt;Node9 -->
<g id="edge4" class="edge">
<title>Node7&#45;&gt;Node9</title>
<path fill="none" stroke="#191970" d="M150.7276,-71.2746C203.1325,-61.4289 280.5039,-46.3277 347.5,-31 350.5414,-30.3042 353.6637,-29.5671 356.8096,-28.807"/>
<polygon fill="#191970" stroke="#191970" points="149.7752,-67.892 140.5899,-73.1722 151.0632,-74.7725 149.7752,-67.892"/>
</g>
<!-- Node12&#45;&gt;Node9 -->
<g id="edge10" class="edge">
<title>Node12&#45;&gt;Node9</title>
<path fill="none" stroke="#191970" d="M535.2702,-63.865C507.564,-53.3773 473.4165,-40.4515 447.3955,-30.6017"/>
<polygon fill="#191970" stroke="#191970" points="534.1863,-67.197 544.7777,-67.4639 536.6644,-60.6503 534.1863,-67.197"/>
</g>
<!-- Node12&#45;&gt;Node11 -->
<g id="edge9" class="edge">
<title>Node12&#45;&gt;Node11</title>
<path fill="none" stroke="#191970" d="M564.7094,-59.6385C556.4222,-50.0653 547.0153,-39.1987 539.609,-30.6432"/>
<polygon fill="#191970" stroke="#191970" points="562.1476,-62.0268 571.3389,-67.2967 567.4401,-57.4453 562.1476,-62.0268"/>
</g>
<!-- Node13&#45;&gt;Node8 -->
<g id="edge12" class="edge">
<title>Node13&#45;&gt;Node8</title>
<path fill="none" stroke="#191970" d="M220.5354,-69.7494C185.5147,-58.5761 134.5716,-42.3229 97.5831,-30.5218"/>
<polygon fill="#191970" stroke="#191970" points="219.8214,-73.1953 230.4121,-72.9005 221.9491,-66.5265 219.8214,-73.1953"/>
</g>
<!-- Node13&#45;&gt;Node9 -->
<g id="edge15" class="edge">
<title>Node13&#45;&gt;Node9</title>
<path fill="none" stroke="#191970" d="M290.7143,-68.7289C315.1236,-57.6035 349.4277,-41.9683 374.5418,-30.5218"/>
<polygon fill="#191970" stroke="#191970" points="289.2094,-65.5683 281.5615,-72.9005 292.1125,-71.9379 289.2094,-65.5683"/>
</g>
<!-- Node13&#45;&gt;Node10 -->
<g id="edge13" class="edge">
<title>Node13&#45;&gt;Node10</title>
<path fill="none" stroke="#191970" d="M239.3389,-66.9198C224.4463,-55.955 204.624,-41.3605 189.9027,-30.5218"/>
<polygon fill="#191970" stroke="#191970" points="237.334,-69.79 247.4619,-72.9005 241.4843,-64.153 237.334,-69.79"/>
</g>
<!-- Node13&#45;&gt;Node11 -->
<g id="edge14" class="edge">
<title>Node13&#45;&gt;Node11</title>
<path fill="none" stroke="#191970" d="M309.1549,-70.4502C350.9148,-60.0807 412.6984,-44.6743 466.5,-31 469.5239,-30.2314 472.6326,-29.4381 475.7682,-28.6355"/>
<polygon fill="#191970" stroke="#191970" points="308.1118,-67.1028 299.2494,-72.9086 309.798,-73.8967 308.1118,-67.1028"/>
</g>
<!-- Node14 -->
<g id="node10" class="node">
<title>Node14</title>
<g id="a_node10"><a xlink:href="test__proj__plane_8cpp.html" target="_top" xlink:title="source/unittest/test\l_proj_plane.cpp">
<polygon fill="#ffffff" stroke="#000000" points="238,-.5 238,-30.5 339,-30.5 339,-.5 238,-.5"/>
<text text-anchor="start" x="246" y="-18.5" font-family="Helvetica,sans-Serif" font-size="10.00" fill="#000000">source/unittest/test</text>
<text text-anchor="middle" x="288.5" y="-7.5" font-family="Helvetica,sans-Serif" font-size="10.00" fill="#000000">_proj_plane.cpp</text>
</a>
</g>
</g>
<!-- Node13&#45;&gt;Node14 -->
<g id="edge16" class="edge">
<title>Node13&#45;&gt;Node14</title>
<path fill="none" stroke="#191970" d="M268.4691,-63.4311C272.8309,-52.9939 278.1583,-40.2463 282.2222,-30.5218"/>
<polygon fill="#191970" stroke="#191970" points="265.1384,-62.3242 264.5117,-72.9005 271.5971,-65.0234 265.1384,-62.3242"/>
</g>
<!-- Node15&#45;&gt;Node13 -->
<g id="edge18" class="edge">
<title>Node15&#45;&gt;Node13</title>
<path fill="none" stroke="#191970" d="M315.0906,-127.8692C301.4799,-116.5576 283.7302,-101.8062 272.2255,-92.2449"/>
<polygon fill="#191970" stroke="#191970" points="313.0097,-130.6907 322.9375,-134.3906 317.4838,-125.3072 313.0097,-130.6907"/>
</g>
<!-- Node15&#45;&gt;Node16 -->
<g id="edge19" class="edge">
<title>Node15&#45;&gt;Node16</title>
<path fill="none" stroke="#191970" d="M354.1717,-127.8692C367.9663,-116.5576 385.9558,-101.8062 397.616,-92.2449"/>
<polygon fill="#191970" stroke="#191970" points="351.7322,-125.3433 346.2188,-134.3906 356.1707,-130.7562 351.7322,-125.3433"/>
</g>
<!-- Node16&#45;&gt;Node8 -->
<g id="edge20" class="edge">
<title>Node16&#45;&gt;Node8</title>
<path fill="none" stroke="#191970" d="M354.0935,-70.9197C347.1679,-69.5549 340.1757,-68.2166 333.5,-67 234.3009,-48.9211 208.157,-51.8351 109.5,-31 106.8059,-30.431 104.0504,-29.8178 101.2738,-29.175"/>
<polygon fill="#191970" stroke="#191970" points="353.6561,-74.4013 364.1479,-72.9272 355.0268,-67.5368 353.6561,-74.4013"/>
</g>
<!-- Node16&#45;&gt;Node9 -->
<g id="edge23" class="edge">
<title>Node16&#45;&gt;Node9</title>
<path fill="none" stroke="#191970" d="M408.9112,-62.7758C408.6034,-52.4641 408.2326,-40.0437 407.9484,-30.5218"/>
<polygon fill="#191970" stroke="#191970" points="405.4165,-63.0095 409.2134,-72.9005 412.4134,-62.8005 405.4165,-63.0095"/>
</g>
<!-- Node16&#45;&gt;Node10 -->
<g id="edge21" class="edge">
<title>Node16&#45;&gt;Node10</title>
<path fill="none" stroke="#191970" d="M365.6567,-70.2604C324.6386,-58.8095 263.3881,-41.7104 220.2666,-29.6723"/>
<polygon fill="#191970" stroke="#191970" points="364.7959,-73.6539 375.3687,-72.9717 366.6781,-66.9117 364.7959,-73.6539"/>
</g>
<!-- Node16&#45;&gt;Node11 -->
<g id="edge22" class="edge">
<title>Node16&#45;&gt;Node11</title>
<path fill="none" stroke="#191970" d="M435.1118,-67.8334C454.4205,-56.7763 480.8099,-41.6644 500.268,-30.5218"/>
<polygon fill="#191970" stroke="#191970" points="433.2018,-64.8939 426.2632,-72.9005 436.6804,-70.9684 433.2018,-64.8939"/>
</g>
<!-- Node16&#45;&gt;Node14 -->
<g id="edge24" class="edge">
<title>Node16&#45;&gt;Node14</title>
<path fill="none" stroke="#191970" d="M383.2844,-67.9839C363.292,-56.9138 335.8436,-41.7151 315.6289,-30.5218"/>
<polygon fill="#191970" stroke="#191970" points="381.7198,-71.1183 392.1637,-72.9005 385.1107,-64.9944 381.7198,-71.1183"/>
</g>
</g>
</svg>
