<?xml version="1.0" encoding="UTF-8" standalone="no"?>
<!DOCTYPE svg PUBLIC "-//W3C//DTD SVG 1.1//EN"
 "http://www.w3.org/Graphics/SVG/1.1/DTD/svg11.dtd">
<!-- Generated by graphviz version 2.40.1 (20161225.0304)
 -->
<!-- Title: fun::pg_line&lt; _K &gt; Pages: 1 -->
<svg width="110pt" height="353pt"
 viewBox="0.00 0.00 110.00 353.00" xmlns="http://www.w3.org/2000/svg" xmlns:xlink="http://www.w3.org/1999/xlink">
<g id="graph0" class="graph" transform="scale(1 1) rotate(0) translate(4 349)">
<title>fun::pg_line&lt; _K &gt;</title>
<polygon fill="#ffffff" stroke="transparent" points="-4,4 -4,-349 106,-349 106,4 -4,4"/>
<!-- Node0 -->
<g id="node1" class="node">
<title>Node0</title>
<polygon fill="#bfbfbf" stroke="#000000" points="2.5,-.5 2.5,-90.5 99.5,-90.5 99.5,-.5 2.5,-.5"/>
<text text-anchor="middle" x="51" y="-78.5" font-family="Helvetica,sans-Serif" font-size="10.00" fill="#000000">fun::pg_line&lt; _K &gt;</text>
<polyline fill="none" stroke="#000000" points="2.5,-71.5 99.5,-71.5 "/>
<text text-anchor="middle" x="51" y="-59.5" font-family="Helvetica,sans-Serif" font-size="10.00" fill="#000000"> </text>
<polyline fill="none" stroke="#000000" points="2.5,-52.5 99.5,-52.5 "/>
<text text-anchor="start" x="10.5" y="-40.5" font-family="Helvetica,sans-Serif" font-size="10.00" fill="#000000">+ pg_line()</text>
<text text-anchor="start" x="10.5" y="-29.5" font-family="Helvetica,sans-Serif" font-size="10.00" fill="#000000">+ pg_line()</text>
<text text-anchor="start" x="10.5" y="-18.5" font-family="Helvetica,sans-Serif" font-size="10.00" fill="#000000">+ pg_line()</text>
<text text-anchor="start" x="10.5" y="-7.5" font-family="Helvetica,sans-Serif" font-size="10.00" fill="#000000">+ pg_line()</text>
</g>
<!-- Node1 -->
<g id="node2" class="node">
<title>Node1</title>
<g id="a_node2"><a xlink:href="classfun_1_1pg__object.html" target="_top" xlink:title="{fun::pg_object\&lt; _K,\l pg_point\&lt; _K \&gt; \&gt;\n||+ pg_object()\l+ operator==()\l+ operator!=()\l+ dot()\l+ operator*()\l+ aux()\l}">
<polygon fill="#ffffff" stroke="#000000" points="0,-127.5 0,-250.5 102,-250.5 102,-127.5 0,-127.5"/>
<text text-anchor="start" x="8" y="-238.5" font-family="Helvetica,sans-Serif" font-size="10.00" fill="#000000">fun::pg_object&lt; _K,</text>
<text text-anchor="middle" x="51" y="-227.5" font-family="Helvetica,sans-Serif" font-size="10.00" fill="#000000"> pg_point&lt; _K &gt; &gt;</text>
<polyline fill="none" stroke="#000000" points="0,-220.5 102,-220.5 "/>
<text text-anchor="middle" x="51" y="-208.5" font-family="Helvetica,sans-Serif" font-size="10.00" fill="#000000"> </text>
<polyline fill="none" stroke="#000000" points="0,-201.5 102,-201.5 "/>
<text text-anchor="start" x="8" y="-189.5" font-family="Helvetica,sans-Serif" font-size="10.00" fill="#000000">+ pg_object()</text>
<text text-anchor="start" x="8" y="-178.5" font-family="Helvetica,sans-Serif" font-size="10.00" fill="#000000">+ operator==()</text>
<text text-anchor="start" x="8" y="-167.5" font-family="Helvetica,sans-Serif" font-size="10.00" fill="#000000">+ operator!=()</text>
<text text-anchor="start" x="8" y="-156.5" font-family="Helvetica,sans-Serif" font-size="10.00" fill="#000000">+ dot()</text>
<text text-anchor="start" x="8" y="-145.5" font-family="Helvetica,sans-Serif" font-size="10.00" fill="#000000">+ operator*()</text>
<text text-anchor="start" x="8" y="-134.5" font-family="Helvetica,sans-Serif" font-size="10.00" fill="#000000">+ aux()</text>
</a>
</g>
</g>
<!-- Node1&#45;&gt;Node0 -->
<g id="edge1" class="edge">
<title>Node1&#45;&gt;Node0</title>
<path fill="none" stroke="#191970" d="M51,-117.1555C51,-108.135 51,-99.1166 51,-90.6704"/>
<polygon fill="none" stroke="#191970" points="47.5001,-117.3102 51,-127.3103 54.5001,-117.3103 47.5001,-117.3102"/>
</g>
<!-- Node2 -->
<g id="node3" class="node">
<title>Node2</title>
<g id="a_node3"><a xlink:title="STL class. ">
<polygon fill="#ffffff" stroke="#bfbfbf" points="1.5,-287.5 1.5,-344.5 100.5,-344.5 100.5,-287.5 1.5,-287.5"/>
<text text-anchor="middle" x="51" y="-332.5" font-family="Helvetica,sans-Serif" font-size="10.00" fill="#000000">std::array&lt; _K, 3 &gt;</text>
<polyline fill="none" stroke="#bfbfbf" points="1.5,-325.5 100.5,-325.5 "/>
<text text-anchor="start" x="9.5" y="-313.5" font-family="Helvetica,sans-Serif" font-size="10.00" fill="#000000">+ elements</text>
<polyline fill="none" stroke="#bfbfbf" points="1.5,-306.5 100.5,-306.5 "/>
<text text-anchor="middle" x="51" y="-294.5" font-family="Helvetica,sans-Serif" font-size="10.00" fill="#000000"> </text>
</a>
</g>
</g>
<!-- Node2&#45;&gt;Node1 -->
<g id="edge2" class="edge">
<title>Node2&#45;&gt;Node1</title>
<path fill="none" stroke="#191970" d="M51,-277.2486C51,-268.8213 51,-259.7045 51,-250.6384"/>
<polygon fill="none" stroke="#191970" points="47.5001,-277.4987 51,-287.4987 54.5001,-277.4988 47.5001,-277.4987"/>
</g>
</g>
</svg>
