<?xml version="1.0" encoding="UTF-8" standalone="no"?>
<!DOCTYPE svg PUBLIC "-//W3C//DTD SVG 1.1//EN"
 "http://www.w3.org/Graphics/SVG/1.1/DTD/svg11.dtd">
<!-- Generated by graphviz version 2.40.1 (20161225.0304)
 -->
<!-- Title: myck&lt; P, L &gt; Pages: 1 -->
<svg width="121pt" height="248pt"
 viewBox="0.00 0.00 121.00 248.00" xmlns="http://www.w3.org/2000/svg" xmlns:xlink="http://www.w3.org/1999/xlink">
<g id="graph0" class="graph" transform="scale(1 1) rotate(0) translate(4 244)">
<title>myck&lt; P, L &gt;</title>
<polygon fill="#ffffff" stroke="transparent" points="-4,4 -4,-244 117,-244 117,4 -4,4"/>
<!-- Node0 -->
<g id="node1" class="node">
<title>Node0</title>
<polygon fill="#bfbfbf" stroke="#000000" points="18,-.5 18,-79.5 95,-79.5 95,-.5 18,-.5"/>
<text text-anchor="middle" x="56.5" y="-67.5" font-family="Helvetica,sans-Serif" font-size="10.00" fill="#000000">myck&lt; P, L &gt;</text>
<polyline fill="none" stroke="#000000" points="18,-60.5 95,-60.5 "/>
<text text-anchor="middle" x="56.5" y="-48.5" font-family="Helvetica,sans-Serif" font-size="10.00" fill="#000000"> </text>
<polyline fill="none" stroke="#000000" points="18,-41.5 95,-41.5 "/>
<text text-anchor="start" x="26" y="-29.5" font-family="Helvetica,sans-Serif" font-size="10.00" fill="#000000">+ perp()</text>
<text text-anchor="start" x="26" y="-18.5" font-family="Helvetica,sans-Serif" font-size="10.00" fill="#000000">+ perp()</text>
<text text-anchor="start" x="26" y="-7.5" font-family="Helvetica,sans-Serif" font-size="10.00" fill="#000000">+ measure()</text>
</g>
<!-- Node1 -->
<g id="node2" class="node">
<title>Node1</title>
<g id="a_node2"><a xlink:href="structfun_1_1ck.html" target="_top" xlink:title="{fun::ck\&lt; P, L, myck \&gt;\n|+ self\l|+ ck()\l+ is_perpendicular()\l+ altitude()\l+ tri_altitude()\l+ orthocenter()\l+ reflect()\land 5 more...\l}">
<polygon fill="#ffffff" stroke="#000000" points="0,-116.5 0,-239.5 113,-239.5 113,-116.5 0,-116.5"/>
<text text-anchor="middle" x="56.5" y="-227.5" font-family="Helvetica,sans-Serif" font-size="10.00" fill="#000000">fun::ck&lt; P, L, myck &gt;</text>
<polyline fill="none" stroke="#000000" points="0,-220.5 113,-220.5 "/>
<text text-anchor="start" x="8" y="-208.5" font-family="Helvetica,sans-Serif" font-size="10.00" fill="#000000">+ self</text>
<polyline fill="none" stroke="#000000" points="0,-201.5 113,-201.5 "/>
<text text-anchor="start" x="8" y="-189.5" font-family="Helvetica,sans-Serif" font-size="10.00" fill="#000000">+ ck()</text>
<text text-anchor="start" x="8" y="-178.5" font-family="Helvetica,sans-Serif" font-size="10.00" fill="#000000">+ is_perpendicular()</text>
<text text-anchor="start" x="8" y="-167.5" font-family="Helvetica,sans-Serif" font-size="10.00" fill="#000000">+ altitude()</text>
<text text-anchor="start" x="8" y="-156.5" font-family="Helvetica,sans-Serif" font-size="10.00" fill="#000000">+ tri_altitude()</text>
<text text-anchor="start" x="8" y="-145.5" font-family="Helvetica,sans-Serif" font-size="10.00" fill="#000000">+ orthocenter()</text>
<text text-anchor="start" x="8" y="-134.5" font-family="Helvetica,sans-Serif" font-size="10.00" fill="#000000">+ reflect()</text>
<text text-anchor="start" x="8" y="-123.5" font-family="Helvetica,sans-Serif" font-size="10.00" fill="#000000">and 5 more...</text>
</a>
</g>
</g>
<!-- Node1&#45;&gt;Node0 -->
<g id="edge1" class="edge">
<title>Node1&#45;&gt;Node0</title>
<path fill="none" stroke="#191970" d="M56.5,-105.9841C56.5,-96.8742 56.5,-87.8346 56.5,-79.502"/>
<polygon fill="none" stroke="#191970" points="53.0001,-106.2653 56.5,-116.2654 60.0001,-106.2654 53.0001,-106.2653"/>
</g>
</g>
</svg>
