<?xml version="1.0" encoding="UTF-8" standalone="no"?>
<!DOCTYPE svg PUBLIC "-//W3C//DTD SVG 1.1//EN"
 "http://www.w3.org/Graphics/SVG/1.1/DTD/svg11.dtd">
<!-- Generated by graphviz version 2.40.1 (20161225.0304)
 -->
<!-- Title: ell::update Pages: 1 -->
<svg width="168pt" height="66pt"
 viewBox="0.00 0.00 168.00 66.00" xmlns="http://www.w3.org/2000/svg" xmlns:xlink="http://www.w3.org/1999/xlink">
<g id="graph0" class="graph" transform="scale(1 1) rotate(0) translate(4 62)">
<title>ell::update</title>
<polygon fill="#ffffff" stroke="transparent" points="-4,4 -4,-62 164,-62 164,4 -4,4"/>
<!-- Node29 -->
<g id="node1" class="node">
<title>Node29</title>
<polygon fill="#bfbfbf" stroke="#000000" points="0,-19.5 0,-38.5 62,-38.5 62,-19.5 0,-19.5"/>
<text text-anchor="middle" x="31" y="-26.5" font-family="Helvetica,sans-Serif" font-size="10.00" fill="#000000">ell::update</text>
</g>
<!-- Node30 -->
<g id="node2" class="node">
<title>Node30</title>
<g id="a_node2"><a xlink:href="classell.html#a76f0b8a8760f4c26c8ea32afaec71abf" target="_top" xlink:title="Set the xc object. ">
<polygon fill="#ffffff" stroke="#000000" points="98,-38.5 98,-57.5 160,-57.5 160,-38.5 98,-38.5"/>
<text text-anchor="middle" x="129" y="-45.5" font-family="Helvetica,sans-Serif" font-size="10.00" fill="#000000">ell::set_xc</text>
</a>
</g>
</g>
<!-- Node29&#45;&gt;Node30 -->
<g id="edge1" class="edge">
<title>Node29&#45;&gt;Node30</title>
<path fill="none" stroke="#191970" d="M71.9531,-36.9399C80.6174,-38.6197 89.6269,-40.3664 97.8575,-41.9622"/>
<polygon fill="#191970" stroke="#191970" points="72.4912,-33.4791 62.0078,-35.0117 71.1588,-40.3512 72.4912,-33.4791"/>
</g>
<!-- Node31 -->
<g id="node3" class="node">
<title>Node31</title>
<g id="a_node3"><a xlink:href="classell1d.html#aea7dec96d2b8daaa8b26f03b945d3bbc" target="_top" xlink:title="ell1d::xc">
<polygon fill="#ffffff" stroke="#000000" points="102.5,-.5 102.5,-19.5 155.5,-19.5 155.5,-.5 102.5,-.5"/>
<text text-anchor="middle" x="129" y="-7.5" font-family="Helvetica,sans-Serif" font-size="10.00" fill="#000000">ell1d::xc</text>
</a>
</g>
</g>
<!-- Node29&#45;&gt;Node31 -->
<g id="edge2" class="edge">
<title>Node29&#45;&gt;Node31</title>
<path fill="none" stroke="#191970" d="M72.0639,-21.0386C82.3493,-19.0445 93.114,-16.9575 102.4798,-15.1417"/>
<polygon fill="#191970" stroke="#191970" points="71.1588,-17.6488 62.0078,-22.9883 72.4912,-24.5209 71.1588,-17.6488"/>
</g>
</g>
</svg>
