<?xml version="1.0" encoding="UTF-8" standalone="no"?>
<!DOCTYPE svg PUBLIC "-//W3C//DTD SVG 1.1//EN"
 "http://www.w3.org/Graphics/SVG/1.1/DTD/svg11.dtd">
<!-- Generated by graphviz version 2.40.1 (20161225.0304)
 -->
<!-- Title: lib/include/ellcpp/oracles/lowpass_oracle.hpp Pages: 1 -->
<svg width="278pt" height="95pt"
 viewBox="0.00 0.00 278.00 95.00" xmlns="http://www.w3.org/2000/svg" xmlns:xlink="http://www.w3.org/1999/xlink">
<g id="graph0" class="graph" transform="scale(1 1) rotate(0) translate(4 91)">
<title>lib/include/ellcpp/oracles/lowpass_oracle.hpp</title>
<polygon fill="#ffffff" stroke="transparent" points="-4,4 -4,-91 274,-91 274,4 -4,4"/>
<!-- Node3 -->
<g id="node1" class="node">
<title>Node3</title>
<polygon fill="#bfbfbf" stroke="#000000" points="68,-56.5 68,-86.5 208,-86.5 208,-56.5 68,-56.5"/>
<text text-anchor="start" x="76" y="-74.5" font-family="Helvetica,sans-Serif" font-size="10.00" fill="#000000">lib/include/ellcpp</text>
<text text-anchor="middle" x="138" y="-63.5" font-family="Helvetica,sans-Serif" font-size="10.00" fill="#000000">/oracles/lowpass_oracle.hpp</text>
</g>
<!-- Node4 -->
<g id="node2" class="node">
<title>Node4</title>
<g id="a_node2"><a xlink:href="lowpass__oracle_8cpp.html" target="_top" xlink:title="lib/src/lowpass_oracle.cpp">
<polygon fill="#ffffff" stroke="#000000" points="0,-.5 0,-19.5 132,-19.5 132,-.5 0,-.5"/>
<text text-anchor="middle" x="66" y="-7.5" font-family="Helvetica,sans-Serif" font-size="10.00" fill="#000000">lib/src/lowpass_oracle.cpp</text>
</a>
</g>
</g>
<!-- Node3&#45;&gt;Node4 -->
<g id="edge1" class="edge">
<title>Node3&#45;&gt;Node4</title>
<path fill="none" stroke="#191970" d="M112.3018,-49.5494C100.4087,-39.3907 86.8776,-27.8329 77.5281,-19.8469"/>
<polygon fill="#191970" stroke="#191970" points="110.3253,-52.4642 120.2022,-56.2977 114.8717,-47.1415 110.3253,-52.4642"/>
</g>
<!-- Node5 -->
<g id="node3" class="node">
<title>Node5</title>
<g id="a_node3"><a xlink:href="lowpass_8cpp.html" target="_top" xlink:title="lib/test/src/lowpass.cpp">
<polygon fill="#ffffff" stroke="#000000" points="150,-.5 150,-19.5 270,-19.5 270,-.5 150,-.5"/>
<text text-anchor="middle" x="210" y="-7.5" font-family="Helvetica,sans-Serif" font-size="10.00" fill="#000000">lib/test/src/lowpass.cpp</text>
</a>
</g>
</g>
<!-- Node3&#45;&gt;Node5 -->
<g id="edge2" class="edge">
<title>Node3&#45;&gt;Node5</title>
<path fill="none" stroke="#191970" d="M163.6982,-49.5494C175.5913,-39.3907 189.1224,-27.8329 198.4719,-19.8469"/>
<polygon fill="#191970" stroke="#191970" points="161.1283,-47.1415 155.7978,-56.2977 165.6747,-52.4642 161.1283,-47.1415"/>
</g>
</g>
</svg>
