<?xml version="1.0" encoding="UTF-8" standalone="no"?>
<!DOCTYPE svg PUBLIC "-//W3C//DTD SVG 1.1//EN"
 "http://www.w3.org/Graphics/SVG/1.1/DTD/svg11.dtd">
<!-- Generated by graphviz version 2.40.1 (20161225.0304)
 -->
<!-- Title: xn::Graph Pages: 1 -->
<svg width="465pt" height="230pt"
 viewBox="0.00 0.00 465.00 230.00" xmlns="http://www.w3.org/2000/svg" xmlns:xlink="http://www.w3.org/1999/xlink">
<g id="graph0" class="graph" transform="scale(1 1) rotate(0) translate(4 226)">
<title>xn::Graph</title>
<polygon fill="#ffffff" stroke="transparent" points="-4,4 -4,-226 461,-226 461,4 -4,4"/>
<!-- Node3 -->
<g id="node1" class="node">
<title>Node3</title>
<polygon fill="#bfbfbf" stroke="#000000" points="0,-104.5 0,-123.5 59,-123.5 59,-104.5 0,-104.5"/>
<text text-anchor="middle" x="29.5" y="-111.5" font-family="Helvetica,sans-Serif" font-size="10.00" fill="#000000">xn::Graph</text>
</g>
<!-- Node4 -->
<g id="node2" class="node">
<title>Node4</title>
<g id="a_node2"><a xlink:href="classxn_1_1Graph.html#ac0a2ebc716d2578c2b28d0e1e725e234" target="_top" xlink:title="xn::Graph::is_directed">
<polygon fill="#ffffff" stroke="#000000" points="103.5,-202.5 103.5,-221.5 216.5,-221.5 216.5,-202.5 103.5,-202.5"/>
<text text-anchor="middle" x="160" y="-209.5" font-family="Helvetica,sans-Serif" font-size="10.00" fill="#000000">xn::Graph::is_directed</text>
</a>
</g>
</g>
<!-- Node3&#45;&gt;Node4 -->
<g id="edge1" class="edge">
<title>Node3&#45;&gt;Node4</title>
<path fill="none" stroke="#191970" d="M40.2886,-132.5704C51.6785,-150.5767 71.2578,-177.395 95,-193 100.8949,-196.8745 107.5971,-199.9766 114.4044,-202.4554"/>
<polygon fill="#191970" stroke="#191970" points="43.018,-130.323 34.8289,-123.6008 37.0386,-133.9626 43.018,-130.323"/>
</g>
<!-- Node5 -->
<g id="node3" class="node">
<title>Node5</title>
<g id="a_node3"><a xlink:href="parametric_8hpp.html#a9d65ae04984ec6627ab76d87522ed366" target="_top" xlink:title="maximum parametric problem max r s.t. dist[v] &#45; dist[v] &lt;= d(u,v,r); for all (u, v] : G ...">
<polygon fill="#ffffff" stroke="#000000" points="117,-164.5 117,-183.5 203,-183.5 203,-164.5 117,-164.5"/>
<text text-anchor="middle" x="160" y="-171.5" font-family="Helvetica,sans-Serif" font-size="10.00" fill="#000000">max_parametric</text>
</a>
</g>
</g>
<!-- Node3&#45;&gt;Node5 -->
<g id="edge2" class="edge">
<title>Node3&#45;&gt;Node5</title>
<path fill="none" stroke="#191970" d="M54.3135,-128.7786C66.3756,-135.6659 81.2142,-143.7088 95,-150 106.6003,-155.2939 119.7382,-160.3185 131.1515,-164.3892"/>
<polygon fill="#191970" stroke="#191970" points="55.7151,-125.5456 45.3083,-123.5585 52.2045,-131.6017 55.7151,-125.5456"/>
</g>
<!-- Node6 -->
<g id="node4" class="node">
<title>Node6</title>
<g id="a_node4"><a xlink:href="min__cycle__ratio_8hpp.html#a9121d5cedbbcb771f64717f47d27b617" target="_top" xlink:title="min_cycle_ratio">
<polygon fill="#ffffff" stroke="#000000" points="261,-145.5 261,-164.5 346,-164.5 346,-145.5 261,-145.5"/>
<text text-anchor="middle" x="303.5" y="-152.5" font-family="Helvetica,sans-Serif" font-size="10.00" fill="#000000">min_cycle_ratio</text>
</a>
</g>
</g>
<!-- Node3&#45;&gt;Node6 -->
<g id="edge5" class="edge">
<title>Node3&#45;&gt;Node6</title>
<path fill="none" stroke="#191970" d="M69.0526,-119.9185C119.9691,-127.5373 208.1157,-140.7272 260.6034,-148.5812"/>
<polygon fill="#191970" stroke="#191970" points="69.491,-116.4452 59.0831,-118.4267 68.455,-123.3681 69.491,-116.4452"/>
</g>
<!-- Node8 -->
<g id="node6" class="node">
<title>Node8</title>
<g id="a_node6"><a xlink:href="classoptscaling__oracle.html#ae832c80716f657ae4c79ec72b856b044" target="_top" xlink:title="optscaling_oracle::\loperator()">
<polygon fill="#ffffff" stroke="#000000" points="111,-77 111,-107 209,-107 209,-77 111,-77"/>
<text text-anchor="start" x="119" y="-95" font-family="Helvetica,sans-Serif" font-size="10.00" fill="#000000">optscaling_oracle::</text>
<text text-anchor="middle" x="160" y="-84" font-family="Helvetica,sans-Serif" font-size="10.00" fill="#000000">operator()</text>
</a>
</g>
</g>
<!-- Node3&#45;&gt;Node8 -->
<g id="edge6" class="edge">
<title>Node3&#45;&gt;Node8</title>
<path fill="none" stroke="#191970" d="M69.2235,-107.3033C82.3302,-105.0938 97.0681,-102.6092 110.7958,-100.295"/>
<polygon fill="#191970" stroke="#191970" points="68.3915,-103.8941 59.1125,-109.0079 69.5552,-110.7967 68.3915,-103.8941"/>
</g>
<!-- Node9 -->
<g id="node7" class="node">
<title>Node9</title>
<g id="a_node7"><a xlink:href="classnetwork__oracle.html#a4a8f402add80277e9042441ceb93f1d3" target="_top" xlink:title="network_oracle::operator()">
<polygon fill="#ffffff" stroke="#000000" points="95,-38.5 95,-57.5 225,-57.5 225,-38.5 95,-38.5"/>
<text text-anchor="middle" x="160" y="-45.5" font-family="Helvetica,sans-Serif" font-size="10.00" fill="#000000">network_oracle::operator()</text>
</a>
</g>
</g>
<!-- Node3&#45;&gt;Node9 -->
<g id="edge7" class="edge">
<title>Node3&#45;&gt;Node9</title>
<path fill="none" stroke="#191970" d="M48.7665,-98.0311C61.3072,-88.2721 78.3709,-76.1434 95,-68 103.3769,-63.8978 112.7736,-60.4228 121.763,-57.5786"/>
<polygon fill="#191970" stroke="#191970" points="46.5037,-95.3589 40.8681,-104.3306 50.8685,-100.8315 46.5037,-95.3589"/>
</g>
<!-- Node10 -->
<g id="node8" class="node">
<title>Node10</title>
<g id="a_node8"><a xlink:href="test__boost_8cpp.html#a11fd727eb21dda14af3c3200ea1f85fc" target="_top" xlink:title="TEST_CASE">
<polygon fill="#ffffff" stroke="#000000" points="122.5,-.5 122.5,-19.5 197.5,-19.5 197.5,-.5 122.5,-.5"/>
<text text-anchor="middle" x="160" y="-7.5" font-family="Helvetica,sans-Serif" font-size="10.00" fill="#000000">TEST_CASE</text>
</a>
</g>
</g>
<!-- Node3&#45;&gt;Node10 -->
<g id="edge8" class="edge">
<title>Node3&#45;&gt;Node10</title>
<path fill="none" stroke="#191970" d="M39.1449,-95.4195C50.132,-76.0497 69.8646,-46.1708 95,-29 103.1547,-23.4293 112.9562,-19.4687 122.4457,-16.6613"/>
<polygon fill="#191970" stroke="#191970" points="36.0576,-93.7704 34.3411,-104.2253 42.2027,-97.1228 36.0576,-93.7704"/>
</g>
<!-- Node5&#45;&gt;Node6 -->
<g id="edge3" class="edge">
<title>Node5&#45;&gt;Node6</title>
<path fill="none" stroke="#191970" d="M213.189,-166.9575C228.945,-164.8714 245.9833,-162.6155 260.9702,-160.6311"/>
<polygon fill="#191970" stroke="#191970" points="212.5088,-163.517 203.0547,-168.2994 213.4276,-170.4564 212.5088,-163.517"/>
</g>
<!-- Node7 -->
<g id="node5" class="node">
<title>Node7</title>
<g id="a_node5"><a xlink:href="test__cycle__ratio_8cpp.html#ad13db252bdb1b692e200a73f6ec8a88f" target="_top" xlink:title="TEST_CASE">
<polygon fill="#ffffff" stroke="#000000" points="382,-145.5 382,-164.5 457,-164.5 457,-145.5 382,-145.5"/>
<text text-anchor="middle" x="419.5" y="-152.5" font-family="Helvetica,sans-Serif" font-size="10.00" fill="#000000">TEST_CASE</text>
</a>
</g>
</g>
<!-- Node6&#45;&gt;Node7 -->
<g id="edge4" class="edge">
<title>Node6&#45;&gt;Node7</title>
<path fill="none" stroke="#191970" d="M356.1348,-155C364.8421,-155 373.7121,-155 381.9508,-155"/>
<polygon fill="#191970" stroke="#191970" points="356.0355,-151.5001 346.0354,-155 356.0354,-158.5001 356.0355,-151.5001"/>
</g>
</g>
</svg>
