<?xml version="1.0" encoding="UTF-8" standalone="no"?>
<!DOCTYPE svg PUBLIC "-//W3C//DTD SVG 1.1//EN"
 "http://www.w3.org/Graphics/SVG/1.1/DTD/svg11.dtd">
<!-- Generated by graphviz version 2.40.1 (20161225.0304)
 -->
<!-- Title: lib/include/ellcpp/oracles/network_oracle.hpp Pages: 1 -->
<svg width="474pt" height="207pt"
 viewBox="0.00 0.00 473.50 207.00" xmlns="http://www.w3.org/2000/svg" xmlns:xlink="http://www.w3.org/1999/xlink">
<g id="graph0" class="graph" transform="scale(1 1) rotate(0) translate(4 203)">
<title>lib/include/ellcpp/oracles/network_oracle.hpp</title>
<polygon fill="#ffffff" stroke="transparent" points="-4,4 -4,-203 469.5,-203 469.5,4 -4,4"/>
<!-- Node0 -->
<g id="node1" class="node">
<title>Node0</title>
<polygon fill="#bfbfbf" stroke="#000000" points="252,-168.5 252,-198.5 391,-198.5 391,-168.5 252,-168.5"/>
<text text-anchor="start" x="260" y="-186.5" font-family="Helvetica,sans-Serif" font-size="10.00" fill="#000000">lib/include/ellcpp</text>
<text text-anchor="middle" x="321.5" y="-175.5" font-family="Helvetica,sans-Serif" font-size="10.00" fill="#000000">/oracles/network_oracle.hpp</text>
</g>
<!-- Node1 -->
<g id="node2" class="node">
<title>Node1</title>
<g id="a_node2"><a xlink:href="neg__cycle_8hpp.html" target="_top" xlink:title="neg_cycle.hpp">
<polygon fill="#ffffff" stroke="#000000" points="228.5,-112.5 228.5,-131.5 308.5,-131.5 308.5,-112.5 228.5,-112.5"/>
<text text-anchor="middle" x="268.5" y="-119.5" font-family="Helvetica,sans-Serif" font-size="10.00" fill="#000000">neg_cycle.hpp</text>
</a>
</g>
</g>
<!-- Node0&#45;&gt;Node1 -->
<g id="edge1" class="edge">
<title>Node0&#45;&gt;Node1</title>
<path fill="none" stroke="#191970" d="M308.3989,-168.2977C300.8887,-159.5831 291.43,-148.6075 283.6073,-139.5302"/>
<polygon fill="#191970" stroke="#191970" points="286.1655,-137.1372 276.986,-131.8469 280.8629,-141.707 286.1655,-137.1372"/>
</g>
<!-- Node10 -->
<g id="node11" class="node">
<title>Node10</title>
<polygon fill="#ffffff" stroke="#bfbfbf" points="326.5,-112.5 326.5,-131.5 424.5,-131.5 424.5,-112.5 326.5,-112.5"/>
<text text-anchor="middle" x="375.5" y="-119.5" font-family="Helvetica,sans-Serif" font-size="10.00" fill="#000000">xtensor/xarray.hpp</text>
</g>
<!-- Node0&#45;&gt;Node10 -->
<g id="edge10" class="edge">
<title>Node0&#45;&gt;Node10</title>
<path fill="none" stroke="#191970" d="M334.8483,-168.2977C342.5002,-159.5831 352.1373,-148.6075 360.1076,-139.5302"/>
<polygon fill="#191970" stroke="#191970" points="362.8859,-141.6707 366.8539,-131.8469 357.6258,-137.052 362.8859,-141.6707"/>
</g>
<!-- Node2 -->
<g id="node3" class="node">
<title>Node2</title>
<g id="a_node3"><a xlink:href="py2cpp_8hpp.html" target="_top" xlink:title="py2cpp/py2cpp.hpp">
<polygon fill="#ffffff" stroke="#000000" points="173,-56.5 173,-75.5 274,-75.5 274,-56.5 173,-56.5"/>
<text text-anchor="middle" x="223.5" y="-63.5" font-family="Helvetica,sans-Serif" font-size="10.00" fill="#000000">py2cpp/py2cpp.hpp</text>
</a>
</g>
</g>
<!-- Node1&#45;&gt;Node2 -->
<g id="edge2" class="edge">
<title>Node1&#45;&gt;Node2</title>
<path fill="none" stroke="#191970" d="M260.6616,-112.2455C254.338,-104.3761 245.2776,-93.101 237.6864,-83.6542"/>
<polygon fill="#191970" stroke="#191970" points="240.2408,-81.2454 231.2486,-75.6427 234.7842,-85.6302 240.2408,-81.2454"/>
</g>
<!-- Node9 -->
<g id="node10" class="node">
<title>Node9</title>
<polygon fill="#ffffff" stroke="#bfbfbf" points="292.5,-56.5 292.5,-75.5 336.5,-75.5 336.5,-56.5 292.5,-56.5"/>
<text text-anchor="middle" x="314.5" y="-63.5" font-family="Helvetica,sans-Serif" font-size="10.00" fill="#000000">vector</text>
</g>
<!-- Node1&#45;&gt;Node9 -->
<g id="edge9" class="edge">
<title>Node1&#45;&gt;Node9</title>
<path fill="none" stroke="#191970" d="M276.5126,-112.2455C282.9768,-104.3761 292.2385,-93.101 299.9983,-83.6542"/>
<polygon fill="#191970" stroke="#191970" points="302.9364,-85.5916 306.5792,-75.6427 297.5273,-81.1484 302.9364,-85.5916"/>
</g>
<!-- Node3 -->
<g id="node4" class="node">
<title>Node3</title>
<polygon fill="#ffffff" stroke="#bfbfbf" points="0,-.5 0,-19.5 73,-19.5 73,-.5 0,-.5"/>
<text text-anchor="middle" x="36.5" y="-7.5" font-family="Helvetica,sans-Serif" font-size="10.00" fill="#000000">initializer_list</text>
</g>
<!-- Node2&#45;&gt;Node3 -->
<g id="edge3" class="edge">
<title>Node2&#45;&gt;Node3</title>
<path fill="none" stroke="#191970" d="M191.3536,-56.3733C159.9891,-46.9807 112.1335,-32.6496 77.9284,-22.4064"/>
<polygon fill="#191970" stroke="#191970" points="78.8107,-19.0171 68.227,-19.5011 76.8025,-25.7229 78.8107,-19.0171"/>
</g>
<!-- Node4 -->
<g id="node5" class="node">
<title>Node4</title>
<polygon fill="#ffffff" stroke="#bfbfbf" points="91.5,-.5 91.5,-19.5 129.5,-19.5 129.5,-.5 91.5,-.5"/>
<text text-anchor="middle" x="110.5" y="-7.5" font-family="Helvetica,sans-Serif" font-size="10.00" fill="#000000">tuple</text>
</g>
<!-- Node2&#45;&gt;Node4 -->
<g id="edge4" class="edge">
<title>Node2&#45;&gt;Node4</title>
<path fill="none" stroke="#191970" d="M204.0746,-56.3733C186.0979,-47.4644 159.1559,-34.1127 138.791,-24.0203"/>
<polygon fill="#191970" stroke="#191970" points="140.1861,-20.8055 129.6719,-19.5011 137.0778,-27.0776 140.1861,-20.8055"/>
</g>
<!-- Node5 -->
<g id="node6" class="node">
<title>Node5</title>
<polygon fill="#ffffff" stroke="#bfbfbf" points="147.5,-.5 147.5,-19.5 209.5,-19.5 209.5,-.5 147.5,-.5"/>
<text text-anchor="middle" x="178.5" y="-7.5" font-family="Helvetica,sans-Serif" font-size="10.00" fill="#000000">type_traits</text>
</g>
<!-- Node2&#45;&gt;Node5 -->
<g id="edge5" class="edge">
<title>Node2&#45;&gt;Node5</title>
<path fill="none" stroke="#191970" d="M215.6616,-56.2455C209.338,-48.3761 200.2776,-37.101 192.6864,-27.6542"/>
<polygon fill="#191970" stroke="#191970" points="195.2408,-25.2454 186.2486,-19.6427 189.7842,-29.6302 195.2408,-25.2454"/>
</g>
<!-- Node6 -->
<g id="node7" class="node">
<title>Node6</title>
<polygon fill="#ffffff" stroke="#bfbfbf" points="228,-.5 228,-19.5 311,-19.5 311,-.5 228,-.5"/>
<text text-anchor="middle" x="269.5" y="-7.5" font-family="Helvetica,sans-Serif" font-size="10.00" fill="#000000">unordered_map</text>
</g>
<!-- Node2&#45;&gt;Node6 -->
<g id="edge6" class="edge">
<title>Node2&#45;&gt;Node6</title>
<path fill="none" stroke="#191970" d="M231.5126,-56.2455C237.9768,-48.3761 247.2385,-37.101 254.9983,-27.6542"/>
<polygon fill="#191970" stroke="#191970" points="257.9364,-29.5916 261.5792,-19.6427 252.5273,-25.1484 257.9364,-29.5916"/>
</g>
<!-- Node7 -->
<g id="node8" class="node">
<title>Node7</title>
<polygon fill="#ffffff" stroke="#bfbfbf" points="329.5,-.5 329.5,-19.5 407.5,-19.5 407.5,-.5 329.5,-.5"/>
<text text-anchor="middle" x="368.5" y="-7.5" font-family="Helvetica,sans-Serif" font-size="10.00" fill="#000000">unordered_set</text>
</g>
<!-- Node2&#45;&gt;Node7 -->
<g id="edge7" class="edge">
<title>Node2&#45;&gt;Node7</title>
<path fill="none" stroke="#191970" d="M248.4264,-56.3733C272.1202,-47.2226 307.9511,-33.3844 334.3068,-23.2057"/>
<polygon fill="#191970" stroke="#191970" points="335.8314,-26.3689 343.8989,-19.5011 333.3094,-19.8389 335.8314,-26.3689"/>
</g>
<!-- Node8 -->
<g id="node9" class="node">
<title>Node8</title>
<polygon fill="#ffffff" stroke="#bfbfbf" points="425.5,-.5 425.5,-19.5 465.5,-19.5 465.5,-.5 425.5,-.5"/>
<text text-anchor="middle" x="445.5" y="-7.5" font-family="Helvetica,sans-Serif" font-size="10.00" fill="#000000">utility</text>
</g>
<!-- Node2&#45;&gt;Node8 -->
<g id="edge8" class="edge">
<title>Node2&#45;&gt;Node8</title>
<path fill="none" stroke="#191970" d="M269.0645,-56.4629C306.2328,-48.3862 360.2502,-35.9753 415.6702,-20.0482"/>
<polygon fill="#191970" stroke="#191970" points="416.6742,-23.4013 425.2996,-17.2488 414.7201,-16.6795 416.6742,-23.4013"/>
</g>
</g>
</svg>
