<svg viewBox="-1024 -1024 2048 2048" xmlns="http://www.w3.org/2000/svg">
  <circle cx="0" cy="0" r="1000" fill="none" stroke="#038a06" stroke-width="8"/>

<circle cx="321" cy="-775" r="20" fill="#FA8964"/>
<circle cx="147" cy="355" r="20" fill="#FA8964"/>
<circle cx="-265" cy="-641" r="20" fill="#FA8964"/>
<circle cx="-833" cy="345" r="20" fill="#FA8964"/>
<circle cx="470" cy="-194" r="20" fill="#FA8964"/>
<circle cx="755" cy="150" r="20" fill="#FA8964"/>
<circle cx="-943" cy="-187" r="20" fill="#FA8964"/>
<circle cx="-53" cy="266" r="20" fill="#FA8964"/>
<circle cx="124" cy="-626" r="20" fill="#FA8964"/>
<circle cx="478" cy="715" r="20" fill="#FA8964"/>
<circle cx="-239" cy="-357" r="20" fill="#FA8964"/>
<circle cx="-598" cy="400" r="20" fill="#FA8964"/>
<circle cx="767" cy="-512" r="20" fill="#FA8964"/>
<circle cx="452" cy="302" r="20" fill="#FA8964"/>
<circle cx="-659" cy="-440" r="20" fill="#FA8964"/>
<circle cx="-545" cy="815" r="20" fill="#FA8964"/>
<circle cx="61" cy="-92" r="20" fill="#FA8964"/>
<circle cx="114" cy="576" r="20" fill="#FA8964"/>
<circle cx="-160" cy="-808" r="20" fill="#FA8964"/>
<circle cx="-344" cy="68" r="20" fill="#FA8964"/>
<circle cx="662" cy="-131" r="20" fill="#FA8964"/>
<circle cx="884" cy="87" r="20" fill="#FA8964"/>
<circle cx="-481" cy="-47" r="20" fill="#FA8964"/>
<circle cx="-73" cy="749" r="20" fill="#FA8964"/>
<circle cx="93" cy="-944" r="20" fill="#FA8964"/>
<circle cx="140" cy="171" r="20" fill="#FA8964"/>
<circle cx="-392" cy="-478" r="20" fill="#FA8964"/>
<circle cx="-654" cy="536" r="20" fill="#FA8964"/>
<circle cx="309" cy="-254" r="20" fill="#FA8964"/>
<circle cx="619" cy="331" r="20" fill="#FA8964"/>
<circle cx="-802" cy="-428" r="20" fill="#FA8964"/>
<circle cx="-245" cy="459" r="20" fill="#FA8964"/>
<circle cx="366" cy="-685" r="20" fill="#FA8964"/>
<circle cx="281" cy="926" r="20" fill="#FA8964"/>
<circle cx="-85" cy="-281" r="20" fill="#FA8964"/>
<circle cx="-619" cy="188" r="20" fill="#FA8964"/>
<circle cx="830" cy="-251" r="20" fill="#FA8964"/>
<circle cx="425" cy="129" r="20" fill="#FA8964"/>
<circle cx="-697" cy="-211" r="20" fill="#FA8964"/>
<circle cx="-269" cy="889" r="20" fill="#FA8964"/>
<circle cx="161" cy="-531" r="20" fill="#FA8964"/>
<circle cx="377" cy="706" r="20" fill="#FA8964"/>
<circle cx="-465" cy="-870" r="20" fill="#FA8964"/>
<circle cx="-138" cy="74" r="20" fill="#FA8964"/>
<circle cx="527" cy="-282" r="20" fill="#FA8964"/>
<circle cx="642" cy="527" r="20" fill="#FA8964"/>
<circle cx="-284" cy="-233" r="20" fill="#FA8964"/>
<circle cx="-434" cy="529" r="20" fill="#FA8964"/>
<circle cx="568" cy="-692" r="20" fill="#FA8964"/>
<circle cx="48" cy="494" r="20" fill="#FA8964"/>
<circle cx="-74" cy="-758" r="20" fill="#8964FA"/>
<circle cx="-951" cy="93" r="20" fill="#8964FA"/>
<circle cx="247" cy="-24" r="20" fill="#8964FA"/>
<circle cx="627" cy="30" r="20" fill="#8964FA"/>
<circle cx="-852" cy="-41" r="20" fill="#8964FA"/>
<circle cx="-20" cy="415" r="20" fill="#8964FA"/>
<circle cx="34" cy="-710" r="20" fill="#8964FA"/>
<circle cx="615" cy="678" r="20" fill="#8964FA"/>
<circle cx="-357" cy="-394" r="20" fill="#8964FA"/>
<circle cx="-582" cy="527" r="20" fill="#8964FA"/>
<circle cx="722" cy="-654" r="20" fill="#8964FA"/>
<circle cx="284" cy="134" r="20" fill="#8964FA"/>
<circle cx="-594" cy="-281" r="20" fill="#8964FA"/>
<circle cx="-374" cy="790" r="20" fill="#8964FA"/>
<circle cx="195" cy="-414" r="20" fill="#8964FA"/>
<circle cx="248" cy="693" r="20" fill="#8964FA"/>
<circle cx="-315" cy="-881" r="20" fill="#8964FA"/>
<circle cx="-533" cy="190" r="20" fill="#8964FA"/>
<circle cx="761" cy="-272" r="20" fill="#8964FA"/>
<circle cx="964" cy="241" r="20" fill="#8964FA"/>
<circle cx="-62" cy="-15" r="20" fill="#8964FA"/>
<circle cx="-141" cy="563" r="20" fill="#8964FA"/>
<circle cx="199" cy="-794" r="20" fill="#8964FA"/>
<circle cx="174" cy="291" r="20" fill="#8964FA"/>
<circle cx="-344" cy="-574" r="20" fill="#8964FA"/>
<circle cx="-758" cy="454" r="20" fill="#8964FA"/>
<circle cx="408" cy="-244" r="20" fill="#8964FA"/>
<circle cx="600" cy="445" r="20" fill="#8964FA"/>
<circle cx="-759" cy="-562" r="20" fill="#8964FA"/>
<circle cx="-120" cy="162" r="20" fill="#8964FA"/>
<circle cx="364" cy="-491" r="20" fill="#8964FA"/>
<circle cx="123" cy="832" r="20" fill="#8964FA"/>
<circle cx="-57" cy="-385" r="20" fill="#8964FA"/>
<circle cx="-689" cy="102" r="20" fill="#8964FA"/>
<circle cx="895" cy="-132" r="20" fill="#8964FA"/>
<circle cx="507" cy="75" r="20" fill="#8964FA"/>
<circle cx="-764" cy="-113" r="20" fill="#8964FA"/>
<circle cx="-141" cy="953" r="20" fill="#8964FA"/>
<circle cx="41" cy="-276" r="20" fill="#8964FA"/>
<circle cx="382" cy="515" r="20" fill="#8964FA"/>
<circle cx="-514" cy="-693" r="20" fill="#8964FA"/>
<circle cx="-349" cy="259" r="20" fill="#8964FA"/>
<circle cx="580" cy="-430" r="20" fill="#8964FA"/>
<circle cx="793" cy="475" r="20" fill="#8964FA"/>
<circle cx="-470" cy="-281" r="20" fill="#8964FA"/>
<circle cx="-409" cy="682" r="20" fill="#8964FA"/>
<circle cx="505" cy="-843" r="20" fill="#8964FA"/>
<circle cx="31" cy="124" r="20" fill="#8964FA"/>
<circle cx="-143" cy="-573" r="20" fill="#8964FA"/>
<circle cx="-801" cy="200" r="20" fill="#8964FA"/>
</svg>
