<svg viewBox="-30 -30 2108 2247" xmlns="http://www.w3.org/2000/svg">
  <rect x="0" y="0" width="2048" height="2187" fill="none" stroke="#038a06" stroke-width="8"/>
  <circle cx="1024" cy="729" r="25"  fill="#FA8964"/>
  <circle cx="512" cy="1458" r="25"  fill="#FA8964"/>
  <circle cx="1536" cy="243" r="25"  fill="#FA8964"/>
  <circle cx="256" cy="972" r="25"   fill="#FA8964"/>
  <circle cx="1280" cy="1701" r="25" fill="#FA8964"/>
  <circle cx="768" cy="486" r="25"   fill="#FA8964"/>
  <circle cx="1792" cy="1215" r="25" fill="#FA8964"/>
  <circle cx="128" cy="1944" r="25"  fill="#FA8964"/>
  <circle cx="1152" cy="81" r="25"   fill="#FA8964"/>
  <circle cx="640" cy="810" r="25"   fill="#FA8964"/>
  <circle cx="1664" cy="1539" r="25" fill="#FA8964"/>
  <circle cx="384" cy="324" r="25"   fill="#FA8964"/>
  <circle cx="1408" cy="1053" r="25" fill="#FA8964"/>
  <circle cx="896" cy="1782" r="25"  fill="#FA8964"/>
  <circle cx="1920" cy="567" r="25"  fill="#FA8964"/>
  <circle cx="64" cy="1296" r="25"   fill="#FA8964"/>
  <circle cx="1088" cy="2025" r="25" fill="#FA8964"/>
  <circle cx="576" cy="162" r="25"   fill="#FA8964"/>
  <circle cx="1600" cy="891" r="25"  fill="#FA8964"/>
  <circle cx="320" cy="1620" r="25"  fill="#FA8964"/>
  <circle cx="1344" cy="405" r="25"  fill="#FA8964"/>
  <circle cx="832" cy="1134" r="25"  fill="#FA8964"/>
  <circle cx="1856" cy="1863" r="25" fill="#FA8964"/>
  <circle cx="192" cy="648" r="25"   fill="#FA8964"/>
  <circle cx="1216" cy="1377" r="25" fill="#FA8964"/>
  <circle cx="704" cy="2106" r="25"  fill="#FA8964"/>
  <circle cx="1728" cy="27" r="25"   fill="#FA8964"/>
  <circle cx="448" cy="756" r="25"   fill="#FA8964"/>
  <circle cx="1472" cy="1485" r="25" fill="#FA8964"/>
  <circle cx="960" cy="270" r="25"   fill="#FA8964"/>
  <circle cx="1984" cy="999" r="25"  fill="#FA8964"/>
  <circle cx="32" cy="1728" r="25"   fill="#FA8964"/>
  <circle cx="1056" cy="513" r="25"  fill="#FA8964"/>
  <circle cx="544" cy="1242" r="25"  fill="#FA8964"/>
  <circle cx="1568" cy="1971" r="25" fill="#FA8964"/>
  <circle cx="288" cy="108" r="25"   fill="#FA8964"/>
  <circle cx="1312" cy="837" r="25"  fill="#FA8964"/>
  <circle cx="800" cy="1566" r="25"  fill="#FA8964"/>
  <circle cx="1824" cy="351" r="25"  fill="#FA8964"/>
  <circle cx="160" cy="1080" r="25"  fill="#FA8964"/>
  <circle cx="1184" cy="1809" r="25" fill="#FA8964"/>
  <circle cx="672" cy="594" r="25"   fill="#FA8964"/>
  <circle cx="1696" cy="1323" r="25" fill="#FA8964"/>
  <circle cx="416" cy="2052" r="25"  fill="#FA8964"/>
  <circle cx="1440" cy="189" r="25"  fill="#FA8964"/>
  <circle cx="928" cy="918" r="25"   fill="#FA8964"/>
  <circle cx="1952" cy="1647" r="25" fill="#FA8964"/>
  <circle cx="96" cy="432" r="25"    fill="#FA8964"/>
  <circle cx="1120" cy="1161" r="25" fill="#FA8964"/>
  <circle cx="608" cy="1890" r="25"  fill="#FA8964"/>
  <circle cx="1632" cy="675" r="25"  fill="#8964FA"/>
  <circle cx="352" cy="1404" r="25"  fill="#8964FA"/>
  <circle cx="1376" cy="2133" r="25" fill="#8964FA"/>
  <circle cx="864" cy="54" r="25"    fill="#8964FA"/>
  <circle cx="1888" cy="783" r="25"  fill="#8964FA"/>
  <circle cx="224" cy="1512" r="25"  fill="#8964FA"/>
  <circle cx="1248" cy="297" r="25"  fill="#8964FA"/>
  <circle cx="736" cy="1026" r="25"  fill="#8964FA"/>
  <circle cx="1760" cy="1755" r="25" fill="#8964FA"/>
  <circle cx="480" cy="540" r="25"   fill="#8964FA"/>
  <circle cx="1504" cy="1269" r="25" fill="#8964FA"/>
  <circle cx="992" cy="1998" r="25"  fill="#8964FA"/>
  <circle cx="2016" cy="135" r="25"  fill="#8964FA"/>
  <circle cx="16" cy="864" r="25"    fill="#8964FA"/>
  <circle cx="1040" cy="1593" r="25" fill="#8964FA"/>
  <circle cx="528" cy="378" r="25"   fill="#8964FA"/>
  <circle cx="1552" cy="1107" r="25" fill="#8964FA"/>
  <circle cx="272" cy="1836" r="25"  fill="#8964FA"/>
  <circle cx="1296" cy="621" r="25"  fill="#8964FA"/>
  <circle cx="784" cy="1350" r="25"  fill="#8964FA"/>
  <circle cx="1808" cy="2079" r="25" fill="#8964FA"/>
  <circle cx="144" cy="216" r="25"   fill="#8964FA"/>
  <circle cx="1168" cy="945" r="25"  fill="#8964FA"/>
  <circle cx="656" cy="1674" r="25"  fill="#8964FA"/>
  <circle cx="1680" cy="459" r="25"  fill="#8964FA"/>
  <circle cx="400" cy="1188" r="25"  fill="#8964FA"/>
  <circle cx="1424" cy="1917" r="25" fill="#8964FA"/>
  <circle cx="912" cy="702" r="25"   fill="#8964FA"/>
  <circle cx="1936" cy="1431" r="25" fill="#8964FA"/>
  <circle cx="80" cy="2160" r="25"   fill="#8964FA"/>
  <circle cx="1104" cy="9" r="25"    fill="#8964FA"/>
  <circle cx="592" cy="738" r="25"   fill="#8964FA"/>
  <circle cx="1616" cy="1467" r="25" fill="#8964FA"/>
  <circle cx="336" cy="252" r="25"   fill="#8964FA"/>
  <circle cx="1360" cy="981" r="25"  fill="#8964FA"/>
  <circle cx="848" cy="1710" r="25"  fill="#8964FA"/>
  <circle cx="1872" cy="495" r="25"  fill="#8964FA"/>
  <circle cx="208" cy="1224" r="25"  fill="#8964FA"/>
  <circle cx="1232" cy="1953" r="25" fill="#8964FA"/>
  <circle cx="720" cy="90" r="25"    fill="#8964FA"/>
  <circle cx="1744" cy="819" r="25"  fill="#8964FA"/>
  <circle cx="464" cy="1548" r="25"  fill="#8964FA"/>
  <circle cx="1488" cy="333" r="25"  fill="#8964FA"/>
  <circle cx="976" cy="1062" r="25"  fill="#8964FA"/>
  <circle cx="2000" cy="1791" r="25" fill="#8964FA"/>
  <circle cx="48" cy="576" r="25"    fill="#8964FA"/>
  <circle cx="1072" cy="1305" r="25" fill="#8964FA"/>
  <circle cx="560" cy="2034" r="25"  fill="#8964FA"/>
  <circle cx="1584" cy="171" r="25"  fill="#8964FA"/>
  <circle cx="304" cy="900" r="25"   fill="#8964FA"/>
</svg>
