<svg xmlns="http://www.w3.org/2000/svg" width="528" height="48" class="svgbob"><style>.svgbob line, .svgbob path, .svgbob circle, .svgbob rect, .svgbob polygon {
    stroke: black;
    stroke-width: 2;
    stroke-opacity: 1;
    fill-opacity: 1;
    stroke-linecap: round;
    stroke-linejoin: miter;
}
.svgbob text {
    white-space: pre;
    fill: black;
    font-family: Iosevka Fixed, monospace;
    font-size: 14px;
}
.svgbob rect.backdrop {
    stroke: none;
    fill: white;
}
.svgbob .broken {
    stroke-dasharray: 8;
}
.svgbob .filled {
    fill: black;
}
.svgbob .bg_filled {
    fill: white;
    stroke-width: 1;
}
.svgbob .nofill {
    fill: white;
}
.svgbob .end_marked_arrow {
    marker-end: url(#arrow);
}
.svgbob .start_marked_arrow {
    marker-start: url(#arrow);
}
.svgbob .end_marked_diamond {
    marker-end: url(#diamond);
}
.svgbob .start_marked_diamond {
    marker-start: url(#diamond);
}
.svgbob .end_marked_circle {
    marker-end: url(#circle);
}
.svgbob .start_marked_circle {
    marker-start: url(#circle);
}
.svgbob .end_marked_open_circle {
    marker-end: url(#open_circle);
}
.svgbob .start_marked_open_circle {
    marker-start: url(#open_circle);
}
.svgbob .end_marked_big_open_circle {
    marker-end: url(#big_open_circle);
}
.svgbob .start_marked_big_open_circle {
    marker-start: url(#big_open_circle);
}<!--separator--></style><defs><marker id="arrow" viewBox="-2 -2 8 8" refX="4" refY="2" markerWidth="7" markerHeight="7" orient="auto-start-reverse"><polygon points="0,0 0,4 4,2 0,0"></polygon></marker><marker id="diamond" viewBox="-2 -2 8 8" refX="4" refY="2" markerWidth="7" markerHeight="7" orient="auto-start-reverse"><polygon points="0,2 2,0 4,2 2,4 0,2"></polygon></marker><marker id="circle" viewBox="0 0 8 8" refX="4" refY="4" markerWidth="7" markerHeight="7" orient="auto-start-reverse"><circle cx="4" cy="4" r="2" class="filled"></circle></marker><marker id="open_circle" viewBox="0 0 8 8" refX="4" refY="4" markerWidth="7" markerHeight="7" orient="auto-start-reverse"><circle cx="4" cy="4" r="2" class="bg_filled"></circle></marker><marker id="big_open_circle" viewBox="0 0 8 8" refX="4" refY="4" markerWidth="7" markerHeight="7" orient="auto-start-reverse"><circle cx="4" cy="4" r="3" class="bg_filled"></circle></marker></defs><rect class="backdrop" x="0" y="0" width="528" height="48"></rect><text x="42" y="12" >8</text><text x="74" y="12" >4</text><text x="138" y="12" >2</text><text x="202" y="12" >6</text><text x="266" y="12" >1</text><text x="298" y="12" >9</text><text x="330" y="12" >5</text><text x="394" y="12" >3</text><text x="458" y="12" >7</text><line x1="0" y1="24" x2="36" y2="24" class="solid end_marked_open_circle"></line><line x1="40" y1="24" x2="68" y2="24" class="solid end_marked_open_circle"></line><line x1="72" y1="24" x2="132" y2="24" class="solid end_marked_open_circle"></line><line x1="136" y1="24" x2="196" y2="24" class="solid end_marked_open_circle"></line><line x1="200" y1="24" x2="260" y2="24" class="solid end_marked_open_circle"></line><line x1="264" y1="24" x2="292" y2="24" class="solid end_marked_open_circle"></line><line x1="296" y1="24" x2="324" y2="24" class="solid end_marked_open_circle"></line><line x1="328" y1="24" x2="388" y2="24" class="solid end_marked_open_circle"></line><line x1="392" y1="24" x2="452" y2="24" class="solid end_marked_open_circle"></line><line x1="456" y1="24" x2="520" y2="24" class="solid"></line></svg>