<svg width="400" height="400" xmlns="http://www.w3.org/2000/svg">
  <style>
    .source { fill: #2563eb; stroke: #1e40af; stroke-width: 2; }
    .terminal { fill: #dc2626; stroke: #991b1b; stroke-width: 2; }
    .steiner { fill: #16a34a; stroke: #166534; stroke-width: 2; }
    .grid { stroke: #e5e7eb; stroke-width: 1; }
    .edge { stroke: #2563eb; stroke-width: 4; stroke-linecap: round; }
    .label { font-family: monospace; font-size: 14px; fill: #374151; text-anchor: middle; }
  </style>
  <!-- Grid background -->
  <rect x="40" y="40" width="320" height="320" fill="#f9fafb"/>
<line x1="40" y1="40" x2="360" y2="40" class="grid"/><line x1="40" y1="120" x2="360" y2="120" class="grid"/><line x1="40" y1="200" x2="360" y2="200" class="grid"/><line x1="40" y1="280" x2="360" y2="280" class="grid"/><line x1="40" y1="360" x2="360" y2="360" class="grid"/><line x1="40" y1="40" x2="40" y2="360" class="grid"/><line x1="120" y1="40" x2="120" y2="360" class="grid"/><line x1="200" y1="40" x2="200" y2="360" class="grid"/><line x1="280" y1="40" x2="280" y2="360" class="grid"/><line x1="360" y1="40" x2="360" y2="360" class="grid"/><circle cx="80.0" cy="80.0" r="12" class="source"/><text x="80.0" y="85.0" class="label">0</text><circle cx="160.0" cy="80.0" r="12" class="steiner"/><text x="160.0" y="85.0" class="label">1</text><circle cx="240.0" cy="80.0" r="12" class="steiner"/><text x="240.0" y="85.0" class="label">2</text><circle cx="320.0" cy="80.0" r="12" class="source"/><text x="320.0" y="85.0" class="label">3</text><circle cx="80.0" cy="160.0" r="12" class="steiner"/><text x="80.0" y="165.0" class="label">4</text><circle cx="320.0" cy="160.0" r="12" class="steiner"/><text x="320.0" y="165.0" class="label">7</text><circle cx="80.0" cy="240.0" r="12" class="steiner"/><text x="80.0" y="245.0" class="label">8</text><circle cx="320.0" cy="240.0" r="12" class="steiner"/><text x="320.0" y="245.0" class="label">11</text><circle cx="80.0" cy="320.0" r="12" class="terminal"/><text x="80.0" y="325.0" class="label">12</text><circle cx="320.0" cy="320.0" r="12" class="terminal"/><text x="320.0" y="325.0" class="label">15</text><line x1="80.0" y1="80.0" x2="160.0" y2="80.0" class="edge"/><line x1="80.0" y1="80.0" x2="80.0" y2="160.0" class="edge"/><line x1="240.0" y1="80.0" x2="320.0" y2="80.0" class="edge"/><line x1="320.0" y1="80.0" x2="320.0" y2="160.0" class="edge"/><line x1="80.0" y1="240.0" x2="80.0" y2="320.0" class="edge"/><line x1="320.0" y1="240.0" x2="320.0" y2="320.0" class="edge"/><line x1="160.0" y1="80.0" x2="240.0" y2="80.0" class="edge"/><line x1="80.0" y1="160.0" x2="80.0" y2="240.0" class="edge"/><line x1="320.0" y1="160.0" x2="320.0" y2="240.0" class="edge"/></svg>