<?xml version="1.0" encoding="UTF-8" standalone="no"?>
<!DOCTYPE svg PUBLIC "-//W3C//DTD SVG 1.1//EN"
 "http://www.w3.org/Graphics/SVG/1.1/DTD/svg11.dtd">
<!-- Generated by graphviz version 2.40.1 (20161225.0304)
 -->
<!-- Title: lib/include/ckpttncpp/bpqueue.hpp Pages: 1 -->
<svg width="1256pt" height="240pt"
 viewBox="0.00 0.00 1256.00 240.00" xmlns="http://www.w3.org/2000/svg" xmlns:xlink="http://www.w3.org/1999/xlink">
<g id="graph0" class="graph" transform="scale(1 1) rotate(0) translate(4 236)">
<title>lib/include/ckpttncpp/bpqueue.hpp</title>
<polygon fill="#ffffff" stroke="transparent" points="-4,4 -4,-236 1252,-236 1252,4 -4,4"/>
<!-- Node5 -->
<g id="node1" class="node">
<title>Node5</title>
<polygon fill="#bfbfbf" stroke="#000000" points="916.5,-201.5 916.5,-231.5 1022.5,-231.5 1022.5,-201.5 916.5,-201.5"/>
<text text-anchor="start" x="924.5" y="-219.5" font-family="Helvetica,sans-Serif" font-size="10.00" fill="#000000">lib/include/ckpttncpp</text>
<text text-anchor="middle" x="969.5" y="-208.5" font-family="Helvetica,sans-Serif" font-size="10.00" fill="#000000">/bpqueue.hpp</text>
</g>
<!-- Node6 -->
<g id="node2" class="node">
<title>Node6</title>
<g id="a_node2"><a xlink:href="FMGainMgr_8hpp.html" target="_top" xlink:title="lib/include/ckpttncpp\l/FMGainMgr.hpp">
<polygon fill="#ffffff" stroke="#000000" points="732.5,-134.5 732.5,-164.5 838.5,-164.5 838.5,-134.5 732.5,-134.5"/>
<text text-anchor="start" x="740.5" y="-152.5" font-family="Helvetica,sans-Serif" font-size="10.00" fill="#000000">lib/include/ckpttncpp</text>
<text text-anchor="middle" x="785.5" y="-141.5" font-family="Helvetica,sans-Serif" font-size="10.00" fill="#000000">/FMGainMgr.hpp</text>
</a>
</g>
</g>
<!-- Node5&#45;&gt;Node6 -->
<g id="edge1" class="edge">
<title>Node5&#45;&gt;Node6</title>
<path fill="none" stroke="#191970" d="M918.7002,-198.0023C889.8315,-187.4903 854.1415,-174.4945 826.9733,-164.6017"/>
<polygon fill="#191970" stroke="#191970" points="917.6128,-201.3311 928.2068,-201.4639 920.0079,-194.7535 917.6128,-201.3311"/>
</g>
<!-- Node17 -->
<g id="node13" class="node">
<title>Node17</title>
<g id="a_node13"><a xlink:href="bpqueue_8cpp.html" target="_top" xlink:title="lib/src/bpqueue.cpp">
<polygon fill="#ffffff" stroke="#000000" points="857,-140 857,-159 958,-159 958,-140 857,-140"/>
<text text-anchor="middle" x="907.5" y="-147" font-family="Helvetica,sans-Serif" font-size="10.00" fill="#000000">lib/src/bpqueue.cpp</text>
</a>
</g>
</g>
<!-- Node5&#45;&gt;Node17 -->
<g id="edge16" class="edge">
<title>Node5&#45;&gt;Node17</title>
<path fill="none" stroke="#191970" d="M948.554,-193.8648C937.5728,-181.998 924.7041,-168.0916 916.3419,-159.055"/>
<polygon fill="#191970" stroke="#191970" points="946.0704,-196.3342 955.4312,-201.2967 951.2082,-191.5798 946.0704,-196.3342"/>
</g>
<!-- Node18 -->
<g id="node14" class="node">
<title>Node18</title>
<g id="a_node14"><a xlink:href="min__cover_8cpp.html" target="_top" xlink:title="lib/src/min_cover.cpp">
<polygon fill="#ffffff" stroke="#000000" points="976.5,-140 976.5,-159 1086.5,-159 1086.5,-140 976.5,-140"/>
<text text-anchor="middle" x="1031.5" y="-147" font-family="Helvetica,sans-Serif" font-size="10.00" fill="#000000">lib/src/min_cover.cpp</text>
</a>
</g>
</g>
<!-- Node5&#45;&gt;Node18 -->
<g id="edge17" class="edge">
<title>Node5&#45;&gt;Node18</title>
<path fill="none" stroke="#191970" d="M990.446,-193.8648C1001.4272,-181.998 1014.2959,-168.0916 1022.6581,-159.055"/>
<polygon fill="#191970" stroke="#191970" points="987.7918,-191.5798 983.5688,-201.2967 992.9296,-196.3342 987.7918,-191.5798"/>
</g>
<!-- Node19 -->
<g id="node15" class="node">
<title>Node19</title>
<g id="a_node15"><a xlink:href="test__bpqueue_8cpp.html" target="_top" xlink:title="lib/test/src/test_bpqueue.cpp">
<polygon fill="#ffffff" stroke="#000000" points="1105,-140 1105,-159 1248,-159 1248,-140 1105,-140"/>
<text text-anchor="middle" x="1176.5" y="-147" font-family="Helvetica,sans-Serif" font-size="10.00" fill="#000000">lib/test/src/test_bpqueue.cpp</text>
</a>
</g>
</g>
<!-- Node5&#45;&gt;Node19 -->
<g id="edge18" class="edge">
<title>Node5&#45;&gt;Node19</title>
<path fill="none" stroke="#191970" d="M1025.6563,-198.3238C1064.8686,-185.6319 1115.6374,-169.1995 1147.1329,-159.0053"/>
<polygon fill="#191970" stroke="#191970" points="1024.3911,-195.0545 1015.9548,-201.4639 1026.5467,-201.7143 1024.3911,-195.0545"/>
</g>
<!-- Node7 -->
<g id="node3" class="node">
<title>Node7</title>
<g id="a_node3"><a xlink:href="FMBiGainMgr_8hpp.html" target="_top" xlink:title="lib/include/ckpttncpp\l/FMBiGainMgr.hpp">
<polygon fill="#ffffff" stroke="#000000" points="450.5,-67.5 450.5,-97.5 556.5,-97.5 556.5,-67.5 450.5,-67.5"/>
<text text-anchor="start" x="458.5" y="-85.5" font-family="Helvetica,sans-Serif" font-size="10.00" fill="#000000">lib/include/ckpttncpp</text>
<text text-anchor="middle" x="503.5" y="-74.5" font-family="Helvetica,sans-Serif" font-size="10.00" fill="#000000">/FMBiGainMgr.hpp</text>
</a>
</g>
</g>
<!-- Node6&#45;&gt;Node7 -->
<g id="edge2" class="edge">
<title>Node6&#45;&gt;Node7</title>
<path fill="none" stroke="#191970" d="M722.4441,-134.5186C672.6248,-122.6821 603.8752,-106.348 556.7828,-95.1594"/>
<polygon fill="#191970" stroke="#191970" points="721.9197,-137.9914 732.458,-136.8978 723.5378,-131.181 721.9197,-137.9914"/>
</g>
<!-- Node9 -->
<g id="node5" class="node">
<title>Node9</title>
<g id="a_node5"><a xlink:href="FMGainMgr_8cpp.html" target="_top" xlink:title="lib/src/FMGainMgr.cpp">
<polygon fill="#ffffff" stroke="#000000" points="1029.5,-6 1029.5,-25 1145.5,-25 1145.5,-6 1029.5,-6"/>
<text text-anchor="middle" x="1087.5" y="-13" font-family="Helvetica,sans-Serif" font-size="10.00" fill="#000000">lib/src/FMGainMgr.cpp</text>
</a>
</g>
</g>
<!-- Node6&#45;&gt;Node9 -->
<g id="edge15" class="edge">
<title>Node6&#45;&gt;Node9</title>
<path fill="none" stroke="#191970" d="M828.8039,-130.2857C894.3648,-101.1958 1016.4035,-47.0461 1065.8548,-25.1042"/>
<polygon fill="#191970" stroke="#191970" points="827.2773,-127.1339 819.5562,-134.389 830.1163,-133.5324 827.2773,-127.1339"/>
</g>
<!-- Node14 -->
<g id="node10" class="node">
<title>Node14</title>
<g id="a_node10"><a xlink:href="FMKWayGainMgr_8hpp.html" target="_top" xlink:title="lib/include/ckpttncpp\l/FMKWayGainMgr.hpp">
<polygon fill="#ffffff" stroke="#000000" points="727.5,-67.5 727.5,-97.5 843.5,-97.5 843.5,-67.5 727.5,-67.5"/>
<text text-anchor="start" x="735.5" y="-85.5" font-family="Helvetica,sans-Serif" font-size="10.00" fill="#000000">lib/include/ckpttncpp</text>
<text text-anchor="middle" x="785.5" y="-74.5" font-family="Helvetica,sans-Serif" font-size="10.00" fill="#000000">/FMKWayGainMgr.hpp</text>
</a>
</g>
</g>
<!-- Node6&#45;&gt;Node14 -->
<g id="edge9" class="edge">
<title>Node6&#45;&gt;Node14</title>
<path fill="none" stroke="#191970" d="M785.5,-124.0249C785.5,-115.128 785.5,-105.4287 785.5,-97.6432"/>
<polygon fill="#191970" stroke="#191970" points="782.0001,-124.2966 785.5,-134.2967 789.0001,-124.2967 782.0001,-124.2966"/>
</g>
<!-- Node8 -->
<g id="node4" class="node">
<title>Node8</title>
<g id="a_node4"><a xlink:href="FMBiGainMgr2_8cpp.html" target="_top" xlink:title="lib/src/FMBiGainMgr2.cpp">
<polygon fill="#ffffff" stroke="#000000" points="295.5,-6 295.5,-25 425.5,-25 425.5,-6 295.5,-6"/>
<text text-anchor="middle" x="360.5" y="-13" font-family="Helvetica,sans-Serif" font-size="10.00" fill="#000000">lib/src/FMBiGainMgr2.cpp</text>
</a>
</g>
</g>
<!-- Node7&#45;&gt;Node8 -->
<g id="edge3" class="edge">
<title>Node7&#45;&gt;Node8</title>
<path fill="none" stroke="#191970" d="M462.3031,-63.198C435.6607,-50.7152 402.1304,-35.0051 380.9979,-25.1039"/>
<polygon fill="#191970" stroke="#191970" points="460.8677,-66.3905 471.408,-67.4639 463.8376,-60.0517 460.8677,-66.3905"/>
</g>
<!-- Node7&#45;&gt;Node9 -->
<g id="edge4" class="edge">
<title>Node7&#45;&gt;Node9</title>
<path fill="none" stroke="#191970" d="M566.64,-77.2306C684.6936,-67.2091 934.6682,-45.1436 1020.5,-31 1030.1598,-29.4082 1040.5056,-27.2459 1050.1066,-25.0418"/>
<polygon fill="#191970" stroke="#191970" points="566.3302,-73.7442 556.6612,-78.0757 566.9209,-80.7193 566.3302,-73.7442"/>
</g>
<!-- Node10 -->
<g id="node6" class="node">
<title>Node10</title>
<g id="a_node6"><a xlink:href="PartMgrBase_8cpp.html" target="_top" xlink:title="lib/src/PartMgrBase.cpp">
<polygon fill="#ffffff" stroke="#000000" points="581.5,-6 581.5,-25 703.5,-25 703.5,-6 581.5,-6"/>
<text text-anchor="middle" x="642.5" y="-13" font-family="Helvetica,sans-Serif" font-size="10.00" fill="#000000">lib/src/PartMgrBase.cpp</text>
</a>
</g>
</g>
<!-- Node7&#45;&gt;Node10 -->
<g id="edge5" class="edge">
<title>Node7&#45;&gt;Node10</title>
<path fill="none" stroke="#191970" d="M543.8842,-63.0343C569.7261,-50.5781 602.1238,-34.9619 622.5754,-25.1039"/>
<polygon fill="#191970" stroke="#191970" points="542.1827,-59.9689 534.6943,-67.4639 545.2222,-66.2746 542.1827,-59.9689"/>
</g>
<!-- Node11 -->
<g id="node7" class="node">
<title>Node11</title>
<g id="a_node7"><a xlink:href="test__FMBiGainMgr_8cpp.html" target="_top" xlink:title="lib/test/src/test_FMBiGain\lMgr.cpp">
<polygon fill="#ffffff" stroke="#000000" points="0,-.5 0,-30.5 131,-30.5 131,-.5 0,-.5"/>
<text text-anchor="start" x="8" y="-18.5" font-family="Helvetica,sans-Serif" font-size="10.00" fill="#000000">lib/test/src/test_FMBiGain</text>
<text text-anchor="middle" x="65.5" y="-7.5" font-family="Helvetica,sans-Serif" font-size="10.00" fill="#000000">Mgr.cpp</text>
</a>
</g>
</g>
<!-- Node7&#45;&gt;Node11 -->
<g id="edge6" class="edge">
<title>Node7&#45;&gt;Node11</title>
<path fill="none" stroke="#191970" d="M440.0914,-74.7316C367.493,-65.5528 245.0962,-49.2094 140.5,-31 137.4872,-30.4755 134.4104,-29.9201 131.3054,-29.3437"/>
<polygon fill="#191970" stroke="#191970" points="440.0745,-78.257 450.4333,-76.0332 440.9487,-71.3117 440.0745,-78.257"/>
</g>
<!-- Node12 -->
<g id="node8" class="node">
<title>Node12</title>
<g id="a_node8"><a xlink:href="test__FMBiPartMgr_8cpp.html" target="_top" xlink:title="lib/test/src/test_FMBiPart\lMgr.cpp">
<polygon fill="#ffffff" stroke="#000000" points="149.5,-.5 149.5,-30.5 277.5,-30.5 277.5,-.5 149.5,-.5"/>
<text text-anchor="start" x="157.5" y="-18.5" font-family="Helvetica,sans-Serif" font-size="10.00" fill="#000000">lib/test/src/test_FMBiPart</text>
<text text-anchor="middle" x="213.5" y="-7.5" font-family="Helvetica,sans-Serif" font-size="10.00" fill="#000000">Mgr.cpp</text>
</a>
</g>
</g>
<!-- Node7&#45;&gt;Node12 -->
<g id="edge7" class="edge">
<title>Node7&#45;&gt;Node12</title>
<path fill="none" stroke="#191970" d="M440.3212,-67.9035C392.1811,-56.7815 326.1537,-41.5269 277.7507,-30.3441"/>
<polygon fill="#191970" stroke="#191970" points="439.7783,-71.3702 450.3095,-70.2112 441.3541,-64.5499 439.7783,-71.3702"/>
</g>
<!-- Node13 -->
<g id="node9" class="node">
<title>Node13</title>
<g id="a_node9"><a xlink:href="test__MLPartMgr_8cpp.html" target="_top" xlink:title="lib/test/src/test_MLPart\lMgr.cpp">
<polygon fill="#ffffff" stroke="#000000" points="444,-.5 444,-30.5 563,-30.5 563,-.5 444,-.5"/>
<text text-anchor="start" x="452" y="-18.5" font-family="Helvetica,sans-Serif" font-size="10.00" fill="#000000">lib/test/src/test_MLPart</text>
<text text-anchor="middle" x="503.5" y="-7.5" font-family="Helvetica,sans-Serif" font-size="10.00" fill="#000000">Mgr.cpp</text>
</a>
</g>
</g>
<!-- Node7&#45;&gt;Node13 -->
<g id="edge8" class="edge">
<title>Node7&#45;&gt;Node13</title>
<path fill="none" stroke="#191970" d="M503.5,-57.0249C503.5,-48.128 503.5,-38.4287 503.5,-30.6432"/>
<polygon fill="#191970" stroke="#191970" points="500.0001,-57.2966 503.5,-67.2967 507.0001,-57.2967 500.0001,-57.2966"/>
</g>
<!-- Node14&#45;&gt;Node9 -->
<g id="edge10" class="edge">
<title>Node14&#45;&gt;Node9</title>
<path fill="none" stroke="#191970" d="M854.0144,-67.7046C900.9149,-57.5228 964.508,-43.6115 1020.5,-31 1029.0026,-29.0849 1038.1041,-27.0016 1046.7715,-25.0018"/>
<polygon fill="#191970" stroke="#191970" points="853.0002,-64.3431 843.9696,-69.8837 854.4843,-71.184 853.0002,-64.3431"/>
</g>
<!-- Node14&#45;&gt;Node10 -->
<g id="edge12" class="edge">
<title>Node14&#45;&gt;Node10</title>
<path fill="none" stroke="#191970" d="M744.3031,-63.198C717.6607,-50.7152 684.1304,-35.0051 662.9979,-25.1039"/>
<polygon fill="#191970" stroke="#191970" points="742.8677,-66.3905 753.408,-67.4639 745.8376,-60.0517 742.8677,-66.3905"/>
</g>
<!-- Node14&#45;&gt;Node13 -->
<g id="edge14" class="edge">
<title>Node14&#45;&gt;Node13</title>
<path fill="none" stroke="#191970" d="M717.6211,-66.3727C670.6218,-55.2063 608.6366,-40.4793 563.4579,-29.7453"/>
<polygon fill="#191970" stroke="#191970" points="716.8731,-69.7924 727.4113,-68.6988 718.4912,-62.982 716.8731,-69.7924"/>
</g>
<!-- Node15 -->
<g id="node11" class="node">
<title>Node15</title>
<g id="a_node11"><a xlink:href="FMKWayGainMgr_8cpp.html" target="_top" xlink:title="lib/src/FMKWayGainMgr.cpp">
<polygon fill="#ffffff" stroke="#000000" points="868,-6 868,-25 1011,-25 1011,-6 868,-6"/>
<text text-anchor="middle" x="939.5" y="-13" font-family="Helvetica,sans-Serif" font-size="10.00" fill="#000000">lib/src/FMKWayGainMgr.cpp</text>
</a>
</g>
</g>
<!-- Node14&#45;&gt;Node15 -->
<g id="edge11" class="edge">
<title>Node14&#45;&gt;Node15</title>
<path fill="none" stroke="#191970" d="M829.4904,-63.3613C858.2421,-50.8525 894.5679,-35.0484 917.4253,-25.1039"/>
<polygon fill="#191970" stroke="#191970" points="827.834,-60.265 820.0606,-67.4639 830.6267,-66.6838 827.834,-60.265"/>
</g>
<!-- Node16 -->
<g id="node12" class="node">
<title>Node16</title>
<g id="a_node12"><a xlink:href="test__FMKWayPartMgr_8cpp.html" target="_top" xlink:title="lib/test/src/test_FMKWay\lPartMgr.cpp">
<polygon fill="#ffffff" stroke="#000000" points="721.5,-.5 721.5,-30.5 849.5,-30.5 849.5,-.5 721.5,-.5"/>
<text text-anchor="start" x="729.5" y="-18.5" font-family="Helvetica,sans-Serif" font-size="10.00" fill="#000000">lib/test/src/test_FMKWay</text>
<text text-anchor="middle" x="785.5" y="-7.5" font-family="Helvetica,sans-Serif" font-size="10.00" fill="#000000">PartMgr.cpp</text>
</a>
</g>
</g>
<!-- Node14&#45;&gt;Node16 -->
<g id="edge13" class="edge">
<title>Node14&#45;&gt;Node16</title>
<path fill="none" stroke="#191970" d="M785.5,-57.0249C785.5,-48.128 785.5,-38.4287 785.5,-30.6432"/>
<polygon fill="#191970" stroke="#191970" points="782.0001,-57.2966 785.5,-67.2967 789.0001,-57.2967 782.0001,-57.2966"/>
</g>
</g>
</svg>
