<?xml version="1.0" encoding="UTF-8" standalone="no"?>
<!DOCTYPE svg PUBLIC "-//W3C//DTD SVG 1.1//EN"
 "http://www.w3.org/Graphics/SVG/1.1/DTD/svg11.dtd">
<!-- Generated by graphviz version 2.40.1 (20161225.0304)
 -->
<!-- Title: lib/include/ckpttncpp/bpqueue.hpp Pages: 1 -->
<svg width="203pt" height="151pt"
 viewBox="0.00 0.00 202.50 151.00" xmlns="http://www.w3.org/2000/svg" xmlns:xlink="http://www.w3.org/1999/xlink">
<g id="graph0" class="graph" transform="scale(1 1) rotate(0) translate(4 147)">
<title>lib/include/ckpttncpp/bpqueue.hpp</title>
<polygon fill="#ffffff" stroke="transparent" points="-4,4 -4,-147 198.5,-147 198.5,4 -4,4"/>
<!-- Node0 -->
<g id="node1" class="node">
<title>Node0</title>
<polygon fill="#bfbfbf" stroke="#000000" points="13.5,-112.5 13.5,-142.5 119.5,-142.5 119.5,-112.5 13.5,-112.5"/>
<text text-anchor="start" x="21.5" y="-130.5" font-family="Helvetica,sans-Serif" font-size="10.00" fill="#000000">lib/include/ckpttncpp</text>
<text text-anchor="middle" x="66.5" y="-119.5" font-family="Helvetica,sans-Serif" font-size="10.00" fill="#000000">/bpqueue.hpp</text>
</g>
<!-- Node1 -->
<g id="node2" class="node">
<title>Node1</title>
<polygon fill="#ffffff" stroke="#bfbfbf" points="0,-.5 0,-19.5 49,-19.5 49,-.5 0,-.5"/>
<text text-anchor="middle" x="24.5" y="-7.5" font-family="Helvetica,sans-Serif" font-size="10.00" fill="#000000">cassert</text>
</g>
<!-- Node0&#45;&gt;Node1 -->
<g id="edge1" class="edge">
<title>Node0&#45;&gt;Node1</title>
<path fill="none" stroke="#191970" d="M55.3874,-112.4979C48.6077,-102.6147 40.341,-89.1193 35.5,-76 29.9706,-61.0151 27.2076,-43.0871 25.8345,-29.7006"/>
<polygon fill="#191970" stroke="#191970" points="29.3177,-29.3534 24.9777,-19.6883 22.3432,-29.9503 29.3177,-29.3534"/>
</g>
<!-- Node2 -->
<g id="node3" class="node">
<title>Node2</title>
<polygon fill="#ffffff" stroke="#bfbfbf" points="44.5,-56.5 44.5,-75.5 88.5,-75.5 88.5,-56.5 44.5,-56.5"/>
<text text-anchor="middle" x="66.5" y="-63.5" font-family="Helvetica,sans-Serif" font-size="10.00" fill="#000000">vector</text>
</g>
<!-- Node0&#45;&gt;Node2 -->
<g id="edge2" class="edge">
<title>Node0&#45;&gt;Node2</title>
<path fill="none" stroke="#191970" d="M66.5,-112.2977C66.5,-104.3834 66.5,-94.6043 66.5,-86.0759"/>
<polygon fill="#191970" stroke="#191970" points="70.0001,-85.8469 66.5,-75.8469 63.0001,-85.847 70.0001,-85.8469"/>
</g>
<!-- Node3 -->
<g id="node4" class="node">
<title>Node3</title>
<g id="a_node4"><a xlink:href="dllist_8hpp.html" target="_top" xlink:title="dllist.hpp">
<polygon fill="#ffffff" stroke="#000000" points="106.5,-56.5 106.5,-75.5 162.5,-75.5 162.5,-56.5 106.5,-56.5"/>
<text text-anchor="middle" x="134.5" y="-63.5" font-family="Helvetica,sans-Serif" font-size="10.00" fill="#000000">dllist.hpp</text>
</a>
</g>
</g>
<!-- Node0&#45;&gt;Node3 -->
<g id="edge3" class="edge">
<title>Node0&#45;&gt;Node3</title>
<path fill="none" stroke="#191970" d="M83.309,-112.2977C93.2397,-103.3163 105.8257,-91.9334 116.0327,-82.702"/>
<polygon fill="#191970" stroke="#191970" points="118.5434,-85.1505 123.6123,-75.8469 113.848,-79.9588 118.5434,-85.1505"/>
</g>
<!-- Node3&#45;&gt;Node1 -->
<g id="edge5" class="edge">
<title>Node3&#45;&gt;Node1</title>
<path fill="none" stroke="#191970" d="M115.3395,-56.2455C97.9889,-47.4125 72.2099,-34.2887 52.5417,-24.2758"/>
<polygon fill="#191970" stroke="#191970" points="53.9405,-21.0605 43.441,-19.6427 50.7647,-27.2986 53.9405,-21.0605"/>
</g>
<!-- Node4 -->
<g id="node5" class="node">
<title>Node4</title>
<polygon fill="#ffffff" stroke="#bfbfbf" points="74.5,-.5 74.5,-19.5 194.5,-19.5 194.5,-.5 74.5,-.5"/>
<text text-anchor="middle" x="134.5" y="-7.5" font-family="Helvetica,sans-Serif" font-size="10.00" fill="#000000">boost/coroutine2/all.hpp</text>
</g>
<!-- Node3&#45;&gt;Node4 -->
<g id="edge4" class="edge">
<title>Node3&#45;&gt;Node4</title>
<path fill="none" stroke="#191970" d="M134.5,-56.2455C134.5,-48.9382 134.5,-38.6944 134.5,-29.7046"/>
<polygon fill="#191970" stroke="#191970" points="138.0001,-29.6426 134.5,-19.6427 131.0001,-29.6427 138.0001,-29.6426"/>
</g>
</g>
</svg>
