<?xml version="1.0" encoding="UTF-8" standalone="no"?>
<!DOCTYPE svg PUBLIC "-//W3C//DTD SVG 1.1//EN"
 "http://www.w3.org/Graphics/SVG/1.1/DTD/svg11.dtd">
<!-- Generated by graphviz version 2.40.1 (20161225.0304)
 -->
<!-- Title: iter::impl::Chunker::Iterator::done Pages: 1 -->
<svg width="248pt" height="39pt"
 viewBox="0.00 0.00 248.00 39.00" xmlns="http://www.w3.org/2000/svg" xmlns:xlink="http://www.w3.org/1999/xlink">
<g id="graph0" class="graph" transform="scale(1 1) rotate(0) translate(4 35)">
<title>iter::impl::Chunker::Iterator::done</title>
<polygon fill="#ffffff" stroke="transparent" points="-4,4 -4,-35 244,-35 244,4 -4,4"/>
<!-- Node6 -->
<g id="node1" class="node">
<title>Node6</title>
<polygon fill="#bfbfbf" stroke="#000000" points="0,-.5 0,-30.5 97,-30.5 97,-.5 0,-.5"/>
<text text-anchor="start" x="8" y="-18.5" font-family="Helvetica,sans-Serif" font-size="10.00" fill="#000000">iter::impl::Chunker</text>
<text text-anchor="middle" x="48.5" y="-7.5" font-family="Helvetica,sans-Serif" font-size="10.00" fill="#000000">::Iterator::done</text>
</g>
<!-- Node7 -->
<g id="node2" class="node">
<title>Node7</title>
<g id="a_node2"><a xlink:href="classiter_1_1impl_1_1Chunker_1_1Iterator.html#ab18e97ee009a4d2c625fb9ed0985cf8c" target="_top" xlink:title="iter::impl::Chunker\l::Iterator::operator==">
<polygon fill="#ffffff" stroke="#000000" points="133,-.5 133,-30.5 240,-30.5 240,-.5 133,-.5"/>
<text text-anchor="start" x="141" y="-18.5" font-family="Helvetica,sans-Serif" font-size="10.00" fill="#000000">iter::impl::Chunker</text>
<text text-anchor="middle" x="186.5" y="-7.5" font-family="Helvetica,sans-Serif" font-size="10.00" fill="#000000">::Iterator::operator==</text>
</a>
</g>
</g>
<!-- Node6&#45;&gt;Node7 -->
<g id="edge1" class="edge">
<title>Node6&#45;&gt;Node7</title>
<path fill="none" stroke="#191970" d="M107.2854,-15.5C115.7044,-15.5 124.3309,-15.5 132.6485,-15.5"/>
<polygon fill="#191970" stroke="#191970" points="107.1537,-12.0001 97.1536,-15.5 107.1536,-19.0001 107.1537,-12.0001"/>
</g>
</g>
</svg>
