<?xml version="1.0" encoding="UTF-8" standalone="no"?>
<!DOCTYPE svg PUBLIC "-//W3C//DTD SVG 1.1//EN"
 "http://www.w3.org/Graphics/SVG/1.1/DTD/svg11.dtd">
<!-- Generated by graphviz version 2.40.1 (20161225.0304)
 -->
<!-- Title: iter::impl::ChainedFromIterable&lt; Container &gt; Pages: 1 -->
<svg width="159pt" height="237pt"
 viewBox="0.00 0.00 159.00 237.00" xmlns="http://www.w3.org/2000/svg" xmlns:xlink="http://www.w3.org/1999/xlink">
<g id="graph0" class="graph" transform="scale(1 1) rotate(0) translate(4 233)">
<title>iter::impl::ChainedFromIterable&lt; Container &gt;</title>
<polygon fill="#ffffff" stroke="transparent" points="-4,4 -4,-233 155,-233 155,4 -4,4"/>
<!-- Node1 -->
<g id="node1" class="node">
<title>Node1</title>
<polygon fill="#bfbfbf" stroke="#000000" points="0,-.5 0,-123.5 151,-123.5 151,-.5 0,-.5"/>
<text text-anchor="start" x="8" y="-111.5" font-family="Helvetica,sans-Serif" font-size="10.00" fill="#000000">iter::impl::ChainedFromIterable</text>
<text text-anchor="middle" x="75.5" y="-100.5" font-family="Helvetica,sans-Serif" font-size="10.00" fill="#000000">&lt; Container &gt;</text>
<polyline fill="none" stroke="#000000" points="0,-93.5 151,-93.5 "/>
<text text-anchor="start" x="8" y="-81.5" font-family="Helvetica,sans-Serif" font-size="10.00" fill="#000000">&#45; ChainFromIterableFn</text>
<polyline fill="none" stroke="#000000" points="0,-74.5 151,-74.5 "/>
<text text-anchor="start" x="8" y="-62.5" font-family="Helvetica,sans-Serif" font-size="10.00" fill="#000000">+ ChainedFromIterable()</text>
<text text-anchor="start" x="8" y="-51.5" font-family="Helvetica,sans-Serif" font-size="10.00" fill="#000000">+ begin()</text>
<text text-anchor="start" x="8" y="-40.5" font-family="Helvetica,sans-Serif" font-size="10.00" fill="#000000">+ end()</text>
<text text-anchor="start" x="8" y="-29.5" font-family="Helvetica,sans-Serif" font-size="10.00" fill="#000000">+ begin()</text>
<text text-anchor="start" x="8" y="-18.5" font-family="Helvetica,sans-Serif" font-size="10.00" fill="#000000">+ end()</text>
<text text-anchor="start" x="8" y="-7.5" font-family="Helvetica,sans-Serif" font-size="10.00" fill="#000000">&#45; ChainedFromIterable()</text>
</g>
<!-- Node2 -->
<g id="node2" class="node">
<title>Node2</title>
<polygon fill="#ffffff" stroke="#bfbfbf" points="46,-171.5 46,-228.5 105,-228.5 105,-171.5 46,-171.5"/>
<text text-anchor="middle" x="75.5" y="-216.5" font-family="Helvetica,sans-Serif" font-size="10.00" fill="#000000">Container</text>
<polyline fill="none" stroke="#bfbfbf" points="46,-209.5 105,-209.5 "/>
<text text-anchor="middle" x="75.5" y="-197.5" font-family="Helvetica,sans-Serif" font-size="10.00" fill="#000000"> </text>
<polyline fill="none" stroke="#bfbfbf" points="46,-190.5 105,-190.5 "/>
<text text-anchor="middle" x="75.5" y="-178.5" font-family="Helvetica,sans-Serif" font-size="10.00" fill="#000000"> </text>
</g>
<!-- Node2&#45;&gt;Node1 -->
<g id="edge1" class="edge">
<title>Node2&#45;&gt;Node1</title>
<path fill="none" stroke="#404040" d="M75.5,-171.4063C75.5,-160.8767 75.5,-148.4088 75.5,-135.7269"/>
<polygon fill="none" stroke="#404040" points="75.5001,-135.5587 71.5,-129.5587 75.5,-123.5587 79.5,-129.5586 75.5001,-135.5587"/>
<text text-anchor="middle" x="101.5" y="-145" font-family="Helvetica,sans-Serif" font-size="10.00" fill="#000000"> &#45;container_</text>
</g>
</g>
</svg>
