<?xml version="1.0" encoding="UTF-8" standalone="no"?>
<!DOCTYPE svg PUBLIC "-//W3C//DTD SVG 1.1//EN"
 "http://www.w3.org/Graphics/SVG/1.1/DTD/svg11.dtd">
<!-- Generated by graphviz version 2.40.1 (20161225.0304)
 -->
<!-- Title: iter::impl::SortedView&lt; Container, CompareFunc &gt; Pages: 1 -->
<svg width="186pt" height="386pt"
 viewBox="0.00 0.00 186.00 386.00" xmlns="http://www.w3.org/2000/svg" xmlns:xlink="http://www.w3.org/1999/xlink">
<g id="graph0" class="graph" transform="scale(1 1) rotate(0) translate(4 382)">
<title>iter::impl::SortedView&lt; Container, CompareFunc &gt;</title>
<polygon fill="#ffffff" stroke="transparent" points="-4,4 -4,-382 182,-382 182,4 -4,4"/>
<!-- Node1 -->
<g id="node1" class="node">
<title>Node1</title>
<polygon fill="#bfbfbf" stroke="#000000" points="12,-.5 12,-123.5 156,-123.5 156,-.5 12,-.5"/>
<text text-anchor="start" x="20" y="-111.5" font-family="Helvetica,sans-Serif" font-size="10.00" fill="#000000">iter::impl::SortedView</text>
<text text-anchor="middle" x="84" y="-100.5" font-family="Helvetica,sans-Serif" font-size="10.00" fill="#000000">&lt; Container, CompareFunc &gt;</text>
<polyline fill="none" stroke="#000000" points="12,-93.5 156,-93.5 "/>
<text text-anchor="start" x="20" y="-81.5" font-family="Helvetica,sans-Serif" font-size="10.00" fill="#000000">&#45; SortedFn</text>
<polyline fill="none" stroke="#000000" points="12,-74.5 156,-74.5 "/>
<text text-anchor="start" x="20" y="-62.5" font-family="Helvetica,sans-Serif" font-size="10.00" fill="#000000">+ SortedView()</text>
<text text-anchor="start" x="20" y="-51.5" font-family="Helvetica,sans-Serif" font-size="10.00" fill="#000000">+ begin()</text>
<text text-anchor="start" x="20" y="-40.5" font-family="Helvetica,sans-Serif" font-size="10.00" fill="#000000">+ end()</text>
<text text-anchor="start" x="20" y="-29.5" font-family="Helvetica,sans-Serif" font-size="10.00" fill="#000000">+ begin()</text>
<text text-anchor="start" x="20" y="-18.5" font-family="Helvetica,sans-Serif" font-size="10.00" fill="#000000">+ end()</text>
<text text-anchor="start" x="20" y="-7.5" font-family="Helvetica,sans-Serif" font-size="10.00" fill="#000000">&#45; SortedView()</text>
</g>
<!-- Node2 -->
<g id="node2" class="node">
<title>Node2</title>
<g id="a_node2"><a xlink:href="classiter_1_1impl_1_1SortedView_1_1SortedItersHolder.html" target="_top" xlink:title="{iter::impl::SortedView\l\&lt; Container, CompareFunc\l \&gt;::SortedItersHolder\&lt; Container \&gt;\n|&#45; sorted_iters_\l|+ SortedItersHolder()\l+ begin()\l+ end()\l}">
<polygon fill="#ffffff" stroke="#000000" points="0,-171.5 0,-272.5 168,-272.5 168,-171.5 0,-171.5"/>
<text text-anchor="start" x="8" y="-260.5" font-family="Helvetica,sans-Serif" font-size="10.00" fill="#000000">iter::impl::SortedView</text>
<text text-anchor="start" x="8" y="-249.5" font-family="Helvetica,sans-Serif" font-size="10.00" fill="#000000">&lt; Container, CompareFunc</text>
<text text-anchor="middle" x="84" y="-238.5" font-family="Helvetica,sans-Serif" font-size="10.00" fill="#000000"> &gt;::SortedItersHolder&lt; Container &gt;</text>
<polyline fill="none" stroke="#000000" points="0,-231.5 168,-231.5 "/>
<text text-anchor="start" x="8" y="-219.5" font-family="Helvetica,sans-Serif" font-size="10.00" fill="#000000">&#45; sorted_iters_</text>
<polyline fill="none" stroke="#000000" points="0,-212.5 168,-212.5 "/>
<text text-anchor="start" x="8" y="-200.5" font-family="Helvetica,sans-Serif" font-size="10.00" fill="#000000">+ SortedItersHolder()</text>
<text text-anchor="start" x="8" y="-189.5" font-family="Helvetica,sans-Serif" font-size="10.00" fill="#000000">+ begin()</text>
<text text-anchor="start" x="8" y="-178.5" font-family="Helvetica,sans-Serif" font-size="10.00" fill="#000000">+ end()</text>
</a>
</g>
</g>
<!-- Node2&#45;&gt;Node1 -->
<g id="edge1" class="edge">
<title>Node2&#45;&gt;Node1</title>
<path fill="none" stroke="#404040" d="M84,-171.375C84,-159.9767 84,-147.6545 84,-135.5317"/>
<polygon fill="none" stroke="#404040" points="84.0001,-135.5169 80,-129.517 84,-123.5169 88,-129.5169 84.0001,-135.5169"/>
<text text-anchor="middle" x="131" y="-145" font-family="Helvetica,sans-Serif" font-size="10.00" fill="#000000"> &#45;sorted_iters_holder_</text>
</g>
<!-- Node3 -->
<g id="node3" class="node">
<title>Node3</title>
<polygon fill="#ffffff" stroke="#bfbfbf" points="54.5,-320.5 54.5,-377.5 113.5,-377.5 113.5,-320.5 54.5,-320.5"/>
<text text-anchor="middle" x="84" y="-365.5" font-family="Helvetica,sans-Serif" font-size="10.00" fill="#000000">Container</text>
<polyline fill="none" stroke="#bfbfbf" points="54.5,-358.5 113.5,-358.5 "/>
<text text-anchor="middle" x="84" y="-346.5" font-family="Helvetica,sans-Serif" font-size="10.00" fill="#000000"> </text>
<polyline fill="none" stroke="#bfbfbf" points="54.5,-339.5 113.5,-339.5 "/>
<text text-anchor="middle" x="84" y="-327.5" font-family="Helvetica,sans-Serif" font-size="10.00" fill="#000000"> </text>
</g>
<!-- Node3&#45;&gt;Node2 -->
<g id="edge2" class="edge">
<title>Node3&#45;&gt;Node2</title>
<path fill="none" stroke="#404040" d="M84,-320.4987C84,-309.9128 84,-297.4397 84,-284.9926"/>
<polygon fill="none" stroke="#404040" points="84.0001,-284.625 80,-278.625 84,-272.625 88,-278.625 84.0001,-284.625"/>
<text text-anchor="middle" x="110" y="-294" font-family="Helvetica,sans-Serif" font-size="10.00" fill="#000000"> &#45;container_</text>
</g>
</g>
</svg>
