<?xml version="1.0" encoding="UTF-8" standalone="no"?>
<!DOCTYPE svg PUBLIC "-//W3C//DTD SVG 1.1//EN"
 "http://www.w3.org/Graphics/SVG/1.1/DTD/svg11.dtd">
<!-- Generated by graphviz version 2.40.1 (20161225.0304)
 -->
<!-- Title: itertest::MoveOnly::MoveOnly Pages: 1 -->
<svg width="238pt" height="39pt"
 viewBox="0.00 0.00 238.00 39.00" xmlns="http://www.w3.org/2000/svg" xmlns:xlink="http://www.w3.org/1999/xlink">
<g id="graph0" class="graph" transform="scale(1 1) rotate(0) translate(4 35)">
<title>itertest::MoveOnly::MoveOnly</title>
<polygon fill="#ffffff" stroke="transparent" points="-4,4 -4,-35 234,-35 234,4 -4,4"/>
<!-- Node0 -->
<g id="node1" class="node">
<title>Node0</title>
<polygon fill="#bfbfbf" stroke="#000000" points="0,-.5 0,-30.5 97,-30.5 97,-.5 0,-.5"/>
<text text-anchor="start" x="8" y="-18.5" font-family="Helvetica,sans-Serif" font-size="10.00" fill="#000000">itertest::MoveOnly</text>
<text text-anchor="middle" x="48.5" y="-7.5" font-family="Helvetica,sans-Serif" font-size="10.00" fill="#000000">::MoveOnly</text>
</g>
<!-- Node1 -->
<g id="node2" class="node">
<title>Node1</title>
<g id="a_node2"><a xlink:href="classitertest_1_1MoveOnly.html#a9a35ec58c0fa7426efd6463688a40b85" target="_top" xlink:title="itertest::MoveOnly\l::operator=">
<polygon fill="#ffffff" stroke="#000000" points="133,-.5 133,-30.5 230,-30.5 230,-.5 133,-.5"/>
<text text-anchor="start" x="141" y="-18.5" font-family="Helvetica,sans-Serif" font-size="10.00" fill="#000000">itertest::MoveOnly</text>
<text text-anchor="middle" x="181.5" y="-7.5" font-family="Helvetica,sans-Serif" font-size="10.00" fill="#000000">::operator=</text>
</a>
</g>
</g>
<!-- Node0&#45;&gt;Node1 -->
<g id="edge1" class="edge">
<title>Node0&#45;&gt;Node1</title>
<path fill="none" stroke="#191970" d="M97.2691,-15.5C105.4913,-15.5 114.1037,-15.5 122.5514,-15.5"/>
<polygon fill="#191970" stroke="#191970" points="122.7368,-19.0001 132.7368,-15.5 122.7368,-12.0001 122.7368,-19.0001"/>
</g>
</g>
</svg>
