<?xml version="1.0" encoding="UTF-8" standalone="no"?>
<!DOCTYPE svg PUBLIC "-//W3C//DTD SVG 1.1//EN"
 "http://www.w3.org/Graphics/SVG/1.1/DTD/svg11.dtd">
<!-- Generated by graphviz version 2.40.1 (20161225.0304)
 -->
<!-- Title: xn::EdgeView&lt; Graph &gt; Pages: 1 -->
<svg width="288pt" height="791pt"
 viewBox="0.00 0.00 288.00 791.00" xmlns="http://www.w3.org/2000/svg" xmlns:xlink="http://www.w3.org/1999/xlink">
<g id="graph0" class="graph" transform="scale(1 1) rotate(0) translate(4 787)">
<title>xn::EdgeView&lt; Graph &gt;</title>
<polygon fill="#ffffff" stroke="transparent" points="-4,4 -4,-787 284,-787 284,4 -4,4"/>
<!-- Node1 -->
<g id="node1" class="node">
<title>Node1</title>
<polygon fill="#bfbfbf" stroke="#000000" points="63,-.5 63,-101.5 185,-101.5 185,-.5 63,-.5"/>
<text text-anchor="middle" x="124" y="-89.5" font-family="Helvetica,sans-Serif" font-size="10.00" fill="#000000">xn::EdgeView&lt; Graph &gt;</text>
<polyline fill="none" stroke="#000000" points="63,-82.5 185,-82.5 "/>
<text text-anchor="middle" x="124" y="-70.5" font-family="Helvetica,sans-Serif" font-size="10.00" fill="#000000"> </text>
<polyline fill="none" stroke="#000000" points="63,-63.5 185,-63.5 "/>
<text text-anchor="start" x="71" y="-51.5" font-family="Helvetica,sans-Serif" font-size="10.00" fill="#000000">+ EdgeView()</text>
<text text-anchor="start" x="71" y="-40.5" font-family="Helvetica,sans-Serif" font-size="10.00" fill="#000000">+ begin()</text>
<text text-anchor="start" x="71" y="-29.5" font-family="Helvetica,sans-Serif" font-size="10.00" fill="#000000">+ end()</text>
<text text-anchor="start" x="71" y="-18.5" font-family="Helvetica,sans-Serif" font-size="10.00" fill="#000000">+ cbegin()</text>
<text text-anchor="start" x="71" y="-7.5" font-family="Helvetica,sans-Serif" font-size="10.00" fill="#000000">+ cend()</text>
</g>
<!-- Node2 -->
<g id="node2" class="node">
<title>Node2</title>
<g id="a_node2"><a xlink:href="classxn_1_1Graph.html" target="_top" xlink:title="{xn::Graph\&lt; nodeview\l_t, nodemap_t, adjlist\l_inner_dict_factory \&gt;\n|+ _node\l+ _node_map\l|+ Graph()\l+ Graph()\l+ adj()\l+ get_name()\l+ set_name()\l+ begin()\land 13 more...\l}">
<polygon fill="#ffffff" stroke="#000000" points="69,-149.5 69,-305.5 179,-305.5 179,-149.5 69,-149.5"/>
<text text-anchor="start" x="77" y="-293.5" font-family="Helvetica,sans-Serif" font-size="10.00" fill="#000000">xn::Graph&lt; nodeview</text>
<text text-anchor="start" x="77" y="-282.5" font-family="Helvetica,sans-Serif" font-size="10.00" fill="#000000">_t, nodemap_t, adjlist</text>
<text text-anchor="middle" x="124" y="-271.5" font-family="Helvetica,sans-Serif" font-size="10.00" fill="#000000">_inner_dict_factory &gt;</text>
<polyline fill="none" stroke="#000000" points="69,-264.5 179,-264.5 "/>
<text text-anchor="start" x="77" y="-252.5" font-family="Helvetica,sans-Serif" font-size="10.00" fill="#000000">+ _node</text>
<text text-anchor="start" x="77" y="-241.5" font-family="Helvetica,sans-Serif" font-size="10.00" fill="#000000">+ _node_map</text>
<polyline fill="none" stroke="#000000" points="69,-234.5 179,-234.5 "/>
<text text-anchor="start" x="77" y="-222.5" font-family="Helvetica,sans-Serif" font-size="10.00" fill="#000000">+ Graph()</text>
<text text-anchor="start" x="77" y="-211.5" font-family="Helvetica,sans-Serif" font-size="10.00" fill="#000000">+ Graph()</text>
<text text-anchor="start" x="77" y="-200.5" font-family="Helvetica,sans-Serif" font-size="10.00" fill="#000000">+ adj()</text>
<text text-anchor="start" x="77" y="-189.5" font-family="Helvetica,sans-Serif" font-size="10.00" fill="#000000">+ get_name()</text>
<text text-anchor="start" x="77" y="-178.5" font-family="Helvetica,sans-Serif" font-size="10.00" fill="#000000">+ set_name()</text>
<text text-anchor="start" x="77" y="-167.5" font-family="Helvetica,sans-Serif" font-size="10.00" fill="#000000">+ begin()</text>
<text text-anchor="start" x="77" y="-156.5" font-family="Helvetica,sans-Serif" font-size="10.00" fill="#000000">and 13 more...</text>
</a>
</g>
</g>
<!-- Node2&#45;&gt;Node1 -->
<g id="edge1" class="edge">
<title>Node2&#45;&gt;Node1</title>
<path fill="none" stroke="#404040" d="M124,-149.3138C124,-137.4636 124,-125.3681 124,-113.8972"/>
<polygon fill="none" stroke="#404040" points="124.0001,-113.7362 120,-107.7363 124,-101.7362 128,-107.7362 124.0001,-113.7362"/>
<text text-anchor="middle" x="133.5" y="-123" font-family="Helvetica,sans-Serif" font-size="10.00" fill="#000000"> &#45;_G</text>
</g>
<!-- Node3 -->
<g id="node3" class="node">
<title>Node3</title>
<g id="a_node3"><a xlink:href="structxn_1_1object.html" target="_top" xlink:title="Base class for undirected graphs. ">
<polygon fill="#ffffff" stroke="#000000" points="94.5,-359 94.5,-416 153.5,-416 153.5,-359 94.5,-359"/>
<text text-anchor="middle" x="124" y="-404" font-family="Helvetica,sans-Serif" font-size="10.00" fill="#000000">xn::object</text>
<polyline fill="none" stroke="#000000" points="94.5,-397 153.5,-397 "/>
<text text-anchor="middle" x="124" y="-385" font-family="Helvetica,sans-Serif" font-size="10.00" fill="#000000"> </text>
<polyline fill="none" stroke="#000000" points="94.5,-378 153.5,-378 "/>
<text text-anchor="middle" x="124" y="-366" font-family="Helvetica,sans-Serif" font-size="10.00" fill="#000000"> </text>
</a>
</g>
</g>
<!-- Node3&#45;&gt;Node2 -->
<g id="edge2" class="edge">
<title>Node3&#45;&gt;Node2</title>
<path fill="none" stroke="#191970" d="M124,-348.8779C124,-335.7916 124,-320.6671 124,-305.6306"/>
<polygon fill="none" stroke="#191970" points="120.5001,-348.8952 124,-358.8952 127.5001,-348.8952 120.5001,-348.8952"/>
</g>
<!-- Node4 -->
<g id="node4" class="node">
<title>Node4</title>
<g id="a_node4"><a xlink:href="classpy_1_1dict.html" target="_top" xlink:title="{py::dict\&lt; const char\l *, boost::any \&gt;\n||+ dict()\l+ dict()\l+ operator=()\l&#45; dict()\l}">
<polygon fill="#ffffff" stroke="#000000" points="2,-459.5 2,-560.5 106,-560.5 106,-459.5 2,-459.5"/>
<text text-anchor="start" x="10" y="-548.5" font-family="Helvetica,sans-Serif" font-size="10.00" fill="#000000">py::dict&lt; const char</text>
<text text-anchor="middle" x="54" y="-537.5" font-family="Helvetica,sans-Serif" font-size="10.00" fill="#000000"> *, boost::any &gt;</text>
<polyline fill="none" stroke="#000000" points="2,-530.5 106,-530.5 "/>
<text text-anchor="middle" x="54" y="-518.5" font-family="Helvetica,sans-Serif" font-size="10.00" fill="#000000"> </text>
<polyline fill="none" stroke="#000000" points="2,-511.5 106,-511.5 "/>
<text text-anchor="start" x="10" y="-499.5" font-family="Helvetica,sans-Serif" font-size="10.00" fill="#000000">+ dict()</text>
<text text-anchor="start" x="10" y="-488.5" font-family="Helvetica,sans-Serif" font-size="10.00" fill="#000000">+ dict()</text>
<text text-anchor="start" x="10" y="-477.5" font-family="Helvetica,sans-Serif" font-size="10.00" fill="#000000">+ operator=()</text>
<text text-anchor="start" x="10" y="-466.5" font-family="Helvetica,sans-Serif" font-size="10.00" fill="#000000">&#45; dict()</text>
</a>
</g>
</g>
<!-- Node4&#45;&gt;Node2 -->
<g id="edge7" class="edge">
<title>Node4&#45;&gt;Node2</title>
<path fill="none" stroke="#404040" d="M45.9382,-459.2783C42.7123,-428.0922 41.6655,-387.6128 51,-353 54.3165,-340.7024 59.1679,-328.3699 64.8191,-316.4954"/>
<polygon fill="none" stroke="#404040" points="64.8362,-316.4612 63.9484,-309.305 70.2127,-305.7331 71.1005,-312.8893 64.8362,-316.4612"/>
<text text-anchor="middle" x="68" y="-385" font-family="Helvetica,sans-Serif" font-size="10.00" fill="#000000"> +graph</text>
</g>
<!-- Node4&#45;&gt;Node3 -->
<g id="edge3" class="edge">
<title>Node4&#45;&gt;Node3</title>
<path fill="none" stroke="#191970" d="M87.8596,-450.7456C94.7393,-438.7063 101.6777,-426.5641 107.6102,-416.1821"/>
<polygon fill="none" stroke="#191970" points="84.7984,-449.0484 82.8758,-459.4673 90.8761,-452.5214 84.7984,-449.0484"/>
</g>
<!-- Node5 -->
<g id="node5" class="node">
<title>Node5</title>
<g id="a_node5"><a xlink:title="STL class. ">
<polygon fill="#ffffff" stroke="#bfbfbf" points="0,-598.5 0,-677.5 108,-677.5 108,-598.5 0,-598.5"/>
<text text-anchor="start" x="8" y="-665.5" font-family="Helvetica,sans-Serif" font-size="10.00" fill="#000000">std::unordered_map</text>
<text text-anchor="start" x="8" y="-654.5" font-family="Helvetica,sans-Serif" font-size="10.00" fill="#000000">&lt; const char *, boost</text>
<text text-anchor="middle" x="54" y="-643.5" font-family="Helvetica,sans-Serif" font-size="10.00" fill="#000000">::any &gt;</text>
<polyline fill="none" stroke="#bfbfbf" points="0,-636.5 108,-636.5 "/>
<text text-anchor="middle" x="54" y="-624.5" font-family="Helvetica,sans-Serif" font-size="10.00" fill="#000000"> </text>
<polyline fill="none" stroke="#bfbfbf" points="0,-617.5 108,-617.5 "/>
<text text-anchor="middle" x="54" y="-605.5" font-family="Helvetica,sans-Serif" font-size="10.00" fill="#000000"> </text>
</a>
</g>
</g>
<!-- Node5&#45;&gt;Node4 -->
<g id="edge4" class="edge">
<title>Node5&#45;&gt;Node4</title>
<path fill="none" stroke="#191970" d="M54,-588.1972C54,-579.1496 54,-569.7033 54,-560.6321"/>
<polygon fill="none" stroke="#191970" points="50.5001,-588.2016 54,-598.2016 57.5001,-588.2017 50.5001,-588.2016"/>
</g>
<!-- Node6 -->
<g id="node6" class="node">
<title>Node6</title>
<polygon fill="#ffffff" stroke="#bfbfbf" points="12.5,-725.5 12.5,-782.5 41.5,-782.5 41.5,-725.5 12.5,-725.5"/>
<text text-anchor="middle" x="27" y="-770.5" font-family="Helvetica,sans-Serif" font-size="10.00" fill="#000000">K</text>
<polyline fill="none" stroke="#bfbfbf" points="12.5,-763.5 41.5,-763.5 "/>
<text text-anchor="middle" x="27" y="-751.5" font-family="Helvetica,sans-Serif" font-size="10.00" fill="#000000"> </text>
<polyline fill="none" stroke="#bfbfbf" points="12.5,-744.5 41.5,-744.5 "/>
<text text-anchor="middle" x="27" y="-732.5" font-family="Helvetica,sans-Serif" font-size="10.00" fill="#000000"> </text>
</g>
<!-- Node6&#45;&gt;Node5 -->
<g id="edge5" class="edge">
<title>Node6&#45;&gt;Node5</title>
<path fill="none" stroke="#404040" d="M25.2185,-725.4099C25.23,-715.9519 25.8965,-705.4365 28,-696 28.5132,-693.6978 29.122,-691.3757 29.8067,-689.0531"/>
<polygon fill="none" stroke="#404040" points="29.8689,-688.8721 28.039,-681.897 33.7738,-677.5252 35.6037,-684.5002 29.8689,-688.8721"/>
<text text-anchor="middle" x="43.5" y="-699" font-family="Helvetica,sans-Serif" font-size="10.00" fill="#000000"> +keys</text>
</g>
<!-- Node7 -->
<g id="node7" class="node">
<title>Node7</title>
<polygon fill="#ffffff" stroke="#bfbfbf" points="66.5,-725.5 66.5,-782.5 95.5,-782.5 95.5,-725.5 66.5,-725.5"/>
<text text-anchor="middle" x="81" y="-770.5" font-family="Helvetica,sans-Serif" font-size="10.00" fill="#000000">T</text>
<polyline fill="none" stroke="#bfbfbf" points="66.5,-763.5 95.5,-763.5 "/>
<text text-anchor="middle" x="81" y="-751.5" font-family="Helvetica,sans-Serif" font-size="10.00" fill="#000000"> </text>
<polyline fill="none" stroke="#bfbfbf" points="66.5,-744.5 95.5,-744.5 "/>
<text text-anchor="middle" x="81" y="-732.5" font-family="Helvetica,sans-Serif" font-size="10.00" fill="#000000"> </text>
</g>
<!-- Node7&#45;&gt;Node5 -->
<g id="edge6" class="edge">
<title>Node7&#45;&gt;Node5</title>
<path fill="none" stroke="#404040" d="M74.3258,-725.3258C71.8194,-714.5576 68.8871,-701.9593 66.0421,-689.7364"/>
<polygon fill="none" stroke="#404040" points="65.9657,-689.4079 60.7096,-684.4709 63.2452,-677.7203 68.5013,-682.6573 65.9657,-689.4079"/>
<text text-anchor="middle" x="94.5" y="-699" font-family="Helvetica,sans-Serif" font-size="10.00" fill="#000000"> +elements</text>
</g>
<!-- Node8 -->
<g id="node8" class="node">
<title>Node8</title>
<polygon fill="#ffffff" stroke="#bfbfbf" points="172,-353.5 172,-421.5 280,-421.5 280,-353.5 172,-353.5"/>
<text text-anchor="start" x="180" y="-409.5" font-family="Helvetica,sans-Serif" font-size="10.00" fill="#000000">std::vector&lt; adjlist</text>
<text text-anchor="middle" x="226" y="-398.5" font-family="Helvetica,sans-Serif" font-size="10.00" fill="#000000">_inner_dict_factory &gt;</text>
<polyline fill="none" stroke="#bfbfbf" points="172,-391.5 280,-391.5 "/>
<text text-anchor="start" x="180" y="-379.5" font-family="Helvetica,sans-Serif" font-size="10.00" fill="#000000">+ elements</text>
<polyline fill="none" stroke="#bfbfbf" points="172,-372.5 280,-372.5 "/>
<text text-anchor="middle" x="226" y="-360.5" font-family="Helvetica,sans-Serif" font-size="10.00" fill="#000000"> </text>
</g>
<!-- Node8&#45;&gt;Node2 -->
<g id="edge8" class="edge">
<title>Node8&#45;&gt;Node2</title>
<path fill="none" stroke="#404040" d="M204.1184,-353.176C197.0281,-342.054 188.8086,-329.1606 180.391,-315.9565"/>
<polygon fill="none" stroke="#404040" points="180.3816,-315.9416 173.7833,-313.0325 173.9308,-305.8229 180.5291,-308.732 180.3816,-315.9416"/>
<text text-anchor="middle" x="204" y="-327" font-family="Helvetica,sans-Serif" font-size="10.00" fill="#000000"> +_adj</text>
</g>
</g>
</svg>
