<?xml version="1.0" encoding="UTF-8" standalone="no"?>
<!DOCTYPE svg PUBLIC "-//W3C//DTD SVG 1.1//EN"
 "http://www.w3.org/Graphics/SVG/1.1/DTD/svg11.dtd">
<!-- Generated by graphviz version 2.40.1 (20161225.0304)
 -->
<!-- Title: iter::impl::Powersetter::end Pages: 1 -->
<!--zoomable 88 -->
<svg id="main" version="1.1" xmlns="http://www.w3.org/2000/svg" xmlns:xlink="http://www.w3.org/1999/xlink" xml:space="preserve" onload="init(evt)">
<style type="text/css"><![CDATA[
.edge:hover path { stroke: red; }
.edge:hover polygon { stroke: red; fill: red; }
]]></style>
<script type="text/javascript"><![CDATA[
var edges = document.getElementsByTagName('g');
if (edges && edges.length) {
  for (var i=0;i<edges.length;i++) {
    if (edges[i].id.substr(0,4)=='edge') {
      edges[i].setAttribute('class','edge');
    }
  }
}
]]></script>
        <defs>
                <circle id="rim" cx="0" cy="0" r="7"/>
                <circle id="rim2" cx="0" cy="0" r="3.5"/>
                <g id="zoomPlus">
                        <use xlink:href="#rim" fill="#404040">
                                <set attributeName="fill" to="#808080" begin="zoomplus.mouseover" end="zoomplus.mouseout"/>
                        </use>
                        <path d="M-4,0h8M0,-4v8" fill="none" stroke="white" stroke-width="1.5" pointer-events="none"/>
                </g>
                <g id="zoomMin">
                        <use xlink:href="#rim" fill="#404040">
                                <set attributeName="fill" to="#808080" begin="zoomminus.mouseover" end="zoomminus.mouseout"/>
                        </use>
                        <path d="M-4,0h8" fill="none" stroke="white" stroke-width="1.5" pointer-events="none"/>
                </g>
                <g id="dirArrow">
                        <path fill="none" stroke="white" stroke-width="1.5" d="M0,-3.0v7 M-2.5,-0.5L0,-3.0L2.5,-0.5"/>
                </g>
               <g id="resetDef">
                       <use xlink:href="#rim2" fill="#404040">
                               <set attributeName="fill" to="#808080" begin="reset.mouseover" end="reset.mouseout"/>
                       </use>
               </g>
        </defs>

<script type="text/javascript">
var viewWidth = 687;
var viewHeight = 88;
var sectionId = 'dynsection-1';
</script>
<script xlink:href="svgpan.js"/>
<svg id="graph" class="graph">
<g id="viewport">
<title>iter::impl::Powersetter::end</title>
<polygon fill="#ffffff" stroke="transparent" points="-4,4 -4,-84 683,-84 683,4 -4,4"/>
<!-- Node8 -->
<g id="node1" class="node">
<title>Node8</title>
<polygon fill="#bfbfbf" stroke="#000000" points="0,-33 0,-52 134,-52 134,-33 0,-33"/>
<text text-anchor="middle" x="67" y="-40" font-family="Helvetica,sans-Serif" font-size="10.00" fill="#000000">iter::impl::Powersetter::end</text>
</g>
<!-- Node9 -->
<g id="node2" class="node">
<title>Node9</title>
<g id="a_node2"><a xlink:href="namespaceiter_1_1impl.html#a7129837a7631d49d487f726821e8e691" target="_top" xlink:title="iter::impl::dumb_size">
<polygon fill="#ffffff" stroke="#000000" points="170,-33 170,-52 277,-52 277,-33 170,-33"/>
<text text-anchor="middle" x="223.5" y="-40" font-family="Helvetica,sans-Serif" font-size="10.00" fill="#000000">iter::impl::dumb_size</text>
</a>
</g>
</g>
<!-- Node8&#45;&gt;Node9 -->
<g id="edge1" class="edge">
<title>Node8&#45;&gt;Node9</title>
<path fill="none" stroke="#191970" d="M134.2783,-42.5C142.7596,-42.5 151.4164,-42.5 159.8393,-42.5"/>
<polygon fill="#191970" stroke="#191970" points="159.97,-46.0001 169.9699,-42.5 159.9699,-39.0001 159.97,-46.0001"/>
</g>
<!-- Node10 -->
<g id="node3" class="node">
<title>Node10</title>
<g id="a_node3"><a xlink:href="namespaceiter_1_1impl_1_1get__iters.html#ad5958ccc2e23ff7927ae127847a39dbc" target="_top" xlink:title="iter::impl::get_iters\l::get_begin">
<polygon fill="#ffffff" stroke="#000000" points="447,-49.5 447,-79.5 545,-79.5 545,-49.5 447,-49.5"/>
<text text-anchor="start" x="455" y="-67.5" font-family="Helvetica,sans-Serif" font-size="10.00" fill="#000000">iter::impl::get_iters</text>
<text text-anchor="middle" x="496" y="-56.5" font-family="Helvetica,sans-Serif" font-size="10.00" fill="#000000">::get_begin</text>
</a>
</g>
</g>
<!-- Node9&#45;&gt;Node10 -->
<g id="edge2" class="edge">
<title>Node9&#45;&gt;Node10</title>
<path fill="none" stroke="#191970" d="M277.0121,-46.8202C322.9322,-50.5276 389.0318,-55.864 436.5826,-59.703"/>
<polygon fill="#191970" stroke="#191970" points="436.4857,-63.2065 446.7349,-60.5226 437.049,-56.2292 436.4857,-63.2065"/>
</g>
<!-- Node12 -->
<g id="node5" class="node">
<title>Node12</title>
<g id="a_node5"><a xlink:href="namespaceiter_1_1impl_1_1get__iters.html#a33bba16eb5615048756ebb04c94629bd" target="_top" xlink:title="iter::impl::get_iters\l::get_end">
<polygon fill="#ffffff" stroke="#000000" points="313,-5.5 313,-35.5 411,-35.5 411,-5.5 313,-5.5"/>
<text text-anchor="start" x="321" y="-23.5" font-family="Helvetica,sans-Serif" font-size="10.00" fill="#000000">iter::impl::get_iters</text>
<text text-anchor="middle" x="362" y="-12.5" font-family="Helvetica,sans-Serif" font-size="10.00" fill="#000000">::get_end</text>
</a>
</g>
</g>
<!-- Node9&#45;&gt;Node12 -->
<g id="edge4" class="edge">
<title>Node9&#45;&gt;Node12</title>
<path fill="none" stroke="#191970" d="M277.0477,-33.9942C285.4733,-32.6559 294.2263,-31.2655 302.7714,-29.9082"/>
<polygon fill="#191970" stroke="#191970" points="303.3478,-33.3606 312.6749,-28.335 302.2496,-26.4472 303.3478,-33.3606"/>
</g>
<!-- Node11 -->
<g id="node4" class="node">
<title>Node11</title>
<g id="a_node4"><a xlink:href="namespaceiter_1_1impl_1_1get__iters.html#aa42232a4051a50a8ffd16207aa031ff5" target="_top" xlink:title="iter::impl::get_iters\l::get_begin_impl">
<polygon fill="#ffffff" stroke="#000000" points="581,-49.5 581,-79.5 679,-79.5 679,-49.5 581,-49.5"/>
<text text-anchor="start" x="589" y="-67.5" font-family="Helvetica,sans-Serif" font-size="10.00" fill="#000000">iter::impl::get_iters</text>
<text text-anchor="middle" x="630" y="-56.5" font-family="Helvetica,sans-Serif" font-size="10.00" fill="#000000">::get_begin_impl</text>
</a>
</g>
</g>
<!-- Node10&#45;&gt;Node11 -->
<g id="edge3" class="edge">
<title>Node10&#45;&gt;Node11</title>
<path fill="none" stroke="#191970" d="M545.1358,-64.5C553.4198,-64.5 562.097,-64.5 570.6082,-64.5"/>
<polygon fill="#191970" stroke="#191970" points="570.8702,-68.0001 580.8702,-64.5 570.8701,-61.0001 570.8702,-68.0001"/>
</g>
<!-- Node12&#45;&gt;Node10 -->
<g id="edge6" class="edge">
<title>Node12&#45;&gt;Node10</title>
<path fill="none" stroke="#191970" d="M407.7404,-35.5192C418.1891,-38.9501 429.4073,-42.6337 440.2238,-46.1854"/>
<polygon fill="#191970" stroke="#191970" points="439.4179,-49.6046 450.0108,-49.3991 441.6018,-42.954 439.4179,-49.6046"/>
</g>
<!-- Node13 -->
<g id="node6" class="node">
<title>Node13</title>
<g id="a_node6"><a xlink:href="namespaceiter_1_1impl_1_1get__iters.html#a4195fc28d6c53e02d7cb825ce26d75d5" target="_top" xlink:title="iter::impl::get_iters\l::get_end_impl">
<polygon fill="#ffffff" stroke="#000000" points="447,-.5 447,-30.5 545,-30.5 545,-.5 447,-.5"/>
<text text-anchor="start" x="455" y="-18.5" font-family="Helvetica,sans-Serif" font-size="10.00" fill="#000000">iter::impl::get_iters</text>
<text text-anchor="middle" x="496" y="-7.5" font-family="Helvetica,sans-Serif" font-size="10.00" fill="#000000">::get_end_impl</text>
</a>
</g>
</g>
<!-- Node12&#45;&gt;Node13 -->
<g id="edge5" class="edge">
<title>Node12&#45;&gt;Node13</title>
<path fill="none" stroke="#191970" d="M411.1358,-18.6666C419.4198,-18.3575 428.097,-18.0337 436.6082,-17.7161"/>
<polygon fill="#191970" stroke="#191970" points="437.0077,-21.2037 446.8702,-17.3332 436.7466,-14.2086 437.0077,-21.2037"/>
</g>
</g>
</svg>
        <g id="navigator" transform="translate(0 0)" fill="#404254">
                <rect fill="#f2f5e9" fill-opacity="0.5" stroke="#606060" stroke-width=".5" x="0" y="0" width="60" height="60"/>
                <use id="zoomplus" xlink:href="#zoomPlus" x="17" y="9" onmousedown="handleZoom(evt,'in')"/>
                <use id="zoomminus" xlink:href="#zoomMin" x="42" y="9" onmousedown="handleZoom(evt,'out')"/>
                <use id="reset" xlink:href="#resetDef" x="30" y="36" onmousedown="handleReset()"/>
                <g id="arrowUp" xlink:href="#dirArrow" transform="translate(30 24)" onmousedown="handlePan(0,-1)">
                  <use xlink:href="#rim" fill="#404040">
                        <set attributeName="fill" to="#808080" begin="arrowUp.mouseover" end="arrowUp.mouseout"/>
                  </use>
                  <path fill="none" stroke="white" stroke-width="1.5" d="M0,-3.0v7 M-2.5,-0.5L0,-3.0L2.5,-0.5"/>
                </g>
                <g id="arrowRight" xlink:href="#dirArrow" transform="rotate(90) translate(36 -43)" onmousedown="handlePan(1,0)">
                  <use xlink:href="#rim" fill="#404040">
                        <set attributeName="fill" to="#808080" begin="arrowRight.mouseover" end="arrowRight.mouseout"/>
                  </use>
                  <path fill="none" stroke="white" stroke-width="1.5" d="M0,-3.0v7 M-2.5,-0.5L0,-3.0L2.5,-0.5"/>
                </g>
                <g id="arrowDown" xlink:href="#dirArrow" transform="rotate(180) translate(-30 -48)" onmousedown="handlePan(0,1)">
                  <use xlink:href="#rim" fill="#404040">
                        <set attributeName="fill" to="#808080" begin="arrowDown.mouseover" end="arrowDown.mouseout"/>
                  </use>
                  <path fill="none" stroke="white" stroke-width="1.5" d="M0,-3.0v7 M-2.5,-0.5L0,-3.0L2.5,-0.5"/>
                </g>
                <g id="arrowLeft" xlink:href="#dirArrow" transform="rotate(270) translate(-36 17)" onmousedown="handlePan(-1,0)">
                  <use xlink:href="#rim" fill="#404040">
                        <set attributeName="fill" to="#808080" begin="arrowLeft.mouseover" end="arrowLeft.mouseout"/>
                  </use>
                  <path fill="none" stroke="white" stroke-width="1.5" d="M0,-3.0v7 M-2.5,-0.5L0,-3.0L2.5,-0.5"/>
                </g>
        </g>
        <svg viewBox="0 0 15 15" width="100%" height="30px" preserveAspectRatio="xMaxYMin meet">
         <g id="arrow_out" transform="scale(0.3 0.3)">
          <a xlink:href="classiter_1_1impl_1_1Powersetter_ace949ad1a0feaa1e900b1c8a0ac8396a_cgraph_org.svg" target="_base">
           <rect id="button" ry="5" rx="5" y="6" x="6" height="38" width="38"
                fill="#f2f5e9" fill-opacity="0.5" stroke="#606060" stroke-width="1.0"/>
           <path id="arrow"
             d="M 11.500037,31.436501 C 11.940474,20.09759 22.043105,11.32322 32.158766,21.979434 L 37.068811,17.246167 C 37.068811,17.246167 37.088388,32 37.088388,32 L 22.160133,31.978069 C 22.160133,31.978069 26.997745,27.140456 26.997745,27.140456 C 18.528582,18.264221 13.291696,25.230495 11.500037,31.436501 z"
             style="fill:#404040;"/>
          </a>
         </g>
        </svg>
</svg>
