<?xml version="1.0" encoding="UTF-8" standalone="no"?>
<!DOCTYPE svg PUBLIC "-//W3C//DTD SVG 1.1//EN"
 "http://www.w3.org/Graphics/SVG/1.1/DTD/svg11.dtd">
<!-- Generated by graphviz version 2.40.1 (20161225.0304)
 -->
<!-- Title: FMBiGainCalc::__modify_gain Pages: 1 -->
<!--zoomable 180 -->
<svg id="main" version="1.1" xmlns="http://www.w3.org/2000/svg" xmlns:xlink="http://www.w3.org/1999/xlink" xml:space="preserve" onload="init(evt)">
<style type="text/css"><![CDATA[
.edge:hover path { stroke: red; }
.edge:hover polygon { stroke: red; fill: red; }
]]></style>
<script type="text/javascript"><![CDATA[
var edges = document.getElementsByTagName('g');
if (edges && edges.length) {
  for (var i=0;i<edges.length;i++) {
    if (edges[i].id.substr(0,4)=='edge') {
      edges[i].setAttribute('class','edge');
    }
  }
}
]]></script>
        <defs>
                <circle id="rim" cx="0" cy="0" r="7"/>
                <circle id="rim2" cx="0" cy="0" r="3.5"/>
                <g id="zoomPlus">
                        <use xlink:href="#rim" fill="#404040">
                                <set attributeName="fill" to="#808080" begin="zoomplus.mouseover" end="zoomplus.mouseout"/>
                        </use>
                        <path d="M-4,0h8M0,-4v8" fill="none" stroke="white" stroke-width="1.5" pointer-events="none"/>
                </g>
                <g id="zoomMin">
                        <use xlink:href="#rim" fill="#404040">
                                <set attributeName="fill" to="#808080" begin="zoomminus.mouseover" end="zoomminus.mouseout"/>
                        </use>
                        <path d="M-4,0h8" fill="none" stroke="white" stroke-width="1.5" pointer-events="none"/>
                </g>
                <g id="dirArrow">
                        <path fill="none" stroke="white" stroke-width="1.5" d="M0,-3.0v7 M-2.5,-0.5L0,-3.0L2.5,-0.5"/>
                </g>
               <g id="resetDef">
                       <use xlink:href="#rim2" fill="#404040">
                               <set attributeName="fill" to="#808080" begin="reset.mouseover" end="reset.mouseout"/>
                       </use>
               </g>
        </defs>

<script type="text/javascript">
var viewWidth = 625;
var viewHeight = 180;
var sectionId = 'dynsection-10';
</script>
<script xlink:href="svgpan.js"/>
<svg id="graph" class="graph">
<g id="viewport">
<title>FMBiGainCalc::__modify_gain</title>
<polygon fill="#ffffff" stroke="transparent" points="-4,4 -4,-176 621,-176 621,4 -4,4"/>
<!-- Node59 -->
<g id="node1" class="node">
<title>Node59</title>
<polygon fill="#bfbfbf" stroke="#000000" points="0,-98 0,-117 149,-117 149,-98 0,-98"/>
<text text-anchor="middle" x="74.5" y="-105" font-family="Helvetica,sans-Serif" font-size="10.00" fill="#000000">FMBiGainCalc::__modify_gain</text>
</g>
<!-- Node60 -->
<g id="node2" class="node">
<title>Node60</title>
<g id="a_node2"><a xlink:href="classFMBiGainCalc.html#abbd6ac04a41b52d6853a97b497648a2d" target="_top" xlink:title="FMBiGainCalc::__init_gain">
<polygon fill="#ffffff" stroke="#000000" points="185,-51 185,-70 318,-70 318,-51 185,-51"/>
<text text-anchor="middle" x="251.5" y="-58" font-family="Helvetica,sans-Serif" font-size="10.00" fill="#000000">FMBiGainCalc::__init_gain</text>
</a>
</g>
</g>
<!-- Node59&#45;&gt;Node60 -->
<g id="edge1" class="edge">
<title>Node59&#45;&gt;Node60</title>
<path fill="none" stroke="#191970" d="M110.3186,-97.9888C137.8177,-90.6868 175.9862,-80.5517 205.7045,-72.6604"/>
<polygon fill="#191970" stroke="#191970" points="206.6646,-76.0268 215.4314,-70.0776 204.868,-69.2613 206.6646,-76.0268"/>
</g>
<!-- Node61 -->
<g id="node3" class="node">
<title>Node61</title>
<g id="a_node3"><a xlink:href="classFMBiGainCalc.html#a4b0fdc3f966eac6ec55e73ffe2a792cd" target="_top" xlink:title="FMBiGainCalc::__init\l_gain_2pin_net">
<polygon fill="#ffffff" stroke="#000000" points="354,-141.5 354,-171.5 464,-171.5 464,-141.5 354,-141.5"/>
<text text-anchor="start" x="362" y="-159.5" font-family="Helvetica,sans-Serif" font-size="10.00" fill="#000000">FMBiGainCalc::__init</text>
<text text-anchor="middle" x="409" y="-148.5" font-family="Helvetica,sans-Serif" font-size="10.00" fill="#000000">_gain_2pin_net</text>
</a>
</g>
</g>
<!-- Node59&#45;&gt;Node61 -->
<g id="edge14" class="edge">
<title>Node59&#45;&gt;Node61</title>
<path fill="none" stroke="#191970" d="M149.2254,-115.116C161.158,-117.3615 173.3938,-119.6224 185,-121.5 238.0649,-130.0845 298.6449,-136.9398 343.4137,-142.84"/>
<polygon fill="#191970" stroke="#191970" points="343.2003,-146.3426 353.5766,-144.2017 344.13,-139.4046 343.2003,-146.3426"/>
</g>
<!-- Node64 -->
<g id="node6" class="node">
<title>Node64</title>
<g id="a_node6"><a xlink:href="classFMBiGainCalc.html#ab361da1d43c28b7f61f0a47c72e6cdb2" target="_top" xlink:title="FMBiGainCalc::__init\l_gain_3pin_net">
<polygon fill="#ffffff" stroke="#000000" points="354,-92.5 354,-122.5 464,-122.5 464,-92.5 354,-92.5"/>
<text text-anchor="start" x="362" y="-110.5" font-family="Helvetica,sans-Serif" font-size="10.00" fill="#000000">FMBiGainCalc::__init</text>
<text text-anchor="middle" x="409" y="-99.5" font-family="Helvetica,sans-Serif" font-size="10.00" fill="#000000">_gain_3pin_net</text>
</a>
</g>
</g>
<!-- Node59&#45;&gt;Node64 -->
<g id="edge15" class="edge">
<title>Node59&#45;&gt;Node64</title>
<path fill="none" stroke="#191970" d="M149.152,-101.7697C207.5197,-100.3317 287.8582,-100.4146 343.6919,-102.0185"/>
<polygon fill="#191970" stroke="#191970" points="343.7166,-105.5209 353.8213,-102.3356 343.9357,-98.5243 343.7166,-105.5209"/>
</g>
<!-- Node65 -->
<g id="node7" class="node">
<title>Node65</title>
<g id="a_node7"><a xlink:href="classFMBiGainCalc.html#a7e02f8ebebb3be0cfb183f2cfd6692c8" target="_top" xlink:title="FMBiGainCalc::__init\l_gain_general_net">
<polygon fill="#ffffff" stroke="#000000" points="354,-.5 354,-30.5 464,-30.5 464,-.5 354,-.5"/>
<text text-anchor="start" x="362" y="-18.5" font-family="Helvetica,sans-Serif" font-size="10.00" fill="#000000">FMBiGainCalc::__init</text>
<text text-anchor="middle" x="409" y="-7.5" font-family="Helvetica,sans-Serif" font-size="10.00" fill="#000000">_gain_general_net</text>
</a>
</g>
</g>
<!-- Node59&#45;&gt;Node65 -->
<g id="edge16" class="edge">
<title>Node59&#45;&gt;Node65</title>
<path fill="none" stroke="#191970" d="M80.982,-97.8034C97.2938,-80.3587 141.8306,-47.1415 185,-32.5 236.5307,-15.0227 298.1345,-8.8592 343.684,-8.3164"/>
<polygon fill="#191970" stroke="#191970" points="343.7422,-11.8163 353.732,-8.2872 343.7218,-4.8164 343.7422,-11.8163"/>
</g>
<!-- Node60&#45;&gt;Node61 -->
<g id="edge2" class="edge">
<title>Node60&#45;&gt;Node61</title>
<path fill="none" stroke="#191970" d="M263.5929,-70.2104C282.2448,-84.9005 319.4947,-113.1126 354,-132.5 356.8156,-134.082 359.7558,-135.6328 362.7492,-137.1367"/>
<polygon fill="#191970" stroke="#191970" points="361.2876,-140.3175 371.8171,-141.4924 364.3185,-134.0076 361.2876,-140.3175"/>
</g>
<!-- Node60&#45;&gt;Node64 -->
<g id="edge6" class="edge">
<title>Node60&#45;&gt;Node64</title>
<path fill="none" stroke="#191970" d="M283.3725,-70.0112C302.1644,-75.6189 326.5557,-82.8976 348.8405,-89.5476"/>
<polygon fill="#191970" stroke="#191970" points="347.9871,-92.9454 358.5704,-92.4512 349.9888,-86.2377 347.9871,-92.9454"/>
</g>
<!-- Node60&#45;&gt;Node65 -->
<g id="edge10" class="edge">
<title>Node60&#45;&gt;Node65</title>
<path fill="none" stroke="#191970" d="M284.9017,-50.9567C302.8308,-45.834 325.5173,-39.3522 346.5748,-33.3358"/>
<polygon fill="#191970" stroke="#191970" points="347.7779,-36.6322 356.4316,-30.5195 345.8548,-29.9015 347.7779,-36.6322"/>
</g>
<!-- Node66 -->
<g id="node8" class="node">
<title>Node66</title>
<g id="a_node8"><a xlink:href="classxn_1_1Graph.html#a8190f6d88f8933f798828d8e063d6b12" target="_top" xlink:title="xn::Graph::degree">
<polygon fill="#ffffff" stroke="#000000" points="361.5,-51 361.5,-70 456.5,-70 456.5,-51 361.5,-51"/>
<text text-anchor="middle" x="409" y="-58" font-family="Helvetica,sans-Serif" font-size="10.00" fill="#000000">xn::Graph::degree</text>
</a>
</g>
</g>
<!-- Node60&#45;&gt;Node66 -->
<g id="edge13" class="edge">
<title>Node60&#45;&gt;Node66</title>
<path fill="none" stroke="#191970" d="M318.2942,-60.5C329.2223,-60.5 340.465,-60.5 351.1538,-60.5"/>
<polygon fill="#191970" stroke="#191970" points="351.2037,-64.0001 361.2037,-60.5 351.2037,-57.0001 351.2037,-64.0001"/>
</g>
<!-- Node61&#45;&gt;Node59 -->
<g id="edge3" class="edge">
<title>Node61&#45;&gt;Node59</title>
<path fill="none" stroke="#191970" d="M353.5766,-158.7237C308.1283,-155.9973 242.1983,-148.7532 185,-139.5 155.2757,-134.6914 121.4222,-127.3686 99.1064,-120.336"/>
<polygon fill="#191970" stroke="#191970" points="100.0287,-116.9525 89.4342,-117.0277 97.7632,-123.5758 100.0287,-116.9525"/>
</g>
<!-- Node62 -->
<g id="node4" class="node">
<title>Node62</title>
<g id="a_node4"><a xlink:href="classxn_1_1Graph.html#a0eb06caefea5f60a5156e15662123d2f" target="_top" xlink:title="Iterate over the nodes. ">
<polygon fill="#ffffff" stroke="#000000" points="514,-141 514,-160 603,-160 603,-141 514,-141"/>
<text text-anchor="middle" x="558.5" y="-148" font-family="Helvetica,sans-Serif" font-size="10.00" fill="#000000">xn::Graph::begin</text>
</a>
</g>
</g>
<!-- Node61&#45;&gt;Node62 -->
<g id="edge4" class="edge">
<title>Node61&#45;&gt;Node62</title>
<path fill="none" stroke="#191970" d="M464.2435,-154.2829C477.1075,-153.7666 490.8001,-153.2171 503.6471,-152.7015"/>
<polygon fill="#191970" stroke="#191970" points="503.8853,-156.1948 513.7369,-152.2965 503.6045,-149.2004 503.8853,-156.1948"/>
</g>
<!-- Node63 -->
<g id="node5" class="node">
<title>Node63</title>
<g id="a_node5"><a xlink:href="structNetlist.html#ab287e126909a3ec4828aa8b918278dc7" target="_top" xlink:title="Netlist::get_net_weight">
<polygon fill="#ffffff" stroke="#000000" points="500,-98 500,-117 617,-117 617,-98 500,-98"/>
<text text-anchor="middle" x="558.5" y="-105" font-family="Helvetica,sans-Serif" font-size="10.00" fill="#000000">Netlist::get_net_weight</text>
</a>
</g>
</g>
<!-- Node61&#45;&gt;Node63 -->
<g id="edge5" class="edge">
<title>Node61&#45;&gt;Node63</title>
<path fill="none" stroke="#191970" d="M455.0748,-141.3986C475.772,-134.6149 499.9263,-126.6981 519.6849,-120.222"/>
<polygon fill="#191970" stroke="#191970" points="520.8728,-123.5159 529.2853,-117.0754 518.6925,-116.8641 520.8728,-123.5159"/>
</g>
<!-- Node64&#45;&gt;Node59 -->
<g id="edge7" class="edge">
<title>Node64&#45;&gt;Node59</title>
<path fill="none" stroke="#191970" d="M353.8213,-112.6644C300.8906,-114.4687 220.2204,-114.7331 159.1593,-113.4576"/>
<polygon fill="#191970" stroke="#191970" points="159.2289,-109.9584 149.152,-113.2303 159.0699,-116.9566 159.2289,-109.9584"/>
</g>
<!-- Node64&#45;&gt;Node62 -->
<g id="edge8" class="edge">
<title>Node64&#45;&gt;Node62</title>
<path fill="none" stroke="#191970" d="M461.2878,-122.5393C479.0255,-127.6411 498.6235,-133.278 515.5483,-138.146"/>
<polygon fill="#191970" stroke="#191970" points="514.5923,-141.5129 525.1702,-140.9135 516.5273,-134.7856 514.5923,-141.5129"/>
</g>
<!-- Node64&#45;&gt;Node63 -->
<g id="edge9" class="edge">
<title>Node64&#45;&gt;Node63</title>
<path fill="none" stroke="#191970" d="M464.2435,-107.5C472.6133,-107.5 481.3339,-107.5 489.9441,-107.5"/>
<polygon fill="#191970" stroke="#191970" points="489.9734,-111.0001 499.9734,-107.5 489.9733,-104.0001 489.9734,-111.0001"/>
</g>
<!-- Node65&#45;&gt;Node59 -->
<g id="edge11" class="edge">
<title>Node65&#45;&gt;Node59</title>
<path fill="none" stroke="#191970" d="M353.732,-22.7023C307.5103,-25.9916 240.428,-31.7009 185,-50.5 155.7442,-60.4225 125.8605,-78.8763 104.5593,-92.3356"/>
<polygon fill="#191970" stroke="#191970" points="102.5642,-89.4561 95.9825,-97.7587 106.3052,-95.3726 102.5642,-89.4561"/>
</g>
<!-- Node65&#45;&gt;Node63 -->
<g id="edge12" class="edge">
<title>Node65&#45;&gt;Node63</title>
<path fill="none" stroke="#191970" d="M443.2009,-30.5735C450.1936,-33.9585 457.422,-37.6844 464,-41.5 490.5994,-56.9292 519.3146,-77.6154 538.0218,-91.6885"/>
<polygon fill="#191970" stroke="#191970" points="536.0281,-94.5693 546.1086,-97.8301 540.2617,-88.9947 536.0281,-94.5693"/>
</g>
</g>
</svg>
        <g id="navigator" transform="translate(0 0)" fill="#404254">
                <rect fill="#f2f5e9" fill-opacity="0.5" stroke="#606060" stroke-width=".5" x="0" y="0" width="60" height="60"/>
                <use id="zoomplus" xlink:href="#zoomPlus" x="17" y="9" onmousedown="handleZoom(evt,'in')"/>
                <use id="zoomminus" xlink:href="#zoomMin" x="42" y="9" onmousedown="handleZoom(evt,'out')"/>
                <use id="reset" xlink:href="#resetDef" x="30" y="36" onmousedown="handleReset()"/>
                <g id="arrowUp" xlink:href="#dirArrow" transform="translate(30 24)" onmousedown="handlePan(0,-1)">
                  <use xlink:href="#rim" fill="#404040">
                        <set attributeName="fill" to="#808080" begin="arrowUp.mouseover" end="arrowUp.mouseout"/>
                  </use>
                  <path fill="none" stroke="white" stroke-width="1.5" d="M0,-3.0v7 M-2.5,-0.5L0,-3.0L2.5,-0.5"/>
                </g>
                <g id="arrowRight" xlink:href="#dirArrow" transform="rotate(90) translate(36 -43)" onmousedown="handlePan(1,0)">
                  <use xlink:href="#rim" fill="#404040">
                        <set attributeName="fill" to="#808080" begin="arrowRight.mouseover" end="arrowRight.mouseout"/>
                  </use>
                  <path fill="none" stroke="white" stroke-width="1.5" d="M0,-3.0v7 M-2.5,-0.5L0,-3.0L2.5,-0.5"/>
                </g>
                <g id="arrowDown" xlink:href="#dirArrow" transform="rotate(180) translate(-30 -48)" onmousedown="handlePan(0,1)">
                  <use xlink:href="#rim" fill="#404040">
                        <set attributeName="fill" to="#808080" begin="arrowDown.mouseover" end="arrowDown.mouseout"/>
                  </use>
                  <path fill="none" stroke="white" stroke-width="1.5" d="M0,-3.0v7 M-2.5,-0.5L0,-3.0L2.5,-0.5"/>
                </g>
                <g id="arrowLeft" xlink:href="#dirArrow" transform="rotate(270) translate(-36 17)" onmousedown="handlePan(-1,0)">
                  <use xlink:href="#rim" fill="#404040">
                        <set attributeName="fill" to="#808080" begin="arrowLeft.mouseover" end="arrowLeft.mouseout"/>
                  </use>
                  <path fill="none" stroke="white" stroke-width="1.5" d="M0,-3.0v7 M-2.5,-0.5L0,-3.0L2.5,-0.5"/>
                </g>
        </g>
        <svg viewBox="0 0 15 15" width="100%" height="30px" preserveAspectRatio="xMaxYMin meet">
         <g id="arrow_out" transform="scale(0.3 0.3)">
          <a xlink:href="classFMBiGainCalc_a332d9e85ed21f3e25122a8bb9660739b_cgraph_org.svg" target="_base">
           <rect id="button" ry="5" rx="5" y="6" x="6" height="38" width="38"
                fill="#f2f5e9" fill-opacity="0.5" stroke="#606060" stroke-width="1.0"/>
           <path id="arrow"
             d="M 11.500037,31.436501 C 11.940474,20.09759 22.043105,11.32322 32.158766,21.979434 L 37.068811,17.246167 C 37.068811,17.246167 37.088388,32 37.088388,32 L 22.160133,31.978069 C 22.160133,31.978069 26.997745,27.140456 26.997745,27.140456 C 18.528582,18.264221 13.291696,25.230495 11.500037,31.436501 z"
             style="fill:#404040;"/>
          </a>
         </g>
        </svg>
</svg>
