<?xml version="1.0" encoding="UTF-8" standalone="no"?>
<!DOCTYPE svg PUBLIC "-//W3C//DTD SVG 1.1//EN"
 "http://www.w3.org/Graphics/SVG/1.1/DTD/svg11.dtd">
<!-- Generated by graphviz version 2.40.1 (20161225.0304)
 -->
<!-- Title: itertest::SolidInt::operator= Pages: 1 -->
<svg width="370pt" height="102pt"
 viewBox="0.00 0.00 370.00 101.50" xmlns="http://www.w3.org/2000/svg" xmlns:xlink="http://www.w3.org/1999/xlink">
<g id="graph0" class="graph" transform="scale(1 1) rotate(0) translate(4 97.5)">
<title>itertest::SolidInt::operator=</title>
<polygon fill="#ffffff" stroke="transparent" points="-4,4 -4,-97.5 366,-97.5 366,4 -4,4"/>
<!-- Node18 -->
<g id="node1" class="node">
<title>Node18</title>
<polygon fill="#bfbfbf" stroke="#000000" points="0,-38 0,-68 86,-68 86,-38 0,-38"/>
<text text-anchor="start" x="8" y="-56" font-family="Helvetica,sans-Serif" font-size="10.00" fill="#000000">itertest::SolidInt</text>
<text text-anchor="middle" x="43" y="-45" font-family="Helvetica,sans-Serif" font-size="10.00" fill="#000000">::operator=</text>
</g>
<!-- Node19 -->
<g id="node2" class="node">
<title>Node19</title>
<g id="a_node2"><a xlink:href="classitertest_1_1BasicIterable.html#a65076e0f9e7408f92411218dbcd73c6e" target="_top" xlink:title="itertest::BasicIterable\l::BasicIterable">
<polygon fill="#ffffff" stroke="#000000" points="122,-63 122,-93 232,-93 232,-63 122,-63"/>
<text text-anchor="start" x="130" y="-81" font-family="Helvetica,sans-Serif" font-size="10.00" fill="#000000">itertest::BasicIterable</text>
<text text-anchor="middle" x="177" y="-70" font-family="Helvetica,sans-Serif" font-size="10.00" fill="#000000">::BasicIterable</text>
</a>
</g>
</g>
<!-- Node18&#45;&gt;Node19 -->
<g id="edge1" class="edge">
<title>Node18&#45;&gt;Node19</title>
<path fill="none" stroke="#191970" d="M96.1802,-62.9217C104.5682,-64.4866 113.2583,-66.1079 121.6932,-67.6816"/>
<polygon fill="#191970" stroke="#191970" points="96.6084,-59.4412 86.136,-61.0478 95.3245,-66.3225 96.6084,-59.4412"/>
</g>
<!-- Node20 -->
<g id="node3" class="node">
<title>Node20</title>
<g id="a_node3"><a xlink:href="classitertest_1_1SolidInt.html#a5fec593b0b5c033f98bbdf33a6f4dd08" target="_top" xlink:title="itertest::SolidInt\l::getint">
<polygon fill="#ffffff" stroke="#000000" points="134,-14 134,-44 220,-44 220,-14 134,-14"/>
<text text-anchor="start" x="142" y="-32" font-family="Helvetica,sans-Serif" font-size="10.00" fill="#000000">itertest::SolidInt</text>
<text text-anchor="middle" x="177" y="-21" font-family="Helvetica,sans-Serif" font-size="10.00" fill="#000000">::getint</text>
</a>
</g>
</g>
<!-- Node18&#45;&gt;Node20 -->
<g id="edge2" class="edge">
<title>Node18&#45;&gt;Node20</title>
<path fill="none" stroke="#191970" d="M96.0382,-43.5006C108.6138,-41.2483 121.8761,-38.8729 133.9448,-36.7114"/>
<polygon fill="#191970" stroke="#191970" points="95.3623,-40.0659 86.136,-45.2741 96.5965,-46.9562 95.3623,-40.0659"/>
</g>
<!-- Node21 -->
<g id="node4" class="node">
<title>Node21</title>
<g id="a_node4"><a xlink:href="namespaceitertest.html#a6cab94fd74daa7551d8105b57b7701cd" target="_top" xlink:title="itertest::operator\&lt;">
<polygon fill="#ffffff" stroke="#000000" points="268,-38.5 268,-57.5 362,-57.5 362,-38.5 268,-38.5"/>
<text text-anchor="middle" x="315" y="-45.5" font-family="Helvetica,sans-Serif" font-size="10.00" fill="#000000">itertest::operator&lt;</text>
</a>
</g>
</g>
<!-- Node20&#45;&gt;Node21 -->
<g id="edge3" class="edge">
<title>Node20&#45;&gt;Node21</title>
<path fill="none" stroke="#191970" d="M230.3772,-36.349C242.6287,-38.0358 255.5738,-39.8181 267.555,-41.4677"/>
<polygon fill="#191970" stroke="#191970" points="230.6694,-32.8563 220.2854,-34.9596 229.7146,-39.7909 230.6694,-32.8563"/>
</g>
<!-- Node22 -->
<g id="node5" class="node">
<title>Node22</title>
<g id="a_node5"><a xlink:href="test__filter_8cpp.html#aa22faf0bd377475184caf304f70bed66" target="_top" xlink:title="TEST_CASE">
<polygon fill="#ffffff" stroke="#000000" points="277.5,-.5 277.5,-19.5 352.5,-19.5 352.5,-.5 277.5,-.5"/>
<text text-anchor="middle" x="315" y="-7.5" font-family="Helvetica,sans-Serif" font-size="10.00" fill="#000000">TEST_CASE</text>
</a>
</g>
</g>
<!-- Node20&#45;&gt;Node22 -->
<g id="edge4" class="edge">
<title>Node20&#45;&gt;Node22</title>
<path fill="none" stroke="#191970" d="M230.4082,-21.6467C246.1174,-19.4838 262.9644,-17.1643 277.4561,-15.1691"/>
<polygon fill="#191970" stroke="#191970" points="229.7146,-18.2091 220.2854,-23.0404 230.6694,-25.1437 229.7146,-18.2091"/>
</g>
</g>
</svg>
