<?xml version="1.0" encoding="UTF-8" standalone="no"?>
<!DOCTYPE svg PUBLIC "-//W3C//DTD SVG 1.1//EN"
 "http://www.w3.org/Graphics/SVG/1.1/DTD/svg11.dtd">
<!-- Generated by graphviz version 2.40.1 (20161225.0304)
 -->
<!-- Title: iter::impl::Chunker::Iterator::refill_chunk Pages: 1 -->
<svg width="260pt" height="88pt"
 viewBox="0.00 0.00 260.00 88.00" xmlns="http://www.w3.org/2000/svg" xmlns:xlink="http://www.w3.org/1999/xlink">
<g id="graph0" class="graph" transform="scale(1 1) rotate(0) translate(4 84)">
<title>iter::impl::Chunker::Iterator::refill_chunk</title>
<polygon fill="#ffffff" stroke="transparent" points="-4,4 -4,-84 256,-84 256,4 -4,4"/>
<!-- Node26 -->
<g id="node1" class="node">
<title>Node26</title>
<polygon fill="#bfbfbf" stroke="#000000" points="0,-24.5 0,-54.5 109,-54.5 109,-24.5 0,-24.5"/>
<text text-anchor="start" x="8" y="-42.5" font-family="Helvetica,sans-Serif" font-size="10.00" fill="#000000">iter::impl::Chunker</text>
<text text-anchor="middle" x="54.5" y="-31.5" font-family="Helvetica,sans-Serif" font-size="10.00" fill="#000000">::Iterator::refill_chunk</text>
</g>
<!-- Node27 -->
<g id="node2" class="node">
<title>Node27</title>
<g id="a_node2"><a xlink:href="classiter_1_1impl_1_1Chunker_1_1Iterator.html#a4e9c1c7e4dff42939b0159be2eb6a6d9" target="_top" xlink:title="iter::impl::Chunker\l::Iterator::Iterator">
<polygon fill="#ffffff" stroke="#000000" points="150,-49.5 150,-79.5 247,-79.5 247,-49.5 150,-49.5"/>
<text text-anchor="start" x="158" y="-67.5" font-family="Helvetica,sans-Serif" font-size="10.00" fill="#000000">iter::impl::Chunker</text>
<text text-anchor="middle" x="198.5" y="-56.5" font-family="Helvetica,sans-Serif" font-size="10.00" fill="#000000">::Iterator::Iterator</text>
</a>
</g>
</g>
<!-- Node26&#45;&gt;Node27 -->
<g id="edge1" class="edge">
<title>Node26&#45;&gt;Node27</title>
<path fill="none" stroke="#191970" d="M119.4913,-50.7832C129.7261,-52.5601 140.1517,-54.3701 149.9301,-56.0677"/>
<polygon fill="#191970" stroke="#191970" points="119.8023,-47.2849 109.351,-49.0227 118.6049,-54.1818 119.8023,-47.2849"/>
</g>
<!-- Node28 -->
<g id="node3" class="node">
<title>Node28</title>
<g id="a_node3"><a xlink:href="classiter_1_1impl_1_1Chunker_1_1Iterator.html#ad05a6af66a8d486958f3d68b343d11d0" target="_top" xlink:title="iter::impl::Chunker\l::Iterator::operator++">
<polygon fill="#ffffff" stroke="#000000" points="145,-.5 145,-30.5 252,-30.5 252,-.5 145,-.5"/>
<text text-anchor="start" x="153" y="-18.5" font-family="Helvetica,sans-Serif" font-size="10.00" fill="#000000">iter::impl::Chunker</text>
<text text-anchor="middle" x="198.5" y="-7.5" font-family="Helvetica,sans-Serif" font-size="10.00" fill="#000000">::Iterator::operator++</text>
</a>
</g>
</g>
<!-- Node26&#45;&gt;Node28 -->
<g id="edge2" class="edge">
<title>Node26&#45;&gt;Node28</title>
<path fill="none" stroke="#191970" d="M119.2628,-28.7062C127.7844,-27.2859 136.4426,-25.8429 144.7533,-24.4578"/>
<polygon fill="#191970" stroke="#191970" points="118.6395,-25.2617 109.351,-30.3582 119.7904,-32.1665 118.6395,-25.2617"/>
</g>
</g>
</svg>
