<?xml version="1.0" encoding="UTF-8" standalone="no"?>
<!DOCTYPE svg PUBLIC "-//W3C//DTD SVG 1.1//EN"
 "http://www.w3.org/Graphics/SVG/1.1/DTD/svg11.dtd">
<!-- Generated by graphviz version 2.40.1 (20161225.0304)
 -->
<!-- Title: iter::impl::Taker::Iterator::check_current Pages: 1 -->
<svg width="260pt" height="88pt"
 viewBox="0.00 0.00 260.00 88.00" xmlns="http://www.w3.org/2000/svg" xmlns:xlink="http://www.w3.org/1999/xlink">
<g id="graph0" class="graph" transform="scale(1 1) rotate(0) translate(4 84)">
<title>iter::impl::Taker::Iterator::check_current</title>
<polygon fill="#ffffff" stroke="transparent" points="-4,4 -4,-84 256,-84 256,4 -4,4"/>
<!-- Node7 -->
<g id="node1" class="node">
<title>Node7</title>
<polygon fill="#bfbfbf" stroke="#000000" points="0,-24.5 0,-54.5 115,-54.5 115,-24.5 0,-24.5"/>
<text text-anchor="start" x="8" y="-42.5" font-family="Helvetica,sans-Serif" font-size="10.00" fill="#000000">iter::impl::Taker::</text>
<text text-anchor="middle" x="57.5" y="-31.5" font-family="Helvetica,sans-Serif" font-size="10.00" fill="#000000">Iterator::check_current</text>
</g>
<!-- Node8 -->
<g id="node2" class="node">
<title>Node8</title>
<g id="a_node2"><a xlink:href="classiter_1_1impl_1_1Taker_1_1Iterator.html#ae682d7c4d4bd2533620f5a3881d170c7" target="_top" xlink:title="iter::impl::Taker::\lIterator::Iterator">
<polygon fill="#ffffff" stroke="#000000" points="156,-49.5 156,-79.5 247,-79.5 247,-49.5 156,-49.5"/>
<text text-anchor="start" x="164" y="-67.5" font-family="Helvetica,sans-Serif" font-size="10.00" fill="#000000">iter::impl::Taker::</text>
<text text-anchor="middle" x="201.5" y="-56.5" font-family="Helvetica,sans-Serif" font-size="10.00" fill="#000000">Iterator::Iterator</text>
</a>
</g>
</g>
<!-- Node7&#45;&gt;Node8 -->
<g id="edge1" class="edge">
<title>Node7&#45;&gt;Node8</title>
<path fill="none" stroke="#191970" d="M125.1125,-51.2383C135.4774,-53.0377 145.9639,-54.8583 155.7087,-56.5501"/>
<polygon fill="#191970" stroke="#191970" points="125.6919,-47.7866 115.2406,-49.5244 124.4945,-54.6834 125.6919,-47.7866"/>
</g>
<!-- Node9 -->
<g id="node3" class="node">
<title>Node9</title>
<g id="a_node3"><a xlink:href="classiter_1_1impl_1_1Taker_1_1Iterator.html#a03b32ee18e52d575954849f50a6ccdb4" target="_top" xlink:title="iter::impl::Taker::\lIterator::operator++">
<polygon fill="#ffffff" stroke="#000000" points="151,-.5 151,-30.5 252,-30.5 252,-.5 151,-.5"/>
<text text-anchor="start" x="159" y="-18.5" font-family="Helvetica,sans-Serif" font-size="10.00" fill="#000000">iter::impl::Taker::</text>
<text text-anchor="middle" x="201.5" y="-7.5" font-family="Helvetica,sans-Serif" font-size="10.00" fill="#000000">Iterator::operator++</text>
</a>
</g>
</g>
<!-- Node7&#45;&gt;Node9 -->
<g id="edge2" class="edge">
<title>Node7&#45;&gt;Node9</title>
<path fill="none" stroke="#191970" d="M125.2393,-28.2101C133.8133,-26.7811 142.4681,-25.3387 150.7152,-23.9641"/>
<polygon fill="#191970" stroke="#191970" points="124.5291,-24.7801 115.2406,-29.8766 125.68,-31.6849 124.5291,-24.7801"/>
</g>
</g>
</svg>
