<?xml version="1.0" encoding="UTF-8" standalone="no"?>
<!DOCTYPE svg PUBLIC "-//W3C//DTD SVG 1.1//EN"
 "http://www.w3.org/Graphics/SVG/1.1/DTD/svg11.dtd">
<!-- Generated by graphviz version 2.40.1 (20161225.0304)
 -->
<!-- Title: iter::impl::Zipped::end Pages: 1 -->
<svg width="521pt" height="88pt"
 viewBox="0.00 0.00 521.00 88.00" xmlns="http://www.w3.org/2000/svg" xmlns:xlink="http://www.w3.org/1999/xlink">
<g id="graph0" class="graph" transform="scale(1 1) rotate(0) translate(4 84)">
<title>iter::impl::Zipped::end</title>
<polygon fill="#ffffff" stroke="transparent" points="-4,4 -4,-84 517,-84 517,4 -4,4"/>
<!-- Node12 -->
<g id="node1" class="node">
<title>Node12</title>
<polygon fill="#bfbfbf" stroke="#000000" points="0,-30 0,-49 111,-49 111,-30 0,-30"/>
<text text-anchor="middle" x="55.5" y="-37" font-family="Helvetica,sans-Serif" font-size="10.00" fill="#000000">iter::impl::Zipped::end</text>
</g>
<!-- Node13 -->
<g id="node2" class="node">
<title>Node13</title>
<g id="a_node2"><a xlink:href="namespaceiter_1_1impl_1_1get__iters.html#a33bba16eb5615048756ebb04c94629bd" target="_top" xlink:title="iter::impl::get_iters\l::get_end">
<polygon fill="#ffffff" stroke="#000000" points="147,-24.5 147,-54.5 245,-54.5 245,-24.5 147,-24.5"/>
<text text-anchor="start" x="155" y="-42.5" font-family="Helvetica,sans-Serif" font-size="10.00" fill="#000000">iter::impl::get_iters</text>
<text text-anchor="middle" x="196" y="-31.5" font-family="Helvetica,sans-Serif" font-size="10.00" fill="#000000">::get_end</text>
</a>
</g>
</g>
<!-- Node12&#45;&gt;Node13 -->
<g id="edge1" class="edge">
<title>Node12&#45;&gt;Node13</title>
<path fill="none" stroke="#191970" d="M111.0293,-39.5C119.4271,-39.5 128.1188,-39.5 136.5947,-39.5"/>
<polygon fill="#191970" stroke="#191970" points="136.7921,-43.0001 146.7921,-39.5 136.792,-36.0001 136.7921,-43.0001"/>
</g>
<!-- Node14 -->
<g id="node3" class="node">
<title>Node14</title>
<g id="a_node3"><a xlink:href="namespaceiter_1_1impl_1_1get__iters.html#a4195fc28d6c53e02d7cb825ce26d75d5" target="_top" xlink:title="iter::impl::get_iters\l::get_end_impl">
<polygon fill="#ffffff" stroke="#000000" points="281,-49.5 281,-79.5 379,-79.5 379,-49.5 281,-49.5"/>
<text text-anchor="start" x="289" y="-67.5" font-family="Helvetica,sans-Serif" font-size="10.00" fill="#000000">iter::impl::get_iters</text>
<text text-anchor="middle" x="330" y="-56.5" font-family="Helvetica,sans-Serif" font-size="10.00" fill="#000000">::get_end_impl</text>
</a>
</g>
</g>
<!-- Node13&#45;&gt;Node14 -->
<g id="edge2" class="edge">
<title>Node13&#45;&gt;Node14</title>
<path fill="none" stroke="#191970" d="M245.1358,-48.6671C253.5109,-50.2296 262.2877,-51.8671 270.8887,-53.4718"/>
<polygon fill="#191970" stroke="#191970" points="270.3979,-56.9405 280.8702,-55.334 271.6817,-50.0592 270.3979,-56.9405"/>
</g>
<!-- Node15 -->
<g id="node4" class="node">
<title>Node15</title>
<g id="a_node4"><a xlink:href="namespaceiter_1_1impl_1_1get__iters.html#ad5958ccc2e23ff7927ae127847a39dbc" target="_top" xlink:title="iter::impl::get_iters\l::get_begin">
<polygon fill="#ffffff" stroke="#000000" points="281,-.5 281,-30.5 379,-30.5 379,-.5 281,-.5"/>
<text text-anchor="start" x="289" y="-18.5" font-family="Helvetica,sans-Serif" font-size="10.00" fill="#000000">iter::impl::get_iters</text>
<text text-anchor="middle" x="330" y="-7.5" font-family="Helvetica,sans-Serif" font-size="10.00" fill="#000000">::get_begin</text>
</a>
</g>
</g>
<!-- Node13&#45;&gt;Node15 -->
<g id="edge3" class="edge">
<title>Node13&#45;&gt;Node15</title>
<path fill="none" stroke="#191970" d="M245.1358,-30.6996C253.5109,-29.1995 262.2877,-27.6276 270.8887,-26.0871"/>
<polygon fill="#191970" stroke="#191970" points="271.6439,-29.5076 280.8702,-24.2994 270.4097,-22.6173 271.6439,-29.5076"/>
</g>
<!-- Node16 -->
<g id="node5" class="node">
<title>Node16</title>
<g id="a_node5"><a xlink:href="namespaceiter_1_1impl_1_1get__iters.html#aa42232a4051a50a8ffd16207aa031ff5" target="_top" xlink:title="iter::impl::get_iters\l::get_begin_impl">
<polygon fill="#ffffff" stroke="#000000" points="415,-.5 415,-30.5 513,-30.5 513,-.5 415,-.5"/>
<text text-anchor="start" x="423" y="-18.5" font-family="Helvetica,sans-Serif" font-size="10.00" fill="#000000">iter::impl::get_iters</text>
<text text-anchor="middle" x="464" y="-7.5" font-family="Helvetica,sans-Serif" font-size="10.00" fill="#000000">::get_begin_impl</text>
</a>
</g>
</g>
<!-- Node15&#45;&gt;Node16 -->
<g id="edge4" class="edge">
<title>Node15&#45;&gt;Node16</title>
<path fill="none" stroke="#191970" d="M379.1358,-15.5C387.4198,-15.5 396.097,-15.5 404.6082,-15.5"/>
<polygon fill="#191970" stroke="#191970" points="404.8702,-19.0001 414.8702,-15.5 404.8701,-12.0001 404.8702,-19.0001"/>
</g>
</g>
</svg>
