<?xml version="1.0" encoding="UTF-8" standalone="no"?>
<!DOCTYPE svg PUBLIC "-//W3C//DTD SVG 1.1//EN"
 "http://www.w3.org/Graphics/SVG/1.1/DTD/svg11.dtd">
<!-- Generated by graphviz version 2.40.1 (20161225.0304)
 -->
<!-- Title: iter::impl::Taker::begin Pages: 1 -->
<svg width="501pt" height="88pt"
 viewBox="0.00 0.00 501.00 88.00" xmlns="http://www.w3.org/2000/svg" xmlns:xlink="http://www.w3.org/1999/xlink">
<g id="graph0" class="graph" transform="scale(1 1) rotate(0) translate(4 84)">
<title>iter::impl::Taker::begin</title>
<polygon fill="#ffffff" stroke="transparent" points="-4,4 -4,-84 497,-84 497,4 -4,4"/>
<!-- Node10 -->
<g id="node1" class="node">
<title>Node10</title>
<polygon fill="#bfbfbf" stroke="#000000" points="0,-27.5 0,-57.5 91,-57.5 91,-27.5 0,-27.5"/>
<text text-anchor="start" x="8" y="-45.5" font-family="Helvetica,sans-Serif" font-size="10.00" fill="#000000">iter::impl::Taker::</text>
<text text-anchor="middle" x="45.5" y="-34.5" font-family="Helvetica,sans-Serif" font-size="10.00" fill="#000000">begin</text>
</g>
<!-- Node11 -->
<g id="node2" class="node">
<title>Node11</title>
<g id="a_node2"><a xlink:href="namespaceiter_1_1impl_1_1get__iters.html#ad5958ccc2e23ff7927ae127847a39dbc" target="_top" xlink:title="iter::impl::get_iters\l::get_begin">
<polygon fill="#ffffff" stroke="#000000" points="261,-49.5 261,-79.5 359,-79.5 359,-49.5 261,-49.5"/>
<text text-anchor="start" x="269" y="-67.5" font-family="Helvetica,sans-Serif" font-size="10.00" fill="#000000">iter::impl::get_iters</text>
<text text-anchor="middle" x="310" y="-56.5" font-family="Helvetica,sans-Serif" font-size="10.00" fill="#000000">::get_begin</text>
</a>
</g>
</g>
<!-- Node10&#45;&gt;Node11 -->
<g id="edge1" class="edge">
<title>Node10&#45;&gt;Node11</title>
<path fill="none" stroke="#191970" d="M91.2704,-46.307C135.443,-49.9811 202.5369,-55.5617 250.7638,-59.573"/>
<polygon fill="#191970" stroke="#191970" points="250.4977,-63.0628 260.7534,-60.4039 251.078,-56.0869 250.4977,-63.0628"/>
</g>
<!-- Node13 -->
<g id="node4" class="node">
<title>Node13</title>
<g id="a_node4"><a xlink:href="namespaceiter_1_1impl_1_1get__iters.html#a33bba16eb5615048756ebb04c94629bd" target="_top" xlink:title="iter::impl::get_iters\l::get_end">
<polygon fill="#ffffff" stroke="#000000" points="127,-5.5 127,-35.5 225,-35.5 225,-5.5 127,-5.5"/>
<text text-anchor="start" x="135" y="-23.5" font-family="Helvetica,sans-Serif" font-size="10.00" fill="#000000">iter::impl::get_iters</text>
<text text-anchor="middle" x="176" y="-12.5" font-family="Helvetica,sans-Serif" font-size="10.00" fill="#000000">::get_end</text>
</a>
</g>
</g>
<!-- Node10&#45;&gt;Node13 -->
<g id="edge3" class="edge">
<title>Node10&#45;&gt;Node13</title>
<path fill="none" stroke="#191970" d="M91.1426,-34.8055C99.3838,-33.4161 108.0852,-31.9492 116.6498,-30.5054"/>
<polygon fill="#191970" stroke="#191970" points="117.3264,-33.9408 126.6054,-28.8271 116.1627,-27.0382 117.3264,-33.9408"/>
</g>
<!-- Node12 -->
<g id="node3" class="node">
<title>Node12</title>
<g id="a_node3"><a xlink:href="namespaceiter_1_1impl_1_1get__iters.html#aa42232a4051a50a8ffd16207aa031ff5" target="_top" xlink:title="iter::impl::get_iters\l::get_begin_impl">
<polygon fill="#ffffff" stroke="#000000" points="395,-49.5 395,-79.5 493,-79.5 493,-49.5 395,-49.5"/>
<text text-anchor="start" x="403" y="-67.5" font-family="Helvetica,sans-Serif" font-size="10.00" fill="#000000">iter::impl::get_iters</text>
<text text-anchor="middle" x="444" y="-56.5" font-family="Helvetica,sans-Serif" font-size="10.00" fill="#000000">::get_begin_impl</text>
</a>
</g>
</g>
<!-- Node11&#45;&gt;Node12 -->
<g id="edge2" class="edge">
<title>Node11&#45;&gt;Node12</title>
<path fill="none" stroke="#191970" d="M359.1358,-64.5C367.4198,-64.5 376.097,-64.5 384.6082,-64.5"/>
<polygon fill="#191970" stroke="#191970" points="384.8702,-68.0001 394.8702,-64.5 384.8701,-61.0001 384.8702,-68.0001"/>
</g>
<!-- Node13&#45;&gt;Node11 -->
<g id="edge5" class="edge">
<title>Node13&#45;&gt;Node11</title>
<path fill="none" stroke="#191970" d="M221.7404,-35.5192C232.1891,-38.9501 243.4073,-42.6337 254.2238,-46.1854"/>
<polygon fill="#191970" stroke="#191970" points="253.4179,-49.6046 264.0108,-49.3991 255.6018,-42.954 253.4179,-49.6046"/>
</g>
<!-- Node14 -->
<g id="node5" class="node">
<title>Node14</title>
<g id="a_node5"><a xlink:href="namespaceiter_1_1impl_1_1get__iters.html#a4195fc28d6c53e02d7cb825ce26d75d5" target="_top" xlink:title="iter::impl::get_iters\l::get_end_impl">
<polygon fill="#ffffff" stroke="#000000" points="261,-.5 261,-30.5 359,-30.5 359,-.5 261,-.5"/>
<text text-anchor="start" x="269" y="-18.5" font-family="Helvetica,sans-Serif" font-size="10.00" fill="#000000">iter::impl::get_iters</text>
<text text-anchor="middle" x="310" y="-7.5" font-family="Helvetica,sans-Serif" font-size="10.00" fill="#000000">::get_end_impl</text>
</a>
</g>
</g>
<!-- Node13&#45;&gt;Node14 -->
<g id="edge4" class="edge">
<title>Node13&#45;&gt;Node14</title>
<path fill="none" stroke="#191970" d="M225.1358,-18.6666C233.4198,-18.3575 242.097,-18.0337 250.6082,-17.7161"/>
<polygon fill="#191970" stroke="#191970" points="251.0077,-21.2037 260.8702,-17.3332 250.7466,-14.2086 251.0077,-21.2037"/>
</g>
</g>
</svg>
