<?xml version="1.0" encoding="UTF-8" standalone="no"?>
<!DOCTYPE svg PUBLIC "-//W3C//DTD SVG 1.1//EN"
 "http://www.w3.org/Graphics/SVG/1.1/DTD/svg11.dtd">
<!-- Generated by graphviz version 2.40.1 (20161225.0304)
 -->
<!-- Title: iter::impl::Permuter::Iterator::operator++ Pages: 1 -->
<!--zoomable 170 -->
<svg id="main" version="1.1" xmlns="http://www.w3.org/2000/svg" xmlns:xlink="http://www.w3.org/1999/xlink" xml:space="preserve" onload="init(evt)">
<style type="text/css"><![CDATA[
.edge:hover path { stroke: red; }
.edge:hover polygon { stroke: red; fill: red; }
]]></style>
<script type="text/javascript"><![CDATA[
var edges = document.getElementsByTagName('g');
if (edges && edges.length) {
  for (var i=0;i<edges.length;i++) {
    if (edges[i].id.substr(0,4)=='edge') {
      edges[i].setAttribute('class','edge');
    }
  }
}
]]></script>
        <defs>
                <circle id="rim" cx="0" cy="0" r="7"/>
                <circle id="rim2" cx="0" cy="0" r="3.5"/>
                <g id="zoomPlus">
                        <use xlink:href="#rim" fill="#404040">
                                <set attributeName="fill" to="#808080" begin="zoomplus.mouseover" end="zoomplus.mouseout"/>
                        </use>
                        <path d="M-4,0h8M0,-4v8" fill="none" stroke="white" stroke-width="1.5" pointer-events="none"/>
                </g>
                <g id="zoomMin">
                        <use xlink:href="#rim" fill="#404040">
                                <set attributeName="fill" to="#808080" begin="zoomminus.mouseover" end="zoomminus.mouseout"/>
                        </use>
                        <path d="M-4,0h8" fill="none" stroke="white" stroke-width="1.5" pointer-events="none"/>
                </g>
                <g id="dirArrow">
                        <path fill="none" stroke="white" stroke-width="1.5" d="M0,-3.0v7 M-2.5,-0.5L0,-3.0L2.5,-0.5"/>
                </g>
               <g id="resetDef">
                       <use xlink:href="#rim2" fill="#404040">
                               <set attributeName="fill" to="#808080" begin="reset.mouseover" end="reset.mouseout"/>
                       </use>
               </g>
        </defs>

<script type="text/javascript">
var viewWidth = 564;
var viewHeight = 170;
var sectionId = 'dynsection-3';
</script>
<script xlink:href="svgpan.js"/>
<svg id="graph" class="graph">
<g id="viewport">
<title>iter::impl::Permuter::Iterator::operator++</title>
<polygon fill="#ffffff" stroke="transparent" points="-4,4 -4,-166 560,-166 560,4 -4,4"/>
<!-- Node16 -->
<g id="node1" class="node">
<title>Node16</title>
<polygon fill="#bfbfbf" stroke="#000000" points="0,-68.5 0,-98.5 107,-98.5 107,-68.5 0,-68.5"/>
<text text-anchor="start" x="8" y="-86.5" font-family="Helvetica,sans-Serif" font-size="10.00" fill="#000000">iter::impl::Permuter</text>
<text text-anchor="middle" x="53.5" y="-75.5" font-family="Helvetica,sans-Serif" font-size="10.00" fill="#000000">::Iterator::operator++</text>
</g>
<!-- Node17 -->
<g id="node2" class="node">
<title>Node17</title>
<g id="a_node2"><a xlink:href="classiter_1_1impl_1_1Permuter_1_1Iterator.html#a9d79f32471695c4f279e013573f63f3f" target="_top" xlink:title="iter::impl::Permuter\l::Iterator::cmp_iters">
<polygon fill="#ffffff" stroke="#000000" points="164.5,-131.5 164.5,-161.5 266.5,-161.5 266.5,-131.5 164.5,-131.5"/>
<text text-anchor="start" x="172.5" y="-149.5" font-family="Helvetica,sans-Serif" font-size="10.00" fill="#000000">iter::impl::Permuter</text>
<text text-anchor="middle" x="215.5" y="-138.5" font-family="Helvetica,sans-Serif" font-size="10.00" fill="#000000">::Iterator::cmp_iters</text>
</a>
</g>
</g>
<!-- Node16&#45;&gt;Node17 -->
<g id="edge1" class="edge">
<title>Node16&#45;&gt;Node17</title>
<path fill="none" stroke="#191970" d="M87.6981,-98.6788C104.2843,-105.8711 124.5633,-114.4171 143,-121.5 148.5734,-123.6411 154.4189,-125.7993 160.2701,-127.9028"/>
<polygon fill="#191970" stroke="#191970" points="159.4808,-131.3363 170.0756,-131.3785 161.8195,-124.7385 159.4808,-131.3363"/>
</g>
<!-- Node18 -->
<g id="node3" class="node">
<title>Node18</title>
<g id="a_node3"><a xlink:href="classiter_1_1impl_1_1IterIterWrapper.html#ad8a8e1bbe3d4f27e77994259ad7e73c9" target="_top" xlink:title="iter::impl::IterIterWrapper::get">
<polygon fill="#ffffff" stroke="#000000" points="143,-93 143,-112 288,-112 288,-93 143,-93"/>
<text text-anchor="middle" x="215.5" y="-100" font-family="Helvetica,sans-Serif" font-size="10.00" fill="#000000">iter::impl::IterIterWrapper::get</text>
</a>
</g>
</g>
<!-- Node16&#45;&gt;Node18 -->
<g id="edge2" class="edge">
<title>Node16&#45;&gt;Node18</title>
<path fill="none" stroke="#191970" d="M107.4437,-89.8267C115.5808,-90.7811 124.1295,-91.7837 132.7051,-92.7895"/>
<polygon fill="#191970" stroke="#191970" points="132.4217,-96.2802 142.7614,-93.9689 133.2372,-89.3278 132.4217,-96.2802"/>
</g>
<!-- Node19 -->
<g id="node4" class="node">
<title>Node19</title>
<g id="a_node4"><a xlink:href="namespaceiter_1_1impl_1_1get__iters.html#ad5958ccc2e23ff7927ae127847a39dbc" target="_top" xlink:title="iter::impl::get_iters\l::get_begin">
<polygon fill="#ffffff" stroke="#000000" points="324,-49.5 324,-79.5 422,-79.5 422,-49.5 324,-49.5"/>
<text text-anchor="start" x="332" y="-67.5" font-family="Helvetica,sans-Serif" font-size="10.00" fill="#000000">iter::impl::get_iters</text>
<text text-anchor="middle" x="373" y="-56.5" font-family="Helvetica,sans-Serif" font-size="10.00" fill="#000000">::get_begin</text>
</a>
</g>
</g>
<!-- Node16&#45;&gt;Node19 -->
<g id="edge3" class="edge">
<title>Node16&#45;&gt;Node19</title>
<path fill="none" stroke="#191970" d="M107.3375,-80.2984C164.4628,-76.9013 254.4738,-71.5485 313.6233,-68.031"/>
<polygon fill="#191970" stroke="#191970" points="314.1554,-71.5056 323.93,-67.4181 313.7398,-64.518 314.1554,-71.5056"/>
</g>
<!-- Node21 -->
<g id="node6" class="node">
<title>Node21</title>
<g id="a_node6"><a xlink:href="namespaceiter_1_1impl_1_1get__iters.html#a33bba16eb5615048756ebb04c94629bd" target="_top" xlink:title="iter::impl::get_iters\l::get_end">
<polygon fill="#ffffff" stroke="#000000" points="166.5,-5.5 166.5,-35.5 264.5,-35.5 264.5,-5.5 166.5,-5.5"/>
<text text-anchor="start" x="174.5" y="-23.5" font-family="Helvetica,sans-Serif" font-size="10.00" fill="#000000">iter::impl::get_iters</text>
<text text-anchor="middle" x="215.5" y="-12.5" font-family="Helvetica,sans-Serif" font-size="10.00" fill="#000000">::get_end</text>
</a>
</g>
</g>
<!-- Node16&#45;&gt;Node21 -->
<g id="edge5" class="edge">
<title>Node16&#45;&gt;Node21</title>
<path fill="none" stroke="#191970" d="M92.303,-68.4099C114.763,-59.6755 143.2283,-48.6057 167.1377,-39.3076"/>
<polygon fill="#191970" stroke="#191970" points="168.6817,-42.4625 176.7332,-35.576 166.1445,-35.9385 168.6817,-42.4625"/>
</g>
<!-- Node20 -->
<g id="node5" class="node">
<title>Node20</title>
<g id="a_node5"><a xlink:href="namespaceiter_1_1impl_1_1get__iters.html#aa42232a4051a50a8ffd16207aa031ff5" target="_top" xlink:title="iter::impl::get_iters\l::get_begin_impl">
<polygon fill="#ffffff" stroke="#000000" points="458,-49.5 458,-79.5 556,-79.5 556,-49.5 458,-49.5"/>
<text text-anchor="start" x="466" y="-67.5" font-family="Helvetica,sans-Serif" font-size="10.00" fill="#000000">iter::impl::get_iters</text>
<text text-anchor="middle" x="507" y="-56.5" font-family="Helvetica,sans-Serif" font-size="10.00" fill="#000000">::get_begin_impl</text>
</a>
</g>
</g>
<!-- Node19&#45;&gt;Node20 -->
<g id="edge4" class="edge">
<title>Node19&#45;&gt;Node20</title>
<path fill="none" stroke="#191970" d="M422.1358,-64.5C430.4198,-64.5 439.097,-64.5 447.6082,-64.5"/>
<polygon fill="#191970" stroke="#191970" points="447.8702,-68.0001 457.8702,-64.5 447.8701,-61.0001 447.8702,-68.0001"/>
</g>
<!-- Node21&#45;&gt;Node19 -->
<g id="edge7" class="edge">
<title>Node21&#45;&gt;Node19</title>
<path fill="none" stroke="#191970" d="M264.9019,-34.3012C280.4412,-38.6423 297.7597,-43.4805 313.9014,-47.9899"/>
<polygon fill="#191970" stroke="#191970" points="313.2005,-51.428 323.7734,-50.7478 315.084,-44.6862 313.2005,-51.428"/>
</g>
<!-- Node22 -->
<g id="node7" class="node">
<title>Node22</title>
<g id="a_node7"><a xlink:href="namespaceiter_1_1impl_1_1get__iters.html#a4195fc28d6c53e02d7cb825ce26d75d5" target="_top" xlink:title="iter::impl::get_iters\l::get_end_impl">
<polygon fill="#ffffff" stroke="#000000" points="324,-.5 324,-30.5 422,-30.5 422,-.5 324,-.5"/>
<text text-anchor="start" x="332" y="-18.5" font-family="Helvetica,sans-Serif" font-size="10.00" fill="#000000">iter::impl::get_iters</text>
<text text-anchor="middle" x="373" y="-7.5" font-family="Helvetica,sans-Serif" font-size="10.00" fill="#000000">::get_end_impl</text>
</a>
</g>
</g>
<!-- Node21&#45;&gt;Node22 -->
<g id="edge6" class="edge">
<title>Node21&#45;&gt;Node22</title>
<path fill="none" stroke="#191970" d="M264.9019,-18.9317C280.2946,-18.443 297.4331,-17.8989 313.4443,-17.3907"/>
<polygon fill="#191970" stroke="#191970" points="313.8896,-20.8784 323.7734,-17.0627 313.6674,-13.8819 313.8896,-20.8784"/>
</g>
</g>
</svg>
        <g id="navigator" transform="translate(0 0)" fill="#404254">
                <rect fill="#f2f5e9" fill-opacity="0.5" stroke="#606060" stroke-width=".5" x="0" y="0" width="60" height="60"/>
                <use id="zoomplus" xlink:href="#zoomPlus" x="17" y="9" onmousedown="handleZoom(evt,'in')"/>
                <use id="zoomminus" xlink:href="#zoomMin" x="42" y="9" onmousedown="handleZoom(evt,'out')"/>
                <use id="reset" xlink:href="#resetDef" x="30" y="36" onmousedown="handleReset()"/>
                <g id="arrowUp" xlink:href="#dirArrow" transform="translate(30 24)" onmousedown="handlePan(0,-1)">
                  <use xlink:href="#rim" fill="#404040">
                        <set attributeName="fill" to="#808080" begin="arrowUp.mouseover" end="arrowUp.mouseout"/>
                  </use>
                  <path fill="none" stroke="white" stroke-width="1.5" d="M0,-3.0v7 M-2.5,-0.5L0,-3.0L2.5,-0.5"/>
                </g>
                <g id="arrowRight" xlink:href="#dirArrow" transform="rotate(90) translate(36 -43)" onmousedown="handlePan(1,0)">
                  <use xlink:href="#rim" fill="#404040">
                        <set attributeName="fill" to="#808080" begin="arrowRight.mouseover" end="arrowRight.mouseout"/>
                  </use>
                  <path fill="none" stroke="white" stroke-width="1.5" d="M0,-3.0v7 M-2.5,-0.5L0,-3.0L2.5,-0.5"/>
                </g>
                <g id="arrowDown" xlink:href="#dirArrow" transform="rotate(180) translate(-30 -48)" onmousedown="handlePan(0,1)">
                  <use xlink:href="#rim" fill="#404040">
                        <set attributeName="fill" to="#808080" begin="arrowDown.mouseover" end="arrowDown.mouseout"/>
                  </use>
                  <path fill="none" stroke="white" stroke-width="1.5" d="M0,-3.0v7 M-2.5,-0.5L0,-3.0L2.5,-0.5"/>
                </g>
                <g id="arrowLeft" xlink:href="#dirArrow" transform="rotate(270) translate(-36 17)" onmousedown="handlePan(-1,0)">
                  <use xlink:href="#rim" fill="#404040">
                        <set attributeName="fill" to="#808080" begin="arrowLeft.mouseover" end="arrowLeft.mouseout"/>
                  </use>
                  <path fill="none" stroke="white" stroke-width="1.5" d="M0,-3.0v7 M-2.5,-0.5L0,-3.0L2.5,-0.5"/>
                </g>
        </g>
        <svg viewBox="0 0 15 15" width="100%" height="30px" preserveAspectRatio="xMaxYMin meet">
         <g id="arrow_out" transform="scale(0.3 0.3)">
          <a xlink:href="classiter_1_1impl_1_1Permuter_1_1Iterator_a1d1c68bfd6ab4d4a3ba755db91b32ddb_cgraph_org.svg" target="_base">
           <rect id="button" ry="5" rx="5" y="6" x="6" height="38" width="38"
                fill="#f2f5e9" fill-opacity="0.5" stroke="#606060" stroke-width="1.0"/>
           <path id="arrow"
             d="M 11.500037,31.436501 C 11.940474,20.09759 22.043105,11.32322 32.158766,21.979434 L 37.068811,17.246167 C 37.068811,17.246167 37.088388,32 37.088388,32 L 22.160133,31.978069 C 22.160133,31.978069 26.997745,27.140456 26.997745,27.140456 C 18.528582,18.264221 13.291696,25.230495 11.500037,31.436501 z"
             style="fill:#404040;"/>
          </a>
         </g>
        </svg>
</svg>
