<?xml version="1.0" encoding="UTF-8" standalone="no"?>
<!DOCTYPE svg PUBLIC "-//W3C//DTD SVG 1.1//EN"
 "http://www.w3.org/Graphics/SVG/1.1/DTD/svg11.dtd">
<!-- Generated by graphviz version 2.40.1 (20161225.0304)
 -->
<!-- Title: iter::impl::Compressed::Iterator::increment_iterators Pages: 1 -->
<svg width="428pt" height="88pt"
 viewBox="0.00 0.00 428.00 88.00" xmlns="http://www.w3.org/2000/svg" xmlns:xlink="http://www.w3.org/1999/xlink">
<g id="graph0" class="graph" transform="scale(1 1) rotate(0) translate(4 84)">
<title>iter::impl::Compressed::Iterator::increment_iterators</title>
<polygon fill="#ffffff" stroke="transparent" points="-4,4 -4,-84 424,-84 424,4 -4,4"/>
<!-- Node5 -->
<g id="node1" class="node">
<title>Node5</title>
<polygon fill="#bfbfbf" stroke="#000000" points="0,-22 0,-63 116,-63 116,-22 0,-22"/>
<text text-anchor="start" x="8" y="-51" font-family="Helvetica,sans-Serif" font-size="10.00" fill="#000000">iter::impl::Compressed</text>
<text text-anchor="start" x="8" y="-40" font-family="Helvetica,sans-Serif" font-size="10.00" fill="#000000">::Iterator::increment</text>
<text text-anchor="middle" x="58" y="-29" font-family="Helvetica,sans-Serif" font-size="10.00" fill="#000000">_iterators</text>
</g>
<!-- Node6 -->
<g id="node2" class="node">
<title>Node6</title>
<g id="a_node2"><a xlink:href="classiter_1_1impl_1_1Compressed_1_1Iterator.html#a67151fce4ed77d6293475eb6a0802b17" target="_top" xlink:title="iter::impl::Compressed\l::Iterator::operator++">
<polygon fill="#ffffff" stroke="#000000" points="304,-49.5 304,-79.5 420,-79.5 420,-49.5 304,-49.5"/>
<text text-anchor="start" x="312" y="-67.5" font-family="Helvetica,sans-Serif" font-size="10.00" fill="#000000">iter::impl::Compressed</text>
<text text-anchor="middle" x="362" y="-56.5" font-family="Helvetica,sans-Serif" font-size="10.00" fill="#000000">::Iterator::operator++</text>
</a>
</g>
</g>
<!-- Node5&#45;&gt;Node6 -->
<g id="edge1" class="edge">
<title>Node5&#45;&gt;Node6</title>
<path fill="none" stroke="#191970" d="M126.3293,-47.4449C179.7887,-51.3137 253.3062,-56.634 303.9425,-60.2985"/>
<polygon fill="#191970" stroke="#191970" points="126.4811,-43.9468 116.2546,-46.7158 125.9758,-50.9285 126.4811,-43.9468"/>
</g>
<!-- Node7 -->
<g id="node3" class="node">
<title>Node7</title>
<g id="a_node3"><a xlink:href="classiter_1_1impl_1_1Compressed_1_1Iterator.html#a5edb1bd9c65935579e9cb7ebe04b4ab0" target="_top" xlink:title="iter::impl::Compressed\l::Iterator::skip_failures">
<polygon fill="#ffffff" stroke="#000000" points="152,-5.5 152,-35.5 268,-35.5 268,-5.5 152,-5.5"/>
<text text-anchor="start" x="160" y="-23.5" font-family="Helvetica,sans-Serif" font-size="10.00" fill="#000000">iter::impl::Compressed</text>
<text text-anchor="middle" x="210" y="-12.5" font-family="Helvetica,sans-Serif" font-size="10.00" fill="#000000">::Iterator::skip_failures</text>
</a>
</g>
</g>
<!-- Node5&#45;&gt;Node7 -->
<g id="edge2" class="edge">
<title>Node5&#45;&gt;Node7</title>
<path fill="none" stroke="#191970" d="M126.264,-32.6197C134.7979,-31.3845 143.4632,-30.1303 151.8236,-28.9203"/>
<polygon fill="#191970" stroke="#191970" points="125.7279,-29.1607 116.3325,-34.0571 126.7307,-36.0885 125.7279,-29.1607"/>
</g>
<!-- Node7&#45;&gt;Node6 -->
<g id="edge4" class="edge">
<title>Node7&#45;&gt;Node6</title>
<path fill="none" stroke="#191970" d="M271.5316,-38.3118C284.3246,-42.015 297.6856,-45.8827 310.0913,-49.4738"/>
<polygon fill="#191970" stroke="#191970" points="272.4635,-34.9379 261.8846,-35.5192 270.5171,-41.6619 272.4635,-34.9379"/>
</g>
<!-- Node8 -->
<g id="node4" class="node">
<title>Node8</title>
<g id="a_node4"><a xlink:href="classiter_1_1impl_1_1Compressed_1_1Iterator.html#abdedcf45050719be769856e5ea2b5eb1" target="_top" xlink:title="iter::impl::Compressed\l::Iterator::Iterator">
<polygon fill="#ffffff" stroke="#000000" points="304,-.5 304,-30.5 420,-30.5 420,-.5 304,-.5"/>
<text text-anchor="start" x="312" y="-18.5" font-family="Helvetica,sans-Serif" font-size="10.00" fill="#000000">iter::impl::Compressed</text>
<text text-anchor="middle" x="362" y="-7.5" font-family="Helvetica,sans-Serif" font-size="10.00" fill="#000000">::Iterator::Iterator</text>
</a>
</g>
</g>
<!-- Node7&#45;&gt;Node8 -->
<g id="edge3" class="edge">
<title>Node7&#45;&gt;Node8</title>
<path fill="none" stroke="#191970" d="M278.5423,-18.2453C286.9862,-17.9676 295.5541,-17.6857 303.8236,-17.4137"/>
<polygon fill="#191970" stroke="#191970" points="278.212,-14.7542 268.3325,-18.5812 278.4422,-21.7504 278.212,-14.7542"/>
</g>
</g>
</svg>
