<?xml version="1.0" encoding="UTF-8" standalone="no"?>
<!DOCTYPE svg PUBLIC "-//W3C//DTD SVG 1.1//EN"
 "http://www.w3.org/Graphics/SVG/1.1/DTD/svg11.dtd">
<!-- Generated by graphviz version 2.40.1 (20161225.0304)
 -->
<!-- Title: iter::detail::RangeIterData&lt; T, true &gt; Pages: 1 -->
<svg width="137pt" height="270pt"
 viewBox="0.00 0.00 137.00 270.00" xmlns="http://www.w3.org/2000/svg" xmlns:xlink="http://www.w3.org/1999/xlink">
<g id="graph0" class="graph" transform="scale(1 1) rotate(0) translate(4 266)">
<title>iter::detail::RangeIterData&lt; T, true &gt;</title>
<polygon fill="#ffffff" stroke="transparent" points="-4,4 -4,-266 133,-266 133,4 -4,4"/>
<!-- Node1 -->
<g id="node1" class="node">
<title>Node1</title>
<polygon fill="#bfbfbf" stroke="#000000" points="0,-.5 0,-134.5 129,-134.5 129,-.5 0,-.5"/>
<text text-anchor="start" x="8" y="-122.5" font-family="Helvetica,sans-Serif" font-size="10.00" fill="#000000">iter::detail::RangeIterData</text>
<text text-anchor="middle" x="64.5" y="-111.5" font-family="Helvetica,sans-Serif" font-size="10.00" fill="#000000">&lt; T, true &gt;</text>
<polyline fill="none" stroke="#000000" points="0,-104.5 129,-104.5 "/>
<text text-anchor="start" x="8" y="-92.5" font-family="Helvetica,sans-Serif" font-size="10.00" fill="#000000">&#45; steps_taken_</text>
<polyline fill="none" stroke="#000000" points="0,-85.5 129,-85.5 "/>
<text text-anchor="start" x="8" y="-73.5" font-family="Helvetica,sans-Serif" font-size="10.00" fill="#000000">+ RangeIterData()</text>
<text text-anchor="start" x="8" y="-62.5" font-family="Helvetica,sans-Serif" font-size="10.00" fill="#000000">+ RangeIterData()</text>
<text text-anchor="start" x="8" y="-51.5" font-family="Helvetica,sans-Serif" font-size="10.00" fill="#000000">+ value()</text>
<text text-anchor="start" x="8" y="-40.5" font-family="Helvetica,sans-Serif" font-size="10.00" fill="#000000">+ step()</text>
<text text-anchor="start" x="8" y="-29.5" font-family="Helvetica,sans-Serif" font-size="10.00" fill="#000000">+ inc()</text>
<text text-anchor="start" x="8" y="-18.5" font-family="Helvetica,sans-Serif" font-size="10.00" fill="#000000">+ operator==()</text>
<text text-anchor="start" x="8" y="-7.5" font-family="Helvetica,sans-Serif" font-size="10.00" fill="#000000">+ operator!=()</text>
</g>
<!-- Node2 -->
<g id="node2" class="node">
<title>Node2</title>
<polygon fill="#ffffff" stroke="#bfbfbf" points="50,-204.5 50,-261.5 79,-261.5 79,-204.5 50,-204.5"/>
<text text-anchor="middle" x="64.5" y="-249.5" font-family="Helvetica,sans-Serif" font-size="10.00" fill="#000000">T</text>
<polyline fill="none" stroke="#bfbfbf" points="50,-242.5 79,-242.5 "/>
<text text-anchor="middle" x="64.5" y="-230.5" font-family="Helvetica,sans-Serif" font-size="10.00" fill="#000000"> </text>
<polyline fill="none" stroke="#bfbfbf" points="50,-223.5 79,-223.5 "/>
<text text-anchor="middle" x="64.5" y="-211.5" font-family="Helvetica,sans-Serif" font-size="10.00" fill="#000000"> </text>
</g>
<!-- Node2&#45;&gt;Node1 -->
<g id="edge1" class="edge">
<title>Node2&#45;&gt;Node1</title>
<path fill="none" stroke="#404040" d="M64.5,-204.1721C64.5,-188.1468 64.5,-167.3426 64.5,-146.8202"/>
<polygon fill="none" stroke="#404040" points="64.5001,-146.8077 60.5,-140.8078 64.5,-134.8077 68.5,-140.8077 64.5001,-146.8077"/>
<text text-anchor="middle" x="80.5" y="-178" font-family="Helvetica,sans-Serif" font-size="10.00" fill="#000000"> &#45;step_</text>
<text text-anchor="middle" x="80.5" y="-167" font-family="Helvetica,sans-Serif" font-size="10.00" fill="#000000">&#45;start_</text>
<text text-anchor="middle" x="80.5" y="-156" font-family="Helvetica,sans-Serif" font-size="10.00" fill="#000000">&#45;value_</text>
</g>
</g>
</svg>
