<?xml version="1.0" encoding="UTF-8" standalone="no"?>
<!DOCTYPE svg PUBLIC "-//W3C//DTD SVG 1.1//EN"
 "http://www.w3.org/Graphics/SVG/1.1/DTD/svg11.dtd">
<!-- Generated by graphviz version 2.40.1 (20161225.0304)
 -->
<!-- Title: CharRange Pages: 1 -->
<svg width="117pt" height="237pt"
 viewBox="0.00 0.00 117.00 237.00" xmlns="http://www.w3.org/2000/svg" xmlns:xlink="http://www.w3.org/1999/xlink">
<g id="graph0" class="graph" transform="scale(1 1) rotate(0) translate(4 233)">
<title>CharRange</title>
<polygon fill="#ffffff" stroke="transparent" points="-4,4 -4,-233 113,-233 113,4 -4,4"/>
<!-- Node0 -->
<g id="node1" class="node">
<title>Node0</title>
<polygon fill="#bfbfbf" stroke="#000000" points="14,-.5 14,-57.5 95,-57.5 95,-.5 14,-.5"/>
<text text-anchor="middle" x="54.5" y="-45.5" font-family="Helvetica,sans-Serif" font-size="10.00" fill="#000000">CharRange</text>
<polyline fill="none" stroke="#000000" points="14,-38.5 95,-38.5 "/>
<text text-anchor="middle" x="54.5" y="-26.5" font-family="Helvetica,sans-Serif" font-size="10.00" fill="#000000"> </text>
<polyline fill="none" stroke="#000000" points="14,-19.5 95,-19.5 "/>
<text text-anchor="start" x="22" y="-7.5" font-family="Helvetica,sans-Serif" font-size="10.00" fill="#000000">+ CharRange()</text>
</g>
<!-- Node1 -->
<g id="node2" class="node">
<title>Node1</title>
<g id="a_node2"><a xlink:href="classDiffEndRange.html" target="_top" xlink:title="{DiffEndRange\&lt; char,\l CharInc \&gt;\n|&#45; start_\l&#45; stop_\l&#45; all_results_\l|+ DiffEndRange()\l+ begin()\l+ end()\l+ rbegin()\l+ rend()\l}">
<polygon fill="#ffffff" stroke="#000000" points="0,-94.5 0,-228.5 109,-228.5 109,-94.5 0,-94.5"/>
<text text-anchor="start" x="8" y="-216.5" font-family="Helvetica,sans-Serif" font-size="10.00" fill="#000000">DiffEndRange&lt; char,</text>
<text text-anchor="middle" x="54.5" y="-205.5" font-family="Helvetica,sans-Serif" font-size="10.00" fill="#000000"> CharInc &gt;</text>
<polyline fill="none" stroke="#000000" points="0,-198.5 109,-198.5 "/>
<text text-anchor="start" x="8" y="-186.5" font-family="Helvetica,sans-Serif" font-size="10.00" fill="#000000">&#45; start_</text>
<text text-anchor="start" x="8" y="-175.5" font-family="Helvetica,sans-Serif" font-size="10.00" fill="#000000">&#45; stop_</text>
<text text-anchor="start" x="8" y="-164.5" font-family="Helvetica,sans-Serif" font-size="10.00" fill="#000000">&#45; all_results_</text>
<polyline fill="none" stroke="#000000" points="0,-157.5 109,-157.5 "/>
<text text-anchor="start" x="8" y="-145.5" font-family="Helvetica,sans-Serif" font-size="10.00" fill="#000000">+ DiffEndRange()</text>
<text text-anchor="start" x="8" y="-134.5" font-family="Helvetica,sans-Serif" font-size="10.00" fill="#000000">+ begin()</text>
<text text-anchor="start" x="8" y="-123.5" font-family="Helvetica,sans-Serif" font-size="10.00" fill="#000000">+ end()</text>
<text text-anchor="start" x="8" y="-112.5" font-family="Helvetica,sans-Serif" font-size="10.00" fill="#000000">+ rbegin()</text>
<text text-anchor="start" x="8" y="-101.5" font-family="Helvetica,sans-Serif" font-size="10.00" fill="#000000">+ rend()</text>
</a>
</g>
</g>
<!-- Node1&#45;&gt;Node0 -->
<g id="edge1" class="edge">
<title>Node1&#45;&gt;Node0</title>
<path fill="none" stroke="#191970" d="M54.5,-84.187C54.5,-74.7836 54.5,-65.6862 54.5,-57.6817"/>
<polygon fill="none" stroke="#191970" points="51.0001,-84.4736 54.5,-94.4736 58.0001,-84.4737 51.0001,-84.4736"/>
</g>
</g>
</svg>
