<?xml version="1.0" encoding="UTF-8" standalone="no"?>
<!DOCTYPE svg PUBLIC "-//W3C//DTD SVG 1.1//EN"
 "http://www.w3.org/Graphics/SVG/1.1/DTD/svg11.dtd">
<!-- Generated by graphviz version 2.40.1 (20161225.0304)
 -->
<!-- Title: xn::Graph::begin Pages: 1 -->
<!--zoomable 240 -->
<svg id="main" version="1.1" xmlns="http://www.w3.org/2000/svg" xmlns:xlink="http://www.w3.org/1999/xlink" xml:space="preserve" onload="init(evt)">
<style type="text/css"><![CDATA[
.edge:hover path { stroke: red; }
.edge:hover polygon { stroke: red; fill: red; }
]]></style>
<script type="text/javascript"><![CDATA[
var edges = document.getElementsByTagName('g');
if (edges && edges.length) {
  for (var i=0;i<edges.length;i++) {
    if (edges[i].id.substr(0,4)=='edge') {
      edges[i].setAttribute('class','edge');
    }
  }
}
]]></script>
        <defs>
                <circle id="rim" cx="0" cy="0" r="7"/>
                <circle id="rim2" cx="0" cy="0" r="3.5"/>
                <g id="zoomPlus">
                        <use xlink:href="#rim" fill="#404040">
                                <set attributeName="fill" to="#808080" begin="zoomplus.mouseover" end="zoomplus.mouseout"/>
                        </use>
                        <path d="M-4,0h8M0,-4v8" fill="none" stroke="white" stroke-width="1.5" pointer-events="none"/>
                </g>
                <g id="zoomMin">
                        <use xlink:href="#rim" fill="#404040">
                                <set attributeName="fill" to="#808080" begin="zoomminus.mouseover" end="zoomminus.mouseout"/>
                        </use>
                        <path d="M-4,0h8" fill="none" stroke="white" stroke-width="1.5" pointer-events="none"/>
                </g>
                <g id="dirArrow">
                        <path fill="none" stroke="white" stroke-width="1.5" d="M0,-3.0v7 M-2.5,-0.5L0,-3.0L2.5,-0.5"/>
                </g>
               <g id="resetDef">
                       <use xlink:href="#rim2" fill="#404040">
                               <set attributeName="fill" to="#808080" begin="reset.mouseover" end="reset.mouseout"/>
                       </use>
               </g>
        </defs>

<script type="text/javascript">
var viewWidth = 749;
var viewHeight = 240;
var sectionId = 'dynsection-3';
</script>
<script xlink:href="svgpan.js"/>
<svg id="graph" class="graph">
<g id="viewport">
<title>xn::Graph::begin</title>
<polygon fill="#ffffff" stroke="transparent" points="-4,4 -4,-235.9357 745,-235.9357 745,4 -4,4"/>
<!-- Node10 -->
<g id="node1" class="node">
<title>Node10</title>
<polygon fill="#bfbfbf" stroke="#000000" points="0,-79 0,-98 89,-98 89,-79 0,-79"/>
<text text-anchor="middle" x="44.5" y="-86" font-family="Helvetica,sans-Serif" font-size="10.00" fill="#000000">xn::Graph::begin</text>
</g>
<!-- Node11 -->
<g id="node2" class="node">
<title>Node11</title>
<g id="a_node2"><a xlink:href="classFMBiGainCalc.html#a4b0fdc3f966eac6ec55e73ffe2a792cd" target="_top" xlink:title="FMBiGainCalc::__init\l_gain_2pin_net">
<polygon fill="#ffffff" stroke="#000000" points="128,-98.5 128,-128.5 238,-128.5 238,-98.5 128,-98.5"/>
<text text-anchor="start" x="136" y="-116.5" font-family="Helvetica,sans-Serif" font-size="10.00" fill="#000000">FMBiGainCalc::__init</text>
<text text-anchor="middle" x="183" y="-105.5" font-family="Helvetica,sans-Serif" font-size="10.00" fill="#000000">_gain_2pin_net</text>
</a>
</g>
</g>
<!-- Node10&#45;&gt;Node11 -->
<g id="edge1" class="edge">
<title>Node10&#45;&gt;Node11</title>
<path fill="none" stroke="#191970" d="M99.1341,-98.3618C108.5649,-100.0641 118.3745,-101.8348 127.8196,-103.5396"/>
<polygon fill="#191970" stroke="#191970" points="99.5474,-94.8799 89.0846,-96.5478 98.3039,-101.7685 99.5474,-94.8799"/>
</g>
<!-- Node14 -->
<g id="node5" class="node">
<title>Node14</title>
<g id="a_node5"><a xlink:href="classFMBiGainCalc.html#ab361da1d43c28b7f61f0a47c72e6cdb2" target="_top" xlink:title="FMBiGainCalc::__init\l_gain_3pin_net">
<polygon fill="#ffffff" stroke="#000000" points="631,-178.5 631,-208.5 741,-208.5 741,-178.5 631,-178.5"/>
<text text-anchor="start" x="639" y="-196.5" font-family="Helvetica,sans-Serif" font-size="10.00" fill="#000000">FMBiGainCalc::__init</text>
<text text-anchor="middle" x="686" y="-185.5" font-family="Helvetica,sans-Serif" font-size="10.00" fill="#000000">_gain_3pin_net</text>
</a>
</g>
</g>
<!-- Node10&#45;&gt;Node14 -->
<g id="edge13" class="edge">
<title>Node10&#45;&gt;Node14</title>
<path fill="none" stroke="#191970" d="M65.6615,-104.0587C81.3689,-114.9924 103.6726,-129.2613 125,-138.5 260.5284,-197.2091 299.5652,-205.224 446,-224.5 511.6558,-233.1426 529.6681,-235.3226 595,-224.5 613.771,-221.3905 633.8696,-214.903 650.3912,-208.6626"/>
<polygon fill="#191970" stroke="#191970" points="67.4117,-101.0088 57.2327,-98.0698 63.3572,-106.7151 67.4117,-101.0088"/>
</g>
<!-- Node17 -->
<g id="node8" class="node">
<title>Node17</title>
<g id="a_node8"><a xlink:href="test__min__cover_8cpp.html#ad62682eeb6c222acc3558269eefe9735" target="_top" xlink:title="Create a contraction subgraph object. ">
<polygon fill="#ffffff" stroke="#000000" points="134.5,-49.5 134.5,-79.5 231.5,-79.5 231.5,-49.5 134.5,-49.5"/>
<text text-anchor="start" x="142.5" y="-67.5" font-family="Helvetica,sans-Serif" font-size="10.00" fill="#000000">create_contraction</text>
<text text-anchor="middle" x="183" y="-56.5" font-family="Helvetica,sans-Serif" font-size="10.00" fill="#000000">_subgraph</text>
</a>
</g>
</g>
<!-- Node10&#45;&gt;Node17 -->
<g id="edge14" class="edge">
<title>Node10&#45;&gt;Node17</title>
<path fill="none" stroke="#191970" d="M99.0839,-79.0414C110.6701,-77.0337 122.8303,-74.9265 134.1853,-72.9589"/>
<polygon fill="#191970" stroke="#191970" points="98.3402,-75.618 89.0846,-80.7741 99.5354,-82.5153 98.3402,-75.618"/>
</g>
<!-- Node19 -->
<g id="node10" class="node">
<title>Node19</title>
<g id="a_node10"><a xlink:href="classFMBiGainCalc.html#a35ba7ce7af1263ff701abff92778ab7e" target="_top" xlink:title="FMBiGainCalc::update\l_move_2pin_net">
<polygon fill="#ffffff" stroke="#000000" points="125,-.5 125,-30.5 241,-30.5 241,-.5 125,-.5"/>
<text text-anchor="start" x="133" y="-18.5" font-family="Helvetica,sans-Serif" font-size="10.00" fill="#000000">FMBiGainCalc::update</text>
<text text-anchor="middle" x="183" y="-7.5" font-family="Helvetica,sans-Serif" font-size="10.00" fill="#000000">_move_2pin_net</text>
</a>
</g>
</g>
<!-- Node10&#45;&gt;Node19 -->
<g id="edge16" class="edge">
<title>Node10&#45;&gt;Node19</title>
<path fill="none" stroke="#191970" d="M67.2334,-73.3616C83.0682,-63.1436 104.8756,-49.7115 125,-39.5 131.1223,-36.3934 137.7439,-33.3624 144.2483,-30.5578"/>
<polygon fill="#191970" stroke="#191970" points="65.1198,-70.5615 58.6581,-78.9578 68.9454,-76.4237 65.1198,-70.5615"/>
</g>
<!-- Node12 -->
<g id="node3" class="node">
<title>Node12</title>
<g id="a_node3"><a xlink:href="classFMBiGainCalc.html#abbd6ac04a41b52d6853a97b497648a2d" target="_top" xlink:title="FMBiGainCalc::__init_gain">
<polygon fill="#ffffff" stroke="#000000" points="277,-150 277,-169 410,-169 410,-150 277,-150"/>
<text text-anchor="middle" x="343.5" y="-157" font-family="Helvetica,sans-Serif" font-size="10.00" fill="#000000">FMBiGainCalc::__init_gain</text>
</a>
</g>
</g>
<!-- Node11&#45;&gt;Node12 -->
<g id="edge2" class="edge">
<title>Node11&#45;&gt;Node12</title>
<path fill="none" stroke="#191970" d="M245.2014,-131.3272C267.2694,-137.652 291.2578,-144.5272 310.0127,-149.9024"/>
<polygon fill="#191970" stroke="#191970" points="246.131,-127.9528 235.5537,-128.5621 244.2024,-134.6819 246.131,-127.9528"/>
</g>
<!-- Node13 -->
<g id="node4" class="node">
<title>Node13</title>
<g id="a_node4"><a xlink:href="classFMBiGainCalc.html#a332d9e85ed21f3e25122a8bb9660739b" target="_top" xlink:title="FMBiGainCalc::__modify_gain">
<polygon fill="#ffffff" stroke="#000000" points="446,-103 446,-122 595,-122 595,-103 446,-103"/>
<text text-anchor="middle" x="520.5" y="-110" font-family="Helvetica,sans-Serif" font-size="10.00" fill="#000000">FMBiGainCalc::__modify_gain</text>
</a>
</g>
</g>
<!-- Node11&#45;&gt;Node13 -->
<g id="edge12" class="edge">
<title>Node11&#45;&gt;Node13</title>
<path fill="none" stroke="#191970" d="M248.6117,-107.8321C305.1731,-106.0467 386.8112,-105.7248 445.855,-107.0075"/>
<polygon fill="#191970" stroke="#191970" points="248.228,-104.3431 238.3533,-108.1825 248.467,-111.339 248.228,-104.3431"/>
</g>
<!-- Node12&#45;&gt;Node13 -->
<g id="edge3" class="edge">
<title>Node12&#45;&gt;Node13</title>
<path fill="none" stroke="#191970" d="M389.0258,-147.4112C418.6928,-139.5336 456.8678,-129.3967 484.4314,-122.0776"/>
<polygon fill="#191970" stroke="#191970" points="388.0854,-144.0396 379.3186,-149.9888 389.8819,-150.8051 388.0854,-144.0396"/>
</g>
<!-- Node16 -->
<g id="node7" class="node">
<title>Node16</title>
<g id="a_node7"><a xlink:href="classFMBiGainCalc.html#ad2d11665996b37c3b8888365ea8aa2ce" target="_top" xlink:title="FMBiGainCalc::init">
<polygon fill="#ffffff" stroke="#000000" points="471,-179 471,-198 570,-198 570,-179 471,-179"/>
<text text-anchor="middle" x="520.5" y="-186" font-family="Helvetica,sans-Serif" font-size="10.00" fill="#000000">FMBiGainCalc::init</text>
</a>
</g>
</g>
<!-- Node12&#45;&gt;Node16 -->
<g id="edge11" class="edge">
<title>Node12&#45;&gt;Node16</title>
<path fill="none" stroke="#191970" d="M412.0716,-170.7349C431.7156,-173.9534 452.7413,-177.3983 470.9989,-180.3897"/>
<polygon fill="#191970" stroke="#191970" points="412.3813,-167.239 401.947,-169.0761 411.2495,-174.1469 412.3813,-167.239"/>
</g>
<!-- Node13&#45;&gt;Node11 -->
<g id="edge4" class="edge">
<title>Node13&#45;&gt;Node11</title>
<path fill="none" stroke="#191970" d="M435.7284,-118.6954C373.9206,-120.1719 291.9399,-120.1512 238.3533,-118.4895"/>
<polygon fill="#191970" stroke="#191970" points="435.9484,-122.1909 445.855,-118.4349 435.7683,-115.1933 435.9484,-122.1909"/>
</g>
<!-- Node13&#45;&gt;Node14 -->
<g id="edge5" class="edge">
<title>Node13&#45;&gt;Node14</title>
<path fill="none" stroke="#191970" d="M560.5823,-126.2382C593.447,-140.8489 638.6721,-163.3805 664.8752,-178.4735"/>
<polygon fill="#191970" stroke="#191970" points="561.8063,-122.9536 551.2414,-122.1578 559.0041,-129.3683 561.8063,-122.9536"/>
</g>
<!-- Node15 -->
<g id="node6" class="node">
<title>Node15</title>
<g id="a_node6"><a xlink:href="classFMBiGainCalc.html#a7e02f8ebebb3be0cfb183f2cfd6692c8" target="_top" xlink:title="FMBiGainCalc::__init\l_gain_general_net">
<polygon fill="#ffffff" stroke="#000000" points="631,-97.5 631,-127.5 741,-127.5 741,-97.5 631,-97.5"/>
<text text-anchor="start" x="639" y="-115.5" font-family="Helvetica,sans-Serif" font-size="10.00" fill="#000000">FMBiGainCalc::__init</text>
<text text-anchor="middle" x="686" y="-104.5" font-family="Helvetica,sans-Serif" font-size="10.00" fill="#000000">_gain_general_net</text>
</a>
</g>
</g>
<!-- Node13&#45;&gt;Node15 -->
<g id="edge8" class="edge">
<title>Node13&#45;&gt;Node15</title>
<path fill="none" stroke="#191970" d="M605.1868,-105.7516C613.8562,-105.7664 622.4973,-105.8799 630.7291,-106.0923"/>
<polygon fill="#191970" stroke="#191970" points="605.0097,-102.252 595.0194,-105.7798 605.0291,-109.252 605.0097,-102.252"/>
</g>
<!-- Node14&#45;&gt;Node12 -->
<g id="edge6" class="edge">
<title>Node14&#45;&gt;Node12</title>
<path fill="none" stroke="#191970" d="M620.887,-206.8797C572.1661,-214.591 504.1941,-220.4511 446,-207.5 412.8178,-200.1153 377.6737,-180.7908 358.373,-169.0364"/>
<polygon fill="#191970" stroke="#191970" points="621.6851,-210.2954 630.9809,-205.2122 620.5441,-203.389 621.6851,-210.2954"/>
</g>
<!-- Node14&#45;&gt;Node13 -->
<g id="edge7" class="edge">
<title>Node14&#45;&gt;Node13</title>
<path fill="none" stroke="#191970" d="M633.4442,-174.1114C597.7179,-157.6546 553.2896,-135.0333 532.4024,-122.0283"/>
<polygon fill="#191970" stroke="#191970" points="632.2388,-177.4082 642.7904,-178.3643 635.138,-171.0368 632.2388,-177.4082"/>
</g>
<!-- Node15&#45;&gt;Node12 -->
<g id="edge9" class="edge">
<title>Node15&#45;&gt;Node12</title>
<path fill="none" stroke="#191970" d="M620.758,-126.9005C612.1192,-128.5785 603.3621,-130.1646 595,-131.5 532.6365,-141.4589 461.0101,-149.0622 410.1871,-153.8151"/>
<polygon fill="#191970" stroke="#191970" points="621.6902,-130.2837 630.8141,-124.898 620.3231,-123.4185 621.6902,-130.2837"/>
</g>
<!-- Node15&#45;&gt;Node13 -->
<g id="edge10" class="edge">
<title>Node15&#45;&gt;Node13</title>
<path fill="none" stroke="#191970" d="M620.6235,-119.116C612.2165,-119.2474 603.5589,-119.2822 595.0194,-119.2202"/>
<polygon fill="#191970" stroke="#191970" points="620.8034,-122.6131 630.7291,-118.9077 620.6591,-115.6146 620.8034,-122.6131"/>
</g>
<!-- Node18 -->
<g id="node9" class="node">
<title>Node18</title>
<g id="a_node9"><a xlink:href="test__min__cover_8cpp.html#a05c317144ac7688afb67dabb457b9910" target="_top" xlink:title="TEST_CASE">
<polygon fill="#ffffff" stroke="#000000" points="306,-55 306,-74 381,-74 381,-55 306,-55"/>
<text text-anchor="middle" x="343.5" y="-62" font-family="Helvetica,sans-Serif" font-size="10.00" fill="#000000">TEST_CASE</text>
</a>
</g>
</g>
<!-- Node17&#45;&gt;Node18 -->
<g id="edge15" class="edge">
<title>Node17&#45;&gt;Node18</title>
<path fill="none" stroke="#191970" d="M241.8666,-64.5C263.2146,-64.5 286.7402,-64.5 305.7764,-64.5"/>
<polygon fill="#191970" stroke="#191970" points="241.5909,-61.0001 231.5908,-64.5 241.5908,-68.0001 241.5909,-61.0001"/>
</g>
</g>
</svg>
        <g id="navigator" transform="translate(0 0)" fill="#404254">
                <rect fill="#f2f5e9" fill-opacity="0.5" stroke="#606060" stroke-width=".5" x="0" y="0" width="60" height="60"/>
                <use id="zoomplus" xlink:href="#zoomPlus" x="17" y="9" onmousedown="handleZoom(evt,'in')"/>
                <use id="zoomminus" xlink:href="#zoomMin" x="42" y="9" onmousedown="handleZoom(evt,'out')"/>
                <use id="reset" xlink:href="#resetDef" x="30" y="36" onmousedown="handleReset()"/>
                <g id="arrowUp" xlink:href="#dirArrow" transform="translate(30 24)" onmousedown="handlePan(0,-1)">
                  <use xlink:href="#rim" fill="#404040">
                        <set attributeName="fill" to="#808080" begin="arrowUp.mouseover" end="arrowUp.mouseout"/>
                  </use>
                  <path fill="none" stroke="white" stroke-width="1.5" d="M0,-3.0v7 M-2.5,-0.5L0,-3.0L2.5,-0.5"/>
                </g>
                <g id="arrowRight" xlink:href="#dirArrow" transform="rotate(90) translate(36 -43)" onmousedown="handlePan(1,0)">
                  <use xlink:href="#rim" fill="#404040">
                        <set attributeName="fill" to="#808080" begin="arrowRight.mouseover" end="arrowRight.mouseout"/>
                  </use>
                  <path fill="none" stroke="white" stroke-width="1.5" d="M0,-3.0v7 M-2.5,-0.5L0,-3.0L2.5,-0.5"/>
                </g>
                <g id="arrowDown" xlink:href="#dirArrow" transform="rotate(180) translate(-30 -48)" onmousedown="handlePan(0,1)">
                  <use xlink:href="#rim" fill="#404040">
                        <set attributeName="fill" to="#808080" begin="arrowDown.mouseover" end="arrowDown.mouseout"/>
                  </use>
                  <path fill="none" stroke="white" stroke-width="1.5" d="M0,-3.0v7 M-2.5,-0.5L0,-3.0L2.5,-0.5"/>
                </g>
                <g id="arrowLeft" xlink:href="#dirArrow" transform="rotate(270) translate(-36 17)" onmousedown="handlePan(-1,0)">
                  <use xlink:href="#rim" fill="#404040">
                        <set attributeName="fill" to="#808080" begin="arrowLeft.mouseover" end="arrowLeft.mouseout"/>
                  </use>
                  <path fill="none" stroke="white" stroke-width="1.5" d="M0,-3.0v7 M-2.5,-0.5L0,-3.0L2.5,-0.5"/>
                </g>
        </g>
        <svg viewBox="0 0 15 15" width="100%" height="30px" preserveAspectRatio="xMaxYMin meet">
         <g id="arrow_out" transform="scale(0.3 0.3)">
          <a xlink:href="classxn_1_1Graph_a0eb06caefea5f60a5156e15662123d2f_icgraph_org.svg" target="_base">
           <rect id="button" ry="5" rx="5" y="6" x="6" height="38" width="38"
                fill="#f2f5e9" fill-opacity="0.5" stroke="#606060" stroke-width="1.0"/>
           <path id="arrow"
             d="M 11.500037,31.436501 C 11.940474,20.09759 22.043105,11.32322 32.158766,21.979434 L 37.068811,17.246167 C 37.068811,17.246167 37.088388,32 37.088388,32 L 22.160133,31.978069 C 22.160133,31.978069 26.997745,27.140456 26.997745,27.140456 C 18.528582,18.264221 13.291696,25.230495 11.500037,31.436501 z"
             style="fill:#404040;"/>
          </a>
         </g>
        </svg>
</svg>
