<?xml version="1.0" encoding="UTF-8" standalone="no"?>
<!DOCTYPE svg PUBLIC "-//W3C//DTD SVG 1.1//EN"
 "http://www.w3.org/Graphics/SVG/1.1/DTD/svg11.dtd">
<!-- Generated by graphviz version 2.40.1 (20161225.0304)
 -->
<!-- Title: iter::impl::DerefHolder::get Pages: 1 -->
<!--zoomable 543 -->
<svg id="main" version="1.1" xmlns="http://www.w3.org/2000/svg" xmlns:xlink="http://www.w3.org/1999/xlink" xml:space="preserve" onload="init(evt)">
<style type="text/css"><![CDATA[
.edge:hover path { stroke: red; }
.edge:hover polygon { stroke: red; fill: red; }
]]></style>
<script type="text/javascript"><![CDATA[
var edges = document.getElementsByTagName('g');
if (edges && edges.length) {
  for (var i=0;i<edges.length;i++) {
    if (edges[i].id.substr(0,4)=='edge') {
      edges[i].setAttribute('class','edge');
    }
  }
}
]]></script>
        <defs>
                <circle id="rim" cx="0" cy="0" r="7"/>
                <circle id="rim2" cx="0" cy="0" r="3.5"/>
                <g id="zoomPlus">
                        <use xlink:href="#rim" fill="#404040">
                                <set attributeName="fill" to="#808080" begin="zoomplus.mouseover" end="zoomplus.mouseout"/>
                        </use>
                        <path d="M-4,0h8M0,-4v8" fill="none" stroke="white" stroke-width="1.5" pointer-events="none"/>
                </g>
                <g id="zoomMin">
                        <use xlink:href="#rim" fill="#404040">
                                <set attributeName="fill" to="#808080" begin="zoomminus.mouseover" end="zoomminus.mouseout"/>
                        </use>
                        <path d="M-4,0h8" fill="none" stroke="white" stroke-width="1.5" pointer-events="none"/>
                </g>
                <g id="dirArrow">
                        <path fill="none" stroke="white" stroke-width="1.5" d="M0,-3.0v7 M-2.5,-0.5L0,-3.0L2.5,-0.5"/>
                </g>
               <g id="resetDef">
                       <use xlink:href="#rim2" fill="#404040">
                               <set attributeName="fill" to="#808080" begin="reset.mouseover" end="reset.mouseout"/>
                       </use>
               </g>
        </defs>

<script type="text/javascript">
var viewWidth = 464;
var viewHeight = 543;
var sectionId = 'dynsection-1';
</script>
<script xlink:href="svgpan.js"/>
<svg id="graph" class="graph">
<g id="viewport">
<title>iter::impl::DerefHolder::get</title>
<polygon fill="#ffffff" stroke="transparent" points="-4,4 -4,-539 460,-539 460,4 -4,4"/>
<!-- Node3 -->
<g id="node1" class="node">
<title>Node3</title>
<polygon fill="#bfbfbf" stroke="#000000" points="0,-241 0,-260 132,-260 132,-241 0,-241"/>
<text text-anchor="middle" x="66" y="-248" font-family="Helvetica,sans-Serif" font-size="10.00" fill="#000000">iter::impl::DerefHolder::get</text>
</g>
<!-- Node4 -->
<g id="node2" class="node">
<title>Node4</title>
<g id="a_node2"><a xlink:href="classiter_1_1impl_1_1Taker_1_1Iterator.html#a462bc927b2ea55d38345fc76b6e9a5ff" target="_top" xlink:title="iter::impl::Taker::\lIterator::check_current">
<polygon fill="#ffffff" stroke="#000000" points="186,-480.5 186,-510.5 301,-510.5 301,-480.5 186,-480.5"/>
<text text-anchor="start" x="194" y="-498.5" font-family="Helvetica,sans-Serif" font-size="10.00" fill="#000000">iter::impl::Taker::</text>
<text text-anchor="middle" x="243.5" y="-487.5" font-family="Helvetica,sans-Serif" font-size="10.00" fill="#000000">Iterator::check_current</text>
</a>
</g>
</g>
<!-- Node3&#45;&gt;Node4 -->
<g id="edge1" class="edge">
<title>Node3&#45;&gt;Node4</title>
<path fill="none" stroke="#191970" d="M69.5149,-270.0852C78.2349,-312.9733 104.8871,-415.8004 168,-471.5 173.2593,-476.1415 179.4195,-479.8862 185.913,-482.9071"/>
<polygon fill="#191970" stroke="#191970" points="72.9201,-269.2584 67.5936,-260.0998 66.0462,-270.5811 72.9201,-269.2584"/>
</g>
<!-- Node7 -->
<g id="node5" class="node">
<title>Node7</title>
<g id="a_node5"><a xlink:href="classiter_1_1impl_1_1GroupProducer_1_1Iterator.html#ac4070eb83cb2d0eead25b4fc5bc826ed" target="_top" xlink:title="iter::impl::GroupProducer\l::Iterator::get">
<polygon fill="#ffffff" stroke="#000000" points="181,-431.5 181,-461.5 306,-461.5 306,-431.5 181,-431.5"/>
<text text-anchor="start" x="189" y="-449.5" font-family="Helvetica,sans-Serif" font-size="10.00" fill="#000000">iter::impl::GroupProducer</text>
<text text-anchor="middle" x="243.5" y="-438.5" font-family="Helvetica,sans-Serif" font-size="10.00" fill="#000000">::Iterator::get</text>
</a>
</g>
</g>
<!-- Node3&#45;&gt;Node7 -->
<g id="edge4" class="edge">
<title>Node3&#45;&gt;Node7</title>
<path fill="none" stroke="#191970" d="M72.3061,-270.032C84.7907,-305.6285 116.0338,-381.1897 168,-422.5 172.3066,-425.9235 177.1107,-428.8631 182.1516,-431.3865"/>
<polygon fill="#191970" stroke="#191970" points="75.551,-268.7016 69.0316,-260.35 68.9199,-270.9442 75.551,-268.7016"/>
</g>
<!-- Node8 -->
<g id="node6" class="node">
<title>Node8</title>
<g id="a_node6"><a xlink:href="classiter_1_1impl_1_1GroupProducer_1_1Iterator.html#a69ccf6a520857a1a35a3558d9b1c700f" target="_top" xlink:title="iter::impl::GroupProducer\l::Iterator::next_key">
<polygon fill="#ffffff" stroke="#000000" points="181,-382.5 181,-412.5 306,-412.5 306,-382.5 181,-382.5"/>
<text text-anchor="start" x="189" y="-400.5" font-family="Helvetica,sans-Serif" font-size="10.00" fill="#000000">iter::impl::GroupProducer</text>
<text text-anchor="middle" x="243.5" y="-389.5" font-family="Helvetica,sans-Serif" font-size="10.00" fill="#000000">::Iterator::next_key</text>
</a>
</g>
</g>
<!-- Node3&#45;&gt;Node8 -->
<g id="edge5" class="edge">
<title>Node3&#45;&gt;Node8</title>
<path fill="none" stroke="#191970" d="M76.4682,-268.8492C92.6907,-295.6801 126.411,-345.4655 168,-373.5 173.0181,-376.8826 178.5416,-379.8115 184.2485,-382.3426"/>
<polygon fill="#191970" stroke="#191970" points="79.395,-266.922 71.301,-260.0856 73.3651,-270.4774 79.395,-266.922"/>
</g>
<!-- Node9 -->
<g id="node7" class="node">
<title>Node9</title>
<g id="a_node7"><a xlink:href="classiter_1_1impl_1_1Taker_1_1Iterator.html#aaf11f2ef2a3be2c3ef2c358dfb9914ad" target="_top" xlink:title="iter::impl::Taker::\lIterator::operator*">
<polygon fill="#ffffff" stroke="#000000" points="197.5,-333.5 197.5,-363.5 289.5,-363.5 289.5,-333.5 197.5,-333.5"/>
<text text-anchor="start" x="205.5" y="-351.5" font-family="Helvetica,sans-Serif" font-size="10.00" fill="#000000">iter::impl::Taker::</text>
<text text-anchor="middle" x="243.5" y="-340.5" font-family="Helvetica,sans-Serif" font-size="10.00" fill="#000000">Iterator::operator*</text>
</a>
</g>
</g>
<!-- Node3&#45;&gt;Node9 -->
<g id="edge6" class="edge">
<title>Node3&#45;&gt;Node9</title>
<path fill="none" stroke="#191970" d="M84.6697,-266.9011C104.261,-283.3977 136.5298,-308.605 168,-324.5 177.2076,-329.1506 187.5004,-333.1362 197.4522,-336.4472"/>
<polygon fill="#191970" stroke="#191970" points="86.7222,-264.0509 76.8488,-260.2081 82.1708,-269.3693 86.7222,-264.0509"/>
</g>
<!-- Node10 -->
<g id="node8" class="node">
<title>Node10</title>
<g id="a_node8"><a xlink:href="classiter_1_1impl_1_1Dropper_1_1Iterator.html#a437c3bc873cbcbefeaa6aab1edb79912" target="_top" xlink:title="iter::impl::Dropper\l::Iterator::operator*">
<polygon fill="#ffffff" stroke="#000000" points="194.5,-284.5 194.5,-314.5 292.5,-314.5 292.5,-284.5 194.5,-284.5"/>
<text text-anchor="start" x="202.5" y="-302.5" font-family="Helvetica,sans-Serif" font-size="10.00" fill="#000000">iter::impl::Dropper</text>
<text text-anchor="middle" x="243.5" y="-291.5" font-family="Helvetica,sans-Serif" font-size="10.00" fill="#000000">::Iterator::operator*</text>
</a>
</g>
</g>
<!-- Node3&#45;&gt;Node10 -->
<g id="edge7" class="edge">
<title>Node3&#45;&gt;Node10</title>
<path fill="none" stroke="#191970" d="M110.4133,-262.7606C135.885,-269.7922 167.9135,-278.6339 194.1669,-285.8813"/>
<polygon fill="#191970" stroke="#191970" points="111.216,-259.3513 100.6452,-260.064 109.3532,-266.0989 111.216,-259.3513"/>
</g>
<!-- Node11 -->
<g id="node9" class="node">
<title>Node11</title>
<g id="a_node9"><a xlink:href="classiter_1_1impl_1_1Filtered_1_1Iterator.html#a096c29a6235fe37d3d11dbcec37fb7ca" target="_top" xlink:title="iter::impl::Filtered\l::Iterator::operator*">
<polygon fill="#ffffff" stroke="#000000" points="194.5,-235.5 194.5,-265.5 292.5,-265.5 292.5,-235.5 194.5,-235.5"/>
<text text-anchor="start" x="202.5" y="-253.5" font-family="Helvetica,sans-Serif" font-size="10.00" fill="#000000">iter::impl::Filtered</text>
<text text-anchor="middle" x="243.5" y="-242.5" font-family="Helvetica,sans-Serif" font-size="10.00" fill="#000000">::Iterator::operator*</text>
</a>
</g>
</g>
<!-- Node3&#45;&gt;Node11 -->
<g id="edge8" class="edge">
<title>Node3&#45;&gt;Node11</title>
<path fill="none" stroke="#191970" d="M142.3531,-250.5C159.9431,-250.5 178.1958,-250.5 194.2737,-250.5"/>
<polygon fill="#191970" stroke="#191970" points="142.0945,-247.0001 132.0944,-250.5 142.0944,-254.0001 142.0945,-247.0001"/>
</g>
<!-- Node12 -->
<g id="node10" class="node">
<title>Node12</title>
<g id="a_node10"><a xlink:href="classiter_1_1impl_1_1GroupProducer_1_1Iterator.html#ac8d1b446a627b8aad23616c0e396032c" target="_top" xlink:title="iter::impl::GroupProducer\l::Iterator::set_key_group_pair">
<polygon fill="#ffffff" stroke="#000000" points="171.5,-186.5 171.5,-216.5 315.5,-216.5 315.5,-186.5 171.5,-186.5"/>
<text text-anchor="start" x="179.5" y="-204.5" font-family="Helvetica,sans-Serif" font-size="10.00" fill="#000000">iter::impl::GroupProducer</text>
<text text-anchor="middle" x="243.5" y="-193.5" font-family="Helvetica,sans-Serif" font-size="10.00" fill="#000000">::Iterator::set_key_group_pair</text>
</a>
</g>
</g>
<!-- Node3&#45;&gt;Node12 -->
<g id="edge9" class="edge">
<title>Node3&#45;&gt;Node12</title>
<path fill="none" stroke="#191970" d="M110.4748,-238.2224C134.2965,-231.6463 163.8396,-223.4908 189.0294,-216.537"/>
<polygon fill="#191970" stroke="#191970" points="109.3532,-234.9011 100.6452,-240.936 111.216,-241.6487 109.3532,-234.9011"/>
</g>
<!-- Node13 -->
<g id="node11" class="node">
<title>Node13</title>
<g id="a_node11"><a xlink:href="classiter_1_1impl_1_1Filtered_1_1Iterator.html#aa5bd86c3249e4c204f73f5886b6309e1" target="_top" xlink:title="iter::impl::Filtered\l::Iterator::skip_failures">
<polygon fill="#ffffff" stroke="#000000" points="186.5,-137.5 186.5,-167.5 300.5,-167.5 300.5,-137.5 186.5,-137.5"/>
<text text-anchor="start" x="194.5" y="-155.5" font-family="Helvetica,sans-Serif" font-size="10.00" fill="#000000">iter::impl::Filtered</text>
<text text-anchor="middle" x="243.5" y="-144.5" font-family="Helvetica,sans-Serif" font-size="10.00" fill="#000000">::Iterator::skip_failures</text>
</a>
</g>
</g>
<!-- Node3&#45;&gt;Node13 -->
<g id="edge10" class="edge">
<title>Node3&#45;&gt;Node13</title>
<path fill="none" stroke="#191970" d="M84.7479,-234.4143C104.4016,-218.2155 136.7197,-193.4078 168,-177.5 175.2614,-173.8072 183.186,-170.4886 191.0824,-167.568"/>
<polygon fill="#191970" stroke="#191970" points="82.3212,-231.8811 76.8991,-240.9833 86.814,-237.2491 82.3212,-231.8811"/>
</g>
<!-- Node14 -->
<g id="node12" class="node">
<title>Node14</title>
<g id="a_node12"><a xlink:href="classiter_1_1impl_1_1Dropper_1_1Iterator.html#a649c7ad51ea7cb4482cb308ae562a6e7" target="_top" xlink:title="iter::impl::Dropper\l::Iterator::skip_passes">
<polygon fill="#ffffff" stroke="#000000" points="186.5,-88.5 186.5,-118.5 300.5,-118.5 300.5,-88.5 186.5,-88.5"/>
<text text-anchor="start" x="194.5" y="-106.5" font-family="Helvetica,sans-Serif" font-size="10.00" fill="#000000">iter::impl::Dropper</text>
<text text-anchor="middle" x="243.5" y="-95.5" font-family="Helvetica,sans-Serif" font-size="10.00" fill="#000000">::Iterator::skip_passes</text>
</a>
</g>
</g>
<!-- Node3&#45;&gt;Node14 -->
<g id="edge11" class="edge">
<title>Node3&#45;&gt;Node14</title>
<path fill="none" stroke="#191970" d="M76.4682,-232.1508C92.6907,-205.3199 126.411,-155.5345 168,-127.5 173.5883,-123.733 179.8034,-120.5288 186.2006,-117.8099"/>
<polygon fill="#191970" stroke="#191970" points="73.3651,-230.5226 71.301,-240.9144 79.395,-234.078 73.3651,-230.5226"/>
</g>
<!-- Node16 -->
<g id="node14" class="node">
<title>Node16</title>
<g id="a_node14"><a xlink:href="test__iterbase_8cpp.html#a32dae283a58c93428c249c6bc321a777" target="_top" xlink:title="TEST_CASE">
<polygon fill="#ffffff" stroke="#000000" points="206,-50 206,-69 281,-69 281,-50 206,-50"/>
<text text-anchor="middle" x="243.5" y="-57" font-family="Helvetica,sans-Serif" font-size="10.00" fill="#000000">TEST_CASE</text>
</a>
</g>
</g>
<!-- Node3&#45;&gt;Node16 -->
<g id="edge13" class="edge">
<title>Node3&#45;&gt;Node16</title>
<path fill="none" stroke="#191970" d="M71.8971,-231.1692C83.8731,-195.2811 114.5412,-118.388 168,-78.5 178.8331,-70.417 192.7232,-65.7496 205.629,-63.0628"/>
<polygon fill="#191970" stroke="#191970" points="68.4962,-230.313 68.776,-240.9041 75.162,-232.4502 68.4962,-230.313"/>
</g>
<!-- Node17 -->
<g id="node15" class="node">
<title>Node17</title>
<g id="a_node15"><a xlink:href="classiter_1_1impl_1_1ChainedFromIterable_1_1Iterator.html#a953149e1c64fe1f0ff4fd23b50451bff" target="_top" xlink:title="iter::impl::ChainedFromIterable\l::Iterator::update_sub_iterable">
<polygon fill="#ffffff" stroke="#000000" points="168,-.5 168,-30.5 319,-30.5 319,-.5 168,-.5"/>
<text text-anchor="start" x="176" y="-18.5" font-family="Helvetica,sans-Serif" font-size="10.00" fill="#000000">iter::impl::ChainedFromIterable</text>
<text text-anchor="middle" x="243.5" y="-7.5" font-family="Helvetica,sans-Serif" font-size="10.00" fill="#000000">::Iterator::update_sub_iterable</text>
</a>
</g>
</g>
<!-- Node3&#45;&gt;Node17 -->
<g id="edge14" class="edge">
<title>Node3&#45;&gt;Node17</title>
<path fill="none" stroke="#191970" d="M70.0577,-231.0999C79.6648,-189.9421 107.6666,-93.3314 168,-40.5 172.3629,-36.6796 177.3264,-33.4398 182.576,-30.6931"/>
<polygon fill="#191970" stroke="#191970" points="66.6226,-230.4242 67.8684,-240.9456 73.4557,-231.9437 66.6226,-230.4242"/>
</g>
<!-- Node5 -->
<g id="node3" class="node">
<title>Node5</title>
<g id="a_node3"><a xlink:href="classiter_1_1impl_1_1Taker_1_1Iterator.html#ae682d7c4d4bd2533620f5a3881d170c7" target="_top" xlink:title="iter::impl::Taker::\lIterator::Iterator">
<polygon fill="#ffffff" stroke="#000000" points="360,-504.5 360,-534.5 451,-534.5 451,-504.5 360,-504.5"/>
<text text-anchor="start" x="368" y="-522.5" font-family="Helvetica,sans-Serif" font-size="10.00" fill="#000000">iter::impl::Taker::</text>
<text text-anchor="middle" x="405.5" y="-511.5" font-family="Helvetica,sans-Serif" font-size="10.00" fill="#000000">Iterator::Iterator</text>
</a>
</g>
</g>
<!-- Node4&#45;&gt;Node5 -->
<g id="edge2" class="edge">
<title>Node4&#45;&gt;Node5</title>
<path fill="none" stroke="#191970" d="M311.1594,-505.5236C327.5573,-507.9529 344.7052,-510.4934 359.8147,-512.7318"/>
<polygon fill="#191970" stroke="#191970" points="311.4763,-502.0324 301.0713,-504.0291 310.4504,-508.9569 311.4763,-502.0324"/>
</g>
<!-- Node6 -->
<g id="node4" class="node">
<title>Node6</title>
<g id="a_node4"><a xlink:href="classiter_1_1impl_1_1Taker_1_1Iterator.html#a03b32ee18e52d575954849f50a6ccdb4" target="_top" xlink:title="iter::impl::Taker::\lIterator::operator++">
<polygon fill="#ffffff" stroke="#000000" points="355,-455.5 355,-485.5 456,-485.5 456,-455.5 355,-455.5"/>
<text text-anchor="start" x="363" y="-473.5" font-family="Helvetica,sans-Serif" font-size="10.00" fill="#000000">iter::impl::Taker::</text>
<text text-anchor="middle" x="405.5" y="-462.5" font-family="Helvetica,sans-Serif" font-size="10.00" fill="#000000">Iterator::operator++</text>
</a>
</g>
</g>
<!-- Node4&#45;&gt;Node6 -->
<g id="edge3" class="edge">
<title>Node4&#45;&gt;Node6</title>
<path fill="none" stroke="#191970" d="M311.0894,-485.0695C325.734,-482.8096 340.9803,-480.4567 354.841,-478.3178"/>
<polygon fill="#191970" stroke="#191970" points="310.4205,-481.6312 301.0713,-486.6155 311.4881,-488.5494 310.4205,-481.6312"/>
</g>
<!-- Node15 -->
<g id="node13" class="node">
<title>Node15</title>
<g id="a_node13"><a xlink:href="classiter_1_1impl_1_1Dropper_1_1Iterator.html#affbabaf36f022224da59dea4c8c0965a" target="_top" xlink:title="iter::impl::Dropper\l::Iterator::Iterator">
<polygon fill="#ffffff" stroke="#000000" points="358,-88.5 358,-118.5 453,-118.5 453,-88.5 358,-88.5"/>
<text text-anchor="start" x="366" y="-106.5" font-family="Helvetica,sans-Serif" font-size="10.00" fill="#000000">iter::impl::Dropper</text>
<text text-anchor="middle" x="405.5" y="-95.5" font-family="Helvetica,sans-Serif" font-size="10.00" fill="#000000">::Iterator::Iterator</text>
</a>
</g>
</g>
<!-- Node14&#45;&gt;Node15 -->
<g id="edge12" class="edge">
<title>Node14&#45;&gt;Node15</title>
<path fill="none" stroke="#191970" d="M310.8865,-103.5C326.7135,-103.5 343.2543,-103.5 357.9978,-103.5"/>
<polygon fill="#191970" stroke="#191970" points="310.6152,-100.0001 300.6151,-103.5 310.6151,-107.0001 310.6152,-100.0001"/>
</g>
</g>
</svg>
        <g id="navigator" transform="translate(0 0)" fill="#404254">
                <rect fill="#f2f5e9" fill-opacity="0.5" stroke="#606060" stroke-width=".5" x="0" y="0" width="60" height="60"/>
                <use id="zoomplus" xlink:href="#zoomPlus" x="17" y="9" onmousedown="handleZoom(evt,'in')"/>
                <use id="zoomminus" xlink:href="#zoomMin" x="42" y="9" onmousedown="handleZoom(evt,'out')"/>
                <use id="reset" xlink:href="#resetDef" x="30" y="36" onmousedown="handleReset()"/>
                <g id="arrowUp" xlink:href="#dirArrow" transform="translate(30 24)" onmousedown="handlePan(0,-1)">
                  <use xlink:href="#rim" fill="#404040">
                        <set attributeName="fill" to="#808080" begin="arrowUp.mouseover" end="arrowUp.mouseout"/>
                  </use>
                  <path fill="none" stroke="white" stroke-width="1.5" d="M0,-3.0v7 M-2.5,-0.5L0,-3.0L2.5,-0.5"/>
                </g>
                <g id="arrowRight" xlink:href="#dirArrow" transform="rotate(90) translate(36 -43)" onmousedown="handlePan(1,0)">
                  <use xlink:href="#rim" fill="#404040">
                        <set attributeName="fill" to="#808080" begin="arrowRight.mouseover" end="arrowRight.mouseout"/>
                  </use>
                  <path fill="none" stroke="white" stroke-width="1.5" d="M0,-3.0v7 M-2.5,-0.5L0,-3.0L2.5,-0.5"/>
                </g>
                <g id="arrowDown" xlink:href="#dirArrow" transform="rotate(180) translate(-30 -48)" onmousedown="handlePan(0,1)">
                  <use xlink:href="#rim" fill="#404040">
                        <set attributeName="fill" to="#808080" begin="arrowDown.mouseover" end="arrowDown.mouseout"/>
                  </use>
                  <path fill="none" stroke="white" stroke-width="1.5" d="M0,-3.0v7 M-2.5,-0.5L0,-3.0L2.5,-0.5"/>
                </g>
                <g id="arrowLeft" xlink:href="#dirArrow" transform="rotate(270) translate(-36 17)" onmousedown="handlePan(-1,0)">
                  <use xlink:href="#rim" fill="#404040">
                        <set attributeName="fill" to="#808080" begin="arrowLeft.mouseover" end="arrowLeft.mouseout"/>
                  </use>
                  <path fill="none" stroke="white" stroke-width="1.5" d="M0,-3.0v7 M-2.5,-0.5L0,-3.0L2.5,-0.5"/>
                </g>
        </g>
        <svg viewBox="0 0 15 15" width="100%" height="30px" preserveAspectRatio="xMaxYMin meet">
         <g id="arrow_out" transform="scale(0.3 0.3)">
          <a xlink:href="classiter_1_1impl_1_1DerefHolder_afd546af01ab32729654712885955c300_icgraph_org.svg" target="_base">
           <rect id="button" ry="5" rx="5" y="6" x="6" height="38" width="38"
                fill="#f2f5e9" fill-opacity="0.5" stroke="#606060" stroke-width="1.0"/>
           <path id="arrow"
             d="M 11.500037,31.436501 C 11.940474,20.09759 22.043105,11.32322 32.158766,21.979434 L 37.068811,17.246167 C 37.068811,17.246167 37.088388,32 37.088388,32 L 22.160133,31.978069 C 22.160133,31.978069 26.997745,27.140456 26.997745,27.140456 C 18.528582,18.264221 13.291696,25.230495 11.500037,31.436501 z"
             style="fill:#404040;"/>
          </a>
         </g>
        </svg>
</svg>
