<?xml version="1.0" encoding="UTF-8" standalone="no"?>
<!DOCTYPE svg PUBLIC "-//W3C//DTD SVG 1.1//EN"
 "http://www.w3.org/Graphics/SVG/1.1/DTD/svg11.dtd">
<!-- Generated by graphviz version 2.40.1 (20161225.0304)
 -->
<!-- Title: xn::grAdaptor::grAdaptor Pages: 1 -->
<svg width="278pt" height="154pt"
 viewBox="0.00 0.00 278.00 154.00" xmlns="http://www.w3.org/2000/svg" xmlns:xlink="http://www.w3.org/1999/xlink">
<g id="graph0" class="graph" transform="scale(1 1) rotate(0) translate(4 150)">
<title>xn::grAdaptor::grAdaptor</title>
<polygon fill="#ffffff" stroke="transparent" points="-4,4 -4,-150 274,-150 274,4 -4,4"/>
<!-- Node2 -->
<g id="node1" class="node">
<title>Node2</title>
<polygon fill="#bfbfbf" stroke="#000000" points="0,-66.5 0,-85.5 123,-85.5 123,-66.5 0,-66.5"/>
<text text-anchor="middle" x="61.5" y="-73.5" font-family="Helvetica,sans-Serif" font-size="10.00" fill="#000000">xn::grAdaptor::grAdaptor</text>
</g>
<!-- Node3 -->
<g id="node2" class="node">
<title>Node3</title>
<g id="a_node2"><a xlink:href="classxn_1_1Graph.html#a3b5c7079f01f9473cb81ce8ebd3d1e05" target="_top" xlink:title="xn::Graph::add_edge">
<polygon fill="#ffffff" stroke="#000000" points="161,-126.5 161,-145.5 268,-145.5 268,-126.5 161,-126.5"/>
<text text-anchor="middle" x="214.5" y="-133.5" font-family="Helvetica,sans-Serif" font-size="10.00" fill="#000000">xn::Graph::add_edge</text>
</a>
</g>
</g>
<!-- Node2&#45;&gt;Node3 -->
<g id="edge1" class="edge">
<title>Node2&#45;&gt;Node3</title>
<path fill="none" stroke="#191970" d="M83.015,-85.5456C102.6584,-94.1414 132.5736,-106.9337 159,-117 164.294,-119.0166 169.9077,-121.0539 175.4522,-123.0076"/>
<polygon fill="#191970" stroke="#191970" points="174.6789,-126.4438 185.2736,-126.4117 176.9713,-119.8298 174.6789,-126.4438"/>
</g>
<!-- Node4 -->
<g id="node3" class="node">
<title>Node4</title>
<g id="a_node3"><a xlink:href="classxn_1_1Graph.html#a8190f6d88f8933f798828d8e063d6b12" target="_top" xlink:title="xn::Graph::degree">
<polygon fill="#ffffff" stroke="#000000" points="167,-88.5 167,-107.5 262,-107.5 262,-88.5 167,-88.5"/>
<text text-anchor="middle" x="214.5" y="-95.5" font-family="Helvetica,sans-Serif" font-size="10.00" fill="#000000">xn::Graph::degree</text>
</a>
</g>
</g>
<!-- Node2&#45;&gt;Node4 -->
<g id="edge2" class="edge">
<title>Node2&#45;&gt;Node4</title>
<path fill="none" stroke="#191970" d="M123.2899,-84.8848C134.2258,-86.4573 145.5784,-88.0897 156.4079,-89.6469"/>
<polygon fill="#191970" stroke="#191970" points="156.2033,-93.1534 166.5997,-91.1124 157.1997,-86.2247 156.2033,-93.1534"/>
</g>
<!-- Node5 -->
<g id="node4" class="node">
<title>Node5</title>
<g id="a_node4"><a xlink:href="classxn_1_1Graph.html#a59ff465d2c4744027fb12939ae162dcb" target="_top" xlink:title="Return the number of nodes : the graph. ">
<polygon fill="#ffffff" stroke="#000000" points="159,-39 159,-69 270,-69 270,-39 159,-39"/>
<text text-anchor="start" x="167" y="-57" font-family="Helvetica,sans-Serif" font-size="10.00" fill="#000000">xn::Graph::number_of</text>
<text text-anchor="middle" x="214.5" y="-46" font-family="Helvetica,sans-Serif" font-size="10.00" fill="#000000">_nodes</text>
</a>
</g>
</g>
<!-- Node2&#45;&gt;Node5 -->
<g id="edge3" class="edge">
<title>Node2&#45;&gt;Node5</title>
<path fill="none" stroke="#191970" d="M123.2899,-67.1152C131.7546,-65.898 140.4689,-64.645 148.997,-63.4187"/>
<polygon fill="#191970" stroke="#191970" points="149.4966,-66.883 158.8967,-61.9953 148.5003,-59.9542 149.4966,-66.883"/>
</g>
<!-- Node6 -->
<g id="node5" class="node">
<title>Node6</title>
<g id="a_node5"><a xlink:href="classxn_1_1Graph.html#aa52862be660affb17c76e914a7e6ce27" target="_top" xlink:title="Return a dict of neighbors of node n. ">
<polygon fill="#ffffff" stroke="#000000" points="161,-.5 161,-19.5 268,-19.5 268,-.5 161,-.5"/>
<text text-anchor="middle" x="214.5" y="-7.5" font-family="Helvetica,sans-Serif" font-size="10.00" fill="#000000">xn::Graph::operator[]</text>
</a>
</g>
</g>
<!-- Node2&#45;&gt;Node6 -->
<g id="edge4" class="edge">
<title>Node2&#45;&gt;Node6</title>
<path fill="none" stroke="#191970" d="M80.3168,-66.469C99.7799,-56.7661 131.1679,-41.5497 159,-30 164.636,-27.6612 170.6546,-25.3278 176.5726,-23.1239"/>
<polygon fill="#191970" stroke="#191970" points="178.1552,-26.2723 186.3517,-19.5591 175.7578,-19.6957 178.1552,-26.2723"/>
</g>
</g>
</svg>
