<?xml version="1.0" encoding="UTF-8" standalone="no"?>
<!DOCTYPE svg PUBLIC "-//W3C//DTD SVG 1.1//EN"
 "http://www.w3.org/Graphics/SVG/1.1/DTD/svg11.dtd">
<!-- Generated by graphviz version 2.40.1 (20161225.0304)
 -->
<!-- Title: iter::impl::Sliced&lt; Container, DifferenceType &gt; Pages: 1 -->
<svg width="157pt" height="270pt"
 viewBox="0.00 0.00 157.00 270.00" xmlns="http://www.w3.org/2000/svg" xmlns:xlink="http://www.w3.org/1999/xlink">
<g id="graph0" class="graph" transform="scale(1 1) rotate(0) translate(4 266)">
<title>iter::impl::Sliced&lt; Container, DifferenceType &gt;</title>
<polygon fill="#ffffff" stroke="transparent" points="-4,4 -4,-266 153,-266 153,4 -4,4"/>
<!-- Node1 -->
<g id="node1" class="node">
<title>Node1</title>
<polygon fill="#bfbfbf" stroke="#000000" points="0,-.5 0,-156.5 149,-156.5 149,-.5 0,-.5"/>
<text text-anchor="start" x="8" y="-144.5" font-family="Helvetica,sans-Serif" font-size="10.00" fill="#000000">iter::impl::Sliced</text>
<text text-anchor="middle" x="74.5" y="-133.5" font-family="Helvetica,sans-Serif" font-size="10.00" fill="#000000">&lt; Container, DifferenceType &gt;</text>
<polyline fill="none" stroke="#000000" points="0,-126.5 149,-126.5 "/>
<text text-anchor="start" x="8" y="-114.5" font-family="Helvetica,sans-Serif" font-size="10.00" fill="#000000">&#45; start_</text>
<text text-anchor="start" x="8" y="-103.5" font-family="Helvetica,sans-Serif" font-size="10.00" fill="#000000">&#45; stop_</text>
<text text-anchor="start" x="8" y="-92.5" font-family="Helvetica,sans-Serif" font-size="10.00" fill="#000000">&#45; step_</text>
<text text-anchor="start" x="8" y="-81.5" font-family="Helvetica,sans-Serif" font-size="10.00" fill="#000000">&#45; SliceFn</text>
<polyline fill="none" stroke="#000000" points="0,-74.5 149,-74.5 "/>
<text text-anchor="start" x="8" y="-62.5" font-family="Helvetica,sans-Serif" font-size="10.00" fill="#000000">+ Sliced()</text>
<text text-anchor="start" x="8" y="-51.5" font-family="Helvetica,sans-Serif" font-size="10.00" fill="#000000">+ begin()</text>
<text text-anchor="start" x="8" y="-40.5" font-family="Helvetica,sans-Serif" font-size="10.00" fill="#000000">+ end()</text>
<text text-anchor="start" x="8" y="-29.5" font-family="Helvetica,sans-Serif" font-size="10.00" fill="#000000">+ begin()</text>
<text text-anchor="start" x="8" y="-18.5" font-family="Helvetica,sans-Serif" font-size="10.00" fill="#000000">+ end()</text>
<text text-anchor="start" x="8" y="-7.5" font-family="Helvetica,sans-Serif" font-size="10.00" fill="#000000">&#45; Sliced()</text>
</g>
<!-- Node2 -->
<g id="node2" class="node">
<title>Node2</title>
<polygon fill="#ffffff" stroke="#bfbfbf" points="45,-204.5 45,-261.5 104,-261.5 104,-204.5 45,-204.5"/>
<text text-anchor="middle" x="74.5" y="-249.5" font-family="Helvetica,sans-Serif" font-size="10.00" fill="#000000">Container</text>
<polyline fill="none" stroke="#bfbfbf" points="45,-242.5 104,-242.5 "/>
<text text-anchor="middle" x="74.5" y="-230.5" font-family="Helvetica,sans-Serif" font-size="10.00" fill="#000000"> </text>
<polyline fill="none" stroke="#bfbfbf" points="45,-223.5 104,-223.5 "/>
<text text-anchor="middle" x="74.5" y="-211.5" font-family="Helvetica,sans-Serif" font-size="10.00" fill="#000000"> </text>
</g>
<!-- Node2&#45;&gt;Node1 -->
<g id="edge1" class="edge">
<title>Node2&#45;&gt;Node1</title>
<path fill="none" stroke="#404040" d="M74.5,-204.3018C74.5,-193.9853 74.5,-181.726 74.5,-168.9711"/>
<polygon fill="none" stroke="#404040" points="74.5001,-168.6376 70.5,-162.6376 74.5,-156.6376 78.5,-162.6375 74.5001,-168.6376"/>
<text text-anchor="middle" x="100.5" y="-178" font-family="Helvetica,sans-Serif" font-size="10.00" fill="#000000"> &#45;container_</text>
</g>
</g>
</svg>
