<?xml version="1.0" encoding="UTF-8" standalone="no"?>
<!DOCTYPE svg PUBLIC "-//W3C//DTD SVG 1.1//EN"
 "http://www.w3.org/Graphics/SVG/1.1/DTD/svg11.dtd">
<!-- Generated by graphviz version 2.40.1 (20161225.0304)
 -->
<!-- Title: iter::impl::Taker::Iterator::Iterator Pages: 1 -->
<svg width="418pt" height="88pt"
 viewBox="0.00 0.00 418.00 88.00" xmlns="http://www.w3.org/2000/svg" xmlns:xlink="http://www.w3.org/1999/xlink">
<g id="graph0" class="graph" transform="scale(1 1) rotate(0) translate(4 84)">
<title>iter::impl::Taker::Iterator::Iterator</title>
<polygon fill="#ffffff" stroke="transparent" points="-4,4 -4,-84 414,-84 414,4 -4,4"/>
<!-- Node0 -->
<g id="node1" class="node">
<title>Node0</title>
<polygon fill="#bfbfbf" stroke="#000000" points="0,-24.5 0,-54.5 91,-54.5 91,-24.5 0,-24.5"/>
<text text-anchor="start" x="8" y="-42.5" font-family="Helvetica,sans-Serif" font-size="10.00" fill="#000000">iter::impl::Taker::</text>
<text text-anchor="middle" x="45.5" y="-31.5" font-family="Helvetica,sans-Serif" font-size="10.00" fill="#000000">Iterator::Iterator</text>
</g>
<!-- Node1 -->
<g id="node2" class="node">
<title>Node1</title>
<g id="a_node2"><a xlink:href="classiter_1_1impl_1_1Taker_1_1Iterator.html#a462bc927b2ea55d38345fc76b6e9a5ff" target="_top" xlink:title="iter::impl::Taker::\lIterator::check_current">
<polygon fill="#ffffff" stroke="#000000" points="127,-49.5 127,-79.5 242,-79.5 242,-49.5 127,-49.5"/>
<text text-anchor="start" x="135" y="-67.5" font-family="Helvetica,sans-Serif" font-size="10.00" fill="#000000">iter::impl::Taker::</text>
<text text-anchor="middle" x="184.5" y="-56.5" font-family="Helvetica,sans-Serif" font-size="10.00" fill="#000000">Iterator::check_current</text>
</a>
</g>
</g>
<!-- Node0&#45;&gt;Node1 -->
<g id="edge1" class="edge">
<title>Node0&#45;&gt;Node1</title>
<path fill="none" stroke="#191970" d="M91.0138,-47.6859C99.2976,-49.1758 108.0996,-50.7589 116.8621,-52.3349"/>
<polygon fill="#191970" stroke="#191970" points="116.2471,-55.7804 126.7088,-54.1059 117.4863,-48.8909 116.2471,-55.7804"/>
</g>
<!-- Node3 -->
<g id="node4" class="node">
<title>Node3</title>
<g id="a_node4"><a xlink:href="classiter_1_1impl_1_1DerefHolder.html#a4a12f16da7c4abfcce96d056604e59f3" target="_top" xlink:title="iter::impl::DerefHolder\l::reset">
<polygon fill="#ffffff" stroke="#000000" points="128,-.5 128,-30.5 241,-30.5 241,-.5 128,-.5"/>
<text text-anchor="start" x="136" y="-18.5" font-family="Helvetica,sans-Serif" font-size="10.00" fill="#000000">iter::impl::DerefHolder</text>
<text text-anchor="middle" x="184.5" y="-7.5" font-family="Helvetica,sans-Serif" font-size="10.00" fill="#000000">::reset</text>
</a>
</g>
</g>
<!-- Node0&#45;&gt;Node3 -->
<g id="edge3" class="edge">
<title>Node0&#45;&gt;Node3</title>
<path fill="none" stroke="#191970" d="M91.0138,-31.6415C99.5277,-30.1715 108.589,-28.6069 117.5923,-27.0524"/>
<polygon fill="#191970" stroke="#191970" points="118.4416,-30.4576 127.7002,-25.3072 117.2505,-23.5597 118.4416,-30.4576"/>
</g>
<!-- Node2 -->
<g id="node3" class="node">
<title>Node2</title>
<g id="a_node3"><a xlink:href="classiter_1_1impl_1_1DerefHolder.html#afd546af01ab32729654712885955c300" target="_top" xlink:title="iter::impl::DerefHolder::get">
<polygon fill="#ffffff" stroke="#000000" points="278,-55 278,-74 410,-74 410,-55 278,-55"/>
<text text-anchor="middle" x="344" y="-62" font-family="Helvetica,sans-Serif" font-size="10.00" fill="#000000">iter::impl::DerefHolder::get</text>
</a>
</g>
</g>
<!-- Node1&#45;&gt;Node2 -->
<g id="edge2" class="edge">
<title>Node1&#45;&gt;Node2</title>
<path fill="none" stroke="#191970" d="M242.0832,-64.5C250.4208,-64.5 259.1096,-64.5 267.7436,-64.5"/>
<polygon fill="#191970" stroke="#191970" points="267.8298,-68.0001 277.8298,-64.5 267.8298,-61.0001 267.8298,-68.0001"/>
</g>
</g>
</svg>
