<?xml version="1.0" encoding="UTF-8" standalone="no"?>
<!DOCTYPE svg PUBLIC "-//W3C//DTD SVG 1.1//EN"
 "http://www.w3.org/Graphics/SVG/1.1/DTD/svg11.dtd">
<!-- Generated by graphviz version 2.40.1 (20161225.0304)
 -->
<!-- Title: /media/lubuntu/USBDISK/github/ckpttncpp/third_party/cppitertools/examples/combinatoric_examples.cpp Pages: 1 -->
<svg width="1267pt" height="341pt"
 viewBox="0.00 0.00 1266.95 341.00" xmlns="http://www.w3.org/2000/svg" xmlns:xlink="http://www.w3.org/1999/xlink">
<g id="graph0" class="graph" transform="scale(1 1) rotate(0) translate(4 337)">
<title>/media/lubuntu/USBDISK/github/ckpttncpp/third_party/cppitertools/examples/combinatoric_examples.cpp</title>
<polygon fill="#ffffff" stroke="transparent" points="-4,4 -4,-337 1262.9529,-337 1262.9529,4 -4,4"/>
<!-- Node0 -->
<g id="node1" class="node">
<title>Node0</title>
<polygon fill="#bfbfbf" stroke="#000000" points="640.9529,-280.5 640.9529,-332.5 782.9529,-332.5 782.9529,-280.5 640.9529,-280.5"/>
<text text-anchor="start" x="648.9529" y="-320.5" font-family="Helvetica,sans-Serif" font-size="10.00" fill="#000000">/media/lubuntu/USBDISK</text>
<text text-anchor="start" x="648.9529" y="-309.5" font-family="Helvetica,sans-Serif" font-size="10.00" fill="#000000">/github/ckpttncpp/third</text>
<text text-anchor="start" x="648.9529" y="-298.5" font-family="Helvetica,sans-Serif" font-size="10.00" fill="#000000">_party/cppitertools/examples</text>
<text text-anchor="middle" x="711.9529" y="-287.5" font-family="Helvetica,sans-Serif" font-size="10.00" fill="#000000">/combinatoric_examples.cpp</text>
</g>
<!-- Node1 -->
<g id="node2" class="node">
<title>Node1</title>
<g id="a_node2"><a xlink:href="combinations_8hpp.html" target="_top" xlink:title="combinations.hpp">
<polygon fill="#ffffff" stroke="#000000" points="242.4529,-168.5 242.4529,-187.5 335.4529,-187.5 335.4529,-168.5 242.4529,-168.5"/>
<text text-anchor="middle" x="288.9529" y="-175.5" font-family="Helvetica,sans-Serif" font-size="10.00" fill="#000000">combinations.hpp</text>
</a>
</g>
</g>
<!-- Node0&#45;&gt;Node1 -->
<g id="edge1" class="edge">
<title>Node0&#45;&gt;Node1</title>
<path fill="none" stroke="#191970" d="M640.675,-284.847C551.5118,-257.7608 401.8351,-212.2916 329.936,-190.4499"/>
<polygon fill="#191970" stroke="#191970" points="330.9069,-187.087 320.3213,-187.5292 328.8722,-193.7848 330.9069,-187.087"/>
</g>
<!-- Node11 -->
<g id="node12" class="node">
<title>Node11</title>
<polygon fill="#ffffff" stroke="#bfbfbf" points="124.9529,-112.5 124.9529,-131.5 168.9529,-131.5 168.9529,-112.5 124.9529,-112.5"/>
<text text-anchor="middle" x="146.9529" y="-119.5" font-family="Helvetica,sans-Serif" font-size="10.00" fill="#000000">vector</text>
</g>
<!-- Node0&#45;&gt;Node11 -->
<g id="edge57" class="edge">
<title>Node0&#45;&gt;Node11</title>
<path fill="none" stroke="#191970" d="M640.7584,-305.0232C483.8228,-300.1076 116.0102,-278.9241 39.9529,-188 15.2829,-158.5079 75.2351,-138.3516 115.0271,-128.6481"/>
<polygon fill="#191970" stroke="#191970" points="115.9449,-132.0282 124.8913,-126.3525 114.3582,-125.2104 115.9449,-132.0282"/>
</g>
<!-- Node12 -->
<g id="node13" class="node">
<title>Node12</title>
<g id="a_node13"><a xlink:href="combinations__with__replacement_8hpp.html" target="_top" xlink:title="combinations_with_replacement.hpp">
<polygon fill="#ffffff" stroke="#000000" points="49.4529,-168.5 49.4529,-187.5 224.4529,-187.5 224.4529,-168.5 49.4529,-168.5"/>
<text text-anchor="middle" x="136.9529" y="-175.5" font-family="Helvetica,sans-Serif" font-size="10.00" fill="#000000">combinations_with_replacement.hpp</text>
</a>
</g>
</g>
<!-- Node0&#45;&gt;Node12 -->
<g id="edge18" class="edge">
<title>Node0&#45;&gt;Node12</title>
<path fill="none" stroke="#191970" d="M640.8699,-290.6145C523.8274,-264.458 293.202,-212.9183 189.567,-189.7581"/>
<polygon fill="#191970" stroke="#191970" points="190.1679,-186.3061 179.6453,-187.5408 188.6412,-193.1376 190.1679,-186.3061"/>
</g>
<!-- Node13 -->
<g id="node14" class="node">
<title>Node13</title>
<g id="a_node14"><a xlink:href="permutations_8hpp.html" target="_top" xlink:title="permutations.hpp">
<polygon fill="#ffffff" stroke="#000000" points="624.9529,-168.5 624.9529,-187.5 716.9529,-187.5 716.9529,-168.5 624.9529,-168.5"/>
<text text-anchor="middle" x="670.9529" y="-175.5" font-family="Helvetica,sans-Serif" font-size="10.00" fill="#000000">permutations.hpp</text>
</a>
</g>
</g>
<!-- Node0&#45;&gt;Node13 -->
<g id="edge24" class="edge">
<title>Node0&#45;&gt;Node13</title>
<path fill="none" stroke="#191970" d="M703.6559,-280.4961C695.7734,-255.791 684.1061,-219.2242 677.047,-197.0998"/>
<polygon fill="#191970" stroke="#191970" points="680.3627,-195.9771 673.9885,-187.5142 673.6939,-198.1049 680.3627,-195.9771"/>
</g>
<!-- Node19 -->
<g id="node20" class="node">
<title>Node19</title>
<g id="a_node20"><a xlink:href="product_8hpp.html" target="_top" xlink:title="product.hpp">
<polygon fill="#ffffff" stroke="#000000" points="920.9529,-224.5 920.9529,-243.5 988.9529,-243.5 988.9529,-224.5 920.9529,-224.5"/>
<text text-anchor="middle" x="954.9529" y="-231.5" font-family="Helvetica,sans-Serif" font-size="10.00" fill="#000000">product.hpp</text>
</a>
</g>
</g>
<!-- Node0&#45;&gt;Node19 -->
<g id="edge37" class="edge">
<title>Node0&#45;&gt;Node19</title>
<path fill="none" stroke="#191970" d="M783.219,-285.2375C825.4618,-272.6342 877.5374,-257.0972 913.198,-246.4577"/>
<polygon fill="#191970" stroke="#191970" points="914.2171,-249.8062 922.799,-243.5932 912.2157,-243.0984 914.2171,-249.8062"/>
</g>
<!-- Node22 -->
<g id="node23" class="node">
<title>Node22</title>
<g id="a_node23"><a xlink:href="powerset_8hpp.html" target="_top" xlink:title="powerset.hpp">
<polygon fill="#ffffff" stroke="#000000" points="707.4529,-224.5 707.4529,-243.5 782.4529,-243.5 782.4529,-224.5 707.4529,-224.5"/>
<text text-anchor="middle" x="744.9529" y="-231.5" font-family="Helvetica,sans-Serif" font-size="10.00" fill="#000000">powerset.hpp</text>
</a>
</g>
</g>
<!-- Node0&#45;&gt;Node22 -->
<g id="edge48" class="edge">
<title>Node0&#45;&gt;Node22</title>
<path fill="none" stroke="#191970" d="M723.8666,-280.3258C728.0142,-271.2138 732.5817,-261.179 736.4022,-252.7857"/>
<polygon fill="#191970" stroke="#191970" points="739.656,-254.0855 740.6133,-243.534 733.2849,-251.1855 739.656,-254.0855"/>
</g>
<!-- Node24 -->
<g id="node25" class="node">
<title>Node24</title>
<polygon fill="#ffffff" stroke="#bfbfbf" points="1007.4529,-224.5 1007.4529,-243.5 1048.4529,-243.5 1048.4529,-224.5 1007.4529,-224.5"/>
<text text-anchor="middle" x="1027.9529" y="-231.5" font-family="Helvetica,sans-Serif" font-size="10.00" fill="#000000">string</text>
</g>
<!-- Node0&#45;&gt;Node24 -->
<g id="edge58" class="edge">
<title>Node0&#45;&gt;Node24</title>
<path fill="none" stroke="#191970" d="M782.9857,-293.1673C838.7831,-282.1925 918.5588,-265.3984 997.2904,-243.9539"/>
<polygon fill="#191970" stroke="#191970" points="998.6713,-247.2042 1007.3847,-241.177 996.8145,-240.4549 998.6713,-247.2042"/>
</g>
<!-- Node25 -->
<g id="node26" class="node">
<title>Node25</title>
<polygon fill="#ffffff" stroke="#bfbfbf" points="1066.9529,-224.5 1066.9529,-243.5 1120.9529,-243.5 1120.9529,-224.5 1066.9529,-224.5"/>
<text text-anchor="middle" x="1093.9529" y="-231.5" font-family="Helvetica,sans-Serif" font-size="10.00" fill="#000000">iostream</text>
</g>
<!-- Node0&#45;&gt;Node25 -->
<g id="edge59" class="edge">
<title>Node0&#45;&gt;Node25</title>
<path fill="none" stroke="#191970" d="M783.2465,-295.5943C851.2134,-284.7495 956.5782,-266.7745 1056.8914,-244.0866"/>
<polygon fill="#191970" stroke="#191970" points="1057.9233,-247.4412 1066.8943,-241.8045 1056.3662,-240.6166 1057.9233,-247.4412"/>
</g>
<!-- Node2 -->
<g id="node3" class="node">
<title>Node2</title>
<g id="a_node3"><a xlink:href="iteratoriterator_8hpp.html" target="_top" xlink:title="internal/iteratoriterator.hpp">
<polygon fill="#ffffff" stroke="#000000" points="338.9529,-112.5 338.9529,-131.5 468.9529,-131.5 468.9529,-112.5 338.9529,-112.5"/>
<text text-anchor="middle" x="403.9529" y="-119.5" font-family="Helvetica,sans-Serif" font-size="10.00" fill="#000000">internal/iteratoriterator.hpp</text>
</a>
</g>
</g>
<!-- Node1&#45;&gt;Node2 -->
<g id="edge2" class="edge">
<title>Node1&#45;&gt;Node2</title>
<path fill="none" stroke="#191970" d="M308.7221,-168.3733C327.0998,-159.4241 354.6841,-145.9917 375.4421,-135.8835"/>
<polygon fill="#191970" stroke="#191970" points="376.9833,-139.026 384.4417,-131.5011 373.9186,-132.7325 376.9833,-139.026"/>
</g>
<!-- Node3 -->
<g id="node4" class="node">
<title>Node3</title>
<polygon fill="#ffffff" stroke="#bfbfbf" points="325.4529,-.5 325.4529,-19.5 372.4529,-19.5 372.4529,-.5 325.4529,-.5"/>
<text text-anchor="middle" x="348.9529" y="-7.5" font-family="Helvetica,sans-Serif" font-size="10.00" fill="#000000">iterator</text>
</g>
<!-- Node1&#45;&gt;Node3 -->
<g id="edge15" class="edge">
<title>Node1&#45;&gt;Node3</title>
<path fill="none" stroke="#191970" d="M280.1668,-168.2709C272.8843,-159.5036 263.0824,-145.8915 258.9529,-132 249.328,-99.6225 241.3222,-84.8114 258.9529,-56 271.2545,-35.8973 295.4207,-24.2265 315.6161,-17.6735"/>
<polygon fill="#191970" stroke="#191970" points="316.8361,-20.9628 325.4358,-14.7744 314.854,-14.2492 316.8361,-20.9628"/>
</g>
<!-- Node4 -->
<g id="node5" class="node">
<title>Node4</title>
<polygon fill="#ffffff" stroke="#bfbfbf" points="165.9529,-.5 165.9529,-19.5 227.9529,-19.5 227.9529,-.5 165.9529,-.5"/>
<text text-anchor="middle" x="196.9529" y="-7.5" font-family="Helvetica,sans-Serif" font-size="10.00" fill="#000000">type_traits</text>
</g>
<!-- Node1&#45;&gt;Node4 -->
<g id="edge16" class="edge">
<title>Node1&#45;&gt;Node4</title>
<path fill="none" stroke="#191970" d="M278.441,-168.2057C269.447,-159.3968 256.6175,-145.76 247.9529,-132 226.7479,-98.3253 210.876,-54.3163 202.8375,-29.4091"/>
<polygon fill="#191970" stroke="#191970" points="206.125,-28.1953 199.7916,-19.7019 199.4461,-30.2911 206.125,-28.1953"/>
</g>
<!-- Node6 -->
<g id="node7" class="node">
<title>Node6</title>
<g id="a_node7"><a xlink:href="iterbase_8hpp.html" target="_top" xlink:title="iterbase.hpp">
<polygon fill="#ffffff" stroke="#000000" points="624.9529,-56.5 624.9529,-75.5 694.9529,-75.5 694.9529,-56.5 624.9529,-56.5"/>
<text text-anchor="middle" x="659.9529" y="-63.5" font-family="Helvetica,sans-Serif" font-size="10.00" fill="#000000">iterbase.hpp</text>
</a>
</g>
</g>
<!-- Node1&#45;&gt;Node6 -->
<g id="edge14" class="edge">
<title>Node1&#45;&gt;Node6</title>
<path fill="none" stroke="#191970" d="M335.8356,-174.8121C388.946,-170.0468 477.409,-158.5846 548.9529,-132 582.6048,-119.4954 617.5861,-96.8122 639.068,-81.5759"/>
<polygon fill="#191970" stroke="#191970" points="641.3482,-84.2464 647.4047,-75.5533 637.249,-78.5721 641.3482,-84.2464"/>
</g>
<!-- Node1&#45;&gt;Node11 -->
<g id="edge17" class="edge">
<title>Node1&#45;&gt;Node11</title>
<path fill="none" stroke="#191970" d="M264.5422,-168.3733C240.7761,-159.0007 204.5408,-144.7107 178.5782,-134.472"/>
<polygon fill="#191970" stroke="#191970" points="179.765,-131.1777 169.1782,-130.7649 177.1969,-137.6896 179.765,-131.1777"/>
</g>
<!-- Node2&#45;&gt;Node3 -->
<g id="edge3" class="edge">
<title>Node2&#45;&gt;Node3</title>
<path fill="none" stroke="#191970" d="M399.2636,-112.4509C390.1715,-93.936 369.9998,-52.8591 358.1451,-28.7187"/>
<polygon fill="#191970" stroke="#191970" points="361.1799,-26.9582 353.6303,-19.5249 354.8966,-30.0438 361.1799,-26.9582"/>
</g>
<!-- Node2&#45;&gt;Node4 -->
<g id="edge4" class="edge">
<title>Node2&#45;&gt;Node4</title>
<path fill="none" stroke="#191970" d="M386.3042,-112.4509C349.9459,-92.7788 266.5129,-47.6363 223.5681,-24.4005"/>
<polygon fill="#191970" stroke="#191970" points="225.0176,-21.2054 214.5569,-19.5249 221.6865,-27.362 225.0176,-21.2054"/>
</g>
<!-- Node5 -->
<g id="node6" class="node">
<title>Node5</title>
<polygon fill="#ffffff" stroke="#bfbfbf" points="702.9529,-.5 702.9529,-19.5 742.9529,-19.5 742.9529,-.5 702.9529,-.5"/>
<text text-anchor="middle" x="722.9529" y="-7.5" font-family="Helvetica,sans-Serif" font-size="10.00" fill="#000000">utility</text>
</g>
<!-- Node2&#45;&gt;Node5 -->
<g id="edge5" class="edge">
<title>Node2&#45;&gt;Node5</title>
<path fill="none" stroke="#191970" d="M431.1506,-112.4509C490.5241,-91.6051 631.3574,-42.1589 693.088,-20.4855"/>
<polygon fill="#191970" stroke="#191970" points="694.3586,-23.7489 702.6345,-17.1337 692.0397,-17.1441 694.3586,-23.7489"/>
</g>
<!-- Node2&#45;&gt;Node6 -->
<g id="edge6" class="edge">
<title>Node2&#45;&gt;Node6</title>
<path fill="none" stroke="#191970" d="M447.67,-112.4369C494.2353,-102.2507 567.5901,-86.2044 614.7251,-75.8936"/>
<polygon fill="#191970" stroke="#191970" points="615.6353,-79.2773 624.6564,-73.7211 614.1394,-72.439 615.6353,-79.2773"/>
</g>
<!-- Node6&#45;&gt;Node3 -->
<g id="edge9" class="edge">
<title>Node6&#45;&gt;Node3</title>
<path fill="none" stroke="#191970" d="M624.8818,-59.6849C564.6386,-48.8373 442.2595,-26.8012 382.8409,-16.102"/>
<polygon fill="#191970" stroke="#191970" points="383.3082,-12.6299 372.8462,-14.3023 382.0676,-19.5192 383.3082,-12.6299"/>
</g>
<!-- Node6&#45;&gt;Node4 -->
<g id="edge12" class="edge">
<title>Node6&#45;&gt;Node4</title>
<path fill="none" stroke="#191970" d="M624.7726,-61.7449C540.6317,-51.5681 328.0948,-25.8617 238.161,-14.9841"/>
<polygon fill="#191970" stroke="#191970" points="238.4186,-11.4899 228.0707,-13.7637 237.578,-18.4392 238.4186,-11.4899"/>
</g>
<!-- Node6&#45;&gt;Node5 -->
<g id="edge13" class="edge">
<title>Node6&#45;&gt;Node5</title>
<path fill="none" stroke="#191970" d="M670.9266,-56.2455C680.1411,-48.0549 693.5061,-36.1749 704.3826,-26.5069"/>
<polygon fill="#191970" stroke="#191970" points="706.956,-28.9023 712.1049,-19.6427 702.3055,-23.6704 706.956,-28.9023"/>
</g>
<!-- Node7 -->
<g id="node8" class="node">
<title>Node7</title>
<polygon fill="#ffffff" stroke="#bfbfbf" points="635.4529,-.5 635.4529,-19.5 684.4529,-19.5 684.4529,-.5 635.4529,-.5"/>
<text text-anchor="middle" x="659.9529" y="-7.5" font-family="Helvetica,sans-Serif" font-size="10.00" fill="#000000">cstddef</text>
</g>
<!-- Node6&#45;&gt;Node7 -->
<g id="edge7" class="edge">
<title>Node6&#45;&gt;Node7</title>
<path fill="none" stroke="#191970" d="M659.9529,-56.2455C659.9529,-48.9382 659.9529,-38.6944 659.9529,-29.7046"/>
<polygon fill="#191970" stroke="#191970" points="663.453,-29.6426 659.9529,-19.6427 656.453,-29.6427 663.453,-29.6426"/>
</g>
<!-- Node8 -->
<g id="node9" class="node">
<title>Node8</title>
<polygon fill="#ffffff" stroke="#bfbfbf" points="1107.4529,-.5 1107.4529,-19.5 1166.4529,-19.5 1166.4529,-.5 1107.4529,-.5"/>
<text text-anchor="middle" x="1136.9529" y="-7.5" font-family="Helvetica,sans-Serif" font-size="10.00" fill="#000000">functional</text>
</g>
<!-- Node6&#45;&gt;Node8 -->
<g id="edge8" class="edge">
<title>Node6&#45;&gt;Node8</title>
<path fill="none" stroke="#191970" d="M695.0278,-61.8822C781.8307,-51.6915 1006.238,-25.346 1097.4894,-14.633"/>
<polygon fill="#191970" stroke="#191970" points="1097.9072,-18.1081 1107.4309,-13.4659 1097.091,-11.1559 1097.9072,-18.1081"/>
</g>
<!-- Node9 -->
<g id="node10" class="node">
<title>Node9</title>
<polygon fill="#ffffff" stroke="#bfbfbf" points="566.9529,-.5 566.9529,-19.5 616.9529,-19.5 616.9529,-.5 566.9529,-.5"/>
<text text-anchor="middle" x="591.9529" y="-7.5" font-family="Helvetica,sans-Serif" font-size="10.00" fill="#000000">optional</text>
</g>
<!-- Node6&#45;&gt;Node9 -->
<g id="edge10" class="edge">
<title>Node6&#45;&gt;Node9</title>
<path fill="none" stroke="#191970" d="M648.1082,-56.2455C638.0649,-47.9746 623.4534,-35.9416 611.6525,-26.2232"/>
<polygon fill="#191970" stroke="#191970" points="613.6062,-23.298 603.6618,-19.6427 609.1562,-28.7015 613.6062,-23.298"/>
</g>
<!-- Node10 -->
<g id="node11" class="node">
<title>Node10</title>
<polygon fill="#ffffff" stroke="#bfbfbf" points="1220.9529,-.5 1220.9529,-19.5 1258.9529,-19.5 1258.9529,-.5 1220.9529,-.5"/>
<text text-anchor="middle" x="1239.9529" y="-7.5" font-family="Helvetica,sans-Serif" font-size="10.00" fill="#000000">tuple</text>
</g>
<!-- Node6&#45;&gt;Node10 -->
<g id="edge11" class="edge">
<title>Node6&#45;&gt;Node10</title>
<path fill="none" stroke="#191970" d="M695.0739,-63.6734C778.6059,-57.9645 995.6263,-42.1013 1175.9529,-20 1187.3725,-18.6004 1199.8859,-16.7224 1210.7951,-14.9719"/>
<polygon fill="#191970" stroke="#191970" points="1211.3727,-18.424 1220.6749,-13.3524 1210.2404,-11.5162 1211.3727,-18.424"/>
</g>
<!-- Node12&#45;&gt;Node2 -->
<g id="edge19" class="edge">
<title>Node12&#45;&gt;Node2</title>
<path fill="none" stroke="#191970" d="M182.5484,-168.4369C228.5314,-158.7925 299.5617,-143.8948 348.7135,-133.5858"/>
<polygon fill="#191970" stroke="#191970" points="349.4768,-137.0019 358.5454,-131.5237 348.0399,-130.151 349.4768,-137.0019"/>
</g>
<!-- Node12&#45;&gt;Node3 -->
<g id="edge21" class="edge">
<title>Node12&#45;&gt;Node3</title>
<path fill="none" stroke="#191970" d="M129.0302,-168.3415C118.9679,-154.8246 104.2398,-129.9139 115.9529,-112 160.5835,-43.7423 262.0872,-20.8838 315.1746,-13.4453"/>
<polygon fill="#191970" stroke="#191970" points="315.6494,-16.9132 325.1154,-12.1544 314.7479,-9.9715 315.6494,-16.9132"/>
</g>
<!-- Node12&#45;&gt;Node4 -->
<g id="edge22" class="edge">
<title>Node12&#45;&gt;Node4</title>
<path fill="none" stroke="#191970" d="M118.9929,-168.3701C106.3204,-160.4681 90.3362,-147.9885 82.9529,-132 68.7917,-101.3341 64.0584,-83.9988 82.9529,-56 99.1834,-31.9488 130.3266,-20.4697 155.9657,-14.9927"/>
<polygon fill="#191970" stroke="#191970" points="156.6682,-18.4219 165.8372,-13.1135 155.3591,-11.5454 156.6682,-18.4219"/>
</g>
<!-- Node12&#45;&gt;Node6 -->
<g id="edge20" class="edge">
<title>Node12&#45;&gt;Node6</title>
<path fill="none" stroke="#191970" d="M223.2908,-168.4842C308.0383,-158.7595 431.1812,-143.4948 477.9529,-132 532.4008,-118.6186 593.1696,-94.6519 628.9021,-79.5771"/>
<polygon fill="#191970" stroke="#191970" points="630.4625,-82.7167 638.2905,-75.5772 627.7188,-76.2768 630.4625,-82.7167"/>
</g>
<!-- Node12&#45;&gt;Node11 -->
<g id="edge23" class="edge">
<title>Node12&#45;&gt;Node11</title>
<path fill="none" stroke="#191970" d="M138.6948,-168.2455C139.9996,-160.9382 141.8289,-150.6944 143.4342,-141.7046"/>
<polygon fill="#191970" stroke="#191970" points="146.9185,-142.1022 145.231,-131.6427 140.0275,-140.8717 146.9185,-142.1022"/>
</g>
<!-- Node13&#45;&gt;Node2 -->
<g id="edge30" class="edge">
<title>Node13&#45;&gt;Node2</title>
<path fill="none" stroke="#191970" d="M625.3573,-168.4369C579.3743,-158.7925 508.3441,-143.8948 459.1922,-133.5858"/>
<polygon fill="#191970" stroke="#191970" points="459.8659,-130.151 449.3604,-131.5237 458.429,-137.0019 459.8659,-130.151"/>
</g>
<!-- Node13&#45;&gt;Node3 -->
<g id="edge34" class="edge">
<title>Node13&#45;&gt;Node3</title>
<path fill="none" stroke="#191970" d="M652.7182,-168.4862C598.9366,-140.4263 440.7186,-57.8778 376.5057,-24.3754"/>
<polygon fill="#191970" stroke="#191970" points="377.8716,-21.1403 367.3867,-19.6177 374.6336,-27.3464 377.8716,-21.1403"/>
</g>
<!-- Node13&#45;&gt;Node5 -->
<g id="edge35" class="edge">
<title>Node13&#45;&gt;Node5</title>
<path fill="none" stroke="#191970" d="M674.1508,-168.4703C680.1682,-150.4624 693.5085,-110.1748 703.9529,-76 708.6902,-60.499 713.7538,-42.8504 717.4614,-29.7058"/>
<polygon fill="#191970" stroke="#191970" points="720.8896,-30.4433 720.22,-19.8696 714.1496,-28.553 720.8896,-30.4433"/>
</g>
<!-- Node13&#45;&gt;Node6 -->
<g id="edge31" class="edge">
<title>Node13&#45;&gt;Node6</title>
<path fill="none" stroke="#191970" d="M670.3732,-168.1452C669.5754,-155.232 668.0019,-131.8894 665.9529,-112 665.0677,-103.4078 663.8711,-93.9412 662.7794,-85.841"/>
<polygon fill="#191970" stroke="#191970" points="666.2348,-85.2772 661.3948,-75.8525 659.3011,-86.2384 666.2348,-85.2772"/>
</g>
<!-- Node13&#45;&gt;Node11 -->
<g id="edge36" class="edge">
<title>Node13&#45;&gt;Node11</title>
<path fill="none" stroke="#191970" d="M624.9106,-173.0795C520.6383,-161.9359 268.5827,-134.9986 179.1157,-125.4372"/>
<polygon fill="#191970" stroke="#191970" points="179.3473,-121.9422 169.032,-124.3596 178.6034,-128.9025 179.3473,-121.9422"/>
</g>
<!-- Node14 -->
<g id="node15" class="node">
<title>Node14</title>
<g id="a_node15"><a xlink:href="iterator__wrapper_8hpp.html" target="_top" xlink:title="internal/iterator_wrapper.hpp">
<polygon fill="#ffffff" stroke="#000000" points="1032.9529,-112.5 1032.9529,-131.5 1172.9529,-131.5 1172.9529,-112.5 1032.9529,-112.5"/>
<text text-anchor="middle" x="1102.9529" y="-119.5" font-family="Helvetica,sans-Serif" font-size="10.00" fill="#000000">internal/iterator_wrapper.hpp</text>
</a>
</g>
</g>
<!-- Node13&#45;&gt;Node14 -->
<g id="edge25" class="edge">
<title>Node13&#45;&gt;Node14</title>
<path fill="none" stroke="#191970" d="M717.1845,-172.007C790.1208,-162.5523 932.8225,-144.0539 1022.7313,-132.3991"/>
<polygon fill="#191970" stroke="#191970" points="1023.4171,-135.8396 1032.8841,-131.083 1022.5171,-128.8977 1023.4171,-135.8396"/>
</g>
<!-- Node17 -->
<g id="node18" class="node">
<title>Node17</title>
<polygon fill="#ffffff" stroke="#bfbfbf" points="600.9529,-112.5 600.9529,-131.5 656.9529,-131.5 656.9529,-112.5 600.9529,-112.5"/>
<text text-anchor="middle" x="628.9529" y="-119.5" font-family="Helvetica,sans-Serif" font-size="10.00" fill="#000000">algorithm</text>
</g>
<!-- Node13&#45;&gt;Node17 -->
<g id="edge32" class="edge">
<title>Node13&#45;&gt;Node17</title>
<path fill="none" stroke="#191970" d="M663.637,-168.2455C657.735,-160.3761 649.2786,-149.101 642.1935,-139.6542"/>
<polygon fill="#191970" stroke="#191970" points="644.9849,-137.5427 636.1849,-131.6427 639.3849,-141.7427 644.9849,-137.5427"/>
</g>
<!-- Node18 -->
<g id="node19" class="node">
<title>Node18</title>
<polygon fill="#ffffff" stroke="#bfbfbf" points="751.4529,-112.5 751.4529,-131.5 824.4529,-131.5 824.4529,-112.5 751.4529,-112.5"/>
<text text-anchor="middle" x="787.9529" y="-119.5" font-family="Helvetica,sans-Serif" font-size="10.00" fill="#000000">initializer_list</text>
</g>
<!-- Node13&#45;&gt;Node18 -->
<g id="edge33" class="edge">
<title>Node13&#45;&gt;Node18</title>
<path fill="none" stroke="#191970" d="M691.0659,-168.3733C709.7632,-159.4241 737.8273,-145.9917 758.9463,-135.8835"/>
<polygon fill="#191970" stroke="#191970" points="760.5933,-138.9755 768.1023,-131.5011 757.5712,-132.6614 760.5933,-138.9755"/>
</g>
<!-- Node14&#45;&gt;Node6 -->
<g id="edge29" class="edge">
<title>Node14&#45;&gt;Node6</title>
<path fill="none" stroke="#191970" d="M1032.7582,-113.1266C941.0676,-101.5359 783.1169,-81.5693 705.5827,-71.7681"/>
<polygon fill="#191970" stroke="#191970" points="705.5513,-68.2364 695.1913,-70.4545 704.6733,-75.1811 705.5513,-68.2364"/>
</g>
<!-- Node14&#45;&gt;Node8 -->
<g id="edge27" class="edge">
<title>Node14&#45;&gt;Node8</title>
<path fill="none" stroke="#191970" d="M1106.2714,-112.1611C1109.3794,-102.8685 1114.1085,-88.5274 1117.9529,-76 1122.7082,-60.5045 1127.7707,-42.8555 1131.4733,-29.7094"/>
<polygon fill="#191970" stroke="#191970" points="1134.9018,-30.4451 1134.227,-19.8718 1128.1609,-28.5581 1134.9018,-30.4451"/>
</g>
<!-- Node15 -->
<g id="node16" class="node">
<title>Node15</title>
<polygon fill="#ffffff" stroke="#bfbfbf" points="995.4529,-56.5 995.4529,-75.5 1044.4529,-75.5 1044.4529,-56.5 995.4529,-56.5"/>
<text text-anchor="middle" x="1019.9529" y="-63.5" font-family="Helvetica,sans-Serif" font-size="10.00" fill="#000000">cassert</text>
</g>
<!-- Node14&#45;&gt;Node15 -->
<g id="edge26" class="edge">
<title>Node14&#45;&gt;Node15</title>
<path fill="none" stroke="#191970" d="M1088.4954,-112.2455C1075.8797,-103.7337 1057.3584,-91.2375 1042.7484,-81.3801"/>
<polygon fill="#191970" stroke="#191970" points="1044.4919,-78.3343 1034.2447,-75.6427 1040.5768,-84.1371 1044.4919,-78.3343"/>
</g>
<!-- Node16 -->
<g id="node17" class="node">
<title>Node16</title>
<polygon fill="#ffffff" stroke="#bfbfbf" points="1062.9529,-56.5 1062.9529,-75.5 1108.9529,-75.5 1108.9529,-56.5 1062.9529,-56.5"/>
<text text-anchor="middle" x="1085.9529" y="-63.5" font-family="Helvetica,sans-Serif" font-size="10.00" fill="#000000">variant</text>
</g>
<!-- Node14&#45;&gt;Node16 -->
<g id="edge28" class="edge">
<title>Node14&#45;&gt;Node16</title>
<path fill="none" stroke="#191970" d="M1099.9917,-112.2455C1097.749,-104.8579 1094.5952,-94.4689 1091.8448,-85.4087"/>
<polygon fill="#191970" stroke="#191970" points="1095.1341,-84.1948 1088.8801,-75.6427 1088.4359,-86.2282 1095.1341,-84.1948"/>
</g>
<!-- Node19&#45;&gt;Node3 -->
<g id="edge45" class="edge">
<title>Node19&#45;&gt;Node3</title>
<path fill="none" stroke="#191970" d="M920.6767,-231.0215C795.461,-219.7949 368.0778,-178.3139 329.9529,-132 305.5508,-102.3565 324.5972,-54.4699 338.2384,-28.3807"/>
<polygon fill="#191970" stroke="#191970" points="341.3519,-29.9822 343.0999,-19.5325 335.217,-26.6113 341.3519,-29.9822"/>
</g>
<!-- Node19&#45;&gt;Node5 -->
<g id="edge47" class="edge">
<title>Node19&#45;&gt;Node5</title>
<path fill="none" stroke="#191970" d="M989.0303,-226.0977C992.3788,-225.3686 995.7291,-224.6576 998.9529,-224 1042.9861,-215.0179 1169.1424,-222.49 1197.9529,-188 1211.2368,-172.0974 1196.8609,-135.5096 1181.9529,-112 1161.712,-80.0806 1152.5043,-71.3213 1117.9529,-56 1052.5687,-27.0063 834.2709,-14.8123 753.4164,-11.2167"/>
<polygon fill="#191970" stroke="#191970" points="753.5249,-7.7183 743.3832,-10.7837 753.223,-14.7118 753.5249,-7.7183"/>
</g>
<!-- Node19&#45;&gt;Node6 -->
<g id="edge43" class="edge">
<title>Node19&#45;&gt;Node6</title>
<path fill="none" stroke="#191970" d="M949.7752,-224.2703C936.8227,-200.9261 900.6081,-141.4946 852.9529,-112 828.5479,-96.8954 754.1321,-81.9632 705.1576,-73.3796"/>
<polygon fill="#191970" stroke="#191970" points="705.57,-69.8991 695.1203,-71.6466 704.3789,-76.7971 705.57,-69.8991"/>
</g>
<!-- Node19&#45;&gt;Node10 -->
<g id="edge46" class="edge">
<title>Node19&#45;&gt;Node10</title>
<path fill="none" stroke="#191970" d="M989.0214,-226.0536C992.3718,-225.3333 995.7249,-224.6365 998.9529,-224 1046.4806,-214.6281 1180.0577,-222.6097 1213.9529,-188 1255.9359,-145.132 1249.5474,-66.3524 1243.7457,-29.7084"/>
<polygon fill="#191970" stroke="#191970" points="1247.18,-29.0277 1242.0183,-19.7753 1240.2835,-30.2271 1247.18,-29.0277"/>
</g>
<!-- Node19&#45;&gt;Node14 -->
<g id="edge42" class="edge">
<title>Node19&#45;&gt;Node14</title>
<path fill="none" stroke="#191970" d="M989.041,-226.1493C992.3874,-225.4097 995.7342,-224.6822 998.9529,-224 1080.0437,-206.8128 1129.2991,-252.021 1181.9529,-188 1199.2408,-166.9799 1168.0056,-147.613 1139.8591,-135.3707"/>
<polygon fill="#191970" stroke="#191970" points="1141.0851,-132.0903 1130.5067,-131.5 1138.4081,-138.5582 1141.0851,-132.0903"/>
</g>
<!-- Node20 -->
<g id="node21" class="node">
<title>Node20</title>
<g id="a_node21"><a xlink:href="iter__tuples_8hpp.html" target="_top" xlink:title="internal/iter_tuples.hpp">
<polygon fill="#ffffff" stroke="#000000" points="1057.4529,-168.5 1057.4529,-187.5 1172.4529,-187.5 1172.4529,-168.5 1057.4529,-168.5"/>
<text text-anchor="middle" x="1114.9529" y="-175.5" font-family="Helvetica,sans-Serif" font-size="10.00" fill="#000000">internal/iter_tuples.hpp</text>
</a>
</g>
</g>
<!-- Node19&#45;&gt;Node20 -->
<g id="edge38" class="edge">
<title>Node19&#45;&gt;Node20</title>
<path fill="none" stroke="#191970" d="M982.4579,-224.3733C1008.8331,-215.1419 1048.838,-201.1402 1077.9887,-190.9375"/>
<polygon fill="#191970" stroke="#191970" points="1079.5245,-194.1082 1087.8068,-187.5011 1077.212,-187.5012 1079.5245,-194.1082"/>
</g>
<!-- Node21 -->
<g id="node22" class="node">
<title>Node21</title>
<polygon fill="#ffffff" stroke="#bfbfbf" points="1000.9529,-168.5 1000.9529,-187.5 1038.9529,-187.5 1038.9529,-168.5 1000.9529,-168.5"/>
<text text-anchor="middle" x="1019.9529" y="-175.5" font-family="Helvetica,sans-Serif" font-size="10.00" fill="#000000">array</text>
</g>
<!-- Node19&#45;&gt;Node21 -->
<g id="edge44" class="edge">
<title>Node19&#45;&gt;Node21</title>
<path fill="none" stroke="#191970" d="M966.275,-224.2455C975.8752,-215.9746 989.8421,-203.9416 1001.1224,-194.2232"/>
<polygon fill="#191970" stroke="#191970" points="1003.4689,-196.8214 1008.7605,-187.6427 998.8999,-191.5182 1003.4689,-196.8214"/>
</g>
<!-- Node20&#45;&gt;Node6 -->
<g id="edge40" class="edge">
<title>Node20&#45;&gt;Node6</title>
<path fill="none" stroke="#191970" d="M1088.0622,-168.4157C1048.3974,-154.5384 971.6875,-128.6889 904.9529,-112 835.9663,-94.7479 754.6055,-80.6918 705.1754,-72.8362"/>
<polygon fill="#191970" stroke="#191970" points="705.5506,-69.3523 695.1281,-71.2551 704.4624,-76.2672 705.5506,-69.3523"/>
</g>
<!-- Node20&#45;&gt;Node8 -->
<g id="edge41" class="edge">
<title>Node20&#45;&gt;Node8</title>
<path fill="none" stroke="#191970" d="M1139.4241,-168.3462C1154.6636,-160.9011 1173.0141,-148.9799 1181.9529,-132 1200.5914,-96.5949 1171.8533,-51.7375 1152.4047,-27.4858"/>
<polygon fill="#191970" stroke="#191970" points="1154.8624,-24.9687 1145.7646,-19.539 1149.4907,-29.457 1154.8624,-24.9687"/>
</g>
<!-- Node20&#45;&gt;Node14 -->
<g id="edge39" class="edge">
<title>Node20&#45;&gt;Node14</title>
<path fill="none" stroke="#191970" d="M1112.8626,-168.2455C1111.2968,-160.9382 1109.1017,-150.6944 1107.1753,-141.7046"/>
<polygon fill="#191970" stroke="#191970" points="1110.5368,-140.6873 1105.0192,-131.6427 1103.6922,-142.1541 1110.5368,-140.6873"/>
</g>
<!-- Node22&#45;&gt;Node1 -->
<g id="edge49" class="edge">
<title>Node22&#45;&gt;Node1</title>
<path fill="none" stroke="#191970" d="M707.2988,-230.205C636.9622,-222.985 480.8851,-206.3459 349.9529,-188 348.4916,-187.7952 347.0112,-187.5836 345.5182,-187.3665"/>
<polygon fill="#191970" stroke="#191970" points="345.9548,-183.8929 335.5455,-185.8673 344.9141,-190.8151 345.9548,-183.8929"/>
</g>
<!-- Node22&#45;&gt;Node3 -->
<g id="edge53" class="edge">
<title>Node22&#45;&gt;Node3</title>
<path fill="none" stroke="#191970" d="M707.2633,-231.1625C627.9418,-224.8636 446.28,-208.6259 387.9529,-188 376.7599,-184.0419 302.7442,-142.3639 296.9529,-132 276.8726,-96.065 310.2035,-50.8175 332.1357,-26.7926"/>
<polygon fill="#191970" stroke="#191970" points="334.7056,-29.169 339.0429,-19.5027 329.6243,-24.3544 334.7056,-29.169"/>
</g>
<!-- Node22&#45;&gt;Node4 -->
<g id="edge55" class="edge">
<title>Node22&#45;&gt;Node4</title>
<path fill="none" stroke="#191970" d="M707.448,-232.9591C564.8105,-228.8212 62.962,-212.5593 39.9529,-188 12.8983,-159.1227 -46.6542,-182.718 68.9529,-56 91.2775,-31.5298 127.5678,-20.065 155.8162,-14.7002"/>
<polygon fill="#191970" stroke="#191970" points="156.5534,-18.125 165.8189,-12.9869 155.3715,-11.2255 156.5534,-18.125"/>
</g>
<!-- Node22&#45;&gt;Node5 -->
<g id="edge56" class="edge">
<title>Node22&#45;&gt;Node5</title>
<path fill="none" stroke="#191970" d="M782.4864,-228.7054C807.0537,-223.0795 837.3883,-211.547 852.9529,-188 871.5788,-159.8217 867.7287,-142.3745 852.9529,-112 832.141,-69.2173 783.7357,-39.0588 752.2229,-23.123"/>
<polygon fill="#191970" stroke="#191970" points="753.5562,-19.8791 743.0346,-18.6358 750.4844,-26.1691 753.5562,-19.8791"/>
</g>
<!-- Node22&#45;&gt;Node6 -->
<g id="edge50" class="edge">
<title>Node22&#45;&gt;Node6</title>
<path fill="none" stroke="#191970" d="M782.5925,-224.6157C801.5057,-217.7901 822.7372,-206.422 833.9529,-188 851.5181,-159.1486 854.5603,-138.7633 833.9529,-112 818.3128,-91.6878 751.2346,-78.5158 705.0852,-71.6758"/>
<polygon fill="#191970" stroke="#191970" points="705.4,-68.1853 695.0048,-70.2322 704.4076,-75.1146 705.4,-68.1853"/>
</g>
<!-- Node22&#45;&gt;Node15 -->
<g id="edge51" class="edge">
<title>Node22&#45;&gt;Node15</title>
<path fill="none" stroke="#191970" d="M782.5373,-229.1737C833.9516,-221.9664 922.8232,-207.1623 948.9529,-188 984.3681,-162.0281 1004.9933,-112.6318 1014.1801,-85.335"/>
<polygon fill="#191970" stroke="#191970" points="1017.5364,-86.3301 1017.2418,-75.7393 1010.8676,-84.2023 1017.5364,-86.3301"/>
</g>
<!-- Node22&#45;&gt;Node18 -->
<g id="edge52" class="edge">
<title>Node22&#45;&gt;Node18</title>
<path fill="none" stroke="#191970" d="M747.0758,-224.4006C750.1002,-211.3728 756.1573,-187.484 763.9529,-168 767.7047,-158.6228 772.774,-148.6355 777.287,-140.3713"/>
<polygon fill="#191970" stroke="#191970" points="780.3677,-142.0335 782.2171,-131.6013 774.2658,-138.6032 780.3677,-142.0335"/>
</g>
<!-- Node23 -->
<g id="node24" class="node">
<title>Node23</title>
<polygon fill="#ffffff" stroke="#bfbfbf" points="772.9529,-168.5 772.9529,-187.5 824.9529,-187.5 824.9529,-168.5 772.9529,-168.5"/>
<text text-anchor="middle" x="798.9529" y="-175.5" font-family="Helvetica,sans-Serif" font-size="10.00" fill="#000000">memory</text>
</g>
<!-- Node22&#45;&gt;Node23 -->
<g id="edge54" class="edge">
<title>Node22&#45;&gt;Node23</title>
<path fill="none" stroke="#191970" d="M754.359,-224.2455C762.1022,-216.2155 773.2649,-204.6394 782.4847,-195.0781"/>
<polygon fill="#191970" stroke="#191970" points="785.2327,-197.2706 789.6546,-187.6427 780.1937,-192.4117 785.2327,-197.2706"/>
</g>
</g>
</svg>
