<?xml version="1.0" encoding="UTF-8" standalone="no"?>
<!DOCTYPE svg PUBLIC "-//W3C//DTD SVG 1.1//EN"
 "http://www.w3.org/Graphics/SVG/1.1/DTD/svg11.dtd">
<!-- Generated by graphviz version 2.40.1 (20161225.0304)
 -->
<!-- Title: /media/lubuntu/USBDISK/github/ckpttncpp/third_party/cppitertools/examples/count_examples.cpp Pages: 1 -->
<svg width="477pt" height="285pt"
 viewBox="0.00 0.00 477.00 285.00" xmlns="http://www.w3.org/2000/svg" xmlns:xlink="http://www.w3.org/1999/xlink">
<g id="graph0" class="graph" transform="scale(1 1) rotate(0) translate(4 281)">
<title>/media/lubuntu/USBDISK/github/ckpttncpp/third_party/cppitertools/examples/count_examples.cpp</title>
<polygon fill="#ffffff" stroke="transparent" points="-4,4 -4,-281 473,-281 473,4 -4,4"/>
<!-- Node0 -->
<g id="node1" class="node">
<title>Node0</title>
<polygon fill="#bfbfbf" stroke="#000000" points="314.5,-224.5 314.5,-276.5 456.5,-276.5 456.5,-224.5 314.5,-224.5"/>
<text text-anchor="start" x="322.5" y="-264.5" font-family="Helvetica,sans-Serif" font-size="10.00" fill="#000000">/media/lubuntu/USBDISK</text>
<text text-anchor="start" x="322.5" y="-253.5" font-family="Helvetica,sans-Serif" font-size="10.00" fill="#000000">/github/ckpttncpp/third</text>
<text text-anchor="start" x="322.5" y="-242.5" font-family="Helvetica,sans-Serif" font-size="10.00" fill="#000000">_party/cppitertools/examples</text>
<text text-anchor="middle" x="385.5" y="-231.5" font-family="Helvetica,sans-Serif" font-size="10.00" fill="#000000">/count_examples.cpp</text>
</g>
<!-- Node1 -->
<g id="node2" class="node">
<title>Node1</title>
<g id="a_node2"><a xlink:href="count_8hpp.html" target="_top" xlink:title="count.hpp">
<polygon fill="#ffffff" stroke="#000000" points="319,-168.5 319,-187.5 378,-187.5 378,-168.5 319,-168.5"/>
<text text-anchor="middle" x="348.5" y="-175.5" font-family="Helvetica,sans-Serif" font-size="10.00" fill="#000000">count.hpp</text>
</a>
</g>
</g>
<!-- Node0&#45;&gt;Node1 -->
<g id="edge1" class="edge">
<title>Node0&#45;&gt;Node1</title>
<path fill="none" stroke="#191970" d="M372.1422,-224.3258C367.4407,-215.1136 362.2581,-204.9584 357.9463,-196.5096"/>
<polygon fill="#191970" stroke="#191970" points="361.0289,-194.8501 353.3656,-187.534 354.7939,-198.0321 361.0289,-194.8501"/>
</g>
<!-- Node14 -->
<g id="node15" class="node">
<title>Node14</title>
<polygon fill="#ffffff" stroke="#bfbfbf" points="396.5,-168.5 396.5,-187.5 450.5,-187.5 450.5,-168.5 396.5,-168.5"/>
<text text-anchor="middle" x="423.5" y="-175.5" font-family="Helvetica,sans-Serif" font-size="10.00" fill="#000000">iostream</text>
</g>
<!-- Node0&#45;&gt;Node14 -->
<g id="edge16" class="edge">
<title>Node0&#45;&gt;Node14</title>
<path fill="none" stroke="#191970" d="M399.2189,-224.3258C404.0473,-215.1136 409.3701,-204.9584 413.7984,-196.5096"/>
<polygon fill="#191970" stroke="#191970" points="416.9605,-198.016 418.5029,-187.534 410.7605,-194.7663 416.9605,-198.016"/>
</g>
<!-- Node2 -->
<g id="node3" class="node">
<title>Node2</title>
<g id="a_node3"><a xlink:href="range_8hpp.html" target="_top" xlink:title="range.hpp">
<polygon fill="#ffffff" stroke="#000000" points="285,-112.5 285,-131.5 344,-131.5 344,-112.5 285,-112.5"/>
<text text-anchor="middle" x="314.5" y="-119.5" font-family="Helvetica,sans-Serif" font-size="10.00" fill="#000000">range.hpp</text>
</a>
</g>
</g>
<!-- Node1&#45;&gt;Node2 -->
<g id="edge2" class="edge">
<title>Node1&#45;&gt;Node2</title>
<path fill="none" stroke="#191970" d="M342.5777,-168.2455C337.8973,-160.5367 331.2327,-149.5598 325.5711,-140.2348"/>
<polygon fill="#191970" stroke="#191970" points="328.5361,-138.3741 320.3545,-131.6427 322.5525,-142.007 328.5361,-138.3741"/>
</g>
<!-- Node13 -->
<g id="node14" class="node">
<title>Node13</title>
<polygon fill="#ffffff" stroke="#bfbfbf" points="362.5,-112.5 362.5,-131.5 402.5,-131.5 402.5,-112.5 362.5,-112.5"/>
<text text-anchor="middle" x="382.5" y="-119.5" font-family="Helvetica,sans-Serif" font-size="10.00" fill="#000000">limits</text>
</g>
<!-- Node1&#45;&gt;Node13 -->
<g id="edge15" class="edge">
<title>Node1&#45;&gt;Node13</title>
<path fill="none" stroke="#191970" d="M354.4223,-168.2455C359.1027,-160.5367 365.7673,-149.5598 371.4289,-140.2348"/>
<polygon fill="#191970" stroke="#191970" points="374.4475,-142.007 376.6455,-131.6427 368.4639,-138.3741 374.4475,-142.007"/>
</g>
<!-- Node3 -->
<g id="node4" class="node">
<title>Node3</title>
<g id="a_node4"><a xlink:href="iterbase_8hpp.html" target="_top" xlink:title="internal/iterbase.hpp">
<polygon fill="#ffffff" stroke="#000000" points="182.5,-56.5 182.5,-75.5 286.5,-75.5 286.5,-56.5 182.5,-56.5"/>
<text text-anchor="middle" x="234.5" y="-63.5" font-family="Helvetica,sans-Serif" font-size="10.00" fill="#000000">internal/iterbase.hpp</text>
</a>
</g>
</g>
<!-- Node2&#45;&gt;Node3 -->
<g id="edge3" class="edge">
<title>Node2&#45;&gt;Node3</title>
<path fill="none" stroke="#191970" d="M300.5651,-112.2455C288.4053,-103.7337 270.5536,-91.2375 256.4715,-81.3801"/>
<polygon fill="#191970" stroke="#191970" points="258.4747,-78.51 248.2752,-75.6427 254.4605,-84.2447 258.4747,-78.51"/>
</g>
<!-- Node6 -->
<g id="node7" class="node">
<title>Node6</title>
<polygon fill="#ffffff" stroke="#bfbfbf" points="0,-.5 0,-19.5 47,-19.5 47,-.5 0,-.5"/>
<text text-anchor="middle" x="23.5" y="-7.5" font-family="Helvetica,sans-Serif" font-size="10.00" fill="#000000">iterator</text>
</g>
<!-- Node2&#45;&gt;Node6 -->
<g id="edge13" class="edge">
<title>Node2&#45;&gt;Node6</title>
<path fill="none" stroke="#191970" d="M284.7661,-113.2385C256.0233,-104.5493 211.384,-90.4733 173.5,-76 130.812,-59.6914 82.6431,-37.8666 52.6749,-23.8673"/>
<polygon fill="#191970" stroke="#191970" points="54.154,-20.6952 43.6144,-19.614 51.1793,-27.0318 54.154,-20.6952"/>
</g>
<!-- Node9 -->
<g id="node10" class="node">
<title>Node9</title>
<polygon fill="#ffffff" stroke="#bfbfbf" points="391.5,-.5 391.5,-19.5 453.5,-19.5 453.5,-.5 391.5,-.5"/>
<text text-anchor="middle" x="422.5" y="-7.5" font-family="Helvetica,sans-Serif" font-size="10.00" fill="#000000">type_traits</text>
</g>
<!-- Node2&#45;&gt;Node9 -->
<g id="edge14" class="edge">
<title>Node2&#45;&gt;Node9</title>
<path fill="none" stroke="#191970" d="M315.107,-112.3917C316.4506,-98.4845 320.7539,-72.5981 334.5,-56 346.725,-41.2385 364.9294,-30.6226 381.6138,-23.3355"/>
<polygon fill="#191970" stroke="#191970" points="383.2673,-26.4411 391.2049,-19.4236 380.6236,-19.9595 383.2673,-26.4411"/>
</g>
<!-- Node11 -->
<g id="node12" class="node">
<title>Node11</title>
<polygon fill="#ffffff" stroke="#bfbfbf" points="343,-56.5 343,-75.5 392,-75.5 392,-56.5 343,-56.5"/>
<text text-anchor="middle" x="367.5" y="-63.5" font-family="Helvetica,sans-Serif" font-size="10.00" fill="#000000">cassert</text>
</g>
<!-- Node2&#45;&gt;Node11 -->
<g id="edge11" class="edge">
<title>Node2&#45;&gt;Node11</title>
<path fill="none" stroke="#191970" d="M323.7319,-112.2455C331.3317,-104.2155 342.2877,-92.6394 351.3368,-83.0781"/>
<polygon fill="#191970" stroke="#191970" points="354.0421,-85.3115 358.3739,-75.6427 348.958,-80.4998 354.0421,-85.3115"/>
</g>
<!-- Node12 -->
<g id="node13" class="node">
<title>Node12</title>
<polygon fill="#ffffff" stroke="#bfbfbf" points="410,-56.5 410,-75.5 469,-75.5 469,-56.5 410,-56.5"/>
<text text-anchor="middle" x="439.5" y="-63.5" font-family="Helvetica,sans-Serif" font-size="10.00" fill="#000000">exception</text>
</g>
<!-- Node2&#45;&gt;Node12 -->
<g id="edge12" class="edge">
<title>Node2&#45;&gt;Node12</title>
<path fill="none" stroke="#191970" d="M335.9883,-112.3733C356.144,-103.3435 386.488,-89.7494 409.118,-79.6111"/>
<polygon fill="#191970" stroke="#191970" points="410.5971,-82.7838 418.2921,-75.5011 407.7351,-76.3955 410.5971,-82.7838"/>
</g>
<!-- Node4 -->
<g id="node5" class="node">
<title>Node4</title>
<polygon fill="#ffffff" stroke="#bfbfbf" points="65,-.5 65,-19.5 114,-19.5 114,-.5 65,-.5"/>
<text text-anchor="middle" x="89.5" y="-7.5" font-family="Helvetica,sans-Serif" font-size="10.00" fill="#000000">cstddef</text>
</g>
<!-- Node3&#45;&gt;Node4 -->
<g id="edge4" class="edge">
<title>Node3&#45;&gt;Node4</title>
<path fill="none" stroke="#191970" d="M209.5736,-56.3733C185.8798,-47.2226 150.0489,-33.3844 123.6932,-23.2057"/>
<polygon fill="#191970" stroke="#191970" points="124.6906,-19.8389 114.1011,-19.5011 122.1686,-26.3689 124.6906,-19.8389"/>
</g>
<!-- Node5 -->
<g id="node6" class="node">
<title>Node5</title>
<polygon fill="#ffffff" stroke="#bfbfbf" points="132,-.5 132,-19.5 191,-19.5 191,-.5 132,-.5"/>
<text text-anchor="middle" x="161.5" y="-7.5" font-family="Helvetica,sans-Serif" font-size="10.00" fill="#000000">functional</text>
</g>
<!-- Node3&#45;&gt;Node5 -->
<g id="edge5" class="edge">
<title>Node3&#45;&gt;Node5</title>
<path fill="none" stroke="#191970" d="M221.7844,-56.2455C210.898,-47.8943 195.0117,-35.7076 182.28,-25.9408"/>
<polygon fill="#191970" stroke="#191970" points="184.1346,-22.9523 174.0699,-19.6427 179.8739,-28.5063 184.1346,-22.9523"/>
</g>
<!-- Node3&#45;&gt;Node6 -->
<g id="edge6" class="edge">
<title>Node3&#45;&gt;Node6</title>
<path fill="none" stroke="#191970" d="M194.8829,-56.4387C160.6379,-48.0358 109.5989,-35.184 57.0508,-20.3543"/>
<polygon fill="#191970" stroke="#191970" points="57.8009,-16.9289 47.225,-17.5629 55.8879,-23.6625 57.8009,-16.9289"/>
</g>
<!-- Node7 -->
<g id="node8" class="node">
<title>Node7</title>
<polygon fill="#ffffff" stroke="#bfbfbf" points="209.5,-.5 209.5,-19.5 259.5,-19.5 259.5,-.5 209.5,-.5"/>
<text text-anchor="middle" x="234.5" y="-7.5" font-family="Helvetica,sans-Serif" font-size="10.00" fill="#000000">optional</text>
</g>
<!-- Node3&#45;&gt;Node7 -->
<g id="edge7" class="edge">
<title>Node3&#45;&gt;Node7</title>
<path fill="none" stroke="#191970" d="M234.5,-56.2455C234.5,-48.9382 234.5,-38.6944 234.5,-29.7046"/>
<polygon fill="#191970" stroke="#191970" points="238.0001,-29.6426 234.5,-19.6427 231.0001,-29.6427 238.0001,-29.6426"/>
</g>
<!-- Node8 -->
<g id="node9" class="node">
<title>Node8</title>
<polygon fill="#ffffff" stroke="#bfbfbf" points="277.5,-.5 277.5,-19.5 315.5,-19.5 315.5,-.5 277.5,-.5"/>
<text text-anchor="middle" x="296.5" y="-7.5" font-family="Helvetica,sans-Serif" font-size="10.00" fill="#000000">tuple</text>
</g>
<!-- Node3&#45;&gt;Node8 -->
<g id="edge8" class="edge">
<title>Node3&#45;&gt;Node8</title>
<path fill="none" stroke="#191970" d="M245.2996,-56.2455C254.3678,-48.0549 267.5206,-36.1749 278.2245,-26.5069"/>
<polygon fill="#191970" stroke="#191970" points="280.7491,-28.9429 285.8242,-19.6427 276.0571,-23.7482 280.7491,-28.9429"/>
</g>
<!-- Node3&#45;&gt;Node9 -->
<g id="edge9" class="edge">
<title>Node3&#45;&gt;Node9</title>
<path fill="none" stroke="#191970" d="M266.8184,-56.3733C298.5417,-46.9238 347.0458,-32.4757 381.4738,-22.2206"/>
<polygon fill="#191970" stroke="#191970" points="382.6434,-25.5242 391.2281,-19.315 380.645,-18.8155 382.6434,-25.5242"/>
</g>
<!-- Node10 -->
<g id="node11" class="node">
<title>Node10</title>
<polygon fill="#ffffff" stroke="#bfbfbf" points="333.5,-.5 333.5,-19.5 373.5,-19.5 373.5,-.5 333.5,-.5"/>
<text text-anchor="middle" x="353.5" y="-7.5" font-family="Helvetica,sans-Serif" font-size="10.00" fill="#000000">utility</text>
</g>
<!-- Node3&#45;&gt;Node10 -->
<g id="edge10" class="edge">
<title>Node3&#45;&gt;Node10</title>
<path fill="none" stroke="#191970" d="M254.9568,-56.3733C273.9738,-47.4241 302.5175,-33.9917 323.9976,-23.8835"/>
<polygon fill="#191970" stroke="#191970" points="325.7522,-26.926 333.3101,-19.5011 322.7716,-20.5923 325.7522,-26.926"/>
</g>
</g>
</svg>
