<?xml version="1.0" encoding="UTF-8" standalone="no"?>
<!DOCTYPE svg PUBLIC "-//W3C//DTD SVG 1.1//EN"
 "http://www.w3.org/Graphics/SVG/1.1/DTD/svg11.dtd">
<!-- Generated by graphviz version 2.40.1 (20161225.0304)
 -->
<!-- Title: /media/lubuntu/USBDISK/github/ckpttncpp/third_party/cppitertools/examples/filterfalse_examples.cpp Pages: 1 -->
<svg width="627pt" height="341pt"
 viewBox="0.00 0.00 627.49 341.00" xmlns="http://www.w3.org/2000/svg" xmlns:xlink="http://www.w3.org/1999/xlink">
<g id="graph0" class="graph" transform="scale(1 1) rotate(0) translate(4 337)">
<title>/media/lubuntu/USBDISK/github/ckpttncpp/third_party/cppitertools/examples/filterfalse_examples.cpp</title>
<polygon fill="#ffffff" stroke="transparent" points="-4,4 -4,-337 623.4859,-337 623.4859,4 -4,4"/>
<!-- Node0 -->
<g id="node1" class="node">
<title>Node0</title>
<polygon fill="#bfbfbf" stroke="#000000" points="424.4859,-280.5 424.4859,-332.5 566.4859,-332.5 566.4859,-280.5 424.4859,-280.5"/>
<text text-anchor="start" x="432.4859" y="-320.5" font-family="Helvetica,sans-Serif" font-size="10.00" fill="#000000">/media/lubuntu/USBDISK</text>
<text text-anchor="start" x="432.4859" y="-309.5" font-family="Helvetica,sans-Serif" font-size="10.00" fill="#000000">/github/ckpttncpp/third</text>
<text text-anchor="start" x="432.4859" y="-298.5" font-family="Helvetica,sans-Serif" font-size="10.00" fill="#000000">_party/cppitertools/examples</text>
<text text-anchor="middle" x="495.4859" y="-287.5" font-family="Helvetica,sans-Serif" font-size="10.00" fill="#000000">/filterfalse_examples.cpp</text>
</g>
<!-- Node1 -->
<g id="node2" class="node">
<title>Node1</title>
<g id="a_node2"><a xlink:href="filterfalse_8hpp.html" target="_top" xlink:title="filterfalse.hpp">
<polygon fill="#ffffff" stroke="#000000" points="350.9859,-224.5 350.9859,-243.5 425.9859,-243.5 425.9859,-224.5 350.9859,-224.5"/>
<text text-anchor="middle" x="388.4859" y="-231.5" font-family="Helvetica,sans-Serif" font-size="10.00" fill="#000000">filterfalse.hpp</text>
</a>
</g>
</g>
<!-- Node0&#45;&gt;Node1 -->
<g id="edge1" class="edge">
<title>Node0&#45;&gt;Node1</title>
<path fill="none" stroke="#191970" d="M456.8565,-280.3258C441.4872,-269.912 424.3392,-258.2931 411.0614,-249.2965"/>
<polygon fill="#191970" stroke="#191970" points="412.7987,-246.2459 402.5568,-243.534 408.8721,-252.0409 412.7987,-246.2459"/>
</g>
<!-- Node15 -->
<g id="node16" class="node">
<title>Node15</title>
<polygon fill="#ffffff" stroke="#bfbfbf" points="443.4859,-224.5 443.4859,-243.5 487.4859,-243.5 487.4859,-224.5 443.4859,-224.5"/>
<text text-anchor="middle" x="465.4859" y="-231.5" font-family="Helvetica,sans-Serif" font-size="10.00" fill="#000000">vector</text>
</g>
<!-- Node0&#45;&gt;Node15 -->
<g id="edge23" class="edge">
<title>Node0&#45;&gt;Node15</title>
<path fill="none" stroke="#191970" d="M484.6552,-280.3258C480.8847,-271.2138 476.7324,-261.179 473.2593,-252.7857"/>
<polygon fill="#191970" stroke="#191970" points="476.4887,-251.4359 469.431,-243.534 470.0206,-254.1124 476.4887,-251.4359"/>
</g>
<!-- Node16 -->
<g id="node17" class="node">
<title>Node16</title>
<polygon fill="#ffffff" stroke="#bfbfbf" points="505.9859,-224.5 505.9859,-243.5 546.9859,-243.5 546.9859,-224.5 505.9859,-224.5"/>
<text text-anchor="middle" x="526.4859" y="-231.5" font-family="Helvetica,sans-Serif" font-size="10.00" fill="#000000">string</text>
</g>
<!-- Node0&#45;&gt;Node16 -->
<g id="edge24" class="edge">
<title>Node0&#45;&gt;Node16</title>
<path fill="none" stroke="#191970" d="M506.6776,-280.3258C510.5738,-271.2138 514.8646,-261.179 518.4534,-252.7857"/>
<polygon fill="#191970" stroke="#191970" points="521.6959,-254.1048 522.4093,-243.534 515.2596,-251.3527 521.6959,-254.1048"/>
</g>
<!-- Node17 -->
<g id="node18" class="node">
<title>Node17</title>
<polygon fill="#ffffff" stroke="#bfbfbf" points="565.4859,-224.5 565.4859,-243.5 619.4859,-243.5 619.4859,-224.5 565.4859,-224.5"/>
<text text-anchor="middle" x="592.4859" y="-231.5" font-family="Helvetica,sans-Serif" font-size="10.00" fill="#000000">iostream</text>
</g>
<!-- Node0&#45;&gt;Node17 -->
<g id="edge25" class="edge">
<title>Node0&#45;&gt;Node17</title>
<path fill="none" stroke="#191970" d="M530.5052,-280.3258C544.3041,-270.0122 559.6846,-258.5165 571.6721,-249.5567"/>
<polygon fill="#191970" stroke="#191970" points="573.8156,-252.3243 579.7301,-243.534 569.6248,-246.7174 573.8156,-252.3243"/>
</g>
<!-- Node2 -->
<g id="node3" class="node">
<title>Node2</title>
<g id="a_node3"><a xlink:href="filter_8hpp.html" target="_top" xlink:title="filter.hpp">
<polygon fill="#ffffff" stroke="#000000" points="246.4859,-168.5 246.4859,-187.5 300.4859,-187.5 300.4859,-168.5 246.4859,-168.5"/>
<text text-anchor="middle" x="273.4859" y="-175.5" font-family="Helvetica,sans-Serif" font-size="10.00" fill="#000000">filter.hpp</text>
</a>
</g>
</g>
<!-- Node1&#45;&gt;Node2 -->
<g id="edge2" class="edge">
<title>Node1&#45;&gt;Node2</title>
<path fill="none" stroke="#191970" d="M368.7167,-224.3733C350.339,-215.4241 322.7547,-201.9917 301.9967,-191.8835"/>
<polygon fill="#191970" stroke="#191970" points="303.5202,-188.7325 292.9972,-187.5011 300.4555,-195.026 303.5202,-188.7325"/>
</g>
<!-- Node5 -->
<g id="node6" class="node">
<title>Node5</title>
<polygon fill="#ffffff" stroke="#bfbfbf" points="91.9859,-.5 91.9859,-19.5 150.9859,-19.5 150.9859,-.5 91.9859,-.5"/>
<text text-anchor="middle" x="121.4859" y="-7.5" font-family="Helvetica,sans-Serif" font-size="10.00" fill="#000000">functional</text>
</g>
<!-- Node1&#45;&gt;Node5 -->
<g id="edge21" class="edge">
<title>Node1&#45;&gt;Node5</title>
<path fill="none" stroke="#191970" d="M350.8247,-229.6474C263.3204,-218.6808 50.5247,-186.8109 8.4859,-132 -23.5971,-90.1695 47.5807,-45.9423 91.0332,-24.02"/>
<polygon fill="#191970" stroke="#191970" points="92.668,-27.1165 100.0987,-19.5643 89.5802,-20.8342 92.668,-27.1165"/>
</g>
<!-- Node7 -->
<g id="node8" class="node">
<title>Node7</title>
<g id="a_node8"><a xlink:href="iterbase_8hpp.html" target="_top" xlink:title="iterbase.hpp">
<polygon fill="#ffffff" stroke="#000000" points="355.4859,-56.5 355.4859,-75.5 425.4859,-75.5 425.4859,-56.5 355.4859,-56.5"/>
<text text-anchor="middle" x="390.4859" y="-63.5" font-family="Helvetica,sans-Serif" font-size="10.00" fill="#000000">iterbase.hpp</text>
</a>
</g>
</g>
<!-- Node1&#45;&gt;Node7 -->
<g id="edge20" class="edge">
<title>Node1&#45;&gt;Node7</title>
<path fill="none" stroke="#191970" d="M388.5992,-224.4862C388.9153,-197.9293 389.8125,-122.5651 390.2459,-86.1655"/>
<polygon fill="#191970" stroke="#191970" points="393.7496,-85.8689 390.3689,-75.8279 386.75,-85.7855 393.7496,-85.8689"/>
</g>
<!-- Node13 -->
<g id="node14" class="node">
<title>Node13</title>
<polygon fill="#ffffff" stroke="#bfbfbf" points="506.4859,-.5 506.4859,-19.5 546.4859,-19.5 546.4859,-.5 506.4859,-.5"/>
<text text-anchor="middle" x="526.4859" y="-7.5" font-family="Helvetica,sans-Serif" font-size="10.00" fill="#000000">utility</text>
</g>
<!-- Node1&#45;&gt;Node13 -->
<g id="edge22" class="edge">
<title>Node1&#45;&gt;Node13</title>
<path fill="none" stroke="#191970" d="M394.4156,-224.375C415.5154,-190.1261 487.1793,-73.802 515.1615,-28.3817"/>
<polygon fill="#191970" stroke="#191970" points="518.313,-29.939 520.5783,-19.5891 512.3532,-26.2673 518.313,-29.939"/>
</g>
<!-- Node3 -->
<g id="node4" class="node">
<title>Node3</title>
<g id="a_node4"><a xlink:href="iterator__wrapper_8hpp.html" target="_top" xlink:title="internal/iterator_wrapper.hpp">
<polygon fill="#ffffff" stroke="#000000" points="203.4859,-112.5 203.4859,-131.5 343.4859,-131.5 343.4859,-112.5 203.4859,-112.5"/>
<text text-anchor="middle" x="273.4859" y="-119.5" font-family="Helvetica,sans-Serif" font-size="10.00" fill="#000000">internal/iterator_wrapper.hpp</text>
</a>
</g>
</g>
<!-- Node2&#45;&gt;Node3 -->
<g id="edge3" class="edge">
<title>Node2&#45;&gt;Node3</title>
<path fill="none" stroke="#191970" d="M273.4859,-168.2455C273.4859,-160.9382 273.4859,-150.6944 273.4859,-141.7046"/>
<polygon fill="#191970" stroke="#191970" points="276.986,-141.6426 273.4859,-131.6427 269.986,-141.6427 276.986,-141.6426"/>
</g>
<!-- Node2&#45;&gt;Node5 -->
<g id="edge16" class="edge">
<title>Node2&#45;&gt;Node5</title>
<path fill="none" stroke="#191970" d="M246.4727,-169.7654C226.4531,-162.5171 199.6091,-150.2428 181.4859,-132 152.2288,-102.5498 134.8526,-55.9827 126.8415,-29.7177"/>
<polygon fill="#191970" stroke="#191970" points="130.1171,-28.4457 123.9742,-19.8134 123.3931,-30.3923 130.1171,-28.4457"/>
</g>
<!-- Node2&#45;&gt;Node7 -->
<g id="edge15" class="edge">
<title>Node2&#45;&gt;Node7</title>
<path fill="none" stroke="#191970" d="M296.7169,-168.4278C313.703,-160.5553 336.4771,-148.0872 352.4859,-132 365.9946,-118.4252 376.3817,-99.0833 382.8552,-84.8459"/>
<polygon fill="#191970" stroke="#191970" points="386.1235,-86.1053 386.8658,-75.5365 379.6947,-83.3356 386.1235,-86.1053"/>
</g>
<!-- Node9 -->
<g id="node10" class="node">
<title>Node9</title>
<polygon fill="#ffffff" stroke="#bfbfbf" points="169.9859,-.5 169.9859,-19.5 216.9859,-19.5 216.9859,-.5 169.9859,-.5"/>
<text text-anchor="middle" x="193.4859" y="-7.5" font-family="Helvetica,sans-Serif" font-size="10.00" fill="#000000">iterator</text>
</g>
<!-- Node2&#45;&gt;Node9 -->
<g id="edge18" class="edge">
<title>Node2&#45;&gt;Node9</title>
<path fill="none" stroke="#191970" d="M246.3942,-170.0622C228.2201,-163.1731 205.6389,-151.2174 194.4859,-132 175.9631,-100.0838 182.1882,-55.1055 188.0559,-29.6253"/>
<polygon fill="#191970" stroke="#191970" points="191.5073,-30.2519 190.556,-19.6999 184.7194,-28.542 191.5073,-30.2519"/>
</g>
<!-- Node2&#45;&gt;Node13 -->
<g id="edge19" class="edge">
<title>Node2&#45;&gt;Node13</title>
<path fill="none" stroke="#191970" d="M298.5863,-168.4366C319.3446,-160.0675 349.2434,-146.9348 373.4859,-132 426.1745,-99.5409 481.3462,-51.5056 508.791,-26.4945"/>
<polygon fill="#191970" stroke="#191970" points="511.391,-28.8586 516.3847,-19.5144 506.6539,-23.705 511.391,-28.8586"/>
</g>
<!-- Node14 -->
<g id="node15" class="node">
<title>Node14</title>
<polygon fill="#ffffff" stroke="#bfbfbf" points="17.9859,-112.5 17.9859,-131.5 90.9859,-131.5 90.9859,-112.5 17.9859,-112.5"/>
<text text-anchor="middle" x="54.4859" y="-119.5" font-family="Helvetica,sans-Serif" font-size="10.00" fill="#000000">initializer_list</text>
</g>
<!-- Node2&#45;&gt;Node14 -->
<g id="edge17" class="edge">
<title>Node2&#45;&gt;Node14</title>
<path fill="none" stroke="#191970" d="M246.1922,-171.0208C209.9181,-161.7452 145.2804,-145.2168 101.1788,-133.9397"/>
<polygon fill="#191970" stroke="#191970" points="101.8253,-130.4925 91.2699,-131.4059 100.0911,-137.2743 101.8253,-130.4925"/>
</g>
<!-- Node4 -->
<g id="node5" class="node">
<title>Node4</title>
<polygon fill="#ffffff" stroke="#bfbfbf" points="287.9859,-56.5 287.9859,-75.5 336.9859,-75.5 336.9859,-56.5 287.9859,-56.5"/>
<text text-anchor="middle" x="312.4859" y="-63.5" font-family="Helvetica,sans-Serif" font-size="10.00" fill="#000000">cassert</text>
</g>
<!-- Node3&#45;&gt;Node4 -->
<g id="edge4" class="edge">
<title>Node3&#45;&gt;Node4</title>
<path fill="none" stroke="#191970" d="M280.2792,-112.2455C285.7038,-104.4564 293.452,-93.3308 299.9893,-83.9439"/>
<polygon fill="#191970" stroke="#191970" points="302.9276,-85.849 305.7705,-75.6427 297.1834,-81.8485 302.9276,-85.849"/>
</g>
<!-- Node3&#45;&gt;Node5 -->
<g id="edge5" class="edge">
<title>Node3&#45;&gt;Node5</title>
<path fill="none" stroke="#191970" d="M260.5265,-112.4509C234.2773,-93.1094 174.6134,-49.1465 142.6443,-25.5904"/>
<polygon fill="#191970" stroke="#191970" points="144.5394,-22.6392 134.4126,-19.5249 140.3869,-28.2746 144.5394,-22.6392"/>
</g>
<!-- Node6 -->
<g id="node7" class="node">
<title>Node6</title>
<polygon fill="#ffffff" stroke="#bfbfbf" points="223.4859,-56.5 223.4859,-75.5 269.4859,-75.5 269.4859,-56.5 223.4859,-56.5"/>
<text text-anchor="middle" x="246.4859" y="-63.5" font-family="Helvetica,sans-Serif" font-size="10.00" fill="#000000">variant</text>
</g>
<!-- Node3&#45;&gt;Node6 -->
<g id="edge6" class="edge">
<title>Node3&#45;&gt;Node6</title>
<path fill="none" stroke="#191970" d="M268.7829,-112.2455C265.1436,-104.6973 259.9935,-94.0158 255.5597,-84.8197"/>
<polygon fill="#191970" stroke="#191970" points="258.6308,-83.1303 251.1351,-75.6427 252.3254,-86.1704 258.6308,-83.1303"/>
</g>
<!-- Node3&#45;&gt;Node7 -->
<g id="edge7" class="edge">
<title>Node3&#45;&gt;Node7</title>
<path fill="none" stroke="#191970" d="M293.599,-112.3733C312.2963,-103.4241 340.3603,-89.9917 361.4793,-79.8835"/>
<polygon fill="#191970" stroke="#191970" points="363.1264,-82.9755 370.6354,-75.5011 360.1043,-76.6614 363.1264,-82.9755"/>
</g>
<!-- Node7&#45;&gt;Node5 -->
<g id="edge9" class="edge">
<title>Node7&#45;&gt;Node5</title>
<path fill="none" stroke="#191970" d="M355.4438,-57.9287C352.4167,-57.264 349.399,-56.6128 346.4859,-56 267.1461,-39.3106 244.3132,-38.5036 161.1436,-20.0427"/>
<polygon fill="#191970" stroke="#191970" points="161.7753,-16.5976 151.2522,-17.8277 160.2456,-23.4284 161.7753,-16.5976"/>
</g>
<!-- Node8 -->
<g id="node9" class="node">
<title>Node8</title>
<polygon fill="#ffffff" stroke="#bfbfbf" points="234.9859,-.5 234.9859,-19.5 283.9859,-19.5 283.9859,-.5 234.9859,-.5"/>
<text text-anchor="middle" x="259.4859" y="-7.5" font-family="Helvetica,sans-Serif" font-size="10.00" fill="#000000">cstddef</text>
</g>
<!-- Node7&#45;&gt;Node8 -->
<g id="edge8" class="edge">
<title>Node7&#45;&gt;Node8</title>
<path fill="none" stroke="#191970" d="M367.9662,-56.3733C346.7487,-47.3032 314.7583,-33.6279 291.0091,-23.4755"/>
<polygon fill="#191970" stroke="#191970" points="292.2826,-20.2136 281.7118,-19.5011 289.5311,-26.6502 292.2826,-20.2136"/>
</g>
<!-- Node7&#45;&gt;Node9 -->
<g id="edge10" class="edge">
<title>Node7&#45;&gt;Node9</title>
<path fill="none" stroke="#191970" d="M355.5542,-56.4283C324.324,-47.8207 277.0702,-34.6739 226.9784,-20.1032"/>
<polygon fill="#191970" stroke="#191970" points="227.8414,-16.7091 217.2614,-17.269 225.8814,-23.4291 227.8414,-16.7091"/>
</g>
<!-- Node10 -->
<g id="node11" class="node">
<title>Node10</title>
<polygon fill="#ffffff" stroke="#bfbfbf" points="302.4859,-.5 302.4859,-19.5 352.4859,-19.5 352.4859,-.5 302.4859,-.5"/>
<text text-anchor="middle" x="327.4859" y="-7.5" font-family="Helvetica,sans-Serif" font-size="10.00" fill="#000000">optional</text>
</g>
<!-- Node7&#45;&gt;Node10 -->
<g id="edge11" class="edge">
<title>Node7&#45;&gt;Node10</title>
<path fill="none" stroke="#191970" d="M379.5122,-56.2455C370.2977,-48.0549 356.9327,-36.1749 346.0562,-26.5069"/>
<polygon fill="#191970" stroke="#191970" points="348.1333,-23.6704 338.3339,-19.6427 343.4828,-28.9023 348.1333,-23.6704"/>
</g>
<!-- Node11 -->
<g id="node12" class="node">
<title>Node11</title>
<polygon fill="#ffffff" stroke="#bfbfbf" points="370.4859,-.5 370.4859,-19.5 408.4859,-19.5 408.4859,-.5 370.4859,-.5"/>
<text text-anchor="middle" x="389.4859" y="-7.5" font-family="Helvetica,sans-Serif" font-size="10.00" fill="#000000">tuple</text>
</g>
<!-- Node7&#45;&gt;Node11 -->
<g id="edge12" class="edge">
<title>Node7&#45;&gt;Node11</title>
<path fill="none" stroke="#191970" d="M390.3117,-56.2455C390.1813,-48.9382 389.9983,-38.6944 389.8378,-29.7046"/>
<polygon fill="#191970" stroke="#191970" points="393.3362,-29.5786 389.6581,-19.6427 386.3373,-29.7036 393.3362,-29.5786"/>
</g>
<!-- Node12 -->
<g id="node13" class="node">
<title>Node12</title>
<polygon fill="#ffffff" stroke="#bfbfbf" points="426.4859,-.5 426.4859,-19.5 488.4859,-19.5 488.4859,-.5 426.4859,-.5"/>
<text text-anchor="middle" x="457.4859" y="-7.5" font-family="Helvetica,sans-Serif" font-size="10.00" fill="#000000">type_traits</text>
</g>
<!-- Node7&#45;&gt;Node12 -->
<g id="edge13" class="edge">
<title>Node7&#45;&gt;Node12</title>
<path fill="none" stroke="#191970" d="M402.1564,-56.2455C412.052,-47.9746 426.4486,-35.9416 438.076,-26.2232"/>
<polygon fill="#191970" stroke="#191970" points="440.5209,-28.7413 445.9492,-19.6427 436.0317,-23.3703 440.5209,-28.7413"/>
</g>
<!-- Node7&#45;&gt;Node13 -->
<g id="edge14" class="edge">
<title>Node7&#45;&gt;Node13</title>
<path fill="none" stroke="#191970" d="M413.8652,-56.3733C436.795,-46.9316 471.844,-32.4996 496.7456,-22.246"/>
<polygon fill="#191970" stroke="#191970" points="498.1595,-25.449 506.0736,-18.4051 495.4942,-18.9762 498.1595,-25.449"/>
</g>
</g>
</svg>
