<?xml version="1.0" encoding="UTF-8" standalone="no"?>
<!DOCTYPE svg PUBLIC "-//W3C//DTD SVG 1.1//EN"
 "http://www.w3.org/Graphics/SVG/1.1/DTD/svg11.dtd">
<!-- Generated by graphviz version 2.40.1 (20161225.0304)
 -->
<!-- Title: /media/lubuntu/USBDISK/github/ckpttncpp/third_party/cppitertools/examples/filter_examples.cpp Pages: 1 -->
<svg width="481pt" height="285pt"
 viewBox="0.00 0.00 480.50 285.00" xmlns="http://www.w3.org/2000/svg" xmlns:xlink="http://www.w3.org/1999/xlink">
<g id="graph0" class="graph" transform="scale(1 1) rotate(0) translate(4 281)">
<title>/media/lubuntu/USBDISK/github/ckpttncpp/third_party/cppitertools/examples/filter_examples.cpp</title>
<polygon fill="#ffffff" stroke="transparent" points="-4,4 -4,-281 476.5,-281 476.5,4 -4,4"/>
<!-- Node0 -->
<g id="node1" class="node">
<title>Node0</title>
<polygon fill="#bfbfbf" stroke="#000000" points="307.5,-224.5 307.5,-276.5 449.5,-276.5 449.5,-224.5 307.5,-224.5"/>
<text text-anchor="start" x="315.5" y="-264.5" font-family="Helvetica,sans-Serif" font-size="10.00" fill="#000000">/media/lubuntu/USBDISK</text>
<text text-anchor="start" x="315.5" y="-253.5" font-family="Helvetica,sans-Serif" font-size="10.00" fill="#000000">/github/ckpttncpp/third</text>
<text text-anchor="start" x="315.5" y="-242.5" font-family="Helvetica,sans-Serif" font-size="10.00" fill="#000000">_party/cppitertools/examples</text>
<text text-anchor="middle" x="378.5" y="-231.5" font-family="Helvetica,sans-Serif" font-size="10.00" fill="#000000">/filter_examples.cpp</text>
</g>
<!-- Node1 -->
<g id="node2" class="node">
<title>Node1</title>
<g id="a_node2"><a xlink:href="filter_8hpp.html" target="_top" xlink:title="filter.hpp">
<polygon fill="#ffffff" stroke="#000000" points="284.5,-168.5 284.5,-187.5 338.5,-187.5 338.5,-168.5 284.5,-168.5"/>
<text text-anchor="middle" x="311.5" y="-175.5" font-family="Helvetica,sans-Serif" font-size="10.00" fill="#000000">filter.hpp</text>
</a>
</g>
</g>
<!-- Node0&#45;&gt;Node1 -->
<g id="edge1" class="edge">
<title>Node0&#45;&gt;Node1</title>
<path fill="none" stroke="#191970" d="M354.3115,-224.3258C345.2429,-214.5128 335.1854,-203.6298 327.0986,-194.879"/>
<polygon fill="#191970" stroke="#191970" points="329.6682,-192.5027 320.3107,-187.534 324.5273,-197.2536 329.6682,-192.5027"/>
</g>
<!-- Node14 -->
<g id="node15" class="node">
<title>Node14</title>
<polygon fill="#ffffff" stroke="#bfbfbf" points="356.5,-168.5 356.5,-187.5 400.5,-187.5 400.5,-168.5 356.5,-168.5"/>
<text text-anchor="middle" x="378.5" y="-175.5" font-family="Helvetica,sans-Serif" font-size="10.00" fill="#000000">vector</text>
</g>
<!-- Node0&#45;&gt;Node14 -->
<g id="edge19" class="edge">
<title>Node0&#45;&gt;Node14</title>
<path fill="none" stroke="#191970" d="M378.5,-224.3258C378.5,-215.5142 378.5,-205.8397 378.5,-197.621"/>
<polygon fill="#191970" stroke="#191970" points="382.0001,-197.534 378.5,-187.534 375.0001,-197.534 382.0001,-197.534"/>
</g>
<!-- Node15 -->
<g id="node16" class="node">
<title>Node15</title>
<polygon fill="#ffffff" stroke="#bfbfbf" points="418.5,-168.5 418.5,-187.5 472.5,-187.5 472.5,-168.5 418.5,-168.5"/>
<text text-anchor="middle" x="445.5" y="-175.5" font-family="Helvetica,sans-Serif" font-size="10.00" fill="#000000">iostream</text>
</g>
<!-- Node0&#45;&gt;Node15 -->
<g id="edge20" class="edge">
<title>Node0&#45;&gt;Node15</title>
<path fill="none" stroke="#191970" d="M402.6885,-224.3258C411.7571,-214.5128 421.8146,-203.6298 429.9014,-194.879"/>
<polygon fill="#191970" stroke="#191970" points="432.4727,-197.2536 436.6893,-187.534 427.3318,-192.5027 432.4727,-197.2536"/>
</g>
<!-- Node2 -->
<g id="node3" class="node">
<title>Node2</title>
<g id="a_node3"><a xlink:href="iterator__wrapper_8hpp.html" target="_top" xlink:title="internal/iterator_wrapper.hpp">
<polygon fill="#ffffff" stroke="#000000" points="124.5,-112.5 124.5,-131.5 264.5,-131.5 264.5,-112.5 124.5,-112.5"/>
<text text-anchor="middle" x="194.5" y="-119.5" font-family="Helvetica,sans-Serif" font-size="10.00" fill="#000000">internal/iterator_wrapper.hpp</text>
</a>
</g>
</g>
<!-- Node1&#45;&gt;Node2 -->
<g id="edge2" class="edge">
<title>Node1&#45;&gt;Node2</title>
<path fill="none" stroke="#191970" d="M291.387,-168.3733C272.6897,-159.4241 244.6256,-145.9917 223.5066,-135.8835"/>
<polygon fill="#191970" stroke="#191970" points="224.8817,-132.6614 214.3506,-131.5011 221.8595,-138.9755 224.8817,-132.6614"/>
</g>
<!-- Node4 -->
<g id="node5" class="node">
<title>Node4</title>
<polygon fill="#ffffff" stroke="#bfbfbf" points="0,-.5 0,-19.5 59,-19.5 59,-.5 0,-.5"/>
<text text-anchor="middle" x="29.5" y="-7.5" font-family="Helvetica,sans-Serif" font-size="10.00" fill="#000000">functional</text>
</g>
<!-- Node1&#45;&gt;Node4 -->
<g id="edge15" class="edge">
<title>Node1&#45;&gt;Node4</title>
<path fill="none" stroke="#191970" d="M284.4884,-175.6441C245.4046,-171.375 171.6239,-160.042 115.5,-132 80.7828,-114.6538 69.6855,-108.5169 48.5,-76 39.358,-61.9682 34.5282,-43.4666 32.0307,-29.6236"/>
<polygon fill="#191970" stroke="#191970" points="35.4821,-29.04 30.49,-19.6949 28.5649,-30.1134 35.4821,-29.04"/>
</g>
<!-- Node6 -->
<g id="node7" class="node">
<title>Node6</title>
<g id="a_node7"><a xlink:href="iterbase_8hpp.html" target="_top" xlink:title="iterbase.hpp">
<polygon fill="#ffffff" stroke="#000000" points="227.5,-56.5 227.5,-75.5 297.5,-75.5 297.5,-56.5 227.5,-56.5"/>
<text text-anchor="middle" x="262.5" y="-63.5" font-family="Helvetica,sans-Serif" font-size="10.00" fill="#000000">iterbase.hpp</text>
</a>
</g>
</g>
<!-- Node1&#45;&gt;Node6 -->
<g id="edge14" class="edge">
<title>Node1&#45;&gt;Node6</title>
<path fill="none" stroke="#191970" d="M307.3223,-168.4509C299.222,-149.936 281.2508,-108.8591 270.6894,-84.7187"/>
<polygon fill="#191970" stroke="#191970" points="273.8819,-83.2836 266.6671,-75.5249 267.4688,-86.0894 273.8819,-83.2836"/>
</g>
<!-- Node8 -->
<g id="node9" class="node">
<title>Node8</title>
<polygon fill="#ffffff" stroke="#bfbfbf" points="350,-.5 350,-19.5 397,-19.5 397,-.5 350,-.5"/>
<text text-anchor="middle" x="373.5" y="-7.5" font-family="Helvetica,sans-Serif" font-size="10.00" fill="#000000">iterator</text>
</g>
<!-- Node1&#45;&gt;Node8 -->
<g id="edge17" class="edge">
<title>Node1&#45;&gt;Node8</title>
<path fill="none" stroke="#191970" d="M314.6755,-168.4463C321.5798,-147.8005 338.6161,-97.5324 354.5,-56 357.8855,-47.1477 361.858,-37.4364 365.2928,-29.2273"/>
<polygon fill="#191970" stroke="#191970" points="368.6036,-30.3841 369.2716,-19.8103 362.1555,-27.6597 368.6036,-30.3841"/>
</g>
<!-- Node12 -->
<g id="node13" class="node">
<title>Node12</title>
<polygon fill="#ffffff" stroke="#bfbfbf" points="415.5,-.5 415.5,-19.5 455.5,-19.5 455.5,-.5 415.5,-.5"/>
<text text-anchor="middle" x="435.5" y="-7.5" font-family="Helvetica,sans-Serif" font-size="10.00" fill="#000000">utility</text>
</g>
<!-- Node1&#45;&gt;Node12 -->
<g id="edge18" class="edge">
<title>Node1&#45;&gt;Node12</title>
<path fill="none" stroke="#191970" d="M318.5352,-168.4871C325.4126,-159.1863 336.1794,-144.6224 345.5,-132 372.8114,-95.0136 404.7556,-51.6985 422.2936,-27.9128"/>
<polygon fill="#191970" stroke="#191970" points="425.1528,-29.9327 428.2702,-19.8068 419.5187,-25.7786 425.1528,-29.9327"/>
</g>
<!-- Node13 -->
<g id="node14" class="node">
<title>Node13</title>
<polygon fill="#ffffff" stroke="#bfbfbf" points="397,-112.5 397,-131.5 470,-131.5 470,-112.5 397,-112.5"/>
<text text-anchor="middle" x="433.5" y="-119.5" font-family="Helvetica,sans-Serif" font-size="10.00" fill="#000000">initializer_list</text>
</g>
<!-- Node1&#45;&gt;Node13 -->
<g id="edge16" class="edge">
<title>Node1&#45;&gt;Node13</title>
<path fill="none" stroke="#191970" d="M332.4725,-168.3733C352.0567,-159.3838 381.4961,-145.8706 403.551,-135.7471"/>
<polygon fill="#191970" stroke="#191970" points="405.1729,-138.8538 412.8011,-131.5011 402.2527,-132.4919 405.1729,-138.8538"/>
</g>
<!-- Node3 -->
<g id="node4" class="node">
<title>Node3</title>
<polygon fill="#ffffff" stroke="#bfbfbf" points="122,-56.5 122,-75.5 171,-75.5 171,-56.5 122,-56.5"/>
<text text-anchor="middle" x="146.5" y="-63.5" font-family="Helvetica,sans-Serif" font-size="10.00" fill="#000000">cassert</text>
</g>
<!-- Node2&#45;&gt;Node3 -->
<g id="edge3" class="edge">
<title>Node2&#45;&gt;Node3</title>
<path fill="none" stroke="#191970" d="M186.139,-112.2455C179.325,-104.2958 169.5319,-92.8706 161.3848,-83.3656"/>
<polygon fill="#191970" stroke="#191970" points="163.9305,-80.9575 154.7651,-75.6427 158.6157,-85.513 163.9305,-80.9575"/>
</g>
<!-- Node2&#45;&gt;Node4 -->
<g id="edge4" class="edge">
<title>Node2&#45;&gt;Node4</title>
<path fill="none" stroke="#191970" d="M195.1242,-112.1013C195.4609,-97.8323 193.8918,-71.4996 179.5,-56 175.5989,-51.7987 111.9346,-33.223 68.8132,-21.0001"/>
<polygon fill="#191970" stroke="#191970" points="69.7233,-17.6202 59.1484,-18.2692 67.8199,-24.3565 69.7233,-17.6202"/>
</g>
<!-- Node5 -->
<g id="node6" class="node">
<title>Node5</title>
<polygon fill="#ffffff" stroke="#bfbfbf" points="57.5,-56.5 57.5,-75.5 103.5,-75.5 103.5,-56.5 57.5,-56.5"/>
<text text-anchor="middle" x="80.5" y="-63.5" font-family="Helvetica,sans-Serif" font-size="10.00" fill="#000000">variant</text>
</g>
<!-- Node2&#45;&gt;Node5 -->
<g id="edge5" class="edge">
<title>Node2&#45;&gt;Node5</title>
<path fill="none" stroke="#191970" d="M174.9027,-112.3733C156.7669,-103.4644 129.5865,-90.1127 109.0413,-80.0203"/>
<polygon fill="#191970" stroke="#191970" points="110.3603,-76.7688 99.8416,-75.5011 107.2739,-83.0517 110.3603,-76.7688"/>
</g>
<!-- Node2&#45;&gt;Node6 -->
<g id="edge6" class="edge">
<title>Node2&#45;&gt;Node6</title>
<path fill="none" stroke="#191970" d="M206.3447,-112.2455C216.388,-103.9746 230.9995,-91.9416 242.8004,-82.2232"/>
<polygon fill="#191970" stroke="#191970" points="245.2967,-84.7015 250.791,-75.6427 240.8467,-79.298 245.2967,-84.7015"/>
</g>
<!-- Node6&#45;&gt;Node4 -->
<g id="edge8" class="edge">
<title>Node6&#45;&gt;Node4</title>
<path fill="none" stroke="#191970" d="M227.4071,-57.8814C190.4887,-49.2957 130.4418,-35.2053 69.1421,-20.1272"/>
<polygon fill="#191970" stroke="#191970" points="69.8436,-16.6955 59.2964,-17.6995 68.1677,-23.4919 69.8436,-16.6955"/>
</g>
<!-- Node7 -->
<g id="node8" class="node">
<title>Node7</title>
<polygon fill="#ffffff" stroke="#bfbfbf" points="214,-.5 214,-19.5 263,-19.5 263,-.5 214,-.5"/>
<text text-anchor="middle" x="238.5" y="-7.5" font-family="Helvetica,sans-Serif" font-size="10.00" fill="#000000">cstddef</text>
</g>
<!-- Node6&#45;&gt;Node7 -->
<g id="edge7" class="edge">
<title>Node6&#45;&gt;Node7</title>
<path fill="none" stroke="#191970" d="M258.3195,-56.2455C255.119,-48.7776 250.604,-38.2427 246.6916,-29.1137"/>
<polygon fill="#191970" stroke="#191970" points="249.7888,-27.4554 242.6326,-19.6427 243.3548,-30.2129 249.7888,-27.4554"/>
</g>
<!-- Node6&#45;&gt;Node8 -->
<g id="edge9" class="edge">
<title>Node6&#45;&gt;Node8</title>
<path fill="none" stroke="#191970" d="M281.5816,-56.3733C299.2402,-47.4644 325.7053,-34.1127 345.7098,-24.0203"/>
<polygon fill="#191970" stroke="#191970" points="347.3158,-27.1303 354.6674,-19.5011 344.1628,-20.8806 347.3158,-27.1303"/>
</g>
<!-- Node9 -->
<g id="node10" class="node">
<title>Node9</title>
<polygon fill="#ffffff" stroke="#bfbfbf" points="281.5,-.5 281.5,-19.5 331.5,-19.5 331.5,-.5 281.5,-.5"/>
<text text-anchor="middle" x="306.5" y="-7.5" font-family="Helvetica,sans-Serif" font-size="10.00" fill="#000000">optional</text>
</g>
<!-- Node6&#45;&gt;Node9 -->
<g id="edge10" class="edge">
<title>Node6&#45;&gt;Node9</title>
<path fill="none" stroke="#191970" d="M270.1642,-56.2455C276.3473,-48.3761 285.2063,-37.101 292.6289,-27.6542"/>
<polygon fill="#191970" stroke="#191970" points="295.4975,-29.6683 298.9236,-19.6427 289.9932,-25.3435 295.4975,-29.6683"/>
</g>
<!-- Node10 -->
<g id="node11" class="node">
<title>Node10</title>
<polygon fill="#ffffff" stroke="#bfbfbf" points="77.5,-.5 77.5,-19.5 115.5,-19.5 115.5,-.5 77.5,-.5"/>
<text text-anchor="middle" x="96.5" y="-7.5" font-family="Helvetica,sans-Serif" font-size="10.00" fill="#000000">tuple</text>
</g>
<!-- Node6&#45;&gt;Node10 -->
<g id="edge11" class="edge">
<title>Node6&#45;&gt;Node10</title>
<path fill="none" stroke="#191970" d="M233.3631,-56.4872C207.3582,-47.9531 168.0076,-34.9327 125.4639,-20.2887"/>
<polygon fill="#191970" stroke="#191970" points="126.3555,-16.8939 115.7607,-16.9395 124.0715,-23.5108 126.3555,-16.8939"/>
</g>
<!-- Node11 -->
<g id="node12" class="node">
<title>Node11</title>
<polygon fill="#ffffff" stroke="#bfbfbf" points="133.5,-.5 133.5,-19.5 195.5,-19.5 195.5,-.5 133.5,-.5"/>
<text text-anchor="middle" x="164.5" y="-7.5" font-family="Helvetica,sans-Serif" font-size="10.00" fill="#000000">type_traits</text>
</g>
<!-- Node6&#45;&gt;Node11 -->
<g id="edge12" class="edge">
<title>Node6&#45;&gt;Node11</title>
<path fill="none" stroke="#191970" d="M245.4297,-56.2455C230.253,-47.5731 207.8379,-34.7645 190.4437,-24.825"/>
<polygon fill="#191970" stroke="#191970" points="191.7936,-21.5653 181.3747,-19.6427 188.3206,-27.643 191.7936,-21.5653"/>
</g>
<!-- Node6&#45;&gt;Node12 -->
<g id="edge13" class="edge">
<title>Node6&#45;&gt;Node12</title>
<path fill="none" stroke="#191970" d="M293.1851,-56.4212C320.3875,-47.8803 361.4238,-34.8769 405.493,-20.2885"/>
<polygon fill="#191970" stroke="#191970" points="406.8509,-23.5256 415.2385,-17.0527 404.6451,-16.8822 406.8509,-23.5256"/>
</g>
</g>
</svg>
