<?xml version="1.0" encoding="UTF-8" standalone="no"?>
<!DOCTYPE svg PUBLIC "-//W3C//DTD SVG 1.1//EN"
 "http://www.w3.org/Graphics/SVG/1.1/DTD/svg11.dtd">
<!-- Generated by graphviz version 2.40.1 (20161225.0304)
 -->
<!-- Title: lib/include/ckpttncpp/FMBiGainCalc.hpp Pages: 1 -->
<svg width="835pt" height="263pt"
 viewBox="0.00 0.00 834.50 263.00" xmlns="http://www.w3.org/2000/svg" xmlns:xlink="http://www.w3.org/1999/xlink">
<g id="graph0" class="graph" transform="scale(1 1) rotate(0) translate(4 259)">
<title>lib/include/ckpttncpp/FMBiGainCalc.hpp</title>
<polygon fill="#ffffff" stroke="transparent" points="-4,4 -4,-259 830.5,-259 830.5,4 -4,4"/>
<!-- Node0 -->
<g id="node1" class="node">
<title>Node0</title>
<polygon fill="#bfbfbf" stroke="#000000" points="284.5,-224.5 284.5,-254.5 390.5,-254.5 390.5,-224.5 284.5,-224.5"/>
<text text-anchor="start" x="292.5" y="-242.5" font-family="Helvetica,sans-Serif" font-size="10.00" fill="#000000">lib/include/ckpttncpp</text>
<text text-anchor="middle" x="337.5" y="-231.5" font-family="Helvetica,sans-Serif" font-size="10.00" fill="#000000">/FMBiGainCalc.hpp</text>
</g>
<!-- Node1 -->
<g id="node2" class="node">
<title>Node1</title>
<g id="a_node2"><a xlink:href="dllist_8hpp.html" target="_top" xlink:title="dllist.hpp">
<polygon fill="#ffffff" stroke="#000000" points="127.5,-168.5 127.5,-187.5 183.5,-187.5 183.5,-168.5 127.5,-168.5"/>
<text text-anchor="middle" x="155.5" y="-175.5" font-family="Helvetica,sans-Serif" font-size="10.00" fill="#000000">dllist.hpp</text>
</a>
</g>
</g>
<!-- Node0&#45;&gt;Node1 -->
<g id="edge1" class="edge">
<title>Node0&#45;&gt;Node1</title>
<path fill="none" stroke="#191970" d="M292.9778,-224.4554C262.4774,-214.149 222.455,-200.6249 193.4642,-190.8286"/>
<polygon fill="#191970" stroke="#191970" points="194.2978,-187.4159 183.7035,-187.5303 192.0568,-194.0475 194.2978,-187.4159"/>
</g>
<!-- Node4 -->
<g id="node5" class="node">
<title>Node4</title>
<g id="a_node5"><a xlink:href="netlist_8hpp.html" target="_top" xlink:title="netlist.hpp">
<polygon fill="#ffffff" stroke="#000000" points="627.5,-168.5 627.5,-187.5 689.5,-187.5 689.5,-168.5 627.5,-168.5"/>
<text text-anchor="middle" x="658.5" y="-175.5" font-family="Helvetica,sans-Serif" font-size="10.00" fill="#000000">netlist.hpp</text>
</a>
</g>
</g>
<!-- Node0&#45;&gt;Node4 -->
<g id="edge4" class="edge">
<title>Node0&#45;&gt;Node4</title>
<path fill="none" stroke="#191970" d="M390.5066,-229.3445C454.1734,-217.1467 559.6046,-196.9473 617.4254,-185.8694"/>
<polygon fill="#191970" stroke="#191970" points="618.1434,-189.2956 627.3061,-183.9764 616.8261,-182.4207 618.1434,-189.2956"/>
</g>
<!-- Node2 -->
<g id="node3" class="node">
<title>Node2</title>
<polygon fill="#ffffff" stroke="#bfbfbf" points="7.5,-112.5 7.5,-131.5 127.5,-131.5 127.5,-112.5 7.5,-112.5"/>
<text text-anchor="middle" x="67.5" y="-119.5" font-family="Helvetica,sans-Serif" font-size="10.00" fill="#000000">boost/coroutine2/all.hpp</text>
</g>
<!-- Node1&#45;&gt;Node2 -->
<g id="edge2" class="edge">
<title>Node1&#45;&gt;Node2</title>
<path fill="none" stroke="#191970" d="M140.1716,-168.2455C126.6697,-159.6534 106.7878,-147.0014 91.2314,-137.1018"/>
<polygon fill="#191970" stroke="#191970" points="92.9685,-134.0587 82.6528,-131.6427 89.2103,-139.9643 92.9685,-134.0587"/>
</g>
<!-- Node3 -->
<g id="node4" class="node">
<title>Node3</title>
<polygon fill="#ffffff" stroke="#bfbfbf" points="0,-56.5 0,-75.5 49,-75.5 49,-56.5 0,-56.5"/>
<text text-anchor="middle" x="24.5" y="-63.5" font-family="Helvetica,sans-Serif" font-size="10.00" fill="#000000">cassert</text>
</g>
<!-- Node1&#45;&gt;Node3 -->
<g id="edge3" class="edge">
<title>Node1&#45;&gt;Node3</title>
<path fill="none" stroke="#191970" d="M155.2579,-168.2292C154.3981,-154.1196 150.8239,-127.9835 136.5,-112 125.739,-99.9922 87.654,-85.8566 58.8582,-76.4557"/>
<polygon fill="#191970" stroke="#191970" points="59.7111,-73.0539 49.1201,-73.3392 57.5774,-79.7208 59.7111,-73.0539"/>
</g>
<!-- Node5 -->
<g id="node6" class="node">
<title>Node5</title>
<polygon fill="#ffffff" stroke="#bfbfbf" points="686.5,-112.5 686.5,-131.5 742.5,-131.5 742.5,-112.5 686.5,-112.5"/>
<text text-anchor="middle" x="714.5" y="-119.5" font-family="Helvetica,sans-Serif" font-size="10.00" fill="#000000">algorithm</text>
</g>
<!-- Node4&#45;&gt;Node5 -->
<g id="edge5" class="edge">
<title>Node4&#45;&gt;Node5</title>
<path fill="none" stroke="#191970" d="M668.2545,-168.2455C676.3648,-160.1352 688.0925,-148.4075 697.7081,-138.7919"/>
<polygon fill="#191970" stroke="#191970" points="700.2611,-141.1887 704.8573,-131.6427 695.3113,-136.2389 700.2611,-141.1887"/>
</g>
<!-- Node6 -->
<g id="node7" class="node">
<title>Node6</title>
<polygon fill="#ffffff" stroke="#bfbfbf" points="761,-112.5 761,-131.5 808,-131.5 808,-112.5 761,-112.5"/>
<text text-anchor="middle" x="784.5" y="-119.5" font-family="Helvetica,sans-Serif" font-size="10.00" fill="#000000">iterator</text>
</g>
<!-- Node4&#45;&gt;Node6 -->
<g id="edge6" class="edge">
<title>Node4&#45;&gt;Node6</title>
<path fill="none" stroke="#191970" d="M680.1602,-168.3733C700.4772,-159.3435 731.064,-145.7494 753.875,-135.6111"/>
<polygon fill="#191970" stroke="#191970" points="755.4059,-138.7609 763.1225,-131.5011 752.5628,-132.3642 755.4059,-138.7609"/>
</g>
<!-- Node7 -->
<g id="node8" class="node">
<title>Node7</title>
<g id="a_node8"><a xlink:href="py2cpp_8hpp.html" target="_top" xlink:title="py2cpp/py2cpp.hpp">
<polygon fill="#ffffff" stroke="#000000" points="250,-56.5 250,-75.5 351,-75.5 351,-56.5 250,-56.5"/>
<text text-anchor="middle" x="300.5" y="-63.5" font-family="Helvetica,sans-Serif" font-size="10.00" fill="#000000">py2cpp/py2cpp.hpp</text>
</a>
</g>
</g>
<!-- Node4&#45;&gt;Node7 -->
<g id="edge7" class="edge">
<title>Node4&#45;&gt;Node7</title>
<path fill="none" stroke="#191970" d="M627.3462,-176.6748C557.3754,-173.1922 390.2288,-161.8977 343.5,-132 326.2782,-120.9812 314.5063,-100.3236 307.6923,-85.0427"/>
<polygon fill="#191970" stroke="#191970" points="310.8084,-83.4182 303.7609,-75.5072 304.3368,-86.0864 310.8084,-83.4182"/>
</g>
<!-- Node13 -->
<g id="node14" class="node">
<title>Node13</title>
<polygon fill="#ffffff" stroke="#bfbfbf" points="603.5,-.5 603.5,-19.5 643.5,-19.5 643.5,-.5 603.5,-.5"/>
<text text-anchor="middle" x="623.5" y="-7.5" font-family="Helvetica,sans-Serif" font-size="10.00" fill="#000000">utility</text>
</g>
<!-- Node4&#45;&gt;Node13 -->
<g id="edge14" class="edge">
<title>Node4&#45;&gt;Node13</title>
<path fill="none" stroke="#191970" d="M660.8918,-168.1624C666.8419,-142.8697 681.2226,-76.1524 672.5,-56 667.2663,-43.9081 657.1158,-33.5335 647.4045,-25.7139"/>
<polygon fill="#191970" stroke="#191970" points="649.2234,-22.7038 639.118,-19.5209 645.0329,-28.3109 649.2234,-22.7038"/>
</g>
<!-- Node14 -->
<g id="node15" class="node">
<title>Node14</title>
<polygon fill="#ffffff" stroke="#bfbfbf" points="782.5,-56.5 782.5,-75.5 826.5,-75.5 826.5,-56.5 782.5,-56.5"/>
<text text-anchor="middle" x="804.5" y="-63.5" font-family="Helvetica,sans-Serif" font-size="10.00" fill="#000000">vector</text>
</g>
<!-- Node4&#45;&gt;Node14 -->
<g id="edge15" class="edge">
<title>Node4&#45;&gt;Node14</title>
<path fill="none" stroke="#191970" d="M689.5074,-173.4847C731.2655,-166.6969 802.1326,-152.4435 817.5,-132 827.7627,-118.3473 822.0567,-98.7534 815.2779,-84.4624"/>
<polygon fill="#191970" stroke="#191970" points="818.3467,-82.7781 810.5967,-75.554 812.1502,-86.0344 818.3467,-82.7781"/>
</g>
<!-- Node15 -->
<g id="node16" class="node">
<title>Node15</title>
<g id="a_node16"><a xlink:href="graph_8hpp.html" target="_top" xlink:title="xnetwork/classes/graph.hpp">
<polygon fill="#ffffff" stroke="#000000" points="353,-112.5 353,-131.5 492,-131.5 492,-112.5 353,-112.5"/>
<text text-anchor="middle" x="422.5" y="-119.5" font-family="Helvetica,sans-Serif" font-size="10.00" fill="#000000">xnetwork/classes/graph.hpp</text>
</a>
</g>
</g>
<!-- Node4&#45;&gt;Node15 -->
<g id="edge16" class="edge">
<title>Node4&#45;&gt;Node15</title>
<path fill="none" stroke="#191970" d="M627.161,-170.5636C587.6783,-161.1948 519.3465,-144.9805 472.5864,-133.8849"/>
<polygon fill="#191970" stroke="#191970" points="473.1995,-130.4333 462.6616,-131.5299 471.5833,-137.2442 473.1995,-130.4333"/>
</g>
<!-- Node8 -->
<g id="node9" class="node">
<title>Node8</title>
<polygon fill="#ffffff" stroke="#bfbfbf" points="111,-.5 111,-19.5 184,-19.5 184,-.5 111,-.5"/>
<text text-anchor="middle" x="147.5" y="-7.5" font-family="Helvetica,sans-Serif" font-size="10.00" fill="#000000">initializer_list</text>
</g>
<!-- Node7&#45;&gt;Node8 -->
<g id="edge8" class="edge">
<title>Node7&#45;&gt;Node8</title>
<path fill="none" stroke="#191970" d="M274.1984,-56.3733C249.0872,-47.1822 211.0562,-33.2624 183.2128,-23.0713"/>
<polygon fill="#191970" stroke="#191970" points="184.0522,-19.6516 173.4584,-19.5011 181.6462,-26.2251 184.0522,-19.6516"/>
</g>
<!-- Node9 -->
<g id="node10" class="node">
<title>Node9</title>
<polygon fill="#ffffff" stroke="#bfbfbf" points="202.5,-.5 202.5,-19.5 240.5,-19.5 240.5,-.5 202.5,-.5"/>
<text text-anchor="middle" x="221.5" y="-7.5" font-family="Helvetica,sans-Serif" font-size="10.00" fill="#000000">tuple</text>
</g>
<!-- Node7&#45;&gt;Node9 -->
<g id="edge9" class="edge">
<title>Node7&#45;&gt;Node9</title>
<path fill="none" stroke="#191970" d="M286.7393,-56.2455C274.8448,-47.814 257.435,-35.4729 243.5915,-25.6598"/>
<polygon fill="#191970" stroke="#191970" points="245.2854,-22.5704 235.1031,-19.6427 241.2372,-28.2811 245.2854,-22.5704"/>
</g>
<!-- Node10 -->
<g id="node11" class="node">
<title>Node10</title>
<polygon fill="#ffffff" stroke="#bfbfbf" points="456.5,-.5 456.5,-19.5 518.5,-19.5 518.5,-.5 456.5,-.5"/>
<text text-anchor="middle" x="487.5" y="-7.5" font-family="Helvetica,sans-Serif" font-size="10.00" fill="#000000">type_traits</text>
</g>
<!-- Node7&#45;&gt;Node10 -->
<g id="edge10" class="edge">
<title>Node7&#45;&gt;Node10</title>
<path fill="none" stroke="#191970" d="M332.6464,-56.3733C364.201,-46.9238 412.4472,-32.4757 446.692,-22.2206"/>
<polygon fill="#191970" stroke="#191970" points="447.8188,-25.5368 456.3944,-19.315 445.8106,-18.831 447.8188,-25.5368"/>
</g>
<!-- Node11 -->
<g id="node12" class="node">
<title>Node11</title>
<polygon fill="#ffffff" stroke="#bfbfbf" points="259,-.5 259,-19.5 342,-19.5 342,-.5 259,-.5"/>
<text text-anchor="middle" x="300.5" y="-7.5" font-family="Helvetica,sans-Serif" font-size="10.00" fill="#000000">unordered_map</text>
</g>
<!-- Node7&#45;&gt;Node11 -->
<g id="edge11" class="edge">
<title>Node7&#45;&gt;Node11</title>
<path fill="none" stroke="#191970" d="M300.5,-56.2455C300.5,-48.9382 300.5,-38.6944 300.5,-29.7046"/>
<polygon fill="#191970" stroke="#191970" points="304.0001,-29.6426 300.5,-19.6427 297.0001,-29.6427 304.0001,-29.6426"/>
</g>
<!-- Node12 -->
<g id="node13" class="node">
<title>Node12</title>
<polygon fill="#ffffff" stroke="#bfbfbf" points="360.5,-.5 360.5,-19.5 438.5,-19.5 438.5,-.5 360.5,-.5"/>
<text text-anchor="middle" x="399.5" y="-7.5" font-family="Helvetica,sans-Serif" font-size="10.00" fill="#000000">unordered_set</text>
</g>
<!-- Node7&#45;&gt;Node12 -->
<g id="edge12" class="edge">
<title>Node7&#45;&gt;Node12</title>
<path fill="none" stroke="#191970" d="M317.7445,-56.2455C333.0761,-47.5731 355.7199,-34.7645 373.2916,-24.825"/>
<polygon fill="#191970" stroke="#191970" points="375.4724,-27.6126 382.4531,-19.6427 372.0259,-21.5198 375.4724,-27.6126"/>
</g>
<!-- Node7&#45;&gt;Node13 -->
<g id="edge13" class="edge">
<title>Node7&#45;&gt;Node13</title>
<path fill="none" stroke="#191970" d="M351.3241,-57.1884C419.4201,-45.3823 538.0979,-24.8066 593.4599,-15.2082"/>
<polygon fill="#191970" stroke="#191970" points="594.0894,-18.6513 603.3445,-13.4944 592.8936,-11.7542 594.0894,-18.6513"/>
</g>
<!-- Node15&#45;&gt;Node3 -->
<g id="edge18" class="edge">
<title>Node15&#45;&gt;Node3</title>
<path fill="none" stroke="#191970" d="M352.9621,-116.7533C281.3245,-110.5565 166.3866,-98.4126 59.258,-76.1084"/>
<polygon fill="#191970" stroke="#191970" points="59.7573,-72.6366 49.2492,-73.9896 58.3075,-79.4848 59.7573,-72.6366"/>
</g>
<!-- Node15&#45;&gt;Node7 -->
<g id="edge19" class="edge">
<title>Node15&#45;&gt;Node7</title>
<path fill="none" stroke="#191970" d="M401.5275,-112.3733C381.9433,-103.3838 352.5039,-89.8706 330.449,-79.7471"/>
<polygon fill="#191970" stroke="#191970" points="331.7473,-76.4919 321.1989,-75.5011 328.8271,-82.8538 331.7473,-76.4919"/>
</g>
<!-- Node15&#45;&gt;Node10 -->
<g id="edge20" class="edge">
<title>Node15&#45;&gt;Node10</title>
<path fill="none" stroke="#191970" d="M413.6644,-112.0622C402.8694,-98.6509 387.341,-74.3289 398.5,-56 409.0316,-38.7015 428.3947,-27.6227 446.3769,-20.6844"/>
<polygon fill="#191970" stroke="#191970" points="447.8884,-23.8629 456.1601,-17.2425 445.5653,-17.2597 447.8884,-23.8629"/>
</g>
<!-- Node15&#45;&gt;Node14 -->
<g id="edge21" class="edge">
<title>Node15&#45;&gt;Node14</title>
<path fill="none" stroke="#191970" d="M487.7341,-112.4369C570.3244,-100.3294 709.3918,-79.9426 772.1044,-70.7491"/>
<polygon fill="#191970" stroke="#191970" points="772.8095,-74.1832 782.196,-69.2697 771.7941,-67.2573 772.8095,-74.1832"/>
</g>
<!-- Node16 -->
<g id="node17" class="node">
<title>Node16</title>
<polygon fill="#ffffff" stroke="#bfbfbf" points="407.5,-56.5 407.5,-75.5 485.5,-75.5 485.5,-56.5 407.5,-56.5"/>
<text text-anchor="middle" x="446.5" y="-63.5" font-family="Helvetica,sans-Serif" font-size="10.00" fill="#000000">boost/any.hpp</text>
</g>
<!-- Node15&#45;&gt;Node16 -->
<g id="edge17" class="edge">
<title>Node15&#45;&gt;Node16</title>
<path fill="none" stroke="#191970" d="M426.6805,-112.2455C429.881,-104.7776 434.396,-94.2427 438.3084,-85.1137"/>
<polygon fill="#191970" stroke="#191970" points="441.6452,-86.2129 442.3674,-75.6427 435.2112,-83.4554 441.6452,-86.2129"/>
</g>
<!-- Node17 -->
<g id="node18" class="node">
<title>Node17</title>
<g id="a_node18"><a xlink:href="coreviews_8hpp.html" target="_top" xlink:title="xnetwork/classes/coreviews.hpp">
<polygon fill="#ffffff" stroke="#000000" points="504,-56.5 504,-75.5 663,-75.5 663,-56.5 504,-56.5"/>
<text text-anchor="middle" x="583.5" y="-63.5" font-family="Helvetica,sans-Serif" font-size="10.00" fill="#000000">xnetwork/classes/coreviews.hpp</text>
</a>
</g>
</g>
<!-- Node15&#45;&gt;Node17 -->
<g id="edge22" class="edge">
<title>Node15&#45;&gt;Node17</title>
<path fill="none" stroke="#191970" d="M450.1769,-112.3733C476.8328,-103.1016 517.3238,-89.0178 546.6884,-78.804"/>
<polygon fill="#191970" stroke="#191970" points="547.8891,-82.0921 556.1843,-75.5011 545.5895,-75.4807 547.8891,-82.0921"/>
</g>
<!-- Node18 -->
<g id="node19" class="node">
<title>Node18</title>
<g id="a_node19"><a xlink:href="reportviews_8hpp.html" target="_top" xlink:title="xnetwork/classes/reportviews.hpp">
<polygon fill="#ffffff" stroke="#000000" points="67,-56.5 67,-75.5 232,-75.5 232,-56.5 67,-56.5"/>
<text text-anchor="middle" x="149.5" y="-63.5" font-family="Helvetica,sans-Serif" font-size="10.00" fill="#000000">xnetwork/classes/reportviews.hpp</text>
</a>
</g>
</g>
<!-- Node15&#45;&gt;Node18 -->
<g id="edge23" class="edge">
<title>Node15&#45;&gt;Node18</title>
<path fill="none" stroke="#191970" d="M375.8798,-112.4369C328.8635,-102.7925 256.2371,-87.8948 205.9807,-77.5858"/>
<polygon fill="#191970" stroke="#191970" points="206.4273,-74.1046 195.9279,-75.5237 205.0206,-80.9618 206.4273,-74.1046"/>
</g>
<!-- Node18&#45;&gt;Node8 -->
<g id="edge24" class="edge">
<title>Node18&#45;&gt;Node8</title>
<path fill="none" stroke="#191970" d="M149.1516,-56.2455C148.8907,-48.9382 148.5248,-38.6944 148.2037,-29.7046"/>
<polygon fill="#191970" stroke="#191970" points="151.6992,-29.5113 147.8444,-19.6427 144.7036,-29.7613 151.6992,-29.5113"/>
</g>
</g>
</svg>
