<?xml version="1.0" encoding="UTF-8" standalone="no"?>
<!DOCTYPE svg PUBLIC "-//W3C//DTD SVG 1.1//EN"
 "http://www.w3.org/Graphics/SVG/1.1/DTD/svg11.dtd">
<!-- Generated by graphviz version 2.40.1 (20161225.0304)
 -->
<!-- Title: lib/src/FMConstMgr.cpp Pages: 1 -->
<svg width="846pt" height="308pt"
 viewBox="0.00 0.00 846.00 308.00" xmlns="http://www.w3.org/2000/svg" xmlns:xlink="http://www.w3.org/1999/xlink">
<g id="graph0" class="graph" transform="scale(1 1) rotate(0) translate(4 304)">
<title>lib/src/FMConstMgr.cpp</title>
<polygon fill="#ffffff" stroke="transparent" points="-4,4 -4,-304 842,-304 842,4 -4,4"/>
<!-- Node0 -->
<g id="node1" class="node">
<title>Node0</title>
<polygon fill="#bfbfbf" stroke="#000000" points="203,-280.5 203,-299.5 325,-299.5 325,-280.5 203,-280.5"/>
<text text-anchor="middle" x="264" y="-287.5" font-family="Helvetica,sans-Serif" font-size="10.00" fill="#000000">lib/src/FMConstMgr.cpp</text>
</g>
<!-- Node1 -->
<g id="node2" class="node">
<title>Node1</title>
<g id="a_node2"><a xlink:href="FMConstrMgr_8hpp.html" target="_top" xlink:title="ckpttncpp/FMConstrMgr.hpp">
<polygon fill="#ffffff" stroke="#000000" points="144.5,-224.5 144.5,-243.5 285.5,-243.5 285.5,-224.5 144.5,-224.5"/>
<text text-anchor="middle" x="215" y="-231.5" font-family="Helvetica,sans-Serif" font-size="10.00" fill="#000000">ckpttncpp/FMConstrMgr.hpp</text>
</a>
</g>
</g>
<!-- Node0&#45;&gt;Node1 -->
<g id="edge1" class="edge">
<title>Node0&#45;&gt;Node1</title>
<path fill="none" stroke="#191970" d="M255.4649,-280.2455C248.5088,-272.2958 238.5117,-260.8706 230.1949,-251.3656"/>
<polygon fill="#191970" stroke="#191970" points="232.6564,-248.8637 223.4373,-243.6427 227.3884,-253.4732 232.6564,-248.8637"/>
</g>
<!-- Node6 -->
<g id="node7" class="node">
<title>Node6</title>
<g id="a_node7"><a xlink:href="netlist_8hpp.html" target="_top" xlink:title="netlist.hpp">
<polygon fill="#ffffff" stroke="#000000" points="273,-168.5 273,-187.5 335,-187.5 335,-168.5 273,-168.5"/>
<text text-anchor="middle" x="304" y="-175.5" font-family="Helvetica,sans-Serif" font-size="10.00" fill="#000000">netlist.hpp</text>
</a>
</g>
</g>
<!-- Node0&#45;&gt;Node6 -->
<g id="edge27" class="edge">
<title>Node0&#45;&gt;Node6</title>
<path fill="none" stroke="#191970" d="M272.0021,-280.4458C278.9766,-271.5797 288.7708,-257.7202 294,-244 299.6751,-229.1098 302.1388,-211.1748 303.2036,-197.7615"/>
<polygon fill="#191970" stroke="#191970" points="306.7005,-197.9164 303.8088,-187.7238 299.7132,-197.495 306.7005,-197.9164"/>
</g>
<!-- Node2 -->
<g id="node3" class="node">
<title>Node2</title>
<polygon fill="#ffffff" stroke="#bfbfbf" points="0,-112.5 0,-131.5 56,-131.5 56,-112.5 0,-112.5"/>
<text text-anchor="middle" x="28" y="-119.5" font-family="Helvetica,sans-Serif" font-size="10.00" fill="#000000">algorithm</text>
</g>
<!-- Node1&#45;&gt;Node2 -->
<g id="edge2" class="edge">
<title>Node1&#45;&gt;Node2</title>
<path fill="none" stroke="#191970" d="M216.7482,-224.1164C218.6613,-209.8663 219.8304,-183.557 206,-168 203.6266,-165.3304 117.4872,-143.8899 65.9254,-131.2438"/>
<polygon fill="#191970" stroke="#191970" points="66.6547,-127.819 56.1092,-128.84 64.9897,-134.6181 66.6547,-127.819"/>
</g>
<!-- Node3 -->
<g id="node4" class="node">
<title>Node3</title>
<polygon fill="#ffffff" stroke="#bfbfbf" points="79,-168.5 79,-187.5 135,-187.5 135,-168.5 79,-168.5"/>
<text text-anchor="middle" x="107" y="-175.5" font-family="Helvetica,sans-Serif" font-size="10.00" fill="#000000">cinttypes</text>
</g>
<!-- Node1&#45;&gt;Node3 -->
<g id="edge3" class="edge">
<title>Node1&#45;&gt;Node3</title>
<path fill="none" stroke="#191970" d="M196.1878,-224.2455C179.1527,-215.4125 153.8425,-202.2887 134.5319,-192.2758"/>
<polygon fill="#191970" stroke="#191970" points="136.0853,-189.1388 125.5966,-187.6427 132.863,-195.353 136.0853,-189.1388"/>
</g>
<!-- Node4 -->
<g id="node5" class="node">
<title>Node4</title>
<polygon fill="#ffffff" stroke="#bfbfbf" points="153,-168.5 153,-187.5 197,-187.5 197,-168.5 153,-168.5"/>
<text text-anchor="middle" x="175" y="-175.5" font-family="Helvetica,sans-Serif" font-size="10.00" fill="#000000">cmath</text>
</g>
<!-- Node1&#45;&gt;Node4 -->
<g id="edge4" class="edge">
<title>Node1&#45;&gt;Node4</title>
<path fill="none" stroke="#191970" d="M208.0325,-224.2455C202.4689,-216.4564 194.522,-205.3308 187.8171,-195.9439"/>
<polygon fill="#191970" stroke="#191970" points="190.5481,-193.7457 181.8876,-187.6427 184.852,-197.8144 190.5481,-193.7457"/>
</g>
<!-- Node5 -->
<g id="node6" class="node">
<title>Node5</title>
<polygon fill="#ffffff" stroke="#bfbfbf" points="794,-56.5 794,-75.5 838,-75.5 838,-56.5 794,-56.5"/>
<text text-anchor="middle" x="816" y="-63.5" font-family="Helvetica,sans-Serif" font-size="10.00" fill="#000000">vector</text>
</g>
<!-- Node1&#45;&gt;Node5 -->
<g id="edge5" class="edge">
<title>Node1&#45;&gt;Node5</title>
<path fill="none" stroke="#191970" d="M249.0344,-224.4862C355.3858,-194.7574 680.5398,-103.8658 784.0185,-74.9399"/>
<polygon fill="#191970" stroke="#191970" points="785.1892,-78.2469 793.8777,-72.1839 783.3046,-71.5054 785.1892,-78.2469"/>
</g>
<!-- Node1&#45;&gt;Node6 -->
<g id="edge6" class="edge">
<title>Node1&#45;&gt;Node6</title>
<path fill="none" stroke="#191970" d="M230.5026,-224.2455C244.158,-215.6534 264.2657,-203.0014 279.9989,-193.1018"/>
<polygon fill="#191970" stroke="#191970" points="282.0751,-195.9307 288.675,-187.6427 278.3471,-190.006 282.0751,-195.9307"/>
</g>
<!-- Node6&#45;&gt;Node2 -->
<g id="edge7" class="edge">
<title>Node6&#45;&gt;Node2</title>
<path fill="none" stroke="#191970" d="M272.8812,-172.2889C227.9701,-163.9543 142.4212,-147.7334 70,-132 68.764,-131.7315 67.5084,-131.4549 66.2412,-131.1725"/>
<polygon fill="#191970" stroke="#191970" points="66.9601,-127.7466 56.4317,-128.9306 65.4005,-134.5707 66.9601,-127.7466"/>
</g>
<!-- Node6&#45;&gt;Node5 -->
<g id="edge17" class="edge">
<title>Node6&#45;&gt;Node5</title>
<path fill="none" stroke="#191970" d="M333.9086,-168.4673C360.1225,-159.8261 399.0738,-146.2883 432,-132 449.8696,-124.2455 452.3804,-117.7242 471,-112 595.9872,-73.5751 633.7987,-96.1322 763,-76 769.6789,-74.9593 776.8053,-73.7104 783.5959,-72.4534"/>
<polygon fill="#191970" stroke="#191970" points="784.7066,-75.8051 793.8777,-70.5003 783.4002,-68.9281 784.7066,-75.8051"/>
</g>
<!-- Node7 -->
<g id="node8" class="node">
<title>Node7</title>
<polygon fill="#ffffff" stroke="#bfbfbf" points="479.5,-112.5 479.5,-131.5 526.5,-131.5 526.5,-112.5 479.5,-112.5"/>
<text text-anchor="middle" x="503" y="-119.5" font-family="Helvetica,sans-Serif" font-size="10.00" fill="#000000">iterator</text>
</g>
<!-- Node6&#45;&gt;Node7 -->
<g id="edge8" class="edge">
<title>Node6&#45;&gt;Node7</title>
<path fill="none" stroke="#191970" d="M335.0938,-169.25C371.5645,-158.9869 431.8005,-142.036 469.3435,-131.4712"/>
<polygon fill="#191970" stroke="#191970" points="470.6142,-134.7496 479.2922,-128.6715 468.718,-128.0113 470.6142,-134.7496"/>
</g>
<!-- Node8 -->
<g id="node9" class="node">
<title>Node8</title>
<g id="a_node9"><a xlink:href="py2cpp_8hpp.html" target="_top" xlink:title="py2cpp/py2cpp.hpp">
<polygon fill="#ffffff" stroke="#000000" points="112.5,-56.5 112.5,-75.5 213.5,-75.5 213.5,-56.5 112.5,-56.5"/>
<text text-anchor="middle" x="163" y="-63.5" font-family="Helvetica,sans-Serif" font-size="10.00" fill="#000000">py2cpp/py2cpp.hpp</text>
</a>
</g>
</g>
<!-- Node6&#45;&gt;Node8 -->
<g id="edge9" class="edge">
<title>Node6&#45;&gt;Node8</title>
<path fill="none" stroke="#191970" d="M291.9784,-168.4509C267.7329,-149.1921 212.7552,-105.5218 183.0088,-81.8935"/>
<polygon fill="#191970" stroke="#191970" points="184.9984,-79.0041 174.9912,-75.5249 180.6445,-84.4854 184.9984,-79.0041"/>
</g>
<!-- Node14 -->
<g id="node15" class="node">
<title>Node14</title>
<polygon fill="#ffffff" stroke="#bfbfbf" points="64,-.5 64,-19.5 104,-19.5 104,-.5 64,-.5"/>
<text text-anchor="middle" x="84" y="-7.5" font-family="Helvetica,sans-Serif" font-size="10.00" fill="#000000">utility</text>
</g>
<!-- Node6&#45;&gt;Node14 -->
<g id="edge16" class="edge">
<title>Node6&#45;&gt;Node14</title>
<path fill="none" stroke="#191970" d="M272.8693,-170.6223C228.5663,-158.5047 147.752,-130.1402 103,-76 92.2102,-62.9467 87.5446,-44.0619 85.5288,-29.8343"/>
<polygon fill="#191970" stroke="#191970" points="88.9787,-29.184 84.4139,-19.6229 82.02,-29.9438 88.9787,-29.184"/>
</g>
<!-- Node15 -->
<g id="node16" class="node">
<title>Node15</title>
<g id="a_node16"><a xlink:href="graph_8hpp.html" target="_top" xlink:title="xnetwork/classes/graph.hpp">
<polygon fill="#ffffff" stroke="#000000" points="283.5,-112.5 283.5,-131.5 422.5,-131.5 422.5,-112.5 283.5,-112.5"/>
<text text-anchor="middle" x="353" y="-119.5" font-family="Helvetica,sans-Serif" font-size="10.00" fill="#000000">xnetwork/classes/graph.hpp</text>
</a>
</g>
</g>
<!-- Node6&#45;&gt;Node15 -->
<g id="edge18" class="edge">
<title>Node6&#45;&gt;Node15</title>
<path fill="none" stroke="#191970" d="M312.5351,-168.2455C319.4912,-160.2958 329.4883,-148.8706 337.8051,-139.3656"/>
<polygon fill="#191970" stroke="#191970" points="340.6116,-141.4732 344.5627,-131.6427 335.3436,-136.8637 340.6116,-141.4732"/>
</g>
<!-- Node9 -->
<g id="node10" class="node">
<title>Node9</title>
<polygon fill="#ffffff" stroke="#bfbfbf" points="497.5,-.5 497.5,-19.5 570.5,-19.5 570.5,-.5 497.5,-.5"/>
<text text-anchor="middle" x="534" y="-7.5" font-family="Helvetica,sans-Serif" font-size="10.00" fill="#000000">initializer_list</text>
</g>
<!-- Node8&#45;&gt;Node9 -->
<g id="edge10" class="edge">
<title>Node8&#45;&gt;Node9</title>
<path fill="none" stroke="#191970" d="M213.7284,-57.4782C216.8648,-56.9721 219.9747,-56.4758 223,-56 316.5283,-41.2904 426.0994,-25.3948 487.0299,-16.6742"/>
<polygon fill="#191970" stroke="#191970" points="487.6995,-20.1142 497.1037,-15.2344 486.7091,-13.1846 487.6995,-20.1142"/>
</g>
<!-- Node10 -->
<g id="node11" class="node">
<title>Node10</title>
<polygon fill="#ffffff" stroke="#bfbfbf" points="122,-.5 122,-19.5 160,-19.5 160,-.5 122,-.5"/>
<text text-anchor="middle" x="141" y="-7.5" font-family="Helvetica,sans-Serif" font-size="10.00" fill="#000000">tuple</text>
</g>
<!-- Node8&#45;&gt;Node10 -->
<g id="edge11" class="edge">
<title>Node8&#45;&gt;Node10</title>
<path fill="none" stroke="#191970" d="M159.1679,-56.2455C156.2341,-48.7776 152.0953,-38.2427 148.509,-29.1137"/>
<polygon fill="#191970" stroke="#191970" points="151.7024,-27.6704 144.7882,-19.6427 145.1871,-30.23 151.7024,-27.6704"/>
</g>
<!-- Node11 -->
<g id="node12" class="node">
<title>Node11</title>
<polygon fill="#ffffff" stroke="#bfbfbf" points="662,-.5 662,-19.5 724,-19.5 724,-.5 662,-.5"/>
<text text-anchor="middle" x="693" y="-7.5" font-family="Helvetica,sans-Serif" font-size="10.00" fill="#000000">type_traits</text>
</g>
<!-- Node8&#45;&gt;Node11 -->
<g id="edge12" class="edge">
<title>Node8&#45;&gt;Node11</title>
<path fill="none" stroke="#191970" d="M213.7029,-57.3021C216.8457,-56.8397 219.9639,-56.4011 223,-56 305.5405,-45.0951 552.9385,-22.54 651.6597,-13.684"/>
<polygon fill="#191970" stroke="#191970" points="652.1959,-17.1501 661.8437,-12.7717 651.5713,-10.178 652.1959,-17.1501"/>
</g>
<!-- Node12 -->
<g id="node13" class="node">
<title>Node12</title>
<polygon fill="#ffffff" stroke="#bfbfbf" points="178.5,-.5 178.5,-19.5 261.5,-19.5 261.5,-.5 178.5,-.5"/>
<text text-anchor="middle" x="220" y="-7.5" font-family="Helvetica,sans-Serif" font-size="10.00" fill="#000000">unordered_map</text>
</g>
<!-- Node8&#45;&gt;Node12 -->
<g id="edge13" class="edge">
<title>Node8&#45;&gt;Node12</title>
<path fill="none" stroke="#191970" d="M172.9286,-56.2455C181.1838,-48.1352 193.1209,-36.4075 202.9082,-26.7919"/>
<polygon fill="#191970" stroke="#191970" points="205.5046,-29.1476 210.1851,-19.6427 200.5989,-24.1542 205.5046,-29.1476"/>
</g>
<!-- Node13 -->
<g id="node14" class="node">
<title>Node13</title>
<polygon fill="#ffffff" stroke="#bfbfbf" points="280,-.5 280,-19.5 358,-19.5 358,-.5 280,-.5"/>
<text text-anchor="middle" x="319" y="-7.5" font-family="Helvetica,sans-Serif" font-size="10.00" fill="#000000">unordered_set</text>
</g>
<!-- Node8&#45;&gt;Node13 -->
<g id="edge14" class="edge">
<title>Node8&#45;&gt;Node13</title>
<path fill="none" stroke="#191970" d="M189.8174,-56.3733C215.5332,-47.1419 254.538,-33.1402 282.9599,-22.9375"/>
<polygon fill="#191970" stroke="#191970" points="284.3032,-26.174 292.5326,-19.5011 281.9381,-19.5857 284.3032,-26.174"/>
</g>
<!-- Node8&#45;&gt;Node14 -->
<g id="edge15" class="edge">
<title>Node8&#45;&gt;Node14</title>
<path fill="none" stroke="#191970" d="M149.2393,-56.2455C137.3448,-47.814 119.935,-35.4729 106.0915,-25.6598"/>
<polygon fill="#191970" stroke="#191970" points="107.7854,-22.5704 97.6031,-19.6427 103.7372,-28.2811 107.7854,-22.5704"/>
</g>
<!-- Node15&#45;&gt;Node5 -->
<g id="edge23" class="edge">
<title>Node15&#45;&gt;Node5</title>
<path fill="none" stroke="#191970" d="M422.6633,-113.6311C427.5143,-113.0716 432.3296,-112.5231 437,-112 589.3294,-94.9396 629.4122,-104.6114 780,-76 781.2546,-75.7616 782.5292,-75.5008 783.8132,-75.2223"/>
<polygon fill="#191970" stroke="#191970" points="784.779,-78.5895 793.6675,-72.8236 783.1234,-71.7881 784.779,-78.5895"/>
</g>
<!-- Node15&#45;&gt;Node8 -->
<g id="edge21" class="edge">
<title>Node15&#45;&gt;Node8</title>
<path fill="none" stroke="#191970" d="M320.3378,-112.3733C288.4702,-102.9807 239.8469,-88.6496 205.093,-78.4064"/>
<polygon fill="#191970" stroke="#191970" points="205.8175,-74.9711 195.236,-75.5011 203.8385,-81.6855 205.8175,-74.9711"/>
</g>
<!-- Node15&#45;&gt;Node11 -->
<g id="edge22" class="edge">
<title>Node15&#45;&gt;Node11</title>
<path fill="none" stroke="#191970" d="M422.67,-113.6903C427.5194,-113.1167 432.3325,-112.5488 437,-112 505.8773,-103.9009 700.8759,-127.7904 747,-76 762.1633,-58.9738 739.5419,-38.5484 719.1082,-24.9748"/>
<polygon fill="#191970" stroke="#191970" points="720.9263,-21.9834 710.6014,-19.6069 717.1907,-27.9034 720.9263,-21.9834"/>
</g>
<!-- Node16 -->
<g id="node17" class="node">
<title>Node16</title>
<polygon fill="#ffffff" stroke="#bfbfbf" points="232,-56.5 232,-75.5 310,-75.5 310,-56.5 232,-56.5"/>
<text text-anchor="middle" x="271" y="-63.5" font-family="Helvetica,sans-Serif" font-size="10.00" fill="#000000">boost/any.hpp</text>
</g>
<!-- Node15&#45;&gt;Node16 -->
<g id="edge19" class="edge">
<title>Node15&#45;&gt;Node16</title>
<path fill="none" stroke="#191970" d="M338.7167,-112.2455C326.253,-103.7337 307.9549,-91.2375 293.5208,-81.3801"/>
<polygon fill="#191970" stroke="#191970" points="295.3515,-78.392 285.1196,-75.6427 291.4038,-84.1726 295.3515,-78.392"/>
</g>
<!-- Node17 -->
<g id="node18" class="node">
<title>Node17</title>
<polygon fill="#ffffff" stroke="#bfbfbf" points="328.5,-56.5 328.5,-75.5 377.5,-75.5 377.5,-56.5 328.5,-56.5"/>
<text text-anchor="middle" x="353" y="-63.5" font-family="Helvetica,sans-Serif" font-size="10.00" fill="#000000">cassert</text>
</g>
<!-- Node15&#45;&gt;Node17 -->
<g id="edge20" class="edge">
<title>Node15&#45;&gt;Node17</title>
<path fill="none" stroke="#191970" d="M353,-112.2455C353,-104.9382 353,-94.6944 353,-85.7046"/>
<polygon fill="#191970" stroke="#191970" points="356.5001,-85.6426 353,-75.6427 349.5001,-85.6427 356.5001,-85.6426"/>
</g>
<!-- Node18 -->
<g id="node19" class="node">
<title>Node18</title>
<g id="a_node19"><a xlink:href="coreviews_8hpp.html" target="_top" xlink:title="xnetwork/classes/coreviews.hpp">
<polygon fill="#ffffff" stroke="#000000" points="395.5,-56.5 395.5,-75.5 554.5,-75.5 554.5,-56.5 395.5,-56.5"/>
<text text-anchor="middle" x="475" y="-63.5" font-family="Helvetica,sans-Serif" font-size="10.00" fill="#000000">xnetwork/classes/coreviews.hpp</text>
</a>
</g>
</g>
<!-- Node15&#45;&gt;Node18 -->
<g id="edge24" class="edge">
<title>Node15&#45;&gt;Node18</title>
<path fill="none" stroke="#191970" d="M373.9725,-112.3733C393.5567,-103.3838 422.9961,-89.8706 445.051,-79.7471"/>
<polygon fill="#191970" stroke="#191970" points="446.6729,-82.8538 454.3011,-75.5011 443.7527,-76.4919 446.6729,-82.8538"/>
</g>
<!-- Node19 -->
<g id="node20" class="node">
<title>Node19</title>
<g id="a_node20"><a xlink:href="reportviews_8hpp.html" target="_top" xlink:title="xnetwork/classes/reportviews.hpp">
<polygon fill="#ffffff" stroke="#000000" points="572.5,-56.5 572.5,-75.5 737.5,-75.5 737.5,-56.5 572.5,-56.5"/>
<text text-anchor="middle" x="655" y="-63.5" font-family="Helvetica,sans-Serif" font-size="10.00" fill="#000000">xnetwork/classes/reportviews.hpp</text>
</a>
</g>
</g>
<!-- Node15&#45;&gt;Node19 -->
<g id="edge25" class="edge">
<title>Node15&#45;&gt;Node19</title>
<path fill="none" stroke="#191970" d="M404.5725,-112.4369C456.909,-102.7321 537.932,-87.708 593.5612,-77.3926"/>
<polygon fill="#191970" stroke="#191970" points="594.446,-80.7883 603.6402,-75.5237 593.1697,-73.9056 594.446,-80.7883"/>
</g>
<!-- Node19&#45;&gt;Node9 -->
<g id="edge26" class="edge">
<title>Node19&#45;&gt;Node9</title>
<path fill="none" stroke="#191970" d="M634.1994,-56.3733C614.7757,-47.3838 585.5776,-33.8706 563.7036,-23.7471"/>
<polygon fill="#191970" stroke="#191970" points="565.0745,-20.5249 554.5292,-19.5011 562.1344,-26.8776 565.0745,-20.5249"/>
</g>
</g>
</svg>
