<?xml version="1.0" encoding="UTF-8" standalone="no"?>
<!DOCTYPE svg PUBLIC "-//W3C//DTD SVG 1.1//EN"
 "http://www.w3.org/Graphics/SVG/1.1/DTD/svg11.dtd">
<!-- Generated by graphviz version 2.40.1 (20161225.0304)
 -->
<!-- Title: lib/src/FMGainMgr.cpp Pages: 1 -->
<!--zoomable 364 -->
<svg id="main" version="1.1" xmlns="http://www.w3.org/2000/svg" xmlns:xlink="http://www.w3.org/1999/xlink" xml:space="preserve" onload="init(evt)">
<style type="text/css"><![CDATA[
.edge:hover path { stroke: red; }
.edge:hover polygon { stroke: red; fill: red; }
]]></style>
<script type="text/javascript"><![CDATA[
var edges = document.getElementsByTagName('g');
if (edges && edges.length) {
  for (var i=0;i<edges.length;i++) {
    if (edges[i].id.substr(0,4)=='edge') {
      edges[i].setAttribute('class','edge');
    }
  }
}
]]></script>
        <defs>
                <circle id="rim" cx="0" cy="0" r="7"/>
                <circle id="rim2" cx="0" cy="0" r="3.5"/>
                <g id="zoomPlus">
                        <use xlink:href="#rim" fill="#404040">
                                <set attributeName="fill" to="#808080" begin="zoomplus.mouseover" end="zoomplus.mouseout"/>
                        </use>
                        <path d="M-4,0h8M0,-4v8" fill="none" stroke="white" stroke-width="1.5" pointer-events="none"/>
                </g>
                <g id="zoomMin">
                        <use xlink:href="#rim" fill="#404040">
                                <set attributeName="fill" to="#808080" begin="zoomminus.mouseover" end="zoomminus.mouseout"/>
                        </use>
                        <path d="M-4,0h8" fill="none" stroke="white" stroke-width="1.5" pointer-events="none"/>
                </g>
                <g id="dirArrow">
                        <path fill="none" stroke="white" stroke-width="1.5" d="M0,-3.0v7 M-2.5,-0.5L0,-3.0L2.5,-0.5"/>
                </g>
               <g id="resetDef">
                       <use xlink:href="#rim2" fill="#404040">
                               <set attributeName="fill" to="#808080" begin="reset.mouseover" end="reset.mouseout"/>
                       </use>
               </g>
        </defs>

<script type="text/javascript">
var viewWidth = 1016;
var viewHeight = 364;
var sectionId = 'dynsection-0';
</script>
<script xlink:href="svgpan.js"/>
<svg id="graph" class="graph">
<g id="viewport">
<title>lib/src/FMGainMgr.cpp</title>
<polygon fill="#ffffff" stroke="transparent" points="-4,4 -4,-360 1012.4123,-360 1012.4123,4 -4,4"/>
<!-- Node0 -->
<g id="node1" class="node">
<title>Node0</title>
<polygon fill="#bfbfbf" stroke="#000000" points="695,-336.5 695,-355.5 811,-355.5 811,-336.5 695,-336.5"/>
<text text-anchor="middle" x="753" y="-343.5" font-family="Helvetica,sans-Serif" font-size="10.00" fill="#000000">lib/src/FMGainMgr.cpp</text>
</g>
<!-- Node1 -->
<g id="node2" class="node">
<title>Node1</title>
<g id="a_node2"><a xlink:href="FMGainMgr_8hpp.html" target="_top" xlink:title="ckpttncpp/FMGainMgr.hpp">
<polygon fill="#ffffff" stroke="#000000" points="734,-224.5 734,-243.5 866,-243.5 866,-224.5 734,-224.5"/>
<text text-anchor="middle" x="800" y="-231.5" font-family="Helvetica,sans-Serif" font-size="10.00" fill="#000000">ckpttncpp/FMGainMgr.hpp</text>
</a>
</g>
</g>
<!-- Node0&#45;&gt;Node1 -->
<g id="edge1" class="edge">
<title>Node0&#45;&gt;Node1</title>
<path fill="none" stroke="#191970" d="M760.9918,-336.3739C768.0123,-327.4594 778.0147,-313.5693 784,-300 790.5426,-285.1673 794.6728,-267.228 797.0946,-253.7984"/>
<polygon fill="#191970" stroke="#191970" points="800.5787,-254.1798 798.7425,-243.7453 793.6709,-253.0474 800.5787,-254.1798"/>
</g>
<!-- Node23 -->
<g id="node24" class="node">
<title>Node23</title>
<polygon fill="#ffffff" stroke="#bfbfbf" points="831.5,-280.5 831.5,-299.5 874.5,-299.5 874.5,-280.5 831.5,-280.5"/>
<text text-anchor="middle" x="853" y="-287.5" font-family="Helvetica,sans-Serif" font-size="10.00" fill="#000000">cstdio</text>
</g>
<!-- Node0&#45;&gt;Node23 -->
<g id="edge35" class="edge">
<title>Node0&#45;&gt;Node23</title>
<path fill="none" stroke="#191970" d="M770.4187,-336.2455C786.0485,-327.4928 809.2019,-314.527 827.0185,-304.5496"/>
<polygon fill="#191970" stroke="#191970" points="828.766,-307.5825 835.7809,-299.6427 825.3457,-301.475 828.766,-307.5825"/>
</g>
<!-- Node24 -->
<g id="node25" class="node">
<title>Node24</title>
<g id="a_node25"><a xlink:href="FMBiGainMgr_8hpp.html" target="_top" xlink:title="ckpttncpp/FMBiGainMgr.hpp">
<polygon fill="#ffffff" stroke="#000000" points="633.5,-280.5 633.5,-299.5 774.5,-299.5 774.5,-280.5 633.5,-280.5"/>
<text text-anchor="middle" x="704" y="-287.5" font-family="Helvetica,sans-Serif" font-size="10.00" fill="#000000">ckpttncpp/FMBiGainMgr.hpp</text>
</a>
</g>
</g>
<!-- Node0&#45;&gt;Node24 -->
<g id="edge36" class="edge">
<title>Node0&#45;&gt;Node24</title>
<path fill="none" stroke="#191970" d="M744.4649,-336.2455C737.5088,-328.2958 727.5117,-316.8706 719.1949,-307.3656"/>
<polygon fill="#191970" stroke="#191970" points="721.6564,-304.8637 712.4373,-299.6427 716.3884,-309.4732 721.6564,-304.8637"/>
</g>
<!-- Node26 -->
<g id="node27" class="node">
<title>Node26</title>
<g id="a_node27"><a xlink:href="FMKWayGainMgr_8hpp.html" target="_top" xlink:title="ckpttncpp/FMKWayGainMgr.hpp">
<polygon fill="#ffffff" stroke="#000000" points="456.5,-280.5 456.5,-299.5 615.5,-299.5 615.5,-280.5 456.5,-280.5"/>
<text text-anchor="middle" x="536" y="-287.5" font-family="Helvetica,sans-Serif" font-size="10.00" fill="#000000">ckpttncpp/FMKWayGainMgr.hpp</text>
</a>
</g>
</g>
<!-- Node0&#45;&gt;Node26 -->
<g id="edge41" class="edge">
<title>Node0&#45;&gt;Node26</title>
<path fill="none" stroke="#191970" d="M715.6964,-336.3733C678.8315,-326.8598 622.334,-312.2797 582.5494,-302.0127"/>
<polygon fill="#191970" stroke="#191970" points="583.3742,-298.611 572.8169,-299.5011 581.625,-305.3889 583.3742,-298.611"/>
</g>
<!-- Node2 -->
<g id="node3" class="node">
<title>Node2</title>
<polygon fill="#ffffff" stroke="#bfbfbf" points="919.5,-56.5 919.5,-75.5 968.5,-75.5 968.5,-56.5 919.5,-56.5"/>
<text text-anchor="middle" x="944" y="-63.5" font-family="Helvetica,sans-Serif" font-size="10.00" fill="#000000">cassert</text>
</g>
<!-- Node1&#45;&gt;Node2 -->
<g id="edge2" class="edge">
<title>Node1&#45;&gt;Node2</title>
<path fill="none" stroke="#191970" d="M861.5531,-224.4986C902.3127,-216.8051 950.4898,-204.5293 963,-188 985.9549,-157.6704 967.9591,-110.7715 954.7534,-84.845"/>
<polygon fill="#191970" stroke="#191970" points="957.6674,-82.8731 949.8548,-75.7167 951.4994,-86.1832 957.6674,-82.8731"/>
</g>
<!-- Node3 -->
<g id="node4" class="node">
<title>Node3</title>
<polygon fill="#ffffff" stroke="#bfbfbf" points="700,-168.5 700,-187.5 756,-187.5 756,-168.5 700,-168.5"/>
<text text-anchor="middle" x="728" y="-175.5" font-family="Helvetica,sans-Serif" font-size="10.00" fill="#000000">cinttypes</text>
</g>
<!-- Node1&#45;&gt;Node3 -->
<g id="edge3" class="edge">
<title>Node1&#45;&gt;Node3</title>
<path fill="none" stroke="#191970" d="M787.4586,-224.2455C776.7213,-215.8943 761.0527,-203.7076 748.4953,-193.9408"/>
<polygon fill="#191970" stroke="#191970" points="750.4401,-191.0194 740.3977,-187.6427 746.1425,-196.5449 750.4401,-191.0194"/>
</g>
<!-- Node4 -->
<g id="node5" class="node">
<title>Node4</title>
<polygon fill="#ffffff" stroke="#bfbfbf" points="648.5,-112.5 648.5,-131.5 695.5,-131.5 695.5,-112.5 648.5,-112.5"/>
<text text-anchor="middle" x="672" y="-119.5" font-family="Helvetica,sans-Serif" font-size="10.00" fill="#000000">iterator</text>
</g>
<!-- Node1&#45;&gt;Node4 -->
<g id="edge4" class="edge">
<title>Node1&#45;&gt;Node4</title>
<path fill="none" stroke="#191970" d="M754.2497,-224.4546C732.3337,-217.694 707.3609,-206.4344 691,-188 679.7585,-175.3337 675.1423,-156.4065 673.2601,-142.0644"/>
<polygon fill="#191970" stroke="#191970" points="676.7093,-141.3691 672.2625,-131.7526 669.7418,-142.0432 676.7093,-141.3691"/>
</g>
<!-- Node5 -->
<g id="node6" class="node">
<title>Node5</title>
<polygon fill="#ffffff" stroke="#bfbfbf" points="774,-168.5 774,-187.5 826,-187.5 826,-168.5 774,-168.5"/>
<text text-anchor="middle" x="800" y="-175.5" font-family="Helvetica,sans-Serif" font-size="10.00" fill="#000000">memory</text>
</g>
<!-- Node1&#45;&gt;Node5 -->
<g id="edge5" class="edge">
<title>Node1&#45;&gt;Node5</title>
<path fill="none" stroke="#191970" d="M800,-224.2455C800,-216.9382 800,-206.6944 800,-197.7046"/>
<polygon fill="#191970" stroke="#191970" points="803.5001,-197.6426 800,-187.6427 796.5001,-197.6427 803.5001,-197.6426"/>
</g>
<!-- Node6 -->
<g id="node7" class="node">
<title>Node6</title>
<polygon fill="#ffffff" stroke="#bfbfbf" points="660,-.5 660,-19.5 722,-19.5 722,-.5 660,-.5"/>
<text text-anchor="middle" x="691" y="-7.5" font-family="Helvetica,sans-Serif" font-size="10.00" fill="#000000">type_traits</text>
</g>
<!-- Node1&#45;&gt;Node6 -->
<g id="edge6" class="edge">
<title>Node1&#45;&gt;Node6</title>
<path fill="none" stroke="#191970" d="M866.1568,-225.571C911.6735,-218.2819 966.4447,-206.0431 981,-188 1017.8444,-142.3268 1018.0195,-98.9184 978,-56 961.4427,-38.2433 807.5872,-21.1879 732.2186,-13.8142"/>
<polygon fill="#191970" stroke="#191970" points="732.4174,-10.3172 722.1271,-12.8389 731.744,-17.2847 732.4174,-10.3172"/>
</g>
<!-- Node7 -->
<g id="node8" class="node">
<title>Node7</title>
<g id="a_node8"><a xlink:href="bpqueue_8hpp.html" target="_top" xlink:title="bpqueue.hpp">
<polygon fill="#ffffff" stroke="#000000" points="882,-168.5 882,-187.5 954,-187.5 954,-168.5 882,-168.5"/>
<text text-anchor="middle" x="918" y="-175.5" font-family="Helvetica,sans-Serif" font-size="10.00" fill="#000000">bpqueue.hpp</text>
</a>
</g>
</g>
<!-- Node1&#45;&gt;Node7 -->
<g id="edge7" class="edge">
<title>Node1&#45;&gt;Node7</title>
<path fill="none" stroke="#191970" d="M820.2849,-224.3733C839.1421,-215.4241 867.446,-201.9917 888.7455,-191.8835"/>
<polygon fill="#191970" stroke="#191970" points="890.4461,-194.9506 897.9798,-187.5011 887.4449,-188.6266 890.4461,-194.9506"/>
</g>
<!-- Node9 -->
<g id="node10" class="node">
<title>Node9</title>
<g id="a_node10"><a xlink:href="dllist_8hpp.html" target="_top" xlink:title="dllist.hpp">
<polygon fill="#ffffff" stroke="#000000" points="813,-112.5 813,-131.5 869,-131.5 869,-112.5 813,-112.5"/>
<text text-anchor="middle" x="841" y="-119.5" font-family="Helvetica,sans-Serif" font-size="10.00" fill="#000000">dllist.hpp</text>
</a>
</g>
</g>
<!-- Node1&#45;&gt;Node9 -->
<g id="edge13" class="edge">
<title>Node1&#45;&gt;Node9</title>
<path fill="none" stroke="#191970" d="M809.901,-224.4325C818.1733,-215.7689 829.4765,-202.2179 835,-188 840.7288,-173.2535 842.0345,-155.3079 842.0159,-141.8538"/>
<polygon fill="#191970" stroke="#191970" points="845.5128,-141.6844 841.7567,-131.7777 838.5151,-141.8644 845.5128,-141.6844"/>
</g>
<!-- Node11 -->
<g id="node12" class="node">
<title>Node11</title>
<g id="a_node12"><a xlink:href="netlist_8hpp.html" target="_top" xlink:title="netlist.hpp">
<polygon fill="#ffffff" stroke="#000000" points="432,-168.5 432,-187.5 494,-187.5 494,-168.5 432,-168.5"/>
<text text-anchor="middle" x="463" y="-175.5" font-family="Helvetica,sans-Serif" font-size="10.00" fill="#000000">netlist.hpp</text>
</a>
</g>
</g>
<!-- Node1&#45;&gt;Node11 -->
<g id="edge14" class="edge">
<title>Node1&#45;&gt;Node11</title>
<path fill="none" stroke="#191970" d="M733.9287,-225.5285C675.8383,-217.6791 588.8257,-204.9515 504.396,-188.1481"/>
<polygon fill="#191970" stroke="#191970" points="504.8753,-184.6745 494.3814,-186.133 503.4944,-191.5369 504.8753,-184.6745"/>
</g>
<!-- Node7&#45;&gt;Node2 -->
<g id="edge8" class="edge">
<title>Node7&#45;&gt;Node2</title>
<path fill="none" stroke="#191970" d="M920.2167,-168.4509C924.4765,-150.1013 933.8807,-109.5908 939.5035,-85.3693"/>
<polygon fill="#191970" stroke="#191970" points="942.9368,-86.0573 941.7889,-75.5249 936.1182,-84.4744 942.9368,-86.0573"/>
</g>
<!-- Node8 -->
<g id="node9" class="node">
<title>Node8</title>
<polygon fill="#ffffff" stroke="#bfbfbf" points="719,-56.5 719,-75.5 763,-75.5 763,-56.5 719,-56.5"/>
<text text-anchor="middle" x="741" y="-63.5" font-family="Helvetica,sans-Serif" font-size="10.00" fill="#000000">vector</text>
</g>
<!-- Node7&#45;&gt;Node8 -->
<g id="edge9" class="edge">
<title>Node7&#45;&gt;Node8</title>
<path fill="none" stroke="#191970" d="M914.6779,-168.4634C909.224,-154.1674 897.0387,-127.237 878,-112 875.8556,-110.2838 812.5111,-89.3818 772.7171,-76.3515"/>
<polygon fill="#191970" stroke="#191970" points="773.7515,-73.0074 763.1589,-73.2247 771.5751,-79.6605 773.7515,-73.0074"/>
</g>
<!-- Node7&#45;&gt;Node9 -->
<g id="edge10" class="edge">
<title>Node7&#45;&gt;Node9</title>
<path fill="none" stroke="#191970" d="M904.5876,-168.2455C892.9943,-159.814 876.0252,-147.4729 862.5322,-137.6598"/>
<polygon fill="#191970" stroke="#191970" points="864.4047,-134.6938 854.2587,-131.6427 860.2874,-140.355 864.4047,-134.6938"/>
</g>
<!-- Node9&#45;&gt;Node2 -->
<g id="edge12" class="edge">
<title>Node9&#45;&gt;Node2</title>
<path fill="none" stroke="#191970" d="M858.9412,-112.2455C875.04,-103.4928 898.8879,-90.527 917.2391,-80.5496"/>
<polygon fill="#191970" stroke="#191970" points="919.1507,-83.4942 926.2644,-75.6427 915.8071,-77.3444 919.1507,-83.4942"/>
</g>
<!-- Node10 -->
<g id="node11" class="node">
<title>Node10</title>
<polygon fill="#ffffff" stroke="#bfbfbf" points="781,-56.5 781,-75.5 901,-75.5 901,-56.5 781,-56.5"/>
<text text-anchor="middle" x="841" y="-63.5" font-family="Helvetica,sans-Serif" font-size="10.00" fill="#000000">boost/coroutine2/all.hpp</text>
</g>
<!-- Node9&#45;&gt;Node10 -->
<g id="edge11" class="edge">
<title>Node9&#45;&gt;Node10</title>
<path fill="none" stroke="#191970" d="M841,-112.2455C841,-104.9382 841,-94.6944 841,-85.7046"/>
<polygon fill="#191970" stroke="#191970" points="844.5001,-85.6426 841,-75.6427 837.5001,-85.6427 844.5001,-85.6426"/>
</g>
<!-- Node11&#45;&gt;Node4 -->
<g id="edge16" class="edge">
<title>Node11&#45;&gt;Node4</title>
<path fill="none" stroke="#191970" d="M494.2894,-169.6162C533.0492,-159.2308 598.8127,-141.61 638.547,-130.9635"/>
<polygon fill="#191970" stroke="#191970" points="639.5433,-134.3201 648.2967,-128.3511 637.7316,-127.5586 639.5433,-134.3201"/>
</g>
<!-- Node11&#45;&gt;Node8 -->
<g id="edge25" class="edge">
<title>Node11&#45;&gt;Node8</title>
<path fill="none" stroke="#191970" d="M494.228,-169.1775C522.5533,-160.804 565.2258,-147.2566 601,-132 618.5555,-124.5131 621.8487,-120.3714 639,-112 662.4038,-100.5769 689.268,-88.5028 709.5501,-79.5922"/>
<polygon fill="#191970" stroke="#191970" points="711.174,-82.7021 718.934,-75.4887 708.3693,-76.2885 711.174,-82.7021"/>
</g>
<!-- Node12 -->
<g id="node13" class="node">
<title>Node12</title>
<polygon fill="#ffffff" stroke="#bfbfbf" points="536,-112.5 536,-131.5 592,-131.5 592,-112.5 536,-112.5"/>
<text text-anchor="middle" x="564" y="-119.5" font-family="Helvetica,sans-Serif" font-size="10.00" fill="#000000">algorithm</text>
</g>
<!-- Node11&#45;&gt;Node12 -->
<g id="edge15" class="edge">
<title>Node11&#45;&gt;Node12</title>
<path fill="none" stroke="#191970" d="M480.5929,-168.2455C496.379,-159.4928 519.7639,-146.527 537.7587,-136.5496"/>
<polygon fill="#191970" stroke="#191970" points="539.5603,-139.5528 546.6087,-131.6427 536.1659,-133.4308 539.5603,-139.5528"/>
</g>
<!-- Node13 -->
<g id="node14" class="node">
<title>Node13</title>
<g id="a_node14"><a xlink:href="py2cpp_8hpp.html" target="_top" xlink:title="py2cpp/py2cpp.hpp">
<polygon fill="#ffffff" stroke="#000000" points="105.5,-56.5 105.5,-75.5 206.5,-75.5 206.5,-56.5 105.5,-56.5"/>
<text text-anchor="middle" x="156" y="-63.5" font-family="Helvetica,sans-Serif" font-size="10.00" fill="#000000">py2cpp/py2cpp.hpp</text>
</a>
</g>
</g>
<!-- Node11&#45;&gt;Node13 -->
<g id="edge17" class="edge">
<title>Node11&#45;&gt;Node13</title>
<path fill="none" stroke="#191970" d="M436.8254,-168.4509C381.7698,-148.3655 253.934,-101.7284 191.5393,-78.9655"/>
<polygon fill="#191970" stroke="#191970" points="192.7023,-75.6642 182.1084,-75.5249 190.3032,-82.2402 192.7023,-75.6642"/>
</g>
<!-- Node18 -->
<g id="node19" class="node">
<title>Node18</title>
<polygon fill="#ffffff" stroke="#bfbfbf" points="0,-.5 0,-19.5 40,-19.5 40,-.5 0,-.5"/>
<text text-anchor="middle" x="20" y="-7.5" font-family="Helvetica,sans-Serif" font-size="10.00" fill="#000000">utility</text>
</g>
<!-- Node11&#45;&gt;Node18 -->
<g id="edge24" class="edge">
<title>Node11&#45;&gt;Node18</title>
<path fill="none" stroke="#191970" d="M431.7283,-174.1862C366.0438,-165.1621 210.3634,-138.3943 96,-76 72.4424,-63.1475 49.8004,-41.9658 35.4521,-27.0722"/>
<polygon fill="#191970" stroke="#191970" points="37.7764,-24.4343 28.381,-19.5377 32.6722,-29.2246 37.7764,-24.4343"/>
</g>
<!-- Node19 -->
<g id="node20" class="node">
<title>Node19</title>
<g id="a_node20"><a xlink:href="graph_8hpp.html" target="_top" xlink:title="xnetwork/classes/graph.hpp">
<polygon fill="#ffffff" stroke="#000000" points="378.5,-112.5 378.5,-131.5 517.5,-131.5 517.5,-112.5 378.5,-112.5"/>
<text text-anchor="middle" x="448" y="-119.5" font-family="Helvetica,sans-Serif" font-size="10.00" fill="#000000">xnetwork/classes/graph.hpp</text>
</a>
</g>
</g>
<!-- Node11&#45;&gt;Node19 -->
<g id="edge26" class="edge">
<title>Node11&#45;&gt;Node19</title>
<path fill="none" stroke="#191970" d="M460.3872,-168.2455C458.4084,-160.8579 455.6256,-150.4689 453.1988,-141.4087"/>
<polygon fill="#191970" stroke="#191970" points="456.5511,-140.3966 450.5829,-131.6427 449.7895,-142.2078 456.5511,-140.3966"/>
</g>
<!-- Node13&#45;&gt;Node6 -->
<g id="edge20" class="edge">
<title>Node13&#45;&gt;Node6</title>
<path fill="none" stroke="#191970" d="M206.8138,-57.1502C209.58,-56.7425 212.3224,-56.3558 215,-56 375.2172,-34.7084 567.0212,-19.1983 649.7222,-12.9891"/>
<polygon fill="#191970" stroke="#191970" points="650.0116,-16.4773 659.7238,-12.2437 649.4913,-9.4967 650.0116,-16.4773"/>
</g>
<!-- Node14 -->
<g id="node15" class="node">
<title>Node14</title>
<polygon fill="#ffffff" stroke="#bfbfbf" points="312.5,-.5 312.5,-19.5 385.5,-19.5 385.5,-.5 312.5,-.5"/>
<text text-anchor="middle" x="349" y="-7.5" font-family="Helvetica,sans-Serif" font-size="10.00" fill="#000000">initializer_list</text>
</g>
<!-- Node13&#45;&gt;Node14 -->
<g id="edge18" class="edge">
<title>Node13&#45;&gt;Node14</title>
<path fill="none" stroke="#191970" d="M189.1779,-56.3733C221.5487,-46.9807 270.9398,-32.6496 306.2424,-22.4064"/>
<polygon fill="#191970" stroke="#191970" points="307.6265,-25.6492 316.2551,-19.5011 305.6758,-18.9264 307.6265,-25.6492"/>
</g>
<!-- Node15 -->
<g id="node16" class="node">
<title>Node15</title>
<polygon fill="#ffffff" stroke="#bfbfbf" points="58,-.5 58,-19.5 96,-19.5 96,-.5 58,-.5"/>
<text text-anchor="middle" x="77" y="-7.5" font-family="Helvetica,sans-Serif" font-size="10.00" fill="#000000">tuple</text>
</g>
<!-- Node13&#45;&gt;Node15 -->
<g id="edge19" class="edge">
<title>Node13&#45;&gt;Node15</title>
<path fill="none" stroke="#191970" d="M142.2393,-56.2455C130.3448,-47.814 112.935,-35.4729 99.0915,-25.6598"/>
<polygon fill="#191970" stroke="#191970" points="100.7854,-22.5704 90.6031,-19.6427 96.7372,-28.2811 100.7854,-22.5704"/>
</g>
<!-- Node16 -->
<g id="node17" class="node">
<title>Node16</title>
<polygon fill="#ffffff" stroke="#bfbfbf" points="114.5,-.5 114.5,-19.5 197.5,-19.5 197.5,-.5 114.5,-.5"/>
<text text-anchor="middle" x="156" y="-7.5" font-family="Helvetica,sans-Serif" font-size="10.00" fill="#000000">unordered_map</text>
</g>
<!-- Node13&#45;&gt;Node16 -->
<g id="edge21" class="edge">
<title>Node13&#45;&gt;Node16</title>
<path fill="none" stroke="#191970" d="M156,-56.2455C156,-48.9382 156,-38.6944 156,-29.7046"/>
<polygon fill="#191970" stroke="#191970" points="159.5001,-29.6426 156,-19.6427 152.5001,-29.6427 159.5001,-29.6426"/>
</g>
<!-- Node17 -->
<g id="node18" class="node">
<title>Node17</title>
<polygon fill="#ffffff" stroke="#bfbfbf" points="216,-.5 216,-19.5 294,-19.5 294,-.5 216,-.5"/>
<text text-anchor="middle" x="255" y="-7.5" font-family="Helvetica,sans-Serif" font-size="10.00" fill="#000000">unordered_set</text>
</g>
<!-- Node13&#45;&gt;Node17 -->
<g id="edge22" class="edge">
<title>Node13&#45;&gt;Node17</title>
<path fill="none" stroke="#191970" d="M173.2445,-56.2455C188.5761,-47.5731 211.2199,-34.7645 228.7916,-24.825"/>
<polygon fill="#191970" stroke="#191970" points="230.9724,-27.6126 237.9531,-19.6427 227.5259,-21.5198 230.9724,-27.6126"/>
</g>
<!-- Node13&#45;&gt;Node18 -->
<g id="edge23" class="edge">
<title>Node13&#45;&gt;Node18</title>
<path fill="none" stroke="#191970" d="M132.6208,-56.3733C109.691,-46.9316 74.6419,-32.4996 49.7403,-22.246"/>
<polygon fill="#191970" stroke="#191970" points="50.9917,-18.9762 40.4123,-18.4051 48.3264,-25.449 50.9917,-18.9762"/>
</g>
<!-- Node19&#45;&gt;Node2 -->
<g id="edge28" class="edge">
<title>Node19&#45;&gt;Node2</title>
<path fill="none" stroke="#191970" d="M517.7724,-113.0444C520.8899,-112.6832 523.9769,-112.3333 527,-112 693.7064,-93.619 740.3354,-107.7111 909.2743,-75.7883"/>
<polygon fill="#191970" stroke="#191970" points="910.0902,-79.1958 919.253,-73.8766 908.7731,-72.3208 910.0902,-79.1958"/>
</g>
<!-- Node19&#45;&gt;Node6 -->
<g id="edge30" class="edge">
<title>Node19&#45;&gt;Node6</title>
<path fill="none" stroke="#191970" d="M511.0774,-112.4567C573.0962,-102.5351 660.1609,-86.9525 672,-76 684.6941,-64.2565 689.1032,-44.6361 690.5404,-29.8328"/>
<polygon fill="#191970" stroke="#191970" points="694.0454,-29.853 691.1482,-19.662 687.0579,-29.4353 694.0454,-29.853"/>
</g>
<!-- Node19&#45;&gt;Node8 -->
<g id="edge31" class="edge">
<title>Node19&#45;&gt;Node8</title>
<path fill="none" stroke="#191970" d="M510.6493,-112.473C562.8924,-104.1255 639.1503,-91.0042 705,-76 706.2807,-75.7082 707.5841,-75.4 708.8985,-75.0798"/>
<polygon fill="#191970" stroke="#191970" points="710.1955,-78.3594 718.9985,-72.4639 708.4403,-71.583 710.1955,-78.3594"/>
</g>
<!-- Node19&#45;&gt;Node13 -->
<g id="edge29" class="edge">
<title>Node19&#45;&gt;Node13</title>
<path fill="none" stroke="#191970" d="M398.1352,-112.4369C347.6367,-102.7522 269.5165,-87.7703 215.7395,-77.4569"/>
<polygon fill="#191970" stroke="#191970" points="216.1394,-73.9699 205.6591,-75.5237 214.8209,-80.8446 216.1394,-73.9699"/>
</g>
<!-- Node20 -->
<g id="node21" class="node">
<title>Node20</title>
<polygon fill="#ffffff" stroke="#bfbfbf" points="408,-56.5 408,-75.5 486,-75.5 486,-56.5 408,-56.5"/>
<text text-anchor="middle" x="447" y="-63.5" font-family="Helvetica,sans-Serif" font-size="10.00" fill="#000000">boost/any.hpp</text>
</g>
<!-- Node19&#45;&gt;Node20 -->
<g id="edge27" class="edge">
<title>Node19&#45;&gt;Node20</title>
<path fill="none" stroke="#191970" d="M447.8258,-112.2455C447.6953,-104.9382 447.5124,-94.6944 447.3519,-85.7046"/>
<polygon fill="#191970" stroke="#191970" points="450.8503,-85.5786 447.1722,-75.6427 443.8514,-85.7036 450.8503,-85.5786"/>
</g>
<!-- Node21 -->
<g id="node22" class="node">
<title>Node21</title>
<g id="a_node22"><a xlink:href="coreviews_8hpp.html" target="_top" xlink:title="xnetwork/classes/coreviews.hpp">
<polygon fill="#ffffff" stroke="#000000" points="504.5,-56.5 504.5,-75.5 663.5,-75.5 663.5,-56.5 504.5,-56.5"/>
<text text-anchor="middle" x="584" y="-63.5" font-family="Helvetica,sans-Serif" font-size="10.00" fill="#000000">xnetwork/classes/coreviews.hpp</text>
</a>
</g>
</g>
<!-- Node19&#45;&gt;Node21 -->
<g id="edge32" class="edge">
<title>Node19&#45;&gt;Node21</title>
<path fill="none" stroke="#191970" d="M471.3792,-112.3733C493.5045,-103.2629 526.9134,-89.5062 551.6019,-79.3404"/>
<polygon fill="#191970" stroke="#191970" points="553.0117,-82.5451 560.9258,-75.5011 550.3464,-76.0723 553.0117,-82.5451"/>
</g>
<!-- Node22 -->
<g id="node23" class="node">
<title>Node22</title>
<g id="a_node23"><a xlink:href="reportviews_8hpp.html" target="_top" xlink:title="xnetwork/classes/reportviews.hpp">
<polygon fill="#ffffff" stroke="#000000" points="224.5,-56.5 224.5,-75.5 389.5,-75.5 389.5,-56.5 224.5,-56.5"/>
<text text-anchor="middle" x="307" y="-63.5" font-family="Helvetica,sans-Serif" font-size="10.00" fill="#000000">xnetwork/classes/reportviews.hpp</text>
</a>
</g>
</g>
<!-- Node19&#45;&gt;Node22 -->
<g id="edge33" class="edge">
<title>Node19&#45;&gt;Node22</title>
<path fill="none" stroke="#191970" d="M423.7612,-112.3733C400.7211,-103.2226 365.8786,-89.3844 340.2499,-79.2057"/>
<polygon fill="#191970" stroke="#191970" points="341.5082,-75.9395 330.9225,-75.5011 338.9244,-82.4452 341.5082,-75.9395"/>
</g>
<!-- Node22&#45;&gt;Node14 -->
<g id="edge34" class="edge">
<title>Node22&#45;&gt;Node14</title>
<path fill="none" stroke="#191970" d="M314.3158,-56.2455C320.2179,-48.3761 328.6742,-37.101 335.7594,-27.6542"/>
<polygon fill="#191970" stroke="#191970" points="338.568,-29.7427 341.768,-19.6427 332.9679,-25.5427 338.568,-29.7427"/>
</g>
<!-- Node24&#45;&gt;Node1 -->
<g id="edge40" class="edge">
<title>Node24&#45;&gt;Node1</title>
<path fill="none" stroke="#191970" d="M720.7219,-280.2455C735.5889,-271.5731 757.5466,-258.7645 774.5858,-248.825"/>
<polygon fill="#191970" stroke="#191970" points="776.5955,-251.7047 783.4697,-243.6427 773.0683,-245.6582 776.5955,-251.7047"/>
</g>
<!-- Node25 -->
<g id="node26" class="node">
<title>Node25</title>
<g id="a_node26"><a xlink:href="FMBiGainCalc_8hpp.html" target="_top" xlink:title="FMBiGainCalc.hpp">
<polygon fill="#ffffff" stroke="#000000" points="612.5,-224.5 612.5,-243.5 711.5,-243.5 711.5,-224.5 612.5,-224.5"/>
<text text-anchor="middle" x="662" y="-231.5" font-family="Helvetica,sans-Serif" font-size="10.00" fill="#000000">FMBiGainCalc.hpp</text>
</a>
</g>
</g>
<!-- Node24&#45;&gt;Node25 -->
<g id="edge37" class="edge">
<title>Node24&#45;&gt;Node25</title>
<path fill="none" stroke="#191970" d="M696.6842,-280.2455C690.7821,-272.3761 682.3258,-261.101 675.2406,-251.6542"/>
<polygon fill="#191970" stroke="#191970" points="678.0321,-249.5427 669.232,-243.6427 672.432,-253.7427 678.0321,-249.5427"/>
</g>
<!-- Node25&#45;&gt;Node9 -->
<g id="edge38" class="edge">
<title>Node25&#45;&gt;Node9</title>
<path fill="none" stroke="#191970" d="M663.603,-224.4397C666.5047,-210.1127 673.9833,-183.1424 691,-168 707.6248,-153.2064 764.1364,-138.5574 802.8446,-129.8953"/>
<polygon fill="#191970" stroke="#191970" points="803.7366,-133.2829 812.7539,-127.7207 802.2361,-126.4456 803.7366,-133.2829"/>
</g>
<!-- Node25&#45;&gt;Node11 -->
<g id="edge39" class="edge">
<title>Node25&#45;&gt;Node11</title>
<path fill="none" stroke="#191970" d="M627.7907,-224.3733C593.4576,-214.7117 540.5557,-199.8247 503.996,-189.5366"/>
<polygon fill="#191970" stroke="#191970" points="504.721,-186.1047 494.1467,-186.7649 502.8247,-192.843 504.721,-186.1047"/>
</g>
<!-- Node26&#45;&gt;Node1 -->
<g id="edge42" class="edge">
<title>Node26&#45;&gt;Node1</title>
<path fill="none" stroke="#191970" d="M581.0833,-280.4369C626.4546,-270.8127 696.4886,-255.957 745.0766,-245.6504"/>
<polygon fill="#191970" stroke="#191970" points="746.0466,-249.0226 755.1027,-243.5237 744.5941,-242.175 746.0466,-249.0226"/>
</g>
<!-- Node27 -->
<g id="node28" class="node">
<title>Node27</title>
<g id="a_node28"><a xlink:href="FMKWayGainCalc_8hpp.html" target="_top" xlink:title="FMKWayGainCalc.hpp">
<polygon fill="#ffffff" stroke="#000000" points="477.5,-224.5 477.5,-243.5 594.5,-243.5 594.5,-224.5 477.5,-224.5"/>
<text text-anchor="middle" x="536" y="-231.5" font-family="Helvetica,sans-Serif" font-size="10.00" fill="#000000">FMKWayGainCalc.hpp</text>
</a>
</g>
</g>
<!-- Node26&#45;&gt;Node27 -->
<g id="edge43" class="edge">
<title>Node26&#45;&gt;Node27</title>
<path fill="none" stroke="#191970" d="M536,-280.2455C536,-272.9382 536,-262.6944 536,-253.7046"/>
<polygon fill="#191970" stroke="#191970" points="539.5001,-253.6426 536,-243.6427 532.5001,-253.6427 539.5001,-253.6426"/>
</g>
<!-- Node27&#45;&gt;Node9 -->
<g id="edge44" class="edge">
<title>Node27&#45;&gt;Node9</title>
<path fill="none" stroke="#191970" d="M553.2863,-224.4071C578.8433,-210.519 628.493,-184.6561 673,-168 716.5051,-151.7188 768.2883,-138.4142 802.7515,-130.376"/>
<polygon fill="#191970" stroke="#191970" points="803.9002,-133.7034 812.8626,-128.053 802.3328,-126.8811 803.9002,-133.7034"/>
</g>
<!-- Node27&#45;&gt;Node11 -->
<g id="edge45" class="edge">
<title>Node27&#45;&gt;Node11</title>
<path fill="none" stroke="#191970" d="M523.2844,-224.2455C512.398,-215.8943 496.5117,-203.7076 483.78,-193.9408"/>
<polygon fill="#191970" stroke="#191970" points="485.6346,-190.9523 475.5699,-187.6427 481.3739,-196.5063 485.6346,-190.9523"/>
</g>
<!-- Node28 -->
<g id="node29" class="node">
<title>Node28</title>
<g id="a_node29"><a xlink:href="robin_8hpp.html" target="_top" xlink:title="robin.hpp">
<polygon fill="#ffffff" stroke="#000000" points="512,-168.5 512,-187.5 568,-187.5 568,-168.5 512,-168.5"/>
<text text-anchor="middle" x="540" y="-175.5" font-family="Helvetica,sans-Serif" font-size="10.00" fill="#000000">robin.hpp</text>
</a>
</g>
</g>
<!-- Node27&#45;&gt;Node28 -->
<g id="edge46" class="edge">
<title>Node27&#45;&gt;Node28</title>
<path fill="none" stroke="#191970" d="M536.6967,-224.2455C537.2187,-216.9382 537.9504,-206.6944 538.5925,-197.7046"/>
<polygon fill="#191970" stroke="#191970" points="542.0898,-197.8667 539.3112,-187.6427 535.1076,-197.3679 542.0898,-197.8667"/>
</g>
<!-- Node28&#45;&gt;Node8 -->
<g id="edge47" class="edge">
<title>Node28&#45;&gt;Node8</title>
<path fill="none" stroke="#191970" d="M568.3128,-170.7189C614.0253,-158.8767 699.5586,-136.3257 705,-132 719.963,-120.1048 729.5879,-100.2193 735.0853,-85.3788"/>
<polygon fill="#191970" stroke="#191970" points="738.4871,-86.2448 738.3761,-75.6506 731.8562,-84.0017 738.4871,-86.2448"/>
</g>
<!-- Node28&#45;&gt;Node9 -->
<g id="edge48" class="edge">
<title>Node28&#45;&gt;Node9</title>
<path fill="none" stroke="#191970" d="M568.4166,-170.9985C572.9502,-169.9495 577.5966,-168.9144 582,-168 660.0643,-151.7885 752.1083,-136.295 802.7594,-128.0796"/>
<polygon fill="#191970" stroke="#191970" points="803.6052,-131.4885 812.9196,-126.4394 802.4896,-124.578 803.6052,-131.4885"/>
</g>
</g>
</svg>
        <g id="navigator" transform="translate(0 0)" fill="#404254">
                <rect fill="#f2f5e9" fill-opacity="0.5" stroke="#606060" stroke-width=".5" x="0" y="0" width="60" height="60"/>
                <use id="zoomplus" xlink:href="#zoomPlus" x="17" y="9" onmousedown="handleZoom(evt,'in')"/>
                <use id="zoomminus" xlink:href="#zoomMin" x="42" y="9" onmousedown="handleZoom(evt,'out')"/>
                <use id="reset" xlink:href="#resetDef" x="30" y="36" onmousedown="handleReset()"/>
                <g id="arrowUp" xlink:href="#dirArrow" transform="translate(30 24)" onmousedown="handlePan(0,-1)">
                  <use xlink:href="#rim" fill="#404040">
                        <set attributeName="fill" to="#808080" begin="arrowUp.mouseover" end="arrowUp.mouseout"/>
                  </use>
                  <path fill="none" stroke="white" stroke-width="1.5" d="M0,-3.0v7 M-2.5,-0.5L0,-3.0L2.5,-0.5"/>
                </g>
                <g id="arrowRight" xlink:href="#dirArrow" transform="rotate(90) translate(36 -43)" onmousedown="handlePan(1,0)">
                  <use xlink:href="#rim" fill="#404040">
                        <set attributeName="fill" to="#808080" begin="arrowRight.mouseover" end="arrowRight.mouseout"/>
                  </use>
                  <path fill="none" stroke="white" stroke-width="1.5" d="M0,-3.0v7 M-2.5,-0.5L0,-3.0L2.5,-0.5"/>
                </g>
                <g id="arrowDown" xlink:href="#dirArrow" transform="rotate(180) translate(-30 -48)" onmousedown="handlePan(0,1)">
                  <use xlink:href="#rim" fill="#404040">
                        <set attributeName="fill" to="#808080" begin="arrowDown.mouseover" end="arrowDown.mouseout"/>
                  </use>
                  <path fill="none" stroke="white" stroke-width="1.5" d="M0,-3.0v7 M-2.5,-0.5L0,-3.0L2.5,-0.5"/>
                </g>
                <g id="arrowLeft" xlink:href="#dirArrow" transform="rotate(270) translate(-36 17)" onmousedown="handlePan(-1,0)">
                  <use xlink:href="#rim" fill="#404040">
                        <set attributeName="fill" to="#808080" begin="arrowLeft.mouseover" end="arrowLeft.mouseout"/>
                  </use>
                  <path fill="none" stroke="white" stroke-width="1.5" d="M0,-3.0v7 M-2.5,-0.5L0,-3.0L2.5,-0.5"/>
                </g>
        </g>
        <svg viewBox="0 0 15 15" width="100%" height="30px" preserveAspectRatio="xMaxYMin meet">
         <g id="arrow_out" transform="scale(0.3 0.3)">
          <a xlink:href="FMGainMgr_8cpp__incl_org.svg" target="_base">
           <rect id="button" ry="5" rx="5" y="6" x="6" height="38" width="38"
                fill="#f2f5e9" fill-opacity="0.5" stroke="#606060" stroke-width="1.0"/>
           <path id="arrow"
             d="M 11.500037,31.436501 C 11.940474,20.09759 22.043105,11.32322 32.158766,21.979434 L 37.068811,17.246167 C 37.068811,17.246167 37.088388,32 37.088388,32 L 22.160133,31.978069 C 22.160133,31.978069 26.997745,27.140456 26.997745,27.140456 C 18.528582,18.264221 13.291696,25.230495 11.500037,31.436501 z"
             style="fill:#404040;"/>
          </a>
         </g>
        </svg>
</svg>
