<?xml version="1.0" encoding="UTF-8" standalone="no"?>
<!DOCTYPE svg PUBLIC "-//W3C//DTD SVG 1.1//EN"
 "http://www.w3.org/Graphics/SVG/1.1/DTD/svg11.dtd">
<!-- Generated by graphviz version 2.40.1 (20161225.0304)
 -->
<!-- Title: Graphical Class Hierarchy Pages: 1 -->
<svg width="841pt" height="242pt"
 viewBox="0.00 0.00 841.00 241.50" xmlns="http://www.w3.org/2000/svg" xmlns:xlink="http://www.w3.org/1999/xlink">
<g id="graph0" class="graph" transform="scale(1 1) rotate(0) translate(4 237.5)">
<title>Graphical Class Hierarchy</title>
<polygon fill="#ffffff" stroke="transparent" points="-4,4 -4,-237.5 837,-237.5 837,4 -4,4"/>
<!-- Node7 -->
<g id="node1" class="node">
<title>Node7</title>
<g id="a_node1"><a xlink:title="STL class. ">
<polygon fill="#ffffff" stroke="#bfbfbf" points="0,-77 0,-107 103,-107 103,-77 0,-77"/>
<text text-anchor="start" x="8" y="-95" font-family="Helvetica,sans-Serif" font-size="10.00" fill="#000000">std::unordered_map</text>
<text text-anchor="middle" x="51.5" y="-84" font-family="Helvetica,sans-Serif" font-size="10.00" fill="#000000">&lt; K, T &gt;</text>
</a>
</g>
</g>
<!-- Node0 -->
<g id="node2" class="node">
<title>Node0</title>
<g id="a_node2"><a xlink:href="classpy_1_1dict.html" target="_top" xlink:title="py::dict\&lt; const char\l *, boost::any \&gt;">
<polygon fill="#ffffff" stroke="#000000" points="154,-175 154,-205 258,-205 258,-175 154,-175"/>
<text text-anchor="start" x="162" y="-193" font-family="Helvetica,sans-Serif" font-size="10.00" fill="#000000">py::dict&lt; const char</text>
<text text-anchor="middle" x="206" y="-182" font-family="Helvetica,sans-Serif" font-size="10.00" fill="#000000"> *, boost::any &gt;</text>
</a>
</g>
</g>
<!-- Node7&#45;&gt;Node0 -->
<g id="edge1" class="edge">
<title>Node7&#45;&gt;Node0</title>
<path fill="none" stroke="#191970" d="M73.6125,-114.6285C90.3496,-130.7253 114.5602,-151.9097 139,-166 144.7802,-169.3325 151.1031,-172.327 157.4824,-174.9777"/>
<polygon fill="#191970" stroke="#191970" points="75.6178,-111.6928 66.0281,-107.1886 70.7158,-116.6899 75.6178,-111.6928"/>
</g>
<!-- Node14 -->
<g id="node8" class="node">
<title>Node14</title>
<g id="a_node8"><a xlink:href="classpy_1_1dict.html" target="_top" xlink:title="py::dict\&lt; index_t,\l node_t \&gt;">
<polygon fill="#ffffff" stroke="#000000" points="160,-126 160,-156 252,-156 252,-126 160,-126"/>
<text text-anchor="start" x="168" y="-144" font-family="Helvetica,sans-Serif" font-size="10.00" fill="#000000">py::dict&lt; index_t,</text>
<text text-anchor="middle" x="206" y="-133" font-family="Helvetica,sans-Serif" font-size="10.00" fill="#000000"> node_t &gt;</text>
</a>
</g>
</g>
<!-- Node7&#45;&gt;Node14 -->
<g id="edge7" class="edge">
<title>Node7&#45;&gt;Node14</title>
<path fill="none" stroke="#191970" d="M108.8382,-110.1849C125.6613,-115.5204 143.8365,-121.2847 159.8656,-126.3684"/>
<polygon fill="#191970" stroke="#191970" points="109.706,-106.7884 99.1158,-107.1014 107.5897,-113.4609 109.706,-106.7884"/>
</g>
<!-- Node15 -->
<g id="node9" class="node">
<title>Node15</title>
<g id="a_node9"><a xlink:href="classpy_1_1dict.html" target="_top" xlink:title="py::dict\&lt; index_t,\l uint8_t \&gt;">
<polygon fill="#ffffff" stroke="#000000" points="160,-77 160,-107 252,-107 252,-77 160,-77"/>
<text text-anchor="start" x="168" y="-95" font-family="Helvetica,sans-Serif" font-size="10.00" fill="#000000">py::dict&lt; index_t,</text>
<text text-anchor="middle" x="206" y="-84" font-family="Helvetica,sans-Serif" font-size="10.00" fill="#000000"> uint8_t &gt;</text>
</a>
</g>
</g>
<!-- Node7&#45;&gt;Node15 -->
<g id="edge8" class="edge">
<title>Node7&#45;&gt;Node15</title>
<path fill="none" stroke="#191970" d="M113.4323,-92C128.9662,-92 145.361,-92 159.9661,-92"/>
<polygon fill="#191970" stroke="#191970" points="113.3761,-88.5001 103.3761,-92 113.376,-95.5001 113.3761,-88.5001"/>
</g>
<!-- Node16 -->
<g id="node10" class="node">
<title>Node16</title>
<g id="a_node10"><a xlink:href="classpy_1_1dict.html" target="_top" xlink:title="py::dict\&lt; node_t, index_t \&gt;">
<polygon fill="#ffffff" stroke="#000000" points="139,-38.5 139,-57.5 273,-57.5 273,-38.5 139,-38.5"/>
<text text-anchor="middle" x="206" y="-45.5" font-family="Helvetica,sans-Serif" font-size="10.00" fill="#000000">py::dict&lt; node_t, index_t &gt;</text>
</a>
</g>
</g>
<!-- Node7&#45;&gt;Node16 -->
<g id="edge9" class="edge">
<title>Node7&#45;&gt;Node16</title>
<path fill="none" stroke="#191970" d="M113.1627,-74.4391C133.3942,-68.6774 155.1141,-62.4918 172.455,-57.5533"/>
<polygon fill="#191970" stroke="#191970" points="112.035,-71.121 103.3761,-77.2262 113.9523,-77.8533 112.035,-71.121"/>
</g>
<!-- Node17 -->
<g id="node11" class="node">
<title>Node17</title>
<g id="a_node11"><a xlink:href="classpy_1_1dict.html" target="_top" xlink:title="py::dict\&lt; Key, T \&gt;">
<polygon fill="#ffffff" stroke="#000000" points="158,-.5 158,-19.5 254,-19.5 254,-.5 158,-.5"/>
<text text-anchor="middle" x="206" y="-7.5" font-family="Helvetica,sans-Serif" font-size="10.00" fill="#000000">py::dict&lt; Key, T &gt;</text>
</a>
</g>
</g>
<!-- Node7&#45;&gt;Node17 -->
<g id="edge10" class="edge">
<title>Node7&#45;&gt;Node17</title>
<path fill="none" stroke="#191970" d="M76.9028,-70.0575C93.6048,-56.5877 116.4671,-39.8895 139,-29 146.7291,-25.2648 155.3246,-22.1399 163.7113,-19.5743"/>
<polygon fill="#191970" stroke="#191970" points="74.2592,-67.7004 68.7646,-76.7591 78.709,-73.1041 74.2592,-67.7004"/>
</g>
<!-- Node1 -->
<g id="node3" class="node">
<title>Node1</title>
<g id="a_node3"><a xlink:href="structxn_1_1object.html" target="_top" xlink:title="Base class for undirected graphs. ">
<polygon fill="#ffffff" stroke="#000000" points="309,-180.5 309,-199.5 368,-199.5 368,-180.5 309,-180.5"/>
<text text-anchor="middle" x="338.5" y="-187.5" font-family="Helvetica,sans-Serif" font-size="10.00" fill="#000000">xn::object</text>
</a>
</g>
</g>
<!-- Node0&#45;&gt;Node1 -->
<g id="edge2" class="edge">
<title>Node0&#45;&gt;Node1</title>
<path fill="none" stroke="#191970" d="M268.4817,-190C282.4757,-190 296.6947,-190 308.6302,-190"/>
<polygon fill="#191970" stroke="#191970" points="268.3675,-186.5001 258.3675,-190 268.3675,-193.5001 268.3675,-186.5001"/>
</g>
<!-- Node2 -->
<g id="node4" class="node">
<title>Node2</title>
<g id="a_node4"><a xlink:href="classxn_1_1Graph.html" target="_top" xlink:title="xn::Graph\&lt; nodeview\l_t, nodemap_t \&gt;">
<polygon fill="#ffffff" stroke="#000000" points="404,-203 404,-233 514,-233 514,-203 404,-203"/>
<text text-anchor="start" x="412" y="-221" font-family="Helvetica,sans-Serif" font-size="10.00" fill="#000000">xn::Graph&lt; nodeview</text>
<text text-anchor="middle" x="459" y="-210" font-family="Helvetica,sans-Serif" font-size="10.00" fill="#000000">_t, nodemap_t &gt;</text>
</a>
</g>
</g>
<!-- Node1&#45;&gt;Node2 -->
<g id="edge3" class="edge">
<title>Node1&#45;&gt;Node2</title>
<path fill="none" stroke="#191970" d="M378.2554,-199.2378C386.4072,-201.132 395.1274,-203.1582 403.7122,-205.153"/>
<polygon fill="#191970" stroke="#191970" points="378.8192,-195.7756 368.2865,-196.9214 377.2348,-202.594 378.8192,-195.7756"/>
</g>
<!-- Node3 -->
<g id="node5" class="node">
<title>Node3</title>
<g id="a_node5"><a xlink:href="classxn_1_1Graph.html" target="_top" xlink:title="xn::Graph\&lt; nodeview\l_t, nodemap_t, adjlist\l_inner_dict_factory \&gt;">
<polygon fill="#ffffff" stroke="#000000" points="404,-142.5 404,-183.5 514,-183.5 514,-142.5 404,-142.5"/>
<text text-anchor="start" x="412" y="-171.5" font-family="Helvetica,sans-Serif" font-size="10.00" fill="#000000">xn::Graph&lt; nodeview</text>
<text text-anchor="start" x="412" y="-160.5" font-family="Helvetica,sans-Serif" font-size="10.00" fill="#000000">_t, nodemap_t, adjlist</text>
<text text-anchor="middle" x="459" y="-149.5" font-family="Helvetica,sans-Serif" font-size="10.00" fill="#000000">_inner_dict_factory &gt;</text>
</a>
</g>
</g>
<!-- Node1&#45;&gt;Node3 -->
<g id="edge4" class="edge">
<title>Node1&#45;&gt;Node3</title>
<path fill="none" stroke="#191970" d="M378.2554,-181.0922C386.4072,-179.2656 395.1274,-177.3117 403.7122,-175.3881"/>
<polygon fill="#191970" stroke="#191970" points="377.2793,-177.724 368.2865,-183.3258 378.8099,-184.5546 377.2793,-177.724"/>
</g>
<!-- Node4 -->
<g id="node6" class="node">
<title>Node4</title>
<g id="a_node6"><a xlink:href="classxn_1_1VertexView.html" target="_top" xlink:title="VertexView. ">
<polygon fill="#ffffff" stroke="#000000" points="550,-153.5 550,-172.5 678,-172.5 678,-153.5 550,-153.5"/>
<text text-anchor="middle" x="614" y="-160.5" font-family="Helvetica,sans-Serif" font-size="10.00" fill="#000000">xn::VertexView&lt; Graph &gt;</text>
</a>
</g>
</g>
<!-- Node3&#45;&gt;Node4 -->
<g id="edge5" class="edge">
<title>Node3&#45;&gt;Node4</title>
<path fill="none" stroke="#191970" d="M524.2744,-163C532.7331,-163 541.391,-163 549.8315,-163"/>
<polygon fill="#191970" stroke="#191970" points="524.0837,-159.5001 514.0836,-163 524.0836,-166.5001 524.0837,-159.5001"/>
</g>
<!-- Node5 -->
<g id="node7" class="node">
<title>Node5</title>
<g id="a_node7"><a xlink:href="classxn_1_1grAdaptor.html" target="_top" xlink:title="grAdaptor ">
<polygon fill="#ffffff" stroke="#000000" points="714,-153.5 714,-172.5 833,-172.5 833,-153.5 714,-153.5"/>
<text text-anchor="middle" x="773.5" y="-160.5" font-family="Helvetica,sans-Serif" font-size="10.00" fill="#000000">xn::grAdaptor&lt; Graph &gt;</text>
</a>
</g>
</g>
<!-- Node4&#45;&gt;Node5 -->
<g id="edge6" class="edge">
<title>Node4&#45;&gt;Node5</title>
<path fill="none" stroke="#191970" d="M688.6256,-163C697.0483,-163 705.5477,-163 713.7456,-163"/>
<polygon fill="#191970" stroke="#191970" points="688.415,-159.5001 678.415,-163 688.415,-166.5001 688.415,-159.5001"/>
</g>
</g>
</svg>
