<?xml version="1.0" encoding="UTF-8" standalone="no"?>
<!DOCTYPE svg PUBLIC "-//W3C//DTD SVG 1.1//EN"
 "http://www.w3.org/Graphics/SVG/1.1/DTD/svg11.dtd">
<!-- Generated by graphviz version 2.40.1 (20161225.0304)
 -->
<!-- Title: Graphical Class Hierarchy Pages: 1 -->
<svg width="255pt" height="247pt"
 viewBox="0.00 0.00 255.00 247.00" xmlns="http://www.w3.org/2000/svg" xmlns:xlink="http://www.w3.org/1999/xlink">
<g id="graph0" class="graph" transform="scale(1 1) rotate(0) translate(4 243)">
<title>Graphical Class Hierarchy</title>
<polygon fill="#ffffff" stroke="transparent" points="-4,4 -4,-243 251,-243 251,4 -4,4"/>
<!-- Node189 -->
<g id="node1" class="node">
<title>Node189</title>
<polygon fill="#ffffff" stroke="#bfbfbf" points="0,-104 0,-123 62,-123 62,-104 0,-104"/>
<text text-anchor="middle" x="31" y="-111" font-family="Helvetica,sans-Serif" font-size="10.00" fill="#000000">false_type</text>
</g>
<!-- Node0 -->
<g id="node2" class="node">
<title>Node0</title>
<g id="a_node2"><a xlink:href="structiter_1_1impl_1_1HasConstDeref.html" target="_top" xlink:title="iter::impl::HasConstDeref\l\&lt; T, typename \&gt;">
<polygon fill="#ffffff" stroke="#000000" points="108.5,-208.5 108.5,-238.5 236.5,-238.5 236.5,-208.5 108.5,-208.5"/>
<text text-anchor="start" x="116.5" y="-226.5" font-family="Helvetica,sans-Serif" font-size="10.00" fill="#000000">iter::impl::HasConstDeref</text>
<text text-anchor="middle" x="172.5" y="-215.5" font-family="Helvetica,sans-Serif" font-size="10.00" fill="#000000">&lt; T, typename &gt;</text>
</a>
</g>
</g>
<!-- Node189&#45;&gt;Node0 -->
<g id="edge1" class="edge">
<title>Node189&#45;&gt;Node0</title>
<path fill="none" stroke="#191970" d="M41.1045,-131.8819C52.5444,-151.0844 72.8971,-180.8234 98,-198.5 103.4658,-202.3489 109.5687,-205.6402 115.8645,-208.4465"/>
<polygon fill="#191970" stroke="#191970" points="44.1085,-130.0847 36.0894,-123.1604 38.0401,-133.5741 44.1085,-130.0847"/>
</g>
<!-- Node191 -->
<g id="node3" class="node">
<title>Node191</title>
<g id="a_node3"><a xlink:href="structiter_1_1impl_1_1is__random__access__iter.html" target="_top" xlink:title="iter::impl::is_random\l_access_iter\&lt; typename,\l typename \&gt;">
<polygon fill="#ffffff" stroke="#000000" points="109,-148 109,-189 236,-189 236,-148 109,-148"/>
<text text-anchor="start" x="117" y="-177" font-family="Helvetica,sans-Serif" font-size="10.00" fill="#000000">iter::impl::is_random</text>
<text text-anchor="start" x="117" y="-166" font-family="Helvetica,sans-Serif" font-size="10.00" fill="#000000">_access_iter&lt; typename,</text>
<text text-anchor="middle" x="172.5" y="-155" font-family="Helvetica,sans-Serif" font-size="10.00" fill="#000000"> typename &gt;</text>
</a>
</g>
</g>
<!-- Node189&#45;&gt;Node191 -->
<g id="edge2" class="edge">
<title>Node189&#45;&gt;Node191</title>
<path fill="none" stroke="#191970" d="M65.3064,-126.8346C81.634,-133.1811 101.5238,-140.9121 119.7163,-147.9834"/>
<polygon fill="#191970" stroke="#191970" points="66.2361,-123.441 55.6474,-123.0803 63.7001,-129.9654 66.2361,-123.441"/>
</g>
<!-- Node192 -->
<g id="node4" class="node">
<title>Node192</title>
<g id="a_node4"><a xlink:href="structiter_1_1impl_1_1IsIterable.html" target="_top" xlink:title="iter::impl::IsIterable\l\&lt; T, typename \&gt;">
<polygon fill="#ffffff" stroke="#000000" points="122,-98.5 122,-128.5 223,-128.5 223,-98.5 122,-98.5"/>
<text text-anchor="start" x="130" y="-116.5" font-family="Helvetica,sans-Serif" font-size="10.00" fill="#000000">iter::impl::IsIterable</text>
<text text-anchor="middle" x="172.5" y="-105.5" font-family="Helvetica,sans-Serif" font-size="10.00" fill="#000000">&lt; T, typename &gt;</text>
</a>
</g>
</g>
<!-- Node189&#45;&gt;Node192 -->
<g id="edge3" class="edge">
<title>Node189&#45;&gt;Node192</title>
<path fill="none" stroke="#191970" d="M72.3494,-113.5C87.8161,-113.5 105.563,-113.5 121.7798,-113.5"/>
<polygon fill="#191970" stroke="#191970" points="72.0528,-110.0001 62.0528,-113.5 72.0527,-117.0001 72.0528,-110.0001"/>
</g>
<!-- Node193 -->
<g id="node5" class="node">
<title>Node193</title>
<g id="a_node5"><a xlink:href="structiter_1_1impl_1_1StarMapFn_1_1is__tuple__like.html" target="_top" xlink:title="iter::impl::StarMapFn\l::is_tuple_like\&lt; T, typename \&gt;">
<polygon fill="#ffffff" stroke="#000000" points="98,-49.5 98,-79.5 247,-79.5 247,-49.5 98,-49.5"/>
<text text-anchor="start" x="106" y="-67.5" font-family="Helvetica,sans-Serif" font-size="10.00" fill="#000000">iter::impl::StarMapFn</text>
<text text-anchor="middle" x="172.5" y="-56.5" font-family="Helvetica,sans-Serif" font-size="10.00" fill="#000000">::is_tuple_like&lt; T, typename &gt;</text>
</a>
</g>
</g>
<!-- Node189&#45;&gt;Node193 -->
<g id="edge4" class="edge">
<title>Node189&#45;&gt;Node193</title>
<path fill="none" stroke="#191970" d="M67.0283,-100.4435C77.0424,-96.8555 87.9317,-92.9922 98,-89.5 107.4093,-86.2364 117.5103,-82.8012 127.1434,-79.5576"/>
<polygon fill="#191970" stroke="#191970" points="65.5952,-97.2393 57.3686,-103.9157 67.9631,-103.8267 65.5952,-97.2393"/>
</g>
<!-- Node194 -->
<g id="node6" class="node">
<title>Node194</title>
<g id="a_node6"><a xlink:href="structitertest_1_1IsIterator.html" target="_top" xlink:title="itertest::IsIterator\l\&lt; typename, typename \&gt;">
<polygon fill="#ffffff" stroke="#000000" points="109.5,-.5 109.5,-30.5 235.5,-30.5 235.5,-.5 109.5,-.5"/>
<text text-anchor="start" x="117.5" y="-18.5" font-family="Helvetica,sans-Serif" font-size="10.00" fill="#000000">itertest::IsIterator</text>
<text text-anchor="middle" x="172.5" y="-7.5" font-family="Helvetica,sans-Serif" font-size="10.00" fill="#000000">&lt; typename, typename &gt;</text>
</a>
</g>
</g>
<!-- Node189&#45;&gt;Node194 -->
<g id="edge5" class="edge">
<title>Node189&#45;&gt;Node194</title>
<path fill="none" stroke="#191970" d="M43.5567,-95.2387C55.7297,-78.7972 75.6024,-55.0464 98,-40.5 103.8352,-36.7103 110.3022,-33.4383 116.9177,-30.6282"/>
<polygon fill="#191970" stroke="#191970" points="40.6039,-93.3504 37.6189,-103.516 46.2918,-97.4306 40.6039,-93.3504"/>
</g>
</g>
</svg>
