<?xml version="1.0" encoding="UTF-8" standalone="no"?>
<!DOCTYPE svg PUBLIC "-//W3C//DTD SVG 1.1//EN"
 "http://www.w3.org/Graphics/SVG/1.1/DTD/svg11.dtd">
<!-- Generated by graphviz version 2.40.1 (20161225.0304)
 -->
<!-- Title: Graphical Class Hierarchy Pages: 1 -->
<svg width="531pt" height="50pt"
 viewBox="0.00 0.00 531.00 50.00" xmlns="http://www.w3.org/2000/svg" xmlns:xlink="http://www.w3.org/1999/xlink">
<g id="graph0" class="graph" transform="scale(1 1) rotate(0) translate(4 46)">
<title>Graphical Class Hierarchy</title>
<polygon fill="#ffffff" stroke="transparent" points="-4,4 -4,-46 527,-46 527,4 -4,4"/>
<!-- Node0 -->
<g id="node1" class="node">
<title>Node0</title>
<g id="a_node1"><a xlink:href="structiter_1_1impl_1_1Pipeable.html" target="_top" xlink:title="iter::impl::Pipeable\l\&lt; IterToolFnOptionalBindFirst\l\&lt; ItImpl, DefaultT \&gt; \&gt;">
<polygon fill="#ffffff" stroke="#000000" points="0,-.5 0,-41.5 145,-41.5 145,-.5 0,-.5"/>
<text text-anchor="start" x="8" y="-29.5" font-family="Helvetica,sans-Serif" font-size="10.00" fill="#000000">iter::impl::Pipeable</text>
<text text-anchor="start" x="8" y="-18.5" font-family="Helvetica,sans-Serif" font-size="10.00" fill="#000000">&lt; IterToolFnOptionalBindFirst</text>
<text text-anchor="middle" x="72.5" y="-7.5" font-family="Helvetica,sans-Serif" font-size="10.00" fill="#000000">&lt; ItImpl, DefaultT &gt; &gt;</text>
</a>
</g>
</g>
<!-- Node1 -->
<g id="node2" class="node">
<title>Node1</title>
<g id="a_node2"><a xlink:href="structiter_1_1impl_1_1PipeableAndBindFirst.html" target="_top" xlink:title="iter::impl::PipeableAndBind\lFirst\&lt; IterToolFnOptionalBindFirst\l\&lt; ItImpl, DefaultT \&gt; \&gt;">
<polygon fill="#ffffff" stroke="#000000" points="181,-.5 181,-41.5 345,-41.5 345,-.5 181,-.5"/>
<text text-anchor="start" x="189" y="-29.5" font-family="Helvetica,sans-Serif" font-size="10.00" fill="#000000">iter::impl::PipeableAndBind</text>
<text text-anchor="start" x="189" y="-18.5" font-family="Helvetica,sans-Serif" font-size="10.00" fill="#000000">First&lt; IterToolFnOptionalBindFirst</text>
<text text-anchor="middle" x="263" y="-7.5" font-family="Helvetica,sans-Serif" font-size="10.00" fill="#000000">&lt; ItImpl, DefaultT &gt; &gt;</text>
</a>
</g>
</g>
<!-- Node0&#45;&gt;Node1 -->
<g id="edge1" class="edge">
<title>Node0&#45;&gt;Node1</title>
<path fill="none" stroke="#191970" d="M155.2872,-21C163.7381,-21 172.3221,-21 180.767,-21"/>
<polygon fill="#191970" stroke="#191970" points="155.0634,-17.5001 145.0633,-21 155.0633,-24.5001 155.0634,-17.5001"/>
</g>
<!-- Node2 -->
<g id="node3" class="node">
<title>Node2</title>
<g id="a_node3"><a xlink:href="structiter_1_1impl_1_1IterToolFnOptionalBindFirst.html" target="_top" xlink:title="iter::impl::IterToolFnOptional\lBindFirst\&lt; ItImpl, DefaultT \&gt;">
<polygon fill="#ffffff" stroke="#000000" points="381,-6 381,-36 523,-36 523,-6 381,-6"/>
<text text-anchor="start" x="389" y="-24" font-family="Helvetica,sans-Serif" font-size="10.00" fill="#000000">iter::impl::IterToolFnOptional</text>
<text text-anchor="middle" x="452" y="-13" font-family="Helvetica,sans-Serif" font-size="10.00" fill="#000000">BindFirst&lt; ItImpl, DefaultT &gt;</text>
</a>
</g>
</g>
<!-- Node1&#45;&gt;Node2 -->
<g id="edge2" class="edge">
<title>Node1&#45;&gt;Node2</title>
<path fill="none" stroke="#191970" d="M355.2068,-21C363.8637,-21 372.5463,-21 380.9637,-21"/>
<polygon fill="#191970" stroke="#191970" points="355.0736,-17.5001 345.0736,-21 355.0735,-24.5001 355.0736,-17.5001"/>
</g>
</g>
</svg>
