<?xml version="1.0" encoding="UTF-8" standalone="no"?>
<!DOCTYPE svg PUBLIC "-//W3C//DTD SVG 1.1//EN"
 "http://www.w3.org/Graphics/SVG/1.1/DTD/svg11.dtd">
<!-- Generated by graphviz version 2.40.1 (20161225.0304)
 -->
<!-- Title: iter::product Pages: 1 -->
<svg width="460pt" height="39pt"
 viewBox="0.00 0.00 460.00 39.00" xmlns="http://www.w3.org/2000/svg" xmlns:xlink="http://www.w3.org/1999/xlink">
<g id="graph0" class="graph" transform="scale(1 1) rotate(0) translate(4 35)">
<title>iter::product</title>
<polygon fill="#ffffff" stroke="transparent" points="-4,4 -4,-35 456,-35 456,4 -4,4"/>
<!-- Node30 -->
<g id="node1" class="node">
<title>Node30</title>
<polygon fill="#bfbfbf" stroke="#000000" points="0,-6 0,-25 68,-25 68,-6 0,-6"/>
<text text-anchor="middle" x="34" y="-13" font-family="Helvetica,sans-Serif" font-size="10.00" fill="#000000">iter::product</text>
</g>
<!-- Node31 -->
<g id="node2" class="node">
<title>Node31</title>
<g id="a_node2"><a xlink:href="namespaceiter_1_1impl.html#a7e3fcd8159c2a8a63c1ccd1aa75e7ccb" target="_top" xlink:title="iter::impl::product\l_repeat">
<polygon fill="#ffffff" stroke="#000000" points="104,-.5 104,-30.5 196,-30.5 196,-.5 104,-.5"/>
<text text-anchor="start" x="112" y="-18.5" font-family="Helvetica,sans-Serif" font-size="10.00" fill="#000000">iter::impl::product</text>
<text text-anchor="middle" x="150" y="-7.5" font-family="Helvetica,sans-Serif" font-size="10.00" fill="#000000">_repeat</text>
</a>
</g>
</g>
<!-- Node30&#45;&gt;Node31 -->
<g id="edge1" class="edge">
<title>Node30&#45;&gt;Node31</title>
<path fill="none" stroke="#191970" d="M68.1764,-15.5C76.1501,-15.5 84.8509,-15.5 93.5069,-15.5"/>
<polygon fill="#191970" stroke="#191970" points="93.6015,-19.0001 103.6015,-15.5 93.6015,-12.0001 93.6015,-19.0001"/>
</g>
<!-- Node32 -->
<g id="node3" class="node">
<title>Node32</title>
<g id="a_node3"><a xlink:href="namespaceiter.html#af5d78322beb84b8cf42be5f0bc70f456" target="_top" xlink:title="iter::product">
<polygon fill="#ffffff" stroke="#000000" points="232,-6 232,-25 300,-25 300,-6 232,-6"/>
<text text-anchor="middle" x="266" y="-13" font-family="Helvetica,sans-Serif" font-size="10.00" fill="#000000">iter::product</text>
</a>
</g>
</g>
<!-- Node31&#45;&gt;Node32 -->
<g id="edge2" class="edge">
<title>Node31&#45;&gt;Node32</title>
<path fill="none" stroke="#191970" d="M196.1796,-15.5C204.5313,-15.5 213.2245,-15.5 221.5262,-15.5"/>
<polygon fill="#191970" stroke="#191970" points="221.7771,-19.0001 231.7771,-15.5 221.7771,-12.0001 221.7771,-19.0001"/>
</g>
<!-- Node33 -->
<g id="node4" class="node">
<title>Node33</title>
<g id="a_node4"><a xlink:href="namespaceiter_1_1impl.html#ac4dbfd2feed3c237dc3e97dffde6cbb2" target="_top" xlink:title="iter::impl::product_impl">
<polygon fill="#ffffff" stroke="#000000" points="336,-6 336,-25 452,-25 452,-6 336,-6"/>
<text text-anchor="middle" x="394" y="-13" font-family="Helvetica,sans-Serif" font-size="10.00" fill="#000000">iter::impl::product_impl</text>
</a>
</g>
</g>
<!-- Node32&#45;&gt;Node33 -->
<g id="edge3" class="edge">
<title>Node32&#45;&gt;Node33</title>
<path fill="none" stroke="#191970" d="M300.3017,-15.5C308.2647,-15.5 317.0158,-15.5 325.8728,-15.5"/>
<polygon fill="#191970" stroke="#191970" points="325.8813,-19.0001 335.8813,-15.5 325.8813,-12.0001 325.8813,-19.0001"/>
</g>
</g>
</svg>
