<?xml version="1.0" encoding="UTF-8" standalone="no"?>
<!DOCTYPE svg PUBLIC "-//W3C//DTD SVG 1.1//EN"
 "http://www.w3.org/Graphics/SVG/1.1/DTD/svg11.dtd">
<!-- Generated by graphviz version 2.40.1 (20161225.0304)
 -->
<!-- Title: py::range Pages: 1 -->
<svg width="452pt" height="230pt"
 viewBox="0.00 0.00 452.00 230.00" xmlns="http://www.w3.org/2000/svg" xmlns:xlink="http://www.w3.org/1999/xlink">
<g id="graph0" class="graph" transform="scale(1 1) rotate(0) translate(4 226)">
<title>py::range</title>
<polygon fill="#ffffff" stroke="transparent" points="-4,4 -4,-226 448,-226 448,4 -4,4"/>
<!-- Node25 -->
<g id="node1" class="node">
<title>Node25</title>
<polygon fill="#bfbfbf" stroke="#000000" points="0,-82.5 0,-101.5 57,-101.5 57,-82.5 0,-82.5"/>
<text text-anchor="middle" x="28.5" y="-89.5" font-family="Helvetica,sans-Serif" font-size="10.00" fill="#000000">py::range</text>
</g>
<!-- Node26 -->
<g id="node2" class="node">
<title>Node26</title>
<g id="a_node2"><a xlink:href="namespacepy.html#a60b1464018ad9d097a2657f82cd62da7" target="_top" xlink:title="py::range">
<polygon fill="#ffffff" stroke="#000000" points="102,-101.5 102,-120.5 159,-120.5 159,-101.5 102,-101.5"/>
<text text-anchor="middle" x="130.5" y="-108.5" font-family="Helvetica,sans-Serif" font-size="10.00" fill="#000000">py::range</text>
</a>
</g>
</g>
<!-- Node25&#45;&gt;Node26 -->
<g id="edge1" class="edge">
<title>Node25&#45;&gt;Node26</title>
<path fill="none" stroke="#191970" d="M67.3454,-99.2359C78.7507,-101.3604 91.017,-103.6453 101.6778,-105.6312"/>
<polygon fill="#191970" stroke="#191970" points="67.656,-95.7336 57.1841,-97.3431 66.3741,-102.6153 67.656,-95.7336"/>
</g>
<!-- Node36 -->
<g id="node12" class="node">
<title>Node36</title>
<g id="a_node12"><a xlink:href="home_2lubuntu_2github_2ckpttncpp_2lib_2test_2src_2test__range_8cpp.html#a577b9e8b6304120acee6ac258dbed47c" target="_top" xlink:title="TEST_CASE">
<polygon fill="#ffffff" stroke="#000000" points="93,-63.5 93,-82.5 168,-82.5 168,-63.5 93,-63.5"/>
<text text-anchor="middle" x="130.5" y="-70.5" font-family="Helvetica,sans-Serif" font-size="10.00" fill="#000000">TEST_CASE</text>
</a>
</g>
</g>
<!-- Node25&#45;&gt;Node36 -->
<g id="edge11" class="edge">
<title>Node25&#45;&gt;Node36</title>
<path fill="none" stroke="#191970" d="M67.1621,-84.7982C75.5917,-83.228 84.4998,-81.5687 92.8879,-80.0062"/>
<polygon fill="#191970" stroke="#191970" points="66.3741,-81.3847 57.1841,-86.6569 67.656,-88.2664 66.3741,-81.3847"/>
</g>
<!-- Node27 -->
<g id="node3" class="node">
<title>Node27</title>
<g id="a_node3"><a xlink:href="namespaceiter.html#a34d10cbd10cdd0cb676ccef9040049e5" target="_top" xlink:title="iter::count">
<polygon fill="#ffffff" stroke="#000000" points="238.5,-183.5 238.5,-202.5 298.5,-202.5 298.5,-183.5 238.5,-183.5"/>
<text text-anchor="middle" x="268.5" y="-190.5" font-family="Helvetica,sans-Serif" font-size="10.00" fill="#000000">iter::count</text>
</a>
</g>
</g>
<!-- Node26&#45;&gt;Node27 -->
<g id="edge2" class="edge">
<title>Node26&#45;&gt;Node27</title>
<path fill="none" stroke="#191970" d="M146.3438,-128.138C160.2863,-142.2844 181.7776,-161.9305 204,-174 214.566,-179.7387 227.071,-183.9352 238.2442,-186.9016"/>
<polygon fill="#191970" stroke="#191970" points="148.5069,-125.3369 139.0586,-120.5431 143.4552,-130.1827 148.5069,-125.3369"/>
</g>
<!-- Node30 -->
<g id="node6" class="node">
<title>Node30</title>
<g id="a_node6"><a xlink:href="mixed__examples_8cpp.html#ae66f6b31b5ad750f1fe042a706a4e3d4" target="_top" xlink:title="main">
<polygon fill="#ffffff" stroke="#000000" points="249.5,-145.5 249.5,-164.5 287.5,-164.5 287.5,-145.5 249.5,-145.5"/>
<text text-anchor="middle" x="268.5" y="-152.5" font-family="Helvetica,sans-Serif" font-size="10.00" fill="#000000">main</text>
</a>
</g>
</g>
<!-- Node26&#45;&gt;Node30 -->
<g id="edge5" class="edge">
<title>Node26&#45;&gt;Node30</title>
<path fill="none" stroke="#191970" d="M167.1338,-123.7933C178.8755,-127.8043 191.9555,-132.1794 204,-136 219.1331,-140.8003 236.3909,-145.8626 249.2449,-149.5537"/>
<polygon fill="#191970" stroke="#191970" points="168.2322,-120.4699 157.6376,-120.5298 165.9571,-127.0899 168.2322,-120.4699"/>
</g>
<!-- Node31 -->
<g id="node7" class="node">
<title>Node31</title>
<g id="a_node7"><a xlink:href="classiter_1_1detail_1_1RangeIterData_3_01T_00_01true_01_4.html#aa9fce2bc81ab352e71948beb5c89a13c" target="_top" xlink:title="iter::detail::RangeIterData\l\&lt; T, true \&gt;::operator!=">
<polygon fill="#ffffff" stroke="#000000" points="204,-96 204,-126 333,-126 333,-96 204,-96"/>
<text text-anchor="start" x="212" y="-114" font-family="Helvetica,sans-Serif" font-size="10.00" fill="#000000">iter::detail::RangeIterData</text>
<text text-anchor="middle" x="268.5" y="-103" font-family="Helvetica,sans-Serif" font-size="10.00" fill="#000000">&lt; T, true &gt;::operator!=</text>
</a>
</g>
</g>
<!-- Node26&#45;&gt;Node31 -->
<g id="edge6" class="edge">
<title>Node26&#45;&gt;Node31</title>
<path fill="none" stroke="#191970" d="M169.3686,-111C180.0978,-111 192.0365,-111 203.8074,-111"/>
<polygon fill="#191970" stroke="#191970" points="169.0937,-107.5001 159.0937,-111 169.0937,-114.5001 169.0937,-107.5001"/>
</g>
<!-- Node32 -->
<g id="node8" class="node">
<title>Node32</title>
<g id="a_node8"><a xlink:href="classiter_1_1impl_1_1Range.html#a6b91734cfbbe8a4a2bf3b4d79713c8bc" target="_top" xlink:title="iter::impl::Range::end">
<polygon fill="#ffffff" stroke="#000000" points="213.5,-57.5 213.5,-76.5 323.5,-76.5 323.5,-57.5 213.5,-57.5"/>
<text text-anchor="middle" x="268.5" y="-64.5" font-family="Helvetica,sans-Serif" font-size="10.00" fill="#000000">iter::impl::Range::end</text>
</a>
</g>
</g>
<!-- Node26&#45;&gt;Node32 -->
<g id="edge7" class="edge">
<title>Node26&#45;&gt;Node32</title>
<path fill="none" stroke="#191970" d="M168.7196,-98.4003C180.0641,-94.6929 192.5239,-90.6527 204,-87 214.8365,-83.5509 226.7212,-79.8442 237.304,-76.5702"/>
<polygon fill="#191970" stroke="#191970" points="167.5037,-95.1156 159.0901,-101.5547 169.6828,-101.7678 167.5037,-95.1156"/>
</g>
<!-- Node33 -->
<g id="node9" class="node">
<title>Node33</title>
<g id="a_node9"><a xlink:href="media_2lubuntu_2USBDISK_2github_2ckpttncpp_2third__party_2cppitertools_2test_2test__range_8cpp.html#a5185949974d2fa34097ed9a5dfbe6af6" target="_top" xlink:title="TEST_CASE">
<polygon fill="#ffffff" stroke="#000000" points="231,-19.5 231,-38.5 306,-38.5 306,-19.5 231,-19.5"/>
<text text-anchor="middle" x="268.5" y="-26.5" font-family="Helvetica,sans-Serif" font-size="10.00" fill="#000000">TEST_CASE</text>
</a>
</g>
</g>
<!-- Node26&#45;&gt;Node33 -->
<g id="edge8" class="edge">
<title>Node26&#45;&gt;Node33</title>
<path fill="none" stroke="#191970" d="M162.2667,-96.1383C164.2665,-94.8301 166.1974,-93.4488 168,-92 187.6942,-76.171 182.9454,-61.9686 204,-48 211.9766,-42.708 221.4608,-38.8568 230.6686,-36.0663"/>
<polygon fill="#191970" stroke="#191970" points="160.1252,-93.3349 153.242,-101.3892 163.6456,-99.3853 160.1252,-93.3349"/>
</g>
<!-- Node28 -->
<g id="node4" class="node">
<title>Node28</title>
<g id="a_node4"><a xlink:href="namespaceiter.html#a4b34aa780fee4de199e2f167bc06316c" target="_top" xlink:title="iter::count">
<polygon fill="#ffffff" stroke="#000000" points="376.5,-202.5 376.5,-221.5 436.5,-221.5 436.5,-202.5 376.5,-202.5"/>
<text text-anchor="middle" x="406.5" y="-209.5" font-family="Helvetica,sans-Serif" font-size="10.00" fill="#000000">iter::count</text>
</a>
</g>
</g>
<!-- Node27&#45;&gt;Node28 -->
<g id="edge3" class="edge">
<title>Node27&#45;&gt;Node28</title>
<path fill="none" stroke="#191970" d="M308.9481,-198.5689C330.4849,-201.5342 356.5277,-205.1198 376.286,-207.8401"/>
<polygon fill="#191970" stroke="#191970" points="309.1686,-195.0664 298.7847,-197.1696 308.2138,-202.001 309.1686,-195.0664"/>
</g>
<!-- Node29 -->
<g id="node5" class="node">
<title>Node29</title>
<g id="a_node5"><a xlink:href="count__examples_8cpp.html#ae66f6b31b5ad750f1fe042a706a4e3d4" target="_top" xlink:title="main">
<polygon fill="#ffffff" stroke="#000000" points="387.5,-164.5 387.5,-183.5 425.5,-183.5 425.5,-164.5 387.5,-164.5"/>
<text text-anchor="middle" x="406.5" y="-171.5" font-family="Helvetica,sans-Serif" font-size="10.00" fill="#000000">main</text>
</a>
</g>
</g>
<!-- Node27&#45;&gt;Node29 -->
<g id="edge4" class="edge">
<title>Node27&#45;&gt;Node29</title>
<path fill="none" stroke="#191970" d="M308.7052,-187.4645C334.6029,-183.8989 367.0956,-179.4252 387.3321,-176.6391"/>
<polygon fill="#191970" stroke="#191970" points="308.2138,-183.999 298.7847,-188.8304 309.1686,-190.9336 308.2138,-183.999"/>
</g>
<!-- Node34 -->
<g id="node10" class="node">
<title>Node34</title>
<g id="a_node10"><a xlink:href="home_2lubuntu_2github_2ckpttncpp_2lib_2test_2src_2test__range_8cpp.html#a8bc9382616a2b77fe781383d4657d9da" target="_top" xlink:title="for">
<polygon fill="#ffffff" stroke="#000000" points="392,-38.5 392,-57.5 421,-57.5 421,-38.5 392,-38.5"/>
<text text-anchor="middle" x="406.5" y="-45.5" font-family="Helvetica,sans-Serif" font-size="10.00" fill="#000000">for</text>
</a>
</g>
</g>
<!-- Node33&#45;&gt;Node34 -->
<g id="edge9" class="edge">
<title>Node33&#45;&gt;Node34</title>
<path fill="none" stroke="#191970" d="M316.4652,-35.6039C342.9294,-39.2475 373.9583,-43.5196 391.8133,-45.9779"/>
<polygon fill="#191970" stroke="#191970" points="316.5931,-32.0886 306.2091,-34.1918 315.6382,-39.0232 316.5931,-32.0886"/>
</g>
<!-- Node35 -->
<g id="node11" class="node">
<title>Node35</title>
<g id="a_node11"><a xlink:href="home_2lubuntu_2github_2ckpttncpp_2lib_2test_2src_2test__range_8cpp.html#a575a261006e89043e6ef5158f90ecd86" target="_top" xlink:title="TEST_CASE">
<polygon fill="#ffffff" stroke="#000000" points="369,-.5 369,-19.5 444,-19.5 444,-.5 369,-.5"/>
<text text-anchor="middle" x="406.5" y="-7.5" font-family="Helvetica,sans-Serif" font-size="10.00" fill="#000000">TEST_CASE</text>
</a>
</g>
</g>
<!-- Node33&#45;&gt;Node35 -->
<g id="edge10" class="edge">
<title>Node33&#45;&gt;Node35</title>
<path fill="none" stroke="#191970" d="M316.5803,-22.3802C333.6997,-20.0232 352.7167,-17.4049 368.8365,-15.1856"/>
<polygon fill="#191970" stroke="#191970" points="315.6382,-18.9768 306.2091,-23.8082 316.5931,-25.9114 315.6382,-18.9768"/>
</g>
</g>
</svg>
