<?xml version="1.0" encoding="UTF-8" standalone="no"?>
<!DOCTYPE svg PUBLIC "-//W3C//DTD SVG 1.1//EN"
 "http://www.w3.org/Graphics/SVG/1.1/DTD/svg11.dtd">
<!-- Generated by graphviz version 2.40.1 (20161225.0304)
 -->
<!-- Title: py::range Pages: 1 -->
<svg width="341pt" height="230pt"
 viewBox="0.00 0.00 341.00 230.00" xmlns="http://www.w3.org/2000/svg" xmlns:xlink="http://www.w3.org/1999/xlink">
<g id="graph0" class="graph" transform="scale(1 1) rotate(0) translate(4 226)">
<title>py::range</title>
<polygon fill="#ffffff" stroke="transparent" points="-4,4 -4,-226 337,-226 337,4 -4,4"/>
<!-- Node41 -->
<g id="node1" class="node">
<title>Node41</title>
<polygon fill="#bfbfbf" stroke="#000000" points="0,-107.5 0,-126.5 57,-126.5 57,-107.5 0,-107.5"/>
<text text-anchor="middle" x="28.5" y="-114.5" font-family="Helvetica,sans-Serif" font-size="10.00" fill="#000000">py::range</text>
</g>
<!-- Node42 -->
<g id="node2" class="node">
<title>Node42</title>
<g id="a_node2"><a xlink:href="namespaceiter.html#a34d10cbd10cdd0cb676ccef9040049e5" target="_top" xlink:title="iter::count">
<polygon fill="#ffffff" stroke="#000000" points="127.5,-183.5 127.5,-202.5 187.5,-202.5 187.5,-183.5 127.5,-183.5"/>
<text text-anchor="middle" x="157.5" y="-190.5" font-family="Helvetica,sans-Serif" font-size="10.00" fill="#000000">iter::count</text>
</a>
</g>
</g>
<!-- Node41&#45;&gt;Node42 -->
<g id="edge1" class="edge">
<title>Node41&#45;&gt;Node42</title>
<path fill="none" stroke="#191970" d="M44.2438,-134.5391C56.4313,-147.1469 74.3336,-163.6783 93,-174 103.5223,-179.8184 116.0188,-184.0305 127.1974,-186.987"/>
<polygon fill="#191970" stroke="#191970" points="46.5011,-131.8292 37.1096,-126.9252 41.3931,-136.6155 46.5011,-131.8292"/>
</g>
<!-- Node45 -->
<g id="node5" class="node">
<title>Node45</title>
<g id="a_node5"><a xlink:href="classiter_1_1impl_1_1Range.html#a6b91734cfbbe8a4a2bf3b4d79713c8bc" target="_top" xlink:title="iter::impl::Range::end">
<polygon fill="#ffffff" stroke="#000000" points="102.5,-145.5 102.5,-164.5 212.5,-164.5 212.5,-145.5 102.5,-145.5"/>
<text text-anchor="middle" x="157.5" y="-152.5" font-family="Helvetica,sans-Serif" font-size="10.00" fill="#000000">iter::impl::Range::end</text>
</a>
</g>
</g>
<!-- Node41&#45;&gt;Node45 -->
<g id="edge4" class="edge">
<title>Node41&#45;&gt;Node45</title>
<path fill="none" stroke="#191970" d="M66.9714,-128.3327C85.4056,-133.7629 107.2482,-140.1972 124.8593,-145.3849"/>
<polygon fill="#191970" stroke="#191970" points="67.7108,-124.9018 57.1293,-125.4334 65.7327,-131.6166 67.7108,-124.9018"/>
</g>
<!-- Node46 -->
<g id="node6" class="node">
<title>Node46</title>
<g id="a_node6"><a xlink:href="mixed__examples_8cpp.html#ae66f6b31b5ad750f1fe042a706a4e3d4" target="_top" xlink:title="main">
<polygon fill="#ffffff" stroke="#000000" points="138.5,-107.5 138.5,-126.5 176.5,-126.5 176.5,-107.5 138.5,-107.5"/>
<text text-anchor="middle" x="157.5" y="-114.5" font-family="Helvetica,sans-Serif" font-size="10.00" fill="#000000">main</text>
</a>
</g>
</g>
<!-- Node41&#45;&gt;Node46 -->
<g id="edge5" class="edge">
<title>Node41&#45;&gt;Node46</title>
<path fill="none" stroke="#191970" d="M67.4348,-117C90.8032,-117 119.5131,-117 138.1438,-117"/>
<polygon fill="#191970" stroke="#191970" points="67.1293,-113.5001 57.1293,-117 67.1292,-120.5001 67.1293,-113.5001"/>
</g>
<!-- Node47 -->
<g id="node7" class="node">
<title>Node47</title>
<g id="a_node7"><a xlink:href="classiter_1_1detail_1_1RangeIterData_3_01T_00_01true_01_4.html#aa9fce2bc81ab352e71948beb5c89a13c" target="_top" xlink:title="iter::detail::RangeIterData\l\&lt; T, true \&gt;::operator!=">
<polygon fill="#ffffff" stroke="#000000" points="93,-58 93,-88 222,-88 222,-58 93,-58"/>
<text text-anchor="start" x="101" y="-76" font-family="Helvetica,sans-Serif" font-size="10.00" fill="#000000">iter::detail::RangeIterData</text>
<text text-anchor="middle" x="157.5" y="-65" font-family="Helvetica,sans-Serif" font-size="10.00" fill="#000000">&lt; T, true &gt;::operator!=</text>
</a>
</g>
</g>
<!-- Node41&#45;&gt;Node47 -->
<g id="edge6" class="edge">
<title>Node41&#45;&gt;Node47</title>
<path fill="none" stroke="#191970" d="M66.2865,-104.1116C81.0275,-99.0837 98.0295,-93.2845 113.3311,-88.0654"/>
<polygon fill="#191970" stroke="#191970" points="64.8258,-100.9117 56.4911,-107.4527 67.0856,-107.537 64.8258,-100.9117"/>
</g>
<!-- Node48 -->
<g id="node8" class="node">
<title>Node48</title>
<g id="a_node8"><a xlink:href="media_2lubuntu_2USBDISK_2github_2ckpttncpp_2third__party_2cppitertools_2test_2test__range_8cpp.html#a5185949974d2fa34097ed9a5dfbe6af6" target="_top" xlink:title="TEST_CASE">
<polygon fill="#ffffff" stroke="#000000" points="120,-19.5 120,-38.5 195,-38.5 195,-19.5 120,-19.5"/>
<text text-anchor="middle" x="157.5" y="-26.5" font-family="Helvetica,sans-Serif" font-size="10.00" fill="#000000">TEST_CASE</text>
</a>
</g>
</g>
<!-- Node41&#45;&gt;Node48 -->
<g id="edge7" class="edge">
<title>Node41&#45;&gt;Node48</title>
<path fill="none" stroke="#191970" d="M40.8661,-99.1248C52.5788,-83.4812 71.5343,-61.2431 93,-48 101.1468,-42.9739 110.6922,-39.2183 119.9044,-36.4349"/>
<polygon fill="#191970" stroke="#191970" points="37.8656,-97.3011 34.8426,-107.4555 43.5382,-101.4026 37.8656,-97.3011"/>
</g>
<!-- Node43 -->
<g id="node3" class="node">
<title>Node43</title>
<g id="a_node3"><a xlink:href="namespaceiter.html#a4b34aa780fee4de199e2f167bc06316c" target="_top" xlink:title="iter::count">
<polygon fill="#ffffff" stroke="#000000" points="265.5,-202.5 265.5,-221.5 325.5,-221.5 325.5,-202.5 265.5,-202.5"/>
<text text-anchor="middle" x="295.5" y="-209.5" font-family="Helvetica,sans-Serif" font-size="10.00" fill="#000000">iter::count</text>
</a>
</g>
</g>
<!-- Node42&#45;&gt;Node43 -->
<g id="edge2" class="edge">
<title>Node42&#45;&gt;Node43</title>
<path fill="none" stroke="#191970" d="M197.9481,-198.5689C219.4849,-201.5342 245.5277,-205.1198 265.286,-207.8401"/>
<polygon fill="#191970" stroke="#191970" points="198.1686,-195.0664 187.7847,-197.1696 197.2138,-202.001 198.1686,-195.0664"/>
</g>
<!-- Node44 -->
<g id="node4" class="node">
<title>Node44</title>
<g id="a_node4"><a xlink:href="count__examples_8cpp.html#ae66f6b31b5ad750f1fe042a706a4e3d4" target="_top" xlink:title="main">
<polygon fill="#ffffff" stroke="#000000" points="276.5,-164.5 276.5,-183.5 314.5,-183.5 314.5,-164.5 276.5,-164.5"/>
<text text-anchor="middle" x="295.5" y="-171.5" font-family="Helvetica,sans-Serif" font-size="10.00" fill="#000000">main</text>
</a>
</g>
</g>
<!-- Node42&#45;&gt;Node44 -->
<g id="edge3" class="edge">
<title>Node42&#45;&gt;Node44</title>
<path fill="none" stroke="#191970" d="M197.7052,-187.4645C223.6029,-183.8989 256.0956,-179.4252 276.3321,-176.6391"/>
<polygon fill="#191970" stroke="#191970" points="197.2138,-183.999 187.7847,-188.8304 198.1686,-190.9336 197.2138,-183.999"/>
</g>
<!-- Node49 -->
<g id="node9" class="node">
<title>Node49</title>
<g id="a_node9"><a xlink:href="home_2lubuntu_2github_2ckpttncpp_2lib_2test_2src_2test__range_8cpp.html#a8bc9382616a2b77fe781383d4657d9da" target="_top" xlink:title="for">
<polygon fill="#ffffff" stroke="#000000" points="281,-38.5 281,-57.5 310,-57.5 310,-38.5 281,-38.5"/>
<text text-anchor="middle" x="295.5" y="-45.5" font-family="Helvetica,sans-Serif" font-size="10.00" fill="#000000">for</text>
</a>
</g>
</g>
<!-- Node48&#45;&gt;Node49 -->
<g id="edge8" class="edge">
<title>Node48&#45;&gt;Node49</title>
<path fill="none" stroke="#191970" d="M205.4652,-35.6039C231.9294,-39.2475 262.9583,-43.5196 280.8133,-45.9779"/>
<polygon fill="#191970" stroke="#191970" points="205.5931,-32.0886 195.2091,-34.1918 204.6382,-39.0232 205.5931,-32.0886"/>
</g>
<!-- Node50 -->
<g id="node10" class="node">
<title>Node50</title>
<g id="a_node10"><a xlink:href="home_2lubuntu_2github_2ckpttncpp_2lib_2test_2src_2test__range_8cpp.html#a575a261006e89043e6ef5158f90ecd86" target="_top" xlink:title="TEST_CASE">
<polygon fill="#ffffff" stroke="#000000" points="258,-.5 258,-19.5 333,-19.5 333,-.5 258,-.5"/>
<text text-anchor="middle" x="295.5" y="-7.5" font-family="Helvetica,sans-Serif" font-size="10.00" fill="#000000">TEST_CASE</text>
</a>
</g>
</g>
<!-- Node48&#45;&gt;Node50 -->
<g id="edge9" class="edge">
<title>Node48&#45;&gt;Node50</title>
<path fill="none" stroke="#191970" d="M205.5803,-22.3802C222.6997,-20.0232 241.7167,-17.4049 257.8365,-15.1856"/>
<polygon fill="#191970" stroke="#191970" points="204.6382,-18.9768 195.2091,-23.8082 205.5931,-25.9114 204.6382,-18.9768"/>
</g>
</g>
</svg>
