<?xml version="1.0" encoding="UTF-8" standalone="no"?>
<!DOCTYPE svg PUBLIC "-//W3C//DTD SVG 1.1//EN"
 "http://www.w3.org/Graphics/SVG/1.1/DTD/svg11.dtd">
<!-- Generated by graphviz version 2.40.1 (20161225.0304)
 -->
<!-- Title: iter::impl::dumb_advance_unsafe Pages: 1 -->
<svg width="445pt" height="138pt"
 viewBox="0.00 0.00 445.00 137.50" xmlns="http://www.w3.org/2000/svg" xmlns:xlink="http://www.w3.org/1999/xlink">
<g id="graph0" class="graph" transform="scale(1 1) rotate(0) translate(4 133.5)">
<title>iter::impl::dumb_advance_unsafe</title>
<polygon fill="#ffffff" stroke="transparent" points="-4,4 -4,-133.5 441,-133.5 441,4 -4,4"/>
<!-- Node35 -->
<g id="node1" class="node">
<title>Node35</title>
<polygon fill="#bfbfbf" stroke="#000000" points="0,-19 0,-49 126,-49 126,-19 0,-19"/>
<text text-anchor="start" x="8" y="-37" font-family="Helvetica,sans-Serif" font-size="10.00" fill="#000000">iter::impl::dumb_advance</text>
<text text-anchor="middle" x="63" y="-26" font-family="Helvetica,sans-Serif" font-size="10.00" fill="#000000">_unsafe</text>
</g>
<!-- Node36 -->
<g id="node2" class="node">
<title>Node36</title>
<g id="a_node2"><a xlink:href="namespaceiter_1_1impl.html#a48f7fa26dc4bb4853f9cd329aa45c710" target="_top" xlink:title="iter::impl::dumb_next">
<polygon fill="#ffffff" stroke="#000000" points="162,-46.5 162,-65.5 270,-65.5 270,-46.5 162,-46.5"/>
<text text-anchor="middle" x="216" y="-53.5" font-family="Helvetica,sans-Serif" font-size="10.00" fill="#000000">iter::impl::dumb_next</text>
</a>
</g>
</g>
<!-- Node35&#45;&gt;Node36 -->
<g id="edge1" class="edge">
<title>Node35&#45;&gt;Node36</title>
<path fill="none" stroke="#191970" d="M136.1943,-44.5247C144.8254,-45.7657 153.5127,-47.0149 161.8157,-48.2088"/>
<polygon fill="#191970" stroke="#191970" points="136.5107,-41.0342 126.1143,-43.0753 135.5143,-47.963 136.5107,-41.0342"/>
</g>
<!-- Node39 -->
<g id="node5" class="node">
<title>Node39</title>
<g id="a_node5"><a xlink:href="test__iterbase_8cpp.html#a2607a023aca2560d6542da57eb2551f7" target="_top" xlink:title="TEST_CASE">
<polygon fill="#ffffff" stroke="#000000" points="334,-.5 334,-19.5 409,-19.5 409,-.5 334,-.5"/>
<text text-anchor="middle" x="371.5" y="-7.5" font-family="Helvetica,sans-Serif" font-size="10.00" fill="#000000">TEST_CASE</text>
</a>
</g>
</g>
<!-- Node35&#45;&gt;Node39 -->
<g id="edge5" class="edge">
<title>Node35&#45;&gt;Node39</title>
<path fill="none" stroke="#191970" d="M136.2943,-28.298C198.3109,-23.4734 284.691,-16.7534 333.6598,-12.9438"/>
<polygon fill="#191970" stroke="#191970" points="135.8724,-24.8202 126.174,-29.0853 136.4154,-31.7991 135.8724,-24.8202"/>
</g>
<!-- Node37 -->
<g id="node3" class="node">
<title>Node37</title>
<g id="a_node3"><a xlink:href="classiter_1_1impl_1_1Combinator_1_1Iterator.html#a634cce49afa8225cdbccf57c28fff9b4" target="_top" xlink:title="iter::impl::Combinator\l::Iterator::operator++">
<polygon fill="#ffffff" stroke="#000000" points="316.5,-99 316.5,-129 426.5,-129 426.5,-99 316.5,-99"/>
<text text-anchor="start" x="324.5" y="-117" font-family="Helvetica,sans-Serif" font-size="10.00" fill="#000000">iter::impl::Combinator</text>
<text text-anchor="middle" x="371.5" y="-106" font-family="Helvetica,sans-Serif" font-size="10.00" fill="#000000">::Iterator::operator++</text>
</a>
</g>
</g>
<!-- Node36&#45;&gt;Node37 -->
<g id="edge2" class="edge">
<title>Node36&#45;&gt;Node37</title>
<path fill="none" stroke="#191970" d="M251.3484,-69.1846C275.0965,-78.0424 306.4478,-89.7361 331.1704,-98.9575"/>
<polygon fill="#191970" stroke="#191970" points="252.2703,-65.793 241.6777,-65.5775 249.824,-72.3516 252.2703,-65.793"/>
</g>
<!-- Node38 -->
<g id="node4" class="node">
<title>Node38</title>
<g id="a_node4"><a xlink:href="classiter_1_1impl_1_1CombinatorWithReplacement_1_1Iterator.html#a5df1be265f18549267ac3d6a4e103f6a" target="_top" xlink:title="iter::impl::CombinatorWith\lReplacement::Iterator::\loperator++">
<polygon fill="#ffffff" stroke="#000000" points="306,-38.5 306,-79.5 437,-79.5 437,-38.5 306,-38.5"/>
<text text-anchor="start" x="314" y="-67.5" font-family="Helvetica,sans-Serif" font-size="10.00" fill="#000000">iter::impl::CombinatorWith</text>
<text text-anchor="start" x="314" y="-56.5" font-family="Helvetica,sans-Serif" font-size="10.00" fill="#000000">Replacement::Iterator::</text>
<text text-anchor="middle" x="371.5" y="-45.5" font-family="Helvetica,sans-Serif" font-size="10.00" fill="#000000">operator++</text>
</a>
</g>
</g>
<!-- Node36&#45;&gt;Node38 -->
<g id="edge3" class="edge">
<title>Node36&#45;&gt;Node38</title>
<path fill="none" stroke="#191970" d="M280.4959,-57.2443C288.8928,-57.4063 297.5022,-57.5724 305.9167,-57.7347"/>
<polygon fill="#191970" stroke="#191970" points="280.452,-53.7429 270.3864,-57.0493 280.3169,-60.7416 280.452,-53.7429"/>
</g>
<!-- Node36&#45;&gt;Node39 -->
<g id="edge4" class="edge">
<title>Node36&#45;&gt;Node39</title>
<path fill="none" stroke="#191970" d="M257.3233,-43.5168C272.6081,-38.9223 290.0848,-33.6955 306,-29 316.5614,-25.8841 328.0935,-22.5245 338.4973,-19.5097"/>
<polygon fill="#191970" stroke="#191970" points="256.2011,-40.1994 247.634,-46.4329 258.2185,-46.9025 256.2011,-40.1994"/>
</g>
</g>
</svg>
