<?xml version="1.0" encoding="UTF-8" standalone="no"?>
<!DOCTYPE svg PUBLIC "-//W3C//DTD SVG 1.1//EN"
 "http://www.w3.org/Graphics/SVG/1.1/DTD/svg11.dtd">
<!-- Generated by graphviz version 2.40.1 (20161225.0304)
 -->
<!-- Title: iter::zip Pages: 1 -->
<svg width="186pt" height="116pt"
 viewBox="0.00 0.00 186.00 116.00" xmlns="http://www.w3.org/2000/svg" xmlns:xlink="http://www.w3.org/1999/xlink">
<g id="graph0" class="graph" transform="scale(1 1) rotate(0) translate(4 112)">
<title>iter::zip</title>
<polygon fill="#ffffff" stroke="transparent" points="-4,4 -4,-112 182,-112 182,4 -4,4"/>
<!-- Node76 -->
<g id="node1" class="node">
<title>Node76</title>
<polygon fill="#bfbfbf" stroke="#000000" points="0,-44.5 0,-63.5 49,-63.5 49,-44.5 0,-44.5"/>
<text text-anchor="middle" x="24.5" y="-51.5" font-family="Helvetica,sans-Serif" font-size="10.00" fill="#000000">iter::zip</text>
</g>
<!-- Node77 -->
<g id="node2" class="node">
<title>Node77</title>
<g id="a_node2"><a xlink:href="mixed__examples_8cpp.html#ae66f6b31b5ad750f1fe042a706a4e3d4" target="_top" xlink:title="main">
<polygon fill="#ffffff" stroke="#000000" points="112.5,-88.5 112.5,-107.5 150.5,-107.5 150.5,-88.5 112.5,-88.5"/>
<text text-anchor="middle" x="131.5" y="-95.5" font-family="Helvetica,sans-Serif" font-size="10.00" fill="#000000">main</text>
</a>
</g>
</g>
<!-- Node76&#45;&gt;Node77 -->
<g id="edge1" class="edge">
<title>Node76&#45;&gt;Node77</title>
<path fill="none" stroke="#191970" d="M56.9381,-67.4318C66.0161,-71.1833 75.8907,-75.2569 85,-79 94.0343,-82.7123 104.064,-86.8131 112.4889,-90.2518"/>
<polygon fill="#191970" stroke="#191970" points="58.0527,-64.1054 47.4742,-63.5185 55.3778,-70.5741 58.0527,-64.1054"/>
</g>
<!-- Node78 -->
<g id="node3" class="node">
<title>Node78</title>
<g id="a_node3"><a xlink:href="structiter_1_1impl_1_1IMapFn.html#a07cd571fefcb881e089f76721aacbf95" target="_top" xlink:title="iter::impl::IMapFn\l::operator()">
<polygon fill="#ffffff" stroke="#000000" points="85,-39 85,-69 178,-69 178,-39 85,-39"/>
<text text-anchor="start" x="93" y="-57" font-family="Helvetica,sans-Serif" font-size="10.00" fill="#000000">iter::impl::IMapFn</text>
<text text-anchor="middle" x="131.5" y="-46" font-family="Helvetica,sans-Serif" font-size="10.00" fill="#000000">::operator()</text>
</a>
</g>
</g>
<!-- Node76&#45;&gt;Node78 -->
<g id="edge2" class="edge">
<title>Node76&#45;&gt;Node78</title>
<path fill="none" stroke="#191970" d="M59.2788,-54C67.4075,-54 76.1961,-54 84.7506,-54"/>
<polygon fill="#191970" stroke="#191970" points="59.048,-50.5001 49.048,-54 59.0479,-57.5001 59.048,-50.5001"/>
</g>
<!-- Node79 -->
<g id="node4" class="node">
<title>Node79</title>
<g id="a_node4"><a xlink:href="test__zip_8cpp.html#ae63fad3edb4054523fd87f297c5786f6" target="_top" xlink:title="TEST_CASE">
<polygon fill="#ffffff" stroke="#000000" points="94,-.5 94,-19.5 169,-19.5 169,-.5 94,-.5"/>
<text text-anchor="middle" x="131.5" y="-7.5" font-family="Helvetica,sans-Serif" font-size="10.00" fill="#000000">TEST_CASE</text>
</a>
</g>
</g>
<!-- Node76&#45;&gt;Node79 -->
<g id="edge3" class="edge">
<title>Node76&#45;&gt;Node79</title>
<path fill="none" stroke="#191970" d="M57.0384,-40.6197C73.5956,-33.8111 93.3345,-25.6942 108.3279,-19.5287"/>
<polygon fill="#191970" stroke="#191970" points="55.6349,-37.4124 47.7174,-44.4527 58.2971,-43.8864 55.6349,-37.4124"/>
</g>
</g>
</svg>
