<?xml version="1.0" encoding="UTF-8" standalone="no"?>
<!DOCTYPE svg PUBLIC "-//W3C//DTD SVG 1.1//EN"
 "http://www.w3.org/Graphics/SVG/1.1/DTD/svg11.dtd">
<!-- Generated by graphviz version 2.40.1 (20161225.0304)
 -->
<!-- Title: /media/lubuntu/USBDISK/github/ckpttncpp/third_party/cppitertools/product.hpp Pages: 1 -->
<svg width="487pt" height="274pt"
 viewBox="0.00 0.00 487.00 274.00" xmlns="http://www.w3.org/2000/svg" xmlns:xlink="http://www.w3.org/1999/xlink">
<g id="graph0" class="graph" transform="scale(1 1) rotate(0) translate(4 270)">
<title>/media/lubuntu/USBDISK/github/ckpttncpp/third_party/cppitertools/product.hpp</title>
<polygon fill="#ffffff" stroke="transparent" points="-4,4 -4,-270 483,-270 483,4 -4,4"/>
<!-- Node0 -->
<g id="node1" class="node">
<title>Node0</title>
<polygon fill="#bfbfbf" stroke="#000000" points="261.5,-224.5 261.5,-265.5 412.5,-265.5 412.5,-224.5 261.5,-224.5"/>
<text text-anchor="start" x="269.5" y="-253.5" font-family="Helvetica,sans-Serif" font-size="10.00" fill="#000000">/media/lubuntu/USBDISK</text>
<text text-anchor="start" x="269.5" y="-242.5" font-family="Helvetica,sans-Serif" font-size="10.00" fill="#000000">/github/ckpttncpp/third</text>
<text text-anchor="middle" x="337" y="-231.5" font-family="Helvetica,sans-Serif" font-size="10.00" fill="#000000">_party/cppitertools/product.hpp</text>
</g>
<!-- Node1 -->
<g id="node2" class="node">
<title>Node1</title>
<g id="a_node2"><a xlink:href="iter__tuples_8hpp.html" target="_top" xlink:title="internal/iter_tuples.hpp">
<polygon fill="#ffffff" stroke="#000000" points="154.5,-168.5 154.5,-187.5 269.5,-187.5 269.5,-168.5 154.5,-168.5"/>
<text text-anchor="middle" x="212" y="-175.5" font-family="Helvetica,sans-Serif" font-size="10.00" fill="#000000">internal/iter_tuples.hpp</text>
</a>
</g>
</g>
<!-- Node0&#45;&gt;Node1 -->
<g id="edge1" class="edge">
<title>Node0&#45;&gt;Node1</title>
<path fill="none" stroke="#191970" d="M298.4759,-224.3511C279.2287,-214.0346 256.4059,-201.8015 239.0408,-192.4939"/>
<polygon fill="#191970" stroke="#191970" points="240.4796,-189.294 230.0124,-187.6546 237.1727,-195.4637 240.4796,-189.294"/>
</g>
<!-- Node2 -->
<g id="node3" class="node">
<title>Node2</title>
<g id="a_node3"><a xlink:href="iterator__wrapper_8hpp.html" target="_top" xlink:title="iterator_wrapper.hpp">
<polygon fill="#ffffff" stroke="#000000" points="68.5,-112.5 68.5,-131.5 173.5,-131.5 173.5,-112.5 68.5,-112.5"/>
<text text-anchor="middle" x="121" y="-119.5" font-family="Helvetica,sans-Serif" font-size="10.00" fill="#000000">iterator_wrapper.hpp</text>
</a>
</g>
</g>
<!-- Node0&#45;&gt;Node2 -->
<g id="edge16" class="edge">
<title>Node0&#45;&gt;Node2</title>
<path fill="none" stroke="#191970" d="M261.3358,-229.8527C215.3262,-219.2824 162.2146,-204.2085 145,-188 132.1258,-175.8782 126.1359,-156.3081 123.362,-141.6196"/>
<polygon fill="#191970" stroke="#191970" points="126.7913,-140.8921 121.807,-131.543 119.8732,-141.9598 126.7913,-140.8921"/>
</g>
<!-- Node6 -->
<g id="node7" class="node">
<title>Node6</title>
<g id="a_node7"><a xlink:href="iterbase_8hpp.html" target="_top" xlink:title="iterbase.hpp">
<polygon fill="#ffffff" stroke="#000000" points="230,-56.5 230,-75.5 300,-75.5 300,-56.5 230,-56.5"/>
<text text-anchor="middle" x="265" y="-63.5" font-family="Helvetica,sans-Serif" font-size="10.00" fill="#000000">iterbase.hpp</text>
</a>
</g>
</g>
<!-- Node0&#45;&gt;Node6 -->
<g id="edge17" class="edge">
<title>Node0&#45;&gt;Node6</title>
<path fill="none" stroke="#191970" d="M328.7407,-224.4664C314.7419,-189.6639 286.5434,-119.5593 272.8365,-85.4824"/>
<polygon fill="#191970" stroke="#191970" points="275.9108,-83.7463 268.9318,-75.7749 269.4165,-86.3586 275.9108,-83.7463"/>
</g>
<!-- Node8 -->
<g id="node9" class="node">
<title>Node8</title>
<polygon fill="#ffffff" stroke="#bfbfbf" points="314.5,-.5 314.5,-19.5 361.5,-19.5 361.5,-.5 314.5,-.5"/>
<text text-anchor="middle" x="338" y="-7.5" font-family="Helvetica,sans-Serif" font-size="10.00" fill="#000000">iterator</text>
</g>
<!-- Node0&#45;&gt;Node8 -->
<g id="edge19" class="edge">
<title>Node0&#45;&gt;Node8</title>
<path fill="none" stroke="#191970" d="M337.0887,-224.1453C337.2801,-179.1867 337.7291,-73.6599 337.916,-29.7309"/>
<polygon fill="#191970" stroke="#191970" points="341.4168,-29.5319 337.9595,-19.5171 334.4169,-29.5021 341.4168,-29.5319"/>
</g>
<!-- Node10 -->
<g id="node11" class="node">
<title>Node10</title>
<polygon fill="#ffffff" stroke="#bfbfbf" points="380,-.5 380,-19.5 418,-19.5 418,-.5 380,-.5"/>
<text text-anchor="middle" x="399" y="-7.5" font-family="Helvetica,sans-Serif" font-size="10.00" fill="#000000">tuple</text>
</g>
<!-- Node0&#45;&gt;Node10 -->
<g id="edge20" class="edge">
<title>Node0&#45;&gt;Node10</title>
<path fill="none" stroke="#191970" d="M342.5021,-224.1453C354.3887,-179.0911 382.3232,-73.2106 393.8681,-29.4514"/>
<polygon fill="#191970" stroke="#191970" points="397.3222,-30.0791 396.4891,-19.5171 390.5538,-28.2933 397.3222,-30.0791"/>
</g>
<!-- Node12 -->
<g id="node13" class="node">
<title>Node12</title>
<polygon fill="#ffffff" stroke="#bfbfbf" points="436,-.5 436,-19.5 476,-19.5 476,-.5 436,-.5"/>
<text text-anchor="middle" x="456" y="-7.5" font-family="Helvetica,sans-Serif" font-size="10.00" fill="#000000">utility</text>
</g>
<!-- Node0&#45;&gt;Node12 -->
<g id="edge21" class="edge">
<title>Node0&#45;&gt;Node12</title>
<path fill="none" stroke="#191970" d="M348.533,-224.258C354.4536,-213.4942 361.7224,-200.0986 368,-188 397.7992,-130.5691 431.2049,-61.6719 446.9114,-28.9915"/>
<polygon fill="#191970" stroke="#191970" points="450.1923,-30.2441 451.3619,-19.7141 443.881,-27.2164 450.1923,-30.2441"/>
</g>
<!-- Node13 -->
<g id="node14" class="node">
<title>Node13</title>
<polygon fill="#ffffff" stroke="#bfbfbf" points="441,-168.5 441,-187.5 479,-187.5 479,-168.5 441,-168.5"/>
<text text-anchor="middle" x="460" y="-175.5" font-family="Helvetica,sans-Serif" font-size="10.00" fill="#000000">array</text>
</g>
<!-- Node0&#45;&gt;Node13 -->
<g id="edge18" class="edge">
<title>Node0&#45;&gt;Node13</title>
<path fill="none" stroke="#191970" d="M374.9077,-224.3511C393.847,-214.0346 416.3046,-201.8015 433.3919,-192.4939"/>
<polygon fill="#191970" stroke="#191970" points="435.1684,-195.5118 442.2758,-187.6546 431.8199,-189.3646 435.1684,-195.5118"/>
</g>
<!-- Node1&#45;&gt;Node2 -->
<g id="edge2" class="edge">
<title>Node1&#45;&gt;Node2</title>
<path fill="none" stroke="#191970" d="M196.149,-168.2455C182.1868,-159.6534 161.6272,-147.0014 145.5404,-137.1018"/>
<polygon fill="#191970" stroke="#191970" points="147.0203,-133.9029 136.6693,-131.6427 143.3516,-139.8645 147.0203,-133.9029"/>
</g>
<!-- Node4 -->
<g id="node5" class="node">
<title>Node4</title>
<polygon fill="#ffffff" stroke="#bfbfbf" points="21.5,-.5 21.5,-19.5 80.5,-19.5 80.5,-.5 21.5,-.5"/>
<text text-anchor="middle" x="51" y="-7.5" font-family="Helvetica,sans-Serif" font-size="10.00" fill="#000000">functional</text>
</g>
<!-- Node1&#45;&gt;Node4 -->
<g id="edge15" class="edge">
<title>Node1&#45;&gt;Node4</title>
<path fill="none" stroke="#191970" d="M208.7214,-168.2865C200.5552,-145.4912 177.1724,-88.0749 139,-56 122.9639,-42.5255 102.3273,-31.4796 85.0691,-23.5921"/>
<polygon fill="#191970" stroke="#191970" points="86.4416,-20.3722 75.8795,-19.5398 83.6172,-26.7771 86.4416,-20.3722"/>
</g>
<!-- Node1&#45;&gt;Node6 -->
<g id="edge14" class="edge">
<title>Node1&#45;&gt;Node6</title>
<path fill="none" stroke="#191970" d="M216.5188,-168.4509C225.2803,-149.936 244.7185,-108.8591 256.1421,-84.7187"/>
<polygon fill="#191970" stroke="#191970" points="259.3789,-86.061 260.4927,-75.5249 253.0516,-83.0668 259.3789,-86.061"/>
</g>
<!-- Node3 -->
<g id="node4" class="node">
<title>Node3</title>
<polygon fill="#ffffff" stroke="#bfbfbf" points="64.5,-56.5 64.5,-75.5 113.5,-75.5 113.5,-56.5 64.5,-56.5"/>
<text text-anchor="middle" x="89" y="-63.5" font-family="Helvetica,sans-Serif" font-size="10.00" fill="#000000">cassert</text>
</g>
<!-- Node2&#45;&gt;Node3 -->
<g id="edge3" class="edge">
<title>Node2&#45;&gt;Node3</title>
<path fill="none" stroke="#191970" d="M115.426,-112.2455C111.0669,-104.617 104.8789,-93.7881 99.5867,-84.5267"/>
<polygon fill="#191970" stroke="#191970" points="102.5104,-82.5886 94.5101,-75.6427 96.4327,-86.0616 102.5104,-82.5886"/>
</g>
<!-- Node2&#45;&gt;Node4 -->
<g id="edge4" class="edge">
<title>Node2&#45;&gt;Node4</title>
<path fill="none" stroke="#191970" d="M123.9353,-112.3435C127.4535,-98.829 131.7428,-73.9211 122,-56 114.3623,-41.9511 100.3791,-31.5317 86.8292,-24.1958"/>
<polygon fill="#191970" stroke="#191970" points="88.113,-20.9253 77.601,-19.603 84.9941,-27.1921 88.113,-20.9253"/>
</g>
<!-- Node5 -->
<g id="node6" class="node">
<title>Node5</title>
<polygon fill="#ffffff" stroke="#bfbfbf" points="0,-56.5 0,-75.5 46,-75.5 46,-56.5 0,-56.5"/>
<text text-anchor="middle" x="23" y="-63.5" font-family="Helvetica,sans-Serif" font-size="10.00" fill="#000000">variant</text>
</g>
<!-- Node2&#45;&gt;Node5 -->
<g id="edge5" class="edge">
<title>Node2&#45;&gt;Node5</title>
<path fill="none" stroke="#191970" d="M103.9297,-112.2455C88.753,-103.5731 66.3379,-90.7645 48.9437,-80.825"/>
<polygon fill="#191970" stroke="#191970" points="50.2936,-77.5653 39.8747,-75.6427 46.8206,-83.643 50.2936,-77.5653"/>
</g>
<!-- Node2&#45;&gt;Node6 -->
<g id="edge6" class="edge">
<title>Node2&#45;&gt;Node6</title>
<path fill="none" stroke="#191970" d="M145.7545,-112.3733C169.2849,-103.2226 204.8687,-89.3844 231.0426,-79.2057"/>
<polygon fill="#191970" stroke="#191970" points="232.5171,-82.3877 240.5685,-75.5011 229.9799,-75.8636 232.5171,-82.3877"/>
</g>
<!-- Node6&#45;&gt;Node4 -->
<g id="edge8" class="edge">
<title>Node6&#45;&gt;Node4</title>
<path fill="none" stroke="#191970" d="M229.933,-56.8532C196.4207,-48.1079 144.2146,-34.4737 90.5482,-20.4036"/>
<polygon fill="#191970" stroke="#191970" points="91.4303,-17.0166 80.8695,-17.8654 89.6546,-23.7877 91.4303,-17.0166"/>
</g>
<!-- Node7 -->
<g id="node8" class="node">
<title>Node7</title>
<polygon fill="#ffffff" stroke="#bfbfbf" points="98.5,-.5 98.5,-19.5 147.5,-19.5 147.5,-.5 98.5,-.5"/>
<text text-anchor="middle" x="123" y="-7.5" font-family="Helvetica,sans-Serif" font-size="10.00" fill="#000000">cstddef</text>
</g>
<!-- Node6&#45;&gt;Node7 -->
<g id="edge7" class="edge">
<title>Node6&#45;&gt;Node7</title>
<path fill="none" stroke="#191970" d="M240.5893,-56.3733C217.3858,-47.2226 182.2962,-33.3844 156.4858,-23.2057"/>
<polygon fill="#191970" stroke="#191970" points="157.6789,-19.9139 147.0921,-19.5011 155.1108,-26.4258 157.6789,-19.9139"/>
</g>
<!-- Node6&#45;&gt;Node8 -->
<g id="edge9" class="edge">
<title>Node6&#45;&gt;Node8</title>
<path fill="none" stroke="#191970" d="M277.7156,-56.2455C288.602,-47.8943 304.4883,-35.7076 317.22,-25.9408"/>
<polygon fill="#191970" stroke="#191970" points="319.6261,-28.5063 325.4301,-19.6427 315.3654,-22.9523 319.6261,-28.5063"/>
</g>
<!-- Node9 -->
<g id="node10" class="node">
<title>Node9</title>
<polygon fill="#ffffff" stroke="#bfbfbf" points="166,-.5 166,-19.5 216,-19.5 216,-.5 166,-.5"/>
<text text-anchor="middle" x="191" y="-7.5" font-family="Helvetica,sans-Serif" font-size="10.00" fill="#000000">optional</text>
</g>
<!-- Node6&#45;&gt;Node9 -->
<g id="edge10" class="edge">
<title>Node6&#45;&gt;Node9</title>
<path fill="none" stroke="#191970" d="M252.1102,-56.2455C241.0746,-47.8943 224.9708,-35.7076 212.0647,-25.9408"/>
<polygon fill="#191970" stroke="#191970" points="213.8283,-22.8862 203.7421,-19.6427 209.6041,-28.4681 213.8283,-22.8862"/>
</g>
<!-- Node6&#45;&gt;Node10 -->
<g id="edge11" class="edge">
<title>Node6&#45;&gt;Node10</title>
<path fill="none" stroke="#191970" d="M288.0354,-56.3733C310.7911,-46.8634 345.6609,-32.291 370.2268,-22.0246"/>
<polygon fill="#191970" stroke="#191970" points="371.8582,-25.1362 379.7353,-18.0509 369.159,-18.6775 371.8582,-25.1362"/>
</g>
<!-- Node11 -->
<g id="node12" class="node">
<title>Node11</title>
<polygon fill="#ffffff" stroke="#bfbfbf" points="234,-.5 234,-19.5 296,-19.5 296,-.5 234,-.5"/>
<text text-anchor="middle" x="265" y="-7.5" font-family="Helvetica,sans-Serif" font-size="10.00" fill="#000000">type_traits</text>
</g>
<!-- Node6&#45;&gt;Node11 -->
<g id="edge12" class="edge">
<title>Node6&#45;&gt;Node11</title>
<path fill="none" stroke="#191970" d="M265,-56.2455C265,-48.9382 265,-38.6944 265,-29.7046"/>
<polygon fill="#191970" stroke="#191970" points="268.5001,-29.6426 265,-19.6427 261.5001,-29.6427 268.5001,-29.6426"/>
</g>
<!-- Node6&#45;&gt;Node12 -->
<g id="edge13" class="edge">
<title>Node6&#45;&gt;Node12</title>
<path fill="none" stroke="#191970" d="M300.2442,-56.5975C331.1151,-48.2277 377.3881,-35.3604 426.0133,-20.1994"/>
<polygon fill="#191970" stroke="#191970" points="427.2736,-23.4722 435.7658,-17.1373 425.1766,-16.7937 427.2736,-23.4722"/>
</g>
</g>
</svg>
