<?xml version="1.0" encoding="UTF-8" standalone="no"?>
<!DOCTYPE svg PUBLIC "-//W3C//DTD SVG 1.1//EN"
 "http://www.w3.org/Graphics/SVG/1.1/DTD/svg11.dtd">
<!-- Generated by graphviz version 2.40.1 (20161225.0304)
 -->
<!-- Title: lib/include/py2cpp/py2cpp.hpp Pages: 1 -->
<svg width="474pt" height="95pt"
 viewBox="0.00 0.00 473.50 95.00" xmlns="http://www.w3.org/2000/svg" xmlns:xlink="http://www.w3.org/1999/xlink">
<g id="graph0" class="graph" transform="scale(1 1) rotate(0) translate(4 91)">
<title>lib/include/py2cpp/py2cpp.hpp</title>
<polygon fill="#ffffff" stroke="transparent" points="-4,4 -4,-91 469.5,-91 469.5,4 -4,4"/>
<!-- Node0 -->
<g id="node1" class="node">
<title>Node0</title>
<polygon fill="#bfbfbf" stroke="#000000" points="176,-56.5 176,-86.5 271,-86.5 271,-56.5 176,-56.5"/>
<text text-anchor="start" x="184" y="-74.5" font-family="Helvetica,sans-Serif" font-size="10.00" fill="#000000">lib/include/py2cpp</text>
<text text-anchor="middle" x="223.5" y="-63.5" font-family="Helvetica,sans-Serif" font-size="10.00" fill="#000000">/py2cpp.hpp</text>
</g>
<!-- Node1 -->
<g id="node2" class="node">
<title>Node1</title>
<polygon fill="#ffffff" stroke="#bfbfbf" points="0,-.5 0,-19.5 73,-19.5 73,-.5 0,-.5"/>
<text text-anchor="middle" x="36.5" y="-7.5" font-family="Helvetica,sans-Serif" font-size="10.00" fill="#000000">initializer_list</text>
</g>
<!-- Node0&#45;&gt;Node1 -->
<g id="edge1" class="edge">
<title>Node0&#45;&gt;Node1</title>
<path fill="none" stroke="#191970" d="M177.7547,-56.4554C146.2795,-46.104 104.9351,-32.5067 75.1176,-22.7004"/>
<polygon fill="#191970" stroke="#191970" points="76.0713,-19.3297 65.4784,-19.5303 73.8843,-25.9793 76.0713,-19.3297"/>
</g>
<!-- Node2 -->
<g id="node3" class="node">
<title>Node2</title>
<polygon fill="#ffffff" stroke="#bfbfbf" points="91.5,-.5 91.5,-19.5 129.5,-19.5 129.5,-.5 91.5,-.5"/>
<text text-anchor="middle" x="110.5" y="-7.5" font-family="Helvetica,sans-Serif" font-size="10.00" fill="#000000">tuple</text>
</g>
<!-- Node0&#45;&gt;Node2 -->
<g id="edge2" class="edge">
<title>Node0&#45;&gt;Node2</title>
<path fill="none" stroke="#191970" d="M195.8571,-56.4554C177.9951,-46.734 154.8732,-34.15 137.2005,-24.5317"/>
<polygon fill="#191970" stroke="#191970" points="138.4675,-21.2365 128.011,-19.5303 135.1213,-27.3849 138.4675,-21.2365"/>
</g>
<!-- Node3 -->
<g id="node4" class="node">
<title>Node3</title>
<polygon fill="#ffffff" stroke="#bfbfbf" points="147.5,-.5 147.5,-19.5 209.5,-19.5 209.5,-.5 147.5,-.5"/>
<text text-anchor="middle" x="178.5" y="-7.5" font-family="Helvetica,sans-Serif" font-size="10.00" fill="#000000">type_traits</text>
</g>
<!-- Node0&#45;&gt;Node3 -->
<g id="edge3" class="edge">
<title>Node0&#45;&gt;Node3</title>
<path fill="none" stroke="#191970" d="M212.3764,-56.2977C206.1299,-47.7609 198.296,-37.0545 191.7353,-28.0883"/>
<polygon fill="#191970" stroke="#191970" points="194.4348,-25.8505 185.7051,-19.8469 188.7856,-29.984 194.4348,-25.8505"/>
</g>
<!-- Node4 -->
<g id="node5" class="node">
<title>Node4</title>
<polygon fill="#ffffff" stroke="#bfbfbf" points="228,-.5 228,-19.5 311,-19.5 311,-.5 228,-.5"/>
<text text-anchor="middle" x="269.5" y="-7.5" font-family="Helvetica,sans-Serif" font-size="10.00" fill="#000000">unordered_map</text>
</g>
<!-- Node0&#45;&gt;Node4 -->
<g id="edge4" class="edge">
<title>Node0&#45;&gt;Node4</title>
<path fill="none" stroke="#191970" d="M234.8708,-56.2977C241.2561,-47.7609 249.2641,-37.0545 255.9705,-28.0883"/>
<polygon fill="#191970" stroke="#191970" points="258.9479,-29.9511 262.1348,-19.8469 253.3425,-25.7584 258.9479,-29.9511"/>
</g>
<!-- Node5 -->
<g id="node6" class="node">
<title>Node5</title>
<polygon fill="#ffffff" stroke="#bfbfbf" points="329.5,-.5 329.5,-19.5 407.5,-19.5 407.5,-.5 329.5,-.5"/>
<text text-anchor="middle" x="368.5" y="-7.5" font-family="Helvetica,sans-Serif" font-size="10.00" fill="#000000">unordered_set</text>
</g>
<!-- Node0&#45;&gt;Node5 -->
<g id="edge5" class="edge">
<title>Node0&#45;&gt;Node5</title>
<path fill="none" stroke="#191970" d="M258.971,-56.4554C282.7402,-46.374 313.768,-33.2139 336.7285,-23.4755"/>
<polygon fill="#191970" stroke="#191970" points="338.1906,-26.6572 346.0301,-19.5303 335.4573,-20.2129 338.1906,-26.6572"/>
</g>
<!-- Node6 -->
<g id="node7" class="node">
<title>Node6</title>
<polygon fill="#ffffff" stroke="#bfbfbf" points="425.5,-.5 425.5,-19.5 465.5,-19.5 465.5,-.5 425.5,-.5"/>
<text text-anchor="middle" x="445.5" y="-7.5" font-family="Helvetica,sans-Serif" font-size="10.00" fill="#000000">utility</text>
</g>
<!-- Node0&#45;&gt;Node6 -->
<g id="edge6" class="edge">
<title>Node0&#45;&gt;Node6</title>
<path fill="none" stroke="#191970" d="M271.3575,-59.7406C308.3552,-50.4215 361.0309,-36.6602 415.4589,-20.1768"/>
<polygon fill="#191970" stroke="#191970" points="416.7366,-23.4463 425.2787,-17.1787 414.6925,-16.7514 416.7366,-23.4463"/>
</g>
</g>
</svg>
