<?xml version="1.0" encoding="UTF-8" standalone="no"?>
<!DOCTYPE svg PUBLIC "-//W3C//DTD SVG 1.1//EN"
 "http://www.w3.org/Graphics/SVG/1.1/DTD/svg11.dtd">
<!-- Generated by graphviz version 2.40.1 (20161225.0304)
 -->
<!-- Title: /media/lubuntu/USBDISK/github/ckpttncpp/third_party/cppitertools/examples/sorted_examples.cpp Pages: 1 -->
<svg width="627pt" height="285pt"
 viewBox="0.00 0.00 627.00 285.00" xmlns="http://www.w3.org/2000/svg" xmlns:xlink="http://www.w3.org/1999/xlink">
<g id="graph0" class="graph" transform="scale(1 1) rotate(0) translate(4 281)">
<title>/media/lubuntu/USBDISK/github/ckpttncpp/third_party/cppitertools/examples/sorted_examples.cpp</title>
<polygon fill="#ffffff" stroke="transparent" points="-4,4 -4,-281 623,-281 623,4 -4,4"/>
<!-- Node0 -->
<g id="node1" class="node">
<title>Node0</title>
<polygon fill="#bfbfbf" stroke="#000000" points="365.5,-224.5 365.5,-276.5 507.5,-276.5 507.5,-224.5 365.5,-224.5"/>
<text text-anchor="start" x="373.5" y="-264.5" font-family="Helvetica,sans-Serif" font-size="10.00" fill="#000000">/media/lubuntu/USBDISK</text>
<text text-anchor="start" x="373.5" y="-253.5" font-family="Helvetica,sans-Serif" font-size="10.00" fill="#000000">/github/ckpttncpp/third</text>
<text text-anchor="start" x="373.5" y="-242.5" font-family="Helvetica,sans-Serif" font-size="10.00" fill="#000000">_party/cppitertools/examples</text>
<text text-anchor="middle" x="436.5" y="-231.5" font-family="Helvetica,sans-Serif" font-size="10.00" fill="#000000">/sorted_examples.cpp</text>
</g>
<!-- Node1 -->
<g id="node2" class="node">
<title>Node1</title>
<g id="a_node2"><a xlink:href="sorted_8hpp.html" target="_top" xlink:title="sorted.hpp">
<polygon fill="#ffffff" stroke="#000000" points="259.5,-168.5 259.5,-187.5 321.5,-187.5 321.5,-168.5 259.5,-168.5"/>
<text text-anchor="middle" x="290.5" y="-175.5" font-family="Helvetica,sans-Serif" font-size="10.00" fill="#000000">sorted.hpp</text>
</a>
</g>
</g>
<!-- Node0&#45;&gt;Node1 -->
<g id="edge1" class="edge">
<title>Node0&#45;&gt;Node1</title>
<path fill="none" stroke="#191970" d="M383.7906,-224.3258C361.8112,-213.4114 337.1659,-201.1731 318.7283,-192.0175"/>
<polygon fill="#191970" stroke="#191970" points="320.2127,-188.8469 309.6995,-187.534 317.0994,-195.1164 320.2127,-188.8469"/>
</g>
<!-- Node12 -->
<g id="node13" class="node">
<title>Node12</title>
<polygon fill="#ffffff" stroke="#bfbfbf" points="392.5,-112.5 392.5,-131.5 436.5,-131.5 436.5,-112.5 392.5,-112.5"/>
<text text-anchor="middle" x="414.5" y="-119.5" font-family="Helvetica,sans-Serif" font-size="10.00" fill="#000000">vector</text>
</g>
<!-- Node0&#45;&gt;Node12 -->
<g id="edge20" class="edge">
<title>Node0&#45;&gt;Node12</title>
<path fill="none" stroke="#191970" d="M417.4367,-224.4797C410.6903,-213.7422 403.9289,-200.8228 400.5,-188 396.3456,-172.4639 400.6742,-154.6084 405.5816,-141.3901"/>
<polygon fill="#191970" stroke="#191970" points="408.9118,-142.4954 409.4904,-131.9164 402.4409,-139.8256 408.9118,-142.4954"/>
</g>
<!-- Node13 -->
<g id="node14" class="node">
<title>Node13</title>
<polygon fill="#ffffff" stroke="#bfbfbf" points="409.5,-168.5 409.5,-187.5 463.5,-187.5 463.5,-168.5 409.5,-168.5"/>
<text text-anchor="middle" x="436.5" y="-175.5" font-family="Helvetica,sans-Serif" font-size="10.00" fill="#000000">iostream</text>
</g>
<!-- Node0&#45;&gt;Node13 -->
<g id="edge19" class="edge">
<title>Node0&#45;&gt;Node13</title>
<path fill="none" stroke="#191970" d="M436.5,-224.3258C436.5,-215.5142 436.5,-205.8397 436.5,-197.621"/>
<polygon fill="#191970" stroke="#191970" points="440.0001,-197.534 436.5,-187.534 433.0001,-197.534 440.0001,-197.534"/>
</g>
<!-- Node14 -->
<g id="node15" class="node">
<title>Node14</title>
<polygon fill="#ffffff" stroke="#bfbfbf" points="481.5,-168.5 481.5,-187.5 559.5,-187.5 559.5,-168.5 481.5,-168.5"/>
<text text-anchor="middle" x="520.5" y="-175.5" font-family="Helvetica,sans-Serif" font-size="10.00" fill="#000000">unordered_set</text>
</g>
<!-- Node0&#45;&gt;Node14 -->
<g id="edge21" class="edge">
<title>Node0&#45;&gt;Node14</title>
<path fill="none" stroke="#191970" d="M466.8259,-224.3258C478.5435,-214.2124 491.578,-202.9624 501.8677,-194.0815"/>
<polygon fill="#191970" stroke="#191970" points="504.1703,-196.7175 509.4537,-187.534 499.5966,-191.4183 504.1703,-196.7175"/>
</g>
<!-- Node15 -->
<g id="node16" class="node">
<title>Node15</title>
<polygon fill="#ffffff" stroke="#bfbfbf" points="578,-168.5 578,-187.5 619,-187.5 619,-168.5 578,-168.5"/>
<text text-anchor="middle" x="598.5" y="-175.5" font-family="Helvetica,sans-Serif" font-size="10.00" fill="#000000">string</text>
</g>
<!-- Node0&#45;&gt;Node15 -->
<g id="edge22" class="edge">
<title>Node0&#45;&gt;Node15</title>
<path fill="none" stroke="#191970" d="M494.9857,-224.3258C520.0225,-213.1211 548.1766,-200.5213 568.7955,-191.2937"/>
<polygon fill="#191970" stroke="#191970" points="570.2847,-194.4618 577.9826,-187.1822 567.4252,-188.0725 570.2847,-194.4618"/>
</g>
<!-- Node2 -->
<g id="node3" class="node">
<title>Node2</title>
<g id="a_node3"><a xlink:href="iteratoriterator_8hpp.html" target="_top" xlink:title="internal/iteratoriterator.hpp">
<polygon fill="#ffffff" stroke="#000000" points="94.5,-112.5 94.5,-131.5 224.5,-131.5 224.5,-112.5 94.5,-112.5"/>
<text text-anchor="middle" x="159.5" y="-119.5" font-family="Helvetica,sans-Serif" font-size="10.00" fill="#000000">internal/iteratoriterator.hpp</text>
</a>
</g>
</g>
<!-- Node1&#45;&gt;Node2 -->
<g id="edge2" class="edge">
<title>Node1&#45;&gt;Node2</title>
<path fill="none" stroke="#191970" d="M267.9803,-168.3733C246.7628,-159.3032 214.7724,-145.6279 191.0231,-135.4755"/>
<polygon fill="#191970" stroke="#191970" points="192.2967,-132.2136 181.7258,-131.5011 189.5452,-138.6502 192.2967,-132.2136"/>
</g>
<!-- Node3 -->
<g id="node4" class="node">
<title>Node3</title>
<polygon fill="#ffffff" stroke="#bfbfbf" points="0,-.5 0,-19.5 47,-19.5 47,-.5 0,-.5"/>
<text text-anchor="middle" x="23.5" y="-7.5" font-family="Helvetica,sans-Serif" font-size="10.00" fill="#000000">iterator</text>
</g>
<!-- Node1&#45;&gt;Node3 -->
<g id="edge17" class="edge">
<title>Node1&#45;&gt;Node3</title>
<path fill="none" stroke="#191970" d="M259.3142,-174.2848C208.8827,-167.7467 112.3561,-152.8722 85.5,-132 52.0299,-105.9875 35.098,-56.9742 27.9094,-29.6558"/>
<polygon fill="#191970" stroke="#191970" points="31.2536,-28.5969 25.4752,-19.7166 24.4545,-30.2621 31.2536,-28.5969"/>
</g>
<!-- Node6 -->
<g id="node7" class="node">
<title>Node6</title>
<g id="a_node7"><a xlink:href="iterbase_8hpp.html" target="_top" xlink:title="iterbase.hpp">
<polygon fill="#ffffff" stroke="#000000" points="192.5,-56.5 192.5,-75.5 262.5,-75.5 262.5,-56.5 192.5,-56.5"/>
<text text-anchor="middle" x="227.5" y="-63.5" font-family="Helvetica,sans-Serif" font-size="10.00" fill="#000000">iterbase.hpp</text>
</a>
</g>
</g>
<!-- Node1&#45;&gt;Node6 -->
<g id="edge14" class="edge">
<title>Node1&#45;&gt;Node6</title>
<path fill="none" stroke="#191970" d="M285.1287,-168.4509C274.6675,-149.8533 251.4017,-108.4919 237.848,-84.3964"/>
<polygon fill="#191970" stroke="#191970" points="240.8109,-82.5247 232.8577,-75.5249 234.7099,-85.9566 240.8109,-82.5247"/>
</g>
<!-- Node8 -->
<g id="node9" class="node">
<title>Node8</title>
<polygon fill="#ffffff" stroke="#bfbfbf" points="396,-.5 396,-19.5 455,-19.5 455,-.5 396,-.5"/>
<text text-anchor="middle" x="425.5" y="-7.5" font-family="Helvetica,sans-Serif" font-size="10.00" fill="#000000">functional</text>
</g>
<!-- Node1&#45;&gt;Node8 -->
<g id="edge16" class="edge">
<title>Node1&#45;&gt;Node8</title>
<path fill="none" stroke="#191970" d="M291.5523,-168.3451C293.3904,-154.8324 298.1378,-129.9266 309.5,-112 333.2582,-74.5158 374.7744,-42.87 401.1615,-25.1783"/>
<polygon fill="#191970" stroke="#191970" points="403.361,-27.9217 409.8101,-19.5158 399.5266,-22.0653 403.361,-27.9217"/>
</g>
<!-- Node11 -->
<g id="node12" class="node">
<title>Node11</title>
<polygon fill="#ffffff" stroke="#bfbfbf" points="318.5,-112.5 318.5,-131.5 374.5,-131.5 374.5,-112.5 318.5,-112.5"/>
<text text-anchor="middle" x="346.5" y="-119.5" font-family="Helvetica,sans-Serif" font-size="10.00" fill="#000000">algorithm</text>
</g>
<!-- Node1&#45;&gt;Node11 -->
<g id="edge15" class="edge">
<title>Node1&#45;&gt;Node11</title>
<path fill="none" stroke="#191970" d="M300.2545,-168.2455C308.3648,-160.1352 320.0925,-148.4075 329.7081,-138.7919"/>
<polygon fill="#191970" stroke="#191970" points="332.2611,-141.1887 336.8573,-131.6427 327.3113,-136.2389 332.2611,-141.1887"/>
</g>
<!-- Node1&#45;&gt;Node12 -->
<g id="edge18" class="edge">
<title>Node1&#45;&gt;Node12</title>
<path fill="none" stroke="#191970" d="M311.8164,-168.3733C331.7216,-159.3838 361.6436,-145.8706 384.06,-135.7471"/>
<polygon fill="#191970" stroke="#191970" points="385.7887,-138.8068 393.4618,-131.5011 382.9075,-132.4272 385.7887,-138.8068"/>
</g>
<!-- Node2&#45;&gt;Node3 -->
<g id="edge3" class="edge">
<title>Node2&#45;&gt;Node3</title>
<path fill="none" stroke="#191970" d="M147.9047,-112.4509C124.519,-93.1921 71.4908,-49.5218 42.7992,-25.8935"/>
<polygon fill="#191970" stroke="#191970" points="45.0102,-23.1802 35.0659,-19.5249 40.5603,-28.5838 45.0102,-23.1802"/>
</g>
<!-- Node4 -->
<g id="node5" class="node">
<title>Node4</title>
<polygon fill="#ffffff" stroke="#bfbfbf" points="65.5,-.5 65.5,-19.5 127.5,-19.5 127.5,-.5 65.5,-.5"/>
<text text-anchor="middle" x="96.5" y="-7.5" font-family="Helvetica,sans-Serif" font-size="10.00" fill="#000000">type_traits</text>
</g>
<!-- Node2&#45;&gt;Node4 -->
<g id="edge4" class="edge">
<title>Node2&#45;&gt;Node4</title>
<path fill="none" stroke="#191970" d="M154.1287,-112.4509C143.6675,-93.8533 120.4017,-52.4919 106.848,-28.3964"/>
<polygon fill="#191970" stroke="#191970" points="109.8109,-26.5247 101.8577,-19.5249 103.7099,-29.9566 109.8109,-26.5247"/>
</g>
<!-- Node5 -->
<g id="node6" class="node">
<title>Node5</title>
<polygon fill="#ffffff" stroke="#bfbfbf" points="145.5,-.5 145.5,-19.5 185.5,-19.5 185.5,-.5 145.5,-.5"/>
<text text-anchor="middle" x="165.5" y="-7.5" font-family="Helvetica,sans-Serif" font-size="10.00" fill="#000000">utility</text>
</g>
<!-- Node2&#45;&gt;Node5 -->
<g id="edge5" class="edge">
<title>Node2&#45;&gt;Node5</title>
<path fill="none" stroke="#191970" d="M160.0116,-112.4509C160.9901,-94.184 163.1453,-53.9553 164.4448,-29.6976"/>
<polygon fill="#191970" stroke="#191970" points="167.9497,-29.6978 164.9897,-19.5249 160.9597,-29.3233 167.9497,-29.6978"/>
</g>
<!-- Node2&#45;&gt;Node6 -->
<g id="edge6" class="edge">
<title>Node2&#45;&gt;Node6</title>
<path fill="none" stroke="#191970" d="M171.3447,-112.2455C181.388,-103.9746 195.9995,-91.9416 207.8004,-82.2232"/>
<polygon fill="#191970" stroke="#191970" points="210.2967,-84.7015 215.791,-75.6427 205.8467,-79.298 210.2967,-84.7015"/>
</g>
<!-- Node6&#45;&gt;Node3 -->
<g id="edge9" class="edge">
<title>Node6&#45;&gt;Node3</title>
<path fill="none" stroke="#191970" d="M192.3684,-56.8947C159.7659,-48.3683 109.6555,-35.0702 57.1039,-20.1112"/>
<polygon fill="#191970" stroke="#191970" points="57.8435,-16.6825 47.2667,-17.2995 55.9198,-23.413 57.8435,-16.6825"/>
</g>
<!-- Node6&#45;&gt;Node4 -->
<g id="edge12" class="edge">
<title>Node6&#45;&gt;Node4</title>
<path fill="none" stroke="#191970" d="M204.9803,-56.3733C183.7628,-47.3032 151.7724,-33.6279 128.0231,-23.4755"/>
<polygon fill="#191970" stroke="#191970" points="129.2967,-20.2136 118.7258,-19.5011 126.5452,-26.6502 129.2967,-20.2136"/>
</g>
<!-- Node6&#45;&gt;Node5 -->
<g id="edge13" class="edge">
<title>Node6&#45;&gt;Node5</title>
<path fill="none" stroke="#191970" d="M216.7004,-56.2455C207.6322,-48.0549 194.4794,-36.1749 183.7755,-26.5069"/>
<polygon fill="#191970" stroke="#191970" points="185.9429,-23.7482 176.1758,-19.6427 181.2509,-28.9429 185.9429,-23.7482"/>
</g>
<!-- Node7 -->
<g id="node8" class="node">
<title>Node7</title>
<polygon fill="#ffffff" stroke="#bfbfbf" points="204,-.5 204,-19.5 253,-19.5 253,-.5 204,-.5"/>
<text text-anchor="middle" x="228.5" y="-7.5" font-family="Helvetica,sans-Serif" font-size="10.00" fill="#000000">cstddef</text>
</g>
<!-- Node6&#45;&gt;Node7 -->
<g id="edge7" class="edge">
<title>Node6&#45;&gt;Node7</title>
<path fill="none" stroke="#191970" d="M227.6742,-56.2455C227.8047,-48.9382 227.9876,-38.6944 228.1481,-29.7046"/>
<polygon fill="#191970" stroke="#191970" points="231.6486,-29.7036 228.3278,-19.6427 224.6497,-29.5786 231.6486,-29.7036"/>
</g>
<!-- Node6&#45;&gt;Node8 -->
<g id="edge8" class="edge">
<title>Node6&#45;&gt;Node8</title>
<path fill="none" stroke="#191970" d="M261.5374,-56.3733C296.1022,-46.5974 349.5825,-31.4716 385.9945,-21.1733"/>
<polygon fill="#191970" stroke="#191970" points="387.1121,-24.4946 395.7821,-18.4051 385.207,-17.7588 387.1121,-24.4946"/>
</g>
<!-- Node9 -->
<g id="node10" class="node">
<title>Node9</title>
<polygon fill="#ffffff" stroke="#bfbfbf" points="271.5,-.5 271.5,-19.5 321.5,-19.5 321.5,-.5 271.5,-.5"/>
<text text-anchor="middle" x="296.5" y="-7.5" font-family="Helvetica,sans-Serif" font-size="10.00" fill="#000000">optional</text>
</g>
<!-- Node6&#45;&gt;Node9 -->
<g id="edge10" class="edge">
<title>Node6&#45;&gt;Node9</title>
<path fill="none" stroke="#191970" d="M239.5189,-56.2455C249.7098,-47.9746 264.5362,-35.9416 276.5107,-26.2232"/>
<polygon fill="#191970" stroke="#191970" points="279.0598,-28.662 284.6188,-19.6427 274.6486,-23.2268 279.0598,-28.662"/>
</g>
<!-- Node10 -->
<g id="node11" class="node">
<title>Node10</title>
<polygon fill="#ffffff" stroke="#bfbfbf" points="339.5,-.5 339.5,-19.5 377.5,-19.5 377.5,-.5 339.5,-.5"/>
<text text-anchor="middle" x="358.5" y="-7.5" font-family="Helvetica,sans-Serif" font-size="10.00" fill="#000000">tuple</text>
</g>
<!-- Node6&#45;&gt;Node10 -->
<g id="edge11" class="edge">
<title>Node6&#45;&gt;Node10</title>
<path fill="none" stroke="#191970" d="M250.0197,-56.3733C272.1373,-46.9184 305.9613,-32.4593 329.9535,-22.2031"/>
<polygon fill="#191970" stroke="#191970" points="331.4348,-25.3763 339.2541,-18.2273 328.6832,-18.9398 331.4348,-25.3763"/>
</g>
</g>
</svg>
