<?xml version="1.0" encoding="UTF-8" standalone="no"?>
<!DOCTYPE svg PUBLIC "-//W3C//DTD SVG 1.1//EN"
 "http://www.w3.org/Graphics/SVG/1.1/DTD/svg11.dtd">
<!-- Generated by graphviz version 2.40.1 (20161225.0304)
 -->
<!-- Title: Netlist::get_module_weight Pages: 1 -->
<svg width="353pt" height="39pt"
 viewBox="0.00 0.00 353.00 39.00" xmlns="http://www.w3.org/2000/svg" xmlns:xlink="http://www.w3.org/1999/xlink">
<g id="graph0" class="graph" transform="scale(1 1) rotate(0) translate(4 35)">
<title>Netlist::get_module_weight</title>
<polygon fill="#ffffff" stroke="transparent" points="-4,4 -4,-35 349,-35 349,4 -4,4"/>
<!-- Node15 -->
<g id="node1" class="node">
<title>Node15</title>
<polygon fill="#bfbfbf" stroke="#000000" points="0,-.5 0,-30.5 101,-30.5 101,-.5 0,-.5"/>
<text text-anchor="start" x="8" y="-18.5" font-family="Helvetica,sans-Serif" font-size="10.00" fill="#000000">Netlist::get_module</text>
<text text-anchor="middle" x="50.5" y="-7.5" font-family="Helvetica,sans-Serif" font-size="10.00" fill="#000000">_weight</text>
</g>
<!-- Node16 -->
<g id="node2" class="node">
<title>Node16</title>
<g id="a_node2"><a xlink:href="test__min__cover_8cpp.html#ad62682eeb6c222acc3558269eefe9735" target="_top" xlink:title="Create a contraction subgraph object. ">
<polygon fill="#ffffff" stroke="#000000" points="137,-.5 137,-30.5 234,-30.5 234,-.5 137,-.5"/>
<text text-anchor="start" x="145" y="-18.5" font-family="Helvetica,sans-Serif" font-size="10.00" fill="#000000">create_contraction</text>
<text text-anchor="middle" x="185.5" y="-7.5" font-family="Helvetica,sans-Serif" font-size="10.00" fill="#000000">_subgraph</text>
</a>
</g>
</g>
<!-- Node15&#45;&gt;Node16 -->
<g id="edge1" class="edge">
<title>Node15&#45;&gt;Node16</title>
<path fill="none" stroke="#191970" d="M111.4178,-15.5C119.9203,-15.5 128.5634,-15.5 136.8007,-15.5"/>
<polygon fill="#191970" stroke="#191970" points="111.1531,-12.0001 101.1531,-15.5 111.1531,-19.0001 111.1531,-12.0001"/>
</g>
<!-- Node17 -->
<g id="node3" class="node">
<title>Node17</title>
<g id="a_node3"><a xlink:href="test__min__cover_8cpp.html#a05c317144ac7688afb67dabb457b9910" target="_top" xlink:title="TEST_CASE">
<polygon fill="#ffffff" stroke="#000000" points="270,-6 270,-25 345,-25 345,-6 270,-6"/>
<text text-anchor="middle" x="307.5" y="-13" font-family="Helvetica,sans-Serif" font-size="10.00" fill="#000000">TEST_CASE</text>
</a>
</g>
</g>
<!-- Node16&#45;&gt;Node17 -->
<g id="edge2" class="edge">
<title>Node16&#45;&gt;Node17</title>
<path fill="none" stroke="#191970" d="M244.1606,-15.5C252.8182,-15.5 261.5387,-15.5 269.6232,-15.5"/>
<polygon fill="#191970" stroke="#191970" points="244.0682,-12.0001 234.0682,-15.5 244.0681,-19.0001 244.0682,-12.0001"/>
</g>
</g>
</svg>
