<?xml version="1.0" encoding="UTF-8" standalone="no"?>
<!DOCTYPE svg PUBLIC "-//W3C//DTD SVG 1.1//EN"
 "http://www.w3.org/Graphics/SVG/1.1/DTD/svg11.dtd">
<!-- Generated by graphviz version 2.40.1 (20161225.0304)
 -->
<!-- Title: iter::impl::IterToolFnOptionalBindSecond&lt; ItImpl, DefaultT &gt; Pages: 1 -->
<svg width="166pt" height="215pt"
 viewBox="0.00 0.00 166.00 215.00" xmlns="http://www.w3.org/2000/svg" xmlns:xlink="http://www.w3.org/1999/xlink">
<g id="graph0" class="graph" transform="scale(1 1) rotate(0) translate(4 211)">
<title>iter::impl::IterToolFnOptionalBindSecond&lt; ItImpl, DefaultT &gt;</title>
<polygon fill="#ffffff" stroke="transparent" points="-4,4 -4,-211 162,-211 162,4 -4,4"/>
<!-- Node0 -->
<g id="node1" class="node">
<title>Node0</title>
<polygon fill="#bfbfbf" stroke="#000000" points="1.5,-.5 1.5,-90.5 156.5,-90.5 156.5,-.5 1.5,-.5"/>
<text text-anchor="start" x="9.5" y="-78.5" font-family="Helvetica,sans-Serif" font-size="10.00" fill="#000000">iter::impl::IterToolFnOptional</text>
<text text-anchor="middle" x="79" y="-67.5" font-family="Helvetica,sans-Serif" font-size="10.00" fill="#000000">BindSecond&lt; ItImpl, DefaultT &gt;</text>
<polyline fill="none" stroke="#000000" points="1.5,-60.5 156.5,-60.5 "/>
<text text-anchor="middle" x="79" y="-48.5" font-family="Helvetica,sans-Serif" font-size="10.00" fill="#000000"> </text>
<polyline fill="none" stroke="#000000" points="1.5,-41.5 156.5,-41.5 "/>
<text text-anchor="start" x="9.5" y="-29.5" font-family="Helvetica,sans-Serif" font-size="10.00" fill="#000000">+ operator()()</text>
<text text-anchor="start" x="9.5" y="-18.5" font-family="Helvetica,sans-Serif" font-size="10.00" fill="#000000">+ operator()()</text>
<text text-anchor="start" x="9.5" y="-7.5" font-family="Helvetica,sans-Serif" font-size="10.00" fill="#000000">+ operator()()</text>
</g>
<!-- Node1 -->
<g id="node2" class="node">
<title>Node1</title>
<g id="a_node2"><a xlink:href="structiter_1_1impl_1_1Pipeable.html" target="_top" xlink:title="{iter::impl::Pipeable\l\&lt; IterToolFnOptionalBindSecond\l\&lt; ItImpl, DefaultT \&gt; \&gt;\n||+ operator\|()\l}">
<polygon fill="#ffffff" stroke="#000000" points="0,-127.5 0,-206.5 158,-206.5 158,-127.5 0,-127.5"/>
<text text-anchor="start" x="8" y="-194.5" font-family="Helvetica,sans-Serif" font-size="10.00" fill="#000000">iter::impl::Pipeable</text>
<text text-anchor="start" x="8" y="-183.5" font-family="Helvetica,sans-Serif" font-size="10.00" fill="#000000">&lt; IterToolFnOptionalBindSecond</text>
<text text-anchor="middle" x="79" y="-172.5" font-family="Helvetica,sans-Serif" font-size="10.00" fill="#000000">&lt; ItImpl, DefaultT &gt; &gt;</text>
<polyline fill="none" stroke="#000000" points="0,-165.5 158,-165.5 "/>
<text text-anchor="middle" x="79" y="-153.5" font-family="Helvetica,sans-Serif" font-size="10.00" fill="#000000"> </text>
<polyline fill="none" stroke="#000000" points="0,-146.5 158,-146.5 "/>
<text text-anchor="start" x="8" y="-134.5" font-family="Helvetica,sans-Serif" font-size="10.00" fill="#000000">+ operator|()</text>
</a>
</g>
</g>
<!-- Node1&#45;&gt;Node0 -->
<g id="edge1" class="edge">
<title>Node1&#45;&gt;Node0</title>
<path fill="none" stroke="#191970" d="M79,-117.1739C79,-108.4596 79,-99.4352 79,-90.8501"/>
<polygon fill="none" stroke="#191970" points="75.5001,-117.2163 79,-127.2164 82.5001,-117.2164 75.5001,-117.2163"/>
</g>
</g>
</svg>
