<?xml version="1.0" encoding="UTF-8" standalone="no"?>
<!DOCTYPE svg PUBLIC "-//W3C//DTD SVG 1.1//EN"
 "http://www.w3.org/Graphics/SVG/1.1/DTD/svg11.dtd">
<!-- Generated by graphviz version 2.40.1 (20161225.0304)
 -->
<!-- Title: iter::impl::ReverseIteratorWrapperImplType&lt; Container, true &gt; Pages: 1 -->
<svg width="156pt" height="204pt"
 viewBox="0.00 0.00 156.00 204.00" xmlns="http://www.w3.org/2000/svg" xmlns:xlink="http://www.w3.org/1999/xlink">
<g id="graph0" class="graph" transform="scale(1 1) rotate(0) translate(4 200)">
<title>iter::impl::ReverseIteratorWrapperImplType&lt; Container, true &gt;</title>
<polygon fill="#ffffff" stroke="transparent" points="-4,4 -4,-200 152,-200 152,4 -4,4"/>
<!-- Node2 -->
<g id="node1" class="node">
<title>Node2</title>
<polygon fill="#bfbfbf" stroke="#000000" points="0,-.5 0,-79.5 148,-79.5 148,-.5 0,-.5"/>
<text text-anchor="start" x="8" y="-67.5" font-family="Helvetica,sans-Serif" font-size="10.00" fill="#000000">iter::impl::ReverseIterator</text>
<text text-anchor="start" x="8" y="-56.5" font-family="Helvetica,sans-Serif" font-size="10.00" fill="#000000">WrapperImplType&lt; Container,</text>
<text text-anchor="middle" x="74" y="-45.5" font-family="Helvetica,sans-Serif" font-size="10.00" fill="#000000"> true &gt;</text>
<polyline fill="none" stroke="#000000" points="0,-38.5 148,-38.5 "/>
<text text-anchor="middle" x="74" y="-26.5" font-family="Helvetica,sans-Serif" font-size="10.00" fill="#000000"> </text>
<polyline fill="none" stroke="#000000" points="0,-19.5 148,-19.5 "/>
<text text-anchor="middle" x="74" y="-7.5" font-family="Helvetica,sans-Serif" font-size="10.00" fill="#000000"> </text>
</g>
<!-- Node3 -->
<g id="node2" class="node">
<title>Node3</title>
<g id="a_node2"><a xlink:href="structiter_1_1impl_1_1type__is.html" target="_top" xlink:title="{iter::impl::type_is\l\&lt; reverse_iterator_type\l\&lt; Container \&gt; \&gt;\n||}">
<polygon fill="#ffffff" stroke="#000000" points="15.5,-116.5 15.5,-195.5 132.5,-195.5 132.5,-116.5 15.5,-116.5"/>
<text text-anchor="start" x="23.5" y="-183.5" font-family="Helvetica,sans-Serif" font-size="10.00" fill="#000000">iter::impl::type_is</text>
<text text-anchor="start" x="23.5" y="-172.5" font-family="Helvetica,sans-Serif" font-size="10.00" fill="#000000">&lt; reverse_iterator_type</text>
<text text-anchor="middle" x="74" y="-161.5" font-family="Helvetica,sans-Serif" font-size="10.00" fill="#000000">&lt; Container &gt; &gt;</text>
<polyline fill="none" stroke="#000000" points="15.5,-154.5 132.5,-154.5 "/>
<text text-anchor="middle" x="74" y="-142.5" font-family="Helvetica,sans-Serif" font-size="10.00" fill="#000000"> </text>
<polyline fill="none" stroke="#000000" points="15.5,-135.5 132.5,-135.5 "/>
<text text-anchor="middle" x="74" y="-123.5" font-family="Helvetica,sans-Serif" font-size="10.00" fill="#000000"> </text>
</a>
</g>
</g>
<!-- Node3&#45;&gt;Node2 -->
<g id="edge1" class="edge">
<title>Node3&#45;&gt;Node2</title>
<path fill="none" stroke="#191970" d="M74,-106.2163C74,-97.394 74,-88.3127 74,-79.8116"/>
<polygon fill="none" stroke="#191970" points="70.5001,-106.4038 74,-116.4038 77.5001,-106.4039 70.5001,-106.4038"/>
</g>
</g>
</svg>
