<?xml version="1.0" encoding="UTF-8" standalone="no"?>
<!DOCTYPE svg PUBLIC "-//W3C//DTD SVG 1.1//EN"
 "http://www.w3.org/Graphics/SVG/1.1/DTD/svg11.dtd">
<!-- Generated by graphviz version 2.40.1 (20161225.0304)
 -->
<!-- Title: iter::impl::UniqueJustseenFn Pages: 1 -->
<svg width="150pt" height="171pt"
 viewBox="0.00 0.00 150.00 171.00" xmlns="http://www.w3.org/2000/svg" xmlns:xlink="http://www.w3.org/1999/xlink">
<g id="graph0" class="graph" transform="scale(1 1) rotate(0) translate(4 167)">
<title>iter::impl::UniqueJustseenFn</title>
<polygon fill="#ffffff" stroke="transparent" points="-4,4 -4,-167 146,-167 146,4 -4,4"/>
<!-- Node2 -->
<g id="node1" class="node">
<title>Node2</title>
<polygon fill="#bfbfbf" stroke="#000000" points="0,-.5 0,-57.5 142,-57.5 142,-.5 0,-.5"/>
<text text-anchor="middle" x="71" y="-45.5" font-family="Helvetica,sans-Serif" font-size="10.00" fill="#000000">iter::impl::UniqueJustseenFn</text>
<polyline fill="none" stroke="#000000" points="0,-38.5 142,-38.5 "/>
<text text-anchor="middle" x="71" y="-26.5" font-family="Helvetica,sans-Serif" font-size="10.00" fill="#000000"> </text>
<polyline fill="none" stroke="#000000" points="0,-19.5 142,-19.5 "/>
<text text-anchor="start" x="8" y="-7.5" font-family="Helvetica,sans-Serif" font-size="10.00" fill="#000000">+ operator()()</text>
</g>
<!-- Node3 -->
<g id="node2" class="node">
<title>Node3</title>
<g id="a_node2"><a xlink:href="structiter_1_1impl_1_1Pipeable.html" target="_top" xlink:title="{iter::impl::Pipeable\l\&lt; UniqueJustseenFn \&gt;\n||+ operator\|()\l}">
<polygon fill="#ffffff" stroke="#000000" points="13,-94.5 13,-162.5 129,-162.5 129,-94.5 13,-94.5"/>
<text text-anchor="start" x="21" y="-150.5" font-family="Helvetica,sans-Serif" font-size="10.00" fill="#000000">iter::impl::Pipeable</text>
<text text-anchor="middle" x="71" y="-139.5" font-family="Helvetica,sans-Serif" font-size="10.00" fill="#000000">&lt; UniqueJustseenFn &gt;</text>
<polyline fill="none" stroke="#000000" points="13,-132.5 129,-132.5 "/>
<text text-anchor="middle" x="71" y="-120.5" font-family="Helvetica,sans-Serif" font-size="10.00" fill="#000000"> </text>
<polyline fill="none" stroke="#000000" points="13,-113.5 129,-113.5 "/>
<text text-anchor="start" x="21" y="-101.5" font-family="Helvetica,sans-Serif" font-size="10.00" fill="#000000">+ operator|()</text>
</a>
</g>
</g>
<!-- Node3&#45;&gt;Node2 -->
<g id="edge1" class="edge">
<title>Node3&#45;&gt;Node2</title>
<path fill="none" stroke="#191970" d="M71,-84.2499C71,-75.2373 71,-65.981 71,-57.6836"/>
<polygon fill="none" stroke="#191970" points="67.5001,-84.2577 71,-94.2577 74.5001,-84.2578 67.5001,-84.2577"/>
</g>
</g>
</svg>
