<?xml version="1.0" encoding="UTF-8" standalone="no"?>
<!DOCTYPE svg PUBLIC "-//W3C//DTD SVG 1.1//EN"
 "http://www.w3.org/Graphics/SVG/1.1/DTD/svg11.dtd">
<!-- Generated by graphviz version 2.40.1 (20161225.0304)
 -->
<!-- Title: Netlist::number_of_modules Pages: 1 -->
<svg width="438pt" height="268pt"
 viewBox="0.00 0.00 438.00 267.50" xmlns="http://www.w3.org/2000/svg" xmlns:xlink="http://www.w3.org/1999/xlink">
<g id="graph0" class="graph" transform="scale(1 1) rotate(0) translate(4 263.5)">
<title>Netlist::number_of_modules</title>
<polygon fill="#ffffff" stroke="transparent" points="-4,4 -4,-263.5 434,-263.5 434,4 -4,4"/>
<!-- Node37 -->
<g id="node1" class="node">
<title>Node37</title>
<polygon fill="#bfbfbf" stroke="#000000" points="0,-109 0,-139 97,-139 97,-109 0,-109"/>
<text text-anchor="start" x="8" y="-127" font-family="Helvetica,sans-Serif" font-size="10.00" fill="#000000">Netlist::number_of</text>
<text text-anchor="middle" x="48.5" y="-116" font-family="Helvetica,sans-Serif" font-size="10.00" fill="#000000">_modules</text>
</g>
<!-- Node38 -->
<g id="node2" class="node">
<title>Node38</title>
<g id="a_node2"><a xlink:href="test__min__cover_8cpp.html#ad62682eeb6c222acc3558269eefe9735" target="_top" xlink:title="Create a contraction subgraph object. ">
<polygon fill="#ffffff" stroke="#000000" points="177.5,-229 177.5,-259 274.5,-259 274.5,-229 177.5,-229"/>
<text text-anchor="start" x="185.5" y="-247" font-family="Helvetica,sans-Serif" font-size="10.00" fill="#000000">create_contraction</text>
<text text-anchor="middle" x="226" y="-236" font-family="Helvetica,sans-Serif" font-size="10.00" fill="#000000">_subgraph</text>
</a>
</g>
</g>
<!-- Node37&#45;&gt;Node38 -->
<g id="edge1" class="edge">
<title>Node37&#45;&gt;Node38</title>
<path fill="none" stroke="#191970" d="M63.5677,-147.6948C78.5903,-169.409 103.6182,-200.8555 133,-219 146.3717,-227.2576 162.4624,-232.8217 177.4725,-236.5569"/>
<polygon fill="#191970" stroke="#191970" points="66.4289,-145.6775 57.9429,-139.334 60.6209,-149.5849 66.4289,-145.6775"/>
</g>
<!-- Node40 -->
<g id="node4" class="node">
<title>Node40</title>
<g id="a_node4"><a xlink:href="classFMBiGainCalc.html#a372e640c3d67007d25381437abdbcbe3" target="_top" xlink:title="Construct a new FMBiGainCalc object. ">
<polygon fill="#ffffff" stroke="#000000" points="151,-190.5 151,-209.5 301,-209.5 301,-190.5 151,-190.5"/>
<text text-anchor="middle" x="226" y="-197.5" font-family="Helvetica,sans-Serif" font-size="10.00" fill="#000000">FMBiGainCalc::FMBiGainCalc</text>
</a>
</g>
</g>
<!-- Node37&#45;&gt;Node40 -->
<g id="edge3" class="edge">
<title>Node37&#45;&gt;Node40</title>
<path fill="none" stroke="#191970" d="M74.6799,-145.6153C90.6293,-157.738 111.9369,-172.157 133,-181 142.2687,-184.8913 152.4006,-188.0069 162.4581,-190.4956"/>
<polygon fill="#191970" stroke="#191970" points="76.445,-142.5535 66.406,-139.1667 72.1419,-148.0747 76.445,-142.5535"/>
</g>
<!-- Node41 -->
<g id="node5" class="node">
<title>Node41</title>
<g id="a_node5"><a xlink:href="classFMConstrMgr.html#ac6326f062b0c4c757f171d8423f645c0" target="_top" xlink:title="Construct a new FMConstrMgr object. ">
<polygon fill="#ffffff" stroke="#000000" points="154.5,-152.5 154.5,-171.5 297.5,-171.5 297.5,-152.5 154.5,-152.5"/>
<text text-anchor="middle" x="226" y="-159.5" font-family="Helvetica,sans-Serif" font-size="10.00" fill="#000000">FMConstrMgr::FMConstrMgr</text>
</a>
</g>
</g>
<!-- Node37&#45;&gt;Node41 -->
<g id="edge4" class="edge">
<title>Node37&#45;&gt;Node41</title>
<path fill="none" stroke="#191970" d="M107.2066,-137.3565C115.8503,-139.2776 124.6521,-141.2089 133,-143 147.6625,-146.1459 163.6522,-149.4561 178.1728,-152.4162"/>
<polygon fill="#191970" stroke="#191970" points="107.6915,-133.8786 97.169,-135.1148 106.1658,-140.7103 107.6915,-133.8786"/>
</g>
<!-- Node42 -->
<g id="node6" class="node">
<title>Node42</title>
<g id="a_node6"><a xlink:href="classFMKWayGainCalc.html#a6f136e1ffb0f8ca1c2879d9e709dfe14" target="_top" xlink:title="Construct a new FMKWayGainCalc object. ">
<polygon fill="#ffffff" stroke="#000000" points="133,-114.5 133,-133.5 319,-133.5 319,-114.5 133,-114.5"/>
<text text-anchor="middle" x="226" y="-121.5" font-family="Helvetica,sans-Serif" font-size="10.00" fill="#000000">FMKWayGainCalc::FMKWayGainCalc</text>
</a>
</g>
</g>
<!-- Node37&#45;&gt;Node42 -->
<g id="edge5" class="edge">
<title>Node37&#45;&gt;Node42</title>
<path fill="none" stroke="#191970" d="M107.2282,-124C115.487,-124 124.139,-124 132.8477,-124"/>
<polygon fill="#191970" stroke="#191970" points="107.0027,-120.5001 97.0027,-124 107.0026,-127.5001 107.0027,-120.5001"/>
</g>
<!-- Node43 -->
<g id="node7" class="node">
<title>Node43</title>
<g id="a_node7"><a xlink:href="test__readwrite_8cpp.html#a215fb04db23da496ba12327f10927716" target="_top" xlink:title="readAre">
<polygon fill="#ffffff" stroke="#000000" points="201,-76.5 201,-95.5 251,-95.5 251,-76.5 201,-76.5"/>
<text text-anchor="middle" x="226" y="-83.5" font-family="Helvetica,sans-Serif" font-size="10.00" fill="#000000">readAre</text>
</a>
</g>
</g>
<!-- Node37&#45;&gt;Node43 -->
<g id="edge6" class="edge">
<title>Node37&#45;&gt;Node43</title>
<path fill="none" stroke="#191970" d="M107.2066,-110.6435C115.8503,-108.7224 124.6521,-106.7911 133,-105 155.88,-100.091 181.9915,-94.782 200.71,-91.0272"/>
<polygon fill="#191970" stroke="#191970" points="106.1658,-107.2897 97.169,-112.8852 107.6915,-114.1214 106.1658,-107.2897"/>
</g>
<!-- Node45 -->
<g id="node9" class="node">
<title>Node45</title>
<g id="a_node9"><a xlink:href="test__FMBiPartMgr_8cpp.html#a11dda7f67a5e08301bb5e9afdaa518d2" target="_top" xlink:title="Run test cases. ">
<polygon fill="#ffffff" stroke="#000000" points="179.5,-38.5 179.5,-57.5 272.5,-57.5 272.5,-38.5 179.5,-38.5"/>
<text text-anchor="middle" x="226" y="-45.5" font-family="Helvetica,sans-Serif" font-size="10.00" fill="#000000">run_FMBiPartMgr</text>
</a>
</g>
</g>
<!-- Node37&#45;&gt;Node45 -->
<g id="edge8" class="edge">
<title>Node37&#45;&gt;Node45</title>
<path fill="none" stroke="#191970" d="M74.6799,-102.3847C90.6293,-90.262 111.9369,-75.843 133,-67 147.4348,-60.9398 163.9634,-56.7609 179.0439,-53.9016"/>
<polygon fill="#191970" stroke="#191970" points="72.1419,-99.9253 66.406,-108.8333 76.445,-105.4465 72.1419,-99.9253"/>
</g>
<!-- Node47 -->
<g id="node11" class="node">
<title>Node47</title>
<g id="a_node11"><a xlink:href="test__FMKWayPartMgr_8cpp.html#a31d7816462e0e6562accc740b2002a0d" target="_top" xlink:title="Run test cases. ">
<polygon fill="#ffffff" stroke="#000000" points="170.5,-.5 170.5,-19.5 281.5,-19.5 281.5,-.5 170.5,-.5"/>
<text text-anchor="middle" x="226" y="-7.5" font-family="Helvetica,sans-Serif" font-size="10.00" fill="#000000">run_FMKWayPartMgr</text>
</a>
</g>
</g>
<!-- Node37&#45;&gt;Node47 -->
<g id="edge10" class="edge">
<title>Node37&#45;&gt;Node47</title>
<path fill="none" stroke="#191970" d="M63.0732,-100.2643C77.8903,-78.2427 102.9098,-46.3357 133,-29 144.2805,-22.501 157.4552,-18.2038 170.2808,-15.3683"/>
<polygon fill="#191970" stroke="#191970" points="60.0765,-98.4522 57.5433,-108.7397 65.939,-102.2773 60.0765,-98.4522"/>
</g>
<!-- Node39 -->
<g id="node3" class="node">
<title>Node39</title>
<g id="a_node3"><a xlink:href="test__min__cover_8cpp.html#a05c317144ac7688afb67dabb457b9910" target="_top" xlink:title="TEST_CASE">
<polygon fill="#ffffff" stroke="#000000" points="355,-234.5 355,-253.5 430,-253.5 430,-234.5 355,-234.5"/>
<text text-anchor="middle" x="392.5" y="-241.5" font-family="Helvetica,sans-Serif" font-size="10.00" fill="#000000">TEST_CASE</text>
</a>
</g>
</g>
<!-- Node38&#45;&gt;Node39 -->
<g id="edge2" class="edge">
<title>Node38&#45;&gt;Node39</title>
<path fill="none" stroke="#191970" d="M284.7561,-244C308.0966,-244 334.2569,-244 354.9549,-244"/>
<polygon fill="#191970" stroke="#191970" points="284.6063,-240.5001 274.6063,-244 284.6062,-247.5001 284.6063,-240.5001"/>
</g>
<!-- Node44 -->
<g id="node8" class="node">
<title>Node44</title>
<g id="a_node8"><a xlink:href="test__readwrite_8cpp.html#aa912e597fca177a562f23f136b3862c1" target="_top" xlink:title="TEST_CASE">
<polygon fill="#ffffff" stroke="#000000" points="355,-76.5 355,-95.5 430,-95.5 430,-76.5 355,-76.5"/>
<text text-anchor="middle" x="392.5" y="-83.5" font-family="Helvetica,sans-Serif" font-size="10.00" fill="#000000">TEST_CASE</text>
</a>
</g>
</g>
<!-- Node43&#45;&gt;Node44 -->
<g id="edge7" class="edge">
<title>Node43&#45;&gt;Node44</title>
<path fill="none" stroke="#191970" d="M261.6243,-86C289.0825,-86 326.9567,-86 354.8989,-86"/>
<polygon fill="#191970" stroke="#191970" points="261.2878,-82.5001 251.2878,-86 261.2877,-89.5001 261.2878,-82.5001"/>
</g>
<!-- Node46 -->
<g id="node10" class="node">
<title>Node46</title>
<g id="a_node10"><a xlink:href="test__FMBiPartMgr_8cpp.html#ae77f825d1f7f8beace2b17ee6a85aaf6" target="_top" xlink:title="TEST_CASE">
<polygon fill="#ffffff" stroke="#000000" points="355,-38.5 355,-57.5 430,-57.5 430,-38.5 355,-38.5"/>
<text text-anchor="middle" x="392.5" y="-45.5" font-family="Helvetica,sans-Serif" font-size="10.00" fill="#000000">TEST_CASE</text>
</a>
</g>
</g>
<!-- Node45&#45;&gt;Node46 -->
<g id="edge9" class="edge">
<title>Node45&#45;&gt;Node46</title>
<path fill="none" stroke="#191970" d="M283.1306,-48C306.8813,-48 333.7881,-48 354.9704,-48"/>
<polygon fill="#191970" stroke="#191970" points="282.8227,-44.5001 272.8226,-48 282.8226,-51.5001 282.8227,-44.5001"/>
</g>
<!-- Node48 -->
<g id="node12" class="node">
<title>Node48</title>
<g id="a_node12"><a xlink:href="test__FMKWayPartMgr_8cpp.html#afeb6f3c88c2b866631888c7abdd1b23f" target="_top" xlink:title="TEST_CASE">
<polygon fill="#ffffff" stroke="#000000" points="355,-.5 355,-19.5 430,-19.5 430,-.5 355,-.5"/>
<text text-anchor="middle" x="392.5" y="-7.5" font-family="Helvetica,sans-Serif" font-size="10.00" fill="#000000">TEST_CASE</text>
</a>
</g>
</g>
<!-- Node47&#45;&gt;Node48 -->
<g id="edge11" class="edge">
<title>Node47&#45;&gt;Node48</title>
<path fill="none" stroke="#191970" d="M291.9149,-10C313.2852,-10 336.2503,-10 354.834,-10"/>
<polygon fill="#191970" stroke="#191970" points="291.9053,-6.5001 281.9053,-10 291.9052,-13.5001 291.9053,-6.5001"/>
</g>
</g>
</svg>
