<?xml version="1.0" encoding="UTF-8" standalone="no"?>
<!DOCTYPE svg PUBLIC "-//W3C//DTD SVG 1.1//EN"
 "http://www.w3.org/Graphics/SVG/1.1/DTD/svg11.dtd">
<!-- Generated by graphviz version 2.40.1 (20161225.0304)
 -->
<!-- Title: main Pages: 1 -->
<svg width="263pt" height="28pt"
 viewBox="0.00 0.00 263.00 28.00" xmlns="http://www.w3.org/2000/svg" xmlns:xlink="http://www.w3.org/1999/xlink">
<g id="graph0" class="graph" transform="scale(1 1) rotate(0) translate(4 24)">
<title>main</title>
<polygon fill="#ffffff" stroke="transparent" points="-4,4 -4,-24 259,-24 259,4 -4,4"/>
<!-- Node0 -->
<g id="node1" class="node">
<title>Node0</title>
<polygon fill="#bfbfbf" stroke="#000000" points="0,-.5 0,-19.5 38,-19.5 38,-.5 0,-.5"/>
<text text-anchor="middle" x="19" y="-7.5" font-family="Helvetica,sans-Serif" font-size="10.00" fill="#000000">main</text>
</g>
<!-- Node1 -->
<g id="node2" class="node">
<title>Node1</title>
<g id="a_node2"><a xlink:href="namespaceiter.html#a10b97409ab6920ed54eb512cb862a82d" target="_top" xlink:title="iter::zip">
<polygon fill="#ffffff" stroke="#000000" points="74,-.5 74,-19.5 123,-19.5 123,-.5 74,-.5"/>
<text text-anchor="middle" x="98.5" y="-7.5" font-family="Helvetica,sans-Serif" font-size="10.00" fill="#000000">iter::zip</text>
</a>
</g>
</g>
<!-- Node0&#45;&gt;Node1 -->
<g id="edge1" class="edge">
<title>Node0&#45;&gt;Node1</title>
<path fill="none" stroke="#191970" d="M38.2447,-10C45.9075,-10 54.9703,-10 63.7083,-10"/>
<polygon fill="#191970" stroke="#191970" points="63.7136,-13.5001 73.7135,-10 63.7135,-6.5001 63.7136,-13.5001"/>
</g>
<!-- Node2 -->
<g id="node3" class="node">
<title>Node2</title>
<g id="a_node3"><a xlink:href="namespaceiter_1_1impl.html#a07f83a739a4db5305d87f47ae300c193" target="_top" xlink:title="iter::impl::zip_impl">
<polygon fill="#ffffff" stroke="#000000" points="159,-.5 159,-19.5 255,-19.5 255,-.5 159,-.5"/>
<text text-anchor="middle" x="207" y="-7.5" font-family="Helvetica,sans-Serif" font-size="10.00" fill="#000000">iter::impl::zip_impl</text>
</a>
</g>
</g>
<!-- Node1&#45;&gt;Node2 -->
<g id="edge2" class="edge">
<title>Node1&#45;&gt;Node2</title>
<path fill="none" stroke="#191970" d="M123.1203,-10C130.843,-10 139.7211,-10 148.7479,-10"/>
<polygon fill="#191970" stroke="#191970" points="148.9489,-13.5001 158.9488,-10 148.9488,-6.5001 148.9489,-13.5001"/>
</g>
</g>
</svg>
