<?xml version="1.0" encoding="UTF-8" standalone="no"?>
<!DOCTYPE svg PUBLIC "-//W3C//DTD SVG 1.1//EN"
 "http://www.w3.org/Graphics/SVG/1.1/DTD/svg11.dtd">
<!-- Generated by graphviz version 2.40.1 (20161225.0304)
 -->
<!-- Title: main Pages: 1 -->
<svg width="337pt" height="28pt"
 viewBox="0.00 0.00 337.00 28.00" xmlns="http://www.w3.org/2000/svg" xmlns:xlink="http://www.w3.org/1999/xlink">
<g id="graph0" class="graph" transform="scale(1 1) rotate(0) translate(4 24)">
<title>main</title>
<polygon fill="#ffffff" stroke="transparent" points="-4,4 -4,-24 333,-24 333,4 -4,4"/>
<!-- Node0 -->
<g id="node1" class="node">
<title>Node0</title>
<polygon fill="#bfbfbf" stroke="#000000" points="0,-.5 0,-19.5 38,-19.5 38,-.5 0,-.5"/>
<text text-anchor="middle" x="19" y="-7.5" font-family="Helvetica,sans-Serif" font-size="10.00" fill="#000000">main</text>
</g>
<!-- Node1 -->
<g id="node2" class="node">
<title>Node1</title>
<g id="a_node2"><a xlink:href="namespaceiter.html#a0934e5348a3d17ca80bf4bc9d9a2b76b" target="_top" xlink:title="iter::zip_longest">
<polygon fill="#ffffff" stroke="#000000" points="74,-.5 74,-19.5 160,-19.5 160,-.5 74,-.5"/>
<text text-anchor="middle" x="117" y="-7.5" font-family="Helvetica,sans-Serif" font-size="10.00" fill="#000000">iter::zip_longest</text>
</a>
</g>
</g>
<!-- Node0&#45;&gt;Node1 -->
<g id="edge1" class="edge">
<title>Node0&#45;&gt;Node1</title>
<path fill="none" stroke="#191970" d="M38.3616,-10C45.7379,-10 54.5495,-10 63.5629,-10"/>
<polygon fill="#191970" stroke="#191970" points="63.7595,-13.5001 73.7595,-10 63.7595,-6.5001 63.7595,-13.5001"/>
</g>
<!-- Node2 -->
<g id="node3" class="node">
<title>Node2</title>
<g id="a_node3"><a xlink:href="namespaceiter_1_1impl.html#abd99406497ef1535825af03e15a8a4a8" target="_top" xlink:title="iter::impl::zip_longest_impl">
<polygon fill="#ffffff" stroke="#000000" points="196,-.5 196,-19.5 329,-19.5 329,-.5 196,-.5"/>
<text text-anchor="middle" x="262.5" y="-7.5" font-family="Helvetica,sans-Serif" font-size="10.00" fill="#000000">iter::impl::zip_longest_impl</text>
</a>
</g>
</g>
<!-- Node1&#45;&gt;Node2 -->
<g id="edge2" class="edge">
<title>Node1&#45;&gt;Node2</title>
<path fill="none" stroke="#191970" d="M160.2609,-10C168.3288,-10 176.9792,-10 185.7074,-10"/>
<polygon fill="#191970" stroke="#191970" points="185.9592,-13.5001 195.9592,-10 185.9591,-6.5001 185.9592,-13.5001"/>
</g>
</g>
</svg>
