<svg xmlns="http://www.w3.org/2000/svg" width="160" height="208" class="svgbob"><style>.svgbob circle,.svgbob line,.svgbob polygon{stroke:#000;stroke-width:2;stroke-opacity:1;fill-opacity:1;stroke-linecap:round;stroke-linejoin:miter}.svgbob text{white-space:pre;fill:#000;font-family:Iosevka Fixed,monospace;font-size:14px}.svgbob .filled{fill:#000}.svgbob .bg_filled{fill:#fff;stroke-width:1}</style><defs><marker id="arrow" markerHeight="7" markerWidth="7" orient="auto-start-reverse" refX="4" refY="2" viewBox="-2 -2 8 8"><path d="M0 0v4l4-2z"/></marker><marker id="diamond" markerHeight="7" markerWidth="7" orient="auto-start-reverse" refX="4" refY="2" viewBox="-2 -2 8 8"><path d="m0 2 2-2 2 2-2 2z"/></marker><marker id="circle" markerHeight="7" markerWidth="7" orient="auto-start-reverse" refX="4" refY="4" viewBox="0 0 8 8"><circle cx="4" cy="4" r="2" class="filled"/></marker><marker id="open_circle" markerHeight="7" markerWidth="7" orient="auto-start-reverse" refX="4" refY="4" viewBox="0 0 8 8"><circle cx="4" cy="4" r="2" class="bg_filled"/></marker><marker id="big_open_circle" markerHeight="7" markerWidth="7" orient="auto-start-reverse" refX="4" refY="4" viewBox="0 0 8 8"><circle cx="4" cy="4" r="3" class="bg_filled"/></marker></defs><path d="M0 0h160v208H0z" style="stroke-width:2;stroke-opacity:1;fill-opacity:1;stroke-linecap:round;stroke-linejoin:miter;stroke:none;fill:#fff"/><text x="10" y="28">Alice</text><text x="122" y="28">Bob</text><text x="42" y="76">Hello</text><text x="90" y="76">Bob!</text><path d="M32 88h88" class="solid"/><path d="m120 84 8 4-8 4z" class="filled"/><text x="34" y="124">Hello</text><text x="82" y="124">Alice!</text><path d="m40 132-8 4 8 4z" class="filled"/><path d="M40 136h88" class="solid"/><text x="10" y="172">Alice</text><text x="122" y="172">Bob</text><path d="M4 8h48M4 8v32M52 8v32M4 40h48M28 40v112M4 152h48M4 152v32M52 152v32M4 184h48M116 8h32M116 8v32M148 8v32M116 40h32M132 40v112M116 152h32M116 152v32M148 152v32M116 184h32" class="solid"/></svg>