<?xml version="1.0" encoding="UTF-8" standalone="no"?>
<!DOCTYPE svg PUBLIC "-//W3C//DTD SVG 1.1//EN"
 "http://www.w3.org/Graphics/SVG/1.1/DTD/svg11.dtd">
<!-- Generated by graphviz version 2.40.1 (20161225.0304)
 -->
<!-- Title: fun::persp_euclid_plane::measure Pages: 1 -->
<svg width="365pt" height="39pt"
 viewBox="0.00 0.00 365.00 39.00" xmlns="http://www.w3.org/2000/svg" xmlns:xlink="http://www.w3.org/1999/xlink">
<g id="graph0" class="graph" transform="scale(1 1) rotate(0) translate(4 35)">
<title>fun::persp_euclid_plane::measure</title>
<polygon fill="#ffffff" stroke="transparent" points="-4,4 -4,-35 361,-35 361,4 -4,4"/>
<!-- Node8 -->
<g id="node1" class="node">
<title>Node8</title>
<polygon fill="#bfbfbf" stroke="#000000" points="0,-.5 0,-30.5 119,-30.5 119,-.5 0,-.5"/>
<text text-anchor="start" x="8" y="-18.5" font-family="Helvetica,sans-Serif" font-size="10.00" fill="#000000">fun::persp_euclid_plane</text>
<text text-anchor="middle" x="59.5" y="-7.5" font-family="Helvetica,sans-Serif" font-size="10.00" fill="#000000">::measure</text>
</g>
<!-- Node9 -->
<g id="node2" class="node">
<title>Node9</title>
<g id="a_node2"><a xlink:href="classfun_1_1persp__euclid__plane.html#a040b970ce9bffc8fe7aa69c897c6d0ae" target="_top" xlink:title="fun::persp_euclid_plane\l::omega">
<polygon fill="#ffffff" stroke="#000000" points="155,-.5 155,-30.5 274,-30.5 274,-.5 155,-.5"/>
<text text-anchor="start" x="163" y="-18.5" font-family="Helvetica,sans-Serif" font-size="10.00" fill="#000000">fun::persp_euclid_plane</text>
<text text-anchor="middle" x="214.5" y="-7.5" font-family="Helvetica,sans-Serif" font-size="10.00" fill="#000000">::omega</text>
</a>
</g>
</g>
<!-- Node8&#45;&gt;Node9 -->
<g id="edge1" class="edge">
<title>Node8&#45;&gt;Node9</title>
<path fill="none" stroke="#191970" d="M119.427,-15.5C127.7244,-15.5 136.3054,-15.5 144.7618,-15.5"/>
<polygon fill="#191970" stroke="#191970" points="144.9877,-19.0001 154.9877,-15.5 144.9877,-12.0001 144.9877,-19.0001"/>
</g>
<!-- Node10 -->
<g id="node3" class="node">
<title>Node10</title>
<g id="a_node3"><a xlink:href="namespacefun.html#aedf8ed73d3c766478d73cc514e63107b" target="_top" xlink:title="Square function. ">
<polygon fill="#ffffff" stroke="#000000" points="310,-6 310,-25 357,-25 357,-6 310,-6"/>
<text text-anchor="middle" x="333.5" y="-13" font-family="Helvetica,sans-Serif" font-size="10.00" fill="#000000">fun::sq</text>
</a>
</g>
</g>
<!-- Node9&#45;&gt;Node10 -->
<g id="edge2" class="edge">
<title>Node9&#45;&gt;Node10</title>
<path fill="none" stroke="#191970" d="M274.3486,-15.5C283.023,-15.5 291.6876,-15.5 299.6047,-15.5"/>
<polygon fill="#191970" stroke="#191970" points="299.8683,-19.0001 309.8683,-15.5 299.8683,-12.0001 299.8683,-19.0001"/>
</g>
</g>
</svg>
