<?xml version="1.0" encoding="UTF-8" standalone="no"?>
<!DOCTYPE svg PUBLIC "-//W3C//DTD SVG 1.1//EN"
 "http://www.w3.org/Graphics/SVG/1.1/DTD/svg11.dtd">
<!-- Generated by graphviz version 2.40.1 (20161225.0304)
 -->
<!-- Title: fun::persp_euclid_plane::perp Pages: 1 -->
<svg width="375pt" height="66pt"
 viewBox="0.00 0.00 375.00 66.00" xmlns="http://www.w3.org/2000/svg" xmlns:xlink="http://www.w3.org/1999/xlink">
<g id="graph0" class="graph" transform="scale(1 1) rotate(0) translate(4 62)">
<title>fun::persp_euclid_plane::perp</title>
<polygon fill="#ffffff" stroke="transparent" points="-4,4 -4,-62 371,-62 371,4 -4,4"/>
<!-- Node25 -->
<g id="node1" class="node">
<title>Node25</title>
<polygon fill="#bfbfbf" stroke="#000000" points="0,-14 0,-44 119,-44 119,-14 0,-14"/>
<text text-anchor="start" x="8" y="-32" font-family="Helvetica,sans-Serif" font-size="10.00" fill="#000000">fun::persp_euclid_plane</text>
<text text-anchor="middle" x="59.5" y="-21" font-family="Helvetica,sans-Serif" font-size="10.00" fill="#000000">::perp</text>
</g>
<!-- Node26 -->
<g id="node2" class="node">
<title>Node26</title>
<g id="a_node2"><a xlink:href="classfun_1_1pg__object.html#aa5cc9d034d63507a952402b0db35104e" target="_top" xlink:title="the dot product ">
<polygon fill="#ffffff" stroke="#000000" points="155,-38.5 155,-57.5 253,-57.5 253,-38.5 155,-38.5"/>
<text text-anchor="middle" x="204" y="-45.5" font-family="Helvetica,sans-Serif" font-size="10.00" fill="#000000">fun::pg_object::dot</text>
</a>
</g>
</g>
<!-- Node25&#45;&gt;Node26 -->
<g id="edge1" class="edge">
<title>Node25&#45;&gt;Node26</title>
<path fill="none" stroke="#191970" d="M119.1079,-36.8377C127.509,-37.9424 136.1454,-39.0779 144.5436,-40.1822"/>
<polygon fill="#191970" stroke="#191970" points="144.2666,-43.6758 154.6376,-41.5094 145.1792,-36.7356 144.2666,-43.6758"/>
</g>
<!-- Node27 -->
<g id="node3" class="node">
<title>Node27</title>
<g id="a_node3"><a xlink:href="namespacefun.html#a58e32c10566ecd068ed609acda4ac22c" target="_top" xlink:title="fun::plucker">
<polygon fill="#ffffff" stroke="#000000" points="170,-.5 170,-19.5 238,-19.5 238,-.5 170,-.5"/>
<text text-anchor="middle" x="204" y="-7.5" font-family="Helvetica,sans-Serif" font-size="10.00" fill="#000000">fun::plucker</text>
</a>
</g>
</g>
<!-- Node25&#45;&gt;Node27 -->
<g id="edge2" class="edge">
<title>Node25&#45;&gt;Node27</title>
<path fill="none" stroke="#191970" d="M119.1079,-21.1623C132.7262,-19.3716 146.963,-17.4997 159.801,-15.8116"/>
<polygon fill="#191970" stroke="#191970" points="160.3,-19.2762 169.7584,-14.5024 159.3874,-12.336 160.3,-19.2762"/>
</g>
<!-- Node28 -->
<g id="node4" class="node">
<title>Node28</title>
<g id="a_node4"><a xlink:href="namespacefun.html#a045201b72ea5c6205e772c934670f017" target="_top" xlink:title="generic Plucker function ">
<polygon fill="#ffffff" stroke="#000000" points="289,-.5 289,-19.5 367,-19.5 367,-.5 289,-.5"/>
<text text-anchor="middle" x="328" y="-7.5" font-family="Helvetica,sans-Serif" font-size="10.00" fill="#000000">fun::plucker_c</text>
</a>
</g>
</g>
<!-- Node27&#45;&gt;Node28 -->
<g id="edge3" class="edge">
<title>Node27&#45;&gt;Node28</title>
<path fill="none" stroke="#191970" d="M238.2118,-10C250.665,-10 265.0041,-10 278.5157,-10"/>
<polygon fill="#191970" stroke="#191970" points="278.6419,-13.5001 288.6419,-10 278.6418,-6.5001 278.6419,-13.5001"/>
</g>
</g>
</svg>
