<?xml version="1.0" encoding="UTF-8" standalone="no"?>
<!DOCTYPE svg PUBLIC "-//W3C//DTD SVG 1.1//EN"
 "http://www.w3.org/Graphics/SVG/1.1/DTD/svg11.dtd">
<!-- Generated by graphviz version 2.40.1 (20161225.0304)
 -->
<!-- Title: source/pgcpp/euclid_plane.hpp Pages: 1 -->
<svg width="601pt" height="263pt"
 viewBox="0.00 0.00 601.00 263.00" xmlns="http://www.w3.org/2000/svg" xmlns:xlink="http://www.w3.org/1999/xlink">
<g id="graph0" class="graph" transform="scale(1 1) rotate(0) translate(4 259)">
<title>source/pgcpp/euclid_plane.hpp</title>
<polygon fill="#ffffff" stroke="transparent" points="-4,4 -4,-259 597,-259 597,4 -4,4"/>
<!-- Node0 -->
<g id="node1" class="node">
<title>Node0</title>
<polygon fill="#bfbfbf" stroke="#000000" points="181,-224.5 181,-254.5 285,-254.5 285,-224.5 181,-224.5"/>
<text text-anchor="start" x="189" y="-242.5" font-family="Helvetica,sans-Serif" font-size="10.00" fill="#000000">source/pgcpp/euclid</text>
<text text-anchor="middle" x="233" y="-231.5" font-family="Helvetica,sans-Serif" font-size="10.00" fill="#000000">_plane.hpp</text>
</g>
<!-- Node1 -->
<g id="node2" class="node">
<title>Node1</title>
<polygon fill="#ffffff" stroke="#bfbfbf" points="211.5,-56.5 211.5,-75.5 260.5,-75.5 260.5,-56.5 211.5,-56.5"/>
<text text-anchor="middle" x="236" y="-63.5" font-family="Helvetica,sans-Serif" font-size="10.00" fill="#000000">cassert</text>
</g>
<!-- Node0&#45;&gt;Node1 -->
<g id="edge1" class="edge">
<title>Node0&#45;&gt;Node1</title>
<path fill="none" stroke="#191970" d="M233.261,-224.4065C233.8015,-193.1485 235.0434,-121.3214 235.6516,-86.1492"/>
<polygon fill="#191970" stroke="#191970" points="239.1581,-85.797 235.8316,-75.738 232.1592,-85.676 239.1581,-85.797"/>
</g>
<!-- Node2 -->
<g id="node3" class="node">
<title>Node2</title>
<polygon fill="#ffffff" stroke="#bfbfbf" points="0,-56.5 0,-75.5 62,-75.5 62,-56.5 0,-56.5"/>
<text text-anchor="middle" x="31" y="-63.5" font-family="Helvetica,sans-Serif" font-size="10.00" fill="#000000">type_traits</text>
</g>
<!-- Node0&#45;&gt;Node2 -->
<g id="edge2" class="edge">
<title>Node0&#45;&gt;Node2</title>
<path fill="none" stroke="#191970" d="M184.7682,-224.456C162.8659,-216.0551 137.548,-204.0087 118,-188 82.1086,-158.6071 54.0045,-110.9643 40.2546,-84.7599"/>
<polygon fill="#191970" stroke="#191970" points="43.2174,-82.8657 35.5531,-75.5507 36.9828,-86.0486 43.2174,-82.8657"/>
</g>
<!-- Node3 -->
<g id="node4" class="node">
<title>Node3</title>
<g id="a_node4"><a xlink:href="fractions_8hpp.html" target="_top" xlink:title="pgcpp/fractions.hpp">
<polygon fill="#ffffff" stroke="#000000" points="103,-112.5 103,-131.5 205,-131.5 205,-112.5 103,-112.5"/>
<text text-anchor="middle" x="154" y="-119.5" font-family="Helvetica,sans-Serif" font-size="10.00" fill="#000000">pgcpp/fractions.hpp</text>
</a>
</g>
</g>
<!-- Node0&#45;&gt;Node3 -->
<g id="edge3" class="edge">
<title>Node0&#45;&gt;Node3</title>
<path fill="none" stroke="#191970" d="M222.6721,-224.1389C208.1154,-202.4881 181.616,-163.0745 166.1374,-140.0525"/>
<polygon fill="#191970" stroke="#191970" points="168.9114,-137.9053 160.4272,-131.5595 163.1023,-141.8111 168.9114,-137.9053"/>
</g>
<!-- Node4 -->
<g id="node5" class="node">
<title>Node4</title>
<polygon fill="#ffffff" stroke="#bfbfbf" points="80,-56.5 80,-75.5 124,-75.5 124,-56.5 80,-56.5"/>
<text text-anchor="middle" x="102" y="-63.5" font-family="Helvetica,sans-Serif" font-size="10.00" fill="#000000">cmath</text>
</g>
<!-- Node0&#45;&gt;Node4 -->
<g id="edge21" class="edge">
<title>Node0&#45;&gt;Node4</title>
<path fill="none" stroke="#191970" d="M199.0349,-224.4498C165.3455,-207.4366 115.7069,-176.2289 94,-132 86.8575,-117.4469 89.9605,-98.996 94.2167,-85.305"/>
<polygon fill="#191970" stroke="#191970" points="97.6468,-86.1056 97.7036,-75.5109 91.0522,-83.7578 97.6468,-86.1056"/>
</g>
<!-- Node8 -->
<g id="node9" class="node">
<title>Node8</title>
<g id="a_node9"><a xlink:href="pg__common_8hpp.html" target="_top" xlink:title="pgcpp/pg_common.hpp">
<polygon fill="#ffffff" stroke="#000000" points="447,-168.5 447,-187.5 565,-187.5 565,-168.5 447,-168.5"/>
<text text-anchor="middle" x="506" y="-175.5" font-family="Helvetica,sans-Serif" font-size="10.00" fill="#000000">pgcpp/pg_common.hpp</text>
</a>
</g>
</g>
<!-- Node0&#45;&gt;Node8 -->
<g id="edge10" class="edge">
<title>Node0&#45;&gt;Node8</title>
<path fill="none" stroke="#191970" d="M285.3141,-227.7149C333.7361,-216.8067 405.3467,-200.6746 453.7486,-189.7709"/>
<polygon fill="#191970" stroke="#191970" points="454.7218,-193.1395 463.7081,-187.5273 453.1834,-186.3106 454.7218,-193.1395"/>
</g>
<!-- Node11 -->
<g id="node12" class="node">
<title>Node11</title>
<g id="a_node12"><a xlink:href="proj__plane_8hpp.html" target="_top" xlink:title="pgcpp/proj_plane.hpp">
<polygon fill="#ffffff" stroke="#000000" points="261.5,-168.5 261.5,-187.5 370.5,-187.5 370.5,-168.5 261.5,-168.5"/>
<text text-anchor="middle" x="316" y="-175.5" font-family="Helvetica,sans-Serif" font-size="10.00" fill="#000000">pgcpp/proj_plane.hpp</text>
</a>
</g>
</g>
<!-- Node0&#45;&gt;Node11 -->
<g id="edge14" class="edge">
<title>Node0&#45;&gt;Node11</title>
<path fill="none" stroke="#191970" d="M253.5169,-224.2977C265.9982,-215.0495 281.9159,-203.2551 294.5614,-193.8853"/>
<polygon fill="#191970" stroke="#191970" points="296.7596,-196.6126 302.7106,-187.8469 292.5922,-190.9882 296.7596,-196.6126"/>
</g>
<!-- Node12 -->
<g id="node13" class="node">
<title>Node12</title>
<g id="a_node13"><a xlink:href="proj__plane__concepts_8h.html" target="_top" xlink:title="pgcpp/proj_plane_concepts.h">
<polygon fill="#ffffff" stroke="#000000" points="299.5,-112.5 299.5,-131.5 442.5,-131.5 442.5,-112.5 299.5,-112.5"/>
<text text-anchor="middle" x="371" y="-119.5" font-family="Helvetica,sans-Serif" font-size="10.00" fill="#000000">pgcpp/proj_plane_concepts.h</text>
</a>
</g>
</g>
<!-- Node0&#45;&gt;Node12 -->
<g id="edge20" class="edge">
<title>Node0&#45;&gt;Node12</title>
<path fill="none" stroke="#191970" d="M285.1593,-227.9669C322.6892,-218.4889 368.6189,-204.0466 380,-188 389.6903,-174.3373 385.534,-155.0069 380.0977,-140.7962"/>
<polygon fill="#191970" stroke="#191970" points="383.2661,-139.3046 376.0927,-131.5076 376.8382,-142.0762 383.2661,-139.3046"/>
</g>
<!-- Node3&#45;&gt;Node1 -->
<g id="edge4" class="edge">
<title>Node3&#45;&gt;Node1</title>
<path fill="none" stroke="#191970" d="M168.2833,-112.2455C180.747,-103.7337 199.0451,-91.2375 213.4792,-81.3801"/>
<polygon fill="#191970" stroke="#191970" points="215.5962,-84.1726 221.8804,-75.6427 211.6485,-78.392 215.5962,-84.1726"/>
</g>
<!-- Node3&#45;&gt;Node2 -->
<g id="edge7" class="edge">
<title>Node3&#45;&gt;Node2</title>
<path fill="none" stroke="#191970" d="M132.8555,-112.3733C113.1108,-103.3838 83.4302,-89.8706 61.1945,-79.7471"/>
<polygon fill="#191970" stroke="#191970" points="62.42,-76.4594 51.8685,-75.5011 59.5194,-82.8302 62.42,-76.4594"/>
</g>
<!-- Node3&#45;&gt;Node4 -->
<g id="edge5" class="edge">
<title>Node3&#45;&gt;Node4</title>
<path fill="none" stroke="#191970" d="M144.9423,-112.2455C137.4858,-104.2155 126.7366,-92.6394 117.8583,-83.0781"/>
<polygon fill="#191970" stroke="#191970" points="120.3232,-80.589 110.9539,-75.6427 115.1937,-85.3522 120.3232,-80.589"/>
</g>
<!-- Node5 -->
<g id="node6" class="node">
<title>Node5</title>
<polygon fill="#ffffff" stroke="#bfbfbf" points="142.5,-56.5 142.5,-75.5 193.5,-75.5 193.5,-56.5 142.5,-56.5"/>
<text text-anchor="middle" x="168" y="-63.5" font-family="Helvetica,sans-Serif" font-size="10.00" fill="#000000">numeric</text>
</g>
<!-- Node3&#45;&gt;Node5 -->
<g id="edge6" class="edge">
<title>Node3&#45;&gt;Node5</title>
<path fill="none" stroke="#191970" d="M156.4386,-112.2455C158.2855,-104.8579 160.8828,-94.4689 163.1478,-85.4087"/>
<polygon fill="#191970" stroke="#191970" points="166.5594,-86.193 165.5893,-75.6427 159.7684,-84.4952 166.5594,-86.193"/>
</g>
<!-- Node6 -->
<g id="node7" class="node">
<title>Node6</title>
<g id="a_node7"><a xlink:href="common__concepts_8h.html" target="_top" xlink:title="pgcpp/common_concepts.h">
<polygon fill="#ffffff" stroke="#000000" points="302.5,-56.5 302.5,-75.5 439.5,-75.5 439.5,-56.5 302.5,-56.5"/>
<text text-anchor="middle" x="371" y="-63.5" font-family="Helvetica,sans-Serif" font-size="10.00" fill="#000000">pgcpp/common_concepts.h</text>
</a>
</g>
</g>
<!-- Node3&#45;&gt;Node6 -->
<g id="edge8" class="edge">
<title>Node3&#45;&gt;Node6</title>
<path fill="none" stroke="#191970" d="M191.3036,-112.3733C228.1685,-102.8598 284.666,-88.2797 324.4506,-78.0127"/>
<polygon fill="#191970" stroke="#191970" points="325.375,-81.3889 334.1831,-75.5011 323.6258,-74.611 325.375,-81.3889"/>
</g>
<!-- Node7 -->
<g id="node8" class="node">
<title>Node7</title>
<polygon fill="#ffffff" stroke="#bfbfbf" points="351,-.5 351,-19.5 391,-19.5 391,-.5 351,-.5"/>
<text text-anchor="middle" x="371" y="-7.5" font-family="Helvetica,sans-Serif" font-size="10.00" fill="#000000">utility</text>
</g>
<!-- Node6&#45;&gt;Node7 -->
<g id="edge9" class="edge">
<title>Node6&#45;&gt;Node7</title>
<path fill="none" stroke="#191970" d="M371,-56.2455C371,-48.9382 371,-38.6944 371,-29.7046"/>
<polygon fill="#191970" stroke="#191970" points="374.5001,-29.6426 371,-19.6427 367.5001,-29.6427 374.5001,-29.6426"/>
</g>
<!-- Node8&#45;&gt;Node6 -->
<g id="edge13" class="edge">
<title>Node8&#45;&gt;Node6</title>
<path fill="none" stroke="#191970" d="M509.6094,-168.4326C514.1641,-154.5763 520.0469,-128.7527 508,-112 498.1436,-98.2933 460.7893,-86.2854 427.5721,-77.978"/>
<polygon fill="#191970" stroke="#191970" points="427.9742,-74.4742 417.4312,-75.5209 426.3257,-81.2774 427.9742,-74.4742"/>
</g>
<!-- Node9 -->
<g id="node10" class="node">
<title>Node9</title>
<polygon fill="#ffffff" stroke="#bfbfbf" points="555,-112.5 555,-131.5 593,-131.5 593,-112.5 555,-112.5"/>
<text text-anchor="middle" x="574" y="-119.5" font-family="Helvetica,sans-Serif" font-size="10.00" fill="#000000">array</text>
</g>
<!-- Node8&#45;&gt;Node9 -->
<g id="edge11" class="edge">
<title>Node8&#45;&gt;Node9</title>
<path fill="none" stroke="#191970" d="M517.8447,-168.2455C527.888,-159.9746 542.4995,-147.9416 554.3004,-138.2232"/>
<polygon fill="#191970" stroke="#191970" points="556.7967,-140.7015 562.291,-131.6427 552.3467,-135.298 556.7967,-140.7015"/>
</g>
<!-- Node10 -->
<g id="node11" class="node">
<title>Node10</title>
<polygon fill="#ffffff" stroke="#bfbfbf" points="461,-112.5 461,-131.5 499,-131.5 499,-112.5 461,-112.5"/>
<text text-anchor="middle" x="480" y="-119.5" font-family="Helvetica,sans-Serif" font-size="10.00" fill="#000000">tuple</text>
</g>
<!-- Node8&#45;&gt;Node10 -->
<g id="edge12" class="edge">
<title>Node8&#45;&gt;Node10</title>
<path fill="none" stroke="#191970" d="M501.4711,-168.2455C497.9666,-160.6973 493.0073,-150.0158 488.7377,-140.8197"/>
<polygon fill="#191970" stroke="#191970" points="491.8627,-139.2389 484.477,-131.6427 485.5136,-142.1867 491.8627,-139.2389"/>
</g>
<!-- Node11&#45;&gt;Node1 -->
<g id="edge15" class="edge">
<title>Node11&#45;&gt;Node1</title>
<path fill="none" stroke="#191970" d="M309.1792,-168.4509C295.7772,-149.688 265.8248,-107.7548 248.6843,-83.758"/>
<polygon fill="#191970" stroke="#191970" points="251.464,-81.6279 242.8035,-75.5249 245.7678,-85.6966 251.464,-81.6279"/>
</g>
<!-- Node11&#45;&gt;Node3 -->
<g id="edge17" class="edge">
<title>Node11&#45;&gt;Node3</title>
<path fill="none" stroke="#191970" d="M288.1512,-168.3733C261.3297,-159.1016 220.5873,-145.0178 191.0402,-134.804"/>
<polygon fill="#191970" stroke="#191970" points="192.0802,-131.4603 181.4854,-131.5011 189.7931,-138.0762 192.0802,-131.4603"/>
</g>
<!-- Node11&#45;&gt;Node10 -->
<g id="edge16" class="edge">
<title>Node11&#45;&gt;Node10</title>
<path fill="none" stroke="#191970" d="M344.7027,-168.448C370.3228,-159.8876 409.0973,-146.8483 451.1436,-132.2629"/>
<polygon fill="#191970" stroke="#191970" points="452.4392,-135.518 460.7354,-128.9283 450.1406,-128.9062 452.4392,-135.518"/>
</g>
<!-- Node11&#45;&gt;Node12 -->
<g id="edge18" class="edge">
<title>Node11&#45;&gt;Node12</title>
<path fill="none" stroke="#191970" d="M325.5803,-168.2455C333.5458,-160.1352 345.0641,-148.4075 354.5079,-138.7919"/>
<polygon fill="#191970" stroke="#191970" points="357.0195,-141.2297 361.5295,-131.6427 352.0253,-136.3247 357.0195,-141.2297"/>
</g>
<!-- Node12&#45;&gt;Node6 -->
<g id="edge19" class="edge">
<title>Node12&#45;&gt;Node6</title>
<path fill="none" stroke="#191970" d="M371,-112.2455C371,-104.9382 371,-94.6944 371,-85.7046"/>
<polygon fill="#191970" stroke="#191970" points="374.5001,-85.6426 371,-75.6427 367.5001,-85.6427 374.5001,-85.6426"/>
</g>
</g>
</svg>
