<?xml version="1.0" encoding="UTF-8" standalone="no"?>
<!DOCTYPE svg PUBLIC "-//W3C//DTD SVG 1.1//EN"
 "http://www.w3.org/Graphics/SVG/1.1/DTD/svg11.dtd">
<!-- Generated by graphviz version 2.40.1 (20161225.0304)
 -->
<!-- Title: fun::tri_dual Pages: 1 -->
<svg width="524pt" height="272pt"
 viewBox="0.00 0.00 524.00 271.50" xmlns="http://www.w3.org/2000/svg" xmlns:xlink="http://www.w3.org/1999/xlink">
<g id="graph0" class="graph" transform="scale(1 1) rotate(0) translate(4 267.5)">
<title>fun::tri_dual</title>
<polygon fill="#ffffff" stroke="transparent" points="-4,4 -4,-267.5 520,-267.5 520,4 -4,4"/>
<!-- Node214 -->
<g id="node1" class="node">
<title>Node214</title>
<polygon fill="#bfbfbf" stroke="#000000" points="0,-107 0,-126 68,-126 68,-107 0,-107"/>
<text text-anchor="middle" x="34" y="-114" font-family="Helvetica,sans-Serif" font-size="10.00" fill="#000000">fun::tri_dual</text>
</g>
<!-- Node215 -->
<g id="node2" class="node">
<title>Node215</title>
<g id="a_node2"><a xlink:href="test__ck__plane_8cpp.html#ab362ad1c3d592adca7ca1540b02727fd" target="_top" xlink:title="chk_ck">
<polygon fill="#ffffff" stroke="#000000" points="257.5,-230 257.5,-249 305.5,-249 305.5,-230 257.5,-230"/>
<text text-anchor="middle" x="281.5" y="-237" font-family="Helvetica,sans-Serif" font-size="10.00" fill="#000000">chk_ck</text>
</a>
</g>
</g>
<!-- Node214&#45;&gt;Node215 -->
<g id="edge1" class="edge">
<title>Node214&#45;&gt;Node215</title>
<path fill="none" stroke="#191970" d="M46.1023,-134.7445C58.5873,-152.1419 79.6332,-177.8056 104,-192.5 153.41,-222.2967 221.6822,-233.454 257.4446,-237.434"/>
<polygon fill="#191970" stroke="#191970" points="48.652,-132.2788 40.0802,-126.0518 42.8979,-136.2651 48.652,-132.2788"/>
</g>
<!-- Node217 -->
<g id="node4" class="node">
<title>Node217</title>
<g id="a_node4"><a xlink:href="test__persp__plane_8cpp.html#a3a70b50a1fd45c219b46061aaeee3c26" target="_top" xlink:title="chk_degenerate">
<polygon fill="#ffffff" stroke="#000000" points="355.5,-112 355.5,-131 441.5,-131 441.5,-112 355.5,-112"/>
<text text-anchor="middle" x="398.5" y="-119" font-family="Helvetica,sans-Serif" font-size="10.00" fill="#000000">chk_degenerate</text>
</a>
</g>
</g>
<!-- Node214&#45;&gt;Node217 -->
<g id="edge3" class="edge">
<title>Node214&#45;&gt;Node217</title>
<path fill="none" stroke="#191970" d="M78.6226,-117.1121C149.2089,-118.0804 285.7405,-119.9532 355.3788,-120.9085"/>
<polygon fill="#191970" stroke="#191970" points="78.3384,-113.608 68.2913,-116.9704 78.2423,-120.6073 78.3384,-113.608"/>
</g>
<!-- Node218 -->
<g id="node5" class="node">
<title>Node218</title>
<g id="a_node5"><a xlink:href="test__euclid_8cpp.html#a5cb299576d7439887c5d7adcd39b5cf9" target="_top" xlink:title="chk_euclid">
<polygon fill="#ffffff" stroke="#000000" points="124.5,-88 124.5,-107 187.5,-107 187.5,-88 124.5,-88"/>
<text text-anchor="middle" x="156" y="-95" font-family="Helvetica,sans-Serif" font-size="10.00" fill="#000000">chk_euclid</text>
</a>
</g>
</g>
<!-- Node214&#45;&gt;Node218 -->
<g id="edge4" class="edge">
<title>Node214&#45;&gt;Node218</title>
<path fill="none" stroke="#191970" d="M78.5582,-109.5606C93.7783,-107.1903 110.4743,-104.5901 124.4543,-102.4129"/>
<polygon fill="#191970" stroke="#191970" points="77.6507,-106.1597 68.3085,-111.1569 78.728,-113.0763 77.6507,-106.1597"/>
</g>
<!-- Node219 -->
<g id="node6" class="node">
<title>Node219</title>
<g id="a_node6"><a xlink:href="test__ell__plane_8cpp.html#af9f50c00186c0acc1e89ffe6da7edf60" target="_top" xlink:title="chk_tri">
<polygon fill="#ffffff" stroke="#000000" points="133,-164 133,-183 179,-183 179,-164 133,-164"/>
<text text-anchor="middle" x="156" y="-171" font-family="Helvetica,sans-Serif" font-size="10.00" fill="#000000">chk_tri</text>
</a>
</g>
</g>
<!-- Node214&#45;&gt;Node219 -->
<g id="edge5" class="edge">
<title>Node214&#45;&gt;Node219</title>
<path fill="none" stroke="#191970" d="M63.2758,-130.3662C75.8072,-136.2848 90.6103,-143.254 104,-149.5 114.2723,-154.2918 125.7076,-159.5751 135.2331,-163.9621"/>
<polygon fill="#191970" stroke="#191970" points="64.7334,-127.1839 54.1968,-126.0744 61.7418,-133.5125 64.7334,-127.1839"/>
</g>
<!-- Node224 -->
<g id="node11" class="node">
<title>Node224</title>
<g id="a_node11"><a xlink:href="namespacefun.html#aa63d35b33a8ef58d84a87dcb32ffe8a4" target="_top" xlink:title="fun::ratio_ratio">
<polygon fill="#ffffff" stroke="#000000" points="116.5,-50 116.5,-69 195.5,-69 195.5,-50 116.5,-50"/>
<text text-anchor="middle" x="156" y="-57" font-family="Helvetica,sans-Serif" font-size="10.00" fill="#000000">fun::ratio_ratio</text>
</a>
</g>
</g>
<!-- Node214&#45;&gt;Node224 -->
<g id="edge13" class="edge">
<title>Node214&#45;&gt;Node224</title>
<path fill="none" stroke="#191970" d="M58.9792,-101.7772C72.1379,-94.3211 88.6845,-85.4099 104,-78.5 111.5346,-75.1006 119.8752,-71.841 127.6301,-69.0108"/>
<polygon fill="#191970" stroke="#191970" points="56.9899,-98.8835 50.0624,-106.8997 60.4769,-104.9532 56.9899,-98.8835"/>
</g>
<!-- Node225 -->
<g id="node12" class="node">
<title>Node225</title>
<g id="a_node12"><a xlink:href="structfun_1_1ck.html#a403ec4c39a49241d3d81fc90a51439f7" target="_top" xlink:title="fun::ck\&lt; P, L, myck\l \&gt;::tri_altitude">
<polygon fill="#ffffff" stroke="#000000" points="104,-.5 104,-30.5 208,-30.5 208,-.5 104,-.5"/>
<text text-anchor="start" x="112" y="-18.5" font-family="Helvetica,sans-Serif" font-size="10.00" fill="#000000">fun::ck&lt; P, L, myck</text>
<text text-anchor="middle" x="156" y="-7.5" font-family="Helvetica,sans-Serif" font-size="10.00" fill="#000000"> &gt;::tri_altitude</text>
</a>
</g>
</g>
<!-- Node214&#45;&gt;Node225 -->
<g id="edge14" class="edge">
<title>Node214&#45;&gt;Node225</title>
<path fill="none" stroke="#191970" d="M47.592,-98.1514C60.6382,-81.4944 81.6175,-57.0712 104,-40.5 108.9109,-36.8641 114.4339,-33.5416 119.9984,-30.5894"/>
<polygon fill="#191970" stroke="#191970" points="44.4964,-96.4376 41.2016,-106.5071 50.0567,-100.69 44.4964,-96.4376"/>
</g>
<!-- Node216 -->
<g id="node3" class="node">
<title>Node216</title>
<g id="a_node3"><a xlink:href="structmyck.html#a36a99b40632cfef0f79e5df33866e9ab" target="_top" xlink:title="myck::measure">
<polygon fill="#ffffff" stroke="#000000" points="356.5,-244 356.5,-263 440.5,-263 440.5,-244 356.5,-244"/>
<text text-anchor="middle" x="398.5" y="-251" font-family="Helvetica,sans-Serif" font-size="10.00" fill="#000000">myck::measure</text>
</a>
</g>
</g>
<!-- Node215&#45;&gt;Node216 -->
<g id="edge2" class="edge">
<title>Node215&#45;&gt;Node216</title>
<path fill="none" stroke="#191970" d="M315.8816,-243.614C328.5432,-245.1291 343.0321,-246.8628 356.3042,-248.4509"/>
<polygon fill="#191970" stroke="#191970" points="316.0875,-240.1138 305.7425,-242.4008 315.2558,-247.0642 316.0875,-240.1138"/>
</g>
<!-- Node220 -->
<g id="node7" class="node">
<title>Node220</title>
<g id="a_node7"><a xlink:href="test__ell__plane_8cpp.html#a14c5157f7d8d8ca13f61f427c54ca0a9" target="_top" xlink:title="TEST_CASE">
<polygon fill="#ffffff" stroke="#000000" points="244,-164 244,-183 319,-183 319,-164 244,-164"/>
<text text-anchor="middle" x="281.5" y="-171" font-family="Helvetica,sans-Serif" font-size="10.00" fill="#000000">TEST_CASE</text>
</a>
</g>
</g>
<!-- Node219&#45;&gt;Node220 -->
<g id="edge6" class="edge">
<title>Node219&#45;&gt;Node220</title>
<path fill="none" stroke="#191970" d="M189.4411,-173.5C206.1951,-173.5 226.5442,-173.5 243.8459,-173.5"/>
<polygon fill="#191970" stroke="#191970" points="189.0187,-170.0001 179.0186,-173.5 189.0186,-177.0001 189.0187,-170.0001"/>
</g>
<!-- Node220&#45;&gt;Node216 -->
<g id="edge12" class="edge">
<title>Node220&#45;&gt;Node216</title>
<path fill="none" stroke="#191970" d="M298.8045,-190.27C313.057,-203.4656 334.2298,-221.7008 355,-234.5 360.6127,-237.9587 366.9655,-241.1112 373.0478,-243.8111"/>
<polygon fill="#191970" stroke="#191970" points="300.9443,-187.4771 291.2678,-183.1622 296.1415,-192.5696 300.9443,-187.4771"/>
</g>
<!-- Node220&#45;&gt;Node217 -->
<g id="edge8" class="edge">
<title>Node220&#45;&gt;Node217</title>
<path fill="none" stroke="#191970" d="M311.8483,-159.7907C325.0867,-153.8321 340.7977,-146.7897 355,-140.5 361.9324,-137.4299 369.5001,-134.1126 376.3513,-131.1222"/>
<polygon fill="#191970" stroke="#191970" points="310.3819,-156.6125 302.7025,-163.9117 313.2576,-162.9946 310.3819,-156.6125"/>
</g>
<!-- Node221 -->
<g id="node8" class="node">
<title>Node221</title>
<g id="a_node8"><a xlink:href="test__euclid_8cpp.html#a7a9c104eecea25ccd260ebe509e5f19e" target="_top" xlink:title="chk_cyclic">
<polygon fill="#ffffff" stroke="#000000" points="367,-206 367,-225 430,-225 430,-206 367,-206"/>
<text text-anchor="middle" x="398.5" y="-213" font-family="Helvetica,sans-Serif" font-size="10.00" fill="#000000">chk_cyclic</text>
</a>
</g>
</g>
<!-- Node220&#45;&gt;Node221 -->
<g id="edge7" class="edge">
<title>Node220&#45;&gt;Node221</title>
<path fill="none" stroke="#191970" d="M317.8745,-186.5575C335.2589,-192.7981 355.7006,-200.1361 371.651,-205.8619"/>
<polygon fill="#191970" stroke="#191970" points="318.6436,-183.115 308.0491,-183.0305 316.2785,-189.7033 318.6436,-183.115"/>
</g>
<!-- Node222 -->
<g id="node9" class="node">
<title>Node222</title>
<g id="a_node9"><a xlink:href="classSomeClass.html#aeaa6e0ea1d57d9a1f7a9b89c67d53913" target="_top" xlink:title="get the value ">
<polygon fill="#ffffff" stroke="#000000" points="355,-150 355,-169 442,-169 442,-150 355,-150"/>
<text text-anchor="middle" x="398.5" y="-157" font-family="Helvetica,sans-Serif" font-size="10.00" fill="#000000">SomeClass::get</text>
</a>
</g>
</g>
<!-- Node220&#45;&gt;Node222 -->
<g id="edge9" class="edge">
<title>Node220&#45;&gt;Node222</title>
<path fill="none" stroke="#191970" d="M329.2642,-167.7846C337.7113,-166.7739 346.4676,-165.7261 354.7957,-164.7296"/>
<polygon fill="#191970" stroke="#191970" points="328.6769,-164.3298 319.1636,-168.9932 329.5086,-171.2803 328.6769,-164.3298"/>
</g>
<!-- Node222&#45;&gt;Node222 -->
<g id="edge10" class="edge">
<title>Node222&#45;&gt;Node222</title>
<path fill="none" stroke="#191970" d="M380.3527,-178.9C381.5647,-183.8146 387.6138,-187.5 398.5,-187.5 415.918,-187.5 420.9529,-178.0653 413.6046,-169.2571"/>
<polygon fill="#191970" stroke="#191970" points="383.724,-179.8468 383.3954,-169.2571 377.0485,-177.7404 383.724,-179.8468"/>
</g>
<!-- Node223 -->
<g id="node10" class="node">
<title>Node223</title>
<g id="a_node10"><a xlink:href="main_8cpp.html#abf9e6b7e6f15df4b525a2e7705ba3089" target="_top" xlink:title="Example UML diagram: ">
<polygon fill="#ffffff" stroke="#000000" points="478,-150 478,-169 516,-169 516,-150 478,-150"/>
<text text-anchor="middle" x="497" y="-157" font-family="Helvetica,sans-Serif" font-size="10.00" fill="#000000">main</text>
</a>
</g>
</g>
<!-- Node222&#45;&gt;Node223 -->
<g id="edge11" class="edge">
<title>Node222&#45;&gt;Node223</title>
<path fill="none" stroke="#191970" d="M452.4324,-159.5C461.4052,-159.5 470.1689,-159.5 477.5175,-159.5"/>
<polygon fill="#191970" stroke="#191970" points="452.2772,-156.0001 442.2772,-159.5 452.2771,-163.0001 452.2772,-156.0001"/>
</g>
</g>
</svg>
