<?xml version="1.0" encoding="UTF-8" standalone="no"?>
<!DOCTYPE svg PUBLIC "-//W3C//DTD SVG 1.1//EN"
 "http://www.w3.org/Graphics/SVG/1.1/DTD/svg11.dtd">
<!-- Generated by graphviz version 2.40.1 (20161225.0304)
 -->
<!-- Title: source/pgcpp/pg_object.hpp Pages: 1 -->
<!--zoomable 151 -->
<svg id="main" version="1.1" xmlns="http://www.w3.org/2000/svg" xmlns:xlink="http://www.w3.org/1999/xlink" xml:space="preserve" onload="init(evt)">
<style type="text/css"><![CDATA[
.edge:hover path { stroke: red; }
.edge:hover polygon { stroke: red; fill: red; }
]]></style>
<script type="text/javascript"><![CDATA[
var edges = document.getElementsByTagName('g');
if (edges && edges.length) {
  for (var i=0;i<edges.length;i++) {
    if (edges[i].id.substr(0,4)=='edge') {
      edges[i].setAttribute('class','edge');
    }
  }
}
]]></script>
        <defs>
                <circle id="rim" cx="0" cy="0" r="7"/>
                <circle id="rim2" cx="0" cy="0" r="3.5"/>
                <g id="zoomPlus">
                        <use xlink:href="#rim" fill="#404040">
                                <set attributeName="fill" to="#808080" begin="zoomplus.mouseover" end="zoomplus.mouseout"/>
                        </use>
                        <path d="M-4,0h8M0,-4v8" fill="none" stroke="white" stroke-width="1.5" pointer-events="none"/>
                </g>
                <g id="zoomMin">
                        <use xlink:href="#rim" fill="#404040">
                                <set attributeName="fill" to="#808080" begin="zoomminus.mouseover" end="zoomminus.mouseout"/>
                        </use>
                        <path d="M-4,0h8" fill="none" stroke="white" stroke-width="1.5" pointer-events="none"/>
                </g>
                <g id="dirArrow">
                        <path fill="none" stroke="white" stroke-width="1.5" d="M0,-3.0v7 M-2.5,-0.5L0,-3.0L2.5,-0.5"/>
                </g>
               <g id="resetDef">
                       <use xlink:href="#rim2" fill="#404040">
                               <set attributeName="fill" to="#808080" begin="reset.mouseover" end="reset.mouseout"/>
                       </use>
               </g>
        </defs>

<script type="text/javascript">
var viewWidth = 585;
var viewHeight = 151;
var sectionId = 'dynsection-1';
</script>
<script xlink:href="svgpan.js"/>
<svg id="graph" class="graph">
<g id="viewport">
<title>source/pgcpp/pg_object.hpp</title>
<polygon fill="#ffffff" stroke="transparent" points="-4,4 -4,-147 581,-147 581,4 -4,4"/>
<!-- Node6 -->
<g id="node1" class="node">
<title>Node6</title>
<polygon fill="#bfbfbf" stroke="#000000" points="218,-123.5 218,-142.5 357,-142.5 357,-123.5 218,-123.5"/>
<text text-anchor="middle" x="287.5" y="-130.5" font-family="Helvetica,sans-Serif" font-size="10.00" fill="#000000">source/pgcpp/pg_object.hpp</text>
</g>
<!-- Node7 -->
<g id="node2" class="node">
<title>Node7</title>
<g id="a_node2"><a xlink:href="pg__line_8hpp.html" target="_top" xlink:title="source/pgcpp/pg_line.hpp">
<polygon fill="#ffffff" stroke="#000000" points="149.5,-67.5 149.5,-86.5 277.5,-86.5 277.5,-67.5 149.5,-67.5"/>
<text text-anchor="middle" x="213.5" y="-74.5" font-family="Helvetica,sans-Serif" font-size="10.00" fill="#000000">source/pgcpp/pg_line.hpp</text>
</a>
</g>
</g>
<!-- Node6&#45;&gt;Node7 -->
<g id="edge1" class="edge">
<title>Node6&#45;&gt;Node7</title>
<path fill="none" stroke="#191970" d="M266.6343,-117.2097C253.6375,-107.3743 237.3378,-95.0394 226.2421,-86.6427"/>
<polygon fill="#191970" stroke="#191970" points="264.524,-120.002 274.6102,-123.2455 268.7482,-114.4201 264.524,-120.002"/>
</g>
<!-- Node13 -->
<g id="node8" class="node">
<title>Node13</title>
<g id="a_node8"><a xlink:href="pg__point_8hpp.html" target="_top" xlink:title="source/pgcpp/pg_point.hpp">
<polygon fill="#ffffff" stroke="#000000" points="295.5,-67.5 295.5,-86.5 429.5,-86.5 429.5,-67.5 295.5,-67.5"/>
<text text-anchor="middle" x="362.5" y="-74.5" font-family="Helvetica,sans-Serif" font-size="10.00" fill="#000000">source/pgcpp/pg_point.hpp</text>
</a>
</g>
</g>
<!-- Node6&#45;&gt;Node13 -->
<g id="edge7" class="edge">
<title>Node6&#45;&gt;Node13</title>
<path fill="none" stroke="#191970" d="M308.6477,-117.2097C321.8201,-107.3743 338.34,-95.0394 349.5857,-86.6427"/>
<polygon fill="#191970" stroke="#191970" points="306.4828,-114.4581 300.564,-123.2455 310.6709,-120.0671 306.4828,-114.4581"/>
</g>
<!-- Node8 -->
<g id="node3" class="node">
<title>Node8</title>
<g id="a_node3"><a xlink:href="test__ck__plane_8cpp.html" target="_top" xlink:title="source/unittest/test\l_ck_plane.cpp">
<polygon fill="#ffffff" stroke="#000000" points="476,-.5 476,-30.5 577,-30.5 577,-.5 476,-.5"/>
<text text-anchor="start" x="484" y="-18.5" font-family="Helvetica,sans-Serif" font-size="10.00" fill="#000000">source/unittest/test</text>
<text text-anchor="middle" x="526.5" y="-7.5" font-family="Helvetica,sans-Serif" font-size="10.00" fill="#000000">_ck_plane.cpp</text>
</a>
</g>
</g>
<!-- Node7&#45;&gt;Node8 -->
<g id="edge2" class="edge">
<title>Node7&#45;&gt;Node8</title>
<path fill="none" stroke="#191970" d="M283.5139,-65.8261C334.6902,-57.2932 405.6639,-44.7001 467.5,-31 470.1884,-30.4044 472.9393,-29.7699 475.7122,-29.1105"/>
<polygon fill="#191970" stroke="#191970" points="282.8441,-62.3892 273.5512,-67.4776 283.989,-69.295 282.8441,-62.3892"/>
</g>
<!-- Node9 -->
<g id="node4" class="node">
<title>Node9</title>
<g id="a_node4"><a xlink:href="test__ell__plane_8cpp.html" target="_top" xlink:title="source/unittest/test\l_ell_plane.cpp">
<polygon fill="#ffffff" stroke="#000000" points="0,-.5 0,-30.5 101,-30.5 101,-.5 0,-.5"/>
<text text-anchor="start" x="8" y="-18.5" font-family="Helvetica,sans-Serif" font-size="10.00" fill="#000000">source/unittest/test</text>
<text text-anchor="middle" x="50.5" y="-7.5" font-family="Helvetica,sans-Serif" font-size="10.00" fill="#000000">_ell_plane.cpp</text>
</a>
</g>
</g>
<!-- Node7&#45;&gt;Node9 -->
<g id="edge3" class="edge">
<title>Node7&#45;&gt;Node9</title>
<path fill="none" stroke="#191970" d="M178.609,-63.8356C152.7202,-54.0678 117.3797,-40.7338 90.3743,-30.5446"/>
<polygon fill="#191970" stroke="#191970" points="177.4395,-67.1351 188.0313,-67.3906 179.9106,-60.5858 177.4395,-67.1351"/>
</g>
<!-- Node10 -->
<g id="node5" class="node">
<title>Node10</title>
<g id="a_node5"><a xlink:href="test__euclid_8cpp.html" target="_top" xlink:title="source/unittest/test\l_euclid.cpp">
<polygon fill="#ffffff" stroke="#000000" points="119,-.5 119,-30.5 220,-30.5 220,-.5 119,-.5"/>
<text text-anchor="start" x="127" y="-18.5" font-family="Helvetica,sans-Serif" font-size="10.00" fill="#000000">source/unittest/test</text>
<text text-anchor="middle" x="169.5" y="-7.5" font-family="Helvetica,sans-Serif" font-size="10.00" fill="#000000">_euclid.cpp</text>
</a>
</g>
</g>
<!-- Node7&#45;&gt;Node10 -->
<g id="edge4" class="edge">
<title>Node7&#45;&gt;Node10</title>
<path fill="none" stroke="#191970" d="M200.6847,-59.0877C194.2049,-50.0307 186.4294,-39.1627 180.2636,-30.5446"/>
<polygon fill="#191970" stroke="#191970" points="197.9598,-61.2943 206.625,-67.3906 203.6528,-57.2212 197.9598,-61.2943"/>
</g>
<!-- Node11 -->
<g id="node6" class="node">
<title>Node11</title>
<g id="a_node6"><a xlink:href="test__persp__plane_8cpp.html" target="_top" xlink:title="source/unittest/test\l_persp_plane.cpp">
<polygon fill="#ffffff" stroke="#000000" points="238,-.5 238,-30.5 339,-30.5 339,-.5 238,-.5"/>
<text text-anchor="start" x="246" y="-18.5" font-family="Helvetica,sans-Serif" font-size="10.00" fill="#000000">source/unittest/test</text>
<text text-anchor="middle" x="288.5" y="-7.5" font-family="Helvetica,sans-Serif" font-size="10.00" fill="#000000">_persp_plane.cpp</text>
</a>
</g>
</g>
<!-- Node7&#45;&gt;Node11 -->
<g id="edge5" class="edge">
<title>Node7&#45;&gt;Node11</title>
<path fill="none" stroke="#191970" d="M232.9653,-61.0385C244.442,-51.6276 258.8766,-39.7911 270.1529,-30.5446"/>
<polygon fill="#191970" stroke="#191970" points="230.7322,-58.3433 225.2188,-67.3906 235.1707,-63.7562 230.7322,-58.3433"/>
</g>
<!-- Node12 -->
<g id="node7" class="node">
<title>Node12</title>
<g id="a_node7"><a xlink:href="test__proj__plane_8cpp.html" target="_top" xlink:title="source/unittest/test\l_proj_plane.cpp">
<polygon fill="#ffffff" stroke="#000000" points="357,-.5 357,-30.5 458,-30.5 458,-.5 357,-.5"/>
<text text-anchor="start" x="365" y="-18.5" font-family="Helvetica,sans-Serif" font-size="10.00" fill="#000000">source/unittest/test</text>
<text text-anchor="middle" x="407.5" y="-7.5" font-family="Helvetica,sans-Serif" font-size="10.00" fill="#000000">_proj_plane.cpp</text>
</a>
</g>
</g>
<!-- Node7&#45;&gt;Node12 -->
<g id="edge6" class="edge">
<title>Node7&#45;&gt;Node12</title>
<path fill="none" stroke="#191970" d="M253.4085,-64.3486C284.3537,-54.5386 327.3345,-40.9133 360.0423,-30.5446"/>
<polygon fill="#191970" stroke="#191970" points="252.2873,-61.0323 243.8125,-67.3906 254.4027,-67.705 252.2873,-61.0323"/>
</g>
<!-- Node13&#45;&gt;Node8 -->
<g id="edge8" class="edge">
<title>Node13&#45;&gt;Node8</title>
<path fill="none" stroke="#191970" d="M397.6051,-63.8356C423.6527,-54.0678 459.21,-40.7338 486.3811,-30.5446"/>
<polygon fill="#191970" stroke="#191970" points="396.2593,-60.6022 388.125,-67.3906 398.7173,-67.1565 396.2593,-60.6022"/>
</g>
<!-- Node13&#45;&gt;Node9 -->
<g id="edge9" class="edge">
<title>Node13&#45;&gt;Node9</title>
<path fill="none" stroke="#191970" d="M292.7635,-65.8075C241.7896,-57.2655 171.0956,-44.6692 109.5,-31 106.8118,-30.4034 104.0611,-29.7682 101.2883,-29.1082"/>
<polygon fill="#191970" stroke="#191970" points="292.2476,-69.2697 302.6868,-67.4609 293.3981,-62.3649 292.2476,-69.2697"/>
</g>
<!-- Node13&#45;&gt;Node10 -->
<g id="edge10" class="edge">
<title>Node13&#45;&gt;Node10</title>
<path fill="none" stroke="#191970" d="M322.7972,-64.3486C292.0115,-54.5386 249.2523,-40.9133 216.7131,-30.5446"/>
<polygon fill="#191970" stroke="#191970" points="321.7531,-67.6892 332.3438,-67.3906 323.8784,-61.0197 321.7531,-67.6892"/>
</g>
<!-- Node13&#45;&gt;Node11 -->
<g id="edge11" class="edge">
<title>Node13&#45;&gt;Node11</title>
<path fill="none" stroke="#191970" d="M342.9636,-60.7637C331.6943,-51.398 317.6204,-39.7014 306.6024,-30.5446"/>
<polygon fill="#191970" stroke="#191970" points="341.0097,-63.6907 350.9375,-67.3906 345.4838,-58.3072 341.0097,-63.6907"/>
</g>
<!-- Node13&#45;&gt;Node12 -->
<g id="edge12" class="edge">
<title>Node13&#45;&gt;Node12</title>
<path fill="none" stroke="#191970" d="M375.6066,-59.0877C382.2336,-50.0307 390.1858,-39.1627 396.4918,-30.5446"/>
<polygon fill="#191970" stroke="#191970" points="372.6118,-57.2535 369.5313,-67.3906 378.261,-61.3871 372.6118,-57.2535"/>
</g>
</g>
</svg>
        <g id="navigator" transform="translate(0 0)" fill="#404254">
                <rect fill="#f2f5e9" fill-opacity="0.5" stroke="#606060" stroke-width=".5" x="0" y="0" width="60" height="60"/>
                <use id="zoomplus" xlink:href="#zoomPlus" x="17" y="9" onmousedown="handleZoom(evt,'in')"/>
                <use id="zoomminus" xlink:href="#zoomMin" x="42" y="9" onmousedown="handleZoom(evt,'out')"/>
                <use id="reset" xlink:href="#resetDef" x="30" y="36" onmousedown="handleReset()"/>
                <g id="arrowUp" xlink:href="#dirArrow" transform="translate(30 24)" onmousedown="handlePan(0,-1)">
                  <use xlink:href="#rim" fill="#404040">
                        <set attributeName="fill" to="#808080" begin="arrowUp.mouseover" end="arrowUp.mouseout"/>
                  </use>
                  <path fill="none" stroke="white" stroke-width="1.5" d="M0,-3.0v7 M-2.5,-0.5L0,-3.0L2.5,-0.5"/>
                </g>
                <g id="arrowRight" xlink:href="#dirArrow" transform="rotate(90) translate(36 -43)" onmousedown="handlePan(1,0)">
                  <use xlink:href="#rim" fill="#404040">
                        <set attributeName="fill" to="#808080" begin="arrowRight.mouseover" end="arrowRight.mouseout"/>
                  </use>
                  <path fill="none" stroke="white" stroke-width="1.5" d="M0,-3.0v7 M-2.5,-0.5L0,-3.0L2.5,-0.5"/>
                </g>
                <g id="arrowDown" xlink:href="#dirArrow" transform="rotate(180) translate(-30 -48)" onmousedown="handlePan(0,1)">
                  <use xlink:href="#rim" fill="#404040">
                        <set attributeName="fill" to="#808080" begin="arrowDown.mouseover" end="arrowDown.mouseout"/>
                  </use>
                  <path fill="none" stroke="white" stroke-width="1.5" d="M0,-3.0v7 M-2.5,-0.5L0,-3.0L2.5,-0.5"/>
                </g>
                <g id="arrowLeft" xlink:href="#dirArrow" transform="rotate(270) translate(-36 17)" onmousedown="handlePan(-1,0)">
                  <use xlink:href="#rim" fill="#404040">
                        <set attributeName="fill" to="#808080" begin="arrowLeft.mouseover" end="arrowLeft.mouseout"/>
                  </use>
                  <path fill="none" stroke="white" stroke-width="1.5" d="M0,-3.0v7 M-2.5,-0.5L0,-3.0L2.5,-0.5"/>
                </g>
        </g>
        <svg viewBox="0 0 15 15" width="100%" height="30px" preserveAspectRatio="xMaxYMin meet">
         <g id="arrow_out" transform="scale(0.3 0.3)">
          <a xlink:href="pg__object_8hpp__dep__incl_org.svg" target="_base">
           <rect id="button" ry="5" rx="5" y="6" x="6" height="38" width="38"
                fill="#f2f5e9" fill-opacity="0.5" stroke="#606060" stroke-width="1.0"/>
           <path id="arrow"
             d="M 11.500037,31.436501 C 11.940474,20.09759 22.043105,11.32322 32.158766,21.979434 L 37.068811,17.246167 C 37.068811,17.246167 37.088388,32 37.088388,32 L 22.160133,31.978069 C 22.160133,31.978069 26.997745,27.140456 26.997745,27.140456 C 18.528582,18.264221 13.291696,25.230495 11.500037,31.436501 z"
             style="fill:#404040;"/>
          </a>
         </g>
        </svg>
</svg>
