<?xml version="1.0" encoding="UTF-8" standalone="no"?>
<!DOCTYPE svg PUBLIC "-//W3C//DTD SVG 1.1//EN"
 "http://www.w3.org/Graphics/SVG/1.1/DTD/svg11.dtd">
<!-- Generated by graphviz version 2.40.1 (20161225.0304)
 -->
<!-- Title: source/pgcpp/proj_plane.hpp Pages: 1 -->
<svg width="485pt" height="229pt"
 viewBox="0.00 0.00 485.12 229.00" xmlns="http://www.w3.org/2000/svg" xmlns:xlink="http://www.w3.org/1999/xlink">
<g id="graph0" class="graph" transform="scale(1 1) rotate(0) translate(4 225)">
<title>source/pgcpp/proj_plane.hpp</title>
<polygon fill="#ffffff" stroke="transparent" points="-4,4 -4,-225 481.1179,-225 481.1179,4 -4,4"/>
<!-- Node10 -->
<g id="node1" class="node">
<title>Node10</title>
<polygon fill="#bfbfbf" stroke="#000000" points="195.1179,-201.5 195.1179,-220.5 336.1179,-220.5 336.1179,-201.5 195.1179,-201.5"/>
<text text-anchor="middle" x="265.6179" y="-208.5" font-family="Helvetica,sans-Serif" font-size="10.00" fill="#000000">source/pgcpp/proj_plane.hpp</text>
</g>
<!-- Node11 -->
<g id="node2" class="node">
<title>Node11</title>
<g id="a_node2"><a xlink:href="ck__plane_8hpp.html" target="_top" xlink:title="source/pgcpp/ck_plane.hpp">
<polygon fill="#ffffff" stroke="#000000" points="61.6179,-140 61.6179,-159 197.6179,-159 197.6179,-140 61.6179,-140"/>
<text text-anchor="middle" x="129.6179" y="-147" font-family="Helvetica,sans-Serif" font-size="10.00" fill="#000000">source/pgcpp/ck_plane.hpp</text>
</a>
</g>
</g>
<!-- Node10&#45;&gt;Node11 -->
<g id="edge1" class="edge">
<title>Node10&#45;&gt;Node11</title>
<path fill="none" stroke="#191970" d="M235.0776,-197.1895C209.3827,-185.5701 173.3151,-169.2601 150.7187,-159.0419"/>
<polygon fill="#191970" stroke="#191970" points="233.8141,-200.4593 244.3679,-201.3906 236.6984,-194.0811 233.8141,-200.4593"/>
</g>
<!-- Node12 -->
<g id="node3" class="node">
<title>Node12</title>
<g id="a_node3"><a xlink:href="persp__plane_8hpp.html" target="_top" xlink:title="source/pgcpp/persp\l_plane.hpp">
<polygon fill="#ffffff" stroke="#000000" points="134.6179,-67.5 134.6179,-97.5 236.6179,-97.5 236.6179,-67.5 134.6179,-67.5"/>
<text text-anchor="start" x="142.6179" y="-85.5" font-family="Helvetica,sans-Serif" font-size="10.00" fill="#000000">source/pgcpp/persp</text>
<text text-anchor="middle" x="185.6179" y="-74.5" font-family="Helvetica,sans-Serif" font-size="10.00" fill="#000000">_plane.hpp</text>
</a>
</g>
</g>
<!-- Node10&#45;&gt;Node12 -->
<g id="edge11" class="edge">
<title>Node10&#45;&gt;Node12</title>
<path fill="none" stroke="#191970" d="M254.1871,-192.6393C238.3018,-167.1236 209.8439,-121.413 195.0819,-97.7016"/>
<polygon fill="#191970" stroke="#191970" points="251.3485,-194.7022 259.6049,-201.3416 257.291,-191.0025 251.3485,-194.7022"/>
</g>
<!-- Node17 -->
<g id="node8" class="node">
<title>Node17</title>
<g id="a_node8"><a xlink:href="euclid__plane_8hpp.html" target="_top" xlink:title="source/pgcpp/euclid\l_plane.hpp">
<polygon fill="#ffffff" stroke="#000000" points="253.6179,-134.5 253.6179,-164.5 357.6179,-164.5 357.6179,-134.5 253.6179,-134.5"/>
<text text-anchor="start" x="261.6179" y="-152.5" font-family="Helvetica,sans-Serif" font-size="10.00" fill="#000000">source/pgcpp/euclid</text>
<text text-anchor="middle" x="305.6179" y="-141.5" font-family="Helvetica,sans-Serif" font-size="10.00" fill="#000000">_plane.hpp</text>
</a>
</g>
</g>
<!-- Node10&#45;&gt;Node17 -->
<g id="edge8" class="edge">
<title>Node10&#45;&gt;Node17</title>
<path fill="none" stroke="#191970" d="M277.4526,-192.8041C283.306,-183.8045 290.2859,-173.073 295.8328,-164.5446"/>
<polygon fill="#191970" stroke="#191970" points="274.3862,-191.0994 271.8679,-201.3906 280.2542,-194.916 274.3862,-191.0994"/>
</g>
<!-- Node18 -->
<g id="node9" class="node">
<title>Node18</title>
<g id="a_node9"><a xlink:href="test__proj__plane_8cpp.html" target="_top" xlink:title="source/unittest/test\l_proj_plane.cpp">
<polygon fill="#ffffff" stroke="#000000" points="376.1179,-134.5 376.1179,-164.5 477.1179,-164.5 477.1179,-134.5 376.1179,-134.5"/>
<text text-anchor="start" x="384.1179" y="-152.5" font-family="Helvetica,sans-Serif" font-size="10.00" fill="#000000">source/unittest/test</text>
<text text-anchor="middle" x="426.6179" y="-141.5" font-family="Helvetica,sans-Serif" font-size="10.00" fill="#000000">_proj_plane.cpp</text>
</a>
</g>
</g>
<!-- Node10&#45;&gt;Node18 -->
<g id="edge12" class="edge">
<title>Node10&#45;&gt;Node18</title>
<path fill="none" stroke="#191970" d="M300.4193,-197.7063C325.9593,-187.9503 360.6763,-174.6889 387.2329,-164.5446"/>
<polygon fill="#191970" stroke="#191970" points="298.8668,-194.5526 290.7741,-201.3906 301.3648,-201.0917 298.8668,-194.5526"/>
</g>
<!-- Node11&#45;&gt;Node12 -->
<g id="edge2" class="edge">
<title>Node11&#45;&gt;Node12</title>
<path fill="none" stroke="#191970" d="M144.2094,-132.0423C153.163,-121.33 164.5111,-107.7528 173.0624,-97.5218"/>
<polygon fill="#191970" stroke="#191970" points="141.369,-129.9831 137.6413,-139.9005 146.74,-134.4723 141.369,-129.9831"/>
</g>
<!-- Node13 -->
<g id="node4" class="node">
<title>Node13</title>
<g id="a_node4"><a xlink:href="test__ck__plane_8cpp.html" target="_top" xlink:title="source/unittest/test\l_ck_plane.cpp">
<polygon fill="#ffffff" stroke="#000000" points="55.1179,-.5 55.1179,-30.5 156.1179,-30.5 156.1179,-.5 55.1179,-.5"/>
<text text-anchor="start" x="63.1179" y="-18.5" font-family="Helvetica,sans-Serif" font-size="10.00" fill="#000000">source/unittest/test</text>
<text text-anchor="middle" x="105.6179" y="-7.5" font-family="Helvetica,sans-Serif" font-size="10.00" fill="#000000">_ck_plane.cpp</text>
</a>
</g>
</g>
<!-- Node11&#45;&gt;Node13 -->
<g id="edge5" class="edge">
<title>Node11&#45;&gt;Node13</title>
<path fill="none" stroke="#191970" d="M61.5629,-136.8762C40.0092,-129.3191 18.4694,-117.2534 5.6179,-98 -2.0312,-86.5406 -1.5555,-78.7631 5.6179,-67 16.5986,-48.9936 36.1122,-37.0142 55.0047,-29.1813"/>
<polygon fill="#191970" stroke="#191970" points="60.5131,-140.2151 71.1044,-139.9437 62.6555,-133.551 60.5131,-140.2151"/>
</g>
<!-- Node15 -->
<g id="node6" class="node">
<title>Node15</title>
<g id="a_node6"><a xlink:href="test__ell__plane_8cpp.html" target="_top" xlink:title="source/unittest/test\l_ell_plane.cpp">
<polygon fill="#ffffff" stroke="#000000" points="15.1179,-67.5 15.1179,-97.5 116.1179,-97.5 116.1179,-67.5 15.1179,-67.5"/>
<text text-anchor="start" x="23.1179" y="-85.5" font-family="Helvetica,sans-Serif" font-size="10.00" fill="#000000">source/unittest/test</text>
<text text-anchor="middle" x="65.6179" y="-74.5" font-family="Helvetica,sans-Serif" font-size="10.00" fill="#000000">_ell_plane.cpp</text>
</a>
</g>
</g>
<!-- Node11&#45;&gt;Node15 -->
<g id="edge6" class="edge">
<title>Node11&#45;&gt;Node15</title>
<path fill="none" stroke="#191970" d="M113.2451,-132.3597C102.9664,-121.5992 89.8367,-107.8541 79.967,-97.5218"/>
<polygon fill="#191970" stroke="#191970" points="111.01,-135.087 120.4483,-139.9005 116.0718,-130.2518 111.01,-135.087"/>
</g>
<!-- Node16 -->
<g id="node7" class="node">
<title>Node16</title>
<g id="a_node7"><a xlink:href="test__euclid_8cpp.html" target="_top" xlink:title="source/unittest/test\l_euclid.cpp">
<polygon fill="#ffffff" stroke="#000000" points="255.1179,-67.5 255.1179,-97.5 356.1179,-97.5 356.1179,-67.5 255.1179,-67.5"/>
<text text-anchor="start" x="263.1179" y="-85.5" font-family="Helvetica,sans-Serif" font-size="10.00" fill="#000000">source/unittest/test</text>
<text text-anchor="middle" x="305.6179" y="-74.5" font-family="Helvetica,sans-Serif" font-size="10.00" fill="#000000">_euclid.cpp</text>
</a>
</g>
</g>
<!-- Node11&#45;&gt;Node16 -->
<g id="edge7" class="edge">
<title>Node11&#45;&gt;Node16</title>
<path fill="none" stroke="#191970" d="M164.2524,-136.3153C193.5602,-125.1583 235.557,-109.1709 266.1577,-97.5218"/>
<polygon fill="#191970" stroke="#191970" points="162.9349,-133.0717 154.8344,-139.9005 165.4254,-139.6137 162.9349,-133.0717"/>
</g>
<!-- Node12&#45;&gt;Node13 -->
<g id="edge3" class="edge">
<title>Node12&#45;&gt;Node13</title>
<path fill="none" stroke="#191970" d="M159.6846,-60.7808C147.9323,-50.9383 134.3235,-39.541 123.6993,-30.6432"/>
<polygon fill="#191970" stroke="#191970" points="157.5509,-63.5592 167.4647,-67.2967 162.0454,-58.1927 157.5509,-63.5592"/>
</g>
<!-- Node14 -->
<g id="node5" class="node">
<title>Node14</title>
<g id="a_node5"><a xlink:href="test__persp__plane_8cpp.html" target="_top" xlink:title="source/unittest/test\l_persp_plane.cpp">
<polygon fill="#ffffff" stroke="#000000" points="214.1179,-.5 214.1179,-30.5 315.1179,-30.5 315.1179,-.5 214.1179,-.5"/>
<text text-anchor="start" x="222.1179" y="-18.5" font-family="Helvetica,sans-Serif" font-size="10.00" fill="#000000">source/unittest/test</text>
<text text-anchor="middle" x="264.6179" y="-7.5" font-family="Helvetica,sans-Serif" font-size="10.00" fill="#000000">_persp_plane.cpp</text>
</a>
</g>
</g>
<!-- Node12&#45;&gt;Node14 -->
<g id="edge4" class="edge">
<title>Node12&#45;&gt;Node14</title>
<path fill="none" stroke="#191970" d="M211.2271,-60.7808C222.8325,-50.9383 236.2711,-39.541 246.7625,-30.6432"/>
<polygon fill="#191970" stroke="#191970" points="208.9069,-58.1593 203.5442,-67.2967 213.4346,-63.4978 208.9069,-58.1593"/>
</g>
<!-- Node17&#45;&gt;Node14 -->
<g id="edge10" class="edge">
<title>Node17&#45;&gt;Node14</title>
<path fill="none" stroke="#191970" d="M340.1011,-128.3952C350.2478,-120.2673 360.1,-110.0079 365.6179,-98 371.3707,-85.4807 372.815,-78.7486 365.6179,-67 354.4109,-48.7057 334.4371,-36.6537 315.1937,-28.8449"/>
<polygon fill="#191970" stroke="#191970" points="337.9044,-125.6672 331.9778,-134.4493 342.0875,-131.2799 337.9044,-125.6672"/>
</g>
<!-- Node17&#45;&gt;Node16 -->
<g id="edge9" class="edge">
<title>Node17&#45;&gt;Node16</title>
<path fill="none" stroke="#191970" d="M305.6179,-124.0249C305.6179,-115.128 305.6179,-105.4287 305.6179,-97.6432"/>
<polygon fill="#191970" stroke="#191970" points="302.118,-124.2966 305.6179,-134.2967 309.118,-124.2967 302.118,-124.2966"/>
</g>
</g>
</svg>
