<?xml version="1.0" encoding="UTF-8" standalone="no"?>
<!DOCTYPE svg PUBLIC "-//W3C//DTD SVG 1.1//EN"
 "http://www.w3.org/Graphics/SVG/1.1/DTD/svg11.dtd">
<!-- Generated by graphviz version 2.40.1 (20161225.0304)
 -->
<!-- Title: Version::Version::asShortStr Pages: 1 -->
<svg width="315pt" height="28pt"
 viewBox="0.00 0.00 315.00 28.00" xmlns="http://www.w3.org/2000/svg" xmlns:xlink="http://www.w3.org/1999/xlink">
<g id="graph0" class="graph" transform="scale(1 1) rotate(0) translate(4 24)">
<title>Version::Version::asShortStr</title>
<polygon fill="#ffffff" stroke="transparent" points="-4,4 -4,-24 311,-24 311,4 -4,4"/>
<!-- Node13 -->
<g id="node1" class="node">
<title>Node13</title>
<polygon fill="#bfbfbf" stroke="#000000" points="0,-.5 0,-19.5 141,-19.5 141,-.5 0,-.5"/>
<text text-anchor="middle" x="70.5" y="-7.5" font-family="Helvetica,sans-Serif" font-size="10.00" fill="#000000">Version::Version::asShortStr</text>
</g>
<!-- Node14 -->
<g id="node2" class="node">
<title>Node14</title>
<g id="a_node2"><a xlink:href="main_8cpp.html#a0d20b69b0ad703df78459e1033d5c1d4" target="_top" xlink:title="printHelp">
<polygon fill="#ffffff" stroke="#000000" points="177,-.5 177,-19.5 233,-19.5 233,-.5 177,-.5"/>
<text text-anchor="middle" x="205" y="-7.5" font-family="Helvetica,sans-Serif" font-size="10.00" fill="#000000">printHelp</text>
</a>
</g>
</g>
<!-- Node13&#45;&gt;Node14 -->
<g id="edge1" class="edge">
<title>Node13&#45;&gt;Node14</title>
<path fill="none" stroke="#191970" d="M151.312,-10C160.4484,-10 169.2364,-10 176.963,-10"/>
<polygon fill="#191970" stroke="#191970" points="151.295,-6.5001 141.2949,-10 151.2949,-13.5001 151.295,-6.5001"/>
</g>
<!-- Node15 -->
<g id="node3" class="node">
<title>Node15</title>
<g id="a_node3"><a xlink:href="main_8cpp.html#abf9e6b7e6f15df4b525a2e7705ba3089" target="_top" xlink:title="Example UML diagram: ">
<polygon fill="#ffffff" stroke="#000000" points="269,-.5 269,-19.5 307,-19.5 307,-.5 269,-.5"/>
<text text-anchor="middle" x="288" y="-7.5" font-family="Helvetica,sans-Serif" font-size="10.00" fill="#000000">main</text>
</a>
</g>
</g>
<!-- Node14&#45;&gt;Node15 -->
<g id="edge2" class="edge">
<title>Node14&#45;&gt;Node15</title>
<path fill="none" stroke="#191970" d="M243.3044,-10C252.1562,-10 261.2031,-10 268.8213,-10"/>
<polygon fill="#191970" stroke="#191970" points="243.1,-6.5001 233.1,-10 243.1,-13.5001 243.1,-6.5001"/>
</g>
</g>
</svg>
