<?xml version="1.0" encoding="utf-8" standalone="no"?>
<!DOCTYPE svg PUBLIC "-//W3C//DTD SVG 1.1//EN"
  "http://www.w3.org/Graphics/SVG/1.1/DTD/svg11.dtd">
<svg xmlns:xlink="http://www.w3.org/1999/xlink" width="604.8pt" height="331.2pt" viewBox="0 0 604.8 331.2" xmlns="http://www.w3.org/2000/svg" version="1.1">
 <metadata>
  <rdf:RDF xmlns:dc="http://purl.org/dc/elements/1.1/" xmlns:cc="http://creativecommons.org/ns#" xmlns:rdf="http://www.w3.org/1999/02/22-rdf-syntax-ns#">
   <cc:Work>
    <dc:type rdf:resource="http://purl.org/dc/dcmitype/StillImage"/>
    <dc:date>2026-09-21T15:44:43.489846</dc:date>
    <dc:format>image/svg+xml</dc:format>
    <dc:creator>
     <cc:Agent>
      <dc:title>Matplotlib v3.10.8, https://matplotlib.org/</dc:title>
     </cc:Agent>
    </dc:creator>
   </cc:Work>
  </rdf:RDF>
 </metadata>
 <defs>
  <style type="text/css">*{stroke-linejoin: round; stroke-linecap: butt}</style>
 </defs>
 <g id="figure_1">
  <g id="patch_1">
   <path d="M 0 331.2 
L 604.8 331.2 
L 604.8 0 
L 0 0 
z
" style="fill: #eceff4"/>
  </g>
  <g id="axes_1">
   <g id="patch_2">
    <path d="M 70.67 277.36 
L 582.57 277.36 
L 582.57 30.12 
L 70.67 30.12 
z
" style="fill: #eceff4"/>
   </g>
   <g id="patch_3">
    <path d="M -20.030398 277.36 
L 462.670596 277.36 
L 462.670596 30.12 
L -20.030398 30.12 
z
" clip-path="url(#p6ea37ef48f)" style="fill: #8a8a8a; opacity: 0.1; stroke: #8a8a8a; stroke-linejoin: miter"/>
   </g>
   <g id="matplotlib.axis_1">
    <g id="xtick_1">
     <g id="line2d_1">
      <path d="M 70.67 277.36 
L 70.67 30.12 
" clip-path="url(#p6ea37ef48f)" style="fill: none; stroke-dasharray: 0.8,1.32; stroke-dashoffset: 0; stroke: #b0b0b0; stroke-opacity: 0.5; stroke-width: 0.8"/>
     </g>
     <g id="line2d_2">
      <defs>
       <path id="m85d31beec2" d="M 0 0 
L 0 3.5 
" style="stroke: #2e3440; stroke-width: 0.8"/>
      </defs>
      <g>
       <use xlink:href="#m85d31beec2" x="70.67" y="277.36" style="fill: #2e3440; stroke: #2e3440; stroke-width: 0.8"/>
      </g>
     </g>
     <g id="text_1">
      <text style="font-size: 13px; font-family: 'DejaVu Sans', 'Bitstream Vera Sans', 'Computer Modern Sans Serif', 'Lucida Grande', 'Verdana', 'Geneva', 'Lucid', 'Arial', 'Helvetica', 'Avant Garde', sans-serif; text-anchor: middle; fill: #2e3440" x="70.67" y="294.237969" transform="rotate(-0 70.67 294.237969)">1</text>
     </g>
    </g>
    <g id="xtick_2">
     <g id="line2d_3">
      <path d="M 161.370398 277.36 
L 161.370398 30.12 
" clip-path="url(#p6ea37ef48f)" style="fill: none; stroke-dasharray: 0.8,1.32; stroke-dashoffset: 0; stroke: #b0b0b0; stroke-opacity: 0.5; stroke-width: 0.8"/>
     </g>
     <g id="line2d_4">
      <g>
       <use xlink:href="#m85d31beec2" x="161.370398" y="277.36" style="fill: #2e3440; stroke: #2e3440; stroke-width: 0.8"/>
      </g>
     </g>
     <g id="text_2">
      <text style="font-size: 13px; font-family: 'DejaVu Sans', 'Bitstream Vera Sans', 'Computer Modern Sans Serif', 'Lucida Grande', 'Verdana', 'Geneva', 'Lucid', 'Arial', 'Helvetica', 'Avant Garde', sans-serif; text-anchor: middle; fill: #2e3440" x="161.370398" y="294.237969" transform="rotate(-0 161.370398 294.237969)">2</text>
     </g>
    </g>
    <g id="xtick_3">
     <g id="line2d_5">
      <path d="M 281.269801 277.36 
L 281.269801 30.12 
" clip-path="url(#p6ea37ef48f)" style="fill: none; stroke-dasharray: 0.8,1.32; stroke-dashoffset: 0; stroke: #b0b0b0; stroke-opacity: 0.5; stroke-width: 0.8"/>
     </g>
     <g id="line2d_6">
      <g>
       <use xlink:href="#m85d31beec2" x="281.269801" y="277.36" style="fill: #2e3440; stroke: #2e3440; stroke-width: 0.8"/>
      </g>
     </g>
     <g id="text_3">
      <text style="font-size: 13px; font-family: 'DejaVu Sans', 'Bitstream Vera Sans', 'Computer Modern Sans Serif', 'Lucida Grande', 'Verdana', 'Geneva', 'Lucid', 'Arial', 'Helvetica', 'Avant Garde', sans-serif; text-anchor: middle; fill: #2e3440" x="281.269801" y="294.237969" transform="rotate(-0 281.269801 294.237969)">5</text>
     </g>
    </g>
    <g id="xtick_4">
     <g id="line2d_7">
      <path d="M 371.970199 277.36 
L 371.970199 30.12 
" clip-path="url(#p6ea37ef48f)" style="fill: none; stroke-dasharray: 0.8,1.32; stroke-dashoffset: 0; stroke: #b0b0b0; stroke-opacity: 0.5; stroke-width: 0.8"/>
     </g>
     <g id="line2d_8">
      <g>
       <use xlink:href="#m85d31beec2" x="371.970199" y="277.36" style="fill: #2e3440; stroke: #2e3440; stroke-width: 0.8"/>
      </g>
     </g>
     <g id="text_4">
      <text style="font-size: 13px; font-family: 'DejaVu Sans', 'Bitstream Vera Sans', 'Computer Modern Sans Serif', 'Lucida Grande', 'Verdana', 'Geneva', 'Lucid', 'Arial', 'Helvetica', 'Avant Garde', sans-serif; text-anchor: middle; fill: #2e3440" x="371.970199" y="294.237969" transform="rotate(-0 371.970199 294.237969)">10</text>
     </g>
    </g>
    <g id="xtick_5">
     <g id="line2d_9">
      <path d="M 462.670596 277.36 
L 462.670596 30.12 
" clip-path="url(#p6ea37ef48f)" style="fill: none; stroke-dasharray: 0.8,1.32; stroke-dashoffset: 0; stroke: #b0b0b0; stroke-opacity: 0.5; stroke-width: 0.8"/>
     </g>
     <g id="line2d_10">
      <g>
       <use xlink:href="#m85d31beec2" x="462.670596" y="277.36" style="fill: #2e3440; stroke: #2e3440; stroke-width: 0.8"/>
      </g>
     </g>
     <g id="text_5">
      <text style="font-size: 13px; font-family: 'DejaVu Sans', 'Bitstream Vera Sans', 'Computer Modern Sans Serif', 'Lucida Grande', 'Verdana', 'Geneva', 'Lucid', 'Arial', 'Helvetica', 'Avant Garde', sans-serif; text-anchor: middle; fill: #2e3440" x="462.670596" y="294.237969" transform="rotate(-0 462.670596 294.237969)">20</text>
     </g>
    </g>
    <g id="xtick_6">
     <g id="line2d_11">
      <path d="M 582.57 277.36 
L 582.57 30.12 
" clip-path="url(#p6ea37ef48f)" style="fill: none; stroke-dasharray: 0.8,1.32; stroke-dashoffset: 0; stroke: #b0b0b0; stroke-opacity: 0.5; stroke-width: 0.8"/>
     </g>
     <g id="line2d_12">
      <g>
       <use xlink:href="#m85d31beec2" x="582.57" y="277.36" style="fill: #2e3440; stroke: #2e3440; stroke-width: 0.8"/>
      </g>
     </g>
     <g id="text_6">
      <text style="font-size: 13px; font-family: 'DejaVu Sans', 'Bitstream Vera Sans', 'Computer Modern Sans Serif', 'Lucida Grande', 'Verdana', 'Geneva', 'Lucid', 'Arial', 'Helvetica', 'Avant Garde', sans-serif; text-anchor: middle; fill: #2e3440" x="582.57" y="294.237969" transform="rotate(-0 582.57 294.237969)">50</text>
     </g>
    </g>
    <g id="xtick_7">
     <g id="line2d_13">
      <path d="M 214.426729 277.36 
L 214.426729 30.12 
" clip-path="url(#p6ea37ef48f)" style="fill: none; stroke-dasharray: 0.8,1.32; stroke-dashoffset: 0; stroke: #b0b0b0; stroke-opacity: 0.5; stroke-width: 0.8"/>
     </g>
     <g id="line2d_14">
      <defs>
       <path id="ma11c84df48" d="M 0 0 
L 0 2 
" style="stroke: #2e3440; stroke-width: 0.6"/>
      </defs>
      <g>
       <use xlink:href="#ma11c84df48" x="214.426729" y="277.36" style="fill: #2e3440; stroke: #2e3440; stroke-width: 0.6"/>
      </g>
     </g>
    </g>
    <g id="xtick_8">
     <g id="line2d_15">
      <path d="M 252.070795 277.36 
L 252.070795 30.12 
" clip-path="url(#p6ea37ef48f)" style="fill: none; stroke-dasharray: 0.8,1.32; stroke-dashoffset: 0; stroke: #b0b0b0; stroke-opacity: 0.5; stroke-width: 0.8"/>
     </g>
     <g id="line2d_16">
      <g>
       <use xlink:href="#ma11c84df48" x="252.070795" y="277.36" style="fill: #2e3440; stroke: #2e3440; stroke-width: 0.6"/>
      </g>
     </g>
    </g>
    <g id="xtick_9">
     <g id="line2d_17">
      <path d="M 305.127126 277.36 
L 305.127126 30.12 
" clip-path="url(#p6ea37ef48f)" style="fill: none; stroke-dasharray: 0.8,1.32; stroke-dashoffset: 0; stroke: #b0b0b0; stroke-opacity: 0.5; stroke-width: 0.8"/>
     </g>
     <g id="line2d_18">
      <g>
       <use xlink:href="#ma11c84df48" x="305.127126" y="277.36" style="fill: #2e3440; stroke: #2e3440; stroke-width: 0.6"/>
      </g>
     </g>
    </g>
    <g id="xtick_10">
     <g id="line2d_19">
      <path d="M 325.298207 277.36 
L 325.298207 30.12 
" clip-path="url(#p6ea37ef48f)" style="fill: none; stroke-dasharray: 0.8,1.32; stroke-dashoffset: 0; stroke: #b0b0b0; stroke-opacity: 0.5; stroke-width: 0.8"/>
     </g>
     <g id="line2d_20">
      <g>
       <use xlink:href="#ma11c84df48" x="325.298207" y="277.36" style="fill: #2e3440; stroke: #2e3440; stroke-width: 0.6"/>
      </g>
     </g>
    </g>
    <g id="xtick_11">
     <g id="line2d_21">
      <path d="M 342.771193 277.36 
L 342.771193 30.12 
" clip-path="url(#p6ea37ef48f)" style="fill: none; stroke-dasharray: 0.8,1.32; stroke-dashoffset: 0; stroke: #b0b0b0; stroke-opacity: 0.5; stroke-width: 0.8"/>
     </g>
     <g id="line2d_22">
      <g>
       <use xlink:href="#ma11c84df48" x="342.771193" y="277.36" style="fill: #2e3440; stroke: #2e3440; stroke-width: 0.6"/>
      </g>
     </g>
    </g>
    <g id="xtick_12">
     <g id="line2d_23">
      <path d="M 358.183458 277.36 
L 358.183458 30.12 
" clip-path="url(#p6ea37ef48f)" style="fill: none; stroke-dasharray: 0.8,1.32; stroke-dashoffset: 0; stroke: #b0b0b0; stroke-opacity: 0.5; stroke-width: 0.8"/>
     </g>
     <g id="line2d_24">
      <g>
       <use xlink:href="#ma11c84df48" x="358.183458" y="277.36" style="fill: #2e3440; stroke: #2e3440; stroke-width: 0.6"/>
      </g>
     </g>
    </g>
    <g id="xtick_13">
     <g id="line2d_25">
      <path d="M 515.726928 277.36 
L 515.726928 30.12 
" clip-path="url(#p6ea37ef48f)" style="fill: none; stroke-dasharray: 0.8,1.32; stroke-dashoffset: 0; stroke: #b0b0b0; stroke-opacity: 0.5; stroke-width: 0.8"/>
     </g>
     <g id="line2d_26">
      <g>
       <use xlink:href="#ma11c84df48" x="515.726928" y="277.36" style="fill: #2e3440; stroke: #2e3440; stroke-width: 0.6"/>
      </g>
     </g>
    </g>
    <g id="xtick_14">
     <g id="line2d_27">
      <path d="M 553.370994 277.36 
L 553.370994 30.12 
" clip-path="url(#p6ea37ef48f)" style="fill: none; stroke-dasharray: 0.8,1.32; stroke-dashoffset: 0; stroke: #b0b0b0; stroke-opacity: 0.5; stroke-width: 0.8"/>
     </g>
     <g id="line2d_28">
      <g>
       <use xlink:href="#ma11c84df48" x="553.370994" y="277.36" style="fill: #2e3440; stroke: #2e3440; stroke-width: 0.6"/>
      </g>
     </g>
    </g>
    <g id="text_7">
     <!-- number of samples  $N$ -->
     <g style="fill: #2e3440" transform="translate(254.795 310.821562)">
      <text>
       <tspan x="0" y="-0.125" style="font-size: 13px; font-family: 'DejaVu Sans'; fill: #2e3440">n</tspan>
       <tspan x="8.239258" y="-0.125" style="font-size: 13px; font-family: 'DejaVu Sans'; fill: #2e3440">u</tspan>
       <tspan x="16.478516" y="-0.125" style="font-size: 13px; font-family: 'DejaVu Sans'; fill: #2e3440">m</tspan>
       <tspan x="29.14209" y="-0.125" style="font-size: 13px; font-family: 'DejaVu Sans'; fill: #2e3440">b</tspan>
       <tspan x="37.394043" y="-0.125" style="font-size: 13px; font-family: 'DejaVu Sans'; fill: #2e3440">e</tspan>
       <tspan x="45.39209" y="-0.125" style="font-size: 13px; font-family: 'DejaVu Sans'; fill: #2e3440">r</tspan>
       <tspan x="50.736816" y="-0.125" style="font-size: 13px; font-family: 'DejaVu Sans'; fill: #2e3440"> </tspan>
       <tspan x="54.869141" y="-0.125" style="font-size: 13px; font-family: 'DejaVu Sans'; fill: #2e3440">o</tspan>
       <tspan x="62.822754" y="-0.125" style="font-size: 13px; font-family: 'DejaVu Sans'; fill: #2e3440">f</tspan>
       <tspan x="67.399414" y="-0.125" style="font-size: 13px; font-family: 'DejaVu Sans'; fill: #2e3440"> </tspan>
       <tspan x="71.531738" y="-0.125" style="font-size: 13px; font-family: 'DejaVu Sans'; fill: #2e3440">s</tspan>
       <tspan x="78.304688" y="-0.125" style="font-size: 13px; font-family: 'DejaVu Sans'; fill: #2e3440">a</tspan>
       <tspan x="86.270996" y="-0.125" style="font-size: 13px; font-family: 'DejaVu Sans'; fill: #2e3440">m</tspan>
       <tspan x="98.93457" y="-0.125" style="font-size: 13px; font-family: 'DejaVu Sans'; fill: #2e3440">p</tspan>
       <tspan x="107.186523" y="-0.125" style="font-size: 13px; font-family: 'DejaVu Sans'; fill: #2e3440">l</tspan>
       <tspan x="110.79834" y="-0.125" style="font-size: 13px; font-family: 'DejaVu Sans'; fill: #2e3440">e</tspan>
       <tspan x="118.796387" y="-0.125" style="font-size: 13px; font-family: 'DejaVu Sans'; fill: #2e3440">s</tspan>
       <tspan x="125.569336" y="-0.125" style="font-size: 13px; font-family: 'DejaVu Sans'; fill: #2e3440"> </tspan>
       <tspan x="129.70166" y="-0.125" style="font-size: 13px; font-family: 'DejaVu Sans'; fill: #2e3440"> </tspan>
       <tspan x="133.833984" y="-0.125" style="font-style: oblique; font-size: 13px; font-family: 'DejaVu Sans'; fill: #2e3440">N</tspan>
      </text>
     </g>
    </g>
   </g>
   <g id="matplotlib.axis_2">
    <g id="ytick_1">
     <g id="line2d_29">
      <path d="M 70.67 266.49705 
L 582.57 266.49705 
" clip-path="url(#p6ea37ef48f)" style="fill: none; stroke-dasharray: 0.8,1.32; stroke-dashoffset: 0; stroke: #b0b0b0; stroke-opacity: 0.5; stroke-width: 0.8"/>
     </g>
     <g id="line2d_30">
      <defs>
       <path id="m9ea276d403" d="M 0 0 
L -3.5 0 
" style="stroke: #2e3440; stroke-width: 0.8"/>
      </defs>
      <g>
       <use xlink:href="#m9ea276d403" x="70.67" y="266.49705" style="fill: #2e3440; stroke: #2e3440; stroke-width: 0.8"/>
      </g>
     </g>
     <g id="text_8">
      <text style="font-size: 13px; font-family: 'DejaVu Sans', 'Bitstream Vera Sans', 'Computer Modern Sans Serif', 'Lucida Grande', 'Verdana', 'Geneva', 'Lucid', 'Arial', 'Helvetica', 'Avant Garde', sans-serif; text-anchor: end; fill: #2e3440" x="63.67" y="271.436034" transform="rotate(-0 63.67 271.436034)">800</text>
     </g>
    </g>
    <g id="ytick_2">
     <g id="line2d_31">
      <path d="M 70.67 228.973905 
L 582.57 228.973905 
" clip-path="url(#p6ea37ef48f)" style="fill: none; stroke-dasharray: 0.8,1.32; stroke-dashoffset: 0; stroke: #b0b0b0; stroke-opacity: 0.5; stroke-width: 0.8"/>
     </g>
     <g id="line2d_32">
      <g>
       <use xlink:href="#m9ea276d403" x="70.67" y="228.973905" style="fill: #2e3440; stroke: #2e3440; stroke-width: 0.8"/>
      </g>
     </g>
     <g id="text_9">
      <text style="font-size: 13px; font-family: 'DejaVu Sans', 'Bitstream Vera Sans', 'Computer Modern Sans Serif', 'Lucida Grande', 'Verdana', 'Geneva', 'Lucid', 'Arial', 'Helvetica', 'Avant Garde', sans-serif; text-anchor: end; fill: #2e3440" x="63.67" y="233.912889" transform="rotate(-0 63.67 233.912889)">1000</text>
     </g>
    </g>
    <g id="ytick_3">
     <g id="line2d_33">
      <path d="M 70.67 191.45076 
L 582.57 191.45076 
" clip-path="url(#p6ea37ef48f)" style="fill: none; stroke-dasharray: 0.8,1.32; stroke-dashoffset: 0; stroke: #b0b0b0; stroke-opacity: 0.5; stroke-width: 0.8"/>
     </g>
     <g id="line2d_34">
      <g>
       <use xlink:href="#m9ea276d403" x="70.67" y="191.45076" style="fill: #2e3440; stroke: #2e3440; stroke-width: 0.8"/>
      </g>
     </g>
     <g id="text_10">
      <text style="font-size: 13px; font-family: 'DejaVu Sans', 'Bitstream Vera Sans', 'Computer Modern Sans Serif', 'Lucida Grande', 'Verdana', 'Geneva', 'Lucid', 'Arial', 'Helvetica', 'Avant Garde', sans-serif; text-anchor: end; fill: #2e3440" x="63.67" y="196.389745" transform="rotate(-0 63.67 196.389745)">1200</text>
     </g>
    </g>
    <g id="ytick_4">
     <g id="line2d_35">
      <path d="M 70.67 153.927616 
L 582.57 153.927616 
" clip-path="url(#p6ea37ef48f)" style="fill: none; stroke-dasharray: 0.8,1.32; stroke-dashoffset: 0; stroke: #b0b0b0; stroke-opacity: 0.5; stroke-width: 0.8"/>
     </g>
     <g id="line2d_36">
      <g>
       <use xlink:href="#m9ea276d403" x="70.67" y="153.927616" style="fill: #2e3440; stroke: #2e3440; stroke-width: 0.8"/>
      </g>
     </g>
     <g id="text_11">
      <text style="font-size: 13px; font-family: 'DejaVu Sans', 'Bitstream Vera Sans', 'Computer Modern Sans Serif', 'Lucida Grande', 'Verdana', 'Geneva', 'Lucid', 'Arial', 'Helvetica', 'Avant Garde', sans-serif; text-anchor: end; fill: #2e3440" x="63.67" y="158.8666" transform="rotate(-0 63.67 158.8666)">1400</text>
     </g>
    </g>
    <g id="ytick_5">
     <g id="line2d_37">
      <path d="M 70.67 116.404471 
L 582.57 116.404471 
" clip-path="url(#p6ea37ef48f)" style="fill: none; stroke-dasharray: 0.8,1.32; stroke-dashoffset: 0; stroke: #b0b0b0; stroke-opacity: 0.5; stroke-width: 0.8"/>
     </g>
     <g id="line2d_38">
      <g>
       <use xlink:href="#m9ea276d403" x="70.67" y="116.404471" style="fill: #2e3440; stroke: #2e3440; stroke-width: 0.8"/>
      </g>
     </g>
     <g id="text_12">
      <text style="font-size: 13px; font-family: 'DejaVu Sans', 'Bitstream Vera Sans', 'Computer Modern Sans Serif', 'Lucida Grande', 'Verdana', 'Geneva', 'Lucid', 'Arial', 'Helvetica', 'Avant Garde', sans-serif; text-anchor: end; fill: #2e3440" x="63.67" y="121.343455" transform="rotate(-0 63.67 121.343455)">1600</text>
     </g>
    </g>
    <g id="ytick_6">
     <g id="line2d_39">
      <path d="M 70.67 78.881326 
L 582.57 78.881326 
" clip-path="url(#p6ea37ef48f)" style="fill: none; stroke-dasharray: 0.8,1.32; stroke-dashoffset: 0; stroke: #b0b0b0; stroke-opacity: 0.5; stroke-width: 0.8"/>
     </g>
     <g id="line2d_40">
      <g>
       <use xlink:href="#m9ea276d403" x="70.67" y="78.881326" style="fill: #2e3440; stroke: #2e3440; stroke-width: 0.8"/>
      </g>
     </g>
     <g id="text_13">
      <text style="font-size: 13px; font-family: 'DejaVu Sans', 'Bitstream Vera Sans', 'Computer Modern Sans Serif', 'Lucida Grande', 'Verdana', 'Geneva', 'Lucid', 'Arial', 'Helvetica', 'Avant Garde', sans-serif; text-anchor: end; fill: #2e3440" x="63.67" y="83.820311" transform="rotate(-0 63.67 83.820311)">1800</text>
     </g>
    </g>
    <g id="ytick_7">
     <g id="line2d_41">
      <path d="M 70.67 41.358182 
L 582.57 41.358182 
" clip-path="url(#p6ea37ef48f)" style="fill: none; stroke-dasharray: 0.8,1.32; stroke-dashoffset: 0; stroke: #b0b0b0; stroke-opacity: 0.5; stroke-width: 0.8"/>
     </g>
     <g id="line2d_42">
      <g>
       <use xlink:href="#m9ea276d403" x="70.67" y="41.358182" style="fill: #2e3440; stroke: #2e3440; stroke-width: 0.8"/>
      </g>
     </g>
     <g id="text_14">
      <text style="font-size: 13px; font-family: 'DejaVu Sans', 'Bitstream Vera Sans', 'Computer Modern Sans Serif', 'Lucida Grande', 'Verdana', 'Geneva', 'Lucid', 'Arial', 'Helvetica', 'Avant Garde', sans-serif; text-anchor: end; fill: #2e3440" x="63.67" y="46.297166" transform="rotate(-0 63.67 46.297166)">2000</text>
     </g>
    </g>
    <g id="text_15">
     <text style="font-size: 13px; font-family: 'DejaVu Sans', 'Bitstream Vera Sans', 'Computer Modern Sans Serif', 'Lucida Grande', 'Verdana', 'Geneva', 'Lucid', 'Arial', 'Helvetica', 'Avant Garde', sans-serif; text-anchor: middle; fill: #2e3440" x="23.881406" y="153.74" transform="rotate(-90 23.881406 153.74)">cutting-plane iterations</text>
    </g>
   </g>
   <g id="line2d_43">
    <path d="M 70.67 196.328769 
L 161.370398 205.709555 
L 214.426729 246.609783 
L 252.070795 248.673556 
L 281.269801 241.356543 
L 305.127126 246.985014 
L 325.298207 232.726219 
L 342.771193 244.921241 
L 358.183458 249.048787 
L 371.970199 259.180036 
L 384.441823 250.737329 
L 395.827524 250.362097 
L 406.301353 250.362097 
L 415.998605 252.238255 
L 425.02653 252.238255 
L 433.47159 246.234552 
L 441.404505 246.234552 
L 448.883855 238.167075 
L 455.958714 241.544158 
L 462.670596 243.045084 
L 469.054936 248.298324 
L 475.142221 255.052491 
L 480.958868 254.677259 
L 486.527921 251.487792 
L 491.869602 252.050639 
L 497.001751 253.73918 
L 501.940187 253.176333 
L 506.699002 250.924945 
L 511.290807 252.613486 
L 515.726928 249.048787 
L 520.017575 248.48594 
L 524.171988 251.675407 
L 528.198552 250.737329 
L 532.104902 239.668001 
L 535.898009 236.66615 
L 539.584253 245.296473 
L 543.169491 245.85932 
L 546.659112 247.923093 
L 550.058082 240.60608 
L 553.370994 240.418464 
L 556.602097 241.544158 
L 559.755334 239.668001 
L 562.83437 246.985014 
L 565.842618 247.360246 
L 568.783259 246.609783 
L 571.659265 250.924945 
L 574.473417 245.671704 
L 577.228319 242.857469 
L 579.926415 243.795547 
L 582.57 249.986866 
" clip-path="url(#p6ea37ef48f)" style="fill: none; stroke: #bf616a; stroke-width: 2; stroke-linecap: square"/>
   </g>
   <g id="line2d_44">
    <path d="M 70.67 90.13827 
L 161.370398 98.205746 
L 214.426729 111.151231 
L 252.070795 145.109677 
L 281.269801 121.845327 
L 305.127126 163.308402 
L 325.298207 111.901694 
L 342.771193 142.483057 
L 358.183458 148.861991 
L 371.970199 148.674375 
L 384.441823 152.239074 
L 395.827524 158.618009 
L 406.301353 145.86014 
L 415.998605 156.36662 
L 425.02653 152.989537 
L 433.47159 135.916506 
L 441.404505 151.488611 
L 448.883855 120.344401 
L 455.958714 134.790812 
L 462.670596 93.890584 
L 469.054936 122.971021 
L 475.142221 139.856436 
L 480.958868 140.044052 
L 486.527921 134.603196 
L 491.869602 133.10227 
L 497.001751 147.17345 
L 501.940187 130.850882 
L 506.699002 133.477502 
L 511.290807 141.732594 
L 515.726928 139.481205 
L 520.017575 149.80007 
L 524.171988 158.430393 
L 528.198552 139.293589 
L 532.104902 110.213152 
L 535.898009 122.220559 
L 539.584253 124.471947 
L 543.169491 143.983982 
L 546.659112 129.725187 
L 550.058082 115.654008 
L 553.370994 126.348104 
L 556.602097 151.676227 
L 559.755334 129.912803 
L 562.83437 141.169747 
L 565.842618 92.952506 
L 568.783259 99.33144 
L 571.659265 95.016279 
L 574.473417 121.470096 
L 577.228319 128.599493 
L 579.926415 117.154934 
L 582.57 143.23352 
" clip-path="url(#p6ea37ef48f)" style="fill: none; stroke-dasharray: 7.4,3.2; stroke-dashoffset: 0; stroke: #d08770; stroke-width: 2"/>
   </g>
   <g id="line2d_45">
    <path d="M 70.67 238.167075 
L 161.370398 239.105154 
L 214.426729 256.741032 
L 252.070795 262.932351 
L 281.269801 249.986866 
L 305.127126 259.180036 
L 325.298207 260.118115 
L 342.771193 262.557119 
L 358.183458 264.058045 
L 371.970199 261.056194 
L 384.441823 238.729923 
L 395.827524 234.602377 
L 406.301353 240.418464 
L 415.998605 239.855617 
L 425.02653 245.85932 
L 433.47159 265.371355 
L 441.404505 259.742884 
L 448.883855 262.932351 
L 455.958714 259.742884 
L 462.670596 262.932351 
L 469.054936 259.367652 
L 475.142221 261.994272 
L 480.958868 261.243809 
L 486.527921 260.868578 
L 491.869602 262.181888 
L 497.001751 257.116263 
L 501.940187 259.555268 
L 506.699002 258.992421 
L 511.290807 261.619041 
L 515.726928 260.868578 
L 520.017575 261.056194 
L 524.171988 258.992421 
L 528.198552 258.429574 
L 532.104902 251.11256 
L 535.898009 243.2327 
L 539.584253 251.675407 
L 543.169491 255.990569 
L 546.659112 266.121818 
L 550.058082 247.17263 
L 553.370994 249.79925 
L 556.602097 265.371355 
L 559.755334 251.675407 
L 562.83437 252.988718 
L 565.842618 253.73918 
L 568.783259 256.553416 
L 571.659265 264.808508 
L 574.473417 251.863023 
L 577.228319 252.238255 
L 579.926415 253.926796 
L 582.57 258.241958 
" clip-path="url(#p6ea37ef48f)" style="fill: none; stroke: #a3be8c; stroke-width: 2; stroke-linecap: square"/>
   </g>
   <g id="line2d_46">
    <path d="M 70.67 41.358182 
L 161.370398 41.358182 
L 214.426729 103.458986 
L 252.070795 135.166043 
L 281.269801 131.226113 
L 305.127126 142.670672 
L 325.298207 92.952506 
L 342.771193 122.59579 
L 358.183458 150.738148 
L 371.970199 108.899842 
L 384.441823 113.965467 
L 395.827524 92.014427 
L 406.301353 115.278777 
L 415.998605 113.215004 
L 425.02653 119.96917 
L 433.47159 111.901694 
L 441.404505 118.093013 
L 448.883855 125.034794 
L 455.958714 117.530165 
L 462.670596 131.601345 
L 469.054936 105.897991 
L 475.142221 113.40262 
L 480.958868 133.289886 
L 486.527921 140.794515 
L 491.869602 105.710375 
L 497.001751 108.149379 
L 501.940187 111.526462 
L 506.699002 110.775999 
L 511.290807 150.550533 
L 515.726928 145.484908 
L 520.017575 146.422987 
L 524.171988 150.738148 
L 528.198552 138.355511 
L 532.104902 125.785257 
L 535.898009 122.220559 
L 539.584253 123.346253 
L 543.169491 139.481205 
L 546.659112 144.359214 
L 550.058082 120.156786 
L 553.370994 141.544978 
L 556.602097 144.359214 
L 559.755334 146.422987 
L 562.83437 139.856436 
L 565.842618 97.455283 
L 568.783259 97.642899 
L 571.659265 153.552384 
L 574.473417 129.537572 
L 577.228319 143.421135 
L 579.926415 132.351808 
L 582.57 146.047755 
" clip-path="url(#p6ea37ef48f)" style="fill: none; stroke-dasharray: 7.4,3.2; stroke-dashoffset: 0; stroke: #b48ead; stroke-width: 2"/>
   </g>
   <g id="patch_4">
    <path d="M 70.67 277.36 
L 70.67 30.12 
" style="fill: none; stroke: #2e3440; stroke-width: 0.8; stroke-linejoin: miter; stroke-linecap: square"/>
   </g>
   <g id="patch_5">
    <path d="M 582.57 277.36 
L 582.57 30.12 
" style="fill: none; stroke: #2e3440; stroke-width: 0.8; stroke-linejoin: miter; stroke-linecap: square"/>
   </g>
   <g id="patch_6">
    <path d="M 70.67 277.36 
L 582.57 277.36 
" style="fill: none; stroke: #2e3440; stroke-width: 0.8; stroke-linejoin: miter; stroke-linecap: square"/>
   </g>
   <g id="patch_7">
    <path d="M 70.67 30.12 
L 582.57 30.12 
" style="fill: none; stroke: #2e3440; stroke-width: 0.8; stroke-linejoin: miter; stroke-linecap: square"/>
   </g>
   <g id="text_16">
    <text style="font-size: 12px; font-family: 'DejaVu Sans', 'Bitstream Vera Sans', 'Computer Modern Sans Serif', 'Lucida Grande', 'Verdana', 'Geneva', 'Lucid', 'Arial', 'Helvetica', 'Avant Garde', sans-serif; text-anchor: middle; fill: #2e3440" x="326.62" y="24.12" transform="rotate(-0 326.62 24.12)">Solver iterations vs sample size</text>
   </g>
   <g id="legend_1">
    <g id="patch_8">
     <path d="M 452.57 96.92 
L 575.57 96.92 
Q 577.57 96.92 577.57 94.92 
L 577.57 37.12 
Q 577.57 35.12 575.57 35.12 
L 452.57 35.12 
Q 450.57 35.12 450.57 37.12 
L 450.57 94.92 
Q 450.57 96.92 452.57 96.92 
z
" style="fill: #ffffff; opacity: 0.8; stroke: #cccccc; stroke-linejoin: miter"/>
    </g>
    <g id="line2d_47">
     <path d="M 454.57 43.22 
L 464.57 43.22 
L 474.57 43.22 
" style="fill: none; stroke: #bf616a; stroke-width: 2; stroke-linecap: square"/>
    </g>
    <g id="text_17">
     <!-- poly $m{=}4$ -->
     <g style="fill: #2e3440" transform="translate(482.57 46.72)">
      <text>
       <tspan x="0" y="-0.40625" style="font-size: 10px; font-family: 'DejaVu Sans'; fill: #2e3440">p</tspan>
       <tspan x="6.347656" y="-0.40625" style="font-size: 10px; font-family: 'DejaVu Sans'; fill: #2e3440">o</tspan>
       <tspan x="12.46582" y="-0.40625" style="font-size: 10px; font-family: 'DejaVu Sans'; fill: #2e3440">l</tspan>
       <tspan x="15.244141" y="-0.40625" style="font-size: 10px; font-family: 'DejaVu Sans'; fill: #2e3440">y</tspan>
       <tspan x="21.162109" y="-0.40625" style="font-size: 10px; font-family: 'DejaVu Sans'; fill: #2e3440"> </tspan>
       <tspan x="36.030273" y="-0.40625" style="font-size: 10px; font-family: 'DejaVu Sans'; fill: #2e3440">=</tspan>
       <tspan x="46.357422" y="-0.40625" style="font-size: 10px; font-family: 'DejaVu Sans'; fill: #2e3440">4</tspan>
       <tspan x="24.34082" y="-0.40625" style="font-style: oblique; font-size: 10px; font-family: 'DejaVu Sans'; fill: #2e3440">m</tspan>
      </text>
     </g>
    </g>
    <g id="line2d_48">
     <path d="M 454.57 57.92 
L 464.57 57.92 
L 474.57 57.92 
" style="fill: none; stroke-dasharray: 7.4,3.2; stroke-dashoffset: 0; stroke: #d08770; stroke-width: 2"/>
    </g>
    <g id="text_18">
     <!-- poly $m{=}6$ -->
     <g style="fill: #2e3440" transform="translate(482.57 61.42)">
      <text>
       <tspan x="0" y="-0.40625" style="font-size: 10px; font-family: 'DejaVu Sans'; fill: #2e3440">p</tspan>
       <tspan x="6.347656" y="-0.40625" style="font-size: 10px; font-family: 'DejaVu Sans'; fill: #2e3440">o</tspan>
       <tspan x="12.46582" y="-0.40625" style="font-size: 10px; font-family: 'DejaVu Sans'; fill: #2e3440">l</tspan>
       <tspan x="15.244141" y="-0.40625" style="font-size: 10px; font-family: 'DejaVu Sans'; fill: #2e3440">y</tspan>
       <tspan x="21.162109" y="-0.40625" style="font-size: 10px; font-family: 'DejaVu Sans'; fill: #2e3440"> </tspan>
       <tspan x="36.030273" y="-0.40625" style="font-size: 10px; font-family: 'DejaVu Sans'; fill: #2e3440">=</tspan>
       <tspan x="46.357422" y="-0.40625" style="font-size: 10px; font-family: 'DejaVu Sans'; fill: #2e3440">6</tspan>
       <tspan x="24.34082" y="-0.40625" style="font-style: oblique; font-size: 10px; font-family: 'DejaVu Sans'; fill: #2e3440">m</tspan>
      </text>
     </g>
    </g>
    <g id="line2d_49">
     <path d="M 454.57 72.62 
L 464.57 72.62 
L 474.57 72.62 
" style="fill: none; stroke: #a3be8c; stroke-width: 2; stroke-linecap: square"/>
    </g>
    <g id="text_19">
     <!-- BS clamped $m{=}4$ -->
     <g style="fill: #2e3440" transform="translate(482.57 76.12)">
      <text>
       <tspan x="0" y="-0.40625" style="font-size: 10px; font-family: 'DejaVu Sans'; fill: #2e3440">B</tspan>
       <tspan x="6.860352" y="-0.40625" style="font-size: 10px; font-family: 'DejaVu Sans'; fill: #2e3440">S</tspan>
       <tspan x="13.208008" y="-0.40625" style="font-size: 10px; font-family: 'DejaVu Sans'; fill: #2e3440"> </tspan>
       <tspan x="16.386719" y="-0.40625" style="font-size: 10px; font-family: 'DejaVu Sans'; fill: #2e3440">c</tspan>
       <tspan x="21.884766" y="-0.40625" style="font-size: 10px; font-family: 'DejaVu Sans'; fill: #2e3440">l</tspan>
       <tspan x="24.663086" y="-0.40625" style="font-size: 10px; font-family: 'DejaVu Sans'; fill: #2e3440">a</tspan>
       <tspan x="30.791016" y="-0.40625" style="font-size: 10px; font-family: 'DejaVu Sans'; fill: #2e3440">m</tspan>
       <tspan x="40.532227" y="-0.40625" style="font-size: 10px; font-family: 'DejaVu Sans'; fill: #2e3440">p</tspan>
       <tspan x="46.879883" y="-0.40625" style="font-size: 10px; font-family: 'DejaVu Sans'; fill: #2e3440">e</tspan>
       <tspan x="53.032227" y="-0.40625" style="font-size: 10px; font-family: 'DejaVu Sans'; fill: #2e3440">d</tspan>
       <tspan x="59.379883" y="-0.40625" style="font-size: 10px; font-family: 'DejaVu Sans'; fill: #2e3440"> </tspan>
       <tspan x="74.248047" y="-0.40625" style="font-size: 10px; font-family: 'DejaVu Sans'; fill: #2e3440">=</tspan>
       <tspan x="84.575195" y="-0.40625" style="font-size: 10px; font-family: 'DejaVu Sans'; fill: #2e3440">4</tspan>
       <tspan x="62.558594" y="-0.40625" style="font-style: oblique; font-size: 10px; font-family: 'DejaVu Sans'; fill: #2e3440">m</tspan>
      </text>
     </g>
    </g>
    <g id="line2d_50">
     <path d="M 454.57 87.32 
L 464.57 87.32 
L 474.57 87.32 
" style="fill: none; stroke-dasharray: 7.4,3.2; stroke-dashoffset: 0; stroke: #b48ead; stroke-width: 2"/>
    </g>
    <g id="text_20">
     <!-- BS clamped $m{=}6$ -->
     <g style="fill: #2e3440" transform="translate(482.57 90.82)">
      <text>
       <tspan x="0" y="-0.40625" style="font-size: 10px; font-family: 'DejaVu Sans'; fill: #2e3440">B</tspan>
       <tspan x="6.860352" y="-0.40625" style="font-size: 10px; font-family: 'DejaVu Sans'; fill: #2e3440">S</tspan>
       <tspan x="13.208008" y="-0.40625" style="font-size: 10px; font-family: 'DejaVu Sans'; fill: #2e3440"> </tspan>
       <tspan x="16.386719" y="-0.40625" style="font-size: 10px; font-family: 'DejaVu Sans'; fill: #2e3440">c</tspan>
       <tspan x="21.884766" y="-0.40625" style="font-size: 10px; font-family: 'DejaVu Sans'; fill: #2e3440">l</tspan>
       <tspan x="24.663086" y="-0.40625" style="font-size: 10px; font-family: 'DejaVu Sans'; fill: #2e3440">a</tspan>
       <tspan x="30.791016" y="-0.40625" style="font-size: 10px; font-family: 'DejaVu Sans'; fill: #2e3440">m</tspan>
       <tspan x="40.532227" y="-0.40625" style="font-size: 10px; font-family: 'DejaVu Sans'; fill: #2e3440">p</tspan>
       <tspan x="46.879883" y="-0.40625" style="font-size: 10px; font-family: 'DejaVu Sans'; fill: #2e3440">e</tspan>
       <tspan x="53.032227" y="-0.40625" style="font-size: 10px; font-family: 'DejaVu Sans'; fill: #2e3440">d</tspan>
       <tspan x="59.379883" y="-0.40625" style="font-size: 10px; font-family: 'DejaVu Sans'; fill: #2e3440"> </tspan>
       <tspan x="74.248047" y="-0.40625" style="font-size: 10px; font-family: 'DejaVu Sans'; fill: #2e3440">=</tspan>
       <tspan x="84.575195" y="-0.40625" style="font-size: 10px; font-family: 'DejaVu Sans'; fill: #2e3440">6</tspan>
       <tspan x="62.558594" y="-0.40625" style="font-style: oblique; font-size: 10px; font-family: 'DejaVu Sans'; fill: #2e3440">m</tspan>
      </text>
     </g>
    </g>
   </g>
  </g>
 </g>
 <defs>
  <clipPath id="p6ea37ef48f">
   <rect x="70.67" y="30.12" width="511.9" height="247.24"/>
  </clipPath>
 </defs>
</svg>
