<?xml version="1.0" encoding="iso-8859-1" standalone="no"?> 
<?xml-stylesheet href="TE_export636284943200736979.css" type="text/css"?> 
<svg xmlns="http://www.w3.org/2000/svg" xmlns:xlink="http://www.w3.org/1999/xlink" width="388pt" height="200pt" viewBox="-84.39244 -93.05786 193.78502 100.75748 "> 
<g transform="translate(0, 7.69962 ) scale(1,-1) translate(0,93.05786 )"> 
                         <g> 
 <g stroke="rgb(0.0%,0.0%,0.0%)"> 
 <g fill="rgb(0.0%,0.0%,0.0%)"> 
 <g stroke-width="0.4pt"> 
 <g> 
 <g> 
 <g> 
 <clipPath id="pgfcp1"> <path d=" M  7.07953 7.49962 L  -7.07953 7.49962 C  -9.2887 7.49962 -11.07953 5.70879 -11.07953 3.49962 L  -11.07953 -3.49962 C  -11.07953 -5.70879 -9.2887 -7.49962 -7.07953 -7.49962 L  7.07953 -7.49962 C  9.2887 -7.49962 11.07953 -5.70879 11.07953 -3.49962 L  11.07953 3.49962 C  11.07953 5.70879 9.2887 7.49962 7.07953 7.49962 Z M  -11.07953 -7.49962  "/> 
</clipPath> 
 <g clip-path="url(#pgfcp1)"> 
 <g transform="matrix(1,0,0,1,0.0,0.0)"> 
 <g transform="matrix(0.44157,0,0,0.2989,0.0,0.0)"> 
 <g transform="matrix(1.0,0.0,0.0,1.0,0.0,0.0)"> 
  <linearGradient id="pgfsh2" gradientTransform="rotate(90)"> 
 <stop offset=" 0.0" stop-color=" rgb(80.0003%,80.0003%,100.0%) "/> 
 <stop offset=" 0.25" stop-color=" rgb(80.0003%,80.0003%,100.0%) "/> 
 <stop offset=" 0.5" stop-color=" rgb(90.00092%,90.00092%,100.0%) "/> 
 <stop offset=" 0.75" stop-color=" rgb(100.0%,100.0%,100.0%) "/> 
 <stop offset=" 1.0" stop-color=" rgb(100.0%,100.0%,100.0%) "/> 
 </linearGradient> 
 <g transform="translate(-50.1875,-50.1875)"> 
 <rect width="100.375" height="100.375" style="fill:url(#pgfsh2); stroke:none"/> 
 </g> 
 </g> 
 </g> 
 </g> 
 </g> 
 </g> 
 <path d=" M  7.07953 7.49962 L  -7.07953 7.49962 C  -9.2887 7.49962 -11.07953 5.70879 -11.07953 3.49962 L  -11.07953 -3.49962 C  -11.07953 -5.70879 -9.2887 -7.49962 -7.07953 -7.49962 L  7.07953 -7.49962 C  9.2887 -7.49962 11.07953 -5.70879 11.07953 -3.49962 L  11.07953 3.49962 C  11.07953 5.70879 9.2887 7.49962 7.07953 7.49962 Z M  -11.07953 -7.49962  " style="fill:none"/> 
 <g> 
 <g transform="matrix(1.0,0.0,0.0,1.0,-7.74655,-2.66667)"> 
 <g fill="rgb(0.0%,0.0%,0.0%)"> 
 <text style="stroke:none" transform="scale(1,-1) translate(7.74655,0)" text-anchor="middle"  font-size="10"> 
<tspan font-family="cmmi" font-size="10">T</tspan><tspan baseline-shift="sub"><tspan font-family="cmmi" font-size="7">s</tspan><tspan font-family="cmr" font-size="7">3</tspan></tspan></text> 
</g> 
 </g> 
 </g> 
 </g> 
 <g> 
 <g> 
 <g> 
 <clipPath id="pgfcp3"> <path d=" M  -69.80771 -35.1795 L  -80.19244 -35.1795 C  -82.40161 -35.1795 -84.19244 -36.97034 -84.19244 -39.1795 L  -84.19244 -46.17874 C  -84.19244 -48.38791 -82.40161 -50.17874 -80.19244 -50.17874 L  -69.80771 -50.17874 C  -67.59854 -50.17874 -65.80771 -48.38791 -65.80771 -46.17874 L  -65.80771 -39.1795 C  -65.80771 -36.97034 -67.59854 -35.1795 -69.80771 -35.1795 Z M  -84.19244 -50.17874  "/> 
</clipPath> 
 <g clip-path="url(#pgfcp3)"> 
 <g transform="matrix(1,0,0,1,-75.00008,-42.67912)"> 
 <g transform="matrix(0.36636,0,0,0.2989,0.0,0.0)"> 
 <g transform="matrix(1.0,0.0,0.0,1.0,0.0,0.0)"> 
  <linearGradient id="pgfsh2" gradientTransform="rotate(90)"> 
 <stop offset=" 0.0" stop-color=" rgb(80.0003%,80.0003%,100.0%) "/> 
 <stop offset=" 0.25" stop-color=" rgb(80.0003%,80.0003%,100.0%) "/> 
 <stop offset=" 0.5" stop-color=" rgb(90.00092%,90.00092%,100.0%) "/> 
 <stop offset=" 0.75" stop-color=" rgb(100.0%,100.0%,100.0%) "/> 
 <stop offset=" 1.0" stop-color=" rgb(100.0%,100.0%,100.0%) "/> 
 </linearGradient> 
 <g transform="translate(-50.1875,-50.1875)"> 
 <rect width="100.375" height="100.375" style="fill:url(#pgfsh2); stroke:none"/> 
 </g> 
 </g> 
 </g> 
 </g> 
 </g> 
 </g> 
 <path d=" M  -69.80771 -35.1795 L  -80.19244 -35.1795 C  -82.40161 -35.1795 -84.19244 -36.97034 -84.19244 -39.1795 L  -84.19244 -46.17874 C  -84.19244 -48.38791 -82.40161 -50.17874 -80.19244 -50.17874 L  -69.80771 -50.17874 C  -67.59854 -50.17874 -65.80771 -48.38791 -65.80771 -46.17874 L  -65.80771 -39.1795 C  -65.80771 -36.97034 -67.59854 -35.1795 -69.80771 -35.1795 Z M  -84.19244 -50.17874  " style="fill:none"/> 
 <g> 
 <g transform="matrix(1.0,0.0,0.0,1.0,-80.85947,-45.3458)"> 
 <g fill="rgb(0.0%,0.0%,0.0%)"> 
 <text style="stroke:none" transform="scale(1,-1) translate(5.85939,0)" text-anchor="middle"  font-size="10"> 
<tspan font-family="cmmi" font-size="10">T</tspan><tspan baseline-shift="sub"><tspan font-family="cmr" font-size="7">5</tspan> </tspan></text> 
</g> 
 </g> 
 </g> 
 </g> 
 <path d=" M  -75.00008 -42.67912 M  -11.27953 -6.41357 L  -65.60771 -37.33946  " style="fill:none"/> 
 </g> 
 <g> 
 <g> 
 <g> 
 <clipPath id="pgfcp4"> <path d=" M  -16.25381 -35.1795 L  -33.74619 -35.1795 C  -35.95535 -35.1795 -37.74619 -36.97034 -37.74619 -39.1795 L  -37.74619 -46.17874 C  -37.74619 -48.38791 -35.95535 -50.17874 -33.74619 -50.17874 L  -16.25381 -50.17874 C  -14.04465 -50.17874 -12.25381 -48.38791 -12.25381 -46.17874 L  -12.25381 -39.1795 C  -12.25381 -36.97034 -14.04465 -35.1795 -16.25381 -35.1795 Z M  -37.74619 -50.17874  "/> 
</clipPath> 
 <g clip-path="url(#pgfcp4)"> 
 <g transform="matrix(1,0,0,1,-25.0,-42.67912)"> 
 <g transform="matrix(0.50801,0,0,0.2989,0.0,0.0)"> 
 <g transform="matrix(1.0,0.0,0.0,1.0,0.0,0.0)"> 
  <linearGradient id="pgfsh2" gradientTransform="rotate(90)"> 
 <stop offset=" 0.0" stop-color=" rgb(80.0003%,80.0003%,100.0%) "/> 
 <stop offset=" 0.25" stop-color=" rgb(80.0003%,80.0003%,100.0%) "/> 
 <stop offset=" 0.5" stop-color=" rgb(90.00092%,90.00092%,100.0%) "/> 
 <stop offset=" 0.75" stop-color=" rgb(100.0%,100.0%,100.0%) "/> 
 <stop offset=" 1.0" stop-color=" rgb(100.0%,100.0%,100.0%) "/> 
 </linearGradient> 
 <g transform="translate(-50.1875,-50.1875)"> 
 <rect width="100.375" height="100.375" style="fill:url(#pgfsh2); stroke:none"/> 
 </g> 
 </g> 
 </g> 
 </g> 
 </g> 
 </g> 
 <path d=" M  -16.25381 -35.1795 L  -33.74619 -35.1795 C  -35.95535 -35.1795 -37.74619 -36.97034 -37.74619 -39.1795 L  -37.74619 -46.17874 C  -37.74619 -48.38791 -35.95535 -50.17874 -33.74619 -50.17874 L  -16.25381 -50.17874 C  -14.04465 -50.17874 -12.25381 -48.38791 -12.25381 -46.17874 L  -12.25381 -39.1795 C  -12.25381 -36.97034 -14.04465 -35.1795 -16.25381 -35.1795 Z M  -37.74619 -50.17874  " style="fill:none"/> 
 <g> 
 <g transform="matrix(1.0,0.0,0.0,1.0,-34.41321,-45.3458)"> 
 <g fill="rgb(0.0%,0.0%,0.0%)"> 
 <text style="stroke:none" transform="scale(1,-1) translate(9.41321,0)" text-anchor="middle"  font-size="10"> 
<tspan font-family="cmmi" font-size="10">T</tspan><tspan baseline-shift="sub"><tspan font-family="cmmi" font-size="7">s</tspan><tspan font-family="cmr" font-size="7">1</tspan></tspan></text> 
</g> 
 </g> 
 </g> 
 </g> 
 <path d=" M  -25.0 -42.67912 M  -4.50914 -7.69962 L  -20.49146 -34.9795  " style="fill:none"/> 
 <g> 
 <g> 
 <g> 
 <clipPath id="pgfcp5"> <path d=" M  -44.80765 -77.85863 L  -55.19238 -77.85863 C  -57.40155 -77.85863 -59.19238 -79.64946 -59.19238 -81.85863 L  -59.19238 -88.85786 C  -59.19238 -91.06703 -57.40155 -92.85786 -55.19238 -92.85786 L  -44.80765 -92.85786 C  -42.59848 -92.85786 -40.80765 -91.06703 -40.80765 -88.85786 L  -40.80765 -81.85863 C  -40.80765 -79.64946 -42.59848 -77.85863 -44.80765 -77.85863 Z M  -59.19238 -92.85786  "/> 
</clipPath> 
 <g clip-path="url(#pgfcp5)"> 
 <g transform="matrix(1,0,0,1,-50.00002,-85.35823)"> 
 <g transform="matrix(0.36636,0,0,0.2989,0.0,0.0)"> 
 <g transform="matrix(1.0,0.0,0.0,1.0,0.0,0.0)"> 
  <linearGradient id="pgfsh2" gradientTransform="rotate(90)"> 
 <stop offset=" 0.0" stop-color=" rgb(80.0003%,80.0003%,100.0%) "/> 
 <stop offset=" 0.25" stop-color=" rgb(80.0003%,80.0003%,100.0%) "/> 
 <stop offset=" 0.5" stop-color=" rgb(90.00092%,90.00092%,100.0%) "/> 
 <stop offset=" 0.75" stop-color=" rgb(100.0%,100.0%,100.0%) "/> 
 <stop offset=" 1.0" stop-color=" rgb(100.0%,100.0%,100.0%) "/> 
 </linearGradient> 
 <g transform="translate(-50.1875,-50.1875)"> 
 <rect width="100.375" height="100.375" style="fill:url(#pgfsh2); stroke:none"/> 
 </g> 
 </g> 
 </g> 
 </g> 
 </g> 
 </g> 
 <path d=" M  -44.80765 -77.85863 L  -55.19238 -77.85863 C  -57.40155 -77.85863 -59.19238 -79.64946 -59.19238 -81.85863 L  -59.19238 -88.85786 C  -59.19238 -91.06703 -57.40155 -92.85786 -55.19238 -92.85786 L  -44.80765 -92.85786 C  -42.59848 -92.85786 -40.80765 -91.06703 -40.80765 -88.85786 L  -40.80765 -81.85863 C  -40.80765 -79.64946 -42.59848 -77.85863 -44.80765 -77.85863 Z M  -59.19238 -92.85786  " style="fill:none"/> 
 <g> 
 <g transform="matrix(1.0,0.0,0.0,1.0,-55.8594,-88.02492)"> 
 <g fill="rgb(0.0%,0.0%,0.0%)"> 
 <text style="stroke:none" transform="scale(1,-1) translate(5.85939,0)" text-anchor="middle"  font-size="10"> 
<tspan font-family="cmmi" font-size="10">T</tspan><tspan baseline-shift="sub"><tspan font-family="cmr" font-size="7">1</tspan> </tspan></text> 
</g> 
 </g> 
 </g> 
 </g> 
 <path d=" M  -50.00002 -85.35825 M  -29.50914 -50.37874 L  -45.49147 -77.65863  " style="fill:none"/> 
 </g> 
 <g> 
 <g> 
 <g> 
 <clipPath id="pgfcp6"> <path d=" M  5.19243 -77.85863 L  -5.1923 -77.85863 C  -7.40147 -77.85863 -9.1923 -79.64946 -9.1923 -81.85863 L  -9.1923 -88.85786 C  -9.1923 -91.06703 -7.40147 -92.85786 -5.1923 -92.85786 L  5.19243 -92.85786 C  7.4016 -92.85786 9.19243 -91.06703 9.19243 -88.85786 L  9.19243 -81.85863 C  9.19243 -79.64946 7.4016 -77.85863 5.19243 -77.85863 Z M  -9.1923 -92.85786  "/> 
</clipPath> 
 <g clip-path="url(#pgfcp6)"> 
 <g transform="matrix(1,0,0,1,0.00006,-85.35823)"> 
 <g transform="matrix(0.36636,0,0,0.2989,0.0,0.0)"> 
 <g transform="matrix(1.0,0.0,0.0,1.0,0.0,0.0)"> 
  <linearGradient id="pgfsh2" gradientTransform="rotate(90)"> 
 <stop offset=" 0.0" stop-color=" rgb(80.0003%,80.0003%,100.0%) "/> 
 <stop offset=" 0.25" stop-color=" rgb(80.0003%,80.0003%,100.0%) "/> 
 <stop offset=" 0.5" stop-color=" rgb(90.00092%,90.00092%,100.0%) "/> 
 <stop offset=" 0.75" stop-color=" rgb(100.0%,100.0%,100.0%) "/> 
 <stop offset=" 1.0" stop-color=" rgb(100.0%,100.0%,100.0%) "/> 
 </linearGradient> 
 <g transform="translate(-50.1875,-50.1875)"> 
 <rect width="100.375" height="100.375" style="fill:url(#pgfsh2); stroke:none"/> 
 </g> 
 </g> 
 </g> 
 </g> 
 </g> 
 </g> 
 <path d=" M  5.19243 -77.85863 L  -5.1923 -77.85863 C  -7.40147 -77.85863 -9.1923 -79.64946 -9.1923 -81.85863 L  -9.1923 -88.85786 C  -9.1923 -91.06703 -7.40147 -92.85786 -5.1923 -92.85786 L  5.19243 -92.85786 C  7.4016 -92.85786 9.19243 -91.06703 9.19243 -88.85786 L  9.19243 -81.85863 C  9.19243 -79.64946 7.4016 -77.85863 5.19243 -77.85863 Z M  -9.1923 -92.85786  " style="fill:none"/> 
 <g> 
 <g transform="matrix(1.0,0.0,0.0,1.0,-5.85933,-88.02492)"> 
 <g fill="rgb(0.0%,0.0%,0.0%)"> 
 <text style="stroke:none" transform="scale(1,-1) translate(5.85939,0)" text-anchor="middle"  font-size="10"> 
<tspan font-family="cmmi" font-size="10">T</tspan><tspan baseline-shift="sub"><tspan font-family="cmr" font-size="7">2</tspan> </tspan></text> 
</g> 
 </g> 
 </g> 
 </g> 
 <path d=" M  0.00006 -85.35825 M  -20.49086 -50.37874 L  -4.50848 -77.65863  " style="fill:none"/> 
 </g> 
 </g> 
 <g> 
 <g> 
 <g> 
 <clipPath id="pgfcp7"> <path d=" M  30.19244 -35.1795 L  19.80771 -35.1795 C  17.59854 -35.1795 15.80771 -36.97034 15.80771 -39.1795 L  15.80771 -46.17874 C  15.80771 -48.38791 17.59854 -50.17874 19.80771 -50.17874 L  30.19244 -50.17874 C  32.40161 -50.17874 34.19244 -48.38791 34.19244 -46.17874 L  34.19244 -39.1795 C  34.19244 -36.97034 32.40161 -35.1795 30.19244 -35.1795 Z M  15.80771 -50.17874  "/> 
</clipPath> 
 <g clip-path="url(#pgfcp7)"> 
 <g transform="matrix(1,0,0,1,25.00008,-42.67912)"> 
 <g transform="matrix(0.36636,0,0,0.2989,0.0,0.0)"> 
 <g transform="matrix(1.0,0.0,0.0,1.0,0.0,0.0)"> 
  <linearGradient id="pgfsh2" gradientTransform="rotate(90)"> 
 <stop offset=" 0.0" stop-color=" rgb(80.0003%,80.0003%,100.0%) "/> 
 <stop offset=" 0.25" stop-color=" rgb(80.0003%,80.0003%,100.0%) "/> 
 <stop offset=" 0.5" stop-color=" rgb(90.00092%,90.00092%,100.0%) "/> 
 <stop offset=" 0.75" stop-color=" rgb(100.0%,100.0%,100.0%) "/> 
 <stop offset=" 1.0" stop-color=" rgb(100.0%,100.0%,100.0%) "/> 
 </linearGradient> 
 <g transform="translate(-50.1875,-50.1875)"> 
 <rect width="100.375" height="100.375" style="fill:url(#pgfsh2); stroke:none"/> 
 </g> 
 </g> 
 </g> 
 </g> 
 </g> 
 </g> 
 <path d=" M  30.19244 -35.1795 L  19.80771 -35.1795 C  17.59854 -35.1795 15.80771 -36.97034 15.80771 -39.1795 L  15.80771 -46.17874 C  15.80771 -48.38791 17.59854 -50.17874 19.80771 -50.17874 L  30.19244 -50.17874 C  32.40161 -50.17874 34.19244 -48.38791 34.19244 -46.17874 L  34.19244 -39.1795 C  34.19244 -36.97034 32.40161 -35.1795 30.19244 -35.1795 Z M  15.80771 -50.17874  " style="fill:none"/> 
 <g> 
 <g transform="matrix(1.0,0.0,0.0,1.0,19.14069,-45.3458)"> 
 <g fill="rgb(0.0%,0.0%,0.0%)"> 
 <text style="stroke:none" transform="scale(1,-1) translate(5.85939,0)" text-anchor="middle"  font-size="10"> 
<tspan font-family="cmmi" font-size="10">T</tspan><tspan baseline-shift="sub"><tspan font-family="cmr" font-size="7">6</tspan> </tspan></text> 
</g> 
 </g> 
 </g> 
 </g> 
 <path d=" M  25.00008 -42.67912 M  4.50914 -7.69962 L  20.49153 -34.9795  " style="fill:none"/> 
 </g> 
 <g> 
 <g> 
 <g> 
 <clipPath id="pgfcp8"> <path d=" M  83.74634 -35.1795 L  66.25397 -35.1795 C  64.0448 -35.1795 62.25397 -36.97034 62.25397 -39.1795 L  62.25397 -46.17874 C  62.25397 -48.38791 64.0448 -50.17874 66.25397 -50.17874 L  83.74634 -50.17874 C  85.9555 -50.17874 87.74634 -48.38791 87.74634 -46.17874 L  87.74634 -39.1795 C  87.74634 -36.97034 85.9555 -35.1795 83.74634 -35.1795 Z M  62.25397 -50.17874  "/> 
</clipPath> 
 <g clip-path="url(#pgfcp8)"> 
 <g transform="matrix(1,0,0,1,75.00015,-42.67912)"> 
 <g transform="matrix(0.50801,0,0,0.2989,0.0,0.0)"> 
 <g transform="matrix(1.0,0.0,0.0,1.0,0.0,0.0)"> 
  <linearGradient id="pgfsh2" gradientTransform="rotate(90)"> 
 <stop offset=" 0.0" stop-color=" rgb(80.0003%,80.0003%,100.0%) "/> 
 <stop offset=" 0.25" stop-color=" rgb(80.0003%,80.0003%,100.0%) "/> 
 <stop offset=" 0.5" stop-color=" rgb(90.00092%,90.00092%,100.0%) "/> 
 <stop offset=" 0.75" stop-color=" rgb(100.0%,100.0%,100.0%) "/> 
 <stop offset=" 1.0" stop-color=" rgb(100.0%,100.0%,100.0%) "/> 
 </linearGradient> 
 <g transform="translate(-50.1875,-50.1875)"> 
 <rect width="100.375" height="100.375" style="fill:url(#pgfsh2); stroke:none"/> 
 </g> 
 </g> 
 </g> 
 </g> 
 </g> 
 </g> 
 <path d=" M  83.74634 -35.1795 L  66.25397 -35.1795 C  64.0448 -35.1795 62.25397 -36.97034 62.25397 -39.1795 L  62.25397 -46.17874 C  62.25397 -48.38791 64.0448 -50.17874 66.25397 -50.17874 L  83.74634 -50.17874 C  85.9555 -50.17874 87.74634 -48.38791 87.74634 -46.17874 L  87.74634 -39.1795 C  87.74634 -36.97034 85.9555 -35.1795 83.74634 -35.1795 Z M  62.25397 -50.17874  " style="fill:none"/> 
 <g> 
 <g transform="matrix(1.0,0.0,0.0,1.0,65.58694,-45.3458)"> 
 <g fill="rgb(0.0%,0.0%,0.0%)"> 
 <text style="stroke:none" transform="scale(1,-1) translate(9.41321,0)" text-anchor="middle"  font-size="10"> 
<tspan font-family="cmmi" font-size="10">T</tspan><tspan baseline-shift="sub"><tspan font-family="cmmi" font-size="7">s</tspan><tspan font-family="cmr" font-size="7">2</tspan></tspan></text> 
</g> 
 </g> 
 </g> 
 </g> 
 <path d=" M  75.00015 -42.67912 M  11.27953 -6.41908 L  62.05397 -35.31908  " style="fill:none"/> 
 <g> 
 <g> 
 <g> 
 <clipPath id="pgfcp9"> <path d=" M  55.1925 -77.85863 L  44.80777 -77.85863 C  42.5986 -77.85863 40.80777 -79.64946 40.80777 -81.85863 L  40.80777 -88.85786 C  40.80777 -91.06703 42.5986 -92.85786 44.80777 -92.85786 L  55.1925 -92.85786 C  57.40167 -92.85786 59.1925 -91.06703 59.1925 -88.85786 L  59.1925 -81.85863 C  59.1925 -79.64946 57.40167 -77.85863 55.1925 -77.85863 Z M  40.80777 -92.85786  "/> 
</clipPath> 
 <g clip-path="url(#pgfcp9)"> 
 <g transform="matrix(1,0,0,1,50.00014,-85.35823)"> 
 <g transform="matrix(0.36636,0,0,0.2989,0.0,0.0)"> 
 <g transform="matrix(1.0,0.0,0.0,1.0,0.0,0.0)"> 
  <linearGradient id="pgfsh2" gradientTransform="rotate(90)"> 
 <stop offset=" 0.0" stop-color=" rgb(80.0003%,80.0003%,100.0%) "/> 
 <stop offset=" 0.25" stop-color=" rgb(80.0003%,80.0003%,100.0%) "/> 
 <stop offset=" 0.5" stop-color=" rgb(90.00092%,90.00092%,100.0%) "/> 
 <stop offset=" 0.75" stop-color=" rgb(100.0%,100.0%,100.0%) "/> 
 <stop offset=" 1.0" stop-color=" rgb(100.0%,100.0%,100.0%) "/> 
 </linearGradient> 
 <g transform="translate(-50.1875,-50.1875)"> 
 <rect width="100.375" height="100.375" style="fill:url(#pgfsh2); stroke:none"/> 
 </g> 
 </g> 
 </g> 
 </g> 
 </g> 
 </g> 
 <path d=" M  55.1925 -77.85863 L  44.80777 -77.85863 C  42.5986 -77.85863 40.80777 -79.64946 40.80777 -81.85863 L  40.80777 -88.85786 C  40.80777 -91.06703 42.5986 -92.85786 44.80777 -92.85786 L  55.1925 -92.85786 C  57.40167 -92.85786 59.1925 -91.06703 59.1925 -88.85786 L  59.1925 -81.85863 C  59.1925 -79.64946 57.40167 -77.85863 55.1925 -77.85863 Z M  40.80777 -92.85786  " style="fill:none"/> 
 <g> 
 <g transform="matrix(1.0,0.0,0.0,1.0,44.14075,-88.02492)"> 
 <g fill="rgb(0.0%,0.0%,0.0%)"> 
 <text style="stroke:none" transform="scale(1,-1) translate(5.85939,0)" text-anchor="middle"  font-size="10"> 
<tspan font-family="cmmi" font-size="10">T</tspan><tspan baseline-shift="sub"><tspan font-family="cmr" font-size="7">3</tspan> </tspan></text> 
</g> 
 </g> 
 </g> 
 </g> 
 <path d=" M  50.00014 -85.35825 M  70.49101 -50.37874 L  54.50868 -77.65863  " style="fill:none"/> 
 </g> 
 <g> 
 <g> 
 <g> 
 <clipPath id="pgfcp10"> <path d=" M  105.19258 -77.85863 L  94.80785 -77.85863 C  92.59868 -77.85863 90.80785 -79.64946 90.80785 -81.85863 L  90.80785 -88.85786 C  90.80785 -91.06703 92.59868 -92.85786 94.80785 -92.85786 L  105.19258 -92.85786 C  107.40175 -92.85786 109.19258 -91.06703 109.19258 -88.85786 L  109.19258 -81.85863 C  109.19258 -79.64946 107.40175 -77.85863 105.19258 -77.85863 Z M  90.80785 -92.85786  "/> 
</clipPath> 
 <g clip-path="url(#pgfcp10)"> 
 <g transform="matrix(1,0,0,1,100.0002,-85.35823)"> 
 <g transform="matrix(0.36636,0,0,0.2989,0.0,0.0)"> 
 <g transform="matrix(1.0,0.0,0.0,1.0,0.0,0.0)"> 
  <linearGradient id="pgfsh2" gradientTransform="rotate(90)"> 
 <stop offset=" 0.0" stop-color=" rgb(80.0003%,80.0003%,100.0%) "/> 
 <stop offset=" 0.25" stop-color=" rgb(80.0003%,80.0003%,100.0%) "/> 
 <stop offset=" 0.5" stop-color=" rgb(90.00092%,90.00092%,100.0%) "/> 
 <stop offset=" 0.75" stop-color=" rgb(100.0%,100.0%,100.0%) "/> 
 <stop offset=" 1.0" stop-color=" rgb(100.0%,100.0%,100.0%) "/> 
 </linearGradient> 
 <g transform="translate(-50.1875,-50.1875)"> 
 <rect width="100.375" height="100.375" style="fill:url(#pgfsh2); stroke:none"/> 
 </g> 
 </g> 
 </g> 
 </g> 
 </g> 
 </g> 
 <path d=" M  105.19258 -77.85863 L  94.80785 -77.85863 C  92.59868 -77.85863 90.80785 -79.64946 90.80785 -81.85863 L  90.80785 -88.85786 C  90.80785 -91.06703 92.59868 -92.85786 94.80785 -92.85786 L  105.19258 -92.85786 C  107.40175 -92.85786 109.19258 -91.06703 109.19258 -88.85786 L  109.19258 -81.85863 C  109.19258 -79.64946 107.40175 -77.85863 105.19258 -77.85863 Z M  90.80785 -92.85786  " style="fill:none"/> 
 <g> 
 <g transform="matrix(1.0,0.0,0.0,1.0,94.14082,-88.02492)"> 
 <g fill="rgb(0.0%,0.0%,0.0%)"> 
 <text style="stroke:none" transform="scale(1,-1) translate(5.85939,0)" text-anchor="middle"  font-size="10"> 
<tspan font-family="cmmi" font-size="10">T</tspan><tspan baseline-shift="sub"><tspan font-family="cmr" font-size="7">4</tspan> </tspan></text> 
</g> 
 </g> 
 </g> 
 </g> 
 <path d=" M  100.00021 -85.35825 M  79.5093 -50.37874 L  95.49167 -77.65863  " style="fill:none"/> 
 </g> 
 </g> 
 </g> 
 </g> 
 </g> 
 </g> 
 </g> 
 
                                                                        </g> 
</svg> 
