<svg xmlns="http://www.w3.org/2000/svg" width="304" height="288" class="svgbob">
  <style>.svgbob line, .svgbob path, .svgbob circle, .svgbob rect, .svgbob polygon {
  stroke: black;
  stroke-width: 2;
  stroke-opacity: 1;
  fill-opacity: 1;
  stroke-linecap: round;
  stroke-linejoin: miter;
}

.svgbob text {
  white-space: pre;
  fill: black;
  font-family: Iosevka Fixed, monospace;
  font-size: 14px;
}

.svgbob rect.backdrop {
  stroke: none;
  fill: white;
}

.svgbob .broken {
  stroke-dasharray: 8;
}

.svgbob .filled {
  fill: black;
}

.svgbob .bg_filled {
  fill: white;
  stroke-width: 1;
}

.svgbob .nofill {
  fill: white;
}

.svgbob .end_marked_arrow {
  marker-end: url(#arrow);
}

.svgbob .start_marked_arrow {
  marker-start: url(#arrow);
}

.svgbob .end_marked_diamond {
  marker-end: url(#diamond);
}

.svgbob .start_marked_diamond {
  marker-start: url(#diamond);
}

.svgbob .end_marked_circle {
  marker-end: url(#circle);
}

.svgbob .start_marked_circle {
  marker-start: url(#circle);
}

.svgbob .end_marked_open_circle {
  marker-end: url(#open_circle);
}

.svgbob .start_marked_open_circle {
  marker-start: url(#open_circle);
}

.svgbob .end_marked_big_open_circle {
  marker-end: url(#big_open_circle);
}

.svgbob .start_marked_big_open_circle {
  marker-start: url(#big_open_circle);
}

</style>
  <defs>
    <marker id="arrow" viewBox="-2 -2 8 8" refX="4" refY="2" markerWidth="7" markerHeight="7" orient="auto-start-reverse">
      <polygon points="0,0 0,4 4,2 0,0"></polygon>
    </marker>
    <marker id="diamond" viewBox="-2 -2 8 8" refX="4" refY="2" markerWidth="7" markerHeight="7" orient="auto-start-reverse">
      <polygon points="0,2 2,0 4,2 2,4 0,2"></polygon>
    </marker>
    <marker id="circle" viewBox="0 0 8 8" refX="4" refY="4" markerWidth="7" markerHeight="7" orient="auto-start-reverse">
      <circle cx="4" cy="4" r="2" class="filled"></circle>
    </marker>
    <marker id="open_circle" viewBox="0 0 8 8" refX="4" refY="4" markerWidth="7" markerHeight="7" orient="auto-start-reverse">
      <circle cx="4" cy="4" r="2" class="bg_filled"></circle>
    </marker>
    <marker id="big_open_circle" viewBox="0 0 8 8" refX="4" refY="4" markerWidth="7" markerHeight="7" orient="auto-start-reverse">
      <circle cx="4" cy="4" r="3" class="bg_filled"></circle>
    </marker>
  </defs>
  <rect class="backdrop" x="0" y="0" width="304" height="288"></rect>
  <text x="122" y="28" >9</text>
  <line x1="104" y1="32" x2="78" y2="84" class="solid"></line>
  <text x="146" y="44" >.</text>
  <line x1="116" y1="48" x2="116" y2="100" class="broken"></line>
  <line x1="136" y1="48" x2="162" y2="100" class="solid"></line>
  <line x1="148" y1="40" x2="196" y2="88" class="broken"></line>
  <polygon points="81,84 74,92 74,81" class="filled"></polygon>
  <text x="194" y="92" >.</text>
  <polygon points="112,100 120,100 116,112" class="filled"></polygon>
  <polygon points="159,100 166,108 166,97" class="filled"></polygon>
  <polygon points="200,100 208,104 204,96" class="filled"></polygon>
  <text x="74" y="124" >5</text>
  <text x="122" y="140" >7</text>
  <text x="170" y="140" >6</text>
  <text x="218" y="140" >8</text>
  <line x1="112" y1="160" x2="94" y2="196" class="solid"></line>
  <line x1="136" y1="160" x2="154" y2="196" class="solid"></line>
  <line x1="220" y1="160" x2="220" y2="212" class="solid"></line>
  <polygon points="97,196 90,204 90,193" class="filled"></polygon>
  <polygon points="151,196 158,204 158,193" class="filled"></polygon>
  <polygon points="216,212 224,212 220,224" class="filled"></polygon>
  <text x="90" y="236" >1</text>
  <text x="162" y="236" >2</text>
  <text x="226" y="252" >3</text>
  <line x1="240" y1="160" x2="266" y2="212" class="solid"></line>
  <polygon points="263,212 270,220 270,209" class="filled"></polygon>
  <text x="274" y="252" >4</text>
  <g>
    <path d="M 120,8 A 8,8 0,0,0 114,12" class="nofill"></path>
    <line x1="114" y1="12" x2="112" y2="16" class="solid"></line>
    <line x1="120" y1="8" x2="128" y2="8" class="solid"></line>
    <path d="M 128,8 A 8,8 0,0,1 134,12" class="nofill"></path>
    <line x1="134" y1="12" x2="136" y2="16" class="solid"></line>
    <path d="M 112,16 A 16,16 0,0,0 112,32" class="nofill"></path>
    <path d="M 136,16 A 16,16 0,0,1 136,32" class="nofill"></path>
    <line x1="112" y1="32" x2="114" y2="36" class="solid"></line>
    <path d="M 114,36 A 8,8 0,0,0 120,40" class="nofill"></path>
    <line x1="120" y1="40" x2="128" y2="40" class="solid"></line>
    <line x1="136" y1="32" x2="134" y2="36" class="solid"></line>
    <path d="M 134,36 A 8,8 0,0,1 128,40" class="nofill"></path>
  </g>
  <g>
    <path d="M 72,104 A 8,8 0,0,0 66,108" class="nofill"></path>
    <line x1="66" y1="108" x2="64" y2="112" class="solid"></line>
    <line x1="72" y1="104" x2="80" y2="104" class="solid"></line>
    <path d="M 80,104 A 8,8 0,0,1 86,108" class="nofill"></path>
    <line x1="86" y1="108" x2="88" y2="112" class="solid"></line>
    <path d="M 64,112 A 16,16 0,0,0 64,128" class="nofill"></path>
    <path d="M 88,112 A 16,16 0,0,1 88,128" class="nofill"></path>
    <line x1="64" y1="128" x2="66" y2="132" class="solid"></line>
    <path d="M 66,132 A 8,8 0,0,0 72,136" class="nofill"></path>
    <line x1="72" y1="136" x2="80" y2="136" class="solid"></line>
    <line x1="88" y1="128" x2="86" y2="132" class="solid"></line>
    <path d="M 86,132 A 8,8 0,0,1 80,136" class="nofill"></path>
  </g>
  <g>
    <path d="M 120,120 A 8,8 0,0,0 114,124" class="nofill"></path>
    <line x1="114" y1="124" x2="112" y2="128" class="solid"></line>
    <line x1="120" y1="120" x2="128" y2="120" class="solid"></line>
    <path d="M 128,120 A 8,8 0,0,1 134,124" class="nofill"></path>
    <line x1="134" y1="124" x2="136" y2="128" class="solid"></line>
    <path d="M 112,128 A 16,16 0,0,0 112,144" class="nofill"></path>
    <path d="M 136,128 A 16,16 0,0,1 136,144" class="nofill"></path>
    <line x1="112" y1="144" x2="114" y2="148" class="solid"></line>
    <path d="M 114,148 A 8,8 0,0,0 120,152" class="nofill"></path>
    <line x1="120" y1="152" x2="128" y2="152" class="solid"></line>
    <line x1="136" y1="144" x2="134" y2="148" class="solid"></line>
    <path d="M 134,148 A 8,8 0,0,1 128,152" class="nofill"></path>
  </g>
  <g>
    <path d="M 168,120 A 8,8 0,0,0 162,124" class="nofill"></path>
    <line x1="162" y1="124" x2="160" y2="128" class="solid"></line>
    <line x1="168" y1="120" x2="176" y2="120" class="solid"></line>
    <path d="M 176,120 A 8,8 0,0,1 182,124" class="nofill"></path>
    <line x1="182" y1="124" x2="184" y2="128" class="solid"></line>
    <path d="M 160,128 A 16,16 0,0,0 160,144" class="nofill"></path>
    <path d="M 184,128 A 16,16 0,0,1 184,144" class="nofill"></path>
    <line x1="160" y1="144" x2="162" y2="148" class="solid"></line>
    <path d="M 162,148 A 8,8 0,0,0 168,152" class="nofill"></path>
    <line x1="168" y1="152" x2="176" y2="152" class="solid"></line>
    <line x1="184" y1="144" x2="182" y2="148" class="solid"></line>
    <path d="M 182,148 A 8,8 0,0,1 176,152" class="nofill"></path>
  </g>
  <g>
    <path d="M 216,120 A 8,8 0,0,0 210,124" class="nofill"></path>
    <line x1="210" y1="124" x2="208" y2="128" class="solid"></line>
    <line x1="216" y1="120" x2="224" y2="120" class="solid"></line>
    <path d="M 224,120 A 8,8 0,0,1 230,124" class="nofill"></path>
    <line x1="230" y1="124" x2="232" y2="128" class="solid"></line>
    <path d="M 208,128 A 16,16 0,0,0 208,144" class="nofill"></path>
    <path d="M 232,128 A 16,16 0,0,1 232,144" class="nofill"></path>
    <line x1="208" y1="144" x2="210" y2="148" class="solid"></line>
    <path d="M 210,148 A 8,8 0,0,0 216,152" class="nofill"></path>
    <line x1="216" y1="152" x2="224" y2="152" class="solid"></line>
    <line x1="232" y1="144" x2="230" y2="148" class="solid"></line>
    <path d="M 230,148 A 8,8 0,0,1 224,152" class="nofill"></path>
  </g>
  <g>
    <path d="M 88,216 A 8,8 0,0,0 82,220" class="nofill"></path>
    <line x1="82" y1="220" x2="80" y2="224" class="solid"></line>
    <line x1="88" y1="216" x2="96" y2="216" class="solid"></line>
    <path d="M 96,216 A 8,8 0,0,1 102,220" class="nofill"></path>
    <line x1="102" y1="220" x2="104" y2="224" class="solid"></line>
    <path d="M 80,224 A 16,16 0,0,0 80,240" class="nofill"></path>
    <path d="M 104,224 A 16,16 0,0,1 104,240" class="nofill"></path>
    <line x1="80" y1="240" x2="82" y2="244" class="solid"></line>
    <path d="M 82,244 A 8,8 0,0,0 88,248" class="nofill"></path>
    <line x1="88" y1="248" x2="96" y2="248" class="solid"></line>
    <line x1="104" y1="240" x2="102" y2="244" class="solid"></line>
    <path d="M 102,244 A 8,8 0,0,1 96,248" class="nofill"></path>
  </g>
  <g>
    <path d="M 160,216 A 8,8 0,0,0 154,220" class="nofill"></path>
    <line x1="154" y1="220" x2="152" y2="224" class="solid"></line>
    <line x1="160" y1="216" x2="168" y2="216" class="solid"></line>
    <path d="M 168,216 A 8,8 0,0,1 174,220" class="nofill"></path>
    <line x1="174" y1="220" x2="176" y2="224" class="solid"></line>
    <path d="M 152,224 A 16,16 0,0,0 152,240" class="nofill"></path>
    <path d="M 176,224 A 16,16 0,0,1 176,240" class="nofill"></path>
    <line x1="152" y1="240" x2="154" y2="244" class="solid"></line>
    <path d="M 154,244 A 8,8 0,0,0 160,248" class="nofill"></path>
    <line x1="160" y1="248" x2="168" y2="248" class="solid"></line>
    <line x1="176" y1="240" x2="174" y2="244" class="solid"></line>
    <path d="M 174,244 A 8,8 0,0,1 168,248" class="nofill"></path>
  </g>
  <g>
    <path d="M 224,232 A 8,8 0,0,0 218,236" class="nofill"></path>
    <line x1="218" y1="236" x2="216" y2="240" class="solid"></line>
    <line x1="224" y1="232" x2="232" y2="232" class="solid"></line>
    <path d="M 232,232 A 8,8 0,0,1 238,236" class="nofill"></path>
    <line x1="238" y1="236" x2="240" y2="240" class="solid"></line>
    <path d="M 216,240 A 16,16 0,0,0 216,256" class="nofill"></path>
    <path d="M 240,240 A 16,16 0,0,1 240,256" class="nofill"></path>
    <line x1="216" y1="256" x2="218" y2="260" class="solid"></line>
    <path d="M 218,260 A 8,8 0,0,0 224,264" class="nofill"></path>
    <line x1="224" y1="264" x2="232" y2="264" class="solid"></line>
    <line x1="240" y1="256" x2="238" y2="260" class="solid"></line>
    <path d="M 238,260 A 8,8 0,0,1 232,264" class="nofill"></path>
  </g>
  <g>
    <path d="M 272,232 A 8,8 0,0,0 266,236" class="nofill"></path>
    <line x1="266" y1="236" x2="264" y2="240" class="solid"></line>
    <line x1="272" y1="232" x2="280" y2="232" class="solid"></line>
    <path d="M 280,232 A 8,8 0,0,1 286,236" class="nofill"></path>
    <line x1="286" y1="236" x2="288" y2="240" class="solid"></line>
    <path d="M 264,240 A 16,16 0,0,0 264,256" class="nofill"></path>
    <path d="M 288,240 A 16,16 0,0,1 288,256" class="nofill"></path>
    <line x1="264" y1="256" x2="266" y2="260" class="solid"></line>
    <path d="M 266,260 A 8,8 0,0,0 272,264" class="nofill"></path>
    <line x1="272" y1="264" x2="280" y2="264" class="solid"></line>
    <line x1="288" y1="256" x2="286" y2="260" class="solid"></line>
    <path d="M 286,260 A 8,8 0,0,1 280,264" class="nofill"></path>
  </g>
</svg>
