<?xml version="1.0" encoding="iso-8859-1" standalone="no"?> 
<?xml-stylesheet href="TE_export636284726407890080.css" type="text/css"?> 
<svg xmlns="http://www.w3.org/2000/svg" xmlns:xlink="http://www.w3.org/1999/xlink" width="363pt" height="384pt" viewBox="-90.72498 -99.55971 181.44995 192.05363 "> 
<g transform="translate(0, 92.49393 ) scale(1,-1) translate(0,99.55971 )"> 
                           <g> 
 <g stroke="rgb(0.0%,0.0%,0.0%)"> 
 <g fill="rgb(0.0%,0.0%,0.0%)"> 
 <g stroke-width="0.4pt"> 
 <g> 
 <g> 
 <g fill="rgb(80.0003%,100.0%,100.0%)"> 
 <g> 
 <g fill="rgb(80.0003%,100.0%,100.0%)"> 
 <path d=" M  87.92407 42.67911 C  87.92407 50.412 81.6555 56.68057 73.9226 56.68057 C  66.18971 56.68057 59.92114 50.412 59.92114 42.67911 C  59.92114 34.94621 66.18971 28.67764 73.9226 28.67764 C  81.6555 28.67764 87.92407 34.94621 87.92407 42.67911 Z M  73.9226 42.67911  " /> 
 </g> 
 </g> 
 <g> 
 <g transform="matrix(1.0,0.0,0.0,1.0,64.8948,39.26245)"> 
 <g fill="rgb(0.0%,0.0%,0.0%)"> 
 <text style="stroke:none" transform="scale(1,-1) translate(9.0278,0)" text-anchor="middle"  font-size="10"> 
FF3</text> 
</g> 
 </g> 
 </g> 
 </g> 
 </g> 
 <g> 
 <g fill="rgb(80.0003%,100.0%,100.0%)"> 
 <g> 
 <g fill="rgb(80.0003%,100.0%,100.0%)"> 
 <path d=" M  -59.92114 42.67911 C  -59.92114 50.412 -66.18971 56.68057 -73.9226 56.68057 C  -81.6555 56.68057 -87.92407 50.412 -87.92407 42.67911 C  -87.92407 34.94621 -81.6555 28.67764 -73.9226 28.67764 C  -66.18971 28.67764 -59.92114 34.94621 -59.92114 42.67911 Z M  -73.9226 42.67911  " /> 
 </g> 
 </g> 
 <g> 
 <g transform="matrix(1.0,0.0,0.0,1.0,-82.95041,39.26245)"> 
 <g fill="rgb(0.0%,0.0%,0.0%)"> 
 <text style="stroke:none" transform="scale(1,-1) translate(9.0278,0)" text-anchor="middle"  font-size="10"> 
FF1</text> 
</g> 
 </g> 
 </g> 
 </g> 
 </g> 
 <g> 
 <g fill="rgb(80.0003%,100.0%,100.0%)"> 
 <g> 
 <g fill="rgb(80.0003%,100.0%,100.0%)"> 
 <path d=" M  14.00146 -85.35825 C  14.00146 -77.62535 7.7329 -71.35678 0.0 -71.35678 C  -7.7329 -71.35678 -14.00146 -77.62535 -14.00146 -85.35825 C  -14.00146 -93.09114 -7.7329 -99.35971 0.0 -99.35971 C  7.7329 -99.35971 14.00146 -93.09114 14.00146 -85.35825 Z M  0.0 -85.35825  " /> 
 </g> 
 </g> 
 <g> 
 <g transform="matrix(1.0,0.0,0.0,1.0,-9.0278,-88.7749)"> 
 <g fill="rgb(0.0%,0.0%,0.0%)"> 
 <text style="stroke:none" transform="scale(1,-1) translate(9.0278,0)" text-anchor="middle"  font-size="10"> 
FF2</text> 
</g> 
 </g> 
 </g> 
 </g> 
 </g> 
 <g> 
 <path d=" M  -63.83968 52.77777 C  -28.6319 87.98553 28.6319 87.98553 61.29413 55.32343  " style="fill:none"/> 
 <g> 
 <g transform="matrix(0.7071,-0.70714,0.70714,0.7071,61.29413,55.32343)"> 
 <g> 
 <path d=" M  3.59995 0.0 C  2.53328 0.2 0.79999 0.79999 -0.4 1.49997 L  -0.4 -1.49997 C  0.79999 -0.79999 2.53328 -0.2 3.59995 0.0  " style="stroke:none"/> 
 </g> 
 </g> 
 </g> 
 <g> 
 <g> 
 <g transform="matrix(1.0,0.0,0.0,1.0,-6.3889,82.71652)"> 
 <g fill="rgb(0.0%,0.0%,0.0%)"> 
 <text style="stroke:none" transform="scale(1,-1) translate(6.3889,0)" text-anchor="middle"  font-size="10"> 
0.5</text> 
</g> 
 </g> 
 </g> 
 </g> 
 </g> 
 <g> 
 <path d=" M  -13.74611 -81.6863 C  -61.92166 -68.777 -90.52498 -19.23738 -78.54927 25.45409  " style="fill:none"/> 
 <g> 
 <g transform="matrix(0.25934,0.96782,-0.96782,0.25934,-78.54927,25.45409)"> 
 <g> 
 <path d=" M  3.59995 0.0 C  2.53328 0.2 0.79999 0.79999 -0.4 1.49997 L  -0.4 -1.49997 C  0.79999 -0.79999 2.53328 -0.2 3.59995 0.0  " style="stroke:none"/> 
 </g> 
 </g> 
 </g> 
 <g> 
 <g> 
 <g transform="matrix(1.0,0.0,0.0,1.0,-84.89844,-42.82108)"> 
 <g fill="rgb(0.0%,0.0%,0.0%)"> 
 <text style="stroke:none" transform="scale(1,-1) translate(6.3889,0)" text-anchor="middle"  font-size="10"> 
2.5</text> 
</g> 
 </g> 
 </g> 
 </g> 
 </g> 
 <g> 
 <path d=" M  77.61568 28.93817 C  90.52498 -19.23738 61.92166 -68.777 17.2302 -80.7527  " style="fill:none"/> 
 <g> 
 <g transform="matrix(-0.96782,-0.25934,0.25934,-0.96782,17.2302,-80.7527)"> 
 <g> 
 <path d=" M  3.59995 0.0 C  2.53328 0.2 0.79999 0.79999 -0.4 1.49997 L  -0.4 -1.49997 C  0.79999 -0.79999 2.53328 -0.2 3.59995 0.0  " style="stroke:none"/> 
 </g> 
 </g> 
 </g> 
 <g> 
 <g> 
 <g transform="matrix(1.0,0.0,0.0,1.0,72.12064,-42.82108)"> 
 <g fill="rgb(0.0%,0.0%,0.0%)"> 
 <text style="stroke:none" transform="scale(1,-1) translate(6.3889,0)" text-anchor="middle"  font-size="10"> 
1.5</text> 
</g> 
 </g> 
 </g> 
 </g> 
 </g> 
 <g> 
 <g stroke-dasharray="3.0pt,3.0pt" stroke-dashoffset="0.0pt"> 
 <g> 
 <path d=" M  60.18549 39.00174 C  14.84369 26.85243 -14.84369 26.85243 -56.7014 38.06831  " style="fill:none"/> 
 <g> 
 <g transform="matrix(-0.96782,0.2593,-0.2593,-0.96782,-56.7014,38.06831)"> 
 <g> 
 <path d=" M  3.59995 0.0 C  2.53328 0.2 0.79999 0.79999 -0.4 1.49997 L  -0.4 -1.49997 C  0.79999 -0.79999 2.53328 -0.2 3.59995 0.0  " style="stroke:none"/> 
 </g> 
 </g> 
 </g> 
 <g> 
 <g> 
 <g transform="matrix(1.0,0.0,0.0,1.0,-6.3889,33.4227)"> 
 <g fill="rgb(0.0%,0.0%,0.0%)"> 
 <text style="stroke:none" transform="scale(1,-1) translate(6.3889,0)" text-anchor="middle"  font-size="10"> 
1.5</text> 
</g> 
 </g> 
 </g> 
 </g> 
 </g> 
 </g> 
 </g> 
 <g> 
 <g stroke-dasharray="3.0pt,3.0pt" stroke-dashoffset="0.0pt"> 
 <g> 
 <path d=" M  -63.88866 32.64113 C  -30.64565 -0.59752 -15.8536 -26.2155 -4.61732 -68.13844  " style="fill:none"/> 
 <g> 
 <g transform="matrix(0.25937,-0.96782,0.96782,0.25937,-4.61732,-68.13844)"> 
 <g> 
 <path d=" M  3.59995 0.0 C  2.53328 0.2 0.79999 0.79999 -0.4 1.49997 L  -0.4 -1.49997 C  0.79999 -0.79999 2.53328 -0.2 3.59995 0.0  " style="stroke:none"/> 
 </g> 
 </g> 
 </g> 
 <g> 
 <g> 
 <g transform="matrix(1.0,0.0,0.0,1.0,-34.41667,-18.14975)"> 
 <g fill="rgb(0.0%,0.0%,0.0%)"> 
 <text style="stroke:none" transform="scale(1,-1) translate(2.5,0)" text-anchor="middle"  font-size="10"> 
2</text> 
</g> 
 </g> 
 </g> 
 </g> 
 </g> 
 </g> 
 </g> 
 <g> 
 <g stroke-dasharray="3.0pt,3.0pt" stroke-dashoffset="0.0pt"> 
 <g> 
 <path d=" M  3.68362 -71.62253 C  15.8536 -26.2155 30.64565 -0.59752 61.33037 30.08318  " style="fill:none"/> 
 <g> 
 <g transform="matrix(0.71065,0.71056,-0.71056,0.71065,61.33037,30.08318)"> 
 <g> 
 <path d=" M  3.59995 0.0 C  2.53328 0.2 0.79999 0.79999 -0.4 1.49997 L  -0.4 -1.49997 C  0.79999 -0.79999 2.53328 -0.2 3.59995 0.0  " style="stroke:none"/> 
 </g> 
 </g> 
 </g> 
 <g> 
 <g> 
 <g transform="matrix(1.0,0.0,0.0,1.0,29.41667,-18.14975)"> 
 <g fill="rgb(0.0%,0.0%,0.0%)"> 
 <text style="stroke:none" transform="scale(1,-1) translate(2.5,0)" text-anchor="middle"  font-size="10"> 
3</text> 
</g> 
 </g> 
 </g> 
 </g> 
 </g> 
 </g> 
 </g> 
 </g> 
 </g> 
 </g> 
 </g> 
 </g> 
 
                                                      </g> 
</svg> 
