<?xml-stylesheet href="TE_export636284931831414253.css" type="text/css"?>
<svg xmlns="http://www.w3.org/2000/svg" width="275pt" height="376pt" viewBox="-66.7 -94.3 137.4 187.8">
  <g stroke-width=".5" stroke="#000">
    <g fill="#FF0">
      <path d="M-15.9-78.2H16V-94H-16z"/>
      <text transform="translate(0 -81.5)" text-anchor="middle" font-size="10" stroke="none" fill="#000">
        <tspan font-family="cmr" font-size="12">0</tspan><tspan font-family="cmmi" font-size="12">.</tspan><tspan font-family="cmr" font-size="12">25</tspan>
      </text>
    </g>
    <g fill="#CFF">
      <path d="M8.7 84.6a8.7 8.7 0 1 0-17.4 0 8.7 8.7 0 0 0 17.4 0zm-8.7 0"/>
      <text transform="translate(0 87.8)" text-anchor="middle" font-size="10" stroke="none" fill="#000">
        0
      </text>
    </g>
    <path d="M-7.8 80.1C-62.6 51.4-66.5-44.9-17.2-76" fill="none"/>
    <path d="M-14.1-78c-1 .4-2.8.9-4.2 1l1.6 2.4c.6-1.2 1.8-2.6 2.6-3.4" stroke="none"/>
    <text transform="translate(-57.2 6)" text-anchor="middle" font-size="10" stroke="none">
      2
    </text>
    <g>
      <path d="M14.1-78C66.5-44.9 62.6 51.4 11 78.4" fill="none"/>
      <path d="M7.8 80.1c1-.3 2.8-.6 4.2-.5l-1.4-2.7c-.7 1.2-2 2.5-2.8 3.2" stroke="none"/>
      <text transform="translate(61 6)" text-anchor="middle" font-size="10" stroke="none">
        1.5
      </text>
    </g>
  </g>
</svg>
