<?xml version="1.0" encoding="iso-8859-1" standalone="no"?> 
<?xml-stylesheet href="TE_export636284931831414253.css" type="text/css"?> 
<svg xmlns="http://www.w3.org/2000/svg" xmlns:xlink="http://www.w3.org/1999/xlink" width="275pt" height="376pt" viewBox="-66.65204 -94.29848 137.41737 187.82968 "> 
<g transform="translate(0, 93.5312 ) scale(1,-1) translate(0,94.29848 )"> 
                    <g> 
 <g stroke="rgb(0.0%,0.0%,0.0%)"> 
 <g fill="rgb(0.0%,0.0%,0.0%)"> 
 <g stroke-width="0.4pt"> 
 <g> 
 <g> 
 <g fill="rgb(100.0%,100.0%,0.0%)"> 
 <g> 
 <g fill="rgb(100.0%,100.0%,0.0%)"> 
 <path d=" M  -15.86615 77.38528 h  31.7323 v  15.94592 h  -31.7323 Z  " /> 
 </g> 
 </g> 
 <g> 
 <g transform="matrix(1.0,0.0,0.0,1.0,-12.53317,80.71826)"> 
 <g fill="rgb(0.0%,0.0%,0.0%)"> 
 <text style="stroke:none" transform="scale(1,-1) translate(12.53317,0)" text-anchor="middle"  font-size="10"> 
<tspan font-family="cmr" font-size="12">0</tspan><tspan font-family="cmmi" font-size="12">.</tspan><tspan font-family="cmr" font-size="12">25</tspan></text> 
</g> 
 </g> 
 </g> 
 </g> 
 </g> 
 <g> 
 <g fill="rgb(80.0003%,100.0%,100.0%)"> 
 <g> 
 <g fill="rgb(80.0003%,100.0%,100.0%)"> 
 <path d=" M  8.74023 -85.35825 C  8.74023 -80.5311 4.82715 -76.61801 0.0 -76.61801 C  -4.82715 -76.61801 -8.74023 -80.5311 -8.74023 -85.35825 C  -8.74023 -90.1854 -4.82715 -94.09848 0.0 -94.09848 C  4.82715 -94.09848 8.74023 -90.1854 8.74023 -85.35825 Z M  0.0 -85.35825  " /> 
 </g> 
 </g> 
 <g> 
 <g transform="matrix(1.0,0.0,0.0,1.0,-2.5,-88.58046)"> 
 <g fill="rgb(0.0%,0.0%,0.0%)"> 
 <text style="stroke:none" transform="scale(1,-1) translate(2.5,0)" text-anchor="middle"  font-size="10"> 
0</text> 
</g> 
 </g> 
 </g> 
 </g> 
 </g> 
 <g> 
 <path d=" M  -7.76797 -80.88448 C  -62.56787 -52.1245 -66.45204 44.11671 -17.19098 75.26855  " style="fill:none"/> 
 <g> 
 <g transform="matrix(0.84608,0.53505,-0.53505,0.84608,-17.19098,75.26855)"> 
 <g> 
 <path d=" M  3.59995 0.0 C  2.53328 0.2 0.79999 0.79999 -0.4 1.49997 L  -0.4 -1.49997 C  0.79999 -0.79999 2.53328 -0.2 3.59995 0.0  " style="stroke:none"/> 
 </g> 
 </g> 
 </g> 
 <g> 
 <g> 
 <g transform="matrix(1.0,0.0,0.0,1.0,-59.65456,-6.68634)"> 
 <g fill="rgb(0.0%,0.0%,0.0%)"> 
 <text style="stroke:none" transform="scale(1,-1) translate(2.5,0)" text-anchor="middle"  font-size="10"> 
2</text> 
</g> 
 </g> 
 </g> 
 </g> 
 </g> 
 <g> 
 <path d=" M  14.14513 77.1947 C  66.45204 44.11671 62.56787 -52.1245 10.96191 -79.20827  " style="fill:none"/> 
 <g> 
 <g transform="matrix(-0.88722,-0.46562,0.46562,-0.88722,10.96191,-79.20827)"> 
 <g> 
 <path d=" M  3.59995 0.0 C  2.53328 0.2 0.79999 0.79999 -0.4 1.49997 L  -0.4 -1.49997 C  0.79999 -0.79999 2.53328 -0.2 3.59995 0.0  " style="stroke:none"/> 
 </g> 
 </g> 
 </g> 
 <g> 
 <g> 
 <g transform="matrix(1.0,0.0,0.0,1.0,54.65456,-6.68634)"> 
 <g fill="rgb(0.0%,0.0%,0.0%)"> 
 <text style="stroke:none" transform="scale(1,-1) translate(6.3889,0)" text-anchor="middle"  font-size="10"> 
1.5</text> 
</g> 
 </g> 
 </g> 
 </g> 
 </g> 
 </g> 
 </g> 
 </g> 
 </g> 
 </g> 
 
                                         </g> 
</svg> 
