<?xml-stylesheet href="TE_export636284726407890080.css" type="text/css"?><svg xmlns="http://www.w3.org/2000/svg" width="484" height="512" viewBox="-90.7 -99.6 181.4 192.1"><g stroke="#000" stroke-width=".5"><g fill="#CFF"><path d="M88-49.7a14 14 0 1 0-28 0 14 14 0 0 0 28 0zm-14 0"/><text fill="#000" stroke="none" font-size="10" text-anchor="middle" transform="translate(74 -46.3)">FF3</text></g><g fill="#CFF"><path d="M-60-49.7a14 14 0 1 0-28 0 14 14 0 0 0 28 0zm-14 0"/><text fill="#000" stroke="none" font-size="10" text-anchor="middle" transform="translate(-74 -46.3)">FF1</text></g><g fill="#CFF"><path d="M14 78.3a14 14 0 1 0-28 0 14 14 0 0 0 28 0zm-14 0"/><text fill="#000" stroke="none" font-size="10" text-anchor="middle" transform="translate(0 81.7)">FF2</text></g><path fill="none" d="M-63.8-59.8c35.2-35.3 92.4-35.3 125-2.6"/><path d="M63.8-59.8c-.6-1-1.4-2.6-1.7-4L60-61.5c1.3.3 3 1.1 3.8 1.8" stroke="none"/><text stroke="none" font-size="10" text-anchor="middle" transform="translate(0 -89.8)">0.5</text><path fill="none" d="M-13.7 74.6C-62 61.7-90.5 12.2-78.5-32.5"/><path d="M-77.6-36c-.5 1-1.5 2.5-2.5 3.5l2.9.8c-.4-1.4-.5-3.2-.4-4.3" stroke="none"/><text stroke="none" font-size="10" text-anchor="middle" transform="translate(-78.5 35.8)">2.5</text><path fill="none" d="M77.6-36C90.6 12.2 62 61.7 17.2 73.7"/><path d="M13.7 74.6c1.1 0 3 0 4.3.4l-.8-2.9c-1 1-2.5 2-3.5 2.5" stroke="none"/><text stroke="none" font-size="10" text-anchor="middle" transform="translate(78.5 35.8)">1.5</text><g stroke-dasharray="4 4"><path fill="none" d="M60.2-46c-45.4 12-75 12-116.9.9"/><path d="M-60.2-46c1 .4 2.5 1.4 3.5 2.4l.8-2.9c-1.4.4-3.2.5-4.3.4" stroke="none"/><text stroke="none" font-size="10" text-anchor="middle" transform="translate(0 -40.5)">1.5</text></g><g stroke-dasharray="4 4"><path fill="none" d="M-63.9-39.7C-30.6-6.5-15.9 19-4.6 61"/><path d="M-3.7 64.6c0-1.1 0-3 .4-4.3l-2.9.8c1 1 2 2.5 2.5 3.5" stroke="none"/><text stroke="none" font-size="10" text-anchor="middle" transform="translate(-32 11)">2</text></g><g stroke-dasharray="4 4"><path fill="none" d="M3.7 64.6c12.2-45.5 27-71 57.6-101.7"/><path d="M63.9-39.7c-1 .6-2.6 1.4-4 1.8l2.2 2.1c.4-1.3 1.2-3 1.8-4" stroke="none"/><text stroke="none" font-size="10" text-anchor="middle" transform="translate(32 11)">3</text></g></g></svg>