<?xml-stylesheet href="TE_export636284928316430427.css" type="text/css"?><svg xmlns="http://www.w3.org/2000/svg" width="275pt" height="376pt" viewBox="-64.7 -97.4 135.3 192.3"><g stroke="#000" stroke-width=".5"><g fill="#FF0"><path d="M-11-78.5h22v-18.7h-22z"/><text fill="#000" stroke="none" font-size="10" text-anchor="middle" transform="translate(0 -84)"><tspan font-family="cmmi" font-size="12">T</tspan><tspan baseline-shift="sub"><tspan font-family="cmmi">s</tspan></tspan></text></g><g fill="#CFF"><path d="M11.8 82.9a11.8 11.8 0 1 0-23.6 0 11.8 11.8 0 0 0 23.6 0zM0 82.9"/><text fill="#000" stroke="none" font-size="10" text-anchor="middle" transform="translate(0 85.5)"><tspan font-family="cmmi">T</tspan><tspan baseline-shift="sub"><tspan font-family="cmr" font-size="7">2</tspan></tspan></text></g><path fill="none" d="M-10.4 76.8c-53.6-30.5-54.1-127-4-156.4"/><path stroke="none" d="M-11.2-81.4c-1 .4-2.9.7-4.3.7l1.6 2.6c.6-1.2 1.8-2.6 2.7-3.3"/><text stroke="none" font-size="10" text-anchor="middle" transform="translate(-57 1.2)">2</text><g><path fill="none" d="M11.2-81.4C64.5-50.3 64 46.3 13.6 75.1"/><path stroke="none" d="M10.4 76.8c1-.3 2.9-.6 4.3-.6l-1.5-2.6c-.7 1.2-2 2.5-2.8 3.2"/><text stroke="none" font-size="10" text-anchor="middle" transform="translate(60.8 1.2)">1.5</text></g></g></svg>