<?xml version="1.0" encoding="UTF-8" standalone="no"?>
<!DOCTYPE svg PUBLIC "-//W3C//DTD SVG 1.1//EN"
 "http://www.w3.org/Graphics/SVG/1.1/DTD/svg11.dtd">
<!-- Generated by graphviz version 2.40.1 (20161225.0304)
 -->
<!-- Title: lib/bench/BM_lmi.cpp Pages: 1 -->
<!--zoomable 263 -->
<svg id="main" version="1.1" xmlns="http://www.w3.org/2000/svg" xmlns:xlink="http://www.w3.org/1999/xlink" xml:space="preserve" onload="init(evt)">
<style type="text/css"><![CDATA[
.edge:hover path { stroke: red; }
.edge:hover polygon { stroke: red; fill: red; }
]]></style>
<script type="text/javascript"><![CDATA[
var edges = document.getElementsByTagName('g');
if (edges && edges.length) {
  for (var i=0;i<edges.length;i++) {
    if (edges[i].id.substr(0,4)=='edge') {
      edges[i].setAttribute('class','edge');
    }
  }
}
]]></script>
        <defs>
                <circle id="rim" cx="0" cy="0" r="7"/>
                <circle id="rim2" cx="0" cy="0" r="3.5"/>
                <g id="zoomPlus">
                        <use xlink:href="#rim" fill="#404040">
                                <set attributeName="fill" to="#808080" begin="zoomplus.mouseover" end="zoomplus.mouseout"/>
                        </use>
                        <path d="M-4,0h8M0,-4v8" fill="none" stroke="white" stroke-width="1.5" pointer-events="none"/>
                </g>
                <g id="zoomMin">
                        <use xlink:href="#rim" fill="#404040">
                                <set attributeName="fill" to="#808080" begin="zoomminus.mouseover" end="zoomminus.mouseout"/>
                        </use>
                        <path d="M-4,0h8" fill="none" stroke="white" stroke-width="1.5" pointer-events="none"/>
                </g>
                <g id="dirArrow">
                        <path fill="none" stroke="white" stroke-width="1.5" d="M0,-3.0v7 M-2.5,-0.5L0,-3.0L2.5,-0.5"/>
                </g>
               <g id="resetDef">
                       <use xlink:href="#rim2" fill="#404040">
                               <set attributeName="fill" to="#808080" begin="reset.mouseover" end="reset.mouseout"/>
                       </use>
               </g>
        </defs>

<script type="text/javascript">
var viewWidth = 784;
var viewHeight = 263;
var sectionId = 'dynsection-0';
</script>
<script xlink:href="svgpan.js"/>
<svg id="graph" class="graph">
<g id="viewport">
<title>lib/bench/BM_lmi.cpp</title>
<polygon fill="#ffffff" stroke="transparent" points="-4,4 -4,-259 779.5,-259 779.5,4 -4,4"/>
<!-- Node0 -->
<g id="node1" class="node">
<title>Node0</title>
<polygon fill="#bfbfbf" stroke="#000000" points="365,-235.5 365,-254.5 475,-254.5 475,-235.5 365,-235.5"/>
<text text-anchor="middle" x="420" y="-242.5" font-family="Helvetica,sans-Serif" font-size="10.00" fill="#000000">lib/bench/BM_lmi.cpp</text>
</g>
<!-- Node1 -->
<g id="node2" class="node">
<title>Node1</title>
<polygon fill="#ffffff" stroke="#bfbfbf" points="0,-174 0,-193 124,-193 124,-174 0,-174"/>
<text text-anchor="middle" x="62" y="-181" font-family="Helvetica,sans-Serif" font-size="10.00" fill="#000000">benchmark/benchmark.h</text>
</g>
<!-- Node0&#45;&gt;Node1 -->
<g id="edge1" class="edge">
<title>Node0&#45;&gt;Node1</title>
<path fill="none" stroke="#191970" d="M364.8209,-237.0937C306.9182,-228.5779 213.3248,-214.1927 133,-199 126.817,-197.8306 120.3484,-196.5285 113.94,-195.1898"/>
<polygon fill="#191970" stroke="#191970" points="114.4782,-191.7261 103.969,-193.0698 113.0224,-198.573 114.4782,-191.7261"/>
</g>
<!-- Node2 -->
<g id="node3" class="node">
<title>Node2</title>
<g id="a_node3"><a xlink:href="cutting__plane_8hpp.html" target="_top" xlink:title="ellcpp/cutting_plane.hpp">
<polygon fill="#ffffff" stroke="#000000" points="142,-174 142,-193 264,-193 264,-174 142,-174"/>
<text text-anchor="middle" x="203" y="-181" font-family="Helvetica,sans-Serif" font-size="10.00" fill="#000000">ellcpp/cutting_plane.hpp</text>
</a>
</g>
</g>
<!-- Node0&#45;&gt;Node2 -->
<g id="edge2" class="edge">
<title>Node0&#45;&gt;Node2</title>
<path fill="none" stroke="#191970" d="M386.0938,-235.3906C348.4321,-224.7169 287.5298,-207.4566 246.4115,-195.8033"/>
<polygon fill="#191970" stroke="#191970" points="247.2436,-192.4013 236.6682,-193.0419 245.3349,-199.1361 247.2436,-192.4013"/>
</g>
<!-- Node5 -->
<g id="node6" class="node">
<title>Node5</title>
<g id="a_node6"><a xlink:href="ell_8hpp.html" target="_top" xlink:title="ellcpp/ell.hpp">
<polygon fill="#ffffff" stroke="#000000" points="282,-174 282,-193 356,-193 356,-174 282,-174"/>
<text text-anchor="middle" x="319" y="-181" font-family="Helvetica,sans-Serif" font-size="10.00" fill="#000000">ellcpp/ell.hpp</text>
</a>
</g>
</g>
<!-- Node0&#45;&gt;Node5 -->
<g id="edge5" class="edge">
<title>Node0&#45;&gt;Node5</title>
<path fill="none" stroke="#191970" d="M404.2188,-235.3906C387.9125,-225.4616 362.246,-209.833 343.3386,-198.3201"/>
<polygon fill="#191970" stroke="#191970" points="345.0319,-195.2533 334.6704,-193.0419 341.3913,-201.2322 345.0319,-195.2533"/>
</g>
<!-- Node7 -->
<g id="node8" class="node">
<title>Node7</title>
<g id="a_node8"><a xlink:href="lmi__old__oracle_8hpp.html" target="_top" xlink:title="ellcpp/oracles/lmi\l_old_oracle.hpp">
<polygon fill="#ffffff" stroke="#000000" points="484,-168.5 484,-198.5 576,-198.5 576,-168.5 484,-168.5"/>
<text text-anchor="start" x="492" y="-186.5" font-family="Helvetica,sans-Serif" font-size="10.00" fill="#000000">ellcpp/oracles/lmi</text>
<text text-anchor="middle" x="530" y="-175.5" font-family="Helvetica,sans-Serif" font-size="10.00" fill="#000000">_old_oracle.hpp</text>
</a>
</g>
</g>
<!-- Node0&#45;&gt;Node7 -->
<g id="edge9" class="edge">
<title>Node0&#45;&gt;Node7</title>
<path fill="none" stroke="#191970" d="M437.1875,-235.3906C452.4193,-226.8747 475.1503,-214.166 494.304,-203.4573"/>
<polygon fill="#191970" stroke="#191970" points="496.0705,-206.4796 503.091,-198.5446 492.6545,-200.3697 496.0705,-206.4796"/>
</g>
<!-- Node14 -->
<g id="node15" class="node">
<title>Node14</title>
<g id="a_node15"><a xlink:href="lmi__oracle_8hpp.html" target="_top" xlink:title="ellcpp/oracles/lmi\l_oracle.hpp">
<polygon fill="#ffffff" stroke="#000000" points="374,-168.5 374,-198.5 466,-198.5 466,-168.5 374,-168.5"/>
<text text-anchor="start" x="382" y="-186.5" font-family="Helvetica,sans-Serif" font-size="10.00" fill="#000000">ellcpp/oracles/lmi</text>
<text text-anchor="middle" x="420" y="-175.5" font-family="Helvetica,sans-Serif" font-size="10.00" fill="#000000">_oracle.hpp</text>
</a>
</g>
</g>
<!-- Node0&#45;&gt;Node14 -->
<g id="edge19" class="edge">
<title>Node0&#45;&gt;Node14</title>
<path fill="none" stroke="#191970" d="M420,-235.3906C420,-228.2234 420,-218.0862 420,-208.671"/>
<polygon fill="#191970" stroke="#191970" points="423.5001,-208.5446 420,-198.5446 416.5001,-208.5446 423.5001,-208.5446"/>
</g>
<!-- Node15 -->
<g id="node16" class="node">
<title>Node15</title>
<polygon fill="#ffffff" stroke="#bfbfbf" points="594,-174 594,-193 638,-193 638,-174 594,-174"/>
<text text-anchor="middle" x="616" y="-181" font-family="Helvetica,sans-Serif" font-size="10.00" fill="#000000">vector</text>
</g>
<!-- Node0&#45;&gt;Node15 -->
<g id="edge24" class="edge">
<title>Node0&#45;&gt;Node15</title>
<path fill="none" stroke="#191970" d="M462.7716,-235.4659C496.5155,-227.3767 544.4854,-214.6101 585,-199 586.3686,-198.4727 587.7577,-197.9053 589.1508,-197.3101"/>
<polygon fill="#191970" stroke="#191970" points="590.6232,-200.4854 598.232,-193.1126 587.6862,-194.1314 590.6232,-200.4854"/>
</g>
<!-- Node16 -->
<g id="node17" class="node">
<title>Node16</title>
<polygon fill="#ffffff" stroke="#bfbfbf" points="656.5,-174 656.5,-193 775.5,-193 775.5,-174 656.5,-174"/>
<text text-anchor="middle" x="716" y="-181" font-family="Helvetica,sans-Serif" font-size="10.00" fill="#000000">xtensor&#45;blas/xlinalg.hpp</text>
</g>
<!-- Node0&#45;&gt;Node16 -->
<g id="edge25" class="edge">
<title>Node0&#45;&gt;Node16</title>
<path fill="none" stroke="#191970" d="M468.7704,-235.4251C514.7807,-226.3192 585.6553,-212.1042 647,-199 652.4781,-197.8298 658.1952,-196.5844 663.8922,-195.3277"/>
<polygon fill="#191970" stroke="#191970" points="665.0657,-198.6524 674.0689,-193.0674 663.5479,-191.819 665.0657,-198.6524"/>
</g>
<!-- Node3 -->
<g id="node4" class="node">
<title>Node3</title>
<polygon fill="#ffffff" stroke="#bfbfbf" points="184,-112.5 184,-131.5 228,-131.5 228,-112.5 184,-112.5"/>
<text text-anchor="middle" x="206" y="-119.5" font-family="Helvetica,sans-Serif" font-size="10.00" fill="#000000">cmath</text>
</g>
<!-- Node2&#45;&gt;Node3 -->
<g id="edge3" class="edge">
<title>Node2&#45;&gt;Node3</title>
<path fill="none" stroke="#191970" d="M203.4688,-173.8906C203.8846,-165.3657 204.5054,-152.6392 205.0281,-141.9235"/>
<polygon fill="#191970" stroke="#191970" points="208.5332,-141.9035 205.5246,-131.7449 201.5415,-141.5624 208.5332,-141.9035"/>
</g>
<!-- Node4 -->
<g id="node5" class="node">
<title>Node4</title>
<polygon fill="#ffffff" stroke="#bfbfbf" points="251,-112.5 251,-131.5 289,-131.5 289,-112.5 251,-112.5"/>
<text text-anchor="middle" x="270" y="-119.5" font-family="Helvetica,sans-Serif" font-size="10.00" fill="#000000">tuple</text>
</g>
<!-- Node2&#45;&gt;Node4 -->
<g id="edge4" class="edge">
<title>Node2&#45;&gt;Node4</title>
<path fill="none" stroke="#191970" d="M213.4688,-173.8906C223.7337,-164.4683 239.5903,-149.9134 251.9006,-138.6137"/>
<polygon fill="#191970" stroke="#191970" points="254.3834,-141.0856 259.3837,-131.7449 249.6499,-135.9287 254.3834,-141.0856"/>
</g>
<!-- Node5&#45;&gt;Node3 -->
<g id="edge6" class="edge">
<title>Node5&#45;&gt;Node3</title>
<path fill="none" stroke="#191970" d="M301.3438,-173.8906C282.8514,-163.8262 253.599,-147.9057 232.3692,-136.3514"/>
<polygon fill="#191970" stroke="#191970" points="233.9888,-133.2481 223.5323,-131.5419 230.6425,-139.3965 233.9888,-133.2481"/>
</g>
<!-- Node5&#45;&gt;Node4 -->
<g id="edge7" class="edge">
<title>Node5&#45;&gt;Node4</title>
<path fill="none" stroke="#191970" d="M311.3438,-173.8906C304.0511,-164.7376 292.8993,-150.7409 284.0148,-139.59"/>
<polygon fill="#191970" stroke="#191970" points="286.733,-137.3849 277.7642,-131.7449 281.2583,-141.747 286.733,-137.3849"/>
</g>
<!-- Node6 -->
<g id="node7" class="node">
<title>Node6</title>
<polygon fill="#ffffff" stroke="#bfbfbf" points="350,-.5 350,-19.5 448,-19.5 448,-.5 350,-.5"/>
<text text-anchor="middle" x="399" y="-7.5" font-family="Helvetica,sans-Serif" font-size="10.00" fill="#000000">xtensor/xarray.hpp</text>
</g>
<!-- Node5&#45;&gt;Node6 -->
<g id="edge8" class="edge">
<title>Node5&#45;&gt;Node6</title>
<path fill="none" stroke="#191970" d="M322.2861,-173.9945C329.8442,-152.4973 349.4741,-98.6913 371,-56 375.771,-46.538 381.806,-36.4373 387.0505,-28.1184"/>
<polygon fill="#191970" stroke="#191970" points="390.0565,-29.915 392.5264,-19.612 384.1706,-26.126 390.0565,-29.915"/>
</g>
<!-- Node7&#45;&gt;Node6 -->
<g id="edge18" class="edge">
<title>Node7&#45;&gt;Node6</title>
<path fill="none" stroke="#191970" d="M566.3517,-168.3589C581.4848,-160.0205 597.487,-148.0521 606,-132 614.2434,-116.4563 616.7161,-73.9924 601,-56 582.439,-34.7506 510.7608,-22.2698 458.0419,-15.7907"/>
<polygon fill="#191970" stroke="#191970" points="458.4471,-12.3143 448.1044,-14.6121 457.6225,-19.2656 458.4471,-12.3143"/>
</g>
<!-- Node8 -->
<g id="node9" class="node">
<title>Node8</title>
<g id="a_node9"><a xlink:href="chol__ext_8hpp.html" target="_top" xlink:title="chol_ext.hpp">
<polygon fill="#ffffff" stroke="#000000" points="457,-112.5 457,-131.5 529,-131.5 529,-112.5 457,-112.5"/>
<text text-anchor="middle" x="493" y="-119.5" font-family="Helvetica,sans-Serif" font-size="10.00" fill="#000000">chol_ext.hpp</text>
</a>
</g>
</g>
<!-- Node7&#45;&gt;Node8 -->
<g id="edge10" class="edge">
<title>Node7&#45;&gt;Node8</title>
<path fill="none" stroke="#191970" d="M520.8539,-168.2977C515.8249,-159.9388 509.5445,-149.4997 504.2209,-140.6509"/>
<polygon fill="#191970" stroke="#191970" points="507.0785,-138.6114 498.9242,-131.8469 501.0803,-142.2201 507.0785,-138.6114"/>
</g>
<!-- Node12 -->
<g id="node13" class="node">
<title>Node12</title>
<polygon fill="#ffffff" stroke="#bfbfbf" points="385.5,-112.5 385.5,-131.5 438.5,-131.5 438.5,-112.5 385.5,-112.5"/>
<text text-anchor="middle" x="412" y="-119.5" font-family="Helvetica,sans-Serif" font-size="10.00" fill="#000000">gsl/span</text>
</g>
<!-- Node7&#45;&gt;Node12 -->
<g id="edge16" class="edge">
<title>Node7&#45;&gt;Node12</title>
<path fill="none" stroke="#191970" d="M501.134,-168.4554C482.3089,-158.644 457.889,-145.9167 439.3708,-136.2653"/>
<polygon fill="#191970" stroke="#191970" points="440.7713,-133.0484 430.2858,-131.5303 437.536,-139.2559 440.7713,-133.0484"/>
</g>
<!-- Node13 -->
<g id="node14" class="node">
<title>Node13</title>
<polygon fill="#ffffff" stroke="#bfbfbf" points="547,-112.5 547,-131.5 597,-131.5 597,-112.5 547,-112.5"/>
<text text-anchor="middle" x="572" y="-119.5" font-family="Helvetica,sans-Serif" font-size="10.00" fill="#000000">optional</text>
</g>
<!-- Node7&#45;&gt;Node13 -->
<g id="edge17" class="edge">
<title>Node7&#45;&gt;Node13</title>
<path fill="none" stroke="#191970" d="M540.382,-168.2977C546.1513,-159.8498 553.3716,-149.2773 559.4553,-140.369"/>
<polygon fill="#191970" stroke="#191970" points="562.5259,-142.0788 565.2753,-131.8469 556.7453,-138.1311 562.5259,-142.0788"/>
</g>
<!-- Node8&#45;&gt;Node6 -->
<g id="edge15" class="edge">
<title>Node8&#45;&gt;Node6</title>
<path fill="none" stroke="#191970" d="M468.7781,-112.4113C452.5155,-104.8103 431.7991,-92.6824 419,-76 408.7638,-62.6581 403.7394,-44.0894 401.2892,-30.0452"/>
<polygon fill="#191970" stroke="#191970" points="404.7228,-29.3336 399.8257,-19.9384 397.795,-30.3368 404.7228,-29.3336"/>
</g>
<!-- Node9 -->
<g id="node10" class="node">
<title>Node9</title>
<g id="a_node10"><a xlink:href="utility_8hpp.html" target="_top" xlink:title="ellcpp/utility.hpp">
<polygon fill="#ffffff" stroke="#000000" points="504.5,-56.5 504.5,-75.5 591.5,-75.5 591.5,-56.5 504.5,-56.5"/>
<text text-anchor="middle" x="548" y="-63.5" font-family="Helvetica,sans-Serif" font-size="10.00" fill="#000000">ellcpp/utility.hpp</text>
</a>
</g>
</g>
<!-- Node8&#45;&gt;Node9 -->
<g id="edge11" class="edge">
<title>Node8&#45;&gt;Node9</title>
<path fill="none" stroke="#191970" d="M502.5803,-112.2455C510.5458,-104.1352 522.0641,-92.4075 531.5079,-82.7919"/>
<polygon fill="#191970" stroke="#191970" points="534.0195,-85.2297 538.5295,-75.6427 529.0253,-80.3247 534.0195,-85.2297"/>
</g>
<!-- Node11 -->
<g id="node12" class="node">
<title>Node11</title>
<polygon fill="#ffffff" stroke="#bfbfbf" points="427.5,-56.5 427.5,-75.5 486.5,-75.5 486.5,-56.5 427.5,-56.5"/>
<text text-anchor="middle" x="457" y="-63.5" font-family="Helvetica,sans-Serif" font-size="10.00" fill="#000000">stdexcept</text>
</g>
<!-- Node8&#45;&gt;Node11 -->
<g id="edge14" class="edge">
<title>Node8&#45;&gt;Node11</title>
<path fill="none" stroke="#191970" d="M486.7293,-112.2455C481.7736,-104.5367 474.717,-93.5598 468.7224,-84.2348"/>
<polygon fill="#191970" stroke="#191970" points="471.5506,-82.1618 463.1989,-75.6427 465.6624,-85.9471 471.5506,-82.1618"/>
</g>
<!-- Node9&#45;&gt;Node6 -->
<g id="edge13" class="edge">
<title>Node9&#45;&gt;Node6</title>
<path fill="none" stroke="#191970" d="M522.386,-56.3733C497.9313,-47.1822 460.8946,-33.2624 433.7791,-23.0713"/>
<polygon fill="#191970" stroke="#191970" points="434.8719,-19.7431 424.2798,-19.5011 432.4091,-26.2956 434.8719,-19.7431"/>
</g>
<!-- Node10 -->
<g id="node11" class="node">
<title>Node10</title>
<polygon fill="#ffffff" stroke="#bfbfbf" points="517,-.5 517,-19.5 579,-19.5 579,-.5 517,-.5"/>
<text text-anchor="middle" x="548" y="-7.5" font-family="Helvetica,sans-Serif" font-size="10.00" fill="#000000">type_traits</text>
</g>
<!-- Node9&#45;&gt;Node10 -->
<g id="edge12" class="edge">
<title>Node9&#45;&gt;Node10</title>
<path fill="none" stroke="#191970" d="M548,-56.2455C548,-48.9382 548,-38.6944 548,-29.7046"/>
<polygon fill="#191970" stroke="#191970" points="551.5001,-29.6426 548,-19.6427 544.5001,-29.6427 551.5001,-29.6426"/>
</g>
<!-- Node14&#45;&gt;Node6 -->
<g id="edge23" class="edge">
<title>Node14&#45;&gt;Node6</title>
<path fill="none" stroke="#191970" d="M402.3116,-168.2622C392.8322,-158.8913 382.0822,-146.0163 377,-132 364.2898,-96.946 378.8591,-53.462 389.6059,-29.0129"/>
<polygon fill="#191970" stroke="#191970" points="392.8556,-30.3247 393.887,-19.7802 386.505,-27.38 392.8556,-30.3247"/>
</g>
<!-- Node14&#45;&gt;Node8 -->
<g id="edge20" class="edge">
<title>Node14&#45;&gt;Node8</title>
<path fill="none" stroke="#191970" d="M438.0449,-168.2977C448.8114,-159.2274 462.4851,-147.7077 473.4995,-138.4285"/>
<polygon fill="#191970" stroke="#191970" points="475.9191,-140.9667 481.3118,-131.8469 471.4089,-135.6132 475.9191,-140.9667"/>
</g>
<!-- Node14&#45;&gt;Node12 -->
<g id="edge21" class="edge">
<title>Node14&#45;&gt;Node12</title>
<path fill="none" stroke="#191970" d="M418.0225,-168.2977C416.9814,-160.2945 415.6923,-150.3843 414.5742,-141.7889"/>
<polygon fill="#191970" stroke="#191970" points="418.0417,-141.3119 413.2809,-131.8469 411.1002,-142.2149 418.0417,-141.3119"/>
</g>
<!-- Node14&#45;&gt;Node13 -->
<g id="edge22" class="edge">
<title>Node14&#45;&gt;Node13</title>
<path fill="none" stroke="#191970" d="M457.1834,-168.4554C482.2113,-158.329 514.9163,-145.0964 539.0166,-135.3453"/>
<polygon fill="#191970" stroke="#191970" points="540.4882,-138.5256 548.4454,-131.5303 537.8627,-132.0366 540.4882,-138.5256"/>
</g>
</g>
</svg>
        <g id="navigator" transform="translate(0 0)" fill="#404254">
                <rect fill="#f2f5e9" fill-opacity="0.5" stroke="#606060" stroke-width=".5" x="0" y="0" width="60" height="60"/>
                <use id="zoomplus" xlink:href="#zoomPlus" x="17" y="9" onmousedown="handleZoom(evt,'in')"/>
                <use id="zoomminus" xlink:href="#zoomMin" x="42" y="9" onmousedown="handleZoom(evt,'out')"/>
                <use id="reset" xlink:href="#resetDef" x="30" y="36" onmousedown="handleReset()"/>
                <g id="arrowUp" xlink:href="#dirArrow" transform="translate(30 24)" onmousedown="handlePan(0,-1)">
                  <use xlink:href="#rim" fill="#404040">
                        <set attributeName="fill" to="#808080" begin="arrowUp.mouseover" end="arrowUp.mouseout"/>
                  </use>
                  <path fill="none" stroke="white" stroke-width="1.5" d="M0,-3.0v7 M-2.5,-0.5L0,-3.0L2.5,-0.5"/>
                </g>
                <g id="arrowRight" xlink:href="#dirArrow" transform="rotate(90) translate(36 -43)" onmousedown="handlePan(1,0)">
                  <use xlink:href="#rim" fill="#404040">
                        <set attributeName="fill" to="#808080" begin="arrowRight.mouseover" end="arrowRight.mouseout"/>
                  </use>
                  <path fill="none" stroke="white" stroke-width="1.5" d="M0,-3.0v7 M-2.5,-0.5L0,-3.0L2.5,-0.5"/>
                </g>
                <g id="arrowDown" xlink:href="#dirArrow" transform="rotate(180) translate(-30 -48)" onmousedown="handlePan(0,1)">
                  <use xlink:href="#rim" fill="#404040">
                        <set attributeName="fill" to="#808080" begin="arrowDown.mouseover" end="arrowDown.mouseout"/>
                  </use>
                  <path fill="none" stroke="white" stroke-width="1.5" d="M0,-3.0v7 M-2.5,-0.5L0,-3.0L2.5,-0.5"/>
                </g>
                <g id="arrowLeft" xlink:href="#dirArrow" transform="rotate(270) translate(-36 17)" onmousedown="handlePan(-1,0)">
                  <use xlink:href="#rim" fill="#404040">
                        <set attributeName="fill" to="#808080" begin="arrowLeft.mouseover" end="arrowLeft.mouseout"/>
                  </use>
                  <path fill="none" stroke="white" stroke-width="1.5" d="M0,-3.0v7 M-2.5,-0.5L0,-3.0L2.5,-0.5"/>
                </g>
        </g>
        <svg viewBox="0 0 15 15" width="100%" height="30px" preserveAspectRatio="xMaxYMin meet">
         <g id="arrow_out" transform="scale(0.3 0.3)">
          <a xlink:href="BM__lmi_8cpp__incl_org.svg" target="_base">
           <rect id="button" ry="5" rx="5" y="6" x="6" height="38" width="38"
                fill="#f2f5e9" fill-opacity="0.5" stroke="#606060" stroke-width="1.0"/>
           <path id="arrow"
             d="M 11.500037,31.436501 C 11.940474,20.09759 22.043105,11.32322 32.158766,21.979434 L 37.068811,17.246167 C 37.068811,17.246167 37.088388,32 37.088388,32 L 22.160133,31.978069 C 22.160133,31.978069 26.997745,27.140456 26.997745,27.140456 C 18.528582,18.264221 13.291696,25.230495 11.500037,31.436501 z"
             style="fill:#404040;"/>
          </a>
         </g>
        </svg>
</svg>
