<?xml version="1.0" encoding="UTF-8" standalone="no"?>
<!DOCTYPE svg PUBLIC "-//W3C//DTD SVG 1.1//EN"
 "http://www.w3.org/Graphics/SVG/1.1/DTD/svg11.dtd">
<!-- Generated by graphviz version 2.40.1 (20161225.0304)
 -->
<!-- Title: BM_Lowpass_single_cut Pages: 1 -->
<svg width="366pt" height="66pt"
 viewBox="0.00 0.00 366.00 66.00" xmlns="http://www.w3.org/2000/svg" xmlns:xlink="http://www.w3.org/1999/xlink">
<g id="graph0" class="graph" transform="scale(1 1) rotate(0) translate(4 62)">
<title>BM_Lowpass_single_cut</title>
<polygon fill="#ffffff" stroke="transparent" points="-4,4 -4,-62 362,-62 362,4 -4,4"/>
<!-- Node16 -->
<g id="node1" class="node">
<title>Node16</title>
<polygon fill="#bfbfbf" stroke="#000000" points="0,-19.5 0,-38.5 125,-38.5 125,-19.5 0,-19.5"/>
<text text-anchor="middle" x="62.5" y="-26.5" font-family="Helvetica,sans-Serif" font-size="10.00" fill="#000000">BM_Lowpass_single_cut</text>
</g>
<!-- Node17 -->
<g id="node2" class="node">
<title>Node17</title>
<g id="a_node2"><a xlink:href="BM__lowpass_8cpp.html#a53d8f44dcc8f947b0ae418d7c04f3c48" target="_top" xlink:title="run_lowpass">
<polygon fill="#ffffff" stroke="#000000" points="161,-19.5 161,-38.5 232,-38.5 232,-19.5 161,-19.5"/>
<text text-anchor="middle" x="196.5" y="-26.5" font-family="Helvetica,sans-Serif" font-size="10.00" fill="#000000">run_lowpass</text>
</a>
</g>
</g>
<!-- Node16&#45;&gt;Node17 -->
<g id="edge1" class="edge">
<title>Node16&#45;&gt;Node17</title>
<path fill="none" stroke="#191970" d="M125.1843,-29C133.8051,-29 142.5216,-29 150.7597,-29"/>
<polygon fill="#191970" stroke="#191970" points="150.8956,-32.5001 160.8956,-29 150.8956,-25.5001 150.8956,-32.5001"/>
</g>
<!-- Node18 -->
<g id="node3" class="node">
<title>Node18</title>
<g id="a_node3"><a xlink:href="utility_8hpp.html#ae3041aeb9cef3e9f4416c91d3d43f86a" target="_top" xlink:title="zeros">
<polygon fill="#ffffff" stroke="#000000" points="292.5,-38.5 292.5,-57.5 333.5,-57.5 333.5,-38.5 292.5,-38.5"/>
<text text-anchor="middle" x="313" y="-45.5" font-family="Helvetica,sans-Serif" font-size="10.00" fill="#000000">zeros</text>
</a>
</g>
</g>
<!-- Node17&#45;&gt;Node18 -->
<g id="edge2" class="edge">
<title>Node17&#45;&gt;Node18</title>
<path fill="none" stroke="#191970" d="M232.0869,-34.8039C248.0712,-37.4108 266.7529,-40.4576 282.1358,-42.9664"/>
<polygon fill="#191970" stroke="#191970" points="281.7517,-46.4499 292.1847,-44.6052 282.8785,-39.5412 281.7517,-46.4499"/>
</g>
<!-- Node19 -->
<g id="node4" class="node">
<title>Node19</title>
<g id="a_node4"><a xlink:href="cutting__plane_8hpp.html#af4c62406049b0dac9f9f8733fa2ad6af" target="_top" xlink:title="Cutting&#45;plane method for solving convex problem. ">
<polygon fill="#ffffff" stroke="#000000" points="268,-.5 268,-19.5 358,-19.5 358,-.5 268,-.5"/>
<text text-anchor="middle" x="313" y="-7.5" font-family="Helvetica,sans-Serif" font-size="10.00" fill="#000000">cutting_plane_dc</text>
</a>
</g>
</g>
<!-- Node17&#45;&gt;Node19 -->
<g id="edge3" class="edge">
<title>Node17&#45;&gt;Node19</title>
<path fill="none" stroke="#191970" d="M232.0869,-23.1961C240.1669,-21.8784 248.9361,-20.4482 257.6201,-19.0319"/>
<polygon fill="#191970" stroke="#191970" points="258.4226,-22.4474 267.7288,-17.3833 257.2958,-15.5386 258.4226,-22.4474"/>
</g>
</g>
</svg>
