<?xml version="1.0" encoding="UTF-8" standalone="no"?>
<!DOCTYPE svg PUBLIC "-//W3C//DTD SVG 1.1//EN"
 "http://www.w3.org/Graphics/SVG/1.1/DTD/svg11.dtd">
<!-- Generated by graphviz version 2.40.1 (20161225.0304)
 -->
<!-- Title: BM_Lowpass_parallel_cut Pages: 1 -->
<svg width="533pt" height="142pt"
 viewBox="0.00 0.00 533.00 142.00" xmlns="http://www.w3.org/2000/svg" xmlns:xlink="http://www.w3.org/1999/xlink">
<g id="graph0" class="graph" transform="scale(1 1) rotate(0) translate(4 138)">
<title>BM_Lowpass_parallel_cut</title>
<polygon fill="#ffffff" stroke="transparent" points="-4,4 -4,-138 529,-138 529,4 -4,4"/>
<!-- Node8 -->
<g id="node1" class="node">
<title>Node8</title>
<polygon fill="#bfbfbf" stroke="#000000" points="0,-57.5 0,-76.5 131,-76.5 131,-57.5 0,-57.5"/>
<text text-anchor="middle" x="65.5" y="-64.5" font-family="Helvetica,sans-Serif" font-size="10.00" fill="#000000">BM_Lowpass_parallel_cut</text>
</g>
<!-- Node9 -->
<g id="node2" class="node">
<title>Node9</title>
<g id="a_node2"><a xlink:href="BM__lowpass_8cpp.html#a8a1617cc178804ecaef8c48d1df8a731" target="_top" xlink:title="BENCHMARK">
<polygon fill="#ffffff" stroke="#000000" points="188.5,-114.5 188.5,-133.5 270.5,-133.5 270.5,-114.5 188.5,-114.5"/>
<text text-anchor="middle" x="229.5" y="-121.5" font-family="Helvetica,sans-Serif" font-size="10.00" fill="#000000">BENCHMARK</text>
</a>
</g>
</g>
<!-- Node8&#45;&gt;Node9 -->
<g id="edge1" class="edge">
<title>Node8&#45;&gt;Node9</title>
<path fill="none" stroke="#191970" d="M89.9565,-76.6511C110.4191,-84.6065 140.4469,-96.0034 167,-105 173.4229,-107.1762 180.2553,-109.3724 186.9554,-111.4605"/>
<polygon fill="#191970" stroke="#191970" points="186.0272,-114.8367 196.6142,-114.4276 188.0828,-108.1453 186.0272,-114.8367"/>
</g>
<!-- Node10 -->
<g id="node3" class="node">
<title>Node10</title>
<g id="a_node3"><a xlink:href="BM__lowpass_8cpp.html#a5851750faa9cfec10f7cad1f3b89697e" target="_top" xlink:title="BENCHMARK_MAIN">
<polygon fill="#ffffff" stroke="#000000" points="173,-76.5 173,-95.5 286,-95.5 286,-76.5 173,-76.5"/>
<text text-anchor="middle" x="229.5" y="-83.5" font-family="Helvetica,sans-Serif" font-size="10.00" fill="#000000">BENCHMARK_MAIN</text>
</a>
</g>
</g>
<!-- Node8&#45;&gt;Node10 -->
<g id="edge2" class="edge">
<title>Node8&#45;&gt;Node10</title>
<path fill="none" stroke="#191970" d="M131.2601,-74.6185C141.6195,-75.8187 152.3392,-77.0606 162.7215,-78.2635"/>
<polygon fill="#191970" stroke="#191970" points="162.6291,-81.7761 172.9654,-79.4503 163.4347,-74.8226 162.6291,-81.7761"/>
</g>
<!-- Node11 -->
<g id="node4" class="node">
<title>Node11</title>
<g id="a_node4"><a xlink:href="BM__lowpass_8cpp.html#a1e06b64e99b1bed3dc37e38dfc638987" target="_top" xlink:title="BM_Lowpass_single_cut">
<polygon fill="#ffffff" stroke="#000000" points="167,-38.5 167,-57.5 292,-57.5 292,-38.5 167,-38.5"/>
<text text-anchor="middle" x="229.5" y="-45.5" font-family="Helvetica,sans-Serif" font-size="10.00" fill="#000000">BM_Lowpass_single_cut</text>
</a>
</g>
</g>
<!-- Node8&#45;&gt;Node11 -->
<g id="edge3" class="edge">
<title>Node8&#45;&gt;Node11</title>
<path fill="none" stroke="#191970" d="M131.2601,-59.3815C139.7147,-58.402 148.4093,-57.3947 156.9646,-56.4035"/>
<polygon fill="#191970" stroke="#191970" points="157.3903,-59.8777 166.9211,-55.25 156.5847,-52.9242 157.3903,-59.8777"/>
</g>
<!-- Node12 -->
<g id="node5" class="node">
<title>Node12</title>
<g id="a_node5"><a xlink:href="BM__lowpass_8cpp.html#a53d8f44dcc8f947b0ae418d7c04f3c48" target="_top" xlink:title="run_lowpass">
<polygon fill="#ffffff" stroke="#000000" points="328,-19.5 328,-38.5 399,-38.5 399,-19.5 328,-19.5"/>
<text text-anchor="middle" x="363.5" y="-26.5" font-family="Helvetica,sans-Serif" font-size="10.00" fill="#000000">run_lowpass</text>
</a>
</g>
</g>
<!-- Node8&#45;&gt;Node12 -->
<g id="edge7" class="edge">
<title>Node8&#45;&gt;Node12</title>
<path fill="none" stroke="#191970" d="M84.7438,-57.4146C104.7305,-48.0355 137.1909,-34.3971 167,-29 217.9531,-19.7746 277.5642,-21.4891 317.6536,-24.4136"/>
<polygon fill="#191970" stroke="#191970" points="317.4173,-27.9058 327.6604,-25.1985 317.9647,-20.9272 317.4173,-27.9058"/>
</g>
<!-- Node11&#45;&gt;Node12 -->
<g id="edge4" class="edge">
<title>Node11&#45;&gt;Node12</title>
<path fill="none" stroke="#191970" d="M292.1843,-39.1119C300.8051,-37.8896 309.5216,-36.6537 317.7597,-35.4856"/>
<polygon fill="#191970" stroke="#191970" points="318.486,-38.9177 327.8956,-34.0484 317.5032,-31.987 318.486,-38.9177"/>
</g>
<!-- Node13 -->
<g id="node6" class="node">
<title>Node13</title>
<g id="a_node6"><a xlink:href="utility_8hpp.html#ae3041aeb9cef3e9f4416c91d3d43f86a" target="_top" xlink:title="zeros">
<polygon fill="#ffffff" stroke="#000000" points="459.5,-38.5 459.5,-57.5 500.5,-57.5 500.5,-38.5 459.5,-38.5"/>
<text text-anchor="middle" x="480" y="-45.5" font-family="Helvetica,sans-Serif" font-size="10.00" fill="#000000">zeros</text>
</a>
</g>
</g>
<!-- Node12&#45;&gt;Node13 -->
<g id="edge5" class="edge">
<title>Node12&#45;&gt;Node13</title>
<path fill="none" stroke="#191970" d="M399.0869,-34.8039C415.0712,-37.4108 433.7529,-40.4576 449.1358,-42.9664"/>
<polygon fill="#191970" stroke="#191970" points="448.7517,-46.4499 459.1847,-44.6052 449.8785,-39.5412 448.7517,-46.4499"/>
</g>
<!-- Node14 -->
<g id="node7" class="node">
<title>Node14</title>
<g id="a_node7"><a xlink:href="cutting__plane_8hpp.html#af4c62406049b0dac9f9f8733fa2ad6af" target="_top" xlink:title="Cutting&#45;plane method for solving convex problem. ">
<polygon fill="#ffffff" stroke="#000000" points="435,-.5 435,-19.5 525,-19.5 525,-.5 435,-.5"/>
<text text-anchor="middle" x="480" y="-7.5" font-family="Helvetica,sans-Serif" font-size="10.00" fill="#000000">cutting_plane_dc</text>
</a>
</g>
</g>
<!-- Node12&#45;&gt;Node14 -->
<g id="edge6" class="edge">
<title>Node12&#45;&gt;Node14</title>
<path fill="none" stroke="#191970" d="M399.0869,-23.1961C407.1669,-21.8784 415.9361,-20.4482 424.6201,-19.0319"/>
<polygon fill="#191970" stroke="#191970" points="425.4226,-22.4474 434.7288,-17.3833 424.2958,-15.5386 425.4226,-22.4474"/>
</g>
</g>
</svg>
