<?xml version="1.0" encoding="UTF-8" standalone="no"?>
<!DOCTYPE svg PUBLIC "-//W3C//DTD SVG 1.1//EN"
 "http://www.w3.org/Graphics/SVG/1.1/DTD/svg11.dtd">
<!-- Generated by graphviz version 2.40.1 (20161225.0304)
 -->
<!-- Title: lib/include/ellcpp/oracles/chol_ext.hpp Pages: 1 -->
<svg width="1180pt" height="173pt"
 viewBox="0.00 0.00 1179.50 173.00" xmlns="http://www.w3.org/2000/svg" xmlns:xlink="http://www.w3.org/1999/xlink">
<g id="graph0" class="graph" transform="scale(1 1) rotate(0) translate(4 169)">
<title>lib/include/ellcpp/oracles/chol_ext.hpp</title>
<polygon fill="#ffffff" stroke="transparent" points="-4,4 -4,-169 1175.5,-169 1175.5,4 -4,4"/>
<!-- Node5 -->
<g id="node1" class="node">
<title>Node5</title>
<polygon fill="#bfbfbf" stroke="#000000" points="660,-134.5 660,-164.5 770,-164.5 770,-134.5 660,-134.5"/>
<text text-anchor="start" x="668" y="-152.5" font-family="Helvetica,sans-Serif" font-size="10.00" fill="#000000">lib/include/ellcpp</text>
<text text-anchor="middle" x="715" y="-141.5" font-family="Helvetica,sans-Serif" font-size="10.00" fill="#000000">/oracles/chol_ext.hpp</text>
</g>
<!-- Node6 -->
<g id="node2" class="node">
<title>Node6</title>
<g id="a_node2"><a xlink:href="lmi0__oracle_8hpp.html" target="_top" xlink:title="lib/include/ellcpp\l/oracles/lmi0_oracle.hpp">
<polygon fill="#ffffff" stroke="#000000" points="379,-67.5 379,-97.5 501,-97.5 501,-67.5 379,-67.5"/>
<text text-anchor="start" x="387" y="-85.5" font-family="Helvetica,sans-Serif" font-size="10.00" fill="#000000">lib/include/ellcpp</text>
<text text-anchor="middle" x="440" y="-74.5" font-family="Helvetica,sans-Serif" font-size="10.00" fill="#000000">/oracles/lmi0_oracle.hpp</text>
</a>
</g>
</g>
<!-- Node5&#45;&gt;Node6 -->
<g id="edge1" class="edge">
<title>Node5&#45;&gt;Node6</title>
<path fill="none" stroke="#191970" d="M649.7476,-133.6021C604.8265,-122.6577 545.536,-108.2124 501.4559,-97.4729"/>
<polygon fill="#191970" stroke="#191970" points="649.1361,-137.0555 659.6805,-136.0221 650.7932,-130.2544 649.1361,-137.0555"/>
</g>
<!-- Node9 -->
<g id="node5" class="node">
<title>Node9</title>
<g id="a_node5"><a xlink:href="lmi__old__oracle_8hpp.html" target="_top" xlink:title="lib/include/ellcpp\l/oracles/lmi_old_oracle.hpp">
<polygon fill="#ffffff" stroke="#000000" points="793.5,-67.5 793.5,-97.5 928.5,-97.5 928.5,-67.5 793.5,-67.5"/>
<text text-anchor="start" x="801.5" y="-85.5" font-family="Helvetica,sans-Serif" font-size="10.00" fill="#000000">lib/include/ellcpp</text>
<text text-anchor="middle" x="861" y="-74.5" font-family="Helvetica,sans-Serif" font-size="10.00" fill="#000000">/oracles/lmi_old_oracle.hpp</text>
</a>
</g>
</g>
<!-- Node5&#45;&gt;Node9 -->
<g id="edge4" class="edge">
<title>Node5&#45;&gt;Node9</title>
<path fill="none" stroke="#191970" d="M757.1121,-130.1746C779.6882,-119.8143 807.0968,-107.2364 828.0918,-97.6017"/>
<polygon fill="#191970" stroke="#191970" points="755.3941,-127.112 747.7652,-134.4639 758.3138,-133.474 755.3941,-127.112"/>
</g>
<!-- Node13 -->
<g id="node9" class="node">
<title>Node13</title>
<g id="a_node9"><a xlink:href="lmi__oracle_8hpp.html" target="_top" xlink:title="lib/include/ellcpp\l/oracles/lmi_oracle.hpp">
<polygon fill="#ffffff" stroke="#000000" points="519.5,-67.5 519.5,-97.5 636.5,-97.5 636.5,-67.5 519.5,-67.5"/>
<text text-anchor="start" x="527.5" y="-85.5" font-family="Helvetica,sans-Serif" font-size="10.00" fill="#000000">lib/include/ellcpp</text>
<text text-anchor="middle" x="578" y="-74.5" font-family="Helvetica,sans-Serif" font-size="10.00" fill="#000000">/oracles/lmi_oracle.hpp</text>
</a>
</g>
</g>
<!-- Node5&#45;&gt;Node13 -->
<g id="edge8" class="edge">
<title>Node5&#45;&gt;Node13</title>
<path fill="none" stroke="#191970" d="M675.2328,-130.0518C654.1816,-119.7567 628.7086,-107.2991 609.1169,-97.7177"/>
<polygon fill="#191970" stroke="#191970" points="673.7336,-133.2147 684.2545,-134.4639 676.8089,-126.9264 673.7336,-133.2147"/>
</g>
<!-- Node17 -->
<g id="node13" class="node">
<title>Node17</title>
<g id="a_node13"><a xlink:href="qmi__oracle_8hpp.html" target="_top" xlink:title="lib/include/ellcpp\l/oracles/qmi_oracle.hpp">
<polygon fill="#ffffff" stroke="#000000" points="655,-67.5 655,-97.5 775,-97.5 775,-67.5 655,-67.5"/>
<text text-anchor="start" x="663" y="-85.5" font-family="Helvetica,sans-Serif" font-size="10.00" fill="#000000">lib/include/ellcpp</text>
<text text-anchor="middle" x="715" y="-74.5" font-family="Helvetica,sans-Serif" font-size="10.00" fill="#000000">/oracles/qmi_oracle.hpp</text>
</a>
</g>
</g>
<!-- Node5&#45;&gt;Node17 -->
<g id="edge14" class="edge">
<title>Node5&#45;&gt;Node17</title>
<path fill="none" stroke="#191970" d="M715,-124.0249C715,-115.128 715,-105.4287 715,-97.6432"/>
<polygon fill="#191970" stroke="#191970" points="711.5001,-124.2966 715,-134.2967 718.5001,-124.2967 711.5001,-124.2966"/>
</g>
<!-- Node19 -->
<g id="node15" class="node">
<title>Node19</title>
<g id="a_node15"><a xlink:href="chol__test_8cpp.html" target="_top" xlink:title="lib/test/src/chol_test.cpp">
<polygon fill="#ffffff" stroke="#000000" points="947,-73 947,-92 1071,-92 1071,-73 947,-73"/>
<text text-anchor="middle" x="1009" y="-80" font-family="Helvetica,sans-Serif" font-size="10.00" fill="#000000">lib/test/src/chol_test.cpp</text>
</a>
</g>
</g>
<!-- Node5&#45;&gt;Node19 -->
<g id="edge17" class="edge">
<title>Node5&#45;&gt;Node19</title>
<path fill="none" stroke="#191970" d="M780.3069,-134.6171C837.3805,-121.6106 918.5283,-103.1177 967.2476,-92.015"/>
<polygon fill="#191970" stroke="#191970" points="779.2715,-131.2633 770.2992,-136.8978 780.8269,-138.0883 779.2715,-131.2633"/>
</g>
<!-- Node7 -->
<g id="node3" class="node">
<title>Node7</title>
<g id="a_node3"><a xlink:href="lmi0__oracle_8cpp.html" target="_top" xlink:title="lib/src/lmi0_oracle.cpp">
<polygon fill="#ffffff" stroke="#000000" points="0,-6 0,-25 114,-25 114,-6 0,-6"/>
<text text-anchor="middle" x="57" y="-13" font-family="Helvetica,sans-Serif" font-size="10.00" fill="#000000">lib/src/lmi0_oracle.cpp</text>
</a>
</g>
</g>
<!-- Node6&#45;&gt;Node7 -->
<g id="edge2" class="edge">
<title>Node6&#45;&gt;Node7</title>
<path fill="none" stroke="#191970" d="M368.6576,-72.3602C304.2424,-62.8608 206.9693,-47.6599 123,-31 114.1103,-29.2362 104.5974,-27.1312 95.6403,-25.0498"/>
<polygon fill="#191970" stroke="#191970" points="368.3044,-75.8458 378.7067,-73.8352 369.321,-68.92 368.3044,-75.8458"/>
</g>
<!-- Node8 -->
<g id="node4" class="node">
<title>Node8</title>
<g id="a_node4"><a xlink:href="lsq__corr__ell_8cpp.html" target="_top" xlink:title="lib/src/lsq_corr_ell.cpp">
<polygon fill="#ffffff" stroke="#000000" points="536,-6 536,-25 650,-25 650,-6 536,-6"/>
<text text-anchor="middle" x="593" y="-13" font-family="Helvetica,sans-Serif" font-size="10.00" fill="#000000">lib/src/lsq_corr_ell.cpp</text>
</a>
</g>
</g>
<!-- Node6&#45;&gt;Node8 -->
<g id="edge3" class="edge">
<title>Node6&#45;&gt;Node8</title>
<path fill="none" stroke="#191970" d="M483.7048,-63.3613C512.2697,-50.8525 548.3597,-35.0484 571.0687,-25.1039"/>
<polygon fill="#191970" stroke="#191970" points="482.0924,-60.2464 474.3362,-67.4639 484.9004,-66.6586 482.0924,-60.2464"/>
</g>
<!-- Node10 -->
<g id="node6" class="node">
<title>Node10</title>
<g id="a_node6"><a xlink:href="BM__lmi_8cpp.html" target="_top" xlink:title="lib/bench/BM_lmi.cpp">
<polygon fill="#ffffff" stroke="#000000" points="798,-6 798,-25 908,-25 908,-6 798,-6"/>
<text text-anchor="middle" x="853" y="-13" font-family="Helvetica,sans-Serif" font-size="10.00" fill="#000000">lib/bench/BM_lmi.cpp</text>
</a>
</g>
</g>
<!-- Node9&#45;&gt;Node10 -->
<g id="edge5" class="edge">
<title>Node9&#45;&gt;Node10</title>
<path fill="none" stroke="#191970" d="M857.9695,-57.1199C856.6307,-45.9072 855.1377,-33.4031 854.1409,-25.055"/>
<polygon fill="#191970" stroke="#191970" points="854.5237,-57.7822 859.1847,-67.2967 861.4743,-56.9522 854.5237,-57.7822"/>
</g>
<!-- Node11 -->
<g id="node7" class="node">
<title>Node11</title>
<g id="a_node7"><a xlink:href="lmi__old__oracle_8cpp.html" target="_top" xlink:title="lib/src/lmi_old_oracle.cpp">
<polygon fill="#ffffff" stroke="#000000" points="1044.5,-6 1044.5,-25 1171.5,-25 1171.5,-6 1044.5,-6"/>
<text text-anchor="middle" x="1108" y="-13" font-family="Helvetica,sans-Serif" font-size="10.00" fill="#000000">lib/src/lmi_old_oracle.cpp</text>
</a>
</g>
</g>
<!-- Node9&#45;&gt;Node11 -->
<g id="edge6" class="edge">
<title>Node9&#45;&gt;Node11</title>
<path fill="none" stroke="#191970" d="M926.2302,-64.806C973.2534,-52.0507 1034.8988,-35.3291 1072.9581,-25.0053"/>
<polygon fill="#191970" stroke="#191970" points="925.1666,-61.4679 916.4316,-67.4639 926.9992,-68.2238 925.1666,-61.4679"/>
</g>
<!-- Node12 -->
<g id="node8" class="node">
<title>Node12</title>
<g id="a_node8"><a xlink:href="test__lmi__old_8cpp.html" target="_top" xlink:title="lib/test/src/test_lmi\l_old.cpp">
<polygon fill="#ffffff" stroke="#000000" points="926,-.5 926,-30.5 1026,-30.5 1026,-.5 926,-.5"/>
<text text-anchor="start" x="934" y="-18.5" font-family="Helvetica,sans-Serif" font-size="10.00" fill="#000000">lib/test/src/test_lmi</text>
<text text-anchor="middle" x="976" y="-7.5" font-family="Helvetica,sans-Serif" font-size="10.00" fill="#000000">_old.cpp</text>
</a>
</g>
</g>
<!-- Node9&#45;&gt;Node12 -->
<g id="edge7" class="edge">
<title>Node9&#45;&gt;Node12</title>
<path fill="none" stroke="#191970" d="M895.5753,-62.3561C913.0083,-52.1995 933.8031,-40.0843 949.88,-30.7177"/>
<polygon fill="#191970" stroke="#191970" points="893.6868,-59.4056 886.8082,-67.4639 897.2107,-65.454 893.6868,-59.4056"/>
</g>
<!-- Node13&#45;&gt;Node8 -->
<g id="edge12" class="edge">
<title>Node13&#45;&gt;Node8</title>
<path fill="none" stroke="#191970" d="M583.6046,-57.4663C586.1346,-46.1655 588.9726,-33.4891 590.8608,-25.055"/>
<polygon fill="#191970" stroke="#191970" points="580.1731,-56.7735 581.4037,-67.2967 587.004,-58.3029 580.1731,-56.7735"/>
</g>
<!-- Node13&#45;&gt;Node10 -->
<g id="edge9" class="edge">
<title>Node13&#45;&gt;Node10</title>
<path fill="none" stroke="#191970" d="M646.6223,-65.7811C699.4029,-52.9218 770.4383,-35.615 813.9078,-25.0243"/>
<polygon fill="#191970" stroke="#191970" points="645.5444,-62.4413 636.6571,-68.209 647.2014,-69.2423 645.5444,-62.4413"/>
</g>
<!-- Node14 -->
<g id="node10" class="node">
<title>Node14</title>
<g id="a_node10"><a xlink:href="sdp__oracle_8hpp.html" target="_top" xlink:title="lib/include/ellcpp\l/oracles/sdp_oracle.hpp">
<polygon fill="#ffffff" stroke="#000000" points="270,-.5 270,-30.5 390,-30.5 390,-.5 270,-.5"/>
<text text-anchor="start" x="278" y="-18.5" font-family="Helvetica,sans-Serif" font-size="10.00" fill="#000000">lib/include/ellcpp</text>
<text text-anchor="middle" x="330" y="-7.5" font-family="Helvetica,sans-Serif" font-size="10.00" fill="#000000">/oracles/sdp_oracle.hpp</text>
</a>
</g>
</g>
<!-- Node13&#45;&gt;Node14 -->
<g id="edge10" class="edge">
<title>Node13&#45;&gt;Node14</title>
<path fill="none" stroke="#191970" d="M512.5567,-64.8198C473.1383,-54.1704 423.4721,-40.7525 385.8988,-30.6017"/>
<polygon fill="#191970" stroke="#191970" points="511.7772,-68.2346 522.344,-67.4639 513.6029,-61.4768 511.7772,-68.2346"/>
</g>
<!-- Node15 -->
<g id="node11" class="node">
<title>Node15</title>
<g id="a_node11"><a xlink:href="lmi__oracle_8cpp.html" target="_top" xlink:title="lib/src/lmi_oracle.cpp">
<polygon fill="#ffffff" stroke="#000000" points="408.5,-6 408.5,-25 517.5,-25 517.5,-6 408.5,-6"/>
<text text-anchor="middle" x="463" y="-13" font-family="Helvetica,sans-Serif" font-size="10.00" fill="#000000">lib/src/lmi_oracle.cpp</text>
</a>
</g>
</g>
<!-- Node13&#45;&gt;Node15 -->
<g id="edge11" class="edge">
<title>Node13&#45;&gt;Node15</title>
<path fill="none" stroke="#191970" d="M543.4585,-62.3758C522.2712,-50.0319 496.1079,-34.789 479.4843,-25.1039"/>
<polygon fill="#191970" stroke="#191970" points="541.7893,-65.454 552.1918,-67.4639 545.3132,-59.4056 541.7893,-65.454"/>
</g>
<!-- Node16 -->
<g id="node12" class="node">
<title>Node16</title>
<g id="a_node12"><a xlink:href="lmi__test_8cpp.html" target="_top" xlink:title="lib/test/src/lmi_test.cpp">
<polygon fill="#ffffff" stroke="#000000" points="132.5,-6 132.5,-25 251.5,-25 251.5,-6 132.5,-6"/>
<text text-anchor="middle" x="192" y="-13" font-family="Helvetica,sans-Serif" font-size="10.00" fill="#000000">lib/test/src/lmi_test.cpp</text>
</a>
</g>
</g>
<!-- Node13&#45;&gt;Node16 -->
<g id="edge13" class="edge">
<title>Node13&#45;&gt;Node16</title>
<path fill="none" stroke="#191970" d="M509.5267,-67.0115C398.3539,-46.805 367.8507,-50.695 261,-31 251.582,-29.2641 241.4976,-27.147 232.0271,-25.0423"/>
<polygon fill="#191970" stroke="#191970" points="508.9882,-70.4711 519.4568,-68.8409 510.2565,-63.5869 508.9882,-70.4711"/>
</g>
<!-- Node17&#45;&gt;Node8 -->
<g id="edge15" class="edge">
<title>Node17&#45;&gt;Node8</title>
<path fill="none" stroke="#191970" d="M678.6566,-62.5409C656.127,-50.1681 628.2019,-34.8322 610.4877,-25.1039"/>
<polygon fill="#191970" stroke="#191970" points="677.1708,-65.718 687.6208,-67.4639 680.5404,-59.5823 677.1708,-65.718"/>
</g>
<!-- Node18 -->
<g id="node14" class="node">
<title>Node18</title>
<g id="a_node14"><a xlink:href="qmi__oracle_8cpp.html" target="_top" xlink:title="lib/src/qmi_oracle.cpp">
<polygon fill="#ffffff" stroke="#000000" points="668,-6 668,-25 780,-25 780,-6 668,-6"/>
<text text-anchor="middle" x="724" y="-13" font-family="Helvetica,sans-Serif" font-size="10.00" fill="#000000">lib/src/qmi_oracle.cpp</text>
</a>
</g>
</g>
<!-- Node17&#45;&gt;Node18 -->
<g id="edge16" class="edge">
<title>Node17&#45;&gt;Node18</title>
<path fill="none" stroke="#191970" d="M718.4093,-57.1199C719.9154,-45.9072 721.5951,-33.4031 722.7165,-25.055"/>
<polygon fill="#191970" stroke="#191970" points="714.9048,-56.9197 717.0422,-67.2967 721.8425,-57.8517 714.9048,-56.9197"/>
</g>
</g>
</svg>
