<?xml version="1.0" encoding="UTF-8" standalone="no"?>
<!DOCTYPE svg PUBLIC "-//W3C//DTD SVG 1.1//EN"
 "http://www.w3.org/Graphics/SVG/1.1/DTD/svg11.dtd">
<!-- Generated by graphviz version 2.40.1 (20161225.0304)
 -->
<!-- Title: lmi0_oracle Pages: 1 -->
<svg width="161pt" height="292pt"
 viewBox="0.00 0.00 161.00 292.00" xmlns="http://www.w3.org/2000/svg" xmlns:xlink="http://www.w3.org/1999/xlink">
<g id="graph0" class="graph" transform="scale(1 1) rotate(0) translate(4 288)">
<title>lmi0_oracle</title>
<polygon fill="#ffffff" stroke="transparent" points="-4,4 -4,-288 157,-288 157,4 -4,4"/>
<!-- Node1 -->
<g id="node1" class="node">
<title>Node1</title>
<polygon fill="#bfbfbf" stroke="#000000" points="36,-.5 36,-79.5 117,-79.5 117,-.5 36,-.5"/>
<text text-anchor="middle" x="76.5" y="-67.5" font-family="Helvetica,sans-Serif" font-size="10.00" fill="#000000">lmi0_oracle</text>
<polyline fill="none" stroke="#000000" points="36,-60.5 117,-60.5 "/>
<text text-anchor="start" x="44" y="-48.5" font-family="Helvetica,sans-Serif" font-size="10.00" fill="#000000">&#45; _F</text>
<text text-anchor="start" x="44" y="-37.5" font-family="Helvetica,sans-Serif" font-size="10.00" fill="#000000">&#45; _n</text>
<polyline fill="none" stroke="#000000" points="36,-30.5 117,-30.5 "/>
<text text-anchor="start" x="44" y="-18.5" font-family="Helvetica,sans-Serif" font-size="10.00" fill="#000000">+ lmi0_oracle()</text>
<text text-anchor="start" x="44" y="-7.5" font-family="Helvetica,sans-Serif" font-size="10.00" fill="#000000">+ operator()()</text>
</g>
<!-- Node2 -->
<g id="node2" class="node">
<title>Node2</title>
<g id="a_node2"><a xlink:href="classchol__ext.html" target="_top" xlink:title="Cholesky factorization for LMI. ">
<polygon fill="#ffffff" stroke="#000000" points="0,-127.5 0,-283.5 153,-283.5 153,-127.5 0,-127.5"/>
<text text-anchor="middle" x="76.5" y="-271.5" font-family="Helvetica,sans-Serif" font-size="10.00" fill="#000000">chol_ext&lt; Allow_semidefinite &gt;</text>
<polyline fill="none" stroke="#000000" points="0,-264.5 153,-264.5 "/>
<text text-anchor="start" x="8" y="-252.5" font-family="Helvetica,sans-Serif" font-size="10.00" fill="#000000">+ p</text>
<text text-anchor="start" x="8" y="-241.5" font-family="Helvetica,sans-Serif" font-size="10.00" fill="#000000">+ v</text>
<text text-anchor="start" x="8" y="-230.5" font-family="Helvetica,sans-Serif" font-size="10.00" fill="#000000">&#45; n</text>
<text text-anchor="start" x="8" y="-219.5" font-family="Helvetica,sans-Serif" font-size="10.00" fill="#000000">&#45; T</text>
<polyline fill="none" stroke="#000000" points="0,-212.5 153,-212.5 "/>
<text text-anchor="start" x="8" y="-200.5" font-family="Helvetica,sans-Serif" font-size="10.00" fill="#000000">+ chol_ext()</text>
<text text-anchor="start" x="8" y="-189.5" font-family="Helvetica,sans-Serif" font-size="10.00" fill="#000000">+ factorize()</text>
<text text-anchor="start" x="8" y="-178.5" font-family="Helvetica,sans-Serif" font-size="10.00" fill="#000000">+ factor()</text>
<text text-anchor="start" x="8" y="-167.5" font-family="Helvetica,sans-Serif" font-size="10.00" fill="#000000">+ is_spd()</text>
<text text-anchor="start" x="8" y="-156.5" font-family="Helvetica,sans-Serif" font-size="10.00" fill="#000000">+ witness()</text>
<text text-anchor="start" x="8" y="-145.5" font-family="Helvetica,sans-Serif" font-size="10.00" fill="#000000">+ sym_quad()</text>
<text text-anchor="start" x="8" y="-134.5" font-family="Helvetica,sans-Serif" font-size="10.00" fill="#000000">+ sqrt()</text>
</a>
</g>
</g>
<!-- Node2&#45;&gt;Node1 -->
<g id="edge1" class="edge">
<title>Node2&#45;&gt;Node1</title>
<path fill="none" stroke="#404040" d="M76.5,-127.112C76.5,-115.2142 76.5,-103.1958 76.5,-92.0444"/>
<polygon fill="none" stroke="#404040" points="76.5001,-91.875 72.5,-85.8751 76.5,-79.875 80.5,-85.875 76.5001,-91.875"/>
<text text-anchor="middle" x="87.5" y="-101" font-family="Helvetica,sans-Serif" font-size="10.00" fill="#000000"> +_Q</text>
</g>
</g>
</svg>
