<?xml version="1.0" encoding="UTF-8" standalone="no"?>
<!DOCTYPE svg PUBLIC "-//W3C//DTD SVG 1.1//EN"
 "http://www.w3.org/Graphics/SVG/1.1/DTD/svg11.dtd">
<!-- Generated by graphviz version 2.40.1 (20161225.0304)
 -->
<!-- Title: gp_base&lt; _Tp &gt; Pages: 1 -->
<svg width="130pt" height="226pt"
 viewBox="0.00 0.00 130.00 226.00" xmlns="http://www.w3.org/2000/svg" xmlns:xlink="http://www.w3.org/1999/xlink">
<g id="graph0" class="graph" transform="scale(1 1) rotate(0) translate(4 222)">
<title>gp_base&lt; _Tp &gt;</title>
<polygon fill="#ffffff" stroke="transparent" points="-4,4 -4,-222 126,-222 126,4 -4,4"/>
<!-- Node2 -->
<g id="node1" class="node">
<title>Node2</title>
<polygon fill="#bfbfbf" stroke="#000000" points="17,-.5 17,-101.5 105,-101.5 105,-.5 17,-.5"/>
<text text-anchor="middle" x="61" y="-89.5" font-family="Helvetica,sans-Serif" font-size="10.00" fill="#000000">gp_base&lt; _Tp &gt;</text>
<polyline fill="none" stroke="#000000" points="17,-82.5 105,-82.5 "/>
<text text-anchor="middle" x="61" y="-70.5" font-family="Helvetica,sans-Serif" font-size="10.00" fill="#000000"> </text>
<polyline fill="none" stroke="#000000" points="17,-63.5 105,-63.5 "/>
<text text-anchor="start" x="25" y="-51.5" font-family="Helvetica,sans-Serif" font-size="10.00" fill="#000000">+ gp_base()</text>
<text text-anchor="start" x="25" y="-40.5" font-family="Helvetica,sans-Serif" font-size="10.00" fill="#000000">+ ~gp_base()</text>
<text text-anchor="start" x="25" y="-29.5" font-family="Helvetica,sans-Serif" font-size="10.00" fill="#000000">+ operator()()</text>
<text text-anchor="start" x="25" y="-18.5" font-family="Helvetica,sans-Serif" font-size="10.00" fill="#000000">+ operator()()</text>
<text text-anchor="start" x="25" y="-7.5" font-family="Helvetica,sans-Serif" font-size="10.00" fill="#000000">+ operator()()</text>
</g>
<!-- Node3 -->
<g id="node2" class="node">
<title>Node3</title>
<polygon fill="#ffffff" stroke="#bfbfbf" points="0,-149.5 0,-217.5 122,-217.5 122,-149.5 0,-149.5"/>
<text text-anchor="start" x="8" y="-205.5" font-family="Helvetica,sans-Serif" font-size="10.00" fill="#000000">std::vector&lt; posynomial</text>
<text text-anchor="middle" x="61" y="-194.5" font-family="Helvetica,sans-Serif" font-size="10.00" fill="#000000">&lt; _Tp &gt; &gt;</text>
<polyline fill="none" stroke="#bfbfbf" points="0,-187.5 122,-187.5 "/>
<text text-anchor="start" x="8" y="-175.5" font-family="Helvetica,sans-Serif" font-size="10.00" fill="#000000">+ elements</text>
<polyline fill="none" stroke="#bfbfbf" points="0,-168.5 122,-168.5 "/>
<text text-anchor="middle" x="61" y="-156.5" font-family="Helvetica,sans-Serif" font-size="10.00" fill="#000000"> </text>
</g>
<!-- Node3&#45;&gt;Node2 -->
<g id="edge1" class="edge">
<title>Node3&#45;&gt;Node2</title>
<path fill="none" stroke="#404040" d="M61,-149.378C61,-138.4514 61,-125.9865 61,-113.6859"/>
<polygon fill="none" stroke="#404040" points="61.0001,-113.5031 57,-107.5031 61,-101.5031 65,-107.503 61.0001,-113.5031"/>
<text text-anchor="middle" x="72" y="-123" font-family="Helvetica,sans-Serif" font-size="10.00" fill="#000000"> #_M</text>
</g>
</g>
</svg>
