<?xml version="1.0" encoding="UTF-8" standalone="no"?>
<!DOCTYPE svg PUBLIC "-//W3C//DTD SVG 1.1//EN"
 "http://www.w3.org/Graphics/SVG/1.1/DTD/svg11.dtd">
<!-- Generated by graphviz version 2.40.1 (20161225.0304)
 -->
<!-- Title: xn::VertexView&lt; Graph &gt; Pages: 1 -->
<!--zoomable 866 -->
<svg id="main" version="1.1" xmlns="http://www.w3.org/2000/svg" xmlns:xlink="http://www.w3.org/1999/xlink" xml:space="preserve" onload="init(evt)">
<style type="text/css"><![CDATA[
.edge:hover path { stroke: red; }
.edge:hover polygon { stroke: red; fill: red; }
]]></style>
<script type="text/javascript"><![CDATA[
var edges = document.getElementsByTagName('g');
if (edges && edges.length) {
  for (var i=0;i<edges.length;i++) {
    if (edges[i].id.substr(0,4)=='edge') {
      edges[i].setAttribute('class','edge');
    }
  }
}
]]></script>
        <defs>
                <circle id="rim" cx="0" cy="0" r="7"/>
                <circle id="rim2" cx="0" cy="0" r="3.5"/>
                <g id="zoomPlus">
                        <use xlink:href="#rim" fill="#404040">
                                <set attributeName="fill" to="#808080" begin="zoomplus.mouseover" end="zoomplus.mouseout"/>
                        </use>
                        <path d="M-4,0h8M0,-4v8" fill="none" stroke="white" stroke-width="1.5" pointer-events="none"/>
                </g>
                <g id="zoomMin">
                        <use xlink:href="#rim" fill="#404040">
                                <set attributeName="fill" to="#808080" begin="zoomminus.mouseover" end="zoomminus.mouseout"/>
                        </use>
                        <path d="M-4,0h8" fill="none" stroke="white" stroke-width="1.5" pointer-events="none"/>
                </g>
                <g id="dirArrow">
                        <path fill="none" stroke="white" stroke-width="1.5" d="M0,-3.0v7 M-2.5,-0.5L0,-3.0L2.5,-0.5"/>
                </g>
               <g id="resetDef">
                       <use xlink:href="#rim2" fill="#404040">
                               <set attributeName="fill" to="#808080" begin="reset.mouseover" end="reset.mouseout"/>
                       </use>
               </g>
        </defs>

<script type="text/javascript">
var viewWidth = 136;
var viewHeight = 866;
var sectionId = 'dynsection-0';
</script>
<script xlink:href="svgpan.js"/>
<svg id="graph" class="graph">
<g id="viewport">
<title>xn::VertexView&lt; Graph &gt;</title>
<polygon fill="#ffffff" stroke="transparent" points="-4,4 -4,-862 132,-862 132,4 -4,4"/>
<!-- Node0 -->
<g id="node1" class="node">
<title>Node0</title>
<polygon fill="#bfbfbf" stroke="#000000" points="0,-171.5 0,-272.5 128,-272.5 128,-171.5 0,-171.5"/>
<text text-anchor="middle" x="64" y="-260.5" font-family="Helvetica,sans-Serif" font-size="10.00" fill="#000000">xn::VertexView&lt; Graph &gt;</text>
<polyline fill="none" stroke="#000000" points="0,-253.5 128,-253.5 "/>
<text text-anchor="middle" x="64" y="-241.5" font-family="Helvetica,sans-Serif" font-size="10.00" fill="#000000"> </text>
<polyline fill="none" stroke="#000000" points="0,-234.5 128,-234.5 "/>
<text text-anchor="start" x="8" y="-222.5" font-family="Helvetica,sans-Serif" font-size="10.00" fill="#000000">+ VertexView()</text>
<text text-anchor="start" x="8" y="-211.5" font-family="Helvetica,sans-Serif" font-size="10.00" fill="#000000">+ begin()</text>
<text text-anchor="start" x="8" y="-200.5" font-family="Helvetica,sans-Serif" font-size="10.00" fill="#000000">+ end()</text>
<text text-anchor="start" x="8" y="-189.5" font-family="Helvetica,sans-Serif" font-size="10.00" fill="#000000">+ cbegin()</text>
<text text-anchor="start" x="8" y="-178.5" font-family="Helvetica,sans-Serif" font-size="10.00" fill="#000000">+ cend()</text>
</g>
<!-- Node5 -->
<g id="node6" class="node">
<title>Node5</title>
<g id="a_node6"><a xlink:href="classxn_1_1grAdaptor.html" target="_top" xlink:title="{xn::grAdaptor\&lt; Graph \&gt;\n||+ grAdaptor()\l+ grAdaptor()\l+ number_of_nodes()\l+ number_of_edges()\l+ edges()\l+ neighbors()\land 4 more...\l+ null_vertex()\l}">
<polygon fill="#ffffff" stroke="#000000" points="4.5,-.5 4.5,-134.5 123.5,-134.5 123.5,-.5 4.5,-.5"/>
<text text-anchor="middle" x="64" y="-122.5" font-family="Helvetica,sans-Serif" font-size="10.00" fill="#000000">xn::grAdaptor&lt; Graph &gt;</text>
<polyline fill="none" stroke="#000000" points="4.5,-115.5 123.5,-115.5 "/>
<text text-anchor="middle" x="64" y="-103.5" font-family="Helvetica,sans-Serif" font-size="10.00" fill="#000000"> </text>
<polyline fill="none" stroke="#000000" points="4.5,-96.5 123.5,-96.5 "/>
<text text-anchor="start" x="12.5" y="-84.5" font-family="Helvetica,sans-Serif" font-size="10.00" fill="#000000">+ grAdaptor()</text>
<text text-anchor="start" x="12.5" y="-73.5" font-family="Helvetica,sans-Serif" font-size="10.00" fill="#000000">+ grAdaptor()</text>
<text text-anchor="start" x="12.5" y="-62.5" font-family="Helvetica,sans-Serif" font-size="10.00" fill="#000000">+ number_of_nodes()</text>
<text text-anchor="start" x="12.5" y="-51.5" font-family="Helvetica,sans-Serif" font-size="10.00" fill="#000000">+ number_of_edges()</text>
<text text-anchor="start" x="12.5" y="-40.5" font-family="Helvetica,sans-Serif" font-size="10.00" fill="#000000">+ edges()</text>
<text text-anchor="start" x="12.5" y="-29.5" font-family="Helvetica,sans-Serif" font-size="10.00" fill="#000000">+ neighbors()</text>
<text text-anchor="start" x="12.5" y="-18.5" font-family="Helvetica,sans-Serif" font-size="10.00" fill="#000000">and 4 more...</text>
<text text-anchor="start" x="12.5" y="-7.5" font-family="Helvetica,sans-Serif" font-size="10.00" fill="#000000">+ null_vertex()</text>
</a>
</g>
</g>
<!-- Node0&#45;&gt;Node5 -->
<g id="edge5" class="edge">
<title>Node0&#45;&gt;Node5</title>
<path fill="none" stroke="#191970" d="M64,-161.2656C64,-152.4816 64,-143.3988 64,-134.5007"/>
<polygon fill="none" stroke="#191970" points="60.5001,-161.4109 64,-171.4109 67.5001,-161.411 60.5001,-161.4109"/>
</g>
<!-- Node1 -->
<g id="node2" class="node">
<title>Node1</title>
<g id="a_node2"><a xlink:href="classxn_1_1Graph.html" target="_top" xlink:title="{xn::Graph\&lt; __nodeview\l_t, adjlist_t \&gt;\n|+ _num_of_edges\l+ _node\l+ graph\l+ _adj\l|+ Graph()\l+ Graph()\l+ adj()\l+ _nodes_nbrs()\l+ null_vertex()\l+ get_name()\land 18 more...\l+ end_points()\l+ end_points()\l}">
<polygon fill="#ffffff" stroke="#000000" points="4,-309.5 4,-498.5 124,-498.5 124,-309.5 4,-309.5"/>
<text text-anchor="start" x="12" y="-486.5" font-family="Helvetica,sans-Serif" font-size="10.00" fill="#000000">xn::Graph&lt; __nodeview</text>
<text text-anchor="middle" x="64" y="-475.5" font-family="Helvetica,sans-Serif" font-size="10.00" fill="#000000">_t, adjlist_t &gt;</text>
<polyline fill="none" stroke="#000000" points="4,-468.5 124,-468.5 "/>
<text text-anchor="start" x="12" y="-456.5" font-family="Helvetica,sans-Serif" font-size="10.00" fill="#000000">+ _num_of_edges</text>
<text text-anchor="start" x="12" y="-445.5" font-family="Helvetica,sans-Serif" font-size="10.00" fill="#000000">+ _node</text>
<text text-anchor="start" x="12" y="-434.5" font-family="Helvetica,sans-Serif" font-size="10.00" fill="#000000">+ graph</text>
<text text-anchor="start" x="12" y="-423.5" font-family="Helvetica,sans-Serif" font-size="10.00" fill="#000000">+ _adj</text>
<polyline fill="none" stroke="#000000" points="4,-416.5 124,-416.5 "/>
<text text-anchor="start" x="12" y="-404.5" font-family="Helvetica,sans-Serif" font-size="10.00" fill="#000000">+ Graph()</text>
<text text-anchor="start" x="12" y="-393.5" font-family="Helvetica,sans-Serif" font-size="10.00" fill="#000000">+ Graph()</text>
<text text-anchor="start" x="12" y="-382.5" font-family="Helvetica,sans-Serif" font-size="10.00" fill="#000000">+ adj()</text>
<text text-anchor="start" x="12" y="-371.5" font-family="Helvetica,sans-Serif" font-size="10.00" fill="#000000">+ _nodes_nbrs()</text>
<text text-anchor="start" x="12" y="-360.5" font-family="Helvetica,sans-Serif" font-size="10.00" fill="#000000">+ null_vertex()</text>
<text text-anchor="start" x="12" y="-349.5" font-family="Helvetica,sans-Serif" font-size="10.00" fill="#000000">+ get_name()</text>
<text text-anchor="start" x="12" y="-338.5" font-family="Helvetica,sans-Serif" font-size="10.00" fill="#000000">and 18 more...</text>
<text text-anchor="start" x="12" y="-327.5" font-family="Helvetica,sans-Serif" font-size="10.00" fill="#000000">+ end_points()</text>
<text text-anchor="start" x="12" y="-316.5" font-family="Helvetica,sans-Serif" font-size="10.00" fill="#000000">+ end_points()</text>
</a>
</g>
</g>
<!-- Node1&#45;&gt;Node0 -->
<g id="edge1" class="edge">
<title>Node1&#45;&gt;Node0</title>
<path fill="none" stroke="#191970" d="M64,-299.258C64,-290.0849 64,-281.1025 64,-272.6953"/>
<polygon fill="none" stroke="#191970" points="60.5001,-299.2685 64,-309.2685 67.5001,-299.2685 60.5001,-299.2685"/>
</g>
<!-- Node2 -->
<g id="node3" class="node">
<title>Node2</title>
<g id="a_node3"><a xlink:href="structxn_1_1object.html" target="_top" xlink:title="{xn::object\n||}">
<polygon fill="#ffffff" stroke="#000000" points="34.5,-535.5 34.5,-592.5 93.5,-592.5 93.5,-535.5 34.5,-535.5"/>
<text text-anchor="middle" x="64" y="-580.5" font-family="Helvetica,sans-Serif" font-size="10.00" fill="#000000">xn::object</text>
<polyline fill="none" stroke="#000000" points="34.5,-573.5 93.5,-573.5 "/>
<text text-anchor="middle" x="64" y="-561.5" font-family="Helvetica,sans-Serif" font-size="10.00" fill="#000000"> </text>
<polyline fill="none" stroke="#000000" points="34.5,-554.5 93.5,-554.5 "/>
<text text-anchor="middle" x="64" y="-542.5" font-family="Helvetica,sans-Serif" font-size="10.00" fill="#000000"> </text>
</a>
</g>
</g>
<!-- Node2&#45;&gt;Node1 -->
<g id="edge2" class="edge">
<title>Node2&#45;&gt;Node1</title>
<path fill="none" stroke="#191970" d="M64,-525.1612C64,-516.9993 64,-508.0517 64,-498.8317"/>
<polygon fill="none" stroke="#191970" points="60.5001,-525.3952 64,-535.3952 67.5001,-525.3952 60.5001,-525.3952"/>
</g>
<!-- Node3 -->
<g id="node4" class="node">
<title>Node3</title>
<g id="a_node4"><a xlink:href="classpy_1_1dict.html" target="_top" xlink:title="{py::dict\&lt; const char\l *, std::any \&gt;\n||+ dict()\l+ dict()\l+ operator=()\l&#45; dict()\l}">
<polygon fill="#ffffff" stroke="#000000" points="12,-629.5 12,-730.5 116,-730.5 116,-629.5 12,-629.5"/>
<text text-anchor="start" x="20" y="-718.5" font-family="Helvetica,sans-Serif" font-size="10.00" fill="#000000">py::dict&lt; const char</text>
<text text-anchor="middle" x="64" y="-707.5" font-family="Helvetica,sans-Serif" font-size="10.00" fill="#000000"> *, std::any &gt;</text>
<polyline fill="none" stroke="#000000" points="12,-700.5 116,-700.5 "/>
<text text-anchor="middle" x="64" y="-688.5" font-family="Helvetica,sans-Serif" font-size="10.00" fill="#000000"> </text>
<polyline fill="none" stroke="#000000" points="12,-681.5 116,-681.5 "/>
<text text-anchor="start" x="20" y="-669.5" font-family="Helvetica,sans-Serif" font-size="10.00" fill="#000000">+ dict()</text>
<text text-anchor="start" x="20" y="-658.5" font-family="Helvetica,sans-Serif" font-size="10.00" fill="#000000">+ dict()</text>
<text text-anchor="start" x="20" y="-647.5" font-family="Helvetica,sans-Serif" font-size="10.00" fill="#000000">+ operator=()</text>
<text text-anchor="start" x="20" y="-636.5" font-family="Helvetica,sans-Serif" font-size="10.00" fill="#000000">&#45; dict()</text>
</a>
</g>
</g>
<!-- Node3&#45;&gt;Node2 -->
<g id="edge3" class="edge">
<title>Node3&#45;&gt;Node2</title>
<path fill="none" stroke="#191970" d="M64,-619.3804C64,-610.0838 64,-600.8771 64,-592.7184"/>
<polygon fill="none" stroke="#191970" points="60.5001,-619.4581 64,-629.4582 67.5001,-619.4582 60.5001,-619.4581"/>
</g>
<!-- Node4 -->
<g id="node5" class="node">
<title>Node4</title>
<g id="a_node5"><a xlink:title="STL class. ">
<polygon fill="#ffffff" stroke="#bfbfbf" points="12.5,-767.5 12.5,-857.5 115.5,-857.5 115.5,-767.5 12.5,-767.5"/>
<text text-anchor="start" x="20.5" y="-845.5" font-family="Helvetica,sans-Serif" font-size="10.00" fill="#000000">std::unordered_map</text>
<text text-anchor="start" x="20.5" y="-834.5" font-family="Helvetica,sans-Serif" font-size="10.00" fill="#000000">&lt; const char *, std</text>
<text text-anchor="middle" x="64" y="-823.5" font-family="Helvetica,sans-Serif" font-size="10.00" fill="#000000">::any &gt;</text>
<polyline fill="none" stroke="#bfbfbf" points="12.5,-816.5 115.5,-816.5 "/>
<text text-anchor="start" x="20.5" y="-804.5" font-family="Helvetica,sans-Serif" font-size="10.00" fill="#000000">+ keys</text>
<text text-anchor="start" x="20.5" y="-793.5" font-family="Helvetica,sans-Serif" font-size="10.00" fill="#000000">+ elements</text>
<polyline fill="none" stroke="#bfbfbf" points="12.5,-786.5 115.5,-786.5 "/>
<text text-anchor="middle" x="64" y="-774.5" font-family="Helvetica,sans-Serif" font-size="10.00" fill="#000000"> </text>
</a>
</g>
</g>
<!-- Node4&#45;&gt;Node3 -->
<g id="edge4" class="edge">
<title>Node4&#45;&gt;Node3</title>
<path fill="none" stroke="#191970" d="M64,-757.2098C64,-748.5051 64,-739.5409 64,-730.9407"/>
<polygon fill="none" stroke="#191970" points="60.5001,-757.2716 64,-767.2716 67.5001,-757.2716 60.5001,-757.2716"/>
</g>
</g>
</svg>
        <g id="navigator" transform="translate(0 0)" fill="#404254">
                <rect fill="#f2f5e9" fill-opacity="0.5" stroke="#606060" stroke-width=".5" x="0" y="0" width="60" height="60"/>
                <use id="zoomplus" xlink:href="#zoomPlus" x="17" y="9" onmousedown="handleZoom(evt,'in')"/>
                <use id="zoomminus" xlink:href="#zoomMin" x="42" y="9" onmousedown="handleZoom(evt,'out')"/>
                <use id="reset" xlink:href="#resetDef" x="30" y="36" onmousedown="handleReset()"/>
                <g id="arrowUp" xlink:href="#dirArrow" transform="translate(30 24)" onmousedown="handlePan(0,-1)">
                  <use xlink:href="#rim" fill="#404040">
                        <set attributeName="fill" to="#808080" begin="arrowUp.mouseover" end="arrowUp.mouseout"/>
                  </use>
                  <path fill="none" stroke="white" stroke-width="1.5" d="M0,-3.0v7 M-2.5,-0.5L0,-3.0L2.5,-0.5"/>
                </g>
                <g id="arrowRight" xlink:href="#dirArrow" transform="rotate(90) translate(36 -43)" onmousedown="handlePan(1,0)">
                  <use xlink:href="#rim" fill="#404040">
                        <set attributeName="fill" to="#808080" begin="arrowRight.mouseover" end="arrowRight.mouseout"/>
                  </use>
                  <path fill="none" stroke="white" stroke-width="1.5" d="M0,-3.0v7 M-2.5,-0.5L0,-3.0L2.5,-0.5"/>
                </g>
                <g id="arrowDown" xlink:href="#dirArrow" transform="rotate(180) translate(-30 -48)" onmousedown="handlePan(0,1)">
                  <use xlink:href="#rim" fill="#404040">
                        <set attributeName="fill" to="#808080" begin="arrowDown.mouseover" end="arrowDown.mouseout"/>
                  </use>
                  <path fill="none" stroke="white" stroke-width="1.5" d="M0,-3.0v7 M-2.5,-0.5L0,-3.0L2.5,-0.5"/>
                </g>
                <g id="arrowLeft" xlink:href="#dirArrow" transform="rotate(270) translate(-36 17)" onmousedown="handlePan(-1,0)">
                  <use xlink:href="#rim" fill="#404040">
                        <set attributeName="fill" to="#808080" begin="arrowLeft.mouseover" end="arrowLeft.mouseout"/>
                  </use>
                  <path fill="none" stroke="white" stroke-width="1.5" d="M0,-3.0v7 M-2.5,-0.5L0,-3.0L2.5,-0.5"/>
                </g>
        </g>
        <svg viewBox="0 0 15 15" width="100%" height="30px" preserveAspectRatio="xMaxYMin meet">
         <g id="arrow_out" transform="scale(0.3 0.3)">
          <a xlink:href="classxn_1_1VertexView__inherit__graph_org.svg" target="_base">
           <rect id="button" ry="5" rx="5" y="6" x="6" height="38" width="38"
                fill="#f2f5e9" fill-opacity="0.5" stroke="#606060" stroke-width="1.0"/>
           <path id="arrow"
             d="M 11.500037,31.436501 C 11.940474,20.09759 22.043105,11.32322 32.158766,21.979434 L 37.068811,17.246167 C 37.068811,17.246167 37.088388,32 37.088388,32 L 22.160133,31.978069 C 22.160133,31.978069 26.997745,27.140456 26.997745,27.140456 C 18.528582,18.264221 13.291696,25.230495 11.500037,31.436501 z"
             style="fill:#404040;"/>
          </a>
         </g>
        </svg>
</svg>
