<?xml version="1.0" encoding="UTF-8" standalone="no"?>
<!DOCTYPE svg PUBLIC "-//W3C//DTD SVG 1.1//EN"
 "http://www.w3.org/Graphics/SVG/1.1/DTD/svg11.dtd">
<!-- Generated by graphviz version 2.40.1 (20161225.0304)
 -->
<!-- Title: ell::__calc_dc Pages: 1 -->
<svg width="412pt" height="80pt"
 viewBox="0.00 0.00 412.00 79.58" xmlns="http://www.w3.org/2000/svg" xmlns:xlink="http://www.w3.org/1999/xlink">
<g id="graph0" class="graph" transform="scale(1 1) rotate(0) translate(4 75.5821)">
<title>ell::__calc_dc</title>
<polygon fill="#ffffff" stroke="transparent" points="-4,4 -4,-75.5821 408,-75.5821 408,4 -4,4"/>
<!-- Node22 -->
<g id="node1" class="node">
<title>Node22</title>
<polygon fill="#bfbfbf" stroke="#000000" points="0,-14.0821 0,-33.0821 77,-33.0821 77,-14.0821 0,-14.0821"/>
<text text-anchor="middle" x="38.5" y="-21.0821" font-family="Helvetica,sans-Serif" font-size="10.00" fill="#000000">ell::__calc_dc</text>
</g>
<!-- Node23 -->
<g id="node2" class="node">
<title>Node23</title>
<g id="a_node2"><a xlink:href="classell.html#af4a6ea8bd54b7f7eb77cffe4fdb1566a" target="_top" xlink:title="Calculate new ellipsoid under Parallel Cut. ">
<polygon fill="#ffffff" stroke="#000000" points="113,-52.0821 113,-71.0821 208,-71.0821 208,-52.0821 113,-52.0821"/>
<text text-anchor="middle" x="160.5" y="-59.0821" font-family="Helvetica,sans-Serif" font-size="10.00" fill="#000000">ell::__calc_ll_core</text>
</a>
</g>
</g>
<!-- Node22&#45;&gt;Node23 -->
<g id="edge1" class="edge">
<title>Node22&#45;&gt;Node23</title>
<path fill="none" stroke="#191970" d="M79.2108,-36.2625C95.695,-41.3969 114.41,-47.2261 129.7241,-51.9961"/>
<polygon fill="#191970" stroke="#191970" points="79.8742,-32.8033 69.2858,-33.1711 77.7925,-39.4866 79.8742,-32.8033"/>
</g>
<!-- Node24 -->
<g id="node3" class="node">
<title>Node24</title>
<g id="a_node3"><a xlink:href="classell.html#a76f0b8a8760f4c26c8ea32afaec71abf" target="_top" xlink:title="Set the xc object. ">
<polygon fill="#ffffff" stroke="#000000" points="342,-14.0821 342,-33.0821 404,-33.0821 404,-14.0821 342,-14.0821"/>
<text text-anchor="middle" x="373" y="-21.0821" font-family="Helvetica,sans-Serif" font-size="10.00" fill="#000000">ell::set_xc</text>
</a>
</g>
</g>
<!-- Node22&#45;&gt;Node24 -->
<g id="edge5" class="edge">
<title>Node22&#45;&gt;Node24</title>
<path fill="none" stroke="#191970" d="M87.152,-14.0549C140.9169,-4.9366 229.9695,5.99 306,-4.5821 319.4124,-6.447 333.9132,-10.3169 345.9828,-14.0804"/>
<polygon fill="#191970" stroke="#191970" points="86.4593,-10.6228 77.2094,-15.7892 87.6621,-17.5187 86.4593,-10.6228"/>
</g>
<!-- Node25 -->
<g id="node4" class="node">
<title>Node25</title>
<g id="a_node4"><a xlink:href="classell.html#a029e50a48cdea250b0818294a12410ea" target="_top" xlink:title="Update ellipsoid core function using the cut(s) ">
<polygon fill="#ffffff" stroke="#000000" points="244,-14.0821 244,-33.0821 306,-33.0821 306,-14.0821 244,-14.0821"/>
<text text-anchor="middle" x="275" y="-21.0821" font-family="Helvetica,sans-Serif" font-size="10.00" fill="#000000">ell::update</text>
</a>
</g>
</g>
<!-- Node22&#45;&gt;Node25 -->
<g id="edge6" class="edge">
<title>Node22&#45;&gt;Node25</title>
<path fill="none" stroke="#191970" d="M87.2589,-23.5821C134.1778,-23.5821 203.719,-23.5821 243.6776,-23.5821"/>
<polygon fill="#191970" stroke="#191970" points="87.0242,-20.0822 77.0242,-23.5821 87.0241,-27.0822 87.0242,-20.0822"/>
</g>
<!-- Node23&#45;&gt;Node24 -->
<g id="edge2" class="edge">
<title>Node23&#45;&gt;Node24</title>
<path fill="none" stroke="#191970" d="M218.3001,-56.0036C245.1256,-52.9121 277.3484,-48.4822 306,-42.5821 318.1974,-40.0703 331.4257,-36.504 342.8808,-33.1383"/>
<polygon fill="#191970" stroke="#191970" points="217.8503,-52.532 208.3019,-57.1232 218.6293,-59.4885 217.8503,-52.532"/>
</g>
<!-- Node23&#45;&gt;Node25 -->
<g id="edge3" class="edge">
<title>Node23&#45;&gt;Node25</title>
<path fill="none" stroke="#191970" d="M199.1465,-48.7561C214.51,-43.6573 231.879,-37.893 246.1161,-33.168"/>
<polygon fill="#191970" stroke="#191970" points="197.7817,-45.5213 189.3932,-51.993 199.9866,-52.165 197.7817,-45.5213"/>
</g>
<!-- Node25&#45;&gt;Node24 -->
<g id="edge4" class="edge">
<title>Node25&#45;&gt;Node24</title>
<path fill="none" stroke="#191970" d="M316.2358,-23.5821C324.8132,-23.5821 333.7163,-23.5821 341.8575,-23.5821"/>
<polygon fill="#191970" stroke="#191970" points="316.0078,-20.0822 306.0078,-23.5821 316.0078,-27.0822 316.0078,-20.0822"/>
</g>
</g>
</svg>
