<?xml version="1.0" encoding="UTF-8" standalone="no"?>
<!DOCTYPE svg PUBLIC "-//W3C//DTD SVG 1.1//EN"
 "http://www.w3.org/Graphics/SVG/1.1/DTD/svg11.dtd">
<!-- Generated by graphviz version 2.40.1 (20161225.0304)
 -->
<!-- Title: lmi_old_oracle::lmi_old_oracle Pages: 1 -->
<!--zoomable 180 -->
<svg id="main" version="1.1" xmlns="http://www.w3.org/2000/svg" xmlns:xlink="http://www.w3.org/1999/xlink" xml:space="preserve" onload="init(evt)">
<style type="text/css"><![CDATA[
.edge:hover path { stroke: red; }
.edge:hover polygon { stroke: red; fill: red; }
]]></style>
<script type="text/javascript"><![CDATA[
var edges = document.getElementsByTagName('g');
if (edges && edges.length) {
  for (var i=0;i<edges.length;i++) {
    if (edges[i].id.substr(0,4)=='edge') {
      edges[i].setAttribute('class','edge');
    }
  }
}
]]></script>
        <defs>
                <circle id="rim" cx="0" cy="0" r="7"/>
                <circle id="rim2" cx="0" cy="0" r="3.5"/>
                <g id="zoomPlus">
                        <use xlink:href="#rim" fill="#404040">
                                <set attributeName="fill" to="#808080" begin="zoomplus.mouseover" end="zoomplus.mouseout"/>
                        </use>
                        <path d="M-4,0h8M0,-4v8" fill="none" stroke="white" stroke-width="1.5" pointer-events="none"/>
                </g>
                <g id="zoomMin">
                        <use xlink:href="#rim" fill="#404040">
                                <set attributeName="fill" to="#808080" begin="zoomminus.mouseover" end="zoomminus.mouseout"/>
                        </use>
                        <path d="M-4,0h8" fill="none" stroke="white" stroke-width="1.5" pointer-events="none"/>
                </g>
                <g id="dirArrow">
                        <path fill="none" stroke="white" stroke-width="1.5" d="M0,-3.0v7 M-2.5,-0.5L0,-3.0L2.5,-0.5"/>
                </g>
               <g id="resetDef">
                       <use xlink:href="#rim2" fill="#404040">
                               <set attributeName="fill" to="#808080" begin="reset.mouseover" end="reset.mouseout"/>
                       </use>
               </g>
        </defs>

<script type="text/javascript">
var viewWidth = 532;
var viewHeight = 180;
var sectionId = 'dynsection-1';
</script>
<script xlink:href="svgpan.js"/>
<svg id="graph" class="graph">
<g id="viewport">
<title>lmi_old_oracle::lmi_old_oracle</title>
<polygon fill="#ffffff" stroke="transparent" points="-4,4 -4,-176 528,-176 528,4 -4,4"/>
<!-- Node2 -->
<g id="node1" class="node">
<title>Node2</title>
<polygon fill="#bfbfbf" stroke="#000000" points="0,-71 0,-101 98,-101 98,-71 0,-71"/>
<text text-anchor="start" x="8" y="-89" font-family="Helvetica,sans-Serif" font-size="10.00" fill="#000000">lmi_old_oracle::lmi</text>
<text text-anchor="middle" x="49" y="-78" font-family="Helvetica,sans-Serif" font-size="10.00" fill="#000000">_old_oracle</text>
</g>
<!-- Node3 -->
<g id="node2" class="node">
<title>Node3</title>
<g id="a_node2"><a xlink:href="classlmi__old__oracle.html#a505d905c270e88faf78ee85158aebb93" target="_top" xlink:title="lmi_old_oracle::operator()">
<polygon fill="#ffffff" stroke="#000000" points="134,-76.5 134,-95.5 260,-95.5 260,-76.5 134,-76.5"/>
<text text-anchor="middle" x="197" y="-83.5" font-family="Helvetica,sans-Serif" font-size="10.00" fill="#000000">lmi_old_oracle::operator()</text>
</a>
</g>
</g>
<!-- Node2&#45;&gt;Node3 -->
<g id="edge1" class="edge">
<title>Node2&#45;&gt;Node3</title>
<path fill="none" stroke="#191970" d="M98.2819,-86C106.5015,-86 115.1808,-86 123.8447,-86"/>
<polygon fill="#191970" stroke="#191970" points="123.9799,-89.5001 133.9798,-86 123.9798,-82.5001 123.9799,-89.5001"/>
</g>
<!-- Node4 -->
<g id="node3" class="node">
<title>Node4</title>
<g id="a_node3"><a xlink:href="classchol__ext.html#a5d927b9f300d005df3dac8b7b2ed9959" target="_top" xlink:title="Perform Cholesky Factorization. ">
<polygon fill="#ffffff" stroke="#000000" points="299.5,-152.5 299.5,-171.5 396.5,-171.5 396.5,-152.5 299.5,-152.5"/>
<text text-anchor="middle" x="348" y="-159.5" font-family="Helvetica,sans-Serif" font-size="10.00" fill="#000000">chol_ext::factorize</text>
</a>
</g>
</g>
<!-- Node3&#45;&gt;Node4 -->
<g id="edge2" class="edge">
<title>Node3&#45;&gt;Node4</title>
<path fill="none" stroke="#191970" d="M214.7435,-95.6712C234.447,-106.3281 267.2684,-123.8355 296,-138 302.8669,-141.3853 310.3074,-144.9055 317.3551,-148.173"/>
<polygon fill="#191970" stroke="#191970" points="316.0834,-151.4405 326.6314,-152.4358 319.0064,-145.0799 316.0834,-151.4405"/>
</g>
<!-- Node6 -->
<g id="node5" class="node">
<title>Node6</title>
<g id="a_node5"><a xlink:href="classchol__ext.html#aa7bda881d6d0b1431c53b0c2d9bca6a7" target="_top" xlink:title="Is $A$ symmetric positive definite (spd) ">
<polygon fill="#ffffff" stroke="#000000" points="436,-95.5 436,-114.5 524,-114.5 524,-95.5 436,-95.5"/>
<text text-anchor="middle" x="480" y="-102.5" font-family="Helvetica,sans-Serif" font-size="10.00" fill="#000000">chol_ext::is_spd</text>
</a>
</g>
</g>
<!-- Node3&#45;&gt;Node6 -->
<g id="edge4" class="edge">
<title>Node3&#45;&gt;Node6</title>
<path fill="none" stroke="#191970" d="M237.2105,-95.5106C255.0983,-99.2758 276.4867,-103.1444 296,-105 339.4568,-109.1324 388.9483,-108.8531 425.6493,-107.6945"/>
<polygon fill="#191970" stroke="#191970" points="425.7736,-111.1923 435.6461,-107.3473 425.5306,-104.1966 425.7736,-111.1923"/>
</g>
<!-- Node7 -->
<g id="node6" class="node">
<title>Node7</title>
<g id="a_node6"><a xlink:href="classchol__ext.html#ab6da61667cbd9f6a7b9678361ab92111" target="_top" xlink:title="witness that certifies $A$ is not symmetric positive definite (spd) ">
<polygon fill="#ffffff" stroke="#000000" points="301.5,-76.5 301.5,-95.5 394.5,-95.5 394.5,-76.5 301.5,-76.5"/>
<text text-anchor="middle" x="348" y="-83.5" font-family="Helvetica,sans-Serif" font-size="10.00" fill="#000000">chol_ext::witness</text>
</a>
</g>
</g>
<!-- Node3&#45;&gt;Node7 -->
<g id="edge5" class="edge">
<title>Node3&#45;&gt;Node7</title>
<path fill="none" stroke="#191970" d="M260.1627,-86C270.3594,-86 280.8647,-86 290.9073,-86"/>
<polygon fill="#191970" stroke="#191970" points="291.173,-89.5001 301.1729,-86 291.1729,-82.5001 291.173,-89.5001"/>
</g>
<!-- Node8 -->
<g id="node7" class="node">
<title>Node8</title>
<g id="a_node7"><a xlink:href="utility_8hpp.html#ae3041aeb9cef3e9f4416c91d3d43f86a" target="_top" xlink:title="zeros">
<polygon fill="#ffffff" stroke="#000000" points="327.5,-38.5 327.5,-57.5 368.5,-57.5 368.5,-38.5 327.5,-38.5"/>
<text text-anchor="middle" x="348" y="-45.5" font-family="Helvetica,sans-Serif" font-size="10.00" fill="#000000">zeros</text>
</a>
</g>
</g>
<!-- Node3&#45;&gt;Node8 -->
<g id="edge7" class="edge">
<title>Node3&#45;&gt;Node8</title>
<path fill="none" stroke="#191970" d="M235.1037,-76.411C260.523,-70.0141 293.5086,-61.7131 317.2532,-55.7376"/>
<polygon fill="#191970" stroke="#191970" points="318.2895,-59.086 327.1329,-53.2513 316.5811,-52.2977 318.2895,-59.086"/>
</g>
<!-- Node9 -->
<g id="node8" class="node">
<title>Node9</title>
<g id="a_node8"><a xlink:href="classchol__ext.html#a90e28583df646642f6ee74939612d65b" target="_top" xlink:title="Calculate v&#39;*{A}(p,p)*v. ">
<polygon fill="#ffffff" stroke="#000000" points="296,-.5 296,-19.5 400,-19.5 400,-.5 296,-.5"/>
<text text-anchor="middle" x="348" y="-7.5" font-family="Helvetica,sans-Serif" font-size="10.00" fill="#000000">chol_ext::sym_quad</text>
</a>
</g>
</g>
<!-- Node3&#45;&gt;Node9 -->
<g id="edge8" class="edge">
<title>Node3&#45;&gt;Node9</title>
<path fill="none" stroke="#191970" d="M211.6658,-76.4831C230.6251,-64.4339 264.9044,-43.5011 296,-29 300.3446,-26.974 304.97,-25.0162 309.602,-23.177"/>
<polygon fill="#191970" stroke="#191970" points="310.9325,-26.4156 319.031,-19.5844 308.4402,-19.8743 310.9325,-26.4156"/>
</g>
<!-- Node5 -->
<g id="node4" class="node">
<title>Node5</title>
<g id="a_node4"><a xlink:href="classchol__ext.html#a068e5dd5e74f3bc14fd8034eead3f872" target="_top" xlink:title="Perform Cholesky Factorization (Lazy evaluation) ">
<polygon fill="#ffffff" stroke="#000000" points="438,-152.5 438,-171.5 522,-171.5 522,-152.5 438,-152.5"/>
<text text-anchor="middle" x="480" y="-159.5" font-family="Helvetica,sans-Serif" font-size="10.00" fill="#000000">chol_ext::factor</text>
</a>
</g>
</g>
<!-- Node4&#45;&gt;Node5 -->
<g id="edge3" class="edge">
<title>Node4&#45;&gt;Node5</title>
<path fill="none" stroke="#191970" d="M396.7769,-162C406.9118,-162 417.6292,-162 427.879,-162"/>
<polygon fill="#191970" stroke="#191970" points="427.9339,-165.5001 437.9339,-162 427.9338,-158.5001 427.9339,-165.5001"/>
</g>
<!-- Node7&#45;&gt;Node6 -->
<g id="edge6" class="edge">
<title>Node7&#45;&gt;Node6</title>
<path fill="none" stroke="#191970" d="M394.5383,-92.6987C404.5587,-94.141 415.2365,-95.678 425.5283,-97.1594"/>
<polygon fill="#191970" stroke="#191970" points="425.2562,-100.6562 435.6529,-98.6167 426.2535,-93.7276 425.2562,-100.6562"/>
</g>
</g>
</svg>
        <g id="navigator" transform="translate(0 0)" fill="#404254">
                <rect fill="#f2f5e9" fill-opacity="0.5" stroke="#606060" stroke-width=".5" x="0" y="0" width="60" height="60"/>
                <use id="zoomplus" xlink:href="#zoomPlus" x="17" y="9" onmousedown="handleZoom(evt,'in')"/>
                <use id="zoomminus" xlink:href="#zoomMin" x="42" y="9" onmousedown="handleZoom(evt,'out')"/>
                <use id="reset" xlink:href="#resetDef" x="30" y="36" onmousedown="handleReset()"/>
                <g id="arrowUp" xlink:href="#dirArrow" transform="translate(30 24)" onmousedown="handlePan(0,-1)">
                  <use xlink:href="#rim" fill="#404040">
                        <set attributeName="fill" to="#808080" begin="arrowUp.mouseover" end="arrowUp.mouseout"/>
                  </use>
                  <path fill="none" stroke="white" stroke-width="1.5" d="M0,-3.0v7 M-2.5,-0.5L0,-3.0L2.5,-0.5"/>
                </g>
                <g id="arrowRight" xlink:href="#dirArrow" transform="rotate(90) translate(36 -43)" onmousedown="handlePan(1,0)">
                  <use xlink:href="#rim" fill="#404040">
                        <set attributeName="fill" to="#808080" begin="arrowRight.mouseover" end="arrowRight.mouseout"/>
                  </use>
                  <path fill="none" stroke="white" stroke-width="1.5" d="M0,-3.0v7 M-2.5,-0.5L0,-3.0L2.5,-0.5"/>
                </g>
                <g id="arrowDown" xlink:href="#dirArrow" transform="rotate(180) translate(-30 -48)" onmousedown="handlePan(0,1)">
                  <use xlink:href="#rim" fill="#404040">
                        <set attributeName="fill" to="#808080" begin="arrowDown.mouseover" end="arrowDown.mouseout"/>
                  </use>
                  <path fill="none" stroke="white" stroke-width="1.5" d="M0,-3.0v7 M-2.5,-0.5L0,-3.0L2.5,-0.5"/>
                </g>
                <g id="arrowLeft" xlink:href="#dirArrow" transform="rotate(270) translate(-36 17)" onmousedown="handlePan(-1,0)">
                  <use xlink:href="#rim" fill="#404040">
                        <set attributeName="fill" to="#808080" begin="arrowLeft.mouseover" end="arrowLeft.mouseout"/>
                  </use>
                  <path fill="none" stroke="white" stroke-width="1.5" d="M0,-3.0v7 M-2.5,-0.5L0,-3.0L2.5,-0.5"/>
                </g>
        </g>
        <svg viewBox="0 0 15 15" width="100%" height="30px" preserveAspectRatio="xMaxYMin meet">
         <g id="arrow_out" transform="scale(0.3 0.3)">
          <a xlink:href="classlmi__old__oracle_a12e514ccdcab9066788323fd74b82bcd_cgraph_org.svg" target="_base">
           <rect id="button" ry="5" rx="5" y="6" x="6" height="38" width="38"
                fill="#f2f5e9" fill-opacity="0.5" stroke="#606060" stroke-width="1.0"/>
           <path id="arrow"
             d="M 11.500037,31.436501 C 11.940474,20.09759 22.043105,11.32322 32.158766,21.979434 L 37.068811,17.246167 C 37.068811,17.246167 37.088388,32 37.088388,32 L 22.160133,31.978069 C 22.160133,31.978069 26.997745,27.140456 26.997745,27.140456 C 18.528582,18.264221 13.291696,25.230495 11.500037,31.436501 z"
             style="fill:#404040;"/>
          </a>
         </g>
        </svg>
</svg>
