<?xml version="1.0" encoding="UTF-8" standalone="no"?>
<!DOCTYPE svg PUBLIC "-//W3C//DTD SVG 1.1//EN"
 "http://www.w3.org/Graphics/SVG/1.1/DTD/svg11.dtd">
<!-- Generated by graphviz version 2.40.1 (20161225.0304)
 -->
<!-- Title: negCycleFinder&lt; Graph &gt; Pages: 1 -->
<!--zoomable 470 -->
<svg id="main" version="1.1" xmlns="http://www.w3.org/2000/svg" xmlns:xlink="http://www.w3.org/1999/xlink" xml:space="preserve" onload="init(evt)">
<style type="text/css"><![CDATA[
.edge:hover path { stroke: red; }
.edge:hover polygon { stroke: red; fill: red; }
]]></style>
<script type="text/javascript"><![CDATA[
var edges = document.getElementsByTagName('g');
if (edges && edges.length) {
  for (var i=0;i<edges.length;i++) {
    if (edges[i].id.substr(0,4)=='edge') {
      edges[i].setAttribute('class','edge');
    }
  }
}
]]></script>
        <defs>
                <circle id="rim" cx="0" cy="0" r="7"/>
                <circle id="rim2" cx="0" cy="0" r="3.5"/>
                <g id="zoomPlus">
                        <use xlink:href="#rim" fill="#404040">
                                <set attributeName="fill" to="#808080" begin="zoomplus.mouseover" end="zoomplus.mouseout"/>
                        </use>
                        <path d="M-4,0h8M0,-4v8" fill="none" stroke="white" stroke-width="1.5" pointer-events="none"/>
                </g>
                <g id="zoomMin">
                        <use xlink:href="#rim" fill="#404040">
                                <set attributeName="fill" to="#808080" begin="zoomminus.mouseover" end="zoomminus.mouseout"/>
                        </use>
                        <path d="M-4,0h8" fill="none" stroke="white" stroke-width="1.5" pointer-events="none"/>
                </g>
                <g id="dirArrow">
                        <path fill="none" stroke="white" stroke-width="1.5" d="M0,-3.0v7 M-2.5,-0.5L0,-3.0L2.5,-0.5"/>
                </g>
               <g id="resetDef">
                       <use xlink:href="#rim2" fill="#404040">
                               <set attributeName="fill" to="#808080" begin="reset.mouseover" end="reset.mouseout"/>
                       </use>
               </g>
        </defs>

<script type="text/javascript">
var viewWidth = 288;
var viewHeight = 470;
var sectionId = 'dynsection-0';
</script>
<script xlink:href="svgpan.js"/>
<svg id="graph" class="graph">
<g id="viewport">
<title>negCycleFinder&lt; Graph &gt;</title>
<polygon fill="#ffffff" stroke="transparent" points="-4,4 -4,-466 284,-466 284,4 -4,4"/>
<!-- Node1 -->
<g id="node1" class="node">
<title>Node1</title>
<polygon fill="#bfbfbf" stroke="#000000" points="75,-.5 75,-112.5 204,-112.5 204,-.5 75,-.5"/>
<text text-anchor="middle" x="139.5" y="-100.5" font-family="Helvetica,sans-Serif" font-size="10.00" fill="#000000">negCycleFinder&lt; Graph &gt;</text>
<polyline fill="none" stroke="#000000" points="75,-93.5 204,-93.5 "/>
<text text-anchor="start" x="83" y="-81.5" font-family="Helvetica,sans-Serif" font-size="10.00" fill="#000000">&#45; _G</text>
<polyline fill="none" stroke="#000000" points="75,-74.5 204,-74.5 "/>
<text text-anchor="start" x="83" y="-62.5" font-family="Helvetica,sans-Serif" font-size="10.00" fill="#000000">+ negCycleFinder()</text>
<text text-anchor="start" x="83" y="-51.5" font-family="Helvetica,sans-Serif" font-size="10.00" fill="#000000">+ find_neg_cycle()</text>
<text text-anchor="start" x="83" y="-40.5" font-family="Helvetica,sans-Serif" font-size="10.00" fill="#000000">&#45; __find_cycle()</text>
<text text-anchor="start" x="83" y="-29.5" font-family="Helvetica,sans-Serif" font-size="10.00" fill="#000000">&#45; __relax()</text>
<text text-anchor="start" x="83" y="-18.5" font-family="Helvetica,sans-Serif" font-size="10.00" fill="#000000">&#45; __cycle_list()</text>
<text text-anchor="start" x="83" y="-7.5" font-family="Helvetica,sans-Serif" font-size="10.00" fill="#000000">&#45; __is_negative()</text>
</g>
<!-- Node2 -->
<g id="node2" class="node">
<title>Node2</title>
<g id="a_node2"><a xlink:href="classpy_1_1dict.html" target="_top" xlink:title="{py::dict\&lt; node_t, node_t \&gt;\n||+ dict()\l+ dict()\l+ operator=()\l&#45; dict()\l}">
<polygon fill="#ffffff" stroke="#000000" points="0,-160.5 0,-250.5 131,-250.5 131,-160.5 0,-160.5"/>
<text text-anchor="middle" x="65.5" y="-238.5" font-family="Helvetica,sans-Serif" font-size="10.00" fill="#000000">py::dict&lt; node_t, node_t &gt;</text>
<polyline fill="none" stroke="#000000" points="0,-231.5 131,-231.5 "/>
<text text-anchor="middle" x="65.5" y="-219.5" font-family="Helvetica,sans-Serif" font-size="10.00" fill="#000000"> </text>
<polyline fill="none" stroke="#000000" points="0,-212.5 131,-212.5 "/>
<text text-anchor="start" x="8" y="-200.5" font-family="Helvetica,sans-Serif" font-size="10.00" fill="#000000">+ dict()</text>
<text text-anchor="start" x="8" y="-189.5" font-family="Helvetica,sans-Serif" font-size="10.00" fill="#000000">+ dict()</text>
<text text-anchor="start" x="8" y="-178.5" font-family="Helvetica,sans-Serif" font-size="10.00" fill="#000000">+ operator=()</text>
<text text-anchor="start" x="8" y="-167.5" font-family="Helvetica,sans-Serif" font-size="10.00" fill="#000000">&#45; dict()</text>
</a>
</g>
</g>
<!-- Node2&#45;&gt;Node1 -->
<g id="edge1" class="edge">
<title>Node2&#45;&gt;Node1</title>
<path fill="none" stroke="#404040" d="M87.9033,-160.3907C93.6939,-148.7312 100.0527,-135.9278 106.2681,-123.4129"/>
<polygon fill="none" stroke="#404040" points="106.3376,-123.2729 105.4239,-116.1199 111.6753,-112.5254 112.589,-119.6784 106.3376,-123.2729"/>
<text text-anchor="middle" x="118" y="-134" font-family="Helvetica,sans-Serif" font-size="10.00" fill="#000000"> &#45;_pred</text>
</g>
<!-- Node3 -->
<g id="node3" class="node">
<title>Node3</title>
<g id="a_node3"><a xlink:title="STL class. ">
<polygon fill="#ffffff" stroke="#bfbfbf" points="14,-288.5 14,-356.5 117,-356.5 117,-288.5 14,-288.5"/>
<text text-anchor="start" x="22" y="-344.5" font-family="Helvetica,sans-Serif" font-size="10.00" fill="#000000">std::unordered_map</text>
<text text-anchor="middle" x="65.5" y="-333.5" font-family="Helvetica,sans-Serif" font-size="10.00" fill="#000000">&lt; node_t, node_t &gt;</text>
<polyline fill="none" stroke="#bfbfbf" points="14,-326.5 117,-326.5 "/>
<text text-anchor="middle" x="65.5" y="-314.5" font-family="Helvetica,sans-Serif" font-size="10.00" fill="#000000"> </text>
<polyline fill="none" stroke="#bfbfbf" points="14,-307.5 117,-307.5 "/>
<text text-anchor="middle" x="65.5" y="-295.5" font-family="Helvetica,sans-Serif" font-size="10.00" fill="#000000"> </text>
</a>
</g>
</g>
<!-- Node3&#45;&gt;Node2 -->
<g id="edge2" class="edge">
<title>Node3&#45;&gt;Node2</title>
<path fill="none" stroke="#191970" d="M65.5,-278.1185C65.5,-269.1783 65.5,-259.7704 65.5,-250.7993"/>
<polygon fill="none" stroke="#191970" points="62.0001,-278.3442 65.5,-288.3442 69.0001,-278.3443 62.0001,-278.3442"/>
</g>
<!-- Node4 -->
<g id="node4" class="node">
<title>Node4</title>
<polygon fill="#ffffff" stroke="#bfbfbf" points="63,-404.5 63,-461.5 92,-461.5 92,-404.5 63,-404.5"/>
<text text-anchor="middle" x="77.5" y="-449.5" font-family="Helvetica,sans-Serif" font-size="10.00" fill="#000000">K</text>
<polyline fill="none" stroke="#bfbfbf" points="63,-442.5 92,-442.5 "/>
<text text-anchor="middle" x="77.5" y="-430.5" font-family="Helvetica,sans-Serif" font-size="10.00" fill="#000000"> </text>
<polyline fill="none" stroke="#bfbfbf" points="63,-423.5 92,-423.5 "/>
<text text-anchor="middle" x="77.5" y="-411.5" font-family="Helvetica,sans-Serif" font-size="10.00" fill="#000000"> </text>
</g>
<!-- Node4&#45;&gt;Node3 -->
<g id="edge3" class="edge">
<title>Node4&#45;&gt;Node3</title>
<path fill="none" stroke="#404040" d="M62.8991,-411.9705C58.3081,-404.1757 53.8309,-395.029 51.5,-386 50.0423,-380.3536 49.7429,-374.4004 50.1937,-368.4942"/>
<polygon fill="none" stroke="#404040" points="50.2069,-368.4089 47.1715,-361.8677 52.042,-356.55 55.0774,-363.0911 50.2069,-368.4089"/>
<text text-anchor="middle" x="67" y="-378" font-family="Helvetica,sans-Serif" font-size="10.00" fill="#000000"> +keys</text>
</g>
<!-- Node7 -->
<g id="node7" class="node">
<title>Node7</title>
<g id="a_node7"><a xlink:title="STL class. ">
<polygon fill="#ffffff" stroke="#bfbfbf" points="163,-288.5 163,-356.5 266,-356.5 266,-288.5 163,-288.5"/>
<text text-anchor="start" x="171" y="-344.5" font-family="Helvetica,sans-Serif" font-size="10.00" fill="#000000">std::unordered_map</text>
<text text-anchor="middle" x="214.5" y="-333.5" font-family="Helvetica,sans-Serif" font-size="10.00" fill="#000000">&lt; node_t, edge_t &gt;</text>
<polyline fill="none" stroke="#bfbfbf" points="163,-326.5 266,-326.5 "/>
<text text-anchor="middle" x="214.5" y="-314.5" font-family="Helvetica,sans-Serif" font-size="10.00" fill="#000000"> </text>
<polyline fill="none" stroke="#bfbfbf" points="163,-307.5 266,-307.5 "/>
<text text-anchor="middle" x="214.5" y="-295.5" font-family="Helvetica,sans-Serif" font-size="10.00" fill="#000000"> </text>
</a>
</g>
</g>
<!-- Node4&#45;&gt;Node7 -->
<g id="edge7" class="edge">
<title>Node4&#45;&gt;Node7</title>
<path fill="none" stroke="#404040" d="M84.649,-404.2961C88.332,-394.0759 93.734,-383.104 101.5,-375 109.4021,-366.754 130.0107,-356.3784 151.4992,-347.0329"/>
<polygon fill="none" stroke="#404040" points="151.7075,-346.9446 155.6679,-340.9184 162.7538,-342.2565 158.7933,-348.2827 151.7075,-346.9446"/>
<text text-anchor="middle" x="117" y="-378" font-family="Helvetica,sans-Serif" font-size="10.00" fill="#000000"> +keys</text>
</g>
<!-- Node5 -->
<g id="node5" class="node">
<title>Node5</title>
<polygon fill="#ffffff" stroke="#bfbfbf" points="180,-404.5 180,-461.5 209,-461.5 209,-404.5 180,-404.5"/>
<text text-anchor="middle" x="194.5" y="-449.5" font-family="Helvetica,sans-Serif" font-size="10.00" fill="#000000">T</text>
<polyline fill="none" stroke="#bfbfbf" points="180,-442.5 209,-442.5 "/>
<text text-anchor="middle" x="194.5" y="-430.5" font-family="Helvetica,sans-Serif" font-size="10.00" fill="#000000"> </text>
<polyline fill="none" stroke="#bfbfbf" points="180,-423.5 209,-423.5 "/>
<text text-anchor="middle" x="194.5" y="-411.5" font-family="Helvetica,sans-Serif" font-size="10.00" fill="#000000"> </text>
</g>
<!-- Node5&#45;&gt;Node3 -->
<g id="edge4" class="edge">
<title>Node5&#45;&gt;Node3</title>
<path fill="none" stroke="#404040" d="M179.8308,-417.0939C168.4464,-405.0616 152.037,-388.3829 136.5,-375 132.2241,-371.3169 127.7098,-367.6075 123.1141,-363.9554"/>
<polygon fill="none" stroke="#404040" points="123.0879,-363.9351 115.8961,-363.4079 113.6167,-356.5665 120.8085,-357.0937 123.0879,-363.9351"/>
<text text-anchor="middle" x="172" y="-378" font-family="Helvetica,sans-Serif" font-size="10.00" fill="#000000"> +elements</text>
</g>
<!-- Node5&#45;&gt;Node7 -->
<g id="edge8" class="edge">
<title>Node5&#45;&gt;Node7</title>
<path fill="none" stroke="#404040" d="M203.9891,-404.3882C205.7123,-398.3681 207.3311,-392.0176 208.5,-386 209.5907,-380.3848 210.4856,-374.4503 211.2192,-368.5539"/>
<polygon fill="none" stroke="#404040" points="211.2196,-368.5492 207.8878,-362.154 212.5096,-356.6188 215.8414,-363.014 211.2196,-368.5492"/>
<text text-anchor="middle" x="234" y="-378" font-family="Helvetica,sans-Serif" font-size="10.00" fill="#000000"> +elements</text>
</g>
<!-- Node6 -->
<g id="node6" class="node">
<title>Node6</title>
<g id="a_node6"><a xlink:href="classpy_1_1dict.html" target="_top" xlink:title="{py::dict\&lt; node_t, edge_t \&gt;\n||+ dict()\l+ dict()\l+ operator=()\l&#45; dict()\l}">
<polygon fill="#ffffff" stroke="#000000" points="149,-160.5 149,-250.5 280,-250.5 280,-160.5 149,-160.5"/>
<text text-anchor="middle" x="214.5" y="-238.5" font-family="Helvetica,sans-Serif" font-size="10.00" fill="#000000">py::dict&lt; node_t, edge_t &gt;</text>
<polyline fill="none" stroke="#000000" points="149,-231.5 280,-231.5 "/>
<text text-anchor="middle" x="214.5" y="-219.5" font-family="Helvetica,sans-Serif" font-size="10.00" fill="#000000"> </text>
<polyline fill="none" stroke="#000000" points="149,-212.5 280,-212.5 "/>
<text text-anchor="start" x="157" y="-200.5" font-family="Helvetica,sans-Serif" font-size="10.00" fill="#000000">+ dict()</text>
<text text-anchor="start" x="157" y="-189.5" font-family="Helvetica,sans-Serif" font-size="10.00" fill="#000000">+ dict()</text>
<text text-anchor="start" x="157" y="-178.5" font-family="Helvetica,sans-Serif" font-size="10.00" fill="#000000">+ operator=()</text>
<text text-anchor="start" x="157" y="-167.5" font-family="Helvetica,sans-Serif" font-size="10.00" fill="#000000">&#45; dict()</text>
</a>
</g>
</g>
<!-- Node6&#45;&gt;Node1 -->
<g id="edge5" class="edge">
<title>Node6&#45;&gt;Node1</title>
<path fill="none" stroke="#404040" d="M191.794,-160.3907C185.9251,-148.7312 179.4804,-135.9278 173.181,-123.4129"/>
<polygon fill="none" stroke="#404040" points="173.0961,-123.2441 166.8255,-119.6832 167.7007,-112.5254 173.9713,-116.0862 173.0961,-123.2441"/>
<text text-anchor="middle" x="197" y="-134" font-family="Helvetica,sans-Serif" font-size="10.00" fill="#000000"> &#45;_edge</text>
</g>
<!-- Node7&#45;&gt;Node6 -->
<g id="edge6" class="edge">
<title>Node7&#45;&gt;Node6</title>
<path fill="none" stroke="#191970" d="M214.5,-278.1185C214.5,-269.1783 214.5,-259.7704 214.5,-250.7993"/>
<polygon fill="none" stroke="#191970" points="211.0001,-278.3442 214.5,-288.3442 218.0001,-278.3443 211.0001,-278.3442"/>
</g>
</g>
</svg>
        <g id="navigator" transform="translate(0 0)" fill="#404254">
                <rect fill="#f2f5e9" fill-opacity="0.5" stroke="#606060" stroke-width=".5" x="0" y="0" width="60" height="60"/>
                <use id="zoomplus" xlink:href="#zoomPlus" x="17" y="9" onmousedown="handleZoom(evt,'in')"/>
                <use id="zoomminus" xlink:href="#zoomMin" x="42" y="9" onmousedown="handleZoom(evt,'out')"/>
                <use id="reset" xlink:href="#resetDef" x="30" y="36" onmousedown="handleReset()"/>
                <g id="arrowUp" xlink:href="#dirArrow" transform="translate(30 24)" onmousedown="handlePan(0,-1)">
                  <use xlink:href="#rim" fill="#404040">
                        <set attributeName="fill" to="#808080" begin="arrowUp.mouseover" end="arrowUp.mouseout"/>
                  </use>
                  <path fill="none" stroke="white" stroke-width="1.5" d="M0,-3.0v7 M-2.5,-0.5L0,-3.0L2.5,-0.5"/>
                </g>
                <g id="arrowRight" xlink:href="#dirArrow" transform="rotate(90) translate(36 -43)" onmousedown="handlePan(1,0)">
                  <use xlink:href="#rim" fill="#404040">
                        <set attributeName="fill" to="#808080" begin="arrowRight.mouseover" end="arrowRight.mouseout"/>
                  </use>
                  <path fill="none" stroke="white" stroke-width="1.5" d="M0,-3.0v7 M-2.5,-0.5L0,-3.0L2.5,-0.5"/>
                </g>
                <g id="arrowDown" xlink:href="#dirArrow" transform="rotate(180) translate(-30 -48)" onmousedown="handlePan(0,1)">
                  <use xlink:href="#rim" fill="#404040">
                        <set attributeName="fill" to="#808080" begin="arrowDown.mouseover" end="arrowDown.mouseout"/>
                  </use>
                  <path fill="none" stroke="white" stroke-width="1.5" d="M0,-3.0v7 M-2.5,-0.5L0,-3.0L2.5,-0.5"/>
                </g>
                <g id="arrowLeft" xlink:href="#dirArrow" transform="rotate(270) translate(-36 17)" onmousedown="handlePan(-1,0)">
                  <use xlink:href="#rim" fill="#404040">
                        <set attributeName="fill" to="#808080" begin="arrowLeft.mouseover" end="arrowLeft.mouseout"/>
                  </use>
                  <path fill="none" stroke="white" stroke-width="1.5" d="M0,-3.0v7 M-2.5,-0.5L0,-3.0L2.5,-0.5"/>
                </g>
        </g>
        <svg viewBox="0 0 15 15" width="100%" height="30px" preserveAspectRatio="xMaxYMin meet">
         <g id="arrow_out" transform="scale(0.3 0.3)">
          <a xlink:href="classnegCycleFinder__coll__graph_org.svg" target="_base">
           <rect id="button" ry="5" rx="5" y="6" x="6" height="38" width="38"
                fill="#f2f5e9" fill-opacity="0.5" stroke="#606060" stroke-width="1.0"/>
           <path id="arrow"
             d="M 11.500037,31.436501 C 11.940474,20.09759 22.043105,11.32322 32.158766,21.979434 L 37.068811,17.246167 C 37.068811,17.246167 37.088388,32 37.088388,32 L 22.160133,31.978069 C 22.160133,31.978069 26.997745,27.140456 26.997745,27.140456 C 18.528582,18.264221 13.291696,25.230495 11.500037,31.436501 z"
             style="fill:#404040;"/>
          </a>
         </g>
        </svg>
</svg>
