<?xml version="1.0" encoding="UTF-8" standalone="no"?>
<!DOCTYPE svg PUBLIC "-//W3C//DTD SVG 1.1//EN"
 "http://www.w3.org/Graphics/SVG/1.1/DTD/svg11.dtd">
<!-- Generated by graphviz version 2.40.1 (20161225.0304)
 -->
<!-- Title: ell::set_xc Pages: 1 -->
<!--zoomable 196 -->
<svg id="main" version="1.1" xmlns="http://www.w3.org/2000/svg" xmlns:xlink="http://www.w3.org/1999/xlink" xml:space="preserve" onload="init(evt)">
<style type="text/css"><![CDATA[
.edge:hover path { stroke: red; }
.edge:hover polygon { stroke: red; fill: red; }
]]></style>
<script type="text/javascript"><![CDATA[
var edges = document.getElementsByTagName('g');
if (edges && edges.length) {
  for (var i=0;i<edges.length;i++) {
    if (edges[i].id.substr(0,4)=='edge') {
      edges[i].setAttribute('class','edge');
    }
  }
}
]]></script>
        <defs>
                <circle id="rim" cx="0" cy="0" r="7"/>
                <circle id="rim2" cx="0" cy="0" r="3.5"/>
                <g id="zoomPlus">
                        <use xlink:href="#rim" fill="#404040">
                                <set attributeName="fill" to="#808080" begin="zoomplus.mouseover" end="zoomplus.mouseout"/>
                        </use>
                        <path d="M-4,0h8M0,-4v8" fill="none" stroke="white" stroke-width="1.5" pointer-events="none"/>
                </g>
                <g id="zoomMin">
                        <use xlink:href="#rim" fill="#404040">
                                <set attributeName="fill" to="#808080" begin="zoomminus.mouseover" end="zoomminus.mouseout"/>
                        </use>
                        <path d="M-4,0h8" fill="none" stroke="white" stroke-width="1.5" pointer-events="none"/>
                </g>
                <g id="dirArrow">
                        <path fill="none" stroke="white" stroke-width="1.5" d="M0,-3.0v7 M-2.5,-0.5L0,-3.0L2.5,-0.5"/>
                </g>
               <g id="resetDef">
                       <use xlink:href="#rim2" fill="#404040">
                               <set attributeName="fill" to="#808080" begin="reset.mouseover" end="reset.mouseout"/>
                       </use>
               </g>
        </defs>

<script type="text/javascript">
var viewWidth = 651;
var viewHeight = 196;
var sectionId = 'dynsection-10';
</script>
<script xlink:href="svgpan.js"/>
<svg id="graph" class="graph">
<g id="viewport">
<title>ell::set_xc</title>
<polygon fill="#ffffff" stroke="transparent" points="-4,4 -4,-192.0104 647,-192.0104 647,4 -4,4"/>
<!-- Node42 -->
<g id="node1" class="node">
<title>Node42</title>
<polygon fill="#bfbfbf" stroke="#000000" points="0,-95.5 0,-114.5 62,-114.5 62,-95.5 0,-95.5"/>
<text text-anchor="middle" x="31" y="-102.5" font-family="Helvetica,sans-Serif" font-size="10.00" fill="#000000">ell::set_xc</text>
</g>
<!-- Node43 -->
<g id="node2" class="node">
<title>Node43</title>
<g id="a_node2"><a xlink:href="classell.html#ab3816a03d3ae7e9cc224efbfdb7cf47f" target="_top" xlink:title="Calculate new ellipsoid under Central Cut. ">
<polygon fill="#ffffff" stroke="#000000" points="449,-152.5 449,-171.5 526,-171.5 526,-152.5 449,-152.5"/>
<text text-anchor="middle" x="487.5" y="-159.5" font-family="Helvetica,sans-Serif" font-size="10.00" fill="#000000">ell::__calc_cc</text>
</a>
</g>
</g>
<!-- Node42&#45;&gt;Node43 -->
<g id="edge1" class="edge">
<title>Node42&#45;&gt;Node43</title>
<path fill="none" stroke="#191970" d="M38.8181,-114.8286C50.1795,-128.2383 72.6811,-151.6658 98,-161 214.0437,-203.7811 363.0863,-185.9433 438.744,-172.2674"/>
<polygon fill="#191970" stroke="#191970" points="439.7313,-175.6438 448.9215,-170.372 438.4497,-168.7621 439.7313,-175.6438"/>
</g>
<!-- Node44 -->
<g id="node3" class="node">
<title>Node44</title>
<g id="a_node3"><a xlink:href="classell.html#a6684b3119db38113cfb0de9c7560eae3" target="_top" xlink:title="Calculate new ellipsoid under Deep Cut. ">
<polygon fill="#ffffff" stroke="#000000" points="331.5,-114.5 331.5,-133.5 408.5,-133.5 408.5,-114.5 331.5,-114.5"/>
<text text-anchor="middle" x="370" y="-121.5" font-family="Helvetica,sans-Serif" font-size="10.00" fill="#000000">ell::__calc_dc</text>
</a>
</g>
</g>
<!-- Node42&#45;&gt;Node44 -->
<g id="edge2" class="edge">
<title>Node42&#45;&gt;Node44</title>
<path fill="none" stroke="#191970" d="M43.4714,-114.7207C56.312,-124.0625 77.3119,-137.5416 98,-143 175.8294,-163.5346 270.2709,-148.4075 324.9185,-135.9336"/>
<polygon fill="#191970" stroke="#191970" points="326.0424,-139.2647 334.9735,-133.5651 324.4374,-132.4512 326.0424,-139.2647"/>
</g>
<!-- Node47 -->
<g id="node6" class="node">
<title>Node47</title>
<g id="a_node6"><a xlink:href="classell.html#a5953411b2e32d0f83e1e9c1a9b68ca8c" target="_top" xlink:title="Calculate new ellipsoid under Parallel Cut, one of them is central. ">
<polygon fill="#ffffff" stroke="#000000" points="327,-38.5 327,-57.5 413,-57.5 413,-38.5 327,-38.5"/>
<text text-anchor="middle" x="370" y="-45.5" font-family="Helvetica,sans-Serif" font-size="10.00" fill="#000000">ell::__calc_ll_cc</text>
</a>
</g>
</g>
<!-- Node42&#45;&gt;Node47 -->
<g id="edge6" class="edge">
<title>Node42&#45;&gt;Node47</title>
<path fill="none" stroke="#191970" d="M62.0013,-97.5039C73.322,-94.7911 86.2329,-91.7257 98,-89 141.4881,-78.9266 151.9652,-74.3232 196,-67 236.2056,-60.3136 282.0444,-55.4181 316.5772,-52.2723"/>
<polygon fill="#191970" stroke="#191970" points="317.2624,-55.7252 326.9126,-51.3521 316.6416,-48.7528 317.2624,-55.7252"/>
</g>
<!-- Node48 -->
<g id="node7" class="node">
<title>Node48</title>
<g id="a_node7"><a xlink:href="classell.html#af4a6ea8bd54b7f7eb77cffe4fdb1566a" target="_top" xlink:title="Calculate new ellipsoid under Parallel Cut. ">
<polygon fill="#ffffff" stroke="#000000" points="196,-76.5 196,-95.5 291,-95.5 291,-76.5 196,-76.5"/>
<text text-anchor="middle" x="243.5" y="-83.5" font-family="Helvetica,sans-Serif" font-size="10.00" fill="#000000">ell::__calc_ll_core</text>
</a>
</g>
</g>
<!-- Node42&#45;&gt;Node48 -->
<g id="edge8" class="edge">
<title>Node42&#45;&gt;Node48</title>
<path fill="none" stroke="#191970" d="M62.3551,-102.1965C94.7476,-99.3002 146.0365,-94.7144 185.7838,-91.1605"/>
<polygon fill="#191970" stroke="#191970" points="186.2326,-94.6344 195.8812,-90.2577 185.6092,-87.6622 186.2326,-94.6344"/>
</g>
<!-- Node49 -->
<g id="node8" class="node">
<title>Node49</title>
<g id="a_node8"><a xlink:href="classell.html#a029e50a48cdea250b0818294a12410ea" target="_top" xlink:title="Update ellipsoid core function using the cut(s) ">
<polygon fill="#ffffff" stroke="#000000" points="98,-114.5 98,-133.5 160,-133.5 160,-114.5 98,-114.5"/>
<text text-anchor="middle" x="129" y="-121.5" font-family="Helvetica,sans-Serif" font-size="10.00" fill="#000000">ell::update</text>
</a>
</g>
</g>
<!-- Node42&#45;&gt;Node49 -->
<g id="edge12" class="edge">
<title>Node42&#45;&gt;Node49</title>
<path fill="none" stroke="#191970" d="M62.0078,-111.0117C70.23,-112.6058 79.237,-114.3521 87.905,-116.0326"/>
<polygon fill="#191970" stroke="#191970" points="87.3741,-119.4948 97.8575,-117.9622 88.7065,-112.6227 87.3741,-119.4948"/>
</g>
<!-- Node50 -->
<g id="node9" class="node">
<title>Node50</title>
<g id="a_node9"><a xlink:href="classell.html#a52e2c3b84796b3786991f36f2b2cbc4e" target="_top" xlink:title="copy the whole array anyway ">
<polygon fill="#ffffff" stroke="#000000" points="107.5,-.5 107.5,-19.5 150.5,-19.5 150.5,-.5 107.5,-.5"/>
<text text-anchor="middle" x="129" y="-7.5" font-family="Helvetica,sans-Serif" font-size="10.00" fill="#000000">ell::xc</text>
</a>
</g>
</g>
<!-- Node42&#45;&gt;Node50 -->
<g id="edge15" class="edge">
<title>Node42&#45;&gt;Node50</title>
<path fill="none" stroke="#191970" d="M39.2339,-95.3613C51.4585,-81.2693 75.4017,-54.4934 98,-34 101.033,-31.2495 104.3524,-28.4664 107.656,-25.8179"/>
<polygon fill="#191970" stroke="#191970" points="109.907,-28.5014 115.6637,-19.6069 105.6168,-22.9702 109.907,-28.5014"/>
</g>
<!-- Node44&#45;&gt;Node43 -->
<g id="edge3" class="edge">
<title>Node44&#45;&gt;Node43</title>
<path fill="none" stroke="#191970" d="M399.6502,-133.589C414.4009,-138.3594 432.4258,-144.1888 448.301,-149.3229"/>
<polygon fill="#191970" stroke="#191970" points="447.2675,-152.667 457.8593,-152.4141 449.4215,-146.0067 447.2675,-152.667"/>
</g>
<!-- Node45 -->
<g id="node4" class="node">
<title>Node45</title>
<g id="a_node4"><a xlink:href="monomial_8hpp.html#aac228420ac44c1280baec6bfd23e034c" target="_top" xlink:title="Square root. ">
<polygon fill="#ffffff" stroke="#000000" points="471,-76.5 471,-95.5 504,-95.5 504,-76.5 471,-76.5"/>
<text text-anchor="middle" x="487.5" y="-83.5" font-family="Helvetica,sans-Serif" font-size="10.00" fill="#000000">sqrt</text>
</a>
</g>
</g>
<!-- Node44&#45;&gt;Node45 -->
<g id="edge4" class="edge">
<title>Node44&#45;&gt;Node45</title>
<path fill="none" stroke="#191970" d="M399.6502,-114.411C418.6064,-108.2805 442.97,-100.4012 461.2295,-94.496"/>
<polygon fill="#191970" stroke="#191970" points="462.4921,-97.7662 470.9299,-91.3589 460.338,-91.1059 462.4921,-97.7662"/>
</g>
<!-- Node46 -->
<g id="node5" class="node">
<title>Node46</title>
<g id="a_node5"><a xlink:href="classmonomial.html#ac34f9253980541a1050dc2301af35126" target="_top" xlink:title="Square root. ">
<polygon fill="#ffffff" stroke="#000000" points="562,-76.5 562,-95.5 643,-95.5 643,-76.5 562,-76.5"/>
<text text-anchor="middle" x="602.5" y="-83.5" font-family="Helvetica,sans-Serif" font-size="10.00" fill="#000000">monomial::sqrt</text>
</a>
</g>
</g>
<!-- Node45&#45;&gt;Node46 -->
<g id="edge5" class="edge">
<title>Node45&#45;&gt;Node46</title>
<path fill="none" stroke="#191970" d="M504.4686,-86C516.8863,-86 534.4353,-86 551.2607,-86"/>
<polygon fill="#191970" stroke="#191970" points="551.591,-89.5001 561.591,-86 551.591,-82.5001 551.591,-89.5001"/>
</g>
<!-- Node47&#45;&gt;Node45 -->
<g id="edge7" class="edge">
<title>Node47&#45;&gt;Node45</title>
<path fill="none" stroke="#191970" d="M399.6502,-57.589C418.6064,-63.7195 442.97,-71.5988 461.2295,-77.504"/>
<polygon fill="#191970" stroke="#191970" points="460.338,-80.8941 470.9299,-80.6411 462.4921,-74.2338 460.338,-80.8941"/>
</g>
<!-- Node48&#45;&gt;Node44 -->
<g id="edge9" class="edge">
<title>Node48&#45;&gt;Node44</title>
<path fill="none" stroke="#191970" d="M275.4213,-95.589C291.4516,-100.4044 311.0738,-106.2988 328.2816,-111.468"/>
<polygon fill="#191970" stroke="#191970" points="327.5047,-114.8891 338.0889,-114.4141 329.5187,-108.185 327.5047,-114.8891"/>
</g>
<!-- Node48&#45;&gt;Node45 -->
<g id="edge11" class="edge">
<title>Node48&#45;&gt;Node45</title>
<path fill="none" stroke="#191970" d="M291.1249,-86C341.6871,-86 419.8104,-86 460.6082,-86"/>
<polygon fill="#191970" stroke="#191970" points="460.8384,-89.5001 470.8384,-86 460.8384,-82.5001 460.8384,-89.5001"/>
</g>
<!-- Node48&#45;&gt;Node47 -->
<g id="edge10" class="edge">
<title>Node48&#45;&gt;Node47</title>
<path fill="none" stroke="#191970" d="M275.4213,-76.411C291.4516,-71.5956 311.0738,-65.7012 328.2816,-60.532"/>
<polygon fill="#191970" stroke="#191970" points="329.5187,-63.815 338.0889,-57.5859 327.5047,-57.1109 329.5187,-63.815"/>
</g>
<!-- Node49&#45;&gt;Node44 -->
<g id="edge13" class="edge">
<title>Node49&#45;&gt;Node44</title>
<path fill="none" stroke="#191970" d="M160.0132,-124C200.7562,-124 272.7679,-124 320.9399,-124"/>
<polygon fill="#191970" stroke="#191970" points="321.137,-127.5001 331.137,-124 321.1369,-120.5001 321.137,-127.5001"/>
</g>
<!-- Node49&#45;&gt;Node48 -->
<g id="edge14" class="edge">
<title>Node49&#45;&gt;Node48</title>
<path fill="none" stroke="#191970" d="M157.8932,-114.411C172.1316,-109.6856 189.5008,-103.9211 204.8634,-98.8226"/>
<polygon fill="#191970" stroke="#191970" points="206.2276,-102.0577 214.6161,-95.5859 204.0226,-95.414 206.2276,-102.0577"/>
</g>
</g>
</svg>
        <g id="navigator" transform="translate(0 0)" fill="#404254">
                <rect fill="#f2f5e9" fill-opacity="0.5" stroke="#606060" stroke-width=".5" x="0" y="0" width="60" height="60"/>
                <use id="zoomplus" xlink:href="#zoomPlus" x="17" y="9" onmousedown="handleZoom(evt,'in')"/>
                <use id="zoomminus" xlink:href="#zoomMin" x="42" y="9" onmousedown="handleZoom(evt,'out')"/>
                <use id="reset" xlink:href="#resetDef" x="30" y="36" onmousedown="handleReset()"/>
                <g id="arrowUp" xlink:href="#dirArrow" transform="translate(30 24)" onmousedown="handlePan(0,-1)">
                  <use xlink:href="#rim" fill="#404040">
                        <set attributeName="fill" to="#808080" begin="arrowUp.mouseover" end="arrowUp.mouseout"/>
                  </use>
                  <path fill="none" stroke="white" stroke-width="1.5" d="M0,-3.0v7 M-2.5,-0.5L0,-3.0L2.5,-0.5"/>
                </g>
                <g id="arrowRight" xlink:href="#dirArrow" transform="rotate(90) translate(36 -43)" onmousedown="handlePan(1,0)">
                  <use xlink:href="#rim" fill="#404040">
                        <set attributeName="fill" to="#808080" begin="arrowRight.mouseover" end="arrowRight.mouseout"/>
                  </use>
                  <path fill="none" stroke="white" stroke-width="1.5" d="M0,-3.0v7 M-2.5,-0.5L0,-3.0L2.5,-0.5"/>
                </g>
                <g id="arrowDown" xlink:href="#dirArrow" transform="rotate(180) translate(-30 -48)" onmousedown="handlePan(0,1)">
                  <use xlink:href="#rim" fill="#404040">
                        <set attributeName="fill" to="#808080" begin="arrowDown.mouseover" end="arrowDown.mouseout"/>
                  </use>
                  <path fill="none" stroke="white" stroke-width="1.5" d="M0,-3.0v7 M-2.5,-0.5L0,-3.0L2.5,-0.5"/>
                </g>
                <g id="arrowLeft" xlink:href="#dirArrow" transform="rotate(270) translate(-36 17)" onmousedown="handlePan(-1,0)">
                  <use xlink:href="#rim" fill="#404040">
                        <set attributeName="fill" to="#808080" begin="arrowLeft.mouseover" end="arrowLeft.mouseout"/>
                  </use>
                  <path fill="none" stroke="white" stroke-width="1.5" d="M0,-3.0v7 M-2.5,-0.5L0,-3.0L2.5,-0.5"/>
                </g>
        </g>
        <svg viewBox="0 0 15 15" width="100%" height="30px" preserveAspectRatio="xMaxYMin meet">
         <g id="arrow_out" transform="scale(0.3 0.3)">
          <a xlink:href="classell_a76f0b8a8760f4c26c8ea32afaec71abf_cgraph_org.svg" target="_base">
           <rect id="button" ry="5" rx="5" y="6" x="6" height="38" width="38"
                fill="#f2f5e9" fill-opacity="0.5" stroke="#606060" stroke-width="1.0"/>
           <path id="arrow"
             d="M 11.500037,31.436501 C 11.940474,20.09759 22.043105,11.32322 32.158766,21.979434 L 37.068811,17.246167 C 37.068811,17.246167 37.088388,32 37.088388,32 L 22.160133,31.978069 C 22.160133,31.978069 26.997745,27.140456 26.997745,27.140456 C 18.528582,18.264221 13.291696,25.230495 11.500037,31.436501 z"
             style="fill:#404040;"/>
          </a>
         </g>
        </svg>
</svg>
