<?xml version="1.0" encoding="UTF-8" standalone="no"?>
<!DOCTYPE svg PUBLIC "-//W3C//DTD SVG 1.1//EN"
 "http://www.w3.org/Graphics/SVG/1.1/DTD/svg11.dtd">
<!-- Generated by graphviz version 2.40.1 (20161225.0304)
 -->
<!-- Title: qmi_oracle::operator() Pages: 1 -->
<svg width="372pt" height="180pt"
 viewBox="0.00 0.00 372.00 180.00" xmlns="http://www.w3.org/2000/svg" xmlns:xlink="http://www.w3.org/1999/xlink">
<g id="graph0" class="graph" transform="scale(1 1) rotate(0) translate(4 176)">
<title>qmi_oracle::operator()</title>
<polygon fill="#ffffff" stroke="transparent" points="-4,4 -4,-176 368,-176 368,4 -4,4"/>
<!-- Node3 -->
<g id="node1" class="node">
<title>Node3</title>
<polygon fill="#bfbfbf" stroke="#000000" points="0,-76.5 0,-95.5 111,-95.5 111,-76.5 0,-76.5"/>
<text text-anchor="middle" x="55.5" y="-83.5" font-family="Helvetica,sans-Serif" font-size="10.00" fill="#000000">qmi_oracle::operator()</text>
</g>
<!-- Node4 -->
<g id="node2" class="node">
<title>Node4</title>
<g id="a_node2"><a xlink:href="classchol__ext.html#a068e5dd5e74f3bc14fd8034eead3f872" target="_top" xlink:title="Perform Cholesky Factorization (Lazy evaluation) ">
<polygon fill="#ffffff" stroke="#000000" points="151.5,-152.5 151.5,-171.5 235.5,-171.5 235.5,-152.5 151.5,-152.5"/>
<text text-anchor="middle" x="193.5" y="-159.5" font-family="Helvetica,sans-Serif" font-size="10.00" fill="#000000">chol_ext::factor</text>
</a>
</g>
</g>
<!-- Node3&#45;&gt;Node4 -->
<g id="edge1" class="edge">
<title>Node3&#45;&gt;Node4</title>
<path fill="none" stroke="#191970" d="M71.9179,-95.5954C90.145,-106.1859 120.4941,-123.6356 147,-138 152.8706,-141.1815 159.2033,-144.5145 165.2488,-147.6497"/>
<polygon fill="#191970" stroke="#191970" points="163.9118,-150.8979 174.4048,-152.3635 167.116,-144.6743 163.9118,-150.8979"/>
</g>
<!-- Node5 -->
<g id="node3" class="node">
<title>Node5</title>
<g id="a_node3"><a xlink:href="classchol__ext.html#aa7bda881d6d0b1431c53b0c2d9bca6a7" target="_top" xlink:title="Is $A$ symmetric positive definite (spd) ">
<polygon fill="#ffffff" stroke="#000000" points="276,-95.5 276,-114.5 364,-114.5 364,-95.5 276,-95.5"/>
<text text-anchor="middle" x="320" y="-102.5" font-family="Helvetica,sans-Serif" font-size="10.00" fill="#000000">chol_ext::is_spd</text>
</a>
</g>
</g>
<!-- Node3&#45;&gt;Node5 -->
<g id="edge2" class="edge">
<title>Node3&#45;&gt;Node5</title>
<path fill="none" stroke="#191970" d="M92.6253,-95.5093C109.1508,-99.2742 128.9239,-103.1431 147,-105 186.5316,-109.0611 231.4132,-108.9242 265.5544,-107.844"/>
<polygon fill="#191970" stroke="#191970" points="265.9173,-111.3335 275.7873,-107.4821 265.6698,-104.3378 265.9173,-111.3335"/>
</g>
<!-- Node6 -->
<g id="node4" class="node">
<title>Node6</title>
<g id="a_node4"><a xlink:href="namespacepy.html#a6c0a41716a24bed07cbf8b2d84132f96" target="_top" xlink:title="py::range">
<polygon fill="#ffffff" stroke="#000000" points="165,-38.5 165,-57.5 222,-57.5 222,-38.5 165,-38.5"/>
<text text-anchor="middle" x="193.5" y="-45.5" font-family="Helvetica,sans-Serif" font-size="10.00" fill="#000000">py::range</text>
</a>
</g>
</g>
<!-- Node3&#45;&gt;Node6 -->
<g id="edge3" class="edge">
<title>Node3&#45;&gt;Node6</title>
<path fill="none" stroke="#191970" d="M90.3232,-76.411C109.9954,-70.994 134.6261,-64.2117 154.888,-58.6323"/>
<polygon fill="#191970" stroke="#191970" points="156.0267,-61.9491 164.7387,-55.9198 154.1683,-55.2003 156.0267,-61.9491"/>
</g>
<!-- Node8 -->
<g id="node6" class="node">
<title>Node8</title>
<g id="a_node6"><a xlink:href="classchol__ext.html#ab6da61667cbd9f6a7b9678361ab92111" target="_top" xlink:title="witness that certifies $A$ is not symmetric positive definite (spd) ">
<polygon fill="#ffffff" stroke="#000000" points="147,-76.5 147,-95.5 240,-95.5 240,-76.5 147,-76.5"/>
<text text-anchor="middle" x="193.5" y="-83.5" font-family="Helvetica,sans-Serif" font-size="10.00" fill="#000000">chol_ext::witness</text>
</a>
</g>
</g>
<!-- Node3&#45;&gt;Node8 -->
<g id="edge5" class="edge">
<title>Node3&#45;&gt;Node8</title>
<path fill="none" stroke="#191970" d="M111.2321,-86C119.6348,-86 128.3103,-86 136.7344,-86"/>
<polygon fill="#191970" stroke="#191970" points="136.8502,-89.5001 146.8502,-86 136.8501,-82.5001 136.8502,-89.5001"/>
</g>
<!-- Node9 -->
<g id="node7" class="node">
<title>Node9</title>
<g id="a_node7"><a xlink:href="utility_8hpp.html#ae3041aeb9cef3e9f4416c91d3d43f86a" target="_top" xlink:title="zeros">
<polygon fill="#ffffff" stroke="#000000" points="173,-.5 173,-19.5 214,-19.5 214,-.5 173,-.5"/>
<text text-anchor="middle" x="193.5" y="-7.5" font-family="Helvetica,sans-Serif" font-size="10.00" fill="#000000">zeros</text>
</a>
</g>
</g>
<!-- Node3&#45;&gt;Node9 -->
<g id="edge7" class="edge">
<title>Node3&#45;&gt;Node9</title>
<path fill="none" stroke="#191970" d="M69.331,-76.3487C86.8849,-64.3453 118.3364,-43.6508 147,-29 152.1445,-26.3705 157.7405,-23.8295 163.2098,-21.5073"/>
<polygon fill="#191970" stroke="#191970" points="164.8595,-24.6142 172.7927,-17.5918 162.2118,-18.1342 164.8595,-24.6142"/>
</g>
<!-- Node7 -->
<g id="node5" class="node">
<title>Node7</title>
<g id="a_node5"><a xlink:href="monomial_8hpp.html#a86b429850511a31052ffe3e51044c6ec" target="_top" xlink:title="Multiplication. ">
<polygon fill="#ffffff" stroke="#000000" points="292,-38.5 292,-57.5 348,-57.5 348,-38.5 292,-38.5"/>
<text text-anchor="middle" x="320" y="-45.5" font-family="Helvetica,sans-Serif" font-size="10.00" fill="#000000">operator*</text>
</a>
</g>
</g>
<!-- Node6&#45;&gt;Node7 -->
<g id="edge4" class="edge">
<title>Node6&#45;&gt;Node7</title>
<path fill="none" stroke="#191970" d="M222.2048,-48C239.7955,-48 262.5287,-48 281.6492,-48"/>
<polygon fill="#191970" stroke="#191970" points="281.8446,-51.5001 291.8445,-48 281.8445,-44.5001 281.8446,-51.5001"/>
</g>
<!-- Node8&#45;&gt;Node5 -->
<g id="edge6" class="edge">
<title>Node8&#45;&gt;Node5</title>
<path fill="none" stroke="#191970" d="M240.2445,-93.0209C248.6419,-94.2822 257.4566,-95.6061 266.0381,-96.895"/>
<polygon fill="#191970" stroke="#191970" points="265.5569,-100.362 275.9659,-98.3862 266.5967,-93.4396 265.5569,-100.362"/>
</g>
</g>
</svg>
