<?xml version="1.0" encoding="UTF-8" standalone="no"?>
<!DOCTYPE svg PUBLIC "-//W3C//DTD SVG 1.1//EN"
 "http://www.w3.org/Graphics/SVG/1.1/DTD/svg11.dtd">
<!-- Generated by graphviz version 2.40.1 (20161225.0304)
 -->
<!-- Title: xn::DiGraphS::edges Pages: 1 -->
<svg width="494pt" height="39pt"
 viewBox="0.00 0.00 494.00 39.00" xmlns="http://www.w3.org/2000/svg" xmlns:xlink="http://www.w3.org/1999/xlink">
<g id="graph0" class="graph" transform="scale(1 1) rotate(0) translate(4 35)">
<title>xn::DiGraphS::edges</title>
<polygon fill="#ffffff" stroke="transparent" points="-4,4 -4,-35 490,-35 490,4 -4,4"/>
<!-- Node26 -->
<g id="node1" class="node">
<title>Node26</title>
<polygon fill="#bfbfbf" stroke="#000000" points="0,-6 0,-25 108,-25 108,-6 0,-6"/>
<text text-anchor="middle" x="54" y="-13" font-family="Helvetica,sans-Serif" font-size="10.00" fill="#000000">xn::DiGraphS::edges</text>
</g>
<!-- Node27 -->
<g id="node2" class="node">
<title>Node27</title>
<g id="a_node2"><a xlink:href="classxn_1_1Graph.html#ac61f2ed63257c380e07e073a99c05659" target="_top" xlink:title="xn::Graph\&lt; nodeview\l_t, adjlist_t \&gt;::_nodes_nbrs">
<polygon fill="#ffffff" stroke="#000000" points="144,-.5 144,-30.5 279,-30.5 279,-.5 144,-.5"/>
<text text-anchor="start" x="152" y="-18.5" font-family="Helvetica,sans-Serif" font-size="10.00" fill="#000000">xn::Graph&lt; nodeview</text>
<text text-anchor="middle" x="211.5" y="-7.5" font-family="Helvetica,sans-Serif" font-size="10.00" fill="#000000">_t, adjlist_t &gt;::_nodes_nbrs</text>
</a>
</g>
</g>
<!-- Node26&#45;&gt;Node27 -->
<g id="edge1" class="edge">
<title>Node26&#45;&gt;Node27</title>
<path fill="none" stroke="#191970" d="M108.2026,-15.5C116.4529,-15.5 125.1027,-15.5 133.7366,-15.5"/>
<polygon fill="#191970" stroke="#191970" points="133.84,-19.0001 143.84,-15.5 133.84,-12.0001 133.84,-19.0001"/>
</g>
<!-- Node28 -->
<g id="node3" class="node">
<title>Node28</title>
<g id="a_node3"><a xlink:href="namespacepy.html#a13b079f9cc2ef2797f2908169c6e24c4" target="_top" xlink:title="py::enumerate">
<polygon fill="#ffffff" stroke="#000000" points="315,-6 315,-25 394,-25 394,-6 315,-6"/>
<text text-anchor="middle" x="354.5" y="-13" font-family="Helvetica,sans-Serif" font-size="10.00" fill="#000000">py::enumerate</text>
</a>
</g>
</g>
<!-- Node27&#45;&gt;Node28 -->
<g id="edge2" class="edge">
<title>Node27&#45;&gt;Node28</title>
<path fill="none" stroke="#191970" d="M279.231,-15.5C287.7584,-15.5 296.3575,-15.5 304.5413,-15.5"/>
<polygon fill="#191970" stroke="#191970" points="304.6487,-19.0001 314.6487,-15.5 304.6487,-12.0001 304.6487,-19.0001"/>
</g>
<!-- Node29 -->
<g id="node4" class="node">
<title>Node29</title>
<g id="a_node4"><a xlink:href="monomial_8hpp.html#a86b429850511a31052ffe3e51044c6ec" target="_top" xlink:title="Multiplication. ">
<polygon fill="#ffffff" stroke="#000000" points="430,-6 430,-25 486,-25 486,-6 430,-6"/>
<text text-anchor="middle" x="458" y="-13" font-family="Helvetica,sans-Serif" font-size="10.00" fill="#000000">operator*</text>
</a>
</g>
</g>
<!-- Node28&#45;&gt;Node29 -->
<g id="edge3" class="edge">
<title>Node28&#45;&gt;Node29</title>
<path fill="none" stroke="#191970" d="M394.2198,-15.5C402.5571,-15.5 411.3353,-15.5 419.6224,-15.5"/>
<polygon fill="#191970" stroke="#191970" points="419.7866,-19.0001 429.7865,-15.5 419.7865,-12.0001 419.7866,-19.0001"/>
</g>
</g>
</svg>
