<?xml version="1.0" encoding="UTF-8" standalone="no"?>
<!DOCTYPE svg PUBLIC "-//W3C//DTD SVG 1.1//EN"
 "http://www.w3.org/Graphics/SVG/1.1/DTD/svg11.dtd">
<!-- Generated by graphviz version 2.40.1 (20161225.0304)
 -->
<!-- Title: lmi_old_oracle::operator() Pages: 1 -->
<svg width="398pt" height="180pt"
 viewBox="0.00 0.00 398.00 180.00" xmlns="http://www.w3.org/2000/svg" xmlns:xlink="http://www.w3.org/1999/xlink">
<g id="graph0" class="graph" transform="scale(1 1) rotate(0) translate(4 176)">
<title>lmi_old_oracle::operator()</title>
<polygon fill="#ffffff" stroke="transparent" points="-4,4 -4,-176 394,-176 394,4 -4,4"/>
<!-- Node11 -->
<g id="node1" class="node">
<title>Node11</title>
<polygon fill="#bfbfbf" stroke="#000000" points="0,-76.5 0,-95.5 126,-95.5 126,-76.5 0,-76.5"/>
<text text-anchor="middle" x="63" y="-83.5" font-family="Helvetica,sans-Serif" font-size="10.00" fill="#000000">lmi_old_oracle::operator()</text>
</g>
<!-- Node12 -->
<g id="node2" class="node">
<title>Node12</title>
<g id="a_node2"><a xlink:href="classchol__ext.html#a5d927b9f300d005df3dac8b7b2ed9959" target="_top" xlink:title="Perform Cholesky Factorization. ">
<polygon fill="#ffffff" stroke="#000000" points="165.5,-152.5 165.5,-171.5 262.5,-171.5 262.5,-152.5 165.5,-152.5"/>
<text text-anchor="middle" x="214" y="-159.5" font-family="Helvetica,sans-Serif" font-size="10.00" fill="#000000">chol_ext::factorize</text>
</a>
</g>
</g>
<!-- Node11&#45;&gt;Node12 -->
<g id="edge1" class="edge">
<title>Node11&#45;&gt;Node12</title>
<path fill="none" stroke="#191970" d="M80.7435,-95.6712C100.447,-106.3281 133.2684,-123.8355 162,-138 168.8669,-141.3853 176.3074,-144.9055 183.3551,-148.173"/>
<polygon fill="#191970" stroke="#191970" points="182.0834,-151.4405 192.6314,-152.4358 185.0064,-145.0799 182.0834,-151.4405"/>
</g>
<!-- Node14 -->
<g id="node4" class="node">
<title>Node14</title>
<g id="a_node4"><a xlink:href="classchol__ext.html#aa7bda881d6d0b1431c53b0c2d9bca6a7" target="_top" xlink:title="Is $A$ symmetric positive definite (spd) ">
<polygon fill="#ffffff" stroke="#000000" points="302,-76.5 302,-95.5 390,-95.5 390,-76.5 302,-76.5"/>
<text text-anchor="middle" x="346" y="-83.5" font-family="Helvetica,sans-Serif" font-size="10.00" fill="#000000">chol_ext::is_spd</text>
</a>
</g>
</g>
<!-- Node11&#45;&gt;Node14 -->
<g id="edge3" class="edge">
<title>Node11&#45;&gt;Node14</title>
<path fill="none" stroke="#191970" d="M103.2105,-95.5106C121.0983,-99.2758 142.4867,-103.1444 162,-105 208.0146,-109.3756 220.0916,-110.3768 266,-105 278.406,-103.547 291.6774,-100.8676 303.7732,-97.9699"/>
<polygon fill="#191970" stroke="#191970" points="304.7618,-101.3305 313.6124,-95.5066 303.0617,-94.54 304.7618,-101.3305"/>
</g>
<!-- Node15 -->
<g id="node5" class="node">
<title>Node15</title>
<g id="a_node5"><a xlink:href="classchol__ext.html#a90e28583df646642f6ee74939612d65b" target="_top" xlink:title="Calculate v&#39;*{A}(p,p)*v. ">
<polygon fill="#ffffff" stroke="#000000" points="162,-76.5 162,-95.5 266,-95.5 266,-76.5 162,-76.5"/>
<text text-anchor="middle" x="214" y="-83.5" font-family="Helvetica,sans-Serif" font-size="10.00" fill="#000000">chol_ext::sym_quad</text>
</a>
</g>
</g>
<!-- Node11&#45;&gt;Node15 -->
<g id="edge4" class="edge">
<title>Node11&#45;&gt;Node15</title>
<path fill="none" stroke="#191970" d="M126.1627,-86C134.5511,-86 143.1485,-86 151.5252,-86"/>
<polygon fill="#191970" stroke="#191970" points="151.6047,-89.5001 161.6047,-86 151.6047,-82.5001 151.6047,-89.5001"/>
</g>
<!-- Node16 -->
<g id="node6" class="node">
<title>Node16</title>
<g id="a_node6"><a xlink:href="classchol__ext.html#ab6da61667cbd9f6a7b9678361ab92111" target="_top" xlink:title="witness that certifies $A$ is not symmetric positive definite (spd) ">
<polygon fill="#ffffff" stroke="#000000" points="167.5,-38.5 167.5,-57.5 260.5,-57.5 260.5,-38.5 167.5,-38.5"/>
<text text-anchor="middle" x="214" y="-45.5" font-family="Helvetica,sans-Serif" font-size="10.00" fill="#000000">chol_ext::witness</text>
</a>
</g>
</g>
<!-- Node11&#45;&gt;Node16 -->
<g id="edge5" class="edge">
<title>Node11&#45;&gt;Node16</title>
<path fill="none" stroke="#191970" d="M101.1037,-76.411C120.94,-71.4191 145.3839,-65.2676 166.4483,-59.9666"/>
<polygon fill="#191970" stroke="#191970" points="167.3269,-63.3548 176.1703,-57.5201 165.6185,-56.5664 167.3269,-63.3548"/>
</g>
<!-- Node17 -->
<g id="node7" class="node">
<title>Node17</title>
<g id="a_node7"><a xlink:href="utility_8hpp.html#ae3041aeb9cef3e9f4416c91d3d43f86a" target="_top" xlink:title="zeros">
<polygon fill="#ffffff" stroke="#000000" points="193.5,-.5 193.5,-19.5 234.5,-19.5 234.5,-.5 193.5,-.5"/>
<text text-anchor="middle" x="214" y="-7.5" font-family="Helvetica,sans-Serif" font-size="10.00" fill="#000000">zeros</text>
</a>
</g>
</g>
<!-- Node11&#45;&gt;Node17 -->
<g id="edge7" class="edge">
<title>Node11&#45;&gt;Node17</title>
<path fill="none" stroke="#191970" d="M77.6658,-76.4831C96.6251,-64.4339 130.9044,-43.5011 162,-29 168.9469,-25.7604 176.6121,-22.6953 183.8737,-20.0104"/>
<polygon fill="#191970" stroke="#191970" points="185.1782,-23.2611 193.4205,-16.6042 182.8259,-16.6682 185.1782,-23.2611"/>
</g>
<!-- Node13 -->
<g id="node3" class="node">
<title>Node13</title>
<g id="a_node3"><a xlink:href="classchol__ext.html#a068e5dd5e74f3bc14fd8034eead3f872" target="_top" xlink:title="Perform Cholesky Factorization (Lazy evaluation) ">
<polygon fill="#ffffff" stroke="#000000" points="304,-152.5 304,-171.5 388,-171.5 388,-152.5 304,-152.5"/>
<text text-anchor="middle" x="346" y="-159.5" font-family="Helvetica,sans-Serif" font-size="10.00" fill="#000000">chol_ext::factor</text>
</a>
</g>
</g>
<!-- Node12&#45;&gt;Node13 -->
<g id="edge2" class="edge">
<title>Node12&#45;&gt;Node13</title>
<path fill="none" stroke="#191970" d="M262.7769,-162C272.9118,-162 283.6292,-162 293.879,-162"/>
<polygon fill="#191970" stroke="#191970" points="293.9339,-165.5001 303.9339,-162 293.9338,-158.5001 293.9339,-165.5001"/>
</g>
<!-- Node16&#45;&gt;Node14 -->
<g id="edge6" class="edge">
<title>Node16&#45;&gt;Node14</title>
<path fill="none" stroke="#191970" d="M247.3092,-57.589C264.1928,-62.4494 284.8948,-68.4091 302.9705,-73.6127"/>
<polygon fill="#191970" stroke="#191970" points="302.1235,-77.011 312.7015,-76.4141 304.06,-70.2842 302.1235,-77.011"/>
</g>
</g>
</svg>
