<?xml version="1.0" encoding="UTF-8" standalone="no"?>
<!DOCTYPE svg PUBLIC "-//W3C//DTD SVG 1.1//EN"
 "http://www.w3.org/Graphics/SVG/1.1/DTD/svg11.dtd">
<!-- Generated by graphviz version 2.40.1 (20161225.0304)
 -->
<!-- Title: chol_ext::witness Pages: 1 -->
<svg width="565pt" height="154pt"
 viewBox="0.00 0.00 565.00 154.00" xmlns="http://www.w3.org/2000/svg" xmlns:xlink="http://www.w3.org/1999/xlink">
<g id="graph0" class="graph" transform="scale(1 1) rotate(0) translate(4 150)">
<title>chol_ext::witness</title>
<polygon fill="#ffffff" stroke="transparent" points="-4,4 -4,-150 561,-150 561,4 -4,4"/>
<!-- Node61 -->
<g id="node1" class="node">
<title>Node61</title>
<polygon fill="#bfbfbf" stroke="#000000" points="0,-64.5 0,-83.5 93,-83.5 93,-64.5 0,-64.5"/>
<text text-anchor="middle" x="46.5" y="-71.5" font-family="Helvetica,sans-Serif" font-size="10.00" fill="#000000">chol_ext::witness</text>
</g>
<!-- Node62 -->
<g id="node2" class="node">
<title>Node62</title>
<g id="a_node2"><a xlink:href="classlmi0__oracle.html#a2dfa17d2244203f610ca993e1aea70da" target="_top" xlink:title="lmi0_oracle::operator()">
<polygon fill="#ffffff" stroke="#000000" points="135.5,-125.5 135.5,-144.5 248.5,-144.5 248.5,-125.5 135.5,-125.5"/>
<text text-anchor="middle" x="192" y="-132.5" font-family="Helvetica,sans-Serif" font-size="10.00" fill="#000000">lmi0_oracle::operator()</text>
</a>
</g>
</g>
<!-- Node61&#45;&gt;Node62 -->
<g id="edge1" class="edge">
<title>Node61&#45;&gt;Node62</title>
<path fill="none" stroke="#191970" d="M73.0749,-88.512C89.013,-96.8841 109.8447,-107.2533 129,-115 138.4682,-118.8291 148.9675,-122.4131 158.6366,-125.4595"/>
<polygon fill="#191970" stroke="#191970" points="74.3143,-85.2069 63.8423,-83.5986 71.0257,-91.3863 74.3143,-85.2069"/>
</g>
<!-- Node64 -->
<g id="node4" class="node">
<title>Node64</title>
<g id="a_node4"><a xlink:href="classlmi__oracle.html#a8b68a17f756b8146888b5a3103b946df" target="_top" xlink:title="lmi_oracle::operator()">
<polygon fill="#ffffff" stroke="#000000" points="138,-86.5 138,-105.5 246,-105.5 246,-86.5 138,-86.5"/>
<text text-anchor="middle" x="192" y="-93.5" font-family="Helvetica,sans-Serif" font-size="10.00" fill="#000000">lmi_oracle::operator()</text>
</a>
</g>
</g>
<!-- Node61&#45;&gt;Node64 -->
<g id="edge3" class="edge">
<title>Node61&#45;&gt;Node64</title>
<path fill="none" stroke="#191970" d="M103.5429,-82.625C114.8541,-84.3353 126.6973,-86.1261 137.9068,-87.821"/>
<polygon fill="#191970" stroke="#191970" points="103.7489,-79.1165 93.338,-81.082 102.7023,-86.0378 103.7489,-79.1165"/>
</g>
<!-- Node66 -->
<g id="node6" class="node">
<title>Node66</title>
<g id="a_node6"><a xlink:href="classlmi__old__oracle.html#a505d905c270e88faf78ee85158aebb93" target="_top" xlink:title="lmi_old_oracle::operator()">
<polygon fill="#ffffff" stroke="#000000" points="129,-45.5 129,-64.5 255,-64.5 255,-45.5 129,-45.5"/>
<text text-anchor="middle" x="192" y="-52.5" font-family="Helvetica,sans-Serif" font-size="10.00" fill="#000000">lmi_old_oracle::operator()</text>
</a>
</g>
</g>
<!-- Node61&#45;&gt;Node66 -->
<g id="edge5" class="edge">
<title>Node61&#45;&gt;Node66</title>
<path fill="none" stroke="#191970" d="M103.3445,-66.577C111.6934,-65.4868 120.3361,-64.3582 128.8032,-63.2525"/>
<polygon fill="#191970" stroke="#191970" points="102.8006,-63.1182 93.338,-67.8837 103.7071,-70.0593 102.8006,-63.1182"/>
</g>
<!-- Node68 -->
<g id="node8" class="node">
<title>Node68</title>
<g id="a_node8"><a xlink:href="classqmi__oracle.html#a17a23146225c498782e66dea9f1d64ec" target="_top" xlink:title="qmi_oracle::operator()">
<polygon fill="#ffffff" stroke="#000000" points="136.5,-4.5 136.5,-23.5 247.5,-23.5 247.5,-4.5 136.5,-4.5"/>
<text text-anchor="middle" x="192" y="-11.5" font-family="Helvetica,sans-Serif" font-size="10.00" fill="#000000">qmi_oracle::operator()</text>
</a>
</g>
</g>
<!-- Node61&#45;&gt;Node68 -->
<g id="edge7" class="edge">
<title>Node61&#45;&gt;Node68</title>
<path fill="none" stroke="#191970" d="M75.1381,-59.9893C90.8757,-52.4985 110.8367,-43.3349 129,-36 139.9572,-31.5752 152.1843,-27.1838 162.9298,-23.5017"/>
<polygon fill="#191970" stroke="#191970" points="73.4389,-56.9225 65.9389,-64.4058 76.4686,-63.233 73.4389,-56.9225"/>
</g>
<!-- Node63 -->
<g id="node3" class="node">
<title>Node63</title>
<g id="a_node3"><a xlink:href="classlmi0__oracle.html#aa9cd37f70024e10008974ad81032a48f" target="_top" xlink:title="Construct a new lmi0 oracle object. ">
<polygon fill="#ffffff" stroke="#000000" points="291,-126.5 291,-145.5 413,-145.5 413,-126.5 291,-126.5"/>
<text text-anchor="middle" x="352" y="-133.5" font-family="Helvetica,sans-Serif" font-size="10.00" fill="#000000">lmi0_oracle::lmi0_oracle</text>
</a>
</g>
</g>
<!-- Node62&#45;&gt;Node63 -->
<g id="edge2" class="edge">
<title>Node62&#45;&gt;Node63</title>
<path fill="none" stroke="#191970" d="M258.9279,-135.4183C269.5559,-135.4847 280.5002,-135.5531 290.9831,-135.6186"/>
<polygon fill="#191970" stroke="#191970" points="258.8822,-131.918 248.8605,-135.3554 258.8384,-138.9179 258.8822,-131.918"/>
</g>
<!-- Node65 -->
<g id="node5" class="node">
<title>Node65</title>
<g id="a_node5"><a xlink:href="classlmi__oracle.html#a2537bac6b75002430dc61150218490b3" target="_top" xlink:title="Construct a new lmi oracle object. ">
<polygon fill="#ffffff" stroke="#000000" points="296.5,-88.5 296.5,-107.5 407.5,-107.5 407.5,-88.5 296.5,-88.5"/>
<text text-anchor="middle" x="352" y="-95.5" font-family="Helvetica,sans-Serif" font-size="10.00" fill="#000000">lmi_oracle::lmi_oracle</text>
</a>
</g>
</g>
<!-- Node64&#45;&gt;Node65 -->
<g id="edge4" class="edge">
<title>Node64&#45;&gt;Node65</title>
<path fill="none" stroke="#191970" d="M256.1713,-96.8021C269.4391,-96.968 283.312,-97.1414 296.2503,-97.3031"/>
<polygon fill="#191970" stroke="#191970" points="256.2117,-93.3025 246.1687,-96.6771 256.1241,-100.3019 256.2117,-93.3025"/>
</g>
<!-- Node67 -->
<g id="node7" class="node">
<title>Node67</title>
<g id="a_node7"><a xlink:href="classlmi__old__oracle.html#a12e514ccdcab9066788323fd74b82bcd" target="_top" xlink:title="Construct a new lmi oracle object. ">
<polygon fill="#ffffff" stroke="#000000" points="303,-39 303,-69 401,-69 401,-39 303,-39"/>
<text text-anchor="start" x="311" y="-57" font-family="Helvetica,sans-Serif" font-size="10.00" fill="#000000">lmi_old_oracle::lmi</text>
<text text-anchor="middle" x="352" y="-46" font-family="Helvetica,sans-Serif" font-size="10.00" fill="#000000">_old_oracle</text>
</a>
</g>
</g>
<!-- Node66&#45;&gt;Node67 -->
<g id="edge6" class="edge">
<title>Node66&#45;&gt;Node67</title>
<path fill="none" stroke="#191970" d="M265.2824,-54.542C277.8992,-54.4631 290.7405,-54.3829 302.539,-54.3091"/>
<polygon fill="#191970" stroke="#191970" points="265.2141,-51.0422 255.2362,-54.6048 265.258,-58.0421 265.2141,-51.0422"/>
</g>
<!-- Node69 -->
<g id="node9" class="node">
<title>Node69</title>
<g id="a_node9"><a xlink:href="classqmi__oracle.html#aec6bfef186ed45b37f922f1d7ab4fb52" target="_top" xlink:title="Update t. ">
<polygon fill="#ffffff" stroke="#000000" points="302.5,-.5 302.5,-19.5 401.5,-19.5 401.5,-.5 302.5,-.5"/>
<text text-anchor="middle" x="352" y="-7.5" font-family="Helvetica,sans-Serif" font-size="10.00" fill="#000000">qmi_oracle::update</text>
</a>
</g>
</g>
<!-- Node68&#45;&gt;Node69 -->
<g id="edge8" class="edge">
<title>Node68&#45;&gt;Node69</title>
<path fill="none" stroke="#191970" d="M257.7271,-12.3568C272.6808,-11.983 288.3222,-11.5919 302.469,-11.2383"/>
<polygon fill="#191970" stroke="#191970" points="257.4206,-8.8633 247.5112,-12.6122 257.5956,-15.8611 257.4206,-8.8633"/>
</g>
<!-- Node70 -->
<g id="node10" class="node">
<title>Node70</title>
<g id="a_node10"><a xlink:href="classlsq__oracle.html#a867c30a1ae0351df3213417e37ff18ec" target="_top" xlink:title="lsq_oracle::operator()">
<polygon fill="#ffffff" stroke="#000000" points="449,-.5 449,-19.5 557,-19.5 557,-.5 449,-.5"/>
<text text-anchor="middle" x="503" y="-7.5" font-family="Helvetica,sans-Serif" font-size="10.00" fill="#000000">lsq_oracle::operator()</text>
</a>
</g>
</g>
<!-- Node69&#45;&gt;Node70 -->
<g id="edge9" class="edge">
<title>Node69&#45;&gt;Node70</title>
<path fill="none" stroke="#191970" d="M411.9186,-10C424.0843,-10 436.8144,-10 448.7697,-10"/>
<polygon fill="#191970" stroke="#191970" points="411.8616,-6.5001 401.8615,-10 411.8615,-13.5001 411.8616,-6.5001"/>
</g>
</g>
</svg>
