<?xml version="1.0" encoding="UTF-8" standalone="no"?>
<!DOCTYPE svg PUBLIC "-//W3C//DTD SVG 1.1//EN"
 "http://www.w3.org/Graphics/SVG/1.1/DTD/svg11.dtd">
<!-- Generated by graphviz version 2.40.1 (20161225.0304)
 -->
<!-- Title: chol_ext::is_spd Pages: 1 -->
<svg width="372pt" height="66pt"
 viewBox="0.00 0.00 372.00 66.00" xmlns="http://www.w3.org/2000/svg" xmlns:xlink="http://www.w3.org/1999/xlink">
<g id="graph0" class="graph" transform="scale(1 1) rotate(0) translate(4 62)">
<title>chol_ext::is_spd</title>
<polygon fill="#ffffff" stroke="transparent" points="-4,4 -4,-62 368,-62 368,4 -4,4"/>
<!-- Node13 -->
<g id="node1" class="node">
<title>Node13</title>
<polygon fill="#bfbfbf" stroke="#000000" points="0,-19.5 0,-38.5 88,-38.5 88,-19.5 0,-19.5"/>
<text text-anchor="middle" x="44" y="-26.5" font-family="Helvetica,sans-Serif" font-size="10.00" fill="#000000">chol_ext::is_spd</text>
</g>
<!-- Node14 -->
<g id="node2" class="node">
<title>Node14</title>
<g id="a_node2"><a xlink:href="classchol__ext.html#a71a128edb506ca260c44445b265a8649" target="_top" xlink:title="chol_ext::sqrt">
<polygon fill="#ffffff" stroke="#000000" points="132.5,-38.5 132.5,-57.5 208.5,-57.5 208.5,-38.5 132.5,-38.5"/>
<text text-anchor="middle" x="170.5" y="-45.5" font-family="Helvetica,sans-Serif" font-size="10.00" fill="#000000">chol_ext::sqrt</text>
</a>
</g>
</g>
<!-- Node13&#45;&gt;Node14 -->
<g id="edge1" class="edge">
<title>Node13&#45;&gt;Node14</title>
<path fill="none" stroke="#191970" d="M98.2092,-37.1421C109.7136,-38.87 121.6253,-40.6591 132.3796,-42.2744"/>
<polygon fill="#191970" stroke="#191970" points="98.6525,-33.6695 88.2436,-35.6453 97.6127,-40.5919 98.6525,-33.6695"/>
</g>
<!-- Node16 -->
<g id="node4" class="node">
<title>Node16</title>
<g id="a_node4"><a xlink:href="classchol__ext.html#ab6da61667cbd9f6a7b9678361ab92111" target="_top" xlink:title="witness that certifies $A$ is not symmetric positive definite (spd) ">
<polygon fill="#ffffff" stroke="#000000" points="124,-.5 124,-19.5 217,-19.5 217,-.5 124,-.5"/>
<text text-anchor="middle" x="170.5" y="-7.5" font-family="Helvetica,sans-Serif" font-size="10.00" fill="#000000">chol_ext::witness</text>
</a>
</g>
</g>
<!-- Node13&#45;&gt;Node16 -->
<g id="edge3" class="edge">
<title>Node13&#45;&gt;Node16</title>
<path fill="none" stroke="#191970" d="M98.1644,-20.8646C106.7375,-19.577 115.538,-18.2552 123.9182,-16.9965"/>
<polygon fill="#191970" stroke="#191970" points="97.6127,-17.4081 88.2436,-22.3547 98.6525,-24.3305 97.6127,-17.4081"/>
</g>
<!-- Node15 -->
<g id="node3" class="node">
<title>Node15</title>
<g id="a_node3"><a xlink:href="classmle__oracle.html#a1b475f08ad3506d1c160218d9c2b3c06" target="_top" xlink:title="mle_oracle::operator()">
<polygon fill="#ffffff" stroke="#000000" points="253,-38.5 253,-57.5 364,-57.5 364,-38.5 253,-38.5"/>
<text text-anchor="middle" x="308.5" y="-45.5" font-family="Helvetica,sans-Serif" font-size="10.00" fill="#000000">mle_oracle::operator()</text>
</a>
</g>
</g>
<!-- Node14&#45;&gt;Node15 -->
<g id="edge2" class="edge">
<title>Node14&#45;&gt;Node15</title>
<path fill="none" stroke="#191970" d="M218.8648,-48C229.8885,-48 241.6861,-48 252.9822,-48"/>
<polygon fill="#191970" stroke="#191970" points="218.5744,-44.5001 208.5744,-48 218.5744,-51.5001 218.5744,-44.5001"/>
</g>
</g>
</svg>
