<?xml version="1.0" encoding="UTF-8" standalone="no"?>
<!DOCTYPE svg PUBLIC "-//W3C//DTD SVG 1.1//EN"
 "http://www.w3.org/Graphics/SVG/1.1/DTD/svg11.dtd">
<!-- Generated by graphviz version 2.40.1 (20161225.0304)
 -->
<!-- Title: lsq_oracle Pages: 1 -->
<svg width="186pt" height="485pt"
 viewBox="0.00 0.00 186.00 485.00" xmlns="http://www.w3.org/2000/svg" xmlns:xlink="http://www.w3.org/1999/xlink">
<g id="graph0" class="graph" transform="scale(1 1) rotate(0) translate(4 481)">
<title>lsq_oracle</title>
<polygon fill="#ffffff" stroke="transparent" points="-4,4 -4,-481 182,-481 182,4 -4,4"/>
<!-- Node1 -->
<g id="node1" class="node">
<title>Node1</title>
<polygon fill="#bfbfbf" stroke="#000000" points="50.5,-.5 50.5,-68.5 126.5,-68.5 126.5,-.5 50.5,-.5"/>
<text text-anchor="middle" x="88.5" y="-56.5" font-family="Helvetica,sans-Serif" font-size="10.00" fill="#000000">lsq_oracle</text>
<polyline fill="none" stroke="#000000" points="50.5,-49.5 126.5,-49.5 "/>
<text text-anchor="middle" x="88.5" y="-37.5" font-family="Helvetica,sans-Serif" font-size="10.00" fill="#000000"> </text>
<polyline fill="none" stroke="#000000" points="50.5,-30.5 126.5,-30.5 "/>
<text text-anchor="start" x="58.5" y="-18.5" font-family="Helvetica,sans-Serif" font-size="10.00" fill="#000000">+ lsq_oracle()</text>
<text text-anchor="start" x="58.5" y="-7.5" font-family="Helvetica,sans-Serif" font-size="10.00" fill="#000000">+ operator()()</text>
</g>
<!-- Node2 -->
<g id="node2" class="node">
<title>Node2</title>
<g id="a_node2"><a xlink:href="classlmi0__oracle.html" target="_top" xlink:title="Oracle for Linear Matrix Inequality. ">
<polygon fill="#ffffff" stroke="#000000" points="0,-155 0,-234 81,-234 81,-155 0,-155"/>
<text text-anchor="middle" x="40.5" y="-222" font-family="Helvetica,sans-Serif" font-size="10.00" fill="#000000">lmi0_oracle</text>
<polyline fill="none" stroke="#000000" points="0,-215 81,-215 "/>
<text text-anchor="start" x="8" y="-203" font-family="Helvetica,sans-Serif" font-size="10.00" fill="#000000">&#45; _F</text>
<text text-anchor="start" x="8" y="-192" font-family="Helvetica,sans-Serif" font-size="10.00" fill="#000000">&#45; _n</text>
<polyline fill="none" stroke="#000000" points="0,-185 81,-185 "/>
<text text-anchor="start" x="8" y="-173" font-family="Helvetica,sans-Serif" font-size="10.00" fill="#000000">+ lmi0_oracle()</text>
<text text-anchor="start" x="8" y="-162" font-family="Helvetica,sans-Serif" font-size="10.00" fill="#000000">+ operator()()</text>
</a>
</g>
</g>
<!-- Node2&#45;&gt;Node1 -->
<g id="edge1" class="edge">
<title>Node2&#45;&gt;Node1</title>
<path fill="none" stroke="#404040" d="M52.3652,-154.9494C59.1265,-132.4116 67.6316,-104.0612 74.6917,-80.5278"/>
<polygon fill="none" stroke="#404040" points="74.7868,-80.2106 72.6796,-73.3142 78.235,-68.7166 80.3422,-75.613 74.7868,-80.2106"/>
<text text-anchor="middle" x="87.5" y="-90" font-family="Helvetica,sans-Serif" font-size="10.00" fill="#000000"> &#45;_lmi0</text>
</g>
<!-- Node3 -->
<g id="node3" class="node">
<title>Node3</title>
<g id="a_node3"><a xlink:href="classchol__ext.html" target="_top" xlink:title="Cholesky factorization for LMI. ">
<polygon fill="#ffffff" stroke="#000000" points="12,-320.5 12,-476.5 165,-476.5 165,-320.5 12,-320.5"/>
<text text-anchor="middle" x="88.5" y="-464.5" font-family="Helvetica,sans-Serif" font-size="10.00" fill="#000000">chol_ext&lt; Allow_semidefinite &gt;</text>
<polyline fill="none" stroke="#000000" points="12,-457.5 165,-457.5 "/>
<text text-anchor="start" x="20" y="-445.5" font-family="Helvetica,sans-Serif" font-size="10.00" fill="#000000">+ p</text>
<text text-anchor="start" x="20" y="-434.5" font-family="Helvetica,sans-Serif" font-size="10.00" fill="#000000">+ v</text>
<text text-anchor="start" x="20" y="-423.5" font-family="Helvetica,sans-Serif" font-size="10.00" fill="#000000">&#45; n</text>
<text text-anchor="start" x="20" y="-412.5" font-family="Helvetica,sans-Serif" font-size="10.00" fill="#000000">&#45; T</text>
<polyline fill="none" stroke="#000000" points="12,-405.5 165,-405.5 "/>
<text text-anchor="start" x="20" y="-393.5" font-family="Helvetica,sans-Serif" font-size="10.00" fill="#000000">+ chol_ext()</text>
<text text-anchor="start" x="20" y="-382.5" font-family="Helvetica,sans-Serif" font-size="10.00" fill="#000000">+ factorize()</text>
<text text-anchor="start" x="20" y="-371.5" font-family="Helvetica,sans-Serif" font-size="10.00" fill="#000000">+ factor()</text>
<text text-anchor="start" x="20" y="-360.5" font-family="Helvetica,sans-Serif" font-size="10.00" fill="#000000">+ is_spd()</text>
<text text-anchor="start" x="20" y="-349.5" font-family="Helvetica,sans-Serif" font-size="10.00" fill="#000000">+ witness()</text>
<text text-anchor="start" x="20" y="-338.5" font-family="Helvetica,sans-Serif" font-size="10.00" fill="#000000">+ sym_quad()</text>
<text text-anchor="start" x="20" y="-327.5" font-family="Helvetica,sans-Serif" font-size="10.00" fill="#000000">+ sqrt()</text>
</a>
</g>
</g>
<!-- Node3&#45;&gt;Node2 -->
<g id="edge2" class="edge">
<title>Node3&#45;&gt;Node2</title>
<path fill="none" stroke="#404040" d="M70.0792,-320.2117C64.2348,-295.3728 57.923,-268.5479 52.637,-246.0823"/>
<polygon fill="none" stroke="#404040" points="52.5639,-245.7713 47.296,-240.847 49.8154,-234.0903 55.0833,-239.0146 52.5639,-245.7713"/>
<text text-anchor="middle" x="75.5" y="-294" font-family="Helvetica,sans-Serif" font-size="10.00" fill="#000000"> +_Q</text>
</g>
<!-- Node4 -->
<g id="node4" class="node">
<title>Node4</title>
<g id="a_node4"><a xlink:href="classqmi__oracle.html" target="_top" xlink:title="Oracle for Quadratic Matrix Inequality. ">
<polygon fill="#ffffff" stroke="#000000" points="99,-116.5 99,-272.5 178,-272.5 178,-116.5 99,-116.5"/>
<text text-anchor="middle" x="138.5" y="-260.5" font-family="Helvetica,sans-Serif" font-size="10.00" fill="#000000">qmi_oracle</text>
<polyline fill="none" stroke="#000000" points="99,-253.5 178,-253.5 "/>
<text text-anchor="start" x="107" y="-241.5" font-family="Helvetica,sans-Serif" font-size="10.00" fill="#000000">&#45; _t</text>
<text text-anchor="start" x="107" y="-230.5" font-family="Helvetica,sans-Serif" font-size="10.00" fill="#000000">&#45; _nx</text>
<text text-anchor="start" x="107" y="-219.5" font-family="Helvetica,sans-Serif" font-size="10.00" fill="#000000">&#45; _count</text>
<text text-anchor="start" x="107" y="-208.5" font-family="Helvetica,sans-Serif" font-size="10.00" fill="#000000">&#45; _n</text>
<text text-anchor="start" x="107" y="-197.5" font-family="Helvetica,sans-Serif" font-size="10.00" fill="#000000">&#45; _m</text>
<text text-anchor="start" x="107" y="-186.5" font-family="Helvetica,sans-Serif" font-size="10.00" fill="#000000">&#45; _F</text>
<text text-anchor="start" x="107" y="-175.5" font-family="Helvetica,sans-Serif" font-size="10.00" fill="#000000">&#45; _F0</text>
<text text-anchor="start" x="107" y="-164.5" font-family="Helvetica,sans-Serif" font-size="10.00" fill="#000000">&#45; _Fx</text>
<polyline fill="none" stroke="#000000" points="99,-157.5 178,-157.5 "/>
<text text-anchor="start" x="107" y="-145.5" font-family="Helvetica,sans-Serif" font-size="10.00" fill="#000000">+ qmi_oracle()</text>
<text text-anchor="start" x="107" y="-134.5" font-family="Helvetica,sans-Serif" font-size="10.00" fill="#000000">+ update()</text>
<text text-anchor="start" x="107" y="-123.5" font-family="Helvetica,sans-Serif" font-size="10.00" fill="#000000">+ operator()()</text>
</a>
</g>
</g>
<!-- Node3&#45;&gt;Node4 -->
<g id="edge4" class="edge">
<title>Node3&#45;&gt;Node4</title>
<path fill="none" stroke="#404040" d="M107.6883,-320.2117C110.5593,-308.498 113.5386,-296.3427 116.463,-284.4111"/>
<polygon fill="none" stroke="#404040" points="116.5063,-284.2338 114.0497,-277.4541 119.363,-272.5788 121.8197,-279.3586 116.5063,-284.2338"/>
<text text-anchor="middle" x="124.5" y="-294" font-family="Helvetica,sans-Serif" font-size="10.00" fill="#000000"> +_Q</text>
</g>
<!-- Node4&#45;&gt;Node1 -->
<g id="edge3" class="edge">
<title>Node4&#45;&gt;Node1</title>
<path fill="none" stroke="#404040" d="M114.0859,-116.3748C110.2265,-104.0247 106.3484,-91.615 102.82,-80.3238"/>
<polygon fill="none" stroke="#404040" points="102.7252,-80.0203 97.1175,-75.4865 99.1458,-68.5665 104.7534,-73.1003 102.7252,-80.0203"/>
<text text-anchor="middle" x="121.5" y="-90" font-family="Helvetica,sans-Serif" font-size="10.00" fill="#000000"> &#45;_qmi</text>
</g>
</g>
</svg>
