<?xml version="1.0" encoding="UTF-8" standalone="no"?>
<!DOCTYPE svg PUBLIC "-//W3C//DTD SVG 1.1//EN"
 "http://www.w3.org/Graphics/SVG/1.1/DTD/svg11.dtd">
<!-- Generated by graphviz version 2.40.1 (20161225.0304)
 -->
<!-- Title: ellipsoid Pages: 1 -->
<svg width="192pt" height="331pt"
 viewBox="0.00 0.00 191.50 331.00" xmlns="http://www.w3.org/2000/svg" xmlns:xlink="http://www.w3.org/1999/xlink">
<g id="graph0" class="graph" transform="scale(1 1) rotate(0) translate(4 327)">
<title>ellipsoid</title>
<polygon fill="#ffffff" stroke="transparent" points="-4,4 -4,-327 187.5,-327 187.5,4 -4,4"/>
<!-- Node1 -->
<g id="node1" class="node">
<title>Node1</title>
<polygon fill="#bfbfbf" stroke="#000000" points="36,-.5 36,-112.5 109,-112.5 109,-.5 36,-.5"/>
<text text-anchor="middle" x="72.5" y="-100.5" font-family="Helvetica,sans-Serif" font-size="10.00" fill="#000000">ellipsoid</text>
<polyline fill="none" stroke="#000000" points="36,-93.5 109,-93.5 "/>
<text text-anchor="start" x="44" y="-81.5" font-family="Helvetica,sans-Serif" font-size="10.00" fill="#000000">&#45; _n</text>
<polyline fill="none" stroke="#000000" points="36,-74.5 109,-74.5 "/>
<text text-anchor="start" x="44" y="-62.5" font-family="Helvetica,sans-Serif" font-size="10.00" fill="#000000">+ ellipsoid()</text>
<text text-anchor="start" x="44" y="-51.5" font-family="Helvetica,sans-Serif" font-size="10.00" fill="#000000">+ ellipsoid()</text>
<text text-anchor="start" x="44" y="-40.5" font-family="Helvetica,sans-Serif" font-size="10.00" fill="#000000">+ ~ellipsoid()</text>
<text text-anchor="start" x="44" y="-29.5" font-family="Helvetica,sans-Serif" font-size="10.00" fill="#000000">+ x()</text>
<text text-anchor="start" x="44" y="-18.5" font-family="Helvetica,sans-Serif" font-size="10.00" fill="#000000">+ update()</text>
<text text-anchor="start" x="44" y="-7.5" font-family="Helvetica,sans-Serif" font-size="10.00" fill="#000000">+ update()</text>
</g>
<!-- Node2 -->
<g id="node2" class="node">
<title>Node2</title>
<polygon fill="#ffffff" stroke="#bfbfbf" points="77.5,-160.5 77.5,-217.5 183.5,-217.5 183.5,-160.5 77.5,-160.5"/>
<text text-anchor="middle" x="130.5" y="-205.5" font-family="Helvetica,sans-Serif" font-size="10.00" fill="#000000">std::valarray&lt; Vec &gt;</text>
<polyline fill="none" stroke="#bfbfbf" points="77.5,-198.5 183.5,-198.5 "/>
<text text-anchor="middle" x="130.5" y="-186.5" font-family="Helvetica,sans-Serif" font-size="10.00" fill="#000000"> </text>
<polyline fill="none" stroke="#bfbfbf" points="77.5,-179.5 183.5,-179.5 "/>
<text text-anchor="middle" x="130.5" y="-167.5" font-family="Helvetica,sans-Serif" font-size="10.00" fill="#000000"> </text>
</g>
<!-- Node2&#45;&gt;Node1 -->
<g id="edge1" class="edge">
<title>Node2&#45;&gt;Node1</title>
<path fill="none" stroke="#404040" d="M117.9149,-160.2495C113.1992,-149.4767 107.6201,-136.7314 102.0154,-123.9274"/>
<polygon fill="none" stroke="#404040" points="101.9165,-123.7014 95.8462,-119.8089 97.1044,-112.7084 103.1748,-116.6009 101.9165,-123.7014"/>
<text text-anchor="middle" x="119.5" y="-134" font-family="Helvetica,sans-Serif" font-size="10.00" fill="#000000"> &#45;_Ae</text>
</g>
<!-- Node3 -->
<g id="node3" class="node">
<title>Node3</title>
<polygon fill="#ffffff" stroke="#bfbfbf" points="0,-265.5 0,-322.5 117,-322.5 117,-265.5 0,-265.5"/>
<text text-anchor="middle" x="58.5" y="-310.5" font-family="Helvetica,sans-Serif" font-size="10.00" fill="#000000">std::valarray&lt; double &gt;</text>
<polyline fill="none" stroke="#bfbfbf" points="0,-303.5 117,-303.5 "/>
<text text-anchor="start" x="8" y="-291.5" font-family="Helvetica,sans-Serif" font-size="10.00" fill="#000000">+ elements</text>
<polyline fill="none" stroke="#bfbfbf" points="0,-284.5 117,-284.5 "/>
<text text-anchor="middle" x="58.5" y="-272.5" font-family="Helvetica,sans-Serif" font-size="10.00" fill="#000000"> </text>
</g>
<!-- Node3&#45;&gt;Node1 -->
<g id="edge3" class="edge">
<title>Node3&#45;&gt;Node1</title>
<path fill="none" stroke="#404040" d="M55.2164,-265.1719C53.7611,-250.9863 52.2178,-233.6189 51.5,-218 50.3166,-192.2494 48.9242,-185.6488 51.5,-160 52.6558,-148.4912 54.5172,-136.3693 56.6663,-124.6353"/>
<polygon fill="none" stroke="#404040" points="56.7171,-124.3721 53.9273,-117.7225 58.9925,-112.5898 61.7822,-119.2394 56.7171,-124.3721"/>
<text text-anchor="middle" x="60" y="-186.5" font-family="Helvetica,sans-Serif" font-size="10.00" fill="#000000"> &#45;_x</text>
</g>
<!-- Node3&#45;&gt;Node2 -->
<g id="edge2" class="edge">
<title>Node3&#45;&gt;Node2</title>
<path fill="none" stroke="#404040" d="M78.1743,-265.3083C86.1113,-253.7336 95.3914,-240.2 103.9144,-227.7707"/>
<polygon fill="none" stroke="#404040" points="104.0631,-227.5538 104.1574,-220.3433 110.8495,-217.657 110.7552,-224.8675 104.0631,-227.5538"/>
<text text-anchor="middle" x="121" y="-239" font-family="Helvetica,sans-Serif" font-size="10.00" fill="#000000"> +elements</text>
</g>
</g>
</svg>
