<?xml version="1.0" encoding="UTF-8" standalone="no"?>
<!DOCTYPE svg PUBLIC "-//W3C//DTD SVG 1.1//EN"
 "http://www.w3.org/Graphics/SVG/1.1/DTD/svg11.dtd">
<!-- Generated by graphviz version 2.40.1 (20161225.0304)
 -->
<!-- Title: lmi0_oracle::operator() Pages: 1 -->
<svg width="385pt" height="180pt"
 viewBox="0.00 0.00 385.00 180.00" xmlns="http://www.w3.org/2000/svg" xmlns:xlink="http://www.w3.org/1999/xlink">
<g id="graph0" class="graph" transform="scale(1 1) rotate(0) translate(4 176)">
<title>lmi0_oracle::operator()</title>
<polygon fill="#ffffff" stroke="transparent" points="-4,4 -4,-176 381,-176 381,4 -4,4"/>
<!-- Node8 -->
<g id="node1" class="node">
<title>Node8</title>
<polygon fill="#bfbfbf" stroke="#000000" points="0,-76.5 0,-95.5 113,-95.5 113,-76.5 0,-76.5"/>
<text text-anchor="middle" x="56.5" y="-83.5" font-family="Helvetica,sans-Serif" font-size="10.00" fill="#000000">lmi0_oracle::operator()</text>
</g>
<!-- Node9 -->
<g id="node2" class="node">
<title>Node9</title>
<g id="a_node2"><a xlink:href="classchol__ext.html#a068e5dd5e74f3bc14fd8034eead3f872" target="_top" xlink:title="Perform Cholesky Factorization (Lazy evaluation) ">
<polygon fill="#ffffff" stroke="#000000" points="159,-152.5 159,-171.5 243,-171.5 243,-152.5 159,-152.5"/>
<text text-anchor="middle" x="201" y="-159.5" font-family="Helvetica,sans-Serif" font-size="10.00" fill="#000000">chol_ext::factor</text>
</a>
</g>
</g>
<!-- Node8&#45;&gt;Node9 -->
<g id="edge1" class="edge">
<title>Node8&#45;&gt;Node9</title>
<path fill="none" stroke="#191970" d="M72.6613,-95.6037C90.9575,-106.3537 121.766,-124.0882 149,-138 155.7571,-141.4517 163.1065,-144.9782 170.0946,-148.2282"/>
<polygon fill="#191970" stroke="#191970" points="168.7616,-151.4674 179.3102,-152.4556 171.6802,-145.1048 168.7616,-151.4674"/>
</g>
<!-- Node10 -->
<g id="node3" class="node">
<title>Node10</title>
<g id="a_node3"><a xlink:href="classchol__ext.html#aa7bda881d6d0b1431c53b0c2d9bca6a7" target="_top" xlink:title="Is $A$ symmetric positive definite (spd) ">
<polygon fill="#ffffff" stroke="#000000" points="289,-76.5 289,-95.5 377,-95.5 377,-76.5 289,-76.5"/>
<text text-anchor="middle" x="333" y="-83.5" font-family="Helvetica,sans-Serif" font-size="10.00" fill="#000000">chol_ext::is_spd</text>
</a>
</g>
</g>
<!-- Node8&#45;&gt;Node10 -->
<g id="edge2" class="edge">
<title>Node8&#45;&gt;Node10</title>
<path fill="none" stroke="#191970" d="M94.0369,-95.5095C110.744,-99.2744 130.7325,-103.1433 149,-105 194.9853,-109.674 207.0916,-110.3768 253,-105 265.406,-103.547 278.6774,-100.8676 290.7732,-97.9699"/>
<polygon fill="#191970" stroke="#191970" points="291.7618,-101.3305 300.6124,-95.5066 290.0617,-94.54 291.7618,-101.3305"/>
</g>
<!-- Node11 -->
<g id="node4" class="node">
<title>Node11</title>
<g id="a_node4"><a xlink:href="classchol__ext.html#a90e28583df646642f6ee74939612d65b" target="_top" xlink:title="Calculate v&#39;*{A}(p,p)*v. ">
<polygon fill="#ffffff" stroke="#000000" points="149,-76.5 149,-95.5 253,-95.5 253,-76.5 149,-76.5"/>
<text text-anchor="middle" x="201" y="-83.5" font-family="Helvetica,sans-Serif" font-size="10.00" fill="#000000">chol_ext::sym_quad</text>
</a>
</g>
</g>
<!-- Node8&#45;&gt;Node11 -->
<g id="edge3" class="edge">
<title>Node8&#45;&gt;Node11</title>
<path fill="none" stroke="#191970" d="M113.1955,-86C121.5149,-86 130.1231,-86 138.5501,-86"/>
<polygon fill="#191970" stroke="#191970" points="138.7077,-89.5001 148.7077,-86 138.7077,-82.5001 138.7077,-89.5001"/>
</g>
<!-- Node12 -->
<g id="node5" class="node">
<title>Node12</title>
<g id="a_node5"><a xlink:href="classchol__ext.html#ab6da61667cbd9f6a7b9678361ab92111" target="_top" xlink:title="witness that certifies $A$ is not symmetric positive definite (spd) ">
<polygon fill="#ffffff" stroke="#000000" points="154.5,-38.5 154.5,-57.5 247.5,-57.5 247.5,-38.5 154.5,-38.5"/>
<text text-anchor="middle" x="201" y="-45.5" font-family="Helvetica,sans-Serif" font-size="10.00" fill="#000000">chol_ext::witness</text>
</a>
</g>
</g>
<!-- Node8&#45;&gt;Node12 -->
<g id="edge4" class="edge">
<title>Node8&#45;&gt;Node12</title>
<path fill="none" stroke="#191970" d="M92.9635,-76.411C111.7741,-71.4642 134.9146,-65.3789 154.9472,-60.1108"/>
<polygon fill="#191970" stroke="#191970" points="156.0177,-63.4483 164.7988,-57.5201 154.2374,-56.6785 156.0177,-63.4483"/>
</g>
<!-- Node13 -->
<g id="node6" class="node">
<title>Node13</title>
<g id="a_node6"><a xlink:href="utility_8hpp.html#ae3041aeb9cef3e9f4416c91d3d43f86a" target="_top" xlink:title="zeros">
<polygon fill="#ffffff" stroke="#000000" points="180.5,-.5 180.5,-19.5 221.5,-19.5 221.5,-.5 180.5,-.5"/>
<text text-anchor="middle" x="201" y="-7.5" font-family="Helvetica,sans-Serif" font-size="10.00" fill="#000000">zeros</text>
</a>
</g>
</g>
<!-- Node8&#45;&gt;Node13 -->
<g id="edge6" class="edge">
<title>Node8&#45;&gt;Node13</title>
<path fill="none" stroke="#191970" d="M70.1044,-76.3983C87.7149,-64.2594 119.6337,-43.2321 149,-29 155.8978,-25.657 163.5444,-22.553 170.8038,-19.8635"/>
<polygon fill="#191970" stroke="#191970" points="172.1054,-23.1154 180.3564,-16.4693 169.7617,-16.5194 172.1054,-23.1154"/>
</g>
<!-- Node12&#45;&gt;Node10 -->
<g id="edge5" class="edge">
<title>Node12&#45;&gt;Node10</title>
<path fill="none" stroke="#191970" d="M234.3092,-57.589C251.1928,-62.4494 271.8948,-68.4091 289.9705,-73.6127"/>
<polygon fill="#191970" stroke="#191970" points="289.1235,-77.011 299.7015,-76.4141 291.06,-70.2842 289.1235,-77.011"/>
</g>
</g>
</svg>
