<?xml version="1.0" encoding="UTF-8" standalone="no"?>
<!DOCTYPE svg PUBLIC "-//W3C//DTD SVG 1.1//EN"
 "http://www.w3.org/Graphics/SVG/1.1/DTD/svg11.dtd">
<!-- Generated by graphviz version 2.40.1 (20161225.0304)
 -->
<!-- Title: xn::DiGraphS&lt; nodeview_t, nodemap_t, adjlist_inner_dict_factory &gt; Pages: 1 -->
<svg width="286pt" height="825pt"
 viewBox="0.00 0.00 286.00 825.00" xmlns="http://www.w3.org/2000/svg" xmlns:xlink="http://www.w3.org/1999/xlink">
<g id="graph0" class="graph" transform="scale(1 1) rotate(0) translate(4 821)">
<title>xn::DiGraphS&lt; nodeview_t, nodemap_t, adjlist_inner_dict_factory &gt;</title>
<polygon fill="#ffffff" stroke="transparent" points="-4,4 -4,-821 282,-821 282,4 -4,4"/>
<!-- Node5 -->
<g id="node1" class="node">
<title>Node5</title>
<polygon fill="#bfbfbf" stroke="#000000" points="59,-.5 59,-145.5 185,-145.5 185,-.5 59,-.5"/>
<text text-anchor="start" x="67" y="-133.5" font-family="Helvetica,sans-Serif" font-size="10.00" fill="#000000">xn::DiGraphS&lt; nodeview</text>
<text text-anchor="start" x="67" y="-122.5" font-family="Helvetica,sans-Serif" font-size="10.00" fill="#000000">_t, nodemap_t, adjlist</text>
<text text-anchor="middle" x="122" y="-111.5" font-family="Helvetica,sans-Serif" font-size="10.00" fill="#000000">_inner_dict_factory &gt;</text>
<polyline fill="none" stroke="#000000" points="59,-104.5 185,-104.5 "/>
<text text-anchor="start" x="67" y="-92.5" font-family="Helvetica,sans-Serif" font-size="10.00" fill="#000000">+ _succ</text>
<polyline fill="none" stroke="#000000" points="59,-85.5 185,-85.5 "/>
<text text-anchor="start" x="67" y="-73.5" font-family="Helvetica,sans-Serif" font-size="10.00" fill="#000000">+ DiGraphS()</text>
<text text-anchor="start" x="67" y="-62.5" font-family="Helvetica,sans-Serif" font-size="10.00" fill="#000000">+ DiGraphS()</text>
<text text-anchor="start" x="67" y="-51.5" font-family="Helvetica,sans-Serif" font-size="10.00" fill="#000000">+ adj()</text>
<text text-anchor="start" x="67" y="-40.5" font-family="Helvetica,sans-Serif" font-size="10.00" fill="#000000">+ succ()</text>
<text text-anchor="start" x="67" y="-29.5" font-family="Helvetica,sans-Serif" font-size="10.00" fill="#000000">+ add_edge()</text>
<text text-anchor="start" x="67" y="-18.5" font-family="Helvetica,sans-Serif" font-size="10.00" fill="#000000">+ has_successor()</text>
<text text-anchor="start" x="67" y="-7.5" font-family="Helvetica,sans-Serif" font-size="10.00" fill="#000000">and 7 more...</text>
</g>
<!-- Node6 -->
<g id="node2" class="node">
<title>Node6</title>
<g id="a_node2"><a xlink:href="classxn_1_1Graph.html" target="_top" xlink:title="{xn::Graph\&lt; nodeview\l_t, nodemap_t, adjlist\l_inner_dict_factory \&gt;\n|+ _node\l+ _node_map\l|+ Graph()\l+ Graph()\l+ adj()\l+ get_name()\l+ set_name()\l+ begin()\land 13 more...\l}">
<polygon fill="#ffffff" stroke="#000000" points="67,-183.5 67,-339.5 177,-339.5 177,-183.5 67,-183.5"/>
<text text-anchor="start" x="75" y="-327.5" font-family="Helvetica,sans-Serif" font-size="10.00" fill="#000000">xn::Graph&lt; nodeview</text>
<text text-anchor="start" x="75" y="-316.5" font-family="Helvetica,sans-Serif" font-size="10.00" fill="#000000">_t, nodemap_t, adjlist</text>
<text text-anchor="middle" x="122" y="-305.5" font-family="Helvetica,sans-Serif" font-size="10.00" fill="#000000">_inner_dict_factory &gt;</text>
<polyline fill="none" stroke="#000000" points="67,-298.5 177,-298.5 "/>
<text text-anchor="start" x="75" y="-286.5" font-family="Helvetica,sans-Serif" font-size="10.00" fill="#000000">+ _node</text>
<text text-anchor="start" x="75" y="-275.5" font-family="Helvetica,sans-Serif" font-size="10.00" fill="#000000">+ _node_map</text>
<polyline fill="none" stroke="#000000" points="67,-268.5 177,-268.5 "/>
<text text-anchor="start" x="75" y="-256.5" font-family="Helvetica,sans-Serif" font-size="10.00" fill="#000000">+ Graph()</text>
<text text-anchor="start" x="75" y="-245.5" font-family="Helvetica,sans-Serif" font-size="10.00" fill="#000000">+ Graph()</text>
<text text-anchor="start" x="75" y="-234.5" font-family="Helvetica,sans-Serif" font-size="10.00" fill="#000000">+ adj()</text>
<text text-anchor="start" x="75" y="-223.5" font-family="Helvetica,sans-Serif" font-size="10.00" fill="#000000">+ get_name()</text>
<text text-anchor="start" x="75" y="-212.5" font-family="Helvetica,sans-Serif" font-size="10.00" fill="#000000">+ set_name()</text>
<text text-anchor="start" x="75" y="-201.5" font-family="Helvetica,sans-Serif" font-size="10.00" fill="#000000">+ begin()</text>
<text text-anchor="start" x="75" y="-190.5" font-family="Helvetica,sans-Serif" font-size="10.00" fill="#000000">and 13 more...</text>
</a>
</g>
</g>
<!-- Node6&#45;&gt;Node5 -->
<g id="edge1" class="edge">
<title>Node6&#45;&gt;Node5</title>
<path fill="none" stroke="#191970" d="M122,-173.3945C122,-164.0649 122,-154.6546 122,-145.5315"/>
<polygon fill="none" stroke="#191970" points="118.5001,-173.4691 122,-183.4691 125.5001,-173.4692 118.5001,-173.4691"/>
</g>
<!-- Node7 -->
<g id="node3" class="node">
<title>Node7</title>
<g id="a_node3"><a xlink:href="structxn_1_1object.html" target="_top" xlink:title="{xn::object\n||}">
<polygon fill="#ffffff" stroke="#000000" points="92.5,-393 92.5,-450 151.5,-450 151.5,-393 92.5,-393"/>
<text text-anchor="middle" x="122" y="-438" font-family="Helvetica,sans-Serif" font-size="10.00" fill="#000000">xn::object</text>
<polyline fill="none" stroke="#000000" points="92.5,-431 151.5,-431 "/>
<text text-anchor="middle" x="122" y="-419" font-family="Helvetica,sans-Serif" font-size="10.00" fill="#000000"> </text>
<polyline fill="none" stroke="#000000" points="92.5,-412 151.5,-412 "/>
<text text-anchor="middle" x="122" y="-400" font-family="Helvetica,sans-Serif" font-size="10.00" fill="#000000"> </text>
</a>
</g>
</g>
<!-- Node7&#45;&gt;Node6 -->
<g id="edge2" class="edge">
<title>Node7&#45;&gt;Node6</title>
<path fill="none" stroke="#191970" d="M122,-382.8779C122,-369.7916 122,-354.6671 122,-339.6306"/>
<polygon fill="none" stroke="#191970" points="118.5001,-382.8952 122,-392.8952 125.5001,-382.8952 118.5001,-382.8952"/>
</g>
<!-- Node8 -->
<g id="node4" class="node">
<title>Node8</title>
<g id="a_node4"><a xlink:href="classpy_1_1dict.html" target="_top" xlink:title="{py::dict\&lt; const char\l *, std::any \&gt;\n||+ dict()\l+ dict()\l+ operator=()\l&#45; dict()\l}">
<polygon fill="#ffffff" stroke="#000000" points="0,-493.5 0,-594.5 104,-594.5 104,-493.5 0,-493.5"/>
<text text-anchor="start" x="8" y="-582.5" font-family="Helvetica,sans-Serif" font-size="10.00" fill="#000000">py::dict&lt; const char</text>
<text text-anchor="middle" x="52" y="-571.5" font-family="Helvetica,sans-Serif" font-size="10.00" fill="#000000"> *, std::any &gt;</text>
<polyline fill="none" stroke="#000000" points="0,-564.5 104,-564.5 "/>
<text text-anchor="middle" x="52" y="-552.5" font-family="Helvetica,sans-Serif" font-size="10.00" fill="#000000"> </text>
<polyline fill="none" stroke="#000000" points="0,-545.5 104,-545.5 "/>
<text text-anchor="start" x="8" y="-533.5" font-family="Helvetica,sans-Serif" font-size="10.00" fill="#000000">+ dict()</text>
<text text-anchor="start" x="8" y="-522.5" font-family="Helvetica,sans-Serif" font-size="10.00" fill="#000000">+ dict()</text>
<text text-anchor="start" x="8" y="-511.5" font-family="Helvetica,sans-Serif" font-size="10.00" fill="#000000">+ operator=()</text>
<text text-anchor="start" x="8" y="-500.5" font-family="Helvetica,sans-Serif" font-size="10.00" fill="#000000">&#45; dict()</text>
</a>
</g>
</g>
<!-- Node8&#45;&gt;Node6 -->
<g id="edge7" class="edge">
<title>Node8&#45;&gt;Node6</title>
<path fill="none" stroke="#404040" d="M43.9382,-493.2783C40.7123,-462.0922 39.6655,-421.6128 49,-387 52.3165,-374.7024 57.1679,-362.3699 62.8191,-350.4954"/>
<polygon fill="none" stroke="#404040" points="62.8362,-350.4612 61.9484,-343.305 68.2127,-339.7331 69.1005,-346.8893 62.8362,-350.4612"/>
<text text-anchor="middle" x="66" y="-419" font-family="Helvetica,sans-Serif" font-size="10.00" fill="#000000"> +graph</text>
</g>
<!-- Node8&#45;&gt;Node7 -->
<g id="edge3" class="edge">
<title>Node8&#45;&gt;Node7</title>
<path fill="none" stroke="#191970" d="M85.8596,-484.7456C92.7393,-472.7063 99.6777,-460.5641 105.6102,-450.1821"/>
<polygon fill="none" stroke="#191970" points="82.7984,-483.0484 80.8758,-493.4673 88.8761,-486.5214 82.7984,-483.0484"/>
</g>
<!-- Node9 -->
<g id="node5" class="node">
<title>Node9</title>
<g id="a_node5"><a xlink:title="STL class. ">
<polygon fill="#ffffff" stroke="#bfbfbf" points=".5,-632.5 .5,-711.5 103.5,-711.5 103.5,-632.5 .5,-632.5"/>
<text text-anchor="start" x="8.5" y="-699.5" font-family="Helvetica,sans-Serif" font-size="10.00" fill="#000000">std::unordered_map</text>
<text text-anchor="start" x="8.5" y="-688.5" font-family="Helvetica,sans-Serif" font-size="10.00" fill="#000000">&lt; const char *, std</text>
<text text-anchor="middle" x="52" y="-677.5" font-family="Helvetica,sans-Serif" font-size="10.00" fill="#000000">::any &gt;</text>
<polyline fill="none" stroke="#bfbfbf" points=".5,-670.5 103.5,-670.5 "/>
<text text-anchor="middle" x="52" y="-658.5" font-family="Helvetica,sans-Serif" font-size="10.00" fill="#000000"> </text>
<polyline fill="none" stroke="#bfbfbf" points=".5,-651.5 103.5,-651.5 "/>
<text text-anchor="middle" x="52" y="-639.5" font-family="Helvetica,sans-Serif" font-size="10.00" fill="#000000"> </text>
</a>
</g>
</g>
<!-- Node9&#45;&gt;Node8 -->
<g id="edge4" class="edge">
<title>Node9&#45;&gt;Node8</title>
<path fill="none" stroke="#191970" d="M52,-622.1972C52,-613.1496 52,-603.7033 52,-594.6321"/>
<polygon fill="none" stroke="#191970" points="48.5001,-622.2016 52,-632.2016 55.5001,-622.2017 48.5001,-622.2016"/>
</g>
<!-- Node10 -->
<g id="node6" class="node">
<title>Node10</title>
<polygon fill="#ffffff" stroke="#bfbfbf" points="10.5,-759.5 10.5,-816.5 39.5,-816.5 39.5,-759.5 10.5,-759.5"/>
<text text-anchor="middle" x="25" y="-804.5" font-family="Helvetica,sans-Serif" font-size="10.00" fill="#000000">K</text>
<polyline fill="none" stroke="#bfbfbf" points="10.5,-797.5 39.5,-797.5 "/>
<text text-anchor="middle" x="25" y="-785.5" font-family="Helvetica,sans-Serif" font-size="10.00" fill="#000000"> </text>
<polyline fill="none" stroke="#bfbfbf" points="10.5,-778.5 39.5,-778.5 "/>
<text text-anchor="middle" x="25" y="-766.5" font-family="Helvetica,sans-Serif" font-size="10.00" fill="#000000"> </text>
</g>
<!-- Node10&#45;&gt;Node9 -->
<g id="edge5" class="edge">
<title>Node10&#45;&gt;Node9</title>
<path fill="none" stroke="#404040" d="M23.2185,-759.4099C23.23,-749.9519 23.8965,-739.4365 26,-730 26.5132,-727.6978 27.122,-725.3757 27.8067,-723.0531"/>
<polygon fill="none" stroke="#404040" points="27.8689,-722.8721 26.039,-715.897 31.7738,-711.5252 33.6037,-718.5002 27.8689,-722.8721"/>
<text text-anchor="middle" x="41.5" y="-733" font-family="Helvetica,sans-Serif" font-size="10.00" fill="#000000"> +keys</text>
</g>
<!-- Node11 -->
<g id="node7" class="node">
<title>Node11</title>
<polygon fill="#ffffff" stroke="#bfbfbf" points="64.5,-759.5 64.5,-816.5 93.5,-816.5 93.5,-759.5 64.5,-759.5"/>
<text text-anchor="middle" x="79" y="-804.5" font-family="Helvetica,sans-Serif" font-size="10.00" fill="#000000">T</text>
<polyline fill="none" stroke="#bfbfbf" points="64.5,-797.5 93.5,-797.5 "/>
<text text-anchor="middle" x="79" y="-785.5" font-family="Helvetica,sans-Serif" font-size="10.00" fill="#000000"> </text>
<polyline fill="none" stroke="#bfbfbf" points="64.5,-778.5 93.5,-778.5 "/>
<text text-anchor="middle" x="79" y="-766.5" font-family="Helvetica,sans-Serif" font-size="10.00" fill="#000000"> </text>
</g>
<!-- Node11&#45;&gt;Node9 -->
<g id="edge6" class="edge">
<title>Node11&#45;&gt;Node9</title>
<path fill="none" stroke="#404040" d="M72.3258,-759.3258C69.8194,-748.5576 66.8871,-735.9593 64.0421,-723.7364"/>
<polygon fill="none" stroke="#404040" points="63.9657,-723.4079 58.7096,-718.4709 61.2452,-711.7203 66.5013,-716.6573 63.9657,-723.4079"/>
<text text-anchor="middle" x="92.5" y="-733" font-family="Helvetica,sans-Serif" font-size="10.00" fill="#000000"> +elements</text>
</g>
<!-- Node12 -->
<g id="node8" class="node">
<title>Node12</title>
<polygon fill="#ffffff" stroke="#bfbfbf" points="170,-387.5 170,-455.5 278,-455.5 278,-387.5 170,-387.5"/>
<text text-anchor="start" x="178" y="-443.5" font-family="Helvetica,sans-Serif" font-size="10.00" fill="#000000">std::vector&lt; adjlist</text>
<text text-anchor="middle" x="224" y="-432.5" font-family="Helvetica,sans-Serif" font-size="10.00" fill="#000000">_inner_dict_factory &gt;</text>
<polyline fill="none" stroke="#bfbfbf" points="170,-425.5 278,-425.5 "/>
<text text-anchor="start" x="178" y="-413.5" font-family="Helvetica,sans-Serif" font-size="10.00" fill="#000000">+ elements</text>
<polyline fill="none" stroke="#bfbfbf" points="170,-406.5 278,-406.5 "/>
<text text-anchor="middle" x="224" y="-394.5" font-family="Helvetica,sans-Serif" font-size="10.00" fill="#000000"> </text>
</g>
<!-- Node12&#45;&gt;Node6 -->
<g id="edge8" class="edge">
<title>Node12&#45;&gt;Node6</title>
<path fill="none" stroke="#404040" d="M202.1184,-387.176C195.0281,-376.054 186.8086,-363.1606 178.391,-349.9565"/>
<polygon fill="none" stroke="#404040" points="178.3816,-349.9416 171.7833,-347.0325 171.9308,-339.8229 178.5291,-342.732 178.3816,-349.9416"/>
<text text-anchor="middle" x="202" y="-361" font-family="Helvetica,sans-Serif" font-size="10.00" fill="#000000"> +_adj</text>
</g>
</g>
</svg>
