<?xml version="1.0" encoding="UTF-8" standalone="no"?>
<!DOCTYPE svg PUBLIC "-//W3C//DTD SVG 1.1//EN"
 "http://www.w3.org/Graphics/SVG/1.1/DTD/svg11.dtd">
<!-- Generated by graphviz version 2.40.1 (20161225.0304)
 -->
<!-- Title: chol_ext::is_spd Pages: 1 -->
<!--zoomable 216 -->
<svg id="main" version="1.1" xmlns="http://www.w3.org/2000/svg" xmlns:xlink="http://www.w3.org/1999/xlink" xml:space="preserve" onload="init(evt)">
<style type="text/css"><![CDATA[
.edge:hover path { stroke: red; }
.edge:hover polygon { stroke: red; fill: red; }
]]></style>
<script type="text/javascript"><![CDATA[
var edges = document.getElementsByTagName('g');
if (edges && edges.length) {
  for (var i=0;i<edges.length;i++) {
    if (edges[i].id.substr(0,4)=='edge') {
      edges[i].setAttribute('class','edge');
    }
  }
}
]]></script>
        <defs>
                <circle id="rim" cx="0" cy="0" r="7"/>
                <circle id="rim2" cx="0" cy="0" r="3.5"/>
                <g id="zoomPlus">
                        <use xlink:href="#rim" fill="#404040">
                                <set attributeName="fill" to="#808080" begin="zoomplus.mouseover" end="zoomplus.mouseout"/>
                        </use>
                        <path d="M-4,0h8M0,-4v8" fill="none" stroke="white" stroke-width="1.5" pointer-events="none"/>
                </g>
                <g id="zoomMin">
                        <use xlink:href="#rim" fill="#404040">
                                <set attributeName="fill" to="#808080" begin="zoomminus.mouseover" end="zoomminus.mouseout"/>
                        </use>
                        <path d="M-4,0h8" fill="none" stroke="white" stroke-width="1.5" pointer-events="none"/>
                </g>
                <g id="dirArrow">
                        <path fill="none" stroke="white" stroke-width="1.5" d="M0,-3.0v7 M-2.5,-0.5L0,-3.0L2.5,-0.5"/>
                </g>
               <g id="resetDef">
                       <use xlink:href="#rim2" fill="#404040">
                               <set attributeName="fill" to="#808080" begin="reset.mouseover" end="reset.mouseout"/>
                       </use>
               </g>
        </defs>

<script type="text/javascript">
var viewWidth = 689;
var viewHeight = 216;
var sectionId = 'dynsection-5';
</script>
<script xlink:href="svgpan.js"/>
<svg id="graph" class="graph">
<g id="viewport">
<title>chol_ext::is_spd</title>
<polygon fill="#ffffff" stroke="transparent" points="-4,4 -4,-212 685,-212 685,4 -4,4"/>
<!-- Node31 -->
<g id="node1" class="node">
<title>Node31</title>
<polygon fill="#bfbfbf" stroke="#000000" points="0,-95.5 0,-114.5 88,-114.5 88,-95.5 0,-95.5"/>
<text text-anchor="middle" x="44" y="-102.5" font-family="Helvetica,sans-Serif" font-size="10.00" fill="#000000">chol_ext::is_spd</text>
</g>
<!-- Node32 -->
<g id="node2" class="node">
<title>Node32</title>
<g id="a_node2"><a xlink:href="classlmi0__oracle.html#a2dfa17d2244203f610ca993e1aea70da" target="_top" xlink:title="lmi0_oracle::operator()">
<polygon fill="#ffffff" stroke="#000000" points="259.5,-188.5 259.5,-207.5 372.5,-207.5 372.5,-188.5 259.5,-188.5"/>
<text text-anchor="middle" x="316" y="-195.5" font-family="Helvetica,sans-Serif" font-size="10.00" fill="#000000">lmi0_oracle::operator()</text>
</a>
</g>
</g>
<!-- Node31&#45;&gt;Node32 -->
<g id="edge1" class="edge">
<title>Node31&#45;&gt;Node32</title>
<path fill="none" stroke="#191970" d="M61.5608,-121.3466C76.8799,-134.6687 100.3075,-152.8764 124,-163 167.3089,-181.5055 220.1915,-190.2337 259.4833,-194.3465"/>
<polygon fill="#191970" stroke="#191970" points="63.7227,-118.5847 53.9342,-114.5305 59.058,-123.804 63.7227,-118.5847"/>
</g>
<!-- Node34 -->
<g id="node4" class="node">
<title>Node34</title>
<g id="a_node4"><a xlink:href="classlmi__oracle.html#a8b68a17f756b8146888b5a3103b946df" target="_top" xlink:title="lmi_oracle::operator()">
<polygon fill="#ffffff" stroke="#000000" points="262,-144.5 262,-163.5 370,-163.5 370,-144.5 262,-144.5"/>
<text text-anchor="middle" x="316" y="-151.5" font-family="Helvetica,sans-Serif" font-size="10.00" fill="#000000">lmi_oracle::operator()</text>
</a>
</g>
</g>
<!-- Node31&#45;&gt;Node34 -->
<g id="edge3" class="edge">
<title>Node31&#45;&gt;Node34</title>
<path fill="none" stroke="#191970" d="M68.4,-119.6337C83.7839,-128.0754 104.3851,-137.9844 124,-143 169.4479,-154.6211 222.8424,-156.7996 261.7714,-156.3998"/>
<polygon fill="#191970" stroke="#191970" points="69.9776,-116.5049 59.5511,-114.624 66.529,-122.5965 69.9776,-116.5049"/>
</g>
<!-- Node36 -->
<g id="node6" class="node">
<title>Node36</title>
<g id="a_node6"><a xlink:href="classlmi__old__oracle.html#a505d905c270e88faf78ee85158aebb93" target="_top" xlink:title="lmi_old_oracle::operator()">
<polygon fill="#ffffff" stroke="#000000" points="253,-98.5 253,-117.5 379,-117.5 379,-98.5 253,-98.5"/>
<text text-anchor="middle" x="316" y="-105.5" font-family="Helvetica,sans-Serif" font-size="10.00" fill="#000000">lmi_old_oracle::operator()</text>
</a>
</g>
</g>
<!-- Node31&#45;&gt;Node36 -->
<g id="edge5" class="edge">
<title>Node31&#45;&gt;Node36</title>
<path fill="none" stroke="#191970" d="M98.3031,-104.5785C132.3902,-104.4184 177.2649,-104.3981 217,-105 228.6056,-105.1758 240.9738,-105.4675 252.8956,-105.8017"/>
<polygon fill="#191970" stroke="#191970" points="98.0698,-101.0796 88.0883,-104.6321 98.1066,-108.0795 98.0698,-101.0796"/>
</g>
<!-- Node38 -->
<g id="node8" class="node">
<title>Node38</title>
<g id="a_node8"><a xlink:href="classqmi__oracle.html#a17a23146225c498782e66dea9f1d64ec" target="_top" xlink:title="qmi_oracle::operator()">
<polygon fill="#ffffff" stroke="#000000" points="260.5,-51.5 260.5,-70.5 371.5,-70.5 371.5,-51.5 260.5,-51.5"/>
<text text-anchor="middle" x="316" y="-58.5" font-family="Helvetica,sans-Serif" font-size="10.00" fill="#000000">qmi_oracle::operator()</text>
</a>
</g>
</g>
<!-- Node31&#45;&gt;Node38 -->
<g id="edge7" class="edge">
<title>Node31&#45;&gt;Node38</title>
<path fill="none" stroke="#191970" d="M97.9933,-96.2658C144.9773,-88.6654 212.8007,-77.694 260.285,-70.0127"/>
<polygon fill="#191970" stroke="#191970" points="97.3165,-92.8297 88.0038,-97.8817 98.4344,-99.7399 97.3165,-92.8297"/>
</g>
<!-- Node41 -->
<g id="node11" class="node">
<title>Node41</title>
<g id="a_node11"><a xlink:href="classchol__ext.html#a71a128edb506ca260c44445b265a8649" target="_top" xlink:title="chol_ext::sqrt">
<polygon fill="#ffffff" stroke="#000000" points="132.5,-.5 132.5,-19.5 208.5,-19.5 208.5,-.5 132.5,-.5"/>
<text text-anchor="middle" x="170.5" y="-7.5" font-family="Helvetica,sans-Serif" font-size="10.00" fill="#000000">chol_ext::sqrt</text>
</a>
</g>
</g>
<!-- Node31&#45;&gt;Node41 -->
<g id="edge10" class="edge">
<title>Node31&#45;&gt;Node41</title>
<path fill="none" stroke="#191970" d="M60.4518,-88.1634C75.9476,-72.8694 100.2655,-50.2784 124,-34 131.7917,-28.6561 140.9269,-23.6931 149.0282,-19.6836"/>
<polygon fill="#191970" stroke="#191970" points="57.7914,-85.8744 53.2025,-95.4239 62.745,-90.8203 57.7914,-85.8744"/>
</g>
<!-- Node43 -->
<g id="node13" class="node">
<title>Node43</title>
<g id="a_node13"><a xlink:href="classchol__ext.html#ab6da61667cbd9f6a7b9678361ab92111" target="_top" xlink:title="witness that certifies $A$ is not symmetric positive definite (spd) ">
<polygon fill="#ffffff" stroke="#000000" points="124,-114.5 124,-133.5 217,-133.5 217,-114.5 124,-114.5"/>
<text text-anchor="middle" x="170.5" y="-121.5" font-family="Helvetica,sans-Serif" font-size="10.00" fill="#000000">chol_ext::witness</text>
</a>
</g>
</g>
<!-- Node31&#45;&gt;Node43 -->
<g id="edge12" class="edge">
<title>Node31&#45;&gt;Node43</title>
<path fill="none" stroke="#191970" d="M98.1644,-113.1354C106.7375,-114.423 115.538,-115.7448 123.9182,-117.0035"/>
<polygon fill="#191970" stroke="#191970" points="98.6525,-109.6695 88.2436,-111.6453 97.6127,-116.5919 98.6525,-109.6695"/>
</g>
<!-- Node33 -->
<g id="node3" class="node">
<title>Node33</title>
<g id="a_node3"><a xlink:href="classlmi0__oracle.html#aa9cd37f70024e10008974ad81032a48f" target="_top" xlink:title="Construct a new lmi0 oracle object. ">
<polygon fill="#ffffff" stroke="#000000" points="415,-188.5 415,-207.5 537,-207.5 537,-188.5 415,-188.5"/>
<text text-anchor="middle" x="476" y="-195.5" font-family="Helvetica,sans-Serif" font-size="10.00" fill="#000000">lmi0_oracle::lmi0_oracle</text>
</a>
</g>
</g>
<!-- Node32&#45;&gt;Node33 -->
<g id="edge2" class="edge">
<title>Node32&#45;&gt;Node33</title>
<path fill="none" stroke="#191970" d="M382.9279,-198C393.5559,-198 404.5002,-198 414.9831,-198"/>
<polygon fill="#191970" stroke="#191970" points="382.8606,-194.5001 372.8605,-198 382.8605,-201.5001 382.8606,-194.5001"/>
</g>
<!-- Node35 -->
<g id="node5" class="node">
<title>Node35</title>
<g id="a_node5"><a xlink:href="classlmi__oracle.html#a2537bac6b75002430dc61150218490b3" target="_top" xlink:title="Construct a new lmi oracle object. ">
<polygon fill="#ffffff" stroke="#000000" points="420.5,-144.5 420.5,-163.5 531.5,-163.5 531.5,-144.5 420.5,-144.5"/>
<text text-anchor="middle" x="476" y="-151.5" font-family="Helvetica,sans-Serif" font-size="10.00" fill="#000000">lmi_oracle::lmi_oracle</text>
</a>
</g>
</g>
<!-- Node34&#45;&gt;Node35 -->
<g id="edge4" class="edge">
<title>Node34&#45;&gt;Node35</title>
<path fill="none" stroke="#191970" d="M380.1713,-154C393.4391,-154 407.312,-154 420.2503,-154"/>
<polygon fill="#191970" stroke="#191970" points="380.1687,-150.5001 370.1687,-154 380.1687,-157.5001 380.1687,-150.5001"/>
</g>
<!-- Node37 -->
<g id="node7" class="node">
<title>Node37</title>
<g id="a_node7"><a xlink:href="classlmi__old__oracle.html#a12e514ccdcab9066788323fd74b82bcd" target="_top" xlink:title="Construct a new lmi oracle object. ">
<polygon fill="#ffffff" stroke="#000000" points="427,-93 427,-123 525,-123 525,-93 427,-93"/>
<text text-anchor="start" x="435" y="-111" font-family="Helvetica,sans-Serif" font-size="10.00" fill="#000000">lmi_old_oracle::lmi</text>
<text text-anchor="middle" x="476" y="-100" font-family="Helvetica,sans-Serif" font-size="10.00" fill="#000000">_old_oracle</text>
</a>
</g>
</g>
<!-- Node36&#45;&gt;Node37 -->
<g id="edge6" class="edge">
<title>Node36&#45;&gt;Node37</title>
<path fill="none" stroke="#191970" d="M389.2824,-108C401.8992,-108 414.7405,-108 426.539,-108"/>
<polygon fill="#191970" stroke="#191970" points="389.2363,-104.5001 379.2362,-108 389.2362,-111.5001 389.2363,-104.5001"/>
</g>
<!-- Node39 -->
<g id="node9" class="node">
<title>Node39</title>
<g id="a_node9"><a xlink:href="classqmi__oracle.html#aec6bfef186ed45b37f922f1d7ab4fb52" target="_top" xlink:title="Update t. ">
<polygon fill="#ffffff" stroke="#000000" points="426.5,-51.5 426.5,-70.5 525.5,-70.5 525.5,-51.5 426.5,-51.5"/>
<text text-anchor="middle" x="476" y="-58.5" font-family="Helvetica,sans-Serif" font-size="10.00" fill="#000000">qmi_oracle::update</text>
</a>
</g>
</g>
<!-- Node38&#45;&gt;Node39 -->
<g id="edge8" class="edge">
<title>Node38&#45;&gt;Node39</title>
<path fill="none" stroke="#191970" d="M381.7271,-61C396.6808,-61 412.3222,-61 426.469,-61"/>
<polygon fill="#191970" stroke="#191970" points="381.5112,-57.5001 371.5112,-61 381.5112,-64.5001 381.5112,-57.5001"/>
</g>
<!-- Node40 -->
<g id="node10" class="node">
<title>Node40</title>
<g id="a_node10"><a xlink:href="classlsq__oracle.html#a867c30a1ae0351df3213417e37ff18ec" target="_top" xlink:title="lsq_oracle::operator()">
<polygon fill="#ffffff" stroke="#000000" points="573,-51.5 573,-70.5 681,-70.5 681,-51.5 573,-51.5"/>
<text text-anchor="middle" x="627" y="-58.5" font-family="Helvetica,sans-Serif" font-size="10.00" fill="#000000">lsq_oracle::operator()</text>
</a>
</g>
</g>
<!-- Node39&#45;&gt;Node40 -->
<g id="edge9" class="edge">
<title>Node39&#45;&gt;Node40</title>
<path fill="none" stroke="#191970" d="M535.9186,-61C548.0843,-61 560.8144,-61 572.7697,-61"/>
<polygon fill="#191970" stroke="#191970" points="535.8616,-57.5001 525.8615,-61 535.8615,-64.5001 535.8616,-57.5001"/>
</g>
<!-- Node42 -->
<g id="node12" class="node">
<title>Node42</title>
<g id="a_node12"><a xlink:href="classmle__oracle.html#af7895eb442f4069d2eafcb1539a19d0a" target="_top" xlink:title="mle_oracle::operator()">
<polygon fill="#ffffff" stroke="#000000" points="260.5,-.5 260.5,-19.5 371.5,-19.5 371.5,-.5 260.5,-.5"/>
<text text-anchor="middle" x="316" y="-7.5" font-family="Helvetica,sans-Serif" font-size="10.00" fill="#000000">mle_oracle::operator()</text>
</a>
</g>
</g>
<!-- Node41&#45;&gt;Node42 -->
<g id="edge11" class="edge">
<title>Node41&#45;&gt;Node42</title>
<path fill="none" stroke="#191970" d="M219.0279,-10C232.2408,-10 246.657,-10 260.2367,-10"/>
<polygon fill="#191970" stroke="#191970" points="218.7284,-6.5001 208.7284,-10 218.7284,-13.5001 218.7284,-6.5001"/>
</g>
<!-- Node43&#45;&gt;Node32 -->
<g id="edge13" class="edge">
<title>Node43&#45;&gt;Node32</title>
<path fill="none" stroke="#191970" d="M193.8004,-139.1865C210.0297,-149.4259 232.3791,-162.864 253,-173 264.6164,-178.71 277.8818,-184.1287 289.2342,-188.4523"/>
<polygon fill="#191970" stroke="#191970" points="195.3238,-136.0067 185.0114,-133.5764 191.5575,-141.9071 195.3238,-136.0067"/>
</g>
<!-- Node43&#45;&gt;Node34 -->
<g id="edge15" class="edge">
<title>Node43&#45;&gt;Node34</title>
<path fill="none" stroke="#191970" d="M226.9962,-135.6487C241.0621,-138.5489 255.9824,-141.6252 269.505,-144.4134"/>
<polygon fill="#191970" stroke="#191970" points="227.4379,-132.1662 216.9372,-133.5747 226.0243,-139.022 227.4379,-132.1662"/>
</g>
<!-- Node43&#45;&gt;Node36 -->
<g id="edge14" class="edge">
<title>Node43&#45;&gt;Node36</title>
<path fill="none" stroke="#191970" d="M227.3445,-117.7491C235.6934,-116.831 244.3361,-115.8806 252.8032,-114.9495"/>
<polygon fill="#191970" stroke="#191970" points="226.8955,-114.2772 217.338,-118.8494 227.6607,-121.2353 226.8955,-114.2772"/>
</g>
<!-- Node43&#45;&gt;Node38 -->
<g id="edge16" class="edge">
<title>Node43&#45;&gt;Node38</title>
<path fill="none" stroke="#191970" d="M201.8395,-110.4303C229.5034,-98.4521 269.145,-81.2877 293.6937,-70.6584"/>
<polygon fill="#191970" stroke="#191970" points="200.3843,-107.2463 192.5983,-114.4317 203.1658,-113.67 200.3843,-107.2463"/>
</g>
</g>
</svg>
        <g id="navigator" transform="translate(0 0)" fill="#404254">
                <rect fill="#f2f5e9" fill-opacity="0.5" stroke="#606060" stroke-width=".5" x="0" y="0" width="60" height="60"/>
                <use id="zoomplus" xlink:href="#zoomPlus" x="17" y="9" onmousedown="handleZoom(evt,'in')"/>
                <use id="zoomminus" xlink:href="#zoomMin" x="42" y="9" onmousedown="handleZoom(evt,'out')"/>
                <use id="reset" xlink:href="#resetDef" x="30" y="36" onmousedown="handleReset()"/>
                <g id="arrowUp" xlink:href="#dirArrow" transform="translate(30 24)" onmousedown="handlePan(0,-1)">
                  <use xlink:href="#rim" fill="#404040">
                        <set attributeName="fill" to="#808080" begin="arrowUp.mouseover" end="arrowUp.mouseout"/>
                  </use>
                  <path fill="none" stroke="white" stroke-width="1.5" d="M0,-3.0v7 M-2.5,-0.5L0,-3.0L2.5,-0.5"/>
                </g>
                <g id="arrowRight" xlink:href="#dirArrow" transform="rotate(90) translate(36 -43)" onmousedown="handlePan(1,0)">
                  <use xlink:href="#rim" fill="#404040">
                        <set attributeName="fill" to="#808080" begin="arrowRight.mouseover" end="arrowRight.mouseout"/>
                  </use>
                  <path fill="none" stroke="white" stroke-width="1.5" d="M0,-3.0v7 M-2.5,-0.5L0,-3.0L2.5,-0.5"/>
                </g>
                <g id="arrowDown" xlink:href="#dirArrow" transform="rotate(180) translate(-30 -48)" onmousedown="handlePan(0,1)">
                  <use xlink:href="#rim" fill="#404040">
                        <set attributeName="fill" to="#808080" begin="arrowDown.mouseover" end="arrowDown.mouseout"/>
                  </use>
                  <path fill="none" stroke="white" stroke-width="1.5" d="M0,-3.0v7 M-2.5,-0.5L0,-3.0L2.5,-0.5"/>
                </g>
                <g id="arrowLeft" xlink:href="#dirArrow" transform="rotate(270) translate(-36 17)" onmousedown="handlePan(-1,0)">
                  <use xlink:href="#rim" fill="#404040">
                        <set attributeName="fill" to="#808080" begin="arrowLeft.mouseover" end="arrowLeft.mouseout"/>
                  </use>
                  <path fill="none" stroke="white" stroke-width="1.5" d="M0,-3.0v7 M-2.5,-0.5L0,-3.0L2.5,-0.5"/>
                </g>
        </g>
        <svg viewBox="0 0 15 15" width="100%" height="30px" preserveAspectRatio="xMaxYMin meet">
         <g id="arrow_out" transform="scale(0.3 0.3)">
          <a xlink:href="classchol__ext_aa7bda881d6d0b1431c53b0c2d9bca6a7_icgraph_org.svg" target="_base">
           <rect id="button" ry="5" rx="5" y="6" x="6" height="38" width="38"
                fill="#f2f5e9" fill-opacity="0.5" stroke="#606060" stroke-width="1.0"/>
           <path id="arrow"
             d="M 11.500037,31.436501 C 11.940474,20.09759 22.043105,11.32322 32.158766,21.979434 L 37.068811,17.246167 C 37.068811,17.246167 37.088388,32 37.088388,32 L 22.160133,31.978069 C 22.160133,31.978069 26.997745,27.140456 26.997745,27.140456 C 18.528582,18.264221 13.291696,25.230495 11.500037,31.436501 z"
             style="fill:#404040;"/>
          </a>
         </g>
        </svg>
</svg>
