<?xml version="1.0" encoding="UTF-8" standalone="no"?>
<!DOCTYPE svg PUBLIC "-//W3C//DTD SVG 1.1//EN"
 "http://www.w3.org/Graphics/SVG/1.1/DTD/svg11.dtd">
<!-- Generated by graphviz version 2.40.1 (20161225.0304)
 -->
<!-- Title: chol_ext::factorize Pages: 1 -->
<svg width="412pt" height="192pt"
 viewBox="0.00 0.00 412.00 191.50" xmlns="http://www.w3.org/2000/svg" xmlns:xlink="http://www.w3.org/1999/xlink">
<g id="graph0" class="graph" transform="scale(1 1) rotate(0) translate(4 187.5)">
<title>chol_ext::factorize</title>
<polygon fill="#ffffff" stroke="transparent" points="-4,4 -4,-187.5 408,-187.5 408,4 -4,4"/>
<!-- Node22 -->
<g id="node1" class="node">
<title>Node22</title>
<polygon fill="#bfbfbf" stroke="#000000" points="0,-95.5 0,-114.5 97,-114.5 97,-95.5 0,-95.5"/>
<text text-anchor="middle" x="48.5" y="-102.5" font-family="Helvetica,sans-Serif" font-size="10.00" fill="#000000">chol_ext::factorize</text>
</g>
<!-- Node23 -->
<g id="node2" class="node">
<title>Node23</title>
<g id="a_node2"><a xlink:href="classlmi__old__oracle.html#a505d905c270e88faf78ee85158aebb93" target="_top" xlink:title="lmi_old_oracle::operator()">
<polygon fill="#ffffff" stroke="#000000" points="133,-136.5 133,-155.5 259,-155.5 259,-136.5 133,-136.5"/>
<text text-anchor="middle" x="196" y="-143.5" font-family="Helvetica,sans-Serif" font-size="10.00" fill="#000000">lmi_old_oracle::operator()</text>
</a>
</g>
</g>
<!-- Node22&#45;&gt;Node23 -->
<g id="edge1" class="edge">
<title>Node22&#45;&gt;Node23</title>
<path fill="none" stroke="#191970" d="M92.5451,-117.2431C114.6865,-123.3976 141.1166,-130.7443 161.7201,-136.4714"/>
<polygon fill="#191970" stroke="#191970" points="93.2823,-113.8153 82.7102,-114.5093 91.4076,-120.5596 93.2823,-113.8153"/>
</g>
<!-- Node25 -->
<g id="node4" class="node">
<title>Node25</title>
<g id="a_node4"><a xlink:href="chol__test_8cpp.html#a0f0b8279e95acc7cdb1d810bc3d368e0" target="_top" xlink:title="TEST_CASE">
<polygon fill="#ffffff" stroke="#000000" points="158.5,-76.5 158.5,-95.5 233.5,-95.5 233.5,-76.5 158.5,-76.5"/>
<text text-anchor="middle" x="196" y="-83.5" font-family="Helvetica,sans-Serif" font-size="10.00" fill="#000000">TEST_CASE</text>
</a>
</g>
</g>
<!-- Node22&#45;&gt;Node25 -->
<g id="edge3" class="edge">
<title>Node22&#45;&gt;Node25</title>
<path fill="none" stroke="#191970" d="M107.1439,-97.4459C124.2968,-95.2363 142.5888,-92.8801 158.0899,-90.8833"/>
<polygon fill="#191970" stroke="#191970" points="106.6767,-93.977 97.2058,-98.726 107.571,-100.9197 106.6767,-93.977"/>
</g>
<!-- Node24 -->
<g id="node3" class="node">
<title>Node24</title>
<g id="a_node3"><a xlink:href="classlmi__old__oracle.html#a12e514ccdcab9066788323fd74b82bcd" target="_top" xlink:title="Construct a new lmi oracle object. ">
<polygon fill="#ffffff" stroke="#000000" points="300.5,-153 300.5,-183 398.5,-183 398.5,-153 300.5,-153"/>
<text text-anchor="start" x="308.5" y="-171" font-family="Helvetica,sans-Serif" font-size="10.00" fill="#000000">lmi_old_oracle::lmi</text>
<text text-anchor="middle" x="349.5" y="-160" font-family="Helvetica,sans-Serif" font-size="10.00" fill="#000000">_old_oracle</text>
</a>
</g>
</g>
<!-- Node23&#45;&gt;Node24 -->
<g id="edge2" class="edge">
<title>Node23&#45;&gt;Node24</title>
<path fill="none" stroke="#191970" d="M269.3589,-156.514C279.8833,-158.0224 290.4929,-159.543 300.3941,-160.962"/>
<polygon fill="#191970" stroke="#191970" points="269.716,-153.0295 259.3205,-155.0753 268.7228,-159.9587 269.716,-153.0295"/>
</g>
<!-- Node26 -->
<g id="node5" class="node">
<title>Node26</title>
<g id="a_node5"><a xlink:href="test__optscaling_8cpp.html#a9ebab2ae39247b22f28703cf7d718efc" target="_top" xlink:title="Create a test case1 object. ">
<polygon fill="#ffffff" stroke="#000000" points="301,-114.5 301,-133.5 398,-133.5 398,-114.5 301,-114.5"/>
<text text-anchor="middle" x="349.5" y="-121.5" font-family="Helvetica,sans-Serif" font-size="10.00" fill="#000000">create_test_case1</text>
</a>
</g>
</g>
<!-- Node25&#45;&gt;Node26 -->
<g id="edge4" class="edge">
<title>Node25&#45;&gt;Node26</title>
<path fill="none" stroke="#191970" d="M243.5401,-97.7689C265.2159,-103.1349 290.5453,-109.4054 311.003,-114.4698"/>
<polygon fill="#191970" stroke="#191970" points="244.0984,-94.3015 233.5503,-95.2958 242.4162,-101.0964 244.0984,-94.3015"/>
</g>
<!-- Node27 -->
<g id="node6" class="node">
<title>Node27</title>
<g id="a_node6"><a xlink:href="test__neg__cycle__boost_8cpp.html#a808903127bc0389d57ec9b6792c22393" target="_top" xlink:title="do_case">
<polygon fill="#ffffff" stroke="#000000" points="323,-76.5 323,-95.5 376,-95.5 376,-76.5 323,-76.5"/>
<text text-anchor="middle" x="349.5" y="-83.5" font-family="Helvetica,sans-Serif" font-size="10.00" fill="#000000">do_case</text>
</a>
</g>
</g>
<!-- Node25&#45;&gt;Node27 -->
<g id="edge5" class="edge">
<title>Node25&#45;&gt;Node27</title>
<path fill="none" stroke="#191970" d="M243.6345,-86C269.7449,-86 301.1335,-86 322.9212,-86"/>
<polygon fill="#191970" stroke="#191970" points="243.5504,-82.5001 233.5503,-86 243.5503,-89.5001 243.5504,-82.5001"/>
</g>
<!-- Node28 -->
<g id="node7" class="node">
<title>Node28</title>
<g id="a_node7"><a xlink:href="classmy__oracle.html#a214b3f99b9693f2a1694210992daf417" target="_top" xlink:title="my_oracle::operator()">
<polygon fill="#ffffff" stroke="#000000" points="295,-38.5 295,-57.5 404,-57.5 404,-38.5 295,-38.5"/>
<text text-anchor="middle" x="349.5" y="-45.5" font-family="Helvetica,sans-Serif" font-size="10.00" fill="#000000">my_oracle::operator()</text>
</a>
</g>
</g>
<!-- Node25&#45;&gt;Node28 -->
<g id="edge6" class="edge">
<title>Node25&#45;&gt;Node28</title>
<path fill="none" stroke="#191970" d="M243.5401,-74.2311C265.2159,-68.8651 290.5453,-62.5946 311.003,-57.5302"/>
<polygon fill="#191970" stroke="#191970" points="242.4162,-70.9036 233.5503,-76.7042 244.0984,-77.6985 242.4162,-70.9036"/>
</g>
<!-- Node29 -->
<g id="node8" class="node">
<title>Node29</title>
<g id="a_node8"><a xlink:href="lowpass_8cpp.html#aacf796546f8ce699db57b9e74a3e1e69" target="_top" xlink:title="run_lowpass">
<polygon fill="#ffffff" stroke="#000000" points="314,-.5 314,-19.5 385,-19.5 385,-.5 314,-.5"/>
<text text-anchor="middle" x="349.5" y="-7.5" font-family="Helvetica,sans-Serif" font-size="10.00" fill="#000000">run_lowpass</text>
</a>
</g>
</g>
<!-- Node25&#45;&gt;Node29 -->
<g id="edge7" class="edge">
<title>Node25&#45;&gt;Node29</title>
<path fill="none" stroke="#191970" d="M219.2058,-70.9779C238.8619,-58.6637 268.0634,-41.3187 295,-29 302.5635,-25.5411 310.9514,-22.3278 318.8342,-19.5645"/>
<polygon fill="#191970" stroke="#191970" points="217.2061,-68.1015 210.6321,-76.4101 220.9526,-74.0146 217.2061,-68.1015"/>
</g>
</g>
</svg>
