<?xml version="1.0" encoding="UTF-8" standalone="no"?>
<!DOCTYPE svg PUBLIC "-//W3C//DTD SVG 1.1//EN"
 "http://www.w3.org/Graphics/SVG/1.1/DTD/svg11.dtd">
<!-- Generated by graphviz version 2.40.1 (20161225.0304)
 -->
<!-- Title: negCycleFinder::__cycle_list Pages: 1 -->
<svg width="464pt" height="50pt"
 viewBox="0.00 0.00 464.00 50.00" xmlns="http://www.w3.org/2000/svg" xmlns:xlink="http://www.w3.org/1999/xlink">
<g id="graph0" class="graph" transform="scale(1 1) rotate(0) translate(4 46)">
<title>negCycleFinder::__cycle_list</title>
<polygon fill="#ffffff" stroke="transparent" points="-4,4 -4,-46 460,-46 460,4 -4,4"/>
<!-- Node3 -->
<g id="node1" class="node">
<title>Node3</title>
<polygon fill="#bfbfbf" stroke="#000000" points="0,-11.5 0,-30.5 143,-30.5 143,-11.5 0,-11.5"/>
<text text-anchor="middle" x="71.5" y="-18.5" font-family="Helvetica,sans-Serif" font-size="10.00" fill="#000000">negCycleFinder::__cycle_list</text>
</g>
<!-- Node4 -->
<g id="node2" class="node">
<title>Node4</title>
<g id="a_node2"><a xlink:href="classnegCycleFinder.html#af44d38c44ea0b52d3596d21abb52e3ae" target="_top" xlink:title="find negative cycle ">
<polygon fill="#ffffff" stroke="#000000" points="179,-6 179,-36 286,-36 286,-6 179,-6"/>
<text text-anchor="start" x="187" y="-24" font-family="Helvetica,sans-Serif" font-size="10.00" fill="#000000">negCycleFinder::find</text>
<text text-anchor="middle" x="232.5" y="-13" font-family="Helvetica,sans-Serif" font-size="10.00" fill="#000000">_neg_cycle</text>
</a>
</g>
</g>
<!-- Node3&#45;&gt;Node4 -->
<g id="edge1" class="edge">
<title>Node3&#45;&gt;Node4</title>
<path fill="none" stroke="#191970" d="M153.156,-21C161.7741,-21 170.3746,-21 178.5622,-21"/>
<polygon fill="#191970" stroke="#191970" points="153.0546,-17.5001 143.0545,-21 153.0545,-24.5001 153.0546,-17.5001"/>
</g>
<!-- Node5 -->
<g id="node3" class="node">
<title>Node5</title>
<g id="a_node3"><a xlink:href="classnetwork__oracle.html#a1319d059146c0528570d1cc71ec7b79d" target="_top" xlink:title="Make object callable for cutting_plane_feas() ">
<polygon fill="#ffffff" stroke="#000000" points="322,-.5 322,-41.5 456,-41.5 456,-.5 322,-.5"/>
<text text-anchor="start" x="330" y="-29.5" font-family="Helvetica,sans-Serif" font-size="10.00" fill="#000000">network_oracle&lt; Graph,</text>
<text text-anchor="start" x="330" y="-18.5" font-family="Helvetica,sans-Serif" font-size="10.00" fill="#000000"> Container, optscaling</text>
<text text-anchor="middle" x="389" y="-7.5" font-family="Helvetica,sans-Serif" font-size="10.00" fill="#000000">_oracle::Ratio &gt;::operator()</text>
</a>
</g>
</g>
<!-- Node4&#45;&gt;Node5 -->
<g id="edge2" class="edge">
<title>Node4&#45;&gt;Node5</title>
<path fill="none" stroke="#191970" d="M296.4152,-21C304.7738,-21 313.3584,-21 321.7696,-21"/>
<polygon fill="#191970" stroke="#191970" points="296.3585,-17.5001 286.3584,-21 296.3584,-24.5001 296.3585,-17.5001"/>
</g>
</g>
</svg>
