<?xml version="1.0" encoding="UTF-8" standalone="no"?>
<!DOCTYPE svg PUBLIC "-//W3C//DTD SVG 1.1//EN"
 "http://www.w3.org/Graphics/SVG/1.1/DTD/svg11.dtd">
<!-- Generated by graphviz version 2.40.1 (20161225.0304)
 -->
<!-- Title: lib/include/xnetwork/classes/coreviews.hpp Pages: 1 -->
<svg width="159pt" height="173pt"
 viewBox="0.00 0.00 159.00 173.00" xmlns="http://www.w3.org/2000/svg" xmlns:xlink="http://www.w3.org/1999/xlink">
<g id="graph0" class="graph" transform="scale(1 1) rotate(0) translate(4 169)">
<title>lib/include/xnetwork/classes/coreviews.hpp</title>
<polygon fill="#ffffff" stroke="transparent" points="-4,4 -4,-169 155,-169 155,4 -4,4"/>
<!-- Node1 -->
<g id="node1" class="node">
<title>Node1</title>
<polygon fill="#bfbfbf" stroke="#000000" points="0,-134.5 0,-164.5 119,-164.5 119,-134.5 0,-134.5"/>
<text text-anchor="start" x="8" y="-152.5" font-family="Helvetica,sans-Serif" font-size="10.00" fill="#000000">lib/include/xnetwork</text>
<text text-anchor="middle" x="59.5" y="-141.5" font-family="Helvetica,sans-Serif" font-size="10.00" fill="#000000">/classes/coreviews.hpp</text>
</g>
<!-- Node2 -->
<g id="node2" class="node">
<title>Node2</title>
<g id="a_node2"><a xlink:href="digraphs_8hpp.html" target="_top" xlink:title="lib/include/xnetwork\l/classes/digraphs.hpp">
<polygon fill="#ffffff" stroke="#000000" points="3.5,-.5 3.5,-30.5 115.5,-30.5 115.5,-.5 3.5,-.5"/>
<text text-anchor="start" x="11.5" y="-18.5" font-family="Helvetica,sans-Serif" font-size="10.00" fill="#000000">lib/include/xnetwork</text>
<text text-anchor="middle" x="59.5" y="-7.5" font-family="Helvetica,sans-Serif" font-size="10.00" fill="#000000">/classes/digraphs.hpp</text>
</a>
</g>
</g>
<!-- Node1&#45;&gt;Node2 -->
<g id="edge1" class="edge">
<title>Node1&#45;&gt;Node2</title>
<path fill="none" stroke="#191970" d="M47.269,-125.0361C43.7044,-116.6746 40.2891,-107.126 38.5,-98 35.8494,-84.4796 35.8494,-80.5204 38.5,-67 40.9892,-54.303 46.6262,-40.7879 51.4337,-30.7899"/>
<polygon fill="#191970" stroke="#191970" points="44.113,-126.5513 51.4337,-134.2101 50.487,-123.6577 44.113,-126.5513"/>
</g>
<!-- Node3 -->
<g id="node3" class="node">
<title>Node3</title>
<g id="a_node3"><a xlink:href="graph_8hpp.html" target="_top" xlink:title="lib/include/xnetwork\l/classes/graph.hpp">
<polygon fill="#ffffff" stroke="#000000" points="48,-67.5 48,-97.5 151,-97.5 151,-67.5 48,-67.5"/>
<text text-anchor="start" x="56" y="-85.5" font-family="Helvetica,sans-Serif" font-size="10.00" fill="#000000">lib/include/xnetwork</text>
<text text-anchor="middle" x="99.5" y="-74.5" font-family="Helvetica,sans-Serif" font-size="10.00" fill="#000000">/classes/graph.hpp</text>
</a>
</g>
</g>
<!-- Node1&#45;&gt;Node3 -->
<g id="edge2" class="edge">
<title>Node1&#45;&gt;Node3</title>
<path fill="none" stroke="#191970" d="M73.8381,-125.4837C79.3808,-116.1996 85.5558,-105.8565 90.4593,-97.6432"/>
<polygon fill="#191970" stroke="#191970" points="70.6976,-123.9163 68.5766,-134.2967 76.7079,-127.5046 70.6976,-123.9163"/>
</g>
<!-- Node3&#45;&gt;Node2 -->
<g id="edge3" class="edge">
<title>Node3&#45;&gt;Node2</title>
<path fill="none" stroke="#191970" d="M85.1619,-58.4837C79.6192,-49.1996 73.4442,-38.8565 68.5407,-30.6432"/>
<polygon fill="#191970" stroke="#191970" points="82.2921,-60.5046 90.4234,-67.2967 88.3024,-56.9163 82.2921,-60.5046"/>
</g>
</g>
</svg>
