<?xml version="1.0" encoding="UTF-8" standalone="no"?>
<!DOCTYPE svg PUBLIC "-//W3C//DTD SVG 1.1//EN"
 "http://www.w3.org/Graphics/SVG/1.1/DTD/svg11.dtd">
<!-- Generated by graphviz version 2.40.1 (20161225.0304)
 -->
<!-- Title: lib/test/src/corr_fn_ell.cpp Pages: 1 -->
<svg width="216pt" height="95pt"
 viewBox="0.00 0.00 216.00 95.00" xmlns="http://www.w3.org/2000/svg" xmlns:xlink="http://www.w3.org/1999/xlink">
<g id="graph0" class="graph" transform="scale(1 1) rotate(0) translate(4 91)">
<title>lib/test/src/corr_fn_ell.cpp</title>
<polygon fill="#ffffff" stroke="transparent" points="-4,4 -4,-91 212,-91 212,4 -4,4"/>
<!-- Node0 -->
<g id="node1" class="node">
<title>Node0</title>
<polygon fill="#bfbfbf" stroke="#000000" points="54.5,-56.5 54.5,-86.5 149.5,-86.5 149.5,-56.5 54.5,-56.5"/>
<text text-anchor="start" x="62.5" y="-74.5" font-family="Helvetica,sans-Serif" font-size="10.00" fill="#000000">lib/test/src/corr_fn</text>
<text text-anchor="middle" x="102" y="-63.5" font-family="Helvetica,sans-Serif" font-size="10.00" fill="#000000">_ell.cpp</text>
</g>
<!-- Node1 -->
<g id="node2" class="node">
<title>Node1</title>
<polygon fill="#ffffff" stroke="#bfbfbf" points="0,-.5 0,-19.5 92,-19.5 92,-.5 0,-.5"/>
<text text-anchor="middle" x="46" y="-7.5" font-family="Helvetica,sans-Serif" font-size="10.00" fill="#000000">catch2/catch.hpp</text>
</g>
<!-- Node0&#45;&gt;Node1 -->
<g id="edge1" class="edge">
<title>Node0&#45;&gt;Node1</title>
<path fill="none" stroke="#191970" d="M88.1573,-56.2977C80.141,-47.4941 70.0238,-36.3833 61.71,-27.2529"/>
<polygon fill="#191970" stroke="#191970" points="64.2869,-24.8845 54.9663,-19.8469 59.1112,-29.5974 64.2869,-24.8845"/>
</g>
<!-- Node2 -->
<g id="node3" class="node">
<title>Node2</title>
<polygon fill="#ffffff" stroke="#bfbfbf" points="110,-.5 110,-19.5 208,-19.5 208,-.5 110,-.5"/>
<text text-anchor="middle" x="159" y="-7.5" font-family="Helvetica,sans-Serif" font-size="10.00" fill="#000000">xtensor/xarray.hpp</text>
</g>
<!-- Node0&#45;&gt;Node2 -->
<g id="edge2" class="edge">
<title>Node0&#45;&gt;Node2</title>
<path fill="none" stroke="#191970" d="M116.0899,-56.2977C124.2493,-47.4941 134.5472,-36.3833 143.0095,-27.2529"/>
<polygon fill="#191970" stroke="#191970" points="145.6429,-29.5604 149.8736,-19.8469 140.5089,-24.8021 145.6429,-29.5604"/>
</g>
</g>
</svg>
