<?xml version="1.0" encoding="UTF-8" standalone="no"?>
<!DOCTYPE svg PUBLIC "-//W3C//DTD SVG 1.1//EN"
 "http://www.w3.org/Graphics/SVG/1.1/DTD/svg11.dtd">
<!-- Generated by graphviz version 2.40.1 (20161225.0304)
 -->
<!-- Title: TEST_CASE Pages: 1 -->
<svg width="414pt" height="104pt"
 viewBox="0.00 0.00 414.00 104.00" xmlns="http://www.w3.org/2000/svg" xmlns:xlink="http://www.w3.org/1999/xlink">
<g id="graph0" class="graph" transform="scale(1 1) rotate(0) translate(4 100)">
<title>TEST_CASE</title>
<polygon fill="#ffffff" stroke="transparent" points="-4,4 -4,-100 410,-100 410,4 -4,4"/>
<!-- Node35 -->
<g id="node1" class="node">
<title>Node35</title>
<polygon fill="#bfbfbf" stroke="#000000" points="0,-38.5 0,-57.5 75,-57.5 75,-38.5 0,-38.5"/>
<text text-anchor="middle" x="37.5" y="-45.5" font-family="Helvetica,sans-Serif" font-size="10.00" fill="#000000">TEST_CASE</text>
</g>
<!-- Node36 -->
<g id="node2" class="node">
<title>Node36</title>
<g id="a_node2"><a xlink:href="lowpass_8cpp.html#ae14026c2108d6f1ac1b5f2762b0a9fd3" target="_top" xlink:title="CHECK">
<polygon fill="#ffffff" stroke="#000000" points="135,-76.5 135,-95.5 188,-95.5 188,-76.5 135,-76.5"/>
<text text-anchor="middle" x="161.5" y="-83.5" font-family="Helvetica,sans-Serif" font-size="10.00" fill="#000000">CHECK</text>
</a>
</g>
</g>
<!-- Node35&#45;&gt;Node36 -->
<g id="edge1" class="edge">
<title>Node35&#45;&gt;Node36</title>
<path fill="none" stroke="#191970" d="M68.7904,-57.589C85.903,-62.8332 107.1913,-69.357 125.0511,-74.8302"/>
<polygon fill="#191970" stroke="#191970" points="124.2551,-78.2468 134.8418,-77.8305 126.3062,-71.5541 124.2551,-78.2468"/>
</g>
<!-- Node37 -->
<g id="node3" class="node">
<title>Node37</title>
<g id="a_node3"><a xlink:href="corr__fn__ell_8cpp.html#a911f1f904bd9749bdbe6451b3696c749" target="_top" xlink:title="Create a 2d isotropic object. ">
<polygon fill="#ffffff" stroke="#000000" points="111,-38.5 111,-57.5 212,-57.5 212,-38.5 111,-38.5"/>
<text text-anchor="middle" x="161.5" y="-45.5" font-family="Helvetica,sans-Serif" font-size="10.00" fill="#000000">create_2d_isotropic</text>
</a>
</g>
</g>
<!-- Node35&#45;&gt;Node37 -->
<g id="edge2" class="edge">
<title>Node35&#45;&gt;Node37</title>
<path fill="none" stroke="#191970" d="M75.0406,-48C83.1356,-48 91.893,-48 100.6209,-48"/>
<polygon fill="#191970" stroke="#191970" points="100.8116,-51.5001 110.8115,-48 100.8115,-44.5001 100.8116,-51.5001"/>
</g>
<!-- Node41 -->
<g id="node7" class="node">
<title>Node41</title>
<g id="a_node7"><a xlink:href="corr__fn__ell_8cpp.html#a72a157b91a311164324a730fda73a2e9" target="_top" xlink:title="Create a 2d sites object. ">
<polygon fill="#ffffff" stroke="#000000" points="118.5,-.5 118.5,-19.5 204.5,-19.5 204.5,-.5 118.5,-.5"/>
<text text-anchor="middle" x="161.5" y="-7.5" font-family="Helvetica,sans-Serif" font-size="10.00" fill="#000000">create_2d_sites</text>
</a>
</g>
</g>
<!-- Node35&#45;&gt;Node41 -->
<g id="edge6" class="edge">
<title>Node35&#45;&gt;Node41</title>
<path fill="none" stroke="#191970" d="M68.7904,-38.411C84.5039,-33.5956 103.7383,-27.7012 120.6061,-22.532"/>
<polygon fill="#191970" stroke="#191970" points="121.684,-25.8624 130.2196,-19.5859 119.6329,-19.1696 121.684,-25.8624"/>
</g>
<!-- Node38 -->
<g id="node4" class="node">
<title>Node38</title>
<g id="a_node4"><a xlink:href="monomial_8hpp.html#aac228420ac44c1280baec6bfd23e034c" target="_top" xlink:title="Square root. ">
<polygon fill="#ffffff" stroke="#000000" points="252,-57.5 252,-76.5 285,-76.5 285,-57.5 252,-57.5"/>
<text text-anchor="middle" x="268.5" y="-64.5" font-family="Helvetica,sans-Serif" font-size="10.00" fill="#000000">sqrt</text>
</a>
</g>
</g>
<!-- Node37&#45;&gt;Node38 -->
<g id="edge3" class="edge">
<title>Node37&#45;&gt;Node38</title>
<path fill="none" stroke="#191970" d="M212.1799,-56.9992C222.4294,-58.8192 232.8174,-60.6638 241.8334,-62.2648"/>
<polygon fill="#191970" stroke="#191970" points="241.2387,-65.7139 251.6967,-64.0162 242.4627,-58.8217 241.2387,-65.7139"/>
</g>
<!-- Node40 -->
<g id="node6" class="node">
<title>Node40</title>
<g id="a_node6"><a xlink:href="utility_8hpp.html#ae3041aeb9cef3e9f4416c91d3d43f86a" target="_top" xlink:title="zeros">
<polygon fill="#ffffff" stroke="#000000" points="248,-19.5 248,-38.5 289,-38.5 289,-19.5 248,-19.5"/>
<text text-anchor="middle" x="268.5" y="-26.5" font-family="Helvetica,sans-Serif" font-size="10.00" fill="#000000">zeros</text>
</a>
</g>
</g>
<!-- Node37&#45;&gt;Node40 -->
<g id="edge5" class="edge">
<title>Node37&#45;&gt;Node40</title>
<path fill="none" stroke="#191970" d="M212.1799,-39.0008C220.9684,-37.4402 229.8588,-35.8615 237.8987,-34.4339"/>
<polygon fill="#191970" stroke="#191970" points="238.664,-37.8528 247.898,-32.6583 237.4401,-30.9606 238.664,-37.8528"/>
</g>
<!-- Node39 -->
<g id="node5" class="node">
<title>Node39</title>
<g id="a_node5"><a xlink:href="classmonomial.html#ac34f9253980541a1050dc2301af35126" target="_top" xlink:title="Square root. ">
<polygon fill="#ffffff" stroke="#000000" points="325,-57.5 325,-76.5 406,-76.5 406,-57.5 325,-57.5"/>
<text text-anchor="middle" x="365.5" y="-64.5" font-family="Helvetica,sans-Serif" font-size="10.00" fill="#000000">monomial::sqrt</text>
</a>
</g>
</g>
<!-- Node38&#45;&gt;Node39 -->
<g id="edge4" class="edge">
<title>Node38&#45;&gt;Node39</title>
<path fill="none" stroke="#191970" d="M285.3961,-67C293.6229,-67 303.9984,-67 314.5296,-67"/>
<polygon fill="#191970" stroke="#191970" points="314.6093,-70.5001 324.6093,-67 314.6092,-63.5001 314.6093,-70.5001"/>
</g>
</g>
</svg>
