<?xml version="1.0" encoding="UTF-8" standalone="no"?>
<!DOCTYPE svg PUBLIC "-//W3C//DTD SVG 1.1//EN"
 "http://www.w3.org/Graphics/SVG/1.1/DTD/svg11.dtd">
<!-- Generated by graphviz version 2.40.1 (20161225.0304)
 -->
<!-- Title: lib/test/src/corr_fn_ell.cpp Pages: 1 -->
<svg width="184pt" height="95pt"
 viewBox="0.00 0.00 183.50 95.00" xmlns="http://www.w3.org/2000/svg" xmlns:xlink="http://www.w3.org/1999/xlink">
<g id="graph0" class="graph" transform="scale(1 1) rotate(0) translate(4 91)">
<title>lib/test/src/corr_fn_ell.cpp</title>
<polygon fill="#ffffff" stroke="transparent" points="-4,4 -4,-91 179.5,-91 179.5,4 -4,4"/>
<!-- Node0 -->
<g id="node1" class="node">
<title>Node0</title>
<polygon fill="#bfbfbf" stroke="#000000" points="30,-56.5 30,-86.5 125,-86.5 125,-56.5 30,-56.5"/>
<text text-anchor="start" x="38" y="-74.5" font-family="Helvetica,sans-Serif" font-size="10.00" fill="#000000">lib/test/src/corr_fn</text>
<text text-anchor="middle" x="77.5" y="-63.5" font-family="Helvetica,sans-Serif" font-size="10.00" fill="#000000">_ell.cpp</text>
</g>
<!-- Node1 -->
<g id="node2" class="node">
<title>Node1</title>
<polygon fill="#ffffff" stroke="#bfbfbf" points="0,-.5 0,-19.5 59,-19.5 59,-.5 0,-.5"/>
<text text-anchor="middle" x="29.5" y="-7.5" font-family="Helvetica,sans-Serif" font-size="10.00" fill="#000000">catch.hpp</text>
</g>
<!-- Node0&#45;&gt;Node1 -->
<g id="edge1" class="edge">
<title>Node0&#45;&gt;Node1</title>
<path fill="none" stroke="#191970" d="M65.6348,-56.2977C58.9025,-47.672 50.4415,-36.8312 43.3994,-27.8087"/>
<polygon fill="#191970" stroke="#191970" points="46.0973,-25.5766 37.1854,-19.8469 40.579,-29.8836 46.0973,-25.5766"/>
</g>
<!-- Node2 -->
<g id="node3" class="node">
<title>Node2</title>
<polygon fill="#ffffff" stroke="#bfbfbf" points="77.5,-.5 77.5,-19.5 175.5,-19.5 175.5,-.5 77.5,-.5"/>
<text text-anchor="middle" x="126.5" y="-7.5" font-family="Helvetica,sans-Serif" font-size="10.00" fill="#000000">xtensor/xarray.hpp</text>
</g>
<!-- Node0&#45;&gt;Node2 -->
<g id="edge2" class="edge">
<title>Node0&#45;&gt;Node2</title>
<path fill="none" stroke="#191970" d="M89.6124,-56.2977C96.4849,-47.672 105.1223,-36.8312 112.311,-27.8087"/>
<polygon fill="#191970" stroke="#191970" points="115.1604,-29.849 118.6545,-19.8469 109.6856,-25.487 115.1604,-29.849"/>
</g>
</g>
</svg>
