<?xml version="1.0" encoding="UTF-8" standalone="no"?>
<!DOCTYPE svg PUBLIC "-//W3C//DTD SVG 1.1//EN"
 "http://www.w3.org/Graphics/SVG/1.1/DTD/svg11.dtd">
<!-- Generated by graphviz version 2.40.1 (20161225.0304)
 -->
<!-- Title: cutting_plane_dc Pages: 1 -->
<!--zoomable 256 -->
<svg id="main" version="1.1" xmlns="http://www.w3.org/2000/svg" xmlns:xlink="http://www.w3.org/1999/xlink" xml:space="preserve" onload="init(evt)">
<style type="text/css"><![CDATA[
.edge:hover path { stroke: red; }
.edge:hover polygon { stroke: red; fill: red; }
]]></style>
<script type="text/javascript"><![CDATA[
var edges = document.getElementsByTagName('g');
if (edges && edges.length) {
  for (var i=0;i<edges.length;i++) {
    if (edges[i].id.substr(0,4)=='edge') {
      edges[i].setAttribute('class','edge');
    }
  }
}
]]></script>
        <defs>
                <circle id="rim" cx="0" cy="0" r="7"/>
                <circle id="rim2" cx="0" cy="0" r="3.5"/>
                <g id="zoomPlus">
                        <use xlink:href="#rim" fill="#404040">
                                <set attributeName="fill" to="#808080" begin="zoomplus.mouseover" end="zoomplus.mouseout"/>
                        </use>
                        <path d="M-4,0h8M0,-4v8" fill="none" stroke="white" stroke-width="1.5" pointer-events="none"/>
                </g>
                <g id="zoomMin">
                        <use xlink:href="#rim" fill="#404040">
                                <set attributeName="fill" to="#808080" begin="zoomminus.mouseover" end="zoomminus.mouseout"/>
                        </use>
                        <path d="M-4,0h8" fill="none" stroke="white" stroke-width="1.5" pointer-events="none"/>
                </g>
                <g id="dirArrow">
                        <path fill="none" stroke="white" stroke-width="1.5" d="M0,-3.0v7 M-2.5,-0.5L0,-3.0L2.5,-0.5"/>
                </g>
               <g id="resetDef">
                       <use xlink:href="#rim2" fill="#404040">
                               <set attributeName="fill" to="#808080" begin="reset.mouseover" end="reset.mouseout"/>
                       </use>
               </g>
        </defs>

<script type="text/javascript">
var viewWidth = 560;
var viewHeight = 256;
var sectionId = 'dynsection-3';
</script>
<script xlink:href="svgpan.js"/>
<svg id="graph" class="graph">
<g id="viewport">
<title>cutting_plane_dc</title>
<polygon fill="#ffffff" stroke="transparent" points="-4,4 -4,-252 556,-252 556,4 -4,4"/>
<!-- Node4 -->
<g id="node1" class="node">
<title>Node4</title>
<polygon fill="#bfbfbf" stroke="#000000" points="0,-114.5 0,-133.5 90,-133.5 90,-114.5 0,-114.5"/>
<text text-anchor="middle" x="45" y="-121.5" font-family="Helvetica,sans-Serif" font-size="10.00" fill="#000000">cutting_plane_dc</text>
</g>
<!-- Node5 -->
<g id="node2" class="node">
<title>Node5</title>
<g id="a_node2"><a xlink:href="BM__lmi_8cpp.html#ae5d1add19ca95dbea08bcf94f78b6e0f" target="_top" xlink:title="BM_LMI_Lazy">
<polygon fill="#ffffff" stroke="#000000" points="135,-228.5 135,-247.5 215,-247.5 215,-228.5 135,-228.5"/>
<text text-anchor="middle" x="175" y="-235.5" font-family="Helvetica,sans-Serif" font-size="10.00" fill="#000000">BM_LMI_Lazy</text>
</a>
</g>
</g>
<!-- Node4&#45;&gt;Node5 -->
<g id="edge1" class="edge">
<title>Node4&#45;&gt;Node5</title>
<path fill="none" stroke="#191970" d="M56.5492,-142.3988C70.6317,-163.4998 96.2668,-197.8923 126,-219 131.2824,-222.75 137.4037,-225.8814 143.4924,-228.4488"/>
<polygon fill="#191970" stroke="#191970" points="59.3024,-140.2123 50.9186,-133.7345 53.433,-144.0267 59.3024,-140.2123"/>
</g>
<!-- Node6 -->
<g id="node3" class="node">
<title>Node6</title>
<g id="a_node3"><a xlink:href="BM__lmi_8cpp.html#ad63efd4e573f7483f9f1ccd40c3d34ed" target="_top" xlink:title="BM_LMI_No_Trick">
<polygon fill="#ffffff" stroke="#000000" points="126,-190.5 126,-209.5 224,-209.5 224,-190.5 126,-190.5"/>
<text text-anchor="middle" x="175" y="-197.5" font-family="Helvetica,sans-Serif" font-size="10.00" fill="#000000">BM_LMI_No_Trick</text>
</a>
</g>
</g>
<!-- Node4&#45;&gt;Node6 -->
<g id="edge2" class="edge">
<title>Node4&#45;&gt;Node6</title>
<path fill="none" stroke="#191970" d="M64.7643,-139.9724C80.6438,-152.2843 103.872,-169.1529 126,-181 132.5959,-184.5314 139.9937,-187.7499 147.003,-190.4936"/>
<polygon fill="#191970" stroke="#191970" points="66.7737,-137.0997 56.7521,-133.662 62.4425,-142.599 66.7737,-137.0997"/>
</g>
<!-- Node7 -->
<g id="node4" class="node">
<title>Node7</title>
<g id="a_node4"><a xlink:href="BM__lmi_8cpp.html#aaadcdae4c6d68f92c6c4a7b47d5c9459" target="_top" xlink:title="Define another benchmark. ">
<polygon fill="#ffffff" stroke="#000000" points="139.5,-152.5 139.5,-171.5 210.5,-171.5 210.5,-152.5 139.5,-152.5"/>
<text text-anchor="middle" x="175" y="-159.5" font-family="Helvetica,sans-Serif" font-size="10.00" fill="#000000">BM_LMI_old</text>
</a>
</g>
</g>
<!-- Node4&#45;&gt;Node7 -->
<g id="edge3" class="edge">
<title>Node4&#45;&gt;Node7</title>
<path fill="none" stroke="#191970" d="M87.8839,-136.5353C105.5689,-141.7048 125.7337,-147.5991 142.206,-152.4141"/>
<polygon fill="#191970" stroke="#191970" points="88.3848,-133.0353 77.8045,-133.589 86.4208,-139.7542 88.3848,-133.0353"/>
</g>
<!-- Node8 -->
<g id="node5" class="node">
<title>Node8</title>
<g id="a_node5"><a xlink:href="lsq__corr__ell_8cpp.html#a233a10890259800812279af696624d11" target="_top" xlink:title="lsq_corr_core2">
<polygon fill="#ffffff" stroke="#000000" points="135,-114.5 135,-133.5 215,-133.5 215,-114.5 135,-114.5"/>
<text text-anchor="middle" x="175" y="-121.5" font-family="Helvetica,sans-Serif" font-size="10.00" fill="#000000">lsq_corr_core2</text>
</a>
</g>
</g>
<!-- Node4&#45;&gt;Node8 -->
<g id="edge4" class="edge">
<title>Node4&#45;&gt;Node8</title>
<path fill="none" stroke="#191970" d="M100.1593,-124C111.7724,-124 123.8144,-124 134.7561,-124"/>
<polygon fill="#191970" stroke="#191970" points="100.1029,-120.5001 90.1029,-124 100.1028,-127.5001 100.1029,-120.5001"/>
</g>
<!-- Node11 -->
<g id="node8" class="node">
<title>Node11</title>
<g id="a_node8"><a xlink:href="lsq__corr__ell_8cpp.html#a0bd28e2ae043fa5d1742c6f65df2de4e" target="_top" xlink:title="mle_corr_core">
<polygon fill="#ffffff" stroke="#000000" points="136,-76.5 136,-95.5 214,-95.5 214,-76.5 136,-76.5"/>
<text text-anchor="middle" x="175" y="-83.5" font-family="Helvetica,sans-Serif" font-size="10.00" fill="#000000">mle_corr_core</text>
</a>
</g>
</g>
<!-- Node4&#45;&gt;Node11 -->
<g id="edge7" class="edge">
<title>Node4&#45;&gt;Node11</title>
<path fill="none" stroke="#191970" d="M87.8839,-111.4647C105.5689,-106.2952 125.7337,-100.4009 142.206,-95.5859"/>
<polygon fill="#191970" stroke="#191970" points="86.4208,-108.2458 77.8045,-114.411 88.3848,-114.9647 86.4208,-108.2458"/>
</g>
<!-- Node14 -->
<g id="node11" class="node">
<title>Node14</title>
<g id="a_node11"><a xlink:href="BM__lowpass_8cpp.html#a53d8f44dcc8f947b0ae418d7c04f3c48" target="_top" xlink:title="run_lowpass">
<polygon fill="#ffffff" stroke="#000000" points="139.5,-38.5 139.5,-57.5 210.5,-57.5 210.5,-38.5 139.5,-38.5"/>
<text text-anchor="middle" x="175" y="-45.5" font-family="Helvetica,sans-Serif" font-size="10.00" fill="#000000">run_lowpass</text>
</a>
</g>
</g>
<!-- Node4&#45;&gt;Node14 -->
<g id="edge10" class="edge">
<title>Node4&#45;&gt;Node14</title>
<path fill="none" stroke="#191970" d="M64.7643,-108.0276C80.6438,-95.7157 103.872,-78.8471 126,-67 132.5959,-63.4686 139.9937,-60.2501 147.003,-57.5064"/>
<polygon fill="#191970" stroke="#191970" points="62.4425,-105.401 56.7521,-114.338 66.7737,-110.9003 62.4425,-105.401"/>
</g>
<!-- Node17 -->
<g id="node14" class="node">
<title>Node17</title>
<g id="a_node14"><a xlink:href="firfilter_8cpp.html#a555f208c3df236f769691ecd8957e693" target="_top" xlink:title="TEST_CASE">
<polygon fill="#ffffff" stroke="#000000" points="137.5,-.5 137.5,-19.5 212.5,-19.5 212.5,-.5 137.5,-.5"/>
<text text-anchor="middle" x="175" y="-7.5" font-family="Helvetica,sans-Serif" font-size="10.00" fill="#000000">TEST_CASE</text>
</a>
</g>
</g>
<!-- Node4&#45;&gt;Node17 -->
<g id="edge14" class="edge">
<title>Node4&#45;&gt;Node17</title>
<path fill="none" stroke="#191970" d="M56.5492,-105.6012C70.6317,-84.5002 96.2668,-50.1077 126,-29 131.2824,-25.25 137.4037,-22.1186 143.4924,-19.5512"/>
<polygon fill="#191970" stroke="#191970" points="53.433,-103.9733 50.9186,-114.2655 59.3024,-107.7877 53.433,-103.9733"/>
</g>
<!-- Node9 -->
<g id="node6" class="node">
<title>Node9</title>
<g id="a_node6"><a xlink:href="corr__fn__ell_8cpp.html#a6ef494bfe01e16b424356fd36008d285" target="_top" xlink:title="lsq_corr_poly2">
<polygon fill="#ffffff" stroke="#000000" points="282.5,-114.5 282.5,-133.5 362.5,-133.5 362.5,-114.5 282.5,-114.5"/>
<text text-anchor="middle" x="322.5" y="-121.5" font-family="Helvetica,sans-Serif" font-size="10.00" fill="#000000">lsq_corr_poly2</text>
</a>
</g>
</g>
<!-- Node8&#45;&gt;Node9 -->
<g id="edge5" class="edge">
<title>Node8&#45;&gt;Node9</title>
<path fill="none" stroke="#191970" d="M225.3989,-124C244.0417,-124 264.9043,-124 282.4993,-124"/>
<polygon fill="#191970" stroke="#191970" points="225.3051,-120.5001 215.305,-124 225.305,-127.5001 225.3051,-120.5001"/>
</g>
<!-- Node10 -->
<g id="node7" class="node">
<title>Node10</title>
<g id="a_node7"><a xlink:href="corr__fn__ell_8cpp.html#a81c9df61833f0dcc6a7cf2412f2872cd" target="_top" xlink:title="TEST_CASE">
<polygon fill="#ffffff" stroke="#000000" points="449,-114.5 449,-133.5 524,-133.5 524,-114.5 449,-114.5"/>
<text text-anchor="middle" x="486.5" y="-121.5" font-family="Helvetica,sans-Serif" font-size="10.00" fill="#000000">TEST_CASE</text>
</a>
</g>
</g>
<!-- Node9&#45;&gt;Node10 -->
<g id="edge6" class="edge">
<title>Node9&#45;&gt;Node10</title>
<path fill="none" stroke="#191970" d="M372.805,-124C397.2824,-124 426.213,-124 448.7649,-124"/>
<polygon fill="#191970" stroke="#191970" points="372.6189,-120.5001 362.6189,-124 372.6189,-127.5001 372.6189,-120.5001"/>
</g>
<!-- Node12 -->
<g id="node9" class="node">
<title>Node12</title>
<g id="a_node9"><a xlink:href="corr__fn__ell_8cpp.html#aa75b309f976ce7c26224ef4e0a5fd374" target="_top" xlink:title="mle_corr_poly">
<polygon fill="#ffffff" stroke="#000000" points="284,-76.5 284,-95.5 361,-95.5 361,-76.5 284,-76.5"/>
<text text-anchor="middle" x="322.5" y="-83.5" font-family="Helvetica,sans-Serif" font-size="10.00" fill="#000000">mle_corr_poly</text>
</a>
</g>
</g>
<!-- Node11&#45;&gt;Node12 -->
<g id="edge8" class="edge">
<title>Node11&#45;&gt;Node12</title>
<path fill="none" stroke="#191970" d="M224.3285,-86C243.7506,-86 265.7199,-86 283.944,-86"/>
<polygon fill="#191970" stroke="#191970" points="224.1401,-82.5001 214.14,-86 224.14,-89.5001 224.1401,-82.5001"/>
</g>
<!-- Node13 -->
<g id="node10" class="node">
<title>Node13</title>
<g id="a_node10"><a xlink:href="corr__fn__ell_8cpp.html#a1b3635c3766472722bdc7bda665a617c" target="_top" xlink:title="TEST_CASE">
<polygon fill="#ffffff" stroke="#000000" points="449,-76.5 449,-95.5 524,-95.5 524,-76.5 449,-76.5"/>
<text text-anchor="middle" x="486.5" y="-83.5" font-family="Helvetica,sans-Serif" font-size="10.00" fill="#000000">TEST_CASE</text>
</a>
</g>
</g>
<!-- Node12&#45;&gt;Node13 -->
<g id="edge9" class="edge">
<title>Node12&#45;&gt;Node13</title>
<path fill="none" stroke="#191970" d="M371.6344,-86C396.3542,-86 425.849,-86 448.7609,-86"/>
<polygon fill="#191970" stroke="#191970" points="371.3657,-82.5001 361.3657,-86 371.3657,-89.5001 371.3657,-82.5001"/>
</g>
<!-- Node15 -->
<g id="node12" class="node">
<title>Node15</title>
<g id="a_node12"><a xlink:href="BM__lowpass_8cpp.html#ac1c45248960aaf30ea0a8347587c9fe9" target="_top" xlink:title="BM_Lowpass_parallel_cut">
<polygon fill="#ffffff" stroke="#000000" points="421,-19.5 421,-38.5 552,-38.5 552,-19.5 421,-19.5"/>
<text text-anchor="middle" x="486.5" y="-26.5" font-family="Helvetica,sans-Serif" font-size="10.00" fill="#000000">BM_Lowpass_parallel_cut</text>
</a>
</g>
</g>
<!-- Node14&#45;&gt;Node15 -->
<g id="edge11" class="edge">
<title>Node14&#45;&gt;Node15</title>
<path fill="none" stroke="#191970" d="M220.8164,-45.2054C273.6174,-41.9848 360.8088,-36.6666 420.8195,-33.0062"/>
<polygon fill="#191970" stroke="#191970" points="220.5013,-41.718 210.733,-45.8205 220.9276,-48.7051 220.5013,-41.718"/>
</g>
<!-- Node16 -->
<g id="node13" class="node">
<title>Node16</title>
<g id="a_node13"><a xlink:href="BM__lowpass_8cpp.html#a1e06b64e99b1bed3dc37e38dfc638987" target="_top" xlink:title="BM_Lowpass_single_cut">
<polygon fill="#ffffff" stroke="#000000" points="260,-.5 260,-19.5 385,-19.5 385,-.5 260,-.5"/>
<text text-anchor="middle" x="322.5" y="-7.5" font-family="Helvetica,sans-Serif" font-size="10.00" fill="#000000">BM_Lowpass_single_cut</text>
</a>
</g>
</g>
<!-- Node14&#45;&gt;Node16 -->
<g id="edge12" class="edge">
<title>Node14&#45;&gt;Node16</title>
<path fill="none" stroke="#191970" d="M220.6294,-36.2446C241.4961,-30.8688 265.8952,-24.5829 285.5828,-19.5109"/>
<polygon fill="#191970" stroke="#191970" points="219.5162,-32.917 210.7056,-38.8013 221.2626,-39.6957 219.5162,-32.917"/>
</g>
<!-- Node16&#45;&gt;Node15 -->
<g id="edge13" class="edge">
<title>Node16&#45;&gt;Node15</title>
<path fill="none" stroke="#191970" d="M395.5745,-18.466C403.9557,-19.4369 412.4628,-20.4225 420.7399,-21.3815"/>
<polygon fill="#191970" stroke="#191970" points="395.774,-14.9657 385.4377,-17.2916 394.9684,-21.9192 395.774,-14.9657"/>
</g>
</g>
</svg>
        <g id="navigator" transform="translate(0 0)" fill="#404254">
                <rect fill="#f2f5e9" fill-opacity="0.5" stroke="#606060" stroke-width=".5" x="0" y="0" width="60" height="60"/>
                <use id="zoomplus" xlink:href="#zoomPlus" x="17" y="9" onmousedown="handleZoom(evt,'in')"/>
                <use id="zoomminus" xlink:href="#zoomMin" x="42" y="9" onmousedown="handleZoom(evt,'out')"/>
                <use id="reset" xlink:href="#resetDef" x="30" y="36" onmousedown="handleReset()"/>
                <g id="arrowUp" xlink:href="#dirArrow" transform="translate(30 24)" onmousedown="handlePan(0,-1)">
                  <use xlink:href="#rim" fill="#404040">
                        <set attributeName="fill" to="#808080" begin="arrowUp.mouseover" end="arrowUp.mouseout"/>
                  </use>
                  <path fill="none" stroke="white" stroke-width="1.5" d="M0,-3.0v7 M-2.5,-0.5L0,-3.0L2.5,-0.5"/>
                </g>
                <g id="arrowRight" xlink:href="#dirArrow" transform="rotate(90) translate(36 -43)" onmousedown="handlePan(1,0)">
                  <use xlink:href="#rim" fill="#404040">
                        <set attributeName="fill" to="#808080" begin="arrowRight.mouseover" end="arrowRight.mouseout"/>
                  </use>
                  <path fill="none" stroke="white" stroke-width="1.5" d="M0,-3.0v7 M-2.5,-0.5L0,-3.0L2.5,-0.5"/>
                </g>
                <g id="arrowDown" xlink:href="#dirArrow" transform="rotate(180) translate(-30 -48)" onmousedown="handlePan(0,1)">
                  <use xlink:href="#rim" fill="#404040">
                        <set attributeName="fill" to="#808080" begin="arrowDown.mouseover" end="arrowDown.mouseout"/>
                  </use>
                  <path fill="none" stroke="white" stroke-width="1.5" d="M0,-3.0v7 M-2.5,-0.5L0,-3.0L2.5,-0.5"/>
                </g>
                <g id="arrowLeft" xlink:href="#dirArrow" transform="rotate(270) translate(-36 17)" onmousedown="handlePan(-1,0)">
                  <use xlink:href="#rim" fill="#404040">
                        <set attributeName="fill" to="#808080" begin="arrowLeft.mouseover" end="arrowLeft.mouseout"/>
                  </use>
                  <path fill="none" stroke="white" stroke-width="1.5" d="M0,-3.0v7 M-2.5,-0.5L0,-3.0L2.5,-0.5"/>
                </g>
        </g>
        <svg viewBox="0 0 15 15" width="100%" height="30px" preserveAspectRatio="xMaxYMin meet">
         <g id="arrow_out" transform="scale(0.3 0.3)">
          <a xlink:href="cutting__plane_8hpp_af4c62406049b0dac9f9f8733fa2ad6af_icgraph_org.svg" target="_base">
           <rect id="button" ry="5" rx="5" y="6" x="6" height="38" width="38"
                fill="#f2f5e9" fill-opacity="0.5" stroke="#606060" stroke-width="1.0"/>
           <path id="arrow"
             d="M 11.500037,31.436501 C 11.940474,20.09759 22.043105,11.32322 32.158766,21.979434 L 37.068811,17.246167 C 37.068811,17.246167 37.088388,32 37.088388,32 L 22.160133,31.978069 C 22.160133,31.978069 26.997745,27.140456 26.997745,27.140456 C 18.528582,18.264221 13.291696,25.230495 11.500037,31.436501 z"
             style="fill:#404040;"/>
          </a>
         </g>
        </svg>
</svg>
