<?xml version="1.0" encoding="UTF-8" standalone="no"?>
<!DOCTYPE svg PUBLIC "-//W3C//DTD SVG 1.1//EN"
 "http://www.w3.org/Graphics/SVG/1.1/DTD/svg11.dtd">
<!-- Generated by graphviz version 2.40.1 (20161225.0304)
 -->
<!-- Title: lib/include/xnetwork/classes/digraphs.hpp Pages: 1 -->
<svg width="408pt" height="106pt"
 viewBox="0.00 0.00 408.00 106.00" xmlns="http://www.w3.org/2000/svg" xmlns:xlink="http://www.w3.org/1999/xlink">
<g id="graph0" class="graph" transform="scale(1 1) rotate(0) translate(4 102)">
<title>lib/include/xnetwork/classes/digraphs.hpp</title>
<polygon fill="#ffffff" stroke="transparent" points="-4,4 -4,-102 404,-102 404,4 -4,4"/>
<!-- Node15 -->
<g id="node1" class="node">
<title>Node15</title>
<polygon fill="#bfbfbf" stroke="#000000" points="124,-67.5 124,-97.5 236,-97.5 236,-67.5 124,-67.5"/>
<text text-anchor="start" x="132" y="-85.5" font-family="Helvetica,sans-Serif" font-size="10.00" fill="#000000">lib/include/xnetwork</text>
<text text-anchor="middle" x="180" y="-74.5" font-family="Helvetica,sans-Serif" font-size="10.00" fill="#000000">/classes/digraphs.hpp</text>
</g>
<!-- Node16 -->
<g id="node2" class="node">
<title>Node16</title>
<g id="a_node2"><a xlink:href="test__cycle__ratio_8cpp.html" target="_top" xlink:title="lib/test/src/test_cycle\l_ratio.cpp">
<polygon fill="#ffffff" stroke="#000000" points="0,-.5 0,-30.5 110,-30.5 110,-.5 0,-.5"/>
<text text-anchor="start" x="8" y="-18.5" font-family="Helvetica,sans-Serif" font-size="10.00" fill="#000000">lib/test/src/test_cycle</text>
<text text-anchor="middle" x="55" y="-7.5" font-family="Helvetica,sans-Serif" font-size="10.00" fill="#000000">_ratio.cpp</text>
</a>
</g>
</g>
<!-- Node15&#45;&gt;Node16 -->
<g id="edge1" class="edge">
<title>Node15&#45;&gt;Node16</title>
<path fill="none" stroke="#191970" d="M142.9387,-62.6352C123.8844,-52.422 101.0265,-40.1702 83.3913,-30.7177"/>
<polygon fill="#191970" stroke="#191970" points="141.4803,-65.8245 151.9476,-67.4639 144.7873,-59.6549 141.4803,-65.8245"/>
</g>
<!-- Node17 -->
<g id="node3" class="node">
<title>Node17</title>
<g id="a_node3"><a xlink:href="test__neg__cycle_8cpp.html" target="_top" xlink:title="lib/test/src/test_neg\l_cycle.cpp">
<polygon fill="#ffffff" stroke="#000000" points="128.5,-.5 128.5,-30.5 231.5,-30.5 231.5,-.5 128.5,-.5"/>
<text text-anchor="start" x="136.5" y="-18.5" font-family="Helvetica,sans-Serif" font-size="10.00" fill="#000000">lib/test/src/test_neg</text>
<text text-anchor="middle" x="180" y="-7.5" font-family="Helvetica,sans-Serif" font-size="10.00" fill="#000000">_cycle.cpp</text>
</a>
</g>
</g>
<!-- Node15&#45;&gt;Node17 -->
<g id="edge2" class="edge">
<title>Node15&#45;&gt;Node17</title>
<path fill="none" stroke="#191970" d="M180,-57.0249C180,-48.128 180,-38.4287 180,-30.6432"/>
<polygon fill="#191970" stroke="#191970" points="176.5001,-57.2966 180,-67.2967 183.5001,-57.2967 176.5001,-57.2966"/>
</g>
<!-- Node18 -->
<g id="node4" class="node">
<title>Node18</title>
<g id="a_node4"><a xlink:href="test__optscaling_8cpp.html" target="_top" xlink:title="lib/test/src/test_optscaling.cpp">
<polygon fill="#ffffff" stroke="#000000" points="250,-6 250,-25 400,-25 400,-6 250,-6"/>
<text text-anchor="middle" x="325" y="-13" font-family="Helvetica,sans-Serif" font-size="10.00" fill="#000000">lib/test/src/test_optscaling.cpp</text>
</a>
</g>
</g>
<!-- Node15&#45;&gt;Node18 -->
<g id="edge3" class="edge">
<title>Node15&#45;&gt;Node18</title>
<path fill="none" stroke="#191970" d="M221.7731,-63.198C248.7881,-50.7152 282.7874,-35.0051 304.2154,-25.1039"/>
<polygon fill="#191970" stroke="#191970" points="220.1505,-60.0921 212.5408,-67.4639 223.0867,-66.4465 220.1505,-60.0921"/>
</g>
</g>
</svg>
