<?xml version="1.0" encoding="UTF-8" standalone="no"?>
<!DOCTYPE svg PUBLIC "-//W3C//DTD SVG 1.1//EN"
 "http://www.w3.org/Graphics/SVG/1.1/DTD/svg11.dtd">
<!-- Generated by graphviz version 2.40.1 (20161225.0304)
 -->
<!-- Title: lib Pages: 1 -->
<svg width="310pt" height="148pt"
 viewBox="0.00 0.00 310.00 148.00" xmlns="http://www.w3.org/2000/svg" xmlns:xlink="http://www.w3.org/1999/xlink">
<g id="graph0" class="graph" transform="scale(1 1) rotate(0) translate(4 144)">
<title>lib</title>
<polygon fill="#ffffff" stroke="transparent" points="-4,4 -4,-144 306,-144 306,4 -4,4"/>
<g id="clust1" class="cluster">
<title>clusterdir_97aefd0d527b934f1d99a682da8fe6a9</title>
<g id="a_clust1"><a xlink:href="dir_97aefd0d527b934f1d99a682da8fe6a9.html" target="_top">
<polygon fill="#eeeeff" stroke="#000000" points="8,-8 8,-132 294,-132 294,-8 8,-8"/>
</a>
</g>
</g>
<!-- dir_97aefd0d527b934f1d99a682da8fe6a9 -->
<g id="node1" class="node">
<title>dir_97aefd0d527b934f1d99a682da8fe6a9</title>
<text text-anchor="middle" x="259" y="-103.5" font-family="Helvetica,sans-Serif" font-size="10.00" fill="#000000">lib</text>
</g>
<!-- dir_e7915b61515a733bf58cda95a91314eb -->
<g id="node2" class="node">
<title>dir_e7915b61515a733bf58cda95a91314eb</title>
<g id="a_node2"><a xlink:href="dir_e7915b61515a733bf58cda95a91314eb.html" target="_top" xlink:title="bench">
<polygon fill="#ffffff" stroke="#000000" points="214,-124 160,-124 160,-88 214,-88 214,-124"/>
<text text-anchor="middle" x="187" y="-103.5" font-family="Helvetica,sans-Serif" font-size="10.00" fill="#000000">bench</text>
</a>
</g>
</g>
<!-- dir_5a30104352ef4255dc24354b02eb2d20 -->
<g id="node3" class="node">
<title>dir_5a30104352ef4255dc24354b02eb2d20</title>
<g id="a_node3"><a xlink:href="dir_5a30104352ef4255dc24354b02eb2d20.html" target="_top" xlink:title="include">
<polygon fill="#ffffff" stroke="#ff0000" points="142,-52 88,-52 88,-16 142,-16 142,-52"/>
<text text-anchor="middle" x="115" y="-31.5" font-family="Helvetica,sans-Serif" font-size="10.00" fill="#000000">include</text>
</a>
</g>
</g>
<!-- dir_e7915b61515a733bf58cda95a91314eb&#45;&gt;dir_5a30104352ef4255dc24354b02eb2d20 -->
<g id="edge2" class="edge">
<title>dir_e7915b61515a733bf58cda95a91314eb&#45;&gt;dir_5a30104352ef4255dc24354b02eb2d20</title>
<path fill="none" stroke="#000000" d="M168.8314,-87.8314C160.2848,-79.2848 149.9443,-68.9443 140.6198,-59.6198"/>
<polygon fill="#000000" stroke="#000000" points="142.9592,-57.0095 133.4133,-52.4133 138.0095,-61.9592 142.9592,-57.0095"/>
<g id="a_edge2&#45;headlabel"><a xlink:href="dir_000001_000002.html" target="_top" xlink:title="8">
<text text-anchor="middle" x="147.5087" y="-55.0436" font-family="Helvetica,sans-Serif" font-size="10.00" fill="#000000">8</text>
</a>
</g>
</g>
<!-- dir_a065c5f60305fee3569f887679366939 -->
<g id="node4" class="node">
<title>dir_a065c5f60305fee3569f887679366939</title>
<g id="a_node4"><a xlink:href="dir_a065c5f60305fee3569f887679366939.html" target="_top" xlink:title="src">
<polygon fill="#ffffff" stroke="#000000" points="142,-124 88,-124 88,-88 142,-88 142,-124"/>
<text text-anchor="middle" x="115" y="-103.5" font-family="Helvetica,sans-Serif" font-size="10.00" fill="#000000">src</text>
</a>
</g>
</g>
<!-- dir_a065c5f60305fee3569f887679366939&#45;&gt;dir_5a30104352ef4255dc24354b02eb2d20 -->
<g id="edge1" class="edge">
<title>dir_a065c5f60305fee3569f887679366939&#45;&gt;dir_5a30104352ef4255dc24354b02eb2d20</title>
<path fill="none" stroke="#000000" d="M115,-87.8314C115,-80.131 115,-70.9743 115,-62.4166"/>
<polygon fill="#000000" stroke="#000000" points="118.5001,-62.4132 115,-52.4133 111.5001,-62.4133 118.5001,-62.4132"/>
<g id="a_edge1&#45;headlabel"><a xlink:href="dir_000010_000002.html" target="_top" xlink:title="18">
<text text-anchor="middle" x="121.3393" y="-63.5079" font-family="Helvetica,sans-Serif" font-size="10.00" fill="#000000">18</text>
</a>
</g>
</g>
<!-- dir_8b9db0be09d875f52c8b0c21d8fe276e -->
<g id="node5" class="node">
<title>dir_8b9db0be09d875f52c8b0c21d8fe276e</title>
<g id="a_node5"><a xlink:href="dir_8b9db0be09d875f52c8b0c21d8fe276e.html" target="_top" xlink:title="test">
<polygon fill="#ffffff" stroke="#ff0000" points="70,-124 16,-124 16,-88 70,-88 70,-124"/>
<text text-anchor="middle" x="43" y="-103.5" font-family="Helvetica,sans-Serif" font-size="10.00" fill="#000000">test</text>
</a>
</g>
</g>
<!-- dir_8b9db0be09d875f52c8b0c21d8fe276e&#45;&gt;dir_5a30104352ef4255dc24354b02eb2d20 -->
<g id="edge3" class="edge">
<title>dir_8b9db0be09d875f52c8b0c21d8fe276e&#45;&gt;dir_5a30104352ef4255dc24354b02eb2d20</title>
<path fill="none" stroke="#000000" d="M61.1686,-87.8314C69.7152,-79.2848 80.0557,-68.9443 89.3802,-59.6198"/>
<polygon fill="#000000" stroke="#000000" points="91.9905,-61.9592 96.5867,-52.4133 87.0408,-57.0095 91.9905,-61.9592"/>
<g id="a_edge3&#45;headlabel"><a xlink:href="dir_000011_000002.html" target="_top" xlink:title="43">
<text text-anchor="middle" x="91.4564" y="-64.0087" font-family="Helvetica,sans-Serif" font-size="10.00" fill="#000000">43</text>
</a>
</g>
</g>
</g>
</svg>
