<?xml version="1.0" encoding="UTF-8" standalone="no"?>
<!DOCTYPE svg PUBLIC "-//W3C//DTD SVG 1.1//EN"
 "http://www.w3.org/Graphics/SVG/1.1/DTD/svg11.dtd">
<!-- Generated by graphviz version 2.40.1 (20161225.0304)
 -->
<!-- Title: lib/include Pages: 1 -->
<svg width="254pt" height="255pt"
 viewBox="0.00 0.00 254.00 255.00" xmlns="http://www.w3.org/2000/svg" xmlns:xlink="http://www.w3.org/1999/xlink">
<g id="graph0" class="graph" transform="scale(1 1) rotate(0) translate(4 251)">
<title>lib/include</title>
<polygon fill="#ffffff" stroke="transparent" points="-4,4 -4,-251 250,-251 250,4 -4,4"/>
<g id="clust1" class="cluster">
<title>clusterdir_97aefd0d527b934f1d99a682da8fe6a9</title>
<g id="a_clust1"><a xlink:href="dir_97aefd0d527b934f1d99a682da8fe6a9.html" target="_top" xlink:title="lib">
<polygon fill="#ddddee" stroke="#000000" points="8,-8 8,-239 238,-239 238,-8 8,-8"/>
<text text-anchor="middle" x="123" y="-227" font-family="Helvetica,sans-Serif" font-size="10.00" fill="#000000">lib</text>
</a>
</g>
</g>
<g id="clust2" class="cluster">
<title>clusterdir_5a30104352ef4255dc24354b02eb2d20</title>
<g id="a_clust2"><a xlink:href="dir_5a30104352ef4255dc24354b02eb2d20.html" target="_top">
<polygon fill="#eeeeff" stroke="#000000" points="16,-16 16,-212 230,-212 230,-16 16,-16"/>
</a>
</g>
</g>
<!-- dir_5a30104352ef4255dc24354b02eb2d20 -->
<g id="node1" class="node">
<title>dir_5a30104352ef4255dc24354b02eb2d20</title>
<text text-anchor="middle" x="195" y="-183.5" font-family="Helvetica,sans-Serif" font-size="10.00" fill="#000000">include</text>
</g>
<!-- dir_bbffbc909c332157078ac3a144b0fe2f -->
<g id="node2" class="node">
<title>dir_bbffbc909c332157078ac3a144b0fe2f</title>
<g id="a_node2"><a xlink:href="dir_bbffbc909c332157078ac3a144b0fe2f.html" target="_top" xlink:title="ellcpp">
<polygon fill="#ffffff" stroke="#ff0000" points="150,-204 96,-204 96,-168 150,-168 150,-204"/>
<text text-anchor="middle" x="123" y="-183.5" font-family="Helvetica,sans-Serif" font-size="10.00" fill="#000000">ellcpp</text>
</a>
</g>
</g>
<!-- dir_661aba517a13eac175d54e964c450c67 -->
<g id="node4" class="node">
<title>dir_661aba517a13eac175d54e964c450c67</title>
<g id="a_node4"><a xlink:href="dir_661aba517a13eac175d54e964c450c67.html" target="_top" xlink:title="netoptim">
<polygon fill="#ffffff" stroke="#000000" points="152,-132 98,-132 98,-96 152,-96 152,-132"/>
<text text-anchor="middle" x="125" y="-111.5" font-family="Helvetica,sans-Serif" font-size="10.00" fill="#000000">netoptim</text>
</a>
</g>
</g>
<!-- dir_bbffbc909c332157078ac3a144b0fe2f&#45;&gt;dir_661aba517a13eac175d54e964c450c67 -->
<g id="edge2" class="edge">
<title>dir_bbffbc909c332157078ac3a144b0fe2f&#45;&gt;dir_661aba517a13eac175d54e964c450c67</title>
<path fill="none" stroke="#000000" d="M123.5047,-167.8314C123.7186,-160.131 123.9729,-150.9743 124.2106,-142.4166"/>
<polygon fill="#000000" stroke="#000000" points="127.7094,-142.5066 124.4885,-132.4133 120.7121,-142.3122 127.7094,-142.5066"/>
<g id="a_edge2&#45;headlabel"><a xlink:href="dir_000003_000006.html" target="_top" xlink:title="1">
<text text-anchor="middle" x="130.4479" y="-143.6787" font-family="Helvetica,sans-Serif" font-size="10.00" fill="#000000">1</text>
</a>
</g>
</g>
<!-- dir_c2f9e640d8a5c96665cb816be862a5cc -->
<g id="node3" class="node">
<title>dir_c2f9e640d8a5c96665cb816be862a5cc</title>
<g id="a_node3"><a xlink:href="dir_c2f9e640d8a5c96665cb816be862a5cc.html" target="_top" xlink:title="ellip">
<polygon fill="#ffffff" stroke="#000000" points="78,-204 24,-204 24,-168 78,-168 78,-204"/>
<text text-anchor="middle" x="51" y="-183.5" font-family="Helvetica,sans-Serif" font-size="10.00" fill="#000000">ellip</text>
</a>
</g>
</g>
<!-- dir_23d64c5c469555ab0d6acc02068038b6 -->
<g id="node5" class="node">
<title>dir_23d64c5c469555ab0d6acc02068038b6</title>
<g id="a_node5"><a xlink:href="dir_23d64c5c469555ab0d6acc02068038b6.html" target="_top" xlink:title="py2cpp">
<polygon fill="#ffffff" stroke="#000000" points="115,-60 61,-60 61,-24 115,-24 115,-60"/>
<text text-anchor="middle" x="88" y="-39.5" font-family="Helvetica,sans-Serif" font-size="10.00" fill="#000000">py2cpp</text>
</a>
</g>
</g>
<!-- dir_661aba517a13eac175d54e964c450c67&#45;&gt;dir_23d64c5c469555ab0d6acc02068038b6 -->
<g id="edge1" class="edge">
<title>dir_661aba517a13eac175d54e964c450c67&#45;&gt;dir_23d64c5c469555ab0d6acc02068038b6</title>
<path fill="none" stroke="#000000" d="M115.6633,-95.8314C111.5757,-87.8771 106.6896,-78.369 102.1691,-69.5723"/>
<polygon fill="#000000" stroke="#000000" points="105.1461,-67.7078 97.4624,-60.4133 98.9201,-70.9074 105.1461,-67.7078"/>
<g id="a_edge1&#45;headlabel"><a xlink:href="dir_000006_000007.html" target="_top" xlink:title="2">
<text text-anchor="middle" x="109.3144" y="-67.1073" font-family="Helvetica,sans-Serif" font-size="10.00" fill="#000000">2</text>
</a>
</g>
</g>
<!-- dir_38c430c1d5f65b759c59a49cfd65049e -->
<g id="node6" class="node">
<title>dir_38c430c1d5f65b759c59a49cfd65049e</title>
<g id="a_node6"><a xlink:href="dir_38c430c1d5f65b759c59a49cfd65049e.html" target="_top" xlink:title="xnetwork">
<polygon fill="#ffffff" stroke="#ff0000" points="80,-132 24,-132 24,-96 80,-96 80,-132"/>
<text text-anchor="middle" x="52" y="-111.5" font-family="Helvetica,sans-Serif" font-size="10.00" fill="#000000">xnetwork</text>
</a>
</g>
</g>
<!-- dir_38c430c1d5f65b759c59a49cfd65049e&#45;&gt;dir_23d64c5c469555ab0d6acc02068038b6 -->
<g id="edge3" class="edge">
<title>dir_38c430c1d5f65b759c59a49cfd65049e&#45;&gt;dir_23d64c5c469555ab0d6acc02068038b6</title>
<path fill="none" stroke="#000000" d="M61.0843,-95.8314C65.0615,-87.8771 69.8155,-78.369 74.2139,-69.5723"/>
<polygon fill="#000000" stroke="#000000" points="77.4517,-70.9228 78.7934,-60.4133 71.1907,-67.7923 77.4517,-70.9228"/>
<g id="a_edge3&#45;headlabel"><a xlink:href="dir_000008_000007.html" target="_top" xlink:title="2">
<text text-anchor="middle" x="78.3837" y="-72.9077" font-family="Helvetica,sans-Serif" font-size="10.00" fill="#000000">2</text>
</a>
</g>
</g>
</g>
</svg>
