<?xml version="1.0" encoding="UTF-8" standalone="no"?>
<!DOCTYPE svg PUBLIC "-//W3C//DTD SVG 1.1//EN"
 "http://www.w3.org/Graphics/SVG/1.1/DTD/svg11.dtd">
<!-- Generated by graphviz version 2.40.1 (20161225.0304)
 -->
<!-- Title: lib/include/ellcpp/ell.hpp Pages: 1 -->
<!--zoomable 106 -->
<svg id="main" version="1.1" xmlns="http://www.w3.org/2000/svg" xmlns:xlink="http://www.w3.org/1999/xlink" xml:space="preserve" onload="init(evt)">
<style type="text/css"><![CDATA[
.edge:hover path { stroke: red; }
.edge:hover polygon { stroke: red; fill: red; }
]]></style>
<script type="text/javascript"><![CDATA[
var edges = document.getElementsByTagName('g');
if (edges && edges.length) {
  for (var i=0;i<edges.length;i++) {
    if (edges[i].id.substr(0,4)=='edge') {
      edges[i].setAttribute('class','edge');
    }
  }
}
]]></script>
        <defs>
                <circle id="rim" cx="0" cy="0" r="7"/>
                <circle id="rim2" cx="0" cy="0" r="3.5"/>
                <g id="zoomPlus">
                        <use xlink:href="#rim" fill="#404040">
                                <set attributeName="fill" to="#808080" begin="zoomplus.mouseover" end="zoomplus.mouseout"/>
                        </use>
                        <path d="M-4,0h8M0,-4v8" fill="none" stroke="white" stroke-width="1.5" pointer-events="none"/>
                </g>
                <g id="zoomMin">
                        <use xlink:href="#rim" fill="#404040">
                                <set attributeName="fill" to="#808080" begin="zoomminus.mouseover" end="zoomminus.mouseout"/>
                        </use>
                        <path d="M-4,0h8" fill="none" stroke="white" stroke-width="1.5" pointer-events="none"/>
                </g>
                <g id="dirArrow">
                        <path fill="none" stroke="white" stroke-width="1.5" d="M0,-3.0v7 M-2.5,-0.5L0,-3.0L2.5,-0.5"/>
                </g>
               <g id="resetDef">
                       <use xlink:href="#rim2" fill="#404040">
                               <set attributeName="fill" to="#808080" begin="reset.mouseover" end="reset.mouseout"/>
                       </use>
               </g>
        </defs>

<script type="text/javascript">
var viewWidth = 1813;
var viewHeight = 106;
var sectionId = 'dynsection-1';
</script>
<script xlink:href="svgpan.js"/>
<svg id="graph" class="graph">
<g id="viewport">
<title>lib/include/ellcpp/ell.hpp</title>
<polygon fill="#ffffff" stroke="transparent" points="-4,4 -4,-102 1809,-102 1809,4 -4,4"/>
<!-- Node4 -->
<g id="node1" class="node">
<title>Node4</title>
<polygon fill="#bfbfbf" stroke="#000000" points="786.5,-67.5 786.5,-97.5 875.5,-97.5 875.5,-67.5 786.5,-67.5"/>
<text text-anchor="start" x="794.5" y="-85.5" font-family="Helvetica,sans-Serif" font-size="10.00" fill="#000000">lib/include/ellcpp</text>
<text text-anchor="middle" x="831" y="-74.5" font-family="Helvetica,sans-Serif" font-size="10.00" fill="#000000">/ell.hpp</text>
</g>
<!-- Node5 -->
<g id="node2" class="node">
<title>Node5</title>
<g id="a_node2"><a xlink:href="BM__lmi_8cpp.html" target="_top" xlink:title="lib/bench/BM_lmi.cpp">
<polygon fill="#ffffff" stroke="#000000" points="0,-6 0,-25 110,-25 110,-6 0,-6"/>
<text text-anchor="middle" x="55" y="-13" font-family="Helvetica,sans-Serif" font-size="10.00" fill="#000000">lib/bench/BM_lmi.cpp</text>
</a>
</g>
</g>
<!-- Node4&#45;&gt;Node5 -->
<g id="edge1" class="edge">
<title>Node4&#45;&gt;Node5</title>
<path fill="none" stroke="#191970" d="M776.1008,-81.616C656.1627,-79.0108 362.0211,-68.9502 119,-31 109.3989,-29.5007 99.1178,-27.2882 89.6669,-25.0015"/>
<polygon fill="#191970" stroke="#191970" points="776.0675,-85.116 786.1384,-81.8253 776.2135,-78.1175 776.0675,-85.116"/>
</g>
<!-- Node6 -->
<g id="node3" class="node">
<title>Node6</title>
<g id="a_node3"><a xlink:href="BM__lowpass_8cpp.html" target="_top" xlink:title="lib/bench/BM_lowpass.cpp">
<polygon fill="#ffffff" stroke="#000000" points="128,-6 128,-25 262,-25 262,-6 128,-6"/>
<text text-anchor="middle" x="195" y="-13" font-family="Helvetica,sans-Serif" font-size="10.00" fill="#000000">lib/bench/BM_lowpass.cpp</text>
</a>
</g>
</g>
<!-- Node4&#45;&gt;Node6 -->
<g id="edge2" class="edge">
<title>Node4&#45;&gt;Node6</title>
<path fill="none" stroke="#191970" d="M775.9287,-79.442C675.2717,-73.4075 455.0068,-58.1416 271,-31 260.076,-29.3887 248.3526,-27.2193 237.4627,-25.0147"/>
<polygon fill="#191970" stroke="#191970" points="775.9694,-82.9504 786.1589,-80.0481 776.3835,-75.9627 775.9694,-82.9504"/>
</g>
<!-- Node7 -->
<g id="node4" class="node">
<title>Node7</title>
<g id="a_node4"><a xlink:href="ell_8cpp.html" target="_top" xlink:title="lib/src/ell.cpp">
<polygon fill="#ffffff" stroke="#000000" points="280,-6 280,-25 354,-25 354,-6 280,-6"/>
<text text-anchor="middle" x="317" y="-13" font-family="Helvetica,sans-Serif" font-size="10.00" fill="#000000">lib/src/ell.cpp</text>
</a>
</g>
</g>
<!-- Node4&#45;&gt;Node7 -->
<g id="edge3" class="edge">
<title>Node4&#45;&gt;Node7</title>
<path fill="none" stroke="#191970" d="M776.2582,-80.2973C688.244,-75.9051 510.2221,-63.5053 363,-31 356.0876,-29.4738 348.7588,-27.2803 342.0311,-25.0218"/>
<polygon fill="#191970" stroke="#191970" points="776.1245,-83.7949 786.2819,-80.7821 776.4627,-76.803 776.1245,-83.7949"/>
</g>
<!-- Node8 -->
<g id="node5" class="node">
<title>Node8</title>
<g id="a_node5"><a xlink:href="lsq__corr__ell_8cpp.html" target="_top" xlink:title="lib/src/lsq_corr_ell.cpp">
<polygon fill="#ffffff" stroke="#000000" points="372,-6 372,-25 486,-25 486,-6 372,-6"/>
<text text-anchor="middle" x="429" y="-13" font-family="Helvetica,sans-Serif" font-size="10.00" fill="#000000">lib/src/lsq_corr_ell.cpp</text>
</a>
</g>
</g>
<!-- Node4&#45;&gt;Node8 -->
<g id="edge4" class="edge">
<title>Node4&#45;&gt;Node8</title>
<path fill="none" stroke="#191970" d="M775.9602,-75.4157C709.2216,-66.5145 593.4411,-50.073 495,-31 485.987,-29.2537 476.3392,-27.1326 467.2801,-25.0273"/>
<polygon fill="#191970" stroke="#191970" points="775.8667,-78.9338 786.24,-76.7788 776.7869,-71.9946 775.8667,-78.9338"/>
</g>
<!-- Node9 -->
<g id="node6" class="node">
<title>Node9</title>
<g id="a_node6"><a xlink:href="firfilter_8cpp.html" target="_top" xlink:title="lib/test/src/firfilter.cpp">
<polygon fill="#ffffff" stroke="#000000" points="504.5,-6 504.5,-25 615.5,-25 615.5,-6 504.5,-6"/>
<text text-anchor="middle" x="560" y="-13" font-family="Helvetica,sans-Serif" font-size="10.00" fill="#000000">lib/test/src/firfilter.cpp</text>
</a>
</g>
</g>
<!-- Node4&#45;&gt;Node9 -->
<g id="edge5" class="edge">
<title>Node4&#45;&gt;Node9</title>
<path fill="none" stroke="#191970" d="M776.3951,-68.9999C723.6856,-55.9684 645.2128,-36.5674 598.6657,-25.0594"/>
<polygon fill="#191970" stroke="#191970" points="775.7021,-72.4339 786.2499,-71.4363 777.3822,-65.6385 775.7021,-72.4339"/>
</g>
<!-- Node10 -->
<g id="node7" class="node">
<title>Node10</title>
<g id="a_node7"><a xlink:href="lmi__test_8cpp.html" target="_top" xlink:title="lib/test/src/lmi_test.cpp">
<polygon fill="#ffffff" stroke="#000000" points="633.5,-6 633.5,-25 752.5,-25 752.5,-6 633.5,-6"/>
<text text-anchor="middle" x="693" y="-13" font-family="Helvetica,sans-Serif" font-size="10.00" fill="#000000">lib/test/src/lmi_test.cpp</text>
</a>
</g>
</g>
<!-- Node4&#45;&gt;Node10 -->
<g id="edge6" class="edge">
<title>Node4&#45;&gt;Node10</title>
<path fill="none" stroke="#191970" d="M790.9064,-63.0343C765.2503,-50.5781 733.0857,-34.9619 712.7812,-25.1039"/>
<polygon fill="#191970" stroke="#191970" points="789.5056,-66.2448 800.0301,-67.4639 792.5629,-59.9478 789.5056,-66.2448"/>
</g>
<!-- Node11 -->
<g id="node8" class="node">
<title>Node11</title>
<g id="a_node8"><a xlink:href="lowpass_8cpp.html" target="_top" xlink:title="lib/test/src/lowpass.cpp">
<polygon fill="#ffffff" stroke="#000000" points="771,-6 771,-25 891,-25 891,-6 771,-6"/>
<text text-anchor="middle" x="831" y="-13" font-family="Helvetica,sans-Serif" font-size="10.00" fill="#000000">lib/test/src/lowpass.cpp</text>
</a>
</g>
</g>
<!-- Node4&#45;&gt;Node11 -->
<g id="edge7" class="edge">
<title>Node4&#45;&gt;Node11</title>
<path fill="none" stroke="#191970" d="M831,-57.1199C831,-45.9072 831,-33.4031 831,-25.055"/>
<polygon fill="#191970" stroke="#191970" points="827.5001,-57.2966 831,-67.2967 834.5001,-57.2967 827.5001,-57.2966"/>
</g>
<!-- Node12 -->
<g id="node9" class="node">
<title>Node12</title>
<g id="a_node9"><a xlink:href="test__example1_8cpp.html" target="_top" xlink:title="lib/test/src/test_example1.cpp">
<polygon fill="#ffffff" stroke="#000000" points="909,-6 909,-25 1057,-25 1057,-6 909,-6"/>
<text text-anchor="middle" x="983" y="-13" font-family="Helvetica,sans-Serif" font-size="10.00" fill="#000000">lib/test/src/test_example1.cpp</text>
</a>
</g>
</g>
<!-- Node4&#45;&gt;Node12 -->
<g id="edge8" class="edge">
<title>Node4&#45;&gt;Node12</title>
<path fill="none" stroke="#191970" d="M874.4191,-63.3613C902.7974,-50.8525 938.6514,-35.0484 961.212,-25.1039"/>
<polygon fill="#191970" stroke="#191970" points="872.8505,-60.2277 865.1118,-67.4639 875.674,-66.6331 872.8505,-60.2277"/>
</g>
<!-- Node13 -->
<g id="node10" class="node">
<title>Node13</title>
<g id="a_node10"><a xlink:href="test__example2_8cpp.html" target="_top" xlink:title="lib/test/src/test_example2.cpp">
<polygon fill="#ffffff" stroke="#000000" points="1075,-6 1075,-25 1223,-25 1223,-6 1075,-6"/>
<text text-anchor="middle" x="1149" y="-13" font-family="Helvetica,sans-Serif" font-size="10.00" fill="#000000">lib/test/src/test_example2.cpp</text>
</a>
</g>
</g>
<!-- Node4&#45;&gt;Node13 -->
<g id="edge9" class="edge">
<title>Node4&#45;&gt;Node13</title>
<path fill="none" stroke="#191970" d="M885.4739,-71.0228C947.0597,-58.0472 1046.2122,-37.1566 1103.7227,-25.0396"/>
<polygon fill="#191970" stroke="#191970" points="884.6149,-67.6268 875.5514,-73.1134 886.0582,-74.4765 884.6149,-67.6268"/>
</g>
<!-- Node14 -->
<g id="node11" class="node">
<title>Node14</title>
<g id="a_node11"><a xlink:href="test__lmi__old_8cpp.html" target="_top" xlink:title="lib/test/src/test_lmi\l_old.cpp">
<polygon fill="#ffffff" stroke="#000000" points="1241,-.5 1241,-30.5 1341,-30.5 1341,-.5 1241,-.5"/>
<text text-anchor="start" x="1249" y="-18.5" font-family="Helvetica,sans-Serif" font-size="10.00" fill="#000000">lib/test/src/test_lmi</text>
<text text-anchor="middle" x="1291" y="-7.5" font-family="Helvetica,sans-Serif" font-size="10.00" fill="#000000">_old.cpp</text>
</a>
</g>
</g>
<!-- Node4&#45;&gt;Node14 -->
<g id="edge10" class="edge">
<title>Node4&#45;&gt;Node14</title>
<path fill="none" stroke="#191970" d="M885.5182,-77.7514C962.9971,-70.4932 1109.1952,-54.9131 1232,-31 1234.9107,-30.4332 1237.8905,-29.805 1240.8895,-29.1355"/>
<polygon fill="#191970" stroke="#191970" points="885.1407,-74.2713 875.5062,-78.6787 885.7864,-81.2414 885.1407,-74.2713"/>
</g>
<!-- Node15 -->
<g id="node12" class="node">
<title>Node15</title>
<g id="a_node12"><a xlink:href="test__optscaling_8cpp.html" target="_top" xlink:title="lib/test/src/test_optscaling.cpp">
<polygon fill="#ffffff" stroke="#000000" points="1359,-6 1359,-25 1509,-25 1509,-6 1359,-6"/>
<text text-anchor="middle" x="1434" y="-13" font-family="Helvetica,sans-Serif" font-size="10.00" fill="#000000">lib/test/src/test_optscaling.cpp</text>
</a>
</g>
</g>
<!-- Node4&#45;&gt;Node15 -->
<g id="edge11" class="edge">
<title>Node4&#45;&gt;Node15</title>
<path fill="none" stroke="#191970" d="M885.7963,-78.5768C980.658,-71.4472 1181.4953,-54.8643 1350,-31 1361.7464,-29.3364 1374.3544,-27.1989 1386.1385,-25.0461"/>
<polygon fill="#191970" stroke="#191970" points="885.294,-75.1044 875.582,-79.3386 885.8147,-82.085 885.294,-75.1044"/>
</g>
<!-- Node16 -->
<g id="node13" class="node">
<title>Node16</title>
<g id="a_node13"><a xlink:href="test__optscaling__boost_8cpp.html" target="_top" xlink:title="lib/test/src/test_optscaling\l_boost.cpp">
<polygon fill="#ffffff" stroke="#000000" points="1527.5,-.5 1527.5,-30.5 1658.5,-30.5 1658.5,-.5 1527.5,-.5"/>
<text text-anchor="start" x="1535.5" y="-18.5" font-family="Helvetica,sans-Serif" font-size="10.00" fill="#000000">lib/test/src/test_optscaling</text>
<text text-anchor="middle" x="1593" y="-7.5" font-family="Helvetica,sans-Serif" font-size="10.00" fill="#000000">_boost.cpp</text>
</a>
</g>
</g>
<!-- Node4&#45;&gt;Node16 -->
<g id="edge12" class="edge">
<title>Node4&#45;&gt;Node16</title>
<path fill="none" stroke="#191970" d="M885.9438,-80.7869C1002.7753,-76.617 1284.31,-63.7677 1518,-31 1521.0285,-30.5754 1524.1181,-30.1019 1527.2336,-29.5918"/>
<polygon fill="#191970" stroke="#191970" points="885.6929,-77.2935 875.8214,-81.1411 885.9377,-84.2892 885.6929,-77.2935"/>
</g>
<!-- Node17 -->
<g id="node14" class="node">
<title>Node17</title>
<g id="a_node14"><a xlink:href="test__profit_8cpp.html" target="_top" xlink:title="lib/test/src/test_profit.cpp">
<polygon fill="#ffffff" stroke="#000000" points="1677,-6 1677,-25 1805,-25 1805,-6 1677,-6"/>
<text text-anchor="middle" x="1741" y="-13" font-family="Helvetica,sans-Serif" font-size="10.00" fill="#000000">lib/test/src/test_profit.cpp</text>
</a>
</g>
</g>
<!-- Node4&#45;&gt;Node17 -->
<g id="edge13" class="edge">
<title>Node4&#45;&gt;Node17</title>
<path fill="none" stroke="#191970" d="M885.7083,-81.9254C1019.7207,-79.9125 1374.863,-70.9162 1668,-31 1678.912,-29.5141 1690.6256,-27.3062 1701.4056,-25.0194"/>
<polygon fill="#191970" stroke="#191970" points="885.6384,-78.426 875.6896,-82.069 885.7387,-85.4252 885.6384,-78.426"/>
</g>
</g>
</svg>
        <g id="navigator" transform="translate(0 0)" fill="#404254">
                <rect fill="#f2f5e9" fill-opacity="0.5" stroke="#606060" stroke-width=".5" x="0" y="0" width="60" height="60"/>
                <use id="zoomplus" xlink:href="#zoomPlus" x="17" y="9" onmousedown="handleZoom(evt,'in')"/>
                <use id="zoomminus" xlink:href="#zoomMin" x="42" y="9" onmousedown="handleZoom(evt,'out')"/>
                <use id="reset" xlink:href="#resetDef" x="30" y="36" onmousedown="handleReset()"/>
                <g id="arrowUp" xlink:href="#dirArrow" transform="translate(30 24)" onmousedown="handlePan(0,-1)">
                  <use xlink:href="#rim" fill="#404040">
                        <set attributeName="fill" to="#808080" begin="arrowUp.mouseover" end="arrowUp.mouseout"/>
                  </use>
                  <path fill="none" stroke="white" stroke-width="1.5" d="M0,-3.0v7 M-2.5,-0.5L0,-3.0L2.5,-0.5"/>
                </g>
                <g id="arrowRight" xlink:href="#dirArrow" transform="rotate(90) translate(36 -43)" onmousedown="handlePan(1,0)">
                  <use xlink:href="#rim" fill="#404040">
                        <set attributeName="fill" to="#808080" begin="arrowRight.mouseover" end="arrowRight.mouseout"/>
                  </use>
                  <path fill="none" stroke="white" stroke-width="1.5" d="M0,-3.0v7 M-2.5,-0.5L0,-3.0L2.5,-0.5"/>
                </g>
                <g id="arrowDown" xlink:href="#dirArrow" transform="rotate(180) translate(-30 -48)" onmousedown="handlePan(0,1)">
                  <use xlink:href="#rim" fill="#404040">
                        <set attributeName="fill" to="#808080" begin="arrowDown.mouseover" end="arrowDown.mouseout"/>
                  </use>
                  <path fill="none" stroke="white" stroke-width="1.5" d="M0,-3.0v7 M-2.5,-0.5L0,-3.0L2.5,-0.5"/>
                </g>
                <g id="arrowLeft" xlink:href="#dirArrow" transform="rotate(270) translate(-36 17)" onmousedown="handlePan(-1,0)">
                  <use xlink:href="#rim" fill="#404040">
                        <set attributeName="fill" to="#808080" begin="arrowLeft.mouseover" end="arrowLeft.mouseout"/>
                  </use>
                  <path fill="none" stroke="white" stroke-width="1.5" d="M0,-3.0v7 M-2.5,-0.5L0,-3.0L2.5,-0.5"/>
                </g>
        </g>
        <svg viewBox="0 0 15 15" width="100%" height="30px" preserveAspectRatio="xMaxYMin meet">
         <g id="arrow_out" transform="scale(0.3 0.3)">
          <a xlink:href="ell_8hpp__dep__incl_org.svg" target="_base">
           <rect id="button" ry="5" rx="5" y="6" x="6" height="38" width="38"
                fill="#f2f5e9" fill-opacity="0.5" stroke="#606060" stroke-width="1.0"/>
           <path id="arrow"
             d="M 11.500037,31.436501 C 11.940474,20.09759 22.043105,11.32322 32.158766,21.979434 L 37.068811,17.246167 C 37.068811,17.246167 37.088388,32 37.088388,32 L 22.160133,31.978069 C 22.160133,31.978069 26.997745,27.140456 26.997745,27.140456 C 18.528582,18.264221 13.291696,25.230495 11.500037,31.436501 z"
             style="fill:#404040;"/>
          </a>
         </g>
        </svg>
</svg>
