<?xml version="1.0" encoding="UTF-8" standalone="no"?>
<!DOCTYPE svg PUBLIC "-//W3C//DTD SVG 1.1//EN"
 "http://www.w3.org/Graphics/SVG/1.1/DTD/svg11.dtd">
<!-- Generated by graphviz version 2.40.1 (20161225.0304)
 -->
<!-- Title: lib/src/ell.cpp Pages: 1 -->
<svg width="328pt" height="140pt"
 viewBox="0.00 0.00 327.50 140.00" xmlns="http://www.w3.org/2000/svg" xmlns:xlink="http://www.w3.org/1999/xlink">
<g id="graph0" class="graph" transform="scale(1 1) rotate(0) translate(4 136)">
<title>lib/src/ell.cpp</title>
<polygon fill="#ffffff" stroke="transparent" points="-4,4 -4,-136 323.5,-136 323.5,4 -4,4"/>
<!-- Node0 -->
<g id="node1" class="node">
<title>Node0</title>
<polygon fill="#bfbfbf" stroke="#000000" points="104,-112.5 104,-131.5 178,-131.5 178,-112.5 104,-112.5"/>
<text text-anchor="middle" x="141" y="-119.5" font-family="Helvetica,sans-Serif" font-size="10.00" fill="#000000">lib/src/ell.cpp</text>
</g>
<!-- Node1 -->
<g id="node2" class="node">
<title>Node1</title>
<polygon fill="#ffffff" stroke="#bfbfbf" points="0,-.5 0,-19.5 44,-19.5 44,-.5 0,-.5"/>
<text text-anchor="middle" x="22" y="-7.5" font-family="Helvetica,sans-Serif" font-size="10.00" fill="#000000">cmath</text>
</g>
<!-- Node0&#45;&gt;Node1 -->
<g id="edge1" class="edge">
<title>Node0&#45;&gt;Node1</title>
<path fill="none" stroke="#191970" d="M103.8072,-114.1357C81.6122,-107.5636 54.6035,-95.9419 38,-76 27.2852,-63.1309 23.5347,-44.2259 22.319,-29.9438"/>
<polygon fill="#191970" stroke="#191970" points="25.801,-29.4961 21.8028,-19.6846 18.8098,-29.8479 25.801,-29.4961"/>
</g>
<!-- Node2 -->
<g id="node3" class="node">
<title>Node2</title>
<g id="a_node3"><a xlink:href="ell_8hpp.html" target="_top" xlink:title="ellcpp/ell.hpp">
<polygon fill="#ffffff" stroke="#000000" points="47,-56.5 47,-75.5 121,-75.5 121,-56.5 47,-56.5"/>
<text text-anchor="middle" x="84" y="-63.5" font-family="Helvetica,sans-Serif" font-size="10.00" fill="#000000">ellcpp/ell.hpp</text>
</a>
</g>
</g>
<!-- Node0&#45;&gt;Node2 -->
<g id="edge2" class="edge">
<title>Node0&#45;&gt;Node2</title>
<path fill="none" stroke="#191970" d="M131.0714,-112.2455C122.8162,-104.1352 110.8791,-92.4075 101.0918,-82.7919"/>
<polygon fill="#191970" stroke="#191970" points="103.4011,-80.1542 93.8149,-75.6427 98.4954,-85.1476 103.4011,-80.1542"/>
</g>
<!-- Node5 -->
<g id="node6" class="node">
<title>Node5</title>
<polygon fill="#ffffff" stroke="#bfbfbf" points="139.5,-56.5 139.5,-75.5 258.5,-75.5 258.5,-56.5 139.5,-56.5"/>
<text text-anchor="middle" x="199" y="-63.5" font-family="Helvetica,sans-Serif" font-size="10.00" fill="#000000">xtensor&#45;blas/xlinalg.hpp</text>
</g>
<!-- Node0&#45;&gt;Node5 -->
<g id="edge6" class="edge">
<title>Node0&#45;&gt;Node5</title>
<path fill="none" stroke="#191970" d="M151.1028,-112.2455C159.5028,-104.1352 171.6494,-92.4075 181.6084,-82.7919"/>
<polygon fill="#191970" stroke="#191970" points="184.25,-85.1066 189.0129,-75.6427 179.3878,-80.0707 184.25,-85.1066"/>
</g>
<!-- Node6 -->
<g id="node7" class="node">
<title>Node6</title>
<polygon fill="#ffffff" stroke="#bfbfbf" points="276.5,-56.5 276.5,-75.5 319.5,-75.5 319.5,-56.5 276.5,-56.5"/>
<text text-anchor="middle" x="298" y="-63.5" font-family="Helvetica,sans-Serif" font-size="10.00" fill="#000000">cstdio</text>
</g>
<!-- Node0&#45;&gt;Node6 -->
<g id="edge7" class="edge">
<title>Node0&#45;&gt;Node6</title>
<path fill="none" stroke="#191970" d="M167.9893,-112.3733C195.4385,-102.5825 237.9321,-87.4255 266.8069,-77.1262"/>
<polygon fill="#191970" stroke="#191970" points="268.1624,-80.3588 276.4053,-73.7026 265.8107,-73.7656 268.1624,-80.3588"/>
</g>
<!-- Node2&#45;&gt;Node1 -->
<g id="edge3" class="edge">
<title>Node2&#45;&gt;Node1</title>
<path fill="none" stroke="#191970" d="M73.2004,-56.2455C64.1322,-48.0549 50.9794,-36.1749 40.2755,-26.5069"/>
<polygon fill="#191970" stroke="#191970" points="42.4429,-23.7482 32.6758,-19.6427 37.7509,-28.9429 42.4429,-23.7482"/>
</g>
<!-- Node3 -->
<g id="node4" class="node">
<title>Node3</title>
<polygon fill="#ffffff" stroke="#bfbfbf" points="63,-.5 63,-19.5 101,-19.5 101,-.5 63,-.5"/>
<text text-anchor="middle" x="82" y="-7.5" font-family="Helvetica,sans-Serif" font-size="10.00" fill="#000000">tuple</text>
</g>
<!-- Node2&#45;&gt;Node3 -->
<g id="edge4" class="edge">
<title>Node2&#45;&gt;Node3</title>
<path fill="none" stroke="#191970" d="M83.6516,-56.2455C83.3907,-48.9382 83.0248,-38.6944 82.7037,-29.7046"/>
<polygon fill="#191970" stroke="#191970" points="86.1992,-29.5113 82.3444,-19.6427 79.2036,-29.7613 86.1992,-29.5113"/>
</g>
<!-- Node4 -->
<g id="node5" class="node">
<title>Node4</title>
<polygon fill="#ffffff" stroke="#bfbfbf" points="119,-.5 119,-19.5 217,-19.5 217,-.5 119,-.5"/>
<text text-anchor="middle" x="168" y="-7.5" font-family="Helvetica,sans-Serif" font-size="10.00" fill="#000000">xtensor/xarray.hpp</text>
</g>
<!-- Node2&#45;&gt;Node4 -->
<g id="edge5" class="edge">
<title>Node2&#45;&gt;Node4</title>
<path fill="none" stroke="#191970" d="M98.6317,-56.2455C111.3994,-47.7337 130.1438,-35.2375 144.9299,-25.3801"/>
<polygon fill="#191970" stroke="#191970" points="147.1569,-28.1019 153.536,-19.6427 143.274,-22.2775 147.1569,-28.1019"/>
</g>
</g>
</svg>
