<?xml version="1.0" encoding="UTF-8" standalone="no"?>
<!DOCTYPE svg PUBLIC "-//W3C//DTD SVG 1.1//EN"
 "http://www.w3.org/Graphics/SVG/1.1/DTD/svg11.dtd">
<!-- Generated by graphviz version 2.40.1 (20161225.0304)
 -->
<!-- Title: norm Pages: 1 -->
<svg width="416pt" height="142pt"
 viewBox="0.00 0.00 416.00 142.00" xmlns="http://www.w3.org/2000/svg" xmlns:xlink="http://www.w3.org/1999/xlink">
<g id="graph0" class="graph" transform="scale(1 1) rotate(0) translate(4 138)">
<title>norm</title>
<polygon fill="#ffffff" stroke="transparent" points="-4,4 -4,-138 412,-138 412,4 -4,4"/>
<!-- Node26 -->
<g id="node1" class="node">
<title>Node26</title>
<polygon fill="#bfbfbf" stroke="#000000" points="0,-57.5 0,-76.5 38,-76.5 38,-57.5 0,-57.5"/>
<text text-anchor="middle" x="19" y="-64.5" font-family="Helvetica,sans-Serif" font-size="10.00" fill="#000000">norm</text>
</g>
<!-- Node27 -->
<g id="node2" class="node">
<title>Node27</title>
<g id="a_node2"><a xlink:href="ellipsoid_8hpp.html#a02141343f0b26a2f1ced89fc9d20ffa8" target="_top" xlink:title="ellipsoid_algo">
<polygon fill="#ffffff" stroke="#000000" points="90,-114.5 90,-133.5 165,-133.5 165,-114.5 90,-114.5"/>
<text text-anchor="middle" x="127.5" y="-121.5" font-family="Helvetica,sans-Serif" font-size="10.00" fill="#000000">ellipsoid_algo</text>
</a>
</g>
</g>
<!-- Node26&#45;&gt;Node27 -->
<g id="edge1" class="edge">
<title>Node26&#45;&gt;Node27</title>
<path fill="none" stroke="#191970" d="M39.1999,-82.8665C49.2638,-90.2645 61.8533,-98.7852 74,-105 81.0198,-108.5916 88.8768,-111.794 96.3622,-114.4996"/>
<polygon fill="#191970" stroke="#191970" points="41.1713,-79.9695 31.0805,-76.7404 36.9552,-85.5574 41.1713,-79.9695"/>
</g>
<!-- Node28 -->
<g id="node3" class="node">
<title>Node28</title>
<g id="a_node3"><a xlink:href="ellipsoid_8hpp.html#a367d06e7b57bd0b7ac18fb2c5686a50a" target="_top" xlink:title="ellipsoid_dc">
<polygon fill="#ffffff" stroke="#000000" points="93.5,-76.5 93.5,-95.5 161.5,-95.5 161.5,-76.5 93.5,-76.5"/>
<text text-anchor="middle" x="127.5" y="-83.5" font-family="Helvetica,sans-Serif" font-size="10.00" fill="#000000">ellipsoid_dc</text>
</a>
</g>
</g>
<!-- Node26&#45;&gt;Node28 -->
<g id="edge2" class="edge">
<title>Node26&#45;&gt;Node28</title>
<path fill="none" stroke="#191970" d="M48.1312,-72.1013C62.0128,-74.5322 78.7104,-77.4562 93.2013,-79.9938"/>
<polygon fill="#191970" stroke="#191970" points="48.6017,-68.6305 38.1479,-70.3531 47.3942,-75.5256 48.6017,-68.6305"/>
</g>
<!-- Node30 -->
<g id="node5" class="node">
<title>Node30</title>
<g id="a_node5"><a xlink:href="ellipsoid_8hpp.html#a3c9a266996388ad4121522f04a249757" target="_top" xlink:title="ellipsoid_dc_discrete">
<polygon fill="#ffffff" stroke="#000000" points="74,-38.5 74,-57.5 181,-57.5 181,-38.5 74,-38.5"/>
<text text-anchor="middle" x="127.5" y="-45.5" font-family="Helvetica,sans-Serif" font-size="10.00" fill="#000000">ellipsoid_dc_discrete</text>
</a>
</g>
</g>
<!-- Node26&#45;&gt;Node30 -->
<g id="edge4" class="edge">
<title>Node26&#45;&gt;Node30</title>
<path fill="none" stroke="#191970" d="M48.2292,-61.8815C56.0932,-60.5044 64.8553,-58.97 73.6051,-57.4378"/>
<polygon fill="#191970" stroke="#191970" points="47.3942,-58.4744 38.1479,-63.6469 48.6017,-65.3695 47.3942,-58.4744"/>
</g>
<!-- Node31 -->
<g id="node6" class="node">
<title>Node31</title>
<g id="a_node6"><a xlink:href="lsq__corr__ell_8cpp.html#a233a10890259800812279af696624d11" target="_top" xlink:title="lsq_corr_core2">
<polygon fill="#ffffff" stroke="#000000" points="87.5,-.5 87.5,-19.5 167.5,-19.5 167.5,-.5 87.5,-.5"/>
<text text-anchor="middle" x="127.5" y="-7.5" font-family="Helvetica,sans-Serif" font-size="10.00" fill="#000000">lsq_corr_core2</text>
</a>
</g>
</g>
<!-- Node26&#45;&gt;Node31 -->
<g id="edge5" class="edge">
<title>Node26&#45;&gt;Node31</title>
<path fill="none" stroke="#191970" d="M39.1999,-51.1335C49.2638,-43.7355 61.8533,-35.2148 74,-29 81.0198,-25.4084 88.8768,-22.206 96.3622,-19.5004"/>
<polygon fill="#191970" stroke="#191970" points="36.9552,-48.4426 31.0805,-57.2596 41.1713,-54.0305 36.9552,-48.4426"/>
</g>
<!-- Node29 -->
<g id="node4" class="node">
<title>Node29</title>
<g id="a_node4"><a xlink:href="micp__test1_8cpp.html#ae66f6b31b5ad750f1fe042a706a4e3d4" target="_top" xlink:title="main">
<polygon fill="#ffffff" stroke="#000000" points="238,-76.5 238,-95.5 276,-95.5 276,-76.5 238,-76.5"/>
<text text-anchor="middle" x="257" y="-83.5" font-family="Helvetica,sans-Serif" font-size="10.00" fill="#000000">main</text>
</a>
</g>
</g>
<!-- Node28&#45;&gt;Node29 -->
<g id="edge3" class="edge">
<title>Node28&#45;&gt;Node29</title>
<path fill="none" stroke="#191970" d="M171.5508,-86C194.0407,-86 220.2538,-86 237.6563,-86"/>
<polygon fill="#191970" stroke="#191970" points="171.5246,-82.5001 161.5246,-86 171.5246,-89.5001 171.5246,-82.5001"/>
</g>
<!-- Node32 -->
<g id="node7" class="node">
<title>Node32</title>
<g id="a_node7"><a xlink:href="corr__fn__ell_8cpp.html#a6ef494bfe01e16b424356fd36008d285" target="_top" xlink:title="lsq_corr_poly2">
<polygon fill="#ffffff" stroke="#000000" points="217,-.5 217,-19.5 297,-19.5 297,-.5 217,-.5"/>
<text text-anchor="middle" x="257" y="-7.5" font-family="Helvetica,sans-Serif" font-size="10.00" fill="#000000">lsq_corr_poly2</text>
</a>
</g>
</g>
<!-- Node31&#45;&gt;Node32 -->
<g id="edge6" class="edge">
<title>Node31&#45;&gt;Node32</title>
<path fill="none" stroke="#191970" d="M177.8864,-10C190.773,-10 204.4589,-10 216.7602,-10"/>
<polygon fill="#191970" stroke="#191970" points="177.7648,-6.5001 167.7647,-10 177.7647,-13.5001 177.7648,-6.5001"/>
</g>
<!-- Node33 -->
<g id="node8" class="node">
<title>Node33</title>
<g id="a_node8"><a xlink:href="corr__fn__ell_8cpp.html#a81c9df61833f0dcc6a7cf2412f2872cd" target="_top" xlink:title="TEST_CASE">
<polygon fill="#ffffff" stroke="#000000" points="333,-.5 333,-19.5 408,-19.5 408,-.5 333,-.5"/>
<text text-anchor="middle" x="370.5" y="-7.5" font-family="Helvetica,sans-Serif" font-size="10.00" fill="#000000">TEST_CASE</text>
</a>
</g>
</g>
<!-- Node32&#45;&gt;Node33 -->
<g id="edge7" class="edge">
<title>Node32&#45;&gt;Node33</title>
<path fill="none" stroke="#191970" d="M307.2933,-10C315.843,-10 324.5908,-10 332.7468,-10"/>
<polygon fill="#191970" stroke="#191970" points="307.0159,-6.5001 297.0159,-10 307.0158,-13.5001 307.0159,-6.5001"/>
</g>
</g>
</svg>
