<?xml version="1.0" encoding="UTF-8" standalone="no"?>
<!DOCTYPE svg PUBLIC "-//W3C//DTD SVG 1.1//EN"
 "http://www.w3.org/Graphics/SVG/1.1/DTD/svg11.dtd">
<!-- Generated by graphviz version 2.40.1 (20161225.0304)
 -->
<!-- Title: ellipsoid_algo Pages: 1 -->
<svg width="343pt" height="66pt"
 viewBox="0.00 0.00 343.00 66.00" xmlns="http://www.w3.org/2000/svg" xmlns:xlink="http://www.w3.org/1999/xlink">
<g id="graph0" class="graph" transform="scale(1 1) rotate(0) translate(4 62)">
<title>ellipsoid_algo</title>
<polygon fill="#ffffff" stroke="transparent" points="-4,4 -4,-62 339,-62 339,4 -4,4"/>
<!-- Node0 -->
<g id="node1" class="node">
<title>Node0</title>
<polygon fill="#bfbfbf" stroke="#000000" points="0,-19.5 0,-38.5 75,-38.5 75,-19.5 0,-19.5"/>
<text text-anchor="middle" x="37.5" y="-26.5" font-family="Helvetica,sans-Serif" font-size="10.00" fill="#000000">ellipsoid_algo</text>
</g>
<!-- Node1 -->
<g id="node2" class="node">
<title>Node1</title>
<g id="a_node2"><a xlink:href="rgp__yalaa_8cpp.html#a4b42040f2f10532d8bd23cb5c6c0a370" target="_top" xlink:title="max">
<polygon fill="#ffffff" stroke="#000000" points="112.5,-38.5 112.5,-57.5 147.5,-57.5 147.5,-38.5 112.5,-38.5"/>
<text text-anchor="middle" x="130" y="-45.5" font-family="Helvetica,sans-Serif" font-size="10.00" fill="#000000">max</text>
</a>
</g>
</g>
<!-- Node0&#45;&gt;Node1 -->
<g id="edge1" class="edge">
<title>Node0&#45;&gt;Node1</title>
<path fill="none" stroke="#191970" d="M75.1233,-36.728C84.2265,-38.5979 93.7921,-40.5627 102.3409,-42.3187"/>
<polygon fill="#191970" stroke="#191970" points="101.6653,-45.7529 112.1651,-44.3366 103.0738,-38.8961 101.6653,-45.7529"/>
</g>
<!-- Node2 -->
<g id="node3" class="node">
<title>Node2</title>
<g id="a_node3"><a xlink:href="ellipsoid_8hpp.html#a13c8b31efc8b872015b808cc84884ce7" target="_top" xlink:title="norm">
<polygon fill="#ffffff" stroke="#000000" points="111,-.5 111,-19.5 149,-19.5 149,-.5 111,-.5"/>
<text text-anchor="middle" x="130" y="-7.5" font-family="Helvetica,sans-Serif" font-size="10.00" fill="#000000">norm</text>
</a>
</g>
</g>
<!-- Node0&#45;&gt;Node2 -->
<g id="edge2" class="edge">
<title>Node0&#45;&gt;Node2</title>
<path fill="none" stroke="#191970" d="M75.1233,-21.272C83.7748,-19.4949 92.8439,-17.6321 101.061,-15.9442"/>
<polygon fill="#191970" stroke="#191970" points="101.8268,-19.3601 110.9181,-13.9195 100.4183,-12.5032 101.8268,-19.3601"/>
</g>
<!-- Node3 -->
<g id="node4" class="node">
<title>Node3</title>
<g id="a_node4"><a xlink:href="monomial_8hpp.html#aac228420ac44c1280baec6bfd23e034c" target="_top" xlink:title="Square root. ">
<polygon fill="#ffffff" stroke="#000000" points="185,-.5 185,-19.5 218,-19.5 218,-.5 185,-.5"/>
<text text-anchor="middle" x="201.5" y="-7.5" font-family="Helvetica,sans-Serif" font-size="10.00" fill="#000000">sqrt</text>
</a>
</g>
</g>
<!-- Node2&#45;&gt;Node3 -->
<g id="edge3" class="edge">
<title>Node2&#45;&gt;Node3</title>
<path fill="none" stroke="#191970" d="M149.1607,-10C156.9555,-10 166.1023,-10 174.5501,-10"/>
<polygon fill="#191970" stroke="#191970" points="174.7223,-13.5001 184.7223,-10 174.7223,-6.5001 174.7223,-13.5001"/>
</g>
<!-- Node4 -->
<g id="node5" class="node">
<title>Node4</title>
<g id="a_node5"><a xlink:href="classmonomial.html#ac34f9253980541a1050dc2301af35126" target="_top" xlink:title="Square root. ">
<polygon fill="#ffffff" stroke="#000000" points="254,-.5 254,-19.5 335,-19.5 335,-.5 254,-.5"/>
<text text-anchor="middle" x="294.5" y="-7.5" font-family="Helvetica,sans-Serif" font-size="10.00" fill="#000000">monomial::sqrt</text>
</a>
</g>
</g>
<!-- Node3&#45;&gt;Node4 -->
<g id="edge4" class="edge">
<title>Node3&#45;&gt;Node4</title>
<path fill="none" stroke="#191970" d="M218.1265,-10C225.4165,-10 234.4053,-10 243.6255,-10"/>
<polygon fill="#191970" stroke="#191970" points="243.6518,-13.5001 253.6518,-10 243.6517,-6.5001 243.6518,-13.5001"/>
</g>
</g>
</svg>
