<?xml version="1.0" encoding="UTF-8" standalone="no"?>
<!DOCTYPE svg PUBLIC "-//W3C//DTD SVG 1.1//EN"
 "http://www.w3.org/Graphics/SVG/1.1/DTD/svg11.dtd">
<!-- Generated by graphviz version 2.40.1 (20161225.0304)
 -->
<!-- Title: lib/include/ellcpp/oracles/fraction.hpp Pages: 1 -->
<svg width="270pt" height="95pt"
 viewBox="0.00 0.00 269.50 95.00" xmlns="http://www.w3.org/2000/svg" xmlns:xlink="http://www.w3.org/1999/xlink">
<g id="graph0" class="graph" transform="scale(1 1) rotate(0) translate(4 91)">
<title>lib/include/ellcpp/oracles/fraction.hpp</title>
<polygon fill="#ffffff" stroke="transparent" points="-4,4 -4,-91 265.5,-91 265.5,4 -4,4"/>
<!-- Node0 -->
<g id="node1" class="node">
<title>Node0</title>
<polygon fill="#bfbfbf" stroke="#000000" points="70,-56.5 70,-86.5 175,-86.5 175,-56.5 70,-56.5"/>
<text text-anchor="start" x="78" y="-74.5" font-family="Helvetica,sans-Serif" font-size="10.00" fill="#000000">lib/include/ellcpp</text>
<text text-anchor="middle" x="122.5" y="-63.5" font-family="Helvetica,sans-Serif" font-size="10.00" fill="#000000">/oracles/fraction.hpp</text>
</g>
<!-- Node1 -->
<g id="node2" class="node">
<title>Node1</title>
<polygon fill="#ffffff" stroke="#bfbfbf" points="0,-.5 0,-19.5 49,-19.5 49,-.5 0,-.5"/>
<text text-anchor="middle" x="24.5" y="-7.5" font-family="Helvetica,sans-Serif" font-size="10.00" fill="#000000">cassert</text>
</g>
<!-- Node0&#45;&gt;Node1 -->
<g id="edge1" class="edge">
<title>Node0&#45;&gt;Node1</title>
<path fill="none" stroke="#191970" d="M98.5265,-56.4554C83.3224,-46.9141 63.7241,-34.6151 48.5125,-25.0691"/>
<polygon fill="#191970" stroke="#191970" points="50.0172,-21.8813 39.6865,-19.5303 46.2963,-27.8105 50.0172,-21.8813"/>
</g>
<!-- Node2 -->
<g id="node3" class="node">
<title>Node2</title>
<polygon fill="#ffffff" stroke="#bfbfbf" points="67.5,-.5 67.5,-19.5 111.5,-19.5 111.5,-.5 67.5,-.5"/>
<text text-anchor="middle" x="89.5" y="-7.5" font-family="Helvetica,sans-Serif" font-size="10.00" fill="#000000">cmath</text>
</g>
<!-- Node0&#45;&gt;Node2 -->
<g id="edge2" class="edge">
<title>Node0&#45;&gt;Node2</title>
<path fill="none" stroke="#191970" d="M114.3427,-56.2977C109.9051,-48.0277 104.375,-37.7215 99.6596,-28.9339"/>
<polygon fill="#191970" stroke="#191970" points="102.596,-27.0037 94.7837,-19.8469 96.4279,-30.3134 102.596,-27.0037"/>
</g>
<!-- Node3 -->
<g id="node4" class="node">
<title>Node3</title>
<polygon fill="#ffffff" stroke="#bfbfbf" points="130,-.5 130,-19.5 181,-19.5 181,-.5 130,-.5"/>
<text text-anchor="middle" x="155.5" y="-7.5" font-family="Helvetica,sans-Serif" font-size="10.00" fill="#000000">numeric</text>
</g>
<!-- Node0&#45;&gt;Node3 -->
<g id="edge3" class="edge">
<title>Node0&#45;&gt;Node3</title>
<path fill="none" stroke="#191970" d="M130.6573,-56.2977C135.0949,-48.0277 140.625,-37.7215 145.3404,-28.9339"/>
<polygon fill="#191970" stroke="#191970" points="148.5721,-30.3134 150.2163,-19.8469 142.404,-27.0037 148.5721,-30.3134"/>
</g>
<!-- Node4 -->
<g id="node5" class="node">
<title>Node4</title>
<polygon fill="#ffffff" stroke="#bfbfbf" points="199.5,-.5 199.5,-19.5 261.5,-19.5 261.5,-.5 199.5,-.5"/>
<text text-anchor="middle" x="230.5" y="-7.5" font-family="Helvetica,sans-Serif" font-size="10.00" fill="#000000">type_traits</text>
</g>
<!-- Node0&#45;&gt;Node4 -->
<g id="edge4" class="edge">
<title>Node0&#45;&gt;Node4</title>
<path fill="none" stroke="#191970" d="M148.9198,-56.4554C165.9914,-46.734 188.0902,-34.15 204.9809,-24.5317"/>
<polygon fill="#191970" stroke="#191970" points="206.8059,-27.5202 213.7638,-19.5303 203.342,-21.4373 206.8059,-27.5202"/>
</g>
</g>
</svg>
