<?xml version="1.0" encoding="UTF-8" standalone="no"?>
<!DOCTYPE svg PUBLIC "-//W3C//DTD SVG 1.1//EN"
 "http://www.w3.org/Graphics/SVG/1.1/DTD/svg11.dtd">
<!-- Generated by graphviz version 2.40.1 (20161225.0304)
 -->
<!-- Title: lib/src/lmi0_oracle.cpp Pages: 1 -->
<svg width="305pt" height="263pt"
 viewBox="0.00 0.00 304.67 263.00" xmlns="http://www.w3.org/2000/svg" xmlns:xlink="http://www.w3.org/1999/xlink">
<g id="graph0" class="graph" transform="scale(1 1) rotate(0) translate(4 259)">
<title>lib/src/lmi0_oracle.cpp</title>
<polygon fill="#ffffff" stroke="transparent" points="-4,4 -4,-259 300.6671,-259 300.6671,4 -4,4"/>
<!-- Node0 -->
<g id="node1" class="node">
<title>Node0</title>
<polygon fill="#bfbfbf" stroke="#000000" points="123.6671,-235.5 123.6671,-254.5 237.6671,-254.5 237.6671,-235.5 123.6671,-235.5"/>
<text text-anchor="middle" x="180.6671" y="-242.5" font-family="Helvetica,sans-Serif" font-size="10.00" fill="#000000">lib/src/lmi0_oracle.cpp</text>
</g>
<!-- Node1 -->
<g id="node2" class="node">
<title>Node1</title>
<g id="a_node2"><a xlink:href="lmi0__oracle_8hpp.html" target="_top" xlink:title="ellcpp/oracles/lmi0\l_oracle.hpp">
<polygon fill="#ffffff" stroke="#000000" points="60.6671,-168.5 60.6671,-198.5 158.6671,-198.5 158.6671,-168.5 60.6671,-168.5"/>
<text text-anchor="start" x="68.6671" y="-186.5" font-family="Helvetica,sans-Serif" font-size="10.00" fill="#000000">ellcpp/oracles/lmi0</text>
<text text-anchor="middle" x="109.6671" y="-175.5" font-family="Helvetica,sans-Serif" font-size="10.00" fill="#000000">_oracle.hpp</text>
</a>
</g>
</g>
<!-- Node0&#45;&gt;Node1 -->
<g id="edge1" class="edge">
<title>Node0&#45;&gt;Node1</title>
<path fill="none" stroke="#191970" d="M169.5734,-235.3906C160.3203,-227.3756 146.7795,-215.6466 134.9115,-205.3666"/>
<polygon fill="#191970" stroke="#191970" points="136.8859,-202.4464 127.0357,-198.5446 132.3028,-207.7374 136.8859,-202.4464"/>
</g>
<!-- Node3 -->
<g id="node4" class="node">
<title>Node3</title>
<g id="a_node4"><a xlink:href="utility_8hpp.html" target="_top" xlink:title="ellcpp/utility.hpp">
<polygon fill="#ffffff" stroke="#000000" points="209.1671,-56.5 209.1671,-75.5 296.1671,-75.5 296.1671,-56.5 209.1671,-56.5"/>
<text text-anchor="middle" x="252.6671" y="-63.5" font-family="Helvetica,sans-Serif" font-size="10.00" fill="#000000">ellcpp/utility.hpp</text>
</a>
</g>
</g>
<!-- Node0&#45;&gt;Node3 -->
<g id="edge11" class="edge">
<title>Node0&#45;&gt;Node3</title>
<path fill="none" stroke="#191970" d="M185.8856,-235.2508C196.0682,-215.9543 218.8808,-171.351 233.6671,-132 239.4339,-116.6526 244.4872,-98.7516 247.9297,-85.4676"/>
<polygon fill="#191970" stroke="#191970" points="251.3786,-86.104 250.4229,-75.5524 244.5899,-84.3969 251.3786,-86.104"/>
</g>
<!-- Node2 -->
<g id="node3" class="node">
<title>Node2</title>
<g id="a_node3"><a xlink:href="chol__ext_8hpp.html" target="_top" xlink:title="chol_ext.hpp">
<polygon fill="#ffffff" stroke="#000000" points="152.6671,-112.5 152.6671,-131.5 224.6671,-131.5 224.6671,-112.5 152.6671,-112.5"/>
<text text-anchor="middle" x="188.6671" y="-119.5" font-family="Helvetica,sans-Serif" font-size="10.00" fill="#000000">chol_ext.hpp</text>
</a>
</g>
</g>
<!-- Node1&#45;&gt;Node2 -->
<g id="edge2" class="edge">
<title>Node1&#45;&gt;Node2</title>
<path fill="none" stroke="#191970" d="M129.1952,-168.2977C140.9608,-159.1384 155.9346,-147.4816 167.9136,-138.1562"/>
<polygon fill="#191970" stroke="#191970" points="170.2774,-140.7516 176.0182,-131.8469 165.9773,-135.228 170.2774,-140.7516"/>
</g>
<!-- Node5 -->
<g id="node6" class="node">
<title>Node5</title>
<polygon fill="#ffffff" stroke="#bfbfbf" points="118.6671,-.5 118.6671,-19.5 216.6671,-19.5 216.6671,-.5 118.6671,-.5"/>
<text text-anchor="middle" x="167.6671" y="-7.5" font-family="Helvetica,sans-Serif" font-size="10.00" fill="#000000">xtensor/xarray.hpp</text>
</g>
<!-- Node1&#45;&gt;Node5 -->
<g id="edge10" class="edge">
<title>Node1&#45;&gt;Node5</title>
<path fill="none" stroke="#191970" d="M60.5364,-171.5064C26.0393,-160.3533 -11.4535,-141.0415 3.6671,-112 28.0571,-65.1553 84.5197,-37.3416 124.354,-22.8742"/>
<polygon fill="#191970" stroke="#191970" points="125.5519,-26.1632 133.8409,-19.5645 123.2461,-19.5539 125.5519,-26.1632"/>
</g>
<!-- Node7 -->
<g id="node8" class="node">
<title>Node7</title>
<polygon fill="#ffffff" stroke="#bfbfbf" points="13.1671,-112.5 13.1671,-131.5 66.1671,-131.5 66.1671,-112.5 13.1671,-112.5"/>
<text text-anchor="middle" x="39.6671" y="-119.5" font-family="Helvetica,sans-Serif" font-size="10.00" fill="#000000">gsl/span</text>
</g>
<!-- Node1&#45;&gt;Node7 -->
<g id="edge8" class="edge">
<title>Node1&#45;&gt;Node7</title>
<path fill="none" stroke="#191970" d="M92.3637,-168.2977C82.1409,-159.3163 69.1848,-147.9334 58.6775,-138.702"/>
<polygon fill="#191970" stroke="#191970" points="60.6976,-135.8178 50.875,-131.8469 56.0774,-141.0766 60.6976,-135.8178"/>
</g>
<!-- Node8 -->
<g id="node9" class="node">
<title>Node8</title>
<polygon fill="#ffffff" stroke="#bfbfbf" points="84.6671,-112.5 84.6671,-131.5 134.6671,-131.5 134.6671,-112.5 84.6671,-112.5"/>
<text text-anchor="middle" x="109.6671" y="-119.5" font-family="Helvetica,sans-Serif" font-size="10.00" fill="#000000">optional</text>
</g>
<!-- Node1&#45;&gt;Node8 -->
<g id="edge9" class="edge">
<title>Node1&#45;&gt;Node8</title>
<path fill="none" stroke="#191970" d="M109.6671,-168.2977C109.6671,-160.3834 109.6671,-150.6043 109.6671,-142.0759"/>
<polygon fill="#191970" stroke="#191970" points="113.1672,-141.8469 109.6671,-131.8469 106.1672,-141.847 113.1672,-141.8469"/>
</g>
<!-- Node2&#45;&gt;Node3 -->
<g id="edge3" class="edge">
<title>Node2&#45;&gt;Node3</title>
<path fill="none" stroke="#191970" d="M199.815,-112.2455C209.1758,-104.0549 222.7529,-92.1749 233.802,-82.5069"/>
<polygon fill="#191970" stroke="#191970" points="236.4259,-84.8618 241.6469,-75.6427 231.8163,-79.5937 236.4259,-84.8618"/>
</g>
<!-- Node2&#45;&gt;Node5 -->
<g id="edge7" class="edge">
<title>Node2&#45;&gt;Node5</title>
<path fill="none" stroke="#191970" d="M186.8767,-112.4509C183.4361,-94.1013 175.8404,-53.5908 171.2988,-29.3693"/>
<polygon fill="#191970" stroke="#191970" points="174.736,-28.7086 169.453,-19.5249 167.8559,-29.9986 174.736,-28.7086"/>
</g>
<!-- Node6 -->
<g id="node7" class="node">
<title>Node6</title>
<polygon fill="#ffffff" stroke="#bfbfbf" points="93.1671,-56.5 93.1671,-75.5 152.1671,-75.5 152.1671,-56.5 93.1671,-56.5"/>
<text text-anchor="middle" x="122.6671" y="-63.5" font-family="Helvetica,sans-Serif" font-size="10.00" fill="#000000">stdexcept</text>
</g>
<!-- Node2&#45;&gt;Node6 -->
<g id="edge6" class="edge">
<title>Node2&#45;&gt;Node6</title>
<path fill="none" stroke="#191970" d="M177.1708,-112.2455C167.4229,-103.9746 153.2412,-91.9416 141.7873,-82.2232"/>
<polygon fill="#191970" stroke="#191970" points="143.9212,-79.4437 134.0317,-75.6427 139.3924,-84.7813 143.9212,-79.4437"/>
</g>
<!-- Node4 -->
<g id="node5" class="node">
<title>Node4</title>
<polygon fill="#ffffff" stroke="#bfbfbf" points="234.6671,-.5 234.6671,-19.5 296.6671,-19.5 296.6671,-.5 234.6671,-.5"/>
<text text-anchor="middle" x="265.6671" y="-7.5" font-family="Helvetica,sans-Serif" font-size="10.00" fill="#000000">type_traits</text>
</g>
<!-- Node3&#45;&gt;Node4 -->
<g id="edge4" class="edge">
<title>Node3&#45;&gt;Node4</title>
<path fill="none" stroke="#191970" d="M254.9315,-56.2455C256.6465,-48.8579 259.0583,-38.4689 261.1615,-29.4087"/>
<polygon fill="#191970" stroke="#191970" points="264.5766,-30.1751 263.4286,-19.6427 257.7579,-28.5922 264.5766,-30.1751"/>
</g>
<!-- Node3&#45;&gt;Node5 -->
<g id="edge5" class="edge">
<title>Node3&#45;&gt;Node5</title>
<path fill="none" stroke="#191970" d="M237.8612,-56.2455C224.9415,-47.7337 205.974,-35.2375 191.0119,-25.3801"/>
<polygon fill="#191970" stroke="#191970" points="192.5795,-22.2216 182.3033,-19.6427 188.7284,-28.067 192.5795,-22.2216"/>
</g>
</g>
</svg>
