<?xml version="1.0" encoding="UTF-8" standalone="no"?>
<!DOCTYPE svg PUBLIC "-//W3C//DTD SVG 1.1//EN"
 "http://www.w3.org/Graphics/SVG/1.1/DTD/svg11.dtd">
<!-- Generated by graphviz version 2.40.1 (20161225.0304)
 -->
<!-- Title: lib/include/ellcpp/oracles/lmi_oracle.hpp Pages: 1 -->
<svg width="654pt" height="106pt"
 viewBox="0.00 0.00 653.50 106.00" xmlns="http://www.w3.org/2000/svg" xmlns:xlink="http://www.w3.org/1999/xlink">
<g id="graph0" class="graph" transform="scale(1 1) rotate(0) translate(4 102)">
<title>lib/include/ellcpp/oracles/lmi_oracle.hpp</title>
<polygon fill="#ffffff" stroke="transparent" points="-4,4 -4,-102 649.5,-102 649.5,4 -4,4"/>
<!-- Node8 -->
<g id="node1" class="node">
<title>Node8</title>
<polygon fill="#bfbfbf" stroke="#000000" points="262.5,-67.5 262.5,-97.5 379.5,-97.5 379.5,-67.5 262.5,-67.5"/>
<text text-anchor="start" x="270.5" y="-85.5" font-family="Helvetica,sans-Serif" font-size="10.00" fill="#000000">lib/include/ellcpp</text>
<text text-anchor="middle" x="321" y="-74.5" font-family="Helvetica,sans-Serif" font-size="10.00" fill="#000000">/oracles/lmi_oracle.hpp</text>
</g>
<!-- Node9 -->
<g id="node2" class="node">
<title>Node9</title>
<g id="a_node2"><a xlink:href="BM__lmi_8cpp.html" target="_top" xlink:title="lib/bench/BM_lmi.cpp">
<polygon fill="#ffffff" stroke="#000000" points="0,-6 0,-25 110,-25 110,-6 0,-6"/>
<text text-anchor="middle" x="55" y="-13" font-family="Helvetica,sans-Serif" font-size="10.00" fill="#000000">lib/bench/BM_lmi.cpp</text>
</a>
</g>
</g>
<!-- Node8&#45;&gt;Node9 -->
<g id="edge1" class="edge">
<title>Node8&#45;&gt;Node9</title>
<path fill="none" stroke="#191970" d="M252.3839,-65.217C201.6638,-52.4416 134.4793,-35.5192 93.0268,-25.0782"/>
<polygon fill="#191970" stroke="#191970" points="251.7438,-68.665 262.2959,-67.7136 253.4537,-61.877 251.7438,-68.665"/>
</g>
<!-- Node10 -->
<g id="node3" class="node">
<title>Node10</title>
<g id="a_node3"><a xlink:href="sdp__oracle_8hpp.html" target="_top" xlink:title="lib/include/ellcpp\l/oracles/sdp_oracle.hpp">
<polygon fill="#ffffff" stroke="#000000" points="128,-.5 128,-30.5 248,-30.5 248,-.5 128,-.5"/>
<text text-anchor="start" x="136" y="-18.5" font-family="Helvetica,sans-Serif" font-size="10.00" fill="#000000">lib/include/ellcpp</text>
<text text-anchor="middle" x="188" y="-7.5" font-family="Helvetica,sans-Serif" font-size="10.00" fill="#000000">/oracles/sdp_oracle.hpp</text>
</a>
</g>
</g>
<!-- Node8&#45;&gt;Node10 -->
<g id="edge2" class="edge">
<title>Node8&#45;&gt;Node10</title>
<path fill="none" stroke="#191970" d="M282.1187,-62.9132C261.7357,-52.645 237.1428,-40.2561 218.2083,-30.7177"/>
<polygon fill="#191970" stroke="#191970" points="280.6467,-66.0906 291.1522,-67.4639 283.7961,-59.8391 280.6467,-66.0906"/>
</g>
<!-- Node11 -->
<g id="node4" class="node">
<title>Node11</title>
<g id="a_node4"><a xlink:href="lmi__oracle_8cpp.html" target="_top" xlink:title="lib/src/lmi_oracle.cpp">
<polygon fill="#ffffff" stroke="#000000" points="266.5,-6 266.5,-25 375.5,-25 375.5,-6 266.5,-6"/>
<text text-anchor="middle" x="321" y="-13" font-family="Helvetica,sans-Serif" font-size="10.00" fill="#000000">lib/src/lmi_oracle.cpp</text>
</a>
</g>
</g>
<!-- Node8&#45;&gt;Node11 -->
<g id="edge3" class="edge">
<title>Node8&#45;&gt;Node11</title>
<path fill="none" stroke="#191970" d="M321,-57.1199C321,-45.9072 321,-33.4031 321,-25.055"/>
<polygon fill="#191970" stroke="#191970" points="317.5001,-57.2966 321,-67.2967 324.5001,-57.2967 317.5001,-57.2966"/>
</g>
<!-- Node12 -->
<g id="node5" class="node">
<title>Node12</title>
<g id="a_node5"><a xlink:href="lsq__corr__ell_8cpp.html" target="_top" xlink:title="lib/src/lsq_corr_ell.cpp">
<polygon fill="#ffffff" stroke="#000000" points="394,-6 394,-25 508,-25 508,-6 394,-6"/>
<text text-anchor="middle" x="451" y="-13" font-family="Helvetica,sans-Serif" font-size="10.00" fill="#000000">lib/src/lsq_corr_ell.cpp</text>
</a>
</g>
</g>
<!-- Node8&#45;&gt;Node12 -->
<g id="edge4" class="edge">
<title>Node8&#45;&gt;Node12</title>
<path fill="none" stroke="#191970" d="M359.0877,-62.8702C383.2037,-50.4412 413.322,-34.9187 432.3655,-25.1039"/>
<polygon fill="#191970" stroke="#191970" points="357.46,-59.7715 350.1745,-67.4639 360.6669,-65.9938 357.46,-59.7715"/>
</g>
<!-- Node13 -->
<g id="node6" class="node">
<title>Node13</title>
<g id="a_node6"><a xlink:href="lmi__test_8cpp.html" target="_top" xlink:title="lib/test/src/lmi_test.cpp">
<polygon fill="#ffffff" stroke="#000000" points="526.5,-6 526.5,-25 645.5,-25 645.5,-6 526.5,-6"/>
<text text-anchor="middle" x="586" y="-13" font-family="Helvetica,sans-Serif" font-size="10.00" fill="#000000">lib/test/src/lmi_test.cpp</text>
</a>
</g>
</g>
<!-- Node8&#45;&gt;Node13 -->
<g id="edge5" class="edge">
<title>Node8&#45;&gt;Node13</title>
<path fill="none" stroke="#191970" d="M389.6888,-65.1334C440.2185,-52.358 507.0134,-35.4702 548.2123,-25.0539"/>
<polygon fill="#191970" stroke="#191970" points="388.6491,-61.7861 379.8121,-67.6305 390.365,-68.5725 388.6491,-61.7861"/>
</g>
</g>
</svg>
