<?xml version="1.0" encoding="UTF-8" standalone="no"?>
<!DOCTYPE svg PUBLIC "-//W3C//DTD SVG 1.1//EN"
 "http://www.w3.org/Graphics/SVG/1.1/DTD/svg11.dtd">
<!-- Generated by graphviz version 2.40.1 (20161225.0304)
 -->
<!-- Title: lib/src/lmi_oracle.cpp Pages: 1 -->
<svg width="305pt" height="263pt"
 viewBox="0.00 0.00 304.66 263.00" xmlns="http://www.w3.org/2000/svg" xmlns:xlink="http://www.w3.org/1999/xlink">
<g id="graph0" class="graph" transform="scale(1 1) rotate(0) translate(4 259)">
<title>lib/src/lmi_oracle.cpp</title>
<polygon fill="#ffffff" stroke="transparent" points="-4,4 -4,-259 300.6643,-259 300.6643,4 -4,4"/>
<!-- Node0 -->
<g id="node1" class="node">
<title>Node0</title>
<polygon fill="#bfbfbf" stroke="#000000" points="126.1643,-235.5 126.1643,-254.5 235.1643,-254.5 235.1643,-235.5 126.1643,-235.5"/>
<text text-anchor="middle" x="180.6643" y="-242.5" font-family="Helvetica,sans-Serif" font-size="10.00" fill="#000000">lib/src/lmi_oracle.cpp</text>
</g>
<!-- Node1 -->
<g id="node2" class="node">
<title>Node1</title>
<g id="a_node2"><a xlink:href="lmi__oracle_8hpp.html" target="_top" xlink:title="ellcpp/oracles/lmi\l_oracle.hpp">
<polygon fill="#ffffff" stroke="#000000" points="63.6643,-168.5 63.6643,-198.5 155.6643,-198.5 155.6643,-168.5 63.6643,-168.5"/>
<text text-anchor="start" x="71.6643" y="-186.5" font-family="Helvetica,sans-Serif" font-size="10.00" fill="#000000">ellcpp/oracles/lmi</text>
<text text-anchor="middle" x="109.6643" y="-175.5" font-family="Helvetica,sans-Serif" font-size="10.00" fill="#000000">_oracle.hpp</text>
</a>
</g>
</g>
<!-- Node0&#45;&gt;Node1 -->
<g id="edge1" class="edge">
<title>Node0&#45;&gt;Node1</title>
<path fill="none" stroke="#191970" d="M169.5706,-235.3906C160.3175,-227.3756 146.7767,-215.6466 134.9087,-205.3666"/>
<polygon fill="#191970" stroke="#191970" points="136.8831,-202.4464 127.0329,-198.5446 132.3,-207.7374 136.8831,-202.4464"/>
</g>
<!-- Node3 -->
<g id="node4" class="node">
<title>Node3</title>
<g id="a_node4"><a xlink:href="utility_8hpp.html" target="_top" xlink:title="ellcpp/utility.hpp">
<polygon fill="#ffffff" stroke="#000000" points="209.1643,-56.5 209.1643,-75.5 296.1643,-75.5 296.1643,-56.5 209.1643,-56.5"/>
<text text-anchor="middle" x="252.6643" y="-63.5" font-family="Helvetica,sans-Serif" font-size="10.00" fill="#000000">ellcpp/utility.hpp</text>
</a>
</g>
</g>
<!-- Node0&#45;&gt;Node3 -->
<g id="edge11" class="edge">
<title>Node0&#45;&gt;Node3</title>
<path fill="none" stroke="#191970" d="M185.8828,-235.2508C196.0654,-215.9543 218.878,-171.351 233.6643,-132 239.4312,-116.6526 244.4844,-98.7516 247.9269,-85.4676"/>
<polygon fill="#191970" stroke="#191970" points="251.3758,-86.104 250.4201,-75.5524 244.5871,-84.3969 251.3758,-86.104"/>
</g>
<!-- Node2 -->
<g id="node3" class="node">
<title>Node2</title>
<g id="a_node3"><a xlink:href="chol__ext_8hpp.html" target="_top" xlink:title="chol_ext.hpp">
<polygon fill="#ffffff" stroke="#000000" points="152.6643,-112.5 152.6643,-131.5 224.6643,-131.5 224.6643,-112.5 152.6643,-112.5"/>
<text text-anchor="middle" x="188.6643" y="-119.5" font-family="Helvetica,sans-Serif" font-size="10.00" fill="#000000">chol_ext.hpp</text>
</a>
</g>
</g>
<!-- Node1&#45;&gt;Node2 -->
<g id="edge2" class="edge">
<title>Node1&#45;&gt;Node2</title>
<path fill="none" stroke="#191970" d="M129.1924,-168.2977C140.958,-159.1384 155.9318,-147.4816 167.9108,-138.1562"/>
<polygon fill="#191970" stroke="#191970" points="170.2746,-140.7516 176.0154,-131.8469 165.9746,-135.228 170.2746,-140.7516"/>
</g>
<!-- Node5 -->
<g id="node6" class="node">
<title>Node5</title>
<polygon fill="#ffffff" stroke="#bfbfbf" points="118.6643,-.5 118.6643,-19.5 216.6643,-19.5 216.6643,-.5 118.6643,-.5"/>
<text text-anchor="middle" x="167.6643" y="-7.5" font-family="Helvetica,sans-Serif" font-size="10.00" fill="#000000">xtensor/xarray.hpp</text>
</g>
<!-- Node1&#45;&gt;Node5 -->
<g id="edge10" class="edge">
<title>Node1&#45;&gt;Node5</title>
<path fill="none" stroke="#191970" d="M63.3324,-172.3958C28.1087,-161.3936 -11.8663,-141.829 3.6643,-112 28.0543,-65.1553 84.5169,-37.3416 124.3512,-22.8742"/>
<polygon fill="#191970" stroke="#191970" points="125.5491,-26.1632 133.8381,-19.5645 123.2433,-19.5539 125.5491,-26.1632"/>
</g>
<!-- Node7 -->
<g id="node8" class="node">
<title>Node7</title>
<polygon fill="#ffffff" stroke="#bfbfbf" points="13.1643,-112.5 13.1643,-131.5 66.1643,-131.5 66.1643,-112.5 13.1643,-112.5"/>
<text text-anchor="middle" x="39.6643" y="-119.5" font-family="Helvetica,sans-Serif" font-size="10.00" fill="#000000">gsl/span</text>
</g>
<!-- Node1&#45;&gt;Node7 -->
<g id="edge8" class="edge">
<title>Node1&#45;&gt;Node7</title>
<path fill="none" stroke="#191970" d="M92.3609,-168.2977C82.1381,-159.3163 69.182,-147.9334 58.6748,-138.702"/>
<polygon fill="#191970" stroke="#191970" points="60.6948,-135.8178 50.8722,-131.8469 56.0746,-141.0766 60.6948,-135.8178"/>
</g>
<!-- Node8 -->
<g id="node9" class="node">
<title>Node8</title>
<polygon fill="#ffffff" stroke="#bfbfbf" points="84.6643,-112.5 84.6643,-131.5 134.6643,-131.5 134.6643,-112.5 84.6643,-112.5"/>
<text text-anchor="middle" x="109.6643" y="-119.5" font-family="Helvetica,sans-Serif" font-size="10.00" fill="#000000">optional</text>
</g>
<!-- Node1&#45;&gt;Node8 -->
<g id="edge9" class="edge">
<title>Node1&#45;&gt;Node8</title>
<path fill="none" stroke="#191970" d="M109.6643,-168.2977C109.6643,-160.3834 109.6643,-150.6043 109.6643,-142.0759"/>
<polygon fill="#191970" stroke="#191970" points="113.1644,-141.8469 109.6643,-131.8469 106.1644,-141.847 113.1644,-141.8469"/>
</g>
<!-- Node2&#45;&gt;Node3 -->
<g id="edge3" class="edge">
<title>Node2&#45;&gt;Node3</title>
<path fill="none" stroke="#191970" d="M199.8123,-112.2455C209.173,-104.0549 222.7501,-92.1749 233.7993,-82.5069"/>
<polygon fill="#191970" stroke="#191970" points="236.4231,-84.8618 241.6441,-75.6427 231.8136,-79.5937 236.4231,-84.8618"/>
</g>
<!-- Node2&#45;&gt;Node5 -->
<g id="edge7" class="edge">
<title>Node2&#45;&gt;Node5</title>
<path fill="none" stroke="#191970" d="M186.8739,-112.4509C183.4333,-94.1013 175.8376,-53.5908 171.2961,-29.3693"/>
<polygon fill="#191970" stroke="#191970" points="174.7333,-28.7086 169.4502,-19.5249 167.8532,-29.9986 174.7333,-28.7086"/>
</g>
<!-- Node6 -->
<g id="node7" class="node">
<title>Node6</title>
<polygon fill="#ffffff" stroke="#bfbfbf" points="93.1643,-56.5 93.1643,-75.5 152.1643,-75.5 152.1643,-56.5 93.1643,-56.5"/>
<text text-anchor="middle" x="122.6643" y="-63.5" font-family="Helvetica,sans-Serif" font-size="10.00" fill="#000000">stdexcept</text>
</g>
<!-- Node2&#45;&gt;Node6 -->
<g id="edge6" class="edge">
<title>Node2&#45;&gt;Node6</title>
<path fill="none" stroke="#191970" d="M177.168,-112.2455C167.4201,-103.9746 153.2384,-91.9416 141.7845,-82.2232"/>
<polygon fill="#191970" stroke="#191970" points="143.9184,-79.4437 134.0289,-75.6427 139.3896,-84.7813 143.9184,-79.4437"/>
</g>
<!-- Node4 -->
<g id="node5" class="node">
<title>Node4</title>
<polygon fill="#ffffff" stroke="#bfbfbf" points="234.6643,-.5 234.6643,-19.5 296.6643,-19.5 296.6643,-.5 234.6643,-.5"/>
<text text-anchor="middle" x="265.6643" y="-7.5" font-family="Helvetica,sans-Serif" font-size="10.00" fill="#000000">type_traits</text>
</g>
<!-- Node3&#45;&gt;Node4 -->
<g id="edge4" class="edge">
<title>Node3&#45;&gt;Node4</title>
<path fill="none" stroke="#191970" d="M254.9287,-56.2455C256.6437,-48.8579 259.0555,-38.4689 261.1587,-29.4087"/>
<polygon fill="#191970" stroke="#191970" points="264.5738,-30.1751 263.4258,-19.6427 257.7551,-28.5922 264.5738,-30.1751"/>
</g>
<!-- Node3&#45;&gt;Node5 -->
<g id="edge5" class="edge">
<title>Node3&#45;&gt;Node5</title>
<path fill="none" stroke="#191970" d="M237.8585,-56.2455C224.9387,-47.7337 205.9712,-35.2375 191.0091,-25.3801"/>
<polygon fill="#191970" stroke="#191970" points="192.5767,-22.2216 182.3005,-19.6427 188.7256,-28.067 192.5767,-22.2216"/>
</g>
</g>
</svg>
