<?xml version="1.0" encoding="UTF-8" standalone="no"?>
<!DOCTYPE svg PUBLIC "-//W3C//DTD SVG 1.1//EN"
 "http://www.w3.org/Graphics/SVG/1.1/DTD/svg11.dtd">
<!-- Generated by graphviz version 2.40.1 (20161225.0304)
 -->
<!-- Title: construct_poly_matrix Pages: 1 -->
<svg width="348pt" height="104pt"
 viewBox="0.00 0.00 348.00 104.00" xmlns="http://www.w3.org/2000/svg" xmlns:xlink="http://www.w3.org/1999/xlink">
<g id="graph0" class="graph" transform="scale(1 1) rotate(0) translate(4 100)">
<title>construct_poly_matrix</title>
<polygon fill="#ffffff" stroke="transparent" points="-4,4 -4,-100 344,-100 344,4 -4,4"/>
<!-- Node16 -->
<g id="node1" class="node">
<title>Node16</title>
<polygon fill="#bfbfbf" stroke="#000000" points="0,-38.5 0,-57.5 113,-57.5 113,-38.5 0,-38.5"/>
<text text-anchor="middle" x="56.5" y="-45.5" font-family="Helvetica,sans-Serif" font-size="10.00" fill="#000000">construct_poly_matrix</text>
</g>
<!-- Node17 -->
<g id="node2" class="node">
<title>Node17</title>
<g id="a_node2"><a xlink:href="lsq__corr__ell_8cpp.html#af5c9ca8e9e1c67d1c859fc54ea6eb836" target="_top" xlink:title="lsq_corr_poly">
<polygon fill="#ffffff" stroke="#000000" points="152,-76.5 152,-95.5 226,-95.5 226,-76.5 152,-76.5"/>
<text text-anchor="middle" x="189" y="-83.5" font-family="Helvetica,sans-Serif" font-size="10.00" fill="#000000">lsq_corr_poly</text>
</a>
</g>
</g>
<!-- Node16&#45;&gt;Node17 -->
<g id="edge1" class="edge">
<title>Node16&#45;&gt;Node17</title>
<path fill="none" stroke="#191970" d="M99.7039,-60.3906C117.8492,-65.5945 138.6294,-71.5541 155.5754,-76.4141"/>
<polygon fill="#191970" stroke="#191970" points="100.5127,-56.9815 89.9353,-57.589 98.5829,-63.7102 100.5127,-56.9815"/>
</g>
<!-- Node18 -->
<g id="node3" class="node">
<title>Node18</title>
<g id="a_node3"><a xlink:href="corr__fn__ell_8cpp.html#a6ef494bfe01e16b424356fd36008d285" target="_top" xlink:title="lsq_corr_poly2">
<polygon fill="#ffffff" stroke="#000000" points="149,-38.5 149,-57.5 229,-57.5 229,-38.5 149,-38.5"/>
<text text-anchor="middle" x="189" y="-45.5" font-family="Helvetica,sans-Serif" font-size="10.00" fill="#000000">lsq_corr_poly2</text>
</a>
</g>
</g>
<!-- Node16&#45;&gt;Node18 -->
<g id="edge2" class="edge">
<title>Node16&#45;&gt;Node18</title>
<path fill="none" stroke="#191970" d="M123.2317,-48C131.9087,-48 140.5746,-48 148.6342,-48"/>
<polygon fill="#191970" stroke="#191970" points="123.0763,-44.5001 113.0763,-48 123.0762,-51.5001 123.0763,-44.5001"/>
</g>
<!-- Node20 -->
<g id="node5" class="node">
<title>Node20</title>
<g id="a_node5"><a xlink:href="corr__fn__ell_8cpp.html#aa75b309f976ce7c26224ef4e0a5fd374" target="_top" xlink:title="mle_corr_poly">
<polygon fill="#ffffff" stroke="#000000" points="150.5,-.5 150.5,-19.5 227.5,-19.5 227.5,-.5 150.5,-.5"/>
<text text-anchor="middle" x="189" y="-7.5" font-family="Helvetica,sans-Serif" font-size="10.00" fill="#000000">mle_corr_poly</text>
</a>
</g>
</g>
<!-- Node16&#45;&gt;Node20 -->
<g id="edge4" class="edge">
<title>Node16&#45;&gt;Node20</title>
<path fill="none" stroke="#191970" d="M99.7039,-35.6094C117.8492,-30.4055 138.6294,-24.4459 155.5754,-19.5859"/>
<polygon fill="#191970" stroke="#191970" points="98.5829,-32.2898 89.9353,-38.411 100.5127,-39.0185 98.5829,-32.2898"/>
</g>
<!-- Node19 -->
<g id="node4" class="node">
<title>Node19</title>
<g id="a_node4"><a xlink:href="corr__fn__ell_8cpp.html#a81c9df61833f0dcc6a7cf2412f2872cd" target="_top" xlink:title="TEST_CASE">
<polygon fill="#ffffff" stroke="#000000" points="265,-38.5 265,-57.5 340,-57.5 340,-38.5 265,-38.5"/>
<text text-anchor="middle" x="302.5" y="-45.5" font-family="Helvetica,sans-Serif" font-size="10.00" fill="#000000">TEST_CASE</text>
</a>
</g>
</g>
<!-- Node18&#45;&gt;Node19 -->
<g id="edge3" class="edge">
<title>Node18&#45;&gt;Node19</title>
<path fill="none" stroke="#191970" d="M239.2933,-48C247.843,-48 256.5908,-48 264.7468,-48"/>
<polygon fill="#191970" stroke="#191970" points="239.0159,-44.5001 229.0159,-48 239.0158,-51.5001 239.0159,-44.5001"/>
</g>
<!-- Node21 -->
<g id="node6" class="node">
<title>Node21</title>
<g id="a_node6"><a xlink:href="corr__fn__ell_8cpp.html#a1b3635c3766472722bdc7bda665a617c" target="_top" xlink:title="TEST_CASE">
<polygon fill="#ffffff" stroke="#000000" points="265,-.5 265,-19.5 340,-19.5 340,-.5 265,-.5"/>
<text text-anchor="middle" x="302.5" y="-7.5" font-family="Helvetica,sans-Serif" font-size="10.00" fill="#000000">TEST_CASE</text>
</a>
</g>
</g>
<!-- Node20&#45;&gt;Node21 -->
<g id="edge5" class="edge">
<title>Node20&#45;&gt;Node21</title>
<path fill="none" stroke="#191970" d="M237.7577,-10C246.7755,-10 256.0682,-10 264.7,-10"/>
<polygon fill="#191970" stroke="#191970" points="237.7428,-6.5001 227.7428,-10 237.7428,-13.5001 237.7428,-6.5001"/>
</g>
</g>
</svg>
