<?xml version="1.0" encoding="UTF-8" standalone="no"?>
<!DOCTYPE svg PUBLIC "-//W3C//DTD SVG 1.1//EN"
 "http://www.w3.org/Graphics/SVG/1.1/DTD/svg11.dtd">
<!-- Generated by graphviz version 2.40.1 (20161225.0304)
 -->
<!-- Title: construct_distance_matrix Pages: 1 -->
<svg width="301pt" height="66pt"
 viewBox="0.00 0.00 301.00 66.00" xmlns="http://www.w3.org/2000/svg" xmlns:xlink="http://www.w3.org/1999/xlink">
<g id="graph0" class="graph" transform="scale(1 1) rotate(0) translate(4 62)">
<title>construct_distance_matrix</title>
<polygon fill="#ffffff" stroke="transparent" points="-4,4 -4,-62 297,-62 297,4 -4,4"/>
<!-- Node0 -->
<g id="node1" class="node">
<title>Node0</title>
<polygon fill="#bfbfbf" stroke="#000000" points="0,-14 0,-44 99,-44 99,-14 0,-14"/>
<text text-anchor="start" x="8" y="-32" font-family="Helvetica,sans-Serif" font-size="10.00" fill="#000000">construct_distance</text>
<text text-anchor="middle" x="49.5" y="-21" font-family="Helvetica,sans-Serif" font-size="10.00" fill="#000000">_matrix</text>
</g>
<!-- Node1 -->
<g id="node2" class="node">
<title>Node1</title>
<g id="a_node2"><a xlink:href="monomial_8hpp.html#aac228420ac44c1280baec6bfd23e034c" target="_top" xlink:title="Square root. ">
<polygon fill="#ffffff" stroke="#000000" points="139,-38.5 139,-57.5 172,-57.5 172,-38.5 139,-38.5"/>
<text text-anchor="middle" x="155.5" y="-45.5" font-family="Helvetica,sans-Serif" font-size="10.00" fill="#000000">sqrt</text>
</a>
</g>
</g>
<!-- Node0&#45;&gt;Node1 -->
<g id="edge1" class="edge">
<title>Node0&#45;&gt;Node1</title>
<path fill="none" stroke="#191970" d="M99.0861,-37.8881C109.3102,-39.7207 119.7045,-41.5838 128.7385,-43.2031"/>
<polygon fill="#191970" stroke="#191970" points="128.1664,-46.6563 138.6271,-44.9756 129.4015,-39.7661 128.1664,-46.6563"/>
</g>
<!-- Node3 -->
<g id="node4" class="node">
<title>Node3</title>
<g id="a_node4"><a xlink:href="utility_8hpp.html#ae3041aeb9cef3e9f4416c91d3d43f86a" target="_top" xlink:title="zeros">
<polygon fill="#ffffff" stroke="#000000" points="135,-.5 135,-19.5 176,-19.5 176,-.5 135,-.5"/>
<text text-anchor="middle" x="155.5" y="-7.5" font-family="Helvetica,sans-Serif" font-size="10.00" fill="#000000">zeros</text>
</a>
</g>
</g>
<!-- Node0&#45;&gt;Node3 -->
<g id="edge3" class="edge">
<title>Node0&#45;&gt;Node3</title>
<path fill="none" stroke="#191970" d="M99.0861,-20.1119C107.8529,-18.5405 116.7447,-16.9467 124.7969,-15.5034"/>
<polygon fill="#191970" stroke="#191970" points="125.5918,-18.9168 134.8174,-13.7073 124.3567,-12.0266 125.5918,-18.9168"/>
</g>
<!-- Node2 -->
<g id="node3" class="node">
<title>Node2</title>
<g id="a_node3"><a xlink:href="classmonomial.html#ac34f9253980541a1050dc2301af35126" target="_top" xlink:title="Square root. ">
<polygon fill="#ffffff" stroke="#000000" points="212,-38.5 212,-57.5 293,-57.5 293,-38.5 212,-38.5"/>
<text text-anchor="middle" x="252.5" y="-45.5" font-family="Helvetica,sans-Serif" font-size="10.00" fill="#000000">monomial::sqrt</text>
</a>
</g>
</g>
<!-- Node1&#45;&gt;Node2 -->
<g id="edge2" class="edge">
<title>Node1&#45;&gt;Node2</title>
<path fill="none" stroke="#191970" d="M172.3961,-48C180.6229,-48 190.9984,-48 201.5296,-48"/>
<polygon fill="#191970" stroke="#191970" points="201.6093,-51.5001 211.6093,-48 201.6092,-44.5001 201.6093,-51.5001"/>
</g>
</g>
</svg>
