<?xml version="1.0" encoding="UTF-8" standalone="no"?>
<!DOCTYPE svg PUBLIC "-//W3C//DTD SVG 1.1//EN"
 "http://www.w3.org/Graphics/SVG/1.1/DTD/svg11.dtd">
<!-- Generated by graphviz version 2.40.1 (20161225.0304)
 -->
<!-- Title: lsq_corr_poly Pages: 1 -->
<!--zoomable 104 -->
<svg id="main" version="1.1" xmlns="http://www.w3.org/2000/svg" xmlns:xlink="http://www.w3.org/1999/xlink" xml:space="preserve" onload="init(evt)">
<style type="text/css"><![CDATA[
.edge:hover path { stroke: red; }
.edge:hover polygon { stroke: red; fill: red; }
]]></style>
<script type="text/javascript"><![CDATA[
var edges = document.getElementsByTagName('g');
if (edges && edges.length) {
  for (var i=0;i<edges.length;i++) {
    if (edges[i].id.substr(0,4)=='edge') {
      edges[i].setAttribute('class','edge');
    }
  }
}
]]></script>
        <defs>
                <circle id="rim" cx="0" cy="0" r="7"/>
                <circle id="rim2" cx="0" cy="0" r="3.5"/>
                <g id="zoomPlus">
                        <use xlink:href="#rim" fill="#404040">
                                <set attributeName="fill" to="#808080" begin="zoomplus.mouseover" end="zoomplus.mouseout"/>
                        </use>
                        <path d="M-4,0h8M0,-4v8" fill="none" stroke="white" stroke-width="1.5" pointer-events="none"/>
                </g>
                <g id="zoomMin">
                        <use xlink:href="#rim" fill="#404040">
                                <set attributeName="fill" to="#808080" begin="zoomminus.mouseover" end="zoomminus.mouseout"/>
                        </use>
                        <path d="M-4,0h8" fill="none" stroke="white" stroke-width="1.5" pointer-events="none"/>
                </g>
                <g id="dirArrow">
                        <path fill="none" stroke="white" stroke-width="1.5" d="M0,-3.0v7 M-2.5,-0.5L0,-3.0L2.5,-0.5"/>
                </g>
               <g id="resetDef">
                       <use xlink:href="#rim2" fill="#404040">
                               <set attributeName="fill" to="#808080" begin="reset.mouseover" end="reset.mouseout"/>
                       </use>
               </g>
        </defs>

<script type="text/javascript">
var viewWidth = 560;
var viewHeight = 104;
var sectionId = 'dynsection-10';
</script>
<script xlink:href="svgpan.js"/>
<svg id="graph" class="graph">
<g id="viewport">
<title>lsq_corr_poly</title>
<polygon fill="#ffffff" stroke="transparent" points="-4,4 -4,-100 556,-100 556,4 -4,4"/>
<!-- Node43 -->
<g id="node1" class="node">
<title>Node43</title>
<polygon fill="#bfbfbf" stroke="#000000" points="0,-38.5 0,-57.5 74,-57.5 74,-38.5 0,-38.5"/>
<text text-anchor="middle" x="37" y="-45.5" font-family="Helvetica,sans-Serif" font-size="10.00" fill="#000000">lsq_corr_poly</text>
</g>
<!-- Node44 -->
<g id="node2" class="node">
<title>Node44</title>
<g id="a_node2"><a xlink:href="cutting__plane_8hpp.html#a240729140329210fca60fedadf806b56" target="_top" xlink:title="bsearch">
<polygon fill="#ffffff" stroke="#000000" points="141,-76.5 141,-95.5 192,-95.5 192,-76.5 141,-76.5"/>
<text text-anchor="middle" x="166.5" y="-83.5" font-family="Helvetica,sans-Serif" font-size="10.00" fill="#000000">bsearch</text>
</a>
</g>
</g>
<!-- Node43&#45;&gt;Node44 -->
<g id="edge1" class="edge">
<title>Node43&#45;&gt;Node44</title>
<path fill="none" stroke="#191970" d="M69.6783,-57.589C88.3513,-63.0683 111.7851,-69.9447 130.9212,-75.5599"/>
<polygon fill="#191970" stroke="#191970" points="130.1889,-78.9925 140.7698,-78.4498 132.1599,-72.2757 130.1889,-78.9925"/>
</g>
<!-- Node45 -->
<g id="node3" class="node">
<title>Node45</title>
<g id="a_node3"><a xlink:href="lsq__corr__ell_8cpp.html#aa75b5fa6c5c6c0583b84a969c5bb5038" target="_top" xlink:title="Construct distance matrix for polynomial. ">
<polygon fill="#ffffff" stroke="#000000" points="110,-38.5 110,-57.5 223,-57.5 223,-38.5 110,-38.5"/>
<text text-anchor="middle" x="166.5" y="-45.5" font-family="Helvetica,sans-Serif" font-size="10.00" fill="#000000">construct_poly_matrix</text>
</a>
</g>
</g>
<!-- Node43&#45;&gt;Node45 -->
<g id="edge2" class="edge">
<title>Node43&#45;&gt;Node45</title>
<path fill="none" stroke="#191970" d="M74.1095,-48C82.06,-48 90.6949,-48 99.3868,-48"/>
<polygon fill="#191970" stroke="#191970" points="99.5787,-51.5001 109.5787,-48 99.5787,-44.5001 99.5787,-51.5001"/>
</g>
<!-- Node49 -->
<g id="node7" class="node">
<title>Node49</title>
<g id="a_node7"><a xlink:href="utility_8hpp.html#ae3041aeb9cef3e9f4416c91d3d43f86a" target="_top" xlink:title="zeros">
<polygon fill="#ffffff" stroke="#000000" points="394,-.5 394,-19.5 435,-19.5 435,-.5 394,-.5"/>
<text text-anchor="middle" x="414.5" y="-7.5" font-family="Helvetica,sans-Serif" font-size="10.00" fill="#000000">zeros</text>
</a>
</g>
</g>
<!-- Node43&#45;&gt;Node49 -->
<g id="edge7" class="edge">
<title>Node43&#45;&gt;Node49</title>
<path fill="none" stroke="#191970" d="M68.3396,-38.4304C81.1399,-34.8933 96.163,-31.2113 110,-29 209.0501,-13.1707 328.1862,-10.3635 383.4885,-9.9744"/>
<polygon fill="#191970" stroke="#191970" points="383.6899,-13.4736 393.673,-9.9257 383.6564,-6.4737 383.6899,-13.4736"/>
</g>
<!-- Node46 -->
<g id="node4" class="node">
<title>Node46</title>
<g id="a_node4"><a xlink:href="lsq__corr__ell_8cpp.html#af9bab536d9bcc0cea715587fbf597ae2" target="_top" xlink:title="Construct a distance matrix object. ">
<polygon fill="#ffffff" stroke="#000000" points="259,-36 259,-66 358,-66 358,-36 259,-36"/>
<text text-anchor="start" x="267" y="-54" font-family="Helvetica,sans-Serif" font-size="10.00" fill="#000000">construct_distance</text>
<text text-anchor="middle" x="308.5" y="-43" font-family="Helvetica,sans-Serif" font-size="10.00" fill="#000000">_matrix</text>
</a>
</g>
</g>
<!-- Node45&#45;&gt;Node46 -->
<g id="edge3" class="edge">
<title>Node45&#45;&gt;Node46</title>
<path fill="none" stroke="#191970" d="M223.0302,-49.1943C231.388,-49.3709 240.0251,-49.5533 248.4514,-49.7314"/>
<polygon fill="#191970" stroke="#191970" points="248.5204,-53.2335 258.5921,-49.9456 248.6683,-46.2351 248.5204,-53.2335"/>
</g>
<!-- Node47 -->
<g id="node5" class="node">
<title>Node47</title>
<g id="a_node5"><a xlink:href="monomial_8hpp.html#aac228420ac44c1280baec6bfd23e034c" target="_top" xlink:title="Square root. ">
<polygon fill="#ffffff" stroke="#000000" points="398,-41.5 398,-60.5 431,-60.5 431,-41.5 398,-41.5"/>
<text text-anchor="middle" x="414.5" y="-48.5" font-family="Helvetica,sans-Serif" font-size="10.00" fill="#000000">sqrt</text>
</a>
</g>
</g>
<!-- Node46&#45;&gt;Node47 -->
<g id="edge4" class="edge">
<title>Node46&#45;&gt;Node47</title>
<path fill="none" stroke="#191970" d="M358.0861,-51C368.1991,-51 378.4785,-51 387.4434,-51"/>
<polygon fill="#191970" stroke="#191970" points="387.6271,-54.5001 397.6271,-51 387.6271,-47.5001 387.6271,-54.5001"/>
</g>
<!-- Node46&#45;&gt;Node49 -->
<g id="edge6" class="edge">
<title>Node46&#45;&gt;Node49</title>
<path fill="none" stroke="#191970" d="M347.3686,-35.9659C359.5247,-31.264 372.7509,-26.1483 384.2243,-21.7104"/>
<polygon fill="#191970" stroke="#191970" points="385.7209,-24.8843 393.7849,-18.0125 383.1956,-18.3557 385.7209,-24.8843"/>
</g>
<!-- Node48 -->
<g id="node6" class="node">
<title>Node48</title>
<g id="a_node6"><a xlink:href="classmonomial.html#ac34f9253980541a1050dc2301af35126" target="_top" xlink:title="Square root. ">
<polygon fill="#ffffff" stroke="#000000" points="471,-41.5 471,-60.5 552,-60.5 552,-41.5 471,-41.5"/>
<text text-anchor="middle" x="511.5" y="-48.5" font-family="Helvetica,sans-Serif" font-size="10.00" fill="#000000">monomial::sqrt</text>
</a>
</g>
</g>
<!-- Node47&#45;&gt;Node48 -->
<g id="edge5" class="edge">
<title>Node47&#45;&gt;Node48</title>
<path fill="none" stroke="#191970" d="M431.3961,-51C439.6229,-51 449.9984,-51 460.5296,-51"/>
<polygon fill="#191970" stroke="#191970" points="460.6093,-54.5001 470.6093,-51 460.6092,-47.5001 460.6093,-54.5001"/>
</g>
</g>
</svg>
        <g id="navigator" transform="translate(0 0)" fill="#404254">
                <rect fill="#f2f5e9" fill-opacity="0.5" stroke="#606060" stroke-width=".5" x="0" y="0" width="60" height="60"/>
                <use id="zoomplus" xlink:href="#zoomPlus" x="17" y="9" onmousedown="handleZoom(evt,'in')"/>
                <use id="zoomminus" xlink:href="#zoomMin" x="42" y="9" onmousedown="handleZoom(evt,'out')"/>
                <use id="reset" xlink:href="#resetDef" x="30" y="36" onmousedown="handleReset()"/>
                <g id="arrowUp" xlink:href="#dirArrow" transform="translate(30 24)" onmousedown="handlePan(0,-1)">
                  <use xlink:href="#rim" fill="#404040">
                        <set attributeName="fill" to="#808080" begin="arrowUp.mouseover" end="arrowUp.mouseout"/>
                  </use>
                  <path fill="none" stroke="white" stroke-width="1.5" d="M0,-3.0v7 M-2.5,-0.5L0,-3.0L2.5,-0.5"/>
                </g>
                <g id="arrowRight" xlink:href="#dirArrow" transform="rotate(90) translate(36 -43)" onmousedown="handlePan(1,0)">
                  <use xlink:href="#rim" fill="#404040">
                        <set attributeName="fill" to="#808080" begin="arrowRight.mouseover" end="arrowRight.mouseout"/>
                  </use>
                  <path fill="none" stroke="white" stroke-width="1.5" d="M0,-3.0v7 M-2.5,-0.5L0,-3.0L2.5,-0.5"/>
                </g>
                <g id="arrowDown" xlink:href="#dirArrow" transform="rotate(180) translate(-30 -48)" onmousedown="handlePan(0,1)">
                  <use xlink:href="#rim" fill="#404040">
                        <set attributeName="fill" to="#808080" begin="arrowDown.mouseover" end="arrowDown.mouseout"/>
                  </use>
                  <path fill="none" stroke="white" stroke-width="1.5" d="M0,-3.0v7 M-2.5,-0.5L0,-3.0L2.5,-0.5"/>
                </g>
                <g id="arrowLeft" xlink:href="#dirArrow" transform="rotate(270) translate(-36 17)" onmousedown="handlePan(-1,0)">
                  <use xlink:href="#rim" fill="#404040">
                        <set attributeName="fill" to="#808080" begin="arrowLeft.mouseover" end="arrowLeft.mouseout"/>
                  </use>
                  <path fill="none" stroke="white" stroke-width="1.5" d="M0,-3.0v7 M-2.5,-0.5L0,-3.0L2.5,-0.5"/>
                </g>
        </g>
        <svg viewBox="0 0 15 15" width="100%" height="30px" preserveAspectRatio="xMaxYMin meet">
         <g id="arrow_out" transform="scale(0.3 0.3)">
          <a xlink:href="lsq__corr__ell_8cpp_af5c9ca8e9e1c67d1c859fc54ea6eb836_cgraph_org.svg" target="_base">
           <rect id="button" ry="5" rx="5" y="6" x="6" height="38" width="38"
                fill="#f2f5e9" fill-opacity="0.5" stroke="#606060" stroke-width="1.0"/>
           <path id="arrow"
             d="M 11.500037,31.436501 C 11.940474,20.09759 22.043105,11.32322 32.158766,21.979434 L 37.068811,17.246167 C 37.068811,17.246167 37.088388,32 37.088388,32 L 22.160133,31.978069 C 22.160133,31.978069 26.997745,27.140456 26.997745,27.140456 C 18.528582,18.264221 13.291696,25.230495 11.500037,31.436501 z"
             style="fill:#404040;"/>
          </a>
         </g>
        </svg>
</svg>
