<?xml version="1.0" encoding="UTF-8" standalone="no"?>
<!DOCTYPE svg PUBLIC "-//W3C//DTD SVG 1.1//EN"
 "http://www.w3.org/Graphics/SVG/1.1/DTD/svg11.dtd">
<!-- Generated by graphviz version 2.40.1 (20161225.0304)
 -->
<!-- Title: mle_corr_core Pages: 1 -->
<svg width="212pt" height="104pt"
 viewBox="0.00 0.00 212.00 104.00" xmlns="http://www.w3.org/2000/svg" xmlns:xlink="http://www.w3.org/1999/xlink">
<g id="graph0" class="graph" transform="scale(1 1) rotate(0) translate(4 100)">
<title>mle_corr_core</title>
<polygon fill="#ffffff" stroke="transparent" points="-4,4 -4,-100 208,-100 208,4 -4,4"/>
<!-- Node66 -->
<g id="node1" class="node">
<title>Node66</title>
<polygon fill="#bfbfbf" stroke="#000000" points="0,-38.5 0,-57.5 78,-57.5 78,-38.5 0,-38.5"/>
<text text-anchor="middle" x="39" y="-45.5" font-family="Helvetica,sans-Serif" font-size="10.00" fill="#000000">mle_corr_core</text>
</g>
<!-- Node67 -->
<g id="node2" class="node">
<title>Node67</title>
<g id="a_node2"><a xlink:href="cutting__plane_8hpp.html#af4c62406049b0dac9f9f8733fa2ad6af" target="_top" xlink:title="Cutting&#45;plane method for solving convex problem. ">
<polygon fill="#ffffff" stroke="#000000" points="114,-76.5 114,-95.5 204,-95.5 204,-76.5 114,-76.5"/>
<text text-anchor="middle" x="159" y="-83.5" font-family="Helvetica,sans-Serif" font-size="10.00" fill="#000000">cutting_plane_dc</text>
</a>
</g>
</g>
<!-- Node66&#45;&gt;Node67 -->
<g id="edge1" class="edge">
<title>Node66&#45;&gt;Node67</title>
<path fill="none" stroke="#191970" d="M69.2811,-57.589C84.3456,-62.3594 102.754,-68.1888 118.967,-73.3229"/>
<polygon fill="#191970" stroke="#191970" points="118.1385,-76.7318 128.7286,-76.4141 120.2518,-70.0584 118.1385,-76.7318"/>
</g>
<!-- Node68 -->
<g id="node3" class="node">
<title>Node68</title>
<g id="a_node3"><a xlink:href="rgp__yalaa_8cpp.html#a4b42040f2f10532d8bd23cb5c6c0a370" target="_top" xlink:title="max">
<polygon fill="#ffffff" stroke="#000000" points="141.5,-38.5 141.5,-57.5 176.5,-57.5 176.5,-38.5 141.5,-38.5"/>
<text text-anchor="middle" x="159" y="-45.5" font-family="Helvetica,sans-Serif" font-size="10.00" fill="#000000">max</text>
</a>
</g>
</g>
<!-- Node66&#45;&gt;Node68 -->
<g id="edge2" class="edge">
<title>Node66&#45;&gt;Node68</title>
<path fill="none" stroke="#191970" d="M78.2925,-48C95.6201,-48 115.5741,-48 131.3059,-48"/>
<polygon fill="#191970" stroke="#191970" points="131.4386,-51.5001 141.4385,-48 131.4385,-44.5001 131.4386,-51.5001"/>
</g>
<!-- Node69 -->
<g id="node4" class="node">
<title>Node69</title>
<g id="a_node4"><a xlink:href="utility_8hpp.html#ae3041aeb9cef3e9f4416c91d3d43f86a" target="_top" xlink:title="zeros">
<polygon fill="#ffffff" stroke="#000000" points="138.5,-.5 138.5,-19.5 179.5,-19.5 179.5,-.5 138.5,-.5"/>
<text text-anchor="middle" x="159" y="-7.5" font-family="Helvetica,sans-Serif" font-size="10.00" fill="#000000">zeros</text>
</a>
</g>
</g>
<!-- Node66&#45;&gt;Node69 -->
<g id="edge3" class="edge">
<title>Node66&#45;&gt;Node69</title>
<path fill="none" stroke="#191970" d="M69.2811,-38.411C87.4418,-32.6601 110.4622,-25.3703 128.6375,-19.6148"/>
<polygon fill="#191970" stroke="#191970" points="129.6979,-22.9504 138.1747,-16.5947 127.5846,-16.277 129.6979,-22.9504"/>
</g>
</g>
</svg>
