<?xml version="1.0" encoding="UTF-8" standalone="no"?>
<!DOCTYPE svg PUBLIC "-//W3C//DTD SVG 1.1//EN"
 "http://www.w3.org/Graphics/SVG/1.1/DTD/svg11.dtd">
<!-- Generated by graphviz version 2.40.1 (20161225.0304)
 -->
<!-- Title: lsq_corr_core2 Pages: 1 -->
<svg width="325pt" height="66pt"
 viewBox="0.00 0.00 325.00 66.00" xmlns="http://www.w3.org/2000/svg" xmlns:xlink="http://www.w3.org/1999/xlink">
<g id="graph0" class="graph" transform="scale(1 1) rotate(0) translate(4 62)">
<title>lsq_corr_core2</title>
<polygon fill="#ffffff" stroke="transparent" points="-4,4 -4,-62 321,-62 321,4 -4,4"/>
<!-- Node10 -->
<g id="node1" class="node">
<title>Node10</title>
<polygon fill="#bfbfbf" stroke="#000000" points="0,-19.5 0,-38.5 80,-38.5 80,-19.5 0,-19.5"/>
<text text-anchor="middle" x="40" y="-26.5" font-family="Helvetica,sans-Serif" font-size="10.00" fill="#000000">lsq_corr_core2</text>
</g>
<!-- Node11 -->
<g id="node2" class="node">
<title>Node11</title>
<g id="a_node2"><a xlink:href="cutting__plane_8hpp.html#af4c62406049b0dac9f9f8733fa2ad6af" target="_top" xlink:title="Cutting&#45;plane method for solving convex problem. ">
<polygon fill="#ffffff" stroke="#000000" points="116,-38.5 116,-57.5 206,-57.5 206,-38.5 116,-38.5"/>
<text text-anchor="middle" x="161" y="-45.5" font-family="Helvetica,sans-Serif" font-size="10.00" fill="#000000">cutting_plane_dc</text>
</a>
</g>
</g>
<!-- Node10&#45;&gt;Node11 -->
<g id="edge1" class="edge">
<title>Node10&#45;&gt;Node11</title>
<path fill="none" stroke="#191970" d="M80.2912,-35.3267C88.4937,-36.6147 97.2562,-37.9906 105.8721,-39.3436"/>
<polygon fill="#191970" stroke="#191970" points="105.455,-42.8209 115.8769,-40.9145 106.5409,-35.9056 105.455,-42.8209"/>
</g>
<!-- Node12 -->
<g id="node3" class="node">
<title>Node12</title>
<g id="a_node3"><a xlink:href="namespacepy.html#a6c0a41716a24bed07cbf8b2d84132f96" target="_top" xlink:title="py::range">
<polygon fill="#ffffff" stroke="#000000" points="132.5,-.5 132.5,-19.5 189.5,-19.5 189.5,-.5 132.5,-.5"/>
<text text-anchor="middle" x="161" y="-7.5" font-family="Helvetica,sans-Serif" font-size="10.00" fill="#000000">py::range</text>
</a>
</g>
</g>
<!-- Node10&#45;&gt;Node12 -->
<g id="edge2" class="edge">
<title>Node10&#45;&gt;Node12</title>
<path fill="none" stroke="#191970" d="M80.2912,-22.6733C93.8776,-20.5399 109.0001,-18.1653 122.4487,-16.0535"/>
<polygon fill="#191970" stroke="#191970" points="123.0174,-19.5072 132.3534,-14.4982 121.9315,-12.5919 123.0174,-19.5072"/>
</g>
<!-- Node13 -->
<g id="node4" class="node">
<title>Node13</title>
<g id="a_node4"><a xlink:href="namespacefun.html#a501a8e4f752a46d9e2db8daa04a5ba6c" target="_top" xlink:title="fun::operator*">
<polygon fill="#ffffff" stroke="#000000" points="242,-.5 242,-19.5 317,-19.5 317,-.5 242,-.5"/>
<text text-anchor="middle" x="279.5" y="-7.5" font-family="Helvetica,sans-Serif" font-size="10.00" fill="#000000">fun::operator*</text>
</a>
</g>
</g>
<!-- Node12&#45;&gt;Node13 -->
<g id="edge3" class="edge">
<title>Node12&#45;&gt;Node13</title>
<path fill="none" stroke="#191970" d="M189.6855,-10C202.2526,-10 217.3458,-10 231.5411,-10"/>
<polygon fill="#191970" stroke="#191970" points="231.6699,-13.5001 241.6699,-10 231.6698,-6.5001 231.6699,-13.5001"/>
</g>
</g>
</svg>
