<?xml version="1.0" encoding="UTF-8" standalone="no"?>
<!DOCTYPE svg PUBLIC "-//W3C//DTD SVG 1.1//EN"
 "http://www.w3.org/Graphics/SVG/1.1/DTD/svg11.dtd">
<!-- Generated by graphviz version 2.40.1 (20161225.0304)
 -->
<!-- Title: operator* Pages: 1 -->
<!--zoomable 192 -->
<svg id="main" version="1.1" xmlns="http://www.w3.org/2000/svg" xmlns:xlink="http://www.w3.org/1999/xlink" xml:space="preserve" onload="init(evt)">
<style type="text/css"><![CDATA[
.edge:hover path { stroke: red; }
.edge:hover polygon { stroke: red; fill: red; }
]]></style>
<script type="text/javascript"><![CDATA[
var edges = document.getElementsByTagName('g');
if (edges && edges.length) {
  for (var i=0;i<edges.length;i++) {
    if (edges[i].id.substr(0,4)=='edge') {
      edges[i].setAttribute('class','edge');
    }
  }
}
]]></script>
        <defs>
                <circle id="rim" cx="0" cy="0" r="7"/>
                <circle id="rim2" cx="0" cy="0" r="3.5"/>
                <g id="zoomPlus">
                        <use xlink:href="#rim" fill="#404040">
                                <set attributeName="fill" to="#808080" begin="zoomplus.mouseover" end="zoomplus.mouseout"/>
                        </use>
                        <path d="M-4,0h8M0,-4v8" fill="none" stroke="white" stroke-width="1.5" pointer-events="none"/>
                </g>
                <g id="zoomMin">
                        <use xlink:href="#rim" fill="#404040">
                                <set attributeName="fill" to="#808080" begin="zoomminus.mouseover" end="zoomminus.mouseout"/>
                        </use>
                        <path d="M-4,0h8" fill="none" stroke="white" stroke-width="1.5" pointer-events="none"/>
                </g>
                <g id="dirArrow">
                        <path fill="none" stroke="white" stroke-width="1.5" d="M0,-3.0v7 M-2.5,-0.5L0,-3.0L2.5,-0.5"/>
                </g>
               <g id="resetDef">
                       <use xlink:href="#rim2" fill="#404040">
                               <set attributeName="fill" to="#808080" begin="reset.mouseover" end="reset.mouseout"/>
                       </use>
               </g>
        </defs>

<script type="text/javascript">
var viewWidth = 688;
var viewHeight = 192;
var sectionId = 'dynsection-2';
</script>
<script xlink:href="svgpan.js"/>
<svg id="graph" class="graph">
<g id="viewport">
<title>operator*</title>
<polygon fill="#ffffff" stroke="transparent" points="-4,4 -4,-187.5 684,-187.5 684,4 -4,4"/>
<!-- Node1 -->
<g id="node1" class="node">
<title>Node1</title>
<polygon fill="#bfbfbf" stroke="#000000" points="0,-117.5 0,-136.5 56,-136.5 56,-117.5 0,-117.5"/>
<text text-anchor="middle" x="28" y="-124.5" font-family="Helvetica,sans-Serif" font-size="10.00" fill="#000000">operator*</text>
</g>
<!-- Node2 -->
<g id="node2" class="node">
<title>Node2</title>
<g id="a_node2"><a xlink:href="namespacepy.html#a13b079f9cc2ef2797f2908169c6e24c4" target="_top" xlink:title="py::enumerate">
<polygon fill="#ffffff" stroke="#000000" points="117,-156.5 117,-175.5 196,-175.5 196,-156.5 117,-156.5"/>
<text text-anchor="middle" x="156.5" y="-163.5" font-family="Helvetica,sans-Serif" font-size="10.00" fill="#000000">py::enumerate</text>
</a>
</g>
</g>
<!-- Node1&#45;&gt;Node2 -->
<g id="edge1" class="edge">
<title>Node1&#45;&gt;Node2</title>
<path fill="none" stroke="#191970" d="M65.8958,-138.5014C84.6152,-144.1828 106.945,-150.96 124.7527,-156.3646"/>
<polygon fill="#191970" stroke="#191970" points="66.7854,-135.1138 56.1999,-135.5587 64.7524,-141.8121 66.7854,-135.1138"/>
</g>
<!-- Node5 -->
<g id="node5" class="node">
<title>Node5</title>
<g id="a_node5"><a xlink:href="structpy_1_1key__iterator.html#aa3d0870a9e5960e863d56d908be2ef66" target="_top" xlink:title="py::key_iterator::operator*">
<polygon fill="#ffffff" stroke="#000000" points="92,-117.5 92,-136.5 221,-136.5 221,-117.5 92,-117.5"/>
<text text-anchor="middle" x="156.5" y="-124.5" font-family="Helvetica,sans-Serif" font-size="10.00" fill="#000000">py::key_iterator::operator*</text>
</a>
</g>
</g>
<!-- Node1&#45;&gt;Node5 -->
<g id="edge4" class="edge">
<title>Node1&#45;&gt;Node5</title>
<path fill="none" stroke="#191970" d="M66.3385,-127C74.3764,-127 83.0642,-127 91.764,-127"/>
<polygon fill="#191970" stroke="#191970" points="66.1999,-123.5001 56.1999,-127 66.1998,-130.5001 66.1999,-123.5001"/>
</g>
<!-- Node6 -->
<g id="node6" class="node">
<title>Node6</title>
<g id="a_node6"><a xlink:href="namespacepy.html#a6c0a41716a24bed07cbf8b2d84132f96" target="_top" xlink:title="py::range">
<polygon fill="#ffffff" stroke="#000000" points="128,-76.5 128,-95.5 185,-95.5 185,-76.5 128,-76.5"/>
<text text-anchor="middle" x="156.5" y="-83.5" font-family="Helvetica,sans-Serif" font-size="10.00" fill="#000000">py::range</text>
</a>
</g>
</g>
<!-- Node1&#45;&gt;Node6 -->
<g id="edge5" class="edge">
<title>Node1&#45;&gt;Node6</title>
<path fill="none" stroke="#191970" d="M65.8674,-114.9178C85.7208,-108.5832 109.6415,-100.951 127.9218,-95.1183"/>
<polygon fill="#191970" stroke="#191970" points="64.6628,-111.6282 56.1999,-118.0024 66.7906,-118.297 64.6628,-111.6282"/>
</g>
<!-- Node3 -->
<g id="node3" class="node">
<title>Node3</title>
<g id="a_node3"><a xlink:href="classxn_1_1Graph.html#ac61f2ed63257c380e07e073a99c05659" target="_top" xlink:title="xn::Graph\&lt; nodeview\l_t, adjlist_t \&gt;::_nodes_nbrs">
<polygon fill="#ffffff" stroke="#000000" points="257,-153 257,-183 392,-183 392,-153 257,-153"/>
<text text-anchor="start" x="265" y="-171" font-family="Helvetica,sans-Serif" font-size="10.00" fill="#000000">xn::Graph&lt; nodeview</text>
<text text-anchor="middle" x="324.5" y="-160" font-family="Helvetica,sans-Serif" font-size="10.00" fill="#000000">_t, adjlist_t &gt;::_nodes_nbrs</text>
</a>
</g>
</g>
<!-- Node2&#45;&gt;Node3 -->
<g id="edge2" class="edge">
<title>Node2&#45;&gt;Node3</title>
<path fill="none" stroke="#191970" d="M206.3812,-166.5938C222.1712,-166.7818 239.899,-166.9928 256.7241,-167.1931"/>
<polygon fill="#191970" stroke="#191970" points="206.3546,-163.0934 196.3137,-166.474 206.2712,-170.0929 206.3546,-163.0934"/>
</g>
<!-- Node4 -->
<g id="node4" class="node">
<title>Node4</title>
<g id="a_node4"><a xlink:href="classxn_1_1DiGraphS.html#acdf360190e9b12ba1058d6bcf594d8eb" target="_top" xlink:title="xn::DiGraphS::edges">
<polygon fill="#ffffff" stroke="#000000" points="428,-158.5 428,-177.5 536,-177.5 536,-158.5 428,-158.5"/>
<text text-anchor="middle" x="482" y="-165.5" font-family="Helvetica,sans-Serif" font-size="10.00" fill="#000000">xn::DiGraphS::edges</text>
</a>
</g>
</g>
<!-- Node3&#45;&gt;Node4 -->
<g id="edge3" class="edge">
<title>Node3&#45;&gt;Node4</title>
<path fill="none" stroke="#191970" d="M402.2537,-168C410.838,-168 419.4381,-168 427.6458,-168"/>
<polygon fill="#191970" stroke="#191970" points="402.2083,-164.5001 392.2082,-168 402.2082,-171.5001 402.2083,-164.5001"/>
</g>
<!-- Node7 -->
<g id="node7" class="node">
<title>Node7</title>
<g id="a_node7"><a xlink:href="namespacepy.html#a60b1464018ad9d097a2657f82cd62da7" target="_top" xlink:title="py::range">
<polygon fill="#ffffff" stroke="#000000" points="296,-76.5 296,-95.5 353,-95.5 353,-76.5 296,-76.5"/>
<text text-anchor="middle" x="324.5" y="-83.5" font-family="Helvetica,sans-Serif" font-size="10.00" fill="#000000">py::range</text>
</a>
</g>
</g>
<!-- Node6&#45;&gt;Node7 -->
<g id="edge6" class="edge">
<title>Node6&#45;&gt;Node7</title>
<path fill="none" stroke="#191970" d="M195.7306,-86C226.4419,-86 268.4333,-86 295.9966,-86"/>
<polygon fill="#191970" stroke="#191970" points="195.3803,-82.5001 185.3802,-86 195.3802,-89.5001 195.3803,-82.5001"/>
</g>
<!-- Node8 -->
<g id="node8" class="node">
<title>Node8</title>
<g id="a_node8"><a xlink:href="classlsq__oracle.html#a867c30a1ae0351df3213417e37ff18ec" target="_top" xlink:title="lsq_oracle::operator()">
<polygon fill="#ffffff" stroke="#000000" points="572,-66.5 572,-85.5 680,-85.5 680,-66.5 572,-66.5"/>
<text text-anchor="middle" x="626" y="-73.5" font-family="Helvetica,sans-Serif" font-size="10.00" fill="#000000">lsq_oracle::operator()</text>
</a>
</g>
</g>
<!-- Node6&#45;&gt;Node8 -->
<g id="edge7" class="edge">
<title>Node6&#45;&gt;Node8</title>
<path fill="none" stroke="#191970" d="M195.1857,-76.936C213.764,-73.0337 236.4144,-68.9288 257,-67 368.4942,-56.5533 499.7142,-64.5625 571.7772,-70.6988"/>
<polygon fill="#191970" stroke="#191970" points="194.3572,-73.5342 185.3224,-79.0681 195.8362,-80.3762 194.3572,-73.5342"/>
</g>
<!-- Node9 -->
<g id="node9" class="node">
<title>Node9</title>
<g id="a_node9"><a xlink:href="lsq__corr__ell_8cpp.html#a233a10890259800812279af696624d11" target="_top" xlink:title="lsq_corr_core2">
<polygon fill="#ffffff" stroke="#000000" points="284.5,-.5 284.5,-19.5 364.5,-19.5 364.5,-.5 284.5,-.5"/>
<text text-anchor="middle" x="324.5" y="-7.5" font-family="Helvetica,sans-Serif" font-size="10.00" fill="#000000">lsq_corr_core2</text>
</a>
</g>
</g>
<!-- Node6&#45;&gt;Node9 -->
<g id="edge8" class="edge">
<title>Node6&#45;&gt;Node9</title>
<path fill="none" stroke="#191970" d="M182.0477,-71.5538C202.0862,-60.5253 230.8647,-45.3452 257,-34 269.2075,-28.7008 283.0024,-23.6386 294.9251,-19.5411"/>
<polygon fill="#191970" stroke="#191970" points="180.2739,-68.5353 173.23,-76.4495 183.6719,-74.6553 180.2739,-68.5353"/>
</g>
<!-- Node12 -->
<g id="node12" class="node">
<title>Node12</title>
<g id="a_node12"><a xlink:href="classqmi__oracle.html#a17a23146225c498782e66dea9f1d64ec" target="_top" xlink:title="qmi_oracle::operator()">
<polygon fill="#ffffff" stroke="#000000" points="269,-114.5 269,-133.5 380,-133.5 380,-114.5 269,-114.5"/>
<text text-anchor="middle" x="324.5" y="-121.5" font-family="Helvetica,sans-Serif" font-size="10.00" fill="#000000">qmi_oracle::operator()</text>
</a>
</g>
</g>
<!-- Node6&#45;&gt;Node12 -->
<g id="edge11" class="edge">
<title>Node6&#45;&gt;Node12</title>
<path fill="none" stroke="#191970" d="M195.2925,-94.7745C221.3763,-100.6744 255.7436,-108.448 282.4765,-114.4947"/>
<polygon fill="#191970" stroke="#191970" points="195.906,-91.3249 185.3802,-92.5324 194.3616,-98.1524 195.906,-91.3249"/>
</g>
<!-- Node10 -->
<g id="node10" class="node">
<title>Node10</title>
<g id="a_node10"><a xlink:href="corr__fn__ell_8cpp.html#a6ef494bfe01e16b424356fd36008d285" target="_top" xlink:title="lsq_corr_poly2">
<polygon fill="#ffffff" stroke="#000000" points="442,-.5 442,-19.5 522,-19.5 522,-.5 442,-.5"/>
<text text-anchor="middle" x="482" y="-7.5" font-family="Helvetica,sans-Serif" font-size="10.00" fill="#000000">lsq_corr_poly2</text>
</a>
</g>
</g>
<!-- Node9&#45;&gt;Node10 -->
<g id="edge9" class="edge">
<title>Node9&#45;&gt;Node10</title>
<path fill="none" stroke="#191970" d="M374.6862,-10C396.4049,-10 421.4764,-10 441.9219,-10"/>
<polygon fill="#191970" stroke="#191970" points="374.6515,-6.5001 364.6514,-10 374.6514,-13.5001 374.6515,-6.5001"/>
</g>
<!-- Node11 -->
<g id="node11" class="node">
<title>Node11</title>
<g id="a_node11"><a xlink:href="corr__fn__ell_8cpp.html#a81c9df61833f0dcc6a7cf2412f2872cd" target="_top" xlink:title="TEST_CASE">
<polygon fill="#ffffff" stroke="#000000" points="588.5,-.5 588.5,-19.5 663.5,-19.5 663.5,-.5 588.5,-.5"/>
<text text-anchor="middle" x="626" y="-7.5" font-family="Helvetica,sans-Serif" font-size="10.00" fill="#000000">TEST_CASE</text>
</a>
</g>
</g>
<!-- Node10&#45;&gt;Node11 -->
<g id="edge10" class="edge">
<title>Node10&#45;&gt;Node11</title>
<path fill="none" stroke="#191970" d="M532.3279,-10C550.6437,-10 571.0229,-10 588.0833,-10"/>
<polygon fill="#191970" stroke="#191970" points="532.1121,-6.5001 522.112,-10 532.112,-13.5001 532.1121,-6.5001"/>
</g>
<!-- Node13 -->
<g id="node13" class="node">
<title>Node13</title>
<g id="a_node13"><a xlink:href="classqmi__oracle.html#aec6bfef186ed45b37f922f1d7ab4fb52" target="_top" xlink:title="Update t. ">
<polygon fill="#ffffff" stroke="#000000" points="432.5,-95.5 432.5,-114.5 531.5,-114.5 531.5,-95.5 432.5,-95.5"/>
<text text-anchor="middle" x="482" y="-102.5" font-family="Helvetica,sans-Serif" font-size="10.00" fill="#000000">qmi_oracle::update</text>
</a>
</g>
</g>
<!-- Node12&#45;&gt;Node13 -->
<g id="edge12" class="edge">
<title>Node12&#45;&gt;Node13</title>
<path fill="none" stroke="#191970" d="M390.2004,-116.0742C404.3471,-114.3676 419.0718,-112.5913 432.4792,-110.9739"/>
<polygon fill="#191970" stroke="#191970" points="389.5374,-112.6288 380.0286,-117.3013 390.3758,-119.5784 389.5374,-112.6288"/>
</g>
<!-- Node13&#45;&gt;Node8 -->
<g id="edge13" class="edge">
<title>Node13&#45;&gt;Node8</title>
<path fill="none" stroke="#191970" d="M539.7062,-93.3786C552.5812,-90.7857 566.0916,-88.0649 578.4999,-85.566"/>
<polygon fill="#191970" stroke="#191970" points="538.6622,-90.0185 529.5501,-95.4239 540.0443,-96.8807 538.6622,-90.0185"/>
</g>
</g>
</svg>
        <g id="navigator" transform="translate(0 0)" fill="#404254">
                <rect fill="#f2f5e9" fill-opacity="0.5" stroke="#606060" stroke-width=".5" x="0" y="0" width="60" height="60"/>
                <use id="zoomplus" xlink:href="#zoomPlus" x="17" y="9" onmousedown="handleZoom(evt,'in')"/>
                <use id="zoomminus" xlink:href="#zoomMin" x="42" y="9" onmousedown="handleZoom(evt,'out')"/>
                <use id="reset" xlink:href="#resetDef" x="30" y="36" onmousedown="handleReset()"/>
                <g id="arrowUp" xlink:href="#dirArrow" transform="translate(30 24)" onmousedown="handlePan(0,-1)">
                  <use xlink:href="#rim" fill="#404040">
                        <set attributeName="fill" to="#808080" begin="arrowUp.mouseover" end="arrowUp.mouseout"/>
                  </use>
                  <path fill="none" stroke="white" stroke-width="1.5" d="M0,-3.0v7 M-2.5,-0.5L0,-3.0L2.5,-0.5"/>
                </g>
                <g id="arrowRight" xlink:href="#dirArrow" transform="rotate(90) translate(36 -43)" onmousedown="handlePan(1,0)">
                  <use xlink:href="#rim" fill="#404040">
                        <set attributeName="fill" to="#808080" begin="arrowRight.mouseover" end="arrowRight.mouseout"/>
                  </use>
                  <path fill="none" stroke="white" stroke-width="1.5" d="M0,-3.0v7 M-2.5,-0.5L0,-3.0L2.5,-0.5"/>
                </g>
                <g id="arrowDown" xlink:href="#dirArrow" transform="rotate(180) translate(-30 -48)" onmousedown="handlePan(0,1)">
                  <use xlink:href="#rim" fill="#404040">
                        <set attributeName="fill" to="#808080" begin="arrowDown.mouseover" end="arrowDown.mouseout"/>
                  </use>
                  <path fill="none" stroke="white" stroke-width="1.5" d="M0,-3.0v7 M-2.5,-0.5L0,-3.0L2.5,-0.5"/>
                </g>
                <g id="arrowLeft" xlink:href="#dirArrow" transform="rotate(270) translate(-36 17)" onmousedown="handlePan(-1,0)">
                  <use xlink:href="#rim" fill="#404040">
                        <set attributeName="fill" to="#808080" begin="arrowLeft.mouseover" end="arrowLeft.mouseout"/>
                  </use>
                  <path fill="none" stroke="white" stroke-width="1.5" d="M0,-3.0v7 M-2.5,-0.5L0,-3.0L2.5,-0.5"/>
                </g>
        </g>
        <svg viewBox="0 0 15 15" width="100%" height="30px" preserveAspectRatio="xMaxYMin meet">
         <g id="arrow_out" transform="scale(0.3 0.3)">
          <a xlink:href="monomial_8hpp_a86b429850511a31052ffe3e51044c6ec_icgraph_org.svg" target="_base">
           <rect id="button" ry="5" rx="5" y="6" x="6" height="38" width="38"
                fill="#f2f5e9" fill-opacity="0.5" stroke="#606060" stroke-width="1.0"/>
           <path id="arrow"
             d="M 11.500037,31.436501 C 11.940474,20.09759 22.043105,11.32322 32.158766,21.979434 L 37.068811,17.246167 C 37.068811,17.246167 37.088388,32 37.088388,32 L 22.160133,31.978069 C 22.160133,31.978069 26.997745,27.140456 26.997745,27.140456 C 18.528582,18.264221 13.291696,25.230495 11.500037,31.436501 z"
             style="fill:#404040;"/>
          </a>
         </g>
        </svg>
</svg>
