<?xml version="1.0" encoding="UTF-8" standalone="no"?>
<!DOCTYPE svg PUBLIC "-//W3C//DTD SVG 1.1//EN"
 "http://www.w3.org/Graphics/SVG/1.1/DTD/svg11.dtd">
<!-- Generated by graphviz version 2.40.1 (20161225.0304)
 -->
<!-- Title: py::range Pages: 1 -->
<svg width="491pt" height="142pt"
 viewBox="0.00 0.00 491.00 142.00" xmlns="http://www.w3.org/2000/svg" xmlns:xlink="http://www.w3.org/1999/xlink">
<g id="graph0" class="graph" transform="scale(1 1) rotate(0) translate(4 138)">
<title>py::range</title>
<polygon fill="#ffffff" stroke="transparent" points="-4,4 -4,-138 487,-138 487,4 -4,4"/>
<!-- Node22 -->
<g id="node1" class="node">
<title>Node22</title>
<polygon fill="#bfbfbf" stroke="#000000" points="0,-57.5 0,-76.5 57,-76.5 57,-57.5 0,-57.5"/>
<text text-anchor="middle" x="28.5" y="-64.5" font-family="Helvetica,sans-Serif" font-size="10.00" fill="#000000">py::range</text>
</g>
<!-- Node23 -->
<g id="node2" class="node">
<title>Node23</title>
<g id="a_node2"><a xlink:href="lsq__corr__ell_8cpp.html#a233a10890259800812279af696624d11" target="_top" xlink:title="lsq_corr_core2">
<polygon fill="#ffffff" stroke="#000000" points="108.5,-114.5 108.5,-133.5 188.5,-133.5 188.5,-114.5 108.5,-114.5"/>
<text text-anchor="middle" x="148.5" y="-121.5" font-family="Helvetica,sans-Serif" font-size="10.00" fill="#000000">lsq_corr_core2</text>
</a>
</g>
</g>
<!-- Node22&#45;&gt;Node23 -->
<g id="edge1" class="edge">
<title>Node22&#45;&gt;Node23</title>
<path fill="none" stroke="#191970" d="M51.4361,-82.0511C63.4906,-89.5612 78.6981,-98.4215 93,-105 100.5871,-108.4899 109.008,-111.6934 116.9501,-114.4361"/>
<polygon fill="#191970" stroke="#191970" points="53.2181,-79.0367 42.8999,-76.6315 49.4661,-84.9462 53.2181,-79.0367"/>
</g>
<!-- Node26 -->
<g id="node5" class="node">
<title>Node26</title>
<g id="a_node5"><a xlink:href="classqmi__oracle.html#a17a23146225c498782e66dea9f1d64ec" target="_top" xlink:title="qmi_oracle::operator()">
<polygon fill="#ffffff" stroke="#000000" points="93,-76.5 93,-95.5 204,-95.5 204,-76.5 93,-76.5"/>
<text text-anchor="middle" x="148.5" y="-83.5" font-family="Helvetica,sans-Serif" font-size="10.00" fill="#000000">qmi_oracle::operator()</text>
</a>
</g>
</g>
<!-- Node22&#45;&gt;Node26 -->
<g id="edge4" class="edge">
<title>Node22&#45;&gt;Node26</title>
<path fill="none" stroke="#191970" d="M67.1835,-73.1249C75.3283,-74.4145 84.0755,-75.7995 92.7061,-77.166"/>
<polygon fill="#191970" stroke="#191970" points="67.6673,-69.658 57.243,-71.551 66.5726,-76.5718 67.6673,-69.658"/>
</g>
<!-- Node28 -->
<g id="node7" class="node">
<title>Node28</title>
<g id="a_node7"><a xlink:href="classlsq__oracle.html#a867c30a1ae0351df3213417e37ff18ec" target="_top" xlink:title="lsq_oracle::operator()">
<polygon fill="#ffffff" stroke="#000000" points="375,-57.5 375,-76.5 483,-76.5 483,-57.5 375,-57.5"/>
<text text-anchor="middle" x="429" y="-64.5" font-family="Helvetica,sans-Serif" font-size="10.00" fill="#000000">lsq_oracle::operator()</text>
</a>
</g>
</g>
<!-- Node22&#45;&gt;Node28 -->
<g id="edge7" class="edge">
<title>Node22&#45;&gt;Node28</title>
<path fill="none" stroke="#191970" d="M67.7208,-67C139.672,-67 292.8734,-67 374.7492,-67"/>
<polygon fill="#191970" stroke="#191970" points="67.303,-63.5001 57.303,-67 67.3029,-70.5001 67.303,-63.5001"/>
</g>
<!-- Node29 -->
<g id="node8" class="node">
<title>Node29</title>
<g id="a_node8"><a xlink:href="namespacepy.html#a60b1464018ad9d097a2657f82cd62da7" target="_top" xlink:title="py::range">
<polygon fill="#ffffff" stroke="#000000" points="120,-.5 120,-19.5 177,-19.5 177,-.5 120,-.5"/>
<text text-anchor="middle" x="148.5" y="-7.5" font-family="Helvetica,sans-Serif" font-size="10.00" fill="#000000">py::range</text>
</a>
</g>
</g>
<!-- Node22&#45;&gt;Node29 -->
<g id="edge8" class="edge">
<title>Node22&#45;&gt;Node29</title>
<path fill="none" stroke="#191970" d="M55.4925,-52.6976C66.9713,-46.7439 80.5558,-39.8665 93,-34 103.54,-29.0312 115.374,-23.8592 125.3984,-19.5943"/>
<polygon fill="#191970" stroke="#191970" points="53.6594,-49.7063 46.4167,-57.4389 56.9007,-55.9106 53.6594,-49.7063"/>
</g>
<!-- Node24 -->
<g id="node3" class="node">
<title>Node24</title>
<g id="a_node3"><a xlink:href="corr__fn__ell_8cpp.html#a6ef494bfe01e16b424356fd36008d285" target="_top" xlink:title="lsq_corr_poly2">
<polygon fill="#ffffff" stroke="#000000" points="249.5,-114.5 249.5,-133.5 329.5,-133.5 329.5,-114.5 249.5,-114.5"/>
<text text-anchor="middle" x="289.5" y="-121.5" font-family="Helvetica,sans-Serif" font-size="10.00" fill="#000000">lsq_corr_poly2</text>
</a>
</g>
</g>
<!-- Node23&#45;&gt;Node24 -->
<g id="edge2" class="edge">
<title>Node23&#45;&gt;Node24</title>
<path fill="none" stroke="#191970" d="M198.6399,-124C215.284,-124 233.5843,-124 249.3721,-124"/>
<polygon fill="#191970" stroke="#191970" points="198.5278,-120.5001 188.5278,-124 198.5278,-127.5001 198.5278,-120.5001"/>
</g>
<!-- Node25 -->
<g id="node4" class="node">
<title>Node25</title>
<g id="a_node4"><a xlink:href="corr__fn__ell_8cpp.html#a81c9df61833f0dcc6a7cf2412f2872cd" target="_top" xlink:title="TEST_CASE">
<polygon fill="#ffffff" stroke="#000000" points="391.5,-114.5 391.5,-133.5 466.5,-133.5 466.5,-114.5 391.5,-114.5"/>
<text text-anchor="middle" x="429" y="-121.5" font-family="Helvetica,sans-Serif" font-size="10.00" fill="#000000">TEST_CASE</text>
</a>
</g>
</g>
<!-- Node24&#45;&gt;Node25 -->
<g id="edge3" class="edge">
<title>Node24&#45;&gt;Node25</title>
<path fill="none" stroke="#191970" d="M340.0942,-124C356.9468,-124 375.4167,-124 391.1343,-124"/>
<polygon fill="#191970" stroke="#191970" points="339.8492,-120.5001 329.8492,-124 339.8491,-127.5001 339.8492,-120.5001"/>
</g>
<!-- Node27 -->
<g id="node6" class="node">
<title>Node27</title>
<g id="a_node6"><a xlink:href="classqmi__oracle.html#aec6bfef186ed45b37f922f1d7ab4fb52" target="_top" xlink:title="Update t. ">
<polygon fill="#ffffff" stroke="#000000" points="240,-76.5 240,-95.5 339,-95.5 339,-76.5 240,-76.5"/>
<text text-anchor="middle" x="289.5" y="-83.5" font-family="Helvetica,sans-Serif" font-size="10.00" fill="#000000">qmi_oracle::update</text>
</a>
</g>
</g>
<!-- Node26&#45;&gt;Node27 -->
<g id="edge5" class="edge">
<title>Node26&#45;&gt;Node27</title>
<path fill="none" stroke="#191970" d="M214.4828,-86C222.9534,-86 231.5113,-86 239.6647,-86"/>
<polygon fill="#191970" stroke="#191970" points="214.227,-82.5001 204.2269,-86 214.2269,-89.5001 214.227,-82.5001"/>
</g>
<!-- Node27&#45;&gt;Node28 -->
<g id="edge6" class="edge">
<title>Node27&#45;&gt;Node28</title>
<path fill="none" stroke="#191970" d="M349.0156,-77.8939C357.5931,-76.7257 366.3817,-75.5287 374.8473,-74.3756"/>
<polygon fill="#191970" stroke="#191970" points="348.5114,-74.4302 339.0753,-79.2478 349.4562,-81.3662 348.5114,-74.4302"/>
</g>
</g>
</svg>
