<?xml version="1.0" encoding="UTF-8" standalone="no"?>
<!DOCTYPE svg PUBLIC "-//W3C//DTD SVG 1.1//EN"
 "http://www.w3.org/Graphics/SVG/1.1/DTD/svg11.dtd">
<!-- Generated by graphviz version 2.40.1 (20161225.0304)
 -->
<!-- Title: lib/include/netoptim/neg_cycle.hpp Pages: 1 -->
<!--zoomable 251 -->
<svg id="main" version="1.1" xmlns="http://www.w3.org/2000/svg" xmlns:xlink="http://www.w3.org/1999/xlink" xml:space="preserve" onload="init(evt)">
<style type="text/css"><![CDATA[
.edge:hover path { stroke: red; }
.edge:hover polygon { stroke: red; fill: red; }
]]></style>
<script type="text/javascript"><![CDATA[
var edges = document.getElementsByTagName('g');
if (edges && edges.length) {
  for (var i=0;i<edges.length;i++) {
    if (edges[i].id.substr(0,4)=='edge') {
      edges[i].setAttribute('class','edge');
    }
  }
}
]]></script>
        <defs>
                <circle id="rim" cx="0" cy="0" r="7"/>
                <circle id="rim2" cx="0" cy="0" r="3.5"/>
                <g id="zoomPlus">
                        <use xlink:href="#rim" fill="#404040">
                                <set attributeName="fill" to="#808080" begin="zoomplus.mouseover" end="zoomplus.mouseout"/>
                        </use>
                        <path d="M-4,0h8M0,-4v8" fill="none" stroke="white" stroke-width="1.5" pointer-events="none"/>
                </g>
                <g id="zoomMin">
                        <use xlink:href="#rim" fill="#404040">
                                <set attributeName="fill" to="#808080" begin="zoomminus.mouseover" end="zoomminus.mouseout"/>
                        </use>
                        <path d="M-4,0h8" fill="none" stroke="white" stroke-width="1.5" pointer-events="none"/>
                </g>
                <g id="dirArrow">
                        <path fill="none" stroke="white" stroke-width="1.5" d="M0,-3.0v7 M-2.5,-0.5L0,-3.0L2.5,-0.5"/>
                </g>
               <g id="resetDef">
                       <use xlink:href="#rim2" fill="#404040">
                               <set attributeName="fill" to="#808080" begin="reset.mouseover" end="reset.mouseout"/>
                       </use>
               </g>
        </defs>

<script type="text/javascript">
var viewWidth = 723;
var viewHeight = 251;
var sectionId = 'dynsection-1';
</script>
<script xlink:href="svgpan.js"/>
<svg id="graph" class="graph">
<g id="viewport">
<title>lib/include/netoptim/neg_cycle.hpp</title>
<polygon fill="#ffffff" stroke="transparent" points="-4,4 -4,-247 718.5,-247 718.5,4 -4,4"/>
<!-- Node10 -->
<g id="node1" class="node">
<title>Node10</title>
<polygon fill="#bfbfbf" stroke="#000000" points="491.5,-212.5 491.5,-242.5 592.5,-242.5 592.5,-212.5 491.5,-212.5"/>
<text text-anchor="start" x="499.5" y="-230.5" font-family="Helvetica,sans-Serif" font-size="10.00" fill="#000000">lib/include/netoptim</text>
<text text-anchor="middle" x="542" y="-219.5" font-family="Helvetica,sans-Serif" font-size="10.00" fill="#000000">/neg_cycle.hpp</text>
</g>
<!-- Node11 -->
<g id="node2" class="node">
<title>Node11</title>
<g id="a_node2"><a xlink:href="network__oracle_8hpp.html" target="_top" xlink:title="lib/include/ellcpp\l/oracles/network_oracle.hpp">
<polygon fill="#ffffff" stroke="#000000" points="229.5,-145.5 229.5,-175.5 368.5,-175.5 368.5,-145.5 229.5,-145.5"/>
<text text-anchor="start" x="237.5" y="-163.5" font-family="Helvetica,sans-Serif" font-size="10.00" fill="#000000">lib/include/ellcpp</text>
<text text-anchor="middle" x="299" y="-152.5" font-family="Helvetica,sans-Serif" font-size="10.00" fill="#000000">/oracles/network_oracle.hpp</text>
</a>
</g>
</g>
<!-- Node10&#45;&gt;Node11 -->
<g id="edge1" class="edge">
<title>Node10&#45;&gt;Node11</title>
<path fill="none" stroke="#191970" d="M481.657,-210.8622C442.4812,-200.0607 391.8305,-186.0952 353.8067,-175.6113"/>
<polygon fill="#191970" stroke="#191970" points="480.7844,-214.2522 491.355,-213.5362 482.6451,-207.504 480.7844,-214.2522"/>
</g>
<!-- Node15 -->
<g id="node6" class="node">
<title>Node15</title>
<g id="a_node6"><a xlink:href="parametric_8hpp.html" target="_top" xlink:title="lib/include/netoptim\l/parametric.hpp">
<polygon fill="#ffffff" stroke="#000000" points="452.5,-145.5 452.5,-175.5 553.5,-175.5 553.5,-145.5 452.5,-145.5"/>
<text text-anchor="start" x="460.5" y="-163.5" font-family="Helvetica,sans-Serif" font-size="10.00" fill="#000000">lib/include/netoptim</text>
<text text-anchor="middle" x="503" y="-152.5" font-family="Helvetica,sans-Serif" font-size="10.00" fill="#000000">/parametric.hpp</text>
</a>
</g>
</g>
<!-- Node10&#45;&gt;Node15 -->
<g id="edge5" class="edge">
<title>Node10&#45;&gt;Node15</title>
<path fill="none" stroke="#191970" d="M528.0204,-203.4837C522.6162,-194.1996 516.5956,-183.8565 511.8147,-175.6432"/>
<polygon fill="#191970" stroke="#191970" points="525.0947,-205.4149 533.1503,-212.2967 531.1444,-201.8934 525.0947,-205.4149"/>
</g>
<!-- Node19 -->
<g id="node10" class="node">
<title>Node19</title>
<g id="a_node10"><a xlink:href="test__neg__cycle__boost_8cpp.html" target="_top" xlink:title="lib/test/src/test_neg\l_cycle_boost.cpp">
<polygon fill="#ffffff" stroke="#000000" points="574.5,-.5 574.5,-30.5 677.5,-30.5 677.5,-.5 574.5,-.5"/>
<text text-anchor="start" x="582.5" y="-18.5" font-family="Helvetica,sans-Serif" font-size="10.00" fill="#000000">lib/test/src/test_neg</text>
<text text-anchor="middle" x="626" y="-7.5" font-family="Helvetica,sans-Serif" font-size="10.00" fill="#000000">_cycle_boost.cpp</text>
</a>
</g>
</g>
<!-- Node10&#45;&gt;Node19 -->
<g id="edge11" class="edge">
<title>Node10&#45;&gt;Node19</title>
<path fill="none" stroke="#191970" d="M551.7819,-202.8123C569.337,-158.5067 605.691,-66.756 620.0137,-30.6084"/>
<polygon fill="#191970" stroke="#191970" points="548.4709,-201.6674 548.0411,-212.2535 554.9787,-204.246 548.4709,-201.6674"/>
</g>
<!-- Node20 -->
<g id="node11" class="node">
<title>Node20</title>
<g id="a_node11"><a xlink:href="test__neg__cycle_8cpp.html" target="_top" xlink:title="lib/test/src/test_neg\l_cycle.cpp">
<polygon fill="#ffffff" stroke="#000000" points="611.5,-145.5 611.5,-175.5 714.5,-175.5 714.5,-145.5 611.5,-145.5"/>
<text text-anchor="start" x="619.5" y="-163.5" font-family="Helvetica,sans-Serif" font-size="10.00" fill="#000000">lib/test/src/test_neg</text>
<text text-anchor="middle" x="663" y="-152.5" font-family="Helvetica,sans-Serif" font-size="10.00" fill="#000000">_cycle.cpp</text>
</a>
</g>
</g>
<!-- Node10&#45;&gt;Node20 -->
<g id="edge10" class="edge">
<title>Node10&#45;&gt;Node20</title>
<path fill="none" stroke="#191970" d="M578.1271,-207.4958C596.5209,-197.3107 618.5239,-185.1272 635.5172,-175.7177"/>
<polygon fill="#191970" stroke="#191970" points="576.2077,-204.5578 569.1548,-212.4639 579.5986,-210.6816 576.2077,-204.5578"/>
</g>
<!-- Node12 -->
<g id="node3" class="node">
<title>Node12</title>
<g id="a_node3"><a xlink:href="optscaling__oracle_8hpp.html" target="_top" xlink:title="lib/include/ellcpp\l/oracles/optscaling\l_oracle.hpp">
<polygon fill="#ffffff" stroke="#000000" points="185,-67.5 185,-108.5 283,-108.5 283,-67.5 185,-67.5"/>
<text text-anchor="start" x="193" y="-96.5" font-family="Helvetica,sans-Serif" font-size="10.00" fill="#000000">lib/include/ellcpp</text>
<text text-anchor="start" x="193" y="-85.5" font-family="Helvetica,sans-Serif" font-size="10.00" fill="#000000">/oracles/optscaling</text>
<text text-anchor="middle" x="234" y="-74.5" font-family="Helvetica,sans-Serif" font-size="10.00" fill="#000000">_oracle.hpp</text>
</a>
</g>
</g>
<!-- Node11&#45;&gt;Node12 -->
<g id="edge2" class="edge">
<title>Node11&#45;&gt;Node12</title>
<path fill="none" stroke="#191970" d="M278.8071,-137.9772C270.3641,-128.5599 260.6208,-117.6924 252.3807,-108.5015"/>
<polygon fill="#191970" stroke="#191970" points="276.2505,-140.3687 285.532,-145.478 281.4625,-135.6958 276.2505,-140.3687"/>
</g>
<!-- Node13 -->
<g id="node4" class="node">
<title>Node13</title>
<g id="a_node4"><a xlink:href="test__optscaling_8cpp.html" target="_top" xlink:title="lib/test/src/test_optscaling.cpp">
<polygon fill="#ffffff" stroke="#000000" points="0,-6 0,-25 150,-25 150,-6 0,-6"/>
<text text-anchor="middle" x="75" y="-13" font-family="Helvetica,sans-Serif" font-size="10.00" fill="#000000">lib/test/src/test_optscaling.cpp</text>
</a>
</g>
</g>
<!-- Node12&#45;&gt;Node13 -->
<g id="edge3" class="edge">
<title>Node12&#45;&gt;Node13</title>
<path fill="none" stroke="#191970" d="M179.7155,-63.2476C150.9435,-50.1283 117.2562,-34.7678 96.0217,-25.0853"/>
<polygon fill="#191970" stroke="#191970" points="178.3114,-66.454 188.8623,-67.4183 181.2156,-60.0849 178.3114,-66.454"/>
</g>
<!-- Node14 -->
<g id="node5" class="node">
<title>Node14</title>
<g id="a_node5"><a xlink:href="test__optscaling__boost_8cpp.html" target="_top" xlink:title="lib/test/src/test_optscaling\l_boost.cpp">
<polygon fill="#ffffff" stroke="#000000" points="168.5,-.5 168.5,-30.5 299.5,-30.5 299.5,-.5 168.5,-.5"/>
<text text-anchor="start" x="176.5" y="-18.5" font-family="Helvetica,sans-Serif" font-size="10.00" fill="#000000">lib/test/src/test_optscaling</text>
<text text-anchor="middle" x="234" y="-7.5" font-family="Helvetica,sans-Serif" font-size="10.00" fill="#000000">_boost.cpp</text>
</a>
</g>
</g>
<!-- Node12&#45;&gt;Node14 -->
<g id="edge4" class="edge">
<title>Node12&#45;&gt;Node14</title>
<path fill="none" stroke="#191970" d="M234,-57.3279C234,-48.0871 234,-38.3508 234,-30.5991"/>
<polygon fill="#191970" stroke="#191970" points="230.5001,-57.4183 234,-67.4183 237.5001,-57.4184 230.5001,-57.4183"/>
</g>
<!-- Node16 -->
<g id="node7" class="node">
<title>Node16</title>
<g id="a_node7"><a xlink:href="min__cycle__ratio_8hpp.html" target="_top" xlink:title="lib/include/netoptim\l/min_cycle_ratio.hpp">
<polygon fill="#ffffff" stroke="#000000" points="447.5,-73 447.5,-103 554.5,-103 554.5,-73 447.5,-73"/>
<text text-anchor="start" x="455.5" y="-91" font-family="Helvetica,sans-Serif" font-size="10.00" fill="#000000">lib/include/netoptim</text>
<text text-anchor="middle" x="501" y="-80" font-family="Helvetica,sans-Serif" font-size="10.00" fill="#000000">/min_cycle_ratio.hpp</text>
</a>
</g>
</g>
<!-- Node15&#45;&gt;Node16 -->
<g id="edge6" class="edge">
<title>Node15&#45;&gt;Node16</title>
<path fill="none" stroke="#191970" d="M502.306,-135.3409C502.0086,-124.5601 501.6712,-112.3309 501.4139,-103.0028"/>
<polygon fill="#191970" stroke="#191970" points="498.8111,-135.5783 502.5856,-145.478 505.8084,-135.3852 498.8111,-135.5783"/>
</g>
<!-- Node17 -->
<g id="node8" class="node">
<title>Node17</title>
<g id="a_node8"><a xlink:href="test__cycle__ratio_8cpp.html" target="_top" xlink:title="lib/test/src/test_cycle\l_ratio.cpp">
<polygon fill="#ffffff" stroke="#000000" points="318,-.5 318,-30.5 428,-30.5 428,-.5 318,-.5"/>
<text text-anchor="start" x="326" y="-18.5" font-family="Helvetica,sans-Serif" font-size="10.00" fill="#000000">lib/test/src/test_cycle</text>
<text text-anchor="middle" x="373" y="-7.5" font-family="Helvetica,sans-Serif" font-size="10.00" fill="#000000">_ratio.cpp</text>
</a>
</g>
</g>
<!-- Node16&#45;&gt;Node17 -->
<g id="edge7" class="edge">
<title>Node16&#45;&gt;Node17</title>
<path fill="none" stroke="#191970" d="M465.5684,-67.9313C444.653,-56.0847 418.6157,-41.337 399.4877,-30.5028"/>
<polygon fill="#191970" stroke="#191970" points="464.0521,-71.0949 474.4783,-72.978 467.5021,-65.0041 464.0521,-71.0949"/>
</g>
<!-- Node18 -->
<g id="node9" class="node">
<title>Node18</title>
<g id="a_node9"><a xlink:href="test__cycle__ratio__boost_8cpp.html" target="_top" xlink:title="lib/test/src/test_cycle\l_ratio_boost.cpp">
<polygon fill="#ffffff" stroke="#000000" points="446,-.5 446,-30.5 556,-30.5 556,-.5 446,-.5"/>
<text text-anchor="start" x="454" y="-18.5" font-family="Helvetica,sans-Serif" font-size="10.00" fill="#000000">lib/test/src/test_cycle</text>
<text text-anchor="middle" x="501" y="-7.5" font-family="Helvetica,sans-Serif" font-size="10.00" fill="#000000">_ratio_boost.cpp</text>
</a>
</g>
</g>
<!-- Node16&#45;&gt;Node18 -->
<g id="edge8" class="edge">
<title>Node16&#45;&gt;Node18</title>
<path fill="none" stroke="#191970" d="M501,-62.8409C501,-52.0601 501,-39.8309 501,-30.5028"/>
<polygon fill="#191970" stroke="#191970" points="497.5001,-62.9779 501,-72.978 504.5001,-62.978 497.5001,-62.9779"/>
</g>
<!-- Node16&#45;&gt;Node19 -->
<g id="edge9" class="edge">
<title>Node16&#45;&gt;Node19</title>
<path fill="none" stroke="#191970" d="M535.6011,-67.9313C556.0264,-56.0847 581.4534,-41.337 600.1331,-30.5028"/>
<polygon fill="#191970" stroke="#191970" points="533.7944,-64.9331 526.9001,-72.978 537.3064,-70.9883 533.7944,-64.9331"/>
</g>
</g>
</svg>
        <g id="navigator" transform="translate(0 0)" fill="#404254">
                <rect fill="#f2f5e9" fill-opacity="0.5" stroke="#606060" stroke-width=".5" x="0" y="0" width="60" height="60"/>
                <use id="zoomplus" xlink:href="#zoomPlus" x="17" y="9" onmousedown="handleZoom(evt,'in')"/>
                <use id="zoomminus" xlink:href="#zoomMin" x="42" y="9" onmousedown="handleZoom(evt,'out')"/>
                <use id="reset" xlink:href="#resetDef" x="30" y="36" onmousedown="handleReset()"/>
                <g id="arrowUp" xlink:href="#dirArrow" transform="translate(30 24)" onmousedown="handlePan(0,-1)">
                  <use xlink:href="#rim" fill="#404040">
                        <set attributeName="fill" to="#808080" begin="arrowUp.mouseover" end="arrowUp.mouseout"/>
                  </use>
                  <path fill="none" stroke="white" stroke-width="1.5" d="M0,-3.0v7 M-2.5,-0.5L0,-3.0L2.5,-0.5"/>
                </g>
                <g id="arrowRight" xlink:href="#dirArrow" transform="rotate(90) translate(36 -43)" onmousedown="handlePan(1,0)">
                  <use xlink:href="#rim" fill="#404040">
                        <set attributeName="fill" to="#808080" begin="arrowRight.mouseover" end="arrowRight.mouseout"/>
                  </use>
                  <path fill="none" stroke="white" stroke-width="1.5" d="M0,-3.0v7 M-2.5,-0.5L0,-3.0L2.5,-0.5"/>
                </g>
                <g id="arrowDown" xlink:href="#dirArrow" transform="rotate(180) translate(-30 -48)" onmousedown="handlePan(0,1)">
                  <use xlink:href="#rim" fill="#404040">
                        <set attributeName="fill" to="#808080" begin="arrowDown.mouseover" end="arrowDown.mouseout"/>
                  </use>
                  <path fill="none" stroke="white" stroke-width="1.5" d="M0,-3.0v7 M-2.5,-0.5L0,-3.0L2.5,-0.5"/>
                </g>
                <g id="arrowLeft" xlink:href="#dirArrow" transform="rotate(270) translate(-36 17)" onmousedown="handlePan(-1,0)">
                  <use xlink:href="#rim" fill="#404040">
                        <set attributeName="fill" to="#808080" begin="arrowLeft.mouseover" end="arrowLeft.mouseout"/>
                  </use>
                  <path fill="none" stroke="white" stroke-width="1.5" d="M0,-3.0v7 M-2.5,-0.5L0,-3.0L2.5,-0.5"/>
                </g>
        </g>
        <svg viewBox="0 0 15 15" width="100%" height="30px" preserveAspectRatio="xMaxYMin meet">
         <g id="arrow_out" transform="scale(0.3 0.3)">
          <a xlink:href="neg__cycle_8hpp__dep__incl_org.svg" target="_base">
           <rect id="button" ry="5" rx="5" y="6" x="6" height="38" width="38"
                fill="#f2f5e9" fill-opacity="0.5" stroke="#606060" stroke-width="1.0"/>
           <path id="arrow"
             d="M 11.500037,31.436501 C 11.940474,20.09759 22.043105,11.32322 32.158766,21.979434 L 37.068811,17.246167 C 37.068811,17.246167 37.088388,32 37.088388,32 L 22.160133,31.978069 C 22.160133,31.978069 26.997745,27.140456 26.997745,27.140456 C 18.528582,18.264221 13.291696,25.230495 11.500037,31.436501 z"
             style="fill:#404040;"/>
          </a>
         </g>
        </svg>
</svg>
