<?xml version="1.0" encoding="UTF-8" standalone="no"?>
<!DOCTYPE svg PUBLIC "-//W3C//DTD SVG 1.1//EN"
 "http://www.w3.org/Graphics/SVG/1.1/DTD/svg11.dtd">
<!-- Generated by graphviz version 2.40.1 (20161225.0304)
 -->
<!-- Title: lib/include/ellcpp/oracles/network_oracle.hpp Pages: 1 -->
<svg width="485pt" height="207pt"
 viewBox="0.00 0.00 485.00 207.00" xmlns="http://www.w3.org/2000/svg" xmlns:xlink="http://www.w3.org/1999/xlink">
<g id="graph0" class="graph" transform="scale(1 1) rotate(0) translate(4 203)">
<title>lib/include/ellcpp/oracles/network_oracle.hpp</title>
<polygon fill="#ffffff" stroke="transparent" points="-4,4 -4,-203 481,-203 481,4 -4,4"/>
<!-- Node0 -->
<g id="node1" class="node">
<title>Node0</title>
<polygon fill="#bfbfbf" stroke="#000000" points="179.5,-168.5 179.5,-198.5 318.5,-198.5 318.5,-168.5 179.5,-168.5"/>
<text text-anchor="start" x="187.5" y="-186.5" font-family="Helvetica,sans-Serif" font-size="10.00" fill="#000000">lib/include/ellcpp</text>
<text text-anchor="middle" x="249" y="-175.5" font-family="Helvetica,sans-Serif" font-size="10.00" fill="#000000">/oracles/network_oracle.hpp</text>
</g>
<!-- Node1 -->
<g id="node2" class="node">
<title>Node1</title>
<g id="a_node2"><a xlink:href="utility_8hpp.html" target="_top" xlink:title="ellcpp/utility.hpp">
<polygon fill="#ffffff" stroke="#000000" points="52.5,-112.5 52.5,-131.5 139.5,-131.5 139.5,-112.5 52.5,-112.5"/>
<text text-anchor="middle" x="96" y="-119.5" font-family="Helvetica,sans-Serif" font-size="10.00" fill="#000000">ellcpp/utility.hpp</text>
</a>
</g>
</g>
<!-- Node0&#45;&gt;Node1 -->
<g id="edge1" class="edge">
<title>Node0&#45;&gt;Node1</title>
<path fill="none" stroke="#191970" d="M211.572,-168.4554C186.3794,-158.329 153.4593,-145.0964 129.2004,-135.3453"/>
<polygon fill="#191970" stroke="#191970" points="130.2934,-132.0125 119.7096,-131.5303 127.6827,-138.5074 130.2934,-132.0125"/>
</g>
<!-- Node4 -->
<g id="node5" class="node">
<title>Node4</title>
<g id="a_node5"><a xlink:href="neg__cycle_8hpp.html" target="_top" xlink:title="netoptim/neg_cycle.hpp">
<polygon fill="#ffffff" stroke="#000000" points="189,-112.5 189,-131.5 309,-131.5 309,-112.5 189,-112.5"/>
<text text-anchor="middle" x="249" y="-119.5" font-family="Helvetica,sans-Serif" font-size="10.00" fill="#000000">netoptim/neg_cycle.hpp</text>
</a>
</g>
</g>
<!-- Node0&#45;&gt;Node4 -->
<g id="edge4" class="edge">
<title>Node0&#45;&gt;Node4</title>
<path fill="none" stroke="#191970" d="M249,-168.2977C249,-160.3834 249,-150.6043 249,-142.0759"/>
<polygon fill="#191970" stroke="#191970" points="252.5001,-141.8469 249,-131.8469 245.5001,-141.847 252.5001,-141.8469"/>
</g>
<!-- Node13 -->
<g id="node14" class="node">
<title>Node13</title>
<polygon fill="#ffffff" stroke="#bfbfbf" points="327,-112.5 327,-131.5 377,-131.5 377,-112.5 327,-112.5"/>
<text text-anchor="middle" x="352" y="-119.5" font-family="Helvetica,sans-Serif" font-size="10.00" fill="#000000">optional</text>
</g>
<!-- Node0&#45;&gt;Node13 -->
<g id="edge14" class="edge">
<title>Node0&#45;&gt;Node13</title>
<path fill="none" stroke="#191970" d="M274.1966,-168.4554C290.3272,-158.8241 311.1638,-146.3828 327.2136,-136.7996"/>
<polygon fill="#191970" stroke="#191970" points="329.247,-139.662 336.0387,-131.5303 325.6584,-133.6518 329.247,-139.662"/>
</g>
<!-- Node2 -->
<g id="node3" class="node">
<title>Node2</title>
<polygon fill="#ffffff" stroke="#bfbfbf" points="0,-.5 0,-19.5 62,-19.5 62,-.5 0,-.5"/>
<text text-anchor="middle" x="31" y="-7.5" font-family="Helvetica,sans-Serif" font-size="10.00" fill="#000000">type_traits</text>
</g>
<!-- Node1&#45;&gt;Node2 -->
<g id="edge2" class="edge">
<title>Node1&#45;&gt;Node2</title>
<path fill="none" stroke="#191970" d="M77.2525,-112.4365C63.9183,-104.5684 46.8589,-92.1022 38,-76 30.2761,-61.9608 28.8781,-43.6989 29.2125,-29.9446"/>
<polygon fill="#191970" stroke="#191970" points="32.7249,-29.8259 29.8001,-19.6428 25.7363,-29.4272 32.7249,-29.8259"/>
</g>
<!-- Node3 -->
<g id="node4" class="node">
<title>Node3</title>
<polygon fill="#ffffff" stroke="#bfbfbf" points="47,-56.5 47,-75.5 145,-75.5 145,-56.5 47,-56.5"/>
<text text-anchor="middle" x="96" y="-63.5" font-family="Helvetica,sans-Serif" font-size="10.00" fill="#000000">xtensor/xarray.hpp</text>
</g>
<!-- Node1&#45;&gt;Node3 -->
<g id="edge3" class="edge">
<title>Node1&#45;&gt;Node3</title>
<path fill="none" stroke="#191970" d="M96,-112.2455C96,-104.9382 96,-94.6944 96,-85.7046"/>
<polygon fill="#191970" stroke="#191970" points="99.5001,-85.6426 96,-75.6427 92.5001,-85.6427 99.5001,-85.6426"/>
</g>
<!-- Node5 -->
<g id="node6" class="node">
<title>Node5</title>
<polygon fill="#ffffff" stroke="#bfbfbf" points="163.5,-56.5 163.5,-75.5 212.5,-75.5 212.5,-56.5 163.5,-56.5"/>
<text text-anchor="middle" x="188" y="-63.5" font-family="Helvetica,sans-Serif" font-size="10.00" fill="#000000">cassert</text>
</g>
<!-- Node4&#45;&gt;Node5 -->
<g id="edge5" class="edge">
<title>Node4&#45;&gt;Node5</title>
<path fill="none" stroke="#191970" d="M238.3746,-112.2455C229.4527,-104.0549 216.512,-92.1749 205.9808,-82.5069"/>
<polygon fill="#191970" stroke="#191970" points="208.2371,-79.8271 198.5036,-75.6427 203.5032,-84.9837 208.2371,-79.8271"/>
</g>
<!-- Node6 -->
<g id="node7" class="node">
<title>Node6</title>
<g id="a_node7"><a xlink:href="py2cpp_8hpp.html" target="_top" xlink:title="py2cpp/py2cpp.hpp">
<polygon fill="#ffffff" stroke="#000000" points="230.5,-56.5 230.5,-75.5 331.5,-75.5 331.5,-56.5 230.5,-56.5"/>
<text text-anchor="middle" x="281" y="-63.5" font-family="Helvetica,sans-Serif" font-size="10.00" fill="#000000">py2cpp/py2cpp.hpp</text>
</a>
</g>
</g>
<!-- Node4&#45;&gt;Node6 -->
<g id="edge6" class="edge">
<title>Node4&#45;&gt;Node6</title>
<path fill="none" stroke="#191970" d="M254.574,-112.2455C258.9331,-104.617 265.1211,-93.7881 270.4133,-84.5267"/>
<polygon fill="#191970" stroke="#191970" points="273.5673,-86.0616 275.4899,-75.6427 267.4896,-82.5886 273.5673,-86.0616"/>
</g>
<!-- Node12 -->
<g id="node13" class="node">
<title>Node12</title>
<polygon fill="#ffffff" stroke="#bfbfbf" points="350,-56.5 350,-75.5 394,-75.5 394,-56.5 350,-56.5"/>
<text text-anchor="middle" x="372" y="-63.5" font-family="Helvetica,sans-Serif" font-size="10.00" fill="#000000">vector</text>
</g>
<!-- Node4&#45;&gt;Node12 -->
<g id="edge13" class="edge">
<title>Node4&#45;&gt;Node12</title>
<path fill="none" stroke="#191970" d="M270.1445,-112.3733C289.8892,-103.3838 319.5698,-89.8706 341.8055,-79.7471"/>
<polygon fill="#191970" stroke="#191970" points="343.4806,-82.8302 351.1315,-75.5011 340.58,-76.4594 343.4806,-82.8302"/>
</g>
<!-- Node6&#45;&gt;Node2 -->
<g id="edge9" class="edge">
<title>Node6&#45;&gt;Node2</title>
<path fill="none" stroke="#191970" d="M238.3075,-56.4369C191.762,-46.0107 117.8075,-29.4449 71.9571,-19.1744"/>
<polygon fill="#191970" stroke="#191970" points="72.5836,-15.7281 62.0603,-16.9575 71.0534,-22.5588 72.5836,-15.7281"/>
</g>
<!-- Node7 -->
<g id="node8" class="node">
<title>Node7</title>
<polygon fill="#ffffff" stroke="#bfbfbf" points="91.5,-.5 91.5,-19.5 164.5,-19.5 164.5,-.5 91.5,-.5"/>
<text text-anchor="middle" x="128" y="-7.5" font-family="Helvetica,sans-Serif" font-size="10.00" fill="#000000">initializer_list</text>
</g>
<!-- Node6&#45;&gt;Node7 -->
<g id="edge7" class="edge">
<title>Node6&#45;&gt;Node7</title>
<path fill="none" stroke="#191970" d="M254.6984,-56.3733C229.5872,-47.1822 191.5562,-33.2624 163.7128,-23.0713"/>
<polygon fill="#191970" stroke="#191970" points="164.5522,-19.6516 153.9584,-19.5011 162.1462,-26.2251 164.5522,-19.6516"/>
</g>
<!-- Node8 -->
<g id="node9" class="node">
<title>Node8</title>
<polygon fill="#ffffff" stroke="#bfbfbf" points="183,-.5 183,-19.5 221,-19.5 221,-.5 183,-.5"/>
<text text-anchor="middle" x="202" y="-7.5" font-family="Helvetica,sans-Serif" font-size="10.00" fill="#000000">tuple</text>
</g>
<!-- Node6&#45;&gt;Node8 -->
<g id="edge8" class="edge">
<title>Node6&#45;&gt;Node8</title>
<path fill="none" stroke="#191970" d="M267.2393,-56.2455C255.3448,-47.814 237.935,-35.4729 224.0915,-25.6598"/>
<polygon fill="#191970" stroke="#191970" points="225.7854,-22.5704 215.6031,-19.6427 221.7372,-28.2811 225.7854,-22.5704"/>
</g>
<!-- Node9 -->
<g id="node10" class="node">
<title>Node9</title>
<polygon fill="#ffffff" stroke="#bfbfbf" points="239.5,-.5 239.5,-19.5 322.5,-19.5 322.5,-.5 239.5,-.5"/>
<text text-anchor="middle" x="281" y="-7.5" font-family="Helvetica,sans-Serif" font-size="10.00" fill="#000000">unordered_map</text>
</g>
<!-- Node6&#45;&gt;Node9 -->
<g id="edge10" class="edge">
<title>Node6&#45;&gt;Node9</title>
<path fill="none" stroke="#191970" d="M281,-56.2455C281,-48.9382 281,-38.6944 281,-29.7046"/>
<polygon fill="#191970" stroke="#191970" points="284.5001,-29.6426 281,-19.6427 277.5001,-29.6427 284.5001,-29.6426"/>
</g>
<!-- Node10 -->
<g id="node11" class="node">
<title>Node10</title>
<polygon fill="#ffffff" stroke="#bfbfbf" points="341,-.5 341,-19.5 419,-19.5 419,-.5 341,-.5"/>
<text text-anchor="middle" x="380" y="-7.5" font-family="Helvetica,sans-Serif" font-size="10.00" fill="#000000">unordered_set</text>
</g>
<!-- Node6&#45;&gt;Node10 -->
<g id="edge11" class="edge">
<title>Node6&#45;&gt;Node10</title>
<path fill="none" stroke="#191970" d="M298.2445,-56.2455C313.5761,-47.5731 336.2199,-34.7645 353.7916,-24.825"/>
<polygon fill="#191970" stroke="#191970" points="355.9724,-27.6126 362.9531,-19.6427 352.5259,-21.5198 355.9724,-27.6126"/>
</g>
<!-- Node11 -->
<g id="node12" class="node">
<title>Node11</title>
<polygon fill="#ffffff" stroke="#bfbfbf" points="437,-.5 437,-19.5 477,-19.5 477,-.5 437,-.5"/>
<text text-anchor="middle" x="457" y="-7.5" font-family="Helvetica,sans-Serif" font-size="10.00" fill="#000000">utility</text>
</g>
<!-- Node6&#45;&gt;Node11 -->
<g id="edge12" class="edge">
<title>Node6&#45;&gt;Node11</title>
<path fill="none" stroke="#191970" d="M312.3405,-56.4788C340.1786,-47.9586 382.195,-34.9458 427.1176,-20.2325"/>
<polygon fill="#191970" stroke="#191970" points="428.3368,-23.5161 436.7436,-17.0681 426.1507,-16.8662 428.3368,-23.5161"/>
</g>
</g>
</svg>
