<?xml version="1.0" encoding="UTF-8" standalone="no"?>
<!DOCTYPE svg PUBLIC "-//W3C//DTD SVG 1.1//EN"
 "http://www.w3.org/Graphics/SVG/1.1/DTD/svg11.dtd">
<!-- Generated by graphviz version 2.40.1 (20161225.0304)
 -->
<!-- Title: lib/include/py2cpp/nx2bgl.hpp Pages: 1 -->
<svg width="537pt" height="106pt"
 viewBox="0.00 0.00 536.50 106.00" xmlns="http://www.w3.org/2000/svg" xmlns:xlink="http://www.w3.org/1999/xlink">
<g id="graph0" class="graph" transform="scale(1 1) rotate(0) translate(4 102)">
<title>lib/include/py2cpp/nx2bgl.hpp</title>
<polygon fill="#ffffff" stroke="transparent" points="-4,4 -4,-102 532.5,-102 532.5,4 -4,4"/>
<!-- Node5 -->
<g id="node1" class="node">
<title>Node5</title>
<polygon fill="#bfbfbf" stroke="#000000" points="217.5,-67.5 217.5,-97.5 312.5,-97.5 312.5,-67.5 217.5,-67.5"/>
<text text-anchor="start" x="225.5" y="-85.5" font-family="Helvetica,sans-Serif" font-size="10.00" fill="#000000">lib/include/py2cpp</text>
<text text-anchor="middle" x="265" y="-74.5" font-family="Helvetica,sans-Serif" font-size="10.00" fill="#000000">/nx2bgl.hpp</text>
</g>
<!-- Node6 -->
<g id="node2" class="node">
<title>Node6</title>
<g id="a_node2"><a xlink:href="test__boost_8cpp.html" target="_top" xlink:title="lib/test/src/test_boost.cpp">
<polygon fill="#ffffff" stroke="#000000" points="0,-6 0,-25 130,-25 130,-6 0,-6"/>
<text text-anchor="middle" x="65" y="-13" font-family="Helvetica,sans-Serif" font-size="10.00" fill="#000000">lib/test/src/test_boost.cpp</text>
</a>
</g>
</g>
<!-- Node5&#45;&gt;Node6 -->
<g id="edge1" class="edge">
<title>Node5&#45;&gt;Node6</title>
<path fill="none" stroke="#191970" d="M210.2605,-64.1623C172.4411,-51.4928 123.6755,-35.1563 93.374,-25.0053"/>
<polygon fill="#191970" stroke="#191970" points="209.5222,-67.6061 220.1161,-67.4639 211.7458,-60.9686 209.5222,-67.6061"/>
</g>
<!-- Node7 -->
<g id="node3" class="node">
<title>Node7</title>
<g id="a_node3"><a xlink:href="test__cycle__ratio__boost_8cpp.html" target="_top" xlink:title="lib/test/src/test_cycle\l_ratio_boost.cpp">
<polygon fill="#ffffff" stroke="#000000" points="148,-.5 148,-30.5 258,-30.5 258,-.5 148,-.5"/>
<text text-anchor="start" x="156" y="-18.5" font-family="Helvetica,sans-Serif" font-size="10.00" fill="#000000">lib/test/src/test_cycle</text>
<text text-anchor="middle" x="203" y="-7.5" font-family="Helvetica,sans-Serif" font-size="10.00" fill="#000000">_ratio_boost.cpp</text>
</a>
</g>
</g>
<!-- Node5&#45;&gt;Node7 -->
<g id="edge2" class="edge">
<title>Node5&#45;&gt;Node7</title>
<path fill="none" stroke="#191970" d="M244.11,-59.9253C235.1871,-50.2828 225.0093,-39.2843 217.0131,-30.6432"/>
<polygon fill="#191970" stroke="#191970" points="241.5704,-62.3342 250.9312,-67.2967 246.7082,-57.5798 241.5704,-62.3342"/>
</g>
<!-- Node8 -->
<g id="node4" class="node">
<title>Node8</title>
<g id="a_node4"><a xlink:href="test__neg__cycle__boost_8cpp.html" target="_top" xlink:title="lib/test/src/test_neg\l_cycle_boost.cpp">
<polygon fill="#ffffff" stroke="#000000" points="276.5,-.5 276.5,-30.5 379.5,-30.5 379.5,-.5 276.5,-.5"/>
<text text-anchor="start" x="284.5" y="-18.5" font-family="Helvetica,sans-Serif" font-size="10.00" fill="#000000">lib/test/src/test_neg</text>
<text text-anchor="middle" x="328" y="-7.5" font-family="Helvetica,sans-Serif" font-size="10.00" fill="#000000">_cycle_boost.cpp</text>
</a>
</g>
</g>
<!-- Node5&#45;&gt;Node8 -->
<g id="edge3" class="edge">
<title>Node5&#45;&gt;Node8</title>
<path fill="none" stroke="#191970" d="M286.227,-59.9253C295.2938,-50.2828 305.6357,-39.2843 313.7609,-30.6432"/>
<polygon fill="#191970" stroke="#191970" points="283.5961,-57.6138 279.2957,-67.2967 288.6958,-62.409 283.5961,-57.6138"/>
</g>
<!-- Node9 -->
<g id="node5" class="node">
<title>Node9</title>
<g id="a_node5"><a xlink:href="test__optscaling__boost_8cpp.html" target="_top" xlink:title="lib/test/src/test_optscaling\l_boost.cpp">
<polygon fill="#ffffff" stroke="#000000" points="397.5,-.5 397.5,-30.5 528.5,-30.5 528.5,-.5 397.5,-.5"/>
<text text-anchor="start" x="405.5" y="-18.5" font-family="Helvetica,sans-Serif" font-size="10.00" fill="#000000">lib/test/src/test_optscaling</text>
<text text-anchor="middle" x="463" y="-7.5" font-family="Helvetica,sans-Serif" font-size="10.00" fill="#000000">_boost.cpp</text>
</a>
</g>
</g>
<!-- Node5&#45;&gt;Node9 -->
<g id="edge4" class="edge">
<title>Node5&#45;&gt;Node9</title>
<path fill="none" stroke="#191970" d="M319.2602,-64.1392C350.3961,-53.6033 389.0087,-40.5375 418.3711,-30.6017"/>
<polygon fill="#191970" stroke="#191970" points="317.7856,-60.9432 309.4351,-67.4639 320.0293,-67.5739 317.7856,-60.9432"/>
</g>
</g>
</svg>
