<?xml version="1.0" encoding="UTF-8" standalone="no"?>
<!DOCTYPE svg PUBLIC "-//W3C//DTD SVG 1.1//EN"
 "http://www.w3.org/Graphics/SVG/1.1/DTD/svg11.dtd">
<!-- Generated by graphviz version 2.40.1 (20161225.0304)
 -->
<!-- Title: lib/include/ellip/posynomial.hpp Pages: 1 -->
<svg width="251pt" height="140pt"
 viewBox="0.00 0.00 250.50 140.00" xmlns="http://www.w3.org/2000/svg" xmlns:xlink="http://www.w3.org/1999/xlink">
<g id="graph0" class="graph" transform="scale(1 1) rotate(0) translate(4 136)">
<title>lib/include/ellip/posynomial.hpp</title>
<polygon fill="#ffffff" stroke="transparent" points="-4,4 -4,-136 246.5,-136 246.5,4 -4,4"/>
<!-- Node0 -->
<g id="node1" class="node">
<title>Node0</title>
<polygon fill="#bfbfbf" stroke="#000000" points="60.5,-112.5 60.5,-131.5 212.5,-131.5 212.5,-112.5 60.5,-112.5"/>
<text text-anchor="middle" x="136.5" y="-119.5" font-family="Helvetica,sans-Serif" font-size="10.00" fill="#000000">lib/include/ellip/posynomial.hpp</text>
</g>
<!-- Node1 -->
<g id="node2" class="node">
<title>Node1</title>
<g id="a_node2"><a xlink:href="monomial_8hpp.html" target="_top" xlink:title="monomial.hpp">
<polygon fill="#ffffff" stroke="#000000" points="65,-56.5 65,-75.5 142,-75.5 142,-56.5 65,-56.5"/>
<text text-anchor="middle" x="103.5" y="-63.5" font-family="Helvetica,sans-Serif" font-size="10.00" fill="#000000">monomial.hpp</text>
</a>
</g>
</g>
<!-- Node0&#45;&gt;Node1 -->
<g id="edge1" class="edge">
<title>Node0&#45;&gt;Node1</title>
<path fill="none" stroke="#191970" d="M130.7518,-112.2455C126.2565,-104.617 119.8752,-93.7881 114.4175,-84.5267"/>
<polygon fill="#191970" stroke="#191970" points="117.2747,-82.4811 109.1823,-75.6427 111.2439,-86.035 117.2747,-82.4811"/>
</g>
<!-- Node2 -->
<g id="node3" class="node">
<title>Node2</title>
<polygon fill="#ffffff" stroke="#bfbfbf" points="0,-.5 0,-19.5 49,-19.5 49,-.5 0,-.5"/>
<text text-anchor="middle" x="24.5" y="-7.5" font-family="Helvetica,sans-Serif" font-size="10.00" fill="#000000">cassert</text>
</g>
<!-- Node0&#45;&gt;Node2 -->
<g id="edge5" class="edge">
<title>Node0&#45;&gt;Node2</title>
<path fill="none" stroke="#191970" d="M111.8968,-112.4963C94.6062,-104.8018 71.9016,-92.5256 56.5,-76 44.0468,-62.6379 35.5026,-43.5295 30.3966,-29.309"/>
<polygon fill="#191970" stroke="#191970" points="33.6322,-27.9471 27.1544,-19.5633 26.9902,-30.1569 33.6322,-27.9471"/>
</g>
<!-- Node4 -->
<g id="node5" class="node">
<title>Node4</title>
<polygon fill="#ffffff" stroke="#bfbfbf" points="158,-.5 158,-19.5 209,-19.5 209,-.5 158,-.5"/>
<text text-anchor="middle" x="183.5" y="-7.5" font-family="Helvetica,sans-Serif" font-size="10.00" fill="#000000">valarray</text>
</g>
<!-- Node0&#45;&gt;Node4 -->
<g id="edge6" class="edge">
<title>Node0&#45;&gt;Node4</title>
<path fill="none" stroke="#191970" d="M140.5072,-112.4509C148.2422,-94.0186 165.3608,-53.2254 175.5087,-29.043"/>
<polygon fill="#191970" stroke="#191970" points="178.8607,-30.1002 179.5029,-19.5249 172.406,-27.3915 178.8607,-30.1002"/>
</g>
<!-- Node5 -->
<g id="node6" class="node">
<title>Node5</title>
<polygon fill="#ffffff" stroke="#bfbfbf" points="198.5,-56.5 198.5,-75.5 242.5,-75.5 242.5,-56.5 198.5,-56.5"/>
<text text-anchor="middle" x="220.5" y="-63.5" font-family="Helvetica,sans-Serif" font-size="10.00" fill="#000000">vector</text>
</g>
<!-- Node0&#45;&gt;Node5 -->
<g id="edge7" class="edge">
<title>Node0&#45;&gt;Node5</title>
<path fill="none" stroke="#191970" d="M151.1317,-112.2455C163.8994,-103.7337 182.6438,-91.2375 197.4299,-81.3801"/>
<polygon fill="#191970" stroke="#191970" points="199.6569,-84.1019 206.036,-75.6427 195.774,-78.2775 199.6569,-84.1019"/>
</g>
<!-- Node1&#45;&gt;Node2 -->
<g id="edge2" class="edge">
<title>Node1&#45;&gt;Node2</title>
<path fill="none" stroke="#191970" d="M89.7393,-56.2455C77.8448,-47.814 60.435,-35.4729 46.5915,-25.6598"/>
<polygon fill="#191970" stroke="#191970" points="48.2854,-22.5704 38.1031,-19.6427 44.2372,-28.2811 48.2854,-22.5704"/>
</g>
<!-- Node3 -->
<g id="node4" class="node">
<title>Node3</title>
<polygon fill="#ffffff" stroke="#bfbfbf" points="67,-.5 67,-19.5 140,-19.5 140,-.5 67,-.5"/>
<text text-anchor="middle" x="103.5" y="-7.5" font-family="Helvetica,sans-Serif" font-size="10.00" fill="#000000">initializer_list</text>
</g>
<!-- Node1&#45;&gt;Node3 -->
<g id="edge3" class="edge">
<title>Node1&#45;&gt;Node3</title>
<path fill="none" stroke="#191970" d="M103.5,-56.2455C103.5,-48.9382 103.5,-38.6944 103.5,-29.7046"/>
<polygon fill="#191970" stroke="#191970" points="107.0001,-29.6426 103.5,-19.6427 100.0001,-29.6427 107.0001,-29.6426"/>
</g>
<!-- Node1&#45;&gt;Node4 -->
<g id="edge4" class="edge">
<title>Node1&#45;&gt;Node4</title>
<path fill="none" stroke="#191970" d="M117.4349,-56.2455C129.5947,-47.7337 147.4464,-35.2375 161.5285,-25.3801"/>
<polygon fill="#191970" stroke="#191970" points="163.5395,-28.2447 169.7248,-19.6427 159.5253,-22.51 163.5395,-28.2447"/>
</g>
</g>
</svg>
