<?xml version="1.0" encoding="UTF-8" standalone="no"?>
<!DOCTYPE svg PUBLIC "-//W3C//DTD SVG 1.1//EN"
 "http://www.w3.org/Graphics/SVG/1.1/DTD/svg11.dtd">
<!-- Generated by graphviz version 2.40.1 (20161225.0304)
 -->
<!-- Title: lib/include/ellip/posynomial.hpp Pages: 1 -->
<svg width="397pt" height="229pt"
 viewBox="0.00 0.00 396.50 229.00" xmlns="http://www.w3.org/2000/svg" xmlns:xlink="http://www.w3.org/1999/xlink">
<g id="graph0" class="graph" transform="scale(1 1) rotate(0) translate(4 225)">
<title>lib/include/ellip/posynomial.hpp</title>
<polygon fill="#ffffff" stroke="transparent" points="-4,4 -4,-225 392.5,-225 392.5,4 -4,4"/>
<!-- Node6 -->
<g id="node1" class="node">
<title>Node6</title>
<polygon fill="#bfbfbf" stroke="#000000" points="117,-201.5 117,-220.5 269,-220.5 269,-201.5 117,-201.5"/>
<text text-anchor="middle" x="193" y="-208.5" font-family="Helvetica,sans-Serif" font-size="10.00" fill="#000000">lib/include/ellip/posynomial.hpp</text>
</g>
<!-- Node7 -->
<g id="node2" class="node">
<title>Node7</title>
<g id="a_node2"><a xlink:href="gp__solve_8hpp.html" target="_top" xlink:title="lib/include/ellip/gp\l_solve.hpp">
<polygon fill="#ffffff" stroke="#000000" points="146,-134.5 146,-164.5 240,-164.5 240,-134.5 146,-134.5"/>
<text text-anchor="start" x="154" y="-152.5" font-family="Helvetica,sans-Serif" font-size="10.00" fill="#000000">lib/include/ellip/gp</text>
<text text-anchor="middle" x="193" y="-141.5" font-family="Helvetica,sans-Serif" font-size="10.00" fill="#000000">_solve.hpp</text>
</a>
</g>
</g>
<!-- Node6&#45;&gt;Node7 -->
<g id="edge1" class="edge">
<title>Node6&#45;&gt;Node7</title>
<path fill="none" stroke="#191970" d="M193,-191.3693C193,-182.681 193,-172.6241 193,-164.5446"/>
<polygon fill="#191970" stroke="#191970" points="189.5001,-191.3906 193,-201.3906 196.5001,-191.3907 189.5001,-191.3906"/>
</g>
<!-- Node8 -->
<g id="node3" class="node">
<title>Node8</title>
<g id="a_node3"><a xlink:href="gp__solve_8cpp.html" target="_top" xlink:title="lib/include/ellip/gp\l_solve.cpp">
<polygon fill="#ffffff" stroke="#000000" points="0,-67.5 0,-97.5 94,-97.5 94,-67.5 0,-67.5"/>
<text text-anchor="start" x="8" y="-85.5" font-family="Helvetica,sans-Serif" font-size="10.00" fill="#000000">lib/include/ellip/gp</text>
<text text-anchor="middle" x="47" y="-74.5" font-family="Helvetica,sans-Serif" font-size="10.00" fill="#000000">_solve.cpp</text>
</a>
</g>
</g>
<!-- Node7&#45;&gt;Node8 -->
<g id="edge2" class="edge">
<title>Node7&#45;&gt;Node8</title>
<path fill="none" stroke="#191970" d="M150.8879,-130.1746C128.3118,-119.8143 100.9032,-107.2364 79.9082,-97.6017"/>
<polygon fill="#191970" stroke="#191970" points="149.6862,-133.474 160.2348,-134.4639 152.6059,-127.112 149.6862,-133.474"/>
</g>
<!-- Node9 -->
<g id="node4" class="node">
<title>Node9</title>
<g id="a_node4"><a xlink:href="profitmaxprob_8hpp.html" target="_top" xlink:title="lib/include/ellip/profitmaxprob.hpp">
<polygon fill="#ffffff" stroke="#000000" points="112.5,-73 112.5,-92 273.5,-92 273.5,-73 112.5,-73"/>
<text text-anchor="middle" x="193" y="-80" font-family="Helvetica,sans-Serif" font-size="10.00" fill="#000000">lib/include/ellip/profitmaxprob.hpp</text>
</a>
</g>
</g>
<!-- Node7&#45;&gt;Node9 -->
<g id="edge3" class="edge">
<title>Node7&#45;&gt;Node9</title>
<path fill="none" stroke="#191970" d="M193,-124.1199C193,-112.9072 193,-100.4031 193,-92.055"/>
<polygon fill="#191970" stroke="#191970" points="189.5001,-124.2966 193,-134.2967 196.5001,-124.2967 189.5001,-124.2966"/>
</g>
<!-- Node12 -->
<g id="node7" class="node">
<title>Node12</title>
<g id="a_node7"><a xlink:href="rgp__yalaa_8cpp.html" target="_top" xlink:title="lib/include/ellip/rgp\l_yalaa.cpp">
<polygon fill="#ffffff" stroke="#000000" points="291.5,-67.5 291.5,-97.5 388.5,-97.5 388.5,-67.5 291.5,-67.5"/>
<text text-anchor="start" x="299.5" y="-85.5" font-family="Helvetica,sans-Serif" font-size="10.00" fill="#000000">lib/include/ellip/rgp</text>
<text text-anchor="middle" x="340" y="-74.5" font-family="Helvetica,sans-Serif" font-size="10.00" fill="#000000">_yalaa.cpp</text>
</a>
</g>
</g>
<!-- Node7&#45;&gt;Node12 -->
<g id="edge6" class="edge">
<title>Node7&#45;&gt;Node12</title>
<path fill="none" stroke="#191970" d="M235.0964,-130.3132C257.8847,-119.9267 285.6333,-107.2794 306.8664,-97.6017"/>
<polygon fill="#191970" stroke="#191970" points="233.6375,-127.1317 225.9897,-134.4639 236.5407,-133.5013 233.6375,-127.1317"/>
</g>
<!-- Node10 -->
<g id="node5" class="node">
<title>Node10</title>
<g id="a_node5"><a xlink:href="profitmaxprob_8cpp.html" target="_top" xlink:title="lib/include/ellip/profitmaxprob.cpp">
<polygon fill="#ffffff" stroke="#000000" points="27.5,-6 27.5,-25 188.5,-25 188.5,-6 27.5,-6"/>
<text text-anchor="middle" x="108" y="-13" font-family="Helvetica,sans-Serif" font-size="10.00" fill="#000000">lib/include/ellip/profitmaxprob.cpp</text>
</a>
</g>
</g>
<!-- Node9&#45;&gt;Node10 -->
<g id="edge4" class="edge">
<title>Node9&#45;&gt;Node10</title>
<path fill="none" stroke="#191970" d="M172.8993,-66.6559C156.5128,-53.7395 133.9061,-35.9201 120.1558,-25.0817"/>
<polygon fill="#191970" stroke="#191970" points="170.8013,-69.4588 180.8216,-72.9005 175.1347,-63.9613 170.8013,-69.4588"/>
</g>
<!-- Node11 -->
<g id="node6" class="node">
<title>Node11</title>
<g id="a_node6"><a xlink:href="profitmaxprob__2_8cpp.html" target="_top" xlink:title="lib/include/ellip/profitmaxprob\l_2.cpp">
<polygon fill="#ffffff" stroke="#000000" points="206.5,-.5 206.5,-30.5 349.5,-30.5 349.5,-.5 206.5,-.5"/>
<text text-anchor="start" x="214.5" y="-18.5" font-family="Helvetica,sans-Serif" font-size="10.00" fill="#000000">lib/include/ellip/profitmaxprob</text>
<text text-anchor="middle" x="278" y="-7.5" font-family="Helvetica,sans-Serif" font-size="10.00" fill="#000000">_2.cpp</text>
</a>
</g>
</g>
<!-- Node9&#45;&gt;Node11 -->
<g id="edge5" class="edge">
<title>Node9&#45;&gt;Node11</title>
<path fill="none" stroke="#191970" d="M213.1571,-66.6115C227.0222,-55.6825 245.3204,-41.2592 258.9425,-30.5218"/>
<polygon fill="#191970" stroke="#191970" points="210.8653,-63.9613 205.1784,-72.9005 215.1987,-69.4588 210.8653,-63.9613"/>
</g>
</g>
</svg>
