<?xml version="1.0" encoding="UTF-8" standalone="no"?>
<!DOCTYPE svg PUBLIC "-//W3C//DTD SVG 1.1//EN"
 "http://www.w3.org/Graphics/SVG/1.1/DTD/svg11.dtd">
<!-- Generated by graphviz version 2.40.1 (20161225.0304)
 -->
<!-- Title: lib/include/ellip/profitmaxprob.hpp Pages: 1 -->
<svg width="330pt" height="95pt"
 viewBox="0.00 0.00 330.00 95.00" xmlns="http://www.w3.org/2000/svg" xmlns:xlink="http://www.w3.org/1999/xlink">
<g id="graph0" class="graph" transform="scale(1 1) rotate(0) translate(4 91)">
<title>lib/include/ellip/profitmaxprob.hpp</title>
<polygon fill="#ffffff" stroke="transparent" points="-4,4 -4,-91 326,-91 326,4 -4,4"/>
<!-- Node10 -->
<g id="node1" class="node">
<title>Node10</title>
<polygon fill="#bfbfbf" stroke="#000000" points="85,-67.5 85,-86.5 246,-86.5 246,-67.5 85,-67.5"/>
<text text-anchor="middle" x="165.5" y="-74.5" font-family="Helvetica,sans-Serif" font-size="10.00" fill="#000000">lib/include/ellip/profitmaxprob.hpp</text>
</g>
<!-- Node11 -->
<g id="node2" class="node">
<title>Node11</title>
<g id="a_node2"><a xlink:href="profitmaxprob_8cpp.html" target="_top" xlink:title="lib/include/ellip/profitmaxprob.cpp">
<polygon fill="#ffffff" stroke="#000000" points="0,-6 0,-25 161,-25 161,-6 0,-6"/>
<text text-anchor="middle" x="80.5" y="-13" font-family="Helvetica,sans-Serif" font-size="10.00" fill="#000000">lib/include/ellip/profitmaxprob.cpp</text>
</a>
</g>
</g>
<!-- Node10&#45;&gt;Node11 -->
<g id="edge1" class="edge">
<title>Node10&#45;&gt;Node11</title>
<path fill="none" stroke="#191970" d="M144.0338,-61.4685C128.1881,-50.0037 107.1264,-34.765 93.688,-25.0419"/>
<polygon fill="#191970" stroke="#191970" points="142.0653,-64.3643 152.2188,-67.3906 146.1686,-58.6931 142.0653,-64.3643"/>
</g>
<!-- Node12 -->
<g id="node3" class="node">
<title>Node12</title>
<g id="a_node3"><a xlink:href="profitmaxprob__2_8cpp.html" target="_top" xlink:title="lib/include/ellip/profitmaxprob\l_2.cpp">
<polygon fill="#ffffff" stroke="#000000" points="179,-.5 179,-30.5 322,-30.5 322,-.5 179,-.5"/>
<text text-anchor="start" x="187" y="-18.5" font-family="Helvetica,sans-Serif" font-size="10.00" fill="#000000">lib/include/ellip/profitmaxprob</text>
<text text-anchor="middle" x="250.5" y="-7.5" font-family="Helvetica,sans-Serif" font-size="10.00" fill="#000000">_2.cpp</text>
</a>
</g>
</g>
<!-- Node10&#45;&gt;Node12 -->
<g id="edge2" class="edge">
<title>Node10&#45;&gt;Node12</title>
<path fill="none" stroke="#191970" d="M187.1828,-61.3119C200.2496,-51.8577 216.8028,-39.8809 229.7067,-30.5446"/>
<polygon fill="#191970" stroke="#191970" points="184.8314,-58.6931 178.7813,-67.3906 188.9347,-64.3643 184.8314,-58.6931"/>
</g>
</g>
</svg>
