<?xml version="1.0" encoding="UTF-8" standalone="no"?>
<!DOCTYPE svg PUBLIC "-//W3C//DTD SVG 1.1//EN"
 "http://www.w3.org/Graphics/SVG/1.1/DTD/svg11.dtd">
<!-- Generated by graphviz version 2.40.1 (20161225.0304)
 -->
<!-- Title: main Pages: 1 -->
<svg width="571pt" height="104pt"
 viewBox="0.00 0.00 571.00 104.00" xmlns="http://www.w3.org/2000/svg" xmlns:xlink="http://www.w3.org/1999/xlink">
<g id="graph0" class="graph" transform="scale(1 1) rotate(0) translate(4 100)">
<title>main</title>
<polygon fill="#ffffff" stroke="transparent" points="-4,4 -4,-100 567,-100 567,4 -4,4"/>
<!-- Node0 -->
<g id="node1" class="node">
<title>Node0</title>
<polygon fill="#bfbfbf" stroke="#000000" points="0,-19.5 0,-38.5 38,-38.5 38,-19.5 0,-19.5"/>
<text text-anchor="middle" x="19" y="-26.5" font-family="Helvetica,sans-Serif" font-size="10.00" fill="#000000">main</text>
</g>
<!-- Node1 -->
<g id="node2" class="node">
<title>Node1</title>
<g id="a_node2"><a xlink:href="ellipsoid_8hpp.html#a367d06e7b57bd0b7ac18fb2c5686a50a" target="_top" xlink:title="ellipsoid_dc">
<polygon fill="#ffffff" stroke="#000000" points="80.5,-38.5 80.5,-57.5 148.5,-57.5 148.5,-38.5 80.5,-38.5"/>
<text text-anchor="middle" x="114.5" y="-45.5" font-family="Helvetica,sans-Serif" font-size="10.00" fill="#000000">ellipsoid_dc</text>
</a>
</g>
</g>
<!-- Node0&#45;&gt;Node1 -->
<g id="edge1" class="edge">
<title>Node0&#45;&gt;Node1</title>
<path fill="none" stroke="#191970" d="M38.3259,-32.8449C47.5061,-34.6714 58.8903,-36.9363 70.0348,-39.1535"/>
<polygon fill="#191970" stroke="#191970" points="69.6412,-42.6437 80.1319,-41.1624 71.0071,-35.7783 69.6412,-42.6437"/>
</g>
<!-- Node8 -->
<g id="node9" class="node">
<title>Node8</title>
<g id="a_node9"><a xlink:href="classprofit__max.html#a70ffb5775bb2929d0be9eb2fbddb9eee" target="_top" xlink:title="objective function we want to analyse ">
<polygon fill="#ffffff" stroke="#000000" points="74,-.5 74,-19.5 155,-19.5 155,-.5 74,-.5"/>
<text text-anchor="middle" x="114.5" y="-7.5" font-family="Helvetica,sans-Serif" font-size="10.00" fill="#000000">profit_max::obj</text>
</a>
</g>
</g>
<!-- Node0&#45;&gt;Node8 -->
<g id="edge9" class="edge">
<title>Node0&#45;&gt;Node8</title>
<path fill="none" stroke="#191970" d="M38.3259,-25.1551C45.8506,-23.658 54.8561,-21.8663 63.9965,-20.0478"/>
<polygon fill="#191970" stroke="#191970" points="64.7794,-23.4607 73.9042,-18.0767 63.4134,-16.5953 64.7794,-23.4607"/>
</g>
<!-- Node2 -->
<g id="node3" class="node">
<title>Node2</title>
<g id="a_node3"><a xlink:href="rgp__yalaa_8cpp.html#a4b42040f2f10532d8bd23cb5c6c0a370" target="_top" xlink:title="max">
<polygon fill="#ffffff" stroke="#000000" points="205,-76.5 205,-95.5 240,-95.5 240,-76.5 205,-76.5"/>
<text text-anchor="middle" x="222.5" y="-83.5" font-family="Helvetica,sans-Serif" font-size="10.00" fill="#000000">max</text>
</a>
</g>
</g>
<!-- Node1&#45;&gt;Node2 -->
<g id="edge2" class="edge">
<title>Node1&#45;&gt;Node2</title>
<path fill="none" stroke="#191970" d="M141.753,-57.589C158.1054,-63.3426 178.8358,-70.6367 195.1972,-76.3934"/>
<polygon fill="#191970" stroke="#191970" points="194.1468,-79.7341 204.7416,-79.7517 196.4702,-73.131 194.1468,-79.7341"/>
</g>
<!-- Node3 -->
<g id="node4" class="node">
<title>Node3</title>
<g id="a_node4"><a xlink:href="ellipsoid_8hpp.html#a13c8b31efc8b872015b808cc84884ce7" target="_top" xlink:title="norm">
<polygon fill="#ffffff" stroke="#000000" points="314.5,-38.5 314.5,-57.5 352.5,-57.5 352.5,-38.5 314.5,-38.5"/>
<text text-anchor="middle" x="333.5" y="-45.5" font-family="Helvetica,sans-Serif" font-size="10.00" fill="#000000">norm</text>
</a>
</g>
</g>
<!-- Node1&#45;&gt;Node3 -->
<g id="edge3" class="edge">
<title>Node1&#45;&gt;Node3</title>
<path fill="none" stroke="#191970" d="M148.7188,-48C191.4752,-48 263.9117,-48 304.2194,-48"/>
<polygon fill="#191970" stroke="#191970" points="304.4483,-51.5001 314.4483,-48 304.4483,-44.5001 304.4483,-51.5001"/>
</g>
<!-- Node6 -->
<g id="node7" class="node">
<title>Node6</title>
<g id="a_node7"><a xlink:href="classellipsoid.html#a3b72faa7ef0a2600c3611e5371aea7df" target="_top" xlink:title="ellipsoid::x">
<polygon fill="#ffffff" stroke="#000000" points="191,-.5 191,-19.5 254,-19.5 254,-.5 191,-.5"/>
<text text-anchor="middle" x="222.5" y="-7.5" font-family="Helvetica,sans-Serif" font-size="10.00" fill="#000000">ellipsoid::x</text>
</a>
</g>
</g>
<!-- Node1&#45;&gt;Node6 -->
<g id="edge6" class="edge">
<title>Node1&#45;&gt;Node6</title>
<path fill="none" stroke="#191970" d="M141.753,-38.411C155.0552,-33.7306 171.2545,-28.0308 185.6423,-22.9685"/>
<polygon fill="#191970" stroke="#191970" points="186.9843,-26.2067 195.2558,-19.5859 184.6609,-19.6035 186.9843,-26.2067"/>
</g>
<!-- Node4 -->
<g id="node5" class="node">
<title>Node4</title>
<g id="a_node5"><a xlink:href="monomial_8hpp.html#aac228420ac44c1280baec6bfd23e034c" target="_top" xlink:title="Square root. ">
<polygon fill="#ffffff" stroke="#000000" points="413,-19.5 413,-38.5 446,-38.5 446,-19.5 413,-19.5"/>
<text text-anchor="middle" x="429.5" y="-26.5" font-family="Helvetica,sans-Serif" font-size="10.00" fill="#000000">sqrt</text>
</a>
</g>
</g>
<!-- Node3&#45;&gt;Node4 -->
<g id="edge4" class="edge">
<title>Node3&#45;&gt;Node4</title>
<path fill="none" stroke="#191970" d="M352.927,-44.1551C367.261,-41.3181 386.9397,-37.4234 402.7584,-34.2926"/>
<polygon fill="#191970" stroke="#191970" points="403.8498,-37.6446 412.9799,-32.2696 402.4907,-30.7778 403.8498,-37.6446"/>
</g>
<!-- Node5 -->
<g id="node6" class="node">
<title>Node5</title>
<g id="a_node6"><a xlink:href="classmonomial.html#ac34f9253980541a1050dc2301af35126" target="_top" xlink:title="Square root. ">
<polygon fill="#ffffff" stroke="#000000" points="482,-19.5 482,-38.5 563,-38.5 563,-19.5 482,-19.5"/>
<text text-anchor="middle" x="522.5" y="-26.5" font-family="Helvetica,sans-Serif" font-size="10.00" fill="#000000">monomial::sqrt</text>
</a>
</g>
</g>
<!-- Node4&#45;&gt;Node5 -->
<g id="edge5" class="edge">
<title>Node4&#45;&gt;Node5</title>
<path fill="none" stroke="#191970" d="M446.1265,-29C453.4165,-29 462.4053,-29 471.6255,-29"/>
<polygon fill="#191970" stroke="#191970" points="471.6518,-32.5001 481.6518,-29 471.6517,-25.5001 471.6518,-32.5001"/>
</g>
<!-- Node7 -->
<g id="node8" class="node">
<title>Node7</title>
<g id="a_node8"><a xlink:href="classellipsoid.html#a1517b27cfc4106d689a76e54565e730b" target="_top" xlink:title="ellipsoid::update">
<polygon fill="#ffffff" stroke="#000000" points="290,-.5 290,-19.5 377,-19.5 377,-.5 290,-.5"/>
<text text-anchor="middle" x="333.5" y="-7.5" font-family="Helvetica,sans-Serif" font-size="10.00" fill="#000000">ellipsoid::update</text>
</a>
</g>
</g>
<!-- Node6&#45;&gt;Node7 -->
<g id="edge7" class="edge">
<title>Node6&#45;&gt;Node7</title>
<path fill="none" stroke="#191970" d="M254.0112,-10C262.0271,-10 270.8696,-10 279.6567,-10"/>
<polygon fill="#191970" stroke="#191970" points="279.8937,-13.5001 289.8937,-10 279.8937,-6.5001 279.8937,-13.5001"/>
</g>
<!-- Node7&#45;&gt;Node4 -->
<g id="edge8" class="edge">
<title>Node7&#45;&gt;Node4</title>
<path fill="none" stroke="#191970" d="M377.0059,-18.6105C385.8365,-20.3583 394.8717,-22.1465 402.9021,-23.7358"/>
<polygon fill="#191970" stroke="#191970" points="402.2888,-27.1823 412.7781,-25.6905 403.6479,-20.3155 402.2888,-27.1823"/>
</g>
</g>
</svg>
