<?xml version="1.0" encoding="UTF-8" standalone="no"?>
<!DOCTYPE svg PUBLIC "-//W3C//DTD SVG 1.1//EN"
 "http://www.w3.org/Graphics/SVG/1.1/DTD/svg11.dtd">
<!-- Generated by graphviz version 2.40.1 (20161225.0304)
 -->
<!-- Title: zeros Pages: 1 -->
<svg width="659pt" height="746pt"
 viewBox="0.00 0.00 659.00 746.00" xmlns="http://www.w3.org/2000/svg" xmlns:xlink="http://www.w3.org/1999/xlink">
<g id="graph0" class="graph" transform="scale(1 1) rotate(0) translate(4 742)">
<title>zeros</title>
<polygon fill="#ffffff" stroke="transparent" points="-4,4 -4,-742 655,-742 655,4 -4,4"/>
<!-- Node1 -->
<g id="node1" class="node">
<title>Node1</title>
<polygon fill="#bfbfbf" stroke="#000000" points="0,-364.5 0,-383.5 41,-383.5 41,-364.5 0,-364.5"/>
<text text-anchor="middle" x="20.5" y="-371.5" font-family="Helvetica,sans-Serif" font-size="10.00" fill="#000000">zeros</text>
</g>
<!-- Node2 -->
<g id="node2" class="node">
<title>Node2</title>
<g id="a_node2"><a xlink:href="classchol__ext.html#ab20edbdf95e1058f60d29d43e13d720c" target="_top" xlink:title="Construct a new chol ext object. ">
<polygon fill="#ffffff" stroke="#000000" points="96,-718.5 96,-737.5 192,-737.5 192,-718.5 96,-718.5"/>
<text text-anchor="middle" x="144" y="-725.5" font-family="Helvetica,sans-Serif" font-size="10.00" fill="#000000">chol_ext::chol_ext</text>
</a>
</g>
</g>
<!-- Node1&#45;&gt;Node2 -->
<g id="edge1" class="edge">
<title>Node1&#45;&gt;Node2</title>
<path fill="none" stroke="#191970" d="M21.3479,-394.156C24.4351,-458.3246 37.0755,-656.4262 77,-704 82.3216,-710.3412 89.447,-715.0071 97.0674,-718.4403"/>
<polygon fill="#191970" stroke="#191970" points="24.8278,-393.6305 20.8782,-383.7994 17.8349,-393.9477 24.8278,-393.6305"/>
</g>
<!-- Node3 -->
<g id="node3" class="node">
<title>Node3</title>
<g id="a_node3"><a xlink:href="lsq__corr__ell_8cpp.html#af9bab536d9bcc0cea715587fbf597ae2" target="_top" xlink:title="Construct a distance matrix object. ">
<polygon fill="#ffffff" stroke="#000000" points="94.5,-631 94.5,-661 193.5,-661 193.5,-631 94.5,-631"/>
<text text-anchor="start" x="102.5" y="-649" font-family="Helvetica,sans-Serif" font-size="10.00" fill="#000000">construct_distance</text>
<text text-anchor="middle" x="144" y="-638" font-family="Helvetica,sans-Serif" font-size="10.00" fill="#000000">_matrix</text>
</a>
</g>
</g>
<!-- Node1&#45;&gt;Node3 -->
<g id="edge2" class="edge">
<title>Node1&#45;&gt;Node3</title>
<path fill="none" stroke="#191970" d="M22.8518,-393.8716C29.2978,-445.3919 48.6742,-581.6505 77,-616 82.0272,-622.0963 88.5493,-626.9993 95.5472,-630.9295"/>
<polygon fill="#191970" stroke="#191970" points="26.2982,-393.2195 21.6128,-383.717 19.3498,-394.0673 26.2982,-393.2195"/>
</g>
<!-- Node9 -->
<g id="node9" class="node">
<title>Node9</title>
<g id="a_node9"><a xlink:href="lsq__corr__ell_8cpp.html#af5c9ca8e9e1c67d1c859fc54ea6eb836" target="_top" xlink:title="lsq_corr_poly">
<polygon fill="#ffffff" stroke="#000000" points="437.5,-556.5 437.5,-575.5 511.5,-575.5 511.5,-556.5 437.5,-556.5"/>
<text text-anchor="middle" x="474.5" y="-563.5" font-family="Helvetica,sans-Serif" font-size="10.00" fill="#000000">lsq_corr_poly</text>
</a>
</g>
</g>
<!-- Node1&#45;&gt;Node9 -->
<g id="edge13" class="edge">
<title>Node1&#45;&gt;Node9</title>
<path fill="none" stroke="#191970" d="M24.1152,-393.549C32.0836,-434.3244 52.4178,-526.2259 77,-545 132.6764,-587.5218 349.4948,-575.862 437.2856,-569.1716"/>
<polygon fill="#191970" stroke="#191970" points="27.552,-392.8865 22.2416,-383.7187 20.6758,-394.1971 27.552,-392.8865"/>
</g>
<!-- Node10 -->
<g id="node10" class="node">
<title>Node10</title>
<g id="a_node10"><a xlink:href="corr__fn__ell_8cpp.html#a911f1f904bd9749bdbe6451b3696c749" target="_top" xlink:title="Create a 2d isotropic object. ">
<polygon fill="#ffffff" stroke="#000000" points="93.5,-516.5 93.5,-535.5 194.5,-535.5 194.5,-516.5 93.5,-516.5"/>
<text text-anchor="middle" x="144" y="-523.5" font-family="Helvetica,sans-Serif" font-size="10.00" fill="#000000">create_2d_isotropic</text>
</a>
</g>
</g>
<!-- Node1&#45;&gt;Node10 -->
<g id="edge9" class="edge">
<title>Node1&#45;&gt;Node10</title>
<path fill="none" stroke="#191970" d="M23.4395,-393.8355C28.8044,-422.9303 42.9474,-476.9701 77,-507 81.8061,-511.2384 87.494,-514.5362 93.4925,-517.1012"/>
<polygon fill="#191970" stroke="#191970" points="26.8431,-392.9677 21.741,-383.6823 19.939,-394.1227 26.8431,-392.9677"/>
</g>
<!-- Node12 -->
<g id="node12" class="node">
<title>Node12</title>
<g id="a_node12"><a xlink:href="lsq__corr__ell_8cpp.html#a233a10890259800812279af696624d11" target="_top" xlink:title="lsq_corr_core2">
<polygon fill="#ffffff" stroke="#000000" points="270,-677.5 270,-696.5 350,-696.5 350,-677.5 270,-677.5"/>
<text text-anchor="middle" x="310" y="-684.5" font-family="Helvetica,sans-Serif" font-size="10.00" fill="#000000">lsq_corr_core2</text>
</a>
</g>
</g>
<!-- Node1&#45;&gt;Node12 -->
<g id="edge11" class="edge">
<title>Node1&#45;&gt;Node12</title>
<path fill="none" stroke="#191970" d="M21.2331,-393.7623C23.9124,-454.0918 35.3193,-634.0219 77,-671 131.4437,-719.3011 224.0912,-707.7337 274.6008,-696.5072"/>
<polygon fill="#191970" stroke="#191970" points="24.7256,-393.5063 20.818,-383.6584 17.7315,-393.7937 24.7256,-393.5063"/>
</g>
<!-- Node13 -->
<g id="node13" class="node">
<title>Node13</title>
<g id="a_node13"><a xlink:href="lsq__corr__ell_8cpp.html#a0bd28e2ae043fa5d1742c6f65df2de4e" target="_top" xlink:title="mle_corr_core">
<polygon fill="#ffffff" stroke="#000000" points="271,-595.5 271,-614.5 349,-614.5 349,-595.5 271,-595.5"/>
<text text-anchor="middle" x="310" y="-602.5" font-family="Helvetica,sans-Serif" font-size="10.00" fill="#000000">mle_corr_core</text>
</a>
</g>
</g>
<!-- Node1&#45;&gt;Node13 -->
<g id="edge14" class="edge">
<title>Node1&#45;&gt;Node13</title>
<path fill="none" stroke="#191970" d="M23.1402,-393.6421C29.7806,-439.9277 48.694,-553.7691 77,-578 130.9824,-624.2107 219.6313,-619.9684 270.6045,-612.5836"/>
<polygon fill="#191970" stroke="#191970" points="26.5958,-393.0804 21.7496,-383.6589 19.6628,-394.0462 26.5958,-393.0804"/>
</g>
<!-- Node14 -->
<g id="node14" class="node">
<title>Node14</title>
<g id="a_node14"><a xlink:href="classlmi0__oracle.html#a2dfa17d2244203f610ca993e1aea70da" target="_top" xlink:title="lmi0_oracle::operator()">
<polygon fill="#ffffff" stroke="#000000" points="87.5,-478.5 87.5,-497.5 200.5,-497.5 200.5,-478.5 87.5,-478.5"/>
<text text-anchor="middle" x="144" y="-485.5" font-family="Helvetica,sans-Serif" font-size="10.00" fill="#000000">lmi0_oracle::operator()</text>
</a>
</g>
</g>
<!-- Node1&#45;&gt;Node14 -->
<g id="edge16" class="edge">
<title>Node1&#45;&gt;Node14</title>
<path fill="none" stroke="#191970" d="M26.9398,-393.1578C35.1765,-414.755 51.5033,-449.4036 77,-469 82.0807,-472.905 87.9295,-476.0074 94.0105,-478.4723"/>
<polygon fill="#191970" stroke="#191970" points="30.2244,-391.9483 23.5415,-383.727 23.6389,-394.3214 30.2244,-391.9483"/>
</g>
<!-- Node16 -->
<g id="node16" class="node">
<title>Node16</title>
<g id="a_node16"><a xlink:href="classlmi__oracle.html#a8b68a17f756b8146888b5a3103b946df" target="_top" xlink:title="lmi_oracle::operator()">
<polygon fill="#ffffff" stroke="#000000" points="90,-440.5 90,-459.5 198,-459.5 198,-440.5 90,-440.5"/>
<text text-anchor="middle" x="144" y="-447.5" font-family="Helvetica,sans-Serif" font-size="10.00" fill="#000000">lmi_oracle::operator()</text>
</a>
</g>
</g>
<!-- Node1&#45;&gt;Node16 -->
<g id="edge18" class="edge">
<title>Node1&#45;&gt;Node16</title>
<path fill="none" stroke="#191970" d="M33.7763,-391.5947C44.221,-404.2756 59.8395,-420.8746 77,-431 83.5602,-434.8708 90.9493,-437.9872 98.3619,-440.4859"/>
<polygon fill="#191970" stroke="#191970" points="36.3705,-389.233 27.4166,-383.5692 30.8843,-393.5805 36.3705,-389.233"/>
</g>
<!-- Node18 -->
<g id="node18" class="node">
<title>Node18</title>
<g id="a_node18"><a xlink:href="classlowpass__oracle.html#a3910e56d01f5198108193435b2a75b74" target="_top" xlink:title="lowpass_oracle::operator()">
<polygon fill="#ffffff" stroke="#000000" points="78.5,-402.5 78.5,-421.5 209.5,-421.5 209.5,-402.5 78.5,-402.5"/>
<text text-anchor="middle" x="144" y="-409.5" font-family="Helvetica,sans-Serif" font-size="10.00" fill="#000000">lowpass_oracle::operator()</text>
</a>
</g>
</g>
<!-- Node1&#45;&gt;Node18 -->
<g id="edge20" class="edge">
<title>Node1&#45;&gt;Node18</title>
<path fill="none" stroke="#191970" d="M50.6239,-384.4287C59.1261,-387.2907 68.4027,-390.3371 77,-393 87.3944,-396.2195 98.7611,-399.5236 109.1319,-402.455"/>
<polygon fill="#191970" stroke="#191970" points="51.6804,-381.0912 41.086,-381.1876 49.4282,-387.719 51.6804,-381.0912"/>
</g>
<!-- Node20 -->
<g id="node20" class="node">
<title>Node20</title>
<g id="a_node20"><a xlink:href="classlmi__old__oracle.html#a505d905c270e88faf78ee85158aebb93" target="_top" xlink:title="lmi_old_oracle::operator()">
<polygon fill="#ffffff" stroke="#000000" points="81,-364.5 81,-383.5 207,-383.5 207,-364.5 81,-364.5"/>
<text text-anchor="middle" x="144" y="-371.5" font-family="Helvetica,sans-Serif" font-size="10.00" fill="#000000">lmi_old_oracle::operator()</text>
</a>
</g>
</g>
<!-- Node1&#45;&gt;Node20 -->
<g id="edge22" class="edge">
<title>Node1&#45;&gt;Node20</title>
<path fill="none" stroke="#191970" d="M51.1927,-374C60.2615,-374 70.5385,-374 80.8671,-374"/>
<polygon fill="#191970" stroke="#191970" points="51.1712,-370.5001 41.1711,-374 51.1711,-377.5001 51.1712,-370.5001"/>
</g>
<!-- Node22 -->
<g id="node22" class="node">
<title>Node22</title>
<g id="a_node22"><a xlink:href="classmy__fir__oracle.html#a9274f234e5d3c4c95717d5e86ad96352" target="_top" xlink:title="my_fir_oracle::operator()">
<polygon fill="#ffffff" stroke="#000000" points="83,-326.5 83,-345.5 205,-345.5 205,-326.5 83,-326.5"/>
<text text-anchor="middle" x="144" y="-333.5" font-family="Helvetica,sans-Serif" font-size="10.00" fill="#000000">my_fir_oracle::operator()</text>
</a>
</g>
</g>
<!-- Node1&#45;&gt;Node22 -->
<g id="edge24" class="edge">
<title>Node1&#45;&gt;Node22</title>
<path fill="none" stroke="#191970" d="M50.6239,-363.5713C59.1261,-360.7093 68.4027,-357.6629 77,-355 87.3944,-351.7805 98.7611,-348.4764 109.1319,-345.545"/>
<polygon fill="#191970" stroke="#191970" points="49.4282,-360.281 41.086,-366.8124 51.6804,-366.9088 49.4282,-360.281"/>
</g>
<!-- Node23 -->
<g id="node23" class="node">
<title>Node23</title>
<g id="a_node23"><a xlink:href="classnetwork__oracle.html#a1319d059146c0528570d1cc71ec7b79d" target="_top" xlink:title="Make object callable for cutting_plane_feas() ">
<polygon fill="#ffffff" stroke="#000000" points="77,-266.5 77,-307.5 211,-307.5 211,-266.5 77,-266.5"/>
<text text-anchor="start" x="85" y="-295.5" font-family="Helvetica,sans-Serif" font-size="10.00" fill="#000000">network_oracle&lt; Graph,</text>
<text text-anchor="start" x="85" y="-284.5" font-family="Helvetica,sans-Serif" font-size="10.00" fill="#000000"> Container, optscaling</text>
<text text-anchor="middle" x="144" y="-273.5" font-family="Helvetica,sans-Serif" font-size="10.00" fill="#000000">_oracle::Ratio &gt;::operator()</text>
</a>
</g>
</g>
<!-- Node1&#45;&gt;Node23 -->
<g id="edge25" class="edge">
<title>Node1&#45;&gt;Node23</title>
<path fill="none" stroke="#191970" d="M34.5962,-356.6932C45.2637,-344.4225 60.8023,-328.2102 77,-317 81.9255,-313.5911 87.3007,-310.4228 92.7946,-307.5215"/>
<polygon fill="#191970" stroke="#191970" points="31.8232,-354.552 28.0409,-364.4487 37.1693,-359.0707 31.8232,-354.552"/>
</g>
<!-- Node24 -->
<g id="node24" class="node">
<title>Node24</title>
<g id="a_node24"><a xlink:href="classqmi__oracle.html#a17a23146225c498782e66dea9f1d64ec" target="_top" xlink:title="qmi_oracle::operator()">
<polygon fill="#ffffff" stroke="#000000" points="88.5,-190.5 88.5,-209.5 199.5,-209.5 199.5,-190.5 88.5,-190.5"/>
<text text-anchor="middle" x="144" y="-197.5" font-family="Helvetica,sans-Serif" font-size="10.00" fill="#000000">qmi_oracle::operator()</text>
</a>
</g>
</g>
<!-- Node1&#45;&gt;Node24 -->
<g id="edge26" class="edge">
<title>Node1&#45;&gt;Node24</title>
<path fill="none" stroke="#191970" d="M22.6408,-354.2464C27.1026,-322.5305 40.2528,-260.1544 77,-224 83.4295,-217.6742 91.6402,-213.0046 100.0935,-209.5609"/>
<polygon fill="#191970" stroke="#191970" points="19.1342,-354.0808 21.3625,-364.4387 26.0798,-354.952 19.1342,-354.0808"/>
</g>
<!-- Node26 -->
<g id="node26" class="node">
<title>Node26</title>
<g id="a_node26"><a xlink:href="classlsq__oracle.html#a867c30a1ae0351df3213417e37ff18ec" target="_top" xlink:title="lsq_oracle::operator()">
<polygon fill="#ffffff" stroke="#000000" points="420.5,-209.5 420.5,-228.5 528.5,-228.5 528.5,-209.5 420.5,-209.5"/>
<text text-anchor="middle" x="474.5" y="-216.5" font-family="Helvetica,sans-Serif" font-size="10.00" fill="#000000">lsq_oracle::operator()</text>
</a>
</g>
</g>
<!-- Node1&#45;&gt;Node26 -->
<g id="edge29" class="edge">
<title>Node1&#45;&gt;Node26</title>
<path fill="none" stroke="#191970" d="M23.898,-354.2524C29.6646,-327.3429 44.1161,-279.8909 77,-257 104.5595,-237.8155 318.0912,-225.9036 420.3081,-221.2449"/>
<polygon fill="#191970" stroke="#191970" points="20.3988,-353.9122 21.9299,-364.3959 27.2706,-355.2456 20.3988,-353.9122"/>
</g>
<!-- Node27 -->
<g id="node27" class="node">
<title>Node27</title>
<g id="a_node27"><a xlink:href="classmle__oracle.html#af7895eb442f4069d2eafcb1539a19d0a" target="_top" xlink:title="mle_oracle::operator()">
<polygon fill="#ffffff" stroke="#000000" points="254.5,-133.5 254.5,-152.5 365.5,-152.5 365.5,-133.5 254.5,-133.5"/>
<text text-anchor="middle" x="310" y="-140.5" font-family="Helvetica,sans-Serif" font-size="10.00" fill="#000000">mle_oracle::operator()</text>
</a>
</g>
</g>
<!-- Node1&#45;&gt;Node27 -->
<g id="edge30" class="edge">
<title>Node1&#45;&gt;Node27</title>
<path fill="none" stroke="#191970" d="M22.2672,-354.3013C27.2866,-303.3407 43.485,-169.3055 77,-143 137.2997,-95.6714 235.9992,-118.4113 283.2078,-133.4191"/>
<polygon fill="#191970" stroke="#191970" points="18.7734,-354.0708 21.3175,-364.3557 25.7424,-354.7292 18.7734,-354.0708"/>
</g>
<!-- Node28 -->
<g id="node28" class="node">
<title>Node28</title>
<g id="a_node28"><a xlink:href="classqmi__oracle.html#afdfd2fd4217ee75eb01f35ce85bb48c5" target="_top" xlink:title="Construct a new qmi oracle object. ">
<polygon fill="#ffffff" stroke="#000000" points="85.5,-76.5 85.5,-95.5 202.5,-95.5 202.5,-76.5 85.5,-76.5"/>
<text text-anchor="middle" x="144" y="-83.5" font-family="Helvetica,sans-Serif" font-size="10.00" fill="#000000">qmi_oracle::qmi_oracle</text>
</a>
</g>
</g>
<!-- Node1&#45;&gt;Node28 -->
<g id="edge31" class="edge">
<title>Node1&#45;&gt;Node28</title>
<path fill="none" stroke="#191970" d="M22.2783,-354.0295C27.5549,-298.9972 44.7989,-146.8012 77,-110 82.5327,-103.677 89.8534,-99.0197 97.6219,-95.5893"/>
<polygon fill="#191970" stroke="#191970" points="18.7716,-353.941 21.3329,-364.2216 25.7417,-354.5876 18.7716,-353.941"/>
</g>
<!-- Node29 -->
<g id="node29" class="node">
<title>Node29</title>
<g id="a_node29"><a xlink:href="BM__lowpass_8cpp.html#a53d8f44dcc8f947b0ae418d7c04f3c48" target="_top" xlink:title="run_lowpass">
<polygon fill="#ffffff" stroke="#000000" points="108.5,-38.5 108.5,-57.5 179.5,-57.5 179.5,-38.5 108.5,-38.5"/>
<text text-anchor="middle" x="144" y="-45.5" font-family="Helvetica,sans-Serif" font-size="10.00" fill="#000000">run_lowpass</text>
</a>
</g>
</g>
<!-- Node1&#45;&gt;Node29 -->
<g id="edge32" class="edge">
<title>Node1&#45;&gt;Node29</title>
<path fill="none" stroke="#191970" d="M21.4919,-353.9505C24.9236,-292.6893 38.2825,-109.5533 77,-67 85.0554,-58.1465 96.9004,-53.2992 108.3993,-50.6835"/>
<polygon fill="#191970" stroke="#191970" points="17.9826,-354.0349 20.948,-364.2062 24.9728,-354.4057 17.9826,-354.0349"/>
</g>
<!-- Node32 -->
<g id="node32" class="node">
<title>Node32</title>
<g id="a_node32"><a xlink:href="classchol__ext.html#a71a128edb506ca260c44445b265a8649" target="_top" xlink:title="chol_ext::sqrt">
<polygon fill="#ffffff" stroke="#000000" points="106,-152.5 106,-171.5 182,-171.5 182,-152.5 106,-152.5"/>
<text text-anchor="middle" x="144" y="-159.5" font-family="Helvetica,sans-Serif" font-size="10.00" fill="#000000">chol_ext::sqrt</text>
</a>
</g>
</g>
<!-- Node1&#45;&gt;Node32 -->
<g id="edge36" class="edge">
<title>Node1&#45;&gt;Node32</title>
<path fill="none" stroke="#191970" d="M23.8058,-354.2229C31.5573,-310.1179 52.1411,-205.6494 77,-181 84.7269,-173.3382 95.3018,-168.7153 105.7671,-165.9415"/>
<polygon fill="#191970" stroke="#191970" points="20.3225,-353.8279 22.0789,-364.2761 27.2214,-355.0131 20.3225,-353.8279"/>
</g>
<!-- Node33 -->
<g id="node33" class="node">
<title>Node33</title>
<g id="a_node33"><a xlink:href="firfilter_8cpp.html#a555f208c3df236f769691ecd8957e693" target="_top" xlink:title="TEST_CASE">
<polygon fill="#ffffff" stroke="#000000" points="106.5,-.5 106.5,-19.5 181.5,-19.5 181.5,-.5 106.5,-.5"/>
<text text-anchor="middle" x="144" y="-7.5" font-family="Helvetica,sans-Serif" font-size="10.00" fill="#000000">TEST_CASE</text>
</a>
</g>
</g>
<!-- Node1&#45;&gt;Node33 -->
<g id="edge38" class="edge">
<title>Node1&#45;&gt;Node33</title>
<path fill="none" stroke="#191970" d="M21.0387,-354.1126C23.2282,-288.1053 33.5502,-77.7086 77,-29 84.485,-20.6091 95.3739,-15.8072 106.2057,-13.094"/>
<polygon fill="#191970" stroke="#191970" points="17.5323,-354.2725 20.7269,-364.3743 24.5291,-354.4852 17.5323,-354.2725"/>
</g>
<!-- Node4 -->
<g id="node4" class="node">
<title>Node4</title>
<g id="a_node4"><a xlink:href="lsq__corr__ell_8cpp.html#aa75b5fa6c5c6c0583b84a969c5bb5038" target="_top" xlink:title="Construct distance matrix for polynomial. ">
<polygon fill="#ffffff" stroke="#000000" points="253.5,-635.5 253.5,-654.5 366.5,-654.5 366.5,-635.5 253.5,-635.5"/>
<text text-anchor="middle" x="310" y="-642.5" font-family="Helvetica,sans-Serif" font-size="10.00" fill="#000000">construct_poly_matrix</text>
</a>
</g>
</g>
<!-- Node3&#45;&gt;Node4 -->
<g id="edge3" class="edge">
<title>Node3&#45;&gt;Node4</title>
<path fill="none" stroke="#191970" d="M204.129,-645.6378C220.1514,-645.5413 237.4071,-645.4373 253.2423,-645.3419"/>
<polygon fill="#191970" stroke="#191970" points="203.7842,-642.1397 193.8055,-645.7 203.8264,-649.1396 203.7842,-642.1397"/>
</g>
<!-- Node5 -->
<g id="node5" class="node">
<title>Node5</title>
<g id="a_node5"><a xlink:href="corr__fn__ell_8cpp.html#a6ef494bfe01e16b424356fd36008d285" target="_top" xlink:title="lsq_corr_poly2">
<polygon fill="#ffffff" stroke="#000000" points="434.5,-635.5 434.5,-654.5 514.5,-654.5 514.5,-635.5 434.5,-635.5"/>
<text text-anchor="middle" x="474.5" y="-642.5" font-family="Helvetica,sans-Serif" font-size="10.00" fill="#000000">lsq_corr_poly2</text>
</a>
</g>
</g>
<!-- Node4&#45;&gt;Node5 -->
<g id="edge4" class="edge">
<title>Node4&#45;&gt;Node5</title>
<path fill="none" stroke="#191970" d="M376.7044,-645C396.264,-645 417.0408,-645 434.3903,-645"/>
<polygon fill="#191970" stroke="#191970" points="376.6116,-641.5001 366.6116,-645 376.6115,-648.5001 376.6116,-641.5001"/>
</g>
<!-- Node7 -->
<g id="node7" class="node">
<title>Node7</title>
<g id="a_node7"><a xlink:href="corr__fn__ell_8cpp.html#aa75b309f976ce7c26224ef4e0a5fd374" target="_top" xlink:title="mle_corr_poly">
<polygon fill="#ffffff" stroke="#000000" points="436,-596.5 436,-615.5 513,-615.5 513,-596.5 436,-596.5"/>
<text text-anchor="middle" x="474.5" y="-603.5" font-family="Helvetica,sans-Serif" font-size="10.00" fill="#000000">mle_corr_poly</text>
</a>
</g>
</g>
<!-- Node4&#45;&gt;Node7 -->
<g id="edge6" class="edge">
<title>Node4&#45;&gt;Node7</title>
<path fill="none" stroke="#191970" d="M360.0196,-633.1412C384.3608,-627.3704 413.1757,-620.5389 435.807,-615.1734"/>
<polygon fill="#191970" stroke="#191970" points="359.1641,-629.747 350.2412,-635.4595 360.7789,-636.5582 359.1641,-629.747"/>
</g>
<!-- Node4&#45;&gt;Node9 -->
<g id="edge8" class="edge">
<title>Node4&#45;&gt;Node9</title>
<path fill="none" stroke="#191970" d="M357.8615,-631.7812C363.1412,-629.5317 368.3003,-626.9492 373,-624 392.4341,-611.8043 389.4961,-599.0838 409,-587 417.6286,-581.6541 427.7483,-577.5431 437.4176,-574.4362"/>
<polygon fill="#191970" stroke="#191970" points="356.3659,-628.6069 348.301,-635.4778 358.8903,-635.1359 356.3659,-628.6069"/>
</g>
<!-- Node6 -->
<g id="node6" class="node">
<title>Node6</title>
<g id="a_node6"><a xlink:href="corr__fn__ell_8cpp.html#a81c9df61833f0dcc6a7cf2412f2872cd" target="_top" xlink:title="TEST_CASE">
<polygon fill="#ffffff" stroke="#000000" points="576,-635.5 576,-654.5 651,-654.5 651,-635.5 576,-635.5"/>
<text text-anchor="middle" x="613.5" y="-642.5" font-family="Helvetica,sans-Serif" font-size="10.00" fill="#000000">TEST_CASE</text>
</a>
</g>
</g>
<!-- Node5&#45;&gt;Node6 -->
<g id="edge5" class="edge">
<title>Node5&#45;&gt;Node6</title>
<path fill="none" stroke="#191970" d="M524.9129,-645C541.7051,-645 560.1088,-645 575.77,-645"/>
<polygon fill="#191970" stroke="#191970" points="524.7046,-641.5001 514.7046,-645 524.7045,-648.5001 524.7046,-641.5001"/>
</g>
<!-- Node8 -->
<g id="node8" class="node">
<title>Node8</title>
<g id="a_node8"><a xlink:href="corr__fn__ell_8cpp.html#a1b3635c3766472722bdc7bda665a617c" target="_top" xlink:title="TEST_CASE">
<polygon fill="#ffffff" stroke="#000000" points="576,-596.5 576,-615.5 651,-615.5 651,-596.5 576,-596.5"/>
<text text-anchor="middle" x="613.5" y="-603.5" font-family="Helvetica,sans-Serif" font-size="10.00" fill="#000000">TEST_CASE</text>
</a>
</g>
</g>
<!-- Node7&#45;&gt;Node8 -->
<g id="edge7" class="edge">
<title>Node7&#45;&gt;Node8</title>
<path fill="none" stroke="#191970" d="M523.6461,-606C540.8387,-606 559.8537,-606 575.9476,-606"/>
<polygon fill="#191970" stroke="#191970" points="523.2193,-602.5001 513.2192,-606 523.2192,-609.5001 523.2193,-602.5001"/>
</g>
<!-- Node11 -->
<g id="node11" class="node">
<title>Node11</title>
<g id="a_node11"><a xlink:href="corr__fn__ell_8cpp.html#a5c214dfc99c3f1883061d9dd869ec6bc" target="_top" xlink:title="TEST_CASE">
<polygon fill="#ffffff" stroke="#000000" points="272.5,-516.5 272.5,-535.5 347.5,-535.5 347.5,-516.5 272.5,-516.5"/>
<text text-anchor="middle" x="310" y="-523.5" font-family="Helvetica,sans-Serif" font-size="10.00" fill="#000000">TEST_CASE</text>
</a>
</g>
</g>
<!-- Node10&#45;&gt;Node11 -->
<g id="edge10" class="edge">
<title>Node10&#45;&gt;Node11</title>
<path fill="none" stroke="#191970" d="M204.879,-526C227.4347,-526 252.3416,-526 272.2477,-526"/>
<polygon fill="#191970" stroke="#191970" points="204.7075,-522.5001 194.7075,-526 204.7074,-529.5001 204.7075,-522.5001"/>
</g>
<!-- Node12&#45;&gt;Node5 -->
<g id="edge12" class="edge">
<title>Node12&#45;&gt;Node5</title>
<path fill="none" stroke="#191970" d="M357.1082,-674.9724C382.4714,-668.4967 413.3254,-660.6191 437.0358,-654.5653"/>
<polygon fill="#191970" stroke="#191970" points="356.1509,-671.6044 347.3276,-677.4695 357.8826,-678.3869 356.1509,-671.6044"/>
</g>
<!-- Node13&#45;&gt;Node7 -->
<g id="edge15" class="edge">
<title>Node13&#45;&gt;Node7</title>
<path fill="none" stroke="#191970" d="M359.5859,-605.3014C384.0825,-605.4503 413.1944,-605.6273 435.9872,-605.7659"/>
<polygon fill="#191970" stroke="#191970" points="359.423,-601.8005 349.4018,-605.2395 359.3804,-608.8003 359.423,-601.8005"/>
</g>
<!-- Node15 -->
<g id="node15" class="node">
<title>Node15</title>
<g id="a_node15"><a xlink:href="classlmi0__oracle.html#aa9cd37f70024e10008974ad81032a48f" target="_top" xlink:title="Construct a new lmi0 oracle object. ">
<polygon fill="#ffffff" stroke="#000000" points="249,-478.5 249,-497.5 371,-497.5 371,-478.5 249,-478.5"/>
<text text-anchor="middle" x="310" y="-485.5" font-family="Helvetica,sans-Serif" font-size="10.00" fill="#000000">lmi0_oracle::lmi0_oracle</text>
</a>
</g>
</g>
<!-- Node14&#45;&gt;Node15 -->
<g id="edge17" class="edge">
<title>Node14&#45;&gt;Node15</title>
<path fill="none" stroke="#191970" d="M211.0038,-488C223.4851,-488 236.4681,-488 248.7652,-488"/>
<polygon fill="#191970" stroke="#191970" points="210.6635,-484.5001 200.6635,-488 210.6635,-491.5001 210.6635,-484.5001"/>
</g>
<!-- Node17 -->
<g id="node17" class="node">
<title>Node17</title>
<g id="a_node17"><a xlink:href="classlmi__oracle.html#a2537bac6b75002430dc61150218490b3" target="_top" xlink:title="Construct a new lmi oracle object. ">
<polygon fill="#ffffff" stroke="#000000" points="254.5,-440.5 254.5,-459.5 365.5,-459.5 365.5,-440.5 254.5,-440.5"/>
<text text-anchor="middle" x="310" y="-447.5" font-family="Helvetica,sans-Serif" font-size="10.00" fill="#000000">lmi_oracle::lmi_oracle</text>
</a>
</g>
</g>
<!-- Node16&#45;&gt;Node17 -->
<g id="edge19" class="edge">
<title>Node16&#45;&gt;Node17</title>
<path fill="none" stroke="#191970" d="M208.6492,-450C223.7542,-450 239.7127,-450 254.3854,-450"/>
<polygon fill="#191970" stroke="#191970" points="208.3546,-446.5001 198.3546,-450 208.3546,-453.5001 208.3546,-446.5001"/>
</g>
<!-- Node19 -->
<g id="node19" class="node">
<title>Node19</title>
<g id="a_node19"><a xlink:href="classlowpass__oracle.html#a0221638d3f5d25fa962b0049bb72810c" target="_top" xlink:title="Construct a new lowpass oracle object. ">
<polygon fill="#ffffff" stroke="#000000" points="247,-391 247,-421 373,-421 373,-391 247,-391"/>
<text text-anchor="start" x="255" y="-409" font-family="Helvetica,sans-Serif" font-size="10.00" fill="#000000">lowpass_oracle::lowpass</text>
<text text-anchor="middle" x="310" y="-398" font-family="Helvetica,sans-Serif" font-size="10.00" fill="#000000">_oracle</text>
</a>
</g>
</g>
<!-- Node18&#45;&gt;Node19 -->
<g id="edge21" class="edge">
<title>Node18&#45;&gt;Node19</title>
<path fill="none" stroke="#191970" d="M219.7389,-409.2624C228.7763,-408.9358 237.9294,-408.605 246.7653,-408.2856"/>
<polygon fill="#191970" stroke="#191970" points="219.4746,-405.7696 209.6076,-409.6286 219.7275,-412.7651 219.4746,-405.7696"/>
</g>
<!-- Node21 -->
<g id="node21" class="node">
<title>Node21</title>
<g id="a_node21"><a xlink:href="classlmi__old__oracle.html#a12e514ccdcab9066788323fd74b82bcd" target="_top" xlink:title="Construct a new lmi oracle object. ">
<polygon fill="#ffffff" stroke="#000000" points="261,-342 261,-372 359,-372 359,-342 261,-342"/>
<text text-anchor="start" x="269" y="-360" font-family="Helvetica,sans-Serif" font-size="10.00" fill="#000000">lmi_old_oracle::lmi</text>
<text text-anchor="middle" x="310" y="-349" font-family="Helvetica,sans-Serif" font-size="10.00" fill="#000000">_old_oracle</text>
</a>
</g>
</g>
<!-- Node20&#45;&gt;Node21 -->
<g id="edge23" class="edge">
<title>Node20&#45;&gt;Node21</title>
<path fill="none" stroke="#191970" d="M217.3417,-366.4891C232.0746,-364.9803 247.219,-363.4294 260.8841,-362.0299"/>
<polygon fill="#191970" stroke="#191970" points="216.8224,-363.0239 207.231,-367.5245 217.5356,-369.9875 216.8224,-363.0239"/>
</g>
<!-- Node25 -->
<g id="node25" class="node">
<title>Node25</title>
<g id="a_node25"><a xlink:href="classqmi__oracle.html#aec6bfef186ed45b37f922f1d7ab4fb52" target="_top" xlink:title="Update t. ">
<polygon fill="#ffffff" stroke="#000000" points="260.5,-190.5 260.5,-209.5 359.5,-209.5 359.5,-190.5 260.5,-190.5"/>
<text text-anchor="middle" x="310" y="-197.5" font-family="Helvetica,sans-Serif" font-size="10.00" fill="#000000">qmi_oracle::update</text>
</a>
</g>
</g>
<!-- Node24&#45;&gt;Node25 -->
<g id="edge27" class="edge">
<title>Node24&#45;&gt;Node25</title>
<path fill="none" stroke="#191970" d="M210.0154,-200C226.764,-200 244.4765,-200 260.2648,-200"/>
<polygon fill="#191970" stroke="#191970" points="209.7374,-196.5001 199.7374,-200 209.7374,-203.5001 209.7374,-196.5001"/>
</g>
<!-- Node25&#45;&gt;Node26 -->
<g id="edge28" class="edge">
<title>Node25&#45;&gt;Node26</title>
<path fill="none" stroke="#191970" d="M369.8714,-206.9152C386.3553,-208.8192 404.1372,-210.873 420.2822,-212.7378"/>
<polygon fill="#191970" stroke="#191970" points="370.1374,-203.4228 359.8018,-205.7522 369.3342,-210.3765 370.1374,-203.4228"/>
</g>
<!-- Node30 -->
<g id="node30" class="node">
<title>Node30</title>
<g id="a_node30"><a xlink:href="BM__lowpass_8cpp.html#ac1c45248960aaf30ea0a8347587c9fe9" target="_top" xlink:title="BM_Lowpass_parallel_cut">
<polygon fill="#ffffff" stroke="#000000" points="409,-38.5 409,-57.5 540,-57.5 540,-38.5 409,-38.5"/>
<text text-anchor="middle" x="474.5" y="-45.5" font-family="Helvetica,sans-Serif" font-size="10.00" fill="#000000">BM_Lowpass_parallel_cut</text>
</a>
</g>
</g>
<!-- Node29&#45;&gt;Node30 -->
<g id="edge33" class="edge">
<title>Node29&#45;&gt;Node30</title>
<path fill="none" stroke="#191970" d="M189.813,-48C246.6793,-48 344.059,-48 408.8519,-48"/>
<polygon fill="#191970" stroke="#191970" points="189.6833,-44.5001 179.6833,-48 189.6833,-51.5001 189.6833,-44.5001"/>
</g>
<!-- Node31 -->
<g id="node31" class="node">
<title>Node31</title>
<g id="a_node31"><a xlink:href="BM__lowpass_8cpp.html#a1e06b64e99b1bed3dc37e38dfc638987" target="_top" xlink:title="BM_Lowpass_single_cut">
<polygon fill="#ffffff" stroke="#000000" points="247.5,-19.5 247.5,-38.5 372.5,-38.5 372.5,-19.5 247.5,-19.5"/>
<text text-anchor="middle" x="310" y="-26.5" font-family="Helvetica,sans-Serif" font-size="10.00" fill="#000000">BM_Lowpass_single_cut</text>
</a>
</g>
</g>
<!-- Node29&#45;&gt;Node31 -->
<g id="edge34" class="edge">
<title>Node29&#45;&gt;Node31</title>
<path fill="none" stroke="#191970" d="M189.7172,-42.7673C207.5039,-40.7315 228.1742,-38.3656 247.31,-36.1754"/>
<polygon fill="#191970" stroke="#191970" points="189.1483,-39.3095 179.6112,-43.924 189.9443,-46.2641 189.1483,-39.3095"/>
</g>
<!-- Node31&#45;&gt;Node30 -->
<g id="edge35" class="edge">
<title>Node31&#45;&gt;Node30</title>
<path fill="none" stroke="#191970" d="M382.7311,-37.4006C391.3862,-38.4002 400.1837,-39.4164 408.7335,-40.4039"/>
<polygon fill="#191970" stroke="#191970" points="382.9952,-33.9079 372.6597,-36.2373 382.192,-40.8616 382.9952,-33.9079"/>
</g>
<!-- Node32&#45;&gt;Node27 -->
<g id="edge37" class="edge">
<title>Node32&#45;&gt;Node27</title>
<path fill="none" stroke="#191970" d="M192.2494,-156.4775C211.7231,-154.2486 234.3113,-151.6632 254.4648,-149.3564"/>
<polygon fill="#191970" stroke="#191970" points="191.6209,-153.0265 182.0838,-157.641 192.4169,-159.9811 191.6209,-153.0265"/>
</g>
</g>
</svg>
