<?xml version="1.0" encoding="UTF-8" standalone="no"?>
<!DOCTYPE svg PUBLIC "-//W3C//DTD SVG 1.1//EN"
 "http://www.w3.org/Graphics/SVG/1.1/DTD/svg11.dtd">
<!-- Generated by graphviz version 2.40.1 (20161225.0304)
 -->
<!-- Title: xn::DiGraphS&lt; nodeview_t, adjlist_t &gt; Pages: 1 -->
<svg width="134pt" height="739pt"
 viewBox="0.00 0.00 134.00 739.00" xmlns="http://www.w3.org/2000/svg" xmlns:xlink="http://www.w3.org/1999/xlink">
<g id="graph0" class="graph" transform="scale(1 1) rotate(0) translate(4 735)">
<title>xn::DiGraphS&lt; nodeview_t, adjlist_t &gt;</title>
<polygon fill="#ffffff" stroke="transparent" points="-4,4 -4,-735 130,-735 130,4 -4,4"/>
<!-- Node0 -->
<g id="node1" class="node">
<title>Node0</title>
<polygon fill="#bfbfbf" stroke="#000000" points="0,-.5 0,-134.5 126,-134.5 126,-.5 0,-.5"/>
<text text-anchor="start" x="8" y="-122.5" font-family="Helvetica,sans-Serif" font-size="10.00" fill="#000000">xn::DiGraphS&lt; nodeview</text>
<text text-anchor="middle" x="63" y="-111.5" font-family="Helvetica,sans-Serif" font-size="10.00" fill="#000000">_t, adjlist_t &gt;</text>
<polyline fill="none" stroke="#000000" points="0,-104.5 126,-104.5 "/>
<text text-anchor="start" x="8" y="-92.5" font-family="Helvetica,sans-Serif" font-size="10.00" fill="#000000">+ _succ</text>
<polyline fill="none" stroke="#000000" points="0,-85.5 126,-85.5 "/>
<text text-anchor="start" x="8" y="-73.5" font-family="Helvetica,sans-Serif" font-size="10.00" fill="#000000">+ DiGraphS()</text>
<text text-anchor="start" x="8" y="-62.5" font-family="Helvetica,sans-Serif" font-size="10.00" fill="#000000">+ DiGraphS()</text>
<text text-anchor="start" x="8" y="-51.5" font-family="Helvetica,sans-Serif" font-size="10.00" fill="#000000">+ adj()</text>
<text text-anchor="start" x="8" y="-40.5" font-family="Helvetica,sans-Serif" font-size="10.00" fill="#000000">+ succ()</text>
<text text-anchor="start" x="8" y="-29.5" font-family="Helvetica,sans-Serif" font-size="10.00" fill="#000000">+ add_edge()</text>
<text text-anchor="start" x="8" y="-18.5" font-family="Helvetica,sans-Serif" font-size="10.00" fill="#000000">+ add_edge()</text>
<text text-anchor="start" x="8" y="-7.5" font-family="Helvetica,sans-Serif" font-size="10.00" fill="#000000">and 9 more...</text>
</g>
<!-- Node1 -->
<g id="node2" class="node">
<title>Node1</title>
<g id="a_node2"><a xlink:href="classxn_1_1Graph.html" target="_top" xlink:title="{xn::Graph\&lt; nodeview\l_t, adjlist_t \&gt;\n|+ _num_of_edges\l+ _node\l+ graph\l+ _adj\l|+ Graph()\l+ Graph()\l+ adj()\l+ _nodes_nbrs()\l+ get_name()\l+ set_name()\land 17 more...\l+ end_points()\l+ end_points()\l+ null_vertex()\l}">
<polygon fill="#ffffff" stroke="#000000" points="8,-171.5 8,-371.5 118,-371.5 118,-171.5 8,-171.5"/>
<text text-anchor="start" x="16" y="-359.5" font-family="Helvetica,sans-Serif" font-size="10.00" fill="#000000">xn::Graph&lt; nodeview</text>
<text text-anchor="middle" x="63" y="-348.5" font-family="Helvetica,sans-Serif" font-size="10.00" fill="#000000">_t, adjlist_t &gt;</text>
<polyline fill="none" stroke="#000000" points="8,-341.5 118,-341.5 "/>
<text text-anchor="start" x="16" y="-329.5" font-family="Helvetica,sans-Serif" font-size="10.00" fill="#000000">+ _num_of_edges</text>
<text text-anchor="start" x="16" y="-318.5" font-family="Helvetica,sans-Serif" font-size="10.00" fill="#000000">+ _node</text>
<text text-anchor="start" x="16" y="-307.5" font-family="Helvetica,sans-Serif" font-size="10.00" fill="#000000">+ graph</text>
<text text-anchor="start" x="16" y="-296.5" font-family="Helvetica,sans-Serif" font-size="10.00" fill="#000000">+ _adj</text>
<polyline fill="none" stroke="#000000" points="8,-289.5 118,-289.5 "/>
<text text-anchor="start" x="16" y="-277.5" font-family="Helvetica,sans-Serif" font-size="10.00" fill="#000000">+ Graph()</text>
<text text-anchor="start" x="16" y="-266.5" font-family="Helvetica,sans-Serif" font-size="10.00" fill="#000000">+ Graph()</text>
<text text-anchor="start" x="16" y="-255.5" font-family="Helvetica,sans-Serif" font-size="10.00" fill="#000000">+ adj()</text>
<text text-anchor="start" x="16" y="-244.5" font-family="Helvetica,sans-Serif" font-size="10.00" fill="#000000">+ _nodes_nbrs()</text>
<text text-anchor="start" x="16" y="-233.5" font-family="Helvetica,sans-Serif" font-size="10.00" fill="#000000">+ get_name()</text>
<text text-anchor="start" x="16" y="-222.5" font-family="Helvetica,sans-Serif" font-size="10.00" fill="#000000">+ set_name()</text>
<text text-anchor="start" x="16" y="-211.5" font-family="Helvetica,sans-Serif" font-size="10.00" fill="#000000">and 17 more...</text>
<text text-anchor="start" x="16" y="-200.5" font-family="Helvetica,sans-Serif" font-size="10.00" fill="#000000">+ end_points()</text>
<text text-anchor="start" x="16" y="-189.5" font-family="Helvetica,sans-Serif" font-size="10.00" fill="#000000">+ end_points()</text>
<text text-anchor="start" x="16" y="-178.5" font-family="Helvetica,sans-Serif" font-size="10.00" fill="#000000">+ null_vertex()</text>
</a>
</g>
</g>
<!-- Node1&#45;&gt;Node0 -->
<g id="edge1" class="edge">
<title>Node1&#45;&gt;Node0</title>
<path fill="none" stroke="#191970" d="M63,-161.1331C63,-152.154 63,-143.2619 63,-134.7377"/>
<polygon fill="none" stroke="#191970" points="59.5001,-161.2929 63,-171.2929 66.5001,-161.2929 59.5001,-161.2929"/>
</g>
<!-- Node2 -->
<g id="node3" class="node">
<title>Node2</title>
<g id="a_node3"><a xlink:href="structxn_1_1object.html" target="_top" xlink:title="{xn::object\n||}">
<polygon fill="#ffffff" stroke="#000000" points="33.5,-408.5 33.5,-465.5 92.5,-465.5 92.5,-408.5 33.5,-408.5"/>
<text text-anchor="middle" x="63" y="-453.5" font-family="Helvetica,sans-Serif" font-size="10.00" fill="#000000">xn::object</text>
<polyline fill="none" stroke="#000000" points="33.5,-446.5 92.5,-446.5 "/>
<text text-anchor="middle" x="63" y="-434.5" font-family="Helvetica,sans-Serif" font-size="10.00" fill="#000000"> </text>
<polyline fill="none" stroke="#000000" points="33.5,-427.5 92.5,-427.5 "/>
<text text-anchor="middle" x="63" y="-415.5" font-family="Helvetica,sans-Serif" font-size="10.00" fill="#000000"> </text>
</a>
</g>
</g>
<!-- Node2&#45;&gt;Node1 -->
<g id="edge2" class="edge">
<title>Node2&#45;&gt;Node1</title>
<path fill="none" stroke="#191970" d="M63,-397.985C63,-389.8587 63,-380.9428 63,-371.7237"/>
<polygon fill="none" stroke="#191970" points="59.5001,-398.1721 63,-408.1721 66.5001,-398.1721 59.5001,-398.1721"/>
</g>
<!-- Node3 -->
<g id="node4" class="node">
<title>Node3</title>
<g id="a_node4"><a xlink:href="classpy_1_1dict.html" target="_top" xlink:title="{py::dict\&lt; const char\l *, boost::any \&gt;\n||+ dict()\l+ dict()\l+ operator=()\l&#45; dict()\l}">
<polygon fill="#ffffff" stroke="#000000" points="11,-502.5 11,-603.5 115,-603.5 115,-502.5 11,-502.5"/>
<text text-anchor="start" x="19" y="-591.5" font-family="Helvetica,sans-Serif" font-size="10.00" fill="#000000">py::dict&lt; const char</text>
<text text-anchor="middle" x="63" y="-580.5" font-family="Helvetica,sans-Serif" font-size="10.00" fill="#000000"> *, boost::any &gt;</text>
<polyline fill="none" stroke="#000000" points="11,-573.5 115,-573.5 "/>
<text text-anchor="middle" x="63" y="-561.5" font-family="Helvetica,sans-Serif" font-size="10.00" fill="#000000"> </text>
<polyline fill="none" stroke="#000000" points="11,-554.5 115,-554.5 "/>
<text text-anchor="start" x="19" y="-542.5" font-family="Helvetica,sans-Serif" font-size="10.00" fill="#000000">+ dict()</text>
<text text-anchor="start" x="19" y="-531.5" font-family="Helvetica,sans-Serif" font-size="10.00" fill="#000000">+ dict()</text>
<text text-anchor="start" x="19" y="-520.5" font-family="Helvetica,sans-Serif" font-size="10.00" fill="#000000">+ operator=()</text>
<text text-anchor="start" x="19" y="-509.5" font-family="Helvetica,sans-Serif" font-size="10.00" fill="#000000">&#45; dict()</text>
</a>
</g>
</g>
<!-- Node3&#45;&gt;Node2 -->
<g id="edge3" class="edge">
<title>Node3&#45;&gt;Node2</title>
<path fill="none" stroke="#191970" d="M63,-492.3804C63,-483.0838 63,-473.8771 63,-465.7184"/>
<polygon fill="none" stroke="#191970" points="59.5001,-492.4581 63,-502.4582 66.5001,-492.4582 59.5001,-492.4581"/>
</g>
<!-- Node4 -->
<g id="node5" class="node">
<title>Node4</title>
<g id="a_node5"><a xlink:title="STL class. ">
<polygon fill="#ffffff" stroke="#bfbfbf" points="9,-640.5 9,-730.5 117,-730.5 117,-640.5 9,-640.5"/>
<text text-anchor="start" x="17" y="-718.5" font-family="Helvetica,sans-Serif" font-size="10.00" fill="#000000">std::unordered_map</text>
<text text-anchor="start" x="17" y="-707.5" font-family="Helvetica,sans-Serif" font-size="10.00" fill="#000000">&lt; const char *, boost</text>
<text text-anchor="middle" x="63" y="-696.5" font-family="Helvetica,sans-Serif" font-size="10.00" fill="#000000">::any &gt;</text>
<polyline fill="none" stroke="#bfbfbf" points="9,-689.5 117,-689.5 "/>
<text text-anchor="start" x="17" y="-677.5" font-family="Helvetica,sans-Serif" font-size="10.00" fill="#000000">+ keys</text>
<text text-anchor="start" x="17" y="-666.5" font-family="Helvetica,sans-Serif" font-size="10.00" fill="#000000">+ elements</text>
<polyline fill="none" stroke="#bfbfbf" points="9,-659.5 117,-659.5 "/>
<text text-anchor="middle" x="63" y="-647.5" font-family="Helvetica,sans-Serif" font-size="10.00" fill="#000000"> </text>
</a>
</g>
</g>
<!-- Node4&#45;&gt;Node3 -->
<g id="edge4" class="edge">
<title>Node4&#45;&gt;Node3</title>
<path fill="none" stroke="#191970" d="M63,-630.2098C63,-621.5051 63,-612.5409 63,-603.9407"/>
<polygon fill="none" stroke="#191970" points="59.5001,-630.2716 63,-640.2716 66.5001,-630.2716 59.5001,-630.2716"/>
</g>
</g>
</svg>
