<?xml version="1.0" encoding="UTF-8" standalone="no"?>
<!DOCTYPE svg PUBLIC "-//W3C//DTD SVG 1.1//EN"
 "http://www.w3.org/Graphics/SVG/1.1/DTD/svg11.dtd">
<!-- Generated by graphviz version 2.40.1 (20161225.0304)
 -->
<!-- Title: Graphical Class Hierarchy Pages: 1 -->
<svg width="855pt" height="269pt"
 viewBox="0.00 0.00 855.00 268.90" xmlns="http://www.w3.org/2000/svg" xmlns:xlink="http://www.w3.org/1999/xlink">
<g id="graph0" class="graph" transform="scale(1 1) rotate(0) translate(4 264.904)">
<title>Graphical Class Hierarchy</title>
<polygon fill="#ffffff" stroke="transparent" points="-4,4 -4,-264.904 851,-264.904 851,4 -4,4"/>
<!-- Node2 -->
<g id="node1" class="node">
<title>Node2</title>
<g id="a_node1"><a xlink:href="classxn_1_1Graph.html" target="_top" xlink:title="STL class. ">
<polygon fill="#ffffff" stroke="#000000" points="0,-99.404 0,-129.404 110,-129.404 110,-99.404 0,-99.404"/>
<text text-anchor="start" x="8" y="-117.404" font-family="Helvetica,sans-Serif" font-size="10.00" fill="#000000">xn::Graph&lt; nodeview</text>
<text text-anchor="middle" x="55" y="-106.404" font-family="Helvetica,sans-Serif" font-size="10.00" fill="#000000">_t, adjlist_t &gt;</text>
</a>
</g>
</g>
<!-- Node0 -->
<g id="node2" class="node">
<title>Node0</title>
<g id="a_node2"><a xlink:href="classpy_1_1dict.html" target="_top" xlink:title="py::dict\&lt; const char\l *, boost::any \&gt;">
<polygon fill="#ffffff" stroke="#000000" points="159.5,-230.404 159.5,-260.404 263.5,-260.404 263.5,-230.404 159.5,-230.404"/>
<text text-anchor="start" x="167.5" y="-248.404" font-family="Helvetica,sans-Serif" font-size="10.00" fill="#000000">py::dict&lt; const char</text>
<text text-anchor="middle" x="211.5" y="-237.404" font-family="Helvetica,sans-Serif" font-size="10.00" fill="#000000"> *, boost::any &gt;</text>
</a>
</g>
</g>
<!-- Node2&#45;&gt;Node0 -->
<g id="edge1" class="edge">
<title>Node2&#45;&gt;Node0</title>
<path fill="none" stroke="#191970" d="M69.8718,-138.2281C85.9688,-162.249 113.7119,-198.9032 146,-221.404 150.8687,-224.7969 156.2733,-227.7702 161.8303,-230.3603"/>
<polygon fill="#191970" stroke="#191970" points="72.6925,-136.1465 64.2875,-129.6962 66.8355,-139.9801 72.6925,-136.1465"/>
</g>
<!-- Node3 -->
<g id="node4" class="node">
<title>Node3</title>
<g id="a_node4"><a xlink:href="classxn_1_1DiGraphS.html" target="_top" xlink:title="xn::DiGraphS\&lt; nodeview\l_t, adjlist_t \&gt;">
<polygon fill="#ffffff" stroke="#000000" points="148.5,-181.404 148.5,-211.404 274.5,-211.404 274.5,-181.404 148.5,-181.404"/>
<text text-anchor="start" x="156.5" y="-199.404" font-family="Helvetica,sans-Serif" font-size="10.00" fill="#000000">xn::DiGraphS&lt; nodeview</text>
<text text-anchor="middle" x="211.5" y="-188.404" font-family="Helvetica,sans-Serif" font-size="10.00" fill="#000000">_t, adjlist_t &gt;</text>
</a>
</g>
</g>
<!-- Node2&#45;&gt;Node3 -->
<g id="edge4" class="edge">
<title>Node2&#45;&gt;Node3</title>
<path fill="none" stroke="#191970" d="M84.9378,-135.2294C102.2879,-146.7642 124.8273,-160.8586 146,-171.404 153.0818,-174.9312 160.7901,-178.279 168.3501,-181.311"/>
<polygon fill="#191970" stroke="#191970" points="86.6225,-132.1443 76.3725,-129.4631 82.7132,-137.9511 86.6225,-132.1443"/>
</g>
<!-- Node10 -->
<g id="node8" class="node">
<title>Node10</title>
<g id="a_node8"><a xlink:href="classpy_1_1dict.html" target="_top" xlink:title="py::dict\&lt; node_t, edge_t \&gt;">
<polygon fill="#ffffff" stroke="#000000" points="146,-142.904 146,-161.904 277,-161.904 277,-142.904 146,-142.904"/>
<text text-anchor="middle" x="211.5" y="-149.904" font-family="Helvetica,sans-Serif" font-size="10.00" fill="#000000">py::dict&lt; node_t, edge_t &gt;</text>
</a>
</g>
</g>
<!-- Node2&#45;&gt;Node10 -->
<g id="edge8" class="edge">
<title>Node2&#45;&gt;Node10</title>
<path fill="none" stroke="#191970" d="M120.383,-130.2797C137.94,-134.5428 156.3856,-139.0216 172.0527,-142.8257"/>
<polygon fill="#191970" stroke="#191970" points="120.7196,-126.7598 110.176,-127.8014 119.0678,-133.5622 120.7196,-126.7598"/>
</g>
<!-- Node11 -->
<g id="node9" class="node">
<title>Node11</title>
<g id="a_node9"><a xlink:href="classpy_1_1dict.html" target="_top" xlink:title="py::dict\&lt; node_t, node_t \&gt;">
<polygon fill="#ffffff" stroke="#000000" points="146,-104.904 146,-123.904 277,-123.904 277,-104.904 146,-104.904"/>
<text text-anchor="middle" x="211.5" y="-111.904" font-family="Helvetica,sans-Serif" font-size="10.00" fill="#000000">py::dict&lt; node_t, node_t &gt;</text>
</a>
</g>
</g>
<!-- Node2&#45;&gt;Node11 -->
<g id="edge9" class="edge">
<title>Node2&#45;&gt;Node11</title>
<path fill="none" stroke="#191970" d="M120.3299,-114.404C128.7603,-114.404 137.3965,-114.404 145.8323,-114.404"/>
<polygon fill="#191970" stroke="#191970" points="120.1761,-110.9041 110.176,-114.404 120.176,-117.9041 120.1761,-110.9041"/>
</g>
<!-- Node12 -->
<g id="node10" class="node">
<title>Node12</title>
<g id="a_node10"><a xlink:href="classpy_1_1dict.html" target="_top" xlink:title="py::dict\&lt; node_t, wt_t \&gt;">
<polygon fill="#ffffff" stroke="#000000" points="151,-66.904 151,-85.904 272,-85.904 272,-66.904 151,-66.904"/>
<text text-anchor="middle" x="211.5" y="-73.904" font-family="Helvetica,sans-Serif" font-size="10.00" fill="#000000">py::dict&lt; node_t, wt_t &gt;</text>
</a>
</g>
</g>
<!-- Node2&#45;&gt;Node12 -->
<g id="edge10" class="edge">
<title>Node2&#45;&gt;Node12</title>
<path fill="none" stroke="#191970" d="M120.383,-98.5283C137.94,-94.2652 156.3856,-89.7864 172.0527,-85.9823"/>
<polygon fill="#191970" stroke="#191970" points="119.0678,-95.2458 110.176,-101.0066 120.7196,-102.0482 119.0678,-95.2458"/>
</g>
<!-- Node13 -->
<g id="node11" class="node">
<title>Node13</title>
<g id="a_node11"><a xlink:href="classpy_1_1dict.html" target="_top" xlink:title="py::dict\&lt; Key, T \&gt;">
<polygon fill="#ffffff" stroke="#000000" points="163.5,-28.904 163.5,-47.904 259.5,-47.904 259.5,-28.904 163.5,-28.904"/>
<text text-anchor="middle" x="211.5" y="-35.904" font-family="Helvetica,sans-Serif" font-size="10.00" fill="#000000">py::dict&lt; Key, T &gt;</text>
</a>
</g>
</g>
<!-- Node2&#45;&gt;Node13 -->
<g id="edge11" class="edge">
<title>Node2&#45;&gt;Node13</title>
<path fill="none" stroke="#191970" d="M83.9288,-93.3791C101.2631,-81.5353 124.1217,-67.1994 146,-57.404 154.213,-53.7269 163.3224,-50.5585 172.072,-47.9208"/>
<polygon fill="#191970" stroke="#191970" points="81.614,-90.7256 75.402,-99.3083 85.6104,-96.4728 81.614,-90.7256"/>
</g>
<!-- Node1 -->
<g id="node3" class="node">
<title>Node1</title>
<g id="a_node3"><a xlink:href="structxn_1_1object.html" target="_top" xlink:title="xn::object">
<polygon fill="#ffffff" stroke="#000000" points="313,-112.904 313,-131.904 372,-131.904 372,-112.904 313,-112.904"/>
<text text-anchor="middle" x="342.5" y="-119.904" font-family="Helvetica,sans-Serif" font-size="10.00" fill="#000000">xn::object</text>
</a>
</g>
</g>
<!-- Node0&#45;&gt;Node1 -->
<g id="edge2" class="edge">
<title>Node0&#45;&gt;Node1</title>
<path fill="none" stroke="#191970" d="M271.9866,-225.0198C273.7198,-223.8755 275.3965,-222.6711 277,-221.404 308.6922,-196.3597 330.2506,-151.6325 338.6152,-132.0423"/>
<polygon fill="#191970" stroke="#191970" points="269.8336,-222.2215 262.9255,-230.2545 273.3352,-228.2827 269.8336,-222.2215"/>
</g>
<!-- Node1&#45;&gt;Node2 -->
<g id="edge3" class="edge">
<title>Node1&#45;&gt;Node2</title>
<path fill="none" stroke="#191970" d="M336.625,-103.0262C328.0114,-78.4614 309.361,-37.175 277,-19.404 225.9665,8.6211 199.5477,3.4537 146,-19.404 107.7705,-35.7229 77.9042,-76.8544 63.8322,-99.27"/>
<polygon fill="#191970" stroke="#191970" points="333.3571,-104.2933 339.8014,-112.7028 340.0079,-102.11 333.3571,-104.2933"/>
</g>
<!-- Node4 -->
<g id="node5" class="node">
<title>Node4</title>
<g id="a_node5"><a xlink:href="classxn_1_1Graph.html" target="_top" xlink:title="xn::Graph\&lt; __nodeview\l_t, adjlist_t \&gt;">
<polygon fill="#ffffff" stroke="#000000" points="408,-107.404 408,-137.404 528,-137.404 528,-107.404 408,-107.404"/>
<text text-anchor="start" x="416" y="-125.404" font-family="Helvetica,sans-Serif" font-size="10.00" fill="#000000">xn::Graph&lt; __nodeview</text>
<text text-anchor="middle" x="468" y="-114.404" font-family="Helvetica,sans-Serif" font-size="10.00" fill="#000000">_t, adjlist_t &gt;</text>
</a>
</g>
</g>
<!-- Node1&#45;&gt;Node4 -->
<g id="edge5" class="edge">
<title>Node1&#45;&gt;Node4</title>
<path fill="none" stroke="#191970" d="M382.4939,-122.404C390.5904,-122.404 399.2715,-122.404 407.8862,-122.404"/>
<polygon fill="#191970" stroke="#191970" points="382.2418,-118.9041 372.2417,-122.404 382.2417,-125.9041 382.2418,-118.9041"/>
</g>
<!-- Node5 -->
<g id="node6" class="node">
<title>Node5</title>
<g id="a_node6"><a xlink:href="classxn_1_1VertexView.html" target="_top" xlink:title="xn::VertexView\&lt; Graph \&gt;">
<polygon fill="#ffffff" stroke="#000000" points="564,-112.904 564,-131.904 692,-131.904 692,-112.904 564,-112.904"/>
<text text-anchor="middle" x="628" y="-119.904" font-family="Helvetica,sans-Serif" font-size="10.00" fill="#000000">xn::VertexView&lt; Graph &gt;</text>
</a>
</g>
</g>
<!-- Node4&#45;&gt;Node5 -->
<g id="edge6" class="edge">
<title>Node4&#45;&gt;Node5</title>
<path fill="none" stroke="#191970" d="M538.3099,-122.404C546.8169,-122.404 555.4722,-122.404 563.8834,-122.404"/>
<polygon fill="#191970" stroke="#191970" points="538.0333,-118.9041 528.0333,-122.404 538.0333,-125.9041 538.0333,-118.9041"/>
</g>
<!-- Node6 -->
<g id="node7" class="node">
<title>Node6</title>
<g id="a_node7"><a xlink:href="classxn_1_1grAdaptor.html" target="_top" xlink:title="xn::grAdaptor\&lt; Graph \&gt;">
<polygon fill="#ffffff" stroke="#000000" points="728,-112.904 728,-131.904 847,-131.904 847,-112.904 728,-112.904"/>
<text text-anchor="middle" x="787.5" y="-119.904" font-family="Helvetica,sans-Serif" font-size="10.00" fill="#000000">xn::grAdaptor&lt; Graph &gt;</text>
</a>
</g>
</g>
<!-- Node5&#45;&gt;Node6 -->
<g id="edge7" class="edge">
<title>Node5&#45;&gt;Node6</title>
<path fill="none" stroke="#191970" d="M702.6256,-122.404C711.0483,-122.404 719.5477,-122.404 727.7456,-122.404"/>
<polygon fill="#191970" stroke="#191970" points="702.415,-118.9041 692.415,-122.404 702.415,-125.9041 702.415,-118.9041"/>
</g>
</g>
</svg>
