<?xml version="1.0" encoding="UTF-8" standalone="no"?>
<!DOCTYPE svg PUBLIC "-//W3C//DTD SVG 1.1//EN"
 "http://www.w3.org/Graphics/SVG/1.1/DTD/svg11.dtd">
<!-- Generated by graphviz version 2.40.1 (20161225.0304)
 -->
<!-- Title: min_cycle_ratio Pages: 1 -->
<svg width="363pt" height="66pt"
 viewBox="0.00 0.00 363.00 66.00" xmlns="http://www.w3.org/2000/svg" xmlns:xlink="http://www.w3.org/1999/xlink">
<g id="graph0" class="graph" transform="scale(1 1) rotate(0) translate(4 62)">
<title>min_cycle_ratio</title>
<polygon fill="#ffffff" stroke="transparent" points="-4,4 -4,-62 359,-62 359,4 -4,4"/>
<!-- Node2 -->
<g id="node1" class="node">
<title>Node2</title>
<polygon fill="#bfbfbf" stroke="#000000" points="0,-19.5 0,-38.5 85,-38.5 85,-19.5 0,-19.5"/>
<text text-anchor="middle" x="42.5" y="-26.5" font-family="Helvetica,sans-Serif" font-size="10.00" fill="#000000">min_cycle_ratio</text>
</g>
<!-- Node3 -->
<g id="node2" class="node">
<title>Node3</title>
<g id="a_node2"><a xlink:href="test__cycle__ratio_8cpp.html#ad13db252bdb1b692e200a73f6ec8a88f" target="_top" xlink:title="TEST_CASE">
<polygon fill="#ffffff" stroke="#000000" points="121,-19.5 121,-38.5 196,-38.5 196,-19.5 121,-19.5"/>
<text text-anchor="middle" x="158.5" y="-26.5" font-family="Helvetica,sans-Serif" font-size="10.00" fill="#000000">TEST_CASE</text>
</a>
</g>
</g>
<!-- Node2&#45;&gt;Node3 -->
<g id="edge1" class="edge">
<title>Node2&#45;&gt;Node3</title>
<path fill="none" stroke="#191970" d="M95.1348,-29C103.8421,-29 112.7121,-29 120.9508,-29"/>
<polygon fill="#191970" stroke="#191970" points="95.0355,-25.5001 85.0354,-29 95.0354,-32.5001 95.0355,-25.5001"/>
</g>
<!-- Node4 -->
<g id="node3" class="node">
<title>Node4</title>
<g id="a_node3"><a xlink:href="test__cycle__ratio__boost_8cpp.html#ad4404240fd41d384f36191a8940dfd83" target="_top" xlink:title="create_test_case_timing">
<polygon fill="#ffffff" stroke="#000000" points="232,-38.5 232,-57.5 355,-57.5 355,-38.5 232,-38.5"/>
<text text-anchor="middle" x="293.5" y="-45.5" font-family="Helvetica,sans-Serif" font-size="10.00" fill="#000000">create_test_case_timing</text>
</a>
</g>
</g>
<!-- Node3&#45;&gt;Node4 -->
<g id="edge2" class="edge">
<title>Node3&#45;&gt;Node4</title>
<path fill="none" stroke="#191970" d="M206.0111,-35.6868C214.3457,-36.8598 223.1272,-38.0957 231.7811,-39.3136"/>
<polygon fill="#191970" stroke="#191970" points="206.4953,-32.2205 196.105,-34.2926 205.5196,-39.1522 206.4953,-32.2205"/>
</g>
<!-- Node5 -->
<g id="node4" class="node">
<title>Node5</title>
<g id="a_node4"><a xlink:href="test__neg__cycle__boost_8cpp.html#a808903127bc0389d57ec9b6792c22393" target="_top" xlink:title="do_case">
<polygon fill="#ffffff" stroke="#000000" points="267,-.5 267,-19.5 320,-19.5 320,-.5 267,-.5"/>
<text text-anchor="middle" x="293.5" y="-7.5" font-family="Helvetica,sans-Serif" font-size="10.00" fill="#000000">do_case</text>
</a>
</g>
</g>
<!-- Node3&#45;&gt;Node5 -->
<g id="edge3" class="edge">
<title>Node3&#45;&gt;Node5</title>
<path fill="none" stroke="#191970" d="M206.1544,-22.2931C226.5073,-19.4286 249.5024,-16.1923 266.788,-13.7595"/>
<polygon fill="#191970" stroke="#191970" points="205.5196,-18.8478 196.105,-23.7074 206.4952,-25.7795 205.5196,-18.8478"/>
</g>
</g>
</svg>
