<?xml version="1.0" encoding="UTF-8" standalone="no"?>
<!DOCTYPE svg PUBLIC "-//W3C//DTD SVG 1.1//EN"
 "http://www.w3.org/Graphics/SVG/1.1/DTD/svg11.dtd">
<!-- Generated by graphviz version 2.40.1 (20161225.0304)
 -->
<!-- Title: xn::XNetworkException Pages: 1 -->
<!--zoomable 536 -->
<svg id="main" version="1.1" xmlns="http://www.w3.org/2000/svg" xmlns:xlink="http://www.w3.org/1999/xlink" xml:space="preserve" onload="init(evt)">
<style type="text/css"><![CDATA[
.edge:hover path { stroke: red; }
.edge:hover polygon { stroke: red; fill: red; }
]]></style>
<script type="text/javascript"><![CDATA[
var edges = document.getElementsByTagName('g');
if (edges && edges.length) {
  for (var i=0;i<edges.length;i++) {
    if (edges[i].id.substr(0,4)=='edge') {
      edges[i].setAttribute('class','edge');
    }
  }
}
]]></script>
        <defs>
                <circle id="rim" cx="0" cy="0" r="7"/>
                <circle id="rim2" cx="0" cy="0" r="3.5"/>
                <g id="zoomPlus">
                        <use xlink:href="#rim" fill="#404040">
                                <set attributeName="fill" to="#808080" begin="zoomplus.mouseover" end="zoomplus.mouseout"/>
                        </use>
                        <path d="M-4,0h8M0,-4v8" fill="none" stroke="white" stroke-width="1.5" pointer-events="none"/>
                </g>
                <g id="zoomMin">
                        <use xlink:href="#rim" fill="#404040">
                                <set attributeName="fill" to="#808080" begin="zoomminus.mouseover" end="zoomminus.mouseout"/>
                        </use>
                        <path d="M-4,0h8" fill="none" stroke="white" stroke-width="1.5" pointer-events="none"/>
                </g>
                <g id="dirArrow">
                        <path fill="none" stroke="white" stroke-width="1.5" d="M0,-3.0v7 M-2.5,-0.5L0,-3.0L2.5,-0.5"/>
                </g>
               <g id="resetDef">
                       <use xlink:href="#rim2" fill="#404040">
                               <set attributeName="fill" to="#808080" begin="reset.mouseover" end="reset.mouseout"/>
                       </use>
               </g>
        </defs>

<script type="text/javascript">
var viewWidth = 1112;
var viewHeight = 536;
var sectionId = 'dynsection-0';
</script>
<script xlink:href="svgpan.js"/>
<svg id="graph" class="graph">
<g id="viewport">
<title>xn::XNetworkException</title>
<polygon fill="#ffffff" stroke="transparent" points="-4,4 -4,-532 1107.5,-532 1107.5,4 -4,4"/>
<!-- Node0 -->
<g id="node1" class="node">
<title>Node0</title>
<polygon fill="#bfbfbf" stroke="#000000" points="448.5,-282.5 448.5,-339.5 568.5,-339.5 568.5,-282.5 448.5,-282.5"/>
<text text-anchor="middle" x="508.5" y="-327.5" font-family="Helvetica,sans-Serif" font-size="10.00" fill="#000000">xn::XNetworkException</text>
<polyline fill="none" stroke="#000000" points="448.5,-320.5 568.5,-320.5 "/>
<text text-anchor="middle" x="508.5" y="-308.5" font-family="Helvetica,sans-Serif" font-size="10.00" fill="#000000"> </text>
<polyline fill="none" stroke="#000000" points="448.5,-301.5 568.5,-301.5 "/>
<text text-anchor="start" x="456.5" y="-289.5" font-family="Helvetica,sans-Serif" font-size="10.00" fill="#000000">+ XNetworkException()</text>
</g>
<!-- Node3 -->
<g id="node4" class="node">
<title>Node3</title>
<g id="a_node4"><a xlink:href="structxn_1_1AmbiguousSolution.html" target="_top" xlink:title="{xn::AmbiguousSolution\n||+ AmbiguousSolution()\l}">
<polygon fill="#ffffff" stroke="#000000" points="0,-188.5 0,-245.5 117,-245.5 117,-188.5 0,-188.5"/>
<text text-anchor="middle" x="58.5" y="-233.5" font-family="Helvetica,sans-Serif" font-size="10.00" fill="#000000">xn::AmbiguousSolution</text>
<polyline fill="none" stroke="#000000" points="0,-226.5 117,-226.5 "/>
<text text-anchor="middle" x="58.5" y="-214.5" font-family="Helvetica,sans-Serif" font-size="10.00" fill="#000000"> </text>
<polyline fill="none" stroke="#000000" points="0,-207.5 117,-207.5 "/>
<text text-anchor="start" x="8" y="-195.5" font-family="Helvetica,sans-Serif" font-size="10.00" fill="#000000">+ AmbiguousSolution()</text>
</a>
</g>
</g>
<!-- Node0&#45;&gt;Node3 -->
<g id="edge3" class="edge">
<title>Node0&#45;&gt;Node3</title>
<path fill="none" stroke="#191970" d="M438.1665,-304.0388C360.6683,-295.2194 232.8988,-277.2681 126.5,-246 123.4216,-245.0953 120.296,-244.0908 117.1616,-243.0145"/>
<polygon fill="none" stroke="#191970" points="437.9673,-307.5383 448.2945,-305.1719 438.7457,-300.5817 437.9673,-307.5383"/>
</g>
<!-- Node4 -->
<g id="node5" class="node">
<title>Node4</title>
<g id="a_node5"><a xlink:href="structxn_1_1ExceededMaxIterations.html" target="_top" xlink:title="{xn::ExceededMaxIterations\n||+ ExceededMaxIterations()\l}">
<polygon fill="#ffffff" stroke="#000000" points="135.5,-188.5 135.5,-245.5 271.5,-245.5 271.5,-188.5 135.5,-188.5"/>
<text text-anchor="middle" x="203.5" y="-233.5" font-family="Helvetica,sans-Serif" font-size="10.00" fill="#000000">xn::ExceededMaxIterations</text>
<polyline fill="none" stroke="#000000" points="135.5,-226.5 271.5,-226.5 "/>
<text text-anchor="middle" x="203.5" y="-214.5" font-family="Helvetica,sans-Serif" font-size="10.00" fill="#000000"> </text>
<polyline fill="none" stroke="#000000" points="135.5,-207.5 271.5,-207.5 "/>
<text text-anchor="start" x="143.5" y="-195.5" font-family="Helvetica,sans-Serif" font-size="10.00" fill="#000000">+ ExceededMaxIterations()</text>
</a>
</g>
</g>
<!-- Node0&#45;&gt;Node4 -->
<g id="edge4" class="edge">
<title>Node0&#45;&gt;Node4</title>
<path fill="none" stroke="#191970" d="M438.3519,-292.6103C393.0272,-280.3334 332.9343,-263.3155 280.5,-246 277.6515,-245.0593 274.7522,-244.0779 271.8296,-243.0686"/>
<polygon fill="none" stroke="#191970" points="437.5152,-296.0096 448.0816,-295.2344 439.338,-289.2511 437.5152,-296.0096"/>
</g>
<!-- Node5 -->
<g id="node6" class="node">
<title>Node5</title>
<g id="a_node6"><a xlink:href="structxn_1_1HasACycle.html" target="_top" xlink:title="{xn::HasACycle\n||+ HasACycle()\l}">
<polygon fill="#ffffff" stroke="#000000" points="290,-188.5 290,-245.5 373,-245.5 373,-188.5 290,-188.5"/>
<text text-anchor="middle" x="331.5" y="-233.5" font-family="Helvetica,sans-Serif" font-size="10.00" fill="#000000">xn::HasACycle</text>
<polyline fill="none" stroke="#000000" points="290,-226.5 373,-226.5 "/>
<text text-anchor="middle" x="331.5" y="-214.5" font-family="Helvetica,sans-Serif" font-size="10.00" fill="#000000"> </text>
<polyline fill="none" stroke="#000000" points="290,-207.5 373,-207.5 "/>
<text text-anchor="start" x="298" y="-195.5" font-family="Helvetica,sans-Serif" font-size="10.00" fill="#000000">+ HasACycle()</text>
</a>
</g>
</g>
<!-- Node0&#45;&gt;Node5 -->
<g id="edge5" class="edge">
<title>Node0&#45;&gt;Node5</title>
<path fill="none" stroke="#191970" d="M441.8129,-277.6989C422.266,-267.7146 400.9287,-256.5968 381.5,-246 378.769,-244.5104 375.9662,-242.9564 373.149,-241.3753"/>
<polygon fill="none" stroke="#191970" points="440.4509,-280.9329 450.9505,-282.3507 443.6267,-274.6948 440.4509,-280.9329"/>
</g>
<!-- Node6 -->
<g id="node7" class="node">
<title>Node6</title>
<g id="a_node7"><a xlink:href="structxn_1_1NodeNotFound.html" target="_top" xlink:title="{xn::NodeNotFound\n||+ NodeNotFound()\l}">
<polygon fill="#ffffff" stroke="#000000" points="391,-188.5 391,-245.5 490,-245.5 490,-188.5 391,-188.5"/>
<text text-anchor="middle" x="440.5" y="-233.5" font-family="Helvetica,sans-Serif" font-size="10.00" fill="#000000">xn::NodeNotFound</text>
<polyline fill="none" stroke="#000000" points="391,-226.5 490,-226.5 "/>
<text text-anchor="middle" x="440.5" y="-214.5" font-family="Helvetica,sans-Serif" font-size="10.00" fill="#000000"> </text>
<polyline fill="none" stroke="#000000" points="391,-207.5 490,-207.5 "/>
<text text-anchor="start" x="399" y="-195.5" font-family="Helvetica,sans-Serif" font-size="10.00" fill="#000000">+ NodeNotFound()</text>
</a>
</g>
</g>
<!-- Node0&#45;&gt;Node6 -->
<g id="edge6" class="edge">
<title>Node0&#45;&gt;Node6</title>
<path fill="none" stroke="#191970" d="M481.826,-274.1271C474.9524,-264.6254 467.6595,-254.5441 461.1445,-245.538"/>
<polygon fill="none" stroke="#191970" points="479.0312,-276.2353 487.7283,-282.2861 484.7028,-272.1324 479.0312,-276.2353"/>
</g>
<!-- Node7 -->
<g id="node8" class="node">
<title>Node7</title>
<g id="a_node8"><a xlink:href="structxn_1_1XNetworkAlgorithmError.html" target="_top" xlink:title="{xn::XNetworkAlgorithmError\n||+ XNetworkAlgorithmError()\l}">
<polygon fill="#ffffff" stroke="#000000" points="508,-188.5 508,-245.5 647,-245.5 647,-188.5 508,-188.5"/>
<text text-anchor="middle" x="577.5" y="-233.5" font-family="Helvetica,sans-Serif" font-size="10.00" fill="#000000">xn::XNetworkAlgorithmError</text>
<polyline fill="none" stroke="#000000" points="508,-226.5 647,-226.5 "/>
<text text-anchor="middle" x="577.5" y="-214.5" font-family="Helvetica,sans-Serif" font-size="10.00" fill="#000000"> </text>
<polyline fill="none" stroke="#000000" points="508,-207.5 647,-207.5 "/>
<text text-anchor="start" x="516" y="-195.5" font-family="Helvetica,sans-Serif" font-size="10.00" fill="#000000">+ XNetworkAlgorithmError()</text>
</a>
</g>
</g>
<!-- Node0&#45;&gt;Node7 -->
<g id="edge7" class="edge">
<title>Node0&#45;&gt;Node7</title>
<path fill="none" stroke="#191970" d="M535.5663,-274.1271C542.5409,-264.6254 549.941,-254.5441 556.5519,-245.538"/>
<polygon fill="none" stroke="#191970" points="532.6731,-272.1537 529.5772,-282.2861 538.3161,-276.2959 532.6731,-272.1537"/>
</g>
<!-- Node12 -->
<g id="node13" class="node">
<title>Node12</title>
<g id="a_node13"><a xlink:href="structxn_1_1XNetworkError.html" target="_top" xlink:title="{xn::XNetworkError\n||+ XNetworkError()\l}">
<polygon fill="#ffffff" stroke="#000000" points="665.5,-188.5 665.5,-245.5 763.5,-245.5 763.5,-188.5 665.5,-188.5"/>
<text text-anchor="middle" x="714.5" y="-233.5" font-family="Helvetica,sans-Serif" font-size="10.00" fill="#000000">xn::XNetworkError</text>
<polyline fill="none" stroke="#000000" points="665.5,-226.5 763.5,-226.5 "/>
<text text-anchor="middle" x="714.5" y="-214.5" font-family="Helvetica,sans-Serif" font-size="10.00" fill="#000000"> </text>
<polyline fill="none" stroke="#000000" points="665.5,-207.5 763.5,-207.5 "/>
<text text-anchor="start" x="673.5" y="-195.5" font-family="Helvetica,sans-Serif" font-size="10.00" fill="#000000">+ XNetworkError()</text>
</a>
</g>
</g>
<!-- Node0&#45;&gt;Node12 -->
<g id="edge12" class="edge">
<title>Node0&#45;&gt;Node12</title>
<path fill="none" stroke="#191970" d="M578.0721,-280.9266C602.6354,-270.1269 630.3868,-257.7182 655.5,-246 658.7063,-244.5039 662.0013,-242.9449 665.3163,-241.3601"/>
<polygon fill="none" stroke="#191970" points="576.5781,-277.76 568.8262,-284.9822 579.3899,-284.1704 576.5781,-277.76"/>
</g>
<!-- Node13 -->
<g id="node14" class="node">
<title>Node13</title>
<g id="a_node14"><a xlink:href="structxn_1_1XNetworkNotImplemented.html" target="_top" xlink:title="{xn::XNetworkNotImplemented\n||+ XNetworkNotImplemented()\l}">
<polygon fill="#ffffff" stroke="#000000" points="782,-188.5 782,-245.5 931,-245.5 931,-188.5 782,-188.5"/>
<text text-anchor="middle" x="856.5" y="-233.5" font-family="Helvetica,sans-Serif" font-size="10.00" fill="#000000">xn::XNetworkNotImplemented</text>
<polyline fill="none" stroke="#000000" points="782,-226.5 931,-226.5 "/>
<text text-anchor="middle" x="856.5" y="-214.5" font-family="Helvetica,sans-Serif" font-size="10.00" fill="#000000"> </text>
<polyline fill="none" stroke="#000000" points="782,-207.5 931,-207.5 "/>
<text text-anchor="start" x="790" y="-195.5" font-family="Helvetica,sans-Serif" font-size="10.00" fill="#000000">+ XNetworkNotImplemented()</text>
</a>
</g>
</g>
<!-- Node0&#45;&gt;Node13 -->
<g id="edge13" class="edge">
<title>Node0&#45;&gt;Node13</title>
<path fill="none" stroke="#191970" d="M578.7382,-295.5404C632.2014,-283.3311 707.4269,-265.2004 772.5,-246 775.6074,-245.0831 778.7703,-244.1215 781.9586,-243.1287"/>
<polygon fill="none" stroke="#191970" points="577.6567,-292.1968 568.681,-297.8259 579.208,-299.0228 577.6567,-292.1968"/>
</g>
<!-- Node14 -->
<g id="node15" class="node">
<title>Node14</title>
<g id="a_node15"><a xlink:href="structxn_1_1XNetworkPointlessConcept.html" target="_top" xlink:title="{xn::XNetworkPointlessConcept\n||+ XNetworkPointlessConcept()\l}">
<polygon fill="#ffffff" stroke="#000000" points="949.5,-188.5 949.5,-245.5 1103.5,-245.5 1103.5,-188.5 949.5,-188.5"/>
<text text-anchor="middle" x="1026.5" y="-233.5" font-family="Helvetica,sans-Serif" font-size="10.00" fill="#000000">xn::XNetworkPointlessConcept</text>
<polyline fill="none" stroke="#000000" points="949.5,-226.5 1103.5,-226.5 "/>
<text text-anchor="middle" x="1026.5" y="-214.5" font-family="Helvetica,sans-Serif" font-size="10.00" fill="#000000"> </text>
<polyline fill="none" stroke="#000000" points="949.5,-207.5 1103.5,-207.5 "/>
<text text-anchor="start" x="957.5" y="-195.5" font-family="Helvetica,sans-Serif" font-size="10.00" fill="#000000">+ XNetworkPointlessConcept()</text>
</a>
</g>
</g>
<!-- Node0&#45;&gt;Node14 -->
<g id="edge14" class="edge">
<title>Node0&#45;&gt;Node14</title>
<path fill="none" stroke="#191970" d="M578.8965,-304.1467C664.824,-294.9212 814.174,-276.1011 939.5,-246 942.751,-245.2192 946.0541,-244.3713 949.3788,-243.4726"/>
<polygon fill="none" stroke="#191970" points="578.3128,-300.6889 568.7378,-305.2243 579.0512,-307.6498 578.3128,-300.6889"/>
</g>
<!-- Node1 -->
<g id="node2" class="node">
<title>Node1</title>
<g id="a_node2"><a xlink:title="STL class. ">
<polygon fill="#ffffff" stroke="#bfbfbf" points="462,-376.5 462,-433.5 555,-433.5 555,-376.5 462,-376.5"/>
<text text-anchor="middle" x="508.5" y="-421.5" font-family="Helvetica,sans-Serif" font-size="10.00" fill="#000000">std::runtime_error</text>
<polyline fill="none" stroke="#bfbfbf" points="462,-414.5 555,-414.5 "/>
<text text-anchor="middle" x="508.5" y="-402.5" font-family="Helvetica,sans-Serif" font-size="10.00" fill="#000000"> </text>
<polyline fill="none" stroke="#bfbfbf" points="462,-395.5 555,-395.5 "/>
<text text-anchor="middle" x="508.5" y="-383.5" font-family="Helvetica,sans-Serif" font-size="10.00" fill="#000000"> </text>
</a>
</g>
</g>
<!-- Node1&#45;&gt;Node0 -->
<g id="edge1" class="edge">
<title>Node1&#45;&gt;Node0</title>
<path fill="none" stroke="#191970" d="M508.5,-366.1035C508.5,-357.2052 508.5,-347.9073 508.5,-339.538"/>
<polygon fill="none" stroke="#191970" points="505.0001,-366.2861 508.5,-376.2861 512.0001,-366.2862 505.0001,-366.2861"/>
</g>
<!-- Node2 -->
<g id="node3" class="node">
<title>Node2</title>
<g id="a_node3"><a xlink:title="STL class. ">
<polygon fill="#ffffff" stroke="#bfbfbf" points="469.5,-470.5 469.5,-527.5 547.5,-527.5 547.5,-470.5 469.5,-470.5"/>
<text text-anchor="middle" x="508.5" y="-515.5" font-family="Helvetica,sans-Serif" font-size="10.00" fill="#000000">std::exception</text>
<polyline fill="none" stroke="#bfbfbf" points="469.5,-508.5 547.5,-508.5 "/>
<text text-anchor="middle" x="508.5" y="-496.5" font-family="Helvetica,sans-Serif" font-size="10.00" fill="#000000"> </text>
<polyline fill="none" stroke="#bfbfbf" points="469.5,-489.5 547.5,-489.5 "/>
<text text-anchor="middle" x="508.5" y="-477.5" font-family="Helvetica,sans-Serif" font-size="10.00" fill="#000000"> </text>
</a>
</g>
</g>
<!-- Node2&#45;&gt;Node1 -->
<g id="edge2" class="edge">
<title>Node2&#45;&gt;Node1</title>
<path fill="none" stroke="#191970" d="M508.5,-460.1035C508.5,-451.2052 508.5,-441.9073 508.5,-433.538"/>
<polygon fill="none" stroke="#191970" points="505.0001,-460.2861 508.5,-470.2861 512.0001,-460.2862 505.0001,-460.2861"/>
</g>
<!-- Node8 -->
<g id="node9" class="node">
<title>Node8</title>
<g id="a_node9"><a xlink:href="structxn_1_1XNetworkUnbounded.html" target="_top" xlink:title="{xn::XNetworkUnbounded\n||+ XNetworkUnbounded()\l}">
<polygon fill="#ffffff" stroke="#000000" points="443.5,-94.5 443.5,-151.5 569.5,-151.5 569.5,-94.5 443.5,-94.5"/>
<text text-anchor="middle" x="506.5" y="-139.5" font-family="Helvetica,sans-Serif" font-size="10.00" fill="#000000">xn::XNetworkUnbounded</text>
<polyline fill="none" stroke="#000000" points="443.5,-132.5 569.5,-132.5 "/>
<text text-anchor="middle" x="506.5" y="-120.5" font-family="Helvetica,sans-Serif" font-size="10.00" fill="#000000"> </text>
<polyline fill="none" stroke="#000000" points="443.5,-113.5 569.5,-113.5 "/>
<text text-anchor="start" x="451.5" y="-101.5" font-family="Helvetica,sans-Serif" font-size="10.00" fill="#000000">+ XNetworkUnbounded()</text>
</a>
</g>
</g>
<!-- Node7&#45;&gt;Node8 -->
<g id="edge8" class="edge">
<title>Node7&#45;&gt;Node8</title>
<path fill="none" stroke="#191970" d="M549.6492,-180.1271C542.4724,-170.6254 534.8578,-160.5441 528.0553,-151.538"/>
<polygon fill="none" stroke="#191970" points="546.9918,-182.416 555.8119,-188.2861 552.5776,-178.197 546.9918,-182.416"/>
</g>
<!-- Node9 -->
<g id="node10" class="node">
<title>Node9</title>
<g id="a_node10"><a xlink:href="structxn_1_1XNetworkUnfeasible.html" target="_top" xlink:title="{xn::XNetworkUnfeasible\n||+ XNetworkUnfeasible()\l}">
<polygon fill="#ffffff" stroke="#000000" points="588,-94.5 588,-151.5 711,-151.5 711,-94.5 588,-94.5"/>
<text text-anchor="middle" x="649.5" y="-139.5" font-family="Helvetica,sans-Serif" font-size="10.00" fill="#000000">xn::XNetworkUnfeasible</text>
<polyline fill="none" stroke="#000000" points="588,-132.5 711,-132.5 "/>
<text text-anchor="middle" x="649.5" y="-120.5" font-family="Helvetica,sans-Serif" font-size="10.00" fill="#000000"> </text>
<polyline fill="none" stroke="#000000" points="588,-113.5 711,-113.5 "/>
<text text-anchor="start" x="596" y="-101.5" font-family="Helvetica,sans-Serif" font-size="10.00" fill="#000000">+ XNetworkUnfeasible()</text>
</a>
</g>
</g>
<!-- Node7&#45;&gt;Node9 -->
<g id="edge9" class="edge">
<title>Node7&#45;&gt;Node9</title>
<path fill="none" stroke="#191970" d="M605.7431,-180.1271C613.0209,-170.6254 620.7428,-160.5441 627.6411,-151.538"/>
<polygon fill="none" stroke="#191970" points="602.7958,-178.2191 599.4936,-188.2861 608.353,-182.4756 602.7958,-178.2191"/>
</g>
<!-- Node10 -->
<g id="node11" class="node">
<title>Node10</title>
<g id="a_node11"><a xlink:href="structxn_1_1XNetworkNoCycle.html" target="_top" xlink:title="{xn::XNetworkNoCycle\n||+ XNetworkNoCycle()\l}">
<polygon fill="#ffffff" stroke="#000000" points="527,-.5 527,-57.5 642,-57.5 642,-.5 527,-.5"/>
<text text-anchor="middle" x="584.5" y="-45.5" font-family="Helvetica,sans-Serif" font-size="10.00" fill="#000000">xn::XNetworkNoCycle</text>
<polyline fill="none" stroke="#000000" points="527,-38.5 642,-38.5 "/>
<text text-anchor="middle" x="584.5" y="-26.5" font-family="Helvetica,sans-Serif" font-size="10.00" fill="#000000"> </text>
<polyline fill="none" stroke="#000000" points="527,-19.5 642,-19.5 "/>
<text text-anchor="start" x="535" y="-7.5" font-family="Helvetica,sans-Serif" font-size="10.00" fill="#000000">+ XNetworkNoCycle()</text>
</a>
</g>
</g>
<!-- Node9&#45;&gt;Node10 -->
<g id="edge10" class="edge">
<title>Node9&#45;&gt;Node10</title>
<path fill="none" stroke="#191970" d="M623.8035,-85.839C617.2917,-76.4219 610.3984,-66.4531 604.2337,-57.538"/>
<polygon fill="none" stroke="#191970" points="621.0783,-88.0517 629.6447,-94.2861 626.8359,-84.0704 621.0783,-88.0517"/>
</g>
<!-- Node11 -->
<g id="node12" class="node">
<title>Node11</title>
<g id="a_node12"><a xlink:href="structxn_1_1XNetworkNoPath.html" target="_top" xlink:title="{xn::XNetworkNoPath\n||+ XNetworkNoPath()\l}">
<polygon fill="#ffffff" stroke="#000000" points="660.5,-.5 660.5,-57.5 770.5,-57.5 770.5,-.5 660.5,-.5"/>
<text text-anchor="middle" x="715.5" y="-45.5" font-family="Helvetica,sans-Serif" font-size="10.00" fill="#000000">xn::XNetworkNoPath</text>
<polyline fill="none" stroke="#000000" points="660.5,-38.5 770.5,-38.5 "/>
<text text-anchor="middle" x="715.5" y="-26.5" font-family="Helvetica,sans-Serif" font-size="10.00" fill="#000000"> </text>
<polyline fill="none" stroke="#000000" points="660.5,-19.5 770.5,-19.5 "/>
<text text-anchor="start" x="668.5" y="-7.5" font-family="Helvetica,sans-Serif" font-size="10.00" fill="#000000">+ XNetworkNoPath()</text>
</a>
</g>
</g>
<!-- Node9&#45;&gt;Node11 -->
<g id="edge11" class="edge">
<title>Node9&#45;&gt;Node11</title>
<path fill="none" stroke="#191970" d="M675.5918,-85.839C682.2038,-76.4219 689.2031,-66.4531 695.4627,-57.538"/>
<polygon fill="none" stroke="#191970" points="672.5427,-84.0908 669.6608,-94.2861 678.2716,-88.1132 672.5427,-84.0908"/>
</g>
</g>
</svg>
        <g id="navigator" transform="translate(0 0)" fill="#404254">
                <rect fill="#f2f5e9" fill-opacity="0.5" stroke="#606060" stroke-width=".5" x="0" y="0" width="60" height="60"/>
                <use id="zoomplus" xlink:href="#zoomPlus" x="17" y="9" onmousedown="handleZoom(evt,'in')"/>
                <use id="zoomminus" xlink:href="#zoomMin" x="42" y="9" onmousedown="handleZoom(evt,'out')"/>
                <use id="reset" xlink:href="#resetDef" x="30" y="36" onmousedown="handleReset()"/>
                <g id="arrowUp" xlink:href="#dirArrow" transform="translate(30 24)" onmousedown="handlePan(0,-1)">
                  <use xlink:href="#rim" fill="#404040">
                        <set attributeName="fill" to="#808080" begin="arrowUp.mouseover" end="arrowUp.mouseout"/>
                  </use>
                  <path fill="none" stroke="white" stroke-width="1.5" d="M0,-3.0v7 M-2.5,-0.5L0,-3.0L2.5,-0.5"/>
                </g>
                <g id="arrowRight" xlink:href="#dirArrow" transform="rotate(90) translate(36 -43)" onmousedown="handlePan(1,0)">
                  <use xlink:href="#rim" fill="#404040">
                        <set attributeName="fill" to="#808080" begin="arrowRight.mouseover" end="arrowRight.mouseout"/>
                  </use>
                  <path fill="none" stroke="white" stroke-width="1.5" d="M0,-3.0v7 M-2.5,-0.5L0,-3.0L2.5,-0.5"/>
                </g>
                <g id="arrowDown" xlink:href="#dirArrow" transform="rotate(180) translate(-30 -48)" onmousedown="handlePan(0,1)">
                  <use xlink:href="#rim" fill="#404040">
                        <set attributeName="fill" to="#808080" begin="arrowDown.mouseover" end="arrowDown.mouseout"/>
                  </use>
                  <path fill="none" stroke="white" stroke-width="1.5" d="M0,-3.0v7 M-2.5,-0.5L0,-3.0L2.5,-0.5"/>
                </g>
                <g id="arrowLeft" xlink:href="#dirArrow" transform="rotate(270) translate(-36 17)" onmousedown="handlePan(-1,0)">
                  <use xlink:href="#rim" fill="#404040">
                        <set attributeName="fill" to="#808080" begin="arrowLeft.mouseover" end="arrowLeft.mouseout"/>
                  </use>
                  <path fill="none" stroke="white" stroke-width="1.5" d="M0,-3.0v7 M-2.5,-0.5L0,-3.0L2.5,-0.5"/>
                </g>
        </g>
        <svg viewBox="0 0 15 15" width="100%" height="30px" preserveAspectRatio="xMaxYMin meet">
         <g id="arrow_out" transform="scale(0.3 0.3)">
          <a xlink:href="structxn_1_1XNetworkException__inherit__graph_org.svg" target="_base">
           <rect id="button" ry="5" rx="5" y="6" x="6" height="38" width="38"
                fill="#f2f5e9" fill-opacity="0.5" stroke="#606060" stroke-width="1.0"/>
           <path id="arrow"
             d="M 11.500037,31.436501 C 11.940474,20.09759 22.043105,11.32322 32.158766,21.979434 L 37.068811,17.246167 C 37.068811,17.246167 37.088388,32 37.088388,32 L 22.160133,31.978069 C 22.160133,31.978069 26.997745,27.140456 26.997745,27.140456 C 18.528582,18.264221 13.291696,25.230495 11.500037,31.436501 z"
             style="fill:#404040;"/>
          </a>
         </g>
        </svg>
</svg>
