<svg width="500" height="500" viewBox="0 0 90000 90000" xmlns="http://www.w3.org/2000/svg">
  <path fill-opacity=".4" fill="green" d="M6171 5218h2020v337H6171zM6171 2974h6108v2244H6171zM6347 31023h1190v1269H6347zM6347 26659h2222v4364H6347zM7537 61173h1904v3015H7537zM7537 43400h1587v17773H7537zM7537 31023h1984v6347H7537zM7537 37370h1984v6030H7537zM9283 20708h1587v3650H9283zM9283 19042h10076v1666H9283zM11028 13409h6268v1745h-6268zM11504 66965h2460v5713h-2460zM6188 70456h5316v2222H6188zM11822 43400h2539v1190h-2539zM11822 63077h753v3888h-753zM12575 63077h1072v3888h-1072zM13689 7575h2244v1570h-2244zM13964 70298h3253v2380h-3253zM14361 32292h4443v1825h-4443zM14361 35704h1269v8886h-1269zM14361 34117h1745v1587h-1745zM14561 54270h1507v3571h-1507zM15933 5443h2356v3702h-2356zM15933 2974h4264v2469h-4264zM18682 54421h1403v5779h-1403zM18963 60312h1458v1852h-1458zM18963 62164h729v1851h-729zM18963 60200h1122v112h-1122zM19042 20708h1745v317h-1745zM19243 66708h2188v1908h-2188z"/>
  <path fill-opacity=".4" fill="green" d="M19243 48755h2469v6508h-2469zM19359 18486h4920v2222h-4920zM19692 62164h3647v2076h-3647zM19692 64240h1739v2468h-1739zM19692 45042h1627v3713h-1627zM21319 48306h393v449h-393zM21502 7616h7102v1667h-7102zM23339 62164h3590v1459h-3590zM24509 46600h1091v1500h-1091zM24509 44300h1191v2300h-1191zM25583 60032h1346v2132h-1346zM25627 68235h397v1825h-397zM25700 34800h2600v11800h-2600zM28604 7616h1508v1429h-1508zM29277 28404h2380v3650h-2380zM29753 12139h1587v2063h-1587zM29753 14202h1904v3094h-1904zM29753 17296h1428v11108h-1428zM30745 51953h1570v7818h-1570zM30745 59771h1570v3739h-1570zM31634 65513h2020v3366h-2020zM35008 5443h2245v2132h-2245zM35121 38993h2356v5049h-2356zM35228 28642h6347v2619h-6347zM35228 28563h2380v79h-2380zM35682 7575h1571v2580h-1571zM35682 44042h1795v7518h-1795zM35704 22612h1111v3412h-1111zM35704 26024h1507v2539h-1507zM35906 64352h836v4600h-836zM36742 64352h735v4600h-735zM37211 27214h397v1349h-397zM37253 2974h5049v2244h-5049zM37477 49989h561v1571h-561zM37701 55263h1852v5554h-1852zM41417 16503h1904v2380h-1904zM41417 14202h1428v2301h-1428zM42302 2974h12231v2469H42302zM42302 5443h224v1683h-224zM42526 5443h1684v2244h-1684zM43200 21713h1907v4488h-1907zM43797 64823h1746v4284h-1746zM43797 62284h2936v2539h-2936zM43797 36815h1825v14044h-1825zM44670 60697h2063v1587h-2063zM45107 26762h5050v2132h-5050zM45225 56889h1746v1824h-1746zM45225 58713h1508v1984h-1508zM45225 54826h3015v2063h-3015zM45622 49034h793v1825h-793zM46229 9594h1571v113h-1571zM46415 49034h1825v5792h-1825zM50157 26762h2356v2244h-2356zM50157 29006h1795v2806h-1795zM50605 31812h1347v1346h-1347zM50605 8584h3591v1123h-3591zM50779 70298h5119v2380h-5119zM50830 33158h1122v8303h-1122zM51811 60380h1825v6268h-1825zM51840 18347h2019v1795h-2019zM52049 58793h1587v1587h-1587zM52049 56413h3253v2380h-3253zM52401 12287h1458v6060h-1458zM52513 9707h1683v224h-1683zM53477 54429h1825v1984h-1825zM54533 2974h3029v2132h-3029zM55898 69980h8728v2698h-8728zM56413 33324h1745v7726h-1745zM56413 41050h1745v6873h-1745zM57562 2974h12119v2693H57562zM57682 53675h1031v4404h-1031zM58684 26650h225v1122h-225zM58713 50065h1032v8014h-1032zM58909 12624h1459v15148h-1459zM59021 27772h1347v2356h-1347zM59021 30128h746v1908h-746zM59904 62205h1666v2221h-1666zM61826 30128h1908v18627h-1908zM62275 48755h1459v3815h-1459zM63958 15990h449v1234h-449zM64407 11838h1571v6733h-1571zM64407 18571h1795v1795h-1795zM64407 20366h3591v2244h-3591zM64407 10043h785v1795h-785zM64519 63118h2132v2019h-2132zM64626 70615h4047v2063h-4047zM64744 61435h1907v1683h-1907zM64744 58966h3815v2469h-3815zM66202 22610h1796v1908h-1796zM66876 53692h1683v5274h-1683zM67885 13409h2469v1796h-2469zM68673 69901h2063v635h-2063zM68673 70536h4681v2142h-4681zM69681 5779h1346v225h-1346zM69681 2974h8303v2805h-8303zM70354 13409h2805v1796h-2805zM70803 32821h2805v2132h-2805zM70803 34953h1459v12455h-1459zM70803 47408h2020v2693h-2020zM71252 54702h1571v3030h-1571zM71252 57732h1346v4151h-1346zM71252 52233h4712v2469h-4712zM71252 50101h1571v2132h-1571zM72374 31026h1234v1795h-1234zM72486 12175h673v1234h-673zM72486 10716h7181v1459h-7181zM72710 28221h898v2805h-898zM72935 17337h2468v1795h-2468zM72935 20591h673v7630h-673zM72935 19132h898v1459h-898zM73354 69980h4443v2698h-4443zM75258 68235h318v1745h-318zM75576 59031h1824v10949h-1824zM75964 52458h1684v3815h-1684zM77400 68631h397v1349h-397zM77797 70694h4919v1984h-4919zM79331 33382h1683v12231h-1683zM79443 22498h337v1571h-337zM79443 24069h2020v1795h-2020zM79667 10716h2357v3254h-2357zM79780 20815h2244v3254h-2244zM79892 7687h1683v3029h-1683zM80116 13970h1908v6845h-1908zM81014 44154h673v1459h-673z"/>
  <path fill-opacity=".4" fill="red" d="M6347 24120h1825v2539H6347zM6347 15471h3729v2143H6347zM6347 17614h1507v6506H6347zM7537 64188h1904v2063H7537zM9203 7458h1667v4602H9203zM10076 15947h7934v1667h-7934zM10552 43400h1270v15710h-1270zM10552 59110h3967v2301h-3967zM10870 10473h1983v1587h-1983zM11504 25707h3809v2697h-3809zM11504 28404h397v1746h-397zM11901 31340h1428v9997h-1428zM11901 28404h1746v2936h-1746zM12279 2974h3654v2244h-3654zM12853 10870h6189v1190h-6189zM13091 22771h3491v2380h-3491zM13091 25151h2222v556h-2222zM14519 59586h2619v1825h-2619zM14561 46733h1904v7537h-1904zM15709 61411h1429v3015h-1429zM15709 64426h1746v2142h-1746zM16465 46733h1825v1745h-1825zM16941 38481h1825v5951h-1825zM16941 44432h1349v2301h-1349zM16941 36577h2101v1904h-2101zM17217 70774h4602v1904h-4602zM17931 12060h1111v317h-1111zM19042 10235h1825v2142h-1825zM19042 36259h1587v2222h-1587zM20197 2974h9987v2244h-9987zM20629 34752h2421v3729h-2421zM20629 22930h2421v8648h-2421zM20867 10790h1745v1587h-1745zM21105 31578h1945v3174h-1945zM21700 58500h1700v2000h-1700zM21700 56500h5700v2000h-5700zM21819 70060h4205v2618h-4205zM22612 10790h1667v7696h-1667zM23050 22930h1943v2221h-1943zM23700 44300h809v2300h-809zM23700 46600h809v1500h-809zM23723 65775h930v4285h-930zM24653 65775h974v4285h-974zM24993 22612h3215v2539h-3215zM26024 70218h4681v2460h-4681zM26303 25151h1905v1746h-1905zM26341 20867h1867v1745h-1867zM27056 11822h1152v9045h-1152zM27056 9283h1548v2539h-1548zM27400 50000h2270v8500h-2270zM27700 47500h2475v2500h-2475zM27875 65513h3759v1963h-3759zM27875 64895h225v618h-225zM28100 58500h1570v7013h-1570zM29670 50000h505v1711h-505zM30175 47500h3367v2416h-3367zM30184 2974h7069v2469h-7069zM30705 70853h7221v1825h-7221zM31522 45483h2020v2017h-2020zM32689 19518h1904v1349h-1904zM32689 20867h1349v6109h-1349zM32689 17376h3094v2142h-3094zM32768 9679h1270v2301h-1270zM32768 11980h3015v2301h-3015zM33662 62332h1005v2020h-1005zM33662 51560h1959v2469h-1959zM33662 54029h1908v8303h-1908zM33720 14281h2063v3095h-2063zM34667 62332h2810v2020h-2810zM35621 51560h2080v2469h-2080zM37701 51560h337v2020h-337zM37926 70298h3649v2380h-3649zM38038 51672h4937v1908h-4937zM39274 36497h397v953h-397zM39274 31261h2301v5236h-2301zM39671 36497h1587v11743h-1587zM39830 62363h807v7935h-807zM40637 62363h938v7935h-938zM41292 54141h2469v2244h-2469zM41292 53580h1683v561h-1683zM41575 70377h1825v2301h-1825zM42190 56385h1571v3142h-1571zM42526 7687h5274v1907h-5274zM42639 26201h2468v2693h-2468zM43400 71091h7379v1587h-7379zM47288 33324h1508v2221h-1508zM47764 60142h1666v6506h-1666zM47764 66648h2142v1904h-2142zM47764 58317h2618v1825h-2618zM47843 42448h1746v3095h-1746zM47843 45543h2777v1904h-2777zM47843 35545h953v6903h-953zM49034 56175h1348v2142h-1348zM49351 55936h1031v239h-1031zM49351 47447h1269v8489h-1269zM46903 16215h4039v2132h-4039zM49371 11726h1571v4489h-1571zM50605 7799h3591v785h-3591zM50493 22274h3479v1795h-3479zM52513 24069h1459v337h-1459zM52737 43032h779v2469h-779zM53074 42135h449v897h-449zM53074 45501h1571v3815h-1571zM53074 49316h1908v3030h-1908zM53516 43032h1129v2469h-1129zM53523 32934h1122v10098h-1122zM53523 31250h1683v1684h-1683zM53523 29231h3815v2019h-3815zM53972 21937h3254v2469h-3254zM54196 7799h3479v2469h-3479zM55543 24406h1683v673h-1683zM55655 20478h1571v1459h-1571zM55767 28109h1571v1122h-1571zM55879 7014h1796v785h-1796zM55898 67283h2539v2697h-2539zM55991 10268h1010v10210h-1010zM56295 59428h1508v5633h-1508zM56295 65061h2142v2222h-2142zM57001 10268h674v448h-674zM57001 19917h225v561h-225zM57682 50065h1031v3610h-1031zM59767 30128h2059v1908h-2059zM59904 59428h1369v2777h-1369zM61041 7350h1907v2132h-1907zM61041 9482h1459v1347h-1459zM61273 59428h2201v2777h-2201zM61377 23284h1684v4712h-1684zM61377 10829h1123v12455h-1123zM62125 53953h1825v2376h-1825zM62125 56329h1825v1591h-1825zM62125 57920h1349v1508h-1349zM63061 26538h3029v1458h-3029zM64070 65137h2581v3367h-2581zM64856 51448h3703v2244h-3703zM64856 32373h1795v19075h-1795zM64856 27996h1234v4377h-1234zM65192 10043h1123v1795h-1123zM66315 7350h2019v4488h-2019zM67885 16215h3142v1683h-3142zM68334 9931h1683v1907h-1683zM69456 17898h1571v1907h-1571zM69905 19805h1122v8191h-1122z"/>
  <path fill-opacity=".4" fill="red" d="M68671 26874h1683v3254h-1683zM70578 61883h2020v6733h-2020zM72486 8248h3591v1459h-3591zM74730 14195h673v3142h-673zM75179 36300h1908v10772h-1908zM75516 25977h1907v5610h-1907zM75516 31587h1571v4713h-1571zM75516 22386h1683v3591h-1683zM76077 5779h1907v3928h-1907zM77199 14195h1458v5947h-1458zM77872 49540h1683v2020h-1683zM77984 2974h4489v2693h-4489zM78994 59303h561v1346h-561zM78994 60649h2132v7855h-2132zM79555 45613h2132v5947h-2132zM79555 56610h2132v4039h-2132zM79892 51560h1795v5050h-1795z"/>
  <path stroke="#00f" stroke-width="5" d="M31858 48708l2783 4086M76357 24181l1571-7013M57285 44486l1944 9586M53675 57603l4522-1726M57049 62244l3539-1428M57285 37187l2109-6105M65192 15204l3927-897M71756 14307l2413 3927M75066 15766l2862 1402M61994 8416l3759 2524M53130 15317l224-5498M60796 31082l1423-5442M63037 55141l3670-2571M54389 55421l3808 456M49231 46495l3895-2229M8529 40385l4562 3610M29754 66494l4410-3152M11187 51255l1428-14917M25140 67917l4614-1423M31530 61640l1114 5556M36072 63342l4161 2988M8489 62680l3709 2341M25140 67917l2847-2713M32644 67196l3680-544"/>
</svg>
