<svg xmlns="http://www.w3.org/2000/svg" width="385.1" height="205"><path fill="green" fill-opacity=".4" d="M0 16h347.5v18H0zM19.7 81.3h7v14.4h-7zM24 34h14.4v25.4H24z"/><path fill="green" fill-opacity=".4" d="M26.7 88.7h10.9v7h-11zM27.7 138.9h7v26.4h-7zM0 165.3h193v18.1H0zM81 80.2h40.7v7H81.1zM83.7 110.6h7v9.6h-7z"/><path fill="green" fill-opacity=".4" d="M83.7 96.2h14.7v14.4H83.7zM104.5 157.6H119v7.7h-14.4zM104.5 34H119v25.4h-14.4zM116.3 110h112.6v7H116.3zM118.1 140.2h41.4v7H118zM121.7 80.2h7.2v7h-7.2z"/><path fill="green" fill-opacity=".4" d="M129 80.2h61.7v7h-61.8zM185.6 142.6H200v22.7h-14.4zM185.6 34H200v25.4h-14.4z"/><path fill="green" fill-opacity=".4" d="M190.7 80.2h138.9v7h-139zM226.7 140.2h13.8v7h-13.8zM229 110h122v7H229zM240.5 140.2H307v7h-66.4zM266.7 34H281v25.4h-14.4z"/><path fill="green" fill-opacity=".4" d="M307 141.1h14.6v6h-14.7zM322.7 72.7h50.6v7h-50.6zM322.7 79.7h6.9v.5h-7zM373.3 53.6h7v19.1h-7zM373.3 72.7h7v61.4h-7z"/><path fill="red" fill-opacity=".4" d="M5.9 53.6h6.9V134h-7zM12.8 106.3h23.5v7H12.8z"/><path fill="red" fill-opacity=".4" d="M36.3 106.3h6.9v14.4h-7zM64.5 125.3H79v21.9H64.5zM64.5 42.3H79v22H64.5zM67.2 73.3h7v25.6h-7z"/><path fill="red" fill-opacity=".4" d="M67.2 64.2h11.7v9H67.2zM67.2 98.9h7v26.4h-7zM79 66.3h66v7H79zM79 140.2H118v7H79zM98.4 96.2h268v7h-268zM145 42.3h14.5v31H145zM145.6 125.3h7v7h-7z"/><path fill="red" fill-opacity=".4" d="M152.5 132.2h7v8h-7z"/><path fill="red" fill-opacity=".4" d="M152.5 125.3h81.1v7h-81zM159.5 66.3H226v7h-66.6zM193 165.3h192v18.1H193zM226.1 42.3h14.4v31h-14.4zM233.6 125.3h7v15h-7zM240.5 66.3h73.6v7h-73.6zM266.7 157.6H281v7.7h-14.4zM307 125.3h14.6V141h-14.7zM307.2 42.3h14.4v22h-14.4z"/><path fill="red" fill-opacity=".4" d="M307.2 64.2h7v2.1h-7zM347.5 16H385v18h-37.6zM351.5 34h6.9v29.2h-7zM351.5 138.9h6.9v26.4h-7zM359.5 88.7h6.9v7.5h-7z"/><path stroke="#00f" stroke-width="1.067" d="M101.4 83.7l-10.3 19.7"/><path fill="none" stroke="#000" stroke-dasharray="3.129 3.129" stroke-width="1.067" d="M347 .5v46.3l.8 1.5-.7-.7M193 156.8V203l.9 1.4-.8-.7"/><path fill="none" stroke="#000" stroke-dasharray="3.391 3.391" stroke-width="1.067" d="M117.6 152l.7-31.6v-1"/><path fill="none" stroke="#000" stroke-dasharray="3.129 3.129" stroke-width="1.067" d="M292.8 140.4l46.3-.2 1.4-.8-.7.8"/></svg>
