<svg xmlns="http://www.w3.org/2000/svg" width="385.1" height="205" viewBox="0 0 218.1 105.3">
  <defs>
    <clipPath id="a">
      <path d="M0 0h163.6v79H0z"/>
    </clipPath>
    <mask maskUnits="userSpaceOnUse" x="0" y="0" width="1" height="1" id="c">
      <g clip-path="url(#a)">
        <path d="M0 0h163.6v79H0z" fill="#fff" fill-opacity="0"/>
      </g>
    </mask>
    <clipPath id="d">
      <path d="M0 0h163.6v79H0z"/>
    </clipPath>
    <clipPath id="b">
      <path d="M0 0h164v80H0z"/>
    </clipPath>
    <pattern patternTransform="matrix(1 0 0 -1.41412 0 111.7)" patternUnits="userSpaceOnUse" width="164" height="80" id="e">
      <g clip-path="url(#b)">
        <path d="M91.3 2.2c20.5-.4 20.9-.8 20.9-.8" fill="#fff" stroke="#000" stroke-width=".8"/>
      </g>
    </pattern>
  </defs>
  <path d="M0 0h214v10H0zM11 36.3h3.8v8H11zM13.3 10h8v14.1h-8zM14.8 40.4h6v3.9h-6zM15.4 68.3h3.9V83h-3.9zM35.9 60.7h8V73h-8zM37.3 31.9h3.9v28.8h-3.9zM43.9 69h44.7V73H43.9zM45 35.7h138.1v3.9h-138zM58 10h8v14.1h-8zM64.6 52.3H195v3.8H64.6zM103.1 70.4h8V83h-8zM103.1 10h8v14.1h-8zM126 69h7.6V73H126zM133.6 69h37V73h-37zM148.1 10h8v14.1h-8zM179.3 31.6h28.1v3.8h-28.1zM179.3 35.4h3.8v.3h-3.8zM207.4 31.6h3.9v34h-3.9zM207.4 20.9h3.9v10.7h-3.9z" fill="green" fill-opacity=".4"/>
  <path d="M3.3 20.9H7v44.7H3.3zM7.1 50.2h13v3.9h-13zM0 83h214v10H0zM20.1 50.2H24v8h-3.9zM35.9 14.7h8v12.1h-8zM37.3 26.8H44v5h-6.6z" fill="red" fill-opacity=".4"/>
  <path d="M43.9 28h36.7v3.9H43.9zM46.5 52.6h3.9v5.3h-3.9zM46.5 44.6h8.2v8h-8.2z" fill="red" fill-opacity=".4"/>
  <path d="M54.7 44.6h148.9v3.8h-149zM58 78.7h8V83h-8zM80.6 14.7h8v17.2h-8zM80.9 60.7h3.8v3.9H81zM84.7 64.6h3.9V69h-3.9z" fill="red" fill-opacity=".4"/>
  <path d="M84.7 60.7h45v3.9h-45zM88.6 28h37v3.9h-37zM125.6 14.7h8v17.2h-8zM129.8 60.7h3.8V69h-3.8zM133.6 28h41v3.9h-41zM148.1 78.7h8V83h-8zM170.5 60.7h8.2V73h-8.2zM170.7 14.7h8v12.1h-8zM170.7 26.8h3.8V28h-3.8zM195.3 10h3.8v16.2h-3.8zM195.3 68.3h3.8V83h-3.8zM199.7 40.4h3.9v4.2h-3.9z" fill="red" fill-opacity=".4"/>
  <path d="M163.3 16.3c0 6.7-2.5 12.2-5.7 12.2s-5.8-5.5-5.8-12.2c0-6.7 2.6-12.1 5.8-12.1 3.2 0 5.7 5.4 5.7 12.1z" fill="none" stroke="#000" stroke-width=".6" stroke-linejoin="round" stroke-dasharray="2.359536,2.359536" transform="matrix(1.33333 0 0 .94287 0 0)"/>
  <path d="M137.7 82c0 6.7-2.6 12.1-5.8 12.1-3.2 0-5.8-5.4-5.8-12.1 0-6.7 2.6-12.1 5.8-12.1 3.2 0 5.8 5.4 5.8 12z" fill="none" stroke="#000" stroke-width=".5" stroke-linejoin="round" stroke-dasharray="2.197354,2.197354" transform="matrix(1.33333 0 0 .94527 0 0)"/>
  <path d="M48.5 88.6c0 6.5-5.7 11.8-12.8 11.8-7.1 0-12.8-5.3-12.8-11.8 0-6.5 5.7-11.8 12.8-11.8 7 0 12.8 5.3 12.8 11.8z" fill="none" stroke="#000" stroke-width=".8" stroke-linejoin="round" stroke-dasharray="3.243114,3.243114" transform="matrix(1.33333 0 0 .42755 0 0)"/>
  <g mask="url(#c)" transform="matrix(1.33333 0 0 -1.33333 0 105.3)">
    <g clip-path="url(#d)">
      <path d="M0 0h163.6v79H0z" fill="url(#e)"/>
    </g>
  </g>
</svg>
