<svg xmlns="http://www.w3.org/2000/svg" width="608" height="175" viewBox="0 0 304.1 87.6"><path fill="none" stroke="#000" stroke-width=".267" d="M1.6 42.2h3V54h-3z"/><path fill="none" stroke="#000" stroke-width=".267" d="M1.6 39.3h4.2v3H1.6z"/><path fill="none" stroke="#000" stroke-width=".267" d="M5.8 37.8h4.4v4.4H5.8zM.1 54h4.5v4.4H0zM14.7 27.3h3v42.2h-3zM15.3 4.9h3v19.7h-3z"/><path fill="none" stroke="#000" stroke-width=".267" d="M15.3 24.6h5.9V29h-6zM26.5 4.9h3v32.9h-3zM25.3 37.8h4.5v4.4h-4.5zM26.8 42.2h3v20h-3zM38.4 21h4.4v4.5h-4.4zM39.9 25.5h3v28.4h-3zM39.9 54h4.4v4.4h-4.4zM44.3 55.4h3.1v3h-3.1zM47.4 55.4h3v14.2h-3zM48.9 2.8h3v43.4h-3zM51.9 47.7h6.8v3h-6.8zM58.7 47.7h3v22h-3z"/><path fill="none" stroke="#000" stroke-width=".267" d="M47.4 46.2H52v4.5h-4.5zM60.1 2.8h3v35h-3zM58.7 37.8H63v4.4h-4.4zM67.6 34.5h3V54h-3zM67.6 30H72v4.5h-4.4zM66 54h4.5v4.4h-4.4zM74.4 2.8h3v11.3h-3z"/><path fill="none" stroke="#000" stroke-width=".267" d="M74.4 14h4.4v4.5h-4.4zM85.6 2.8h3V38h-3zM99.9 38h4.4v4.4h-4.4zM75 38h24.9v2.9h-25zM75 40.9h3v28.7h-3zM96.9 2.8h3v30h-3zM99.9 29.8h8.7v3h-8.7z"/><path fill="none" stroke="#000" stroke-width=".267" d="M107.3 30h4.4v4.5h-4.4zM108.7 34.5h3v35.1h-3zM113.8 7.3h5.3v4.4h-5.3zM116.1 11.7h3v26.2h-3zM116.1 38h4.5v4.4H116zM128.3 3.7h3v50.2h-3zM126.8 54h4.5v4.4h-4.5zM126.8 58.4h3v11.2h-3zM142.5 3.7h3v34.8h-3zM142.5 38.5h4.5V43h-4.5zM142.5 43h3v26.6h-3zM155 3.7h3v50.2h-3zM155 54h4.4v4.4H155zM166.2 3.7h3v11.4h-3z"/><path fill="none" stroke="#000" stroke-width=".267" d="M164.7 15.1h4.5v4.5h-4.5zM172.7 54h6.9v4.4h-6.9zM176.6 58.4h3v16.1h-3zM84.7 45.3h4.5v4.5h-4.5zM89.2 55.4h8.3v3h-8.3zM97.5 55.4h3v22h-3z"/><path fill="none" stroke="#000" stroke-width=".267" d="M100.4 74.5h67.9v3h-67.9zM165.3 49.5h3v25h-3zM165.3 46.5h15.1v3h-15zM177.5 3.7h3v42.8h-3zM86.2 49.8h3v19.8h-3zM184.9 15h4.7v4.4H185zM186.7 19.4h3v39.4h-3zM186.7 58.8h4.4v4.5h-4.4zM194.4 3.7h3V15h-3zM196.7 15h4.5v4.4h-4.5zM198 19.4h3v55.1h-3z"/><path fill="none" stroke="#000" stroke-width=".267" d="M194.4 15h2.3v3h-2.3zM222.2 52h3v8.3h-3zM220.7 47.6h4.5V52h-4.5zM222.2 60.3h3v14.2h-3zM211 60.3h11.2v3H211zM211 63.3h3v11.2h-3zM228.7 12.6h3v14.2h-3zM231.7 23.9h.9v3h-.9zM232.6 23.9h4.4v4.4h-4.4zM205.6 3.7h3v34.8h-3zM205.5 38.5h4.4V43h-4.4zM210 40.1h28v3h-28zM238 40.1h6.7v4.5H238zM238 44.6h2.9v30h-3zM208.9 43h1v.1h-1zM241.5.1h3v26.7h-3z"/><path fill="none" stroke="#000" stroke-width=".267" d="M244.4 23.9h4.5v4.4h-4.5zM216.9 3.7h3v26.7h-3zM219.9 32.7h29.3v3h-29.3z"/><path fill="none" stroke="#000" stroke-width=".267" d="M249.2 32.7h3v41.8h-3zM218.2 35.3h1.7v.4h-1.7zM213 30.4h6.9v4.9H213zM263.4 58.8h4.5v4.5h-4.5zM263.4 63.3h3v11.2h-3zM275.3 54.8h4.4v4.5h-4.4zM276.7 59.3h3v15.2h-3zM252.7.1h3v15.5h-3zM252.7 15.6h4.5V20h-4.5zM257.2 25.8H288v3h-30.8zM281.5 9.2h3v16.6h-3zM288 25.8h3v48.7h-3zM254.2 20h3v8.7h-3zM301 9.2h3v16.7h-3zM301 30.4h3v24.4h-3zM296.7 26h7.3v4.4h-7.3z"/><path d="M4 40.7c0 .2-.1.3-.3.3a.3.3 0 1 1 .3-.3zM3.7 48a.6.6 0 1 1-1.2 0 .6.6 0 0 1 1.2 0z"/><path stroke="green" stroke-width=".267" d="M3.7 40.7l-.6 7.4"/><path d="M2.7 56.1c0 .2-.2.3-.3.3a.3.3 0 0 1-.3-.3c0-.1.1-.2.3-.2.1 0 .3 0 .3.2zM3.7 48a.6.6 0 1 1-1.2 0 .6.6 0 0 1 1.2 0z"/><path stroke="green" stroke-width=".267" d="M2.4 56.1l.7-8"/><path d="M4 40.7c0 .2-.1.3-.3.3a.3.3 0 1 1 .3-.3zM8.6 40a.6.6 0 1 1-1.2 0 .6.6 0 0 1 1.2 0z"/><path stroke="green" stroke-width=".267" d="M3.7 40.7L8 40"/><path d="M16.4 48.4c0 .1 0 .3-.3.3a.3.3 0 0 1-.2-.3c0-.2 0-.3.2-.3s.3.1.3.3zM18.8 26.8c0 .3-.2.6-.6.6a.6.6 0 1 1 .6-.6z"/><path stroke="green" stroke-width=".267" d="M16.1 48.4l2.1-21.6"/><path d="M18.5 26.8a.3.3 0 0 1-.6 0l.3-.3c.2 0 .3.2.3.3zM17.3 14.7c0 .4-.2.6-.6.6a.6.6 0 0 1-.6-.6.6.6 0 0 1 1.2 0z"/><path stroke="green" stroke-width=".267" d="M18.2 26.8l-1.5-12"/><path d="M27.9 40c0 .2-.2.3-.3.3a.3.3 0 1 1 0-.6c.1 0 .3.1.3.3zM28.6 21.3a.6.6 0 1 1-1.2 0 .6.6 0 0 1 1.2 0z"/><path stroke="green" stroke-width=".267" d="M27.6 40l.4-18.7"/><path d="M27.9 40c0 .2-.2.3-.3.3a.3.3 0 1 1 0-.6c.1 0 .3.1.3.3zM28.9 52.2a.6.6 0 1 1-1.2 0 .6.6 0 0 1 1.2 0z"/><path stroke="green" stroke-width=".267" d="M27.6 40l.7 12.2"/><path d="M40.9 23.3c0 .1-.1.3-.3.3a.3.3 0 0 1-.3-.3c0-.2.1-.3.3-.3.2 0 .3 0 .3.3zM42 39.7a.6.6 0 1 1-1.3 0 .6.6 0 0 1 1.2 0z"/><path stroke="green" stroke-width=".267" d="M40.6 23.3l.7 16.4"/><path d="M42.4 56.1c0 .2-.2.3-.3.3a.3.3 0 0 1-.3-.3c0-.1.1-.2.3-.2.1 0 .3 0 .3.2zM42 39.7a.6.6 0 1 1-1.3 0 .6.6 0 0 1 1.2 0z"/><path stroke="green" stroke-width=".267" d="M42 56.1l-.7-16.4"/><path d="M42.4 56.1c0 .2-.2.3-.3.3a.3.3 0 0 1-.3-.3c0-.1.1-.2.3-.2.1 0 .3 0 .3.2zM46.4 56.9c0 .3-.2.6-.6.6a.6.6 0 0 1-.5-.6.6.6 0 0 1 1.1 0z"/><path stroke="green" stroke-width=".267" d="M42 56.1l3.8.8"/><path d="M46.1 56.9c0 .2 0 .3-.3.3a.3.3 0 0 1-.2-.3c0-.2 0-.3.2-.3s.3.1.3.3zM49.5 62.5c0 .3-.3.6-.6.6a.6.6 0 0 1-.6-.6c0-.3.3-.6.6-.6s.6.3.6.6z"/><path stroke="green" stroke-width=".267" d="M45.8 56.9l3 5.6"/><path d="M50 48.4c0 .2-.2.3-.4.3a.3.3 0 0 1-.3-.3l.3-.3c.2 0 .3.2.3.3zM51 24.5a.6.6 0 1 1-1.2 0 .6.6 0 0 1 1.2 0z"/><path stroke="green" stroke-width=".267" d="M49.6 48.4l.8-23.9"/><path d="M50 48.4c0 .2-.2.3-.4.3a.3.3 0 0 1-.3-.3l.3-.3c.2 0 .3.2.3.3zM55.9 49.2a.6.6 0 0 1-1.2 0 .6.6 0 1 1 1.2 0z"/><path stroke="green" stroke-width=".267" d="M49.6 48.4l5.7.8"/><path d="M55.6 49.2l-.3.3a.3.3 0 0 1-.3-.3c0-.2 0-.3.3-.3.1 0 .3.1.3.3zM60.7 58.7c0 .3-.2.6-.6.6a.6.6 0 1 1 0-1.2c.4 0 .6.2.6.6z"/><path stroke="green" stroke-width=".267" d="M55.3 49.2l4.8 9.5"/><path d="M61.2 40c0 .2-.1.3-.3.3a.3.3 0 1 1 0-.6c.2 0 .3.1.3.3zM62.2 20.3a.6.6 0 1 1-1.2 0 .6.6 0 0 1 1.2 0z"/><path stroke="green" stroke-width=".267" d="M60.9 40l.7-19.7"/><path d="M70 32.3c0 .2 0 .3-.2.3a.3.3 0 0 1-.3-.3c0-.2.1-.3.3-.3.1 0 .3.1.3.3zM69.6 44.2a.6.6 0 1 1-1.2 0 .6.6 0 0 1 1.2 0z"/><path stroke="green" stroke-width=".267" d="M69.8 32.3l-.8 12"/><path d="M68.6 56.1a.3.3 0 1 1-.6 0c0-.1.1-.2.3-.2.2 0 .3 0 .3.2zM69.6 44.2a.6.6 0 1 1-1.2 0 .6.6 0 0 1 1.2 0z"/><path stroke="green" stroke-width=".267" d="M68.3 56.1l.7-11.9"/><path d="M76.9 16.3c0 .2-.1.3-.3.3a.3.3 0 0 1-.3-.3c0-.2.1-.3.3-.3.2 0 .3.1.3.3zM76.4 8.4a.6.6 0 1 1-1.1 0 .6.6 0 0 1 1.1 0z"/><path stroke="green" stroke-width=".267" d="M76.6 16.3l-.7-7.9"/><path d="M76.7 55.3c0 .1 0 .3-.3.3a.3.3 0 0 1-.3-.3.3.3 0 0 1 .6 0zM88 39.4a.6.6 0 1 1-1.2 0 .6.6 0 0 1 1.2 0z"/><path stroke="green" stroke-width=".267" d="M76.4 55.3l11-15.9"/><path d="M87.7 39.4c0 .2-.1.3-.3.3a.3.3 0 0 1-.3-.3c0-.2.1-.3.3-.3.2 0 .3.1.3.3zM87.7 20.4a.6.6 0 1 1-1.2 0 .6.6 0 0 1 1.2 0z"/><path stroke="green" stroke-width=".267" d="M87.4 39.4l-.3-19"/><path d="M87.3 47.6l-.3.3a.3.3 0 1 1 .3-.3zM88.3 59.7a.6.6 0 1 1-1.2 0 .6.6 0 0 1 1.2 0z"/><path stroke="green" stroke-width=".267" d="M87 47.6l.7 12.1"/><path d="M88 59.7c0 .2-.1.3-.3.3a.3.3 0 0 1-.3-.3c0-.2.1-.3.3-.3.2 0 .3.1.3.3zM94 56.9c0 .3-.3.6-.7.6a.6.6 0 0 1-.6-.6.6.6 0 1 1 1.2 0z"/><path stroke="green" stroke-width=".267" d="M87.7 59.7l5.6-2.8"/><path d="M93.6 56.9c0 .2-.1.3-.3.3a.3.3 0 0 1-.3-.3.3.3 0 0 1 .6 0zM99.6 66.4a.6.6 0 1 1-1.2 0 .6.6 0 0 1 1.2 0z"/><path stroke="green" stroke-width=".267" d="M93.3 56.9l5.7 9.5"/><path d="M98.7 17.8l-.3.3a.3.3 0 0 1-.3-.3c0-.2.1-.3.3-.3.1 0 .3.1.3.3zM104.8 31.3a.6.6 0 1 1-1.2 0 .6.6 0 0 1 1.2 0z"/><path stroke="green" stroke-width=".267" d="M98.4 17.8l5.8 13.5"/><path d="M87.7 39.4c0 .2-.1.3-.3.3a.3.3 0 0 1-.3-.3c0-.2.1-.3.3-.3.2 0 .3.1.3.3zM102.7 40.1a.6.6 0 1 1-1.2 0 .6.6 0 0 1 1.2 0z"/><path stroke="green" stroke-width=".267" d="M87.4 39.4l14.7.7"/><path d="M99.3 66.4c0 .2-.2.3-.3.3a.3.3 0 1 1 .3-.3zM135 76a.6.6 0 1 1-1.2 0 .6.6 0 0 1 1.2 0z"/><path stroke="green" stroke-width=".267" d="M99 66.4l35.4 9.6"/><path d="M104.5 31.3c0 .1-.1.3-.3.3a.3.3 0 0 1-.3-.3.3.3 0 0 1 .6 0zM110 32.3c0 .3-.2.6-.5.6a.6.6 0 0 1 0-1.2c.3 0 .6.3.6.6z"/><path stroke="green" stroke-width=".267" d="M104.2 31.3l5.3 1"/><path d="M109.8 32.3c0 .2-.2.3-.3.3a.3.3 0 0 1-.3-.3c0-.2.1-.3.3-.3.1 0 .3.1.3.3zM110.8 52c0 .4-.2.7-.6.7a.6.6 0 1 1 .6-.6z"/><path stroke="green" stroke-width=".267" d="M109.5 32.3l.7 19.8"/><path d="M116.7 9.5c0 .1 0 .3-.3.3a.3.3 0 0 1-.3-.3c0-.2.2-.3.3-.3.2 0 .3.1.3.3zM118.2 24.8a.6.6 0 1 1-1.2 0 .6.6 0 0 1 1.2 0z"/><path stroke="green" stroke-width=".267" d="M116.4 9.5l1.2 15.3"/><path d="M118.7 40.1c0 .2-.2.3-.3.3a.3.3 0 0 1-.3-.3c0-.1.1-.2.3-.2.1 0 .3 0 .3.2zM118.2 24.8a.6.6 0 1 1-1.2 0 .6.6 0 0 1 1.2 0z"/><path stroke="green" stroke-width=".267" d="M118.4 40.1l-.8-15.3"/><path d="M128.6 64c0 .2-.1.3-.3.3a.3.3 0 1 1 .3-.3zM129.6 56.1a.6.6 0 0 1-1.2 0c0-.3.3-.5.6-.5.4 0 .6.2.6.5z"/><path stroke="green" stroke-width=".267" d="M128.3 64l.7-7.9"/><path d="M129.3 56.1c0 .2-.1.3-.3.3a.3.3 0 0 1-.3-.3l.3-.2c.2 0 .3 0 .3.2zM130.4 28.8c0 .3-.3.6-.6.6a.6.6 0 0 1-.6-.6c0-.3.2-.6.6-.6.3 0 .6.3.6.6z"/><path stroke="green" stroke-width=".267" d="M129 56.1l.8-27.3"/><path d="M144.3 56.3c0 .2-.1.3-.3.3a.3.3 0 0 1-.3-.3c0-.2.1-.3.3-.3.2 0 .3.1.3.3zM145.3 40.7a.6.6 0 1 1-1.2 0 .6.6 0 0 1 1.2 0z"/><path stroke="green" stroke-width=".267" d="M144 56.3l.7-15.6"/><path d="M145 40.7c0 .2 0 .3-.3.3a.3.3 0 0 1-.3-.3l.3-.3c.2 0 .3.2.3.3zM144.6 21.1a.6.6 0 1 1-1.2 0 .6.6 0 0 1 1.2 0z"/><path stroke="green" stroke-width=".267" d="M144.7 40.7l-.7-19.6"/><path d="M157.5 56.1c0 .2-.2.3-.3.3a.3.3 0 1 1 0-.5c.1 0 .3 0 .3.2zM157 28.8c0 .3-.2.6-.6.6a.6.6 0 0 1-.5-.6c0-.3.2-.6.5-.6.4 0 .6.3.6.6z"/><path stroke="green" stroke-width=".267" d="M157.2 56.1l-.8-27.3"/><path d="M173.2 48c0 .2-.1.3-.3.3a.3.3 0 1 1 0-.6c.2 0 .3.1.3.3zM167.4 62c0 .3-.3.6-.6.6a.6.6 0 1 1 .6-.6z"/><path stroke="green" stroke-width=".267" d="M172.9 48l-6 14"/><path d="M134.7 76a.3.3 0 1 1-.6 0 .3.3 0 0 1 .6 0zM167.4 62c0 .3-.3.6-.6.6a.6.6 0 1 1 .6-.6z"/><path stroke="green" stroke-width=".267" d="M134.4 76l32.4-14"/><path d="M167.3 17.3c0 .2-.2.3-.3.3a.3.3 0 1 1 .3-.3zM168.3 9.4a.6.6 0 0 1-1.2 0 .6.6 0 1 1 1.2 0z"/><path stroke="green" stroke-width=".267" d="M167 17.3l.7-7.9"/><path d="M176.4 56.1a.3.3 0 1 1-.5 0c0-.1 0-.2.2-.2s.3 0 .3.2zM178.7 66.4a.6.6 0 1 1-1.2 0 .6.6 0 0 1 1.2 0z"/><path stroke="green" stroke-width=".267" d="M176.1 56.1l2 10.3"/><path d="M173.2 48c0 .2-.1.3-.3.3a.3.3 0 1 1 0-.6c.2 0 .3.1.3.3zM179.6 25.1a.6.6 0 1 1-1.2 0 .6.6 0 0 1 1.2 0z"/><path stroke="green" stroke-width=".267" d="M172.9 48l6-22.9"/><path d="M187.6 17.2l-.3.3a.3.3 0 0 1-.3-.3c0-.2 0-.3.3-.3.1 0 .3.1.3.3zM188.7 39.1c0 .3-.2.6-.6.6a.6.6 0 1 1 .6-.6z"/><path stroke="green" stroke-width=".267" d="M187.3 17.2l.8 22"/><path d="M189.2 61a.3.3 0 1 1-.3-.3c.2 0 .3.2.3.3zM188.7 39.1c0 .3-.2.6-.6.6a.6.6 0 1 1 .6-.6z"/><path stroke="green" stroke-width=".267" d="M188.9 61l-.8-21.9"/><path d="M196.1 9.3a.3.3 0 1 1-.5 0c0-.1 0-.3.3-.3l.2.3zM196.1 16.4c0 .4-.2.6-.5.6a.6.6 0 0 1-.6-.6c0-.3.2-.5.6-.5.3 0 .5.2.5.5z"/><path stroke="green" stroke-width=".267" d="M195.9 9.3l-.3 7.1"/><path d="M196.1 9.3a.3.3 0 1 1-.5 0c0-.1 0-.3.3-.3l.2.3zM199.6 17.2a.6.6 0 0 1-1.2 0 .6.6 0 0 1 1.2 0z"/><path stroke="green" stroke-width=".267" d="M195.9 9.3l3 7.9"/><path d="M195.9 16.4c0 .2-.2.3-.3.3a.3.3 0 0 1-.3-.3c0-.1 0-.3.3-.3l.3.3zM199.6 17.2a.6.6 0 0 1-1.2 0 .6.6 0 0 1 1.2 0z"/><path stroke="green" stroke-width=".267" d="M195.6 16.4l3.4.8"/><path d="M199.3 17.2l-.3.3a.3.3 0 0 1-.3-.3c0-.2.1-.3.3-.3.1 0 .3.1.3.3zM200.1 47a.6.6 0 1 1-1.1 0c0-.4.2-.6.6-.6.3 0 .5.2.5.6z"/><path stroke="green" stroke-width=".267" d="M199 17.2l.6 29.8"/><path d="M208 40.7c0 .2-.1.3-.3.3a.3.3 0 1 1 .3-.3zM207.7 21.1c0 .3-.3.6-.6.6a.6.6 0 0 1-.6-.6.6.6 0 1 1 1.2 0z"/><path stroke="green" stroke-width=".267" d="M207.7 40.7l-.6-19.6"/><path d="M208 40.7c0 .2-.1.3-.3.3a.3.3 0 1 1 .3-.3zM210 43a.6.6 0 1 1-1.2 0 .6.6 0 0 1 1.2 0z"/><path stroke="green" stroke-width=".267" d="M207.7 40.7l1.7 2.3"/><path d="M208 40.7c0 .2-.1.3-.3.3a.3.3 0 1 1 .3-.3zM224.5 41.6a.6.6 0 1 1-1.2 0 .6.6 0 0 1 1.2 0z"/><path stroke="green" stroke-width=".267" d="M207.7 40.7l16.2 1"/><path d="M209.7 43c0 .2-.1.3-.3.3a.3.3 0 1 1 0-.6c.2 0 .3.2.3.3zM224.5 41.6a.6.6 0 1 1-1.2 0 .6.6 0 0 1 1.2 0z"/><path stroke="green" stroke-width=".267" d="M209.4 43l14.5-1.4"/><path d="M212.7 68.9c0 .2 0 .3-.3.3a.3.3 0 0 1-.3-.3.3.3 0 0 1 .6 0zM217.2 61.8a.6.6 0 0 1-1.2 0c0-.4.3-.6.6-.6s.6.2.6.6z"/><path stroke="green" stroke-width=".267" d="M212.4 68.9l4.2-7.1"/><path d="M216.7 32.8c0 .2 0 .3-.3.3a.3.3 0 0 1-.3-.3.3.3 0 0 1 .6 0zM219 17a.6.6 0 1 1-1.2 0 .6.6 0 0 1 1.2 0z"/><path stroke="green" stroke-width=".267" d="M216.4 32.8l2-15.8"/><path d="M216.7 32.8c0 .2 0 .3-.3.3a.3.3 0 0 1-.3-.3.3.3 0 0 1 .6 0zM219.6 35.5a.6.6 0 1 1-1.2 0 .6.6 0 0 1 1.2 0z"/><path stroke="green" stroke-width=".267" d="M216.4 32.8l2.6 2.7"/><path d="M216.7 32.8c0 .2 0 .3-.3.3a.3.3 0 0 1-.3-.3.3.3 0 0 1 .6 0zM235.1 34.2c0 .4-.3.6-.6.6a.6.6 0 0 1-.6-.6c0-.3.3-.6.6-.6s.6.3.6.6z"/><path stroke="green" stroke-width=".267" d="M216.4 32.8l18.1 1.4"/><path d="M219.3 35.5c0 .1-.1.3-.3.3a.3.3 0 0 1-.3-.3c0-.2.2-.3.3-.3.2 0 .3.1.3.3zM235.1 34.2c0 .4-.3.6-.6.6a.6.6 0 0 1-.6-.6c0-.3.3-.6.6-.6s.6.3.6.6z"/><path stroke="green" stroke-width=".267" d="M219 35.5l15.5-1.3"/><path d="M216.9 61.8c0 .1-.1.3-.3.3a.3.3 0 0 1-.3-.3c0-.2.1-.3.3-.3.2 0 .3.1.3.3zM224.3 67.4a.6.6 0 1 1-1.2 0 .6.6 0 0 1 1.2 0z"/><path stroke="green" stroke-width=".267" d="M216.6 61.8l7.1 5.6"/><path d="M223.3 49.8l-.3.3a.3.3 0 0 1-.3-.3c0-.2.1-.3.3-.3.1 0 .3.1.3.3zM224.3 56.1a.6.6 0 0 1-1.2 0c0-.3.3-.5.6-.5s.6.2.6.5z"/><path stroke="green" stroke-width=".267" d="M223 49.8l.7 6.3"/><path d="M216.9 61.8c0 .1-.1.3-.3.3a.3.3 0 0 1-.3-.3c0-.2.1-.3.3-.3.2 0 .3.1.3.3zM224.3 56.1a.6.6 0 0 1-1.2 0c0-.3.3-.5.6-.5s.6.2.6.5z"/><path stroke="green" stroke-width=".267" d="M216.6 61.8l7.1-5.7"/><path d="M224 67.4c0 .2-.1.3-.3.3a.3.3 0 1 1 .3-.3zM224.3 56.1a.6.6 0 0 1-1.2 0c0-.3.3-.5.6-.5s.6.2.6.5z"/><path stroke="green" stroke-width=".267" d="M223.7 67.4V56.1"/><path d="M230.5 19.7a.3.3 0 1 1-.3-.3c.2 0 .3.1.3.3zM232.7 25.3c0 .4-.2.6-.6.6a.6.6 0 1 1 0-1.2c.4 0 .6.3.6.6z"/><path stroke="green" stroke-width=".267" d="M230.2 19.7l2 5.6"/><path d="M232.4 25.3c0 .2 0 .3-.3.3a.3.3 0 0 1-.2-.3c0-.1 0-.3.2-.3s.3.2.3.3zM235.4 26c0 .4-.3.7-.6.7a.6.6 0 0 1 0-1.2c.3 0 .6.2.6.6z"/><path stroke="green" stroke-width=".267" d="M232.1 25.3l2.7.8"/><path d="M224.2 41.6c0 .2-.1.3-.3.3a.3.3 0 0 1-.3-.3l.3-.3c.2 0 .3.2.3.3zM242 42.4a.6.6 0 1 1-1.3 0 .6.6 0 0 1 1.2 0z"/><path stroke="green" stroke-width=".267" d="M224 41.6l17.3.8"/><path d="M239.7 59.6c0 .1-.1.3-.3.3a.3.3 0 0 1-.3-.3c0-.2.1-.3.3-.3.2 0 .3 0 .3.3zM242 42.4a.6.6 0 1 1-1.3 0 .6.6 0 0 1 1.2 0z"/><path stroke="green" stroke-width=".267" d="M239.4 59.6l2-17.2"/><path d="M243.3 13.5a.3.3 0 1 1-.6 0c0-.2.1-.3.3-.3.1 0 .3.1.3.3zM247.3 26a.6.6 0 1 1-1.2 0 .6.6 0 0 1 1.2 0z"/><path stroke="green" stroke-width=".267" d="M243 13.5l3.7 12.6"/><path d="M234.8 34.2a.3.3 0 1 1-.6 0 .3.3 0 1 1 .6 0zM251.3 53.6a.6.6 0 1 1-1.2 0 .6.6 0 0 1 1.2 0z"/><path stroke="green" stroke-width=".267" d="M234.5 34.2l16.2 19.4"/><path d="M255.3 17.8l-.3.3a.3.3 0 0 1-.3-.3c0-.2.1-.3.3-.3.1 0 .3.1.3.3zM254.8 7.9c0 .3-.2.5-.6.5a.6.6 0 0 1-.6-.5c0-.4.3-.6.6-.6.4 0 .6.2.6.6z"/><path stroke="green" stroke-width=".267" d="M255 17.8l-.8-10"/><path d="M255.3 17.8l-.3.3a.3.3 0 0 1-.3-.3c0-.2.1-.3.3-.3.1 0 .3.1.3.3zM256.3 24.4a.6.6 0 0 1-1.2 0 .6.6 0 1 1 1.2 0z"/><path stroke="green" stroke-width=".267" d="M255 17.8l.7 6.6"/><path d="M256 24.4c0 .1-.1.3-.3.3a.3.3 0 0 1-.3-.3.3.3 0 1 1 .6 0zM273.2 27.3a.6.6 0 1 1-1.2 0 .6.6 0 0 1 1.2 0z"/><path stroke="green" stroke-width=".267" d="M255.7 24.4l16.9 2.9"/><path d="M265.2 68.9c0 .2-.1.3-.3.3a.3.3 0 1 1 0-.6c.2 0 .3.1.3.3zM266.2 61a.6.6 0 1 1-1.2 0 .6.6 0 0 1 1.2 0z"/><path stroke="green" stroke-width=".267" d="M264.9 68.9l.7-7.9"/><path d="M277.8 57a.3.3 0 1 1-.6 0c0-.1.1-.3.3-.3l.3.3zM278.8 66.9c0 .3-.2.6-.6.6a.6.6 0 1 1 0-1.2c.4 0 .6.3.6.6z"/><path stroke="green" stroke-width=".267" d="M277.5 57l.7 9.9"/><path d="M272.9 27.3c0 .1-.1.3-.3.3a.3.3 0 0 1-.3-.3c0-.2.1-.3.3-.3.2 0 .3 0 .3.3zM283.6 17.5a.6.6 0 1 1-1.2 0 .6.6 0 0 1 1.2 0z"/><path stroke="green" stroke-width=".267" d="M272.6 27.3l10.4-9.8"/><path d="M272.9 27.3c0 .1-.1.3-.3.3a.3.3 0 0 1-.3-.3c0-.2.1-.3.3-.3.2 0 .3 0 .3.3zM290 50.1c0 .4-.2.6-.5.6a.6.6 0 0 1-.6-.6.6.6 0 1 1 1.2 0z"/><path stroke="green" stroke-width=".267" d="M272.6 27.3L289.5 50"/><path d="M300.7 28.1c0 .2-.2.3-.3.3a.3.3 0 0 1-.3-.3c0-.1.1-.2.3-.2.1 0 .3 0 .3.2zM303.1 42.6a.6.6 0 1 1-1.2 0c0-.3.3-.6.6-.6s.6.3.6.6z"/><path stroke="green" stroke-width=".267" d="M300.4 28.1l2.1 14.5"/><path d="M300.7 28.1c0 .2-.2.3-.3.3a.3.3 0 0 1-.3-.3c0-.1.1-.2.3-.2.1 0 .3 0 .3.2zM303.1 17.6a.6.6 0 1 1-1.2 0c0-.4.3-.6.6-.6s.6.2.6.6z"/><path stroke="green" stroke-width=".267" d="M300.4 28.1l2.1-10.5"/><path stroke="#00f" stroke-width=".267" d="M3.7 40.7l12.4 7.7M8 40l8.1 8.4M3.1 48l13 .4M2.4 56.1L16 48.4M8 40l10.2-13.2M18.2 26.8L27.6 40M16.1 48.4L27.6 40M16.7 14.7L28 21.3M18.2 26.8l9.8-5.5M16.1 48.4l11.9-27M16.1 48.4l12.2 3.8M28 21.3l12.6 2M28.3 52.2l13.8 4M28 21.3l13.3 18.4M27.6 40l13.7-.3M28.3 52.2l13-12.5M41.3 39.7l8.3 8.7M42 56.1l7.6-7.7M45.8 56.9l3.8-8.5M49.6 48.4L49 62.5M40.6 23.3l9.8 1.2M41.3 39.7l9-15.2M42 56.1l8.4-31.6M45.8 56.9l4.6-32.4M48.9 62.5l1.5-38M41.3 39.7l14 9.5M42 56.1l13.3-7M45.8 56.9l9.5-7.7M48.9 62.5l6.4-13.3M50.4 24.5L60.9 40M49.6 48.4L61 40M55.3 49.2l5.6-9.2M60.9 40L60 58.7M48.9 62.5L60 58.7M50.4 24.5l11.2-4.2M55.3 49.2l6.3-28.9M60.1 58.7l1.5-38.4M55.3 49.2l13 7M60.1 58.7l8.2-2.6M61.6 20.3l8.2 12M60.9 40l8.9-7.7M61.6 20.3l7.4 24M60.9 40l8.1 4.2M55.3 49.2l13.7-5M60.1 58.7l9-14.5M69.8 32.3l6.6 23M69 44.2l7.4 11M68.3 56.1l8.1-.8M69.8 32.3l17.6 7.1M69 44.2l18.4-4.8M87.4 39.4l-.4 8.2M76.4 55.3L87 47.6M75.9 8.4l11.2 12M76.6 16.3l10.5 4M87 47.6l.1-27.2M87.4 39.4l.3 20.3M76.4 55.3l11.3 4.4M87.1 20.4l11.3-2.6M87.4 39.4l11-21.6M87 47.6l12 18.8M87.7 59.7L99 66.4M87.4 39.4l16.8-8.1M98.4 17.8L102 40M104.2 31.3l-2.1 8.8M87.4 39.4l22-7.1M102 40.1l7.5-7.8M87.4 39.4l22.8 12.7M102 40.1l8.2 12M99 66.4l11.2-14.3M134.4 76l-24.2-24M104.2 31.3l14.2 8.8M109.5 32.3l8.9 7.8M110.2 52l8.2-11.9M104.2 31.3l13.4-6.5M109.5 32.3l8.1-7.5M110.2 52l7.4-27.2M134.4 76l-6.1-12M116.4 9.5l13.4 19.3M117.6 24.8l12.2 4M118.4 40.1l11.4-11.3M134.4 76l9.6-19.7M144 56.3l13.2-.2M144 21.1l12.4 7.7M144.7 40.7l11.7-11.9M144 56.3l12.4-27.5M156.4 28.8L167 17.3M156.4 28.8L173 48M157.2 56.1l15.7-8.1M156.4 28.8L166.8 62M157.2 56.1l9.6 5.9M156.4 28.8l11.3-19.4M172.9 48l3.2 8.1M166.8 62l9.3-5.9M172.9 48l5.2 18.4M166.8 62l11.3 4.4M134.4 76l43.7-9.6M167.7 9.4L179 25.1M167 17.3l12 7.8M176.1 56.1l2.9-31M179 25.1l8.3-8M176.1 56.1l12.8 5M178 66.4L189 61M179 25.1l9.1 14M172.9 48l15.2-8.9M176.1 56.1l12-17M178 66.4l10.1-27.3M187.3 17.2l8.6-7.9M188.1 39.1L196 9.3M187.3 17.2l8.3-.8M188.1 39.1l7.5-22.7M187.3 17.2H199M188.1 39.1l10.9-22M187.3 17.2L199.6 47M188.1 39.1l11.5 7.9M188.9 61l10.7-14M199.6 47l8.1-6.3M195.9 9.3L207 21.1M195.6 16.4l11.5 4.7M199 17.2l8.1 4M199.6 47L207 21M199.6 47l9.8-4M199.6 47l24.3-5.4M199.6 47l12.8 21.9M199.6 47l17 14.8M207.1 21.1l9.3 11.7M207.7 40.7l8.7-7.9M209.4 43l7-10.2M224 41.6l-7.6-8.8M207.1 21.1l11.3-4M224 41.6L218.3 17M207.1 21.1l12 14.4M207.7 40.7l11.3-5.2M224 41.6l-5-6.1M207.7 40.7l26.8-6.5M224 41.6l10.5-7.4M224 41.6l-1 8.2M216.6 61.8l6.4-12M212.4 68.9l11.3-1.5M224 41.6l-.3 14.5M218.4 17l11.8 2.7M216.4 32.8l13.8-13.1M234.5 34.2l-4.3-14.5M234.5 34.2l-2.4-8.9M234.5 34.2l.3-8.1M234.5 34.2l5 25.4M234.5 34.2l6.8 8.2M230.2 19.7l12.8-6.2M232.1 25.3L243 13.5M234.8 26l8.2-12.5M234.5 34.2l8.5-20.7M234.8 26h11.9M234.5 34.2l12.2-8.1M243 13.5l7.7 40.1M246.7 26l4 27.6M241.3 42.4l9.4 11.2M239.4 59.6l11.3-6M243 13.5l12 4.3M246.7 26l8.3-8.2M243 13.5l11.2-5.6M246.7 26L254.2 8M243 13.5l12.7 10.9M246.7 26l9-1.6M234.5 34.2l21.2-9.8M250.7 53.6l5-29.2M246.7 26l25.9 1.3M234.5 34.2l38-7M250.7 53.6l21.9-26.3M265.6 61l11.9-4M264.9 68.9L277.5 57M265.6 61l12.6 5.9M264.9 68.9l13.3-2M277.5 57l12-6.9M278.2 66.9L289.5 50M272.6 27.3l27.8.8M289.5 50.1l10.9-22M289.5 50.1l13-7.5M289.5 50.1l13-32.5"/><text style="-inkscape-font-specification:Arial" font-family="Arial" font-size="8.8" font-weight="400" transform="matrix(1.33333 0 0 1.33282 132.5 87.5)"><tspan x="0" y="0">a</tspan></text><text style="-inkscape-font-specification:Arial" font-family="Arial" font-size="10" font-weight="400" transform="matrix(1.33333 0 0 1.19008 268 23.6)"><tspan x="0" y="0">b</tspan></text><text style="-inkscape-font-specification:Arial" font-family="Arial" font-size="10.1" font-weight="400" transform="matrix(1.33333 0 0 1.23125 292 58)"><tspan x="0" y="0">c</tspan></text></svg>
