<svg xmlns="http://www.w3.org/2000/svg" width="608" height="175" viewBox="0 0 304.1 87.6"><path fill="none" stroke="#000" stroke-width=".267" d="M1.6 42.2h3V54h-3z"/><path fill="none" stroke="#000" stroke-width=".267" d="M1.6 39.3h4.2v3H1.6z"/><path fill="none" stroke="#000" stroke-width=".267" d="M5.8 37.8h4.4v4.4H5.8zM.1 54h4.5v4.4H0zm14.6-26.7h3v42.2h-3zm.6-22.4h3v19.7h-3z"/><path fill="none" stroke="#000" stroke-width=".267" d="M15.3 24.6h5.9V29h-6zM26.5 4.9h3v32.9h-3zm-1.2 32.9h4.5v4.4h-4.5zm1.5 4.4h3v20h-3zM38.4 21h4.4v4.5h-4.4zm1.5 4.5h3v28.4h-3zm0 28.5h4.4v4.4h-4.4zm4.4 1.4h3.1v3h-3.1zm3.1 0h3v14.2h-3zm1.5-52.6h3v43.4h-3zm3 44.9h6.8v3h-6.8zm6.8 0h3v22h-3z"/><path fill="none" stroke="#000" stroke-width=".267" d="M47.4 46.2H52v4.5h-4.5zM60.1 2.8h3v35h-3zm-1.4 35H63v4.4h-4.4zm8.9-3.3h3V54h-3zm0-4.5H72v4.5h-4.4zM66 54h4.5v4.4h-4.4zm8.4-51.2h3v11.3h-3z"/><path fill="none" stroke="#000" stroke-width=".267" d="M74.4 14h4.4v4.5h-4.4zM85.6 2.8h3V38h-3zM99.9 38h4.4v4.4h-4.4zM75 38h24.9v2.9h-25zm0 2.9h3v28.7h-3zM96.9 2.8h3v30h-3zm3 27h8.7v3h-8.7z"/><path fill="none" stroke="#000" stroke-width=".267" d="M107.3 30h4.4v4.5h-4.4zm1.4 4.5h3v35.1h-3zm5.1-27.2h5.3v4.4h-5.3zm2.3 4.4h3v26.2h-3zm0 26.3h4.5v4.4H116zm12.2-34.3h3v50.2h-3zM126.8 54h4.5v4.4h-4.5zm0 4.4h3v11.2h-3zm15.7-54.7h3v34.8h-3zm0 34.8h4.5V43h-4.5zm0 4.5h3v26.6h-3zM155 3.7h3v50.2h-3zm0 50.3h4.4v4.4H155zm11.2-50.3h3v11.4h-3z"/><path fill="none" stroke="#000" stroke-width=".267" d="M164.7 15.1h4.5v4.5h-4.5zm8 38.9h6.9v4.4h-6.9zm3.9 4.4h3v16.1h-3zM84.7 45.3h4.5v4.5h-4.5zm4.5 10.1h8.3v3h-8.3zm8.3 0h3v22h-3z"/><path fill="none" stroke="#000" stroke-width=".267" d="M100.4 74.5h67.9v3h-67.9zm64.9-25h3v25h-3zm0-3h15.1v3h-15zm12.2-42.8h3v42.8h-3zM86.2 49.8h3v19.8h-3zM184.9 15h4.7v4.4H185zm1.8 4.4h3v39.4h-3zm0 39.4h4.4v4.5h-4.4zm7.7-55.1h3V15h-3zm2.3 11.3h4.5v4.4h-4.5zm1.3 4.4h3v55.1h-3zm-3.6-4.4h2.3v3h-2.3zm27.8 37h3v8.3h-3zm-1.5-4.4h4.5V52h-4.5zm1.5 12.7h3v14.2h-3zm-11.2 0h11.2v3H211zm0 3h3v11.2h-3zm17.7-50.7h3v14.2h-3zm3 11.3h.9v3h-.9zm.9 0h4.4v4.4h-4.4zm-27-20.2h3v34.8h-3zm-.1 34.8h4.4V43h-4.4zm4.5 1.6h28v3h-28zm28 0h6.7v4.5H238zm0 4.5h2.9v30h-3zM208.9 43h1v.1h-1zM241.5.1h3v26.7h-3z"/><path fill="none" stroke="#000" stroke-width=".267" d="M244.4 23.9h4.5v4.4h-4.5zM216.9 3.7h3v26.7h-3zm3 29h29.3v3h-29.3z"/><path fill="none" stroke="#000" stroke-width=".267" d="M249.2 32.7h3v41.8h-3zm-31 2.6h1.7v.4h-1.7zm-5.2-4.9h6.9v4.9H213zm50.4 28.4h4.5v4.5h-4.5zm0 4.5h3v11.2h-3zm11.9-8.5h4.4v4.5h-4.4zm1.4 4.5h3v15.2h-3zM252.7.1h3v15.5h-3zm0 15.5h4.5V20h-4.5zm4.5 10.2H288v3h-30.8zm24.3-16.6h3v16.6h-3zm6.5 16.6h3v48.7h-3zM254.2 20h3v8.7h-3zM301 9.2h3v16.7h-3zm0 21.2h3v24.4h-3zm-4.3-4.4h7.3v4.4h-7.3z"/><path d="M4 40.7c0 .2-.1.3-.3.3a.3.3 0 1 1 .3-.3zM3.7 48a.6.6 0 1 1-1.2 0 .6.6 0 0 1 1.2 0z"/><path stroke="green" stroke-width=".267" d="m3.7 40.7-.6 7.4"/><path d="M2.7 56.1c0 .2-.2.3-.3.3a.3.3 0 0 1-.3-.3c0-.1.1-.2.3-.2.1 0 .3 0 .3.2zm1-8.1a.6.6 0 1 1-1.2 0 .6.6 0 0 1 1.2 0z"/><path stroke="green" stroke-width=".267" d="m2.4 56.1.7-8"/><path d="M4 40.7c0 .2-.1.3-.3.3a.3.3 0 1 1 .3-.3zm4.6-.7a.6.6 0 1 1-1.2 0 .6.6 0 0 1 1.2 0z"/><path stroke="green" stroke-width=".267" d="M3.7 40.7 8 40"/><path d="M16.4 48.4c0 .1 0 .3-.3.3a.3.3 0 0 1-.2-.3c0-.2 0-.3.2-.3s.3.1.3.3zm2.4-21.6c0 .3-.2.6-.6.6a.6.6 0 1 1 .6-.6z"/><path stroke="green" stroke-width=".267" d="m16.1 48.4 2.1-21.6"/><path d="M18.5 26.8a.3.3 0 0 1-.6 0l.3-.3c.2 0 .3.2.3.3zm-1.2-12.1c0 .4-.2.6-.6.6a.6.6 0 0 1-.6-.6.6.6 0 0 1 1.2 0z"/><path stroke="green" stroke-width=".267" d="m18.2 26.8-1.5-12"/><path d="M27.9 40c0 .2-.2.3-.3.3a.3.3 0 1 1 0-.6c.1 0 .3.1.3.3zm.7-18.7a.6.6 0 1 1-1.2 0 .6.6 0 0 1 1.2 0z"/><path stroke="green" stroke-width=".267" d="m27.6 40 .4-18.7"/><path d="M27.9 40c0 .2-.2.3-.3.3a.3.3 0 1 1 0-.6c.1 0 .3.1.3.3zm1 12.2a.6.6 0 1 1-1.2 0 .6.6 0 0 1 1.2 0z"/><path stroke="green" stroke-width=".267" d="m27.6 40 .7 12.2"/><path d="M40.9 23.3c0 .1-.1.3-.3.3a.3.3 0 0 1-.3-.3c0-.2.1-.3.3-.3.2 0 .3 0 .3.3zM42 39.7a.6.6 0 1 1-1.3 0 .6.6 0 0 1 1.2 0z"/><path stroke="green" stroke-width=".267" d="m40.6 23.3.7 16.4"/><path d="M42.4 56.1c0 .2-.2.3-.3.3a.3.3 0 0 1-.3-.3c0-.1.1-.2.3-.2.1 0 .3 0 .3.2zM42 39.7a.6.6 0 1 1-1.3 0 .6.6 0 0 1 1.2 0z"/><path stroke="green" stroke-width=".267" d="m42 56.1-.7-16.4"/><path d="M42.4 56.1c0 .2-.2.3-.3.3a.3.3 0 0 1-.3-.3c0-.1.1-.2.3-.2.1 0 .3 0 .3.2zm4 .8c0 .3-.2.6-.6.6a.6.6 0 0 1-.5-.6.6.6 0 0 1 1.1 0z"/><path stroke="green" stroke-width=".267" d="m42 56.1 3.8.8"/><path d="M46.1 56.9c0 .2 0 .3-.3.3a.3.3 0 0 1-.2-.3c0-.2 0-.3.2-.3s.3.1.3.3zm3.4 5.6c0 .3-.3.6-.6.6a.6.6 0 0 1-.6-.6c0-.3.3-.6.6-.6s.6.3.6.6z"/><path stroke="green" stroke-width=".267" d="m45.8 56.9 3 5.6"/><path d="M50 48.4c0 .2-.2.3-.4.3a.3.3 0 0 1-.3-.3l.3-.3c.2 0 .3.2.3.3zm1-23.9a.6.6 0 1 1-1.2 0 .6.6 0 0 1 1.2 0z"/><path stroke="green" stroke-width=".267" d="m49.6 48.4.8-23.9"/><path d="M50 48.4c0 .2-.2.3-.4.3a.3.3 0 0 1-.3-.3l.3-.3c.2 0 .3.2.3.3zm5.9.8a.6.6 0 0 1-1.2 0 .6.6 0 1 1 1.2 0z"/><path stroke="green" stroke-width=".267" d="m49.6 48.4 5.7.8"/><path d="m55.6 49.2-.3.3a.3.3 0 0 1-.3-.3c0-.2 0-.3.3-.3.1 0 .3.1.3.3zm5.1 9.5c0 .3-.2.6-.6.6a.6.6 0 1 1 0-1.2c.4 0 .6.2.6.6z"/><path stroke="green" stroke-width=".267" d="m55.3 49.2 4.8 9.5"/><path d="M61.2 40c0 .2-.1.3-.3.3a.3.3 0 1 1 0-.6c.2 0 .3.1.3.3zm1-19.7a.6.6 0 1 1-1.2 0 .6.6 0 0 1 1.2 0z"/><path stroke="green" stroke-width=".267" d="m60.9 40 .7-19.7"/><path d="M70 32.3c0 .2 0 .3-.2.3a.3.3 0 0 1-.3-.3c0-.2.1-.3.3-.3.1 0 .3.1.3.3zm-.4 11.9a.6.6 0 1 1-1.2 0 .6.6 0 0 1 1.2 0z"/><path stroke="green" stroke-width=".267" d="m69.8 32.3-.8 12"/><path d="M68.6 56.1a.3.3 0 1 1-.6 0c0-.1.1-.2.3-.2.2 0 .3 0 .3.2zm1-11.9a.6.6 0 1 1-1.2 0 .6.6 0 0 1 1.2 0z"/><path stroke="green" stroke-width=".267" d="m68.3 56.1.7-11.9"/><path d="M76.9 16.3c0 .2-.1.3-.3.3a.3.3 0 0 1-.3-.3c0-.2.1-.3.3-.3.2 0 .3.1.3.3zm-.5-7.9a.6.6 0 1 1-1.1 0 .6.6 0 0 1 1.1 0z"/><path stroke="green" stroke-width=".267" d="m76.6 16.3-.7-7.9"/><path d="M76.7 55.3c0 .1 0 .3-.3.3a.3.3 0 0 1-.3-.3.3.3 0 0 1 .6 0zM88 39.4a.6.6 0 1 1-1.2 0 .6.6 0 0 1 1.2 0z"/><path stroke="green" stroke-width=".267" d="m76.4 55.3 11-15.9"/><path d="M87.7 39.4c0 .2-.1.3-.3.3a.3.3 0 0 1-.3-.3c0-.2.1-.3.3-.3.2 0 .3.1.3.3zm0-19a.6.6 0 1 1-1.2 0 .6.6 0 0 1 1.2 0z"/><path stroke="green" stroke-width=".267" d="m87.4 39.4-.3-19"/><path d="m87.3 47.6-.3.3a.3.3 0 1 1 .3-.3zm1 12.1a.6.6 0 1 1-1.2 0 .6.6 0 0 1 1.2 0z"/><path stroke="green" stroke-width=".267" d="m87 47.6.7 12.1"/><path d="M88 59.7c0 .2-.1.3-.3.3a.3.3 0 0 1-.3-.3c0-.2.1-.3.3-.3.2 0 .3.1.3.3zm6-2.8c0 .3-.3.6-.7.6a.6.6 0 0 1-.6-.6.6.6 0 1 1 1.2 0z"/><path stroke="green" stroke-width=".267" d="m87.7 59.7 5.6-2.8"/><path d="M93.6 56.9c0 .2-.1.3-.3.3a.3.3 0 0 1-.3-.3.3.3 0 0 1 .6 0zm6 9.5a.6.6 0 1 1-1.2 0 .6.6 0 0 1 1.2 0z"/><path stroke="green" stroke-width=".267" d="m93.3 56.9 5.7 9.5"/><path d="m98.7 17.8-.3.3a.3.3 0 0 1-.3-.3c0-.2.1-.3.3-.3.1 0 .3.1.3.3zm6.1 13.5a.6.6 0 1 1-1.2 0 .6.6 0 0 1 1.2 0z"/><path stroke="green" stroke-width=".267" d="m98.4 17.8 5.8 13.5"/><path d="M87.7 39.4c0 .2-.1.3-.3.3a.3.3 0 0 1-.3-.3c0-.2.1-.3.3-.3.2 0 .3.1.3.3zm15 .7a.6.6 0 1 1-1.2 0 .6.6 0 0 1 1.2 0z"/><path stroke="green" stroke-width=".267" d="m87.4 39.4 14.7.7"/><path d="M99.3 66.4c0 .2-.2.3-.3.3a.3.3 0 1 1 .3-.3zM135 76a.6.6 0 1 1-1.2 0 .6.6 0 0 1 1.2 0z"/><path stroke="green" stroke-width=".267" d="m99 66.4 35.4 9.6"/><path d="M104.5 31.3c0 .1-.1.3-.3.3a.3.3 0 0 1-.3-.3.3.3 0 0 1 .6 0zm5.5 1c0 .3-.2.6-.5.6a.6.6 0 0 1 0-1.2c.3 0 .6.3.6.6z"/><path stroke="green" stroke-width=".267" d="m104.2 31.3 5.3 1"/><path d="M109.8 32.3c0 .2-.2.3-.3.3a.3.3 0 0 1-.3-.3c0-.2.1-.3.3-.3.1 0 .3.1.3.3zm1 19.7c0 .4-.2.7-.6.7a.6.6 0 1 1 .6-.6z"/><path stroke="green" stroke-width=".267" d="m109.5 32.3.7 19.8"/><path d="M116.7 9.5c0 .1 0 .3-.3.3a.3.3 0 0 1-.3-.3c0-.2.2-.3.3-.3.2 0 .3.1.3.3zm1.5 15.3a.6.6 0 1 1-1.2 0 .6.6 0 0 1 1.2 0z"/><path stroke="green" stroke-width=".267" d="m116.4 9.5 1.2 15.3"/><path d="M118.7 40.1c0 .2-.2.3-.3.3a.3.3 0 0 1-.3-.3c0-.1.1-.2.3-.2.1 0 .3 0 .3.2zm-.5-15.3a.6.6 0 1 1-1.2 0 .6.6 0 0 1 1.2 0z"/><path stroke="green" stroke-width=".267" d="m118.4 40.1-.8-15.3"/><path d="M128.6 64c0 .2-.1.3-.3.3a.3.3 0 1 1 .3-.3zm1-7.9a.6.6 0 0 1-1.2 0c0-.3.3-.5.6-.5.4 0 .6.2.6.5z"/><path stroke="green" stroke-width=".267" d="m128.3 64 .7-7.9"/><path d="M129.3 56.1c0 .2-.1.3-.3.3a.3.3 0 0 1-.3-.3l.3-.2c.2 0 .3 0 .3.2zm1.1-27.3c0 .3-.3.6-.6.6a.6.6 0 0 1-.6-.6c0-.3.2-.6.6-.6.3 0 .6.3.6.6z"/><path stroke="green" stroke-width=".267" d="m129 56.1.8-27.3"/><path d="M144.3 56.3c0 .2-.1.3-.3.3a.3.3 0 0 1-.3-.3c0-.2.1-.3.3-.3.2 0 .3.1.3.3zm1-15.6a.6.6 0 1 1-1.2 0 .6.6 0 0 1 1.2 0z"/><path stroke="green" stroke-width=".267" d="m144 56.3.7-15.6"/><path d="M145 40.7c0 .2 0 .3-.3.3a.3.3 0 0 1-.3-.3l.3-.3c.2 0 .3.2.3.3zm-.4-19.6a.6.6 0 1 1-1.2 0 .6.6 0 0 1 1.2 0z"/><path stroke="green" stroke-width=".267" d="m144.7 40.7-.7-19.6"/><path d="M157.5 56.1c0 .2-.2.3-.3.3a.3.3 0 1 1 0-.5c.1 0 .3 0 .3.2zm-.5-27.3c0 .3-.2.6-.6.6a.6.6 0 0 1-.5-.6c0-.3.2-.6.5-.6.4 0 .6.3.6.6z"/><path stroke="green" stroke-width=".267" d="m157.2 56.1-.8-27.3"/><path d="M173.2 48c0 .2-.1.3-.3.3a.3.3 0 1 1 0-.6c.2 0 .3.1.3.3zm-5.8 14c0 .3-.3.6-.6.6a.6.6 0 1 1 .6-.6z"/><path stroke="green" stroke-width=".267" d="m172.9 48-6 14"/><path d="M134.7 76a.3.3 0 1 1-.6 0 .3.3 0 0 1 .6 0zm32.7-14c0 .3-.3.6-.6.6a.6.6 0 1 1 .6-.6z"/><path stroke="green" stroke-width=".267" d="m134.4 76 32.4-14"/><path d="M167.3 17.3c0 .2-.2.3-.3.3a.3.3 0 1 1 .3-.3zm1-7.9a.6.6 0 0 1-1.2 0 .6.6 0 1 1 1.2 0z"/><path stroke="green" stroke-width=".267" d="m167 17.3.7-7.9"/><path d="M176.4 56.1a.3.3 0 1 1-.5 0c0-.1 0-.2.2-.2s.3 0 .3.2zm2.3 10.3a.6.6 0 1 1-1.2 0 .6.6 0 0 1 1.2 0z"/><path stroke="green" stroke-width=".267" d="m176.1 56.1 2 10.3"/><path d="M173.2 48c0 .2-.1.3-.3.3a.3.3 0 1 1 0-.6c.2 0 .3.1.3.3zm6.4-22.9a.6.6 0 1 1-1.2 0 .6.6 0 0 1 1.2 0z"/><path stroke="green" stroke-width=".267" d="m172.9 48 6-22.9"/><path d="m187.6 17.2-.3.3a.3.3 0 0 1-.3-.3c0-.2 0-.3.3-.3.1 0 .3.1.3.3zm1.1 21.9c0 .3-.2.6-.6.6a.6.6 0 1 1 .6-.6z"/><path stroke="green" stroke-width=".267" d="m187.3 17.2.8 22"/><path d="M189.2 61a.3.3 0 1 1-.3-.3c.2 0 .3.2.3.3zm-.5-21.9c0 .3-.2.6-.6.6a.6.6 0 1 1 .6-.6z"/><path stroke="green" stroke-width=".267" d="m188.9 61-.8-21.9"/><path d="M196.1 9.3a.3.3 0 1 1-.5 0c0-.1 0-.3.3-.3l.2.3zm0 7.1c0 .4-.2.6-.5.6a.6.6 0 0 1-.6-.6c0-.3.2-.5.6-.5.3 0 .5.2.5.5z"/><path stroke="green" stroke-width=".267" d="m195.9 9.3-.3 7.1"/><path d="M196.1 9.3a.3.3 0 1 1-.5 0c0-.1 0-.3.3-.3l.2.3zm3.5 7.9a.6.6 0 0 1-1.2 0 .6.6 0 0 1 1.2 0z"/><path stroke="green" stroke-width=".267" d="m195.9 9.3 3 7.9"/><path d="M195.9 16.4c0 .2-.2.3-.3.3a.3.3 0 0 1-.3-.3c0-.1 0-.3.3-.3l.3.3zm3.7.8a.6.6 0 0 1-1.2 0 .6.6 0 0 1 1.2 0z"/><path stroke="green" stroke-width=".267" d="m195.6 16.4 3.4.8"/><path d="m199.3 17.2-.3.3a.3.3 0 0 1-.3-.3c0-.2.1-.3.3-.3.1 0 .3.1.3.3zm.8 29.8a.6.6 0 1 1-1.1 0c0-.4.2-.6.6-.6.3 0 .5.2.5.6z"/><path stroke="green" stroke-width=".267" d="m199 17.2.6 29.8"/><path d="M208 40.7c0 .2-.1.3-.3.3a.3.3 0 1 1 .3-.3zm-.3-19.6c0 .3-.3.6-.6.6a.6.6 0 0 1-.6-.6.6.6 0 1 1 1.2 0z"/><path stroke="green" stroke-width=".267" d="m207.7 40.7-.6-19.6"/><path d="M208 40.7c0 .2-.1.3-.3.3a.3.3 0 1 1 .3-.3zm2 2.3a.6.6 0 1 1-1.2 0 .6.6 0 0 1 1.2 0z"/><path stroke="green" stroke-width=".267" d="m207.7 40.7 1.7 2.3"/><path d="M208 40.7c0 .2-.1.3-.3.3a.3.3 0 1 1 .3-.3zm16.5.9a.6.6 0 1 1-1.2 0 .6.6 0 0 1 1.2 0z"/><path stroke="green" stroke-width=".267" d="m207.7 40.7 16.2 1"/><path d="M209.7 43c0 .2-.1.3-.3.3a.3.3 0 1 1 0-.6c.2 0 .3.2.3.3zm14.8-1.4a.6.6 0 1 1-1.2 0 .6.6 0 0 1 1.2 0z"/><path stroke="green" stroke-width=".267" d="m209.4 43 14.5-1.4"/><path d="M212.7 68.9c0 .2 0 .3-.3.3a.3.3 0 0 1-.3-.3.3.3 0 0 1 .6 0zm4.5-7.1a.6.6 0 0 1-1.2 0c0-.4.3-.6.6-.6s.6.2.6.6z"/><path stroke="green" stroke-width=".267" d="m212.4 68.9 4.2-7.1"/><path d="M216.7 32.8c0 .2 0 .3-.3.3a.3.3 0 0 1-.3-.3.3.3 0 0 1 .6 0zM219 17a.6.6 0 1 1-1.2 0 .6.6 0 0 1 1.2 0z"/><path stroke="green" stroke-width=".267" d="m216.4 32.8 2-15.8"/><path d="M216.7 32.8c0 .2 0 .3-.3.3a.3.3 0 0 1-.3-.3.3.3 0 0 1 .6 0zm2.9 2.7a.6.6 0 1 1-1.2 0 .6.6 0 0 1 1.2 0z"/><path stroke="green" stroke-width=".267" d="m216.4 32.8 2.6 2.7"/><path d="M216.7 32.8c0 .2 0 .3-.3.3a.3.3 0 0 1-.3-.3.3.3 0 0 1 .6 0zm18.4 1.4c0 .4-.3.6-.6.6a.6.6 0 0 1-.6-.6c0-.3.3-.6.6-.6s.6.3.6.6z"/><path stroke="green" stroke-width=".267" d="m216.4 32.8 18.1 1.4"/><path d="M219.3 35.5c0 .1-.1.3-.3.3a.3.3 0 0 1-.3-.3c0-.2.2-.3.3-.3.2 0 .3.1.3.3zm15.8-1.3c0 .4-.3.6-.6.6a.6.6 0 0 1-.6-.6c0-.3.3-.6.6-.6s.6.3.6.6z"/><path stroke="green" stroke-width=".267" d="m219 35.5 15.5-1.3"/><path d="M216.9 61.8c0 .1-.1.3-.3.3a.3.3 0 0 1-.3-.3c0-.2.1-.3.3-.3.2 0 .3.1.3.3zm7.4 5.6a.6.6 0 1 1-1.2 0 .6.6 0 0 1 1.2 0z"/><path stroke="green" stroke-width=".267" d="m216.6 61.8 7.1 5.6"/><path d="m223.3 49.8-.3.3a.3.3 0 0 1-.3-.3c0-.2.1-.3.3-.3.1 0 .3.1.3.3zm1 6.3a.6.6 0 0 1-1.2 0c0-.3.3-.5.6-.5s.6.2.6.5z"/><path stroke="green" stroke-width=".267" d="m223 49.8.7 6.3"/><path d="M216.9 61.8c0 .1-.1.3-.3.3a.3.3 0 0 1-.3-.3c0-.2.1-.3.3-.3.2 0 .3.1.3.3zm7.4-5.7a.6.6 0 0 1-1.2 0c0-.3.3-.5.6-.5s.6.2.6.5z"/><path stroke="green" stroke-width=".267" d="m216.6 61.8 7.1-5.7"/><path d="M224 67.4c0 .2-.1.3-.3.3a.3.3 0 1 1 .3-.3zm.3-11.3a.6.6 0 0 1-1.2 0c0-.3.3-.5.6-.5s.6.2.6.5z"/><path stroke="green" stroke-width=".267" d="M223.7 67.4V56.1"/><path d="M230.5 19.7a.3.3 0 1 1-.3-.3c.2 0 .3.1.3.3zm2.2 5.6c0 .4-.2.6-.6.6a.6.6 0 1 1 0-1.2c.4 0 .6.3.6.6z"/><path stroke="green" stroke-width=".267" d="m230.2 19.7 2 5.6"/><path d="M232.4 25.3c0 .2 0 .3-.3.3a.3.3 0 0 1-.2-.3c0-.1 0-.3.2-.3s.3.2.3.3zm3 .7c0 .4-.3.7-.6.7a.6.6 0 0 1 0-1.2c.3 0 .6.2.6.6z"/><path stroke="green" stroke-width=".267" d="m232.1 25.3 2.7.8"/><path d="M224.2 41.6c0 .2-.1.3-.3.3a.3.3 0 0 1-.3-.3l.3-.3c.2 0 .3.2.3.3zm17.8.8a.6.6 0 1 1-1.3 0 .6.6 0 0 1 1.2 0z"/><path stroke="green" stroke-width=".267" d="m224 41.6 17.3.8"/><path d="M239.7 59.6c0 .1-.1.3-.3.3a.3.3 0 0 1-.3-.3c0-.2.1-.3.3-.3.2 0 .3 0 .3.3zm2.3-17.2a.6.6 0 1 1-1.3 0 .6.6 0 0 1 1.2 0z"/><path stroke="green" stroke-width=".267" d="m239.4 59.6 2-17.2"/><path d="M243.3 13.5a.3.3 0 1 1-.6 0c0-.2.1-.3.3-.3.1 0 .3.1.3.3zm4 12.5a.6.6 0 1 1-1.2 0 .6.6 0 0 1 1.2 0z"/><path stroke="green" stroke-width=".267" d="m243 13.5 3.7 12.6"/><path d="M234.8 34.2a.3.3 0 1 1-.6 0 .3.3 0 1 1 .6 0zm16.5 19.4a.6.6 0 1 1-1.2 0 .6.6 0 0 1 1.2 0z"/><path stroke="green" stroke-width=".267" d="m234.5 34.2 16.2 19.4"/><path d="m255.3 17.8-.3.3a.3.3 0 0 1-.3-.3c0-.2.1-.3.3-.3.1 0 .3.1.3.3zm-.5-9.9c0 .3-.2.5-.6.5a.6.6 0 0 1-.6-.5c0-.4.3-.6.6-.6.4 0 .6.2.6.6z"/><path stroke="green" stroke-width=".267" d="m255 17.8-.8-10"/><path d="m255.3 17.8-.3.3a.3.3 0 0 1-.3-.3c0-.2.1-.3.3-.3.1 0 .3.1.3.3zm1 6.6a.6.6 0 0 1-1.2 0 .6.6 0 1 1 1.2 0z"/><path stroke="green" stroke-width=".267" d="m255 17.8.7 6.6"/><path d="M256 24.4c0 .1-.1.3-.3.3a.3.3 0 0 1-.3-.3.3.3 0 1 1 .6 0zm17.2 2.9a.6.6 0 1 1-1.2 0 .6.6 0 0 1 1.2 0z"/><path stroke="green" stroke-width=".267" d="m255.7 24.4 16.9 2.9"/><path d="M265.2 68.9c0 .2-.1.3-.3.3a.3.3 0 1 1 0-.6c.2 0 .3.1.3.3zm1-7.9a.6.6 0 1 1-1.2 0 .6.6 0 0 1 1.2 0z"/><path stroke="green" stroke-width=".267" d="m264.9 68.9.7-7.9"/><path d="M277.8 57a.3.3 0 1 1-.6 0c0-.1.1-.3.3-.3l.3.3zm1 9.9c0 .3-.2.6-.6.6a.6.6 0 1 1 0-1.2c.4 0 .6.3.6.6z"/><path stroke="green" stroke-width=".267" d="m277.5 57 .7 9.9"/><path d="M272.9 27.3c0 .1-.1.3-.3.3a.3.3 0 0 1-.3-.3c0-.2.1-.3.3-.3.2 0 .3 0 .3.3zm10.7-9.8a.6.6 0 1 1-1.2 0 .6.6 0 0 1 1.2 0z"/><path stroke="green" stroke-width=".267" d="m272.6 27.3 10.4-9.8"/><path d="M272.9 27.3c0 .1-.1.3-.3.3a.3.3 0 0 1-.3-.3c0-.2.1-.3.3-.3.2 0 .3 0 .3.3zM290 50.1c0 .4-.2.6-.5.6a.6.6 0 0 1-.6-.6.6.6 0 1 1 1.2 0z"/><path stroke="green" stroke-width=".267" d="M272.6 27.3 289.5 50"/><path d="M300.7 28.1c0 .2-.2.3-.3.3a.3.3 0 0 1-.3-.3c0-.1.1-.2.3-.2.1 0 .3 0 .3.2zm2.4 14.5a.6.6 0 1 1-1.2 0c0-.3.3-.6.6-.6s.6.3.6.6z"/><path stroke="green" stroke-width=".267" d="m300.4 28.1 2.1 14.5"/><path d="M300.7 28.1c0 .2-.2.3-.3.3a.3.3 0 0 1-.3-.3c0-.1.1-.2.3-.2.1 0 .3 0 .3.2zm2.4-10.5a.6.6 0 1 1-1.2 0c0-.4.3-.6.6-.6s.6.2.6.6z"/><path stroke="green" stroke-width=".267" d="m300.4 28.1 2.1-10.5"/><path stroke="#00f" stroke-width=".267" d="m3.7 40.7 12.4 7.7M8 40l8.1 8.4m-13-.4 13 .4M2.4 56.1 16 48.4M8 40l10.2-13.2m0 0L27.6 40m-11.5 8.4L27.6 40M16.7 14.7 28 21.3m-9.8 5.5 9.8-5.5M16.1 48.4l11.9-27m-11.9 27 12.2 3.8M28 21.3l12.6 2M28.3 52.2l13.8 4M28 21.3l13.3 18.4m-13.7.3 13.7-.3m-13 12.5 13-12.5m0 0 8.3 8.7M42 56.1l7.6-7.7m-3.8 8.5 3.8-8.5m0 0L49 62.5m-8.4-39.2 9.8 1.2m-9.1 15.2 9-15.2M42 56.1l8.4-31.6m-4.6 32.4 4.6-32.4m-1.5 38 1.5-38m-9.1 15.2 14 9.5M42 56.1l13.3-7m-9.5 7.8 9.5-7.7m-6.4 13.3 6.4-13.3m-4.9-24.7L60.9 40m-11.3 8.4L61 40m-5.7 9.2 5.6-9.2m0 0L60 58.7m-11.1 3.8L60 58.7m-9.6-34.2 11.2-4.2m-6.3 28.9 6.3-28.9m-1.5 38.4 1.5-38.4m-6.3 28.9 13 7m-8.2 2.5 8.2-2.6m-6.7-35.8 8.2 12M60.9 40l8.9-7.7m-8.2-12 7.4 24M60.9 40l8.1 4.2m-13.7 5 13.7-5m-8.9 14.5 9-14.5m.7-11.9 6.6 23M69 44.2l7.4 11m-8.1.9 8.1-.8m-6.6-23 17.6 7.1M69 44.2l18.4-4.8m0 0-.4 8.2m-10.6 7.7L87 47.6M75.9 8.4l11.2 12m-10.5-4.1 10.5 4M87 47.6l.1-27.2m.3 19 .3 20.3m-11.3-4.4 11.3 4.4m-.6-39.3 11.3-2.6m-11 21.6 11-21.6M87 47.6l12 18.8m-11.3-6.7L99 66.4m-11.6-27 16.8-8.1m-5.8-13.5L102 40m2.2-8.7-2.1 8.8m-14.7-.7 22-7.1m-7.4 7.8 7.5-7.8m-22.1 7.1 22.8 12.7m-8.2-12 8.2 12M99 66.4l11.2-14.3M134.4 76l-24.2-24m-6-20.7 14.2 8.8m-8.9-7.8 8.9 7.8M110.2 52l8.2-11.9m-14.2-8.8 13.4-6.5m-8.1 7.5 8.1-7.5M110.2 52l7.4-27.2M134.4 76l-6.1-12M116.4 9.5l13.4 19.3m-12.2-4 12.2 4m-11.4 11.3 11.4-11.3m4.6 47.2 9.6-19.7m0 0 13.2-.2m-13.2-35 12.4 7.7m-11.7 11.9 11.7-11.9M144 56.3l12.4-27.5m0 0L167 17.3m-10.6 11.5L173 48m-15.8 8.1 15.7-8.1m-16.5-19.2L166.8 62m-9.6-5.9 9.6 5.9m-10.4-33.2 11.3-19.4m5.2 38.6 3.2 8.1m-9.3 5.9 9.3-5.9m-3.2-8.1 5.2 18.4M166.8 62l11.3 4.4M134.4 76l43.7-9.6m-10.4-57L179 25.1m-12-7.8 12 7.8m-2.9 31 2.9-31m0 0 8.3-8m-11.2 39 12.8 5M178 66.4l11-5.4m-10-35.9 9.1 14M172.9 48l15.2-8.9m-12 17 12-17M178 66.4l10.1-27.3m-.8-21.9 8.6-7.9m-7.8 29.8L196 9.3m-8.7 7.9 8.3-.8m-7.5 22.7 7.5-22.7m-8.3.8H199m-10.9 21.9 10.9-22m-11.7.1L199.6 47m-11.5-7.9 11.5 7.9m-10.7 14 10.7-14m0 0 8.1-6.3M195.9 9.3 207 21.1m-11.4-4.7 11.5 4.7m-8.1-3.9 8.1 4M199.6 47l7.4-26m-7.4 26 9.8-4m-9.8 4 24.3-5.4M199.6 47l12.8 21.9M199.6 47l17 14.8m-9.5-40.7 9.3 11.7m-8.7 7.9 8.7-7.9m-7 10.2 7-10.2m7.6 8.8-7.6-8.8m-9.3-11.7 11.3-4m5.6 24.5L218.3 17m-11.2 4.1 12 14.4m-11.4 5.2 11.3-5.2m5 6.1-5-6.1m-11.3 5.2 26.8-6.5M224 41.6l10.5-7.4M224 41.6l-1 8.2m-6.4 12 6.4-12m-10.6 19.1 11.3-1.5m.3-25.8-.3 14.5M218.4 17l11.8 2.7m-13.8 13.1 13.8-13.1m4.3 14.5-4.3-14.5m4.3 14.5-2.4-8.9m2.4 8.9.3-8.1m-.3 8.1 5 25.4m-5-25.4 6.8 8.2m-11.1-22.7 12.8-6.2m-10.9 11.8L243 13.5M234.8 26l8.2-12.5m-8.5 20.7 8.5-20.7M234.8 26h11.9m-12.2 8.2 12.2-8.1M243 13.5l7.7 40.1m-4-27.6 4 27.6m-9.4-11.2 9.4 11.2m-11.3 6 11.3-6M243 13.5l12 4.3m-8.3 8.2 8.3-8.2m-12-4.3 11.2-5.6M246.7 26l7.5-18M243 13.5l12.7 10.9m-9 1.6 9-1.6m-21.2 9.8 21.2-9.8m-5 29.2 5-29.2m-9 1.6 25.9 1.3m-38.1 6.9 38-7m-21.8 26.4 21.9-26.3m-7 33.7 11.9-4m-12.6 11.9L277.5 57m-11.9 4 12.6 5.9m-13.3 2 13.3-2m-.7-9.9 12-6.9m-11.3 16.8L289.5 50m-16.9-22.7 27.8.8m-10.9 22 10.9-22m-10.9 22 13-7.5m-13 7.5 13-32.5"/><text style="-inkscape-font-specification:Arial" font-family="Arial" font-size="8.8" font-weight="400" transform="matrix(1.33333 0 0 1.33282 132.5 87.5)"><tspan x="0" y="0">a</tspan></text><text style="-inkscape-font-specification:Arial" font-family="Arial" font-size="10" font-weight="400" transform="matrix(1.33333 0 0 1.19008 268 23.6)"><tspan x="0" y="0">b</tspan></text><text style="-inkscape-font-specification:Arial" font-family="Arial" font-size="10.1" font-weight="400" transform="matrix(1.33333 0 0 1.23125 292 58)"><tspan x="0" y="0">c</tspan></text></svg>