<svg xmlns="http://www.w3.org/2000/svg" width="149.8" height="57.6">
  <path d="M10.6 10.7v6.2M10.6 10.7v6.2" stroke="green" stroke-width=".133333"/>
  <path d="M10.6 29.7" stroke="#00f" stroke-width=".133333"/>
  <path d="M10.6 10.7v6.2M10.6 10.7v6.2" stroke="green" stroke-width=".133333"/>
  <path d="M10.6 10.7l7.6 1M10.6 10.7l7.6 1" stroke="#00f" stroke-width=".133333"/>
  <path d="M10.6 17l7.6-5.2M10.6 17l7.6-5.2M10.6 10.7l9 5.2M10.6 10.7l9 5.2M18.2 11.8l1.5 4" stroke="green" stroke-width=".133333"/>
  <path d="M10.6 17l9-1.1M10.6 17l9-1.1" stroke="#00f" stroke-width=".133333"/>
  <path d="M10.6 29.7l9.2 1" stroke="green" stroke-width=".133333"/>
  <path d="M10.7 29.7l9 1" stroke="#00f" stroke-width=".133333"/>
  <path d="M10.6 10.7l9 5.2M10.6 10.7l9 5.2M18.2 11.8l1.3 4" stroke="green" stroke-width=".133333"/>
  <path d="M19.7 15.9h-.2" stroke="#00f" stroke-width=".133333"/>
  <path d="M10.6 17l9-1.1M10.6 17l9-1.1M10.6 10.7l9 9.2M10.6 10.7l9 9.2M18.2 11.8l1.3 8.1M19.7 15.9l-.2 4M19.5 15.9v4M10.6 17l9 3M10.6 17l9 3M10.6 29.7l9-9.8M10.7 29.7l8.8-9.8M10.6 17l9 9.7M10.6 17l9 9.7M19.5 20v6.7M10.6 29.7l9-3M10.7 29.7l8.8-3M19.8 30.8l-.3-4.1M19.5 26.7v8.2M10.6 29.7l9 5.2M10.7 29.7l8.8 5.2M19.8 30.8l-.3 4M19.5 26.7v4M10.6 29.7l9 1M10.7 29.7l8.8 1" stroke="green" stroke-width=".133333"/>
  <path d="M19.8 30.8h-.3" stroke="#00f" stroke-width=".133333"/>
  <path d="M19.5 34.9v-4.1M10.6 10.7l9 1M10.6 10.7l9 1" stroke="green" stroke-width=".133333"/>
  <path d="M18.2 11.8h1.3" stroke="#00f" stroke-width=".133333"/>
  <path d="M19.7 15.9l-.2-4.1M19.5 15.9v-4.1M10.6 17l9-5.2M10.6 17l9-5.2M19.5 20v-8.2M10.6 17l11 9.7M10.6 17l11 9.7M19.5 20l2 6.7" stroke="green" stroke-width=".133333"/>
  <path d="M19.5 26.7h2" stroke="#00f" stroke-width=".133333"/>
  <path d="M10.6 29.7l11-3M10.7 29.7l10.9-3M19.8 30.8l1.8-4.1M19.5 30.8l2-4.1M19.5 34.9l2-8.2M10.6 10.7l11 9.2M10.6 10.7l11 9.2M18.2 11.8l3.4 8.1M19.5 11.8l2 8.1M19.7 15.9l1.9 4M19.5 15.9l2 4M10.6 17l11 3M10.6 17l11 3" stroke="green" stroke-width=".133333"/>
  <path d="M19.5 20h2" stroke="#00f" stroke-width=".133333"/>
  <path d="M19.5 26.7l2-6.8M21.6 26.7v-6.8M10.6 29.7l11-9.8M10.7 29.7L21.6 20M19.5 26.7l-.5 8.2M21.6 26.7L19 34.9M10.6 29.7L19 35M10.7 29.7L19 35M19.8 30.8l-.8 4M19.5 30.8l-.5 4" stroke="green" stroke-width=".133333"/>
  <path d="M19.5 34.9H19" stroke="#00f" stroke-width=".133333"/>
  <path d="M10.6 10.7l9 9.2M10.6 10.7l9 9.2M18.2 11.8l1.3 8.1M19.5 11.8v8.1M19.7 15.9l-.2 4M19.5 15.9v4M10.6 17l9 3M10.6 17l9 3" stroke="green" stroke-width=".133333"/>
  <path d="M21.6 20h-2" stroke="#00f" stroke-width=".133333"/>
  <path d="M19.5 26.7v-6.8M21.6 26.7l-2-6.8M10.6 29.7l9-9.8M10.7 29.7l8.8-9.8M10.6 10.7l9 1M10.6 10.7l9 1" stroke="green" stroke-width=".133333"/>
  <path d="M18.2 11.8h1.3" stroke="#00f" stroke-width=".133333"/>
  <path d="M19.7 15.9l-.2-4.1M19.5 15.9v-4.1M10.6 17l9-5.2M10.6 17l9-5.2M19.5 20v-8.2M21.6 20l-2-8.2M19.5 20v-8.2M10.6 10.7l9 5.2M10.6 10.7l9 5.2M18.2 11.8l1.3 4M19.5 11.8v4M19.5 11.8v4" stroke="green" stroke-width=".133333"/>
  <path d="M19.7 15.9h-.2" stroke="#00f" stroke-width=".133333"/>
  <path d="M10.6 17l9-1.1M10.6 17l9-1.1M19.5 20v-4.1M21.6 20l-2-4.1M19.5 20v-4.1M19.5 26.7v8.2M21.6 26.7l-2 8.2M10.6 29.7l9 5.2M10.7 29.7l8.8 5.2M19.8 30.8l-.3 4M19.5 30.8v4" stroke="green" stroke-width=".133333"/>
  <path d="M19 34.9h.5" stroke="#00f" stroke-width=".133333"/>
  <path d="M19.5 26.7v4M21.6 26.7l-2 4M10.6 29.7l9 1M10.7 29.7l8.8 1" stroke="green" stroke-width=".133333"/>
  <path d="M19.8 30.8h-.3" stroke="#00f" stroke-width=".133333"/>
  <path d="M19.5 34.9v-4.1M19 34.9l.5-4.1M19.5 34.9v-4.1M10.6 17l9 9.7M10.6 17l9 9.7M19.5 20v6.7M21.6 20l-2 6.7M19.5 20v6.7" stroke="green" stroke-width=".133333"/>
  <path d="M21.6 26.7h-2" stroke="#00f" stroke-width=".133333"/>
  <path d="M10.6 29.7l9-3M10.7 29.7l8.8-3M19.8 30.8l-.3-4.1M19.5 30.8v-4.1M19.5 30.8v-4.1M19.5 34.9v-8.2M19 34.9l.5-8.2M19.5 34.9v-8.2M19.5 34.9l1.5 9M19 34.9l2 9M19.5 34.9l1.5 9M19.5 34.9l1.5 9M19 34.9l2 9M19.5 34.9l1.5 9M19.5 26.7l4.3 13.2M21.6 26.7l2.2 13.2M19.5 26.7l4.3 13.2M19.8 30.8l4 9.1M19.5 30.8l4.3 9.1M19.5 30.8l4.3 9.1" stroke="green" stroke-width=".133333"/>
  <path d="M19.5 34.9l4.3 5M19 34.9l4.8 5" stroke="#00f" stroke-width=".133333"/>
  <path d="M19.5 34.9l4.3 5M21 43.9l2.8-4" stroke="green" stroke-width=".133333"/>
  <path d="M21 43.9l2.8-4" stroke="#00f" stroke-width=".133333"/>
  <path d="M19.5 26.7L23 37.9M21.6 26.7L23 37.9M19.5 26.7L23 37.9M19.8 30.8l3.2 7.1M19.5 30.8l3.5 7.1M19.5 30.8l3.5 7.1" stroke="green" stroke-width=".133333"/>
  <path d="M19.5 34.9l3.5 3M19 34.9l4 3" stroke="#00f" stroke-width=".133333"/>
  <path d="M19.5 34.9l3.5 3M21 43.9l2-6" stroke="green" stroke-width=".133333"/>
  <path d="M23.8 40l-.8-2M21 43.9l2-6" stroke="#00f" stroke-width=".133333"/>
  <path d="M23 38l9.8 7M21 43.9L32.8 45" stroke="green" stroke-width=".133333"/>
  <path d="M23.8 40l9 5" stroke="#00f" stroke-width=".133333"/>
  <path d="M21 43.9L32.8 45M18.2 11.8h9.5M19.5 11.8h8.2M19.5 11.8h8.2" stroke="green" stroke-width=".133333"/>
  <path d="M19.7 15.9l8-4" stroke="#00f" stroke-width=".133333"/>
  <path d="M19.5 15.9l8.2-4M19.5 15.9l8.2-4M19.5 20l8.2-8.2M21.6 20l6.1-8.2M19.5 20l8.2-8.2M19.5 26.7l8.2 7.8M21.6 26.7l6.1 7.8M19.5 26.7l8.2 7.8" stroke="green" stroke-width=".133333"/>
  <path d="M19.8 30.8l8 3.7" stroke="#00f" stroke-width=".133333"/>
  <path d="M19.5 30.8l8.2 3.7M19.5 30.8l8.2 3.7M19.5 34.9l8.2-.4M19 34.9l8.7-.4M19.5 34.9l8.2-.4M23 38l4.7-3.5M21 43.9l6.7-9.4M23.8 40l4-5.5M32.8 45l-5-10.5M21 43.9l6.7-9.4M18.2 11.8l11.3 11.5M19.5 11.8l10 11.5M19.5 11.8l10 11.5M19.7 15.9l9.8 7.4M19.5 15.9l10 7.4M19.5 15.9l10 7.4M27.7 11.8l1.8 11.5M19.5 20l10 3.3" stroke="green" stroke-width=".133333"/>
  <path d="M21.6 20l7.9 3.3" stroke="#00f" stroke-width=".133333"/>
  <path d="M19.5 20l10 3.3M19.5 26.7l10-3.4" stroke="green" stroke-width=".133333"/>
  <path d="M21.6 26.7l7.9-3.4" stroke="#00f" stroke-width=".133333"/>
  <path d="M19.5 26.7l10-3.4M19.8 30.8l9.7-7.5M19.5 30.8l10-7.5M19.5 30.8l10-7.5M19.5 34.9l10-11.6M19 34.9l10.5-11.6M19.5 34.9l10-11.6M27.7 34.5l1.8-11.2M23 38l6.5-14.7M23.8 40l5.7-16.7M19.7 15.9l10.5 6.3M19.5 15.9l10.7 6.3M19.5 15.9l10.7 6.3M27.7 11.8l2.5 10.4M19.5 20l10.7 2.2M21.6 20l8.6 2.2M19.5 20l10.7 2.2M19.5 26.7l10.7-4.5M21.6 26.7l8.6-4.5M19.5 26.7l10.7-4.5" stroke="green" stroke-width=".133333"/>
  <path d="M29.5 23.3l.7-1.1" stroke="#00f" stroke-width=".133333"/>
  <path d="M19.8 30.8l10.4-8.6M19.5 30.8l10.7-8.6M19.5 30.8l10.7-8.6M27.7 34.5l2.5-12.3M18.2 11.8l16.5-4M19.5 11.8l15.2-4M19.5 11.8l15.2-4M19.7 15.9l15-8.1M19.5 15.9l15.2-8.1M19.5 15.9l15.2-8.1" stroke="green" stroke-width=".133333"/>
  <path d="M27.7 11.8l7-4" stroke="#00f" stroke-width=".133333"/>
  <path d="M19.8 30.8l15 7.5M19.5 30.8l15.2 7.5M19.5 30.8l15.2 7.5M19.5 34.9l15.2 3.4M19 34.9l15.7 3.4M19.5 34.9l15.2 3.4" stroke="green" stroke-width=".133333"/>
  <path d="M27.7 34.5l7 3.8" stroke="#00f" stroke-width=".133333"/>
  <path d="M23 38l11.7.3M21 43.9l13.7-5.6M23.8 40l11-1.7M32.8 45l2-6.7M21 43.9l13.7-5.6M34.7 7.8l-3 15.2M18.2 11.8L31.6 23M19.5 11.8L31.6 23M19.7 15.9l12 7.1M19.5 15.9L31.6 23M27.7 11.8l4 11.2M19.5 20l12.1 3M21.6 20l10 3" stroke="green" stroke-width=".133333"/>
  <path d="M30.2 22.2l1.4.8" stroke="#00f" stroke-width=".133333"/>
  <path d="M19.5 26.7L31.6 23M21.6 26.7l10-3.7" stroke="green" stroke-width=".133333"/>
  <path d="M29.5 23.3l2.1-.3" stroke="#00f" stroke-width=".133333"/>
  <path d="M19.8 30.8L31.6 23M19.5 30.8L31.6 23M19.5 34.9L31.6 23M27.7 34.5l4-11.5M34.7 38.3l-3-15.3M23.8 40l7.8-17" stroke="green" stroke-width=".133333"/>
  <path d="M34.7 7.8h1.5" stroke="#00f" stroke-width=".133333"/>
  <path d="M19.7 15.9l16.5-8.1M27.7 11.8l8.5-4M31.6 23l4.6-15.2M27.7 34.5L36.2 45M34.7 38.3l1.5 6.7M23.8 40l12.4 5" stroke="green" stroke-width=".133333"/>
  <path d="M32.8 45h3.4" stroke="#00f" stroke-width=".133333"/>
  <path d="M19.8 30.8l16.4 7.5M31.6 23l4.6 15.3M27.7 34.5l8.5 3.8" stroke="green" stroke-width=".133333"/>
  <path d="M34.7 38.3h1.5" stroke="#00f" stroke-width=".133333"/>
  <path d="M23.8 40l12.4-1.7M32.8 45l3.4-6.7M36.2 45v-6.7M30.2 22.2l6 9.3M21.6 26.7l14.6 4.8M29.5 23.3l6.7 8.2M19.8 30.8l16.4.7" stroke="green" stroke-width=".133333"/>
  <path d="M31.6 23l4.6 8.5" stroke="#00f" stroke-width=".133333"/>
  <path d="M27.7 34.5l8.5-3M34.7 38.3l1.5-6.8M36.2 38.3v-6.8M23.8 40l12.4-8.5M34.7 7.8l1.5 6.7M36.2 7.8v6.7M19.7 15.9l16.5-1.4M27.7 11.8l8.5 2.7M21.6 20l14.6-5.5M30.2 22.2l6-7.7M29.5 23.3l6.7-8.8" stroke="green" stroke-width=".133333"/>
  <path d="M31.6 23l4.6-8.5" stroke="#00f" stroke-width=".133333"/>
  <path d="M34.7 7.8l2 6.7M36.2 7.8l.5 6.7" stroke="green" stroke-width=".133333"/>
  <path d="M36.2 14.5h.5" stroke="#00f" stroke-width=".133333"/>
  <path d="M19.7 15.9l17-1.4M27.7 11.8l9 2.7M21.6 20l15-5.5M30.2 22.2l6.5-7.7M29.5 23.3l7.2-8.8" stroke="green" stroke-width=".133333"/>
  <path d="M31.6 23l5-8.5" stroke="#00f" stroke-width=".133333"/>
  <path d="M30.2 22.2l6.5 9.3M21.6 26.7l15 4.8M29.5 23.3l7.2 8.2M19.8 30.8l16.9.7" stroke="green" stroke-width=".133333"/>
  <path d="M31.6 23l5 8.5M36.2 31.5h.5" stroke="#00f" stroke-width=".133333"/>
  <path d="M27.7 34.5l9-3M34.7 38.3l2-6.8M36.2 38.3l.5-6.8" stroke="green" stroke-width=".133333"/>
  <path d="M34.7 7.8h1.5M36.2 7.8" stroke="#00f" stroke-width=".133333"/>
  <path d="M36.2 14.5V7.8M36.7 14.5l-.5-6.7M19.7 15.9l16.5-8.1M27.7 11.8l8.5-4M31.6 23l4.6-15.2M34.7 7.8l1.5 6.7M36.2 7.8v6.7M36.2 7.8v6.7" stroke="green" stroke-width=".133333"/>
  <path d="M36.7 14.5h-.5" stroke="#00f" stroke-width=".133333"/>
  <path d="M19.7 15.9l16.5-1.4M27.7 11.8l8.5 2.7M21.6 20l14.6-5.5M30.2 22.2l6-7.7M29.5 23.3l6.7-8.8M31.6 23l4.6-8.5M30.2 22.2l6 9.3M21.6 26.7l14.6 4.8M29.5 23.3l6.7 8.2M19.8 30.8l16.4.7M31.6 23l4.6 8.5" stroke="green" stroke-width=".133333"/>
  <path d="M36.7 31.5h-.5" stroke="#00f" stroke-width=".133333"/>
  <path d="M27.7 34.5l8.5-3M34.7 38.3l1.5-6.8M36.2 38.3v-6.8M27.7 34.5L36.2 45M34.7 38.3l1.5 6.7M36.2 38.3V45" stroke="green" stroke-width=".133333"/>
  <path d="M32.8 45h3.4M36.2 45" stroke="#00f" stroke-width=".133333"/>
  <path d="M19.8 30.8l16.4 7.5M31.6 23l4.6 15.3M36.2 31.5v6.8M36.7 31.5l-.5 6.8M36.2 31.5v6.8M27.7 34.5l8.5 3.8" stroke="green" stroke-width=".133333"/>
  <path d="M34.7 38.3h1.5M36.2 38.3" stroke="#00f" stroke-width=".133333"/>
  <path d="M32.8 45l3.4-6.7M36.2 45v-6.7M36.2 45v-6.7M34.7 7.8l13.4 6.7M36.2 7.8L48 14.5M36.2 7.8L48 14.5M36.2 14.5H48M36.7 14.5H48M36.2 14.5H48M48 14.5l5.7-4.2" stroke="green" stroke-width=".133333"/>
  <path d="M53.7 10.3l-1.1 1.8M48 14.5l4.6-2.4" stroke="#00f" stroke-width=".133333"/>
  <path d="M48 14.5l11.6 8.7M52.6 12.1l7 11.1M59.6 23.2v6.4M59.6 23.2l5-8.5M59.6 29.6l5 8.6M64.6 14.7l-.3 8.5" stroke="green" stroke-width=".133333"/>
  <path d="M59.6 23.2h4.7" stroke="#00f" stroke-width=".133333"/>
  <path d="M59.6 29.6l4.7-6.4M59.6 23.2l4.7 6.4M64.3 23.2v6.4" stroke="green" stroke-width=".133333"/>
  <path d="M59.6 29.6h4.7" stroke="#00f" stroke-width=".133333"/>
  <path d="M64.6 38.2l-.3-8.6" stroke="green" stroke-width=".133333"/>
  <path d="M64.6 14.7l1 4.6" stroke="#00f" stroke-width=".133333"/>
  <path d="M59.6 23.2l6-3.9" stroke="green" stroke-width=".133333"/>
  <path d="M64.3 23.2l1.3-3.9" stroke="#00f" stroke-width=".133333"/>
  <path d="M59.6 29.6l6-10.3M64.3 29.6l1.3-10.3M65.6 19.3v14.2M59.6 23.2l6 10.3M64.3 23.2l1.3 10.3M59.6 29.6l6 4" stroke="green" stroke-width=".133333"/>
  <path d="M64.3 29.6l1.3 4M64.6 38.2l1-4.7" stroke="#00f" stroke-width=".133333"/>
  <path d="M64.6 14.7l1.4 9.1" stroke="green" stroke-width=".133333"/>
  <path d="M65.6 19.3l.4 4.5" stroke="#00f" stroke-width=".133333"/>
  <path d="M59.6 23.2l6.4.6" stroke="green" stroke-width=".133333"/>
  <path d="M64.3 23.2l1.7.6" stroke="#00f" stroke-width=".133333"/>
  <path d="M59.6 29.6l6.4-5.8M64.3 29.6l1.7-5.8M65.6 33.5l.4-9.7M65.6 19.3L66 29M59.6 23.2L66 29M64.3 23.2L66 29M66 23.8V29M59.6 29.6L66 29" stroke="green" stroke-width=".133333"/>
  <path d="M64.3 29.6L66 29M65.6 33.5L66 29" stroke="#00f" stroke-width=".133333"/>
  <path d="M64.6 38.2L66 29M64.6 14.7l6.3 9.7M65.6 19.3l5.3 5.1M59.6 23.2l11.3 1.2M64.3 23.2l6.6 1.2" stroke="green" stroke-width=".133333"/>
  <path d="M66 23.8l4.9.6" stroke="#00f" stroke-width=".133333"/>
  <path d="M59.6 29.6l11.3-5.2M64.3 29.6l6.6-5.2M66 29l4.9-4.6M65.6 33.5l5.3-9M65.6 19.3l5.3 9.1M59.6 23.2l11.3 5.2M64.3 23.2l6.6 5.2M66 23.8l4.9 4.6M70.9 24.4v4M59.6 29.6l11.3-1.2M64.3 29.6l6.6-1.2" stroke="green" stroke-width=".133333"/>
  <path d="M66 29l4.9-.6" stroke="#00f" stroke-width=".133333"/>
  <path d="M65.6 33.5l5.3-5M64.6 38.2l6.3-9.8M64.6 38.2L81.8 47M65.6 33.5l16.2 7M64.6 38.2l17.2 2.4M81.8 47v-6.4M64.6 14.7l17.2-8.8M81.8 5.9v6.4M64.6 14.7l17.2-2.4M65.6 19.3l16.2-7" stroke="green" stroke-width=".133333"/>
  <path d="M70.9 24.4l4.9-.6" stroke="#00f" stroke-width=".133333"/>
  <path d="M70.9 28.4l4.9-4.6M70.9 24.4l4.9 4.6M75.8 23.8V29" stroke="green" stroke-width=".133333"/>
  <path d="M70.9 28.4l4.9.6" stroke="#00f" stroke-width=".133333"/>
  <path d="M70.9 24.4l8.6 5.2M75.8 23.8l3.7 5.8M70.9 28.4l8.6 1.2" stroke="green" stroke-width=".133333"/>
  <path d="M75.8 29l3.7.6" stroke="#00f" stroke-width=".133333"/>
  <path d="M70.9 24.4l8.6-1.2" stroke="green" stroke-width=".133333"/>
  <path d="M75.8 23.8l3.7-.6" stroke="#00f" stroke-width=".133333"/>
  <path d="M70.9 28.4l8.6-5.2M75.8 29l3.7-5.8M79.5 29.6v-6.4M81.8 5.9l13 6.8" stroke="green" stroke-width=".133333"/>
  <path d="M81.8 12.3l13 .4M81.8 5.9l12 3.6M81.8 12.3l12-2.8M94.8 12.7l-1-3.2M81.8 40.6l12 2.7M81.8 47l12-3.7M81.8 40.6l13-.4" stroke="#00f" stroke-width=".133333"/>
  <path d="M81.8 47l13-6.8" stroke="green" stroke-width=".133333"/>
  <path d="M93.8 43.3l1-3" stroke="#00f" stroke-width=".133333"/>
  <path d="M81.8 5.9l24.1 7.2" stroke="green" stroke-width=".133333"/>
  <path d="M81.8 12.3l24.1.8M93.8 9.5l12.1 3.6M94.8 12.7l11.1.4M81.8 40.6l24.1-.8M94.9 40.2l11-.4" stroke="#00f" stroke-width=".133333"/>
  <path d="M81.8 47l24.1-7.2" stroke="green" stroke-width=".133333"/>
  <path d="M93.8 43.3l12.1-3.5" stroke="#00f" stroke-width=".133333"/>
  <path d="M81.8 5.9l17.6.9M81.8 12.3l17.6-5.5M106 13l-6.6-6.2M93.8 9.5l5.6-2.7M94.8 12.7l4.6-6M81.8 12.3l17.6 7.1M106 13l-6.6 6.4M93.8 9.5l5.6 10M94.8 12.7l4.6 6.7M106 39.8l-6.6 6.3M81.8 40.6L99.4 46M94.9 40.2l4.5 5.9M81.8 47l17.6-1M93.8 43.3l5.6 2.8M106 39.8l-6.6-6M81.8 40.6l17.6-6.8M94.9 40.2l4.5-6.4M93.8 43.3l5.6-9.5M106 39.8l-.2 7.2M81.8 40.6l24 6.4M94.9 40.2l10.9 6.8M81.8 47h24M93.8 43.3l12 3.7" stroke="green" stroke-width=".133333"/>
  <path d="M99.4 46l6.4 1" stroke="#00f" stroke-width=".133333"/>
  <path d="M81.8 12.3l24 8M106 13l-.2 7.3M93.8 9.5l12 10.8M94.8 12.7l11 7.6" stroke="green" stroke-width=".133333"/>
  <path d="M99.4 19.4l6.4.9M99.4 33.8l6.4-.9" stroke="#00f" stroke-width=".133333"/>
  <path d="M106 39.8l-.2-6.9M81.8 40.6l24-7.7M94.9 40.2l10.9-7.3M93.8 43.3l12-10.4M81.8 5.9H106" stroke="green" stroke-width=".133333"/>
  <path d="M99.4 6.8l6.6-.9" stroke="#00f" stroke-width=".133333"/>
  <path d="M81.8 12.3L106 5.9M106 13V6M93.8 9.5L106 6M94.8 12.7L106 5.9M106 5.9l11.3 7.2" stroke="green" stroke-width=".133333"/>
  <path d="M106 13l11.3.1" stroke="#00f" stroke-width=".133333"/>
  <path d="M105.8 20.3l11.5-7.2M105.8 33l11.5 7" stroke="green" stroke-width=".133333"/>
  <path d="M106 39.8l11.3.1" stroke="#00f" stroke-width=".133333"/>
  <path d="M105.8 47l11.5-7M106 5.9h23.6M106 13L129.5 6" stroke="green" stroke-width=".133333"/>
  <path d="M117.3 13.1l12.3-7.2" stroke="#00f" stroke-width=".133333"/>
  <path d="M105.8 33h23.8M106 39.8l23.6-6.9" stroke="green" stroke-width=".133333"/>
  <path d="M117.3 40l12.3-7" stroke="#00f" stroke-width=".133333"/>
  <path d="M106 13l23.6 7.3M105.8 20.3h23.8" stroke="green" stroke-width=".133333"/>
  <path d="M117.3 13.1l12.3 7.2" stroke="#00f" stroke-width=".133333"/>
  <path d="M106 39.8l23.6 7.2M105.8 47h23.8" stroke="green" stroke-width=".133333"/>
  <path d="M117.3 40l12.3 7" stroke="#00f" stroke-width=".133333"/>
  <path d="M8.7 8.8h3.7v3.8H8.7z" fill="#00f" fill-opacity=".3"/>
  <path d="M8.7 8.8h3.7v3.8H8.7z" fill="none" stroke="#000" stroke-width=".133333"/>
  <path d="M8.7 8.8h3.7v3.8H8.7z" fill="#00f" fill-opacity=".3"/>
  <path d="M8.7 8.8h3.7v3.8H8.7z" fill="none" stroke="#000" stroke-width=".133333"/>
  <path d="M8.7 27.9h3.8v3.7H8.7z" fill="#00f" fill-opacity=".3"/>
  <path d="M8.7 27.9h3.8v3.7H8.7z" fill="none" stroke="#000" stroke-width=".133333"/>
  <path d="M8.7 27.9h3.9v3.7H8.7z" fill="#00f" fill-opacity=".3"/>
  <path d="M8.7 27.9h3.9v3.7H8.7z" fill="none" stroke="#000" stroke-width=".133333"/>
  <path d="M12.4 11h11.7v1.6H12.4z" fill="#00f" fill-opacity=".3"/>
  <path d="M12.4 11h11.7v1.6H12.4z" fill="none" stroke="#000" stroke-width=".133333"/>
  <path d="M15 19.1h9v1.6h-9z" fill="#00f" fill-opacity=".3"/>
  <path d="M15 19.1h9v1.6h-9z" fill="none" stroke="#000" stroke-width=".133333"/>
  <path d="M15 34h9v1.7h-9z" fill="#00f" fill-opacity=".3"/>
  <path d="M15 34h9v1.7h-9z" fill="none" stroke="#000" stroke-width=".133333"/>
  <path d="M15 30h9v1.6h-9z" fill="#00f" fill-opacity=".3"/>
  <path d="M15 30h9v1.6h-9z" fill="none" stroke="#000" stroke-width=".133333"/>
  <path d="M15 19.1h13.2v1.6H15z" fill="#00f" fill-opacity=".3"/>
  <path d="M15 19.1h13.2v1.6H15z" fill="none" stroke="#000" stroke-width=".133333"/>
  <path d="M15 34h8v1.7h-8z" fill="#00f" fill-opacity=".3"/>
  <path d="M15 34h8v1.7h-8z" fill="none" stroke="#000" stroke-width=".133333"/>
  <path d="M17 19.1H22v1.6H17z" fill="#00f" fill-opacity=".3"/>
  <path d="M17 19.1H22v1.6H17z" fill="none" stroke="#000" stroke-width=".133333"/>
  <path d="M17 34H22v1.7H17z" fill="#00f" fill-opacity=".3"/>
  <path d="M17 34H22v1.7H17z" fill="none" stroke="#000" stroke-width=".133333"/>
  <path d="M23 34h1.6v11.8H23z" fill="#00f" fill-opacity=".3"/>
  <path d="M23 34h1.6v11.8H23z" fill="none" stroke="#000" stroke-width=".133333"/>
  <path d="M27 30h1.5v9H27z" fill="#00f" fill-opacity=".3"/>
  <path d="M27 30h1.5v9H27z" fill="none" stroke="#000" stroke-width=".133333"/>
  <path d="M28.2 19.1h2.6v8.4h-2.6z" fill="#00f" fill-opacity=".3"/>
  <path d="M28.2 19.1h2.6v8.4h-2.6z" fill="none" stroke="#000" stroke-width=".133333"/>
  <path d="M28.3 20.3h3.8V24h-3.8z" fill="#00f" fill-opacity=".3"/>
  <path d="M28.3 20.3h3.8V24h-3.8z" fill="none" stroke="#000" stroke-width=".133333"/>
  <path d="M28.5 7H41v1.6H28.5z" fill="#00f" fill-opacity=".3"/>
  <path d="M28.5 7H41v1.6H28.5z" fill="none" stroke="#000" stroke-width=".133333"/>
  <path d="M28.5 37.5H41V39H28.5z" fill="#00f" fill-opacity=".3"/>
  <path d="M28.5 37.5H41V39H28.5z" fill="none" stroke="#000" stroke-width=".133333"/>
  <path d="M31.4 7H41v1.6h-9.6z" fill="#00f" fill-opacity=".3"/>
  <path d="M31.4 7H41v1.6h-9.6z" fill="none" stroke="#000" stroke-width=".133333"/>
  <path d="M31.4 37.5H41V39h-9.6z" fill="#00f" fill-opacity=".3"/>
  <path d="M31.4 37.5H41V39h-9.6z" fill="none" stroke="#000" stroke-width=".133333"/>
  <path d="M33.4 7H39v1.6h-5.6z" fill="#00f" fill-opacity=".3"/>
  <path d="M33.4 7H39v1.6h-5.6z" fill="none" stroke="#000" stroke-width=".133333"/>
  <path d="M33.4 37.5H39V39h-5.6z" fill="#00f" fill-opacity=".3"/>
  <path d="M33.4 37.5H39V39h-5.6z" fill="none" stroke="#000" stroke-width=".133333"/>
  <path d="M43.3 13.7h9.6v1.6h-9.6z" fill="#00f" fill-opacity=".3"/>
  <path d="M43.3 13.7h9.6v1.6h-9.6z" fill="none" stroke="#000" stroke-width=".133333"/>
  <path d="M51.8 9h1.6v6.3h-1.6z" fill="#00f" fill-opacity=".3"/>
  <path d="M51.8 9h1.6v6.3h-1.6z" fill="none" stroke="#000" stroke-width=".133333"/>
  <path d="M54.8 28.8h9.6v1.6h-9.6z" fill="#00f" fill-opacity=".3"/>
  <path d="M54.8 28.8h9.6v1.6h-9.6z" fill="none" stroke="#000" stroke-width=".133333"/>
  <path d="M62.7 12.8h3.7v3.8h-3.7z" fill="#00f" fill-opacity=".3"/>
  <path d="M62.7 12.8h3.7v3.8h-3.7z" fill="none" stroke="#000" stroke-width=".133333"/>
  <path d="M63.4 28.8h1.8v1.6h-1.8z" fill="#00f" fill-opacity=".3"/>
  <path d="M63.4 28.8h1.8v1.6h-1.8z" fill="none" stroke="#000" stroke-width=".133333"/>
  <path d="M64.8 29h1.6v9h-1.6z" fill="#00f" fill-opacity=".3"/>
  <path d="M64.8 29h1.6v9h-1.6z" fill="none" stroke="#000" stroke-width=".133333"/>
  <path d="M65.2 27.6h1.6v2.8h-1.6z" fill="#00f" fill-opacity=".3"/>
  <path d="M65.2 27.6h1.6v2.8h-1.6z" fill="none" stroke="#000" stroke-width=".133333"/>
  <path d="M66.8 27.6H75v1.6h-8.2z" fill="#00f" fill-opacity=".3"/>
  <path d="M66.8 27.6H75v1.6h-8.2z" fill="none" stroke="#000" stroke-width=".133333"/>
  <path d="M69.6 46.2H94v1.6H69.6z" fill="#00f" fill-opacity=".3"/>
  <path d="M69.6 46.2H94v1.6H69.6z" fill="none" stroke="#000" stroke-width=".133333"/>
  <path d="M69.6 11.5H94v1.6H69.6z" fill="#00f" fill-opacity=".3"/>
  <path d="M69.6 11.5H94v1.6H69.6z" fill="none" stroke="#000" stroke-width=".133333"/>
  <path d="M75 27.6h1.6v2.8H75z" fill="#00f" fill-opacity=".3"/>
  <path d="M75 27.6h1.6v2.8H75z" fill="none" stroke="#000" stroke-width=".133333"/>
  <path d="M75.7 28.8h7.6v1.6h-7.6z" fill="#00f" fill-opacity=".3"/>
  <path d="M75.7 28.8h7.6v1.6h-7.6z" fill="none" stroke="#000" stroke-width=".133333"/>
  <path d="M93 10.8h3.7v3.8H93z" fill="#00f" fill-opacity=".3"/>
  <path d="M93 10.8h3.7v3.8H93z" fill="none" stroke="#000" stroke-width=".133333"/>
  <path d="M93 5.1h1.6v8.8H93z" fill="#00f" fill-opacity=".3"/>
  <path d="M93 5.1h1.6v8.8H93z" fill="none" stroke="#000" stroke-width=".133333"/>
  <path d="M93.8 12.3h24.3v1.6H93.8z" fill="#00f" fill-opacity=".3"/>
  <path d="M93.8 12.3h24.3v1.6H93.8z" fill="none" stroke="#000" stroke-width=".133333"/>
  <path d="M97.5 44.2h3.8V48h-3.8z" fill="#00f" fill-opacity=".3"/>
  <path d="M97.5 44.2h3.8V48h-3.8z" fill="none" stroke="#000" stroke-width=".133333"/>
  <path d="M97.5 32h3.8v3.7h-3.8z" fill="#00f" fill-opacity=".3"/>
  <path d="M97.5 32h3.8v3.7h-3.8z" fill="none" stroke="#000" stroke-width=".133333"/>
  <path d="M100.2 46.2h11v1.6h-11z" fill="#00f" fill-opacity=".3"/>
  <path d="M100.2 46.2h11v1.6h-11z" fill="none" stroke="#000" stroke-width=".133333"/>
  <path d="M100.2 32.1h11v1.6h-11z" fill="#00f" fill-opacity=".3"/>
  <path d="M100.2 32.1h11v1.6h-11z" fill="none" stroke="#000" stroke-width=".133333"/>
  <path d="M116.5 5.1h1.6v16h-1.6z" fill="#00f" fill-opacity=".3"/>
  <path d="M116.5 5.1h1.6v16h-1.6z" fill="none" stroke="#000" stroke-width=".133333"/>
  <path d="M117 32.1h25.2v1.6H117z" fill="#00f" fill-opacity=".3"/>
  <path d="M117 32.1h25.2v1.6H117z" fill="none" stroke="#000" stroke-width=".133333"/>
  <path d="M117 46.2h25.2v1.6H117z" fill="#00f" fill-opacity=".3"/>
  <path d="M117 46.2h25.2v1.6H117z" fill="none" stroke="#000" stroke-width=".133333"/>
  <path d="M8.7 15h3.8v3.8H8.7z" fill="#00f" fill-opacity=".3"/>
  <path d="M8.7 15h3.8v3.8H8.7z" fill="none" stroke="#000" stroke-width=".133333"/>
  <path d="M8.7 15h3.8v3.8H8.7z" fill="#00f" fill-opacity=".3"/>
  <path d="M8.7 15h3.8v3.8H8.7z" fill="none" stroke="#000" stroke-width=".133333"/>
  <path d="M12.5 15h14.4v1.7H12.5z" fill="#00f" fill-opacity=".3"/>
  <path d="M12.5 15h14.4v1.7H12.5z" fill="none" stroke="#000" stroke-width=".133333"/>
  <path d="M12.6 30h14.3v1.6H12.6z" fill="#00f" fill-opacity=".3"/>
  <path d="M12.6 30h14.3v1.6H12.6z" fill="none" stroke="#000" stroke-width=".133333"/>
  <path d="M15 15h9v1.7h-9z" fill="#00f" fill-opacity=".3"/>
  <path d="M15 15h9v1.7h-9z" fill="none" stroke="#000" stroke-width=".133333"/>
  <path d="M15 25.9h9v1.6h-9z" fill="#00f" fill-opacity=".3"/>
  <path d="M15 25.9h9v1.6h-9z" fill="none" stroke="#000" stroke-width=".133333"/>
  <path d="M15 11h9v1.6h-9z" fill="#00f" fill-opacity=".3"/>
  <path d="M15 11h9v1.6h-9z" fill="none" stroke="#000" stroke-width=".133333"/>
  <path d="M15 25.9h13.2v1.6H15z" fill="#00f" fill-opacity=".3"/>
  <path d="M15 25.9h13.2v1.6H15z" fill="none" stroke="#000" stroke-width=".133333"/>
  <path d="M17 11H22v1.6H17z" fill="#00f" fill-opacity=".3"/>
  <path d="M17 11H22v1.6H17z" fill="none" stroke="#000" stroke-width=".133333"/>
  <path d="M17 15H22v1.7H17z" fill="#00f" fill-opacity=".3"/>
  <path d="M17 15H22v1.7H17z" fill="none" stroke="#000" stroke-width=".133333"/>
  <path d="M17 30H22v1.6H17z" fill="#00f" fill-opacity=".3"/>
  <path d="M17 30H22v1.6H17z" fill="none" stroke="#000" stroke-width=".133333"/>
  <path d="M17 25.9H22v1.6H17z" fill="#00f" fill-opacity=".3"/>
  <path d="M17 25.9H22v1.6H17z" fill="none" stroke="#000" stroke-width=".133333"/>
  <path d="M19 41.8h4V46h-4z" fill="#00f" fill-opacity=".3"/>
  <path d="M19 41.8h4V46h-4z" fill="none" stroke="#000" stroke-width=".133333"/>
  <path d="M19 42h3.8v3.7h-3.7z" fill="#00f" fill-opacity=".3"/>
  <path d="M19 42h3.8v3.7h-3.7z" fill="none" stroke="#000" stroke-width=".133333"/>
  <path d="M24.6 44.2H41v1.6H24.6z" fill="#00f" fill-opacity=".3"/>
  <path d="M24.6 44.2H41v1.6H24.6z" fill="none" stroke="#000" stroke-width=".133333"/>
  <path d="M27 7h1.5v9.7H27z" fill="#00f" fill-opacity=".3"/>
  <path d="M27 7h1.5v9.7H27z" fill="none" stroke="#000" stroke-width=".133333"/>
  <path d="M30.8 13.7h1.6v18.6h-1.6z" fill="#00f" fill-opacity=".3"/>
  <path d="M30.8 13.7h1.6v18.6h-1.6z" fill="none" stroke="#000" stroke-width=".133333"/>
  <path d="M31.4 44.2H41v1.6h-9.6z" fill="#00f" fill-opacity=".3"/>
  <path d="M31.4 44.2H41v1.6h-9.6z" fill="none" stroke="#000" stroke-width=".133333"/>
  <path d="M31.4 30.7H41v1.6h-9.6z" fill="#00f" fill-opacity=".3"/>
  <path d="M31.4 30.7H41v1.6h-9.6z" fill="none" stroke="#000" stroke-width=".133333"/>
  <path d="M31.4 13.7H41v1.6h-9.6z" fill="#00f" fill-opacity=".3"/>
  <path d="M31.4 13.7H41v1.6h-9.6z" fill="none" stroke="#000" stroke-width=".133333"/>
  <path d="M32.4 13.7H41v1.6h-8.6z" fill="#00f" fill-opacity=".3"/>
  <path d="M32.4 13.7H41v1.6h-8.6z" fill="none" stroke="#000" stroke-width=".133333"/>
  <path d="M32.4 30.7H41v1.6h-8.6z" fill="#00f" fill-opacity=".3"/>
  <path d="M32.4 30.7H41v1.6h-8.6z" fill="none" stroke="#000" stroke-width=".133333"/>
  <path d="M33.4 13.7H39v1.6h-5.6z" fill="#00f" fill-opacity=".3"/>
  <path d="M33.4 13.7H39v1.6h-5.6z" fill="none" stroke="#000" stroke-width=".133333"/>
  <path d="M33.4 30.7H39v1.6h-5.6z" fill="#00f" fill-opacity=".3"/>
  <path d="M33.4 30.7H39v1.6h-5.6z" fill="none" stroke="#000" stroke-width=".133333"/>
  <path d="M33.4 44.2H39v1.6h-5.6z" fill="#00f" fill-opacity=".3"/>
  <path d="M33.4 44.2H39v1.6h-5.6z" fill="none" stroke="#000" stroke-width=".133333"/>
  <path d="M51.8 8.5h3.7v3.7h-3.7z" fill="#00f" fill-opacity=".3"/>
  <path d="M51.8 8.5h3.7v3.7h-3.7z" fill="none" stroke="#000" stroke-width=".133333"/>
  <path d="M54.8 22.4h9.6V24h-9.6z" fill="#00f" fill-opacity=".3"/>
  <path d="M54.8 22.4h9.6V24h-9.6z" fill="none" stroke="#000" stroke-width=".133333"/>
  <path d="M62.7 36.3h3.7V40h-3.7z" fill="#00f" fill-opacity=".3"/>
  <path d="M62.7 36.3h3.7V40h-3.7z" fill="none" stroke="#000" stroke-width=".133333"/>
  <path d="M63.4 22.4h1.8V24h-1.8z" fill="#00f" fill-opacity=".3"/>
  <path d="M63.4 22.4h1.8V24h-1.8z" fill="none" stroke="#000" stroke-width=".133333"/>
  <path d="M64.8 14.9h1.6v9h-1.6z" fill="#00f" fill-opacity=".3"/>
  <path d="M64.8 14.9h1.6v9h-1.6z" fill="none" stroke="#000" stroke-width=".133333"/>
  <path d="M65.2 22.4h1.6v2.8h-1.6z" fill="#00f" fill-opacity=".3"/>
  <path d="M65.2 22.4h1.6v2.8h-1.6z" fill="none" stroke="#000" stroke-width=".133333"/>
  <path d="M66.8 23.6H75v1.6h-8.2z" fill="#00f" fill-opacity=".3"/>
  <path d="M66.8 23.6H75v1.6h-8.2z" fill="none" stroke="#000" stroke-width=".133333"/>
  <path d="M69.6 39.8H94v1.6H69.6z" fill="#00f" fill-opacity=".3"/>
  <path d="M69.6 39.8H94v1.6H69.6z" fill="none" stroke="#000" stroke-width=".133333"/>
  <path d="M69.6 5.1H94v1.6H69.6z" fill="#00f" fill-opacity=".3"/>
  <path d="M69.6 5.1H94v1.6H69.6z" fill="none" stroke="#000" stroke-width=".133333"/>
  <path d="M75 22.4h1.6v2.8H75z" fill="#00f" fill-opacity=".3"/>
  <path d="M75 22.4h1.6v2.8H75z" fill="none" stroke="#000" stroke-width=".133333"/>
  <path d="M75.7 22.4h7.6V24h-7.6z" fill="#00f" fill-opacity=".3"/>
  <path d="M75.7 22.4h7.6V24h-7.6z" fill="none" stroke="#000" stroke-width=".133333"/>
  <path d="M93 39h1.6v8.8H93z" fill="#00f" fill-opacity=".3"/>
  <path d="M93 39h1.6v8.8H93z" fill="none" stroke="#000" stroke-width=".133333"/>
  <path d="M93 38.3h3.7v3.8H93z" fill="#00f" fill-opacity=".3"/>
  <path d="M93 38.3h3.7v3.8H93z" fill="none" stroke="#000" stroke-width=".133333"/>
  <path d="M93.8 39h24.3v1.6H93.8z" fill="#00f" fill-opacity=".3"/>
  <path d="M93.8 39h24.3v1.6H93.8z" fill="none" stroke="#000" stroke-width=".133333"/>
  <path d="M97.5 5h3.8v3.7h-3.8z" fill="#00f" fill-opacity=".3"/>
  <path d="M97.5 5h3.8v3.7h-3.8z" fill="none" stroke="#000" stroke-width=".133333"/>
  <path d="M97.5 17.5h3.8v3.8h-3.8z" fill="#00f" fill-opacity=".3"/>
  <path d="M97.5 17.5h3.8v3.8h-3.8z" fill="none" stroke="#000" stroke-width=".133333"/>
  <path d="M100.2 19.5h11v1.6h-11z" fill="#00f" fill-opacity=".3"/>
  <path d="M100.2 19.5h11v1.6h-11z" fill="none" stroke="#000" stroke-width=".133333"/>
  <path d="M100.5 5.1h11v1.6h-11z" fill="#00f" fill-opacity=".3"/>
  <path d="M100.5 5.1h11v1.6h-11z" fill="none" stroke="#000" stroke-width=".133333"/>
  <path d="M116.5 32.1h1.6v15.7h-1.6z" fill="#00f" fill-opacity=".3"/>
  <path d="M116.5 32.1h1.6v15.7h-1.6z" fill="none" stroke="#000" stroke-width=".133333"/>
  <path d="M117 5.1h25.2v1.6H117z" fill="#00f" fill-opacity=".3"/>
  <path d="M117 5.1h25.2v1.6H117z" fill="none" stroke="#000" stroke-width=".133333"/>
  <path d="M117 19.5h25.2v1.6H117z" fill="#00f" fill-opacity=".3"/>
  <path d="M117 19.5h25.2v1.6H117z" fill="none" stroke="#000" stroke-width=".133333"/>
  <path d="M37.3 10.7c0 .4-.3.7-.7.7-.4 0-.7-.3-.7-.7 0-.4.3-.7.7-.7.4 0 .7.3.7.7zM46.3 17.3c0 .4-.4.7-.8.7s-.7-.3-.7-.7c0-.4.3-.7.7-.7.4 0 .8.3.8.7zM55 18.4c0 .4-.4.7-.8.7s-.7-.3-.7-.7c0-.4.3-.7.7-.7.4 0 .8.3.8.7zM63.4 30.4c0 .4-.4.7-.8.7s-.7-.3-.7-.7c0-.4.3-.7.7-.7.4 0 .8.3.8.7zM50.2 28.5c0 .3-.3.6-.7.6-.4 0-.8-.3-.8-.6 0-.4.4-.7.8-.7s.7.3.7.7zM55 21.3c0 .4-.4.7-.8.7s-.7-.3-.7-.7c0-.4.3-.7.7-.7.4 0 .8.3.8.7zM63.2 35c0 .3-.3.6-.7.6-.4 0-.7-.3-.7-.6 0-.4.3-.7.7-.7.4 0 .7.3.7.7z" fill="#e83448" stroke="#000" stroke-width="0" transform="matrix(1.3094 0 0 1.33333 0 0)"/>
  <text transform="matrix(1.33333 0 0 1.32853 46.4 12.4)" style="-inkscape-font-specification:Arial" font-weight="400" font-size="3.8" font-family="Arial">
    <tspan x="0" y="0">a</tspan>
  </text>
  <text transform="matrix(1.33333 0 0 1.32853 58 20.8)" style="-inkscape-font-specification:Arial" font-weight="400" font-size="3.8" font-family="Arial">
    <tspan x="0" y="0">b</tspan>
  </text>
  <text transform="matrix(1.33333 0 0 1.32853 62.8 43.9)" style="-inkscape-font-specification:Arial" font-weight="400" font-size="3.8" font-family="Arial">
    <tspan x="0" y="0">d</tspan>
  </text>
  <text transform="matrix(1.33333 0 0 1.32853 80.5 38.5)" style="-inkscape-font-specification:Arial" font-weight="400" font-size="3.8" font-family="Arial">
    <tspan x="0" y="0">e</tspan>
  </text>
  <text transform="matrix(1.33333 0 0 1.32853 61.5 34.2)" style="-inkscape-font-specification:Arial" font-weight="400" font-size="3.8" font-family="Arial">
    <tspan x="0" y="0">c</tspan>
  </text>
  <path d="M50.8 25c0 .5-.3.8-.7.8-.4 0-.8-.3-.8-.7 0-.4.4-.7.8-.7s.7.3.7.7z" fill="#e83448" stroke="#000" stroke-width="0" transform="matrix(1.3094 0 0 1.33333 0 0)"/>
  <text transform="matrix(1.33333 0 0 1.32853 81.1 52.4)" style="-inkscape-font-specification:Arial" font-weight="400" font-size="3.8" font-family="Arial">
    <tspan x="0" y="0">f</tspan>
  </text>
  <text transform="matrix(1.33333 0 0 1.32853 71 21.8)" style="-inkscape-font-specification:Arial" font-weight="400" font-size="3.8" font-family="Arial">
    <tspan x="0" y="0">g</tspan>
  </text>
  <text transform="matrix(1.33333 0 0 1.32853 72 33.7)" style="-inkscape-font-specification:Arial" font-weight="400" font-size="3.8" font-family="Arial">
    <tspan x="0" y="0">h</tspan>
  </text>
</svg>
