<svg xmlns="http://www.w3.org/2000/svg" width="165" height="65.9"><path stroke="green" stroke-width=".1" d="M79.3 196.3v4.7M79.3 196.3v4.7" transform="matrix(1.64596 0 0 1.8487 -128.2 -354.9)"/><path stroke="#00f" stroke-width=".1" d="M79.4 210.6" transform="matrix(1.64596 0 0 1.8487 -128.2 -354.9)"/><path stroke="green" stroke-width=".1" d="M79.3 196.3v4.7M79.3 196.3v4.7" transform="matrix(1.64596 0 0 1.8487 -128.2 -354.9)"/><path stroke="#00f" stroke-width=".1" d="M79.3 196.3l5.8.8M79.3 196.3l5.8.8" transform="matrix(1.64596 0 0 1.8487 -128.2 -354.9)"/><path stroke="green" stroke-width=".1" d="M79.4 201l5.7-3.9M79.4 201l5.7-3.9M79.3 196.3l6.9 3.9M79.3 196.3l6.9 3.9M85.1 197.1l1 3.1" transform="matrix(1.64596 0 0 1.8487 -128.2 -354.9)"/><path stroke="#00f" stroke-width=".1" d="M79.4 201l6.8-.8M79.4 201l6.8-.8" transform="matrix(1.64596 0 0 1.8487 -128.2 -354.9)"/><path stroke="green" stroke-width=".1" d="M79.4 210.6l6.8.8" transform="matrix(1.64596 0 0 1.8487 -128.2 -354.9)"/><path stroke="#00f" stroke-width=".1" d="M79.4 210.6l6.8.8" transform="matrix(1.64596 0 0 1.8487 -128.2 -354.9)"/><path stroke="green" stroke-width=".1" d="M79.3 196.3l6.8 3.9M79.3 196.3l6.8 3.9M85.1 197.1l1 3.1" transform="matrix(1.64596 0 0 1.8487 -128.2 -354.9)"/><path stroke="#00f" stroke-width=".1" d="M86.2 200.2H86" transform="matrix(1.64596 0 0 1.8487 -128.2 -354.9)"/><path stroke="green" stroke-width=".1" d="M79.4 201l6.7-.8M79.4 201l6.7-.8M79.3 196.3l6.8 7M79.3 196.3l6.8 7M85.1 197.1l1 6.2M86.2 200.2l-.1 3M86 200.2v3M79.4 201l6.7 2.3M79.4 201l6.7 2.3M79.4 210.6l6.7-7.3M79.4 210.6l6.7-7.3M79.4 201l6.7 7.3M79.4 201l6.7 7.3M86 203.3v5M79.4 210.6l6.7-2.3M79.4 210.6l6.7-2.3M86.2 211.4l-.1-3M86 208.3v6.2M79.4 210.6l6.7 3.9M79.4 210.6l6.7 3.9M86.2 211.4l-.1 3M86 208.3v3.1M79.4 210.6l6.7.8M79.4 210.6l6.7.8" transform="matrix(1.64596 0 0 1.8487 -128.2 -354.9)"/><path stroke="#00f" stroke-width=".1" d="M86.2 211.4h-.1" transform="matrix(1.64596 0 0 1.8487 -128.2 -354.9)"/><path stroke="green" stroke-width=".1" d="M86 214.5v-3.1M79.3 196.3l6.8.8M79.3 196.3l6.8.8" transform="matrix(1.64596 0 0 1.8487 -128.2 -354.9)"/><path stroke="#00f" stroke-width=".1" d="M85.1 197.1h1" transform="matrix(1.64596 0 0 1.8487 -128.2 -354.9)"/><path stroke="green" stroke-width=".1" d="M86.2 200.2l-.1-3M86 200.2v-3M79.4 201l6.7-3.9M79.4 201l6.7-3.9M86 203.3V197M79.4 201l8.2 7.3M79.4 201l8.2 7.3M86 203.3l1.6 5" transform="matrix(1.64596 0 0 1.8487 -128.2 -354.9)"/><path stroke="#00f" stroke-width=".1" d="M86 208.3h1.6" transform="matrix(1.64596 0 0 1.8487 -128.2 -354.9)"/><path stroke="green" stroke-width=".1" d="M79.4 210.6l8.2-2.3M79.4 210.6l8.2-2.3M86.2 211.4l1.4-3M86 211.4l1.6-3M86 214.5l1.6-6.2M79.3 196.3l8.3 7M79.3 196.3l8.3 7M85.1 197.1l2.5 6.2M86 197.1l1.6 6.2M86.2 200.2l1.4 3M86 200.2l1.6 3M79.4 201l8.2 2.3M79.4 201l8.2 2.3" transform="matrix(1.64596 0 0 1.8487 -128.2 -354.9)"/><path stroke="#00f" stroke-width=".1" d="M86 203.3h1.6" transform="matrix(1.64596 0 0 1.8487 -128.2 -354.9)"/><path stroke="green" stroke-width=".1" d="M86 208.3l1.6-5M87.6 208.3v-5M79.4 210.6l8.2-7.3M79.4 210.6l8.2-7.3M86 208.3l-.3 6.2M87.6 208.3l-2 6.2M79.4 210.6l6.3 3.9M79.4 210.6l6.3 3.9M86.2 211.4l-.5 3M86 211.4l-.3 3" transform="matrix(1.64596 0 0 1.8487 -128.2 -354.9)"/><path stroke="#00f" stroke-width=".1" d="M86 214.5h-.3" transform="matrix(1.64596 0 0 1.8487 -128.2 -354.9)"/><path stroke="green" stroke-width=".1" d="M79.3 196.3l6.8 7M79.3 196.3l6.8 7M85.1 197.1l1 6.2M86 197.1v6.2M86.2 200.2l-.1 3M86 200.2v3M79.4 201l6.7 2.3M79.4 201l6.7 2.3" transform="matrix(1.64596 0 0 1.8487 -128.2 -354.9)"/><path stroke="#00f" stroke-width=".1" d="M87.6 203.3h-1.5" transform="matrix(1.64596 0 0 1.8487 -128.2 -354.9)"/><path stroke="green" stroke-width=".1" d="M86 208.3v-5M87.6 208.3l-1.5-5M79.4 210.6l6.7-7.3M79.4 210.6l6.7-7.3M79.3 196.3l6.8.8M79.3 196.3l6.8.8" transform="matrix(1.64596 0 0 1.8487 -128.2 -354.9)"/><path stroke="#00f" stroke-width=".1" d="M85.1 197.1h1" transform="matrix(1.64596 0 0 1.8487 -128.2 -354.9)"/><path stroke="green" stroke-width=".1" d="M86.2 200.2l-.1-3M86 200.2v-3M79.4 201l6.7-3.9M79.4 201l6.7-3.9M86 203.3V197M87.6 203.3l-1.5-6.2M86 203.3V197M79.3 196.3l6.8 3.9M79.3 196.3l6.8 3.9M85.1 197.1l1 3.1M86 197.1v3.1M86 197.1v3.1" transform="matrix(1.64596 0 0 1.8487 -128.2 -354.9)"/><path stroke="#00f" stroke-width=".1" d="M86.2 200.2H86" transform="matrix(1.64596 0 0 1.8487 -128.2 -354.9)"/><path stroke="green" stroke-width=".1" d="M79.4 201l6.7-.8M79.4 201l6.7-.8M86 203.3v-3.1M87.6 203.3l-1.5-3.1M86 203.3v-3.1M86 208.3v6.2M87.6 208.3l-1.5 6.2M79.4 210.6l6.7 3.9M79.4 210.6l6.7 3.9M86.2 211.4l-.1 3M86 211.4v3" transform="matrix(1.64596 0 0 1.8487 -128.2 -354.9)"/><path stroke="#00f" stroke-width=".1" d="M85.7 214.5h.4" transform="matrix(1.64596 0 0 1.8487 -128.2 -354.9)"/><path stroke="green" stroke-width=".1" d="M86 208.3v3.1M87.6 208.3l-1.5 3.1M79.4 210.6l6.7.8M79.4 210.6l6.7.8" transform="matrix(1.64596 0 0 1.8487 -128.2 -354.9)"/><path stroke="#00f" stroke-width=".1" d="M86.2 211.4h-.1" transform="matrix(1.64596 0 0 1.8487 -128.2 -354.9)"/><path stroke="green" stroke-width=".1" d="M86 214.5v-3.1M85.7 214.5l.4-3.1M86 214.5v-3.1M79.4 201l6.7 7.3M79.4 201l6.7 7.3M86 203.3v5M87.6 203.3l-1.5 5M86 203.3v5" transform="matrix(1.64596 0 0 1.8487 -128.2 -354.9)"/><path stroke="#00f" stroke-width=".1" d="M87.6 208.3h-1.5" transform="matrix(1.64596 0 0 1.8487 -128.2 -354.9)"/><path stroke="green" stroke-width=".1" d="M79.4 210.6l6.7-2.3M79.4 210.6l6.7-2.3M86.2 211.4l-.1-3M86 211.4v-3M86 211.4v-3M86 214.5v-6.2M85.7 214.5l.4-6.2M86 214.5v-6.2M86 214.5l1.1 6.7M85.7 214.5l1.4 6.7M86 214.5l1.1 6.7M86 214.5l1.1 6.7M85.7 214.5l1.4 6.7M86 214.5l1.1 6.7M86 208.3l3.3 10M87.6 208.3l1.7 10M86 208.3l3.3 10M86.2 211.4l3 6.9M86 211.4l3.3 6.9M86 211.4l3.3 6.9" transform="matrix(1.64596 0 0 1.8487 -128.2 -354.9)"/><path stroke="#00f" stroke-width=".1" d="M86 214.5l3.3 3.8M85.7 214.5l3.6 3.8" transform="matrix(1.64596 0 0 1.8487 -128.2 -354.9)"/><path stroke="green" stroke-width=".1" d="M86 214.5l3.3 3.8M87.1 221.2l2.2-3" transform="matrix(1.64596 0 0 1.8487 -128.2 -354.9)"/><path stroke="#00f" stroke-width=".1" d="M87.1 221.2l2.2-3" transform="matrix(1.64596 0 0 1.8487 -128.2 -354.9)"/><path stroke="green" stroke-width=".1" d="M86 208.3l2.7 8.5M87.6 208.3l1 8.5M86 208.3l2.7 8.5M86.2 211.4l2.5 5.4M86 211.4l2.7 5.4M86 211.4l2.7 5.4" transform="matrix(1.64596 0 0 1.8487 -128.2 -354.9)"/><path stroke="#00f" stroke-width=".1" d="M86 214.5l2.7 2.3M85.7 214.5l3 2.3" transform="matrix(1.64596 0 0 1.8487 -128.2 -354.9)"/><path stroke="green" stroke-width=".1" d="M86 214.5l2.7 2.3M87.1 221.2l1.6-4.4" transform="matrix(1.64596 0 0 1.8487 -128.2 -354.9)"/><path stroke="#00f" stroke-width=".1" d="M89.3 218.3l-.6-1.5M87.1 221.2l1.6-4.4" transform="matrix(1.64596 0 0 1.8487 -128.2 -354.9)"/><path stroke="green" stroke-width=".1" d="M88.7 216.8L96 222M87.1 221.2l8.9.9" transform="matrix(1.64596 0 0 1.8487 -128.2 -354.9)"/><path stroke="#00f" stroke-width=".1" d="M89.3 218.3L96 222" transform="matrix(1.64596 0 0 1.8487 -128.2 -354.9)"/><path stroke="green" stroke-width=".1" d="M87.1 221.2l8.9.9M85.1 197.1h7.1M86 197.1h6.2M86 197.1h6.2" transform="matrix(1.64596 0 0 1.8487 -128.2 -354.9)"/><path stroke="#00f" stroke-width=".1" d="M86.2 200.2l6-3" transform="matrix(1.64596 0 0 1.8487 -128.2 -354.9)"/><path stroke="green" stroke-width=".1" d="M86 200.2l6.2-3M86 200.2l6.2-3M86 203.3l6.2-6.1M87.6 203.3l4.6-6.1M86 203.3l6.2-6.1M86 208.3l6.2 5.9M87.6 208.3l4.6 5.9M86 208.3l6.2 5.9" transform="matrix(1.64596 0 0 1.8487 -128.2 -354.9)"/><path stroke="#00f" stroke-width=".1" d="M86.2 211.4l6 2.8" transform="matrix(1.64596 0 0 1.8487 -128.2 -354.9)"/><path stroke="green" stroke-width=".1" d="M86 211.4l6.2 2.8M86 211.4l6.2 2.8M86 214.5l6.2-.3M85.7 214.5l6.5-.3M86 214.5l6.2-.3M88.7 216.8l3.5-2.6M87.1 221.2l5.1-7M89.3 218.3l2.9-4.1M96 222l-3.8-7.8M87.1 221.2l5.1-7M85.1 197.1l8.4 8.7M86 197.1l7.5 8.7M86 197.1l7.5 8.7M86.2 200.2l7.3 5.6M86 200.2l7.5 5.6M86 200.2l7.5 5.6M92.2 197.2l1.3 8.6M86 203.3l7.5 2.5" transform="matrix(1.64596 0 0 1.8487 -128.2 -354.9)"/><path stroke="#00f" stroke-width=".1" d="M87.6 203.3l6 2.5" transform="matrix(1.64596 0 0 1.8487 -128.2 -354.9)"/><path stroke="green" stroke-width=".1" d="M86 203.3l7.5 2.5M86 208.3l7.5-2.5" transform="matrix(1.64596 0 0 1.8487 -128.2 -354.9)"/><path stroke="#00f" stroke-width=".1" d="M87.6 208.3l6-2.5" transform="matrix(1.64596 0 0 1.8487 -128.2 -354.9)"/><path stroke="green" stroke-width=".1" d="M86 208.3l7.5-2.5M86.2 211.4l7.3-5.6M86 211.4l7.5-5.6M86 211.4l7.5-5.6M86 214.5l7.5-8.7M85.7 214.5l7.8-8.7M86 214.5l7.5-8.7M92.2 214.2l1.3-8.4M88.7 216.8l4.8-11M89.3 218.3l4.2-12.5M86.2 200.2l7.9 4.7M86 200.2l8 4.7M86 200.2l8 4.7M92.2 197.2l1.9 7.7M86 203.3l8 1.6M87.6 203.3l6.5 1.6M86 203.3l8 1.6M86 208.3l8-3.4M87.6 208.3l6.5-3.4M86 208.3l8-3.4" transform="matrix(1.64596 0 0 1.8487 -128.2 -354.9)"/><path stroke="#00f" stroke-width=".1" d="M93.5 205.8l.6-.9" transform="matrix(1.64596 0 0 1.8487 -128.2 -354.9)"/><path stroke="green" stroke-width=".1" d="M86.2 211.4l7.9-6.5M86 211.4l8-6.5M86 211.4l8-6.5M92.2 214.2l1.9-9.3M85.1 197.1l12.4-3M86 197.1l11.5-3M86 197.1l11.5-3M86.2 200.2l11.3-6M86 200.2l11.5-6M86 200.2l11.5-6" transform="matrix(1.64596 0 0 1.8487 -128.2 -354.9)"/><path stroke="#00f" stroke-width=".1" d="M92.2 197.2l5.3-3" transform="matrix(1.64596 0 0 1.8487 -128.2 -354.9)"/><path stroke="green" stroke-width=".1" d="M86.2 211.4l11.3 5.6M86 211.4l11.5 5.6M86 211.4l11.5 5.6M86 214.5l11.5 2.5M85.7 214.5l11.8 2.5M86 214.5l11.5 2.5" transform="matrix(1.64596 0 0 1.8487 -128.2 -354.9)"/><path stroke="#00f" stroke-width=".1" d="M92.2 214.2l5.3 2.8" transform="matrix(1.64596 0 0 1.8487 -128.2 -354.9)"/><path stroke="green" stroke-width=".1" d="M88.7 216.8l8.8.2M87.1 221.2l10.4-4.2M89.3 218.3l8.2-1.3M96 222l1.5-5M87.1 221.2l10.4-4.2M97.5 194.1L95 205.6M85.1 197.1l10 8.5M86 197.1l9.1 8.5M86.2 200.2l9 5.4M86 200.2l9.1 5.4M92.2 197.2l3 8.4M86 203.3l9.1 2.3M87.6 203.3l7.5 2.3" transform="matrix(1.64596 0 0 1.8487 -128.2 -354.9)"/><path stroke="#00f" stroke-width=".1" d="M94 205l1.1.6" transform="matrix(1.64596 0 0 1.8487 -128.2 -354.9)"/><path stroke="green" stroke-width=".1" d="M86 208.3l9.1-2.7M87.6 208.3l7.5-2.7" transform="matrix(1.64596 0 0 1.8487 -128.2 -354.9)"/><path stroke="#00f" stroke-width=".1" d="M93.5 205.8l1.6-.2" transform="matrix(1.64596 0 0 1.8487 -128.2 -354.9)"/><path stroke="green" stroke-width=".1" d="M86.2 211.4l9-5.8M86 211.4l9.1-5.8M86 214.5l9.1-9M92.2 214.2l3-8.6M97.5 217L95 205.6M89.3 218.3l5.8-12.7" transform="matrix(1.64596 0 0 1.8487 -128.2 -354.9)"/><path stroke="#00f" stroke-width=".1" d="M97.5 194.1h1" transform="matrix(1.64596 0 0 1.8487 -128.2 -354.9)"/><path stroke="green" stroke-width=".1" d="M86.2 200.2l12.3-6M92.2 197.2l6.3-3M95.1 205.6l3.4-11.5M92.2 214.2l6.3 7.9M97.5 217l1 5M89.3 218.3l9.2 3.8" transform="matrix(1.64596 0 0 1.8487 -128.2 -354.9)"/><path stroke="#00f" stroke-width=".1" d="M96 222h2.5" transform="matrix(1.64596 0 0 1.8487 -128.2 -354.9)"/><path stroke="green" stroke-width=".1" d="M86.2 211.4l12.3 5.6M95.1 205.6l3.4 11.4M92.2 214.2l6.3 2.8" transform="matrix(1.64596 0 0 1.8487 -128.2 -354.9)"/><path stroke="#00f" stroke-width=".1" d="M97.5 217h1" transform="matrix(1.64596 0 0 1.8487 -128.2 -354.9)"/><path stroke="green" stroke-width=".1" d="M89.3 218.3l9.2-1.3M96 222l2.5-5M98.5 222v-5M94 205l4.5 7M87.6 208.3l11 3.6M93.5 205.8l5 6.1M86.2 211.4l12.3.5" transform="matrix(1.64596 0 0 1.8487 -128.2 -354.9)"/><path stroke="#00f" stroke-width=".1" d="M95.1 205.6l3.4 6.3" transform="matrix(1.64596 0 0 1.8487 -128.2 -354.9)"/><path stroke="green" stroke-width=".1" d="M92.2 214.2l6.3-2.3M97.5 217l1-5M98.5 217v-5M89.3 218.3l9.2-6.4M97.5 194.1l1 5.1M98.5 194.1v5.1M86.2 200.2l12.3-1M92.2 197.2l6.3 2M87.6 203.3l11-4.1M94 205l4.5-5.8M93.5 205.8l5-6.6" transform="matrix(1.64596 0 0 1.8487 -128.2 -354.9)"/><path stroke="#00f" stroke-width=".1" d="M95.1 205.6l3.4-6.4" transform="matrix(1.64596 0 0 1.8487 -128.2 -354.9)"/><path stroke="green" stroke-width=".1" d="M97.5 194.1l1.4 5.1M98.5 194.1l.4 5.1" transform="matrix(1.64596 0 0 1.8487 -128.2 -354.9)"/><path stroke="#00f" stroke-width=".1" d="M98.5 199.2h.4" transform="matrix(1.64596 0 0 1.8487 -128.2 -354.9)"/><path stroke="green" stroke-width=".1" d="M86.2 200.2l12.7-1M92.2 197.2l6.7 2M87.6 203.3l11.3-4.1M94 205l5-5.8M93.5 205.8l5.4-6.6" transform="matrix(1.64596 0 0 1.8487 -128.2 -354.9)"/><path stroke="#00f" stroke-width=".1" d="M95.1 205.6l3.8-6.4" transform="matrix(1.64596 0 0 1.8487 -128.2 -354.9)"/><path stroke="green" stroke-width=".1" d="M94 205l5 7M87.6 208.3l11.3 3.6M93.5 205.8l5.4 6.1M86.2 211.4l12.7.5" transform="matrix(1.64596 0 0 1.8487 -128.2 -354.9)"/><path stroke="#00f" stroke-width=".1" d="M95.1 205.6l3.8 6.3M98.5 212h.4" transform="matrix(1.64596 0 0 1.8487 -128.2 -354.9)"/><path stroke="green" stroke-width=".1" d="M92.2 214.2l6.7-2.3M97.5 217l1.4-5M98.5 217l.4-5" transform="matrix(1.64596 0 0 1.8487 -128.2 -354.9)"/><path stroke="#00f" stroke-width=".1" d="M97.5 194.1h1M98.5 194.1" transform="matrix(1.64596 0 0 1.8487 -128.2 -354.9)"/><path stroke="green" stroke-width=".1" d="M98.5 199.2v-5M99 199.2l-.5-5M86.2 200.2l12.3-6M92.2 197.2l6.3-3M95.1 205.6l3.4-11.5M97.5 194.1l1 5.1M98.5 194.1v5.1M98.5 194.1v5.1" transform="matrix(1.64596 0 0 1.8487 -128.2 -354.9)"/><path stroke="#00f" stroke-width=".1" d="M99 199.2h-.5" transform="matrix(1.64596 0 0 1.8487 -128.2 -354.9)"/><path stroke="green" stroke-width=".1" d="M86.2 200.2l12.3-1M92.2 197.2l6.3 2M87.6 203.3l11-4.1M94 205l4.5-5.8M93.5 205.8l5-6.6M95.1 205.6l3.4-6.4M94 205l4.5 7M87.6 208.3l11 3.6M93.5 205.8l5 6.1M86.2 211.4l12.3.5M95.1 205.6l3.4 6.3" transform="matrix(1.64596 0 0 1.8487 -128.2 -354.9)"/><path stroke="#00f" stroke-width=".1" d="M99 212h-.5" transform="matrix(1.64596 0 0 1.8487 -128.2 -354.9)"/><path stroke="green" stroke-width=".1" d="M92.2 214.2l6.3-2.3M97.5 217l1-5M98.5 217v-5M92.2 214.2l6.3 7.9M97.5 217l1 5M98.5 217v5" transform="matrix(1.64596 0 0 1.8487 -128.2 -354.9)"/><path stroke="#00f" stroke-width=".1" d="M96 222h2.5M98.5 222" transform="matrix(1.64596 0 0 1.8487 -128.2 -354.9)"/><path stroke="green" stroke-width=".1" d="M86.2 211.4l12.3 5.6M95.1 205.6l3.4 11.4M98.5 212v5M99 212l-.5 5M98.5 212v5M92.2 214.2l6.3 2.8" transform="matrix(1.64596 0 0 1.8487 -128.2 -354.9)"/><path stroke="#00f" stroke-width=".1" d="M97.5 217h1M98.5 217" transform="matrix(1.64596 0 0 1.8487 -128.2 -354.9)"/><path stroke="green" stroke-width=".1" d="M96 222l2.5-5M98.5 222v-5M98.5 222v-5M97.5 194.1l10 5.1M98.5 194.1l9 5.1M98.5 194.1l9 5.1M98.5 199.2h9M99 199.2h8.5M98.5 199.2h9M107.5 199.2l4.2-3.1" transform="matrix(1.64596 0 0 1.8487 -128.2 -354.9)"/><path stroke="#00f" stroke-width=".1" d="M111.7 196l-.8 1.4M107.5 199.2l3.4-1.8" transform="matrix(1.64596 0 0 1.8487 -128.2 -354.9)"/><path stroke="green" stroke-width=".1" d="M107.5 199.2l8.6 6.5M110.9 197.4l5.2 8.3M116.1 205.7v4.8M116.1 205.7l3.7-6.4M116.1 210.5l3.7 6.4M119.8 199.3l-.1 6.4" transform="matrix(1.64596 0 0 1.8487 -128.2 -354.9)"/><path stroke="#00f" stroke-width=".1" d="M116.1 205.7h3.6" transform="matrix(1.64596 0 0 1.8487 -128.2 -354.9)"/><path stroke="green" stroke-width=".1" d="M116.1 210.5l3.6-4.8M116.1 205.7l3.6 4.8M119.7 205.7v4.8" transform="matrix(1.64596 0 0 1.8487 -128.2 -354.9)"/><path stroke="#00f" stroke-width=".1" d="M116.1 210.5h3.6" transform="matrix(1.64596 0 0 1.8487 -128.2 -354.9)"/><path stroke="green" stroke-width=".1" d="M119.8 217l-.1-6.5" transform="matrix(1.64596 0 0 1.8487 -128.2 -354.9)"/><path stroke="#00f" stroke-width=".1" d="M119.8 199.3l.8 3.5" transform="matrix(1.64596 0 0 1.8487 -128.2 -354.9)"/><path stroke="green" stroke-width=".1" d="M116.1 205.7l4.5-2.9" transform="matrix(1.64596 0 0 1.8487 -128.2 -354.9)"/><path stroke="#00f" stroke-width=".1" d="M119.7 205.7l1-2.9" transform="matrix(1.64596 0 0 1.8487 -128.2 -354.9)"/><path stroke="green" stroke-width=".1" d="M116.1 210.5l4.5-7.7M119.7 210.5l1-7.7M120.6 202.8v10.6M116.1 205.7l4.5 7.7M119.7 205.7l1 7.7M116.1 210.5l4.5 3" transform="matrix(1.64596 0 0 1.8487 -128.2 -354.9)"/><path stroke="#00f" stroke-width=".1" d="M119.7 210.5l1 3M119.8 217l.8-3.6" transform="matrix(1.64596 0 0 1.8487 -128.2 -354.9)"/><path stroke="green" stroke-width=".1" d="M119.8 199.3l1.1 6.9" transform="matrix(1.64596 0 0 1.8487 -128.2 -354.9)"/><path stroke="#00f" stroke-width=".1" d="M120.6 202.8l.3 3.4" transform="matrix(1.64596 0 0 1.8487 -128.2 -354.9)"/><path stroke="green" stroke-width=".1" d="M116.1 205.7l4.8.5" transform="matrix(1.64596 0 0 1.8487 -128.2 -354.9)"/><path stroke="#00f" stroke-width=".1" d="M119.7 205.7l1.2.5" transform="matrix(1.64596 0 0 1.8487 -128.2 -354.9)"/><path stroke="green" stroke-width=".1" d="M116.1 210.5l4.8-4.3M119.7 210.5l1.2-4.3M120.6 213.4l.3-7.2M120.6 202.8l.3 7.3M116.1 205.7l4.8 4.4M119.7 205.7l1.2 4.4M121 206.2v3.9M116.1 210.5l4.8-.4" transform="matrix(1.64596 0 0 1.8487 -128.2 -354.9)"/><path stroke="#00f" stroke-width=".1" d="M119.7 210.5l1.2-.4M120.6 213.4l.3-3.3" transform="matrix(1.64596 0 0 1.8487 -128.2 -354.9)"/><path stroke="green" stroke-width=".1" d="M119.8 217l1.1-7M119.8 199.3l4.8 7.3M120.6 202.8l4 3.8M116.1 205.7l8.5 1M119.7 205.7l4.9 1" transform="matrix(1.64596 0 0 1.8487 -128.2 -354.9)"/><path stroke="#00f" stroke-width=".1" d="M121 206.2l3.6.4" transform="matrix(1.64596 0 0 1.8487 -128.2 -354.9)"/><path stroke="green" stroke-width=".1" d="M116.1 210.5l8.5-3.9M119.7 210.5l4.9-3.9M121 210l3.6-3.4M120.6 213.4l4-6.8M120.6 202.8l4 6.8M116.1 205.7l8.5 4M119.7 205.7l4.9 4M121 206.2l3.6 3.4M124.6 206.6v3M116.1 210.5l8.5-.9M119.7 210.5l4.9-.9" transform="matrix(1.64596 0 0 1.8487 -128.2 -354.9)"/><path stroke="#00f" stroke-width=".1" d="M121 210l3.6-.4" transform="matrix(1.64596 0 0 1.8487 -128.2 -354.9)"/><path stroke="green" stroke-width=".1" d="M120.6 213.4l4-3.8M119.8 217l4.8-7.4M119.8 217l13 6.5M120.6 213.4l12.2 5.3M119.8 217l13 1.7M132.8 223.5v-4.8M119.8 199.3l13-6.6M132.8 192.7v4.8M119.8 199.3l13-1.8M120.6 202.8l12.2-5.3" transform="matrix(1.64596 0 0 1.8487 -128.2 -354.9)"/><path stroke="#00f" stroke-width=".1" d="M124.6 206.6l3.6-.4" transform="matrix(1.64596 0 0 1.8487 -128.2 -354.9)"/><path stroke="green" stroke-width=".1" d="M124.6 209.6l3.6-3.4M124.6 206.6l3.6 3.5M128.2 206.2v3.9" transform="matrix(1.64596 0 0 1.8487 -128.2 -354.9)"/><path stroke="#00f" stroke-width=".1" d="M124.6 209.6l3.6.5" transform="matrix(1.64596 0 0 1.8487 -128.2 -354.9)"/><path stroke="green" stroke-width=".1" d="M124.6 206.6l6.4 4M128.2 206.2l2.8 4.3M124.6 209.6l6.4 1" transform="matrix(1.64596 0 0 1.8487 -128.2 -354.9)"/><path stroke="#00f" stroke-width=".1" d="M128.2 210l2.8.5" transform="matrix(1.64596 0 0 1.8487 -128.2 -354.9)"/><path stroke="green" stroke-width=".1" d="M124.6 206.6l6.4-.9" transform="matrix(1.64596 0 0 1.8487 -128.2 -354.9)"/><path stroke="#00f" stroke-width=".1" d="M128.2 206.2l2.8-.5" transform="matrix(1.64596 0 0 1.8487 -128.2 -354.9)"/><path stroke="green" stroke-width=".1" d="M124.6 209.6l6.4-3.9M128.2 210l2.8-4.3M131 210.5v-4.8M132.8 192.7l9.7 5.1" transform="matrix(1.64596 0 0 1.8487 -128.2 -354.9)"/><path stroke="#00f" stroke-width=".1" d="M132.8 197.5l9.7.3M132.8 192.7l9 2.7M132.8 197.5l9-2M142.5 197.8l-.8-2.4M132.8 218.7l9 2.1M132.8 223.5l9-2.7M132.8 218.7l9.8-.2" transform="matrix(1.64596 0 0 1.8487 -128.2 -354.9)"/><path stroke="green" stroke-width=".1" d="M132.8 223.5l9.8-5" transform="matrix(1.64596 0 0 1.8487 -128.2 -354.9)"/><path stroke="#00f" stroke-width=".1" d="M141.7 220.8l.9-2.3" transform="matrix(1.64596 0 0 1.8487 -128.2 -354.9)"/><path stroke="green" stroke-width=".1" d="M132.8 192.7l18 5.4" transform="matrix(1.64596 0 0 1.8487 -128.2 -354.9)"/><path stroke="#00f" stroke-width=".1" d="M132.8 197.5l18 .6M141.7 195.4l9.2 2.7M142.5 197.8l8.4.3M132.8 218.7l18-.5M142.6 218.5l8.3-.3" transform="matrix(1.64596 0 0 1.8487 -128.2 -354.9)"/><path stroke="green" stroke-width=".1" d="M132.8 223.5l18-5.3" transform="matrix(1.64596 0 0 1.8487 -128.2 -354.9)"/><path stroke="#00f" stroke-width=".1" d="M141.7 220.8l9.2-2.6" transform="matrix(1.64596 0 0 1.8487 -128.2 -354.9)"/><path stroke="green" stroke-width=".1" d="M132.8 192.7l13.2.7M132.8 197.5l13.2-4.1M150.9 198.1l-5-4.7M141.7 195.4l4.3-2M142.5 197.8l3.5-4.4M132.8 197.5L146 203M150.9 198.1l-5 4.8M141.7 195.4l4.3 7.5M142.5 197.8l3.5 5M150.9 218.2l-5 4.7M132.8 218.7L146 223M142.6 218.5l3.4 4.4M132.8 223.5l13.2-.6M141.7 220.8l4.3 2M150.9 218.2l-5-4.5M132.8 218.7l13.2-5M142.6 218.5l3.4-4.8M141.7 220.8l4.3-7.1M150.9 218.2l-.2 5.3M132.8 218.7l18 4.8M142.6 218.5l8.1 5M132.8 223.5h18M141.7 220.8l9 2.7" transform="matrix(1.64596 0 0 1.8487 -128.2 -354.9)"/><path stroke="#00f" stroke-width=".1" d="M146 222.9l4.7.6" transform="matrix(1.64596 0 0 1.8487 -128.2 -354.9)"/><path stroke="green" stroke-width=".1" d="M132.8 197.5l18 6M150.9 198.1l-.2 5.4M141.7 195.4l9 8.1M142.5 197.8l8.2 5.7" transform="matrix(1.64596 0 0 1.8487 -128.2 -354.9)"/><path stroke="#00f" stroke-width=".1" d="M146 202.9l4.7.6M146 213.7l4.7-.7" transform="matrix(1.64596 0 0 1.8487 -128.2 -354.9)"/><path stroke="green" stroke-width=".1" d="M150.9 218.2l-.2-5.2M132.8 218.7l18-5.7M142.6 218.5l8.1-5.5M141.7 220.8l9-7.8M132.8 192.7h18.1" transform="matrix(1.64596 0 0 1.8487 -128.2 -354.9)"/><path stroke="#00f" stroke-width=".1" d="M146 193.4l4.9-.7" transform="matrix(1.64596 0 0 1.8487 -128.2 -354.9)"/><path stroke="green" stroke-width=".1" d="M132.8 197.5l18.1-4.8M150.9 198.1v-5.4M141.7 195.4l9.2-2.7M142.5 197.8l8.4-5M150.9 192.7l8.5 5.4" transform="matrix(1.64596 0 0 1.8487 -128.2 -354.9)"/><path stroke="#00f" stroke-width=".1" d="M150.9 198.1h8.5" transform="matrix(1.64596 0 0 1.8487 -128.2 -354.9)"/><path stroke="green" stroke-width=".1" d="M150.7 203.5l8.7-5.4M150.7 213l8.7 5.3" transform="matrix(1.64596 0 0 1.8487 -128.2 -354.9)"/><path stroke="#00f" stroke-width=".1" d="M150.9 218.2h8.5" transform="matrix(1.64596 0 0 1.8487 -128.2 -354.9)"/><path stroke="green" stroke-width=".1" d="M150.7 223.5l8.7-5.2M150.9 192.7h17.7M150.9 198.1l17.7-5.4" transform="matrix(1.64596 0 0 1.8487 -128.2 -354.9)"/><path stroke="#00f" stroke-width=".1" d="M159.4 198.1l9.2-5.4" transform="matrix(1.64596 0 0 1.8487 -128.2 -354.9)"/><path stroke="green" stroke-width=".1" d="M150.7 213h18M150.9 218.2l17.7-5.2" transform="matrix(1.64596 0 0 1.8487 -128.2 -354.9)"/><path stroke="#00f" stroke-width=".1" d="M159.4 218.3l9.2-5.3" transform="matrix(1.64596 0 0 1.8487 -128.2 -354.9)"/><path stroke="green" stroke-width=".1" d="M150.9 198.1l17.7 5.4M150.7 203.5h18" transform="matrix(1.64596 0 0 1.8487 -128.2 -354.9)"/><path stroke="#00f" stroke-width=".1" d="M159.4 198.1l9.2 5.4" transform="matrix(1.64596 0 0 1.8487 -128.2 -354.9)"/><path stroke="green" stroke-width=".1" d="M150.9 218.2l17.7 5.3M150.7 223.5h18" transform="matrix(1.64596 0 0 1.8487 -128.2 -354.9)"/><path stroke="#00f" stroke-width=".1" d="M159.4 218.3l9.2 5.2" transform="matrix(1.64596 0 0 1.8487 -128.2 -354.9)"/><path fill="#00f" fill-opacity=".3" d="M0 5.5h4.7v5.2H.1z"/><path fill="none" stroke="#000" stroke-width=".1" d="M78 195h2.7v2.7H78z" transform="matrix(1.64596 0 0 1.8487 -128.2 -354.9)"/><path fill="#00f" fill-opacity=".3" d="M0 5.5h4.7v5.2H.1z"/><path fill="none" stroke="#000" stroke-width=".1" d="M78 195h2.7v2.7H78z" transform="matrix(1.64596 0 0 1.8487 -128.2 -354.9)"/><path fill="#00f" fill-opacity=".3" d="M.1 31.9h4.6V37H.1z"/><path fill="none" stroke="#000" stroke-width=".1" d="M78 209.2h2.8v2.8H78z" transform="matrix(1.64596 0 0 1.8487 -128.2 -354.9)"/><path fill="#00f" fill-opacity=".3" d="M.1 31.9H5V37H.1z"/><path fill="none" stroke="#000" stroke-width=".1" d="M78 209.2h2.9v2.8h-3z" transform="matrix(1.64596 0 0 1.8487 -128.2 -354.9)"/><path fill="#00f" fill-opacity=".3" d="M4.7 8.5h14.4v2.2H4.7z"/><path fill="none" stroke="#000" stroke-width=".1" d="M80.7 196.5h8.8v1.2h-8.8z" transform="matrix(1.64596 0 0 1.8487 -128.2 -354.9)"/><path fill="#00f" fill-opacity=".3" d="M7.9 19.8H19V22H7.9z"/><path fill="none" stroke="#000" stroke-width=".1" d="M82.7 202.7h6.8v1.2h-6.8z" transform="matrix(1.64596 0 0 1.8487 -128.2 -354.9)"/><path fill="#00f" fill-opacity=".3" d="M7.9 40.5H19v2.2H7.9z"/><path fill="none" stroke="#000" stroke-width=".1" d="M82.7 213.9h6.8v1.2h-6.8z" transform="matrix(1.64596 0 0 1.8487 -128.2 -354.9)"/><path fill="#00f" fill-opacity=".3" d="M7.9 34.9H19V37H7.9z"/><path fill="none" stroke="#000" stroke-width=".1" d="M82.7 210.8h6.8v1.2h-6.8z" transform="matrix(1.64596 0 0 1.8487 -128.2 -354.9)"/><path fill="#00f" fill-opacity=".3" d="M7.9 19.8H24V22H8z"/><path fill="none" stroke="#000" stroke-width=".1" d="M82.7 202.7h9.8v1.2h-9.8z" transform="matrix(1.64596 0 0 1.8487 -128.2 -354.9)"/><path fill="#00f" fill-opacity=".3" d="M7.9 40.5h9.9v2.2h-10z"/><path fill="none" stroke="#000" stroke-width=".1" d="M82.7 213.9h6v1.2h-6z" transform="matrix(1.64596 0 0 1.8487 -128.2 -354.9)"/><path fill="#00f" fill-opacity=".3" d="M10.3 19.8h6.4V22h-6.4z"/><path fill="none" stroke="#000" stroke-width=".1" d="M84.1 202.7H88v1.2h-3.9z" transform="matrix(1.64596 0 0 1.8487 -128.2 -354.9)"/><path fill="#00f" fill-opacity=".3" d="M10.3 40.5h6.4v2.2h-6.4z"/><path fill="none" stroke="#000" stroke-width=".1" d="M84.1 213.9H88v1.2h-3.9z" transform="matrix(1.64596 0 0 1.8487 -128.2 -354.9)"/><path fill="#00f" fill-opacity=".3" d="M17.8 40.5h2v16.3h-2z"/><path fill="none" stroke="#000" stroke-width=".1" d="M88.7 213.9h1.2v8.8h-1.2z" transform="matrix(1.64596 0 0 1.8487 -128.2 -354.9)"/><path fill="#00f" fill-opacity=".3" d="M22.6 34.9h2v12.5h-2z"/><path fill="none" stroke="#000" stroke-width=".1" d="M91.6 210.8h1.2v6.8h-1.2z" transform="matrix(1.64596 0 0 1.8487 -128.2 -354.9)"/><path fill="#00f" fill-opacity=".3" d="M24.1 19.8h3.3v11.6h-3.3z"/><path fill="none" stroke="#000" stroke-width=".1" d="M92.5 202.7h2v6.2h-2z" transform="matrix(1.64596 0 0 1.8487 -128.2 -354.9)"/><path fill="#00f" fill-opacity=".3" d="M24.3 21.4H29v5.2h-4.6z"/><path fill="none" stroke="#000" stroke-width=".1" d="M92.7 203.5h2.8v2.8h-2.8z" transform="matrix(1.64596 0 0 1.8487 -128.2 -354.9)"/><path fill="#00f" fill-opacity=".3" d="M24.6 3h15.3v2.2H24.6z"/><path fill="none" stroke="#000" stroke-width=".1" d="M92.8 193.5h9.3v1.2h-9.3z" transform="matrix(1.64596 0 0 1.8487 -128.2 -354.9)"/><path fill="#00f" fill-opacity=".3" d="M24.6 45.2h15.3v2.2H24.6z"/><path fill="none" stroke="#000" stroke-width=".1" d="M92.8 216.4h9.3v1.2h-9.3z" transform="matrix(1.64596 0 0 1.8487 -128.2 -354.9)"/><path fill="#00f" fill-opacity=".3" d="M28 3h12v2.2H28z"/><path fill="none" stroke="#000" stroke-width=".1" d="M95 193.5h7.1v1.2H95z" transform="matrix(1.64596 0 0 1.8487 -128.2 -354.9)"/><path fill="#00f" fill-opacity=".3" d="M28 45.2h12v2.2H28z"/><path fill="none" stroke="#000" stroke-width=".1" d="M95 216.4h7.1v1.2H95z" transform="matrix(1.64596 0 0 1.8487 -128.2 -354.9)"/><path fill="#00f" fill-opacity=".3" d="M30.5 3h7v2.2h-7z"/><path fill="none" stroke="#000" stroke-width=".1" d="M96.4 193.5h4.3v1.2h-4.3z" transform="matrix(1.64596 0 0 1.8487 -128.2 -354.9)"/><path fill="#00f" fill-opacity=".3" d="M30.5 45.2h7v2.2h-7z"/><path fill="none" stroke="#000" stroke-width=".1" d="M96.4 216.4h4.3v1.2h-4.3z" transform="matrix(1.64596 0 0 1.8487 -128.2 -354.9)"/><path fill="#00f" fill-opacity=".3" d="M42.8 12.3h11.8v2.2H42.8z"/><path fill="none" stroke="#000" stroke-width=".1" d="M103.9 198.6h7.2v1.2h-7.2z" transform="matrix(1.64596 0 0 1.8487 -128.2 -354.9)"/><path fill="#00f" fill-opacity=".3" d="M53.3 5.6h2v9h-2z"/><path fill="none" stroke="#000" stroke-width=".1" d="M110.3 195h1.2v4.8h-1.2z" transform="matrix(1.64596 0 0 1.8487 -128.2 -354.9)"/><path fill="#00f" fill-opacity=".3" d="M57 33.3h11.8v2.2H57z"/><path fill="none" stroke="#000" stroke-width=".1" d="M112.5 210h7.2v1.1h-7.2z" transform="matrix(1.64596 0 0 1.8487 -128.2 -354.9)"/><path fill="#00f" fill-opacity=".3" d="M66.7 11h4.7v5.2h-4.7z"/><path fill="none" stroke="#000" stroke-width=".1" d="M118.4 198h2.8v2.7h-2.8z" transform="matrix(1.64596 0 0 1.8487 -128.2 -354.9)"/><path fill="#00f" fill-opacity=".3" d="M67.7 33.3h2.2v2.2h-2.2z"/><path fill="none" stroke="#000" stroke-width=".1" d="M119 210h1.3v1.1H119z" transform="matrix(1.64596 0 0 1.8487 -128.2 -354.9)"/><path fill="#00f" fill-opacity=".3" d="M69.4 33.6h2v12.3h-2z"/><path fill="none" stroke="#000" stroke-width=".1" d="M120 210.1h1.2v6.7H120z" transform="matrix(1.64596 0 0 1.8487 -128.2 -354.9)"/><path fill="#00f" fill-opacity=".3" d="M69.9 31.6h2v3.9h-2z"/><path fill="none" stroke="#000" stroke-width=".1" d="M120.3 209h1.2v2.1h-1.2z" transform="matrix(1.64596 0 0 1.8487 -128.2 -354.9)"/><path fill="#00f" fill-opacity=".3" d="M71.9 31.6h10v2.2h-10z"/><path fill="none" stroke="#000" stroke-width=".1" d="M121.5 209h6.1v1.2h-6z" transform="matrix(1.64596 0 0 1.8487 -128.2 -354.9)"/><path fill="#00f" fill-opacity=".3" d="M75.3 57.3h30v2.2h-30z"/><path fill="none" stroke="#000" stroke-width=".1" d="M123.6 223H142v1.1h-18.3z" transform="matrix(1.64596 0 0 1.8487 -128.2 -354.9)"/><path fill="#00f" fill-opacity=".3" d="M75.3 9.2h30v2.2h-30z"/><path fill="none" stroke="#000" stroke-width=".1" d="M123.6 197H142v1.1h-18.3z" transform="matrix(1.64596 0 0 1.8487 -128.2 -354.9)"/><path fill="#00f" fill-opacity=".3" d="M81.9 31.6h2v3.9h-2z"/><path fill="none" stroke="#000" stroke-width=".1" d="M127.6 209h1.2v2.1h-1.2z" transform="matrix(1.64596 0 0 1.8487 -128.2 -354.9)"/><path fill="#00f" fill-opacity=".3" d="M82.8 33.3h9.4v2.2h-9.4z"/><path fill="none" stroke="#000" stroke-width=".1" d="M128.2 210h5.7v1.1h-5.7z" transform="matrix(1.64596 0 0 1.8487 -128.2 -354.9)"/><path fill="#00f" fill-opacity=".3" d="M104.1 8.3h4.6v5.2h-4.6z"/><path fill="none" stroke="#000" stroke-width=".1" d="M141.1 196.4h2.8v2.8h-2.8z" transform="matrix(1.64596 0 0 1.8487 -128.2 -354.9)"/><path fill="#00f" fill-opacity=".3" d="M104.1.3h2v12.3h-2z"/><path fill="none" stroke="#000" stroke-width=".1" d="M141.1 192.1h1.2v6.7h-1.2z" transform="matrix(1.64596 0 0 1.8487 -128.2 -354.9)"/><path fill="#00f" fill-opacity=".3" d="M105.2 10.3h30v2.2h-30z"/><path fill="none" stroke="#000" stroke-width=".1" d="M141.8 197.5H160v1.2h-18.2z" transform="matrix(1.64596 0 0 1.8487 -128.2 -354.9)"/><path fill="#00f" fill-opacity=".3" d="M109.8 54.6h4.6v5.1h-4.6z"/><path fill="none" stroke="#000" stroke-width=".1" d="M144.6 221.5h2.8v2.8h-2.8z" transform="matrix(1.64596 0 0 1.8487 -128.2 -354.9)"/><path fill="#00f" fill-opacity=".3" d="M109.8 37.6h4.6v5.1h-4.6z"/><path fill="none" stroke="#000" stroke-width=".1" d="M144.6 212.3h2.8v2.8h-2.8z" transform="matrix(1.64596 0 0 1.8487 -128.2 -354.9)"/><path fill="#00f" fill-opacity=".3" d="M113.1 57.3h13.6v2.2h-13.6z"/><path fill="none" stroke="#000" stroke-width=".1" d="M146.6 223h8.3v1.1h-8.3z" transform="matrix(1.64596 0 0 1.8487 -128.2 -354.9)"/><path fill="#00f" fill-opacity=".3" d="M113.1 37.8h13.6V40h-13.6z"/><path fill="none" stroke="#000" stroke-width=".1" d="M146.6 212.4h8.3v1.2h-8.3z" transform="matrix(1.64596 0 0 1.8487 -128.2 -354.9)"/><path fill="#00f" fill-opacity=".3" d="M133.1.3h2v22.2h-2z"/><path fill="none" stroke="#000" stroke-width=".1" d="M158.8 192.1h1.2v12h-1.2z" transform="matrix(1.64596 0 0 1.8487 -128.2 -354.9)"/><path fill="#00f" fill-opacity=".3" d="M133.8 37.8H165V40h-31.2z"/><path fill="none" stroke="#000" stroke-width=".1" d="M159.2 212.4H178v1.2h-19z" transform="matrix(1.64596 0 0 1.8487 -128.2 -354.9)"/><path fill="#00f" fill-opacity=".3" d="M133.8 57.3H165v2.2h-31.2z"/><path fill="none" stroke="#000" stroke-width=".1" d="M159.2 223H178v1.1h-19z" transform="matrix(1.64596 0 0 1.8487 -128.2 -354.9)"/><path fill="#00f" fill-opacity=".3" d="M.1 14.2h4.6v5.1H.1z"/><path fill="none" stroke="#000" stroke-width=".1" d="M78 199.6h2.8v2.8H78z" transform="matrix(1.64596 0 0 1.8487 -128.2 -354.9)"/><path fill="#00f" fill-opacity=".3" d="M.1 14.2h4.6v5.1H.1z"/><path fill="none" stroke="#000" stroke-width=".1" d="M78 199.6h2.8v2.8H78z" transform="matrix(1.64596 0 0 1.8487 -128.2 -354.9)"/><path fill="#00f" fill-opacity=".3" d="M4.7 14.2h17.9v2.2H4.7z"/><path fill="none" stroke="#000" stroke-width=".1" d="M80.8 199.6h10.8v1.2H80.8z" transform="matrix(1.64596 0 0 1.8487 -128.2 -354.9)"/><path fill="#00f" fill-opacity=".3" d="M5 34.9h17.6V37H4.9z"/><path fill="none" stroke="#000" stroke-width=".1" d="M80.9 210.8h10.7v1.2H80.9z" transform="matrix(1.64596 0 0 1.8487 -128.2 -354.9)"/><path fill="#00f" fill-opacity=".3" d="M7.9 14.2H19v2.2H7.9z"/><path fill="none" stroke="#000" stroke-width=".1" d="M82.7 199.6h6.8v1.2h-6.8z" transform="matrix(1.64596 0 0 1.8487 -128.2 -354.9)"/><path fill="#00f" fill-opacity=".3" d="M7.9 29.2H19v2.2H7.9z"/><path fill="none" stroke="#000" stroke-width=".1" d="M82.7 207.7h6.8v1.2h-6.8z" transform="matrix(1.64596 0 0 1.8487 -128.2 -354.9)"/><path fill="#00f" fill-opacity=".3" d="M7.9 8.5H19v2.2H7.9z"/><path fill="none" stroke="#000" stroke-width=".1" d="M82.7 196.5h6.8v1.2h-6.8z" transform="matrix(1.64596 0 0 1.8487 -128.2 -354.9)"/><path fill="#00f" fill-opacity=".3" d="M7.9 29.2H24v2.2H8z"/><path fill="none" stroke="#000" stroke-width=".1" d="M82.7 207.7h9.8v1.2h-9.8z" transform="matrix(1.64596 0 0 1.8487 -128.2 -354.9)"/><path fill="#00f" fill-opacity=".3" d="M10.3 8.5h6.4v2.2h-6.4z"/><path fill="none" stroke="#000" stroke-width=".1" d="M84.1 196.5H88v1.2h-3.9z" transform="matrix(1.64596 0 0 1.8487 -128.2 -354.9)"/><path fill="#00f" fill-opacity=".3" d="M10.3 14.2h6.4v2.2h-6.4z"/><path fill="none" stroke="#000" stroke-width=".1" d="M84.1 199.6H88v1.2h-3.9z" transform="matrix(1.64596 0 0 1.8487 -128.2 -354.9)"/><path fill="#00f" fill-opacity=".3" d="M10.3 34.9h6.4V37h-6.4z"/><path fill="none" stroke="#000" stroke-width=".1" d="M84.1 210.8H88v1.2h-3.9z" transform="matrix(1.64596 0 0 1.8487 -128.2 -354.9)"/><path fill="#00f" fill-opacity=".3" d="M10.3 29.2h6.4v2.2h-6.4z"/><path fill="none" stroke="#000" stroke-width=".1" d="M84.1 207.7H88v1.2h-3.9z" transform="matrix(1.64596 0 0 1.8487 -128.2 -354.9)"/><path fill="#00f" fill-opacity=".3" d="M12.7 51.2h5V57h-5z"/><path fill="none" stroke="#000" stroke-width=".1" d="M85.6 219.7h3v3h-3z" transform="matrix(1.64596 0 0 1.8487 -128.2 -354.9)"/><path fill="#00f" fill-opacity=".3" d="M13 51.5h4.5v5.2H13z"/><path fill="none" stroke="#000" stroke-width=".1" d="M85.7 219.8h2.8v2.8h-2.8z" transform="matrix(1.64596 0 0 1.8487 -128.2 -354.9)"/><path fill="#00f" fill-opacity=".3" d="M19.7 54.6H40v2.2H19.7z"/><path fill="none" stroke="#000" stroke-width=".1" d="M89.9 221.5H102v1.2H90z" transform="matrix(1.64596 0 0 1.8487 -128.2 -354.9)"/><path fill="#00f" fill-opacity=".3" d="M22.6 3h2v13.4h-2z"/><path fill="none" stroke="#000" stroke-width=".1" d="M91.6 193.5h1.2v7.3h-1.2z" transform="matrix(1.64596 0 0 1.8487 -128.2 -354.9)"/><path fill="#00f" fill-opacity=".3" d="M27.4 12.3h2v25.8h-2z"/><path fill="none" stroke="#000" stroke-width=".1" d="M94.5 198.6h1.2v14h-1.2z" transform="matrix(1.64596 0 0 1.8487 -128.2 -354.9)"/><path fill="#00f" fill-opacity=".3" d="M28 54.6h12v2.2H28z"/><path fill="none" stroke="#000" stroke-width=".1" d="M95 221.5h7.1v1.2H95z" transform="matrix(1.64596 0 0 1.8487 -128.2 -354.9)"/><path fill="#00f" fill-opacity=".3" d="M28 35.8h12v2.3H28z"/><path fill="none" stroke="#000" stroke-width=".1" d="M95 211.3h7.1v1.2H95z" transform="matrix(1.64596 0 0 1.8487 -128.2 -354.9)"/><path fill="#00f" fill-opacity=".3" d="M28 12.3h12v2.2H28z"/><path fill="none" stroke="#000" stroke-width=".1" d="M95 198.6h7.1v1.2H95z" transform="matrix(1.64596 0 0 1.8487 -128.2 -354.9)"/><path fill="#00f" fill-opacity=".3" d="M29.4 12.3h10.5v2.2H29.4z"/><path fill="none" stroke="#000" stroke-width=".1" d="M95.7 198.6h6.4v1.2h-6.4z" transform="matrix(1.64596 0 0 1.8487 -128.2 -354.9)"/><path fill="#00f" fill-opacity=".3" d="M29.4 35.8h10.5v2.3H29.4z"/><path fill="none" stroke="#000" stroke-width=".1" d="M95.7 211.3h6.4v1.2h-6.4z" transform="matrix(1.64596 0 0 1.8487 -128.2 -354.9)"/><path fill="#00f" fill-opacity=".3" d="M30.5 12.3h7v2.2h-7z"/><path fill="none" stroke="#000" stroke-width=".1" d="M96.4 198.6h4.3v1.2h-4.3z" transform="matrix(1.64596 0 0 1.8487 -128.2 -354.9)"/><path fill="#00f" fill-opacity=".3" d="M30.5 35.8h7v2.3h-7z"/><path fill="none" stroke="#000" stroke-width=".1" d="M96.4 211.3h4.3v1.2h-4.3z" transform="matrix(1.64596 0 0 1.8487 -128.2 -354.9)"/><path fill="#00f" fill-opacity=".3" d="M30.5 54.6h7v2.2h-7z"/><path fill="none" stroke="#000" stroke-width=".1" d="M96.4 221.5h4.3v1.2h-4.3z" transform="matrix(1.64596 0 0 1.8487 -128.2 -354.9)"/><path fill="#00f" fill-opacity=".3" d="M53.3 5h4.6v5.2h-4.6z"/><path fill="none" stroke="#000" stroke-width=".1" d="M110.3 194.7h2.8v2.8h-2.8z" transform="matrix(1.64596 0 0 1.8487 -128.2 -354.9)"/><path fill="#00f" fill-opacity=".3" d="M57 24.4h11.8v2.2H57z"/><path fill="none" stroke="#000" stroke-width=".1" d="M112.5 205.1h7.2v1.2h-7.2z" transform="matrix(1.64596 0 0 1.8487 -128.2 -354.9)"/><path fill="#00f" fill-opacity=".3" d="M66.7 43.6h4.7v5.2h-4.7z"/><path fill="none" stroke="#000" stroke-width=".1" d="M118.4 215.5h2.8v2.8h-2.8z" transform="matrix(1.64596 0 0 1.8487 -128.2 -354.9)"/><path fill="#00f" fill-opacity=".3" d="M67.7 24.4h2.2v2.2h-2.2z"/><path fill="none" stroke="#000" stroke-width=".1" d="M119 205.1h1.3v1.2H119z" transform="matrix(1.64596 0 0 1.8487 -128.2 -354.9)"/><path fill="#00f" fill-opacity=".3" d="M69.4 13.9h2v12.4h-2z"/><path fill="none" stroke="#000" stroke-width=".1" d="M120 199.5h1.2v6.7H120z" transform="matrix(1.64596 0 0 1.8487 -128.2 -354.9)"/><path fill="#00f" fill-opacity=".3" d="M69.9 24.4h2v3.9h-2z"/><path fill="none" stroke="#000" stroke-width=".1" d="M120.3 205.1h1.2v2.1h-1.2z" transform="matrix(1.64596 0 0 1.8487 -128.2 -354.9)"/><path fill="#00f" fill-opacity=".3" d="M71.9 26h10v2.3h-10z"/><path fill="none" stroke="#000" stroke-width=".1" d="M121.5 206h6.1v1.2h-6z" transform="matrix(1.64596 0 0 1.8487 -128.2 -354.9)"/><path fill="#00f" fill-opacity=".3" d="M75.3 48.4h30v2.2h-30z"/><path fill="none" stroke="#000" stroke-width=".1" d="M123.6 218.1H142v1.2h-18.3z" transform="matrix(1.64596 0 0 1.8487 -128.2 -354.9)"/><path fill="#00f" fill-opacity=".3" d="M75.3.3h30v2.3h-30z"/><path fill="none" stroke="#000" stroke-width=".1" d="M123.6 192.1H142v1.2h-18.3z" transform="matrix(1.64596 0 0 1.8487 -128.2 -354.9)"/><path fill="#00f" fill-opacity=".3" d="M81.9 24.4h2v3.9h-2z"/><path fill="none" stroke="#000" stroke-width=".1" d="M127.6 205.1h1.2v2.1h-1.2z" transform="matrix(1.64596 0 0 1.8487 -128.2 -354.9)"/><path fill="#00f" fill-opacity=".3" d="M82.8 24.4h9.4v2.2h-9.4z"/><path fill="none" stroke="#000" stroke-width=".1" d="M128.2 205.1h5.7v1.2h-5.7z" transform="matrix(1.64596 0 0 1.8487 -128.2 -354.9)"/><path fill="#00f" fill-opacity=".3" d="M104.1 47.2h2v12.3h-2z"/><path fill="none" stroke="#000" stroke-width=".1" d="M141.1 217.5h1.2v6.6h-1.2z" transform="matrix(1.64596 0 0 1.8487 -128.2 -354.9)"/><path fill="#00f" fill-opacity=".3" d="M104.2 46.4h4.6v5.2h-4.6z"/><path fill="none" stroke="#000" stroke-width=".1" d="M141.2 217h2.8v2.9h-2.8z" transform="matrix(1.64596 0 0 1.8487 -128.2 -354.9)"/><path fill="#00f" fill-opacity=".3" d="M105.2 47.4h30v2.2h-30z"/><path fill="none" stroke="#000" stroke-width=".1" d="M141.8 217.6H160v1.2h-18.2z" transform="matrix(1.64596 0 0 1.8487 -128.2 -354.9)"/><path fill="#00f" fill-opacity=".3" d="M109.8.1h4.6v5.2h-4.6z"/><path fill="none" stroke="#000" stroke-width=".1" d="M144.6 192h2.8v2.8h-2.8z" transform="matrix(1.64596 0 0 1.8487 -128.2 -354.9)"/><path fill="#00f" fill-opacity=".3" d="M109.8 17.6h4.6v5.2h-4.6z"/><path fill="none" stroke="#000" stroke-width=".1" d="M144.6 201.5h2.8v2.8h-2.8z" transform="matrix(1.64596 0 0 1.8487 -128.2 -354.9)"/><path fill="#00f" fill-opacity=".3" d="M113.1 20.3h13.6v2.2h-13.6z"/><path fill="none" stroke="#000" stroke-width=".1" d="M146.6 203h8.3v1.1h-8.3z" transform="matrix(1.64596 0 0 1.8487 -128.2 -354.9)"/><path fill="#00f" fill-opacity=".3" d="M113.4.3H127v2.3h-13.6z"/><path fill="none" stroke="#000" stroke-width=".1" d="M146.8 192.1h8.2v1.2h-8.2z" transform="matrix(1.64596 0 0 1.8487 -128.2 -354.9)"/><path fill="#00f" fill-opacity=".3" d="M133.1 37.8h2v21.7h-2z"/><path fill="none" stroke="#000" stroke-width=".1" d="M158.8 212.4h1.2v11.7h-1.2z" transform="matrix(1.64596 0 0 1.8487 -128.2 -354.9)"/><path fill="#00f" fill-opacity=".3" d="M133.8.3H165v2.3h-31.2z"/><path fill="none" stroke="#000" stroke-width=".1" d="M159.2 192.1H178v1.2h-19z" transform="matrix(1.64596 0 0 1.8487 -128.2 -354.9)"/><path fill="#00f" fill-opacity=".3" d="M133.8 20.3H165v2.2h-31.2z"/><path fill="none" stroke="#000" stroke-width=".1" d="M159.2 203H178v1.1h-19z" transform="matrix(1.64596 0 0 1.8487 -128.2 -354.9)"/><path fill="#e83448" stroke="#000" stroke-width="0" d="M110 199c0 .4-.3.7-.7.7-.4 0-.7-.3-.7-.7 0-.3.3-.7.7-.7.4 0 .8.4.8.7zM119 205.6c0 .4-.3.7-.8.7-.4 0-.7-.3-.7-.7 0-.3.3-.7.7-.7.5 0 .8.4.8.7zM127.7 206.7c0 .4-.3.7-.7.7-.5 0-.8-.3-.8-.7 0-.4.3-.7.8-.7.4 0 .7.3.7.7zM136 218.7c0 .4-.3.7-.7.7-.4 0-.7-.3-.7-.7 0-.4.3-.7.7-.7.4 0 .8.3.8.7zM123 216.8c0 .3-.4.7-.8.7s-.7-.4-.7-.7c0-.4.3-.7.7-.7.4 0 .8.3.8.7zM127.7 209.6c0 .4-.3.7-.7.7-.5 0-.8-.3-.8-.7 0-.3.3-.6.8-.6.4 0 .7.3.7.6zM136 223.3c0 .3-.4.6-.8.6s-.7-.3-.7-.6c0-.4.3-.7.7-.7.4 0 .8.3.8.7z" transform="matrix(1.61641 0 0 1.8487 -128.2 -354.9)"/><text style="-inkscape-font-specification:Arial" font-family="Arial" font-size="3.8" font-weight="400" transform="matrix(1.64596 0 0 1.84205 46.6 10.5)"><tspan x="0" y="0">a</tspan></text><text style="-inkscape-font-specification:Arial" font-family="Arial" font-size="3.8" font-weight="400" transform="matrix(1.64596 0 0 1.84205 61 22.2)"><tspan x="0" y="0">b</tspan></text><text style="-inkscape-font-specification:Arial" font-family="Arial" font-size="3.8" font-weight="400" transform="matrix(1.64596 0 0 1.84205 66.9 54.2)"><tspan x="0" y="0">d</tspan></text><text style="-inkscape-font-specification:Arial" font-family="Arial" font-size="3.8" font-weight="400" transform="matrix(1.64596 0 0 1.84205 88.7 46.6)"><tspan x="0" y="0">e</tspan></text><text style="-inkscape-font-specification:Arial" font-family="Arial" font-size="3.8" font-weight="400" transform="matrix(1.64596 0 0 1.84205 65.3 40.6)"><tspan x="0" y="0">c</tspan></text><path fill="#e83448" stroke="#000" stroke-width="0" d="M123.5 213.4c0 .4-.3.7-.7.7-.4 0-.7-.3-.7-.7 0-.4.3-.7.7-.7.4 0 .8.3.8.7z" transform="matrix(1.61641 0 0 1.8487 -128.2 -354.9)"/><text style="-inkscape-font-specification:Arial" font-family="Arial" font-size="3.8" font-weight="400" transform="matrix(1.64596 0 0 1.84205 89.5 65.9)"><tspan x="0" y="0">f</tspan></text><text style="-inkscape-font-specification:Arial" font-family="Arial" font-size="3.8" font-weight="400" transform="matrix(1.64596 0 0 1.84205 77 23.6)"><tspan x="0" y="0">g</tspan></text><text style="-inkscape-font-specification:Arial" font-family="Arial" font-size="3.8" font-weight="400" transform="matrix(1.64596 0 0 1.84205 78.2 40)"><tspan x="0" y="0">h</tspan></text></svg>
