<svg xmlns="http://www.w3.org/2000/svg" width="438.8" height="1036.7">
  <path d="M167.3 627.3v50.8h83v-50.8z" fill="#c90" fill-rule="evenodd"/>
  <path d="M125.5 520.2v42.1h62.2v-42z" fill="none" stroke="#000" stroke-width="1.8" stroke-linecap="round" transform="matrix(1.33333 0 0 1.20585 0 0)"/>
  <path d="M195 678.1v357.5h55.3V678z" fill="#c90" fill-rule="evenodd"/>
  <path d="M146.2 562.3v296.5h41.5V562.3z" fill="none" stroke="#000" stroke-width="1.8" stroke-linecap="round" transform="matrix(1.33333 0 0 1.20585 0 0)"/>
  <path d="M195 103.6v523.7h55.3V103.6z" fill="#c90" fill-rule="evenodd"/>
  <path d="M146.2 86v434.2h41.5V86z" fill="none" stroke="#000" stroke-width="1.8" stroke-linecap="round" transform="matrix(1.33333 0 0 1.20585 0 0)"/>
  <path d="M250.3 592.5v54.4h138.5v-54.4z" fill="#c90" fill-rule="evenodd"/>
  <path d="M187.7 491.3v45.2h103.9v-45.2z" fill="none" stroke="#000" stroke-width="1.8" stroke-linecap="round" transform="matrix(1.33333 0 0 1.20585 0 0)"/>
  <path d="M1.1 597.5v438h54.7v-438z" fill="#c90" fill-rule="evenodd"/>
  <path d="M.9 495.5v363.3h41V495.5z" fill="none" stroke="#000" stroke-width="1.8" stroke-linecap="round" transform="matrix(1.33333 0 0 1.20585 0 0)"/>
  <path d="M388.8 581.2v454.4h48.9V581.2z" fill="#c90" fill-rule="evenodd"/>
  <path d="M291.6 482v376.8h36.7V482z" fill="none" stroke="#000" stroke-width="1.8" stroke-linecap="round" transform="matrix(1.33333 0 0 1.20585 0 0)"/>
  <path d="M388.8 120v477.5h48.9V120z" fill="#c90" fill-rule="evenodd"/>
  <path d="M291.6 99.5v396h36.7v-396z" fill="none" stroke="#000" stroke-width="1.8" stroke-linecap="round" transform="matrix(1.33333 0 0 1.20585 0 0)"/>
  <text transform="matrix(1.33333 0 0 1.20585 206.5 377.8)" style="-inkscape-font-specification:Arial" font-weight="400" font-size="43.3" font-family="Arial">
    <tspan x="0" y="0">A</tspan><tspan x="0" y="397">B</tspan><tspan x="136.7" y="0">C</tspan><tspan x="140.99338 -150.23888" y="397">DE</tspan><tspan x="72.8" y="219.9">F</tspan>
  </text>
  <path d="M152 46.5l166.4.3c.6 0 1.1.5 1.1 1.2 0 .6-.5 1.2-1.1 1.2L152 49c-.8 0-1.3-.5-1.3-1.2 0-.6.5-1.2 1.3-1.2zm13.8 10.7l-16.2-9.5 16.2-9.5c.5-.2 1.3-.1 1.6.5.4.6.2 1.4-.4 1.6l-14.5 8.4v-2L167 55c.6.3.7 1.1.4 1.7-.3.5-1 .7-1.6.4zm138.7-18.7l16.3 9.5-16.3 9.5c-.6.2-1.3.1-1.6-.5-.3-.6-.2-1.3.4-1.6l14.4-8.4v2l-14.3-8.4c-.6-.3-.8-1-.5-1.6.3-.6 1-.8 1.6-.5z" fill="#cc9800" stroke="#cc9800" stroke-width=".3" stroke-linejoin="bevel" transform="matrix(1.33333 0 0 1.20585 0 0)"/>
  <text transform="matrix(1.33333 0 0 1.20585 309.7 37.4)" style="-inkscape-font-specification:Arial" font-weight="400" font-size="43.3" font-family="Arial">
    <tspan x="0" y="0">b</tspan>
  </text>
</svg>
