<svg xmlns="http://www.w3.org/2000/svg" width="448.8" height="119.6"><path fill="green" fill-opacity=".4" d="M3 34h8.8v17H3zm0 17h7.7v40.8H3zm8.8-5h14.9v5H11.8zM21 75h5v31.7h-5zM0 0h135.4v13H0z"/><path fill="green" fill-opacity=".4" d="M26.7 43.4h5v2.7h-5z"/><path fill="green" fill-opacity=".4" d="M26.7 46h5v7.7h-5zm21.5-7.3h6.3v19.6h-6.3zm.2-25.7h5v13.3h-5zM50 73.1h4.9v21h-5zm4.9 9.9h32.5v5H55zm17.5-19.8h5V71h-5zm0-2.6h5v2.6h-5zm15 22.4h3.8v5h-3.8zm3.8 0h21.6v5H91.2zM99 31.6h5v7.6h-5zm0 7.6h5V42h-5zm5-4.9h8.8v5H104z"/><path fill="green" fill-opacity=".4" d="M112.8 77.7h7.6V88h-7.6zm0-43.4h5v43.4h-5zm2.6 53.7h5v10.7h-5zm5-10.3h5.5v5h-5.5zm12.9-31.2h26.3v5h-26.3zM144 88.4h5v18.3h-5zM154.7 22h6.6v5h-6.6zm0 5h5v19.5h-5zm4.5 79.7h48v13h-48zm2.1-86.7h10.3v7h-10.3zm10.3 2h18.1v5h-18zm8.2 22.2h6.9v5h-6.9zM184 70h7.6v10.4H184z"/><path fill="green" fill-opacity=".4" d="M184 63.4h5v6.7h-5zm2.7 17h5V91h-5zm3-58.4h5v17h-5zm5 12h11v4.9h-11zm8.7 20h10v5h-10zm0 5h5v23.7h-5zm2.3-25h6.7v4.9h-6.7zm1.5 72.7h241.6v13H207.2zm1.2-29h9.1v5h-9.1zm4-43.7h7.4v4.9h-7.4z"/><path fill="green" fill-opacity=".4" d="M213.3 54h16.4v5h-16.4zm1.6-27h5v7h-5zm0-5H260v5h-45.1zm2.6 55.7h7.6v7.6h-7.6z"/><path fill="green" fill-opacity=".4" d="M225.1 80.4h23.6v5H225zm9.2-14.1h4.6V69h-4.6zm.4-22.1h4.2v5h-4.2zm4.3 0h6v5h-6z"/><path fill="green" fill-opacity=".4" d="M240.4 49.1h4.6v3h-4.6zm4.6-1.9h43v5h-43zm3.7 33.2h19.5v5h-19.5zM260 22h17.7v5H260zm8.2 58.4h5v10.3h-5z"/><path fill="green" fill-opacity=".4" d="M273.1 85.7h5v5h-5zM287.6 24h7.6v5h-7.6zm.4 23.2h5v31.3h-5zm2.3-34.2h5v11h-5zm2.7 60.5h5.3v5H293z"/><path fill="green" fill-opacity=".4" d="M295.2 24h2.7v5h-2.7zm8.6 61.7h6v5h-6zm1-8.4h4.3v5h-4.3zm0 5h5v3.4h-5zm.7-31.3h2.7v5h-2.7zm3.6 26.3h4.6v5h-4.6zM310 0h92.4v13H310zm3.1 48.4h5v10.3h-5z"/><path fill="green" fill-opacity=".4" d="M313.7 77.3h10.9v5h-10.9zm4.3-23.6h14.6v5H318zm6.6 23.6h5v11.8h-5z"/><path fill="green" fill-opacity=".4" d="M329.5 84.2H352v5h-22.5zM331 29h5v2.6h-5zm1.6 24.7H347v5h-14.4zm11.8 19.8h2.6v5h-2.6zm2.6-19.8h5v30.5h-5zm5 19.8h2.7v5H352zm17.5-14.8h7.6v48h-7.6zm0-27.8h5v18.6h-5zm5 13.7h7v5h-7zm22 0h22v5h-22zm2-31.6h5v24h-5zm1.1 45.3h5v48.4h-5zm18.9-13.7h5v7.6h-5zm0-2.6h5v2.6h-5zm7.5 27h5v37.7h-5zm0-56h5v14h-5zm14.2 5h5v2.6h-5zm0 24h5.5v28.7h-5.5zm0-21.4h5.5V42h-5.5z"/><path fill="red" fill-opacity=".4" d="M15.6 58.7H27V69H15.6zM0 106.7h159.2v13H0zM21 13h5v23.2h-5zm15.6 44.1h5v24h-5zm0-23.1h5v23h-5z"/><path fill="red" fill-opacity=".4" d="M41.5 63.2h30.9v5H41.5zm4.2-36.9h7.6v5h-7.6z"/><path fill="red" fill-opacity=".4" d="M53.3 26.3H56v5h-2.7zm12.2 20.6h22.7v5H65.5zm13 47.6h5v12.2h-5zm9.7-47.6h4.4v5h-4.4z"/><path fill="red" fill-opacity=".4" d="M92.6 46.9h7.6v5h-7.6zm4.9 21.3h7.6v5h-7.6zm2.7-21.3h5v21.3h-5zm4.9 21.3h2.7v5h-2.7zm17.6-11.8h52.2v5h-52.2zm3.3 21.3h21.2v5H126zM135.4 0H235v13h-99.5zm4 33.1h7.6v5h-7.6zM142 13h5v20h-5zm5 20.1h2.7v5H147zm.2 44.6h26.9v5h-26.9zM164.6 32h5.3v5h-5.3zm5.4 0h4.9v24.4h-5z"/><path fill="red" fill-opacity=".4" d="M172.2 61.3h2.7v.8h-2.7zm1.8 16.4h5v16h-5zm.9-20.6h9.1v5h-9.1zm9.1 0h5v6.3h-5zm2.7-12.9h5.7v5h-5.7zm5.7 0h9.5v5h-9.5zm5.6 43.4h2.8v5H198zm1.6-63.6h7.6v5h-7.6zm1.2 63.6h7.6v5h-7.6zm0 5h5v14h-5zm1.2-48.4h7.7v5H202zm.3-31.2h5v11h-5zm4.9 11h2.7v5h-2.7zm2.5 20.2h10.1v5h-10zm3.6 19.8h21v5h-21zm11.5-27h5v17h-5zm0-5h7.6v5h-7.6zm7.6 0h8.7v5h-8.7z"/><path fill="red" fill-opacity=".4" d="M234.3 61.3h4.9v5h-5zm.6-61.3H310v13h-75.2z"/><path fill="red" fill-opacity=".4" d="M239.2 61.3h9v5h-9zm9 0h10.3v6.3h-10.3zM253 91h2.6v5H253zm2.6 0h7.6v5h-7.6zm0 5h5v10.7h-5zm2.9-34.7H283v5h-24.5zM277.7 22h5v17h-5zm.3 63.7h25.8v5h-25.7z"/><path fill="red" fill-opacity=".4" d="M282.7 34h17.9v4.9h-18zM298 51h2.6v5h-2.7zm2.6-9.7h5v14.3h-5zm0-7.3h5v7.3h-5zm0 21.6h5v13h-5z"/><path fill="red" fill-opacity=".4" d="M305.5 63.6h10v5h-10zm9.2 23.6h5v19.5h-5z"/><path fill="red" fill-opacity=".4" d="M315.4 63.6h4.6v5h-4.6zm.8-39.6h21.3v5h-21.3zm3.8 39.6h14.5v5H320zm11-42.3h5V24h-5zm3.5 42.3h5v15.6h-5zm1.9 30.4h28.2v5h-28.2zm1.1-70h22.1v5h-22zm22.1 0h5v4.8h-5z"/><path fill="red" fill-opacity=".4" d="M359.6 35.8h5v58.3h-5zm0-7h5v7h-5zm21.9 15.8h6.3v5h-6.3z"/><path fill="red" fill-opacity=".4" d="M383.6 49.5h5v14.9h-5z"/><path fill="red" fill-opacity=".4" d="M387.8 44.6h8.7v5h-8.7zM402.4 0h27v13h-27zm7.6 60h9.2v10.3h-9.1z"/><path fill="red" fill-opacity=".4" d="M412.6 57.1h20.7v5h-20.7zm1.1-30.4h5V37h-5zm0 43.6h5.5V78h-5.5zm5-38.3h9.7v5h-9.7zm9.7 0h5v25.1h-5zm1-32h19.4v13h-19.4zm9.6 70.7h6.7V81H439zm1.2 10.3h5.5v9h-5.5z"/><path stroke="#00f" stroke-width=".133" d="m415.9 6.5.3 25.3m12.4 56 14.3-31.4M407.5 47 402 82.5m5.5-35.5L401 25m27.6-5 14-.8m-14 .8 14.3 11.3M423 59.6l19.4 16.2M183.2 46.7l3.3 20m37.3-.2 29.5-2m-104.5-5.6 40.7-12.2m101 16.2 16.3 25.3m-16.3-25.3L307.2 84M272.5 6.5l54.4 20m-105.6 55 15.3-13.9m32.3-43 23.9-6.1m-17.2 69.7 14.9-25.3M303 37.6l24-11.1M179.4 59.6l17.7-13m93.4 16.3 16.4 17m-85.4-23.3 21.2-6m-21.2 6 20.4-10m-69.5-2.4 17.1 2.5M295.6 76l15.8 3.8m-74.5 3.1-.3-15.3m-53.4-20.9 17-10.3M291 88.2l26 8.8m-21.4-21 11.2 12.2m-92-41.5 13.8-12.2m-42.1 25.8L197 46.7m24.5 9.9 15 11m-9.3-22.1 9.5 18.3M185.1 6.5l18.3 20m-24 33.1 10.1-13M295.6 76l11.6 8m-83.4-17.5 3.4-21m-5.7 11.1 15.3-10m-53.6.1 9-16.2m-5.7 29.8 3-13.6m-.4 39L206 71m-18.2 4.2L206 71m8.8-24.3 12.4-1.2m45.3-39 7.7 24m-11.3-5.9 22.5 1.9m-54.8 41.1 6-17m-15.4-5.1 16.5 18.3m47.9-27.4 7.6 17.1m-8.7 9.4 16.4-9.4M295.6 76l11.3 3.8m0-26.3 18.4 2.7m15.5 30.5 5-10.7m27.5 6.7L372 40.2m1.3 42.5L378 47m-71.1 6.5h8.7m-130.5-47 23.5 20M57 65.7l19.9-16.4M23.4 24.6l15.6 21M21.2 63.8 39 45.5M21.2 63.8 39 69.1M6.9 71.4 23.4 91M39 45.5l10.5-16.7M39 45.5l15.7-16.7m-3.4 19.7L51 19.6m50.5 21L115.2 56M71.1 85.5 75 67"/></svg>