<?xml version="1.0" encoding="UTF-8" standalone="no"?>
<!-- Created with Inkscape (http://www.inkscape.org/) -->

<svg
   xmlns:dc="http://purl.org/dc/elements/1.1/"
   xmlns:cc="http://creativecommons.org/ns#"
   xmlns:rdf="http://www.w3.org/1999/02/22-rdf-syntax-ns#"
   xmlns:svg="http://www.w3.org/2000/svg"
   xmlns="http://www.w3.org/2000/svg"
   xmlns:sodipodi="http://sodipodi.sourceforge.net/DTD/sodipodi-0.dtd"
   xmlns:inkscape="http://www.inkscape.org/namespaces/inkscape"
   version="1.1"
   id="svg26511"
   xml:space="preserve"
   width="336.76013"
   height="257.22519"
   viewBox="0 0 336.76013 257.22519"
   sodipodi:docname="preprocess.svg"
   inkscape:version="0.92.1 r15371"><metadata
     id="metadata26517"><rdf:RDF><cc:Work
         rdf:about=""><dc:format>image/svg+xml</dc:format><dc:type
           rdf:resource="http://purl.org/dc/dcmitype/StillImage" /><dc:title></dc:title></cc:Work></rdf:RDF></metadata><defs
     id="defs26515" /><sodipodi:namedview
     pagecolor="#ffffff"
     bordercolor="#666666"
     borderopacity="1"
     objecttolerance="10"
     gridtolerance="10"
     guidetolerance="10"
     inkscape:pageopacity="0"
     inkscape:pageshadow="2"
     inkscape:window-width="640"
     inkscape:window-height="480"
     id="namedview26513"
     showgrid="false"
     inkscape:zoom="0.91748402"
     inkscape:cx="168.38007"
     inkscape:cy="128.61259"
     inkscape:window-x="1123"
     inkscape:window-y="488"
     inkscape:window-maximized="0"
     inkscape:current-layer="g26519" /><g
     id="g26519"
     inkscape:groupmode="layer"
     inkscape:label="preprocess"
     transform="matrix(1.3333333,0,0,-1.3333333,0,257.22518)"><g
       id="g26521"><g
         id="g26523"
         transform="matrix(1,0,0,-1,0,192.91888)"><path
           d="m 6.902,117.254 h 6.668 v 71 H 6.902 Z"
           style="fill:none;stroke:#000000;stroke-width:0.66666698;stroke-linecap:butt;stroke-linejoin:miter;stroke-miterlimit:4;stroke-dasharray:none;stroke-opacity:1"
           id="path26525"
           inkscape:connector-curvature="0" /></g><g
         id="g26527"
         transform="matrix(1,0,0,-1,0,192.91888)"><path
           d="m 8.902,41.254 h 6.668 v 71 H 8.902 Z"
           style="fill:none;stroke:#000000;stroke-width:0.66666698;stroke-linecap:butt;stroke-linejoin:miter;stroke-miterlimit:4;stroke-dasharray:none;stroke-opacity:1"
           id="path26529"
           inkscape:connector-curvature="0" /></g><g
         id="g26531"
         transform="matrix(1,0,0,-1,0,192.91888)"><path
           d="m 8.902,112.254 h 15.336 v 10 H 8.902 Z"
           style="fill:none;stroke:#000000;stroke-width:0.66666698;stroke-linecap:butt;stroke-linejoin:miter;stroke-miterlimit:4;stroke-dasharray:none;stroke-opacity:1"
           id="path26533"
           inkscape:connector-curvature="0" /></g><g
         id="g26535"
         transform="matrix(1,0,0,-1,0,192.91888)"><path
           d="m 59.57,115.586 h 25.332 v 6.668 H 59.57 Z"
           style="fill:none;stroke:#000000;stroke-width:0.66666698;stroke-linecap:butt;stroke-linejoin:miter;stroke-miterlimit:4;stroke-dasharray:none;stroke-opacity:1"
           id="path26537"
           inkscape:connector-curvature="0" /></g><g
         id="g26539"
         transform="matrix(1,0,0,-1,0,192.91888)"><path
           d="m 59.57,122.254 h 6.668 v 66 H 59.57 Z"
           style="fill:none;stroke:#000000;stroke-width:0.66666698;stroke-linecap:butt;stroke-linejoin:miter;stroke-miterlimit:4;stroke-dasharray:none;stroke-opacity:1"
           id="path26541"
           inkscape:connector-curvature="0" /></g><g
         id="g26543"
         transform="matrix(1,0,0,-1,0,192.91888)"><path
           d="m 61.57,19.254 h 6.668 V 73.918 H 61.57 Z"
           style="fill:none;stroke:#000000;stroke-width:0.66666698;stroke-linecap:butt;stroke-linejoin:miter;stroke-miterlimit:4;stroke-dasharray:none;stroke-opacity:1"
           id="path26545"
           inkscape:connector-curvature="0" /></g><g
         id="g26547"
         transform="matrix(1,0,0,-1,0,192.91888)"><path
           d="m 92.238,79.254 h 10 v 10 h -10 z"
           style="fill:none;stroke:#000000;stroke-width:0.66666698;stroke-linecap:butt;stroke-linejoin:miter;stroke-miterlimit:4;stroke-dasharray:none;stroke-opacity:1"
           id="path26549"
           inkscape:connector-curvature="0" /></g><g
         id="g26551"
         transform="matrix(1,0,0,-1,0,192.91888)"><path
           d="m 112.238,19.254 h 6.664 v 97.332 h -6.664 z"
           style="fill:none;stroke:#000000;stroke-width:0.66666698;stroke-linecap:butt;stroke-linejoin:miter;stroke-miterlimit:4;stroke-dasharray:none;stroke-opacity:1"
           id="path26553"
           inkscape:connector-curvature="0" /></g><g
         id="g26555"
         transform="matrix(1,0,0,-1,0,192.91888)"><path
           d="m 112.238,116.586 h 16 v 10 h -16 z"
           style="fill:none;stroke:#000000;stroke-width:0.66666698;stroke-linecap:butt;stroke-linejoin:miter;stroke-miterlimit:4;stroke-dasharray:none;stroke-opacity:1"
           id="path26557"
           inkscape:connector-curvature="0" /></g><g
         id="g26559"
         transform="matrix(1,0,0,-1,0,192.91888)"><path
           d="m 112.238,126.586 h 6.664 v 66 h -6.664 z"
           style="fill:none;stroke:#000000;stroke-width:0.66666698;stroke-linecap:butt;stroke-linejoin:miter;stroke-miterlimit:4;stroke-dasharray:none;stroke-opacity:1"
           id="path26561"
           inkscape:connector-curvature="0" /></g><g
         id="g26563"
         transform="matrix(1,0,0,-1,0,192.91888)"><path
           d="m 154.238,99.254 h 10 v 10 h -10 z"
           style="fill:none;stroke:#000000;stroke-width:0.66666698;stroke-linecap:butt;stroke-linejoin:miter;stroke-miterlimit:4;stroke-dasharray:none;stroke-opacity:1"
           id="path26565"
           inkscape:connector-curvature="0" /></g><g
         id="g26567"
         transform="matrix(1,0,0,-1,0,192.91888)"><path
           d="m 157.902,67.254 h 40.336 v 6.664 h -40.336 z"
           style="fill:none;stroke:#000000;stroke-width:0.66666698;stroke-linecap:butt;stroke-linejoin:miter;stroke-miterlimit:4;stroke-dasharray:none;stroke-opacity:1"
           id="path26569"
           inkscape:connector-curvature="0" /></g><g
         id="g26571"
         transform="matrix(1,0,0,-1,0,192.91888)"><path
           d="m 162.902,19.254 h 6.668 v 48 h -6.668 z"
           style="fill:none;stroke:#000000;stroke-width:0.66666698;stroke-linecap:butt;stroke-linejoin:miter;stroke-miterlimit:4;stroke-dasharray:none;stroke-opacity:1"
           id="path26573"
           inkscape:connector-curvature="0" /></g><g
         id="g26575"
         transform="matrix(1,0,0,-1,0,192.91888)"><path
           d="m 164.238,101.254 h 7.332 v 8 h -7.332 z"
           style="fill:none;stroke:#000000;stroke-width:0.66666698;stroke-linecap:butt;stroke-linejoin:miter;stroke-miterlimit:4;stroke-dasharray:none;stroke-opacity:1"
           id="path26577"
           inkscape:connector-curvature="0" /></g><g
         id="g26579"
         transform="matrix(1,0,0,-1,0,192.91888)"><path
           d="m 164.902,109.254 h 6.668 v 78 h -6.668 z"
           style="fill:none;stroke:#000000;stroke-width:0.66666698;stroke-linecap:butt;stroke-linejoin:miter;stroke-miterlimit:4;stroke-dasharray:none;stroke-opacity:1"
           id="path26581"
           inkscape:connector-curvature="0" /></g><g
         id="g26583"
         transform="matrix(1,0,0,-1,0,192.91888)"><path
           d="m 171.57,101.254 h 18.668 v 6.664 H 171.57 Z"
           style="fill:none;stroke:#000000;stroke-width:0.66666698;stroke-linecap:butt;stroke-linejoin:miter;stroke-miterlimit:4;stroke-dasharray:none;stroke-opacity:1"
           id="path26585"
           inkscape:connector-curvature="0" /></g><g
         id="g26587"
         transform="matrix(1,0,0,-1,0,192.91888)"><path
           d="m 214.902,111.254 h 10 v 10 h -10 z"
           style="fill:none;stroke:#000000;stroke-width:0.66666698;stroke-linecap:butt;stroke-linejoin:miter;stroke-miterlimit:4;stroke-dasharray:none;stroke-opacity:1"
           id="path26589"
           inkscape:connector-curvature="0" /></g><g
         id="g26591"
         transform="matrix(1,0,0,-1,0,192.91888)"><path
           d="m 215.57,121.254 h 6.668 v 66 h -6.668 z"
           style="fill:none;stroke:#000000;stroke-width:0.66666698;stroke-linecap:butt;stroke-linejoin:miter;stroke-miterlimit:4;stroke-dasharray:none;stroke-opacity:1"
           id="path26593"
           inkscape:connector-curvature="0" /></g><g
         id="g26595"
         transform="matrix(1,0,0,-1,0,192.91888)"><path
           d="m 218.238,19.254 h 6.664 v 92 h -6.664 z"
           style="fill:none;stroke:#000000;stroke-width:0.66666698;stroke-linecap:butt;stroke-linejoin:miter;stroke-miterlimit:4;stroke-dasharray:none;stroke-opacity:1"
           id="path26597"
           inkscape:connector-curvature="0" /></g><g
         id="g26599"
         transform="matrix(1,0,0,-1,0,192.91888)"><path
           d="m 249.57,93.586 h 2.668 v 5.332 h -2.668 z"
           style="fill:none;stroke:#000000;stroke-width:0.66666698;stroke-linecap:butt;stroke-linejoin:miter;stroke-miterlimit:4;stroke-dasharray:none;stroke-opacity:1"
           id="path26601"
           inkscape:connector-curvature="0" /></g><g
         id="g26603"
         transform="matrix(1,0,0,-1,0,192.91888)"><path
           d="m 32.902,94.918 h 10 v 10 h -10 z"
           style="fill:none;stroke:#000000;stroke-width:0.66666698;stroke-linecap:butt;stroke-linejoin:miter;stroke-miterlimit:4;stroke-dasharray:none;stroke-opacity:1"
           id="path26605"
           inkscape:connector-curvature="0" /></g><g
         id="g26607"
         transform="matrix(1,0,0,-1,0,192.91888)"><path
           d="m 34.238,104.918 h 6.664 v 83.336 h -6.664 z"
           style="fill:none;stroke:#000000;stroke-width:0.66666698;stroke-linecap:butt;stroke-linejoin:miter;stroke-miterlimit:4;stroke-dasharray:none;stroke-opacity:1"
           id="path26609"
           inkscape:connector-curvature="0" /></g><g
         id="g26611"
         transform="matrix(1,0,0,-1,0,192.91888)"><path
           d="m 36.238,19.254 h 6.664 v 75.664 h -6.664 z"
           style="fill:none;stroke:#000000;stroke-width:0.66666698;stroke-linecap:butt;stroke-linejoin:miter;stroke-miterlimit:4;stroke-dasharray:none;stroke-opacity:1"
           id="path26613"
           inkscape:connector-curvature="0" /></g><g
         id="g26615"
         transform="matrix(1,0,0,-1,0,192.91888)"><path
           d="m 68.238,67.254 h 24 v 6.664 h -24 z"
           style="fill:none;stroke:#000000;stroke-width:0.66666698;stroke-linecap:butt;stroke-linejoin:miter;stroke-miterlimit:4;stroke-dasharray:none;stroke-opacity:1"
           id="path26617"
           inkscape:connector-curvature="0" /></g><g
         id="g26619"
         transform="matrix(1,0,0,-1,0,192.91888)"><path
           d="m 84.902,115.586 h 6.668 v 72.668 h -6.668 z"
           style="fill:none;stroke:#000000;stroke-width:0.66666698;stroke-linecap:butt;stroke-linejoin:miter;stroke-miterlimit:4;stroke-dasharray:none;stroke-opacity:1"
           id="path26621"
           inkscape:connector-curvature="0" /></g><g
         id="g26623"
         transform="matrix(1,0,0,-1,0,192.91888)"><path
           d="m 84.902,102.586 h 7.336 v 6.668 h -7.336 z"
           style="fill:none;stroke:#000000;stroke-width:0.66666698;stroke-linecap:butt;stroke-linejoin:miter;stroke-miterlimit:4;stroke-dasharray:none;stroke-opacity:1"
           id="path26625"
           inkscape:connector-curvature="0" /></g><g
         id="g26627"
         transform="matrix(1,0,0,-1,0,192.91888)"><path
           d="m 84.902,109.254 h 6.668 v 6.332 h -6.668 z"
           style="fill:none;stroke:#000000;stroke-width:0.66666698;stroke-linecap:butt;stroke-linejoin:miter;stroke-miterlimit:4;stroke-dasharray:none;stroke-opacity:1"
           id="path26629"
           inkscape:connector-curvature="0" /></g><g
         id="g26631"
         transform="matrix(1,0,0,-1,0,192.91888)"><path
           d="m 86.902,19.254 h 6.668 v 48 h -6.668 z"
           style="fill:none;stroke:#000000;stroke-width:0.66666698;stroke-linecap:butt;stroke-linejoin:miter;stroke-miterlimit:4;stroke-dasharray:none;stroke-opacity:1"
           id="path26633"
           inkscape:connector-curvature="0" /></g><g
         id="g26635"
         transform="matrix(1,0,0,-1,0,192.91888)"><path
           d="m 92.238,67.254 h 6.664 v 12 h -6.664 z"
           style="fill:none;stroke:#000000;stroke-width:0.66666698;stroke-linecap:butt;stroke-linejoin:miter;stroke-miterlimit:4;stroke-dasharray:none;stroke-opacity:1"
           id="path26637"
           inkscape:connector-curvature="0" /></g><g
         id="g26639"
         transform="matrix(1,0,0,-1,0,192.91888)"><path
           d="m 92.238,99.254 h 10 v 10 h -10 z"
           style="fill:none;stroke:#000000;stroke-width:0.66666698;stroke-linecap:butt;stroke-linejoin:miter;stroke-miterlimit:4;stroke-dasharray:none;stroke-opacity:1"
           id="path26641"
           inkscape:connector-curvature="0" /></g><g
         id="g26643"
         transform="matrix(1,0,0,-1,0,192.91888)"><path
           d="m 128.238,116.586 h 16 v 10 h -16 z"
           style="fill:none;stroke:#000000;stroke-width:0.66666698;stroke-linecap:butt;stroke-linejoin:miter;stroke-miterlimit:4;stroke-dasharray:none;stroke-opacity:1"
           id="path26645"
           inkscape:connector-curvature="0" /></g><g
         id="g26647"
         transform="matrix(1,0,0,-1,0,192.91888)"><path
           d="m 137.57,19.254 h 6.668 v 97.332 h -6.668 z"
           style="fill:none;stroke:#000000;stroke-width:0.66666698;stroke-linecap:butt;stroke-linejoin:miter;stroke-miterlimit:4;stroke-dasharray:none;stroke-opacity:1"
           id="path26649"
           inkscape:connector-curvature="0" /></g><g
         id="g26651"
         transform="matrix(1,0,0,-1,0,192.91888)"><path
           d="m 137.57,126.586 h 6.668 v 66 h -6.668 z"
           style="fill:none;stroke:#000000;stroke-width:0.66666698;stroke-linecap:butt;stroke-linejoin:miter;stroke-miterlimit:4;stroke-dasharray:none;stroke-opacity:1"
           id="path26653"
           inkscape:connector-curvature="0" /></g><g
         id="g26655"
         transform="matrix(1,0,0,-1,0,192.91888)"><path
           d="m 154.238,71.586 h 10 v 17.668 h -10 z"
           style="fill:none;stroke:#000000;stroke-width:0.66666698;stroke-linecap:butt;stroke-linejoin:miter;stroke-miterlimit:4;stroke-dasharray:none;stroke-opacity:1"
           id="path26657"
           inkscape:connector-curvature="0" /></g><g
         id="g26659"
         transform="matrix(1,0,0,-1,0,192.91888)"><path
           d="m 188.238,19.254 h 6.664 v 48 h -6.664 z"
           style="fill:none;stroke:#000000;stroke-width:0.66666698;stroke-linecap:butt;stroke-linejoin:miter;stroke-miterlimit:4;stroke-dasharray:none;stroke-opacity:1"
           id="path26661"
           inkscape:connector-curvature="0" /></g><g
         id="g26663"
         transform="matrix(1,0,0,-1,0,192.91888)"><path
           d="m 190.238,101.254 h 6.664 v 86 h -6.664 z"
           style="fill:none;stroke:#000000;stroke-width:0.66666698;stroke-linecap:butt;stroke-linejoin:miter;stroke-miterlimit:4;stroke-dasharray:none;stroke-opacity:1"
           id="path26665"
           inkscape:connector-curvature="0" /></g><g
         id="g26667"
         transform="matrix(1,0,0,-1,0,192.91888)"><path
           d="m 190.57,96.918 h 7.668 v 6.668 h -7.668 z"
           style="fill:none;stroke:#000000;stroke-width:0.66666698;stroke-linecap:butt;stroke-linejoin:miter;stroke-miterlimit:4;stroke-dasharray:none;stroke-opacity:1"
           id="path26669"
           inkscape:connector-curvature="0" /></g><g
         id="g26671"
         transform="matrix(1,0,0,-1,0,192.91888)"><path
           d="m 198.238,93.586 h 10 v 10 h -10 z"
           style="fill:none;stroke:#000000;stroke-width:0.66666698;stroke-linecap:butt;stroke-linejoin:miter;stroke-miterlimit:4;stroke-dasharray:none;stroke-opacity:1"
           id="path26673"
           inkscape:connector-curvature="0" /></g><g
         id="g26675"
         transform="matrix(1,0,0,-1,0,192.91888)"><path
           d="m 198.238,67.254 h 10 v 10 h -10 z"
           style="fill:none;stroke:#000000;stroke-width:0.66666698;stroke-linecap:butt;stroke-linejoin:miter;stroke-miterlimit:4;stroke-dasharray:none;stroke-opacity:1"
           id="path26677"
           inkscape:connector-curvature="0" /></g><g
         id="g26679"
         transform="matrix(1,0,0,-1,0,192.91888)"><path
           d="m 234.902,93.586 h 14.668 v 10 h -14.668 z"
           style="fill:none;stroke:#000000;stroke-width:0.66666698;stroke-linecap:butt;stroke-linejoin:miter;stroke-miterlimit:4;stroke-dasharray:none;stroke-opacity:1"
           id="path26681"
           inkscape:connector-curvature="0" /></g><g
         id="g26683"
         transform="matrix(1,0,0,-1,0,192.91888)"><path
           d="m 242.902,103.586 h 6.668 v 83.668 h -6.668 z"
           style="fill:none;stroke:#000000;stroke-width:0.66666698;stroke-linecap:butt;stroke-linejoin:miter;stroke-miterlimit:4;stroke-dasharray:none;stroke-opacity:1"
           id="path26685"
           inkscape:connector-curvature="0" /></g><g
         id="g26687"
         transform="matrix(1,0,0,-1,0,192.91888)"><path
           d="m 245.57,41.254 h 6.668 v 52.332 h -6.668 z"
           style="fill:none;stroke:#000000;stroke-width:0.66666698;stroke-linecap:butt;stroke-linejoin:miter;stroke-miterlimit:4;stroke-dasharray:none;stroke-opacity:1"
           id="path26689"
           inkscape:connector-curvature="0" /></g><g
         id="g26691"
         transform="matrix(1,0,0,-0.653515,0,192.91888)"><path
           d="m 20.352,183.401 c 0,7.741 -4.481,14.017 -10.012,14.017 -5.531,0 -10.016,-6.276 -10.016,-14.017 0,-7.746 4.485,-14.022 10.016,-14.022 5.531,0 10.012,6.276 10.012,14.022 z"
           style="fill:none;stroke:#000000;stroke-width:0.80597401;stroke-linecap:butt;stroke-linejoin:round;stroke-miterlimit:4;stroke-dasharray:3.223897, 3.223897;stroke-dashoffset:0;stroke-opacity:1"
           id="path26693"
           inkscape:connector-curvature="0" /></g><g
         id="g26695"
         transform="matrix(1,0,0,-0.673752,0,192.91888)"><path
           d="m 169.953,105.652 c 0,7.74 -4.484,14.014 -10.012,14.014 -5.527,0 -10.007,-6.274 -10.007,-14.014 0,-7.74 4.48,-14.013 10.007,-14.013 5.528,0 10.012,6.273 10.012,14.013 z"
           style="fill:none;stroke:#000000;stroke-width:0.80558401;stroke-linecap:butt;stroke-linejoin:round;stroke-miterlimit:4;stroke-dasharray:3.222337, 3.222337;stroke-dashoffset:0;stroke-opacity:1"
           id="path26697"
           inkscape:connector-curvature="0" /></g><g
         id="g26699"
         transform="matrix(1,0,0,-0.673752,0,192.91888)"><path
           d="m 203.551,152.15 c 0,7.74 -4.481,14.014 -10.008,14.014 -5.527,0 -10.008,-6.274 -10.008,-14.014 0,-7.74 4.481,-14.013 10.008,-14.013 5.527,0 10.008,6.273 10.008,14.013 z"
           style="fill:none;stroke:#000000;stroke-width:0.80558401;stroke-linecap:butt;stroke-linejoin:round;stroke-miterlimit:4;stroke-dasharray:3.222337, 3.222337;stroke-dashoffset:0;stroke-opacity:1"
           id="path26701"
           inkscape:connector-curvature="0" /></g><g
         id="g26703"
         transform="matrix(1,0,0,-1,0,192.91888)"><path
           d="m 60.941,12.113 h 39.426"
           style="fill:none;stroke:#000000;stroke-width:0.90793598;stroke-linecap:butt;stroke-linejoin:miter;stroke-miterlimit:4;stroke-dasharray:none;stroke-opacity:1"
           id="path26705"
           inkscape:connector-curvature="0" /></g><path
         d="m 65.691,178.606 -5.953,2.188 5.953,2.191 c -0.953,-1.293 -0.945,-3.062 0,-4.379 z"
         style="fill:#000000;fill-opacity:1;fill-rule:evenodd;stroke:none"
         id="path26707"
         inkscape:connector-curvature="0" /><path
         d="m 95.617,183.001 5.953,-2.188 -5.953,-2.191 c 0.949,1.293 0.946,3.063 0,4.379 z"
         style="fill:#000000;fill-opacity:1;fill-rule:evenodd;stroke:none"
         id="path26709"
         inkscape:connector-curvature="0" /><text
         transform="matrix(1,0,0,-0.85998603,79.28261,185.65928)"
         style="font-variant:normal;font-weight:normal;font-size:11.79280853px;font-family:Arial;-inkscape-font-specification:Arial;writing-mode:lr-tb;fill:#000000;fill-opacity:1;fill-rule:nonzero;stroke:none"
         id="text26713"><tspan
           x="0"
           y="0"
           id="tspan26711">b</tspan></text>
<text
         transform="matrix(1,0,0,-0.8698413,105.02323,125.01401)"
         style="font-variant:normal;font-weight:normal;font-size:15.1315279px;font-family:Arial;-inkscape-font-specification:Arial;writing-mode:lr-tb;fill:#0000ff;fill-opacity:1;fill-rule:nonzero;stroke:none"
         id="text26717"><tspan
           x="0"
           y="0"
           id="tspan26715">A</tspan></text>
<text
         transform="matrix(1,0,0,-0.86984123,100.95855,21.807913)"
         style="font-variant:normal;font-weight:normal;font-size:15.13152695px;font-family:Arial;-inkscape-font-specification:Arial;writing-mode:lr-tb;fill:#0000ff;fill-opacity:1;fill-rule:nonzero;stroke:none"
         id="text26721"><tspan
           x="0 43.185379"
           y="0"
           sodipodi:role="line"
           id="tspan26719">BC</tspan></text>
<g
         id="g26723"
         transform="matrix(1,0,0,-1,0,192.91888)"><path
           d="m 118.699,73.738 c 0,1.727 -1.398,3.125 -3.121,3.125 -1.726,0 -3.125,-1.398 -3.125,-3.125 0,-1.726 1.399,-3.125 3.125,-3.125 1.723,0 3.121,1.399 3.121,3.125 z"
           style="fill:#0000ff;fill-opacity:1;fill-rule:nonzero;stroke:#000000;stroke-width:0.80000001;stroke-linecap:butt;stroke-linejoin:round;stroke-miterlimit:4;stroke-dasharray:none;stroke-opacity:1"
           id="path26725"
           inkscape:connector-curvature="0" /></g><g
         id="g26727"
         transform="matrix(1,0,0,-1,0,192.91888)"><path
           d="m 118.984,160.422 c 0,1.726 -1.398,3.125 -3.125,3.125 -1.722,0 -3.121,-1.399 -3.121,-3.125 0,-1.727 1.399,-3.125 3.121,-3.125 1.727,0 3.125,1.398 3.125,3.125 z"
           style="fill:#0000ff;fill-opacity:1;fill-rule:nonzero;stroke:#000000;stroke-width:0.80000001;stroke-linecap:butt;stroke-linejoin:round;stroke-miterlimit:4;stroke-dasharray:none;stroke-opacity:1"
           id="path26729"
           inkscape:connector-curvature="0" /></g><g
         id="g26731"
         transform="matrix(1,0,0,-1,0,192.91888)"><path
           d="m 122.184,122.023 c 0,1.723 -1.399,3.122 -3.121,3.122 -1.727,0 -3.125,-1.399 -3.125,-3.122 0,-1.726 1.398,-3.125 3.125,-3.125 1.722,0 3.121,1.399 3.121,3.125 z"
           style="fill:#0000ff;fill-opacity:1;fill-rule:nonzero;stroke:#000000;stroke-width:0.80000001;stroke-linecap:butt;stroke-linejoin:round;stroke-miterlimit:4;stroke-dasharray:none;stroke-opacity:1"
           id="path26733"
           inkscape:connector-curvature="0" /></g><g
         id="g26735"
         transform="matrix(1,0,0,-1,0,192.91888)"><path
           d="m 138.184,122.023 c 0,1.723 -1.399,3.122 -3.121,3.122 -1.727,0 -3.125,-1.399 -3.125,-3.122 0,-1.726 1.398,-3.125 3.125,-3.125 1.722,0 3.121,1.399 3.121,3.125 z"
           style="fill:#0000ff;fill-opacity:1;fill-rule:nonzero;stroke:#000000;stroke-width:0.80000001;stroke-linecap:butt;stroke-linejoin:round;stroke-miterlimit:4;stroke-dasharray:none;stroke-opacity:1"
           id="path26737"
           inkscape:connector-curvature="0" /></g><g
         id="g26739"
         transform="matrix(1,0,0,-1,0,192.91888)"><path
           d="m 144.586,160.422 c 0,1.726 -1.398,3.125 -3.125,3.125 -1.727,0 -3.125,-1.399 -3.125,-3.125 0,-1.727 1.398,-3.125 3.125,-3.125 1.727,0 3.125,1.398 3.125,3.125 z"
           style="fill:#0000ff;fill-opacity:1;fill-rule:nonzero;stroke:#000000;stroke-width:0.80000001;stroke-linecap:butt;stroke-linejoin:round;stroke-miterlimit:4;stroke-dasharray:none;stroke-opacity:1"
           id="path26741"
           inkscape:connector-curvature="0" /></g><g
         id="g26743"
         transform="matrix(1,0,0,-1,0,192.91888)"><path
           d="m 115.188,76.293 c -0.567,33.512 -1.133,30.672 0,37.488 1.136,6.813 1.136,6.246 1.136,6.246"
           style="fill:none;stroke:#000000;stroke-width:0.80000001;stroke-linecap:butt;stroke-linejoin:miter;stroke-miterlimit:4;stroke-dasharray:none;stroke-opacity:1"
           id="path26745"
           inkscape:connector-curvature="0" /></g><g
         id="g26747"
         transform="matrix(1,0,0,-1,0,192.91888)"><path
           d="m 120.867,122.297 h 11.36"
           style="fill:none;stroke:#000000;stroke-width:0.80000001;stroke-linecap:butt;stroke-linejoin:miter;stroke-miterlimit:4;stroke-dasharray:none;stroke-opacity:1"
           id="path26749"
           inkscape:connector-curvature="0" /></g><g
         id="g26751"
         transform="matrix(1,0,0,-1,0,192.91888)"><path
           d="m 137.906,123.434 c 3.41,5.679 3.41,-3.407 3.41,15.336 v 18.175 0 l 0.567,0.567"
           style="fill:none;stroke:#000000;stroke-width:0.80000001;stroke-linecap:butt;stroke-linejoin:miter;stroke-miterlimit:4;stroke-dasharray:none;stroke-opacity:1"
           id="path26753"
           inkscape:connector-curvature="0" /></g><g
         id="g26755"
         transform="matrix(1,0,0,-1,0,192.91888)"><path
           d="m 116.895,124.004 c -2.274,7.383 -2.274,14.199 -2.274,22.719 v 11.925"
           style="fill:none;stroke:#000000;stroke-width:0.80000001;stroke-linecap:butt;stroke-linejoin:miter;stroke-miterlimit:4;stroke-dasharray:none;stroke-opacity:1"
           id="path26757"
           inkscape:connector-curvature="0" /></g></g></g></svg>