<svg xmlns="http://www.w3.org/2000/svg" width="506.7" height="119.6"><path fill="green" fill-opacity=".4" d="M0 0h506.7v13H0zM13.5 84H27v5H13.5zM0 106.7h195v13H0zM23 13h10.3v6.6H23zM31 30.7h10.3v8.7H31zM31 59.2h10.3v8.4H31zM41.3 34.5h29v5h-29zM41.3 59.2h35v5h-35zM60.4 76h1.9v1.1h-2zM76.3 59.2h9v5h-9zM80.4 34.5h5v24.7h-5zM83.8 13h10.3v6.6H83.8zM93.3 79h21v5h-21zM100.6 58.3h73.3v5h-73.3zM104.8 27.8H115v5h-10.2zM104.8 32.8h5v25.5h-5zM133.3 27.8h4.8v5h-4.8zM133.7 79h21v5h-21z"/><path fill="green" fill-opacity=".4" d="M138 27.8h4.5v5H138zM142.5 27.8h10.3v14h-10.3zM152.8 27.8H199v5h-46.2zM174 64h4.9v9h-5zM174.7 89.7h5.3v5h-5.3zM178.9 68h33.5v5h-33.5zM180 89.7h5v17h-5zM180 48.4h8.4v5H180z"/><path fill="green" fill-opacity=".4" d="M188.4 48.4h1.9v5h-2zM195 106.7H239v13H195zM195.6 32.8h3.4V34h-3.4zM199 29.1h55.3v5H199zM221.5 58.5h8.8v5h-8.8zM223.8 13h10.3v9h-10.3zM230.3 58.5h5.1v5h-5.1zM235.4 58.5h17.4v5h-17.4zM248.2 89.7h5.3v5h-5.3z"/><path fill="green" fill-opacity=".4" d="M251.2 58.7h5V74h-5zM253.5 89.7h5v17h-5zM254.3 29.1h56v5h-56zM256.2 69.1H276v5h-19.8zM275.6 106.7h42.1v13h-42zM276.4 59.2h91.2v5h-91.2zM282.5 89.7h5.3v5h-5.3zM287.8 89.7h5v17h-5zM310.3 29.1h5v14.7h-5z"/><path fill="green" fill-opacity=".4" d="M315.2 38.9h67v5h-67zM317.7 106.7h189v13h-189zM330 86.5h3v5h-3z"/><path fill="green" fill-opacity=".4" d="M333 91h1.9v.4h-2zM333 85.3h10.4V91H333zM343.4 86h20.1v5h-20zM363.6 13H374v10.2h-10.3zM377 70.9h10.2v5H377zM382.3 38.9h5v32h-5zM390 34h2.6v.7h-2.7zM394 13h10.4v5.7H394zM402 61.3h5.4v5h-5.3zM405.1 96h10.3v10.7h-10.3zM407.4 40.4h10.3v5h-10.3z"/><path fill="green" fill-opacity=".4" d="M407.4 45.3h5v16h-5zM407.4 61.3h5v17h-5zM412.4 73.3h26.8v5h-26.8zM436.4 30.7h16v5h-16zM438 96h10.2v10.7h-10.3zM439.2 73.3h7.8v5h-7.8zM447 73.3h5v11.8h-5zM447 55.8h10.3v5H447zM452 80.2h5.3v5H452zM452.4 30.7h5v25.1h-5zM472.2 70.7h10.3v5h-10.3zM472.2 25.3h10.3v5h-10.3z"/><path fill="green" fill-opacity=".4" d="M472.2 75.6h5v31h-5zM474.6 43H485v5h-10.4zM477.5 13h5v12.3h-5z"/><path fill="red" fill-opacity=".4" d="M7.4 18h5.4v4.9H7.4zM12.8 18h5v54.2h-5zM7.4 72.2h10.3v5H7.4z"/><path fill="red" fill-opacity=".4" d="M17.7 44.4h47.6v5H17.7zM23 94h10.3v12.7H23zM52 71.4h8.4v5.7H52zM55.2 22.7h6.3v5h-6.3zM60.4 69.1h104v5h-104z"/><path fill="red" fill-opacity=".4" d="M60.4 74h4.2v2h-4.2zM61.5 22.7h4v1.9h-4zM61.5 24.6h28.8v5H61.5zM70.3 34.5h5v19.8h-5zM80.6 94h10.3v12.7H80.6zM90.3 24.6h5V69h-5zM114.7 41.3h13.5v5h-13.5zM118 89.5h10.4v17.2H118zM119 13h10.3v11.8H119zM146 89.7h23.7v5h-23.6zM148 13h10.3v9H148zM164.8 79.8h7.4v5h-7.4z"/><path fill="red" fill-opacity=".4" d="M164.8 84.8h5v5h-5zM172.2 79.8h5.9v5h-6zM174 58.3h4.9V64h-5zM178 37.7h5.4v5h-5.3z"/><path fill="red" fill-opacity=".4" d="M178 79h10.4v5.8H178zM183.4 37.7h5v10.7h-5z"/><path fill="red" fill-opacity=".4" d="M188.4 79.8H210v5h-21.7zM210 79.8h10.4v13.7H210z"/><path fill="red" fill-opacity=".4" d="M217.7 79h107.8v5H217.7zM231 48.4h17.2v5.1H231zM238.9 106.7h36.7v13H239zM239.4 19h4.8v5h-4.8z"/><path fill="red" fill-opacity=".4" d="M244.2 19h16.2v5h-16.2zM248.2 41.3h10.3v12.2h-10.3zM257 53.5h1.5v.2H257zM258.5 48.8h118.8v5H258.5zM282.5 13h10.3v10.2h-10.3zM297.7 91.4H335v5h-37.2zM313.3 19.2h6.9v5h-6.9zM320.2 19.2h5V34h-5z"/><path fill="red" fill-opacity=".4" d="M325.1 29h16v5h-16zM339.8 96h10.3v10.7h-10.3zM346 29h6.4v5H346zM352.4 29h15.2v5h-15.2zM363.5 86h7v5h-7zM367.6 29h25v5h-25zM370.5 86h10.3v13.8h-10.3z"/><path fill="red" fill-opacity=".4" d="M378 85.3h64v5h-64zM392.2 40.4h10.3v5h-10.3z"/><path fill="red" fill-opacity=".4" d="M392.2 45.3h5v40h-5zM392.6 29.7h24.2v5h-24.2zM416.8 29.7h11.6v5h-11.6zM421.1 63.4h6.5v5h-6.5z"/><path fill="red" fill-opacity=".4" d="M422.7 34.7h5v28.7h-5zM424.2 18H440v4.9h-15.8z"/><path fill="red" fill-opacity=".4" d="M427.6 63.4h3.8v5h-3.8zM440 18h10v4.9h-10z"/><path fill="red" fill-opacity=".4" d="M450 18h12.3v4.9h-12.4zM455.4 91.4h11.8v5h-11.8zM462.3 18h5v73.4h-5z"/><path fill="red" fill-opacity=".4" d="M467.2 43h7.4v5h-7.4zM486.3 55.8h10.5v5h-10.5zM486.5 33.3h5.3v5h-5.3zM491.8 38.7H502V49h-10zM491.8 49h5v6.8h-5zM491.8 33.3h5v5.4h-5z"/><path stroke="#00f" stroke-width=".133" d="M470.9 45.5l20.6 12.8M422.6 32.2L445 20.4M89 16.3l21 14M443 101.3l11.7-18.6M58.4 25.1l14.4 19.3M63.5 23.6l9.3 20.8M380 31.4l14.7 34M112.4 71.6l64-10.4M425.1 49l7-28.6M176.4 68.5l7.8-17.6M112.4 71.6l54.8 15.6M404.7 32.2L432 20.4M333.1 31.4H360M348.8 41.3l42.4-7M394.7 65.3l10-33.1M55.8 37l27 9.9M75.9 27l-3.1 17.4M41.5 46.9l31.3-2.5M112.4 71.6L175 82.3M112.4 71.6l56 10.7M176.4 61.2l9.5-18.2M137.2 60.8l47-10M28.2 16.3l8 18.7M422.6 32.2l9.5-11.8M397.3 42.9l7.4-10.7M380 31.4L397.4 43M384.8 54.9l6.4-20.6M333.1 31.4h16.1M322 61.7l60 11.6M410 87.8l51.3 6.1M443 101.3l6.5-22M443.1 75.8l9-17.5M449.5 79.2l2.7-21M470.9 45.5l18.2-9.7M253.3 6.5l224 21.3M226.7 31.6l2.3-14M97.5 113.1l79.8-21M266 71.6l56-9.9M271.6 81.5L316.3 94M296.7 113.1l-11.6-21M316.3 94l28.7 7.3M345 101.3l22-12.7M195.6 70.5L226 61M477.3 27.8l2.5 17.7M58.8 61.7l2.5 14.9M176.4 68.5l13-17.6"/></svg>
