<svg xmlns="http://www.w3.org/2000/svg" width="57.8" height="18.6" version="1"><path stroke="#00f" stroke-width="0" d="M.8 2.5"/><path stroke="green" stroke-width="0" d="M.8 2.5v2.7M.8 2.5v2.7"/><path stroke="#00f" stroke-width="0" d="M.8 10.8"/><path stroke="green" stroke-width="0" d="M.8 2.5v2.7M.8 2.5v2.7"/><path stroke="#00f" stroke-width="0" d="M.8 2.5l3.3.5M.8 2.5l3.3.5"/><path stroke="green" stroke-width="0" d="M.8 5.2L4.1 3M.8 5.2L4.1 3M.8 2.5l4 2.3M.8 2.5l4 2.3M4.1 3l.6 1.8"/><path stroke="#00f" stroke-width="0" d="M.8 5.2l4-.4M.8 5.2l4-.4"/><path stroke="green" stroke-width="0" d="M.8 10.8l4 .4"/><path stroke="#00f" stroke-width="0" d="M.8 10.8l4 .4"/><path stroke="green" stroke-width="0" d="M.8 2.5l3.8 2.3M.8 2.5l3.8 2.3M4.1 3l.5 1.8"/><path stroke="#00f" stroke-width="0" d="M4.7 4.8"/><path stroke="green" stroke-width="0" d="M.8 5.2l3.8-.4M.8 5.2l3.8-.4M.8 2.5l3.8 4M.8 2.5l3.8 4M4.1 3l.5 3.5M4.7 4.8v1.7M4.6 4.8v1.7M.8 5.2l3.8 1.3M.8 5.2l3.8 1.3M.8 10.8l3.8-4.3M.8 10.8l3.8-4.3M.8 5.2l3.8 4.3M.8 5.2l3.8 4.3M4.6 6.5v3M.8 10.8l3.8-1.3M.8 10.8l3.8-1.3M4.7 11.2V9.5M4.6 9.5V13M.8 10.8L4.6 13M.8 10.8L4.6 13M4.7 11.2V13M4.6 9.5v1.7M.8 10.8l3.8.4M.8 10.8l3.8.4"/><path stroke="#00f" stroke-width="0" d="M4.7 11.2"/><path stroke="green" stroke-width="0" d="M4.6 13v-1.8M.8 2.5l3.8.5M.8 2.5l3.8.5"/><path stroke="#00f" stroke-width="0" d="M4.1 3h.5"/><path stroke="green" stroke-width="0" d="M4.7 4.8V3M4.6 4.8V3M.8 5.2L4.6 3M.8 5.2L4.6 3M4.6 6.5V3M.8 5.2l4.7 4.3M.8 5.2l4.7 4.3M4.6 6.5l1 3"/><path stroke="#00f" stroke-width="0" d="M4.6 9.5h1"/><path stroke="green" stroke-width="0" d="M.8 10.8l4.7-1.3M.8 10.8l4.7-1.3M4.7 11.2l.8-1.7M4.6 11.2l1-1.7M4.6 13l1-3.5M.8 2.5l4.7 4M.8 2.5l4.7 4M4.1 3l1.4 3.5M4.6 3l1 3.5M4.7 4.8l.8 1.7M4.6 4.8l1 1.7M.8 5.2l4.7 1.3M.8 5.2l4.7 1.3"/><path stroke="#00f" stroke-width="0" d="M4.6 6.5h1"/><path stroke="green" stroke-width="0" d="M4.6 9.5l1-3M5.5 9.5v-3M.8 10.8l4.7-4.3M.8 10.8l4.7-4.3M4.6 9.5L4.4 13M5.5 9.5l-1 3.5M.8 10.8L4.4 13M.8 10.8L4.4 13M4.7 11.2L4.4 13M4.6 11.2L4.4 13"/><path stroke="#00f" stroke-width="0" d="M4.6 13h-.2"/><path stroke="green" stroke-width="0" d="M.8 2.5l3.8 4M.8 2.5l3.8 4M4.1 3l.5 3.5M4.6 3v3.5M4.7 4.8v1.7M4.6 4.8v1.7M.8 5.2l3.8 1.3M.8 5.2l3.8 1.3"/><path stroke="#00f" stroke-width="0" d="M5.5 6.5h-.9"/><path stroke="green" stroke-width="0" d="M4.6 9.5v-3M5.5 9.5l-.9-3M.8 10.8l3.8-4.3M.8 10.8l3.8-4.3M.8 2.5l3.8.5M.8 2.5l3.8.5"/><path stroke="#00f" stroke-width="0" d="M4.1 3h.5M4.6 3"/><path stroke="green" stroke-width="0" d="M4.7 4.8V3M4.6 4.8V3M.8 5.2L4.6 3M.8 5.2L4.6 3M4.6 6.5V3M5.5 6.5L4.6 3M4.6 6.5V3M.8 2.5l3.8 2.3M.8 2.5l3.8 2.3M4.1 3l.5 1.8M4.6 3v1.8M4.6 3v1.8"/><path stroke="#00f" stroke-width="0" d="M4.6 4.8"/><path stroke="green" stroke-width="0" d="M.8 5.2l3.8-.4M.8 5.2l3.8-.4M4.6 6.5V4.8M5.5 6.5l-.9-1.7M4.6 6.5V4.8M4.6 9.5V13M5.5 9.5L4.6 13M.8 10.8L4.6 13M.8 10.8L4.6 13M4.7 11.2V13M4.6 11.2V13"/><path stroke="#00f" stroke-width="0" d="M4.4 13h.2"/><path stroke="green" stroke-width="0" d="M4.6 9.5v1.7M5.5 9.5l-.9 1.7M.8 10.8l3.8.4M.8 10.8l3.8.4"/><path stroke="#00f" stroke-width="0" d="M4.6 11.2"/><path stroke="green" stroke-width="0" d="M4.6 13v-1.8M4.4 13l.2-1.8M4.6 13v-1.8M.8 5.2l3.8 4.3M.8 5.2l3.8 4.3M4.6 6.5v3M5.5 6.5l-.9 3M4.6 6.5v3"/><path stroke="#00f" stroke-width="0" d="M5.5 9.5h-.9"/><path stroke="green" stroke-width="0" d="M.8 10.8l3.8-1.3M.8 10.8l3.8-1.3M4.7 11.2V9.5M4.6 11.2V9.5M4.6 11.2V9.5M4.6 13V9.5M4.4 13l.2-3.5M4.6 13V9.5M4.6 13l.7 3.9M4.4 13l1 3.9M4.6 13l.7 3.9M4.6 13l.7 3.9M4.4 13l1 3.9M4.6 13l.7 3.9"/><path stroke="#00f" stroke-width="0" d="M5.3 16.9"/><path stroke="green" stroke-width="0" d="M4.6 9.5l2 5.7M5.5 9.5l1 5.7M4.6 9.5l2 5.7M4.7 11.2l1.8 4M4.6 11.2l2 4M4.6 11.2l2 4"/><path stroke="#00f" stroke-width="0" d="M4.6 13l2 2.2M4.4 13l2.1 2.2"/><path stroke="green" stroke-width="0" d="M4.6 13l2 2.2M5.3 16.9l1.2-1.7"/><path stroke="#00f" stroke-width="0" d="M5.3 16.9l1.2-1.7"/><path stroke="green" stroke-width="0" d="M4.6 9.5l1.5 4.8M5.5 9.5l.6 4.8M4.6 9.5l1.5 4.8M4.7 11.2l1.4 3M4.6 11.2l1.5 3M4.6 11.2l1.5 3"/><path stroke="#00f" stroke-width="0" d="M4.6 13l1.5 1.3M4.4 13l1.7 1.3"/><path stroke="green" stroke-width="0" d="M4.6 13l1.5 1.3M5.3 16.9l.8-2.6"/><path stroke="#00f" stroke-width="0" d="M6.5 15.2l-.4-1M5.3 16.9l.8-2.6"/><path stroke="green" stroke-width="0" d="M6.1 14.3l4.3 3M5.3 16.9l5.1.5"/><path stroke="#00f" stroke-width="0" d="M6.5 15.2l4 2.2"/><path stroke="green" stroke-width="0" d="M5.3 16.9l5.1.5M4.1 3h4.1M4.6 3h3.6M4.6 3h3.6"/><path stroke="#00f" stroke-width="0" d="M4.7 4.8L8.2 3"/><path stroke="green" stroke-width="0" d="M4.6 4.8L8.2 3M4.6 4.8L8.2 3M4.6 6.5L8.2 3M5.5 6.5L8.2 3M4.6 6.5L8.2 3M4.6 9.5l3.6 3.3M5.5 9.5l2.7 3.3M4.6 9.5l3.6 3.3"/><path stroke="#00f" stroke-width="0" d="M4.7 11.2l3.5 1.6"/><path stroke="green" stroke-width="0" d="M4.6 11.2l3.6 1.6M4.6 11.2l3.6 1.6M4.6 13l3.6-.2M4.4 13l3.8-.2M4.6 13l3.6-.2M6.1 14.3l2.1-1.5M5.3 16.9l3-4.1M6.5 15.2l1.7-2.4M10.4 17.4l-2.2-4.6M5.3 16.9l3-4.1M4.1 3l5 5M4.6 3L9 8M4.6 3L9 8M4.7 4.8L9 8M4.6 4.8L9 8M4.6 4.8L9 8M8.2 3L9 8M4.6 6.5L9 8"/><path stroke="#00f" stroke-width="0" d="M5.5 6.5L9 8"/><path stroke="green" stroke-width="0" d="M4.6 6.5L9 8M4.6 9.5L9 8"/><path stroke="#00f" stroke-width="0" d="M5.5 9.5L9 8"/><path stroke="green" stroke-width="0" d="M4.6 9.5L9 8M4.7 11.2L9 8M4.6 11.2L9 8M4.6 11.2L9 8M4.6 13L9 8M4.4 13L9 8M4.6 13L9 8M8.2 12.8L9 8M6.1 14.3l3-6.3M6.5 15.2L9 8M4.7 4.8l4.6 2.7M4.6 4.8l4.7 2.7M4.6 4.8l4.7 2.7M8.2 3l1.1 4.5M4.6 6.5l4.7 1M5.5 6.5l3.8 1M4.6 6.5l4.7 1M4.6 9.5l4.7-2M5.5 9.5l3.8-2M4.6 9.5l4.7-2"/><path stroke="#00f" stroke-width="0" d="M9 8l.3-.5"/><path stroke="green" stroke-width="0" d="M4.7 11.2l4.6-3.7M4.6 11.2l4.7-3.7M4.6 11.2l4.7-3.7M8.2 12.8l1.1-5.3M4.1 3l7.1-1.7M4.6 3l6.6-1.7M4.6 3l6.6-1.7M4.7 4.8l6.5-3.5M4.6 4.8l6.6-3.5M4.6 4.8l6.6-3.5"/><path stroke="#00f" stroke-width="0" d="M8.2 3l3-1.7"/><path stroke="green" stroke-width="0" d="M4.7 11.2l6.5 3.3M4.6 11.2l6.6 3.3M4.6 11.2l6.6 3.3M4.6 13l6.6 1.5M4.4 13l6.8 1.5M4.6 13l6.6 1.5"/><path stroke="#00f" stroke-width="0" d="M8.2 12.8l3 1.7"/><path stroke="green" stroke-width="0" d="M6.1 14.3l5.1.2M5.3 16.9l6-2.4M6.5 15.2l4.7-.7M10.4 17.4l.8-3M5.3 16.9l6-2.4M11.2 1.3L10 7.9M4.1 3L10 7.9M4.6 3L10 7.9M4.7 4.8l5.2 3M4.6 4.8l5.3 3M8.2 3L10 7.9M4.6 6.5L10 7.9M5.5 6.5L10 7.9"/><path stroke="#00f" stroke-width="0" d="M9.3 7.5l.6.4"/><path stroke="green" stroke-width="0" d="M4.6 9.5L10 7.9M5.5 9.5L10 7.9"/><path stroke="#00f" stroke-width="0" d="M9 8l1-.1"/><path stroke="green" stroke-width="0" d="M4.7 11.2L10 7.9M4.6 11.2L10 7.9M4.6 13L10 7.9M8.2 12.8l1.7-5M11.2 14.5L10 7.9M6.5 15.2L10 7.9"/><path stroke="#00f" stroke-width="0" d="M11.2 1.3h.6"/><path stroke="green" stroke-width="0" d="M4.7 4.8l7.1-3.5M8.2 3l3.6-1.7M10 7.9l1.8-6.6M8.2 12.8l3.6 4.6M11.2 14.5l.6 2.9M6.5 15.2l5.3 2.2"/><path stroke="#00f" stroke-width="0" d="M10.4 17.4h1.4"/><path stroke="green" stroke-width="0" d="M4.7 11.2l7.1 3.3M10 7.9l1.8 6.6M8.2 12.8l3.6 1.7"/><path stroke="#00f" stroke-width="0" d="M11.2 14.5h.6"/><path stroke="green" stroke-width="0" d="M6.5 15.2l5.3-.7M10.4 17.4l1.4-3M11.8 17.4v-3M9.3 7.5l2.5 4M5.5 9.5l6.3 2M9 8l2.8 3.5M4.7 11.2l7.1.3"/><path stroke="#00f" stroke-width="0" d="M10 7.9l1.8 3.6"/><path stroke="green" stroke-width="0" d="M8.2 12.8l3.6-1.3M11.2 14.5l.6-3M11.8 14.5v-3M6.5 15.2l5.3-3.7M11.2 1.3l.6 2.9M11.8 1.3v2.9M4.7 4.8l7.1-.6M8.2 3l3.6 1.2M5.5 6.5l6.3-2.3M9.3 7.5l2.5-3.3M9 8l2.8-3.8"/><path stroke="#00f" stroke-width="0" d="M10 7.9l1.8-3.7"/><path stroke="green" stroke-width="0" d="M11.2 1.3l1 2.9M11.8 1.3l.3 2.9"/><path stroke="#00f" stroke-width="0" d="M11.8 4.2h.3"/><path stroke="green" stroke-width="0" d="M4.7 4.8l7.4-.6M8.2 3l4 1.2M5.5 6.5l6.6-2.3M9.3 7.5l2.8-3.3M9 8l3.1-3.8"/><path stroke="#00f" stroke-width="0" d="M10 7.9L12 4.2"/><path stroke="green" stroke-width="0" d="M9.3 7.5l2.8 4M5.5 9.5l6.6 2M9 8l3.1 3.5M4.7 11.2l7.4.3"/><path stroke="#00f" stroke-width="0" d="M10 7.9l2.1 3.6M11.8 11.5h.3"/><path stroke="green" stroke-width="0" d="M8.2 12.8l4-1.3M11.2 14.5l1-3M11.8 14.5l.3-3"/><path stroke="#00f" stroke-width="0" d="M11.2 1.3h.6M11.8 1.3"/><path stroke="green" stroke-width="0" d="M11.8 4.2v-3M12.1 4.2l-.3-3M4.7 4.8l7.1-3.5M8.2 3l3.6-1.7M10 7.9l1.8-6.6M11.2 1.3l.6 2.9M11.8 1.3v2.9M11.8 1.3v2.9"/><path stroke="#00f" stroke-width="0" d="M12.1 4.2h-.3"/><path stroke="green" stroke-width="0" d="M4.7 4.8l7.1-.6M8.2 3l3.6 1.2M5.5 6.5l6.3-2.3M9.3 7.5l2.5-3.3M9 8l2.8-3.8M10 7.9l1.8-3.7M9.3 7.5l2.5 4M5.5 9.5l6.3 2M9 8l2.8 3.5M4.7 11.2l7.1.3M10 7.9l1.8 3.6"/><path stroke="#00f" stroke-width="0" d="M12.1 11.5h-.3"/><path stroke="green" stroke-width="0" d="M8.2 12.8l3.6-1.3M11.2 14.5l.6-3M11.8 14.5v-3M8.2 12.8l3.6 4.6M11.2 14.5l.6 2.9M11.8 14.5v2.9"/><path stroke="#00f" stroke-width="0" d="M10.4 17.4h1.4M11.8 17.4"/><path stroke="green" stroke-width="0" d="M4.7 11.2l7.1 3.3M10 7.9l1.8 6.6M11.8 11.5v3M12.1 11.5l-.3 3M11.8 11.5v3M8.2 12.8l3.6 1.7"/><path stroke="#00f" stroke-width="0" d="M11.2 14.5h.6M11.8 14.5"/><path stroke="green" stroke-width="0" d="M10.4 17.4l1.4-3M11.8 17.4v-3M11.8 17.4v-3M11.2 1.3L17 4.2M11.8 1.3L17 4.2M11.8 1.3L17 4.2M11.8 4.2H17M12.1 4.2h5M11.8 4.2H17M17 4.2l2.4-1.8"/><path stroke="#00f" stroke-width="0" d="M19.4 2.4L19 3M17 4.2L19 3"/><path stroke="green" stroke-width="0" d="M17 4.2L22 8M19 3l3 5M22 8v2.7M22 8l2.1-3.7M22 10.7l2.1 3.7M24.1 4.3V8"/><path stroke="#00f" stroke-width="0" d="M22 8h2"/><path stroke="green" stroke-width="0" d="M22 10.7L24 8M22 8l2 2.7M24 8v2.7"/><path stroke="#00f" stroke-width="0" d="M22 10.7h2"/><path stroke="green" stroke-width="0" d="M24.1 14.4v-3.7"/><path stroke="#00f" stroke-width="0" d="M24.1 4.3l.5 2"/><path stroke="green" stroke-width="0" d="M22 8l2.6-1.7"/><path stroke="#00f" stroke-width="0" d="M24 8l.6-1.7"/><path stroke="green" stroke-width="0" d="M22 10.7l2.6-4.4M24 10.7l.6-4.4M24.6 6.3v6M22 8l2.6 4.4M24 8l.6 4.4M22 10.7l2.6 1.7"/><path stroke="#00f" stroke-width="0" d="M24 10.7l.6 1.7M24.1 14.4l.5-2"/><path stroke="green" stroke-width="0" d="M24.1 4.3l.7 3.9"/><path stroke="#00f" stroke-width="0" d="M24.6 6.3l.2 1.9"/><path stroke="green" stroke-width="0" d="M22 8l2.8.2"/><path stroke="#00f" stroke-width="0" d="M24 8l.8.2"/><path stroke="green" stroke-width="0" d="M22 10.7l2.8-2.5M24 10.7l.8-2.5M24.6 12.4l.2-4.2M24.6 6.3l.2 4.2M22 8l2.8 2.5M24 8l.8 2.5M24.8 8.2v2.3M22 10.7l2.8-.2"/><path stroke="#00f" stroke-width="0" d="M24 10.7l.8-.2M24.6 12.4l.2-2"/><path stroke="green" stroke-width="0" d="M24.1 14.4l.7-4M24.1 4.3L27 8.5M24.6 6.3L27 8.5M22 8l5 .5M24 8l3 .5"/><path stroke="#00f" stroke-width="0" d="M24.8 8.2l2.1.3"/><path stroke="green" stroke-width="0" d="M22 10.7l5-2.2M24 10.7l3-2.2M24.8 10.5l2.1-2M24.6 12.4l2.3-4M24.6 6.3l2.3 3.9M22 8l5 2.2M24 8l3 2.2M24.8 8.2l2.1 2M27 8.5v1.7M22 10.7l5-.5M24 10.7l3-.5"/><path stroke="#00f" stroke-width="0" d="M24.8 10.5l2.1-.3"/><path stroke="green" stroke-width="0" d="M24.6 12.4l2.3-2.2M24.1 14.4l2.8-4.2M24.1 14.4l7.5 3.8M24.6 12.4l7 3M24.1 14.4l7.5 1M31.6 18.2v-2.7M24.1 4.3L31.6.5M31.6.5v2.7M24.1 4.3l7.5-1.1M24.6 6.3l7-3.1"/><path stroke="#00f" stroke-width="0" d="M27 8.5l2-.3"/><path stroke="green" stroke-width="0" d="M27 10.2l2-2M27 8.5l2 2M29 8.2v2.3"/><path stroke="#00f" stroke-width="0" d="M27 10.2l2 .3"/><path stroke="green" stroke-width="0" d="M27 8.5l3.6 2.2M29 8.2l1.6 2.5M27 10.2l3.6.5"/><path stroke="#00f" stroke-width="0" d="M29 10.5l1.6.2"/><path stroke="green" stroke-width="0" d="M27 8.5l3.6-.5"/><path stroke="#00f" stroke-width="0" d="M29 8.2l1.6-.2"/><path stroke="green" stroke-width="0" d="M27 10.2L30.5 8M29 10.5L30.6 8M30.6 10.7V8M31.6.5l5.6 2.9"/><path stroke="#00f" stroke-width="0" d="M31.6 3.2l5.6.2M31.6.5L36.8 2M31.6 3.2L36.8 2M37.2 3.4L36.8 2M31.6 15.5l5.2 1.2M31.6 18.2l5.2-1.5M31.6 15.5l5.6-.2"/><path stroke="green" stroke-width="0" d="M31.6 18.2l5.6-3"/><path stroke="#00f" stroke-width="0" d="M36.8 16.7l.4-1.4"/><path stroke="green" stroke-width="0" d="M31.6.5l10.4 3"/><path stroke="#00f" stroke-width="0" d="M31.6 3.2l10.4.3M36.8 2L42 3.5M37.2 3.4H42M31.6 15.5L42 15M37.2 15.3L42 15"/><path stroke="green" stroke-width="0" d="M31.6 18.2L42 15"/><path stroke="#00f" stroke-width="0" d="M36.8 16.7L42 15"/><path stroke="green" stroke-width="0" d="M31.6.5l7.6.3M31.6 3.2L39.2.8M42 3.5L39.2.8M36.8 2L39.2.8M37.2 3.4l2-2.6M31.6 3.2l7.6 3M42 3.5l-2.8 2.8M36.8 2l2.4 4.3M37.2 3.4l2 2.9M42 15l-2.8 2.8M31.6 15.5l7.6 2.3M37.2 15.3l2 2.5M31.6 18.2l7.6-.4M36.8 16.7l2.4 1M42 15l-2.8-2.5M31.6 15.5l7.6-3M37.2 15.3l2-2.8M36.8 16.7l2.4-4.2M42 15v3.2M31.6 15.5L42 18.2M37.2 15.3l4.8 2.9M31.6 18.2H42M36.8 16.7l5.2 1.5"/><path stroke="#00f" stroke-width="0" d="M39.2 17.8l2.8.4"/><path stroke="green" stroke-width="0" d="M31.6 3.2L42 6.7M42 3.5v3.2M36.8 2L42 6.7M37.2 3.4L42 6.7"/><path stroke="#00f" stroke-width="0" d="M39.2 6.3l2.8.4M39.2 12.5L42 12"/><path stroke="green" stroke-width="0" d="M42 15v-3M31.6 15.5L42 12M37.2 15.3L42 12M36.8 16.7L42 12M31.6.5h10.5"/><path stroke="#00f" stroke-width="0" d="M39.2.8l3-.3"/><path stroke="green" stroke-width="0" d="M31.6 3.2L42.1.5M42 3.5l.1-3M36.8 2L42.1.5M37.2 3.4l5-3M42.1.5l4.8 3"/><path stroke="#00f" stroke-width="0" d="M42 3.5h5"/><path stroke="green" stroke-width="0" d="M42 6.7l5-3.1M42 12l5 3.2"/><path stroke="#00f" stroke-width="0" d="M42 15l5 .2"/><path stroke="green" stroke-width="0" d="M42 18.2l5-3M42.1.5h10.2M42 3.5l10.3-3"/><path stroke="#00f" stroke-width="0" d="M47 3.6L52.2.5"/><path stroke="green" stroke-width="0" d="M42 12h10.3M42 15l10.3-3"/><path stroke="#00f" stroke-width="0" d="M47 15.2l5.3-3.1"/><path stroke="green" stroke-width="0" d="M42 3.5l10.3 3.2M42 6.7h10.3"/><path stroke="#00f" stroke-width="0" d="M47 3.6l5.3 3"/><path stroke="green" stroke-width="0" d="M42 15l10.3 3.2M42 18.2h10.3"/><path stroke="#00f" stroke-width="0" d="M47 15.2l5.3 3"/><path fill="green" d="M0 1.7h1.6v1.6H0z"/><path fill="green" d="M0 1.7h1.6v1.6H0zM0 10h1.6v1.6H0z"/><path fill="green" d="M0 10h1.7v1.6H0zM1.6 2.6h5v.7h-5zM2.7 6.2h4v.7h-4zM2.7 12.6h4v.7h-4zM2.7 10.9h4v.7h-4z"/><path fill="green" d="M2.7 6.2h5.7v.7H2.7zM2.7 12.6h3.5v.7H2.7z"/><path fill="green" d="M3.5 6.2h2.2v.7H3.5zM3.5 12.6h2.2v.7H3.5zM6.1 12.6h.7v5h-.7zM7.8 10.9h.7v3.9h-.7zM8.4 6.2h1.2v3.6H8.4z"/><path fill="green" d="M8.5 6.7h1.6v1.6H8.5zM8.5.9H14v.7H8.5zM8.5 14H14v.8H8.5z"/><path fill="green" d="M9.8.9H14v.7H9.8zM9.8 14H14v.8H9.8z"/><path fill="green" d="M10.6.9H13v.7h-2.4zM10.6 14H13v.8h-2.4zM15 3.8H19v.7H15z"/><path fill="green" d="M18.6 1.8h.7v2.8h-.7zM20 10.4H24v.7H20zM23.3 3.5H25V5h-1.6z"/><path fill="green" d="M23.6 10.4h.8v.7h-.8z"/><path fill="green" d="M24.2 10.5h.7v3.9h-.7z"/><path fill="green" d="M24.4 9.9h.7V11h-.7zM25.1 9.9h3.5v.7h-3.5zM26.3 17.9h10.5v.7H26.3zM26.3 2.9h10.5v.7H26.3zM28.6 9.9h.7V11h-.7z"/><path fill="green" d="M29 10.4h3.2v.7H29zM36.4 2.6H38v1.6h-1.6z"/><path fill="green" d="M36.4 0h.7V4h-.7z"/><path fill="green" d="M36.8 3.2h10.5v.7H36.8zM38.4 17H40v1.6h-1.6zM38.4 11.7H40v1.6h-1.6z"/><path fill="green" d="M39.6 17.9h4.8v.7h-4.8zM39.6 11.8h4.8v.7h-4.8zM46.6 0h.7v7h-.7zM46.8 11.8h11v.7h-11zM46.8 17.9h11v.7h-11z"/><path fill="red" d="M0 4.4h1.6V6H0z"/><path fill="red" d="M0 4.4h1.6V6H0zM1.6 4.4H8V5H1.6zM1.6 10.9h6.2v.7H1.6z"/><path fill="red" d="M2.7 4.4h4V5h-4zM2.7 9h4v.8h-4zM2.7 2.6h4v.7h-4z"/><path fill="red" d="M2.7 9h5.7v.8H2.7zM3.5 2.6h2.2v.7H3.5zM3.5 4.4h2.2V5H3.5zM3.5 10.9h2.2v.7H3.5z"/><path fill="red" d="M3.5 9h2.2v.8H3.5zM4.4 16h1.8v1.8H4.4z"/><path fill="red" d="M4.5 16h1.6v1.7H4.5zM6.8 17H14v.7H7zM7.8.9h.7V5h-.7zM9.5 3.8h.7v8h-.7z"/><path fill="red" d="M9.8 17H14v.7H9.8zM9.8 11.2H14v.7H9.8zM9.8 3.8H14v.7H9.8z"/><path fill="red" d="M10.2 3.8H14v.7h-3.7zM10.2 11.2H14v.7h-3.7z"/><path fill="red" d="M10.6 3.8H13v.7h-2.4zM10.6 11.2H13v.7h-2.4zM10.6 17H13v.7h-2.4zM18.6 1.6h1.6v1.6h-1.6zM20 7.6H24v.7H20zM23.3 13.6H25v1.6h-1.6z"/><path fill="red" d="M23.6 7.6h.8v.7h-.8z"/><path fill="red" d="M24.2 4.3h.7v3.9h-.7z"/><path fill="red" d="M24.4 7.6h.7v1.2h-.7zM25.1 8h3.5v.8h-3.5zM26.3 15h10.5v.8H26.3zM26.3 0h10.5v.8H26.3zM28.6 7.6h.7v1.2h-.7z"/><path fill="red" d="M29 7.6h3.2v.7H29zM36.4 14.7h.7v3.8h-.7z"/><path fill="red" d="M36.4 14.5H38V16h-1.6z"/><path fill="red" d="M36.8 14.8h10.5v.7H36.8zM38.4 0H40v1.6h-1.6zM38.4 5.5H40V7h-1.6z"/><path fill="red" d="M39.6 6.3h4.8V7h-4.8zM39.7 0h4.8v.8h-4.8zM46.6 11.8h.7v6.8h-.7zM46.8 0h11v.8h-11zM46.8 6.3h11V7h-11z"/></svg>