<svg xmlns="http://www.w3.org/2000/svg" xmlns:svg="http://www.w3.org/2000/svg" id="svg29814" width="1116" height="702.667" version="1.1" viewBox="0 0 1116 702.667" xml:space="preserve"><metadata id="metadata29820"/><g id="g29822" transform="matrix(1.3333333,0,0,-1.3333333,0,702.66667)"><g id="g29824" transform="scale(0.1)"><path style="fill:#98e8d6;fill-opacity:1;fill-rule:nonzero;stroke:none" id="path29826" d="m 2409.41,3568.76 c 0,-129.15 -107.87,-233.85 -240.93,-233.85 -133.07,0 -240.94,104.7 -240.94,233.85 0,129.15 107.87,233.85 240.94,233.85 133.06,0 240.93,-104.7 240.93,-233.85"/><path style="fill:none;stroke:#000;stroke-width:28.34600067;stroke-linecap:butt;stroke-linejoin:miter;stroke-miterlimit:10;stroke-dasharray:none;stroke-opacity:1" id="path29828" d="m 2409.41,3568.76 c 0,-129.15 -107.87,-233.85 -240.93,-233.85 -133.07,0 -240.94,104.7 -240.94,233.85 0,129.15 107.87,233.85 240.94,233.85 133.06,0 240.93,-104.7 240.93,-233.85 z"/><path style="fill:#98e8d6;fill-opacity:1;fill-rule:nonzero;stroke:none" id="path29830" d="m 496.051,3540.41 c 0,-129.15 -107.875,-233.85 -240.938,-233.85 -133.062,0 -240.9372,104.7 -240.9372,233.85 0,129.16 107.8752,233.86 240.9372,233.86 133.063,0 240.938,-104.7 240.938,-233.86"/><path style="fill:none;stroke:#000;stroke-width:28.34600067;stroke-linecap:butt;stroke-linejoin:miter;stroke-miterlimit:10;stroke-dasharray:none;stroke-opacity:1" id="path29832" d="m 496.051,3540.41 c 0,-129.15 -107.875,-233.85 -240.938,-233.85 -133.062,0 -240.9372,104.7 -240.9372,233.85 0,129.16 107.8752,233.86 240.9372,233.86 133.063,0 240.938,-104.7 240.938,-233.86 z"/><path style="fill:#98e8d6;fill-opacity:1;fill-rule:nonzero;stroke:none" id="path29834" d="m 1077.14,2420.75 c 0,-129.16 -107.87,-233.86 -240.933,-233.86 -133.062,0 -240.937,104.7 -240.937,233.86 0,129.15 107.875,233.85 240.937,233.85 133.063,0 240.933,-104.7 240.933,-233.85"/><path style="fill:none;stroke:#000;stroke-width:28.34600067;stroke-linecap:butt;stroke-linejoin:miter;stroke-miterlimit:10;stroke-dasharray:none;stroke-opacity:1" id="path29836" d="m 1077.14,2420.75 c 0,-129.16 -107.87,-233.86 -240.933,-233.86 -133.062,0 -240.937,104.7 -240.937,233.86 0,129.15 107.875,233.85 240.937,233.85 133.063,0 240.933,-104.7 240.933,-233.85 z"/><path style="fill:none;stroke:#000;stroke-width:28.34600067;stroke-linecap:butt;stroke-linejoin:miter;stroke-miterlimit:10;stroke-dasharray:none;stroke-opacity:1" id="path29838" d="M 370.062,3318.92 721.258,2642.24"/><path style="fill:none;stroke:#000;stroke-width:28.34600067;stroke-linecap:butt;stroke-linejoin:miter;stroke-miterlimit:10;stroke-dasharray:none;stroke-opacity:1" id="path29840" d="M 510.281,3544.18 1913.3,3564.96"/><path style="fill:none;stroke:#000;stroke-width:28.34600067;stroke-linecap:butt;stroke-linejoin:miter;stroke-miterlimit:10;stroke-dasharray:none;stroke-opacity:1" id="path29842" d="m 388.844,3751.59 363.238,573.59"/><path style="fill:none;stroke:#000;stroke-width:28.34600067;stroke-linecap:butt;stroke-linejoin:miter;stroke-miterlimit:10;stroke-dasharray:none;stroke-opacity:1" id="path29844" d="m 2423.22,3571.11 1020.89,9.47"/><g id="g29846" transform="scale(10)"><text style="font-variant:normal;font-weight:400;font-size:15.87380028px;font-family:Helvetica;-inkscape-font-specification:Helvetica;writing-mode:lr-tb;fill:#000;fill-opacity:1;fill-rule:nonzero;stroke:none" id="text29854" transform="matrix(1,0,0,-1,17.8578,352.872)"><tspan id="tspan29848" x="0" y="0">R</tspan><tspan id="tspan29850" x="191.939" y="-2.834">P</tspan><tspan id="tspan29852" x="58.712" y="111.967">P</tspan></text></g><path style="fill:#98e8d6;fill-opacity:1;fill-rule:nonzero;stroke:none" id="path29856" d="m 2338.55,1683.75 c 0,-129.15 -107.87,-233.85 -240.94,-233.85 -133.06,0 -240.93,104.7 -240.93,233.85 0,129.15 107.87,233.85 240.93,233.85 133.07,0 240.94,-104.7 240.94,-233.85"/><path style="fill:none;stroke:#000;stroke-width:28.34600067;stroke-linecap:butt;stroke-linejoin:miter;stroke-miterlimit:10;stroke-dasharray:none;stroke-opacity:1" id="path29858" d="m 2338.55,1683.75 c 0,-129.15 -107.87,-233.85 -240.94,-233.85 -133.06,0 -240.93,104.7 -240.93,233.85 0,129.15 107.87,233.85 240.93,233.85 133.07,0 240.94,-104.7 240.94,-233.85 z"/><g id="g29860" transform="scale(10)"><text style="font-variant:normal;font-weight:400;font-size:15.87380028px;font-family:Helvetica;-inkscape-font-specification:Helvetica;writing-mode:lr-tb;fill:#000;fill-opacity:1;fill-rule:nonzero;stroke:none" id="text29864" transform="matrix(1,0,0,-1,202.71,167.206)"><tspan id="tspan29862" x="0" y="0">S</tspan></text></g><path style="fill:none;stroke:#000;stroke-width:28.34600067;stroke-linecap:butt;stroke-linejoin:miter;stroke-miterlimit:10;stroke-dasharray:none;stroke-opacity:1" id="path29866" d="m 1054.93,2292.93 823.94,-481.39"/><path style="fill:#fff;fill-opacity:1;fill-rule:nonzero;stroke:none" id="path29868" d="m 1303.91,2824.68 c 0,-82.19 -72.97,-148.82 -162.98,-148.82 -90.02,0 -162.992,66.63 -162.992,148.82 0,82.18 72.972,148.81 162.992,148.81 90.01,0 162.98,-66.63 162.98,-148.81"/><path style="fill:none;stroke:#000;stroke-width:28.34600067;stroke-linecap:butt;stroke-linejoin:miter;stroke-miterlimit:10;stroke-dasharray:none;stroke-opacity:1" id="path29870" d="m 1303.91,2824.68 c 0,-82.19 -72.97,-148.82 -162.98,-148.82 -90.02,0 -162.992,66.63 -162.992,148.82 0,82.18 72.972,148.81 162.992,148.81 90.01,0 162.98,-66.63 162.98,-148.81 z"/><g id="g29872" transform="scale(10)"><text style="font-variant:normal;font-weight:400;font-size:15.87380028px;font-family:Helvetica;-inkscape-font-specification:Helvetica;writing-mode:lr-tb;fill:#000;fill-opacity:1;fill-rule:nonzero;stroke:none" id="text29876" transform="matrix(1,0,0,-1,108.778,281.298)"><tspan id="tspan29874" x="0" y="0">c</tspan></text></g><path style="fill:#fff;fill-opacity:1;fill-rule:nonzero;stroke:none" id="path29878" d="m 1057.3,1876.5 c 0,-86.1 -72.968,-155.9 -162.984,-155.9 -90.015,0 -162.988,69.8 -162.988,155.9 0,86.11 72.973,155.91 162.988,155.91 90.016,0 162.984,-69.8 162.984,-155.91"/><path style="fill:none;stroke:#000;stroke-width:28.34600067;stroke-linecap:butt;stroke-linejoin:miter;stroke-miterlimit:10;stroke-dasharray:none;stroke-opacity:1" id="path29880" d="m 1057.3,1876.5 c 0,-86.1 -72.968,-155.9 -162.984,-155.9 -90.015,0 -162.988,69.8 -162.988,155.9 0,86.11 72.973,155.91 162.988,155.91 90.016,0 162.984,-69.8 162.984,-155.91 z"/><g id="g29882" transform="scale(10)"><text style="font-variant:normal;font-weight:400;font-size:15.87380028px;font-family:Helvetica;-inkscape-font-specification:Helvetica;writing-mode:lr-tb;fill:#000;fill-opacity:1;fill-rule:nonzero;stroke:none" id="text29886" transform="matrix(1,0,0,-1,83.5496,186.481)"><tspan id="tspan29884" x="0" y="0">d</tspan></text></g><path style="fill:none;stroke:#000;stroke-width:28.34600067;stroke-linecap:butt;stroke-linejoin:miter;stroke-miterlimit:10;stroke-dasharray:none;stroke-opacity:1" id="path29888" d="M 1099.71,2666.22 937.242,2041.56"/><path style="fill:none;stroke:#000;stroke-width:28.34600067;stroke-linecap:butt;stroke-linejoin:miter;stroke-miterlimit:10;stroke-dasharray:113.384;stroke-dashoffset:0;stroke-opacity:1" id="path29890" d="m 724.027,1923.59 c -171.855,82.74 -281.125,256.61 -281.125,447.35 0,274.2 222.286,496.48 496.485,496.48 10.164,0 20.328,-0.31 30.476,-0.94"/><path style="fill:none;stroke:#000;stroke-width:28.34600067;stroke-linecap:butt;stroke-linejoin:miter;stroke-miterlimit:10;stroke-dasharray:113.384;stroke-dashoffset:0;stroke-opacity:1" id="path29892" d="m 1294.02,2742.64 c 117.52,-93.08 186.05,-234.78 186.05,-384.69 0,-239.6 -173.02,-444.18 -409.3,-483.93"/><path style="fill:#fff;fill-opacity:1;fill-rule:nonzero;stroke:none" id="path29894" d="m 2444.85,4107.34 c 0,-82.19 -72.97,-148.82 -162.99,-148.82 -90.02,0 -162.99,66.63 -162.99,148.82 0,82.18 72.97,148.81 162.99,148.81 90.02,0 162.99,-66.63 162.99,-148.81"/><path style="fill:none;stroke:#000;stroke-width:28.34600067;stroke-linecap:butt;stroke-linejoin:miter;stroke-miterlimit:10;stroke-dasharray:none;stroke-opacity:1" id="path29896" d="m 2444.85,4107.34 c 0,-82.19 -72.97,-148.82 -162.99,-148.82 -90.02,0 -162.99,66.63 -162.99,148.82 0,82.18 72.97,148.81 162.99,148.81 90.02,0 162.99,-66.63 162.99,-148.81 z"/><g id="g29898" transform="scale(10)"><text style="font-variant:normal;font-weight:400;font-size:15.87380028px;font-family:Helvetica;-inkscape-font-specification:Helvetica;writing-mode:lr-tb;fill:#000;fill-opacity:1;fill-rule:nonzero;stroke:none" id="text29902" transform="matrix(1,0,0,-1,222.304,409.564)"><tspan id="tspan29900" x="0" y="0">g</tspan></text></g><path style="fill:#fff;fill-opacity:1;fill-rule:nonzero;stroke:none" id="path29904" d="m 2431.39,3075.54 c 0,-86.1 -72.98,-155.9 -162.99,-155.9 -90.02,0 -162.99,69.8 -162.99,155.9 0,86.1 72.97,155.9 162.99,155.9 90.01,0 162.99,-69.8 162.99,-155.9"/><path style="fill:none;stroke:#000;stroke-width:28.34600067;stroke-linecap:butt;stroke-linejoin:miter;stroke-miterlimit:10;stroke-dasharray:none;stroke-opacity:1" id="path29906" d="m 2431.39,3075.54 c 0,-86.1 -72.98,-155.9 -162.99,-155.9 -90.02,0 -162.99,69.8 -162.99,155.9 0,86.1 72.97,155.9 162.99,155.9 90.01,0 162.99,-69.8 162.99,-155.9 z"/><g id="g29908" transform="scale(10)"><text style="font-variant:normal;font-weight:400;font-size:15.87380028px;font-family:Helvetica;-inkscape-font-specification:Helvetica;writing-mode:lr-tb;fill:#000;fill-opacity:1;fill-rule:nonzero;stroke:none" id="text29912" transform="matrix(1,0,0,-1,220.958,306.385)"><tspan id="tspan29910" x="0" y="0">h</tspan></text></g><path style="fill:none;stroke:#000;stroke-width:28.34600067;stroke-linecap:butt;stroke-linejoin:miter;stroke-miterlimit:10;stroke-dasharray:none;stroke-opacity:1" id="path29914" d="m 2279.73,3945.11 -9.12,-699.81"/><path style="fill:none;stroke:#000;stroke-width:28.34600067;stroke-linecap:butt;stroke-linejoin:miter;stroke-miterlimit:10;stroke-dasharray:113.384;stroke-dashoffset:0;stroke-opacity:1" id="path29916" d="m 2091.72,3088.34 c -231.44,57.55 -393.91,265.37 -393.91,503.86 0,243.53 169.28,454.35 407.07,506.94"/><path style="fill:none;stroke:#000;stroke-width:28.34600067;stroke-linecap:butt;stroke-linejoin:miter;stroke-miterlimit:10;stroke-dasharray:113.384;stroke-dashoffset:0;stroke-opacity:1" id="path29918" d="m 2449.93,4056.39 c 175.74,-87.99 286.72,-267.68 286.72,-464.2 0,-203.15 -118.5,-387.64 -303.25,-472.13"/><path style="fill:#fff;fill-opacity:1;fill-rule:nonzero;stroke:none" id="path29920" d="m 3013.19,1996.98 c 0,-82.19 -72.98,-148.82 -162.99,-148.82 -90.02,0 -162.99,66.63 -162.99,148.82 0,82.18 72.97,148.81 162.99,148.81 90.01,0 162.99,-66.63 162.99,-148.81"/><path style="fill:none;stroke:#000;stroke-width:28.34600067;stroke-linecap:butt;stroke-linejoin:miter;stroke-miterlimit:10;stroke-dasharray:none;stroke-opacity:1" id="path29922" d="m 3013.19,1996.98 c 0,-82.19 -72.98,-148.82 -162.99,-148.82 -90.02,0 -162.99,66.63 -162.99,148.82 0,82.18 72.97,148.81 162.99,148.81 90.01,0 162.99,-66.63 162.99,-148.81 z"/><g id="g29924" transform="scale(10)"><text style="font-variant:normal;font-weight:400;font-size:15.87380028px;font-family:Helvetica;-inkscape-font-specification:Helvetica;writing-mode:lr-tb;fill:#000;fill-opacity:1;fill-rule:nonzero;stroke:none" id="text29928" transform="matrix(1,0,0,-1,279.138,198.528)"><tspan id="tspan29926" x="0" y="0">e</tspan></text></g><path style="fill:#fff;fill-opacity:1;fill-rule:nonzero;stroke:none" id="path29930" d="m 2139.42,2372.56 c 0,-86.1 -72.97,-155.9 -162.99,-155.9 -90.01,0 -162.98,69.8 -162.98,155.9 0,86.1 72.97,155.9 162.98,155.9 90.02,0 162.99,-69.8 162.99,-155.9"/><path style="fill:none;stroke:#000;stroke-width:28.34600067;stroke-linecap:butt;stroke-linejoin:miter;stroke-miterlimit:10;stroke-dasharray:none;stroke-opacity:1" id="path29932" d="m 2139.42,2372.56 c 0,-86.1 -72.97,-155.9 -162.99,-155.9 -90.01,0 -162.98,69.8 -162.98,155.9 0,86.1 72.97,155.9 162.98,155.9 90.02,0 162.99,-69.8 162.99,-155.9 z"/><g id="g29934" transform="scale(10)"><text style="font-variant:normal;font-weight:400;font-size:15.87380028px;font-family:Helvetica;-inkscape-font-specification:Helvetica;writing-mode:lr-tb;fill:#000;fill-opacity:1;fill-rule:nonzero;stroke:none" id="text29938" transform="matrix(1,0,0,-1,192.329,236.087)"><tspan id="tspan29936" x="0" y="0">c</tspan></text></g><path style="fill:#fff;fill-opacity:1;fill-rule:nonzero;stroke:none" id="path29940" d="m 1892.81,1431.47 c 0,-86.1 -72.97,-155.9 -162.99,-155.9 -90.01,0 -162.98,69.8 -162.98,155.9 0,86.1 72.97,155.91 162.98,155.91 90.02,0 162.99,-69.81 162.99,-155.91"/><path style="fill:none;stroke:#000;stroke-width:28.34600067;stroke-linecap:butt;stroke-linejoin:miter;stroke-miterlimit:10;stroke-dasharray:none;stroke-opacity:1" id="path29942" d="m 1892.81,1431.47 c 0,-86.1 -72.97,-155.9 -162.99,-155.9 -90.01,0 -162.98,69.8 -162.98,155.9 0,86.1 72.97,155.91 162.98,155.91 90.02,0 162.99,-69.81 162.99,-155.91 z"/><g id="g29944" transform="scale(10)"><text style="font-variant:normal;font-weight:400;font-size:15.87380028px;font-family:Helvetica;-inkscape-font-specification:Helvetica;writing-mode:lr-tb;fill:#000;fill-opacity:1;fill-rule:nonzero;stroke:none" id="text29948" transform="matrix(1,0,0,-1,167.1,141.978)"><tspan id="tspan29946" x="0" y="0">d</tspan></text></g><path style="fill:none;stroke:#000;stroke-width:28.34600067;stroke-linecap:butt;stroke-linejoin:miter;stroke-miterlimit:10;stroke-dasharray:113.384;stroke-dashoffset:0;stroke-opacity:1" id="path29950" d="m 1658.36,1586.93 c -20.1,64.42 -30.33,131.52 -30.33,199.01 0,182.79 74.9,357.6 207.24,483.68"/><path style="fill:none;stroke:#000;stroke-width:28.34600067;stroke-linecap:butt;stroke-linejoin:miter;stroke-miterlimit:10;stroke-dasharray:none;stroke-opacity:1" id="path29952" d="m 2137.92,2303.14 551.76,-237.17"/><path style="fill:none;stroke:#000;stroke-width:28.34600067;stroke-linecap:butt;stroke-linejoin:miter;stroke-miterlimit:10;stroke-dasharray:113.384;stroke-dashoffset:0;stroke-opacity:1" id="path29954" d="m 2734.95,1891.78 c -62.62,-319.34 -342.52,-549.69 -667.95,-549.69 -58.81,0 -117.38,7.62 -174.23,22.68"/><path style="fill:#98e8d6;fill-opacity:1;fill-rule:nonzero;stroke:none" id="path29956" d="m 3778.53,1189.11 c 0,-129.15 -107.88,-233.848 -240.94,-233.848 -133.06,0 -240.94,104.698 -240.94,233.848 0,129.16 107.88,233.85 240.94,233.85 133.06,0 240.94,-104.69 240.94,-233.85"/><path style="fill:none;stroke:#000;stroke-width:28.34600067;stroke-linecap:butt;stroke-linejoin:miter;stroke-miterlimit:10;stroke-dasharray:none;stroke-opacity:1" id="path29958" d="m 3778.53,1189.11 c 0,-129.15 -107.88,-233.848 -240.94,-233.848 -133.06,0 -240.94,104.698 -240.94,233.848 0,129.16 107.88,233.85 240.94,233.85 133.06,0 240.94,-104.69 240.94,-233.85 z"/><g id="g29960" transform="scale(10)"><text style="font-variant:normal;font-weight:400;font-size:15.87380028px;font-family:Helvetica;-inkscape-font-specification:Helvetica;writing-mode:lr-tb;fill:#000;fill-opacity:1;fill-rule:nonzero;stroke:none" id="text29964" transform="matrix(1,0,0,-1,346.708,117.742)"><tspan id="tspan29962" x="0" y="0">P</tspan></text></g><path style="fill:none;stroke:#000;stroke-width:28.34600067;stroke-linecap:butt;stroke-linejoin:miter;stroke-miterlimit:10;stroke-dasharray:none;stroke-opacity:1" id="path29966" d="m 2338.16,1601.12 958.86,-329.38"/><path style="fill:#fff;fill-opacity:1;fill-rule:nonzero;stroke:none" id="path29968" d="m 4061.99,1614.3 c 0,-82.18 -72.97,-148.81 -162.99,-148.81 -90.02,0 -162.99,66.63 -162.99,148.81 0,82.19 72.97,148.82 162.99,148.82 90.02,0 162.99,-66.63 162.99,-148.82"/><path style="fill:none;stroke:#000;stroke-width:28.34600067;stroke-linecap:butt;stroke-linejoin:miter;stroke-miterlimit:10;stroke-dasharray:none;stroke-opacity:1" id="path29970" d="m 4061.99,1614.3 c 0,-82.18 -72.97,-148.81 -162.99,-148.81 -90.02,0 -162.99,66.63 -162.99,148.81 0,82.19 72.97,148.82 162.99,148.82 90.02,0 162.99,-66.63 162.99,-148.82 z"/><g id="g29972" transform="scale(10)"><text style="font-variant:normal;font-weight:400;font-size:15.87380028px;font-family:Helvetica;-inkscape-font-specification:Helvetica;writing-mode:lr-tb;fill:#000;fill-opacity:1;fill-rule:nonzero;stroke:none" id="text29976" transform="matrix(1,0,0,-1,384.018,160.261)"><tspan id="tspan29974" x="0" y="0">e</tspan></text></g><path style="fill:#fff;fill-opacity:1;fill-rule:nonzero;stroke:none" id="path29978" d="m 3035.86,999.195 c 0,-82.187 -72.97,-148.816 -162.98,-148.816 -90.02,0 -162.99,66.629 -162.99,148.816 0,82.185 72.97,148.815 162.99,148.815 90.01,0 162.98,-66.63 162.98,-148.815"/><path style="fill:none;stroke:#000;stroke-width:28.34600067;stroke-linecap:butt;stroke-linejoin:miter;stroke-miterlimit:10;stroke-dasharray:none;stroke-opacity:1" id="path29980" d="m 3035.86,999.195 c 0,-82.187 -72.97,-148.816 -162.98,-148.816 -90.02,0 -162.99,66.629 -162.99,148.816 0,82.185 72.97,148.815 162.99,148.815 90.01,0 162.98,-66.63 162.98,-148.815 z"/><g id="g29982" transform="scale(10)"><text style="font-variant:normal;font-weight:400;font-size:15.87380028px;font-family:Helvetica;-inkscape-font-specification:Helvetica;writing-mode:lr-tb;fill:#000;fill-opacity:1;fill-rule:nonzero;stroke:none" id="text29986" transform="matrix(1,0,0,-1,281.406,98.7504)"><tspan id="tspan29984" x="0" y="0">d</tspan></text></g><path style="fill:none;stroke:#000;stroke-width:28.34600067;stroke-linecap:butt;stroke-linejoin:miter;stroke-miterlimit:10;stroke-dasharray:none;stroke-opacity:1" id="path29988" d="M 3750.55,1525.32 3021.29,1088.17"/><path style="fill:none;stroke:#000;stroke-width:28.34600067;stroke-linecap:butt;stroke-linejoin:miter;stroke-miterlimit:10;stroke-dasharray:113.384;stroke-dashoffset:0;stroke-opacity:1" id="path29990" d="m 3962.33,1462.1 c 12.95,-49.46 19.51,-100.38 19.51,-151.51 0,-330.375 -267.83,-598.199 -598.2,-598.199 -149.6,0 -293.77,56.054 -404.08,157.105"/><path style="fill:none;stroke:#000;stroke-width:28.34600067;stroke-linecap:butt;stroke-linejoin:miter;stroke-miterlimit:10;stroke-dasharray:113.384;stroke-dashoffset:0;stroke-opacity:1" id="path29992" d="m 2913.54,1157.38 c 112.85,302.17 401.5,502.48 724.04,502.48 29.97,0 59.92,-1.75 89.69,-5.23"/><path style="fill:#98e8d6;fill-opacity:1;fill-rule:nonzero;stroke:none" id="path29994" d="m 5309.21,749.75 c 0,-129.152 -107.87,-233.852 -240.94,-233.852 -133.06,0 -240.93,104.7 -240.93,233.852 0,129.152 107.87,233.852 240.93,233.852 133.07,0 240.94,-104.7 240.94,-233.852"/><path style="fill:none;stroke:#000;stroke-width:28.34600067;stroke-linecap:butt;stroke-linejoin:miter;stroke-miterlimit:10;stroke-dasharray:none;stroke-opacity:1" id="path29996" d="m 5309.21,749.75 c 0,-129.152 -107.87,-233.852 -240.94,-233.852 -133.06,0 -240.93,104.7 -240.93,233.852 0,129.152 107.87,233.852 240.93,233.852 133.07,0 240.94,-104.7 240.94,-233.852 z"/><g id="g29998" transform="scale(10)"><text style="font-variant:normal;font-weight:400;font-size:15.87380028px;font-family:Helvetica;-inkscape-font-specification:Helvetica;writing-mode:lr-tb;fill:#000;fill-opacity:1;fill-rule:nonzero;stroke:none" id="text30002" transform="matrix(1,0,0,-1,499.776,73.8059)"><tspan id="tspan30000" x="0" y="0">S</tspan></text></g><path style="fill:#98e8d6;fill-opacity:1;fill-rule:nonzero;stroke:none" id="path30004" d="m 3940.1,3582.93 c 0,-129.15 -107.88,-233.85 -240.94,-233.85 -133.06,0 -240.94,104.7 -240.94,233.85 0,129.16 107.88,233.86 240.94,233.86 133.06,0 240.94,-104.7 240.94,-233.86"/><path style="fill:none;stroke:#000;stroke-width:28.34600067;stroke-linecap:butt;stroke-linejoin:miter;stroke-miterlimit:10;stroke-dasharray:none;stroke-opacity:1" id="path30006" d="m 3940.1,3582.93 c 0,-129.15 -107.88,-233.85 -240.94,-233.85 -133.06,0 -240.94,104.7 -240.94,233.85 0,129.16 107.88,233.86 240.94,233.86 133.06,0 240.94,-104.7 240.94,-233.86 z"/><g id="g30008" transform="scale(10)"><text style="font-variant:normal;font-weight:400;font-size:15.87380028px;font-family:Helvetica;-inkscape-font-specification:Helvetica;writing-mode:lr-tb;fill:#000;fill-opacity:1;fill-rule:nonzero;stroke:none" id="text30012" transform="matrix(1,0,0,-1,362.262,357.124)"><tspan id="tspan30010" x="0" y="0">R</tspan></text></g><path style="fill:#fff;fill-opacity:1;fill-rule:nonzero;stroke:none" id="path30014" d="m 3961.36,4135.68 c 0,-82.19 -72.97,-148.82 -162.99,-148.82 -90.01,0 -162.99,66.63 -162.99,148.82 0,82.19 72.98,148.82 162.99,148.82 90.02,0 162.99,-66.63 162.99,-148.82"/><path style="fill:none;stroke:#000;stroke-width:28.34600067;stroke-linecap:butt;stroke-linejoin:miter;stroke-miterlimit:10;stroke-dasharray:none;stroke-opacity:1" id="path30016" d="m 3961.36,4135.68 c 0,-82.19 -72.97,-148.82 -162.99,-148.82 -90.01,0 -162.99,66.63 -162.99,148.82 0,82.19 72.98,148.82 162.99,148.82 90.02,0 162.99,-66.63 162.99,-148.82 z"/><g id="g30018" transform="scale(10)"><text style="font-variant:normal;font-weight:400;font-size:15.87380028px;font-family:Helvetica;-inkscape-font-specification:Helvetica;writing-mode:lr-tb;fill:#000;fill-opacity:1;fill-rule:nonzero;stroke:none" id="text30022" transform="matrix(1,0,0,-1,373.955,412.399)"><tspan id="tspan30020" x="0" y="0">g</tspan></text></g><path style="fill:#fff;fill-opacity:1;fill-rule:nonzero;stroke:none" id="path30024" d="m 3916.83,3062.79 c 0,-86.11 -72.97,-155.91 -162.99,-155.91 -90.02,0 -162.99,69.8 -162.99,155.91 0,86.1 72.97,155.9 162.99,155.9 90.02,0 162.99,-69.8 162.99,-155.9"/><path style="fill:none;stroke:#000;stroke-width:28.34600067;stroke-linecap:butt;stroke-linejoin:miter;stroke-miterlimit:10;stroke-dasharray:none;stroke-opacity:1" id="path30026" d="m 3916.83,3062.79 c 0,-86.11 -72.97,-155.91 -162.99,-155.91 -90.02,0 -162.99,69.8 -162.99,155.91 0,86.1 72.97,155.9 162.99,155.9 90.02,0 162.99,-69.8 162.99,-155.9 z"/><g id="g30028" transform="scale(10)"><text style="font-variant:normal;font-weight:400;font-size:15.87380028px;font-family:Helvetica;-inkscape-font-specification:Helvetica;writing-mode:lr-tb;fill:#000;fill-opacity:1;fill-rule:nonzero;stroke:none" id="text30032" transform="matrix(1,0,0,-1,369.502,305.109)"><tspan id="tspan30030" x="0" y="0">h</tspan></text></g><path style="fill:none;stroke:#000;stroke-width:28.34600067;stroke-linecap:butt;stroke-linejoin:miter;stroke-miterlimit:10;stroke-dasharray:113.384;stroke-dashoffset:0;stroke-opacity:1" id="path30034" d="m 3579.12,3086.24 c -226.02,69.4 -380.3,278.17 -380.3,514.61 0,253.04 176.24,471.93 423.46,525.92"/><path style="fill:#fff;fill-opacity:1;fill-rule:nonzero;stroke:none" id="path30036" d="m 4770.64,4335.52 c 0,-82.19 -72.98,-148.82 -162.99,-148.82 -90.02,0 -162.99,66.63 -162.99,148.82 0,82.19 72.97,148.82 162.99,148.82 90.01,0 162.99,-66.63 162.99,-148.82"/><path style="fill:none;stroke:#000;stroke-width:28.34600067;stroke-linecap:butt;stroke-linejoin:miter;stroke-miterlimit:10;stroke-dasharray:none;stroke-opacity:1" id="path30038" d="m 4770.64,4335.52 c 0,-82.19 -72.98,-148.82 -162.99,-148.82 -90.02,0 -162.99,66.63 -162.99,148.82 0,82.19 72.97,148.82 162.99,148.82 90.01,0 162.99,-66.63 162.99,-148.82 z"/><path style="fill:#fff;fill-opacity:1;fill-rule:nonzero;stroke:none" id="path30040" d="m 4827.33,2925.3 c 0,-82.18 -72.97,-148.81 -162.99,-148.81 -90.01,0 -162.98,66.63 -162.98,148.81 0,82.19 72.97,148.82 162.98,148.82 90.02,0 162.99,-66.63 162.99,-148.82"/><path style="fill:none;stroke:#000;stroke-width:28.34600067;stroke-linecap:butt;stroke-linejoin:miter;stroke-miterlimit:10;stroke-dasharray:none;stroke-opacity:1" id="path30042" d="m 4827.33,2925.3 c 0,-82.18 -72.97,-148.81 -162.99,-148.81 -90.01,0 -162.98,66.63 -162.98,148.81 0,82.19 72.97,148.82 162.98,148.82 90.02,0 162.99,-66.63 162.99,-148.82 z"/><path style="fill:#fff;fill-opacity:1;fill-rule:nonzero;stroke:none" id="path30044" d="m 5706.06,4448.9 c 0,-82.19 -72.97,-148.81 -162.99,-148.81 -90.02,0 -162.99,66.62 -162.99,148.81 0,82.19 72.97,148.82 162.99,148.82 90.02,0 162.99,-66.63 162.99,-148.82"/><path style="fill:none;stroke:#000;stroke-width:28.34600067;stroke-linecap:butt;stroke-linejoin:miter;stroke-miterlimit:10;stroke-dasharray:none;stroke-opacity:1" id="path30046" d="m 5706.06,4448.9 c 0,-82.19 -72.97,-148.81 -162.99,-148.81 -90.02,0 -162.99,66.62 -162.99,148.81 0,82.19 72.97,148.82 162.99,148.82 90.02,0 162.99,-66.63 162.99,-148.82 z"/><path style="fill:#fff;fill-opacity:1;fill-rule:nonzero;stroke:none" id="path30048" d="m 5714.56,2827.51 c 0,-82.19 -72.97,-148.81 -162.99,-148.81 -90.02,0 -162.99,66.62 -162.99,148.81 0,82.19 72.97,148.82 162.99,148.82 90.02,0 162.99,-66.63 162.99,-148.82"/><path style="fill:none;stroke:#000;stroke-width:28.34600067;stroke-linecap:butt;stroke-linejoin:miter;stroke-miterlimit:10;stroke-dasharray:none;stroke-opacity:1" id="path30050" d="m 5714.56,2827.51 c 0,-82.19 -72.97,-148.81 -162.99,-148.81 -90.02,0 -162.99,66.62 -162.99,148.81 0,82.19 72.97,148.82 162.99,148.82 90.02,0 162.99,-66.63 162.99,-148.82 z"/><path style="fill:none;stroke:#000;stroke-width:28.34600067;stroke-linecap:butt;stroke-linejoin:miter;stroke-miterlimit:10;stroke-dasharray:none;stroke-opacity:1" id="path30052" d="m 4783.25,4356.81 584.19,70.81"/><path style="fill:none;stroke:#000;stroke-width:28.34600067;stroke-linecap:butt;stroke-linejoin:miter;stroke-miterlimit:10;stroke-dasharray:none;stroke-opacity:1" id="path30054" d="m 5543.92,4286.59 6.8,-1296.8"/><path style="fill:none;stroke:#000;stroke-width:28.34600067;stroke-linecap:butt;stroke-linejoin:miter;stroke-miterlimit:10;stroke-dasharray:none;stroke-opacity:1" id="path30056" d="m 5375.57,2846.9 -535.26,58.99"/><path style="fill:none;stroke:#000;stroke-width:28.34600067;stroke-linecap:butt;stroke-linejoin:miter;stroke-miterlimit:10;stroke-dasharray:none;stroke-opacity:1" id="path30058" d="M 4436.72,4293.31 3969.27,4177.89"/><path style="fill:none;stroke:#000;stroke-width:28.34600067;stroke-linecap:butt;stroke-linejoin:miter;stroke-miterlimit:10;stroke-dasharray:none;stroke-opacity:1" id="path30060" d="m 4489.5,2951.7 -560.93,84.69"/><path style="fill:none;stroke:#000;stroke-width:28.34600067;stroke-linecap:butt;stroke-linejoin:miter;stroke-miterlimit:10;stroke-dasharray:none;stroke-opacity:1" id="path30062" d="m 4519.66,4197.02 -650.57,-1024"/><path style="fill:none;stroke:#000;stroke-width:28.34600067;stroke-linecap:butt;stroke-linejoin:miter;stroke-miterlimit:10;stroke-dasharray:none;stroke-opacity:1" id="path30064" d="m 4566.97,3061.37 -671.26,938.22"/><path style="fill:none;stroke:#000;stroke-width:28.34600067;stroke-linecap:butt;stroke-linejoin:miter;stroke-miterlimit:10;stroke-dasharray:none;stroke-opacity:1" id="path30066" d="M 5414.07,2930.1 3935.88,4033.07"/><path style="fill:none;stroke:#000;stroke-width:28.34600067;stroke-linecap:butt;stroke-linejoin:miter;stroke-miterlimit:10;stroke-dasharray:none;stroke-opacity:1" id="path30068" d="M 5477.82,2945.32 4681.38,4217.71"/><path style="fill:none;stroke:#000;stroke-width:28.34600067;stroke-linecap:butt;stroke-linejoin:miter;stroke-miterlimit:10;stroke-dasharray:none;stroke-opacity:1" id="path30070" d="m 4614.2,4172.59 43.59,-1084.35"/><path style="fill:none;stroke:#000;stroke-width:28.34600067;stroke-linecap:butt;stroke-linejoin:miter;stroke-miterlimit:10;stroke-dasharray:none;stroke-opacity:1" id="path30072" d="M 5460.16,4305.13 4747.25,3069.08"/><path style="fill:none;stroke:#000;stroke-width:28.34600067;stroke-linecap:butt;stroke-linejoin:miter;stroke-miterlimit:10;stroke-dasharray:none;stroke-opacity:1" id="path30074" d="M 5407.55,4343.91 3891.01,3169.05"/><path style="fill:#fff;fill-opacity:1;fill-rule:nonzero;stroke:none" id="path30076" d="m 5762.75,1104.07 c 0,-82.18 -72.97,-148.812 -162.99,-148.812 -90.01,0 -162.99,66.632 -162.99,148.812 0,82.19 72.98,148.82 162.99,148.82 90.02,0 162.99,-66.63 162.99,-148.82"/><path style="fill:none;stroke:#000;stroke-width:28.34600067;stroke-linecap:butt;stroke-linejoin:miter;stroke-miterlimit:10;stroke-dasharray:none;stroke-opacity:1" id="path30078" d="m 5762.75,1104.07 c 0,-82.18 -72.97,-148.812 -162.99,-148.812 -90.01,0 -162.99,66.632 -162.99,148.812 0,82.19 72.98,148.82 162.99,148.82 90.02,0 162.99,-66.63 162.99,-148.82 z"/><g id="g30080" transform="scale(10)"><text style="font-variant:normal;font-weight:400;font-size:15.87380028px;font-family:Helvetica;-inkscape-font-specification:Helvetica;writing-mode:lr-tb;fill:#000;fill-opacity:1;fill-rule:nonzero;stroke:none" id="text30084" transform="matrix(1,0,0,-1,554.094,109.238)"><tspan id="tspan30082" x="0" y="0">e</tspan></text></g><path style="fill:#fff;fill-opacity:1;fill-rule:nonzero;stroke:none" id="path30086" d="m 4373.79,608.02 c 0,-82.188 -72.97,-148.817 -162.99,-148.817 -90.01,0 -162.98,66.629 -162.98,148.817 0,82.187 72.97,148.816 162.98,148.816 90.02,0 162.99,-66.629 162.99,-148.816"/><path style="fill:none;stroke:#000;stroke-width:28.34600067;stroke-linecap:butt;stroke-linejoin:miter;stroke-miterlimit:10;stroke-dasharray:none;stroke-opacity:1" id="path30088" d="m 4373.79,608.02 c 0,-82.188 -72.97,-148.817 -162.99,-148.817 -90.01,0 -162.98,66.629 -162.98,148.817 0,82.187 72.97,148.816 162.98,148.816 90.02,0 162.99,-66.629 162.99,-148.816 z"/><g id="g30090" transform="scale(10)"><text style="font-variant:normal;font-weight:400;font-size:15.87380028px;font-family:Helvetica;-inkscape-font-specification:Helvetica;writing-mode:lr-tb;fill:#000;fill-opacity:1;fill-rule:nonzero;stroke:none" id="text30094" transform="matrix(1,0,0,-1,415.199,59.6328)"><tspan id="tspan30092" x="0" y="0">d</tspan></text></g><path style="fill:#fff;fill-opacity:1;fill-rule:nonzero;stroke:none" id="path30096" d="m 5799.6,162.988 c 0,-82.1872 -72.98,-148.8161 -162.99,-148.8161 -90.02,0 -162.99,66.6289 -162.99,148.8161 0,82.188 72.97,148.817 162.99,148.817 90.01,0 162.99,-66.629 162.99,-148.817"/><path style="fill:none;stroke:#000;stroke-width:28.34600067;stroke-linecap:butt;stroke-linejoin:miter;stroke-miterlimit:10;stroke-dasharray:none;stroke-opacity:1" id="path30098" d="m 5799.6,162.988 c 0,-82.1872 -72.98,-148.8161 -162.99,-148.8161 -90.02,0 -162.99,66.6289 -162.99,148.8161 0,82.188 72.97,148.817 162.99,148.817 90.01,0 162.99,-66.629 162.99,-148.817 z"/><g id="g30100" transform="scale(10)"><text style="font-variant:normal;font-weight:400;font-size:15.87380028px;font-family:Helvetica;-inkscape-font-specification:Helvetica;writing-mode:lr-tb;fill:#000;fill-opacity:1;fill-rule:nonzero;stroke:none" id="text30104" transform="matrix(1,0,0,-1,560.72,15.1297)"><tspan id="tspan30102" x="0" y="0">f</tspan></text></g><path style="fill:none;stroke:#000;stroke-width:28.34600067;stroke-linecap:butt;stroke-linejoin:miter;stroke-miterlimit:10;stroke-dasharray:none;stroke-opacity:1" id="path30106" d="M 4378.25,555.75 5469.17,215.258"/><path style="fill:none;stroke:#000;stroke-width:28.34600067;stroke-linecap:butt;stroke-linejoin:miter;stroke-miterlimit:10;stroke-dasharray:113.384;stroke-dashoffset:0;stroke-opacity:1" id="path30108" d="m 4300.61,748.262 c 207.99,276.338 533.76,438.868 879.63,438.868 85.01,0 169.74,-9.84 252.49,-29.34"/><path style="fill:none;stroke:#000;stroke-width:28.34600067;stroke-linecap:butt;stroke-linejoin:miter;stroke-miterlimit:10;stroke-dasharray:113.384;stroke-dashoffset:0;stroke-opacity:1" id="path30110" d="m 5740.69,1005.57 c 103.03,-100.304 161.15,-238.004 161.15,-381.797 0,-129.703 -47.31,-254.961 -133.06,-352.277"/><path style="fill:none;stroke:#000;stroke-width:28.34600067;stroke-linecap:butt;stroke-linejoin:miter;stroke-miterlimit:10;stroke-dasharray:none;stroke-opacity:1" id="path30112" d="M 3782.16,1118.9 4823.68,819.965"/><path style="fill:#98e8d6;fill-opacity:1;fill-rule:nonzero;stroke:none" id="path30114" d="m 6995.8,716.727 c 0,-129.153 -107.88,-233.852 -240.94,-233.852 -133.06,0 -240.94,104.699 -240.94,233.852 0,129.152 107.88,233.851 240.94,233.851 133.06,0 240.94,-104.699 240.94,-233.851"/><path style="fill:none;stroke:#000;stroke-width:28.34600067;stroke-linecap:butt;stroke-linejoin:miter;stroke-miterlimit:10;stroke-dasharray:none;stroke-opacity:1" id="path30116" d="m 6995.8,716.727 c 0,-129.153 -107.88,-233.852 -240.94,-233.852 -133.06,0 -240.94,104.699 -240.94,233.852 0,129.152 107.88,233.851 240.94,233.851 133.06,0 240.94,-104.699 240.94,-233.851 z"/><g id="g30118" transform="scale(10)"><text style="font-variant:normal;font-weight:400;font-size:15.87380028px;font-family:Helvetica;-inkscape-font-specification:Helvetica;writing-mode:lr-tb;fill:#000;fill-opacity:1;fill-rule:nonzero;stroke:none" id="text30122" transform="matrix(1,0,0,-1,668.435,70.5035)"><tspan id="tspan30120" x="0" y="0">P</tspan></text></g><path style="fill:none;stroke:#000;stroke-width:28.34600067;stroke-linecap:butt;stroke-linejoin:miter;stroke-miterlimit:10;stroke-dasharray:none;stroke-opacity:1" id="path30124" d="M 5322.73,744.762 6500.37,721.715"/><path style="fill:#fff;fill-opacity:1;fill-rule:nonzero;stroke:none" id="path30126" d="m 6712.34,1156.09 c 0,-82.19 -72.97,-148.82 -162.99,-148.82 -90.01,0 -162.99,66.63 -162.99,148.82 0,82.19 72.98,148.82 162.99,148.82 90.02,0 162.99,-66.63 162.99,-148.82"/><path style="fill:none;stroke:#000;stroke-width:28.34600067;stroke-linecap:butt;stroke-linejoin:miter;stroke-miterlimit:10;stroke-dasharray:none;stroke-opacity:1" id="path30128" d="m 6712.34,1156.09 c 0,-82.19 -72.97,-148.82 -162.99,-148.82 -90.01,0 -162.99,66.63 -162.99,148.82 0,82.19 72.98,148.82 162.99,148.82 90.02,0 162.99,-66.63 162.99,-148.82 z"/><g id="g30130" transform="scale(10)"><text style="font-variant:normal;font-weight:400;font-size:15.87380028px;font-family:Helvetica;-inkscape-font-specification:Helvetica;writing-mode:lr-tb;fill:#000;fill-opacity:1;fill-rule:nonzero;stroke:none" id="text30134" transform="matrix(1,0,0,-1,649.054,114.44)"><tspan id="tspan30132" x="0" y="0">e</tspan></text></g><path style="fill:#fff;fill-opacity:1;fill-rule:nonzero;stroke:none" id="path30136" d="m 6749.19,215.004 c 0,-82.188 -72.98,-148.8165 -162.99,-148.8165 -90.02,0 -162.99,66.6285 -162.99,148.8165 0,82.187 72.97,148.816 162.99,148.816 90.01,0 162.99,-66.629 162.99,-148.816"/><path style="fill:none;stroke:#000;stroke-width:28.34600067;stroke-linecap:butt;stroke-linejoin:miter;stroke-miterlimit:10;stroke-dasharray:none;stroke-opacity:1" id="path30138" d="m 6749.19,215.004 c 0,-82.188 -72.98,-148.8165 -162.99,-148.8165 -90.02,0 -162.99,66.6285 -162.99,148.8165 0,82.187 72.97,148.816 162.99,148.816 90.01,0 162.99,-66.629 162.99,-148.816 z"/><g id="g30140" transform="scale(10)"><text style="font-variant:normal;font-weight:400;font-size:15.87380028px;font-family:Helvetica;-inkscape-font-specification:Helvetica;writing-mode:lr-tb;fill:#000;fill-opacity:1;fill-rule:nonzero;stroke:none" id="text30144" transform="matrix(1,0,0,-1,655.679,20.3309)"><tspan id="tspan30142" x="0" y="0">f</tspan></text></g><path style="fill:none;stroke:#000;stroke-width:28.34600067;stroke-linecap:butt;stroke-linejoin:miter;stroke-miterlimit:10;stroke-dasharray:113.384;stroke-dashoffset:0;stroke-opacity:1" id="path30146" d="m 6445.27,313.504 c -103.03,100.308 -161.15,238.008 -161.15,381.801 0,129.703 47.31,254.961 133.06,352.275"/><path style="fill:none;stroke:#000;stroke-width:28.34600067;stroke-linecap:butt;stroke-linejoin:miter;stroke-miterlimit:10;stroke-dasharray:none;stroke-opacity:1" id="path30148" d="m 6555.73,993.188 24.09,-615.282"/><path style="fill:none;stroke:#000;stroke-width:28.34600067;stroke-linecap:butt;stroke-linejoin:miter;stroke-miterlimit:10;stroke-dasharray:113.384;stroke-dashoffset:0;stroke-opacity:1" id="path30150" d="m 6724.51,1178.13 c 258.54,-14.65 460.69,-228.575 460.69,-487.528 0,-244.086 -180.24,-450.684 -422.07,-483.793"/><path style="fill:none;stroke:#000;stroke-width:28.34600067;stroke-linecap:butt;stroke-linejoin:miter;stroke-miterlimit:10;stroke-dasharray:283.46,56.692,56.692,56.692,56.692,56.692;stroke-dashoffset:0;stroke-opacity:1" id="path30152" d="m 7006.88,716.5 1341.03,-1.191"/><path style="fill:#98e8d6;fill-opacity:1;fill-rule:nonzero;stroke:none" id="path30154" d="m 1126.75,4536.35 c 0,-129.15 -107.87,-233.85 -240.938,-233.85 -133.062,0 -240.937,104.7 -240.937,233.85 0,129.15 107.875,233.85 240.937,233.85 133.068,0 240.938,-104.7 240.938,-233.85"/><path style="fill:none;stroke:#000;stroke-width:28.34600067;stroke-linecap:butt;stroke-linejoin:miter;stroke-miterlimit:10;stroke-dasharray:none;stroke-opacity:1" id="path30156" d="m 1126.75,4536.35 c 0,-129.15 -107.87,-233.85 -240.938,-233.85 -133.062,0 -240.937,104.7 -240.937,233.85 0,129.15 107.875,233.85 240.937,233.85 133.068,0 240.938,-104.7 240.938,-233.85 z"/><g id="g30158" transform="scale(10)"><text style="font-variant:normal;font-weight:400;font-size:15.87380028px;font-family:Helvetica;-inkscape-font-specification:Helvetica;writing-mode:lr-tb;fill:#000;fill-opacity:1;fill-rule:nonzero;stroke:none" id="text30162" transform="matrix(1,0,0,-1,81.5301,452.466)"><tspan id="tspan30160" x="0" y="0">P</tspan></text></g><path style="fill:none;stroke:#000;stroke-width:28.34600067;stroke-linecap:butt;stroke-linejoin:miter;stroke-miterlimit:10;stroke-dasharray:283.46,56.692,56.692,56.692,56.692,56.692;stroke-dashoffset:0;stroke-opacity:1" id="path30164" d="m 1110.5,4652.48 1157.19,598.19"/></g></g></svg>