<?xml version="1.0" standalone="no"?>
<!DOCTYPE svg PUBLIC "-//W3C/DTD SVG 1.1//EN"
  "http://www.w3.org/Graphics/SVG/1.1/DTD/svg11.dtd">
<svg width="500px" height="500px" viewBox="0 0 30000 30000"
  xmlns="http://www.w3.org/2000/svg" version="1.1">
  <desc>Generate from recti package</desc>
  <g transform="translate(1000,1000)">
<rect x="0" y="13150" width="11175" height="1700" style="stroke:none;fill-opacity:0.4;fill:green"/>
<rect x="525" y="6525" width="650" height="2975" style="stroke:none;fill-opacity:0.4;fill:green"/>
<rect x="1825" y="7650" width="700" height="650" style="stroke:none;fill-opacity:0.4;fill:green"/>
<rect x="2275" y="10700" width="1350" height="2450" style="stroke:none;fill-opacity:0.4;fill:green"/>
<rect x="0" y="-850" width="22800" height="1700" style="stroke:none;fill-opacity:0.4;fill:green"/>
<rect x="2425" y="850" width="1350" height="2375" style="stroke:none;fill-opacity:0.4;fill:green"/>
<rect x="2525" y="7650" width="650" height="2125" style="stroke:none;fill-opacity:0.4;fill:green"/>
<rect x="6025" y="10300" width="1350" height="650" style="stroke:none;fill-opacity:0.4;fill:green"/>
<rect x="6375" y="3675" width="1200" height="850" style="stroke:none;fill-opacity:0.4;fill:green"/>
<rect x="7575" y="3875" width="925" height="650" style="stroke:none;fill-opacity:0.4;fill:green"/>
<rect x="7675" y="6675" width="425" height="650" style="stroke:none;fill-opacity:0.4;fill:green"/>
<rect x="8100" y="6675" width="1925" height="650" style="stroke:none;fill-opacity:0.4;fill:green"/>
<rect x="8500" y="3875" width="1900" height="650" style="stroke:none;fill-opacity:0.4;fill:green"/>
<rect x="8775" y="11175" width="650" height="850" style="stroke:none;fill-opacity:0.4;fill:green"/>
<rect x="9175" y="9675" width="650" height="2100" style="stroke:none;fill-opacity:0.4;fill:green"/>
<rect x="9975" y="12425" width="1350" height="725" style="stroke:none;fill-opacity:0.4;fill:green"/>
<rect x="10025" y="6675" width="1650" height="650" style="stroke:none;fill-opacity:0.4;fill:green"/>
<rect x="10400" y="3875" width="3175" height="650" style="stroke:none;fill-opacity:0.4;fill:green"/>
<rect x="11175" y="13150" width="5150" height="1700" style="stroke:none;fill-opacity:0.4;fill:green"/>
<rect x="11675" y="6675" width="750" height="1350" style="stroke:none;fill-opacity:0.4;fill:green"/>
<rect x="13575" y="3175" width="1400" height="1350" style="stroke:none;fill-opacity:0.4;fill:green"/>
<rect x="13925" y="10225" width="1050" height="650" style="stroke:none;fill-opacity:0.4;fill:green"/>
<rect x="14325" y="4525" width="650" height="5700" style="stroke:none;fill-opacity:0.4;fill:green"/>
<rect x="14975" y="10225" width="300" height="650" style="stroke:none;fill-opacity:0.4;fill:green"/>
<rect x="16325" y="13150" width="6475" height="1700" style="stroke:none;fill-opacity:0.4;fill:green"/>
<rect x="16425" y="8225" width="650" height="537" style="stroke:none;fill-opacity:0.4;fill:green"/>
<rect x="16425" y="7575" width="1800" height="650" style="stroke:none;fill-opacity:0.4;fill:green"/>
<rect x="17725" y="10625" width="1350" height="2525" style="stroke:none;fill-opacity:0.4;fill:green"/>
<rect x="17925" y="850" width="1350" height="2375" style="stroke:none;fill-opacity:0.4;fill:green"/>
<rect x="20375" y="4675" width="650" height="4087" style="stroke:none;fill-opacity:0.4;fill:green"/>
<rect x="525" y="11150" width="700" height="1350" style="stroke:none;fill-opacity:0.4;fill:red"/>
<rect x="525" y="9500" width="650" height="1650" style="stroke:none;fill-opacity:0.4;fill:red"/>
<rect x="725" y="2675" width="650" height="4325" style="stroke:none;fill-opacity:0.4;fill:red"/>
<rect x="1375" y="6350" width="2900" height="650" style="stroke:none;fill-opacity:0.4;fill:red"/>
<rect x="4275" y="6350" width="650" height="5900" style="stroke:none;fill-opacity:0.4;fill:red"/>
<rect x="4925" y="11600" width="3850" height="650" style="stroke:none;fill-opacity:0.4;fill:red"/>
<rect x="6225" y="1625" width="1350" height="2050" style="stroke:none;fill-opacity:0.4;fill:red"/>
<rect x="6375" y="4525" width="650" height="5775" style="stroke:none;fill-opacity:0.4;fill:red"/>
<rect x="7675" y="5175" width="6000" height="650" style="stroke:none;fill-opacity:0.4;fill:red"/>
<rect x="8775" y="12025" width="500" height="225" style="stroke:none;fill-opacity:0.4;fill:red"/>
<rect x="9175" y="7975" width="1350" height="650" style="stroke:none;fill-opacity:0.4;fill:red"/>
<rect x="9175" y="8625" width="650" height="1050" style="stroke:none;fill-opacity:0.4;fill:red"/>
<rect x="9825" y="11125" width="400" height="650" style="stroke:none;fill-opacity:0.4;fill:red"/>
<rect x="9975" y="850" width="1350" height="2375" style="stroke:none;fill-opacity:0.4;fill:red"/>
<rect x="10225" y="11125" width="2300" height="650" style="stroke:none;fill-opacity:0.4;fill:red"/>
<rect x="11925" y="11775" width="600" height="400" style="stroke:none;fill-opacity:0.4;fill:red"/>
<rect x="12425" y="6675" width="600" height="1350" style="stroke:none;fill-opacity:0.4;fill:red"/>
<rect x="12525" y="11525" width="4550" height="650" style="stroke:none;fill-opacity:0.4;fill:red"/>
<rect x="13025" y="6675" width="650" height="650" style="stroke:none;fill-opacity:0.4;fill:red"/>
<rect x="13775" y="1625" width="1350" height="1550" style="stroke:none;fill-opacity:0.4;fill:red"/>
<rect x="14975" y="3175" width="150" height="500" style="stroke:none;fill-opacity:0.4;fill:red"/>
<rect x="15625" y="6250" width="3100" height="650" style="stroke:none;fill-opacity:0.4;fill:red"/>
<rect x="15625" y="4275" width="900" height="650" style="stroke:none;fill-opacity:0.4;fill:red"/>
<rect x="16425" y="8762" width="650" height="2763" style="stroke:none;fill-opacity:0.4;fill:red"/>
<rect x="16525" y="4275" width="4450" height="650" style="stroke:none;fill-opacity:0.4;fill:red"/>
<rect x="18725" y="6250" width="1000" height="650" style="stroke:none;fill-opacity:0.4;fill:red"/>
<rect x="20125" y="11075" width="900" height="1350" style="stroke:none;fill-opacity:0.4;fill:red"/>
<rect x="20325" y="2675" width="650" height="1600" style="stroke:none;fill-opacity:0.4;fill:red"/>
<rect x="20375" y="8762" width="650" height="2313" style="stroke:none;fill-opacity:0.4;fill:red"/>
<line x1="2950" y1="11925" x2="2850" y2="8712" stroke="blue" stroke-width="10" />
<line x1="850" y1="8012" x2="2850" y2="8712" stroke="blue" stroke-width="10" />
<line x1="850" y1="8012" x2="2175" y2="7975" stroke="blue" stroke-width="10" />
<line x1="17175" y1="6575" x2="16075" y2="4600" stroke="blue" stroke-width="10" />
<line x1="6850" y1="11925" x2="6700" y2="7412" stroke="blue" stroke-width="10" />
<line x1="14450" y1="2400" x2="16075" y2="4600" stroke="blue" stroke-width="10" />
<line x1="9025" y1="12137" x2="11375" y2="11450" stroke="blue" stroke-width="10" />
<line x1="6850" y1="11925" x2="10025" y2="11450" stroke="blue" stroke-width="10" />
<line x1="6900" y1="2650" x2="6700" y2="7412" stroke="blue" stroke-width="10" />
<line x1="10675" y1="5500" x2="13350" y2="7000" stroke="blue" stroke-width="10" />
<line x1="10675" y1="5500" x2="12725" y2="7350" stroke="blue" stroke-width="10" />
<line x1="6700" y1="7412" x2="10675" y2="5500" stroke="blue" stroke-width="10" />
<line x1="11987" y1="4200" x2="14650" y2="7375" stroke="blue" stroke-width="10" />
<line x1="5587" y1="14000" x2="9100" y2="11600" stroke="blue" stroke-width="10" />
<line x1="9100" y1="11600" x2="10650" y2="12787" stroke="blue" stroke-width="10" />
<line x1="9500" y1="10725" x2="10650" y2="12787" stroke="blue" stroke-width="10" />
<line x1="9025" y1="12137" x2="10025" y2="11450" stroke="blue" stroke-width="10" />
<line x1="5587" y1="14000" x2="9500" y2="10725" stroke="blue" stroke-width="10" />
<line x1="15050" y1="3425" x2="16075" y2="4600" stroke="blue" stroke-width="10" />
<line x1="17175" y1="6575" x2="18750" y2="4600" stroke="blue" stroke-width="10" />
<line x1="18750" y1="4600" x2="19225" y2="6575" stroke="blue" stroke-width="10" />
<line x1="6975" y1="4100" x2="9450" y2="4200" stroke="blue" stroke-width="10" />
  </g>
</svg>