<svg xmlns="http://www.w3.org/2000/svg" width="327.1" height="231.1">
  <path d="M0 130.7h8.9v94.6H0zM2.7 29.3h8.9V124h-9z" fill="green" fill-opacity=".4"/>
  <path d="M2.7 124H23v13.3H2.7zM70.2 128.4H104v9H70.2z" fill="green" fill-opacity=".4"/>
  <path d="M70.2 137.3h9v88h-9zM72.9 0h8.9v72.9h-9zM104 111.1h9.8v8.9H104zM104 120h8.9v8.4H104z" fill="green" fill-opacity=".4"/>
  <path d="M113.8 106.7H127V120h-13.3zM140.4 0h9v129.8h-9zM140.4 143.1h9v88h-9zM196.4 106.7h13.4V120h-13.4zM201.3 64h53.8v8.9h-53.8zM208 0h8.9v64H208zM209.8 109.3h9.8V120h-9.8zM210.7 120h8.9v104h-9z" fill="green" fill-opacity=".4"/>
  <path d="M219.6 109.3h24.8v9h-24.8zM277.3 122.7h13.4V136h-13.4zM278.2 136h9v88h-9zM281.8 0h8.9v122.7h-9zM323.6 99.1h3.5v7.1h-3.5z" fill="green" fill-opacity=".4"/>
  <path d="M34.7 100.9H48v13.3H34.7zM36.4 114.2h9v111.1h-9zM39.1 0H48v100.9h-8.9zM81.8 64h32v8.9h-32zM104 128.4h8.9v97H104zM106.7 0h8.9v64h-9zM113.8 80H127v13.3h-13.3z" fill="red" fill-opacity=".4"/>
  <path d="M113.8 64h8.9v16h-9zM140.4 129.8h42.7V143h-42.7zM174.2 0h9v129.8h-9zM174.2 143.1h9v88h-9zM196.4 69.8h13.4v23.5h-13.4zM241.8 0h8.9v64h-9zM244.4 109.3h9V224h-9z" fill="red" fill-opacity=".4"/>
  <path d="M244.9 103.6H255v8.8H245zM255.1 99.1h13.3v13.3h-13.3zM255.1 64h13.3v13.3h-13.3zM304 99.1h19.6v13.3H304zM314.7 112.4h8.9V224h-9zM318.2 29.3h9v69.8h-9z" fill="red" fill-opacity=".4"/>
  <path d="M108.4 124.2l36.5 63M120.4 113.3l24.5 73.8M108.4 176.9l53.4-40.5M108.4 124.2L145 65M261.8 105.8V70.7M250 108l11.8-37.3M228.2 68.4l58-7M178.7 64.9L203 81.5M120.4 113.3L145 65M108.9 115.6l36-50.7" stroke="#00f" stroke-width=".133333"/>
</svg>
