<svg xmlns="http://www.w3.org/2000/svg" width="353.1" height="138.7"><path fill="green" fill-opacity=".4" d="M0 17.6h5.3v35.2H0z"/><path fill="green" fill-opacity=".4" d="M0 52.8h10.7v8H0zm0 8h5.3v50.1H0zM27.2 64h12v5.3h-12zm12 0h43.5v5.3H39.2zm2.9-64h5.4v43.7H42zm0 85.9h5.4v52.8H42zM82.7 64H88v74.7h-5.3zm0-64H88v44h-5.3z"/><path fill="green" fill-opacity=".4" d="M83.7 40.8H103v5.3H83.7zm0 5.3h5.4V64h-5.4zM88 64h1v3.2h-1zm32.5 0h8v8h-8zm2.7-64h5.3v48h-5.3zm0 72h5.3v66.7h-5.3zm5.3 8.5h7.5V86h-7.5zm32.5-2.6h8v8h-8zm2.7 8h5.4v52.8h-5.4zm0-85.9h5.4v77.9h-5.4z"/><path fill="green" fill-opacity=".4" d="M169 38.4h15v5.3h-15zM201.6 64h8v8h-8zm2.7-64h5.3v48h-5.3zm0 72h5.3v66.7h-5.3zm37.8 5.9h8v8h-8zm2.7 8h5.3v52.8h-5.3zm0-85.9h5.3v77.9h-5.3zm5.3 38.4h15v5.3h-15zM282.7 64h8v8h-8zm2.6 8h5.4v66.7h-5.4zm0-72h5.4v43.7h-5.4z"/><path fill="green" fill-opacity=".4" d="M290.7 38.4h14.9v5.3h-15zm32.5 39.5h8v8h-8zM325.9 0h5.3v77.9h-5.3zm0 85.9h5.3v52.8h-5.3z"/><path fill="red" fill-opacity=".4" d="M19.2 77.9h8v8h-8zM21.9 0h5.3v77.9h-5.3zm0 85.9h5.3v52.8h-5.3zm20.2-5.4h20.3V86H42.1zm5.4-42.1h20.2v5.3H47.5zm14.9 42.1h5.3v58.2h-5.3zm0-80.5h5.3v38.4h-5.3z"/><path fill="red" fill-opacity=".4" d="M66.7 77.3h8V86h-8zm1-29.3h8v8h-8zm0-9.6h5.4V48h-5.4zM103 85.9h5.3v52.8h-5.4zm0-8h8v8h-8zm0-37.1h5.3v37h-5.4zM103 0h5.3v40.8h-5.4zm17.5 48h8v8h-8zm8-9.6h20.3v5.3h-20.3zm7.5 42.1h7.5V86H136zm7.5 0h5.3v58.2h-5.3zm0-80.5h5.3v38.4h-5.3zM184 38.4h5.3v100.3H184zM184 0h5.3v38.4H184zm17.6 48h8v8h-8zm8 32.5h15V86h-15zm0-42.1h20.3v5.3h-20.3z"/><path fill="red" fill-opacity=".4" d="M224.5 80.5h5.4v58.2h-5.4zm0-80.5h5.4v38.4h-5.4zM265 38.4h5.4v100.3h-5.3zM265 0h5.4v38.4h-5.3zm25.7 80.5h14.9V86h-15zM305.6 0h5.3v38.4h-5.3zm0 80.5h5.3v58.2h-5.3zm0-42.1h5.3v5.9h-5.3zm0 5.9h8v8h-8zm36.8 16h10.7v8h-10.7zm5.3 8h5.4v42.6h-5.4z"/><path fill="red" fill-opacity=".4" d="M347.7 17.6h5.4v42.7h-5.4z"/><path stroke="#00f" stroke-width=".133" d="m124.5 52 21.6-32.8M5.3 56.8l27.9 9.9m72.4-46.3 19 31.6M24.5 112.3l27.8-29.1M124.5 68l1.4-44M61 66.7l-16.2 45.6M33.2 66.7l11.6 45.6M23.2 81.9l29 1.3M24.5 39l27.8 44.2M61 66.7 85.2 22m20.4 37.3 19-7.3m-39.3 49.3V22m120.3 30 21.6-32.8m-40.5 0L205.6 52m0 16 1.3-44m-20.2 64.5L205.6 52"/></svg>