<svg xmlns="http://www.w3.org/2000/svg" width="500" height="500" viewBox="0 0 30000 30000"><path fill="green" fill-opacity=".4" d="M1000 14150h11175v1700H1000zm525-6625h650v2975h-650zm1300 1125h700v650h-700zm450 3050h1350v2450H3275zM1000 150h22800v1700H1000zm2425 1700h1350v2375H3425zm100 6800h650v2125h-650zm3500 2650h1350v650H7025zm350-6625h1200v850H7375zm1200 200h925v650h-925zm100 2800h425v650h-425zm425 0h1925v650H9100zm400-2800h1900v650H9500zm275 7300h650v850h-650z"/><path fill="green" fill-opacity=".4" d="M10175 10675h650v2100h-650zm800 2750h1350v725h-1350zm50-5750h1650v650h-1650zm375-2800h3175v650h-3175zm775 9275h5150v1700h-5150zm500-6475h750v1350h-750zm1900-3500h1400v1350h-1400zm350 7050h1050v650h-1050zm400-5700h650v5700h-650zm650 5700h300v650h-300zm1350 2925h6475v1700h-6475zm100-4925h650v537h-650zm0-650h1800v650h-1800zm1300 3050h1350v2525h-1350zm200-9775h1350v2375h-1350zm2450 3825h650v4087h-650z"/><path fill="red" fill-opacity=".4" d="M1525 12150h700v1350h-700zm0-1650h650v1650h-650zm200-6825h650v4325h-650zm650 3675h2900v650H2375zm2900 0h650v5900h-650zm650 5250h3850v650H5925zm1300-9975h1350v2050H7225zm150 2900h650v5775h-650zm1300 650h6000v650H8675zm1100 6850h500v225h-500zm400-4050h1350v650h-1350zm0 650h650v1050h-650zm650 2500h400v650h-400zm150-10275h1350v2375h-1350zm250 10275h2300v650h-2300zm1700 650h600v400h-600zm500-5100h600v1350h-600zm100 4850h4550v650h-4550zm500-4850h650v650h-650zm750-5050h1350v1550h-1350zm1200 1550h150v500h-150zm650 3075h3100v650h-3100zm0-1975h900v650h-900zm800 4487h650v2763h-650zm100-4487h4450v650h-4450zm2200 1975h1000v650h-1000zm1400 4825h900v1350h-900zm200-8400h650v1600h-650zm50 6087h650v2313h-650z"/><path stroke="#00f" stroke-width="10" d="m3950 12925-100-3213m-2000-700 2000 700m-2000-700 1325-37m15000-1400-1100-1975m-9225 7325-150-4513m7750-5012 1625 2200m-7050 7537 2350-687m-4525 475 3175-475M7900 3650l-200 4762m3975-1912 2675 1500m-2675-1500 2050 1850m-6025 62 3975-1912m1312-1300 2663 3175m-9063 6625 3513-2400m0 0 1550 1187m-1150-2062 1150 2062m-1625-650 1000-687m-4438 2550 3913-3275m5550-7300 1025 1175m1100 1975 1575-1975m0 0 475 1975M7975 5100l2475 100"/></svg>