<svg xmlns="http://www.w3.org/2000/svg" width="405.3" height="279.1"><path fill="green" fill-opacity=".4" d="M0 248.9h405.3V279H0zM32.4 151.1H45v11.6H32.4z"/><path fill="green" fill-opacity=".4" d="M40.4 205.3h24V249h-24zM43.1 30.2h24v42.2h-24zM44.9 151.1h11.5V189H45zM107.1 198.2h24v11.6h-24zM110.7 44h24v36.4h-24zM113.3 95.6H125v102.6h-11.6zM136.4 107.1h106.7v11.6H136.4zM163.1 156.9h24v11.5h-24zM163.1 168.4h11.6v56H163zM177.3 236h24v12.9h-24zM177.3 30.2h24v42.2h-24zM244.9 44h24v27.6h-24zM247.6 196.9h18.6v11.5h-18.6zM254.7 95.6h11.5v101.3h-11.5zM266.2 196.9h5.4v11.5h-5.4zM277.8 91.1h95v11.6h-95zM292 149.8h32v11.5h-32zM315.1 204h24v44.9h-24z"/><path fill="green" fill-opacity=".4" d="M362.2 98.2h11.6V212h-11.6z"/><path fill="red" fill-opacity=".4" d="M9.3 213.3h12.5v24H9.3zM9.3 131.1H21v82.2H9.3z"/><path fill="red" fill-opacity=".4" d="M12.9 62.7h11.5v76.9H13zM24.4 128H76v11.6H24.4zM0 0h405.3v30.2H0zM76 128h11.6v104.9H76zM87.6 221.3H156V233H87.6zM113.3 80.4h21.4v15.2h-21.4zM134.7 84h106.6v11.6H134.7zM136.4 133.8h71.2v11.5h-71.2zM156 228.9h8.9v4H156zM156 213.8h11.6v15H156zM174.7 212.9h48v11.5h-48z"/><path fill="red" fill-opacity=".4" d="M207.6 133.8h24v24h-24zM212 224.4h10.7v7.2H212z"/><path fill="red" fill-opacity=".4" d="M222.7 220h80.9v11.6h-81zM231.6 133.8H243v11.5h-11.5zM241.3 71.6h25v24h-25z"/><path fill="red" fill-opacity=".4" d="M266.2 71.6h2.7v8.8h-2.7zM277.8 126.2h72.9v11.6h-73zM292 161.3h11.6V220H292zM318.7 30.2h24v42.2h-24zM357.8 212h16v24h-16zM361.3 62.7H373V91h-11.6z"/><path stroke="#00f" stroke-width="1.733" d="M122.7 62.2l67 50.7M256.9 57.8l68.4 39M172 139.6h65.3M327.1 226.4l40.9-71.3M314.2 132l-16.4 58.7M121.8 227.1l76.9-8.4M256.9 57.8l3.5 88.4M122.7 62.2L119 147M188 89.8L267.6 76M260.4 146.2l65-49.3M189.8 112.9l70.6 33.3M119.1 146.9l70.7-34M202.7 264l-33.8-67.6M168.9 196.4l20.4 46M160.4 230.9l38.3-12.2M161.8 221.3l36.9-2.6M52.4 227.1L50.7 170M15.1 172.2l35.1-38.4M330.7 51.3L367 77M260.4 146.2l47.6 9.4"/></svg>
