<svg xmlns="http://www.w3.org/2000/svg" width="689.1" height="306.6"><path d="M171.2 224a.5.5 0 1 1-1 0 .5.5 0 0 1 1 0zm3.2 21.5a1 1 0 1 1-2.1 0 1 1 0 0 1 2.1 0z"/><path stroke="green" stroke-width=".533" d="m170.7 224 2.7 21.5"/><path d="M173.9 245.5a.5.5 0 1 1-1 0 .5.5 0 0 1 1 0zm-2.1 29.1c0 .6-.5 1-1.1 1a1 1 0 0 1-1-1c0-.6.4-1 1-1s1 .4 1 1z"/><path stroke="green" stroke-width=".533" d="m173.4 245.5-2.7 29"/><path d="M191.8 270.6a.5.5 0 0 1-1.1 0c0-.3.2-.5.5-.5s.6.2.6.5zm1.8-42.9a1 1 0 0 1-2.1 0c0-.6.5-1.1 1-1.1.7 0 1.1.5 1.1 1z"/><path stroke="green" stroke-width=".533" d="m191.2 270.6 1.4-43"/><path d="M191.8 270.6a.5.5 0 0 1-1.1 0c0-.3.2-.5.5-.5s.6.2.6.5zm1.8 30.4a1 1 0 0 1-2.1 0c0-.6.5-1 1-1 .7 0 1.1.4 1.1 1z"/><path stroke="green" stroke-width=".533" d="m191.2 270.6 1.4 30.4"/><path d="M193 227.7a.5.5 0 1 1-1 0 .5.5 0 0 1 1 0zm31 27.7a1 1 0 1 1-2.1 0 1 1 0 0 1 2.1 0z"/><path stroke="green" stroke-width=".533" d="m192.6 227.7 30.4 27.7"/><path d="M213.4 301a.5.5 0 1 1-1.1 0c0-.3.2-.5.5-.5s.6.2.6.5zm8-29c0 .5-.5 1-1.1 1a1 1 0 1 1 1-1z"/><path stroke="green" stroke-width=".533" d="m212.8 301 7.5-29"/><path d="M213.4 210.6c0 .3-.3.5-.6.5a.5.5 0 0 1-.5-.5.5.5 0 1 1 1 0zm13.3 19.2a1 1 0 1 1-2.1 0c0-.6.4-1 1-1s1 .4 1 1z"/><path stroke="green" stroke-width=".533" d="m212.8 210.6 12.8 19.2"/><path d="M220.8 272a.5.5 0 1 1-1 0 .5.5 0 0 1 1 0zm13.4 26.3a1 1 0 0 1-2.2 0c0-.6.5-1 1-1 .7 0 1.2.4 1.2 1z"/><path stroke="green" stroke-width=".533" d="m220.3 272 12.8 26.3"/><path d="M226.2 229.8c0 .3-.3.5-.6.5a.5.5 0 1 1 0-1c.3 0 .6.2.6.5zm8-21.8a1 1 0 1 1-2.2 0 1 1 0 0 1 2.2 0z"/><path stroke="green" stroke-width=".533" d="m225.6 229.8 7.5-21.9"/><path d="M233.6 298.3c0 .3-.2.6-.5.6a.5.5 0 0 1 0-1.1c.3 0 .5.2.5.5zm6.2-28a1 1 0 1 1-2.2 0 1 1 0 0 1 2.2 0z"/><path stroke="green" stroke-width=".533" d="m233 298.3 5.7-28"/><path d="M233.6 208a.5.5 0 1 1-1 0 .5.5 0 0 1 1 0zm5.9 24a1 1 0 1 1-2.1 0 1 1 0 0 1 2 0z"/><path stroke="green" stroke-width=".533" d="m233 208 5.4 24"/><path d="M226.2 229.8c0 .3-.3.5-.6.5a.5.5 0 1 1 0-1c.3 0 .6.2.6.5zm13.3 2.2a1 1 0 1 1-2.1 0 1 1 0 0 1 2 0z"/><path stroke="green" stroke-width=".533" d="m225.6 229.8 12.8 2.1"/><path d="M240.3 240.7c0 .3-.2.6-.5.6a.5.5 0 0 1 0-1.1c.3 0 .5.2.5.5zm-.8-8.7a1 1 0 1 1-2.1 0 1 1 0 0 1 2 0z"/><path stroke="green" stroke-width=".533" d="m239.8 240.7-1.4-8.8"/><path d="M223.5 255.4a.5.5 0 1 1-1 0 .5.5 0 0 1 1 0zm30.9 34.6a1 1 0 1 1-2.1 0 1 1 0 0 1 2.1 0z"/><path stroke="green" stroke-width=".533" d="m223 255.4 30.4 34.7"/><path d="M253.9 210.7c0 .3-.2.6-.5.6a.5.5 0 0 1 0-1.1c.3 0 .5.2.5.5zm8.5 21.5a1 1 0 1 1-2.1 0 1 1 0 0 1 2.1 0z"/><path stroke="green" stroke-width=".533" d="m253.4 210.7 8 21.5"/><path d="M261.9 232.2a.5.5 0 1 1-1 0 .5.5 0 0 1 1 0zm-6.4 11.6a1 1 0 1 1-2.1 0 1 1 0 0 1 2 0z"/><path stroke="green" stroke-width=".533" d="m261.4 232.2-7 11.6"/><path d="M253.9 290c0 .3-.2.6-.5.6a.5.5 0 1 1 .5-.5zm1.6-46.2a1 1 0 1 1-2.1 0 1 1 0 0 1 2 0z"/><path stroke="green" stroke-width=".533" d="m253.4 290 1-46.2"/><path d="M255 243.8c0 .3-.3.5-.6.5a.5.5 0 1 1 0-1c.3 0 .6.2.6.5zm2.6 10.5a1 1 0 0 1-2.1 0c0-.6.5-1 1-1 .7 0 1.1.4 1.1 1z"/><path stroke="green" stroke-width=".533" d="m254.4 243.8 2.2 10.5"/><path d="M253.9 290c0 .3-.2.6-.5.6a.5.5 0 1 1 .5-.5zm3.7-35.7a1 1 0 0 1-2.1 0c0-.6.5-1 1-1 .7 0 1.1.4 1.1 1z"/><path stroke="green" stroke-width=".533" d="m253.4 290 3.2-35.7"/><path d="M274.2 301a.5.5 0 1 1-1.1 0c0-.3.2-.5.5-.5s.6.2.6.5zm1.8-30.4c0 .6-.4 1-1 1a1 1 0 1 1 1-1z"/><path stroke="green" stroke-width=".533" d="m273.6 301 1.4-30.4"/><path d="M261.9 232.2a.5.5 0 1 1-1 0 .5.5 0 0 1 1 0zm12.8 15.8a1 1 0 1 1-2.1 0c0-.5.4-1 1-1s1 .5 1 1z"/><path stroke="green" stroke-width=".533" d="m261.4 232.2 12.2 15.8"/><path d="M275.5 270.6a.5.5 0 1 1-1 0 .5.5 0 0 1 1 0zm-.8-22.6a1 1 0 1 1-2.1 0c0-.5.4-1 1-1s1 .5 1 1z"/><path stroke="green" stroke-width=".533" d="m275 270.6-1.4-22.6"/><path d="M261.9 232.2a.5.5 0 1 1-1 0 .5.5 0 0 1 1 0zm12.8-23.1a1 1 0 1 1-2.1 0 1 1 0 0 1 2 0z"/><path stroke="green" stroke-width=".533" d="m261.4 232.2 12.2-23"/><path d="M274.2 248a.5.5 0 1 1-1.1 0c0-.2.2-.5.5-.5s.6.3.6.5zm.5-38.9a1 1 0 1 1-2.1 0 1 1 0 0 1 2 0z"/><path stroke="green" stroke-width=".533" d="M273.6 248v-38.9"/><path d="M293 240.7a.5.5 0 1 1-1 0 .5.5 0 0 1 1 0zm2-28a1 1 0 1 1-2.2 0 1 1 0 0 1 2.2 0z"/><path stroke="green" stroke-width=".533" d="m292.6 240.7 1.3-28"/><path d="M293 256.7a.5.5 0 1 1-1 0 .5.5 0 0 1 1 0zm2 37.3a1 1 0 1 1-2.2 0 1 1 0 0 1 2.2 0z"/><path stroke="green" stroke-width=".533" d="m292.6 256.7 1.3 37.4"/><path d="M294.4 294a.5.5 0 1 1-1 0 .5.5 0 0 1 1 0zm10.6-22c0 .5-.4 1-1 1a1 1 0 0 1-1-1c0-.7.4-1.1 1-1.1s1 .4 1 1z"/><path stroke="green" stroke-width=".533" d="m293.9 294 10.1-22"/><path d="M294.4 212.7a.5.5 0 1 1-1 0 .5.5 0 0 1 1 0zm13.4 17.1a1 1 0 1 1-2.2 0 1 1 0 1 1 2.2 0z"/><path stroke="green" stroke-width=".533" d="m293.9 212.7 12.8 17"/><path d="M304.6 272a.5.5 0 1 1-1.1 0 .5.5 0 0 1 1 0zm10.6 26.3a1 1 0 0 1-2.1 0c0-.6.5-1 1-1 .7 0 1.1.4 1.1 1z"/><path stroke="green" stroke-width=".533" d="m304 272 10.2 26.3"/><path d="M307.2 229.8c0 .3-.2.5-.5.5a.5.5 0 1 1 0-1c.3 0 .5.2.5.5zm8-21.8c0 .5-.4 1-1 1a1 1 0 1 1 1-1z"/><path stroke="green" stroke-width=".533" d="m306.7 229.8 7.5-21.9"/><path d="M333.6 270.6a.5.5 0 1 1-1 0 .5.5 0 0 1 1 0zm1.9 30.4a1 1 0 0 1-2.1 0c0-.6.4-1 1-1s1 .4 1 1z"/><path stroke="green" stroke-width=".533" d="m333 270.6 1.4 30.4"/><path d="M333.6 270.6a.5.5 0 1 1-1 0 .5.5 0 0 1 1 0zm1.9-42.9a1 1 0 0 1-2.1 0c0-.6.4-1.1 1-1.1s1 .5 1 1z"/><path stroke="green" stroke-width=".533" d="m333 270.6 1.4-43"/><path d="M335 227.7c0 .2-.3.5-.6.5a.5.5 0 0 1 0-1c.3 0 .6.2.6.5zm10.6 2.1a1 1 0 1 1-2.1 0 1 1 0 0 1 2.1 0z"/><path stroke="green" stroke-width=".533" d="m334.4 227.7 10.2 2"/><path d="M345 229.8c0 .3-.1.5-.4.5a.5.5 0 1 1 0-1c.3 0 .5.2.5.5zm10.8 47.5c0 .5-.5 1-1.1 1a1 1 0 0 1-1-1c0-.6.4-1.1 1-1.1s1 .5 1 1z"/><path stroke="green" stroke-width=".533" d="m344.6 229.8 10 47.5"/><path d="M345 229.8c0 .3-.1.5-.4.5a.5.5 0 1 1 0-1c.3 0 .5.2.5.5zm10.8-21.8c0 .5-.5 1-1.1 1a1 1 0 0 1-1-1c0-.7.4-1.1 1-1.1s1 .4 1 1z"/><path stroke="green" stroke-width=".533" d="m344.6 229.8 10-21.9"/><path d="M355.2 277.3a.5.5 0 1 1-1 0 .5.5 0 0 1 1 0zm.6-69.3c0 .5-.5 1-1.1 1a1 1 0 0 1-1-1c0-.7.4-1.1 1-1.1s1 .4 1 1z"/><path stroke="green" stroke-width=".533" d="M354.7 277.3v-69.4"/><path d="M374.2 256.7a.5.5 0 1 1-1.1 0 .5.5 0 0 1 1 0zM376 294a1 1 0 1 1-2.1 0 1 1 0 0 1 2.1 0z"/><path stroke="green" stroke-width=".533" d="m373.6 256.7 1.4 37.4"/><path d="M374.2 240.7a.5.5 0 1 1-1.1 0 .5.5 0 0 1 1 0zm1.8-28a1 1 0 1 1-2.1 0 1 1 0 0 1 2.1 0z"/><path stroke="green" stroke-width=".533" d="m373.6 240.7 1.4-28"/><path d="M375.5 294a.5.5 0 1 1-1 0 .5.5 0 0 1 1 0zm10.7-22a1 1 0 1 1-2.2 0 1 1 0 0 1 2.2 0z"/><path stroke="green" stroke-width=".533" d="m375 294 10-22"/><path d="M375.5 212.7a.5.5 0 1 1-1 0 .5.5 0 0 1 1 0zm13.3 17.1a1 1 0 1 1-2.1 0 1 1 0 0 1 2.1 0z"/><path stroke="green" stroke-width=".533" d="m375 212.7 12.8 17"/><path d="M385.6 272a.5.5 0 1 1-1 0 .5.5 0 0 1 1 0zm10.7 26.3a1 1 0 0 1-2.1 0c0-.6.4-1 1-1s1.1.4 1.1 1zm-8-68.5c0 .3-.2.5-.5.5a.5.5 0 1 1 0-1c.3 0 .5.2.5.5zm8-21.8a1 1 0 1 1-2.1 0 1 1 0 0 1 2.1 0z"/><path stroke="green" stroke-width=".533" d="m387.8 229.8 7.4-21.9"/><path d="M414.7 270.6c0 .3-.2.5-.5.5a.5.5 0 0 1-.6-.5.5.5 0 1 1 1 0zm1.9 30.4a1 1 0 0 1-2.2 0c0-.6.5-1 1-1 .7 0 1.2.4 1.2 1z"/><path stroke="green" stroke-width=".533" d="m414.2 270.6 1.3 30.4"/><path d="M414.7 270.6c0 .3-.2.5-.5.5a.5.5 0 0 1-.6-.5.5.5 0 1 1 1 0zm1.9-42.9a1 1 0 0 1-2.2 0c0-.6.5-1.1 1-1.1.7 0 1.2.5 1.2 1z"/><path stroke="green" stroke-width=".533" d="m414.2 270.6 1.3-43"/><path d="M416 227.7a.5.5 0 1 1-1 0c0-.3.2-.6.5-.6s.5.3.5.6zm10.7 2.1a1 1 0 1 1-2.1 0c0-.6.4-1 1-1s1 .4 1 1z"/><path stroke="green" stroke-width=".533" d="m415.5 227.7 10.1 2"/><path d="M426.2 229.8c0 .3-.3.5-.6.5a.5.5 0 1 1 0-1c.3 0 .6.2.6.5zm10.6 47.5a1 1 0 1 1-2.1 0 1 1 0 0 1 2.1 0z"/><path stroke="green" stroke-width=".533" d="m425.6 229.8 10.2 47.5"/><path d="M426.2 229.8c0 .3-.3.5-.6.5a.5.5 0 1 1 0-1c.3 0 .6.2.6.5zm10.6-21.8a1 1 0 1 1-2.1 0 1 1 0 0 1 2.1 0z"/><path stroke="green" stroke-width=".533" d="m425.6 229.8 10.2-21.9"/><path d="M436.3 277.3a.5.5 0 1 1-1 0 .5.5 0 0 1 1 0zm.5-69.3a1 1 0 1 1-2.1 0 1 1 0 0 1 2.1 0z"/><path stroke="green" stroke-width=".533" d="M435.8 277.3v-69.4"/><path d="M455.2 256.7c0 .3-.2.6-.5.6a.5.5 0 1 1 .5-.5zM457 294a1 1 0 1 1-2 0 1 1 0 0 1 2 0z"/><path stroke="green" stroke-width=".533" d="m454.7 256.7 1.3 37.4"/><path d="M456.6 294c0 .3-.3.6-.6.6a.5.5 0 1 1 .5-.5zm10.6-22c0 .5-.4 1-1 1a1 1 0 1 1 1-1z"/><path stroke="green" stroke-width=".533" d="m456 294 10.2-22"/><path d="M456.6 210.6a.5.5 0 1 1-1.1 0 .5.5 0 0 1 1 0zm10.6 19.2a1 1 0 1 1-2.1 0 1 1 0 0 1 2.1 0z"/><path stroke="green" stroke-width=".533" d="m456 210.6 10.2 19.2"/><path d="M466.7 229.8c0 .3-.2.5-.5.5a.5.5 0 0 1-.6-.5c0-.3.3-.5.6-.5s.5.2.5.5zm10.7-21.8c0 .5-.5 1-1.1 1a1 1 0 1 1 1-1z"/><path stroke="green" stroke-width=".533" d="m466.2 229.8 10.1-21.9"/><path d="M466.7 272c0 .2-.2.5-.5.5a.5.5 0 0 1-.6-.6.5.5 0 1 1 1 0zm10.7 26.3a1 1 0 1 1-2.2 0 1 1 0 0 1 2.2 0z"/><path stroke="green" stroke-width=".533" d="m466.2 272 10.1 26.3"/><path d="M476.8 208a.5.5 0 1 1-1 0 .5.5 0 0 1 1 0zm.6 22a1 1 0 1 1-2.2 0 1 1 0 0 1 2.2 0z"/><path stroke="green" stroke-width=".533" d="M476.3 208v22"/><path d="M466.7 229.8c0 .3-.2.5-.5.5a.5.5 0 0 1-.6-.5c0-.3.3-.5.6-.5s.5.2.5.5zm10.7.2a1 1 0 1 1-2.2 0 1 1 0 0 1 2.2 0z"/><path stroke="green" stroke-width=".533" d="m466.2 229.8 10.1.3"/><path d="M478.2 237a.5.5 0 1 1-1.1 0c0-.3.2-.5.5-.5s.6.2.6.5zm-.8-7a1 1 0 1 1-2.2 0 1 1 0 0 1 2.2 0z"/><path stroke="green" stroke-width=".533" d="m477.6 237-1.3-7"/><path d="M495.8 270.6a.5.5 0 0 1-1.1 0c0-.3.2-.5.5-.5s.6.2.6.5zm1.8 30.4a1 1 0 0 1-2.1 0c0-.6.5-1 1-1 .7 0 1.1.4 1.1 1z"/><path stroke="green" stroke-width=".533" d="m495.2 270.6 1.4 30.4"/><path d="M495.8 270.6a.5.5 0 0 1-1.1 0c0-.3.2-.5.5-.5s.6.2.6.5zm1.8-42.9a1 1 0 0 1-2.1 0c0-.6.5-1.1 1-1.1.7 0 1.1.5 1.1 1z"/><path stroke="green" stroke-width=".533" d="m495.2 270.6 1.4-43"/><path d="M516.3 253c0 .3-.2.5-.5.5a.5.5 0 0 1 0-1c.3 0 .5.2.5.5zm3.2 25.3a1 1 0 0 1-2.1 0c0-.6.4-1 1-1s1 .4 1 1z"/><path stroke="green" stroke-width=".533" d="m515.8 253 2.6 25.3"/><path d="M516.3 253c0 .3-.2.5-.5.5a.5.5 0 0 1 0-1c.3 0 .5.2.5.5zm3.2-25.3a1 1 0 0 1-2.1 0c0-.6.4-1.1 1-1.1s1 .5 1 1z"/><path stroke="green" stroke-width=".533" d="m515.8 253 2.6-25.3"/><path stroke="#00f" stroke-width=".533" d="m173.4 245.5 17.8 25m-20.5 4.1 20.5-4M170.7 224l21.9 3.7m-19.2 17.8 19.2-17.8m-21.9 46.9 21.9-47m-21.9 47 21.9 26.4m-19.2-55.5 49.6 9.9m-30.4-27.7 20.2-17.1m10.2 44.8L212.8 301m-20.2-73.3 20.2 73.3m-21.6-30.4 21.6 30.4m-20.2 0h20.2m10.2-45.6-2.7 16.5m-27.7-44.2 27.7 44.2m-29.1-1.3 29.1 1.3M192.6 301l27.7-29m2.7-16.6 10 43m-20.2 2.6 20.3-2.7m-20.3-87.7 20.3-2.7M223 255.4l15.7 15m-15.7-15 16.8-14.7M223 255.4l15.4-23.5m0 .1 15 58m-13.6-49.3 13.6 49.4m-14.7-19.8 14.7 19.8m-20.4 8.2 20.4-8.2M233 208l20.4 2.7m-27.8 19.1 27.8-19m-15 21.2 15-21.3m-13.6 30 13.6-30M233 208l28.4 24.2m-35.8-2.4 35.8 2.4m-23-.2 23 .2m-21.6 8.5 21.6-8.5M233 208l21.4 35.8m-28.8-14 28.8 14m-16-11.8 16 11.8m-14.6-3.1 14.6 3m-15.7 26.6 15.7-26.5m-14.6-3.1 16.8 13.6m-17.9 16 17.9-16m-3.2 35.7 20.2 11m-17-46.7 18.4 16.3M253.4 290l21.6-19.4m-20.6-26.8 19.2 4.2m-17 6.3 17-6.3m-20.2 42 20.2-42m-20.2-37.3 20.2-1.6m0 38.9 19 8.7M275 270.6l17.6-13.9m-19 44.3 19-44.3m-19-47.6 19 31.6m-31.2-8.5 31.2 8.5m0 16v-16m-19 7.3 19-7.3m-19-31.6 20.3 3.6m-1.3 44 1.3-44M273.6 248l20.3-35.3m-1.3 28 1.3 53.4M273.6 248l20.3 46M275 270.6l18.9 23.5m-20.3 6.9 20.3-7M275 270.6l29 1.3m-11.4-15.2 21.6 41.6m-20.3-4.3 20.3 4.3m-20.3-85.6 20.3-4.8m-21.6 32.8 21.6-32.8M304 272l29-1.4m-18.8 27.7 18.9-27.7m-18.9 27.7 20.2 2.7m-20.2-93 20.2 19.7m-27.7 2.1 27.7-2.1m-20.2 70.6 20.2-70.6m0 0 20.3 49.6m-21.7-6.7 21.7 6.7M334.4 301l20.3-23.7m-20.3-49.6 20.3-19.8m0 69.4 19-20.6m-19-48.7 19 32.7m-29.1-10.9 29 11m0 15.9v-16m-18.9 36.6 19-36.6m-.1 0 1.4 53.4m-20.3-16.8L375 294m-20.3-86 20.3 4.7m-1.4 44 1.4-44m-20.3 64.6 20.3-64.6m-1.4 44 21.6 41.6M375 294l20.2 4.3M375 212.7l20.2-4.8m-21.6 32.8 21.6-32.8M385 272l29.2-1.4m-19 27.7 19-27.7m-19 27.7 20.3 2.7m-20.3-93 20.3 19.7m-27.7 2.1 27.7-2.1m-20.3 70.6 20.3-70.6m0 0 20.3 49.6m-21.6-6.7 21.6 6.7M415.5 301l20.3-23.7m-20.3-49.6 20.3-19.8m0 69.4 18.9-20.6M435.8 208l20.2 2.6m-20.2 66.7 20.2-66.7m-20.2 66.7L456 294m0-83.4 20.3-2.7m-21.6 48.8 21.6 41.6M456 294l20.3 4.3m-21.6-41.6 23-19.7m-11.5 35 29-1.4m-18.9 27.7 19-27.7m-19 27.7 20.3 2.7m-20.3-93 20.3 19.7m-20.3 2.3 20.3-2.3m-19 9.3 19-9.3m-20.3 70.6 20.3-70.6m0 0 19.2 25.3m-20.6 17.6 20.6-17.6m-19.2-25.3 21.8 50.6m-23.2-7.7 23.2 7.7M496.6 301l21.8-22.7m-21.8-50.6h21.8"/><text style="-inkscape-font-specification:Arial" font-family="Arial" font-size="10" font-weight="400" transform="matrix(1.33333 0 0 1.19008 330.5 218.5)"><tspan x="0" y="0">b</tspan><tspan x="16" y="60.9">a</tspan><tspan x="59.1" y="-1.6">d</tspan><tspan x="30.3" y="71.9">g</tspan><tspan x="65.5" y="39.6">h</tspan><tspan x="76.7" y="62.9">c</tspan><tspan x="76.7" y="-16">e</tspan><tspan x="94.3" y="-14.2">f</tspan></text><path fill="#c90" fill-rule="evenodd" stroke="#000" stroke-linecap="round" stroke-linejoin="round" stroke-width=".7" d="M331.5 110.3h6.6v28h13.4v-28h6.6l-13.3-9.3z" transform="scale(1.12055 1.33333)"/><path d="M1.6 34.5a.5.5 0 1 1-1 0 .5.5 0 0 1 1 0zm3.2 21.6a1 1 0 1 1-2.1 0 1 1 0 0 1 2.1 0z"/><path stroke="green" stroke-width=".533" d="m1 34.5 2.7 21.6"/><path d="M4.3 56.1a.5.5 0 1 1-1.1 0 .5.5 0 0 1 1 0zM2.1 85.2a1 1 0 0 1-2.1 0 1 1 0 0 1 2.1 0z"/><path stroke="green" stroke-width=".533" d="M3.7 56.1 1.1 85.2"/><path d="M22.1 81.2c0 .3-.2.5-.5.5a.5.5 0 1 1 .5-.5zM24 38.3a1 1 0 1 1-2.1 0 1 1 0 0 1 2.1 0z"/><path stroke="green" stroke-width=".533" d="m21.6 81.2 1.3-43"/><path d="M22.1 81.2c0 .3-.2.5-.5.5a.5.5 0 1 1 .5-.5zm1.9 30.4a1 1 0 1 1-2.1 0 1 1 0 0 1 2.1 0z"/><path stroke="green" stroke-width=".533" d="m21.6 81.2 1.3 30.4"/><path d="M23.5 38.3c0 .3-.3.5-.6.5a.5.5 0 0 1-.5-.5.5.5 0 0 1 1 0zM54.4 66a1 1 0 1 1-2.1 0 1 1 0 0 1 2.1 0z"/><path stroke="green" stroke-width=".533" d="M23 38.3 53.2 66"/><path d="M43.7 111.6c0 .3-.2.5-.5.5a.5.5 0 1 1 0-1c.3 0 .5.2.5.5zm8-29.1a1 1 0 0 1-2.1 0 1 1 0 0 1 2.1 0z"/><path stroke="green" stroke-width=".533" d="m43.2 111.6 7.5-29"/><path d="M43.7 21.2c0 .3-.2.5-.5.5a.5.5 0 0 1 0-1c.3 0 .5.2.5.5zM57 40.4c0 .6-.4 1-1 1a1 1 0 1 1 0-2c.6 0 1 .4 1 1z"/><path stroke="green" stroke-width=".533" d="M43.2 21.2 56 40.4"/><path d="M51.2 82.5a.5.5 0 1 1-1 0 .5.5 0 1 1 1 0zM64.5 109a1 1 0 1 1-2.1 0 1 1 0 1 1 2.1 0z"/><path stroke="green" stroke-width=".533" d="M50.7 82.5 63.5 109"/><path d="M56.5 40.4a.5.5 0 1 1-1 0 .5.5 0 1 1 1 0zm8-21.9a1 1 0 1 1-2.1 0 1 1 0 1 1 2.1 0z"/><path stroke="green" stroke-width=".533" d="m56 40.4 7.5-21.9"/><path d="M64 109c0 .2-.2.5-.5.5a.5.5 0 1 1 0-1.1c.3 0 .5.2.5.5zm6.1-28a1 1 0 1 1-2.1 0 1 1 0 0 1 2.1 0z"/><path stroke="green" stroke-width=".533" d="M63.5 109 69 81"/><path d="M64 18.5a.5.5 0 1 1-1 0c0-.3.2-.5.5-.5s.5.2.5.5zm5.9 24a1 1 0 1 1-2.2 0 1 1 0 1 1 2.2 0z"/><path stroke="green" stroke-width=".533" d="m63.5 18.5 5.3 24"/><path d="M56.5 40.4a.5.5 0 1 1-1 0 .5.5 0 1 1 1 0zm13.4 2.1a1 1 0 1 1-2.2 0 1 1 0 1 1 2.2 0z"/><path stroke="green" stroke-width=".533" d="m56 40.4 12.8 2.1"/><path d="M70.7 51.3a.5.5 0 1 1-1.1 0 .5.5 0 0 1 1 0zm-.8-8.8a1 1 0 1 1-2.2 0 1 1 0 1 1 2.2 0z"/><path stroke="green" stroke-width=".533" d="m70.1 51.3-1.3-8.8"/><path d="M53.9 66a.5.5 0 1 1-1.1 0 .5.5 0 1 1 1 0zm30.9 34.7a1 1 0 1 1-2.1 0 1 1 0 0 1 2.1 0z"/><path stroke="green" stroke-width=".533" d="m53.3 66 30.4 34.7"/><path d="M84.3 21.3a.5.5 0 1 1-1.1 0 .5.5 0 0 1 1 0zm8.5 21.5a1 1 0 1 1-2.1 0 1 1 0 0 1 2.1 0z"/><path stroke="green" stroke-width=".533" d="m83.7 21.3 8 21.5"/><path d="M92.3 42.8a.5.5 0 1 1-1.1 0 .5.5 0 0 1 1 0zm-6.4 11.6c0 .6-.5 1-1.1 1a1 1 0 1 1 1-1z"/><path stroke="green" stroke-width=".533" d="m91.7 42.8-6.9 11.6"/><path d="M84.3 100.7a.5.5 0 1 1-1.1 0 .5.5 0 0 1 1 0zm1.6-46.3c0 .6-.5 1-1.1 1a1 1 0 1 1 1-1z"/><path stroke="green" stroke-width=".533" d="m83.7 100.7 1.1-46.3"/><path d="M85.3 54.4a.5.5 0 1 1-1 0 .5.5 0 0 1 1 0zM88 65a1 1 0 1 1-2.1 0 1 1 0 0 1 2.1 0z"/><path stroke="green" stroke-width=".533" d="m84.8 54.4 2.1 10.5"/><path d="M84.3 100.7a.5.5 0 1 1-1.1 0 .5.5 0 0 1 1 0zM88 65a1 1 0 1 1-2.1 0 1 1 0 0 1 2.1 0z"/><path stroke="green" stroke-width=".533" d="M83.7 100.7 87 64.9"/><path d="M104.5 111.6c0 .3-.2.5-.5.5a.5.5 0 0 1-.5-.5.5.5 0 1 1 1 0zm1.9-30.4a1 1 0 0 1-2.1 0 1 1 0 0 1 2.1 0z"/><path stroke="green" stroke-width=".533" d="m104 111.6 1.3-30.4"/><path d="M92.3 42.8a.5.5 0 1 1-1.1 0 .5.5 0 0 1 1 0zM105 58.7a1 1 0 1 1-2 0 1 1 0 0 1 2 0z"/><path stroke="green" stroke-width=".533" d="M91.7 42.8 104 58.7"/><path d="M105.9 81.2a.5.5 0 1 1-1.1 0 .5.5 0 1 1 1 0zm-.9-22.5a1 1 0 1 1-2 0 1 1 0 0 1 2 0z"/><path stroke="green" stroke-width=".533" d="M105.3 81.2 104 58.7"/><path d="M92.3 42.8a.5.5 0 1 1-1.1 0 .5.5 0 0 1 1 0zM105 19.7c0 .6-.4 1-1 1a1 1 0 1 1 0-2c.6 0 1 .4 1 1z"/><path stroke="green" stroke-width=".533" d="m91.7 42.8 12.3-23"/><path d="M104.5 58.7a.5.5 0 1 1-1 0 .5.5 0 1 1 1 0zm.5-39c0 .6-.4 1-1 1a1 1 0 1 1 0-2c.6 0 1 .4 1 1z"/><path stroke="green" stroke-width=".533" d="M104 58.7v-39"/><path d="M123.5 51.3c0 .3-.3.6-.6.6a.5.5 0 1 1 .6-.6zm1.8-28a1 1 0 1 1-2.1 0 1 1 0 0 1 2.1 0z"/><path stroke="green" stroke-width=".533" d="m123 51.3 1.3-28"/><path d="M123.5 67.3c0 .3-.3.6-.6.6a.5.5 0 1 1 .6-.6zm1.8 37.4a1 1 0 1 1-2.1 0 1 1 0 0 1 2.1 0z"/><path stroke="green" stroke-width=".533" d="m123 67.3 1.3 37.4"/><path d="M124.8 104.7c0 .3-.2.5-.5.5a.5.5 0 1 1 .5-.5zm10.7-22.2a1 1 0 0 1-2.2 0 1 1 0 0 1 2.2 0z"/><path stroke="green" stroke-width=".533" d="m124.3 104.7 10.1-22.2"/><path d="M124.8 23.3c0 .3-.2.6-.5.6a.5.5 0 1 1 .5-.6zm13.3 17.1c0 .6-.4 1-1 1a1 1 0 1 1 0-2c.6 0 1 .4 1 1z"/><path stroke="green" stroke-width=".533" d="M124.3 23.3 137 40.4"/><path d="M135 82.5a.5.5 0 1 1-1.1 0 .5.5 0 0 1 1 0zm10.6 26.5a1 1 0 1 1-2.1 0 1 1 0 0 1 2.1 0z"/><path stroke="green" stroke-width=".533" d="m134.4 82.5 10.1 26.4"/><path d="M137.6 40.4a.5.5 0 1 1-1 0 .5.5 0 0 1 1 0zm8-21.9a1 1 0 1 1-2.1 0 1 1 0 0 1 2.1 0z"/><path stroke="green" stroke-width=".533" d="m137 40.4 7.5-21.9"/><path d="M164 81.2a.5.5 0 1 1-1 0c0-.3.2-.5.5-.5s.5.2.5.5zm1.9 30.4a1 1 0 1 1-2.2 0 1 1 0 1 1 2.2 0z"/><path stroke="green" stroke-width=".533" d="m163.5 81.2 1.3 30.4"/><path d="M164 81.2a.5.5 0 1 1-1 0c0-.3.2-.5.5-.5s.5.2.5.5zm1.9-42.9a1 1 0 1 1-2.2 0 1 1 0 1 1 2.2 0z"/><path stroke="green" stroke-width=".533" d="m163.5 81.2 1.3-43"/><path d="M165.3 38.3c0 .3-.2.5-.5.5a.5.5 0 1 1 0-1c.3 0 .5.2.5.5zm20.8 49.6a1 1 0 0 1-2.1 0 1 1 0 0 1 2.1 0z"/><path d="M185.6 87.9a.5.5 0 1 1-1 0 .5.5 0 0 1 1 0z"/><path stroke="#00f" stroke-width=".533" d="m3.7 56.1 17.9 25.1M1 85.2l20.6-4M1 34.5l22 3.8M3.7 56.1 23 38.3M1 85.2l22-47m-22 47 22 26.4M3.7 56.1 53.3 66M23 38.3l20.2-17.1M53.3 66l-10.1 45.6M23 38.3l20.2 73.3M21.6 81.2l21.6 30.4m-20.2 0h20.2M53.3 66l-2.6 16.5M23 38.3l27.7 44.2m-29.1-1.3 29 1.3M23 111.6l27.7-29M53.3 66l10.2 43m-20.3 2.6 20.3-2.7M43.2 21.2l20.3-2.7M53.3 66l15.8 15M53.3 66l16.8-14.7M53.3 66l15.5-23.5m0 0 15 58.2M70.1 51.3l13.6 49.4M69 81l14.7 19.7M63.5 109l20.2-8.3M63.5 18.5l20.2 2.8M56 40.4l27.7-19M68.8 42.5l15-21.2m-13.7 30 13.6-30m-20.2-2.8 28.2 24.3M56 40.4l35.7 2.4m-22.9-.3 23 .3m-21.7 8.5 21.6-8.5M63.5 18.5l21.3 35.9M56 40.4l28.8 14m-16-11.9 16 11.9m-14.7-3.1 14.7 3.1M69 81l15.8-26.6m-14.7-3.1L87 65M69 81l18-16m-3.3 35.7 20.3 10.9M87 65l18.3 16.2m-21.6 19.5 21.6-19.5M84.8 54.4l19.2 4.3M87 65l17-6.3m-20.3 42 20.3-42M83.7 21.3l20.3-1.6m0 39 19 8.6m-17.7 13.9L123 67.3m-19 44.3 19-44.3m-19-47.6 19 31.6m-31.3-8.5 31.2 8.5m.1 16v-16m-19 7.4 19-7.4m-19-31.6 20.3 3.6m-1.3 44 1.3-44M104 58.7l20.3-35.4m-1.3 28 1.3 53.4m-20.3-46 20.3 46m-19-23.5 19 23.5m-20.3 6.9 20.3-7m-19-23.4 29.1 1.3M123 67.3l21.5 41.6m-20.2-4.2 20.2 4.2m-20.2-85.6 20.2-4.8M123 51.3l21.5-32.8m-10.1 64 29-1.3M144.5 109l19-27.8m-19 27.8 20.3 2.6m-20.3-93.1 20.3 19.8M137 40.4l27.8-2.1M144.5 109l20.3-70.7m-1.3 42.9 21.6 6.7m-20.3 23.7 20.3-23.7"/><text style="-inkscape-font-specification:Arial" font-family="Arial" font-size="10" font-weight="400" transform="matrix(1.33333 0 0 1.19008 161.6 31.1)"><tspan x="0" y="0">b</tspan><tspan x="15.8" y="58.1">a</tspan></text><path fill="none" stroke="#000" stroke-dasharray="3.2 3.2" stroke-width="1.067" d="M165 37.9c21.4 10.1 23.7 14 26.5 24.3 2.8 10.1-6.2 25.4-6.2 25.4"/><path d="M208.7 59.8a1 1 0 0 1-2.1 0 1 1 0 0 1 2.1 0z"/><path d="M208.2 59.8a.5.5 0 1 1-1.1 0c0-.3.2-.5.5-.5s.6.2.6.5zm20.8 49.6a1 1 0 1 1-2.2 0 1 1 0 0 1 2.2 0z"/><path d="M228.4 109.4a.5.5 0 1 1-1 0 .5.5 0 0 1 1 0z"/><path stroke="#00f" stroke-width=".533" d="m207.6 59.8 20.3 49.6"/><text style="-inkscape-font-specification:Arial" font-family="Arial" font-size="10" font-weight="400" transform="matrix(1.33333 0 0 1.19008 204.4 52.6)"><tspan x="0" y="0">b</tspan><tspan x="15.8" y="58.1">a</tspan></text><path fill="none" stroke="#000" stroke-dasharray="3.2 3.2" stroke-width="1.067" d="M207.2 59.8c-4.5 22.6-4 23.7.6 35.6 4.5 11.9 19.8 14.1 19.8 14.1l.5-.6h-1m-18.7-49.7c13 5.7 21.4 13.6 23.1 21 1.7 7.3 4.6 13.5 1.2 21.4l-3.4 8v-.7"/><path d="M407.8 49a1 1 0 1 1-2.1 0c0-.5.5-1 1-1 .6 0 1.1.5 1.1 1z"/><path d="M407.3 49a.5.5 0 1 1-1 0 .5.5 0 0 1 1 0zm10.7 2.2a1 1 0 1 1-2.2 0 1 1 0 0 1 2.1 0z"/><path stroke="green" stroke-width=".533" d="m406.7 49 10.2 2.2"/><path d="M417.4 51.2a.5.5 0 0 1-1 0 .5.5 0 1 1 1 0zM428 98.7a1 1 0 0 1-2 0c0-.6.4-1.1 1-1.1s1 .5 1 1z"/><path stroke="green" stroke-width=".533" d="M416.9 51.2 427 98.7"/><path d="M417.4 51.2a.5.5 0 0 1-1 0 .5.5 0 1 1 1 0zM428 29.3a1 1 0 0 1-2 0c0-.6.4-1 1-1s1 .4 1 1z"/><path stroke="green" stroke-width=".533" d="M416.9 51.2 427 29.3"/><path d="M427.5 98.7a.5.5 0 1 1-1 0 .5.5 0 0 1 1 0zm.5-69.4a1 1 0 0 1-2 0c0-.6.4-1 1-1s1 .4 1 1z"/><path stroke="#00f" stroke-width=".533" d="M406.7 49 427 29.4"/><text style="-inkscape-font-specification:Arial" font-family="Arial" font-size="10" font-weight="400" transform="matrix(1.33333 0 0 1.19008 401.6 41.5)"><tspan x="0" y="0">d</tspan></text><text style="-inkscape-font-specification:Arial" font-family="Arial" font-size="10" font-weight="400" transform="matrix(1.33333 0 0 1.19008 423.8 26)"><tspan x="0" y="0">e</tspan><tspan x="-.4" y="72.8">c</tspan></text><path fill="none" stroke="#000" stroke-dasharray="3.2 3.2" stroke-width="1.067" d="M406.6 49c-1.6 30.4-1.6 41.6 8.8 45.6s11.2 4 11.2 4m.8-69.6c11.2 22.5 11.2 15.3 12.8 28.8 1.6 13.6 5.6 15.2 0 27.2s-12 13.6-12 13.6"/><path d="M469 79a1 1 0 1 1-2.2 0 1 1 0 1 1 2.1 0zm0-69.4a1 1 0 1 1-2.2 0 1 1 0 1 1 2.1 0z"/><path d="M468.4 79c0 .2-.2.5-.5.5a.5.5 0 0 1 0-1.1c.3 0 .5.2.5.5zm.6-69.4a1 1 0 1 1-2.2 0 1 1 0 1 1 2.1 0z"/><path stroke="green" stroke-width=".533" d="M467.9 79V9.5"/><text style="-inkscape-font-specification:Arial" font-family="Arial" font-size="10" font-weight="400" transform="matrix(1.33333 0 0 1.19008 464.7 6.3)"><tspan x="0" y="0">e</tspan><tspan x="-.4" y="72.8">c</tspan></text><path fill="none" stroke="#000" stroke-dasharray="3.2 3.2" stroke-width="1.067" d="M465.8 10c-12 17.5-14.4 23-11.2 38.3a98.5 98.5 0 0 0 12.8 29.5m.8-67.8c11.1 23 22.3 31 11.1 50.2-11.1 19.2-11.1 18.4-11.1 18.4"/><path d="M510.5 95.7a1 1 0 1 1-2.1 0 1 1 0 0 1 2.1 0zm0-69.3a1 1 0 1 1-2.1 0 1 1 0 0 1 2.1 0z"/><path d="M510 95.7a.5.5 0 0 1-1 0c0-.3.2-.5.5-.5s.5.2.5.5zm.5-69.3a1 1 0 1 1-2.1 0 1 1 0 0 1 2.1 0zm19.8 2.6a.5.5 0 0 1-1.1 0c0-.2.2-.5.5-.5s.6.3.6.6z"/><path stroke="#00f" stroke-width=".533" d="m509.5 26.4 20.2 2.7"/><text style="-inkscape-font-specification:Arial" font-family="Arial" font-size="10" font-weight="400" transform="matrix(1.33333 0 0 1.19008 506.3 23.1)"><tspan x="0" y="0">e</tspan><tspan x="15.6" y="1.1">f</tspan><tspan x="-.4" y="72.8">c</tspan></text><path fill="none" stroke="#000" stroke-dasharray="3.2 3.2" stroke-width="1.067" d="M508.1 26.7C494.5 41 488.9 57 494.5 73c5.6 16 15.2 23.2 15.2 23.2l-.8-2.4"/><path fill="none" stroke="#000" stroke-dasharray="3.2 3.2" stroke-width="1.067" d="M529.7 29c8 25.7 13.6 32.8 7.2 47.2-6.4 14.4-28 20-28 20"/><path d="M557.2 82.4a1 1 0 1 1-2.1 0 1 1 0 0 1 2.1 0z"/><path d="M556.7 82.4a.5.5 0 1 1-1.1 0 .5.5 0 0 1 1 0zM577 15.8c0 .3-.3.5-.6.5a.5.5 0 0 1-.5-.5.5.5 0 1 1 1 0z"/><path stroke="#00f" stroke-width=".533" d="m556.1 82.4 20.3-66.6"/><text style="-inkscape-font-specification:Arial" font-family="Arial" font-size="10" font-weight="400" transform="matrix(1.33333 0 0 1.19008 573.7 11.1)"><tspan x="0" y="0">f</tspan><tspan x="-16" y="71.7">c</tspan></text><path fill="none" stroke="#000" stroke-dasharray="3.2 3.2" stroke-width="1.067" d="M575.2 14.7c-19.2 8.8-28 16.8-28 31.2 0 14.3 8.8 35.1 8.8 35.1l2.4-.8s19.2-5.6 28-16.8c8.8-11.1 1.6-31.1-11.2-48.7z"/><path d="M606.5 94.4a1 1 0 1 1-2.2 0 1 1 0 0 1 2.2 0z"/><path d="M606 94.4a.5.5 0 1 1-1.1 0 .5.5 0 0 1 1 0zm18.9-20.5a.5.5 0 1 1-1.1 0 .5.5 0 0 1 1 0zm1.8 37.3a1 1 0 0 1-2.1 0 1 1 0 0 1 2.1 0z"/><path stroke="green" stroke-width=".533" d="m624.3 73.9 1.4 37.3"/><path d="M626.2 111.2a.5.5 0 1 1-1 0 .5.5 0 0 1 1 0zM636.9 89a1 1 0 1 1-2.2 0 1 1 0 0 1 2.2 0z"/><path stroke="green" stroke-width=".533" d="m625.7 111.2 10-22.1"/><path d="M626.2 27.7a.5.5 0 1 1-1 0c0-.3.2-.5.5-.5s.5.2.5.5zM636.9 47a1 1 0 1 1-2.2 0 1 1 0 0 1 2.2 0z"/><path stroke="green" stroke-width=".533" d="m625.7 27.7 10 19.2"/><path d="M636.3 47a.5.5 0 1 1-1 0 .5.5 0 0 1 1 0zM647 25a1 1 0 1 1-2.1 0 1 1 0 0 1 2 0z"/><path stroke="green" stroke-width=".533" d="m635.8 47 10.1-22"/><path d="M636.3 89a.5.5 0 1 1-1 0 .5.5 0 0 1 1 0zm10.7 26.5c0 .5-.5 1-1 1a1 1 0 1 1 0-2.1c.5 0 1 .5 1 1z"/><path stroke="green" stroke-width=".533" d="m635.8 89 10.1 26.5"/><path d="M646.5 25c0 .3-.3.6-.6.6a.5.5 0 1 1 .6-.5zm.5 22.2a1 1 0 0 1-2.1 0c0-.6.4-1 1-1s1 .4 1 1z"/><path stroke="green" stroke-width=".533" d="M646 25v22.2"/><path d="M636.3 47a.5.5 0 1 1-1 0 .5.5 0 0 1 1 0zm10.7.2a1 1 0 0 1-2.1 0c0-.6.4-1 1-1s1 .4 1 1z"/><path stroke="green" stroke-width=".533" d="m635.8 47 10.1.2"/><path d="M647.8 54.1c0 .3-.2.6-.5.6a.5.5 0 1 1 .5-.6zm-.8-6.9a1 1 0 0 1-2.1 0c0-.6.4-1 1-1s1 .4 1 1z"/><path stroke="green" stroke-width=".533" d="m647.3 54.1-1.4-7"/><path d="M665.4 87.7a.5.5 0 0 1-1 0 .5.5 0 1 1 1 0zm1.9 30.4c0 .6-.5 1-1.1 1a1 1 0 0 1-1-1c0-.6.4-1 1-1s1 .4 1 1z"/><path stroke="green" stroke-width=".533" d="m664.9 87.7 1.3 30.4"/><path d="M665.4 87.7a.5.5 0 0 1-1 0 .5.5 0 1 1 1 0zm1.9-42.9c0 .6-.5 1-1.1 1a1 1 0 0 1-1-1c0-.6.4-1 1-1s1 .4 1 1z"/><path stroke="green" stroke-width=".533" d="m664.9 87.7 1.3-43"/><path d="M686 70.1a.5.5 0 1 1-1.1 0 .5.5 0 0 1 1 0zm3.1 25.4c0 .5-.5 1-1 1a1 1 0 1 1 0-2.1c.5 0 1 .5 1 1z"/><path stroke="green" stroke-width=".533" d="m685.4 70.1 2.7 25.4"/><path d="M686 70.1a.5.5 0 1 1-1.1 0 .5.5 0 0 1 1 0zm3.1-25.3c0 .6-.5 1-1 1a1 1 0 1 1 0-2c.5 0 1 .4 1 1z"/><path stroke="green" stroke-width=".533" d="m685.4 70.1 2.7-25.3"/><path stroke="#00f" stroke-width=".533" d="m605.4 94.4 19-20.5m-19 20.5 20.3 16.8m0-83.5 20.2-2.6m-21.6 48.8 21.6 41.6m-20.2-4.3 20.2 4.3m-21.6-41.6 23-19.8M635.8 89l29-1.3M646 115.5l18.9-27.8M646 115.5l20.2 2.6M646 25l20.2 19.8M646 47.2l20.2-2.4m-18.9 9.3 18.9-9.3M646 115.5l20.2-70.7m0 0L685.4 70m-20.5 17.7 20.5-17.6m-19.2-25.3L688 95.5m-23.1-7.8 23.2 7.8m-21.9 22.6L688 95.5m-21.8-50.7H688"/><text style="-inkscape-font-specification:Arial" font-family="Arial" font-size="10" font-weight="400" transform="matrix(1.33333 0 0 1.19008 623 23.1)"><tspan x="0" y="0">f</tspan><tspan x="-16" y="71.7">c</tspan></text><path fill="none" stroke="#000" stroke-dasharray="3.2 3.2" stroke-width="1.067" d="M624.8 26.7c-13.6 16.8-27.2 18.4-23.2 43.1 4 24.8 4 24 4 24"/><path d="M291.4 153.5a1 1 0 1 1-2.2 0 1 1 0 0 1 2.2 0z"/><path d="M290.8 153.5a.5.5 0 1 1-1 0 .5.5 0 0 1 1 0zm10.7-22.1a1 1 0 1 1-2.1 0 1 1 0 0 1 2 0z"/><path stroke="green" stroke-width=".533" d="m290.3 153.5 10.1-22.1"/><path d="M301 131.4c0 .3-.3.5-.6.5a.5.5 0 1 1 .6-.5zm29-1.4a.5.5 0 1 1-1 0 .5.5 0 0 1 1 0z"/><path d="M330 130a.5.5 0 1 1-1 0 .5.5 0 0 1 1 0z"/><path stroke="#00f" stroke-width=".533" d="m300.4 131.4 29-1.4"/><text style="-inkscape-font-specification:Arial" font-family="Arial" font-size="10" font-weight="400" transform="matrix(1.33333 0 0 1.19008 284 163.2)"><tspan x="0" y="0">g</tspan></text><path d="M241.8 35.7a1 1 0 1 1-2 0 1 1 0 0 1 2 0z"/><path d="M241.3 35.7a.5.5 0 1 1-1 0 .5.5 0 0 1 1 0zm10.7 2.2a1 1 0 1 1-2.2 0 1 1 0 0 1 2.2 0z"/><path stroke="green" stroke-width=".533" d="m240.8 35.7 10.1 2.2"/><path d="M251.4 37.9a.5.5 0 1 1-1 0c0-.3.2-.6.5-.6s.5.3.5.6zm10.7 47.4a1 1 0 1 1-2.1 0c0-.6.5-1 1-1 .6 0 1.1.4 1.1 1z"/><path stroke="green" stroke-width=".533" d="m251 37.9 10 47.4"/><path d="M251.4 37.9a.5.5 0 1 1-1 0c0-.3.2-.6.5-.6s.5.3.5.6zM262.1 16a1 1 0 1 1-2.1 0c0-.6.5-1 1-1 .6 0 1.1.4 1.1 1z"/><path stroke="green" stroke-width=".533" d="m251 37.9 10-22"/><path d="M261.6 85.3c0 .3-.3.6-.6.6a.5.5 0 1 1 0-1.1c.3 0 .6.2.6.5zm.5-69.3a1 1 0 1 1-2.1 0c0-.6.5-1 1-1 .6 0 1.1.4 1.1 1z"/><path stroke="green" stroke-width=".533" d="M261 85.3V16"/><path d="M280.5 64.8a.5.5 0 1 1-1 0 .5.5 0 0 1 1 0zm1.9 37.3c0 .6-.5 1-1 1a1 1 0 1 1 0-2c.5 0 1 .4 1 1z"/><path stroke="green" stroke-width=".533" d="m280 64.8 1.3 37.3"/><path d="M280.5 48.8a.5.5 0 1 1-1 0 .5.5 0 0 1 1 0zm1.9-28c0 .6-.5 1-1 1a1 1 0 1 1 0-2c.5 0 1 .4 1 1z"/><path stroke="green" stroke-width=".533" d="m280 48.8 1.3-28"/><path d="M281.8 102.1a.5.5 0 1 1-1 0 .5.5 0 0 1 1 0zm0-81.3a.5.5 0 1 1-1 0 .5.5 0 0 1 1 0zm13.4 17.1a1 1 0 1 1-2.2 0c0-.6.5-1.1 1.1-1.1.6 0 1 .5 1 1z"/><path stroke="green" stroke-width=".533" d="m281.3 20.8 12.8 17"/><path d="M302.6 106.4a1 1 0 1 1-2 0 1 1 0 0 1 2 0zm-8-68.5a.5.5 0 1 1-1 0 .5.5 0 0 1 1 0zm8-21.9a1 1 0 1 1-2 0 1 1 0 0 1 2 0z"/><path stroke="green" stroke-width=".533" d="m294.1 37.9 7.5-22"/><path d="M321 78.7c0 .3-.2.5-.5.5a.5.5 0 1 1 0-1c.3 0 .5.2.5.5zm2 30.3a1 1 0 1 1-2.2 0 1 1 0 0 1 2.1 0z"/><path stroke="green" stroke-width=".533" d="m320.5 78.7 1.3 30.4"/><path d="M321 78.7c0 .3-.2.5-.5.5a.5.5 0 1 1 0-1c.3 0 .5.2.5.5zm2-43a1 1 0 1 1-2.2 0 1 1 0 0 1 2.1 0z"/><path stroke="green" stroke-width=".533" d="m320.5 78.7 1.3-43"/><path d="M322.4 35.7a.5.5 0 0 1-1 0 .5.5 0 1 1 1 0zm20.8 49.6a1 1 0 1 1-2.2 0 1 1 0 0 1 2.2 0z"/><path d="M342.6 85.3c0 .3-.2.6-.5.6a.5.5 0 0 1-.5-.6c0-.3.2-.5.5-.5s.5.2.5.5z"/><path stroke="#00f" stroke-width=".533" d="M240.8 35.7 261 16m0 69.3 19-20.5M261 16l19 32.8m-29-10.9 29 10.9m0 16v-16m-19 36.5 19-36.5m0 0 1.3 53.3M261 85.3l20.3 16.8M261 16l20.3 4.8m-1.3 44 1.3-44M261 85.3l20.3-64.5m-1.3 44 21.6 41.6m-20.3-4.3 20.3 4.3m-20.3-85.6 20.3-4.8M280 48.8 301.6 16m0 90.4 19-27.7m-19 27.7 20.2 2.7M301.6 16l20.2 19.7m-27.7 2.2 27.7-2.2m-20.2 70.7 20.2-70.7m-1.3 43 21.6 6.6M321.8 109l20.3-23.7"/><text style="-inkscape-font-specification:Arial" font-family="Arial" font-size="10" font-weight="400" transform="matrix(1.33333 0 0 1.19008 316.7 28.2)"><tspan x="0" y="0">d</tspan></text><text style="-inkscape-font-specification:Arial" font-family="Arial" font-size="10" font-weight="400" transform="matrix(1.33333 0 0 1.19008 338.4 99.4)"><tspan x="0" y="0">c</tspan><tspan x="-75.6" y="-59.5">b</tspan><tspan x="-59.8" y="-1.4">a</tspan></text><path fill="none" stroke="#000" stroke-dasharray="3.2 3.2" stroke-width="1.067" d="M240.7 35.3c-1.1 21.5-4 35 8 42.4l11.8 7.4m62.1-49.2c12.5 8.5 15.9 14.1 18.1 23.2 2.3 9 1.7 26 1.7 26"/><text style="-inkscape-font-specification:Arial" font-family="Arial" font-size="10" font-weight="400" transform="matrix(1.33333 0 0 1.19008 275 111.8)"><tspan x="0" y="0">g</tspan><tspan x="35.2" y="-30.5">h</tspan></text><path fill="none" stroke="#000" stroke-dasharray="3.2 3.2" stroke-width="1.067" d="M281 101.3c11.2-16.4 8.8-14.8 19.6-21.2 10.8-6.4 20-1.2 20-1.2"/><path d="M281 118.3c0 .3-.3.5-.6.5a.5.5 0 0 1 0-1c.3 0 .6.2.6.5z"/><text style="-inkscape-font-specification:Arial" font-family="Arial" font-size="10" font-weight="400" transform="matrix(1.33333 0 0 1.19008 301.1 127)"><tspan x="0" y="0">h</tspan></text><path fill="none" stroke="#000" stroke-dasharray="3.2 3.2" stroke-width="1.067" d="M290.3 153.3c18.8-2 24 4.4 31.6-8.3 7.6-12.8 7.6-15.2 7.6-15.2"/><path d="M356.2 27.7a1 1 0 1 1-2.1 0 1 1 0 0 1 2.1 0z"/><path d="M355.7 27.7c0 .3-.3.5-.6.5a.5.5 0 1 1 0-1c.3 0 .6.2.6.5zm20.8 49.6a1 1 0 1 1-2.2 0 1 1 0 1 1 2.2 0z"/><path stroke="green" stroke-width=".8" d="m355.8 27 19.5 50.1"/><path d="M376 77.3c0 .3-.3.5-.6.5a.5.5 0 0 1 0-1c.3 0 .5.2.5.5z"/><text style="-inkscape-font-specification:Arial" font-family="Arial" font-size="10" font-weight="400" transform="matrix(1.33333 0 0 1.19008 371.7 91.3)"><tspan x="0" y="0">c</tspan></text><path fill="none" stroke="#000" stroke-dasharray="3.2 3.2" stroke-width="1.067" d="M355 27.7c-1.6 30.3-1.6 41.5 8.8 45.5s11.2 4 11.2 4"/><path fill="none" stroke="#000" stroke-dasharray="3.2 3.2" stroke-width="1.067" d="M355.4 27.4c15.3 10.2 18 12.5 21.5 21 3.4 8.4 6.8 10.7 2.2 20.3l-4.5 9.6"/><text style="-inkscape-font-specification:Arial" font-family="Arial" font-size="10" font-weight="400" transform="matrix(1.33333 0 0 1.19008 346.3 27.7)"><tspan x="0" y="0">d</tspan></text></svg>