<svg width="500" height="500" viewBox="0 0 90000 90000" xmlns="http://www.w3.org/2000/svg"><g fill-opacity=".4"><g fill="green"><path d="M6171 5218h2020v337H6171zm0-2244h6108v2244H6171zm176 28049h1190v1269H6347zm0-4364h2222v4364H6347zm1190 34514h1904v3015H7537zm0-17773h1587v17773H7537zm0-12377h1984v6347H7537zm0 6347h1984v6030H7537zm1746-16662h1587v3650H9283zm0-1666h10076v1666H9283zm1745-5633h6268v1745h-6268zm476 53556h2460v5713h-2460zm-5316 3491h5316v2222H6188zm5634-27056h2539v1190h-2539zm0 19677h753v3888h-753zm753 0h1072v3888h-1072zm1114-55502h2244v1570h-2244zm275 62723h3253v2380h-3253zm397-38006h4443v1825h-4443zm0 3412h1269v8886h-1269zm0-1587h1745v1587h-1745zm200 20153h1507v3571h-1507zm1372-48827h2356v3702h-2356zm0-2469h4264v2469h-4264zm2749 51447h1403v5779h-1403zm281 5891h1458v1852h-1458zm0 1852h729v1851h-729zm0-1964h1122v112h-1122zm79-39492h1745v317h-1745zm201 46000h2188v1908h-2188z"/><path d="M19243 48755h2469v6508h-2469zm116-30269h4920v2222h-4920zm333 43678h3647v2076h-3647zm0 2076h1739v2468h-1739zm0-19198h1627v3713h-1627zm1627 3264h393v449h-393zm183-40690h7102v1667h-7102zm1837 54548h3590v1459h-3590zm1170-15564h1091v1500h-1091zm0-2300h1191v2300h-1191zm1074 15732h1346v2132h-1346zm44 8203h397v1825h-397zm73-33435h2600v11800h-2600zm2904-27184h1508v1429h-1508zm673 20788h2380v3650h-2380zm476-16265h1587v2063h-1587zm0 2063h1904v3094h-1904zm0 3094h1428v11108h-1428zm992 34657h1570v7818h-1570zm0 7818h1570v3739h-1570zm889 5742h2020v3366h-2020zm3374-60070h2245v2132h-2245zm113 33550h2356v5049h-2356zm107-10351h6347v2619h-6347zm0-79h2380v79h-2380zm454-20988h1571v2580h-1571zm0 36467h1795v7518h-1795zm22-21430h1111v3412h-1111zm0 3412h1507v2539h-1507zm202 38328h836v4600h-836zm836 0h735v4600h-735zm469-37138h397v1349h-397zm42-24240h5049v2244h-5049zm224 47015h561v1571h-561zm224 5274h1852v5554h-1852zm3716-38760h1904v2380h-1904zm0-2301h1428v2301h-1428zm885-11228h12231v2469H42302zm0 2469h224v1683h-224zm224 0h1684v2244h-1684zm674 16270h1907v4488h-1907zm597 43110h1746v4284h-1746zm0-2539h2936v2539h-2936zm0-25469h1825v14044h-1825zm873 23882h2063v1587h-2063zm437-33935h5050v2132h-5050zm118 30127h1746v1824h-1746zm0 1824h1508v1984h-1508zm0-3887h3015v2063h-3015zm397-5792h793v1825h-793zm607-39440h1571v113h-1571zm186 39440h1825v5792h-1825zm3742-22272h2356v2244h-2356zm0 2244h1795v2806h-1795zm448 2806h1347v1346h-1347zm0-23228h3591v1123h-3591zm174 61714h5119v2380h-5119zm51-37140h1122v8303h-1122zm981 27222h1825v6268h-1825zm29-42033h2019v1795h-2019zm209 40446h1587v1587h-1587zm0-2380h3253v2380h-3253zm352-44126h1458v6060h-1458zm112-2580h1683v224h-1683zm964 44722h1825v1984h-1825zm1056-51455h3029v2132h-3029zm1365 67006h8728v2698h-8728zm515-36656h1745v7726h-1745zm0 7726h1745v6873h-1745zm1149-38076h12119v2693H57562zm120 50701h1031v4404h-1031zm1002-27025h225v1122h-225zm29 23415h1032v8014h-1032zm196-37441h1459v15148h-1459zm112 15148h1347v2356h-1347zm0 2356h746v1908h-746zm883 32077h1666v2221h-1666zm1922-32077h1908v18627h-1908zm449 18627h1459v3815h-1459zm1683-32765h449v1234h-449zm449-4152h1571v6733h-1571zm0 6733h1795v1795h-1795zm0 1795h3591v2244h-3591zm0-10323h785v1795h-785zm112 53075h2132v2019h-2132zm107 7497h4047v2063h-4047zm118-9180h1907v1683h-1907zm0-2469h3815v2469h-3815zm1458-36356h1796v1908h-1796zm674 31082h1683v5274h-1683zm1009-40283h2469v1796h-2469zm788 56492h2063v635h-2063zm0 635h4681v2142h-4681zm1008-64757h1346v225h-1346zm0-2805h8303v2805h-8303zm673 10435h2805v1796h-2805zm449 19412h2805v2132h-2805zm0 2132h1459v12455h-1459zm0 12455h2020v2693h-2020zm449 7294h1571v3030h-1571zm0 3030h1346v4151h-1346zm0-5499h4712v2469h-4712zm0-2132h1571v2132h-1571zm1122-19075h1234v1795h-1234zm112-18851h673v1234h-673zm0-1459h7181v1459h-7181zm224 17505h898v2805h-898zm225-10884h2468v1795h-2468zm0 3254h673v7630h-673zm0-1459h898v1459h-898zm419 50848h4443v2698h-4443zm1904-1745h318v1745h-318zm318-9204h1824v10949h-1824zm388-6573h1684v3815h-1684zm1436 16173h397v1349h-397zm397 2063h4919v1984h-4919zm1534-37312h1683v12231h-1683zm112-10884h337v1571h-337zm0 1571h2020v1795h-2020zm224-13353h2357v3254h-2357zm113 10099h2244v3254h-2244zm112-13128h1683v3029h-1683zm224 6283h1908v6845h-1908zm898 30184h673v1459h-673z"/></g><g fill="red"><path d="M6347 24120h1825v2539H6347zm0-8649h3729v2143H6347zm0 2143h1507v6506H6347zm1190 46574h1904v2063H7537zM9203 7458h1667v4602H9203zm873 8489h7934v1667h-7934zm476 27453h1270v15710h-1270zm0 15710h3967v2301h-3967zm318-48637h1983v1587h-1983zm634 15234h3809v2697h-3809zm0 2697h397v1746h-397zm397 2936h1428v9997h-1428zm0-2936h1746v2936h-1746zm378-25430h3654v2244h-3654zm574 7896h6189v1190h-6189zm238 11901h3491v2380h-3491zm0 2380h2222v556h-2222zm1428 34435h2619v1825h-2619zm42-12853h1904v7537h-1904zm1148 14678h1429v3015h-1429zm0 3015h1746v2142h-1746zm756-17693h1825v1745h-1825zm476-8252h1825v5951h-1825zm0 5951h1349v2301h-1349zm0-7855h2101v1904h-2101zm276 34197h4602v1904h-4602zm714-58714h1111v317h-1111zm1111-1825h1825v2142h-1825zm0 26024h1587v2222h-1587zm1155-33285h9987v2244h-9987zm432 31778h2421v3729h-2421zm0-11822h2421v8648h-2421zm238-12140h1745v1587h-1745zm238 20788h1945v3174h-1945zm595 26922h1700v2000h-1700zm0-2000h5700v2000h-5700zm119 13560h4205v2618h-4205zm793-59270h1667v7696h-1667zm438 12140h1943v2221h-1943zm650 21370h809v2300h-809zm0 2300h809v1500h-809zm23 19175h930v4285h-930zm930 0h974v4285h-974zm340-43163h3215v2539h-3215zm1031 47606h4681v2460h-4681zm279-45067h1905v1746h-1905zm38-4284h1867v1745h-1867zm715-9045h1152v9045h-1152zm0-2539h1548v2539h-1548zm344 40717h2270v8500h-2270zm300-2500h2475v2500h-2475zm175 18013h3759v1963h-3759zm0-618h225v618h-225zm225-6395h1570v7013h-1570zm1570-8500h505v1711h-505zm505-2500h3367v2416h-3367zm9-44526h7069v2469h-7069zm521 67879h7221v1825h-7221zm817-25370h2020v2017h-2020zm1167-25965h1904v1349h-1904zm0 1349h1349v6109h-1349zm0-3491h3094v2142h-3094zm79-7697h1270v2301h-1270zm0 2301h3015v2301h-3015zm894 50352h1005v2020h-1005zm0-10772h1959v2469h-1959zm0 2469h1908v8303h-1908zm58-39748h2063v3095h-2063zm947 48051h2810v2020h-2810zm954-10772h2080v2469h-2080zm2080 0h337v2020h-337zm225 18738h3649v2380h-3649zm112-18626h4937v1908h-4937zm1236-15175h397v953h-397zm0-5236h2301v5236h-2301zm397 5236h1587v11743h-1587zm159 25866h807v7935h-807zm807 0h938v7935h-938zm655-8222h2469v2244h-2469zm0-561h1683v561h-1683zm283 16797h1825v2301h-1825zm615-13992h1571v3142h-1571zm336-48698h5274v1907h-5274zm113 18514h2468v2693h-2468zm761 44890h7379v1587h-7379zm3888-37767h1508v2221h-1508zm476 26818h1666v6506h-1666zm0 6506h2142v1904h-2142zm0-8331h2618v1825h-2618zm79-15869h1746v3095h-1746zm0 3095h2777v1904h-2777zm0-9998h953v6903h-953zm1191 20630h1348v2142h-1348zm317-239h1031v239h-1031zm0-8489h1269v8489h-1269zm-2448-31232h4039v2132h-4039zm2468-4489h1571v4489h-1571zm1234-3927h3591v785h-3591zm-112 14475h3479v1795h-3479zm2020 1795h1459v337h-1459zm224 18963h779v2469h-779zm337-897h449v897h-449zm0 3366h1571v3815h-1571zm0 3815h1908v3030h-1908zm442-6284h1129v2469h-1129zm7-10098h1122v10098h-1122zm0-1684h1683v1684h-1683zm0-2019h3815v2019h-3815zm449-7294h3254v2469h-3254zm224-14138h3479v2469h-3479zm1347 16607h1683v673h-1683zm112-3928h1571v1459h-1571zm112 7631h1571v1122h-1571zm112-21095h1796v785h-1796zm19 60269h2539v2697h-2539zm93-57015h1010v10210h-1010zm304 49160h1508v5633h-1508zm0 5633h2142v2222h-2142zm706-54793h674v448h-674zm0 9649h225v561h-225zm681 30148h1031v3610h-1031zm2085-19937h2059v1908h-2059zm137 29300h1369v2777h-1369zm1137-52078h1907v2132h-1907zm0 2132h1459v1347h-1459zm232 49946h2201v2777h-2201zm104-36144h1684v4712h-1684zm0-12455h1123v12455h-1123zm748 43124h1825v2376h-1825zm0 2376h1825v1591h-1825zm0 1591h1349v1508h-1349zm936-31382h3029v1458h-3029zm1009 38599h2581v3367h-2581zm786-13689h3703v2244h-3703zm0-19075h1795v19075h-1795zm0-4377h1234v4377h-1234zm336-17953h1123v1795h-1123zm1123-2693h2019v4488h-2019zm1570 8865h3142v1683h-3142zm449-6284h1683v1907h-1683zm1122 7967h1571v1907h-1571zm449 1907h1122v8191h-1122z"/><path d="M68671 26874h1683v3254h-1683zm1907 35009h2020v6733h-2020zm1908-53635h3591v1459h-3591zm2244 5947h673v3142h-673zm449 22105h1908v10772h-1908zm337-10323h1907v5610h-1907zm0 5610h1571v4713h-1571zm0-9201h1683v3591h-1683zm561-16607h1907v3928h-1907zm1122 8416h1458v5947h-1458zm673 35345h1683v2020h-1683zm112-46566h4489v2693h-4489zm1010 56329h561v1346h-561zm0 1346h2132v7855h-2132zm561-15036h2132v5947h-2132zm0 10997h2132v4039h-2132zm337-5050h1795v5050h-1795z"/></g></g></svg>