<?xml version="1.0" encoding="UTF-8" standalone="no"?>
<!DOCTYPE svg PUBLIC "-//W3C//DTD SVG 1.1//EN"
 "http://www.w3.org/Graphics/SVG/1.1/DTD/svg11.dtd">
<!-- Generated by graphviz version 2.40.1 (20161225.0304)
 -->
<!-- Title: chol_ext::factor Pages: 1 -->
<svg width="443pt" height="28pt"
 viewBox="0.00 0.00 443.00 28.00" xmlns="http://www.w3.org/2000/svg" xmlns:xlink="http://www.w3.org/1999/xlink">
<g id="graph0" class="graph" transform="scale(1 1) rotate(0) translate(4 24)">
<title>chol_ext::factor</title>
<polygon fill="#ffffff" stroke="transparent" points="-4,4 -4,-24 439,-24 439,4 -4,4"/>
<!-- Node3 -->
<g id="node1" class="node">
<title>Node3</title>
<polygon fill="#bfbfbf" stroke="#000000" points="0,-.5 0,-19.5 84,-19.5 84,-.5 0,-.5"/>
<text text-anchor="middle" x="42" y="-7.5" font-family="Helvetica,sans-Serif" font-size="10.00" fill="#000000">chol_ext::factor</text>
</g>
<!-- Node4 -->
<g id="node2" class="node">
<title>Node4</title>
<g id="a_node2"><a xlink:href="classchol__ext.html#a5d927b9f300d005df3dac8b7b2ed9959" target="_top" xlink:title="chol_ext::factorize">
<polygon fill="#ffffff" stroke="#000000" points="120,-.5 120,-19.5 217,-19.5 217,-.5 120,-.5"/>
<text text-anchor="middle" x="168.5" y="-7.5" font-family="Helvetica,sans-Serif" font-size="10.00" fill="#000000">chol_ext::factorize</text>
</a>
</g>
</g>
<!-- Node3&#45;&gt;Node4 -->
<g id="edge1" class="edge">
<title>Node3&#45;&gt;Node4</title>
<path fill="none" stroke="#191970" d="M94.3159,-10C102.8183,-10 111.5926,-10 119.9988,-10"/>
<polygon fill="#191970" stroke="#191970" points="94.1227,-6.5001 84.1227,-10 94.1226,-13.5001 94.1227,-6.5001"/>
</g>
<!-- Node5 -->
<g id="node3" class="node">
<title>Node5</title>
<g id="a_node3"><a xlink:href="chol__test_8cpp.html#a0f0b8279e95acc7cdb1d810bc3d368e0" target="_top" xlink:title="TEST_CASE">
<polygon fill="#ffffff" stroke="#000000" points="253,-.5 253,-19.5 328,-19.5 328,-.5 253,-.5"/>
<text text-anchor="middle" x="290.5" y="-7.5" font-family="Helvetica,sans-Serif" font-size="10.00" fill="#000000">TEST_CASE</text>
</a>
</g>
</g>
<!-- Node4&#45;&gt;Node5 -->
<g id="edge2" class="edge">
<title>Node4&#45;&gt;Node5</title>
<path fill="none" stroke="#191970" d="M227.1606,-10C235.8182,-10 244.5387,-10 252.6232,-10"/>
<polygon fill="#191970" stroke="#191970" points="227.0682,-6.5001 217.0682,-10 227.0681,-13.5001 227.0682,-6.5001"/>
</g>
<!-- Node6 -->
<g id="node4" class="node">
<title>Node6</title>
<g id="a_node4"><a xlink:href="lowpass_8cpp.html#aacf796546f8ce699db57b9e74a3e1e69" target="_top" xlink:title="run_lowpass">
<polygon fill="#ffffff" stroke="#000000" points="364,-.5 364,-19.5 435,-19.5 435,-.5 364,-.5"/>
<text text-anchor="middle" x="399.5" y="-7.5" font-family="Helvetica,sans-Serif" font-size="10.00" fill="#000000">run_lowpass</text>
</a>
</g>
</g>
<!-- Node5&#45;&gt;Node6 -->
<g id="edge3" class="edge">
<title>Node5&#45;&gt;Node6</title>
<path fill="none" stroke="#191970" d="M338.2784,-10C346.8339,-10 355.6139,-10 363.7574,-10"/>
<polygon fill="#191970" stroke="#191970" points="338.0117,-6.5001 328.0116,-10 338.0116,-13.5001 338.0117,-6.5001"/>
</g>
</g>
</svg>
