<?xml version="1.0" encoding="UTF-8" standalone="no"?>
<!DOCTYPE svg PUBLIC "-//W3C//DTD SVG 1.1//EN"
 "http://www.w3.org/Graphics/SVG/1.1/DTD/svg11.dtd">
<!-- Generated by graphviz version 2.40.1 (20161225.0304)
 -->
<!-- Title: negCycleFinder::relax Pages: 1 -->
<svg width="606pt" height="39pt"
 viewBox="0.00 0.00 606.00 39.00" xmlns="http://www.w3.org/2000/svg" xmlns:xlink="http://www.w3.org/1999/xlink">
<g id="graph0" class="graph" transform="scale(1 1) rotate(0) translate(4 35)">
<title>negCycleFinder::relax</title>
<polygon fill="#ffffff" stroke="transparent" points="-4,4 -4,-35 602,-35 602,4 -4,4"/>
<!-- Node31 -->
<g id="node1" class="node">
<title>Node31</title>
<polygon fill="#bfbfbf" stroke="#000000" points="0,-6 0,-25 112,-25 112,-6 0,-6"/>
<text text-anchor="middle" x="56" y="-13" font-family="Helvetica,sans-Serif" font-size="10.00" fill="#000000">negCycleFinder::relax</text>
</g>
<!-- Node32 -->
<g id="node2" class="node">
<title>Node32</title>
<g id="a_node2"><a xlink:href="classnegCycleFinder.html#af8c8da98b3d527775e2a67733a286210" target="_top" xlink:title="negCycleFinder::neg\l_cycle_relax">
<polygon fill="#ffffff" stroke="#000000" points="148,-.5 148,-30.5 255,-30.5 255,-.5 148,-.5"/>
<text text-anchor="start" x="156" y="-18.5" font-family="Helvetica,sans-Serif" font-size="10.00" fill="#000000">negCycleFinder::neg</text>
<text text-anchor="middle" x="201.5" y="-7.5" font-family="Helvetica,sans-Serif" font-size="10.00" fill="#000000">_cycle_relax</text>
</a>
</g>
</g>
<!-- Node31&#45;&gt;Node32 -->
<g id="edge1" class="edge">
<title>Node31&#45;&gt;Node32</title>
<path fill="none" stroke="#191970" d="M122.4976,-15.5C130.9673,-15.5 139.5509,-15.5 147.7846,-15.5"/>
<polygon fill="#191970" stroke="#191970" points="122.2541,-12.0001 112.2541,-15.5 122.2541,-19.0001 122.2541,-12.0001"/>
</g>
<!-- Node33 -->
<g id="node3" class="node">
<title>Node33</title>
<g id="a_node3"><a xlink:href="classnegCycleFinder.html#ac08064e4418f9f2a1be6a11ffb9c5928" target="_top" xlink:title="negCycleFinder::find\l_neg_cycle">
<polygon fill="#ffffff" stroke="#000000" points="291,-.5 291,-30.5 398,-30.5 398,-.5 291,-.5"/>
<text text-anchor="start" x="299" y="-18.5" font-family="Helvetica,sans-Serif" font-size="10.00" fill="#000000">negCycleFinder::find</text>
<text text-anchor="middle" x="344.5" y="-7.5" font-family="Helvetica,sans-Serif" font-size="10.00" fill="#000000">_neg_cycle</text>
</a>
</g>
</g>
<!-- Node32&#45;&gt;Node33 -->
<g id="edge2" class="edge">
<title>Node32&#45;&gt;Node33</title>
<path fill="none" stroke="#191970" d="M265.3238,-15.5C273.7452,-15.5 282.3103,-15.5 290.5445,-15.5"/>
<polygon fill="#191970" stroke="#191970" points="265.1548,-12.0001 255.1548,-15.5 265.1547,-19.0001 265.1548,-12.0001"/>
</g>
<!-- Node34 -->
<g id="node4" class="node">
<title>Node34</title>
<g id="a_node4"><a xlink:href="test__neg__cycle_8cpp.html#abd6c15e2d6c028621c9f9b6c0a7d51a6" target="_top" xlink:title="do_case">
<polygon fill="#ffffff" stroke="#000000" points="434,-6 434,-25 487,-25 487,-6 434,-6"/>
<text text-anchor="middle" x="460.5" y="-13" font-family="Helvetica,sans-Serif" font-size="10.00" fill="#000000">do_case</text>
</a>
</g>
</g>
<!-- Node33&#45;&gt;Node34 -->
<g id="edge3" class="edge">
<title>Node33&#45;&gt;Node34</title>
<path fill="none" stroke="#191970" d="M408.326,-15.5C417.3661,-15.5 426.2156,-15.5 433.9838,-15.5"/>
<polygon fill="#191970" stroke="#191970" points="408.0859,-12.0001 398.0858,-15.5 408.0858,-19.0001 408.0859,-12.0001"/>
</g>
<!-- Node35 -->
<g id="node5" class="node">
<title>Node35</title>
<g id="a_node5"><a xlink:href="test__neg__cycle_8cpp.html#a1a0354e85957426b56e3257b19cdfc6f" target="_top" xlink:title="TEST_CASE">
<polygon fill="#ffffff" stroke="#000000" points="523,-6 523,-25 598,-25 598,-6 523,-6"/>
<text text-anchor="middle" x="560.5" y="-13" font-family="Helvetica,sans-Serif" font-size="10.00" fill="#000000">TEST_CASE</text>
</a>
</g>
</g>
<!-- Node34&#45;&gt;Node35 -->
<g id="edge4" class="edge">
<title>Node34&#45;&gt;Node35</title>
<path fill="none" stroke="#191970" d="M497.2669,-15.5C505.6303,-15.5 514.5259,-15.5 522.9225,-15.5"/>
<polygon fill="#191970" stroke="#191970" points="497.0357,-12.0001 487.0356,-15.5 497.0356,-19.0001 497.0357,-12.0001"/>
</g>
</g>
</svg>
