<?xml version="1.0" encoding="UTF-8" standalone="no"?>
<!DOCTYPE svg PUBLIC "-//W3C//DTD SVG 1.1//EN"
 "http://www.w3.org/Graphics/SVG/1.1/DTD/svg11.dtd">
<!-- Generated by graphviz version 2.40.1 (20161225.0304)
 -->
<!-- Title: negCycleFinder&lt; Graph, WeightFn &gt; Pages: 1 -->
<!--zoomable 492 -->
<svg id="main" version="1.1" xmlns="http://www.w3.org/2000/svg" xmlns:xlink="http://www.w3.org/1999/xlink" xml:space="preserve" onload="init(evt)">
<style type="text/css"><![CDATA[
.edge:hover path { stroke: red; }
.edge:hover polygon { stroke: red; fill: red; }
]]></style>
<script type="text/javascript"><![CDATA[
var edges = document.getElementsByTagName('g');
if (edges && edges.length) {
  for (var i=0;i<edges.length;i++) {
    if (edges[i].id.substr(0,4)=='edge') {
      edges[i].setAttribute('class','edge');
    }
  }
}
]]></script>
        <defs>
                <circle id="rim" cx="0" cy="0" r="7"/>
                <circle id="rim2" cx="0" cy="0" r="3.5"/>
                <g id="zoomPlus">
                        <use xlink:href="#rim" fill="#404040">
                                <set attributeName="fill" to="#808080" begin="zoomplus.mouseover" end="zoomplus.mouseout"/>
                        </use>
                        <path d="M-4,0h8M0,-4v8" fill="none" stroke="white" stroke-width="1.5" pointer-events="none"/>
                </g>
                <g id="zoomMin">
                        <use xlink:href="#rim" fill="#404040">
                                <set attributeName="fill" to="#808080" begin="zoomminus.mouseover" end="zoomminus.mouseout"/>
                        </use>
                        <path d="M-4,0h8" fill="none" stroke="white" stroke-width="1.5" pointer-events="none"/>
                </g>
                <g id="dirArrow">
                        <path fill="none" stroke="white" stroke-width="1.5" d="M0,-3.0v7 M-2.5,-0.5L0,-3.0L2.5,-0.5"/>
                </g>
               <g id="resetDef">
                       <use xlink:href="#rim2" fill="#404040">
                               <set attributeName="fill" to="#808080" begin="reset.mouseover" end="reset.mouseout"/>
                       </use>
               </g>
        </defs>

<script type="text/javascript">
var viewWidth = 403;
var viewHeight = 492;
var sectionId = 'dynsection-0';
</script>
<script xlink:href="svgpan.js"/>
<svg id="graph" class="graph">
<g id="viewport">
<title>negCycleFinder&lt; Graph, WeightFn &gt;</title>
<polygon fill="#ffffff" stroke="transparent" points="-4,4 -4,-488 399,-488 399,4 -4,4"/>
<!-- Node1 -->
<g id="node1" class="node">
<title>Node1</title>
<polygon fill="#bfbfbf" stroke="#000000" points="131,-.5 131,-134.5 254,-134.5 254,-.5 131,-.5"/>
<text text-anchor="start" x="139" y="-122.5" font-family="Helvetica,sans-Serif" font-size="10.00" fill="#000000">negCycleFinder&lt; Graph,</text>
<text text-anchor="middle" x="192.5" y="-111.5" font-family="Helvetica,sans-Serif" font-size="10.00" fill="#000000"> WeightFn &gt;</text>
<polyline fill="none" stroke="#000000" points="131,-104.5 254,-104.5 "/>
<text text-anchor="start" x="139" y="-92.5" font-family="Helvetica,sans-Serif" font-size="10.00" fill="#000000">&#45; _G</text>
<text text-anchor="start" x="139" y="-81.5" font-family="Helvetica,sans-Serif" font-size="10.00" fill="#000000">&#45; _get_weight</text>
<polyline fill="none" stroke="#000000" points="131,-74.5 254,-74.5 "/>
<text text-anchor="start" x="139" y="-62.5" font-family="Helvetica,sans-Serif" font-size="10.00" fill="#000000">+ negCycleFinder()</text>
<text text-anchor="start" x="139" y="-51.5" font-family="Helvetica,sans-Serif" font-size="10.00" fill="#000000">+ find_cycle()</text>
<text text-anchor="start" x="139" y="-40.5" font-family="Helvetica,sans-Serif" font-size="10.00" fill="#000000">+ relax()</text>
<text text-anchor="start" x="139" y="-29.5" font-family="Helvetica,sans-Serif" font-size="10.00" fill="#000000">+ find_neg_cycle()</text>
<text text-anchor="start" x="139" y="-18.5" font-family="Helvetica,sans-Serif" font-size="10.00" fill="#000000">+ neg_cycle_relax()</text>
<text text-anchor="start" x="139" y="-7.5" font-family="Helvetica,sans-Serif" font-size="10.00" fill="#000000">+ cycle_list()</text>
</g>
<!-- Node2 -->
<g id="node2" class="node">
<title>Node2</title>
<g id="a_node2"><a xlink:href="classpy_1_1dict.html" target="_top" xlink:title="{py::dict\&lt; Node, wt_t \&gt;\n||+ dict()\l+ dict()\l+ operator=()\l&#45; dict()\l}">
<polygon fill="#ffffff" stroke="#000000" points="0,-182.5 0,-272.5 115,-272.5 115,-182.5 0,-182.5"/>
<text text-anchor="middle" x="57.5" y="-260.5" font-family="Helvetica,sans-Serif" font-size="10.00" fill="#000000">py::dict&lt; Node, wt_t &gt;</text>
<polyline fill="none" stroke="#000000" points="0,-253.5 115,-253.5 "/>
<text text-anchor="middle" x="57.5" y="-241.5" font-family="Helvetica,sans-Serif" font-size="10.00" fill="#000000"> </text>
<polyline fill="none" stroke="#000000" points="0,-234.5 115,-234.5 "/>
<text text-anchor="start" x="8" y="-222.5" font-family="Helvetica,sans-Serif" font-size="10.00" fill="#000000">+ dict()</text>
<text text-anchor="start" x="8" y="-211.5" font-family="Helvetica,sans-Serif" font-size="10.00" fill="#000000">+ dict()</text>
<text text-anchor="start" x="8" y="-200.5" font-family="Helvetica,sans-Serif" font-size="10.00" fill="#000000">+ operator=()</text>
<text text-anchor="start" x="8" y="-189.5" font-family="Helvetica,sans-Serif" font-size="10.00" fill="#000000">&#45; dict()</text>
</a>
</g>
</g>
<!-- Node2&#45;&gt;Node1 -->
<g id="edge1" class="edge">
<title>Node2&#45;&gt;Node1</title>
<path fill="none" stroke="#404040" d="M95.8245,-182.0784C105.8609,-170.1834 116.963,-157.0254 127.9601,-143.9918"/>
<polygon fill="none" stroke="#404040" points="128.1939,-143.7147 129.0059,-136.5494 135.9324,-134.5431 135.1203,-141.7084 128.1939,-143.7147"/>
<text text-anchor="middle" x="132" y="-156" font-family="Helvetica,sans-Serif" font-size="10.00" fill="#000000"> +_dist</text>
</g>
<!-- Node3 -->
<g id="node3" class="node">
<title>Node3</title>
<g id="a_node3"><a xlink:title="STL class. ">
<polygon fill="#ffffff" stroke="#bfbfbf" points="6,-310.5 6,-378.5 109,-378.5 109,-310.5 6,-310.5"/>
<text text-anchor="start" x="14" y="-366.5" font-family="Helvetica,sans-Serif" font-size="10.00" fill="#000000">std::unordered_map</text>
<text text-anchor="middle" x="57.5" y="-355.5" font-family="Helvetica,sans-Serif" font-size="10.00" fill="#000000">&lt; Node, wt_t &gt;</text>
<polyline fill="none" stroke="#bfbfbf" points="6,-348.5 109,-348.5 "/>
<text text-anchor="middle" x="57.5" y="-336.5" font-family="Helvetica,sans-Serif" font-size="10.00" fill="#000000"> </text>
<polyline fill="none" stroke="#bfbfbf" points="6,-329.5 109,-329.5 "/>
<text text-anchor="middle" x="57.5" y="-317.5" font-family="Helvetica,sans-Serif" font-size="10.00" fill="#000000"> </text>
</a>
</g>
</g>
<!-- Node3&#45;&gt;Node2 -->
<g id="edge2" class="edge">
<title>Node3&#45;&gt;Node2</title>
<path fill="none" stroke="#191970" d="M57.5,-300.1185C57.5,-291.1783 57.5,-281.7704 57.5,-272.7993"/>
<polygon fill="none" stroke="#191970" points="54.0001,-300.3442 57.5,-310.3442 61.0001,-300.3443 54.0001,-300.3442"/>
</g>
<!-- Node4 -->
<g id="node4" class="node">
<title>Node4</title>
<polygon fill="#ffffff" stroke="#bfbfbf" points="82,-426.5 82,-483.5 111,-483.5 111,-426.5 82,-426.5"/>
<text text-anchor="middle" x="96.5" y="-471.5" font-family="Helvetica,sans-Serif" font-size="10.00" fill="#000000">K</text>
<polyline fill="none" stroke="#bfbfbf" points="82,-464.5 111,-464.5 "/>
<text text-anchor="middle" x="96.5" y="-452.5" font-family="Helvetica,sans-Serif" font-size="10.00" fill="#000000"> </text>
<polyline fill="none" stroke="#bfbfbf" points="82,-445.5 111,-445.5 "/>
<text text-anchor="middle" x="96.5" y="-433.5" font-family="Helvetica,sans-Serif" font-size="10.00" fill="#000000"> </text>
</g>
<!-- Node4&#45;&gt;Node3 -->
<g id="edge3" class="edge">
<title>Node4&#45;&gt;Node3</title>
<path fill="none" stroke="#404040" d="M81.6631,-446.7879C68.8702,-438.7724 51.2687,-425.2726 43.5,-408 41.053,-402.5594 40.2127,-396.6592 40.4202,-390.721"/>
<polygon fill="none" stroke="#404040" points="40.4522,-390.4945 37.3349,-383.992 42.1383,-378.6136 45.2556,-385.1161 40.4522,-390.4945"/>
<text text-anchor="middle" x="59" y="-400" font-family="Helvetica,sans-Serif" font-size="10.00" fill="#000000"> +keys</text>
</g>
<!-- Node7 -->
<g id="node7" class="node">
<title>Node7</title>
<g id="a_node7"><a xlink:title="STL class. ">
<polygon fill="#ffffff" stroke="#bfbfbf" points="281,-310.5 281,-378.5 384,-378.5 384,-310.5 281,-310.5"/>
<text text-anchor="start" x="289" y="-366.5" font-family="Helvetica,sans-Serif" font-size="10.00" fill="#000000">std::unordered_map</text>
<text text-anchor="middle" x="332.5" y="-355.5" font-family="Helvetica,sans-Serif" font-size="10.00" fill="#000000">&lt; Node, edge_t &gt;</text>
<polyline fill="none" stroke="#bfbfbf" points="281,-348.5 384,-348.5 "/>
<text text-anchor="middle" x="332.5" y="-336.5" font-family="Helvetica,sans-Serif" font-size="10.00" fill="#000000"> </text>
<polyline fill="none" stroke="#bfbfbf" points="281,-329.5 384,-329.5 "/>
<text text-anchor="middle" x="332.5" y="-317.5" font-family="Helvetica,sans-Serif" font-size="10.00" fill="#000000"> </text>
</a>
</g>
</g>
<!-- Node4&#45;&gt;Node7 -->
<g id="edge7" class="edge">
<title>Node4&#45;&gt;Node7</title>
<path fill="none" stroke="#404040" d="M111.1874,-448.9138C131.5311,-440.3598 169.3062,-424.0273 200.5,-408 209.179,-403.5408 210.8445,-401.5046 219.5,-397 235.5587,-388.6425 253.1939,-380.1387 269.6589,-372.4774"/>
<polygon fill="none" stroke="#404040" points="269.9408,-372.3474 273.7131,-366.2017 280.837,-367.3202 277.0646,-373.4659 269.9408,-372.3474"/>
<text text-anchor="middle" x="235" y="-400" font-family="Helvetica,sans-Serif" font-size="10.00" fill="#000000"> +keys</text>
</g>
<!-- Node9 -->
<g id="node9" class="node">
<title>Node9</title>
<g id="a_node9"><a xlink:title="STL class. ">
<polygon fill="#ffffff" stroke="#bfbfbf" points="141,-310.5 141,-378.5 244,-378.5 244,-310.5 141,-310.5"/>
<text text-anchor="start" x="149" y="-366.5" font-family="Helvetica,sans-Serif" font-size="10.00" fill="#000000">std::unordered_map</text>
<text text-anchor="middle" x="192.5" y="-355.5" font-family="Helvetica,sans-Serif" font-size="10.00" fill="#000000">&lt; Node, Node &gt;</text>
<polyline fill="none" stroke="#bfbfbf" points="141,-348.5 244,-348.5 "/>
<text text-anchor="middle" x="192.5" y="-336.5" font-family="Helvetica,sans-Serif" font-size="10.00" fill="#000000"> </text>
<polyline fill="none" stroke="#bfbfbf" points="141,-329.5 244,-329.5 "/>
<text text-anchor="middle" x="192.5" y="-317.5" font-family="Helvetica,sans-Serif" font-size="10.00" fill="#000000"> </text>
</a>
</g>
</g>
<!-- Node4&#45;&gt;Node9 -->
<g id="edge11" class="edge">
<title>Node4&#45;&gt;Node9</title>
<path fill="none" stroke="#404040" d="M91.378,-426.2498C91.0202,-416.3675 92.3085,-405.6297 97.5,-397 101.8804,-389.7186 114.9651,-381.0517 130.0773,-372.8793"/>
<polygon fill="none" stroke="#404040" points="130.1307,-372.8516 133.6134,-366.5373 140.7816,-367.3235 137.2988,-373.6379 130.1307,-372.8516"/>
<text text-anchor="middle" x="113" y="-400" font-family="Helvetica,sans-Serif" font-size="10.00" fill="#000000"> +keys</text>
</g>
<!-- Node5 -->
<g id="node5" class="node">
<title>Node5</title>
<polygon fill="#ffffff" stroke="#bfbfbf" points="262,-426.5 262,-483.5 291,-483.5 291,-426.5 262,-426.5"/>
<text text-anchor="middle" x="276.5" y="-471.5" font-family="Helvetica,sans-Serif" font-size="10.00" fill="#000000">T</text>
<polyline fill="none" stroke="#bfbfbf" points="262,-464.5 291,-464.5 "/>
<text text-anchor="middle" x="276.5" y="-452.5" font-family="Helvetica,sans-Serif" font-size="10.00" fill="#000000"> </text>
<polyline fill="none" stroke="#bfbfbf" points="262,-445.5 291,-445.5 "/>
<text text-anchor="middle" x="276.5" y="-433.5" font-family="Helvetica,sans-Serif" font-size="10.00" fill="#000000"> </text>
</g>
<!-- Node5&#45;&gt;Node3 -->
<g id="edge4" class="edge">
<title>Node5&#45;&gt;Node3</title>
<path fill="none" stroke="#404040" d="M261.7818,-450.7028C237.9161,-443.4655 189.6063,-427.6878 151.5,-408 138.7874,-401.432 125.7191,-393.4773 113.521,-385.452"/>
<polygon fill="none" stroke="#404040" points="113.4667,-385.4155 106.2557,-385.3894 103.5062,-378.723 110.7173,-378.7491 113.4667,-385.4155"/>
<text text-anchor="middle" x="176" y="-400" font-family="Helvetica,sans-Serif" font-size="10.00" fill="#000000"> +elements</text>
</g>
<!-- Node5&#45;&gt;Node7 -->
<g id="edge8" class="edge">
<title>Node5&#45;&gt;Node7</title>
<path fill="none" stroke="#404040" d="M291.0767,-445.7542C302.8268,-437.4277 318.6424,-424.0502 326.5,-408 329.1018,-402.6854 330.8789,-396.8226 332.0621,-390.8722"/>
<polygon fill="none" stroke="#404040" points="332.1032,-390.5715 328.954,-384.0844 333.7309,-378.6824 336.8801,-385.1695 332.1032,-390.5715"/>
<text text-anchor="middle" x="354" y="-400" font-family="Helvetica,sans-Serif" font-size="10.00" fill="#000000"> +elements</text>
</g>
<!-- Node5&#45;&gt;Node9 -->
<g id="edge12" class="edge">
<title>Node5&#45;&gt;Node9</title>
<path fill="none" stroke="#404040" d="M268.8737,-426.4328C265.4336,-416.5678 260.7167,-405.794 254.5,-397 252.2203,-393.7752 249.6975,-390.6277 247.0122,-387.5793"/>
<polygon fill="none" stroke="#404040" points="246.8542,-387.4145 239.8144,-385.852 238.549,-378.7528 245.5888,-380.3152 246.8542,-387.4145"/>
<text text-anchor="middle" x="285" y="-400" font-family="Helvetica,sans-Serif" font-size="10.00" fill="#000000"> +elements</text>
</g>
<!-- Node6 -->
<g id="node6" class="node">
<title>Node6</title>
<g id="a_node6"><a xlink:href="classpy_1_1dict.html" target="_top" xlink:title="{py::dict\&lt; Node, edge_t \&gt;\n||+ dict()\l+ dict()\l+ operator=()\l&#45; dict()\l}">
<polygon fill="#ffffff" stroke="#000000" points="270,-182.5 270,-272.5 395,-272.5 395,-182.5 270,-182.5"/>
<text text-anchor="middle" x="332.5" y="-260.5" font-family="Helvetica,sans-Serif" font-size="10.00" fill="#000000">py::dict&lt; Node, edge_t &gt;</text>
<polyline fill="none" stroke="#000000" points="270,-253.5 395,-253.5 "/>
<text text-anchor="middle" x="332.5" y="-241.5" font-family="Helvetica,sans-Serif" font-size="10.00" fill="#000000"> </text>
<polyline fill="none" stroke="#000000" points="270,-234.5 395,-234.5 "/>
<text text-anchor="start" x="278" y="-222.5" font-family="Helvetica,sans-Serif" font-size="10.00" fill="#000000">+ dict()</text>
<text text-anchor="start" x="278" y="-211.5" font-family="Helvetica,sans-Serif" font-size="10.00" fill="#000000">+ dict()</text>
<text text-anchor="start" x="278" y="-200.5" font-family="Helvetica,sans-Serif" font-size="10.00" fill="#000000">+ operator=()</text>
<text text-anchor="start" x="278" y="-189.5" font-family="Helvetica,sans-Serif" font-size="10.00" fill="#000000">&#45; dict()</text>
</a>
</g>
</g>
<!-- Node6&#45;&gt;Node1 -->
<g id="edge5" class="edge">
<title>Node6&#45;&gt;Node1</title>
<path fill="none" stroke="#404040" d="M292.7561,-182.0784C282.2469,-170.0679 270.611,-156.7698 259.0982,-143.6122"/>
<polygon fill="none" stroke="#404040" points="259.0648,-143.5741 252.1035,-141.6926 251.1627,-134.5431 258.1241,-136.4246 259.0648,-143.5741"/>
<text text-anchor="middle" x="292.5" y="-156" font-family="Helvetica,sans-Serif" font-size="10.00" fill="#000000"> +_edge</text>
</g>
<!-- Node7&#45;&gt;Node6 -->
<g id="edge6" class="edge">
<title>Node7&#45;&gt;Node6</title>
<path fill="none" stroke="#191970" d="M332.5,-300.1185C332.5,-291.1783 332.5,-281.7704 332.5,-272.7993"/>
<polygon fill="none" stroke="#191970" points="329.0001,-300.3442 332.5,-310.3442 336.0001,-300.3443 329.0001,-300.3442"/>
</g>
<!-- Node8 -->
<g id="node8" class="node">
<title>Node8</title>
<g id="a_node8"><a xlink:href="classpy_1_1dict.html" target="_top" xlink:title="{py::dict\&lt; Node, Node \&gt;\n||+ dict()\l+ dict()\l+ operator=()\l&#45; dict()\l}">
<polygon fill="#ffffff" stroke="#000000" points="133,-182.5 133,-272.5 252,-272.5 252,-182.5 133,-182.5"/>
<text text-anchor="middle" x="192.5" y="-260.5" font-family="Helvetica,sans-Serif" font-size="10.00" fill="#000000">py::dict&lt; Node, Node &gt;</text>
<polyline fill="none" stroke="#000000" points="133,-253.5 252,-253.5 "/>
<text text-anchor="middle" x="192.5" y="-241.5" font-family="Helvetica,sans-Serif" font-size="10.00" fill="#000000"> </text>
<polyline fill="none" stroke="#000000" points="133,-234.5 252,-234.5 "/>
<text text-anchor="start" x="141" y="-222.5" font-family="Helvetica,sans-Serif" font-size="10.00" fill="#000000">+ dict()</text>
<text text-anchor="start" x="141" y="-211.5" font-family="Helvetica,sans-Serif" font-size="10.00" fill="#000000">+ dict()</text>
<text text-anchor="start" x="141" y="-200.5" font-family="Helvetica,sans-Serif" font-size="10.00" fill="#000000">+ operator=()</text>
<text text-anchor="start" x="141" y="-189.5" font-family="Helvetica,sans-Serif" font-size="10.00" fill="#000000">&#45; dict()</text>
</a>
</g>
</g>
<!-- Node8&#45;&gt;Node1 -->
<g id="edge9" class="edge">
<title>Node8&#45;&gt;Node1</title>
<path fill="none" stroke="#404040" d="M192.5,-182.0784C192.5,-170.9918 192.5,-158.808 192.5,-146.6504"/>
<polygon fill="none" stroke="#404040" points="192.5001,-146.5431 188.5,-140.5432 192.5,-134.5431 196.5,-140.5431 192.5001,-146.5431"/>
<text text-anchor="middle" x="209.5" y="-156" font-family="Helvetica,sans-Serif" font-size="10.00" fill="#000000"> +_pred</text>
</g>
<!-- Node9&#45;&gt;Node8 -->
<g id="edge10" class="edge">
<title>Node9&#45;&gt;Node8</title>
<path fill="none" stroke="#191970" d="M192.5,-300.1185C192.5,-291.1783 192.5,-281.7704 192.5,-272.7993"/>
<polygon fill="none" stroke="#191970" points="189.0001,-300.3442 192.5,-310.3442 196.0001,-300.3443 189.0001,-300.3442"/>
</g>
</g>
</svg>
        <g id="navigator" transform="translate(0 0)" fill="#404254">
                <rect fill="#f2f5e9" fill-opacity="0.5" stroke="#606060" stroke-width=".5" x="0" y="0" width="60" height="60"/>
                <use id="zoomplus" xlink:href="#zoomPlus" x="17" y="9" onmousedown="handleZoom(evt,'in')"/>
                <use id="zoomminus" xlink:href="#zoomMin" x="42" y="9" onmousedown="handleZoom(evt,'out')"/>
                <use id="reset" xlink:href="#resetDef" x="30" y="36" onmousedown="handleReset()"/>
                <g id="arrowUp" xlink:href="#dirArrow" transform="translate(30 24)" onmousedown="handlePan(0,-1)">
                  <use xlink:href="#rim" fill="#404040">
                        <set attributeName="fill" to="#808080" begin="arrowUp.mouseover" end="arrowUp.mouseout"/>
                  </use>
                  <path fill="none" stroke="white" stroke-width="1.5" d="M0,-3.0v7 M-2.5,-0.5L0,-3.0L2.5,-0.5"/>
                </g>
                <g id="arrowRight" xlink:href="#dirArrow" transform="rotate(90) translate(36 -43)" onmousedown="handlePan(1,0)">
                  <use xlink:href="#rim" fill="#404040">
                        <set attributeName="fill" to="#808080" begin="arrowRight.mouseover" end="arrowRight.mouseout"/>
                  </use>
                  <path fill="none" stroke="white" stroke-width="1.5" d="M0,-3.0v7 M-2.5,-0.5L0,-3.0L2.5,-0.5"/>
                </g>
                <g id="arrowDown" xlink:href="#dirArrow" transform="rotate(180) translate(-30 -48)" onmousedown="handlePan(0,1)">
                  <use xlink:href="#rim" fill="#404040">
                        <set attributeName="fill" to="#808080" begin="arrowDown.mouseover" end="arrowDown.mouseout"/>
                  </use>
                  <path fill="none" stroke="white" stroke-width="1.5" d="M0,-3.0v7 M-2.5,-0.5L0,-3.0L2.5,-0.5"/>
                </g>
                <g id="arrowLeft" xlink:href="#dirArrow" transform="rotate(270) translate(-36 17)" onmousedown="handlePan(-1,0)">
                  <use xlink:href="#rim" fill="#404040">
                        <set attributeName="fill" to="#808080" begin="arrowLeft.mouseover" end="arrowLeft.mouseout"/>
                  </use>
                  <path fill="none" stroke="white" stroke-width="1.5" d="M0,-3.0v7 M-2.5,-0.5L0,-3.0L2.5,-0.5"/>
                </g>
        </g>
        <svg viewBox="0 0 15 15" width="100%" height="30px" preserveAspectRatio="xMaxYMin meet">
         <g id="arrow_out" transform="scale(0.3 0.3)">
          <a xlink:href="classnegCycleFinder__coll__graph_org.svg" target="_base">
           <rect id="button" ry="5" rx="5" y="6" x="6" height="38" width="38"
                fill="#f2f5e9" fill-opacity="0.5" stroke="#606060" stroke-width="1.0"/>
           <path id="arrow"
             d="M 11.500037,31.436501 C 11.940474,20.09759 22.043105,11.32322 32.158766,21.979434 L 37.068811,17.246167 C 37.068811,17.246167 37.088388,32 37.088388,32 L 22.160133,31.978069 C 22.160133,31.978069 26.997745,27.140456 26.997745,27.140456 C 18.528582,18.264221 13.291696,25.230495 11.500037,31.436501 z"
             style="fill:#404040;"/>
          </a>
         </g>
        </svg>
</svg>
