<?xml version="1.0" encoding="UTF-8" standalone="no"?>
<!DOCTYPE svg PUBLIC "-//W3C//DTD SVG 1.1//EN"
 "http://www.w3.org/Graphics/SVG/1.1/DTD/svg11.dtd">
<!-- Generated by graphviz version 2.40.1 (20161225.0304)
 -->
<!-- Title: lmi_oracle Pages: 1 -->
<svg width="274pt" height="303pt"
 viewBox="0.00 0.00 273.50 303.00" xmlns="http://www.w3.org/2000/svg" xmlns:xlink="http://www.w3.org/1999/xlink">
<g id="graph0" class="graph" transform="scale(1 1) rotate(0) translate(4 299)">
<title>lmi_oracle</title>
<polygon fill="#ffffff" stroke="transparent" points="-4,4 -4,-299 269.5,-299 269.5,4 -4,4"/>
<!-- Node1 -->
<g id="node1" class="node">
<title>Node1</title>
<polygon fill="#bfbfbf" stroke="#000000" points="80,-.5 80,-79.5 156,-79.5 156,-.5 80,-.5"/>
<text text-anchor="middle" x="118" y="-67.5" font-family="Helvetica,sans-Serif" font-size="10.00" fill="#000000">lmi_oracle</text>
<polyline fill="none" stroke="#000000" points="80,-60.5 156,-60.5 "/>
<text text-anchor="start" x="88" y="-48.5" font-family="Helvetica,sans-Serif" font-size="10.00" fill="#000000">&#45; _F0</text>
<polyline fill="none" stroke="#000000" points="80,-41.5 156,-41.5 "/>
<text text-anchor="start" x="88" y="-29.5" font-family="Helvetica,sans-Serif" font-size="10.00" fill="#000000">+ lmi_oracle()</text>
<text text-anchor="start" x="88" y="-18.5" font-family="Helvetica,sans-Serif" font-size="10.00" fill="#000000">+ lmi_oracle()</text>
<text text-anchor="start" x="88" y="-7.5" font-family="Helvetica,sans-Serif" font-size="10.00" fill="#000000">+ operator()()</text>
</g>
<!-- Node2 -->
<g id="node2" class="node">
<title>Node2</title>
<polygon fill="#ffffff" stroke="#bfbfbf" points="0,-182.5 0,-239.5 94,-239.5 94,-182.5 0,-182.5"/>
<text text-anchor="middle" x="47" y="-227.5" font-family="Helvetica,sans-Serif" font-size="10.00" fill="#000000">std::vector&lt; Arr &gt;</text>
<polyline fill="none" stroke="#bfbfbf" points="0,-220.5 94,-220.5 "/>
<text text-anchor="start" x="8" y="-208.5" font-family="Helvetica,sans-Serif" font-size="10.00" fill="#000000">+ elements</text>
<polyline fill="none" stroke="#bfbfbf" points="0,-201.5 94,-201.5 "/>
<text text-anchor="middle" x="47" y="-189.5" font-family="Helvetica,sans-Serif" font-size="10.00" fill="#000000"> </text>
</g>
<!-- Node2&#45;&gt;Node1 -->
<g id="edge1" class="edge">
<title>Node2&#45;&gt;Node1</title>
<path fill="none" stroke="#404040" d="M58.8838,-182.3784C69.2451,-157.4237 84.5187,-120.638 96.9452,-90.7093"/>
<polygon fill="none" stroke="#404040" points="96.9506,-90.6962 95.5572,-83.621 101.5523,-79.6136 102.9457,-86.6888 96.9506,-90.6962"/>
<text text-anchor="middle" x="103" y="-101" font-family="Helvetica,sans-Serif" font-size="10.00" fill="#000000"> &#45;_F</text>
</g>
<!-- Node3 -->
<g id="node3" class="node">
<title>Node3</title>
<g id="a_node3"><a xlink:href="classchol__ext.html" target="_top" xlink:title="Cholesky factorization. ">
<polygon fill="#ffffff" stroke="#000000" points="112.5,-127.5 112.5,-294.5 265.5,-294.5 265.5,-127.5 112.5,-127.5"/>
<text text-anchor="middle" x="189" y="-282.5" font-family="Helvetica,sans-Serif" font-size="10.00" fill="#000000">chol_ext&lt; Allow_semidefinite &gt;</text>
<polyline fill="none" stroke="#000000" points="112.5,-275.5 265.5,-275.5 "/>
<text text-anchor="start" x="120.5" y="-263.5" font-family="Helvetica,sans-Serif" font-size="10.00" fill="#000000">+ start</text>
<text text-anchor="start" x="120.5" y="-252.5" font-family="Helvetica,sans-Serif" font-size="10.00" fill="#000000">+ stop</text>
<text text-anchor="start" x="120.5" y="-241.5" font-family="Helvetica,sans-Serif" font-size="10.00" fill="#000000">+ v</text>
<text text-anchor="start" x="120.5" y="-230.5" font-family="Helvetica,sans-Serif" font-size="10.00" fill="#000000">&#45; n</text>
<text text-anchor="start" x="120.5" y="-219.5" font-family="Helvetica,sans-Serif" font-size="10.00" fill="#000000">&#45; T</text>
<polyline fill="none" stroke="#000000" points="112.5,-212.5 265.5,-212.5 "/>
<text text-anchor="start" x="120.5" y="-200.5" font-family="Helvetica,sans-Serif" font-size="10.00" fill="#000000">+ chol_ext()</text>
<text text-anchor="start" x="120.5" y="-189.5" font-family="Helvetica,sans-Serif" font-size="10.00" fill="#000000">+ factorize()</text>
<text text-anchor="start" x="120.5" y="-178.5" font-family="Helvetica,sans-Serif" font-size="10.00" fill="#000000">+ factor()</text>
<text text-anchor="start" x="120.5" y="-167.5" font-family="Helvetica,sans-Serif" font-size="10.00" fill="#000000">+ is_spd()</text>
<text text-anchor="start" x="120.5" y="-156.5" font-family="Helvetica,sans-Serif" font-size="10.00" fill="#000000">+ witness()</text>
<text text-anchor="start" x="120.5" y="-145.5" font-family="Helvetica,sans-Serif" font-size="10.00" fill="#000000">+ sym_quad()</text>
<text text-anchor="start" x="120.5" y="-134.5" font-family="Helvetica,sans-Serif" font-size="10.00" fill="#000000">+ sqrt()</text>
</a>
</g>
</g>
<!-- Node3&#45;&gt;Node1 -->
<g id="edge2" class="edge">
<title>Node3&#45;&gt;Node1</title>
<path fill="none" stroke="#404040" d="M154.228,-127.2533C149.0631,-114.8139 143.8776,-102.325 139.1092,-90.8404"/>
<polygon fill="none" stroke="#404040" points="139.0976,-90.8123 133.1025,-86.8048 134.4959,-79.7296 140.491,-83.7371 139.0976,-90.8123"/>
<text text-anchor="middle" x="155.5" y="-101" font-family="Helvetica,sans-Serif" font-size="10.00" fill="#000000"> &#45;_Q</text>
</g>
</g>
</svg>
