<?xml version="1.0" encoding="UTF-8" standalone="no"?>
<!DOCTYPE svg PUBLIC "-//W3C//DTD SVG 1.1//EN"
 "http://www.w3.org/Graphics/SVG/1.1/DTD/svg11.dtd">
<!-- Generated by graphviz version 2.40.1 (20161225.0304)
 -->
<!-- Title: py::dict&lt; Key, T &gt; Pages: 1 -->
<svg width="124pt" height="310pt"
 viewBox="0.00 0.00 123.50 310.00" xmlns="http://www.w3.org/2000/svg" xmlns:xlink="http://www.w3.org/1999/xlink">
<g id="graph0" class="graph" transform="scale(1 1) rotate(0) translate(4 306)">
<title>py::dict&lt; Key, T &gt;</title>
<polygon fill="#ffffff" stroke="transparent" points="-4,4 -4,-306 119.5,-306 119.5,4 -4,4"/>
<!-- Node2 -->
<g id="node1" class="node">
<title>Node2</title>
<polygon fill="#bfbfbf" stroke="#000000" points="3.5,-.5 3.5,-90.5 99.5,-90.5 99.5,-.5 3.5,-.5"/>
<text text-anchor="middle" x="51.5" y="-78.5" font-family="Helvetica,sans-Serif" font-size="10.00" fill="#000000">py::dict&lt; Key, T &gt;</text>
<polyline fill="none" stroke="#000000" points="3.5,-71.5 99.5,-71.5 "/>
<text text-anchor="middle" x="51.5" y="-59.5" font-family="Helvetica,sans-Serif" font-size="10.00" fill="#000000"> </text>
<polyline fill="none" stroke="#000000" points="3.5,-52.5 99.5,-52.5 "/>
<text text-anchor="start" x="11.5" y="-40.5" font-family="Helvetica,sans-Serif" font-size="10.00" fill="#000000">+ dict()</text>
<text text-anchor="start" x="11.5" y="-29.5" font-family="Helvetica,sans-Serif" font-size="10.00" fill="#000000">+ operator=()</text>
<text text-anchor="start" x="11.5" y="-18.5" font-family="Helvetica,sans-Serif" font-size="10.00" fill="#000000">+ dict()</text>
<text text-anchor="start" x="11.5" y="-7.5" font-family="Helvetica,sans-Serif" font-size="10.00" fill="#000000">&#45; dict()</text>
</g>
<!-- Node3 -->
<g id="node2" class="node">
<title>Node3</title>
<g id="a_node2"><a xlink:title="STL class. ">
<polygon fill="#ffffff" stroke="#bfbfbf" points="0,-128.5 0,-196.5 103,-196.5 103,-128.5 0,-128.5"/>
<text text-anchor="start" x="8" y="-184.5" font-family="Helvetica,sans-Serif" font-size="10.00" fill="#000000">std::unordered_map</text>
<text text-anchor="middle" x="51.5" y="-173.5" font-family="Helvetica,sans-Serif" font-size="10.00" fill="#000000">&lt; Key, T &gt;</text>
<polyline fill="none" stroke="#bfbfbf" points="0,-166.5 103,-166.5 "/>
<text text-anchor="middle" x="51.5" y="-154.5" font-family="Helvetica,sans-Serif" font-size="10.00" fill="#000000"> </text>
<polyline fill="none" stroke="#bfbfbf" points="0,-147.5 103,-147.5 "/>
<text text-anchor="middle" x="51.5" y="-135.5" font-family="Helvetica,sans-Serif" font-size="10.00" fill="#000000"> </text>
</a>
</g>
</g>
<!-- Node3&#45;&gt;Node2 -->
<g id="edge1" class="edge">
<title>Node3&#45;&gt;Node2</title>
<path fill="none" stroke="#191970" d="M51.5,-118.1185C51.5,-109.1783 51.5,-99.7704 51.5,-90.7993"/>
<polygon fill="none" stroke="#191970" points="48.0001,-118.3442 51.5,-128.3442 55.0001,-118.3443 48.0001,-118.3442"/>
</g>
<!-- Node4 -->
<g id="node3" class="node">
<title>Node4</title>
<polygon fill="#ffffff" stroke="#bfbfbf" points="10,-244.5 10,-301.5 39,-301.5 39,-244.5 10,-244.5"/>
<text text-anchor="middle" x="24.5" y="-289.5" font-family="Helvetica,sans-Serif" font-size="10.00" fill="#000000">K</text>
<polyline fill="none" stroke="#bfbfbf" points="10,-282.5 39,-282.5 "/>
<text text-anchor="middle" x="24.5" y="-270.5" font-family="Helvetica,sans-Serif" font-size="10.00" fill="#000000"> </text>
<polyline fill="none" stroke="#bfbfbf" points="10,-263.5 39,-263.5 "/>
<text text-anchor="middle" x="24.5" y="-251.5" font-family="Helvetica,sans-Serif" font-size="10.00" fill="#000000"> </text>
</g>
<!-- Node4&#45;&gt;Node3 -->
<g id="edge2" class="edge">
<title>Node4&#45;&gt;Node3</title>
<path fill="none" stroke="#404040" d="M22.5066,-244.3606C22.5039,-234.8992 23.2156,-224.3944 25.5,-215 26.0587,-212.7022 26.7305,-210.3887 27.49,-208.0814"/>
<polygon fill="none" stroke="#404040" points="27.5659,-207.8854 26.0051,-200.8452 31.9034,-196.6967 33.4642,-203.7369 27.5659,-207.8854"/>
<text text-anchor="middle" x="41" y="-218" font-family="Helvetica,sans-Serif" font-size="10.00" fill="#000000"> +keys</text>
</g>
<!-- Node5 -->
<g id="node4" class="node">
<title>Node5</title>
<polygon fill="#ffffff" stroke="#bfbfbf" points="64,-244.5 64,-301.5 93,-301.5 93,-244.5 64,-244.5"/>
<text text-anchor="middle" x="78.5" y="-289.5" font-family="Helvetica,sans-Serif" font-size="10.00" fill="#000000">T</text>
<polyline fill="none" stroke="#bfbfbf" points="64,-282.5 93,-282.5 "/>
<text text-anchor="middle" x="78.5" y="-270.5" font-family="Helvetica,sans-Serif" font-size="10.00" fill="#000000"> </text>
<polyline fill="none" stroke="#bfbfbf" points="64,-263.5 93,-263.5 "/>
<text text-anchor="middle" x="78.5" y="-251.5" font-family="Helvetica,sans-Serif" font-size="10.00" fill="#000000"> </text>
</g>
<!-- Node5&#45;&gt;Node3 -->
<g id="edge3" class="edge">
<title>Node5&#45;&gt;Node3</title>
<path fill="none" stroke="#404040" d="M71.4766,-244.2559C68.8047,-233.321 65.6892,-220.5708 62.7246,-208.4376"/>
<polygon fill="none" stroke="#404040" points="62.6805,-208.2571 57.3707,-203.3781 59.8321,-196.6001 65.142,-201.4791 62.6805,-208.2571"/>
<text text-anchor="middle" x="91" y="-218" font-family="Helvetica,sans-Serif" font-size="10.00" fill="#000000"> +elements</text>
</g>
</g>
</svg>
