<?xml version="1.0" encoding="UTF-8" standalone="no"?>
<!DOCTYPE svg PUBLIC "-//W3C//DTD SVG 1.1//EN"
 "http://www.w3.org/Graphics/SVG/1.1/DTD/svg11.dtd">
<!-- Generated by graphviz version 2.40.1 (20161225.0304)
 -->
<!-- Title: sdp_oracle Pages: 1 -->
<svg width="274pt" height="419pt"
 viewBox="0.00 0.00 273.50 419.00" xmlns="http://www.w3.org/2000/svg" xmlns:xlink="http://www.w3.org/1999/xlink">
<g id="graph0" class="graph" transform="scale(1 1) rotate(0) translate(4 415)">
<title>sdp_oracle</title>
<polygon fill="#ffffff" stroke="transparent" points="-4,4 -4,-415 269.5,-415 269.5,4 -4,4"/>
<!-- Node1 -->
<g id="node1" class="node">
<title>Node1</title>
<polygon fill="#bfbfbf" stroke="#000000" points="78.5,-.5 78.5,-68.5 157.5,-68.5 157.5,-.5 78.5,-.5"/>
<text text-anchor="middle" x="118" y="-56.5" font-family="Helvetica,sans-Serif" font-size="10.00" fill="#000000">sdp_oracle</text>
<polyline fill="none" stroke="#000000" points="78.5,-49.5 157.5,-49.5 "/>
<text text-anchor="start" x="86.5" y="-37.5" font-family="Helvetica,sans-Serif" font-size="10.00" fill="#000000">&#45; _c</text>
<polyline fill="none" stroke="#000000" points="78.5,-30.5 157.5,-30.5 "/>
<text text-anchor="start" x="86.5" y="-18.5" font-family="Helvetica,sans-Serif" font-size="10.00" fill="#000000">+ sdp_oracle()</text>
<text text-anchor="start" x="86.5" y="-7.5" font-family="Helvetica,sans-Serif" font-size="10.00" fill="#000000">+ operator()()</text>
</g>
<!-- Node2 -->
<g id="node2" class="node">
<title>Node2</title>
<g id="a_node2"><a xlink:href="classlmi__oracle.html" target="_top" xlink:title="Oracle for Linear Matrix Inequality. ">
<polygon fill="#ffffff" stroke="#000000" points="80,-116.5 80,-195.5 156,-195.5 156,-116.5 80,-116.5"/>
<text text-anchor="middle" x="118" y="-183.5" font-family="Helvetica,sans-Serif" font-size="10.00" fill="#000000">lmi_oracle</text>
<polyline fill="none" stroke="#000000" points="80,-176.5 156,-176.5 "/>
<text text-anchor="start" x="88" y="-164.5" font-family="Helvetica,sans-Serif" font-size="10.00" fill="#000000">&#45; _F0</text>
<polyline fill="none" stroke="#000000" points="80,-157.5 156,-157.5 "/>
<text text-anchor="start" x="88" y="-145.5" font-family="Helvetica,sans-Serif" font-size="10.00" fill="#000000">+ lmi_oracle()</text>
<text text-anchor="start" x="88" y="-134.5" font-family="Helvetica,sans-Serif" font-size="10.00" fill="#000000">+ lmi_oracle()</text>
<text text-anchor="start" x="88" y="-123.5" font-family="Helvetica,sans-Serif" font-size="10.00" fill="#000000">+ operator()()</text>
</a>
</g>
</g>
<!-- Node2&#45;&gt;Node1 -->
<g id="edge1" class="edge">
<title>Node2&#45;&gt;Node1</title>
<path fill="none" stroke="#404040" d="M118,-116.2164C118,-104.9333 118,-92.5504 118,-80.9121"/>
<polygon fill="none" stroke="#404040" points="118.0001,-80.6628 114,-74.6628 118,-68.6628 122,-74.6628 118.0001,-80.6628"/>
<text text-anchor="middle" x="130.5" y="-90" font-family="Helvetica,sans-Serif" font-size="10.00" fill="#000000"> &#45;_lmi</text>
</g>
<!-- Node3 -->
<g id="node3" class="node">
<title>Node3</title>
<polygon fill="#ffffff" stroke="#bfbfbf" points="0,-298.5 0,-355.5 94,-355.5 94,-298.5 0,-298.5"/>
<text text-anchor="middle" x="47" y="-343.5" font-family="Helvetica,sans-Serif" font-size="10.00" fill="#000000">std::vector&lt; Arr &gt;</text>
<polyline fill="none" stroke="#bfbfbf" points="0,-336.5 94,-336.5 "/>
<text text-anchor="start" x="8" y="-324.5" font-family="Helvetica,sans-Serif" font-size="10.00" fill="#000000">+ elements</text>
<polyline fill="none" stroke="#bfbfbf" points="0,-317.5 94,-317.5 "/>
<text text-anchor="middle" x="47" y="-305.5" font-family="Helvetica,sans-Serif" font-size="10.00" fill="#000000"> </text>
</g>
<!-- Node3&#45;&gt;Node2 -->
<g id="edge2" class="edge">
<title>Node3&#45;&gt;Node2</title>
<path fill="none" stroke="#404040" d="M58.8838,-298.3784C69.2451,-273.4237 84.5187,-236.638 96.9452,-206.7093"/>
<polygon fill="none" stroke="#404040" points="96.9506,-206.6962 95.5572,-199.621 101.5523,-195.6136 102.9457,-202.6888 96.9506,-206.6962"/>
<text text-anchor="middle" x="103" y="-217" font-family="Helvetica,sans-Serif" font-size="10.00" fill="#000000"> &#45;_F</text>
</g>
<!-- Node4 -->
<g id="node4" class="node">
<title>Node4</title>
<g id="a_node4"><a xlink:href="classchol__ext.html" target="_top" xlink:title="Cholesky factorization. ">
<polygon fill="#ffffff" stroke="#000000" points="112.5,-243.5 112.5,-410.5 265.5,-410.5 265.5,-243.5 112.5,-243.5"/>
<text text-anchor="middle" x="189" y="-398.5" font-family="Helvetica,sans-Serif" font-size="10.00" fill="#000000">chol_ext&lt; Allow_semidefinite &gt;</text>
<polyline fill="none" stroke="#000000" points="112.5,-391.5 265.5,-391.5 "/>
<text text-anchor="start" x="120.5" y="-379.5" font-family="Helvetica,sans-Serif" font-size="10.00" fill="#000000">+ start</text>
<text text-anchor="start" x="120.5" y="-368.5" font-family="Helvetica,sans-Serif" font-size="10.00" fill="#000000">+ stop</text>
<text text-anchor="start" x="120.5" y="-357.5" font-family="Helvetica,sans-Serif" font-size="10.00" fill="#000000">+ v</text>
<text text-anchor="start" x="120.5" y="-346.5" font-family="Helvetica,sans-Serif" font-size="10.00" fill="#000000">&#45; n</text>
<text text-anchor="start" x="120.5" y="-335.5" font-family="Helvetica,sans-Serif" font-size="10.00" fill="#000000">&#45; T</text>
<polyline fill="none" stroke="#000000" points="112.5,-328.5 265.5,-328.5 "/>
<text text-anchor="start" x="120.5" y="-316.5" font-family="Helvetica,sans-Serif" font-size="10.00" fill="#000000">+ chol_ext()</text>
<text text-anchor="start" x="120.5" y="-305.5" font-family="Helvetica,sans-Serif" font-size="10.00" fill="#000000">+ factorize()</text>
<text text-anchor="start" x="120.5" y="-294.5" font-family="Helvetica,sans-Serif" font-size="10.00" fill="#000000">+ factor()</text>
<text text-anchor="start" x="120.5" y="-283.5" font-family="Helvetica,sans-Serif" font-size="10.00" fill="#000000">+ is_spd()</text>
<text text-anchor="start" x="120.5" y="-272.5" font-family="Helvetica,sans-Serif" font-size="10.00" fill="#000000">+ witness()</text>
<text text-anchor="start" x="120.5" y="-261.5" font-family="Helvetica,sans-Serif" font-size="10.00" fill="#000000">+ sym_quad()</text>
<text text-anchor="start" x="120.5" y="-250.5" font-family="Helvetica,sans-Serif" font-size="10.00" fill="#000000">+ sqrt()</text>
</a>
</g>
</g>
<!-- Node4&#45;&gt;Node2 -->
<g id="edge3" class="edge">
<title>Node4&#45;&gt;Node2</title>
<path fill="none" stroke="#404040" d="M154.228,-243.2533C149.0631,-230.8139 143.8776,-218.325 139.1092,-206.8404"/>
<polygon fill="none" stroke="#404040" points="139.0976,-206.8123 133.1025,-202.8048 134.4959,-195.7296 140.491,-199.7371 139.0976,-206.8123"/>
<text text-anchor="middle" x="155.5" y="-217" font-family="Helvetica,sans-Serif" font-size="10.00" fill="#000000"> &#45;_Q</text>
</g>
</g>
</svg>
