<?xml version="1.0" encoding="UTF-8" standalone="no"?>
<!DOCTYPE svg PUBLIC "-//W3C//DTD SVG 1.1//EN"
 "http://www.w3.org/Graphics/SVG/1.1/DTD/svg11.dtd">
<!-- Generated by graphviz version 2.40.1 (20161225.0304)
 -->
<!-- Title: lsq_oracle Pages: 1 -->
<svg width="274pt" height="463pt"
 viewBox="0.00 0.00 273.50 463.00" xmlns="http://www.w3.org/2000/svg" xmlns:xlink="http://www.w3.org/1999/xlink">
<g id="graph0" class="graph" transform="scale(1 1) rotate(0) translate(4 459)">
<title>lsq_oracle</title>
<polygon fill="#ffffff" stroke="transparent" points="-4,4 -4,-459 269.5,-459 269.5,4 -4,4"/>
<!-- Node1 -->
<g id="node1" class="node">
<title>Node1</title>
<polygon fill="#bfbfbf" stroke="#000000" points="78,-.5 78,-68.5 154,-68.5 154,-.5 78,-.5"/>
<text text-anchor="middle" x="116" y="-56.5" font-family="Helvetica,sans-Serif" font-size="10.00" fill="#000000">lsq_oracle</text>
<polyline fill="none" stroke="#000000" points="78,-49.5 154,-49.5 "/>
<text text-anchor="middle" x="116" y="-37.5" font-family="Helvetica,sans-Serif" font-size="10.00" fill="#000000"> </text>
<polyline fill="none" stroke="#000000" points="78,-30.5 154,-30.5 "/>
<text text-anchor="start" x="86" y="-18.5" font-family="Helvetica,sans-Serif" font-size="10.00" fill="#000000">+ lsq_oracle()</text>
<text text-anchor="start" x="86" y="-7.5" font-family="Helvetica,sans-Serif" font-size="10.00" fill="#000000">+ operator()()</text>
</g>
<!-- Node2 -->
<g id="node2" class="node">
<title>Node2</title>
<g id="a_node2"><a xlink:href="classlmi0__oracle.html" target="_top" xlink:title="Oracle for Linear Matrix Inequality. ">
<polygon fill="#ffffff" stroke="#000000" points="27.5,-144 27.5,-212 108.5,-212 108.5,-144 27.5,-144"/>
<text text-anchor="middle" x="68" y="-200" font-family="Helvetica,sans-Serif" font-size="10.00" fill="#000000">lmi0_oracle</text>
<polyline fill="none" stroke="#000000" points="27.5,-193 108.5,-193 "/>
<text text-anchor="start" x="35.5" y="-181" font-family="Helvetica,sans-Serif" font-size="10.00" fill="#000000">&#45; _n</text>
<polyline fill="none" stroke="#000000" points="27.5,-174 108.5,-174 "/>
<text text-anchor="start" x="35.5" y="-162" font-family="Helvetica,sans-Serif" font-size="10.00" fill="#000000">+ lmi0_oracle()</text>
<text text-anchor="start" x="35.5" y="-151" font-family="Helvetica,sans-Serif" font-size="10.00" fill="#000000">+ operator()()</text>
</a>
</g>
</g>
<!-- Node2&#45;&gt;Node1 -->
<g id="edge1" class="edge">
<title>Node2&#45;&gt;Node1</title>
<path fill="none" stroke="#404040" d="M79.3753,-143.9925C85.7549,-124.9202 93.7982,-100.8741 100.721,-80.1778"/>
<polygon fill="none" stroke="#404040" points="100.7333,-80.1409 98.8432,-73.1819 104.54,-68.7607 106.43,-75.7197 100.7333,-80.1409"/>
<text text-anchor="middle" x="113" y="-90" font-family="Helvetica,sans-Serif" font-size="10.00" fill="#000000"> &#45;_lmi0</text>
</g>
<!-- Node3 -->
<g id="node3" class="node">
<title>Node3</title>
<polygon fill="#ffffff" stroke="#bfbfbf" points="0,-342.5 0,-399.5 94,-399.5 94,-342.5 0,-342.5"/>
<text text-anchor="middle" x="47" y="-387.5" font-family="Helvetica,sans-Serif" font-size="10.00" fill="#000000">std::vector&lt; Arr &gt;</text>
<polyline fill="none" stroke="#bfbfbf" points="0,-380.5 94,-380.5 "/>
<text text-anchor="start" x="8" y="-368.5" font-family="Helvetica,sans-Serif" font-size="10.00" fill="#000000">+ elements</text>
<polyline fill="none" stroke="#bfbfbf" points="0,-361.5 94,-361.5 "/>
<text text-anchor="middle" x="47" y="-349.5" font-family="Helvetica,sans-Serif" font-size="10.00" fill="#000000"> </text>
</g>
<!-- Node3&#45;&gt;Node2 -->
<g id="edge2" class="edge">
<title>Node3&#45;&gt;Node2</title>
<path fill="none" stroke="#404040" d="M50.0085,-342.1989C52.4063,-319.3602 55.8691,-286.6327 59,-258 60.1921,-247.0978 61.499,-235.3628 62.7383,-224.3297"/>
<polygon fill="none" stroke="#404040" points="62.7553,-224.1778 59.4524,-217.7676 64.0991,-212.2532 67.402,-218.6634 62.7553,-224.1778"/>
<text text-anchor="middle" x="68" y="-261" font-family="Helvetica,sans-Serif" font-size="10.00" fill="#000000"> &#45;_F</text>
</g>
<!-- Node5 -->
<g id="node5" class="node">
<title>Node5</title>
<g id="a_node5"><a xlink:href="classqmi__oracle.html" target="_top" xlink:title="Oracle for Quadratic Matrix Inequality. ">
<polygon fill="#ffffff" stroke="#000000" points="126.5,-116.5 126.5,-239.5 205.5,-239.5 205.5,-116.5 126.5,-116.5"/>
<text text-anchor="middle" x="166" y="-227.5" font-family="Helvetica,sans-Serif" font-size="10.00" fill="#000000">qmi_oracle</text>
<polyline fill="none" stroke="#000000" points="126.5,-220.5 205.5,-220.5 "/>
<text text-anchor="start" x="134.5" y="-208.5" font-family="Helvetica,sans-Serif" font-size="10.00" fill="#000000">&#45; _t</text>
<text text-anchor="start" x="134.5" y="-197.5" font-family="Helvetica,sans-Serif" font-size="10.00" fill="#000000">&#45; _nx</text>
<text text-anchor="start" x="134.5" y="-186.5" font-family="Helvetica,sans-Serif" font-size="10.00" fill="#000000">&#45; _count</text>
<text text-anchor="start" x="134.5" y="-175.5" font-family="Helvetica,sans-Serif" font-size="10.00" fill="#000000">&#45; _F0</text>
<text text-anchor="start" x="134.5" y="-164.5" font-family="Helvetica,sans-Serif" font-size="10.00" fill="#000000">&#45; _Fx</text>
<polyline fill="none" stroke="#000000" points="126.5,-157.5 205.5,-157.5 "/>
<text text-anchor="start" x="134.5" y="-145.5" font-family="Helvetica,sans-Serif" font-size="10.00" fill="#000000">+ qmi_oracle()</text>
<text text-anchor="start" x="134.5" y="-134.5" font-family="Helvetica,sans-Serif" font-size="10.00" fill="#000000">+ update()</text>
<text text-anchor="start" x="134.5" y="-123.5" font-family="Helvetica,sans-Serif" font-size="10.00" fill="#000000">+ operator()()</text>
</a>
</g>
</g>
<!-- Node3&#45;&gt;Node5 -->
<g id="edge5" class="edge">
<title>Node3&#45;&gt;Node5</title>
<path fill="none" stroke="#404040" d="M58.7472,-342.1141C68.8264,-318.6492 84.4699,-285.1187 102,-258 107.6533,-249.2545 110.4376,-248.0857 117,-240 117.5674,-239.3009 118.1379,-238.5969 118.7109,-237.8888"/>
<polygon fill="none" stroke="#404040" points="118.7395,-237.8532 119.3848,-230.671 126.2627,-228.5042 125.6175,-235.6864 118.7395,-237.8532"/>
<text text-anchor="middle" x="111" y="-261" font-family="Helvetica,sans-Serif" font-size="10.00" fill="#000000"> &#45;_F</text>
</g>
<!-- Node4 -->
<g id="node4" class="node">
<title>Node4</title>
<g id="a_node4"><a xlink:href="classchol__ext.html" target="_top" xlink:title="Cholesky factorization. ">
<polygon fill="#ffffff" stroke="#000000" points="112.5,-287.5 112.5,-454.5 265.5,-454.5 265.5,-287.5 112.5,-287.5"/>
<text text-anchor="middle" x="189" y="-442.5" font-family="Helvetica,sans-Serif" font-size="10.00" fill="#000000">chol_ext&lt; Allow_semidefinite &gt;</text>
<polyline fill="none" stroke="#000000" points="112.5,-435.5 265.5,-435.5 "/>
<text text-anchor="start" x="120.5" y="-423.5" font-family="Helvetica,sans-Serif" font-size="10.00" fill="#000000">+ start</text>
<text text-anchor="start" x="120.5" y="-412.5" font-family="Helvetica,sans-Serif" font-size="10.00" fill="#000000">+ stop</text>
<text text-anchor="start" x="120.5" y="-401.5" font-family="Helvetica,sans-Serif" font-size="10.00" fill="#000000">+ v</text>
<text text-anchor="start" x="120.5" y="-390.5" font-family="Helvetica,sans-Serif" font-size="10.00" fill="#000000">&#45; n</text>
<text text-anchor="start" x="120.5" y="-379.5" font-family="Helvetica,sans-Serif" font-size="10.00" fill="#000000">&#45; T</text>
<polyline fill="none" stroke="#000000" points="112.5,-372.5 265.5,-372.5 "/>
<text text-anchor="start" x="120.5" y="-360.5" font-family="Helvetica,sans-Serif" font-size="10.00" fill="#000000">+ chol_ext()</text>
<text text-anchor="start" x="120.5" y="-349.5" font-family="Helvetica,sans-Serif" font-size="10.00" fill="#000000">+ factorize()</text>
<text text-anchor="start" x="120.5" y="-338.5" font-family="Helvetica,sans-Serif" font-size="10.00" fill="#000000">+ factor()</text>
<text text-anchor="start" x="120.5" y="-327.5" font-family="Helvetica,sans-Serif" font-size="10.00" fill="#000000">+ is_spd()</text>
<text text-anchor="start" x="120.5" y="-316.5" font-family="Helvetica,sans-Serif" font-size="10.00" fill="#000000">+ witness()</text>
<text text-anchor="start" x="120.5" y="-305.5" font-family="Helvetica,sans-Serif" font-size="10.00" fill="#000000">+ sym_quad()</text>
<text text-anchor="start" x="120.5" y="-294.5" font-family="Helvetica,sans-Serif" font-size="10.00" fill="#000000">+ sqrt()</text>
</a>
</g>
</g>
<!-- Node4&#45;&gt;Node2 -->
<g id="edge3" class="edge">
<title>Node4&#45;&gt;Node2</title>
<path fill="none" stroke="#404040" d="M138.2055,-287.2207C132.1114,-277.3459 125.9434,-267.4319 120,-258 112.6977,-246.4116 104.6877,-233.963 97.1888,-222.4189"/>
<polygon fill="none" stroke="#404040" points="97.0311,-222.1768 90.4045,-219.3329 90.4809,-212.1222 97.1075,-214.9661 97.0311,-222.1768"/>
<text text-anchor="middle" x="137" y="-261" font-family="Helvetica,sans-Serif" font-size="10.00" fill="#000000"> +_Q</text>
</g>
<!-- Node4&#45;&gt;Node5 -->
<g id="edge6" class="edge">
<title>Node4&#45;&gt;Node5</title>
<path fill="none" stroke="#404040" d="M179.0456,-287.4699C177.622,-275.5233 176.1661,-263.3067 174.7675,-251.5704"/>
<polygon fill="none" stroke="#404040" points="174.7545,-251.4609 170.0725,-245.9764 173.3344,-239.5452 178.0163,-245.0297 174.7545,-251.4609"/>
<text text-anchor="middle" x="188" y="-261" font-family="Helvetica,sans-Serif" font-size="10.00" fill="#000000"> +_Q</text>
</g>
<!-- Node5&#45;&gt;Node1 -->
<g id="edge4" class="edge">
<title>Node5&#45;&gt;Node1</title>
<path fill="none" stroke="#404040" d="M144.5053,-116.3103C140.3014,-104.2451 135.9626,-91.7928 131.9772,-80.3545"/>
<polygon fill="none" stroke="#404040" points="131.9207,-80.1923 126.1692,-75.8425 127.9723,-68.8604 133.7238,-73.2102 131.9207,-80.1923"/>
<text text-anchor="middle" x="153" y="-90" font-family="Helvetica,sans-Serif" font-size="10.00" fill="#000000"> &#45;_qmi</text>
</g>
</g>
</svg>
