<?xml version="1.0" encoding="UTF-8" standalone="no"?>
<!DOCTYPE svg PUBLIC "-//W3C//DTD SVG 1.1//EN"
 "http://www.w3.org/Graphics/SVG/1.1/DTD/svg11.dtd">
<!-- Generated by graphviz version 2.40.1 (20161225.0304)
 -->
<!-- Title: TEST_CASE Pages: 1 -->
<svg width="220pt" height="66pt"
 viewBox="0.00 0.00 220.00 66.00" xmlns="http://www.w3.org/2000/svg" xmlns:xlink="http://www.w3.org/1999/xlink">
<g id="graph0" class="graph" transform="scale(1 1) rotate(0) translate(4 62)">
<title>TEST_CASE</title>
<polygon fill="#ffffff" stroke="transparent" points="-4,4 -4,-62 216,-62 216,4 -4,4"/>
<!-- Node18 -->
<g id="node1" class="node">
<title>Node18</title>
<polygon fill="#bfbfbf" stroke="#000000" points="0,-19.5 0,-38.5 75,-38.5 75,-19.5 0,-19.5"/>
<text text-anchor="middle" x="37.5" y="-26.5" font-family="Helvetica,sans-Serif" font-size="10.00" fill="#000000">TEST_CASE</text>
</g>
<!-- Node19 -->
<g id="node2" class="node">
<title>Node19</title>
<g id="a_node2"><a xlink:href="lowpass_8cpp.html#ae14026c2108d6f1ac1b5f2762b0a9fd3" target="_top" xlink:title="CHECK">
<polygon fill="#ffffff" stroke="#000000" points="135,-38.5 135,-57.5 188,-57.5 188,-38.5 135,-38.5"/>
<text text-anchor="middle" x="161.5" y="-45.5" font-family="Helvetica,sans-Serif" font-size="10.00" fill="#000000">CHECK</text>
</a>
</g>
</g>
<!-- Node18&#45;&gt;Node19 -->
<g id="edge1" class="edge">
<title>Node18&#45;&gt;Node19</title>
<path fill="none" stroke="#191970" d="M75.0406,-34.7522C90.6781,-37.1483 108.7878,-39.9231 124.3805,-42.3123"/>
<polygon fill="#191970" stroke="#191970" points="124.2972,-45.8403 134.7119,-43.8954 125.3574,-38.9211 124.2972,-45.8403"/>
</g>
<!-- Node20 -->
<g id="node3" class="node">
<title>Node20</title>
<g id="a_node3"><a xlink:href="corr__fn__ell_8cpp.html#a7d62bff66d1dde48e0aec60263abb62d" target="_top" xlink:title="Create a 2d isotropic example. ">
<polygon fill="#ffffff" stroke="#000000" points="111,-.5 111,-19.5 212,-19.5 212,-.5 111,-.5"/>
<text text-anchor="middle" x="161.5" y="-7.5" font-family="Helvetica,sans-Serif" font-size="10.00" fill="#000000">create_2d_isotropic</text>
</a>
</g>
</g>
<!-- Node18&#45;&gt;Node20 -->
<g id="edge2" class="edge">
<title>Node18&#45;&gt;Node20</title>
<path fill="none" stroke="#191970" d="M75.0406,-23.2478C83.2236,-21.994 92.0835,-20.6364 100.9055,-19.2846"/>
<polygon fill="#191970" stroke="#191970" points="101.457,-22.7411 110.8115,-17.7668 100.3968,-15.8218 101.457,-22.7411"/>
</g>
</g>
</svg>
