<?xml version="1.0" encoding="UTF-8" standalone="no"?>
<!DOCTYPE svg PUBLIC "-//W3C//DTD SVG 1.1//EN"
 "http://www.w3.org/Graphics/SVG/1.1/DTD/svg11.dtd">
<!-- Generated by graphviz version 2.40.1 (20161225.0304)
 -->
<!-- Title: TEST_CASE Pages: 1 -->
<svg width="481pt" height="126pt"
 viewBox="0.00 0.00 481.00 126.00" xmlns="http://www.w3.org/2000/svg" xmlns:xlink="http://www.w3.org/1999/xlink">
<g id="graph0" class="graph" transform="scale(1 1) rotate(0) translate(4 122)">
<title>TEST_CASE</title>
<polygon fill="#ffffff" stroke="transparent" points="-4,4 -4,-122 477,-122 477,4 -4,4"/>
<!-- Node33 -->
<g id="node1" class="node">
<title>Node33</title>
<polygon fill="#bfbfbf" stroke="#000000" points="0,-60.5 0,-79.5 75,-79.5 75,-60.5 0,-60.5"/>
<text text-anchor="middle" x="37.5" y="-67.5" font-family="Helvetica,sans-Serif" font-size="10.00" fill="#000000">TEST_CASE</text>
</g>
<!-- Node34 -->
<g id="node2" class="node">
<title>Node34</title>
<g id="a_node2"><a xlink:href="lowpass_8cpp.html#ae14026c2108d6f1ac1b5f2762b0a9fd3" target="_top" xlink:title="CHECK">
<polygon fill="#ffffff" stroke="#000000" points="135,-98.5 135,-117.5 188,-117.5 188,-98.5 135,-98.5"/>
<text text-anchor="middle" x="161.5" y="-105.5" font-family="Helvetica,sans-Serif" font-size="10.00" fill="#000000">CHECK</text>
</a>
</g>
</g>
<!-- Node33&#45;&gt;Node34 -->
<g id="edge1" class="edge">
<title>Node33&#45;&gt;Node34</title>
<path fill="none" stroke="#191970" d="M68.7904,-79.589C85.903,-84.8332 107.1913,-91.357 125.0511,-96.8302"/>
<polygon fill="#191970" stroke="#191970" points="124.2551,-100.2468 134.8418,-99.8305 126.3062,-93.5541 124.2551,-100.2468"/>
</g>
<!-- Node35 -->
<g id="node3" class="node">
<title>Node35</title>
<g id="a_node3"><a xlink:href="corr__fn__ell_8cpp.html#a7d62bff66d1dde48e0aec60263abb62d" target="_top" xlink:title="Create a 2d isotropic example. ">
<polygon fill="#ffffff" stroke="#000000" points="111,-60.5 111,-79.5 212,-79.5 212,-60.5 111,-60.5"/>
<text text-anchor="middle" x="161.5" y="-67.5" font-family="Helvetica,sans-Serif" font-size="10.00" fill="#000000">create_2d_isotropic</text>
</a>
</g>
</g>
<!-- Node33&#45;&gt;Node35 -->
<g id="edge2" class="edge">
<title>Node33&#45;&gt;Node35</title>
<path fill="none" stroke="#191970" d="M75.0406,-70C83.1356,-70 91.893,-70 100.6209,-70"/>
<polygon fill="#191970" stroke="#191970" points="100.8116,-73.5001 110.8115,-70 100.8115,-66.5001 100.8116,-73.5001"/>
</g>
<!-- Node36 -->
<g id="node4" class="node">
<title>Node36</title>
<g id="a_node4"><a xlink:href="corr__fn__ell_8cpp.html#a9e5efad6beca8165ad8e5b2acf9de4fb" target="_top" xlink:title="mle_corr_poly">
<polygon fill="#ffffff" stroke="#000000" points="123,-22.5 123,-41.5 200,-41.5 200,-22.5 123,-22.5"/>
<text text-anchor="middle" x="161.5" y="-29.5" font-family="Helvetica,sans-Serif" font-size="10.00" fill="#000000">mle_corr_poly</text>
</a>
</g>
</g>
<!-- Node33&#45;&gt;Node36 -->
<g id="edge3" class="edge">
<title>Node33&#45;&gt;Node36</title>
<path fill="none" stroke="#191970" d="M68.7904,-60.411C84.5039,-55.5956 103.7383,-49.7012 120.6061,-44.532"/>
<polygon fill="#191970" stroke="#191970" points="121.684,-47.8624 130.2196,-41.5859 119.6329,-41.1696 121.684,-47.8624"/>
</g>
<!-- Node37 -->
<g id="node5" class="node">
<title>Node37</title>
<g id="a_node5"><a xlink:href="lsq__corr__ell_8cpp.html#a4d667b17719ba6e7ba0395b38fd4cbaa" target="_top" xlink:title="construct_distance\l_matrix">
<polygon fill="#ffffff" stroke="#000000" points="248,-39 248,-69 347,-69 347,-39 248,-39"/>
<text text-anchor="start" x="256" y="-57" font-family="Helvetica,sans-Serif" font-size="10.00" fill="#000000">construct_distance</text>
<text text-anchor="middle" x="297.5" y="-46" font-family="Helvetica,sans-Serif" font-size="10.00" fill="#000000">_matrix</text>
</a>
</g>
</g>
<!-- Node36&#45;&gt;Node37 -->
<g id="edge4" class="edge">
<title>Node36&#45;&gt;Node37</title>
<path fill="none" stroke="#191970" d="M200.1084,-38.2455C211.7579,-40.1299 224.8325,-42.245 237.5284,-44.2987"/>
<polygon fill="#191970" stroke="#191970" points="237.1641,-47.7852 247.5947,-45.9271 238.282,-40.875 237.1641,-47.7852"/>
</g>
<!-- Node38 -->
<g id="node6" class="node">
<title>Node38</title>
<g id="a_node6"><a xlink:href="lsq__corr__ell_8cpp.html#ae00a636ce94e61bb17c1f7241804ce9f" target="_top" xlink:title="mle_corr_core">
<polygon fill="#ffffff" stroke="#000000" points="258.5,-.5 258.5,-19.5 336.5,-19.5 336.5,-.5 258.5,-.5"/>
<text text-anchor="middle" x="297.5" y="-7.5" font-family="Helvetica,sans-Serif" font-size="10.00" fill="#000000">mle_corr_core</text>
</a>
</g>
</g>
<!-- Node36&#45;&gt;Node38 -->
<g id="edge5" class="edge">
<title>Node36&#45;&gt;Node38</title>
<path fill="none" stroke="#191970" d="M200.1084,-25.7545C215.0537,-23.3369 232.3445,-20.5399 248.1723,-17.9795"/>
<polygon fill="#191970" stroke="#191970" points="249.0101,-21.3895 258.3228,-16.3375 247.8922,-14.4794 249.0101,-21.3895"/>
</g>
<!-- Node39 -->
<g id="node7" class="node">
<title>Node39</title>
<g id="a_node7"><a xlink:href="cutting__plane_8hpp.html#af4c62406049b0dac9f9f8733fa2ad6af" target="_top" xlink:title="Cutting&#45;plane method for solving convex problem. ">
<polygon fill="#ffffff" stroke="#000000" points="383,-.5 383,-19.5 473,-19.5 473,-.5 383,-.5"/>
<text text-anchor="middle" x="428" y="-7.5" font-family="Helvetica,sans-Serif" font-size="10.00" fill="#000000">cutting_plane_dc</text>
</a>
</g>
</g>
<!-- Node38&#45;&gt;Node39 -->
<g id="edge6" class="edge">
<title>Node38&#45;&gt;Node39</title>
<path fill="none" stroke="#191970" d="M336.6543,-10C348.0332,-10 360.6798,-10 372.8464,-10"/>
<polygon fill="#191970" stroke="#191970" points="372.9152,-13.5001 382.9151,-10 372.9151,-6.5001 372.9152,-13.5001"/>
</g>
</g>
</svg>
