<?xml version="1.0" encoding="UTF-8" standalone="no"?>
<!DOCTYPE svg PUBLIC "-//W3C//DTD SVG 1.1//EN"
 "http://www.w3.org/Graphics/SVG/1.1/DTD/svg11.dtd">
<!-- Generated by graphviz version 2.40.1 (20161225.0304)
 -->
<!-- Title: lib/src/lmi0_oracle.cpp Pages: 1 -->
<svg width="251pt" height="207pt"
 viewBox="0.00 0.00 250.50 207.00" xmlns="http://www.w3.org/2000/svg" xmlns:xlink="http://www.w3.org/1999/xlink">
<g id="graph0" class="graph" transform="scale(1 1) rotate(0) translate(4 203)">
<title>lib/src/lmi0_oracle.cpp</title>
<polygon fill="#ffffff" stroke="transparent" points="-4,4 -4,-203 246.5,-203 246.5,4 -4,4"/>
<!-- Node0 -->
<g id="node1" class="node">
<title>Node0</title>
<polygon fill="#bfbfbf" stroke="#000000" points="40,-179.5 40,-198.5 154,-198.5 154,-179.5 40,-179.5"/>
<text text-anchor="middle" x="97" y="-186.5" font-family="Helvetica,sans-Serif" font-size="10.00" fill="#000000">lib/src/lmi0_oracle.cpp</text>
</g>
<!-- Node1 -->
<g id="node2" class="node">
<title>Node1</title>
<g id="a_node2"><a xlink:href="lmi0__oracle_8hpp.html" target="_top" xlink:title="ellcpp/oracles/lmi0\l_oracle.hpp">
<polygon fill="#ffffff" stroke="#000000" points="48,-112.5 48,-142.5 146,-142.5 146,-112.5 48,-112.5"/>
<text text-anchor="start" x="56" y="-130.5" font-family="Helvetica,sans-Serif" font-size="10.00" fill="#000000">ellcpp/oracles/lmi0</text>
<text text-anchor="middle" x="97" y="-119.5" font-family="Helvetica,sans-Serif" font-size="10.00" fill="#000000">_oracle.hpp</text>
</a>
</g>
</g>
<!-- Node0&#45;&gt;Node1 -->
<g id="edge1" class="edge">
<title>Node0&#45;&gt;Node1</title>
<path fill="none" stroke="#191970" d="M97,-179.3906C97,-172.2234 97,-162.0862 97,-152.671"/>
<polygon fill="#191970" stroke="#191970" points="100.5001,-152.5446 97,-142.5446 93.5001,-152.5446 100.5001,-152.5446"/>
</g>
<!-- Node2 -->
<g id="node3" class="node">
<title>Node2</title>
<polygon fill="#ffffff" stroke="#bfbfbf" points="0,-.5 0,-19.5 98,-19.5 98,-.5 0,-.5"/>
<text text-anchor="middle" x="49" y="-7.5" font-family="Helvetica,sans-Serif" font-size="10.00" fill="#000000">xtensor/xarray.hpp</text>
</g>
<!-- Node1&#45;&gt;Node2 -->
<g id="edge2" class="edge">
<title>Node1&#45;&gt;Node2</title>
<path fill="none" stroke="#191970" d="M90.7248,-112.1389C81.9982,-90.7768 66.2074,-52.1224 56.7543,-28.982"/>
<polygon fill="#191970" stroke="#191970" points="59.927,-27.4932 52.9051,-19.5595 53.4469,-30.1405 59.927,-27.4932"/>
</g>
<!-- Node3 -->
<g id="node4" class="node">
<title>Node3</title>
<g id="a_node4"><a xlink:href="chol__ext_8hpp.html" target="_top" xlink:title="chol_ext.hpp">
<polygon fill="#ffffff" stroke="#000000" points="101,-56.5 101,-75.5 173,-75.5 173,-56.5 101,-56.5"/>
<text text-anchor="middle" x="137" y="-63.5" font-family="Helvetica,sans-Serif" font-size="10.00" fill="#000000">chol_ext.hpp</text>
</a>
</g>
</g>
<!-- Node1&#45;&gt;Node3 -->
<g id="edge3" class="edge">
<title>Node1&#45;&gt;Node3</title>
<path fill="none" stroke="#191970" d="M106.8876,-112.2977C112.3822,-103.8498 119.2586,-93.2773 125.0527,-84.369"/>
<polygon fill="#191970" stroke="#191970" points="128.0772,-86.1381 130.5955,-75.8469 122.2092,-82.3215 128.0772,-86.1381"/>
</g>
<!-- Node3&#45;&gt;Node2 -->
<g id="edge6" class="edge">
<title>Node3&#45;&gt;Node2</title>
<path fill="none" stroke="#191970" d="M121.6716,-56.2455C108.1697,-47.6534 88.2878,-35.0014 72.7314,-25.1018"/>
<polygon fill="#191970" stroke="#191970" points="74.4685,-22.0587 64.1528,-19.6427 70.7103,-27.9643 74.4685,-22.0587"/>
</g>
<!-- Node4 -->
<g id="node5" class="node">
<title>Node4</title>
<polygon fill="#ffffff" stroke="#bfbfbf" points="116.5,-.5 116.5,-19.5 175.5,-19.5 175.5,-.5 116.5,-.5"/>
<text text-anchor="middle" x="146" y="-7.5" font-family="Helvetica,sans-Serif" font-size="10.00" fill="#000000">stdexcept</text>
</g>
<!-- Node3&#45;&gt;Node4 -->
<g id="edge4" class="edge">
<title>Node3&#45;&gt;Node4</title>
<path fill="none" stroke="#191970" d="M138.5677,-56.2455C139.7421,-48.9382 141.3884,-38.6944 142.8332,-29.7046"/>
<polygon fill="#191970" stroke="#191970" points="146.3191,-30.0714 144.4503,-19.6427 139.4078,-28.9606 146.3191,-30.0714"/>
</g>
<!-- Node5 -->
<g id="node6" class="node">
<title>Node5</title>
<polygon fill="#ffffff" stroke="#bfbfbf" points="193.5,-.5 193.5,-19.5 242.5,-19.5 242.5,-.5 193.5,-.5"/>
<text text-anchor="middle" x="218" y="-7.5" font-family="Helvetica,sans-Serif" font-size="10.00" fill="#000000">cassert</text>
</g>
<!-- Node3&#45;&gt;Node5 -->
<g id="edge5" class="edge">
<title>Node3&#45;&gt;Node5</title>
<path fill="none" stroke="#191970" d="M151.1091,-56.2455C163.4209,-47.7337 181.4958,-35.2375 195.7538,-25.3801"/>
<polygon fill="#191970" stroke="#191970" points="197.8174,-28.2085 204.0526,-19.6427 193.8366,-22.4506 197.8174,-28.2085"/>
</g>
</g>
</svg>
