<?xml version="1.0" encoding="UTF-8" standalone="no"?>
<!DOCTYPE svg PUBLIC "-//W3C//DTD SVG 1.1//EN"
 "http://www.w3.org/Graphics/SVG/1.1/DTD/svg11.dtd">
<!-- Generated by graphviz version 2.40.1 (20161225.0304)
 -->
<!-- Title: lib/src/lsq_corr_ell.cpp Pages: 1 -->
<!--zoomable 207 -->
<svg id="main" version="1.1" xmlns="http://www.w3.org/2000/svg" xmlns:xlink="http://www.w3.org/1999/xlink" xml:space="preserve" onload="init(evt)">
<style type="text/css"><![CDATA[
.edge:hover path { stroke: red; }
.edge:hover polygon { stroke: red; fill: red; }
]]></style>
<script type="text/javascript"><![CDATA[
var edges = document.getElementsByTagName('g');
if (edges && edges.length) {
  for (var i=0;i<edges.length;i++) {
    if (edges[i].id.substr(0,4)=='edge') {
      edges[i].setAttribute('class','edge');
    }
  }
}
]]></script>
        <defs>
                <circle id="rim" cx="0" cy="0" r="7"/>
                <circle id="rim2" cx="0" cy="0" r="3.5"/>
                <g id="zoomPlus">
                        <use xlink:href="#rim" fill="#404040">
                                <set attributeName="fill" to="#808080" begin="zoomplus.mouseover" end="zoomplus.mouseout"/>
                        </use>
                        <path d="M-4,0h8M0,-4v8" fill="none" stroke="white" stroke-width="1.5" pointer-events="none"/>
                </g>
                <g id="zoomMin">
                        <use xlink:href="#rim" fill="#404040">
                                <set attributeName="fill" to="#808080" begin="zoomminus.mouseover" end="zoomminus.mouseout"/>
                        </use>
                        <path d="M-4,0h8" fill="none" stroke="white" stroke-width="1.5" pointer-events="none"/>
                </g>
                <g id="dirArrow">
                        <path fill="none" stroke="white" stroke-width="1.5" d="M0,-3.0v7 M-2.5,-0.5L0,-3.0L2.5,-0.5"/>
                </g>
               <g id="resetDef">
                       <use xlink:href="#rim2" fill="#404040">
                               <set attributeName="fill" to="#808080" begin="reset.mouseover" end="reset.mouseout"/>
                       </use>
               </g>
        </defs>

<script type="text/javascript">
var viewWidth = 1192;
var viewHeight = 207;
var sectionId = 'dynsection-0';
</script>
<script xlink:href="svgpan.js"/>
<svg id="graph" class="graph">
<g id="viewport">
<title>lib/src/lsq_corr_ell.cpp</title>
<polygon fill="#ffffff" stroke="transparent" points="-4,4 -4,-203 1188,-203 1188,4 -4,4"/>
<!-- Node0 -->
<g id="node1" class="node">
<title>Node0</title>
<polygon fill="#bfbfbf" stroke="#000000" points="487,-179.5 487,-198.5 601,-198.5 601,-179.5 487,-179.5"/>
<text text-anchor="middle" x="544" y="-186.5" font-family="Helvetica,sans-Serif" font-size="10.00" fill="#000000">lib/src/lsq_corr_ell.cpp</text>
</g>
<!-- Node1 -->
<g id="node2" class="node">
<title>Node1</title>
<g id="a_node2"><a xlink:href="cutting__plane_8hpp.html" target="_top" xlink:title="ellcpp/cutting_plane.hpp">
<polygon fill="#ffffff" stroke="#000000" points="0,-118 0,-137 122,-137 122,-118 0,-118"/>
<text text-anchor="middle" x="61" y="-125" font-family="Helvetica,sans-Serif" font-size="10.00" fill="#000000">ellcpp/cutting_plane.hpp</text>
</a>
</g>
</g>
<!-- Node0&#45;&gt;Node1 -->
<g id="edge1" class="edge">
<title>Node0&#45;&gt;Node1</title>
<path fill="none" stroke="#191970" d="M486.6792,-184.2049C407.525,-177.2043 260.4211,-162.8281 136,-143 128.7783,-141.8491 121.1979,-140.4773 113.7462,-139.0327"/>
<polygon fill="#191970" stroke="#191970" points="114.2017,-135.5547 103.7103,-137.0314 112.8327,-142.4195 114.2017,-135.5547"/>
</g>
<!-- Node3 -->
<g id="node4" class="node">
<title>Node3</title>
<polygon fill="#ffffff" stroke="#bfbfbf" points="151,-56.5 151,-75.5 189,-75.5 189,-56.5 151,-56.5"/>
<text text-anchor="middle" x="170" y="-63.5" font-family="Helvetica,sans-Serif" font-size="10.00" fill="#000000">tuple</text>
</g>
<!-- Node0&#45;&gt;Node3 -->
<g id="edge25" class="edge">
<title>Node0&#45;&gt;Node3</title>
<path fill="none" stroke="#191970" d="M486.9806,-186.1015C387.2473,-180.4439 189.7005,-166.3949 169,-143 155.2806,-127.4948 158.5254,-102.572 163.2307,-85.2991"/>
<polygon fill="#191970" stroke="#191970" points="166.593,-86.2734 166.2106,-75.6855 159.9068,-84.2009 166.593,-86.2734"/>
</g>
<!-- Node5 -->
<g id="node6" class="node">
<title>Node5</title>
<g id="a_node6"><a xlink:href="ell_8hpp.html" target="_top" xlink:title="ellcpp/ell.hpp">
<polygon fill="#ffffff" stroke="#000000" points="178,-118 178,-137 252,-137 252,-118 178,-118"/>
<text text-anchor="middle" x="215" y="-125" font-family="Helvetica,sans-Serif" font-size="10.00" fill="#000000">ellcpp/ell.hpp</text>
</a>
</g>
</g>
<!-- Node0&#45;&gt;Node5 -->
<g id="edge5" class="edge">
<title>Node0&#45;&gt;Node5</title>
<path fill="none" stroke="#191970" d="M486.7986,-182.4984C429.238,-175.3042 338.1808,-162.1389 261,-143 257.6259,-142.1633 254.1449,-141.1938 250.6789,-140.1561"/>
<polygon fill="#191970" stroke="#191970" points="251.6425,-136.7899 241.0524,-137.1042 249.527,-143.4626 251.6425,-136.7899"/>
</g>
<!-- Node6 -->
<g id="node7" class="node">
<title>Node6</title>
<g id="a_node7"><a xlink:href="lmi0__oracle_8hpp.html" target="_top" xlink:title="ellcpp/oracles/lmi0\l_oracle.hpp">
<polygon fill="#ffffff" stroke="#000000" points="270,-112.5 270,-142.5 368,-142.5 368,-112.5 270,-112.5"/>
<text text-anchor="start" x="278" y="-130.5" font-family="Helvetica,sans-Serif" font-size="10.00" fill="#000000">ellcpp/oracles/lmi0</text>
<text text-anchor="middle" x="319" y="-119.5" font-family="Helvetica,sans-Serif" font-size="10.00" fill="#000000">_oracle.hpp</text>
</a>
</g>
</g>
<!-- Node0&#45;&gt;Node6 -->
<g id="edge9" class="edge">
<title>Node0&#45;&gt;Node6</title>
<path fill="none" stroke="#191970" d="M508.8438,-179.3906C473.8303,-169.8203 419.4439,-154.9547 377.8417,-143.5834"/>
<polygon fill="#191970" stroke="#191970" points="378.6682,-140.181 368.0992,-140.9204 376.8225,-146.9333 378.6682,-140.181"/>
</g>
<!-- Node10 -->
<g id="node11" class="node">
<title>Node10</title>
<g id="a_node11"><a xlink:href="lmi__oracle_8hpp.html" target="_top" xlink:title="ellcpp/oracles/lmi\l_oracle.hpp">
<polygon fill="#ffffff" stroke="#000000" points="386,-112.5 386,-142.5 478,-142.5 478,-112.5 386,-112.5"/>
<text text-anchor="start" x="394" y="-130.5" font-family="Helvetica,sans-Serif" font-size="10.00" fill="#000000">ellcpp/oracles/lmi</text>
<text text-anchor="middle" x="432" y="-119.5" font-family="Helvetica,sans-Serif" font-size="10.00" fill="#000000">_oracle.hpp</text>
</a>
</g>
</g>
<!-- Node0&#45;&gt;Node10 -->
<g id="edge15" class="edge">
<title>Node0&#45;&gt;Node10</title>
<path fill="none" stroke="#191970" d="M526.5,-179.3906C510.9913,-170.8747 487.847,-158.166 468.3451,-147.4573"/>
<polygon fill="#191970" stroke="#191970" points="469.8484,-144.2899 459.3983,-142.5446 466.4791,-150.4257 469.8484,-144.2899"/>
</g>
<!-- Node11 -->
<g id="node12" class="node">
<title>Node11</title>
<polygon fill="#ffffff" stroke="#bfbfbf" points="482,-56.5 482,-75.5 526,-75.5 526,-56.5 482,-56.5"/>
<text text-anchor="middle" x="504" y="-63.5" font-family="Helvetica,sans-Serif" font-size="10.00" fill="#000000">vector</text>
</g>
<!-- Node0&#45;&gt;Node11 -->
<g id="edge26" class="edge">
<title>Node0&#45;&gt;Node11</title>
<path fill="none" stroke="#191970" d="M539.5609,-179.2659C535.4576,-170.0475 529.3548,-155.7564 525,-143 518.4439,-123.7953 512.5162,-101.3635 508.6436,-85.6822"/>
<polygon fill="#191970" stroke="#191970" points="511.9582,-84.4978 506.2073,-75.5996 505.154,-86.1419 511.9582,-84.4978"/>
</g>
<!-- Node12 -->
<g id="node13" class="node">
<title>Node12</title>
<g id="a_node13"><a xlink:href="qmi__oracle_8hpp.html" target="_top" xlink:title="ellcpp/oracles/qmi\l_oracle.hpp">
<polygon fill="#ffffff" stroke="#000000" points="534.5,-112.5 534.5,-142.5 629.5,-142.5 629.5,-112.5 534.5,-112.5"/>
<text text-anchor="start" x="542.5" y="-130.5" font-family="Helvetica,sans-Serif" font-size="10.00" fill="#000000">ellcpp/oracles/qmi</text>
<text text-anchor="middle" x="582" y="-119.5" font-family="Helvetica,sans-Serif" font-size="10.00" fill="#000000">_oracle.hpp</text>
</a>
</g>
</g>
<!-- Node0&#45;&gt;Node12 -->
<g id="edge19" class="edge">
<title>Node0&#45;&gt;Node12</title>
<path fill="none" stroke="#191970" d="M549.9375,-179.3906C554.6041,-171.838 561.3085,-160.9876 567.3812,-151.1593"/>
<polygon fill="#191970" stroke="#191970" points="570.4252,-152.8914 572.7042,-142.5446 564.4702,-149.2119 570.4252,-152.8914"/>
</g>
<!-- Node13 -->
<g id="node14" class="node">
<title>Node13</title>
<polygon fill="#ffffff" stroke="#bfbfbf" points="648,-118 648,-137 688,-137 688,-118 648,-118"/>
<text text-anchor="middle" x="668" y="-125" font-family="Helvetica,sans-Serif" font-size="10.00" fill="#000000">limits</text>
</g>
<!-- Node0&#45;&gt;Node13 -->
<g id="edge24" class="edge">
<title>Node0&#45;&gt;Node13</title>
<path fill="none" stroke="#191970" d="M563.8674,-179.4329C582.9355,-170.2141 612.5166,-155.8166 638,-143 638.8249,-142.5851 639.6618,-142.1626 640.5062,-141.735"/>
<polygon fill="#191970" stroke="#191970" points="642.3172,-144.7401 649.6284,-137.0722 639.1312,-138.5072 642.3172,-144.7401"/>
</g>
<!-- Node14 -->
<g id="node15" class="node">
<title>Node14</title>
<polygon fill="#ffffff" stroke="#bfbfbf" points="706.5,-118 706.5,-137 825.5,-137 825.5,-118 706.5,-118"/>
<text text-anchor="middle" x="766" y="-125" font-family="Helvetica,sans-Serif" font-size="10.00" fill="#000000">xtensor&#45;blas/xlinalg.hpp</text>
</g>
<!-- Node0&#45;&gt;Node14 -->
<g id="edge27" class="edge">
<title>Node0&#45;&gt;Node14</title>
<path fill="none" stroke="#191970" d="M578.6875,-179.3906C617.2984,-168.6944 679.786,-151.3836 721.8548,-139.7294"/>
<polygon fill="#191970" stroke="#191970" points="722.8535,-143.0847 731.5561,-137.0419 720.9846,-136.3387 722.8535,-143.0847"/>
</g>
<!-- Node15 -->
<g id="node16" class="node">
<title>Node15</title>
<polygon fill="#ffffff" stroke="#bfbfbf" points="844,-118 844,-137 942,-137 942,-118 844,-118"/>
<text text-anchor="middle" x="893" y="-125" font-family="Helvetica,sans-Serif" font-size="10.00" fill="#000000">xtensor/xmath.hpp</text>
</g>
<!-- Node0&#45;&gt;Node15 -->
<g id="edge28" class="edge">
<title>Node0&#45;&gt;Node15</title>
<path fill="none" stroke="#191970" d="M601.1983,-181.7548C660.1142,-173.8725 754.4428,-160.0825 835,-143 839.7826,-141.9858 844.7598,-140.8229 849.6997,-139.5999"/>
<polygon fill="#191970" stroke="#191970" points="850.8951,-142.9067 859.7129,-137.0332 849.157,-136.1259 850.8951,-142.9067"/>
</g>
<!-- Node16 -->
<g id="node17" class="node">
<title>Node16</title>
<polygon fill="#ffffff" stroke="#bfbfbf" points="960,-118 960,-137 1058,-137 1058,-118 960,-118"/>
<text text-anchor="middle" x="1009" y="-125" font-family="Helvetica,sans-Serif" font-size="10.00" fill="#000000">xtensor/xnorm.hpp</text>
</g>
<!-- Node0&#45;&gt;Node16 -->
<g id="edge29" class="edge">
<title>Node0&#45;&gt;Node16</title>
<path fill="none" stroke="#191970" d="M601.0223,-185.2413C680.107,-179.4198 827.3266,-166.3801 951,-143 956.1175,-142.0326 961.447,-140.8522 966.7107,-139.579"/>
<polygon fill="#191970" stroke="#191970" points="967.8483,-142.9013 976.6791,-137.0476 966.1253,-136.1167 967.8483,-142.9013"/>
</g>
<!-- Node17 -->
<g id="node18" class="node">
<title>Node17</title>
<polygon fill="#ffffff" stroke="#bfbfbf" points="1076,-118 1076,-137 1184,-137 1184,-118 1076,-118"/>
<text text-anchor="middle" x="1130" y="-125" font-family="Helvetica,sans-Serif" font-size="10.00" fill="#000000">xtensor/xrandom.hpp</text>
</g>
<!-- Node0&#45;&gt;Node17 -->
<g id="edge30" class="edge">
<title>Node0&#45;&gt;Node17</title>
<path fill="none" stroke="#191970" d="M601.2428,-186.8417C697.8317,-182.5588 899.0765,-170.8726 1067,-143 1072.9083,-142.0193 1079.0801,-140.7773 1085.151,-139.4249"/>
<polygon fill="#191970" stroke="#191970" points="1086.2691,-142.7579 1095.2085,-137.0713 1084.674,-135.9421 1086.2691,-142.7579"/>
</g>
<!-- Node2 -->
<g id="node3" class="node">
<title>Node2</title>
<polygon fill="#ffffff" stroke="#bfbfbf" points="89,-56.5 89,-75.5 133,-75.5 133,-56.5 89,-56.5"/>
<text text-anchor="middle" x="111" y="-63.5" font-family="Helvetica,sans-Serif" font-size="10.00" fill="#000000">cmath</text>
</g>
<!-- Node1&#45;&gt;Node2 -->
<g id="edge2" class="edge">
<title>Node1&#45;&gt;Node2</title>
<path fill="none" stroke="#191970" d="M68.8125,-117.8906C76.254,-108.7376 87.6334,-94.7409 96.6992,-83.59"/>
<polygon fill="#191970" stroke="#191970" points="99.4847,-85.712 103.0774,-75.7449 94.0533,-81.2962 99.4847,-85.712"/>
</g>
<!-- Node1&#45;&gt;Node3 -->
<g id="edge3" class="edge">
<title>Node1&#45;&gt;Node3</title>
<path fill="none" stroke="#191970" d="M78.0313,-117.8906C95.789,-107.8713 123.833,-92.0483 144.2882,-80.5071"/>
<polygon fill="#191970" stroke="#191970" points="146.0989,-83.5042 153.0883,-75.5419 142.6591,-77.4077 146.0989,-83.5042"/>
</g>
<!-- Node4 -->
<g id="node5" class="node">
<title>Node4</title>
<polygon fill="#ffffff" stroke="#bfbfbf" points="277,-.5 277,-19.5 375,-19.5 375,-.5 277,-.5"/>
<text text-anchor="middle" x="326" y="-7.5" font-family="Helvetica,sans-Serif" font-size="10.00" fill="#000000">xtensor/xarray.hpp</text>
</g>
<!-- Node1&#45;&gt;Node4 -->
<g id="edge4" class="edge">
<title>Node1&#45;&gt;Node4</title>
<path fill="none" stroke="#191970" d="M60.5521,-117.5285C60.4394,-101.9785 62.6752,-72.0738 80,-56 106.5679,-31.3504 202.9761,-19.2927 266.9179,-13.8834"/>
<polygon fill="#191970" stroke="#191970" points="267.2029,-17.3719 276.8857,-13.0714 266.6345,-10.395 267.2029,-17.3719"/>
</g>
<!-- Node5&#45;&gt;Node2 -->
<g id="edge6" class="edge">
<title>Node5&#45;&gt;Node2</title>
<path fill="none" stroke="#191970" d="M198.75,-117.8906C181.8831,-107.9165 155.2901,-92.1908 135.7965,-80.6633"/>
<polygon fill="#191970" stroke="#191970" points="137.5251,-77.6194 127.1359,-75.5419 133.962,-83.6447 137.5251,-77.6194"/>
</g>
<!-- Node5&#45;&gt;Node3 -->
<g id="edge7" class="edge">
<title>Node5&#45;&gt;Node3</title>
<path fill="none" stroke="#191970" d="M207.9688,-117.8906C201.337,-108.8273 191.2304,-95.0149 183.1113,-83.9188"/>
<polygon fill="#191970" stroke="#191970" points="185.8601,-81.7484 177.1304,-75.7449 180.2109,-85.882 185.8601,-81.7484"/>
</g>
<!-- Node5&#45;&gt;Node4 -->
<g id="edge8" class="edge">
<title>Node5&#45;&gt;Node4</title>
<path fill="none" stroke="#191970" d="M224.0836,-117.8845C242.8655,-98.0028 286.1906,-52.1406 309.8546,-27.0908"/>
<polygon fill="#191970" stroke="#191970" points="312.468,-29.4212 316.7909,-19.7484 307.3795,-24.6142 312.468,-29.4212"/>
</g>
<!-- Node6&#45;&gt;Node4 -->
<g id="edge10" class="edge">
<title>Node6&#45;&gt;Node4</title>
<path fill="none" stroke="#191970" d="M319.9151,-112.1389C321.1763,-90.9692 323.4492,-52.8174 324.8317,-29.6112"/>
<polygon fill="#191970" stroke="#191970" points="328.3295,-29.75 325.4305,-19.5595 321.3419,-29.3336 328.3295,-29.75"/>
</g>
<!-- Node7 -->
<g id="node8" class="node">
<title>Node7</title>
<g id="a_node8"><a xlink:href="chol__ext_8hpp.html" target="_top" xlink:title="chol_ext.hpp">
<polygon fill="#ffffff" stroke="#000000" points="392,-56.5 392,-75.5 464,-75.5 464,-56.5 392,-56.5"/>
<text text-anchor="middle" x="428" y="-63.5" font-family="Helvetica,sans-Serif" font-size="10.00" fill="#000000">chol_ext.hpp</text>
</a>
</g>
</g>
<!-- Node6&#45;&gt;Node7 -->
<g id="edge11" class="edge">
<title>Node6&#45;&gt;Node7</title>
<path fill="none" stroke="#191970" d="M345.6644,-112.4554C362.8941,-102.734 385.1975,-90.15 402.2446,-80.5317"/>
<polygon fill="#191970" stroke="#191970" points="404.1194,-83.4926 411.1089,-75.5303 400.6796,-77.3961 404.1194,-83.4926"/>
</g>
<!-- Node7&#45;&gt;Node4 -->
<g id="edge14" class="edge">
<title>Node7&#45;&gt;Node4</title>
<path fill="none" stroke="#191970" d="M410.233,-56.2455C394.2905,-47.4928 370.6741,-34.527 352.5011,-24.5496"/>
<polygon fill="#191970" stroke="#191970" points="354.0137,-21.3873 343.5634,-19.6427 350.6448,-27.5233 354.0137,-21.3873"/>
</g>
<!-- Node8 -->
<g id="node9" class="node">
<title>Node8</title>
<polygon fill="#ffffff" stroke="#bfbfbf" points="398.5,-.5 398.5,-19.5 457.5,-19.5 457.5,-.5 398.5,-.5"/>
<text text-anchor="middle" x="428" y="-7.5" font-family="Helvetica,sans-Serif" font-size="10.00" fill="#000000">stdexcept</text>
</g>
<!-- Node7&#45;&gt;Node8 -->
<g id="edge12" class="edge">
<title>Node7&#45;&gt;Node8</title>
<path fill="none" stroke="#191970" d="M428,-56.2455C428,-48.9382 428,-38.6944 428,-29.7046"/>
<polygon fill="#191970" stroke="#191970" points="431.5001,-29.6426 428,-19.6427 424.5001,-29.6427 431.5001,-29.6426"/>
</g>
<!-- Node9 -->
<g id="node10" class="node">
<title>Node9</title>
<polygon fill="#ffffff" stroke="#bfbfbf" points="521.5,-.5 521.5,-19.5 570.5,-19.5 570.5,-.5 521.5,-.5"/>
<text text-anchor="middle" x="546" y="-7.5" font-family="Helvetica,sans-Serif" font-size="10.00" fill="#000000">cassert</text>
</g>
<!-- Node7&#45;&gt;Node9 -->
<g id="edge13" class="edge">
<title>Node7&#45;&gt;Node9</title>
<path fill="none" stroke="#191970" d="M448.2849,-56.3733C467.1421,-47.4241 495.446,-33.9917 516.7455,-23.8835"/>
<polygon fill="#191970" stroke="#191970" points="518.4461,-26.9506 525.9798,-19.5011 515.4449,-20.6266 518.4461,-26.9506"/>
</g>
<!-- Node10&#45;&gt;Node4 -->
<g id="edge17" class="edge">
<title>Node10&#45;&gt;Node4</title>
<path fill="none" stroke="#191970" d="M417.225,-112.3577C407.3978,-102.1923 394.2732,-88.4348 383,-76 368.3186,-59.8059 352.0676,-40.8859 340.6869,-27.4652"/>
<polygon fill="#191970" stroke="#191970" points="343.1044,-24.9034 333.9769,-19.524 337.7576,-29.4213 343.1044,-24.9034"/>
</g>
<!-- Node10&#45;&gt;Node7 -->
<g id="edge18" class="edge">
<title>Node10&#45;&gt;Node7</title>
<path fill="none" stroke="#191970" d="M431.0112,-112.2977C430.4965,-104.3834 429.8604,-94.6043 429.3057,-86.0759"/>
<polygon fill="#191970" stroke="#191970" points="432.7822,-85.5986 428.6405,-75.8469 425.797,-86.053 432.7822,-85.5986"/>
</g>
<!-- Node10&#45;&gt;Node11 -->
<g id="edge16" class="edge">
<title>Node10&#45;&gt;Node11</title>
<path fill="none" stroke="#191970" d="M449.7978,-112.2977C460.4167,-103.2274 473.9031,-91.7077 484.7667,-82.4285"/>
<polygon fill="#191970" stroke="#191970" points="487.1413,-85.0031 492.4719,-75.8469 482.5949,-79.6805 487.1413,-85.0031"/>
</g>
<!-- Node12&#45;&gt;Node4 -->
<g id="edge22" class="edge">
<title>Node12&#45;&gt;Node4</title>
<path fill="none" stroke="#191970" d="M576.1884,-112.3872C569.0432,-95.896 555.3108,-69.9838 535,-56 522.6407,-47.4908 442.6499,-31.4025 385.3079,-20.6894"/>
<polygon fill="#191970" stroke="#191970" points="385.7146,-17.2052 375.2437,-18.8207 384.4366,-24.0876 385.7146,-17.2052"/>
</g>
<!-- Node12&#45;&gt;Node7 -->
<g id="edge23" class="edge">
<title>Node12&#45;&gt;Node7</title>
<path fill="none" stroke="#191970" d="M544.3274,-112.4554C518.9702,-102.329 485.8348,-89.0964 461.4174,-79.3453"/>
<polygon fill="#191970" stroke="#191970" points="462.4495,-75.9887 451.8645,-75.5303 459.8533,-82.4895 462.4495,-75.9887"/>
</g>
<!-- Node12&#45;&gt;Node9 -->
<g id="edge20" class="edge">
<title>Node12&#45;&gt;Node9</title>
<path fill="none" stroke="#191970" d="M580.1775,-112.4292C578.1422,-97.7616 574.2816,-74.9724 568,-56 564.9141,-46.6796 560.3729,-36.8014 556.2165,-28.5979"/>
<polygon fill="#191970" stroke="#191970" points="559.2191,-26.788 551.4612,-19.5722 553.026,-30.0509 559.2191,-26.788"/>
</g>
<!-- Node12&#45;&gt;Node11 -->
<g id="edge21" class="edge">
<title>Node12&#45;&gt;Node11</title>
<path fill="none" stroke="#191970" d="M562.7191,-112.2977C551.1024,-103.1384 536.3182,-91.4816 524.4908,-82.1562"/>
<polygon fill="#191970" stroke="#191970" points="526.5086,-79.2901 516.4888,-75.8469 522.1744,-84.787 526.5086,-79.2901"/>
</g>
</g>
</svg>
        <g id="navigator" transform="translate(0 0)" fill="#404254">
                <rect fill="#f2f5e9" fill-opacity="0.5" stroke="#606060" stroke-width=".5" x="0" y="0" width="60" height="60"/>
                <use id="zoomplus" xlink:href="#zoomPlus" x="17" y="9" onmousedown="handleZoom(evt,'in')"/>
                <use id="zoomminus" xlink:href="#zoomMin" x="42" y="9" onmousedown="handleZoom(evt,'out')"/>
                <use id="reset" xlink:href="#resetDef" x="30" y="36" onmousedown="handleReset()"/>
                <g id="arrowUp" xlink:href="#dirArrow" transform="translate(30 24)" onmousedown="handlePan(0,-1)">
                  <use xlink:href="#rim" fill="#404040">
                        <set attributeName="fill" to="#808080" begin="arrowUp.mouseover" end="arrowUp.mouseout"/>
                  </use>
                  <path fill="none" stroke="white" stroke-width="1.5" d="M0,-3.0v7 M-2.5,-0.5L0,-3.0L2.5,-0.5"/>
                </g>
                <g id="arrowRight" xlink:href="#dirArrow" transform="rotate(90) translate(36 -43)" onmousedown="handlePan(1,0)">
                  <use xlink:href="#rim" fill="#404040">
                        <set attributeName="fill" to="#808080" begin="arrowRight.mouseover" end="arrowRight.mouseout"/>
                  </use>
                  <path fill="none" stroke="white" stroke-width="1.5" d="M0,-3.0v7 M-2.5,-0.5L0,-3.0L2.5,-0.5"/>
                </g>
                <g id="arrowDown" xlink:href="#dirArrow" transform="rotate(180) translate(-30 -48)" onmousedown="handlePan(0,1)">
                  <use xlink:href="#rim" fill="#404040">
                        <set attributeName="fill" to="#808080" begin="arrowDown.mouseover" end="arrowDown.mouseout"/>
                  </use>
                  <path fill="none" stroke="white" stroke-width="1.5" d="M0,-3.0v7 M-2.5,-0.5L0,-3.0L2.5,-0.5"/>
                </g>
                <g id="arrowLeft" xlink:href="#dirArrow" transform="rotate(270) translate(-36 17)" onmousedown="handlePan(-1,0)">
                  <use xlink:href="#rim" fill="#404040">
                        <set attributeName="fill" to="#808080" begin="arrowLeft.mouseover" end="arrowLeft.mouseout"/>
                  </use>
                  <path fill="none" stroke="white" stroke-width="1.5" d="M0,-3.0v7 M-2.5,-0.5L0,-3.0L2.5,-0.5"/>
                </g>
        </g>
        <svg viewBox="0 0 15 15" width="100%" height="30px" preserveAspectRatio="xMaxYMin meet">
         <g id="arrow_out" transform="scale(0.3 0.3)">
          <a xlink:href="lsq__corr__ell_8cpp__incl_org.svg" target="_base">
           <rect id="button" ry="5" rx="5" y="6" x="6" height="38" width="38"
                fill="#f2f5e9" fill-opacity="0.5" stroke="#606060" stroke-width="1.0"/>
           <path id="arrow"
             d="M 11.500037,31.436501 C 11.940474,20.09759 22.043105,11.32322 32.158766,21.979434 L 37.068811,17.246167 C 37.068811,17.246167 37.088388,32 37.088388,32 L 22.160133,31.978069 C 22.160133,31.978069 26.997745,27.140456 26.997745,27.140456 C 18.528582,18.264221 13.291696,25.230495 11.500037,31.436501 z"
             style="fill:#404040;"/>
          </a>
         </g>
        </svg>
</svg>
