<?xml version="1.0" encoding="UTF-8" standalone="no"?>
<!DOCTYPE svg PUBLIC "-//W3C//DTD SVG 1.1//EN"
 "http://www.w3.org/Graphics/SVG/1.1/DTD/svg11.dtd">
<!-- Generated by graphviz version 2.40.1 (20161225.0304)
 -->
<!-- Title: fun::operator* Pages: 1 -->
<!--zoomable 161 -->
<svg id="main" version="1.1" xmlns="http://www.w3.org/2000/svg" xmlns:xlink="http://www.w3.org/1999/xlink" xml:space="preserve" onload="init(evt)">
<style type="text/css"><![CDATA[
.edge:hover path { stroke: red; }
.edge:hover polygon { stroke: red; fill: red; }
]]></style>
<script type="text/javascript"><![CDATA[
var edges = document.getElementsByTagName('g');
if (edges && edges.length) {
  for (var i=0;i<edges.length;i++) {
    if (edges[i].id.substr(0,4)=='edge') {
      edges[i].setAttribute('class','edge');
    }
  }
}
]]></script>
        <defs>
                <circle id="rim" cx="0" cy="0" r="7"/>
                <circle id="rim2" cx="0" cy="0" r="3.5"/>
                <g id="zoomPlus">
                        <use xlink:href="#rim" fill="#404040">
                                <set attributeName="fill" to="#808080" begin="zoomplus.mouseover" end="zoomplus.mouseout"/>
                        </use>
                        <path d="M-4,0h8M0,-4v8" fill="none" stroke="white" stroke-width="1.5" pointer-events="none"/>
                </g>
                <g id="zoomMin">
                        <use xlink:href="#rim" fill="#404040">
                                <set attributeName="fill" to="#808080" begin="zoomminus.mouseover" end="zoomminus.mouseout"/>
                        </use>
                        <path d="M-4,0h8" fill="none" stroke="white" stroke-width="1.5" pointer-events="none"/>
                </g>
                <g id="dirArrow">
                        <path fill="none" stroke="white" stroke-width="1.5" d="M0,-3.0v7 M-2.5,-0.5L0,-3.0L2.5,-0.5"/>
                </g>
               <g id="resetDef">
                       <use xlink:href="#rim2" fill="#404040">
                               <set attributeName="fill" to="#808080" begin="reset.mouseover" end="reset.mouseout"/>
                       </use>
               </g>
        </defs>

<script type="text/javascript">
var viewWidth = 674;
var viewHeight = 161;
var sectionId = 'dynsection-3';
</script>
<script xlink:href="svgpan.js"/>
<svg id="graph" class="graph">
<g id="viewport">
<title>fun::operator*</title>
<polygon fill="#ffffff" stroke="transparent" points="-4,4 -4,-157 670,-157 670,4 -4,4"/>
<!-- Node10 -->
<g id="node1" class="node">
<title>Node10</title>
<polygon fill="#bfbfbf" stroke="#000000" points="0,-95.5 0,-114.5 75,-114.5 75,-95.5 0,-95.5"/>
<text text-anchor="middle" x="37.5" y="-102.5" font-family="Helvetica,sans-Serif" font-size="10.00" fill="#000000">fun::operator*</text>
</g>
<!-- Node11 -->
<g id="node2" class="node">
<title>Node11</title>
<g id="a_node2"><a xlink:href="namespacepy.html#a13b079f9cc2ef2797f2908169c6e24c4" target="_top" xlink:title="py::enumerate">
<polygon fill="#ffffff" stroke="#000000" points="136,-133.5 136,-152.5 215,-152.5 215,-133.5 136,-133.5"/>
<text text-anchor="middle" x="175.5" y="-140.5" font-family="Helvetica,sans-Serif" font-size="10.00" fill="#000000">py::enumerate</text>
</a>
</g>
</g>
<!-- Node10&#45;&gt;Node11 -->
<g id="edge1" class="edge">
<title>Node10&#45;&gt;Node11</title>
<path fill="none" stroke="#191970" d="M81.973,-117.2462C100.9946,-122.484 122.8751,-128.5091 140.6879,-133.4141"/>
<polygon fill="#191970" stroke="#191970" points="82.8936,-113.8695 72.3232,-114.589 81.0352,-120.6183 82.8936,-113.8695"/>
</g>
<!-- Node12 -->
<g id="node3" class="node">
<title>Node12</title>
<g id="a_node3"><a xlink:href="structpy_1_1key__iterator.html#aa3d0870a9e5960e863d56d908be2ef66" target="_top" xlink:title="py::key_iterator::operator*">
<polygon fill="#ffffff" stroke="#000000" points="111,-95.5 111,-114.5 240,-114.5 240,-95.5 111,-95.5"/>
<text text-anchor="middle" x="175.5" y="-102.5" font-family="Helvetica,sans-Serif" font-size="10.00" fill="#000000">py::key_iterator::operator*</text>
</a>
</g>
</g>
<!-- Node10&#45;&gt;Node12 -->
<g id="edge2" class="edge">
<title>Node10&#45;&gt;Node12</title>
<path fill="none" stroke="#191970" d="M85.3342,-105C93.5462,-105 102.2011,-105 110.768,-105"/>
<polygon fill="#191970" stroke="#191970" points="85.2091,-101.5001 75.2091,-105 85.2091,-108.5001 85.2091,-101.5001"/>
</g>
<!-- Node13 -->
<g id="node4" class="node">
<title>Node13</title>
<g id="a_node4"><a xlink:href="namespacepy.html#a6c0a41716a24bed07cbf8b2d84132f96" target="_top" xlink:title="py::range">
<polygon fill="#ffffff" stroke="#000000" points="147,-57.5 147,-76.5 204,-76.5 204,-57.5 147,-57.5"/>
<text text-anchor="middle" x="175.5" y="-64.5" font-family="Helvetica,sans-Serif" font-size="10.00" fill="#000000">py::range</text>
</a>
</g>
</g>
<!-- Node10&#45;&gt;Node13 -->
<g id="edge3" class="edge">
<title>Node10&#45;&gt;Node13</title>
<path fill="none" stroke="#191970" d="M82.097,-92.7197C103.3078,-86.879 128.05,-80.0659 146.7387,-74.9198"/>
<polygon fill="#191970" stroke="#191970" points="81.0352,-89.3817 72.3232,-95.411 82.8936,-96.1305 81.0352,-89.3817"/>
</g>
<!-- Node14 -->
<g id="node5" class="node">
<title>Node14</title>
<g id="a_node5"><a xlink:href="namespacepy.html#a60b1464018ad9d097a2657f82cd62da7" target="_top" xlink:title="py::range">
<polygon fill="#ffffff" stroke="#000000" points="303,-114.5 303,-133.5 360,-133.5 360,-114.5 303,-114.5"/>
<text text-anchor="middle" x="331.5" y="-121.5" font-family="Helvetica,sans-Serif" font-size="10.00" fill="#000000">py::range</text>
</a>
</g>
</g>
<!-- Node13&#45;&gt;Node14 -->
<g id="edge4" class="edge">
<title>Node13&#45;&gt;Node14</title>
<path fill="none" stroke="#191970" d="M213.7855,-76.9115C222.516,-79.5468 231.6711,-82.6148 240,-86 256.7602,-92.812 259.3914,-97.8262 276,-105 284.6016,-108.7153 294.1886,-112.2141 302.9419,-115.1722"/>
<polygon fill="#191970" stroke="#191970" points="214.7547,-73.5485 204.1756,-74.1263 212.806,-80.2718 214.7547,-73.5485"/>
</g>
<!-- Node15 -->
<g id="node6" class="node">
<title>Node15</title>
<g id="a_node6"><a xlink:href="classlsq__oracle.html#a371d2b4ba78f71e69709d713ceb24bb5" target="_top" xlink:title="lsq_oracle::operator()">
<polygon fill="#ffffff" stroke="#000000" points="558,-57.5 558,-76.5 666,-76.5 666,-57.5 558,-57.5"/>
<text text-anchor="middle" x="612" y="-64.5" font-family="Helvetica,sans-Serif" font-size="10.00" fill="#000000">lsq_oracle::operator()</text>
</a>
</g>
</g>
<!-- Node13&#45;&gt;Node15 -->
<g id="edge5" class="edge">
<title>Node13&#45;&gt;Node15</title>
<path fill="none" stroke="#191970" d="M214.5023,-67C292.6766,-67 468.6708,-67 557.9154,-67"/>
<polygon fill="#191970" stroke="#191970" points="214.14,-63.5001 204.14,-67 214.14,-70.5001 214.14,-63.5001"/>
</g>
<!-- Node16 -->
<g id="node7" class="node">
<title>Node16</title>
<g id="a_node7"><a xlink:href="lsq__corr__ell_8cpp.html#a8f192eb7ec368a59cfafe9387964face" target="_top" xlink:title="lsq_corr_core2">
<polygon fill="#ffffff" stroke="#000000" points="291.5,-.5 291.5,-19.5 371.5,-19.5 371.5,-.5 291.5,-.5"/>
<text text-anchor="middle" x="331.5" y="-7.5" font-family="Helvetica,sans-Serif" font-size="10.00" fill="#000000">lsq_corr_core2</text>
</a>
</g>
</g>
<!-- Node13&#45;&gt;Node16 -->
<g id="edge6" class="edge">
<title>Node13&#45;&gt;Node16</title>
<path fill="none" stroke="#191970" d="M211.2582,-53.9345C239.9329,-43.4572 279.5139,-28.9949 305.3039,-19.5716"/>
<polygon fill="#191970" stroke="#191970" points="209.8024,-50.7401 201.6109,-57.4595 212.2047,-57.3149 209.8024,-50.7401"/>
</g>
<!-- Node19 -->
<g id="node10" class="node">
<title>Node19</title>
<g id="a_node10"><a xlink:href="classqmi__oracle.html#a0884de2fa348ecb98071033721cbff9f" target="_top" xlink:title="qmi_oracle::operator()">
<polygon fill="#ffffff" stroke="#000000" points="276,-76.5 276,-95.5 387,-95.5 387,-76.5 276,-76.5"/>
<text text-anchor="middle" x="331.5" y="-83.5" font-family="Helvetica,sans-Serif" font-size="10.00" fill="#000000">qmi_oracle::operator()</text>
</a>
</g>
</g>
<!-- Node13&#45;&gt;Node19 -->
<g id="edge9" class="edge">
<title>Node13&#45;&gt;Node19</title>
<path fill="none" stroke="#191970" d="M214.2746,-71.7226C232.8807,-73.9887 255.5124,-76.7451 275.9098,-79.2294"/>
<polygon fill="#191970" stroke="#191970" points="214.4626,-68.2197 204.1128,-70.4849 213.6163,-75.1683 214.4626,-68.2197"/>
</g>
<!-- Node17 -->
<g id="node8" class="node">
<title>Node17</title>
<g id="a_node8"><a xlink:href="corr__fn__ell_8cpp.html#af80bce888c902b4e71a4b15107fbf66a" target="_top" xlink:title="lsq_corr_poly2">
<polygon fill="#ffffff" stroke="#000000" points="432.5,-.5 432.5,-19.5 512.5,-19.5 512.5,-.5 432.5,-.5"/>
<text text-anchor="middle" x="472.5" y="-7.5" font-family="Helvetica,sans-Serif" font-size="10.00" fill="#000000">lsq_corr_poly2</text>
</a>
</g>
</g>
<!-- Node16&#45;&gt;Node17 -->
<g id="edge7" class="edge">
<title>Node16&#45;&gt;Node17</title>
<path fill="none" stroke="#191970" d="M381.6399,-10C398.284,-10 416.5843,-10 432.3721,-10"/>
<polygon fill="#191970" stroke="#191970" points="381.5278,-6.5001 371.5278,-10 381.5278,-13.5001 381.5278,-6.5001"/>
</g>
<!-- Node18 -->
<g id="node9" class="node">
<title>Node18</title>
<g id="a_node9"><a xlink:href="corr__fn__ell_8cpp.html#a81c9df61833f0dcc6a7cf2412f2872cd" target="_top" xlink:title="TEST_CASE">
<polygon fill="#ffffff" stroke="#000000" points="574.5,-.5 574.5,-19.5 649.5,-19.5 649.5,-.5 574.5,-.5"/>
<text text-anchor="middle" x="612" y="-7.5" font-family="Helvetica,sans-Serif" font-size="10.00" fill="#000000">TEST_CASE</text>
</a>
</g>
</g>
<!-- Node17&#45;&gt;Node18 -->
<g id="edge8" class="edge">
<title>Node17&#45;&gt;Node18</title>
<path fill="none" stroke="#191970" d="M523.0942,-10C539.9468,-10 558.4167,-10 574.1343,-10"/>
<polygon fill="#191970" stroke="#191970" points="522.8492,-6.5001 512.8492,-10 522.8491,-13.5001 522.8492,-6.5001"/>
</g>
<!-- Node20 -->
<g id="node11" class="node">
<title>Node20</title>
<g id="a_node11"><a xlink:href="classqmi__oracle.html#aec6bfef186ed45b37f922f1d7ab4fb52" target="_top" xlink:title="Update t. ">
<polygon fill="#ffffff" stroke="#000000" points="423,-76.5 423,-95.5 522,-95.5 522,-76.5 423,-76.5"/>
<text text-anchor="middle" x="472.5" y="-83.5" font-family="Helvetica,sans-Serif" font-size="10.00" fill="#000000">qmi_oracle::update</text>
</a>
</g>
</g>
<!-- Node19&#45;&gt;Node20 -->
<g id="edge10" class="edge">
<title>Node19&#45;&gt;Node20</title>
<path fill="none" stroke="#191970" d="M397.4828,-86C405.9534,-86 414.5113,-86 422.6647,-86"/>
<polygon fill="#191970" stroke="#191970" points="397.227,-82.5001 387.2269,-86 397.2269,-89.5001 397.227,-82.5001"/>
</g>
<!-- Node20&#45;&gt;Node15 -->
<g id="edge11" class="edge">
<title>Node20&#45;&gt;Node15</title>
<path fill="none" stroke="#191970" d="M532.0156,-77.8939C540.5931,-76.7257 549.3817,-75.5287 557.8473,-74.3756"/>
<polygon fill="#191970" stroke="#191970" points="531.5114,-74.4302 522.0753,-79.2478 532.4562,-81.3662 531.5114,-74.4302"/>
</g>
</g>
</svg>
        <g id="navigator" transform="translate(0 0)" fill="#404254">
                <rect fill="#f2f5e9" fill-opacity="0.5" stroke="#606060" stroke-width=".5" x="0" y="0" width="60" height="60"/>
                <use id="zoomplus" xlink:href="#zoomPlus" x="17" y="9" onmousedown="handleZoom(evt,'in')"/>
                <use id="zoomminus" xlink:href="#zoomMin" x="42" y="9" onmousedown="handleZoom(evt,'out')"/>
                <use id="reset" xlink:href="#resetDef" x="30" y="36" onmousedown="handleReset()"/>
                <g id="arrowUp" xlink:href="#dirArrow" transform="translate(30 24)" onmousedown="handlePan(0,-1)">
                  <use xlink:href="#rim" fill="#404040">
                        <set attributeName="fill" to="#808080" begin="arrowUp.mouseover" end="arrowUp.mouseout"/>
                  </use>
                  <path fill="none" stroke="white" stroke-width="1.5" d="M0,-3.0v7 M-2.5,-0.5L0,-3.0L2.5,-0.5"/>
                </g>
                <g id="arrowRight" xlink:href="#dirArrow" transform="rotate(90) translate(36 -43)" onmousedown="handlePan(1,0)">
                  <use xlink:href="#rim" fill="#404040">
                        <set attributeName="fill" to="#808080" begin="arrowRight.mouseover" end="arrowRight.mouseout"/>
                  </use>
                  <path fill="none" stroke="white" stroke-width="1.5" d="M0,-3.0v7 M-2.5,-0.5L0,-3.0L2.5,-0.5"/>
                </g>
                <g id="arrowDown" xlink:href="#dirArrow" transform="rotate(180) translate(-30 -48)" onmousedown="handlePan(0,1)">
                  <use xlink:href="#rim" fill="#404040">
                        <set attributeName="fill" to="#808080" begin="arrowDown.mouseover" end="arrowDown.mouseout"/>
                  </use>
                  <path fill="none" stroke="white" stroke-width="1.5" d="M0,-3.0v7 M-2.5,-0.5L0,-3.0L2.5,-0.5"/>
                </g>
                <g id="arrowLeft" xlink:href="#dirArrow" transform="rotate(270) translate(-36 17)" onmousedown="handlePan(-1,0)">
                  <use xlink:href="#rim" fill="#404040">
                        <set attributeName="fill" to="#808080" begin="arrowLeft.mouseover" end="arrowLeft.mouseout"/>
                  </use>
                  <path fill="none" stroke="white" stroke-width="1.5" d="M0,-3.0v7 M-2.5,-0.5L0,-3.0L2.5,-0.5"/>
                </g>
        </g>
        <svg viewBox="0 0 15 15" width="100%" height="30px" preserveAspectRatio="xMaxYMin meet">
         <g id="arrow_out" transform="scale(0.3 0.3)">
          <a xlink:href="namespacefun_a501a8e4f752a46d9e2db8daa04a5ba6c_icgraph_org.svg" target="_base">
           <rect id="button" ry="5" rx="5" y="6" x="6" height="38" width="38"
                fill="#f2f5e9" fill-opacity="0.5" stroke="#606060" stroke-width="1.0"/>
           <path id="arrow"
             d="M 11.500037,31.436501 C 11.940474,20.09759 22.043105,11.32322 32.158766,21.979434 L 37.068811,17.246167 C 37.068811,17.246167 37.088388,32 37.088388,32 L 22.160133,31.978069 C 22.160133,31.978069 26.997745,27.140456 26.997745,27.140456 C 18.528582,18.264221 13.291696,25.230495 11.500037,31.436501 z"
             style="fill:#404040;"/>
          </a>
         </g>
        </svg>
</svg>
