<?xml version="1.0" encoding="UTF-8" standalone="no"?>
<!DOCTYPE svg PUBLIC "-//W3C//DTD SVG 1.1//EN"
 "http://www.w3.org/Graphics/SVG/1.1/DTD/svg11.dtd">
<!-- Generated by graphviz version 2.40.1 (20161225.0304)
 -->
<!-- Title: py::dict Pages: 1 -->
<svg width="203pt" height="78pt"
 viewBox="0.00 0.00 203.00 77.50" xmlns="http://www.w3.org/2000/svg" xmlns:xlink="http://www.w3.org/1999/xlink">
<g id="graph0" class="graph" transform="scale(1 1) rotate(0) translate(4 73.5)">
<title>py::dict</title>
<polygon fill="#ffffff" stroke="transparent" points="-4,4 -4,-73.5 199,-73.5 199,4 -4,4"/>
<!-- Node1 -->
<g id="node1" class="node">
<title>Node1</title>
<polygon fill="#bfbfbf" stroke="#000000" points="0,-22.5 0,-41.5 49,-41.5 49,-22.5 0,-22.5"/>
<text text-anchor="middle" x="24.5" y="-29.5" font-family="Helvetica,sans-Serif" font-size="10.00" fill="#000000">py::dict</text>
</g>
<!-- Node2 -->
<g id="node2" class="node">
<title>Node2</title>
<g id="a_node2"><a xlink:href="classpy_1_1dict.html#aa7fa8bf2e9f18a3f16642566c4c595f2" target="_top" xlink:title="Construct a new dict object. ">
<polygon fill="#ffffff" stroke="#000000" points="85,-39 85,-69 195,-69 195,-39 85,-39"/>
<text text-anchor="start" x="93" y="-57" font-family="Helvetica,sans-Serif" font-size="10.00" fill="#000000">py::dict&lt; Node, Node</text>
<text text-anchor="middle" x="140" y="-46" font-family="Helvetica,sans-Serif" font-size="10.00" fill="#000000"> &gt;::dict</text>
</a>
</g>
</g>
<!-- Node1&#45;&gt;Node2 -->
<g id="edge1" class="edge">
<title>Node1&#45;&gt;Node2</title>
<path fill="none" stroke="#191970" d="M59.1192,-38.5941C67.2463,-40.1421 76.1055,-41.8296 84.8835,-43.5016"/>
<polygon fill="#191970" stroke="#191970" points="59.756,-35.1526 49.2776,-36.7196 58.4461,-42.0289 59.756,-35.1526"/>
</g>
<!-- Node3 -->
<g id="node3" class="node">
<title>Node3</title>
<g id="a_node3"><a xlink:href="namespacepy.html#a058d85f30aee848249988ce734c1af2a" target="_top" xlink:title="py::len">
<polygon fill="#ffffff" stroke="#000000" points="117,-.5 117,-19.5 163,-19.5 163,-.5 117,-.5"/>
<text text-anchor="middle" x="140" y="-7.5" font-family="Helvetica,sans-Serif" font-size="10.00" fill="#000000">py::len</text>
</a>
</g>
</g>
<!-- Node1&#45;&gt;Node3 -->
<g id="edge2" class="edge">
<title>Node1&#45;&gt;Node3</title>
<path fill="none" stroke="#191970" d="M59.1809,-25.3941C77.8303,-21.8418 100.3208,-17.558 116.8362,-14.4121"/>
<polygon fill="#191970" stroke="#191970" points="58.4461,-21.9711 49.2776,-27.2804 59.756,-28.8474 58.4461,-21.9711"/>
</g>
</g>
</svg>
