<?xml version="1.0" encoding="UTF-8" standalone="no"?>
<!DOCTYPE svg PUBLIC "-//W3C//DTD SVG 1.1//EN"
 "http://www.w3.org/Graphics/SVG/1.1/DTD/svg11.dtd">
<!-- Generated by graphviz version 2.40.1 (20161225.0304)
 -->
<!-- Title: lib/include/ellcpp/oracles/neg_cycle.hpp Pages: 1 -->
<svg width="474pt" height="151pt"
 viewBox="0.00 0.00 473.50 151.00" xmlns="http://www.w3.org/2000/svg" xmlns:xlink="http://www.w3.org/1999/xlink">
<g id="graph0" class="graph" transform="scale(1 1) rotate(0) translate(4 147)">
<title>lib/include/ellcpp/oracles/neg_cycle.hpp</title>
<polygon fill="#ffffff" stroke="transparent" points="-4,4 -4,-147 469.5,-147 469.5,4 -4,4"/>
<!-- Node0 -->
<g id="node1" class="node">
<title>Node0</title>
<polygon fill="#bfbfbf" stroke="#000000" points="210,-112.5 210,-142.5 327,-142.5 327,-112.5 210,-112.5"/>
<text text-anchor="start" x="218" y="-130.5" font-family="Helvetica,sans-Serif" font-size="10.00" fill="#000000">lib/include/ellcpp</text>
<text text-anchor="middle" x="268.5" y="-119.5" font-family="Helvetica,sans-Serif" font-size="10.00" fill="#000000">/oracles/neg_cycle.hpp</text>
</g>
<!-- Node1 -->
<g id="node2" class="node">
<title>Node1</title>
<g id="a_node2"><a xlink:href="py2cpp_8hpp.html" target="_top" xlink:title="py2cpp/py2cpp.hpp">
<polygon fill="#ffffff" stroke="#000000" points="173,-56.5 173,-75.5 274,-75.5 274,-56.5 173,-56.5"/>
<text text-anchor="middle" x="223.5" y="-63.5" font-family="Helvetica,sans-Serif" font-size="10.00" fill="#000000">py2cpp/py2cpp.hpp</text>
</a>
</g>
</g>
<!-- Node0&#45;&gt;Node1 -->
<g id="edge1" class="edge">
<title>Node0&#45;&gt;Node1</title>
<path fill="none" stroke="#191970" d="M257.3764,-112.2977C251.1299,-103.7609 243.296,-93.0545 236.7353,-84.0883"/>
<polygon fill="#191970" stroke="#191970" points="239.4348,-81.8505 230.7051,-75.8469 233.7856,-85.984 239.4348,-81.8505"/>
</g>
<!-- Node8 -->
<g id="node9" class="node">
<title>Node8</title>
<polygon fill="#ffffff" stroke="#bfbfbf" points="292.5,-56.5 292.5,-75.5 336.5,-75.5 336.5,-56.5 292.5,-56.5"/>
<text text-anchor="middle" x="314.5" y="-63.5" font-family="Helvetica,sans-Serif" font-size="10.00" fill="#000000">vector</text>
</g>
<!-- Node0&#45;&gt;Node8 -->
<g id="edge8" class="edge">
<title>Node0&#45;&gt;Node8</title>
<path fill="none" stroke="#191970" d="M279.8708,-112.2977C286.2561,-103.7609 294.2641,-93.0545 300.9705,-84.0883"/>
<polygon fill="#191970" stroke="#191970" points="303.9479,-85.9511 307.1348,-75.8469 298.3425,-81.7584 303.9479,-85.9511"/>
</g>
<!-- Node2 -->
<g id="node3" class="node">
<title>Node2</title>
<polygon fill="#ffffff" stroke="#bfbfbf" points="0,-.5 0,-19.5 73,-19.5 73,-.5 0,-.5"/>
<text text-anchor="middle" x="36.5" y="-7.5" font-family="Helvetica,sans-Serif" font-size="10.00" fill="#000000">initializer_list</text>
</g>
<!-- Node1&#45;&gt;Node2 -->
<g id="edge2" class="edge">
<title>Node1&#45;&gt;Node2</title>
<path fill="none" stroke="#191970" d="M191.3536,-56.3733C159.9891,-46.9807 112.1335,-32.6496 77.9284,-22.4064"/>
<polygon fill="#191970" stroke="#191970" points="78.8107,-19.0171 68.227,-19.5011 76.8025,-25.7229 78.8107,-19.0171"/>
</g>
<!-- Node3 -->
<g id="node4" class="node">
<title>Node3</title>
<polygon fill="#ffffff" stroke="#bfbfbf" points="91.5,-.5 91.5,-19.5 129.5,-19.5 129.5,-.5 91.5,-.5"/>
<text text-anchor="middle" x="110.5" y="-7.5" font-family="Helvetica,sans-Serif" font-size="10.00" fill="#000000">tuple</text>
</g>
<!-- Node1&#45;&gt;Node3 -->
<g id="edge3" class="edge">
<title>Node1&#45;&gt;Node3</title>
<path fill="none" stroke="#191970" d="M204.0746,-56.3733C186.0979,-47.4644 159.1559,-34.1127 138.791,-24.0203"/>
<polygon fill="#191970" stroke="#191970" points="140.1861,-20.8055 129.6719,-19.5011 137.0778,-27.0776 140.1861,-20.8055"/>
</g>
<!-- Node4 -->
<g id="node5" class="node">
<title>Node4</title>
<polygon fill="#ffffff" stroke="#bfbfbf" points="147.5,-.5 147.5,-19.5 209.5,-19.5 209.5,-.5 147.5,-.5"/>
<text text-anchor="middle" x="178.5" y="-7.5" font-family="Helvetica,sans-Serif" font-size="10.00" fill="#000000">type_traits</text>
</g>
<!-- Node1&#45;&gt;Node4 -->
<g id="edge4" class="edge">
<title>Node1&#45;&gt;Node4</title>
<path fill="none" stroke="#191970" d="M215.6616,-56.2455C209.338,-48.3761 200.2776,-37.101 192.6864,-27.6542"/>
<polygon fill="#191970" stroke="#191970" points="195.2408,-25.2454 186.2486,-19.6427 189.7842,-29.6302 195.2408,-25.2454"/>
</g>
<!-- Node5 -->
<g id="node6" class="node">
<title>Node5</title>
<polygon fill="#ffffff" stroke="#bfbfbf" points="228,-.5 228,-19.5 311,-19.5 311,-.5 228,-.5"/>
<text text-anchor="middle" x="269.5" y="-7.5" font-family="Helvetica,sans-Serif" font-size="10.00" fill="#000000">unordered_map</text>
</g>
<!-- Node1&#45;&gt;Node5 -->
<g id="edge5" class="edge">
<title>Node1&#45;&gt;Node5</title>
<path fill="none" stroke="#191970" d="M231.5126,-56.2455C237.9768,-48.3761 247.2385,-37.101 254.9983,-27.6542"/>
<polygon fill="#191970" stroke="#191970" points="257.9364,-29.5916 261.5792,-19.6427 252.5273,-25.1484 257.9364,-29.5916"/>
</g>
<!-- Node6 -->
<g id="node7" class="node">
<title>Node6</title>
<polygon fill="#ffffff" stroke="#bfbfbf" points="329.5,-.5 329.5,-19.5 407.5,-19.5 407.5,-.5 329.5,-.5"/>
<text text-anchor="middle" x="368.5" y="-7.5" font-family="Helvetica,sans-Serif" font-size="10.00" fill="#000000">unordered_set</text>
</g>
<!-- Node1&#45;&gt;Node6 -->
<g id="edge6" class="edge">
<title>Node1&#45;&gt;Node6</title>
<path fill="none" stroke="#191970" d="M248.4264,-56.3733C272.1202,-47.2226 307.9511,-33.3844 334.3068,-23.2057"/>
<polygon fill="#191970" stroke="#191970" points="335.8314,-26.3689 343.8989,-19.5011 333.3094,-19.8389 335.8314,-26.3689"/>
</g>
<!-- Node7 -->
<g id="node8" class="node">
<title>Node7</title>
<polygon fill="#ffffff" stroke="#bfbfbf" points="425.5,-.5 425.5,-19.5 465.5,-19.5 465.5,-.5 425.5,-.5"/>
<text text-anchor="middle" x="445.5" y="-7.5" font-family="Helvetica,sans-Serif" font-size="10.00" fill="#000000">utility</text>
</g>
<!-- Node1&#45;&gt;Node7 -->
<g id="edge7" class="edge">
<title>Node1&#45;&gt;Node7</title>
<path fill="none" stroke="#191970" d="M269.0645,-56.4629C306.2328,-48.3862 360.2502,-35.9753 415.6702,-20.0482"/>
<polygon fill="#191970" stroke="#191970" points="416.6742,-23.4013 425.2996,-17.2488 414.7201,-16.6795 416.6742,-23.4013"/>
</g>
</g>
</svg>
