<?xml version="1.0" encoding="UTF-8" standalone="no"?>
<!DOCTYPE svg PUBLIC "-//W3C//DTD SVG 1.1//EN"
 "http://www.w3.org/Graphics/SVG/1.1/DTD/svg11.dtd">
<!-- Generated by graphviz version 2.40.1 (20161225.0304)
 -->
<!-- Title: lib/include/ellcpp/oracles/network_oracle.hpp Pages: 1 -->
<svg width="158pt" height="173pt"
 viewBox="0.00 0.00 158.00 173.00" xmlns="http://www.w3.org/2000/svg" xmlns:xlink="http://www.w3.org/1999/xlink">
<g id="graph0" class="graph" transform="scale(1 1) rotate(0) translate(4 169)">
<title>lib/include/ellcpp/oracles/network_oracle.hpp</title>
<polygon fill="#ffffff" stroke="transparent" points="-4,4 -4,-169 154,-169 154,4 -4,4"/>
<!-- Node11 -->
<g id="node1" class="node">
<title>Node11</title>
<polygon fill="#bfbfbf" stroke="#000000" points="5.5,-134.5 5.5,-164.5 144.5,-164.5 144.5,-134.5 5.5,-134.5"/>
<text text-anchor="start" x="13.5" y="-152.5" font-family="Helvetica,sans-Serif" font-size="10.00" fill="#000000">lib/include/ellcpp</text>
<text text-anchor="middle" x="75" y="-141.5" font-family="Helvetica,sans-Serif" font-size="10.00" fill="#000000">/oracles/network_oracle.hpp</text>
</g>
<!-- Node12 -->
<g id="node2" class="node">
<title>Node12</title>
<g id="a_node2"><a xlink:href="optscaling__oracle_8hpp.html" target="_top" xlink:title="lib/include/ellcpp\l/oracles/optscaling\l_oracle.hpp">
<polygon fill="#ffffff" stroke="#000000" points="26,-56.5 26,-97.5 124,-97.5 124,-56.5 26,-56.5"/>
<text text-anchor="start" x="34" y="-85.5" font-family="Helvetica,sans-Serif" font-size="10.00" fill="#000000">lib/include/ellcpp</text>
<text text-anchor="start" x="34" y="-74.5" font-family="Helvetica,sans-Serif" font-size="10.00" fill="#000000">/oracles/optscaling</text>
<text text-anchor="middle" x="75" y="-63.5" font-family="Helvetica,sans-Serif" font-size="10.00" fill="#000000">_oracle.hpp</text>
</a>
</g>
</g>
<!-- Node11&#45;&gt;Node12 -->
<g id="edge1" class="edge">
<title>Node11&#45;&gt;Node12</title>
<path fill="none" stroke="#191970" d="M75,-124.4016C75,-115.6173 75,-105.8652 75,-97.5015"/>
<polygon fill="#191970" stroke="#191970" points="71.5001,-124.4779 75,-134.478 78.5001,-124.478 71.5001,-124.4779"/>
</g>
<!-- Node13 -->
<g id="node3" class="node">
<title>Node13</title>
<g id="a_node3"><a xlink:href="test__optscaling_8cpp.html" target="_top" xlink:title="lib/test/src/test_optscaling.cpp">
<polygon fill="#ffffff" stroke="#000000" points="0,-.5 0,-19.5 150,-19.5 150,-.5 0,-.5"/>
<text text-anchor="middle" x="75" y="-7.5" font-family="Helvetica,sans-Serif" font-size="10.00" fill="#000000">lib/test/src/test_optscaling.cpp</text>
</a>
</g>
</g>
<!-- Node12&#45;&gt;Node13 -->
<g id="edge2" class="edge">
<title>Node12&#45;&gt;Node13</title>
<path fill="none" stroke="#191970" d="M75,-46.0909C75,-36.5672 75,-26.7625 75,-19.7805"/>
<polygon fill="#191970" stroke="#191970" points="71.5001,-46.168 75,-56.168 78.5001,-46.1681 71.5001,-46.168"/>
</g>
</g>
</svg>
