<?xml version="1.0" encoding="UTF-8" standalone="no"?>
<!DOCTYPE svg PUBLIC "-//W3C//DTD SVG 1.1//EN"
 "http://www.w3.org/Graphics/SVG/1.1/DTD/svg11.dtd">
<!-- Generated by graphviz version 2.40.1 (20161225.0304)
 -->
<!-- Title: lib/include/ellcpp/oracles/parametric.hpp Pages: 1 -->
<svg width="532pt" height="207pt"
 viewBox="0.00 0.00 532.00 207.00" xmlns="http://www.w3.org/2000/svg" xmlns:xlink="http://www.w3.org/1999/xlink">
<g id="graph0" class="graph" transform="scale(1 1) rotate(0) translate(4 203)">
<title>lib/include/ellcpp/oracles/parametric.hpp</title>
<polygon fill="#ffffff" stroke="transparent" points="-4,4 -4,-203 528,-203 528,4 -4,4"/>
<!-- Node0 -->
<g id="node1" class="node">
<title>Node0</title>
<polygon fill="#bfbfbf" stroke="#000000" points="41.5,-168.5 41.5,-198.5 160.5,-198.5 160.5,-168.5 41.5,-168.5"/>
<text text-anchor="start" x="49.5" y="-186.5" font-family="Helvetica,sans-Serif" font-size="10.00" fill="#000000">lib/include/ellcpp</text>
<text text-anchor="middle" x="101" y="-175.5" font-family="Helvetica,sans-Serif" font-size="10.00" fill="#000000">/oracles/parametric.hpp</text>
</g>
<!-- Node1 -->
<g id="node2" class="node">
<title>Node1</title>
<polygon fill="#ffffff" stroke="#bfbfbf" points="0,-112.5 0,-131.5 54,-131.5 54,-112.5 0,-112.5"/>
<text text-anchor="middle" x="27" y="-119.5" font-family="Helvetica,sans-Serif" font-size="10.00" fill="#000000">iostream</text>
</g>
<!-- Node0&#45;&gt;Node1 -->
<g id="edge1" class="edge">
<title>Node0&#45;&gt;Node1</title>
<path fill="none" stroke="#191970" d="M82.7079,-168.2977C71.7939,-159.2274 57.9329,-147.7077 46.7676,-138.4285"/>
<polygon fill="#191970" stroke="#191970" points="48.7762,-135.5468 38.8483,-131.8469 44.302,-140.9303 48.7762,-135.5468"/>
</g>
<!-- Node2 -->
<g id="node3" class="node">
<title>Node2</title>
<polygon fill="#ffffff" stroke="#bfbfbf" points="58,-.5 58,-19.5 96,-19.5 96,-.5 58,-.5"/>
<text text-anchor="middle" x="77" y="-7.5" font-family="Helvetica,sans-Serif" font-size="10.00" fill="#000000">tuple</text>
</g>
<!-- Node0&#45;&gt;Node2 -->
<g id="edge2" class="edge">
<title>Node0&#45;&gt;Node2</title>
<path fill="none" stroke="#191970" d="M98.9121,-168.4065C94.5695,-137.0126 84.566,-64.6961 79.724,-29.6925"/>
<polygon fill="#191970" stroke="#191970" points="83.1844,-29.1641 78.347,-19.738 76.2504,-30.1233 83.1844,-29.1641"/>
</g>
<!-- Node3 -->
<g id="node4" class="node">
<title>Node3</title>
<polygon fill="#ffffff" stroke="#bfbfbf" points="119,-56.5 119,-75.5 163,-75.5 163,-56.5 119,-56.5"/>
<text text-anchor="middle" x="141" y="-63.5" font-family="Helvetica,sans-Serif" font-size="10.00" fill="#000000">vector</text>
</g>
<!-- Node0&#45;&gt;Node3 -->
<g id="edge3" class="edge">
<title>Node0&#45;&gt;Node3</title>
<path fill="none" stroke="#191970" d="M106.2293,-168.1389C113.4688,-146.873 126.542,-108.4702 134.4313,-85.2956"/>
<polygon fill="#191970" stroke="#191970" points="137.8363,-86.1539 137.7457,-75.5595 131.2097,-83.898 137.8363,-86.1539"/>
</g>
<!-- Node4 -->
<g id="node5" class="node">
<title>Node4</title>
<g id="a_node5"><a xlink:href="neg__cycle_8hpp.html" target="_top" xlink:title="neg_cycle.hpp">
<polygon fill="#ffffff" stroke="#000000" points="148,-112.5 148,-131.5 228,-131.5 228,-112.5 148,-112.5"/>
<text text-anchor="middle" x="188" y="-119.5" font-family="Helvetica,sans-Serif" font-size="10.00" fill="#000000">neg_cycle.hpp</text>
</a>
</g>
</g>
<!-- Node0&#45;&gt;Node4 -->
<g id="edge4" class="edge">
<title>Node0&#45;&gt;Node4</title>
<path fill="none" stroke="#191970" d="M122.5056,-168.2977C135.7968,-158.9022 152.8057,-146.8787 166.1588,-137.4395"/>
<polygon fill="#191970" stroke="#191970" points="168.1846,-140.2937 174.33,-131.6633 164.1439,-134.5776 168.1846,-140.2937"/>
</g>
<!-- Node4&#45;&gt;Node3 -->
<g id="edge12" class="edge">
<title>Node4&#45;&gt;Node3</title>
<path fill="none" stroke="#191970" d="M179.8132,-112.2455C173.1411,-104.2958 163.5521,-92.8706 155.5747,-83.3656"/>
<polygon fill="#191970" stroke="#191970" points="158.2026,-81.0524 149.093,-75.6427 152.8408,-85.5525 158.2026,-81.0524"/>
</g>
<!-- Node5 -->
<g id="node6" class="node">
<title>Node5</title>
<g id="a_node6"><a xlink:href="py2cpp_8hpp.html" target="_top" xlink:title="py2cpp/py2cpp.hpp">
<polygon fill="#ffffff" stroke="#000000" points="186.5,-56.5 186.5,-75.5 287.5,-75.5 287.5,-56.5 186.5,-56.5"/>
<text text-anchor="middle" x="237" y="-63.5" font-family="Helvetica,sans-Serif" font-size="10.00" fill="#000000">py2cpp/py2cpp.hpp</text>
</a>
</g>
</g>
<!-- Node4&#45;&gt;Node5 -->
<g id="edge5" class="edge">
<title>Node4&#45;&gt;Node5</title>
<path fill="none" stroke="#191970" d="M196.5351,-112.2455C203.4912,-104.2958 213.4883,-92.8706 221.8051,-83.3656"/>
<polygon fill="#191970" stroke="#191970" points="224.6116,-85.4732 228.5627,-75.6427 219.3436,-80.8637 224.6116,-85.4732"/>
</g>
<!-- Node5&#45;&gt;Node2 -->
<g id="edge7" class="edge">
<title>Node5&#45;&gt;Node2</title>
<path fill="none" stroke="#191970" d="M209.4213,-56.4584C184.6325,-47.867 146.9877,-34.7826 105.926,-20.3107"/>
<polygon fill="#191970" stroke="#191970" points="106.8676,-16.9315 96.2727,-16.9051 104.5386,-23.5328 106.8676,-16.9315"/>
</g>
<!-- Node6 -->
<g id="node7" class="node">
<title>Node6</title>
<polygon fill="#ffffff" stroke="#bfbfbf" points="114.5,-.5 114.5,-19.5 187.5,-19.5 187.5,-.5 114.5,-.5"/>
<text text-anchor="middle" x="151" y="-7.5" font-family="Helvetica,sans-Serif" font-size="10.00" fill="#000000">initializer_list</text>
</g>
<!-- Node5&#45;&gt;Node6 -->
<g id="edge6" class="edge">
<title>Node5&#45;&gt;Node6</title>
<path fill="none" stroke="#191970" d="M222.0199,-56.2455C208.8249,-47.6534 189.3949,-35.0014 174.1921,-25.1018"/>
<polygon fill="#191970" stroke="#191970" points="176.0983,-22.1665 165.8084,-19.6427 172.2785,-28.0325 176.0983,-22.1665"/>
</g>
<!-- Node7 -->
<g id="node8" class="node">
<title>Node7</title>
<polygon fill="#ffffff" stroke="#bfbfbf" points="206,-.5 206,-19.5 268,-19.5 268,-.5 206,-.5"/>
<text text-anchor="middle" x="237" y="-7.5" font-family="Helvetica,sans-Serif" font-size="10.00" fill="#000000">type_traits</text>
</g>
<!-- Node5&#45;&gt;Node7 -->
<g id="edge8" class="edge">
<title>Node5&#45;&gt;Node7</title>
<path fill="none" stroke="#191970" d="M237,-56.2455C237,-48.9382 237,-38.6944 237,-29.7046"/>
<polygon fill="#191970" stroke="#191970" points="240.5001,-29.6426 237,-19.6427 233.5001,-29.6427 240.5001,-29.6426"/>
</g>
<!-- Node8 -->
<g id="node9" class="node">
<title>Node8</title>
<polygon fill="#ffffff" stroke="#bfbfbf" points="286.5,-.5 286.5,-19.5 369.5,-19.5 369.5,-.5 286.5,-.5"/>
<text text-anchor="middle" x="328" y="-7.5" font-family="Helvetica,sans-Serif" font-size="10.00" fill="#000000">unordered_map</text>
</g>
<!-- Node5&#45;&gt;Node8 -->
<g id="edge9" class="edge">
<title>Node5&#45;&gt;Node8</title>
<path fill="none" stroke="#191970" d="M252.851,-56.2455C266.8132,-47.6534 287.3728,-35.0014 303.4596,-25.1018"/>
<polygon fill="#191970" stroke="#191970" points="305.6484,-27.8645 312.3307,-19.6427 301.9797,-21.9029 305.6484,-27.8645"/>
</g>
<!-- Node9 -->
<g id="node10" class="node">
<title>Node9</title>
<polygon fill="#ffffff" stroke="#bfbfbf" points="388,-.5 388,-19.5 466,-19.5 466,-.5 388,-.5"/>
<text text-anchor="middle" x="427" y="-7.5" font-family="Helvetica,sans-Serif" font-size="10.00" fill="#000000">unordered_set</text>
</g>
<!-- Node5&#45;&gt;Node9 -->
<g id="edge10" class="edge">
<title>Node5&#45;&gt;Node9</title>
<path fill="none" stroke="#191970" d="M269.6622,-56.3733C301.5298,-46.9807 350.1531,-32.6496 384.907,-22.4064"/>
<polygon fill="#191970" stroke="#191970" points="386.1615,-25.6855 394.764,-19.5011 384.1825,-18.9711 386.1615,-25.6855"/>
</g>
<!-- Node10 -->
<g id="node11" class="node">
<title>Node10</title>
<polygon fill="#ffffff" stroke="#bfbfbf" points="484,-.5 484,-19.5 524,-19.5 524,-.5 484,-.5"/>
<text text-anchor="middle" x="504" y="-7.5" font-family="Helvetica,sans-Serif" font-size="10.00" fill="#000000">utility</text>
</g>
<!-- Node5&#45;&gt;Node10 -->
<g id="edge11" class="edge">
<title>Node5&#45;&gt;Node10</title>
<path fill="none" stroke="#191970" d="M287.6147,-58.3462C333.9405,-50.8643 404.4844,-38.2765 474.0276,-19.9815"/>
<polygon fill="#191970" stroke="#191970" points="475.0736,-23.3249 483.8312,-17.3621 473.2666,-16.5621 475.0736,-23.3249"/>
</g>
</g>
</svg>
