<?xml version="1.0" encoding="UTF-8" standalone="no"?>
<!DOCTYPE svg PUBLIC "-//W3C//DTD SVG 1.1//EN"
 "http://www.w3.org/Graphics/SVG/1.1/DTD/svg11.dtd">
<!-- Generated by graphviz version 2.40.1 (20161225.0304)
 -->
<!-- Title: lib/include/ellcpp/oracles/parametric.hpp Pages: 1 -->
<svg width="240pt" height="173pt"
 viewBox="0.00 0.00 239.50 173.00" xmlns="http://www.w3.org/2000/svg" xmlns:xlink="http://www.w3.org/1999/xlink">
<g id="graph0" class="graph" transform="scale(1 1) rotate(0) translate(4 169)">
<title>lib/include/ellcpp/oracles/parametric.hpp</title>
<polygon fill="#ffffff" stroke="transparent" points="-4,4 -4,-169 235.5,-169 235.5,4 -4,4"/>
<!-- Node11 -->
<g id="node1" class="node">
<title>Node11</title>
<polygon fill="#bfbfbf" stroke="#000000" points="57.5,-134.5 57.5,-164.5 176.5,-164.5 176.5,-134.5 57.5,-134.5"/>
<text text-anchor="start" x="65.5" y="-152.5" font-family="Helvetica,sans-Serif" font-size="10.00" fill="#000000">lib/include/ellcpp</text>
<text text-anchor="middle" x="117" y="-141.5" font-family="Helvetica,sans-Serif" font-size="10.00" fill="#000000">/oracles/parametric.hpp</text>
</g>
<!-- Node12 -->
<g id="node2" class="node">
<title>Node12</title>
<g id="a_node2"><a xlink:href="min__cycle__ratio_8hpp.html" target="_top" xlink:title="lib/include/ellcpp\l/oracles/min_cycle_ratio.hpp">
<polygon fill="#ffffff" stroke="#000000" points="46.5,-67.5 46.5,-97.5 187.5,-97.5 187.5,-67.5 46.5,-67.5"/>
<text text-anchor="start" x="54.5" y="-85.5" font-family="Helvetica,sans-Serif" font-size="10.00" fill="#000000">lib/include/ellcpp</text>
<text text-anchor="middle" x="117" y="-74.5" font-family="Helvetica,sans-Serif" font-size="10.00" fill="#000000">/oracles/min_cycle_ratio.hpp</text>
</a>
</g>
</g>
<!-- Node11&#45;&gt;Node12 -->
<g id="edge1" class="edge">
<title>Node11&#45;&gt;Node12</title>
<path fill="none" stroke="#191970" d="M117,-124.0249C117,-115.128 117,-105.4287 117,-97.6432"/>
<polygon fill="#191970" stroke="#191970" points="113.5001,-124.2966 117,-134.2967 120.5001,-124.2967 113.5001,-124.2966"/>
</g>
<!-- Node13 -->
<g id="node3" class="node">
<title>Node13</title>
<g id="a_node3"><a xlink:href="test__cycle__ratio_8cpp.html" target="_top" xlink:title="lib/test/src/test_cycle\l_ratio.cpp">
<polygon fill="#ffffff" stroke="#000000" points="0,-.5 0,-30.5 110,-30.5 110,-.5 0,-.5"/>
<text text-anchor="start" x="8" y="-18.5" font-family="Helvetica,sans-Serif" font-size="10.00" fill="#000000">lib/test/src/test_cycle</text>
<text text-anchor="middle" x="55" y="-7.5" font-family="Helvetica,sans-Serif" font-size="10.00" fill="#000000">_ratio.cpp</text>
</a>
</g>
</g>
<!-- Node12&#45;&gt;Node13 -->
<g id="edge2" class="edge">
<title>Node12&#45;&gt;Node13</title>
<path fill="none" stroke="#191970" d="M96.11,-59.9253C87.1871,-50.2828 77.0093,-39.2843 69.0131,-30.6432"/>
<polygon fill="#191970" stroke="#191970" points="93.5704,-62.3342 102.9312,-67.2967 98.7082,-57.5798 93.5704,-62.3342"/>
</g>
<!-- Node14 -->
<g id="node4" class="node">
<title>Node14</title>
<g id="a_node4"><a xlink:href="test__neg__cycle_8cpp.html" target="_top" xlink:title="lib/test/src/test_neg\l_cycle.cpp">
<polygon fill="#ffffff" stroke="#000000" points="128.5,-.5 128.5,-30.5 231.5,-30.5 231.5,-.5 128.5,-.5"/>
<text text-anchor="start" x="136.5" y="-18.5" font-family="Helvetica,sans-Serif" font-size="10.00" fill="#000000">lib/test/src/test_neg</text>
<text text-anchor="middle" x="180" y="-7.5" font-family="Helvetica,sans-Serif" font-size="10.00" fill="#000000">_cycle.cpp</text>
</a>
</g>
</g>
<!-- Node12&#45;&gt;Node14 -->
<g id="edge3" class="edge">
<title>Node12&#45;&gt;Node14</title>
<path fill="none" stroke="#191970" d="M138.227,-59.9253C147.2938,-50.2828 157.6357,-39.2843 165.7609,-30.6432"/>
<polygon fill="#191970" stroke="#191970" points="135.5961,-57.6138 131.2957,-67.2967 140.6958,-62.409 135.5961,-57.6138"/>
</g>
</g>
</svg>
