<?xml version="1.0" encoding="iso-8859-1" standalone="no"?> 
<?xml-stylesheet href="TE_export636161366691747003.css" type="text/css"?> 
<svg xmlns="http://www.w3.org/2000/svg" xmlns:xlink="http://www.w3.org/1999/xlink" width="624pt" height="348pt" viewBox="-37.5576 -70.5629 312.12662 174.13086 "> 
<g transform="translate(0, 103.56796 ) scale(1,-1) translate(0,70.5629 )"> 
           <g> 
 <g stroke="rgb(0.0%,0.0%,0.0%)"> 
 <g fill="rgb(0.0%,0.0%,0.0%)"> 
 <g stroke-width="0.4pt"> 
 <g> 
 <g stroke-linecap="round"> 
 <g stroke-linejoin="round"> 
 <clipPath id="pgfcp1"> <path d=" M  -37.5576 -70.5629 M  -37.5576 -70.5629 L  -37.5576 103.56796 L  274.56902 103.56796 L  274.56902 -70.5629 Z M  274.56902 103.56796  "/> 
</clipPath> 
 <g clip-path="url(#pgfcp1)"> 
 <g> 
 <g stroke="rgb(60.00061%,19.9997%,0.0%)"> 
 <g fill="rgb(60.00061%,19.9997%,0.0%)"> 
 <g fill="rgb(60.00061%,19.9997%,0.0%)"> 
 <g fill-opacity="0.1"> 
 <path d=" M  72.26999 47.80061 L  60.0353 23.33124 L  94.46309 44.10184 Z  " style="stroke:none"/> 
 </g> 
 </g> 
 </g> 
 </g> 
 </g> 
 <g> 
 <g stroke="rgb(60.00061%,19.9997%,0.0%)"> 
 <g fill="rgb(60.00061%,19.9997%,0.0%)"> 
 <g fill="rgb(60.00061%,19.9997%,0.0%)"> 
 <g fill-opacity="0.1"> 
 <path d=" M  82.16068 23.07399 L  56.9198 2.41324 L  127.29732 21.77435 Z  " style="stroke:none"/> 
 </g> 
 </g> 
 </g> 
 </g> 
 </g> 
 <g> 
 <g stroke="rgb(60.00061%,19.9997%,0.0%)"> 
 <g fill="rgb(60.00061%,19.9997%,0.0%)"> 
 <path d=" M  72.26999 47.80061 L  60.0353 23.33124  " style="fill:none"/> 
 </g> 
 </g> 
 </g> 
 <g> 
 <g stroke="rgb(60.00061%,19.9997%,0.0%)"> 
 <g fill="rgb(60.00061%,19.9997%,0.0%)"> 
 <path d=" M  60.0353 23.33124 L  94.46309 44.10184  " style="fill:none"/> 
 </g> 
 </g> 
 </g> 
 <g> 
 <g stroke="rgb(60.00061%,19.9997%,0.0%)"> 
 <g fill="rgb(60.00061%,19.9997%,0.0%)"> 
 <path d=" M  94.46309 44.10184 L  72.26999 47.80061  " style="fill:none"/> 
 </g> 
 </g> 
 </g> 
 <g> 
 <g stroke-dasharray="5.0pt,5.0pt" stroke-dashoffset="0.0pt"> 
 <path d=" M  -37.5576 322.37332 L  -24.5525 289.86015 L  -11.54741 257.34654 L  1.45767 224.83401 L  14.46277 192.32085 L  27.46785 159.80745 L  40.47295 127.29428 L  53.47804 94.78067 L  66.48314 62.26772 L  79.48824 29.75455 L  92.49333 -2.75882 L  105.49843 -35.27179 L  118.50352 -67.78496 L  131.50862 -100.29857 L  144.51372 -132.81152 L  157.51881 -165.32469 L  170.52391 -197.8383 L  183.529 -230.35126 L  196.5341 -262.86485 L  209.5392 -295.37804 L  222.54428 -327.89099 L  235.54938 -360.40459 L  248.55447 -392.91756 L  261.55957 -425.43073 L  274.56467 -457.94434  " style="fill:none"/> 
 </g> 
 </g> 
 <g> 
 <g stroke-dasharray="5.0pt,5.0pt" stroke-dashoffset="0.0pt"> 
 <path d=" M  -37.5576 -631.94322 L  -24.5525 -544.62173 L  -11.54741 -457.30092 L  1.45767 -369.97987 L  14.46277 -282.65904 L  27.46785 -195.33757 L  40.47295 -108.01631 L  53.47804 -20.69527 L  66.48314 66.62576 L  79.48824 153.94724 L  92.49333 241.26807 L  105.49843 328.58954 L  118.50352 415.91103 L  131.50862 503.23184 L  144.51372 590.55331 L  157.51881 677.87459 L  170.52391 765.19562 L  183.529 852.51688 L  196.5341 939.8377 L  209.5392 1027.15918 L  222.54428 1114.48067 L  235.54938 1201.80148 L  248.55447 1289.12297 L  261.55957 1376.44423 L  274.56467 1463.76527  " style="fill:none"/> 
 </g> 
 </g> 
 <g> 
 <g stroke-dasharray="5.0pt,5.0pt" stroke-dashoffset="0.0pt"> 
 <path d=" M  -37.5576 133.87563 L  -24.5525 125.03212 L  -11.54741 116.18883 L  1.45767 107.34532 L  14.46277 98.50182 L  27.46785 89.65852 L  40.47295 80.81502 L  53.47804 71.97151 L  66.48314 63.12799 L  79.48824 54.28448 L  92.49333 45.4412 L  105.49843 36.59769 L  118.50352 27.75418 L  131.50862 18.91068 L  144.51372 10.06717 L  157.51881 1.22366 L  170.52391 -7.61961 L  183.529 -16.46313 L  196.5341 -25.30641 L  209.5392 -34.14993 L  222.54428 -42.99344 L  235.54938 -51.83694 L  248.55447 -60.68045 L  261.55957 -69.52396 L  274.56467 -78.36725  " style="fill:none"/> 
 </g> 
 </g> 
 <g> 
 <g stroke="rgb(60.00061%,19.9997%,0.0%)"> 
 <g fill="rgb(60.00061%,19.9997%,0.0%)"> 
 <path d=" M  82.16068 23.07399 L  56.9198 2.41324  " style="fill:none"/> 
 </g> 
 </g> 
 </g> 
 <g> 
 <g stroke="rgb(60.00061%,19.9997%,0.0%)"> 
 <g fill="rgb(60.00061%,19.9997%,0.0%)"> 
 <path d=" M  56.9198 2.41324 L  127.29732 21.77435  " style="fill:none"/> 
 </g> 
 </g> 
 </g> 
 <g> 
 <g stroke="rgb(60.00061%,19.9997%,0.0%)"> 
 <g fill="rgb(60.00061%,19.9997%,0.0%)"> 
 <path d=" M  127.29732 21.77435 L  82.16068 23.07399  " style="fill:none"/> 
 </g> 
 </g> 
 </g> 
 <g> 
 <g stroke="rgb(100.0%,0.0%,0.0%)"> 
 <g fill="rgb(100.0%,0.0%,0.0%)"> 
 <path d=" M  -37.5576 -171.84634 L  -24.5525 -145.83723 L  -11.54741 -119.82835 L  1.45767 -93.81967 L  14.46277 -67.81058 L  27.46785 -41.80168 L  40.47295 -15.79279 L  53.47804 10.21587 L  66.48314 36.22498 L  79.48824 62.23386 L  92.49333 88.24275 L  105.49843 114.25163 L  118.50352 140.26096 L  131.50862 166.26985 L  144.51372 192.27873 L  157.51881 218.28784 L  170.52391 244.29672 L  183.529 270.30562 L  196.5341 296.3145 L  209.5392 322.32361 L  222.54428 348.3325 L  235.54938 374.34138 L  248.55447 400.35028 L  261.55957 426.35938 L  274.56467 452.36827  " style="fill:none"/> 
 </g> 
 </g> 
 </g> 
 <g> 
 <g stroke="rgb(100.0%,0.0%,0.0%)"> 
 <g fill="rgb(100.0%,0.0%,0.0%)"> 
 <path d=" M  -37.5576 -74.92029 L  -24.5525 -64.27481 L  -11.54741 -53.62914 L  1.45767 -42.98344 L  14.46277 -32.33928 L  27.46785 -21.69382 L  40.47295 -11.04814 L  53.47804 -0.40266 L  66.48314 10.24017 L  79.48824 20.88564 L  92.49333 31.53133 L  105.49843 42.17549 L  118.50352 52.82248 L  131.50862 63.46664 L  144.51372 74.11232 L  157.51881 84.75778 L  170.52391 95.40347 L  183.529 106.04915 L  196.5341 116.69331 L  209.5392 127.33879 L  222.54428 137.98447 L  235.54938 148.62993 L  248.55447 159.27562 L  261.55957 169.91978 L  274.56467 180.56546  " style="fill:none"/> 
 </g> 
 </g> 
 </g> 
 <g> 
 <g stroke="rgb(0.0%,0.0%,100.0%)"> 
 <g fill="rgb(0.0%,0.0%,100.0%)"> 
 <path d=" M  -37.5576 66.10434 L  -24.5525 63.93748 L  -11.54741 61.76953 L  1.45767 59.60287 L  14.46277 57.43471 L  27.46785 55.26807 L  40.47295 53.0999 L  53.47804 50.93173 L  66.48314 48.76509 L  79.48824 46.59843 L  92.49333 44.43027 L  105.49843 42.26231 L  118.50352 40.09415 L  131.50862 37.9275 L  144.51372 35.75934 L  157.51881 33.5927 L  170.52391 31.41324 L  183.529 29.25787 L  196.5341 27.08992 L  209.5392 24.92328 L  222.54428 22.75511 L  235.54938 20.58847 L  248.55447 18.4203 L  261.55957 16.25365 L  274.56467 14.08548  " style="fill:none"/> 
 </g> 
 </g> 
 </g> 
 <g> 
 <g stroke="rgb(0.0%,0.0%,100.0%)"> 
 <g fill="rgb(0.0%,0.0%,100.0%)"> 
 <path d=" M  -37.5576 26.52097 L  -24.5525 26.14629 L  -11.54741 25.77184 L  1.45767 25.3976 L  14.46277 25.02313 L  27.46785 24.64868 L  40.47295 24.27422 L  53.47804 23.89977 L  66.48314 23.5253 L  79.48824 23.15062 L  92.49333 22.77617 L  105.49843 22.40193 L  118.50352 22.02747 L  131.50862 21.65302 L  144.51372 21.27855 L  157.51881 20.9041 L  170.52391 20.52963 L  183.529 20.15495 L  196.5341 19.78072 L  209.5392 19.40627 L  222.54428 19.03159 L  235.54938 18.65712 L  248.55447 18.28288 L  261.55957 17.9082 L  274.56467 17.53375  " style="fill:none"/> 
 </g> 
 </g> 
 </g> 
 <g> 
 <g stroke="rgb(0.0%,39.99939%,19.9997%)"> 
 <g fill="rgb(0.0%,39.99939%,19.9997%)"> 
 <path d=" M  -37.5576 -35.5466 L  -24.5525 -27.70035 L  -11.54741 -19.85452 L  1.45767 -12.0087 L  14.46277 -4.16266 L  27.46785 3.6825 L  40.47295 11.52853 L  53.47804 19.375 L  66.48314 27.22083 L  79.48824 35.06708 L  92.49333 42.91312 L  105.49843 50.75894 L  118.50352 58.6052 L  131.50862 66.45145 L  144.51372 74.2977 L  157.51881 82.14352 L  170.52391 89.98956 L  183.529 97.83539 L  196.5341 105.68164 L  209.5392 113.5279 L  222.54428 121.37416 L  235.54938 129.22018 L  248.55447 137.06601 L  261.55957 144.91226 L  274.56467 152.75809  " style="fill:none"/> 
 </g> 
 </g> 
 </g> 
 <g> 
 <g stroke="rgb(0.0%,39.99939%,19.9997%)"> 
 <g fill="rgb(0.0%,39.99939%,19.9997%)"> 
 <path d=" M  -37.5576 -23.57784 L  -24.5525 -20.00018 L  -11.54741 -16.42232 L  1.45767 -12.84445 L  14.46277 -9.2668 L  27.46785 -5.68936 L  40.47295 -2.1115 L  53.47804 1.46635 L  66.48314 5.04422 L  79.48824 8.62187 L  92.49333 12.19974 L  105.49843 15.77737 L  118.50352 19.35524 L  131.50862 22.92009 L  144.51372 26.51076 L  157.51881 30.08862 L  170.52391 33.66628 L  183.529 37.24414 L  196.5341 40.8218 L  209.5392 44.39966 L  222.54428 47.9771 L  235.54938 51.55496 L  248.55447 55.13283 L  261.55957 58.7107 L  274.56467 62.28835  " style="fill:none"/> 
 </g> 
 </g> 
 </g> 
 <path d=" M  -37.5576 -18.17197 L  -24.5525 -16.52174 L  -11.54741 -14.87173 L  1.45767 -13.22173 L  14.46277 -11.57173 L  27.46785 -9.92172 L  40.47295 -8.27171 L  53.47804 -6.6215 L  66.48314 -4.9715 L  79.48824 -3.32149 L  92.49333 -1.6715 L  105.49843 -0.02148 L  118.50352 1.6283 L  131.50862 3.27829 L  144.51372 4.92851 L  157.51881 6.57852 L  170.52391 8.22852 L  183.529 9.87852 L  196.5341 11.52853 L  209.5392 13.17853 L  222.54428 14.82875 L  235.54938 16.47876 L  248.55447 18.12875 L  261.55957 19.77876 L  274.56467 21.42877  " style="fill:none"/> 
 <g> 
 <g fill="rgb(0.0%,100.0%,0.0%)"> 
 <path d=" M  72.26999 47.80061 M  73.01999 47.80061 C  73.01999 48.21483 72.6842 48.55061 72.26999 48.55061 C  71.85577 48.55061 71.51999 48.21483 71.51999 47.80061 C  71.51999 47.3864 71.85577 47.05061 72.26999 47.05061 C  72.6842 47.05061 73.01999 47.3864 73.01999 47.80061 Z M  72.26999 47.80061  " /> 
 </g> 
 </g> 
 <g> 
 <g stroke="rgb(0.0%,100.0%,0.0%)"> 
 <g fill="rgb(0.0%,100.0%,0.0%)"> 
 <path d=" M  74.26167 51.78398  " style="fill:none"/> 
 <g> 
 <g> 
 <g transform="matrix(1.0,0.0,0.0,1.0,71.25471,49.39232)"> 
 <g fill="rgb(0.0%,100.0%,0.0%)"> 
 <text style="stroke:none" transform="scale(1,-1) translate(3.00696,0)" text-anchor="middle"  font-size="7"> 
<tspan font-family="cmmi" font-size="7">A</tspan></text> 
</g> 
 </g> 
 </g> 
 </g> 
 </g> 
 </g> 
 </g> 
 <g> 
 <g fill="rgb(0.0%,0.0%,100.0%)"> 
 <path d=" M  60.0353 23.33124 M  60.7853 23.33124 C  60.7853 23.74545 60.44951 24.08124 60.0353 24.08124 C  59.62108 24.08124 59.2853 23.74545 59.2853 23.33124 C  59.2853 22.91702 59.62108 22.58124 60.0353 22.58124 C  60.44951 22.58124 60.7853 22.91702 60.7853 23.33124 Z M  60.0353 23.33124  " /> 
 </g> 
 </g> 
 <g> 
 <g stroke="rgb(0.0%,0.0%,100.0%)"> 
 <g fill="rgb(0.0%,0.0%,100.0%)"> 
 <path d=" M  62.02698 27.3146  " style="fill:none"/> 
 <g> 
 <g> 
 <g transform="matrix(1.0,0.0,0.0,1.0,58.83548,24.92294)"> 
 <g fill="rgb(0.0%,0.0%,100.0%)"> 
 <text style="stroke:none" transform="scale(1,-1) translate(3.1915,0)" text-anchor="middle"  font-size="7"> 
<tspan font-family="cmmi" font-size="7">B</tspan></text> 
</g> 
 </g> 
 </g> 
 </g> 
 </g> 
 </g> 
 </g> 
 <g> 
 <g fill="rgb(100.0%,0.0%,0.0%)"> 
 <path d=" M  94.46309 44.10184 M  95.21309 44.10184 C  95.21309 44.51605 94.8773 44.85184 94.46309 44.85184 C  94.04887 44.85184 93.71309 44.51605 93.71309 44.10184 C  93.71309 43.68762 94.04887 43.35184 94.46309 43.35184 C  94.8773 43.35184 95.21309 43.68762 95.21309 44.10184 Z M  94.46309 44.10184  " /> 
 </g> 
 </g> 
 <g> 
 <g stroke="rgb(100.0%,0.0%,0.0%)"> 
 <g fill="rgb(100.0%,0.0%,0.0%)"> 
 <path d=" M  96.45477 48.0852  " style="fill:none"/> 
 <g> 
 <g> 
 <g transform="matrix(1.0,0.0,0.0,1.0,93.34178,45.69354)"> 
 <g fill="rgb(100.0%,0.0%,0.0%)"> 
 <text style="stroke:none" transform="scale(1,-1) translate(3.11299,0)" text-anchor="middle"  font-size="7"> 
<tspan font-family="cmmi" font-size="7">C</tspan></text> 
</g> 
 </g> 
 </g> 
 </g> 
 </g> 
 </g> 
 </g> 
 <g> 
 <g fill="rgb(0.0%,0.0%,0.0%)"> 
 <path d=" M  66.01035 63.4497 M  66.76035 63.4497 C  66.76035 63.86392 66.42456 64.1997 66.01035 64.1997 C  65.59613 64.1997 65.26035 63.86392 65.26035 63.4497 C  65.26035 63.03549 65.59613 62.6997 66.01035 62.6997 C  66.42456 62.6997 66.76035 63.03549 66.76035 63.4497 Z M  66.01035 63.4497  " /> 
 </g> 
 </g> 
 <g> 
 <g stroke="rgb(0.0%,0.0%,0.0%)"> 
 <g fill="rgb(0.0%,0.0%,0.0%)"> 
 <path d=" M  68.00203 67.43307  " style="fill:none"/> 
 <g> 
 <g> 
 <g transform="matrix(1.0,0.0,0.0,1.0,64.85315,65.04141)"> 
 <g fill="rgb(0.0%,0.0%,0.0%)"> 
 <text style="stroke:none" transform="scale(1,-1) translate(3.14888,0)" text-anchor="middle"  font-size="7"> 
<tspan font-family="cmmi" font-size="7">O</tspan></text> 
</g> 
 </g> 
 </g> 
 </g> 
 </g> 
 </g> 
 </g> 
 <g> 
 <g fill="rgb(0.0%,100.0%,0.0%)"> 
 <path d=" M  82.16068 23.07399 M  82.91068 23.07399 C  82.91068 23.4882 82.57489 23.82399 82.16068 23.82399 C  81.74646 23.82399 81.41068 23.4882 81.41068 23.07399 C  81.41068 22.65977 81.74646 22.32399 82.16068 22.32399 C  82.57489 22.32399 82.91068 22.65977 82.91068 23.07399 Z M  82.16068 23.07399  " /> 
 </g> 
 </g> 
 <g> 
 <g stroke="rgb(0.0%,100.0%,0.0%)"> 
 <g fill="rgb(0.0%,100.0%,0.0%)"> 
 <path d=" M  84.2201 27.03001  " style="fill:none"/> 
 <g> 
 <g> 
 <g transform="matrix(1.0,0.0,0.0,1.0,80.06036,24.63835)"> 
 <g fill="rgb(0.0%,100.0%,0.0%)"> 
 <text style="stroke:none" transform="scale(1,-1) translate(4.15973,0)" text-anchor="middle"  font-size="7"> 
<tspan font-family="cmmi" font-size="7">A</tspan><tspan font-family="cmsy" font-size="7">&#x2032;</tspan></text> 
</g> 
 </g> 
 </g> 
 </g> 
 </g> 
 </g> 
 </g> 
 <g> 
 <g fill="rgb(0.0%,0.0%,100.0%)"> 
 <path d=" M  56.9198 2.41324 M  57.6698 2.41324 C  57.6698 2.82745 57.33401 3.16324 56.9198 3.16324 C  56.50558 3.16324 56.1698 2.82745 56.1698 2.41324 C  56.1698 1.99902 56.50558 1.66324 56.9198 1.66324 C  57.33401 1.66324 57.6698 1.99902 57.6698 2.41324 Z M  56.9198 2.41324  " /> 
 </g> 
 </g> 
 <g> 
 <g stroke="rgb(0.0%,0.0%,100.0%)"> 
 <g fill="rgb(0.0%,0.0%,100.0%)"> 
 <path d=" M  58.89716 6.25963  " style="fill:none"/> 
 <g> 
 <g> 
 <g transform="matrix(1.0,0.0,0.0,1.0,54.55289,3.86797)"> 
 <g fill="rgb(0.0%,0.0%,100.0%)"> 
 <text style="stroke:none" transform="scale(1,-1) translate(4.34427,0)" text-anchor="middle"  font-size="7"> 
<tspan font-family="cmmi" font-size="7">B</tspan><tspan font-family="cmsy" font-size="7">&#x2032;</tspan></text> 
</g> 
 </g> 
 </g> 
 </g> 
 </g> 
 </g> 
 </g> 
 <g> 
 <g fill="rgb(100.0%,0.0%,0.0%)"> 
 <path d=" M  127.29732 21.77435 M  128.04732 21.77435 C  128.04732 22.18857 127.71153 22.52435 127.29732 22.52435 C  126.8831 22.52435 126.54732 22.18857 126.54732 21.77435 C  126.54732 21.36014 126.8831 21.02435 127.29732 21.02435 C  127.71153 21.02435 128.04732 21.36014 128.04732 21.77435 Z M  127.29732 21.77435  " /> 
 </g> 
 </g> 
 <g> 
 <g stroke="rgb(100.0%,0.0%,0.0%)"> 
 <g fill="rgb(100.0%,0.0%,0.0%)"> 
 <path d=" M  129.17548 25.89209  " style="fill:none"/> 
 <g> 
 <g> 
 <g transform="matrix(1.0,0.0,0.0,1.0,124.90971,23.50043)"> 
 <g fill="rgb(100.0%,0.0%,0.0%)"> 
 <text style="stroke:none" transform="scale(1,-1) translate(4.26576,0)" text-anchor="middle"  font-size="7"> 
<tspan font-family="cmmi" font-size="7">C</tspan><tspan font-family="cmsy" font-size="7">&#x2032;</tspan></text> 
</g> 
 </g> 
 </g> 
 </g> 
 </g> 
 </g> 
 </g> 
 <g> 
 <g fill="rgb(0.0%,0.0%,0.0%)"> 
 <path d=" M  44.48845 -7.76224 M  45.23845 -7.76224 C  45.23845 -7.34802 44.90266 -7.01224 44.48845 -7.01224 C  44.07423 -7.01224 43.73845 -7.34802 43.73845 -7.76224 C  43.73845 -8.17645 44.07423 -8.51224 44.48845 -8.51224 C  44.90266 -8.51224 45.23845 -8.17645 45.23845 -7.76224 Z M  44.48845 -7.76224  " /> 
 </g> 
 </g> 
 <g> 
 <g fill="rgb(0.0%,0.0%,0.0%)"> 
 <path d=" M  249.54544 18.25467 M  250.29544 18.25467 C  250.29544 18.66888 249.95966 19.00467 249.54544 19.00467 C  249.13123 19.00467 248.79544 18.66888 248.79544 18.25467 C  248.79544 17.84045 249.13123 17.50467 249.54544 17.50467 C  249.95966 17.50467 250.29544 17.84045 250.29544 18.25467 Z M  249.54544 18.25467  " /> 
 </g> 
 </g> 
 <g> 
 <g fill="rgb(0.0%,0.0%,0.0%)"> 
 <path d=" M  -1.0882 -13.54495 M  -0.3382 -13.54495 C  -0.3382 -13.13074 -0.67398 -12.79495 -1.0882 -12.79495 C  -1.50241 -12.79495 -1.8382 -13.13074 -1.8382 -13.54495 C  -1.8382 -13.95917 -1.50241 -14.29495 -1.0882 -14.29495 C  -0.67398 -14.29495 -0.3382 -13.95917 -0.3382 -13.54495 Z M  -1.0882 -13.54495  " /> 
 </g> 
 </g> 
 </g> 
 </g> 
 </g> 
 </g> 
 </g> 
 </g> 
 </g> 
 </g> 
 
                                                   </g> 
</svg> 
