<?xml-stylesheet href="TE_export636161365739252523.css" type="text/css"?><svg xmlns="http://www.w3.org/2000/svg" width="832" height="464" viewBox="-37.6 -70.6 312.1 174.1"><g stroke="#000" stroke-linecap="round" stroke-linejoin="round" stroke-width=".5" transform="matrix(1 0 0 -1 0 33)"><clipPath id="a"><path d="M-37.6-70.6v174.2h312.2V-70.6zm312.2 174.2"/></clipPath><g clip-path="url(#a)"><path fill="#930" fill-opacity=".1" stroke="none" d="M72.3 47.8L55.8 23.6l38.7 20.5zM164.2-29L63.4-9 169.1 4z"/><path fill="none" stroke="#930" d="M72.3 47.8L55.8 23.6M55.8 23.6l38.7 20.5M94.5 44.1l-22.2 3.7"/><path fill="none" stroke-dasharray="5pt 5pt" d="M-37.6 139.5l13-10.8 13-11 13-10.8 13-10.8 13-10.9 13-10.8 13-11 13-10.8 13-10.8 13-10.9 13.1-10.8 13-11 13-10.8 13-10.8 13-10.9 13-10.8 13-10.9 13-10.9 13-10.8 13-10.9 13-10.8 13-11 13-10.8 13-10.8"/><path fill="none" stroke-dasharray="5pt 5pt" d="M-37.6 420.8l13-55.3 13-55.4 13-55.3 13-55.4 13-55.3 13-55.4 13-55.3 13-55.4 13-55.4 13-55.3 13.1-55.4 13-55.3 13-55.4 13-55.3 13-55.4 13-55.3 13-55.4 13-55.4 13-55.3 13-55.4 13-55.3 13-55.4 13-55.3 13-55.4"/><path fill="none" stroke-dasharray="5pt 5pt" d="M-37.6 115l13-7 13-7 13-7 13-7 13-7 13-6.9 13-7 13-7 13-7 13-7 13.1-7 13-7 13-6.9 13-7 13-7 13-7 13-7 13-7 13-7 13-6.9 13-7 13-7 13-7 13-7"/><path fill="none" stroke="#930" d="M164.2-29L63.4-9M63.4-9L169.1 4M169.1 4l-4.9-33"/><path fill="none" stroke="red" d="M-37.6-113.2l13 19.1 13 19L1.5-56l13 19 13 19.1 13 19.1 13 19 13 19.1 13 19 13 19.1 13.1 19.1 13 19 13 19.1 13 19 13 19.1 13 19 13 19.2 13 19 13 19 13 19.1 13 19 13 19.1 13 19.1 13 19"/><path fill="none" stroke="red" d="M-37.6 11l13-2.5 13-2.6 13-2.6 13-2.6 13-2.6 13-2.5 13-2.6 13-2.6 13-2.6 13-2.6 13.1-2.5 13-2.6 13-2.6 13-2.6 13-2.6 13-2.5 13-2.6 13-2.6 13-2.6 13-2.6 13-2.5 13-2.6 13-2.6 13-2.6"/><path fill="none" stroke="#00F" d="M-37.6 66.1l13-2.2 13-2.1 13-2.2 13-2.2 13-2.1 13-2.2 13-2.2 13-2.1 13-2.2 13-2.2 13.1-2.1 13-2.2 13-2.2 13-2.1 13-2.2 13-2.2 13-2.1 13-2.2 13-2.2 13-2.1 13-2.2 13-2.2 13-2.1 13-2.2"/><path fill="none" stroke="#00F" d="M-37.6-1387.8l13 87.6 13 87.6 13 87.5 13 87.6 13 87.6 13 87.6 13 87.5 13 87.6 13 87.6 13 87.5 13.1 87.6 13 87.6 13 87.5 13 87.6 13 87.6 13 87.6 13 87.5 13 87.6 13 87.6 13 87.5 13 87.6 13 87.6 13 87.5 13 87.6"/><path fill="none" stroke="#090" d="M-37.6-25.8l13 6.9 13 6.9 13 6.9 13 6.8 13 7 13 6.8 13 6.9 13 6.9 13 6.9 13 6.9 13.1 6.8 13 7 13 6.8 13 6.9 13 6.9 13 6.9 13 6.9 13 6.8 13 7 13 6.8 13 6.9 13 6.9 13 6.9 13 6.8"/><path fill="none" stroke="#090" d="M-37.6-21.4l13 1.6 13 1.6 13 1.6 13 1.6 13 1.6 13 1.6 13 1.6 13 1.6 13 1.6 13 1.6 13.1 1.6 13 1.6 13 1.6 13 1.6 13 1.6 13 1.6 13 1.6 13 1.6 13 1.6 13 1.6 13 1.6 13 1.6 13 1.5 13 1.6"/><path fill="none" d="M-37.6-22.8l13 3.3 13 3.3 13 3.3 13 3.4 13 3.3 13 3.3 13 3.3 13 3.3 13 3.4 13 3.3 13.1 3.3 13 3.3 13 3.4 13 3.3 13 3.3 13 3.3 13 3.3 13 3.4 13 3.3 13 3.3 13 3.3 13 3.4 13 3.3 13 3.3"/><path fill="#090" d="M73 47.8a.7.7 0 1 1-1.5 0 .7.7 0 0 1 1.5 0zm-.7 0"/><text fill="#090" stroke="none" font-size="7" text-anchor="middle" transform="matrix(1 0 0 -1 74.3 49.4)"><tspan font-family="cmmi">A</tspan></text><path fill="#00F" d="M56.5 23.6a.7.7 0 1 1-1.5 0 .7.7 0 0 1 1.5 0zm-.7 0"/><text fill="#00F" stroke="none" font-size="7" text-anchor="middle" transform="matrix(1 0 0 -1 57.8 25.2)"><tspan font-family="cmmi">B</tspan></text><path fill="red" d="M95.2 44.1a.8.8 0 1 1-1.5 0 .8.8 0 0 1 1.5 0zm-.7 0"/><text fill="red" stroke="none" font-size="7" text-anchor="middle" transform="matrix(1 0 0 -1 96.5 45.7)"><tspan font-family="cmmi">C</tspan></text><path d="M45.400000000000006 70.8a.8.8 0 1 1-1.5 0 .8.8 0 0 1 1.5 0zm-.7 0"/><text stroke="none" font-size="7" text-anchor="middle" transform="matrix(1 0 0 -1 46.7 72.4)"><tspan font-family="cmmi">O</tspan></text><path fill="#090" d="M165-29a.7.7 0 1 1-1.5 0 .7.7 0 0 1 1.5 0zm-.8 0"/><text fill="#090" stroke="none" font-size="7" text-anchor="middle" transform="matrix(1 0 0 -1 166.2 -27.4)"><tspan font-family="cmmi">A</tspan><tspan font-family="cmsy">′</tspan></text><path fill="#00F" d="M64.2-9a.7.7 0 1 1-1.5 0 .7.7 0 0 1 1.5 0zm-.8 0"/><text fill="#00F" stroke="none" font-size="7" text-anchor="middle" transform="matrix(1 0 0 -1 65.4 -7.5)"><tspan font-family="cmmi">B</tspan><tspan font-family="cmsy">′</tspan></text><path fill="red" d="M169.9 4a.7.7 0 1 1-1.5 0 .7.7 0 0 1 1.5 0zm-.8 0"/><text fill="red" stroke="none" font-size="7" text-anchor="middle" transform="matrix(1 0 0 -1 171 5.6)"><tspan font-family="cmmi">C</tspan><tspan font-family="cmsy">′</tspan></text><path d="M37.8-3.8a.8.8 0 1 1-1.5 0 .8.8 0 0 1 1.5 0zm-.7 0M173.9 31a.7.7 0 1 1-1.5 0 .7.7 0 0 1 1.5 0zm-.8 0M-26-20a.7.7 0 1 1-1.5 0 .7.7 0 0 1 1.5 0zm-.8 0"/></g></g></svg>