<?xml-stylesheet href="TE_export636340843530999379.css" type="text/css"?>
<svg xmlns="http://www.w3.org/2000/svg" width="281.6" height="198.4" viewBox="-97.2 -63.2 211.2 148.8">
  <g stroke-linejoin="round" transform="matrix(1 0 0 -1 0 22.3)" stroke-linecap="round" stroke-width=".5" stroke="#000">
    <path d="M-85.4-57h199.2M-85.4-42.6h199.2M-85.4-28.5h199.2M-85.4-14.2h199.2M-85.4 0h199.2M-85.4 14.2h199.2M-85.4 28.5h199.2M-85.4 42.7h199.2M-85.4 56.9h199.2M-85.4 71.1h199.2M-85.4 85.4h199.2M-85.4-57V85.4M-71-57V85.4M-57-57V85.4M-42.7-57V85.4M-28.5-57V85.4M-14.2-57V85.4M0-57V85.4M14.2-57V85.4M28.5-57V85.4M42.7-57V85.4M56.9-57V85.4M71.1-57V85.4M85.4-57V85.4M99.6-57V85.4M113.8-57V85.4" fill="none" stroke="#BFBFBF"/>
    <path d="M-85.4 0h198.8" fill="none"/>
    <path d="M112.2 1.6c0-.6 1.2-1.5 1.5-1.6-.3-.1-1.4-1-1.5-1.6" fill="none" stroke-width=".4"/>
    <path d="M-85.4 2v-4" fill="none"/>
    <text transform="matrix(1 0 0 -1 -85.4 -10.7)" text-anchor="middle" font-size="10" stroke="none">
      <tspan font-family="cmsy" font-size="8">- </tspan><tspan font-family="cmr" font-size="8">3</tspan><tspan font-family="cmmi" font-size="8">.</tspan>
    </text>
    <path d="M-71.1 2v-4" fill="none"/>
    <text transform="matrix(1 0 0 -1 -71.1 -10.7)" text-anchor="middle" font-size="10" stroke="none">
      <tspan font-family="cmsy" font-size="8">- </tspan><tspan font-family="cmr" font-size="8">2</tspan><tspan font-family="cmmi" font-size="8">.</tspan><tspan font-family="cmr" font-size="8">5</tspan>
    </text>
    <path d="M-57 2v-4" fill="none"/>
    <text transform="matrix(1 0 0 -1 -57 -10.7)" text-anchor="middle" font-size="10" stroke="none">
      <tspan font-family="cmsy" font-size="8">- </tspan><tspan font-family="cmr" font-size="8">2</tspan><tspan font-family="cmmi" font-size="8">.</tspan>
    </text>
    <path d="M-42.7 2v-4" fill="none"/>
    <text transform="matrix(1 0 0 -1 -42.7 -10.7)" text-anchor="middle" font-size="10" stroke="none">
      <tspan font-family="cmsy" font-size="8">- </tspan><tspan font-family="cmr" font-size="8">1</tspan><tspan font-family="cmmi" font-size="8">.</tspan><tspan font-family="cmr" font-size="8">5</tspan>
    </text>
    <path d="M-28.5 2v-4" fill="none"/>
    <text transform="matrix(1 0 0 -1 -28.5 -10.7)" text-anchor="middle" font-size="10" stroke="none">
      <tspan font-family="cmsy" font-size="8">- </tspan><tspan font-family="cmr" font-size="8">1</tspan><tspan font-family="cmmi" font-size="8">.</tspan>
    </text>
    <path d="M-14.2 2v-4" fill="none"/>
    <text transform="matrix(1 0 0 -1 -14.2 -10.7)" text-anchor="middle" font-size="10" stroke="none">
      <tspan font-family="cmsy" font-size="8">- </tspan><tspan font-family="cmr" font-size="8">0</tspan><tspan font-family="cmmi" font-size="8">.</tspan><tspan font-family="cmr" font-size="8">5</tspan>
    </text>
    <path d="M14.2 2v-4" fill="none"/>
    <text transform="matrix(1 0 0 -1 14.2 -10.7)" text-anchor="middle" font-size="10" stroke="none">
      <tspan font-family="cmr" font-size="8">0</tspan><tspan font-family="cmmi" font-size="8">.</tspan><tspan font-family="cmr" font-size="8">5</tspan>
    </text>
    <path d="M28.5 2v-4" fill="none"/>
    <text transform="matrix(1 0 0 -1 28.5 -10.7)" text-anchor="middle" font-size="10" stroke="none">
      <tspan font-family="cmr" font-size="8">1</tspan><tspan font-family="cmmi" font-size="8">.</tspan>
    </text>
    <path d="M42.7 2v-4" fill="none"/>
    <text transform="matrix(1 0 0 -1 42.7 -10.7)" text-anchor="middle" font-size="10" stroke="none">
      <tspan font-family="cmr" font-size="8">1</tspan><tspan font-family="cmmi" font-size="8">.</tspan><tspan font-family="cmr" font-size="8">5</tspan>
    </text>
    <path d="M57 2v-4" fill="none"/>
    <text transform="matrix(1 0 0 -1 57 -10.7)" text-anchor="middle" font-size="10" stroke="none">
      <tspan font-family="cmr" font-size="8">2</tspan><tspan font-family="cmmi" font-size="8">.</tspan>
    </text>
    <path d="M71.1 2v-4" fill="none"/>
    <text transform="matrix(1 0 0 -1 71.1 -10.7)" text-anchor="middle" font-size="10" stroke="none">
      <tspan font-family="cmr" font-size="8">2</tspan><tspan font-family="cmmi" font-size="8">.</tspan><tspan font-family="cmr" font-size="8">5</tspan>
    </text>
    <path d="M85.4 2v-4" fill="none"/>
    <text transform="matrix(1 0 0 -1 85.4 -10.7)" text-anchor="middle" font-size="10" stroke="none">
      <tspan font-family="cmr" font-size="8">3</tspan><tspan font-family="cmmi" font-size="8">.</tspan>
    </text>
    <path d="M99.6 2v-4" fill="none"/>
    <text transform="matrix(1 0 0 -1 99.6 -10.7)" text-anchor="middle" font-size="10" stroke="none">
      <tspan font-family="cmr" font-size="8">3</tspan><tspan font-family="cmmi" font-size="8">.</tspan><tspan font-family="cmr" font-size="8">5</tspan>
    </text>
    <g>
      <path d="M0-57V85" fill="none"/>
      <path d="M-1.6 83.7c.6.1 1.5 1.2 1.6 1.5.1-.3 1-1.4 1.6-1.5" fill="none" stroke-width=".4"/>
    </g>
    <g>
      <path d="M2-57h-4" fill="none"/>
      <text transform="matrix(1 0 0 -1 -14 -59)" text-anchor="middle" font-size="10" stroke="none">
        <tspan font-family="cmsy" font-size="8">- </tspan><tspan font-family="cmr" font-size="8">2</tspan><tspan font-family="cmmi" font-size="8">.</tspan>
      </text>
    </g>
    <g>
      <path d="M2-42.7h-4" fill="none"/>
      <text transform="matrix(1 0 0 -1 -16.2 -44.8)" text-anchor="middle" font-size="10" stroke="none">
        <tspan font-family="cmsy" font-size="8">- </tspan><tspan font-family="cmr" font-size="8">1</tspan><tspan font-family="cmmi" font-size="8">.</tspan><tspan font-family="cmr" font-size="8">5</tspan>
      </text>
    </g>
    <g>
      <path d="M2-28.5h-4" fill="none"/>
      <text transform="matrix(1 0 0 -1 -14 -30.6)" text-anchor="middle" font-size="10" stroke="none">
        <tspan font-family="cmsy" font-size="8">- </tspan><tspan font-family="cmr" font-size="8">1</tspan><tspan font-family="cmmi" font-size="8">.</tspan>
      </text>
    </g>
    <g>
      <path d="M2-14.2h-4" fill="none"/>
      <text transform="matrix(1 0 0 -1 -16.2 -16.4)" text-anchor="middle" font-size="10" stroke="none">
        <tspan font-family="cmsy" font-size="8">- </tspan><tspan font-family="cmr" font-size="8">0</tspan><tspan font-family="cmmi" font-size="8">.</tspan><tspan font-family="cmr" font-size="8">5</tspan>
      </text>
    </g>
    <g>
      <path d="M2 14.2h-4" fill="none"/>
      <text transform="matrix(1 0 0 -1 -11 11.6)" text-anchor="middle" font-size="10" stroke="none">
        <tspan font-family="cmr" font-size="8">0</tspan><tspan font-family="cmmi" font-size="8">.</tspan><tspan font-family="cmr" font-size="8">5</tspan>
      </text>
    </g>
    <g>
      <path d="M2 28.5h-4" fill="none"/>
      <text transform="matrix(1 0 0 -1 -8.8 25.9)" text-anchor="middle" font-size="10" stroke="none">
        <tspan font-family="cmr" font-size="8">1</tspan><tspan font-family="cmmi" font-size="8">.</tspan>
      </text>
    </g>
    <g>
      <path d="M2 42.7h-4" fill="none"/>
      <text transform="matrix(1 0 0 -1 -11 40.1)" text-anchor="middle" font-size="10" stroke="none">
        <tspan font-family="cmr" font-size="8">1</tspan><tspan font-family="cmmi" font-size="8">.</tspan><tspan font-family="cmr" font-size="8">5</tspan>
      </text>
    </g>
    <g>
      <path d="M2 57h-4" fill="none"/>
      <text transform="matrix(1 0 0 -1 -8.8 54.3)" text-anchor="middle" font-size="10" stroke="none">
        <tspan font-family="cmr" font-size="8">2</tspan><tspan font-family="cmmi" font-size="8">.</tspan>
      </text>
    </g>
    <g>
      <path d="M2 71.1h-4" fill="none"/>
      <text transform="matrix(1 0 0 -1 -11 68.6)" text-anchor="middle" font-size="10" stroke="none">
        <tspan font-family="cmr" font-size="8">2</tspan><tspan font-family="cmmi" font-size="8">.</tspan><tspan font-family="cmr" font-size="8">5</tspan>
      </text>
    </g>
    <g>
      <text transform="matrix(1 0 0 -1 5.7 -12.6)" text-anchor="middle" font-size="10" stroke="none">
        <tspan font-family="cmr" font-size="8">0</tspan>
      </text>
    </g>
    <clipPath id="a">
      <path d="M-85.4-57V85.5h199.2V-57zM113.8 85.5"/>
    </clipPath>
    <g clip-path="url(#a)">
      <path d="M0 0l4.5 3a5.4 5.4 0 0 1-8.3.8z" fill-opacity=".1" fill="#060" stroke="#060" stroke-width="1.6"/>
      <path d="M28.5 0a28.5 28.5 0 1 1-57 0 28.5 28.5 0 0 1 57 0zM0 0" fill="none" stroke-width="1.6"/>
      <path d="M-85.4-57l8.3 5.6 8.3 5.6 8.3 5.5 8.3 5.5 8.3 5.6 8.3 5.5 8.3 5.5 8.3 5.6 8.3 5.5 8.3 5.5L6 4l8.3 5.6 8.3 5.5 8.3 5.5 8.3 5.6 8.3 5.5 8.3 5.5 8.3 5.6 8.3 5.5 8.3 5.5 8.3 5.6 8.3 5.5 8.3 5.5 8.3 5.6M-85.4 85.4L-77 77l8.3-8.3 8.3-8.3 8.3-8.3 8.3-8.3 8.3-8.3 8.3-8.3L-19 19l8.3-8.3 8.3-8.3L6-6l8.3-8.3 8.3-8.3 8.3-8.3 8.3-8.3 8.3-8.3 8.3-8.3L64-64l8.3-8.3 8.3-8.3L89-89l8.3-8.3 8.3-8.3 8.3-8.3" fill="none" stroke-width="1.6"/>
      <text transform="matrix(1 0 0 -1 -13.9 20.7)" text-anchor="middle" font-size="7" stroke="none">
        <tspan font-family="cmmi">c</tspan>
      </text>
      <path d="M45.2 28.5a2.5 2.5 0 1 1-5 0 2.5 2.5 0 0 1 5 0zm-2.5 0" fill="#00F"/>
      <text transform="matrix(1 0 0 -1 44.1 29.4)" text-anchor="middle" font-size="7" stroke="none" fill="#00F">
        <tspan font-family="cmmi">A</tspan>
      </text>
      <text transform="matrix(1 0 0 -1 -80.8 -52.4)" text-anchor="middle" font-size="7" stroke="none">
        <tspan font-family="cmmi">f</tspan>
      </text>
      <path d="M-26 28.5a2.5 2.5 0 1 1-5 0 2.5 2.5 0 0 1 5 0zm-2.5 0" fill="#00F"/>
      <text transform="matrix(1 0 0 -1 -26.2 29.4)" text-anchor="middle" font-size="7" stroke="none" fill="#00F">
        <tspan font-family="cmmi">B</tspan>
      </text>
      <text transform="matrix(1 0 0 -1 -62 63.8)" text-anchor="middle" font-size="7" stroke="none">
        <tspan font-family="cmmi">g</tspan>
      </text>
    </g>
  </g>
</svg>
