<?xml-stylesheet href="TE_export636340846059457774.css" type="text/css"?><svg xmlns="http://www.w3.org/2000/svg" width="273.7" height="213.6" viewBox="-85.6 -63.2 205.3 160.2"><g stroke="#000" stroke-linecap="round" stroke-linejoin="round" stroke-width=".5" transform="matrix(1 0 0 -1 0 33.7)"><path fill="none" stroke="#BFBFBF" d="M-85.4-57h204.9M-85.4-42.6h204.9M-85.4-28.5h204.9M-85.4-14.2h204.9M-85.4 0h204.9M-85.4 14.2h204.9M-85.4 28.5h204.9M-85.4 42.7h204.9M-85.4 56.9h204.9M-85.4 71.1h204.9M-85.4 85.4h204.9M-85.4-57V96.7M-71-56.9V96.7M-57-56.9V96.7m14.2-153.6V96.7m14.2-153.6V96.7m14.3-153.6V96.7M0-56.9V96.7M14.2-56.9V96.7M28.5-56.9V96.7M42.7-56.9V96.7M56.9-56.9V96.7M71.1-56.9V96.7M85.4-56.9V96.7M99.6-56.9V96.7m14.2-153.6V96.7"/><path fill="none" d="M-85.4 0h204"/><path stroke-linejoin="miter" d="M113.5 2.3L119 0l-5.5-2.3z"/><path fill="none" d="M0-57V96"/><path stroke-linejoin="miter" d="M-2.3 90.7L0 96.2l2.3-5.5z"/><path fill="none" d="M2-57h-4"/><text stroke="none" font-size="10" text-anchor="middle" transform="matrix(1 0 0 -1 -14 -59)"><tspan font-family="cmsy" font-size="8">- </tspan><tspan font-family="cmr" font-size="8">2</tspan><tspan font-family="cmmi" font-size="8">.</tspan></text><path fill="none" d="M2-42.7h-4"/><text stroke="none" font-size="10" text-anchor="middle" transform="matrix(1 0 0 -1 -16.2 -44.8)"><tspan font-family="cmsy" font-size="8">- </tspan><tspan font-family="cmr" font-size="8">1</tspan><tspan font-family="cmmi" font-size="8">.</tspan><tspan font-family="cmr" font-size="8">5</tspan></text><path fill="none" d="M2-28.5h-4"/><text stroke="none" font-size="10" text-anchor="middle" transform="matrix(1 0 0 -1 -14 -30.6)"><tspan font-family="cmsy" font-size="8">- </tspan><tspan font-family="cmr" font-size="8">1</tspan><tspan font-family="cmmi" font-size="8">.</tspan></text><path fill="none" d="M2-14.2h-4"/><text stroke="none" font-size="10" text-anchor="middle" transform="matrix(1 0 0 -1 -16.2 -16.4)"><tspan font-family="cmsy" font-size="8">- </tspan><tspan font-family="cmr" font-size="8">0</tspan><tspan font-family="cmmi" font-size="8">.</tspan><tspan font-family="cmr" font-size="8">5</tspan></text><path fill="none" d="M2 14.2h-4"/><text stroke="none" font-size="10" text-anchor="middle" transform="matrix(1 0 0 -1 -11 11.6)"><tspan font-family="cmr" font-size="8">0</tspan><tspan font-family="cmmi" font-size="8">.</tspan><tspan font-family="cmr" font-size="8">5</tspan></text><path fill="none" d="M2 28.5h-4"/><text stroke="none" font-size="10" text-anchor="middle" transform="matrix(1 0 0 -1 -8.8 25.9)"><tspan font-family="cmr" font-size="8">1</tspan><tspan font-family="cmmi" font-size="8">.</tspan></text><g><path fill="none" d="M2 42.7h-4"/><text stroke="none" font-size="10" text-anchor="middle" transform="matrix(1 0 0 -1 -11 40.1)"><tspan font-family="cmr" font-size="8">1</tspan><tspan font-family="cmmi" font-size="8">.</tspan><tspan font-family="cmr" font-size="8">5</tspan></text></g><g><path fill="none" d="M2 57h-4"/><text stroke="none" font-size="10" text-anchor="middle" transform="matrix(1 0 0 -1 -8.8 54.3)"><tspan font-family="cmr" font-size="8">2</tspan><tspan font-family="cmmi" font-size="8">.</tspan></text></g><g><path fill="none" d="M2 71.1h-4"/><text stroke="none" font-size="10" text-anchor="middle" transform="matrix(1 0 0 -1 -11 68.6)"><tspan font-family="cmr" font-size="8">2</tspan><tspan font-family="cmmi" font-size="8">.</tspan><tspan font-family="cmr" font-size="8">5</tspan></text></g><g><path fill="none" d="M2 85.4h-4"/><text stroke="none" font-size="10" text-anchor="middle" transform="matrix(1 0 0 -1 -8.8 82.8)"><tspan font-family="cmr" font-size="8">3</tspan><tspan font-family="cmmi" font-size="8">.</tspan></text></g><g><text stroke="none" font-size="10" text-anchor="middle" transform="matrix(1 0 0 -1 5.7 -12.6)"><tspan font-family="cmr" font-size="8">0</tspan></text></g><clipPath id="a"><path d="M-85.4-57V96.8h204.9V-56.9zM119.5 96.8"/></clipPath><g clip-path="url(#a)"><path fill="none" stroke-width="1.6" d="M-85.4 28.5H119.5M-85.4-68.3l8.6 6.8 8.5 6.9 8.5 6.8 8.6 6.8 8.5 6.9 8.6 6.8 8.5 6.8 8.5 6.8 8.6 6.9L0 0l8.5 6.8 8.6 6.9 8.5 6.8 8.5 6.8 8.6 6.8 8.5 6.9 8.5 6.8 8.6 6.8 8.5 6.9 8.6 6.8 8.5 6.8 8.5 6.8 8.6 6.9 8.5 6.8M-85.4 85.4l8.6-8.6 8.5-8.5 8.5-8.5 8.6-8.6 8.5-8.5L-34 34l8.5-8.5 8.5-8.5 8.6-8.6L0 0l8.5-8.5 8.6-8.6 8.5-8.5 8.5-8.5 8.6-8.6 8.5-8.5 8.5-8.5 8.6-8.6 8.5-8.5 8.6-8.6 8.5-8.5 8.5-8.5 8.6-8.6 8.5-8.5"/><text stroke="none" font-size="7" text-anchor="middle" transform="matrix(1 0 0 -1 -96.2 25.3)"><tspan font-family="cmmi">f</tspan></text><path fill="#454542" d="M1.5 0a1.5 1.5 0 1 1-3 0 1.5 1.5 0 0 1 3 0zM0 0"/><text fill="#454542" stroke="none" font-size="7" text-anchor="middle" transform="matrix(1 0 0 -1 1.5 .9)"><tspan font-family="cmmi">B</tspan></text><path fill="#00F" d="M73.6 57a2.5 2.5 0 1 1-5 0 2.5 2.5 0 0 1 5 0zm-2.5 0"/><text fill="#00F" stroke="none" font-size="7" text-anchor="middle" transform="matrix(1 0 0 -1 72.8 58.5)"><tspan font-family="cmmi">A</tspan></text><text stroke="none" font-size="7" text-anchor="middle" transform="matrix(1 0 0 -1 -56.3 -47.2)"><tspan font-family="cmmi">g</tspan></text><path fill="#00F" d="M-40.2 42.7a2.5 2.5 0 1 1-5 0 2.5 2.5 0 0 1 5 0zm-2.5 0"/><text stroke="none" font-size="7" text-anchor="middle" transform="matrix(1 0 0 -1 -92.2 92.7)"><tspan font-family="cmmi">h</tspan></text></g></g></svg>
