<?xml version="1.0" encoding="iso-8859-1" standalone="no"?> 
<?xml-stylesheet href="TE_export636163127278896561.css" type="text/css"?> 
<svg xmlns="http://www.w3.org/2000/svg" xmlns:xlink="http://www.w3.org/1999/xlink" width="400pt" height="320pt" viewBox="-55.06119 -50.82971 199.2901 161.97192 "> 
<g transform="translate(0, 111.14221 ) scale(1,-1) translate(0,50.82971 )"> 
                 <g> 
 <g stroke="rgb(0.0%,0.0%,0.0%)"> 
 <g fill="rgb(0.0%,0.0%,0.0%)"> 
 <g stroke-width="0.4pt"> 
 <g> 
 <g stroke-linecap="round"> 
 <g stroke-linejoin="round"> 
 <clipPath id="pgfcp1"> <path d=" M  -55.06119 -50.82971 M  -55.06119 -50.82971 L  -55.06119 111.14221 L  144.22891 111.14221 L  144.22891 -50.82971 Z M  144.22891 111.14221  "/> 
</clipPath> 
 <g clip-path="url(#pgfcp1)"> 
 <path d=" M  32.72069 19.91682 M  -12.03114 47.57423 C  -21.47156 32.2989 -9.08855 7.53369 15.62752 -7.74126 C  40.34358 -23.0162 68.0321 -23.01591 77.47252 -7.74059 C  86.91293 7.53474 74.52992 32.29996 49.81386 47.5749 C  25.0978 62.84985 -2.59073 62.84956 -12.03114 47.57423 Z M  32.72069 19.91682  " style="fill:none"/> 
 <g> 
 <g stroke-dasharray="4.0pt,4.0pt" stroke-dashoffset="0.0pt"> 
 <path d=" M  -55.06119 46.6082 L  -46.75755 48.22195 L  -38.45392 49.83571 L  -30.15028 51.44946 L  -21.84665 53.06343 L  -13.543 54.67674 L  -5.23936 56.29071 L  3.06425 57.90382 L  11.36789 59.51756 L  19.67152 61.13132 L  27.97516 62.74507 L  36.27881 64.35904 L  44.58244 65.97258 L  52.88608 67.5861 L  61.18971 69.19986 L  69.49335 70.81383 L  77.797 72.42694 L  86.10063 74.04091 L  94.40427 75.65488 L  102.7079 77.26819 L  111.01154 78.88216 L  119.31517 80.4957 L  127.61882 82.10945 L  135.92245 83.72298 L  144.22609 85.33694  " style="fill:none"/> 
 </g> 
 </g> 
 <g> 
 <g stroke-dasharray="4.0pt,4.0pt" stroke-dashoffset="0.0pt"> 
 <path d=" M  -55.06119 936.96968 L  -46.75755 879.9969 L  -38.45392 823.02368 L  -30.15028 766.0509 L  -21.84665 709.07813 L  -13.543 652.10513 L  -5.23936 595.13235 L  3.06425 538.15979 L  11.36789 481.18678 L  19.67152 424.214 L  27.97516 367.24123 L  36.27881 310.268 L  44.58244 253.29523 L  52.88608 196.32245 L  61.18971 139.34923 L  69.49335 82.37645 L  77.797 25.40367 L  86.10063 -31.56909 L  94.40427 -88.54187 L  102.7079 -145.51466 L  111.01154 -202.48787 L  119.31517 -259.46065 L  127.61882 -316.43365 L  135.92245 -373.40643 L  144.22609 -430.37943  " style="fill:none"/> 
 </g> 
 </g> 
 <g> 
 <g stroke="rgb(100.0%,0.0%,0.0%)"> 
 <g fill="rgb(100.0%,0.0%,0.0%)"> 
 <path d=" M  -55.06119 98.35507 L  -46.75755 92.81917 L  -38.45392 87.28326 L  -30.15028 81.74779 L  -21.84665 76.2108 L  -13.543 70.67621 L  -5.23936 65.14052 L  3.06425 59.6044 L  11.36789 54.06894 L  19.67152 48.53325 L  27.97516 42.99756 L  36.27881 37.46187 L  44.58244 31.92596 L  52.88608 26.39029 L  61.18971 20.85307 L  69.49335 15.3187 L  77.797 9.783 L  86.10063 4.2471 L  94.40427 -1.28856 L  102.7079 -6.82425 L  111.01154 -12.35994 L  119.31517 -17.8954 L  127.61882 -23.43152 L  135.92245 -28.96721 L  144.22609 -34.50311  " style="fill:none"/> 
 </g> 
 </g> 
 </g> 
 <g> 
 <g stroke="rgb(0.0%,0.0%,100.0%)"> 
 <g fill="rgb(0.0%,0.0%,100.0%)"> 
 <path d=" M  43.93599 -10.79025  " style="fill:none"/> 
 <g> 
 <g> 
 <g transform="matrix(1.0,0.0,0.0,1.0,40.719,-13.18192)"> 
 <g fill="rgb(0.0%,0.0%,100.0%)"> 
 <text style="stroke:none" transform="scale(1,-1) translate(3.217,0)" text-anchor="middle"  font-size="7"> 
<tspan font-family="cmsy" font-size="7"><img 
src="cmsy7-46.png" alt="F" class="7x-x-46" /></tspan></text> 
</g> 
 </g> 
 </g> 
 </g> 
 </g> 
 </g> 
 </g> 
 <g> 
 <g fill="rgb(100.0%,0.0%,0.0%)"> 
 <path d=" M  71.13185 71.13185 M  72.38185 71.13185 C  72.38185 71.8222 71.8222 72.38185 71.13185 72.38185 C  70.4415 72.38185 69.88185 71.8222 69.88185 71.13185 C  69.88185 70.4415 70.4415 69.88185 71.13185 69.88185 C  71.8222 69.88185 72.38185 70.4415 72.38185 71.13185 Z M  71.13185 71.13185  " /> 
 </g> 
 </g> 
 <g> 
 <g stroke="rgb(100.0%,0.0%,0.0%)"> 
 <g fill="rgb(100.0%,0.0%,0.0%)"> 
 <path d=" M  72.96138 76.02672  " style="fill:none"/> 
 <g> 
 <g> 
 <g transform="matrix(1.0,0.0,0.0,1.0,59.48155,72.78172)"> 
 <g fill="rgb(100.0%,0.0%,0.0%)"> 
 <text style="stroke:none" transform="scale(1,-1) translate(13.47983,0)" text-anchor="middle"  font-size="7"> 
<tspan font-family="cmmi" font-size="7">A </tspan><tspan font-family="cmr" font-size="7">= </tspan><tspan font-family="cmmi" font-size="7">a</tspan><tspan baseline-shift="sub"><tspan font-family="cmsy" font-size="5">&#x22A5;</tspan></tspan></text> 
</g> 
 </g> 
 </g> 
 </g> 
 </g> 
 </g> 
 </g> 
 <g> 
 <g fill="rgb(26.66626%,26.66626%,26.66626%)"> 
 <path d=" M  5.03966 58.28783 M  5.78966 58.28783 C  5.78966 58.70204 5.45387 59.03783 5.03966 59.03783 C  4.62544 59.03783 4.28966 58.70204 4.28966 58.28783 C  4.28966 57.87361 4.62544 57.53783 5.03966 57.53783 C  5.45387 57.53783 5.78966 57.87361 5.78966 58.28783 Z M  5.03966 58.28783  " /> 
 </g> 
 </g> 
 <g> 
 <g fill="rgb(26.66626%,26.66626%,26.66626%)"> 
 <path d=" M  80.31856 8.10196 M  81.06856 8.10196 C  81.06856 8.51617 80.73277 8.85196 80.31856 8.85196 C  79.90434 8.85196 79.56856 8.51617 79.56856 8.10196 C  79.56856 7.68774 79.90434 7.35196 80.31856 7.35196 C  80.73277 7.35196 81.06856 7.68774 81.06856 8.10196 Z M  80.31856 8.10196  " /> 
 </g> 
 </g> 
 <g> 
 <g stroke="rgb(100.0%,0.0%,0.0%)"> 
 <g fill="rgb(100.0%,0.0%,0.0%)"> 
 <path d=" M  -52.9881 94.68604  " style="fill:none"/> 
 <g> 
 <g> 
 <g transform="matrix(1.0,0.0,0.0,1.0,-55.15692,93.1791)"> 
 <g fill="rgb(100.0%,0.0%,0.0%)"> 
 <text style="stroke:none" transform="scale(1,-1) translate(2.16882,0)" text-anchor="middle"  font-size="7"> 
<tspan font-family="cmmi" font-size="7">a</tspan></text> 
</g> 
 </g> 
 </g> 
 </g> 
 </g> 
 </g> 
 </g> 
 </g> 
 </g> 
 </g> 
 </g> 
 </g> 
 </g> 
 </g> 
 </g> 
 
                                                             </g> 
</svg> 
