<?xml version="1.0" encoding="iso-8859-1" standalone="no"?> 
<?xml-stylesheet href="TE_export636161427171806265.css" type="text/css"?> 
<svg xmlns="http://www.w3.org/2000/svg" xmlns:xlink="http://www.w3.org/1999/xlink" width="350pt" height="252pt" viewBox="-68.73859 -34.78018 174.96176 126.04916 "> 
<g transform="translate(0, 91.26898 ) scale(1,-1) translate(0,34.78018 )"> 
                     <g> 
 <g stroke="rgb(0.0%,0.0%,0.0%)"> 
 <g fill="rgb(0.0%,0.0%,0.0%)"> 
 <g stroke-width="0.4pt"> 
 <g> 
 <g stroke-linecap="round"> 
 <g stroke-linejoin="round"> 
 <g> 
 <g stroke="rgb(0.0%,0.0%,0.0%)"> 
 <g fill="rgb(0.0%,0.0%,0.0%)"> 
 <path d=" M  -61.17343 0.0 L  99.62617 0.0  " style="fill:none"/> 
 <g> 
 <g transform="matrix(1.0,0.0,0.0,1.0,99.62617,0.0)"> 
 <g> 
 <g stroke-dasharray="none" stroke-dashoffset="0.0pt"> 
 <g stroke-linejoin="miter"> 
 <path d=" M  -5.22293 2.34435 L  0.29999 0.0 L  -5.22293 -2.34435 Z  " /> 
 </g> 
 </g> 
 </g> 
 </g> 
 </g> 
 </g> 
 </g> 
 </g> 
 <g> 
 <g stroke="rgb(0.0%,0.0%,0.0%)"> 
 <g fill="rgb(0.0%,0.0%,0.0%)"> 
 <path d=" M  -56.90549 1.0 L  -56.90549 -1.0  " style="fill:none"/> 
 <g> 
 <g> 
 <g transform="matrix(1.0,0.0,0.0,1.0,-65.40561,-9.68852)"> 
 <g fill="rgb(0.0%,0.0%,0.0%)"> 
 <text style="stroke:none" transform="scale(1,-1) translate(8.50012,0)" text-anchor="middle"  font-size="10"> 
 <tspan font-family="cmsy" font-size="8">- </tspan><tspan font-family="cmr" font-size="8">4</tspan><tspan font-family="cmmi" font-size="8">.</tspan></text> 
</g> 
 </g> 
 </g> 
 </g> 
 </g> 
 </g> 
 </g> 
 <g> 
 <g stroke="rgb(0.0%,0.0%,0.0%)"> 
 <g fill="rgb(0.0%,0.0%,0.0%)"> 
 <path d=" M  -42.67911 1.0 L  -42.67911 -1.0  " style="fill:none"/> 
 <g> 
 <g> 
 <g transform="matrix(1.0,0.0,0.0,1.0,-51.17923,-9.68852)"> 
 <g fill="rgb(0.0%,0.0%,0.0%)"> 
 <text style="stroke:none" transform="scale(1,-1) translate(8.50012,0)" text-anchor="middle"  font-size="10"> 
 <tspan font-family="cmsy" font-size="8">- </tspan><tspan font-family="cmr" font-size="8">3</tspan><tspan font-family="cmmi" font-size="8">.</tspan></text> 
</g> 
 </g> 
 </g> 
 </g> 
 </g> 
 </g> 
 </g> 
 <g> 
 <g stroke="rgb(0.0%,0.0%,0.0%)"> 
 <g fill="rgb(0.0%,0.0%,0.0%)"> 
 <path d=" M  -28.45274 1.0 L  -28.45274 -1.0  " style="fill:none"/> 
 <g> 
 <g> 
 <g transform="matrix(1.0,0.0,0.0,1.0,-36.95287,-9.68852)"> 
 <g fill="rgb(0.0%,0.0%,0.0%)"> 
 <text style="stroke:none" transform="scale(1,-1) translate(8.50012,0)" text-anchor="middle"  font-size="10"> 
 <tspan font-family="cmsy" font-size="8">- </tspan><tspan font-family="cmr" font-size="8">2</tspan><tspan font-family="cmmi" font-size="8">.</tspan></text> 
</g> 
 </g> 
 </g> 
 </g> 
 </g> 
 </g> 
 </g> 
 <g> 
 <g stroke="rgb(0.0%,0.0%,0.0%)"> 
 <g fill="rgb(0.0%,0.0%,0.0%)"> 
 <path d=" M  -14.22636 1.0 L  -14.22636 -1.0  " style="fill:none"/> 
 <g> 
 <g> 
 <g transform="matrix(1.0,0.0,0.0,1.0,-22.72649,-9.68852)"> 
 <g fill="rgb(0.0%,0.0%,0.0%)"> 
 <text style="stroke:none" transform="scale(1,-1) translate(8.50012,0)" text-anchor="middle"  font-size="10"> 
 <tspan font-family="cmsy" font-size="8">- </tspan><tspan font-family="cmr" font-size="8">1</tspan><tspan font-family="cmmi" font-size="8">.</tspan></text> 
</g> 
 </g> 
 </g> 
 </g> 
 </g> 
 </g> 
 </g> 
 <g> 
 <g stroke="rgb(0.0%,0.0%,0.0%)"> 
 <g fill="rgb(0.0%,0.0%,0.0%)"> 
 <path d=" M  14.22636 1.0 L  14.22636 -1.0  " style="fill:none"/> 
 <g> 
 <g> 
 <g transform="matrix(1.0,0.0,0.0,1.0,10.92076,-9.68852)"> 
 <g fill="rgb(0.0%,0.0%,0.0%)"> 
 <text style="stroke:none" transform="scale(1,-1) translate(3.3056,0)" text-anchor="middle"  font-size="10"> 
<tspan font-family="cmr" font-size="8">1</tspan><tspan font-family="cmmi" font-size="8">.</tspan></text> 
</g> 
 </g> 
 </g> 
 </g> 
 </g> 
 </g> 
 </g> 
 <g> 
 <g stroke="rgb(0.0%,0.0%,0.0%)"> 
 <g fill="rgb(0.0%,0.0%,0.0%)"> 
 <path d=" M  28.45274 1.0 L  28.45274 -1.0  " style="fill:none"/> 
 <g> 
 <g> 
 <g transform="matrix(1.0,0.0,0.0,1.0,25.14714,-9.68852)"> 
 <g fill="rgb(0.0%,0.0%,0.0%)"> 
 <text style="stroke:none" transform="scale(1,-1) translate(3.3056,0)" text-anchor="middle"  font-size="10"> 
<tspan font-family="cmr" font-size="8">2</tspan><tspan font-family="cmmi" font-size="8">.</tspan></text> 
</g> 
 </g> 
 </g> 
 </g> 
 </g> 
 </g> 
 </g> 
 <g> 
 <g stroke="rgb(0.0%,0.0%,0.0%)"> 
 <g fill="rgb(0.0%,0.0%,0.0%)"> 
 <path d=" M  42.67911 1.0 L  42.67911 -1.0  " style="fill:none"/> 
 <g> 
 <g> 
 <g transform="matrix(1.0,0.0,0.0,1.0,39.3735,-9.68852)"> 
 <g fill="rgb(0.0%,0.0%,0.0%)"> 
 <text style="stroke:none" transform="scale(1,-1) translate(3.3056,0)" text-anchor="middle"  font-size="10"> 
<tspan font-family="cmr" font-size="8">3</tspan><tspan font-family="cmmi" font-size="8">.</tspan></text> 
</g> 
 </g> 
 </g> 
 </g> 
 </g> 
 </g> 
 </g> 
 <g> 
 <g stroke="rgb(0.0%,0.0%,0.0%)"> 
 <g fill="rgb(0.0%,0.0%,0.0%)"> 
 <path d=" M  56.90549 1.0 L  56.90549 -1.0  " style="fill:none"/> 
 <g> 
 <g> 
 <g transform="matrix(1.0,0.0,0.0,1.0,53.59988,-9.68852)"> 
 <g fill="rgb(0.0%,0.0%,0.0%)"> 
 <text style="stroke:none" transform="scale(1,-1) translate(3.3056,0)" text-anchor="middle"  font-size="10"> 
<tspan font-family="cmr" font-size="8">4</tspan><tspan font-family="cmmi" font-size="8">.</tspan></text> 
</g> 
 </g> 
 </g> 
 </g> 
 </g> 
 </g> 
 </g> 
 <g> 
 <g stroke="rgb(0.0%,0.0%,0.0%)"> 
 <g fill="rgb(0.0%,0.0%,0.0%)"> 
 <path d=" M  71.13185 1.0 L  71.13185 -1.0  " style="fill:none"/> 
 <g> 
 <g> 
 <g transform="matrix(1.0,0.0,0.0,1.0,67.82625,-9.68852)"> 
 <g fill="rgb(0.0%,0.0%,0.0%)"> 
 <text style="stroke:none" transform="scale(1,-1) translate(3.3056,0)" text-anchor="middle"  font-size="10"> 
<tspan font-family="cmr" font-size="8">5</tspan><tspan font-family="cmmi" font-size="8">.</tspan></text> 
</g> 
 </g> 
 </g> 
 </g> 
 </g> 
 </g> 
 </g> 
 <g> 
 <g stroke="rgb(0.0%,0.0%,0.0%)"> 
 <g fill="rgb(0.0%,0.0%,0.0%)"> 
 <path d=" M  85.35823 1.0 L  85.35823 -1.0  " style="fill:none"/> 
 <g> 
 <g> 
 <g transform="matrix(1.0,0.0,0.0,1.0,82.05263,-9.68852)"> 
 <g fill="rgb(0.0%,0.0%,0.0%)"> 
 <text style="stroke:none" transform="scale(1,-1) translate(3.3056,0)" text-anchor="middle"  font-size="10"> 
<tspan font-family="cmr" font-size="8">6</tspan><tspan font-family="cmmi" font-size="8">.</tspan></text> 
</g> 
 </g> 
 </g> 
 </g> 
 </g> 
 </g> 
 </g> 
 <g> 
 <g stroke="rgb(0.0%,0.0%,0.0%)"> 
 <g fill="rgb(0.0%,0.0%,0.0%)"> 
 <path d=" M  99.5846 1.0 L  99.5846 -1.0  " style="fill:none"/> 
 <g> 
 <g> 
 <g transform="matrix(1.0,0.0,0.0,1.0,96.27899,-9.68852)"> 
 <g fill="rgb(0.0%,0.0%,0.0%)"> 
 <text style="stroke:none" transform="scale(1,-1) translate(3.3056,0)" text-anchor="middle"  font-size="10"> 
<tspan font-family="cmr" font-size="8">7</tspan><tspan font-family="cmmi" font-size="8">.</tspan></text> 
</g> 
 </g> 
 </g> 
 </g> 
 </g> 
 </g> 
 </g> 
 <g> 
 <g stroke="rgb(0.0%,0.0%,0.0%)"> 
 <g fill="rgb(0.0%,0.0%,0.0%)"> 
 <path d=" M  0.0 -33.57423 L  0.0 88.81421  " style="fill:none"/> 
 <g> 
 <g transform="matrix(0.0,1.0,-1.0,0.0,0.0,88.81421)"> 
 <g> 
 <g stroke-dasharray="none" stroke-dashoffset="0.0pt"> 
 <g stroke-linejoin="miter"> 
 <path d=" M  -5.22293 2.34435 L  0.29999 0.0 L  -5.22293 -2.34435 Z  " /> 
 </g> 
 </g> 
 </g> 
 </g> 
 </g> 
 </g> 
 </g> 
 </g> 
 <g> 
 <g stroke="rgb(0.0%,0.0%,0.0%)"> 
 <g fill="rgb(0.0%,0.0%,0.0%)"> 
 <path d=" M  1.0 -28.45274 L  -1.0 -28.45274  " style="fill:none"/> 
 <g> 
 <g> 
 <g transform="matrix(1.0,0.0,0.0,1.0,-21.53322,-30.61383)"> 
 <g fill="rgb(0.0%,0.0%,0.0%)"> 
 <text style="stroke:none" transform="scale(1,-1) translate(8.50012,0)" text-anchor="middle"  font-size="10"> 
 <tspan font-family="cmsy" font-size="8">- </tspan><tspan font-family="cmr" font-size="8">2</tspan><tspan font-family="cmmi" font-size="8">.</tspan></text> 
</g> 
 </g> 
 </g> 
 </g> 
 </g> 
 </g> 
 </g> 
 <g> 
 <g stroke="rgb(0.0%,0.0%,0.0%)"> 
 <g fill="rgb(0.0%,0.0%,0.0%)"> 
 <path d=" M  1.0 -14.22636 L  -1.0 -14.22636  " style="fill:none"/> 
 <g> 
 <g> 
 <g transform="matrix(1.0,0.0,0.0,1.0,-21.53322,-16.38745)"> 
 <g fill="rgb(0.0%,0.0%,0.0%)"> 
 <text style="stroke:none" transform="scale(1,-1) translate(8.50012,0)" text-anchor="middle"  font-size="10"> 
 <tspan font-family="cmsy" font-size="8">- </tspan><tspan font-family="cmr" font-size="8">1</tspan><tspan font-family="cmmi" font-size="8">.</tspan></text> 
</g> 
 </g> 
 </g> 
 </g> 
 </g> 
 </g> 
 </g> 
 <g> 
 <g stroke="rgb(0.0%,0.0%,0.0%)"> 
 <g fill="rgb(0.0%,0.0%,0.0%)"> 
 <path d=" M  1.0 14.22636 L  -1.0 14.22636  " style="fill:none"/> 
 <g> 
 <g> 
 <g transform="matrix(1.0,0.0,0.0,1.0,-11.14418,11.64859)"> 
 <g fill="rgb(0.0%,0.0%,0.0%)"> 
 <text style="stroke:none" transform="scale(1,-1) translate(3.3056,0)" text-anchor="middle"  font-size="10"> 
<tspan font-family="cmr" font-size="8">1</tspan><tspan font-family="cmmi" font-size="8">.</tspan></text> 
</g> 
 </g> 
 </g> 
 </g> 
 </g> 
 </g> 
 </g> 
 <g> 
 <g stroke="rgb(0.0%,0.0%,0.0%)"> 
 <g fill="rgb(0.0%,0.0%,0.0%)"> 
 <path d=" M  1.0 28.45274 L  -1.0 28.45274  " style="fill:none"/> 
 <g> 
 <g> 
 <g transform="matrix(1.0,0.0,0.0,1.0,-11.14418,25.87497)"> 
 <g fill="rgb(0.0%,0.0%,0.0%)"> 
 <text style="stroke:none" transform="scale(1,-1) translate(3.3056,0)" text-anchor="middle"  font-size="10"> 
<tspan font-family="cmr" font-size="8">2</tspan><tspan font-family="cmmi" font-size="8">.</tspan></text> 
</g> 
 </g> 
 </g> 
 </g> 
 </g> 
 </g> 
 </g> 
 <g> 
 <g stroke="rgb(0.0%,0.0%,0.0%)"> 
 <g fill="rgb(0.0%,0.0%,0.0%)"> 
 <path d=" M  1.0 42.67911 L  -1.0 42.67911  " style="fill:none"/> 
 <g> 
 <g> 
 <g transform="matrix(1.0,0.0,0.0,1.0,-11.14418,40.10133)"> 
 <g fill="rgb(0.0%,0.0%,0.0%)"> 
 <text style="stroke:none" transform="scale(1,-1) translate(3.3056,0)" text-anchor="middle"  font-size="10"> 
<tspan font-family="cmr" font-size="8">3</tspan><tspan font-family="cmmi" font-size="8">.</tspan></text> 
</g> 
 </g> 
 </g> 
 </g> 
 </g> 
 </g> 
 </g> 
 <g> 
 <g stroke="rgb(0.0%,0.0%,0.0%)"> 
 <g fill="rgb(0.0%,0.0%,0.0%)"> 
 <path d=" M  1.0 56.90549 L  -1.0 56.90549  " style="fill:none"/> 
 <g> 
 <g> 
 <g transform="matrix(1.0,0.0,0.0,1.0,-11.14418,54.32771)"> 
 <g fill="rgb(0.0%,0.0%,0.0%)"> 
 <text style="stroke:none" transform="scale(1,-1) translate(3.3056,0)" text-anchor="middle"  font-size="10"> 
<tspan font-family="cmr" font-size="8">4</tspan><tspan font-family="cmmi" font-size="8">.</tspan></text> 
</g> 
 </g> 
 </g> 
 </g> 
 </g> 
 </g> 
 </g> 
 <g> 
 <g stroke="rgb(0.0%,0.0%,0.0%)"> 
 <g fill="rgb(0.0%,0.0%,0.0%)"> 
 <path d=" M  1.0 71.13185 L  -1.0 71.13185  " style="fill:none"/> 
 <g> 
 <g> 
 <g transform="matrix(1.0,0.0,0.0,1.0,-11.14418,68.55408)"> 
 <g fill="rgb(0.0%,0.0%,0.0%)"> 
 <text style="stroke:none" transform="scale(1,-1) translate(3.3056,0)" text-anchor="middle"  font-size="10"> 
<tspan font-family="cmr" font-size="8">5</tspan><tspan font-family="cmmi" font-size="8">.</tspan></text> 
</g> 
 </g> 
 </g> 
 </g> 
 </g> 
 </g> 
 </g> 
 <g> 
 <g stroke="rgb(0.0%,0.0%,0.0%)"> 
 <g fill="rgb(0.0%,0.0%,0.0%)"> 
 <path d=" M  1.0 85.35823 L  -1.0 85.35823  " style="fill:none"/> 
 <g> 
 <g> 
 <g transform="matrix(1.0,0.0,0.0,1.0,-11.14418,82.78046)"> 
 <g fill="rgb(0.0%,0.0%,0.0%)"> 
 <text style="stroke:none" transform="scale(1,-1) translate(3.3056,0)" text-anchor="middle"  font-size="10"> 
<tspan font-family="cmr" font-size="8">6</tspan><tspan font-family="cmmi" font-size="8">.</tspan></text> 
</g> 
 </g> 
 </g> 
 </g> 
 </g> 
 </g> 
 </g> 
 <g> 
 <g stroke="rgb(0.0%,0.0%,0.0%)"> 
 <g fill="rgb(0.0%,0.0%,0.0%)"> 
 <path d=" M  0.0 -5.0  " style="fill:none"/> 
 <g> 
 <g> 
 <g transform="matrix(1.0,0.0,0.0,1.0,3.53297,-7.57777)"> 
 <g fill="rgb(0.0%,0.0%,0.0%)"> 
 <text style="stroke:none" transform="scale(1,-1) translate(2.12503,0)" text-anchor="middle"  font-size="10"> 
<tspan font-family="cmr" font-size="8">0</tspan></text> 
</g> 
 </g> 
 </g> 
 </g> 
 </g> 
 </g> 
 </g> 
 <clipPath id="pgfcp1"> <path d=" M  -61.17343 -33.57423 M  -61.17343 -33.57423 L  -61.17343 89.62617 L  100.43814 89.62617 L  100.43814 -33.57423 Z M  100.43814 89.62617  "/> 
</clipPath> 
 <g clip-path="url(#pgfcp1)"> 
 <g> 
 <g stroke="rgb(60.00061%,19.9997%,0.0%)"> 
 <g fill="rgb(60.00061%,19.9997%,0.0%)"> 
 <g fill="rgb(60.00061%,19.9997%,0.0%)"> 
 <g fill-opacity="0.1"> 
 <path d=" M  0.0 0.0 L  28.45274 42.67911 L  56.90549 14.22636 Z  " style="stroke:none"/> 
 </g> 
 </g> 
 </g> 
 </g> 
 </g> 
 <g> 
 <g stroke="rgb(60.00061%,19.9997%,0.0%)"> 
 <g fill="rgb(60.00061%,19.9997%,0.0%)"> 
 <path d=" M  0.0 0.0 L  28.45274 42.67911  " style="fill:none"/> 
 </g> 
 </g> 
 </g> 
 <g> 
 <g stroke="rgb(60.00061%,19.9997%,0.0%)"> 
 <g fill="rgb(60.00061%,19.9997%,0.0%)"> 
 <path d=" M  28.45274 42.67911 L  56.90549 14.22636  " style="fill:none"/> 
 </g> 
 </g> 
 </g> 
 <g> 
 <g stroke="rgb(60.00061%,19.9997%,0.0%)"> 
 <g fill="rgb(60.00061%,19.9997%,0.0%)"> 
 <path d=" M  56.90549 14.22636 L  0.0 0.0  " style="fill:none"/> 
 </g> 
 </g> 
 </g> 
 <g> 
 <g fill="rgb(26.66626%,26.66626%,26.66626%)"> 
 <path d=" M  0.0 0.0 M  0.75 0.0 C  0.75 0.41422 0.41422 0.75 0.0 0.75 C  -0.41422 0.75 -0.75 0.41422 -0.75 0.0 C  -0.75 -0.41422 -0.41422 -0.75 0.0 -0.75 C  0.41422 -0.75 0.75 -0.41422 0.75 0.0 Z M  0.0 0.0  " /> 
 </g> 
 </g> 
 <g> 
 <g stroke="rgb(26.66626%,26.66626%,26.66626%)"> 
 <g fill="rgb(26.66626%,26.66626%,26.66626%)"> 
 <path d=" M  1.99167 3.98335  " style="fill:none"/> 
 <g> 
 <g> 
 <g transform="matrix(1.0,0.0,0.0,1.0,-1.01529,1.59169)"> 
 <g fill="rgb(26.66626%,26.66626%,26.66626%)"> 
 <text style="stroke:none" transform="scale(1,-1) translate(3.00696,0)" text-anchor="middle"  font-size="7"> 
<tspan font-family="cmmi" font-size="7">A</tspan></text> 
</g> 
 </g> 
 </g> 
 </g> 
 </g> 
 </g> 
 </g> 
 <g> 
 <g fill="rgb(0.0%,0.0%,100.0%)"> 
 <path d=" M  28.45274 42.67911 M  29.70274 42.67911 C  29.70274 43.36946 29.1431 43.92911 28.45274 43.92911 C  27.76239 43.92911 27.20274 43.36946 27.20274 42.67911 C  27.20274 41.98875 27.76239 41.42911 28.45274 41.42911 C  29.1431 41.42911 29.70274 41.98875 29.70274 42.67911 Z M  28.45274 42.67911  " /> 
 </g> 
 </g> 
 <g> 
 <g stroke="rgb(0.0%,0.0%,100.0%)"> 
 <g fill="rgb(0.0%,0.0%,100.0%)"> 
 <path d=" M  30.44441 47.80061  " style="fill:none"/> 
 <g> 
 <g> 
 <g transform="matrix(1.0,0.0,0.0,1.0,27.25291,45.40895)"> 
 <g fill="rgb(0.0%,0.0%,100.0%)"> 
 <text style="stroke:none" transform="scale(1,-1) translate(3.1915,0)" text-anchor="middle"  font-size="7"> 
<tspan font-family="cmmi" font-size="7">B</tspan></text> 
</g> 
 </g> 
 </g> 
 </g> 
 </g> 
 </g> 
 </g> 
 <g> 
 <g fill="rgb(0.0%,0.0%,100.0%)"> 
 <path d=" M  56.90549 14.22636 M  58.15549 14.22636 C  58.15549 14.91672 57.59584 15.47636 56.90549 15.47636 C  56.21513 15.47636 55.65549 14.91672 55.65549 14.22636 C  55.65549 13.53601 56.21513 12.97636 56.90549 12.97636 C  57.59584 12.97636 58.15549 13.53601 58.15549 14.22636 Z M  56.90549 14.22636  " /> 
 </g> 
 </g> 
 <g> 
 <g stroke="rgb(0.0%,0.0%,100.0%)"> 
 <g fill="rgb(0.0%,0.0%,100.0%)"> 
 <path d=" M  58.89716 19.34787  " style="fill:none"/> 
 <g> 
 <g> 
 <g transform="matrix(1.0,0.0,0.0,1.0,55.78416,16.9562)"> 
 <g fill="rgb(0.0%,0.0%,100.0%)"> 
 <text style="stroke:none" transform="scale(1,-1) translate(3.11299,0)" text-anchor="middle"  font-size="7"> 
<tspan font-family="cmmi" font-size="7">C</tspan></text> 
</g> 
 </g> 
 </g> 
 </g> 
 </g> 
 </g> 
 </g> 
 <g> 
 <g stroke="rgb(60.00061%,19.9997%,0.0%)"> 
 <g fill="rgb(60.00061%,19.9997%,0.0%)"> 
 <path d=" M  18.7789 21.33955  " style="fill:none"/> 
 <g> 
 <g> 
 <g transform="matrix(1.0,0.0,0.0,1.0,16.99203,19.83261)"> 
 <g fill="rgb(60.00061%,19.9997%,0.0%)"> 
 <text style="stroke:none" transform="scale(1,-1) translate(1.78687,0)" text-anchor="middle"  font-size="7"> 
<tspan font-family="cmmi" font-size="7">c</tspan></text> 
</g> 
 </g> 
 </g> 
 </g> 
 </g> 
 </g> 
 </g> 
 <g> 
 <g stroke="rgb(60.00061%,19.9997%,0.0%)"> 
 <g fill="rgb(60.00061%,19.9997%,0.0%)"> 
 <path d=" M  40.11847 27.59918  " style="fill:none"/> 
 <g> 
 <g> 
 <g transform="matrix(1.0,0.0,0.0,1.0,37.94965,26.09224)"> 
 <g fill="rgb(60.00061%,19.9997%,0.0%)"> 
 <text style="stroke:none" transform="scale(1,-1) translate(2.16882,0)" text-anchor="middle"  font-size="7"> 
<tspan font-family="cmmi" font-size="7">a</tspan></text> 
</g> 
 </g> 
 </g> 
 </g> 
 </g> 
 </g> 
 </g> 
 <g> 
 <g stroke="rgb(60.00061%,19.9997%,0.0%)"> 
 <g fill="rgb(60.00061%,19.9997%,0.0%)"> 
 <path d=" M  28.16815 13.94177  " style="fill:none"/> 
 <g> 
 <g> 
 <g transform="matrix(1.0,0.0,0.0,1.0,26.40982,11.51123)"> 
 <g fill="rgb(60.00061%,19.9997%,0.0%)"> 
 <text style="stroke:none" transform="scale(1,-1) translate(1.75833,0)" text-anchor="middle"  font-size="7"> 
<tspan font-family="cmmi" font-size="7">b</tspan></text> 
</g> 
 </g> 
 </g> 
 </g> 
 </g> 
 </g> 
 </g> 
 </g> 
 </g> 
 </g> 
 </g> 
 </g> 
 </g> 
 </g> 
 </g> 
 
                                                      </g> 
</svg> 
