<svg xmlns="http://www.w3.org/2000/svg" width="583" height="464"><defs><clipPath id="a"><path fill="none" d="M0 0h583v464H0V0z"/></clipPath></defs><g clip-path="url(#a)"><path fill="#FFF" d="M0 0h583v464H0z"/><path fill="none" stroke="#000" stroke-linecap="round" stroke-linejoin="round" stroke-miterlimit="10" stroke-opacity=".7" stroke-width="2.5" d="M-5 36.9 535.1 469" paint-order="fill stroke markers"/><text x="5" y="64" fill="none" stroke="#FFF" stroke-linecap="round" stroke-linejoin="bevel" stroke-miterlimit="10" stroke-width="3" dominant-baseline="alphabetic" font-family="geogebra-sans-serif, sans-serif" font-size="16" text-decoration="normal">l</text><text x="5" y="64" dominant-baseline="alphabetic" font-family="geogebra-sans-serif, sans-serif" font-size="16" text-decoration="normal">l</text><path fill="none" stroke="#000" stroke-linecap="round" stroke-linejoin="round" stroke-miterlimit="10" stroke-opacity=".7" stroke-width="2.5" d="m47.7 469 237-474" paint-order="fill stroke markers"/><text x="63" y="459" fill="none" stroke="#FFF" stroke-linecap="round" stroke-linejoin="bevel" stroke-miterlimit="10" stroke-width="3" dominant-baseline="alphabetic" font-family="geogebra-sans-serif, sans-serif" font-size="16" text-decoration="normal">m</text><text x="63" y="459" dominant-baseline="alphabetic" font-family="geogebra-sans-serif, sans-serif" font-size="16" text-decoration="normal">m</text><path fill="#4D4DFF" d="M192 190.5a5 5 0 1 1-10 0 5 5 0 0 1 10 0z" paint-order="stroke fill markers"/><path fill="none" stroke="#000" stroke-linecap="round" stroke-linejoin="round" stroke-miterlimit="10" d="M192 190.5a5 5 0 1 1-10 0 5 5 0 0 1 10 0z" paint-order="fill stroke markers"/><text x="191" y="181" fill="none" stroke="#FFF" stroke-linecap="round" stroke-linejoin="bevel" stroke-miterlimit="10" stroke-width="3" dominant-baseline="alphabetic" font-family="geogebra-sans-serif, sans-serif" font-size="16" text-decoration="normal">A</text><text x="191" y="181" fill="#4D4DFF" dominant-baseline="alphabetic" font-family="geogebra-sans-serif, sans-serif" font-size="16" text-decoration="normal">A</text><path fill="#4D4DFF" d="M442 390.5a5 5 0 1 1-10 0 5 5 0 0 1 10 0z" paint-order="stroke fill markers"/><path fill="none" stroke="#000" stroke-linecap="round" stroke-linejoin="round" stroke-miterlimit="10" d="M442 390.5a5 5 0 1 1-10 0 5 5 0 0 1 10 0z" paint-order="fill stroke markers"/><text x="441" y="381" fill="none" stroke="#FFF" stroke-linecap="round" stroke-linejoin="bevel" stroke-miterlimit="10" stroke-width="3" dominant-baseline="alphabetic" font-family="geogebra-sans-serif, sans-serif" font-size="16" text-decoration="normal">B</text><text x="441" y="381" fill="#4D4DFF" dominant-baseline="alphabetic" font-family="geogebra-sans-serif, sans-serif" font-size="16" text-decoration="normal">B</text></g></svg>