<?xml-stylesheet href="TE_export636300522083855138.css" type="text/css"?>
<svg xmlns="http://www.w3.org/2000/svg" width="569.1" height="455.2" viewBox="-142.3 -113.8 426.8 341.4">
  <g stroke-linejoin="round" transform="matrix(1 0 0 -1 0 113.8)" stroke-linecap="round" stroke-width=".5" stroke="#000">
    <clipPath id="a">
      <path d="M-142.3-113.8v341.4h426.8v-341.4zm426.8 341.4"/>
    </clipPath>
    <g clip-path="url(#a)">
      <path d="M-142.3 28.5H284.5M-142.3 398.3l17.8-35.5 17.8-35.6 17.8-35.6 17.8-35.5 17.8-35.6 17.7-35.6 17.8-35.5L0 113.8l17.8-35.6 17.8-35.5L53.3 7l17.8-35.6L89-64l17.8-35.6 17.8-35.6 17.8-35.5 17.7-35.6 17.8-35.5 17.8-35.6 17.8-35.6 17.8-35.5 17.8-35.6 17.7-35.6 17.8-35.5" fill="none" stroke="#00F"/>
      <path d="M-142.3-113.8l17.8 17.8 17.8 17.8 17.8 17.7 17.8 17.8 17.8 17.8 17.7 17.8 17.8 17.8L0 28.5l17.8 17.7L35.6 64l17.7 17.8 17.8 17.8L89 117.4l17.8 17.8 17.8 17.7 17.8 17.8 17.7 17.8 17.8 17.8 17.8 17.8 17.8 17.7 17.8 17.8 17.8 17.8 17.7 17.8 17.8 17.8" fill="none" stroke="#060"/>
      <path d="M0-113.8v341.4M-142.3-99.6l17.8 9 17.8 8.8 17.8 8.9 17.8 8.9 17.8 8.9 17.7 8.9 17.8 8.9L0-28.5l17.8 9 17.8 8.8 17.7 9L71.1 7 89 16l17.8 8.9 17.8 8.9 17.8 8.9 17.7 8.9 17.8 8.9 17.8 8.9 17.8 8.8 17.8 9L249 96l17.7 9 17.8 8.8" fill="none" stroke="red"/>
      <path d="M-142.3 220.5l17.8-13.3 17.8-13.4 17.8-13.3 17.8-13.3 17.8-13.4 17.7-13.3 17.8-13.4L0 113.8l17.8-13.3L35.6 87l17.7-13.3 17.8-13.3L89 47l17.8-13.3 17.8-13.3L142.3 7 160-6.2l17.8-13.4 17.8-13.3 17.8-13.3 17.8-13.4L249-72.9l17.7-13.3 17.8-13.4" fill="none" stroke="#060"/>
      <path d="M-142.3-39.8l17.8 3.5 17.8 3.6 17.8 3.5 17.8 3.6 17.8 3.5 17.7 3.6 17.8 3.6L0-11.4l17.8 3.6 17.8 3.5L53.3-.7l17.8 3.5L89 6.4l17.8 3.6 17.8 3.5 17.8 3.6 17.7 3.5 17.8 3.6 17.8 3.5 17.8 3.6 17.8 3.6 17.8 3.5 17.7 3.6 17.8 3.5" fill="none" stroke="#060"/>
      <path d="M-142.3 85.4l17.8-3 17.8-3 17.8-3 17.8-2.9 17.8-3 17.7-3 17.8-2.9 17.8-3 17.8-3 17.8-2.9 17.7-3 17.8-3L89 46.9l17.8-3 17.8-2.9 17.8-3 17.7-3 17.8-2.9 17.8-3 17.8-3 17.8-2.9 17.8-3 17.7-3 17.8-2.9" fill="none" stroke="red"/>
      <path d="M-142.3-103.9l17.8 11.6 17.8 11.6 17.8 11.5 17.8 11.6 17.8 11.5 17.7 11.6 17.8 11.6L0-11.4 17.8.2l17.8 11.5 17.7 11.6 17.8 11.6L89 46.4 106.7 58l17.8 11.5 17.8 11.6L160 92.6l17.8 11.6 17.8 11.6 17.8 11.5 17.8 11.6 17.8 11.5 17.7 11.6 17.8 11.6" fill="none" stroke="#00F" stroke-dasharray="4.0pt,4.0pt"/>
      <path d="M1.5 28.5a1.5 1.5 0 1 1-3 0 1.5 1.5 0 0 1 3 0zm-1.5 0"/>
      <text transform="matrix(1 0 0 -1 3.7 34)" text-anchor="middle" font-size="7" stroke="none">
        <tspan font-family="cmmi">A</tspan>
      </text>
      <path d="M115.3 28.5a1.5 1.5 0 1 1-3 0 1.5 1.5 0 0 1 3 0zm-1.5 0"/>
      <text transform="matrix(1 0 0 -1 117.8 34)" text-anchor="middle" font-size="7" stroke="none">
        <tspan font-family="cmmi">B</tspan>
      </text>
      <path d="M200.7 28.5a1.5 1.5 0 1 1-3 0 1.5 1.5 0 0 1 3 0zm-1.5 0"/>
      <text transform="matrix(1 0 0 -1 203.3 34)" text-anchor="middle" font-size="7" stroke="none">
        <tspan font-family="cmmi">C</tspan>
      </text>
      <path d="M58.4 0a1.5 1.5 0 1 1-3 0 1.5 1.5 0 0 1 3 0zM57 0"/>
      <text transform="matrix(1 0 0 -1 60.9 5.6)" text-anchor="middle" font-size="7" stroke="none">
        <tspan font-family="cmmi">D</tspan>
      </text>
      <path d="M30 57a1.5 1.5 0 1 1-3 0 1.5 1.5 0 0 1 3 0zm-1.5 0"/>
      <text transform="matrix(1 0 0 -1 32.4 62.8)" text-anchor="middle" font-size="7" stroke="none">
        <tspan font-family="cmmi">E</tspan>
      </text>
      <path d="M1.5 113.8a1.5 1.5 0 1 1-3 0 1.5 1.5 0 0 1 3 0zm-1.5 0"/>
      <text transform="matrix(1 0 0 -1 3.7 119.4)" text-anchor="middle" font-size="7" stroke="none">
        <tspan font-family="cmmi">F</tspan>
      </text>
      <path d="M-112.3-85.4a1.5 1.5 0 1 1-3 0 1.5 1.5 0 0 1 3 0zm-1.5 0" fill="#454542"/>
      <text transform="matrix(1 0 0 -1 -110.1 -79.8)" text-anchor="middle" font-size="7" stroke="none" fill="#454542">
        <tspan font-family="cmmi">G</tspan>
      </text>
      <path d="M1.5-11.4a1.5 1.5 0 1 1-3 0 1.5 1.5 0 0 1 3 0zm-1.5 0" fill="#454542"/>
      <text transform="matrix(1 0 0 -1 3.7 -6)" text-anchor="middle" font-size="7" stroke="none" fill="#454542">
        <tspan font-family="cmmi">H</tspan>
      </text>
      <path d="M90.9 46.7a1.5 1.5 0 1 1-3 0 1.5 1.5 0 0 1 3 0zm-1.5 0" fill="#454542"/>
      <text transform="matrix(1 0 0 -1 93.6 52.2)" text-anchor="middle" font-size="7" stroke="none" fill="#454542">
        <tspan font-family="cmmi">I</tspan>
      </text>
    </g>
  </g>
</svg>
