<?xml-stylesheet href="TE_export636161361829118877.css" type="text/css"?><svg xmlns="http://www.w3.org/2000/svg" width="476pt" height="356pt" viewBox="-110 -87 238.3 178.2"><g stroke="#000" stroke-linecap="round" stroke-linejoin="round" stroke-width=".5" transform="matrix(1 0 0 -1 0 4.3)"><path fill="none" stroke="silver" d="M-109.8-85.4H128M-109.8-71H128m-237.8 14H128m-237.8 14.2H128m-237.8 14.2H128m-237.8 14.3H128M-109.8 0H128m-237.8 14.2H128m-237.8 14.3H128m-237.8 14.2H128m-237.8 14.2H128m-237.8 14.2H128m-237.8 14.3H128M-99.6-86.8V91m14.2-177.8V91M-71-86.8V91m14-177.8V91m14.2-177.8V91m14.2-177.8V91m14.3-177.8V91M0-86.8V91M14.2-86.8V91M28.5-86.8V91M42.7-86.8V91M56.9-86.8V91M71.1-86.8V91M85.4-86.8V91M99.6-86.8V91m14.2-177.8V91M128-86.8V91"/><clipPath id="a"><path d="M-109.8-86.8V91H128V-86.8zM128 91"/></clipPath><g clip-path="url(#a)"><path fill="none" stroke="#00F" d="M-69.7-3.1C-68.1-24.6-28-39 19.8-35.2 67.6-31.5 105-11 103.3 10.5 101.6 32 61.5 46.4 13.7 42.6-34 39-71.4 18.4-69.7-3zm86.5 6.8"/><path fill="none" stroke="#0F0" d="M-109.8 105.4-100 94l9.9-11.3 10-11.4 9.8-11.3 10-11.4 9.8-11.3 10-11.4 9.9-11.4 9.9-11.3 9.9-11.4 9.9-11.3L9-31l10-11.3 9.8-11.4 10-11.3 9.8-11.4 10-11.3 10-11.3 9.9-11.4 9.9-11.3 9.9-11.4 10-11.3 9.8-11.4 10-11.3"/><path fill="none" stroke="red" d="m-109.8 66.8 9.9-5.6 9.9-5.7 10-5.7 9.8-5.6 10-5.7 9.8-5.7 10-5.6 9.9-5.7 9.9-5.6 9.9-5.7 9.9-5.7L9-1l10-5.7 9.8-5.7L39-18l9.8-5.7 10-5.7 9.9-5.6 9.9-5.7 9.9-5.6 9.9-5.7 10-5.7 9.8-5.6 10-5.7"/><path fill="none" stroke="red" d="m-109.8-112.4 9.9 12.4 9.9 12.4 10 12.4 9.8 12.4 10 12.4 9.8 12.3 10 12.4 9.9 12.4 9.9 12.4 9.9 12.4 9.9 12.4L9 36.3l10 12.4L28.8 61l10 12.3 9.8 12.4 10 12.4 9.9 12.4 9.9 12.4 9.9 12.4 9.9 12.4 10 12.4 9.8 12.3 10 12.4"/><path fill="none" stroke="#0F0" d="m-109.8 249.4 9.9-16.5 9.9-16.5 10-16.5 9.8-16.5 10-16.6 9.8-16.5 10-16.5 9.9-16.5 9.9-16.5 9.9-16.5 9.9-16.6L9 51.2l10-16.5 9.8-16.5L39 1.7 48.6-15l10-16.5L68.5-48l9.9-16.5 10-16.5 9.9-16.5 10-16.6 9.8-16.5 10-16.5"/><path fill="none" stroke="#0F0" d="m-109.8-84.4 9.9 8.2 9.9 8.3 10 8.3 9.8 8.2 10 8.3 9.8 8.2 10 8.3 9.9 8.3 9.9 8.2 9.9 8.3 9.9 8.2L9 14.7 19 23l9.8 8.2 10 8.3 9.8 8.2 10 8.3 9.9 8.3 9.9 8.2 9.9 8.3 9.9 8.2 10 8.3 9.8 8.2 10 8.3"/><path fill="none" stroke="red" d="m-109.8-363 9.9 26.4 9.9 26.4 10 26.4 9.8 26.3 10 26.4 9.8 26.3 10 26.4 9.9 26.4 9.9 26.3 9.9 26.4L-.8-73 9-46.6l10 26.3 9.8 26.4 10 26.4 9.8 26.3 10 26.4 9.9 26.3 9.9 26.4 9.9 26.3 9.9 26.4 10 26.4 9.8 26.3 10 26.4"/><path fill="none" stroke="#00F" stroke-dasharray="5pt 5pt" d="m-109.8-20.8 9.9 2.4L-90-16l10 2.4 9.8 2.4 10 2.4 9.8 2.4 10 2.4 9.9 2.4 9.9 2.4 9.9 2.4 9.9 2.4L9 8l10 2.4 9.8 2.4 10 2.5 9.8 2.4 10 2.4 9.9 2.4 9.9 2.4 9.9 2.4 9.9 2.4 10 2.4 9.8 2.4 10 2.4"/><path fill="#00F" d="M-41.4 28.5a1.2 1.2 0 1 1-2.5 0 1.2 1.2 0 0 1 2.5 0zm-1.3 0"/><text fill="#00F" stroke="none" font-size="7" text-anchor="middle" transform="matrix(1 0 0 -1 -40.7 31.2)"><tspan font-family="cmmi">A</tspan></text><path fill="#00F" d="M15.5 42.7a1.3 1.3 0 1 1-2.5 0 1.3 1.3 0 0 1 2.5 0zm-1.3 0"/><text fill="#00F" stroke="none" font-size="7" text-anchor="middle" transform="matrix(1 0 0 -1 16.2 45.4)"><tspan font-family="cmmi">B</tspan></text><path fill="#00F" d="M43.9 42.7a1.3 1.3 0 1 1-2.5 0 1.3 1.3 0 0 1 2.5 0zm-1.2 0"/><text fill="#00F" stroke="none" font-size="7" text-anchor="middle" transform="matrix(1 0 0 -1 44.7 45.4)"><tspan font-family="cmmi">C</tspan></text><path fill="#00F" d="M58.2-28.5a1.3 1.3 0 1 1-2.5 0 1.3 1.3 0 0 1 2.5 0zm-1.3 0"/><text fill="#00F" stroke="none" font-size="7" text-anchor="middle" transform="matrix(1 0 0 -1 58.9 -25.7)"><tspan font-family="cmmi">D</tspan></text><path fill="#00F" d="M-41.4-28.5a1.3 1.3 0 1 1-2.5 0 1.3 1.3 0 0 1 2.5 0zm-1.3 0"/><text fill="#00F" stroke="none" font-size="7" text-anchor="middle" transform="matrix(1 0 0 -1 -40.7 -25.7)"><tspan font-family="cmmi">E</tspan></text><text fill="#00F" stroke="none" font-size="7" text-anchor="middle" transform="matrix(1 0 0 -1 62.9 -19.4)"><tspan font-family="cmmi">c</tspan></text><path fill="#7D7DFF" d="M14.5-35.6a1.3 1.3 0 1 1-2.5 0 1.3 1.3 0 0 1 2.5 0zm-1.3 0"/><text fill="#7D7DFF" stroke="none" font-size="7" text-anchor="middle" transform="matrix(1 0 0 -1 15.4 -32.8)"><tspan font-family="cmmi">F</tspan></text><text fill="#0F0" stroke="none" font-size="7" text-anchor="middle" transform="matrix(1 0 0 -1 -91.9 87.3)"><tspan font-family="cmmi">f</tspan></text><text fill="red" stroke="none" font-size="7" text-anchor="middle" transform="matrix(1 0 0 -1 -107.6 62)"><tspan font-family="cmmi">g</tspan></text><text fill="red" stroke="none" font-size="7" text-anchor="middle" transform="matrix(1 0 0 -1 46.7 86.6)"><tspan font-family="cmmi">h</tspan></text><text fill="#0F0" stroke="none" font-size="7" text-anchor="middle" transform="matrix(1 0 0 -1 -10.2 86.7)"><tspan font-family="cmmi">i</tspan></text><text fill="#0F0" stroke="none" font-size="7" text-anchor="middle" transform="matrix(1 0 0 -1 -107.6 -78.7)"><tspan font-family="cmmi">j</tspan></text><text fill="red" stroke="none" font-size="7" text-anchor="middle" transform="matrix(1 0 0 -1 -1.7 -85.5)"><tspan font-family="cmmi">k</tspan></text><path fill="#444" d="M-18.2 1.2a.8.8 0 1 1-1.5 0 .8.8 0 0 1 1.5 0zm-.7 0"/><text fill="#444" stroke="none" font-size="7" text-anchor="middle" transform="matrix(1 0 0 -1 -17 2.7)"><tspan font-family="cmmi">G</tspan></text><path fill="#444" d="M32.5 13.5a.8.8 0 1 1-1.5 0 .8.8 0 0 1 1.5 0zm-.8 0"/><text fill="#444" stroke="none" font-size="7" text-anchor="middle" transform="matrix(1 0 0 -1 33.6 15.2)"><tspan font-family="cmmi">H</tspan></text><text fill="#00F" stroke="none" font-size="7" text-anchor="middle" transform="matrix(1 0 0 -1 124.6 31.7)"><tspan font-family="cmmi">l</tspan></text><path fill="#444" d="M-1.4 5.3a.7.7 0 1 1-1.5 0 .7.7 0 0 1 1.5 0zm-.8 0"/><text fill="#444" stroke="none" font-size="7" text-anchor="middle" transform="matrix(1 0 0 -1 -.3 7)"><tspan font-family="cmmi">I</tspan></text></g></g></svg>