<?xml-stylesheet href="TE_export636161430439473164.css" type="text/css"?>
<svg xmlns="http://www.w3.org/2000/svg" width="410pt" height="254pt" viewBox="-68.7 -35.8 204.9 127">
  <g stroke-linejoin="round" transform="matrix(1 0 0 -1 0 55.5)" stroke-linecap="round" stroke-width=".5" stroke="#000">
    <path d="M-61.2 0h196.4" fill="none"/>
    <path d="M130 2.3l5.5-2.3-5.5-2.3z" stroke-linejoin="miter"/>
    <path d="M-57 1v-2" fill="none"/>
    <text transform="matrix(1 0 0 -1 -57 -9.7)" text-anchor="middle" font-size="10" stroke="none">
      <tspan font-family="cmsy" font-size="8">- </tspan><tspan font-family="cmr" font-size="8">4</tspan><tspan font-family="cmmi" font-size="8">.</tspan>
    </text>
    <path d="M-42.7 1v-2" fill="none"/>
    <text transform="matrix(1 0 0 -1 -42.7 -9.7)" text-anchor="middle" font-size="10" stroke="none">
      <tspan font-family="cmsy" font-size="8">- </tspan><tspan font-family="cmr" font-size="8">3</tspan><tspan font-family="cmmi" font-size="8">.</tspan>
    </text>
    <path d="M-28.5 1v-2" fill="none"/>
    <text transform="matrix(1 0 0 -1 -28.5 -9.7)" text-anchor="middle" font-size="10" stroke="none">
      <tspan font-family="cmsy" font-size="8">- </tspan><tspan font-family="cmr" font-size="8">2</tspan><tspan font-family="cmmi" font-size="8">.</tspan>
    </text>
    <path d="M-14.2 1v-2" fill="none"/>
    <text transform="matrix(1 0 0 -1 -14.2 -9.7)" text-anchor="middle" font-size="10" stroke="none">
      <tspan font-family="cmsy" font-size="8">- </tspan><tspan font-family="cmr" font-size="8">1</tspan><tspan font-family="cmmi" font-size="8">.</tspan>
    </text>
    <path d="M14.2 1v-2" fill="none"/>
    <text transform="matrix(1 0 0 -1 14.2 -9.7)" text-anchor="middle" font-size="10" stroke="none">
      <tspan font-family="cmr" font-size="8">1</tspan><tspan font-family="cmmi" font-size="8">.</tspan>
    </text>
    <path d="M28.5 1v-2" fill="none"/>
    <text transform="matrix(1 0 0 -1 28.5 -9.7)" text-anchor="middle" font-size="10" stroke="none">
      <tspan font-family="cmr" font-size="8">2</tspan><tspan font-family="cmmi" font-size="8">.</tspan>
    </text>
    <path d="M42.7 1v-2" fill="none"/>
    <text transform="matrix(1 0 0 -1 42.7 -9.7)" text-anchor="middle" font-size="10" stroke="none">
      <tspan font-family="cmr" font-size="8">3</tspan><tspan font-family="cmmi" font-size="8">.</tspan>
    </text>
    <path d="M57 1v-2" fill="none"/>
    <text transform="matrix(1 0 0 -1 57 -9.7)" text-anchor="middle" font-size="10" stroke="none">
      <tspan font-family="cmr" font-size="8">4</tspan><tspan font-family="cmmi" font-size="8">.</tspan>
    </text>
    <path d="M71.1 1v-2" fill="none"/>
    <text transform="matrix(1 0 0 -1 71.1 -9.7)" text-anchor="middle" font-size="10" stroke="none">
      <tspan font-family="cmr" font-size="8">5</tspan><tspan font-family="cmmi" font-size="8">.</tspan>
    </text>
    <path d="M85.4 1v-2" fill="none"/>
    <text transform="matrix(1 0 0 -1 85.4 -9.7)" text-anchor="middle" font-size="10" stroke="none">
      <tspan font-family="cmr" font-size="8">6</tspan><tspan font-family="cmmi" font-size="8">.</tspan>
    </text>
    <path d="M99.6 1v-2" fill="none"/>
    <text transform="matrix(1 0 0 -1 99.6 -9.7)" text-anchor="middle" font-size="10" stroke="none">
      <tspan font-family="cmr" font-size="8">7</tspan><tspan font-family="cmmi" font-size="8">.</tspan>
    </text>
    <path d="M113.8 1v-2" fill="none"/>
    <text transform="matrix(1 0 0 -1 113.8 -9.7)" text-anchor="middle" font-size="10" stroke="none">
      <tspan font-family="cmr" font-size="8">8</tspan><tspan font-family="cmmi" font-size="8">.</tspan>
    </text>
    <g>
      <path d="M128 1v-2" fill="none"/>
      <text transform="matrix(1 0 0 -1 128 -9.7)" text-anchor="middle" font-size="10" stroke="none">
        <tspan font-family="cmr" font-size="8">9</tspan><tspan font-family="cmmi" font-size="8">.</tspan>
      </text>
    </g>
    <g>
      <path d="M0-35.6V88.8" fill="none"/>
      <path d="M-2.3 83.6L0 89l2.3-5.5z" stroke-linejoin="miter"/>
    </g>
    <g>
      <path d="M1-28.5h-2" fill="none"/>
      <text transform="matrix(1 0 0 -1 -13 -30.6)" text-anchor="middle" font-size="10" stroke="none">
        <tspan font-family="cmsy" font-size="8">- </tspan><tspan font-family="cmr" font-size="8">2</tspan><tspan font-family="cmmi" font-size="8">.</tspan>
      </text>
    </g>
    <g>
      <path d="M1-14.2h-2" fill="none"/>
      <text transform="matrix(1 0 0 -1 -13 -16.4)" text-anchor="middle" font-size="10" stroke="none">
        <tspan font-family="cmsy" font-size="8">- </tspan><tspan font-family="cmr" font-size="8">1</tspan><tspan font-family="cmmi" font-size="8">.</tspan>
      </text>
    </g>
    <g>
      <path d="M1 14.2h-2" fill="none"/>
      <text transform="matrix(1 0 0 -1 -7.8 11.6)" text-anchor="middle" font-size="10" stroke="none">
        <tspan font-family="cmr" font-size="8">1</tspan><tspan font-family="cmmi" font-size="8">.</tspan>
      </text>
    </g>
    <g>
      <path d="M1 28.5h-2" fill="none"/>
      <text transform="matrix(1 0 0 -1 -7.8 25.9)" text-anchor="middle" font-size="10" stroke="none">
        <tspan font-family="cmr" font-size="8">2</tspan><tspan font-family="cmmi" font-size="8">.</tspan>
      </text>
    </g>
    <g>
      <path d="M1 42.7h-2" fill="none"/>
      <text transform="matrix(1 0 0 -1 -7.8 40.1)" text-anchor="middle" font-size="10" stroke="none">
        <tspan font-family="cmr" font-size="8">3</tspan><tspan font-family="cmmi" font-size="8">.</tspan>
      </text>
    </g>
    <g>
      <path d="M1 57h-2" fill="none"/>
      <text transform="matrix(1 0 0 -1 -7.8 54.3)" text-anchor="middle" font-size="10" stroke="none">
        <tspan font-family="cmr" font-size="8">4</tspan><tspan font-family="cmmi" font-size="8">.</tspan>
      </text>
    </g>
    <g>
      <path d="M1 71.1h-2" fill="none"/>
      <text transform="matrix(1 0 0 -1 -7.8 68.6)" text-anchor="middle" font-size="10" stroke="none">
        <tspan font-family="cmr" font-size="8">5</tspan><tspan font-family="cmmi" font-size="8">.</tspan>
      </text>
    </g>
    <g>
      <path d="M1 85.4h-2" fill="none"/>
      <text transform="matrix(1 0 0 -1 -7.8 82.8)" text-anchor="middle" font-size="10" stroke="none">
        <tspan font-family="cmr" font-size="8">6</tspan><tspan font-family="cmmi" font-size="8">.</tspan>
      </text>
    </g>
    <g>
      <text transform="matrix(1 0 0 -1 5.7 -7.6)" text-anchor="middle" font-size="10" stroke="none">
        <tspan font-family="cmr" font-size="8">0</tspan>
      </text>
    </g>
    <clipPath id="a">
      <path d="M-61.2-35.6V89.6H136V-35.6zM136 89.6"/>
    </clipPath>
    <g clip-path="url(#a)">
      <path d="M74 44.1L35.3 6.5M74 44.1L35.3 68.9M35.3 68.9L12 28.2M12 28.2L35.3 6.5M12 28.2L74 44M35.3 68.9V6.5M74.6 37.6a32 32 0 1 1-64 0 32 32 0 0 1 64 0zm-32 0" fill="none"/>
      <path d="M75.2 44.1a1.3 1.3 0 1 1-2.5 0 1.3 1.3 0 0 1 2.5 0zm-1.2 0" fill="#00F"/>
      <text transform="matrix(1 0 0 -1 76 46.8)" text-anchor="middle" font-size="7" stroke="none" fill="#00F">
        <tspan font-family="cmmi">A</tspan>
      </text>
      <path d="M36.5 68.9a1.3 1.3 0 1 1-2.5 0 1.3 1.3 0 0 1 2.5 0zm-1.2 0" fill="#00F"/>
      <text transform="matrix(1 0 0 -1 37.3 71.6)" text-anchor="middle" font-size="7" stroke="none" fill="#00F">
        <tspan font-family="cmmi">B</tspan>
      </text>
      <path d="M13.2 28.2a1.3 1.3 0 1 1-2.5 0 1.3 1.3 0 0 1 2.5 0zm-1.2 0" fill="#00F"/>
      <text transform="matrix(1 0 0 -1 14 30.9)" text-anchor="middle" font-size="7" stroke="none" fill="#00F">
        <tspan font-family="cmmi">C</tspan>
      </text>
      <path d="M36.5 6.5a1.3 1.3 0 1 1-2.5 0 1.3 1.3 0 0 1 2.5 0zm-1.2 0" fill="#00F"/>
      <text transform="matrix(1 0 0 -1 37.3 9.3)" text-anchor="middle" font-size="7" stroke="none" fill="#00F">
        <tspan font-family="cmmi">D</tspan>
      </text>
      <text transform="matrix(1 0 0 -1 52 29.5)" text-anchor="middle" font-size="7" stroke="none">
        <tspan font-family="cmmi">a</tspan>
      </text>
      <text transform="matrix(1 0 0 -1 57.8 60.2)" text-anchor="middle" font-size="7" stroke="none">
        <tspan font-family="cmmi">b</tspan>
      </text>
      <text transform="matrix(1 0 0 -1 20.5 51.7)" text-anchor="middle" font-size="7" stroke="none">
        <tspan font-family="cmmi">c</tspan>
      </text>
      <text transform="matrix(1 0 0 -1 21.3 14)" text-anchor="middle" font-size="7" stroke="none">
        <tspan font-family="cmmi">d</tspan>
      </text>
      <text transform="matrix(1 0 0 -1 44.7 33.3)" text-anchor="middle" font-size="7" stroke="none">
        <tspan font-family="cmmi">p</tspan>
      </text>
      <text transform="matrix(1 0 0 -1 31.3 39.3)" text-anchor="middle" font-size="7" stroke="none">
        <tspan font-family="cmmi">q</tspan>
      </text>
    </g>
  </g>
</svg>
