<?xml version="1.0" encoding="iso-8859-1" standalone="no"?> 
<?xml-stylesheet href="TE_export636161360701944406.css" type="text/css"?> 
<svg xmlns="http://www.w3.org/2000/svg" xmlns:xlink="http://www.w3.org/1999/xlink" width="596pt" height="367pt" viewBox="-61.17343 -93.89413 298.18483 183.52031 "> 
<g transform="translate(0, 89.62617 ) scale(1,-1) translate(0,93.89413 )"> 
                  <g> 
 <g stroke="rgb(0.0%,0.0%,0.0%)"> 
 <g fill="rgb(0.0%,0.0%,0.0%)"> 
 <g stroke-width="0.4pt"> 
 <g> 
 <g stroke-linecap="round"> 
 <g stroke-linejoin="round"> 
 <clipPath id="pgfcp1"> <path d=" M  -61.17343 -93.89413 M  -61.17343 -93.89413 L  -61.17343 89.62617 L  237.0114 89.62617 L  237.0114 -93.89413 Z M  237.0114 89.62617  "/> 
</clipPath> 
 <g clip-path="url(#pgfcp1)"> 
 <g> 
 <g stroke="rgb(50.0%,19.9997%,0.0%)"> 
 <g fill="rgb(50.0%,19.9997%,0.0%)"> 
 <g fill="rgb(50.0%,19.9997%,0.0%)"> 
 <g fill-opacity="0.1"> 
 <path d=" M  96.17018 51.49939 L  63.4497 23.33124 L  86.49635 3.1298 L  108.68947 11.09654 Z  " style="stroke:none"/> 
 </g> 
 </g> 
 </g> 
 </g> 
 </g> 
 <g> 
 <g stroke="rgb(100.0%,0.0%,0.0%)"> 
 <g fill="rgb(100.0%,0.0%,0.0%)"> 
 <path d=" M  -61.17343 -83.95287 L  -48.74924 -73.2566 L  -36.32504 -62.56143 L  -23.90085 -51.86603 L  -11.47665 -41.17064 L  0.94754 -30.47481 L  13.37173 -19.77942 L  25.79593 -9.0838 L  38.22012 1.61136 L  50.64432 12.30762 L  63.06851 23.00279 L  75.49272 33.69841 L  87.91692 44.39401 L  100.34111 55.08984 L  112.7653 65.78502 L  125.1895 76.48106 L  137.6137 87.17647 L  150.0379 97.87207 L  162.4621 108.56746 L  174.88629 119.26308 L  187.31049 129.95847 L  199.73468 140.6543 L  212.15887 151.34947 L  224.58308 162.04575 L  237.00728 172.74092  " style="fill:none"/> 
 </g> 
 </g> 
 </g> 
 <g> 
 <g stroke="rgb(100.0%,0.0%,0.0%)"> 
 <g fill="rgb(100.0%,0.0%,0.0%)"> 
 <path d=" M  -61.17343 -49.87912 L  -48.74924 -45.42058 L  -36.32504 -40.9592 L  -23.90085 -36.49913 L  -11.47665 -32.03929 L  0.94754 -27.57922 L  13.37173 -23.11937 L  25.79593 -18.6593 L  38.22012 -14.19923 L  50.64432 -9.74068 L  63.06851 -5.27931 L  75.49272 -0.82076 L  87.91692 3.63907 L  100.34111 8.09914 L  112.7653 12.55899 L  125.1895 17.01906 L  137.6137 21.47891 L  150.0379 25.93898 L  162.4621 30.39883 L  174.88629 34.8589 L  187.31049 39.31876 L  199.73468 43.77882 L  212.15887 48.23868 L  224.58308 52.69875 L  237.00728 57.15881  " style="fill:none"/> 
 </g> 
 </g> 
 </g> 
 <g> 
 <g stroke="rgb(0.0%,0.0%,100.0%)"> 
 <g fill="rgb(0.0%,0.0%,100.0%)"> 
 <path d=" M  -61.17343 559.26967 L  -48.74924 519.17487 L  -36.32504 479.08005 L  -23.90085 438.98546 L  -11.47665 398.89064 L  0.94754 358.79605 L  13.37173 318.70146 L  25.79593 278.60664 L  38.22012 238.51184 L  50.64432 198.41724 L  63.06851 158.32222 L  75.49272 118.22762 L  87.91692 78.13281 L  100.34111 38.038 L  112.7653 -2.05637 L  125.1895 -42.15117 L  137.6137 -82.24599 L  150.0379 -122.34058 L  162.4621 -162.43561 L  174.88629 -202.5302 L  187.31049 -242.6248 L  199.73468 -282.71983 L  212.15887 -322.81442 L  224.58308 -362.90901 L  237.00728 -403.00404  " style="fill:none"/> 
 </g> 
 </g> 
 </g> 
 <g> 
 <g stroke="rgb(0.0%,0.0%,100.0%)"> 
 <g fill="rgb(0.0%,0.0%,100.0%)"> 
 <path d=" M  -61.17343 132.56839 L  -48.74924 121.67805 L  -36.32504 110.78642 L  -23.90085 99.89761 L  -11.47665 89.00577 L  0.94754 78.11566 L  13.37173 67.22533 L  25.79593 56.20845 L  38.22012 45.44467 L  50.64432 34.55586 L  63.06851 23.66423 L  75.49272 12.7739 L  87.91692 1.88358 L  100.34111 -9.00522 L  112.7653 -19.89426 L  125.1895 -30.78589 L  137.6137 -41.67621 L  150.0379 -52.56654 L  162.4621 -63.45665 L  174.88629 -74.34698 L  187.31049 -85.2358 L  199.73468 -96.12764 L  212.15887 -107.01797 L  224.58308 -117.90808 L  237.00728 -128.79842  " style="fill:none"/> 
 </g> 
 </g> 
 </g> 
 <g> 
 <g stroke="rgb(0.0%,60.00061%,0.0%)"> 
 <g fill="rgb(0.0%,60.00061%,0.0%)"> 
 <path d=" M  -61.17343 -735.23007 L  -48.74924 -673.10822 L  -36.32504 -610.98615 L  -23.90085 -548.86429 L  -11.47665 -486.74266 L  0.94754 -424.62102 L  13.37173 -362.49896 L  25.79593 -300.37732 L  38.22012 -238.25546 L  50.64432 -176.13362 L  63.06851 -114.01155 L  75.49272 -51.88991 L  87.91692 10.2317 L  100.34111 72.35356 L  112.7653 134.47563 L  125.1895 196.59749 L  137.6137 258.71912 L  150.0379 320.84097 L  162.4621 382.96304 L  174.88629 445.0849 L  187.31049 507.20653 L  199.73468 569.32838 L  212.15887 631.45045 L  224.58308 693.5723 L  237.00728 755.69394  " style="fill:none"/> 
 </g> 
 </g> 
 </g> 
 <g> 
 <g stroke="rgb(0.0%,60.00061%,0.0%)"> 
 <g fill="rgb(0.0%,60.00061%,0.0%)"> 
 <path d=" M  -61.17343 57.03464 L  -48.74924 53.67342 L  -36.32504 50.31458 L  -23.90085 46.95444 L  -11.47665 43.59453 L  0.94754 40.23482 L  13.37173 36.87447 L  25.79593 33.51454 L  38.22012 30.15462 L  50.64432 26.7947 L  63.06851 23.43456 L  75.49272 20.07465 L  87.91692 16.71451 L  100.34111 13.3548 L  112.7653 9.99445 L  125.1895 6.63452 L  137.6137 3.27438 L  150.0379 -0.08595 L  162.4621 -3.44566 L  174.88629 -6.80602 L  187.31049 -10.16594 L  199.73468 -13.52608 L  212.15887 -16.88577 L  224.58308 -20.24591 L  237.00728 -23.60628  " style="fill:none"/> 
 </g> 
 </g> 
 </g> 
 <path d=" M  -61.17343 -24.82538 L  -48.74924 -24.35432 L  -36.32504 -23.88304 L  -23.90085 -23.41199 L  -11.47665 -22.9407 L  0.94754 -22.46965 L  13.37173 -21.99838 L  25.79593 -21.5271 L  38.22012 -21.05605 L  50.64432 -20.58478 L  63.06851 -20.11371 L  75.49272 -19.64244 L  87.91692 -19.17139 L  100.34111 -18.7001 L  112.7653 -18.22905 L  125.1895 -17.75778 L  137.6137 -17.2865 L  150.0379 -16.81436 L  162.4621 -16.34439 L  174.88629 -15.87311 L  187.31049 -15.40184 L  199.73468 -14.93079 L  212.15887 -14.4595 L  224.58308 -13.98845 L  237.00728 -13.51717  " style="fill:none"/> 
 <g> 
 <g stroke="rgb(50.0%,19.9997%,0.0%)"> 
 <g fill="rgb(50.0%,19.9997%,0.0%)"> 
 <path d=" M  96.17018 51.49939 L  63.4497 23.33124  " style="fill:none"/> 
 </g> 
 </g> 
 </g> 
 <g> 
 <g stroke="rgb(50.0%,19.9997%,0.0%)"> 
 <g fill="rgb(50.0%,19.9997%,0.0%)"> 
 <path d=" M  63.4497 23.33124 L  86.49635 3.1298  " style="fill:none"/> 
 </g> 
 </g> 
 </g> 
 <g> 
 <g stroke="rgb(50.0%,19.9997%,0.0%)"> 
 <g fill="rgb(50.0%,19.9997%,0.0%)"> 
 <path d=" M  86.49635 3.1298 L  108.68947 11.09654  " style="fill:none"/> 
 </g> 
 </g> 
 </g> 
 <g> 
 <g stroke="rgb(50.0%,19.9997%,0.0%)"> 
 <g fill="rgb(50.0%,19.9997%,0.0%)"> 
 <path d=" M  108.68947 11.09654 L  96.17018 51.49939  " style="fill:none"/> 
 </g> 
 </g> 
 </g> 
 <g> 
 <g fill="rgb(0.0%,0.0%,100.0%)"> 
 <path d=" M  96.17018 51.49939 M  96.92018 51.49939 C  96.92018 51.9136 96.5844 52.24939 96.17018 52.24939 C  95.75597 52.24939 95.42018 51.9136 95.42018 51.49939 C  95.42018 51.08517 95.75597 50.74939 96.17018 50.74939 C  96.5844 50.74939 96.92018 51.08517 96.92018 51.49939 Z M  96.17018 51.49939  " /> 
 </g> 
 </g> 
 <g> 
 <g stroke="rgb(0.0%,0.0%,100.0%)"> 
 <g fill="rgb(0.0%,0.0%,100.0%)"> 
 <path d=" M  98.16187 55.48276  " style="fill:none"/> 
 <g> 
 <g> 
 <g transform="matrix(1.0,0.0,0.0,1.0,95.07802,53.0911)"> 
 <g fill="rgb(0.0%,0.0%,100.0%)"> 
 <text style="stroke:none" transform="scale(1,-1) translate(3.08385,0)" text-anchor="middle"  font-size="7"> 
<tspan font-family="cmmi" font-size="7">P</tspan></text> 
</g> 
 </g> 
 </g> 
 </g> 
 </g> 
 </g> 
 </g> 
 <g> 
 <g fill="rgb(0.0%,0.0%,100.0%)"> 
 <path d=" M  63.4497 23.33124 M  64.1997 23.33124 C  64.1997 23.74545 63.86392 24.08124 63.4497 24.08124 C  63.03549 24.08124 62.6997 23.74545 62.6997 23.33124 C  62.6997 22.91702 63.03549 22.58124 63.4497 22.58124 C  63.86392 22.58124 64.1997 22.91702 64.1997 23.33124 Z M  63.4497 23.33124  " /> 
 </g> 
 </g> 
 <g> 
 <g stroke="rgb(0.0%,0.0%,100.0%)"> 
 <g fill="rgb(0.0%,0.0%,100.0%)"> 
 <path d=" M  65.44139 27.3146  " style="fill:none"/> 
 <g> 
 <g> 
 <g transform="matrix(1.0,0.0,0.0,1.0,62.29251,25.60349)"> 
 <g fill="rgb(0.0%,0.0%,100.0%)"> 
 <text style="stroke:none" transform="scale(1,-1) translate(3.14888,0)" text-anchor="middle"  font-size="7"> 
<tspan font-family="cmmi" font-size="7">Q</tspan></text> 
</g> 
 </g> 
 </g> 
 </g> 
 </g> 
 </g> 
 </g> 
 <g> 
 <g fill="rgb(0.0%,0.0%,100.0%)"> 
 <path d=" M  86.49635 3.1298 M  87.24635 3.1298 C  87.24635 3.54402 86.91057 3.8798 86.49635 3.8798 C  86.08214 3.8798 85.74635 3.54402 85.74635 3.1298 C  85.74635 2.71559 86.08214 2.3798 86.49635 2.3798 C  86.91057 2.3798 87.24635 2.71559 87.24635 3.1298 Z M  86.49635 3.1298  " /> 
 </g> 
 </g> 
 <g> 
 <g stroke="rgb(0.0%,0.0%,100.0%)"> 
 <g fill="rgb(0.0%,0.0%,100.0%)"> 
 <path d=" M  88.48804 7.11317  " style="fill:none"/> 
 <g> 
 <g> 
 <g transform="matrix(1.0,0.0,0.0,1.0,85.458,4.72151)"> 
 <g fill="rgb(0.0%,0.0%,100.0%)"> 
 <text style="stroke:none" transform="scale(1,-1) translate(3.03004,0)" text-anchor="middle"  font-size="7"> 
<tspan font-family="cmmi" font-size="7">R</tspan></text> 
</g> 
 </g> 
 </g> 
 </g> 
 </g> 
 </g> 
 </g> 
 <g> 
 <g fill="rgb(0.0%,0.0%,100.0%)"> 
 <path d=" M  108.68947 11.09654 M  109.43947 11.09654 C  109.43947 11.51076 109.10368 11.84654 108.68947 11.84654 C  108.27525 11.84654 107.93947 11.51076 107.93947 11.09654 C  107.93947 10.68233 108.27525 10.34654 108.68947 10.34654 C  109.10368 10.34654 109.43947 10.68233 109.43947 11.09654 Z M  108.68947 11.09654  " /> 
 </g> 
 </g> 
 <g> 
 <g stroke="rgb(0.0%,0.0%,100.0%)"> 
 <g fill="rgb(0.0%,0.0%,100.0%)"> 
 <path d=" M  110.68115 15.07991  " style="fill:none"/> 
 <g> 
 <g> 
 <g transform="matrix(1.0,0.0,0.0,1.0,108.03462,12.68825)"> 
 <g fill="rgb(0.0%,0.0%,100.0%)"> 
 <text style="stroke:none" transform="scale(1,-1) translate(2.64653,0)" text-anchor="middle"  font-size="7"> 
<tspan font-family="cmmi" font-size="7">S</tspan></text> 
</g> 
 </g> 
 </g> 
 </g> 
 </g> 
 </g> 
 </g> 
 <g> 
 <g fill="rgb(0.0%,0.0%,100.0%)"> 
 <path d=" M  -51.78398 -24.46938 M  -51.03398 -24.46938 C  -51.03398 -24.05516 -51.36977 -23.71938 -51.78398 -23.71938 C  -52.1982 -23.71938 -52.53398 -24.05516 -52.53398 -24.46938 C  -52.53398 -24.88359 -52.1982 -25.21938 -51.78398 -25.21938 C  -51.36977 -25.21938 -51.03398 -24.88359 -51.03398 -24.46938 Z M  -51.78398 -24.46938  " /> 
 </g> 
 </g> 
 <g> 
 <g fill="rgb(0.0%,0.0%,100.0%)"> 
 <path d=" M  233.31241 -13.65741 M  234.06241 -13.65741 C  234.06241 -13.2432 233.72662 -12.90741 233.31241 -12.90741 C  232.8982 -12.90741 232.56241 -13.2432 232.56241 -13.65741 C  232.56241 -14.07162 232.8982 -14.40741 233.31241 -14.40741 C  233.72662 -14.40741 234.06241 -14.07162 234.06241 -13.65741 Z M  233.31241 -13.65741  " /> 
 </g> 
 </g> 
 <g> 
 <g fill="rgb(26.66626%,26.66626%,26.66626%)"> 
 <path d=" M  10.6752 -22.10062 M  11.4252 -22.10062 C  11.4252 -21.6864 11.08942 -21.35062 10.6752 -21.35062 C  10.26099 -21.35062 9.9252 -21.6864 9.9252 -22.10062 C  9.9252 -22.51483 10.26099 -22.85062 10.6752 -22.85062 C  11.08942 -22.85062 11.4252 -22.51483 11.4252 -22.10062 Z M  10.6752 -22.10062  " /> 
 </g> 
 </g> 
 <g> 
 <g stroke="rgb(26.66626%,26.66626%,26.66626%)"> 
 <g fill="rgb(26.66626%,26.66626%,26.66626%)"> 
 <path d=" M  12.80363 -18.20973  " style="fill:none"/> 
 <g> 
 <g> 
 <g transform="matrix(1.0,0.0,0.0,1.0,9.79668,-20.6014)"> 
 <g fill="rgb(26.66626%,26.66626%,26.66626%)"> 
 <text style="stroke:none" transform="scale(1,-1) translate(3.00696,0)" text-anchor="middle"  font-size="7"> 
<tspan font-family="cmmi" font-size="7">A</tspan></text> 
</g> 
 </g> 
 </g> 
 </g> 
 </g> 
 </g> 
 </g> 
 <g> 
 <g fill="rgb(26.66626%,26.66626%,26.66626%)"> 
 <path d=" M  16.86559 -21.86597 M  17.61559 -21.86597 C  17.61559 -21.45175 17.2798 -21.11597 16.86559 -21.11597 C  16.45137 -21.11597 16.11559 -21.45175 16.11559 -21.86597 C  16.11559 -22.28018 16.45137 -22.61597 16.86559 -22.61597 C  17.2798 -22.61597 17.61559 -22.28018 17.61559 -21.86597 Z M  16.86559 -21.86597  " /> 
 </g> 
 </g> 
 <g> 
 <g stroke="rgb(26.66626%,26.66626%,26.66626%)"> 
 <g fill="rgb(26.66626%,26.66626%,26.66626%)"> 
 <path d=" M  18.7789 -17.92514  " style="fill:none"/> 
 <g> 
 <g> 
 <g transform="matrix(1.0,0.0,0.0,1.0,15.40202,-20.3168)"> 
 <g fill="rgb(26.66626%,26.66626%,26.66626%)"> 
 <text style="stroke:none" transform="scale(1,-1) translate(3.37688,0)" text-anchor="middle"  font-size="7"> 
<tspan font-family="cmmi" font-size="7">D</tspan></text> 
</g> 
 </g> 
 </g> 
 </g> 
 </g> 
 </g> 
 </g> 
 <g> 
 <g fill="rgb(26.66626%,26.66626%,26.66626%)"> 
 <path d=" M  81.99113 -19.39606 M  82.74113 -19.39606 C  82.74113 -18.98184 82.40535 -18.64606 81.99113 -18.64606 C  81.57692 -18.64606 81.24113 -18.98184 81.24113 -19.39606 C  81.24113 -19.81027 81.57692 -20.14606 81.99113 -20.14606 C  82.40535 -20.14606 82.74113 -19.81027 82.74113 -19.39606 Z M  81.99113 -19.39606  " /> 
 </g> 
 </g> 
 <g> 
 <g stroke="rgb(26.66626%,26.66626%,26.66626%)"> 
 <g fill="rgb(26.66626%,26.66626%,26.66626%)"> 
 <path d=" M  83.9355 -15.3645  " style="fill:none"/> 
 <g> 
 <g> 
 <g transform="matrix(1.0,0.0,0.0,1.0,80.82251,-17.75616)"> 
 <g fill="rgb(26.66626%,26.66626%,26.66626%)"> 
 <text style="stroke:none" transform="scale(1,-1) translate(3.11299,0)" text-anchor="middle"  font-size="7"> 
<tspan font-family="cmmi" font-size="7">C</tspan></text> 
</g> 
 </g> 
 </g> 
 </g> 
 </g> 
 </g> 
 </g> 
 <g> 
 <g fill="rgb(26.66626%,26.66626%,26.66626%)"> 
 <path d=" M  110.94229 -18.29808 M  111.69229 -18.29808 C  111.69229 -17.88387 111.3565 -17.54808 110.94229 -17.54808 C  110.52808 -17.54808 110.19229 -17.88387 110.19229 -18.29808 C  110.19229 -18.7123 110.52808 -19.04808 110.94229 -19.04808 C  111.3565 -19.04808 111.69229 -18.7123 111.69229 -18.29808 Z M  110.94229 -18.29808  " /> 
 </g> 
 </g> 
 <g> 
 <g stroke="rgb(26.66626%,26.66626%,26.66626%)"> 
 <g fill="rgb(26.66626%,26.66626%,26.66626%)"> 
 <path d=" M  112.95741 -14.22636  " style="fill:none"/> 
 <g> 
 <g> 
 <g transform="matrix(1.0,0.0,0.0,1.0,109.76591,-16.61803)"> 
 <g fill="rgb(26.66626%,26.66626%,26.66626%)"> 
 <text style="stroke:none" transform="scale(1,-1) translate(3.1915,0)" text-anchor="middle"  font-size="7"> 
<tspan font-family="cmmi" font-size="7">B</tspan></text> 
</g> 
 </g> 
 </g> 
 </g> 
 </g> 
 </g> 
 </g> 
 <g> 
 <g fill="rgb(26.66626%,26.66626%,26.66626%)"> 
 <path d=" M  117.71814 -18.04106 M  118.46814 -18.04106 C  118.46814 -17.62685 118.13235 -17.29106 117.71814 -17.29106 C  117.30392 -17.29106 116.96814 -17.62685 116.96814 -18.04106 C  116.96814 -18.45528 117.30392 -18.79106 117.71814 -18.79106 C  118.13235 -18.79106 118.46814 -18.45528 118.46814 -18.04106 Z M  117.71814 -18.04106  " /> 
 </g> 
 </g> 
 <g> 
 <g stroke="rgb(26.66626%,26.66626%,26.66626%)"> 
 <g fill="rgb(26.66626%,26.66626%,26.66626%)"> 
 <path d=" M  119.78601 -13.94177  " style="fill:none"/> 
 <g> 
 <g> 
 <g transform="matrix(1.0,0.0,0.0,1.0,116.65823,-16.33344)"> 
 <g fill="rgb(26.66626%,26.66626%,26.66626%)"> 
 <text style="stroke:none" transform="scale(1,-1) translate(3.12778,0)" text-anchor="middle"  font-size="7"> 
<tspan font-family="cmmi" font-size="7">E</tspan></text> 
</g> 
 </g> 
 </g> 
 </g> 
 </g> 
 </g> 
 </g> 
 <g> 
 <g fill="rgb(26.66626%,26.66626%,26.66626%)"> 
 <path d=" M  204.29092 -14.75798 M  205.04092 -14.75798 C  205.04092 -14.34377 204.70514 -14.00798 204.29092 -14.00798 C  203.87671 -14.00798 203.54092 -14.34377 203.54092 -14.75798 C  203.54092 -15.1722 203.87671 -15.50798 204.29092 -15.50798 C  204.70514 -15.50798 205.04092 -15.1722 205.04092 -14.75798 Z M  204.29092 -14.75798  " /> 
 </g> 
 </g> 
 <g> 
 <g stroke="rgb(26.66626%,26.66626%,26.66626%)"> 
 <g fill="rgb(26.66626%,26.66626%,26.66626%)"> 
 <path d=" M  206.28238 -10.81195  " style="fill:none"/> 
 <g> 
 <g> 
 <g transform="matrix(1.0,0.0,0.0,1.0,203.2084,-13.20361)"> 
 <g fill="rgb(26.66626%,26.66626%,26.66626%)"> 
 <text style="stroke:none" transform="scale(1,-1) translate(3.07397,0)" text-anchor="middle"  font-size="7"> 
<tspan font-family="cmmi" font-size="7">F</tspan></text> 
</g> 
 </g> 
 </g> 
 </g> 
 </g> 
 </g> 
 </g> 
 </g> 
 </g> 
 </g> 
 </g> 
 </g> 
 </g> 
 </g> 
 </g> 
 
                                                                                           </g> 
</svg> 
