<?xml-stylesheet href="TE_export636162228779265330.css" type="text/css"?>
<svg xmlns="http://www.w3.org/2000/svg" width="596pt" height="367pt" viewBox="-61.2 -93.9 298.2 183.5">
  <g stroke-linejoin="round" transform="matrix(1 0 0 -1 0 -4.3)" stroke-linecap="round" stroke-width=".5" stroke="#000">
    <clipPath id="a">
      <path d="M-61.2-93.9V89.6H237V-93.9zM237 89.6"/>
    </clipPath>
    <g clip-path="url(#a)">
      <path d="M96.2 51.5L63.4 23.3 86.5 3.1 65.2 7.7z" stroke="none" fill-opacity=".1" fill="#930"/>
      <path d="M-61.2-84l12.5 10.7 12.4 10.7L-24-51.9l12.4 10.7L1-30.5l12.5 10.7L25.8-9 38.2 1.6l12.4 10.7L63.1 23l12.4 10.7 12.4 10.7L100.3 55l12.5 10.7 12.4 10.7 12.4 10.7L150 97.9l12.5 10.7 12.4 10.7 12.4 10.7 12.4 10.7 12.5 10.6 12.4 10.7 12.4 10.7" fill="none" stroke="red"/>
      <path d="M-61.2 34.6l12.5-2.6 12.4-2.7 12.4-2.6 12.4-2.7L1 21.4l12.5-2.7 12.4-2.6 12.4-2.7 12.4-2.6L63.1 8l12.4-2.6 12.4-2.7L100.3.2l12.5-2.7L125.2-5l12.4-2.7 12.4-2.6 12.5-2.7 12.4-2.6 12.4-2.7 12.4-2.6 12.5-2.7 12.4-2.6L237-29" fill="none" stroke="red"/>
      <path d="M-61.2-170.8l12.5 17.6 12.4 17.5 12.4 17.6 12.4 17.5L1-83l12.5 17.5 12.4 17.6 12.4 17.5 12.4 17.6L63.1 4.7l12.4 17.6 12.4 17.5 12.4 17.6 12.5 17.5 12.4 17.6 12.4 17.6 12.4 17.5 12.5 17.6 12.4 17.5 12.4 17.6 12.4 17.5 12.5 17.6 12.4 17.5 12.4 17.6" fill="none" stroke="#00F"/>
      <path d="M-61.2 132.6l12.5-11 12.4-10.8L-24 99.9-11.5 89 1 78.1l12.5-10.9 12.4-11 12.4-10.8 12.4-10.8 12.5-11 12.4-10.8 12.4-11L100.3-9 112.8-20l12.4-10.9 12.4-10.9L150-52.6l12.5-10.9 12.4-10.8 12.4-11L199.7-96l12.5-11 12.4-10.8 12.4-10.9" fill="none" stroke="#00F"/>
      <path d="M-61.2-735.2l12.5 62 12.4 62.2 12.4 62.1 12.4 62.2 12.4 62 12.5 62.2 12.4 62.1 12.4 62.1L50.6-176l12.5 62 12.4 62.2 12.4 62.1 12.4 62.2 12.5 62 12.4 62.2 12.4 62.1 12.4 62.1 12.5 62.2 12.4 62 12.4 62.2 12.4 62.1 12.5 62.2 12.4 62 12.4 62.2" fill="none" stroke="#0F0"/>
      <path d="M-61.2 1165.7l12.5-113.9L-36.3 938-24 824l12.4-113.8L1 596.2l12.5-113.8 12.4-114 12.4-113.8 12.4-113.9L63.1 26.8 75.5-87 87.9-201l12.4-113.8 12.5-114 12.4-113.8 12.4-114L150-770.3l12.5-113.9 12.4-113.9 12.4-113.9 12.4-113.9 12.5-113.9 12.4-113.8 12.4-114" fill="none" stroke="#0F0"/>
      <path d="M-61.2-24.8l12.5.4 12.4.5 12.4.5 12.4.5 12.4.4 12.5.5 12.4.5 12.4.4 12.4.5 12.5.5 12.4.5 12.4.4 12.4.5 12.5.5 12.4.4 12.4.5 12.4.5 12.5.5 12.4.4 12.4.5 12.4.5 12.5.4 12.4.5 12.4.5" fill="none"/>
      <path d="M96.2 51.5L63.4 23.3M63.4 23.3L86.5 3.1M86.5 3.1L65.2 7.7M65.2 7.7l31 43.8" fill="none" stroke="#930"/>
      <path d="M96.9 51.5a.7.7 0 1 1-1.5 0 .7.7 0 0 1 1.5 0zm-.7 0" fill="#00F"/>
      <text transform="matrix(1 0 0 -1 98.2 53.2)" text-anchor="middle" font-size="7" stroke="none" fill="#00F">
        <tspan font-family="cmmi">P</tspan>
      </text>
      <path d="M64.2 23.3a.7.7 0 1 1-1.5 0 .7.7 0 0 1 1.5 0zm-.8 0" fill="#00F"/>
      <text transform="matrix(1 0 0 -1 65.4 25.7)" text-anchor="middle" font-size="7" stroke="none" fill="#00F">
        <tspan font-family="cmmi">Q</tspan>
      </text>
      <path d="M87.2 3.1a.7.7 0 1 1-1.5 0 .7.7 0 0 1 1.5 0zm-.7 0" fill="#00F"/>
      <text transform="matrix(1 0 0 -1 88.5 4.9)" text-anchor="middle" font-size="7" stroke="none" fill="#00F">
        <tspan font-family="cmmi">R</tspan>
      </text>
      <path d="M65.9 7.7a.7.7 0 1 1-1.5 0 .7.7 0 0 1 1.5 0zm-.7 0" fill="#00F"/>
      <text transform="matrix(1 0 0 -1 67.1 9.4)" text-anchor="middle" font-size="7" stroke="none" fill="#00F">
        <tspan font-family="cmmi">S</tspan>
      </text>
      <path d="M11.399999999999999-22.1a.7.7 0 1 1-1.5 0 .7.7 0 0 1 1.5 0zm-.7 0" fill="#444"/>
      <text transform="matrix(1 0 0 -1 12.8 -20.5)" text-anchor="middle" font-size="7" stroke="none" fill="#444">
        <tspan font-family="cmmi">A</tspan>
      </text>
      <path d="M176.2-15.9a.7.7 0 1 1-1.5 0 .7.7 0 0 1 1.5 0zm-.7 0" fill="#444"/>
      <text transform="matrix(1 0 0 -1 177.5 -14.2)" text-anchor="middle" font-size="7" stroke="none" fill="#444">
        <tspan font-family="cmmi">B</tspan>
      </text>
      <path d="M82.7-19.4a.7.7 0 1 1-1.5 0 .7.7 0 0 1 1.5 0zm-.7 0" fill="#444"/>
      <text transform="matrix(1 0 0 -1 84 -17.6)" text-anchor="middle" font-size="7" stroke="none" fill="#444">
        <tspan font-family="cmmi">C</tspan>
      </text>
      <path d="M111.7-18.3a.8.8 0 1 1-1.5 0 .8.8 0 0 1 1.5 0zm-.8 0" fill="#444"/>
      <text transform="matrix(1 0 0 -1 113 -16.5)" text-anchor="middle" font-size="7" stroke="none" fill="#444">
        <tspan font-family="cmmi">D</tspan>
      </text>
      <path d="M45.7-20.8a.7.7 0 1 1-1.5 0 .7.7 0 0 1 1.5 0zm-.7 0" fill="#444"/>
      <text transform="matrix(1 0 0 -1 47 -19)" text-anchor="middle" font-size="7" stroke="none" fill="#444">
        <tspan font-family="cmmi">E</tspan>
      </text>
      <path d="M68.9-20a.8.8 0 1 1-1.5 0 .8.8 0 0 1 1.5 0zm-.7 0" fill="#444"/>
      <text transform="matrix(1 0 0 -1 70.3 -18.2)" text-anchor="middle" font-size="7" stroke="none" fill="#444">
        <tspan font-family="cmmi">F</tspan>
      </text>
    </g>
  </g>
</svg>
