<?xml-stylesheet href="TE_export636301322305457898.css" type="text/css"?>
<svg xmlns="http://www.w3.org/2000/svg" width="455.2" height="341.4" viewBox="-199.2 -113.8 341.4 256.1">
  <g transform="matrix(1 0 0 -1 0 28.5)" stroke-width=".5" stroke="#000">
    <clipPath id="a">
      <path d="M-199.2-113.8v256h341.5v-256zm341.5 256"/>
    </clipPath>
    <g clip-path="url(#a)">
      <path d="M-199.2 540.6l14.3-56.9 14.2-57 14.2-56.8 14.2-57 14.3-56.8 14.2-57 14.2-56.8 14.2-57L-71 28.6l14.2-57 14.2-56.9 14.2-56.9 14.3-56.9L0-256 14.2-313l14.3-56.9 14.2-56.9 14.2-56.9 14.2-56.9 14.3-57 14.2-56.8 14.2-57 14.2-56.8 14.3-57" fill="none"/>
      <path d="M-199.2-135.2l14.3 10.7 14.2 10.7 14.2 10.7 14.2 10.6 14.3 10.7 14.2 10.7 14.2 10.6 14.2 10.7L-71-39-57-28.5l14.2 10.7L-28.5-7l14.3 10.7L0 14.2 14.2 25l14.3 10.7 14.2 10.6L56.9 57l14.2 10.7 14.3 10.6L99.6 89l14.2 10.7 14.2 10.7 14.3 10.6" fill="none"/>
      <path d="M-199.2 108.1l14.3-2.8 14.2-2.9 14.2-2.8 14.2-2.9L-128 94l14.2-2.9 14.2-2.8 14.2-2.8 14.3-2.9 14.2-2.8 14.2-2.9 14.2-2.8 14.3-2.9L0 68.3l14.2-2.9 14.3-2.8 14.2-2.8 14.2-2.9 14.2-2.8 14.3-2.9 14.2-2.8 14.2-2.9 14.2-2.8 14.3-2.9" fill="none"/>
      <path d="M-82.9 85.4a2.5 2.5 0 1 1-5 0 2.5 2.5 0 0 1 5 0zm-2.5 0" fill="#00F"/>
      <text transform="matrix(1 0 0 -1 -82.5 91.5)" text-anchor="middle" font-size="7" stroke="none" fill="#00F">
        <tspan font-family="cmmi">A</tspan>
      </text>
      <path d="M-54.4-28.5a2.5 2.5 0 1 1-5 0 2.5 2.5 0 0 1 5 0zm-2.5 0" fill="#00F"/>
      <text transform="matrix(1 0 0 -1 -54 -22.3)" text-anchor="middle" font-size="7" stroke="none" fill="#00F">
        <tspan font-family="cmmi">B</tspan>
      </text>
      <text transform="matrix(1 0 0 -1 -105.3 135)" text-anchor="middle" font-size="7" stroke="none">
        <tspan font-family="cmmi">c</tspan>
      </text>
      <path d="M59.4 57a2.5 2.5 0 1 1-5 0 2.5 2.5 0 0 1 5 0zM57 57" fill="#00F"/>
      <text transform="matrix(1 0 0 -1 59.8 63)" text-anchor="middle" font-size="7" stroke="none" fill="#00F">
        <tspan font-family="cmmi">C</tspan>
      </text>
      <text transform="matrix(1 0 0 -1 -159.3 -109.6)" text-anchor="middle" font-size="7" stroke="none">
        <tspan font-family="cmmi">a</tspan>
      </text>
      <text transform="matrix(1 0 0 -1 -187 100)" text-anchor="middle" font-size="7" stroke="none">
        <tspan font-family="cmmi">b</tspan>
      </text>
    </g>
  </g>
</svg>
