<?xml version="1.0" encoding="UTF-8" standalone="no"?>
<!DOCTYPE svg PUBLIC "-//W3C//DTD SVG 1.1//EN"
 "http://www.w3.org/Graphics/SVG/1.1/DTD/svg11.dtd">
<!-- Generated by graphviz version 2.40.1 (20161225.0304)
 -->
<!-- Title: lib/include/ckpttncpp/bpqueue.hpp Pages: 1 -->
<svg width="323pt" height="151pt"
 viewBox="0.00 0.00 323.00 151.00" xmlns="http://www.w3.org/2000/svg" xmlns:xlink="http://www.w3.org/1999/xlink">
<g id="graph0" class="graph" transform="scale(1 1) rotate(0) translate(4 147)">
<title>lib/include/ckpttncpp/bpqueue.hpp</title>
<polygon fill="#ffffff" stroke="transparent" points="-4,4 -4,-147 319,-147 319,4 -4,4"/>
<!-- Node0 -->
<g id="node1" class="node">
<title>Node0</title>
<polygon fill="#bfbfbf" stroke="#000000" points="139,-112.5 139,-142.5 245,-142.5 245,-112.5 139,-112.5"/>
<text text-anchor="start" x="147" y="-130.5" font-family="Helvetica,sans-Serif" font-size="10.00" fill="#000000">lib/include/ckpttncpp</text>
<text text-anchor="middle" x="192" y="-119.5" font-family="Helvetica,sans-Serif" font-size="10.00" fill="#000000">/bpqueue.hpp</text>
</g>
<!-- Node1 -->
<g id="node2" class="node">
<title>Node1</title>
<g id="a_node2"><a xlink:href="dllist_8hpp.html" target="_top" xlink:title="dllist.hpp">
<polygon fill="#ffffff" stroke="#000000" points="79,-56.5 79,-75.5 135,-75.5 135,-56.5 79,-56.5"/>
<text text-anchor="middle" x="107" y="-63.5" font-family="Helvetica,sans-Serif" font-size="10.00" fill="#000000">dllist.hpp</text>
</a>
</g>
</g>
<!-- Node0&#45;&gt;Node1 -->
<g id="edge1" class="edge">
<title>Node0&#45;&gt;Node1</title>
<path fill="none" stroke="#191970" d="M170.9888,-112.2977C158.2066,-103.0495 141.9054,-91.2551 128.9552,-81.8853"/>
<polygon fill="#191970" stroke="#191970" points="130.763,-78.8732 120.6096,-75.8469 126.6597,-84.5445 130.763,-78.8732"/>
</g>
<!-- Node3 -->
<g id="node4" class="node">
<title>Node3</title>
<polygon fill="#ffffff" stroke="#bfbfbf" points="138.5,-.5 138.5,-19.5 187.5,-19.5 187.5,-.5 138.5,-.5"/>
<text text-anchor="middle" x="163" y="-7.5" font-family="Helvetica,sans-Serif" font-size="10.00" fill="#000000">cassert</text>
</g>
<!-- Node0&#45;&gt;Node3 -->
<g id="edge4" class="edge">
<title>Node0&#45;&gt;Node3</title>
<path fill="none" stroke="#191970" d="M188.2088,-112.1389C182.9602,-90.873 173.482,-52.4702 167.7623,-29.2956"/>
<polygon fill="#191970" stroke="#191970" points="171.1537,-28.4295 165.3594,-19.5595 164.3576,-30.1068 171.1537,-28.4295"/>
</g>
<!-- Node4 -->
<g id="node5" class="node">
<title>Node4</title>
<polygon fill="#ffffff" stroke="#bfbfbf" points="191,-56.5 191,-75.5 253,-75.5 253,-56.5 191,-56.5"/>
<text text-anchor="middle" x="222" y="-63.5" font-family="Helvetica,sans-Serif" font-size="10.00" fill="#000000">type_traits</text>
</g>
<!-- Node0&#45;&gt;Node4 -->
<g id="edge5" class="edge">
<title>Node0&#45;&gt;Node4</title>
<path fill="none" stroke="#191970" d="M199.4157,-112.2977C203.4499,-104.0277 208.4773,-93.7215 212.764,-84.9339"/>
<polygon fill="#191970" stroke="#191970" points="215.958,-86.3691 217.1966,-75.8469 209.6666,-83.3001 215.958,-86.3691"/>
</g>
<!-- Node5 -->
<g id="node6" class="node">
<title>Node5</title>
<polygon fill="#ffffff" stroke="#bfbfbf" points="271,-56.5 271,-75.5 315,-75.5 315,-56.5 271,-56.5"/>
<text text-anchor="middle" x="293" y="-63.5" font-family="Helvetica,sans-Serif" font-size="10.00" fill="#000000">vector</text>
</g>
<!-- Node0&#45;&gt;Node5 -->
<g id="edge6" class="edge">
<title>Node0&#45;&gt;Node5</title>
<path fill="none" stroke="#191970" d="M216.7074,-112.4554C232.5247,-102.8241 252.9567,-90.3828 268.6949,-80.7996"/>
<polygon fill="#191970" stroke="#191970" points="270.6277,-83.7206 277.3486,-75.5303 266.9871,-77.7418 270.6277,-83.7206"/>
</g>
<!-- Node2 -->
<g id="node3" class="node">
<title>Node2</title>
<polygon fill="#ffffff" stroke="#bfbfbf" points="0,-.5 0,-19.5 120,-19.5 120,-.5 0,-.5"/>
<text text-anchor="middle" x="60" y="-7.5" font-family="Helvetica,sans-Serif" font-size="10.00" fill="#000000">boost/coroutine2/all.hpp</text>
</g>
<!-- Node1&#45;&gt;Node2 -->
<g id="edge2" class="edge">
<title>Node1&#45;&gt;Node2</title>
<path fill="none" stroke="#191970" d="M98.8132,-56.2455C92.1411,-48.2958 82.5521,-36.8706 74.5747,-27.3656"/>
<polygon fill="#191970" stroke="#191970" points="77.2026,-25.0524 68.093,-19.6427 71.8408,-29.5525 77.2026,-25.0524"/>
</g>
<!-- Node1&#45;&gt;Node3 -->
<g id="edge3" class="edge">
<title>Node1&#45;&gt;Node3</title>
<path fill="none" stroke="#191970" d="M116.7545,-56.2455C124.8648,-48.1352 136.5925,-36.4075 146.2081,-26.7919"/>
<polygon fill="#191970" stroke="#191970" points="148.7611,-29.1887 153.3573,-19.6427 143.8113,-24.2389 148.7611,-29.1887"/>
</g>
</g>
</svg>
