<?xml version="1.0" encoding="UTF-8" standalone="no"?>
<!DOCTYPE svg PUBLIC "-//W3C//DTD SVG 1.1//EN"
 "http://www.w3.org/Graphics/SVG/1.1/DTD/svg11.dtd">
<!-- Generated by graphviz version 2.40.1 (20161225.0304)
 -->
<!-- Title: FMKWayGainCalc::__modify_gain Pages: 1 -->
<svg width="362pt" height="214pt"
 viewBox="0.00 0.00 362.00 214.00" xmlns="http://www.w3.org/2000/svg" xmlns:xlink="http://www.w3.org/1999/xlink">
<g id="graph0" class="graph" transform="scale(1 1) rotate(0) translate(4 210)">
<title>FMKWayGainCalc::__modify_gain</title>
<polygon fill="#ffffff" stroke="transparent" points="-4,4 -4,-210 358,-210 358,4 -4,4"/>
<!-- Node16 -->
<g id="node1" class="node">
<title>Node16</title>
<polygon fill="#bfbfbf" stroke="#000000" points="0,-93.5 0,-112.5 167,-112.5 167,-93.5 0,-93.5"/>
<text text-anchor="middle" x="83.5" y="-100.5" font-family="Helvetica,sans-Serif" font-size="10.00" fill="#000000">FMKWayGainCalc::__modify_gain</text>
</g>
<!-- Node17 -->
<g id="node2" class="node">
<title>Node17</title>
<g id="a_node2"><a xlink:href="classFMKWayGainCalc.html#a5b45851c3ebe7cca95f69936c8036378" target="_top" xlink:title="FMKWayGainCalc::__init_gain">
<polygon fill="#ffffff" stroke="#000000" points="203,-186.5 203,-205.5 354,-205.5 354,-186.5 203,-186.5"/>
<text text-anchor="middle" x="278.5" y="-193.5" font-family="Helvetica,sans-Serif" font-size="10.00" fill="#000000">FMKWayGainCalc::__init_gain</text>
</a>
</g>
</g>
<!-- Node16&#45;&gt;Node17 -->
<g id="edge1" class="edge">
<title>Node16&#45;&gt;Node17</title>
<path fill="none" stroke="#191970" d="M96.043,-112.6035C117.0593,-128.2586 161.2035,-159.3044 203,-177 208.7994,-179.4553 214.9888,-181.6463 221.2341,-183.5878"/>
<polygon fill="#191970" stroke="#191970" points="220.4669,-187.0095 231.0462,-186.4355 222.418,-180.2869 220.4669,-187.0095"/>
</g>
<!-- Node18 -->
<g id="node3" class="node">
<title>Node18</title>
<g id="a_node3"><a xlink:href="classFMKWayGainCalc.html#ad3ea1582c3bc067b2b11e0a01576441e" target="_top" xlink:title="FMKWayGainCalc::__init\l_gain_2pin_net">
<polygon fill="#ffffff" stroke="#000000" points="214.5,-137 214.5,-167 342.5,-167 342.5,-137 214.5,-137"/>
<text text-anchor="start" x="222.5" y="-155" font-family="Helvetica,sans-Serif" font-size="10.00" fill="#000000">FMKWayGainCalc::__init</text>
<text text-anchor="middle" x="278.5" y="-144" font-family="Helvetica,sans-Serif" font-size="10.00" fill="#000000">_gain_2pin_net</text>
</a>
</g>
</g>
<!-- Node16&#45;&gt;Node18 -->
<g id="edge2" class="edge">
<title>Node16&#45;&gt;Node18</title>
<path fill="none" stroke="#191970" d="M121.5609,-112.564C146.3563,-118.7947 179.4454,-127.1094 208.8468,-134.4974"/>
<polygon fill="#191970" stroke="#191970" points="208.1075,-137.9204 218.659,-136.963 209.8135,-131.1314 208.1075,-137.9204"/>
</g>
<!-- Node19 -->
<g id="node4" class="node">
<title>Node19</title>
<g id="a_node4"><a xlink:href="classFMKWayGainCalc.html#a828ae5e06cafcd701079951df4e1b382" target="_top" xlink:title="FMKWayGainCalc::__init\l_gain_3pin_net">
<polygon fill="#ffffff" stroke="#000000" points="214.5,-88 214.5,-118 342.5,-118 342.5,-88 214.5,-88"/>
<text text-anchor="start" x="222.5" y="-106" font-family="Helvetica,sans-Serif" font-size="10.00" fill="#000000">FMKWayGainCalc::__init</text>
<text text-anchor="middle" x="278.5" y="-95" font-family="Helvetica,sans-Serif" font-size="10.00" fill="#000000">_gain_3pin_net</text>
</a>
</g>
</g>
<!-- Node16&#45;&gt;Node19 -->
<g id="edge3" class="edge">
<title>Node16&#45;&gt;Node19</title>
<path fill="none" stroke="#191970" d="M167.0461,-103C179.4023,-103 192.0637,-103 204.2144,-103"/>
<polygon fill="#191970" stroke="#191970" points="204.2831,-106.5001 214.283,-103 204.283,-99.5001 204.2831,-106.5001"/>
</g>
<!-- Node20 -->
<g id="node5" class="node">
<title>Node20</title>
<g id="a_node5"><a xlink:href="classFMKWayGainCalc.html#a289b142baba06adf86bb7d38c6edfa8e" target="_top" xlink:title="FMKWayGainCalc::__init\l_gain_general_net">
<polygon fill="#ffffff" stroke="#000000" points="214.5,-39 214.5,-69 342.5,-69 342.5,-39 214.5,-39"/>
<text text-anchor="start" x="222.5" y="-57" font-family="Helvetica,sans-Serif" font-size="10.00" fill="#000000">FMKWayGainCalc::__init</text>
<text text-anchor="middle" x="278.5" y="-46" font-family="Helvetica,sans-Serif" font-size="10.00" fill="#000000">_gain_general_net</text>
</a>
</g>
</g>
<!-- Node16&#45;&gt;Node20 -->
<g id="edge4" class="edge">
<title>Node16&#45;&gt;Node20</title>
<path fill="none" stroke="#191970" d="M121.5609,-93.436C146.3563,-87.2053 179.4454,-78.8906 208.8468,-71.5026"/>
<polygon fill="#191970" stroke="#191970" points="209.8135,-74.8686 218.659,-69.037 208.1075,-68.0796 209.8135,-74.8686"/>
</g>
<!-- Node21 -->
<g id="node6" class="node">
<title>Node21</title>
<g id="a_node6"><a xlink:href="classrobin.html#a611dc76ad105db9eb9d388916f080ac6" target="_top" xlink:title="robin::exclude">
<polygon fill="#ffffff" stroke="#000000" points="240,-.5 240,-19.5 317,-19.5 317,-.5 240,-.5"/>
<text text-anchor="middle" x="278.5" y="-7.5" font-family="Helvetica,sans-Serif" font-size="10.00" fill="#000000">robin::exclude</text>
</a>
</g>
</g>
<!-- Node16&#45;&gt;Node21 -->
<g id="edge5" class="edge">
<title>Node16&#45;&gt;Node21</title>
<path fill="none" stroke="#191970" d="M96.4326,-93.3459C117.6508,-77.9222 161.639,-47.6662 203,-30 211.5166,-26.3624 220.8626,-23.2422 229.9893,-20.6223"/>
<polygon fill="#191970" stroke="#191970" points="231.021,-23.9691 239.7571,-17.9749 229.1898,-17.2128 231.021,-23.9691"/>
</g>
</g>
</svg>
