<?xml version="1.0" encoding="UTF-8" standalone="no"?>
<!DOCTYPE svg PUBLIC "-//W3C//DTD SVG 1.1//EN"
 "http://www.w3.org/Graphics/SVG/1.1/DTD/svg11.dtd">
<!-- Generated by graphviz version 2.40.1 (20161225.0304)
 -->
<!-- Title: iter::impl::Dropper::Iterator::Iterator Pages: 1 -->
<!--zoomable 99 -->
<svg id="main" version="1.1" xmlns="http://www.w3.org/2000/svg" xmlns:xlink="http://www.w3.org/1999/xlink" xml:space="preserve" onload="init(evt)">
<style type="text/css"><![CDATA[
.edge:hover path { stroke: red; }
.edge:hover polygon { stroke: red; fill: red; }
]]></style>
<script type="text/javascript"><![CDATA[
var edges = document.getElementsByTagName('g');
if (edges && edges.length) {
  for (var i=0;i<edges.length;i++) {
    if (edges[i].id.substr(0,4)=='edge') {
      edges[i].setAttribute('class','edge');
    }
  }
}
]]></script>
        <defs>
                <circle id="rim" cx="0" cy="0" r="7"/>
                <circle id="rim2" cx="0" cy="0" r="3.5"/>
                <g id="zoomPlus">
                        <use xlink:href="#rim" fill="#404040">
                                <set attributeName="fill" to="#808080" begin="zoomplus.mouseover" end="zoomplus.mouseout"/>
                        </use>
                        <path d="M-4,0h8M0,-4v8" fill="none" stroke="white" stroke-width="1.5" pointer-events="none"/>
                </g>
                <g id="zoomMin">
                        <use xlink:href="#rim" fill="#404040">
                                <set attributeName="fill" to="#808080" begin="zoomminus.mouseover" end="zoomminus.mouseout"/>
                        </use>
                        <path d="M-4,0h8" fill="none" stroke="white" stroke-width="1.5" pointer-events="none"/>
                </g>
                <g id="dirArrow">
                        <path fill="none" stroke="white" stroke-width="1.5" d="M0,-3.0v7 M-2.5,-0.5L0,-3.0L2.5,-0.5"/>
                </g>
               <g id="resetDef">
                       <use xlink:href="#rim2" fill="#404040">
                               <set attributeName="fill" to="#808080" begin="reset.mouseover" end="reset.mouseout"/>
                       </use>
               </g>
        </defs>

<script type="text/javascript">
var viewWidth = 570;
var viewHeight = 99;
var sectionId = 'dynsection-1';
</script>
<script xlink:href="svgpan.js"/>
<svg id="graph" class="graph">
<g id="viewport">
<title>iter::impl::Dropper::Iterator::Iterator</title>
<polygon fill="#ffffff" stroke="transparent" points="-4,4 -4,-95 566,-95 566,4 -4,4"/>
<!-- Node0 -->
<g id="node1" class="node">
<title>Node0</title>
<polygon fill="#bfbfbf" stroke="#000000" points="0,-60.5 0,-90.5 95,-90.5 95,-60.5 0,-60.5"/>
<text text-anchor="start" x="8" y="-78.5" font-family="Helvetica,sans-Serif" font-size="10.00" fill="#000000">iter::impl::Dropper</text>
<text text-anchor="middle" x="47.5" y="-67.5" font-family="Helvetica,sans-Serif" font-size="10.00" fill="#000000">::Iterator::Iterator</text>
</g>
<!-- Node1 -->
<g id="node2" class="node">
<title>Node1</title>
<g id="a_node2"><a xlink:href="classiter_1_1impl_1_1DerefHolder.html#a4a12f16da7c4abfcce96d056604e59f3" target="_top" xlink:title="iter::impl::DerefHolder\l::reset">
<polygon fill="#ffffff" stroke="#000000" points="449,-41.5 449,-71.5 562,-71.5 562,-41.5 449,-41.5"/>
<text text-anchor="start" x="457" y="-59.5" font-family="Helvetica,sans-Serif" font-size="10.00" fill="#000000">iter::impl::DerefHolder</text>
<text text-anchor="middle" x="505.5" y="-48.5" font-family="Helvetica,sans-Serif" font-size="10.00" fill="#000000">::reset</text>
</a>
</g>
</g>
<!-- Node0&#45;&gt;Node1 -->
<g id="edge1" class="edge">
<title>Node0&#45;&gt;Node1</title>
<path fill="none" stroke="#191970" d="M95.0178,-79.6542C164.9444,-84.9168 299.555,-91.8052 413,-78.5 422.3693,-77.4011 432.1651,-75.6965 441.7301,-73.7114"/>
<polygon fill="#191970" stroke="#191970" points="442.566,-77.1114 451.5868,-71.5548 441.0698,-70.2732 442.566,-77.1114"/>
</g>
<!-- Node2 -->
<g id="node3" class="node">
<title>Node2</title>
<g id="a_node3"><a xlink:href="classiter_1_1impl_1_1Dropper_1_1Iterator.html#a649c7ad51ea7cb4482cb308ae562a6e7" target="_top" xlink:title="iter::impl::Dropper\l::Iterator::skip_passes">
<polygon fill="#ffffff" stroke="#000000" points="131,-38.5 131,-68.5 245,-68.5 245,-38.5 131,-38.5"/>
<text text-anchor="start" x="139" y="-56.5" font-family="Helvetica,sans-Serif" font-size="10.00" fill="#000000">iter::impl::Dropper</text>
<text text-anchor="middle" x="188" y="-45.5" font-family="Helvetica,sans-Serif" font-size="10.00" fill="#000000">::Iterator::skip_passes</text>
</a>
</g>
</g>
<!-- Node0&#45;&gt;Node2 -->
<g id="edge2" class="edge">
<title>Node0&#45;&gt;Node2</title>
<path fill="none" stroke="#191970" d="M95.0669,-68.0518C103.3065,-66.7616 112.0125,-65.3984 120.6595,-64.0444"/>
<polygon fill="#191970" stroke="#191970" points="121.4138,-67.469 130.752,-62.4641 120.3309,-60.5533 121.4138,-67.469"/>
</g>
<!-- Node3 -->
<g id="node4" class="node">
<title>Node3</title>
<g id="a_node4"><a xlink:href="classiter_1_1impl_1_1DerefHolder.html#afd546af01ab32729654712885955c300" target="_top" xlink:title="iter::impl::DerefHolder::get">
<polygon fill="#ffffff" stroke="#000000" points="281,-50 281,-69 413,-69 413,-50 281,-50"/>
<text text-anchor="middle" x="347" y="-57" font-family="Helvetica,sans-Serif" font-size="10.00" fill="#000000">iter::impl::DerefHolder::get</text>
</a>
</g>
</g>
<!-- Node2&#45;&gt;Node3 -->
<g id="edge3" class="edge">
<title>Node2&#45;&gt;Node3</title>
<path fill="none" stroke="#191970" d="M245.4026,-55.6661C253.5606,-55.974 262.0557,-56.2946 270.5055,-56.6134"/>
<polygon fill="#191970" stroke="#191970" points="270.6393,-60.1209 280.7642,-57.0005 270.9033,-53.1258 270.6393,-60.1209"/>
</g>
<!-- Node4 -->
<g id="node5" class="node">
<title>Node4</title>
<g id="a_node5"><a xlink:href="classiter_1_1impl_1_1Dropper_1_1Iterator.html#a8fd7a7915ab91e99bdc72a5ada37e6b1" target="_top" xlink:title="iter::impl::Dropper\l::Iterator::inc_sub_iter">
<polygon fill="#ffffff" stroke="#000000" points="291,-.5 291,-30.5 403,-30.5 403,-.5 291,-.5"/>
<text text-anchor="start" x="299" y="-18.5" font-family="Helvetica,sans-Serif" font-size="10.00" fill="#000000">iter::impl::Dropper</text>
<text text-anchor="middle" x="347" y="-7.5" font-family="Helvetica,sans-Serif" font-size="10.00" fill="#000000">::Iterator::inc_sub_iter</text>
</a>
</g>
</g>
<!-- Node2&#45;&gt;Node4 -->
<g id="edge4" class="edge">
<title>Node2&#45;&gt;Node4</title>
<path fill="none" stroke="#191970" d="M245.4026,-39.7811C256.9387,-37.0241 269.149,-34.1059 280.9519,-31.2851"/>
<polygon fill="#191970" stroke="#191970" points="281.8343,-34.6729 290.7468,-28.9442 280.2071,-27.8646 281.8343,-34.6729"/>
</g>
<!-- Node4&#45;&gt;Node1 -->
<g id="edge5" class="edge">
<title>Node4&#45;&gt;Node1</title>
<path fill="none" stroke="#191970" d="M403.3275,-30.0705C414.867,-33.0555 427.1159,-36.224 438.9746,-39.2915"/>
<polygon fill="#191970" stroke="#191970" points="438.262,-42.7223 448.8199,-41.8383 440.0151,-35.9454 438.262,-42.7223"/>
</g>
</g>
</svg>
        <g id="navigator" transform="translate(0 0)" fill="#404254">
                <rect fill="#f2f5e9" fill-opacity="0.5" stroke="#606060" stroke-width=".5" x="0" y="0" width="60" height="60"/>
                <use id="zoomplus" xlink:href="#zoomPlus" x="17" y="9" onmousedown="handleZoom(evt,'in')"/>
                <use id="zoomminus" xlink:href="#zoomMin" x="42" y="9" onmousedown="handleZoom(evt,'out')"/>
                <use id="reset" xlink:href="#resetDef" x="30" y="36" onmousedown="handleReset()"/>
                <g id="arrowUp" xlink:href="#dirArrow" transform="translate(30 24)" onmousedown="handlePan(0,-1)">
                  <use xlink:href="#rim" fill="#404040">
                        <set attributeName="fill" to="#808080" begin="arrowUp.mouseover" end="arrowUp.mouseout"/>
                  </use>
                  <path fill="none" stroke="white" stroke-width="1.5" d="M0,-3.0v7 M-2.5,-0.5L0,-3.0L2.5,-0.5"/>
                </g>
                <g id="arrowRight" xlink:href="#dirArrow" transform="rotate(90) translate(36 -43)" onmousedown="handlePan(1,0)">
                  <use xlink:href="#rim" fill="#404040">
                        <set attributeName="fill" to="#808080" begin="arrowRight.mouseover" end="arrowRight.mouseout"/>
                  </use>
                  <path fill="none" stroke="white" stroke-width="1.5" d="M0,-3.0v7 M-2.5,-0.5L0,-3.0L2.5,-0.5"/>
                </g>
                <g id="arrowDown" xlink:href="#dirArrow" transform="rotate(180) translate(-30 -48)" onmousedown="handlePan(0,1)">
                  <use xlink:href="#rim" fill="#404040">
                        <set attributeName="fill" to="#808080" begin="arrowDown.mouseover" end="arrowDown.mouseout"/>
                  </use>
                  <path fill="none" stroke="white" stroke-width="1.5" d="M0,-3.0v7 M-2.5,-0.5L0,-3.0L2.5,-0.5"/>
                </g>
                <g id="arrowLeft" xlink:href="#dirArrow" transform="rotate(270) translate(-36 17)" onmousedown="handlePan(-1,0)">
                  <use xlink:href="#rim" fill="#404040">
                        <set attributeName="fill" to="#808080" begin="arrowLeft.mouseover" end="arrowLeft.mouseout"/>
                  </use>
                  <path fill="none" stroke="white" stroke-width="1.5" d="M0,-3.0v7 M-2.5,-0.5L0,-3.0L2.5,-0.5"/>
                </g>
        </g>
        <svg viewBox="0 0 15 15" width="100%" height="30px" preserveAspectRatio="xMaxYMin meet">
         <g id="arrow_out" transform="scale(0.3 0.3)">
          <a xlink:href="classiter_1_1impl_1_1Dropper_1_1Iterator_affbabaf36f022224da59dea4c8c0965a_cgraph_org.svg" target="_base">
           <rect id="button" ry="5" rx="5" y="6" x="6" height="38" width="38"
                fill="#f2f5e9" fill-opacity="0.5" stroke="#606060" stroke-width="1.0"/>
           <path id="arrow"
             d="M 11.500037,31.436501 C 11.940474,20.09759 22.043105,11.32322 32.158766,21.979434 L 37.068811,17.246167 C 37.068811,17.246167 37.088388,32 37.088388,32 L 22.160133,31.978069 C 22.160133,31.978069 26.997745,27.140456 26.997745,27.140456 C 18.528582,18.264221 13.291696,25.230495 11.500037,31.436501 z"
             style="fill:#404040;"/>
          </a>
         </g>
        </svg>
</svg>
