<?xml version="1.0" encoding="UTF-8" standalone="no"?>
<!DOCTYPE svg PUBLIC "-//W3C//DTD SVG 1.1//EN"
 "http://www.w3.org/Graphics/SVG/1.1/DTD/svg11.dtd">
<!-- Generated by graphviz version 2.40.1 (20161225.0304)
 -->
<!-- Title: FMKWayGainCalc::__init_gain_general_net Pages: 1 -->
<!--zoomable 215 -->
<svg id="main" version="1.1" xmlns="http://www.w3.org/2000/svg" xmlns:xlink="http://www.w3.org/1999/xlink" xml:space="preserve" onload="init(evt)">
<style type="text/css"><![CDATA[
.edge:hover path { stroke: red; }
.edge:hover polygon { stroke: red; fill: red; }
]]></style>
<script type="text/javascript"><![CDATA[
var edges = document.getElementsByTagName('g');
if (edges && edges.length) {
  for (var i=0;i<edges.length;i++) {
    if (edges[i].id.substr(0,4)=='edge') {
      edges[i].setAttribute('class','edge');
    }
  }
}
]]></script>
        <defs>
                <circle id="rim" cx="0" cy="0" r="7"/>
                <circle id="rim2" cx="0" cy="0" r="3.5"/>
                <g id="zoomPlus">
                        <use xlink:href="#rim" fill="#404040">
                                <set attributeName="fill" to="#808080" begin="zoomplus.mouseover" end="zoomplus.mouseout"/>
                        </use>
                        <path d="M-4,0h8M0,-4v8" fill="none" stroke="white" stroke-width="1.5" pointer-events="none"/>
                </g>
                <g id="zoomMin">
                        <use xlink:href="#rim" fill="#404040">
                                <set attributeName="fill" to="#808080" begin="zoomminus.mouseover" end="zoomminus.mouseout"/>
                        </use>
                        <path d="M-4,0h8" fill="none" stroke="white" stroke-width="1.5" pointer-events="none"/>
                </g>
                <g id="dirArrow">
                        <path fill="none" stroke="white" stroke-width="1.5" d="M0,-3.0v7 M-2.5,-0.5L0,-3.0L2.5,-0.5"/>
                </g>
               <g id="resetDef">
                       <use xlink:href="#rim2" fill="#404040">
                               <set attributeName="fill" to="#808080" begin="reset.mouseover" end="reset.mouseout"/>
                       </use>
               </g>
        </defs>

<script type="text/javascript">
var viewWidth = 843;
var viewHeight = 215;
var sectionId = 'dynsection-8';
</script>
<script xlink:href="svgpan.js"/>
<svg id="graph" class="graph">
<g id="viewport">
<title>FMKWayGainCalc::__init_gain_general_net</title>
<polygon fill="#ffffff" stroke="transparent" points="-4,4 -4,-211.0579 839,-211.0579 839,4 -4,4"/>
<!-- Node48 -->
<g id="node1" class="node">
<title>Node48</title>
<polygon fill="#bfbfbf" stroke="#000000" points="0,-59.0579 0,-89.0579 128,-89.0579 128,-59.0579 0,-59.0579"/>
<text text-anchor="start" x="8" y="-77.0579" font-family="Helvetica,sans-Serif" font-size="10.00" fill="#000000">FMKWayGainCalc::__init</text>
<text text-anchor="middle" x="64" y="-66.0579" font-family="Helvetica,sans-Serif" font-size="10.00" fill="#000000">_gain_general_net</text>
</g>
<!-- Node49 -->
<g id="node2" class="node">
<title>Node49</title>
<g id="a_node2"><a xlink:href="classFMKWayGainCalc.html#ac4e6255c0ffc3141805628779fa45e41" target="_top" xlink:title="FMKWayGainCalc::__modify_gain">
<polygon fill="#ffffff" stroke="#000000" points="164,-84.5579 164,-103.5579 331,-103.5579 331,-84.5579 164,-84.5579"/>
<text text-anchor="middle" x="247.5" y="-91.5579" font-family="Helvetica,sans-Serif" font-size="10.00" fill="#000000">FMKWayGainCalc::__modify_gain</text>
</a>
</g>
</g>
<!-- Node48&#45;&gt;Node49 -->
<g id="edge1" class="edge">
<title>Node48&#45;&gt;Node49</title>
<path fill="none" stroke="#191970" d="M128.1794,-74.5814C152.0908,-76.6907 178.7564,-79.7651 200.8046,-83.0013"/>
<polygon fill="#191970" stroke="#191970" points="200.4887,-86.4936 210.9033,-84.5478 201.5484,-79.5743 200.4887,-86.4936"/>
</g>
<!-- Node54 -->
<g id="node7" class="node">
<title>Node54</title>
<g id="a_node7"><a xlink:href="structNetlist.html#ab287e126909a3ec4828aa8b918278dc7" target="_top" xlink:title="Netlist::get_net_weight">
<polygon fill="#ffffff" stroke="#000000" points="718,-84.5579 718,-103.5579 835,-103.5579 835,-84.5579 718,-84.5579"/>
<text text-anchor="middle" x="776.5" y="-91.5579" font-family="Helvetica,sans-Serif" font-size="10.00" fill="#000000">Netlist::get_net_weight</text>
</a>
</g>
</g>
<!-- Node48&#45;&gt;Node54 -->
<g id="edge17" class="edge">
<title>Node48&#45;&gt;Node54</title>
<path fill="none" stroke="#191970" d="M110.7067,-59.0291C215.6571,-27.719 476.9997,36.4426 682,-28.0579 712.5124,-37.6582 741.7635,-61.0008 759.4328,-77.1818"/>
<polygon fill="#191970" stroke="#191970" points="757.4596,-80.1327 767.1312,-84.4583 762.268,-75.0455 757.4596,-80.1327"/>
</g>
<!-- Node49&#45;&gt;Node48 -->
<g id="edge16" class="edge">
<title>Node49&#45;&gt;Node48</title>
<path fill="none" stroke="#191970" d="M163.6833,-91.6501C155.2048,-90.7742 146.6352,-89.8109 138.2671,-88.7923"/>
<polygon fill="#191970" stroke="#191970" points="138.5378,-85.2989 128.1794,-87.5244 137.6648,-92.2442 138.5378,-85.2989"/>
</g>
<!-- Node50 -->
<g id="node3" class="node">
<title>Node50</title>
<g id="a_node3"><a xlink:href="classrobin.html#a611dc76ad105db9eb9d388916f080ac6" target="_top" xlink:title="robin::exclude">
<polygon fill="#ffffff" stroke="#000000" points="404,-187.5579 404,-206.5579 481,-206.5579 481,-187.5579 404,-187.5579"/>
<text text-anchor="middle" x="442.5" y="-194.5579" font-family="Helvetica,sans-Serif" font-size="10.00" fill="#000000">robin::exclude</text>
</a>
</g>
</g>
<!-- Node49&#45;&gt;Node50 -->
<g id="edge2" class="edge">
<title>Node49&#45;&gt;Node50</title>
<path fill="none" stroke="#191970" d="M259.7196,-103.8097C280.6182,-120.0914 325.0412,-152.9984 367,-173.0579 376.0274,-177.3737 386.0212,-181.1748 395.7032,-184.4051"/>
<polygon fill="#191970" stroke="#191970" points="394.6432,-187.7407 405.2338,-187.4432 396.7692,-181.0713 394.6432,-187.7407"/>
</g>
<!-- Node51 -->
<g id="node4" class="node">
<title>Node51</title>
<g id="a_node4"><a xlink:href="classFMKWayGainCalc.html#ab7b8bf55722e1449e394ad08b1290582" target="_top" xlink:title="FMKWayGainCalc::__init_gain">
<polygon fill="#ffffff" stroke="#000000" points="367,-37.5579 367,-56.5579 518,-56.5579 518,-37.5579 367,-37.5579"/>
<text text-anchor="middle" x="442.5" y="-44.5579" font-family="Helvetica,sans-Serif" font-size="10.00" fill="#000000">FMKWayGainCalc::__init_gain</text>
</a>
</g>
</g>
<!-- Node49&#45;&gt;Node51 -->
<g id="edge3" class="edge">
<title>Node49&#45;&gt;Node51</title>
<path fill="none" stroke="#191970" d="M286.9612,-84.5468C317.5202,-77.1812 360.039,-66.9331 392.8993,-59.0129"/>
<polygon fill="#191970" stroke="#191970" points="393.8619,-62.3813 402.7634,-56.6355 392.2216,-55.5761 393.8619,-62.3813"/>
</g>
<!-- Node52 -->
<g id="node5" class="node">
<title>Node52</title>
<g id="a_node5"><a xlink:href="classFMKWayGainCalc.html#ac6d158d36c93cd11b407dedfe3f7ab9d" target="_top" xlink:title="FMKWayGainCalc::__init\l_gain_2pin_net">
<polygon fill="#ffffff" stroke="#000000" points="554,-128.0579 554,-158.0579 682,-158.0579 682,-128.0579 554,-128.0579"/>
<text text-anchor="start" x="562" y="-146.0579" font-family="Helvetica,sans-Serif" font-size="10.00" fill="#000000">FMKWayGainCalc::__init</text>
<text text-anchor="middle" x="618" y="-135.0579" font-family="Helvetica,sans-Serif" font-size="10.00" fill="#000000">_gain_2pin_net</text>
</a>
</g>
</g>
<!-- Node49&#45;&gt;Node52 -->
<g id="edge14" class="edge">
<title>Node49&#45;&gt;Node52</title>
<path fill="none" stroke="#191970" d="M331.2394,-102.2216C343.2135,-104.2924 355.4003,-106.3441 367,-108.0579 426.1968,-116.8037 493.6789,-123.6185 543.7528,-129.4401"/>
<polygon fill="#191970" stroke="#191970" points="543.5049,-132.935 553.8459,-130.6295 544.3242,-125.9832 543.5049,-132.935"/>
</g>
<!-- Node55 -->
<g id="node8" class="node">
<title>Node55</title>
<g id="a_node8"><a xlink:href="classFMKWayGainCalc.html#a3d58586faf2497c85377e7d42d7b8724" target="_top" xlink:title="FMKWayGainCalc::__init\l_gain_3pin_net">
<polygon fill="#ffffff" stroke="#000000" points="554,-79.0579 554,-109.0579 682,-109.0579 682,-79.0579 554,-79.0579"/>
<text text-anchor="start" x="562" y="-97.0579" font-family="Helvetica,sans-Serif" font-size="10.00" fill="#000000">FMKWayGainCalc::__init</text>
<text text-anchor="middle" x="618" y="-86.0579" font-family="Helvetica,sans-Serif" font-size="10.00" fill="#000000">_gain_3pin_net</text>
</a>
</g>
</g>
<!-- Node49&#45;&gt;Node55 -->
<g id="edge15" class="edge">
<title>Node49&#45;&gt;Node55</title>
<path fill="none" stroke="#191970" d="M331.1094,-88.3072C394.9961,-86.9055 482.2418,-86.9784 543.6965,-88.5261"/>
<polygon fill="#191970" stroke="#191970" points="543.6204,-92.0253 553.7118,-88.7983 543.8106,-85.0278 543.6204,-92.0253"/>
</g>
<!-- Node51&#45;&gt;Node48 -->
<g id="edge12" class="edge">
<title>Node51&#45;&gt;Node48</title>
<path fill="none" stroke="#191970" d="M366.889,-52.4516C300.5325,-57.1851 204.5751,-64.0301 138.5396,-68.7407"/>
<polygon fill="#191970" stroke="#191970" points="137.933,-65.275 128.2074,-69.4777 138.4311,-72.2572 137.933,-65.275"/>
</g>
<!-- Node51&#45;&gt;Node52 -->
<g id="edge4" class="edge">
<title>Node51&#45;&gt;Node52</title>
<path fill="none" stroke="#191970" d="M455.7277,-56.6869C476.1127,-71.2428 516.7562,-99.1529 554,-118.0579 557.9971,-120.0869 562.1998,-122.0588 566.4616,-123.9468"/>
<polygon fill="#191970" stroke="#191970" points="565.2569,-127.2379 575.8288,-127.9354 567.9993,-120.7975 565.2569,-127.2379"/>
</g>
<!-- Node51&#45;&gt;Node55 -->
<g id="edge8" class="edge">
<title>Node51&#45;&gt;Node55</title>
<path fill="none" stroke="#191970" d="M478.015,-56.5691C499.2363,-62.2523 526.8659,-69.6516 551.966,-76.3736"/>
<polygon fill="#191970" stroke="#191970" points="551.2419,-79.803 561.807,-79.0091 553.0528,-73.0412 551.2419,-79.803"/>
</g>
<!-- Node56 -->
<g id="node9" class="node">
<title>Node56</title>
<g id="a_node9"><a xlink:href="classxn_1_1Graph.html#a8190f6d88f8933f798828d8e063d6b12" target="_top" xlink:title="xn::Graph::degree">
<polygon fill="#ffffff" stroke="#000000" points="570.5,-37.5579 570.5,-56.5579 665.5,-56.5579 665.5,-37.5579 570.5,-37.5579"/>
<text text-anchor="middle" x="618" y="-44.5579" font-family="Helvetica,sans-Serif" font-size="10.00" fill="#000000">xn::Graph::degree</text>
</a>
</g>
</g>
<!-- Node51&#45;&gt;Node56 -->
<g id="edge13" class="edge">
<title>Node51&#45;&gt;Node56</title>
<path fill="none" stroke="#191970" d="M518.2012,-47.0579C532.3213,-47.0579 546.8656,-47.0579 560.3342,-47.0579"/>
<polygon fill="#191970" stroke="#191970" points="560.3992,-50.558 570.3991,-47.0579 560.3991,-43.558 560.3992,-50.558"/>
</g>
<!-- Node52&#45;&gt;Node49 -->
<g id="edge5" class="edge">
<title>Node52&#45;&gt;Node49</title>
<path fill="none" stroke="#191970" d="M553.8459,-145.2905C503.0164,-142.5483 430.2751,-135.4063 367,-126.0579 334.5929,-121.27 297.6039,-113.8444 273.4719,-106.7331"/>
<polygon fill="#191970" stroke="#191970" points="274.2505,-103.3078 263.6598,-103.6062 272.125,-109.9773 274.2505,-103.3078"/>
</g>
<!-- Node53 -->
<g id="node6" class="node">
<title>Node53</title>
<g id="a_node6"><a xlink:href="classxn_1_1Graph.html#a0eb06caefea5f60a5156e15662123d2f" target="_top" xlink:title="Iterate over the nodes. ">
<polygon fill="#ffffff" stroke="#000000" points="732,-127.5579 732,-146.5579 821,-146.5579 821,-127.5579 732,-127.5579"/>
<text text-anchor="middle" x="776.5" y="-134.5579" font-family="Helvetica,sans-Serif" font-size="10.00" fill="#000000">xn::Graph::begin</text>
</a>
</g>
</g>
<!-- Node52&#45;&gt;Node53 -->
<g id="edge6" class="edge">
<title>Node52&#45;&gt;Node53</title>
<path fill="none" stroke="#191970" d="M682.0111,-140.6348C695.1632,-140.1369 708.8971,-139.617 721.6893,-139.1328"/>
<polygon fill="#191970" stroke="#191970" points="721.857,-142.629 731.7175,-138.7531 721.5922,-135.634 721.857,-142.629"/>
</g>
<!-- Node52&#45;&gt;Node54 -->
<g id="edge7" class="edge">
<title>Node52&#45;&gt;Node54</title>
<path fill="none" stroke="#191970" d="M666.8485,-127.9565C688.9921,-121.1108 714.8681,-113.1113 735.9209,-106.6029"/>
<polygon fill="#191970" stroke="#191970" points="737.0064,-109.9308 745.5265,-103.6333 734.9389,-103.2431 737.0064,-109.9308"/>
</g>
<!-- Node55&#45;&gt;Node49 -->
<g id="edge9" class="edge">
<title>Node55&#45;&gt;Node49</title>
<path fill="none" stroke="#191970" d="M553.7118,-99.3175C495.04,-101.0365 407.6053,-101.2685 341.1682,-100.0136"/>
<polygon fill="#191970" stroke="#191970" points="341.1787,-96.5132 331.1094,-99.8086 341.036,-103.5118 341.1787,-96.5132"/>
</g>
<!-- Node55&#45;&gt;Node53 -->
<g id="edge10" class="edge">
<title>Node55&#45;&gt;Node53</title>
<path fill="none" stroke="#191970" d="M673.4356,-109.0972C692.4169,-114.2467 713.4074,-119.9413 731.4649,-124.8402"/>
<polygon fill="#191970" stroke="#191970" points="730.5962,-128.231 741.1637,-127.4714 732.429,-121.4752 730.5962,-128.231"/>
</g>
<!-- Node55&#45;&gt;Node54 -->
<g id="edge11" class="edge">
<title>Node55&#45;&gt;Node54</title>
<path fill="none" stroke="#191970" d="M682.0111,-94.0579C690.4404,-94.0579 699.1087,-94.0579 707.6149,-94.0579"/>
<polygon fill="#191970" stroke="#191970" points="707.8833,-97.558 717.8833,-94.0579 707.8833,-90.558 707.8833,-97.558"/>
</g>
</g>
</svg>
        <g id="navigator" transform="translate(0 0)" fill="#404254">
                <rect fill="#f2f5e9" fill-opacity="0.5" stroke="#606060" stroke-width=".5" x="0" y="0" width="60" height="60"/>
                <use id="zoomplus" xlink:href="#zoomPlus" x="17" y="9" onmousedown="handleZoom(evt,'in')"/>
                <use id="zoomminus" xlink:href="#zoomMin" x="42" y="9" onmousedown="handleZoom(evt,'out')"/>
                <use id="reset" xlink:href="#resetDef" x="30" y="36" onmousedown="handleReset()"/>
                <g id="arrowUp" xlink:href="#dirArrow" transform="translate(30 24)" onmousedown="handlePan(0,-1)">
                  <use xlink:href="#rim" fill="#404040">
                        <set attributeName="fill" to="#808080" begin="arrowUp.mouseover" end="arrowUp.mouseout"/>
                  </use>
                  <path fill="none" stroke="white" stroke-width="1.5" d="M0,-3.0v7 M-2.5,-0.5L0,-3.0L2.5,-0.5"/>
                </g>
                <g id="arrowRight" xlink:href="#dirArrow" transform="rotate(90) translate(36 -43)" onmousedown="handlePan(1,0)">
                  <use xlink:href="#rim" fill="#404040">
                        <set attributeName="fill" to="#808080" begin="arrowRight.mouseover" end="arrowRight.mouseout"/>
                  </use>
                  <path fill="none" stroke="white" stroke-width="1.5" d="M0,-3.0v7 M-2.5,-0.5L0,-3.0L2.5,-0.5"/>
                </g>
                <g id="arrowDown" xlink:href="#dirArrow" transform="rotate(180) translate(-30 -48)" onmousedown="handlePan(0,1)">
                  <use xlink:href="#rim" fill="#404040">
                        <set attributeName="fill" to="#808080" begin="arrowDown.mouseover" end="arrowDown.mouseout"/>
                  </use>
                  <path fill="none" stroke="white" stroke-width="1.5" d="M0,-3.0v7 M-2.5,-0.5L0,-3.0L2.5,-0.5"/>
                </g>
                <g id="arrowLeft" xlink:href="#dirArrow" transform="rotate(270) translate(-36 17)" onmousedown="handlePan(-1,0)">
                  <use xlink:href="#rim" fill="#404040">
                        <set attributeName="fill" to="#808080" begin="arrowLeft.mouseover" end="arrowLeft.mouseout"/>
                  </use>
                  <path fill="none" stroke="white" stroke-width="1.5" d="M0,-3.0v7 M-2.5,-0.5L0,-3.0L2.5,-0.5"/>
                </g>
        </g>
        <svg viewBox="0 0 15 15" width="100%" height="30px" preserveAspectRatio="xMaxYMin meet">
         <g id="arrow_out" transform="scale(0.3 0.3)">
          <a xlink:href="classFMKWayGainCalc_ad10182c880296aa4182775a7099e5874_cgraph_org.svg" target="_base">
           <rect id="button" ry="5" rx="5" y="6" x="6" height="38" width="38"
                fill="#f2f5e9" fill-opacity="0.5" stroke="#606060" stroke-width="1.0"/>
           <path id="arrow"
             d="M 11.500037,31.436501 C 11.940474,20.09759 22.043105,11.32322 32.158766,21.979434 L 37.068811,17.246167 C 37.068811,17.246167 37.088388,32 37.088388,32 L 22.160133,31.978069 C 22.160133,31.978069 26.997745,27.140456 26.997745,27.140456 C 18.528582,18.264221 13.291696,25.230495 11.500037,31.436501 z"
             style="fill:#404040;"/>
          </a>
         </g>
        </svg>
</svg>
