<?xml version="1.0" encoding="UTF-8" standalone="no"?>
<!DOCTYPE svg PUBLIC "-//W3C//DTD SVG 1.1//EN"
 "http://www.w3.org/Graphics/SVG/1.1/DTD/svg11.dtd">
<!-- Generated by graphviz version 2.40.1 (20161225.0304)
 -->
<!-- Title: FMKWayGainCalc Pages: 1 -->
<svg width="945pt" height="1385pt"
 viewBox="0.00 0.00 945.00 1385.00" xmlns="http://www.w3.org/2000/svg" xmlns:xlink="http://www.w3.org/1999/xlink">
<g id="graph0" class="graph" transform="scale(1 1) rotate(0) translate(4 1381)">
<title>FMKWayGainCalc</title>
<polygon fill="#ffffff" stroke="transparent" points="-4,4 -4,-1381 941,-1381 941,4 -4,4"/>
<!-- Node1 -->
<g id="node1" class="node">
<title>Node1</title>
<polygon fill="#bfbfbf" stroke="#000000" points="612,-.5 612,-211.5 758,-211.5 758,-.5 612,-.5"/>
<text text-anchor="middle" x="685" y="-199.5" font-family="Helvetica,sans-Serif" font-size="10.00" fill="#000000">FMKWayGainCalc</text>
<polyline fill="none" stroke="#000000" points="612,-192.5 758,-192.5 "/>
<text text-anchor="start" x="620" y="-180.5" font-family="Helvetica,sans-Serif" font-size="10.00" fill="#000000">+ totalcost</text>
<text text-anchor="start" x="620" y="-169.5" font-family="Helvetica,sans-Serif" font-size="10.00" fill="#000000">&#45; FMKWayGainMgr</text>
<text text-anchor="start" x="620" y="-158.5" font-family="Helvetica,sans-Serif" font-size="10.00" fill="#000000">&#45; K</text>
<text text-anchor="start" x="620" y="-147.5" font-family="Helvetica,sans-Serif" font-size="10.00" fill="#000000">&#45; num_modules</text>
<polyline fill="none" stroke="#000000" points="612,-140.5 758,-140.5 "/>
<text text-anchor="start" x="620" y="-128.5" font-family="Helvetica,sans-Serif" font-size="10.00" fill="#000000">+ FMKWayGainCalc()</text>
<text text-anchor="start" x="620" y="-117.5" font-family="Helvetica,sans-Serif" font-size="10.00" fill="#000000">+ start_ptr()</text>
<text text-anchor="start" x="620" y="-106.5" font-family="Helvetica,sans-Serif" font-size="10.00" fill="#000000">+ init()</text>
<text text-anchor="start" x="620" y="-95.5" font-family="Helvetica,sans-Serif" font-size="10.00" fill="#000000">+ update_move_init()</text>
<text text-anchor="start" x="620" y="-84.5" font-family="Helvetica,sans-Serif" font-size="10.00" fill="#000000">+ update_move_2pin_net()</text>
<text text-anchor="start" x="620" y="-73.5" font-family="Helvetica,sans-Serif" font-size="10.00" fill="#000000">+ update_move_3pin_net()</text>
<text text-anchor="start" x="620" y="-62.5" font-family="Helvetica,sans-Serif" font-size="10.00" fill="#000000">+ update_move_general_net()</text>
<text text-anchor="start" x="620" y="-51.5" font-family="Helvetica,sans-Serif" font-size="10.00" fill="#000000">&#45; __modify_gain()</text>
<text text-anchor="start" x="620" y="-40.5" font-family="Helvetica,sans-Serif" font-size="10.00" fill="#000000">&#45; __init_gain()</text>
<text text-anchor="start" x="620" y="-29.5" font-family="Helvetica,sans-Serif" font-size="10.00" fill="#000000">&#45; __init_gain_2pin_net()</text>
<text text-anchor="start" x="620" y="-18.5" font-family="Helvetica,sans-Serif" font-size="10.00" fill="#000000">&#45; __init_gain_3pin_net()</text>
<text text-anchor="start" x="620" y="-7.5" font-family="Helvetica,sans-Serif" font-size="10.00" fill="#000000">&#45; __init_gain_general_net()</text>
</g>
<!-- Node2 -->
<g id="node2" class="node">
<title>Node2</title>
<polygon fill="#ffffff" stroke="#bfbfbf" points="367.5,-331 367.5,-399 486.5,-399 486.5,-331 367.5,-331"/>
<text text-anchor="start" x="375.5" y="-387" font-family="Helvetica,sans-Serif" font-size="10.00" fill="#000000">std::vector&lt; std::vector</text>
<text text-anchor="middle" x="427" y="-376" font-family="Helvetica,sans-Serif" font-size="10.00" fill="#000000">&lt; dllink&lt; index_t &gt; &gt; &gt;</text>
<polyline fill="none" stroke="#bfbfbf" points="367.5,-369 486.5,-369 "/>
<text text-anchor="start" x="375.5" y="-357" font-family="Helvetica,sans-Serif" font-size="10.00" fill="#000000">+ elements</text>
<polyline fill="none" stroke="#bfbfbf" points="367.5,-350 486.5,-350 "/>
<text text-anchor="middle" x="427" y="-338" font-family="Helvetica,sans-Serif" font-size="10.00" fill="#000000"> </text>
</g>
<!-- Node2&#45;&gt;Node1 -->
<g id="edge1" class="edge">
<title>Node2&#45;&gt;Node1</title>
<path fill="none" stroke="#404040" d="M445.2753,-330.5771C457.7133,-308.821 475.4269,-280.8003 495,-259 526.5522,-223.8575 566.6689,-190.2993 601.9015,-163.6136"/>
<polygon fill="none" stroke="#404040" points="602.0947,-163.4689 604.498,-156.67 611.6982,-156.2735 609.2949,-163.0724 602.0947,-163.4689"/>
<text text-anchor="middle" x="549" y="-233" font-family="Helvetica,sans-Serif" font-size="10.00" fill="#000000"> &#45;vertex_list</text>
</g>
<!-- Node3 -->
<g id="node3" class="node">
<title>Node3</title>
<g id="a_node3"><a xlink:href="structNetlist.html" target="_top" xlink:title="Netlist. ">
<polygon fill="#ffffff" stroke="#000000" points="504.5,-259.5 504.5,-470.5 623.5,-470.5 623.5,-259.5 504.5,-259.5"/>
<text text-anchor="start" x="512.5" y="-458.5" font-family="Helvetica,sans-Serif" font-size="10.00" fill="#000000">Netlist&lt; nodeview_t,</text>
<text text-anchor="middle" x="564" y="-447.5" font-family="Helvetica,sans-Serif" font-size="10.00" fill="#000000"> nodemap_t &gt;</text>
<polyline fill="none" stroke="#000000" points="504.5,-440.5 623.5,-440.5 "/>
<text text-anchor="start" x="512.5" y="-428.5" font-family="Helvetica,sans-Serif" font-size="10.00" fill="#000000">+ num_modules</text>
<text text-anchor="start" x="512.5" y="-417.5" font-family="Helvetica,sans-Serif" font-size="10.00" fill="#000000">+ num_nets</text>
<text text-anchor="start" x="512.5" y="-406.5" font-family="Helvetica,sans-Serif" font-size="10.00" fill="#000000">+ num_pads</text>
<text text-anchor="start" x="512.5" y="-395.5" font-family="Helvetica,sans-Serif" font-size="10.00" fill="#000000">+ max_degree</text>
<text text-anchor="start" x="512.5" y="-384.5" font-family="Helvetica,sans-Serif" font-size="10.00" fill="#000000">+ max_net_degree</text>
<text text-anchor="start" x="512.5" y="-373.5" font-family="Helvetica,sans-Serif" font-size="10.00" fill="#000000">+ has_fixed_modules</text>
<text text-anchor="start" x="512.5" y="-362.5" font-family="Helvetica,sans-Serif" font-size="10.00" fill="#000000">+ cost_model</text>
<text text-anchor="start" x="512.5" y="-351.5" font-family="Helvetica,sans-Serif" font-size="10.00" fill="#000000">+ parent</text>
<polyline fill="none" stroke="#000000" points="504.5,-344.5 623.5,-344.5 "/>
<text text-anchor="start" x="512.5" y="-332.5" font-family="Helvetica,sans-Serif" font-size="10.00" fill="#000000">+ Netlist()</text>
<text text-anchor="start" x="512.5" y="-321.5" font-family="Helvetica,sans-Serif" font-size="10.00" fill="#000000">+ Netlist()</text>
<text text-anchor="start" x="512.5" y="-310.5" font-family="Helvetica,sans-Serif" font-size="10.00" fill="#000000">+ number_of_modules()</text>
<text text-anchor="start" x="512.5" y="-299.5" font-family="Helvetica,sans-Serif" font-size="10.00" fill="#000000">+ number_of_nets()</text>
<text text-anchor="start" x="512.5" y="-288.5" font-family="Helvetica,sans-Serif" font-size="10.00" fill="#000000">+ number_of_nodes()</text>
<text text-anchor="start" x="512.5" y="-277.5" font-family="Helvetica,sans-Serif" font-size="10.00" fill="#000000">+ get_max_degree()</text>
<text text-anchor="start" x="512.5" y="-266.5" font-family="Helvetica,sans-Serif" font-size="10.00" fill="#000000">and 6 more...</text>
</a>
</g>
</g>
<!-- Node3&#45;&gt;Node1 -->
<g id="edge2" class="edge">
<title>Node3&#45;&gt;Node1</title>
<path fill="none" stroke="#404040" d="M613.3899,-259.2812C618.9934,-247.2869 624.7286,-235.0107 630.3942,-222.8835"/>
<polygon fill="none" stroke="#404040" points="630.4927,-222.6726 629.4083,-215.5435 635.572,-211.8005 636.6563,-218.9296 630.4927,-222.6726"/>
<text text-anchor="middle" x="632" y="-233" font-family="Helvetica,sans-Serif" font-size="10.00" fill="#000000"> &#45;H</text>
</g>
<!-- Node4 -->
<g id="node4" class="node">
<title>Node4</title>
<g id="a_node4"><a xlink:href="classxn_1_1Graph.html" target="_top" xlink:title="{xn::Graph\&lt; nodeview\l_t, nodemap_t \&gt;\n||+ Graph()\l+ Graph()\l+ adj()\l+ get_name()\l+ set_name()\l+ begin()\land 13 more...\l}">
<polygon fill="#ffffff" stroke="#000000" points="250,-529.5 250,-663.5 360,-663.5 360,-529.5 250,-529.5"/>
<text text-anchor="start" x="258" y="-651.5" font-family="Helvetica,sans-Serif" font-size="10.00" fill="#000000">xn::Graph&lt; nodeview</text>
<text text-anchor="middle" x="305" y="-640.5" font-family="Helvetica,sans-Serif" font-size="10.00" fill="#000000">_t, nodemap_t &gt;</text>
<polyline fill="none" stroke="#000000" points="250,-633.5 360,-633.5 "/>
<text text-anchor="middle" x="305" y="-621.5" font-family="Helvetica,sans-Serif" font-size="10.00" fill="#000000"> </text>
<polyline fill="none" stroke="#000000" points="250,-614.5 360,-614.5 "/>
<text text-anchor="start" x="258" y="-602.5" font-family="Helvetica,sans-Serif" font-size="10.00" fill="#000000">+ Graph()</text>
<text text-anchor="start" x="258" y="-591.5" font-family="Helvetica,sans-Serif" font-size="10.00" fill="#000000">+ Graph()</text>
<text text-anchor="start" x="258" y="-580.5" font-family="Helvetica,sans-Serif" font-size="10.00" fill="#000000">+ adj()</text>
<text text-anchor="start" x="258" y="-569.5" font-family="Helvetica,sans-Serif" font-size="10.00" fill="#000000">+ get_name()</text>
<text text-anchor="start" x="258" y="-558.5" font-family="Helvetica,sans-Serif" font-size="10.00" fill="#000000">+ set_name()</text>
<text text-anchor="start" x="258" y="-547.5" font-family="Helvetica,sans-Serif" font-size="10.00" fill="#000000">+ begin()</text>
<text text-anchor="start" x="258" y="-536.5" font-family="Helvetica,sans-Serif" font-size="10.00" fill="#000000">and 13 more...</text>
</a>
</g>
</g>
<!-- Node4&#45;&gt;Node3 -->
<g id="edge3" class="edge">
<title>Node4&#45;&gt;Node3</title>
<path fill="none" stroke="#404040" d="M360.144,-546.7708C384.305,-526.8324 413.7767,-504.8708 443,-489 461.8052,-478.7871 472.7618,-484.1976 494.1777,-470.3869"/>
<polygon fill="none" stroke="#404040" points="494.3531,-470.2591 496.8449,-463.4922 504.0497,-463.1897 501.5578,-469.9566 494.3531,-470.2591"/>
<text text-anchor="middle" x="451.5" y="-497.5" font-family="Helvetica,sans-Serif" font-size="10.00" fill="#000000"> +G</text>
</g>
<!-- Node5 -->
<g id="node5" class="node">
<title>Node5</title>
<g id="a_node5"><a xlink:href="structxn_1_1object.html" target="_top" xlink:title="Base class for undirected graphs. ">
<polygon fill="#ffffff" stroke="#000000" points="183.5,-824.5 183.5,-881.5 242.5,-881.5 242.5,-824.5 183.5,-824.5"/>
<text text-anchor="middle" x="213" y="-869.5" font-family="Helvetica,sans-Serif" font-size="10.00" fill="#000000">xn::object</text>
<polyline fill="none" stroke="#000000" points="183.5,-862.5 242.5,-862.5 "/>
<text text-anchor="middle" x="213" y="-850.5" font-family="Helvetica,sans-Serif" font-size="10.00" fill="#000000"> </text>
<polyline fill="none" stroke="#000000" points="183.5,-843.5 242.5,-843.5 "/>
<text text-anchor="middle" x="213" y="-831.5" font-family="Helvetica,sans-Serif" font-size="10.00" fill="#000000"> </text>
</a>
</g>
</g>
<!-- Node5&#45;&gt;Node4 -->
<g id="edge4" class="edge">
<title>Node5&#45;&gt;Node4</title>
<path fill="none" stroke="#191970" d="M226.2273,-814.5022C230.6797,-801.3619 235.6255,-786.5629 240,-773 252.9892,-732.7272 253.3527,-721.6998 268,-682 270.1834,-676.0821 272.5603,-669.9829 275.021,-663.8951"/>
<polygon fill="none" stroke="#191970" points="222.8424,-813.585 222.9364,-824.1794 229.4697,-815.8388 222.8424,-813.585"/>
</g>
<!-- Node6 -->
<g id="node6" class="node">
<title>Node6</title>
<g id="a_node6"><a xlink:href="classpy_1_1dict.html" target="_top" xlink:title="{py::dict\&lt; const char\l *, boost::any \&gt;\n||+ dict()\l+ dict()\l+ operator=()\l&#45; dict()\l}">
<polygon fill="#ffffff" stroke="#000000" points="205,-1053.5 205,-1154.5 309,-1154.5 309,-1053.5 205,-1053.5"/>
<text text-anchor="start" x="213" y="-1142.5" font-family="Helvetica,sans-Serif" font-size="10.00" fill="#000000">py::dict&lt; const char</text>
<text text-anchor="middle" x="257" y="-1131.5" font-family="Helvetica,sans-Serif" font-size="10.00" fill="#000000"> *, boost::any &gt;</text>
<polyline fill="none" stroke="#000000" points="205,-1124.5 309,-1124.5 "/>
<text text-anchor="middle" x="257" y="-1112.5" font-family="Helvetica,sans-Serif" font-size="10.00" fill="#000000"> </text>
<polyline fill="none" stroke="#000000" points="205,-1105.5 309,-1105.5 "/>
<text text-anchor="start" x="213" y="-1093.5" font-family="Helvetica,sans-Serif" font-size="10.00" fill="#000000">+ dict()</text>
<text text-anchor="start" x="213" y="-1082.5" font-family="Helvetica,sans-Serif" font-size="10.00" fill="#000000">+ dict()</text>
<text text-anchor="start" x="213" y="-1071.5" font-family="Helvetica,sans-Serif" font-size="10.00" fill="#000000">+ operator=()</text>
<text text-anchor="start" x="213" y="-1060.5" font-family="Helvetica,sans-Serif" font-size="10.00" fill="#000000">&#45; dict()</text>
</a>
</g>
</g>
<!-- Node6&#45;&gt;Node4 -->
<g id="edge11" class="edge">
<title>Node6&#45;&gt;Node4</title>
<path fill="none" stroke="#404040" d="M261.7779,-1053.4836C270.1491,-964.9755 287.5245,-781.2667 297.5077,-675.7158"/>
<polygon fill="none" stroke="#404040" points="297.5277,-675.5032 294.1105,-669.1532 298.6577,-663.5566 302.0749,-669.9066 297.5277,-675.5032"/>
<text text-anchor="middle" x="304" y="-850.5" font-family="Helvetica,sans-Serif" font-size="10.00" fill="#000000"> +graph</text>
</g>
<!-- Node6&#45;&gt;Node5 -->
<g id="edge5" class="edge">
<title>Node6&#45;&gt;Node5</title>
<path fill="none" stroke="#191970" d="M246.3493,-1043.2424C237.3709,-992.0251 224.9197,-920.9966 218.0527,-881.8235"/>
<polygon fill="none" stroke="#191970" points="242.9218,-1043.961 248.0959,-1053.2064 249.8166,-1042.7522 242.9218,-1043.961"/>
</g>
<!-- Node7 -->
<g id="node7" class="node">
<title>Node7</title>
<g id="a_node7"><a xlink:title="STL class. ">
<polygon fill="#ffffff" stroke="#bfbfbf" points="210,-1192.5 210,-1271.5 318,-1271.5 318,-1192.5 210,-1192.5"/>
<text text-anchor="start" x="218" y="-1259.5" font-family="Helvetica,sans-Serif" font-size="10.00" fill="#000000">std::unordered_map</text>
<text text-anchor="start" x="218" y="-1248.5" font-family="Helvetica,sans-Serif" font-size="10.00" fill="#000000">&lt; const char *, boost</text>
<text text-anchor="middle" x="264" y="-1237.5" font-family="Helvetica,sans-Serif" font-size="10.00" fill="#000000">::any &gt;</text>
<polyline fill="none" stroke="#bfbfbf" points="210,-1230.5 318,-1230.5 "/>
<text text-anchor="middle" x="264" y="-1218.5" font-family="Helvetica,sans-Serif" font-size="10.00" fill="#000000"> </text>
<polyline fill="none" stroke="#bfbfbf" points="210,-1211.5 318,-1211.5 "/>
<text text-anchor="middle" x="264" y="-1199.5" font-family="Helvetica,sans-Serif" font-size="10.00" fill="#000000"> </text>
</a>
</g>
</g>
<!-- Node7&#45;&gt;Node6 -->
<g id="edge6" class="edge">
<title>Node7&#45;&gt;Node6</title>
<path fill="none" stroke="#191970" d="M261.2764,-1182.1972C260.7816,-1173.1496 260.265,-1163.7033 259.7689,-1154.6321"/>
<polygon fill="none" stroke="#191970" points="257.7826,-1182.4077 261.8235,-1192.2016 264.7722,-1182.0254 257.7826,-1182.4077"/>
</g>
<!-- Node8 -->
<g id="node8" class="node">
<title>Node8</title>
<polygon fill="#ffffff" stroke="#bfbfbf" points="452.5,-1319.5 452.5,-1376.5 481.5,-1376.5 481.5,-1319.5 452.5,-1319.5"/>
<text text-anchor="middle" x="467" y="-1364.5" font-family="Helvetica,sans-Serif" font-size="10.00" fill="#000000">K</text>
<polyline fill="none" stroke="#bfbfbf" points="452.5,-1357.5 481.5,-1357.5 "/>
<text text-anchor="middle" x="467" y="-1345.5" font-family="Helvetica,sans-Serif" font-size="10.00" fill="#000000"> </text>
<polyline fill="none" stroke="#bfbfbf" points="452.5,-1338.5 481.5,-1338.5 "/>
<text text-anchor="middle" x="467" y="-1326.5" font-family="Helvetica,sans-Serif" font-size="10.00" fill="#000000"> </text>
</g>
<!-- Node8&#45;&gt;Node7 -->
<g id="edge7" class="edge">
<title>Node8&#45;&gt;Node7</title>
<path fill="none" stroke="#404040" d="M452.3598,-1344.3688C428.1905,-1337.9753 378.9442,-1323.2434 342,-1301 331.7773,-1294.8451 321.6412,-1287.2775 312.2265,-1279.4349"/>
<polygon fill="none" stroke="#404040" points="312.163,-1279.3801 305.0069,-1278.4904 303.0759,-1271.5426 310.2319,-1272.4323 312.163,-1279.3801"/>
<text text-anchor="middle" x="357.5" y="-1293" font-family="Helvetica,sans-Serif" font-size="10.00" fill="#000000"> +keys</text>
</g>
<!-- Node14 -->
<g id="node14" class="node">
<title>Node14</title>
<g id="a_node14"><a xlink:title="STL class. ">
<polygon fill="#ffffff" stroke="#bfbfbf" points="342.5,-1192.5 342.5,-1271.5 455.5,-1271.5 455.5,-1192.5 342.5,-1192.5"/>
<text text-anchor="start" x="350.5" y="-1259.5" font-family="Helvetica,sans-Serif" font-size="10.00" fill="#000000">std::unordered_set</text>
<text text-anchor="start" x="350.5" y="-1248.5" font-family="Helvetica,sans-Serif" font-size="10.00" fill="#000000">&lt; typename nodeview</text>
<text text-anchor="middle" x="399" y="-1237.5" font-family="Helvetica,sans-Serif" font-size="10.00" fill="#000000">_t::value_type &gt;</text>
<polyline fill="none" stroke="#bfbfbf" points="342.5,-1230.5 455.5,-1230.5 "/>
<text text-anchor="middle" x="399" y="-1218.5" font-family="Helvetica,sans-Serif" font-size="10.00" fill="#000000"> </text>
<polyline fill="none" stroke="#bfbfbf" points="342.5,-1211.5 455.5,-1211.5 "/>
<text text-anchor="middle" x="399" y="-1199.5" font-family="Helvetica,sans-Serif" font-size="10.00" fill="#000000"> </text>
</a>
</g>
</g>
<!-- Node8&#45;&gt;Node14 -->
<g id="edge15" class="edge">
<title>Node8&#45;&gt;Node14</title>
<path fill="none" stroke="#404040" d="M458.1601,-1319.4787C454.658,-1309.8277 450.2123,-1299.1772 445,-1290 443.4182,-1287.2149 441.7084,-1284.4224 439.9105,-1281.6504"/>
<polygon fill="none" stroke="#404040" points="439.8975,-1281.6315 433.1987,-1278.962 433.0864,-1271.7517 439.7852,-1274.4212 439.8975,-1281.6315"/>
<text text-anchor="middle" x="466.5" y="-1293" font-family="Helvetica,sans-Serif" font-size="10.00" fill="#000000"> +keys</text>
</g>
<!-- Node16 -->
<g id="node16" class="node">
<title>Node16</title>
<g id="a_node16"><a xlink:title="STL class. ">
<polygon fill="#ffffff" stroke="#bfbfbf" points="605,-1198 605,-1266 703,-1266 703,-1198 605,-1198"/>
<text text-anchor="start" x="613" y="-1254" font-family="Helvetica,sans-Serif" font-size="10.00" fill="#000000">std::unordered_set</text>
<text text-anchor="middle" x="654" y="-1243" font-family="Helvetica,sans-Serif" font-size="10.00" fill="#000000">&lt; node_t &gt;</text>
<polyline fill="none" stroke="#bfbfbf" points="605,-1236 703,-1236 "/>
<text text-anchor="middle" x="654" y="-1224" font-family="Helvetica,sans-Serif" font-size="10.00" fill="#000000"> </text>
<polyline fill="none" stroke="#bfbfbf" points="605,-1217 703,-1217 "/>
<text text-anchor="middle" x="654" y="-1205" font-family="Helvetica,sans-Serif" font-size="10.00" fill="#000000"> </text>
</a>
</g>
</g>
<!-- Node8&#45;&gt;Node16 -->
<g id="edge19" class="edge">
<title>Node8&#45;&gt;Node16</title>
<path fill="none" stroke="#404040" d="M481.6736,-1338.8977C505.701,-1323.9929 554.73,-1293.5793 594.3686,-1268.9906"/>
<polygon fill="none" stroke="#404040" points="594.5483,-1268.8792 597.5384,-1262.3172 604.7457,-1262.5535 601.7556,-1269.1154 594.5483,-1268.8792"/>
<text text-anchor="middle" x="576.5" y="-1293" font-family="Helvetica,sans-Serif" font-size="10.00" fill="#000000"> +keys</text>
</g>
<!-- Node18 -->
<g id="node18" class="node">
<title>Node18</title>
<g id="a_node18"><a xlink:title="STL class. ">
<polygon fill="#ffffff" stroke="#bfbfbf" points="88.5,-1198 88.5,-1266 191.5,-1266 191.5,-1198 88.5,-1198"/>
<text text-anchor="start" x="96.5" y="-1254" font-family="Helvetica,sans-Serif" font-size="10.00" fill="#000000">std::unordered_map</text>
<text text-anchor="middle" x="140" y="-1243" font-family="Helvetica,sans-Serif" font-size="10.00" fill="#000000">&lt; node_t, index_t &gt;</text>
<polyline fill="none" stroke="#bfbfbf" points="88.5,-1236 191.5,-1236 "/>
<text text-anchor="middle" x="140" y="-1224" font-family="Helvetica,sans-Serif" font-size="10.00" fill="#000000"> </text>
<polyline fill="none" stroke="#bfbfbf" points="88.5,-1217 191.5,-1217 "/>
<text text-anchor="middle" x="140" y="-1205" font-family="Helvetica,sans-Serif" font-size="10.00" fill="#000000"> </text>
</a>
</g>
</g>
<!-- Node8&#45;&gt;Node18 -->
<g id="edge22" class="edge">
<title>Node8&#45;&gt;Node18</title>
<path fill="none" stroke="#404040" d="M452.4028,-1344.6353C422.2931,-1337.5687 351.2347,-1320.2387 293,-1301 280.3045,-1296.8059 277.6736,-1294.2598 265,-1290 236.9917,-1280.586 227.8915,-1284.2447 201,-1272 200.7551,-1271.8885 200.51,-1271.7761 200.2649,-1271.6627"/>
<polygon fill="none" stroke="#404040" points="199.9137,-1271.4843 192.7524,-1272.3303 189.2171,-1266.0452 196.3785,-1265.1992 199.9137,-1271.4843"/>
<text text-anchor="middle" x="308.5" y="-1293" font-family="Helvetica,sans-Serif" font-size="10.00" fill="#000000"> +keys</text>
</g>
<!-- Node20 -->
<g id="node20" class="node">
<title>Node20</title>
<g id="a_node20"><a xlink:title="STL class. ">
<polygon fill="#ffffff" stroke="#bfbfbf" points="473.5,-1198 473.5,-1266 576.5,-1266 576.5,-1198 473.5,-1198"/>
<text text-anchor="start" x="481.5" y="-1254" font-family="Helvetica,sans-Serif" font-size="10.00" fill="#000000">std::unordered_map</text>
<text text-anchor="middle" x="525" y="-1243" font-family="Helvetica,sans-Serif" font-size="10.00" fill="#000000">&lt; index_t, node_t &gt;</text>
<polyline fill="none" stroke="#bfbfbf" points="473.5,-1236 576.5,-1236 "/>
<text text-anchor="middle" x="525" y="-1224" font-family="Helvetica,sans-Serif" font-size="10.00" fill="#000000"> </text>
<polyline fill="none" stroke="#bfbfbf" points="473.5,-1217 576.5,-1217 "/>
<text text-anchor="middle" x="525" y="-1205" font-family="Helvetica,sans-Serif" font-size="10.00" fill="#000000"> </text>
</a>
</g>
</g>
<!-- Node8&#45;&gt;Node20 -->
<g id="edge26" class="edge">
<title>Node8&#45;&gt;Node20</title>
<path fill="none" stroke="#404040" d="M481.5388,-1330.4997C488.113,-1321.9808 495.6002,-1311.3594 501,-1301 504.8206,-1293.6702 508.2514,-1285.6005 511.2432,-1277.6427"/>
<polygon fill="none" stroke="#404040" points="511.3025,-1277.4751 509.5339,-1270.4842 515.3067,-1266.1629 517.0754,-1273.1537 511.3025,-1277.4751"/>
<text text-anchor="middle" x="522.5" y="-1293" font-family="Helvetica,sans-Serif" font-size="10.00" fill="#000000"> +keys</text>
</g>
<!-- Node9 -->
<g id="node9" class="node">
<title>Node9</title>
<polygon fill="#ffffff" stroke="#bfbfbf" points="200.5,-1319.5 200.5,-1376.5 229.5,-1376.5 229.5,-1319.5 200.5,-1319.5"/>
<text text-anchor="middle" x="215" y="-1364.5" font-family="Helvetica,sans-Serif" font-size="10.00" fill="#000000">T</text>
<polyline fill="none" stroke="#bfbfbf" points="200.5,-1357.5 229.5,-1357.5 "/>
<text text-anchor="middle" x="215" y="-1345.5" font-family="Helvetica,sans-Serif" font-size="10.00" fill="#000000"> </text>
<polyline fill="none" stroke="#bfbfbf" points="200.5,-1338.5 229.5,-1338.5 "/>
<text text-anchor="middle" x="215" y="-1326.5" font-family="Helvetica,sans-Serif" font-size="10.00" fill="#000000"> </text>
</g>
<!-- Node9&#45;&gt;Node7 -->
<g id="edge8" class="edge">
<title>Node9&#45;&gt;Node7</title>
<path fill="none" stroke="#404040" d="M211.7561,-1319.2739C211.6466,-1309.7081 212.611,-1299.1621 216,-1290 216.9947,-1287.3107 218.1715,-1284.6565 219.4917,-1282.0509"/>
<polygon fill="none" stroke="#404040" points="219.5309,-1281.9845 219.1347,-1274.7843 225.6287,-1271.6493 226.0249,-1278.8495 219.5309,-1281.9845"/>
<text text-anchor="middle" x="240.5" y="-1293" font-family="Helvetica,sans-Serif" font-size="10.00" fill="#000000"> +elements</text>
</g>
<!-- Node9&#45;&gt;Node18 -->
<g id="edge23" class="edge">
<title>Node9&#45;&gt;Node18</title>
<path fill="none" stroke="#404040" d="M200.1073,-1338.5458C187.9358,-1330.0921 171.139,-1316.6449 161,-1301 156.4703,-1294.0106 152.8768,-1285.995 150.0388,-1277.9584"/>
<polygon fill="none" stroke="#404040" points="149.9715,-1277.7423 144.3671,-1273.2045 146.4002,-1266.286 152.0046,-1270.8237 149.9715,-1277.7423"/>
<text text-anchor="middle" x="185.5" y="-1293" font-family="Helvetica,sans-Serif" font-size="10.00" fill="#000000"> +elements</text>
</g>
<!-- Node9&#45;&gt;Node20 -->
<g id="edge27" class="edge">
<title>Node9&#45;&gt;Node20</title>
<path fill="none" stroke="#404040" d="M229.7812,-1344.8339C258.2318,-1338.4742 322.2775,-1322.8628 373,-1301 381.9606,-1297.1377 382.9563,-1293.6635 392,-1290 422.5717,-1277.6157 433.7844,-1285.2293 464,-1272 464.2465,-1271.8921 464.4931,-1271.7832 464.7399,-1271.6733"/>
<polygon fill="none" stroke="#404040" points="465.0876,-1271.5012 468.6886,-1265.2535 475.8407,-1266.1747 472.2396,-1272.4223 465.0876,-1271.5012"/>
<text text-anchor="middle" x="416.5" y="-1293" font-family="Helvetica,sans-Serif" font-size="10.00" fill="#000000"> +elements</text>
</g>
<!-- Node10 -->
<g id="node10" class="node">
<title>Node10</title>
<polygon fill="#ffffff" stroke="#bfbfbf" points="99,-824.5 99,-881.5 165,-881.5 165,-824.5 99,-824.5"/>
<text text-anchor="middle" x="132" y="-869.5" font-family="Helvetica,sans-Serif" font-size="10.00" fill="#000000">nodeview_t</text>
<polyline fill="none" stroke="#bfbfbf" points="99,-862.5 165,-862.5 "/>
<text text-anchor="middle" x="132" y="-850.5" font-family="Helvetica,sans-Serif" font-size="10.00" fill="#000000"> </text>
<polyline fill="none" stroke="#bfbfbf" points="99,-843.5 165,-843.5 "/>
<text text-anchor="middle" x="132" y="-831.5" font-family="Helvetica,sans-Serif" font-size="10.00" fill="#000000"> </text>
</g>
<!-- Node10&#45;&gt;Node3 -->
<g id="edge16" class="edge">
<title>Node10&#45;&gt;Node3</title>
<path fill="none" stroke="#404040" d="M136.6563,-824.4886C149.3732,-747.3378 184.4466,-539.5421 195,-529 205.9777,-518.0341 435.7733,-486.5744 493.1821,-468.4956"/>
<polygon fill="none" stroke="#404040" points="493.4043,-468.4029 497.3999,-462.4 504.4779,-463.7795 500.4822,-469.7824 493.4043,-468.4029"/>
<text text-anchor="middle" x="218" y="-599.5" font-family="Helvetica,sans-Serif" font-size="10.00" fill="#000000"> +modules</text>
<text text-anchor="middle" x="218" y="-588.5" font-family="Helvetica,sans-Serif" font-size="10.00" fill="#000000">+nets</text>
</g>
<!-- Node10&#45;&gt;Node4 -->
<g id="edge9" class="edge">
<title>Node10&#45;&gt;Node4</title>
<path fill="none" stroke="#404040" d="M152.9387,-824.2667C162.762,-809.5686 173.8524,-791.0156 181,-773 196.2368,-734.5955 178.5235,-717.2962 200,-682 201.6028,-679.3659 219.5319,-664.5269 240.1345,-647.9306"/>
<polygon fill="none" stroke="#404040" points="240.3821,-647.7318 242.5567,-640.8564 249.7396,-640.2192 247.5651,-647.0947 240.3821,-647.7318"/>
<text text-anchor="middle" x="218" y="-725" font-family="Helvetica,sans-Serif" font-size="10.00" fill="#000000"> +_node</text>
</g>
<!-- Node11 -->
<g id="node11" class="node">
<title>Node11</title>
<polygon fill="#ffffff" stroke="#bfbfbf" points="470.5,-824.5 470.5,-881.5 535.5,-881.5 535.5,-824.5 470.5,-824.5"/>
<text text-anchor="middle" x="503" y="-869.5" font-family="Helvetica,sans-Serif" font-size="10.00" fill="#000000">nodemap_t</text>
<polyline fill="none" stroke="#bfbfbf" points="470.5,-862.5 535.5,-862.5 "/>
<text text-anchor="middle" x="503" y="-850.5" font-family="Helvetica,sans-Serif" font-size="10.00" fill="#000000"> </text>
<polyline fill="none" stroke="#bfbfbf" points="470.5,-843.5 535.5,-843.5 "/>
<text text-anchor="middle" x="503" y="-831.5" font-family="Helvetica,sans-Serif" font-size="10.00" fill="#000000"> </text>
</g>
<!-- Node11&#45;&gt;Node3 -->
<g id="edge28" class="edge">
<title>Node11&#45;&gt;Node3</title>
<path fill="none" stroke="#404040" d="M496.7366,-824.4056C485.3302,-767.4157 464.422,-635.9554 488,-529 491.452,-513.3411 496.5538,-497.3994 502.5093,-481.9117"/>
<polygon fill="none" stroke="#404040" points="502.5274,-481.8663 501.0426,-474.8097 506.9853,-470.725 508.4701,-477.7816 502.5274,-481.8663"/>
<text text-anchor="middle" x="519" y="-599.5" font-family="Helvetica,sans-Serif" font-size="10.00" fill="#000000"> +net_map</text>
<text text-anchor="middle" x="519" y="-588.5" font-family="Helvetica,sans-Serif" font-size="10.00" fill="#000000">+module_map</text>
</g>
<!-- Node11&#45;&gt;Node4 -->
<g id="edge10" class="edge">
<title>Node11&#45;&gt;Node4</title>
<path fill="none" stroke="#404040" d="M489.242,-824.3738C482.2645,-812.5336 472.7559,-799.5924 461,-791 438.179,-774.3202 420.4928,-792.4694 400,-773 368.9187,-743.4708 388.0475,-719.8962 368,-682 366.6542,-679.456 365.2383,-676.9043 363.7658,-674.3554"/>
<polygon fill="none" stroke="#404040" points="363.6568,-674.1759 357.1237,-671.1234 357.4286,-663.9187 363.9618,-666.9712 363.6568,-674.1759"/>
<text text-anchor="middle" x="430" y="-725" font-family="Helvetica,sans-Serif" font-size="10.00" fill="#000000"> +_node_map</text>
</g>
<!-- Node12 -->
<g id="node12" class="node">
<title>Node12</title>
<polygon fill="#ffffff" stroke="#bfbfbf" points="331.5,-813.5 331.5,-892.5 452.5,-892.5 452.5,-813.5 331.5,-813.5"/>
<text text-anchor="start" x="339.5" y="-880.5" font-family="Helvetica,sans-Serif" font-size="10.00" fill="#000000">std::vector&lt; py::set</text>
<text text-anchor="start" x="339.5" y="-869.5" font-family="Helvetica,sans-Serif" font-size="10.00" fill="#000000">&lt; typename nodeview_t</text>
<text text-anchor="middle" x="392" y="-858.5" font-family="Helvetica,sans-Serif" font-size="10.00" fill="#000000">::value_type &gt; &gt;</text>
<polyline fill="none" stroke="#bfbfbf" points="331.5,-851.5 452.5,-851.5 "/>
<text text-anchor="middle" x="392" y="-839.5" font-family="Helvetica,sans-Serif" font-size="10.00" fill="#000000"> </text>
<polyline fill="none" stroke="#bfbfbf" points="331.5,-832.5 452.5,-832.5 "/>
<text text-anchor="middle" x="392" y="-820.5" font-family="Helvetica,sans-Serif" font-size="10.00" fill="#000000"> </text>
</g>
<!-- Node12&#45;&gt;Node4 -->
<g id="edge12" class="edge">
<title>Node12&#45;&gt;Node4</title>
<path fill="none" stroke="#404040" d="M361.8433,-813.1325C353.7074,-800.7992 345.6138,-786.8113 340,-773 327.5386,-742.342 319.3971,-706.8328 314.1341,-675.7375"/>
<polygon fill="none" stroke="#404040" points="314.0893,-675.4577 309.1888,-670.1677 312.1871,-663.6094 317.0876,-668.8995 314.0893,-675.4577"/>
<text text-anchor="middle" x="354" y="-725" font-family="Helvetica,sans-Serif" font-size="10.00" fill="#000000"> +_adj</text>
</g>
<!-- Node13 -->
<g id="node13" class="node">
<title>Node13</title>
<g id="a_node13"><a xlink:href="classpy_1_1set.html" target="_top" xlink:title="{py::set\&lt; typename nodeview\l_t::value_type \&gt;\n||+ set()\l+ set()\l+ operator=()\l&#45; set()\l}">
<polygon fill="#ffffff" stroke="#000000" points="327.5,-1053.5 327.5,-1154.5 470.5,-1154.5 470.5,-1053.5 327.5,-1053.5"/>
<text text-anchor="start" x="335.5" y="-1142.5" font-family="Helvetica,sans-Serif" font-size="10.00" fill="#000000">py::set&lt; typename nodeview</text>
<text text-anchor="middle" x="399" y="-1131.5" font-family="Helvetica,sans-Serif" font-size="10.00" fill="#000000">_t::value_type &gt;</text>
<polyline fill="none" stroke="#000000" points="327.5,-1124.5 470.5,-1124.5 "/>
<text text-anchor="middle" x="399" y="-1112.5" font-family="Helvetica,sans-Serif" font-size="10.00" fill="#000000"> </text>
<polyline fill="none" stroke="#000000" points="327.5,-1105.5 470.5,-1105.5 "/>
<text text-anchor="start" x="335.5" y="-1093.5" font-family="Helvetica,sans-Serif" font-size="10.00" fill="#000000">+ set()</text>
<text text-anchor="start" x="335.5" y="-1082.5" font-family="Helvetica,sans-Serif" font-size="10.00" fill="#000000">+ set()</text>
<text text-anchor="start" x="335.5" y="-1071.5" font-family="Helvetica,sans-Serif" font-size="10.00" fill="#000000">+ operator=()</text>
<text text-anchor="start" x="335.5" y="-1060.5" font-family="Helvetica,sans-Serif" font-size="10.00" fill="#000000">&#45; set()</text>
</a>
</g>
</g>
<!-- Node13&#45;&gt;Node12 -->
<g id="edge13" class="edge">
<title>Node13&#45;&gt;Node12</title>
<path fill="none" stroke="#404040" d="M397.5834,-1053.2064C396.3773,-1009.9587 394.6522,-948.1016 393.4396,-904.6192"/>
<polygon fill="none" stroke="#404040" points="393.4389,-904.5896 389.2731,-898.7035 393.1042,-892.5943 397.27,-898.4804 393.4389,-904.5896"/>
<text text-anchor="middle" x="421.5" y="-981.5" font-family="Helvetica,sans-Serif" font-size="10.00" fill="#000000"> +elements</text>
</g>
<!-- Node14&#45;&gt;Node13 -->
<g id="edge14" class="edge">
<title>Node14&#45;&gt;Node13</title>
<path fill="none" stroke="#191970" d="M399,-1182.1972C399,-1173.1496 399,-1163.7033 399,-1154.6321"/>
<polygon fill="none" stroke="#191970" points="395.5001,-1182.2016 399,-1192.2016 402.5001,-1182.2017 395.5001,-1182.2016"/>
</g>
<!-- Node15 -->
<g id="node15" class="node">
<title>Node15</title>
<g id="a_node15"><a xlink:href="classpy_1_1set.html" target="_top" xlink:title="{py::set\&lt; node_t \&gt;\n||+ set()\l+ set()\l+ operator=()\l&#45; set()\l}">
<polygon fill="#ffffff" stroke="#000000" points="628,-939 628,-1029 722,-1029 722,-939 628,-939"/>
<text text-anchor="middle" x="675" y="-1017" font-family="Helvetica,sans-Serif" font-size="10.00" fill="#000000">py::set&lt; node_t &gt;</text>
<polyline fill="none" stroke="#000000" points="628,-1010 722,-1010 "/>
<text text-anchor="middle" x="675" y="-998" font-family="Helvetica,sans-Serif" font-size="10.00" fill="#000000"> </text>
<polyline fill="none" stroke="#000000" points="628,-991 722,-991 "/>
<text text-anchor="start" x="636" y="-979" font-family="Helvetica,sans-Serif" font-size="10.00" fill="#000000">+ set()</text>
<text text-anchor="start" x="636" y="-968" font-family="Helvetica,sans-Serif" font-size="10.00" fill="#000000">+ set()</text>
<text text-anchor="start" x="636" y="-957" font-family="Helvetica,sans-Serif" font-size="10.00" fill="#000000">+ operator=()</text>
<text text-anchor="start" x="636" y="-946" font-family="Helvetica,sans-Serif" font-size="10.00" fill="#000000">&#45; set()</text>
</a>
</g>
</g>
<!-- Node15&#45;&gt;Node3 -->
<g id="edge17" class="edge">
<title>Node15&#45;&gt;Node3</title>
<path fill="none" stroke="#404040" d="M674.7668,-938.8778C673.7994,-879.5344 669.7671,-772.2134 654,-682 642.2728,-614.9017 621.9864,-541.6474 603.6389,-482.477"/>
<polygon fill="none" stroke="#404040" points="603.5804,-482.2897 597.9718,-477.7572 599.9984,-470.8367 605.6071,-475.3692 603.5804,-482.2897"/>
<text text-anchor="middle" x="699.5" y="-725" font-family="Helvetica,sans-Serif" font-size="10.00" fill="#000000"> +module_fixed</text>
</g>
<!-- Node16&#45;&gt;Node15 -->
<g id="edge18" class="edge">
<title>Node16&#45;&gt;Node15</title>
<path fill="none" stroke="#191970" d="M657.7438,-1187.7874C661.5305,-1143.0681 667.3549,-1074.2845 671.1716,-1029.211"/>
<polygon fill="none" stroke="#191970" points="654.2542,-1187.5174 656.8979,-1197.777 661.2293,-1188.108 654.2542,-1187.5174"/>
</g>
<!-- Node17 -->
<g id="node17" class="node">
<title>Node17</title>
<g id="a_node17"><a xlink:href="classpy_1_1dict.html" target="_top" xlink:title="{py::dict\&lt; node_t, index_t \&gt;\n||+ dict()\l+ dict()\l+ operator=()\l&#45; dict()\l}">
<polygon fill="#ffffff" stroke="#000000" points="0,-682.5 0,-772.5 134,-772.5 134,-682.5 0,-682.5"/>
<text text-anchor="middle" x="67" y="-760.5" font-family="Helvetica,sans-Serif" font-size="10.00" fill="#000000">py::dict&lt; node_t, index_t &gt;</text>
<polyline fill="none" stroke="#000000" points="0,-753.5 134,-753.5 "/>
<text text-anchor="middle" x="67" y="-741.5" font-family="Helvetica,sans-Serif" font-size="10.00" fill="#000000"> </text>
<polyline fill="none" stroke="#000000" points="0,-734.5 134,-734.5 "/>
<text text-anchor="start" x="8" y="-722.5" font-family="Helvetica,sans-Serif" font-size="10.00" fill="#000000">+ dict()</text>
<text text-anchor="start" x="8" y="-711.5" font-family="Helvetica,sans-Serif" font-size="10.00" fill="#000000">+ dict()</text>
<text text-anchor="start" x="8" y="-700.5" font-family="Helvetica,sans-Serif" font-size="10.00" fill="#000000">+ operator=()</text>
<text text-anchor="start" x="8" y="-689.5" font-family="Helvetica,sans-Serif" font-size="10.00" fill="#000000">&#45; dict()</text>
</a>
</g>
</g>
<!-- Node17&#45;&gt;Node3 -->
<g id="edge20" class="edge">
<title>Node17&#45;&gt;Node3</title>
<path fill="none" stroke="#404040" d="M57.479,-682.1994C51.0461,-639.2139 48.3843,-574.5849 78,-529 99.2251,-496.3301 118.3849,-499.1455 156,-489 225.5646,-470.2371 411.8757,-505.2904 493.5233,-470.2095"/>
<polygon fill="none" stroke="#404040" points="493.604,-470.169 497.1692,-463.9009 504.3264,-464.7811 500.7612,-471.0492 493.604,-470.169"/>
<text text-anchor="middle" x="113" y="-594" font-family="Helvetica,sans-Serif" font-size="10.00" fill="#000000"> +node_up_map</text>
</g>
<!-- Node18&#45;&gt;Node17 -->
<g id="edge21" class="edge">
<title>Node18&#45;&gt;Node17</title>
<path fill="none" stroke="#191970" d="M132.5254,-1187.7336C122.3023,-1126.5226 103.6702,-1012.5362 90,-915 83.1947,-866.4444 76.4939,-810.6557 72.0964,-772.6412"/>
<polygon fill="none" stroke="#191970" points="129.1097,-1188.5287 134.2127,-1197.8137 136.0137,-1187.373 129.1097,-1188.5287"/>
</g>
<!-- Node19 -->
<g id="node19" class="node">
<title>Node19</title>
<g id="a_node19"><a xlink:href="classpy_1_1dict.html" target="_top" xlink:title="{py::dict\&lt; index_t,\l node_t \&gt;\n||+ dict()\l+ dict()\l+ operator=()\l&#45; dict()\l}">
<polygon fill="#ffffff" stroke="#000000" points="508,-933.5 508,-1034.5 600,-1034.5 600,-933.5 508,-933.5"/>
<text text-anchor="start" x="516" y="-1022.5" font-family="Helvetica,sans-Serif" font-size="10.00" fill="#000000">py::dict&lt; index_t,</text>
<text text-anchor="middle" x="554" y="-1011.5" font-family="Helvetica,sans-Serif" font-size="10.00" fill="#000000"> node_t &gt;</text>
<polyline fill="none" stroke="#000000" points="508,-1004.5 600,-1004.5 "/>
<text text-anchor="middle" x="554" y="-992.5" font-family="Helvetica,sans-Serif" font-size="10.00" fill="#000000"> </text>
<polyline fill="none" stroke="#000000" points="508,-985.5 600,-985.5 "/>
<text text-anchor="start" x="516" y="-973.5" font-family="Helvetica,sans-Serif" font-size="10.00" fill="#000000">+ dict()</text>
<text text-anchor="start" x="516" y="-962.5" font-family="Helvetica,sans-Serif" font-size="10.00" fill="#000000">+ dict()</text>
<text text-anchor="start" x="516" y="-951.5" font-family="Helvetica,sans-Serif" font-size="10.00" fill="#000000">+ operator=()</text>
<text text-anchor="start" x="516" y="-940.5" font-family="Helvetica,sans-Serif" font-size="10.00" fill="#000000">&#45; dict()</text>
</a>
</g>
</g>
<!-- Node19&#45;&gt;Node3 -->
<g id="edge24" class="edge">
<title>Node19&#45;&gt;Node3</title>
<path fill="none" stroke="#404040" d="M554.8183,-933.3446C556.3975,-835.5964 559.9024,-618.6403 562.0961,-482.8497"/>
<polygon fill="none" stroke="#404040" points="562.0971,-482.7805 558.1946,-476.7166 562.2911,-470.782 566.1936,-476.8459 562.0971,-482.7805"/>
<text text-anchor="middle" x="604.5" y="-730.5" font-family="Helvetica,sans-Serif" font-size="10.00" fill="#000000"> +cluster_down_map</text>
<text text-anchor="middle" x="604.5" y="-719.5" font-family="Helvetica,sans-Serif" font-size="10.00" fill="#000000">+node_down_map</text>
</g>
<!-- Node20&#45;&gt;Node19 -->
<g id="edge25" class="edge">
<title>Node20&#45;&gt;Node19</title>
<path fill="none" stroke="#191970" d="M530.1892,-1187.623C535.2138,-1144.6548 542.823,-1079.5823 548.081,-1034.6176"/>
<polygon fill="none" stroke="#191970" points="526.6871,-1187.4382 529.0019,-1197.777 533.6397,-1188.2512 526.6871,-1187.4382"/>
</g>
<!-- Node21 -->
<g id="node21" class="node">
<title>Node21</title>
<polygon fill="#ffffff" stroke="#bfbfbf" points="662,-568 662,-625 754,-625 754,-568 662,-568"/>
<text text-anchor="middle" x="708" y="-613" font-family="Helvetica,sans-Serif" font-size="10.00" fill="#000000">std::vector&lt; int &gt;</text>
<polyline fill="none" stroke="#bfbfbf" points="662,-606 754,-606 "/>
<text text-anchor="start" x="670" y="-594" font-family="Helvetica,sans-Serif" font-size="10.00" fill="#000000">+ elements</text>
<polyline fill="none" stroke="#bfbfbf" points="662,-587 754,-587 "/>
<text text-anchor="middle" x="708" y="-575" font-family="Helvetica,sans-Serif" font-size="10.00" fill="#000000"> </text>
</g>
<!-- Node21&#45;&gt;Node1 -->
<g id="edge30" class="edge">
<title>Node21&#45;&gt;Node1</title>
<path fill="none" stroke="#404040" d="M712.7982,-567.8077C715.8963,-546.1836 719.1515,-515.7788 718,-489 714.1704,-399.9422 705.354,-299.5578 697.7968,-223.9082"/>
<polygon fill="none" stroke="#404040" points="697.7507,-223.4496 693.1693,-217.8809 696.5475,-211.5101 701.1289,-217.0788 697.7507,-223.4496"/>
<text text-anchor="middle" x="744.5" y="-362.5" font-family="Helvetica,sans-Serif" font-size="10.00" fill="#000000"> &#45;deltaGainV</text>
</g>
<!-- Node21&#45;&gt;Node3 -->
<g id="edge29" class="edge">
<title>Node21&#45;&gt;Node3</title>
<path fill="none" stroke="#404040" d="M684.2844,-567.6327C671.4298,-551.4288 655.6364,-530.585 643,-511 636.8538,-501.4741 630.7312,-491.4285 624.7701,-481.2479"/>
<polygon fill="none" stroke="#404040" points="624.6249,-480.9966 618.1599,-477.8022 618.6221,-470.6059 625.0871,-473.8003 624.6249,-480.9966"/>
<text text-anchor="middle" x="680.5" y="-503" font-family="Helvetica,sans-Serif" font-size="10.00" fill="#000000"> +module_weight</text>
<text text-anchor="middle" x="680.5" y="-492" font-family="Helvetica,sans-Serif" font-size="10.00" fill="#000000">+net_weight</text>
</g>
<!-- Node22 -->
<g id="node22" class="node">
<title>Node22</title>
<g id="a_node22"><a xlink:href="classrobin.html" target="_top" xlink:title="{robin\&lt; uint8_t \&gt;\n||+ robin()\l+ exclude()\l}">
<polygon fill="#ffffff" stroke="#000000" points="805.5,-331 805.5,-399 890.5,-399 890.5,-331 805.5,-331"/>
<text text-anchor="middle" x="848" y="-387" font-family="Helvetica,sans-Serif" font-size="10.00" fill="#000000">robin&lt; uint8_t &gt;</text>
<polyline fill="none" stroke="#000000" points="805.5,-380 890.5,-380 "/>
<text text-anchor="middle" x="848" y="-368" font-family="Helvetica,sans-Serif" font-size="10.00" fill="#000000"> </text>
<polyline fill="none" stroke="#000000" points="805.5,-361 890.5,-361 "/>
<text text-anchor="start" x="813.5" y="-349" font-family="Helvetica,sans-Serif" font-size="10.00" fill="#000000">+ robin()</text>
<text text-anchor="start" x="813.5" y="-338" font-family="Helvetica,sans-Serif" font-size="10.00" fill="#000000">+ exclude()</text>
</a>
</g>
</g>
<!-- Node22&#45;&gt;Node1 -->
<g id="edge31" class="edge">
<title>Node22&#45;&gt;Node1</title>
<path fill="none" stroke="#404040" d="M830.7288,-330.5575C819.8891,-309.5504 805.2984,-282.3407 791,-259 782.8619,-245.7154 774.0296,-232.0081 765.0532,-218.5086"/>
<polygon fill="none" stroke="#404040" points="764.8499,-218.2051 758.1869,-215.4474 758.1699,-208.2363 764.8329,-210.994 764.8499,-218.2051"/>
<text text-anchor="middle" x="789" y="-233" font-family="Helvetica,sans-Serif" font-size="10.00" fill="#000000"> &#45;RR</text>
</g>
<!-- Node23 -->
<g id="node23" class="node">
<title>Node23</title>
<polygon fill="#ffffff" stroke="#bfbfbf" points="800.5,-562.5 800.5,-630.5 895.5,-630.5 895.5,-562.5 800.5,-562.5"/>
<text text-anchor="start" x="808.5" y="-618.5" font-family="Helvetica,sans-Serif" font-size="10.00" fill="#000000">std::vector&lt; dllink</text>
<text text-anchor="middle" x="848" y="-607.5" font-family="Helvetica,sans-Serif" font-size="10.00" fill="#000000">&lt; uint8_t &gt; &gt;</text>
<polyline fill="none" stroke="#bfbfbf" points="800.5,-600.5 895.5,-600.5 "/>
<text text-anchor="middle" x="848" y="-588.5" font-family="Helvetica,sans-Serif" font-size="10.00" fill="#000000"> </text>
<polyline fill="none" stroke="#bfbfbf" points="800.5,-581.5 895.5,-581.5 "/>
<text text-anchor="middle" x="848" y="-569.5" font-family="Helvetica,sans-Serif" font-size="10.00" fill="#000000"> </text>
</g>
<!-- Node23&#45;&gt;Node22 -->
<g id="edge32" class="edge">
<title>Node23&#45;&gt;Node22</title>
<path fill="none" stroke="#404040" d="M848,-562.3414C848,-522.4194 848,-456.151 848,-411.5466"/>
<polygon fill="none" stroke="#404040" points="848.0001,-411.2988 844,-405.2988 848,-399.2988 852,-405.2987 848.0001,-411.2988"/>
<text text-anchor="middle" x="863" y="-497.5" font-family="Helvetica,sans-Serif" font-size="10.00" fill="#000000"> &#45;cycle</text>
</g>
<!-- Node24 -->
<g id="node24" class="node">
<title>Node24</title>
<g id="a_node24"><a xlink:href="structdllink.html" target="_top" xlink:title="{dllink\&lt; uint8_t \&gt;\n|+ key\l|+ dllink()\l+ dllink()\l+ detach()\l+ lock()\l+ is_locked()\l+ is_empty()\land 6 more...\l}">
<polygon fill="#ffffff" stroke="#000000" points="805,-791.5 805,-914.5 891,-914.5 891,-791.5 805,-791.5"/>
<text text-anchor="middle" x="848" y="-902.5" font-family="Helvetica,sans-Serif" font-size="10.00" fill="#000000">dllink&lt; uint8_t &gt;</text>
<polyline fill="none" stroke="#000000" points="805,-895.5 891,-895.5 "/>
<text text-anchor="start" x="813" y="-883.5" font-family="Helvetica,sans-Serif" font-size="10.00" fill="#000000">+ key</text>
<polyline fill="none" stroke="#000000" points="805,-876.5 891,-876.5 "/>
<text text-anchor="start" x="813" y="-864.5" font-family="Helvetica,sans-Serif" font-size="10.00" fill="#000000">+ dllink()</text>
<text text-anchor="start" x="813" y="-853.5" font-family="Helvetica,sans-Serif" font-size="10.00" fill="#000000">+ dllink()</text>
<text text-anchor="start" x="813" y="-842.5" font-family="Helvetica,sans-Serif" font-size="10.00" fill="#000000">+ detach()</text>
<text text-anchor="start" x="813" y="-831.5" font-family="Helvetica,sans-Serif" font-size="10.00" fill="#000000">+ lock()</text>
<text text-anchor="start" x="813" y="-820.5" font-family="Helvetica,sans-Serif" font-size="10.00" fill="#000000">+ is_locked()</text>
<text text-anchor="start" x="813" y="-809.5" font-family="Helvetica,sans-Serif" font-size="10.00" fill="#000000">+ is_empty()</text>
<text text-anchor="start" x="813" y="-798.5" font-family="Helvetica,sans-Serif" font-size="10.00" fill="#000000">and 6 more...</text>
</a>
</g>
</g>
<!-- Node24&#45;&gt;Node23 -->
<g id="edge33" class="edge">
<title>Node24&#45;&gt;Node23</title>
<path fill="none" stroke="#404040" d="M848,-791.2354C848,-745.5595 848,-684.3321 848,-642.8138"/>
<polygon fill="none" stroke="#404040" points="848.0001,-642.6006 844,-636.6006 848,-630.6006 852,-636.6005 848.0001,-642.6006"/>
<text text-anchor="middle" x="872.5" y="-725" font-family="Helvetica,sans-Serif" font-size="10.00" fill="#000000"> +elements</text>
</g>
<!-- Node24&#45;&gt;Node24 -->
<g id="edge34" class="edge">
<title>Node24&#45;&gt;Node24</title>
<path fill="none" stroke="#404040" d="M891.0361,-875.8399C901.3545,-874.0547 909,-866.4414 909,-853 909,-845.0192 906.3047,-839.093 901.9549,-835.2214"/>
<polygon fill="none" stroke="#404040" points="901.9233,-835.2068 894.7975,-836.3125 891.0361,-830.1601 898.162,-829.0544 901.9233,-835.2068"/>
<text text-anchor="middle" x="923" y="-856" font-family="Helvetica,sans-Serif" font-size="10.00" fill="#000000"> +prev</text>
<text text-anchor="middle" x="923" y="-845" font-family="Helvetica,sans-Serif" font-size="10.00" fill="#000000">+next</text>
</g>
</g>
</svg>
