<?xml version="1.0" encoding="UTF-8" standalone="no"?>
<!DOCTYPE svg PUBLIC "-//W3C//DTD SVG 1.1//EN"
 "http://www.w3.org/Graphics/SVG/1.1/DTD/svg11.dtd">
<!-- Generated by graphviz version 2.40.1 (20161225.0304)
 -->
<!-- Title: FMConstrMgr Pages: 1 -->
<svg width="246pt" height="303pt"
 viewBox="0.00 0.00 246.00 303.00" xmlns="http://www.w3.org/2000/svg" xmlns:xlink="http://www.w3.org/1999/xlink">
<g id="graph0" class="graph" transform="scale(1 1) rotate(0) translate(4 299)">
<title>FMConstrMgr</title>
<polygon fill="#ffffff" stroke="transparent" points="-4,4 -4,-299 242,-299 242,4 -4,4"/>
<!-- Node0 -->
<g id="node1" class="node">
<title>Node0</title>
<polygon fill="#bfbfbf" stroke="#000000" points="59,-127.5 59,-294.5 170,-294.5 170,-127.5 59,-127.5"/>
<text text-anchor="middle" x="114.5" y="-282.5" font-family="Helvetica,sans-Serif" font-size="10.00" fill="#000000">FMConstrMgr</text>
<polyline fill="none" stroke="#000000" points="59,-275.5 170,-275.5 "/>
<text text-anchor="start" x="67" y="-263.5" font-family="Helvetica,sans-Serif" font-size="10.00" fill="#000000"># H</text>
<text text-anchor="start" x="67" y="-252.5" font-family="Helvetica,sans-Serif" font-size="10.00" fill="#000000"># BalTol</text>
<text text-anchor="start" x="67" y="-241.5" font-family="Helvetica,sans-Serif" font-size="10.00" fill="#000000"># K</text>
<text text-anchor="start" x="67" y="-230.5" font-family="Helvetica,sans-Serif" font-size="10.00" fill="#000000"># diff</text>
<text text-anchor="start" x="67" y="-219.5" font-family="Helvetica,sans-Serif" font-size="10.00" fill="#000000"># lowerbound</text>
<text text-anchor="start" x="67" y="-208.5" font-family="Helvetica,sans-Serif" font-size="10.00" fill="#000000"># totalweight</text>
<text text-anchor="start" x="67" y="-197.5" font-family="Helvetica,sans-Serif" font-size="10.00" fill="#000000">&#45; weight</text>
<polyline fill="none" stroke="#000000" points="59,-190.5 170,-190.5 "/>
<text text-anchor="start" x="67" y="-178.5" font-family="Helvetica,sans-Serif" font-size="10.00" fill="#000000">+ init()</text>
<text text-anchor="start" x="67" y="-167.5" font-family="Helvetica,sans-Serif" font-size="10.00" fill="#000000">+ check_legal()</text>
<text text-anchor="start" x="67" y="-156.5" font-family="Helvetica,sans-Serif" font-size="10.00" fill="#000000">+ check_constraints()</text>
<text text-anchor="start" x="67" y="-145.5" font-family="Helvetica,sans-Serif" font-size="10.00" fill="#000000">+ update_move()</text>
<text text-anchor="start" x="67" y="-134.5" font-family="Helvetica,sans-Serif" font-size="10.00" fill="#000000"># FMConstrMgr()</text>
</g>
<!-- Node1 -->
<g id="node2" class="node">
<title>Node1</title>
<g id="a_node2"><a xlink:href="structFMBiConstrMgr.html" target="_top" xlink:title="Constraint Manager. ">
<polygon fill="#ffffff" stroke="#000000" points="0,-11.5 0,-79.5 101,-79.5 101,-11.5 0,-11.5"/>
<text text-anchor="middle" x="50.5" y="-67.5" font-family="Helvetica,sans-Serif" font-size="10.00" fill="#000000">FMBiConstrMgr</text>
<polyline fill="none" stroke="#000000" points="0,-60.5 101,-60.5 "/>
<text text-anchor="middle" x="50.5" y="-48.5" font-family="Helvetica,sans-Serif" font-size="10.00" fill="#000000"> </text>
<polyline fill="none" stroke="#000000" points="0,-41.5 101,-41.5 "/>
<text text-anchor="start" x="8" y="-29.5" font-family="Helvetica,sans-Serif" font-size="10.00" fill="#000000">+ FMBiConstrMgr()</text>
<text text-anchor="start" x="8" y="-18.5" font-family="Helvetica,sans-Serif" font-size="10.00" fill="#000000">+ select_togo()</text>
</a>
</g>
</g>
<!-- Node0&#45;&gt;Node1 -->
<g id="edge1" class="edge">
<title>Node0&#45;&gt;Node1</title>
<path fill="none" stroke="#191970" d="M78.472,-117.8337C73.219,-104.2499 68.1132,-91.0467 63.7329,-79.7195"/>
<polygon fill="none" stroke="#191970" points="75.2537,-119.2158 82.125,-127.2803 81.7826,-116.691 75.2537,-119.2158"/>
</g>
<!-- Node2 -->
<g id="node3" class="node">
<title>Node2</title>
<g id="a_node3"><a xlink:href="classFMKWayConstrMgr.html" target="_top" xlink:title="FM K&#45;Way Partition Constraint Manager. ">
<polygon fill="#ffffff" stroke="#000000" points="119,-.5 119,-90.5 238,-90.5 238,-.5 119,-.5"/>
<text text-anchor="middle" x="178.5" y="-78.5" font-family="Helvetica,sans-Serif" font-size="10.00" fill="#000000">FMKWayConstrMgr</text>
<polyline fill="none" stroke="#000000" points="119,-71.5 238,-71.5 "/>
<text text-anchor="start" x="127" y="-59.5" font-family="Helvetica,sans-Serif" font-size="10.00" fill="#000000">&#45; illegal</text>
<polyline fill="none" stroke="#000000" points="119,-52.5 238,-52.5 "/>
<text text-anchor="start" x="127" y="-40.5" font-family="Helvetica,sans-Serif" font-size="10.00" fill="#000000">+ FMKWayConstrMgr()</text>
<text text-anchor="start" x="127" y="-29.5" font-family="Helvetica,sans-Serif" font-size="10.00" fill="#000000">+ select_togo()</text>
<text text-anchor="start" x="127" y="-18.5" font-family="Helvetica,sans-Serif" font-size="10.00" fill="#000000">+ init()</text>
<text text-anchor="start" x="127" y="-7.5" font-family="Helvetica,sans-Serif" font-size="10.00" fill="#000000">+ check_legal()</text>
</a>
</g>
</g>
<!-- Node0&#45;&gt;Node2 -->
<g id="edge2" class="edge">
<title>Node0&#45;&gt;Node2</title>
<path fill="none" stroke="#191970" d="M150.5396,-117.8039C154.1876,-108.3703 157.7645,-99.1207 161.0765,-90.5562"/>
<polygon fill="none" stroke="#191970" points="147.2174,-116.691 146.875,-127.2803 153.7463,-119.2158 147.2174,-116.691"/>
</g>
</g>
</svg>
