<?xml version="1.0" encoding="UTF-8" standalone="no"?>
<!DOCTYPE svg PUBLIC "-//W3C//DTD SVG 1.1//EN"
 "http://www.w3.org/Graphics/SVG/1.1/DTD/svg11.dtd">
<!-- Generated by graphviz version 2.40.1 (20161225.0304)
 -->
<!-- Title: iter::impl::CombinatorWithReplacement::Iterator::operator++ Pages: 1 -->
<svg width="616pt" height="153pt"
 viewBox="0.00 0.00 616.00 153.00" xmlns="http://www.w3.org/2000/svg" xmlns:xlink="http://www.w3.org/1999/xlink">
<g id="graph0" class="graph" transform="scale(1 1) rotate(0) translate(4 149)">
<title>iter::impl::CombinatorWithReplacement::Iterator::operator++</title>
<polygon fill="#ffffff" stroke="transparent" points="-4,4 -4,-149 612,-149 612,4 -4,4"/>
<!-- Node10 -->
<g id="node1" class="node">
<title>Node10</title>
<polygon fill="#bfbfbf" stroke="#000000" points="0,-71 0,-112 131,-112 131,-71 0,-71"/>
<text text-anchor="start" x="8" y="-100" font-family="Helvetica,sans-Serif" font-size="10.00" fill="#000000">iter::impl::CombinatorWith</text>
<text text-anchor="start" x="8" y="-89" font-family="Helvetica,sans-Serif" font-size="10.00" fill="#000000">Replacement::Iterator::</text>
<text text-anchor="middle" x="65.5" y="-78" font-family="Helvetica,sans-Serif" font-size="10.00" fill="#000000">operator++</text>
</g>
<!-- Node11 -->
<g id="node2" class="node">
<title>Node11</title>
<g id="a_node2"><a xlink:href="namespaceiter_1_1impl.html#a48f7fa26dc4bb4853f9cd329aa45c710" target="_top" xlink:title="iter::impl::dumb_next">
<polygon fill="#ffffff" stroke="#000000" points="185.5,-120 185.5,-139 293.5,-139 293.5,-120 185.5,-120"/>
<text text-anchor="middle" x="239.5" y="-127" font-family="Helvetica,sans-Serif" font-size="10.00" fill="#000000">iter::impl::dumb_next</text>
</a>
</g>
</g>
<!-- Node10&#45;&gt;Node11 -->
<g id="edge1" class="edge">
<title>Node10&#45;&gt;Node11</title>
<path fill="none" stroke="#191970" d="M131.2819,-105.8662C149.3025,-109.8017 168.6165,-114.0197 185.8675,-117.7872"/>
<polygon fill="#191970" stroke="#191970" points="185.2444,-121.2335 195.7609,-119.9478 186.738,-114.3947 185.2444,-121.2335"/>
</g>
<!-- Node13 -->
<g id="node4" class="node">
<title>Node13</title>
<g id="a_node4"><a xlink:href="classiter_1_1impl_1_1IterIterWrapper.html#ad8a8e1bbe3d4f27e77994259ad7e73c9" target="_top" xlink:title="iter::impl::IterIterWrapper::get">
<polygon fill="#ffffff" stroke="#000000" points="167,-82 167,-101 312,-101 312,-82 167,-82"/>
<text text-anchor="middle" x="239.5" y="-89" font-family="Helvetica,sans-Serif" font-size="10.00" fill="#000000">iter::impl::IterIterWrapper::get</text>
</a>
</g>
</g>
<!-- Node10&#45;&gt;Node13 -->
<g id="edge3" class="edge">
<title>Node10&#45;&gt;Node13</title>
<path fill="none" stroke="#191970" d="M131.2819,-91.5C139.6516,-91.5 148.3003,-91.5 156.8918,-91.5"/>
<polygon fill="#191970" stroke="#191970" points="156.931,-95.0001 166.9309,-91.5 156.9309,-88.0001 156.931,-95.0001"/>
</g>
<!-- Node14 -->
<g id="node5" class="node">
<title>Node14</title>
<g id="a_node5"><a xlink:href="namespaceiter_1_1impl_1_1get__iters.html#a33bba16eb5615048756ebb04c94629bd" target="_top" xlink:title="iter::impl::get_iters\l::get_end">
<polygon fill="#ffffff" stroke="#000000" points="190.5,-32.5 190.5,-62.5 288.5,-62.5 288.5,-32.5 190.5,-32.5"/>
<text text-anchor="start" x="198.5" y="-50.5" font-family="Helvetica,sans-Serif" font-size="10.00" fill="#000000">iter::impl::get_iters</text>
<text text-anchor="middle" x="239.5" y="-39.5" font-family="Helvetica,sans-Serif" font-size="10.00" fill="#000000">::get_end</text>
</a>
</g>
</g>
<!-- Node10&#45;&gt;Node14 -->
<g id="edge4" class="edge">
<title>Node10&#45;&gt;Node14</title>
<path fill="none" stroke="#191970" d="M131.2819,-74.8655C147.5401,-70.7542 164.8511,-66.3767 180.7502,-62.3563"/>
<polygon fill="#191970" stroke="#191970" points="181.6083,-65.7495 190.4451,-59.9047 179.8921,-58.9631 181.6083,-65.7495"/>
</g>
<!-- Node12 -->
<g id="node3" class="node">
<title>Node12</title>
<g id="a_node3"><a xlink:href="namespaceiter_1_1impl.html#af7b6987fd2569c60945fe1e4892a6265" target="_top" xlink:title="iter::impl::dumb_advance\l_unsafe">
<polygon fill="#ffffff" stroke="#000000" points="348,-114.5 348,-144.5 474,-144.5 474,-114.5 348,-114.5"/>
<text text-anchor="start" x="356" y="-132.5" font-family="Helvetica,sans-Serif" font-size="10.00" fill="#000000">iter::impl::dumb_advance</text>
<text text-anchor="middle" x="411" y="-121.5" font-family="Helvetica,sans-Serif" font-size="10.00" fill="#000000">_unsafe</text>
</a>
</g>
</g>
<!-- Node11&#45;&gt;Node12 -->
<g id="edge2" class="edge">
<title>Node11&#45;&gt;Node12</title>
<path fill="none" stroke="#191970" d="M293.7637,-129.5C307.717,-129.5 322.9619,-129.5 337.705,-129.5"/>
<polygon fill="#191970" stroke="#191970" points="337.8096,-133.0001 347.8095,-129.5 337.8095,-126.0001 337.8096,-133.0001"/>
</g>
<!-- Node15 -->
<g id="node6" class="node">
<title>Node15</title>
<g id="a_node6"><a xlink:href="namespaceiter_1_1impl_1_1get__iters.html#a4195fc28d6c53e02d7cb825ce26d75d5" target="_top" xlink:title="iter::impl::get_iters\l::get_end_impl">
<polygon fill="#ffffff" stroke="#000000" points="362,-49.5 362,-79.5 460,-79.5 460,-49.5 362,-49.5"/>
<text text-anchor="start" x="370" y="-67.5" font-family="Helvetica,sans-Serif" font-size="10.00" fill="#000000">iter::impl::get_iters</text>
<text text-anchor="middle" x="411" y="-56.5" font-family="Helvetica,sans-Serif" font-size="10.00" fill="#000000">::get_end_impl</text>
</a>
</g>
</g>
<!-- Node14&#45;&gt;Node15 -->
<g id="edge5" class="edge">
<title>Node14&#45;&gt;Node15</title>
<path fill="none" stroke="#191970" d="M288.645,-52.3715C308.2895,-54.3188 331.0894,-56.5788 351.6465,-58.6166"/>
<polygon fill="#191970" stroke="#191970" points="351.5513,-62.1242 361.8478,-59.6278 352.2419,-55.1583 351.5513,-62.1242"/>
</g>
<!-- Node16 -->
<g id="node7" class="node">
<title>Node16</title>
<g id="a_node7"><a xlink:href="namespaceiter_1_1impl_1_1get__iters.html#ad5958ccc2e23ff7927ae127847a39dbc" target="_top" xlink:title="iter::impl::get_iters\l::get_begin">
<polygon fill="#ffffff" stroke="#000000" points="362,-.5 362,-30.5 460,-30.5 460,-.5 362,-.5"/>
<text text-anchor="start" x="370" y="-18.5" font-family="Helvetica,sans-Serif" font-size="10.00" fill="#000000">iter::impl::get_iters</text>
<text text-anchor="middle" x="411" y="-7.5" font-family="Helvetica,sans-Serif" font-size="10.00" fill="#000000">::get_begin</text>
</a>
</g>
</g>
<!-- Node14&#45;&gt;Node16 -->
<g id="edge6" class="edge">
<title>Node14&#45;&gt;Node16</title>
<path fill="none" stroke="#191970" d="M288.645,-38.3301C308.3792,-34.6479 331.2976,-30.3716 351.928,-26.5222"/>
<polygon fill="#191970" stroke="#191970" points="352.6595,-29.9462 361.8478,-24.6713 351.3755,-23.0649 352.6595,-29.9462"/>
</g>
<!-- Node17 -->
<g id="node8" class="node">
<title>Node17</title>
<g id="a_node8"><a xlink:href="namespaceiter_1_1impl_1_1get__iters.html#aa42232a4051a50a8ffd16207aa031ff5" target="_top" xlink:title="iter::impl::get_iters\l::get_begin_impl">
<polygon fill="#ffffff" stroke="#000000" points="510,-.5 510,-30.5 608,-30.5 608,-.5 510,-.5"/>
<text text-anchor="start" x="518" y="-18.5" font-family="Helvetica,sans-Serif" font-size="10.00" fill="#000000">iter::impl::get_iters</text>
<text text-anchor="middle" x="559" y="-7.5" font-family="Helvetica,sans-Serif" font-size="10.00" fill="#000000">::get_begin_impl</text>
</a>
</g>
</g>
<!-- Node16&#45;&gt;Node17 -->
<g id="edge7" class="edge">
<title>Node16&#45;&gt;Node17</title>
<path fill="none" stroke="#191970" d="M460.2819,-15.5C472.8886,-15.5 486.5766,-15.5 499.6318,-15.5"/>
<polygon fill="#191970" stroke="#191970" points="499.9334,-19.0001 509.9333,-15.5 499.9333,-12.0001 499.9334,-19.0001"/>
</g>
</g>
</svg>
