<?xml version="1.0" encoding="UTF-8" standalone="no"?>
<!DOCTYPE svg PUBLIC "-//W3C//DTD SVG 1.1//EN"
 "http://www.w3.org/Graphics/SVG/1.1/DTD/svg11.dtd">
<!-- Generated by graphviz version 2.40.1 (20161225.0304)
 -->
<!-- Title: iter::impl::Taker::Iterator::operator&#45;&gt; Pages: 1 -->
<svg width="255pt" height="39pt"
 viewBox="0.00 0.00 255.00 39.00" xmlns="http://www.w3.org/2000/svg" xmlns:xlink="http://www.w3.org/1999/xlink">
<g id="graph0" class="graph" transform="scale(1 1) rotate(0) translate(4 35)">
<title>iter::impl::Taker::Iterator::operator&#45;&gt;</title>
<polygon fill="#ffffff" stroke="transparent" points="-4,4 -4,-35 251,-35 251,4 -4,4"/>
<!-- Node27 -->
<g id="node1" class="node">
<title>Node27</title>
<polygon fill="#bfbfbf" stroke="#000000" points="0,-.5 0,-30.5 98,-30.5 98,-.5 0,-.5"/>
<text text-anchor="start" x="8" y="-18.5" font-family="Helvetica,sans-Serif" font-size="10.00" fill="#000000">iter::impl::Taker::</text>
<text text-anchor="middle" x="49" y="-7.5" font-family="Helvetica,sans-Serif" font-size="10.00" fill="#000000">Iterator::operator&#45;&gt;</text>
</g>
<!-- Node28 -->
<g id="node2" class="node">
<title>Node28</title>
<g id="a_node2"><a xlink:href="classiter_1_1impl_1_1DerefHolder.html#a0cc453735712fd3d12f082aa31e4a5aa" target="_top" xlink:title="iter::impl::DerefHolder\l::get_ptr">
<polygon fill="#ffffff" stroke="#000000" points="134,-.5 134,-30.5 247,-30.5 247,-.5 134,-.5"/>
<text text-anchor="start" x="142" y="-18.5" font-family="Helvetica,sans-Serif" font-size="10.00" fill="#000000">iter::impl::DerefHolder</text>
<text text-anchor="middle" x="190.5" y="-7.5" font-family="Helvetica,sans-Serif" font-size="10.00" fill="#000000">::get_ptr</text>
</a>
</g>
</g>
<!-- Node27&#45;&gt;Node28 -->
<g id="edge1" class="edge">
<title>Node27&#45;&gt;Node28</title>
<path fill="none" stroke="#191970" d="M98.0927,-15.5C106.3542,-15.5 115.0518,-15.5 123.6715,-15.5"/>
<polygon fill="#191970" stroke="#191970" points="123.7237,-19.0001 133.7237,-15.5 123.7236,-12.0001 123.7237,-19.0001"/>
</g>
</g>
</svg>
