<?xml version="1.0" encoding="UTF-8" standalone="no"?>
<!DOCTYPE svg PUBLIC "-//W3C//DTD SVG 1.1//EN"
 "http://www.w3.org/Graphics/SVG/1.1/DTD/svg11.dtd">
<!-- Generated by graphviz version 2.40.1 (20161225.0304)
 -->
<!-- Title: set_partition_::run Pages: 1 -->
<svg width="1683pt" height="514pt"
 viewBox="0.00 0.00 1683.00 514.00" xmlns="http://www.w3.org/2000/svg" xmlns:xlink="http://www.w3.org/1999/xlink">
<g id="graph0" class="graph" transform="scale(1 1) rotate(0) translate(4 510)">
<title>set_partition_::run</title>
<polygon fill="#ffffff" stroke="transparent" points="-4,4 -4,-510 1679,-510 1679,4 -4,4"/>
<!-- Node182 -->
<g id="node1" class="node">
<title>Node182</title>
<polygon fill="#bfbfbf" stroke="#000000" points="0,-286.5 0,-305.5 95,-305.5 95,-286.5 0,-286.5"/>
<text text-anchor="middle" x="47.5" y="-293.5" font-family="Helvetica,sans-Serif" font-size="10.00" fill="#000000">set_partition_::run</text>
</g>
<!-- Node183 -->
<g id="node2" class="node">
<title>Node183</title>
<g id="a_node2"><a xlink:href="classset__partition__.html#a687b778e3d61f8d08ecdcaa18797bc17" target="_top" xlink:title="S(n,k,0) even k. ">
<polygon fill="#ffffff" stroke="#000000" points="131,-337.5 131,-356.5 276,-356.5 276,-337.5 131,-337.5"/>
<text text-anchor="middle" x="203.5" y="-344.5" font-family="Helvetica,sans-Serif" font-size="10.00" fill="#000000">set_partition_::__GEN0_even</text>
</a>
</g>
</g>
<!-- Node182&#45;&gt;Node183 -->
<g id="edge1" class="edge">
<title>Node182&#45;&gt;Node183</title>
<path fill="none" stroke="#191970" d="M76.8424,-305.5927C101.6822,-313.7134 137.4837,-325.4178 164.6906,-334.3123"/>
<polygon fill="#191970" stroke="#191970" points="163.6966,-337.6696 174.2892,-337.4503 165.8718,-331.0161 163.6966,-337.6696"/>
</g>
<!-- Node184 -->
<g id="node3" class="node">
<title>Node184</title>
<g id="a_node3"><a xlink:href="classset__partition__.html#a61b36346bde2f311e912458395676b03" target="_top" xlink:title="S(n,k,0) odd k. ">
<polygon fill="#ffffff" stroke="#000000" points="312,-206.5 312,-225.5 452,-225.5 452,-206.5 312,-206.5"/>
<text text-anchor="middle" x="382" y="-213.5" font-family="Helvetica,sans-Serif" font-size="10.00" fill="#000000">set_partition_::__GEN0_odd</text>
</a>
</g>
</g>
<!-- Node182&#45;&gt;Node184 -->
<g id="edge38" class="edge">
<title>Node182&#45;&gt;Node184</title>
<path fill="none" stroke="#191970" d="M87.5163,-286.4296C148.7933,-271.7744 265.7563,-243.8012 332.3538,-227.8735"/>
<polygon fill="#191970" stroke="#191970" points="333.286,-231.2494 342.1976,-225.5193 331.6578,-224.4414 333.286,-231.2494"/>
</g>
<!-- Node183&#45;&gt;Node184 -->
<g id="edge2" class="edge">
<title>Node183&#45;&gt;Node184</title>
<path fill="none" stroke="#191970" d="M216.6255,-337.3673C247.1857,-314.9394 323.3237,-259.0621 360.6657,-231.6571"/>
<polygon fill="#191970" stroke="#191970" points="362.8641,-234.3851 368.8552,-225.6469 358.7225,-228.7418 362.8641,-234.3851"/>
</g>
<!-- Node185 -->
<g id="node4" class="node">
<title>Node185</title>
<g id="a_node4"><a xlink:href="classset__partition__.html#ae98760875254a7058477511106020d36" target="_top" xlink:title="S(n,k,1) even k. ">
<polygon fill="#ffffff" stroke="#000000" points="488,-337.5 488,-356.5 633,-356.5 633,-337.5 488,-337.5"/>
<text text-anchor="middle" x="560.5" y="-344.5" font-family="Helvetica,sans-Serif" font-size="10.00" fill="#000000">set_partition_::__GEN1_even</text>
</a>
</g>
</g>
<!-- Node183&#45;&gt;Node185 -->
<g id="edge35" class="edge">
<title>Node183&#45;&gt;Node185</title>
<path fill="none" stroke="#191970" d="M276.1746,-347C334.569,-347 416.6119,-347 477.5683,-347"/>
<polygon fill="#191970" stroke="#191970" points="477.9272,-350.5001 487.9272,-347 477.9272,-343.5001 477.9272,-350.5001"/>
</g>
<!-- Node187 -->
<g id="node6" class="node">
<title>Node187</title>
<g id="a_node6"><a xlink:href="classset__partition__.html#ae46020a9dfeb6915b6fa4565ea8074b7" target="_top" xlink:title="Move. ">
<polygon fill="#ffffff" stroke="#000000" points="1383,-253.5 1383,-272.5 1499,-272.5 1499,-253.5 1383,-253.5"/>
<text text-anchor="middle" x="1441" y="-260.5" font-family="Helvetica,sans-Serif" font-size="10.00" fill="#000000">set_partition_::__Move</text>
</a>
</g>
</g>
<!-- Node183&#45;&gt;Node187 -->
<g id="edge36" class="edge">
<title>Node183&#45;&gt;Node187</title>
<path fill="none" stroke="#191970" d="M219.7165,-356.6284C239.7631,-372.8976 275.6975,-404.05 312,-422 414.4354,-472.6499 446.2266,-488 560.5,-488 560.5,-488 560.5,-488 1093.5,-488 1214.1331,-488 1252.2542,-465.6698 1347,-391 1385.7401,-360.4687 1414.667,-309.5983 1429.6053,-281.8655"/>
<polygon fill="#191970" stroke="#191970" points="1432.8372,-283.244 1434.4683,-272.7755 1426.665,-279.9419 1432.8372,-283.244"/>
</g>
<!-- Node190 -->
<g id="node9" class="node">
<title>Node190</title>
<g id="a_node9"><a xlink:href="classset__partition__.html#a9d82ab7c3fe00c55dcfea691be7a9beb" target="_top" xlink:title="S&#39;(n,k,1) even k. ">
<polygon fill="#ffffff" stroke="#000000" points="1202,-328.5 1202,-347.5 1347,-347.5 1347,-328.5 1202,-328.5"/>
<text text-anchor="middle" x="1274.5" y="-335.5" font-family="Helvetica,sans-Serif" font-size="10.00" fill="#000000">set_partition_::__NEG1_even</text>
</a>
</g>
</g>
<!-- Node183&#45;&gt;Node190 -->
<g id="edge37" class="edge">
<title>Node183&#45;&gt;Node190</title>
<path fill="none" stroke="#191970" d="M222.2945,-356.5054C274.5086,-382.0039 426.325,-450 560.5,-450 560.5,-450 560.5,-450 739,-450 930.8622,-450 1153.3582,-380.2653 1238.6841,-350.847"/>
<polygon fill="#191970" stroke="#191970" points="1239.869,-354.1406 1248.1637,-347.5491 1237.5689,-347.5292 1239.869,-354.1406"/>
</g>
<!-- Node184&#45;&gt;Node185 -->
<g id="edge3" class="edge">
<title>Node184&#45;&gt;Node185</title>
<path fill="none" stroke="#191970" d="M395.1255,-225.6327C425.6857,-248.0606 501.8237,-303.9379 539.1657,-331.3429"/>
<polygon fill="#191970" stroke="#191970" points="537.2225,-334.2582 547.3552,-337.3531 541.3641,-328.6149 537.2225,-334.2582"/>
</g>
<!-- Node186 -->
<g id="node5" class="node">
<title>Node186</title>
<g id="a_node5"><a xlink:href="classset__partition__.html#a6dc3ea3155a1012318a485d48d373d4b" target="_top" xlink:title="S(n,k,1) odd k. ">
<polygon fill="#ffffff" stroke="#000000" points="669,-206.5 669,-225.5 809,-225.5 809,-206.5 669,-206.5"/>
<text text-anchor="middle" x="739" y="-213.5" font-family="Helvetica,sans-Serif" font-size="10.00" fill="#000000">set_partition_::__GEN1_odd</text>
</a>
</g>
</g>
<!-- Node184&#45;&gt;Node186 -->
<g id="edge32" class="edge">
<title>Node184&#45;&gt;Node186</title>
<path fill="none" stroke="#191970" d="M452.1058,-216C511.4469,-216 596.5106,-216 658.6021,-216"/>
<polygon fill="#191970" stroke="#191970" points="658.75,-219.5001 668.75,-216 658.75,-212.5001 658.75,-219.5001"/>
</g>
<!-- Node184&#45;&gt;Node187 -->
<g id="edge33" class="edge">
<title>Node184&#45;&gt;Node187</title>
<path fill="none" stroke="#191970" d="M388.0156,-206.4708C420.0904,-164.1951 575.6508,0 739,0 739,0 739,0 1093.5,0 1256.3105,0 1393.693,-183.9725 1431.0052,-244.3225"/>
<polygon fill="#191970" stroke="#191970" points="1428.1684,-246.3994 1436.2934,-253.1991 1434.1821,-242.8167 1428.1684,-246.3994"/>
</g>
<!-- Node191 -->
<g id="node10" class="node">
<title>Node191</title>
<g id="a_node10"><a xlink:href="classset__partition__.html#a1071d4d0441e793ffcf62dee406da1b8" target="_top" xlink:title="S&#39;(n,k,1) odd k. ">
<polygon fill="#ffffff" stroke="#000000" points="845,-187.5 845,-206.5 985,-206.5 985,-187.5 845,-187.5"/>
<text text-anchor="middle" x="915" y="-194.5" font-family="Helvetica,sans-Serif" font-size="10.00" fill="#000000">set_partition_::__NEG1_odd</text>
</a>
</g>
</g>
<!-- Node184&#45;&gt;Node191 -->
<g id="edge34" class="edge">
<title>Node184&#45;&gt;Node191</title>
<path fill="none" stroke="#191970" d="M452.1148,-210.0591C510.1833,-205.4514 594.8863,-199.4506 669,-197 724.3921,-195.1685 786.8385,-195.1938 834.9538,-195.6641"/>
<polygon fill="#191970" stroke="#191970" points="834.9593,-199.1642 844.9959,-195.7707 835.0337,-192.1646 834.9593,-199.1642"/>
</g>
<!-- Node185&#45;&gt;Node186 -->
<g id="edge4" class="edge">
<title>Node185&#45;&gt;Node186</title>
<path fill="none" stroke="#191970" d="M580.0881,-337.4891C595.7553,-329.1821 617.577,-315.9684 633,-300 654.6046,-277.6314 644.8253,-259.5626 669,-240 674.2338,-235.7647 680.2582,-232.2577 686.5302,-229.3583"/>
<polygon fill="#191970" stroke="#191970" points="687.9171,-232.5724 695.8334,-225.5309 685.2538,-226.0988 687.9171,-232.5724"/>
</g>
<!-- Node185&#45;&gt;Node187 -->
<g id="edge30" class="edge">
<title>Node185&#45;&gt;Node187</title>
<path fill="none" stroke="#191970" d="M609.7196,-356.6005C737.7683,-385.4332 1089.2398,-459.8062 1347,-348 1380.3477,-333.5351 1408.2423,-301.2885 1424.7712,-280.7111"/>
<polygon fill="#191970" stroke="#191970" points="1427.6616,-282.6995 1431.1419,-272.6926 1422.1808,-278.345 1427.6616,-282.6995"/>
</g>
<!-- Node185&#45;&gt;Node190 -->
<g id="edge31" class="edge">
<title>Node185&#45;&gt;Node190</title>
<path fill="none" stroke="#191970" d="M633.2229,-341.7998C766.8983,-336.9047 1050.8428,-333.2489 1191.6974,-334.5302"/>
<polygon fill="#191970" stroke="#191970" points="1191.9632,-338.033 1201.9986,-334.6357 1192.035,-331.0334 1191.9632,-338.033"/>
</g>
<!-- Node186&#45;&gt;Node183 -->
<g id="edge5" class="edge">
<title>Node186&#45;&gt;Node183</title>
<path fill="none" stroke="#191970" d="M699.8416,-225.5794C603.9046,-249.0486 357.3082,-309.3737 252.1668,-335.0946"/>
<polygon fill="#191970" stroke="#191970" points="251.3251,-331.6972 242.4432,-337.4733 252.9885,-338.4967 251.3251,-331.6972"/>
</g>
<!-- Node186&#45;&gt;Node187 -->
<g id="edge6" class="edge">
<title>Node186&#45;&gt;Node187</title>
<path fill="none" stroke="#191970" d="M809.0807,-217.9681C899.6626,-225.3652 1062.3479,-242.3575 1202,-250 1259.3273,-253.1373 1324.4945,-254.0519 1372.2848,-255.6504"/>
<polygon fill="#191970" stroke="#191970" points="1372.3959,-259.1565 1382.5141,-256.0145 1372.645,-252.1609 1372.3959,-259.1565"/>
</g>
<!-- Node186&#45;&gt;Node191 -->
<g id="edge29" class="edge">
<title>Node186&#45;&gt;Node191</title>
<path fill="none" stroke="#191970" d="M775.4673,-206.4705C792.6863,-203.7315 813.9696,-201.0558 834.681,-198.9437"/>
<polygon fill="#191970" stroke="#191970" points="835.171,-202.4126 844.7822,-197.9543 834.4886,-195.4459 835.171,-202.4126"/>
</g>
<!-- Node187&#45;&gt;Node183 -->
<g id="edge7" class="edge">
<title>Node187&#45;&gt;Node183</title>
<path fill="none" stroke="#191970" d="M1438.4165,-272.7582C1429.2121,-299.4159 1395.9349,-370.4341 1347,-409 1252.2542,-483.6698 1214.1331,-506 1093.5,-506 560.5,-506 560.5,-506 560.5,-506 446.2266,-506 414.4354,-490.6499 312,-440 272.788,-420.6114 234.0053,-385.8193 215.2106,-364.3751"/>
<polygon fill="#191970" stroke="#191970" points="217.8813,-362.1123 208.8283,-356.6082 212.473,-366.5564 217.8813,-362.1123"/>
</g>
<!-- Node187&#45;&gt;Node184 -->
<g id="edge8" class="edge">
<title>Node187&#45;&gt;Node184</title>
<path fill="none" stroke="#191970" d="M1432.5506,-253.2646C1397.6338,-207.2946 1258.6486,-18 1093.5,-18 739,-18 739,-18 739,-18 592.0695,-18 451.4408,-150.8464 401.3126,-199.0641"/>
<polygon fill="#191970" stroke="#191970" points="398.5781,-196.838 393.7967,-206.2926 403.4304,-201.8833 398.5781,-196.838"/>
</g>
<!-- Node187&#45;&gt;Node185 -->
<g id="edge9" class="edge">
<title>Node187&#45;&gt;Node185</title>
<path fill="none" stroke="#191970" d="M1437.602,-272.5392C1426.8943,-294.8428 1391.887,-346.5298 1347,-366 1076.0868,-483.5115 701.6545,-395.3582 591.9048,-359.7236"/>
<polygon fill="#191970" stroke="#191970" points="593.0051,-356.4011 582.4112,-356.5476 590.7842,-363.0395 593.0051,-356.4011"/>
</g>
<!-- Node187&#45;&gt;Node186 -->
<g id="edge10" class="edge">
<title>Node187&#45;&gt;Node186</title>
<path fill="none" stroke="#191970" d="M1382.5141,-270.501C1334.1,-272.1741 1263.5337,-271.3675 1202,-268 1050.3356,-259.7001 871.505,-240.3728 787.3671,-227.138"/>
<polygon fill="#191970" stroke="#191970" points="787.773,-223.6582 777.3422,-225.515 786.6543,-230.5682 787.773,-223.6582"/>
</g>
<!-- Node188 -->
<g id="node7" class="node">
<title>Node188</title>
<g id="a_node7"><a xlink:href="classset__partition__.html#a2c1f63ac643153a63f521f0dbbfb369f" target="_top" xlink:title="S&#39;(n,k,0) even k. ">
<polygon fill="#ffffff" stroke="#000000" points="1021,-196.5 1021,-215.5 1166,-215.5 1166,-196.5 1021,-196.5"/>
<text text-anchor="middle" x="1093.5" y="-203.5" font-family="Helvetica,sans-Serif" font-size="10.00" fill="#000000">set_partition_::__NEG0_even</text>
</a>
</g>
</g>
<!-- Node187&#45;&gt;Node188 -->
<g id="edge11" class="edge">
<title>Node187&#45;&gt;Node188</title>
<path fill="none" stroke="#191970" d="M1382.8914,-258.6585C1313.1732,-249.4807 1197.9577,-230.3889 1136.0232,-217.5856"/>
<polygon fill="#191970" stroke="#191970" points="1136.6995,-214.1513 1126.192,-215.5086 1135.2525,-221.0001 1136.6995,-214.1513"/>
</g>
<!-- Node189 -->
<g id="node8" class="node">
<title>Node189</title>
<g id="a_node8"><a xlink:href="classset__partition__.html#a6e2508bffc7bc4e6ebb4407219b97607" target="_top" xlink:title="S&#39;(n,k,0) odd k. ">
<polygon fill="#ffffff" stroke="#000000" points="1535,-173.5 1535,-192.5 1675,-192.5 1675,-173.5 1535,-173.5"/>
<text text-anchor="middle" x="1605" y="-180.5" font-family="Helvetica,sans-Serif" font-size="10.00" fill="#000000">set_partition_::__NEG0_odd</text>
</a>
</g>
</g>
<!-- Node187&#45;&gt;Node189 -->
<g id="edge26" class="edge">
<title>Node187&#45;&gt;Node189</title>
<path fill="none" stroke="#191970" d="M1453.0593,-253.3791C1476.2825,-238.9765 1528.1531,-212.9531 1564.8078,-196.7056"/>
<polygon fill="#191970" stroke="#191970" points="1566.4672,-199.8005 1574.2386,-192.5994 1563.6727,-193.3825 1566.4672,-199.8005"/>
</g>
<!-- Node187&#45;&gt;Node190 -->
<g id="edge27" class="edge">
<title>Node187&#45;&gt;Node190</title>
<path fill="none" stroke="#191970" d="M1433.4335,-272.6706C1417.7563,-286.3303 1380.3979,-308.548 1347,-323 1345.6311,-323.5924 1344.2425,-324.179 1342.8385,-324.7585"/>
<polygon fill="#191970" stroke="#191970" points="1341.4261,-321.5529 1333.3967,-328.4651 1343.9841,-328.0688 1341.4261,-321.5529"/>
</g>
<!-- Node187&#45;&gt;Node191 -->
<g id="edge28" class="edge">
<title>Node187&#45;&gt;Node191</title>
<path fill="none" stroke="#191970" d="M1406.4941,-253.3368C1389.0409,-245.8671 1367.3019,-236.3456 1347,-230 1207.9587,-186.5413 1166.5137,-189.1514 1021,-196 1012.6392,-196.3935 1003.9198,-196.9607 995.2302,-197.5779"/>
<polygon fill="#191970" stroke="#191970" points="994.7856,-194.1009 985.0663,-198.3182 995.2941,-201.0825 994.7856,-194.1009"/>
</g>
<!-- Node188&#45;&gt;Node185 -->
<g id="edge12" class="edge">
<title>Node188&#45;&gt;Node185</title>
<path fill="none" stroke="#191970" d="M1057.5849,-215.501C963.7071,-240.3355 711.0713,-307.1678 606.644,-334.793"/>
<polygon fill="#191970" stroke="#191970" points="605.4885,-331.4782 596.7162,-337.4193 607.2788,-338.2455 605.4885,-331.4782"/>
</g>
<!-- Node188&#45;&gt;Node187 -->
<g id="edge13" class="edge">
<title>Node188&#45;&gt;Node187</title>
<path fill="none" stroke="#191970" d="M1166.3474,-212.3346C1236.5648,-222.0588 1340.4285,-239.4265 1398.2247,-251.3623"/>
<polygon fill="#191970" stroke="#191970" points="1397.6125,-254.8102 1408.1197,-253.4507 1399.0581,-247.961 1397.6125,-254.8102"/>
</g>
<!-- Node188&#45;&gt;Node189 -->
<g id="edge14" class="edge">
<title>Node188&#45;&gt;Node189</title>
<path fill="none" stroke="#191970" d="M1166.2423,-202.7291C1261.0755,-198.4648 1426.4077,-191.0305 1524.7847,-186.6069"/>
<polygon fill="#191970" stroke="#191970" points="1525.1388,-190.0947 1534.9715,-186.1489 1524.8243,-183.1017 1525.1388,-190.0947"/>
</g>
<!-- Node188&#45;&gt;Node190 -->
<g id="edge25" class="edge">
<title>Node188&#45;&gt;Node190</title>
<path fill="none" stroke="#191970" d="M1133.3487,-215.5449C1144.389,-219.1418 1156.0616,-223.8878 1166,-230 1186.927,-242.8704 1234.214,-293.4765 1258.8743,-320.603"/>
<polygon fill="#191970" stroke="#191970" points="1256.4427,-323.1322 1265.7469,-328.2 1261.6338,-318.4361 1256.4427,-323.1322"/>
</g>
<!-- Node189&#45;&gt;Node186 -->
<g id="edge15" class="edge">
<title>Node189&#45;&gt;Node186</title>
<path fill="none" stroke="#191970" d="M1591.2407,-173.4544C1547.2811,-143.9191 1405.4288,-56 1274.5,-56 1093.5,-56 1093.5,-56 1093.5,-56 954.3491,-56 809.5084,-159.6821 758.31,-200.1197"/>
<polygon fill="#191970" stroke="#191970" points="755.9993,-197.4862 750.3838,-206.4704 760.3763,-202.949 755.9993,-197.4862"/>
</g>
<!-- Node189&#45;&gt;Node187 -->
<g id="edge16" class="edge">
<title>Node189&#45;&gt;Node187</title>
<path fill="none" stroke="#191970" d="M1592.8678,-192.666C1569.6253,-207.0678 1517.8807,-233.0277 1481.2686,-249.2605"/>
<polygon fill="#191970" stroke="#191970" points="1479.6176,-246.162 1471.8471,-253.3641 1482.4129,-252.5797 1479.6176,-246.162"/>
</g>
<!-- Node189&#45;&gt;Node190 -->
<g id="edge17" class="edge">
<title>Node189&#45;&gt;Node190</title>
<path fill="none" stroke="#191970" d="M1597.6494,-192.5768C1581.8605,-212.4551 1542.5843,-258.3108 1499,-282 1455.288,-305.7587 1401.3248,-319.6359 1357.2608,-327.632"/>
<polygon fill="#191970" stroke="#191970" points="1356.4031,-324.2287 1347.1535,-329.3954 1357.6062,-331.1246 1356.4031,-324.2287"/>
</g>
<!-- Node189&#45;&gt;Node191 -->
<g id="edge24" class="edge">
<title>Node189&#45;&gt;Node191</title>
<path fill="none" stroke="#191970" d="M1534.7394,-178.8122C1424.9087,-173.1281 1205.9579,-165.2626 1021,-180 1005.607,-181.2265 989.0748,-183.4397 973.7532,-185.8726"/>
<polygon fill="#191970" stroke="#191970" points="973.1836,-182.4191 963.8837,-187.4948 974.319,-189.3264 973.1836,-182.4191"/>
</g>
<!-- Node190&#45;&gt;Node185 -->
<g id="edge18" class="edge">
<title>Node190&#45;&gt;Node185</title>
<path fill="none" stroke="#191970" d="M1201.9986,-343.192C1068.4894,-348.0885 784.549,-351.7478 643.5363,-350.4719"/>
<polygon fill="#191970" stroke="#191970" points="643.2581,-346.969 633.2229,-350.3668 643.1867,-353.9686 643.2581,-346.969"/>
</g>
<!-- Node190&#45;&gt;Node187 -->
<g id="edge19" class="edge">
<title>Node190&#45;&gt;Node187</title>
<path fill="none" stroke="#191970" d="M1286.2888,-328.4796C1300.8343,-321.6875 1326.1925,-314.0039 1347,-305 1365.978,-296.7878 1386.2349,-286.0681 1403.0657,-277.3182"/>
<polygon fill="#191970" stroke="#191970" points="1404.7538,-280.3857 1412.0339,-272.6882 1401.5426,-274.1657 1404.7538,-280.3857"/>
</g>
<!-- Node190&#45;&gt;Node191 -->
<g id="edge20" class="edge">
<title>Node190&#45;&gt;Node191</title>
<path fill="none" stroke="#191970" d="M1250.0391,-328.4062C1187.3637,-303.8242 1020.9005,-238.5354 948.9342,-210.3094"/>
<polygon fill="#191970" stroke="#191970" points="950.0148,-206.9737 939.4273,-206.5807 947.4588,-213.4904 950.0148,-206.9737"/>
</g>
<!-- Node191&#45;&gt;Node186 -->
<g id="edge21" class="edge">
<title>Node191&#45;&gt;Node186</title>
<path fill="none" stroke="#191970" d="M878.5127,-206.5327C861.2595,-209.2765 839.9291,-211.9568 819.1828,-214.0702"/>
<polygon fill="#191970" stroke="#191970" points="818.6773,-210.6028 809.0656,-215.0599 819.3589,-217.5696 818.6773,-210.6028"/>
</g>
<!-- Node191&#45;&gt;Node187 -->
<g id="edge22" class="edge">
<title>Node191&#45;&gt;Node187</title>
<path fill="none" stroke="#191970" d="M936.8828,-187.4452C958.2867,-182.8604 991.8268,-179.373 1021,-178 1166.5137,-171.1514 1207.9587,-168.5413 1347,-212 1375.0218,-220.7585 1405.7812,-235.5674 1424.2302,-247.4345"/>
<polygon fill="#191970" stroke="#191970" points="1422.2461,-250.3178 1432.4543,-253.154 1426.2428,-244.571 1422.2461,-250.3178"/>
</g>
<!-- Node191&#45;&gt;Node188 -->
<g id="edge23" class="edge">
<title>Node191&#45;&gt;Node188</title>
<path fill="none" stroke="#191970" d="M985.0356,-200.5312C993.4598,-200.956 1002.1237,-201.3928 1010.7075,-201.8256"/>
<polygon fill="#191970" stroke="#191970" points="1010.5647,-205.3227 1020.7283,-202.3308 1010.9172,-198.3316 1010.5647,-205.3227"/>
</g>
</g>
</svg>
