<?xml version="1.0" encoding="UTF-8" standalone="no"?>
<!DOCTYPE svg PUBLIC "-//W3C//DTD SVG 1.1//EN"
 "http://www.w3.org/Graphics/SVG/1.1/DTD/svg11.dtd">
<!-- Generated by graphviz version 2.40.1 (20161225.0304)
 -->
<!-- Title: set_partition_::__NEG1_odd Pages: 1 -->
<!--zoomable 443 -->
<svg id="main" version="1.1" xmlns="http://www.w3.org/2000/svg" xmlns:xlink="http://www.w3.org/1999/xlink" xml:space="preserve" onload="init(evt)">
<style type="text/css"><![CDATA[
.edge:hover path { stroke: red; }
.edge:hover polygon { stroke: red; fill: red; }
]]></style>
<script type="text/javascript"><![CDATA[
var edges = document.getElementsByTagName('g');
if (edges && edges.length) {
  for (var i=0;i<edges.length;i++) {
    if (edges[i].id.substr(0,4)=='edge') {
      edges[i].setAttribute('class','edge');
    }
  }
}
]]></script>
        <defs>
                <circle id="rim" cx="0" cy="0" r="7"/>
                <circle id="rim2" cx="0" cy="0" r="3.5"/>
                <g id="zoomPlus">
                        <use xlink:href="#rim" fill="#404040">
                                <set attributeName="fill" to="#808080" begin="zoomplus.mouseover" end="zoomplus.mouseout"/>
                        </use>
                        <path d="M-4,0h8M0,-4v8" fill="none" stroke="white" stroke-width="1.5" pointer-events="none"/>
                </g>
                <g id="zoomMin">
                        <use xlink:href="#rim" fill="#404040">
                                <set attributeName="fill" to="#808080" begin="zoomminus.mouseover" end="zoomminus.mouseout"/>
                        </use>
                        <path d="M-4,0h8" fill="none" stroke="white" stroke-width="1.5" pointer-events="none"/>
                </g>
                <g id="dirArrow">
                        <path fill="none" stroke="white" stroke-width="1.5" d="M0,-3.0v7 M-2.5,-0.5L0,-3.0L2.5,-0.5"/>
                </g>
               <g id="resetDef">
                       <use xlink:href="#rim2" fill="#404040">
                               <set attributeName="fill" to="#808080" begin="reset.mouseover" end="reset.mouseout"/>
                       </use>
               </g>
        </defs>

<script type="text/javascript">
var viewWidth = 1195;
var viewHeight = 443;
var sectionId = 'dynsection-17';
</script>
<script xlink:href="svgpan.js"/>
<svg id="graph" class="graph">
<g id="viewport">
<title>set_partition_::__NEG1_odd</title>
<polygon fill="#ffffff" stroke="transparent" points="-4,4 -4,-438.6348 1191,-438.6348 1191,4 -4,4"/>
<!-- Node162 -->
<g id="node1" class="node">
<title>Node162</title>
<polygon fill="#bfbfbf" stroke="#000000" points="0,-224.0066 0,-243.0066 140,-243.0066 140,-224.0066 0,-224.0066"/>
<text text-anchor="middle" x="70" y="-231.0066" font-family="Helvetica,sans-Serif" font-size="10.00" fill="#000000">set_partition_::__NEG1_odd</text>
</g>
<!-- Node163 -->
<g id="node2" class="node">
<title>Node163</title>
<g id="a_node2"><a xlink:href="classset__partition__.html#a6dc3ea3155a1012318a485d48d373d4b" target="_top" xlink:title="S(n,k,1) odd k. ">
<polygon fill="#ffffff" stroke="#000000" points="176,-271.0066 176,-290.0066 316,-290.0066 316,-271.0066 176,-271.0066"/>
<text text-anchor="middle" x="246" y="-278.0066" font-family="Helvetica,sans-Serif" font-size="10.00" fill="#000000">set_partition_::__GEN1_odd</text>
</a>
</g>
</g>
<!-- Node162&#45;&gt;Node163 -->
<g id="edge1" class="edge">
<title>Node162&#45;&gt;Node163</title>
<path fill="none" stroke="#191970" d="M130.077,-243.1114C159.3968,-250.2657 193.3302,-259.7502 216.8752,-267.5586"/>
<polygon fill="#191970" stroke="#191970" points="216.0022,-270.9595 226.5968,-270.902 218.2787,-264.34 216.0022,-270.9595"/>
</g>
<!-- Node167 -->
<g id="node6" class="node">
<title>Node167</title>
<g id="a_node6"><a xlink:href="classset__partition__.html#ae46020a9dfeb6915b6fa4565ea8074b7" target="_top" xlink:title="Move. ">
<polygon fill="#ffffff" stroke="#000000" points="352,-250.0066 352,-269.0066 468,-269.0066 468,-250.0066 352,-250.0066"/>
<text text-anchor="middle" x="410" y="-257.0066" font-family="Helvetica,sans-Serif" font-size="10.00" fill="#000000">set_partition_::__Move</text>
</a>
</g>
</g>
<!-- Node162&#45;&gt;Node167 -->
<g id="edge35" class="edge">
<title>Node162&#45;&gt;Node167</title>
<path fill="none" stroke="#191970" d="M140.036,-233.2805C199.5443,-236.2462 284.3987,-242.7628 343.0181,-248.886"/>
<polygon fill="#191970" stroke="#191970" points="342.9664,-252.4004 353.2819,-249.9838 343.7109,-245.4401 342.9664,-252.4004"/>
</g>
<!-- Node168 -->
<g id="node7" class="node">
<title>Node168</title>
<g id="a_node7"><a xlink:href="classset__partition__.html#a2c1f63ac643153a63f521f0dbbfb369f" target="_top" xlink:title="S&#39;(n,k,0) even k. ">
<polygon fill="#ffffff" stroke="#000000" points="504,-43.0066 504,-62.0066 649,-62.0066 649,-43.0066 504,-43.0066"/>
<text text-anchor="middle" x="576.5" y="-50.0066" font-family="Helvetica,sans-Serif" font-size="10.00" fill="#000000">set_partition_::__NEG0_even</text>
</a>
</g>
</g>
<!-- Node162&#45;&gt;Node168 -->
<g id="edge36" class="edge">
<title>Node162&#45;&gt;Node168</title>
<path fill="none" stroke="#191970" d="M73.087,-223.8458C82.7996,-195.2503 115.7241,-110.89 176,-76.5066 285.0826,-14.2823 439.159,-27.798 520.7529,-41.235"/>
<polygon fill="#191970" stroke="#191970" points="520.3689,-44.72 530.8153,-42.9527 521.5468,-37.8198 520.3689,-44.72"/>
</g>
<!-- Node163&#45;&gt;Node162 -->
<g id="edge34" class="edge">
<title>Node163&#45;&gt;Node162</title>
<path fill="none" stroke="#191970" d="M186.2571,-270.9832C156.777,-263.799 122.5637,-254.238 98.9218,-246.3872"/>
<polygon fill="#191970" stroke="#191970" points="99.7648,-242.9758 89.1701,-243.0274 97.4846,-249.594 99.7648,-242.9758"/>
</g>
<!-- Node164 -->
<g id="node3" class="node">
<title>Node164</title>
<g id="a_node3"><a xlink:href="classset__partition__.html#a687b778e3d61f8d08ecdcaa18797bc17" target="_top" xlink:title="S(n,k,0) even k. ">
<polygon fill="#ffffff" stroke="#000000" points="504,-325.0066 504,-344.0066 649,-344.0066 649,-325.0066 504,-325.0066"/>
<text text-anchor="middle" x="576.5" y="-332.0066" font-family="Helvetica,sans-Serif" font-size="10.00" fill="#000000">set_partition_::__GEN0_even</text>
</a>
</g>
</g>
<!-- Node163&#45;&gt;Node164 -->
<g id="edge2" class="edge">
<title>Node163&#45;&gt;Node164</title>
<path fill="none" stroke="#191970" d="M304.326,-290.0364C361.2589,-299.3386 447.866,-313.4892 508.0358,-323.3203"/>
<polygon fill="#191970" stroke="#191970" points="507.7686,-326.823 518.2022,-324.9814 508.8975,-319.9146 507.7686,-326.823"/>
</g>
<!-- Node163&#45;&gt;Node167 -->
<g id="edge33" class="edge">
<title>Node163&#45;&gt;Node167</title>
<path fill="none" stroke="#191970" d="M277.6208,-270.9995C295.8629,-267.5804 319.536,-264.147 341.8094,-261.5741"/>
<polygon fill="#191970" stroke="#191970" points="342.3656,-265.034 351.9201,-260.4556 341.5959,-258.0765 342.3656,-265.034"/>
</g>
<!-- Node165 -->
<g id="node4" class="node">
<title>Node165</title>
<g id="a_node4"><a xlink:href="classset__partition__.html#a61b36346bde2f311e912458395676b03" target="_top" xlink:title="S(n,k,0) odd k. ">
<polygon fill="#ffffff" stroke="#000000" points="685,-372.0066 685,-391.0066 825,-391.0066 825,-372.0066 685,-372.0066"/>
<text text-anchor="middle" x="755" y="-379.0066" font-family="Helvetica,sans-Serif" font-size="10.00" fill="#000000">set_partition_::__GEN0_odd</text>
</a>
</g>
</g>
<!-- Node164&#45;&gt;Node165 -->
<g id="edge3" class="edge">
<title>Node164&#45;&gt;Node165</title>
<path fill="none" stroke="#191970" d="M612.6221,-344.0177C640.3543,-351.3197 678.8463,-361.4549 708.8164,-369.3462"/>
<polygon fill="#191970" stroke="#191970" points="708.0641,-372.7673 718.6257,-371.929 709.8465,-365.998 708.0641,-372.7673"/>
</g>
<!-- Node166 -->
<g id="node5" class="node">
<title>Node166</title>
<g id="a_node5"><a xlink:href="classset__partition__.html#ae98760875254a7058477511106020d36" target="_top" xlink:title="S(n,k,1) even k. ">
<polygon fill="#ffffff" stroke="#000000" points="1042,-278.0066 1042,-297.0066 1187,-297.0066 1187,-278.0066 1042,-278.0066"/>
<text text-anchor="middle" x="1114.5" y="-285.0066" font-family="Helvetica,sans-Serif" font-size="10.00" fill="#000000">set_partition_::__GEN1_even</text>
</a>
</g>
</g>
<!-- Node164&#45;&gt;Node166 -->
<g id="edge30" class="edge">
<title>Node164&#45;&gt;Node166</title>
<path fill="none" stroke="#191970" d="M649.0109,-333.8321C734.6563,-332.2565 881.2609,-327.1135 1006,-310.5066 1026.0622,-307.8356 1047.9408,-303.4806 1066.7621,-299.2748"/>
<polygon fill="#191970" stroke="#191970" points="1067.6153,-302.6701 1076.5855,-297.0322 1066.0573,-295.8457 1067.6153,-302.6701"/>
</g>
<!-- Node164&#45;&gt;Node167 -->
<g id="edge31" class="edge">
<title>Node164&#45;&gt;Node167</title>
<path fill="none" stroke="#191970" d="M516.2974,-324.8602C512.0879,-323.1804 507.9509,-321.3864 504,-319.5066 486.8551,-311.349 484.5785,-305.7612 468,-296.5066 454.5756,-289.0126 438.8397,-281.4912 427.1482,-274.7392"/>
<polygon fill="#191970" stroke="#191970" points="428.7498,-271.6123 418.418,-269.2659 425.0315,-277.5432 428.7498,-271.6123"/>
</g>
<!-- Node170 -->
<g id="node9" class="node">
<title>Node170</title>
<g id="a_node9"><a xlink:href="classset__partition__.html#a9d82ab7c3fe00c55dcfea691be7a9beb" target="_top" xlink:title="S&#39;(n,k,1) even k. ">
<polygon fill="#ffffff" stroke="#000000" points="861,-184.0066 861,-203.0066 1006,-203.0066 1006,-184.0066 861,-184.0066"/>
<text text-anchor="middle" x="933.5" y="-191.0066" font-family="Helvetica,sans-Serif" font-size="10.00" fill="#000000">set_partition_::__NEG1_even</text>
</a>
</g>
</g>
<!-- Node164&#45;&gt;Node170 -->
<g id="edge32" class="edge">
<title>Node164&#45;&gt;Node170</title>
<path fill="none" stroke="#191970" d="M600.7574,-324.9259C662.9601,-300.3585 828.2641,-235.0703 899.7634,-206.8311"/>
<polygon fill="#191970" stroke="#191970" points="901.1941,-210.0292 909.2092,-203.1004 898.6227,-203.5186 901.1941,-210.0292"/>
</g>
<!-- Node165&#45;&gt;Node162 -->
<g id="edge29" class="edge">
<title>Node165&#45;&gt;Node162</title>
<path fill="none" stroke="#191970" d="M725.6805,-391.0767C704.6086,-397.4347 675.3801,-405.1996 649,-408.5066 585.056,-416.5224 568.0547,-415.5831 504,-408.5066 351.3125,-391.6381 312.2665,-370.4254 176,-299.5066 146.183,-283.9885 113.599,-263.0563 92.5383,-248.9613"/>
<polygon fill="#191970" stroke="#191970" points="94.2386,-245.8863 83.9918,-243.1927 90.3224,-251.6883 94.2386,-245.8863"/>
</g>
<!-- Node165&#45;&gt;Node163 -->
<g id="edge27" class="edge">
<title>Node165&#45;&gt;Node163</title>
<path fill="none" stroke="#191970" d="M701.5079,-391.0341C650.2723,-398.4296 571.0612,-405.3204 504,-391.5066 413.2653,-372.8163 315.1084,-320.7327 270.5191,-295.1143"/>
<polygon fill="#191970" stroke="#191970" points="272.2441,-292.0687 261.8393,-290.0709 268.7272,-298.1212 272.2441,-292.0687"/>
</g>
<!-- Node165&#45;&gt;Node166 -->
<g id="edge4" class="edge">
<title>Node165&#45;&gt;Node166</title>
<path fill="none" stroke="#191970" d="M825.0361,-379.4163C876.2842,-376.1932 946.89,-368.19 1006,-348.5066 1038.292,-337.7534 1071.9184,-317.1424 1093.0143,-302.8735"/>
<polygon fill="#191970" stroke="#191970" points="1095.0038,-305.7531 1101.2478,-297.1938 1091.0289,-299.9911 1095.0038,-305.7531"/>
</g>
<!-- Node165&#45;&gt;Node167 -->
<g id="edge28" class="edge">
<title>Node165&#45;&gt;Node167</title>
<path fill="none" stroke="#191970" d="M715.8452,-391.0318C664.5272,-396.6295 572.9537,-395.666 504,-362.5066 465.2567,-343.8751 433.1271,-302.5894 418.499,-278.0144"/>
<polygon fill="#191970" stroke="#191970" points="421.5279,-276.2591 413.6243,-269.2033 415.4028,-279.6479 421.5279,-276.2591"/>
</g>
<!-- Node166&#45;&gt;Node163 -->
<g id="edge5" class="edge">
<title>Node166&#45;&gt;Node163</title>
<path fill="none" stroke="#191970" d="M1106.0859,-297.1959C1089.2171,-315.8989 1049.1645,-356.7792 1006,-375.5066 800.8807,-464.4995 726.2405,-433.059 504,-408.5066 435.1936,-400.905 413.6319,-406.0282 352,-374.5066 314.302,-355.2259 279.3717,-319.3696 260.5336,-297.949"/>
<polygon fill="#191970" stroke="#191970" points="263.0887,-295.5523 253.9136,-290.2544 257.7823,-300.1176 263.0887,-295.5523"/>
</g>
<!-- Node166&#45;&gt;Node167 -->
<g id="edge6" class="edge">
<title>Node166&#45;&gt;Node167</title>
<path fill="none" stroke="#191970" d="M1041.9226,-288.9254C905.2886,-286.7916 611.6509,-275.0862 478.3387,-266.4214"/>
<polygon fill="#191970" stroke="#191970" points="478.4618,-262.922 468.2516,-265.7506 477.9973,-269.9065 478.4618,-262.922"/>
</g>
<!-- Node166&#45;&gt;Node170 -->
<g id="edge26" class="edge">
<title>Node166&#45;&gt;Node170</title>
<path fill="none" stroke="#191970" d="M1086.3375,-277.9353C1049.5582,-261.2824 986.0609,-228.103 953.7114,-208.4489"/>
<polygon fill="#191970" stroke="#191970" points="955.4303,-205.3957 945.0977,-203.0529 951.7141,-211.3278 955.4303,-205.3957"/>
</g>
<!-- Node167&#45;&gt;Node162 -->
<g id="edge25" class="edge">
<title>Node167&#45;&gt;Node162</title>
<path fill="none" stroke="#191970" d="M351.9152,-260.2951C292.2138,-257.6651 199.3733,-250.6523 136.7012,-244.0978"/>
<polygon fill="#191970" stroke="#191970" points="136.8416,-240.5929 126.5258,-243.0082 136.0962,-247.5531 136.8416,-240.5929"/>
</g>
<!-- Node167&#45;&gt;Node163 -->
<g id="edge10" class="edge">
<title>Node167&#45;&gt;Node163</title>
<path fill="none" stroke="#191970" d="M378.0325,-269.0784C363.1045,-271.8661 344.5954,-274.6595 326.2066,-276.9848"/>
<polygon fill="#191970" stroke="#191970" points="325.5296,-273.5413 316.0265,-278.2254 326.3765,-280.4899 325.5296,-273.5413"/>
</g>
<!-- Node167&#45;&gt;Node164 -->
<g id="edge7" class="edge">
<title>Node167&#45;&gt;Node164</title>
<path fill="none" stroke="#191970" d="M449.9445,-269.1279C456.0538,-272.0703 462.2397,-275.291 468,-278.5066 484.5785,-287.7612 486.8551,-293.349 504,-301.5066 520.4396,-309.3286 540.1018,-315.6643 554.7999,-321.2466"/>
<polygon fill="#191970" stroke="#191970" points="553.499,-324.4958 564.0818,-324.9999 556.1232,-318.0063 553.499,-324.4958"/>
</g>
<!-- Node167&#45;&gt;Node165 -->
<g id="edge8" class="edge">
<title>Node167&#45;&gt;Node165</title>
<path fill="none" stroke="#191970" d="M420.2919,-269.1206C435.6463,-287.779 466.7695,-326.6026 504,-344.5066 557.0674,-370.0264 623.5326,-376.4766 674.7343,-378.1412"/>
<polygon fill="#191970" stroke="#191970" points="674.671,-381.6407 684.7627,-378.4145 674.8618,-374.6433 674.671,-381.6407"/>
</g>
<!-- Node167&#45;&gt;Node166 -->
<g id="edge9" class="edge">
<title>Node167&#45;&gt;Node166</title>
<path fill="none" stroke="#191970" d="M468.2516,-257.8929C593.2448,-259.3136 887.5069,-270.8067 1031.7972,-279.6841"/>
<polygon fill="#191970" stroke="#191970" points="1031.7232,-283.1863 1041.9226,-280.3186 1032.161,-276.2 1031.7232,-283.1863"/>
</g>
<!-- Node167&#45;&gt;Node168 -->
<g id="edge11" class="edge">
<title>Node167&#45;&gt;Node168</title>
<path fill="none" stroke="#191970" d="M415.5398,-249.9892C437.9692,-217.2421 522.5898,-111.4793 559.316,-69.5639"/>
<polygon fill="#191970" stroke="#191970" points="561.9512,-71.8675 565.99,-62.0727 556.7246,-67.211 561.9512,-71.8675"/>
</g>
<!-- Node169 -->
<g id="node8" class="node">
<title>Node169</title>
<g id="a_node8"><a xlink:href="classset__partition__.html#a6e2508bffc7bc4e6ebb4407219b97607" target="_top" xlink:title="S&#39;(n,k,0) odd k. ">
<polygon fill="#ffffff" stroke="#000000" points="685,-128.0066 685,-147.0066 825,-147.0066 825,-128.0066 685,-128.0066"/>
<text text-anchor="middle" x="755" y="-135.0066" font-family="Helvetica,sans-Serif" font-size="10.00" fill="#000000">set_partition_::__NEG0_odd</text>
</a>
</g>
</g>
<!-- Node167&#45;&gt;Node169 -->
<g id="edge23" class="edge">
<title>Node167&#45;&gt;Node169</title>
<path fill="none" stroke="#191970" d="M417.5154,-249.7143C433.0984,-235.8301 470.2922,-213.2202 504,-199.5066 559.6461,-176.8676 625.0202,-158.6263 675.0984,-147.5563"/>
<polygon fill="#191970" stroke="#191970" points="675.867,-150.9711 684.9026,-145.4387 674.3891,-144.1288 675.867,-150.9711"/>
</g>
<!-- Node167&#45;&gt;Node170 -->
<g id="edge24" class="edge">
<title>Node167&#45;&gt;Node170</title>
<path fill="none" stroke="#191970" d="M454.1821,-249.9734C541.6705,-235.6509 738.1913,-210.4993 850.5404,-198.8767"/>
<polygon fill="#191970" stroke="#191970" points="851.2177,-202.3258 860.8106,-197.8284 850.5069,-195.362 851.2177,-202.3258"/>
</g>
<!-- Node168&#45;&gt;Node166 -->
<g id="edge12" class="edge">
<title>Node168&#45;&gt;Node166</title>
<path fill="none" stroke="#191970" d="M649.0284,-48.8886C699.4469,-48.429 767.6267,-51.9483 825,-69.5066 913.9292,-96.7221 932.8559,-117.0694 1006,-174.5066 1043.7207,-204.1272 1080.9579,-246.5589 1100.479,-270.0969"/>
<polygon fill="#191970" stroke="#191970" points="1097.7917,-272.3396 1106.8375,-277.8553 1103.2057,-267.9024 1097.7917,-272.3396"/>
</g>
<!-- Node168&#45;&gt;Node167 -->
<g id="edge13" class="edge">
<title>Node168&#45;&gt;Node167</title>
<path fill="none" stroke="#191970" d="M570.6703,-62.4463C547.8427,-95.6244 463.9881,-200.4195 427.3373,-242.2742"/>
<polygon fill="#191970" stroke="#191970" points="424.7031,-239.9695 420.6686,-249.7661 429.9318,-244.6237 424.7031,-239.9695"/>
</g>
<!-- Node168&#45;&gt;Node169 -->
<g id="edge14" class="edge">
<title>Node168&#45;&gt;Node169</title>
<path fill="none" stroke="#191970" d="M610.2429,-62.1134C622.64,-66.0481 636.6568,-70.9806 649,-76.5066 678.7104,-89.8077 710.8524,-109.0553 731.8577,-122.3563"/>
<polygon fill="#191970" stroke="#191970" points="730.0987,-125.3861 740.4073,-127.8321 733.8741,-119.4914 730.0987,-125.3861"/>
</g>
<!-- Node168&#45;&gt;Node170 -->
<g id="edge22" class="edge">
<title>Node168&#45;&gt;Node170</title>
<path fill="none" stroke="#191970" d="M634.4411,-62.0201C686.0837,-71.8526 762.8829,-89.8518 825,-118.5066 858.9922,-134.1872 893.8155,-160.425 914.547,-177.3425"/>
<polygon fill="#191970" stroke="#191970" points="912.3432,-180.0618 922.2745,-183.7522 916.8122,-174.674 912.3432,-180.0618"/>
</g>
<!-- Node169&#45;&gt;Node162 -->
<g id="edge21" class="edge">
<title>Node169&#45;&gt;Node162</title>
<path fill="none" stroke="#191970" d="M684.8705,-135.9968C672.9031,-135.7926 660.5953,-135.6159 649,-135.5066 584.5584,-134.8987 568.0979,-128.8326 504,-135.5066 356.577,-150.8565 186.3237,-198.2542 110.291,-221.0329"/>
<polygon fill="#191970" stroke="#191970" points="109.1933,-217.7082 100.6302,-223.947 111.2149,-224.4099 109.1933,-217.7082"/>
</g>
<!-- Node169&#45;&gt;Node163 -->
<g id="edge15" class="edge">
<title>Node169&#45;&gt;Node163</title>
<path fill="none" stroke="#191970" d="M684.8801,-137.1229C633.9009,-138.4094 563.6633,-143.4443 504,-159.5066 412.7934,-184.0608 314.1303,-239.2898 269.8606,-265.7834"/>
<polygon fill="#191970" stroke="#191970" points="268.0105,-262.8119 261.2618,-270.9793 271.6308,-268.8031 268.0105,-262.8119"/>
</g>
<!-- Node169&#45;&gt;Node167 -->
<g id="edge16" class="edge">
<title>Node169&#45;&gt;Node167</title>
<path fill="none" stroke="#191970" d="M732.9707,-147.033C688.6158,-160.452 585.7977,-184.2281 504,-217.5066 484.5557,-225.4173 463.9514,-236.2882 447.0044,-245.1863"/>
<polygon fill="#191970" stroke="#191970" points="445.2369,-242.1609 437.9963,-249.8954 448.4799,-248.3644 445.2369,-242.1609"/>
</g>
<!-- Node169&#45;&gt;Node170 -->
<g id="edge17" class="edge">
<title>Node169&#45;&gt;Node170</title>
<path fill="none" stroke="#191970" d="M785.6852,-147.1333C815.4956,-156.4856 860.9126,-170.734 893.5336,-180.9681"/>
<polygon fill="#191970" stroke="#191970" points="892.626,-184.3515 903.2152,-184.0054 894.7214,-177.6725 892.626,-184.3515"/>
</g>
<!-- Node170&#45;&gt;Node162 -->
<g id="edge20" class="edge">
<title>Node170&#45;&gt;Node162</title>
<path fill="none" stroke="#191970" d="M928.1028,-183.9184C914.294,-160.3322 875.2043,-99.2529 825,-69.5066 727.6825,-11.8453 689.6172,-14.5066 576.5,-14.5066 410,-14.5066 410,-14.5066 410,-14.5066 305.7572,-14.5066 263.2568,26.5269 176,-30.5066 110.0121,-73.6381 82.6542,-171.7367 73.6721,-213.7796"/>
<polygon fill="#191970" stroke="#191970" points="70.2319,-213.1345 71.69,-223.6285 77.0943,-214.5157 70.2319,-213.1345"/>
</g>
<!-- Node170&#45;&gt;Node166 -->
<g id="edge18" class="edge">
<title>Node170&#45;&gt;Node166</title>
<path fill="none" stroke="#191970" d="M961.7813,-203.1316C998.5216,-219.7764 1061.7784,-252.8291 1094.1388,-272.4733"/>
<polygon fill="#191970" stroke="#191970" points="1092.4298,-275.5325 1102.7635,-277.87 1096.1429,-269.5985 1092.4298,-275.5325"/>
</g>
<!-- Node170&#45;&gt;Node167 -->
<g id="edge19" class="edge">
<title>Node170&#45;&gt;Node167</title>
<path fill="none" stroke="#191970" d="M889.2387,-203.0526C797.7513,-218.0254 587.2789,-244.8141 478.2509,-255.6281"/>
<polygon fill="#191970" stroke="#191970" points="477.6376,-252.1712 468.0238,-256.6238 478.316,-259.1382 477.6376,-252.1712"/>
</g>
</g>
</svg>
        <g id="navigator" transform="translate(0 0)" fill="#404254">
                <rect fill="#f2f5e9" fill-opacity="0.5" stroke="#606060" stroke-width=".5" x="0" y="0" width="60" height="60"/>
                <use id="zoomplus" xlink:href="#zoomPlus" x="17" y="9" onmousedown="handleZoom(evt,'in')"/>
                <use id="zoomminus" xlink:href="#zoomMin" x="42" y="9" onmousedown="handleZoom(evt,'out')"/>
                <use id="reset" xlink:href="#resetDef" x="30" y="36" onmousedown="handleReset()"/>
                <g id="arrowUp" xlink:href="#dirArrow" transform="translate(30 24)" onmousedown="handlePan(0,-1)">
                  <use xlink:href="#rim" fill="#404040">
                        <set attributeName="fill" to="#808080" begin="arrowUp.mouseover" end="arrowUp.mouseout"/>
                  </use>
                  <path fill="none" stroke="white" stroke-width="1.5" d="M0,-3.0v7 M-2.5,-0.5L0,-3.0L2.5,-0.5"/>
                </g>
                <g id="arrowRight" xlink:href="#dirArrow" transform="rotate(90) translate(36 -43)" onmousedown="handlePan(1,0)">
                  <use xlink:href="#rim" fill="#404040">
                        <set attributeName="fill" to="#808080" begin="arrowRight.mouseover" end="arrowRight.mouseout"/>
                  </use>
                  <path fill="none" stroke="white" stroke-width="1.5" d="M0,-3.0v7 M-2.5,-0.5L0,-3.0L2.5,-0.5"/>
                </g>
                <g id="arrowDown" xlink:href="#dirArrow" transform="rotate(180) translate(-30 -48)" onmousedown="handlePan(0,1)">
                  <use xlink:href="#rim" fill="#404040">
                        <set attributeName="fill" to="#808080" begin="arrowDown.mouseover" end="arrowDown.mouseout"/>
                  </use>
                  <path fill="none" stroke="white" stroke-width="1.5" d="M0,-3.0v7 M-2.5,-0.5L0,-3.0L2.5,-0.5"/>
                </g>
                <g id="arrowLeft" xlink:href="#dirArrow" transform="rotate(270) translate(-36 17)" onmousedown="handlePan(-1,0)">
                  <use xlink:href="#rim" fill="#404040">
                        <set attributeName="fill" to="#808080" begin="arrowLeft.mouseover" end="arrowLeft.mouseout"/>
                  </use>
                  <path fill="none" stroke="white" stroke-width="1.5" d="M0,-3.0v7 M-2.5,-0.5L0,-3.0L2.5,-0.5"/>
                </g>
        </g>
        <svg viewBox="0 0 15 15" width="100%" height="30px" preserveAspectRatio="xMaxYMin meet">
         <g id="arrow_out" transform="scale(0.3 0.3)">
          <a xlink:href="classset__partition___a1071d4d0441e793ffcf62dee406da1b8_cgraph_org.svg" target="_base">
           <rect id="button" ry="5" rx="5" y="6" x="6" height="38" width="38"
                fill="#f2f5e9" fill-opacity="0.5" stroke="#606060" stroke-width="1.0"/>
           <path id="arrow"
             d="M 11.500037,31.436501 C 11.940474,20.09759 22.043105,11.32322 32.158766,21.979434 L 37.068811,17.246167 C 37.068811,17.246167 37.088388,32 37.088388,32 L 22.160133,31.978069 C 22.160133,31.978069 26.997745,27.140456 26.997745,27.140456 C 18.528582,18.264221 13.291696,25.230495 11.500037,31.436501 z"
             style="fill:#404040;"/>
          </a>
         </g>
        </svg>
</svg>
