<?xml version="1.0" encoding="UTF-8" standalone="no"?>
<!DOCTYPE svg PUBLIC "-//W3C//DTD SVG 1.1//EN"
 "http://www.w3.org/Graphics/SVG/1.1/DTD/svg11.dtd">
<!-- Generated by graphviz version 2.40.1 (20161225.0304)
 -->
<!-- Title: xn::Graph&lt; nodeview_t, nodemap_t, adjlist_inner_dict_factory &gt; Pages: 1 -->
<svg width="286pt" height="642pt"
 viewBox="0.00 0.00 286.00 642.00" xmlns="http://www.w3.org/2000/svg" xmlns:xlink="http://www.w3.org/1999/xlink">
<g id="graph0" class="graph" transform="scale(1 1) rotate(0) translate(4 638)">
<title>xn::Graph&lt; nodeview_t, nodemap_t, adjlist_inner_dict_factory &gt;</title>
<polygon fill="#ffffff" stroke="transparent" points="-4,4 -4,-638 282,-638 282,4 -4,4"/>
<!-- Node6 -->
<g id="node1" class="node">
<title>Node6</title>
<polygon fill="#bfbfbf" stroke="#000000" points="67,-.5 67,-156.5 177,-156.5 177,-.5 67,-.5"/>
<text text-anchor="start" x="75" y="-144.5" font-family="Helvetica,sans-Serif" font-size="10.00" fill="#000000">xn::Graph&lt; nodeview</text>
<text text-anchor="start" x="75" y="-133.5" font-family="Helvetica,sans-Serif" font-size="10.00" fill="#000000">_t, nodemap_t, adjlist</text>
<text text-anchor="middle" x="122" y="-122.5" font-family="Helvetica,sans-Serif" font-size="10.00" fill="#000000">_inner_dict_factory &gt;</text>
<polyline fill="none" stroke="#000000" points="67,-115.5 177,-115.5 "/>
<text text-anchor="start" x="75" y="-103.5" font-family="Helvetica,sans-Serif" font-size="10.00" fill="#000000">+ _node</text>
<text text-anchor="start" x="75" y="-92.5" font-family="Helvetica,sans-Serif" font-size="10.00" fill="#000000">+ _node_map</text>
<polyline fill="none" stroke="#000000" points="67,-85.5 177,-85.5 "/>
<text text-anchor="start" x="75" y="-73.5" font-family="Helvetica,sans-Serif" font-size="10.00" fill="#000000">+ Graph()</text>
<text text-anchor="start" x="75" y="-62.5" font-family="Helvetica,sans-Serif" font-size="10.00" fill="#000000">+ Graph()</text>
<text text-anchor="start" x="75" y="-51.5" font-family="Helvetica,sans-Serif" font-size="10.00" fill="#000000">+ adj()</text>
<text text-anchor="start" x="75" y="-40.5" font-family="Helvetica,sans-Serif" font-size="10.00" fill="#000000">+ get_name()</text>
<text text-anchor="start" x="75" y="-29.5" font-family="Helvetica,sans-Serif" font-size="10.00" fill="#000000">+ set_name()</text>
<text text-anchor="start" x="75" y="-18.5" font-family="Helvetica,sans-Serif" font-size="10.00" fill="#000000">+ begin()</text>
<text text-anchor="start" x="75" y="-7.5" font-family="Helvetica,sans-Serif" font-size="10.00" fill="#000000">and 13 more...</text>
</g>
<!-- Node7 -->
<g id="node2" class="node">
<title>Node7</title>
<g id="a_node2"><a xlink:href="structxn_1_1object.html" target="_top" xlink:title="Base class for undirected graphs. ">
<polygon fill="#ffffff" stroke="#000000" points="92.5,-210 92.5,-267 151.5,-267 151.5,-210 92.5,-210"/>
<text text-anchor="middle" x="122" y="-255" font-family="Helvetica,sans-Serif" font-size="10.00" fill="#000000">xn::object</text>
<polyline fill="none" stroke="#000000" points="92.5,-248 151.5,-248 "/>
<text text-anchor="middle" x="122" y="-236" font-family="Helvetica,sans-Serif" font-size="10.00" fill="#000000"> </text>
<polyline fill="none" stroke="#000000" points="92.5,-229 151.5,-229 "/>
<text text-anchor="middle" x="122" y="-217" font-family="Helvetica,sans-Serif" font-size="10.00" fill="#000000"> </text>
</a>
</g>
</g>
<!-- Node7&#45;&gt;Node6 -->
<g id="edge1" class="edge">
<title>Node7&#45;&gt;Node6</title>
<path fill="none" stroke="#191970" d="M122,-199.8779C122,-186.7916 122,-171.6671 122,-156.6306"/>
<polygon fill="none" stroke="#191970" points="118.5001,-199.8952 122,-209.8952 125.5001,-199.8952 118.5001,-199.8952"/>
</g>
<!-- Node8 -->
<g id="node3" class="node">
<title>Node8</title>
<g id="a_node3"><a xlink:href="classpy_1_1dict.html" target="_top" xlink:title="{py::dict\&lt; const char\l *, std::any \&gt;\n||+ dict()\l+ dict()\l+ operator=()\l&#45; dict()\l}">
<polygon fill="#ffffff" stroke="#000000" points="0,-310.5 0,-411.5 104,-411.5 104,-310.5 0,-310.5"/>
<text text-anchor="start" x="8" y="-399.5" font-family="Helvetica,sans-Serif" font-size="10.00" fill="#000000">py::dict&lt; const char</text>
<text text-anchor="middle" x="52" y="-388.5" font-family="Helvetica,sans-Serif" font-size="10.00" fill="#000000"> *, std::any &gt;</text>
<polyline fill="none" stroke="#000000" points="0,-381.5 104,-381.5 "/>
<text text-anchor="middle" x="52" y="-369.5" font-family="Helvetica,sans-Serif" font-size="10.00" fill="#000000"> </text>
<polyline fill="none" stroke="#000000" points="0,-362.5 104,-362.5 "/>
<text text-anchor="start" x="8" y="-350.5" font-family="Helvetica,sans-Serif" font-size="10.00" fill="#000000">+ dict()</text>
<text text-anchor="start" x="8" y="-339.5" font-family="Helvetica,sans-Serif" font-size="10.00" fill="#000000">+ dict()</text>
<text text-anchor="start" x="8" y="-328.5" font-family="Helvetica,sans-Serif" font-size="10.00" fill="#000000">+ operator=()</text>
<text text-anchor="start" x="8" y="-317.5" font-family="Helvetica,sans-Serif" font-size="10.00" fill="#000000">&#45; dict()</text>
</a>
</g>
</g>
<!-- Node8&#45;&gt;Node6 -->
<g id="edge6" class="edge">
<title>Node8&#45;&gt;Node6</title>
<path fill="none" stroke="#404040" d="M43.9382,-310.2783C40.7123,-279.0922 39.6655,-238.6128 49,-204 52.3165,-191.7024 57.1679,-179.3699 62.8191,-167.4954"/>
<polygon fill="none" stroke="#404040" points="62.8362,-167.4612 61.9484,-160.305 68.2127,-156.7331 69.1005,-163.8893 62.8362,-167.4612"/>
<text text-anchor="middle" x="66" y="-236" font-family="Helvetica,sans-Serif" font-size="10.00" fill="#000000"> +graph</text>
</g>
<!-- Node8&#45;&gt;Node7 -->
<g id="edge2" class="edge">
<title>Node8&#45;&gt;Node7</title>
<path fill="none" stroke="#191970" d="M85.8596,-301.7456C92.7393,-289.7063 99.6777,-277.5641 105.6102,-267.1821"/>
<polygon fill="none" stroke="#191970" points="82.7984,-300.0484 80.8758,-310.4673 88.8761,-303.5214 82.7984,-300.0484"/>
</g>
<!-- Node9 -->
<g id="node4" class="node">
<title>Node9</title>
<g id="a_node4"><a xlink:title="STL class. ">
<polygon fill="#ffffff" stroke="#bfbfbf" points=".5,-449.5 .5,-528.5 103.5,-528.5 103.5,-449.5 .5,-449.5"/>
<text text-anchor="start" x="8.5" y="-516.5" font-family="Helvetica,sans-Serif" font-size="10.00" fill="#000000">std::unordered_map</text>
<text text-anchor="start" x="8.5" y="-505.5" font-family="Helvetica,sans-Serif" font-size="10.00" fill="#000000">&lt; const char *, std</text>
<text text-anchor="middle" x="52" y="-494.5" font-family="Helvetica,sans-Serif" font-size="10.00" fill="#000000">::any &gt;</text>
<polyline fill="none" stroke="#bfbfbf" points=".5,-487.5 103.5,-487.5 "/>
<text text-anchor="middle" x="52" y="-475.5" font-family="Helvetica,sans-Serif" font-size="10.00" fill="#000000"> </text>
<polyline fill="none" stroke="#bfbfbf" points=".5,-468.5 103.5,-468.5 "/>
<text text-anchor="middle" x="52" y="-456.5" font-family="Helvetica,sans-Serif" font-size="10.00" fill="#000000"> </text>
</a>
</g>
</g>
<!-- Node9&#45;&gt;Node8 -->
<g id="edge3" class="edge">
<title>Node9&#45;&gt;Node8</title>
<path fill="none" stroke="#191970" d="M52,-439.1972C52,-430.1496 52,-420.7033 52,-411.6321"/>
<polygon fill="none" stroke="#191970" points="48.5001,-439.2016 52,-449.2016 55.5001,-439.2017 48.5001,-439.2016"/>
</g>
<!-- Node10 -->
<g id="node5" class="node">
<title>Node10</title>
<polygon fill="#ffffff" stroke="#bfbfbf" points="10.5,-576.5 10.5,-633.5 39.5,-633.5 39.5,-576.5 10.5,-576.5"/>
<text text-anchor="middle" x="25" y="-621.5" font-family="Helvetica,sans-Serif" font-size="10.00" fill="#000000">K</text>
<polyline fill="none" stroke="#bfbfbf" points="10.5,-614.5 39.5,-614.5 "/>
<text text-anchor="middle" x="25" y="-602.5" font-family="Helvetica,sans-Serif" font-size="10.00" fill="#000000"> </text>
<polyline fill="none" stroke="#bfbfbf" points="10.5,-595.5 39.5,-595.5 "/>
<text text-anchor="middle" x="25" y="-583.5" font-family="Helvetica,sans-Serif" font-size="10.00" fill="#000000"> </text>
</g>
<!-- Node10&#45;&gt;Node9 -->
<g id="edge4" class="edge">
<title>Node10&#45;&gt;Node9</title>
<path fill="none" stroke="#404040" d="M23.2185,-576.4099C23.23,-566.9519 23.8965,-556.4365 26,-547 26.5132,-544.6978 27.122,-542.3757 27.8067,-540.0531"/>
<polygon fill="none" stroke="#404040" points="27.8689,-539.8721 26.039,-532.897 31.7738,-528.5252 33.6037,-535.5002 27.8689,-539.8721"/>
<text text-anchor="middle" x="41.5" y="-550" font-family="Helvetica,sans-Serif" font-size="10.00" fill="#000000"> +keys</text>
</g>
<!-- Node11 -->
<g id="node6" class="node">
<title>Node11</title>
<polygon fill="#ffffff" stroke="#bfbfbf" points="64.5,-576.5 64.5,-633.5 93.5,-633.5 93.5,-576.5 64.5,-576.5"/>
<text text-anchor="middle" x="79" y="-621.5" font-family="Helvetica,sans-Serif" font-size="10.00" fill="#000000">T</text>
<polyline fill="none" stroke="#bfbfbf" points="64.5,-614.5 93.5,-614.5 "/>
<text text-anchor="middle" x="79" y="-602.5" font-family="Helvetica,sans-Serif" font-size="10.00" fill="#000000"> </text>
<polyline fill="none" stroke="#bfbfbf" points="64.5,-595.5 93.5,-595.5 "/>
<text text-anchor="middle" x="79" y="-583.5" font-family="Helvetica,sans-Serif" font-size="10.00" fill="#000000"> </text>
</g>
<!-- Node11&#45;&gt;Node9 -->
<g id="edge5" class="edge">
<title>Node11&#45;&gt;Node9</title>
<path fill="none" stroke="#404040" d="M72.3258,-576.3258C69.8194,-565.5576 66.8871,-552.9593 64.0421,-540.7364"/>
<polygon fill="none" stroke="#404040" points="63.9657,-540.4079 58.7096,-535.4709 61.2452,-528.7203 66.5013,-533.6573 63.9657,-540.4079"/>
<text text-anchor="middle" x="92.5" y="-550" font-family="Helvetica,sans-Serif" font-size="10.00" fill="#000000"> +elements</text>
</g>
<!-- Node12 -->
<g id="node7" class="node">
<title>Node12</title>
<polygon fill="#ffffff" stroke="#bfbfbf" points="170,-204.5 170,-272.5 278,-272.5 278,-204.5 170,-204.5"/>
<text text-anchor="start" x="178" y="-260.5" font-family="Helvetica,sans-Serif" font-size="10.00" fill="#000000">std::vector&lt; adjlist</text>
<text text-anchor="middle" x="224" y="-249.5" font-family="Helvetica,sans-Serif" font-size="10.00" fill="#000000">_inner_dict_factory &gt;</text>
<polyline fill="none" stroke="#bfbfbf" points="170,-242.5 278,-242.5 "/>
<text text-anchor="start" x="178" y="-230.5" font-family="Helvetica,sans-Serif" font-size="10.00" fill="#000000">+ elements</text>
<polyline fill="none" stroke="#bfbfbf" points="170,-223.5 278,-223.5 "/>
<text text-anchor="middle" x="224" y="-211.5" font-family="Helvetica,sans-Serif" font-size="10.00" fill="#000000"> </text>
</g>
<!-- Node12&#45;&gt;Node6 -->
<g id="edge7" class="edge">
<title>Node12&#45;&gt;Node6</title>
<path fill="none" stroke="#404040" d="M202.1184,-204.176C195.0281,-193.054 186.8086,-180.1606 178.391,-166.9565"/>
<polygon fill="none" stroke="#404040" points="178.3816,-166.9416 171.7833,-164.0325 171.9308,-156.8229 178.5291,-159.732 178.3816,-166.9416"/>
<text text-anchor="middle" x="202" y="-178" font-family="Helvetica,sans-Serif" font-size="10.00" fill="#000000"> +_adj</text>
</g>
</g>
</svg>
