<?xml version="1.0" encoding="UTF-8" standalone="no"?>
<!DOCTYPE svg PUBLIC "-//W3C//DTD SVG 1.1//EN"
 "http://www.w3.org/Graphics/SVG/1.1/DTD/svg11.dtd">
<!-- Generated by graphviz version 2.40.1 (20161225.0304)
 -->
<!-- Title: robin::exclude Pages: 1 -->
<svg width="843pt" height="230pt"
 viewBox="0.00 0.00 843.00 229.50" xmlns="http://www.w3.org/2000/svg" xmlns:xlink="http://www.w3.org/1999/xlink">
<g id="graph0" class="graph" transform="scale(1 1) rotate(0) translate(4 225.5)">
<title>robin::exclude</title>
<polygon fill="#ffffff" stroke="transparent" points="-4,4 -4,-225.5 839,-225.5 839,4 -4,4"/>
<!-- Node3 -->
<g id="node1" class="node">
<title>Node3</title>
<polygon fill="#bfbfbf" stroke="#000000" points="0,-38.5 0,-57.5 77,-57.5 77,-38.5 0,-38.5"/>
<text text-anchor="middle" x="38.5" y="-45.5" font-family="Helvetica,sans-Serif" font-size="10.00" fill="#000000">robin::exclude</text>
</g>
<!-- Node4 -->
<g id="node2" class="node">
<title>Node4</title>
<g id="a_node2"><a xlink:href="classFMKWayGainCalc.html#ac4e6255c0ffc3141805628779fa45e41" target="_top" xlink:title="FMKWayGainCalc::__modify_gain">
<polygon fill="#ffffff" stroke="#000000" points="113,-122.5 113,-141.5 280,-141.5 280,-122.5 113,-122.5"/>
<text text-anchor="middle" x="196.5" y="-129.5" font-family="Helvetica,sans-Serif" font-size="10.00" fill="#000000">FMKWayGainCalc::__modify_gain</text>
</a>
</g>
</g>
<!-- Node3&#45;&gt;Node4 -->
<g id="edge1" class="edge">
<title>Node3&#45;&gt;Node4</title>
<path fill="none" stroke="#191970" d="M65.5374,-62.3743C97.8413,-79.5485 150.977,-107.7979 178.5868,-122.4765"/>
<polygon fill="#191970" stroke="#191970" points="67.0973,-59.2398 56.6246,-57.6359 63.8113,-65.4206 67.0973,-59.2398"/>
</g>
<!-- Node10 -->
<g id="node8" class="node">
<title>Node10</title>
<g id="a_node8"><a xlink:href="classFMKWayGainMgr.html#a7227e27c8926ed14619981f8848e69fa" target="_top" xlink:title="FMKWayGainMgr::init">
<polygon fill="#ffffff" stroke="#000000" points="140,-38.5 140,-57.5 253,-57.5 253,-38.5 140,-38.5"/>
<text text-anchor="middle" x="196.5" y="-45.5" font-family="Helvetica,sans-Serif" font-size="10.00" fill="#000000">FMKWayGainMgr::init</text>
</a>
</g>
</g>
<!-- Node3&#45;&gt;Node10 -->
<g id="edge13" class="edge">
<title>Node3&#45;&gt;Node10</title>
<path fill="none" stroke="#191970" d="M87.1927,-48C103.81,-48 122.5361,-48 139.7321,-48"/>
<polygon fill="#191970" stroke="#191970" points="87.1512,-44.5001 77.1511,-48 87.1511,-51.5001 87.1512,-44.5001"/>
</g>
<!-- Node12 -->
<g id="node10" class="node">
<title>Node12</title>
<g id="a_node10"><a xlink:href="classFMKWayGainMgr.html#a9cedc496fb0b764727c9943ca4566fae" target="_top" xlink:title="(needed by base class) ">
<polygon fill="#ffffff" stroke="#000000" points="121,-.5 121,-19.5 272,-19.5 272,-.5 121,-.5"/>
<text text-anchor="middle" x="196.5" y="-7.5" font-family="Helvetica,sans-Serif" font-size="10.00" fill="#000000">FMKWayGainMgr::modify_key</text>
</a>
</g>
</g>
<!-- Node3&#45;&gt;Node12 -->
<g id="edge15" class="edge">
<title>Node3&#45;&gt;Node12</title>
<path fill="none" stroke="#191970" d="M85.0442,-35.9315C94.2958,-33.5886 103.9474,-31.1839 113,-29 126.1517,-25.8272 140.5043,-22.5092 153.5422,-19.5503"/>
<polygon fill="#191970" stroke="#191970" points="84.0361,-32.5764 75.2093,-38.4362 85.7638,-39.3599 84.0361,-32.5764"/>
</g>
<!-- Node5 -->
<g id="node3" class="node">
<title>Node5</title>
<g id="a_node3"><a xlink:href="classFMKWayGainCalc.html#ac6d158d36c93cd11b407dedfe3f7ab9d" target="_top" xlink:title="FMKWayGainCalc::__init\l_gain_2pin_net">
<polygon fill="#ffffff" stroke="#000000" points="341.5,-191 341.5,-221 469.5,-221 469.5,-191 341.5,-191"/>
<text text-anchor="start" x="349.5" y="-209" font-family="Helvetica,sans-Serif" font-size="10.00" fill="#000000">FMKWayGainCalc::__init</text>
<text text-anchor="middle" x="405.5" y="-198" font-family="Helvetica,sans-Serif" font-size="10.00" fill="#000000">_gain_2pin_net</text>
</a>
</g>
</g>
<!-- Node4&#45;&gt;Node5 -->
<g id="edge2" class="edge">
<title>Node4&#45;&gt;Node5</title>
<path fill="none" stroke="#191970" d="M243.5544,-145.2052C265.3351,-153.8702 291.7142,-164.705 316,-173 335.334,-179.6037 357.5118,-185.5619 374.9536,-190.9887"/>
<polygon fill="#191970" stroke="#191970" points="244.7954,-141.9323 234.2087,-141.5162 242.2252,-148.4434 244.7954,-141.9323"/>
</g>
<!-- Node8 -->
<g id="node6" class="node">
<title>Node8</title>
<g id="a_node6"><a xlink:href="classFMKWayGainCalc.html#a3d58586faf2497c85377e7d42d7b8724" target="_top" xlink:title="FMKWayGainCalc::__init\l_gain_3pin_net">
<polygon fill="#ffffff" stroke="#000000" points="341.5,-142 341.5,-172 469.5,-172 469.5,-142 341.5,-142"/>
<text text-anchor="start" x="349.5" y="-160" font-family="Helvetica,sans-Serif" font-size="10.00" fill="#000000">FMKWayGainCalc::__init</text>
<text text-anchor="middle" x="405.5" y="-149" font-family="Helvetica,sans-Serif" font-size="10.00" fill="#000000">_gain_3pin_net</text>
</a>
</g>
</g>
<!-- Node4&#45;&gt;Node8 -->
<g id="edge7" class="edge">
<title>Node4&#45;&gt;Node8</title>
<path fill="none" stroke="#191970" d="M290.1524,-136.4849C307.4935,-138.4551 325.2374,-140.7238 341.4462,-143.0591"/>
<polygon fill="#191970" stroke="#191970" points="290.3279,-132.983 280.0034,-135.361 289.5574,-139.9405 290.3279,-132.983"/>
</g>
<!-- Node9 -->
<g id="node7" class="node">
<title>Node9</title>
<g id="a_node7"><a xlink:href="classFMKWayGainCalc.html#ad10182c880296aa4182775a7099e5874" target="_top" xlink:title="FMKWayGainCalc::__init\l_gain_general_net">
<polygon fill="#ffffff" stroke="#000000" points="341.5,-93 341.5,-123 469.5,-123 469.5,-93 341.5,-93"/>
<text text-anchor="start" x="349.5" y="-111" font-family="Helvetica,sans-Serif" font-size="10.00" fill="#000000">FMKWayGainCalc::__init</text>
<text text-anchor="middle" x="405.5" y="-100" font-family="Helvetica,sans-Serif" font-size="10.00" fill="#000000">_gain_general_net</text>
</a>
</g>
</g>
<!-- Node4&#45;&gt;Node9 -->
<g id="edge10" class="edge">
<title>Node4&#45;&gt;Node9</title>
<path fill="none" stroke="#191970" d="M243.5848,-120.8455C272.3799,-116.4166 309.6095,-111.9615 341.1078,-109.1072"/>
<polygon fill="#191970" stroke="#191970" points="242.7075,-117.4411 233.3839,-122.4731 243.8105,-124.3537 242.7075,-117.4411"/>
</g>
<!-- Node5&#45;&gt;Node4 -->
<g id="edge6" class="edge">
<title>Node5&#45;&gt;Node4</title>
<path fill="none" stroke="#191970" d="M331.1774,-195.8786C326.0174,-194.317 320.9168,-192.6794 316,-191 274.2869,-176.7526 226.3983,-155.0124 206.2419,-141.5652"/>
<polygon fill="#191970" stroke="#191970" points="330.5607,-199.3443 341.1405,-198.7789 332.5173,-192.6233 330.5607,-199.3443"/>
</g>
<!-- Node6 -->
<g id="node4" class="node">
<title>Node6</title>
<g id="a_node4"><a xlink:href="classFMKWayGainCalc.html#ab7b8bf55722e1449e394ad08b1290582" target="_top" xlink:title="FMKWayGainCalc::__init_gain">
<polygon fill="#ffffff" stroke="#000000" points="531,-122.5 531,-141.5 682,-141.5 682,-122.5 531,-122.5"/>
<text text-anchor="middle" x="606.5" y="-129.5" font-family="Helvetica,sans-Serif" font-size="10.00" fill="#000000">FMKWayGainCalc::__init_gain</text>
</a>
</g>
</g>
<!-- Node5&#45;&gt;Node6 -->
<g id="edge3" class="edge">
<title>Node5&#45;&gt;Node6</title>
<path fill="none" stroke="#191970" d="M476.7946,-187.9926C482.9909,-186.0927 489.1315,-184.0876 495,-182 528.3797,-170.1258 565.6584,-152.4661 587.5443,-141.6223"/>
<polygon fill="#191970" stroke="#191970" points="475.6331,-184.6863 467.043,-190.8881 477.6256,-191.3968 475.6331,-184.6863"/>
</g>
<!-- Node6&#45;&gt;Node4 -->
<g id="edge4" class="edge">
<title>Node6&#45;&gt;Node4</title>
<path fill="none" stroke="#191970" d="M581.2133,-117.5714C559.2282,-105.9077 526.1063,-90.4111 495,-84 417.0822,-67.9409 394.1092,-68.8991 316,-84 278.0245,-91.3418 236.802,-110.6814 214.0636,-122.4501"/>
<polygon fill="#191970" stroke="#191970" points="579.7418,-120.7551 590.1993,-122.4558 583.0848,-114.605 579.7418,-120.7551"/>
</g>
<!-- Node7 -->
<g id="node5" class="node">
<title>Node7</title>
<g id="a_node5"><a xlink:href="classFMKWayGainCalc.html#a90ac9b44385bb59b4e03258ed44b17e6" target="_top" xlink:title="FMKWayGainCalc::init">
<polygon fill="#ffffff" stroke="#000000" points="718,-122.5 718,-141.5 835,-141.5 835,-122.5 718,-122.5"/>
<text text-anchor="middle" x="776.5" y="-129.5" font-family="Helvetica,sans-Serif" font-size="10.00" fill="#000000">FMKWayGainCalc::init</text>
</a>
</g>
</g>
<!-- Node6&#45;&gt;Node7 -->
<g id="edge5" class="edge">
<title>Node6&#45;&gt;Node7</title>
<path fill="none" stroke="#191970" d="M692.194,-132C700.8458,-132 709.4881,-132 717.7622,-132"/>
<polygon fill="#191970" stroke="#191970" points="692.0545,-128.5001 682.0545,-132 692.0545,-135.5001 692.0545,-128.5001"/>
</g>
<!-- Node8&#45;&gt;Node4 -->
<g id="edge9" class="edge">
<title>Node8&#45;&gt;Node4</title>
<path fill="none" stroke="#191970" d="M331.1247,-154.5977C297.5793,-151.1696 259.5054,-146.1979 232.4284,-141.5397"/>
<polygon fill="#191970" stroke="#191970" points="331.0771,-158.11 341.3728,-155.61 331.7653,-151.1439 331.0771,-158.11"/>
</g>
<!-- Node8&#45;&gt;Node6 -->
<g id="edge8" class="edge">
<title>Node8&#45;&gt;Node6</title>
<path fill="none" stroke="#191970" d="M479.8296,-147.755C496.4189,-145.6917 514.0308,-143.5011 530.6795,-141.4304"/>
<polygon fill="#191970" stroke="#191970" points="479.1418,-144.3135 469.6503,-149.0211 480.0059,-151.26 479.1418,-144.3135"/>
</g>
<!-- Node9&#45;&gt;Node4 -->
<g id="edge12" class="edge">
<title>Node9&#45;&gt;Node4</title>
<path fill="none" stroke="#191970" d="M331.2704,-123.0157C314.6689,-125.2129 296.9519,-127.2926 280.0034,-129.0385"/>
<polygon fill="#191970" stroke="#191970" points="332.0079,-126.4478 341.4462,-121.6344 331.0663,-119.5114 332.0079,-126.4478"/>
</g>
<!-- Node9&#45;&gt;Node6 -->
<g id="edge11" class="edge">
<title>Node9&#45;&gt;Node6</title>
<path fill="none" stroke="#191970" d="M479.8296,-116.8752C496.4189,-118.856 514.0308,-120.9589 530.6795,-122.9468"/>
<polygon fill="#191970" stroke="#191970" points="479.9948,-113.3701 469.6503,-115.6597 479.1648,-120.3207 479.9948,-113.3701"/>
</g>
<!-- Node11 -->
<g id="node9" class="node">
<title>Node11</title>
<g id="a_node9"><a xlink:href="classFMKWayGainMgr.html#a528af78530720b5cd17666536fb01aa3" target="_top" xlink:title="Construct a new FMKWayGainMgr object. ">
<polygon fill="#ffffff" stroke="#000000" points="316,-16.5 316,-35.5 495,-35.5 495,-16.5 316,-16.5"/>
<text text-anchor="middle" x="405.5" y="-23.5" font-family="Helvetica,sans-Serif" font-size="10.00" fill="#000000">FMKWayGainMgr::FMKWayGainMgr</text>
</a>
</g>
</g>
<!-- Node10&#45;&gt;Node11 -->
<g id="edge14" class="edge">
<title>Node10&#45;&gt;Node11</title>
<path fill="none" stroke="#191970" d="M263.2614,-40.9725C279.9869,-39.2119 298.2024,-37.2945 315.8419,-35.4377"/>
<polygon fill="#191970" stroke="#191970" points="262.637,-37.5188 253.0584,-42.0465 263.3699,-44.4803 262.637,-37.5188"/>
</g>
</g>
</svg>
