<?xml version="1.0" encoding="UTF-8" standalone="no"?>
<!DOCTYPE svg PUBLIC "-//W3C//DTD SVG 1.1//EN"
 "http://www.w3.org/Graphics/SVG/1.1/DTD/svg11.dtd">
<!-- Generated by graphviz version 2.40.1 (20161225.0304)
 -->
<!-- Title: PartMgrBase&lt; GainMgr, ConstrMgr, Derived &gt; Pages: 1 -->
<svg width="758pt" height="1264pt"
 viewBox="0.00 0.00 758.00 1264.00" xmlns="http://www.w3.org/2000/svg" xmlns:xlink="http://www.w3.org/1999/xlink">
<g id="graph0" class="graph" transform="scale(1 1) rotate(0) translate(4 1260)">
<title>PartMgrBase&lt; GainMgr, ConstrMgr, Derived &gt;</title>
<polygon fill="#ffffff" stroke="transparent" points="-4,4 -4,-1260 754,-1260 754,4 -4,4"/>
<!-- Node1 -->
<g id="node1" class="node">
<title>Node1</title>
<polygon fill="#bfbfbf" stroke="#000000" points="370,-.5 370,-134.5 492,-134.5 492,-.5 370,-.5"/>
<text text-anchor="start" x="378" y="-122.5" font-family="Helvetica,sans-Serif" font-size="10.00" fill="#000000">PartMgrBase&lt; GainMgr,</text>
<text text-anchor="middle" x="431" y="-111.5" font-family="Helvetica,sans-Serif" font-size="10.00" fill="#000000"> ConstrMgr, Derived &gt;</text>
<polyline fill="none" stroke="#000000" points="370,-104.5 492,-104.5 "/>
<text text-anchor="start" x="378" y="-92.5" font-family="Helvetica,sans-Serif" font-size="10.00" fill="#000000">+ self</text>
<text text-anchor="start" x="378" y="-81.5" font-family="Helvetica,sans-Serif" font-size="10.00" fill="#000000">+ totalcost</text>
<text text-anchor="start" x="378" y="-70.5" font-family="Helvetica,sans-Serif" font-size="10.00" fill="#000000"># K</text>
<polyline fill="none" stroke="#000000" points="370,-63.5 492,-63.5 "/>
<text text-anchor="start" x="378" y="-51.5" font-family="Helvetica,sans-Serif" font-size="10.00" fill="#000000">+ PartMgrBase()</text>
<text text-anchor="start" x="378" y="-40.5" font-family="Helvetica,sans-Serif" font-size="10.00" fill="#000000">+ init()</text>
<text text-anchor="start" x="378" y="-29.5" font-family="Helvetica,sans-Serif" font-size="10.00" fill="#000000">+ legalize()</text>
<text text-anchor="start" x="378" y="-18.5" font-family="Helvetica,sans-Serif" font-size="10.00" fill="#000000">+ optimize()</text>
<text text-anchor="start" x="378" y="-7.5" font-family="Helvetica,sans-Serif" font-size="10.00" fill="#000000">&#45; __optimize_1pass()</text>
</g>
<!-- Node2 -->
<g id="node2" class="node">
<title>Node2</title>
<polygon fill="#ffffff" stroke="#bfbfbf" points="291,-259.5 291,-316.5 353,-316.5 353,-259.5 291,-259.5"/>
<text text-anchor="middle" x="322" y="-304.5" font-family="Helvetica,sans-Serif" font-size="10.00" fill="#000000">ConstrMgr</text>
<polyline fill="none" stroke="#bfbfbf" points="291,-297.5 353,-297.5 "/>
<text text-anchor="middle" x="322" y="-285.5" font-family="Helvetica,sans-Serif" font-size="10.00" fill="#000000"> </text>
<polyline fill="none" stroke="#bfbfbf" points="291,-278.5 353,-278.5 "/>
<text text-anchor="middle" x="322" y="-266.5" font-family="Helvetica,sans-Serif" font-size="10.00" fill="#000000"> </text>
</g>
<!-- Node2&#45;&gt;Node1 -->
<g id="edge1" class="edge">
<title>Node2&#45;&gt;Node1</title>
<path fill="none" stroke="#404040" d="M331.3257,-259.0666C338.6827,-237.4168 349.7253,-207.3077 362,-182 367.8752,-169.8866 374.6306,-157.3839 381.5657,-145.2903"/>
<polygon fill="none" stroke="#404040" points="381.6447,-145.1547 381.2111,-137.9566 387.6888,-134.7879 388.1223,-141.986 381.6447,-145.1547"/>
<text text-anchor="middle" x="399" y="-156" font-family="Helvetica,sans-Serif" font-size="10.00" fill="#000000"> #validator</text>
</g>
<!-- Node3 -->
<g id="node3" class="node">
<title>Node3</title>
<g id="a_node3"><a xlink:href="structNetlist.html" target="_top" xlink:title="Netlist. ">
<polygon fill="#ffffff" stroke="#000000" points="371.5,-182.5 371.5,-393.5 490.5,-393.5 490.5,-182.5 371.5,-182.5"/>
<text text-anchor="start" x="379.5" y="-381.5" font-family="Helvetica,sans-Serif" font-size="10.00" fill="#000000">Netlist&lt; nodeview_t,</text>
<text text-anchor="middle" x="431" y="-370.5" font-family="Helvetica,sans-Serif" font-size="10.00" fill="#000000"> nodemap_t &gt;</text>
<polyline fill="none" stroke="#000000" points="371.5,-363.5 490.5,-363.5 "/>
<text text-anchor="start" x="379.5" y="-351.5" font-family="Helvetica,sans-Serif" font-size="10.00" fill="#000000">+ num_modules</text>
<text text-anchor="start" x="379.5" y="-340.5" font-family="Helvetica,sans-Serif" font-size="10.00" fill="#000000">+ num_nets</text>
<text text-anchor="start" x="379.5" y="-329.5" font-family="Helvetica,sans-Serif" font-size="10.00" fill="#000000">+ num_pads</text>
<text text-anchor="start" x="379.5" y="-318.5" font-family="Helvetica,sans-Serif" font-size="10.00" fill="#000000">+ max_degree</text>
<text text-anchor="start" x="379.5" y="-307.5" font-family="Helvetica,sans-Serif" font-size="10.00" fill="#000000">+ max_net_degree</text>
<text text-anchor="start" x="379.5" y="-296.5" font-family="Helvetica,sans-Serif" font-size="10.00" fill="#000000">+ has_fixed_modules</text>
<text text-anchor="start" x="379.5" y="-285.5" font-family="Helvetica,sans-Serif" font-size="10.00" fill="#000000">+ cost_model</text>
<text text-anchor="start" x="379.5" y="-274.5" font-family="Helvetica,sans-Serif" font-size="10.00" fill="#000000">+ parent</text>
<polyline fill="none" stroke="#000000" points="371.5,-267.5 490.5,-267.5 "/>
<text text-anchor="start" x="379.5" y="-255.5" font-family="Helvetica,sans-Serif" font-size="10.00" fill="#000000">+ Netlist()</text>
<text text-anchor="start" x="379.5" y="-244.5" font-family="Helvetica,sans-Serif" font-size="10.00" fill="#000000">+ Netlist()</text>
<text text-anchor="start" x="379.5" y="-233.5" font-family="Helvetica,sans-Serif" font-size="10.00" fill="#000000">+ number_of_modules()</text>
<text text-anchor="start" x="379.5" y="-222.5" font-family="Helvetica,sans-Serif" font-size="10.00" fill="#000000">+ number_of_nets()</text>
<text text-anchor="start" x="379.5" y="-211.5" font-family="Helvetica,sans-Serif" font-size="10.00" fill="#000000">+ number_of_nodes()</text>
<text text-anchor="start" x="379.5" y="-200.5" font-family="Helvetica,sans-Serif" font-size="10.00" fill="#000000">+ get_max_degree()</text>
<text text-anchor="start" x="379.5" y="-189.5" font-family="Helvetica,sans-Serif" font-size="10.00" fill="#000000">and 5 more...</text>
</a>
</g>
</g>
<!-- Node3&#45;&gt;Node1 -->
<g id="edge2" class="edge">
<title>Node3&#45;&gt;Node1</title>
<path fill="none" stroke="#404040" d="M431,-182.2708C431,-170.3391 431,-158.3366 431,-146.8236"/>
<polygon fill="none" stroke="#404040" points="431.0001,-146.5495 427,-140.5495 431,-134.5495 435,-140.5495 431.0001,-146.5495"/>
<text text-anchor="middle" x="439" y="-156" font-family="Helvetica,sans-Serif" font-size="10.00" fill="#000000"> #H</text>
</g>
<!-- Node4 -->
<g id="node4" class="node">
<title>Node4</title>
<g id="a_node4"><a xlink:href="classxn_1_1Graph.html" target="_top" xlink:title="{xn::Graph\&lt; nodeview\l_t, nodemap_t \&gt;\n||+ Graph()\l+ Graph()\l+ adj()\l+ get_name()\l+ set_name()\l+ begin()\land 13 more...\l}">
<polygon fill="#ffffff" stroke="#000000" points="273,-452.5 273,-586.5 383,-586.5 383,-452.5 273,-452.5"/>
<text text-anchor="start" x="281" y="-574.5" font-family="Helvetica,sans-Serif" font-size="10.00" fill="#000000">xn::Graph&lt; nodeview</text>
<text text-anchor="middle" x="328" y="-563.5" font-family="Helvetica,sans-Serif" font-size="10.00" fill="#000000">_t, nodemap_t &gt;</text>
<polyline fill="none" stroke="#000000" points="273,-556.5 383,-556.5 "/>
<text text-anchor="middle" x="328" y="-544.5" font-family="Helvetica,sans-Serif" font-size="10.00" fill="#000000"> </text>
<polyline fill="none" stroke="#000000" points="273,-537.5 383,-537.5 "/>
<text text-anchor="start" x="281" y="-525.5" font-family="Helvetica,sans-Serif" font-size="10.00" fill="#000000">+ Graph()</text>
<text text-anchor="start" x="281" y="-514.5" font-family="Helvetica,sans-Serif" font-size="10.00" fill="#000000">+ Graph()</text>
<text text-anchor="start" x="281" y="-503.5" font-family="Helvetica,sans-Serif" font-size="10.00" fill="#000000">+ adj()</text>
<text text-anchor="start" x="281" y="-492.5" font-family="Helvetica,sans-Serif" font-size="10.00" fill="#000000">+ get_name()</text>
<text text-anchor="start" x="281" y="-481.5" font-family="Helvetica,sans-Serif" font-size="10.00" fill="#000000">+ set_name()</text>
<text text-anchor="start" x="281" y="-470.5" font-family="Helvetica,sans-Serif" font-size="10.00" fill="#000000">+ begin()</text>
<text text-anchor="start" x="281" y="-459.5" font-family="Helvetica,sans-Serif" font-size="10.00" fill="#000000">and 13 more...</text>
</a>
</g>
</g>
<!-- Node4&#45;&gt;Node3 -->
<g id="edge3" class="edge">
<title>Node4&#45;&gt;Node3</title>
<path fill="none" stroke="#404040" d="M357.9302,-452.2296C364.5418,-437.3696 371.7323,-421.2085 378.9374,-405.0144"/>
<polygon fill="none" stroke="#404040" points="379.0429,-404.7772 377.8274,-397.6693 383.921,-393.8134 385.1366,-400.9213 379.0429,-404.7772"/>
<text text-anchor="middle" x="382.5" y="-420.5" font-family="Helvetica,sans-Serif" font-size="10.00" fill="#000000"> +G</text>
</g>
<!-- Node5 -->
<g id="node5" class="node">
<title>Node5</title>
<g id="a_node5"><a xlink:href="structxn_1_1object.html" target="_top" xlink:title="Base class for undirected graphs. ">
<polygon fill="#ffffff" stroke="#000000" points="287.5,-725.5 287.5,-782.5 346.5,-782.5 346.5,-725.5 287.5,-725.5"/>
<text text-anchor="middle" x="317" y="-770.5" font-family="Helvetica,sans-Serif" font-size="10.00" fill="#000000">xn::object</text>
<polyline fill="none" stroke="#000000" points="287.5,-763.5 346.5,-763.5 "/>
<text text-anchor="middle" x="317" y="-751.5" font-family="Helvetica,sans-Serif" font-size="10.00" fill="#000000"> </text>
<polyline fill="none" stroke="#000000" points="287.5,-744.5 346.5,-744.5 "/>
<text text-anchor="middle" x="317" y="-732.5" font-family="Helvetica,sans-Serif" font-size="10.00" fill="#000000"> </text>
</a>
</g>
</g>
<!-- Node5&#45;&gt;Node4 -->
<g id="edge4" class="edge">
<title>Node5&#45;&gt;Node4</title>
<path fill="none" stroke="#191970" d="M318.829,-715.0097C320.463,-680.1757 322.8925,-628.383 324.8405,-586.8553"/>
<polygon fill="none" stroke="#191970" points="315.3213,-715.0926 318.3488,-725.2457 322.3136,-715.4207 315.3213,-715.0926"/>
</g>
<!-- Node6 -->
<g id="node6" class="node">
<title>Node6</title>
<g id="a_node6"><a xlink:href="classpy_1_1dict.html" target="_top" xlink:title="{py::dict\&lt; const char\l *, std::any \&gt;\n||+ dict()\l+ dict()\l+ operator=()\l&#45; dict()\l}">
<polygon fill="#ffffff" stroke="#000000" points="315,-932.5 315,-1033.5 419,-1033.5 419,-932.5 315,-932.5"/>
<text text-anchor="start" x="323" y="-1021.5" font-family="Helvetica,sans-Serif" font-size="10.00" fill="#000000">py::dict&lt; const char</text>
<text text-anchor="middle" x="367" y="-1010.5" font-family="Helvetica,sans-Serif" font-size="10.00" fill="#000000"> *, std::any &gt;</text>
<polyline fill="none" stroke="#000000" points="315,-1003.5 419,-1003.5 "/>
<text text-anchor="middle" x="367" y="-991.5" font-family="Helvetica,sans-Serif" font-size="10.00" fill="#000000"> </text>
<polyline fill="none" stroke="#000000" points="315,-984.5 419,-984.5 "/>
<text text-anchor="start" x="323" y="-972.5" font-family="Helvetica,sans-Serif" font-size="10.00" fill="#000000">+ dict()</text>
<text text-anchor="start" x="323" y="-961.5" font-family="Helvetica,sans-Serif" font-size="10.00" fill="#000000">+ dict()</text>
<text text-anchor="start" x="323" y="-950.5" font-family="Helvetica,sans-Serif" font-size="10.00" fill="#000000">+ operator=()</text>
<text text-anchor="start" x="323" y="-939.5" font-family="Helvetica,sans-Serif" font-size="10.00" fill="#000000">&#45; dict()</text>
</a>
</g>
</g>
<!-- Node6&#45;&gt;Node4 -->
<g id="edge11" class="edge">
<title>Node6&#45;&gt;Node4</title>
<path fill="none" stroke="#404040" d="M366.1489,-932.3343C364.9103,-878.1884 361.9441,-789.8819 355,-714 351.5261,-676.0391 345.9359,-634.133 340.7408,-598.9702"/>
<polygon fill="none" stroke="#404040" points="340.7003,-598.6992 335.8561,-593.3575 338.9238,-586.8315 343.768,-592.1732 340.7003,-598.6992"/>
<text text-anchor="middle" x="378" y="-751.5" font-family="Helvetica,sans-Serif" font-size="10.00" fill="#000000"> +graph</text>
</g>
<!-- Node6&#45;&gt;Node5 -->
<g id="edge5" class="edge">
<title>Node6&#45;&gt;Node5</title>
<path fill="none" stroke="#191970" d="M353.7864,-922.4817C343.9264,-877.3228 330.8944,-817.6362 323.2814,-782.7689"/>
<polygon fill="none" stroke="#191970" points="350.4127,-923.4383 355.9654,-932.4615 357.2516,-921.945 350.4127,-923.4383"/>
</g>
<!-- Node7 -->
<g id="node7" class="node">
<title>Node7</title>
<g id="a_node7"><a xlink:title="STL class. ">
<polygon fill="#ffffff" stroke="#bfbfbf" points="315.5,-1071.5 315.5,-1150.5 418.5,-1150.5 418.5,-1071.5 315.5,-1071.5"/>
<text text-anchor="start" x="323.5" y="-1138.5" font-family="Helvetica,sans-Serif" font-size="10.00" fill="#000000">std::unordered_map</text>
<text text-anchor="start" x="323.5" y="-1127.5" font-family="Helvetica,sans-Serif" font-size="10.00" fill="#000000">&lt; const char *, std</text>
<text text-anchor="middle" x="367" y="-1116.5" font-family="Helvetica,sans-Serif" font-size="10.00" fill="#000000">::any &gt;</text>
<polyline fill="none" stroke="#bfbfbf" points="315.5,-1109.5 418.5,-1109.5 "/>
<text text-anchor="middle" x="367" y="-1097.5" font-family="Helvetica,sans-Serif" font-size="10.00" fill="#000000"> </text>
<polyline fill="none" stroke="#bfbfbf" points="315.5,-1090.5 418.5,-1090.5 "/>
<text text-anchor="middle" x="367" y="-1078.5" font-family="Helvetica,sans-Serif" font-size="10.00" fill="#000000"> </text>
</a>
</g>
</g>
<!-- Node7&#45;&gt;Node6 -->
<g id="edge6" class="edge">
<title>Node7&#45;&gt;Node6</title>
<path fill="none" stroke="#191970" d="M367,-1061.1972C367,-1052.1496 367,-1042.7033 367,-1033.6321"/>
<polygon fill="none" stroke="#191970" points="363.5001,-1061.2016 367,-1071.2016 370.5001,-1061.2017 363.5001,-1061.2016"/>
</g>
<!-- Node8 -->
<g id="node8" class="node">
<title>Node8</title>
<polygon fill="#ffffff" stroke="#bfbfbf" points="259.5,-1198.5 259.5,-1255.5 288.5,-1255.5 288.5,-1198.5 259.5,-1198.5"/>
<text text-anchor="middle" x="274" y="-1243.5" font-family="Helvetica,sans-Serif" font-size="10.00" fill="#000000">K</text>
<polyline fill="none" stroke="#bfbfbf" points="259.5,-1236.5 288.5,-1236.5 "/>
<text text-anchor="middle" x="274" y="-1224.5" font-family="Helvetica,sans-Serif" font-size="10.00" fill="#000000"> </text>
<polyline fill="none" stroke="#bfbfbf" points="259.5,-1217.5 288.5,-1217.5 "/>
<text text-anchor="middle" x="274" y="-1205.5" font-family="Helvetica,sans-Serif" font-size="10.00" fill="#000000"> </text>
</g>
<!-- Node8&#45;&gt;Node7 -->
<g id="edge7" class="edge">
<title>Node8&#45;&gt;Node7</title>
<path fill="none" stroke="#404040" d="M269.1574,-1198.4124C268.8259,-1188.5455 270.0593,-1177.7757 275,-1169 282.092,-1156.4032 293.1709,-1146.1533 305.2175,-1137.9733"/>
<polygon fill="none" stroke="#404040" points="305.3065,-1137.918 308.2905,-1131.3532 315.498,-1131.5828 312.514,-1138.1476 305.3065,-1137.918"/>
<text text-anchor="middle" x="290.5" y="-1172" font-family="Helvetica,sans-Serif" font-size="10.00" fill="#000000"> +keys</text>
</g>
<!-- Node14 -->
<g id="node14" class="node">
<title>Node14</title>
<g id="a_node14"><a xlink:title="STL class. ">
<polygon fill="#ffffff" stroke="#bfbfbf" points="156.5,-1071.5 156.5,-1150.5 269.5,-1150.5 269.5,-1071.5 156.5,-1071.5"/>
<text text-anchor="start" x="164.5" y="-1138.5" font-family="Helvetica,sans-Serif" font-size="10.00" fill="#000000">std::unordered_set</text>
<text text-anchor="start" x="164.5" y="-1127.5" font-family="Helvetica,sans-Serif" font-size="10.00" fill="#000000">&lt; typename nodeview</text>
<text text-anchor="middle" x="213" y="-1116.5" font-family="Helvetica,sans-Serif" font-size="10.00" fill="#000000">_t::value_type &gt;</text>
<polyline fill="none" stroke="#bfbfbf" points="156.5,-1109.5 269.5,-1109.5 "/>
<text text-anchor="middle" x="213" y="-1097.5" font-family="Helvetica,sans-Serif" font-size="10.00" fill="#000000"> </text>
<polyline fill="none" stroke="#bfbfbf" points="156.5,-1090.5 269.5,-1090.5 "/>
<text text-anchor="middle" x="213" y="-1078.5" font-family="Helvetica,sans-Serif" font-size="10.00" fill="#000000"> </text>
</a>
</g>
</g>
<!-- Node8&#45;&gt;Node14 -->
<g id="edge15" class="edge">
<title>Node8&#45;&gt;Node14</title>
<path fill="none" stroke="#404040" d="M259.1428,-1218.2398C246.7033,-1210.0387 229.6384,-1196.5776 221,-1180 218.2536,-1174.7296 216.2682,-1168.9313 214.8525,-1163.0038"/>
<polygon fill="none" stroke="#404040" points="214.7807,-1162.5984 209.7945,-1157.3889 212.6854,-1150.7827 217.6716,-1155.9921 214.7807,-1162.5984"/>
<text text-anchor="middle" x="236.5" y="-1172" font-family="Helvetica,sans-Serif" font-size="10.00" fill="#000000"> +keys</text>
</g>
<!-- Node16 -->
<g id="node16" class="node">
<title>Node16</title>
<g id="a_node16"><a xlink:title="STL class. ">
<polygon fill="#ffffff" stroke="#bfbfbf" points="34,-1077 34,-1145 132,-1145 132,-1077 34,-1077"/>
<text text-anchor="start" x="42" y="-1133" font-family="Helvetica,sans-Serif" font-size="10.00" fill="#000000">std::unordered_set</text>
<text text-anchor="middle" x="83" y="-1122" font-family="Helvetica,sans-Serif" font-size="10.00" fill="#000000">&lt; node_t &gt;</text>
<polyline fill="none" stroke="#bfbfbf" points="34,-1115 132,-1115 "/>
<text text-anchor="middle" x="83" y="-1103" font-family="Helvetica,sans-Serif" font-size="10.00" fill="#000000"> </text>
<polyline fill="none" stroke="#bfbfbf" points="34,-1096 132,-1096 "/>
<text text-anchor="middle" x="83" y="-1084" font-family="Helvetica,sans-Serif" font-size="10.00" fill="#000000"> </text>
</a>
</g>
</g>
<!-- Node8&#45;&gt;Node16 -->
<g id="edge19" class="edge">
<title>Node8&#45;&gt;Node16</title>
<path fill="none" stroke="#404040" d="M259.3285,-1220.2672C240.8894,-1211.6339 208.4521,-1195.874 182,-1180 167.9714,-1171.5814 153.289,-1161.878 139.6572,-1152.4572"/>
<polygon fill="none" stroke="#404040" points="139.3016,-1152.2086 132.0922,-1152.0499 129.4659,-1145.334 136.6753,-1145.4928 139.3016,-1152.2086"/>
<text text-anchor="middle" x="197.5" y="-1172" font-family="Helvetica,sans-Serif" font-size="10.00" fill="#000000"> +keys</text>
</g>
<!-- Node18 -->
<g id="node18" class="node">
<title>Node18</title>
<g id="a_node18"><a xlink:title="STL class. ">
<polygon fill="#ffffff" stroke="#bfbfbf" points="454.5,-1077 454.5,-1145 557.5,-1145 557.5,-1077 454.5,-1077"/>
<text text-anchor="start" x="462.5" y="-1133" font-family="Helvetica,sans-Serif" font-size="10.00" fill="#000000">std::unordered_map</text>
<text text-anchor="middle" x="506" y="-1122" font-family="Helvetica,sans-Serif" font-size="10.00" fill="#000000">&lt; node_t, index_t &gt;</text>
<polyline fill="none" stroke="#bfbfbf" points="454.5,-1115 557.5,-1115 "/>
<text text-anchor="middle" x="506" y="-1103" font-family="Helvetica,sans-Serif" font-size="10.00" fill="#000000"> </text>
<polyline fill="none" stroke="#bfbfbf" points="454.5,-1096 557.5,-1096 "/>
<text text-anchor="middle" x="506" y="-1084" font-family="Helvetica,sans-Serif" font-size="10.00" fill="#000000"> </text>
</a>
</g>
</g>
<!-- Node8&#45;&gt;Node18 -->
<g id="edge22" class="edge">
<title>Node8&#45;&gt;Node18</title>
<path fill="none" stroke="#404040" d="M288.574,-1210.6774C301.3512,-1197.405 321.106,-1179.2548 342,-1169 377.0558,-1151.7946 391.1861,-1164.026 428,-1151 433.0595,-1149.2098 438.2052,-1147.1537 443.3174,-1144.939"/>
<polygon fill="none" stroke="#404040" points="443.4914,-1144.8597 447.2899,-1138.7301 454.4089,-1139.8789 450.6104,-1146.0084 443.4914,-1144.8597"/>
<text text-anchor="middle" x="357.5" y="-1172" font-family="Helvetica,sans-Serif" font-size="10.00" fill="#000000"> +keys</text>
</g>
<!-- Node20 -->
<g id="node20" class="node">
<title>Node20</title>
<g id="a_node20"><a xlink:title="STL class. ">
<polygon fill="#ffffff" stroke="#bfbfbf" points="575.5,-1077 575.5,-1145 678.5,-1145 678.5,-1077 575.5,-1077"/>
<text text-anchor="start" x="583.5" y="-1133" font-family="Helvetica,sans-Serif" font-size="10.00" fill="#000000">std::unordered_map</text>
<text text-anchor="middle" x="627" y="-1122" font-family="Helvetica,sans-Serif" font-size="10.00" fill="#000000">&lt; index_t, node_t &gt;</text>
<polyline fill="none" stroke="#bfbfbf" points="575.5,-1115 678.5,-1115 "/>
<text text-anchor="middle" x="627" y="-1103" font-family="Helvetica,sans-Serif" font-size="10.00" fill="#000000"> </text>
<polyline fill="none" stroke="#bfbfbf" points="575.5,-1096 678.5,-1096 "/>
<text text-anchor="middle" x="627" y="-1084" font-family="Helvetica,sans-Serif" font-size="10.00" fill="#000000"> </text>
</a>
</g>
</g>
<!-- Node8&#45;&gt;Node20 -->
<g id="edge26" class="edge">
<title>Node8&#45;&gt;Node20</title>
<path fill="none" stroke="#404040" d="M288.5003,-1222.6633C331.033,-1209.9554 453.6294,-1173.4198 472,-1169 513.7812,-1158.9477 527.2148,-1167.2437 567,-1151 567.5216,-1150.7871 568.0433,-1150.5692 568.5652,-1150.3468"/>
<polygon fill="none" stroke="#404040" points="568.6666,-1150.2978 572.3276,-1144.0851 579.4705,-1145.075 575.8095,-1151.2877 568.6666,-1150.2978"/>
<text text-anchor="middle" x="487.5" y="-1172" font-family="Helvetica,sans-Serif" font-size="10.00" fill="#000000"> +keys</text>
</g>
<!-- Node9 -->
<g id="node9" class="node">
<title>Node9</title>
<polygon fill="#ffffff" stroke="#bfbfbf" points="493.5,-1198.5 493.5,-1255.5 522.5,-1255.5 522.5,-1198.5 493.5,-1198.5"/>
<text text-anchor="middle" x="508" y="-1243.5" font-family="Helvetica,sans-Serif" font-size="10.00" fill="#000000">T</text>
<polyline fill="none" stroke="#bfbfbf" points="493.5,-1236.5 522.5,-1236.5 "/>
<text text-anchor="middle" x="508" y="-1224.5" font-family="Helvetica,sans-Serif" font-size="10.00" fill="#000000"> </text>
<polyline fill="none" stroke="#bfbfbf" points="493.5,-1217.5 522.5,-1217.5 "/>
<text text-anchor="middle" x="508" y="-1205.5" font-family="Helvetica,sans-Serif" font-size="10.00" fill="#000000"> </text>
</g>
<!-- Node9&#45;&gt;Node7 -->
<g id="edge8" class="edge">
<title>Node9&#45;&gt;Node7</title>
<path fill="none" stroke="#404040" d="M493.1474,-1225.8455C466.8239,-1222.9734 412.0301,-1213.1322 383,-1180 378.5429,-1174.9131 375.2624,-1168.827 372.8587,-1162.406"/>
<polygon fill="none" stroke="#404040" points="372.7831,-1162.1472 367.2595,-1157.5115 369.4142,-1150.6298 374.9378,-1155.2655 372.7831,-1162.1472"/>
<text text-anchor="middle" x="407.5" y="-1172" font-family="Helvetica,sans-Serif" font-size="10.00" fill="#000000"> +elements</text>
</g>
<!-- Node9&#45;&gt;Node18 -->
<g id="edge23" class="edge">
<title>Node9&#45;&gt;Node18</title>
<path fill="none" stroke="#404040" d="M507.5056,-1198.3258C507.2931,-1185.9977 507.0392,-1171.2709 506.8009,-1157.4549"/>
<polygon fill="none" stroke="#404040" points="506.7952,-1157.116 502.6923,-1151.1859 506.5882,-1145.1178 510.6911,-1151.0479 506.7952,-1157.116"/>
<text text-anchor="middle" x="531.5" y="-1172" font-family="Helvetica,sans-Serif" font-size="10.00" fill="#000000"> +elements</text>
</g>
<!-- Node9&#45;&gt;Node20 -->
<g id="edge27" class="edge">
<title>Node9&#45;&gt;Node20</title>
<path fill="none" stroke="#404040" d="M522.8027,-1214.0815C533.3376,-1204.7767 547.74,-1191.8293 560,-1180 568.6515,-1171.6524 577.7364,-1162.5423 586.3265,-1153.759"/>
<polygon fill="none" stroke="#404040" points="586.3541,-1153.7306 587.6671,-1146.64 594.7172,-1145.1249 593.4042,-1152.2155 586.3541,-1153.7306"/>
<text text-anchor="middle" x="593.5" y="-1172" font-family="Helvetica,sans-Serif" font-size="10.00" fill="#000000"> +elements</text>
</g>
<!-- Node10 -->
<g id="node10" class="node">
<title>Node10</title>
<polygon fill="#ffffff" stroke="#bfbfbf" points="64,-725.5 64,-782.5 130,-782.5 130,-725.5 64,-725.5"/>
<text text-anchor="middle" x="97" y="-770.5" font-family="Helvetica,sans-Serif" font-size="10.00" fill="#000000">nodeview_t</text>
<polyline fill="none" stroke="#bfbfbf" points="64,-763.5 130,-763.5 "/>
<text text-anchor="middle" x="97" y="-751.5" font-family="Helvetica,sans-Serif" font-size="10.00" fill="#000000"> </text>
<polyline fill="none" stroke="#bfbfbf" points="64,-744.5 130,-744.5 "/>
<text text-anchor="middle" x="97" y="-732.5" font-family="Helvetica,sans-Serif" font-size="10.00" fill="#000000"> </text>
</g>
<!-- Node10&#45;&gt;Node3 -->
<g id="edge16" class="edge">
<title>Node10&#45;&gt;Node3</title>
<path fill="none" stroke="#404040" d="M103.5178,-725.4551C110.8526,-695.0619 123.8766,-645.8165 140,-605 168.0422,-534.0112 161.6926,-503.5292 218,-452 268.8996,-405.4197 308.7135,-437.8297 362,-394 362.1007,-393.9172 362.2013,-393.8342 362.3018,-393.751"/>
<polygon fill="none" stroke="#404040" points="362.4834,-393.5862 364.2374,-386.5916 371.3686,-385.5205 369.6145,-392.5151 362.4834,-393.5862"/>
<text text-anchor="middle" x="241" y="-522.5" font-family="Helvetica,sans-Serif" font-size="10.00" fill="#000000"> +modules</text>
<text text-anchor="middle" x="241" y="-511.5" font-family="Helvetica,sans-Serif" font-size="10.00" fill="#000000">+nets</text>
</g>
<!-- Node10&#45;&gt;Node4 -->
<g id="edge9" class="edge">
<title>Node10&#45;&gt;Node4</title>
<path fill="none" stroke="#404040" d="M118.7066,-725.2849C125.6077,-716.0067 133.209,-705.629 140,-696 168.0625,-656.2098 166.605,-639.4638 201,-605 219.1525,-586.8112 241.7073,-570.1663 262.7505,-556.4934"/>
<polygon fill="none" stroke="#404040" points="262.8037,-556.4596 265.7241,-549.8663 272.9334,-550.0262 270.013,-556.6195 262.8037,-556.4596"/>
<text text-anchor="middle" x="219" y="-648" font-family="Helvetica,sans-Serif" font-size="10.00" fill="#000000"> +_node</text>
</g>
<!-- Node11 -->
<g id="node11" class="node">
<title>Node11</title>
<polygon fill="#ffffff" stroke="#bfbfbf" points="435.5,-725.5 435.5,-782.5 500.5,-782.5 500.5,-725.5 435.5,-725.5"/>
<text text-anchor="middle" x="468" y="-770.5" font-family="Helvetica,sans-Serif" font-size="10.00" fill="#000000">nodemap_t</text>
<polyline fill="none" stroke="#bfbfbf" points="435.5,-763.5 500.5,-763.5 "/>
<text text-anchor="middle" x="468" y="-751.5" font-family="Helvetica,sans-Serif" font-size="10.00" fill="#000000"> </text>
<polyline fill="none" stroke="#bfbfbf" points="435.5,-744.5 500.5,-744.5 "/>
<text text-anchor="middle" x="468" y="-732.5" font-family="Helvetica,sans-Serif" font-size="10.00" fill="#000000"> </text>
</g>
<!-- Node11&#45;&gt;Node3 -->
<g id="edge28" class="edge">
<title>Node11&#45;&gt;Node3</title>
<path fill="none" stroke="#404040" d="M462.3671,-725.3201C456.3347,-695.2324 446.2404,-646.6205 436,-605 434.0163,-596.9375 432.1214,-595.2268 431,-587 422.9178,-527.7061 422.1147,-461.1814 423.6738,-405.9622"/>
<polygon fill="none" stroke="#404040" points="423.6843,-405.6294 419.8772,-399.5052 424.066,-393.6355 427.8731,-399.7597 423.6843,-405.6294"/>
<text text-anchor="middle" x="463.5" y="-517" font-family="Helvetica,sans-Serif" font-size="10.00" fill="#000000"> +module_map</text>
</g>
<!-- Node11&#45;&gt;Node4 -->
<g id="edge10" class="edge">
<title>Node11&#45;&gt;Node4</title>
<path fill="none" stroke="#404040" d="M437.2156,-725.4016C432.011,-721.2822 426.5048,-717.3208 421,-714 402.5556,-702.8733 390.1862,-712.2096 376,-696 348.5266,-664.608 363.9667,-645.2489 353,-605 352.3902,-602.7618 351.7659,-600.4924 351.1311,-598.203"/>
<polygon fill="none" stroke="#404040" points="351.1294,-598.1964 345.6567,-593.5006 347.8864,-586.6429 353.3591,-591.3387 351.1294,-598.1964"/>
<text text-anchor="middle" x="406" y="-648" font-family="Helvetica,sans-Serif" font-size="10.00" fill="#000000"> +_node_map</text>
</g>
<!-- Node12 -->
<g id="node12" class="node">
<title>Node12</title>
<polygon fill="#ffffff" stroke="#bfbfbf" points="148.5,-714.5 148.5,-793.5 269.5,-793.5 269.5,-714.5 148.5,-714.5"/>
<text text-anchor="start" x="156.5" y="-781.5" font-family="Helvetica,sans-Serif" font-size="10.00" fill="#000000">std::vector&lt; py::set</text>
<text text-anchor="start" x="156.5" y="-770.5" font-family="Helvetica,sans-Serif" font-size="10.00" fill="#000000">&lt; typename nodeview_t</text>
<text text-anchor="middle" x="209" y="-759.5" font-family="Helvetica,sans-Serif" font-size="10.00" fill="#000000">::value_type &gt; &gt;</text>
<polyline fill="none" stroke="#bfbfbf" points="148.5,-752.5 269.5,-752.5 "/>
<text text-anchor="middle" x="209" y="-740.5" font-family="Helvetica,sans-Serif" font-size="10.00" fill="#000000"> </text>
<polyline fill="none" stroke="#bfbfbf" points="148.5,-733.5 269.5,-733.5 "/>
<text text-anchor="middle" x="209" y="-721.5" font-family="Helvetica,sans-Serif" font-size="10.00" fill="#000000"> </text>
</g>
<!-- Node12&#45;&gt;Node4 -->
<g id="edge12" class="edge">
<title>Node12&#45;&gt;Node4</title>
<path fill="none" stroke="#404040" d="M229.0522,-714.4854C245.218,-682.6293 268.4546,-636.8395 288.348,-597.6377"/>
<polygon fill="none" stroke="#404040" points="288.4313,-597.4735 287.5795,-590.3129 293.8617,-586.7725 294.7135,-593.9331 288.4313,-597.4735"/>
<text text-anchor="middle" x="297" y="-648" font-family="Helvetica,sans-Serif" font-size="10.00" fill="#000000"> +_adj</text>
</g>
<!-- Node13 -->
<g id="node13" class="node">
<title>Node13</title>
<g id="a_node13"><a xlink:href="classpy_1_1set.html" target="_top" xlink:title="{py::set\&lt; typename nodeview\l_t::value_type \&gt;\n||+ set()\l+ set()\l+ operator=()\l&#45; set()\l}">
<polygon fill="#ffffff" stroke="#000000" points="138.5,-932.5 138.5,-1033.5 281.5,-1033.5 281.5,-932.5 138.5,-932.5"/>
<text text-anchor="start" x="146.5" y="-1021.5" font-family="Helvetica,sans-Serif" font-size="10.00" fill="#000000">py::set&lt; typename nodeview</text>
<text text-anchor="middle" x="210" y="-1010.5" font-family="Helvetica,sans-Serif" font-size="10.00" fill="#000000">_t::value_type &gt;</text>
<polyline fill="none" stroke="#000000" points="138.5,-1003.5 281.5,-1003.5 "/>
<text text-anchor="middle" x="210" y="-991.5" font-family="Helvetica,sans-Serif" font-size="10.00" fill="#000000"> </text>
<polyline fill="none" stroke="#000000" points="138.5,-984.5 281.5,-984.5 "/>
<text text-anchor="start" x="146.5" y="-972.5" font-family="Helvetica,sans-Serif" font-size="10.00" fill="#000000">+ set()</text>
<text text-anchor="start" x="146.5" y="-961.5" font-family="Helvetica,sans-Serif" font-size="10.00" fill="#000000">+ set()</text>
<text text-anchor="start" x="146.5" y="-950.5" font-family="Helvetica,sans-Serif" font-size="10.00" fill="#000000">+ operator=()</text>
<text text-anchor="start" x="146.5" y="-939.5" font-family="Helvetica,sans-Serif" font-size="10.00" fill="#000000">&#45; set()</text>
</a>
</g>
</g>
<!-- Node13&#45;&gt;Node12 -->
<g id="edge13" class="edge">
<title>Node13&#45;&gt;Node12</title>
<path fill="none" stroke="#404040" d="M209.7793,-932.4615C209.6155,-894.9484 209.3928,-843.949 209.2274,-806.0745"/>
<polygon fill="none" stroke="#404040" points="209.2262,-805.7716 205.2,-799.7892 209.1737,-793.7717 213.1999,-799.7542 209.2262,-805.7716"/>
<text text-anchor="middle" x="234.5" y="-860.5" font-family="Helvetica,sans-Serif" font-size="10.00" fill="#000000"> +elements</text>
</g>
<!-- Node14&#45;&gt;Node13 -->
<g id="edge14" class="edge">
<title>Node14&#45;&gt;Node13</title>
<path fill="none" stroke="#191970" d="M211.8327,-1061.1972C211.6207,-1052.1496 211.3993,-1042.7033 211.1867,-1033.6321"/>
<polygon fill="none" stroke="#191970" points="208.3338,-1061.2864 212.0672,-1071.2016 215.3319,-1061.1223 208.3338,-1061.2864"/>
</g>
<!-- Node15 -->
<g id="node15" class="node">
<title>Node15</title>
<g id="a_node15"><a xlink:href="classpy_1_1set.html" target="_top" xlink:title="{py::set\&lt; node_t \&gt;\n||+ set()\l+ set()\l+ operator=()\l&#45; set()\l}">
<polygon fill="#ffffff" stroke="#000000" points="0,-818 0,-908 94,-908 94,-818 0,-818"/>
<text text-anchor="middle" x="47" y="-896" font-family="Helvetica,sans-Serif" font-size="10.00" fill="#000000">py::set&lt; node_t &gt;</text>
<polyline fill="none" stroke="#000000" points="0,-889 94,-889 "/>
<text text-anchor="middle" x="47" y="-877" font-family="Helvetica,sans-Serif" font-size="10.00" fill="#000000"> </text>
<polyline fill="none" stroke="#000000" points="0,-870 94,-870 "/>
<text text-anchor="start" x="8" y="-858" font-family="Helvetica,sans-Serif" font-size="10.00" fill="#000000">+ set()</text>
<text text-anchor="start" x="8" y="-847" font-family="Helvetica,sans-Serif" font-size="10.00" fill="#000000">+ set()</text>
<text text-anchor="start" x="8" y="-836" font-family="Helvetica,sans-Serif" font-size="10.00" fill="#000000">+ operator=()</text>
<text text-anchor="start" x="8" y="-825" font-family="Helvetica,sans-Serif" font-size="10.00" fill="#000000">&#45; set()</text>
</a>
</g>
</g>
<!-- Node15&#45;&gt;Node3 -->
<g id="edge17" class="edge">
<title>Node15&#45;&gt;Node3</title>
<path fill="none" stroke="#404040" d="M37.5475,-817.5694C28.5325,-765.112 19.2528,-676.8262 41,-605 64.6828,-526.7809 79.7182,-503.7158 143,-452 179.427,-422.2308 195.6304,-424.4393 241,-412 290.0549,-398.5503 313.1835,-420.2199 361.0757,-393.4304"/>
<polygon fill="none" stroke="#404040" points="361.0948,-393.4188 364.1382,-386.8813 371.3433,-387.1762 368.2999,-393.7137 361.0948,-393.4188"/>
<text text-anchor="middle" x="74.5" y="-648" font-family="Helvetica,sans-Serif" font-size="10.00" fill="#000000"> +module_fixed</text>
</g>
<!-- Node16&#45;&gt;Node15 -->
<g id="edge18" class="edge">
<title>Node16&#45;&gt;Node15</title>
<path fill="none" stroke="#191970" d="M76.582,-1066.7874C70.0905,-1022.0681 60.1058,-953.2845 53.5629,-908.211"/>
<polygon fill="none" stroke="#191970" points="73.1318,-1067.3836 78.0322,-1076.777 80.0592,-1066.3779 73.1318,-1067.3836"/>
</g>
<!-- Node17 -->
<g id="node17" class="node">
<title>Node17</title>
<g id="a_node17"><a xlink:href="classpy_1_1dict.html" target="_top" xlink:title="{py::dict\&lt; node_t, index_t \&gt;\n||+ dict()\l+ dict()\l+ operator=()\l&#45; dict()\l}">
<polygon fill="#ffffff" stroke="#000000" points="465,-605.5 465,-695.5 599,-695.5 599,-605.5 465,-605.5"/>
<text text-anchor="middle" x="532" y="-683.5" font-family="Helvetica,sans-Serif" font-size="10.00" fill="#000000">py::dict&lt; node_t, index_t &gt;</text>
<polyline fill="none" stroke="#000000" points="465,-676.5 599,-676.5 "/>
<text text-anchor="middle" x="532" y="-664.5" font-family="Helvetica,sans-Serif" font-size="10.00" fill="#000000"> </text>
<polyline fill="none" stroke="#000000" points="465,-657.5 599,-657.5 "/>
<text text-anchor="start" x="473" y="-645.5" font-family="Helvetica,sans-Serif" font-size="10.00" fill="#000000">+ dict()</text>
<text text-anchor="start" x="473" y="-634.5" font-family="Helvetica,sans-Serif" font-size="10.00" fill="#000000">+ dict()</text>
<text text-anchor="start" x="473" y="-623.5" font-family="Helvetica,sans-Serif" font-size="10.00" fill="#000000">+ operator=()</text>
<text text-anchor="start" x="473" y="-612.5" font-family="Helvetica,sans-Serif" font-size="10.00" fill="#000000">&#45; dict()</text>
</a>
</g>
</g>
<!-- Node17&#45;&gt;Node3 -->
<g id="edge20" class="edge">
<title>Node17&#45;&gt;Node3</title>
<path fill="none" stroke="#404040" d="M527.8158,-605.2891C523.3232,-564.6147 514.7583,-503.5093 500,-452 495.5841,-436.5877 490.1226,-420.6837 484.2209,-405.1209"/>
<polygon fill="none" stroke="#404040" points="484.1931,-405.0491 478.2944,-400.9013 479.8544,-393.8609 485.7532,-398.0088 484.1931,-405.0491"/>
<text text-anchor="middle" x="560" y="-517" font-family="Helvetica,sans-Serif" font-size="10.00" fill="#000000"> +node_up_map</text>
</g>
<!-- Node18&#45;&gt;Node17 -->
<g id="edge21" class="edge">
<title>Node18&#45;&gt;Node17</title>
<path fill="none" stroke="#191970" d="M508.5066,-1066.6045C513.4626,-978.8267 524.4654,-783.9491 529.4536,-695.6009"/>
<polygon fill="none" stroke="#191970" points="505.0023,-1066.5824 507.933,-1076.7639 511.9912,-1066.9771 505.0023,-1066.5824"/>
</g>
<!-- Node19 -->
<g id="node19" class="node">
<title>Node19</title>
<g id="a_node19"><a xlink:href="classpy_1_1dict.html" target="_top" xlink:title="{py::dict\&lt; index_t,\l node_t \&gt;\n||+ dict()\l+ dict()\l+ operator=()\l&#45; dict()\l}">
<polygon fill="#ffffff" stroke="#000000" points="584,-812.5 584,-913.5 676,-913.5 676,-812.5 584,-812.5"/>
<text text-anchor="start" x="592" y="-901.5" font-family="Helvetica,sans-Serif" font-size="10.00" fill="#000000">py::dict&lt; index_t,</text>
<text text-anchor="middle" x="630" y="-890.5" font-family="Helvetica,sans-Serif" font-size="10.00" fill="#000000"> node_t &gt;</text>
<polyline fill="none" stroke="#000000" points="584,-883.5 676,-883.5 "/>
<text text-anchor="middle" x="630" y="-871.5" font-family="Helvetica,sans-Serif" font-size="10.00" fill="#000000"> </text>
<polyline fill="none" stroke="#000000" points="584,-864.5 676,-864.5 "/>
<text text-anchor="start" x="592" y="-852.5" font-family="Helvetica,sans-Serif" font-size="10.00" fill="#000000">+ dict()</text>
<text text-anchor="start" x="592" y="-841.5" font-family="Helvetica,sans-Serif" font-size="10.00" fill="#000000">+ dict()</text>
<text text-anchor="start" x="592" y="-830.5" font-family="Helvetica,sans-Serif" font-size="10.00" fill="#000000">+ operator=()</text>
<text text-anchor="start" x="592" y="-819.5" font-family="Helvetica,sans-Serif" font-size="10.00" fill="#000000">&#45; dict()</text>
</a>
</g>
</g>
<!-- Node19&#45;&gt;Node3 -->
<g id="edge24" class="edge">
<title>Node19&#45;&gt;Node3</title>
<path fill="none" stroke="#404040" d="M640.2343,-812.2759C653.9915,-729.8168 669.2904,-564.5994 599,-452 571.9959,-408.7418 536.8977,-429.2002 500,-394 499.7021,-393.7158 499.4049,-393.4301 499.1083,-393.1429"/>
<polygon fill="none" stroke="#404040" points="499.0342,-393.0661 491.9893,-391.5265 490.7009,-384.4314 497.7458,-385.971 499.0342,-393.0661"/>
<text text-anchor="middle" x="696.5" y="-653.5" font-family="Helvetica,sans-Serif" font-size="10.00" fill="#000000"> +cluster_down_map</text>
<text text-anchor="middle" x="696.5" y="-642.5" font-family="Helvetica,sans-Serif" font-size="10.00" fill="#000000">+node_down_map</text>
</g>
<!-- Node20&#45;&gt;Node19 -->
<g id="edge25" class="edge">
<title>Node20&#45;&gt;Node19</title>
<path fill="none" stroke="#191970" d="M627.5368,-1066.623C628.0566,-1023.6548 628.8438,-958.5823 629.3877,-913.6176"/>
<polygon fill="none" stroke="#191970" points="624.0353,-1066.7354 627.414,-1076.777 631.0348,-1066.8201 624.0353,-1066.7354"/>
</g>
<!-- Node21 -->
<g id="node21" class="node">
<title>Node21</title>
<polygon fill="#ffffff" stroke="#bfbfbf" points="658,-491 658,-548 750,-548 750,-491 658,-491"/>
<text text-anchor="middle" x="704" y="-536" font-family="Helvetica,sans-Serif" font-size="10.00" fill="#000000">std::vector&lt; int &gt;</text>
<polyline fill="none" stroke="#bfbfbf" points="658,-529 750,-529 "/>
<text text-anchor="start" x="666" y="-517" font-family="Helvetica,sans-Serif" font-size="10.00" fill="#000000">+ elements</text>
<polyline fill="none" stroke="#bfbfbf" points="658,-510 750,-510 "/>
<text text-anchor="middle" x="704" y="-498" font-family="Helvetica,sans-Serif" font-size="10.00" fill="#000000"> </text>
</g>
<!-- Node21&#45;&gt;Node3 -->
<g id="edge29" class="edge">
<title>Node21&#45;&gt;Node3</title>
<path fill="none" stroke="#404040" d="M696.0142,-490.6628C687.4631,-465.5609 671.2946,-430.3957 644,-412 593.5447,-377.9947 558.7949,-422.5726 501.2201,-393.3664"/>
<polygon fill="none" stroke="#404040" points="501.0048,-393.2431 493.8101,-393.7291 490.5943,-387.2748 497.789,-386.7887 501.0048,-393.2431"/>
<text text-anchor="middle" x="702.5" y="-426" font-family="Helvetica,sans-Serif" font-size="10.00" fill="#000000"> +module_weight</text>
<text text-anchor="middle" x="702.5" y="-415" font-family="Helvetica,sans-Serif" font-size="10.00" fill="#000000">+net_weight</text>
</g>
<!-- Node22 -->
<g id="node22" class="node">
<title>Node22</title>
<polygon fill="#ffffff" stroke="#bfbfbf" points="508.5,-259.5 508.5,-316.5 561.5,-316.5 561.5,-259.5 508.5,-259.5"/>
<text text-anchor="middle" x="535" y="-304.5" font-family="Helvetica,sans-Serif" font-size="10.00" fill="#000000">GainMgr</text>
<polyline fill="none" stroke="#bfbfbf" points="508.5,-297.5 561.5,-297.5 "/>
<text text-anchor="middle" x="535" y="-285.5" font-family="Helvetica,sans-Serif" font-size="10.00" fill="#000000"> </text>
<polyline fill="none" stroke="#bfbfbf" points="508.5,-278.5 561.5,-278.5 "/>
<text text-anchor="middle" x="535" y="-266.5" font-family="Helvetica,sans-Serif" font-size="10.00" fill="#000000"> </text>
</g>
<!-- Node22&#45;&gt;Node1 -->
<g id="edge30" class="edge">
<title>Node22&#45;&gt;Node1</title>
<path fill="none" stroke="#404040" d="M527.4536,-259.4476C521.2677,-237.7285 511.6497,-207.3594 500,-182 494.38,-169.7661 487.7641,-157.1976 480.8922,-145.0741"/>
<polygon fill="none" stroke="#404040" points="480.8154,-144.9413 474.3484,-141.7509 474.806,-134.5543 481.273,-137.7447 480.8154,-144.9413"/>
<text text-anchor="middle" x="511.5" y="-156" font-family="Helvetica,sans-Serif" font-size="10.00" fill="#000000"> #gainMgr</text>
</g>
</g>
</svg>
