<?xml version="1.0" encoding="UTF-8" standalone="no"?>
<!DOCTYPE svg PUBLIC "-//W3C//DTD SVG 1.1//EN"
 "http://www.w3.org/Graphics/SVG/1.1/DTD/svg11.dtd">
<!-- Generated by graphviz version 2.40.1 (20161225.0304)
 -->
<!-- Title: FMBiGainCalc::__init_gain_2pin_net Pages: 1 -->
<!--zoomable 148 -->
<svg id="main" version="1.1" xmlns="http://www.w3.org/2000/svg" xmlns:xlink="http://www.w3.org/1999/xlink" xml:space="preserve" onload="init(evt)">
<style type="text/css"><![CDATA[
.edge:hover path { stroke: red; }
.edge:hover polygon { stroke: red; fill: red; }
]]></style>
<script type="text/javascript"><![CDATA[
var edges = document.getElementsByTagName('g');
if (edges && edges.length) {
  for (var i=0;i<edges.length;i++) {
    if (edges[i].id.substr(0,4)=='edge') {
      edges[i].setAttribute('class','edge');
    }
  }
}
]]></script>
        <defs>
                <circle id="rim" cx="0" cy="0" r="7"/>
                <circle id="rim2" cx="0" cy="0" r="3.5"/>
                <g id="zoomPlus">
                        <use xlink:href="#rim" fill="#404040">
                                <set attributeName="fill" to="#808080" begin="zoomplus.mouseover" end="zoomplus.mouseout"/>
                        </use>
                        <path d="M-4,0h8M0,-4v8" fill="none" stroke="white" stroke-width="1.5" pointer-events="none"/>
                </g>
                <g id="zoomMin">
                        <use xlink:href="#rim" fill="#404040">
                                <set attributeName="fill" to="#808080" begin="zoomminus.mouseover" end="zoomminus.mouseout"/>
                        </use>
                        <path d="M-4,0h8" fill="none" stroke="white" stroke-width="1.5" pointer-events="none"/>
                </g>
                <g id="dirArrow">
                        <path fill="none" stroke="white" stroke-width="1.5" d="M0,-3.0v7 M-2.5,-0.5L0,-3.0L2.5,-0.5"/>
                </g>
               <g id="resetDef">
                       <use xlink:href="#rim2" fill="#404040">
                               <set attributeName="fill" to="#808080" begin="reset.mouseover" end="reset.mouseout"/>
                       </use>
               </g>
        </defs>

<script type="text/javascript">
var viewWidth = 618;
var viewHeight = 148;
var sectionId = 'dynsection-5';
</script>
<script xlink:href="svgpan.js"/>
<svg id="graph" class="graph">
<g id="viewport">
<title>FMBiGainCalc::__init_gain_2pin_net</title>
<polygon fill="#ffffff" stroke="transparent" points="-4,4 -4,-143.5 614,-143.5 614,4 -4,4"/>
<!-- Node25 -->
<g id="node1" class="node">
<title>Node25</title>
<polygon fill="#bfbfbf" stroke="#000000" points="0,-109 0,-139 110,-139 110,-109 0,-109"/>
<text text-anchor="start" x="8" y="-127" font-family="Helvetica,sans-Serif" font-size="10.00" fill="#000000">FMBiGainCalc::__init</text>
<text text-anchor="middle" x="55" y="-116" font-family="Helvetica,sans-Serif" font-size="10.00" fill="#000000">_gain_2pin_net</text>
</g>
<!-- Node26 -->
<g id="node2" class="node">
<title>Node26</title>
<g id="a_node2"><a xlink:href="classFMBiGainCalc.html#abbd6ac04a41b52d6853a97b497648a2d" target="_top" xlink:title="FMBiGainCalc::__init_gain">
<polygon fill="#ffffff" stroke="#000000" points="146,-67.5 146,-86.5 279,-86.5 279,-67.5 146,-67.5"/>
<text text-anchor="middle" x="212.5" y="-74.5" font-family="Helvetica,sans-Serif" font-size="10.00" fill="#000000">FMBiGainCalc::__init_gain</text>
</a>
</g>
</g>
<!-- Node25&#45;&gt;Node26 -->
<g id="edge1" class="edge">
<title>Node25&#45;&gt;Node26</title>
<path fill="none" stroke="#191970" d="M114.9961,-106.0964C137.2822,-99.4459 161.696,-92.1606 180.5193,-86.5434"/>
<polygon fill="#191970" stroke="#191970" points="113.8486,-102.7862 105.267,-108.9997 115.8503,-109.4939 113.8486,-102.7862"/>
</g>
<!-- Node27 -->
<g id="node3" class="node">
<title>Node27</title>
<g id="a_node3"><a xlink:href="classFMBiGainCalc.html#a332d9e85ed21f3e25122a8bb9660739b" target="_top" xlink:title="FMBiGainCalc::__modify_gain">
<polygon fill="#ffffff" stroke="#000000" points="315,-114.5 315,-133.5 464,-133.5 464,-114.5 315,-114.5"/>
<text text-anchor="middle" x="389.5" y="-121.5" font-family="Helvetica,sans-Serif" font-size="10.00" fill="#000000">FMBiGainCalc::__modify_gain</text>
</a>
</g>
</g>
<!-- Node25&#45;&gt;Node27 -->
<g id="edge11" class="edge">
<title>Node25&#45;&gt;Node27</title>
<path fill="none" stroke="#191970" d="M120.3605,-118.517C176.1651,-116.9153 256.421,-116.8322 314.7635,-118.2676"/>
<polygon fill="#191970" stroke="#191970" points="120.1215,-115.0226 110.2359,-118.8337 120.3404,-122.0192 120.1215,-115.0226"/>
</g>
<!-- Node26&#45;&gt;Node27 -->
<g id="edge2" class="edge">
<title>Node26&#45;&gt;Node27</title>
<path fill="none" stroke="#191970" d="M258.0258,-89.0888C287.6928,-96.9664 325.8678,-107.1033 353.4314,-114.4224"/>
<polygon fill="#191970" stroke="#191970" points="258.8819,-85.6949 248.3186,-86.5112 257.0854,-92.4604 258.8819,-85.6949"/>
</g>
<!-- Node30 -->
<g id="node6" class="node">
<title>Node30</title>
<g id="a_node6"><a xlink:href="classFMBiGainCalc.html#ad2d11665996b37c3b8888365ea8aa2ce" target="_top" xlink:title="FMBiGainCalc::init">
<polygon fill="#ffffff" stroke="#000000" points="340,-.5 340,-19.5 439,-19.5 439,-.5 340,-.5"/>
<text text-anchor="middle" x="389.5" y="-7.5" font-family="Helvetica,sans-Serif" font-size="10.00" fill="#000000">FMBiGainCalc::init</text>
</a>
</g>
</g>
<!-- Node26&#45;&gt;Node30 -->
<g id="edge10" class="edge">
<title>Node26&#45;&gt;Node30</title>
<path fill="none" stroke="#191970" d="M243.2103,-63.3063C263.4307,-54.4917 290.5817,-43.0362 315,-34 328.8909,-28.8595 344.459,-23.7455 357.7576,-19.5674"/>
<polygon fill="#191970" stroke="#191970" points="241.6337,-60.1759 233.8829,-67.3992 244.4465,-66.5859 241.6337,-60.1759"/>
</g>
<!-- Node27&#45;&gt;Node25 -->
<g id="edge3" class="edge">
<title>Node27&#45;&gt;Node25</title>
<path fill="none" stroke="#191970" d="M304.7609,-129.9593C243.7314,-131.2324 163.1444,-130.9681 110.2359,-129.1663"/>
<polygon fill="#191970" stroke="#191970" points="304.8455,-133.4584 314.7635,-129.7324 304.6867,-126.4602 304.8455,-133.4584"/>
</g>
<!-- Node28 -->
<g id="node4" class="node">
<title>Node28</title>
<g id="a_node4"><a xlink:href="classFMBiGainCalc.html#ab361da1d43c28b7f61f0a47c72e6cdb2" target="_top" xlink:title="FMBiGainCalc::__init\l_gain_3pin_net">
<polygon fill="#ffffff" stroke="#000000" points="500,-109 500,-139 610,-139 610,-109 500,-109"/>
<text text-anchor="start" x="508" y="-127" font-family="Helvetica,sans-Serif" font-size="10.00" fill="#000000">FMBiGainCalc::__init</text>
<text text-anchor="middle" x="555" y="-116" font-family="Helvetica,sans-Serif" font-size="10.00" fill="#000000">_gain_3pin_net</text>
</a>
</g>
</g>
<!-- Node27&#45;&gt;Node28 -->
<g id="edge4" class="edge">
<title>Node27&#45;&gt;Node28</title>
<path fill="none" stroke="#191970" d="M474.1868,-117.2516C482.8562,-117.2664 491.4973,-117.3799 499.7291,-117.5923"/>
<polygon fill="#191970" stroke="#191970" points="474.0097,-113.752 464.0194,-117.2798 474.0291,-120.752 474.0097,-113.752"/>
</g>
<!-- Node29 -->
<g id="node5" class="node">
<title>Node29</title>
<g id="a_node5"><a xlink:href="classFMBiGainCalc.html#a7e02f8ebebb3be0cfb183f2cfd6692c8" target="_top" xlink:title="FMBiGainCalc::__init\l_gain_general_net">
<polygon fill="#ffffff" stroke="#000000" points="500,-60 500,-90 610,-90 610,-60 500,-60"/>
<text text-anchor="start" x="508" y="-78" font-family="Helvetica,sans-Serif" font-size="10.00" fill="#000000">FMBiGainCalc::__init</text>
<text text-anchor="middle" x="555" y="-67" font-family="Helvetica,sans-Serif" font-size="10.00" fill="#000000">_gain_general_net</text>
</a>
</g>
</g>
<!-- Node27&#45;&gt;Node29 -->
<g id="edge7" class="edge">
<title>Node27&#45;&gt;Node29</title>
<path fill="none" stroke="#191970" d="M416.7676,-110.7647C439.2312,-102.5644 471.8091,-92.5035 499.6968,-84.9652"/>
<polygon fill="#191970" stroke="#191970" points="415.3224,-107.5694 407.2114,-114.3858 417.8028,-114.1153 415.3224,-107.5694"/>
</g>
<!-- Node28&#45;&gt;Node26 -->
<g id="edge6" class="edge">
<title>Node28&#45;&gt;Node26</title>
<path fill="none" stroke="#191970" d="M489.758,-109.5995C481.1192,-107.9215 472.3621,-106.3354 464,-105 401.6365,-95.0411 330.0101,-87.4378 279.1871,-82.6849"/>
<polygon fill="#191970" stroke="#191970" points="489.3231,-113.0815 499.8141,-111.602 490.6902,-106.2163 489.3231,-113.0815"/>
</g>
<!-- Node28&#45;&gt;Node27 -->
<g id="edge5" class="edge">
<title>Node28&#45;&gt;Node27</title>
<path fill="none" stroke="#191970" d="M489.6235,-130.616C481.2165,-130.7474 472.5589,-130.7822 464.0194,-130.7202"/>
<polygon fill="#191970" stroke="#191970" points="489.8034,-134.1131 499.7291,-130.4077 489.6591,-127.1146 489.8034,-134.1131"/>
</g>
<!-- Node29&#45;&gt;Node26 -->
<g id="edge9" class="edge">
<title>Node29&#45;&gt;Node26</title>
<path fill="none" stroke="#191970" d="M489.6263,-72.5855C481.0088,-72.3433 472.2927,-72.1367 464,-72 397.7868,-70.9089 381.2026,-70.3863 315,-72 303.4228,-72.2822 291.1167,-72.7434 279.1981,-73.2746"/>
<polygon fill="#191970" stroke="#191970" points="489.5663,-76.0852 499.666,-72.8842 489.7745,-69.0883 489.5663,-76.0852"/>
</g>
<!-- Node29&#45;&gt;Node27 -->
<g id="edge8" class="edge">
<title>Node29&#45;&gt;Node27</title>
<path fill="none" stroke="#191970" d="M513.0615,-93.3767C491.8577,-100.5482 465.8847,-108.3737 443.2331,-114.4579"/>
<polygon fill="#191970" stroke="#191970" points="514.4377,-96.6042 522.7447,-90.0281 512.15,-89.9886 514.4377,-96.6042"/>
</g>
</g>
</svg>
        <g id="navigator" transform="translate(0 0)" fill="#404254">
                <rect fill="#f2f5e9" fill-opacity="0.5" stroke="#606060" stroke-width=".5" x="0" y="0" width="60" height="60"/>
                <use id="zoomplus" xlink:href="#zoomPlus" x="17" y="9" onmousedown="handleZoom(evt,'in')"/>
                <use id="zoomminus" xlink:href="#zoomMin" x="42" y="9" onmousedown="handleZoom(evt,'out')"/>
                <use id="reset" xlink:href="#resetDef" x="30" y="36" onmousedown="handleReset()"/>
                <g id="arrowUp" xlink:href="#dirArrow" transform="translate(30 24)" onmousedown="handlePan(0,-1)">
                  <use xlink:href="#rim" fill="#404040">
                        <set attributeName="fill" to="#808080" begin="arrowUp.mouseover" end="arrowUp.mouseout"/>
                  </use>
                  <path fill="none" stroke="white" stroke-width="1.5" d="M0,-3.0v7 M-2.5,-0.5L0,-3.0L2.5,-0.5"/>
                </g>
                <g id="arrowRight" xlink:href="#dirArrow" transform="rotate(90) translate(36 -43)" onmousedown="handlePan(1,0)">
                  <use xlink:href="#rim" fill="#404040">
                        <set attributeName="fill" to="#808080" begin="arrowRight.mouseover" end="arrowRight.mouseout"/>
                  </use>
                  <path fill="none" stroke="white" stroke-width="1.5" d="M0,-3.0v7 M-2.5,-0.5L0,-3.0L2.5,-0.5"/>
                </g>
                <g id="arrowDown" xlink:href="#dirArrow" transform="rotate(180) translate(-30 -48)" onmousedown="handlePan(0,1)">
                  <use xlink:href="#rim" fill="#404040">
                        <set attributeName="fill" to="#808080" begin="arrowDown.mouseover" end="arrowDown.mouseout"/>
                  </use>
                  <path fill="none" stroke="white" stroke-width="1.5" d="M0,-3.0v7 M-2.5,-0.5L0,-3.0L2.5,-0.5"/>
                </g>
                <g id="arrowLeft" xlink:href="#dirArrow" transform="rotate(270) translate(-36 17)" onmousedown="handlePan(-1,0)">
                  <use xlink:href="#rim" fill="#404040">
                        <set attributeName="fill" to="#808080" begin="arrowLeft.mouseover" end="arrowLeft.mouseout"/>
                  </use>
                  <path fill="none" stroke="white" stroke-width="1.5" d="M0,-3.0v7 M-2.5,-0.5L0,-3.0L2.5,-0.5"/>
                </g>
        </g>
        <svg viewBox="0 0 15 15" width="100%" height="30px" preserveAspectRatio="xMaxYMin meet">
         <g id="arrow_out" transform="scale(0.3 0.3)">
          <a xlink:href="classFMBiGainCalc_a4b0fdc3f966eac6ec55e73ffe2a792cd_icgraph_org.svg" target="_base">
           <rect id="button" ry="5" rx="5" y="6" x="6" height="38" width="38"
                fill="#f2f5e9" fill-opacity="0.5" stroke="#606060" stroke-width="1.0"/>
           <path id="arrow"
             d="M 11.500037,31.436501 C 11.940474,20.09759 22.043105,11.32322 32.158766,21.979434 L 37.068811,17.246167 C 37.068811,17.246167 37.088388,32 37.088388,32 L 22.160133,31.978069 C 22.160133,31.978069 26.997745,27.140456 26.997745,27.140456 C 18.528582,18.264221 13.291696,25.230495 11.500037,31.436501 z"
             style="fill:#404040;"/>
          </a>
         </g>
        </svg>
</svg>
