<?xml version="1.0" encoding="UTF-8" standalone="no"?>
<!DOCTYPE svg PUBLIC "-//W3C//DTD SVG 1.1//EN"
 "http://www.w3.org/Graphics/SVG/1.1/DTD/svg11.dtd">
<!-- Generated by graphviz version 2.40.1 (20161225.0304)
 -->
<!-- Title: FMKWayGainMgr::lock Pages: 1 -->
<svg width="661pt" height="28pt"
 viewBox="0.00 0.00 661.00 28.00" xmlns="http://www.w3.org/2000/svg" xmlns:xlink="http://www.w3.org/1999/xlink">
<g id="graph0" class="graph" transform="scale(1 1) rotate(0) translate(4 24)">
<title>FMKWayGainMgr::lock</title>
<polygon fill="#ffffff" stroke="transparent" points="-4,4 -4,-24 657,-24 657,4 -4,4"/>
<!-- Node21 -->
<g id="node1" class="node">
<title>Node21</title>
<polygon fill="#bfbfbf" stroke="#000000" points="0,-.5 0,-19.5 119,-19.5 119,-.5 0,-.5"/>
<text text-anchor="middle" x="59.5" y="-7.5" font-family="Helvetica,sans-Serif" font-size="10.00" fill="#000000">FMKWayGainMgr::lock</text>
</g>
<!-- Node22 -->
<g id="node2" class="node">
<title>Node22</title>
<g id="a_node2"><a xlink:href="classFMKWayGainMgr.html#a541be6db1cd86419cb38bfb557e04d5a" target="_top" xlink:title="lock_all ">
<polygon fill="#ffffff" stroke="#000000" points="155,-.5 155,-19.5 289,-19.5 289,-.5 155,-.5"/>
<text text-anchor="middle" x="222" y="-7.5" font-family="Helvetica,sans-Serif" font-size="10.00" fill="#000000">FMKWayGainMgr::lock_all</text>
</a>
</g>
</g>
<!-- Node21&#45;&gt;Node22 -->
<g id="edge1" class="edge">
<title>Node21&#45;&gt;Node22</title>
<path fill="none" stroke="#191970" d="M129.2747,-10C137.7167,-10 146.3272,-10 154.732,-10"/>
<polygon fill="#191970" stroke="#191970" points="129.0863,-6.5001 119.0863,-10 129.0862,-13.5001 129.0863,-6.5001"/>
</g>
<!-- Node23 -->
<g id="node3" class="node">
<title>Node23</title>
<g id="a_node3"><a xlink:href="classFMKWayGainMgr.html#a7227e27c8926ed14619981f8848e69fa" target="_top" xlink:title="FMKWayGainMgr::init">
<polygon fill="#ffffff" stroke="#000000" points="325,-.5 325,-19.5 438,-19.5 438,-.5 325,-.5"/>
<text text-anchor="middle" x="381.5" y="-7.5" font-family="Helvetica,sans-Serif" font-size="10.00" fill="#000000">FMKWayGainMgr::init</text>
</a>
</g>
</g>
<!-- Node22&#45;&gt;Node23 -->
<g id="edge2" class="edge">
<title>Node22&#45;&gt;Node23</title>
<path fill="none" stroke="#191970" d="M299.3036,-10C307.9633,-10 316.6614,-10 324.9892,-10"/>
<polygon fill="#191970" stroke="#191970" points="299.1801,-6.5001 289.1801,-10 299.18,-13.5001 299.1801,-6.5001"/>
</g>
<!-- Node24 -->
<g id="node4" class="node">
<title>Node24</title>
<g id="a_node4"><a xlink:href="classFMKWayGainMgr.html#a528af78530720b5cd17666536fb01aa3" target="_top" xlink:title="Construct a new FMKWayGainMgr object. ">
<polygon fill="#ffffff" stroke="#000000" points="474,-.5 474,-19.5 653,-19.5 653,-.5 474,-.5"/>
<text text-anchor="middle" x="563.5" y="-7.5" font-family="Helvetica,sans-Serif" font-size="10.00" fill="#000000">FMKWayGainMgr::FMKWayGainMgr</text>
</a>
</g>
</g>
<!-- Node23&#45;&gt;Node24 -->
<g id="edge3" class="edge">
<title>Node23&#45;&gt;Node24</title>
<path fill="none" stroke="#191970" d="M448.1414,-10C456.5214,-10 465.199,-10 473.86,-10"/>
<polygon fill="#191970" stroke="#191970" points="448.0883,-6.5001 438.0883,-10 448.0883,-13.5001 448.0883,-6.5001"/>
</g>
</g>
</svg>
