<?xml version="1.0" encoding="UTF-8" standalone="no"?>
<!DOCTYPE svg PUBLIC "-//W3C//DTD SVG 1.1//EN"
 "http://www.w3.org/Graphics/SVG/1.1/DTD/svg11.dtd">
<!-- Generated by graphviz version 2.40.1 (20161225.0304)
 -->
<!-- Title: iter::impl::Compressed::Iterator::Iterator Pages: 1 -->
<svg width="428pt" height="50pt"
 viewBox="0.00 0.00 428.00 50.00" xmlns="http://www.w3.org/2000/svg" xmlns:xlink="http://www.w3.org/1999/xlink">
<g id="graph0" class="graph" transform="scale(1 1) rotate(0) translate(4 46)">
<title>iter::impl::Compressed::Iterator::Iterator</title>
<polygon fill="#ffffff" stroke="transparent" points="-4,4 -4,-46 424,-46 424,4 -4,4"/>
<!-- Node0 -->
<g id="node1" class="node">
<title>Node0</title>
<polygon fill="#bfbfbf" stroke="#000000" points="0,-6 0,-36 116,-36 116,-6 0,-6"/>
<text text-anchor="start" x="8" y="-24" font-family="Helvetica,sans-Serif" font-size="10.00" fill="#000000">iter::impl::Compressed</text>
<text text-anchor="middle" x="58" y="-13" font-family="Helvetica,sans-Serif" font-size="10.00" fill="#000000">::Iterator::Iterator</text>
</g>
<!-- Node1 -->
<g id="node2" class="node">
<title>Node1</title>
<g id="a_node2"><a xlink:href="classiter_1_1impl_1_1Compressed_1_1Iterator.html#a5edb1bd9c65935579e9cb7ebe04b4ab0" target="_top" xlink:title="iter::impl::Compressed\l::Iterator::skip_failures">
<polygon fill="#ffffff" stroke="#000000" points="152,-6 152,-36 268,-36 268,-6 152,-6"/>
<text text-anchor="start" x="160" y="-24" font-family="Helvetica,sans-Serif" font-size="10.00" fill="#000000">iter::impl::Compressed</text>
<text text-anchor="middle" x="210" y="-13" font-family="Helvetica,sans-Serif" font-size="10.00" fill="#000000">::Iterator::skip_failures</text>
</a>
</g>
</g>
<!-- Node0&#45;&gt;Node1 -->
<g id="edge1" class="edge">
<title>Node0&#45;&gt;Node1</title>
<path fill="none" stroke="#191970" d="M116.3325,-21C124.6057,-21 133.1747,-21 141.617,-21"/>
<polygon fill="#191970" stroke="#191970" points="141.8237,-24.5001 151.8236,-21 141.8236,-17.5001 141.8237,-24.5001"/>
</g>
<!-- Node2 -->
<g id="node3" class="node">
<title>Node2</title>
<g id="a_node3"><a xlink:href="classiter_1_1impl_1_1Compressed_1_1Iterator.html#a113a04991f7d684541bae465644254fc" target="_top" xlink:title="iter::impl::Compressed\l::Iterator::increment\l_iterators">
<polygon fill="#ffffff" stroke="#000000" points="304,-.5 304,-41.5 420,-41.5 420,-.5 304,-.5"/>
<text text-anchor="start" x="312" y="-29.5" font-family="Helvetica,sans-Serif" font-size="10.00" fill="#000000">iter::impl::Compressed</text>
<text text-anchor="start" x="312" y="-18.5" font-family="Helvetica,sans-Serif" font-size="10.00" fill="#000000">::Iterator::increment</text>
<text text-anchor="middle" x="362" y="-7.5" font-family="Helvetica,sans-Serif" font-size="10.00" fill="#000000">_iterators</text>
</a>
</g>
</g>
<!-- Node1&#45;&gt;Node2 -->
<g id="edge2" class="edge">
<title>Node1&#45;&gt;Node2</title>
<path fill="none" stroke="#191970" d="M268.3325,-21C276.6057,-21 285.1747,-21 293.617,-21"/>
<polygon fill="#191970" stroke="#191970" points="293.8237,-24.5001 303.8236,-21 293.8236,-17.5001 293.8237,-24.5001"/>
</g>
</g>
</svg>
