<?xml version="1.0" encoding="UTF-8" standalone="no"?>
<!DOCTYPE svg PUBLIC "-//W3C//DTD SVG 1.1//EN"
 "http://www.w3.org/Graphics/SVG/1.1/DTD/svg11.dtd">
<!-- Generated by graphviz version 2.40.1 (20161225.0304)
 -->
<!-- Title: FMKWayGainCalc::__init_gain Pages: 1 -->
<!--zoomable 170 -->
<svg id="main" version="1.1" xmlns="http://www.w3.org/2000/svg" xmlns:xlink="http://www.w3.org/1999/xlink" xml:space="preserve" onload="init(evt)">
<style type="text/css"><![CDATA[
.edge:hover path { stroke: red; }
.edge:hover polygon { stroke: red; fill: red; }
]]></style>
<script type="text/javascript"><![CDATA[
var edges = document.getElementsByTagName('g');
if (edges && edges.length) {
  for (var i=0;i<edges.length;i++) {
    if (edges[i].id.substr(0,4)=='edge') {
      edges[i].setAttribute('class','edge');
    }
  }
}
]]></script>
        <defs>
                <circle id="rim" cx="0" cy="0" r="7"/>
                <circle id="rim2" cx="0" cy="0" r="3.5"/>
                <g id="zoomPlus">
                        <use xlink:href="#rim" fill="#404040">
                                <set attributeName="fill" to="#808080" begin="zoomplus.mouseover" end="zoomplus.mouseout"/>
                        </use>
                        <path d="M-4,0h8M0,-4v8" fill="none" stroke="white" stroke-width="1.5" pointer-events="none"/>
                </g>
                <g id="zoomMin">
                        <use xlink:href="#rim" fill="#404040">
                                <set attributeName="fill" to="#808080" begin="zoomminus.mouseover" end="zoomminus.mouseout"/>
                        </use>
                        <path d="M-4,0h8" fill="none" stroke="white" stroke-width="1.5" pointer-events="none"/>
                </g>
                <g id="dirArrow">
                        <path fill="none" stroke="white" stroke-width="1.5" d="M0,-3.0v7 M-2.5,-0.5L0,-3.0L2.5,-0.5"/>
                </g>
               <g id="resetDef">
                       <use xlink:href="#rim2" fill="#404040">
                               <set attributeName="fill" to="#808080" begin="reset.mouseover" end="reset.mouseout"/>
                       </use>
               </g>
        </defs>

<script type="text/javascript">
var viewWidth = 526;
var viewHeight = 170;
var sectionId = 'dynsection-3';
</script>
<script xlink:href="svgpan.js"/>
<svg id="graph" class="graph">
<g id="viewport">
<title>FMKWayGainCalc::__init_gain</title>
<polygon fill="#ffffff" stroke="transparent" points="-4,4 -4,-165.5 522,-165.5 522,4 -4,4"/>
<!-- Node12 -->
<g id="node1" class="node">
<title>Node12</title>
<polygon fill="#bfbfbf" stroke="#000000" points="0,-76.5 0,-95.5 151,-95.5 151,-76.5 0,-76.5"/>
<text text-anchor="middle" x="75.5" y="-83.5" font-family="Helvetica,sans-Serif" font-size="10.00" fill="#000000">FMKWayGainCalc::__init_gain</text>
</g>
<!-- Node13 -->
<g id="node2" class="node">
<title>Node13</title>
<g id="a_node2"><a xlink:href="classFMKWayGainCalc.html#ac4e6255c0ffc3141805628779fa45e41" target="_top" xlink:title="FMKWayGainCalc::__modify_gain">
<polygon fill="#ffffff" stroke="#000000" points="187,-76.5 187,-95.5 354,-95.5 354,-76.5 187,-76.5"/>
<text text-anchor="middle" x="270.5" y="-83.5" font-family="Helvetica,sans-Serif" font-size="10.00" fill="#000000">FMKWayGainCalc::__modify_gain</text>
</a>
</g>
</g>
<!-- Node12&#45;&gt;Node13 -->
<g id="edge1" class="edge">
<title>Node12&#45;&gt;Node13</title>
<path fill="none" stroke="#191970" d="M161.3835,-86C169.8178,-86 178.3697,-86 186.7819,-86"/>
<polygon fill="#191970" stroke="#191970" points="161.1712,-82.5001 151.1712,-86 161.1712,-89.5001 161.1712,-82.5001"/>
</g>
<!-- Node17 -->
<g id="node6" class="node">
<title>Node17</title>
<g id="a_node6"><a xlink:href="classFMKWayGainCalc.html#a90ac9b44385bb59b4e03258ed44b17e6" target="_top" xlink:title="FMKWayGainCalc::init">
<polygon fill="#ffffff" stroke="#000000" points="212,-.5 212,-19.5 329,-19.5 329,-.5 212,-.5"/>
<text text-anchor="middle" x="270.5" y="-7.5" font-family="Helvetica,sans-Serif" font-size="10.00" fill="#000000">FMKWayGainCalc::init</text>
</a>
</g>
</g>
<!-- Node12&#45;&gt;Node17 -->
<g id="edge11" class="edge">
<title>Node12&#45;&gt;Node17</title>
<path fill="none" stroke="#191970" d="M102.8375,-71.7814C125.0996,-60.5633 157.551,-45.0219 187,-34 201.6915,-28.5014 218.2269,-23.5095 232.6834,-19.52"/>
<polygon fill="#191970" stroke="#191970" points="100.9911,-68.7939 93.6665,-76.449 104.1662,-75.0324 100.9911,-68.7939"/>
</g>
<!-- Node14 -->
<g id="node3" class="node">
<title>Node14</title>
<g id="a_node3"><a xlink:href="classFMKWayGainCalc.html#ac6d158d36c93cd11b407dedfe3f7ab9d" target="_top" xlink:title="FMKWayGainCalc::__init\l_gain_2pin_net">
<polygon fill="#ffffff" stroke="#000000" points="390,-131 390,-161 518,-161 518,-131 390,-131"/>
<text text-anchor="start" x="398" y="-149" font-family="Helvetica,sans-Serif" font-size="10.00" fill="#000000">FMKWayGainCalc::__init</text>
<text text-anchor="middle" x="454" y="-138" font-family="Helvetica,sans-Serif" font-size="10.00" fill="#000000">_gain_2pin_net</text>
</a>
</g>
</g>
<!-- Node13&#45;&gt;Node14 -->
<g id="edge2" class="edge">
<title>Node13&#45;&gt;Node14</title>
<path fill="none" stroke="#191970" d="M327.8589,-98.4454C359.6052,-107.9747 397.7741,-120.8371 423.7517,-130.9465"/>
<polygon fill="#191970" stroke="#191970" points="328.8153,-95.0785 318.2334,-95.6018 326.8321,-101.7917 328.8153,-95.0785"/>
</g>
<!-- Node15 -->
<g id="node4" class="node">
<title>Node15</title>
<g id="a_node4"><a xlink:href="classFMKWayGainCalc.html#a3d58586faf2497c85377e7d42d7b8724" target="_top" xlink:title="FMKWayGainCalc::__init\l_gain_3pin_net">
<polygon fill="#ffffff" stroke="#000000" points="390,-82 390,-112 518,-112 518,-82 390,-82"/>
<text text-anchor="start" x="398" y="-100" font-family="Helvetica,sans-Serif" font-size="10.00" fill="#000000">FMKWayGainCalc::__init</text>
<text text-anchor="middle" x="454" y="-89" font-family="Helvetica,sans-Serif" font-size="10.00" fill="#000000">_gain_3pin_net</text>
</a>
</g>
</g>
<!-- Node13&#45;&gt;Node15 -->
<g id="edge5" class="edge">
<title>Node13&#45;&gt;Node15</title>
<path fill="none" stroke="#191970" d="M364.3496,-84.8774C373.0056,-85.4093 381.6366,-86.0198 389.9343,-86.6904"/>
<polygon fill="#191970" stroke="#191970" points="364.3806,-81.3735 354.1953,-84.2903 363.9765,-88.3618 364.3806,-81.3735"/>
</g>
<!-- Node16 -->
<g id="node5" class="node">
<title>Node16</title>
<g id="a_node5"><a xlink:href="classFMKWayGainCalc.html#ad10182c880296aa4182775a7099e5874" target="_top" xlink:title="FMKWayGainCalc::__init\l_gain_general_net">
<polygon fill="#ffffff" stroke="#000000" points="390,-33 390,-63 518,-63 518,-33 390,-33"/>
<text text-anchor="start" x="398" y="-51" font-family="Helvetica,sans-Serif" font-size="10.00" fill="#000000">FMKWayGainCalc::__init</text>
<text text-anchor="middle" x="454" y="-40" font-family="Helvetica,sans-Serif" font-size="10.00" fill="#000000">_gain_general_net</text>
</a>
</g>
</g>
<!-- Node13&#45;&gt;Node16 -->
<g id="edge8" class="edge">
<title>Node13&#45;&gt;Node16</title>
<path fill="none" stroke="#191970" d="M303.7875,-73.7634C327.7521,-67.445 360.8368,-60.2179 389.8578,-54.8121"/>
<polygon fill="#191970" stroke="#191970" points="302.837,-70.3947 294.1138,-76.4076 304.6828,-77.147 302.837,-70.3947"/>
</g>
<!-- Node14&#45;&gt;Node12 -->
<g id="edge4" class="edge">
<title>Node14&#45;&gt;Node12</title>
<path fill="none" stroke="#191970" d="M379.6639,-142.7305C325.7739,-139.3999 251.367,-132.8151 187,-120 157.2279,-114.0726 124.0645,-103.4184 101.7054,-95.6116"/>
<polygon fill="#191970" stroke="#191970" points="379.6293,-146.2346 389.8195,-143.3347 380.045,-139.2469 379.6293,-146.2346"/>
</g>
<!-- Node14&#45;&gt;Node13 -->
<g id="edge3" class="edge">
<title>Node14&#45;&gt;Node13</title>
<path fill="none" stroke="#191970" d="M379.6143,-128.3191C345.5018,-117.5965 308.0655,-104.5021 287.108,-95.5106"/>
<polygon fill="#191970" stroke="#191970" points="379.012,-131.7968 389.6001,-131.4189 381.0873,-125.1115 379.012,-131.7968"/>
</g>
<!-- Node15&#45;&gt;Node12 -->
<g id="edge7" class="edge">
<title>Node15&#45;&gt;Node12</title>
<path fill="none" stroke="#191970" d="M379.6617,-103.6083C371.0158,-104.1808 362.3179,-104.6678 354,-105 279.8369,-107.9618 260.9581,-111.2563 187,-105 165.0852,-103.1462 141.004,-99.2777 120.8467,-95.5123"/>
<polygon fill="#191970" stroke="#191970" points="380.0305,-107.0912 389.7616,-102.9012 379.5415,-100.1083 380.0305,-107.0912"/>
</g>
<!-- Node15&#45;&gt;Node13 -->
<g id="edge6" class="edge">
<title>Node15&#45;&gt;Node13</title>
<path fill="none" stroke="#191970" d="M379.8944,-99.1955C361.5668,-98.3325 342.263,-97.0397 325.0592,-95.5014"/>
<polygon fill="#191970" stroke="#191970" points="379.8149,-102.6952 389.9565,-99.6295 380.1166,-95.7017 379.8149,-102.6952"/>
</g>
<!-- Node16&#45;&gt;Node12 -->
<g id="edge10" class="edge">
<title>Node16&#45;&gt;Node12</title>
<path fill="none" stroke="#191970" d="M379.7888,-51.3319C326.1099,-54.2162 251.9079,-59.1793 187,-67 166.627,-69.4547 144.3075,-73.0714 125.0252,-76.4923"/>
<polygon fill="#191970" stroke="#191970" points="380.1014,-54.8204 389.9038,-50.7999 379.7337,-47.83 380.1014,-54.8204"/>
</g>
<!-- Node16&#45;&gt;Node13 -->
<g id="edge9" class="edge">
<title>Node16&#45;&gt;Node13</title>
<path fill="none" stroke="#191970" d="M400.0664,-65.381C384.0258,-69.1853 366.116,-73.052 348.8528,-76.46"/>
<polygon fill="#191970" stroke="#191970" points="400.8954,-68.7815 409.7899,-63.0249 399.2469,-61.9783 400.8954,-68.7815"/>
</g>
</g>
</svg>
        <g id="navigator" transform="translate(0 0)" fill="#404254">
                <rect fill="#f2f5e9" fill-opacity="0.5" stroke="#606060" stroke-width=".5" x="0" y="0" width="60" height="60"/>
                <use id="zoomplus" xlink:href="#zoomPlus" x="17" y="9" onmousedown="handleZoom(evt,'in')"/>
                <use id="zoomminus" xlink:href="#zoomMin" x="42" y="9" onmousedown="handleZoom(evt,'out')"/>
                <use id="reset" xlink:href="#resetDef" x="30" y="36" onmousedown="handleReset()"/>
                <g id="arrowUp" xlink:href="#dirArrow" transform="translate(30 24)" onmousedown="handlePan(0,-1)">
                  <use xlink:href="#rim" fill="#404040">
                        <set attributeName="fill" to="#808080" begin="arrowUp.mouseover" end="arrowUp.mouseout"/>
                  </use>
                  <path fill="none" stroke="white" stroke-width="1.5" d="M0,-3.0v7 M-2.5,-0.5L0,-3.0L2.5,-0.5"/>
                </g>
                <g id="arrowRight" xlink:href="#dirArrow" transform="rotate(90) translate(36 -43)" onmousedown="handlePan(1,0)">
                  <use xlink:href="#rim" fill="#404040">
                        <set attributeName="fill" to="#808080" begin="arrowRight.mouseover" end="arrowRight.mouseout"/>
                  </use>
                  <path fill="none" stroke="white" stroke-width="1.5" d="M0,-3.0v7 M-2.5,-0.5L0,-3.0L2.5,-0.5"/>
                </g>
                <g id="arrowDown" xlink:href="#dirArrow" transform="rotate(180) translate(-30 -48)" onmousedown="handlePan(0,1)">
                  <use xlink:href="#rim" fill="#404040">
                        <set attributeName="fill" to="#808080" begin="arrowDown.mouseover" end="arrowDown.mouseout"/>
                  </use>
                  <path fill="none" stroke="white" stroke-width="1.5" d="M0,-3.0v7 M-2.5,-0.5L0,-3.0L2.5,-0.5"/>
                </g>
                <g id="arrowLeft" xlink:href="#dirArrow" transform="rotate(270) translate(-36 17)" onmousedown="handlePan(-1,0)">
                  <use xlink:href="#rim" fill="#404040">
                        <set attributeName="fill" to="#808080" begin="arrowLeft.mouseover" end="arrowLeft.mouseout"/>
                  </use>
                  <path fill="none" stroke="white" stroke-width="1.5" d="M0,-3.0v7 M-2.5,-0.5L0,-3.0L2.5,-0.5"/>
                </g>
        </g>
        <svg viewBox="0 0 15 15" width="100%" height="30px" preserveAspectRatio="xMaxYMin meet">
         <g id="arrow_out" transform="scale(0.3 0.3)">
          <a xlink:href="classFMKWayGainCalc_ab7b8bf55722e1449e394ad08b1290582_icgraph_org.svg" target="_base">
           <rect id="button" ry="5" rx="5" y="6" x="6" height="38" width="38"
                fill="#f2f5e9" fill-opacity="0.5" stroke="#606060" stroke-width="1.0"/>
           <path id="arrow"
             d="M 11.500037,31.436501 C 11.940474,20.09759 22.043105,11.32322 32.158766,21.979434 L 37.068811,17.246167 C 37.068811,17.246167 37.088388,32 37.088388,32 L 22.160133,31.978069 C 22.160133,31.978069 26.997745,27.140456 26.997745,27.140456 C 18.528582,18.264221 13.291696,25.230495 11.500037,31.436501 z"
             style="fill:#404040;"/>
          </a>
         </g>
        </svg>
</svg>
