<?xml version="1.0" encoding="UTF-8" standalone="no"?>
<!DOCTYPE svg PUBLIC "-//W3C//DTD SVG 1.1//EN"
 "http://www.w3.org/Graphics/SVG/1.1/DTD/svg11.dtd">
<!-- Generated by graphviz version 2.40.1 (20161225.0304)
 -->
<!-- Title: FMKWayConstrMgr Pages: 1 -->
<!--zoomable 1413 -->
<svg id="main" version="1.1" xmlns="http://www.w3.org/2000/svg" xmlns:xlink="http://www.w3.org/1999/xlink" xml:space="preserve" onload="init(evt)">
<style type="text/css"><![CDATA[
.edge:hover path { stroke: red; }
.edge:hover polygon { stroke: red; fill: red; }
]]></style>
<script type="text/javascript"><![CDATA[
var edges = document.getElementsByTagName('g');
if (edges && edges.length) {
  for (var i=0;i<edges.length;i++) {
    if (edges[i].id.substr(0,4)=='edge') {
      edges[i].setAttribute('class','edge');
    }
  }
}
]]></script>
        <defs>
                <circle id="rim" cx="0" cy="0" r="7"/>
                <circle id="rim2" cx="0" cy="0" r="3.5"/>
                <g id="zoomPlus">
                        <use xlink:href="#rim" fill="#404040">
                                <set attributeName="fill" to="#808080" begin="zoomplus.mouseover" end="zoomplus.mouseout"/>
                        </use>
                        <path d="M-4,0h8M0,-4v8" fill="none" stroke="white" stroke-width="1.5" pointer-events="none"/>
                </g>
                <g id="zoomMin">
                        <use xlink:href="#rim" fill="#404040">
                                <set attributeName="fill" to="#808080" begin="zoomminus.mouseover" end="zoomminus.mouseout"/>
                        </use>
                        <path d="M-4,0h8" fill="none" stroke="white" stroke-width="1.5" pointer-events="none"/>
                </g>
                <g id="dirArrow">
                        <path fill="none" stroke="white" stroke-width="1.5" d="M0,-3.0v7 M-2.5,-0.5L0,-3.0L2.5,-0.5"/>
                </g>
               <g id="resetDef">
                       <use xlink:href="#rim2" fill="#404040">
                               <set attributeName="fill" to="#808080" begin="reset.mouseover" end="reset.mouseout"/>
                       </use>
               </g>
        </defs>

<script type="text/javascript">
var viewWidth = 801;
var viewHeight = 1413;
var sectionId = 'dynsection-1';
</script>
<script xlink:href="svgpan.js"/>
<svg id="graph" class="graph">
<g id="viewport">
<title>FMKWayConstrMgr</title>
<polygon fill="#ffffff" stroke="transparent" points="-4,4 -4,-1409 796.5,-1409 796.5,4 -4,4"/>
<!-- Node2 -->
<g id="node1" class="node">
<title>Node2</title>
<polygon fill="#bfbfbf" stroke="#000000" points="621.5,-.5 621.5,-90.5 740.5,-90.5 740.5,-.5 621.5,-.5"/>
<text text-anchor="middle" x="681" y="-78.5" font-family="Helvetica,sans-Serif" font-size="10.00" fill="#000000">FMKWayConstrMgr</text>
<polyline fill="none" stroke="#000000" points="621.5,-71.5 740.5,-71.5 "/>
<text text-anchor="middle" x="681" y="-59.5" font-family="Helvetica,sans-Serif" font-size="10.00" fill="#000000"> </text>
<polyline fill="none" stroke="#000000" points="621.5,-52.5 740.5,-52.5 "/>
<text text-anchor="start" x="629.5" y="-40.5" font-family="Helvetica,sans-Serif" font-size="10.00" fill="#000000">+ FMKWayConstrMgr()</text>
<text text-anchor="start" x="629.5" y="-29.5" font-family="Helvetica,sans-Serif" font-size="10.00" fill="#000000">+ select_togo()</text>
<text text-anchor="start" x="629.5" y="-18.5" font-family="Helvetica,sans-Serif" font-size="10.00" fill="#000000">+ init()</text>
<text text-anchor="start" x="629.5" y="-7.5" font-family="Helvetica,sans-Serif" font-size="10.00" fill="#000000">+ check_legal()</text>
</g>
<!-- Node3 -->
<g id="node2" class="node">
<title>Node3</title>
<g id="a_node2"><a xlink:href="classFMConstrMgr.html" target="_top" xlink:title="FM Partition Constraint Manager. ">
<polygon fill="#ffffff" stroke="#000000" points="564.5,-138.5 564.5,-283.5 675.5,-283.5 675.5,-138.5 564.5,-138.5"/>
<text text-anchor="middle" x="620" y="-271.5" font-family="Helvetica,sans-Serif" font-size="10.00" fill="#000000">FMConstrMgr</text>
<polyline fill="none" stroke="#000000" points="564.5,-264.5 675.5,-264.5 "/>
<text text-anchor="start" x="572.5" y="-252.5" font-family="Helvetica,sans-Serif" font-size="10.00" fill="#000000"># BalTol</text>
<text text-anchor="start" x="572.5" y="-241.5" font-family="Helvetica,sans-Serif" font-size="10.00" fill="#000000"># K</text>
<text text-anchor="start" x="572.5" y="-230.5" font-family="Helvetica,sans-Serif" font-size="10.00" fill="#000000"># lowerbound</text>
<text text-anchor="start" x="572.5" y="-219.5" font-family="Helvetica,sans-Serif" font-size="10.00" fill="#000000"># totalweight</text>
<text text-anchor="start" x="572.5" y="-208.5" font-family="Helvetica,sans-Serif" font-size="10.00" fill="#000000">&#45; weight</text>
<polyline fill="none" stroke="#000000" points="564.5,-201.5 675.5,-201.5 "/>
<text text-anchor="start" x="572.5" y="-189.5" font-family="Helvetica,sans-Serif" font-size="10.00" fill="#000000">+ init()</text>
<text text-anchor="start" x="572.5" y="-178.5" font-family="Helvetica,sans-Serif" font-size="10.00" fill="#000000">+ check_legal()</text>
<text text-anchor="start" x="572.5" y="-167.5" font-family="Helvetica,sans-Serif" font-size="10.00" fill="#000000">+ check_constraints()</text>
<text text-anchor="start" x="572.5" y="-156.5" font-family="Helvetica,sans-Serif" font-size="10.00" fill="#000000">+ update_move()</text>
<text text-anchor="start" x="572.5" y="-145.5" font-family="Helvetica,sans-Serif" font-size="10.00" fill="#000000"># FMConstrMgr()</text>
</a>
</g>
</g>
<!-- Node3&#45;&gt;Node2 -->
<g id="edge1" class="edge">
<title>Node3&#45;&gt;Node2</title>
<path fill="none" stroke="#191970" d="M650.2595,-128.9026C655.083,-115.8157 659.9146,-102.7071 664.2716,-90.886"/>
<polygon fill="none" stroke="#191970" points="646.9299,-127.8159 646.7555,-138.4093 653.498,-130.2368 646.9299,-127.8159"/>
</g>
<!-- Node4 -->
<g id="node3" class="node">
<title>Node4</title>
<g id="a_node3"><a xlink:href="structNetlist.html" target="_top" xlink:title="Netlist. ">
<polygon fill="#ffffff" stroke="#000000" points="425.5,-331.5 425.5,-542.5 544.5,-542.5 544.5,-331.5 425.5,-331.5"/>
<text text-anchor="start" x="433.5" y="-530.5" font-family="Helvetica,sans-Serif" font-size="10.00" fill="#000000">Netlist&lt; nodeview_t,</text>
<text text-anchor="middle" x="485" y="-519.5" font-family="Helvetica,sans-Serif" font-size="10.00" fill="#000000"> nodemap_t &gt;</text>
<polyline fill="none" stroke="#000000" points="425.5,-512.5 544.5,-512.5 "/>
<text text-anchor="start" x="433.5" y="-500.5" font-family="Helvetica,sans-Serif" font-size="10.00" fill="#000000">+ num_modules</text>
<text text-anchor="start" x="433.5" y="-489.5" font-family="Helvetica,sans-Serif" font-size="10.00" fill="#000000">+ num_nets</text>
<text text-anchor="start" x="433.5" y="-478.5" font-family="Helvetica,sans-Serif" font-size="10.00" fill="#000000">+ num_pads</text>
<text text-anchor="start" x="433.5" y="-467.5" font-family="Helvetica,sans-Serif" font-size="10.00" fill="#000000">+ max_degree</text>
<text text-anchor="start" x="433.5" y="-456.5" font-family="Helvetica,sans-Serif" font-size="10.00" fill="#000000">+ max_net_degree</text>
<text text-anchor="start" x="433.5" y="-445.5" font-family="Helvetica,sans-Serif" font-size="10.00" fill="#000000">+ has_fixed_modules</text>
<text text-anchor="start" x="433.5" y="-434.5" font-family="Helvetica,sans-Serif" font-size="10.00" fill="#000000">+ cost_model</text>
<text text-anchor="start" x="433.5" y="-423.5" font-family="Helvetica,sans-Serif" font-size="10.00" fill="#000000">+ parent</text>
<polyline fill="none" stroke="#000000" points="425.5,-416.5 544.5,-416.5 "/>
<text text-anchor="start" x="433.5" y="-404.5" font-family="Helvetica,sans-Serif" font-size="10.00" fill="#000000">+ Netlist()</text>
<text text-anchor="start" x="433.5" y="-393.5" font-family="Helvetica,sans-Serif" font-size="10.00" fill="#000000">+ Netlist()</text>
<text text-anchor="start" x="433.5" y="-382.5" font-family="Helvetica,sans-Serif" font-size="10.00" fill="#000000">+ number_of_modules()</text>
<text text-anchor="start" x="433.5" y="-371.5" font-family="Helvetica,sans-Serif" font-size="10.00" fill="#000000">+ number_of_nets()</text>
<text text-anchor="start" x="433.5" y="-360.5" font-family="Helvetica,sans-Serif" font-size="10.00" fill="#000000">+ number_of_nodes()</text>
<text text-anchor="start" x="433.5" y="-349.5" font-family="Helvetica,sans-Serif" font-size="10.00" fill="#000000">+ get_max_degree()</text>
<text text-anchor="start" x="433.5" y="-338.5" font-family="Helvetica,sans-Serif" font-size="10.00" fill="#000000">and 5 more...</text>
</a>
</g>
</g>
<!-- Node4&#45;&gt;Node3 -->
<g id="edge2" class="edge">
<title>Node4&#45;&gt;Node3</title>
<path fill="none" stroke="#404040" d="M544.6059,-337.2152C553.1615,-322.8926 561.8886,-308.2829 570.2272,-294.3234"/>
<polygon fill="none" stroke="#404040" points="570.3649,-294.0928 570.0079,-286.8905 576.5188,-283.7908 576.8758,-290.9931 570.3649,-294.0928"/>
<text text-anchor="middle" x="573" y="-305" font-family="Helvetica,sans-Serif" font-size="10.00" fill="#000000"> #H</text>
</g>
<!-- Node5 -->
<g id="node4" class="node">
<title>Node5</title>
<g id="a_node4"><a xlink:href="classxn_1_1Graph.html" target="_top" xlink:title="{xn::Graph\&lt; nodeview\l_t, nodemap_t \&gt;\n||+ Graph()\l+ Graph()\l+ adj()\l+ get_name()\l+ set_name()\l+ begin()\land 13 more...\l}">
<polygon fill="#ffffff" stroke="#000000" points="237,-601.5 237,-735.5 347,-735.5 347,-601.5 237,-601.5"/>
<text text-anchor="start" x="245" y="-723.5" font-family="Helvetica,sans-Serif" font-size="10.00" fill="#000000">xn::Graph&lt; nodeview</text>
<text text-anchor="middle" x="292" y="-712.5" font-family="Helvetica,sans-Serif" font-size="10.00" fill="#000000">_t, nodemap_t &gt;</text>
<polyline fill="none" stroke="#000000" points="237,-705.5 347,-705.5 "/>
<text text-anchor="middle" x="292" y="-693.5" font-family="Helvetica,sans-Serif" font-size="10.00" fill="#000000"> </text>
<polyline fill="none" stroke="#000000" points="237,-686.5 347,-686.5 "/>
<text text-anchor="start" x="245" y="-674.5" font-family="Helvetica,sans-Serif" font-size="10.00" fill="#000000">+ Graph()</text>
<text text-anchor="start" x="245" y="-663.5" font-family="Helvetica,sans-Serif" font-size="10.00" fill="#000000">+ Graph()</text>
<text text-anchor="start" x="245" y="-652.5" font-family="Helvetica,sans-Serif" font-size="10.00" fill="#000000">+ adj()</text>
<text text-anchor="start" x="245" y="-641.5" font-family="Helvetica,sans-Serif" font-size="10.00" fill="#000000">+ get_name()</text>
<text text-anchor="start" x="245" y="-630.5" font-family="Helvetica,sans-Serif" font-size="10.00" fill="#000000">+ set_name()</text>
<text text-anchor="start" x="245" y="-619.5" font-family="Helvetica,sans-Serif" font-size="10.00" fill="#000000">+ begin()</text>
<text text-anchor="start" x="245" y="-608.5" font-family="Helvetica,sans-Serif" font-size="10.00" fill="#000000">and 13 more...</text>
</a>
</g>
</g>
<!-- Node5&#45;&gt;Node4 -->
<g id="edge3" class="edge">
<title>Node5&#45;&gt;Node4</title>
<path fill="none" stroke="#404040" d="M347.0478,-602.4712C369.07,-576.0559 394.6484,-545.3751 417.7552,-517.6589"/>
<polygon fill="none" stroke="#404040" points="417.8037,-517.6007 418.5735,-510.4307 425.488,-508.3836 424.7182,-515.5535 417.8037,-517.6007"/>
<text text-anchor="middle" x="385.5" y="-569.5" font-family="Helvetica,sans-Serif" font-size="10.00" fill="#000000"> +G</text>
</g>
<!-- Node6 -->
<g id="node5" class="node">
<title>Node6</title>
<g id="a_node5"><a xlink:href="structxn_1_1object.html" target="_top" xlink:title="Base class for undirected graphs. ">
<polygon fill="#ffffff" stroke="#000000" points="246.5,-874.5 246.5,-931.5 305.5,-931.5 305.5,-874.5 246.5,-874.5"/>
<text text-anchor="middle" x="276" y="-919.5" font-family="Helvetica,sans-Serif" font-size="10.00" fill="#000000">xn::object</text>
<polyline fill="none" stroke="#000000" points="246.5,-912.5 305.5,-912.5 "/>
<text text-anchor="middle" x="276" y="-900.5" font-family="Helvetica,sans-Serif" font-size="10.00" fill="#000000"> </text>
<polyline fill="none" stroke="#000000" points="246.5,-893.5 305.5,-893.5 "/>
<text text-anchor="middle" x="276" y="-881.5" font-family="Helvetica,sans-Serif" font-size="10.00" fill="#000000"> </text>
</a>
</g>
</g>
<!-- Node6&#45;&gt;Node5 -->
<g id="edge4" class="edge">
<title>Node6&#45;&gt;Node5</title>
<path fill="none" stroke="#191970" d="M278.6603,-864.0097C281.037,-829.1757 284.5709,-777.383 287.4043,-735.8553"/>
<polygon fill="none" stroke="#191970" points="275.1508,-864.0306 277.9619,-874.2457 282.1346,-864.5072 275.1508,-864.0306"/>
</g>
<!-- Node7 -->
<g id="node6" class="node">
<title>Node7</title>
<g id="a_node6"><a xlink:href="classpy_1_1dict.html" target="_top" xlink:title="{py::dict\&lt; const char\l *, std::any \&gt;\n||+ dict()\l+ dict()\l+ operator=()\l&#45; dict()\l}">
<polygon fill="#ffffff" stroke="#000000" points="190,-1081.5 190,-1182.5 294,-1182.5 294,-1081.5 190,-1081.5"/>
<text text-anchor="start" x="198" y="-1170.5" font-family="Helvetica,sans-Serif" font-size="10.00" fill="#000000">py::dict&lt; const char</text>
<text text-anchor="middle" x="242" y="-1159.5" font-family="Helvetica,sans-Serif" font-size="10.00" fill="#000000"> *, std::any &gt;</text>
<polyline fill="none" stroke="#000000" points="190,-1152.5 294,-1152.5 "/>
<text text-anchor="middle" x="242" y="-1140.5" font-family="Helvetica,sans-Serif" font-size="10.00" fill="#000000"> </text>
<polyline fill="none" stroke="#000000" points="190,-1133.5 294,-1133.5 "/>
<text text-anchor="start" x="198" y="-1121.5" font-family="Helvetica,sans-Serif" font-size="10.00" fill="#000000">+ dict()</text>
<text text-anchor="start" x="198" y="-1110.5" font-family="Helvetica,sans-Serif" font-size="10.00" fill="#000000">+ dict()</text>
<text text-anchor="start" x="198" y="-1099.5" font-family="Helvetica,sans-Serif" font-size="10.00" fill="#000000">+ operator=()</text>
<text text-anchor="start" x="198" y="-1088.5" font-family="Helvetica,sans-Serif" font-size="10.00" fill="#000000">&#45; dict()</text>
</a>
</g>
</g>
<!-- Node7&#45;&gt;Node5 -->
<g id="edge11" class="edge">
<title>Node7&#45;&gt;Node5</title>
<path fill="none" stroke="#404040" d="M223.8142,-1081.0466C206.9112,-1026.6605 186.6217,-938.1552 203,-863 211.7402,-822.8938 229.5257,-781.1598 246.9156,-746.6811"/>
<polygon fill="none" stroke="#404040" points="247.0476,-746.4243 246.2346,-739.2592 252.5359,-735.7529 253.3489,-742.918 247.0476,-746.4243"/>
<text text-anchor="middle" x="220" y="-900.5" font-family="Helvetica,sans-Serif" font-size="10.00" fill="#000000"> +graph</text>
</g>
<!-- Node7&#45;&gt;Node6 -->
<g id="edge5" class="edge">
<title>Node7&#45;&gt;Node6</title>
<path fill="none" stroke="#191970" d="M250.9853,-1071.4817C257.6901,-1026.3228 266.5518,-966.6362 271.7286,-931.7689"/>
<polygon fill="none" stroke="#191970" points="247.5102,-1071.0559 249.5035,-1081.4615 254.4343,-1072.084 247.5102,-1071.0559"/>
</g>
<!-- Node8 -->
<g id="node7" class="node">
<title>Node8</title>
<g id="a_node7"><a xlink:title="STL class. ">
<polygon fill="#ffffff" stroke="#bfbfbf" points="191.5,-1220.5 191.5,-1299.5 294.5,-1299.5 294.5,-1220.5 191.5,-1220.5"/>
<text text-anchor="start" x="199.5" y="-1287.5" font-family="Helvetica,sans-Serif" font-size="10.00" fill="#000000">std::unordered_map</text>
<text text-anchor="start" x="199.5" y="-1276.5" font-family="Helvetica,sans-Serif" font-size="10.00" fill="#000000">&lt; const char *, std</text>
<text text-anchor="middle" x="243" y="-1265.5" font-family="Helvetica,sans-Serif" font-size="10.00" fill="#000000">::any &gt;</text>
<polyline fill="none" stroke="#bfbfbf" points="191.5,-1258.5 294.5,-1258.5 "/>
<text text-anchor="middle" x="243" y="-1246.5" font-family="Helvetica,sans-Serif" font-size="10.00" fill="#000000"> </text>
<polyline fill="none" stroke="#bfbfbf" points="191.5,-1239.5 294.5,-1239.5 "/>
<text text-anchor="middle" x="243" y="-1227.5" font-family="Helvetica,sans-Serif" font-size="10.00" fill="#000000"> </text>
</a>
</g>
</g>
<!-- Node8&#45;&gt;Node7 -->
<g id="edge6" class="edge">
<title>Node8&#45;&gt;Node7</title>
<path fill="none" stroke="#191970" d="M242.6109,-1210.1972C242.5402,-1201.1496 242.4664,-1191.7033 242.3956,-1182.6321"/>
<polygon fill="none" stroke="#191970" points="239.111,-1210.2293 242.6891,-1220.2016 246.1107,-1210.1746 239.111,-1210.2293"/>
</g>
<!-- Node9 -->
<g id="node8" class="node">
<title>Node9</title>
<polygon fill="#ffffff" stroke="#bfbfbf" points="439.5,-1347.5 439.5,-1404.5 468.5,-1404.5 468.5,-1347.5 439.5,-1347.5"/>
<text text-anchor="middle" x="454" y="-1392.5" font-family="Helvetica,sans-Serif" font-size="10.00" fill="#000000">K</text>
<polyline fill="none" stroke="#bfbfbf" points="439.5,-1385.5 468.5,-1385.5 "/>
<text text-anchor="middle" x="454" y="-1373.5" font-family="Helvetica,sans-Serif" font-size="10.00" fill="#000000"> </text>
<polyline fill="none" stroke="#bfbfbf" points="439.5,-1366.5 468.5,-1366.5 "/>
<text text-anchor="middle" x="454" y="-1354.5" font-family="Helvetica,sans-Serif" font-size="10.00" fill="#000000"> </text>
</g>
<!-- Node9&#45;&gt;Node8 -->
<g id="edge7" class="edge">
<title>Node9&#45;&gt;Node8</title>
<path fill="none" stroke="#404040" d="M439.3852,-1362.2472C424.8359,-1349.2163 401.3612,-1329.9156 378,-1318 353.199,-1305.35 343.7427,-1310.603 318,-1300 313.9407,-1298.328 309.8119,-1296.5045 305.6847,-1294.5871"/>
<polygon fill="none" stroke="#404040" points="305.6166,-1294.5542 298.4738,-1295.5448 294.8122,-1289.3324 301.955,-1288.3419 305.6166,-1294.5542"/>
<text text-anchor="middle" x="412.5" y="-1321" font-family="Helvetica,sans-Serif" font-size="10.00" fill="#000000"> +keys</text>
</g>
<!-- Node15 -->
<g id="node14" class="node">
<title>Node15</title>
<g id="a_node14"><a xlink:title="STL class. ">
<polygon fill="#ffffff" stroke="#bfbfbf" points="327.5,-1220.5 327.5,-1299.5 440.5,-1299.5 440.5,-1220.5 327.5,-1220.5"/>
<text text-anchor="start" x="335.5" y="-1287.5" font-family="Helvetica,sans-Serif" font-size="10.00" fill="#000000">std::unordered_set</text>
<text text-anchor="start" x="335.5" y="-1276.5" font-family="Helvetica,sans-Serif" font-size="10.00" fill="#000000">&lt; typename nodeview</text>
<text text-anchor="middle" x="384" y="-1265.5" font-family="Helvetica,sans-Serif" font-size="10.00" fill="#000000">_t::value_type &gt;</text>
<polyline fill="none" stroke="#bfbfbf" points="327.5,-1258.5 440.5,-1258.5 "/>
<text text-anchor="middle" x="384" y="-1246.5" font-family="Helvetica,sans-Serif" font-size="10.00" fill="#000000"> </text>
<polyline fill="none" stroke="#bfbfbf" points="327.5,-1239.5 440.5,-1239.5 "/>
<text text-anchor="middle" x="384" y="-1227.5" font-family="Helvetica,sans-Serif" font-size="10.00" fill="#000000"> </text>
</a>
</g>
</g>
<!-- Node9&#45;&gt;Node15 -->
<g id="edge15" class="edge">
<title>Node9&#45;&gt;Node15</title>
<path fill="none" stroke="#404040" d="M445.2689,-1347.4161C441.7755,-1337.7601 437.3076,-1327.1224 432,-1318 430.3619,-1315.1845 428.5878,-1312.3674 426.7197,-1309.5759"/>
<polygon fill="none" stroke="#404040" points="426.5905,-1309.3948 419.8491,-1306.8348 419.6193,-1299.6273 426.3608,-1302.1873 426.5905,-1309.3948"/>
<text text-anchor="middle" x="453.5" y="-1321" font-family="Helvetica,sans-Serif" font-size="10.00" fill="#000000"> +keys</text>
</g>
<!-- Node17 -->
<g id="node16" class="node">
<title>Node17</title>
<g id="a_node16"><a xlink:title="STL class. ">
<polygon fill="#ffffff" stroke="#bfbfbf" points="581,-1226 581,-1294 679,-1294 679,-1226 581,-1226"/>
<text text-anchor="start" x="589" y="-1282" font-family="Helvetica,sans-Serif" font-size="10.00" fill="#000000">std::unordered_set</text>
<text text-anchor="middle" x="630" y="-1271" font-family="Helvetica,sans-Serif" font-size="10.00" fill="#000000">&lt; node_t &gt;</text>
<polyline fill="none" stroke="#bfbfbf" points="581,-1264 679,-1264 "/>
<text text-anchor="middle" x="630" y="-1252" font-family="Helvetica,sans-Serif" font-size="10.00" fill="#000000"> </text>
<polyline fill="none" stroke="#bfbfbf" points="581,-1245 679,-1245 "/>
<text text-anchor="middle" x="630" y="-1233" font-family="Helvetica,sans-Serif" font-size="10.00" fill="#000000"> </text>
</a>
</g>
</g>
<!-- Node9&#45;&gt;Node17 -->
<g id="edge19" class="edge">
<title>Node9&#45;&gt;Node17</title>
<path fill="none" stroke="#404040" d="M468.5935,-1366.7144C483.3658,-1357.2891 506.8419,-1342.2396 527,-1329 541.187,-1319.6821 556.4074,-1309.5573 570.6782,-1300.007"/>
<polygon fill="none" stroke="#404040" points="570.9051,-1299.855 573.6624,-1293.1918 580.8735,-1293.1742 578.1162,-1299.8374 570.9051,-1299.855"/>
<text text-anchor="middle" x="557.5" y="-1321" font-family="Helvetica,sans-Serif" font-size="10.00" fill="#000000"> +keys</text>
</g>
<!-- Node19 -->
<g id="node18" class="node">
<title>Node19</title>
<g id="a_node18"><a xlink:title="STL class. ">
<polygon fill="#ffffff" stroke="#bfbfbf" points="458.5,-1226 458.5,-1294 561.5,-1294 561.5,-1226 458.5,-1226"/>
<text text-anchor="start" x="466.5" y="-1282" font-family="Helvetica,sans-Serif" font-size="10.00" fill="#000000">std::unordered_map</text>
<text text-anchor="middle" x="510" y="-1271" font-family="Helvetica,sans-Serif" font-size="10.00" fill="#000000">&lt; node_t, index_t &gt;</text>
<polyline fill="none" stroke="#bfbfbf" points="458.5,-1264 561.5,-1264 "/>
<text text-anchor="middle" x="510" y="-1252" font-family="Helvetica,sans-Serif" font-size="10.00" fill="#000000"> </text>
<polyline fill="none" stroke="#bfbfbf" points="458.5,-1245 561.5,-1245 "/>
<text text-anchor="middle" x="510" y="-1233" font-family="Helvetica,sans-Serif" font-size="10.00" fill="#000000"> </text>
</a>
</g>
</g>
<!-- Node9&#45;&gt;Node19 -->
<g id="edge22" class="edge">
<title>Node9&#45;&gt;Node19</title>
<path fill="none" stroke="#404040" d="M468.8061,-1357.5815C475.0284,-1349.2136 481.9732,-1338.9712 487,-1329 490.7046,-1321.6516 494.0136,-1313.5729 496.8883,-1305.6118"/>
<polygon fill="none" stroke="#404040" points="496.9281,-1305.4943 495.0687,-1298.5271 500.7849,-1294.131 502.6443,-1301.0982 496.9281,-1305.4943"/>
<text text-anchor="middle" x="507.5" y="-1321" font-family="Helvetica,sans-Serif" font-size="10.00" fill="#000000"> +keys</text>
</g>
<!-- Node21 -->
<g id="node20" class="node">
<title>Node21</title>
<g id="a_node20"><a xlink:title="STL class. ">
<polygon fill="#ffffff" stroke="#bfbfbf" points="70.5,-1226 70.5,-1294 173.5,-1294 173.5,-1226 70.5,-1226"/>
<text text-anchor="start" x="78.5" y="-1282" font-family="Helvetica,sans-Serif" font-size="10.00" fill="#000000">std::unordered_map</text>
<text text-anchor="middle" x="122" y="-1271" font-family="Helvetica,sans-Serif" font-size="10.00" fill="#000000">&lt; index_t, node_t &gt;</text>
<polyline fill="none" stroke="#bfbfbf" points="70.5,-1264 173.5,-1264 "/>
<text text-anchor="middle" x="122" y="-1252" font-family="Helvetica,sans-Serif" font-size="10.00" fill="#000000"> </text>
<polyline fill="none" stroke="#bfbfbf" points="70.5,-1245 173.5,-1245 "/>
<text text-anchor="middle" x="122" y="-1233" font-family="Helvetica,sans-Serif" font-size="10.00" fill="#000000"> </text>
</a>
</g>
</g>
<!-- Node9&#45;&gt;Node21 -->
<g id="edge26" class="edge">
<title>Node9&#45;&gt;Node21</title>
<path fill="none" stroke="#404040" d="M439.3336,-1373.6404C407.7125,-1368.2526 331.1177,-1353.578 271,-1329 261.9681,-1325.3075 261.0314,-1321.6938 252,-1318 222.2675,-1305.8393 211.3334,-1313.0941 182,-1300 181.7571,-1299.8916 181.514,-1299.7822 181.2709,-1299.6718"/>
<polygon fill="none" stroke="#404040" points="181.0511,-1299.561 173.8926,-1300.43 170.3371,-1294.1564 177.4957,-1293.2873 181.0511,-1299.561"/>
<text text-anchor="middle" x="286.5" y="-1321" font-family="Helvetica,sans-Serif" font-size="10.00" fill="#000000"> +keys</text>
</g>
<!-- Node10 -->
<g id="node9" class="node">
<title>Node10</title>
<polygon fill="#ffffff" stroke="#bfbfbf" points="187.5,-1347.5 187.5,-1404.5 216.5,-1404.5 216.5,-1347.5 187.5,-1347.5"/>
<text text-anchor="middle" x="202" y="-1392.5" font-family="Helvetica,sans-Serif" font-size="10.00" fill="#000000">T</text>
<polyline fill="none" stroke="#bfbfbf" points="187.5,-1385.5 216.5,-1385.5 "/>
<text text-anchor="middle" x="202" y="-1373.5" font-family="Helvetica,sans-Serif" font-size="10.00" fill="#000000"> </text>
<polyline fill="none" stroke="#bfbfbf" points="187.5,-1366.5 216.5,-1366.5 "/>
<text text-anchor="middle" x="202" y="-1354.5" font-family="Helvetica,sans-Serif" font-size="10.00" fill="#000000"> </text>
</g>
<!-- Node10&#45;&gt;Node8 -->
<g id="edge8" class="edge">
<title>Node10&#45;&gt;Node8</title>
<path fill="none" stroke="#404040" d="M199.224,-1347.4354C199.1489,-1337.8815 200.0153,-1327.3017 203,-1318 203.8198,-1315.4449 204.7929,-1312.9019 205.8869,-1310.3875"/>
<polygon fill="none" stroke="#404040" points="205.9305,-1310.3015 205.0768,-1303.1411 211.358,-1299.599 212.2118,-1306.7594 205.9305,-1310.3015"/>
<text text-anchor="middle" x="227.5" y="-1321" font-family="Helvetica,sans-Serif" font-size="10.00" fill="#000000"> +elements</text>
</g>
<!-- Node10&#45;&gt;Node19 -->
<g id="edge23" class="edge">
<title>Node10&#45;&gt;Node19</title>
<path fill="none" stroke="#404040" d="M216.6874,-1369.9138C237.0311,-1361.3598 274.8062,-1345.0273 306,-1329 314.679,-1324.5408 315.7832,-1321.2031 325,-1318 377.6026,-1299.7189 396.9259,-1319.7363 449,-1300 449.6846,-1299.7405 450.3694,-1299.4724 451.0541,-1299.1961"/>
<polygon fill="none" stroke="#404040" points="451.1864,-1299.1348 454.9483,-1292.9826 462.0741,-1294.0889 458.3122,-1300.2411 451.1864,-1299.1348"/>
<text text-anchor="middle" x="349.5" y="-1321" font-family="Helvetica,sans-Serif" font-size="10.00" fill="#000000"> +elements</text>
</g>
<!-- Node10&#45;&gt;Node21 -->
<g id="edge27" class="edge">
<title>Node10&#45;&gt;Node21</title>
<path fill="none" stroke="#404040" d="M187.3657,-1366.3723C175.3518,-1357.8128 158.6414,-1344.3076 148,-1329 143.0832,-1321.9272 138.9548,-1313.8054 135.5401,-1305.6747"/>
<polygon fill="none" stroke="#404040" points="135.4694,-1305.4897 129.589,-1301.3159 131.18,-1294.2825 137.0605,-1298.4563 135.4694,-1305.4897"/>
<text text-anchor="middle" x="172.5" y="-1321" font-family="Helvetica,sans-Serif" font-size="10.00" fill="#000000"> +elements</text>
</g>
<!-- Node11 -->
<g id="node10" class="node">
<title>Node11</title>
<polygon fill="#ffffff" stroke="#bfbfbf" points="92,-874.5 92,-931.5 158,-931.5 158,-874.5 92,-874.5"/>
<text text-anchor="middle" x="125" y="-919.5" font-family="Helvetica,sans-Serif" font-size="10.00" fill="#000000">nodeview_t</text>
<polyline fill="none" stroke="#bfbfbf" points="92,-912.5 158,-912.5 "/>
<text text-anchor="middle" x="125" y="-900.5" font-family="Helvetica,sans-Serif" font-size="10.00" fill="#000000"> </text>
<polyline fill="none" stroke="#bfbfbf" points="92,-893.5 158,-893.5 "/>
<text text-anchor="middle" x="125" y="-881.5" font-family="Helvetica,sans-Serif" font-size="10.00" fill="#000000"> </text>
</g>
<!-- Node11&#45;&gt;Node4 -->
<g id="edge16" class="edge">
<title>Node11&#45;&gt;Node4</title>
<path fill="none" stroke="#404040" d="M122.1651,-874.47C117.98,-816.3183 116.7036,-682.6884 182,-601 241.5771,-526.4667 344.558,-481.1415 413.7169,-457.5642"/>
<polygon fill="none" stroke="#404040" points="413.9787,-457.4771 418.4093,-451.7877 425.3652,-453.6891 420.9346,-459.3786 413.9787,-457.4771"/>
<text text-anchor="middle" x="205" y="-671.5" font-family="Helvetica,sans-Serif" font-size="10.00" fill="#000000"> +modules</text>
<text text-anchor="middle" x="205" y="-660.5" font-family="Helvetica,sans-Serif" font-size="10.00" fill="#000000">+nets</text>
</g>
<!-- Node11&#45;&gt;Node5 -->
<g id="edge9" class="edge">
<title>Node11&#45;&gt;Node5</title>
<path fill="none" stroke="#404040" d="M130.3329,-874.322C138.0407,-833.854 152.1224,-763.8006 159,-754 168.3388,-740.6922 197.5104,-721.3942 226.1618,-704.4987"/>
<polygon fill="none" stroke="#404040" points="226.2818,-704.429 229.4589,-697.9554 236.6564,-698.3982 233.4793,-704.8718 226.2818,-704.429"/>
<text text-anchor="middle" x="177" y="-797" font-family="Helvetica,sans-Serif" font-size="10.00" fill="#000000"> +_node</text>
</g>
<!-- Node12 -->
<g id="node11" class="node">
<title>Node12</title>
<polygon fill="#ffffff" stroke="#bfbfbf" points="462.5,-874.5 462.5,-931.5 527.5,-931.5 527.5,-874.5 462.5,-874.5"/>
<text text-anchor="middle" x="495" y="-919.5" font-family="Helvetica,sans-Serif" font-size="10.00" fill="#000000">nodemap_t</text>
<polyline fill="none" stroke="#bfbfbf" points="462.5,-912.5 527.5,-912.5 "/>
<text text-anchor="middle" x="495" y="-900.5" font-family="Helvetica,sans-Serif" font-size="10.00" fill="#000000"> </text>
<polyline fill="none" stroke="#bfbfbf" points="462.5,-893.5 527.5,-893.5 "/>
<text text-anchor="middle" x="495" y="-881.5" font-family="Helvetica,sans-Serif" font-size="10.00" fill="#000000"> </text>
</g>
<!-- Node12&#45;&gt;Node4 -->
<g id="edge28" class="edge">
<title>Node12&#45;&gt;Node4</title>
<path fill="none" stroke="#404040" d="M476.9151,-874.3175C471.8023,-865.2171 466.6445,-854.9328 463,-845 425.4938,-742.7792 426.7704,-708.9506 441,-601 442.9955,-585.8617 445.9847,-570.1354 449.4839,-554.6789"/>
<polygon fill="none" stroke="#404040" points="449.5009,-554.6066 446.9825,-547.8495 452.2512,-542.926 454.7695,-549.6831 449.5009,-554.6066"/>
<text text-anchor="middle" x="473.5" y="-666" font-family="Helvetica,sans-Serif" font-size="10.00" fill="#000000"> +module_map</text>
</g>
<!-- Node12&#45;&gt;Node5 -->
<g id="edge10" class="edge">
<title>Node12&#45;&gt;Node5</title>
<path fill="none" stroke="#404040" d="M469.2281,-874.2342C464.2166,-869.9304 458.7278,-865.9536 453,-863 415.5816,-843.7047 390.5967,-873.9186 360,-845 329.6825,-816.3453 351.9303,-792.9529 337,-754 336.1089,-751.675 335.1698,-749.3322 334.1913,-746.9814"/>
<polygon fill="none" stroke="#404040" points="334.177,-746.9487 328.1038,-743.0607 329.3568,-735.9593 335.43,-739.8473 334.177,-746.9487"/>
<text text-anchor="middle" x="390" y="-797" font-family="Helvetica,sans-Serif" font-size="10.00" fill="#000000"> +_node_map</text>
</g>
<!-- Node13 -->
<g id="node12" class="node">
<title>Node13</title>
<polygon fill="#ffffff" stroke="#bfbfbf" points="323.5,-863.5 323.5,-942.5 444.5,-942.5 444.5,-863.5 323.5,-863.5"/>
<text text-anchor="start" x="331.5" y="-930.5" font-family="Helvetica,sans-Serif" font-size="10.00" fill="#000000">std::vector&lt; py::set</text>
<text text-anchor="start" x="331.5" y="-919.5" font-family="Helvetica,sans-Serif" font-size="10.00" fill="#000000">&lt; typename nodeview_t</text>
<text text-anchor="middle" x="384" y="-908.5" font-family="Helvetica,sans-Serif" font-size="10.00" fill="#000000">::value_type &gt; &gt;</text>
<polyline fill="none" stroke="#bfbfbf" points="323.5,-901.5 444.5,-901.5 "/>
<text text-anchor="middle" x="384" y="-889.5" font-family="Helvetica,sans-Serif" font-size="10.00" fill="#000000"> </text>
<polyline fill="none" stroke="#bfbfbf" points="323.5,-882.5 444.5,-882.5 "/>
<text text-anchor="middle" x="384" y="-870.5" font-family="Helvetica,sans-Serif" font-size="10.00" fill="#000000"> </text>
</g>
<!-- Node13&#45;&gt;Node5 -->
<g id="edge12" class="edge">
<title>Node13&#45;&gt;Node5</title>
<path fill="none" stroke="#404040" d="M323.4818,-864.0522C317.8401,-858.2798 312.8175,-851.9174 309,-845 292.9802,-815.9715 287.4309,-780.1277 286.3775,-748.3414"/>
<polygon fill="none" stroke="#404040" points="286.3709,-747.9215 282.2768,-741.9853 286.1816,-735.923 290.2758,-741.8591 286.3709,-747.9215"/>
<text text-anchor="middle" x="323" y="-797" font-family="Helvetica,sans-Serif" font-size="10.00" fill="#000000"> +_adj</text>
</g>
<!-- Node14 -->
<g id="node13" class="node">
<title>Node14</title>
<g id="a_node13"><a xlink:href="classpy_1_1set.html" target="_top" xlink:title="{py::set\&lt; typename nodeview\l_t::value_type \&gt;\n||+ set()\l+ set()\l+ operator=()\l&#45; set()\l}">
<polygon fill="#ffffff" stroke="#000000" points="312.5,-1081.5 312.5,-1182.5 455.5,-1182.5 455.5,-1081.5 312.5,-1081.5"/>
<text text-anchor="start" x="320.5" y="-1170.5" font-family="Helvetica,sans-Serif" font-size="10.00" fill="#000000">py::set&lt; typename nodeview</text>
<text text-anchor="middle" x="384" y="-1159.5" font-family="Helvetica,sans-Serif" font-size="10.00" fill="#000000">_t::value_type &gt;</text>
<polyline fill="none" stroke="#000000" points="312.5,-1152.5 455.5,-1152.5 "/>
<text text-anchor="middle" x="384" y="-1140.5" font-family="Helvetica,sans-Serif" font-size="10.00" fill="#000000"> </text>
<polyline fill="none" stroke="#000000" points="312.5,-1133.5 455.5,-1133.5 "/>
<text text-anchor="start" x="320.5" y="-1121.5" font-family="Helvetica,sans-Serif" font-size="10.00" fill="#000000">+ set()</text>
<text text-anchor="start" x="320.5" y="-1110.5" font-family="Helvetica,sans-Serif" font-size="10.00" fill="#000000">+ set()</text>
<text text-anchor="start" x="320.5" y="-1099.5" font-family="Helvetica,sans-Serif" font-size="10.00" fill="#000000">+ operator=()</text>
<text text-anchor="start" x="320.5" y="-1088.5" font-family="Helvetica,sans-Serif" font-size="10.00" fill="#000000">&#45; set()</text>
</a>
</g>
</g>
<!-- Node14&#45;&gt;Node13 -->
<g id="edge13" class="edge">
<title>Node14&#45;&gt;Node13</title>
<path fill="none" stroke="#404040" d="M384,-1081.4615C384,-1043.9484 384,-992.949 384,-955.0745"/>
<polygon fill="none" stroke="#404040" points="384.0001,-954.7717 380,-948.7718 384,-942.7717 388,-948.7717 384.0001,-954.7717"/>
<text text-anchor="middle" x="408.5" y="-1009.5" font-family="Helvetica,sans-Serif" font-size="10.00" fill="#000000"> +elements</text>
</g>
<!-- Node15&#45;&gt;Node14 -->
<g id="edge14" class="edge">
<title>Node15&#45;&gt;Node14</title>
<path fill="none" stroke="#191970" d="M384,-1210.1972C384,-1201.1496 384,-1191.7033 384,-1182.6321"/>
<polygon fill="none" stroke="#191970" points="380.5001,-1210.2016 384,-1220.2016 387.5001,-1210.2017 380.5001,-1210.2016"/>
</g>
<!-- Node16 -->
<g id="node15" class="node">
<title>Node16</title>
<g id="a_node15"><a xlink:href="classpy_1_1set.html" target="_top" xlink:title="{py::set\&lt; node_t \&gt;\n||+ set()\l+ set()\l+ operator=()\l&#45; set()\l}">
<polygon fill="#ffffff" stroke="#000000" points="584,-967 584,-1057 678,-1057 678,-967 584,-967"/>
<text text-anchor="middle" x="631" y="-1045" font-family="Helvetica,sans-Serif" font-size="10.00" fill="#000000">py::set&lt; node_t &gt;</text>
<polyline fill="none" stroke="#000000" points="584,-1038 678,-1038 "/>
<text text-anchor="middle" x="631" y="-1026" font-family="Helvetica,sans-Serif" font-size="10.00" fill="#000000"> </text>
<polyline fill="none" stroke="#000000" points="584,-1019 678,-1019 "/>
<text text-anchor="start" x="592" y="-1007" font-family="Helvetica,sans-Serif" font-size="10.00" fill="#000000">+ set()</text>
<text text-anchor="start" x="592" y="-996" font-family="Helvetica,sans-Serif" font-size="10.00" fill="#000000">+ set()</text>
<text text-anchor="start" x="592" y="-985" font-family="Helvetica,sans-Serif" font-size="10.00" fill="#000000">+ operator=()</text>
<text text-anchor="start" x="592" y="-974" font-family="Helvetica,sans-Serif" font-size="10.00" fill="#000000">&#45; set()</text>
</a>
</g>
</g>
<!-- Node16&#45;&gt;Node4 -->
<g id="edge17" class="edge">
<title>Node16&#45;&gt;Node4</title>
<path fill="none" stroke="#404040" d="M635.9923,-966.8634C642.844,-889.3935 649.6139,-727.27 604,-601 592.3974,-568.8813 572.4821,-537.5387 552.2272,-511.0024"/>
<polygon fill="none" stroke="#404040" points="552.1524,-510.9067 545.3063,-508.6415 544.7642,-501.4507 551.6103,-503.716 552.1524,-510.9067"/>
<text text-anchor="middle" x="674.5" y="-797" font-family="Helvetica,sans-Serif" font-size="10.00" fill="#000000"> +module_fixed</text>
</g>
<!-- Node17&#45;&gt;Node16 -->
<g id="edge18" class="edge">
<title>Node17&#45;&gt;Node16</title>
<path fill="none" stroke="#191970" d="M630.1794,-1215.5047C630.3598,-1170.7786 630.6363,-1102.1897 630.8177,-1057.211"/>
<polygon fill="none" stroke="#191970" points="626.6784,-1215.763 630.138,-1225.777 633.6784,-1215.7913 626.6784,-1215.763"/>
</g>
<!-- Node18 -->
<g id="node17" class="node">
<title>Node18</title>
<g id="a_node17"><a xlink:href="classpy_1_1dict.html" target="_top" xlink:title="{py::dict\&lt; node_t, index_t \&gt;\n||+ dict()\l+ dict()\l+ operator=()\l&#45; dict()\l}">
<polygon fill="#ffffff" stroke="#000000" points="472,-754.5 472,-844.5 606,-844.5 606,-754.5 472,-754.5"/>
<text text-anchor="middle" x="539" y="-832.5" font-family="Helvetica,sans-Serif" font-size="10.00" fill="#000000">py::dict&lt; node_t, index_t &gt;</text>
<polyline fill="none" stroke="#000000" points="472,-825.5 606,-825.5 "/>
<text text-anchor="middle" x="539" y="-813.5" font-family="Helvetica,sans-Serif" font-size="10.00" fill="#000000"> </text>
<polyline fill="none" stroke="#000000" points="472,-806.5 606,-806.5 "/>
<text text-anchor="start" x="480" y="-794.5" font-family="Helvetica,sans-Serif" font-size="10.00" fill="#000000">+ dict()</text>
<text text-anchor="start" x="480" y="-783.5" font-family="Helvetica,sans-Serif" font-size="10.00" fill="#000000">+ dict()</text>
<text text-anchor="start" x="480" y="-772.5" font-family="Helvetica,sans-Serif" font-size="10.00" fill="#000000">+ operator=()</text>
<text text-anchor="start" x="480" y="-761.5" font-family="Helvetica,sans-Serif" font-size="10.00" fill="#000000">&#45; dict()</text>
</a>
</g>
</g>
<!-- Node18&#45;&gt;Node4 -->
<g id="edge20" class="edge">
<title>Node18&#45;&gt;Node4</title>
<path fill="none" stroke="#404040" d="M532.27,-754.3221C524.8687,-704.6374 512.6785,-622.805 502.5313,-554.6873"/>
<polygon fill="none" stroke="#404040" points="502.4953,-554.4449 497.6549,-549.0998 500.7272,-542.5759 505.5676,-547.921 502.4953,-554.4449"/>
<text text-anchor="middle" x="565" y="-666" font-family="Helvetica,sans-Serif" font-size="10.00" fill="#000000"> +node_up_map</text>
</g>
<!-- Node19&#45;&gt;Node18 -->
<g id="edge21" class="edge">
<title>Node19&#45;&gt;Node18</title>
<path fill="none" stroke="#191970" d="M514.4891,-1215.7188C520.5004,-1154.4907 530.9879,-1040.4847 536,-943 537.6889,-910.1508 538.4338,-873.0251 538.7591,-844.7667"/>
<polygon fill="none" stroke="#191970" points="510.9932,-1215.506 513.4927,-1225.8018 517.9593,-1216.1945 510.9932,-1215.506"/>
</g>
<!-- Node20 -->
<g id="node19" class="node">
<title>Node20</title>
<g id="a_node19"><a xlink:href="classpy_1_1dict.html" target="_top" xlink:title="{py::dict\&lt; index_t,\l node_t \&gt;\n||+ dict()\l+ dict()\l+ operator=()\l&#45; dict()\l}">
<polygon fill="#ffffff" stroke="#000000" points="0,-961.5 0,-1062.5 92,-1062.5 92,-961.5 0,-961.5"/>
<text text-anchor="start" x="8" y="-1050.5" font-family="Helvetica,sans-Serif" font-size="10.00" fill="#000000">py::dict&lt; index_t,</text>
<text text-anchor="middle" x="46" y="-1039.5" font-family="Helvetica,sans-Serif" font-size="10.00" fill="#000000"> node_t &gt;</text>
<polyline fill="none" stroke="#000000" points="0,-1032.5 92,-1032.5 "/>
<text text-anchor="middle" x="46" y="-1020.5" font-family="Helvetica,sans-Serif" font-size="10.00" fill="#000000"> </text>
<polyline fill="none" stroke="#000000" points="0,-1013.5 92,-1013.5 "/>
<text text-anchor="start" x="8" y="-1001.5" font-family="Helvetica,sans-Serif" font-size="10.00" fill="#000000">+ dict()</text>
<text text-anchor="start" x="8" y="-990.5" font-family="Helvetica,sans-Serif" font-size="10.00" fill="#000000">+ dict()</text>
<text text-anchor="start" x="8" y="-979.5" font-family="Helvetica,sans-Serif" font-size="10.00" fill="#000000">+ operator=()</text>
<text text-anchor="start" x="8" y="-968.5" font-family="Helvetica,sans-Serif" font-size="10.00" fill="#000000">&#45; dict()</text>
</a>
</g>
</g>
<!-- Node20&#45;&gt;Node4 -->
<g id="edge24" class="edge">
<title>Node20&#45;&gt;Node4</title>
<path fill="none" stroke="#404040" d="M31.6184,-961.4416C18.9898,-908.6109 5.5483,-823.8476 26,-754 48.6921,-676.5006 65.3052,-656.4618 124,-601 207.1654,-522.4154 334.5223,-476.7407 413.6245,-454.3691"/>
<polygon fill="none" stroke="#404040" points="413.8473,-454.3075 418.563,-448.852 425.4125,-451.1067 420.6968,-456.5622 413.8473,-454.3075"/>
<text text-anchor="middle" x="71.5" y="-802.5" font-family="Helvetica,sans-Serif" font-size="10.00" fill="#000000"> +cluster_down_map</text>
<text text-anchor="middle" x="71.5" y="-791.5" font-family="Helvetica,sans-Serif" font-size="10.00" fill="#000000">+node_down_map</text>
</g>
<!-- Node21&#45;&gt;Node20 -->
<g id="edge25" class="edge">
<title>Node21&#45;&gt;Node20</title>
<path fill="none" stroke="#191970" d="M108.5673,-1216.1669C95.4017,-1173.2054 75.3496,-1107.7724 61.5118,-1062.6176"/>
<polygon fill="none" stroke="#191970" points="105.2358,-1217.2414 111.5123,-1225.777 111.9286,-1215.1904 105.2358,-1217.2414"/>
</g>
<!-- Node22 -->
<g id="node21" class="node">
<title>Node22</title>
<polygon fill="#ffffff" stroke="#bfbfbf" points="685,-640 685,-697 777,-697 777,-640 685,-640"/>
<text text-anchor="middle" x="731" y="-685" font-family="Helvetica,sans-Serif" font-size="10.00" fill="#000000">std::vector&lt; int &gt;</text>
<polyline fill="none" stroke="#bfbfbf" points="685,-678 777,-678 "/>
<text text-anchor="start" x="693" y="-666" font-family="Helvetica,sans-Serif" font-size="10.00" fill="#000000">+ elements</text>
<polyline fill="none" stroke="#bfbfbf" points="685,-659 777,-659 "/>
<text text-anchor="middle" x="731" y="-647" font-family="Helvetica,sans-Serif" font-size="10.00" fill="#000000"> </text>
</g>
<!-- Node22&#45;&gt;Node3 -->
<g id="edge30" class="edge">
<title>Node22&#45;&gt;Node3</title>
<path fill="none" stroke="#404040" d="M738.1551,-639.6163C742.5209,-617.8945 746.478,-587.4514 742,-561 726.0768,-466.942 687.6834,-364.4492 658.1841,-294.8326"/>
<polygon fill="none" stroke="#404040" points="658.0642,-294.552 652.0271,-290.6082 653.3456,-283.5187 659.3827,-287.4625 658.0642,-294.552"/>
<text text-anchor="middle" x="748" y="-434.5" font-family="Helvetica,sans-Serif" font-size="10.00" fill="#000000"> #diff</text>
</g>
<!-- Node22&#45;&gt;Node4 -->
<g id="edge29" class="edge">
<title>Node22&#45;&gt;Node4</title>
<path fill="none" stroke="#404040" d="M710.4678,-639.618C693.7896,-617.0731 669.0093,-585.5621 644,-561 616.5124,-534.0039 583.2719,-507.3012 554.3055,-485.6293"/>
<polygon fill="none" stroke="#404040" points="554.3006,-485.6257 547.0984,-485.266 544.6604,-478.4795 551.8626,-478.8392 554.3006,-485.6257"/>
<text text-anchor="middle" x="702.5" y="-575" font-family="Helvetica,sans-Serif" font-size="10.00" fill="#000000"> +module_weight</text>
<text text-anchor="middle" x="702.5" y="-564" font-family="Helvetica,sans-Serif" font-size="10.00" fill="#000000">+net_weight</text>
</g>
<!-- Node23 -->
<g id="node22" class="node">
<title>Node23</title>
<polygon fill="#ffffff" stroke="#bfbfbf" points="693.5,-182.5 693.5,-239.5 792.5,-239.5 792.5,-182.5 693.5,-182.5"/>
<text text-anchor="middle" x="743" y="-227.5" font-family="Helvetica,sans-Serif" font-size="10.00" fill="#000000">std::vector&lt; bool &gt;</text>
<polyline fill="none" stroke="#bfbfbf" points="693.5,-220.5 792.5,-220.5 "/>
<text text-anchor="start" x="701.5" y="-208.5" font-family="Helvetica,sans-Serif" font-size="10.00" fill="#000000">+ elements</text>
<polyline fill="none" stroke="#bfbfbf" points="693.5,-201.5 792.5,-201.5 "/>
<text text-anchor="middle" x="743" y="-189.5" font-family="Helvetica,sans-Serif" font-size="10.00" fill="#000000"> </text>
</g>
<!-- Node23&#45;&gt;Node2 -->
<g id="edge31" class="edge">
<title>Node23&#45;&gt;Node2</title>
<path fill="none" stroke="#404040" d="M732.2004,-182.1721C723.9129,-160.0496 712.2136,-128.8202 702.0901,-101.7969"/>
<polygon fill="none" stroke="#404040" points="702.0723,-101.7492 696.2216,-97.5338 697.8624,-90.5118 703.7131,-94.7272 702.0723,-101.7492"/>
<text text-anchor="middle" x="724.5" y="-112" font-family="Helvetica,sans-Serif" font-size="10.00" fill="#000000"> &#45;illegal</text>
</g>
</g>
</svg>
        <g id="navigator" transform="translate(0 0)" fill="#404254">
                <rect fill="#f2f5e9" fill-opacity="0.5" stroke="#606060" stroke-width=".5" x="0" y="0" width="60" height="60"/>
                <use id="zoomplus" xlink:href="#zoomPlus" x="17" y="9" onmousedown="handleZoom(evt,'in')"/>
                <use id="zoomminus" xlink:href="#zoomMin" x="42" y="9" onmousedown="handleZoom(evt,'out')"/>
                <use id="reset" xlink:href="#resetDef" x="30" y="36" onmousedown="handleReset()"/>
                <g id="arrowUp" xlink:href="#dirArrow" transform="translate(30 24)" onmousedown="handlePan(0,-1)">
                  <use xlink:href="#rim" fill="#404040">
                        <set attributeName="fill" to="#808080" begin="arrowUp.mouseover" end="arrowUp.mouseout"/>
                  </use>
                  <path fill="none" stroke="white" stroke-width="1.5" d="M0,-3.0v7 M-2.5,-0.5L0,-3.0L2.5,-0.5"/>
                </g>
                <g id="arrowRight" xlink:href="#dirArrow" transform="rotate(90) translate(36 -43)" onmousedown="handlePan(1,0)">
                  <use xlink:href="#rim" fill="#404040">
                        <set attributeName="fill" to="#808080" begin="arrowRight.mouseover" end="arrowRight.mouseout"/>
                  </use>
                  <path fill="none" stroke="white" stroke-width="1.5" d="M0,-3.0v7 M-2.5,-0.5L0,-3.0L2.5,-0.5"/>
                </g>
                <g id="arrowDown" xlink:href="#dirArrow" transform="rotate(180) translate(-30 -48)" onmousedown="handlePan(0,1)">
                  <use xlink:href="#rim" fill="#404040">
                        <set attributeName="fill" to="#808080" begin="arrowDown.mouseover" end="arrowDown.mouseout"/>
                  </use>
                  <path fill="none" stroke="white" stroke-width="1.5" d="M0,-3.0v7 M-2.5,-0.5L0,-3.0L2.5,-0.5"/>
                </g>
                <g id="arrowLeft" xlink:href="#dirArrow" transform="rotate(270) translate(-36 17)" onmousedown="handlePan(-1,0)">
                  <use xlink:href="#rim" fill="#404040">
                        <set attributeName="fill" to="#808080" begin="arrowLeft.mouseover" end="arrowLeft.mouseout"/>
                  </use>
                  <path fill="none" stroke="white" stroke-width="1.5" d="M0,-3.0v7 M-2.5,-0.5L0,-3.0L2.5,-0.5"/>
                </g>
        </g>
        <svg viewBox="0 0 15 15" width="100%" height="30px" preserveAspectRatio="xMaxYMin meet">
         <g id="arrow_out" transform="scale(0.3 0.3)">
          <a xlink:href="classFMKWayConstrMgr__coll__graph_org.svg" target="_base">
           <rect id="button" ry="5" rx="5" y="6" x="6" height="38" width="38"
                fill="#f2f5e9" fill-opacity="0.5" stroke="#606060" stroke-width="1.0"/>
           <path id="arrow"
             d="M 11.500037,31.436501 C 11.940474,20.09759 22.043105,11.32322 32.158766,21.979434 L 37.068811,17.246167 C 37.068811,17.246167 37.088388,32 37.088388,32 L 22.160133,31.978069 C 22.160133,31.978069 26.997745,27.140456 26.997745,27.140456 C 18.528582,18.264221 13.291696,25.230495 11.500037,31.436501 z"
             style="fill:#404040;"/>
          </a>
         </g>
        </svg>
</svg>
