<?xml version="1.0" encoding="UTF-8" standalone="no"?>
<!DOCTYPE svg PUBLIC "-//W3C//DTD SVG 1.1//EN"
 "http://www.w3.org/Graphics/SVG/1.1/DTD/svg11.dtd">
<!-- Generated by graphviz version 2.40.1 (20161225.0304)
 -->
<!-- Title: iter::impl::TupleStarMapper&lt; Func, TupType, Is &gt;::IteratorData&lt; TupTypeT &gt; Pages: 1 -->
<svg width="160pt" height="215pt"
 viewBox="0.00 0.00 160.00 215.00" xmlns="http://www.w3.org/2000/svg" xmlns:xlink="http://www.w3.org/1999/xlink">
<g id="graph0" class="graph" transform="scale(1 1) rotate(0) translate(4 211)">
<title>iter::impl::TupleStarMapper&lt; Func, TupType, Is &gt;::IteratorData&lt; TupTypeT &gt;</title>
<polygon fill="#ffffff" stroke="transparent" points="-4,4 -4,-211 156,-211 156,4 -4,4"/>
<!-- Node1 -->
<g id="node1" class="node">
<title>Node1</title>
<polygon fill="#bfbfbf" stroke="#000000" points="0,-.5 0,-90.5 152,-90.5 152,-.5 0,-.5"/>
<text text-anchor="start" x="8" y="-78.5" font-family="Helvetica,sans-Serif" font-size="10.00" fill="#000000">iter::impl::TupleStarMapper</text>
<text text-anchor="start" x="8" y="-67.5" font-family="Helvetica,sans-Serif" font-size="10.00" fill="#000000">&lt; Func, TupType, Is &gt;::Iterator</text>
<text text-anchor="middle" x="76" y="-56.5" font-family="Helvetica,sans-Serif" font-size="10.00" fill="#000000">Data&lt; TupTypeT &gt;</text>
<polyline fill="none" stroke="#000000" points="0,-49.5 152,-49.5 "/>
<text text-anchor="middle" x="76" y="-37.5" font-family="Helvetica,sans-Serif" font-size="10.00" fill="#000000"> </text>
<polyline fill="none" stroke="#000000" points="0,-30.5 152,-30.5 "/>
<text text-anchor="start" x="8" y="-18.5" font-family="Helvetica,sans-Serif" font-size="10.00" fill="#000000">+ IteratorData()</text>
<text text-anchor="start" x="8" y="-7.5" font-family="Helvetica,sans-Serif" font-size="10.00" fill="#000000">+ get_and_call_with_tuple()</text>
</g>
<!-- Node2 -->
<g id="node2" class="node">
<title>Node2</title>
<polygon fill="#ffffff" stroke="#bfbfbf" points="17.5,-138.5 17.5,-206.5 134.5,-206.5 134.5,-138.5 17.5,-138.5"/>
<text text-anchor="start" x="25.5" y="-194.5" font-family="Helvetica,sans-Serif" font-size="10.00" fill="#000000">std::array&lt; CallerFunc,</text>
<text text-anchor="middle" x="76" y="-183.5" font-family="Helvetica,sans-Serif" font-size="10.00" fill="#000000"> sizeof...(Is)&gt;</text>
<polyline fill="none" stroke="#bfbfbf" points="17.5,-176.5 134.5,-176.5 "/>
<text text-anchor="start" x="25.5" y="-164.5" font-family="Helvetica,sans-Serif" font-size="10.00" fill="#000000">+ elements</text>
<polyline fill="none" stroke="#bfbfbf" points="17.5,-157.5 134.5,-157.5 "/>
<text text-anchor="middle" x="76" y="-145.5" font-family="Helvetica,sans-Serif" font-size="10.00" fill="#000000"> </text>
</g>
<!-- Node2&#45;&gt;Node1 -->
<g id="edge1" class="edge">
<title>Node2&#45;&gt;Node1</title>
<path fill="none" stroke="#404040" d="M76,-138.4663C76,-127.4452 76,-114.9023 76,-102.6754"/>
<polygon fill="none" stroke="#404040" points="76.0001,-102.6219 72,-96.6219 76,-90.6219 80,-96.6218 76.0001,-102.6219"/>
<text text-anchor="middle" x="95" y="-112" font-family="Helvetica,sans-Serif" font-size="10.00" fill="#000000"> +callers</text>
</g>
</g>
</svg>
