<?xml version="1.0" encoding="UTF-8" standalone="no"?>
<!DOCTYPE svg PUBLIC "-//W3C//DTD SVG 1.1//EN"
 "http://www.w3.org/Graphics/SVG/1.1/DTD/svg11.dtd">
<!-- Generated by graphviz version 2.40.1 (20161225.0304)
 -->
<!-- Title: iter::impl::IterIterWrapper::get Pages: 1 -->
<!--zoomable 717 -->
<svg id="main" version="1.1" xmlns="http://www.w3.org/2000/svg" xmlns:xlink="http://www.w3.org/1999/xlink" xml:space="preserve" onload="init(evt)">
<style type="text/css"><![CDATA[
.edge:hover path { stroke: red; }
.edge:hover polygon { stroke: red; fill: red; }
]]></style>
<script type="text/javascript"><![CDATA[
var edges = document.getElementsByTagName('g');
if (edges && edges.length) {
  for (var i=0;i<edges.length;i++) {
    if (edges[i].id.substr(0,4)=='edge') {
      edges[i].setAttribute('class','edge');
    }
  }
}
]]></script>
        <defs>
                <circle id="rim" cx="0" cy="0" r="7"/>
                <circle id="rim2" cx="0" cy="0" r="3.5"/>
                <g id="zoomPlus">
                        <use xlink:href="#rim" fill="#404040">
                                <set attributeName="fill" to="#808080" begin="zoomplus.mouseover" end="zoomplus.mouseout"/>
                        </use>
                        <path d="M-4,0h8M0,-4v8" fill="none" stroke="white" stroke-width="1.5" pointer-events="none"/>
                </g>
                <g id="zoomMin">
                        <use xlink:href="#rim" fill="#404040">
                                <set attributeName="fill" to="#808080" begin="zoomminus.mouseover" end="zoomminus.mouseout"/>
                        </use>
                        <path d="M-4,0h8" fill="none" stroke="white" stroke-width="1.5" pointer-events="none"/>
                </g>
                <g id="dirArrow">
                        <path fill="none" stroke="white" stroke-width="1.5" d="M0,-3.0v7 M-2.5,-0.5L0,-3.0L2.5,-0.5"/>
                </g>
               <g id="resetDef">
                       <use xlink:href="#rim2" fill="#404040">
                               <set attributeName="fill" to="#808080" begin="reset.mouseover" end="reset.mouseout"/>
                       </use>
               </g>
        </defs>

<script type="text/javascript">
var viewWidth = 503;
var viewHeight = 717;
var sectionId = 'dynsection-4';
</script>
<script xlink:href="svgpan.js"/>
<svg id="graph" class="graph">
<g id="viewport">
<title>iter::impl::IterIterWrapper::get</title>
<polygon fill="#ffffff" stroke="transparent" points="-4,4 -4,-712.5 499,-712.5 499,4 -4,4"/>
<!-- Node38 -->
<g id="node1" class="node">
<title>Node38</title>
<polygon fill="#bfbfbf" stroke="#000000" points="0,-388.5 0,-407.5 145,-407.5 145,-388.5 0,-388.5"/>
<text text-anchor="middle" x="72.5" y="-395.5" font-family="Helvetica,sans-Serif" font-size="10.00" fill="#000000">iter::impl::IterIterWrapper::get</text>
</g>
<!-- Node39 -->
<g id="node2" class="node">
<title>Node39</title>
<g id="a_node2"><a xlink:href="classiter_1_1impl_1_1WindowSlider_1_1Iterator.html#ae79a1aa7563e9a2bb3429af5eba94a0c" target="_top" xlink:title="iter::impl::WindowSlider\l::Iterator::Iterator">
<polygon fill="#ffffff" stroke="#000000" points="206.5,-678 206.5,-708 326.5,-708 326.5,-678 206.5,-678"/>
<text text-anchor="start" x="214.5" y="-696" font-family="Helvetica,sans-Serif" font-size="10.00" fill="#000000">iter::impl::WindowSlider</text>
<text text-anchor="middle" x="266.5" y="-685" font-family="Helvetica,sans-Serif" font-size="10.00" fill="#000000">::Iterator::Iterator</text>
</a>
</g>
</g>
<!-- Node38&#45;&gt;Node39 -->
<g id="edge1" class="edge">
<title>Node38&#45;&gt;Node39</title>
<path fill="none" stroke="#191970" d="M74.4974,-417.6938C80.6216,-467.5225 103.6967,-599.5668 181,-669 188.2261,-675.4904 197.0737,-680.2398 206.307,-683.7121"/>
<polygon fill="#191970" stroke="#191970" points="77.9591,-417.1578 73.3572,-407.6147 71.0035,-417.9448 77.9591,-417.1578"/>
</g>
<!-- Node40 -->
<g id="node3" class="node">
<title>Node40</title>
<g id="a_node3"><a xlink:href="classiter_1_1impl_1_1Combinator_1_1Iterator.html#ab5b7eca7c0f877198dfda96395519b31" target="_top" xlink:title="iter::impl::Combinator\l::Iterator::Iterator">
<polygon fill="#ffffff" stroke="#000000" points="211.5,-629 211.5,-659 321.5,-659 321.5,-629 211.5,-629"/>
<text text-anchor="start" x="219.5" y="-647" font-family="Helvetica,sans-Serif" font-size="10.00" fill="#000000">iter::impl::Combinator</text>
<text text-anchor="middle" x="266.5" y="-636" font-family="Helvetica,sans-Serif" font-size="10.00" fill="#000000">::Iterator::Iterator</text>
</a>
</g>
</g>
<!-- Node38&#45;&gt;Node40 -->
<g id="edge2" class="edge">
<title>Node38&#45;&gt;Node40</title>
<path fill="none" stroke="#191970" d="M76.3984,-417.5794C86.0553,-460.8605 115.2235,-565.165 181,-620 189.6448,-627.2068 200.3117,-632.255 211.1445,-635.7896"/>
<polygon fill="#191970" stroke="#191970" points="79.8093,-416.7919 74.3088,-407.7368 72.9619,-418.2457 79.8093,-416.7919"/>
</g>
<!-- Node41 -->
<g id="node4" class="node">
<title>Node41</title>
<g id="a_node4"><a xlink:href="classiter_1_1impl_1_1Permuter_1_1Iterator.html#af9ef8d96cc8b483cd477ad618e63c799" target="_top" xlink:title="iter::impl::Permuter\l::Iterator::Iterator">
<polygon fill="#ffffff" stroke="#000000" points="216.5,-580 216.5,-610 316.5,-610 316.5,-580 216.5,-580"/>
<text text-anchor="start" x="224.5" y="-598" font-family="Helvetica,sans-Serif" font-size="10.00" fill="#000000">iter::impl::Permuter</text>
<text text-anchor="middle" x="266.5" y="-587" font-family="Helvetica,sans-Serif" font-size="10.00" fill="#000000">::Iterator::Iterator</text>
</a>
</g>
</g>
<!-- Node38&#45;&gt;Node41 -->
<g id="edge3" class="edge">
<title>Node38&#45;&gt;Node41</title>
<path fill="none" stroke="#191970" d="M80.0458,-417.3125C94.4863,-451.8421 129.263,-524.3433 181,-565 191.2661,-573.0675 203.8629,-579.0572 216.1999,-583.4685"/>
<polygon fill="#191970" stroke="#191970" points="83.226,-415.8413 76.2208,-407.8928 76.7403,-418.4749 83.226,-415.8413"/>
</g>
<!-- Node42 -->
<g id="node5" class="node">
<title>Node42</title>
<g id="a_node5"><a xlink:href="classiter_1_1impl_1_1Chunker_1_1Iterator.html#a4e9c1c7e4dff42939b0159be2eb6a6d9" target="_top" xlink:title="iter::impl::Chunker\l::Iterator::Iterator">
<polygon fill="#ffffff" stroke="#000000" points="393,-342 393,-372 490,-372 490,-342 393,-342"/>
<text text-anchor="start" x="401" y="-360" font-family="Helvetica,sans-Serif" font-size="10.00" fill="#000000">iter::impl::Chunker</text>
<text text-anchor="middle" x="441.5" y="-349" font-family="Helvetica,sans-Serif" font-size="10.00" fill="#000000">::Iterator::Iterator</text>
</a>
</g>
</g>
<!-- Node38&#45;&gt;Node42 -->
<g id="edge4" class="edge">
<title>Node38&#45;&gt;Node42</title>
<path fill="none" stroke="#191970" d="M80.9167,-416.766C95.9174,-447.5892 130.511,-507.9165 181,-532 249.5957,-564.7206 287.1694,-571.661 352,-532 410.9469,-495.9385 432.6386,-407.4289 439.1306,-372.0096"/>
<polygon fill="#191970" stroke="#191970" points="84.0032,-415.1044 76.586,-407.539 77.6665,-418.0786 84.0032,-415.1044"/>
</g>
<!-- Node43 -->
<g id="node6" class="node">
<title>Node43</title>
<g id="a_node6"><a xlink:href="classiter_1_1impl_1_1CombinatorWithReplacement_1_1Iterator.html#a5df1be265f18549267ac3d6a4e103f6a" target="_top" xlink:title="iter::impl::CombinatorWith\lReplacement::Iterator::\loperator++">
<polygon fill="#ffffff" stroke="#000000" points="201,-481.5 201,-522.5 332,-522.5 332,-481.5 201,-481.5"/>
<text text-anchor="start" x="209" y="-510.5" font-family="Helvetica,sans-Serif" font-size="10.00" fill="#000000">iter::impl::CombinatorWith</text>
<text text-anchor="start" x="209" y="-499.5" font-family="Helvetica,sans-Serif" font-size="10.00" fill="#000000">Replacement::Iterator::</text>
<text text-anchor="middle" x="266.5" y="-488.5" font-family="Helvetica,sans-Serif" font-size="10.00" fill="#000000">operator++</text>
</a>
</g>
</g>
<!-- Node38&#45;&gt;Node43 -->
<g id="edge5" class="edge">
<title>Node38&#45;&gt;Node43</title>
<path fill="none" stroke="#191970" d="M92.358,-413.9024C113.3956,-430.1687 148.0601,-455.3501 181,-472 187.5985,-475.3353 194.6561,-478.4571 201.7817,-481.3314"/>
<polygon fill="#191970" stroke="#191970" points="94.2514,-410.9396 84.221,-407.5278 89.9346,-416.4501 94.2514,-410.9396"/>
</g>
<!-- Node44 -->
<g id="node7" class="node">
<title>Node44</title>
<g id="a_node7"><a xlink:href="classiter_1_1impl_1_1Permuter_1_1Iterator.html#a1d1c68bfd6ab4d4a3ba755db91b32ddb" target="_top" xlink:title="iter::impl::Permuter\l::Iterator::operator++">
<polygon fill="#ffffff" stroke="#000000" points="213,-432 213,-462 320,-462 320,-432 213,-432"/>
<text text-anchor="start" x="221" y="-450" font-family="Helvetica,sans-Serif" font-size="10.00" fill="#000000">iter::impl::Permuter</text>
<text text-anchor="middle" x="266.5" y="-439" font-family="Helvetica,sans-Serif" font-size="10.00" fill="#000000">::Iterator::operator++</text>
</a>
</g>
</g>
<!-- Node38&#45;&gt;Node44 -->
<g id="edge6" class="edge">
<title>Node38&#45;&gt;Node44</title>
<path fill="none" stroke="#191970" d="M120.3435,-410.0842C148.4132,-417.1739 183.9476,-426.1491 212.95,-433.4745"/>
<polygon fill="#191970" stroke="#191970" points="120.9183,-406.6195 110.3657,-407.564 119.2041,-413.4064 120.9183,-406.6195"/>
</g>
<!-- Node45 -->
<g id="node8" class="node">
<title>Node45</title>
<g id="a_node8"><a xlink:href="classiter_1_1impl_1_1Combinator_1_1Iterator.html#a634cce49afa8225cdbccf57c28fff9b4" target="_top" xlink:title="iter::impl::Combinator\l::Iterator::operator++">
<polygon fill="#ffffff" stroke="#000000" points="211.5,-383 211.5,-413 321.5,-413 321.5,-383 211.5,-383"/>
<text text-anchor="start" x="219.5" y="-401" font-family="Helvetica,sans-Serif" font-size="10.00" fill="#000000">iter::impl::Combinator</text>
<text text-anchor="middle" x="266.5" y="-390" font-family="Helvetica,sans-Serif" font-size="10.00" fill="#000000">::Iterator::operator++</text>
</a>
</g>
</g>
<!-- Node38&#45;&gt;Node45 -->
<g id="edge7" class="edge">
<title>Node38&#45;&gt;Node45</title>
<path fill="none" stroke="#191970" d="M155.1558,-398C174.132,-398 193.8571,-398 211.3392,-398"/>
<polygon fill="#191970" stroke="#191970" points="155.0144,-394.5001 145.0143,-398 155.0143,-401.5001 155.0144,-394.5001"/>
</g>
<!-- Node46 -->
<g id="node9" class="node">
<title>Node46</title>
<g id="a_node9"><a xlink:href="classiter_1_1impl_1_1WindowSlider_1_1Iterator.html#a9244eb5eb2f2a09234b8c45793f631ef" target="_top" xlink:title="iter::impl::WindowSlider\l::Iterator::operator++">
<polygon fill="#ffffff" stroke="#000000" points="206.5,-334 206.5,-364 326.5,-364 326.5,-334 206.5,-334"/>
<text text-anchor="start" x="214.5" y="-352" font-family="Helvetica,sans-Serif" font-size="10.00" fill="#000000">iter::impl::WindowSlider</text>
<text text-anchor="middle" x="266.5" y="-341" font-family="Helvetica,sans-Serif" font-size="10.00" fill="#000000">::Iterator::operator++</text>
</a>
</g>
</g>
<!-- Node38&#45;&gt;Node46 -->
<g id="edge8" class="edge">
<title>Node38&#45;&gt;Node46</title>
<path fill="none" stroke="#191970" d="M120.0664,-385.9858C146.2795,-379.365 179.0658,-371.0839 206.9659,-364.037"/>
<polygon fill="#191970" stroke="#191970" points="119.2041,-382.5936 110.3657,-388.436 120.9183,-389.3805 119.2041,-382.5936"/>
</g>
<!-- Node47 -->
<g id="node10" class="node">
<title>Node47</title>
<g id="a_node10"><a xlink:href="classiter_1_1impl_1_1SortedView_1_1SortedItersHolder_3_01ContainerT_00_01std_1_1void__t_3_01decl55a5d0ac4a1626b7ba58ba41e5e47a02.html#a1720c8c5118fe2b602121fc2acc06325" target="_top" xlink:title="iter::impl::SortedView\l::SortedItersHolder\&lt; Container\lT, std::void_t\&lt; decltype(std\l::begin(std::declval\&lt; AsConst\l\&lt; ContainerT \&gt; &amp; \&gt;()))\&gt; \&gt;::populate\l_const_sorted_iters">
<polygon fill="#ffffff" stroke="#000000" points="181,-241 181,-315 352,-315 352,-241 181,-241"/>
<text text-anchor="start" x="189" y="-303" font-family="Helvetica,sans-Serif" font-size="10.00" fill="#000000">iter::impl::SortedView</text>
<text text-anchor="start" x="189" y="-292" font-family="Helvetica,sans-Serif" font-size="10.00" fill="#000000">::SortedItersHolder&lt; Container</text>
<text text-anchor="start" x="189" y="-281" font-family="Helvetica,sans-Serif" font-size="10.00" fill="#000000">T, std::void_t&lt; decltype(std</text>
<text text-anchor="start" x="189" y="-270" font-family="Helvetica,sans-Serif" font-size="10.00" fill="#000000">::begin(std::declval&lt; AsConst</text>
<text text-anchor="start" x="189" y="-259" font-family="Helvetica,sans-Serif" font-size="10.00" fill="#000000">&lt; ContainerT &gt; &amp; &gt;()))&gt; &gt;::populate</text>
<text text-anchor="middle" x="266.5" y="-248" font-family="Helvetica,sans-Serif" font-size="10.00" fill="#000000">_const_sorted_iters</text>
</a>
</g>
</g>
<!-- Node38&#45;&gt;Node47 -->
<g id="edge9" class="edge">
<title>Node38&#45;&gt;Node47</title>
<path fill="none" stroke="#191970" d="M94.118,-382.6167C115.7516,-367.4233 150.1609,-343.7988 181,-325 186.3514,-321.7379 191.942,-318.4369 197.5908,-315.1765"/>
<polygon fill="#191970" stroke="#191970" points="92.0998,-379.7571 85.9464,-388.3818 96.1352,-385.4769 92.0998,-379.7571"/>
</g>
<!-- Node48 -->
<g id="node11" class="node">
<title>Node48</title>
<g id="a_node11"><a xlink:href="classiter_1_1impl_1_1SortedView_1_1SortedItersHolder_3_01ContainerT_00_01std_1_1void__t_3_01decl55a5d0ac4a1626b7ba58ba41e5e47a02.html#aa58a71e49e34d0d49ead2af16f6ab077" target="_top" xlink:title="iter::impl::SortedView\l::SortedItersHolder\&lt; Container\lT, std::void_t\&lt; decltype(std\l::begin(std::declval\&lt; AsConst\l\&lt; ContainerT \&gt; &amp; \&gt;()))\&gt; \&gt;::populate\l_sorted_iters">
<polygon fill="#ffffff" stroke="#000000" points="181,-148 181,-222 352,-222 352,-148 181,-148"/>
<text text-anchor="start" x="189" y="-210" font-family="Helvetica,sans-Serif" font-size="10.00" fill="#000000">iter::impl::SortedView</text>
<text text-anchor="start" x="189" y="-199" font-family="Helvetica,sans-Serif" font-size="10.00" fill="#000000">::SortedItersHolder&lt; Container</text>
<text text-anchor="start" x="189" y="-188" font-family="Helvetica,sans-Serif" font-size="10.00" fill="#000000">T, std::void_t&lt; decltype(std</text>
<text text-anchor="start" x="189" y="-177" font-family="Helvetica,sans-Serif" font-size="10.00" fill="#000000">::begin(std::declval&lt; AsConst</text>
<text text-anchor="start" x="189" y="-166" font-family="Helvetica,sans-Serif" font-size="10.00" fill="#000000">&lt; ContainerT &gt; &amp; &gt;()))&gt; &gt;::populate</text>
<text text-anchor="middle" x="266.5" y="-155" font-family="Helvetica,sans-Serif" font-size="10.00" fill="#000000">_sorted_iters</text>
</a>
</g>
</g>
<!-- Node38&#45;&gt;Node48 -->
<g id="edge10" class="edge">
<title>Node38&#45;&gt;Node48</title>
<path fill="none" stroke="#191970" d="M81.1997,-378.7107C97.0334,-345.3274 133.3697,-276.1283 181,-232 184.7277,-228.5464 188.7558,-225.2568 192.9628,-222.1402"/>
<polygon fill="#191970" stroke="#191970" points="77.8245,-377.6695 76.791,-388.2138 84.1745,-380.6154 77.8245,-377.6695"/>
</g>
<!-- Node49 -->
<g id="node12" class="node">
<title>Node49</title>
<g id="a_node12"><a xlink:href="classiter_1_1impl_1_1Chunker_1_1Iterator.html#a23a90d1b465387c2e93591537d54d3be" target="_top" xlink:title="iter::impl::Chunker\l::Iterator::refill_chunk">
<polygon fill="#ffffff" stroke="#000000" points="212,-99 212,-129 321,-129 321,-99 212,-99"/>
<text text-anchor="start" x="220" y="-117" font-family="Helvetica,sans-Serif" font-size="10.00" fill="#000000">iter::impl::Chunker</text>
<text text-anchor="middle" x="266.5" y="-106" font-family="Helvetica,sans-Serif" font-size="10.00" fill="#000000">::Iterator::refill_chunk</text>
</a>
</g>
</g>
<!-- Node38&#45;&gt;Node49 -->
<g id="edge11" class="edge">
<title>Node38&#45;&gt;Node49</title>
<path fill="none" stroke="#191970" d="M74.9663,-378.2525C82.055,-329.9868 106.9616,-205.162 181,-139 189.6488,-131.2713 200.5685,-125.9253 211.6861,-122.2293"/>
<polygon fill="#191970" stroke="#191970" points="71.4776,-377.9325 73.5889,-388.3148 78.4129,-378.882 71.4776,-377.9325"/>
</g>
<!-- Node51 -->
<g id="node14" class="node">
<title>Node51</title>
<g id="a_node14"><a xlink:href="classiter_1_1impl_1_1SortedView_1_1SortedItersHolder.html#aa23bbbc6d346e98b46b954c7730f5224" target="_top" xlink:title="iter::impl::SortedView\l::SortedItersHolder\&lt; Container\l \&gt;::SortedItersHolder">
<polygon fill="#ffffff" stroke="#000000" points="191.5,-38.5 191.5,-79.5 341.5,-79.5 341.5,-38.5 191.5,-38.5"/>
<text text-anchor="start" x="199.5" y="-67.5" font-family="Helvetica,sans-Serif" font-size="10.00" fill="#000000">iter::impl::SortedView</text>
<text text-anchor="start" x="199.5" y="-56.5" font-family="Helvetica,sans-Serif" font-size="10.00" fill="#000000">::SortedItersHolder&lt; Container</text>
<text text-anchor="middle" x="266.5" y="-45.5" font-family="Helvetica,sans-Serif" font-size="10.00" fill="#000000"> &gt;::SortedItersHolder</text>
</a>
</g>
</g>
<!-- Node38&#45;&gt;Node51 -->
<g id="edge14" class="edge">
<title>Node38&#45;&gt;Node51</title>
<path fill="none" stroke="#191970" d="M73.7075,-378.1122C78.056,-323.9876 97.4646,-172.5164 181,-89 184.5599,-85.4409 188.5658,-82.3028 192.8505,-79.5361"/>
<polygon fill="#191970" stroke="#191970" points="70.1949,-378.165 72.9741,-388.3888 77.1771,-378.6633 70.1949,-378.165"/>
</g>
<!-- Node52 -->
<g id="node15" class="node">
<title>Node52</title>
<g id="a_node15"><a xlink:href="test__iteratoriterator_8cpp.html#ae051edbd245b17b66cc17028c12116c1" target="_top" xlink:title="TEST_CASE">
<polygon fill="#ffffff" stroke="#000000" points="229,-.5 229,-19.5 304,-19.5 304,-.5 229,-.5"/>
<text text-anchor="middle" x="266.5" y="-7.5" font-family="Helvetica,sans-Serif" font-size="10.00" fill="#000000">TEST_CASE</text>
</a>
</g>
</g>
<!-- Node38&#45;&gt;Node52 -->
<g id="edge15" class="edge">
<title>Node38&#45;&gt;Node52</title>
<path fill="none" stroke="#191970" d="M75.6141,-378.2894C86.9438,-309.0474 128.0937,-78.4599 181,-29 193.774,-17.0581 212.3251,-12.0111 228.8851,-10.0742"/>
<polygon fill="#191970" stroke="#191970" points="72.1375,-377.8649 74.0023,-388.2943 79.0484,-378.9783 72.1375,-377.8649"/>
</g>
<!-- Node49&#45;&gt;Node42 -->
<g id="edge12" class="edge">
<title>Node49&#45;&gt;Node42</title>
<path fill="none" stroke="#191970" d="M330.8922,-125.8245C338.5858,-129.1803 345.8709,-133.4834 352,-139 414.6431,-195.3825 434.4232,-302.1842 439.7601,-341.7528"/>
<polygon fill="#191970" stroke="#191970" points="331.946,-122.4805 321.3553,-122.1831 329.449,-129.02 331.946,-122.4805"/>
</g>
<!-- Node50 -->
<g id="node13" class="node">
<title>Node50</title>
<g id="a_node13"><a xlink:href="classiter_1_1impl_1_1Chunker_1_1Iterator.html#ad05a6af66a8d486958f3d68b343d11d0" target="_top" xlink:title="iter::impl::Chunker\l::Iterator::operator++">
<polygon fill="#ffffff" stroke="#000000" points="388,-99 388,-129 495,-129 495,-99 388,-99"/>
<text text-anchor="start" x="396" y="-117" font-family="Helvetica,sans-Serif" font-size="10.00" fill="#000000">iter::impl::Chunker</text>
<text text-anchor="middle" x="441.5" y="-106" font-family="Helvetica,sans-Serif" font-size="10.00" fill="#000000">::Iterator::operator++</text>
</a>
</g>
</g>
<!-- Node49&#45;&gt;Node50 -->
<g id="edge13" class="edge">
<title>Node49&#45;&gt;Node50</title>
<path fill="none" stroke="#191970" d="M331.4993,-114C350.0025,-114 369.946,-114 387.7034,-114"/>
<polygon fill="#191970" stroke="#191970" points="331.391,-110.5001 321.3909,-114 331.3909,-117.5001 331.391,-110.5001"/>
</g>
</g>
</svg>
        <g id="navigator" transform="translate(0 0)" fill="#404254">
                <rect fill="#f2f5e9" fill-opacity="0.5" stroke="#606060" stroke-width=".5" x="0" y="0" width="60" height="60"/>
                <use id="zoomplus" xlink:href="#zoomPlus" x="17" y="9" onmousedown="handleZoom(evt,'in')"/>
                <use id="zoomminus" xlink:href="#zoomMin" x="42" y="9" onmousedown="handleZoom(evt,'out')"/>
                <use id="reset" xlink:href="#resetDef" x="30" y="36" onmousedown="handleReset()"/>
                <g id="arrowUp" xlink:href="#dirArrow" transform="translate(30 24)" onmousedown="handlePan(0,-1)">
                  <use xlink:href="#rim" fill="#404040">
                        <set attributeName="fill" to="#808080" begin="arrowUp.mouseover" end="arrowUp.mouseout"/>
                  </use>
                  <path fill="none" stroke="white" stroke-width="1.5" d="M0,-3.0v7 M-2.5,-0.5L0,-3.0L2.5,-0.5"/>
                </g>
                <g id="arrowRight" xlink:href="#dirArrow" transform="rotate(90) translate(36 -43)" onmousedown="handlePan(1,0)">
                  <use xlink:href="#rim" fill="#404040">
                        <set attributeName="fill" to="#808080" begin="arrowRight.mouseover" end="arrowRight.mouseout"/>
                  </use>
                  <path fill="none" stroke="white" stroke-width="1.5" d="M0,-3.0v7 M-2.5,-0.5L0,-3.0L2.5,-0.5"/>
                </g>
                <g id="arrowDown" xlink:href="#dirArrow" transform="rotate(180) translate(-30 -48)" onmousedown="handlePan(0,1)">
                  <use xlink:href="#rim" fill="#404040">
                        <set attributeName="fill" to="#808080" begin="arrowDown.mouseover" end="arrowDown.mouseout"/>
                  </use>
                  <path fill="none" stroke="white" stroke-width="1.5" d="M0,-3.0v7 M-2.5,-0.5L0,-3.0L2.5,-0.5"/>
                </g>
                <g id="arrowLeft" xlink:href="#dirArrow" transform="rotate(270) translate(-36 17)" onmousedown="handlePan(-1,0)">
                  <use xlink:href="#rim" fill="#404040">
                        <set attributeName="fill" to="#808080" begin="arrowLeft.mouseover" end="arrowLeft.mouseout"/>
                  </use>
                  <path fill="none" stroke="white" stroke-width="1.5" d="M0,-3.0v7 M-2.5,-0.5L0,-3.0L2.5,-0.5"/>
                </g>
        </g>
        <svg viewBox="0 0 15 15" width="100%" height="30px" preserveAspectRatio="xMaxYMin meet">
         <g id="arrow_out" transform="scale(0.3 0.3)">
          <a xlink:href="classiter_1_1impl_1_1IterIterWrapper_ad8a8e1bbe3d4f27e77994259ad7e73c9_icgraph_org.svg" target="_base">
           <rect id="button" ry="5" rx="5" y="6" x="6" height="38" width="38"
                fill="#f2f5e9" fill-opacity="0.5" stroke="#606060" stroke-width="1.0"/>
           <path id="arrow"
             d="M 11.500037,31.436501 C 11.940474,20.09759 22.043105,11.32322 32.158766,21.979434 L 37.068811,17.246167 C 37.068811,17.246167 37.088388,32 37.088388,32 L 22.160133,31.978069 C 22.160133,31.978069 26.997745,27.140456 26.997745,27.140456 C 18.528582,18.264221 13.291696,25.230495 11.500037,31.436501 z"
             style="fill:#404040;"/>
          </a>
         </g>
        </svg>
</svg>
