<?xml version="1.0" encoding="UTF-8" standalone="no"?>
<!DOCTYPE svg PUBLIC "-//W3C//DTD SVG 1.1//EN"
 "http://www.w3.org/Graphics/SVG/1.1/DTD/svg11.dtd">
<!-- Generated by graphviz version 2.40.1 (20161225.0304)
 -->
<!-- Title: FMKWayGainCalc::__modify_gain Pages: 1 -->
<!--zoomable 224 -->
<svg id="main" version="1.1" xmlns="http://www.w3.org/2000/svg" xmlns:xlink="http://www.w3.org/1999/xlink" xml:space="preserve" onload="init(evt)">
<style type="text/css"><![CDATA[
.edge:hover path { stroke: red; }
.edge:hover polygon { stroke: red; fill: red; }
]]></style>
<script type="text/javascript"><![CDATA[
var edges = document.getElementsByTagName('g');
if (edges && edges.length) {
  for (var i=0;i<edges.length;i++) {
    if (edges[i].id.substr(0,4)=='edge') {
      edges[i].setAttribute('class','edge');
    }
  }
}
]]></script>
        <defs>
                <circle id="rim" cx="0" cy="0" r="7"/>
                <circle id="rim2" cx="0" cy="0" r="3.5"/>
                <g id="zoomPlus">
                        <use xlink:href="#rim" fill="#404040">
                                <set attributeName="fill" to="#808080" begin="zoomplus.mouseover" end="zoomplus.mouseout"/>
                        </use>
                        <path d="M-4,0h8M0,-4v8" fill="none" stroke="white" stroke-width="1.5" pointer-events="none"/>
                </g>
                <g id="zoomMin">
                        <use xlink:href="#rim" fill="#404040">
                                <set attributeName="fill" to="#808080" begin="zoomminus.mouseover" end="zoomminus.mouseout"/>
                        </use>
                        <path d="M-4,0h8" fill="none" stroke="white" stroke-width="1.5" pointer-events="none"/>
                </g>
                <g id="dirArrow">
                        <path fill="none" stroke="white" stroke-width="1.5" d="M0,-3.0v7 M-2.5,-0.5L0,-3.0L2.5,-0.5"/>
                </g>
               <g id="resetDef">
                       <use xlink:href="#rim2" fill="#404040">
                               <set attributeName="fill" to="#808080" begin="reset.mouseover" end="reset.mouseout"/>
                       </use>
               </g>
        </defs>

<script type="text/javascript">
var viewWidth = 679;
var viewHeight = 224;
var sectionId = 'dynsection-10';
</script>
<script xlink:href="svgpan.js"/>
<svg id="graph" class="graph">
<g id="viewport">
<title>FMKWayGainCalc::__modify_gain</title>
<polygon fill="#ffffff" stroke="transparent" points="-4,4 -4,-219.5 675,-219.5 675,4 -4,4"/>
<!-- Node63 -->
<g id="node1" class="node">
<title>Node63</title>
<polygon fill="#bfbfbf" stroke="#000000" points="0,-117.5 0,-136.5 167,-136.5 167,-117.5 0,-117.5"/>
<text text-anchor="middle" x="83.5" y="-124.5" font-family="Helvetica,sans-Serif" font-size="10.00" fill="#000000">FMKWayGainCalc::__modify_gain</text>
</g>
<!-- Node64 -->
<g id="node2" class="node">
<title>Node64</title>
<g id="a_node2"><a xlink:href="classFMKWayGainCalc.html#ab7b8bf55722e1449e394ad08b1290582" target="_top" xlink:title="FMKWayGainCalc::__init_gain">
<polygon fill="#ffffff" stroke="#000000" points="203,-94.5 203,-113.5 354,-113.5 354,-94.5 203,-94.5"/>
<text text-anchor="middle" x="278.5" y="-101.5" font-family="Helvetica,sans-Serif" font-size="10.00" fill="#000000">FMKWayGainCalc::__init_gain</text>
</a>
</g>
</g>
<!-- Node63&#45;&gt;Node64 -->
<g id="edge1" class="edge">
<title>Node63&#45;&gt;Node64</title>
<path fill="none" stroke="#191970" d="M164.2216,-117.479C173.6089,-116.3718 183.2102,-115.2393 192.6631,-114.1243"/>
<polygon fill="#191970" stroke="#191970" points="193.324,-117.5707 202.8452,-112.9234 192.504,-110.6189 193.324,-117.5707"/>
</g>
<!-- Node65 -->
<g id="node3" class="node">
<title>Node65</title>
<g id="a_node3"><a xlink:href="classFMKWayGainCalc.html#ac6d158d36c93cd11b407dedfe3f7ab9d" target="_top" xlink:title="FMKWayGainCalc::__init\l_gain_2pin_net">
<polygon fill="#ffffff" stroke="#000000" points="390,-185 390,-215 518,-215 518,-185 390,-185"/>
<text text-anchor="start" x="398" y="-203" font-family="Helvetica,sans-Serif" font-size="10.00" fill="#000000">FMKWayGainCalc::__init</text>
<text text-anchor="middle" x="454" y="-192" font-family="Helvetica,sans-Serif" font-size="10.00" fill="#000000">_gain_2pin_net</text>
</a>
</g>
</g>
<!-- Node63&#45;&gt;Node65 -->
<g id="edge14" class="edge">
<title>Node63&#45;&gt;Node65</title>
<path fill="none" stroke="#191970" d="M136.8937,-136.5016C157.3897,-142.2984 181.1121,-149.1173 203,-154 261.8214,-167.1216 329.4661,-176.7863 379.6999,-184.3152"/>
<polygon fill="#191970" stroke="#191970" points="379.4158,-187.8118 389.8258,-185.8412 380.459,-180.89 379.4158,-187.8118"/>
</g>
<!-- Node68 -->
<g id="node6" class="node">
<title>Node68</title>
<g id="a_node6"><a xlink:href="classFMKWayGainCalc.html#a3d58586faf2497c85377e7d42d7b8724" target="_top" xlink:title="FMKWayGainCalc::__init\l_gain_3pin_net">
<polygon fill="#ffffff" stroke="#000000" points="390,-136 390,-166 518,-166 518,-136 390,-136"/>
<text text-anchor="start" x="398" y="-154" font-family="Helvetica,sans-Serif" font-size="10.00" fill="#000000">FMKWayGainCalc::__init</text>
<text text-anchor="middle" x="454" y="-143" font-family="Helvetica,sans-Serif" font-size="10.00" fill="#000000">_gain_3pin_net</text>
</a>
</g>
</g>
<!-- Node63&#45;&gt;Node68 -->
<g id="edge15" class="edge">
<title>Node63&#45;&gt;Node68</title>
<path fill="none" stroke="#191970" d="M167.1094,-126.6653C230.9961,-129.4019 318.2418,-135.1265 379.6965,-140.655"/>
<polygon fill="#191970" stroke="#191970" points="379.4333,-144.1455 389.7118,-141.576 380.0743,-137.1749 379.4333,-144.1455"/>
</g>
<!-- Node69 -->
<g id="node7" class="node">
<title>Node69</title>
<g id="a_node7"><a xlink:href="classFMKWayGainCalc.html#ad10182c880296aa4182775a7099e5874" target="_top" xlink:title="FMKWayGainCalc::__init\l_gain_general_net">
<polygon fill="#ffffff" stroke="#000000" points="390,-44 390,-74 518,-74 518,-44 390,-44"/>
<text text-anchor="start" x="398" y="-62" font-family="Helvetica,sans-Serif" font-size="10.00" fill="#000000">FMKWayGainCalc::__init</text>
<text text-anchor="middle" x="454" y="-51" font-family="Helvetica,sans-Serif" font-size="10.00" fill="#000000">_gain_general_net</text>
</a>
</g>
</g>
<!-- Node63&#45;&gt;Node69 -->
<g id="edge16" class="edge">
<title>Node63&#45;&gt;Node69</title>
<path fill="none" stroke="#191970" d="M93.8076,-117.3621C114.21,-104.6414 161.3721,-85.335 203,-76 261.5893,-62.8615 329.3882,-56.3388 379.7419,-54.4949"/>
<polygon fill="#191970" stroke="#191970" points="380.0054,-57.9885 389.8919,-54.1798 379.7881,-50.9919 380.0054,-57.9885"/>
</g>
<!-- Node71 -->
<g id="node9" class="node">
<title>Node71</title>
<g id="a_node9"><a xlink:href="classrobin.html#a611dc76ad105db9eb9d388916f080ac6" target="_top" xlink:title="robin::exclude">
<polygon fill="#ffffff" stroke="#000000" points="240,-.5 240,-19.5 317,-19.5 317,-.5 240,-.5"/>
<text text-anchor="middle" x="278.5" y="-7.5" font-family="Helvetica,sans-Serif" font-size="10.00" fill="#000000">robin::exclude</text>
</a>
</g>
</g>
<!-- Node63&#45;&gt;Node71 -->
<g id="edge17" class="edge">
<title>Node63&#45;&gt;Node71</title>
<path fill="none" stroke="#191970" d="M93.1915,-117.4579C112.514,-98.9152 157.8706,-57.7568 203,-34 211.4909,-29.5303 220.9612,-25.7143 230.2463,-22.5277"/>
<polygon fill="#191970" stroke="#191970" points="231.3702,-25.8428 239.8067,-19.4338 229.2148,-19.1829 231.3702,-25.8428"/>
</g>
<!-- Node64&#45;&gt;Node65 -->
<g id="edge2" class="edge">
<title>Node64&#45;&gt;Node65</title>
<path fill="none" stroke="#191970" d="M291.3394,-113.6023C311.5393,-128.4007 352.3294,-157.0504 390,-176 393.4784,-177.7498 397.1166,-179.4453 400.8164,-181.0717"/>
<polygon fill="#191970" stroke="#191970" points="399.5091,-184.3187 410.0843,-184.9637 402.2195,-177.8647 399.5091,-184.3187"/>
</g>
<!-- Node64&#45;&gt;Node68 -->
<g id="edge6" class="edge">
<title>Node64&#45;&gt;Node68</title>
<path fill="none" stroke="#191970" d="M314.015,-113.5112C335.2363,-119.1943 362.8659,-126.5937 387.966,-133.3157"/>
<polygon fill="#191970" stroke="#191970" points="387.2419,-136.745 397.807,-135.9512 389.0528,-129.9833 387.2419,-136.745"/>
</g>
<!-- Node64&#45;&gt;Node69 -->
<g id="edge10" class="edge">
<title>Node64&#45;&gt;Node69</title>
<path fill="none" stroke="#191970" d="M315.719,-94.4567C336.0588,-89.2413 361.8932,-82.6171 385.7128,-76.5095"/>
<polygon fill="#191970" stroke="#191970" points="386.6065,-79.8937 395.4238,-74.0195 384.8678,-73.113 386.6065,-79.8937"/>
</g>
<!-- Node70 -->
<g id="node8" class="node">
<title>Node70</title>
<g id="a_node8"><a xlink:href="classxn_1_1Graph.html#a8190f6d88f8933f798828d8e063d6b12" target="_top" xlink:title="xn::Graph::degree">
<polygon fill="#ffffff" stroke="#000000" points="406.5,-94.5 406.5,-113.5 501.5,-113.5 501.5,-94.5 406.5,-94.5"/>
<text text-anchor="middle" x="454" y="-101.5" font-family="Helvetica,sans-Serif" font-size="10.00" fill="#000000">xn::Graph::degree</text>
</a>
</g>
</g>
<!-- Node64&#45;&gt;Node70 -->
<g id="edge13" class="edge">
<title>Node64&#45;&gt;Node70</title>
<path fill="none" stroke="#191970" d="M354.2012,-104C368.3213,-104 382.8656,-104 396.3342,-104"/>
<polygon fill="#191970" stroke="#191970" points="396.3992,-107.5001 406.3991,-104 396.3991,-100.5001 396.3992,-107.5001"/>
</g>
<!-- Node65&#45;&gt;Node63 -->
<g id="edge3" class="edge">
<title>Node65&#45;&gt;Node63</title>
<path fill="none" stroke="#191970" d="M389.8258,-200.4851C338.8285,-196.1016 265.8738,-186.0256 203,-172 168.027,-164.1984 128.3702,-151.4532 104.6756,-140.981"/>
<polygon fill="#191970" stroke="#191970" points="106.0931,-137.7795 95.5583,-136.6531 103.0912,-144.1033 106.0931,-137.7795"/>
</g>
<!-- Node66 -->
<g id="node4" class="node">
<title>Node66</title>
<g id="a_node4"><a xlink:href="classxn_1_1Graph.html#a0eb06caefea5f60a5156e15662123d2f" target="_top" xlink:title="Iterate over the nodes. ">
<polygon fill="#ffffff" stroke="#000000" points="568,-184.5 568,-203.5 657,-203.5 657,-184.5 568,-184.5"/>
<text text-anchor="middle" x="612.5" y="-191.5" font-family="Helvetica,sans-Serif" font-size="10.00" fill="#000000">xn::Graph::begin</text>
</a>
</g>
</g>
<!-- Node65&#45;&gt;Node66 -->
<g id="edge4" class="edge">
<title>Node65&#45;&gt;Node66</title>
<path fill="none" stroke="#191970" d="M518.0111,-197.5769C531.1632,-197.079 544.8971,-196.5591 557.6893,-196.0749"/>
<polygon fill="#191970" stroke="#191970" points="557.857,-199.5711 567.7175,-195.6952 557.5922,-192.5761 557.857,-199.5711"/>
</g>
<!-- Node67 -->
<g id="node5" class="node">
<title>Node67</title>
<g id="a_node5"><a xlink:href="structNetlist.html#ab287e126909a3ec4828aa8b918278dc7" target="_top" xlink:title="Netlist::get_net_weight">
<polygon fill="#ffffff" stroke="#000000" points="554,-141.5 554,-160.5 671,-160.5 671,-141.5 554,-141.5"/>
<text text-anchor="middle" x="612.5" y="-148.5" font-family="Helvetica,sans-Serif" font-size="10.00" fill="#000000">Netlist::get_net_weight</text>
</a>
</g>
</g>
<!-- Node65&#45;&gt;Node67 -->
<g id="edge5" class="edge">
<title>Node65&#45;&gt;Node67</title>
<path fill="none" stroke="#191970" d="M502.8485,-184.8986C524.9921,-178.0529 550.8681,-170.0534 571.9209,-163.5449"/>
<polygon fill="#191970" stroke="#191970" points="573.0064,-166.8729 581.5265,-160.5754 570.9389,-160.1852 573.0064,-166.8729"/>
</g>
<!-- Node68&#45;&gt;Node63 -->
<g id="edge7" class="edge">
<title>Node68&#45;&gt;Node63</title>
<path fill="none" stroke="#191970" d="M389.8885,-152.1014C325.7266,-149.8301 227.0394,-143.5407 159.0967,-137.461"/>
<polygon fill="#191970" stroke="#191970" points="159.1624,-133.9525 148.8851,-136.5269 158.5247,-140.9234 159.1624,-133.9525"/>
</g>
<!-- Node68&#45;&gt;Node66 -->
<g id="edge8" class="edge">
<title>Node68&#45;&gt;Node66</title>
<path fill="none" stroke="#191970" d="M509.4356,-166.0393C528.4169,-171.1888 549.4074,-176.8834 567.4649,-181.7823"/>
<polygon fill="#191970" stroke="#191970" points="566.5962,-185.173 577.1637,-184.4135 568.429,-178.4172 566.5962,-185.173"/>
</g>
<!-- Node68&#45;&gt;Node67 -->
<g id="edge9" class="edge">
<title>Node68&#45;&gt;Node67</title>
<path fill="none" stroke="#191970" d="M518.0111,-151C526.4404,-151 535.1087,-151 543.6149,-151"/>
<polygon fill="#191970" stroke="#191970" points="543.8833,-154.5001 553.8833,-151 543.8833,-147.5001 543.8833,-154.5001"/>
</g>
<!-- Node69&#45;&gt;Node63 -->
<g id="edge11" class="edge">
<title>Node69&#45;&gt;Node63</title>
<path fill="none" stroke="#191970" d="M389.8919,-68.8064C338.7738,-73.4714 265.6257,-79.9563 203,-94 180.3081,-99.0886 155.9717,-107.1402 135.2218,-114.2041"/>
<polygon fill="#191970" stroke="#191970" points="133.9869,-110.9272 125.6538,-117.4702 136.2484,-117.5519 133.9869,-110.9272"/>
</g>
<!-- Node69&#45;&gt;Node67 -->
<g id="edge12" class="edge">
<title>Node69&#45;&gt;Node67</title>
<path fill="none" stroke="#191970" d="M494.9191,-74.0269C502.7282,-77.3388 510.729,-81.0489 518,-85 545.1706,-99.7648 573.9717,-120.7527 592.5349,-135.0711"/>
<polygon fill="#191970" stroke="#191970" points="590.5016,-137.924 600.5371,-141.3209 594.8103,-132.4072 590.5016,-137.924"/>
</g>
</g>
</svg>
        <g id="navigator" transform="translate(0 0)" fill="#404254">
                <rect fill="#f2f5e9" fill-opacity="0.5" stroke="#606060" stroke-width=".5" x="0" y="0" width="60" height="60"/>
                <use id="zoomplus" xlink:href="#zoomPlus" x="17" y="9" onmousedown="handleZoom(evt,'in')"/>
                <use id="zoomminus" xlink:href="#zoomMin" x="42" y="9" onmousedown="handleZoom(evt,'out')"/>
                <use id="reset" xlink:href="#resetDef" x="30" y="36" onmousedown="handleReset()"/>
                <g id="arrowUp" xlink:href="#dirArrow" transform="translate(30 24)" onmousedown="handlePan(0,-1)">
                  <use xlink:href="#rim" fill="#404040">
                        <set attributeName="fill" to="#808080" begin="arrowUp.mouseover" end="arrowUp.mouseout"/>
                  </use>
                  <path fill="none" stroke="white" stroke-width="1.5" d="M0,-3.0v7 M-2.5,-0.5L0,-3.0L2.5,-0.5"/>
                </g>
                <g id="arrowRight" xlink:href="#dirArrow" transform="rotate(90) translate(36 -43)" onmousedown="handlePan(1,0)">
                  <use xlink:href="#rim" fill="#404040">
                        <set attributeName="fill" to="#808080" begin="arrowRight.mouseover" end="arrowRight.mouseout"/>
                  </use>
                  <path fill="none" stroke="white" stroke-width="1.5" d="M0,-3.0v7 M-2.5,-0.5L0,-3.0L2.5,-0.5"/>
                </g>
                <g id="arrowDown" xlink:href="#dirArrow" transform="rotate(180) translate(-30 -48)" onmousedown="handlePan(0,1)">
                  <use xlink:href="#rim" fill="#404040">
                        <set attributeName="fill" to="#808080" begin="arrowDown.mouseover" end="arrowDown.mouseout"/>
                  </use>
                  <path fill="none" stroke="white" stroke-width="1.5" d="M0,-3.0v7 M-2.5,-0.5L0,-3.0L2.5,-0.5"/>
                </g>
                <g id="arrowLeft" xlink:href="#dirArrow" transform="rotate(270) translate(-36 17)" onmousedown="handlePan(-1,0)">
                  <use xlink:href="#rim" fill="#404040">
                        <set attributeName="fill" to="#808080" begin="arrowLeft.mouseover" end="arrowLeft.mouseout"/>
                  </use>
                  <path fill="none" stroke="white" stroke-width="1.5" d="M0,-3.0v7 M-2.5,-0.5L0,-3.0L2.5,-0.5"/>
                </g>
        </g>
        <svg viewBox="0 0 15 15" width="100%" height="30px" preserveAspectRatio="xMaxYMin meet">
         <g id="arrow_out" transform="scale(0.3 0.3)">
          <a xlink:href="classFMKWayGainCalc_ac4e6255c0ffc3141805628779fa45e41_cgraph_org.svg" target="_base">
           <rect id="button" ry="5" rx="5" y="6" x="6" height="38" width="38"
                fill="#f2f5e9" fill-opacity="0.5" stroke="#606060" stroke-width="1.0"/>
           <path id="arrow"
             d="M 11.500037,31.436501 C 11.940474,20.09759 22.043105,11.32322 32.158766,21.979434 L 37.068811,17.246167 C 37.068811,17.246167 37.088388,32 37.088388,32 L 22.160133,31.978069 C 22.160133,31.978069 26.997745,27.140456 26.997745,27.140456 C 18.528582,18.264221 13.291696,25.230495 11.500037,31.436501 z"
             style="fill:#404040;"/>
          </a>
         </g>
        </svg>
</svg>
