<?xml version="1.0" encoding="UTF-8" standalone="no"?>
<!DOCTYPE svg PUBLIC "-//W3C//DTD SVG 1.1//EN"
 "http://www.w3.org/Graphics/SVG/1.1/DTD/svg11.dtd">
<!-- Generated by graphviz version 2.40.1 (20161225.0304)
 -->
<!-- Title: xn::Graph::degree Pages: 1 -->
<svg width="623pt" height="306pt"
 viewBox="0.00 0.00 623.00 305.50" xmlns="http://www.w3.org/2000/svg" xmlns:xlink="http://www.w3.org/1999/xlink">
<g id="graph0" class="graph" transform="scale(1 1) rotate(0) translate(4 301.5)">
<title>xn::Graph::degree</title>
<polygon fill="#ffffff" stroke="transparent" points="-4,4 -4,-301.5 619,-301.5 619,4 -4,4"/>
<!-- Node25 -->
<g id="node1" class="node">
<title>Node25</title>
<polygon fill="#bfbfbf" stroke="#000000" points="0,-88 0,-107 95,-107 95,-88 0,-88"/>
<text text-anchor="middle" x="47.5" y="-95" font-family="Helvetica,sans-Serif" font-size="10.00" fill="#000000">xn::Graph::degree</text>
</g>
<!-- Node26 -->
<g id="node2" class="node">
<title>Node26</title>
<g id="a_node2"><a xlink:href="classFMBiGainCalc.html#abbd6ac04a41b52d6853a97b497648a2d" target="_top" xlink:title="FMBiGainCalc::__init_gain">
<polygon fill="#ffffff" stroke="#000000" points="141,-183 141,-202 274,-202 274,-183 141,-183"/>
<text text-anchor="middle" x="207.5" y="-190" font-family="Helvetica,sans-Serif" font-size="10.00" fill="#000000">FMBiGainCalc::__init_gain</text>
</a>
</g>
</g>
<!-- Node25&#45;&gt;Node26 -->
<g id="edge1" class="edge">
<title>Node25&#45;&gt;Node26</title>
<path fill="none" stroke="#191970" d="M68.8435,-113.2771C85.406,-125.2204 109.15,-141.6976 131,-154.5 149.1689,-165.1455 170.7191,-175.673 186.3092,-182.9379"/>
<polygon fill="#191970" stroke="#191970" points="70.5836,-110.2148 60.4385,-107.1606 66.4647,-115.8748 70.5836,-110.2148"/>
</g>
<!-- Node32 -->
<g id="node8" class="node">
<title>Node32</title>
<g id="a_node8"><a xlink:href="classxn_1_1grAdaptor.html#a0d9be720f231fafe198d0e35ccaaded6" target="_top" xlink:title="Construct a new gr Adaptor object. ">
<polygon fill="#ffffff" stroke="#000000" points="146,-126 146,-145 269,-145 269,-126 146,-126"/>
<text text-anchor="middle" x="207.5" y="-133" font-family="Helvetica,sans-Serif" font-size="10.00" fill="#000000">xn::grAdaptor::grAdaptor</text>
</a>
</g>
</g>
<!-- Node25&#45;&gt;Node32 -->
<g id="edge13" class="edge">
<title>Node25&#45;&gt;Node32</title>
<path fill="none" stroke="#191970" d="M97.8915,-109.468C120.313,-114.7931 146.3472,-120.9762 167.4156,-125.9799"/>
<polygon fill="#191970" stroke="#191970" points="98.4129,-105.9945 87.8748,-107.089 96.7953,-112.8051 98.4129,-105.9945"/>
</g>
<!-- Node33 -->
<g id="node9" class="node">
<title>Node33</title>
<g id="a_node9"><a xlink:href="test__min__cover_8cpp.html#ad836445999b15b0024ec8d9a8a28f83c" target="_top" xlink:title="max_independent_net">
<polygon fill="#ffffff" stroke="#000000" points="151.5,-88 151.5,-107 263.5,-107 263.5,-88 151.5,-88"/>
<text text-anchor="middle" x="207.5" y="-95" font-family="Helvetica,sans-Serif" font-size="10.00" fill="#000000">max_independent_net</text>
</a>
</g>
</g>
<!-- Node25&#45;&gt;Node33 -->
<g id="edge14" class="edge">
<title>Node25&#45;&gt;Node33</title>
<path fill="none" stroke="#191970" d="M105.2601,-97.5C120.2803,-97.5 136.4366,-97.5 151.3712,-97.5"/>
<polygon fill="#191970" stroke="#191970" points="105.0721,-94.0001 95.0721,-97.5 105.072,-101.0001 105.0721,-94.0001"/>
</g>
<!-- Node37 -->
<g id="node13" class="node">
<title>Node37</title>
<g id="a_node13"><a xlink:href="structNetlist.html#acb64eb490790c14040ac573a7328cb54" target="_top" xlink:title="Construct a new Netlist object. ">
<polygon fill="#ffffff" stroke="#000000" points="167.5,-50 167.5,-69 247.5,-69 247.5,-50 167.5,-50"/>
<text text-anchor="middle" x="207.5" y="-57" font-family="Helvetica,sans-Serif" font-size="10.00" fill="#000000">Netlist::Netlist</text>
</a>
</g>
</g>
<!-- Node25&#45;&gt;Node37 -->
<g id="edge18" class="edge">
<title>Node25&#45;&gt;Node37</title>
<path fill="none" stroke="#191970" d="M97.8915,-85.532C120.313,-80.2069 146.3472,-74.0238 167.4156,-69.0201"/>
<polygon fill="#191970" stroke="#191970" points="96.7953,-82.1949 87.8748,-87.911 98.4129,-89.0055 96.7953,-82.1949"/>
</g>
<!-- Node38 -->
<g id="node14" class="node">
<title>Node38</title>
<g id="a_node14"><a xlink:href="classFMGainMgr.html#adbdc9a3860b498a9136739bc12a82431" target="_top" xlink:title="FMGainMgr\&lt; FMBiGainCalc,\l FMBiGainMgr \&gt;::update_move">
<polygon fill="#ffffff" stroke="#000000" points="131,-.5 131,-30.5 284,-30.5 284,-.5 131,-.5"/>
<text text-anchor="start" x="139" y="-18.5" font-family="Helvetica,sans-Serif" font-size="10.00" fill="#000000">FMGainMgr&lt; FMBiGainCalc,</text>
<text text-anchor="middle" x="207.5" y="-7.5" font-family="Helvetica,sans-Serif" font-size="10.00" fill="#000000"> FMBiGainMgr &gt;::update_move</text>
</a>
</g>
</g>
<!-- Node25&#45;&gt;Node38 -->
<g id="edge19" class="edge">
<title>Node25&#45;&gt;Node38</title>
<path fill="none" stroke="#191970" d="M67.4948,-81.4485C83.8163,-68.9542 107.8804,-51.8803 131,-40.5 138.5216,-36.7976 146.7198,-33.4574 154.8641,-30.513"/>
<polygon fill="#191970" stroke="#191970" points="65.0137,-78.9448 59.279,-87.8534 69.3175,-84.4654 65.0137,-78.9448"/>
</g>
<!-- Node27 -->
<g id="node3" class="node">
<title>Node27</title>
<g id="a_node3"><a xlink:href="classFMBiGainCalc.html#a332d9e85ed21f3e25122a8bb9660739b" target="_top" xlink:title="FMBiGainCalc::__modify_gain">
<polygon fill="#ffffff" stroke="#000000" points="320,-202 320,-221 469,-221 469,-202 320,-202"/>
<text text-anchor="middle" x="394.5" y="-209" font-family="Helvetica,sans-Serif" font-size="10.00" fill="#000000">FMBiGainCalc::__modify_gain</text>
</a>
</g>
</g>
<!-- Node26&#45;&gt;Node27 -->
<g id="edge2" class="edge">
<title>Node26&#45;&gt;Node27</title>
<path fill="none" stroke="#191970" d="M284.4026,-200.3136C296.1176,-201.5039 308.1918,-202.7307 319.8574,-203.916"/>
<polygon fill="#191970" stroke="#191970" points="284.5219,-196.8078 274.2193,-199.279 283.8143,-203.772 284.5219,-196.8078"/>
</g>
<!-- Node31 -->
<g id="node7" class="node">
<title>Node31</title>
<g id="a_node7"><a xlink:href="classFMBiGainCalc.html#ad2d11665996b37c3b8888365ea8aa2ce" target="_top" xlink:title="FMBiGainCalc::init">
<polygon fill="#ffffff" stroke="#000000" points="345,-278 345,-297 444,-297 444,-278 345,-278"/>
<text text-anchor="middle" x="394.5" y="-285" font-family="Helvetica,sans-Serif" font-size="10.00" fill="#000000">FMBiGainCalc::init</text>
</a>
</g>
</g>
<!-- Node26&#45;&gt;Node31 -->
<g id="edge12" class="edge">
<title>Node26&#45;&gt;Node31</title>
<path fill="none" stroke="#191970" d="M228.6283,-208.1165C250.5745,-223.7778 286.3488,-247.7679 320,-263.5 332.1867,-269.1974 346.0893,-274.0774 358.5582,-277.9202"/>
<polygon fill="#191970" stroke="#191970" points="230.5417,-205.181 220.3864,-202.1608 226.4418,-210.8547 230.5417,-205.181"/>
</g>
<!-- Node28 -->
<g id="node4" class="node">
<title>Node28</title>
<g id="a_node4"><a xlink:href="classFMBiGainCalc.html#a4b0fdc3f966eac6ec55e73ffe2a792cd" target="_top" xlink:title="FMBiGainCalc::__init\l_gain_2pin_net">
<polygon fill="#ffffff" stroke="#000000" points="505,-185.5 505,-215.5 615,-215.5 615,-185.5 505,-185.5"/>
<text text-anchor="start" x="513" y="-203.5" font-family="Helvetica,sans-Serif" font-size="10.00" fill="#000000">FMBiGainCalc::__init</text>
<text text-anchor="middle" x="560" y="-192.5" font-family="Helvetica,sans-Serif" font-size="10.00" fill="#000000">_gain_2pin_net</text>
</a>
</g>
</g>
<!-- Node27&#45;&gt;Node28 -->
<g id="edge3" class="edge">
<title>Node27&#45;&gt;Node28</title>
<path fill="none" stroke="#191970" d="M453.8631,-201.05C470.5022,-199.5859 488.5157,-198.4223 504.8963,-197.7591"/>
<polygon fill="#191970" stroke="#191970" points="453.3385,-197.5836 443.7074,-201.9986 453.9896,-204.5533 453.3385,-197.5836"/>
</g>
<!-- Node29 -->
<g id="node5" class="node">
<title>Node29</title>
<g id="a_node5"><a xlink:href="classFMBiGainCalc.html#ab361da1d43c28b7f61f0a47c72e6cdb2" target="_top" xlink:title="FMBiGainCalc::__init\l_gain_3pin_net">
<polygon fill="#ffffff" stroke="#000000" points="505,-136.5 505,-166.5 615,-166.5 615,-136.5 505,-136.5"/>
<text text-anchor="start" x="513" y="-154.5" font-family="Helvetica,sans-Serif" font-size="10.00" fill="#000000">FMBiGainCalc::__init</text>
<text text-anchor="middle" x="560" y="-143.5" font-family="Helvetica,sans-Serif" font-size="10.00" fill="#000000">_gain_3pin_net</text>
</a>
</g>
</g>
<!-- Node27&#45;&gt;Node29 -->
<g id="edge6" class="edge">
<title>Node27&#45;&gt;Node29</title>
<path fill="none" stroke="#191970" d="M418.6508,-197.8097C441.2004,-187.8949 475.6746,-174.9075 504.9313,-165.062"/>
<polygon fill="#191970" stroke="#191970" points="417.1272,-194.6577 409.4789,-201.9894 420.03,-201.0274 417.1272,-194.6577"/>
</g>
<!-- Node30 -->
<g id="node6" class="node">
<title>Node30</title>
<g id="a_node6"><a xlink:href="classFMBiGainCalc.html#a7e02f8ebebb3be0cfb183f2cfd6692c8" target="_top" xlink:title="FMBiGainCalc::__init\l_gain_general_net">
<polygon fill="#ffffff" stroke="#000000" points="505,-234.5 505,-264.5 615,-264.5 615,-234.5 505,-234.5"/>
<text text-anchor="start" x="513" y="-252.5" font-family="Helvetica,sans-Serif" font-size="10.00" fill="#000000">FMBiGainCalc::__init</text>
<text text-anchor="middle" x="560" y="-241.5" font-family="Helvetica,sans-Serif" font-size="10.00" fill="#000000">_gain_general_net</text>
</a>
</g>
</g>
<!-- Node27&#45;&gt;Node30 -->
<g id="edge9" class="edge">
<title>Node27&#45;&gt;Node30</title>
<path fill="none" stroke="#191970" d="M475.3612,-223.3179C490.929,-226.8666 506.586,-230.7544 520.1266,-234.4751"/>
<polygon fill="#191970" stroke="#191970" points="475.6896,-219.805 465.167,-221.04 474.163,-226.6365 475.6896,-219.805"/>
</g>
<!-- Node28&#45;&gt;Node26 -->
<g id="edge4" class="edge">
<title>Node28&#45;&gt;Node26</title>
<path fill="none" stroke="#191970" d="M494.6654,-194.062C486.0415,-193.416 477.3133,-192.8647 469,-192.5 402.7807,-189.5949 327.0383,-190.0034 274.1733,-190.8909"/>
<polygon fill="#191970" stroke="#191970" points="494.4645,-197.557 504.7099,-194.8584 495.0179,-190.5789 494.4645,-197.557"/>
</g>
<!-- Node28&#45;&gt;Node27 -->
<g id="edge5" class="edge">
<title>Node28&#45;&gt;Node27</title>
<path fill="none" stroke="#191970" d="M494.6235,-211.4613C486.2165,-212.1515 477.5589,-212.7617 469.0194,-213.2673"/>
<polygon fill="#191970" stroke="#191970" points="495.0705,-214.9357 504.7291,-210.5813 494.4632,-207.9621 495.0705,-214.9357"/>
</g>
<!-- Node29&#45;&gt;Node26 -->
<g id="edge7" class="edge">
<title>Node29&#45;&gt;Node26</title>
<path fill="none" stroke="#191970" d="M494.665,-159.0992C431.88,-166.4019 337.4612,-177.3839 274.217,-184.74"/>
<polygon fill="#191970" stroke="#191970" points="495.3172,-162.5471 504.8458,-157.9151 494.5084,-155.5939 495.3172,-162.5471"/>
</g>
<!-- Node29&#45;&gt;Node27 -->
<g id="edge8" class="edge">
<title>Node29&#45;&gt;Node27</title>
<path fill="none" stroke="#191970" d="M523.4502,-170.4617C498.0928,-180.9336 464.2178,-193.3128 437.5511,-201.8982"/>
<polygon fill="#191970" stroke="#191970" points="524.8644,-173.6639 532.7189,-166.5535 522.1446,-167.2138 524.8644,-173.6639"/>
</g>
<!-- Node30&#45;&gt;Node26 -->
<g id="edge10" class="edge">
<title>Node30&#45;&gt;Node26</title>
<path fill="none" stroke="#191970" d="M494.5798,-248.6625C445.9788,-246.9943 378.2933,-242.4608 320,-230.5 288.0925,-223.9531 252.7172,-211.0126 230.309,-202.0644"/>
<polygon fill="#191970" stroke="#191970" points="494.5465,-252.163 504.6508,-248.9766 494.7648,-245.1664 494.5465,-252.163"/>
</g>
<!-- Node30&#45;&gt;Node27 -->
<g id="edge11" class="edge">
<title>Node30&#45;&gt;Node27</title>
<path fill="none" stroke="#191970" d="M494.8582,-241.1553C466.7455,-235.1462 435.7897,-227.4019 415.7974,-221.0924"/>
<polygon fill="#191970" stroke="#191970" points="494.1564,-244.5841 504.6608,-243.2032 495.5879,-237.7321 494.1564,-244.5841"/>
</g>
<!-- Node34 -->
<g id="node10" class="node">
<title>Node34</title>
<g id="a_node10"><a xlink:href="test__min__cover_8cpp.html#ad62682eeb6c222acc3558269eefe9735" target="_top" xlink:title="Create a contraction subgraph object. ">
<polygon fill="#ffffff" stroke="#000000" points="346,-38.5 346,-68.5 443,-68.5 443,-38.5 346,-38.5"/>
<text text-anchor="start" x="354" y="-56.5" font-family="Helvetica,sans-Serif" font-size="10.00" fill="#000000">create_contraction</text>
<text text-anchor="middle" x="394.5" y="-45.5" font-family="Helvetica,sans-Serif" font-size="10.00" fill="#000000">_subgraph</text>
</a>
</g>
</g>
<!-- Node33&#45;&gt;Node34 -->
<g id="edge15" class="edge">
<title>Node33&#45;&gt;Node34</title>
<path fill="none" stroke="#191970" d="M257.8189,-85.6603C285.0994,-79.2413 318.6647,-71.3436 345.7056,-64.981"/>
<polygon fill="#191970" stroke="#191970" points="257.0087,-82.2552 248.0762,-87.9527 258.6121,-89.0691 257.0087,-82.2552"/>
</g>
<!-- Node36 -->
<g id="node12" class="node">
<title>Node36</title>
<g id="a_node12"><a xlink:href="test__min__cover_8cpp.html#a7e72cb88ccf2fd9e5a2407385216081c" target="_top" xlink:title="TEST_CASE">
<polygon fill="#ffffff" stroke="#000000" points="357,-88 357,-107 432,-107 432,-88 357,-88"/>
<text text-anchor="middle" x="394.5" y="-95" font-family="Helvetica,sans-Serif" font-size="10.00" fill="#000000">TEST_CASE</text>
</a>
</g>
</g>
<!-- Node33&#45;&gt;Node36 -->
<g id="edge17" class="edge">
<title>Node33&#45;&gt;Node36</title>
<path fill="none" stroke="#191970" d="M273.6921,-97.5C301.56,-97.5 332.9757,-97.5 356.7843,-97.5"/>
<polygon fill="#191970" stroke="#191970" points="273.6062,-94.0001 263.6062,-97.5 273.6061,-101.0001 273.6062,-94.0001"/>
</g>
<!-- Node35 -->
<g id="node11" class="node">
<title>Node35</title>
<g id="a_node11"><a xlink:href="test__min__cover_8cpp.html#a05c317144ac7688afb67dabb457b9910" target="_top" xlink:title="TEST_CASE">
<polygon fill="#ffffff" stroke="#000000" points="522.5,-44 522.5,-63 597.5,-63 597.5,-44 522.5,-44"/>
<text text-anchor="middle" x="560" y="-51" font-family="Helvetica,sans-Serif" font-size="10.00" fill="#000000">TEST_CASE</text>
</a>
</g>
</g>
<!-- Node34&#45;&gt;Node35 -->
<g id="edge16" class="edge">
<title>Node34&#45;&gt;Node35</title>
<path fill="none" stroke="#191970" d="M453.2609,-53.5C476.2458,-53.5 501.9335,-53.5 522.3485,-53.5"/>
<polygon fill="#191970" stroke="#191970" points="453.2604,-50.0001 443.2603,-53.5 453.2603,-57.0001 453.2604,-50.0001"/>
</g>
</g>
</svg>
