<?xml version="1.0" encoding="UTF-8" standalone="no"?>
<!DOCTYPE svg PUBLIC "-//W3C//DTD SVG 1.1//EN"
 "http://www.w3.org/Graphics/SVG/1.1/DTD/svg11.dtd">
<!-- Generated by graphviz version 2.40.1 (20161225.0304)
 -->
<!-- Title: FMKWayGainCalc::__init_gain_2pin_net Pages: 1 -->
<svg width="690pt" height="148pt"
 viewBox="0.00 0.00 690.00 147.50" xmlns="http://www.w3.org/2000/svg" xmlns:xlink="http://www.w3.org/1999/xlink">
<g id="graph0" class="graph" transform="scale(1 1) rotate(0) translate(4 143.5)">
<title>FMKWayGainCalc::__init_gain_2pin_net</title>
<polygon fill="#ffffff" stroke="transparent" points="-4,4 -4,-143.5 686,-143.5 686,4 -4,4"/>
<!-- Node27 -->
<g id="node1" class="node">
<title>Node27</title>
<polygon fill="#bfbfbf" stroke="#000000" points="0,-109 0,-139 128,-139 128,-109 0,-109"/>
<text text-anchor="start" x="8" y="-127" font-family="Helvetica,sans-Serif" font-size="10.00" fill="#000000">FMKWayGainCalc::__init</text>
<text text-anchor="middle" x="64" y="-116" font-family="Helvetica,sans-Serif" font-size="10.00" fill="#000000">_gain_2pin_net</text>
</g>
<!-- Node28 -->
<g id="node2" class="node">
<title>Node28</title>
<g id="a_node2"><a xlink:href="classFMKWayGainCalc.html#ab7b8bf55722e1449e394ad08b1290582" target="_top" xlink:title="FMKWayGainCalc::__init_gain">
<polygon fill="#ffffff" stroke="#000000" points="164,-67.5 164,-86.5 315,-86.5 315,-67.5 164,-67.5"/>
<text text-anchor="middle" x="239.5" y="-74.5" font-family="Helvetica,sans-Serif" font-size="10.00" fill="#000000">FMKWayGainCalc::__init_gain</text>
</a>
</g>
</g>
<!-- Node27&#45;&gt;Node28 -->
<g id="edge1" class="edge">
<title>Node27&#45;&gt;Node28</title>
<path fill="none" stroke="#191970" d="M129.8519,-106.3645C154.9529,-99.6423 182.6077,-92.2361 203.8644,-86.5434"/>
<polygon fill="#191970" stroke="#191970" points="128.766,-103.0318 120.0118,-108.9997 130.5769,-109.7936 128.766,-103.0318"/>
</g>
<!-- Node29 -->
<g id="node3" class="node">
<title>Node29</title>
<g id="a_node3"><a xlink:href="classFMKWayGainCalc.html#ac4e6255c0ffc3141805628779fa45e41" target="_top" xlink:title="FMKWayGainCalc::__modify_gain">
<polygon fill="#ffffff" stroke="#000000" points="351,-114.5 351,-133.5 518,-133.5 518,-114.5 351,-114.5"/>
<text text-anchor="middle" x="434.5" y="-121.5" font-family="Helvetica,sans-Serif" font-size="10.00" fill="#000000">FMKWayGainCalc::__modify_gain</text>
</a>
</g>
</g>
<!-- Node27&#45;&gt;Node29 -->
<g id="edge11" class="edge">
<title>Node27&#45;&gt;Node29</title>
<path fill="none" stroke="#191970" d="M138.1182,-118.4729C199.5137,-116.9224 286.7436,-116.8463 350.6751,-118.2446"/>
<polygon fill="#191970" stroke="#191970" points="138.0141,-114.9743 128.1132,-118.7455 138.2049,-121.9717 138.0141,-114.9743"/>
</g>
<!-- Node28&#45;&gt;Node29 -->
<g id="edge2" class="edge">
<title>Node28&#45;&gt;Node29</title>
<path fill="none" stroke="#191970" d="M288.805,-88.8838C321.6072,-96.7899 364.1327,-107.0397 394.7634,-114.4224"/>
<polygon fill="#191970" stroke="#191970" points="289.5029,-85.4518 278.9612,-86.5112 287.8626,-92.2569 289.5029,-85.4518"/>
</g>
<!-- Node32 -->
<g id="node6" class="node">
<title>Node32</title>
<g id="a_node6"><a xlink:href="classFMKWayGainCalc.html#a90ac9b44385bb59b4e03258ed44b17e6" target="_top" xlink:title="FMKWayGainCalc::init">
<polygon fill="#ffffff" stroke="#000000" points="376,-.5 376,-19.5 493,-19.5 493,-.5 376,-.5"/>
<text text-anchor="middle" x="434.5" y="-7.5" font-family="Helvetica,sans-Serif" font-size="10.00" fill="#000000">FMKWayGainCalc::init</text>
</a>
</g>
</g>
<!-- Node28&#45;&gt;Node32 -->
<g id="edge10" class="edge">
<title>Node28&#45;&gt;Node32</title>
<path fill="none" stroke="#191970" d="M272.3261,-63.4631C294.3901,-54.582 324.2224,-42.9922 351,-34 366.4427,-28.8142 383.7168,-23.7324 398.5286,-19.5899"/>
<polygon fill="#191970" stroke="#191970" points="270.7275,-60.3343 262.7741,-67.3339 273.3565,-66.8219 270.7275,-60.3343"/>
</g>
<!-- Node29&#45;&gt;Node27 -->
<g id="edge3" class="edge">
<title>Node29&#45;&gt;Node27</title>
<path fill="none" stroke="#191970" d="M340.6098,-129.9599C274.1339,-131.2113 186.7208,-130.9762 128.1132,-129.2545"/>
<polygon fill="#191970" stroke="#191970" points="340.7483,-133.4579 350.6751,-129.7554 340.6061,-126.4593 340.7483,-133.4579"/>
</g>
<!-- Node30 -->
<g id="node4" class="node">
<title>Node30</title>
<g id="a_node4"><a xlink:href="classFMKWayGainCalc.html#a3d58586faf2497c85377e7d42d7b8724" target="_top" xlink:title="FMKWayGainCalc::__init\l_gain_3pin_net">
<polygon fill="#ffffff" stroke="#000000" points="554,-109 554,-139 682,-139 682,-109 554,-109"/>
<text text-anchor="start" x="562" y="-127" font-family="Helvetica,sans-Serif" font-size="10.00" fill="#000000">FMKWayGainCalc::__init</text>
<text text-anchor="middle" x="618" y="-116" font-family="Helvetica,sans-Serif" font-size="10.00" fill="#000000">_gain_3pin_net</text>
</a>
</g>
</g>
<!-- Node29&#45;&gt;Node30 -->
<g id="edge4" class="edge">
<title>Node29&#45;&gt;Node30</title>
<path fill="none" stroke="#191970" d="M528.3496,-117.2516C537.0056,-117.2645 545.6366,-117.3576 553.9343,-117.5309"/>
<polygon fill="#191970" stroke="#191970" points="528.1878,-113.7518 518.1953,-117.2732 528.2027,-120.7518 528.1878,-113.7518"/>
</g>
<!-- Node31 -->
<g id="node5" class="node">
<title>Node31</title>
<g id="a_node5"><a xlink:href="classFMKWayGainCalc.html#ad10182c880296aa4182775a7099e5874" target="_top" xlink:title="FMKWayGainCalc::__init\l_gain_general_net">
<polygon fill="#ffffff" stroke="#000000" points="554,-60 554,-90 682,-90 682,-60 554,-60"/>
<text text-anchor="start" x="562" y="-78" font-family="Helvetica,sans-Serif" font-size="10.00" fill="#000000">FMKWayGainCalc::__init</text>
<text text-anchor="middle" x="618" y="-67" font-family="Helvetica,sans-Serif" font-size="10.00" fill="#000000">_gain_general_net</text>
</a>
</g>
</g>
<!-- Node29&#45;&gt;Node31 -->
<g id="edge7" class="edge">
<title>Node29&#45;&gt;Node31</title>
<path fill="none" stroke="#191970" d="M463.779,-111.0798C487.9556,-103.0735 523.1533,-93.2181 553.8206,-85.6663"/>
<polygon fill="#191970" stroke="#191970" points="462.4618,-107.8314 454.1377,-114.3858 464.7323,-114.4529 462.4618,-107.8314"/>
</g>
<!-- Node30&#45;&gt;Node28 -->
<g id="edge6" class="edge">
<title>Node30&#45;&gt;Node28</title>
<path fill="none" stroke="#191970" d="M543.7434,-109.1446C535.0828,-107.6337 526.3591,-106.2119 518,-105 449.5897,-95.0815 371.2153,-87.5404 315.0727,-82.797"/>
<polygon fill="#191970" stroke="#191970" points="543.3959,-112.6379 553.8558,-110.952 544.6276,-105.7471 543.3959,-112.6379"/>
</g>
<!-- Node30&#45;&gt;Node29 -->
<g id="edge5" class="edge">
<title>Node30&#45;&gt;Node29</title>
<path fill="none" stroke="#191970" d="M543.7813,-130.6393C535.3579,-130.7469 526.7297,-130.776 518.1953,-130.7268"/>
<polygon fill="#191970" stroke="#191970" points="543.9944,-134.1363 553.9343,-130.4691 543.8771,-127.1373 543.9944,-134.1363"/>
</g>
<!-- Node31&#45;&gt;Node28 -->
<g id="edge9" class="edge">
<title>Node31&#45;&gt;Node28</title>
<path fill="none" stroke="#191970" d="M543.8227,-72.5266C535.1187,-72.3098 526.3633,-72.1254 518,-72 443.7861,-70.887 425.2036,-70.3371 351,-72 339.3767,-72.2605 327.0769,-72.6735 315.0562,-73.1533"/>
<polygon fill="#191970" stroke="#191970" points="543.9017,-76.0297 553.9903,-72.7942 544.086,-69.0322 543.9017,-76.0297"/>
</g>
<!-- Node31&#45;&gt;Node29 -->
<g id="edge8" class="edge">
<title>Node31&#45;&gt;Node29</title>
<path fill="none" stroke="#191970" d="M572.4547,-93.085C548.7727,-100.3354 519.5333,-108.2911 494.0772,-114.4579"/>
<polygon fill="#191970" stroke="#191970" points="573.7358,-96.3516 582.2366,-90.0281 571.6478,-89.6703 573.7358,-96.3516"/>
</g>
</g>
</svg>
