<?xml version="1.0" encoding="UTF-8" standalone="no"?>
<!DOCTYPE svg PUBLIC "-//W3C//DTD SVG 1.1//EN"
 "http://www.w3.org/Graphics/SVG/1.1/DTD/svg11.dtd">
<!-- Generated by graphviz version 2.40.1 (20161225.0304)
 -->
<!-- Title: set_partition_::__GEN1_even Pages: 1 -->
<svg width="1552pt" height="558pt"
 viewBox="0.00 0.00 1552.00 558.09" xmlns="http://www.w3.org/2000/svg" xmlns:xlink="http://www.w3.org/1999/xlink">
<g id="graph0" class="graph" transform="scale(1 1) rotate(0) translate(4 554.09)">
<title>set_partition_::__GEN1_even</title>
<polygon fill="#ffffff" stroke="transparent" points="-4,4 -4,-554.09 1548,-554.09 1548,4 -4,4"/>
<!-- Node42 -->
<g id="node1" class="node">
<title>Node42</title>
<polygon fill="#bfbfbf" stroke="#000000" points="0,-206.59 0,-225.59 145,-225.59 145,-206.59 0,-206.59"/>
<text text-anchor="middle" x="72.5" y="-213.59" font-family="Helvetica,sans-Serif" font-size="10.00" fill="#000000">set_partition_::__GEN1_even</text>
</g>
<!-- Node43 -->
<g id="node2" class="node">
<title>Node43</title>
<g id="a_node2"><a xlink:href="classset__partition__.html#a6dc3ea3155a1012318a485d48d373d4b" target="_top" xlink:title="S(n,k,1) odd k. ">
<polygon fill="#ffffff" stroke="#000000" points="181,-399.59 181,-418.59 321,-418.59 321,-399.59 181,-399.59"/>
<text text-anchor="middle" x="251" y="-406.59" font-family="Helvetica,sans-Serif" font-size="10.00" fill="#000000">set_partition_::__GEN1_odd</text>
</a>
</g>
</g>
<!-- Node42&#45;&gt;Node43 -->
<g id="edge1" class="edge">
<title>Node42&#45;&gt;Node43</title>
<path fill="none" stroke="#191970" d="M81.3518,-225.6609C109.7236,-256.3374 198.6645,-352.5031 235.1467,-391.9489"/>
<polygon fill="#191970" stroke="#191970" points="232.7353,-394.4963 242.0947,-399.4613 237.8743,-389.7434 232.7353,-394.4963"/>
</g>
<!-- Node46 -->
<g id="node5" class="node">
<title>Node46</title>
<g id="a_node5"><a xlink:href="classset__partition__.html#ae46020a9dfeb6915b6fa4565ea8074b7" target="_top" xlink:title="Move. ">
<polygon fill="#ffffff" stroke="#000000" points="1252,-243.59 1252,-262.59 1368,-262.59 1368,-243.59 1252,-243.59"/>
<text text-anchor="middle" x="1310" y="-250.59" font-family="Helvetica,sans-Serif" font-size="10.00" fill="#000000">set_partition_::__Move</text>
</a>
</g>
</g>
<!-- Node42&#45;&gt;Node46 -->
<g id="edge35" class="edge">
<title>Node42&#45;&gt;Node46</title>
<path fill="none" stroke="#191970" d="M80.1496,-206.3661C116.359,-168.6385 275.2105,-38.09 429.5,-38.09 429.5,-38.09 429.5,-38.09 789,-38.09 984.5379,-38.09 1047.2708,-45.2694 1216,-144.09 1254.2985,-166.5205 1286.6306,-209.2534 1301.402,-234.3348"/>
<polygon fill="#191970" stroke="#191970" points="1298.4457,-236.2227 1306.329,-243.3011 1304.5805,-232.8516 1298.4457,-236.2227"/>
</g>
<!-- Node48 -->
<g id="node7" class="node">
<title>Node48</title>
<g id="a_node7"><a xlink:href="classset__partition__.html#a9d82ab7c3fe00c55dcfea691be7a9beb" target="_top" xlink:title="S&#39;(n,k,1) even k. ">
<polygon fill="#ffffff" stroke="#000000" points="538,-272.59 538,-291.59 683,-291.59 683,-272.59 538,-272.59"/>
<text text-anchor="middle" x="610.5" y="-279.59" font-family="Helvetica,sans-Serif" font-size="10.00" fill="#000000">set_partition_::__NEG1_even</text>
</a>
</g>
</g>
<!-- Node42&#45;&gt;Node48 -->
<g id="edge36" class="edge">
<title>Node42&#45;&gt;Node48</title>
<path fill="none" stroke="#191970" d="M123.53,-225.6339C141.4856,-230.7923 161.9409,-236.5042 181,-240.09 300.1246,-262.5026 440.5746,-269.7632 527.594,-274.3581"/>
<polygon fill="#191970" stroke="#191970" points="527.5032,-277.8582 537.6744,-274.8922 527.8736,-270.868 527.5032,-277.8582"/>
</g>
<!-- Node44 -->
<g id="node3" class="node">
<title>Node44</title>
<g id="a_node3"><a xlink:href="classset__partition__.html#a687b778e3d61f8d08ecdcaa18797bc17" target="_top" xlink:title="S(n,k,0) even k. ">
<polygon fill="#ffffff" stroke="#000000" points="357,-145.59 357,-164.59 502,-164.59 502,-145.59 357,-145.59"/>
<text text-anchor="middle" x="429.5" y="-152.59" font-family="Helvetica,sans-Serif" font-size="10.00" fill="#000000">set_partition_::__GEN0_even</text>
</a>
</g>
</g>
<!-- Node43&#45;&gt;Node44 -->
<g id="edge2" class="edge">
<title>Node43&#45;&gt;Node44</title>
<path fill="none" stroke="#191970" d="M257.7794,-399.4431C284.3975,-361.5664 382.0014,-222.6791 416.9487,-172.95"/>
<polygon fill="#191970" stroke="#191970" points="419.8276,-174.9407 422.7138,-164.7466 414.1004,-170.9159 419.8276,-174.9407"/>
</g>
<!-- Node43&#45;&gt;Node46 -->
<g id="edge33" class="edge">
<title>Node43&#45;&gt;Node46</title>
<path fill="none" stroke="#191970" d="M321.2638,-402.3287C393.7306,-400.09 510.0148,-400.09 610.5,-400.09 610.5,-400.09 610.5,-400.09 967.5,-400.09 1097.1671,-400.09 1231.6196,-306.3432 1285.5159,-268.3881"/>
<polygon fill="#191970" stroke="#191970" points="1287.5879,-271.2098 1293.7535,-262.5937 1283.5606,-265.4843 1287.5879,-271.2098"/>
</g>
<!-- Node49 -->
<g id="node8" class="node">
<title>Node49</title>
<g id="a_node8"><a xlink:href="classset__partition__.html#a1071d4d0441e793ffcf62dee406da1b8" target="_top" xlink:title="S&#39;(n,k,1) odd k. ">
<polygon fill="#ffffff" stroke="#000000" points="719,-455.59 719,-474.59 859,-474.59 859,-455.59 719,-455.59"/>
<text text-anchor="middle" x="789" y="-462.59" font-family="Helvetica,sans-Serif" font-size="10.00" fill="#000000">set_partition_::__NEG1_odd</text>
</a>
</g>
</g>
<!-- Node43&#45;&gt;Node49 -->
<g id="edge34" class="edge">
<title>Node43&#45;&gt;Node49</title>
<path fill="none" stroke="#191970" d="M321.1699,-416.8638C333.0765,-419.1491 345.3541,-421.3899 357,-423.09 478.8904,-440.8834 621.6188,-449.4161 708.6435,-455.611"/>
<polygon fill="#191970" stroke="#191970" points="708.4881,-459.1088 718.7137,-456.3363 708.991,-452.1269 708.4881,-459.1088"/>
</g>
<!-- Node44&#45;&gt;Node42 -->
<g id="edge30" class="edge">
<title>Node44&#45;&gt;Node42</title>
<path fill="none" stroke="#191970" d="M373.8168,-164.6045C310.1581,-175.4818 206.0471,-193.271 138.4004,-204.8297"/>
<polygon fill="#191970" stroke="#191970" points="137.5489,-201.4244 128.2813,-206.5588 138.7279,-208.3244 137.5489,-201.4244"/>
</g>
<!-- Node45 -->
<g id="node4" class="node">
<title>Node45</title>
<g id="a_node4"><a xlink:href="classset__partition__.html#a61b36346bde2f311e912458395676b03" target="_top" xlink:title="S(n,k,0) odd k. ">
<polygon fill="#ffffff" stroke="#000000" points="1404,-243.59 1404,-262.59 1544,-262.59 1544,-243.59 1404,-243.59"/>
<text text-anchor="middle" x="1474" y="-250.59" font-family="Helvetica,sans-Serif" font-size="10.00" fill="#000000">set_partition_::__GEN0_odd</text>
</a>
</g>
</g>
<!-- Node44&#45;&gt;Node45 -->
<g id="edge3" class="edge">
<title>Node44&#45;&gt;Node45</title>
<path fill="none" stroke="#191970" d="M483.4456,-145.5544C500.8146,-142.775 520.1774,-139.9807 538,-138.09 837.7252,-106.2932 926.5853,-68.9155 1216,-153.09 1300.4056,-177.6388 1395.9637,-218.1849 1443.6071,-239.3168"/>
<polygon fill="#191970" stroke="#191970" points="1442.4668,-242.6406 1453.0252,-243.5187 1445.3189,-236.2479 1442.4668,-242.6406"/>
</g>
<!-- Node44&#45;&gt;Node46 -->
<g id="edge31" class="edge">
<title>Node44&#45;&gt;Node46</title>
<path fill="none" stroke="#191970" d="M482.4688,-145.5871C552.5658,-138.5949 680.0064,-132.09 789,-132.09 789,-132.09 789,-132.09 967.5,-132.09 1096.7738,-132.09 1240.5061,-205.0629 1291.1282,-237.937"/>
<polygon fill="#191970" stroke="#191970" points="1289.2285,-240.8775 1299.4724,-243.582 1293.1509,-235.0797 1289.2285,-240.8775"/>
</g>
<!-- Node44&#45;&gt;Node48 -->
<g id="edge32" class="edge">
<title>Node44&#45;&gt;Node48</title>
<path fill="none" stroke="#191970" d="M443.1044,-164.6356C474.1582,-186.4248 550.498,-239.9892 588.405,-266.5869"/>
<polygon fill="#191970" stroke="#191970" points="586.5414,-269.5549 596.7377,-272.4336 590.5621,-263.8247 586.5414,-269.5549"/>
</g>
<!-- Node45&#45;&gt;Node42 -->
<g id="edge4" class="edge">
<title>Node45&#45;&gt;Node42</title>
<path fill="none" stroke="#191970" d="M1468.2386,-243.481C1439.7226,-197.2676 1308.5308,-.09 1146,-.09 429.5,-.09 429.5,-.09 429.5,-.09 315.5615,-.09 274.9652,1.35 181,-63.09 130.3537,-97.8226 95.445,-164.4141 80.5723,-197.0757"/>
<polygon fill="#191970" stroke="#191970" points="77.2908,-195.8429 76.453,-206.4045 83.6943,-198.6705 77.2908,-195.8429"/>
</g>
<!-- Node45&#45;&gt;Node43 -->
<g id="edge5" class="edge">
<title>Node45&#45;&gt;Node43</title>
<path fill="none" stroke="#191970" d="M1470.3872,-262.7311C1459.2065,-291.4779 1422.6042,-377.8389 1368,-430.09 1286.965,-507.6328 1258.1586,-550.09 1146,-550.09 610.5,-550.09 610.5,-550.09 610.5,-550.09 474.2423,-550.09 327.7455,-461.2176 273.1509,-424.587"/>
<polygon fill="#191970" stroke="#191970" points="274.8549,-421.5132 264.6183,-418.7815 270.9172,-427.3006 274.8549,-421.5132"/>
</g>
<!-- Node45&#45;&gt;Node46 -->
<g id="edge6" class="edge">
<title>Node45&#45;&gt;Node46</title>
<path fill="none" stroke="#191970" d="M1403.8341,-259.7771C1395.4071,-259.8672 1386.8098,-259.8605 1378.4083,-259.7569"/>
<polygon fill="#191970" stroke="#191970" points="1378.3409,-256.2553 1368.282,-259.5825 1378.2203,-263.2543 1378.3409,-256.2553"/>
</g>
<!-- Node45&#45;&gt;Node49 -->
<g id="edge29" class="edge">
<title>Node45&#45;&gt;Node49</title>
<path fill="none" stroke="#191970" d="M1466.8732,-262.6048C1439.3306,-298.5519 1335.418,-426.6955 1216,-479.09 1085.1262,-536.5107 1036.2922,-519.575 895,-498.09 869.9458,-494.2802 842.6654,-485.6787 822.0548,-478.2125"/>
<polygon fill="#191970" stroke="#191970" points="823.1046,-474.8688 812.5117,-474.6645 820.6652,-481.43 823.1046,-474.8688"/>
</g>
<!-- Node46&#45;&gt;Node42 -->
<g id="edge23" class="edge">
<title>Node46&#45;&gt;Node42</title>
<path fill="none" stroke="#191970" d="M1299.8503,-243.485C1284.4461,-224.3981 1253.0087,-183.7651 1216,-162.09 1047.2708,-63.2694 984.5379,-56.09 789,-56.09 429.5,-56.09 429.5,-56.09 429.5,-56.09 292.1161,-56.09 151.1151,-159.5973 96.3019,-200.2875"/>
<polygon fill="#191970" stroke="#191970" points="93.9119,-197.7025 87.9644,-206.4705 98.0816,-203.3252 93.9119,-197.7025"/>
</g>
<!-- Node46&#45;&gt;Node43 -->
<g id="edge27" class="edge">
<title>Node46&#45;&gt;Node43</title>
<path fill="none" stroke="#191970" d="M1302.1438,-262.7638C1266.3165,-298.6525 1113.8598,-418.09 967.5,-418.09 610.5,-418.09 610.5,-418.09 610.5,-418.09 514.5287,-418.09 404.1461,-418.09 331.2897,-416.1396"/>
<polygon fill="#191970" stroke="#191970" points="331.3603,-412.6403 321.2638,-415.8513 331.159,-419.6374 331.3603,-412.6403"/>
</g>
<!-- Node46&#45;&gt;Node44 -->
<g id="edge7" class="edge">
<title>Node46&#45;&gt;Node44</title>
<path fill="none" stroke="#191970" d="M1284.72,-243.4816C1229.2065,-217.4278 1091.6822,-150.09 967.5,-150.09 789,-150.09 789,-150.09 789,-150.09 694,-150.09 584.9856,-155.0318 512.1431,-157.1558"/>
<polygon fill="#191970" stroke="#191970" points="512.0083,-153.6581 502.11,-157.436 512.2038,-160.6554 512.0083,-153.6581"/>
</g>
<!-- Node46&#45;&gt;Node45 -->
<g id="edge25" class="edge">
<title>Node46&#45;&gt;Node45</title>
<path fill="none" stroke="#191970" d="M1368.282,-246.5975C1376.5537,-246.4131 1385.1776,-246.3278 1393.7755,-246.3414"/>
<polygon fill="#191970" stroke="#191970" points="1393.8129,-249.8416 1403.8341,-246.4029 1393.8557,-242.8417 1393.8129,-249.8416"/>
</g>
<!-- Node47 -->
<g id="node6" class="node">
<title>Node47</title>
<g id="a_node6"><a xlink:href="classset__partition__.html#a2c1f63ac643153a63f521f0dbbfb369f" target="_top" xlink:title="S&#39;(n,k,0) even k. ">
<polygon fill="#ffffff" stroke="#000000" points="895,-238.59 895,-257.59 1040,-257.59 1040,-238.59 895,-238.59"/>
<text text-anchor="middle" x="967.5" y="-245.59" font-family="Helvetica,sans-Serif" font-size="10.00" fill="#000000">set_partition_::__NEG0_even</text>
</a>
</g>
</g>
<!-- Node46&#45;&gt;Node47 -->
<g id="edge8" class="edge">
<title>Node46&#45;&gt;Node47</title>
<path fill="none" stroke="#191970" d="M1251.9419,-257.4581C1196.6008,-258.4448 1112.6965,-257.4403 1050.3405,-255.1761"/>
<polygon fill="#191970" stroke="#191970" points="1050.2618,-251.6706 1040.1354,-254.7864 1049.9946,-258.6655 1050.2618,-251.6706"/>
</g>
<!-- Node46&#45;&gt;Node48 -->
<g id="edge24" class="edge">
<title>Node46&#45;&gt;Node48</title>
<path fill="none" stroke="#191970" d="M1251.9005,-253.3987C1197.2891,-249.5174 1113.2237,-241.338 1040,-238.09 897.0419,-231.7488 859.3357,-235.1057 719,-263.09 708.4831,-265.1872 697.4645,-267.6795 686.648,-270.2096"/>
<polygon fill="#191970" stroke="#191970" points="685.7213,-266.8321 676.7914,-272.5336 687.3277,-273.6453 685.7213,-266.8321"/>
</g>
<!-- Node46&#45;&gt;Node49 -->
<g id="edge28" class="edge">
<title>Node46&#45;&gt;Node49</title>
<path fill="none" stroke="#191970" d="M1308.8427,-263.0306C1303.7709,-296.0264 1280.7937,-398.4366 1216,-441.09 1091.4396,-523.0876 899.9576,-496.857 822.872,-477.3243"/>
<polygon fill="#191970" stroke="#191970" points="823.3377,-473.8259 812.773,-474.6245 821.5299,-480.5885 823.3377,-473.8259"/>
</g>
<!-- Node50 -->
<g id="node9" class="node">
<title>Node50</title>
<g id="a_node9"><a xlink:href="classset__partition__.html#a6e2508bffc7bc4e6ebb4407219b97607" target="_top" xlink:title="S&#39;(n,k,0) odd k. ">
<polygon fill="#ffffff" stroke="#000000" points="1076,-290.59 1076,-309.59 1216,-309.59 1216,-290.59 1076,-290.59"/>
<text text-anchor="middle" x="1146" y="-297.59" font-family="Helvetica,sans-Serif" font-size="10.00" fill="#000000">set_partition_::__NEG0_odd</text>
</a>
</g>
</g>
<!-- Node46&#45;&gt;Node50 -->
<g id="edge26" class="edge">
<title>Node46&#45;&gt;Node50</title>
<path fill="none" stroke="#191970" d="M1291.9198,-262.6946C1272.562,-270.146 1240.7064,-280.0109 1211.6901,-287.8941"/>
<polygon fill="#191970" stroke="#191970" points="1210.7402,-284.525 1201.9808,-290.4852 1212.5452,-291.2883 1210.7402,-284.525"/>
</g>
<!-- Node47&#45;&gt;Node42 -->
<g id="edge9" class="edge">
<title>Node47&#45;&gt;Node42</title>
<path fill="none" stroke="#191970" d="M894.7335,-245.4883C730.0256,-239.5993 329.4951,-225.2787 155.4877,-219.0572"/>
<polygon fill="#191970" stroke="#191970" points="155.4808,-215.5548 145.3621,-218.6951 155.2307,-222.5503 155.4808,-215.5548"/>
</g>
<!-- Node47&#45;&gt;Node46 -->
<g id="edge10" class="edge">
<title>Node47&#45;&gt;Node46</title>
<path fill="none" stroke="#191970" d="M1040.1354,-243.5144C1099.6903,-242.861 1183.3829,-244.1212 1241.7191,-246.5725"/>
<polygon fill="#191970" stroke="#191970" points="1241.7964,-250.0793 1251.9419,-247.0268 1242.1072,-243.0862 1241.7964,-250.0793"/>
</g>
<!-- Node47&#45;&gt;Node48 -->
<g id="edge11" class="edge">
<title>Node47&#45;&gt;Node48</title>
<path fill="none" stroke="#191970" d="M894.9272,-255.0017C836.4396,-260.5719 754.1797,-268.4062 693.1602,-274.2176"/>
<polygon fill="#191970" stroke="#191970" points="692.7977,-270.7362 683.1746,-275.1686 693.4614,-277.7047 692.7977,-270.7362"/>
</g>
<!-- Node47&#45;&gt;Node50 -->
<g id="edge18" class="edge">
<title>Node47&#45;&gt;Node50</title>
<path fill="none" stroke="#191970" d="M1000.2397,-257.6276C1029.2108,-266.0674 1071.6773,-278.4386 1103.308,-287.6531"/>
<polygon fill="#191970" stroke="#191970" points="1102.5863,-291.0883 1113.1661,-290.525 1104.5442,-284.3677 1102.5863,-291.0883"/>
</g>
<!-- Node48&#45;&gt;Node42 -->
<g id="edge13" class="edge">
<title>Node48&#45;&gt;Node42</title>
<path fill="none" stroke="#191970" d="M537.6744,-287.7594C451.7299,-288.3144 304.8412,-281.39 181,-258.09 149.4296,-252.1502 114.0281,-240.377 92.5031,-230.2888"/>
<polygon fill="#191970" stroke="#191970" points="93.8906,-227.0678 83.3907,-225.6525 90.7162,-233.3067 93.8906,-227.0678"/>
</g>
<!-- Node48&#45;&gt;Node46 -->
<g id="edge12" class="edge">
<title>Node48&#45;&gt;Node46</title>
<path fill="none" stroke="#191970" d="M623.4193,-272.544C643.6448,-263.3686 684.0867,-252.0521 719,-245.09 859.3357,-217.1057 897.0419,-213.7488 1040,-220.09 1120.6577,-223.6677 1214.4704,-233.2291 1267.5808,-241.856"/>
<polygon fill="#191970" stroke="#191970" points="1267.199,-245.3413 1277.6442,-243.5669 1268.3723,-238.4403 1267.199,-245.3413"/>
</g>
<!-- Node48&#45;&gt;Node49 -->
<g id="edge14" class="edge">
<title>Node48&#45;&gt;Node49</title>
<path fill="none" stroke="#191970" d="M619.8456,-291.6712C648.5089,-321.0571 735.459,-410.1992 772.261,-447.9291"/>
<polygon fill="#191970" stroke="#191970" points="769.826,-450.4452 779.314,-455.1598 774.837,-445.5574 769.826,-450.4452"/>
</g>
<!-- Node49&#45;&gt;Node43 -->
<g id="edge16" class="edge">
<title>Node49&#45;&gt;Node43</title>
<path fill="none" stroke="#191970" d="M718.7137,-469.0419C632.9538,-468.0773 483.7165,-459.5879 357,-441.09 328.3364,-436.9057 295.8468,-429.4454 274.4787,-422.2043"/>
<polygon fill="#191970" stroke="#191970" points="275.5411,-418.8656 264.9479,-418.6825 273.1148,-425.4317 275.5411,-418.8656"/>
</g>
<!-- Node49&#45;&gt;Node46 -->
<g id="edge15" class="edge">
<title>Node49&#45;&gt;Node46</title>
<path fill="none" stroke="#191970" d="M859.1034,-472.8234C949.5097,-483.907 1107.9385,-494.2265 1216,-423.09 1270.2024,-387.4088 1295.1418,-309.91 1304.8158,-272.9906"/>
<polygon fill="#191970" stroke="#191970" points="1308.302,-273.4783 1307.3435,-262.9269 1301.5129,-271.773 1308.302,-273.4783"/>
</g>
<!-- Node49&#45;&gt;Node47 -->
<g id="edge17" class="edge">
<title>Node49&#45;&gt;Node47</title>
<path fill="none" stroke="#191970" d="M796.9002,-455.4858C824.479,-421.9587 916.7545,-309.7806 952.8495,-265.9004"/>
<polygon fill="#191970" stroke="#191970" points="955.6339,-268.0249 959.2836,-258.0785 950.2279,-263.578 955.6339,-268.0249"/>
</g>
<!-- Node50&#45;&gt;Node43 -->
<g id="edge19" class="edge">
<title>Node50&#45;&gt;Node43</title>
<path fill="none" stroke="#191970" d="M1075.9924,-306.7667C909.7711,-322.7736 494.9609,-363.6674 357,-386.09 338.3548,-389.1204 318.0461,-393.3074 300.2405,-397.2792"/>
<polygon fill="#191970" stroke="#191970" points="299.0565,-393.9587 290.0775,-399.5826 300.6038,-400.7856 299.0565,-393.9587"/>
</g>
<!-- Node50&#45;&gt;Node46 -->
<g id="edge20" class="edge">
<title>Node50&#45;&gt;Node46</title>
<path fill="none" stroke="#191970" d="M1163.8631,-290.5691C1183.2555,-283.0863 1215.3717,-273.1407 1244.5649,-265.2167"/>
<polygon fill="#191970" stroke="#191970" points="1245.5695,-268.5712 1254.3305,-262.6134 1243.7664,-261.8074 1245.5695,-268.5712"/>
</g>
<!-- Node50&#45;&gt;Node48 -->
<g id="edge22" class="edge">
<title>Node50&#45;&gt;Node48</title>
<path fill="none" stroke="#191970" d="M1075.9358,-297.7349C977.4836,-294.4256 798.5198,-288.41 693.5153,-284.8804"/>
<polygon fill="#191970" stroke="#191970" points="693.3892,-281.3743 683.2772,-284.5363 693.154,-288.3704 693.3892,-281.3743"/>
</g>
<!-- Node50&#45;&gt;Node49 -->
<g id="edge21" class="edge">
<title>Node50&#45;&gt;Node49</title>
<path fill="none" stroke="#191970" d="M1125.2058,-309.7007C1064.8705,-337.5868 889.5779,-418.6044 818.9808,-451.2333"/>
<polygon fill="#191970" stroke="#191970" points="817.3459,-448.1332 809.7369,-455.5057 820.2827,-454.4873 817.3459,-448.1332"/>
</g>
</g>
</svg>
