<?xml version="1.0" encoding="UTF-8" standalone="no"?>
<!DOCTYPE svg PUBLIC "-//W3C//DTD SVG 1.1//EN"
 "http://www.w3.org/Graphics/SVG/1.1/DTD/svg11.dtd">
<!-- Generated by graphviz version 2.40.1 (20161225.0304)
 -->
<!-- Title: FMKWayGainCalc::__modify_gain Pages: 1 -->
<!--zoomable 157 -->
<svg id="main" version="1.1" xmlns="http://www.w3.org/2000/svg" xmlns:xlink="http://www.w3.org/1999/xlink" xml:space="preserve" onload="init(evt)">
<style type="text/css"><![CDATA[
.edge:hover path { stroke: red; }
.edge:hover polygon { stroke: red; fill: red; }
]]></style>
<script type="text/javascript"><![CDATA[
var edges = document.getElementsByTagName('g');
if (edges && edges.length) {
  for (var i=0;i<edges.length;i++) {
    if (edges[i].id.substr(0,4)=='edge') {
      edges[i].setAttribute('class','edge');
    }
  }
}
]]></script>
        <defs>
                <circle id="rim" cx="0" cy="0" r="7"/>
                <circle id="rim2" cx="0" cy="0" r="3.5"/>
                <g id="zoomPlus">
                        <use xlink:href="#rim" fill="#404040">
                                <set attributeName="fill" to="#808080" begin="zoomplus.mouseover" end="zoomplus.mouseout"/>
                        </use>
                        <path d="M-4,0h8M0,-4v8" fill="none" stroke="white" stroke-width="1.5" pointer-events="none"/>
                </g>
                <g id="zoomMin">
                        <use xlink:href="#rim" fill="#404040">
                                <set attributeName="fill" to="#808080" begin="zoomminus.mouseover" end="zoomminus.mouseout"/>
                        </use>
                        <path d="M-4,0h8" fill="none" stroke="white" stroke-width="1.5" pointer-events="none"/>
                </g>
                <g id="dirArrow">
                        <path fill="none" stroke="white" stroke-width="1.5" d="M0,-3.0v7 M-2.5,-0.5L0,-3.0L2.5,-0.5"/>
                </g>
               <g id="resetDef">
                       <use xlink:href="#rim2" fill="#404040">
                               <set attributeName="fill" to="#808080" begin="reset.mouseover" end="reset.mouseout"/>
                       </use>
               </g>
        </defs>

<script type="text/javascript">
var viewWidth = 679;
var viewHeight = 157;
var sectionId = 'dynsection-11';
</script>
<script xlink:href="svgpan.js"/>
<svg id="graph" class="graph">
<g id="viewport">
<title>FMKWayGainCalc::__modify_gain</title>
<polygon fill="#ffffff" stroke="transparent" points="-4,4 -4,-152.9661 675,-152.9661 675,4 -4,4"/>
<!-- Node72 -->
<g id="node1" class="node">
<title>Node72</title>
<polygon fill="#bfbfbf" stroke="#000000" points="0,-74.9661 0,-93.9661 167,-93.9661 167,-74.9661 0,-74.9661"/>
<text text-anchor="middle" x="83.5" y="-81.9661" font-family="Helvetica,sans-Serif" font-size="10.00" fill="#000000">FMKWayGainCalc::__modify_gain</text>
</g>
<!-- Node73 -->
<g id="node2" class="node">
<title>Node73</title>
<g id="a_node2"><a xlink:href="classFMKWayGainCalc.html#ac6d158d36c93cd11b407dedfe3f7ab9d" target="_top" xlink:title="FMKWayGainCalc::__init\l_gain_2pin_net">
<polygon fill="#ffffff" stroke="#000000" points="203,-118.4661 203,-148.4661 331,-148.4661 331,-118.4661 203,-118.4661"/>
<text text-anchor="start" x="211" y="-136.4661" font-family="Helvetica,sans-Serif" font-size="10.00" fill="#000000">FMKWayGainCalc::__init</text>
<text text-anchor="middle" x="267" y="-125.4661" font-family="Helvetica,sans-Serif" font-size="10.00" fill="#000000">_gain_2pin_net</text>
</a>
</g>
</g>
<!-- Node72&#45;&gt;Node73 -->
<g id="edge1" class="edge">
<title>Node72&#45;&gt;Node73</title>
<path fill="none" stroke="#191970" d="M153.1341,-96.4879C179.7652,-103.1642 209.0398,-111.3462 231.2366,-118.438"/>
<polygon fill="#191970" stroke="#191970" points="153.6243,-93.004 143.0772,-94.0082 151.9485,-99.8004 153.6243,-93.004"/>
</g>
<!-- Node76 -->
<g id="node5" class="node">
<title>Node76</title>
<g id="a_node5"><a xlink:href="classFMKWayGainCalc.html#a3d58586faf2497c85377e7d42d7b8724" target="_top" xlink:title="FMKWayGainCalc::__init\l_gain_3pin_net">
<polygon fill="#ffffff" stroke="#000000" points="203,-69.4661 203,-99.4661 331,-99.4661 331,-69.4661 203,-69.4661"/>
<text text-anchor="start" x="211" y="-87.4661" font-family="Helvetica,sans-Serif" font-size="10.00" fill="#000000">FMKWayGainCalc::__init</text>
<text text-anchor="middle" x="267" y="-76.4661" font-family="Helvetica,sans-Serif" font-size="10.00" fill="#000000">_gain_3pin_net</text>
</a>
</g>
</g>
<!-- Node72&#45;&gt;Node76 -->
<g id="edge6" class="edge">
<title>Node72&#45;&gt;Node76</title>
<path fill="none" stroke="#191970" d="M177.3496,-77.7176C186.0056,-77.7306 194.6366,-77.8237 202.9343,-77.9969"/>
<polygon fill="#191970" stroke="#191970" points="177.1878,-74.2179 167.1953,-77.7392 177.2027,-81.2179 177.1878,-74.2179"/>
</g>
<!-- Node77 -->
<g id="node6" class="node">
<title>Node77</title>
<g id="a_node6"><a xlink:href="classFMKWayGainCalc.html#ad10182c880296aa4182775a7099e5874" target="_top" xlink:title="FMKWayGainCalc::__init\l_gain_general_net">
<polygon fill="#ffffff" stroke="#000000" points="203,-20.4661 203,-50.4661 331,-50.4661 331,-20.4661 203,-20.4661"/>
<text text-anchor="start" x="211" y="-38.4661" font-family="Helvetica,sans-Serif" font-size="10.00" fill="#000000">FMKWayGainCalc::__init</text>
<text text-anchor="middle" x="267" y="-27.4661" font-family="Helvetica,sans-Serif" font-size="10.00" fill="#000000">_gain_general_net</text>
</a>
</g>
</g>
<!-- Node72&#45;&gt;Node77 -->
<g id="edge9" class="edge">
<title>Node72&#45;&gt;Node77</title>
<path fill="none" stroke="#191970" d="M112.779,-71.5459C136.9556,-63.5395 172.1533,-53.6841 202.8206,-46.1324"/>
<polygon fill="#191970" stroke="#191970" points="111.4618,-68.2974 103.1377,-74.8518 113.7323,-74.919 111.4618,-68.2974"/>
</g>
<!-- Node73&#45;&gt;Node72 -->
<g id="edge5" class="edge">
<title>Node73&#45;&gt;Node72</title>
<path fill="none" stroke="#191970" d="M192.8264,-120.2982C160.2433,-112.0148 124.5877,-101.7376 103.1377,-94.0803"/>
<polygon fill="#191970" stroke="#191970" points="192.27,-123.7668 202.8206,-122.7997 193.9697,-116.9763 192.27,-123.7668"/>
</g>
<!-- Node74 -->
<g id="node3" class="node">
<title>Node74</title>
<g id="a_node3"><a xlink:href="classFMKWayGainCalc.html#ab7b8bf55722e1449e394ad08b1290582" target="_top" xlink:title="FMKWayGainCalc::__init_gain">
<polygon fill="#ffffff" stroke="#000000" points="367,-49.9661 367,-68.9661 518,-68.9661 518,-49.9661 367,-49.9661"/>
<text text-anchor="middle" x="442.5" y="-56.9661" font-family="Helvetica,sans-Serif" font-size="10.00" fill="#000000">FMKWayGainCalc::__init_gain</text>
</a>
</g>
</g>
<!-- Node73&#45;&gt;Node74 -->
<g id="edge2" class="edge">
<title>Node73&#45;&gt;Node74</title>
<path fill="none" stroke="#191970" d="M318.0615,-114.6477C322.4513,-112.9301 326.8124,-111.1882 331,-109.4661 363.1777,-96.2333 399.8873,-79.435 422.1167,-69.0702"/>
<polygon fill="#191970" stroke="#191970" points="316.5314,-111.4865 308.4618,-118.3517 319.0513,-118.0172 316.5314,-111.4865"/>
</g>
<!-- Node74&#45;&gt;Node72 -->
<g id="edge3" class="edge">
<title>Node74&#45;&gt;Node72</title>
<path fill="none" stroke="#191970" d="M417.6325,-44.9455C395.675,-33.0175 362.3643,-17.0537 331,-10.4661 275.3259,1.2276 257.7168,5.1038 203,-10.4661 158.406,-23.1554 114.1806,-57.7713 94.3409,-74.7767"/>
<polygon fill="#191970" stroke="#191970" points="416.1516,-48.1269 426.5915,-49.9323 419.5561,-42.0105 416.1516,-48.1269"/>
</g>
<!-- Node75 -->
<g id="node4" class="node">
<title>Node75</title>
<g id="a_node4"><a xlink:href="classFMKWayGainCalc.html#a90ac9b44385bb59b4e03258ed44b17e6" target="_top" xlink:title="FMKWayGainCalc::init">
<polygon fill="#ffffff" stroke="#000000" points="554,-49.9661 554,-68.9661 671,-68.9661 671,-49.9661 554,-49.9661"/>
<text text-anchor="middle" x="612.5" y="-56.9661" font-family="Helvetica,sans-Serif" font-size="10.00" fill="#000000">FMKWayGainCalc::init</text>
</a>
</g>
</g>
<!-- Node74&#45;&gt;Node75 -->
<g id="edge4" class="edge">
<title>Node74&#45;&gt;Node75</title>
<path fill="none" stroke="#191970" d="M528.194,-59.4661C536.8458,-59.4661 545.4881,-59.4661 553.7622,-59.4661"/>
<polygon fill="#191970" stroke="#191970" points="528.0545,-55.9662 518.0545,-59.4661 528.0545,-62.9662 528.0545,-55.9662"/>
</g>
<!-- Node76&#45;&gt;Node72 -->
<g id="edge8" class="edge">
<title>Node76&#45;&gt;Node72</title>
<path fill="none" stroke="#191970" d="M192.7813,-91.1053C184.3579,-91.2129 175.7297,-91.2421 167.1953,-91.1929"/>
<polygon fill="#191970" stroke="#191970" points="192.9944,-94.6023 202.9343,-90.9352 192.8771,-87.6033 192.9944,-94.6023"/>
</g>
<!-- Node76&#45;&gt;Node74 -->
<g id="edge7" class="edge">
<title>Node76&#45;&gt;Node74</title>
<path fill="none" stroke="#191970" d="M341.3149,-73.8799C352.7653,-72.2488 364.5284,-70.5731 375.799,-68.9676"/>
<polygon fill="#191970" stroke="#191970" points="340.7596,-70.4236 331.3532,-75.2989 341.7469,-77.3536 340.7596,-70.4236"/>
</g>
<!-- Node77&#45;&gt;Node72 -->
<g id="edge11" class="edge">
<title>Node77&#45;&gt;Node72</title>
<path fill="none" stroke="#191970" d="M221.4547,-53.551C197.7727,-60.8015 168.5333,-68.7572 143.0772,-74.9239"/>
<polygon fill="#191970" stroke="#191970" points="222.7358,-56.8177 231.2366,-50.4942 220.6478,-50.1363 222.7358,-56.8177"/>
</g>
<!-- Node77&#45;&gt;Node74 -->
<g id="edge10" class="edge">
<title>Node77&#45;&gt;Node74</title>
<path fill="none" stroke="#191970" d="M341.2821,-45.6243C351.7426,-47.0548 362.4647,-48.5211 372.8345,-49.9392"/>
<polygon fill="#191970" stroke="#191970" points="341.7352,-42.1538 331.3532,-44.2665 340.7867,-49.0892 341.7352,-42.1538"/>
</g>
</g>
</svg>
        <g id="navigator" transform="translate(0 0)" fill="#404254">
                <rect fill="#f2f5e9" fill-opacity="0.5" stroke="#606060" stroke-width=".5" x="0" y="0" width="60" height="60"/>
                <use id="zoomplus" xlink:href="#zoomPlus" x="17" y="9" onmousedown="handleZoom(evt,'in')"/>
                <use id="zoomminus" xlink:href="#zoomMin" x="42" y="9" onmousedown="handleZoom(evt,'out')"/>
                <use id="reset" xlink:href="#resetDef" x="30" y="36" onmousedown="handleReset()"/>
                <g id="arrowUp" xlink:href="#dirArrow" transform="translate(30 24)" onmousedown="handlePan(0,-1)">
                  <use xlink:href="#rim" fill="#404040">
                        <set attributeName="fill" to="#808080" begin="arrowUp.mouseover" end="arrowUp.mouseout"/>
                  </use>
                  <path fill="none" stroke="white" stroke-width="1.5" d="M0,-3.0v7 M-2.5,-0.5L0,-3.0L2.5,-0.5"/>
                </g>
                <g id="arrowRight" xlink:href="#dirArrow" transform="rotate(90) translate(36 -43)" onmousedown="handlePan(1,0)">
                  <use xlink:href="#rim" fill="#404040">
                        <set attributeName="fill" to="#808080" begin="arrowRight.mouseover" end="arrowRight.mouseout"/>
                  </use>
                  <path fill="none" stroke="white" stroke-width="1.5" d="M0,-3.0v7 M-2.5,-0.5L0,-3.0L2.5,-0.5"/>
                </g>
                <g id="arrowDown" xlink:href="#dirArrow" transform="rotate(180) translate(-30 -48)" onmousedown="handlePan(0,1)">
                  <use xlink:href="#rim" fill="#404040">
                        <set attributeName="fill" to="#808080" begin="arrowDown.mouseover" end="arrowDown.mouseout"/>
                  </use>
                  <path fill="none" stroke="white" stroke-width="1.5" d="M0,-3.0v7 M-2.5,-0.5L0,-3.0L2.5,-0.5"/>
                </g>
                <g id="arrowLeft" xlink:href="#dirArrow" transform="rotate(270) translate(-36 17)" onmousedown="handlePan(-1,0)">
                  <use xlink:href="#rim" fill="#404040">
                        <set attributeName="fill" to="#808080" begin="arrowLeft.mouseover" end="arrowLeft.mouseout"/>
                  </use>
                  <path fill="none" stroke="white" stroke-width="1.5" d="M0,-3.0v7 M-2.5,-0.5L0,-3.0L2.5,-0.5"/>
                </g>
        </g>
        <svg viewBox="0 0 15 15" width="100%" height="30px" preserveAspectRatio="xMaxYMin meet">
         <g id="arrow_out" transform="scale(0.3 0.3)">
          <a xlink:href="classFMKWayGainCalc_ac4e6255c0ffc3141805628779fa45e41_icgraph_org.svg" target="_base">
           <rect id="button" ry="5" rx="5" y="6" x="6" height="38" width="38"
                fill="#f2f5e9" fill-opacity="0.5" stroke="#606060" stroke-width="1.0"/>
           <path id="arrow"
             d="M 11.500037,31.436501 C 11.940474,20.09759 22.043105,11.32322 32.158766,21.979434 L 37.068811,17.246167 C 37.068811,17.246167 37.088388,32 37.088388,32 L 22.160133,31.978069 C 22.160133,31.978069 26.997745,27.140456 26.997745,27.140456 C 18.528582,18.264221 13.291696,25.230495 11.500037,31.436501 z"
             style="fill:#404040;"/>
          </a>
         </g>
        </svg>
</svg>
