<?xml version="1.0" encoding="UTF-8" standalone="no"?>
<!DOCTYPE svg PUBLIC "-//W3C//DTD SVG 1.1//EN"
 "http://www.w3.org/Graphics/SVG/1.1/DTD/svg11.dtd">
<!-- Generated by graphviz version 2.40.1 (20161225.0304)
 -->
<!-- Title: xn::VertexView&lt; Graph &gt; Pages: 1 -->
<!--zoomable 781 -->
<svg id="main" version="1.1" xmlns="http://www.w3.org/2000/svg" xmlns:xlink="http://www.w3.org/1999/xlink" xml:space="preserve" onload="init(evt)">
<style type="text/css"><![CDATA[
.edge:hover path { stroke: red; }
.edge:hover polygon { stroke: red; fill: red; }
]]></style>
<script type="text/javascript"><![CDATA[
var edges = document.getElementsByTagName('g');
if (edges && edges.length) {
  for (var i=0;i<edges.length;i++) {
    if (edges[i].id.substr(0,4)=='edge') {
      edges[i].setAttribute('class','edge');
    }
  }
}
]]></script>
        <defs>
                <circle id="rim" cx="0" cy="0" r="7"/>
                <circle id="rim2" cx="0" cy="0" r="3.5"/>
                <g id="zoomPlus">
                        <use xlink:href="#rim" fill="#404040">
                                <set attributeName="fill" to="#808080" begin="zoomplus.mouseover" end="zoomplus.mouseout"/>
                        </use>
                        <path d="M-4,0h8M0,-4v8" fill="none" stroke="white" stroke-width="1.5" pointer-events="none"/>
                </g>
                <g id="zoomMin">
                        <use xlink:href="#rim" fill="#404040">
                                <set attributeName="fill" to="#808080" begin="zoomminus.mouseover" end="zoomminus.mouseout"/>
                        </use>
                        <path d="M-4,0h8" fill="none" stroke="white" stroke-width="1.5" pointer-events="none"/>
                </g>
                <g id="dirArrow">
                        <path fill="none" stroke="white" stroke-width="1.5" d="M0,-3.0v7 M-2.5,-0.5L0,-3.0L2.5,-0.5"/>
                </g>
               <g id="resetDef">
                       <use xlink:href="#rim2" fill="#404040">
                               <set attributeName="fill" to="#808080" begin="reset.mouseover" end="reset.mouseout"/>
                       </use>
               </g>
        </defs>

<script type="text/javascript">
var viewWidth = 286;
var viewHeight = 781;
var sectionId = 'dynsection-1';
</script>
<script xlink:href="svgpan.js"/>
<svg id="graph" class="graph">
<g id="viewport">
<title>xn::VertexView&lt; Graph &gt;</title>
<polygon fill="#ffffff" stroke="transparent" points="-4,4 -4,-777 282,-777 282,4 -4,4"/>
<!-- Node6 -->
<g id="node1" class="node">
<title>Node6</title>
<polygon fill="#bfbfbf" stroke="#000000" points="58,-.5 58,-101.5 186,-101.5 186,-.5 58,-.5"/>
<text text-anchor="middle" x="122" y="-89.5" font-family="Helvetica,sans-Serif" font-size="10.00" fill="#000000">xn::VertexView&lt; Graph &gt;</text>
<polyline fill="none" stroke="#000000" points="58,-82.5 186,-82.5 "/>
<text text-anchor="middle" x="122" y="-70.5" font-family="Helvetica,sans-Serif" font-size="10.00" fill="#000000"> </text>
<polyline fill="none" stroke="#000000" points="58,-63.5 186,-63.5 "/>
<text text-anchor="start" x="66" y="-51.5" font-family="Helvetica,sans-Serif" font-size="10.00" fill="#000000">+ VertexView()</text>
<text text-anchor="start" x="66" y="-40.5" font-family="Helvetica,sans-Serif" font-size="10.00" fill="#000000">+ begin()</text>
<text text-anchor="start" x="66" y="-29.5" font-family="Helvetica,sans-Serif" font-size="10.00" fill="#000000">+ end()</text>
<text text-anchor="start" x="66" y="-18.5" font-family="Helvetica,sans-Serif" font-size="10.00" fill="#000000">+ cbegin()</text>
<text text-anchor="start" x="66" y="-7.5" font-family="Helvetica,sans-Serif" font-size="10.00" fill="#000000">+ cend()</text>
</g>
<!-- Node7 -->
<g id="node2" class="node">
<title>Node7</title>
<g id="a_node2"><a xlink:href="classxn_1_1Graph.html" target="_top" xlink:title="{xn::Graph\&lt; nodeview\l_t, nodemap_t, adjlist\l_inner_dict_factory \&gt;\n|+ _node\l+ _node_map\l|+ Graph()\l+ Graph()\l+ adj()\l+ get_name()\l+ set_name()\l+ begin()\land 13 more...\l}">
<polygon fill="#ffffff" stroke="#000000" points="67,-139.5 67,-295.5 177,-295.5 177,-139.5 67,-139.5"/>
<text text-anchor="start" x="75" y="-283.5" font-family="Helvetica,sans-Serif" font-size="10.00" fill="#000000">xn::Graph&lt; nodeview</text>
<text text-anchor="start" x="75" y="-272.5" font-family="Helvetica,sans-Serif" font-size="10.00" fill="#000000">_t, nodemap_t, adjlist</text>
<text text-anchor="middle" x="122" y="-261.5" font-family="Helvetica,sans-Serif" font-size="10.00" fill="#000000">_inner_dict_factory &gt;</text>
<polyline fill="none" stroke="#000000" points="67,-254.5 177,-254.5 "/>
<text text-anchor="start" x="75" y="-242.5" font-family="Helvetica,sans-Serif" font-size="10.00" fill="#000000">+ _node</text>
<text text-anchor="start" x="75" y="-231.5" font-family="Helvetica,sans-Serif" font-size="10.00" fill="#000000">+ _node_map</text>
<polyline fill="none" stroke="#000000" points="67,-224.5 177,-224.5 "/>
<text text-anchor="start" x="75" y="-212.5" font-family="Helvetica,sans-Serif" font-size="10.00" fill="#000000">+ Graph()</text>
<text text-anchor="start" x="75" y="-201.5" font-family="Helvetica,sans-Serif" font-size="10.00" fill="#000000">+ Graph()</text>
<text text-anchor="start" x="75" y="-190.5" font-family="Helvetica,sans-Serif" font-size="10.00" fill="#000000">+ adj()</text>
<text text-anchor="start" x="75" y="-179.5" font-family="Helvetica,sans-Serif" font-size="10.00" fill="#000000">+ get_name()</text>
<text text-anchor="start" x="75" y="-168.5" font-family="Helvetica,sans-Serif" font-size="10.00" fill="#000000">+ set_name()</text>
<text text-anchor="start" x="75" y="-157.5" font-family="Helvetica,sans-Serif" font-size="10.00" fill="#000000">+ begin()</text>
<text text-anchor="start" x="75" y="-146.5" font-family="Helvetica,sans-Serif" font-size="10.00" fill="#000000">and 13 more...</text>
</a>
</g>
</g>
<!-- Node7&#45;&gt;Node6 -->
<g id="edge1" class="edge">
<title>Node7&#45;&gt;Node6</title>
<path fill="none" stroke="#191970" d="M122,-129.0336C122,-119.7445 122,-110.5423 122,-101.8921"/>
<polygon fill="none" stroke="#191970" points="118.5001,-129.1254 122,-139.1254 125.5001,-129.1255 118.5001,-129.1254"/>
</g>
<!-- Node8 -->
<g id="node3" class="node">
<title>Node8</title>
<g id="a_node3"><a xlink:href="structxn_1_1object.html" target="_top" xlink:title="Base class for undirected graphs. ">
<polygon fill="#ffffff" stroke="#000000" points="92.5,-349 92.5,-406 151.5,-406 151.5,-349 92.5,-349"/>
<text text-anchor="middle" x="122" y="-394" font-family="Helvetica,sans-Serif" font-size="10.00" fill="#000000">xn::object</text>
<polyline fill="none" stroke="#000000" points="92.5,-387 151.5,-387 "/>
<text text-anchor="middle" x="122" y="-375" font-family="Helvetica,sans-Serif" font-size="10.00" fill="#000000"> </text>
<polyline fill="none" stroke="#000000" points="92.5,-368 151.5,-368 "/>
<text text-anchor="middle" x="122" y="-356" font-family="Helvetica,sans-Serif" font-size="10.00" fill="#000000"> </text>
</a>
</g>
</g>
<!-- Node8&#45;&gt;Node7 -->
<g id="edge2" class="edge">
<title>Node8&#45;&gt;Node7</title>
<path fill="none" stroke="#191970" d="M122,-338.8779C122,-325.7916 122,-310.6671 122,-295.6306"/>
<polygon fill="none" stroke="#191970" points="118.5001,-338.8952 122,-348.8952 125.5001,-338.8952 118.5001,-338.8952"/>
</g>
<!-- Node9 -->
<g id="node4" class="node">
<title>Node9</title>
<g id="a_node4"><a xlink:href="classpy_1_1dict.html" target="_top" xlink:title="{py::dict\&lt; const char\l *, std::any \&gt;\n||+ dict()\l+ dict()\l+ operator=()\l&#45; dict()\l}">
<polygon fill="#ffffff" stroke="#000000" points="0,-449.5 0,-550.5 104,-550.5 104,-449.5 0,-449.5"/>
<text text-anchor="start" x="8" y="-538.5" font-family="Helvetica,sans-Serif" font-size="10.00" fill="#000000">py::dict&lt; const char</text>
<text text-anchor="middle" x="52" y="-527.5" font-family="Helvetica,sans-Serif" font-size="10.00" fill="#000000"> *, std::any &gt;</text>
<polyline fill="none" stroke="#000000" points="0,-520.5 104,-520.5 "/>
<text text-anchor="middle" x="52" y="-508.5" font-family="Helvetica,sans-Serif" font-size="10.00" fill="#000000"> </text>
<polyline fill="none" stroke="#000000" points="0,-501.5 104,-501.5 "/>
<text text-anchor="start" x="8" y="-489.5" font-family="Helvetica,sans-Serif" font-size="10.00" fill="#000000">+ dict()</text>
<text text-anchor="start" x="8" y="-478.5" font-family="Helvetica,sans-Serif" font-size="10.00" fill="#000000">+ dict()</text>
<text text-anchor="start" x="8" y="-467.5" font-family="Helvetica,sans-Serif" font-size="10.00" fill="#000000">+ operator=()</text>
<text text-anchor="start" x="8" y="-456.5" font-family="Helvetica,sans-Serif" font-size="10.00" fill="#000000">&#45; dict()</text>
</a>
</g>
</g>
<!-- Node9&#45;&gt;Node7 -->
<g id="edge7" class="edge">
<title>Node9&#45;&gt;Node7</title>
<path fill="none" stroke="#404040" d="M43.9382,-449.2783C40.7123,-418.0922 39.6655,-377.6128 49,-343 52.3165,-330.7024 57.1679,-318.3699 62.8191,-306.4954"/>
<polygon fill="none" stroke="#404040" points="62.8362,-306.4612 61.9484,-299.305 68.2127,-295.7331 69.1005,-302.8893 62.8362,-306.4612"/>
<text text-anchor="middle" x="66" y="-375" font-family="Helvetica,sans-Serif" font-size="10.00" fill="#000000"> +graph</text>
</g>
<!-- Node9&#45;&gt;Node8 -->
<g id="edge3" class="edge">
<title>Node9&#45;&gt;Node8</title>
<path fill="none" stroke="#191970" d="M85.8596,-440.7456C92.7393,-428.7063 99.6777,-416.5641 105.6102,-406.1821"/>
<polygon fill="none" stroke="#191970" points="82.7984,-439.0484 80.8758,-449.4673 88.8761,-442.5214 82.7984,-439.0484"/>
</g>
<!-- Node10 -->
<g id="node5" class="node">
<title>Node10</title>
<g id="a_node5"><a xlink:title="STL class. ">
<polygon fill="#ffffff" stroke="#bfbfbf" points=".5,-588.5 .5,-667.5 103.5,-667.5 103.5,-588.5 .5,-588.5"/>
<text text-anchor="start" x="8.5" y="-655.5" font-family="Helvetica,sans-Serif" font-size="10.00" fill="#000000">std::unordered_map</text>
<text text-anchor="start" x="8.5" y="-644.5" font-family="Helvetica,sans-Serif" font-size="10.00" fill="#000000">&lt; const char *, std</text>
<text text-anchor="middle" x="52" y="-633.5" font-family="Helvetica,sans-Serif" font-size="10.00" fill="#000000">::any &gt;</text>
<polyline fill="none" stroke="#bfbfbf" points=".5,-626.5 103.5,-626.5 "/>
<text text-anchor="middle" x="52" y="-614.5" font-family="Helvetica,sans-Serif" font-size="10.00" fill="#000000"> </text>
<polyline fill="none" stroke="#bfbfbf" points=".5,-607.5 103.5,-607.5 "/>
<text text-anchor="middle" x="52" y="-595.5" font-family="Helvetica,sans-Serif" font-size="10.00" fill="#000000"> </text>
</a>
</g>
</g>
<!-- Node10&#45;&gt;Node9 -->
<g id="edge4" class="edge">
<title>Node10&#45;&gt;Node9</title>
<path fill="none" stroke="#191970" d="M52,-578.1972C52,-569.1496 52,-559.7033 52,-550.6321"/>
<polygon fill="none" stroke="#191970" points="48.5001,-578.2016 52,-588.2016 55.5001,-578.2017 48.5001,-578.2016"/>
</g>
<!-- Node11 -->
<g id="node6" class="node">
<title>Node11</title>
<polygon fill="#ffffff" stroke="#bfbfbf" points="10.5,-715.5 10.5,-772.5 39.5,-772.5 39.5,-715.5 10.5,-715.5"/>
<text text-anchor="middle" x="25" y="-760.5" font-family="Helvetica,sans-Serif" font-size="10.00" fill="#000000">K</text>
<polyline fill="none" stroke="#bfbfbf" points="10.5,-753.5 39.5,-753.5 "/>
<text text-anchor="middle" x="25" y="-741.5" font-family="Helvetica,sans-Serif" font-size="10.00" fill="#000000"> </text>
<polyline fill="none" stroke="#bfbfbf" points="10.5,-734.5 39.5,-734.5 "/>
<text text-anchor="middle" x="25" y="-722.5" font-family="Helvetica,sans-Serif" font-size="10.00" fill="#000000"> </text>
</g>
<!-- Node11&#45;&gt;Node10 -->
<g id="edge5" class="edge">
<title>Node11&#45;&gt;Node10</title>
<path fill="none" stroke="#404040" d="M23.2185,-715.4099C23.23,-705.9519 23.8965,-695.4365 26,-686 26.5132,-683.6978 27.122,-681.3757 27.8067,-679.0531"/>
<polygon fill="none" stroke="#404040" points="27.8689,-678.8721 26.039,-671.897 31.7738,-667.5252 33.6037,-674.5002 27.8689,-678.8721"/>
<text text-anchor="middle" x="41.5" y="-689" font-family="Helvetica,sans-Serif" font-size="10.00" fill="#000000"> +keys</text>
</g>
<!-- Node12 -->
<g id="node7" class="node">
<title>Node12</title>
<polygon fill="#ffffff" stroke="#bfbfbf" points="64.5,-715.5 64.5,-772.5 93.5,-772.5 93.5,-715.5 64.5,-715.5"/>
<text text-anchor="middle" x="79" y="-760.5" font-family="Helvetica,sans-Serif" font-size="10.00" fill="#000000">T</text>
<polyline fill="none" stroke="#bfbfbf" points="64.5,-753.5 93.5,-753.5 "/>
<text text-anchor="middle" x="79" y="-741.5" font-family="Helvetica,sans-Serif" font-size="10.00" fill="#000000"> </text>
<polyline fill="none" stroke="#bfbfbf" points="64.5,-734.5 93.5,-734.5 "/>
<text text-anchor="middle" x="79" y="-722.5" font-family="Helvetica,sans-Serif" font-size="10.00" fill="#000000"> </text>
</g>
<!-- Node12&#45;&gt;Node10 -->
<g id="edge6" class="edge">
<title>Node12&#45;&gt;Node10</title>
<path fill="none" stroke="#404040" d="M72.3258,-715.3258C69.8194,-704.5576 66.8871,-691.9593 64.0421,-679.7364"/>
<polygon fill="none" stroke="#404040" points="63.9657,-679.4079 58.7096,-674.4709 61.2452,-667.7203 66.5013,-672.6573 63.9657,-679.4079"/>
<text text-anchor="middle" x="92.5" y="-689" font-family="Helvetica,sans-Serif" font-size="10.00" fill="#000000"> +elements</text>
</g>
<!-- Node13 -->
<g id="node8" class="node">
<title>Node13</title>
<polygon fill="#ffffff" stroke="#bfbfbf" points="170,-343.5 170,-411.5 278,-411.5 278,-343.5 170,-343.5"/>
<text text-anchor="start" x="178" y="-399.5" font-family="Helvetica,sans-Serif" font-size="10.00" fill="#000000">std::vector&lt; adjlist</text>
<text text-anchor="middle" x="224" y="-388.5" font-family="Helvetica,sans-Serif" font-size="10.00" fill="#000000">_inner_dict_factory &gt;</text>
<polyline fill="none" stroke="#bfbfbf" points="170,-381.5 278,-381.5 "/>
<text text-anchor="start" x="178" y="-369.5" font-family="Helvetica,sans-Serif" font-size="10.00" fill="#000000">+ elements</text>
<polyline fill="none" stroke="#bfbfbf" points="170,-362.5 278,-362.5 "/>
<text text-anchor="middle" x="224" y="-350.5" font-family="Helvetica,sans-Serif" font-size="10.00" fill="#000000"> </text>
</g>
<!-- Node13&#45;&gt;Node7 -->
<g id="edge8" class="edge">
<title>Node13&#45;&gt;Node7</title>
<path fill="none" stroke="#404040" d="M202.1184,-343.176C195.0281,-332.054 186.8086,-319.1606 178.391,-305.9565"/>
<polygon fill="none" stroke="#404040" points="178.3816,-305.9416 171.7833,-303.0325 171.9308,-295.8229 178.5291,-298.732 178.3816,-305.9416"/>
<text text-anchor="middle" x="202" y="-317" font-family="Helvetica,sans-Serif" font-size="10.00" fill="#000000"> +_adj</text>
</g>
</g>
</svg>
        <g id="navigator" transform="translate(0 0)" fill="#404254">
                <rect fill="#f2f5e9" fill-opacity="0.5" stroke="#606060" stroke-width=".5" x="0" y="0" width="60" height="60"/>
                <use id="zoomplus" xlink:href="#zoomPlus" x="17" y="9" onmousedown="handleZoom(evt,'in')"/>
                <use id="zoomminus" xlink:href="#zoomMin" x="42" y="9" onmousedown="handleZoom(evt,'out')"/>
                <use id="reset" xlink:href="#resetDef" x="30" y="36" onmousedown="handleReset()"/>
                <g id="arrowUp" xlink:href="#dirArrow" transform="translate(30 24)" onmousedown="handlePan(0,-1)">
                  <use xlink:href="#rim" fill="#404040">
                        <set attributeName="fill" to="#808080" begin="arrowUp.mouseover" end="arrowUp.mouseout"/>
                  </use>
                  <path fill="none" stroke="white" stroke-width="1.5" d="M0,-3.0v7 M-2.5,-0.5L0,-3.0L2.5,-0.5"/>
                </g>
                <g id="arrowRight" xlink:href="#dirArrow" transform="rotate(90) translate(36 -43)" onmousedown="handlePan(1,0)">
                  <use xlink:href="#rim" fill="#404040">
                        <set attributeName="fill" to="#808080" begin="arrowRight.mouseover" end="arrowRight.mouseout"/>
                  </use>
                  <path fill="none" stroke="white" stroke-width="1.5" d="M0,-3.0v7 M-2.5,-0.5L0,-3.0L2.5,-0.5"/>
                </g>
                <g id="arrowDown" xlink:href="#dirArrow" transform="rotate(180) translate(-30 -48)" onmousedown="handlePan(0,1)">
                  <use xlink:href="#rim" fill="#404040">
                        <set attributeName="fill" to="#808080" begin="arrowDown.mouseover" end="arrowDown.mouseout"/>
                  </use>
                  <path fill="none" stroke="white" stroke-width="1.5" d="M0,-3.0v7 M-2.5,-0.5L0,-3.0L2.5,-0.5"/>
                </g>
                <g id="arrowLeft" xlink:href="#dirArrow" transform="rotate(270) translate(-36 17)" onmousedown="handlePan(-1,0)">
                  <use xlink:href="#rim" fill="#404040">
                        <set attributeName="fill" to="#808080" begin="arrowLeft.mouseover" end="arrowLeft.mouseout"/>
                  </use>
                  <path fill="none" stroke="white" stroke-width="1.5" d="M0,-3.0v7 M-2.5,-0.5L0,-3.0L2.5,-0.5"/>
                </g>
        </g>
        <svg viewBox="0 0 15 15" width="100%" height="30px" preserveAspectRatio="xMaxYMin meet">
         <g id="arrow_out" transform="scale(0.3 0.3)">
          <a xlink:href="classxn_1_1VertexView__coll__graph_org.svg" target="_base">
           <rect id="button" ry="5" rx="5" y="6" x="6" height="38" width="38"
                fill="#f2f5e9" fill-opacity="0.5" stroke="#606060" stroke-width="1.0"/>
           <path id="arrow"
             d="M 11.500037,31.436501 C 11.940474,20.09759 22.043105,11.32322 32.158766,21.979434 L 37.068811,17.246167 C 37.068811,17.246167 37.088388,32 37.088388,32 L 22.160133,31.978069 C 22.160133,31.978069 26.997745,27.140456 26.997745,27.140456 C 18.528582,18.264221 13.291696,25.230495 11.500037,31.436501 z"
             style="fill:#404040;"/>
          </a>
         </g>
        </svg>
</svg>
