<?xml version="1.0" encoding="UTF-8" standalone="no"?>
<!DOCTYPE svg PUBLIC "-//W3C//DTD SVG 1.1//EN"
 "http://www.w3.org/Graphics/SVG/1.1/DTD/svg11.dtd">
<!-- Generated by graphviz version 2.40.1 (20161225.0304)
 -->
<!-- Title: /media/lubuntu/USBDISK/github/ckpttncpp/third_party/cppitertools/combinations.hpp Pages: 1 -->
<svg width="464pt" height="218pt"
 viewBox="0.00 0.00 463.50 218.00" xmlns="http://www.w3.org/2000/svg" xmlns:xlink="http://www.w3.org/1999/xlink">
<g id="graph0" class="graph" transform="scale(1 1) rotate(0) translate(4 214)">
<title>/media/lubuntu/USBDISK/github/ckpttncpp/third_party/cppitertools/combinations.hpp</title>
<polygon fill="#ffffff" stroke="transparent" points="-4,4 -4,-214 459.5,-214 459.5,4 -4,4"/>
<!-- Node0 -->
<g id="node1" class="node">
<title>Node0</title>
<polygon fill="#bfbfbf" stroke="#000000" points="189.5,-168.5 189.5,-209.5 365.5,-209.5 365.5,-168.5 189.5,-168.5"/>
<text text-anchor="start" x="197.5" y="-197.5" font-family="Helvetica,sans-Serif" font-size="10.00" fill="#000000">/media/lubuntu/USBDISK</text>
<text text-anchor="start" x="197.5" y="-186.5" font-family="Helvetica,sans-Serif" font-size="10.00" fill="#000000">/github/ckpttncpp/third</text>
<text text-anchor="middle" x="277.5" y="-175.5" font-family="Helvetica,sans-Serif" font-size="10.00" fill="#000000">_party/cppitertools/combinations.hpp</text>
</g>
<!-- Node1 -->
<g id="node2" class="node">
<title>Node1</title>
<g id="a_node2"><a xlink:href="iteratoriterator_8hpp.html" target="_top" xlink:title="internal/iteratoriterator.hpp">
<polygon fill="#ffffff" stroke="#000000" points="119.5,-112.5 119.5,-131.5 249.5,-131.5 249.5,-112.5 119.5,-112.5"/>
<text text-anchor="middle" x="184.5" y="-119.5" font-family="Helvetica,sans-Serif" font-size="10.00" fill="#000000">internal/iteratoriterator.hpp</text>
</a>
</g>
</g>
<!-- Node0&#45;&gt;Node1 -->
<g id="edge1" class="edge">
<title>Node0&#45;&gt;Node1</title>
<path fill="none" stroke="#191970" d="M248.8381,-168.3511C235.0485,-158.4167 218.7921,-146.7051 206.0702,-137.5398"/>
<polygon fill="#191970" stroke="#191970" points="208.0608,-134.6602 197.9012,-131.6546 203.969,-140.3398 208.0608,-134.6602"/>
</g>
<!-- Node2 -->
<g id="node3" class="node">
<title>Node2</title>
<polygon fill="#ffffff" stroke="#bfbfbf" points="0,-.5 0,-19.5 47,-19.5 47,-.5 0,-.5"/>
<text text-anchor="middle" x="23.5" y="-7.5" font-family="Helvetica,sans-Serif" font-size="10.00" fill="#000000">iterator</text>
</g>
<!-- Node0&#45;&gt;Node2 -->
<g id="edge14" class="edge">
<title>Node0&#45;&gt;Node2</title>
<path fill="none" stroke="#191970" d="M189.2595,-170.0753C162.247,-161.4543 133.5961,-149.2004 110.5,-132 73.1286,-104.1684 45.4624,-55.5582 32.2154,-28.871"/>
<polygon fill="#191970" stroke="#191970" points="35.3434,-27.2995 27.8542,-19.8053 29.0354,-30.3341 35.3434,-27.2995"/>
</g>
<!-- Node3 -->
<g id="node4" class="node">
<title>Node3</title>
<polygon fill="#ffffff" stroke="#bfbfbf" points="393.5,-.5 393.5,-19.5 455.5,-19.5 455.5,-.5 393.5,-.5"/>
<text text-anchor="middle" x="424.5" y="-7.5" font-family="Helvetica,sans-Serif" font-size="10.00" fill="#000000">type_traits</text>
</g>
<!-- Node0&#45;&gt;Node3 -->
<g id="edge15" class="edge">
<title>Node0&#45;&gt;Node3</title>
<path fill="none" stroke="#191970" d="M294.3628,-168.4664C323.4385,-133.0612 382.5181,-61.1208 409.9273,-27.745"/>
<polygon fill="#191970" stroke="#191970" points="412.8309,-29.7242 416.4726,-19.7749 407.4213,-25.2816 412.8309,-29.7242"/>
</g>
<!-- Node5 -->
<g id="node6" class="node">
<title>Node5</title>
<g id="a_node6"><a xlink:href="iterbase_8hpp.html" target="_top" xlink:title="iterbase.hpp">
<polygon fill="#ffffff" stroke="#000000" points="187.5,-56.5 187.5,-75.5 257.5,-75.5 257.5,-56.5 187.5,-56.5"/>
<text text-anchor="middle" x="222.5" y="-63.5" font-family="Helvetica,sans-Serif" font-size="10.00" fill="#000000">iterbase.hpp</text>
</a>
</g>
</g>
<!-- Node0&#45;&gt;Node5 -->
<g id="edge13" class="edge">
<title>Node0&#45;&gt;Node5</title>
<path fill="none" stroke="#191970" d="M274.8096,-168.2497C272.1727,-152.2702 267.2377,-129.9515 258.5,-112 253.4931,-101.7135 245.9081,-91.56 238.9894,-83.42"/>
<polygon fill="#191970" stroke="#191970" points="241.4202,-80.8867 232.1567,-75.7449 236.1918,-85.5412 241.4202,-80.8867"/>
</g>
<!-- Node10 -->
<g id="node11" class="node">
<title>Node10</title>
<polygon fill="#ffffff" stroke="#bfbfbf" points="351.5,-112.5 351.5,-131.5 395.5,-131.5 395.5,-112.5 351.5,-112.5"/>
<text text-anchor="middle" x="373.5" y="-119.5" font-family="Helvetica,sans-Serif" font-size="10.00" fill="#000000">vector</text>
</g>
<!-- Node0&#45;&gt;Node10 -->
<g id="edge16" class="edge">
<title>Node0&#45;&gt;Node10</title>
<path fill="none" stroke="#191970" d="M307.0865,-168.3511C321.3209,-158.4167 338.1017,-146.7051 351.234,-137.5398"/>
<polygon fill="#191970" stroke="#191970" points="353.4693,-140.248 359.6665,-131.6546 349.463,-134.5077 353.4693,-140.248"/>
</g>
<!-- Node1&#45;&gt;Node2 -->
<g id="edge2" class="edge">
<title>Node1&#45;&gt;Node2</title>
<path fill="none" stroke="#191970" d="M170.7732,-112.4509C142.851,-93.0268 79.2324,-48.7703 45.4786,-25.2895"/>
<polygon fill="#191970" stroke="#191970" points="47.3998,-22.3624 37.192,-19.5249 43.4024,-28.1087 47.3998,-22.3624"/>
</g>
<!-- Node1&#45;&gt;Node3 -->
<g id="edge3" class="edge">
<title>Node1&#45;&gt;Node3</title>
<path fill="none" stroke="#191970" d="M201.1994,-112.4588C224.9069,-99.0812 269.8518,-74.3349 309.5,-56 335.5123,-43.9709 365.6093,-31.999 388.4877,-23.2851"/>
<polygon fill="#191970" stroke="#191970" points="390.0158,-26.4494 398.1335,-19.6411 387.5419,-19.9011 390.0158,-26.4494"/>
</g>
<!-- Node4 -->
<g id="node5" class="node">
<title>Node4</title>
<polygon fill="#ffffff" stroke="#bfbfbf" points="65.5,-.5 65.5,-19.5 105.5,-19.5 105.5,-.5 65.5,-.5"/>
<text text-anchor="middle" x="85.5" y="-7.5" font-family="Helvetica,sans-Serif" font-size="10.00" fill="#000000">utility</text>
</g>
<!-- Node1&#45;&gt;Node4 -->
<g id="edge4" class="edge">
<title>Node1&#45;&gt;Node4</title>
<path fill="none" stroke="#191970" d="M176.0593,-112.4509C159.3281,-93.5227 121.7535,-51.014 100.6398,-27.1279"/>
<polygon fill="#191970" stroke="#191970" points="103.1646,-24.6994 93.9193,-19.5249 97.9198,-29.3354 103.1646,-24.6994"/>
</g>
<!-- Node1&#45;&gt;Node5 -->
<g id="edge5" class="edge">
<title>Node1&#45;&gt;Node5</title>
<path fill="none" stroke="#191970" d="M191.1191,-112.2455C196.4046,-104.4564 203.9541,-93.3308 210.3238,-83.9439"/>
<polygon fill="#191970" stroke="#191970" points="213.2379,-85.8827 215.9568,-75.6427 207.4455,-81.9522 213.2379,-85.8827"/>
</g>
<!-- Node5&#45;&gt;Node2 -->
<g id="edge8" class="edge">
<title>Node5&#45;&gt;Node2</title>
<path fill="none" stroke="#191970" d="M187.4557,-56.5503C155.8489,-47.9694 107.8486,-34.7954 57.1129,-20.131"/>
<polygon fill="#191970" stroke="#191970" points="57.852,-16.7012 47.2729,-17.278 55.9026,-23.4243 57.852,-16.7012"/>
</g>
<!-- Node5&#45;&gt;Node3 -->
<g id="edge11" class="edge">
<title>Node5&#45;&gt;Node3</title>
<path fill="none" stroke="#191970" d="M257.225,-56.3733C292.1788,-46.6831 346.0931,-31.7366 383.2149,-21.4454"/>
<polygon fill="#191970" stroke="#191970" points="384.5086,-24.7188 393.2101,-18.6744 382.6385,-17.9732 384.5086,-24.7188"/>
</g>
<!-- Node5&#45;&gt;Node4 -->
<g id="edge12" class="edge">
<title>Node5&#45;&gt;Node4</title>
<path fill="none" stroke="#191970" d="M198.9489,-56.3733C175.7154,-46.8764 140.1303,-32.3306 115.02,-22.0666"/>
<polygon fill="#191970" stroke="#191970" points="116.2083,-18.7712 105.6274,-18.2273 113.5597,-25.2508 116.2083,-18.7712"/>
</g>
<!-- Node6 -->
<g id="node7" class="node">
<title>Node6</title>
<polygon fill="#ffffff" stroke="#bfbfbf" points="326,-.5 326,-19.5 375,-19.5 375,-.5 326,-.5"/>
<text text-anchor="middle" x="350.5" y="-7.5" font-family="Helvetica,sans-Serif" font-size="10.00" fill="#000000">cstddef</text>
</g>
<!-- Node5&#45;&gt;Node6 -->
<g id="edge6" class="edge">
<title>Node5&#45;&gt;Node6</title>
<path fill="none" stroke="#191970" d="M244.504,-56.3733C265.1435,-47.3435 296.2158,-33.7494 319.3889,-23.6111"/>
<polygon fill="#191970" stroke="#191970" points="321.0245,-26.7159 328.7831,-19.5011 318.2187,-20.3028 321.0245,-26.7159"/>
</g>
<!-- Node7 -->
<g id="node8" class="node">
<title>Node7</title>
<polygon fill="#ffffff" stroke="#bfbfbf" points="124,-.5 124,-19.5 183,-19.5 183,-.5 124,-.5"/>
<text text-anchor="middle" x="153.5" y="-7.5" font-family="Helvetica,sans-Serif" font-size="10.00" fill="#000000">functional</text>
</g>
<!-- Node5&#45;&gt;Node7 -->
<g id="edge7" class="edge">
<title>Node5&#45;&gt;Node7</title>
<path fill="none" stroke="#191970" d="M210.4811,-56.2455C200.2902,-47.9746 185.4638,-35.9416 173.4893,-26.2232"/>
<polygon fill="#191970" stroke="#191970" points="175.3514,-23.2268 165.3812,-19.6427 170.9402,-28.662 175.3514,-23.2268"/>
</g>
<!-- Node8 -->
<g id="node9" class="node">
<title>Node8</title>
<polygon fill="#ffffff" stroke="#bfbfbf" points="201.5,-.5 201.5,-19.5 251.5,-19.5 251.5,-.5 201.5,-.5"/>
<text text-anchor="middle" x="226.5" y="-7.5" font-family="Helvetica,sans-Serif" font-size="10.00" fill="#000000">optional</text>
</g>
<!-- Node5&#45;&gt;Node8 -->
<g id="edge9" class="edge">
<title>Node5&#45;&gt;Node8</title>
<path fill="none" stroke="#191970" d="M223.1967,-56.2455C223.7187,-48.9382 224.4504,-38.6944 225.0925,-29.7046"/>
<polygon fill="#191970" stroke="#191970" points="228.5898,-29.8667 225.8112,-19.6427 221.6076,-29.3679 228.5898,-29.8667"/>
</g>
<!-- Node9 -->
<g id="node10" class="node">
<title>Node9</title>
<polygon fill="#ffffff" stroke="#bfbfbf" points="269.5,-.5 269.5,-19.5 307.5,-19.5 307.5,-.5 269.5,-.5"/>
<text text-anchor="middle" x="288.5" y="-7.5" font-family="Helvetica,sans-Serif" font-size="10.00" fill="#000000">tuple</text>
</g>
<!-- Node5&#45;&gt;Node9 -->
<g id="edge10" class="edge">
<title>Node5&#45;&gt;Node9</title>
<path fill="none" stroke="#191970" d="M233.9963,-56.2455C243.7442,-47.9746 257.9259,-35.9416 269.3798,-26.2232"/>
<polygon fill="#191970" stroke="#191970" points="271.7747,-28.7813 277.1354,-19.6427 267.2459,-23.4437 271.7747,-28.7813"/>
</g>
</g>
</svg>
