<?xml version="1.0" encoding="UTF-8" standalone="no"?>
<!DOCTYPE svg PUBLIC "-//W3C//DTD SVG 1.1//EN"
 "http://www.w3.org/Graphics/SVG/1.1/DTD/svg11.dtd">
<!-- Generated by graphviz version 2.40.1 (20161225.0304)
 -->
<!-- Title: lib/include/ckpttncpp Pages: 1 -->
<svg width="110pt" height="223pt"
 viewBox="0.00 0.00 110.00 223.00" xmlns="http://www.w3.org/2000/svg" xmlns:xlink="http://www.w3.org/1999/xlink">
<g id="graph0" class="graph" transform="scale(1 1) rotate(0) translate(4 219)">
<title>lib/include/ckpttncpp</title>
<polygon fill="#ffffff" stroke="transparent" points="-4,4 -4,-219 106,-219 106,4 -4,4"/>
<g id="clust1" class="cluster">
<title>clusterdir_5a30104352ef4255dc24354b02eb2d20</title>
<g id="a_clust1"><a xlink:href="dir_5a30104352ef4255dc24354b02eb2d20.html" target="_top" xlink:title="include">
<polygon fill="#ddddee" stroke="#000000" points="18,-136 18,-207 94,-207 94,-136 18,-136"/>
<text text-anchor="middle" x="56" y="-195" font-family="Helvetica,sans-Serif" font-size="10.00" fill="#000000">include</text>
</a>
</g>
</g>
<!-- dir_5980f750f730ff70a4f746cc2c0746a5 -->
<g id="node1" class="node">
<title>dir_5980f750f730ff70a4f746cc2c0746a5</title>
<g id="a_node1"><a xlink:href="dir_5980f750f730ff70a4f746cc2c0746a5.html" target="_top" xlink:title="ckpttncpp">
<polygon fill="#eeeeff" stroke="#000000" points="85.5,-180 26.5,-180 26.5,-144 85.5,-144 85.5,-180"/>
<text text-anchor="middle" x="56" y="-159.5" font-family="Helvetica,sans-Serif" font-size="10.00" fill="#000000">ckpttncpp</text>
</a>
</g>
</g>
<!-- dir_38c430c1d5f65b759c59a49cfd65049e -->
<g id="node2" class="node">
<title>dir_38c430c1d5f65b759c59a49cfd65049e</title>
<g id="a_node2"><a xlink:href="dir_38c430c1d5f65b759c59a49cfd65049e.html" target="_top" xlink:title="xnetwork">
<polygon fill="#ffffff" stroke="#ff0000" points="56,-108 0,-108 0,-72 56,-72 56,-108"/>
<text text-anchor="middle" x="28" y="-87.5" font-family="Helvetica,sans-Serif" font-size="10.00" fill="#000000">xnetwork</text>
</a>
</g>
</g>
<!-- dir_5980f750f730ff70a4f746cc2c0746a5&#45;&gt;dir_38c430c1d5f65b759c59a49cfd65049e -->
<g id="edge1" class="edge">
<title>dir_5980f750f730ff70a4f746cc2c0746a5&#45;&gt;dir_38c430c1d5f65b759c59a49cfd65049e</title>
<path fill="none" stroke="#000000" d="M48.9344,-143.8314C45.874,-135.9617 42.2221,-126.5712 38.8318,-117.8533"/>
<polygon fill="#000000" stroke="#000000" points="42.0473,-116.4647 35.1607,-108.4133 35.5232,-119.0019 42.0473,-116.4647"/>
<g id="a_edge1&#45;headlabel"><a xlink:href="dir_000003_000005.html" target="_top" xlink:title="1">
<text text-anchor="middle" x="45.9963" y="-116.2859" font-family="Helvetica,sans-Serif" font-size="10.00" fill="#000000">1</text>
</a>
</g>
</g>
<!-- dir_23d64c5c469555ab0d6acc02068038b6 -->
<g id="node3" class="node">
<title>dir_23d64c5c469555ab0d6acc02068038b6</title>
<g id="a_node3"><a xlink:href="dir_23d64c5c469555ab0d6acc02068038b6.html" target="_top" xlink:title="py2cpp">
<polygon fill="none" stroke="#000000" points="83,-36 29,-36 29,0 83,0 83,-36"/>
<text text-anchor="middle" x="56" y="-15.5" font-family="Helvetica,sans-Serif" font-size="10.00" fill="#000000">py2cpp</text>
</a>
</g>
</g>
<!-- dir_5980f750f730ff70a4f746cc2c0746a5&#45;&gt;dir_23d64c5c469555ab0d6acc02068038b6 -->
<g id="edge2" class="edge">
<title>dir_5980f750f730ff70a4f746cc2c0746a5&#45;&gt;dir_23d64c5c469555ab0d6acc02068038b6</title>
<path fill="none" stroke="#000000" d="M59.8413,-143.6001C61.8166,-133.2025 64.0123,-119.9346 65,-108 66.3197,-92.0545 66.3197,-87.9455 65,-72 64.3055,-63.6085 63.0138,-54.5578 61.6214,-46.3092"/>
<polygon fill="#000000" stroke="#000000" points="65.0544,-45.6235 59.8413,-36.3999 58.1647,-46.8612 65.0544,-45.6235"/>
<g id="a_edge2&#45;headlabel"><a xlink:href="dir_000003_000004.html" target="_top" xlink:title="2">
<text text-anchor="middle" x="68.4844" y="-46.1595" font-family="Helvetica,sans-Serif" font-size="10.00" fill="#000000">2</text>
</a>
</g>
</g>
<!-- dir_38c430c1d5f65b759c59a49cfd65049e&#45;&gt;dir_23d64c5c469555ab0d6acc02068038b6 -->
<g id="edge3" class="edge">
<title>dir_38c430c1d5f65b759c59a49cfd65049e&#45;&gt;dir_23d64c5c469555ab0d6acc02068038b6</title>
<path fill="none" stroke="#000000" d="M35.0656,-71.8314C38.126,-63.9617 41.7779,-54.5712 45.1682,-45.8533"/>
<polygon fill="#000000" stroke="#000000" points="48.4768,-47.0019 48.8393,-36.4133 41.9527,-44.4647 48.4768,-47.0019"/>
<g id="a_edge3&#45;headlabel"><a xlink:href="dir_000005_000004.html" target="_top" xlink:title="1">
<text text-anchor="middle" x="49.8202" y="-48.8812" font-family="Helvetica,sans-Serif" font-size="10.00" fill="#000000">1</text>
</a>
</g>
</g>
</g>
</svg>
