<?xml version="1.0" encoding="UTF-8" standalone="no"?>
<!DOCTYPE svg PUBLIC "-//W3C//DTD SVG 1.1//EN"
 "http://www.w3.org/Graphics/SVG/1.1/DTD/svg11.dtd">
<!-- Generated by graphviz version 2.40.1 (20161225.0304)
 -->
<!-- Title: /media/lubuntu/USBDISK/github/ckpttncpp/third_party/cppitertools/filterfalse.hpp Pages: 1 -->
<!--zoomable 274 -->
<svg id="main" version="1.1" xmlns="http://www.w3.org/2000/svg" xmlns:xlink="http://www.w3.org/1999/xlink" xml:space="preserve" onload="init(evt)">
<style type="text/css"><![CDATA[
.edge:hover path { stroke: red; }
.edge:hover polygon { stroke: red; fill: red; }
]]></style>
<script type="text/javascript"><![CDATA[
var edges = document.getElementsByTagName('g');
if (edges && edges.length) {
  for (var i=0;i<edges.length;i++) {
    if (edges[i].id.substr(0,4)=='edge') {
      edges[i].setAttribute('class','edge');
    }
  }
}
]]></script>
        <defs>
                <circle id="rim" cx="0" cy="0" r="7"/>
                <circle id="rim2" cx="0" cy="0" r="3.5"/>
                <g id="zoomPlus">
                        <use xlink:href="#rim" fill="#404040">
                                <set attributeName="fill" to="#808080" begin="zoomplus.mouseover" end="zoomplus.mouseout"/>
                        </use>
                        <path d="M-4,0h8M0,-4v8" fill="none" stroke="white" stroke-width="1.5" pointer-events="none"/>
                </g>
                <g id="zoomMin">
                        <use xlink:href="#rim" fill="#404040">
                                <set attributeName="fill" to="#808080" begin="zoomminus.mouseover" end="zoomminus.mouseout"/>
                        </use>
                        <path d="M-4,0h8" fill="none" stroke="white" stroke-width="1.5" pointer-events="none"/>
                </g>
                <g id="dirArrow">
                        <path fill="none" stroke="white" stroke-width="1.5" d="M0,-3.0v7 M-2.5,-0.5L0,-3.0L2.5,-0.5"/>
                </g>
               <g id="resetDef">
                       <use xlink:href="#rim2" fill="#404040">
                               <set attributeName="fill" to="#808080" begin="reset.mouseover" end="reset.mouseout"/>
                       </use>
               </g>
        </defs>

<script type="text/javascript">
var viewWidth = 554;
var viewHeight = 274;
var sectionId = 'dynsection-0';
</script>
<script xlink:href="svgpan.js"/>
<svg id="graph" class="graph">
<g id="viewport">
<title>/media/lubuntu/USBDISK/github/ckpttncpp/third_party/cppitertools/filterfalse.hpp</title>
<polygon fill="#ffffff" stroke="transparent" points="-4,4 -4,-270 550.2604,-270 550.2604,4 -4,4"/>
<!-- Node0 -->
<g id="node1" class="node">
<title>Node0</title>
<polygon fill="#bfbfbf" stroke="#000000" points="309.2604,-224.5 309.2604,-265.5 467.2604,-265.5 467.2604,-224.5 309.2604,-224.5"/>
<text text-anchor="start" x="317.2604" y="-253.5" font-family="Helvetica,sans-Serif" font-size="10.00" fill="#000000">/media/lubuntu/USBDISK</text>
<text text-anchor="start" x="317.2604" y="-242.5" font-family="Helvetica,sans-Serif" font-size="10.00" fill="#000000">/github/ckpttncpp/third</text>
<text text-anchor="middle" x="388.2604" y="-231.5" font-family="Helvetica,sans-Serif" font-size="10.00" fill="#000000">_party/cppitertools/filterfalse.hpp</text>
</g>
<!-- Node1 -->
<g id="node2" class="node">
<title>Node1</title>
<g id="a_node2"><a xlink:href="filter_8hpp.html" target="_top" xlink:title="filter.hpp">
<polygon fill="#ffffff" stroke="#000000" points="246.2604,-168.5 246.2604,-187.5 300.2604,-187.5 300.2604,-168.5 246.2604,-168.5"/>
<text text-anchor="middle" x="273.2604" y="-175.5" font-family="Helvetica,sans-Serif" font-size="10.00" fill="#000000">filter.hpp</text>
</a>
</g>
</g>
<!-- Node0&#45;&gt;Node1 -->
<g id="edge1" class="edge">
<title>Node0&#45;&gt;Node1</title>
<path fill="none" stroke="#191970" d="M352.8182,-224.3511C335.2747,-214.1301 314.5023,-202.0279 298.5829,-192.7532"/>
<polygon fill="#191970" stroke="#191970" points="300.2342,-189.6645 289.8318,-187.6546 296.7104,-195.7129 300.2342,-189.6645"/>
</g>
<!-- Node4 -->
<g id="node5" class="node">
<title>Node4</title>
<polygon fill="#ffffff" stroke="#bfbfbf" points="91.7604,-.5 91.7604,-19.5 150.7604,-19.5 150.7604,-.5 91.7604,-.5"/>
<text text-anchor="middle" x="121.2604" y="-7.5" font-family="Helvetica,sans-Serif" font-size="10.00" fill="#000000">functional</text>
</g>
<!-- Node0&#45;&gt;Node4 -->
<g id="edge20" class="edge">
<title>Node0&#45;&gt;Node4</title>
<path fill="none" stroke="#191970" d="M309.0202,-232.7191C208.6207,-215.3532 44.2682,-180.2738 8.2604,-132 -23.1789,-89.8511 47.317,-45.9226 90.6149,-24.082"/>
<polygon fill="#191970" stroke="#191970" points="92.2236,-27.1914 99.6556,-19.6405 89.1369,-20.9086 92.2236,-27.1914"/>
</g>
<!-- Node6 -->
<g id="node7" class="node">
<title>Node6</title>
<g id="a_node7"><a xlink:href="iterbase_8hpp.html" target="_top" xlink:title="iterbase.hpp">
<polygon fill="#ffffff" stroke="#000000" points="355.2604,-56.5 355.2604,-75.5 425.2604,-75.5 425.2604,-56.5 355.2604,-56.5"/>
<text text-anchor="middle" x="390.2604" y="-63.5" font-family="Helvetica,sans-Serif" font-size="10.00" fill="#000000">iterbase.hpp</text>
</a>
</g>
</g>
<!-- Node0&#45;&gt;Node6 -->
<g id="edge19" class="edge">
<title>Node0&#45;&gt;Node6</title>
<path fill="none" stroke="#191970" d="M388.4898,-224.4664C388.877,-189.8145 389.6552,-120.1656 390.0377,-85.927"/>
<polygon fill="#191970" stroke="#191970" points="393.5391,-85.8134 390.1511,-75.7749 386.5395,-85.7351 393.5391,-85.8134"/>
</g>
<!-- Node12 -->
<g id="node13" class="node">
<title>Node12</title>
<polygon fill="#ffffff" stroke="#bfbfbf" points="506.2604,-.5 506.2604,-19.5 546.2604,-19.5 546.2604,-.5 506.2604,-.5"/>
<text text-anchor="middle" x="526.2604" y="-7.5" font-family="Helvetica,sans-Serif" font-size="10.00" fill="#000000">utility</text>
</g>
<!-- Node0&#45;&gt;Node12 -->
<g id="edge21" class="edge">
<title>Node0&#45;&gt;Node12</title>
<path fill="none" stroke="#191970" d="M400.5069,-224.1453C427.189,-178.7084 490.1996,-71.4078 515.4846,-28.35"/>
<polygon fill="#191970" stroke="#191970" points="518.6259,-29.9125 520.6716,-19.5171 512.5897,-26.3679 518.6259,-29.9125"/>
</g>
<!-- Node2 -->
<g id="node3" class="node">
<title>Node2</title>
<g id="a_node3"><a xlink:href="iterator__wrapper_8hpp.html" target="_top" xlink:title="internal/iterator_wrapper.hpp">
<polygon fill="#ffffff" stroke="#000000" points="203.2604,-112.5 203.2604,-131.5 343.2604,-131.5 343.2604,-112.5 203.2604,-112.5"/>
<text text-anchor="middle" x="273.2604" y="-119.5" font-family="Helvetica,sans-Serif" font-size="10.00" fill="#000000">internal/iterator_wrapper.hpp</text>
</a>
</g>
</g>
<!-- Node1&#45;&gt;Node2 -->
<g id="edge2" class="edge">
<title>Node1&#45;&gt;Node2</title>
<path fill="none" stroke="#191970" d="M273.2604,-168.2455C273.2604,-160.9382 273.2604,-150.6944 273.2604,-141.7046"/>
<polygon fill="#191970" stroke="#191970" points="276.7605,-141.6426 273.2604,-131.6427 269.7605,-141.6427 276.7605,-141.6426"/>
</g>
<!-- Node1&#45;&gt;Node4 -->
<g id="edge15" class="edge">
<title>Node1&#45;&gt;Node4</title>
<path fill="none" stroke="#191970" d="M246.2471,-169.7654C226.2275,-162.5171 199.3835,-150.2428 181.2604,-132 152.0033,-102.5498 134.627,-55.9827 126.6159,-29.7177"/>
<polygon fill="#191970" stroke="#191970" points="129.8915,-28.4457 123.7487,-19.8134 123.1676,-30.3923 129.8915,-28.4457"/>
</g>
<!-- Node1&#45;&gt;Node6 -->
<g id="edge14" class="edge">
<title>Node1&#45;&gt;Node6</title>
<path fill="none" stroke="#191970" d="M296.4913,-168.4278C313.4774,-160.5553 336.2515,-148.0872 352.2604,-132 365.7691,-118.4252 376.1562,-99.0833 382.6296,-84.8459"/>
<polygon fill="#191970" stroke="#191970" points="385.898,-86.1053 386.6402,-75.5365 379.4692,-83.3356 385.898,-86.1053"/>
</g>
<!-- Node8 -->
<g id="node9" class="node">
<title>Node8</title>
<polygon fill="#ffffff" stroke="#bfbfbf" points="169.7604,-.5 169.7604,-19.5 216.7604,-19.5 216.7604,-.5 169.7604,-.5"/>
<text text-anchor="middle" x="193.2604" y="-7.5" font-family="Helvetica,sans-Serif" font-size="10.00" fill="#000000">iterator</text>
</g>
<!-- Node1&#45;&gt;Node8 -->
<g id="edge17" class="edge">
<title>Node1&#45;&gt;Node8</title>
<path fill="none" stroke="#191970" d="M246.1687,-170.0622C227.9945,-163.1731 205.4134,-151.2174 194.2604,-132 175.7375,-100.0838 181.9627,-55.1055 187.8304,-29.6253"/>
<polygon fill="#191970" stroke="#191970" points="191.2818,-30.2519 190.3304,-19.6999 184.4938,-28.542 191.2818,-30.2519"/>
</g>
<!-- Node1&#45;&gt;Node12 -->
<g id="edge18" class="edge">
<title>Node1&#45;&gt;Node12</title>
<path fill="none" stroke="#191970" d="M298.3607,-168.4366C319.1191,-160.0675 349.0178,-146.9348 373.2604,-132 425.9489,-99.5409 481.1206,-51.5056 508.5654,-26.4945"/>
<polygon fill="#191970" stroke="#191970" points="511.1654,-28.8586 516.1592,-19.5144 506.4283,-23.705 511.1654,-28.8586"/>
</g>
<!-- Node13 -->
<g id="node14" class="node">
<title>Node13</title>
<polygon fill="#ffffff" stroke="#bfbfbf" points="17.7604,-112.5 17.7604,-131.5 90.7604,-131.5 90.7604,-112.5 17.7604,-112.5"/>
<text text-anchor="middle" x="54.2604" y="-119.5" font-family="Helvetica,sans-Serif" font-size="10.00" fill="#000000">initializer_list</text>
</g>
<!-- Node1&#45;&gt;Node13 -->
<g id="edge16" class="edge">
<title>Node1&#45;&gt;Node13</title>
<path fill="none" stroke="#191970" d="M245.9667,-171.0208C209.6926,-161.7452 145.0548,-145.2168 100.9532,-133.9397"/>
<polygon fill="#191970" stroke="#191970" points="101.5997,-130.4925 91.0443,-131.4059 99.8655,-137.2743 101.5997,-130.4925"/>
</g>
<!-- Node3 -->
<g id="node4" class="node">
<title>Node3</title>
<polygon fill="#ffffff" stroke="#bfbfbf" points="287.7604,-56.5 287.7604,-75.5 336.7604,-75.5 336.7604,-56.5 287.7604,-56.5"/>
<text text-anchor="middle" x="312.2604" y="-63.5" font-family="Helvetica,sans-Serif" font-size="10.00" fill="#000000">cassert</text>
</g>
<!-- Node2&#45;&gt;Node3 -->
<g id="edge3" class="edge">
<title>Node2&#45;&gt;Node3</title>
<path fill="none" stroke="#191970" d="M280.0536,-112.2455C285.4782,-104.4564 293.2264,-93.3308 299.7637,-83.9439"/>
<polygon fill="#191970" stroke="#191970" points="302.7021,-85.849 305.5449,-75.6427 296.9578,-81.8485 302.7021,-85.849"/>
</g>
<!-- Node2&#45;&gt;Node4 -->
<g id="edge4" class="edge">
<title>Node2&#45;&gt;Node4</title>
<path fill="none" stroke="#191970" d="M260.3009,-112.4509C234.0517,-93.1094 174.3878,-49.1465 142.4187,-25.5904"/>
<polygon fill="#191970" stroke="#191970" points="144.3138,-22.6392 134.187,-19.5249 140.1614,-28.2746 144.3138,-22.6392"/>
</g>
<!-- Node5 -->
<g id="node6" class="node">
<title>Node5</title>
<polygon fill="#ffffff" stroke="#bfbfbf" points="223.2604,-56.5 223.2604,-75.5 269.2604,-75.5 269.2604,-56.5 223.2604,-56.5"/>
<text text-anchor="middle" x="246.2604" y="-63.5" font-family="Helvetica,sans-Serif" font-size="10.00" fill="#000000">variant</text>
</g>
<!-- Node2&#45;&gt;Node5 -->
<g id="edge5" class="edge">
<title>Node2&#45;&gt;Node5</title>
<path fill="none" stroke="#191970" d="M268.5573,-112.2455C264.918,-104.6973 259.768,-94.0158 255.3342,-84.8197"/>
<polygon fill="#191970" stroke="#191970" points="258.4053,-83.1303 250.9095,-75.6427 252.0999,-86.1704 258.4053,-83.1303"/>
</g>
<!-- Node2&#45;&gt;Node6 -->
<g id="edge6" class="edge">
<title>Node2&#45;&gt;Node6</title>
<path fill="none" stroke="#191970" d="M293.3734,-112.3733C312.0707,-103.4241 340.1348,-89.9917 361.2538,-79.8835"/>
<polygon fill="#191970" stroke="#191970" points="362.9008,-82.9755 370.4098,-75.5011 359.8787,-76.6614 362.9008,-82.9755"/>
</g>
<!-- Node6&#45;&gt;Node4 -->
<g id="edge8" class="edge">
<title>Node6&#45;&gt;Node4</title>
<path fill="none" stroke="#191970" d="M355.2183,-57.9287C352.1911,-57.264 349.1734,-56.6128 346.2604,-56 266.9205,-39.3106 244.0876,-38.5036 160.9181,-20.0427"/>
<polygon fill="#191970" stroke="#191970" points="161.5498,-16.5976 151.0266,-17.8277 160.0201,-23.4284 161.5498,-16.5976"/>
</g>
<!-- Node7 -->
<g id="node8" class="node">
<title>Node7</title>
<polygon fill="#ffffff" stroke="#bfbfbf" points="234.7604,-.5 234.7604,-19.5 283.7604,-19.5 283.7604,-.5 234.7604,-.5"/>
<text text-anchor="middle" x="259.2604" y="-7.5" font-family="Helvetica,sans-Serif" font-size="10.00" fill="#000000">cstddef</text>
</g>
<!-- Node6&#45;&gt;Node7 -->
<g id="edge7" class="edge">
<title>Node6&#45;&gt;Node7</title>
<path fill="none" stroke="#191970" d="M367.7407,-56.3733C346.5232,-47.3032 314.5327,-33.6279 290.7835,-23.4755"/>
<polygon fill="#191970" stroke="#191970" points="292.0571,-20.2136 281.4862,-19.5011 289.3055,-26.6502 292.0571,-20.2136"/>
</g>
<!-- Node6&#45;&gt;Node8 -->
<g id="edge9" class="edge">
<title>Node6&#45;&gt;Node8</title>
<path fill="none" stroke="#191970" d="M355.3286,-56.4283C324.0984,-47.8207 276.8447,-34.6739 226.7528,-20.1032"/>
<polygon fill="#191970" stroke="#191970" points="227.6159,-16.7091 217.0358,-17.269 225.6558,-23.4291 227.6159,-16.7091"/>
</g>
<!-- Node9 -->
<g id="node10" class="node">
<title>Node9</title>
<polygon fill="#ffffff" stroke="#bfbfbf" points="302.2604,-.5 302.2604,-19.5 352.2604,-19.5 352.2604,-.5 302.2604,-.5"/>
<text text-anchor="middle" x="327.2604" y="-7.5" font-family="Helvetica,sans-Serif" font-size="10.00" fill="#000000">optional</text>
</g>
<!-- Node6&#45;&gt;Node9 -->
<g id="edge10" class="edge">
<title>Node6&#45;&gt;Node9</title>
<path fill="none" stroke="#191970" d="M379.2866,-56.2455C370.0722,-48.0549 356.7072,-36.1749 345.8307,-26.5069"/>
<polygon fill="#191970" stroke="#191970" points="347.9078,-23.6704 338.1084,-19.6427 343.2572,-28.9023 347.9078,-23.6704"/>
</g>
<!-- Node10 -->
<g id="node11" class="node">
<title>Node10</title>
<polygon fill="#ffffff" stroke="#bfbfbf" points="370.2604,-.5 370.2604,-19.5 408.2604,-19.5 408.2604,-.5 370.2604,-.5"/>
<text text-anchor="middle" x="389.2604" y="-7.5" font-family="Helvetica,sans-Serif" font-size="10.00" fill="#000000">tuple</text>
</g>
<!-- Node6&#45;&gt;Node10 -->
<g id="edge11" class="edge">
<title>Node6&#45;&gt;Node10</title>
<path fill="none" stroke="#191970" d="M390.0862,-56.2455C389.9557,-48.9382 389.7728,-38.6944 389.6122,-29.7046"/>
<polygon fill="#191970" stroke="#191970" points="393.1106,-29.5786 389.4326,-19.6427 386.1118,-29.7036 393.1106,-29.5786"/>
</g>
<!-- Node11 -->
<g id="node12" class="node">
<title>Node11</title>
<polygon fill="#ffffff" stroke="#bfbfbf" points="426.2604,-.5 426.2604,-19.5 488.2604,-19.5 488.2604,-.5 426.2604,-.5"/>
<text text-anchor="middle" x="457.2604" y="-7.5" font-family="Helvetica,sans-Serif" font-size="10.00" fill="#000000">type_traits</text>
</g>
<!-- Node6&#45;&gt;Node11 -->
<g id="edge12" class="edge">
<title>Node6&#45;&gt;Node11</title>
<path fill="none" stroke="#191970" d="M401.9309,-56.2455C411.8264,-47.9746 426.2231,-35.9416 437.8504,-26.2232"/>
<polygon fill="#191970" stroke="#191970" points="440.2953,-28.7413 445.7236,-19.6427 435.8062,-23.3703 440.2953,-28.7413"/>
</g>
<!-- Node6&#45;&gt;Node12 -->
<g id="edge13" class="edge">
<title>Node6&#45;&gt;Node12</title>
<path fill="none" stroke="#191970" d="M413.6396,-56.3733C436.5694,-46.9316 471.6184,-32.4996 496.52,-22.246"/>
<polygon fill="#191970" stroke="#191970" points="497.9339,-25.449 505.8481,-18.4051 495.2686,-18.9762 497.9339,-25.449"/>
</g>
</g>
</svg>
        <g id="navigator" transform="translate(0 0)" fill="#404254">
                <rect fill="#f2f5e9" fill-opacity="0.5" stroke="#606060" stroke-width=".5" x="0" y="0" width="60" height="60"/>
                <use id="zoomplus" xlink:href="#zoomPlus" x="17" y="9" onmousedown="handleZoom(evt,'in')"/>
                <use id="zoomminus" xlink:href="#zoomMin" x="42" y="9" onmousedown="handleZoom(evt,'out')"/>
                <use id="reset" xlink:href="#resetDef" x="30" y="36" onmousedown="handleReset()"/>
                <g id="arrowUp" xlink:href="#dirArrow" transform="translate(30 24)" onmousedown="handlePan(0,-1)">
                  <use xlink:href="#rim" fill="#404040">
                        <set attributeName="fill" to="#808080" begin="arrowUp.mouseover" end="arrowUp.mouseout"/>
                  </use>
                  <path fill="none" stroke="white" stroke-width="1.5" d="M0,-3.0v7 M-2.5,-0.5L0,-3.0L2.5,-0.5"/>
                </g>
                <g id="arrowRight" xlink:href="#dirArrow" transform="rotate(90) translate(36 -43)" onmousedown="handlePan(1,0)">
                  <use xlink:href="#rim" fill="#404040">
                        <set attributeName="fill" to="#808080" begin="arrowRight.mouseover" end="arrowRight.mouseout"/>
                  </use>
                  <path fill="none" stroke="white" stroke-width="1.5" d="M0,-3.0v7 M-2.5,-0.5L0,-3.0L2.5,-0.5"/>
                </g>
                <g id="arrowDown" xlink:href="#dirArrow" transform="rotate(180) translate(-30 -48)" onmousedown="handlePan(0,1)">
                  <use xlink:href="#rim" fill="#404040">
                        <set attributeName="fill" to="#808080" begin="arrowDown.mouseover" end="arrowDown.mouseout"/>
                  </use>
                  <path fill="none" stroke="white" stroke-width="1.5" d="M0,-3.0v7 M-2.5,-0.5L0,-3.0L2.5,-0.5"/>
                </g>
                <g id="arrowLeft" xlink:href="#dirArrow" transform="rotate(270) translate(-36 17)" onmousedown="handlePan(-1,0)">
                  <use xlink:href="#rim" fill="#404040">
                        <set attributeName="fill" to="#808080" begin="arrowLeft.mouseover" end="arrowLeft.mouseout"/>
                  </use>
                  <path fill="none" stroke="white" stroke-width="1.5" d="M0,-3.0v7 M-2.5,-0.5L0,-3.0L2.5,-0.5"/>
                </g>
        </g>
        <svg viewBox="0 0 15 15" width="100%" height="30px" preserveAspectRatio="xMaxYMin meet">
         <g id="arrow_out" transform="scale(0.3 0.3)">
          <a xlink:href="filterfalse_8hpp__incl_org.svg" target="_base">
           <rect id="button" ry="5" rx="5" y="6" x="6" height="38" width="38"
                fill="#f2f5e9" fill-opacity="0.5" stroke="#606060" stroke-width="1.0"/>
           <path id="arrow"
             d="M 11.500037,31.436501 C 11.940474,20.09759 22.043105,11.32322 32.158766,21.979434 L 37.068811,17.246167 C 37.068811,17.246167 37.088388,32 37.088388,32 L 22.160133,31.978069 C 22.160133,31.978069 26.997745,27.140456 26.997745,27.140456 C 18.528582,18.264221 13.291696,25.230495 11.500037,31.436501 z"
             style="fill:#404040;"/>
          </a>
         </g>
        </svg>
</svg>
