<?xml version="1.0" encoding="UTF-8" standalone="no"?>
<!DOCTYPE svg PUBLIC "-//W3C//DTD SVG 1.1//EN"
 "http://www.w3.org/Graphics/SVG/1.1/DTD/svg11.dtd">
<!-- Generated by graphviz version 2.40.1 (20161225.0304)
 -->
<!-- Title: /media/lubuntu/USBDISK/github/ckpttncpp/third_party/cppitertools/filter.hpp Pages: 1 -->
<svg width="478pt" height="218pt"
 viewBox="0.00 0.00 478.00 218.00" xmlns="http://www.w3.org/2000/svg" xmlns:xlink="http://www.w3.org/1999/xlink">
<g id="graph0" class="graph" transform="scale(1 1) rotate(0) translate(4 214)">
<title>/media/lubuntu/USBDISK/github/ckpttncpp/third_party/cppitertools/filter.hpp</title>
<polygon fill="#ffffff" stroke="transparent" points="-4,4 -4,-214 474,-214 474,4 -4,4"/>
<!-- Node0 -->
<g id="node1" class="node">
<title>Node0</title>
<polygon fill="#bfbfbf" stroke="#000000" points="243,-168.5 243,-209.5 380,-209.5 380,-168.5 243,-168.5"/>
<text text-anchor="start" x="251" y="-197.5" font-family="Helvetica,sans-Serif" font-size="10.00" fill="#000000">/media/lubuntu/USBDISK</text>
<text text-anchor="start" x="251" y="-186.5" font-family="Helvetica,sans-Serif" font-size="10.00" fill="#000000">/github/ckpttncpp/third</text>
<text text-anchor="middle" x="311.5" y="-175.5" font-family="Helvetica,sans-Serif" font-size="10.00" fill="#000000">_party/cppitertools/filter.hpp</text>
</g>
<!-- Node1 -->
<g id="node2" class="node">
<title>Node1</title>
<g id="a_node2"><a xlink:href="iterator__wrapper_8hpp.html" target="_top" xlink:title="internal/iterator_wrapper.hpp">
<polygon fill="#ffffff" stroke="#000000" points="124.5,-112.5 124.5,-131.5 264.5,-131.5 264.5,-112.5 124.5,-112.5"/>
<text text-anchor="middle" x="194.5" y="-119.5" font-family="Helvetica,sans-Serif" font-size="10.00" fill="#000000">internal/iterator_wrapper.hpp</text>
</a>
</g>
</g>
<!-- Node0&#45;&gt;Node1 -->
<g id="edge1" class="edge">
<title>Node0&#45;&gt;Node1</title>
<path fill="none" stroke="#191970" d="M275.4415,-168.3511C257.5929,-158.1301 236.4592,-146.0279 220.263,-136.7532"/>
<polygon fill="#191970" stroke="#191970" points="221.7768,-133.5868 211.3596,-131.6546 218.2982,-139.6613 221.7768,-133.5868"/>
</g>
<!-- Node3 -->
<g id="node4" class="node">
<title>Node3</title>
<polygon fill="#ffffff" stroke="#bfbfbf" points="0,-.5 0,-19.5 59,-19.5 59,-.5 0,-.5"/>
<text text-anchor="middle" x="29.5" y="-7.5" font-family="Helvetica,sans-Serif" font-size="10.00" fill="#000000">functional</text>
</g>
<!-- Node0&#45;&gt;Node3 -->
<g id="edge14" class="edge">
<title>Node0&#45;&gt;Node3</title>
<path fill="none" stroke="#191970" d="M242.6076,-176.2889C203.7659,-167.3588 155.2183,-153.1652 115.5,-132 81.25,-113.7487 69.6855,-108.5169 48.5,-76 39.358,-61.9682 34.5282,-43.4666 32.0307,-29.6236"/>
<polygon fill="#191970" stroke="#191970" points="35.4821,-29.04 30.49,-19.6949 28.5649,-30.1134 35.4821,-29.04"/>
</g>
<!-- Node5 -->
<g id="node6" class="node">
<title>Node5</title>
<g id="a_node6"><a xlink:href="iterbase_8hpp.html" target="_top" xlink:title="iterbase.hpp">
<polygon fill="#ffffff" stroke="#000000" points="227.5,-56.5 227.5,-75.5 297.5,-75.5 297.5,-56.5 227.5,-56.5"/>
<text text-anchor="middle" x="262.5" y="-63.5" font-family="Helvetica,sans-Serif" font-size="10.00" fill="#000000">iterbase.hpp</text>
</a>
</g>
</g>
<!-- Node0&#45;&gt;Node5 -->
<g id="edge13" class="edge">
<title>Node0&#45;&gt;Node5</title>
<path fill="none" stroke="#191970" d="M303.2985,-168.4126C294.0318,-145.1513 279.0719,-107.5989 270.0727,-85.0089"/>
<polygon fill="#191970" stroke="#191970" points="273.2442,-83.5128 266.2918,-75.5182 266.7412,-86.1035 273.2442,-83.5128"/>
</g>
<!-- Node7 -->
<g id="node8" class="node">
<title>Node7</title>
<polygon fill="#ffffff" stroke="#bfbfbf" points="350,-.5 350,-19.5 397,-19.5 397,-.5 350,-.5"/>
<text text-anchor="middle" x="373.5" y="-7.5" font-family="Helvetica,sans-Serif" font-size="10.00" fill="#000000">iterator</text>
</g>
<!-- Node0&#45;&gt;Node7 -->
<g id="edge16" class="edge">
<title>Node0&#45;&gt;Node7</title>
<path fill="none" stroke="#191970" d="M317.7,-168.0927C325.64,-141.7484 340.1014,-95.1772 354.5,-56 357.7694,-47.1042 361.7253,-37.3866 365.1791,-29.1847"/>
<polygon fill="#191970" stroke="#191970" points="368.4859,-30.353 369.196,-19.782 362.0487,-27.6029 368.4859,-30.353"/>
</g>
<!-- Node11 -->
<g id="node12" class="node">
<title>Node11</title>
<polygon fill="#ffffff" stroke="#bfbfbf" points="415.5,-.5 415.5,-19.5 455.5,-19.5 455.5,-.5 415.5,-.5"/>
<text text-anchor="middle" x="435.5" y="-7.5" font-family="Helvetica,sans-Serif" font-size="10.00" fill="#000000">utility</text>
</g>
<!-- Node0&#45;&gt;Node11 -->
<g id="edge17" class="edge">
<title>Node0&#45;&gt;Node11</title>
<path fill="none" stroke="#191970" d="M325.7244,-168.4664C350.1465,-133.2119 399.663,-61.7324 422.9108,-28.1731"/>
<polygon fill="#191970" stroke="#191970" points="425.9112,-29.9882 428.7286,-19.7749 420.157,-26.0021 425.9112,-29.9882"/>
</g>
<!-- Node12 -->
<g id="node13" class="node">
<title>Node12</title>
<polygon fill="#ffffff" stroke="#bfbfbf" points="397,-112.5 397,-131.5 470,-131.5 470,-112.5 397,-112.5"/>
<text text-anchor="middle" x="433.5" y="-119.5" font-family="Helvetica,sans-Serif" font-size="10.00" fill="#000000">initializer_list</text>
</g>
<!-- Node0&#45;&gt;Node12 -->
<g id="edge15" class="edge">
<title>Node0&#45;&gt;Node12</title>
<path fill="none" stroke="#191970" d="M349.0995,-168.3511C367.8848,-158.0346 390.1599,-145.8015 407.1082,-136.4939"/>
<polygon fill="#191970" stroke="#191970" points="408.8395,-139.5362 415.9199,-131.6546 405.4699,-133.4005 408.8395,-139.5362"/>
</g>
<!-- Node2 -->
<g id="node3" class="node">
<title>Node2</title>
<polygon fill="#ffffff" stroke="#bfbfbf" points="122,-56.5 122,-75.5 171,-75.5 171,-56.5 122,-56.5"/>
<text text-anchor="middle" x="146.5" y="-63.5" font-family="Helvetica,sans-Serif" font-size="10.00" fill="#000000">cassert</text>
</g>
<!-- Node1&#45;&gt;Node2 -->
<g id="edge2" class="edge">
<title>Node1&#45;&gt;Node2</title>
<path fill="none" stroke="#191970" d="M186.139,-112.2455C179.325,-104.2958 169.5319,-92.8706 161.3848,-83.3656"/>
<polygon fill="#191970" stroke="#191970" points="163.9305,-80.9575 154.7651,-75.6427 158.6157,-85.513 163.9305,-80.9575"/>
</g>
<!-- Node1&#45;&gt;Node3 -->
<g id="edge3" class="edge">
<title>Node1&#45;&gt;Node3</title>
<path fill="none" stroke="#191970" d="M195.1242,-112.1013C195.4609,-97.8323 193.8918,-71.4996 179.5,-56 175.5989,-51.7987 111.9346,-33.223 68.8132,-21.0001"/>
<polygon fill="#191970" stroke="#191970" points="69.7233,-17.6202 59.1484,-18.2692 67.8199,-24.3565 69.7233,-17.6202"/>
</g>
<!-- Node4 -->
<g id="node5" class="node">
<title>Node4</title>
<polygon fill="#ffffff" stroke="#bfbfbf" points="57.5,-56.5 57.5,-75.5 103.5,-75.5 103.5,-56.5 57.5,-56.5"/>
<text text-anchor="middle" x="80.5" y="-63.5" font-family="Helvetica,sans-Serif" font-size="10.00" fill="#000000">variant</text>
</g>
<!-- Node1&#45;&gt;Node4 -->
<g id="edge4" class="edge">
<title>Node1&#45;&gt;Node4</title>
<path fill="none" stroke="#191970" d="M174.9027,-112.3733C156.7669,-103.4644 129.5865,-90.1127 109.0413,-80.0203"/>
<polygon fill="#191970" stroke="#191970" points="110.3603,-76.7688 99.8416,-75.5011 107.2739,-83.0517 110.3603,-76.7688"/>
</g>
<!-- Node1&#45;&gt;Node5 -->
<g id="edge5" class="edge">
<title>Node1&#45;&gt;Node5</title>
<path fill="none" stroke="#191970" d="M206.3447,-112.2455C216.388,-103.9746 230.9995,-91.9416 242.8004,-82.2232"/>
<polygon fill="#191970" stroke="#191970" points="245.2967,-84.7015 250.791,-75.6427 240.8467,-79.298 245.2967,-84.7015"/>
</g>
<!-- Node5&#45;&gt;Node3 -->
<g id="edge7" class="edge">
<title>Node5&#45;&gt;Node3</title>
<path fill="none" stroke="#191970" d="M227.4071,-57.8814C190.4887,-49.2957 130.4418,-35.2053 69.1421,-20.1272"/>
<polygon fill="#191970" stroke="#191970" points="69.8436,-16.6955 59.2964,-17.6995 68.1677,-23.4919 69.8436,-16.6955"/>
</g>
<!-- Node6 -->
<g id="node7" class="node">
<title>Node6</title>
<polygon fill="#ffffff" stroke="#bfbfbf" points="214,-.5 214,-19.5 263,-19.5 263,-.5 214,-.5"/>
<text text-anchor="middle" x="238.5" y="-7.5" font-family="Helvetica,sans-Serif" font-size="10.00" fill="#000000">cstddef</text>
</g>
<!-- Node5&#45;&gt;Node6 -->
<g id="edge6" class="edge">
<title>Node5&#45;&gt;Node6</title>
<path fill="none" stroke="#191970" d="M258.3195,-56.2455C255.119,-48.7776 250.604,-38.2427 246.6916,-29.1137"/>
<polygon fill="#191970" stroke="#191970" points="249.7888,-27.4554 242.6326,-19.6427 243.3548,-30.2129 249.7888,-27.4554"/>
</g>
<!-- Node5&#45;&gt;Node7 -->
<g id="edge8" class="edge">
<title>Node5&#45;&gt;Node7</title>
<path fill="none" stroke="#191970" d="M281.5816,-56.3733C299.2402,-47.4644 325.7053,-34.1127 345.7098,-24.0203"/>
<polygon fill="#191970" stroke="#191970" points="347.3158,-27.1303 354.6674,-19.5011 344.1628,-20.8806 347.3158,-27.1303"/>
</g>
<!-- Node8 -->
<g id="node9" class="node">
<title>Node8</title>
<polygon fill="#ffffff" stroke="#bfbfbf" points="281.5,-.5 281.5,-19.5 331.5,-19.5 331.5,-.5 281.5,-.5"/>
<text text-anchor="middle" x="306.5" y="-7.5" font-family="Helvetica,sans-Serif" font-size="10.00" fill="#000000">optional</text>
</g>
<!-- Node5&#45;&gt;Node8 -->
<g id="edge9" class="edge">
<title>Node5&#45;&gt;Node8</title>
<path fill="none" stroke="#191970" d="M270.1642,-56.2455C276.3473,-48.3761 285.2063,-37.101 292.6289,-27.6542"/>
<polygon fill="#191970" stroke="#191970" points="295.4975,-29.6683 298.9236,-19.6427 289.9932,-25.3435 295.4975,-29.6683"/>
</g>
<!-- Node9 -->
<g id="node10" class="node">
<title>Node9</title>
<polygon fill="#ffffff" stroke="#bfbfbf" points="77.5,-.5 77.5,-19.5 115.5,-19.5 115.5,-.5 77.5,-.5"/>
<text text-anchor="middle" x="96.5" y="-7.5" font-family="Helvetica,sans-Serif" font-size="10.00" fill="#000000">tuple</text>
</g>
<!-- Node5&#45;&gt;Node9 -->
<g id="edge10" class="edge">
<title>Node5&#45;&gt;Node9</title>
<path fill="none" stroke="#191970" d="M233.3631,-56.4872C207.3582,-47.9531 168.0076,-34.9327 125.4639,-20.2887"/>
<polygon fill="#191970" stroke="#191970" points="126.3555,-16.8939 115.7607,-16.9395 124.0715,-23.5108 126.3555,-16.8939"/>
</g>
<!-- Node10 -->
<g id="node11" class="node">
<title>Node10</title>
<polygon fill="#ffffff" stroke="#bfbfbf" points="133.5,-.5 133.5,-19.5 195.5,-19.5 195.5,-.5 133.5,-.5"/>
<text text-anchor="middle" x="164.5" y="-7.5" font-family="Helvetica,sans-Serif" font-size="10.00" fill="#000000">type_traits</text>
</g>
<!-- Node5&#45;&gt;Node10 -->
<g id="edge11" class="edge">
<title>Node5&#45;&gt;Node10</title>
<path fill="none" stroke="#191970" d="M245.4297,-56.2455C230.253,-47.5731 207.8379,-34.7645 190.4437,-24.825"/>
<polygon fill="#191970" stroke="#191970" points="191.7936,-21.5653 181.3747,-19.6427 188.3206,-27.643 191.7936,-21.5653"/>
</g>
<!-- Node5&#45;&gt;Node11 -->
<g id="edge12" class="edge">
<title>Node5&#45;&gt;Node11</title>
<path fill="none" stroke="#191970" d="M293.1851,-56.4212C320.3875,-47.8803 361.4238,-34.8769 405.493,-20.2885"/>
<polygon fill="#191970" stroke="#191970" points="406.8509,-23.5256 415.2385,-17.0527 404.6451,-16.8822 406.8509,-23.5256"/>
</g>
</g>
</svg>
