<?xml version="1.0" encoding="UTF-8" standalone="no"?>
<!DOCTYPE svg PUBLIC "-//W3C//DTD SVG 1.1//EN"
 "http://www.w3.org/Graphics/SVG/1.1/DTD/svg11.dtd">
<!-- Generated by graphviz version 2.40.1 (20161225.0304)
 -->
<!-- Title: lib/include/ckpttncpp/FMBiGainCalc.hpp Pages: 1 -->
<svg width="846pt" height="173pt"
 viewBox="0.00 0.00 845.50 173.00" xmlns="http://www.w3.org/2000/svg" xmlns:xlink="http://www.w3.org/1999/xlink">
<g id="graph0" class="graph" transform="scale(1 1) rotate(0) translate(4 169)">
<title>lib/include/ckpttncpp/FMBiGainCalc.hpp</title>
<polygon fill="#ffffff" stroke="transparent" points="-4,4 -4,-169 841.5,-169 841.5,4 -4,4"/>
<!-- Node20 -->
<g id="node1" class="node">
<title>Node20</title>
<polygon fill="#bfbfbf" stroke="#000000" points="290,-134.5 290,-164.5 396,-164.5 396,-134.5 290,-134.5"/>
<text text-anchor="start" x="298" y="-152.5" font-family="Helvetica,sans-Serif" font-size="10.00" fill="#000000">lib/include/ckpttncpp</text>
<text text-anchor="middle" x="343" y="-141.5" font-family="Helvetica,sans-Serif" font-size="10.00" fill="#000000">/FMBiGainCalc.hpp</text>
</g>
<!-- Node21 -->
<g id="node2" class="node">
<title>Node21</title>
<g id="a_node2"><a xlink:href="FMBiGainMgr_8hpp.html" target="_top" xlink:title="lib/include/ckpttncpp\l/FMBiGainMgr.hpp">
<polygon fill="#ffffff" stroke="#000000" points="290,-67.5 290,-97.5 396,-97.5 396,-67.5 290,-67.5"/>
<text text-anchor="start" x="298" y="-85.5" font-family="Helvetica,sans-Serif" font-size="10.00" fill="#000000">lib/include/ckpttncpp</text>
<text text-anchor="middle" x="343" y="-74.5" font-family="Helvetica,sans-Serif" font-size="10.00" fill="#000000">/FMBiGainMgr.hpp</text>
</a>
</g>
</g>
<!-- Node20&#45;&gt;Node21 -->
<g id="edge1" class="edge">
<title>Node20&#45;&gt;Node21</title>
<path fill="none" stroke="#191970" d="M343,-124.0249C343,-115.128 343,-105.4287 343,-97.6432"/>
<polygon fill="#191970" stroke="#191970" points="339.5001,-124.2966 343,-134.2967 346.5001,-124.2967 339.5001,-124.2966"/>
</g>
<!-- Node22 -->
<g id="node3" class="node">
<title>Node22</title>
<g id="a_node3"><a xlink:href="FMBiGainMgr2_8cpp.html" target="_top" xlink:title="lib/src/FMBiGainMgr2.cpp">
<polygon fill="#ffffff" stroke="#000000" points="0,-6 0,-25 130,-25 130,-6 0,-6"/>
<text text-anchor="middle" x="65" y="-13" font-family="Helvetica,sans-Serif" font-size="10.00" fill="#000000">lib/src/FMBiGainMgr2.cpp</text>
</a>
</g>
</g>
<!-- Node20&#45;&gt;Node22 -->
<g id="edge9" class="edge">
<title>Node20&#45;&gt;Node22</title>
<path fill="none" stroke="#191970" d="M302.3928,-129.9267C241.867,-100.7524 130.2598,-46.9562 84.9251,-25.1042"/>
<polygon fill="#191970" stroke="#191970" points="301.1224,-133.1997 311.6503,-134.389 304.1619,-126.894 301.1224,-133.1997"/>
</g>
<!-- Node28 -->
<g id="node9" class="node">
<title>Node28</title>
<g id="a_node9"><a xlink:href="FMBiGainCalc_8cpp.html" target="_top" xlink:title="lib/src/FMBiGainCalc.cpp">
<polygon fill="#ffffff" stroke="#000000" points="414,-73 414,-92 542,-92 542,-73 414,-73"/>
<text text-anchor="middle" x="478" y="-80" font-family="Helvetica,sans-Serif" font-size="10.00" fill="#000000">lib/src/FMBiGainCalc.cpp</text>
</a>
</g>
</g>
<!-- Node20&#45;&gt;Node28 -->
<g id="edge8" class="edge">
<title>Node20&#45;&gt;Node28</title>
<path fill="none" stroke="#191970" d="M382.5526,-129.8702C407.5961,-117.4412 438.8728,-101.9187 458.6488,-92.1039"/>
<polygon fill="#191970" stroke="#191970" points="380.6982,-126.8831 373.2966,-134.4639 383.8101,-133.1534 380.6982,-126.8831"/>
</g>
<!-- Node21&#45;&gt;Node22 -->
<g id="edge2" class="edge">
<title>Node21&#45;&gt;Node22</title>
<path fill="none" stroke="#191970" d="M279.942,-67.3026C226.1013,-54.3266 150.3263,-36.0642 104.6143,-25.0473"/>
<polygon fill="#191970" stroke="#191970" points="279.186,-70.7205 289.7277,-69.661 280.8262,-63.9154 279.186,-70.7205"/>
</g>
<!-- Node23 -->
<g id="node4" class="node">
<title>Node23</title>
<g id="a_node4"><a xlink:href="FMGainMgr_8cpp.html" target="_top" xlink:title="lib/src/FMGainMgr.cpp">
<polygon fill="#ffffff" stroke="#000000" points="148,-6 148,-25 264,-25 264,-6 148,-6"/>
<text text-anchor="middle" x="206" y="-13" font-family="Helvetica,sans-Serif" font-size="10.00" fill="#000000">lib/src/FMGainMgr.cpp</text>
</a>
</g>
</g>
<!-- Node21&#45;&gt;Node23 -->
<g id="edge3" class="edge">
<title>Node21&#45;&gt;Node23</title>
<path fill="none" stroke="#191970" d="M303.1969,-63.0343C277.7268,-50.5781 245.7952,-34.9619 225.6379,-25.1039"/>
<polygon fill="#191970" stroke="#191970" points="301.7336,-66.2147 312.2545,-67.4639 304.8089,-59.9264 301.7336,-66.2147"/>
</g>
<!-- Node24 -->
<g id="node5" class="node">
<title>Node24</title>
<g id="a_node5"><a xlink:href="PartMgrBase_8cpp.html" target="_top" xlink:title="lib/src/PartMgrBase.cpp">
<polygon fill="#ffffff" stroke="#000000" points="282,-6 282,-25 404,-25 404,-6 282,-6"/>
<text text-anchor="middle" x="343" y="-13" font-family="Helvetica,sans-Serif" font-size="10.00" fill="#000000">lib/src/PartMgrBase.cpp</text>
</a>
</g>
</g>
<!-- Node21&#45;&gt;Node24 -->
<g id="edge4" class="edge">
<title>Node21&#45;&gt;Node24</title>
<path fill="none" stroke="#191970" d="M343,-57.1199C343,-45.9072 343,-33.4031 343,-25.055"/>
<polygon fill="#191970" stroke="#191970" points="339.5001,-57.2966 343,-67.2967 346.5001,-57.2967 339.5001,-57.2966"/>
</g>
<!-- Node25 -->
<g id="node6" class="node">
<title>Node25</title>
<g id="a_node6"><a xlink:href="test__FMBiGainMgr_8cpp.html" target="_top" xlink:title="lib/test/src/test_FMBiGain\lMgr.cpp">
<polygon fill="#ffffff" stroke="#000000" points="422.5,-.5 422.5,-30.5 553.5,-30.5 553.5,-.5 422.5,-.5"/>
<text text-anchor="start" x="430.5" y="-18.5" font-family="Helvetica,sans-Serif" font-size="10.00" fill="#000000">lib/test/src/test_FMBiGain</text>
<text text-anchor="middle" x="488" y="-7.5" font-family="Helvetica,sans-Serif" font-size="10.00" fill="#000000">Mgr.cpp</text>
</a>
</g>
</g>
<!-- Node21&#45;&gt;Node25 -->
<g id="edge5" class="edge">
<title>Node21&#45;&gt;Node25</title>
<path fill="none" stroke="#191970" d="M384.8236,-63.1746C407.2451,-52.8143 434.466,-40.2364 455.3172,-30.6017"/>
<polygon fill="#191970" stroke="#191970" points="383.1505,-60.0921 375.5408,-67.4639 386.0867,-66.4465 383.1505,-60.0921"/>
</g>
<!-- Node26 -->
<g id="node7" class="node">
<title>Node26</title>
<g id="a_node7"><a xlink:href="test__FMBiPartMgr_8cpp.html" target="_top" xlink:title="lib/test/src/test_FMBiPart\lMgr.cpp">
<polygon fill="#ffffff" stroke="#000000" points="572,-.5 572,-30.5 700,-30.5 700,-.5 572,-.5"/>
<text text-anchor="start" x="580" y="-18.5" font-family="Helvetica,sans-Serif" font-size="10.00" fill="#000000">lib/test/src/test_FMBiPart</text>
<text text-anchor="middle" x="636" y="-7.5" font-family="Helvetica,sans-Serif" font-size="10.00" fill="#000000">Mgr.cpp</text>
</a>
</g>
</g>
<!-- Node21&#45;&gt;Node26 -->
<g id="edge6" class="edge">
<title>Node21&#45;&gt;Node26</title>
<path fill="none" stroke="#191970" d="M405.9861,-66.7963C467.6447,-52.2839 527.6306,-38.9878 571.673,-29.3786"/>
<polygon fill="#191970" stroke="#191970" points="405.0063,-63.4313 396.0781,-69.1355 406.6148,-70.244 405.0063,-63.4313"/>
</g>
<!-- Node27 -->
<g id="node8" class="node">
<title>Node27</title>
<g id="a_node8"><a xlink:href="test__MLPartMgr_8cpp.html" target="_top" xlink:title="lib/test/src/test_MLPart\lMgr.cpp">
<polygon fill="#ffffff" stroke="#000000" points="718.5,-.5 718.5,-30.5 837.5,-30.5 837.5,-.5 718.5,-.5"/>
<text text-anchor="start" x="726.5" y="-18.5" font-family="Helvetica,sans-Serif" font-size="10.00" fill="#000000">lib/test/src/test_MLPart</text>
<text text-anchor="middle" x="778" y="-7.5" font-family="Helvetica,sans-Serif" font-size="10.00" fill="#000000">Mgr.cpp</text>
</a>
</g>
</g>
<!-- Node21&#45;&gt;Node27 -->
<g id="edge7" class="edge">
<title>Node21&#45;&gt;Node27</title>
<path fill="none" stroke="#191970" d="M405.8718,-66.9887C540.5668,-42.971 578.0359,-53.4028 709,-31 712.0255,-30.4825 715.1181,-29.9182 718.2358,-29.3212"/>
<polygon fill="#191970" stroke="#191970" points="405.2181,-63.5501 396.0032,-68.7784 406.4673,-70.4377 405.2181,-63.5501"/>
</g>
</g>
</svg>
