<?xml version="1.0" encoding="UTF-8" standalone="no"?>
<!DOCTYPE svg PUBLIC "-//W3C//DTD SVG 1.1//EN"
 "http://www.w3.org/Graphics/SVG/1.1/DTD/svg11.dtd">
<!-- Generated by graphviz version 2.40.1 (20161225.0304)
 -->
<!-- Title: lib/include/ckpttncpp/FMBiConstrMgr.hpp Pages: 1 -->
<!--zoomable 319 -->
<svg id="main" version="1.1" xmlns="http://www.w3.org/2000/svg" xmlns:xlink="http://www.w3.org/1999/xlink" xml:space="preserve" onload="init(evt)">
<style type="text/css"><![CDATA[
.edge:hover path { stroke: red; }
.edge:hover polygon { stroke: red; fill: red; }
]]></style>
<script type="text/javascript"><![CDATA[
var edges = document.getElementsByTagName('g');
if (edges && edges.length) {
  for (var i=0;i<edges.length;i++) {
    if (edges[i].id.substr(0,4)=='edge') {
      edges[i].setAttribute('class','edge');
    }
  }
}
]]></script>
        <defs>
                <circle id="rim" cx="0" cy="0" r="7"/>
                <circle id="rim2" cx="0" cy="0" r="3.5"/>
                <g id="zoomPlus">
                        <use xlink:href="#rim" fill="#404040">
                                <set attributeName="fill" to="#808080" begin="zoomplus.mouseover" end="zoomplus.mouseout"/>
                        </use>
                        <path d="M-4,0h8M0,-4v8" fill="none" stroke="white" stroke-width="1.5" pointer-events="none"/>
                </g>
                <g id="zoomMin">
                        <use xlink:href="#rim" fill="#404040">
                                <set attributeName="fill" to="#808080" begin="zoomminus.mouseover" end="zoomminus.mouseout"/>
                        </use>
                        <path d="M-4,0h8" fill="none" stroke="white" stroke-width="1.5" pointer-events="none"/>
                </g>
                <g id="dirArrow">
                        <path fill="none" stroke="white" stroke-width="1.5" d="M0,-3.0v7 M-2.5,-0.5L0,-3.0L2.5,-0.5"/>
                </g>
               <g id="resetDef">
                       <use xlink:href="#rim2" fill="#404040">
                               <set attributeName="fill" to="#808080" begin="reset.mouseover" end="reset.mouseout"/>
                       </use>
               </g>
        </defs>

<script type="text/javascript">
var viewWidth = 867;
var viewHeight = 319;
var sectionId = 'dynsection-0';
</script>
<script xlink:href="svgpan.js"/>
<svg id="graph" class="graph">
<g id="viewport">
<title>lib/include/ckpttncpp/FMBiConstrMgr.hpp</title>
<polygon fill="#ffffff" stroke="transparent" points="-4,4 -4,-315 863,-315 863,4 -4,4"/>
<!-- Node0 -->
<g id="node1" class="node">
<title>Node0</title>
<polygon fill="#bfbfbf" stroke="#000000" points="323.5,-280.5 323.5,-310.5 430.5,-310.5 430.5,-280.5 323.5,-280.5"/>
<text text-anchor="start" x="331.5" y="-298.5" font-family="Helvetica,sans-Serif" font-size="10.00" fill="#000000">lib/include/ckpttncpp</text>
<text text-anchor="middle" x="377" y="-287.5" font-family="Helvetica,sans-Serif" font-size="10.00" fill="#000000">/FMBiConstrMgr.hpp</text>
</g>
<!-- Node1 -->
<g id="node2" class="node">
<title>Node1</title>
<g id="a_node2"><a xlink:href="FMConstrMgr_8hpp.html" target="_top" xlink:title="FMConstrMgr.hpp">
<polygon fill="#ffffff" stroke="#000000" points="329.5,-224.5 329.5,-243.5 424.5,-243.5 424.5,-224.5 329.5,-224.5"/>
<text text-anchor="middle" x="377" y="-231.5" font-family="Helvetica,sans-Serif" font-size="10.00" fill="#000000">FMConstrMgr.hpp</text>
</a>
</g>
</g>
<!-- Node0&#45;&gt;Node1 -->
<g id="edge1" class="edge">
<title>Node0&#45;&gt;Node1</title>
<path fill="none" stroke="#191970" d="M377,-280.2977C377,-272.3834 377,-262.6043 377,-254.0759"/>
<polygon fill="#191970" stroke="#191970" points="380.5001,-253.8469 377,-243.8469 373.5001,-253.847 380.5001,-253.8469"/>
</g>
<!-- Node2 -->
<g id="node3" class="node">
<title>Node2</title>
<g id="a_node3"><a xlink:href="netlist_8hpp.html" target="_top" xlink:title="netlist.hpp">
<polygon fill="#ffffff" stroke="#000000" points="203,-168.5 203,-187.5 265,-187.5 265,-168.5 203,-168.5"/>
<text text-anchor="middle" x="234" y="-175.5" font-family="Helvetica,sans-Serif" font-size="10.00" fill="#000000">netlist.hpp</text>
</a>
</g>
</g>
<!-- Node1&#45;&gt;Node2 -->
<g id="edge2" class="edge">
<title>Node1&#45;&gt;Node2</title>
<path fill="none" stroke="#191970" d="M352.4174,-224.3733C329.0504,-215.2226 293.7138,-201.3844 267.7216,-191.2057"/>
<polygon fill="#191970" stroke="#191970" points="268.8495,-187.8886 258.2618,-187.5011 266.297,-194.4066 268.8495,-187.8886"/>
</g>
<!-- Node3 -->
<g id="node4" class="node">
<title>Node3</title>
<polygon fill="#ffffff" stroke="#bfbfbf" points="0,-112.5 0,-131.5 56,-131.5 56,-112.5 0,-112.5"/>
<text text-anchor="middle" x="28" y="-119.5" font-family="Helvetica,sans-Serif" font-size="10.00" fill="#000000">algorithm</text>
</g>
<!-- Node1&#45;&gt;Node3 -->
<g id="edge24" class="edge">
<title>Node1&#45;&gt;Node3</title>
<path fill="none" stroke="#191970" d="M329.459,-227.7026C284.4279,-220.882 215.3526,-208.1852 158,-188 119.2986,-174.3791 77.488,-151.5467 52.0216,-136.6287"/>
<polygon fill="#191970" stroke="#191970" points="53.8009,-133.6148 43.4147,-131.5224 50.2292,-139.635 53.8009,-133.6148"/>
</g>
<!-- Node4 -->
<g id="node5" class="node">
<title>Node4</title>
<polygon fill="#ffffff" stroke="#bfbfbf" points="74.5,-112.5 74.5,-131.5 127.5,-131.5 127.5,-112.5 74.5,-112.5"/>
<text text-anchor="middle" x="101" y="-119.5" font-family="Helvetica,sans-Serif" font-size="10.00" fill="#000000">gsl/span</text>
</g>
<!-- Node1&#45;&gt;Node4 -->
<g id="edge27" class="edge">
<title>Node1&#45;&gt;Node4</title>
<path fill="none" stroke="#191970" d="M329.1233,-226.974C291.219,-220.2439 237.5886,-208.0819 194,-188 165.8752,-175.0425 137.4022,-153.282 119.5048,-138.3117"/>
<polygon fill="#191970" stroke="#191970" points="121.494,-135.4079 111.6162,-131.5765 116.9487,-140.7316 121.494,-135.4079"/>
</g>
<!-- Node13 -->
<g id="node14" class="node">
<title>Node13</title>
<polygon fill="#ffffff" stroke="#bfbfbf" points="815,-56.5 815,-75.5 859,-75.5 859,-56.5 815,-56.5"/>
<text text-anchor="middle" x="837" y="-63.5" font-family="Helvetica,sans-Serif" font-size="10.00" fill="#000000">vector</text>
</g>
<!-- Node1&#45;&gt;Node13 -->
<g id="edge28" class="edge">
<title>Node1&#45;&gt;Node13</title>
<path fill="none" stroke="#191970" d="M396.5422,-224.3304C424.2769,-210.8002 476.8247,-185.8738 523,-168 624.1454,-128.848 747.3194,-91.8474 804.6969,-75.2082"/>
<polygon fill="#191970" stroke="#191970" points="805.9877,-78.4786 814.6247,-72.3423 804.0463,-71.7532 805.9877,-78.4786"/>
</g>
<!-- Node19 -->
<g id="node20" class="node">
<title>Node19</title>
<polygon fill="#ffffff" stroke="#bfbfbf" points="532,-168.5 532,-187.5 588,-187.5 588,-168.5 532,-168.5"/>
<text text-anchor="middle" x="560" y="-175.5" font-family="Helvetica,sans-Serif" font-size="10.00" fill="#000000">cinttypes</text>
</g>
<!-- Node1&#45;&gt;Node19 -->
<g id="edge25" class="edge">
<title>Node1&#45;&gt;Node19</title>
<path fill="none" stroke="#191970" d="M408.4588,-224.3733C439.9468,-214.7376 488.4193,-199.9045 522.0295,-189.6194"/>
<polygon fill="#191970" stroke="#191970" points="523.4097,-192.8573 531.9478,-186.5843 521.3613,-186.1637 523.4097,-192.8573"/>
</g>
<!-- Node20 -->
<g id="node21" class="node">
<title>Node20</title>
<polygon fill="#ffffff" stroke="#bfbfbf" points="606,-168.5 606,-187.5 650,-187.5 650,-168.5 606,-168.5"/>
<text text-anchor="middle" x="628" y="-175.5" font-family="Helvetica,sans-Serif" font-size="10.00" fill="#000000">cmath</text>
</g>
<!-- Node1&#45;&gt;Node20 -->
<g id="edge26" class="edge">
<title>Node1&#45;&gt;Node20</title>
<path fill="none" stroke="#191970" d="M424.547,-225.5653C467.1497,-217.6704 531.496,-204.9171 595.8282,-188.1143"/>
<polygon fill="#191970" stroke="#191970" points="596.9599,-191.4353 605.7325,-185.4946 595.17,-184.668 596.9599,-191.4353"/>
</g>
<!-- Node2&#45;&gt;Node3 -->
<g id="edge3" class="edge">
<title>Node2&#45;&gt;Node3</title>
<path fill="none" stroke="#191970" d="M202.713,-169.4948C166.0594,-159.5307 105.3526,-143.0279 66.0182,-132.335"/>
<polygon fill="#191970" stroke="#191970" points="66.8299,-128.9288 56.262,-129.6829 64.9936,-135.6836 66.8299,-128.9288"/>
</g>
<!-- Node2&#45;&gt;Node4 -->
<g id="edge4" class="edge">
<title>Node2&#45;&gt;Node4</title>
<path fill="none" stroke="#191970" d="M211.1365,-168.3733C189.595,-159.3032 157.1162,-145.6279 133.0044,-135.4755"/>
<polygon fill="#191970" stroke="#191970" points="134.1397,-132.156 123.5652,-131.5011 131.4233,-138.6075 134.1397,-132.156"/>
</g>
<!-- Node5 -->
<g id="node6" class="node">
<title>Node5</title>
<polygon fill="#ffffff" stroke="#bfbfbf" points="184.5,-112.5 184.5,-131.5 231.5,-131.5 231.5,-112.5 184.5,-112.5"/>
<text text-anchor="middle" x="208" y="-119.5" font-family="Helvetica,sans-Serif" font-size="10.00" fill="#000000">iterator</text>
</g>
<!-- Node2&#45;&gt;Node5 -->
<g id="edge5" class="edge">
<title>Node2&#45;&gt;Node5</title>
<path fill="none" stroke="#191970" d="M229.4711,-168.2455C225.9666,-160.6973 221.0073,-150.0158 216.7377,-140.8197"/>
<polygon fill="#191970" stroke="#191970" points="219.8627,-139.2389 212.477,-131.6427 213.5136,-142.1867 219.8627,-139.2389"/>
</g>
<!-- Node6 -->
<g id="node7" class="node">
<title>Node6</title>
<g id="a_node7"><a xlink:href="py2cpp_8hpp.html" target="_top" xlink:title="py2cpp/py2cpp.hpp">
<polygon fill="#ffffff" stroke="#000000" points="179.5,-56.5 179.5,-75.5 280.5,-75.5 280.5,-56.5 179.5,-56.5"/>
<text text-anchor="middle" x="230" y="-63.5" font-family="Helvetica,sans-Serif" font-size="10.00" fill="#000000">py2cpp/py2cpp.hpp</text>
</a>
</g>
</g>
<!-- Node2&#45;&gt;Node6 -->
<g id="edge6" class="edge">
<title>Node2&#45;&gt;Node6</title>
<path fill="none" stroke="#191970" d="M236.1107,-168.1501C238.5982,-155.2421 242.1386,-131.9052 240,-112 239.0637,-103.285 237.1567,-93.7985 235.2568,-85.7166"/>
<polygon fill="#191970" stroke="#191970" points="238.5899,-84.6187 232.7621,-75.7707 231.8002,-86.3218 238.5899,-84.6187"/>
</g>
<!-- Node12 -->
<g id="node13" class="node">
<title>Node12</title>
<polygon fill="#ffffff" stroke="#bfbfbf" points="130,-.5 130,-19.5 170,-19.5 170,-.5 130,-.5"/>
<text text-anchor="middle" x="150" y="-7.5" font-family="Helvetica,sans-Serif" font-size="10.00" fill="#000000">utility</text>
</g>
<!-- Node2&#45;&gt;Node12 -->
<g id="edge13" class="edge">
<title>Node2&#45;&gt;Node12</title>
<path fill="none" stroke="#191970" d="M215.6649,-168.4158C202.2965,-160.4606 184.8611,-147.8925 175,-132 155.2293,-100.137 150.7727,-55.4506 149.9545,-29.9412"/>
<polygon fill="#191970" stroke="#191970" points="153.4501,-29.6285 149.7926,-19.685 146.451,-29.739 153.4501,-29.6285"/>
</g>
<!-- Node2&#45;&gt;Node13 -->
<g id="edge14" class="edge">
<title>Node2&#45;&gt;Node13</title>
<path fill="none" stroke="#191970" d="M265.0937,-173.3855C306.9089,-166.7008 383.2616,-152.8012 446,-132 466.3895,-125.2398 469.3217,-117.8173 490,-112 616.7235,-76.3498 653.9186,-96.2143 784,-76 790.6793,-74.9621 797.8059,-73.7143 804.5966,-72.4577"/>
<polygon fill="#191970" stroke="#191970" points="805.7073,-75.8093 814.8783,-70.5044 804.4008,-68.9323 805.7073,-75.8093"/>
</g>
<!-- Node14 -->
<g id="node15" class="node">
<title>Node14</title>
<g id="a_node15"><a xlink:href="graph_8hpp.html" target="_top" xlink:title="xnetwork/classes/graph.hpp">
<polygon fill="#ffffff" stroke="#000000" points="298.5,-112.5 298.5,-131.5 437.5,-131.5 437.5,-112.5 298.5,-112.5"/>
<text text-anchor="middle" x="368" y="-119.5" font-family="Helvetica,sans-Serif" font-size="10.00" fill="#000000">xnetwork/classes/graph.hpp</text>
</a>
</g>
</g>
<!-- Node2&#45;&gt;Node14 -->
<g id="edge15" class="edge">
<title>Node2&#45;&gt;Node14</title>
<path fill="none" stroke="#191970" d="M257.0354,-168.3733C278.7388,-159.3032 311.4618,-145.6279 335.755,-135.4755"/>
<polygon fill="#191970" stroke="#191970" points="337.3881,-138.5865 345.2652,-131.5011 334.6889,-132.1278 337.3881,-138.5865"/>
</g>
<!-- Node7 -->
<g id="node8" class="node">
<title>Node7</title>
<polygon fill="#ffffff" stroke="#bfbfbf" points="540.5,-.5 540.5,-19.5 613.5,-19.5 613.5,-.5 540.5,-.5"/>
<text text-anchor="middle" x="577" y="-7.5" font-family="Helvetica,sans-Serif" font-size="10.00" fill="#000000">initializer_list</text>
</g>
<!-- Node6&#45;&gt;Node7 -->
<g id="edge7" class="edge">
<title>Node6&#45;&gt;Node7</title>
<path fill="none" stroke="#191970" d="M280.7353,-57.5213C283.87,-57.0045 286.9776,-56.4941 290,-56 374.6243,-42.1664 473.3549,-26.4304 530.1811,-17.4124"/>
<polygon fill="#191970" stroke="#191970" points="530.9632,-20.8322 540.2914,-15.8087 529.8665,-13.9187 530.9632,-20.8322"/>
</g>
<!-- Node8 -->
<g id="node9" class="node">
<title>Node8</title>
<polygon fill="#ffffff" stroke="#bfbfbf" points="386,-.5 386,-19.5 424,-19.5 424,-.5 386,-.5"/>
<text text-anchor="middle" x="405" y="-7.5" font-family="Helvetica,sans-Serif" font-size="10.00" fill="#000000">tuple</text>
</g>
<!-- Node6&#45;&gt;Node8 -->
<g id="edge8" class="edge">
<title>Node6&#45;&gt;Node8</title>
<path fill="none" stroke="#191970" d="M261.6597,-56.4906C289.5272,-48.0325 331.4133,-35.1083 376.166,-20.1976"/>
<polygon fill="#191970" stroke="#191970" points="377.3841,-23.4808 385.7552,-16.9865 375.1614,-16.843 377.3841,-23.4808"/>
</g>
<!-- Node9 -->
<g id="node10" class="node">
<title>Node9</title>
<polygon fill="#ffffff" stroke="#bfbfbf" points="694,-.5 694,-19.5 756,-19.5 756,-.5 694,-.5"/>
<text text-anchor="middle" x="725" y="-7.5" font-family="Helvetica,sans-Serif" font-size="10.00" fill="#000000">type_traits</text>
</g>
<!-- Node6&#45;&gt;Node9 -->
<g id="edge9" class="edge">
<title>Node6&#45;&gt;Node9</title>
<path fill="none" stroke="#191970" d="M280.7067,-57.33C283.8485,-56.8607 286.9655,-56.4129 290,-56 365.5353,-45.7209 590.1284,-23.2734 683.5329,-14.065"/>
<polygon fill="#191970" stroke="#191970" points="684.1227,-17.5239 693.7316,-13.0608 683.4367,-10.5576 684.1227,-17.5239"/>
</g>
<!-- Node10 -->
<g id="node11" class="node">
<title>Node10</title>
<polygon fill="#ffffff" stroke="#bfbfbf" points="188.5,-.5 188.5,-19.5 271.5,-19.5 271.5,-.5 188.5,-.5"/>
<text text-anchor="middle" x="230" y="-7.5" font-family="Helvetica,sans-Serif" font-size="10.00" fill="#000000">unordered_map</text>
</g>
<!-- Node6&#45;&gt;Node10 -->
<g id="edge10" class="edge">
<title>Node6&#45;&gt;Node10</title>
<path fill="none" stroke="#191970" d="M230,-56.2455C230,-48.9382 230,-38.6944 230,-29.7046"/>
<polygon fill="#191970" stroke="#191970" points="233.5001,-29.6426 230,-19.6427 226.5001,-29.6427 233.5001,-29.6426"/>
</g>
<!-- Node11 -->
<g id="node12" class="node">
<title>Node11</title>
<polygon fill="#ffffff" stroke="#bfbfbf" points="290,-.5 290,-19.5 368,-19.5 368,-.5 290,-.5"/>
<text text-anchor="middle" x="329" y="-7.5" font-family="Helvetica,sans-Serif" font-size="10.00" fill="#000000">unordered_set</text>
</g>
<!-- Node6&#45;&gt;Node11 -->
<g id="edge11" class="edge">
<title>Node6&#45;&gt;Node11</title>
<path fill="none" stroke="#191970" d="M247.2445,-56.2455C262.5761,-47.5731 285.2199,-34.7645 302.7916,-24.825"/>
<polygon fill="#191970" stroke="#191970" points="304.9724,-27.6126 311.9531,-19.6427 301.5259,-21.5198 304.9724,-27.6126"/>
</g>
<!-- Node6&#45;&gt;Node12 -->
<g id="edge12" class="edge">
<title>Node6&#45;&gt;Node12</title>
<path fill="none" stroke="#191970" d="M216.0651,-56.2455C203.9053,-47.7337 186.0536,-35.2375 171.9715,-25.3801"/>
<polygon fill="#191970" stroke="#191970" points="173.9747,-22.51 163.7752,-19.6427 169.9605,-28.2447 173.9747,-22.51"/>
</g>
<!-- Node14&#45;&gt;Node6 -->
<g id="edge18" class="edge">
<title>Node14&#45;&gt;Node6</title>
<path fill="none" stroke="#191970" d="M344.277,-112.3733C321.8263,-103.2629 287.9261,-89.5062 262.8745,-79.3404"/>
<polygon fill="#191970" stroke="#191970" points="263.9957,-76.0182 253.4135,-75.5011 261.3635,-82.5045 263.9957,-76.0182"/>
</g>
<!-- Node14&#45;&gt;Node9 -->
<g id="edge19" class="edge">
<title>Node14&#45;&gt;Node9</title>
<path fill="none" stroke="#191970" d="M437.6687,-113.6786C442.5184,-113.1078 447.3319,-112.5438 452,-112 522.2018,-103.8225 720.9375,-128.7284 768,-76 781.93,-60.3929 763.8597,-39.8723 747.0579,-25.8826"/>
<polygon fill="#191970" stroke="#191970" points="749.0813,-23.0211 739.0575,-19.5897 744.7536,-28.523 749.0813,-23.0211"/>
</g>
<!-- Node14&#45;&gt;Node13 -->
<g id="edge20" class="edge">
<title>Node14&#45;&gt;Node13</title>
<path fill="none" stroke="#191970" d="M437.6622,-113.6215C442.5135,-113.0643 447.3291,-112.5189 452,-112 606.9807,-94.7828 647.7805,-104.9697 801,-76 802.2548,-75.7627 803.5296,-75.5028 804.8137,-75.2252"/>
<polygon fill="#191970" stroke="#191970" points="805.7782,-78.5927 814.6687,-72.8299 804.125,-71.7907 805.7782,-78.5927"/>
</g>
<!-- Node15 -->
<g id="node16" class="node">
<title>Node15</title>
<polygon fill="#ffffff" stroke="#bfbfbf" points="299,-56.5 299,-75.5 331,-75.5 331,-56.5 299,-56.5"/>
<text text-anchor="middle" x="315" y="-63.5" font-family="Helvetica,sans-Serif" font-size="10.00" fill="#000000">any</text>
</g>
<!-- Node14&#45;&gt;Node15 -->
<g id="edge16" class="edge">
<title>Node14&#45;&gt;Node15</title>
<path fill="none" stroke="#191970" d="M358.7681,-112.2455C351.1683,-104.2155 340.2123,-92.6394 331.1632,-83.0781"/>
<polygon fill="#191970" stroke="#191970" points="333.542,-80.4998 324.1261,-75.6427 328.4579,-85.3115 333.542,-80.4998"/>
</g>
<!-- Node16 -->
<g id="node17" class="node">
<title>Node16</title>
<polygon fill="#ffffff" stroke="#bfbfbf" points="349.5,-56.5 349.5,-75.5 398.5,-75.5 398.5,-56.5 349.5,-56.5"/>
<text text-anchor="middle" x="374" y="-63.5" font-family="Helvetica,sans-Serif" font-size="10.00" fill="#000000">cassert</text>
</g>
<!-- Node14&#45;&gt;Node16 -->
<g id="edge17" class="edge">
<title>Node14&#45;&gt;Node16</title>
<path fill="none" stroke="#191970" d="M369.0451,-112.2455C369.828,-104.9382 370.9256,-94.6944 371.8888,-85.7046"/>
<polygon fill="#191970" stroke="#191970" points="375.3815,-85.9587 372.9669,-75.6427 368.4214,-85.2129 375.3815,-85.9587"/>
</g>
<!-- Node17 -->
<g id="node18" class="node">
<title>Node17</title>
<g id="a_node18"><a xlink:href="coreviews_8hpp.html" target="_top" xlink:title="xnetwork/classes/coreviews.hpp">
<polygon fill="#ffffff" stroke="#000000" points="416.5,-56.5 416.5,-75.5 575.5,-75.5 575.5,-56.5 416.5,-56.5"/>
<text text-anchor="middle" x="496" y="-63.5" font-family="Helvetica,sans-Serif" font-size="10.00" fill="#000000">xnetwork/classes/coreviews.hpp</text>
</a>
</g>
</g>
<!-- Node14&#45;&gt;Node17 -->
<g id="edge21" class="edge">
<title>Node14&#45;&gt;Node17</title>
<path fill="none" stroke="#191970" d="M390.004,-112.3733C410.6435,-103.3435 441.7158,-89.7494 464.8889,-79.6111"/>
<polygon fill="#191970" stroke="#191970" points="466.5245,-82.7159 474.2831,-75.5011 463.7187,-76.3028 466.5245,-82.7159"/>
</g>
<!-- Node18 -->
<g id="node19" class="node">
<title>Node18</title>
<g id="a_node19"><a xlink:href="reportviews_8hpp.html" target="_top" xlink:title="xnetwork/classes/reportviews.hpp">
<polygon fill="#ffffff" stroke="#000000" points="593.5,-56.5 593.5,-75.5 758.5,-75.5 758.5,-56.5 593.5,-56.5"/>
<text text-anchor="middle" x="676" y="-63.5" font-family="Helvetica,sans-Serif" font-size="10.00" fill="#000000">xnetwork/classes/reportviews.hpp</text>
</a>
</g>
</g>
<!-- Node14&#45;&gt;Node18 -->
<g id="edge22" class="edge">
<title>Node14&#45;&gt;Node18</title>
<path fill="none" stroke="#191970" d="M420.5971,-112.4369C474.0841,-102.712 556.9492,-87.6456 613.6933,-77.3285"/>
<polygon fill="#191970" stroke="#191970" points="614.4072,-80.7562 623.6198,-75.5237 613.155,-73.8691 614.4072,-80.7562"/>
</g>
<!-- Node18&#45;&gt;Node7 -->
<g id="edge23" class="edge">
<title>Node18&#45;&gt;Node7</title>
<path fill="none" stroke="#191970" d="M658.7555,-56.2455C643.4239,-47.5731 620.7801,-34.7645 603.2084,-24.825"/>
<polygon fill="#191970" stroke="#191970" points="604.4741,-21.5198 594.0469,-19.6427 601.0276,-27.6126 604.4741,-21.5198"/>
</g>
</g>
</svg>
        <g id="navigator" transform="translate(0 0)" fill="#404254">
                <rect fill="#f2f5e9" fill-opacity="0.5" stroke="#606060" stroke-width=".5" x="0" y="0" width="60" height="60"/>
                <use id="zoomplus" xlink:href="#zoomPlus" x="17" y="9" onmousedown="handleZoom(evt,'in')"/>
                <use id="zoomminus" xlink:href="#zoomMin" x="42" y="9" onmousedown="handleZoom(evt,'out')"/>
                <use id="reset" xlink:href="#resetDef" x="30" y="36" onmousedown="handleReset()"/>
                <g id="arrowUp" xlink:href="#dirArrow" transform="translate(30 24)" onmousedown="handlePan(0,-1)">
                  <use xlink:href="#rim" fill="#404040">
                        <set attributeName="fill" to="#808080" begin="arrowUp.mouseover" end="arrowUp.mouseout"/>
                  </use>
                  <path fill="none" stroke="white" stroke-width="1.5" d="M0,-3.0v7 M-2.5,-0.5L0,-3.0L2.5,-0.5"/>
                </g>
                <g id="arrowRight" xlink:href="#dirArrow" transform="rotate(90) translate(36 -43)" onmousedown="handlePan(1,0)">
                  <use xlink:href="#rim" fill="#404040">
                        <set attributeName="fill" to="#808080" begin="arrowRight.mouseover" end="arrowRight.mouseout"/>
                  </use>
                  <path fill="none" stroke="white" stroke-width="1.5" d="M0,-3.0v7 M-2.5,-0.5L0,-3.0L2.5,-0.5"/>
                </g>
                <g id="arrowDown" xlink:href="#dirArrow" transform="rotate(180) translate(-30 -48)" onmousedown="handlePan(0,1)">
                  <use xlink:href="#rim" fill="#404040">
                        <set attributeName="fill" to="#808080" begin="arrowDown.mouseover" end="arrowDown.mouseout"/>
                  </use>
                  <path fill="none" stroke="white" stroke-width="1.5" d="M0,-3.0v7 M-2.5,-0.5L0,-3.0L2.5,-0.5"/>
                </g>
                <g id="arrowLeft" xlink:href="#dirArrow" transform="rotate(270) translate(-36 17)" onmousedown="handlePan(-1,0)">
                  <use xlink:href="#rim" fill="#404040">
                        <set attributeName="fill" to="#808080" begin="arrowLeft.mouseover" end="arrowLeft.mouseout"/>
                  </use>
                  <path fill="none" stroke="white" stroke-width="1.5" d="M0,-3.0v7 M-2.5,-0.5L0,-3.0L2.5,-0.5"/>
                </g>
        </g>
        <svg viewBox="0 0 15 15" width="100%" height="30px" preserveAspectRatio="xMaxYMin meet">
         <g id="arrow_out" transform="scale(0.3 0.3)">
          <a xlink:href="FMBiConstrMgr_8hpp__incl_org.svg" target="_base">
           <rect id="button" ry="5" rx="5" y="6" x="6" height="38" width="38"
                fill="#f2f5e9" fill-opacity="0.5" stroke="#606060" stroke-width="1.0"/>
           <path id="arrow"
             d="M 11.500037,31.436501 C 11.940474,20.09759 22.043105,11.32322 32.158766,21.979434 L 37.068811,17.246167 C 37.068811,17.246167 37.088388,32 37.088388,32 L 22.160133,31.978069 C 22.160133,31.978069 26.997745,27.140456 26.997745,27.140456 C 18.528582,18.264221 13.291696,25.230495 11.500037,31.436501 z"
             style="fill:#404040;"/>
          </a>
         </g>
        </svg>
</svg>
