<?xml version="1.0" encoding="UTF-8" standalone="no"?>
<!DOCTYPE svg PUBLIC "-//W3C//DTD SVG 1.1//EN"
 "http://www.w3.org/Graphics/SVG/1.1/DTD/svg11.dtd">
<!-- Generated by graphviz version 2.40.1 (20161225.0304)
 -->
<!-- Title: lib/src/FMGainMgr.cpp Pages: 1 -->
<svg width="950pt" height="364pt"
 viewBox="0.00 0.00 949.69 364.00" xmlns="http://www.w3.org/2000/svg" xmlns:xlink="http://www.w3.org/1999/xlink">
<g id="graph0" class="graph" transform="scale(1 1) rotate(0) translate(4 360)">
<title>lib/src/FMGainMgr.cpp</title>
<polygon fill="#ffffff" stroke="transparent" points="-4,4 -4,-360 945.6905,-360 945.6905,4 -4,4"/>
<!-- Node0 -->
<g id="node1" class="node">
<title>Node0</title>
<polygon fill="#bfbfbf" stroke="#000000" points="327.6905,-336.5 327.6905,-355.5 443.6905,-355.5 443.6905,-336.5 327.6905,-336.5"/>
<text text-anchor="middle" x="385.6905" y="-343.5" font-family="Helvetica,sans-Serif" font-size="10.00" fill="#000000">lib/src/FMGainMgr.cpp</text>
</g>
<!-- Node1 -->
<g id="node2" class="node">
<title>Node1</title>
<g id="a_node2"><a xlink:href="FMGainMgr_8hpp.html" target="_top" xlink:title="ckpttncpp/FMGainMgr.hpp">
<polygon fill="#ffffff" stroke="#000000" points="212.6905,-224.5 212.6905,-243.5 344.6905,-243.5 344.6905,-224.5 212.6905,-224.5"/>
<text text-anchor="middle" x="278.6905" y="-231.5" font-family="Helvetica,sans-Serif" font-size="10.00" fill="#000000">ckpttncpp/FMGainMgr.hpp</text>
</a>
</g>
</g>
<!-- Node0&#45;&gt;Node1 -->
<g id="edge1" class="edge">
<title>Node0&#45;&gt;Node1</title>
<path fill="none" stroke="#191970" d="M353.0022,-336.4806C333.987,-329.3471 311.0177,-317.717 296.6905,-300 286.0834,-286.8833 281.7055,-268.0055 279.9098,-253.7966"/>
<polygon fill="#191970" stroke="#191970" points="283.3722,-253.2311 278.9535,-243.6017 276.4028,-253.8849 283.3722,-253.2311"/>
</g>
<!-- Node24 -->
<g id="node25" class="node">
<title>Node24</title>
<g id="a_node25"><a xlink:href="FMBiGainMgr_8hpp.html" target="_top" xlink:title="ckpttncpp/FMBiGainMgr.hpp">
<polygon fill="#ffffff" stroke="#000000" points="483.1905,-280.5 483.1905,-299.5 624.1905,-299.5 624.1905,-280.5 483.1905,-280.5"/>
<text text-anchor="middle" x="553.6905" y="-287.5" font-family="Helvetica,sans-Serif" font-size="10.00" fill="#000000">ckpttncpp/FMBiGainMgr.hpp</text>
</a>
</g>
</g>
<!-- Node0&#45;&gt;Node24 -->
<g id="edge37" class="edge">
<title>Node0&#45;&gt;Node24</title>
<path fill="none" stroke="#191970" d="M414.5707,-336.3733C442.5065,-327.0613 485.0047,-312.8953 515.6774,-302.671"/>
<polygon fill="#191970" stroke="#191970" points="516.8071,-305.9839 525.1871,-299.5011 514.5934,-299.3431 516.8071,-305.9839"/>
</g>
<!-- Node26 -->
<g id="node27" class="node">
<title>Node26</title>
<g id="a_node27"><a xlink:href="FMKWayGainMgr_8hpp.html" target="_top" xlink:title="ckpttncpp/FMKWayGainMgr.hpp">
<polygon fill="#ffffff" stroke="#000000" points="306.1905,-280.5 306.1905,-299.5 465.1905,-299.5 465.1905,-280.5 306.1905,-280.5"/>
<text text-anchor="middle" x="385.6905" y="-287.5" font-family="Helvetica,sans-Serif" font-size="10.00" fill="#000000">ckpttncpp/FMKWayGainMgr.hpp</text>
</a>
</g>
</g>
<!-- Node0&#45;&gt;Node26 -->
<g id="edge44" class="edge">
<title>Node0&#45;&gt;Node26</title>
<path fill="none" stroke="#191970" d="M385.6905,-336.2455C385.6905,-328.9382 385.6905,-318.6944 385.6905,-309.7046"/>
<polygon fill="#191970" stroke="#191970" points="389.1906,-309.6426 385.6905,-299.6427 382.1906,-309.6427 389.1906,-309.6426"/>
</g>
<!-- Node2 -->
<g id="node3" class="node">
<title>Node2</title>
<g id="a_node3"><a xlink:href="bpqueue_8hpp.html" target="_top" xlink:title="bpqueue.hpp">
<polygon fill="#ffffff" stroke="#000000" points="122.6905,-168.5 122.6905,-187.5 194.6905,-187.5 194.6905,-168.5 122.6905,-168.5"/>
<text text-anchor="middle" x="158.6905" y="-175.5" font-family="Helvetica,sans-Serif" font-size="10.00" fill="#000000">bpqueue.hpp</text>
</a>
</g>
</g>
<!-- Node1&#45;&gt;Node2 -->
<g id="edge2" class="edge">
<title>Node1&#45;&gt;Node2</title>
<path fill="none" stroke="#191970" d="M258.0617,-224.3733C238.7986,-215.3838 209.8418,-201.8706 188.1485,-191.7471"/>
<polygon fill="#191970" stroke="#191970" points="189.592,-188.5584 179.05,-187.5011 186.6317,-194.9017 189.592,-188.5584"/>
</g>
<!-- Node3 -->
<g id="node4" class="node">
<title>Node3</title>
<g id="a_node4"><a xlink:href="dllist_8hpp.html" target="_top" xlink:title="dllist.hpp">
<polygon fill="#ffffff" stroke="#000000" points="194.6905,-112.5 194.6905,-131.5 250.6905,-131.5 250.6905,-112.5 194.6905,-112.5"/>
<text text-anchor="middle" x="222.6905" y="-119.5" font-family="Helvetica,sans-Serif" font-size="10.00" fill="#000000">dllist.hpp</text>
</a>
</g>
</g>
<!-- Node1&#45;&gt;Node3 -->
<g id="edge9" class="edge">
<title>Node1&#45;&gt;Node3</title>
<path fill="none" stroke="#191970" d="M268.8865,-224.2386C260.5664,-215.4506 248.8683,-201.8263 241.6905,-188 234.1364,-173.4489 229.2158,-155.4888 226.279,-141.9794"/>
<polygon fill="#191970" stroke="#191970" points="229.6481,-140.976 224.2644,-131.851 222.7826,-142.3416 229.6481,-140.976"/>
</g>
<!-- Node6 -->
<g id="node7" class="node">
<title>Node6</title>
<polygon fill="#ffffff" stroke="#bfbfbf" points="169.6905,-.5 169.6905,-19.5 231.6905,-19.5 231.6905,-.5 169.6905,-.5"/>
<text text-anchor="middle" x="200.6905" y="-7.5" font-family="Helvetica,sans-Serif" font-size="10.00" fill="#000000">type_traits</text>
</g>
<!-- Node1&#45;&gt;Node6 -->
<g id="edge36" class="edge">
<title>Node1&#45;&gt;Node6</title>
<path fill="none" stroke="#191970" d="M212.6715,-230.2302C150.8008,-225.154 64.7624,-213.5966 43.6905,-188 22.2304,-161.932 -48.2266,-183.1557 55.6905,-56 68.9608,-39.7621 121.5669,-25.9683 159.5985,-17.835"/>
<polygon fill="#191970" stroke="#191970" points="160.3302,-21.2578 169.4066,-15.7925 158.903,-14.4049 160.3302,-21.2578"/>
</g>
<!-- Node8 -->
<g id="node9" class="node">
<title>Node8</title>
<g id="a_node9"><a xlink:href="netlist_8hpp.html" target="_top" xlink:title="netlist.hpp">
<polygon fill="#ffffff" stroke="#000000" points="517.6905,-168.5 517.6905,-187.5 579.6905,-187.5 579.6905,-168.5 517.6905,-168.5"/>
<text text-anchor="middle" x="548.6905" y="-175.5" font-family="Helvetica,sans-Serif" font-size="10.00" fill="#000000">netlist.hpp</text>
</a>
</g>
</g>
<!-- Node1&#45;&gt;Node8 -->
<g id="edge10" class="edge">
<title>Node1&#45;&gt;Node8</title>
<path fill="none" stroke="#191970" d="M324.7983,-224.4369C376.1224,-213.7919 458.3036,-196.7469 507.5336,-186.5362"/>
<polygon fill="#191970" stroke="#191970" points="508.4349,-189.9239 517.5157,-184.4659 507.0132,-183.0698 508.4349,-189.9239"/>
</g>
<!-- Node10 -->
<g id="node11" class="node">
<title>Node10</title>
<polygon fill="#ffffff" stroke="#bfbfbf" points="743.1905,-112.5 743.1905,-131.5 796.1905,-131.5 796.1905,-112.5 743.1905,-112.5"/>
<text text-anchor="middle" x="769.6905" y="-119.5" font-family="Helvetica,sans-Serif" font-size="10.00" fill="#000000">gsl/span</text>
</g>
<!-- Node1&#45;&gt;Node10 -->
<g id="edge33" class="edge">
<title>Node1&#45;&gt;Node10</title>
<path fill="none" stroke="#191970" d="M345.0237,-224.7346C432.6217,-212.4144 577.2159,-191.7504 588.6905,-188 606.8314,-182.0708 609.0959,-175.3944 626.6905,-168 662.0689,-153.1318 704.0233,-140.1577 733.3048,-131.8128"/>
<polygon fill="#191970" stroke="#191970" points="734.4224,-135.1344 743.102,-129.0586 732.5279,-128.3956 734.4224,-135.1344"/>
</g>
<!-- Node11 -->
<g id="node12" class="node">
<title>Node11</title>
<polygon fill="#ffffff" stroke="#bfbfbf" points="331.1905,-112.5 331.1905,-131.5 378.1905,-131.5 378.1905,-112.5 331.1905,-112.5"/>
<text text-anchor="middle" x="354.6905" y="-119.5" font-family="Helvetica,sans-Serif" font-size="10.00" fill="#000000">iterator</text>
</g>
<!-- Node1&#45;&gt;Node11 -->
<g id="edge34" class="edge">
<title>Node1&#45;&gt;Node11</title>
<path fill="none" stroke="#191970" d="M331.8633,-224.463C369.7832,-216.4538 416.037,-203.7939 427.6905,-188 443.3202,-166.8171 413.692,-147.2246 387.6227,-134.9816"/>
<polygon fill="#191970" stroke="#191970" points="388.8284,-131.6871 378.2696,-130.8141 385.9794,-138.0812 388.8284,-131.6871"/>
</g>
<!-- Node22 -->
<g id="node23" class="node">
<title>Node22</title>
<polygon fill="#ffffff" stroke="#bfbfbf" points="250.6905,-168.5 250.6905,-187.5 306.6905,-187.5 306.6905,-168.5 250.6905,-168.5"/>
<text text-anchor="middle" x="278.6905" y="-175.5" font-family="Helvetica,sans-Serif" font-size="10.00" fill="#000000">cinttypes</text>
</g>
<!-- Node1&#45;&gt;Node22 -->
<g id="edge32" class="edge">
<title>Node1&#45;&gt;Node22</title>
<path fill="none" stroke="#191970" d="M278.6905,-224.2455C278.6905,-216.9382 278.6905,-206.6944 278.6905,-197.7046"/>
<polygon fill="#191970" stroke="#191970" points="282.1906,-197.6426 278.6905,-187.6427 275.1906,-197.6427 282.1906,-197.6426"/>
</g>
<!-- Node23 -->
<g id="node24" class="node">
<title>Node23</title>
<polygon fill="#ffffff" stroke="#bfbfbf" points="52.6905,-168.5 52.6905,-187.5 104.6905,-187.5 104.6905,-168.5 52.6905,-168.5"/>
<text text-anchor="middle" x="78.6905" y="-175.5" font-family="Helvetica,sans-Serif" font-size="10.00" fill="#000000">memory</text>
</g>
<!-- Node1&#45;&gt;Node23 -->
<g id="edge35" class="edge">
<title>Node1&#45;&gt;Node23</title>
<path fill="none" stroke="#191970" d="M244.2261,-224.461C212.8549,-215.7628 165.0035,-202.457 114.7924,-188.3001"/>
<polygon fill="#191970" stroke="#191970" points="115.6333,-184.9008 105.0586,-185.5533 113.7322,-191.6377 115.6333,-184.9008"/>
</g>
<!-- Node2&#45;&gt;Node3 -->
<g id="edge3" class="edge">
<title>Node2&#45;&gt;Node3</title>
<path fill="none" stroke="#191970" d="M169.8384,-168.2455C179.1991,-160.0549 192.7763,-148.1749 203.8254,-138.5069"/>
<polygon fill="#191970" stroke="#191970" points="206.4493,-140.8618 211.6703,-131.6427 201.8397,-135.5937 206.4493,-140.8618"/>
</g>
<!-- Node5 -->
<g id="node6" class="node">
<title>Node5</title>
<polygon fill="#ffffff" stroke="#bfbfbf" points="76.1905,-56.5 76.1905,-75.5 125.1905,-75.5 125.1905,-56.5 76.1905,-56.5"/>
<text text-anchor="middle" x="100.6905" y="-63.5" font-family="Helvetica,sans-Serif" font-size="10.00" fill="#000000">cassert</text>
</g>
<!-- Node2&#45;&gt;Node5 -->
<g id="edge6" class="edge">
<title>Node2&#45;&gt;Node5</title>
<path fill="none" stroke="#191970" d="M153.7454,-168.4509C144.1573,-149.936 122.8853,-108.8591 110.3841,-84.7187"/>
<polygon fill="#191970" stroke="#191970" points="113.3296,-82.7953 105.623,-75.5249 107.1136,-86.0144 113.3296,-82.7953"/>
</g>
<!-- Node2&#45;&gt;Node6 -->
<g id="edge7" class="edge">
<title>Node2&#45;&gt;Node6</title>
<path fill="none" stroke="#191970" d="M141.7042,-168.4791C107.5337,-148.1005 36.2461,-98.6394 66.6905,-56 77.7477,-40.5137 124.3891,-26.9434 159.5614,-18.6303"/>
<polygon fill="#191970" stroke="#191970" points="160.6339,-21.9751 169.5966,-16.3253 159.0669,-15.1528 160.6339,-21.9751"/>
</g>
<!-- Node7 -->
<g id="node8" class="node">
<title>Node7</title>
<polygon fill="#ffffff" stroke="#bfbfbf" points="281.6905,-56.5 281.6905,-75.5 325.6905,-75.5 325.6905,-56.5 281.6905,-56.5"/>
<text text-anchor="middle" x="303.6905" y="-63.5" font-family="Helvetica,sans-Serif" font-size="10.00" fill="#000000">vector</text>
</g>
<!-- Node2&#45;&gt;Node7 -->
<g id="edge8" class="edge">
<title>Node2&#45;&gt;Node7</title>
<path fill="none" stroke="#191970" d="M160.2157,-168.1346C162.9088,-153.9072 169.8029,-127.6258 185.6905,-112 192.1545,-105.6425 239.2716,-88.3822 271.9741,-76.9073"/>
<polygon fill="#191970" stroke="#191970" points="273.3098,-80.1483 281.5994,-73.5503 271.0045,-73.5387 273.3098,-80.1483"/>
</g>
<!-- Node4 -->
<g id="node5" class="node">
<title>Node4</title>
<polygon fill="#ffffff" stroke="#bfbfbf" points="143.6905,-56.5 143.6905,-75.5 263.6905,-75.5 263.6905,-56.5 143.6905,-56.5"/>
<text text-anchor="middle" x="203.6905" y="-63.5" font-family="Helvetica,sans-Serif" font-size="10.00" fill="#000000">boost/coroutine2/all.hpp</text>
</g>
<!-- Node3&#45;&gt;Node4 -->
<g id="edge4" class="edge">
<title>Node3&#45;&gt;Node4</title>
<path fill="none" stroke="#191970" d="M219.3809,-112.2455C216.8472,-104.7776 213.2728,-94.2427 210.1755,-85.1137"/>
<polygon fill="#191970" stroke="#191970" points="213.4895,-83.9879 206.9621,-75.6427 206.8607,-86.237 213.4895,-83.9879"/>
</g>
<!-- Node3&#45;&gt;Node5 -->
<g id="edge5" class="edge">
<title>Node3&#45;&gt;Node5</title>
<path fill="none" stroke="#191970" d="M201.7179,-112.3733C182.1337,-103.3838 152.6944,-89.8706 130.6395,-79.7471"/>
<polygon fill="#191970" stroke="#191970" points="131.9378,-76.4919 121.3893,-75.5011 129.0175,-82.8538 131.9378,-76.4919"/>
</g>
<!-- Node8&#45;&gt;Node7 -->
<g id="edge22" class="edge">
<title>Node8&#45;&gt;Node7</title>
<path fill="none" stroke="#191970" d="M519.9027,-168.4969C494.6823,-159.8746 457.2345,-146.3481 425.6905,-132 407.0977,-123.5429 359.574,-97.3125 329.6265,-80.5776"/>
<polygon fill="#191970" stroke="#191970" points="331.0151,-77.3439 320.5798,-75.5125 327.5954,-83.4518 331.0151,-77.3439"/>
</g>
<!-- Node9 -->
<g id="node10" class="node">
<title>Node9</title>
<polygon fill="#ffffff" stroke="#bfbfbf" points="592.6905,-112.5 592.6905,-131.5 648.6905,-131.5 648.6905,-112.5 592.6905,-112.5"/>
<text text-anchor="middle" x="620.6905" y="-119.5" font-family="Helvetica,sans-Serif" font-size="10.00" fill="#000000">algorithm</text>
</g>
<!-- Node8&#45;&gt;Node9 -->
<g id="edge11" class="edge">
<title>Node8&#45;&gt;Node9</title>
<path fill="none" stroke="#191970" d="M561.2319,-168.2455C571.9692,-159.8943 587.6378,-147.7076 600.1951,-137.9408"/>
<polygon fill="#191970" stroke="#191970" points="602.548,-140.5449 608.2927,-131.6427 598.2504,-135.0194 602.548,-140.5449"/>
</g>
<!-- Node8&#45;&gt;Node10 -->
<g id="edge12" class="edge">
<title>Node8&#45;&gt;Node10</title>
<path fill="none" stroke="#191970" d="M579.8856,-170.0953C620.3112,-159.8518 690.6668,-142.0241 733.4277,-131.1888"/>
<polygon fill="#191970" stroke="#191970" points="734.3164,-134.5743 743.1503,-128.7251 732.5969,-127.7887 734.3164,-134.5743"/>
</g>
<!-- Node8&#45;&gt;Node11 -->
<g id="edge13" class="edge">
<title>Node8&#45;&gt;Node11</title>
<path fill="none" stroke="#191970" d="M517.521,-169.0026C482.08,-158.7722 424.4392,-142.1337 388.0953,-131.6426"/>
<polygon fill="#191970" stroke="#191970" points="389.0237,-128.2678 378.4453,-128.8571 387.0823,-134.9932 389.0237,-128.2678"/>
</g>
<!-- Node12 -->
<g id="node13" class="node">
<title>Node12</title>
<g id="a_node13"><a xlink:href="py2cpp_8hpp.html" target="_top" xlink:title="py2cpp/py2cpp.hpp">
<polygon fill="#ffffff" stroke="#000000" points="792.1905,-56.5 792.1905,-75.5 893.1905,-75.5 893.1905,-56.5 792.1905,-56.5"/>
<text text-anchor="middle" x="842.6905" y="-63.5" font-family="Helvetica,sans-Serif" font-size="10.00" fill="#000000">py2cpp/py2cpp.hpp</text>
</a>
</g>
</g>
<!-- Node8&#45;&gt;Node12 -->
<g id="edge14" class="edge">
<title>Node8&#45;&gt;Node12</title>
<path fill="none" stroke="#191970" d="M572.1842,-168.3719C594.3305,-159.2283 628.3987,-144.9878 657.6905,-132 676.9585,-123.4566 681.0727,-119.7065 700.6905,-112 733.3779,-99.1592 771.2517,-87.0226 799.6604,-78.443"/>
<polygon fill="#191970" stroke="#191970" points="800.7133,-81.7814 809.2902,-75.5614 798.7065,-75.0752 800.7133,-81.7814"/>
</g>
<!-- Node17 -->
<g id="node18" class="node">
<title>Node17</title>
<polygon fill="#ffffff" stroke="#bfbfbf" points="901.6905,-.5 901.6905,-19.5 941.6905,-19.5 941.6905,-.5 901.6905,-.5"/>
<text text-anchor="middle" x="921.6905" y="-7.5" font-family="Helvetica,sans-Serif" font-size="10.00" fill="#000000">utility</text>
</g>
<!-- Node8&#45;&gt;Node17 -->
<g id="edge21" class="edge">
<title>Node8&#45;&gt;Node17</title>
<path fill="none" stroke="#191970" d="M579.7328,-169.4038C609.1868,-160.9392 654.4992,-147.1129 692.6905,-132 711.915,-124.3925 715.116,-118.6557 734.6905,-112 806.9872,-87.4177 846.8589,-128.0955 902.6905,-76 915.3342,-64.2023 919.75,-44.5891 921.2025,-29.8023"/>
<polygon fill="#191970" stroke="#191970" points="924.7067,-29.8397 921.8229,-19.6449 917.7197,-29.4129 924.7067,-29.8397"/>
</g>
<!-- Node18 -->
<g id="node19" class="node">
<title>Node18</title>
<g id="a_node19"><a xlink:href="graph_8hpp.html" target="_top" xlink:title="xnetwork/classes/graph.hpp">
<polygon fill="#ffffff" stroke="#000000" points="435.1905,-112.5 435.1905,-131.5 574.1905,-131.5 574.1905,-112.5 435.1905,-112.5"/>
<text text-anchor="middle" x="504.6905" y="-119.5" font-family="Helvetica,sans-Serif" font-size="10.00" fill="#000000">xnetwork/classes/graph.hpp</text>
</a>
</g>
</g>
<!-- Node8&#45;&gt;Node18 -->
<g id="edge23" class="edge">
<title>Node8&#45;&gt;Node18</title>
<path fill="none" stroke="#191970" d="M541.0263,-168.2455C534.8431,-160.3761 525.9841,-149.101 518.5616,-139.6542"/>
<polygon fill="#191970" stroke="#191970" points="521.1972,-137.3435 512.2669,-131.6427 515.693,-141.6683 521.1972,-137.3435"/>
</g>
<!-- Node12&#45;&gt;Node6 -->
<g id="edge17" class="edge">
<title>Node12&#45;&gt;Node6</title>
<path fill="none" stroke="#191970" d="M791.884,-57.0931C789.1159,-56.7002 786.3711,-56.3323 783.6905,-56 581.1992,-30.9019 337.3475,-16.8609 241.8613,-11.9839"/>
<polygon fill="#191970" stroke="#191970" points="241.9219,-8.4826 231.7582,-11.4739 241.569,-15.4737 241.9219,-8.4826"/>
</g>
<!-- Node13 -->
<g id="node14" class="node">
<title>Node13</title>
<polygon fill="#ffffff" stroke="#bfbfbf" points="492.1905,-.5 492.1905,-19.5 565.1905,-19.5 565.1905,-.5 492.1905,-.5"/>
<text text-anchor="middle" x="528.6905" y="-7.5" font-family="Helvetica,sans-Serif" font-size="10.00" fill="#000000">initializer_list</text>
</g>
<!-- Node12&#45;&gt;Node13 -->
<g id="edge15" class="edge">
<title>Node12&#45;&gt;Node13</title>
<path fill="none" stroke="#191970" d="M791.892,-56.9404C731.9629,-46.2524 633.1687,-28.6331 575.1802,-18.2912"/>
<polygon fill="#191970" stroke="#191970" points="575.6528,-14.8203 565.1936,-16.5101 574.4237,-21.7116 575.6528,-14.8203"/>
</g>
<!-- Node14 -->
<g id="node15" class="node">
<title>Node14</title>
<polygon fill="#ffffff" stroke="#bfbfbf" points="845.6905,-.5 845.6905,-19.5 883.6905,-19.5 883.6905,-.5 845.6905,-.5"/>
<text text-anchor="middle" x="864.6905" y="-7.5" font-family="Helvetica,sans-Serif" font-size="10.00" fill="#000000">tuple</text>
</g>
<!-- Node12&#45;&gt;Node14 -->
<g id="edge16" class="edge">
<title>Node12&#45;&gt;Node14</title>
<path fill="none" stroke="#191970" d="M846.5226,-56.2455C849.4564,-48.7776 853.5951,-38.2427 857.1815,-29.1137"/>
<polygon fill="#191970" stroke="#191970" points="860.5033,-30.23 860.9023,-19.6427 853.9881,-27.6704 860.5033,-30.23"/>
</g>
<!-- Node15 -->
<g id="node16" class="node">
<title>Node15</title>
<polygon fill="#ffffff" stroke="#bfbfbf" points="648.1905,-.5 648.1905,-19.5 731.1905,-19.5 731.1905,-.5 648.1905,-.5"/>
<text text-anchor="middle" x="689.6905" y="-7.5" font-family="Helvetica,sans-Serif" font-size="10.00" fill="#000000">unordered_map</text>
</g>
<!-- Node12&#45;&gt;Node15 -->
<g id="edge18" class="edge">
<title>Node12&#45;&gt;Node15</title>
<path fill="none" stroke="#191970" d="M816.3888,-56.3733C791.2777,-47.1822 753.2467,-33.2624 725.4033,-23.0713"/>
<polygon fill="#191970" stroke="#191970" points="726.2427,-19.6516 715.6489,-19.5011 723.8366,-26.2251 726.2427,-19.6516"/>
</g>
<!-- Node16 -->
<g id="node17" class="node">
<title>Node16</title>
<polygon fill="#ffffff" stroke="#bfbfbf" points="749.6905,-.5 749.6905,-19.5 827.6905,-19.5 827.6905,-.5 749.6905,-.5"/>
<text text-anchor="middle" x="788.6905" y="-7.5" font-family="Helvetica,sans-Serif" font-size="10.00" fill="#000000">unordered_set</text>
</g>
<!-- Node12&#45;&gt;Node16 -->
<g id="edge19" class="edge">
<title>Node12&#45;&gt;Node16</title>
<path fill="none" stroke="#191970" d="M833.2844,-56.2455C825.5412,-48.2155 814.3784,-36.6394 805.1587,-27.0781"/>
<polygon fill="#191970" stroke="#191970" points="807.4496,-24.4117 797.9888,-19.6427 802.4107,-29.2706 807.4496,-24.4117"/>
</g>
<!-- Node12&#45;&gt;Node17 -->
<g id="edge20" class="edge">
<title>Node12&#45;&gt;Node17</title>
<path fill="none" stroke="#191970" d="M856.4512,-56.2455C868.3457,-47.814 885.7555,-35.4729 899.599,-25.6598"/>
<polygon fill="#191970" stroke="#191970" points="901.9533,-28.2811 908.0874,-19.6427 897.9051,-22.5704 901.9533,-28.2811"/>
</g>
<!-- Node18&#45;&gt;Node5 -->
<g id="edge25" class="edge">
<title>Node18&#45;&gt;Node5</title>
<path fill="none" stroke="#191970" d="M434.8272,-114.6846C348.4286,-105.4117 205.2343,-89.2496 135.5826,-75.8322"/>
<polygon fill="#191970" stroke="#191970" points="135.9497,-72.3358 125.455,-73.7888 134.5652,-79.1975 135.9497,-72.3358"/>
</g>
<!-- Node18&#45;&gt;Node6 -->
<g id="edge27" class="edge">
<title>Node18&#45;&gt;Node6</title>
<path fill="none" stroke="#191970" d="M472.981,-112.418C445.9215,-103.8952 406.1887,-90.5554 372.6905,-76 355.1862,-68.3942 352.2123,-63.5652 334.6905,-56 304.1546,-42.816 268.4897,-30.7253 241.6344,-22.2515"/>
<polygon fill="#191970" stroke="#191970" points="242.3908,-18.8212 231.8023,-19.1862 240.3073,-25.504 242.3908,-18.8212"/>
</g>
<!-- Node18&#45;&gt;Node7 -->
<g id="edge28" class="edge">
<title>Node18&#45;&gt;Node7</title>
<path fill="none" stroke="#191970" d="M470.1373,-112.3733C432.2787,-101.8256 372.0664,-85.05 335.3819,-74.8294"/>
<polygon fill="#191970" stroke="#191970" points="336.2695,-71.4435 325.697,-72.1312 334.3907,-78.1867 336.2695,-71.4435"/>
</g>
<!-- Node18&#45;&gt;Node12 -->
<g id="edge26" class="edge">
<title>Node18&#45;&gt;Node12</title>
<path fill="none" stroke="#191970" d="M562.9488,-112.4728C617.1952,-103.584 700.6007,-89.8722 782.2199,-76.241"/>
<polygon fill="#191970" stroke="#191970" points="782.8762,-79.6799 792.1625,-74.5794 781.7223,-72.7757 782.8762,-79.6799"/>
</g>
<!-- Node19 -->
<g id="node20" class="node">
<title>Node19</title>
<polygon fill="#ffffff" stroke="#bfbfbf" points="565.6905,-56.5 565.6905,-75.5 597.6905,-75.5 597.6905,-56.5 565.6905,-56.5"/>
<text text-anchor="middle" x="581.6905" y="-63.5" font-family="Helvetica,sans-Serif" font-size="10.00" fill="#000000">any</text>
</g>
<!-- Node18&#45;&gt;Node19 -->
<g id="edge24" class="edge">
<title>Node18&#45;&gt;Node19</title>
<path fill="none" stroke="#191970" d="M518.1028,-112.2455C529.6962,-103.814 546.6652,-91.4729 560.1583,-81.6598"/>
<polygon fill="#191970" stroke="#191970" points="562.403,-84.355 568.4318,-75.6427 558.2858,-78.6938 562.403,-84.355"/>
</g>
<!-- Node20 -->
<g id="node21" class="node">
<title>Node20</title>
<g id="a_node21"><a xlink:href="coreviews_8hpp.html" target="_top" xlink:title="xnetwork/classes/coreviews.hpp">
<polygon fill="#ffffff" stroke="#000000" points="615.1905,-56.5 615.1905,-75.5 774.1905,-75.5 774.1905,-56.5 615.1905,-56.5"/>
<text text-anchor="middle" x="694.6905" y="-63.5" font-family="Helvetica,sans-Serif" font-size="10.00" fill="#000000">xnetwork/classes/coreviews.hpp</text>
</a>
</g>
</g>
<!-- Node18&#45;&gt;Node20 -->
<g id="edge29" class="edge">
<title>Node18&#45;&gt;Node20</title>
<path fill="none" stroke="#191970" d="M537.3526,-112.3733C569.2203,-102.9807 617.8436,-88.6496 652.5975,-78.4064"/>
<polygon fill="#191970" stroke="#191970" points="653.852,-81.6855 662.4545,-75.5011 651.8729,-74.9711 653.852,-81.6855"/>
</g>
<!-- Node21 -->
<g id="node22" class="node">
<title>Node21</title>
<g id="a_node22"><a xlink:href="reportviews_8hpp.html" target="_top" xlink:title="xnetwork/classes/reportviews.hpp">
<polygon fill="#ffffff" stroke="#000000" points="382.1905,-56.5 382.1905,-75.5 547.1905,-75.5 547.1905,-56.5 382.1905,-56.5"/>
<text text-anchor="middle" x="464.6905" y="-63.5" font-family="Helvetica,sans-Serif" font-size="10.00" fill="#000000">xnetwork/classes/reportviews.hpp</text>
</a>
</g>
</g>
<!-- Node18&#45;&gt;Node21 -->
<g id="edge30" class="edge">
<title>Node18&#45;&gt;Node21</title>
<path fill="none" stroke="#191970" d="M497.723,-112.2455C492.1593,-104.4564 484.2124,-93.3308 477.5076,-83.9439"/>
<polygon fill="#191970" stroke="#191970" points="480.2386,-81.7457 471.5781,-75.6427 474.5424,-85.8144 480.2386,-81.7457"/>
</g>
<!-- Node21&#45;&gt;Node13 -->
<g id="edge31" class="edge">
<title>Node21&#45;&gt;Node13</title>
<path fill="none" stroke="#191970" d="M475.8384,-56.2455C485.1991,-48.0549 498.7763,-36.1749 509.8254,-26.5069"/>
<polygon fill="#191970" stroke="#191970" points="512.4493,-28.8618 517.6703,-19.6427 507.8397,-23.5937 512.4493,-28.8618"/>
</g>
<!-- Node24&#45;&gt;Node1 -->
<g id="edge42" class="edge">
<title>Node24&#45;&gt;Node1</title>
<path fill="none" stroke="#191970" d="M506.7287,-280.4369C459.2691,-270.7724 385.9039,-255.8326 335.2682,-245.5213"/>
<polygon fill="#191970" stroke="#191970" points="335.9558,-242.0895 325.4585,-243.5237 334.559,-248.9488 335.9558,-242.0895"/>
</g>
<!-- Node24&#45;&gt;Node10 -->
<g id="edge43" class="edge">
<title>Node24&#45;&gt;Node10</title>
<path fill="none" stroke="#191970" d="M624.229,-281.1639C671.808,-273.7467 728.8673,-261.5259 745.6905,-244 772.1121,-216.4748 773.4898,-168.8014 771.8107,-141.9228"/>
<polygon fill="#191970" stroke="#191970" points="775.2853,-141.4712 770.9681,-131.7959 768.3094,-142.0517 775.2853,-141.4712"/>
</g>
<!-- Node25 -->
<g id="node26" class="node">
<title>Node25</title>
<g id="a_node26"><a xlink:href="FMBiGainCalc_8hpp.html" target="_top" xlink:title="FMBiGainCalc.hpp">
<polygon fill="#ffffff" stroke="#000000" points="502.1905,-224.5 502.1905,-243.5 601.1905,-243.5 601.1905,-224.5 502.1905,-224.5"/>
<text text-anchor="middle" x="551.6905" y="-231.5" font-family="Helvetica,sans-Serif" font-size="10.00" fill="#000000">FMBiGainCalc.hpp</text>
</a>
</g>
</g>
<!-- Node24&#45;&gt;Node25 -->
<g id="edge38" class="edge">
<title>Node24&#45;&gt;Node25</title>
<path fill="none" stroke="#191970" d="M553.3421,-280.2455C553.0811,-272.9382 552.7153,-262.6944 552.3942,-253.7046"/>
<polygon fill="#191970" stroke="#191970" points="555.8896,-253.5113 552.0348,-243.6427 548.8941,-253.7613 555.8896,-253.5113"/>
</g>
<!-- Node25&#45;&gt;Node3 -->
<g id="edge39" class="edge">
<title>Node25&#45;&gt;Node3</title>
<path fill="none" stroke="#191970" d="M536.6551,-224.2747C513.929,-209.9812 469.0802,-183.3399 427.6905,-168 371.4097,-147.1411 302.7804,-134.0917 260.9318,-127.4306"/>
<polygon fill="#191970" stroke="#191970" points="261.3114,-123.9477 250.8932,-125.8738 260.2387,-130.865 261.3114,-123.9477"/>
</g>
<!-- Node25&#45;&gt;Node8 -->
<g id="edge40" class="edge">
<title>Node25&#45;&gt;Node8</title>
<path fill="none" stroke="#191970" d="M551.1679,-224.2455C550.7764,-216.9382 550.2277,-206.6944 549.7461,-197.7046"/>
<polygon fill="#191970" stroke="#191970" points="553.2371,-197.4411 549.207,-187.6427 546.2471,-197.8156 553.2371,-197.4411"/>
</g>
<!-- Node25&#45;&gt;Node10 -->
<g id="edge41" class="edge">
<title>Node25&#45;&gt;Node10</title>
<path fill="none" stroke="#191970" d="M580.5073,-224.3604C604.4087,-215.9459 638.9975,-202.7893 667.6905,-188 696.9238,-172.9322 728.3864,-151.7345 748.5175,-137.4642"/>
<polygon fill="#191970" stroke="#191970" points="750.5754,-140.2954 756.6663,-131.6263 746.4987,-134.605 750.5754,-140.2954"/>
</g>
<!-- Node26&#45;&gt;Node1 -->
<g id="edge45" class="edge">
<title>Node26&#45;&gt;Node1</title>
<path fill="none" stroke="#191970" d="M367.0525,-280.2455C350.2518,-271.4527 325.327,-258.4079 306.2287,-248.4125"/>
<polygon fill="#191970" stroke="#191970" points="307.5978,-245.1787 297.1149,-243.6427 304.3518,-251.3807 307.5978,-245.1787"/>
</g>
<!-- Node26&#45;&gt;Node10 -->
<g id="edge53" class="edge">
<title>Node26&#45;&gt;Node10</title>
<path fill="none" stroke="#191970" d="M465.1921,-280.7678C508.9405,-273.9495 563.5513,-262.5401 609.6905,-244 653.0548,-226.5749 661.6356,-216.4787 698.6905,-188 718.5457,-172.7402 739.3062,-152.9222 753.2117,-139.0003"/>
<polygon fill="#191970" stroke="#191970" points="756.0169,-141.1404 760.5483,-131.5635 751.0337,-136.2243 756.0169,-141.1404"/>
</g>
<!-- Node27 -->
<g id="node28" class="node">
<title>Node27</title>
<g id="a_node28"><a xlink:href="FMKWayGainCalc_8hpp.html" target="_top" xlink:title="FMKWayGainCalc.hpp">
<polygon fill="#ffffff" stroke="#000000" points="363.1905,-224.5 363.1905,-243.5 480.1905,-243.5 480.1905,-224.5 363.1905,-224.5"/>
<text text-anchor="middle" x="421.6905" y="-231.5" font-family="Helvetica,sans-Serif" font-size="10.00" fill="#000000">FMKWayGainCalc.hpp</text>
</a>
</g>
</g>
<!-- Node26&#45;&gt;Node27 -->
<g id="edge46" class="edge">
<title>Node26&#45;&gt;Node27</title>
<path fill="none" stroke="#191970" d="M391.9612,-280.2455C396.9169,-272.5367 403.9734,-261.5598 409.9681,-252.2348"/>
<polygon fill="#191970" stroke="#191970" points="413.0281,-253.9471 415.4916,-243.6427 407.1399,-250.1618 413.0281,-253.9471"/>
</g>
<!-- Node27&#45;&gt;Node3 -->
<g id="edge47" class="edge">
<title>Node27&#45;&gt;Node3</title>
<path fill="none" stroke="#191970" d="M407.2147,-224.3571C387.053,-211.0729 349.2136,-186.6688 315.6905,-168 295.0526,-156.5069 271.154,-144.7177 252.7513,-135.9517"/>
<polygon fill="#191970" stroke="#191970" points="254.2117,-132.7707 243.6751,-131.6608 251.2198,-139.0991 254.2117,-132.7707"/>
</g>
<!-- Node27&#45;&gt;Node8 -->
<g id="edge48" class="edge">
<title>Node27&#45;&gt;Node8</title>
<path fill="none" stroke="#191970" d="M443.5225,-224.3733C464.0008,-215.3435 494.8303,-201.7494 517.8224,-191.6111"/>
<polygon fill="#191970" stroke="#191970" points="519.4054,-194.7383 527.1433,-187.5011 516.5812,-188.3333 519.4054,-194.7383"/>
</g>
<!-- Node27&#45;&gt;Node10 -->
<g id="edge52" class="edge">
<title>Node27&#45;&gt;Node10</title>
<path fill="none" stroke="#191970" d="M480.5824,-224.553C522.1157,-216.9851 578.6744,-204.8387 626.6905,-188 645.8228,-181.2905 649.3362,-176.613 667.6905,-168 691.4176,-156.8658 718.467,-144.6905 738.7461,-135.6642"/>
<polygon fill="#191970" stroke="#191970" points="740.3943,-138.7619 748.1132,-131.5045 737.5533,-132.3644 740.3943,-138.7619"/>
</g>
<!-- Node28 -->
<g id="node29" class="node">
<title>Node28</title>
<g id="a_node29"><a xlink:href="robin_8hpp.html" target="_top" xlink:title="robin.hpp">
<polygon fill="#ffffff" stroke="#000000" points="362.6905,-168.5 362.6905,-187.5 418.6905,-187.5 418.6905,-168.5 362.6905,-168.5"/>
<text text-anchor="middle" x="390.6905" y="-175.5" font-family="Helvetica,sans-Serif" font-size="10.00" fill="#000000">robin.hpp</text>
</a>
</g>
</g>
<!-- Node27&#45;&gt;Node28 -->
<g id="edge49" class="edge">
<title>Node27&#45;&gt;Node28</title>
<path fill="none" stroke="#191970" d="M416.2907,-224.2455C412.0677,-216.617 406.0732,-205.7881 400.9463,-196.5267"/>
<polygon fill="#191970" stroke="#191970" points="403.9337,-194.6965 396.0284,-187.6427 397.8095,-198.0867 403.9337,-194.6965"/>
</g>
<!-- Node28&#45;&gt;Node3 -->
<g id="edge50" class="edge">
<title>Node28&#45;&gt;Node3</title>
<path fill="none" stroke="#191970" d="M362.571,-168.6269C334.5877,-159.2991 291.462,-144.9238 260.4943,-134.6013"/>
<polygon fill="#191970" stroke="#191970" points="261.4953,-131.2457 250.9016,-131.4037 259.2816,-137.8865 261.4953,-131.2457"/>
</g>
<!-- Node28&#45;&gt;Node7 -->
<g id="edge51" class="edge">
<title>Node28&#45;&gt;Node7</title>
<path fill="none" stroke="#191970" d="M368.614,-168.4616C353.2864,-160.7502 333.5601,-148.4682 321.6905,-132 311.9367,-118.4674 307.4674,-99.9172 305.42,-85.9287"/>
<polygon fill="#191970" stroke="#191970" points="308.8817,-85.3963 304.2426,-75.8711 301.9292,-86.2103 308.8817,-85.3963"/>
</g>
</g>
</svg>
