<?xml version="1.0" encoding="UTF-8" standalone="no"?>
<!DOCTYPE svg PUBLIC "-//W3C//DTD SVG 1.1//EN"
 "http://www.w3.org/Graphics/SVG/1.1/DTD/svg11.dtd">
<!-- Generated by graphviz version 2.40.1 (20161225.0304)
 -->
<!-- Title: lib/include/ckpttncpp/FMGainMgr.hpp Pages: 1 -->
<!--zoomable 263 -->
<svg id="main" version="1.1" xmlns="http://www.w3.org/2000/svg" xmlns:xlink="http://www.w3.org/1999/xlink" xml:space="preserve" onload="init(evt)">
<style type="text/css"><![CDATA[
.edge:hover path { stroke: red; }
.edge:hover polygon { stroke: red; fill: red; }
]]></style>
<script type="text/javascript"><![CDATA[
var edges = document.getElementsByTagName('g');
if (edges && edges.length) {
  for (var i=0;i<edges.length;i++) {
    if (edges[i].id.substr(0,4)=='edge') {
      edges[i].setAttribute('class','edge');
    }
  }
}
]]></script>
        <defs>
                <circle id="rim" cx="0" cy="0" r="7"/>
                <circle id="rim2" cx="0" cy="0" r="3.5"/>
                <g id="zoomPlus">
                        <use xlink:href="#rim" fill="#404040">
                                <set attributeName="fill" to="#808080" begin="zoomplus.mouseover" end="zoomplus.mouseout"/>
                        </use>
                        <path d="M-4,0h8M0,-4v8" fill="none" stroke="white" stroke-width="1.5" pointer-events="none"/>
                </g>
                <g id="zoomMin">
                        <use xlink:href="#rim" fill="#404040">
                                <set attributeName="fill" to="#808080" begin="zoomminus.mouseover" end="zoomminus.mouseout"/>
                        </use>
                        <path d="M-4,0h8" fill="none" stroke="white" stroke-width="1.5" pointer-events="none"/>
                </g>
                <g id="dirArrow">
                        <path fill="none" stroke="white" stroke-width="1.5" d="M0,-3.0v7 M-2.5,-0.5L0,-3.0L2.5,-0.5"/>
                </g>
               <g id="resetDef">
                       <use xlink:href="#rim2" fill="#404040">
                               <set attributeName="fill" to="#808080" begin="reset.mouseover" end="reset.mouseout"/>
                       </use>
               </g>
        </defs>

<script type="text/javascript">
var viewWidth = 997;
var viewHeight = 263;
var sectionId = 'dynsection-0';
</script>
<script xlink:href="svgpan.js"/>
<svg id="graph" class="graph">
<g id="viewport">
<title>lib/include/ckpttncpp/FMGainMgr.hpp</title>
<polygon fill="#ffffff" stroke="transparent" points="-4,4 -4,-259 993,-259 993,4 -4,4"/>
<!-- Node0 -->
<g id="node1" class="node">
<title>Node0</title>
<polygon fill="#bfbfbf" stroke="#000000" points="631,-224.5 631,-254.5 737,-254.5 737,-224.5 631,-224.5"/>
<text text-anchor="start" x="639" y="-242.5" font-family="Helvetica,sans-Serif" font-size="10.00" fill="#000000">lib/include/ckpttncpp</text>
<text text-anchor="middle" x="684" y="-231.5" font-family="Helvetica,sans-Serif" font-size="10.00" fill="#000000">/FMGainMgr.hpp</text>
</g>
<!-- Node1 -->
<g id="node2" class="node">
<title>Node1</title>
<g id="a_node2"><a xlink:href="bpqueue_8hpp.html" target="_top" xlink:title="bpqueue.hpp">
<polygon fill="#ffffff" stroke="#000000" points="180,-168.5 180,-187.5 252,-187.5 252,-168.5 180,-168.5"/>
<text text-anchor="middle" x="216" y="-175.5" font-family="Helvetica,sans-Serif" font-size="10.00" fill="#000000">bpqueue.hpp</text>
</a>
</g>
</g>
<!-- Node0&#45;&gt;Node1 -->
<g id="edge1" class="edge">
<title>Node0&#45;&gt;Node1</title>
<path fill="none" stroke="#191970" d="M630.7202,-233.3226C553.0511,-224.1856 404.2338,-206.1811 278,-188 272.8706,-187.2612 267.5086,-186.4521 262.1772,-185.6241"/>
<polygon fill="#191970" stroke="#191970" points="262.4552,-182.1247 252.0317,-184.0223 261.3635,-189.0391 262.4552,-182.1247"/>
</g>
<!-- Node2 -->
<g id="node3" class="node">
<title>Node2</title>
<g id="a_node3"><a xlink:href="dllist_8hpp.html" target="_top" xlink:title="dllist.hpp">
<polygon fill="#ffffff" stroke="#000000" points="94,-112.5 94,-131.5 150,-131.5 150,-112.5 94,-112.5"/>
<text text-anchor="middle" x="122" y="-119.5" font-family="Helvetica,sans-Serif" font-size="10.00" fill="#000000">dllist.hpp</text>
</a>
</g>
</g>
<!-- Node0&#45;&gt;Node2 -->
<g id="edge8" class="edge">
<title>Node0&#45;&gt;Node2</title>
<path fill="none" stroke="#191970" d="M630.8577,-236.5963C507.7246,-229.5233 210.3635,-210.3351 171,-188 152.2654,-177.3699 138.5889,-156.3314 130.5186,-140.8533"/>
<polygon fill="#191970" stroke="#191970" points="133.5589,-139.1027 126.028,-131.6503 127.2678,-142.1724 133.5589,-139.1027"/>
</g>
<!-- Node5 -->
<g id="node6" class="node">
<title>Node5</title>
<polygon fill="#ffffff" stroke="#bfbfbf" points="273,-.5 273,-19.5 335,-19.5 335,-.5 273,-.5"/>
<text text-anchor="middle" x="304" y="-7.5" font-family="Helvetica,sans-Serif" font-size="10.00" fill="#000000">type_traits</text>
</g>
<!-- Node0&#45;&gt;Node5 -->
<g id="edge35" class="edge">
<title>Node0&#45;&gt;Node5</title>
<path fill="none" stroke="#191970" d="M630.891,-226.4667C529.2445,-200.3071 313.6424,-138.539 273,-76 262.851,-60.383 274.6063,-40.9174 286.4409,-27.1849"/>
<polygon fill="#191970" stroke="#191970" points="289.0228,-29.5481 293.2532,-19.8344 283.8886,-24.7899 289.0228,-29.5481"/>
</g>
<!-- Node7 -->
<g id="node8" class="node">
<title>Node7</title>
<g id="a_node8"><a xlink:href="netlist_8hpp.html" target="_top" xlink:title="netlist.hpp">
<polygon fill="#ffffff" stroke="#000000" points="624,-168.5 624,-187.5 686,-187.5 686,-168.5 624,-168.5"/>
<text text-anchor="middle" x="655" y="-175.5" font-family="Helvetica,sans-Serif" font-size="10.00" fill="#000000">netlist.hpp</text>
</a>
</g>
</g>
<!-- Node0&#45;&gt;Node7 -->
<g id="edge9" class="edge">
<title>Node0&#45;&gt;Node7</title>
<path fill="none" stroke="#191970" d="M676.8315,-224.2977C672.9318,-216.0277 668.072,-205.7215 663.9282,-196.9339"/>
<polygon fill="#191970" stroke="#191970" points="667.0741,-195.399 659.6433,-187.8469 660.7427,-198.3846 667.0741,-195.399"/>
</g>
<!-- Node9 -->
<g id="node10" class="node">
<title>Node9</title>
<polygon fill="#ffffff" stroke="#bfbfbf" points="770.5,-112.5 770.5,-131.5 823.5,-131.5 823.5,-112.5 770.5,-112.5"/>
<text text-anchor="middle" x="797" y="-119.5" font-family="Helvetica,sans-Serif" font-size="10.00" fill="#000000">gsl/span</text>
</g>
<!-- Node0&#45;&gt;Node9 -->
<g id="edge32" class="edge">
<title>Node0&#45;&gt;Node9</title>
<path fill="none" stroke="#191970" d="M693.7185,-224.3584C703.8087,-209.2301 720.5365,-185.7339 738,-168 749.0385,-156.7905 762.8395,-145.8906 774.3177,-137.5168"/>
<polygon fill="#191970" stroke="#191970" points="776.4471,-140.2971 782.5581,-131.6423 772.3837,-134.5972 776.4471,-140.2971"/>
</g>
<!-- Node10 -->
<g id="node11" class="node">
<title>Node10</title>
<polygon fill="#ffffff" stroke="#bfbfbf" points="841.5,-112.5 841.5,-131.5 888.5,-131.5 888.5,-112.5 841.5,-112.5"/>
<text text-anchor="middle" x="865" y="-119.5" font-family="Helvetica,sans-Serif" font-size="10.00" fill="#000000">iterator</text>
</g>
<!-- Node0&#45;&gt;Node10 -->
<g id="edge33" class="edge">
<title>Node0&#45;&gt;Node10</title>
<path fill="none" stroke="#191970" d="M700.1131,-224.3027C716.9406,-208.9161 744.5257,-185.0256 771,-168 790.5197,-155.4469 813.9627,-143.9686 832.5543,-135.6177"/>
<polygon fill="#191970" stroke="#191970" points="834.0496,-138.7835 841.7877,-131.5467 831.2256,-132.3784 834.0496,-138.7835"/>
</g>
<!-- Node21 -->
<g id="node22" class="node">
<title>Node21</title>
<polygon fill="#ffffff" stroke="#bfbfbf" points="780,-168.5 780,-187.5 836,-187.5 836,-168.5 780,-168.5"/>
<text text-anchor="middle" x="808" y="-175.5" font-family="Helvetica,sans-Serif" font-size="10.00" fill="#000000">cinttypes</text>
</g>
<!-- Node0&#45;&gt;Node21 -->
<g id="edge31" class="edge">
<title>Node0&#45;&gt;Node21</title>
<path fill="none" stroke="#191970" d="M714.3338,-224.4554C734.2976,-214.554 760.249,-201.683 779.7715,-192.0004"/>
<polygon fill="#191970" stroke="#191970" points="781.3809,-195.1091 788.7844,-187.5303 778.2706,-188.838 781.3809,-195.1091"/>
</g>
<!-- Node22 -->
<g id="node23" class="node">
<title>Node22</title>
<polygon fill="#ffffff" stroke="#bfbfbf" points="854,-168.5 854,-187.5 906,-187.5 906,-168.5 854,-168.5"/>
<text text-anchor="middle" x="880" y="-175.5" font-family="Helvetica,sans-Serif" font-size="10.00" fill="#000000">memory</text>
</g>
<!-- Node0&#45;&gt;Node22 -->
<g id="edge34" class="edge">
<title>Node0&#45;&gt;Node22</title>
<path fill="none" stroke="#191970" d="M731.947,-224.4554C766.6144,-213.5776 812.7047,-199.1156 844.1943,-189.2349"/>
<polygon fill="#191970" stroke="#191970" points="845.3787,-192.5316 853.8722,-186.1983 843.283,-185.8527 845.3787,-192.5316"/>
</g>
<!-- Node1&#45;&gt;Node2 -->
<g id="edge2" class="edge">
<title>Node1&#45;&gt;Node2</title>
<path fill="none" stroke="#191970" d="M199.6264,-168.2455C185.0692,-159.5731 163.569,-146.7645 146.8848,-136.825"/>
<polygon fill="#191970" stroke="#191970" points="148.5683,-133.7539 138.1859,-131.6427 144.9856,-139.7676 148.5683,-133.7539"/>
</g>
<!-- Node4 -->
<g id="node5" class="node">
<title>Node4</title>
<polygon fill="#ffffff" stroke="#bfbfbf" points="138.5,-56.5 138.5,-75.5 187.5,-75.5 187.5,-56.5 138.5,-56.5"/>
<text text-anchor="middle" x="163" y="-63.5" font-family="Helvetica,sans-Serif" font-size="10.00" fill="#000000">cassert</text>
</g>
<!-- Node1&#45;&gt;Node4 -->
<g id="edge5" class="edge">
<title>Node1&#45;&gt;Node4</title>
<path fill="none" stroke="#191970" d="M211.4812,-168.4509C202.7197,-149.936 183.2815,-108.8591 171.8579,-84.7187"/>
<polygon fill="#191970" stroke="#191970" points="174.9484,-83.0668 167.5073,-75.5249 168.6211,-86.061 174.9484,-83.0668"/>
</g>
<!-- Node1&#45;&gt;Node5 -->
<g id="edge6" class="edge">
<title>Node1&#45;&gt;Node5</title>
<path fill="none" stroke="#191970" d="M215.5936,-168.2552C215.1443,-146.3555 216.6691,-92.326 240,-56 248.4495,-42.8443 262.1067,-32.2682 274.6394,-24.5899"/>
<polygon fill="#191970" stroke="#191970" points="276.5469,-27.5306 283.4758,-19.5155 273.061,-21.4603 276.5469,-27.5306"/>
</g>
<!-- Node6 -->
<g id="node7" class="node">
<title>Node6</title>
<polygon fill="#ffffff" stroke="#bfbfbf" points="282,-56.5 282,-75.5 326,-75.5 326,-56.5 282,-56.5"/>
<text text-anchor="middle" x="304" y="-63.5" font-family="Helvetica,sans-Serif" font-size="10.00" fill="#000000">vector</text>
</g>
<!-- Node1&#45;&gt;Node6 -->
<g id="edge7" class="edge">
<title>Node1&#45;&gt;Node6</title>
<path fill="none" stroke="#191970" d="M223.5028,-168.4509C238.3101,-149.6054 271.4833,-107.3849 290.2957,-83.4419"/>
<polygon fill="#191970" stroke="#191970" points="293.09,-85.5505 296.5162,-75.5249 287.5858,-81.2257 293.09,-85.5505"/>
</g>
<!-- Node3 -->
<g id="node4" class="node">
<title>Node3</title>
<polygon fill="#ffffff" stroke="#bfbfbf" points="0,-56.5 0,-75.5 120,-75.5 120,-56.5 0,-56.5"/>
<text text-anchor="middle" x="60" y="-63.5" font-family="Helvetica,sans-Serif" font-size="10.00" fill="#000000">boost/coroutine2/all.hpp</text>
</g>
<!-- Node2&#45;&gt;Node3 -->
<g id="edge3" class="edge">
<title>Node2&#45;&gt;Node3</title>
<path fill="none" stroke="#191970" d="M111.2004,-112.2455C102.1322,-104.0549 88.9794,-92.1749 78.2755,-82.5069"/>
<polygon fill="#191970" stroke="#191970" points="80.4429,-79.7482 70.6758,-75.6427 75.7509,-84.9429 80.4429,-79.7482"/>
</g>
<!-- Node2&#45;&gt;Node4 -->
<g id="edge4" class="edge">
<title>Node2&#45;&gt;Node4</title>
<path fill="none" stroke="#191970" d="M129.1417,-112.2455C134.8444,-104.4564 142.99,-93.3308 149.8625,-83.9439"/>
<polygon fill="#191970" stroke="#191970" points="152.8568,-85.7789 155.9402,-75.6427 147.2087,-81.6437 152.8568,-85.7789"/>
</g>
<!-- Node7&#45;&gt;Node6 -->
<g id="edge21" class="edge">
<title>Node7&#45;&gt;Node6</title>
<path fill="none" stroke="#191970" d="M623.6909,-172.81C583.5435,-165.7163 512.056,-151.5995 453,-132 409.334,-117.5081 361.0205,-94.7958 331.5835,-80.1543"/>
<polygon fill="#191970" stroke="#191970" points="332.8654,-76.8816 322.3582,-75.5219 329.7242,-83.1372 332.8654,-76.8816"/>
</g>
<!-- Node8 -->
<g id="node9" class="node">
<title>Node8</title>
<polygon fill="#ffffff" stroke="#bfbfbf" points="462,-112.5 462,-131.5 518,-131.5 518,-112.5 462,-112.5"/>
<text text-anchor="middle" x="490" y="-119.5" font-family="Helvetica,sans-Serif" font-size="10.00" fill="#000000">algorithm</text>
</g>
<!-- Node7&#45;&gt;Node8 -->
<g id="edge10" class="edge">
<title>Node7&#45;&gt;Node8</title>
<path fill="none" stroke="#191970" d="M626.6355,-168.3733C599.3173,-159.1016 557.8204,-145.0178 527.7262,-134.804"/>
<polygon fill="#191970" stroke="#191970" points="528.5887,-131.4008 517.9944,-131.5011 526.339,-138.0294 528.5887,-131.4008"/>
</g>
<!-- Node7&#45;&gt;Node9 -->
<g id="edge11" class="edge">
<title>Node7&#45;&gt;Node9</title>
<path fill="none" stroke="#191970" d="M679.4107,-168.3733C702.6142,-159.2226 737.7038,-145.3844 763.5142,-135.2057"/>
<polygon fill="#191970" stroke="#191970" points="764.8892,-138.4258 772.9079,-131.5011 762.3211,-131.9139 764.8892,-138.4258"/>
</g>
<!-- Node7&#45;&gt;Node10 -->
<g id="edge12" class="edge">
<title>Node7&#45;&gt;Node10</title>
<path fill="none" stroke="#191970" d="M686.3175,-170.4097C720.0214,-162.131 775.4137,-148.2084 831.5313,-132.3333"/>
<polygon fill="#191970" stroke="#191970" points="832.6147,-135.664 841.274,-129.5593 830.6977,-128.9316 832.6147,-135.664"/>
</g>
<!-- Node11 -->
<g id="node12" class="node">
<title>Node11</title>
<g id="a_node12"><a xlink:href="py2cpp_8hpp.html" target="_top" xlink:title="py2cpp/py2cpp.hpp">
<polygon fill="#ffffff" stroke="#000000" points="792.5,-56.5 792.5,-75.5 893.5,-75.5 893.5,-56.5 792.5,-56.5"/>
<text text-anchor="middle" x="843" y="-63.5" font-family="Helvetica,sans-Serif" font-size="10.00" fill="#000000">py2cpp/py2cpp.hpp</text>
</a>
</g>
</g>
<!-- Node7&#45;&gt;Node11 -->
<g id="edge13" class="edge">
<title>Node7&#45;&gt;Node11</title>
<path fill="none" stroke="#191970" d="M663.5825,-168.3072C676.4176,-154.2948 701.9076,-128.2785 728,-112 750.6463,-97.8714 778.369,-86.6291 800.9207,-78.7958"/>
<polygon fill="#191970" stroke="#191970" points="802.2031,-82.057 810.5595,-75.5439 799.9654,-75.4243 802.2031,-82.057"/>
</g>
<!-- Node16 -->
<g id="node17" class="node">
<title>Node16</title>
<polygon fill="#ffffff" stroke="#bfbfbf" points="949,-.5 949,-19.5 989,-19.5 989,-.5 949,-.5"/>
<text text-anchor="middle" x="969" y="-7.5" font-family="Helvetica,sans-Serif" font-size="10.00" fill="#000000">utility</text>
</g>
<!-- Node7&#45;&gt;Node16 -->
<g id="edge20" class="edge">
<title>Node7&#45;&gt;Node16</title>
<path fill="none" stroke="#191970" d="M670.3703,-168.3497C698.7982,-150.5251 757.1529,-114.057 762,-112 821.5377,-86.7339 846.7979,-108.0069 903,-76 924.4232,-63.7996 943.6935,-42.7899 955.8033,-27.7507"/>
<polygon fill="#191970" stroke="#191970" points="958.6904,-29.7396 962.0681,-19.6976 953.1653,-25.4415 958.6904,-29.7396"/>
</g>
<!-- Node17 -->
<g id="node18" class="node">
<title>Node17</title>
<g id="a_node18"><a xlink:href="graph_8hpp.html" target="_top" xlink:title="xnetwork/classes/graph.hpp">
<polygon fill="#ffffff" stroke="#000000" points="536.5,-112.5 536.5,-131.5 675.5,-131.5 675.5,-112.5 536.5,-112.5"/>
<text text-anchor="middle" x="606" y="-119.5" font-family="Helvetica,sans-Serif" font-size="10.00" fill="#000000">xnetwork/classes/graph.hpp</text>
</a>
</g>
</g>
<!-- Node7&#45;&gt;Node17 -->
<g id="edge22" class="edge">
<title>Node7&#45;&gt;Node17</title>
<path fill="none" stroke="#191970" d="M646.4649,-168.2455C639.5088,-160.2958 629.5117,-148.8706 621.1949,-139.3656"/>
<polygon fill="#191970" stroke="#191970" points="623.6564,-136.8637 614.4373,-131.6427 618.3884,-141.4732 623.6564,-136.8637"/>
</g>
<!-- Node11&#45;&gt;Node5 -->
<g id="edge16" class="edge">
<title>Node11&#45;&gt;Node5</title>
<path fill="none" stroke="#191970" d="M792.2979,-57.2955C789.155,-56.8348 786.0365,-56.3984 783,-56 621.5481,-34.8193 428.2722,-19.2255 345.2265,-12.9896"/>
<polygon fill="#191970" stroke="#191970" points="345.4196,-9.4943 335.187,-12.2411 344.8991,-16.475 345.4196,-9.4943"/>
</g>
<!-- Node12 -->
<g id="node13" class="node">
<title>Node12</title>
<polygon fill="#ffffff" stroke="#bfbfbf" points="604.5,-.5 604.5,-19.5 677.5,-19.5 677.5,-.5 604.5,-.5"/>
<text text-anchor="middle" x="641" y="-7.5" font-family="Helvetica,sans-Serif" font-size="10.00" fill="#000000">initializer_list</text>
</g>
<!-- Node11&#45;&gt;Node12 -->
<g id="edge14" class="edge">
<title>Node11&#45;&gt;Node12</title>
<path fill="none" stroke="#191970" d="M808.275,-56.3733C774.2492,-46.9404 722.2563,-32.5265 685.2766,-22.2747"/>
<polygon fill="#191970" stroke="#191970" points="685.8435,-18.7999 675.2719,-19.5011 683.9734,-25.5455 685.8435,-18.7999"/>
</g>
<!-- Node13 -->
<g id="node14" class="node">
<title>Node13</title>
<polygon fill="#ffffff" stroke="#bfbfbf" points="893,-.5 893,-19.5 931,-19.5 931,-.5 893,-.5"/>
<text text-anchor="middle" x="912" y="-7.5" font-family="Helvetica,sans-Serif" font-size="10.00" fill="#000000">tuple</text>
</g>
<!-- Node11&#45;&gt;Node13 -->
<g id="edge15" class="edge">
<title>Node11&#45;&gt;Node13</title>
<path fill="none" stroke="#191970" d="M855.0189,-56.2455C865.2098,-47.9746 880.0362,-35.9416 892.0107,-26.2232"/>
<polygon fill="#191970" stroke="#191970" points="894.5598,-28.662 900.1188,-19.6427 890.1486,-23.2268 894.5598,-28.662"/>
</g>
<!-- Node14 -->
<g id="node15" class="node">
<title>Node14</title>
<polygon fill="#ffffff" stroke="#bfbfbf" points="695.5,-.5 695.5,-19.5 778.5,-19.5 778.5,-.5 695.5,-.5"/>
<text text-anchor="middle" x="737" y="-7.5" font-family="Helvetica,sans-Serif" font-size="10.00" fill="#000000">unordered_map</text>
</g>
<!-- Node11&#45;&gt;Node14 -->
<g id="edge17" class="edge">
<title>Node11&#45;&gt;Node14</title>
<path fill="none" stroke="#191970" d="M824.5362,-56.2455C807.8926,-47.4527 783.2007,-34.4079 764.2808,-24.4125"/>
<polygon fill="#191970" stroke="#191970" points="765.7291,-21.2193 755.2522,-19.6427 762.4592,-27.4086 765.7291,-21.2193"/>
</g>
<!-- Node15 -->
<g id="node16" class="node">
<title>Node15</title>
<polygon fill="#ffffff" stroke="#bfbfbf" points="797,-.5 797,-19.5 875,-19.5 875,-.5 797,-.5"/>
<text text-anchor="middle" x="836" y="-7.5" font-family="Helvetica,sans-Serif" font-size="10.00" fill="#000000">unordered_set</text>
</g>
<!-- Node11&#45;&gt;Node15 -->
<g id="edge18" class="edge">
<title>Node11&#45;&gt;Node15</title>
<path fill="none" stroke="#191970" d="M841.7807,-56.2455C840.8673,-48.9382 839.5868,-38.6944 838.4631,-29.7046"/>
<polygon fill="#191970" stroke="#191970" points="841.9187,-29.1313 837.2053,-19.6427 834.9728,-29.9996 841.9187,-29.1313"/>
</g>
<!-- Node11&#45;&gt;Node16 -->
<g id="edge19" class="edge">
<title>Node11&#45;&gt;Node16</title>
<path fill="none" stroke="#191970" d="M864.6602,-56.3733C885.3466,-47.1793 916.6796,-33.2535 939.6114,-23.0616"/>
<polygon fill="#191970" stroke="#191970" points="941.1528,-26.2067 948.8694,-18.9469 938.3098,-19.81 941.1528,-26.2067"/>
</g>
<!-- Node17&#45;&gt;Node4 -->
<g id="edge24" class="edge">
<title>Node17&#45;&gt;Node4</title>
<path fill="none" stroke="#191970" d="M536.2132,-113.1654C533.0996,-112.7715 530.0174,-112.3816 527,-112 406.0805,-96.7063 262.5629,-78.5758 197.7851,-70.3935"/>
<polygon fill="#191970" stroke="#191970" points="198.0759,-66.9025 187.7161,-69.1217 197.1986,-73.8473 198.0759,-66.9025"/>
</g>
<!-- Node17&#45;&gt;Node5 -->
<g id="edge26" class="edge">
<title>Node17&#45;&gt;Node5</title>
<path fill="none" stroke="#191970" d="M536.4687,-112.7868C478.1628,-104.2519 400.0602,-90.6902 372,-76 349.825,-64.3909 329.9902,-43.2697 317.546,-28.0427"/>
<polygon fill="#191970" stroke="#191970" points="320.049,-25.5641 311.1112,-19.8749 314.5504,-29.896 320.049,-25.5641"/>
</g>
<!-- Node17&#45;&gt;Node6 -->
<g id="edge27" class="edge">
<title>Node17&#45;&gt;Node6</title>
<path fill="none" stroke="#191970" d="M540.0514,-112.4683C486.0041,-104.2086 407.6733,-91.2107 340,-76 338.754,-75.7199 337.4868,-75.4238 336.2089,-75.1158"/>
<polygon fill="#191970" stroke="#191970" points="336.9377,-71.6894 326.3811,-72.5889 335.1946,-78.4689 336.9377,-71.6894"/>
</g>
<!-- Node17&#45;&gt;Node11 -->
<g id="edge25" class="edge">
<title>Node17&#45;&gt;Node11</title>
<path fill="none" stroke="#191970" d="M646.4725,-112.4369C686.948,-102.8731 749.2867,-88.1432 792.8703,-77.845"/>
<polygon fill="#191970" stroke="#191970" points="793.7673,-81.2295 802.6945,-75.5237 792.1576,-74.4171 793.7673,-81.2295"/>
</g>
<!-- Node18 -->
<g id="node19" class="node">
<title>Node18</title>
<polygon fill="#ffffff" stroke="#bfbfbf" points="742,-56.5 742,-75.5 774,-75.5 774,-56.5 742,-56.5"/>
<text text-anchor="middle" x="758" y="-63.5" font-family="Helvetica,sans-Serif" font-size="10.00" fill="#000000">any</text>
</g>
<!-- Node17&#45;&gt;Node18 -->
<g id="edge23" class="edge">
<title>Node17&#45;&gt;Node18</title>
<path fill="none" stroke="#191970" d="M633.3475,-112.3885C657.2189,-103.9344 693.0007,-91.1087 732.3614,-76.1668"/>
<polygon fill="#191970" stroke="#191970" points="733.7952,-79.366 741.8926,-72.5335 731.3018,-72.8251 733.7952,-79.366"/>
</g>
<!-- Node19 -->
<g id="node20" class="node">
<title>Node19</title>
<g id="a_node20"><a xlink:href="coreviews_8hpp.html" target="_top" xlink:title="xnetwork/classes/coreviews.hpp">
<polygon fill="#ffffff" stroke="#000000" points="381.5,-56.5 381.5,-75.5 540.5,-75.5 540.5,-56.5 381.5,-56.5"/>
<text text-anchor="middle" x="461" y="-63.5" font-family="Helvetica,sans-Serif" font-size="10.00" fill="#000000">xnetwork/classes/coreviews.hpp</text>
</a>
</g>
</g>
<!-- Node17&#45;&gt;Node19 -->
<g id="edge28" class="edge">
<title>Node17&#45;&gt;Node19</title>
<path fill="none" stroke="#191970" d="M581.0736,-112.3733C557.3798,-103.2226 521.5489,-89.3844 495.1932,-79.2057"/>
<polygon fill="#191970" stroke="#191970" points="496.1906,-75.8389 485.6011,-75.5011 493.6686,-82.3689 496.1906,-75.8389"/>
</g>
<!-- Node20 -->
<g id="node21" class="node">
<title>Node20</title>
<g id="a_node21"><a xlink:href="reportviews_8hpp.html" target="_top" xlink:title="xnetwork/classes/reportviews.hpp">
<polygon fill="#ffffff" stroke="#000000" points="558.5,-56.5 558.5,-75.5 723.5,-75.5 723.5,-56.5 558.5,-56.5"/>
<text text-anchor="middle" x="641" y="-63.5" font-family="Helvetica,sans-Serif" font-size="10.00" fill="#000000">xnetwork/classes/reportviews.hpp</text>
</a>
</g>
</g>
<!-- Node17&#45;&gt;Node20 -->
<g id="edge29" class="edge">
<title>Node17&#45;&gt;Node20</title>
<path fill="none" stroke="#191970" d="M612.0965,-112.2455C616.9145,-104.5367 623.7751,-93.5598 629.6032,-84.2348"/>
<polygon fill="#191970" stroke="#191970" points="632.6413,-85.9777 634.9733,-75.6427 626.7053,-82.2677 632.6413,-85.9777"/>
</g>
<!-- Node20&#45;&gt;Node12 -->
<g id="edge30" class="edge">
<title>Node20&#45;&gt;Node12</title>
<path fill="none" stroke="#191970" d="M641,-56.2455C641,-48.9382 641,-38.6944 641,-29.7046"/>
<polygon fill="#191970" stroke="#191970" points="644.5001,-29.6426 641,-19.6427 637.5001,-29.6427 644.5001,-29.6426"/>
</g>
</g>
</svg>
        <g id="navigator" transform="translate(0 0)" fill="#404254">
                <rect fill="#f2f5e9" fill-opacity="0.5" stroke="#606060" stroke-width=".5" x="0" y="0" width="60" height="60"/>
                <use id="zoomplus" xlink:href="#zoomPlus" x="17" y="9" onmousedown="handleZoom(evt,'in')"/>
                <use id="zoomminus" xlink:href="#zoomMin" x="42" y="9" onmousedown="handleZoom(evt,'out')"/>
                <use id="reset" xlink:href="#resetDef" x="30" y="36" onmousedown="handleReset()"/>
                <g id="arrowUp" xlink:href="#dirArrow" transform="translate(30 24)" onmousedown="handlePan(0,-1)">
                  <use xlink:href="#rim" fill="#404040">
                        <set attributeName="fill" to="#808080" begin="arrowUp.mouseover" end="arrowUp.mouseout"/>
                  </use>
                  <path fill="none" stroke="white" stroke-width="1.5" d="M0,-3.0v7 M-2.5,-0.5L0,-3.0L2.5,-0.5"/>
                </g>
                <g id="arrowRight" xlink:href="#dirArrow" transform="rotate(90) translate(36 -43)" onmousedown="handlePan(1,0)">
                  <use xlink:href="#rim" fill="#404040">
                        <set attributeName="fill" to="#808080" begin="arrowRight.mouseover" end="arrowRight.mouseout"/>
                  </use>
                  <path fill="none" stroke="white" stroke-width="1.5" d="M0,-3.0v7 M-2.5,-0.5L0,-3.0L2.5,-0.5"/>
                </g>
                <g id="arrowDown" xlink:href="#dirArrow" transform="rotate(180) translate(-30 -48)" onmousedown="handlePan(0,1)">
                  <use xlink:href="#rim" fill="#404040">
                        <set attributeName="fill" to="#808080" begin="arrowDown.mouseover" end="arrowDown.mouseout"/>
                  </use>
                  <path fill="none" stroke="white" stroke-width="1.5" d="M0,-3.0v7 M-2.5,-0.5L0,-3.0L2.5,-0.5"/>
                </g>
                <g id="arrowLeft" xlink:href="#dirArrow" transform="rotate(270) translate(-36 17)" onmousedown="handlePan(-1,0)">
                  <use xlink:href="#rim" fill="#404040">
                        <set attributeName="fill" to="#808080" begin="arrowLeft.mouseover" end="arrowLeft.mouseout"/>
                  </use>
                  <path fill="none" stroke="white" stroke-width="1.5" d="M0,-3.0v7 M-2.5,-0.5L0,-3.0L2.5,-0.5"/>
                </g>
        </g>
        <svg viewBox="0 0 15 15" width="100%" height="30px" preserveAspectRatio="xMaxYMin meet">
         <g id="arrow_out" transform="scale(0.3 0.3)">
          <a xlink:href="FMGainMgr_8hpp__incl_org.svg" target="_base">
           <rect id="button" ry="5" rx="5" y="6" x="6" height="38" width="38"
                fill="#f2f5e9" fill-opacity="0.5" stroke="#606060" stroke-width="1.0"/>
           <path id="arrow"
             d="M 11.500037,31.436501 C 11.940474,20.09759 22.043105,11.32322 32.158766,21.979434 L 37.068811,17.246167 C 37.068811,17.246167 37.088388,32 37.088388,32 L 22.160133,31.978069 C 22.160133,31.978069 26.997745,27.140456 26.997745,27.140456 C 18.528582,18.264221 13.291696,25.230495 11.500037,31.436501 z"
             style="fill:#404040;"/>
          </a>
         </g>
        </svg>
</svg>
