<?xml version="1.0" encoding="UTF-8" standalone="no"?>
<!DOCTYPE svg PUBLIC "-//W3C//DTD SVG 1.1//EN"
 "http://www.w3.org/Graphics/SVG/1.1/DTD/svg11.dtd">
<!-- Generated by graphviz version 2.40.1 (20161225.0304)
 -->
<!-- Title: lib/include/ckpttncpp/FMKWayGainMgr.hpp Pages: 1 -->
<!--zoomable 319 -->
<svg id="main" version="1.1" xmlns="http://www.w3.org/2000/svg" xmlns:xlink="http://www.w3.org/1999/xlink" xml:space="preserve" onload="init(evt)">
<style type="text/css"><![CDATA[
.edge:hover path { stroke: red; }
.edge:hover polygon { stroke: red; fill: red; }
]]></style>
<script type="text/javascript"><![CDATA[
var edges = document.getElementsByTagName('g');
if (edges && edges.length) {
  for (var i=0;i<edges.length;i++) {
    if (edges[i].id.substr(0,4)=='edge') {
      edges[i].setAttribute('class','edge');
    }
  }
}
]]></script>
        <defs>
                <circle id="rim" cx="0" cy="0" r="7"/>
                <circle id="rim2" cx="0" cy="0" r="3.5"/>
                <g id="zoomPlus">
                        <use xlink:href="#rim" fill="#404040">
                                <set attributeName="fill" to="#808080" begin="zoomplus.mouseover" end="zoomplus.mouseout"/>
                        </use>
                        <path d="M-4,0h8M0,-4v8" fill="none" stroke="white" stroke-width="1.5" pointer-events="none"/>
                </g>
                <g id="zoomMin">
                        <use xlink:href="#rim" fill="#404040">
                                <set attributeName="fill" to="#808080" begin="zoomminus.mouseover" end="zoomminus.mouseout"/>
                        </use>
                        <path d="M-4,0h8" fill="none" stroke="white" stroke-width="1.5" pointer-events="none"/>
                </g>
                <g id="dirArrow">
                        <path fill="none" stroke="white" stroke-width="1.5" d="M0,-3.0v7 M-2.5,-0.5L0,-3.0L2.5,-0.5"/>
                </g>
               <g id="resetDef">
                       <use xlink:href="#rim2" fill="#404040">
                               <set attributeName="fill" to="#808080" begin="reset.mouseover" end="reset.mouseout"/>
                       </use>
               </g>
        </defs>

<script type="text/javascript">
var viewWidth = 899;
var viewHeight = 319;
var sectionId = 'dynsection-0';
</script>
<script xlink:href="svgpan.js"/>
<svg id="graph" class="graph">
<g id="viewport">
<title>lib/include/ckpttncpp/FMKWayGainMgr.hpp</title>
<polygon fill="#ffffff" stroke="transparent" points="-4,4 -4,-315 894.6501,-315 894.6501,4 -4,4"/>
<!-- Node0 -->
<g id="node1" class="node">
<title>Node0</title>
<polygon fill="#bfbfbf" stroke="#000000" points="536.1501,-280.5 536.1501,-310.5 652.1501,-310.5 652.1501,-280.5 536.1501,-280.5"/>
<text text-anchor="start" x="544.1501" y="-298.5" font-family="Helvetica,sans-Serif" font-size="10.00" fill="#000000">lib/include/ckpttncpp</text>
<text text-anchor="middle" x="594.1501" y="-287.5" font-family="Helvetica,sans-Serif" font-size="10.00" fill="#000000">/FMKWayGainMgr.hpp</text>
</g>
<!-- Node1 -->
<g id="node2" class="node">
<title>Node1</title>
<g id="a_node2"><a xlink:href="FMGainMgr_8hpp.html" target="_top" xlink:title="FMGainMgr.hpp">
<polygon fill="#ffffff" stroke="#000000" points="354.1501,-224.5 354.1501,-243.5 440.1501,-243.5 440.1501,-224.5 354.1501,-224.5"/>
<text text-anchor="middle" x="397.1501" y="-231.5" font-family="Helvetica,sans-Serif" font-size="10.00" fill="#000000">FMGainMgr.hpp</text>
</a>
</g>
</g>
<!-- Node0&#45;&gt;Node1 -->
<g id="edge1" class="edge">
<title>Node0&#45;&gt;Node1</title>
<path fill="none" stroke="#191970" d="M545.9585,-280.4554C512.656,-270.059 468.8659,-256.3884 437.4238,-246.5727"/>
<polygon fill="#191970" stroke="#191970" points="438.2668,-243.1694 427.6781,-243.5303 436.1808,-249.8514 438.2668,-243.1694"/>
</g>
<!-- Node10 -->
<g id="node11" class="node">
<title>Node10</title>
<polygon fill="#ffffff" stroke="#bfbfbf" points="837.6501,-112.5 837.6501,-131.5 890.6501,-131.5 890.6501,-112.5 837.6501,-112.5"/>
<text text-anchor="middle" x="864.1501" y="-119.5" font-family="Helvetica,sans-Serif" font-size="10.00" fill="#000000">gsl/span</text>
</g>
<!-- Node0&#45;&gt;Node10 -->
<g id="edge44" class="edge">
<title>Node0&#45;&gt;Node10</title>
<path fill="none" stroke="#191970" d="M617.8231,-280.4054C650.3707,-259.6399 710.7547,-221.0711 762.1501,-188 789.1892,-170.6013 820.1943,-150.5207 840.8543,-137.1215"/>
<polygon fill="#191970" stroke="#191970" points="842.8158,-140.021 849.3002,-131.6423 839.006,-134.1486 842.8158,-140.021"/>
</g>
<!-- Node24 -->
<g id="node25" class="node">
<title>Node24</title>
<g id="a_node25"><a xlink:href="FMKWayGainCalc_8hpp.html" target="_top" xlink:title="FMKWayGainCalc.hpp">
<polygon fill="#ffffff" stroke="#000000" points="535.6501,-224.5 535.6501,-243.5 652.6501,-243.5 652.6501,-224.5 535.6501,-224.5"/>
<text text-anchor="middle" x="594.1501" y="-231.5" font-family="Helvetica,sans-Serif" font-size="10.00" fill="#000000">FMKWayGainCalc.hpp</text>
</a>
</g>
</g>
<!-- Node0&#45;&gt;Node24 -->
<g id="edge37" class="edge">
<title>Node0&#45;&gt;Node24</title>
<path fill="none" stroke="#191970" d="M594.1501,-280.2977C594.1501,-272.3834 594.1501,-262.6043 594.1501,-254.0759"/>
<polygon fill="#191970" stroke="#191970" points="597.6502,-253.8469 594.1501,-243.8469 590.6502,-253.847 597.6502,-253.8469"/>
</g>
<!-- Node2 -->
<g id="node3" class="node">
<title>Node2</title>
<g id="a_node3"><a xlink:href="bpqueue_8hpp.html" target="_top" xlink:title="bpqueue.hpp">
<polygon fill="#ffffff" stroke="#000000" points="153.1501,-168.5 153.1501,-187.5 225.1501,-187.5 225.1501,-168.5 153.1501,-168.5"/>
<text text-anchor="middle" x="189.1501" y="-175.5" font-family="Helvetica,sans-Serif" font-size="10.00" fill="#000000">bpqueue.hpp</text>
</a>
</g>
</g>
<!-- Node1&#45;&gt;Node2 -->
<g id="edge2" class="edge">
<title>Node1&#45;&gt;Node2</title>
<path fill="none" stroke="#191970" d="M361.3937,-224.3733C326.2075,-214.9001 272.362,-200.4032 234.2545,-190.1435"/>
<polygon fill="#191970" stroke="#191970" points="235.0061,-186.7213 224.44,-187.5011 233.1862,-193.4806 235.0061,-186.7213"/>
</g>
<!-- Node3 -->
<g id="node4" class="node">
<title>Node3</title>
<g id="a_node4"><a xlink:href="dllist_8hpp.html" target="_top" xlink:title="dllist.hpp">
<polygon fill="#ffffff" stroke="#000000" points="273.1501,-112.5 273.1501,-131.5 329.1501,-131.5 329.1501,-112.5 273.1501,-112.5"/>
<text text-anchor="middle" x="301.1501" y="-119.5" font-family="Helvetica,sans-Serif" font-size="10.00" fill="#000000">dllist.hpp</text>
</a>
</g>
</g>
<!-- Node1&#45;&gt;Node3 -->
<g id="edge9" class="edge">
<title>Node1&#45;&gt;Node3</title>
<path fill="none" stroke="#191970" d="M396.5834,-224.499C395.3193,-210.7255 391.2463,-185.004 378.1501,-168 367.4718,-154.1354 351.3298,-143.5788 336.579,-136.0978"/>
<polygon fill="#191970" stroke="#191970" points="337.6923,-132.7518 327.1579,-131.6219 334.6884,-139.0746 337.6923,-132.7518"/>
</g>
<!-- Node6 -->
<g id="node7" class="node">
<title>Node6</title>
<polygon fill="#ffffff" stroke="#bfbfbf" points="51.1501,-.5 51.1501,-19.5 113.1501,-19.5 113.1501,-.5 51.1501,-.5"/>
<text text-anchor="middle" x="82.1501" y="-7.5" font-family="Helvetica,sans-Serif" font-size="10.00" fill="#000000">type_traits</text>
</g>
<!-- Node1&#45;&gt;Node6 -->
<g id="edge36" class="edge">
<title>Node1&#45;&gt;Node6</title>
<path fill="none" stroke="#191970" d="M353.9871,-230.4146C302.7379,-225.1956 215.2545,-213.23 144.1501,-188 95.4112,-170.7059 79.963,-167.2811 42.1501,-132 14.8225,-106.5021 -12.202,-88.5598 6.1501,-56 14.2882,-41.5618 28.9857,-31.1395 43.3018,-23.9057"/>
<polygon fill="#191970" stroke="#191970" points="44.982,-26.9846 52.5816,-19.6024 42.0371,-20.6342 44.982,-26.9846"/>
</g>
<!-- Node8 -->
<g id="node9" class="node">
<title>Node8</title>
<g id="a_node9"><a xlink:href="netlist_8hpp.html" target="_top" xlink:title="netlist.hpp">
<polygon fill="#ffffff" stroke="#000000" points="602.1501,-168.5 602.1501,-187.5 664.1501,-187.5 664.1501,-168.5 602.1501,-168.5"/>
<text text-anchor="middle" x="633.1501" y="-175.5" font-family="Helvetica,sans-Serif" font-size="10.00" fill="#000000">netlist.hpp</text>
</a>
</g>
</g>
<!-- Node1&#45;&gt;Node8 -->
<g id="edge10" class="edge">
<title>Node1&#45;&gt;Node8</title>
<path fill="none" stroke="#191970" d="M438.4879,-224.4811C476.0899,-215.7815 533.3789,-202.4255 591.9305,-188.2738"/>
<polygon fill="#191970" stroke="#191970" points="592.8226,-191.6591 601.7178,-185.9036 591.1749,-184.8557 592.8226,-191.6591"/>
</g>
<!-- Node1&#45;&gt;Node10 -->
<g id="edge33" class="edge">
<title>Node1&#45;&gt;Node10</title>
<path fill="none" stroke="#191970" d="M440.2382,-229.3846C495.0061,-222.9353 592.1686,-209.5365 673.1501,-188 697.8836,-181.4223 703.0162,-176.5186 727.1501,-168 761.1804,-155.9882 800.2191,-142.9527 827.8954,-133.8359"/>
<polygon fill="#191970" stroke="#191970" points="829.1403,-137.111 837.5475,-130.6635 826.9546,-130.4609 829.1403,-137.111"/>
</g>
<!-- Node11 -->
<g id="node12" class="node">
<title>Node11</title>
<polygon fill="#ffffff" stroke="#bfbfbf" points="349.6501,-112.5 349.6501,-131.5 396.6501,-131.5 396.6501,-112.5 349.6501,-112.5"/>
<text text-anchor="middle" x="373.1501" y="-119.5" font-family="Helvetica,sans-Serif" font-size="10.00" fill="#000000">iterator</text>
</g>
<!-- Node1&#45;&gt;Node11 -->
<g id="edge34" class="edge">
<title>Node1&#45;&gt;Node11</title>
<path fill="none" stroke="#191970" d="M402.4411,-224.3757C408.8932,-211.3197 418.1265,-187.3991 411.1501,-168 407.2065,-157.0341 399.3904,-146.8227 391.867,-138.8204"/>
<polygon fill="#191970" stroke="#191970" points="394.1602,-136.1653 384.5954,-131.6084 389.2309,-141.1354 394.1602,-136.1653"/>
</g>
<!-- Node22 -->
<g id="node23" class="node">
<title>Node22</title>
<polygon fill="#ffffff" stroke="#bfbfbf" points="243.1501,-168.5 243.1501,-187.5 299.1501,-187.5 299.1501,-168.5 243.1501,-168.5"/>
<text text-anchor="middle" x="271.1501" y="-175.5" font-family="Helvetica,sans-Serif" font-size="10.00" fill="#000000">cinttypes</text>
</g>
<!-- Node1&#45;&gt;Node22 -->
<g id="edge32" class="edge">
<title>Node1&#45;&gt;Node22</title>
<path fill="none" stroke="#191970" d="M375.49,-224.3733C355.173,-215.3435 324.5862,-201.7494 301.7751,-191.6111"/>
<polygon fill="#191970" stroke="#191970" points="303.0873,-188.3642 292.5277,-187.5011 300.2443,-194.7609 303.0873,-188.3642"/>
</g>
<!-- Node23 -->
<g id="node24" class="node">
<title>Node23</title>
<polygon fill="#ffffff" stroke="#bfbfbf" points="317.1501,-168.5 317.1501,-187.5 369.1501,-187.5 369.1501,-168.5 317.1501,-168.5"/>
<text text-anchor="middle" x="343.1501" y="-175.5" font-family="Helvetica,sans-Serif" font-size="10.00" fill="#000000">memory</text>
</g>
<!-- Node1&#45;&gt;Node23 -->
<g id="edge35" class="edge">
<title>Node1&#45;&gt;Node23</title>
<path fill="none" stroke="#191970" d="M387.744,-224.2455C380.0008,-216.2155 368.8381,-204.6394 359.6183,-195.0781"/>
<polygon fill="#191970" stroke="#191970" points="361.9093,-192.4117 352.4484,-187.6427 356.8703,-197.2706 361.9093,-192.4117"/>
</g>
<!-- Node2&#45;&gt;Node3 -->
<g id="edge3" class="edge">
<title>Node2&#45;&gt;Node3</title>
<path fill="none" stroke="#191970" d="M208.4036,-168.3733C226.2213,-159.4644 252.9248,-146.1127 273.1095,-136.0203"/>
<polygon fill="#191970" stroke="#191970" points="274.7689,-139.1038 282.1479,-131.5011 271.6383,-132.8428 274.7689,-139.1038"/>
</g>
<!-- Node5 -->
<g id="node6" class="node">
<title>Node5</title>
<polygon fill="#ffffff" stroke="#bfbfbf" points="160.6501,-56.5 160.6501,-75.5 209.6501,-75.5 209.6501,-56.5 160.6501,-56.5"/>
<text text-anchor="middle" x="185.1501" y="-63.5" font-family="Helvetica,sans-Serif" font-size="10.00" fill="#000000">cassert</text>
</g>
<!-- Node2&#45;&gt;Node5 -->
<g id="edge6" class="edge">
<title>Node2&#45;&gt;Node5</title>
<path fill="none" stroke="#191970" d="M188.8091,-168.4509C188.1567,-150.184 186.72,-109.9553 185.8536,-85.6976"/>
<polygon fill="#191970" stroke="#191970" points="189.3451,-85.3936 185.4903,-75.5249 182.3495,-85.6435 189.3451,-85.3936"/>
</g>
<!-- Node2&#45;&gt;Node6 -->
<g id="edge7" class="edge">
<title>Node2&#45;&gt;Node6</title>
<path fill="none" stroke="#191970" d="M153.0569,-168.8122C110.9025,-155.9298 43.126,-128.0186 13.1501,-76 .9479,-54.8249 25.6845,-36.1498 48.861,-24.118"/>
<polygon fill="#191970" stroke="#191970" points="50.4732,-27.2258 57.918,-19.6875 47.3972,-20.9378 50.4732,-27.2258"/>
</g>
<!-- Node7 -->
<g id="node8" class="node">
<title>Node7</title>
<polygon fill="#ffffff" stroke="#bfbfbf" points="796.1501,-56.5 796.1501,-75.5 840.1501,-75.5 840.1501,-56.5 796.1501,-56.5"/>
<text text-anchor="middle" x="818.1501" y="-63.5" font-family="Helvetica,sans-Serif" font-size="10.00" fill="#000000">vector</text>
</g>
<!-- Node2&#45;&gt;Node7 -->
<g id="edge8" class="edge">
<title>Node2&#45;&gt;Node7</title>
<path fill="none" stroke="#191970" d="M225.427,-169.5426C228.3701,-168.9774 231.3049,-168.4536 234.1501,-168 396.4371,-142.1278 445.8804,-182.8547 602.1501,-132 618.8212,-126.5747 619.8879,-118.5497 636.1501,-112 697.2717,-87.3827 718.7784,-93.9206 786.0563,-76.101"/>
<polygon fill="#191970" stroke="#191970" points="787.1397,-79.4333 795.8621,-73.4192 785.293,-72.6813 787.1397,-79.4333"/>
</g>
<!-- Node4 -->
<g id="node5" class="node">
<title>Node4</title>
<polygon fill="#ffffff" stroke="#bfbfbf" points="22.1501,-56.5 22.1501,-75.5 142.1501,-75.5 142.1501,-56.5 22.1501,-56.5"/>
<text text-anchor="middle" x="82.1501" y="-63.5" font-family="Helvetica,sans-Serif" font-size="10.00" fill="#000000">boost/coroutine2/all.hpp</text>
</g>
<!-- Node3&#45;&gt;Node4 -->
<g id="edge4" class="edge">
<title>Node3&#45;&gt;Node4</title>
<path fill="none" stroke="#191970" d="M272.968,-114.7936C236.6354,-105.5031 172.9394,-89.2155 129.2054,-78.0324"/>
<polygon fill="#191970" stroke="#191970" points="129.9266,-74.6043 119.3712,-75.5177 128.1924,-81.3861 129.9266,-74.6043"/>
</g>
<!-- Node3&#45;&gt;Node5 -->
<g id="edge5" class="edge">
<title>Node3&#45;&gt;Node5</title>
<path fill="none" stroke="#191970" d="M281.209,-112.3733C262.6715,-103.4241 234.8473,-89.9917 213.9088,-79.8835"/>
<polygon fill="#191970" stroke="#191970" points="215.3582,-76.6967 204.831,-75.5011 212.3149,-83.0006 215.3582,-76.6967"/>
</g>
<!-- Node8&#45;&gt;Node7 -->
<g id="edge22" class="edge">
<title>Node8&#45;&gt;Node7</title>
<path fill="none" stroke="#191970" d="M643.5243,-168.3366C658.647,-154.5912 688.0169,-129.161 716.1501,-112 738.5256,-98.3512 765.6481,-86.3119 786.2986,-77.9768"/>
<polygon fill="#191970" stroke="#191970" points="787.8557,-81.1248 795.8671,-74.1917 785.2808,-74.6156 787.8557,-81.1248"/>
</g>
<!-- Node9 -->
<g id="node10" class="node">
<title>Node9</title>
<polygon fill="#ffffff" stroke="#bfbfbf" points="725.1501,-112.5 725.1501,-131.5 781.1501,-131.5 781.1501,-112.5 725.1501,-112.5"/>
<text text-anchor="middle" x="753.1501" y="-119.5" font-family="Helvetica,sans-Serif" font-size="10.00" fill="#000000">algorithm</text>
</g>
<!-- Node8&#45;&gt;Node9 -->
<g id="edge11" class="edge">
<title>Node8&#45;&gt;Node9</title>
<path fill="none" stroke="#191970" d="M653.7789,-168.3733C673.042,-159.3838 701.9988,-145.8706 723.6921,-135.7471"/>
<polygon fill="#191970" stroke="#191970" points="725.2089,-138.9017 732.7906,-131.5011 722.2486,-132.5584 725.2089,-138.9017"/>
</g>
<!-- Node8&#45;&gt;Node10 -->
<g id="edge12" class="edge">
<title>Node8&#45;&gt;Node10</title>
<path fill="none" stroke="#191970" d="M664.4215,-170.4462C702.0801,-161.3456 767.2502,-145.5839 823.1501,-132 824.574,-131.654 826.0257,-131.301 827.4921,-130.9442"/>
<polygon fill="#191970" stroke="#191970" points="828.3576,-134.3358 837.2455,-128.569 826.7013,-127.5346 828.3576,-134.3358"/>
</g>
<!-- Node8&#45;&gt;Node11 -->
<g id="edge13" class="edge">
<title>Node8&#45;&gt;Node11</title>
<path fill="none" stroke="#191970" d="M601.7423,-169.9914C598.8419,-169.2992 595.9443,-168.6252 593.1501,-168 512.6837,-149.9952 491.5038,-150.5012 411.1501,-132 409.6959,-131.6652 408.2127,-131.3145 406.7162,-130.9533"/>
<polygon fill="#191970" stroke="#191970" points="407.3617,-127.5068 396.8106,-128.469 405.6588,-134.2966 407.3617,-127.5068"/>
</g>
<!-- Node12 -->
<g id="node13" class="node">
<title>Node12</title>
<g id="a_node13"><a xlink:href="py2cpp_8hpp.html" target="_top" xlink:title="py2cpp/py2cpp.hpp">
<polygon fill="#ffffff" stroke="#000000" points="266.6501,-56.5 266.6501,-75.5 367.6501,-75.5 367.6501,-56.5 266.6501,-56.5"/>
<text text-anchor="middle" x="317.1501" y="-63.5" font-family="Helvetica,sans-Serif" font-size="10.00" fill="#000000">py2cpp/py2cpp.hpp</text>
</a>
</g>
</g>
<!-- Node8&#45;&gt;Node12 -->
<g id="edge14" class="edge">
<title>Node8&#45;&gt;Node12</title>
<path fill="none" stroke="#191970" d="M602.1461,-170.2283C599.1069,-169.4727 596.0691,-168.7199 593.1501,-168 527.4236,-151.7906 508.5696,-155.6788 445.1501,-132 439.9494,-130.0582 380.3421,-99.0364 344.3326,-80.224"/>
<polygon fill="#191970" stroke="#191970" points="345.7837,-77.0332 335.3,-75.5026 342.541,-83.2369 345.7837,-77.0332"/>
</g>
<!-- Node17 -->
<g id="node18" class="node">
<title>Node17</title>
<polygon fill="#ffffff" stroke="#bfbfbf" points="740.1501,-.5 740.1501,-19.5 780.1501,-19.5 780.1501,-.5 740.1501,-.5"/>
<text text-anchor="middle" x="760.1501" y="-7.5" font-family="Helvetica,sans-Serif" font-size="10.00" fill="#000000">utility</text>
</g>
<!-- Node8&#45;&gt;Node17 -->
<g id="edge21" class="edge">
<title>Node8&#45;&gt;Node17</title>
<path fill="none" stroke="#191970" d="M664.2465,-169.2941C708.4033,-156.8731 784.5803,-135.2051 790.1501,-132 821.4857,-113.9682 834.8805,-109.218 849.1501,-76 861.7016,-46.7817 820.9302,-27.7772 790.4687,-17.9793"/>
<polygon fill="#191970" stroke="#191970" points="791.2103,-14.5472 780.6254,-15.008 789.1873,-21.2486 791.2103,-14.5472"/>
</g>
<!-- Node18 -->
<g id="node19" class="node">
<title>Node18</title>
<g id="a_node19"><a xlink:href="graph_8hpp.html" target="_top" xlink:title="xnetwork/classes/graph.hpp">
<polygon fill="#ffffff" stroke="#000000" points="453.6501,-112.5 453.6501,-131.5 592.6501,-131.5 592.6501,-112.5 453.6501,-112.5"/>
<text text-anchor="middle" x="523.1501" y="-119.5" font-family="Helvetica,sans-Serif" font-size="10.00" fill="#000000">xnetwork/classes/graph.hpp</text>
</a>
</g>
</g>
<!-- Node8&#45;&gt;Node18 -->
<g id="edge23" class="edge">
<title>Node8&#45;&gt;Node18</title>
<path fill="none" stroke="#191970" d="M613.9896,-168.2455C596.639,-159.4125 570.8601,-146.2887 551.1918,-136.2758"/>
<polygon fill="#191970" stroke="#191970" points="552.5906,-133.0605 542.0911,-131.6427 549.4148,-139.2986 552.5906,-133.0605"/>
</g>
<!-- Node12&#45;&gt;Node6 -->
<g id="edge17" class="edge">
<title>Node12&#45;&gt;Node6</title>
<path fill="none" stroke="#191970" d="M277.0192,-56.4369C234.1784,-46.228 166.6361,-30.1328 123.3789,-19.8247"/>
<polygon fill="#191970" stroke="#191970" points="124.0077,-16.3766 113.4688,-17.4632 122.385,-23.186 124.0077,-16.3766"/>
</g>
<!-- Node13 -->
<g id="node14" class="node">
<title>Node13</title>
<polygon fill="#ffffff" stroke="#bfbfbf" points="540.6501,-.5 540.6501,-19.5 613.6501,-19.5 613.6501,-.5 540.6501,-.5"/>
<text text-anchor="middle" x="577.1501" y="-7.5" font-family="Helvetica,sans-Serif" font-size="10.00" fill="#000000">initializer_list</text>
</g>
<!-- Node12&#45;&gt;Node13 -->
<g id="edge15" class="edge">
<title>Node12&#45;&gt;Node13</title>
<path fill="none" stroke="#191970" d="M361.5503,-56.4369C408.6716,-46.2877 482.8037,-30.3208 530.6934,-20.0061"/>
<polygon fill="#191970" stroke="#191970" points="531.4562,-23.4221 540.495,-17.8949 529.9822,-16.579 531.4562,-23.4221"/>
</g>
<!-- Node14 -->
<g id="node15" class="node">
<title>Node14</title>
<polygon fill="#ffffff" stroke="#bfbfbf" points="219.1501,-.5 219.1501,-19.5 257.1501,-19.5 257.1501,-.5 219.1501,-.5"/>
<text text-anchor="middle" x="238.1501" y="-7.5" font-family="Helvetica,sans-Serif" font-size="10.00" fill="#000000">tuple</text>
</g>
<!-- Node12&#45;&gt;Node14 -->
<g id="edge16" class="edge">
<title>Node12&#45;&gt;Node14</title>
<path fill="none" stroke="#191970" d="M303.3894,-56.2455C291.4949,-47.814 274.0851,-35.4729 260.2416,-25.6598"/>
<polygon fill="#191970" stroke="#191970" points="261.9355,-22.5704 251.7532,-19.6427 257.8873,-28.2811 261.9355,-22.5704"/>
</g>
<!-- Node15 -->
<g id="node16" class="node">
<title>Node15</title>
<polygon fill="#ffffff" stroke="#bfbfbf" points="275.6501,-.5 275.6501,-19.5 358.6501,-19.5 358.6501,-.5 275.6501,-.5"/>
<text text-anchor="middle" x="317.1501" y="-7.5" font-family="Helvetica,sans-Serif" font-size="10.00" fill="#000000">unordered_map</text>
</g>
<!-- Node12&#45;&gt;Node15 -->
<g id="edge18" class="edge">
<title>Node12&#45;&gt;Node15</title>
<path fill="none" stroke="#191970" d="M317.1501,-56.2455C317.1501,-48.9382 317.1501,-38.6944 317.1501,-29.7046"/>
<polygon fill="#191970" stroke="#191970" points="320.6502,-29.6426 317.1501,-19.6427 313.6502,-29.6427 320.6502,-29.6426"/>
</g>
<!-- Node16 -->
<g id="node17" class="node">
<title>Node16</title>
<polygon fill="#ffffff" stroke="#bfbfbf" points="377.1501,-.5 377.1501,-19.5 455.1501,-19.5 455.1501,-.5 377.1501,-.5"/>
<text text-anchor="middle" x="416.1501" y="-7.5" font-family="Helvetica,sans-Serif" font-size="10.00" fill="#000000">unordered_set</text>
</g>
<!-- Node12&#45;&gt;Node16 -->
<g id="edge19" class="edge">
<title>Node12&#45;&gt;Node16</title>
<path fill="none" stroke="#191970" d="M334.3946,-56.2455C349.7262,-47.5731 372.37,-34.7645 389.9417,-24.825"/>
<polygon fill="#191970" stroke="#191970" points="392.1225,-27.6126 399.1033,-19.6427 388.676,-21.5198 392.1225,-27.6126"/>
</g>
<!-- Node12&#45;&gt;Node17 -->
<g id="edge20" class="edge">
<title>Node12&#45;&gt;Node17</title>
<path fill="none" stroke="#191970" d="M367.8639,-57.3807C371.0039,-56.8988 374.1186,-56.4344 377.1501,-56 508.0833,-37.236 664.954,-20.045 729.8067,-13.1685"/>
<polygon fill="#191970" stroke="#191970" points="730.1847,-16.6481 739.7619,-12.1174 729.4497,-9.6868 730.1847,-16.6481"/>
</g>
<!-- Node18&#45;&gt;Node5 -->
<g id="edge25" class="edge">
<title>Node18&#45;&gt;Node5</title>
<path fill="none" stroke="#191970" d="M453.6274,-113.2762C392.807,-105.1756 302.2322,-91.9765 224.1501,-76 222.6949,-75.7022 221.2126,-75.385 219.7177,-75.0536"/>
<polygon fill="#191970" stroke="#191970" points="220.3596,-71.609 209.8228,-72.7166 218.7505,-78.4216 220.3596,-71.609"/>
</g>
<!-- Node18&#45;&gt;Node6 -->
<g id="edge27" class="edge">
<title>Node18&#45;&gt;Node6</title>
<path fill="none" stroke="#191970" d="M453.4043,-115.7689C398.9082,-109.5193 321.8237,-97.615 257.1501,-76 238.675,-69.8253 236.092,-63.5858 218.1501,-56 186.7647,-42.7303 150.1154,-30.5149 122.7751,-22.012"/>
<polygon fill="#191970" stroke="#191970" points="123.7375,-18.6463 113.1505,-19.0522 121.6799,-25.337 123.7375,-18.6463"/>
</g>
<!-- Node18&#45;&gt;Node7 -->
<g id="edge28" class="edge">
<title>Node18&#45;&gt;Node7</title>
<path fill="none" stroke="#191970" d="M592.9045,-112.5605C644.0437,-105.0168 715.2561,-93.2199 785.9381,-76.0451"/>
<polygon fill="#191970" stroke="#191970" points="787.0355,-79.3794 795.906,-73.5858 785.3587,-72.5832 787.0355,-79.3794"/>
</g>
<!-- Node18&#45;&gt;Node12 -->
<g id="edge26" class="edge">
<title>Node18&#45;&gt;Node12</title>
<path fill="none" stroke="#191970" d="M487.7375,-112.3733C452.8896,-102.9001 399.5619,-88.4032 361.8208,-78.1435"/>
<polygon fill="#191970" stroke="#191970" points="362.6686,-74.747 352.1007,-75.5011 360.8323,-81.5019 362.6686,-74.747"/>
</g>
<!-- Node19 -->
<g id="node20" class="node">
<title>Node19</title>
<polygon fill="#ffffff" stroke="#bfbfbf" points="746.1501,-56.5 746.1501,-75.5 778.1501,-75.5 778.1501,-56.5 746.1501,-56.5"/>
<text text-anchor="middle" x="762.1501" y="-63.5" font-family="Helvetica,sans-Serif" font-size="10.00" fill="#000000">any</text>
</g>
<!-- Node18&#45;&gt;Node19 -->
<g id="edge24" class="edge">
<title>Node18&#45;&gt;Node19</title>
<path fill="none" stroke="#191970" d="M580.1373,-112.4594C621.3473,-104.9454 678.4076,-93.2801 736.2247,-75.9173"/>
<polygon fill="#191970" stroke="#191970" points="737.3452,-79.2347 745.8852,-72.9643 735.2989,-72.5405 737.3452,-79.2347"/>
</g>
<!-- Node20 -->
<g id="node21" class="node">
<title>Node20</title>
<g id="a_node21"><a xlink:href="coreviews_8hpp.html" target="_top" xlink:title="xnetwork/classes/coreviews.hpp">
<polygon fill="#ffffff" stroke="#000000" points="385.6501,-56.5 385.6501,-75.5 544.6501,-75.5 544.6501,-56.5 385.6501,-56.5"/>
<text text-anchor="middle" x="465.1501" y="-63.5" font-family="Helvetica,sans-Serif" font-size="10.00" fill="#000000">xnetwork/classes/coreviews.hpp</text>
</a>
</g>
</g>
<!-- Node18&#45;&gt;Node20 -->
<g id="edge29" class="edge">
<title>Node18&#45;&gt;Node20</title>
<path fill="none" stroke="#191970" d="M513.0473,-112.2455C504.6473,-104.1352 492.5008,-92.4075 482.5418,-82.7919"/>
<polygon fill="#191970" stroke="#191970" points="484.7623,-80.0707 475.1372,-75.6427 479.9001,-85.1066 484.7623,-80.0707"/>
</g>
<!-- Node21 -->
<g id="node22" class="node">
<title>Node21</title>
<g id="a_node22"><a xlink:href="reportviews_8hpp.html" target="_top" xlink:title="xnetwork/classes/reportviews.hpp">
<polygon fill="#ffffff" stroke="#000000" points="562.6501,-56.5 562.6501,-75.5 727.6501,-75.5 727.6501,-56.5 562.6501,-56.5"/>
<text text-anchor="middle" x="645.1501" y="-63.5" font-family="Helvetica,sans-Serif" font-size="10.00" fill="#000000">xnetwork/classes/reportviews.hpp</text>
</a>
</g>
</g>
<!-- Node18&#45;&gt;Node21 -->
<g id="edge30" class="edge">
<title>Node18&#45;&gt;Node21</title>
<path fill="none" stroke="#191970" d="M544.1227,-112.3733C563.7069,-103.3838 593.1462,-89.8706 615.2011,-79.7471"/>
<polygon fill="#191970" stroke="#191970" points="616.8231,-82.8538 624.4513,-75.5011 613.9028,-76.4919 616.8231,-82.8538"/>
</g>
<!-- Node21&#45;&gt;Node13 -->
<g id="edge31" class="edge">
<title>Node21&#45;&gt;Node13</title>
<path fill="none" stroke="#191970" d="M633.3054,-56.2455C623.2622,-47.9746 608.6507,-35.9416 596.8498,-26.2232"/>
<polygon fill="#191970" stroke="#191970" points="598.8034,-23.298 588.8591,-19.6427 594.3534,-28.7015 598.8034,-23.298"/>
</g>
<!-- Node24&#45;&gt;Node3 -->
<g id="edge38" class="edge">
<title>Node24&#45;&gt;Node3</title>
<path fill="none" stroke="#191970" d="M569.1691,-224.4509C516.7323,-204.4069 395.1198,-157.9202 335.4371,-135.1063"/>
<polygon fill="#191970" stroke="#191970" points="336.6585,-131.8262 326.0679,-131.5249 334.159,-138.3648 336.6585,-131.8262"/>
</g>
<!-- Node24&#45;&gt;Node8 -->
<g id="edge39" class="edge">
<title>Node24&#45;&gt;Node8</title>
<path fill="none" stroke="#191970" d="M600.9434,-224.2455C606.368,-216.4564 614.1162,-205.3308 620.6535,-195.9439"/>
<polygon fill="#191970" stroke="#191970" points="623.5918,-197.849 626.4347,-187.6427 617.8476,-193.8485 623.5918,-197.849"/>
</g>
<!-- Node24&#45;&gt;Node10 -->
<g id="edge43" class="edge">
<title>Node24&#45;&gt;Node10</title>
<path fill="none" stroke="#191970" d="M624.8984,-224.4855C652.0992,-215.8047 692.7023,-202.1988 727.1501,-188 766.0153,-171.9804 809.5333,-150.3559 836.881,-136.2961"/>
<polygon fill="#191970" stroke="#191970" points="838.5709,-139.3625 845.8457,-131.66 835.3554,-133.1448 838.5709,-139.3625"/>
</g>
<!-- Node25 -->
<g id="node26" class="node">
<title>Node25</title>
<g id="a_node26"><a xlink:href="robin_8hpp.html" target="_top" xlink:title="robin.hpp">
<polygon fill="#ffffff" stroke="#000000" points="528.1501,-168.5 528.1501,-187.5 584.1501,-187.5 584.1501,-168.5 528.1501,-168.5"/>
<text text-anchor="middle" x="556.1501" y="-175.5" font-family="Helvetica,sans-Serif" font-size="10.00" fill="#000000">robin.hpp</text>
</a>
</g>
</g>
<!-- Node24&#45;&gt;Node25 -->
<g id="edge40" class="edge">
<title>Node24&#45;&gt;Node25</title>
<path fill="none" stroke="#191970" d="M587.531,-224.2455C582.2456,-216.4564 574.696,-205.3308 568.3264,-195.9439"/>
<polygon fill="#191970" stroke="#191970" points="571.2046,-193.9522 562.6934,-187.6427 565.4123,-197.8827 571.2046,-193.9522"/>
</g>
<!-- Node25&#45;&gt;Node3 -->
<g id="edge41" class="edge">
<title>Node25&#45;&gt;Node3</title>
<path fill="none" stroke="#191970" d="M528.1073,-172.412C486.8312,-164.1001 407.3399,-147.7615 340.1501,-132 339.8184,-131.9222 339.4851,-131.8437 339.1505,-131.7646"/>
<polygon fill="#191970" stroke="#191970" points="339.7795,-128.3155 329.2352,-129.3484 338.1222,-135.1165 339.7795,-128.3155"/>
</g>
<!-- Node25&#45;&gt;Node7 -->
<g id="edge42" class="edge">
<title>Node25&#45;&gt;Node7</title>
<path fill="none" stroke="#191970" d="M572.6065,-168.4226C596.4547,-154.7818 642.2496,-129.4777 683.1501,-112 692.8539,-107.8534 749.4977,-88.8313 786.2629,-76.5839"/>
<polygon fill="#191970" stroke="#191970" points="787.6666,-79.8056 796.05,-73.3272 785.4564,-73.1637 787.6666,-79.8056"/>
</g>
</g>
</svg>
        <g id="navigator" transform="translate(0 0)" fill="#404254">
                <rect fill="#f2f5e9" fill-opacity="0.5" stroke="#606060" stroke-width=".5" x="0" y="0" width="60" height="60"/>
                <use id="zoomplus" xlink:href="#zoomPlus" x="17" y="9" onmousedown="handleZoom(evt,'in')"/>
                <use id="zoomminus" xlink:href="#zoomMin" x="42" y="9" onmousedown="handleZoom(evt,'out')"/>
                <use id="reset" xlink:href="#resetDef" x="30" y="36" onmousedown="handleReset()"/>
                <g id="arrowUp" xlink:href="#dirArrow" transform="translate(30 24)" onmousedown="handlePan(0,-1)">
                  <use xlink:href="#rim" fill="#404040">
                        <set attributeName="fill" to="#808080" begin="arrowUp.mouseover" end="arrowUp.mouseout"/>
                  </use>
                  <path fill="none" stroke="white" stroke-width="1.5" d="M0,-3.0v7 M-2.5,-0.5L0,-3.0L2.5,-0.5"/>
                </g>
                <g id="arrowRight" xlink:href="#dirArrow" transform="rotate(90) translate(36 -43)" onmousedown="handlePan(1,0)">
                  <use xlink:href="#rim" fill="#404040">
                        <set attributeName="fill" to="#808080" begin="arrowRight.mouseover" end="arrowRight.mouseout"/>
                  </use>
                  <path fill="none" stroke="white" stroke-width="1.5" d="M0,-3.0v7 M-2.5,-0.5L0,-3.0L2.5,-0.5"/>
                </g>
                <g id="arrowDown" xlink:href="#dirArrow" transform="rotate(180) translate(-30 -48)" onmousedown="handlePan(0,1)">
                  <use xlink:href="#rim" fill="#404040">
                        <set attributeName="fill" to="#808080" begin="arrowDown.mouseover" end="arrowDown.mouseout"/>
                  </use>
                  <path fill="none" stroke="white" stroke-width="1.5" d="M0,-3.0v7 M-2.5,-0.5L0,-3.0L2.5,-0.5"/>
                </g>
                <g id="arrowLeft" xlink:href="#dirArrow" transform="rotate(270) translate(-36 17)" onmousedown="handlePan(-1,0)">
                  <use xlink:href="#rim" fill="#404040">
                        <set attributeName="fill" to="#808080" begin="arrowLeft.mouseover" end="arrowLeft.mouseout"/>
                  </use>
                  <path fill="none" stroke="white" stroke-width="1.5" d="M0,-3.0v7 M-2.5,-0.5L0,-3.0L2.5,-0.5"/>
                </g>
        </g>
        <svg viewBox="0 0 15 15" width="100%" height="30px" preserveAspectRatio="xMaxYMin meet">
         <g id="arrow_out" transform="scale(0.3 0.3)">
          <a xlink:href="FMKWayGainMgr_8hpp__incl_org.svg" target="_base">
           <rect id="button" ry="5" rx="5" y="6" x="6" height="38" width="38"
                fill="#f2f5e9" fill-opacity="0.5" stroke="#606060" stroke-width="1.0"/>
           <path id="arrow"
             d="M 11.500037,31.436501 C 11.940474,20.09759 22.043105,11.32322 32.158766,21.979434 L 37.068811,17.246167 C 37.068811,17.246167 37.088388,32 37.088388,32 L 22.160133,31.978069 C 22.160133,31.978069 26.997745,27.140456 26.997745,27.140456 C 18.528582,18.264221 13.291696,25.230495 11.500037,31.436501 z"
             style="fill:#404040;"/>
          </a>
         </g>
        </svg>
</svg>
