<?xml version="1.0" encoding="UTF-8" standalone="no"?>
<!DOCTYPE svg PUBLIC "-//W3C//DTD SVG 1.1//EN"
 "http://www.w3.org/Graphics/SVG/1.1/DTD/svg11.dtd">
<!-- Generated by graphviz version 2.40.1 (20161225.0304)
 -->
<!-- Title: lib/src/FMKWayGainMgr.cpp Pages: 1 -->
<!--zoomable 364 -->
<svg id="main" version="1.1" xmlns="http://www.w3.org/2000/svg" xmlns:xlink="http://www.w3.org/1999/xlink" xml:space="preserve" onload="init(evt)">
<style type="text/css"><![CDATA[
.edge:hover path { stroke: red; }
.edge:hover polygon { stroke: red; fill: red; }
]]></style>
<script type="text/javascript"><![CDATA[
var edges = document.getElementsByTagName('g');
if (edges && edges.length) {
  for (var i=0;i<edges.length;i++) {
    if (edges[i].id.substr(0,4)=='edge') {
      edges[i].setAttribute('class','edge');
    }
  }
}
]]></script>
        <defs>
                <circle id="rim" cx="0" cy="0" r="7"/>
                <circle id="rim2" cx="0" cy="0" r="3.5"/>
                <g id="zoomPlus">
                        <use xlink:href="#rim" fill="#404040">
                                <set attributeName="fill" to="#808080" begin="zoomplus.mouseover" end="zoomplus.mouseout"/>
                        </use>
                        <path d="M-4,0h8M0,-4v8" fill="none" stroke="white" stroke-width="1.5" pointer-events="none"/>
                </g>
                <g id="zoomMin">
                        <use xlink:href="#rim" fill="#404040">
                                <set attributeName="fill" to="#808080" begin="zoomminus.mouseover" end="zoomminus.mouseout"/>
                        </use>
                        <path d="M-4,0h8" fill="none" stroke="white" stroke-width="1.5" pointer-events="none"/>
                </g>
                <g id="dirArrow">
                        <path fill="none" stroke="white" stroke-width="1.5" d="M0,-3.0v7 M-2.5,-0.5L0,-3.0L2.5,-0.5"/>
                </g>
               <g id="resetDef">
                       <use xlink:href="#rim2" fill="#404040">
                               <set attributeName="fill" to="#808080" begin="reset.mouseover" end="reset.mouseout"/>
                       </use>
               </g>
        </defs>

<script type="text/javascript">
var viewWidth = 957;
var viewHeight = 364;
var sectionId = 'dynsection-0';
</script>
<script xlink:href="svgpan.js"/>
<svg id="graph" class="graph">
<g id="viewport">
<title>lib/src/FMKWayGainMgr.cpp</title>
<polygon fill="#ffffff" stroke="transparent" points="-4,4 -4,-360 953.272,-360 953.272,4 -4,4"/>
<!-- Node0 -->
<g id="node1" class="node">
<title>Node0</title>
<polygon fill="#bfbfbf" stroke="#000000" points="264,-336.5 264,-355.5 407,-355.5 407,-336.5 264,-336.5"/>
<text text-anchor="middle" x="335.5" y="-343.5" font-family="Helvetica,sans-Serif" font-size="10.00" fill="#000000">lib/src/FMKWayGainMgr.cpp</text>
</g>
<!-- Node1 -->
<g id="node2" class="node">
<title>Node1</title>
<g id="a_node2"><a xlink:href="FMKWayGainCalc_8hpp.html" target="_top" xlink:title="ckpttncpp/FMKWayGainCalc.hpp">
<polygon fill="#ffffff" stroke="#000000" points="255,-224.5 255,-243.5 418,-243.5 418,-224.5 255,-224.5"/>
<text text-anchor="middle" x="336.5" y="-231.5" font-family="Helvetica,sans-Serif" font-size="10.00" fill="#000000">ckpttncpp/FMKWayGainCalc.hpp</text>
</a>
</g>
</g>
<!-- Node0&#45;&gt;Node1 -->
<g id="edge1" class="edge">
<title>Node0&#45;&gt;Node1</title>
<path fill="none" stroke="#191970" d="M346.059,-336.2076C354.5009,-327.6048 365.6906,-314.2634 370.5,-300 376.3106,-282.7671 365.3883,-264.4816 354.4125,-251.5384"/>
<polygon fill="#191970" stroke="#191970" points="356.7101,-248.8659 347.3676,-243.8691 351.555,-253.6014 356.7101,-248.8659"/>
</g>
<!-- Node22 -->
<g id="node23" class="node">
<title>Node22</title>
<g id="a_node23"><a xlink:href="FMKWayGainMgr_8hpp.html" target="_top" xlink:title="ckpttncpp/FMKWayGainMgr.hpp">
<polygon fill="#ffffff" stroke="#000000" points="203,-280.5 203,-299.5 362,-299.5 362,-280.5 203,-280.5"/>
<text text-anchor="middle" x="282.5" y="-287.5" font-family="Helvetica,sans-Serif" font-size="10.00" fill="#000000">ckpttncpp/FMKWayGainMgr.hpp</text>
</a>
</g>
</g>
<!-- Node0&#45;&gt;Node22 -->
<g id="edge31" class="edge">
<title>Node0&#45;&gt;Node22</title>
<path fill="none" stroke="#191970" d="M326.2681,-336.2455C318.6683,-328.2155 307.7123,-316.6394 298.6632,-307.0781"/>
<polygon fill="#191970" stroke="#191970" points="301.042,-304.4998 291.6261,-299.6427 295.9579,-309.3115 301.042,-304.4998"/>
</g>
<!-- Node2 -->
<g id="node3" class="node">
<title>Node2</title>
<g id="a_node3"><a xlink:href="dllist_8hpp.html" target="_top" xlink:title="dllist.hpp">
<polygon fill="#ffffff" stroke="#000000" points="593.5,-112.5 593.5,-131.5 649.5,-131.5 649.5,-112.5 593.5,-112.5"/>
<text text-anchor="middle" x="621.5" y="-119.5" font-family="Helvetica,sans-Serif" font-size="10.00" fill="#000000">dllist.hpp</text>
</a>
</g>
</g>
<!-- Node1&#45;&gt;Node2 -->
<g id="edge2" class="edge">
<title>Node1&#45;&gt;Node2</title>
<path fill="none" stroke="#191970" d="M360.7989,-224.4509C411.6988,-204.4482 529.6085,-158.1117 587.7893,-135.2477"/>
<polygon fill="#191970" stroke="#191970" points="589.2356,-138.44 597.2626,-131.5249 586.6753,-131.925 589.2356,-138.44"/>
</g>
<!-- Node5 -->
<g id="node6" class="node">
<title>Node5</title>
<g id="a_node6"><a xlink:href="netlist_8hpp.html" target="_top" xlink:title="netlist.hpp">
<polygon fill="#ffffff" stroke="#000000" points="267.5,-168.5 267.5,-187.5 329.5,-187.5 329.5,-168.5 267.5,-168.5"/>
<text text-anchor="middle" x="298.5" y="-175.5" font-family="Helvetica,sans-Serif" font-size="10.00" fill="#000000">netlist.hpp</text>
</a>
</g>
</g>
<!-- Node1&#45;&gt;Node5 -->
<g id="edge5" class="edge">
<title>Node1&#45;&gt;Node5</title>
<path fill="none" stroke="#191970" d="M329.8809,-224.2455C324.5954,-216.4564 317.0459,-205.3308 310.6762,-195.9439"/>
<polygon fill="#191970" stroke="#191970" points="313.5545,-193.9522 305.0432,-187.6427 307.7621,-197.8827 313.5545,-193.9522"/>
</g>
<!-- Node7 -->
<g id="node8" class="node">
<title>Node7</title>
<polygon fill="#ffffff" stroke="#bfbfbf" points="0,-112.5 0,-131.5 53,-131.5 53,-112.5 0,-112.5"/>
<text text-anchor="middle" x="26.5" y="-119.5" font-family="Helvetica,sans-Serif" font-size="10.00" fill="#000000">gsl/span</text>
</g>
<!-- Node1&#45;&gt;Node7 -->
<g id="edge30" class="edge">
<title>Node1&#45;&gt;Node7</title>
<path fill="none" stroke="#191970" d="M309.3001,-224.3641C283.1792,-215.0956 242.6166,-200.6634 207.5,-188 157.0257,-169.7985 98.7361,-148.4922 62.2455,-135.1194"/>
<polygon fill="#191970" stroke="#191970" points="63.1496,-131.7231 52.556,-131.5671 60.7402,-138.2954 63.1496,-131.7231"/>
</g>
<!-- Node21 -->
<g id="node22" class="node">
<title>Node21</title>
<g id="a_node22"><a xlink:href="robin_8hpp.html" target="_top" xlink:title="robin.hpp">
<polygon fill="#ffffff" stroke="#000000" points="347.5,-168.5 347.5,-187.5 403.5,-187.5 403.5,-168.5 347.5,-168.5"/>
<text text-anchor="middle" x="375.5" y="-175.5" font-family="Helvetica,sans-Serif" font-size="10.00" fill="#000000">robin.hpp</text>
</a>
</g>
</g>
<!-- Node1&#45;&gt;Node21 -->
<g id="edge27" class="edge">
<title>Node1&#45;&gt;Node21</title>
<path fill="none" stroke="#191970" d="M343.2933,-224.2455C348.7178,-216.4564 356.4661,-205.3308 363.0033,-195.9439"/>
<polygon fill="#191970" stroke="#191970" points="365.9417,-197.849 368.7846,-187.6427 360.1975,-193.8485 365.9417,-197.849"/>
</g>
<!-- Node3 -->
<g id="node4" class="node">
<title>Node3</title>
<polygon fill="#ffffff" stroke="#bfbfbf" points="733.5,-56.5 733.5,-75.5 853.5,-75.5 853.5,-56.5 733.5,-56.5"/>
<text text-anchor="middle" x="793.5" y="-63.5" font-family="Helvetica,sans-Serif" font-size="10.00" fill="#000000">boost/coroutine2/all.hpp</text>
</g>
<!-- Node2&#45;&gt;Node3 -->
<g id="edge3" class="edge">
<title>Node2&#45;&gt;Node3</title>
<path fill="none" stroke="#191970" d="M649.5176,-112.878C677.9491,-103.6212 722.2065,-89.2118 754.1505,-78.8115"/>
<polygon fill="#191970" stroke="#191970" points="755.6284,-82.0112 764.0536,-75.5872 753.4613,-75.3551 755.6284,-82.0112"/>
</g>
<!-- Node4 -->
<g id="node5" class="node">
<title>Node4</title>
<polygon fill="#ffffff" stroke="#bfbfbf" points="872,-56.5 872,-75.5 921,-75.5 921,-56.5 872,-56.5"/>
<text text-anchor="middle" x="896.5" y="-63.5" font-family="Helvetica,sans-Serif" font-size="10.00" fill="#000000">cassert</text>
</g>
<!-- Node2&#45;&gt;Node4 -->
<g id="edge4" class="edge">
<title>Node2&#45;&gt;Node4</title>
<path fill="none" stroke="#191970" d="M649.5216,-117.5634C692.9338,-110.4939 779.2144,-95.6633 861.8922,-75.9624"/>
<polygon fill="#191970" stroke="#191970" points="862.7918,-79.3459 871.6929,-73.5996 861.1511,-72.5409 862.7918,-79.3459"/>
</g>
<!-- Node6 -->
<g id="node7" class="node">
<title>Node6</title>
<polygon fill="#ffffff" stroke="#bfbfbf" points="147.5,-112.5 147.5,-131.5 203.5,-131.5 203.5,-112.5 147.5,-112.5"/>
<text text-anchor="middle" x="175.5" y="-119.5" font-family="Helvetica,sans-Serif" font-size="10.00" fill="#000000">algorithm</text>
</g>
<!-- Node5&#45;&gt;Node6 -->
<g id="edge6" class="edge">
<title>Node5&#45;&gt;Node6</title>
<path fill="none" stroke="#191970" d="M277.3555,-168.3733C257.6108,-159.3838 227.9302,-145.8706 205.6945,-135.7471"/>
<polygon fill="#191970" stroke="#191970" points="206.92,-132.4594 196.3685,-131.5011 204.0194,-138.8302 206.92,-132.4594"/>
</g>
<!-- Node5&#45;&gt;Node7 -->
<g id="edge7" class="edge">
<title>Node5&#45;&gt;Node7</title>
<path fill="none" stroke="#191970" d="M267.4001,-172.2435C222.9565,-163.918 138.7655,-147.7791 67.5,-132 66.0693,-131.6832 64.6119,-131.3549 63.1407,-131.0188"/>
<polygon fill="#191970" stroke="#191970" points="63.903,-127.6027 53.368,-128.7269 62.3047,-134.4178 63.903,-127.6027"/>
</g>
<!-- Node8 -->
<g id="node9" class="node">
<title>Node8</title>
<polygon fill="#ffffff" stroke="#bfbfbf" points="493,-112.5 493,-131.5 540,-131.5 540,-112.5 493,-112.5"/>
<text text-anchor="middle" x="516.5" y="-119.5" font-family="Helvetica,sans-Serif" font-size="10.00" fill="#000000">iterator</text>
</g>
<!-- Node5&#45;&gt;Node8 -->
<g id="edge8" class="edge">
<title>Node5&#45;&gt;Node8</title>
<path fill="none" stroke="#191970" d="M329.5076,-170.2428C332.546,-169.4843 335.5827,-168.7268 338.5,-168 399.9112,-152.7001 417.8264,-149.8812 482.809,-132.0915"/>
<polygon fill="#191970" stroke="#191970" points="484.0367,-135.3838 492.7489,-129.3549 482.1785,-128.6349 484.0367,-135.3838"/>
</g>
<!-- Node9 -->
<g id="node10" class="node">
<title>Node9</title>
<g id="a_node10"><a xlink:href="py2cpp_8hpp.html" target="_top" xlink:title="py2cpp/py2cpp.hpp">
<polygon fill="#ffffff" stroke="#000000" points="166,-56.5 166,-75.5 267,-75.5 267,-56.5 166,-56.5"/>
<text text-anchor="middle" x="216.5" y="-63.5" font-family="Helvetica,sans-Serif" font-size="10.00" fill="#000000">py2cpp/py2cpp.hpp</text>
</a>
</g>
</g>
<!-- Node5&#45;&gt;Node9 -->
<g id="edge9" class="edge">
<title>Node5&#45;&gt;Node9</title>
<path fill="none" stroke="#191970" d="M291.5087,-168.4509C277.7716,-149.688 247.0704,-107.7548 229.5014,-83.758"/>
<polygon fill="#191970" stroke="#191970" points="232.205,-81.5259 223.4736,-75.5249 226.557,-85.6611 232.205,-81.5259"/>
</g>
<!-- Node15 -->
<g id="node16" class="node">
<title>Node15</title>
<polygon fill="#ffffff" stroke="#bfbfbf" points="55.5,-.5 55.5,-19.5 95.5,-19.5 95.5,-.5 55.5,-.5"/>
<text text-anchor="middle" x="75.5" y="-7.5" font-family="Helvetica,sans-Serif" font-size="10.00" fill="#000000">utility</text>
</g>
<!-- Node5&#45;&gt;Node15 -->
<g id="edge16" class="edge">
<title>Node5&#45;&gt;Node15</title>
<path fill="none" stroke="#191970" d="M267.433,-172.8544C223.6238,-165.0937 146.5646,-149.4349 124.5,-132 92.5473,-106.7518 81.3323,-57.4374 77.4693,-29.8664"/>
<polygon fill="#191970" stroke="#191970" points="80.9308,-29.3363 76.2563,-19.8284 73.9814,-30.1761 80.9308,-29.3363"/>
</g>
<!-- Node16 -->
<g id="node17" class="node">
<title>Node16</title>
<polygon fill="#ffffff" stroke="#bfbfbf" points="103.5,-56.5 103.5,-75.5 147.5,-75.5 147.5,-56.5 103.5,-56.5"/>
<text text-anchor="middle" x="125.5" y="-63.5" font-family="Helvetica,sans-Serif" font-size="10.00" fill="#000000">vector</text>
</g>
<!-- Node5&#45;&gt;Node16 -->
<g id="edge17" class="edge">
<title>Node5&#45;&gt;Node16</title>
<path fill="none" stroke="#191970" d="M267.4862,-173.0072C226.058,-165.7033 155.8468,-150.8966 138.5,-132 127.1719,-119.6598 124.4569,-100.4281 124.2595,-85.9016"/>
<polygon fill="#191970" stroke="#191970" points="127.7584,-85.9832 124.4983,-75.9024 120.7604,-85.816 127.7584,-85.9832"/>
</g>
<!-- Node17 -->
<g id="node18" class="node">
<title>Node17</title>
<g id="a_node18"><a xlink:href="graph_8hpp.html" target="_top" xlink:title="xnetwork/classes/graph.hpp">
<polygon fill="#ffffff" stroke="#000000" points="336,-112.5 336,-131.5 475,-131.5 475,-112.5 336,-112.5"/>
<text text-anchor="middle" x="405.5" y="-119.5" font-family="Helvetica,sans-Serif" font-size="10.00" fill="#000000">xnetwork/classes/graph.hpp</text>
</a>
</g>
</g>
<!-- Node5&#45;&gt;Node17 -->
<g id="edge18" class="edge">
<title>Node5&#45;&gt;Node17</title>
<path fill="none" stroke="#191970" d="M317.138,-168.2455C333.9386,-159.4527 358.8634,-146.4079 377.9618,-136.4125"/>
<polygon fill="#191970" stroke="#191970" points="379.8386,-139.3807 387.0756,-131.6427 376.5927,-133.1787 379.8386,-139.3807"/>
</g>
<!-- Node10 -->
<g id="node11" class="node">
<title>Node10</title>
<polygon fill="#ffffff" stroke="#bfbfbf" points="438,-.5 438,-19.5 511,-19.5 511,-.5 438,-.5"/>
<text text-anchor="middle" x="474.5" y="-7.5" font-family="Helvetica,sans-Serif" font-size="10.00" fill="#000000">initializer_list</text>
</g>
<!-- Node9&#45;&gt;Node10 -->
<g id="edge10" class="edge">
<title>Node9&#45;&gt;Node10</title>
<path fill="none" stroke="#191970" d="M260.5586,-56.4369C307.0855,-46.338 380.1503,-30.479 427.6916,-20.16"/>
<polygon fill="#191970" stroke="#191970" points="428.6939,-23.524 437.7239,-17.9824 427.209,-16.6833 428.6939,-23.524"/>
</g>
<!-- Node11 -->
<g id="node12" class="node">
<title>Node11</title>
<polygon fill="#ffffff" stroke="#bfbfbf" points="311.5,-.5 311.5,-19.5 349.5,-19.5 349.5,-.5 311.5,-.5"/>
<text text-anchor="middle" x="330.5" y="-7.5" font-family="Helvetica,sans-Serif" font-size="10.00" fill="#000000">tuple</text>
</g>
<!-- Node9&#45;&gt;Node11 -->
<g id="edge11" class="edge">
<title>Node9&#45;&gt;Node11</title>
<path fill="none" stroke="#191970" d="M236.0973,-56.3733C254.2331,-47.4644 281.4135,-34.1127 301.9587,-24.0203"/>
<polygon fill="#191970" stroke="#191970" points="303.7261,-27.0517 311.1584,-19.5011 300.6397,-20.7688 303.7261,-27.0517"/>
</g>
<!-- Node12 -->
<g id="node13" class="node">
<title>Node12</title>
<polygon fill="#ffffff" stroke="#bfbfbf" points="796.5,-.5 796.5,-19.5 858.5,-19.5 858.5,-.5 796.5,-.5"/>
<text text-anchor="middle" x="827.5" y="-7.5" font-family="Helvetica,sans-Serif" font-size="10.00" fill="#000000">type_traits</text>
</g>
<!-- Node9&#45;&gt;Node12 -->
<g id="edge12" class="edge">
<title>Node9&#45;&gt;Node12</title>
<path fill="none" stroke="#191970" d="M267.3082,-57.1074C270.0759,-56.7108 272.8201,-56.3382 275.5,-56 465.6676,-32.0043 694.3325,-17.489 786.2684,-12.2376"/>
<polygon fill="#191970" stroke="#191970" points="786.4921,-15.7306 796.2786,-11.6717 786.0969,-8.7418 786.4921,-15.7306"/>
</g>
<!-- Node13 -->
<g id="node14" class="node">
<title>Node13</title>
<polygon fill="#ffffff" stroke="#bfbfbf" points="114,-.5 114,-19.5 197,-19.5 197,-.5 114,-.5"/>
<text text-anchor="middle" x="155.5" y="-7.5" font-family="Helvetica,sans-Serif" font-size="10.00" fill="#000000">unordered_map</text>
</g>
<!-- Node9&#45;&gt;Node13 -->
<g id="edge13" class="edge">
<title>Node9&#45;&gt;Node13</title>
<path fill="none" stroke="#191970" d="M205.8746,-56.2455C196.9527,-48.0549 184.012,-36.1749 173.4808,-26.5069"/>
<polygon fill="#191970" stroke="#191970" points="175.7371,-23.8271 166.0036,-19.6427 171.0032,-28.9837 175.7371,-23.8271"/>
</g>
<!-- Node14 -->
<g id="node15" class="node">
<title>Node14</title>
<polygon fill="#ffffff" stroke="#bfbfbf" points="215.5,-.5 215.5,-19.5 293.5,-19.5 293.5,-.5 215.5,-.5"/>
<text text-anchor="middle" x="254.5" y="-7.5" font-family="Helvetica,sans-Serif" font-size="10.00" fill="#000000">unordered_set</text>
</g>
<!-- Node9&#45;&gt;Node14 -->
<g id="edge14" class="edge">
<title>Node9&#45;&gt;Node14</title>
<path fill="none" stroke="#191970" d="M223.1191,-56.2455C228.4046,-48.4564 235.9541,-37.3308 242.3238,-27.9439"/>
<polygon fill="#191970" stroke="#191970" points="245.2379,-29.8827 247.9568,-19.6427 239.4455,-25.9522 245.2379,-29.8827"/>
</g>
<!-- Node9&#45;&gt;Node15 -->
<g id="edge15" class="edge">
<title>Node9&#45;&gt;Node15</title>
<path fill="none" stroke="#191970" d="M192.2612,-56.3733C168.104,-46.7789 130.9722,-32.0315 105.0895,-21.7519"/>
<polygon fill="#191970" stroke="#191970" points="106.3568,-18.4893 95.771,-18.0509 103.7729,-24.995 106.3568,-18.4893"/>
</g>
<!-- Node17&#45;&gt;Node4 -->
<g id="edge20" class="edge">
<title>Node17&#45;&gt;Node4</title>
<path fill="none" stroke="#191970" d="M475.2275,-112.9455C478.0206,-112.6192 480.7863,-112.3028 483.5,-112 648.4571,-93.5965 694.6073,-107.4674 861.8726,-75.7717"/>
<polygon fill="#191970" stroke="#191970" points="862.5924,-79.1975 871.7525,-73.8737 861.2717,-72.3232 862.5924,-79.1975"/>
</g>
<!-- Node17&#45;&gt;Node9 -->
<g id="edge21" class="edge">
<title>Node17&#45;&gt;Node9</title>
<path fill="none" stroke="#191970" d="M373.0097,-112.3733C341.3098,-102.9807 292.9424,-88.6496 258.3714,-78.4064"/>
<polygon fill="#191970" stroke="#191970" points="259.1486,-74.9863 248.5663,-75.5011 257.1599,-81.6979 259.1486,-74.9863"/>
</g>
<!-- Node17&#45;&gt;Node12 -->
<g id="edge22" class="edge">
<title>Node17&#45;&gt;Node12</title>
<path fill="none" stroke="#191970" d="M470.5667,-112.4746C547.1218,-101.0907 666.4037,-82.735 686.5,-76 704.5961,-69.9354 707.3335,-64.3401 724.5,-56 748.0708,-44.5485 775.1413,-32.5007 795.6132,-23.6086"/>
<polygon fill="#191970" stroke="#191970" points="797.0127,-26.8168 804.8031,-19.6362 794.2352,-20.3914 797.0127,-26.8168"/>
</g>
<!-- Node17&#45;&gt;Node16 -->
<g id="edge23" class="edge">
<title>Node17&#45;&gt;Node16</title>
<path fill="none" stroke="#191970" d="M341.2968,-112.4825C293.0903,-104.8008 225.3342,-92.8716 157.723,-76.0722"/>
<polygon fill="#191970" stroke="#191970" points="158.3032,-72.609 147.751,-73.5582 156.592,-79.3967 158.3032,-72.609"/>
</g>
<!-- Node18 -->
<g id="node19" class="node">
<title>Node18</title>
<polygon fill="#ffffff" stroke="#bfbfbf" points="645.5,-56.5 645.5,-75.5 677.5,-75.5 677.5,-56.5 645.5,-56.5"/>
<text text-anchor="middle" x="661.5" y="-63.5" font-family="Helvetica,sans-Serif" font-size="10.00" fill="#000000">any</text>
</g>
<!-- Node17&#45;&gt;Node18 -->
<g id="edge19" class="edge">
<title>Node17&#45;&gt;Node18</title>
<path fill="none" stroke="#191970" d="M468.1777,-112.4233C514.8168,-104.5857 579.7688,-92.1637 635.5,-76 635.6016,-75.9705 635.7034,-75.9408 635.8053,-75.9109"/>
<polygon fill="#191970" stroke="#191970" points="637.0587,-79.182 645.418,-72.6724 634.8238,-72.5483 637.0587,-79.182"/>
</g>
<!-- Node19 -->
<g id="node20" class="node">
<title>Node19</title>
<g id="a_node20"><a xlink:href="coreviews_8hpp.html" target="_top" xlink:title="xnetwork/classes/coreviews.hpp">
<polygon fill="#ffffff" stroke="#000000" points="285,-56.5 285,-75.5 444,-75.5 444,-56.5 285,-56.5"/>
<text text-anchor="middle" x="364.5" y="-63.5" font-family="Helvetica,sans-Serif" font-size="10.00" fill="#000000">xnetwork/classes/coreviews.hpp</text>
</a>
</g>
</g>
<!-- Node17&#45;&gt;Node19 -->
<g id="edge24" class="edge">
<title>Node17&#45;&gt;Node19</title>
<path fill="none" stroke="#191970" d="M398.3583,-112.2455C392.6556,-104.4564 384.51,-93.3308 377.6375,-83.9439"/>
<polygon fill="#191970" stroke="#191970" points="380.2913,-81.6437 371.5598,-75.6427 374.6432,-85.7789 380.2913,-81.6437"/>
</g>
<!-- Node20 -->
<g id="node21" class="node">
<title>Node20</title>
<g id="a_node21"><a xlink:href="reportviews_8hpp.html" target="_top" xlink:title="xnetwork/classes/reportviews.hpp">
<polygon fill="#ffffff" stroke="#000000" points="462,-56.5 462,-75.5 627,-75.5 627,-56.5 462,-56.5"/>
<text text-anchor="middle" x="544.5" y="-63.5" font-family="Helvetica,sans-Serif" font-size="10.00" fill="#000000">xnetwork/classes/reportviews.hpp</text>
</a>
</g>
</g>
<!-- Node17&#45;&gt;Node20 -->
<g id="edge25" class="edge">
<title>Node17&#45;&gt;Node20</title>
<path fill="none" stroke="#191970" d="M429.395,-112.3733C452.0082,-103.2629 486.1542,-89.5062 511.3873,-79.3404"/>
<polygon fill="#191970" stroke="#191970" points="512.9493,-82.4845 520.9169,-75.5011 510.3334,-75.9917 512.9493,-82.4845"/>
</g>
<!-- Node20&#45;&gt;Node10 -->
<g id="edge26" class="edge">
<title>Node20&#45;&gt;Node10</title>
<path fill="none" stroke="#191970" d="M532.3069,-56.2455C521.8679,-47.8943 506.6345,-35.7076 494.426,-25.9408"/>
<polygon fill="#191970" stroke="#191970" points="496.5485,-23.1566 486.5533,-19.6427 492.1756,-28.6227 496.5485,-23.1566"/>
</g>
<!-- Node21&#45;&gt;Node2 -->
<g id="edge28" class="edge">
<title>Node21&#45;&gt;Node2</title>
<path fill="none" stroke="#191970" d="M403.7193,-171.5761C447.9029,-161.518 533.4882,-142.0352 583.197,-130.7194"/>
<polygon fill="#191970" stroke="#191970" points="584.2583,-134.0674 593.2319,-128.435 582.7045,-127.242 584.2583,-134.0674"/>
</g>
<!-- Node21&#45;&gt;Node16 -->
<g id="edge29" class="edge">
<title>Node21&#45;&gt;Node16</title>
<path fill="none" stroke="#191970" d="M348.006,-168.381C323.4684,-159.5796 286.6987,-145.8547 255.5,-132 218.8268,-115.7142 177.7211,-94.2887 151.7363,-80.3345"/>
<polygon fill="#191970" stroke="#191970" points="153.3456,-77.2258 142.8833,-75.5549 150.02,-83.3855 153.3456,-77.2258"/>
</g>
<!-- Node22&#45;&gt;Node1 -->
<g id="edge45" class="edge">
<title>Node22&#45;&gt;Node1</title>
<path fill="none" stroke="#191970" d="M291.9061,-280.2455C299.6493,-272.2155 310.812,-260.6394 320.0318,-251.0781"/>
<polygon fill="#191970" stroke="#191970" points="322.7798,-253.2706 327.2017,-243.6427 317.7409,-248.4117 322.7798,-253.2706"/>
</g>
<!-- Node22&#45;&gt;Node7 -->
<g id="edge46" class="edge">
<title>Node22&#45;&gt;Node7</title>
<path fill="none" stroke="#191970" d="M268.0028,-280.4862C225.596,-252.6567 101.5173,-171.2301 49.6784,-137.2108"/>
<polygon fill="#191970" stroke="#191970" points="51.4363,-134.1781 41.1555,-131.6177 47.5957,-140.0304 51.4363,-134.1781"/>
</g>
<!-- Node23 -->
<g id="node24" class="node">
<title>Node23</title>
<g id="a_node24"><a xlink:href="FMGainMgr_8hpp.html" target="_top" xlink:title="FMGainMgr.hpp">
<polygon fill="#ffffff" stroke="#000000" points="531.5,-224.5 531.5,-243.5 617.5,-243.5 617.5,-224.5 531.5,-224.5"/>
<text text-anchor="middle" x="574.5" y="-231.5" font-family="Helvetica,sans-Serif" font-size="10.00" fill="#000000">FMGainMgr.hpp</text>
</a>
</g>
</g>
<!-- Node22&#45;&gt;Node23 -->
<g id="edge32" class="edge">
<title>Node22&#45;&gt;Node23</title>
<path fill="none" stroke="#191970" d="M332.3648,-280.4369C385.0056,-270.3414 467.6616,-254.4896 521.4694,-244.1702"/>
<polygon fill="#191970" stroke="#191970" points="522.336,-247.5679 531.4978,-242.247 521.0175,-240.6932 522.336,-247.5679"/>
</g>
<!-- Node23&#45;&gt;Node2 -->
<g id="edge38" class="edge">
<title>Node23&#45;&gt;Node2</title>
<path fill="none" stroke="#191970" d="M576.4361,-224.3223C579.2487,-211.2057 585.0667,-187.2166 593.5,-168 597.7038,-158.4209 603.5818,-148.4278 608.8674,-140.2126"/>
<polygon fill="#191970" stroke="#191970" points="611.8335,-142.073 614.4625,-131.8095 606.0069,-138.1934 611.8335,-142.073"/>
</g>
<!-- Node23&#45;&gt;Node5 -->
<g id="edge39" class="edge">
<title>Node23&#45;&gt;Node5</title>
<path fill="none" stroke="#191970" d="M531.2945,-226.282C485.9937,-218.0335 412.5067,-204.2133 340.111,-188.2789"/>
<polygon fill="#191970" stroke="#191970" points="340.4265,-184.764 329.906,-186.0169 338.9116,-191.5981 340.4265,-184.764"/>
</g>
<!-- Node23&#45;&gt;Node7 -->
<g id="edge41" class="edge">
<title>Node23&#45;&gt;Node7</title>
<path fill="none" stroke="#191970" d="M531.4255,-229.915C470.2325,-223.6189 354.8579,-209.9241 258.5,-188 229.4417,-181.3884 223.0983,-176.3808 194.5,-168 149.3969,-154.7824 97.1363,-140.6589 63.0336,-131.6013"/>
<polygon fill="#191970" stroke="#191970" points="63.6238,-128.137 53.061,-128.9596 61.8313,-134.9036 63.6238,-128.137"/>
</g>
<!-- Node23&#45;&gt;Node8 -->
<g id="edge42" class="edge">
<title>Node23&#45;&gt;Node8</title>
<path fill="none" stroke="#191970" d="M569.555,-224.4509C559.9669,-205.936 538.6949,-164.8591 526.1936,-140.7187"/>
<polygon fill="#191970" stroke="#191970" points="529.1391,-138.7953 521.4325,-131.5249 522.9231,-142.0144 529.1391,-138.7953"/>
</g>
<!-- Node23&#45;&gt;Node12 -->
<g id="edge44" class="edge">
<title>Node23&#45;&gt;Node12</title>
<path fill="none" stroke="#191970" d="M617.6346,-229.1569C679.8936,-221.6632 791.4323,-206.2069 827.5,-188 892.337,-155.2704 917.6927,-142.6723 946.5,-76 961.876,-40.4134 908.6467,-23.3308 868.4454,-15.6518"/>
<polygon fill="#191970" stroke="#191970" points="869.0129,-12.1979 858.5551,-13.8966 867.7897,-19.0902 869.0129,-12.1979"/>
</g>
<!-- Node24 -->
<g id="node25" class="node">
<title>Node24</title>
<g id="a_node25"><a xlink:href="bpqueue_8hpp.html" target="_top" xlink:title="bpqueue.hpp">
<polygon fill="#ffffff" stroke="#000000" points="602.5,-168.5 602.5,-187.5 674.5,-187.5 674.5,-168.5 602.5,-168.5"/>
<text text-anchor="middle" x="638.5" y="-175.5" font-family="Helvetica,sans-Serif" font-size="10.00" fill="#000000">bpqueue.hpp</text>
</a>
</g>
</g>
<!-- Node23&#45;&gt;Node24 -->
<g id="edge33" class="edge">
<title>Node23&#45;&gt;Node24</title>
<path fill="none" stroke="#191970" d="M585.6479,-224.2455C595.0087,-216.0549 608.5858,-204.1749 619.6349,-194.5069"/>
<polygon fill="#191970" stroke="#191970" points="622.2588,-196.8618 627.4798,-187.6427 617.6492,-191.5937 622.2588,-196.8618"/>
</g>
<!-- Node25 -->
<g id="node26" class="node">
<title>Node25</title>
<polygon fill="#ffffff" stroke="#bfbfbf" points="692.5,-168.5 692.5,-187.5 748.5,-187.5 748.5,-168.5 692.5,-168.5"/>
<text text-anchor="middle" x="720.5" y="-175.5" font-family="Helvetica,sans-Serif" font-size="10.00" fill="#000000">cinttypes</text>
</g>
<!-- Node23&#45;&gt;Node25 -->
<g id="edge40" class="edge">
<title>Node23&#45;&gt;Node25</title>
<path fill="none" stroke="#191970" d="M599.5983,-224.3733C623.4555,-215.2226 659.5335,-201.3844 686.071,-191.2057"/>
<polygon fill="#191970" stroke="#191970" points="687.6459,-194.3503 695.7292,-187.5011 685.139,-187.8145 687.6459,-194.3503"/>
</g>
<!-- Node26 -->
<g id="node27" class="node">
<title>Node26</title>
<polygon fill="#ffffff" stroke="#bfbfbf" points="766.5,-168.5 766.5,-187.5 818.5,-187.5 818.5,-168.5 766.5,-168.5"/>
<text text-anchor="middle" x="792.5" y="-175.5" font-family="Helvetica,sans-Serif" font-size="10.00" fill="#000000">memory</text>
</g>
<!-- Node23&#45;&gt;Node26 -->
<g id="edge43" class="edge">
<title>Node23&#45;&gt;Node26</title>
<path fill="none" stroke="#191970" d="M613.8618,-224.4921C648.8826,-215.9466 701.7327,-202.8408 756.3066,-188.2663"/>
<polygon fill="#191970" stroke="#191970" points="757.3998,-191.5968 766.1518,-185.6258 755.5865,-184.8358 757.3998,-191.5968"/>
</g>
<!-- Node24&#45;&gt;Node2 -->
<g id="edge34" class="edge">
<title>Node24&#45;&gt;Node2</title>
<path fill="none" stroke="#191970" d="M635.5388,-168.2455C633.2962,-160.8579 630.1423,-150.4689 627.3919,-141.4087"/>
<polygon fill="#191970" stroke="#191970" points="630.6812,-140.1948 624.4272,-131.6427 623.983,-142.2282 630.6812,-140.1948"/>
</g>
<!-- Node24&#45;&gt;Node4 -->
<g id="edge35" class="edge">
<title>Node24&#45;&gt;Node4</title>
<path fill="none" stroke="#191970" d="M660.4969,-168.4509C706.3843,-148.5308 812.4329,-102.4942 865.3273,-79.5323"/>
<polygon fill="#191970" stroke="#191970" points="866.7795,-82.7175 874.5587,-75.5249 863.992,-76.2965 866.7795,-82.7175"/>
</g>
<!-- Node24&#45;&gt;Node12 -->
<g id="edge36" class="edge">
<title>Node24&#45;&gt;Node12</title>
<path fill="none" stroke="#191970" d="M672.5493,-168.4981C746.0759,-147.6418 914.3241,-97.9681 929.5,-76 948.567,-48.3991 904.5718,-29.6188 868.513,-19.3526"/>
<polygon fill="#191970" stroke="#191970" points="869.1784,-15.907 858.612,-16.6825 867.3557,-22.6656 869.1784,-15.907"/>
</g>
<!-- Node24&#45;&gt;Node16 -->
<g id="edge37" class="edge">
<title>Node24&#45;&gt;Node16</title>
<path fill="none" stroke="#191970" d="M602.0886,-174.6709C543.4753,-168.8575 424.8155,-155.2091 326.5,-132 265.5004,-117.6 196.5123,-93.0715 157.29,-78.316"/>
<polygon fill="#191970" stroke="#191970" points="158.3401,-74.971 147.7488,-74.6979 155.8581,-81.5163 158.3401,-74.971"/>
</g>
</g>
</svg>
        <g id="navigator" transform="translate(0 0)" fill="#404254">
                <rect fill="#f2f5e9" fill-opacity="0.5" stroke="#606060" stroke-width=".5" x="0" y="0" width="60" height="60"/>
                <use id="zoomplus" xlink:href="#zoomPlus" x="17" y="9" onmousedown="handleZoom(evt,'in')"/>
                <use id="zoomminus" xlink:href="#zoomMin" x="42" y="9" onmousedown="handleZoom(evt,'out')"/>
                <use id="reset" xlink:href="#resetDef" x="30" y="36" onmousedown="handleReset()"/>
                <g id="arrowUp" xlink:href="#dirArrow" transform="translate(30 24)" onmousedown="handlePan(0,-1)">
                  <use xlink:href="#rim" fill="#404040">
                        <set attributeName="fill" to="#808080" begin="arrowUp.mouseover" end="arrowUp.mouseout"/>
                  </use>
                  <path fill="none" stroke="white" stroke-width="1.5" d="M0,-3.0v7 M-2.5,-0.5L0,-3.0L2.5,-0.5"/>
                </g>
                <g id="arrowRight" xlink:href="#dirArrow" transform="rotate(90) translate(36 -43)" onmousedown="handlePan(1,0)">
                  <use xlink:href="#rim" fill="#404040">
                        <set attributeName="fill" to="#808080" begin="arrowRight.mouseover" end="arrowRight.mouseout"/>
                  </use>
                  <path fill="none" stroke="white" stroke-width="1.5" d="M0,-3.0v7 M-2.5,-0.5L0,-3.0L2.5,-0.5"/>
                </g>
                <g id="arrowDown" xlink:href="#dirArrow" transform="rotate(180) translate(-30 -48)" onmousedown="handlePan(0,1)">
                  <use xlink:href="#rim" fill="#404040">
                        <set attributeName="fill" to="#808080" begin="arrowDown.mouseover" end="arrowDown.mouseout"/>
                  </use>
                  <path fill="none" stroke="white" stroke-width="1.5" d="M0,-3.0v7 M-2.5,-0.5L0,-3.0L2.5,-0.5"/>
                </g>
                <g id="arrowLeft" xlink:href="#dirArrow" transform="rotate(270) translate(-36 17)" onmousedown="handlePan(-1,0)">
                  <use xlink:href="#rim" fill="#404040">
                        <set attributeName="fill" to="#808080" begin="arrowLeft.mouseover" end="arrowLeft.mouseout"/>
                  </use>
                  <path fill="none" stroke="white" stroke-width="1.5" d="M0,-3.0v7 M-2.5,-0.5L0,-3.0L2.5,-0.5"/>
                </g>
        </g>
        <svg viewBox="0 0 15 15" width="100%" height="30px" preserveAspectRatio="xMaxYMin meet">
         <g id="arrow_out" transform="scale(0.3 0.3)">
          <a xlink:href="FMKWayGainMgr_8cpp__incl_org.svg" target="_base">
           <rect id="button" ry="5" rx="5" y="6" x="6" height="38" width="38"
                fill="#f2f5e9" fill-opacity="0.5" stroke="#606060" stroke-width="1.0"/>
           <path id="arrow"
             d="M 11.500037,31.436501 C 11.940474,20.09759 22.043105,11.32322 32.158766,21.979434 L 37.068811,17.246167 C 37.068811,17.246167 37.088388,32 37.088388,32 L 22.160133,31.978069 C 22.160133,31.978069 26.997745,27.140456 26.997745,27.140456 C 18.528582,18.264221 13.291696,25.230495 11.500037,31.436501 z"
             style="fill:#404040;"/>
          </a>
         </g>
        </svg>
</svg>
