<?xml version="1.0" encoding="UTF-8" standalone="no"?>
<!DOCTYPE svg PUBLIC "-//W3C//DTD SVG 1.1//EN"
 "http://www.w3.org/Graphics/SVG/1.1/DTD/svg11.dtd">
<!-- Generated by graphviz version 2.40.1 (20161225.0304)
 -->
<!-- Title: lib/include/ckpttncpp/FMKWayGainCalc.hpp Pages: 1 -->
<!--zoomable 173 -->
<svg id="main" version="1.1" xmlns="http://www.w3.org/2000/svg" xmlns:xlink="http://www.w3.org/1999/xlink" xml:space="preserve" onload="init(evt)">
<style type="text/css"><![CDATA[
.edge:hover path { stroke: red; }
.edge:hover polygon { stroke: red; fill: red; }
]]></style>
<script type="text/javascript"><![CDATA[
var edges = document.getElementsByTagName('g');
if (edges && edges.length) {
  for (var i=0;i<edges.length;i++) {
    if (edges[i].id.substr(0,4)=='edge') {
      edges[i].setAttribute('class','edge');
    }
  }
}
]]></script>
        <defs>
                <circle id="rim" cx="0" cy="0" r="7"/>
                <circle id="rim2" cx="0" cy="0" r="3.5"/>
                <g id="zoomPlus">
                        <use xlink:href="#rim" fill="#404040">
                                <set attributeName="fill" to="#808080" begin="zoomplus.mouseover" end="zoomplus.mouseout"/>
                        </use>
                        <path d="M-4,0h8M0,-4v8" fill="none" stroke="white" stroke-width="1.5" pointer-events="none"/>
                </g>
                <g id="zoomMin">
                        <use xlink:href="#rim" fill="#404040">
                                <set attributeName="fill" to="#808080" begin="zoomminus.mouseover" end="zoomminus.mouseout"/>
                        </use>
                        <path d="M-4,0h8" fill="none" stroke="white" stroke-width="1.5" pointer-events="none"/>
                </g>
                <g id="dirArrow">
                        <path fill="none" stroke="white" stroke-width="1.5" d="M0,-3.0v7 M-2.5,-0.5L0,-3.0L2.5,-0.5"/>
                </g>
               <g id="resetDef">
                       <use xlink:href="#rim2" fill="#404040">
                               <set attributeName="fill" to="#808080" begin="reset.mouseover" end="reset.mouseout"/>
                       </use>
               </g>
        </defs>

<script type="text/javascript">
var viewWidth = 709;
var viewHeight = 173;
var sectionId = 'dynsection-1';
</script>
<script xlink:href="svgpan.js"/>
<svg id="graph" class="graph">
<g id="viewport">
<title>lib/include/ckpttncpp/FMKWayGainCalc.hpp</title>
<polygon fill="#ffffff" stroke="transparent" points="-4,4 -4,-169 705,-169 705,4 -4,4"/>
<!-- Node21 -->
<g id="node1" class="node">
<title>Node21</title>
<polygon fill="#bfbfbf" stroke="#000000" points="227.5,-134.5 227.5,-164.5 347.5,-164.5 347.5,-134.5 227.5,-134.5"/>
<text text-anchor="start" x="235.5" y="-152.5" font-family="Helvetica,sans-Serif" font-size="10.00" fill="#000000">lib/include/ckpttncpp</text>
<text text-anchor="middle" x="287.5" y="-141.5" font-family="Helvetica,sans-Serif" font-size="10.00" fill="#000000">/FMKWayGainCalc.hpp</text>
</g>
<!-- Node22 -->
<g id="node2" class="node">
<title>Node22</title>
<g id="a_node2"><a xlink:href="FMKWayGainMgr_8hpp.html" target="_top" xlink:title="lib/include/ckpttncpp\l/FMKWayGainMgr.hpp">
<polygon fill="#ffffff" stroke="#000000" points="229.5,-67.5 229.5,-97.5 345.5,-97.5 345.5,-67.5 229.5,-67.5"/>
<text text-anchor="start" x="237.5" y="-85.5" font-family="Helvetica,sans-Serif" font-size="10.00" fill="#000000">lib/include/ckpttncpp</text>
<text text-anchor="middle" x="287.5" y="-74.5" font-family="Helvetica,sans-Serif" font-size="10.00" fill="#000000">/FMKWayGainMgr.hpp</text>
</a>
</g>
</g>
<!-- Node21&#45;&gt;Node22 -->
<g id="edge1" class="edge">
<title>Node21&#45;&gt;Node22</title>
<path fill="none" stroke="#191970" d="M287.5,-124.0249C287.5,-115.128 287.5,-105.4287 287.5,-97.6432"/>
<polygon fill="#191970" stroke="#191970" points="284.0001,-124.2966 287.5,-134.2967 291.0001,-124.2967 284.0001,-124.2966"/>
</g>
<!-- Node24 -->
<g id="node4" class="node">
<title>Node24</title>
<g id="a_node4"><a xlink:href="FMKWayGainMgr_8cpp.html" target="_top" xlink:title="lib/src/FMKWayGainMgr.cpp">
<polygon fill="#ffffff" stroke="#000000" points="0,-6 0,-25 143,-25 143,-6 0,-6"/>
<text text-anchor="middle" x="71.5" y="-13" font-family="Helvetica,sans-Serif" font-size="10.00" fill="#000000">lib/src/FMKWayGainMgr.cpp</text>
</a>
</g>
</g>
<!-- Node21&#45;&gt;Node24 -->
<g id="edge8" class="edge">
<title>Node21&#45;&gt;Node24</title>
<path fill="none" stroke="#191970" d="M254.4851,-129.0185C207.143,-99.6489 121.8431,-46.7314 86.9813,-25.1042"/>
<polygon fill="#191970" stroke="#191970" points="252.7992,-132.0914 263.1419,-134.389 256.4894,-126.1431 252.7992,-132.0914"/>
</g>
<!-- Node28 -->
<g id="node8" class="node">
<title>Node28</title>
<g id="a_node8"><a xlink:href="FMKWayGainCalc_8cpp.html" target="_top" xlink:title="lib/src/FMKWayGainCalc.cpp">
<polygon fill="#ffffff" stroke="#000000" points="363.5,-73 363.5,-92 509.5,-92 509.5,-73 363.5,-73"/>
<text text-anchor="middle" x="436.5" y="-80" font-family="Helvetica,sans-Serif" font-size="10.00" fill="#000000">lib/src/FMKWayGainCalc.cpp</text>
</a>
</g>
</g>
<!-- Node21&#45;&gt;Node28 -->
<g id="edge7" class="edge">
<title>Node21&#45;&gt;Node28</title>
<path fill="none" stroke="#191970" d="M330.0622,-130.3613C357.8803,-117.8525 393.0267,-102.0484 415.142,-92.1039"/>
<polygon fill="#191970" stroke="#191970" points="328.6235,-127.1706 320.9385,-134.4639 331.4943,-133.5549 328.6235,-127.1706"/>
</g>
<!-- Node23 -->
<g id="node3" class="node">
<title>Node23</title>
<g id="a_node3"><a xlink:href="FMGainMgr_8cpp.html" target="_top" xlink:title="lib/src/FMGainMgr.cpp">
<polygon fill="#ffffff" stroke="#000000" points="161.5,-6 161.5,-25 277.5,-25 277.5,-6 161.5,-6"/>
<text text-anchor="middle" x="219.5" y="-13" font-family="Helvetica,sans-Serif" font-size="10.00" fill="#000000">lib/src/FMGainMgr.cpp</text>
</a>
</g>
</g>
<!-- Node22&#45;&gt;Node23 -->
<g id="edge2" class="edge">
<title>Node22&#45;&gt;Node23</title>
<path fill="none" stroke="#191970" d="M264.8705,-60.2032C252.7524,-48.2634 238.4564,-34.1776 229.1976,-25.055"/>
<polygon fill="#191970" stroke="#191970" points="262.49,-62.7713 272.0697,-67.2967 267.403,-57.785 262.49,-62.7713"/>
</g>
<!-- Node22&#45;&gt;Node24 -->
<g id="edge3" class="edge">
<title>Node22&#45;&gt;Node24</title>
<path fill="none" stroke="#191970" d="M229.4216,-64.4849C188.4343,-51.7713 135.148,-35.2427 102.1439,-25.0053"/>
<polygon fill="#191970" stroke="#191970" points="228.4374,-67.8441 239.0254,-67.4639 230.5112,-61.1583 228.4374,-67.8441"/>
</g>
<!-- Node25 -->
<g id="node5" class="node">
<title>Node25</title>
<g id="a_node5"><a xlink:href="PartMgrBase_8cpp.html" target="_top" xlink:title="lib/src/PartMgrBase.cpp">
<polygon fill="#ffffff" stroke="#000000" points="295.5,-6 295.5,-25 417.5,-25 417.5,-6 295.5,-6"/>
<text text-anchor="middle" x="356.5" y="-13" font-family="Helvetica,sans-Serif" font-size="10.00" fill="#000000">lib/src/PartMgrBase.cpp</text>
</a>
</g>
</g>
<!-- Node22&#45;&gt;Node25 -->
<g id="edge4" class="edge">
<title>Node22&#45;&gt;Node25</title>
<path fill="none" stroke="#191970" d="M310.4623,-60.2032C322.7586,-48.2634 337.2648,-34.1776 346.6598,-25.055"/>
<polygon fill="#191970" stroke="#191970" points="307.8932,-57.8193 303.1572,-67.2967 312.7697,-62.8413 307.8932,-57.8193"/>
</g>
<!-- Node26 -->
<g id="node6" class="node">
<title>Node26</title>
<g id="a_node6"><a xlink:href="test__FMKWayPartMgr_8cpp.html" target="_top" xlink:title="lib/test/src/test_FMKWay\lPartMgr.cpp">
<polygon fill="#ffffff" stroke="#000000" points="435.5,-.5 435.5,-30.5 563.5,-30.5 563.5,-.5 435.5,-.5"/>
<text text-anchor="start" x="443.5" y="-18.5" font-family="Helvetica,sans-Serif" font-size="10.00" fill="#000000">lib/test/src/test_FMKWay</text>
<text text-anchor="middle" x="499.5" y="-7.5" font-family="Helvetica,sans-Serif" font-size="10.00" fill="#000000">PartMgr.cpp</text>
</a>
</g>
</g>
<!-- Node22&#45;&gt;Node26 -->
<g id="edge5" class="edge">
<title>Node22&#45;&gt;Node26</title>
<path fill="none" stroke="#191970" d="M344.7327,-64.4123C378.2176,-53.8298 420.0048,-40.6235 451.7156,-30.6017"/>
<polygon fill="#191970" stroke="#191970" points="343.5574,-61.1131 335.0769,-67.4639 345.6668,-67.7877 343.5574,-61.1131"/>
</g>
<!-- Node27 -->
<g id="node7" class="node">
<title>Node27</title>
<g id="a_node7"><a xlink:href="test__MLPartMgr_8cpp.html" target="_top" xlink:title="lib/test/src/test_MLPart\lMgr.cpp">
<polygon fill="#ffffff" stroke="#000000" points="582,-.5 582,-30.5 701,-30.5 701,-.5 582,-.5"/>
<text text-anchor="start" x="590" y="-18.5" font-family="Helvetica,sans-Serif" font-size="10.00" fill="#000000">lib/test/src/test_MLPart</text>
<text text-anchor="middle" x="641.5" y="-7.5" font-family="Helvetica,sans-Serif" font-size="10.00" fill="#000000">Mgr.cpp</text>
</a>
</g>
</g>
<!-- Node22&#45;&gt;Node27 -->
<g id="edge6" class="edge">
<title>Node22&#45;&gt;Node27</title>
<path fill="none" stroke="#191970" d="M355.4897,-66.879C452.5336,-48.0211 479.2156,-49.1645 572.5,-31 575.5128,-30.4133 578.5953,-29.7934 581.705,-29.1524"/>
<polygon fill="#191970" stroke="#191970" points="354.6935,-63.4685 345.5559,-68.8309 356.0432,-70.3371 354.6935,-63.4685"/>
</g>
</g>
</svg>
        <g id="navigator" transform="translate(0 0)" fill="#404254">
                <rect fill="#f2f5e9" fill-opacity="0.5" stroke="#606060" stroke-width=".5" x="0" y="0" width="60" height="60"/>
                <use id="zoomplus" xlink:href="#zoomPlus" x="17" y="9" onmousedown="handleZoom(evt,'in')"/>
                <use id="zoomminus" xlink:href="#zoomMin" x="42" y="9" onmousedown="handleZoom(evt,'out')"/>
                <use id="reset" xlink:href="#resetDef" x="30" y="36" onmousedown="handleReset()"/>
                <g id="arrowUp" xlink:href="#dirArrow" transform="translate(30 24)" onmousedown="handlePan(0,-1)">
                  <use xlink:href="#rim" fill="#404040">
                        <set attributeName="fill" to="#808080" begin="arrowUp.mouseover" end="arrowUp.mouseout"/>
                  </use>
                  <path fill="none" stroke="white" stroke-width="1.5" d="M0,-3.0v7 M-2.5,-0.5L0,-3.0L2.5,-0.5"/>
                </g>
                <g id="arrowRight" xlink:href="#dirArrow" transform="rotate(90) translate(36 -43)" onmousedown="handlePan(1,0)">
                  <use xlink:href="#rim" fill="#404040">
                        <set attributeName="fill" to="#808080" begin="arrowRight.mouseover" end="arrowRight.mouseout"/>
                  </use>
                  <path fill="none" stroke="white" stroke-width="1.5" d="M0,-3.0v7 M-2.5,-0.5L0,-3.0L2.5,-0.5"/>
                </g>
                <g id="arrowDown" xlink:href="#dirArrow" transform="rotate(180) translate(-30 -48)" onmousedown="handlePan(0,1)">
                  <use xlink:href="#rim" fill="#404040">
                        <set attributeName="fill" to="#808080" begin="arrowDown.mouseover" end="arrowDown.mouseout"/>
                  </use>
                  <path fill="none" stroke="white" stroke-width="1.5" d="M0,-3.0v7 M-2.5,-0.5L0,-3.0L2.5,-0.5"/>
                </g>
                <g id="arrowLeft" xlink:href="#dirArrow" transform="rotate(270) translate(-36 17)" onmousedown="handlePan(-1,0)">
                  <use xlink:href="#rim" fill="#404040">
                        <set attributeName="fill" to="#808080" begin="arrowLeft.mouseover" end="arrowLeft.mouseout"/>
                  </use>
                  <path fill="none" stroke="white" stroke-width="1.5" d="M0,-3.0v7 M-2.5,-0.5L0,-3.0L2.5,-0.5"/>
                </g>
        </g>
        <svg viewBox="0 0 15 15" width="100%" height="30px" preserveAspectRatio="xMaxYMin meet">
         <g id="arrow_out" transform="scale(0.3 0.3)">
          <a xlink:href="FMKWayGainCalc_8hpp__dep__incl_org.svg" target="_base">
           <rect id="button" ry="5" rx="5" y="6" x="6" height="38" width="38"
                fill="#f2f5e9" fill-opacity="0.5" stroke="#606060" stroke-width="1.0"/>
           <path id="arrow"
             d="M 11.500037,31.436501 C 11.940474,20.09759 22.043105,11.32322 32.158766,21.979434 L 37.068811,17.246167 C 37.068811,17.246167 37.088388,32 37.088388,32 L 22.160133,31.978069 C 22.160133,31.978069 26.997745,27.140456 26.997745,27.140456 C 18.528582,18.264221 13.291696,25.230495 11.500037,31.436501 z"
             style="fill:#404040;"/>
          </a>
         </g>
        </svg>
</svg>
