<?xml version="1.0" encoding="UTF-8" standalone="no"?>
<!DOCTYPE svg PUBLIC "-//W3C//DTD SVG 1.1//EN"
 "http://www.w3.org/Graphics/SVG/1.1/DTD/svg11.dtd">
<!-- Generated by graphviz version 2.40.1 (20161225.0304)
 -->
<!-- Title: lib/src/FMKWayGainCalc.cpp Pages: 1 -->
<svg width="874pt" height="308pt"
 viewBox="0.00 0.00 873.50 308.00" xmlns="http://www.w3.org/2000/svg" xmlns:xlink="http://www.w3.org/1999/xlink">
<g id="graph0" class="graph" transform="scale(1 1) rotate(0) translate(4 304)">
<title>lib/src/FMKWayGainCalc.cpp</title>
<polygon fill="#ffffff" stroke="transparent" points="-4,4 -4,-304 869.5,-304 869.5,4 -4,4"/>
<!-- Node0 -->
<g id="node1" class="node">
<title>Node0</title>
<polygon fill="#bfbfbf" stroke="#000000" points="109,-280.5 109,-299.5 255,-299.5 255,-280.5 109,-280.5"/>
<text text-anchor="middle" x="182" y="-287.5" font-family="Helvetica,sans-Serif" font-size="10.00" fill="#000000">lib/src/FMKWayGainCalc.cpp</text>
</g>
<!-- Node1 -->
<g id="node2" class="node">
<title>Node1</title>
<g id="a_node2"><a xlink:href="FMKWayGainCalc_8hpp.html" target="_top" xlink:title="ckpttncpp/FMKWayGainCalc.hpp">
<polygon fill="#ffffff" stroke="#000000" points="100.5,-224.5 100.5,-243.5 263.5,-243.5 263.5,-224.5 100.5,-224.5"/>
<text text-anchor="middle" x="182" y="-231.5" font-family="Helvetica,sans-Serif" font-size="10.00" fill="#000000">ckpttncpp/FMKWayGainCalc.hpp</text>
</a>
</g>
</g>
<!-- Node0&#45;&gt;Node1 -->
<g id="edge1" class="edge">
<title>Node0&#45;&gt;Node1</title>
<path fill="none" stroke="#191970" d="M182,-280.2455C182,-272.9382 182,-262.6944 182,-253.7046"/>
<polygon fill="#191970" stroke="#191970" points="185.5001,-253.6426 182,-243.6427 178.5001,-253.6427 185.5001,-253.6426"/>
</g>
<!-- Node2 -->
<g id="node3" class="node">
<title>Node2</title>
<g id="a_node3"><a xlink:href="dllist_8hpp.html" target="_top" xlink:title="dllist.hpp">
<polygon fill="#ffffff" stroke="#000000" points="32,-112.5 32,-131.5 88,-131.5 88,-112.5 32,-112.5"/>
<text text-anchor="middle" x="60" y="-119.5" font-family="Helvetica,sans-Serif" font-size="10.00" fill="#000000">dllist.hpp</text>
</a>
</g>
</g>
<!-- Node1&#45;&gt;Node2 -->
<g id="edge2" class="edge">
<title>Node1&#45;&gt;Node2</title>
<path fill="none" stroke="#191970" d="M140.5369,-224.4581C119.396,-217.602 94.8669,-206.2546 79,-188 67.89,-175.2182 63.2594,-156.3036 61.3384,-141.9957"/>
<polygon fill="#191970" stroke="#191970" points="64.7877,-141.3144 60.3066,-131.7139 57.8227,-142.0134 64.7877,-141.3144"/>
</g>
<!-- Node5 -->
<g id="node6" class="node">
<title>Node5</title>
<g id="a_node6"><a xlink:href="netlist_8hpp.html" target="_top" xlink:title="netlist.hpp">
<polygon fill="#ffffff" stroke="#000000" points="252,-168.5 252,-187.5 314,-187.5 314,-168.5 252,-168.5"/>
<text text-anchor="middle" x="283" y="-175.5" font-family="Helvetica,sans-Serif" font-size="10.00" fill="#000000">netlist.hpp</text>
</a>
</g>
</g>
<!-- Node1&#45;&gt;Node5 -->
<g id="edge5" class="edge">
<title>Node1&#45;&gt;Node5</title>
<path fill="none" stroke="#191970" d="M199.5929,-224.2455C215.379,-215.4928 238.7639,-202.527 256.7587,-192.5496"/>
<polygon fill="#191970" stroke="#191970" points="258.5603,-195.5528 265.6087,-187.6427 255.1659,-189.4308 258.5603,-195.5528"/>
</g>
<!-- Node7 -->
<g id="node8" class="node">
<title>Node7</title>
<polygon fill="#ffffff" stroke="#bfbfbf" points="555.5,-112.5 555.5,-131.5 608.5,-131.5 608.5,-112.5 555.5,-112.5"/>
<text text-anchor="middle" x="582" y="-119.5" font-family="Helvetica,sans-Serif" font-size="10.00" fill="#000000">gsl/span</text>
</g>
<!-- Node1&#45;&gt;Node7 -->
<g id="edge30" class="edge">
<title>Node1&#45;&gt;Node7</title>
<path fill="none" stroke="#191970" d="M216.4903,-224.4334C279.635,-206.9033 418.3137,-168.3319 545.3482,-132.4576"/>
<polygon fill="#191970" stroke="#191970" points="546.5798,-135.7467 555.2515,-129.6597 544.6766,-129.0104 546.5798,-135.7467"/>
</g>
<!-- Node21 -->
<g id="node22" class="node">
<title>Node21</title>
<g id="a_node22"><a xlink:href="robin_8hpp.html" target="_top" xlink:title="robin.hpp">
<polygon fill="#ffffff" stroke="#000000" points="88,-168.5 88,-187.5 144,-187.5 144,-168.5 88,-168.5"/>
<text text-anchor="middle" x="116" y="-175.5" font-family="Helvetica,sans-Serif" font-size="10.00" fill="#000000">robin.hpp</text>
</a>
</g>
</g>
<!-- Node1&#45;&gt;Node21 -->
<g id="edge27" class="edge">
<title>Node1&#45;&gt;Node21</title>
<path fill="none" stroke="#191970" d="M170.5037,-224.2455C160.7558,-215.9746 146.5741,-203.9416 135.1202,-194.2232"/>
<polygon fill="#191970" stroke="#191970" points="137.2541,-191.4437 127.3646,-187.6427 132.7253,-196.7813 137.2541,-191.4437"/>
</g>
<!-- Node3 -->
<g id="node4" class="node">
<title>Node3</title>
<polygon fill="#ffffff" stroke="#bfbfbf" points="0,-56.5 0,-75.5 120,-75.5 120,-56.5 0,-56.5"/>
<text text-anchor="middle" x="60" y="-63.5" font-family="Helvetica,sans-Serif" font-size="10.00" fill="#000000">boost/coroutine2/all.hpp</text>
</g>
<!-- Node2&#45;&gt;Node3 -->
<g id="edge3" class="edge">
<title>Node2&#45;&gt;Node3</title>
<path fill="none" stroke="#191970" d="M60,-112.2455C60,-104.9382 60,-94.6944 60,-85.7046"/>
<polygon fill="#191970" stroke="#191970" points="63.5001,-85.6426 60,-75.6427 56.5001,-85.6427 63.5001,-85.6426"/>
</g>
<!-- Node4 -->
<g id="node5" class="node">
<title>Node4</title>
<polygon fill="#ffffff" stroke="#bfbfbf" points="182.5,-56.5 182.5,-75.5 231.5,-75.5 231.5,-56.5 182.5,-56.5"/>
<text text-anchor="middle" x="207" y="-63.5" font-family="Helvetica,sans-Serif" font-size="10.00" fill="#000000">cassert</text>
</g>
<!-- Node2&#45;&gt;Node4 -->
<g id="edge4" class="edge">
<title>Node2&#45;&gt;Node4</title>
<path fill="none" stroke="#191970" d="M85.2702,-112.3733C109.3966,-103.1822 145.9362,-89.2624 172.6877,-79.0713"/>
<polygon fill="#191970" stroke="#191970" points="173.9607,-82.3318 182.0596,-75.5011 171.4687,-75.7904 173.9607,-82.3318"/>
</g>
<!-- Node6 -->
<g id="node7" class="node">
<title>Node6</title>
<polygon fill="#ffffff" stroke="#bfbfbf" points="220,-112.5 220,-131.5 276,-131.5 276,-112.5 220,-112.5"/>
<text text-anchor="middle" x="248" y="-119.5" font-family="Helvetica,sans-Serif" font-size="10.00" fill="#000000">algorithm</text>
</g>
<!-- Node5&#45;&gt;Node6 -->
<g id="edge6" class="edge">
<title>Node5&#45;&gt;Node6</title>
<path fill="none" stroke="#191970" d="M276.9035,-168.2455C272.0855,-160.5367 265.2249,-149.5598 259.3968,-140.2348"/>
<polygon fill="#191970" stroke="#191970" points="262.2947,-138.2677 254.0267,-131.6427 256.3587,-141.9777 262.2947,-138.2677"/>
</g>
<!-- Node5&#45;&gt;Node7 -->
<g id="edge7" class="edge">
<title>Node5&#45;&gt;Node7</title>
<path fill="none" stroke="#191970" d="M314.1015,-173.671C361.8915,-166.7839 456.4094,-152.2342 545.3466,-132.2115"/>
<polygon fill="#191970" stroke="#191970" points="546.3508,-135.5724 555.3224,-129.9367 544.7945,-128.7476 546.3508,-135.5724"/>
</g>
<!-- Node8 -->
<g id="node9" class="node">
<title>Node8</title>
<polygon fill="#ffffff" stroke="#bfbfbf" points="294.5,-112.5 294.5,-131.5 341.5,-131.5 341.5,-112.5 294.5,-112.5"/>
<text text-anchor="middle" x="318" y="-119.5" font-family="Helvetica,sans-Serif" font-size="10.00" fill="#000000">iterator</text>
</g>
<!-- Node5&#45;&gt;Node8 -->
<g id="edge8" class="edge">
<title>Node5&#45;&gt;Node8</title>
<path fill="none" stroke="#191970" d="M289.0965,-168.2455C293.9145,-160.5367 300.7751,-149.5598 306.6032,-140.2348"/>
<polygon fill="#191970" stroke="#191970" points="309.6413,-141.9777 311.9733,-131.6427 303.7053,-138.2677 309.6413,-141.9777"/>
</g>
<!-- Node9 -->
<g id="node10" class="node">
<title>Node9</title>
<g id="a_node10"><a xlink:href="py2cpp_8hpp.html" target="_top" xlink:title="py2cpp/py2cpp.hpp">
<polygon fill="#ffffff" stroke="#000000" points="316.5,-56.5 316.5,-75.5 417.5,-75.5 417.5,-56.5 316.5,-56.5"/>
<text text-anchor="middle" x="367" y="-63.5" font-family="Helvetica,sans-Serif" font-size="10.00" fill="#000000">py2cpp/py2cpp.hpp</text>
</a>
</g>
</g>
<!-- Node5&#45;&gt;Node9 -->
<g id="edge9" class="edge">
<title>Node5&#45;&gt;Node9</title>
<path fill="none" stroke="#191970" d="M304.8989,-168.4854C320.0734,-160.7855 339.5377,-148.5075 351,-132 360.4449,-118.3978 364.3422,-99.8544 365.9362,-85.8862"/>
<polygon fill="#191970" stroke="#191970" points="369.43,-86.1053 366.7827,-75.8466 362.4548,-85.5171 369.43,-86.1053"/>
</g>
<!-- Node15 -->
<g id="node16" class="node">
<title>Node15</title>
<polygon fill="#ffffff" stroke="#bfbfbf" points="134,-.5 134,-19.5 174,-19.5 174,-.5 134,-.5"/>
<text text-anchor="middle" x="154" y="-7.5" font-family="Helvetica,sans-Serif" font-size="10.00" fill="#000000">utility</text>
</g>
<!-- Node5&#45;&gt;Node15 -->
<g id="edge16" class="edge">
<title>Node5&#45;&gt;Node15</title>
<path fill="none" stroke="#191970" d="M259.2654,-168.4055C242.2455,-160.5956 219.6507,-148.216 204,-132 175.9033,-102.8884 162.7696,-55.8193 157.3305,-29.4667"/>
<polygon fill="#191970" stroke="#191970" points="160.7525,-28.726 155.4494,-19.5539 153.8752,-30.0311 160.7525,-28.726"/>
</g>
<!-- Node16 -->
<g id="node17" class="node">
<title>Node16</title>
<polygon fill="#ffffff" stroke="#bfbfbf" points="250,-56.5 250,-75.5 294,-75.5 294,-56.5 250,-56.5"/>
<text text-anchor="middle" x="272" y="-63.5" font-family="Helvetica,sans-Serif" font-size="10.00" fill="#000000">vector</text>
</g>
<!-- Node5&#45;&gt;Node16 -->
<g id="edge17" class="edge">
<title>Node5&#45;&gt;Node16</title>
<path fill="none" stroke="#191970" d="M256.0356,-168.4934C239.8286,-161.2188 220.5492,-149.4326 211,-132 199.9649,-111.8548 221.7936,-93.0532 242.3382,-80.7119"/>
<polygon fill="#191970" stroke="#191970" points="244.2757,-83.6374 251.2639,-75.6739 240.8349,-77.5414 244.2757,-83.6374"/>
</g>
<!-- Node17 -->
<g id="node18" class="node">
<title>Node17</title>
<g id="a_node18"><a xlink:href="graph_8hpp.html" target="_top" xlink:title="xnetwork/classes/graph.hpp">
<polygon fill="#ffffff" stroke="#000000" points="398.5,-112.5 398.5,-131.5 537.5,-131.5 537.5,-112.5 398.5,-112.5"/>
<text text-anchor="middle" x="468" y="-119.5" font-family="Helvetica,sans-Serif" font-size="10.00" fill="#000000">xnetwork/classes/graph.hpp</text>
</a>
</g>
</g>
<!-- Node5&#45;&gt;Node17 -->
<g id="edge18" class="edge">
<title>Node5&#45;&gt;Node17</title>
<path fill="none" stroke="#191970" d="M314.3827,-168.5004C345.3455,-159.1278 392.8453,-144.7495 426.8248,-134.4638"/>
<polygon fill="#191970" stroke="#191970" points="427.9062,-137.7934 436.4633,-131.5462 425.8782,-131.0936 427.9062,-137.7934"/>
</g>
<!-- Node10 -->
<g id="node11" class="node">
<title>Node10</title>
<polygon fill="#ffffff" stroke="#bfbfbf" points="636.5,-.5 636.5,-19.5 709.5,-19.5 709.5,-.5 636.5,-.5"/>
<text text-anchor="middle" x="673" y="-7.5" font-family="Helvetica,sans-Serif" font-size="10.00" fill="#000000">initializer_list</text>
</g>
<!-- Node9&#45;&gt;Node10 -->
<g id="edge10" class="edge">
<title>Node9&#45;&gt;Node10</title>
<path fill="none" stroke="#191970" d="M417.5297,-56.7527C475.5388,-46.1367 569.9192,-28.8645 626.2775,-18.5505"/>
<polygon fill="#191970" stroke="#191970" points="627.1345,-21.9519 636.341,-16.7088 625.8743,-15.0663 627.1345,-21.9519"/>
</g>
<!-- Node11 -->
<g id="node12" class="node">
<title>Node11</title>
<polygon fill="#ffffff" stroke="#bfbfbf" points="288,-.5 288,-19.5 326,-19.5 326,-.5 288,-.5"/>
<text text-anchor="middle" x="307" y="-7.5" font-family="Helvetica,sans-Serif" font-size="10.00" fill="#000000">tuple</text>
</g>
<!-- Node9&#45;&gt;Node11 -->
<g id="edge11" class="edge">
<title>Node9&#45;&gt;Node11</title>
<path fill="none" stroke="#191970" d="M356.5488,-56.2455C347.7731,-48.0549 335.0446,-36.1749 324.686,-26.5069"/>
<polygon fill="#191970" stroke="#191970" points="327.0301,-23.9072 317.3314,-19.6427 322.2539,-29.0246 327.0301,-23.9072"/>
</g>
<!-- Node12 -->
<g id="node13" class="node">
<title>Node12</title>
<polygon fill="#ffffff" stroke="#bfbfbf" points="446,-.5 446,-19.5 508,-19.5 508,-.5 446,-.5"/>
<text text-anchor="middle" x="477" y="-7.5" font-family="Helvetica,sans-Serif" font-size="10.00" fill="#000000">type_traits</text>
</g>
<!-- Node9&#45;&gt;Node12 -->
<g id="edge12" class="edge">
<title>Node9&#45;&gt;Node12</title>
<path fill="none" stroke="#191970" d="M386.1605,-56.2455C403.5111,-47.4125 429.2901,-34.2887 448.9583,-24.2758"/>
<polygon fill="#191970" stroke="#191970" points="450.7353,-27.2986 458.059,-19.6427 447.5595,-21.0605 450.7353,-27.2986"/>
</g>
<!-- Node13 -->
<g id="node14" class="node">
<title>Node13</title>
<polygon fill="#ffffff" stroke="#bfbfbf" points="344.5,-.5 344.5,-19.5 427.5,-19.5 427.5,-.5 344.5,-.5"/>
<text text-anchor="middle" x="386" y="-7.5" font-family="Helvetica,sans-Serif" font-size="10.00" fill="#000000">unordered_map</text>
</g>
<!-- Node9&#45;&gt;Node13 -->
<g id="edge13" class="edge">
<title>Node9&#45;&gt;Node13</title>
<path fill="none" stroke="#191970" d="M370.3095,-56.2455C372.8433,-48.7776 376.4177,-38.2427 379.515,-29.1137"/>
<polygon fill="#191970" stroke="#191970" points="382.8298,-30.237 382.7284,-19.6427 376.2009,-27.9879 382.8298,-30.237"/>
</g>
<!-- Node14 -->
<g id="node15" class="node">
<title>Node14</title>
<polygon fill="#ffffff" stroke="#bfbfbf" points="192,-.5 192,-19.5 270,-19.5 270,-.5 192,-.5"/>
<text text-anchor="middle" x="231" y="-7.5" font-family="Helvetica,sans-Serif" font-size="10.00" fill="#000000">unordered_set</text>
</g>
<!-- Node9&#45;&gt;Node14 -->
<g id="edge14" class="edge">
<title>Node9&#45;&gt;Node14</title>
<path fill="none" stroke="#191970" d="M343.6208,-56.3733C321.4955,-47.2629 288.0866,-33.5062 263.3981,-23.3404"/>
<polygon fill="#191970" stroke="#191970" points="264.6536,-20.0723 254.0742,-19.5011 261.9883,-26.5451 264.6536,-20.0723"/>
</g>
<!-- Node9&#45;&gt;Node15 -->
<g id="edge15" class="edge">
<title>Node9&#45;&gt;Node15</title>
<path fill="none" stroke="#191970" d="M324.3281,-56.4438C288.9746,-48.2778 237.2513,-35.7597 183.8439,-20.0785"/>
<polygon fill="#191970" stroke="#191970" points="184.7914,-16.7089 174.2089,-17.22 182.8003,-23.4198 184.7914,-16.7089"/>
</g>
<!-- Node17&#45;&gt;Node4 -->
<g id="edge20" class="edge">
<title>Node17&#45;&gt;Node4</title>
<path fill="none" stroke="#191970" d="M414.0463,-112.4209C370.1235,-104.3158 306.3402,-91.8521 241.7638,-76.0298"/>
<polygon fill="#191970" stroke="#191970" points="242.3632,-72.5726 231.8151,-73.5667 240.6809,-79.3674 242.3632,-72.5726"/>
</g>
<!-- Node17&#45;&gt;Node9 -->
<g id="edge21" class="edge">
<title>Node17&#45;&gt;Node9</title>
<path fill="none" stroke="#191970" d="M450.4071,-112.2455C434.621,-103.4928 411.2361,-90.527 393.2413,-80.5496"/>
<polygon fill="#191970" stroke="#191970" points="394.8341,-77.4308 384.3913,-75.6427 391.4397,-83.5528 394.8341,-77.4308"/>
</g>
<!-- Node17&#45;&gt;Node12 -->
<g id="edge22" class="edge">
<title>Node17&#45;&gt;Node12</title>
<path fill="none" stroke="#191970" d="M466.4921,-112.1164C464.759,-99.1721 462.4604,-75.7959 465,-56 466.1391,-47.1204 468.4673,-37.5073 470.7723,-29.3763"/>
<polygon fill="#191970" stroke="#191970" points="474.1457,-30.3125 473.6873,-19.7276 467.4448,-28.2881 474.1457,-30.3125"/>
</g>
<!-- Node17&#45;&gt;Node16 -->
<g id="edge23" class="edge">
<title>Node17&#45;&gt;Node16</title>
<path fill="none" stroke="#191970" d="M434.3064,-112.3733C397.7465,-101.9276 339.8086,-85.3739 303.9472,-75.1278"/>
<polygon fill="#191970" stroke="#191970" points="304.5913,-71.6718 294.0145,-72.2899 302.6682,-78.4025 304.5913,-71.6718"/>
</g>
<!-- Node18 -->
<g id="node19" class="node">
<title>Node18</title>
<polygon fill="#ffffff" stroke="#bfbfbf" points="474,-56.5 474,-75.5 506,-75.5 506,-56.5 474,-56.5"/>
<text text-anchor="middle" x="490" y="-63.5" font-family="Helvetica,sans-Serif" font-size="10.00" fill="#000000">any</text>
</g>
<!-- Node17&#45;&gt;Node18 -->
<g id="edge19" class="edge">
<title>Node17&#45;&gt;Node18</title>
<path fill="none" stroke="#191970" d="M471.8321,-112.2455C474.7659,-104.7776 478.9047,-94.2427 482.491,-85.1137"/>
<polygon fill="#191970" stroke="#191970" points="485.8129,-86.23 486.2118,-75.6427 479.2976,-83.6704 485.8129,-86.23"/>
</g>
<!-- Node19 -->
<g id="node20" class="node">
<title>Node19</title>
<g id="a_node20"><a xlink:href="coreviews_8hpp.html" target="_top" xlink:title="xnetwork/classes/coreviews.hpp">
<polygon fill="#ffffff" stroke="#000000" points="523.5,-56.5 523.5,-75.5 682.5,-75.5 682.5,-56.5 523.5,-56.5"/>
<text text-anchor="middle" x="603" y="-63.5" font-family="Helvetica,sans-Serif" font-size="10.00" fill="#000000">xnetwork/classes/coreviews.hpp</text>
</a>
</g>
</g>
<!-- Node17&#45;&gt;Node19 -->
<g id="edge24" class="edge">
<title>Node17&#45;&gt;Node19</title>
<path fill="none" stroke="#191970" d="M491.2073,-112.3733C513.1699,-103.2629 546.3332,-89.5062 570.8401,-79.3404"/>
<polygon fill="#191970" stroke="#191970" points="572.1997,-82.5657 580.0955,-75.5011 569.5176,-76.0999 572.1997,-82.5657"/>
</g>
<!-- Node20 -->
<g id="node21" class="node">
<title>Node20</title>
<g id="a_node21"><a xlink:href="reportviews_8hpp.html" target="_top" xlink:title="xnetwork/classes/reportviews.hpp">
<polygon fill="#ffffff" stroke="#000000" points="700.5,-56.5 700.5,-75.5 865.5,-75.5 865.5,-56.5 700.5,-56.5"/>
<text text-anchor="middle" x="783" y="-63.5" font-family="Helvetica,sans-Serif" font-size="10.00" fill="#000000">xnetwork/classes/reportviews.hpp</text>
</a>
</g>
</g>
<!-- Node17&#45;&gt;Node20 -->
<g id="edge25" class="edge">
<title>Node17&#45;&gt;Node20</title>
<path fill="none" stroke="#191970" d="M521.7925,-112.4369C576.4951,-102.712 661.2435,-87.6456 719.2773,-77.3285"/>
<polygon fill="#191970" stroke="#191970" points="720.1964,-80.7201 729.4294,-75.5237 718.9711,-73.8281 720.1964,-80.7201"/>
</g>
<!-- Node20&#45;&gt;Node10 -->
<g id="edge26" class="edge">
<title>Node20&#45;&gt;Node10</title>
<path fill="none" stroke="#191970" d="M763.8395,-56.2455C746.4889,-47.4125 720.7099,-34.2887 701.0417,-24.2758"/>
<polygon fill="#191970" stroke="#191970" points="702.4405,-21.0605 691.941,-19.6427 699.2647,-27.2986 702.4405,-21.0605"/>
</g>
<!-- Node21&#45;&gt;Node2 -->
<g id="edge28" class="edge">
<title>Node21&#45;&gt;Node2</title>
<path fill="none" stroke="#191970" d="M106.2455,-168.2455C98.1352,-160.1352 86.4075,-148.4075 76.7919,-138.7919"/>
<polygon fill="#191970" stroke="#191970" points="79.1887,-136.2389 69.6427,-131.6427 74.2389,-141.1887 79.1887,-136.2389"/>
</g>
<!-- Node21&#45;&gt;Node16 -->
<g id="edge29" class="edge">
<title>Node21&#45;&gt;Node16</title>
<path fill="none" stroke="#191970" d="M128.3909,-168.4069C145.2985,-155.3862 176.6277,-131.5054 204,-112 218.7124,-101.516 235.5257,-90.1371 248.7529,-81.3196"/>
<polygon fill="#191970" stroke="#191970" points="250.8721,-84.1138 257.2673,-75.6668 247.0003,-78.282 250.8721,-84.1138"/>
</g>
</g>
</svg>
