<?xml version="1.0" encoding="UTF-8" standalone="no"?>
<!DOCTYPE svg PUBLIC "-//W3C//DTD SVG 1.1//EN"
 "http://www.w3.org/Graphics/SVG/1.1/DTD/svg11.dtd">
<!-- Generated by graphviz version 2.40.1 (20161225.0304)
 -->
<!-- Title: lib/include/ckpttncpp/FMPartMgr.hpp Pages: 1 -->
<svg width="846pt" height="319pt"
 viewBox="0.00 0.00 846.26 319.00" xmlns="http://www.w3.org/2000/svg" xmlns:xlink="http://www.w3.org/1999/xlink">
<g id="graph0" class="graph" transform="scale(1 1) rotate(0) translate(4 315)">
<title>lib/include/ckpttncpp/FMPartMgr.hpp</title>
<polygon fill="#ffffff" stroke="transparent" points="-4,4 -4,-315 842.264,-315 842.264,4 -4,4"/>
<!-- Node0 -->
<g id="node1" class="node">
<title>Node0</title>
<polygon fill="#bfbfbf" stroke="#000000" points="366,-280.5 366,-310.5 472,-310.5 472,-280.5 366,-280.5"/>
<text text-anchor="start" x="374" y="-298.5" font-family="Helvetica,sans-Serif" font-size="10.00" fill="#000000">lib/include/ckpttncpp</text>
<text text-anchor="middle" x="419" y="-287.5" font-family="Helvetica,sans-Serif" font-size="10.00" fill="#000000">/FMPartMgr.hpp</text>
</g>
<!-- Node1 -->
<g id="node2" class="node">
<title>Node1</title>
<g id="a_node2"><a xlink:href="PartMgrBase_8hpp.html" target="_top" xlink:title="PartMgrBase.hpp">
<polygon fill="#ffffff" stroke="#000000" points="461,-224.5 461,-243.5 553,-243.5 553,-224.5 461,-224.5"/>
<text text-anchor="middle" x="507" y="-231.5" font-family="Helvetica,sans-Serif" font-size="10.00" fill="#000000">PartMgrBase.hpp</text>
</a>
</g>
</g>
<!-- Node0&#45;&gt;Node1 -->
<g id="edge1" class="edge">
<title>Node0&#45;&gt;Node1</title>
<path fill="none" stroke="#191970" d="M440.7528,-280.2977C454.1968,-270.9022 471.4011,-258.8787 484.9078,-249.4395"/>
<polygon fill="#191970" stroke="#191970" points="486.9811,-252.2605 493.1729,-243.6633 482.9712,-246.5228 486.9811,-252.2605"/>
</g>
<!-- Node4 -->
<g id="node5" class="node">
<title>Node4</title>
<polygon fill="#ffffff" stroke="#bfbfbf" points="226.5,-112.5 226.5,-131.5 279.5,-131.5 279.5,-112.5 226.5,-112.5"/>
<text text-anchor="middle" x="253" y="-119.5" font-family="Helvetica,sans-Serif" font-size="10.00" fill="#000000">gsl/span</text>
</g>
<!-- Node0&#45;&gt;Node4 -->
<g id="edge29" class="edge">
<title>Node0&#45;&gt;Node4</title>
<path fill="none" stroke="#191970" d="M404.559,-280.4065C373.742,-248.1972 301.7109,-172.9117 269.3052,-139.0418"/>
<polygon fill="#191970" stroke="#191970" points="271.7592,-136.5439 262.317,-131.738 266.7013,-141.3832 271.7592,-136.5439"/>
</g>
<!-- Node2 -->
<g id="node3" class="node">
<title>Node2</title>
<g id="a_node3"><a xlink:href="netlist_8hpp.html" target="_top" xlink:title="netlist.hpp">
<polygon fill="#ffffff" stroke="#000000" points="476,-168.5 476,-187.5 538,-187.5 538,-168.5 476,-168.5"/>
<text text-anchor="middle" x="507" y="-175.5" font-family="Helvetica,sans-Serif" font-size="10.00" fill="#000000">netlist.hpp</text>
</a>
</g>
</g>
<!-- Node1&#45;&gt;Node2 -->
<g id="edge2" class="edge">
<title>Node1&#45;&gt;Node2</title>
<path fill="none" stroke="#191970" d="M507,-224.2455C507,-216.9382 507,-206.6944 507,-197.7046"/>
<polygon fill="#191970" stroke="#191970" points="510.5001,-197.6426 507,-187.6427 503.5001,-197.6427 510.5001,-197.6426"/>
</g>
<!-- Node5 -->
<g id="node6" class="node">
<title>Node5</title>
<polygon fill="#ffffff" stroke="#bfbfbf" points="666.5,-112.5 666.5,-131.5 713.5,-131.5 713.5,-112.5 666.5,-112.5"/>
<text text-anchor="middle" x="690" y="-119.5" font-family="Helvetica,sans-Serif" font-size="10.00" fill="#000000">iterator</text>
</g>
<!-- Node1&#45;&gt;Node5 -->
<g id="edge25" class="edge">
<title>Node1&#45;&gt;Node5</title>
<path fill="none" stroke="#191970" d="M522.6025,-224.4509C554.4752,-204.9441 627.2682,-160.3932 665.506,-136.9909"/>
<polygon fill="#191970" stroke="#191970" points="667.7347,-139.7304 674.437,-131.5249 664.0806,-133.7598 667.7347,-139.7304"/>
</g>
<!-- Node6 -->
<g id="node7" class="node">
<title>Node6</title>
<g id="a_node7"><a xlink:href="py2cpp_8hpp.html" target="_top" xlink:title="py2cpp/py2cpp.hpp">
<polygon fill="#ffffff" stroke="#000000" points="147.5,-56.5 147.5,-75.5 248.5,-75.5 248.5,-56.5 147.5,-56.5"/>
<text text-anchor="middle" x="198" y="-63.5" font-family="Helvetica,sans-Serif" font-size="10.00" fill="#000000">py2cpp/py2cpp.hpp</text>
</a>
</g>
</g>
<!-- Node1&#45;&gt;Node6 -->
<g id="edge26" class="edge">
<title>Node1&#45;&gt;Node6</title>
<path fill="none" stroke="#191970" d="M460.8199,-230.3981C397.2787,-222.9675 283.3514,-200.3644 218,-132 206.1331,-119.586 201.2855,-100.3632 199.3169,-85.8588"/>
<polygon fill="#191970" stroke="#191970" points="202.7958,-85.4734 198.304,-75.8779 195.8316,-86.1802 202.7958,-85.4734"/>
</g>
<!-- Node9 -->
<g id="node10" class="node">
<title>Node9</title>
<polygon fill="#ffffff" stroke="#bfbfbf" points="723,-.5 723,-19.5 785,-19.5 785,-.5 723,-.5"/>
<text text-anchor="middle" x="754" y="-7.5" font-family="Helvetica,sans-Serif" font-size="10.00" fill="#000000">type_traits</text>
</g>
<!-- Node1&#45;&gt;Node9 -->
<g id="edge27" class="edge">
<title>Node1&#45;&gt;Node9</title>
<path fill="none" stroke="#191970" d="M553.1171,-228.4796C629.3676,-216.4976 778.8692,-180.1979 835,-76 847.4507,-52.8873 819.9355,-34.8135 793.6636,-23.4682"/>
<polygon fill="#191970" stroke="#191970" points="794.6993,-20.1114 784.117,-19.596 792.0681,-26.5981 794.6993,-20.1114"/>
</g>
<!-- Node13 -->
<g id="node14" class="node">
<title>Node13</title>
<polygon fill="#ffffff" stroke="#bfbfbf" points="782,-56.5 782,-75.5 826,-75.5 826,-56.5 782,-56.5"/>
<text text-anchor="middle" x="804" y="-63.5" font-family="Helvetica,sans-Serif" font-size="10.00" fill="#000000">vector</text>
</g>
<!-- Node1&#45;&gt;Node13 -->
<g id="edge28" class="edge">
<title>Node1&#45;&gt;Node13</title>
<path fill="none" stroke="#191970" d="M532.7754,-224.4498C574.496,-208.4283 658.6361,-173.7543 723,-132 746.0671,-117.0358 770.2154,-96.6537 786.0776,-82.5158"/>
<polygon fill="#191970" stroke="#191970" points="788.4906,-85.0527 793.5676,-75.7535 783.7996,-79.857 788.4906,-85.0527"/>
</g>
<!-- Node19 -->
<g id="node20" class="node">
<title>Node19</title>
<polygon fill="#ffffff" stroke="#bfbfbf" points="402,-168.5 402,-187.5 458,-187.5 458,-168.5 402,-168.5"/>
<text text-anchor="middle" x="430" y="-175.5" font-family="Helvetica,sans-Serif" font-size="10.00" fill="#000000">cinttypes</text>
</g>
<!-- Node1&#45;&gt;Node19 -->
<g id="edge24" class="edge">
<title>Node1&#45;&gt;Node19</title>
<path fill="none" stroke="#191970" d="M493.5876,-224.2455C481.9943,-215.814 465.0252,-203.4729 451.5322,-193.6598"/>
<polygon fill="#191970" stroke="#191970" points="453.4047,-190.6938 443.2587,-187.6427 449.2874,-196.355 453.4047,-190.6938"/>
</g>
<!-- Node3 -->
<g id="node4" class="node">
<title>Node3</title>
<polygon fill="#ffffff" stroke="#bfbfbf" points="554,-112.5 554,-131.5 610,-131.5 610,-112.5 554,-112.5"/>
<text text-anchor="middle" x="582" y="-119.5" font-family="Helvetica,sans-Serif" font-size="10.00" fill="#000000">algorithm</text>
</g>
<!-- Node2&#45;&gt;Node3 -->
<g id="edge3" class="edge">
<title>Node2&#45;&gt;Node3</title>
<path fill="none" stroke="#191970" d="M520.064,-168.2455C531.3562,-159.814 547.8845,-147.4729 561.0271,-137.6598"/>
<polygon fill="#191970" stroke="#191970" points="563.1669,-140.4301 569.0857,-131.6427 558.9789,-134.8211 563.1669,-140.4301"/>
</g>
<!-- Node2&#45;&gt;Node4 -->
<g id="edge4" class="edge">
<title>Node2&#45;&gt;Node4</title>
<path fill="none" stroke="#191970" d="M475.5855,-170.0209C472.6865,-169.3225 469.7911,-168.639 467,-168 390.4448,-150.4726 370.6052,-149.3073 294,-132 292.5707,-131.6771 291.1144,-131.3436 289.6442,-131.0031"/>
<polygon fill="#191970" stroke="#191970" points="290.4124,-127.5883 279.8754,-128.6937 288.8019,-134.4005 290.4124,-127.5883"/>
</g>
<!-- Node2&#45;&gt;Node5 -->
<g id="edge5" class="edge">
<title>Node2&#45;&gt;Node5</title>
<path fill="none" stroke="#191970" d="M538.0435,-168.5004C570.9428,-158.4328 622.7165,-142.5895 656.515,-132.2468"/>
<polygon fill="#191970" stroke="#191970" points="657.8482,-135.4991 666.3864,-129.226 655.7999,-128.8055 657.8482,-135.4991"/>
</g>
<!-- Node2&#45;&gt;Node6 -->
<g id="edge6" class="edge">
<title>Node2&#45;&gt;Node6</title>
<path fill="none" stroke="#191970" d="M480.6548,-168.4509C425.2406,-148.3655 296.572,-101.7284 233.7708,-78.9655"/>
<polygon fill="#191970" stroke="#191970" points="234.8727,-75.6421 224.2785,-75.5249 232.4873,-82.2231 234.8727,-75.6421"/>
</g>
<!-- Node12 -->
<g id="node13" class="node">
<title>Node12</title>
<polygon fill="#ffffff" stroke="#bfbfbf" points="0,-.5 0,-19.5 40,-19.5 40,-.5 0,-.5"/>
<text text-anchor="middle" x="20" y="-7.5" font-family="Helvetica,sans-Serif" font-size="10.00" fill="#000000">utility</text>
</g>
<!-- Node2&#45;&gt;Node12 -->
<g id="edge13" class="edge">
<title>Node2&#45;&gt;Node12</title>
<path fill="none" stroke="#191970" d="M475.9109,-170.1466C426.7656,-157.7062 335.9497,-134.6022 329,-132 310.3859,-125.0303 307.679,-118.7939 289,-112 224.1635,-88.4177 202.273,-101.0776 138,-76 103.0585,-62.3667 65.764,-40.0393 42.6669,-25.1825"/>
<polygon fill="#191970" stroke="#191970" points="44.5463,-22.2297 34.2582,-19.6988 40.7225,-28.093 44.5463,-22.2297"/>
</g>
<!-- Node2&#45;&gt;Node13 -->
<g id="edge14" class="edge">
<title>Node2&#45;&gt;Node13</title>
<path fill="none" stroke="#191970" d="M532.1699,-168.3634C555.0411,-159.4418 589.5993,-145.5472 619,-132 636.6919,-123.848 639.9797,-119.3976 658,-112 696.2656,-96.2914 741.9713,-82.6799 771.9245,-74.4223"/>
<polygon fill="#191970" stroke="#191970" points="773.0932,-77.7317 781.8243,-71.7301 771.2563,-70.977 773.0932,-77.7317"/>
</g>
<!-- Node14 -->
<g id="node15" class="node">
<title>Node14</title>
<g id="a_node15"><a xlink:href="graph_8hpp.html" target="_top" xlink:title="xnetwork/classes/graph.hpp">
<polygon fill="#ffffff" stroke="#000000" points="396.5,-112.5 396.5,-131.5 535.5,-131.5 535.5,-112.5 396.5,-112.5"/>
<text text-anchor="middle" x="466" y="-119.5" font-family="Helvetica,sans-Serif" font-size="10.00" fill="#000000">xnetwork/classes/graph.hpp</text>
</a>
</g>
</g>
<!-- Node2&#45;&gt;Node14 -->
<g id="edge15" class="edge">
<title>Node2&#45;&gt;Node14</title>
<path fill="none" stroke="#191970" d="M499.8583,-168.2455C494.1556,-160.4564 486.01,-149.3308 479.1375,-139.9439"/>
<polygon fill="#191970" stroke="#191970" points="481.7913,-137.6437 473.0598,-131.6427 476.1432,-141.7789 481.7913,-137.6437"/>
</g>
<!-- Node7 -->
<g id="node8" class="node">
<title>Node7</title>
<polygon fill="#ffffff" stroke="#bfbfbf" points="312.5,-.5 312.5,-19.5 385.5,-19.5 385.5,-.5 312.5,-.5"/>
<text text-anchor="middle" x="349" y="-7.5" font-family="Helvetica,sans-Serif" font-size="10.00" fill="#000000">initializer_list</text>
</g>
<!-- Node6&#45;&gt;Node7 -->
<g id="edge7" class="edge">
<title>Node6&#45;&gt;Node7</title>
<path fill="none" stroke="#191970" d="M223.9578,-56.3733C248.7407,-47.1822 286.2746,-33.2624 313.754,-23.0713"/>
<polygon fill="#191970" stroke="#191970" points="315.2219,-26.26 323.3809,-19.5011 312.7879,-19.6968 315.2219,-26.26"/>
</g>
<!-- Node8 -->
<g id="node9" class="node">
<title>Node8</title>
<polygon fill="#ffffff" stroke="#bfbfbf" points="256,-.5 256,-19.5 294,-19.5 294,-.5 256,-.5"/>
<text text-anchor="middle" x="275" y="-7.5" font-family="Helvetica,sans-Serif" font-size="10.00" fill="#000000">tuple</text>
</g>
<!-- Node6&#45;&gt;Node8 -->
<g id="edge8" class="edge">
<title>Node6&#45;&gt;Node8</title>
<path fill="none" stroke="#191970" d="M211.4124,-56.2455C223.0057,-47.814 239.9748,-35.4729 253.4678,-25.6598"/>
<polygon fill="#191970" stroke="#191970" points="255.7126,-28.355 261.7413,-19.6427 251.5953,-22.6938 255.7126,-28.355"/>
</g>
<!-- Node6&#45;&gt;Node9 -->
<g id="edge9" class="edge">
<title>Node6&#45;&gt;Node9</title>
<path fill="none" stroke="#191970" d="M248.7006,-57.2839C251.8439,-56.826 254.9629,-56.3934 258,-56 426.1595,-34.2183 627.69,-18.8179 712.8288,-12.8013"/>
<polygon fill="#191970" stroke="#191970" points="713.1331,-16.2886 722.8637,-12.0976 712.6434,-9.3058 713.1331,-16.2886"/>
</g>
<!-- Node10 -->
<g id="node11" class="node">
<title>Node10</title>
<polygon fill="#ffffff" stroke="#bfbfbf" points="58.5,-.5 58.5,-19.5 141.5,-19.5 141.5,-.5 58.5,-.5"/>
<text text-anchor="middle" x="100" y="-7.5" font-family="Helvetica,sans-Serif" font-size="10.00" fill="#000000">unordered_map</text>
</g>
<!-- Node6&#45;&gt;Node10 -->
<g id="edge10" class="edge">
<title>Node6&#45;&gt;Node10</title>
<path fill="none" stroke="#191970" d="M180.9297,-56.2455C165.753,-47.5731 143.3379,-34.7645 125.9437,-24.825"/>
<polygon fill="#191970" stroke="#191970" points="127.2936,-21.5653 116.8747,-19.6427 123.8206,-27.643 127.2936,-21.5653"/>
</g>
<!-- Node11 -->
<g id="node12" class="node">
<title>Node11</title>
<polygon fill="#ffffff" stroke="#bfbfbf" points="160,-.5 160,-19.5 238,-19.5 238,-.5 160,-.5"/>
<text text-anchor="middle" x="199" y="-7.5" font-family="Helvetica,sans-Serif" font-size="10.00" fill="#000000">unordered_set</text>
</g>
<!-- Node6&#45;&gt;Node11 -->
<g id="edge11" class="edge">
<title>Node6&#45;&gt;Node11</title>
<path fill="none" stroke="#191970" d="M198.1742,-56.2455C198.3047,-48.9382 198.4876,-38.6944 198.6481,-29.7046"/>
<polygon fill="#191970" stroke="#191970" points="202.1486,-29.7036 198.8278,-19.6427 195.1497,-29.5786 202.1486,-29.7036"/>
</g>
<!-- Node6&#45;&gt;Node12 -->
<g id="edge12" class="edge">
<title>Node6&#45;&gt;Node12</title>
<path fill="none" stroke="#191970" d="M165.9326,-56.43C137.7012,-47.9319 95.2558,-34.9799 49.9583,-20.2478"/>
<polygon fill="#191970" stroke="#191970" points="50.8456,-16.8557 40.2531,-17.078 48.6723,-23.5098 50.8456,-16.8557"/>
</g>
<!-- Node14&#45;&gt;Node6 -->
<g id="edge18" class="edge">
<title>Node14&#45;&gt;Node6</title>
<path fill="none" stroke="#191970" d="M420.2337,-112.4369C374.0785,-102.7925 302.7822,-87.8948 253.4463,-77.5858"/>
<polygon fill="#191970" stroke="#191970" points="254.0821,-74.1431 243.5776,-75.5237 252.6502,-80.9951 254.0821,-74.1431"/>
</g>
<!-- Node14&#45;&gt;Node9 -->
<g id="edge19" class="edge">
<title>Node14&#45;&gt;Node9</title>
<path fill="none" stroke="#191970" d="M532.7021,-112.4619C610.1862,-101.1121 728.4603,-82.8382 736,-76 748.7591,-64.428 752.8386,-44.7848 753.9779,-29.9295"/>
<polygon fill="#191970" stroke="#191970" points="757.4837,-29.8432 754.371,-19.7159 750.4889,-29.5739 757.4837,-29.8432"/>
</g>
<!-- Node14&#45;&gt;Node13 -->
<g id="edge20" class="edge">
<title>Node14&#45;&gt;Node13</title>
<path fill="none" stroke="#191970" d="M535.0971,-112.4556C610.0648,-101.9256 724.8278,-85.2493 768,-76 769.2487,-75.7325 770.5183,-75.4469 771.7981,-75.1478"/>
<polygon fill="#191970" stroke="#191970" points="772.7981,-78.5051 781.6343,-72.6594 771.0813,-71.7189 772.7981,-78.5051"/>
</g>
<!-- Node15 -->
<g id="node16" class="node">
<title>Node15</title>
<polygon fill="#ffffff" stroke="#bfbfbf" points="450,-56.5 450,-75.5 482,-75.5 482,-56.5 450,-56.5"/>
<text text-anchor="middle" x="466" y="-63.5" font-family="Helvetica,sans-Serif" font-size="10.00" fill="#000000">any</text>
</g>
<!-- Node14&#45;&gt;Node15 -->
<g id="edge16" class="edge">
<title>Node14&#45;&gt;Node15</title>
<path fill="none" stroke="#191970" d="M466,-112.2455C466,-104.9382 466,-94.6944 466,-85.7046"/>
<polygon fill="#191970" stroke="#191970" points="469.5001,-85.6426 466,-75.6427 462.5001,-85.6427 469.5001,-85.6426"/>
</g>
<!-- Node16 -->
<g id="node17" class="node">
<title>Node16</title>
<polygon fill="#ffffff" stroke="#bfbfbf" points="500.5,-56.5 500.5,-75.5 549.5,-75.5 549.5,-56.5 500.5,-56.5"/>
<text text-anchor="middle" x="525" y="-63.5" font-family="Helvetica,sans-Serif" font-size="10.00" fill="#000000">cassert</text>
</g>
<!-- Node14&#45;&gt;Node16 -->
<g id="edge17" class="edge">
<title>Node14&#45;&gt;Node16</title>
<path fill="none" stroke="#191970" d="M476.277,-112.2455C484.8218,-104.1352 497.1778,-92.4075 507.3085,-82.7919"/>
<polygon fill="#191970" stroke="#191970" points="509.9972,-85.0655 514.8408,-75.6427 505.1782,-79.9884 509.9972,-85.0655"/>
</g>
<!-- Node17 -->
<g id="node18" class="node">
<title>Node17</title>
<g id="a_node18"><a xlink:href="coreviews_8hpp.html" target="_top" xlink:title="xnetwork/classes/coreviews.hpp">
<polygon fill="#ffffff" stroke="#000000" points="567.5,-56.5 567.5,-75.5 726.5,-75.5 726.5,-56.5 567.5,-56.5"/>
<text text-anchor="middle" x="647" y="-63.5" font-family="Helvetica,sans-Serif" font-size="10.00" fill="#000000">xnetwork/classes/coreviews.hpp</text>
</a>
</g>
</g>
<!-- Node14&#45;&gt;Node17 -->
<g id="edge21" class="edge">
<title>Node14&#45;&gt;Node17</title>
<path fill="none" stroke="#191970" d="M497.115,-112.3733C527.3429,-103.021 573.396,-88.7725 606.4739,-78.5385"/>
<polygon fill="#191970" stroke="#191970" points="607.7723,-81.8005 616.291,-75.5011 605.7033,-75.1133 607.7723,-81.8005"/>
</g>
<!-- Node18 -->
<g id="node19" class="node">
<title>Node18</title>
<g id="a_node19"><a xlink:href="reportviews_8hpp.html" target="_top" xlink:title="xnetwork/classes/reportviews.hpp">
<polygon fill="#ffffff" stroke="#000000" points="266.5,-56.5 266.5,-75.5 431.5,-75.5 431.5,-56.5 266.5,-56.5"/>
<text text-anchor="middle" x="349" y="-63.5" font-family="Helvetica,sans-Serif" font-size="10.00" fill="#000000">xnetwork/classes/reportviews.hpp</text>
</a>
</g>
</g>
<!-- Node14&#45;&gt;Node18 -->
<g id="edge22" class="edge">
<title>Node14&#45;&gt;Node18</title>
<path fill="none" stroke="#191970" d="M445.887,-112.3733C427.1897,-103.4241 399.1256,-89.9917 378.0066,-79.8835"/>
<polygon fill="#191970" stroke="#191970" points="379.3817,-76.6614 368.8506,-75.5011 376.3595,-82.9755 379.3817,-76.6614"/>
</g>
<!-- Node18&#45;&gt;Node7 -->
<g id="edge23" class="edge">
<title>Node18&#45;&gt;Node7</title>
<path fill="none" stroke="#191970" d="M349,-56.2455C349,-48.9382 349,-38.6944 349,-29.7046"/>
<polygon fill="#191970" stroke="#191970" points="352.5001,-29.6426 349,-19.6427 345.5001,-29.6427 352.5001,-29.6426"/>
</g>
</g>
</svg>
