<?xml version="1.0" encoding="UTF-8" standalone="no"?>
<!DOCTYPE svg PUBLIC "-//W3C//DTD SVG 1.1//EN"
 "http://www.w3.org/Graphics/SVG/1.1/DTD/svg11.dtd">
<!-- Generated by graphviz version 2.40.1 (20161225.0304)
 -->
<!-- Title: Graphical Class Hierarchy Pages: 1 -->
<svg width="213pt" height="50pt"
 viewBox="0.00 0.00 213.00 50.00" xmlns="http://www.w3.org/2000/svg" xmlns:xlink="http://www.w3.org/1999/xlink">
<g id="graph0" class="graph" transform="scale(1 1) rotate(0) translate(4 46)">
<title>Graphical Class Hierarchy</title>
<polygon fill="#ffffff" stroke="transparent" points="-4,4 -4,-46 209,-46 209,4 -4,4"/>
<!-- Node35 -->
<g id="node1" class="node">
<title>Node35</title>
<polygon fill="#ffffff" stroke="#bfbfbf" points="0,-11.5 0,-30.5 61,-30.5 61,-11.5 0,-11.5"/>
<text text-anchor="middle" x="30.5" y="-18.5" font-family="Helvetica,sans-Serif" font-size="10.00" fill="#000000">tuple_size</text>
</g>
<!-- Node0 -->
<g id="node2" class="node">
<title>Node0</title>
<g id="a_node2"><a xlink:href="classstd_1_1tuple__size_3_01iter_1_1impl_1_1EnumIterYield_3_01Index_00_01Elem_01_4_01_4.html" target="_top" xlink:title="std::tuple_size\&lt; iter\l::impl::EnumIterYield\l\&lt; Index, Elem \&gt; \&gt;">
<polygon fill="#ffffff" stroke="#000000" points="97,-.5 97,-41.5 205,-41.5 205,-.5 97,-.5"/>
<text text-anchor="start" x="105" y="-29.5" font-family="Helvetica,sans-Serif" font-size="10.00" fill="#000000">std::tuple_size&lt; iter</text>
<text text-anchor="start" x="105" y="-18.5" font-family="Helvetica,sans-Serif" font-size="10.00" fill="#000000">::impl::EnumIterYield</text>
<text text-anchor="middle" x="151" y="-7.5" font-family="Helvetica,sans-Serif" font-size="10.00" fill="#000000">&lt; Index, Elem &gt; &gt;</text>
</a>
</g>
</g>
<!-- Node35&#45;&gt;Node0 -->
<g id="edge1" class="edge">
<title>Node35&#45;&gt;Node0</title>
<path fill="none" stroke="#191970" d="M71.3045,-21C79.5381,-21 88.3145,-21 96.9211,-21"/>
<polygon fill="#191970" stroke="#191970" points="71.2191,-17.5001 61.219,-21 71.219,-24.5001 71.2191,-17.5001"/>
</g>
</g>
</svg>
