<?xml version="1.0" encoding="UTF-8" standalone="no"?>
<!DOCTYPE svg PUBLIC "-//W3C//DTD SVG 1.1//EN"
 "http://www.w3.org/Graphics/SVG/1.1/DTD/svg11.dtd">
<!-- Generated by graphviz version 2.40.1 (20161225.0304)
 -->
<!-- Title: lib/src/min_cover.cpp Pages: 1 -->
<svg width="1000pt" height="252pt"
 viewBox="0.00 0.00 999.60 252.00" xmlns="http://www.w3.org/2000/svg" xmlns:xlink="http://www.w3.org/1999/xlink">
<g id="graph0" class="graph" transform="scale(1 1) rotate(0) translate(4 248)">
<title>lib/src/min_cover.cpp</title>
<polygon fill="#ffffff" stroke="transparent" points="-4,4 -4,-248 995.5996,-248 995.5996,4 -4,4"/>
<!-- Node0 -->
<g id="node1" class="node">
<title>Node0</title>
<polygon fill="#bfbfbf" stroke="#000000" points="752.5996,-224.5 752.5996,-243.5 862.5996,-243.5 862.5996,-224.5 752.5996,-224.5"/>
<text text-anchor="middle" x="807.5996" y="-231.5" font-family="Helvetica,sans-Serif" font-size="10.00" fill="#000000">lib/src/min_cover.cpp</text>
</g>
<!-- Node1 -->
<g id="node2" class="node">
<title>Node1</title>
<g id="a_node2"><a xlink:href="bpqueue_8hpp.html" target="_top" xlink:title="ckpttncpp/bpqueue.hpp">
<polygon fill="#ffffff" stroke="#000000" points="127.5996,-168.5 127.5996,-187.5 245.5996,-187.5 245.5996,-168.5 127.5996,-168.5"/>
<text text-anchor="middle" x="186.5996" y="-175.5" font-family="Helvetica,sans-Serif" font-size="10.00" fill="#000000">ckpttncpp/bpqueue.hpp</text>
</a>
</g>
</g>
<!-- Node0&#45;&gt;Node1 -->
<g id="edge1" class="edge">
<title>Node0&#45;&gt;Node1</title>
<path fill="none" stroke="#191970" d="M752.4143,-230.1128C654.196,-223.0188 442.641,-206.9454 264.5996,-188 261.7359,-187.6953 258.8146,-187.3729 255.8646,-187.0378"/>
<polygon fill="#191970" stroke="#191970" points="256.1049,-183.5421 245.766,-185.8568 255.2917,-190.4947 256.1049,-183.5421"/>
</g>
<!-- Node6 -->
<g id="node7" class="node">
<title>Node6</title>
<polygon fill="#ffffff" stroke="#bfbfbf" points="225.5996,-56.5 225.5996,-75.5 269.5996,-75.5 269.5996,-56.5 225.5996,-56.5"/>
<text text-anchor="middle" x="247.5996" y="-63.5" font-family="Helvetica,sans-Serif" font-size="10.00" fill="#000000">vector</text>
</g>
<!-- Node0&#45;&gt;Node6 -->
<g id="edge33" class="edge">
<title>Node0&#45;&gt;Node6</title>
<path fill="none" stroke="#191970" d="M752.5308,-226.998C639.4875,-211.9396 385.4951,-174.3862 309.5996,-132 288.9124,-120.4466 271.0937,-99.6202 259.9364,-84.4444"/>
<polygon fill="#191970" stroke="#191970" points="262.5066,-82.0157 253.8842,-75.8589 256.7852,-86.0488 262.5066,-82.0157"/>
</g>
<!-- Node7 -->
<g id="node8" class="node">
<title>Node7</title>
<g id="a_node8"><a xlink:href="netlist_8hpp.html" target="_top" xlink:title="ckpttncpp/netlist.hpp">
<polygon fill="#ffffff" stroke="#000000" points="646.0996,-168.5 646.0996,-187.5 753.0996,-187.5 753.0996,-168.5 646.0996,-168.5"/>
<text text-anchor="middle" x="699.5996" y="-175.5" font-family="Helvetica,sans-Serif" font-size="10.00" fill="#000000">ckpttncpp/netlist.hpp</text>
</a>
</g>
</g>
<!-- Node0&#45;&gt;Node7 -->
<g id="edge8" class="edge">
<title>Node0&#45;&gt;Node7</title>
<path fill="none" stroke="#191970" d="M788.7874,-224.2455C771.7523,-215.4125 746.442,-202.2887 727.1314,-192.2758"/>
<polygon fill="#191970" stroke="#191970" points="728.6848,-189.1388 718.1961,-187.6427 725.4626,-195.353 728.6848,-189.1388"/>
</g>
<!-- Node11 -->
<g id="node12" class="node">
<title>Node11</title>
<g id="a_node12"><a xlink:href="py2cpp_8hpp.html" target="_top" xlink:title="py2cpp/py2cpp.hpp">
<polygon fill="#ffffff" stroke="#000000" points="735.0996,-56.5 735.0996,-75.5 836.0996,-75.5 836.0996,-56.5 735.0996,-56.5"/>
<text text-anchor="middle" x="785.5996" y="-63.5" font-family="Helvetica,sans-Serif" font-size="10.00" fill="#000000">py2cpp/py2cpp.hpp</text>
</a>
</g>
</g>
<!-- Node0&#45;&gt;Node11 -->
<g id="edge31" class="edge">
<title>Node0&#45;&gt;Node11</title>
<path fill="none" stroke="#191970" d="M806.3537,-224.4862C802.876,-197.9293 793.0069,-122.5651 788.2403,-86.1655"/>
<polygon fill="#191970" stroke="#191970" points="791.6554,-85.2887 786.8865,-75.8279 784.7147,-86.1977 791.6554,-85.2887"/>
</g>
<!-- Node13 -->
<g id="node14" class="node">
<title>Node13</title>
<polygon fill="#ffffff" stroke="#bfbfbf" points="901.5996,-.5 901.5996,-19.5 939.5996,-19.5 939.5996,-.5 901.5996,-.5"/>
<text text-anchor="middle" x="920.5996" y="-7.5" font-family="Helvetica,sans-Serif" font-size="10.00" fill="#000000">tuple</text>
</g>
<!-- Node0&#45;&gt;Node13 -->
<g id="edge32" class="edge">
<title>Node0&#45;&gt;Node13</title>
<path fill="none" stroke="#191970" d="M812.455,-224.375C829.6962,-190.1979 888.1678,-74.2894 911.1821,-28.6683"/>
<polygon fill="#191970" stroke="#191970" points="914.383,-30.0938 915.7622,-19.5891 908.1332,-26.941 914.383,-30.0938"/>
</g>
<!-- Node21 -->
<g id="node22" class="node">
<title>Node21</title>
<polygon fill="#ffffff" stroke="#bfbfbf" points="939.5996,-168.5 939.5996,-187.5 991.5996,-187.5 991.5996,-168.5 939.5996,-168.5"/>
<text text-anchor="middle" x="965.5996" y="-175.5" font-family="Helvetica,sans-Serif" font-size="10.00" fill="#000000">memory</text>
</g>
<!-- Node0&#45;&gt;Node21 -->
<g id="edge30" class="edge">
<title>Node0&#45;&gt;Node21</title>
<path fill="none" stroke="#191970" d="M834.7607,-224.3733C861.043,-215.058 901.0305,-200.8852 929.8798,-190.6602"/>
<polygon fill="#191970" stroke="#191970" points="931.3227,-193.8622 939.5789,-187.2225 928.9842,-187.2643 931.3227,-193.8622"/>
</g>
<!-- Node2 -->
<g id="node3" class="node">
<title>Node2</title>
<g id="a_node3"><a xlink:href="dllist_8hpp.html" target="_top" xlink:title="dllist.hpp">
<polygon fill="#ffffff" stroke="#000000" points="102.5996,-112.5 102.5996,-131.5 158.5996,-131.5 158.5996,-112.5 102.5996,-112.5"/>
<text text-anchor="middle" x="130.5996" y="-119.5" font-family="Helvetica,sans-Serif" font-size="10.00" fill="#000000">dllist.hpp</text>
</a>
</g>
</g>
<!-- Node1&#45;&gt;Node2 -->
<g id="edge2" class="edge">
<title>Node1&#45;&gt;Node2</title>
<path fill="none" stroke="#191970" d="M176.8451,-168.2455C168.7348,-160.1352 157.0071,-148.4075 147.3915,-138.7919"/>
<polygon fill="#191970" stroke="#191970" points="149.7882,-136.2389 140.2422,-131.6427 144.8384,-141.1887 149.7882,-136.2389"/>
</g>
<!-- Node4 -->
<g id="node5" class="node">
<title>Node4</title>
<polygon fill="#ffffff" stroke="#bfbfbf" points="158.0996,-56.5 158.0996,-75.5 207.0996,-75.5 207.0996,-56.5 158.0996,-56.5"/>
<text text-anchor="middle" x="182.5996" y="-63.5" font-family="Helvetica,sans-Serif" font-size="10.00" fill="#000000">cassert</text>
</g>
<!-- Node1&#45;&gt;Node4 -->
<g id="edge5" class="edge">
<title>Node1&#45;&gt;Node4</title>
<path fill="none" stroke="#191970" d="M186.2585,-168.4509C185.6061,-150.184 184.1694,-109.9553 183.303,-85.6976"/>
<polygon fill="#191970" stroke="#191970" points="186.7945,-85.3936 182.9397,-75.5249 179.799,-85.6435 186.7945,-85.3936"/>
</g>
<!-- Node5 -->
<g id="node6" class="node">
<title>Node5</title>
<polygon fill="#ffffff" stroke="#bfbfbf" points="316.5996,-.5 316.5996,-19.5 378.5996,-19.5 378.5996,-.5 316.5996,-.5"/>
<text text-anchor="middle" x="347.5996" y="-7.5" font-family="Helvetica,sans-Serif" font-size="10.00" fill="#000000">type_traits</text>
</g>
<!-- Node1&#45;&gt;Node5 -->
<g id="edge6" class="edge">
<title>Node1&#45;&gt;Node5</title>
<path fill="none" stroke="#191970" d="M148.2746,-168.4664C83.5973,-150.6445 -35.8498,-109.2204 10.5996,-56 29.7955,-34.0059 220.4254,-18.5427 306.1802,-12.6447"/>
<polygon fill="#191970" stroke="#191970" points="306.6023,-16.1242 316.3431,-11.9568 306.1295,-9.1402 306.6023,-16.1242"/>
</g>
<!-- Node1&#45;&gt;Node6 -->
<g id="edge7" class="edge">
<title>Node1&#45;&gt;Node6</title>
<path fill="none" stroke="#191970" d="M191.8004,-168.4509C201.9294,-149.8533 224.4567,-108.4919 237.5801,-84.3964"/>
<polygon fill="#191970" stroke="#191970" points="240.7025,-85.9809 242.4119,-75.5249 234.5551,-82.6328 240.7025,-85.9809"/>
</g>
<!-- Node3 -->
<g id="node4" class="node">
<title>Node3</title>
<polygon fill="#ffffff" stroke="#bfbfbf" points="19.5996,-56.5 19.5996,-75.5 139.5996,-75.5 139.5996,-56.5 19.5996,-56.5"/>
<text text-anchor="middle" x="79.5996" y="-63.5" font-family="Helvetica,sans-Serif" font-size="10.00" fill="#000000">boost/coroutine2/all.hpp</text>
</g>
<!-- Node2&#45;&gt;Node3 -->
<g id="edge3" class="edge">
<title>Node2&#45;&gt;Node3</title>
<path fill="none" stroke="#191970" d="M121.716,-112.2455C114.403,-104.2155 103.8604,-92.6394 95.1529,-83.0781"/>
<polygon fill="#191970" stroke="#191970" points="97.7023,-80.6795 88.3813,-75.6427 92.5269,-85.3928 97.7023,-80.6795"/>
</g>
<!-- Node2&#45;&gt;Node4 -->
<g id="edge4" class="edge">
<title>Node2&#45;&gt;Node4</title>
<path fill="none" stroke="#191970" d="M139.6573,-112.2455C147.1137,-104.2155 157.863,-92.6394 166.7413,-83.0781"/>
<polygon fill="#191970" stroke="#191970" points="169.4059,-85.3522 173.6456,-75.6427 164.2763,-80.589 169.4059,-85.3522"/>
</g>
<!-- Node7&#45;&gt;Node6 -->
<g id="edge20" class="edge">
<title>Node7&#45;&gt;Node6</title>
<path fill="none" stroke="#191970" d="M645.8544,-173.6946C562.2899,-166.5272 405.3285,-151.0375 352.5996,-132 320.1398,-120.2806 287.1661,-97.3642 267.0462,-81.8657"/>
<polygon fill="#191970" stroke="#191970" points="269.0242,-78.9684 259.0019,-75.5328 264.6943,-84.4686 269.0242,-78.9684"/>
</g>
<!-- Node8 -->
<g id="node9" class="node">
<title>Node8</title>
<polygon fill="#ffffff" stroke="#bfbfbf" points="564.5996,-112.5 564.5996,-131.5 620.5996,-131.5 620.5996,-112.5 564.5996,-112.5"/>
<text text-anchor="middle" x="592.5996" y="-119.5" font-family="Helvetica,sans-Serif" font-size="10.00" fill="#000000">algorithm</text>
</g>
<!-- Node7&#45;&gt;Node8 -->
<g id="edge9" class="edge">
<title>Node7&#45;&gt;Node8</title>
<path fill="none" stroke="#191970" d="M680.9616,-168.2455C664.1609,-159.4527 639.2361,-146.4079 620.1377,-136.4125"/>
<polygon fill="#191970" stroke="#191970" points="621.5069,-133.1787 611.0239,-131.6427 618.2609,-139.3807 621.5069,-133.1787"/>
</g>
<!-- Node9 -->
<g id="node10" class="node">
<title>Node9</title>
<polygon fill="#ffffff" stroke="#bfbfbf" points="639.0996,-112.5 639.0996,-131.5 692.0996,-131.5 692.0996,-112.5 639.0996,-112.5"/>
<text text-anchor="middle" x="665.5996" y="-119.5" font-family="Helvetica,sans-Serif" font-size="10.00" fill="#000000">gsl/span</text>
</g>
<!-- Node7&#45;&gt;Node9 -->
<g id="edge10" class="edge">
<title>Node7&#45;&gt;Node9</title>
<path fill="none" stroke="#191970" d="M693.6772,-168.2455C688.9968,-160.5367 682.3323,-149.5598 676.6707,-140.2348"/>
<polygon fill="#191970" stroke="#191970" points="679.6356,-138.3741 671.454,-131.6427 673.6521,-142.007 679.6356,-138.3741"/>
</g>
<!-- Node10 -->
<g id="node11" class="node">
<title>Node10</title>
<polygon fill="#ffffff" stroke="#bfbfbf" points="710.0996,-112.5 710.0996,-131.5 757.0996,-131.5 757.0996,-112.5 710.0996,-112.5"/>
<text text-anchor="middle" x="733.5996" y="-119.5" font-family="Helvetica,sans-Serif" font-size="10.00" fill="#000000">iterator</text>
</g>
<!-- Node7&#45;&gt;Node10 -->
<g id="edge11" class="edge">
<title>Node7&#45;&gt;Node10</title>
<path fill="none" stroke="#191970" d="M705.5219,-168.2455C710.2023,-160.5367 716.8668,-149.5598 722.5284,-140.2348"/>
<polygon fill="#191970" stroke="#191970" points="725.547,-142.007 727.7451,-131.6427 719.5635,-138.3741 725.547,-142.007"/>
</g>
<!-- Node7&#45;&gt;Node11 -->
<g id="edge12" class="edge">
<title>Node7&#45;&gt;Node11</title>
<path fill="none" stroke="#191970" d="M719.9647,-168.4702C734.6441,-160.6193 753.8624,-148.1598 765.5996,-132 775.4819,-118.3939 780.5407,-99.8509 783.094,-85.8838"/>
<polygon fill="#191970" stroke="#191970" points="786.5769,-86.2631 784.6489,-75.8452 779.6594,-85.1916 786.5769,-86.2631"/>
</g>
<!-- Node16 -->
<g id="node17" class="node">
<title>Node16</title>
<polygon fill="#ffffff" stroke="#bfbfbf" points="843.5996,-.5 843.5996,-19.5 883.5996,-19.5 883.5996,-.5 843.5996,-.5"/>
<text text-anchor="middle" x="863.5996" y="-7.5" font-family="Helvetica,sans-Serif" font-size="10.00" fill="#000000">utility</text>
</g>
<!-- Node7&#45;&gt;Node16 -->
<g id="edge19" class="edge">
<title>Node7&#45;&gt;Node16</title>
<path fill="none" stroke="#191970" d="M723.8582,-168.4033C757.1653,-153.8456 816.1563,-122.823 844.5996,-76 853.2082,-61.8285 858.0708,-43.578 860.7168,-29.8617"/>
<polygon fill="#191970" stroke="#191970" points="864.2364,-30.039 862.4517,-19.5956 857.3342,-28.8726 864.2364,-30.039"/>
</g>
<!-- Node17 -->
<g id="node18" class="node">
<title>Node17</title>
<g id="a_node18"><a xlink:href="graph_8hpp.html" target="_top" xlink:title="xnetwork/classes/graph.hpp">
<polygon fill="#ffffff" stroke="#000000" points="362.0996,-112.5 362.0996,-131.5 501.0996,-131.5 501.0996,-112.5 362.0996,-112.5"/>
<text text-anchor="middle" x="431.5996" y="-119.5" font-family="Helvetica,sans-Serif" font-size="10.00" fill="#000000">xnetwork/classes/graph.hpp</text>
</a>
</g>
</g>
<!-- Node7&#45;&gt;Node17 -->
<g id="edge21" class="edge">
<title>Node7&#45;&gt;Node17</title>
<path fill="none" stroke="#191970" d="M653.8332,-168.4369C607.678,-158.7925 536.3817,-143.8948 487.0458,-133.5858"/>
<polygon fill="#191970" stroke="#191970" points="487.6816,-130.1431 477.1771,-131.5237 486.2498,-136.9951 487.6816,-130.1431"/>
</g>
<!-- Node11&#45;&gt;Node5 -->
<g id="edge15" class="edge">
<title>Node11&#45;&gt;Node5</title>
<path fill="none" stroke="#191970" d="M734.885,-57.3863C731.7451,-56.903 728.6307,-56.4368 725.5996,-56 603.6126,-38.4206 458.8309,-22.0499 389.1485,-14.4504"/>
<polygon fill="#191970" stroke="#191970" points="389.3436,-10.9511 379.024,-13.3504 388.5875,-17.9101 389.3436,-10.9511"/>
</g>
<!-- Node12 -->
<g id="node13" class="node">
<title>Node12</title>
<polygon fill="#ffffff" stroke="#bfbfbf" points="555.0996,-.5 555.0996,-19.5 628.0996,-19.5 628.0996,-.5 555.0996,-.5"/>
<text text-anchor="middle" x="591.5996" y="-7.5" font-family="Helvetica,sans-Serif" font-size="10.00" fill="#000000">initializer_list</text>
</g>
<!-- Node11&#45;&gt;Node12 -->
<g id="edge13" class="edge">
<title>Node11&#45;&gt;Node12</title>
<path fill="none" stroke="#191970" d="M752.2498,-56.3733C719.5716,-46.9404 669.6378,-32.5265 634.1226,-22.2747"/>
<polygon fill="#191970" stroke="#191970" points="635.0926,-18.9119 624.5142,-19.5011 633.1512,-25.6373 635.0926,-18.9119"/>
</g>
<!-- Node11&#45;&gt;Node13 -->
<g id="edge14" class="edge">
<title>Node11&#45;&gt;Node13</title>
<path fill="none" stroke="#191970" d="M808.8069,-56.3733C831.8343,-46.8211 867.1749,-32.1613 891.941,-21.888"/>
<polygon fill="#191970" stroke="#191970" points="893.2954,-25.1154 901.1911,-18.0509 890.6132,-18.6496 893.2954,-25.1154"/>
</g>
<!-- Node14 -->
<g id="node15" class="node">
<title>Node14</title>
<polygon fill="#ffffff" stroke="#bfbfbf" points="646.0996,-.5 646.0996,-19.5 729.0996,-19.5 729.0996,-.5 646.0996,-.5"/>
<text text-anchor="middle" x="687.5996" y="-7.5" font-family="Helvetica,sans-Serif" font-size="10.00" fill="#000000">unordered_map</text>
</g>
<!-- Node11&#45;&gt;Node14 -->
<g id="edge16" class="edge">
<title>Node11&#45;&gt;Node14</title>
<path fill="none" stroke="#191970" d="M768.5293,-56.2455C753.3525,-47.5731 730.9374,-34.7645 713.5433,-24.825"/>
<polygon fill="#191970" stroke="#191970" points="714.8932,-21.5653 704.4742,-19.6427 711.4202,-27.643 714.8932,-21.5653"/>
</g>
<!-- Node15 -->
<g id="node16" class="node">
<title>Node15</title>
<polygon fill="#ffffff" stroke="#bfbfbf" points="747.5996,-.5 747.5996,-19.5 825.5996,-19.5 825.5996,-.5 747.5996,-.5"/>
<text text-anchor="middle" x="786.5996" y="-7.5" font-family="Helvetica,sans-Serif" font-size="10.00" fill="#000000">unordered_set</text>
</g>
<!-- Node11&#45;&gt;Node15 -->
<g id="edge17" class="edge">
<title>Node11&#45;&gt;Node15</title>
<path fill="none" stroke="#191970" d="M785.7737,-56.2455C785.9042,-48.9382 786.0872,-38.6944 786.2477,-29.7046"/>
<polygon fill="#191970" stroke="#191970" points="789.7482,-29.7036 786.4274,-19.6427 782.7493,-29.5786 789.7482,-29.7036"/>
</g>
<!-- Node11&#45;&gt;Node16 -->
<g id="edge18" class="edge">
<title>Node11&#45;&gt;Node16</title>
<path fill="none" stroke="#191970" d="M799.1861,-56.2455C810.93,-47.814 828.1194,-35.4729 841.7877,-25.6598"/>
<polygon fill="#191970" stroke="#191970" points="844.0867,-28.3179 850.1687,-19.6427 840.0042,-22.6316 844.0867,-28.3179"/>
</g>
<!-- Node17&#45;&gt;Node4 -->
<g id="edge23" class="edge">
<title>Node17&#45;&gt;Node4</title>
<path fill="none" stroke="#191970" d="M381.8246,-112.4559C340.3107,-104.2465 279.4103,-91.628 217.3842,-76.0591"/>
<polygon fill="#191970" stroke="#191970" points="217.9759,-72.5985 207.4225,-73.5353 216.2567,-79.3841 217.9759,-72.5985"/>
</g>
<!-- Node17&#45;&gt;Node5 -->
<g id="edge25" class="edge">
<title>Node17&#45;&gt;Node5</title>
<path fill="none" stroke="#191970" d="M410.7915,-112.4009C396.0857,-104.5887 377.029,-92.2083 365.5996,-76 355.9863,-62.3672 351.5033,-43.8268 349.415,-29.8675"/>
<polygon fill="#191970" stroke="#191970" points="352.8771,-29.343 348.2013,-19.8358 345.9278,-30.1838 352.8771,-29.343"/>
</g>
<!-- Node17&#45;&gt;Node6 -->
<g id="edge26" class="edge">
<title>Node17&#45;&gt;Node6</title>
<path fill="none" stroke="#191970" d="M399.3059,-112.4947C370.2996,-103.9119 326.3079,-90.7846 279.618,-76.2798"/>
<polygon fill="#191970" stroke="#191970" points="280.5221,-72.8956 269.9337,-73.2634 278.4404,-79.5789 280.5221,-72.8956"/>
</g>
<!-- Node17&#45;&gt;Node11 -->
<g id="edge24" class="edge">
<title>Node17&#45;&gt;Node11</title>
<path fill="none" stroke="#191970" d="M493.5726,-112.4867C550.8826,-103.6475 638.7123,-89.9959 724.9095,-76.0995"/>
<polygon fill="#191970" stroke="#191970" points="725.5521,-79.5411 734.8664,-74.4919 724.4363,-72.6306 725.5521,-79.5411"/>
</g>
<!-- Node18 -->
<g id="node19" class="node">
<title>Node18</title>
<polygon fill="#ffffff" stroke="#bfbfbf" points="287.5996,-56.5 287.5996,-75.5 319.5996,-75.5 319.5996,-56.5 287.5996,-56.5"/>
<text text-anchor="middle" x="303.5996" y="-63.5" font-family="Helvetica,sans-Serif" font-size="10.00" fill="#000000">any</text>
</g>
<!-- Node17&#45;&gt;Node18 -->
<g id="edge22" class="edge">
<title>Node17&#45;&gt;Node18</title>
<path fill="none" stroke="#191970" d="M409.5956,-112.3733C387.2049,-102.5773 352.5358,-87.4096 328.9939,-77.11"/>
<polygon fill="#191970" stroke="#191970" points="330.2184,-73.8255 319.6539,-73.0238 327.4126,-80.2386 330.2184,-73.8255"/>
</g>
<!-- Node19 -->
<g id="node20" class="node">
<title>Node19</title>
<g id="a_node20"><a xlink:href="coreviews_8hpp.html" target="_top" xlink:title="xnetwork/classes/coreviews.hpp">
<polygon fill="#ffffff" stroke="#000000" points="375.0996,-56.5 375.0996,-75.5 534.0996,-75.5 534.0996,-56.5 375.0996,-56.5"/>
<text text-anchor="middle" x="454.5996" y="-63.5" font-family="Helvetica,sans-Serif" font-size="10.00" fill="#000000">xnetwork/classes/coreviews.hpp</text>
</a>
</g>
</g>
<!-- Node17&#45;&gt;Node19 -->
<g id="edge27" class="edge">
<title>Node17&#45;&gt;Node19</title>
<path fill="none" stroke="#191970" d="M435.6058,-112.2455C438.673,-104.7776 442.9999,-94.2427 446.7493,-85.1137"/>
<polygon fill="#191970" stroke="#191970" points="450.0775,-86.2226 450.6392,-75.6427 443.6023,-83.5631 450.0775,-86.2226"/>
</g>
<!-- Node20 -->
<g id="node21" class="node">
<title>Node20</title>
<g id="a_node21"><a xlink:href="reportviews_8hpp.html" target="_top" xlink:title="xnetwork/classes/reportviews.hpp">
<polygon fill="#ffffff" stroke="#000000" points="552.0996,-56.5 552.0996,-75.5 717.0996,-75.5 717.0996,-56.5 552.0996,-56.5"/>
<text text-anchor="middle" x="634.5996" y="-63.5" font-family="Helvetica,sans-Serif" font-size="10.00" fill="#000000">xnetwork/classes/reportviews.hpp</text>
</a>
</g>
</g>
<!-- Node17&#45;&gt;Node20 -->
<g id="edge28" class="edge">
<title>Node17&#45;&gt;Node20</title>
<path fill="none" stroke="#191970" d="M466.4965,-112.3733C500.6907,-102.9404 552.941,-88.5265 590.1038,-78.2747"/>
<polygon fill="#191970" stroke="#191970" points="591.4488,-81.5345 600.158,-75.5011 589.5873,-74.7865 591.4488,-81.5345"/>
</g>
<!-- Node20&#45;&gt;Node12 -->
<g id="edge29" class="edge">
<title>Node20&#45;&gt;Node12</title>
<path fill="none" stroke="#191970" d="M627.1095,-56.2455C621.0669,-48.3761 612.4093,-37.101 605.1554,-27.6542"/>
<polygon fill="#191970" stroke="#191970" points="607.8701,-25.4426 599.0037,-19.6427 602.318,-29.7058 607.8701,-25.4426"/>
</g>
</g>
</svg>
