<?xml version="1.0" encoding="UTF-8" standalone="no"?>
<!DOCTYPE svg PUBLIC "-//W3C//DTD SVG 1.1//EN"
 "http://www.w3.org/Graphics/SVG/1.1/DTD/svg11.dtd">
<!-- Generated by graphviz version 2.40.1 (20161225.0304)
 -->
<!-- Title: create_contraction_subgraph Pages: 1 -->
<svg width="406pt" height="230pt"
 viewBox="0.00 0.00 406.00 230.00" xmlns="http://www.w3.org/2000/svg" xmlns:xlink="http://www.w3.org/1999/xlink">
<g id="graph0" class="graph" transform="scale(1 1) rotate(0) translate(4 226)">
<title>create_contraction_subgraph</title>
<polygon fill="#ffffff" stroke="transparent" points="-4,4 -4,-226 402,-226 402,4 -4,4"/>
<!-- Node0 -->
<g id="node1" class="node">
<title>Node0</title>
<polygon fill="#bfbfbf" stroke="#000000" points="0,-115 0,-145 97,-145 97,-115 0,-115"/>
<text text-anchor="start" x="8" y="-133" font-family="Helvetica,sans-Serif" font-size="10.00" fill="#000000">create_contraction</text>
<text text-anchor="middle" x="48.5" y="-122" font-family="Helvetica,sans-Serif" font-size="10.00" fill="#000000">_subgraph</text>
</g>
<!-- Node1 -->
<g id="node2" class="node">
<title>Node1</title>
<g id="a_node2"><a xlink:href="classxn_1_1Graph.html#a0eb06caefea5f60a5156e15662123d2f" target="_top" xlink:title="Iterate over the nodes. ">
<polygon fill="#ffffff" stroke="#000000" points="144.5,-202.5 144.5,-221.5 233.5,-221.5 233.5,-202.5 144.5,-202.5"/>
<text text-anchor="middle" x="189" y="-209.5" font-family="Helvetica,sans-Serif" font-size="10.00" fill="#000000">xn::Graph::begin</text>
</a>
</g>
</g>
<!-- Node0&#45;&gt;Node1 -->
<g id="edge1" class="edge">
<title>Node0&#45;&gt;Node1</title>
<path fill="none" stroke="#191970" d="M65.5407,-145.2498C81.8807,-159.2307 107.7312,-179.72 133,-193 136.993,-195.0985 141.265,-197.0364 145.6025,-198.8069"/>
<polygon fill="#191970" stroke="#191970" points="144.5287,-202.1428 155.1201,-202.4131 147.0089,-195.5969 144.5287,-202.1428"/>
</g>
<!-- Node2 -->
<g id="node3" class="node">
<title>Node2</title>
<g id="a_node3"><a xlink:href="namespacepy.html#a13b079f9cc2ef2797f2908169c6e24c4" target="_top" xlink:title="py::enumerate">
<polygon fill="#ffffff" stroke="#000000" points="149.5,-164.5 149.5,-183.5 228.5,-183.5 228.5,-164.5 149.5,-164.5"/>
<text text-anchor="middle" x="189" y="-171.5" font-family="Helvetica,sans-Serif" font-size="10.00" fill="#000000">py::enumerate</text>
</a>
</g>
</g>
<!-- Node0&#45;&gt;Node2 -->
<g id="edge2" class="edge">
<title>Node0&#45;&gt;Node2</title>
<path fill="none" stroke="#191970" d="M96.4592,-145.0192C113.4439,-150.3383 132.3681,-156.2647 148.6553,-161.3654"/>
<polygon fill="#191970" stroke="#191970" points="147.8258,-164.7731 158.4148,-164.4217 149.9178,-158.0931 147.8258,-164.7731"/>
</g>
<!-- Node5 -->
<g id="node6" class="node">
<title>Node5</title>
<g id="a_node6"><a xlink:href="structNetlist.html#a0b934e8402df07bc4d19efa29c747094" target="_top" xlink:title="Netlist::get_module\l_weight">
<polygon fill="#ffffff" stroke="#000000" points="138.5,-115 138.5,-145 239.5,-145 239.5,-115 138.5,-115"/>
<text text-anchor="start" x="146.5" y="-133" font-family="Helvetica,sans-Serif" font-size="10.00" fill="#000000">Netlist::get_module</text>
<text text-anchor="middle" x="189" y="-122" font-family="Helvetica,sans-Serif" font-size="10.00" fill="#000000">_weight</text>
</a>
</g>
</g>
<!-- Node0&#45;&gt;Node5 -->
<g id="edge5" class="edge">
<title>Node0&#45;&gt;Node5</title>
<path fill="none" stroke="#191970" d="M97.2458,-130C107.2322,-130 117.8603,-130 128.2094,-130"/>
<polygon fill="#191970" stroke="#191970" points="128.4314,-133.5001 138.4314,-130 128.4313,-126.5001 128.4314,-133.5001"/>
</g>
<!-- Node6 -->
<g id="node7" class="node">
<title>Node6</title>
<g id="a_node7"><a xlink:href="min__cover_8cpp.html#ad30e404dd32337098234513041ba65ce" target="_top" xlink:title="max_independent_net">
<polygon fill="#ffffff" stroke="#000000" points="133,-76.5 133,-95.5 245,-95.5 245,-76.5 133,-76.5"/>
<text text-anchor="middle" x="189" y="-83.5" font-family="Helvetica,sans-Serif" font-size="10.00" fill="#000000">max_independent_net</text>
</a>
</g>
</g>
<!-- Node0&#45;&gt;Node6 -->
<g id="edge6" class="edge">
<title>Node0&#45;&gt;Node6</title>
<path fill="none" stroke="#191970" d="M96.4592,-114.9808C113.4439,-109.6617 132.3681,-103.7353 148.6553,-98.6346"/>
<polygon fill="#191970" stroke="#191970" points="149.9178,-101.9069 158.4148,-95.5783 147.8258,-95.2269 149.9178,-101.9069"/>
</g>
<!-- Node11 -->
<g id="node12" class="node">
<title>Node11</title>
<g id="a_node12"><a xlink:href="structNetlist.html#a95539d9ee2a37778d98a227807c87463" target="_top" xlink:title="Netlist::number_of\l_modules">
<polygon fill="#ffffff" stroke="#000000" points="140.5,-27 140.5,-57 237.5,-57 237.5,-27 140.5,-27"/>
<text text-anchor="start" x="148.5" y="-45" font-family="Helvetica,sans-Serif" font-size="10.00" fill="#000000">Netlist::number_of</text>
<text text-anchor="middle" x="189" y="-34" font-family="Helvetica,sans-Serif" font-size="10.00" fill="#000000">_modules</text>
</a>
</g>
</g>
<!-- Node0&#45;&gt;Node11 -->
<g id="edge11" class="edge">
<title>Node0&#45;&gt;Node11</title>
<path fill="none" stroke="#191970" d="M66.4761,-114.7535C83.0493,-101.1557 108.6899,-81.2524 133,-67 136.1717,-65.1405 139.5066,-63.3278 142.903,-61.5831"/>
<polygon fill="#191970" stroke="#191970" points="144.5299,-64.6836 151.9674,-57.1381 141.4478,-58.3986 144.5299,-64.6836"/>
</g>
<!-- Node3 -->
<g id="node4" class="node">
<title>Node3</title>
<g id="a_node4"><a xlink:href="namespaceNS1.html#af1987d9af5bebeef203a21bd4548d0bf" target="_top" xlink:title="NS1::begin">
<polygon fill="#ffffff" stroke="#000000" points="307,-202.5 307,-221.5 372,-221.5 372,-202.5 307,-202.5"/>
<text text-anchor="middle" x="339.5" y="-209.5" font-family="Helvetica,sans-Serif" font-size="10.00" fill="#000000">NS1::begin</text>
</a>
</g>
</g>
<!-- Node2&#45;&gt;Node3 -->
<g id="edge3" class="edge">
<title>Node2&#45;&gt;Node3</title>
<path fill="none" stroke="#191970" d="M226.9775,-183.589C248.2724,-188.9658 274.8949,-195.6878 296.8979,-201.2433"/>
<polygon fill="#191970" stroke="#191970" points="296.0939,-204.6501 306.6465,-203.7048 297.8076,-197.8631 296.0939,-204.6501"/>
</g>
<!-- Node4 -->
<g id="node5" class="node">
<title>Node4</title>
<g id="a_node5"><a xlink:href="namespaceNS1.html#adffa3fd87b6626df9eda704de5f7fceb" target="_top" xlink:title="NS1::end">
<polygon fill="#ffffff" stroke="#000000" points="310.5,-164.5 310.5,-183.5 368.5,-183.5 368.5,-164.5 310.5,-164.5"/>
<text text-anchor="middle" x="339.5" y="-171.5" font-family="Helvetica,sans-Serif" font-size="10.00" fill="#000000">NS1::end</text>
</a>
</g>
</g>
<!-- Node2&#45;&gt;Node4 -->
<g id="edge4" class="edge">
<title>Node2&#45;&gt;Node4</title>
<path fill="none" stroke="#191970" d="M228.5421,-174C250.6462,-174 278.1015,-174 300.171,-174"/>
<polygon fill="#191970" stroke="#191970" points="300.2087,-177.5001 310.2087,-174 300.2086,-170.5001 300.2087,-177.5001"/>
</g>
<!-- Node7 -->
<g id="node8" class="node">
<title>Node7</title>
<g id="a_node8"><a xlink:href="structNetlist.html#a2b21ee258e768954f1cbd727d0999e4e" target="_top" xlink:title="Get the max net degree. ">
<polygon fill="#ffffff" stroke="#000000" points="286,-115 286,-145 393,-145 393,-115 286,-115"/>
<text text-anchor="start" x="294" y="-133" font-family="Helvetica,sans-Serif" font-size="10.00" fill="#000000">Netlist::get_max_net</text>
<text text-anchor="middle" x="339.5" y="-122" font-family="Helvetica,sans-Serif" font-size="10.00" fill="#000000">_degree</text>
</a>
</g>
</g>
<!-- Node6&#45;&gt;Node7 -->
<g id="edge7" class="edge">
<title>Node6&#45;&gt;Node7</title>
<path fill="none" stroke="#191970" d="M221.6563,-95.5473C238.2226,-100.3906 258.8955,-106.4346 278.2806,-112.102"/>
<polygon fill="#191970" stroke="#191970" points="277.3892,-115.4878 287.9696,-114.9346 279.3536,-108.7691 277.3892,-115.4878"/>
</g>
<!-- Node8 -->
<g id="node9" class="node">
<title>Node8</title>
<g id="a_node9"><a xlink:href="classxn_1_1Graph.html#a8190f6d88f8933f798828d8e063d6b12" target="_top" xlink:title="xn::Graph::degree">
<polygon fill="#ffffff" stroke="#000000" points="292,-76.5 292,-95.5 387,-95.5 387,-76.5 292,-76.5"/>
<text text-anchor="middle" x="339.5" y="-83.5" font-family="Helvetica,sans-Serif" font-size="10.00" fill="#000000">xn::Graph::degree</text>
</a>
</g>
</g>
<!-- Node6&#45;&gt;Node8 -->
<g id="edge8" class="edge">
<title>Node6&#45;&gt;Node8</title>
<path fill="none" stroke="#191970" d="M245.0406,-86C256.9341,-86 269.5137,-86 281.4791,-86"/>
<polygon fill="#191970" stroke="#191970" points="281.8034,-89.5001 291.8033,-86 281.8033,-82.5001 281.8034,-89.5001"/>
</g>
<!-- Node9 -->
<g id="node10" class="node">
<title>Node9</title>
<g id="a_node10"><a xlink:href="structdllink.html#ac9e3f618188a318cb53747e6bb4f417c" target="_top" xlink:title="pop a node from the front ">
<polygon fill="#ffffff" stroke="#000000" points="302.5,-38.5 302.5,-57.5 376.5,-57.5 376.5,-38.5 302.5,-38.5"/>
<text text-anchor="middle" x="339.5" y="-45.5" font-family="Helvetica,sans-Serif" font-size="10.00" fill="#000000">dllink::popleft</text>
</a>
</g>
</g>
<!-- Node6&#45;&gt;Node9 -->
<g id="edge9" class="edge">
<title>Node6&#45;&gt;Node9</title>
<path fill="none" stroke="#191970" d="M226.9775,-76.411C246.8985,-71.3811 271.4819,-65.174 292.5842,-59.8459"/>
<polygon fill="#191970" stroke="#191970" points="293.477,-63.2304 302.3159,-57.3887 291.7633,-56.4433 293.477,-63.2304"/>
</g>
<!-- Node10 -->
<g id="node11" class="node">
<title>Node10</title>
<g id="a_node11"><a xlink:href="structNetlist.html#ab287e126909a3ec4828aa8b918278dc7" target="_top" xlink:title="Netlist::get_net_weight">
<polygon fill="#ffffff" stroke="#000000" points="281,-.5 281,-19.5 398,-19.5 398,-.5 281,-.5"/>
<text text-anchor="middle" x="339.5" y="-7.5" font-family="Helvetica,sans-Serif" font-size="10.00" fill="#000000">Netlist::get_net_weight</text>
</a>
</g>
</g>
<!-- Node6&#45;&gt;Node10 -->
<g id="edge10" class="edge">
<title>Node6&#45;&gt;Node10</title>
<path fill="none" stroke="#191970" d="M225.7347,-76.4025C232.4149,-73.8717 239.1216,-70.7659 245,-67 264.5894,-54.4505 261.3291,-41.4213 281,-29 284.3083,-26.911 287.868,-25.0307 291.5393,-23.3422"/>
<polygon fill="#191970" stroke="#191970" points="292.8963,-26.5686 300.8157,-19.5306 290.2358,-20.0939 292.8963,-26.5686"/>
</g>
</g>
</svg>
