<?xml version="1.0" encoding="UTF-8" standalone="no"?>
<!DOCTYPE svg PUBLIC "-//W3C//DTD SVG 1.1//EN"
 "http://www.w3.org/Graphics/SVG/1.1/DTD/svg11.dtd">
<!-- Generated by graphviz version 2.40.1 (20161225.0304)
 -->
<!-- Title: max_independent_net Pages: 1 -->
<svg width="273pt" height="66pt"
 viewBox="0.00 0.00 273.00 66.00" xmlns="http://www.w3.org/2000/svg" xmlns:xlink="http://www.w3.org/1999/xlink">
<g id="graph0" class="graph" transform="scale(1 1) rotate(0) translate(4 62)">
<title>max_independent_net</title>
<polygon fill="#ffffff" stroke="transparent" points="-4,4 -4,-62 269,-62 269,4 -4,4"/>
<!-- Node14 -->
<g id="node1" class="node">
<title>Node14</title>
<polygon fill="#bfbfbf" stroke="#000000" points="0,-19.5 0,-38.5 112,-38.5 112,-19.5 0,-19.5"/>
<text text-anchor="middle" x="56" y="-26.5" font-family="Helvetica,sans-Serif" font-size="10.00" fill="#000000">max_independent_net</text>
</g>
<!-- Node15 -->
<g id="node2" class="node">
<title>Node15</title>
<g id="a_node2"><a xlink:href="classxn_1_1Graph.html#a8190f6d88f8933f798828d8e063d6b12" target="_top" xlink:title="xn::Graph::degree">
<polygon fill="#ffffff" stroke="#000000" points="159,-38.5 159,-57.5 254,-57.5 254,-38.5 159,-38.5"/>
<text text-anchor="middle" x="206.5" y="-45.5" font-family="Helvetica,sans-Serif" font-size="10.00" fill="#000000">xn::Graph::degree</text>
</a>
</g>
</g>
<!-- Node14&#45;&gt;Node15 -->
<g id="edge1" class="edge">
<title>Node14&#45;&gt;Node15</title>
<path fill="none" stroke="#191970" d="M112.0406,-36.0749C124.0542,-37.5916 136.7679,-39.1966 148.8415,-40.7209"/>
<polygon fill="#191970" stroke="#191970" points="148.4437,-44.1983 158.8033,-41.9785 149.3205,-37.2535 148.4437,-44.1983"/>
</g>
<!-- Node16 -->
<g id="node3" class="node">
<title>Node16</title>
<g id="a_node3"><a xlink:href="structNetlist.html#ab287e126909a3ec4828aa8b918278dc7" target="_top" xlink:title="Netlist::get_net_weight">
<polygon fill="#ffffff" stroke="#000000" points="148,-.5 148,-19.5 265,-19.5 265,-.5 148,-.5"/>
<text text-anchor="middle" x="206.5" y="-7.5" font-family="Helvetica,sans-Serif" font-size="10.00" fill="#000000">Netlist::get_net_weight</text>
</a>
</g>
</g>
<!-- Node14&#45;&gt;Node16 -->
<g id="edge2" class="edge">
<title>Node14&#45;&gt;Node16</title>
<path fill="none" stroke="#191970" d="M112.0406,-21.9251C120.4502,-20.8634 129.2027,-19.7585 137.8386,-18.6682"/>
<polygon fill="#191970" stroke="#191970" points="138.4125,-22.1236 147.8953,-17.3986 137.5356,-15.1788 138.4125,-22.1236"/>
</g>
</g>
</svg>
