<?xml version="1.0" encoding="UTF-8" standalone="no"?>
<!DOCTYPE svg PUBLIC "-//W3C//DTD SVG 1.1//EN"
 "http://www.w3.org/Graphics/SVG/1.1/DTD/svg11.dtd">
<!-- Generated by graphviz version 2.40.1 (20161225.0304)
 -->
<!-- Title: lib/include/ckpttncpp/MLPartMgr.hpp Pages: 1 -->
<svg width="865pt" height="375pt"
 viewBox="0.00 0.00 865.00 375.00" xmlns="http://www.w3.org/2000/svg" xmlns:xlink="http://www.w3.org/1999/xlink">
<g id="graph0" class="graph" transform="scale(1 1) rotate(0) translate(4 371)">
<title>lib/include/ckpttncpp/MLPartMgr.hpp</title>
<polygon fill="#ffffff" stroke="transparent" points="-4,4 -4,-371 861,-371 861,4 -4,4"/>
<!-- Node0 -->
<g id="node1" class="node">
<title>Node0</title>
<polygon fill="#bfbfbf" stroke="#000000" points="684,-336.5 684,-366.5 790,-366.5 790,-336.5 684,-336.5"/>
<text text-anchor="start" x="692" y="-354.5" font-family="Helvetica,sans-Serif" font-size="10.00" fill="#000000">lib/include/ckpttncpp</text>
<text text-anchor="middle" x="737" y="-343.5" font-family="Helvetica,sans-Serif" font-size="10.00" fill="#000000">/MLPartMgr.hpp</text>
</g>
<!-- Node1 -->
<g id="node2" class="node">
<title>Node1</title>
<g id="a_node2"><a xlink:href="FMPartMgr_8hpp.html" target="_top" xlink:title="FMPartMgr.hpp">
<polygon fill="#ffffff" stroke="#000000" points="385,-280.5 385,-299.5 469,-299.5 469,-280.5 385,-280.5"/>
<text text-anchor="middle" x="427" y="-287.5" font-family="Helvetica,sans-Serif" font-size="10.00" fill="#000000">FMPartMgr.hpp</text>
</a>
</g>
</g>
<!-- Node0&#45;&gt;Node1 -->
<g id="edge1" class="edge">
<title>Node0&#45;&gt;Node1</title>
<path fill="none" stroke="#191970" d="M683.7091,-340.9278C626.3883,-329.5561 535.8414,-311.5927 479.0182,-300.3197"/>
<polygon fill="#191970" stroke="#191970" points="479.6521,-296.8774 469.1622,-298.3644 478.2899,-303.7435 479.6521,-296.8774"/>
</g>
<!-- Node3 -->
<g id="node4" class="node">
<title>Node3</title>
<g id="a_node4"><a xlink:href="netlist_8hpp.html" target="_top" xlink:title="netlist.hpp">
<polygon fill="#ffffff" stroke="#000000" points="305,-168.5 305,-187.5 367,-187.5 367,-168.5 305,-168.5"/>
<text text-anchor="middle" x="336" y="-175.5" font-family="Helvetica,sans-Serif" font-size="10.00" fill="#000000">netlist.hpp</text>
</a>
</g>
</g>
<!-- Node0&#45;&gt;Node3 -->
<g id="edge31" class="edge">
<title>Node0&#45;&gt;Node3</title>
<path fill="none" stroke="#191970" d="M683.8506,-347.0155C589.2117,-338.5818 399.1933,-319.4499 376,-300 345.5275,-274.4458 338.101,-225.252 336.3984,-197.7821"/>
<polygon fill="#191970" stroke="#191970" points="339.8951,-197.6267 335.9753,-187.7836 332.9013,-197.9227 339.8951,-197.6267"/>
</g>
<!-- Node14 -->
<g id="node15" class="node">
<title>Node14</title>
<polygon fill="#ffffff" stroke="#bfbfbf" points="718,-56.5 718,-75.5 762,-75.5 762,-56.5 718,-56.5"/>
<text text-anchor="middle" x="740" y="-63.5" font-family="Helvetica,sans-Serif" font-size="10.00" fill="#000000">vector</text>
</g>
<!-- Node0&#45;&gt;Node14 -->
<g id="edge34" class="edge">
<title>Node0&#45;&gt;Node14</title>
<path fill="none" stroke="#191970" d="M737,-336.2899C737,-313.892 737,-270.7188 737,-234 737,-234 737,-234 737,-178 737,-145.7 738.2622,-108.1791 739.1492,-85.8005"/>
<polygon fill="#191970" stroke="#191970" points="742.6553,-85.7217 739.5702,-75.5861 735.6613,-85.4334 742.6553,-85.7217"/>
</g>
<!-- Node17 -->
<g id="node18" class="node">
<title>Node17</title>
<polygon fill="#ffffff" stroke="#bfbfbf" points="780.5,-56.5 780.5,-75.5 829.5,-75.5 829.5,-56.5 780.5,-56.5"/>
<text text-anchor="middle" x="805" y="-63.5" font-family="Helvetica,sans-Serif" font-size="10.00" fill="#000000">cassert</text>
</g>
<!-- Node0&#45;&gt;Node17 -->
<g id="edge32" class="edge">
<title>Node0&#45;&gt;Node17</title>
<path fill="none" stroke="#191970" d="M745.2454,-336.42C756.4215,-314.5326 775,-272.3768 775,-234 775,-234 775,-234 775,-178 775,-144.4397 787.7236,-107.0899 796.5984,-85.12"/>
<polygon fill="#191970" stroke="#191970" points="799.9286,-86.2294 800.5734,-75.6542 793.4745,-83.5191 799.9286,-86.2294"/>
</g>
<!-- Node21 -->
<g id="node22" class="node">
<title>Node21</title>
<polygon fill="#ffffff" stroke="#bfbfbf" points="803,-280.5 803,-299.5 857,-299.5 857,-280.5 803,-280.5"/>
<text text-anchor="middle" x="830" y="-287.5" font-family="Helvetica,sans-Serif" font-size="10.00" fill="#000000">iostream</text>
</g>
<!-- Node0&#45;&gt;Node21 -->
<g id="edge33" class="edge">
<title>Node0&#45;&gt;Node21</title>
<path fill="none" stroke="#191970" d="M759.9888,-336.2977C774.1966,-326.9022 792.3785,-314.8787 806.6525,-305.4395"/>
<polygon fill="#191970" stroke="#191970" points="808.9767,-308.0986 815.3872,-299.6633 805.1155,-302.2598 808.9767,-308.0986"/>
</g>
<!-- Node2 -->
<g id="node3" class="node">
<title>Node2</title>
<g id="a_node3"><a xlink:href="PartMgrBase_8hpp.html" target="_top" xlink:title="PartMgrBase.hpp">
<polygon fill="#ffffff" stroke="#000000" points="381,-224.5 381,-243.5 473,-243.5 473,-224.5 381,-224.5"/>
<text text-anchor="middle" x="427" y="-231.5" font-family="Helvetica,sans-Serif" font-size="10.00" fill="#000000">PartMgrBase.hpp</text>
</a>
</g>
</g>
<!-- Node1&#45;&gt;Node2 -->
<g id="edge2" class="edge">
<title>Node1&#45;&gt;Node2</title>
<path fill="none" stroke="#191970" d="M427,-280.2455C427,-272.9382 427,-262.6944 427,-253.7046"/>
<polygon fill="#191970" stroke="#191970" points="430.5001,-253.6426 427,-243.6427 423.5001,-253.6427 430.5001,-253.6426"/>
</g>
<!-- Node5 -->
<g id="node6" class="node">
<title>Node5</title>
<polygon fill="#ffffff" stroke="#bfbfbf" points="173.5,-112.5 173.5,-131.5 226.5,-131.5 226.5,-112.5 173.5,-112.5"/>
<text text-anchor="middle" x="200" y="-119.5" font-family="Helvetica,sans-Serif" font-size="10.00" fill="#000000">gsl/span</text>
</g>
<!-- Node1&#45;&gt;Node5 -->
<g id="edge30" class="edge">
<title>Node1&#45;&gt;Node5</title>
<path fill="none" stroke="#191970" d="M414.1451,-280.4862C376.6978,-252.772 267.4292,-171.9036 221.127,-137.6358"/>
<polygon fill="#191970" stroke="#191970" points="223.1155,-134.7532 212.9953,-131.6177 218.9513,-140.3799 223.1155,-134.7532"/>
</g>
<!-- Node2&#45;&gt;Node3 -->
<g id="edge3" class="edge">
<title>Node2&#45;&gt;Node3</title>
<path fill="none" stroke="#191970" d="M411.149,-224.2455C397.1868,-215.6534 376.6272,-203.0014 360.5404,-193.1018"/>
<polygon fill="#191970" stroke="#191970" points="362.0203,-189.9029 351.6693,-187.6427 358.3516,-195.8645 362.0203,-189.9029"/>
</g>
<!-- Node6 -->
<g id="node7" class="node">
<title>Node6</title>
<polygon fill="#ffffff" stroke="#bfbfbf" points="357.5,-112.5 357.5,-131.5 404.5,-131.5 404.5,-112.5 357.5,-112.5"/>
<text text-anchor="middle" x="381" y="-119.5" font-family="Helvetica,sans-Serif" font-size="10.00" fill="#000000">iterator</text>
</g>
<!-- Node2&#45;&gt;Node6 -->
<g id="edge26" class="edge">
<title>Node2&#45;&gt;Node6</title>
<path fill="none" stroke="#191970" d="M423.0781,-224.4509C415.5077,-206.0186 398.7533,-165.2254 388.8212,-141.043"/>
<polygon fill="#191970" stroke="#191970" points="391.9488,-139.4454 384.912,-131.5249 385.4737,-142.1048 391.9488,-139.4454"/>
</g>
<!-- Node7 -->
<g id="node8" class="node">
<title>Node7</title>
<g id="a_node8"><a xlink:href="py2cpp_8hpp.html" target="_top" xlink:title="py2cpp/py2cpp.hpp">
<polygon fill="#ffffff" stroke="#000000" points="113.5,-56.5 113.5,-75.5 214.5,-75.5 214.5,-56.5 113.5,-56.5"/>
<text text-anchor="middle" x="164" y="-63.5" font-family="Helvetica,sans-Serif" font-size="10.00" fill="#000000">py2cpp/py2cpp.hpp</text>
</a>
</g>
</g>
<!-- Node2&#45;&gt;Node7 -->
<g id="edge27" class="edge">
<title>Node2&#45;&gt;Node7</title>
<path fill="none" stroke="#191970" d="M387.103,-224.4929C320.0297,-207.5984 189.4798,-170.4875 164,-132 155.116,-118.5807 155.9804,-100.0195 158.5704,-85.9979"/>
<polygon fill="#191970" stroke="#191970" points="162.0596,-86.4383 160.8644,-75.9111 155.2339,-84.886 162.0596,-86.4383"/>
</g>
<!-- Node10 -->
<g id="node11" class="node">
<title>Node10</title>
<polygon fill="#ffffff" stroke="#bfbfbf" points="404,-.5 404,-19.5 466,-19.5 466,-.5 404,-.5"/>
<text text-anchor="middle" x="435" y="-7.5" font-family="Helvetica,sans-Serif" font-size="10.00" fill="#000000">type_traits</text>
</g>
<!-- Node2&#45;&gt;Node10 -->
<g id="edge28" class="edge">
<title>Node2&#45;&gt;Node10</title>
<path fill="none" stroke="#191970" d="M427.3438,-224.375C428.5541,-190.4851 432.6346,-76.2317 434.2917,-29.8332"/>
<polygon fill="#191970" stroke="#191970" points="437.7983,-29.7077 434.6575,-19.5891 430.8028,-29.4578 437.7983,-29.7077"/>
</g>
<!-- Node2&#45;&gt;Node14 -->
<g id="edge29" class="edge">
<title>Node2&#45;&gt;Node14</title>
<path fill="none" stroke="#191970" d="M452.3852,-224.4775C494.84,-208.1103 582.3489,-172.4726 651,-132 676.4909,-116.9721 703.4826,-96.1738 720.9674,-81.966"/>
<polygon fill="#191970" stroke="#191970" points="723.2383,-84.63 728.7389,-75.5749 718.7921,-79.2234 723.2383,-84.63"/>
</g>
<!-- Node20 -->
<g id="node21" class="node">
<title>Node20</title>
<polygon fill="#ffffff" stroke="#bfbfbf" points="461,-168.5 461,-187.5 517,-187.5 517,-168.5 461,-168.5"/>
<text text-anchor="middle" x="489" y="-175.5" font-family="Helvetica,sans-Serif" font-size="10.00" fill="#000000">cinttypes</text>
</g>
<!-- Node2&#45;&gt;Node20 -->
<g id="edge25" class="edge">
<title>Node2&#45;&gt;Node20</title>
<path fill="none" stroke="#191970" d="M437.7996,-224.2455C446.8678,-216.0549 460.0206,-204.1749 470.7245,-194.5069"/>
<polygon fill="#191970" stroke="#191970" points="473.2491,-196.9429 478.3242,-187.6427 468.5571,-191.7482 473.2491,-196.9429"/>
</g>
<!-- Node4 -->
<g id="node5" class="node">
<title>Node4</title>
<polygon fill="#ffffff" stroke="#bfbfbf" points="283,-112.5 283,-131.5 339,-131.5 339,-112.5 283,-112.5"/>
<text text-anchor="middle" x="311" y="-119.5" font-family="Helvetica,sans-Serif" font-size="10.00" fill="#000000">algorithm</text>
</g>
<!-- Node3&#45;&gt;Node4 -->
<g id="edge4" class="edge">
<title>Node3&#45;&gt;Node4</title>
<path fill="none" stroke="#191970" d="M331.6453,-168.2455C328.2756,-160.6973 323.507,-150.0158 319.4017,-140.8197"/>
<polygon fill="#191970" stroke="#191970" points="322.5773,-139.3473 315.3048,-131.6427 316.1853,-142.2009 322.5773,-139.3473"/>
</g>
<!-- Node3&#45;&gt;Node5 -->
<g id="edge5" class="edge">
<title>Node3&#45;&gt;Node5</title>
<path fill="none" stroke="#191970" d="M312.6208,-168.3733C290.4955,-159.2629 257.0866,-145.5062 232.3981,-135.3404"/>
<polygon fill="#191970" stroke="#191970" points="233.6536,-132.0723 223.0742,-131.5011 230.9883,-138.5451 233.6536,-132.0723"/>
</g>
<!-- Node3&#45;&gt;Node6 -->
<g id="edge6" class="edge">
<title>Node3&#45;&gt;Node6</title>
<path fill="none" stroke="#191970" d="M343.8384,-168.2455C350.162,-160.3761 359.2224,-149.101 366.8136,-139.6542"/>
<polygon fill="#191970" stroke="#191970" points="369.7158,-141.6302 373.2514,-131.6427 364.2592,-137.2454 369.7158,-141.6302"/>
</g>
<!-- Node3&#45;&gt;Node7 -->
<g id="edge7" class="edge">
<title>Node3&#45;&gt;Node7</title>
<path fill="none" stroke="#191970" d="M321.2923,-168.3633C301.6405,-155.493 265.725,-131.9919 235,-112 219.1451,-101.6837 201.2734,-90.105 187.4268,-81.1452"/>
<polygon fill="#191970" stroke="#191970" points="189.2679,-78.1677 178.9705,-75.675 185.4659,-84.0452 189.2679,-78.1677"/>
</g>
<!-- Node13 -->
<g id="node14" class="node">
<title>Node13</title>
<polygon fill="#ffffff" stroke="#bfbfbf" points="0,-.5 0,-19.5 40,-19.5 40,-.5 0,-.5"/>
<text text-anchor="middle" x="20" y="-7.5" font-family="Helvetica,sans-Serif" font-size="10.00" fill="#000000">utility</text>
</g>
<!-- Node3&#45;&gt;Node13 -->
<g id="edge14" class="edge">
<title>Node3&#45;&gt;Node13</title>
<path fill="none" stroke="#191970" d="M304.9922,-173.9152C269.3515,-168.2902 209.874,-156.0052 164,-132 110.8214,-104.1724 60.0189,-53.7057 35.4188,-27.2452"/>
<polygon fill="#191970" stroke="#191970" points="37.7159,-24.5709 28.3827,-19.5568 32.5519,-29.2968 37.7159,-24.5709"/>
</g>
<!-- Node3&#45;&gt;Node14 -->
<g id="edge15" class="edge">
<title>Node3&#45;&gt;Node14</title>
<path fill="none" stroke="#191970" d="M367.2152,-176.0778C419.483,-172.1495 527.4891,-160.9809 614,-132 651.996,-119.2714 692.4483,-96.1614 716.9767,-80.945"/>
<polygon fill="#191970" stroke="#191970" points="718.9642,-83.8296 725.5594,-75.5378 715.2329,-77.907 718.9642,-83.8296"/>
</g>
<!-- Node15 -->
<g id="node16" class="node">
<title>Node15</title>
<g id="a_node16"><a xlink:href="graph_8hpp.html" target="_top" xlink:title="xnetwork/classes/graph.hpp">
<polygon fill="#ffffff" stroke="#000000" points="465.5,-112.5 465.5,-131.5 604.5,-131.5 604.5,-112.5 465.5,-112.5"/>
<text text-anchor="middle" x="535" y="-119.5" font-family="Helvetica,sans-Serif" font-size="10.00" fill="#000000">xnetwork/classes/graph.hpp</text>
</a>
</g>
</g>
<!-- Node3&#45;&gt;Node15 -->
<g id="edge16" class="edge">
<title>Node3&#45;&gt;Node15</title>
<path fill="none" stroke="#191970" d="M367.0938,-169.25C400.5092,-159.8466 453.875,-144.8291 491.4579,-134.2531"/>
<polygon fill="#191970" stroke="#191970" points="492.4517,-137.6094 501.1296,-131.5314 490.5554,-130.8711 492.4517,-137.6094"/>
</g>
<!-- Node8 -->
<g id="node9" class="node">
<title>Node8</title>
<polygon fill="#ffffff" stroke="#bfbfbf" points="312.5,-.5 312.5,-19.5 385.5,-19.5 385.5,-.5 312.5,-.5"/>
<text text-anchor="middle" x="349" y="-7.5" font-family="Helvetica,sans-Serif" font-size="10.00" fill="#000000">initializer_list</text>
</g>
<!-- Node7&#45;&gt;Node8 -->
<g id="edge8" class="edge">
<title>Node7&#45;&gt;Node8</title>
<path fill="none" stroke="#191970" d="M195.8026,-56.3733C226.8317,-46.9807 274.1754,-32.6496 308.0147,-22.4064"/>
<polygon fill="#191970" stroke="#191970" points="309.0553,-25.7483 317.6124,-19.5011 307.0272,-19.0485 309.0553,-25.7483"/>
</g>
<!-- Node9 -->
<g id="node10" class="node">
<title>Node9</title>
<polygon fill="#ffffff" stroke="#bfbfbf" points="58,-.5 58,-19.5 96,-19.5 96,-.5 58,-.5"/>
<text text-anchor="middle" x="77" y="-7.5" font-family="Helvetica,sans-Serif" font-size="10.00" fill="#000000">tuple</text>
</g>
<!-- Node7&#45;&gt;Node9 -->
<g id="edge9" class="edge">
<title>Node7&#45;&gt;Node9</title>
<path fill="none" stroke="#191970" d="M148.8458,-56.2455C135.4973,-47.6534 115.8414,-35.0014 100.4617,-25.1018"/>
<polygon fill="#191970" stroke="#191970" points="102.2836,-22.1121 91.9806,-19.6427 98.4949,-27.9982 102.2836,-22.1121"/>
</g>
<!-- Node7&#45;&gt;Node10 -->
<g id="edge10" class="edge">
<title>Node7&#45;&gt;Node10</title>
<path fill="none" stroke="#191970" d="M214.6183,-56.6506C259.3202,-48.2292 326.4947,-35.1747 393.6811,-20.224"/>
<polygon fill="#191970" stroke="#191970" points="394.5979,-23.6055 403.5913,-18.0048 393.0681,-16.7747 394.5979,-23.6055"/>
</g>
<!-- Node11 -->
<g id="node12" class="node">
<title>Node11</title>
<polygon fill="#ffffff" stroke="#bfbfbf" points="114.5,-.5 114.5,-19.5 197.5,-19.5 197.5,-.5 114.5,-.5"/>
<text text-anchor="middle" x="156" y="-7.5" font-family="Helvetica,sans-Serif" font-size="10.00" fill="#000000">unordered_map</text>
</g>
<!-- Node7&#45;&gt;Node11 -->
<g id="edge11" class="edge">
<title>Node7&#45;&gt;Node11</title>
<path fill="none" stroke="#191970" d="M162.6065,-56.2455C161.5626,-48.9382 160.0992,-38.6944 158.8149,-29.7046"/>
<polygon fill="#191970" stroke="#191970" points="162.2566,-29.0472 157.3775,-19.6427 155.327,-30.0372 162.2566,-29.0472"/>
</g>
<!-- Node12 -->
<g id="node13" class="node">
<title>Node12</title>
<polygon fill="#ffffff" stroke="#bfbfbf" points="216,-.5 216,-19.5 294,-19.5 294,-.5 216,-.5"/>
<text text-anchor="middle" x="255" y="-7.5" font-family="Helvetica,sans-Serif" font-size="10.00" fill="#000000">unordered_set</text>
</g>
<!-- Node7&#45;&gt;Node12 -->
<g id="edge12" class="edge">
<title>Node7&#45;&gt;Node12</title>
<path fill="none" stroke="#191970" d="M179.851,-56.2455C193.8132,-47.6534 214.3728,-35.0014 230.4596,-25.1018"/>
<polygon fill="#191970" stroke="#191970" points="232.6484,-27.8645 239.3307,-19.6427 228.9797,-21.9029 232.6484,-27.8645"/>
</g>
<!-- Node7&#45;&gt;Node13 -->
<g id="edge13" class="edge">
<title>Node7&#45;&gt;Node13</title>
<path fill="none" stroke="#191970" d="M139.2455,-56.3733C114.4317,-46.7234 76.2136,-31.8608 49.7619,-21.5741"/>
<polygon fill="#191970" stroke="#191970" points="50.8412,-18.2385 40.2526,-17.876 48.304,-24.7625 50.8412,-18.2385"/>
</g>
<!-- Node15&#45;&gt;Node7 -->
<g id="edge19" class="edge">
<title>Node15&#45;&gt;Node7</title>
<path fill="none" stroke="#191970" d="M467.3795,-112.4583C406.4253,-103.7595 314.0599,-90.3368 224.5692,-76.2256"/>
<polygon fill="#191970" stroke="#191970" points="224.9428,-72.7413 214.5188,-74.636 223.8492,-79.6553 224.9428,-72.7413"/>
</g>
<!-- Node15&#45;&gt;Node10 -->
<g id="edge20" class="edge">
<title>Node15&#45;&gt;Node10</title>
<path fill="none" stroke="#191970" d="M601.3127,-112.4875C647.0476,-103.1175 695.5319,-85.7752 671,-56 646.7861,-26.6108 537.2192,-15.7478 476.256,-11.9317"/>
<polygon fill="#191970" stroke="#191970" points="476.3783,-8.4329 466.1895,-11.3379 475.966,-15.4207 476.3783,-8.4329"/>
</g>
<!-- Node15&#45;&gt;Node14 -->
<g id="edge21" class="edge">
<title>Node15&#45;&gt;Node14</title>
<path fill="none" stroke="#191970" d="M570.296,-112.4501C604.4958,-103.1832 657.8219,-88.6981 704,-76 705.2665,-75.6517 706.558,-75.296 707.8624,-74.9361"/>
<polygon fill="#191970" stroke="#191970" points="709.216,-78.1932 717.9203,-72.1528 707.349,-71.4467 709.216,-78.1932"/>
</g>
<!-- Node16 -->
<g id="node17" class="node">
<title>Node16</title>
<polygon fill="#ffffff" stroke="#bfbfbf" points="630,-56.5 630,-75.5 662,-75.5 662,-56.5 630,-56.5"/>
<text text-anchor="middle" x="646" y="-63.5" font-family="Helvetica,sans-Serif" font-size="10.00" fill="#000000">any</text>
</g>
<!-- Node15&#45;&gt;Node16 -->
<g id="edge17" class="edge">
<title>Node15&#45;&gt;Node16</title>
<path fill="none" stroke="#191970" d="M554.0816,-112.3733C572.4893,-103.0865 600.4666,-88.9718 620.7198,-78.754"/>
<polygon fill="#191970" stroke="#191970" points="622.3408,-81.8564 629.6924,-74.2273 619.1877,-75.6068 622.3408,-81.8564"/>
</g>
<!-- Node15&#45;&gt;Node17 -->
<g id="edge18" class="edge">
<title>Node15&#45;&gt;Node17</title>
<path fill="none" stroke="#191970" d="M592.0705,-112.4196C637.8205,-104.3887 703.83,-92.0176 770.3711,-75.9809"/>
<polygon fill="#191970" stroke="#191970" points="771.3031,-79.3563 780.1902,-73.5883 769.6458,-72.5553 771.3031,-79.3563"/>
</g>
<!-- Node18 -->
<g id="node19" class="node">
<title>Node18</title>
<g id="a_node19"><a xlink:href="coreviews_8hpp.html" target="_top" xlink:title="xnetwork/classes/coreviews.hpp">
<polygon fill="#ffffff" stroke="#000000" points="453.5,-56.5 453.5,-75.5 612.5,-75.5 612.5,-56.5 453.5,-56.5"/>
<text text-anchor="middle" x="533" y="-63.5" font-family="Helvetica,sans-Serif" font-size="10.00" fill="#000000">xnetwork/classes/coreviews.hpp</text>
</a>
</g>
</g>
<!-- Node15&#45;&gt;Node18 -->
<g id="edge22" class="edge">
<title>Node15&#45;&gt;Node18</title>
<path fill="none" stroke="#191970" d="M534.6516,-112.2455C534.3907,-104.9382 534.0248,-94.6944 533.7037,-85.7046"/>
<polygon fill="#191970" stroke="#191970" points="537.1992,-85.5113 533.3444,-75.6427 530.2036,-85.7613 537.1992,-85.5113"/>
</g>
<!-- Node19 -->
<g id="node20" class="node">
<title>Node19</title>
<g id="a_node20"><a xlink:href="reportviews_8hpp.html" target="_top" xlink:title="xnetwork/classes/reportviews.hpp">
<polygon fill="#ffffff" stroke="#000000" points="232.5,-56.5 232.5,-75.5 397.5,-75.5 397.5,-56.5 232.5,-56.5"/>
<text text-anchor="middle" x="315" y="-63.5" font-family="Helvetica,sans-Serif" font-size="10.00" fill="#000000">xnetwork/classes/reportviews.hpp</text>
</a>
</g>
</g>
<!-- Node15&#45;&gt;Node19 -->
<g id="edge23" class="edge">
<title>Node15&#45;&gt;Node19</title>
<path fill="none" stroke="#191970" d="M497.1807,-112.3733C459.8062,-102.8598 402.5276,-88.2797 362.1929,-78.0127"/>
<polygon fill="#191970" stroke="#191970" points="362.8802,-74.5761 352.3258,-75.5011 361.1534,-81.3598 362.8802,-74.5761"/>
</g>
<!-- Node19&#45;&gt;Node8 -->
<g id="edge24" class="edge">
<title>Node19&#45;&gt;Node8</title>
<path fill="none" stroke="#191970" d="M320.9223,-56.2455C325.6027,-48.5367 332.2673,-37.5598 337.9289,-28.2348"/>
<polygon fill="#191970" stroke="#191970" points="340.9475,-30.007 343.1455,-19.6427 334.9639,-26.3741 340.9475,-30.007"/>
</g>
</g>
</svg>
