<?xml version="1.0" encoding="UTF-8" standalone="no"?>
<!DOCTYPE svg PUBLIC "-//W3C//DTD SVG 1.1//EN"
 "http://www.w3.org/Graphics/SVG/1.1/DTD/svg11.dtd">
<!-- Generated by graphviz version 2.40.1 (20161225.0304)
 -->
<!-- Title: lib/include/ckpttncpp/MLPartMgr.hpp Pages: 1 -->
<svg width="908pt" height="375pt"
 viewBox="0.00 0.00 908.00 375.00" xmlns="http://www.w3.org/2000/svg" xmlns:xlink="http://www.w3.org/1999/xlink">
<g id="graph0" class="graph" transform="scale(1 1) rotate(0) translate(4 371)">
<title>lib/include/ckpttncpp/MLPartMgr.hpp</title>
<polygon fill="#ffffff" stroke="transparent" points="-4,4 -4,-371 904,-371 904,4 -4,4"/>
<!-- Node0 -->
<g id="node1" class="node">
<title>Node0</title>
<polygon fill="#bfbfbf" stroke="#000000" points="85,-336.5 85,-366.5 191,-366.5 191,-336.5 85,-336.5"/>
<text text-anchor="start" x="93" y="-354.5" font-family="Helvetica,sans-Serif" font-size="10.00" fill="#000000">lib/include/ckpttncpp</text>
<text text-anchor="middle" x="138" y="-343.5" font-family="Helvetica,sans-Serif" font-size="10.00" fill="#000000">/MLPartMgr.hpp</text>
</g>
<!-- Node1 -->
<g id="node2" class="node">
<title>Node1</title>
<polygon fill="#ffffff" stroke="#bfbfbf" points="0,-280.5 0,-299.5 54,-299.5 54,-280.5 0,-280.5"/>
<text text-anchor="middle" x="27" y="-287.5" font-family="Helvetica,sans-Serif" font-size="10.00" fill="#000000">iostream</text>
</g>
<!-- Node0&#45;&gt;Node1 -->
<g id="edge1" class="edge">
<title>Node0&#45;&gt;Node1</title>
<path fill="none" stroke="#191970" d="M110.8463,-336.4554C93.3005,-326.734 70.5878,-314.15 53.2279,-304.5317"/>
<polygon fill="#191970" stroke="#191970" points="54.6445,-301.3153 44.2011,-299.5303 51.252,-307.4383 54.6445,-301.3153"/>
</g>
<!-- Node2 -->
<g id="node3" class="node">
<title>Node2</title>
<polygon fill="#ffffff" stroke="#bfbfbf" points="76,-56.5 76,-75.5 120,-75.5 120,-56.5 76,-56.5"/>
<text text-anchor="middle" x="98" y="-63.5" font-family="Helvetica,sans-Serif" font-size="10.00" fill="#000000">vector</text>
</g>
<!-- Node0&#45;&gt;Node2 -->
<g id="edge2" class="edge">
<title>Node0&#45;&gt;Node2</title>
<path fill="none" stroke="#191970" d="M125.2927,-336.2644C108.7704,-314.8562 82,-273.9978 82,-234 82,-234 82,-234 82,-178 82,-145.2342 88.7939,-107.6134 93.5275,-85.3778"/>
<polygon fill="#191970" stroke="#191970" points="96.9649,-86.0428 95.7076,-75.5228 90.1302,-84.5307 96.9649,-86.0428"/>
</g>
<!-- Node3 -->
<g id="node4" class="node">
<title>Node3</title>
<g id="a_node4"><a xlink:href="FMPartMgr_8hpp.html" target="_top" xlink:title="FMPartMgr.hpp">
<polygon fill="#ffffff" stroke="#000000" points="383,-280.5 383,-299.5 467,-299.5 467,-280.5 383,-280.5"/>
<text text-anchor="middle" x="425" y="-287.5" font-family="Helvetica,sans-Serif" font-size="10.00" fill="#000000">FMPartMgr.hpp</text>
</a>
</g>
</g>
<!-- Node0&#45;&gt;Node3 -->
<g id="edge3" class="edge">
<title>Node0&#45;&gt;Node3</title>
<path fill="none" stroke="#191970" d="M191.3099,-340.0765C243.1331,-328.9715 321.3476,-312.2112 372.7925,-301.1873"/>
<polygon fill="#191970" stroke="#191970" points="373.6642,-304.5801 382.7088,-299.0624 372.1974,-297.7355 373.6642,-304.5801"/>
</g>
<!-- Node15 -->
<g id="node16" class="node">
<title>Node15</title>
<g id="a_node16"><a xlink:href="netlist_8hpp.html" target="_top" xlink:title="netlist.hpp">
<polygon fill="#ffffff" stroke="#000000" points="288,-168.5 288,-187.5 350,-187.5 350,-168.5 288,-168.5"/>
<text text-anchor="middle" x="319" y="-175.5" font-family="Helvetica,sans-Serif" font-size="10.00" fill="#000000">netlist.hpp</text>
</a>
</g>
</g>
<!-- Node0&#45;&gt;Node15 -->
<g id="edge32" class="edge">
<title>Node0&#45;&gt;Node15</title>
<path fill="none" stroke="#191970" d="M153.7459,-336.4065C187.3476,-304.1972 265.8875,-228.9117 301.2215,-195.0418"/>
<polygon fill="#191970" stroke="#191970" points="304.044,-197.1846 308.8411,-187.738 299.2,-192.1313 304.044,-197.1846"/>
</g>
<!-- Node4 -->
<g id="node5" class="node">
<title>Node4</title>
<g id="a_node5"><a xlink:href="PartMgrBase_8hpp.html" target="_top" xlink:title="PartMgrBase.hpp">
<polygon fill="#ffffff" stroke="#000000" points="505,-224.5 505,-243.5 597,-243.5 597,-224.5 505,-224.5"/>
<text text-anchor="middle" x="551" y="-231.5" font-family="Helvetica,sans-Serif" font-size="10.00" fill="#000000">PartMgrBase.hpp</text>
</a>
</g>
</g>
<!-- Node3&#45;&gt;Node4 -->
<g id="edge4" class="edge">
<title>Node3&#45;&gt;Node4</title>
<path fill="none" stroke="#191970" d="M446.6602,-280.3733C466.9772,-271.3435 497.564,-257.7494 520.375,-247.6111"/>
<polygon fill="#191970" stroke="#191970" points="521.9059,-250.7609 529.6225,-243.5011 519.0628,-244.3642 521.9059,-250.7609"/>
</g>
<!-- Node4&#45;&gt;Node2 -->
<g id="edge16" class="edge">
<title>Node4&#45;&gt;Node2</title>
<path fill="none" stroke="#191970" d="M504.5613,-229.4139C449.8302,-223.2636 356.5187,-210.4329 279,-188 216.997,-170.0572 195.436,-172.2806 145,-132 128.9248,-119.1616 115.8774,-99.4516 107.6447,-84.9114"/>
<polygon fill="#191970" stroke="#191970" points="110.5666,-82.9561 102.7363,-75.819 104.4068,-86.2813 110.5666,-82.9561"/>
</g>
<!-- Node5 -->
<g id="node6" class="node">
<title>Node5</title>
<polygon fill="#ffffff" stroke="#bfbfbf" points="790.5,-56.5 790.5,-75.5 839.5,-75.5 839.5,-56.5 790.5,-56.5"/>
<text text-anchor="middle" x="815" y="-63.5" font-family="Helvetica,sans-Serif" font-size="10.00" fill="#000000">cassert</text>
</g>
<!-- Node4&#45;&gt;Node5 -->
<g id="edge5" class="edge">
<title>Node4&#45;&gt;Node5</title>
<path fill="none" stroke="#191970" d="M580.6246,-224.4575C603.8559,-216.3637 636.5675,-203.5949 663,-188 716.0867,-156.6794 770.5836,-108.1624 797.606,-82.7787"/>
<polygon fill="#191970" stroke="#191970" points="800.2334,-85.1106 805.0783,-75.6884 795.4151,-80.0327 800.2334,-85.1106"/>
</g>
<!-- Node6 -->
<g id="node7" class="node">
<title>Node6</title>
<polygon fill="#ffffff" stroke="#bfbfbf" points="598,-168.5 598,-187.5 654,-187.5 654,-168.5 598,-168.5"/>
<text text-anchor="middle" x="626" y="-175.5" font-family="Helvetica,sans-Serif" font-size="10.00" fill="#000000">cinttypes</text>
</g>
<!-- Node4&#45;&gt;Node6 -->
<g id="edge6" class="edge">
<title>Node4&#45;&gt;Node6</title>
<path fill="none" stroke="#191970" d="M564.064,-224.2455C575.3562,-215.814 591.8845,-203.4729 605.0271,-193.6598"/>
<polygon fill="#191970" stroke="#191970" points="607.1669,-196.4301 613.0857,-187.6427 602.9789,-190.8211 607.1669,-196.4301"/>
</g>
<!-- Node7 -->
<g id="node8" class="node">
<title>Node7</title>
<polygon fill="#ffffff" stroke="#bfbfbf" points="494.5,-112.5 494.5,-131.5 541.5,-131.5 541.5,-112.5 494.5,-112.5"/>
<text text-anchor="middle" x="518" y="-119.5" font-family="Helvetica,sans-Serif" font-size="10.00" fill="#000000">iterator</text>
</g>
<!-- Node4&#45;&gt;Node7 -->
<g id="edge7" class="edge">
<title>Node4&#45;&gt;Node7</title>
<path fill="none" stroke="#191970" d="M548.1864,-224.4509C542.7798,-206.1013 530.8437,-165.5908 523.707,-141.3693"/>
<polygon fill="#191970" stroke="#191970" points="526.9901,-140.128 520.8064,-131.5249 520.2755,-142.1064 526.9901,-140.128"/>
</g>
<!-- Node8 -->
<g id="node9" class="node">
<title>Node8</title>
<g id="a_node9"><a xlink:href="py2cpp_8hpp.html" target="_top" xlink:title="py2cpp/py2cpp.hpp">
<polygon fill="#ffffff" stroke="#000000" points="632.5,-56.5 632.5,-75.5 733.5,-75.5 733.5,-56.5 632.5,-56.5"/>
<text text-anchor="middle" x="683" y="-63.5" font-family="Helvetica,sans-Serif" font-size="10.00" fill="#000000">py2cpp/py2cpp.hpp</text>
</a>
</g>
</g>
<!-- Node4&#45;&gt;Node8 -->
<g id="edge8" class="edge">
<title>Node4&#45;&gt;Node8</title>
<path fill="none" stroke="#191970" d="M555.7777,-224.187C562.4294,-210.9172 575.2246,-186.755 589,-168 612.7855,-135.6166 645.4968,-102.1166 665.3948,-82.7119"/>
<polygon fill="#191970" stroke="#191970" points="667.8271,-85.2287 672.5907,-75.7651 662.9653,-80.1926 667.8271,-85.2287"/>
</g>
<!-- Node11 -->
<g id="node12" class="node">
<title>Node11</title>
<polygon fill="#ffffff" stroke="#bfbfbf" points="838,-.5 838,-19.5 900,-19.5 900,-.5 838,-.5"/>
<text text-anchor="middle" x="869" y="-7.5" font-family="Helvetica,sans-Serif" font-size="10.00" fill="#000000">type_traits</text>
</g>
<!-- Node4&#45;&gt;Node11 -->
<g id="edge15" class="edge">
<title>Node4&#45;&gt;Node11</title>
<path fill="none" stroke="#191970" d="M590.2636,-224.4896C619.0347,-216.7216 658.5617,-204.3575 691,-188 767.8567,-149.2439 798.6939,-145.8447 849,-76 858.8281,-62.3547 863.8922,-43.8155 866.4613,-29.8598"/>
<polygon fill="#191970" stroke="#191970" points="869.9425,-30.2522 868.0302,-19.8314 863.0266,-29.1702 869.9425,-30.2522"/>
</g>
<!-- Node4&#45;&gt;Node15 -->
<g id="edge17" class="edge">
<title>Node4&#45;&gt;Node15</title>
<path fill="none" stroke="#191970" d="M511.3814,-224.4369C469.2073,-214.2569 402.785,-198.224 360.066,-187.9125"/>
<polygon fill="#191970" stroke="#191970" points="360.8156,-184.493 350.2735,-185.5488 359.173,-191.2975 360.8156,-184.493"/>
</g>
<!-- Node9 -->
<g id="node10" class="node">
<title>Node9</title>
<polygon fill="#ffffff" stroke="#bfbfbf" points="492.5,-.5 492.5,-19.5 565.5,-19.5 565.5,-.5 492.5,-.5"/>
<text text-anchor="middle" x="529" y="-7.5" font-family="Helvetica,sans-Serif" font-size="10.00" fill="#000000">initializer_list</text>
</g>
<!-- Node8&#45;&gt;Node9 -->
<g id="edge9" class="edge">
<title>Node8&#45;&gt;Node9</title>
<path fill="none" stroke="#191970" d="M656.5265,-56.3733C631.1403,-47.1419 592.6355,-33.1402 564.578,-22.9375"/>
<polygon fill="#191970" stroke="#191970" points="565.7222,-19.6293 555.1281,-19.5011 563.3299,-26.2079 565.7222,-19.6293"/>
</g>
<!-- Node10 -->
<g id="node11" class="node">
<title>Node10</title>
<polygon fill="#ffffff" stroke="#bfbfbf" points="584,-.5 584,-19.5 622,-19.5 622,-.5 584,-.5"/>
<text text-anchor="middle" x="603" y="-7.5" font-family="Helvetica,sans-Serif" font-size="10.00" fill="#000000">tuple</text>
</g>
<!-- Node8&#45;&gt;Node10 -->
<g id="edge10" class="edge">
<title>Node8&#45;&gt;Node10</title>
<path fill="none" stroke="#191970" d="M669.0651,-56.2455C656.9053,-47.7337 639.0536,-35.2375 624.9715,-25.3801"/>
<polygon fill="#191970" stroke="#191970" points="626.9747,-22.51 616.7752,-19.6427 622.9605,-28.2447 626.9747,-22.51"/>
</g>
<!-- Node8&#45;&gt;Node11 -->
<g id="edge11" class="edge">
<title>Node8&#45;&gt;Node11</title>
<path fill="none" stroke="#191970" d="M714.9745,-56.3733C746.2658,-46.9522 794.0596,-32.5627 828.1021,-22.3133"/>
<polygon fill="#191970" stroke="#191970" points="829.1859,-25.6423 837.7523,-19.4079 827.1678,-18.9395 829.1859,-25.6423"/>
</g>
<!-- Node12 -->
<g id="node13" class="node">
<title>Node12</title>
<polygon fill="#ffffff" stroke="#bfbfbf" points="640.5,-.5 640.5,-19.5 723.5,-19.5 723.5,-.5 640.5,-.5"/>
<text text-anchor="middle" x="682" y="-7.5" font-family="Helvetica,sans-Serif" font-size="10.00" fill="#000000">unordered_map</text>
</g>
<!-- Node8&#45;&gt;Node12 -->
<g id="edge12" class="edge">
<title>Node8&#45;&gt;Node12</title>
<path fill="none" stroke="#191970" d="M682.8258,-56.2455C682.6953,-48.9382 682.5124,-38.6944 682.3519,-29.7046"/>
<polygon fill="#191970" stroke="#191970" points="685.8503,-29.5786 682.1722,-19.6427 678.8514,-29.7036 685.8503,-29.5786"/>
</g>
<!-- Node13 -->
<g id="node14" class="node">
<title>Node13</title>
<polygon fill="#ffffff" stroke="#bfbfbf" points="742,-.5 742,-19.5 820,-19.5 820,-.5 742,-.5"/>
<text text-anchor="middle" x="781" y="-7.5" font-family="Helvetica,sans-Serif" font-size="10.00" fill="#000000">unordered_set</text>
</g>
<!-- Node8&#45;&gt;Node13 -->
<g id="edge13" class="edge">
<title>Node8&#45;&gt;Node13</title>
<path fill="none" stroke="#191970" d="M700.0703,-56.2455C715.247,-47.5731 737.6621,-34.7645 755.0563,-24.825"/>
<polygon fill="#191970" stroke="#191970" points="757.1794,-27.643 764.1253,-19.6427 753.7064,-21.5653 757.1794,-27.643"/>
</g>
<!-- Node14 -->
<g id="node15" class="node">
<title>Node14</title>
<polygon fill="#ffffff" stroke="#bfbfbf" points="281,-.5 281,-19.5 321,-19.5 321,-.5 281,-.5"/>
<text text-anchor="middle" x="301" y="-7.5" font-family="Helvetica,sans-Serif" font-size="10.00" fill="#000000">utility</text>
</g>
<!-- Node8&#45;&gt;Node14 -->
<g id="edge14" class="edge">
<title>Node8&#45;&gt;Node14</title>
<path fill="none" stroke="#191970" d="M632.4838,-57.3477C629.6148,-56.8844 626.7716,-56.4322 624,-56 516.4792,-39.2348 388.4277,-21.726 331.2154,-14.0317"/>
<polygon fill="#191970" stroke="#191970" points="331.4374,-10.5303 321.0607,-12.6692 330.5064,-17.4681 331.4374,-10.5303"/>
</g>
<!-- Node15&#45;&gt;Node2 -->
<g id="edge22" class="edge">
<title>Node15&#45;&gt;Node2</title>
<path fill="none" stroke="#191970" d="M287.978,-171.5746C258.2421,-164.5969 212.7272,-151.7332 177,-132 153.2404,-118.8769 129.8673,-98.0953 114.7846,-83.3611"/>
<polygon fill="#191970" stroke="#191970" points="116.8543,-80.481 107.3084,-75.8845 111.9044,-85.4306 116.8543,-80.481"/>
</g>
<!-- Node15&#45;&gt;Node7 -->
<g id="edge19" class="edge">
<title>Node15&#45;&gt;Node7</title>
<path fill="none" stroke="#191970" d="M350.0938,-169.25C386.5645,-158.9869 446.8005,-142.036 484.3435,-131.4712"/>
<polygon fill="#191970" stroke="#191970" points="485.6142,-134.7496 494.2922,-128.6715 483.718,-128.0113 485.6142,-134.7496"/>
</g>
<!-- Node15&#45;&gt;Node8 -->
<g id="edge20" class="edge">
<title>Node15&#45;&gt;Node8</title>
<path fill="none" stroke="#191970" d="M348.6691,-168.4387C374.6745,-159.779 413.3193,-146.2304 446,-132 463.8599,-124.2231 466.7085,-118.699 485,-112 510.5768,-102.6329 577.3005,-87.8369 626.2493,-77.565"/>
<polygon fill="#191970" stroke="#191970" points="627.0201,-80.9796 636.0937,-75.5097 625.5894,-74.1274 627.0201,-80.9796"/>
</g>
<!-- Node15&#45;&gt;Node14 -->
<g id="edge21" class="edge">
<title>Node15&#45;&gt;Node14</title>
<path fill="none" stroke="#191970" d="M311.0952,-168.3443C299.2512,-154.378 275.6451,-128.4187 251,-112 217.197,-89.4803 189.3595,-109.9091 167,-76 140.3898,-35.6446 223.5752,-19.0656 270.7726,-13.0339"/>
<polygon fill="#191970" stroke="#191970" points="271.2842,-16.4978 280.8006,-11.8406 270.457,-9.5468 271.2842,-16.4978"/>
</g>
<!-- Node16 -->
<g id="node17" class="node">
<title>Node16</title>
<polygon fill="#ffffff" stroke="#bfbfbf" points="186,-112.5 186,-131.5 242,-131.5 242,-112.5 186,-112.5"/>
<text text-anchor="middle" x="214" y="-119.5" font-family="Helvetica,sans-Serif" font-size="10.00" fill="#000000">algorithm</text>
</g>
<!-- Node15&#45;&gt;Node16 -->
<g id="edge18" class="edge">
<title>Node15&#45;&gt;Node16</title>
<path fill="none" stroke="#191970" d="M300.7104,-168.2455C284.2238,-159.4527 259.7648,-146.4079 241.0235,-136.4125"/>
<polygon fill="#191970" stroke="#191970" points="242.5506,-133.2604 232.08,-131.6427 239.2565,-139.4368 242.5506,-133.2604"/>
</g>
<!-- Node17 -->
<g id="node18" class="node">
<title>Node17</title>
<g id="a_node18"><a xlink:href="graph_8hpp.html" target="_top" xlink:title="xnetwork/classes/graph.hpp">
<polygon fill="#ffffff" stroke="#000000" points="298.5,-112.5 298.5,-131.5 437.5,-131.5 437.5,-112.5 298.5,-112.5"/>
<text text-anchor="middle" x="368" y="-119.5" font-family="Helvetica,sans-Serif" font-size="10.00" fill="#000000">xnetwork/classes/graph.hpp</text>
</a>
</g>
</g>
<!-- Node15&#45;&gt;Node17 -->
<g id="edge23" class="edge">
<title>Node15&#45;&gt;Node17</title>
<path fill="none" stroke="#191970" d="M327.5351,-168.2455C334.4912,-160.2958 344.4883,-148.8706 352.8051,-139.3656"/>
<polygon fill="#191970" stroke="#191970" points="355.6116,-141.4732 359.5627,-131.6427 350.3436,-136.8637 355.6116,-141.4732"/>
</g>
<!-- Node17&#45;&gt;Node2 -->
<g id="edge28" class="edge">
<title>Node17&#45;&gt;Node2</title>
<path fill="none" stroke="#191970" d="M321.8921,-112.4369C267.2822,-101.1104 177.7375,-82.5382 130.1233,-72.6626"/>
<polygon fill="#191970" stroke="#191970" points="130.5753,-69.1819 120.0729,-70.5781 129.1536,-76.0361 130.5753,-69.1819"/>
</g>
<!-- Node17&#45;&gt;Node5 -->
<g id="edge25" class="edge">
<title>Node17&#45;&gt;Node5</title>
<path fill="none" stroke="#191970" d="M437.8428,-115.3087C536.8263,-105.6225 712.9015,-87.5887 776,-76 777.4609,-75.7317 778.948,-75.439 780.4469,-75.1279"/>
<polygon fill="#191970" stroke="#191970" points="781.3849,-78.5039 790.3569,-72.869 779.8291,-71.679 781.3849,-78.5039"/>
</g>
<!-- Node17&#45;&gt;Node8 -->
<g id="edge26" class="edge">
<title>Node17&#45;&gt;Node8</title>
<path fill="none" stroke="#191970" d="M421.7925,-112.4369C477.4068,-102.5499 564.0768,-87.1419 622.1564,-76.8166"/>
<polygon fill="#191970" stroke="#191970" points="623.0629,-80.2105 632.2959,-75.0141 621.8376,-73.3185 623.0629,-80.2105"/>
</g>
<!-- Node17&#45;&gt;Node11 -->
<g id="edge27" class="edge">
<title>Node17&#45;&gt;Node11</title>
<path fill="none" stroke="#191970" d="M437.5729,-114.8314C537.9657,-104.2793 714.587,-84.8604 743,-76 745.6239,-75.1817 805.5719,-43.5628 841.8194,-24.392"/>
<polygon fill="#191970" stroke="#191970" points="843.709,-27.352 850.9112,-19.5817 840.4353,-21.1647 843.709,-27.352"/>
</g>
<!-- Node18 -->
<g id="node19" class="node">
<title>Node18</title>
<polygon fill="#ffffff" stroke="#bfbfbf" points="176,-56.5 176,-75.5 254,-75.5 254,-56.5 176,-56.5"/>
<text text-anchor="middle" x="215" y="-63.5" font-family="Helvetica,sans-Serif" font-size="10.00" fill="#000000">boost/any.hpp</text>
</g>
<!-- Node17&#45;&gt;Node18 -->
<g id="edge24" class="edge">
<title>Node17&#45;&gt;Node18</title>
<path fill="none" stroke="#191970" d="M341.6984,-112.3733C316.5872,-103.1822 278.5562,-89.2624 250.7128,-79.0713"/>
<polygon fill="#191970" stroke="#191970" points="251.5522,-75.6516 240.9584,-75.5011 249.1462,-82.2251 251.5522,-75.6516"/>
</g>
<!-- Node19 -->
<g id="node20" class="node">
<title>Node19</title>
<g id="a_node20"><a xlink:href="coreviews_8hpp.html" target="_top" xlink:title="xnetwork/classes/coreviews.hpp">
<polygon fill="#ffffff" stroke="#000000" points="272.5,-56.5 272.5,-75.5 431.5,-75.5 431.5,-56.5 272.5,-56.5"/>
<text text-anchor="middle" x="352" y="-63.5" font-family="Helvetica,sans-Serif" font-size="10.00" fill="#000000">xnetwork/classes/coreviews.hpp</text>
</a>
</g>
</g>
<!-- Node17&#45;&gt;Node19 -->
<g id="edge29" class="edge">
<title>Node17&#45;&gt;Node19</title>
<path fill="none" stroke="#191970" d="M365.213,-112.2455C363.1023,-104.8579 360.134,-94.4689 357.5453,-85.4087"/>
<polygon fill="#191970" stroke="#191970" points="360.8677,-84.2964 354.755,-75.6427 354.137,-86.2195 360.8677,-84.2964"/>
</g>
<!-- Node20 -->
<g id="node21" class="node">
<title>Node20</title>
<g id="a_node21"><a xlink:href="reportviews_8hpp.html" target="_top" xlink:title="xnetwork/classes/reportviews.hpp">
<polygon fill="#ffffff" stroke="#000000" points="449.5,-56.5 449.5,-75.5 614.5,-75.5 614.5,-56.5 449.5,-56.5"/>
<text text-anchor="middle" x="532" y="-63.5" font-family="Helvetica,sans-Serif" font-size="10.00" fill="#000000">xnetwork/classes/reportviews.hpp</text>
</a>
</g>
</g>
<!-- Node17&#45;&gt;Node20 -->
<g id="edge30" class="edge">
<title>Node17&#45;&gt;Node20</title>
<path fill="none" stroke="#191970" d="M396.1926,-112.3733C423.3453,-103.1016 464.5907,-89.0178 494.5025,-78.804"/>
<polygon fill="#191970" stroke="#191970" points="495.8428,-82.0449 504.1753,-75.5011 493.5808,-75.4204 495.8428,-82.0449"/>
</g>
<!-- Node20&#45;&gt;Node9 -->
<g id="edge31" class="edge">
<title>Node20&#45;&gt;Node9</title>
<path fill="none" stroke="#191970" d="M531.4774,-56.2455C531.086,-48.9382 530.5372,-38.6944 530.0556,-29.7046"/>
<polygon fill="#191970" stroke="#191970" points="533.5466,-29.4411 529.5166,-19.6427 526.5566,-29.8156 533.5466,-29.4411"/>
</g>
</g>
</svg>
