<?xml version="1.0" encoding="UTF-8" standalone="no"?>
<!DOCTYPE svg PUBLIC "-//W3C//DTD SVG 1.1//EN"
 "http://www.w3.org/Graphics/SVG/1.1/DTD/svg11.dtd">
<!-- Generated by graphviz version 2.40.1 (20161225.0304)
 -->
<!-- Title: iter::impl::absorb Pages: 1 -->
<svg width="257pt" height="88pt"
 viewBox="0.00 0.00 257.00 88.00" xmlns="http://www.w3.org/2000/svg" xmlns:xlink="http://www.w3.org/1999/xlink">
<g id="graph0" class="graph" transform="scale(1 1) rotate(0) translate(4 84)">
<title>iter::impl::absorb</title>
<polygon fill="#ffffff" stroke="transparent" points="-4,4 -4,-84 253,-84 253,4 -4,4"/>
<!-- Node1 -->
<g id="node1" class="node">
<title>Node1</title>
<polygon fill="#bfbfbf" stroke="#000000" points="0,-30 0,-49 89,-49 89,-30 0,-30"/>
<text text-anchor="middle" x="44.5" y="-37" font-family="Helvetica,sans-Serif" font-size="10.00" fill="#000000">iter::impl::absorb</text>
</g>
<!-- Node2 -->
<g id="node2" class="node">
<title>Node2</title>
<g id="a_node2"><a xlink:href="classiter_1_1impl_1_1Zipped_1_1Iterator.html#a73cf02e80622d399138929840893088e" target="_top" xlink:title="iter::impl::Zipped\l::Iterator::operator++">
<polygon fill="#ffffff" stroke="#000000" points="133.5,-49.5 133.5,-79.5 240.5,-79.5 240.5,-49.5 133.5,-49.5"/>
<text text-anchor="start" x="141.5" y="-67.5" font-family="Helvetica,sans-Serif" font-size="10.00" fill="#000000">iter::impl::Zipped</text>
<text text-anchor="middle" x="187" y="-56.5" font-family="Helvetica,sans-Serif" font-size="10.00" fill="#000000">::Iterator::operator++</text>
</a>
</g>
</g>
<!-- Node1&#45;&gt;Node2 -->
<g id="edge1" class="edge">
<title>Node1&#45;&gt;Node2</title>
<path fill="none" stroke="#191970" d="M99.2983,-49.1137C110.511,-51.0809 122.2986,-53.1489 133.4663,-55.1081"/>
<polygon fill="#191970" stroke="#191970" points="99.6513,-45.6223 89.1969,-47.3416 98.4417,-52.517 99.6513,-45.6223"/>
</g>
<!-- Node3 -->
<g id="node3" class="node">
<title>Node3</title>
<g id="a_node3"><a xlink:href="classiter_1_1impl_1_1ZippedLongest_1_1Iterator.html#a0ca01bd6bad90cfa905226da2aa36c3a" target="_top" xlink:title="iter::impl::ZippedLongest\l::Iterator::operator++">
<polygon fill="#ffffff" stroke="#000000" points="125,-.5 125,-30.5 249,-30.5 249,-.5 125,-.5"/>
<text text-anchor="start" x="133" y="-18.5" font-family="Helvetica,sans-Serif" font-size="10.00" fill="#000000">iter::impl::ZippedLongest</text>
<text text-anchor="middle" x="187" y="-7.5" font-family="Helvetica,sans-Serif" font-size="10.00" fill="#000000">::Iterator::operator++</text>
</a>
</g>
</g>
<!-- Node1&#45;&gt;Node3 -->
<g id="edge2" class="edge">
<title>Node1&#45;&gt;Node3</title>
<path fill="none" stroke="#191970" d="M99.2644,-30.2765C107.6777,-28.8596 116.4154,-27.3879 124.9727,-25.9467"/>
<polygon fill="#191970" stroke="#191970" points="98.4767,-26.8598 89.1969,-31.9721 99.6393,-33.7626 98.4767,-26.8598"/>
</g>
</g>
</svg>
