<?xml version="1.0" encoding="UTF-8" standalone="no"?>
<!DOCTYPE svg PUBLIC "-//W3C//DTD SVG 1.1//EN"
 "http://www.w3.org/Graphics/SVG/1.1/DTD/svg11.dtd">
<!-- Generated by graphviz version 2.40.1 (20161225.0304)
 -->
<!-- Title: iter::impl::product_repeat Pages: 1 -->
<svg width="356pt" height="39pt"
 viewBox="0.00 0.00 356.00 39.00" xmlns="http://www.w3.org/2000/svg" xmlns:xlink="http://www.w3.org/1999/xlink">
<g id="graph0" class="graph" transform="scale(1 1) rotate(0) translate(4 35)">
<title>iter::impl::product_repeat</title>
<polygon fill="#ffffff" stroke="transparent" points="-4,4 -4,-35 352,-35 352,4 -4,4"/>
<!-- Node66 -->
<g id="node1" class="node">
<title>Node66</title>
<polygon fill="#bfbfbf" stroke="#000000" points="0,-.5 0,-30.5 92,-30.5 92,-.5 0,-.5"/>
<text text-anchor="start" x="8" y="-18.5" font-family="Helvetica,sans-Serif" font-size="10.00" fill="#000000">iter::impl::product</text>
<text text-anchor="middle" x="46" y="-7.5" font-family="Helvetica,sans-Serif" font-size="10.00" fill="#000000">_repeat</text>
</g>
<!-- Node67 -->
<g id="node2" class="node">
<title>Node67</title>
<g id="a_node2"><a xlink:href="namespaceiter.html#af5d78322beb84b8cf42be5f0bc70f456" target="_top" xlink:title="iter::product">
<polygon fill="#ffffff" stroke="#000000" points="128,-6 128,-25 196,-25 196,-6 128,-6"/>
<text text-anchor="middle" x="162" y="-13" font-family="Helvetica,sans-Serif" font-size="10.00" fill="#000000">iter::product</text>
</a>
</g>
</g>
<!-- Node66&#45;&gt;Node67 -->
<g id="edge1" class="edge">
<title>Node66&#45;&gt;Node67</title>
<path fill="none" stroke="#191970" d="M92.1796,-15.5C100.5313,-15.5 109.2245,-15.5 117.5262,-15.5"/>
<polygon fill="#191970" stroke="#191970" points="117.7771,-19.0001 127.7771,-15.5 117.7771,-12.0001 117.7771,-19.0001"/>
</g>
<!-- Node68 -->
<g id="node3" class="node">
<title>Node68</title>
<g id="a_node3"><a xlink:href="namespaceiter_1_1impl.html#ac4dbfd2feed3c237dc3e97dffde6cbb2" target="_top" xlink:title="iter::impl::product_impl">
<polygon fill="#ffffff" stroke="#000000" points="232,-6 232,-25 348,-25 348,-6 232,-6"/>
<text text-anchor="middle" x="290" y="-13" font-family="Helvetica,sans-Serif" font-size="10.00" fill="#000000">iter::impl::product_impl</text>
</a>
</g>
</g>
<!-- Node67&#45;&gt;Node68 -->
<g id="edge2" class="edge">
<title>Node67&#45;&gt;Node68</title>
<path fill="none" stroke="#191970" d="M196.3017,-15.5C204.2647,-15.5 213.0158,-15.5 221.8728,-15.5"/>
<polygon fill="#191970" stroke="#191970" points="221.8813,-19.0001 231.8813,-15.5 221.8813,-12.0001 221.8813,-19.0001"/>
</g>
</g>
</svg>
