<?xml version="1.0" encoding="UTF-8" standalone="no"?>
<!DOCTYPE svg PUBLIC "-//W3C//DTD SVG 1.1//EN"
 "http://www.w3.org/Graphics/SVG/1.1/DTD/svg11.dtd">
<!-- Generated by graphviz version 2.40.1 (20161225.0304)
 -->
<!-- Title: iter::count Pages: 1 -->
<svg width="164pt" height="66pt"
 viewBox="0.00 0.00 164.00 66.00" xmlns="http://www.w3.org/2000/svg" xmlns:xlink="http://www.w3.org/1999/xlink">
<g id="graph0" class="graph" transform="scale(1 1) rotate(0) translate(4 62)">
<title>iter::count</title>
<polygon fill="#ffffff" stroke="transparent" points="-4,4 -4,-62 160,-62 160,4 -4,4"/>
<!-- Node11 -->
<g id="node1" class="node">
<title>Node11</title>
<polygon fill="#bfbfbf" stroke="#000000" points="0,-19.5 0,-38.5 60,-38.5 60,-19.5 0,-19.5"/>
<text text-anchor="middle" x="30" y="-26.5" font-family="Helvetica,sans-Serif" font-size="10.00" fill="#000000">iter::count</text>
</g>
<!-- Node12 -->
<g id="node2" class="node">
<title>Node12</title>
<g id="a_node2"><a xlink:href="namespaceiter.html#a4b34aa780fee4de199e2f167bc06316c" target="_top" xlink:title="iter::count">
<polygon fill="#ffffff" stroke="#000000" points="96,-38.5 96,-57.5 156,-57.5 156,-38.5 96,-38.5"/>
<text text-anchor="middle" x="126" y="-45.5" font-family="Helvetica,sans-Serif" font-size="10.00" fill="#000000">iter::count</text>
</a>
</g>
</g>
<!-- Node11&#45;&gt;Node12 -->
<g id="edge1" class="edge">
<title>Node11&#45;&gt;Node12</title>
<path fill="none" stroke="#191970" d="M70.0666,-36.9298C78.7462,-38.6477 87.7817,-40.436 95.9952,-42.0616"/>
<polygon fill="#191970" stroke="#191970" points="70.6009,-33.4678 60.1116,-34.9596 69.2418,-40.3346 70.6009,-33.4678"/>
</g>
<!-- Node13 -->
<g id="node3" class="node">
<title>Node13</title>
<g id="a_node3"><a xlink:href="count__examples_8cpp.html#ae66f6b31b5ad750f1fe042a706a4e3d4" target="_top" xlink:title="main">
<polygon fill="#ffffff" stroke="#000000" points="107,-.5 107,-19.5 145,-19.5 145,-.5 107,-.5"/>
<text text-anchor="middle" x="126" y="-7.5" font-family="Helvetica,sans-Serif" font-size="10.00" fill="#000000">main</text>
</a>
</g>
</g>
<!-- Node11&#45;&gt;Node13 -->
<g id="edge2" class="edge">
<title>Node11&#45;&gt;Node13</title>
<path fill="none" stroke="#191970" d="M70.0911,-21.0653C82.8275,-18.5446 96.3279,-15.8726 106.8711,-13.7859"/>
<polygon fill="#191970" stroke="#191970" points="69.2418,-17.6654 60.1116,-23.0404 70.6009,-24.5322 69.2418,-17.6654"/>
</g>
</g>
</svg>
