<?xml version="1.0" encoding="UTF-8" standalone="no"?>
<!DOCTYPE svg PUBLIC "-//W3C//DTD SVG 1.1//EN"
 "http://www.w3.org/Graphics/SVG/1.1/DTD/svg11.dtd">
<!-- Generated by graphviz version 2.40.1 (20161225.0304)
 -->
<!-- Title: lib/src/netlist.cpp Pages: 1 -->
<!--zoomable 252 -->
<svg id="main" version="1.1" xmlns="http://www.w3.org/2000/svg" xmlns:xlink="http://www.w3.org/1999/xlink" xml:space="preserve" onload="init(evt)">
<style type="text/css"><![CDATA[
.edge:hover path { stroke: red; }
.edge:hover polygon { stroke: red; fill: red; }
]]></style>
<script type="text/javascript"><![CDATA[
var edges = document.getElementsByTagName('g');
if (edges && edges.length) {
  for (var i=0;i<edges.length;i++) {
    if (edges[i].id.substr(0,4)=='edge') {
      edges[i].setAttribute('class','edge');
    }
  }
}
]]></script>
        <defs>
                <circle id="rim" cx="0" cy="0" r="7"/>
                <circle id="rim2" cx="0" cy="0" r="3.5"/>
                <g id="zoomPlus">
                        <use xlink:href="#rim" fill="#404040">
                                <set attributeName="fill" to="#808080" begin="zoomplus.mouseover" end="zoomplus.mouseout"/>
                        </use>
                        <path d="M-4,0h8M0,-4v8" fill="none" stroke="white" stroke-width="1.5" pointer-events="none"/>
                </g>
                <g id="zoomMin">
                        <use xlink:href="#rim" fill="#404040">
                                <set attributeName="fill" to="#808080" begin="zoomminus.mouseover" end="zoomminus.mouseout"/>
                        </use>
                        <path d="M-4,0h8" fill="none" stroke="white" stroke-width="1.5" pointer-events="none"/>
                </g>
                <g id="dirArrow">
                        <path fill="none" stroke="white" stroke-width="1.5" d="M0,-3.0v7 M-2.5,-0.5L0,-3.0L2.5,-0.5"/>
                </g>
               <g id="resetDef">
                       <use xlink:href="#rim2" fill="#404040">
                               <set attributeName="fill" to="#808080" begin="reset.mouseover" end="reset.mouseout"/>
                       </use>
               </g>
        </defs>

<script type="text/javascript">
var viewWidth = 1023;
var viewHeight = 252;
var sectionId = 'dynsection-0';
</script>
<script xlink:href="svgpan.js"/>
<svg id="graph" class="graph">
<g id="viewport">
<title>lib/src/netlist.cpp</title>
<polygon fill="#ffffff" stroke="transparent" points="-4,4 -4,-248 1019,-248 1019,4 -4,4"/>
<!-- Node0 -->
<g id="node1" class="node">
<title>Node0</title>
<polygon fill="#bfbfbf" stroke="#000000" points="345,-224.5 345,-243.5 436,-243.5 436,-224.5 345,-224.5"/>
<text text-anchor="middle" x="390.5" y="-231.5" font-family="Helvetica,sans-Serif" font-size="10.00" fill="#000000">lib/src/netlist.cpp</text>
</g>
<!-- Node1 -->
<g id="node2" class="node">
<title>Node1</title>
<g id="a_node2"><a xlink:href="netlist_8hpp.html" target="_top" xlink:title="ckpttncpp/netlist.hpp">
<polygon fill="#ffffff" stroke="#000000" points="719,-168.5 719,-187.5 826,-187.5 826,-168.5 719,-168.5"/>
<text text-anchor="middle" x="772.5" y="-175.5" font-family="Helvetica,sans-Serif" font-size="10.00" fill="#000000">ckpttncpp/netlist.hpp</text>
</a>
</g>
</g>
<!-- Node0&#45;&gt;Node1 -->
<g id="edge1" class="edge">
<title>Node0&#45;&gt;Node1</title>
<path fill="none" stroke="#191970" d="M436.1987,-227.3007C504.0497,-217.354 631.6861,-198.6429 708.711,-187.3513"/>
<polygon fill="#191970" stroke="#191970" points="709.3832,-190.7902 718.7697,-185.8767 708.3678,-183.8643 709.3832,-190.7902"/>
</g>
<!-- Node5 -->
<g id="node6" class="node">
<title>Node5</title>
<g id="a_node6"><a xlink:href="py2cpp_8hpp.html" target="_top" xlink:title="py2cpp/py2cpp.hpp">
<polygon fill="#ffffff" stroke="#000000" points="90,-56.5 90,-75.5 191,-75.5 191,-56.5 90,-56.5"/>
<text text-anchor="middle" x="140.5" y="-63.5" font-family="Helvetica,sans-Serif" font-size="10.00" fill="#000000">py2cpp/py2cpp.hpp</text>
</a>
</g>
</g>
<!-- Node0&#45;&gt;Node5 -->
<g id="edge23" class="edge">
<title>Node0&#45;&gt;Node5</title>
<path fill="none" stroke="#191970" d="M376.3426,-224.4862C334.9297,-196.6567 213.7591,-115.2301 163.1351,-81.2108"/>
<polygon fill="#191970" stroke="#191970" points="165.0642,-78.2903 154.812,-75.6177 161.1598,-84.1003 165.0642,-78.2903"/>
</g>
<!-- Node2 -->
<g id="node3" class="node">
<title>Node2</title>
<polygon fill="#ffffff" stroke="#bfbfbf" points="822.5,-112.5 822.5,-131.5 878.5,-131.5 878.5,-112.5 822.5,-112.5"/>
<text text-anchor="middle" x="850.5" y="-119.5" font-family="Helvetica,sans-Serif" font-size="10.00" fill="#000000">algorithm</text>
</g>
<!-- Node1&#45;&gt;Node2 -->
<g id="edge2" class="edge">
<title>Node1&#45;&gt;Node2</title>
<path fill="none" stroke="#191970" d="M786.0866,-168.2455C797.8305,-159.814 815.0199,-147.4729 828.6882,-137.6598"/>
<polygon fill="#191970" stroke="#191970" points="830.9871,-140.3179 837.0691,-131.6427 826.9046,-134.6316 830.9871,-140.3179"/>
</g>
<!-- Node3 -->
<g id="node4" class="node">
<title>Node3</title>
<polygon fill="#ffffff" stroke="#bfbfbf" points="897,-112.5 897,-131.5 950,-131.5 950,-112.5 897,-112.5"/>
<text text-anchor="middle" x="923.5" y="-119.5" font-family="Helvetica,sans-Serif" font-size="10.00" fill="#000000">gsl/span</text>
</g>
<!-- Node1&#45;&gt;Node3 -->
<g id="edge3" class="edge">
<title>Node1&#45;&gt;Node3</title>
<path fill="none" stroke="#191970" d="M798.4578,-168.3733C823.2407,-159.1822 860.7746,-145.2624 888.254,-135.0713"/>
<polygon fill="#191970" stroke="#191970" points="889.7219,-138.26 897.8809,-131.5011 887.2879,-131.6968 889.7219,-138.26"/>
</g>
<!-- Node4 -->
<g id="node5" class="node">
<title>Node4</title>
<polygon fill="#ffffff" stroke="#bfbfbf" points="968,-112.5 968,-131.5 1015,-131.5 1015,-112.5 968,-112.5"/>
<text text-anchor="middle" x="991.5" y="-119.5" font-family="Helvetica,sans-Serif" font-size="10.00" fill="#000000">iterator</text>
</g>
<!-- Node1&#45;&gt;Node4 -->
<g id="edge4" class="edge">
<title>Node1&#45;&gt;Node4</title>
<path fill="none" stroke="#191970" d="M814.6553,-168.4141C850.5291,-160.0812 903.629,-147.336 957.9823,-132.3194"/>
<polygon fill="#191970" stroke="#191970" points="959.0881,-135.6447 967.7828,-129.5904 957.2104,-128.9012 959.0881,-135.6447"/>
</g>
<!-- Node1&#45;&gt;Node5 -->
<g id="edge5" class="edge">
<title>Node1&#45;&gt;Node5</title>
<path fill="none" stroke="#191970" d="M718.8887,-168.4993C601.914,-147.7696 324.4213,-98.5937 201.2283,-76.762"/>
<polygon fill="#191970" stroke="#191970" points="201.6687,-73.2856 191.2114,-74.9868 200.4472,-80.1782 201.6687,-73.2856"/>
</g>
<!-- Node11 -->
<g id="node12" class="node">
<title>Node11</title>
<polygon fill="#ffffff" stroke="#bfbfbf" points="674.5,-.5 674.5,-19.5 714.5,-19.5 714.5,-.5 674.5,-.5"/>
<text text-anchor="middle" x="694.5" y="-7.5" font-family="Helvetica,sans-Serif" font-size="10.00" fill="#000000">utility</text>
</g>
<!-- Node1&#45;&gt;Node11 -->
<g id="edge12" class="edge">
<title>Node1&#45;&gt;Node11</title>
<path fill="none" stroke="#191970" d="M776.3393,-168.2785C784.2965,-146.4265 800.1196,-92.4883 778.5,-56 766.8078,-36.2665 743.3241,-24.443 724.1527,-17.7348"/>
<polygon fill="#191970" stroke="#191970" points="725.1966,-14.3941 714.6056,-14.6784 723.0622,-21.0608 725.1966,-14.3941"/>
</g>
<!-- Node12 -->
<g id="node13" class="node">
<title>Node12</title>
<polygon fill="#ffffff" stroke="#bfbfbf" points="725.5,-56.5 725.5,-75.5 769.5,-75.5 769.5,-56.5 725.5,-56.5"/>
<text text-anchor="middle" x="747.5" y="-63.5" font-family="Helvetica,sans-Serif" font-size="10.00" fill="#000000">vector</text>
</g>
<!-- Node1&#45;&gt;Node12 -->
<g id="edge13" class="edge">
<title>Node1&#45;&gt;Node12</title>
<path fill="none" stroke="#191970" d="M770.3685,-168.4509C766.2726,-150.1013 757.2301,-109.5908 751.8235,-85.3693"/>
<polygon fill="#191970" stroke="#191970" points="755.2206,-84.5222 749.6261,-75.5249 748.3888,-86.0472 755.2206,-84.5222"/>
</g>
<!-- Node13 -->
<g id="node14" class="node">
<title>Node13</title>
<g id="a_node14"><a xlink:href="graph_8hpp.html" target="_top" xlink:title="xnetwork/classes/graph.hpp">
<polygon fill="#ffffff" stroke="#000000" points="532,-112.5 532,-131.5 671,-131.5 671,-112.5 532,-112.5"/>
<text text-anchor="middle" x="601.5" y="-119.5" font-family="Helvetica,sans-Serif" font-size="10.00" fill="#000000">xnetwork/classes/graph.hpp</text>
</a>
</g>
</g>
<!-- Node1&#45;&gt;Node13 -->
<g id="edge14" class="edge">
<title>Node1&#45;&gt;Node13</title>
<path fill="none" stroke="#191970" d="M743.1041,-168.3733C714.6693,-159.0613 671.4123,-144.8953 640.1919,-134.671"/>
<polygon fill="#191970" stroke="#191970" points="641.105,-131.2872 630.5124,-131.5011 638.9264,-137.9396 641.105,-131.2872"/>
</g>
<!-- Node6 -->
<g id="node7" class="node">
<title>Node6</title>
<polygon fill="#ffffff" stroke="#bfbfbf" points="343,-.5 343,-19.5 416,-19.5 416,-.5 343,-.5"/>
<text text-anchor="middle" x="379.5" y="-7.5" font-family="Helvetica,sans-Serif" font-size="10.00" fill="#000000">initializer_list</text>
</g>
<!-- Node5&#45;&gt;Node6 -->
<g id="edge6" class="edge">
<title>Node5&#45;&gt;Node6</title>
<path fill="none" stroke="#191970" d="M181.314,-56.4369C223.368,-46.5832 288.8261,-31.2458 332.8896,-20.9213"/>
<polygon fill="#191970" stroke="#191970" points="333.8381,-24.2939 342.7759,-18.6048 332.2411,-17.4785 333.8381,-24.2939"/>
</g>
<!-- Node7 -->
<g id="node8" class="node">
<title>Node7</title>
<polygon fill="#ffffff" stroke="#bfbfbf" points="197.5,-.5 197.5,-19.5 235.5,-19.5 235.5,-.5 197.5,-.5"/>
<text text-anchor="middle" x="216.5" y="-7.5" font-family="Helvetica,sans-Serif" font-size="10.00" fill="#000000">tuple</text>
</g>
<!-- Node5&#45;&gt;Node7 -->
<g id="edge7" class="edge">
<title>Node5&#45;&gt;Node7</title>
<path fill="none" stroke="#191970" d="M153.7382,-56.2455C165.181,-47.814 181.9296,-35.4729 195.2475,-25.6598"/>
<polygon fill="#191970" stroke="#191970" points="197.4391,-28.3924 203.4135,-19.6427 193.2867,-22.757 197.4391,-28.3924"/>
</g>
<!-- Node8 -->
<g id="node9" class="node">
<title>Node8</title>
<polygon fill="#ffffff" stroke="#bfbfbf" points="491.5,-.5 491.5,-19.5 553.5,-19.5 553.5,-.5 491.5,-.5"/>
<text text-anchor="middle" x="522.5" y="-7.5" font-family="Helvetica,sans-Serif" font-size="10.00" fill="#000000">type_traits</text>
</g>
<!-- Node5&#45;&gt;Node8 -->
<g id="edge8" class="edge">
<title>Node5&#45;&gt;Node8</title>
<path fill="none" stroke="#191970" d="M191.0162,-57.3477C193.8852,-56.8844 196.7284,-56.4322 199.5,-56 300.5491,-40.2439 419.732,-23.831 481.2039,-15.5255"/>
<polygon fill="#191970" stroke="#191970" points="481.8359,-18.972 491.2785,-14.1671 480.9005,-12.0348 481.8359,-18.972"/>
</g>
<!-- Node9 -->
<g id="node10" class="node">
<title>Node9</title>
<polygon fill="#ffffff" stroke="#bfbfbf" points="0,-.5 0,-19.5 83,-19.5 83,-.5 0,-.5"/>
<text text-anchor="middle" x="41.5" y="-7.5" font-family="Helvetica,sans-Serif" font-size="10.00" fill="#000000">unordered_map</text>
</g>
<!-- Node5&#45;&gt;Node9 -->
<g id="edge9" class="edge">
<title>Node5&#45;&gt;Node9</title>
<path fill="none" stroke="#191970" d="M123.2555,-56.2455C107.9239,-47.5731 85.2801,-34.7645 67.7084,-24.825"/>
<polygon fill="#191970" stroke="#191970" points="68.9741,-21.5198 58.5469,-19.6427 65.5276,-27.6126 68.9741,-21.5198"/>
</g>
<!-- Node10 -->
<g id="node11" class="node">
<title>Node10</title>
<polygon fill="#ffffff" stroke="#bfbfbf" points="101.5,-.5 101.5,-19.5 179.5,-19.5 179.5,-.5 101.5,-.5"/>
<text text-anchor="middle" x="140.5" y="-7.5" font-family="Helvetica,sans-Serif" font-size="10.00" fill="#000000">unordered_set</text>
</g>
<!-- Node5&#45;&gt;Node10 -->
<g id="edge10" class="edge">
<title>Node5&#45;&gt;Node10</title>
<path fill="none" stroke="#191970" d="M140.5,-56.2455C140.5,-48.9382 140.5,-38.6944 140.5,-29.7046"/>
<polygon fill="#191970" stroke="#191970" points="144.0001,-29.6426 140.5,-19.6427 137.0001,-29.6427 144.0001,-29.6426"/>
</g>
<!-- Node5&#45;&gt;Node11 -->
<g id="edge11" class="edge">
<title>Node5&#45;&gt;Node11</title>
<path fill="none" stroke="#191970" d="M191.3122,-57.1383C194.0789,-56.7337 196.8217,-56.3509 199.5,-56 290.3575,-44.0957 571.0535,-20.2913 664.1492,-12.5185"/>
<polygon fill="#191970" stroke="#191970" points="664.6269,-15.9909 674.3016,-11.6724 664.0454,-9.0151 664.6269,-15.9909"/>
</g>
<!-- Node13&#45;&gt;Node5 -->
<g id="edge17" class="edge">
<title>Node13&#45;&gt;Node5</title>
<path fill="none" stroke="#191970" d="M531.9962,-115.1971C453.9333,-107.2973 323.215,-93.2932 201.2653,-76.1934"/>
<polygon fill="#191970" stroke="#191970" points="201.3938,-72.6769 191.0026,-74.744 200.4148,-79.6081 201.3938,-72.6769"/>
</g>
<!-- Node13&#45;&gt;Node8 -->
<g id="edge18" class="edge">
<title>Node13&#45;&gt;Node8</title>
<path fill="none" stroke="#191970" d="M596.0499,-112.3404C588.5385,-99.2445 574.3554,-75.2787 560.5,-56 553.427,-46.1584 544.8818,-35.7043 537.6875,-27.2532"/>
<polygon fill="#191970" stroke="#191970" points="540.2336,-24.8465 531.048,-19.5667 534.9362,-29.4223 540.2336,-24.8465"/>
</g>
<!-- Node13&#45;&gt;Node12 -->
<g id="edge19" class="edge">
<title>Node13&#45;&gt;Node12</title>
<path fill="none" stroke="#191970" d="M626.5983,-112.3733C651.1784,-102.9453 688.7313,-88.5414 715.4566,-78.2906"/>
<polygon fill="#191970" stroke="#191970" points="717.0362,-81.4334 725.1196,-74.5843 714.5293,-74.8977 717.0362,-81.4334"/>
</g>
<!-- Node14 -->
<g id="node15" class="node">
<title>Node14</title>
<polygon fill="#ffffff" stroke="#bfbfbf" points="607.5,-56.5 607.5,-75.5 639.5,-75.5 639.5,-56.5 607.5,-56.5"/>
<text text-anchor="middle" x="623.5" y="-63.5" font-family="Helvetica,sans-Serif" font-size="10.00" fill="#000000">any</text>
</g>
<!-- Node13&#45;&gt;Node14 -->
<g id="edge15" class="edge">
<title>Node13&#45;&gt;Node14</title>
<path fill="none" stroke="#191970" d="M605.3321,-112.2455C608.2659,-104.7776 612.4047,-94.2427 615.991,-85.1137"/>
<polygon fill="#191970" stroke="#191970" points="619.3129,-86.23 619.7118,-75.6427 612.7976,-83.6704 619.3129,-86.23"/>
</g>
<!-- Node15 -->
<g id="node16" class="node">
<title>Node15</title>
<polygon fill="#ffffff" stroke="#bfbfbf" points="658,-56.5 658,-75.5 707,-75.5 707,-56.5 658,-56.5"/>
<text text-anchor="middle" x="682.5" y="-63.5" font-family="Helvetica,sans-Serif" font-size="10.00" fill="#000000">cassert</text>
</g>
<!-- Node13&#45;&gt;Node15 -->
<g id="edge16" class="edge">
<title>Node13&#45;&gt;Node15</title>
<path fill="none" stroke="#191970" d="M615.6091,-112.2455C627.9209,-103.7337 645.9958,-91.2375 660.2538,-81.3801"/>
<polygon fill="#191970" stroke="#191970" points="662.3174,-84.2085 668.5526,-75.6427 658.3366,-78.4506 662.3174,-84.2085"/>
</g>
<!-- Node16 -->
<g id="node17" class="node">
<title>Node16</title>
<g id="a_node17"><a xlink:href="coreviews_8hpp.html" target="_top" xlink:title="xnetwork/classes/coreviews.hpp">
<polygon fill="#ffffff" stroke="#000000" points="209,-56.5 209,-75.5 368,-75.5 368,-56.5 209,-56.5"/>
<text text-anchor="middle" x="288.5" y="-63.5" font-family="Helvetica,sans-Serif" font-size="10.00" fill="#000000">xnetwork/classes/coreviews.hpp</text>
</a>
</g>
</g>
<!-- Node13&#45;&gt;Node16 -->
<g id="edge20" class="edge">
<title>Node13&#45;&gt;Node16</title>
<path fill="none" stroke="#191970" d="M548.049,-112.4369C493.6937,-102.712 409.4835,-87.6456 351.8181,-77.3285"/>
<polygon fill="#191970" stroke="#191970" points="352.1906,-73.8396 341.7305,-75.5237 350.9578,-80.7302 352.1906,-73.8396"/>
</g>
<!-- Node17 -->
<g id="node18" class="node">
<title>Node17</title>
<g id="a_node18"><a xlink:href="reportviews_8hpp.html" target="_top" xlink:title="xnetwork/classes/reportviews.hpp">
<polygon fill="#ffffff" stroke="#000000" points="386,-56.5 386,-75.5 551,-75.5 551,-56.5 386,-56.5"/>
<text text-anchor="middle" x="468.5" y="-63.5" font-family="Helvetica,sans-Serif" font-size="10.00" fill="#000000">xnetwork/classes/reportviews.hpp</text>
</a>
</g>
</g>
<!-- Node13&#45;&gt;Node17 -->
<g id="edge21" class="edge">
<title>Node13&#45;&gt;Node17</title>
<path fill="none" stroke="#191970" d="M578.6365,-112.3733C557.095,-103.3032 524.6162,-89.6279 500.5044,-79.4755"/>
<polygon fill="#191970" stroke="#191970" points="501.6397,-76.156 491.0652,-75.5011 498.9233,-82.6075 501.6397,-76.156"/>
</g>
<!-- Node17&#45;&gt;Node6 -->
<g id="edge22" class="edge">
<title>Node17&#45;&gt;Node6</title>
<path fill="none" stroke="#191970" d="M452.9974,-56.2455C439.342,-47.6534 419.2343,-35.0014 403.5011,-25.1018"/>
<polygon fill="#191970" stroke="#191970" points="405.1529,-22.006 394.825,-19.6427 401.4249,-27.9307 405.1529,-22.006"/>
</g>
</g>
</svg>
        <g id="navigator" transform="translate(0 0)" fill="#404254">
                <rect fill="#f2f5e9" fill-opacity="0.5" stroke="#606060" stroke-width=".5" x="0" y="0" width="60" height="60"/>
                <use id="zoomplus" xlink:href="#zoomPlus" x="17" y="9" onmousedown="handleZoom(evt,'in')"/>
                <use id="zoomminus" xlink:href="#zoomMin" x="42" y="9" onmousedown="handleZoom(evt,'out')"/>
                <use id="reset" xlink:href="#resetDef" x="30" y="36" onmousedown="handleReset()"/>
                <g id="arrowUp" xlink:href="#dirArrow" transform="translate(30 24)" onmousedown="handlePan(0,-1)">
                  <use xlink:href="#rim" fill="#404040">
                        <set attributeName="fill" to="#808080" begin="arrowUp.mouseover" end="arrowUp.mouseout"/>
                  </use>
                  <path fill="none" stroke="white" stroke-width="1.5" d="M0,-3.0v7 M-2.5,-0.5L0,-3.0L2.5,-0.5"/>
                </g>
                <g id="arrowRight" xlink:href="#dirArrow" transform="rotate(90) translate(36 -43)" onmousedown="handlePan(1,0)">
                  <use xlink:href="#rim" fill="#404040">
                        <set attributeName="fill" to="#808080" begin="arrowRight.mouseover" end="arrowRight.mouseout"/>
                  </use>
                  <path fill="none" stroke="white" stroke-width="1.5" d="M0,-3.0v7 M-2.5,-0.5L0,-3.0L2.5,-0.5"/>
                </g>
                <g id="arrowDown" xlink:href="#dirArrow" transform="rotate(180) translate(-30 -48)" onmousedown="handlePan(0,1)">
                  <use xlink:href="#rim" fill="#404040">
                        <set attributeName="fill" to="#808080" begin="arrowDown.mouseover" end="arrowDown.mouseout"/>
                  </use>
                  <path fill="none" stroke="white" stroke-width="1.5" d="M0,-3.0v7 M-2.5,-0.5L0,-3.0L2.5,-0.5"/>
                </g>
                <g id="arrowLeft" xlink:href="#dirArrow" transform="rotate(270) translate(-36 17)" onmousedown="handlePan(-1,0)">
                  <use xlink:href="#rim" fill="#404040">
                        <set attributeName="fill" to="#808080" begin="arrowLeft.mouseover" end="arrowLeft.mouseout"/>
                  </use>
                  <path fill="none" stroke="white" stroke-width="1.5" d="M0,-3.0v7 M-2.5,-0.5L0,-3.0L2.5,-0.5"/>
                </g>
        </g>
        <svg viewBox="0 0 15 15" width="100%" height="30px" preserveAspectRatio="xMaxYMin meet">
         <g id="arrow_out" transform="scale(0.3 0.3)">
          <a xlink:href="netlist_8cpp__incl_org.svg" target="_base">
           <rect id="button" ry="5" rx="5" y="6" x="6" height="38" width="38"
                fill="#f2f5e9" fill-opacity="0.5" stroke="#606060" stroke-width="1.0"/>
           <path id="arrow"
             d="M 11.500037,31.436501 C 11.940474,20.09759 22.043105,11.32322 32.158766,21.979434 L 37.068811,17.246167 C 37.068811,17.246167 37.088388,32 37.088388,32 L 22.160133,31.978069 C 22.160133,31.978069 26.997745,27.140456 26.997745,27.140456 C 18.528582,18.264221 13.291696,25.230495 11.500037,31.436501 z"
             style="fill:#404040;"/>
          </a>
         </g>
        </svg>
</svg>
