<?xml version="1.0" encoding="UTF-8" standalone="no"?>
<!DOCTYPE svg PUBLIC "-//W3C//DTD SVG 1.1//EN"
 "http://www.w3.org/Graphics/SVG/1.1/DTD/svg11.dtd">
<!-- Generated by graphviz version 2.40.1 (20161225.0304)
 -->
<!-- Title: lib/include/ckpttncpp/robin.hpp Pages: 1 -->
<svg width="209pt" height="151pt"
 viewBox="0.00 0.00 209.00 151.00" xmlns="http://www.w3.org/2000/svg" xmlns:xlink="http://www.w3.org/1999/xlink">
<g id="graph0" class="graph" transform="scale(1 1) rotate(0) translate(4 147)">
<title>lib/include/ckpttncpp/robin.hpp</title>
<polygon fill="#ffffff" stroke="transparent" points="-4,4 -4,-147 205,-147 205,4 -4,4"/>
<!-- Node0 -->
<g id="node1" class="node">
<title>Node0</title>
<polygon fill="#bfbfbf" stroke="#000000" points="92,-112.5 92,-142.5 198,-142.5 198,-112.5 92,-112.5"/>
<text text-anchor="start" x="100" y="-130.5" font-family="Helvetica,sans-Serif" font-size="10.00" fill="#000000">lib/include/ckpttncpp</text>
<text text-anchor="middle" x="145" y="-119.5" font-family="Helvetica,sans-Serif" font-size="10.00" fill="#000000">/robin.hpp</text>
</g>
<!-- Node1 -->
<g id="node2" class="node">
<title>Node1</title>
<g id="a_node2"><a xlink:href="dllist_8hpp.html" target="_top" xlink:title="dllist.hpp">
<polygon fill="#ffffff" stroke="#000000" points="83,-56.5 83,-75.5 139,-75.5 139,-56.5 83,-56.5"/>
<text text-anchor="middle" x="111" y="-63.5" font-family="Helvetica,sans-Serif" font-size="10.00" fill="#000000">dllist.hpp</text>
</a>
</g>
</g>
<!-- Node0&#45;&gt;Node1 -->
<g id="edge1" class="edge">
<title>Node0&#45;&gt;Node1</title>
<path fill="none" stroke="#191970" d="M136.5955,-112.2977C131.9743,-103.9388 126.2031,-93.4997 121.3111,-84.6509"/>
<polygon fill="#191970" stroke="#191970" points="124.3452,-82.9051 116.4438,-75.8469 118.2191,-86.292 124.3452,-82.9051"/>
</g>
<!-- Node4 -->
<g id="node5" class="node">
<title>Node4</title>
<polygon fill="#ffffff" stroke="#bfbfbf" points="157,-56.5 157,-75.5 201,-75.5 201,-56.5 157,-56.5"/>
<text text-anchor="middle" x="179" y="-63.5" font-family="Helvetica,sans-Serif" font-size="10.00" fill="#000000">vector</text>
</g>
<!-- Node0&#45;&gt;Node4 -->
<g id="edge4" class="edge">
<title>Node0&#45;&gt;Node4</title>
<path fill="none" stroke="#191970" d="M153.4045,-112.2977C158.0257,-103.9388 163.7969,-93.4997 168.6889,-84.6509"/>
<polygon fill="#191970" stroke="#191970" points="171.7809,-86.292 173.5562,-75.8469 165.6548,-82.9051 171.7809,-86.292"/>
</g>
<!-- Node2 -->
<g id="node3" class="node">
<title>Node2</title>
<polygon fill="#ffffff" stroke="#bfbfbf" points="0,-.5 0,-19.5 120,-19.5 120,-.5 0,-.5"/>
<text text-anchor="middle" x="60" y="-7.5" font-family="Helvetica,sans-Serif" font-size="10.00" fill="#000000">boost/coroutine2/all.hpp</text>
</g>
<!-- Node1&#45;&gt;Node2 -->
<g id="edge2" class="edge">
<title>Node1&#45;&gt;Node2</title>
<path fill="none" stroke="#191970" d="M102.1165,-56.2455C94.8034,-48.2155 84.2609,-36.6394 75.5533,-27.0781"/>
<polygon fill="#191970" stroke="#191970" points="78.1028,-24.6795 68.7817,-19.6427 72.9273,-29.3928 78.1028,-24.6795"/>
</g>
<!-- Node3 -->
<g id="node4" class="node">
<title>Node3</title>
<polygon fill="#ffffff" stroke="#bfbfbf" points="138.5,-.5 138.5,-19.5 187.5,-19.5 187.5,-.5 138.5,-.5"/>
<text text-anchor="middle" x="163" y="-7.5" font-family="Helvetica,sans-Serif" font-size="10.00" fill="#000000">cassert</text>
</g>
<!-- Node1&#45;&gt;Node3 -->
<g id="edge3" class="edge">
<title>Node1&#45;&gt;Node3</title>
<path fill="none" stroke="#191970" d="M120.0577,-56.2455C127.5142,-48.2155 138.2634,-36.6394 147.1417,-27.0781"/>
<polygon fill="#191970" stroke="#191970" points="149.8063,-29.3522 154.0461,-19.6427 144.6768,-24.589 149.8063,-29.3522"/>
</g>
</g>
</svg>
