<?xml version="1.0" encoding="UTF-8" standalone="no"?>
<!DOCTYPE svg PUBLIC "-//W3C//DTD SVG 1.1//EN"
 "http://www.w3.org/Graphics/SVG/1.1/DTD/svg11.dtd">
<!-- Generated by graphviz version 2.40.1 (20161225.0304)
 -->
<!-- Title: FMBiConstrMgr Pages: 1 -->
<!--zoomable 1381 -->
<svg id="main" version="1.1" xmlns="http://www.w3.org/2000/svg" xmlns:xlink="http://www.w3.org/1999/xlink" xml:space="preserve" onload="init(evt)">
<style type="text/css"><![CDATA[
.edge:hover path { stroke: red; }
.edge:hover polygon { stroke: red; fill: red; }
]]></style>
<script type="text/javascript"><![CDATA[
var edges = document.getElementsByTagName('g');
if (edges && edges.length) {
  for (var i=0;i<edges.length;i++) {
    if (edges[i].id.substr(0,4)=='edge') {
      edges[i].setAttribute('class','edge');
    }
  }
}
]]></script>
        <defs>
                <circle id="rim" cx="0" cy="0" r="7"/>
                <circle id="rim2" cx="0" cy="0" r="3.5"/>
                <g id="zoomPlus">
                        <use xlink:href="#rim" fill="#404040">
                                <set attributeName="fill" to="#808080" begin="zoomplus.mouseover" end="zoomplus.mouseout"/>
                        </use>
                        <path d="M-4,0h8M0,-4v8" fill="none" stroke="white" stroke-width="1.5" pointer-events="none"/>
                </g>
                <g id="zoomMin">
                        <use xlink:href="#rim" fill="#404040">
                                <set attributeName="fill" to="#808080" begin="zoomminus.mouseover" end="zoomminus.mouseout"/>
                        </use>
                        <path d="M-4,0h8" fill="none" stroke="white" stroke-width="1.5" pointer-events="none"/>
                </g>
                <g id="dirArrow">
                        <path fill="none" stroke="white" stroke-width="1.5" d="M0,-3.0v7 M-2.5,-0.5L0,-3.0L2.5,-0.5"/>
                </g>
               <g id="resetDef">
                       <use xlink:href="#rim2" fill="#404040">
                               <set attributeName="fill" to="#808080" begin="reset.mouseover" end="reset.mouseout"/>
                       </use>
               </g>
        </defs>

<script type="text/javascript">
var viewWidth = 784;
var viewHeight = 1381;
var sectionId = 'dynsection-1';
</script>
<script xlink:href="svgpan.js"/>
<svg id="graph" class="graph">
<g id="viewport">
<title>FMBiConstrMgr</title>
<polygon fill="#ffffff" stroke="transparent" points="-4,4 -4,-1377 780,-1377 780,4 -4,4"/>
<!-- Node2 -->
<g id="node1" class="node">
<title>Node2</title>
<polygon fill="#bfbfbf" stroke="#000000" points="568.5,-.5 568.5,-68.5 669.5,-68.5 669.5,-.5 568.5,-.5"/>
<text text-anchor="middle" x="619" y="-56.5" font-family="Helvetica,sans-Serif" font-size="10.00" fill="#000000">FMBiConstrMgr</text>
<polyline fill="none" stroke="#000000" points="568.5,-49.5 669.5,-49.5 "/>
<text text-anchor="middle" x="619" y="-37.5" font-family="Helvetica,sans-Serif" font-size="10.00" fill="#000000"> </text>
<polyline fill="none" stroke="#000000" points="568.5,-30.5 669.5,-30.5 "/>
<text text-anchor="start" x="576.5" y="-18.5" font-family="Helvetica,sans-Serif" font-size="10.00" fill="#000000">+ FMBiConstrMgr()</text>
<text text-anchor="start" x="576.5" y="-7.5" font-family="Helvetica,sans-Serif" font-size="10.00" fill="#000000">+ select_togo()</text>
</g>
<!-- Node3 -->
<g id="node2" class="node">
<title>Node3</title>
<g id="a_node2"><a xlink:href="classFMConstrMgr.html" target="_top" xlink:title="FM Partition Constraint Manager. ">
<polygon fill="#ffffff" stroke="#000000" points="563.5,-106.5 563.5,-251.5 674.5,-251.5 674.5,-106.5 563.5,-106.5"/>
<text text-anchor="middle" x="619" y="-239.5" font-family="Helvetica,sans-Serif" font-size="10.00" fill="#000000">FMConstrMgr</text>
<polyline fill="none" stroke="#000000" points="563.5,-232.5 674.5,-232.5 "/>
<text text-anchor="start" x="571.5" y="-220.5" font-family="Helvetica,sans-Serif" font-size="10.00" fill="#000000"># BalTol</text>
<text text-anchor="start" x="571.5" y="-209.5" font-family="Helvetica,sans-Serif" font-size="10.00" fill="#000000"># K</text>
<text text-anchor="start" x="571.5" y="-198.5" font-family="Helvetica,sans-Serif" font-size="10.00" fill="#000000"># lowerbound</text>
<text text-anchor="start" x="571.5" y="-187.5" font-family="Helvetica,sans-Serif" font-size="10.00" fill="#000000"># totalweight</text>
<text text-anchor="start" x="571.5" y="-176.5" font-family="Helvetica,sans-Serif" font-size="10.00" fill="#000000">&#45; weight</text>
<polyline fill="none" stroke="#000000" points="563.5,-169.5 674.5,-169.5 "/>
<text text-anchor="start" x="571.5" y="-157.5" font-family="Helvetica,sans-Serif" font-size="10.00" fill="#000000">+ init()</text>
<text text-anchor="start" x="571.5" y="-146.5" font-family="Helvetica,sans-Serif" font-size="10.00" fill="#000000">+ check_legal()</text>
<text text-anchor="start" x="571.5" y="-135.5" font-family="Helvetica,sans-Serif" font-size="10.00" fill="#000000">+ check_constraints()</text>
<text text-anchor="start" x="571.5" y="-124.5" font-family="Helvetica,sans-Serif" font-size="10.00" fill="#000000">+ update_move()</text>
<text text-anchor="start" x="571.5" y="-113.5" font-family="Helvetica,sans-Serif" font-size="10.00" fill="#000000"># FMConstrMgr()</text>
</a>
</g>
</g>
<!-- Node3&#45;&gt;Node2 -->
<g id="edge1" class="edge">
<title>Node3&#45;&gt;Node2</title>
<path fill="none" stroke="#191970" d="M619,-96.1416C619,-86.4297 619,-76.9793 619,-68.513"/>
<polygon fill="none" stroke="#191970" points="615.5001,-96.3266 619,-106.3267 622.5001,-96.3267 615.5001,-96.3266"/>
</g>
<!-- Node4 -->
<g id="node3" class="node">
<title>Node4</title>
<g id="a_node3"><a xlink:href="structNetlist.html" target="_top" xlink:title="Netlist. ">
<polygon fill="#ffffff" stroke="#000000" points="424.5,-299.5 424.5,-510.5 543.5,-510.5 543.5,-299.5 424.5,-299.5"/>
<text text-anchor="start" x="432.5" y="-498.5" font-family="Helvetica,sans-Serif" font-size="10.00" fill="#000000">Netlist&lt; nodeview_t,</text>
<text text-anchor="middle" x="484" y="-487.5" font-family="Helvetica,sans-Serif" font-size="10.00" fill="#000000"> nodemap_t &gt;</text>
<polyline fill="none" stroke="#000000" points="424.5,-480.5 543.5,-480.5 "/>
<text text-anchor="start" x="432.5" y="-468.5" font-family="Helvetica,sans-Serif" font-size="10.00" fill="#000000">+ num_modules</text>
<text text-anchor="start" x="432.5" y="-457.5" font-family="Helvetica,sans-Serif" font-size="10.00" fill="#000000">+ num_nets</text>
<text text-anchor="start" x="432.5" y="-446.5" font-family="Helvetica,sans-Serif" font-size="10.00" fill="#000000">+ num_pads</text>
<text text-anchor="start" x="432.5" y="-435.5" font-family="Helvetica,sans-Serif" font-size="10.00" fill="#000000">+ max_degree</text>
<text text-anchor="start" x="432.5" y="-424.5" font-family="Helvetica,sans-Serif" font-size="10.00" fill="#000000">+ max_net_degree</text>
<text text-anchor="start" x="432.5" y="-413.5" font-family="Helvetica,sans-Serif" font-size="10.00" fill="#000000">+ has_fixed_modules</text>
<text text-anchor="start" x="432.5" y="-402.5" font-family="Helvetica,sans-Serif" font-size="10.00" fill="#000000">+ cost_model</text>
<text text-anchor="start" x="432.5" y="-391.5" font-family="Helvetica,sans-Serif" font-size="10.00" fill="#000000">+ parent</text>
<polyline fill="none" stroke="#000000" points="424.5,-384.5 543.5,-384.5 "/>
<text text-anchor="start" x="432.5" y="-372.5" font-family="Helvetica,sans-Serif" font-size="10.00" fill="#000000">+ Netlist()</text>
<text text-anchor="start" x="432.5" y="-361.5" font-family="Helvetica,sans-Serif" font-size="10.00" fill="#000000">+ Netlist()</text>
<text text-anchor="start" x="432.5" y="-350.5" font-family="Helvetica,sans-Serif" font-size="10.00" fill="#000000">+ number_of_modules()</text>
<text text-anchor="start" x="432.5" y="-339.5" font-family="Helvetica,sans-Serif" font-size="10.00" fill="#000000">+ number_of_nets()</text>
<text text-anchor="start" x="432.5" y="-328.5" font-family="Helvetica,sans-Serif" font-size="10.00" fill="#000000">+ number_of_nodes()</text>
<text text-anchor="start" x="432.5" y="-317.5" font-family="Helvetica,sans-Serif" font-size="10.00" fill="#000000">+ get_max_degree()</text>
<text text-anchor="start" x="432.5" y="-306.5" font-family="Helvetica,sans-Serif" font-size="10.00" fill="#000000">and 6 more...</text>
</a>
</g>
</g>
<!-- Node4&#45;&gt;Node3 -->
<g id="edge2" class="edge">
<title>Node4&#45;&gt;Node3</title>
<path fill="none" stroke="#404040" d="M543.6059,-305.2152C552.1615,-290.8926 560.8886,-276.2829 569.2272,-262.3234"/>
<polygon fill="none" stroke="#404040" points="569.3649,-262.0928 569.0079,-254.8905 575.5188,-251.7908 575.8758,-258.9931 569.3649,-262.0928"/>
<text text-anchor="middle" x="572" y="-273" font-family="Helvetica,sans-Serif" font-size="10.00" fill="#000000"> #H</text>
</g>
<!-- Node5 -->
<g id="node4" class="node">
<title>Node5</title>
<g id="a_node4"><a xlink:href="classxn_1_1Graph.html" target="_top" xlink:title="{xn::Graph\&lt; nodeview\l_t, nodemap_t \&gt;\n||+ Graph()\l+ Graph()\l+ adj()\l+ get_name()\l+ set_name()\l+ begin()\land 13 more...\l}">
<polygon fill="#ffffff" stroke="#000000" points="238,-569.5 238,-703.5 348,-703.5 348,-569.5 238,-569.5"/>
<text text-anchor="start" x="246" y="-691.5" font-family="Helvetica,sans-Serif" font-size="10.00" fill="#000000">xn::Graph&lt; nodeview</text>
<text text-anchor="middle" x="293" y="-680.5" font-family="Helvetica,sans-Serif" font-size="10.00" fill="#000000">_t, nodemap_t &gt;</text>
<polyline fill="none" stroke="#000000" points="238,-673.5 348,-673.5 "/>
<text text-anchor="middle" x="293" y="-661.5" font-family="Helvetica,sans-Serif" font-size="10.00" fill="#000000"> </text>
<polyline fill="none" stroke="#000000" points="238,-654.5 348,-654.5 "/>
<text text-anchor="start" x="246" y="-642.5" font-family="Helvetica,sans-Serif" font-size="10.00" fill="#000000">+ Graph()</text>
<text text-anchor="start" x="246" y="-631.5" font-family="Helvetica,sans-Serif" font-size="10.00" fill="#000000">+ Graph()</text>
<text text-anchor="start" x="246" y="-620.5" font-family="Helvetica,sans-Serif" font-size="10.00" fill="#000000">+ adj()</text>
<text text-anchor="start" x="246" y="-609.5" font-family="Helvetica,sans-Serif" font-size="10.00" fill="#000000">+ get_name()</text>
<text text-anchor="start" x="246" y="-598.5" font-family="Helvetica,sans-Serif" font-size="10.00" fill="#000000">+ set_name()</text>
<text text-anchor="start" x="246" y="-587.5" font-family="Helvetica,sans-Serif" font-size="10.00" fill="#000000">+ begin()</text>
<text text-anchor="start" x="246" y="-576.5" font-family="Helvetica,sans-Serif" font-size="10.00" fill="#000000">and 13 more...</text>
</a>
</g>
</g>
<!-- Node5&#45;&gt;Node4 -->
<g id="edge3" class="edge">
<title>Node5&#45;&gt;Node4</title>
<path fill="none" stroke="#404040" d="M348.2451,-569.5406C369.533,-543.7388 394.0873,-513.978 416.4109,-486.9209"/>
<polygon fill="none" stroke="#404040" points="416.568,-486.7304 417.3011,-479.5566 424.2049,-477.4741 423.4719,-484.6479 416.568,-486.7304"/>
<text text-anchor="middle" x="386.5" y="-537.5" font-family="Helvetica,sans-Serif" font-size="10.00" fill="#000000"> +G</text>
</g>
<!-- Node6 -->
<g id="node5" class="node">
<title>Node6</title>
<g id="a_node5"><a xlink:href="structxn_1_1object.html" target="_top" xlink:title="Base class for undirected graphs. ">
<polygon fill="#ffffff" stroke="#000000" points="247.5,-842.5 247.5,-899.5 306.5,-899.5 306.5,-842.5 247.5,-842.5"/>
<text text-anchor="middle" x="277" y="-887.5" font-family="Helvetica,sans-Serif" font-size="10.00" fill="#000000">xn::object</text>
<polyline fill="none" stroke="#000000" points="247.5,-880.5 306.5,-880.5 "/>
<text text-anchor="middle" x="277" y="-868.5" font-family="Helvetica,sans-Serif" font-size="10.00" fill="#000000"> </text>
<polyline fill="none" stroke="#000000" points="247.5,-861.5 306.5,-861.5 "/>
<text text-anchor="middle" x="277" y="-849.5" font-family="Helvetica,sans-Serif" font-size="10.00" fill="#000000"> </text>
</a>
</g>
</g>
<!-- Node6&#45;&gt;Node5 -->
<g id="edge4" class="edge">
<title>Node6&#45;&gt;Node5</title>
<path fill="none" stroke="#191970" d="M279.6603,-832.0097C282.037,-797.1757 285.5709,-745.383 288.4043,-703.8553"/>
<polygon fill="none" stroke="#191970" points="276.1508,-832.0306 278.9619,-842.2457 283.1346,-832.5072 276.1508,-832.0306"/>
</g>
<!-- Node7 -->
<g id="node6" class="node">
<title>Node7</title>
<g id="a_node6"><a xlink:href="classpy_1_1dict.html" target="_top" xlink:title="{py::dict\&lt; const char\l *, boost::any \&gt;\n||+ dict()\l+ dict()\l+ operator=()\l&#45; dict()\l}">
<polygon fill="#ffffff" stroke="#000000" points="191,-1049.5 191,-1150.5 295,-1150.5 295,-1049.5 191,-1049.5"/>
<text text-anchor="start" x="199" y="-1138.5" font-family="Helvetica,sans-Serif" font-size="10.00" fill="#000000">py::dict&lt; const char</text>
<text text-anchor="middle" x="243" y="-1127.5" font-family="Helvetica,sans-Serif" font-size="10.00" fill="#000000"> *, boost::any &gt;</text>
<polyline fill="none" stroke="#000000" points="191,-1120.5 295,-1120.5 "/>
<text text-anchor="middle" x="243" y="-1108.5" font-family="Helvetica,sans-Serif" font-size="10.00" fill="#000000"> </text>
<polyline fill="none" stroke="#000000" points="191,-1101.5 295,-1101.5 "/>
<text text-anchor="start" x="199" y="-1089.5" font-family="Helvetica,sans-Serif" font-size="10.00" fill="#000000">+ dict()</text>
<text text-anchor="start" x="199" y="-1078.5" font-family="Helvetica,sans-Serif" font-size="10.00" fill="#000000">+ dict()</text>
<text text-anchor="start" x="199" y="-1067.5" font-family="Helvetica,sans-Serif" font-size="10.00" fill="#000000">+ operator=()</text>
<text text-anchor="start" x="199" y="-1056.5" font-family="Helvetica,sans-Serif" font-size="10.00" fill="#000000">&#45; dict()</text>
</a>
</g>
</g>
<!-- Node7&#45;&gt;Node5 -->
<g id="edge11" class="edge">
<title>Node7&#45;&gt;Node5</title>
<path fill="none" stroke="#404040" d="M224.8142,-1049.0466C207.9112,-994.6605 187.6217,-906.1552 204,-831 212.7402,-790.8938 230.5257,-749.1598 247.9156,-714.6811"/>
<polygon fill="none" stroke="#404040" points="248.0476,-714.4243 247.2346,-707.2592 253.5359,-703.7529 254.3489,-710.918 248.0476,-714.4243"/>
<text text-anchor="middle" x="221" y="-868.5" font-family="Helvetica,sans-Serif" font-size="10.00" fill="#000000"> +graph</text>
</g>
<!-- Node7&#45;&gt;Node6 -->
<g id="edge5" class="edge">
<title>Node7&#45;&gt;Node6</title>
<path fill="none" stroke="#191970" d="M251.9853,-1039.4817C258.6901,-994.3228 267.5518,-934.6362 272.7286,-899.7689"/>
<polygon fill="none" stroke="#191970" points="248.5102,-1039.0559 250.5035,-1049.4615 255.4343,-1040.084 248.5102,-1039.0559"/>
</g>
<!-- Node8 -->
<g id="node7" class="node">
<title>Node8</title>
<g id="a_node7"><a xlink:title="STL class. ">
<polygon fill="#ffffff" stroke="#bfbfbf" points="190,-1188.5 190,-1267.5 298,-1267.5 298,-1188.5 190,-1188.5"/>
<text text-anchor="start" x="198" y="-1255.5" font-family="Helvetica,sans-Serif" font-size="10.00" fill="#000000">std::unordered_map</text>
<text text-anchor="start" x="198" y="-1244.5" font-family="Helvetica,sans-Serif" font-size="10.00" fill="#000000">&lt; const char *, boost</text>
<text text-anchor="middle" x="244" y="-1233.5" font-family="Helvetica,sans-Serif" font-size="10.00" fill="#000000">::any &gt;</text>
<polyline fill="none" stroke="#bfbfbf" points="190,-1226.5 298,-1226.5 "/>
<text text-anchor="middle" x="244" y="-1214.5" font-family="Helvetica,sans-Serif" font-size="10.00" fill="#000000"> </text>
<polyline fill="none" stroke="#bfbfbf" points="190,-1207.5 298,-1207.5 "/>
<text text-anchor="middle" x="244" y="-1195.5" font-family="Helvetica,sans-Serif" font-size="10.00" fill="#000000"> </text>
</a>
</g>
</g>
<!-- Node8&#45;&gt;Node7 -->
<g id="edge6" class="edge">
<title>Node8&#45;&gt;Node7</title>
<path fill="none" stroke="#191970" d="M243.6109,-1178.1972C243.5402,-1169.1496 243.4664,-1159.7033 243.3956,-1150.6321"/>
<polygon fill="none" stroke="#191970" points="240.111,-1178.2293 243.6891,-1188.2016 247.1107,-1178.1746 240.111,-1178.2293"/>
</g>
<!-- Node9 -->
<g id="node8" class="node">
<title>Node9</title>
<polygon fill="#ffffff" stroke="#bfbfbf" points="439.5,-1315.5 439.5,-1372.5 468.5,-1372.5 468.5,-1315.5 439.5,-1315.5"/>
<text text-anchor="middle" x="454" y="-1360.5" font-family="Helvetica,sans-Serif" font-size="10.00" fill="#000000">K</text>
<polyline fill="none" stroke="#bfbfbf" points="439.5,-1353.5 468.5,-1353.5 "/>
<text text-anchor="middle" x="454" y="-1341.5" font-family="Helvetica,sans-Serif" font-size="10.00" fill="#000000"> </text>
<polyline fill="none" stroke="#bfbfbf" points="439.5,-1334.5 468.5,-1334.5 "/>
<text text-anchor="middle" x="454" y="-1322.5" font-family="Helvetica,sans-Serif" font-size="10.00" fill="#000000"> </text>
</g>
<!-- Node9&#45;&gt;Node8 -->
<g id="edge7" class="edge">
<title>Node9&#45;&gt;Node8</title>
<path fill="none" stroke="#404040" d="M439.3729,-1330.2711C424.8146,-1317.2579 401.3334,-1297.97 378,-1286 353.607,-1273.4865 344.325,-1278.5 319,-1268 315.8051,-1266.6754 312.5665,-1265.258 309.3191,-1263.776"/>
<polygon fill="none" stroke="#404040" points="309.1297,-1263.6859 301.993,-1264.7192 298.2942,-1258.5289 305.431,-1257.4956 309.1297,-1263.6859"/>
<text text-anchor="middle" x="412.5" y="-1289" font-family="Helvetica,sans-Serif" font-size="10.00" fill="#000000"> +keys</text>
</g>
<!-- Node15 -->
<g id="node14" class="node">
<title>Node15</title>
<g id="a_node14"><a xlink:title="STL class. ">
<polygon fill="#ffffff" stroke="#bfbfbf" points="328.5,-1188.5 328.5,-1267.5 441.5,-1267.5 441.5,-1188.5 328.5,-1188.5"/>
<text text-anchor="start" x="336.5" y="-1255.5" font-family="Helvetica,sans-Serif" font-size="10.00" fill="#000000">std::unordered_set</text>
<text text-anchor="start" x="336.5" y="-1244.5" font-family="Helvetica,sans-Serif" font-size="10.00" fill="#000000">&lt; typename nodeview</text>
<text text-anchor="middle" x="385" y="-1233.5" font-family="Helvetica,sans-Serif" font-size="10.00" fill="#000000">_t::value_type &gt;</text>
<polyline fill="none" stroke="#bfbfbf" points="328.5,-1226.5 441.5,-1226.5 "/>
<text text-anchor="middle" x="385" y="-1214.5" font-family="Helvetica,sans-Serif" font-size="10.00" fill="#000000"> </text>
<polyline fill="none" stroke="#bfbfbf" points="328.5,-1207.5 441.5,-1207.5 "/>
<text text-anchor="middle" x="385" y="-1195.5" font-family="Helvetica,sans-Serif" font-size="10.00" fill="#000000"> </text>
</a>
</g>
</g>
<!-- Node9&#45;&gt;Node15 -->
<g id="edge15" class="edge">
<title>Node9&#45;&gt;Node15</title>
<path fill="none" stroke="#404040" d="M445.215,-1315.4473C441.7173,-1305.7938 437.2604,-1295.1497 432,-1286 430.3901,-1283.1998 428.6482,-1280.3951 426.8153,-1277.6134"/>
<polygon fill="none" stroke="#404040" points="426.7452,-1277.5135 420.0247,-1274.8991 419.8531,-1267.69 426.5736,-1270.3044 426.7452,-1277.5135"/>
<text text-anchor="middle" x="453.5" y="-1289" font-family="Helvetica,sans-Serif" font-size="10.00" fill="#000000"> +keys</text>
</g>
<!-- Node17 -->
<g id="node16" class="node">
<title>Node17</title>
<g id="a_node16"><a xlink:title="STL class. ">
<polygon fill="#ffffff" stroke="#bfbfbf" points="581,-1194 581,-1262 679,-1262 679,-1194 581,-1194"/>
<text text-anchor="start" x="589" y="-1250" font-family="Helvetica,sans-Serif" font-size="10.00" fill="#000000">std::unordered_set</text>
<text text-anchor="middle" x="630" y="-1239" font-family="Helvetica,sans-Serif" font-size="10.00" fill="#000000">&lt; node_t &gt;</text>
<polyline fill="none" stroke="#bfbfbf" points="581,-1232 679,-1232 "/>
<text text-anchor="middle" x="630" y="-1220" font-family="Helvetica,sans-Serif" font-size="10.00" fill="#000000"> </text>
<polyline fill="none" stroke="#bfbfbf" points="581,-1213 679,-1213 "/>
<text text-anchor="middle" x="630" y="-1201" font-family="Helvetica,sans-Serif" font-size="10.00" fill="#000000"> </text>
</a>
</g>
</g>
<!-- Node9&#45;&gt;Node17 -->
<g id="edge19" class="edge">
<title>Node9&#45;&gt;Node17</title>
<path fill="none" stroke="#404040" d="M468.7676,-1334.9841C483.9727,-1325.6455 508.3003,-1310.549 529,-1297 542.5926,-1288.1029 557.0806,-1278.3617 570.7151,-1269.0752"/>
<polygon fill="none" stroke="#404040" points="571.0384,-1268.8544 573.7355,-1262.1666 580.9462,-1262.084 578.2491,-1268.7718 571.0384,-1268.8544"/>
<text text-anchor="middle" x="558.5" y="-1289" font-family="Helvetica,sans-Serif" font-size="10.00" fill="#000000"> +keys</text>
</g>
<!-- Node19 -->
<g id="node18" class="node">
<title>Node19</title>
<g id="a_node18"><a xlink:title="STL class. ">
<polygon fill="#ffffff" stroke="#bfbfbf" points="459.5,-1194 459.5,-1262 562.5,-1262 562.5,-1194 459.5,-1194"/>
<text text-anchor="start" x="467.5" y="-1250" font-family="Helvetica,sans-Serif" font-size="10.00" fill="#000000">std::unordered_map</text>
<text text-anchor="middle" x="511" y="-1239" font-family="Helvetica,sans-Serif" font-size="10.00" fill="#000000">&lt; node_t, index_t &gt;</text>
<polyline fill="none" stroke="#bfbfbf" points="459.5,-1232 562.5,-1232 "/>
<text text-anchor="middle" x="511" y="-1220" font-family="Helvetica,sans-Serif" font-size="10.00" fill="#000000"> </text>
<polyline fill="none" stroke="#bfbfbf" points="459.5,-1213 562.5,-1213 "/>
<text text-anchor="middle" x="511" y="-1201" font-family="Helvetica,sans-Serif" font-size="10.00" fill="#000000"> </text>
</a>
</g>
</g>
<!-- Node9&#45;&gt;Node19 -->
<g id="edge22" class="edge">
<title>Node9&#45;&gt;Node19</title>
<path fill="none" stroke="#404040" d="M468.5993,-1326.5309C475.1867,-1318.0189 482.6676,-1307.3943 488,-1297 491.7563,-1289.678 495.0907,-1281.6121 497.9746,-1273.6557"/>
<polygon fill="none" stroke="#404040" points="498.0143,-1273.5386 496.1567,-1266.5709 501.874,-1262.1763 503.7316,-1269.1441 498.0143,-1273.5386"/>
<text text-anchor="middle" x="509.5" y="-1289" font-family="Helvetica,sans-Serif" font-size="10.00" fill="#000000"> +keys</text>
</g>
<!-- Node21 -->
<g id="node20" class="node">
<title>Node21</title>
<g id="a_node20"><a xlink:title="STL class. ">
<polygon fill="#ffffff" stroke="#bfbfbf" points="68.5,-1194 68.5,-1262 171.5,-1262 171.5,-1194 68.5,-1194"/>
<text text-anchor="start" x="76.5" y="-1250" font-family="Helvetica,sans-Serif" font-size="10.00" fill="#000000">std::unordered_map</text>
<text text-anchor="middle" x="120" y="-1239" font-family="Helvetica,sans-Serif" font-size="10.00" fill="#000000">&lt; index_t, node_t &gt;</text>
<polyline fill="none" stroke="#bfbfbf" points="68.5,-1232 171.5,-1232 "/>
<text text-anchor="middle" x="120" y="-1220" font-family="Helvetica,sans-Serif" font-size="10.00" fill="#000000"> </text>
<polyline fill="none" stroke="#bfbfbf" points="68.5,-1213 171.5,-1213 "/>
<text text-anchor="middle" x="120" y="-1201" font-family="Helvetica,sans-Serif" font-size="10.00" fill="#000000"> </text>
</a>
</g>
</g>
<!-- Node9&#45;&gt;Node21 -->
<g id="edge26" class="edge">
<title>Node9&#45;&gt;Node21</title>
<path fill="none" stroke="#404040" d="M439.3336,-1341.6404C407.7125,-1336.2526 331.1177,-1321.578 271,-1297 261.9681,-1293.3075 261.0376,-1289.6785 252,-1286 221.848,-1273.7276 210.7992,-1281.1058 181,-1268 180.7537,-1267.8917 180.5072,-1267.7824 180.2607,-1267.6721"/>
<polygon fill="none" stroke="#404040" points="179.9125,-1267.4992 172.7594,-1268.4118 169.1658,-1262.1599 176.3189,-1261.2473 179.9125,-1267.4992"/>
<text text-anchor="middle" x="286.5" y="-1289" font-family="Helvetica,sans-Serif" font-size="10.00" fill="#000000"> +keys</text>
</g>
<!-- Node10 -->
<g id="node9" class="node">
<title>Node10</title>
<polygon fill="#ffffff" stroke="#bfbfbf" points="187.5,-1315.5 187.5,-1372.5 216.5,-1372.5 216.5,-1315.5 187.5,-1315.5"/>
<text text-anchor="middle" x="202" y="-1360.5" font-family="Helvetica,sans-Serif" font-size="10.00" fill="#000000">T</text>
<polyline fill="none" stroke="#bfbfbf" points="187.5,-1353.5 216.5,-1353.5 "/>
<text text-anchor="middle" x="202" y="-1341.5" font-family="Helvetica,sans-Serif" font-size="10.00" fill="#000000"> </text>
<polyline fill="none" stroke="#bfbfbf" points="187.5,-1334.5 216.5,-1334.5 "/>
<text text-anchor="middle" x="202" y="-1322.5" font-family="Helvetica,sans-Serif" font-size="10.00" fill="#000000"> </text>
</g>
<!-- Node10&#45;&gt;Node8 -->
<g id="edge8" class="edge">
<title>Node10&#45;&gt;Node8</title>
<path fill="none" stroke="#404040" d="M199.1617,-1315.4152C199.082,-1305.8598 199.9615,-1295.2842 203,-1286 203.8414,-1283.429 204.8397,-1280.8727 205.9618,-1278.3476"/>
<polygon fill="none" stroke="#404040" points="206.049,-1278.1793 205.2593,-1271.0116 211.5719,-1267.5258 212.3616,-1274.6935 206.049,-1278.1793"/>
<text text-anchor="middle" x="227.5" y="-1289" font-family="Helvetica,sans-Serif" font-size="10.00" fill="#000000"> +elements</text>
</g>
<!-- Node10&#45;&gt;Node19 -->
<g id="edge23" class="edge">
<title>Node10&#45;&gt;Node19</title>
<path fill="none" stroke="#404040" d="M216.6874,-1337.9138C237.0311,-1329.3598 274.8062,-1313.0273 306,-1297 314.679,-1292.5408 315.7814,-1289.1979 325,-1286 378.0286,-1267.6046 397.5033,-1287.8623 450,-1268 450.6848,-1267.7409 451.3697,-1267.4731 452.0545,-1267.1972"/>
<polygon fill="none" stroke="#404040" points="452.1866,-1267.1361 455.9508,-1260.9854 463.0761,-1262.0944 459.3119,-1268.2451 452.1866,-1267.1361"/>
<text text-anchor="middle" x="349.5" y="-1289" font-family="Helvetica,sans-Serif" font-size="10.00" fill="#000000"> +elements</text>
</g>
<!-- Node10&#45;&gt;Node21 -->
<g id="edge27" class="edge">
<title>Node10&#45;&gt;Node21</title>
<path fill="none" stroke="#404040" d="M187.4642,-1334.3029C175.5104,-1325.701 158.8329,-1312.1727 148,-1297 142.8871,-1289.8389 138.5137,-1281.6082 134.848,-1273.3829"/>
<polygon fill="none" stroke="#404040" points="134.8434,-1273.3715 128.864,-1269.3407 130.285,-1262.271 136.2644,-1266.3018 134.8434,-1273.3715"/>
<text text-anchor="middle" x="172.5" y="-1289" font-family="Helvetica,sans-Serif" font-size="10.00" fill="#000000"> +elements</text>
</g>
<!-- Node11 -->
<g id="node10" class="node">
<title>Node11</title>
<polygon fill="#ffffff" stroke="#bfbfbf" points="93,-842.5 93,-899.5 159,-899.5 159,-842.5 93,-842.5"/>
<text text-anchor="middle" x="126" y="-887.5" font-family="Helvetica,sans-Serif" font-size="10.00" fill="#000000">nodeview_t</text>
<polyline fill="none" stroke="#bfbfbf" points="93,-880.5 159,-880.5 "/>
<text text-anchor="middle" x="126" y="-868.5" font-family="Helvetica,sans-Serif" font-size="10.00" fill="#000000"> </text>
<polyline fill="none" stroke="#bfbfbf" points="93,-861.5 159,-861.5 "/>
<text text-anchor="middle" x="126" y="-849.5" font-family="Helvetica,sans-Serif" font-size="10.00" fill="#000000"> </text>
</g>
<!-- Node11&#45;&gt;Node4 -->
<g id="edge16" class="edge">
<title>Node11&#45;&gt;Node4</title>
<path fill="none" stroke="#404040" d="M123.1838,-842.485C119.0332,-784.3608 117.8171,-650.779 183,-569 242.0824,-494.8747 344.1716,-449.5007 412.876,-425.7965"/>
<polygon fill="none" stroke="#404040" points="413.0775,-425.7287 417.4871,-420.0229 424.4499,-421.8987 420.0404,-427.6045 413.0775,-425.7287"/>
<text text-anchor="middle" x="206" y="-639.5" font-family="Helvetica,sans-Serif" font-size="10.00" fill="#000000"> +modules</text>
<text text-anchor="middle" x="206" y="-628.5" font-family="Helvetica,sans-Serif" font-size="10.00" fill="#000000">+nets</text>
</g>
<!-- Node11&#45;&gt;Node5 -->
<g id="edge9" class="edge">
<title>Node11&#45;&gt;Node5</title>
<path fill="none" stroke="#404040" d="M131.3329,-842.322C139.0407,-801.854 153.1224,-731.8006 160,-722 169.3388,-708.6922 198.5104,-689.3942 227.1618,-672.4987"/>
<polygon fill="none" stroke="#404040" points="227.2818,-672.429 230.4589,-665.9554 237.6564,-666.3982 234.4793,-672.8718 227.2818,-672.429"/>
<text text-anchor="middle" x="178" y="-765" font-family="Helvetica,sans-Serif" font-size="10.00" fill="#000000"> +_node</text>
</g>
<!-- Node12 -->
<g id="node11" class="node">
<title>Node12</title>
<polygon fill="#ffffff" stroke="#bfbfbf" points="463.5,-842.5 463.5,-899.5 528.5,-899.5 528.5,-842.5 463.5,-842.5"/>
<text text-anchor="middle" x="496" y="-887.5" font-family="Helvetica,sans-Serif" font-size="10.00" fill="#000000">nodemap_t</text>
<polyline fill="none" stroke="#bfbfbf" points="463.5,-880.5 528.5,-880.5 "/>
<text text-anchor="middle" x="496" y="-868.5" font-family="Helvetica,sans-Serif" font-size="10.00" fill="#000000"> </text>
<polyline fill="none" stroke="#bfbfbf" points="463.5,-861.5 528.5,-861.5 "/>
<text text-anchor="middle" x="496" y="-849.5" font-family="Helvetica,sans-Serif" font-size="10.00" fill="#000000"> </text>
</g>
<!-- Node12&#45;&gt;Node4 -->
<g id="edge28" class="edge">
<title>Node12&#45;&gt;Node4</title>
<path fill="none" stroke="#404040" d="M475.7384,-842.2901C470.196,-833.2726 464.703,-823.0413 461,-813 423.3761,-710.9773 429.7139,-676.9244 443,-569 444.8717,-553.7962 447.6845,-537.9747 450.9769,-522.4193"/>
<polygon fill="none" stroke="#404040" points="451.0009,-522.3099 448.3842,-515.5903 453.5805,-510.5905 456.1972,-517.3101 451.0009,-522.3099"/>
<text text-anchor="middle" x="474" y="-639.5" font-family="Helvetica,sans-Serif" font-size="10.00" fill="#000000"> +net_map</text>
<text text-anchor="middle" x="474" y="-628.5" font-family="Helvetica,sans-Serif" font-size="10.00" fill="#000000">+module_map</text>
</g>
<!-- Node12&#45;&gt;Node5 -->
<g id="edge10" class="edge">
<title>Node12&#45;&gt;Node5</title>
<path fill="none" stroke="#404040" d="M470.2281,-842.2342C465.2166,-837.9304 459.7278,-833.9536 454,-831 416.5816,-811.7047 391.5967,-841.9186 361,-813 330.6825,-784.3453 352.9303,-760.9529 338,-722 337.1089,-719.675 336.1698,-717.3322 335.1913,-714.9814"/>
<polygon fill="none" stroke="#404040" points="335.177,-714.9487 329.1038,-711.0607 330.3568,-703.9593 336.43,-707.8473 335.177,-714.9487"/>
<text text-anchor="middle" x="391" y="-765" font-family="Helvetica,sans-Serif" font-size="10.00" fill="#000000"> +_node_map</text>
</g>
<!-- Node13 -->
<g id="node12" class="node">
<title>Node13</title>
<polygon fill="#ffffff" stroke="#bfbfbf" points="324.5,-831.5 324.5,-910.5 445.5,-910.5 445.5,-831.5 324.5,-831.5"/>
<text text-anchor="start" x="332.5" y="-898.5" font-family="Helvetica,sans-Serif" font-size="10.00" fill="#000000">std::vector&lt; py::set</text>
<text text-anchor="start" x="332.5" y="-887.5" font-family="Helvetica,sans-Serif" font-size="10.00" fill="#000000">&lt; typename nodeview_t</text>
<text text-anchor="middle" x="385" y="-876.5" font-family="Helvetica,sans-Serif" font-size="10.00" fill="#000000">::value_type &gt; &gt;</text>
<polyline fill="none" stroke="#bfbfbf" points="324.5,-869.5 445.5,-869.5 "/>
<text text-anchor="middle" x="385" y="-857.5" font-family="Helvetica,sans-Serif" font-size="10.00" fill="#000000"> </text>
<polyline fill="none" stroke="#bfbfbf" points="324.5,-850.5 445.5,-850.5 "/>
<text text-anchor="middle" x="385" y="-838.5" font-family="Helvetica,sans-Serif" font-size="10.00" fill="#000000"> </text>
</g>
<!-- Node13&#45;&gt;Node5 -->
<g id="edge12" class="edge">
<title>Node13&#45;&gt;Node5</title>
<path fill="none" stroke="#404040" d="M324.4818,-832.0522C318.8401,-826.2798 313.8175,-819.9174 310,-813 293.9802,-783.9715 288.4309,-748.1277 287.3775,-716.3414"/>
<polygon fill="none" stroke="#404040" points="287.3709,-715.9215 283.2768,-709.9853 287.1816,-703.923 291.2758,-709.8591 287.3709,-715.9215"/>
<text text-anchor="middle" x="324" y="-765" font-family="Helvetica,sans-Serif" font-size="10.00" fill="#000000"> +_adj</text>
</g>
<!-- Node14 -->
<g id="node13" class="node">
<title>Node14</title>
<g id="a_node13"><a xlink:href="classpy_1_1set.html" target="_top" xlink:title="{py::set\&lt; typename nodeview\l_t::value_type \&gt;\n||+ set()\l+ set()\l+ operator=()\l&#45; set()\l}">
<polygon fill="#ffffff" stroke="#000000" points="313.5,-1049.5 313.5,-1150.5 456.5,-1150.5 456.5,-1049.5 313.5,-1049.5"/>
<text text-anchor="start" x="321.5" y="-1138.5" font-family="Helvetica,sans-Serif" font-size="10.00" fill="#000000">py::set&lt; typename nodeview</text>
<text text-anchor="middle" x="385" y="-1127.5" font-family="Helvetica,sans-Serif" font-size="10.00" fill="#000000">_t::value_type &gt;</text>
<polyline fill="none" stroke="#000000" points="313.5,-1120.5 456.5,-1120.5 "/>
<text text-anchor="middle" x="385" y="-1108.5" font-family="Helvetica,sans-Serif" font-size="10.00" fill="#000000"> </text>
<polyline fill="none" stroke="#000000" points="313.5,-1101.5 456.5,-1101.5 "/>
<text text-anchor="start" x="321.5" y="-1089.5" font-family="Helvetica,sans-Serif" font-size="10.00" fill="#000000">+ set()</text>
<text text-anchor="start" x="321.5" y="-1078.5" font-family="Helvetica,sans-Serif" font-size="10.00" fill="#000000">+ set()</text>
<text text-anchor="start" x="321.5" y="-1067.5" font-family="Helvetica,sans-Serif" font-size="10.00" fill="#000000">+ operator=()</text>
<text text-anchor="start" x="321.5" y="-1056.5" font-family="Helvetica,sans-Serif" font-size="10.00" fill="#000000">&#45; set()</text>
</a>
</g>
</g>
<!-- Node14&#45;&gt;Node13 -->
<g id="edge13" class="edge">
<title>Node14&#45;&gt;Node13</title>
<path fill="none" stroke="#404040" d="M385,-1049.4615C385,-1011.9484 385,-960.949 385,-923.0745"/>
<polygon fill="none" stroke="#404040" points="385.0001,-922.7717 381,-916.7718 385,-910.7717 389,-916.7717 385.0001,-922.7717"/>
<text text-anchor="middle" x="409.5" y="-977.5" font-family="Helvetica,sans-Serif" font-size="10.00" fill="#000000"> +elements</text>
</g>
<!-- Node15&#45;&gt;Node14 -->
<g id="edge14" class="edge">
<title>Node15&#45;&gt;Node14</title>
<path fill="none" stroke="#191970" d="M385,-1178.1972C385,-1169.1496 385,-1159.7033 385,-1150.6321"/>
<polygon fill="none" stroke="#191970" points="381.5001,-1178.2016 385,-1188.2016 388.5001,-1178.2017 381.5001,-1178.2016"/>
</g>
<!-- Node16 -->
<g id="node15" class="node">
<title>Node16</title>
<g id="a_node15"><a xlink:href="classpy_1_1set.html" target="_top" xlink:title="{py::set\&lt; node_t \&gt;\n||+ set()\l+ set()\l+ operator=()\l&#45; set()\l}">
<polygon fill="#ffffff" stroke="#000000" points="584,-935 584,-1025 678,-1025 678,-935 584,-935"/>
<text text-anchor="middle" x="631" y="-1013" font-family="Helvetica,sans-Serif" font-size="10.00" fill="#000000">py::set&lt; node_t &gt;</text>
<polyline fill="none" stroke="#000000" points="584,-1006 678,-1006 "/>
<text text-anchor="middle" x="631" y="-994" font-family="Helvetica,sans-Serif" font-size="10.00" fill="#000000"> </text>
<polyline fill="none" stroke="#000000" points="584,-987 678,-987 "/>
<text text-anchor="start" x="592" y="-975" font-family="Helvetica,sans-Serif" font-size="10.00" fill="#000000">+ set()</text>
<text text-anchor="start" x="592" y="-964" font-family="Helvetica,sans-Serif" font-size="10.00" fill="#000000">+ set()</text>
<text text-anchor="start" x="592" y="-953" font-family="Helvetica,sans-Serif" font-size="10.00" fill="#000000">+ operator=()</text>
<text text-anchor="start" x="592" y="-942" font-family="Helvetica,sans-Serif" font-size="10.00" fill="#000000">&#45; set()</text>
</a>
</g>
</g>
<!-- Node16&#45;&gt;Node4 -->
<g id="edge17" class="edge">
<title>Node16&#45;&gt;Node4</title>
<path fill="none" stroke="#404040" d="M635.6561,-934.8682C641.956,-857.4055 647.6818,-695.2925 602,-569 590.5238,-537.2727 571.0129,-506.2347 551.1253,-479.8471"/>
<polygon fill="none" stroke="#404040" points="551.124,-479.8454 544.2923,-477.5371 543.7954,-470.3431 550.6271,-472.6514 551.124,-479.8454"/>
<text text-anchor="middle" x="673.5" y="-765" font-family="Helvetica,sans-Serif" font-size="10.00" fill="#000000"> +module_fixed</text>
</g>
<!-- Node17&#45;&gt;Node16 -->
<g id="edge18" class="edge">
<title>Node17&#45;&gt;Node16</title>
<path fill="none" stroke="#191970" d="M630.1794,-1183.5047C630.3598,-1138.7786 630.6363,-1070.1897 630.8177,-1025.211"/>
<polygon fill="none" stroke="#191970" points="626.6784,-1183.763 630.138,-1193.777 633.6784,-1183.7913 626.6784,-1183.763"/>
</g>
<!-- Node18 -->
<g id="node17" class="node">
<title>Node18</title>
<g id="a_node17"><a xlink:href="classpy_1_1dict.html" target="_top" xlink:title="{py::dict\&lt; node_t, index_t \&gt;\n||+ dict()\l+ dict()\l+ operator=()\l&#45; dict()\l}">
<polygon fill="#ffffff" stroke="#000000" points="470,-722.5 470,-812.5 604,-812.5 604,-722.5 470,-722.5"/>
<text text-anchor="middle" x="537" y="-800.5" font-family="Helvetica,sans-Serif" font-size="10.00" fill="#000000">py::dict&lt; node_t, index_t &gt;</text>
<polyline fill="none" stroke="#000000" points="470,-793.5 604,-793.5 "/>
<text text-anchor="middle" x="537" y="-781.5" font-family="Helvetica,sans-Serif" font-size="10.00" fill="#000000"> </text>
<polyline fill="none" stroke="#000000" points="470,-774.5 604,-774.5 "/>
<text text-anchor="start" x="478" y="-762.5" font-family="Helvetica,sans-Serif" font-size="10.00" fill="#000000">+ dict()</text>
<text text-anchor="start" x="478" y="-751.5" font-family="Helvetica,sans-Serif" font-size="10.00" fill="#000000">+ dict()</text>
<text text-anchor="start" x="478" y="-740.5" font-family="Helvetica,sans-Serif" font-size="10.00" fill="#000000">+ operator=()</text>
<text text-anchor="start" x="478" y="-729.5" font-family="Helvetica,sans-Serif" font-size="10.00" fill="#000000">&#45; dict()</text>
</a>
</g>
</g>
<!-- Node18&#45;&gt;Node4 -->
<g id="edge20" class="edge">
<title>Node18&#45;&gt;Node4</title>
<path fill="none" stroke="#404040" d="M530.3947,-722.3221C523.1304,-672.6374 511.166,-590.805 501.2067,-522.6873"/>
<polygon fill="none" stroke="#404040" points="501.172,-522.4496 496.3461,-517.0915 499.4359,-510.5759 504.2619,-515.9341 501.172,-522.4496"/>
<text text-anchor="middle" x="563" y="-634" font-family="Helvetica,sans-Serif" font-size="10.00" fill="#000000"> +node_up_map</text>
</g>
<!-- Node19&#45;&gt;Node18 -->
<g id="edge21" class="edge">
<title>Node19&#45;&gt;Node18</title>
<path fill="none" stroke="#191970" d="M515.782,-1183.7323C522.1312,-1122.5198 533.007,-1008.5317 537,-911 538.3452,-878.1421 538.3032,-841.0167 537.9468,-812.7605"/>
<polygon fill="none" stroke="#191970" points="512.287,-1183.5028 514.7277,-1193.8126 519.249,-1184.231 512.287,-1183.5028"/>
</g>
<!-- Node20 -->
<g id="node19" class="node">
<title>Node20</title>
<g id="a_node19"><a xlink:href="classpy_1_1dict.html" target="_top" xlink:title="{py::dict\&lt; index_t,\l node_t \&gt;\n||+ dict()\l+ dict()\l+ operator=()\l&#45; dict()\l}">
<polygon fill="#ffffff" stroke="#000000" points="0,-929.5 0,-1030.5 92,-1030.5 92,-929.5 0,-929.5"/>
<text text-anchor="start" x="8" y="-1018.5" font-family="Helvetica,sans-Serif" font-size="10.00" fill="#000000">py::dict&lt; index_t,</text>
<text text-anchor="middle" x="46" y="-1007.5" font-family="Helvetica,sans-Serif" font-size="10.00" fill="#000000"> node_t &gt;</text>
<polyline fill="none" stroke="#000000" points="0,-1000.5 92,-1000.5 "/>
<text text-anchor="middle" x="46" y="-988.5" font-family="Helvetica,sans-Serif" font-size="10.00" fill="#000000"> </text>
<polyline fill="none" stroke="#000000" points="0,-981.5 92,-981.5 "/>
<text text-anchor="start" x="8" y="-969.5" font-family="Helvetica,sans-Serif" font-size="10.00" fill="#000000">+ dict()</text>
<text text-anchor="start" x="8" y="-958.5" font-family="Helvetica,sans-Serif" font-size="10.00" fill="#000000">+ dict()</text>
<text text-anchor="start" x="8" y="-947.5" font-family="Helvetica,sans-Serif" font-size="10.00" fill="#000000">+ operator=()</text>
<text text-anchor="start" x="8" y="-936.5" font-family="Helvetica,sans-Serif" font-size="10.00" fill="#000000">&#45; dict()</text>
</a>
</g>
</g>
<!-- Node20&#45;&gt;Node4 -->
<g id="edge24" class="edge">
<title>Node20&#45;&gt;Node4</title>
<path fill="none" stroke="#404040" d="M31.9263,-929.4333C19.5938,-876.5959 6.5543,-791.8273 27,-722 49.6921,-644.5006 66.3052,-624.4618 125,-569 207.6653,-490.888 334.0491,-445.1248 412.7113,-422.5989"/>
<polygon fill="none" stroke="#404040" points="412.8813,-422.5513 417.5789,-417.0803 424.4359,-419.3123 419.7383,-424.7833 412.8813,-422.5513"/>
<text text-anchor="middle" x="72.5" y="-770.5" font-family="Helvetica,sans-Serif" font-size="10.00" fill="#000000"> +cluster_down_map</text>
<text text-anchor="middle" x="72.5" y="-759.5" font-family="Helvetica,sans-Serif" font-size="10.00" fill="#000000">+node_down_map</text>
</g>
<!-- Node21&#45;&gt;Node20 -->
<g id="edge25" class="edge">
<title>Node21&#45;&gt;Node20</title>
<path fill="none" stroke="#191970" d="M106.9208,-1184.1669C94.1016,-1141.2054 74.5772,-1075.7724 61.1036,-1030.6176"/>
<polygon fill="none" stroke="#191970" points="103.5751,-1185.1953 109.7883,-1193.777 110.2828,-1183.1937 103.5751,-1185.1953"/>
</g>
<!-- Node22 -->
<g id="node21" class="node">
<title>Node22</title>
<polygon fill="#ffffff" stroke="#bfbfbf" points="684,-608 684,-665 776,-665 776,-608 684,-608"/>
<text text-anchor="middle" x="730" y="-653" font-family="Helvetica,sans-Serif" font-size="10.00" fill="#000000">std::vector&lt; int &gt;</text>
<polyline fill="none" stroke="#bfbfbf" points="684,-646 776,-646 "/>
<text text-anchor="start" x="692" y="-634" font-family="Helvetica,sans-Serif" font-size="10.00" fill="#000000">+ elements</text>
<polyline fill="none" stroke="#bfbfbf" points="684,-627 776,-627 "/>
<text text-anchor="middle" x="730" y="-615" font-family="Helvetica,sans-Serif" font-size="10.00" fill="#000000"> </text>
</g>
<!-- Node22&#45;&gt;Node3 -->
<g id="edge30" class="edge">
<title>Node22&#45;&gt;Node3</title>
<path fill="none" stroke="#404040" d="M736.2862,-607.5964C740.0787,-585.8645 743.4029,-555.4173 739,-529 723.3446,-435.0675 685.5795,-332.5549 656.5617,-262.8993"/>
<polygon fill="none" stroke="#404040" points="656.4531,-262.6408 650.4403,-258.6601 651.8021,-251.5788 657.815,-255.5595 656.4531,-262.6408"/>
<text text-anchor="middle" x="746" y="-402.5" font-family="Helvetica,sans-Serif" font-size="10.00" fill="#000000"> #diff</text>
</g>
<!-- Node22&#45;&gt;Node4 -->
<g id="edge29" class="edge">
<title>Node22&#45;&gt;Node4</title>
<path fill="none" stroke="#404040" d="M709.1531,-607.6624C692.2398,-585.1421 667.1547,-553.6424 642,-529 614.8164,-502.3699 582.0959,-475.9099 553.4994,-454.3145"/>
<polygon fill="none" stroke="#404040" points="553.1804,-454.0758 545.9799,-453.6839 543.5723,-446.8865 550.7728,-447.2785 553.1804,-454.0758"/>
<text text-anchor="middle" x="697.5" y="-543" font-family="Helvetica,sans-Serif" font-size="10.00" fill="#000000"> +module_weight</text>
<text text-anchor="middle" x="697.5" y="-532" font-family="Helvetica,sans-Serif" font-size="10.00" fill="#000000">+net_weight</text>
</g>
</g>
</svg>
        <g id="navigator" transform="translate(0 0)" fill="#404254">
                <rect fill="#f2f5e9" fill-opacity="0.5" stroke="#606060" stroke-width=".5" x="0" y="0" width="60" height="60"/>
                <use id="zoomplus" xlink:href="#zoomPlus" x="17" y="9" onmousedown="handleZoom(evt,'in')"/>
                <use id="zoomminus" xlink:href="#zoomMin" x="42" y="9" onmousedown="handleZoom(evt,'out')"/>
                <use id="reset" xlink:href="#resetDef" x="30" y="36" onmousedown="handleReset()"/>
                <g id="arrowUp" xlink:href="#dirArrow" transform="translate(30 24)" onmousedown="handlePan(0,-1)">
                  <use xlink:href="#rim" fill="#404040">
                        <set attributeName="fill" to="#808080" begin="arrowUp.mouseover" end="arrowUp.mouseout"/>
                  </use>
                  <path fill="none" stroke="white" stroke-width="1.5" d="M0,-3.0v7 M-2.5,-0.5L0,-3.0L2.5,-0.5"/>
                </g>
                <g id="arrowRight" xlink:href="#dirArrow" transform="rotate(90) translate(36 -43)" onmousedown="handlePan(1,0)">
                  <use xlink:href="#rim" fill="#404040">
                        <set attributeName="fill" to="#808080" begin="arrowRight.mouseover" end="arrowRight.mouseout"/>
                  </use>
                  <path fill="none" stroke="white" stroke-width="1.5" d="M0,-3.0v7 M-2.5,-0.5L0,-3.0L2.5,-0.5"/>
                </g>
                <g id="arrowDown" xlink:href="#dirArrow" transform="rotate(180) translate(-30 -48)" onmousedown="handlePan(0,1)">
                  <use xlink:href="#rim" fill="#404040">
                        <set attributeName="fill" to="#808080" begin="arrowDown.mouseover" end="arrowDown.mouseout"/>
                  </use>
                  <path fill="none" stroke="white" stroke-width="1.5" d="M0,-3.0v7 M-2.5,-0.5L0,-3.0L2.5,-0.5"/>
                </g>
                <g id="arrowLeft" xlink:href="#dirArrow" transform="rotate(270) translate(-36 17)" onmousedown="handlePan(-1,0)">
                  <use xlink:href="#rim" fill="#404040">
                        <set attributeName="fill" to="#808080" begin="arrowLeft.mouseover" end="arrowLeft.mouseout"/>
                  </use>
                  <path fill="none" stroke="white" stroke-width="1.5" d="M0,-3.0v7 M-2.5,-0.5L0,-3.0L2.5,-0.5"/>
                </g>
        </g>
        <svg viewBox="0 0 15 15" width="100%" height="30px" preserveAspectRatio="xMaxYMin meet">
         <g id="arrow_out" transform="scale(0.3 0.3)">
          <a xlink:href="structFMBiConstrMgr__coll__graph_org.svg" target="_base">
           <rect id="button" ry="5" rx="5" y="6" x="6" height="38" width="38"
                fill="#f2f5e9" fill-opacity="0.5" stroke="#606060" stroke-width="1.0"/>
           <path id="arrow"
             d="M 11.500037,31.436501 C 11.940474,20.09759 22.043105,11.32322 32.158766,21.979434 L 37.068811,17.246167 C 37.068811,17.246167 37.088388,32 37.088388,32 L 22.160133,31.978069 C 22.160133,31.978069 26.997745,27.140456 26.997745,27.140456 C 18.528582,18.264221 13.291696,25.230495 11.500037,31.436501 z"
             style="fill:#404040;"/>
          </a>
         </g>
        </svg>
</svg>
