<?xml version="1.0" encoding="UTF-8" standalone="no"?>
<!DOCTYPE svg PUBLIC "-//W3C//DTD SVG 1.1//EN"
 "http://www.w3.org/Graphics/SVG/1.1/DTD/svg11.dtd">
<!-- Generated by graphviz version 2.40.1 (20161225.0304)
 -->
<!-- Title: xn::object Pages: 1 -->
<svg width="255pt" height="877pt"
 viewBox="0.00 0.00 255.00 877.00" xmlns="http://www.w3.org/2000/svg" xmlns:xlink="http://www.w3.org/1999/xlink">
<g id="graph0" class="graph" transform="scale(1 1) rotate(0) translate(4 873)">
<title>xn::object</title>
<polygon fill="#ffffff" stroke="transparent" points="-4,4 -4,-873 251,-873 251,4 -4,4"/>
<!-- Node0 -->
<g id="node1" class="node">
<title>Node0</title>
<polygon fill="#bfbfbf" stroke="#000000" points="89.5,-546.5 89.5,-603.5 148.5,-603.5 148.5,-546.5 89.5,-546.5"/>
<text text-anchor="middle" x="119" y="-591.5" font-family="Helvetica,sans-Serif" font-size="10.00" fill="#000000">xn::object</text>
<polyline fill="none" stroke="#000000" points="89.5,-584.5 148.5,-584.5 "/>
<text text-anchor="middle" x="119" y="-572.5" font-family="Helvetica,sans-Serif" font-size="10.00" fill="#000000"> </text>
<polyline fill="none" stroke="#000000" points="89.5,-565.5 148.5,-565.5 "/>
<text text-anchor="middle" x="119" y="-553.5" font-family="Helvetica,sans-Serif" font-size="10.00" fill="#000000"> </text>
</g>
<!-- Node3 -->
<g id="node4" class="node">
<title>Node3</title>
<g id="a_node4"><a xlink:href="classxn_1_1Graph.html" target="_top" xlink:title="{xn::Graph\&lt; nodeview\l_t, nodemap_t \&gt;\n|+ _node\l+ _node_map\l+ graph\l+ _adj\l|+ Graph()\l+ Graph()\l+ adj()\l+ get_name()\l+ set_name()\l+ begin()\land 13 more...\l}">
<polygon fill="#ffffff" stroke="#000000" points="0,-337 0,-504 110,-504 110,-337 0,-337"/>
<text text-anchor="start" x="8" y="-492" font-family="Helvetica,sans-Serif" font-size="10.00" fill="#000000">xn::Graph&lt; nodeview</text>
<text text-anchor="middle" x="55" y="-481" font-family="Helvetica,sans-Serif" font-size="10.00" fill="#000000">_t, nodemap_t &gt;</text>
<polyline fill="none" stroke="#000000" points="0,-474 110,-474 "/>
<text text-anchor="start" x="8" y="-462" font-family="Helvetica,sans-Serif" font-size="10.00" fill="#000000">+ _node</text>
<text text-anchor="start" x="8" y="-451" font-family="Helvetica,sans-Serif" font-size="10.00" fill="#000000">+ _node_map</text>
<text text-anchor="start" x="8" y="-440" font-family="Helvetica,sans-Serif" font-size="10.00" fill="#000000">+ graph</text>
<text text-anchor="start" x="8" y="-429" font-family="Helvetica,sans-Serif" font-size="10.00" fill="#000000">+ _adj</text>
<polyline fill="none" stroke="#000000" points="0,-422 110,-422 "/>
<text text-anchor="start" x="8" y="-410" font-family="Helvetica,sans-Serif" font-size="10.00" fill="#000000">+ Graph()</text>
<text text-anchor="start" x="8" y="-399" font-family="Helvetica,sans-Serif" font-size="10.00" fill="#000000">+ Graph()</text>
<text text-anchor="start" x="8" y="-388" font-family="Helvetica,sans-Serif" font-size="10.00" fill="#000000">+ adj()</text>
<text text-anchor="start" x="8" y="-377" font-family="Helvetica,sans-Serif" font-size="10.00" fill="#000000">+ get_name()</text>
<text text-anchor="start" x="8" y="-366" font-family="Helvetica,sans-Serif" font-size="10.00" fill="#000000">+ set_name()</text>
<text text-anchor="start" x="8" y="-355" font-family="Helvetica,sans-Serif" font-size="10.00" fill="#000000">+ begin()</text>
<text text-anchor="start" x="8" y="-344" font-family="Helvetica,sans-Serif" font-size="10.00" fill="#000000">and 13 more...</text>
</a>
</g>
</g>
<!-- Node0&#45;&gt;Node3 -->
<g id="edge3" class="edge">
<title>Node0&#45;&gt;Node3</title>
<path fill="none" stroke="#191970" d="M103.2794,-537.0494C99.1065,-526.9758 94.4302,-515.687 89.6746,-504.2066"/>
<polygon fill="none" stroke="#191970" points="100.0514,-538.4026 107.1121,-546.3018 106.5185,-535.7236 100.0514,-538.4026"/>
</g>
<!-- Node4 -->
<g id="node5" class="node">
<title>Node4</title>
<g id="a_node5"><a xlink:href="classxn_1_1Graph.html" target="_top" xlink:title="{xn::Graph\&lt; nodeview\l_t, nodemap_t, adjlist\l_inner_dict_factory \&gt;\n|+ _node\l+ _node_map\l+ graph\l+ _adj\l|+ Graph()\l+ Graph()\l+ adj()\l+ get_name()\l+ set_name()\l+ begin()\land 13 more...\l}">
<polygon fill="#ffffff" stroke="#000000" points="128,-331.5 128,-509.5 238,-509.5 238,-331.5 128,-331.5"/>
<text text-anchor="start" x="136" y="-497.5" font-family="Helvetica,sans-Serif" font-size="10.00" fill="#000000">xn::Graph&lt; nodeview</text>
<text text-anchor="start" x="136" y="-486.5" font-family="Helvetica,sans-Serif" font-size="10.00" fill="#000000">_t, nodemap_t, adjlist</text>
<text text-anchor="middle" x="183" y="-475.5" font-family="Helvetica,sans-Serif" font-size="10.00" fill="#000000">_inner_dict_factory &gt;</text>
<polyline fill="none" stroke="#000000" points="128,-468.5 238,-468.5 "/>
<text text-anchor="start" x="136" y="-456.5" font-family="Helvetica,sans-Serif" font-size="10.00" fill="#000000">+ _node</text>
<text text-anchor="start" x="136" y="-445.5" font-family="Helvetica,sans-Serif" font-size="10.00" fill="#000000">+ _node_map</text>
<text text-anchor="start" x="136" y="-434.5" font-family="Helvetica,sans-Serif" font-size="10.00" fill="#000000">+ graph</text>
<text text-anchor="start" x="136" y="-423.5" font-family="Helvetica,sans-Serif" font-size="10.00" fill="#000000">+ _adj</text>
<polyline fill="none" stroke="#000000" points="128,-416.5 238,-416.5 "/>
<text text-anchor="start" x="136" y="-404.5" font-family="Helvetica,sans-Serif" font-size="10.00" fill="#000000">+ Graph()</text>
<text text-anchor="start" x="136" y="-393.5" font-family="Helvetica,sans-Serif" font-size="10.00" fill="#000000">+ Graph()</text>
<text text-anchor="start" x="136" y="-382.5" font-family="Helvetica,sans-Serif" font-size="10.00" fill="#000000">+ adj()</text>
<text text-anchor="start" x="136" y="-371.5" font-family="Helvetica,sans-Serif" font-size="10.00" fill="#000000">+ get_name()</text>
<text text-anchor="start" x="136" y="-360.5" font-family="Helvetica,sans-Serif" font-size="10.00" fill="#000000">+ set_name()</text>
<text text-anchor="start" x="136" y="-349.5" font-family="Helvetica,sans-Serif" font-size="10.00" fill="#000000">+ begin()</text>
<text text-anchor="start" x="136" y="-338.5" font-family="Helvetica,sans-Serif" font-size="10.00" fill="#000000">and 13 more...</text>
</a>
</g>
</g>
<!-- Node0&#45;&gt;Node4 -->
<g id="edge4" class="edge">
<title>Node0&#45;&gt;Node4</title>
<path fill="none" stroke="#191970" d="M134.7977,-536.8633C138.2766,-528.465 142.1026,-519.229 146.0309,-509.7458"/>
<polygon fill="none" stroke="#191970" points="131.4815,-535.7236 130.8879,-546.3018 137.9486,-538.4026 131.4815,-535.7236"/>
</g>
<!-- Node1 -->
<g id="node2" class="node">
<title>Node1</title>
<g id="a_node2"><a xlink:href="classpy_1_1dict.html" target="_top" xlink:title="{py::dict\&lt; const char\l *, std::any \&gt;\n||+ dict()\l+ dict()\l+ operator=()\l&#45; dict()\l}">
<polygon fill="#ffffff" stroke="#000000" points="67,-640.5 67,-741.5 171,-741.5 171,-640.5 67,-640.5"/>
<text text-anchor="start" x="75" y="-729.5" font-family="Helvetica,sans-Serif" font-size="10.00" fill="#000000">py::dict&lt; const char</text>
<text text-anchor="middle" x="119" y="-718.5" font-family="Helvetica,sans-Serif" font-size="10.00" fill="#000000"> *, std::any &gt;</text>
<polyline fill="none" stroke="#000000" points="67,-711.5 171,-711.5 "/>
<text text-anchor="middle" x="119" y="-699.5" font-family="Helvetica,sans-Serif" font-size="10.00" fill="#000000"> </text>
<polyline fill="none" stroke="#000000" points="67,-692.5 171,-692.5 "/>
<text text-anchor="start" x="75" y="-680.5" font-family="Helvetica,sans-Serif" font-size="10.00" fill="#000000">+ dict()</text>
<text text-anchor="start" x="75" y="-669.5" font-family="Helvetica,sans-Serif" font-size="10.00" fill="#000000">+ dict()</text>
<text text-anchor="start" x="75" y="-658.5" font-family="Helvetica,sans-Serif" font-size="10.00" fill="#000000">+ operator=()</text>
<text text-anchor="start" x="75" y="-647.5" font-family="Helvetica,sans-Serif" font-size="10.00" fill="#000000">&#45; dict()</text>
</a>
</g>
</g>
<!-- Node1&#45;&gt;Node0 -->
<g id="edge1" class="edge">
<title>Node1&#45;&gt;Node0</title>
<path fill="none" stroke="#191970" d="M119,-630.3804C119,-621.0838 119,-611.8771 119,-603.7184"/>
<polygon fill="none" stroke="#191970" points="115.5001,-630.4581 119,-640.4582 122.5001,-630.4582 115.5001,-630.4581"/>
</g>
<!-- Node2 -->
<g id="node3" class="node">
<title>Node2</title>
<g id="a_node3"><a xlink:title="STL class. ">
<polygon fill="#ffffff" stroke="#bfbfbf" points="67.5,-778.5 67.5,-868.5 170.5,-868.5 170.5,-778.5 67.5,-778.5"/>
<text text-anchor="start" x="75.5" y="-856.5" font-family="Helvetica,sans-Serif" font-size="10.00" fill="#000000">std::unordered_map</text>
<text text-anchor="start" x="75.5" y="-845.5" font-family="Helvetica,sans-Serif" font-size="10.00" fill="#000000">&lt; const char *, std</text>
<text text-anchor="middle" x="119" y="-834.5" font-family="Helvetica,sans-Serif" font-size="10.00" fill="#000000">::any &gt;</text>
<polyline fill="none" stroke="#bfbfbf" points="67.5,-827.5 170.5,-827.5 "/>
<text text-anchor="start" x="75.5" y="-815.5" font-family="Helvetica,sans-Serif" font-size="10.00" fill="#000000">+ keys</text>
<text text-anchor="start" x="75.5" y="-804.5" font-family="Helvetica,sans-Serif" font-size="10.00" fill="#000000">+ elements</text>
<polyline fill="none" stroke="#bfbfbf" points="67.5,-797.5 170.5,-797.5 "/>
<text text-anchor="middle" x="119" y="-785.5" font-family="Helvetica,sans-Serif" font-size="10.00" fill="#000000"> </text>
</a>
</g>
</g>
<!-- Node2&#45;&gt;Node1 -->
<g id="edge2" class="edge">
<title>Node2&#45;&gt;Node1</title>
<path fill="none" stroke="#191970" d="M119,-768.2098C119,-759.5051 119,-750.5409 119,-741.9407"/>
<polygon fill="none" stroke="#191970" points="115.5001,-768.2716 119,-778.2716 122.5001,-768.2716 115.5001,-768.2716"/>
</g>
<!-- Node5 -->
<g id="node6" class="node">
<title>Node5</title>
<g id="a_node6"><a xlink:href="classxn_1_1VertexView.html" target="_top" xlink:title="{xn::VertexView\&lt; Graph \&gt;\n||+ VertexView()\l+ begin()\l+ end()\l+ cbegin()\l+ cend()\l}">
<polygon fill="#ffffff" stroke="#000000" points="119,-193.5 119,-294.5 247,-294.5 247,-193.5 119,-193.5"/>
<text text-anchor="middle" x="183" y="-282.5" font-family="Helvetica,sans-Serif" font-size="10.00" fill="#000000">xn::VertexView&lt; Graph &gt;</text>
<polyline fill="none" stroke="#000000" points="119,-275.5 247,-275.5 "/>
<text text-anchor="middle" x="183" y="-263.5" font-family="Helvetica,sans-Serif" font-size="10.00" fill="#000000"> </text>
<polyline fill="none" stroke="#000000" points="119,-256.5 247,-256.5 "/>
<text text-anchor="start" x="127" y="-244.5" font-family="Helvetica,sans-Serif" font-size="10.00" fill="#000000">+ VertexView()</text>
<text text-anchor="start" x="127" y="-233.5" font-family="Helvetica,sans-Serif" font-size="10.00" fill="#000000">+ begin()</text>
<text text-anchor="start" x="127" y="-222.5" font-family="Helvetica,sans-Serif" font-size="10.00" fill="#000000">+ end()</text>
<text text-anchor="start" x="127" y="-211.5" font-family="Helvetica,sans-Serif" font-size="10.00" fill="#000000">+ cbegin()</text>
<text text-anchor="start" x="127" y="-200.5" font-family="Helvetica,sans-Serif" font-size="10.00" fill="#000000">+ cend()</text>
</a>
</g>
</g>
<!-- Node4&#45;&gt;Node5 -->
<g id="edge5" class="edge">
<title>Node4&#45;&gt;Node5</title>
<path fill="none" stroke="#191970" d="M183,-321.3944C183,-312.1453 183,-303.0577 183,-294.5464"/>
<polygon fill="none" stroke="#191970" points="179.5001,-321.4743 183,-331.4744 186.5001,-321.4744 179.5001,-321.4743"/>
</g>
<!-- Node6 -->
<g id="node7" class="node">
<title>Node6</title>
<g id="a_node7"><a xlink:href="classxn_1_1grAdaptor.html" target="_top" xlink:title="{xn::grAdaptor\&lt; Graph \&gt;\n||+ grAdaptor()\l+ grAdaptor()\l+ number_of_edges()\l+ edges()\l+ neighbors()\l+ add_edge()\l+ source()\l+ target()\l+ end_points()\l+ null_vertex()\l}">
<polygon fill="#ffffff" stroke="#000000" points="123.5,-.5 123.5,-156.5 242.5,-156.5 242.5,-.5 123.5,-.5"/>
<text text-anchor="middle" x="183" y="-144.5" font-family="Helvetica,sans-Serif" font-size="10.00" fill="#000000">xn::grAdaptor&lt; Graph &gt;</text>
<polyline fill="none" stroke="#000000" points="123.5,-137.5 242.5,-137.5 "/>
<text text-anchor="middle" x="183" y="-125.5" font-family="Helvetica,sans-Serif" font-size="10.00" fill="#000000"> </text>
<polyline fill="none" stroke="#000000" points="123.5,-118.5 242.5,-118.5 "/>
<text text-anchor="start" x="131.5" y="-106.5" font-family="Helvetica,sans-Serif" font-size="10.00" fill="#000000">+ grAdaptor()</text>
<text text-anchor="start" x="131.5" y="-95.5" font-family="Helvetica,sans-Serif" font-size="10.00" fill="#000000">+ grAdaptor()</text>
<text text-anchor="start" x="131.5" y="-84.5" font-family="Helvetica,sans-Serif" font-size="10.00" fill="#000000">+ number_of_edges()</text>
<text text-anchor="start" x="131.5" y="-73.5" font-family="Helvetica,sans-Serif" font-size="10.00" fill="#000000">+ edges()</text>
<text text-anchor="start" x="131.5" y="-62.5" font-family="Helvetica,sans-Serif" font-size="10.00" fill="#000000">+ neighbors()</text>
<text text-anchor="start" x="131.5" y="-51.5" font-family="Helvetica,sans-Serif" font-size="10.00" fill="#000000">+ add_edge()</text>
<text text-anchor="start" x="131.5" y="-40.5" font-family="Helvetica,sans-Serif" font-size="10.00" fill="#000000">+ source()</text>
<text text-anchor="start" x="131.5" y="-29.5" font-family="Helvetica,sans-Serif" font-size="10.00" fill="#000000">+ target()</text>
<text text-anchor="start" x="131.5" y="-18.5" font-family="Helvetica,sans-Serif" font-size="10.00" fill="#000000">+ end_points()</text>
<text text-anchor="start" x="131.5" y="-7.5" font-family="Helvetica,sans-Serif" font-size="10.00" fill="#000000">+ null_vertex()</text>
</a>
</g>
</g>
<!-- Node5&#45;&gt;Node6 -->
<g id="edge6" class="edge">
<title>Node5&#45;&gt;Node6</title>
<path fill="none" stroke="#191970" d="M183,-183.1651C183,-174.5768 183,-165.649 183,-156.7897"/>
<polygon fill="none" stroke="#191970" points="179.5001,-183.4452 183,-193.4453 186.5001,-183.4453 179.5001,-183.4452"/>
</g>
</g>
</svg>
