<?xml version="1.0" encoding="UTF-8" standalone="no"?>
<!DOCTYPE svg PUBLIC "-//W3C//DTD SVG 1.1//EN"
 "http://www.w3.org/Graphics/SVG/1.1/DTD/svg11.dtd">
<!-- Generated by graphviz version 2.40.1 (20161225.0304)
 -->
<!-- Title: FMBiGainMgr::lock_all Pages: 1 -->
<svg width="434pt" height="28pt"
 viewBox="0.00 0.00 434.00 28.00" xmlns="http://www.w3.org/2000/svg" xmlns:xlink="http://www.w3.org/1999/xlink">
<g id="graph0" class="graph" transform="scale(1 1) rotate(0) translate(4 24)">
<title>FMBiGainMgr::lock_all</title>
<polygon fill="#ffffff" stroke="transparent" points="-4,4 -4,-24 430,-24 430,4 -4,4"/>
<!-- Node26 -->
<g id="node1" class="node">
<title>Node26</title>
<polygon fill="#bfbfbf" stroke="#000000" points="0,-.5 0,-19.5 116,-19.5 116,-.5 0,-.5"/>
<text text-anchor="middle" x="58" y="-7.5" font-family="Helvetica,sans-Serif" font-size="10.00" fill="#000000">FMBiGainMgr::lock_all</text>
</g>
<!-- Node27 -->
<g id="node2" class="node">
<title>Node27</title>
<g id="a_node2"><a xlink:href="structFMBiGainMgr.html#aef2d3c26113ca10779564aa48c025285" target="_top" xlink:title="FMBiGainMgr::init">
<polygon fill="#ffffff" stroke="#000000" points="152,-.5 152,-19.5 247,-19.5 247,-.5 152,-.5"/>
<text text-anchor="middle" x="199.5" y="-7.5" font-family="Helvetica,sans-Serif" font-size="10.00" fill="#000000">FMBiGainMgr::init</text>
</a>
</g>
</g>
<!-- Node26&#45;&gt;Node27 -->
<g id="edge1" class="edge">
<title>Node26&#45;&gt;Node27</title>
<path fill="none" stroke="#191970" d="M126.622,-10C135.0696,-10 143.5576,-10 151.6038,-10"/>
<polygon fill="#191970" stroke="#191970" points="126.3704,-6.5001 116.3704,-10 126.3704,-13.5001 126.3704,-6.5001"/>
</g>
<!-- Node28 -->
<g id="node3" class="node">
<title>Node28</title>
<g id="a_node3"><a xlink:href="structFMBiGainMgr.html#a5c5dcb68405e5916f2d39517e4deb4bb" target="_top" xlink:title="Construct a new FMBiGainMgr object. ">
<polygon fill="#ffffff" stroke="#000000" points="283,-.5 283,-19.5 426,-19.5 426,-.5 283,-.5"/>
<text text-anchor="middle" x="354.5" y="-7.5" font-family="Helvetica,sans-Serif" font-size="10.00" fill="#000000">FMBiGainMgr::FMBiGainMgr</text>
</a>
</g>
</g>
<!-- Node27&#45;&gt;Node28 -->
<g id="edge2" class="edge">
<title>Node27&#45;&gt;Node28</title>
<path fill="none" stroke="#191970" d="M257.2865,-10C265.6555,-10 274.353,-10 282.9522,-10"/>
<polygon fill="#191970" stroke="#191970" points="257.2699,-6.5001 247.2699,-10 257.2698,-13.5001 257.2699,-6.5001"/>
</g>
</g>
</svg>
