<?xml version="1.0" encoding="UTF-8" standalone="no"?>
<!DOCTYPE svg PUBLIC "-//W3C//DTD SVG 1.1//EN"
 "http://www.w3.org/Graphics/SVG/1.1/DTD/svg11.dtd">
<!-- Generated by graphviz version 2.40.1 (20161225.0304)
 -->
<!-- Title: Netlist::get_net_weight Pages: 1 -->
<svg width="849pt" height="773pt"
 viewBox="0.00 0.00 849.00 773.03" xmlns="http://www.w3.org/2000/svg" xmlns:xlink="http://www.w3.org/1999/xlink">
<g id="graph0" class="graph" transform="scale(1 1) rotate(0) translate(4 769.033)">
<title>Netlist::get_net_weight</title>
<polygon fill="#ffffff" stroke="transparent" points="-4,4 -4,-769.033 845,-769.033 845,4 -4,4"/>
<!-- Node21 -->
<g id="node1" class="node">
<title>Node21</title>
<polygon fill="#bfbfbf" stroke="#000000" points="0,-295 0,-314 117,-314 117,-295 0,-295"/>
<text text-anchor="middle" x="58.5" y="-302" font-family="Helvetica,sans-Serif" font-size="10.00" fill="#000000">Netlist::get_net_weight</text>
</g>
<!-- Node22 -->
<g id="node2" class="node">
<title>Node22</title>
<g id="a_node2"><a xlink:href="classFMBiGainCalc.html#a0f75d7a21673138d555c8e4cd011cff5" target="_top" xlink:title="FMBiGainCalc::__init\l_gain_2pin_net">
<polygon fill="#ffffff" stroke="#000000" points="165,-642.5 165,-672.5 275,-672.5 275,-642.5 165,-642.5"/>
<text text-anchor="start" x="173" y="-660.5" font-family="Helvetica,sans-Serif" font-size="10.00" fill="#000000">FMBiGainCalc::__init</text>
<text text-anchor="middle" x="220" y="-649.5" font-family="Helvetica,sans-Serif" font-size="10.00" fill="#000000">_gain_2pin_net</text>
</a>
</g>
</g>
<!-- Node21&#45;&gt;Node22 -->
<g id="edge1" class="edge">
<title>Node21&#45;&gt;Node22</title>
<path fill="none" stroke="#191970" d="M64.4004,-323.917C77.653,-366.4773 111.8626,-470.7092 153,-552.5 169.9064,-586.1139 194.783,-622.5413 208.985,-642.4288"/>
<polygon fill="#191970" stroke="#191970" points="67.7144,-322.7862 61.4251,-314.26 61.0247,-324.8472 67.7144,-322.7862"/>
</g>
<!-- Node25 -->
<g id="node5" class="node">
<title>Node25</title>
<g id="a_node5"><a xlink:href="classFMBiGainCalc.html#ae999a786da5a81001288ea6b6e8caf7b" target="_top" xlink:title="FMBiGainCalc::__init\l_gain_3pin_net">
<polygon fill="#ffffff" stroke="#000000" points="722,-675.5 722,-705.5 832,-705.5 832,-675.5 722,-675.5"/>
<text text-anchor="start" x="730" y="-693.5" font-family="Helvetica,sans-Serif" font-size="10.00" fill="#000000">FMBiGainCalc::__init</text>
<text text-anchor="middle" x="777" y="-682.5" font-family="Helvetica,sans-Serif" font-size="10.00" fill="#000000">_gain_3pin_net</text>
</a>
</g>
</g>
<!-- Node21&#45;&gt;Node25 -->
<g id="edge25" class="edge">
<title>Node21&#45;&gt;Node25</title>
<path fill="none" stroke="#191970" d="M60.4749,-324.4463C67.9476,-395.55 96.9515,-634.9072 153,-682.5 324.1582,-827.8367 627.1594,-743.0961 736.3534,-705.5514"/>
<polygon fill="#191970" stroke="#191970" points="63.9261,-323.7894 59.4261,-314.1977 56.9624,-324.5021 63.9261,-323.7894"/>
</g>
<!-- Node26 -->
<g id="node6" class="node">
<title>Node26</title>
<g id="a_node6"><a xlink:href="classFMBiGainCalc.html#a2be2fb6edd78a709fd1f2aa9c0e59085" target="_top" xlink:title="FMBiGainCalc::__init\l_gain_general_net">
<polygon fill="#ffffff" stroke="#000000" points="722,-593.5 722,-623.5 832,-623.5 832,-593.5 722,-593.5"/>
<text text-anchor="start" x="730" y="-611.5" font-family="Helvetica,sans-Serif" font-size="10.00" fill="#000000">FMBiGainCalc::__init</text>
<text text-anchor="middle" x="777" y="-600.5" font-family="Helvetica,sans-Serif" font-size="10.00" fill="#000000">_gain_general_net</text>
</a>
</g>
</g>
<!-- Node21&#45;&gt;Node26 -->
<g id="edge27" class="edge">
<title>Node21&#45;&gt;Node26</title>
<path fill="none" stroke="#191970" d="M62.2139,-324.2796C70.7007,-363.5873 95.4056,-451.4424 153,-494.5 342.2569,-635.9887 445.4923,-537.1563 677,-584.5 691.6059,-587.4869 707.3225,-591.0787 721.8714,-594.5629"/>
<polygon fill="#191970" stroke="#191970" points="65.618,-323.4555 60.1973,-314.3524 58.7581,-324.849 65.618,-323.4555"/>
</g>
<!-- Node28 -->
<g id="node8" class="node">
<title>Node28</title>
<g id="a_node8"><a xlink:href="classFMKWayGainCalc.html#ac6d158d36c93cd11b407dedfe3f7ab9d" target="_top" xlink:title="FMKWayGainCalc::__init\l_gain_2pin_net">
<polygon fill="#ffffff" stroke="#000000" points="156,-415.5 156,-445.5 284,-445.5 284,-415.5 156,-415.5"/>
<text text-anchor="start" x="164" y="-433.5" font-family="Helvetica,sans-Serif" font-size="10.00" fill="#000000">FMKWayGainCalc::__init</text>
<text text-anchor="middle" x="220" y="-422.5" font-family="Helvetica,sans-Serif" font-size="10.00" fill="#000000">_gain_2pin_net</text>
</a>
</g>
</g>
<!-- Node21&#45;&gt;Node28 -->
<g id="edge13" class="edge">
<title>Node21&#45;&gt;Node28</title>
<path fill="none" stroke="#191970" d="M78.9658,-320.4672C110.3718,-344.9697 170.0291,-391.5135 200.7116,-415.4515"/>
<polygon fill="#191970" stroke="#191970" points="80.9417,-317.5695 70.9045,-314.1778 76.6359,-323.0886 80.9417,-317.5695"/>
</g>
<!-- Node31 -->
<g id="node11" class="node">
<title>Node31</title>
<g id="a_node11"><a xlink:href="classFMKWayGainCalc.html#a3d58586faf2497c85377e7d42d7b8724" target="_top" xlink:title="FMKWayGainCalc::__init\l_gain_3pin_net">
<polygon fill="#ffffff" stroke="#000000" points="713,-447.5 713,-477.5 841,-477.5 841,-447.5 713,-447.5"/>
<text text-anchor="start" x="721" y="-465.5" font-family="Helvetica,sans-Serif" font-size="10.00" fill="#000000">FMKWayGainCalc::__init</text>
<text text-anchor="middle" x="777" y="-454.5" font-family="Helvetica,sans-Serif" font-size="10.00" fill="#000000">_gain_3pin_net</text>
</a>
</g>
</g>
<!-- Node21&#45;&gt;Node31 -->
<g id="edge26" class="edge">
<title>Node21&#45;&gt;Node31</title>
<path fill="none" stroke="#191970" d="M64.3111,-324.0737C75.4092,-357.5979 103.0734,-425.303 153,-455.5 338.8693,-567.9189 616.3578,-508.538 727.9391,-477.507"/>
<polygon fill="#191970" stroke="#191970" points="67.5179,-322.6044 61.1743,-314.1186 60.8415,-324.7082 67.5179,-322.6044"/>
</g>
<!-- Node32 -->
<g id="node12" class="node">
<title>Node32</title>
<g id="a_node12"><a xlink:href="classFMKWayGainCalc.html#ad10182c880296aa4182775a7099e5874" target="_top" xlink:title="FMKWayGainCalc::__init\l_gain_general_net">
<polygon fill="#ffffff" stroke="#000000" points="713,-366.5 713,-396.5 841,-396.5 841,-366.5 713,-366.5"/>
<text text-anchor="start" x="721" y="-384.5" font-family="Helvetica,sans-Serif" font-size="10.00" fill="#000000">FMKWayGainCalc::__init</text>
<text text-anchor="middle" x="777" y="-373.5" font-family="Helvetica,sans-Serif" font-size="10.00" fill="#000000">_gain_general_net</text>
</a>
</g>
</g>
<!-- Node21&#45;&gt;Node32 -->
<g id="edge28" class="edge">
<title>Node21&#45;&gt;Node32</title>
<path fill="none" stroke="#191970" d="M109.64,-316.0971C123.6351,-318.9106 138.8476,-321.6403 153,-323.5 384.3614,-353.9014 446.4091,-320.7206 677,-356.5 692.5618,-358.9146 709.2412,-362.6233 724.4311,-366.451"/>
<polygon fill="#191970" stroke="#191970" points="110.1983,-312.6386 99.6972,-314.0448 108.7832,-319.4941 110.1983,-312.6386"/>
</g>
<!-- Node34 -->
<g id="node14" class="node">
<title>Node34</title>
<g id="a_node14"><a xlink:href="test__min__cover_8cpp.html#ad836445999b15b0024ec8d9a8a28f83c" target="_top" xlink:title="max_independent_net">
<polygon fill="#ffffff" stroke="#000000" points="164,-295 164,-314 276,-314 276,-295 164,-295"/>
<text text-anchor="middle" x="220" y="-302" font-family="Helvetica,sans-Serif" font-size="10.00" fill="#000000">max_independent_net</text>
</a>
</g>
</g>
<!-- Node21&#45;&gt;Node34 -->
<g id="edge29" class="edge">
<title>Node21&#45;&gt;Node34</title>
<path fill="none" stroke="#191970" d="M127.4018,-304.5C139.6063,-304.5 152.1799,-304.5 163.9746,-304.5"/>
<polygon fill="#191970" stroke="#191970" points="127.2621,-301.0001 117.2621,-304.5 127.262,-308.0001 127.2621,-301.0001"/>
</g>
<!-- Node38 -->
<g id="node18" class="node">
<title>Node38</title>
<g id="a_node18"><a xlink:href="classFMBiGainCalc.html#a57ec705587925358e300927bed4a2a9f" target="_top" xlink:title="update move 2&#45;pin net ">
<polygon fill="#ffffff" stroke="#000000" points="162,-245.5 162,-275.5 278,-275.5 278,-245.5 162,-245.5"/>
<text text-anchor="start" x="170" y="-263.5" font-family="Helvetica,sans-Serif" font-size="10.00" fill="#000000">FMBiGainCalc::update</text>
<text text-anchor="middle" x="220" y="-252.5" font-family="Helvetica,sans-Serif" font-size="10.00" fill="#000000">_move_2pin_net</text>
</a>
</g>
</g>
<!-- Node21&#45;&gt;Node38 -->
<g id="edge33" class="edge">
<title>Node21&#45;&gt;Node38</title>
<path fill="none" stroke="#191970" d="M103.427,-292.2598C122.4151,-287.0866 144.7177,-281.0103 164.7033,-275.5654"/>
<polygon fill="#191970" stroke="#191970" points="102.2714,-288.947 93.5431,-294.9527 104.1115,-295.7009 102.2714,-288.947"/>
</g>
<!-- Node39 -->
<g id="node19" class="node">
<title>Node39</title>
<g id="a_node19"><a xlink:href="classFMKWayGainCalc.html#a6f165d39d4fe731a52eef229f8b27e41" target="_top" xlink:title="FMKWayGainCalc::update\l_move_2pin_net">
<polygon fill="#ffffff" stroke="#000000" points="153,-196.5 153,-226.5 287,-226.5 287,-196.5 153,-196.5"/>
<text text-anchor="start" x="161" y="-214.5" font-family="Helvetica,sans-Serif" font-size="10.00" fill="#000000">FMKWayGainCalc::update</text>
<text text-anchor="middle" x="220" y="-203.5" font-family="Helvetica,sans-Serif" font-size="10.00" fill="#000000">_move_2pin_net</text>
</a>
</g>
</g>
<!-- Node21&#45;&gt;Node39 -->
<g id="edge34" class="edge">
<title>Node21&#45;&gt;Node39</title>
<path fill="none" stroke="#191970" d="M77.5323,-288.0514C95.8819,-272.8321 124.9261,-250.378 153,-235.5 159.1137,-232.26 165.7587,-229.289 172.4101,-226.6245"/>
<polygon fill="#191970" stroke="#191970" points="74.8253,-285.7556 69.4346,-294.8766 79.3366,-291.1081 74.8253,-285.7556"/>
</g>
<!-- Node40 -->
<g id="node20" class="node">
<title>Node40</title>
<g id="a_node20"><a xlink:href="classFMBiGainCalc.html#a305f2c10495306f0fe6a92d4e2a32e9e" target="_top" xlink:title="FMBiGainCalc::update\l_move_3pin_net">
<polygon fill="#ffffff" stroke="#000000" points="162,-147.5 162,-177.5 278,-177.5 278,-147.5 162,-147.5"/>
<text text-anchor="start" x="170" y="-165.5" font-family="Helvetica,sans-Serif" font-size="10.00" fill="#000000">FMBiGainCalc::update</text>
<text text-anchor="middle" x="220" y="-154.5" font-family="Helvetica,sans-Serif" font-size="10.00" fill="#000000">_move_3pin_net</text>
</a>
</g>
</g>
<!-- Node21&#45;&gt;Node40 -->
<g id="edge35" class="edge">
<title>Node21&#45;&gt;Node40</title>
<path fill="none" stroke="#191970" d="M68.8222,-285.9693C84.0592,-260.2041 114.9216,-213.6704 153,-186.5 157.7272,-183.127 162.9769,-180.1835 168.398,-177.6256"/>
<polygon fill="#191970" stroke="#191970" points="65.7263,-284.3318 63.765,-294.7435 71.791,-287.8273 65.7263,-284.3318"/>
</g>
<!-- Node41 -->
<g id="node21" class="node">
<title>Node41</title>
<g id="a_node21"><a xlink:href="classFMKWayGainCalc.html#ae2683d28f524097c01a889987cc30afd" target="_top" xlink:title="FMKWayGainCalc::update\l_move_3pin_net">
<polygon fill="#ffffff" stroke="#000000" points="153,-98.5 153,-128.5 287,-128.5 287,-98.5 153,-98.5"/>
<text text-anchor="start" x="161" y="-116.5" font-family="Helvetica,sans-Serif" font-size="10.00" fill="#000000">FMKWayGainCalc::update</text>
<text text-anchor="middle" x="220" y="-105.5" font-family="Helvetica,sans-Serif" font-size="10.00" fill="#000000">_move_3pin_net</text>
</a>
</g>
</g>
<!-- Node21&#45;&gt;Node41 -->
<g id="edge36" class="edge">
<title>Node21&#45;&gt;Node41</title>
<path fill="none" stroke="#191970" d="M64.5437,-284.7755C76.1349,-250.1275 104.7152,-178.1624 153,-137.5 157.0639,-134.0777 161.6528,-131.1279 166.4759,-128.5885"/>
<polygon fill="#191970" stroke="#191970" points="61.1052,-284.0352 61.3738,-294.6266 67.7688,-286.1794 61.1052,-284.0352"/>
</g>
<!-- Node42 -->
<g id="node22" class="node">
<title>Node42</title>
<g id="a_node22"><a xlink:href="classFMBiGainCalc.html#a35ae74641ff559b0dbbf1f224bce4e3d" target="_top" xlink:title="FMBiGainCalc::update\l_move_general_net">
<polygon fill="#ffffff" stroke="#000000" points="162,-49.5 162,-79.5 278,-79.5 278,-49.5 162,-49.5"/>
<text text-anchor="start" x="170" y="-67.5" font-family="Helvetica,sans-Serif" font-size="10.00" fill="#000000">FMBiGainCalc::update</text>
<text text-anchor="middle" x="220" y="-56.5" font-family="Helvetica,sans-Serif" font-size="10.00" fill="#000000">_move_general_net</text>
</a>
</g>
</g>
<!-- Node21&#45;&gt;Node42 -->
<g id="edge37" class="edge">
<title>Node21&#45;&gt;Node42</title>
<path fill="none" stroke="#191970" d="M61.7494,-284.69C69.6632,-242.6357 93.8074,-143.7739 153,-88.5 156.7025,-85.0426 160.9377,-82.077 165.4398,-79.5344"/>
<polygon fill="#191970" stroke="#191970" points="58.2659,-284.2899 59.9675,-294.7472 65.1585,-285.5112 58.2659,-284.2899"/>
</g>
<!-- Node43 -->
<g id="node23" class="node">
<title>Node43</title>
<g id="a_node23"><a xlink:href="classFMKWayGainCalc.html#a3bfab732938f86a78ec187d4dbd60c3b" target="_top" xlink:title="FMKWayGainCalc::update\l_move_general_net">
<polygon fill="#ffffff" stroke="#000000" points="153,-.5 153,-30.5 287,-30.5 287,-.5 153,-.5"/>
<text text-anchor="start" x="161" y="-18.5" font-family="Helvetica,sans-Serif" font-size="10.00" fill="#000000">FMKWayGainCalc::update</text>
<text text-anchor="middle" x="220" y="-7.5" font-family="Helvetica,sans-Serif" font-size="10.00" fill="#000000">_move_general_net</text>
</a>
</g>
</g>
<!-- Node21&#45;&gt;Node43 -->
<g id="edge38" class="edge">
<title>Node21&#45;&gt;Node43</title>
<path fill="none" stroke="#191970" d="M59.9199,-284.6335C64.4469,-236.0151 82.705,-109.8951 153,-39.5 156.4049,-36.0902 160.3274,-33.1624 164.5307,-30.6487"/>
<polygon fill="#191970" stroke="#191970" points="56.4183,-284.5075 59.0761,-294.7635 63.3942,-285.0886 56.4183,-284.5075"/>
</g>
<!-- Node23 -->
<g id="node3" class="node">
<title>Node23</title>
<g id="a_node3"><a xlink:href="classFMBiGainCalc.html#a9456d3059562cbc28c5afabc6ba86f9f" target="_top" xlink:title="FMBiGainCalc::__init_gain">
<polygon fill="#ffffff" stroke="#000000" points="332,-625 332,-644 465,-644 465,-625 332,-625"/>
<text text-anchor="middle" x="398.5" y="-632" font-family="Helvetica,sans-Serif" font-size="10.00" fill="#000000">FMBiGainCalc::__init_gain</text>
</a>
</g>
</g>
<!-- Node22&#45;&gt;Node23 -->
<g id="edge2" class="edge">
<title>Node22&#45;&gt;Node23</title>
<path fill="none" stroke="#191970" d="M285.3015,-649.0858C300.4263,-647.137 316.5419,-645.0604 331.7288,-643.1036"/>
<polygon fill="#191970" stroke="#191970" points="284.4831,-645.6622 275.0124,-650.4116 285.3777,-652.6048 284.4831,-645.6622"/>
</g>
<!-- Node24 -->
<g id="node4" class="node">
<title>Node24</title>
<g id="a_node4"><a xlink:href="classFMBiGainCalc.html#aa0c6de3e9a7d0107c816c523b2bc6eb6" target="_top" xlink:title="FMBiGainCalc::__modify_gain">
<polygon fill="#ffffff" stroke="#000000" points="519,-681 519,-700 668,-700 668,-681 519,-681"/>
<text text-anchor="middle" x="593.5" y="-688" font-family="Helvetica,sans-Serif" font-size="10.00" fill="#000000">FMBiGainCalc::__modify_gain</text>
</a>
</g>
</g>
<!-- Node22&#45;&gt;Node24 -->
<g id="edge12" class="edge">
<title>Node22&#45;&gt;Node24</title>
<path fill="none" stroke="#191970" d="M285.5047,-658.0078C358.1434,-662.3369 473.8884,-672.7002 540.8805,-680.9816"/>
<polygon fill="#191970" stroke="#191970" points="285.2946,-654.4902 275.1112,-657.4139 284.8952,-661.4788 285.2946,-654.4902"/>
</g>
<!-- Node23&#45;&gt;Node24 -->
<g id="edge3" class="edge">
<title>Node23&#45;&gt;Node24</title>
<path fill="none" stroke="#191970" d="M441.7196,-646.9118C477.5462,-657.2004 527.7241,-671.6105 560.4157,-680.9989"/>
<polygon fill="#191970" stroke="#191970" points="442.5993,-643.523 432.0217,-644.1267 440.6671,-650.2511 442.5993,-643.523"/>
</g>
<!-- Node27 -->
<g id="node7" class="node">
<title>Node27</title>
<g id="a_node7"><a xlink:href="classFMBiGainCalc.html#ac0c5f892f186adc2c2058e37512b9a6b" target="_top" xlink:title="FMBiGainCalc::init">
<polygon fill="#ffffff" stroke="#000000" points="544,-605 544,-624 643,-624 643,-605 544,-605"/>
<text text-anchor="middle" x="593.5" y="-612" font-family="Helvetica,sans-Serif" font-size="10.00" fill="#000000">FMBiGainCalc::init</text>
</a>
</g>
</g>
<!-- Node23&#45;&gt;Node27 -->
<g id="edge11" class="edge">
<title>Node23&#45;&gt;Node27</title>
<path fill="none" stroke="#191970" d="M475.1898,-626.6344C498.2838,-624.2658 523.0115,-621.7296 543.8578,-619.5915"/>
<polygon fill="#191970" stroke="#191970" points="474.6532,-623.171 465.0625,-627.6731 475.3675,-630.1344 474.6532,-623.171"/>
</g>
<!-- Node24&#45;&gt;Node22 -->
<g id="edge4" class="edge">
<title>Node24&#45;&gt;Node22</title>
<path fill="none" stroke="#191970" d="M508.4558,-688.7532C436.8771,-683.9696 336.6151,-674.8406 275.1112,-667.3246"/>
<polygon fill="#191970" stroke="#191970" points="508.5941,-692.2695 518.8004,-689.4267 509.0489,-685.2843 508.5941,-692.2695"/>
</g>
<!-- Node24&#45;&gt;Node25 -->
<g id="edge5" class="edge">
<title>Node24&#45;&gt;Node25</title>
<path fill="none" stroke="#191970" d="M678.3154,-683.7672C693.1015,-683.6938 708.1293,-683.8554 721.8507,-684.252"/>
<polygon fill="#191970" stroke="#191970" points="678.1057,-680.2688 668.1365,-683.8555 678.1665,-687.2685 678.1057,-680.2688"/>
</g>
<!-- Node24&#45;&gt;Node26 -->
<g id="edge8" class="edge">
<title>Node24&#45;&gt;Node26</title>
<path fill="none" stroke="#191970" d="M615.7232,-675.9774C643.89,-661.094 693.1894,-638.6 729.8894,-623.5693"/>
<polygon fill="#191970" stroke="#191970" points="613.8006,-673.0393 606.6969,-680.8998 617.152,-679.1849 613.8006,-673.0393"/>
</g>
<!-- Node25&#45;&gt;Node23 -->
<g id="edge6" class="edge">
<title>Node25&#45;&gt;Node23</title>
<path fill="none" stroke="#191970" d="M711.7797,-677.5657C700.2136,-675.427 688.2671,-673.3174 677,-671.5 604.7703,-659.8494 521.5694,-649.1489 465.0523,-642.285"/>
<polygon fill="#191970" stroke="#191970" points="711.3458,-681.0453 721.8193,-679.4461 712.6345,-674.1649 711.3458,-681.0453"/>
</g>
<!-- Node25&#45;&gt;Node24 -->
<g id="edge7" class="edge">
<title>Node25&#45;&gt;Node24</title>
<path fill="none" stroke="#191970" d="M711.7505,-696.9933C697.6276,-697.2741 682.5884,-697.3245 668.1365,-697.1445"/>
<polygon fill="#191970" stroke="#191970" points="711.9386,-700.4898 721.8507,-696.748 711.7686,-693.4919 711.9386,-700.4898"/>
</g>
<!-- Node26&#45;&gt;Node23 -->
<g id="edge9" class="edge">
<title>Node26&#45;&gt;Node23</title>
<path fill="none" stroke="#191970" d="M711.6821,-597.5027C657.3347,-590.2166 578.129,-583.9288 510,-595.5 477.2467,-601.0629 441.2964,-615.2029 419.3115,-624.8369"/>
<polygon fill="#191970" stroke="#191970" points="711.4838,-601.0087 721.8706,-598.9194 712.4479,-594.0754 711.4838,-601.0087"/>
</g>
<!-- Node26&#45;&gt;Node24 -->
<g id="edge10" class="edge">
<title>Node26&#45;&gt;Node24</title>
<path fill="none" stroke="#191970" d="M744.3577,-628.3932C711.1974,-645.1249 660.101,-667.9694 626.7305,-680.9905"/>
<polygon fill="#191970" stroke="#191970" points="746.3256,-631.317 753.6191,-623.6323 743.1252,-625.0914 746.3256,-631.317"/>
</g>
<!-- Node29 -->
<g id="node9" class="node">
<title>Node29</title>
<g id="a_node9"><a xlink:href="classFMKWayGainCalc.html#ab7b8bf55722e1449e394ad08b1290582" target="_top" xlink:title="FMKWayGainCalc::__init_gain">
<polygon fill="#ffffff" stroke="#000000" points="323,-397 323,-416 474,-416 474,-397 323,-397"/>
<text text-anchor="middle" x="398.5" y="-404" font-family="Helvetica,sans-Serif" font-size="10.00" fill="#000000">FMKWayGainCalc::__init_gain</text>
</a>
</g>
</g>
<!-- Node28&#45;&gt;Node29 -->
<g id="edge14" class="edge">
<title>Node28&#45;&gt;Node29</title>
<path fill="none" stroke="#191970" d="M294.2288,-420.5197C305.2782,-419.034 316.644,-417.5059 327.6221,-416.0298"/>
<polygon fill="#191970" stroke="#191970" points="293.6348,-417.0679 284.1904,-421.8694 294.5677,-424.0055 293.6348,-417.0679"/>
</g>
<!-- Node30 -->
<g id="node10" class="node">
<title>Node30</title>
<g id="a_node10"><a xlink:href="classFMKWayGainCalc.html#ac4e6255c0ffc3141805628779fa45e41" target="_top" xlink:title="FMKWayGainCalc::__modify_gain">
<polygon fill="#ffffff" stroke="#000000" points="510,-453 510,-472 677,-472 677,-453 510,-453"/>
<text text-anchor="middle" x="593.5" y="-460" font-family="Helvetica,sans-Serif" font-size="10.00" fill="#000000">FMKWayGainCalc::__modify_gain</text>
</a>
</g>
</g>
<!-- Node28&#45;&gt;Node30 -->
<g id="edge24" class="edge">
<title>Node28&#45;&gt;Node30</title>
<path fill="none" stroke="#191970" d="M294.634,-431.3693C367.1304,-435.7622 475.4168,-445.2457 539.8033,-452.9925"/>
<polygon fill="#191970" stroke="#191970" points="294.3944,-427.8494 284.2069,-430.759 293.9853,-434.8375 294.3944,-427.8494"/>
</g>
<!-- Node29&#45;&gt;Node30 -->
<g id="edge15" class="edge">
<title>Node29&#45;&gt;Node30</title>
<path fill="none" stroke="#191970" d="M441.7196,-418.9118C477.5462,-429.2004 527.7241,-443.6105 560.4157,-452.9989"/>
<polygon fill="#191970" stroke="#191970" points="442.5993,-415.523 432.0217,-416.1267 440.6671,-422.2511 442.5993,-415.523"/>
</g>
<!-- Node33 -->
<g id="node13" class="node">
<title>Node33</title>
<g id="a_node13"><a xlink:href="classFMKWayGainCalc.html#a90ac9b44385bb59b4e03258ed44b17e6" target="_top" xlink:title="FMKWayGainCalc::init">
<polygon fill="#ffffff" stroke="#000000" points="535,-377 535,-396 652,-396 652,-377 535,-377"/>
<text text-anchor="middle" x="593.5" y="-384" font-family="Helvetica,sans-Serif" font-size="10.00" fill="#000000">FMKWayGainCalc::init</text>
</a>
</g>
</g>
<!-- Node29&#45;&gt;Node33 -->
<g id="edge23" class="edge">
<title>Node29&#45;&gt;Node33</title>
<path fill="none" stroke="#191970" d="M484.1667,-397.7137C501.2675,-395.9597 518.8612,-394.1553 534.8015,-392.5204"/>
<polygon fill="#191970" stroke="#191970" points="483.7619,-394.2367 474.1712,-398.7389 484.4761,-401.2002 483.7619,-394.2367"/>
</g>
<!-- Node30&#45;&gt;Node28 -->
<g id="edge16" class="edge">
<title>Node30&#45;&gt;Node28</title>
<path fill="none" stroke="#191970" d="M499.6475,-460.404C432.3756,-455.9117 343.5251,-448.065 284.2069,-441.243"/>
<polygon fill="#191970" stroke="#191970" points="499.6233,-463.9098 509.8301,-461.0687 500.0794,-456.9246 499.6233,-463.9098"/>
</g>
<!-- Node30&#45;&gt;Node31 -->
<g id="edge17" class="edge">
<title>Node30&#45;&gt;Node31</title>
<path fill="none" stroke="#191970" d="M687.3496,-455.7516C696.0056,-455.7645 704.6366,-455.8576 712.9343,-456.0309"/>
<polygon fill="#191970" stroke="#191970" points="687.1878,-452.2518 677.1953,-455.7732 687.2027,-459.2518 687.1878,-452.2518"/>
</g>
<!-- Node30&#45;&gt;Node32 -->
<g id="edge20" class="edge">
<title>Node30&#45;&gt;Node32</title>
<path fill="none" stroke="#191970" d="M615.6588,-448.1323C643.6112,-433.509 692.4489,-411.4759 729.0908,-396.6357"/>
<polygon fill="#191970" stroke="#191970" points="613.8329,-445.1405 606.6969,-452.9717 617.159,-451.2998 613.8329,-445.1405"/>
</g>
<!-- Node31&#45;&gt;Node29 -->
<g id="edge18" class="edge">
<title>Node31&#45;&gt;Node29</title>
<path fill="none" stroke="#191970" d="M702.703,-447.9087C694.0496,-446.3501 685.3387,-444.845 677,-443.5 608.5022,-432.4514 530.1375,-422.2572 474.0209,-415.3793"/>
<polygon fill="#191970" stroke="#191970" points="702.3427,-451.4007 712.8091,-449.7564 703.6017,-444.5149 702.3427,-451.4007"/>
</g>
<!-- Node31&#45;&gt;Node30 -->
<g id="edge19" class="edge">
<title>Node31&#45;&gt;Node30</title>
<path fill="none" stroke="#191970" d="M702.7813,-469.1393C694.3579,-469.2469 685.7297,-469.276 677.1953,-469.2268"/>
<polygon fill="#191970" stroke="#191970" points="702.9944,-472.6363 712.9343,-468.9691 702.8771,-465.6373 702.9944,-472.6363"/>
</g>
<!-- Node32&#45;&gt;Node29 -->
<g id="edge21" class="edge">
<title>Node32&#45;&gt;Node29</title>
<path fill="none" stroke="#191970" d="M702.7369,-368.9159C648.8823,-361.8947 574.4876,-356.5472 510,-367.5 477.2467,-373.0629 441.2964,-387.2029 419.3115,-396.8369"/>
<polygon fill="#191970" stroke="#191970" points="702.5062,-372.4165 712.8855,-370.2904 703.4457,-365.4798 702.5062,-372.4165"/>
</g>
<!-- Node32&#45;&gt;Node30 -->
<g id="edge22" class="edge">
<title>Node32&#45;&gt;Node30</title>
<path fill="none" stroke="#191970" d="M744.3909,-401.1988C711.5131,-417.6107 660.9792,-439.945 627.5849,-452.8422"/>
<polygon fill="#191970" stroke="#191970" points="746.2508,-404.1795 753.5776,-396.5265 743.0775,-397.9401 746.2508,-404.1795"/>
</g>
<!-- Node35 -->
<g id="node15" class="node">
<title>Node35</title>
<g id="a_node15"><a xlink:href="test__min__cover_8cpp.html#ad62682eeb6c222acc3558269eefe9735" target="_top" xlink:title="Create a contraction subgraph object. ">
<polygon fill="#ffffff" stroke="#000000" points="350,-283.5 350,-313.5 447,-313.5 447,-283.5 350,-283.5"/>
<text text-anchor="start" x="358" y="-301.5" font-family="Helvetica,sans-Serif" font-size="10.00" fill="#000000">create_contraction</text>
<text text-anchor="middle" x="398.5" y="-290.5" font-family="Helvetica,sans-Serif" font-size="10.00" fill="#000000">_subgraph</text>
</a>
</g>
</g>
<!-- Node34&#45;&gt;Node35 -->
<g id="edge30" class="edge">
<title>Node34&#45;&gt;Node35</title>
<path fill="none" stroke="#191970" d="M286.6205,-302.2607C307.6182,-301.5549 330.4051,-300.7889 349.901,-300.1336"/>
<polygon fill="#191970" stroke="#191970" points="286.3553,-298.7675 276.4785,-302.6016 286.5905,-305.7635 286.3553,-298.7675"/>
</g>
<!-- Node37 -->
<g id="node17" class="node">
<title>Node37</title>
<g id="a_node17"><a xlink:href="test__min__cover_8cpp.html#a7e72cb88ccf2fd9e5a2407385216081c" target="_top" xlink:title="TEST_CASE">
<polygon fill="#ffffff" stroke="#000000" points="361,-245 361,-264 436,-264 436,-245 361,-245"/>
<text text-anchor="middle" x="398.5" y="-252" font-family="Helvetica,sans-Serif" font-size="10.00" fill="#000000">TEST_CASE</text>
</a>
</g>
</g>
<!-- Node34&#45;&gt;Node37 -->
<g id="edge32" class="edge">
<title>Node34&#45;&gt;Node37</title>
<path fill="none" stroke="#191970" d="M261.6606,-292.1145C280.3822,-286.6135 302.7699,-280.1247 323,-274.5 335.5416,-271.013 349.2942,-267.3287 361.5859,-264.0855"/>
<polygon fill="#191970" stroke="#191970" points="260.5587,-288.7903 251.9556,-294.974 262.5371,-295.5049 260.5587,-288.7903"/>
</g>
<!-- Node36 -->
<g id="node16" class="node">
<title>Node36</title>
<g id="a_node16"><a xlink:href="test__min__cover_8cpp.html#a05c317144ac7688afb67dabb457b9910" target="_top" xlink:title="TEST_CASE">
<polygon fill="#ffffff" stroke="#000000" points="556,-263 556,-282 631,-282 631,-263 556,-263"/>
<text text-anchor="middle" x="593.5" y="-270" font-family="Helvetica,sans-Serif" font-size="10.00" fill="#000000">TEST_CASE</text>
</a>
</g>
</g>
<!-- Node35&#45;&gt;Node36 -->
<g id="edge31" class="edge">
<title>Node35&#45;&gt;Node36</title>
<path fill="none" stroke="#191970" d="M457.3288,-290.6562C489.2979,-286.3936 527.8866,-281.2485 555.81,-277.5253"/>
<polygon fill="#191970" stroke="#191970" points="456.6534,-287.2152 447.2037,-292.0062 457.5786,-294.1537 456.6534,-287.2152"/>
</g>
</g>
</svg>
