<?xml version="1.0" encoding="UTF-8" standalone="no"?>
<!DOCTYPE svg PUBLIC "-//W3C//DTD SVG 1.1//EN"
 "http://www.w3.org/Graphics/SVG/1.1/DTD/svg11.dtd">
<!-- Generated by graphviz version 2.40.1 (20161225.0304)
 -->
<!-- Title: DifferentTypes::iterator::value Pages: 1 -->
<svg width="278pt" height="88pt"
 viewBox="0.00 0.00 278.00 88.00" xmlns="http://www.w3.org/2000/svg" xmlns:xlink="http://www.w3.org/1999/xlink">
<g id="graph0" class="graph" transform="scale(1 1) rotate(0) translate(4 84)">
<title>DifferentTypes::iterator::value</title>
<polygon fill="#ffffff" stroke="transparent" points="-4,4 -4,-84 274,-84 274,4 -4,4"/>
<!-- Node14 -->
<g id="node1" class="node">
<title>Node14</title>
<polygon fill="#bfbfbf" stroke="#000000" points="0,-24.5 0,-54.5 117,-54.5 117,-24.5 0,-24.5"/>
<text text-anchor="start" x="8" y="-42.5" font-family="Helvetica,sans-Serif" font-size="10.00" fill="#000000">DifferentTypes::iterator</text>
<text text-anchor="middle" x="58.5" y="-31.5" font-family="Helvetica,sans-Serif" font-size="10.00" fill="#000000">::value</text>
</g>
<!-- Node15 -->
<g id="node2" class="node">
<title>Node15</title>
<g id="a_node2"><a xlink:href="structDifferentTypes_1_1iterator.html#a7ed0a9c872b7022188f4cc3c77d00ec5" target="_top" xlink:title="DifferentTypes::iterator\l::operator!=">
<polygon fill="#ffffff" stroke="#000000" points="153,-49.5 153,-79.5 270,-79.5 270,-49.5 153,-49.5"/>
<text text-anchor="start" x="161" y="-67.5" font-family="Helvetica,sans-Serif" font-size="10.00" fill="#000000">DifferentTypes::iterator</text>
<text text-anchor="middle" x="211.5" y="-56.5" font-family="Helvetica,sans-Serif" font-size="10.00" fill="#000000">::operator!=</text>
</a>
</g>
</g>
<!-- Node14&#45;&gt;Node15 -->
<g id="edge1" class="edge">
<title>Node14&#45;&gt;Node15</title>
<path fill="none" stroke="#191970" d="M127.2131,-50.7276C135.8031,-52.1312 144.5255,-53.5565 152.9409,-54.9315"/>
<polygon fill="#191970" stroke="#191970" points="127.6498,-47.2526 117.2162,-49.0942 126.5209,-54.161 127.6498,-47.2526"/>
</g>
<!-- Node16 -->
<g id="node3" class="node">
<title>Node16</title>
<g id="a_node3"><a xlink:href="structDifferentTypes_1_1end__iterator.html#a5f25d0c289be82e8668f5dc18b25d364" target="_top" xlink:title="DifferentTypes::end\l_iterator::operator!=">
<polygon fill="#ffffff" stroke="#000000" points="160,-.5 160,-30.5 263,-30.5 263,-.5 160,-.5"/>
<text text-anchor="start" x="168" y="-18.5" font-family="Helvetica,sans-Serif" font-size="10.00" fill="#000000">DifferentTypes::end</text>
<text text-anchor="middle" x="211.5" y="-7.5" font-family="Helvetica,sans-Serif" font-size="10.00" fill="#000000">_iterator::operator!=</text>
</a>
</g>
</g>
<!-- Node14&#45;&gt;Node16 -->
<g id="edge2" class="edge">
<title>Node14&#45;&gt;Node16</title>
<path fill="none" stroke="#191970" d="M127.1647,-28.7291C138.0917,-27.015 149.2342,-25.2672 159.6878,-23.6274"/>
<polygon fill="#191970" stroke="#191970" points="126.553,-25.2821 117.2162,-30.2896 127.6378,-32.1976 126.553,-25.2821"/>
</g>
</g>
</svg>
