<?xml version="1.0" encoding="UTF-8" standalone="no"?>
<!DOCTYPE svg PUBLIC "-//W3C//DTD SVG 1.1//EN"
 "http://www.w3.org/Graphics/SVG/1.1/DTD/svg11.dtd">
<!-- Generated by graphviz version 2.40.1 (20161225.0304)
 -->
<!-- Title: Netlist&lt; nodeview_t, nodemap_t &gt; Pages: 1 -->
<!--zoomable 1082 -->
<svg id="main" version="1.1" xmlns="http://www.w3.org/2000/svg" xmlns:xlink="http://www.w3.org/1999/xlink" xml:space="preserve" onload="init(evt)">
<style type="text/css"><![CDATA[
.edge:hover path { stroke: red; }
.edge:hover polygon { stroke: red; fill: red; }
]]></style>
<script type="text/javascript"><![CDATA[
var edges = document.getElementsByTagName('g');
if (edges && edges.length) {
  for (var i=0;i<edges.length;i++) {
    if (edges[i].id.substr(0,4)=='edge') {
      edges[i].setAttribute('class','edge');
    }
  }
}
]]></script>
        <defs>
                <circle id="rim" cx="0" cy="0" r="7"/>
                <circle id="rim2" cx="0" cy="0" r="3.5"/>
                <g id="zoomPlus">
                        <use xlink:href="#rim" fill="#404040">
                                <set attributeName="fill" to="#808080" begin="zoomplus.mouseover" end="zoomplus.mouseout"/>
                        </use>
                        <path d="M-4,0h8M0,-4v8" fill="none" stroke="white" stroke-width="1.5" pointer-events="none"/>
                </g>
                <g id="zoomMin">
                        <use xlink:href="#rim" fill="#404040">
                                <set attributeName="fill" to="#808080" begin="zoomminus.mouseover" end="zoomminus.mouseout"/>
                        </use>
                        <path d="M-4,0h8" fill="none" stroke="white" stroke-width="1.5" pointer-events="none"/>
                </g>
                <g id="dirArrow">
                        <path fill="none" stroke="white" stroke-width="1.5" d="M0,-3.0v7 M-2.5,-0.5L0,-3.0L2.5,-0.5"/>
                </g>
               <g id="resetDef">
                       <use xlink:href="#rim2" fill="#404040">
                               <set attributeName="fill" to="#808080" begin="reset.mouseover" end="reset.mouseout"/>
                       </use>
               </g>
        </defs>

<script type="text/javascript">
var viewWidth = 758;
var viewHeight = 1082;
var sectionId = 'dynsection-0';
</script>
<script xlink:href="svgpan.js"/>
<svg id="graph" class="graph">
<g id="viewport">
<title>Netlist&lt; nodeview_t, nodemap_t &gt;</title>
<polygon fill="#ffffff" stroke="transparent" points="-4,4 -4,-1078 754,-1078 754,4 -4,4"/>
<!-- Node1 -->
<g id="node1" class="node">
<title>Node1</title>
<polygon fill="#bfbfbf" stroke="#000000" points="371.5,-.5 371.5,-211.5 490.5,-211.5 490.5,-.5 371.5,-.5"/>
<text text-anchor="start" x="379.5" y="-199.5" font-family="Helvetica,sans-Serif" font-size="10.00" fill="#000000">Netlist&lt; nodeview_t,</text>
<text text-anchor="middle" x="431" y="-188.5" font-family="Helvetica,sans-Serif" font-size="10.00" fill="#000000"> nodemap_t &gt;</text>
<polyline fill="none" stroke="#000000" points="371.5,-181.5 490.5,-181.5 "/>
<text text-anchor="start" x="379.5" y="-169.5" font-family="Helvetica,sans-Serif" font-size="10.00" fill="#000000">+ num_modules</text>
<text text-anchor="start" x="379.5" y="-158.5" font-family="Helvetica,sans-Serif" font-size="10.00" fill="#000000">+ num_nets</text>
<text text-anchor="start" x="379.5" y="-147.5" font-family="Helvetica,sans-Serif" font-size="10.00" fill="#000000">+ num_pads</text>
<text text-anchor="start" x="379.5" y="-136.5" font-family="Helvetica,sans-Serif" font-size="10.00" fill="#000000">+ max_degree</text>
<text text-anchor="start" x="379.5" y="-125.5" font-family="Helvetica,sans-Serif" font-size="10.00" fill="#000000">+ max_net_degree</text>
<text text-anchor="start" x="379.5" y="-114.5" font-family="Helvetica,sans-Serif" font-size="10.00" fill="#000000">+ has_fixed_modules</text>
<text text-anchor="start" x="379.5" y="-103.5" font-family="Helvetica,sans-Serif" font-size="10.00" fill="#000000">+ cost_model</text>
<text text-anchor="start" x="379.5" y="-92.5" font-family="Helvetica,sans-Serif" font-size="10.00" fill="#000000">+ parent</text>
<polyline fill="none" stroke="#000000" points="371.5,-85.5 490.5,-85.5 "/>
<text text-anchor="start" x="379.5" y="-73.5" font-family="Helvetica,sans-Serif" font-size="10.00" fill="#000000">+ Netlist()</text>
<text text-anchor="start" x="379.5" y="-62.5" font-family="Helvetica,sans-Serif" font-size="10.00" fill="#000000">+ Netlist()</text>
<text text-anchor="start" x="379.5" y="-51.5" font-family="Helvetica,sans-Serif" font-size="10.00" fill="#000000">+ number_of_modules()</text>
<text text-anchor="start" x="379.5" y="-40.5" font-family="Helvetica,sans-Serif" font-size="10.00" fill="#000000">+ number_of_nets()</text>
<text text-anchor="start" x="379.5" y="-29.5" font-family="Helvetica,sans-Serif" font-size="10.00" fill="#000000">+ number_of_nodes()</text>
<text text-anchor="start" x="379.5" y="-18.5" font-family="Helvetica,sans-Serif" font-size="10.00" fill="#000000">+ get_max_degree()</text>
<text text-anchor="start" x="379.5" y="-7.5" font-family="Helvetica,sans-Serif" font-size="10.00" fill="#000000">and 5 more...</text>
</g>
<!-- Node2 -->
<g id="node2" class="node">
<title>Node2</title>
<g id="a_node2"><a xlink:href="classxn_1_1Graph.html" target="_top" xlink:title="{xn::Graph\&lt; nodeview\l_t, nodemap_t \&gt;\n||+ Graph()\l+ Graph()\l+ adj()\l+ get_name()\l+ set_name()\l+ begin()\land 13 more...\l}">
<polygon fill="#ffffff" stroke="#000000" points="273,-270.5 273,-404.5 383,-404.5 383,-270.5 273,-270.5"/>
<text text-anchor="start" x="281" y="-392.5" font-family="Helvetica,sans-Serif" font-size="10.00" fill="#000000">xn::Graph&lt; nodeview</text>
<text text-anchor="middle" x="328" y="-381.5" font-family="Helvetica,sans-Serif" font-size="10.00" fill="#000000">_t, nodemap_t &gt;</text>
<polyline fill="none" stroke="#000000" points="273,-374.5 383,-374.5 "/>
<text text-anchor="middle" x="328" y="-362.5" font-family="Helvetica,sans-Serif" font-size="10.00" fill="#000000"> </text>
<polyline fill="none" stroke="#000000" points="273,-355.5 383,-355.5 "/>
<text text-anchor="start" x="281" y="-343.5" font-family="Helvetica,sans-Serif" font-size="10.00" fill="#000000">+ Graph()</text>
<text text-anchor="start" x="281" y="-332.5" font-family="Helvetica,sans-Serif" font-size="10.00" fill="#000000">+ Graph()</text>
<text text-anchor="start" x="281" y="-321.5" font-family="Helvetica,sans-Serif" font-size="10.00" fill="#000000">+ adj()</text>
<text text-anchor="start" x="281" y="-310.5" font-family="Helvetica,sans-Serif" font-size="10.00" fill="#000000">+ get_name()</text>
<text text-anchor="start" x="281" y="-299.5" font-family="Helvetica,sans-Serif" font-size="10.00" fill="#000000">+ set_name()</text>
<text text-anchor="start" x="281" y="-288.5" font-family="Helvetica,sans-Serif" font-size="10.00" fill="#000000">+ begin()</text>
<text text-anchor="start" x="281" y="-277.5" font-family="Helvetica,sans-Serif" font-size="10.00" fill="#000000">and 13 more...</text>
</a>
</g>
</g>
<!-- Node2&#45;&gt;Node1 -->
<g id="edge1" class="edge">
<title>Node2&#45;&gt;Node1</title>
<path fill="none" stroke="#404040" d="M357.9302,-270.2296C364.5418,-255.3696 371.7323,-239.2085 378.9374,-223.0144"/>
<polygon fill="none" stroke="#404040" points="379.0429,-222.7772 377.8274,-215.6693 383.921,-211.8134 385.1366,-218.9213 379.0429,-222.7772"/>
<text text-anchor="middle" x="382.5" y="-238.5" font-family="Helvetica,sans-Serif" font-size="10.00" fill="#000000"> +G</text>
</g>
<!-- Node3 -->
<g id="node3" class="node">
<title>Node3</title>
<g id="a_node3"><a xlink:href="structxn_1_1object.html" target="_top" xlink:title="Base class for undirected graphs. ">
<polygon fill="#ffffff" stroke="#000000" points="287.5,-543.5 287.5,-600.5 346.5,-600.5 346.5,-543.5 287.5,-543.5"/>
<text text-anchor="middle" x="317" y="-588.5" font-family="Helvetica,sans-Serif" font-size="10.00" fill="#000000">xn::object</text>
<polyline fill="none" stroke="#000000" points="287.5,-581.5 346.5,-581.5 "/>
<text text-anchor="middle" x="317" y="-569.5" font-family="Helvetica,sans-Serif" font-size="10.00" fill="#000000"> </text>
<polyline fill="none" stroke="#000000" points="287.5,-562.5 346.5,-562.5 "/>
<text text-anchor="middle" x="317" y="-550.5" font-family="Helvetica,sans-Serif" font-size="10.00" fill="#000000"> </text>
</a>
</g>
</g>
<!-- Node3&#45;&gt;Node2 -->
<g id="edge2" class="edge">
<title>Node3&#45;&gt;Node2</title>
<path fill="none" stroke="#191970" d="M318.829,-533.0097C320.463,-498.1757 322.8925,-446.383 324.8405,-404.8553"/>
<polygon fill="none" stroke="#191970" points="315.3213,-533.0926 318.3488,-543.2457 322.3136,-533.4207 315.3213,-533.0926"/>
</g>
<!-- Node4 -->
<g id="node4" class="node">
<title>Node4</title>
<g id="a_node4"><a xlink:href="classpy_1_1dict.html" target="_top" xlink:title="{py::dict\&lt; const char\l *, std::any \&gt;\n||+ dict()\l+ dict()\l+ operator=()\l&#45; dict()\l}">
<polygon fill="#ffffff" stroke="#000000" points="315,-750.5 315,-851.5 419,-851.5 419,-750.5 315,-750.5"/>
<text text-anchor="start" x="323" y="-839.5" font-family="Helvetica,sans-Serif" font-size="10.00" fill="#000000">py::dict&lt; const char</text>
<text text-anchor="middle" x="367" y="-828.5" font-family="Helvetica,sans-Serif" font-size="10.00" fill="#000000"> *, std::any &gt;</text>
<polyline fill="none" stroke="#000000" points="315,-821.5 419,-821.5 "/>
<text text-anchor="middle" x="367" y="-809.5" font-family="Helvetica,sans-Serif" font-size="10.00" fill="#000000"> </text>
<polyline fill="none" stroke="#000000" points="315,-802.5 419,-802.5 "/>
<text text-anchor="start" x="323" y="-790.5" font-family="Helvetica,sans-Serif" font-size="10.00" fill="#000000">+ dict()</text>
<text text-anchor="start" x="323" y="-779.5" font-family="Helvetica,sans-Serif" font-size="10.00" fill="#000000">+ dict()</text>
<text text-anchor="start" x="323" y="-768.5" font-family="Helvetica,sans-Serif" font-size="10.00" fill="#000000">+ operator=()</text>
<text text-anchor="start" x="323" y="-757.5" font-family="Helvetica,sans-Serif" font-size="10.00" fill="#000000">&#45; dict()</text>
</a>
</g>
</g>
<!-- Node4&#45;&gt;Node2 -->
<g id="edge9" class="edge">
<title>Node4&#45;&gt;Node2</title>
<path fill="none" stroke="#404040" d="M366.1489,-750.3343C364.9103,-696.1884 361.9441,-607.8819 355,-532 351.5261,-494.0391 345.9359,-452.133 340.7408,-416.9702"/>
<polygon fill="none" stroke="#404040" points="340.7003,-416.6992 335.8561,-411.3575 338.9238,-404.8315 343.768,-410.1732 340.7003,-416.6992"/>
<text text-anchor="middle" x="378" y="-569.5" font-family="Helvetica,sans-Serif" font-size="10.00" fill="#000000"> +graph</text>
</g>
<!-- Node4&#45;&gt;Node3 -->
<g id="edge3" class="edge">
<title>Node4&#45;&gt;Node3</title>
<path fill="none" stroke="#191970" d="M353.7864,-740.4817C343.9264,-695.3228 330.8944,-635.6362 323.2814,-600.7689"/>
<polygon fill="none" stroke="#191970" points="350.4127,-741.4383 355.9654,-750.4615 357.2516,-739.945 350.4127,-741.4383"/>
</g>
<!-- Node5 -->
<g id="node5" class="node">
<title>Node5</title>
<g id="a_node5"><a xlink:title="STL class. ">
<polygon fill="#ffffff" stroke="#bfbfbf" points="315.5,-889.5 315.5,-968.5 418.5,-968.5 418.5,-889.5 315.5,-889.5"/>
<text text-anchor="start" x="323.5" y="-956.5" font-family="Helvetica,sans-Serif" font-size="10.00" fill="#000000">std::unordered_map</text>
<text text-anchor="start" x="323.5" y="-945.5" font-family="Helvetica,sans-Serif" font-size="10.00" fill="#000000">&lt; const char *, std</text>
<text text-anchor="middle" x="367" y="-934.5" font-family="Helvetica,sans-Serif" font-size="10.00" fill="#000000">::any &gt;</text>
<polyline fill="none" stroke="#bfbfbf" points="315.5,-927.5 418.5,-927.5 "/>
<text text-anchor="middle" x="367" y="-915.5" font-family="Helvetica,sans-Serif" font-size="10.00" fill="#000000"> </text>
<polyline fill="none" stroke="#bfbfbf" points="315.5,-908.5 418.5,-908.5 "/>
<text text-anchor="middle" x="367" y="-896.5" font-family="Helvetica,sans-Serif" font-size="10.00" fill="#000000"> </text>
</a>
</g>
</g>
<!-- Node5&#45;&gt;Node4 -->
<g id="edge4" class="edge">
<title>Node5&#45;&gt;Node4</title>
<path fill="none" stroke="#191970" d="M367,-879.1972C367,-870.1496 367,-860.7033 367,-851.6321"/>
<polygon fill="none" stroke="#191970" points="363.5001,-879.2016 367,-889.2016 370.5001,-879.2017 363.5001,-879.2016"/>
</g>
<!-- Node6 -->
<g id="node6" class="node">
<title>Node6</title>
<polygon fill="#ffffff" stroke="#bfbfbf" points="259.5,-1016.5 259.5,-1073.5 288.5,-1073.5 288.5,-1016.5 259.5,-1016.5"/>
<text text-anchor="middle" x="274" y="-1061.5" font-family="Helvetica,sans-Serif" font-size="10.00" fill="#000000">K</text>
<polyline fill="none" stroke="#bfbfbf" points="259.5,-1054.5 288.5,-1054.5 "/>
<text text-anchor="middle" x="274" y="-1042.5" font-family="Helvetica,sans-Serif" font-size="10.00" fill="#000000"> </text>
<polyline fill="none" stroke="#bfbfbf" points="259.5,-1035.5 288.5,-1035.5 "/>
<text text-anchor="middle" x="274" y="-1023.5" font-family="Helvetica,sans-Serif" font-size="10.00" fill="#000000"> </text>
</g>
<!-- Node6&#45;&gt;Node5 -->
<g id="edge5" class="edge">
<title>Node6&#45;&gt;Node5</title>
<path fill="none" stroke="#404040" d="M269.1574,-1016.4124C268.8259,-1006.5455 270.0593,-995.7757 275,-987 282.092,-974.4032 293.1709,-964.1533 305.2175,-955.9733"/>
<polygon fill="none" stroke="#404040" points="305.3065,-955.918 308.2905,-949.3532 315.498,-949.5828 312.514,-956.1476 305.3065,-955.918"/>
<text text-anchor="middle" x="290.5" y="-990" font-family="Helvetica,sans-Serif" font-size="10.00" fill="#000000"> +keys</text>
</g>
<!-- Node12 -->
<g id="node12" class="node">
<title>Node12</title>
<g id="a_node12"><a xlink:title="STL class. ">
<polygon fill="#ffffff" stroke="#bfbfbf" points="156.5,-889.5 156.5,-968.5 269.5,-968.5 269.5,-889.5 156.5,-889.5"/>
<text text-anchor="start" x="164.5" y="-956.5" font-family="Helvetica,sans-Serif" font-size="10.00" fill="#000000">std::unordered_set</text>
<text text-anchor="start" x="164.5" y="-945.5" font-family="Helvetica,sans-Serif" font-size="10.00" fill="#000000">&lt; typename nodeview</text>
<text text-anchor="middle" x="213" y="-934.5" font-family="Helvetica,sans-Serif" font-size="10.00" fill="#000000">_t::value_type &gt;</text>
<polyline fill="none" stroke="#bfbfbf" points="156.5,-927.5 269.5,-927.5 "/>
<text text-anchor="middle" x="213" y="-915.5" font-family="Helvetica,sans-Serif" font-size="10.00" fill="#000000"> </text>
<polyline fill="none" stroke="#bfbfbf" points="156.5,-908.5 269.5,-908.5 "/>
<text text-anchor="middle" x="213" y="-896.5" font-family="Helvetica,sans-Serif" font-size="10.00" fill="#000000"> </text>
</a>
</g>
</g>
<!-- Node6&#45;&gt;Node12 -->
<g id="edge13" class="edge">
<title>Node6&#45;&gt;Node12</title>
<path fill="none" stroke="#404040" d="M259.1428,-1036.2398C246.7033,-1028.0387 229.6384,-1014.5776 221,-998 218.2536,-992.7296 216.2682,-986.9313 214.8525,-981.0038"/>
<polygon fill="none" stroke="#404040" points="214.7807,-980.5984 209.7945,-975.3889 212.6854,-968.7827 217.6716,-973.9921 214.7807,-980.5984"/>
<text text-anchor="middle" x="236.5" y="-990" font-family="Helvetica,sans-Serif" font-size="10.00" fill="#000000"> +keys</text>
</g>
<!-- Node14 -->
<g id="node14" class="node">
<title>Node14</title>
<g id="a_node14"><a xlink:title="STL class. ">
<polygon fill="#ffffff" stroke="#bfbfbf" points="34,-895 34,-963 132,-963 132,-895 34,-895"/>
<text text-anchor="start" x="42" y="-951" font-family="Helvetica,sans-Serif" font-size="10.00" fill="#000000">std::unordered_set</text>
<text text-anchor="middle" x="83" y="-940" font-family="Helvetica,sans-Serif" font-size="10.00" fill="#000000">&lt; node_t &gt;</text>
<polyline fill="none" stroke="#bfbfbf" points="34,-933 132,-933 "/>
<text text-anchor="middle" x="83" y="-921" font-family="Helvetica,sans-Serif" font-size="10.00" fill="#000000"> </text>
<polyline fill="none" stroke="#bfbfbf" points="34,-914 132,-914 "/>
<text text-anchor="middle" x="83" y="-902" font-family="Helvetica,sans-Serif" font-size="10.00" fill="#000000"> </text>
</a>
</g>
</g>
<!-- Node6&#45;&gt;Node14 -->
<g id="edge17" class="edge">
<title>Node6&#45;&gt;Node14</title>
<path fill="none" stroke="#404040" d="M259.3285,-1038.2672C240.8894,-1029.6339 208.4521,-1013.874 182,-998 167.9714,-989.5814 153.289,-979.878 139.6572,-970.4572"/>
<polygon fill="none" stroke="#404040" points="139.3016,-970.2086 132.0922,-970.0499 129.4659,-963.334 136.6753,-963.4928 139.3016,-970.2086"/>
<text text-anchor="middle" x="197.5" y="-990" font-family="Helvetica,sans-Serif" font-size="10.00" fill="#000000"> +keys</text>
</g>
<!-- Node16 -->
<g id="node16" class="node">
<title>Node16</title>
<g id="a_node16"><a xlink:title="STL class. ">
<polygon fill="#ffffff" stroke="#bfbfbf" points="454.5,-895 454.5,-963 557.5,-963 557.5,-895 454.5,-895"/>
<text text-anchor="start" x="462.5" y="-951" font-family="Helvetica,sans-Serif" font-size="10.00" fill="#000000">std::unordered_map</text>
<text text-anchor="middle" x="506" y="-940" font-family="Helvetica,sans-Serif" font-size="10.00" fill="#000000">&lt; node_t, index_t &gt;</text>
<polyline fill="none" stroke="#bfbfbf" points="454.5,-933 557.5,-933 "/>
<text text-anchor="middle" x="506" y="-921" font-family="Helvetica,sans-Serif" font-size="10.00" fill="#000000"> </text>
<polyline fill="none" stroke="#bfbfbf" points="454.5,-914 557.5,-914 "/>
<text text-anchor="middle" x="506" y="-902" font-family="Helvetica,sans-Serif" font-size="10.00" fill="#000000"> </text>
</a>
</g>
</g>
<!-- Node6&#45;&gt;Node16 -->
<g id="edge20" class="edge">
<title>Node6&#45;&gt;Node16</title>
<path fill="none" stroke="#404040" d="M288.5802,-1028.6901C301.3612,-1015.4254 321.1181,-997.2794 342,-987 376.6453,-969.9453 390.5782,-981.8301 427,-969 432.3377,-967.1197 437.7739,-964.9531 443.1699,-962.6213"/>
<polygon fill="none" stroke="#404040" points="443.217,-962.6 447.0282,-956.4783 454.1449,-957.642 450.3336,-963.7636 443.217,-962.6"/>
<text text-anchor="middle" x="357.5" y="-990" font-family="Helvetica,sans-Serif" font-size="10.00" fill="#000000"> +keys</text>
</g>
<!-- Node18 -->
<g id="node18" class="node">
<title>Node18</title>
<g id="a_node18"><a xlink:title="STL class. ">
<polygon fill="#ffffff" stroke="#bfbfbf" points="575.5,-895 575.5,-963 678.5,-963 678.5,-895 575.5,-895"/>
<text text-anchor="start" x="583.5" y="-951" font-family="Helvetica,sans-Serif" font-size="10.00" fill="#000000">std::unordered_map</text>
<text text-anchor="middle" x="627" y="-940" font-family="Helvetica,sans-Serif" font-size="10.00" fill="#000000">&lt; index_t, node_t &gt;</text>
<polyline fill="none" stroke="#bfbfbf" points="575.5,-933 678.5,-933 "/>
<text text-anchor="middle" x="627" y="-921" font-family="Helvetica,sans-Serif" font-size="10.00" fill="#000000"> </text>
<polyline fill="none" stroke="#bfbfbf" points="575.5,-914 678.5,-914 "/>
<text text-anchor="middle" x="627" y="-902" font-family="Helvetica,sans-Serif" font-size="10.00" fill="#000000"> </text>
</a>
</g>
</g>
<!-- Node6&#45;&gt;Node18 -->
<g id="edge24" class="edge">
<title>Node6&#45;&gt;Node18</title>
<path fill="none" stroke="#404040" d="M288.5003,-1040.6633C331.033,-1027.9554 453.6294,-991.4198 472,-987 513.7812,-976.9477 527.2148,-985.2437 567,-969 567.5216,-968.7871 568.0433,-968.5692 568.5652,-968.3468"/>
<polygon fill="none" stroke="#404040" points="568.6666,-968.2978 572.3276,-962.0851 579.4705,-963.075 575.8095,-969.2877 568.6666,-968.2978"/>
<text text-anchor="middle" x="487.5" y="-990" font-family="Helvetica,sans-Serif" font-size="10.00" fill="#000000"> +keys</text>
</g>
<!-- Node7 -->
<g id="node7" class="node">
<title>Node7</title>
<polygon fill="#ffffff" stroke="#bfbfbf" points="493.5,-1016.5 493.5,-1073.5 522.5,-1073.5 522.5,-1016.5 493.5,-1016.5"/>
<text text-anchor="middle" x="508" y="-1061.5" font-family="Helvetica,sans-Serif" font-size="10.00" fill="#000000">T</text>
<polyline fill="none" stroke="#bfbfbf" points="493.5,-1054.5 522.5,-1054.5 "/>
<text text-anchor="middle" x="508" y="-1042.5" font-family="Helvetica,sans-Serif" font-size="10.00" fill="#000000"> </text>
<polyline fill="none" stroke="#bfbfbf" points="493.5,-1035.5 522.5,-1035.5 "/>
<text text-anchor="middle" x="508" y="-1023.5" font-family="Helvetica,sans-Serif" font-size="10.00" fill="#000000"> </text>
</g>
<!-- Node7&#45;&gt;Node5 -->
<g id="edge6" class="edge">
<title>Node7&#45;&gt;Node5</title>
<path fill="none" stroke="#404040" d="M493.1474,-1043.8455C466.8239,-1040.9734 412.0301,-1031.1322 383,-998 378.5429,-992.9131 375.2624,-986.827 372.8587,-980.406"/>
<polygon fill="none" stroke="#404040" points="372.7831,-980.1472 367.2595,-975.5115 369.4142,-968.6298 374.9378,-973.2655 372.7831,-980.1472"/>
<text text-anchor="middle" x="407.5" y="-990" font-family="Helvetica,sans-Serif" font-size="10.00" fill="#000000"> +elements</text>
</g>
<!-- Node7&#45;&gt;Node16 -->
<g id="edge21" class="edge">
<title>Node7&#45;&gt;Node16</title>
<path fill="none" stroke="#404040" d="M507.5056,-1016.3258C507.2931,-1003.9977 507.0392,-989.2709 506.8009,-975.4549"/>
<polygon fill="none" stroke="#404040" points="506.7952,-975.116 502.6923,-969.1859 506.5882,-963.1178 510.6911,-969.0479 506.7952,-975.116"/>
<text text-anchor="middle" x="532.5" y="-990" font-family="Helvetica,sans-Serif" font-size="10.00" fill="#000000"> +elements</text>
</g>
<!-- Node7&#45;&gt;Node18 -->
<g id="edge25" class="edge">
<title>Node7&#45;&gt;Node18</title>
<path fill="none" stroke="#404040" d="M522.6862,-1032.5466C533.4897,-1023.2495 548.4208,-1010.1135 561,-998 569.5076,-989.8073 578.3921,-980.8301 586.7846,-972.1397"/>
<polygon fill="none" stroke="#404040" points="587.0156,-971.8984 588.277,-964.7985 595.3159,-963.2321 594.0546,-970.332 587.0156,-971.8984"/>
<text text-anchor="middle" x="596.5" y="-990" font-family="Helvetica,sans-Serif" font-size="10.00" fill="#000000"> +elements</text>
</g>
<!-- Node8 -->
<g id="node8" class="node">
<title>Node8</title>
<polygon fill="#ffffff" stroke="#bfbfbf" points="64,-543.5 64,-600.5 130,-600.5 130,-543.5 64,-543.5"/>
<text text-anchor="middle" x="97" y="-588.5" font-family="Helvetica,sans-Serif" font-size="10.00" fill="#000000">nodeview_t</text>
<polyline fill="none" stroke="#bfbfbf" points="64,-581.5 130,-581.5 "/>
<text text-anchor="middle" x="97" y="-569.5" font-family="Helvetica,sans-Serif" font-size="10.00" fill="#000000"> </text>
<polyline fill="none" stroke="#bfbfbf" points="64,-562.5 130,-562.5 "/>
<text text-anchor="middle" x="97" y="-550.5" font-family="Helvetica,sans-Serif" font-size="10.00" fill="#000000"> </text>
</g>
<!-- Node8&#45;&gt;Node1 -->
<g id="edge14" class="edge">
<title>Node8&#45;&gt;Node1</title>
<path fill="none" stroke="#404040" d="M102.3504,-543.1633C114.2594,-485.6047 147.6324,-354.731 218,-270 258.5255,-221.2025 316.0576,-177.9932 361.1156,-148.1928"/>
<polygon fill="none" stroke="#404040" points="361.3554,-148.0362 364.1932,-141.4069 371.404,-141.4766 368.5662,-148.1059 361.3554,-148.0362"/>
<text text-anchor="middle" x="241" y="-340.5" font-family="Helvetica,sans-Serif" font-size="10.00" fill="#000000"> +modules</text>
<text text-anchor="middle" x="241" y="-329.5" font-family="Helvetica,sans-Serif" font-size="10.00" fill="#000000">+nets</text>
</g>
<!-- Node8&#45;&gt;Node2 -->
<g id="edge7" class="edge">
<title>Node8&#45;&gt;Node2</title>
<path fill="none" stroke="#404040" d="M118.7066,-543.2849C125.6077,-534.0067 133.209,-523.629 140,-514 168.0625,-474.2098 166.605,-457.4638 201,-423 219.1525,-404.8112 241.7073,-388.1663 262.7505,-374.4934"/>
<polygon fill="none" stroke="#404040" points="262.8037,-374.4596 265.7241,-367.8663 272.9334,-368.0262 270.013,-374.6195 262.8037,-374.4596"/>
<text text-anchor="middle" x="219" y="-466" font-family="Helvetica,sans-Serif" font-size="10.00" fill="#000000"> +_node</text>
</g>
<!-- Node9 -->
<g id="node9" class="node">
<title>Node9</title>
<polygon fill="#ffffff" stroke="#bfbfbf" points="435.5,-543.5 435.5,-600.5 500.5,-600.5 500.5,-543.5 435.5,-543.5"/>
<text text-anchor="middle" x="468" y="-588.5" font-family="Helvetica,sans-Serif" font-size="10.00" fill="#000000">nodemap_t</text>
<polyline fill="none" stroke="#bfbfbf" points="435.5,-581.5 500.5,-581.5 "/>
<text text-anchor="middle" x="468" y="-569.5" font-family="Helvetica,sans-Serif" font-size="10.00" fill="#000000"> </text>
<polyline fill="none" stroke="#bfbfbf" points="435.5,-562.5 500.5,-562.5 "/>
<text text-anchor="middle" x="468" y="-550.5" font-family="Helvetica,sans-Serif" font-size="10.00" fill="#000000"> </text>
</g>
<!-- Node9&#45;&gt;Node1 -->
<g id="edge26" class="edge">
<title>Node9&#45;&gt;Node1</title>
<path fill="none" stroke="#404040" d="M462.3671,-543.3201C456.3347,-513.2324 446.2404,-464.6205 436,-423 434.0163,-414.9375 432.1214,-413.2268 431,-405 422.9178,-345.7061 422.1147,-279.1814 423.6738,-223.9622"/>
<polygon fill="none" stroke="#404040" points="423.6843,-223.6294 419.8772,-217.5052 424.066,-211.6355 427.8731,-217.7597 423.6843,-223.6294"/>
<text text-anchor="middle" x="463.5" y="-335" font-family="Helvetica,sans-Serif" font-size="10.00" fill="#000000"> +module_map</text>
</g>
<!-- Node9&#45;&gt;Node2 -->
<g id="edge8" class="edge">
<title>Node9&#45;&gt;Node2</title>
<path fill="none" stroke="#404040" d="M437.2156,-543.4016C432.011,-539.2822 426.5048,-535.3208 421,-532 402.5556,-520.8733 390.1862,-530.2096 376,-514 348.5266,-482.608 363.9667,-463.2489 353,-423 352.3902,-420.7618 351.7659,-418.4924 351.1311,-416.203"/>
<polygon fill="none" stroke="#404040" points="351.1294,-416.1964 345.6567,-411.5006 347.8864,-404.6429 353.3591,-409.3387 351.1294,-416.1964"/>
<text text-anchor="middle" x="406" y="-466" font-family="Helvetica,sans-Serif" font-size="10.00" fill="#000000"> +_node_map</text>
</g>
<!-- Node10 -->
<g id="node10" class="node">
<title>Node10</title>
<polygon fill="#ffffff" stroke="#bfbfbf" points="148.5,-532.5 148.5,-611.5 269.5,-611.5 269.5,-532.5 148.5,-532.5"/>
<text text-anchor="start" x="156.5" y="-599.5" font-family="Helvetica,sans-Serif" font-size="10.00" fill="#000000">std::vector&lt; py::set</text>
<text text-anchor="start" x="156.5" y="-588.5" font-family="Helvetica,sans-Serif" font-size="10.00" fill="#000000">&lt; typename nodeview_t</text>
<text text-anchor="middle" x="209" y="-577.5" font-family="Helvetica,sans-Serif" font-size="10.00" fill="#000000">::value_type &gt; &gt;</text>
<polyline fill="none" stroke="#bfbfbf" points="148.5,-570.5 269.5,-570.5 "/>
<text text-anchor="middle" x="209" y="-558.5" font-family="Helvetica,sans-Serif" font-size="10.00" fill="#000000"> </text>
<polyline fill="none" stroke="#bfbfbf" points="148.5,-551.5 269.5,-551.5 "/>
<text text-anchor="middle" x="209" y="-539.5" font-family="Helvetica,sans-Serif" font-size="10.00" fill="#000000"> </text>
</g>
<!-- Node10&#45;&gt;Node2 -->
<g id="edge10" class="edge">
<title>Node10&#45;&gt;Node2</title>
<path fill="none" stroke="#404040" d="M229.0522,-532.4854C245.218,-500.6293 268.4546,-454.8395 288.348,-415.6377"/>
<polygon fill="none" stroke="#404040" points="288.4313,-415.4735 287.5795,-408.3129 293.8617,-404.7725 294.7135,-411.9331 288.4313,-415.4735"/>
<text text-anchor="middle" x="297" y="-466" font-family="Helvetica,sans-Serif" font-size="10.00" fill="#000000"> +_adj</text>
</g>
<!-- Node11 -->
<g id="node11" class="node">
<title>Node11</title>
<g id="a_node11"><a xlink:href="classpy_1_1set.html" target="_top" xlink:title="{py::set\&lt; typename nodeview\l_t::value_type \&gt;\n||+ set()\l+ set()\l+ operator=()\l&#45; set()\l}">
<polygon fill="#ffffff" stroke="#000000" points="138.5,-750.5 138.5,-851.5 281.5,-851.5 281.5,-750.5 138.5,-750.5"/>
<text text-anchor="start" x="146.5" y="-839.5" font-family="Helvetica,sans-Serif" font-size="10.00" fill="#000000">py::set&lt; typename nodeview</text>
<text text-anchor="middle" x="210" y="-828.5" font-family="Helvetica,sans-Serif" font-size="10.00" fill="#000000">_t::value_type &gt;</text>
<polyline fill="none" stroke="#000000" points="138.5,-821.5 281.5,-821.5 "/>
<text text-anchor="middle" x="210" y="-809.5" font-family="Helvetica,sans-Serif" font-size="10.00" fill="#000000"> </text>
<polyline fill="none" stroke="#000000" points="138.5,-802.5 281.5,-802.5 "/>
<text text-anchor="start" x="146.5" y="-790.5" font-family="Helvetica,sans-Serif" font-size="10.00" fill="#000000">+ set()</text>
<text text-anchor="start" x="146.5" y="-779.5" font-family="Helvetica,sans-Serif" font-size="10.00" fill="#000000">+ set()</text>
<text text-anchor="start" x="146.5" y="-768.5" font-family="Helvetica,sans-Serif" font-size="10.00" fill="#000000">+ operator=()</text>
<text text-anchor="start" x="146.5" y="-757.5" font-family="Helvetica,sans-Serif" font-size="10.00" fill="#000000">&#45; set()</text>
</a>
</g>
</g>
<!-- Node11&#45;&gt;Node10 -->
<g id="edge11" class="edge">
<title>Node11&#45;&gt;Node10</title>
<path fill="none" stroke="#404040" d="M209.7793,-750.4615C209.6155,-712.9484 209.3928,-661.949 209.2274,-624.0745"/>
<polygon fill="none" stroke="#404040" points="209.2262,-623.7716 205.2,-617.7892 209.1737,-611.7717 213.1999,-617.7542 209.2262,-623.7716"/>
<text text-anchor="middle" x="234.5" y="-678.5" font-family="Helvetica,sans-Serif" font-size="10.00" fill="#000000"> +elements</text>
</g>
<!-- Node12&#45;&gt;Node11 -->
<g id="edge12" class="edge">
<title>Node12&#45;&gt;Node11</title>
<path fill="none" stroke="#191970" d="M211.8327,-879.1972C211.6207,-870.1496 211.3993,-860.7033 211.1867,-851.6321"/>
<polygon fill="none" stroke="#191970" points="208.3338,-879.2864 212.0672,-889.2016 215.3319,-879.1223 208.3338,-879.2864"/>
</g>
<!-- Node13 -->
<g id="node13" class="node">
<title>Node13</title>
<g id="a_node13"><a xlink:href="classpy_1_1set.html" target="_top" xlink:title="{py::set\&lt; node_t \&gt;\n||+ set()\l+ set()\l+ operator=()\l&#45; set()\l}">
<polygon fill="#ffffff" stroke="#000000" points="0,-636 0,-726 94,-726 94,-636 0,-636"/>
<text text-anchor="middle" x="47" y="-714" font-family="Helvetica,sans-Serif" font-size="10.00" fill="#000000">py::set&lt; node_t &gt;</text>
<polyline fill="none" stroke="#000000" points="0,-707 94,-707 "/>
<text text-anchor="middle" x="47" y="-695" font-family="Helvetica,sans-Serif" font-size="10.00" fill="#000000"> </text>
<polyline fill="none" stroke="#000000" points="0,-688 94,-688 "/>
<text text-anchor="start" x="8" y="-676" font-family="Helvetica,sans-Serif" font-size="10.00" fill="#000000">+ set()</text>
<text text-anchor="start" x="8" y="-665" font-family="Helvetica,sans-Serif" font-size="10.00" fill="#000000">+ set()</text>
<text text-anchor="start" x="8" y="-654" font-family="Helvetica,sans-Serif" font-size="10.00" fill="#000000">+ operator=()</text>
<text text-anchor="start" x="8" y="-643" font-family="Helvetica,sans-Serif" font-size="10.00" fill="#000000">&#45; set()</text>
</a>
</g>
</g>
<!-- Node13&#45;&gt;Node1 -->
<g id="edge15" class="edge">
<title>Node13&#45;&gt;Node1</title>
<path fill="none" stroke="#404040" d="M37.0525,-635.5924C27.4983,-583.1565 17.4113,-494.8905 39,-423 62.4346,-344.9626 80.3968,-325.556 140,-270 205.33,-209.106 297.3691,-162.1262 360.3397,-134.3568"/>
<polygon fill="none" stroke="#404040" points="360.3522,-134.3514 364.2581,-128.2897 371.3558,-129.5638 367.4499,-135.6255 360.3522,-134.3514"/>
<text text-anchor="middle" x="72.5" y="-466" font-family="Helvetica,sans-Serif" font-size="10.00" fill="#000000"> +module_fixed</text>
</g>
<!-- Node14&#45;&gt;Node13 -->
<g id="edge16" class="edge">
<title>Node14&#45;&gt;Node13</title>
<path fill="none" stroke="#191970" d="M76.582,-884.7874C70.0905,-840.0681 60.1058,-771.2845 53.5629,-726.211"/>
<polygon fill="none" stroke="#191970" points="73.1318,-885.3836 78.0322,-894.777 80.0592,-884.3779 73.1318,-885.3836"/>
</g>
<!-- Node15 -->
<g id="node15" class="node">
<title>Node15</title>
<g id="a_node15"><a xlink:href="classpy_1_1dict.html" target="_top" xlink:title="{py::dict\&lt; node_t, index_t \&gt;\n||+ dict()\l+ dict()\l+ operator=()\l&#45; dict()\l}">
<polygon fill="#ffffff" stroke="#000000" points="465,-423.5 465,-513.5 599,-513.5 599,-423.5 465,-423.5"/>
<text text-anchor="middle" x="532" y="-501.5" font-family="Helvetica,sans-Serif" font-size="10.00" fill="#000000">py::dict&lt; node_t, index_t &gt;</text>
<polyline fill="none" stroke="#000000" points="465,-494.5 599,-494.5 "/>
<text text-anchor="middle" x="532" y="-482.5" font-family="Helvetica,sans-Serif" font-size="10.00" fill="#000000"> </text>
<polyline fill="none" stroke="#000000" points="465,-475.5 599,-475.5 "/>
<text text-anchor="start" x="473" y="-463.5" font-family="Helvetica,sans-Serif" font-size="10.00" fill="#000000">+ dict()</text>
<text text-anchor="start" x="473" y="-452.5" font-family="Helvetica,sans-Serif" font-size="10.00" fill="#000000">+ dict()</text>
<text text-anchor="start" x="473" y="-441.5" font-family="Helvetica,sans-Serif" font-size="10.00" fill="#000000">+ operator=()</text>
<text text-anchor="start" x="473" y="-430.5" font-family="Helvetica,sans-Serif" font-size="10.00" fill="#000000">&#45; dict()</text>
</a>
</g>
</g>
<!-- Node15&#45;&gt;Node1 -->
<g id="edge18" class="edge">
<title>Node15&#45;&gt;Node1</title>
<path fill="none" stroke="#404040" d="M527.8158,-423.2891C523.3232,-382.6147 514.7583,-321.5093 500,-270 495.5841,-254.5877 490.1226,-238.6837 484.2209,-223.1209"/>
<polygon fill="none" stroke="#404040" points="484.1931,-223.0491 478.2944,-218.9013 479.8544,-211.8609 485.7532,-216.0088 484.1931,-223.0491"/>
<text text-anchor="middle" x="561" y="-335" font-family="Helvetica,sans-Serif" font-size="10.00" fill="#000000"> +node_up_map</text>
</g>
<!-- Node16&#45;&gt;Node15 -->
<g id="edge19" class="edge">
<title>Node16&#45;&gt;Node15</title>
<path fill="none" stroke="#191970" d="M508.5066,-884.6045C513.4626,-796.8267 524.4654,-601.9491 529.4536,-513.6009"/>
<polygon fill="none" stroke="#191970" points="505.0023,-884.5824 507.933,-894.7639 511.9912,-884.9771 505.0023,-884.5824"/>
</g>
<!-- Node17 -->
<g id="node17" class="node">
<title>Node17</title>
<g id="a_node17"><a xlink:href="classpy_1_1dict.html" target="_top" xlink:title="{py::dict\&lt; index_t,\l node_t \&gt;\n||+ dict()\l+ dict()\l+ operator=()\l&#45; dict()\l}">
<polygon fill="#ffffff" stroke="#000000" points="584,-630.5 584,-731.5 676,-731.5 676,-630.5 584,-630.5"/>
<text text-anchor="start" x="592" y="-719.5" font-family="Helvetica,sans-Serif" font-size="10.00" fill="#000000">py::dict&lt; index_t,</text>
<text text-anchor="middle" x="630" y="-708.5" font-family="Helvetica,sans-Serif" font-size="10.00" fill="#000000"> node_t &gt;</text>
<polyline fill="none" stroke="#000000" points="584,-701.5 676,-701.5 "/>
<text text-anchor="middle" x="630" y="-689.5" font-family="Helvetica,sans-Serif" font-size="10.00" fill="#000000"> </text>
<polyline fill="none" stroke="#000000" points="584,-682.5 676,-682.5 "/>
<text text-anchor="start" x="592" y="-670.5" font-family="Helvetica,sans-Serif" font-size="10.00" fill="#000000">+ dict()</text>
<text text-anchor="start" x="592" y="-659.5" font-family="Helvetica,sans-Serif" font-size="10.00" fill="#000000">+ dict()</text>
<text text-anchor="start" x="592" y="-648.5" font-family="Helvetica,sans-Serif" font-size="10.00" fill="#000000">+ operator=()</text>
<text text-anchor="start" x="592" y="-637.5" font-family="Helvetica,sans-Serif" font-size="10.00" fill="#000000">&#45; dict()</text>
</a>
</g>
</g>
<!-- Node17&#45;&gt;Node1 -->
<g id="edge22" class="edge">
<title>Node17&#45;&gt;Node1</title>
<path fill="none" stroke="#404040" d="M637.3883,-630.3914C646.7884,-549.8592 655.746,-389.4523 600,-270 578.1768,-223.2372 536.7899,-182.7191 500.4362,-153.6558"/>
<polygon fill="none" stroke="#404040" points="500.2813,-153.5347 493.0908,-152.9895 490.8284,-146.1425 498.0189,-146.6876 500.2813,-153.5347"/>
<text text-anchor="middle" x="689.5" y="-471.5" font-family="Helvetica,sans-Serif" font-size="10.00" fill="#000000"> +cluster_down_map</text>
<text text-anchor="middle" x="689.5" y="-460.5" font-family="Helvetica,sans-Serif" font-size="10.00" fill="#000000">+node_down_map</text>
</g>
<!-- Node18&#45;&gt;Node17 -->
<g id="edge23" class="edge">
<title>Node18&#45;&gt;Node17</title>
<path fill="none" stroke="#191970" d="M627.5368,-884.623C628.0566,-841.6548 628.8438,-776.5823 629.3877,-731.6176"/>
<polygon fill="none" stroke="#191970" points="624.0353,-884.7354 627.414,-894.777 631.0348,-884.8201 624.0353,-884.7354"/>
</g>
<!-- Node19 -->
<g id="node19" class="node">
<title>Node19</title>
<polygon fill="#ffffff" stroke="#bfbfbf" points="658,-309 658,-366 750,-366 750,-309 658,-309"/>
<text text-anchor="middle" x="704" y="-354" font-family="Helvetica,sans-Serif" font-size="10.00" fill="#000000">std::vector&lt; int &gt;</text>
<polyline fill="none" stroke="#bfbfbf" points="658,-347 750,-347 "/>
<text text-anchor="start" x="666" y="-335" font-family="Helvetica,sans-Serif" font-size="10.00" fill="#000000">+ elements</text>
<polyline fill="none" stroke="#bfbfbf" points="658,-328 750,-328 "/>
<text text-anchor="middle" x="704" y="-316" font-family="Helvetica,sans-Serif" font-size="10.00" fill="#000000"> </text>
</g>
<!-- Node19&#45;&gt;Node1 -->
<g id="edge27" class="edge">
<title>Node19&#45;&gt;Node1</title>
<path fill="none" stroke="#404040" d="M693.0111,-308.7673C682.9785,-285.4109 666.3137,-252.7219 644,-230 603.6475,-188.9093 546.8487,-156.7499 502.0513,-135.4888"/>
<polygon fill="none" stroke="#404040" points="501.8186,-135.3805 494.6913,-136.4768 490.9381,-130.3194 498.0654,-129.2231 501.8186,-135.3805"/>
<text text-anchor="middle" x="698.5" y="-244" font-family="Helvetica,sans-Serif" font-size="10.00" fill="#000000"> +module_weight</text>
<text text-anchor="middle" x="698.5" y="-233" font-family="Helvetica,sans-Serif" font-size="10.00" fill="#000000">+net_weight</text>
</g>
</g>
</svg>
        <g id="navigator" transform="translate(0 0)" fill="#404254">
                <rect fill="#f2f5e9" fill-opacity="0.5" stroke="#606060" stroke-width=".5" x="0" y="0" width="60" height="60"/>
                <use id="zoomplus" xlink:href="#zoomPlus" x="17" y="9" onmousedown="handleZoom(evt,'in')"/>
                <use id="zoomminus" xlink:href="#zoomMin" x="42" y="9" onmousedown="handleZoom(evt,'out')"/>
                <use id="reset" xlink:href="#resetDef" x="30" y="36" onmousedown="handleReset()"/>
                <g id="arrowUp" xlink:href="#dirArrow" transform="translate(30 24)" onmousedown="handlePan(0,-1)">
                  <use xlink:href="#rim" fill="#404040">
                        <set attributeName="fill" to="#808080" begin="arrowUp.mouseover" end="arrowUp.mouseout"/>
                  </use>
                  <path fill="none" stroke="white" stroke-width="1.5" d="M0,-3.0v7 M-2.5,-0.5L0,-3.0L2.5,-0.5"/>
                </g>
                <g id="arrowRight" xlink:href="#dirArrow" transform="rotate(90) translate(36 -43)" onmousedown="handlePan(1,0)">
                  <use xlink:href="#rim" fill="#404040">
                        <set attributeName="fill" to="#808080" begin="arrowRight.mouseover" end="arrowRight.mouseout"/>
                  </use>
                  <path fill="none" stroke="white" stroke-width="1.5" d="M0,-3.0v7 M-2.5,-0.5L0,-3.0L2.5,-0.5"/>
                </g>
                <g id="arrowDown" xlink:href="#dirArrow" transform="rotate(180) translate(-30 -48)" onmousedown="handlePan(0,1)">
                  <use xlink:href="#rim" fill="#404040">
                        <set attributeName="fill" to="#808080" begin="arrowDown.mouseover" end="arrowDown.mouseout"/>
                  </use>
                  <path fill="none" stroke="white" stroke-width="1.5" d="M0,-3.0v7 M-2.5,-0.5L0,-3.0L2.5,-0.5"/>
                </g>
                <g id="arrowLeft" xlink:href="#dirArrow" transform="rotate(270) translate(-36 17)" onmousedown="handlePan(-1,0)">
                  <use xlink:href="#rim" fill="#404040">
                        <set attributeName="fill" to="#808080" begin="arrowLeft.mouseover" end="arrowLeft.mouseout"/>
                  </use>
                  <path fill="none" stroke="white" stroke-width="1.5" d="M0,-3.0v7 M-2.5,-0.5L0,-3.0L2.5,-0.5"/>
                </g>
        </g>
        <svg viewBox="0 0 15 15" width="100%" height="30px" preserveAspectRatio="xMaxYMin meet">
         <g id="arrow_out" transform="scale(0.3 0.3)">
          <a xlink:href="structNetlist__coll__graph_org.svg" target="_base">
           <rect id="button" ry="5" rx="5" y="6" x="6" height="38" width="38"
                fill="#f2f5e9" fill-opacity="0.5" stroke="#606060" stroke-width="1.0"/>
           <path id="arrow"
             d="M 11.500037,31.436501 C 11.940474,20.09759 22.043105,11.32322 32.158766,21.979434 L 37.068811,17.246167 C 37.068811,17.246167 37.088388,32 37.088388,32 L 22.160133,31.978069 C 22.160133,31.978069 26.997745,27.140456 26.997745,27.140456 C 18.528582,18.264221 13.291696,25.230495 11.500037,31.436501 z"
             style="fill:#404040;"/>
          </a>
         </g>
        </svg>
</svg>
