<?xml version="1.0" encoding="UTF-8" standalone="no"?>
<!DOCTYPE svg PUBLIC "-//W3C//DTD SVG 1.1//EN"
 "http://www.w3.org/Graphics/SVG/1.1/DTD/svg11.dtd">
<!-- Generated by graphviz version 2.40.1 (20161225.0304)
 -->
<!-- Title: Netlist::number_of_nets Pages: 1 -->
<svg width="341pt" height="28pt"
 viewBox="0.00 0.00 341.00 28.00" xmlns="http://www.w3.org/2000/svg" xmlns:xlink="http://www.w3.org/1999/xlink">
<g id="graph0" class="graph" transform="scale(1 1) rotate(0) translate(4 24)">
<title>Netlist::number_of_nets</title>
<polygon fill="#ffffff" stroke="transparent" points="-4,4 -4,-24 337,-24 337,4 -4,4"/>
<!-- Node59 -->
<g id="node1" class="node">
<title>Node59</title>
<polygon fill="#bfbfbf" stroke="#000000" points="0,-.5 0,-19.5 121,-19.5 121,-.5 0,-.5"/>
<text text-anchor="middle" x="60.5" y="-7.5" font-family="Helvetica,sans-Serif" font-size="10.00" fill="#000000">Netlist::number_of_nets</text>
</g>
<!-- Node60 -->
<g id="node2" class="node">
<title>Node60</title>
<g id="a_node2"><a xlink:href="test__readwrite_8cpp.html#a9123ee095cdaed338fcc85cb08a279d9" target="_top" xlink:title="writeJSON">
<polygon fill="#ffffff" stroke="#000000" points="157,-.5 157,-19.5 222,-19.5 222,-.5 157,-.5"/>
<text text-anchor="middle" x="189.5" y="-7.5" font-family="Helvetica,sans-Serif" font-size="10.00" fill="#000000">writeJSON</text>
</a>
</g>
</g>
<!-- Node59&#45;&gt;Node60 -->
<g id="edge1" class="edge">
<title>Node59&#45;&gt;Node60</title>
<path fill="none" stroke="#191970" d="M131.3052,-10C140.207,-10 148.9471,-10 156.8384,-10"/>
<polygon fill="#191970" stroke="#191970" points="131.2227,-6.5001 121.2226,-10 131.2226,-13.5001 131.2227,-6.5001"/>
</g>
<!-- Node61 -->
<g id="node3" class="node">
<title>Node61</title>
<g id="a_node3"><a xlink:href="test__readwrite_8cpp.html#addf60c50bd60794c03d3a9017201bed8" target="_top" xlink:title="TEST_CASE">
<polygon fill="#ffffff" stroke="#000000" points="258,-.5 258,-19.5 333,-19.5 333,-.5 258,-.5"/>
<text text-anchor="middle" x="295.5" y="-7.5" font-family="Helvetica,sans-Serif" font-size="10.00" fill="#000000">TEST_CASE</text>
</a>
</g>
</g>
<!-- Node60&#45;&gt;Node61 -->
<g id="edge2" class="edge">
<title>Node60&#45;&gt;Node61</title>
<path fill="none" stroke="#191970" d="M232.2838,-10C240.775,-10 249.6299,-10 257.9314,-10"/>
<polygon fill="#191970" stroke="#191970" points="232.1685,-6.5001 222.1684,-10 232.1684,-13.5001 232.1685,-6.5001"/>
</g>
</g>
</svg>
