<?xml version="1.0" encoding="UTF-8" standalone="no"?>
<!DOCTYPE svg PUBLIC "-//W3C//DTD SVG 1.1//EN"
 "http://www.w3.org/Graphics/SVG/1.1/DTD/svg11.dtd">
<!-- Generated by graphviz version 2.40.1 (20161225.0304)
 -->
<!-- Title: /media/lubuntu/USBDISK/github/ckpttncpp/third_party/cppitertools/examples/takewhile_examples.cpp Pages: 1 -->
<!--zoomable 341 -->
<svg id="main" version="1.1" xmlns="http://www.w3.org/2000/svg" xmlns:xlink="http://www.w3.org/1999/xlink" xml:space="preserve" onload="init(evt)">
<style type="text/css"><![CDATA[
.edge:hover path { stroke: red; }
.edge:hover polygon { stroke: red; fill: red; }
]]></style>
<script type="text/javascript"><![CDATA[
var edges = document.getElementsByTagName('g');
if (edges && edges.length) {
  for (var i=0;i<edges.length;i++) {
    if (edges[i].id.substr(0,4)=='edge') {
      edges[i].setAttribute('class','edge');
    }
  }
}
]]></script>
        <defs>
                <circle id="rim" cx="0" cy="0" r="7"/>
                <circle id="rim2" cx="0" cy="0" r="3.5"/>
                <g id="zoomPlus">
                        <use xlink:href="#rim" fill="#404040">
                                <set attributeName="fill" to="#808080" begin="zoomplus.mouseover" end="zoomplus.mouseout"/>
                        </use>
                        <path d="M-4,0h8M0,-4v8" fill="none" stroke="white" stroke-width="1.5" pointer-events="none"/>
                </g>
                <g id="zoomMin">
                        <use xlink:href="#rim" fill="#404040">
                                <set attributeName="fill" to="#808080" begin="zoomminus.mouseover" end="zoomminus.mouseout"/>
                        </use>
                        <path d="M-4,0h8" fill="none" stroke="white" stroke-width="1.5" pointer-events="none"/>
                </g>
                <g id="dirArrow">
                        <path fill="none" stroke="white" stroke-width="1.5" d="M0,-3.0v7 M-2.5,-0.5L0,-3.0L2.5,-0.5"/>
                </g>
               <g id="resetDef">
                       <use xlink:href="#rim2" fill="#404040">
                               <set attributeName="fill" to="#808080" begin="reset.mouseover" end="reset.mouseout"/>
                       </use>
               </g>
        </defs>

<script type="text/javascript">
var viewWidth = 537;
var viewHeight = 341;
var sectionId = 'dynsection-0';
</script>
<script xlink:href="svgpan.js"/>
<svg id="graph" class="graph">
<g id="viewport">
<title>/media/lubuntu/USBDISK/github/ckpttncpp/third_party/cppitertools/examples/takewhile_examples.cpp</title>
<polygon fill="#ffffff" stroke="transparent" points="-4,4 -4,-337 532.6312,-337 532.6312,4 -4,4"/>
<!-- Node0 -->
<g id="node1" class="node">
<title>Node0</title>
<polygon fill="#bfbfbf" stroke="#000000" points="363.6312,-280.5 363.6312,-332.5 505.6312,-332.5 505.6312,-280.5 363.6312,-280.5"/>
<text text-anchor="start" x="371.6312" y="-320.5" font-family="Helvetica,sans-Serif" font-size="10.00" fill="#000000">/media/lubuntu/USBDISK</text>
<text text-anchor="start" x="371.6312" y="-309.5" font-family="Helvetica,sans-Serif" font-size="10.00" fill="#000000">/github/ckpttncpp/third</text>
<text text-anchor="start" x="371.6312" y="-298.5" font-family="Helvetica,sans-Serif" font-size="10.00" fill="#000000">_party/cppitertools/examples</text>
<text text-anchor="middle" x="434.6312" y="-287.5" font-family="Helvetica,sans-Serif" font-size="10.00" fill="#000000">/takewhile_examples.cpp</text>
</g>
<!-- Node1 -->
<g id="node2" class="node">
<title>Node1</title>
<g id="a_node2"><a xlink:href="takewhile_8hpp.html" target="_top" xlink:title="takewhile.hpp">
<polygon fill="#ffffff" stroke="#000000" points="317.1312,-224.5 317.1312,-243.5 394.1312,-243.5 394.1312,-224.5 317.1312,-224.5"/>
<text text-anchor="middle" x="355.6312" y="-231.5" font-family="Helvetica,sans-Serif" font-size="10.00" fill="#000000">takewhile.hpp</text>
</a>
</g>
</g>
<!-- Node0&#45;&gt;Node1 -->
<g id="edge1" class="edge">
<title>Node0&#45;&gt;Node1</title>
<path fill="none" stroke="#191970" d="M406.1104,-280.3258C395.1994,-270.3126 383.0743,-259.1851 373.4427,-250.346"/>
<polygon fill="#191970" stroke="#191970" points="375.7542,-247.7168 366.02,-243.534 371.0211,-252.8742 375.7542,-247.7168"/>
</g>
<!-- Node15 -->
<g id="node16" class="node">
<title>Node15</title>
<polygon fill="#ffffff" stroke="#bfbfbf" points="412.6312,-224.5 412.6312,-243.5 456.6312,-243.5 456.6312,-224.5 412.6312,-224.5"/>
<text text-anchor="middle" x="434.6312" y="-231.5" font-family="Helvetica,sans-Serif" font-size="10.00" fill="#000000">vector</text>
</g>
<!-- Node0&#45;&gt;Node15 -->
<g id="edge25" class="edge">
<title>Node0&#45;&gt;Node15</title>
<path fill="none" stroke="#191970" d="M434.6312,-280.3258C434.6312,-271.5142 434.6312,-261.8397 434.6312,-253.621"/>
<polygon fill="#191970" stroke="#191970" points="438.1313,-253.534 434.6312,-243.534 431.1313,-253.534 438.1313,-253.534"/>
</g>
<!-- Node16 -->
<g id="node17" class="node">
<title>Node16</title>
<polygon fill="#ffffff" stroke="#bfbfbf" points="474.6312,-224.5 474.6312,-243.5 528.6312,-243.5 528.6312,-224.5 474.6312,-224.5"/>
<text text-anchor="middle" x="501.6312" y="-231.5" font-family="Helvetica,sans-Serif" font-size="10.00" fill="#000000">iostream</text>
</g>
<!-- Node0&#45;&gt;Node16 -->
<g id="edge26" class="edge">
<title>Node0&#45;&gt;Node16</title>
<path fill="none" stroke="#191970" d="M458.8197,-280.3258C467.8883,-270.5128 477.9458,-259.6298 486.0326,-250.879"/>
<polygon fill="#191970" stroke="#191970" points="488.6039,-253.2536 492.8205,-243.534 483.463,-248.5027 488.6039,-253.2536"/>
</g>
<!-- Node2 -->
<g id="node3" class="node">
<title>Node2</title>
<g id="a_node3"><a xlink:href="filter_8hpp.html" target="_top" xlink:title="filter.hpp">
<polygon fill="#ffffff" stroke="#000000" points="277.6312,-168.5 277.6312,-187.5 331.6312,-187.5 331.6312,-168.5 277.6312,-168.5"/>
<text text-anchor="middle" x="304.6312" y="-175.5" font-family="Helvetica,sans-Serif" font-size="10.00" fill="#000000">filter.hpp</text>
</a>
</g>
</g>
<!-- Node1&#45;&gt;Node2 -->
<g id="edge2" class="edge">
<title>Node1&#45;&gt;Node2</title>
<path fill="none" stroke="#191970" d="M346.7477,-224.2455C339.4346,-216.2155 328.8921,-204.6394 320.1845,-195.0781"/>
<polygon fill="#191970" stroke="#191970" points="322.7339,-192.6795 313.4129,-187.6427 317.5585,-197.3928 322.7339,-192.6795"/>
</g>
<!-- Node3 -->
<g id="node4" class="node">
<title>Node3</title>
<g id="a_node4"><a xlink:href="iterator__wrapper_8hpp.html" target="_top" xlink:title="internal/iterator_wrapper.hpp">
<polygon fill="#ffffff" stroke="#000000" points="33.6312,-112.5 33.6312,-131.5 173.6312,-131.5 173.6312,-112.5 33.6312,-112.5"/>
<text text-anchor="middle" x="103.6312" y="-119.5" font-family="Helvetica,sans-Serif" font-size="10.00" fill="#000000">internal/iterator_wrapper.hpp</text>
</a>
</g>
</g>
<!-- Node1&#45;&gt;Node3 -->
<g id="edge20" class="edge">
<title>Node1&#45;&gt;Node3</title>
<path fill="none" stroke="#191970" d="M334.1458,-224.4509C289.4186,-204.5722 186.1728,-158.6852 134.4012,-135.6756"/>
<polygon fill="#191970" stroke="#191970" points="135.6218,-132.388 125.0622,-131.5249 132.7788,-138.7847 135.6218,-132.388"/>
</g>
<!-- Node5 -->
<g id="node6" class="node">
<title>Node5</title>
<polygon fill="#ffffff" stroke="#bfbfbf" points="62.1312,-.5 62.1312,-19.5 121.1312,-19.5 121.1312,-.5 62.1312,-.5"/>
<text text-anchor="middle" x="91.6312" y="-7.5" font-family="Helvetica,sans-Serif" font-size="10.00" fill="#000000">functional</text>
</g>
<!-- Node1&#45;&gt;Node5 -->
<g id="edge22" class="edge">
<title>Node1&#45;&gt;Node5</title>
<path fill="none" stroke="#191970" d="M316.9441,-226.9261C238.703,-211.873 65.6223,-174.5455 24.6312,-132 .7431,-107.206 -7.7676,-85.7097 9.6312,-56 19.0091,-39.9865 36.2295,-29.124 52.4774,-21.9955"/>
<polygon fill="#191970" stroke="#191970" points="53.8937,-25.1984 61.8649,-18.2191 51.2812,-18.7042 53.8937,-25.1984"/>
</g>
<!-- Node7 -->
<g id="node8" class="node">
<title>Node7</title>
<g id="a_node8"><a xlink:href="iterbase_8hpp.html" target="_top" xlink:title="iterbase.hpp">
<polygon fill="#ffffff" stroke="#000000" points="250.6312,-56.5 250.6312,-75.5 320.6312,-75.5 320.6312,-56.5 250.6312,-56.5"/>
<text text-anchor="middle" x="285.6312" y="-63.5" font-family="Helvetica,sans-Serif" font-size="10.00" fill="#000000">iterbase.hpp</text>
</a>
</g>
</g>
<!-- Node1&#45;&gt;Node7 -->
<g id="edge21" class="edge">
<title>Node1&#45;&gt;Node7</title>
<path fill="none" stroke="#191970" d="M357.925,-224.3876C362.5421,-202.759 370.8807,-149.2483 350.6312,-112 343.2988,-98.5123 330.0971,-88.0705 317.4977,-80.5699"/>
<polygon fill="#191970" stroke="#191970" points="318.9703,-77.3852 308.5224,-75.6266 315.5932,-83.5167 318.9703,-77.3852"/>
</g>
<!-- Node9 -->
<g id="node10" class="node">
<title>Node9</title>
<polygon fill="#ffffff" stroke="#bfbfbf" points="470.1312,-.5 470.1312,-19.5 517.1312,-19.5 517.1312,-.5 470.1312,-.5"/>
<text text-anchor="middle" x="493.6312" y="-7.5" font-family="Helvetica,sans-Serif" font-size="10.00" fill="#000000">iterator</text>
</g>
<!-- Node1&#45;&gt;Node9 -->
<g id="edge23" class="edge">
<title>Node1&#45;&gt;Node9</title>
<path fill="none" stroke="#191970" d="M364.6247,-224.1769C372.69,-215.1297 384.6087,-201.1556 393.6312,-188 431.6029,-132.6338 468.127,-61.7569 484.5596,-28.6288"/>
<polygon fill="#191970" stroke="#191970" points="487.7186,-30.1363 488.9938,-19.6185 481.4379,-27.0455 487.7186,-30.1363"/>
</g>
<!-- Node13 -->
<g id="node14" class="node">
<title>Node13</title>
<polygon fill="#ffffff" stroke="#bfbfbf" points="411.6312,-.5 411.6312,-19.5 451.6312,-19.5 451.6312,-.5 411.6312,-.5"/>
<text text-anchor="middle" x="431.6312" y="-7.5" font-family="Helvetica,sans-Serif" font-size="10.00" fill="#000000">utility</text>
</g>
<!-- Node1&#45;&gt;Node13 -->
<g id="edge24" class="edge">
<title>Node1&#45;&gt;Node13</title>
<path fill="none" stroke="#191970" d="M360.4997,-224.2814C365.0082,-215.0739 371.7354,-200.7902 376.6312,-188 398.2389,-131.5507 417.6081,-62.664 426.4928,-29.5783"/>
<polygon fill="#191970" stroke="#191970" points="429.9056,-30.3637 429.0921,-19.8001 423.1405,-28.5653 429.9056,-30.3637"/>
</g>
<!-- Node2&#45;&gt;Node3 -->
<g id="edge3" class="edge">
<title>Node2&#45;&gt;Node3</title>
<path fill="none" stroke="#191970" d="M277.5234,-170.4476C244.2328,-161.1726 187.3182,-145.3158 147.7058,-134.2795"/>
<polygon fill="#191970" stroke="#191970" points="148.6051,-130.8968 138.0326,-131.5845 146.7263,-137.64 148.6051,-130.8968"/>
</g>
<!-- Node2&#45;&gt;Node5 -->
<g id="edge16" class="edge">
<title>Node2&#45;&gt;Node5</title>
<path fill="none" stroke="#191970" d="M293.3492,-168.2163C268.9012,-147.1238 209.0133,-96.0392 156.6312,-56 142.8434,-45.461 126.9482,-34.1971 114.3277,-25.4533"/>
<polygon fill="#191970" stroke="#191970" points="116.0153,-22.3658 105.7937,-19.5782 112.0459,-28.1316 116.0153,-22.3658"/>
</g>
<!-- Node2&#45;&gt;Node7 -->
<g id="edge15" class="edge">
<title>Node2&#45;&gt;Node7</title>
<path fill="none" stroke="#191970" d="M289.946,-168.2577C279.0158,-160.0536 264.9414,-147.2342 258.6312,-132 251.9333,-115.83 260.8676,-97.3912 270.211,-84.121"/>
<polygon fill="#191970" stroke="#191970" points="273.2461,-85.915 276.5579,-75.851 267.693,-81.6532 273.2461,-85.915"/>
</g>
<!-- Node2&#45;&gt;Node9 -->
<g id="edge18" class="edge">
<title>Node2&#45;&gt;Node9</title>
<path fill="none" stroke="#191970" d="M320.3795,-168.3544C334.3408,-159.5355 355.0304,-145.8 371.6312,-132 412.8142,-97.7654 455.9793,-51.8432 478.2708,-27.2566"/>
<polygon fill="#191970" stroke="#191970" points="480.9082,-29.5581 484.9972,-19.7842 475.7055,-24.8749 480.9082,-29.5581"/>
</g>
<!-- Node2&#45;&gt;Node13 -->
<g id="edge19" class="edge">
<title>Node2&#45;&gt;Node13</title>
<path fill="none" stroke="#191970" d="M315.4742,-168.3224C325.2079,-159.3732 339.6171,-145.4611 350.6312,-132 378.9152,-97.4323 406.5254,-52.8543 421.0666,-28.2844"/>
<polygon fill="#191970" stroke="#191970" points="424.103,-30.0254 426.1375,-19.6278 418.063,-26.4873 424.103,-30.0254"/>
</g>
<!-- Node14 -->
<g id="node15" class="node">
<title>Node14</title>
<polygon fill="#ffffff" stroke="#bfbfbf" points="268.1312,-112.5 268.1312,-131.5 341.1312,-131.5 341.1312,-112.5 268.1312,-112.5"/>
<text text-anchor="middle" x="304.6312" y="-119.5" font-family="Helvetica,sans-Serif" font-size="10.00" fill="#000000">initializer_list</text>
</g>
<!-- Node2&#45;&gt;Node14 -->
<g id="edge17" class="edge">
<title>Node2&#45;&gt;Node14</title>
<path fill="none" stroke="#191970" d="M304.6312,-168.2455C304.6312,-160.9382 304.6312,-150.6944 304.6312,-141.7046"/>
<polygon fill="#191970" stroke="#191970" points="308.1313,-141.6426 304.6312,-131.6427 301.1313,-141.6427 308.1313,-141.6426"/>
</g>
<!-- Node4 -->
<g id="node5" class="node">
<title>Node4</title>
<polygon fill="#ffffff" stroke="#bfbfbf" points="83.1312,-56.5 83.1312,-75.5 132.1312,-75.5 132.1312,-56.5 83.1312,-56.5"/>
<text text-anchor="middle" x="107.6312" y="-63.5" font-family="Helvetica,sans-Serif" font-size="10.00" fill="#000000">cassert</text>
</g>
<!-- Node3&#45;&gt;Node4 -->
<g id="edge4" class="edge">
<title>Node3&#45;&gt;Node4</title>
<path fill="none" stroke="#191970" d="M104.3279,-112.2455C104.8499,-104.9382 105.5816,-94.6944 106.2237,-85.7046"/>
<polygon fill="#191970" stroke="#191970" points="109.721,-85.8667 106.9424,-75.6427 102.7388,-85.3679 109.721,-85.8667"/>
</g>
<!-- Node3&#45;&gt;Node5 -->
<g id="edge5" class="edge">
<title>Node3&#45;&gt;Node5</title>
<path fill="none" stroke="#191970" d="M115.3824,-112.4797C129.3544,-99.9282 149.7103,-76.9762 140.6312,-56 135.3975,-43.9081 125.247,-33.5335 115.5357,-25.7139"/>
<polygon fill="#191970" stroke="#191970" points="117.3546,-22.7038 107.2492,-19.5209 113.1641,-28.3109 117.3546,-22.7038"/>
</g>
<!-- Node6 -->
<g id="node7" class="node">
<title>Node6</title>
<polygon fill="#ffffff" stroke="#bfbfbf" points="18.6312,-56.5 18.6312,-75.5 64.6312,-75.5 64.6312,-56.5 18.6312,-56.5"/>
<text text-anchor="middle" x="41.6312" y="-63.5" font-family="Helvetica,sans-Serif" font-size="10.00" fill="#000000">variant</text>
</g>
<!-- Node3&#45;&gt;Node6 -->
<g id="edge6" class="edge">
<title>Node3&#45;&gt;Node6</title>
<path fill="none" stroke="#191970" d="M92.8316,-112.2455C83.7634,-104.0549 70.6106,-92.1749 59.9067,-82.5069"/>
<polygon fill="#191970" stroke="#191970" points="62.0741,-79.7482 52.307,-75.6427 57.382,-84.9429 62.0741,-79.7482"/>
</g>
<!-- Node3&#45;&gt;Node7 -->
<g id="edge7" class="edge">
<title>Node3&#45;&gt;Node7</title>
<path fill="none" stroke="#191970" d="M134.9181,-112.3733C165.313,-103.021 211.6205,-88.7725 244.8812,-78.5385"/>
<polygon fill="#191970" stroke="#191970" points="246.2241,-81.7873 254.7525,-75.5011 244.1654,-75.0968 246.2241,-81.7873"/>
</g>
<!-- Node7&#45;&gt;Node5 -->
<g id="edge9" class="edge">
<title>Node7&#45;&gt;Node5</title>
<path fill="none" stroke="#191970" d="M252.2814,-56.3733C218.7568,-46.6961 167.0713,-31.7765 131.4243,-21.4867"/>
<polygon fill="#191970" stroke="#191970" points="131.948,-17.995 121.3696,-18.5843 130.0066,-24.7204 131.948,-17.995"/>
</g>
<!-- Node8 -->
<g id="node9" class="node">
<title>Node8</title>
<polygon fill="#ffffff" stroke="#bfbfbf" points="220.1312,-.5 220.1312,-19.5 269.1312,-19.5 269.1312,-.5 220.1312,-.5"/>
<text text-anchor="middle" x="244.6312" y="-7.5" font-family="Helvetica,sans-Serif" font-size="10.00" fill="#000000">cstddef</text>
</g>
<!-- Node7&#45;&gt;Node8 -->
<g id="edge8" class="edge">
<title>Node7&#45;&gt;Node8</title>
<path fill="none" stroke="#191970" d="M278.4895,-56.2455C272.7868,-48.4564 264.6412,-37.3308 257.7687,-27.9439"/>
<polygon fill="#191970" stroke="#191970" points="260.4225,-25.6437 251.691,-19.6427 254.7744,-29.7789 260.4225,-25.6437"/>
</g>
<!-- Node7&#45;&gt;Node9 -->
<g id="edge10" class="edge">
<title>Node7&#45;&gt;Node9</title>
<path fill="none" stroke="#191970" d="M320.9307,-57.1319C354.3434,-48.6469 406.1321,-35.2617 460.1237,-20.0709"/>
<polygon fill="#191970" stroke="#191970" points="461.1985,-23.4043 469.8692,-17.3158 459.2941,-16.6683 461.1985,-23.4043"/>
</g>
<!-- Node10 -->
<g id="node11" class="node">
<title>Node10</title>
<polygon fill="#ffffff" stroke="#bfbfbf" points="287.6312,-.5 287.6312,-19.5 337.6312,-19.5 337.6312,-.5 287.6312,-.5"/>
<text text-anchor="middle" x="312.6312" y="-7.5" font-family="Helvetica,sans-Serif" font-size="10.00" fill="#000000">optional</text>
</g>
<!-- Node7&#45;&gt;Node10 -->
<g id="edge11" class="edge">
<title>Node7&#45;&gt;Node10</title>
<path fill="none" stroke="#191970" d="M290.3342,-56.2455C293.9736,-48.6973 299.1236,-38.0158 303.5574,-28.8197"/>
<polygon fill="#191970" stroke="#191970" points="306.7917,-30.1704 307.982,-19.6427 300.4863,-27.1303 306.7917,-30.1704"/>
</g>
<!-- Node11 -->
<g id="node12" class="node">
<title>Node11</title>
<polygon fill="#ffffff" stroke="#bfbfbf" points="355.6312,-.5 355.6312,-19.5 393.6312,-19.5 393.6312,-.5 355.6312,-.5"/>
<text text-anchor="middle" x="374.6312" y="-7.5" font-family="Helvetica,sans-Serif" font-size="10.00" fill="#000000">tuple</text>
</g>
<!-- Node7&#45;&gt;Node11 -->
<g id="edge12" class="edge">
<title>Node7&#45;&gt;Node11</title>
<path fill="none" stroke="#191970" d="M301.1338,-56.2455C314.7891,-47.6534 334.8969,-35.0014 350.6301,-25.1018"/>
<polygon fill="#191970" stroke="#191970" points="352.7063,-27.9307 359.3062,-19.6427 348.9783,-22.006 352.7063,-27.9307"/>
</g>
<!-- Node12 -->
<g id="node13" class="node">
<title>Node12</title>
<polygon fill="#ffffff" stroke="#bfbfbf" points="139.6312,-.5 139.6312,-19.5 201.6312,-19.5 201.6312,-.5 139.6312,-.5"/>
<text text-anchor="middle" x="170.6312" y="-7.5" font-family="Helvetica,sans-Serif" font-size="10.00" fill="#000000">type_traits</text>
</g>
<!-- Node7&#45;&gt;Node12 -->
<g id="edge13" class="edge">
<title>Node7&#45;&gt;Node12</title>
<path fill="none" stroke="#191970" d="M265.862,-56.3733C247.4843,-47.4241 219.8999,-33.9917 199.1419,-23.8835"/>
<polygon fill="#191970" stroke="#191970" points="200.6655,-20.7325 190.1424,-19.5011 197.6008,-27.026 200.6655,-20.7325"/>
</g>
<!-- Node7&#45;&gt;Node13 -->
<g id="edge14" class="edge">
<title>Node7&#45;&gt;Node13</title>
<path fill="none" stroke="#191970" d="M310.7295,-56.3733C336.0326,-46.668 375.0827,-31.6898 401.9172,-21.3972"/>
<polygon fill="#191970" stroke="#191970" points="403.4662,-24.5517 411.5495,-17.7026 400.9593,-18.016 403.4662,-24.5517"/>
</g>
</g>
</svg>
        <g id="navigator" transform="translate(0 0)" fill="#404254">
                <rect fill="#f2f5e9" fill-opacity="0.5" stroke="#606060" stroke-width=".5" x="0" y="0" width="60" height="60"/>
                <use id="zoomplus" xlink:href="#zoomPlus" x="17" y="9" onmousedown="handleZoom(evt,'in')"/>
                <use id="zoomminus" xlink:href="#zoomMin" x="42" y="9" onmousedown="handleZoom(evt,'out')"/>
                <use id="reset" xlink:href="#resetDef" x="30" y="36" onmousedown="handleReset()"/>
                <g id="arrowUp" xlink:href="#dirArrow" transform="translate(30 24)" onmousedown="handlePan(0,-1)">
                  <use xlink:href="#rim" fill="#404040">
                        <set attributeName="fill" to="#808080" begin="arrowUp.mouseover" end="arrowUp.mouseout"/>
                  </use>
                  <path fill="none" stroke="white" stroke-width="1.5" d="M0,-3.0v7 M-2.5,-0.5L0,-3.0L2.5,-0.5"/>
                </g>
                <g id="arrowRight" xlink:href="#dirArrow" transform="rotate(90) translate(36 -43)" onmousedown="handlePan(1,0)">
                  <use xlink:href="#rim" fill="#404040">
                        <set attributeName="fill" to="#808080" begin="arrowRight.mouseover" end="arrowRight.mouseout"/>
                  </use>
                  <path fill="none" stroke="white" stroke-width="1.5" d="M0,-3.0v7 M-2.5,-0.5L0,-3.0L2.5,-0.5"/>
                </g>
                <g id="arrowDown" xlink:href="#dirArrow" transform="rotate(180) translate(-30 -48)" onmousedown="handlePan(0,1)">
                  <use xlink:href="#rim" fill="#404040">
                        <set attributeName="fill" to="#808080" begin="arrowDown.mouseover" end="arrowDown.mouseout"/>
                  </use>
                  <path fill="none" stroke="white" stroke-width="1.5" d="M0,-3.0v7 M-2.5,-0.5L0,-3.0L2.5,-0.5"/>
                </g>
                <g id="arrowLeft" xlink:href="#dirArrow" transform="rotate(270) translate(-36 17)" onmousedown="handlePan(-1,0)">
                  <use xlink:href="#rim" fill="#404040">
                        <set attributeName="fill" to="#808080" begin="arrowLeft.mouseover" end="arrowLeft.mouseout"/>
                  </use>
                  <path fill="none" stroke="white" stroke-width="1.5" d="M0,-3.0v7 M-2.5,-0.5L0,-3.0L2.5,-0.5"/>
                </g>
        </g>
        <svg viewBox="0 0 15 15" width="100%" height="30px" preserveAspectRatio="xMaxYMin meet">
         <g id="arrow_out" transform="scale(0.3 0.3)">
          <a xlink:href="takewhile__examples_8cpp__incl_org.svg" target="_base">
           <rect id="button" ry="5" rx="5" y="6" x="6" height="38" width="38"
                fill="#f2f5e9" fill-opacity="0.5" stroke="#606060" stroke-width="1.0"/>
           <path id="arrow"
             d="M 11.500037,31.436501 C 11.940474,20.09759 22.043105,11.32322 32.158766,21.979434 L 37.068811,17.246167 C 37.068811,17.246167 37.088388,32 37.088388,32 L 22.160133,31.978069 C 22.160133,31.978069 26.997745,27.140456 26.997745,27.140456 C 18.528582,18.264221 13.291696,25.230495 11.500037,31.436501 z"
             style="fill:#404040;"/>
          </a>
         </g>
        </svg>
</svg>
