<?xml version="1.0" encoding="UTF-8" standalone="no"?>
<!DOCTYPE svg PUBLIC "-//W3C//DTD SVG 1.1//EN"
 "http://www.w3.org/Graphics/SVG/1.1/DTD/svg11.dtd">
<!-- Generated by graphviz version 2.40.1 (20161225.0304)
 -->
<!-- Title: lib/test/src/testmain.cpp Pages: 1 -->
<svg width="290pt" height="84pt"
 viewBox="0.00 0.00 290.00 84.00" xmlns="http://www.w3.org/2000/svg" xmlns:xlink="http://www.w3.org/1999/xlink">
<g id="graph0" class="graph" transform="scale(1 1) rotate(0) translate(4 80)">
<title>lib/test/src/testmain.cpp</title>
<polygon fill="#ffffff" stroke="transparent" points="-4,4 -4,-80 286,-80 286,4 -4,4"/>
<!-- Node0 -->
<g id="node1" class="node">
<title>Node0</title>
<polygon fill="#bfbfbf" stroke="#000000" points="100,-56.5 100,-75.5 222,-75.5 222,-56.5 100,-56.5"/>
<text text-anchor="middle" x="161" y="-63.5" font-family="Helvetica,sans-Serif" font-size="10.00" fill="#000000">lib/test/src/testmain.cpp</text>
</g>
<!-- Node1 -->
<g id="node2" class="node">
<title>Node1</title>
<polygon fill="#ffffff" stroke="#bfbfbf" points="0,-.5 0,-19.5 92,-19.5 92,-.5 0,-.5"/>
<text text-anchor="middle" x="46" y="-7.5" font-family="Helvetica,sans-Serif" font-size="10.00" fill="#000000">catch2/catch.hpp</text>
</g>
<!-- Node0&#45;&gt;Node1 -->
<g id="edge1" class="edge">
<title>Node0&#45;&gt;Node1</title>
<path fill="none" stroke="#191970" d="M141.2308,-56.3733C122.8531,-47.4241 95.2688,-33.9917 74.5107,-23.8835"/>
<polygon fill="#191970" stroke="#191970" points="76.0343,-20.7325 65.5112,-19.5011 72.9696,-27.026 76.0343,-20.7325"/>
</g>
<!-- Node2 -->
<g id="node3" class="node">
<title>Node2</title>
<polygon fill="#ffffff" stroke="#bfbfbf" points="110,-.5 110,-19.5 148,-19.5 148,-.5 110,-.5"/>
<text text-anchor="middle" x="129" y="-7.5" font-family="Helvetica,sans-Serif" font-size="10.00" fill="#000000">array</text>
</g>
<!-- Node0&#45;&gt;Node2 -->
<g id="edge2" class="edge">
<title>Node0&#45;&gt;Node2</title>
<path fill="none" stroke="#191970" d="M155.426,-56.2455C151.0669,-48.617 144.8789,-37.7881 139.5867,-28.5267"/>
<polygon fill="#191970" stroke="#191970" points="142.5104,-26.5886 134.5101,-19.6427 136.4327,-30.0616 142.5104,-26.5886"/>
</g>
<!-- Node3 -->
<g id="node4" class="node">
<title>Node3</title>
<polygon fill="#ffffff" stroke="#bfbfbf" points="166.5,-.5 166.5,-19.5 219.5,-19.5 219.5,-.5 166.5,-.5"/>
<text text-anchor="middle" x="193" y="-7.5" font-family="Helvetica,sans-Serif" font-size="10.00" fill="#000000">gsl/span</text>
</g>
<!-- Node0&#45;&gt;Node3 -->
<g id="edge3" class="edge">
<title>Node0&#45;&gt;Node3</title>
<path fill="none" stroke="#191970" d="M166.574,-56.2455C170.9331,-48.617 177.1211,-37.7881 182.4133,-28.5267"/>
<polygon fill="#191970" stroke="#191970" points="185.5673,-30.0616 187.4899,-19.6427 179.4896,-26.5886 185.5673,-30.0616"/>
</g>
<!-- Node4 -->
<g id="node5" class="node">
<title>Node4</title>
<polygon fill="#ffffff" stroke="#bfbfbf" points="238,-.5 238,-19.5 282,-19.5 282,-.5 238,-.5"/>
<text text-anchor="middle" x="260" y="-7.5" font-family="Helvetica,sans-Serif" font-size="10.00" fill="#000000">vector</text>
</g>
<!-- Node0&#45;&gt;Node4 -->
<g id="edge4" class="edge">
<title>Node0&#45;&gt;Node4</title>
<path fill="none" stroke="#191970" d="M178.2445,-56.2455C193.5761,-47.5731 216.2199,-34.7645 233.7916,-24.825"/>
<polygon fill="#191970" stroke="#191970" points="235.9724,-27.6126 242.9531,-19.6427 232.5259,-21.5198 235.9724,-27.6126"/>
</g>
</g>
</svg>
