<?xml version="1.0" encoding="UTF-8" standalone="no"?>
<!DOCTYPE svg PUBLIC "-//W3C//DTD SVG 1.1//EN"
 "http://www.w3.org/Graphics/SVG/1.1/DTD/svg11.dtd">
<!-- Generated by graphviz version 2.40.1 (20161225.0304)
 -->
<!-- Title: /media/lubuntu/USBDISK/github/ckpttncpp/third_party/cppitertools/unique_justseen.hpp Pages: 1 -->
<svg width="485pt" height="239pt"
 viewBox="0.00 0.00 484.50 239.00" xmlns="http://www.w3.org/2000/svg" xmlns:xlink="http://www.w3.org/1999/xlink">
<g id="graph0" class="graph" transform="scale(1 1) rotate(0) translate(4 235)">
<title>/media/lubuntu/USBDISK/github/ckpttncpp/third_party/cppitertools/unique_justseen.hpp</title>
<polygon fill="#ffffff" stroke="transparent" points="-4,4 -4,-235 480.5,-235 480.5,4 -4,4"/>
<!-- Node20 -->
<g id="node1" class="node">
<title>Node20</title>
<polygon fill="#bfbfbf" stroke="#000000" points="187,-178.5 187,-230.5 315,-230.5 315,-178.5 187,-178.5"/>
<text text-anchor="start" x="195" y="-218.5" font-family="Helvetica,sans-Serif" font-size="10.00" fill="#000000">/media/lubuntu/USBDISK</text>
<text text-anchor="start" x="195" y="-207.5" font-family="Helvetica,sans-Serif" font-size="10.00" fill="#000000">/github/ckpttncpp/third</text>
<text text-anchor="start" x="195" y="-196.5" font-family="Helvetica,sans-Serif" font-size="10.00" fill="#000000">_party/cppitertools/unique</text>
<text text-anchor="middle" x="251" y="-185.5" font-family="Helvetica,sans-Serif" font-size="10.00" fill="#000000">_justseen.hpp</text>
</g>
<!-- Node21 -->
<g id="node2" class="node">
<title>Node21</title>
<g id="a_node2"><a xlink:href="unique__justseen__examples_8cpp.html" target="_top" xlink:title="/media/lubuntu/USBDISK\l/github/ckpttncpp/third\l_party/cppitertools/examples\l/unique_justseen_examples.cpp">
<polygon fill="#ffffff" stroke="#000000" points="0,-89.5 0,-141.5 156,-141.5 156,-89.5 0,-89.5"/>
<text text-anchor="start" x="8" y="-129.5" font-family="Helvetica,sans-Serif" font-size="10.00" fill="#000000">/media/lubuntu/USBDISK</text>
<text text-anchor="start" x="8" y="-118.5" font-family="Helvetica,sans-Serif" font-size="10.00" fill="#000000">/github/ckpttncpp/third</text>
<text text-anchor="start" x="8" y="-107.5" font-family="Helvetica,sans-Serif" font-size="10.00" fill="#000000">_party/cppitertools/examples</text>
<text text-anchor="middle" x="78" y="-96.5" font-family="Helvetica,sans-Serif" font-size="10.00" fill="#000000">/unique_justseen_examples.cpp</text>
</a>
</g>
</g>
<!-- Node20&#45;&gt;Node21 -->
<g id="edge1" class="edge">
<title>Node20&#45;&gt;Node21</title>
<path fill="none" stroke="#191970" d="M190.8675,-173.5648C170.5573,-163.1162 148.1027,-151.5644 128.6057,-141.5341"/>
<polygon fill="#191970" stroke="#191970" points="189.5366,-176.816 200.03,-178.2784 192.7388,-170.5914 189.5366,-176.816"/>
</g>
<!-- Node22 -->
<g id="node3" class="node">
<title>Node22</title>
<g id="a_node3"><a xlink:href="itertools_8hpp.html" target="_top" xlink:title="/media/lubuntu/USBDISK\l/github/ckpttncpp/third\l_party/cppitertools/itertools.hpp">
<polygon fill="#ffffff" stroke="#000000" points="174.5,-95 174.5,-136 327.5,-136 327.5,-95 174.5,-95"/>
<text text-anchor="start" x="182.5" y="-124" font-family="Helvetica,sans-Serif" font-size="10.00" fill="#000000">/media/lubuntu/USBDISK</text>
<text text-anchor="start" x="182.5" y="-113" font-family="Helvetica,sans-Serif" font-size="10.00" fill="#000000">/github/ckpttncpp/third</text>
<text text-anchor="middle" x="251" y="-102" font-family="Helvetica,sans-Serif" font-size="10.00" fill="#000000">_party/cppitertools/itertools.hpp</text>
</a>
</g>
</g>
<!-- Node20&#45;&gt;Node22 -->
<g id="edge2" class="edge">
<title>Node20&#45;&gt;Node22</title>
<path fill="none" stroke="#191970" d="M251,-168.1335C251,-157.2443 251,-145.6825 251,-136.1771"/>
<polygon fill="#191970" stroke="#191970" points="247.5001,-168.2784 251,-178.2784 254.5001,-168.2785 247.5001,-168.2784"/>
</g>
<!-- Node25 -->
<g id="node6" class="node">
<title>Node25</title>
<g id="a_node6"><a xlink:href="test__unique__justseen_8cpp.html" target="_top" xlink:title="/media/lubuntu/USBDISK\l/github/ckpttncpp/third\l_party/cppitertools/test\l/test_unique_justseen.cpp">
<polygon fill="#ffffff" stroke="#000000" points="345.5,-89.5 345.5,-141.5 476.5,-141.5 476.5,-89.5 345.5,-89.5"/>
<text text-anchor="start" x="353.5" y="-129.5" font-family="Helvetica,sans-Serif" font-size="10.00" fill="#000000">/media/lubuntu/USBDISK</text>
<text text-anchor="start" x="353.5" y="-118.5" font-family="Helvetica,sans-Serif" font-size="10.00" fill="#000000">/github/ckpttncpp/third</text>
<text text-anchor="start" x="353.5" y="-107.5" font-family="Helvetica,sans-Serif" font-size="10.00" fill="#000000">_party/cppitertools/test</text>
<text text-anchor="middle" x="411" y="-96.5" font-family="Helvetica,sans-Serif" font-size="10.00" fill="#000000">/test_unique_justseen.cpp</text>
</a>
</g>
</g>
<!-- Node20&#45;&gt;Node25 -->
<g id="edge5" class="edge">
<title>Node20&#45;&gt;Node25</title>
<path fill="none" stroke="#191970" d="M307.122,-173.2821C325.7718,-162.9082 346.3275,-151.4741 364.197,-141.5341"/>
<polygon fill="#191970" stroke="#191970" points="305.1775,-170.3587 298.1399,-178.2784 308.5803,-176.476 305.1775,-170.3587"/>
</g>
<!-- Node23 -->
<g id="node4" class="node">
<title>Node23</title>
<g id="a_node4"><a xlink:href="mixed__examples_8cpp.html" target="_top" xlink:title="/media/lubuntu/USBDISK\l/github/ckpttncpp/third\l_party/cppitertools/examples\l/mixed_examples.cpp">
<polygon fill="#ffffff" stroke="#000000" points="103,-.5 103,-52.5 245,-52.5 245,-.5 103,-.5"/>
<text text-anchor="start" x="111" y="-40.5" font-family="Helvetica,sans-Serif" font-size="10.00" fill="#000000">/media/lubuntu/USBDISK</text>
<text text-anchor="start" x="111" y="-29.5" font-family="Helvetica,sans-Serif" font-size="10.00" fill="#000000">/github/ckpttncpp/third</text>
<text text-anchor="start" x="111" y="-18.5" font-family="Helvetica,sans-Serif" font-size="10.00" fill="#000000">_party/cppitertools/examples</text>
<text text-anchor="middle" x="174" y="-7.5" font-family="Helvetica,sans-Serif" font-size="10.00" fill="#000000">/mixed_examples.cpp</text>
</a>
</g>
</g>
<!-- Node22&#45;&gt;Node23 -->
<g id="edge3" class="edge">
<title>Node22&#45;&gt;Node23</title>
<path fill="none" stroke="#191970" d="M226.4751,-87.153C216.9441,-76.1367 206.091,-63.5922 196.738,-52.7816"/>
<polygon fill="#191970" stroke="#191970" points="223.9514,-89.5854 233.1411,-94.8579 229.2451,-85.0054 223.9514,-89.5854"/>
</g>
<!-- Node24 -->
<g id="node5" class="node">
<title>Node24</title>
<g id="a_node5"><a xlink:href="test__mixed_8cpp.html" target="_top" xlink:title="/media/lubuntu/USBDISK\l/github/ckpttncpp/third\l_party/cppitertools/test\l/test_mixed.cpp">
<polygon fill="#ffffff" stroke="#000000" points="263,-.5 263,-52.5 391,-52.5 391,-.5 263,-.5"/>
<text text-anchor="start" x="271" y="-40.5" font-family="Helvetica,sans-Serif" font-size="10.00" fill="#000000">/media/lubuntu/USBDISK</text>
<text text-anchor="start" x="271" y="-29.5" font-family="Helvetica,sans-Serif" font-size="10.00" fill="#000000">/github/ckpttncpp/third</text>
<text text-anchor="start" x="271" y="-18.5" font-family="Helvetica,sans-Serif" font-size="10.00" fill="#000000">_party/cppitertools/test</text>
<text text-anchor="middle" x="327" y="-7.5" font-family="Helvetica,sans-Serif" font-size="10.00" fill="#000000">/test_mixed.cpp</text>
</a>
</g>
</g>
<!-- Node22&#45;&gt;Node24 -->
<g id="edge4" class="edge">
<title>Node22&#45;&gt;Node24</title>
<path fill="none" stroke="#191970" d="M275.2064,-87.153C284.6136,-76.1367 295.3257,-63.5922 304.5573,-52.7816"/>
<polygon fill="#191970" stroke="#191970" points="272.4592,-84.9804 268.627,-94.8579 277.7824,-89.5261 272.4592,-84.9804"/>
</g>
</g>
</svg>
