<?xml version="1.0" encoding="UTF-8" standalone="no"?>
<!DOCTYPE svg PUBLIC "-//W3C//DTD SVG 1.1//EN"
 "http://www.w3.org/Graphics/SVG/1.1/DTD/svg11.dtd">
<!-- Generated by graphviz version 2.40.1 (20161225.0304)
 -->
<!-- Title: /media/lubuntu/USBDISK/github/ckpttncpp/third_party/cppitertools/zip.hpp Pages: 1 -->
<svg width="496pt" height="274pt"
 viewBox="0.00 0.00 495.50 274.00" xmlns="http://www.w3.org/2000/svg" xmlns:xlink="http://www.w3.org/1999/xlink">
<g id="graph0" class="graph" transform="scale(1 1) rotate(0) translate(4 270)">
<title>/media/lubuntu/USBDISK/github/ckpttncpp/third_party/cppitertools/zip.hpp</title>
<polygon fill="#ffffff" stroke="transparent" points="-4,4 -4,-270 491.5,-270 491.5,4 -4,4"/>
<!-- Node0 -->
<g id="node1" class="node">
<title>Node0</title>
<polygon fill="#bfbfbf" stroke="#000000" points="281,-224.5 281,-265.5 412,-265.5 412,-224.5 281,-224.5"/>
<text text-anchor="start" x="289" y="-253.5" font-family="Helvetica,sans-Serif" font-size="10.00" fill="#000000">/media/lubuntu/USBDISK</text>
<text text-anchor="start" x="289" y="-242.5" font-family="Helvetica,sans-Serif" font-size="10.00" fill="#000000">/github/ckpttncpp/third</text>
<text text-anchor="middle" x="346.5" y="-231.5" font-family="Helvetica,sans-Serif" font-size="10.00" fill="#000000">_party/cppitertools/zip.hpp</text>
</g>
<!-- Node1 -->
<g id="node2" class="node">
<title>Node1</title>
<g id="a_node2"><a xlink:href="iter__tuples_8hpp.html" target="_top" xlink:title="internal/iter_tuples.hpp">
<polygon fill="#ffffff" stroke="#000000" points="130,-168.5 130,-187.5 245,-187.5 245,-168.5 130,-168.5"/>
<text text-anchor="middle" x="187.5" y="-175.5" font-family="Helvetica,sans-Serif" font-size="10.00" fill="#000000">internal/iter_tuples.hpp</text>
</a>
</g>
</g>
<!-- Node0&#45;&gt;Node1 -->
<g id="edge1" class="edge">
<title>Node0&#45;&gt;Node1</title>
<path fill="none" stroke="#191970" d="M297.4974,-224.3511C272.2215,-213.7003 242.0979,-201.0066 219.7707,-191.5983"/>
<polygon fill="#191970" stroke="#191970" points="220.9861,-188.3125 210.4118,-187.6546 218.2679,-194.7632 220.9861,-188.3125"/>
</g>
<!-- Node6 -->
<g id="node7" class="node">
<title>Node6</title>
<g id="a_node7"><a xlink:href="iterbase_8hpp.html" target="_top" xlink:title="iterbase.hpp">
<polygon fill="#ffffff" stroke="#000000" points="223.5,-56.5 223.5,-75.5 293.5,-75.5 293.5,-56.5 223.5,-56.5"/>
<text text-anchor="middle" x="258.5" y="-63.5" font-family="Helvetica,sans-Serif" font-size="10.00" fill="#000000">iterbase.hpp</text>
</a>
</g>
</g>
<!-- Node0&#45;&gt;Node6 -->
<g id="edge16" class="edge">
<title>Node0&#45;&gt;Node6</title>
<path fill="none" stroke="#191970" d="M333.9183,-224.4339C327.5352,-213.7166 319.8174,-200.3094 313.5,-188 295.2032,-152.3488 276.5952,-109.3583 266.4006,-85.1008"/>
<polygon fill="#191970" stroke="#191970" points="269.5368,-83.5279 262.4558,-75.647 263.0767,-86.2236 269.5368,-83.5279"/>
</g>
<!-- Node8 -->
<g id="node9" class="node">
<title>Node8</title>
<polygon fill="#ffffff" stroke="#bfbfbf" points="293,-.5 293,-19.5 340,-19.5 340,-.5 293,-.5"/>
<text text-anchor="middle" x="316.5" y="-7.5" font-family="Helvetica,sans-Serif" font-size="10.00" fill="#000000">iterator</text>
</g>
<!-- Node0&#45;&gt;Node8 -->
<g id="edge18" class="edge">
<title>Node0&#45;&gt;Node8</title>
<path fill="none" stroke="#191970" d="M343.8377,-224.1453C338.0861,-179.0911 324.5694,-73.2106 318.9832,-29.4514"/>
<polygon fill="#191970" stroke="#191970" points="322.4532,-28.9933 317.7149,-19.5171 315.5095,-29.8798 322.4532,-28.9933"/>
</g>
<!-- Node10 -->
<g id="node11" class="node">
<title>Node10</title>
<polygon fill="#ffffff" stroke="#bfbfbf" points="358.5,-.5 358.5,-19.5 396.5,-19.5 396.5,-.5 358.5,-.5"/>
<text text-anchor="middle" x="377.5" y="-7.5" font-family="Helvetica,sans-Serif" font-size="10.00" fill="#000000">tuple</text>
</g>
<!-- Node0&#45;&gt;Node10 -->
<g id="edge19" class="edge">
<title>Node0&#45;&gt;Node10</title>
<path fill="none" stroke="#191970" d="M349.251,-224.1453C355.1944,-179.0911 369.1616,-73.2106 374.9341,-29.4514"/>
<polygon fill="#191970" stroke="#191970" points="378.4066,-29.889 376.2446,-19.5171 371.4667,-28.9734 378.4066,-29.889"/>
</g>
<!-- Node12 -->
<g id="node13" class="node">
<title>Node12</title>
<polygon fill="#ffffff" stroke="#bfbfbf" points="414.5,-.5 414.5,-19.5 454.5,-19.5 454.5,-.5 414.5,-.5"/>
<text text-anchor="middle" x="434.5" y="-7.5" font-family="Helvetica,sans-Serif" font-size="10.00" fill="#000000">utility</text>
</g>
<!-- Node0&#45;&gt;Node12 -->
<g id="edge20" class="edge">
<title>Node0&#45;&gt;Node12</title>
<path fill="none" stroke="#191970" d="M354.5087,-224.4462C358.7094,-213.6163 363.9205,-200.1036 368.5,-188 390.2957,-130.3939 415.44,-62.0393 427.4298,-29.3253"/>
<polygon fill="#191970" stroke="#191970" points="430.8155,-30.258 430.9678,-19.6643 424.2424,-27.8508 430.8155,-30.258"/>
</g>
<!-- Node13 -->
<g id="node14" class="node">
<title>Node13</title>
<polygon fill="#ffffff" stroke="#bfbfbf" points="431.5,-168.5 431.5,-187.5 487.5,-187.5 487.5,-168.5 431.5,-168.5"/>
<text text-anchor="middle" x="459.5" y="-175.5" font-family="Helvetica,sans-Serif" font-size="10.00" fill="#000000">algorithm</text>
</g>
<!-- Node0&#45;&gt;Node13 -->
<g id="edge17" class="edge">
<title>Node0&#45;&gt;Node13</title>
<path fill="none" stroke="#191970" d="M381.3258,-224.3511C398.403,-214.2256 418.5941,-202.254 434.178,-193.0139"/>
<polygon fill="#191970" stroke="#191970" points="436.4002,-195.7654 443.2168,-187.6546 432.8301,-189.7442 436.4002,-195.7654"/>
</g>
<!-- Node2 -->
<g id="node3" class="node">
<title>Node2</title>
<g id="a_node3"><a xlink:href="iterator__wrapper_8hpp.html" target="_top" xlink:title="iterator_wrapper.hpp">
<polygon fill="#ffffff" stroke="#000000" points="118,-112.5 118,-131.5 223,-131.5 223,-112.5 118,-112.5"/>
<text text-anchor="middle" x="170.5" y="-119.5" font-family="Helvetica,sans-Serif" font-size="10.00" fill="#000000">iterator_wrapper.hpp</text>
</a>
</g>
</g>
<!-- Node1&#45;&gt;Node2 -->
<g id="edge2" class="edge">
<title>Node1&#45;&gt;Node2</title>
<path fill="none" stroke="#191970" d="M184.5388,-168.2455C182.2962,-160.8579 179.1423,-150.4689 176.3919,-141.4087"/>
<polygon fill="#191970" stroke="#191970" points="179.6812,-140.1948 173.4272,-131.6427 172.983,-142.2282 179.6812,-140.1948"/>
</g>
<!-- Node4 -->
<g id="node5" class="node">
<title>Node4</title>
<polygon fill="#ffffff" stroke="#bfbfbf" points="0,-.5 0,-19.5 59,-19.5 59,-.5 0,-.5"/>
<text text-anchor="middle" x="29.5" y="-7.5" font-family="Helvetica,sans-Serif" font-size="10.00" fill="#000000">functional</text>
</g>
<!-- Node1&#45;&gt;Node4 -->
<g id="edge15" class="edge">
<title>Node1&#45;&gt;Node4</title>
<path fill="none" stroke="#191970" d="M167.195,-168.4948C150.5128,-160.1604 126.7438,-147.0458 108.5,-132 82.9858,-110.9582 77.4224,-103.7942 59.5,-76 50.0274,-61.3098 42.0036,-43.1351 36.6444,-29.5795"/>
<polygon fill="#191970" stroke="#191970" points="39.7704,-27.9533 32.9409,-19.8533 33.2286,-30.4443 39.7704,-27.9533"/>
</g>
<!-- Node1&#45;&gt;Node6 -->
<g id="edge14" class="edge">
<title>Node1&#45;&gt;Node6</title>
<path fill="none" stroke="#191970" d="M199.1747,-168.4494C209.1341,-159.7967 223.2672,-146.2521 232.5,-132 241.9046,-117.4827 248.8159,-99.0283 253.1389,-85.3269"/>
<polygon fill="#191970" stroke="#191970" points="256.5585,-86.1062 256.0491,-75.5236 249.8479,-84.114 256.5585,-86.1062"/>
</g>
<!-- Node3 -->
<g id="node4" class="node">
<title>Node3</title>
<polygon fill="#ffffff" stroke="#bfbfbf" points="156,-56.5 156,-75.5 205,-75.5 205,-56.5 156,-56.5"/>
<text text-anchor="middle" x="180.5" y="-63.5" font-family="Helvetica,sans-Serif" font-size="10.00" fill="#000000">cassert</text>
</g>
<!-- Node2&#45;&gt;Node3 -->
<g id="edge3" class="edge">
<title>Node2&#45;&gt;Node3</title>
<path fill="none" stroke="#191970" d="M172.2419,-112.2455C173.5467,-104.9382 175.376,-94.6944 176.9813,-85.7046"/>
<polygon fill="#191970" stroke="#191970" points="180.4656,-86.1022 178.7781,-75.6427 173.5746,-84.8717 180.4656,-86.1022"/>
</g>
<!-- Node2&#45;&gt;Node4 -->
<g id="edge4" class="edge">
<title>Node2&#45;&gt;Node4</title>
<path fill="none" stroke="#191970" d="M145.7196,-112.3409C127.1247,-104.3465 101.6783,-91.7621 82.5,-76 65.7364,-62.2224 50.6787,-42.3814 40.936,-28.0551"/>
<polygon fill="#191970" stroke="#191970" points="43.761,-25.9811 35.3367,-19.5561 37.9156,-29.8323 43.761,-25.9811"/>
</g>
<!-- Node5 -->
<g id="node6" class="node">
<title>Node5</title>
<polygon fill="#ffffff" stroke="#bfbfbf" points="91.5,-56.5 91.5,-75.5 137.5,-75.5 137.5,-56.5 91.5,-56.5"/>
<text text-anchor="middle" x="114.5" y="-63.5" font-family="Helvetica,sans-Serif" font-size="10.00" fill="#000000">variant</text>
</g>
<!-- Node2&#45;&gt;Node5 -->
<g id="edge5" class="edge">
<title>Node2&#45;&gt;Node5</title>
<path fill="none" stroke="#191970" d="M160.7455,-112.2455C152.6352,-104.1352 140.9075,-92.4075 131.2919,-82.7919"/>
<polygon fill="#191970" stroke="#191970" points="133.6887,-80.2389 124.1427,-75.6427 128.7389,-85.1887 133.6887,-80.2389"/>
</g>
<!-- Node2&#45;&gt;Node6 -->
<g id="edge6" class="edge">
<title>Node2&#45;&gt;Node6</title>
<path fill="none" stroke="#191970" d="M185.8284,-112.2455C199.3303,-103.6534 219.2122,-91.0014 234.7686,-81.1018"/>
<polygon fill="#191970" stroke="#191970" points="236.7897,-83.9643 243.3472,-75.6427 233.0315,-78.0587 236.7897,-83.9643"/>
</g>
<!-- Node6&#45;&gt;Node4 -->
<g id="edge8" class="edge">
<title>Node6&#45;&gt;Node4</title>
<path fill="none" stroke="#191970" d="M223.2427,-57.7426C186.896,-49.1784 128.331,-35.2361 69.2276,-20.4045"/>
<polygon fill="#191970" stroke="#191970" points="69.9073,-16.9665 59.3555,-17.9199 68.1988,-23.7548 69.9073,-16.9665"/>
</g>
<!-- Node7 -->
<g id="node8" class="node">
<title>Node7</title>
<polygon fill="#ffffff" stroke="#bfbfbf" points="77,-.5 77,-19.5 126,-19.5 126,-.5 77,-.5"/>
<text text-anchor="middle" x="101.5" y="-7.5" font-family="Helvetica,sans-Serif" font-size="10.00" fill="#000000">cstddef</text>
</g>
<!-- Node6&#45;&gt;Node7 -->
<g id="edge7" class="edge">
<title>Node6&#45;&gt;Node7</title>
<path fill="none" stroke="#191970" d="M231.5107,-56.3733C205.0026,-46.9181 164.4641,-32.4585 135.7099,-22.2023"/>
<polygon fill="#191970" stroke="#191970" points="136.6677,-18.828 126.073,-18.7649 134.3159,-25.4211 136.6677,-18.828"/>
</g>
<!-- Node6&#45;&gt;Node8 -->
<g id="edge9" class="edge">
<title>Node6&#45;&gt;Node8</title>
<path fill="none" stroke="#191970" d="M268.6028,-56.2455C277.0028,-48.1352 289.1494,-36.4075 299.1084,-26.7919"/>
<polygon fill="#191970" stroke="#191970" points="301.75,-29.1066 306.5129,-19.6427 296.8878,-24.0707 301.75,-29.1066"/>
</g>
<!-- Node9 -->
<g id="node10" class="node">
<title>Node9</title>
<polygon fill="#ffffff" stroke="#bfbfbf" points="144.5,-.5 144.5,-19.5 194.5,-19.5 194.5,-.5 144.5,-.5"/>
<text text-anchor="middle" x="169.5" y="-7.5" font-family="Helvetica,sans-Serif" font-size="10.00" fill="#000000">optional</text>
</g>
<!-- Node6&#45;&gt;Node9 -->
<g id="edge10" class="edge">
<title>Node6&#45;&gt;Node9</title>
<path fill="none" stroke="#191970" d="M242.9974,-56.2455C229.342,-47.6534 209.2343,-35.0014 193.5011,-25.1018"/>
<polygon fill="#191970" stroke="#191970" points="195.1529,-22.006 184.825,-19.6427 191.4249,-27.9307 195.1529,-22.006"/>
</g>
<!-- Node6&#45;&gt;Node10 -->
<g id="edge11" class="edge">
<title>Node6&#45;&gt;Node10</title>
<path fill="none" stroke="#191970" d="M278.9568,-56.3733C298.3195,-47.2614 327.5587,-33.5018 349.1621,-23.3355"/>
<polygon fill="#191970" stroke="#191970" points="350.9299,-26.3718 358.4878,-18.9469 347.9493,-20.0381 350.9299,-26.3718"/>
</g>
<!-- Node11 -->
<g id="node12" class="node">
<title>Node11</title>
<polygon fill="#ffffff" stroke="#bfbfbf" points="212.5,-.5 212.5,-19.5 274.5,-19.5 274.5,-.5 212.5,-.5"/>
<text text-anchor="middle" x="243.5" y="-7.5" font-family="Helvetica,sans-Serif" font-size="10.00" fill="#000000">type_traits</text>
</g>
<!-- Node6&#45;&gt;Node11 -->
<g id="edge12" class="edge">
<title>Node6&#45;&gt;Node11</title>
<path fill="none" stroke="#191970" d="M255.8872,-56.2455C253.9084,-48.8579 251.1256,-38.4689 248.6988,-29.4087"/>
<polygon fill="#191970" stroke="#191970" points="252.0511,-28.3966 246.0829,-19.6427 245.2895,-30.2078 252.0511,-28.3966"/>
</g>
<!-- Node6&#45;&gt;Node12 -->
<g id="edge13" class="edge">
<title>Node6&#45;&gt;Node12</title>
<path fill="none" stroke="#191970" d="M289.8405,-56.4788C317.6786,-47.9586 359.695,-34.9458 404.6176,-20.2325"/>
<polygon fill="#191970" stroke="#191970" points="405.8368,-23.5161 414.2436,-17.0681 403.6507,-16.8662 405.8368,-23.5161"/>
</g>
</g>
</svg>
