<?xml version="1.0" encoding="UTF-8" standalone="no"?>
<!DOCTYPE svg PUBLIC "-//W3C//DTD SVG 1.1//EN"
 "http://www.w3.org/Graphics/SVG/1.1/DTD/svg11.dtd">
<!-- Generated by graphviz version 2.40.1 (20161225.0304)
 -->
<!-- Title: fun::sq Pages: 1 -->
<!--zoomable 230 -->
<svg id="main" version="1.1" xmlns="http://www.w3.org/2000/svg" xmlns:xlink="http://www.w3.org/1999/xlink" xml:space="preserve" onload="init(evt)">
<style type="text/css"><![CDATA[
.edge:hover path { stroke: red; }
.edge:hover polygon { stroke: red; fill: red; }
]]></style>
<script type="text/javascript"><![CDATA[
var edges = document.getElementsByTagName('g');
if (edges && edges.length) {
  for (var i=0;i<edges.length;i++) {
    if (edges[i].id.substr(0,4)=='edge') {
      edges[i].setAttribute('class','edge');
    }
  }
}
]]></script>
        <defs>
                <circle id="rim" cx="0" cy="0" r="7"/>
                <circle id="rim2" cx="0" cy="0" r="3.5"/>
                <g id="zoomPlus">
                        <use xlink:href="#rim" fill="#404040">
                                <set attributeName="fill" to="#808080" begin="zoomplus.mouseover" end="zoomplus.mouseout"/>
                        </use>
                        <path d="M-4,0h8M0,-4v8" fill="none" stroke="white" stroke-width="1.5" pointer-events="none"/>
                </g>
                <g id="zoomMin">
                        <use xlink:href="#rim" fill="#404040">
                                <set attributeName="fill" to="#808080" begin="zoomminus.mouseover" end="zoomminus.mouseout"/>
                        </use>
                        <path d="M-4,0h8" fill="none" stroke="white" stroke-width="1.5" pointer-events="none"/>
                </g>
                <g id="dirArrow">
                        <path fill="none" stroke="white" stroke-width="1.5" d="M0,-3.0v7 M-2.5,-0.5L0,-3.0L2.5,-0.5"/>
                </g>
               <g id="resetDef">
                       <use xlink:href="#rim2" fill="#404040">
                               <set attributeName="fill" to="#808080" begin="reset.mouseover" end="reset.mouseout"/>
                       </use>
               </g>
        </defs>

<script type="text/javascript">
var viewWidth = 598;
var viewHeight = 230;
var sectionId = 'dynsection-28';
</script>
<script xlink:href="svgpan.js"/>
<svg id="graph" class="graph">
<g id="viewport">
<title>fun::sq</title>
<polygon fill="#ffffff" stroke="transparent" points="-4,4 -4,-225.5 594,-225.5 594,4 -4,4"/>
<!-- Node183 -->
<g id="node1" class="node">
<title>Node183</title>
<polygon fill="#bfbfbf" stroke="#000000" points="0,-107 0,-126 47,-126 47,-107 0,-107"/>
<text text-anchor="middle" x="23.5" y="-114" font-family="Helvetica,sans-Serif" font-size="10.00" fill="#000000">fun::sq</text>
</g>
<!-- Node184 -->
<g id="node2" class="node">
<title>Node184</title>
<g id="a_node2"><a xlink:href="namespacefun.html#abf1fc817a93594b1bbec567f4ec8e671" target="_top" xlink:title="fun::check_cross_law">
<polygon fill="#ffffff" stroke="#000000" points="86.5,-202 86.5,-221 198.5,-221 198.5,-202 86.5,-202"/>
<text text-anchor="middle" x="142.5" y="-209" font-family="Helvetica,sans-Serif" font-size="10.00" fill="#000000">fun::check_cross_law</text>
</a>
</g>
</g>
<!-- Node183&#45;&gt;Node184 -->
<g id="edge1" class="edge">
<title>Node183&#45;&gt;Node184</title>
<path fill="none" stroke="#191970" d="M33.7574,-135.2903C44.0692,-152.5126 61.4971,-177.5405 83,-192.5 88.5189,-196.3395 94.8546,-199.4337 101.2877,-201.9184"/>
<polygon fill="#191970" stroke="#191970" points="36.5455,-133.1169 28.5313,-126.1871 30.4748,-136.6022 36.5455,-133.1169"/>
</g>
<!-- Node188 -->
<g id="node6" class="node">
<title>Node188</title>
<g id="a_node6"><a xlink:href="test__persp__plane_8cpp.html#a3a70b50a1fd45c219b46061aaeee3c26" target="_top" xlink:title="chk_degenerate">
<polygon fill="#ffffff" stroke="#000000" points="504,-126 504,-145 590,-145 590,-126 504,-126"/>
<text text-anchor="middle" x="547" y="-133" font-family="Helvetica,sans-Serif" font-size="10.00" fill="#000000">chk_degenerate</text>
</a>
</g>
</g>
<!-- Node183&#45;&gt;Node188 -->
<g id="edge9" class="edge">
<title>Node183&#45;&gt;Node188</title>
<path fill="none" stroke="#191970" d="M57.0979,-117.7194C148.601,-121.0404 402.1745,-130.2437 503.9291,-133.9368"/>
<polygon fill="#191970" stroke="#191970" points="57.1311,-114.2184 47.0107,-117.3533 56.8771,-121.2138 57.1311,-114.2184"/>
</g>
<!-- Node190 -->
<g id="node8" class="node">
<title>Node190</title>
<g id="a_node8"><a xlink:href="namespacefun.html#a80ee645ea5d6e23d3185c2657beddfbc" target="_top" xlink:title="fun::check_cross_TQF">
<polygon fill="#ffffff" stroke="#000000" points="84.5,-164 84.5,-183 200.5,-183 200.5,-164 84.5,-164"/>
<text text-anchor="middle" x="142.5" y="-171" font-family="Helvetica,sans-Serif" font-size="10.00" fill="#000000">fun::check_cross_TQF</text>
</a>
</g>
</g>
<!-- Node183&#45;&gt;Node190 -->
<g id="edge7" class="edge">
<title>Node183&#45;&gt;Node190</title>
<path fill="none" stroke="#191970" d="M48.0893,-131.0294C58.6759,-137.0504 71.2897,-143.9168 83,-149.5 93.8586,-154.6771 106.145,-159.7575 116.7219,-163.9014"/>
<polygon fill="#191970" stroke="#191970" points="49.7929,-127.9716 39.3813,-126.0093 46.2967,-134.036 49.7929,-127.9716"/>
</g>
<!-- Node191 -->
<g id="node9" class="node">
<title>Node191</title>
<g id="a_node9"><a xlink:href="test__euclid_8cpp.html#a5cb299576d7439887c5d7adcd39b5cf9" target="_top" xlink:title="chk_euclid">
<polygon fill="#ffffff" stroke="#000000" points="266,-69 266,-88 329,-88 329,-69 266,-69"/>
<text text-anchor="middle" x="297.5" y="-76" font-family="Helvetica,sans-Serif" font-size="10.00" fill="#000000">chk_euclid</text>
</a>
</g>
</g>
<!-- Node183&#45;&gt;Node191 -->
<g id="edge10" class="edge">
<title>Node183&#45;&gt;Node191</title>
<path fill="none" stroke="#191970" d="M57.3092,-111.8111C110.6274,-104.4166 213.5225,-90.1465 265.6175,-82.9217"/>
<polygon fill="#191970" stroke="#191970" points="56.7607,-108.3536 47.3364,-113.1942 57.7224,-115.2872 56.7607,-108.3536"/>
</g>
<!-- Node192 -->
<g id="node10" class="node">
<title>Node192</title>
<g id="a_node10"><a xlink:href="namespacefun.html#af72530f49dd29ac6dc3a7dfa37accd17" target="_top" xlink:title="fun::is_parallel">
<polygon fill="#ffffff" stroke="#000000" points="102.5,-50 102.5,-69 182.5,-69 182.5,-50 102.5,-50"/>
<text text-anchor="middle" x="142.5" y="-57" font-family="Helvetica,sans-Serif" font-size="10.00" fill="#000000">fun::is_parallel</text>
</a>
</g>
</g>
<!-- Node183&#45;&gt;Node192 -->
<g id="edge11" class="edge">
<title>Node183&#45;&gt;Node192</title>
<path fill="none" stroke="#191970" d="M48.0893,-101.9706C58.6759,-95.9496 71.2897,-89.0832 83,-83.5 93.8586,-78.3229 106.145,-73.2425 116.7219,-69.0986"/>
<polygon fill="#191970" stroke="#191970" points="46.2967,-98.964 39.3813,-106.9907 49.7929,-105.0284 46.2967,-98.964"/>
</g>
<!-- Node193 -->
<g id="node11" class="node">
<title>Node193</title>
<g id="a_node11"><a xlink:href="classfun_1_1persp__euclid__plane.html#a040b970ce9bffc8fe7aa69c897c6d0ae" target="_top" xlink:title="fun::persp_euclid_plane\l::omega">
<polygon fill="#ffffff" stroke="#000000" points="83,-.5 83,-30.5 202,-30.5 202,-.5 83,-.5"/>
<text text-anchor="start" x="91" y="-18.5" font-family="Helvetica,sans-Serif" font-size="10.00" fill="#000000">fun::persp_euclid_plane</text>
<text text-anchor="middle" x="142.5" y="-7.5" font-family="Helvetica,sans-Serif" font-size="10.00" fill="#000000">::omega</text>
</a>
</g>
</g>
<!-- Node183&#45;&gt;Node193 -->
<g id="edge13" class="edge">
<title>Node183&#45;&gt;Node193</title>
<path fill="none" stroke="#191970" d="M34.2382,-97.8645C44.7902,-80.953 62.2926,-56.3129 83,-40.5 87.8978,-36.7599 93.4375,-33.4729 99.1171,-30.6169"/>
<polygon fill="#191970" stroke="#191970" points="31.0159,-96.4309 28.8569,-106.8035 37.0131,-100.0413 31.0159,-96.4309"/>
</g>
<!-- Node185 -->
<g id="node3" class="node">
<title>Node185</title>
<g id="a_node3"><a xlink:href="test__ell__plane_8cpp.html#af9f50c00186c0acc1e89ffe6da7edf60" target="_top" xlink:title="chk_tri">
<polygon fill="#ffffff" stroke="#000000" points="274.5,-164 274.5,-183 320.5,-183 320.5,-164 274.5,-164"/>
<text text-anchor="middle" x="297.5" y="-171" font-family="Helvetica,sans-Serif" font-size="10.00" fill="#000000">chk_tri</text>
</a>
</g>
</g>
<!-- Node184&#45;&gt;Node185 -->
<g id="edge2" class="edge">
<title>Node184&#45;&gt;Node185</title>
<path fill="none" stroke="#191970" d="M191.5245,-199.4811C219.2044,-192.6951 252.5133,-184.529 274.3054,-179.1864"/>
<polygon fill="#191970" stroke="#191970" points="190.492,-196.1305 181.613,-201.911 192.1588,-202.9292 190.492,-196.1305"/>
</g>
<!-- Node186 -->
<g id="node4" class="node">
<title>Node186</title>
<g id="a_node4"><a xlink:href="test__ell__plane_8cpp.html#a14c5157f7d8d8ca13f61f427c54ca0a9" target="_top" xlink:title="TEST_CASE">
<polygon fill="#ffffff" stroke="#000000" points="393,-164 393,-183 468,-183 468,-164 393,-164"/>
<text text-anchor="middle" x="430.5" y="-171" font-family="Helvetica,sans-Serif" font-size="10.00" fill="#000000">TEST_CASE</text>
</a>
</g>
</g>
<!-- Node185&#45;&gt;Node186 -->
<g id="edge3" class="edge">
<title>Node185&#45;&gt;Node186</title>
<path fill="none" stroke="#191970" d="M330.8566,-173.5C349.6833,-173.5 373.2715,-173.5 392.7711,-173.5"/>
<polygon fill="#191970" stroke="#191970" points="330.6669,-170.0001 320.6668,-173.5 330.6668,-177.0001 330.6669,-170.0001"/>
</g>
<!-- Node187 -->
<g id="node5" class="node">
<title>Node187</title>
<g id="a_node5"><a xlink:href="test__euclid_8cpp.html#a7a9c104eecea25ccd260ebe509e5f19e" target="_top" xlink:title="chk_cyclic">
<polygon fill="#ffffff" stroke="#000000" points="515.5,-202 515.5,-221 578.5,-221 578.5,-202 515.5,-202"/>
<text text-anchor="middle" x="547" y="-209" font-family="Helvetica,sans-Serif" font-size="10.00" fill="#000000">chk_cyclic</text>
</a>
</g>
</g>
<!-- Node186&#45;&gt;Node187 -->
<g id="edge4" class="edge">
<title>Node186&#45;&gt;Node187</title>
<path fill="none" stroke="#191970" d="M469.8216,-186.3259C485.4534,-191.4247 503.1258,-197.1891 517.6115,-201.9141"/>
<polygon fill="#191970" stroke="#191970" points="470.4903,-182.8626 459.8979,-183.089 468.3195,-189.5175 470.4903,-182.8626"/>
</g>
<!-- Node186&#45;&gt;Node188 -->
<g id="edge5" class="edge">
<title>Node186&#45;&gt;Node188</title>
<path fill="none" stroke="#191970" d="M469.8216,-160.6741C485.4534,-155.5753 503.1258,-149.8109 517.6115,-145.0859"/>
<polygon fill="#191970" stroke="#191970" points="468.3195,-157.4825 459.8979,-163.911 470.4903,-164.1374 468.3195,-157.4825"/>
</g>
<!-- Node189 -->
<g id="node7" class="node">
<title>Node189</title>
<g id="a_node7"><a xlink:href="structmyck.html#a36a99b40632cfef0f79e5df33866e9ab" target="_top" xlink:title="myck::measure">
<polygon fill="#ffffff" stroke="#000000" points="505,-164 505,-183 589,-183 589,-164 505,-164"/>
<text text-anchor="middle" x="547" y="-171" font-family="Helvetica,sans-Serif" font-size="10.00" fill="#000000">myck::measure</text>
</a>
</g>
</g>
<!-- Node186&#45;&gt;Node189 -->
<g id="edge6" class="edge">
<title>Node186&#45;&gt;Node189</title>
<path fill="none" stroke="#191970" d="M478.1351,-173.5C486.9406,-173.5 496.0809,-173.5 504.7143,-173.5"/>
<polygon fill="#191970" stroke="#191970" points="478.0026,-170.0001 468.0026,-173.5 478.0026,-177.0001 478.0026,-170.0001"/>
</g>
<!-- Node190&#45;&gt;Node185 -->
<g id="edge8" class="edge">
<title>Node190&#45;&gt;Node185</title>
<path fill="none" stroke="#191970" d="M210.6807,-173.5C233.479,-173.5 257.3689,-173.5 274.3041,-173.5"/>
<polygon fill="#191970" stroke="#191970" points="210.6573,-170.0001 200.6573,-173.5 210.6572,-177.0001 210.6573,-170.0001"/>
</g>
<!-- Node192&#45;&gt;Node191 -->
<g id="edge12" class="edge">
<title>Node192&#45;&gt;Node191</title>
<path fill="none" stroke="#191970" d="M192.814,-65.6675C216.7753,-68.6047 244.7069,-72.0286 265.6891,-74.6006"/>
<polygon fill="#191970" stroke="#191970" points="193.1714,-62.1852 182.8198,-64.4424 192.3196,-69.1332 193.1714,-62.1852"/>
</g>
<!-- Node194 -->
<g id="node12" class="node">
<title>Node194</title>
<g id="a_node12"><a xlink:href="classfun_1_1persp__euclid__plane.html#aca2135d5100d711454e833ade01083ca" target="_top" xlink:title="fun::persp_euclid_plane\l::measure">
<polygon fill="#ffffff" stroke="#000000" points="238,-.5 238,-30.5 357,-30.5 357,-.5 238,-.5"/>
<text text-anchor="start" x="246" y="-18.5" font-family="Helvetica,sans-Serif" font-size="10.00" fill="#000000">fun::persp_euclid_plane</text>
<text text-anchor="middle" x="297.5" y="-7.5" font-family="Helvetica,sans-Serif" font-size="10.00" fill="#000000">::measure</text>
</a>
</g>
</g>
<!-- Node193&#45;&gt;Node194 -->
<g id="edge14" class="edge">
<title>Node193&#45;&gt;Node194</title>
<path fill="none" stroke="#191970" d="M212.6612,-15.5C221.1217,-15.5 229.6999,-15.5 237.9877,-15.5"/>
<polygon fill="#191970" stroke="#191970" points="212.4271,-12.0001 202.427,-15.5 212.427,-19.0001 212.4271,-12.0001"/>
</g>
</g>
</svg>
        <g id="navigator" transform="translate(0 0)" fill="#404254">
                <rect fill="#f2f5e9" fill-opacity="0.5" stroke="#606060" stroke-width=".5" x="0" y="0" width="60" height="60"/>
                <use id="zoomplus" xlink:href="#zoomPlus" x="17" y="9" onmousedown="handleZoom(evt,'in')"/>
                <use id="zoomminus" xlink:href="#zoomMin" x="42" y="9" onmousedown="handleZoom(evt,'out')"/>
                <use id="reset" xlink:href="#resetDef" x="30" y="36" onmousedown="handleReset()"/>
                <g id="arrowUp" xlink:href="#dirArrow" transform="translate(30 24)" onmousedown="handlePan(0,-1)">
                  <use xlink:href="#rim" fill="#404040">
                        <set attributeName="fill" to="#808080" begin="arrowUp.mouseover" end="arrowUp.mouseout"/>
                  </use>
                  <path fill="none" stroke="white" stroke-width="1.5" d="M0,-3.0v7 M-2.5,-0.5L0,-3.0L2.5,-0.5"/>
                </g>
                <g id="arrowRight" xlink:href="#dirArrow" transform="rotate(90) translate(36 -43)" onmousedown="handlePan(1,0)">
                  <use xlink:href="#rim" fill="#404040">
                        <set attributeName="fill" to="#808080" begin="arrowRight.mouseover" end="arrowRight.mouseout"/>
                  </use>
                  <path fill="none" stroke="white" stroke-width="1.5" d="M0,-3.0v7 M-2.5,-0.5L0,-3.0L2.5,-0.5"/>
                </g>
                <g id="arrowDown" xlink:href="#dirArrow" transform="rotate(180) translate(-30 -48)" onmousedown="handlePan(0,1)">
                  <use xlink:href="#rim" fill="#404040">
                        <set attributeName="fill" to="#808080" begin="arrowDown.mouseover" end="arrowDown.mouseout"/>
                  </use>
                  <path fill="none" stroke="white" stroke-width="1.5" d="M0,-3.0v7 M-2.5,-0.5L0,-3.0L2.5,-0.5"/>
                </g>
                <g id="arrowLeft" xlink:href="#dirArrow" transform="rotate(270) translate(-36 17)" onmousedown="handlePan(-1,0)">
                  <use xlink:href="#rim" fill="#404040">
                        <set attributeName="fill" to="#808080" begin="arrowLeft.mouseover" end="arrowLeft.mouseout"/>
                  </use>
                  <path fill="none" stroke="white" stroke-width="1.5" d="M0,-3.0v7 M-2.5,-0.5L0,-3.0L2.5,-0.5"/>
                </g>
        </g>
        <svg viewBox="0 0 15 15" width="100%" height="30px" preserveAspectRatio="xMaxYMin meet">
         <g id="arrow_out" transform="scale(0.3 0.3)">
          <a xlink:href="namespacefun_aedf8ed73d3c766478d73cc514e63107b_icgraph_org.svg" target="_base">
           <rect id="button" ry="5" rx="5" y="6" x="6" height="38" width="38"
                fill="#f2f5e9" fill-opacity="0.5" stroke="#606060" stroke-width="1.0"/>
           <path id="arrow"
             d="M 11.500037,31.436501 C 11.940474,20.09759 22.043105,11.32322 32.158766,21.979434 L 37.068811,17.246167 C 37.068811,17.246167 37.088388,32 37.088388,32 L 22.160133,31.978069 C 22.160133,31.978069 26.997745,27.140456 26.997745,27.140456 C 18.528582,18.264221 13.291696,25.230495 11.500037,31.436501 z"
             style="fill:#404040;"/>
          </a>
         </g>
        </svg>
</svg>
