<?xml version="1.0" encoding="UTF-8" standalone="no"?>
<!DOCTYPE svg PUBLIC "-//W3C//DTD SVG 1.1//EN"
 "http://www.w3.org/Graphics/SVG/1.1/DTD/svg11.dtd">
<!-- Generated by graphviz version 2.40.1 (20161225.0304)
 -->
<!-- Title: fun::cross1 Pages: 1 -->
<!--zoomable 200 -->
<svg id="main" version="1.1" xmlns="http://www.w3.org/2000/svg" xmlns:xlink="http://www.w3.org/1999/xlink" xml:space="preserve" onload="init(evt)">
<style type="text/css"><![CDATA[
.edge:hover path { stroke: red; }
.edge:hover polygon { stroke: red; fill: red; }
]]></style>
<script type="text/javascript"><![CDATA[
var edges = document.getElementsByTagName('g');
if (edges && edges.length) {
  for (var i=0;i<edges.length;i++) {
    if (edges[i].id.substr(0,4)=='edge') {
      edges[i].setAttribute('class','edge');
    }
  }
}
]]></script>
        <defs>
                <circle id="rim" cx="0" cy="0" r="7"/>
                <circle id="rim2" cx="0" cy="0" r="3.5"/>
                <g id="zoomPlus">
                        <use xlink:href="#rim" fill="#404040">
                                <set attributeName="fill" to="#808080" begin="zoomplus.mouseover" end="zoomplus.mouseout"/>
                        </use>
                        <path d="M-4,0h8M0,-4v8" fill="none" stroke="white" stroke-width="1.5" pointer-events="none"/>
                </g>
                <g id="zoomMin">
                        <use xlink:href="#rim" fill="#404040">
                                <set attributeName="fill" to="#808080" begin="zoomminus.mouseover" end="zoomminus.mouseout"/>
                        </use>
                        <path d="M-4,0h8" fill="none" stroke="white" stroke-width="1.5" pointer-events="none"/>
                </g>
                <g id="dirArrow">
                        <path fill="none" stroke="white" stroke-width="1.5" d="M0,-3.0v7 M-2.5,-0.5L0,-3.0L2.5,-0.5"/>
                </g>
               <g id="resetDef">
                       <use xlink:href="#rim2" fill="#404040">
                               <set attributeName="fill" to="#808080" begin="reset.mouseover" end="reset.mouseout"/>
                       </use>
               </g>
        </defs>

<script type="text/javascript">
var viewWidth = 600;
var viewHeight = 200;
var sectionId = 'dynsection-9';
</script>
<script xlink:href="svgpan.js"/>
<svg id="graph" class="graph">
<g id="viewport">
<title>fun::cross1</title>
<polygon fill="#ffffff" stroke="transparent" points="-4,4 -4,-195.5 596,-195.5 596,4 -4,4"/>
<!-- Node56 -->
<g id="node1" class="node">
<title>Node56</title>
<polygon fill="#bfbfbf" stroke="#000000" points="0,-80 0,-99 65,-99 65,-80 0,-80"/>
<text text-anchor="middle" x="32.5" y="-87" font-family="Helvetica,sans-Serif" font-size="10.00" fill="#000000">fun::cross1</text>
</g>
<!-- Node57 -->
<g id="node2" class="node">
<title>Node57</title>
<g id="a_node2"><a xlink:href="namespacefun.html#af43f106b41ae121e2a31a07423a7347f" target="_top" xlink:title="Cross product. ">
<polygon fill="#ffffff" stroke="#000000" points="110.5,-99 110.5,-118 170.5,-118 170.5,-99 110.5,-99"/>
<text text-anchor="middle" x="140.5" y="-106" font-family="Helvetica,sans-Serif" font-size="10.00" fill="#000000">fun::cross</text>
</a>
</g>
</g>
<!-- Node56&#45;&gt;Node57 -->
<g id="edge1" class="edge">
<title>Node56&#45;&gt;Node57</title>
<path fill="none" stroke="#191970" d="M75.2976,-97.0292C87.0778,-99.1017 99.6021,-101.305 110.4922,-103.2208"/>
<polygon fill="#191970" stroke="#191970" points="75.6519,-93.5379 65.1966,-95.2522 74.4389,-100.432 75.6519,-93.5379"/>
</g>
<!-- Node67 -->
<g id="node12" class="node">
<title>Node67</title>
<g id="a_node12"><a xlink:href="namespacefun.html#aa63d35b33a8ef58d84a87dcb32ffe8a4" target="_top" xlink:title="fun::ratio_ratio">
<polygon fill="#ffffff" stroke="#000000" points="101,-61 101,-80 180,-80 180,-61 101,-61"/>
<text text-anchor="middle" x="140.5" y="-68" font-family="Helvetica,sans-Serif" font-size="10.00" fill="#000000">fun::ratio_ratio</text>
</a>
</g>
</g>
<!-- Node56&#45;&gt;Node67 -->
<g id="edge12" class="edge">
<title>Node56&#45;&gt;Node67</title>
<path fill="none" stroke="#191970" d="M75.193,-81.9892C83.5911,-80.5117 92.3712,-78.9671 100.6707,-77.507"/>
<polygon fill="#191970" stroke="#191970" points="74.4389,-78.568 65.1966,-83.7478 75.6519,-85.4621 74.4389,-78.568"/>
</g>
<!-- Node58 -->
<g id="node3" class="node">
<title>Node58</title>
<g id="a_node3"><a xlink:href="test__ck__plane_8cpp.html#ab362ad1c3d592adca7ca1540b02727fd" target="_top" xlink:title="chk_ck">
<polygon fill="#ffffff" stroke="#000000" points="408.5,-172 408.5,-191 456.5,-191 456.5,-172 408.5,-172"/>
<text text-anchor="middle" x="432.5" y="-179" font-family="Helvetica,sans-Serif" font-size="10.00" fill="#000000">chk_ck</text>
</a>
</g>
</g>
<!-- Node57&#45;&gt;Node58 -->
<g id="edge2" class="edge">
<title>Node57&#45;&gt;Node58</title>
<path fill="none" stroke="#191970" d="M157.0995,-125.5836C171.3395,-139.0289 193.1305,-156.8861 216,-165.5 282.132,-190.4089 367.5306,-187.4132 408.4973,-184.0266"/>
<polygon fill="#191970" stroke="#191970" points="159.2317,-122.7731 149.6366,-118.2803 154.3357,-127.7761 159.2317,-122.7731"/>
</g>
<!-- Node60 -->
<g id="node5" class="node">
<title>Node60</title>
<g id="a_node5"><a xlink:href="test__euclid_8cpp.html#a5cb299576d7439887c5d7adcd39b5cf9" target="_top" xlink:title="chk_euclid">
<polygon fill="#ffffff" stroke="#000000" points="256,-137 256,-156 319,-156 319,-137 256,-137"/>
<text text-anchor="middle" x="287.5" y="-144" font-family="Helvetica,sans-Serif" font-size="10.00" fill="#000000">chk_euclid</text>
</a>
</g>
</g>
<!-- Node57&#45;&gt;Node60 -->
<g id="edge4" class="edge">
<title>Node57&#45;&gt;Node60</title>
<path fill="none" stroke="#191970" d="M180.3704,-118.8066C204.107,-124.9426 233.8091,-132.6207 255.914,-138.3349"/>
<polygon fill="#191970" stroke="#191970" points="181.1601,-115.3958 170.6024,-116.2816 179.4081,-122.173 181.1601,-115.3958"/>
</g>
<!-- Node61 -->
<g id="node6" class="node">
<title>Node61</title>
<g id="a_node6"><a xlink:href="test__ell__plane_8cpp.html#af9f50c00186c0acc1e89ffe6da7edf60" target="_top" xlink:title="chk_tri">
<polygon fill="#ffffff" stroke="#000000" points="264.5,-99 264.5,-118 310.5,-118 310.5,-99 264.5,-99"/>
<text text-anchor="middle" x="287.5" y="-106" font-family="Helvetica,sans-Serif" font-size="10.00" fill="#000000">chk_tri</text>
</a>
</g>
</g>
<!-- Node57&#45;&gt;Node61 -->
<g id="edge5" class="edge">
<title>Node57&#45;&gt;Node61</title>
<path fill="none" stroke="#191970" d="M180.8308,-108.5C207.6162,-108.5 241.8385,-108.5 264.196,-108.5"/>
<polygon fill="#191970" stroke="#191970" points="180.6024,-105.0001 170.6024,-108.5 180.6023,-112.0001 180.6024,-105.0001"/>
</g>
<!-- Node65 -->
<g id="node10" class="node">
<title>Node65</title>
<g id="a_node10"><a xlink:href="classfun_1_1pg__object.html#a933664db2810f965c76381761482dd40" target="_top" xlink:title="Join or meet. ">
<polygon fill="#ffffff" stroke="#000000" points="220.5,-49.5 220.5,-79.5 354.5,-79.5 354.5,-49.5 220.5,-49.5"/>
<text text-anchor="start" x="228.5" y="-67.5" font-family="Helvetica,sans-Serif" font-size="10.00" fill="#000000">fun::pg_object&lt; _K,</text>
<text text-anchor="middle" x="287.5" y="-56.5" font-family="Helvetica,sans-Serif" font-size="10.00" fill="#000000"> pg_line&lt; _K &gt; &gt;::operator*</text>
</a>
</g>
</g>
<!-- Node57&#45;&gt;Node65 -->
<g id="edge10" class="edge">
<title>Node57&#45;&gt;Node65</title>
<path fill="none" stroke="#191970" d="M180.4822,-96.5326C197.9633,-91.3001 218.6633,-85.1042 237.1776,-79.5625"/>
<polygon fill="#191970" stroke="#191970" points="179.1788,-93.2692 170.6024,-99.4898 181.1861,-99.9752 179.1788,-93.2692"/>
</g>
<!-- Node66 -->
<g id="node11" class="node">
<title>Node66</title>
<g id="a_node11"><a xlink:href="classfun_1_1pg__object.html#a15ed5d75aa1cddeaa983cacb4936ca71" target="_top" xlink:title="Equal to. ">
<polygon fill="#ffffff" stroke="#000000" points="216,-.5 216,-30.5 359,-30.5 359,-.5 216,-.5"/>
<text text-anchor="start" x="224" y="-18.5" font-family="Helvetica,sans-Serif" font-size="10.00" fill="#000000">fun::pg_object&lt; _K,</text>
<text text-anchor="middle" x="287.5" y="-7.5" font-family="Helvetica,sans-Serif" font-size="10.00" fill="#000000"> pg_line&lt; _K &gt; &gt;::operator==</text>
</a>
</g>
</g>
<!-- Node57&#45;&gt;Node66 -->
<g id="edge11" class="edge">
<title>Node57&#45;&gt;Node66</title>
<path fill="none" stroke="#191970" d="M174.3967,-93.6584C176.3605,-92.3559 178.2467,-90.9695 180,-89.5 200.9867,-71.9106 193.9598,-55.7498 216,-39.5 220.6372,-36.0811 225.7925,-33.1285 231.1509,-30.5828"/>
<polygon fill="#191970" stroke="#191970" points="172.3639,-90.7909 165.4625,-98.8297 175.8706,-96.8492 172.3639,-90.7909"/>
</g>
<!-- Node59 -->
<g id="node4" class="node">
<title>Node59</title>
<g id="a_node4"><a xlink:href="structmyck.html#a36a99b40632cfef0f79e5df33866e9ab" target="_top" xlink:title="myck::measure">
<polygon fill="#ffffff" stroke="#000000" points="507,-170 507,-189 591,-189 591,-170 507,-170"/>
<text text-anchor="middle" x="549" y="-177" font-family="Helvetica,sans-Serif" font-size="10.00" fill="#000000">myck::measure</text>
</a>
</g>
</g>
<!-- Node58&#45;&gt;Node59 -->
<g id="edge3" class="edge">
<title>Node58&#45;&gt;Node59</title>
<path fill="none" stroke="#191970" d="M466.7347,-180.9123C479.3422,-180.6958 493.7692,-180.4482 506.9846,-180.2213"/>
<polygon fill="#191970" stroke="#191970" points="466.5773,-177.4144 456.6389,-181.0856 466.6975,-184.4133 466.5773,-177.4144"/>
</g>
<!-- Node62 -->
<g id="node7" class="node">
<title>Node62</title>
<g id="a_node7"><a xlink:href="test__ell__plane_8cpp.html#a14c5157f7d8d8ca13f61f427c54ca0a9" target="_top" xlink:title="TEST_CASE">
<polygon fill="#ffffff" stroke="#000000" points="395,-118 395,-137 470,-137 470,-118 395,-118"/>
<text text-anchor="middle" x="432.5" y="-125" font-family="Helvetica,sans-Serif" font-size="10.00" fill="#000000">TEST_CASE</text>
</a>
</g>
</g>
<!-- Node61&#45;&gt;Node62 -->
<g id="edge6" class="edge">
<title>Node61&#45;&gt;Node62</title>
<path fill="none" stroke="#191970" d="M320.7177,-112.8527C342.8126,-115.7479 371.8806,-119.5568 394.8361,-122.5647"/>
<polygon fill="#191970" stroke="#191970" points="321.1668,-109.3817 310.7968,-111.5527 320.2572,-116.3223 321.1668,-109.3817"/>
</g>
<!-- Node62&#45;&gt;Node59 -->
<g id="edge9" class="edge">
<title>Node62&#45;&gt;Node59</title>
<path fill="none" stroke="#191970" d="M463.2586,-141.2292C483.4445,-150.2392 509.3457,-161.8002 527.373,-169.8468"/>
<polygon fill="#191970" stroke="#191970" points="464.4261,-137.9175 453.8679,-137.0376 461.5729,-144.3097 464.4261,-137.9175"/>
</g>
<!-- Node63 -->
<g id="node8" class="node">
<title>Node63</title>
<g id="a_node8"><a xlink:href="test__euclid_8cpp.html#a7a9c104eecea25ccd260ebe509e5f19e" target="_top" xlink:title="chk_cyclic">
<polygon fill="#ffffff" stroke="#000000" points="517.5,-127 517.5,-146 580.5,-146 580.5,-127 517.5,-127"/>
<text text-anchor="middle" x="549" y="-134" font-family="Helvetica,sans-Serif" font-size="10.00" fill="#000000">chk_cyclic</text>
</a>
</g>
</g>
<!-- Node62&#45;&gt;Node63 -->
<g id="edge7" class="edge">
<title>Node62&#45;&gt;Node63</title>
<path fill="none" stroke="#191970" d="M480.3048,-131.1931C492.8186,-132.1598 505.9973,-133.1779 517.4278,-134.0609"/>
<polygon fill="#191970" stroke="#191970" points="480.2425,-127.6779 470.0026,-130.3972 479.7033,-134.6571 480.2425,-127.6779"/>
</g>
<!-- Node64 -->
<g id="node9" class="node">
<title>Node64</title>
<g id="a_node9"><a xlink:href="test__persp__plane_8cpp.html#a3a70b50a1fd45c219b46061aaeee3c26" target="_top" xlink:title="chk_degenerate">
<polygon fill="#ffffff" stroke="#000000" points="506,-89 506,-108 592,-108 592,-89 506,-89"/>
<text text-anchor="middle" x="549" y="-96" font-family="Helvetica,sans-Serif" font-size="10.00" fill="#000000">chk_degenerate</text>
</a>
</g>
</g>
<!-- Node62&#45;&gt;Node64 -->
<g id="edge8" class="edge">
<title>Node62&#45;&gt;Node64</title>
<path fill="none" stroke="#191970" d="M479.7112,-115.7479C490.0373,-113.1774 500.8438,-110.4874 510.7678,-108.017"/>
<polygon fill="#191970" stroke="#191970" points="478.861,-112.3526 470.0026,-118.1646 480.5519,-119.1453 478.861,-112.3526"/>
</g>
</g>
</svg>
        <g id="navigator" transform="translate(0 0)" fill="#404254">
                <rect fill="#f2f5e9" fill-opacity="0.5" stroke="#606060" stroke-width=".5" x="0" y="0" width="60" height="60"/>
                <use id="zoomplus" xlink:href="#zoomPlus" x="17" y="9" onmousedown="handleZoom(evt,'in')"/>
                <use id="zoomminus" xlink:href="#zoomMin" x="42" y="9" onmousedown="handleZoom(evt,'out')"/>
                <use id="reset" xlink:href="#resetDef" x="30" y="36" onmousedown="handleReset()"/>
                <g id="arrowUp" xlink:href="#dirArrow" transform="translate(30 24)" onmousedown="handlePan(0,-1)">
                  <use xlink:href="#rim" fill="#404040">
                        <set attributeName="fill" to="#808080" begin="arrowUp.mouseover" end="arrowUp.mouseout"/>
                  </use>
                  <path fill="none" stroke="white" stroke-width="1.5" d="M0,-3.0v7 M-2.5,-0.5L0,-3.0L2.5,-0.5"/>
                </g>
                <g id="arrowRight" xlink:href="#dirArrow" transform="rotate(90) translate(36 -43)" onmousedown="handlePan(1,0)">
                  <use xlink:href="#rim" fill="#404040">
                        <set attributeName="fill" to="#808080" begin="arrowRight.mouseover" end="arrowRight.mouseout"/>
                  </use>
                  <path fill="none" stroke="white" stroke-width="1.5" d="M0,-3.0v7 M-2.5,-0.5L0,-3.0L2.5,-0.5"/>
                </g>
                <g id="arrowDown" xlink:href="#dirArrow" transform="rotate(180) translate(-30 -48)" onmousedown="handlePan(0,1)">
                  <use xlink:href="#rim" fill="#404040">
                        <set attributeName="fill" to="#808080" begin="arrowDown.mouseover" end="arrowDown.mouseout"/>
                  </use>
                  <path fill="none" stroke="white" stroke-width="1.5" d="M0,-3.0v7 M-2.5,-0.5L0,-3.0L2.5,-0.5"/>
                </g>
                <g id="arrowLeft" xlink:href="#dirArrow" transform="rotate(270) translate(-36 17)" onmousedown="handlePan(-1,0)">
                  <use xlink:href="#rim" fill="#404040">
                        <set attributeName="fill" to="#808080" begin="arrowLeft.mouseover" end="arrowLeft.mouseout"/>
                  </use>
                  <path fill="none" stroke="white" stroke-width="1.5" d="M0,-3.0v7 M-2.5,-0.5L0,-3.0L2.5,-0.5"/>
                </g>
        </g>
        <svg viewBox="0 0 15 15" width="100%" height="30px" preserveAspectRatio="xMaxYMin meet">
         <g id="arrow_out" transform="scale(0.3 0.3)">
          <a xlink:href="namespacefun_a57948a71d5676b82cd44690eb2bddc9c_icgraph_org.svg" target="_base">
           <rect id="button" ry="5" rx="5" y="6" x="6" height="38" width="38"
                fill="#f2f5e9" fill-opacity="0.5" stroke="#606060" stroke-width="1.0"/>
           <path id="arrow"
             d="M 11.500037,31.436501 C 11.940474,20.09759 22.043105,11.32322 32.158766,21.979434 L 37.068811,17.246167 C 37.068811,17.246167 37.088388,32 37.088388,32 L 22.160133,31.978069 C 22.160133,31.978069 26.997745,27.140456 26.997745,27.140456 C 18.528582,18.264221 13.291696,25.230495 11.500037,31.436501 z"
             style="fill:#404040;"/>
          </a>
         </g>
        </svg>
</svg>
