<?xml version="1.0" encoding="UTF-8" standalone="no"?>
<!DOCTYPE svg PUBLIC "-//W3C//DTD SVG 1.1//EN"
 "http://www.w3.org/Graphics/SVG/1.1/DTD/svg11.dtd">
<!-- Generated by graphviz version 2.40.1 (20161225.0304)
 -->
<!-- Title: fun::check_cross_law Pages: 1 -->
<svg width="435pt" height="104pt"
 viewBox="0.00 0.00 435.00 104.00" xmlns="http://www.w3.org/2000/svg" xmlns:xlink="http://www.w3.org/1999/xlink">
<g id="graph0" class="graph" transform="scale(1 1) rotate(0) translate(4 100)">
<title>fun::check_cross_law</title>
<polygon fill="#ffffff" stroke="transparent" points="-4,4 -4,-100 431,-100 431,4 -4,4"/>
<!-- Node2 -->
<g id="node1" class="node">
<title>Node2</title>
<polygon fill="#bfbfbf" stroke="#000000" points="0,-38.5 0,-57.5 112,-57.5 112,-38.5 0,-38.5"/>
<text text-anchor="middle" x="56" y="-45.5" font-family="Helvetica,sans-Serif" font-size="10.00" fill="#000000">fun::check_cross_law</text>
</g>
<!-- Node3 -->
<g id="node2" class="node">
<title>Node3</title>
<g id="a_node2"><a xlink:href="test__ell__plane_8cpp.html#af9f50c00186c0acc1e89ffe6da7edf60" target="_top" xlink:title="chk_tri">
<polygon fill="#ffffff" stroke="#000000" points="148,-38.5 148,-57.5 194,-57.5 194,-38.5 148,-38.5"/>
<text text-anchor="middle" x="171" y="-45.5" font-family="Helvetica,sans-Serif" font-size="10.00" fill="#000000">chk_tri</text>
</a>
</g>
</g>
<!-- Node2&#45;&gt;Node3 -->
<g id="edge1" class="edge">
<title>Node2&#45;&gt;Node3</title>
<path fill="none" stroke="#191970" d="M122.2113,-48C131.4135,-48 140.3109,-48 147.9311,-48"/>
<polygon fill="#191970" stroke="#191970" points="122.1525,-44.5001 112.1525,-48 122.1524,-51.5001 122.1525,-44.5001"/>
</g>
<!-- Node4 -->
<g id="node3" class="node">
<title>Node4</title>
<g id="a_node3"><a xlink:href="test__ell__plane_8cpp.html#a14c5157f7d8d8ca13f61f427c54ca0a9" target="_top" xlink:title="TEST_CASE">
<polygon fill="#ffffff" stroke="#000000" points="230,-38.5 230,-57.5 305,-57.5 305,-38.5 230,-38.5"/>
<text text-anchor="middle" x="267.5" y="-45.5" font-family="Helvetica,sans-Serif" font-size="10.00" fill="#000000">TEST_CASE</text>
</a>
</g>
</g>
<!-- Node3&#45;&gt;Node4 -->
<g id="edge2" class="edge">
<title>Node3&#45;&gt;Node4</title>
<path fill="none" stroke="#191970" d="M204.5743,-48C212.6783,-48 221.3927,-48 229.6765,-48"/>
<polygon fill="#191970" stroke="#191970" points="204.36,-44.5001 194.36,-48 204.3599,-51.5001 204.36,-44.5001"/>
</g>
<!-- Node5 -->
<g id="node4" class="node">
<title>Node5</title>
<g id="a_node4"><a xlink:href="test__euclid_8cpp.html#a7a9c104eecea25ccd260ebe509e5f19e" target="_top" xlink:title="chk_cyclic">
<polygon fill="#ffffff" stroke="#000000" points="352.5,-76.5 352.5,-95.5 415.5,-95.5 415.5,-76.5 352.5,-76.5"/>
<text text-anchor="middle" x="384" y="-83.5" font-family="Helvetica,sans-Serif" font-size="10.00" fill="#000000">chk_cyclic</text>
</a>
</g>
</g>
<!-- Node4&#45;&gt;Node5 -->
<g id="edge3" class="edge">
<title>Node4&#45;&gt;Node5</title>
<path fill="none" stroke="#191970" d="M306.8216,-60.8259C322.4534,-65.9247 340.1258,-71.6891 354.6115,-76.4141"/>
<polygon fill="#191970" stroke="#191970" points="307.4903,-57.3626 296.8979,-57.589 305.3195,-64.0175 307.4903,-57.3626"/>
</g>
<!-- Node6 -->
<g id="node5" class="node">
<title>Node6</title>
<g id="a_node5"><a xlink:href="test__persp__plane_8cpp.html#a3a70b50a1fd45c219b46061aaeee3c26" target="_top" xlink:title="chk_degenerate">
<polygon fill="#ffffff" stroke="#000000" points="341,-38.5 341,-57.5 427,-57.5 427,-38.5 341,-38.5"/>
<text text-anchor="middle" x="384" y="-45.5" font-family="Helvetica,sans-Serif" font-size="10.00" fill="#000000">chk_degenerate</text>
</a>
</g>
</g>
<!-- Node4&#45;&gt;Node6 -->
<g id="edge4" class="edge">
<title>Node4&#45;&gt;Node6</title>
<path fill="none" stroke="#191970" d="M315.1808,-48C323.6937,-48 332.5182,-48 340.8938,-48"/>
<polygon fill="#191970" stroke="#191970" points="315.0026,-44.5001 305.0026,-48 315.0026,-51.5001 315.0026,-44.5001"/>
</g>
<!-- Node7 -->
<g id="node6" class="node">
<title>Node7</title>
<g id="a_node6"><a xlink:href="structmyck.html#a36a99b40632cfef0f79e5df33866e9ab" target="_top" xlink:title="myck::measure">
<polygon fill="#ffffff" stroke="#000000" points="342,-.5 342,-19.5 426,-19.5 426,-.5 342,-.5"/>
<text text-anchor="middle" x="384" y="-7.5" font-family="Helvetica,sans-Serif" font-size="10.00" fill="#000000">myck::measure</text>
</a>
</g>
</g>
<!-- Node4&#45;&gt;Node7 -->
<g id="edge5" class="edge">
<title>Node4&#45;&gt;Node7</title>
<path fill="none" stroke="#191970" d="M306.8216,-35.1741C322.4534,-30.0753 340.1258,-24.3109 354.6115,-19.5859"/>
<polygon fill="#191970" stroke="#191970" points="305.3195,-31.9825 296.8979,-38.411 307.4903,-38.6374 305.3195,-31.9825"/>
</g>
</g>
</svg>
