<?xml version="1.0" encoding="UTF-8" standalone="no"?>
<!DOCTYPE svg PUBLIC "-//W3C//DTD SVG 1.1//EN"
 "http://www.w3.org/Graphics/SVG/1.1/DTD/svg11.dtd">
<!-- Generated by graphviz version 2.40.1 (20161225.0304)
 -->
<!-- Title: fun::cross Pages: 1 -->
<svg width="480pt" height="200pt"
 viewBox="0.00 0.00 480.00 199.50" xmlns="http://www.w3.org/2000/svg" xmlns:xlink="http://www.w3.org/1999/xlink">
<g id="graph0" class="graph" transform="scale(1 1) rotate(0) translate(4 195.5)">
<title>fun::cross</title>
<polygon fill="#ffffff" stroke="transparent" points="-4,4 -4,-195.5 476,-195.5 476,4 -4,4"/>
<!-- Node32 -->
<g id="node1" class="node">
<title>Node32</title>
<polygon fill="#bfbfbf" stroke="#000000" points="0,-99 0,-118 60,-118 60,-99 0,-99"/>
<text text-anchor="middle" x="30" y="-106" font-family="Helvetica,sans-Serif" font-size="10.00" fill="#000000">fun::cross</text>
</g>
<!-- Node33 -->
<g id="node2" class="node">
<title>Node33</title>
<g id="a_node2"><a xlink:href="test__ck__plane_8cpp.html#ab362ad1c3d592adca7ca1540b02727fd" target="_top" xlink:title="chk_ck">
<polygon fill="#ffffff" stroke="#000000" points="288.5,-172 288.5,-191 336.5,-191 336.5,-172 288.5,-172"/>
<text text-anchor="middle" x="312.5" y="-179" font-family="Helvetica,sans-Serif" font-size="10.00" fill="#000000">chk_ck</text>
</a>
</g>
</g>
<!-- Node32&#45;&gt;Node33 -->
<g id="edge1" class="edge">
<title>Node32&#45;&gt;Node33</title>
<path fill="none" stroke="#191970" d="M44.4241,-125.9539C56.6276,-139.3495 75.3845,-156.952 96,-165.5 161.2784,-192.567 247.0738,-188.5682 288.3139,-184.4902"/>
<polygon fill="#191970" stroke="#191970" points="46.9301,-123.5026 37.7144,-118.2754 41.6589,-128.1086 46.9301,-123.5026"/>
</g>
<!-- Node35 -->
<g id="node4" class="node">
<title>Node35</title>
<g id="a_node4"><a xlink:href="test__euclid_8cpp.html#a5cb299576d7439887c5d7adcd39b5cf9" target="_top" xlink:title="chk_euclid">
<polygon fill="#ffffff" stroke="#000000" points="136,-137 136,-156 199,-156 199,-137 136,-137"/>
<text text-anchor="middle" x="167.5" y="-144" font-family="Helvetica,sans-Serif" font-size="10.00" fill="#000000">chk_euclid</text>
</a>
</g>
</g>
<!-- Node32&#45;&gt;Node35 -->
<g id="edge3" class="edge">
<title>Node32&#45;&gt;Node35</title>
<path fill="none" stroke="#191970" d="M69.9906,-120.1554C78.5629,-122.6138 87.5752,-125.1682 96,-127.5 108.9975,-131.0974 123.3614,-134.9401 135.7841,-138.2218"/>
<polygon fill="#191970" stroke="#191970" points="70.7693,-116.7374 60.1912,-117.3327 68.8317,-123.4639 70.7693,-116.7374"/>
</g>
<!-- Node36 -->
<g id="node5" class="node">
<title>Node36</title>
<g id="a_node5"><a xlink:href="test__ell__plane_8cpp.html#af9f50c00186c0acc1e89ffe6da7edf60" target="_top" xlink:title="chk_tri">
<polygon fill="#ffffff" stroke="#000000" points="144.5,-99 144.5,-118 190.5,-118 190.5,-99 144.5,-99"/>
<text text-anchor="middle" x="167.5" y="-106" font-family="Helvetica,sans-Serif" font-size="10.00" fill="#000000">chk_tri</text>
</a>
</g>
</g>
<!-- Node32&#45;&gt;Node36 -->
<g id="edge4" class="edge">
<title>Node32&#45;&gt;Node36</title>
<path fill="none" stroke="#191970" d="M70.4227,-108.5C94.4431,-108.5 124.0548,-108.5 144.2139,-108.5"/>
<polygon fill="#191970" stroke="#191970" points="70.175,-105.0001 60.175,-108.5 70.1749,-112.0001 70.175,-105.0001"/>
</g>
<!-- Node40 -->
<g id="node9" class="node">
<title>Node40</title>
<g id="a_node9"><a xlink:href="classfun_1_1pg__object.html#a933664db2810f965c76381761482dd40" target="_top" xlink:title="Join or meet. ">
<polygon fill="#ffffff" stroke="#000000" points="100.5,-49.5 100.5,-79.5 234.5,-79.5 234.5,-49.5 100.5,-49.5"/>
<text text-anchor="start" x="108.5" y="-67.5" font-family="Helvetica,sans-Serif" font-size="10.00" fill="#000000">fun::pg_object&lt; _K,</text>
<text text-anchor="middle" x="167.5" y="-56.5" font-family="Helvetica,sans-Serif" font-size="10.00" fill="#000000"> pg_line&lt; _K &gt; &gt;::operator*</text>
</a>
</g>
</g>
<!-- Node32&#45;&gt;Node40 -->
<g id="edge9" class="edge">
<title>Node32&#45;&gt;Node40</title>
<path fill="none" stroke="#191970" d="M69.3725,-95.9008C85.2909,-90.8069 103.7973,-84.8849 120.4207,-79.5654"/>
<polygon fill="#191970" stroke="#191970" points="68.293,-92.5713 59.8355,-98.9527 70.4264,-99.2383 68.293,-92.5713"/>
</g>
<!-- Node41 -->
<g id="node10" class="node">
<title>Node41</title>
<g id="a_node10"><a xlink:href="classfun_1_1pg__object.html#a15ed5d75aa1cddeaa983cacb4936ca71" target="_top" xlink:title="Equal to. ">
<polygon fill="#ffffff" stroke="#000000" points="96,-.5 96,-30.5 239,-30.5 239,-.5 96,-.5"/>
<text text-anchor="start" x="104" y="-18.5" font-family="Helvetica,sans-Serif" font-size="10.00" fill="#000000">fun::pg_object&lt; _K,</text>
<text text-anchor="middle" x="167.5" y="-7.5" font-family="Helvetica,sans-Serif" font-size="10.00" fill="#000000"> pg_line&lt; _K &gt; &gt;::operator==</text>
</a>
</g>
</g>
<!-- Node32&#45;&gt;Node41 -->
<g id="edge10" class="edge">
<title>Node32&#45;&gt;Node41</title>
<path fill="none" stroke="#191970" d="M43.2621,-90.3196C55.414,-74.8395 74.7092,-53.0189 96,-39.5 101.3058,-36.131 107.1356,-33.1816 113.1064,-30.613"/>
<polygon fill="#191970" stroke="#191970" points="40.2393,-88.5124 36.9716,-98.5907 45.8111,-92.7499 40.2393,-88.5124"/>
</g>
<!-- Node34 -->
<g id="node3" class="node">
<title>Node34</title>
<g id="a_node3"><a xlink:href="structmyck.html#a36a99b40632cfef0f79e5df33866e9ab" target="_top" xlink:title="myck::measure">
<polygon fill="#ffffff" stroke="#000000" points="387,-170 387,-189 471,-189 471,-170 387,-170"/>
<text text-anchor="middle" x="429" y="-177" font-family="Helvetica,sans-Serif" font-size="10.00" fill="#000000">myck::measure</text>
</a>
</g>
</g>
<!-- Node33&#45;&gt;Node34 -->
<g id="edge2" class="edge">
<title>Node33&#45;&gt;Node34</title>
<path fill="none" stroke="#191970" d="M346.7347,-180.9123C359.3422,-180.6958 373.7692,-180.4482 386.9846,-180.2213"/>
<polygon fill="#191970" stroke="#191970" points="346.5773,-177.4144 336.6389,-181.0856 346.6975,-184.4133 346.5773,-177.4144"/>
</g>
<!-- Node37 -->
<g id="node6" class="node">
<title>Node37</title>
<g id="a_node6"><a xlink:href="test__ell__plane_8cpp.html#a14c5157f7d8d8ca13f61f427c54ca0a9" target="_top" xlink:title="TEST_CASE">
<polygon fill="#ffffff" stroke="#000000" points="275,-118 275,-137 350,-137 350,-118 275,-118"/>
<text text-anchor="middle" x="312.5" y="-125" font-family="Helvetica,sans-Serif" font-size="10.00" fill="#000000">TEST_CASE</text>
</a>
</g>
</g>
<!-- Node36&#45;&gt;Node37 -->
<g id="edge5" class="edge">
<title>Node36&#45;&gt;Node37</title>
<path fill="none" stroke="#191970" d="M200.7177,-112.8527C222.8126,-115.7479 251.8806,-119.5568 274.8361,-122.5647"/>
<polygon fill="#191970" stroke="#191970" points="201.1668,-109.3817 190.7968,-111.5527 200.2572,-116.3223 201.1668,-109.3817"/>
</g>
<!-- Node37&#45;&gt;Node34 -->
<g id="edge8" class="edge">
<title>Node37&#45;&gt;Node34</title>
<path fill="none" stroke="#191970" d="M343.2586,-141.2292C363.4445,-150.2392 389.3457,-161.8002 407.373,-169.8468"/>
<polygon fill="#191970" stroke="#191970" points="344.4261,-137.9175 333.8679,-137.0376 341.5729,-144.3097 344.4261,-137.9175"/>
</g>
<!-- Node38 -->
<g id="node7" class="node">
<title>Node38</title>
<g id="a_node7"><a xlink:href="test__euclid_8cpp.html#a7a9c104eecea25ccd260ebe509e5f19e" target="_top" xlink:title="chk_cyclic">
<polygon fill="#ffffff" stroke="#000000" points="397.5,-127 397.5,-146 460.5,-146 460.5,-127 397.5,-127"/>
<text text-anchor="middle" x="429" y="-134" font-family="Helvetica,sans-Serif" font-size="10.00" fill="#000000">chk_cyclic</text>
</a>
</g>
</g>
<!-- Node37&#45;&gt;Node38 -->
<g id="edge6" class="edge">
<title>Node37&#45;&gt;Node38</title>
<path fill="none" stroke="#191970" d="M360.3048,-131.1931C372.8186,-132.1598 385.9973,-133.1779 397.4278,-134.0609"/>
<polygon fill="#191970" stroke="#191970" points="360.2425,-127.6779 350.0026,-130.3972 359.7033,-134.6571 360.2425,-127.6779"/>
</g>
<!-- Node39 -->
<g id="node8" class="node">
<title>Node39</title>
<g id="a_node8"><a xlink:href="test__persp__plane_8cpp.html#a3a70b50a1fd45c219b46061aaeee3c26" target="_top" xlink:title="chk_degenerate">
<polygon fill="#ffffff" stroke="#000000" points="386,-89 386,-108 472,-108 472,-89 386,-89"/>
<text text-anchor="middle" x="429" y="-96" font-family="Helvetica,sans-Serif" font-size="10.00" fill="#000000">chk_degenerate</text>
</a>
</g>
</g>
<!-- Node37&#45;&gt;Node39 -->
<g id="edge7" class="edge">
<title>Node37&#45;&gt;Node39</title>
<path fill="none" stroke="#191970" d="M359.7112,-115.7479C370.0373,-113.1774 380.8438,-110.4874 390.7678,-108.017"/>
<polygon fill="#191970" stroke="#191970" points="358.861,-112.3526 350.0026,-118.1646 360.5519,-119.1453 358.861,-112.3526"/>
</g>
</g>
</svg>
