<?xml version="1.0" encoding="UTF-8" standalone="no"?>
<!DOCTYPE svg PUBLIC "-//W3C//DTD SVG 1.1//EN"
 "http://www.w3.org/Graphics/SVG/1.1/DTD/svg11.dtd">
<!-- Generated by graphviz version 2.40.1 (20161225.0304)
 -->
<!-- Title: fun::dot1 Pages: 1 -->
<svg width="305pt" height="80pt"
 viewBox="0.00 0.00 305.00 80.07" xmlns="http://www.w3.org/2000/svg" xmlns:xlink="http://www.w3.org/1999/xlink">
<g id="graph0" class="graph" transform="scale(1 1) rotate(0) translate(4 76.0703)">
<title>fun::dot1</title>
<polygon fill="#ffffff" stroke="transparent" points="-4,4 -4,-76.0703 301,-76.0703 301,4 -4,4"/>
<!-- Node82 -->
<g id="node1" class="node">
<title>Node82</title>
<polygon fill="#bfbfbf" stroke="#000000" points="0,-38.5 0,-57.5 55,-57.5 55,-38.5 0,-38.5"/>
<text text-anchor="middle" x="27.5" y="-45.5" font-family="Helvetica,sans-Serif" font-size="10.00" fill="#000000">fun::dot1</text>
</g>
<!-- Node83 -->
<g id="node2" class="node">
<title>Node83</title>
<g id="a_node2"><a xlink:href="test__euclid_8cpp.html#a5cb299576d7439887c5d7adcd39b5cf9" target="_top" xlink:title="chk_euclid">
<polygon fill="#ffffff" stroke="#000000" points="234,-38.5 234,-57.5 297,-57.5 297,-38.5 234,-38.5"/>
<text text-anchor="middle" x="265.5" y="-45.5" font-family="Helvetica,sans-Serif" font-size="10.00" fill="#000000">chk_euclid</text>
</a>
</g>
</g>
<!-- Node82&#45;&gt;Node83 -->
<g id="edge1" class="edge">
<title>Node82&#45;&gt;Node83</title>
<path fill="none" stroke="#191970" d="M63.1397,-60.6389C72.1185,-63.2727 81.8175,-65.6557 91,-67 138.054,-73.8887 150.8913,-73.5037 198,-67 211.5069,-65.1353 226.1152,-61.2654 238.2759,-57.5019"/>
<polygon fill="#191970" stroke="#191970" points="63.9626,-57.2295 53.3743,-57.6007 61.8831,-63.9135 63.9626,-57.2295"/>
</g>
<!-- Node84 -->
<g id="node3" class="node">
<title>Node84</title>
<g id="a_node3"><a xlink:href="namespacefun.html#af72530f49dd29ac6dc3a7dfa37accd17" target="_top" xlink:title="fun::is_parallel">
<polygon fill="#ffffff" stroke="#000000" points="104.5,-38.5 104.5,-57.5 184.5,-57.5 184.5,-38.5 104.5,-38.5"/>
<text text-anchor="middle" x="144.5" y="-45.5" font-family="Helvetica,sans-Serif" font-size="10.00" fill="#000000">fun::is_parallel</text>
</a>
</g>
</g>
<!-- Node82&#45;&gt;Node84 -->
<g id="edge2" class="edge">
<title>Node82&#45;&gt;Node84</title>
<path fill="none" stroke="#191970" d="M65.2603,-48C77.6751,-48 91.5213,-48 104.1226,-48"/>
<polygon fill="#191970" stroke="#191970" points="65.2274,-44.5001 55.2274,-48 65.2273,-51.5001 65.2274,-44.5001"/>
</g>
<!-- Node85 -->
<g id="node4" class="node">
<title>Node85</title>
<g id="a_node4"><a xlink:href="namespacefun.html#a65df7dee6a5f1669aecebcaa74af6675" target="_top" xlink:title="fun::is_perpendicular">
<polygon fill="#ffffff" stroke="#000000" points="91,-.5 91,-19.5 198,-19.5 198,-.5 91,-.5"/>
<text text-anchor="middle" x="144.5" y="-7.5" font-family="Helvetica,sans-Serif" font-size="10.00" fill="#000000">fun::is_perpendicular</text>
</a>
</g>
</g>
<!-- Node82&#45;&gt;Node85 -->
<g id="edge4" class="edge">
<title>Node82&#45;&gt;Node85</title>
<path fill="none" stroke="#191970" d="M64.9227,-35.8456C81.0944,-30.5933 99.7466,-24.5353 114.9264,-19.6051"/>
<polygon fill="#191970" stroke="#191970" points="63.6571,-32.5766 55.2274,-38.9945 65.8195,-39.2343 63.6571,-32.5766"/>
</g>
<!-- Node84&#45;&gt;Node83 -->
<g id="edge3" class="edge">
<title>Node84&#45;&gt;Node83</title>
<path fill="none" stroke="#191970" d="M195.1182,-48C208.2257,-48 221.9694,-48 233.7976,-48"/>
<polygon fill="#191970" stroke="#191970" points="194.7913,-44.5001 184.7912,-48 194.7912,-51.5001 194.7913,-44.5001"/>
</g>
<!-- Node85&#45;&gt;Node83 -->
<g id="edge5" class="edge">
<title>Node85&#45;&gt;Node83</title>
<path fill="none" stroke="#191970" d="M184.8771,-22.6804C201.2262,-27.8148 219.7878,-33.6441 234.9764,-38.4141"/>
<polygon fill="#191970" stroke="#191970" points="185.6227,-19.2461 175.0334,-19.589 183.5253,-25.9245 185.6227,-19.2461"/>
</g>
</g>
</svg>
