<?xml version="1.0" encoding="UTF-8" standalone="no"?>
<!DOCTYPE svg PUBLIC "-//W3C//DTD SVG 1.1//EN"
 "http://www.w3.org/Graphics/SVG/1.1/DTD/svg11.dtd">
<!-- Generated by graphviz version 2.40.1 (20161225.0304)
 -->
<!-- Title: fun::plucker_c Pages: 1 -->
<svg width="622pt" height="273pt"
 viewBox="0.00 0.00 622.00 272.88" xmlns="http://www.w3.org/2000/svg" xmlns:xlink="http://www.w3.org/1999/xlink">
<g id="graph0" class="graph" transform="scale(1 1) rotate(0) translate(4 268.8815)">
<title>fun::plucker_c</title>
<polygon fill="#ffffff" stroke="transparent" points="-4,4 -4,-268.8815 618,-268.8815 618,4 -4,4"/>
<!-- Node158 -->
<g id="node1" class="node">
<title>Node158</title>
<polygon fill="#bfbfbf" stroke="#000000" points="0,-137.5 0,-156.5 78,-156.5 78,-137.5 0,-137.5"/>
<text text-anchor="middle" x="39" y="-144.5" font-family="Helvetica,sans-Serif" font-size="10.00" fill="#000000">fun::plucker_c</text>
</g>
<!-- Node159 -->
<g id="node2" class="node">
<title>Node159</title>
<g id="a_node2"><a xlink:href="namespacefun.html#a58e32c10566ecd068ed609acda4ac22c" target="_top" xlink:title="fun::plucker">
<polygon fill="#ffffff" stroke="#000000" points="114,-137.5 114,-156.5 182,-156.5 182,-137.5 114,-137.5"/>
<text text-anchor="middle" x="148" y="-144.5" font-family="Helvetica,sans-Serif" font-size="10.00" fill="#000000">fun::plucker</text>
</a>
</g>
</g>
<!-- Node158&#45;&gt;Node159 -->
<g id="edge1" class="edge">
<title>Node158&#45;&gt;Node159</title>
<path fill="none" stroke="#191970" d="M88.1327,-147C96.8454,-147 105.7429,-147 113.9228,-147"/>
<polygon fill="#191970" stroke="#191970" points="88.0437,-143.5001 78.0436,-147 88.0436,-150.5001 88.0437,-143.5001"/>
</g>
<!-- Node160 -->
<g id="node3" class="node">
<title>Node160</title>
<g id="a_node3"><a xlink:href="test__persp__plane_8cpp.html#a3a70b50a1fd45c219b46061aaeee3c26" target="_top" xlink:title="chk_degenerate">
<polygon fill="#ffffff" stroke="#000000" points="528,-241.5 528,-260.5 614,-260.5 614,-241.5 528,-241.5"/>
<text text-anchor="middle" x="571" y="-248.5" font-family="Helvetica,sans-Serif" font-size="10.00" fill="#000000">chk_degenerate</text>
</a>
</g>
</g>
<!-- Node159&#45;&gt;Node160 -->
<g id="edge2" class="edge">
<title>Node159&#45;&gt;Node160</title>
<path fill="none" stroke="#191970" d="M158.5388,-165.3477C170.3699,-184.0008 191.4356,-211.9556 218,-225 319.9068,-275.0412 458.5755,-266.3963 527.8702,-257.7079"/>
<polygon fill="#191970" stroke="#191970" points="161.3926,-163.3038 153.2135,-156.5694 155.4078,-166.9346 161.3926,-163.3038"/>
</g>
<!-- Node161 -->
<g id="node4" class="node">
<title>Node161</title>
<g id="a_node4"><a xlink:href="test__euclid_8cpp.html#a5cb299576d7439887c5d7adcd39b5cf9" target="_top" xlink:title="chk_euclid">
<polygon fill="#ffffff" stroke="#000000" points="401,-194.5 401,-213.5 464,-213.5 464,-194.5 401,-194.5"/>
<text text-anchor="middle" x="432.5" y="-201.5" font-family="Helvetica,sans-Serif" font-size="10.00" fill="#000000">chk_euclid</text>
</a>
</g>
</g>
<!-- Node159&#45;&gt;Node161 -->
<g id="edge3" class="edge">
<title>Node159&#45;&gt;Node161</title>
<path fill="none" stroke="#191970" d="M162.5519,-164.0444C175.4987,-177.7933 195.7816,-196.0981 218,-204 279.7526,-225.962 357.9801,-217.7263 400.8418,-210.4342"/>
<polygon fill="#191970" stroke="#191970" points="165.1179,-161.6637 155.8176,-156.5889 159.9233,-166.3559 165.1179,-161.6637"/>
</g>
<!-- Node162 -->
<g id="node5" class="node">
<title>Node162</title>
<g id="a_node5"><a xlink:href="test__ell__plane_8cpp.html#af9f50c00186c0acc1e89ffe6da7edf60" target="_top" xlink:title="chk_tri">
<polygon fill="#ffffff" stroke="#000000" points="254.5,-137.5 254.5,-156.5 300.5,-156.5 300.5,-137.5 254.5,-137.5"/>
<text text-anchor="middle" x="277.5" y="-144.5" font-family="Helvetica,sans-Serif" font-size="10.00" fill="#000000">chk_tri</text>
</a>
</g>
</g>
<!-- Node159&#45;&gt;Node162 -->
<g id="edge4" class="edge">
<title>Node159&#45;&gt;Node162</title>
<path fill="none" stroke="#191970" d="M192.2685,-147C213.1071,-147 237.1009,-147 254.3106,-147"/>
<polygon fill="#191970" stroke="#191970" points="192.0246,-143.5001 182.0246,-147 192.0246,-150.5001 192.0246,-143.5001"/>
</g>
<!-- Node166 -->
<g id="node9" class="node">
<title>Node166</title>
<g id="a_node9"><a xlink:href="namespacefun.html#af72530f49dd29ac6dc3a7dfa37accd17" target="_top" xlink:title="fun::is_parallel">
<polygon fill="#ffffff" stroke="#000000" points="237.5,-175.5 237.5,-194.5 317.5,-194.5 317.5,-175.5 237.5,-175.5"/>
<text text-anchor="middle" x="277.5" y="-182.5" font-family="Helvetica,sans-Serif" font-size="10.00" fill="#000000">fun::is_parallel</text>
</a>
</g>
</g>
<!-- Node159&#45;&gt;Node166 -->
<g id="edge9" class="edge">
<title>Node159&#45;&gt;Node166</title>
<path fill="none" stroke="#191970" d="M190.719,-159.5353C208.336,-164.7048 228.4232,-170.5991 244.8321,-175.4141"/>
<polygon fill="#191970" stroke="#191970" points="191.2592,-156.0463 180.6783,-156.589 189.2882,-162.7631 191.2592,-156.0463"/>
</g>
<!-- Node167 -->
<g id="node10" class="node">
<title>Node167</title>
<g id="a_node10"><a xlink:href="classfun_1_1persp__euclid__plane.html#aa51f536c782534a42b1dc400a376f847" target="_top" xlink:title="fun::persp_euclid_plane\l::midpoint">
<polygon fill="#ffffff" stroke="#000000" points="218,-88 218,-118 337,-118 337,-88 218,-88"/>
<text text-anchor="start" x="226" y="-106" font-family="Helvetica,sans-Serif" font-size="10.00" fill="#000000">fun::persp_euclid_plane</text>
<text text-anchor="middle" x="277.5" y="-95" font-family="Helvetica,sans-Serif" font-size="10.00" fill="#000000">::midpoint</text>
</a>
</g>
</g>
<!-- Node159&#45;&gt;Node167 -->
<g id="edge11" class="edge">
<title>Node159&#45;&gt;Node167</title>
<path fill="none" stroke="#191970" d="M185.9329,-134.1116C200.7311,-129.0837 217.799,-123.2845 233.1599,-118.0654"/>
<polygon fill="#191970" stroke="#191970" points="184.442,-130.9216 176.0996,-137.4527 186.694,-137.5495 184.442,-130.9216"/>
</g>
<!-- Node169 -->
<g id="node12" class="node">
<title>Node169</title>
<g id="a_node12"><a xlink:href="classfun_1_1persp__euclid__plane.html#abb01d14ab991c4d97d3c1107dc6bade9" target="_top" xlink:title="fun::persp_euclid_plane\l::perp">
<polygon fill="#ffffff" stroke="#000000" points="218,-39 218,-69 337,-69 337,-39 218,-39"/>
<text text-anchor="start" x="226" y="-57" font-family="Helvetica,sans-Serif" font-size="10.00" fill="#000000">fun::persp_euclid_plane</text>
<text text-anchor="middle" x="277.5" y="-46" font-family="Helvetica,sans-Serif" font-size="10.00" fill="#000000">::perp</text>
</a>
</g>
</g>
<!-- Node159&#45;&gt;Node169 -->
<g id="edge13" class="edge">
<title>Node159&#45;&gt;Node169</title>
<path fill="none" stroke="#191970" d="M162.6691,-129.4475C175.9036,-114.4805 196.5375,-93.195 218,-79 223.6073,-75.2914 229.8546,-71.9479 236.1339,-69.0021"/>
<polygon fill="#191970" stroke="#191970" points="160.0094,-127.1723 156.1195,-137.0272 165.306,-131.749 160.0094,-127.1723"/>
</g>
<!-- Node170 -->
<g id="node13" class="node">
<title>Node170</title>
<g id="a_node13"><a xlink:href="test__proj__plane_8cpp.html#abade030c028dac7fc0a0f3bf5ce3bfef" target="_top" xlink:title="TEST_CASE">
<polygon fill="#ffffff" stroke="#000000" points="240,-.5 240,-19.5 315,-19.5 315,-.5 240,-.5"/>
<text text-anchor="middle" x="277.5" y="-7.5" font-family="Helvetica,sans-Serif" font-size="10.00" fill="#000000">TEST_CASE</text>
</a>
</g>
</g>
<!-- Node159&#45;&gt;Node170 -->
<g id="edge14" class="edge">
<title>Node159&#45;&gt;Node170</title>
<path fill="none" stroke="#191970" d="M154.3713,-127.9628C164.0506,-101.8958 184.9117,-55.3349 218,-29 224.3634,-23.9354 232.1051,-20.2076 239.8715,-17.4679"/>
<polygon fill="#191970" stroke="#191970" points="151.0458,-126.8688 151.0046,-137.4635 157.6438,-129.2069 151.0458,-126.8688"/>
</g>
<!-- Node163 -->
<g id="node6" class="node">
<title>Node163</title>
<g id="a_node6"><a xlink:href="test__ell__plane_8cpp.html#a14c5157f7d8d8ca13f61f427c54ca0a9" target="_top" xlink:title="TEST_CASE">
<polygon fill="#ffffff" stroke="#000000" points="395,-146.5 395,-165.5 470,-165.5 470,-146.5 395,-146.5"/>
<text text-anchor="middle" x="432.5" y="-153.5" font-family="Helvetica,sans-Serif" font-size="10.00" fill="#000000">TEST_CASE</text>
</a>
</g>
</g>
<!-- Node162&#45;&gt;Node163 -->
<g id="edge5" class="edge">
<title>Node162&#45;&gt;Node163</title>
<path fill="none" stroke="#191970" d="M310.7028,-148.9279C335.4429,-150.3644 369.25,-152.3274 394.9703,-153.8209"/>
<polygon fill="#191970" stroke="#191970" points="310.8912,-145.433 300.7051,-148.3474 310.4853,-152.4213 310.8912,-145.433"/>
</g>
<!-- Node163&#45;&gt;Node160 -->
<g id="edge7" class="edge">
<title>Node163&#45;&gt;Node160</title>
<path fill="none" stroke="#191970" d="M464.4476,-169.8145C473.5951,-174.2337 483.4098,-179.4362 492,-185 518.7006,-202.2937 546.464,-227.4466 560.9036,-241.1688"/>
<polygon fill="#191970" stroke="#191970" points="465.7773,-166.5726 455.2358,-165.5105 462.8141,-172.9146 465.7773,-166.5726"/>
</g>
<!-- Node164 -->
<g id="node7" class="node">
<title>Node164</title>
<g id="a_node7"><a xlink:href="test__euclid_8cpp.html#a7a9c104eecea25ccd260ebe509e5f19e" target="_top" xlink:title="chk_cyclic">
<polygon fill="#ffffff" stroke="#000000" points="539.5,-165.5 539.5,-184.5 602.5,-184.5 602.5,-165.5 539.5,-165.5"/>
<text text-anchor="middle" x="571" y="-172.5" font-family="Helvetica,sans-Serif" font-size="10.00" fill="#000000">chk_cyclic</text>
</a>
</g>
</g>
<!-- Node163&#45;&gt;Node164 -->
<g id="edge6" class="edge">
<title>Node163&#45;&gt;Node164</title>
<path fill="none" stroke="#191970" d="M480.2807,-162.5548C499.7907,-165.2312 521.8238,-168.2538 539.2904,-170.65"/>
<polygon fill="#191970" stroke="#191970" points="480.7287,-159.0835 470.3457,-161.1918 479.7772,-166.0186 480.7287,-159.0835"/>
</g>
<!-- Node165 -->
<g id="node8" class="node">
<title>Node165</title>
<g id="a_node8"><a xlink:href="structmyck.html#a36a99b40632cfef0f79e5df33866e9ab" target="_top" xlink:title="myck::measure">
<polygon fill="#ffffff" stroke="#000000" points="529,-127.5 529,-146.5 613,-146.5 613,-127.5 529,-127.5"/>
<text text-anchor="middle" x="571" y="-134.5" font-family="Helvetica,sans-Serif" font-size="10.00" fill="#000000">myck::measure</text>
</a>
</g>
</g>
<!-- Node163&#45;&gt;Node165 -->
<g id="edge8" class="edge">
<title>Node163&#45;&gt;Node165</title>
<path fill="none" stroke="#191970" d="M480.416,-149.4267C496.1566,-147.2673 513.5271,-144.8844 528.8107,-142.7877"/>
<polygon fill="#191970" stroke="#191970" points="479.7772,-145.9814 470.3457,-150.8082 480.7287,-152.9165 479.7772,-145.9814"/>
</g>
<!-- Node166&#45;&gt;Node161 -->
<g id="edge10" class="edge">
<title>Node166&#45;&gt;Node161</title>
<path fill="none" stroke="#191970" d="M327.814,-191.1675C351.7753,-194.1047 379.7069,-197.5286 400.6891,-200.1006"/>
<polygon fill="#191970" stroke="#191970" points="328.1714,-187.6852 317.8198,-189.9424 327.3196,-194.6332 328.1714,-187.6852"/>
</g>
<!-- Node168 -->
<g id="node11" class="node">
<title>Node168</title>
<g id="a_node11"><a xlink:href="classfun_1_1persp__euclid__plane.html#a1b08a4546f26b5808ccf6f6cbeb36d7f" target="_top" xlink:title="fun::persp_euclid_plane\l::tri_midpoint">
<polygon fill="#ffffff" stroke="#000000" points="373,-88 373,-118 492,-118 492,-88 373,-88"/>
<text text-anchor="start" x="381" y="-106" font-family="Helvetica,sans-Serif" font-size="10.00" fill="#000000">fun::persp_euclid_plane</text>
<text text-anchor="middle" x="432.5" y="-95" font-family="Helvetica,sans-Serif" font-size="10.00" fill="#000000">::tri_midpoint</text>
</a>
</g>
</g>
<!-- Node167&#45;&gt;Node168 -->
<g id="edge12" class="edge">
<title>Node167&#45;&gt;Node168</title>
<path fill="none" stroke="#191970" d="M347.6612,-103C356.1217,-103 364.6999,-103 372.9877,-103"/>
<polygon fill="#191970" stroke="#191970" points="347.4271,-99.5001 337.427,-103 347.427,-106.5001 347.4271,-99.5001"/>
</g>
<!-- Node171 -->
<g id="node14" class="node">
<title>Node171</title>
<g id="a_node14"><a xlink:href="test__proj__plane_8cpp.html#a7707d9919b0176a15dda75b1faa901e2" target="_top" xlink:title="TEST_CASE">
<polygon fill="#ffffff" stroke="#000000" points="395,-.5 395,-19.5 470,-19.5 470,-.5 395,-.5"/>
<text text-anchor="middle" x="432.5" y="-7.5" font-family="Helvetica,sans-Serif" font-size="10.00" fill="#000000">TEST_CASE</text>
</a>
</g>
</g>
<!-- Node170&#45;&gt;Node171 -->
<g id="edge15" class="edge">
<title>Node170&#45;&gt;Node171</title>
<path fill="none" stroke="#191970" d="M325.3079,-10C347.6502,-10 373.8712,-10 394.7871,-10"/>
<polygon fill="#191970" stroke="#191970" points="325.0212,-6.5001 315.0212,-10 325.0211,-13.5001 325.0212,-6.5001"/>
</g>
</g>
</svg>
