<?xml version="1.0" encoding="UTF-8" standalone="no"?>
<!DOCTYPE svg PUBLIC "-//W3C//DTD SVG 1.1//EN"
 "http://www.w3.org/Graphics/SVG/1.1/DTD/svg11.dtd">
<!-- Generated by graphviz version 2.40.1 (20161225.0304)
 -->
<!-- Title: fun::cross0 Pages: 1 -->
<svg width="600pt" height="200pt"
 viewBox="0.00 0.00 600.00 199.50" xmlns="http://www.w3.org/2000/svg" xmlns:xlink="http://www.w3.org/1999/xlink">
<g id="graph0" class="graph" transform="scale(1 1) rotate(0) translate(4 195.5)">
<title>fun::cross0</title>
<polygon fill="#ffffff" stroke="transparent" points="-4,4 -4,-195.5 596,-195.5 596,4 -4,4"/>
<!-- Node43 -->
<g id="node1" class="node">
<title>Node43</title>
<polygon fill="#bfbfbf" stroke="#000000" points="0,-80 0,-99 65,-99 65,-80 0,-80"/>
<text text-anchor="middle" x="32.5" y="-87" font-family="Helvetica,sans-Serif" font-size="10.00" fill="#000000">fun::cross0</text>
</g>
<!-- Node44 -->
<g id="node2" class="node">
<title>Node44</title>
<g id="a_node2"><a xlink:href="namespacefun.html#af43f106b41ae121e2a31a07423a7347f" target="_top" xlink:title="Cross product. ">
<polygon fill="#ffffff" stroke="#000000" points="110.5,-99 110.5,-118 170.5,-118 170.5,-99 110.5,-99"/>
<text text-anchor="middle" x="140.5" y="-106" font-family="Helvetica,sans-Serif" font-size="10.00" fill="#000000">fun::cross</text>
</a>
</g>
</g>
<!-- Node43&#45;&gt;Node44 -->
<g id="edge1" class="edge">
<title>Node43&#45;&gt;Node44</title>
<path fill="none" stroke="#191970" d="M75.2976,-97.0292C87.0778,-99.1017 99.6021,-101.305 110.4922,-103.2208"/>
<polygon fill="#191970" stroke="#191970" points="75.6519,-93.5379 65.1966,-95.2522 74.4389,-100.432 75.6519,-93.5379"/>
</g>
<!-- Node54 -->
<g id="node12" class="node">
<title>Node54</title>
<g id="a_node12"><a xlink:href="namespacefun.html#aa63d35b33a8ef58d84a87dcb32ffe8a4" target="_top" xlink:title="fun::ratio_ratio">
<polygon fill="#ffffff" stroke="#000000" points="101,-61 101,-80 180,-80 180,-61 101,-61"/>
<text text-anchor="middle" x="140.5" y="-68" font-family="Helvetica,sans-Serif" font-size="10.00" fill="#000000">fun::ratio_ratio</text>
</a>
</g>
</g>
<!-- Node43&#45;&gt;Node54 -->
<g id="edge12" class="edge">
<title>Node43&#45;&gt;Node54</title>
<path fill="none" stroke="#191970" d="M75.193,-81.9892C83.5911,-80.5117 92.3712,-78.9671 100.6707,-77.507"/>
<polygon fill="#191970" stroke="#191970" points="74.4389,-78.568 65.1966,-83.7478 75.6519,-85.4621 74.4389,-78.568"/>
</g>
<!-- Node45 -->
<g id="node3" class="node">
<title>Node45</title>
<g id="a_node3"><a xlink:href="test__ck__plane_8cpp.html#ab362ad1c3d592adca7ca1540b02727fd" target="_top" xlink:title="chk_ck">
<polygon fill="#ffffff" stroke="#000000" points="408.5,-172 408.5,-191 456.5,-191 456.5,-172 408.5,-172"/>
<text text-anchor="middle" x="432.5" y="-179" font-family="Helvetica,sans-Serif" font-size="10.00" fill="#000000">chk_ck</text>
</a>
</g>
</g>
<!-- Node44&#45;&gt;Node45 -->
<g id="edge2" class="edge">
<title>Node44&#45;&gt;Node45</title>
<path fill="none" stroke="#191970" d="M157.0995,-125.5836C171.3395,-139.0289 193.1305,-156.8861 216,-165.5 282.132,-190.4089 367.5306,-187.4132 408.4973,-184.0266"/>
<polygon fill="#191970" stroke="#191970" points="159.2317,-122.7731 149.6366,-118.2803 154.3357,-127.7761 159.2317,-122.7731"/>
</g>
<!-- Node47 -->
<g id="node5" class="node">
<title>Node47</title>
<g id="a_node5"><a xlink:href="test__euclid_8cpp.html#a9ea395ac64d69cdc878cb577b0788bf9" target="_top" xlink:title="chk_euclid">
<polygon fill="#ffffff" stroke="#000000" points="256,-137 256,-156 319,-156 319,-137 256,-137"/>
<text text-anchor="middle" x="287.5" y="-144" font-family="Helvetica,sans-Serif" font-size="10.00" fill="#000000">chk_euclid</text>
</a>
</g>
</g>
<!-- Node44&#45;&gt;Node47 -->
<g id="edge4" class="edge">
<title>Node44&#45;&gt;Node47</title>
<path fill="none" stroke="#191970" d="M180.3704,-118.8066C204.107,-124.9426 233.8091,-132.6207 255.914,-138.3349"/>
<polygon fill="#191970" stroke="#191970" points="181.1601,-115.3958 170.6024,-116.2816 179.4081,-122.173 181.1601,-115.3958"/>
</g>
<!-- Node48 -->
<g id="node6" class="node">
<title>Node48</title>
<g id="a_node6"><a xlink:href="test__ell__plane_8cpp.html#af9f50c00186c0acc1e89ffe6da7edf60" target="_top" xlink:title="chk_tri">
<polygon fill="#ffffff" stroke="#000000" points="264.5,-99 264.5,-118 310.5,-118 310.5,-99 264.5,-99"/>
<text text-anchor="middle" x="287.5" y="-106" font-family="Helvetica,sans-Serif" font-size="10.00" fill="#000000">chk_tri</text>
</a>
</g>
</g>
<!-- Node44&#45;&gt;Node48 -->
<g id="edge5" class="edge">
<title>Node44&#45;&gt;Node48</title>
<path fill="none" stroke="#191970" d="M180.8308,-108.5C207.6162,-108.5 241.8385,-108.5 264.196,-108.5"/>
<polygon fill="#191970" stroke="#191970" points="180.6024,-105.0001 170.6024,-108.5 180.6023,-112.0001 180.6024,-105.0001"/>
</g>
<!-- Node52 -->
<g id="node10" class="node">
<title>Node52</title>
<g id="a_node10"><a xlink:href="classfun_1_1pg__object.html#a933664db2810f965c76381761482dd40" target="_top" xlink:title="Join or meet. ">
<polygon fill="#ffffff" stroke="#000000" points="220.5,-49.5 220.5,-79.5 354.5,-79.5 354.5,-49.5 220.5,-49.5"/>
<text text-anchor="start" x="228.5" y="-67.5" font-family="Helvetica,sans-Serif" font-size="10.00" fill="#000000">fun::pg_object&lt; _K,</text>
<text text-anchor="middle" x="287.5" y="-56.5" font-family="Helvetica,sans-Serif" font-size="10.00" fill="#000000"> pg_line&lt; _K &gt; &gt;::operator*</text>
</a>
</g>
</g>
<!-- Node44&#45;&gt;Node52 -->
<g id="edge10" class="edge">
<title>Node44&#45;&gt;Node52</title>
<path fill="none" stroke="#191970" d="M180.4822,-96.5326C197.9633,-91.3001 218.6633,-85.1042 237.1776,-79.5625"/>
<polygon fill="#191970" stroke="#191970" points="179.1788,-93.2692 170.6024,-99.4898 181.1861,-99.9752 179.1788,-93.2692"/>
</g>
<!-- Node53 -->
<g id="node11" class="node">
<title>Node53</title>
<g id="a_node11"><a xlink:href="classfun_1_1pg__object.html#a15ed5d75aa1cddeaa983cacb4936ca71" target="_top" xlink:title="Equal to. ">
<polygon fill="#ffffff" stroke="#000000" points="216,-.5 216,-30.5 359,-30.5 359,-.5 216,-.5"/>
<text text-anchor="start" x="224" y="-18.5" font-family="Helvetica,sans-Serif" font-size="10.00" fill="#000000">fun::pg_object&lt; _K,</text>
<text text-anchor="middle" x="287.5" y="-7.5" font-family="Helvetica,sans-Serif" font-size="10.00" fill="#000000"> pg_line&lt; _K &gt; &gt;::operator==</text>
</a>
</g>
</g>
<!-- Node44&#45;&gt;Node53 -->
<g id="edge11" class="edge">
<title>Node44&#45;&gt;Node53</title>
<path fill="none" stroke="#191970" d="M174.3967,-93.6584C176.3605,-92.3559 178.2467,-90.9695 180,-89.5 200.9867,-71.9106 193.9598,-55.7498 216,-39.5 220.6372,-36.0811 225.7925,-33.1285 231.1509,-30.5828"/>
<polygon fill="#191970" stroke="#191970" points="172.3639,-90.7909 165.4625,-98.8297 175.8706,-96.8492 172.3639,-90.7909"/>
</g>
<!-- Node46 -->
<g id="node4" class="node">
<title>Node46</title>
<g id="a_node4"><a xlink:href="structmyck.html#a36a99b40632cfef0f79e5df33866e9ab" target="_top" xlink:title="myck::measure">
<polygon fill="#ffffff" stroke="#000000" points="507,-170 507,-189 591,-189 591,-170 507,-170"/>
<text text-anchor="middle" x="549" y="-177" font-family="Helvetica,sans-Serif" font-size="10.00" fill="#000000">myck::measure</text>
</a>
</g>
</g>
<!-- Node45&#45;&gt;Node46 -->
<g id="edge3" class="edge">
<title>Node45&#45;&gt;Node46</title>
<path fill="none" stroke="#191970" d="M466.7347,-180.9123C479.3422,-180.6958 493.7692,-180.4482 506.9846,-180.2213"/>
<polygon fill="#191970" stroke="#191970" points="466.5773,-177.4144 456.6389,-181.0856 466.6975,-184.4133 466.5773,-177.4144"/>
</g>
<!-- Node49 -->
<g id="node7" class="node">
<title>Node49</title>
<g id="a_node7"><a xlink:href="test__ell__plane_8cpp.html#a14c5157f7d8d8ca13f61f427c54ca0a9" target="_top" xlink:title="TEST_CASE">
<polygon fill="#ffffff" stroke="#000000" points="395,-118 395,-137 470,-137 470,-118 395,-118"/>
<text text-anchor="middle" x="432.5" y="-125" font-family="Helvetica,sans-Serif" font-size="10.00" fill="#000000">TEST_CASE</text>
</a>
</g>
</g>
<!-- Node48&#45;&gt;Node49 -->
<g id="edge6" class="edge">
<title>Node48&#45;&gt;Node49</title>
<path fill="none" stroke="#191970" d="M320.7177,-112.8527C342.8126,-115.7479 371.8806,-119.5568 394.8361,-122.5647"/>
<polygon fill="#191970" stroke="#191970" points="321.1668,-109.3817 310.7968,-111.5527 320.2572,-116.3223 321.1668,-109.3817"/>
</g>
<!-- Node49&#45;&gt;Node46 -->
<g id="edge9" class="edge">
<title>Node49&#45;&gt;Node46</title>
<path fill="none" stroke="#191970" d="M463.2586,-141.2292C483.4445,-150.2392 509.3457,-161.8002 527.373,-169.8468"/>
<polygon fill="#191970" stroke="#191970" points="464.4261,-137.9175 453.8679,-137.0376 461.5729,-144.3097 464.4261,-137.9175"/>
</g>
<!-- Node50 -->
<g id="node8" class="node">
<title>Node50</title>
<g id="a_node8"><a xlink:href="test__euclid_8cpp.html#a7a9c104eecea25ccd260ebe509e5f19e" target="_top" xlink:title="chk_cyclic">
<polygon fill="#ffffff" stroke="#000000" points="517.5,-127 517.5,-146 580.5,-146 580.5,-127 517.5,-127"/>
<text text-anchor="middle" x="549" y="-134" font-family="Helvetica,sans-Serif" font-size="10.00" fill="#000000">chk_cyclic</text>
</a>
</g>
</g>
<!-- Node49&#45;&gt;Node50 -->
<g id="edge7" class="edge">
<title>Node49&#45;&gt;Node50</title>
<path fill="none" stroke="#191970" d="M480.3048,-131.1931C492.8186,-132.1598 505.9973,-133.1779 517.4278,-134.0609"/>
<polygon fill="#191970" stroke="#191970" points="480.2425,-127.6779 470.0026,-130.3972 479.7033,-134.6571 480.2425,-127.6779"/>
</g>
<!-- Node51 -->
<g id="node9" class="node">
<title>Node51</title>
<g id="a_node9"><a xlink:href="test__persp__plane_8cpp.html#a3a70b50a1fd45c219b46061aaeee3c26" target="_top" xlink:title="chk_degenerate">
<polygon fill="#ffffff" stroke="#000000" points="506,-89 506,-108 592,-108 592,-89 506,-89"/>
<text text-anchor="middle" x="549" y="-96" font-family="Helvetica,sans-Serif" font-size="10.00" fill="#000000">chk_degenerate</text>
</a>
</g>
</g>
<!-- Node49&#45;&gt;Node51 -->
<g id="edge8" class="edge">
<title>Node49&#45;&gt;Node51</title>
<path fill="none" stroke="#191970" d="M479.7112,-115.7479C490.0373,-113.1774 500.8438,-110.4874 510.7678,-108.017"/>
<polygon fill="#191970" stroke="#191970" points="478.861,-112.3526 470.0026,-118.1646 480.5519,-119.1453 478.861,-112.3526"/>
</g>
</g>
</svg>
