<?xml version="1.0" encoding="UTF-8" standalone="no"?>
<!DOCTYPE svg PUBLIC "-//W3C//DTD SVG 1.1//EN"
 "http://www.w3.org/Graphics/SVG/1.1/DTD/svg11.dtd">
<!-- Generated by graphviz version 2.40.1 (20161225.0304)
 -->
<!-- Title: lib/include/pgcpp/pg_line.hpp Pages: 1 -->
<svg width="621pt" height="106pt"
 viewBox="0.00 0.00 620.50 106.00" xmlns="http://www.w3.org/2000/svg" xmlns:xlink="http://www.w3.org/1999/xlink">
<g id="graph0" class="graph" transform="scale(1 1) rotate(0) translate(4 102)">
<title>lib/include/pgcpp/pg_line.hpp</title>
<polygon fill="#ffffff" stroke="transparent" points="-4,4 -4,-102 616.5,-102 616.5,4 -4,4"/>
<!-- Node7 -->
<g id="node1" class="node">
<title>Node7</title>
<polygon fill="#bfbfbf" stroke="#000000" points="245.5,-67.5 245.5,-97.5 348.5,-97.5 348.5,-67.5 245.5,-67.5"/>
<text text-anchor="start" x="253.5" y="-85.5" font-family="Helvetica,sans-Serif" font-size="10.00" fill="#000000">lib/include/pgcpp/pg</text>
<text text-anchor="middle" x="297" y="-74.5" font-family="Helvetica,sans-Serif" font-size="10.00" fill="#000000">_line.hpp</text>
</g>
<!-- Node8 -->
<g id="node2" class="node">
<title>Node8</title>
<g id="a_node2"><a xlink:href="test__ck__plane_8cpp.html" target="_top" xlink:title="lib/test/src/test_ck\l_plane.cpp">
<polygon fill="#ffffff" stroke="#000000" points="0,-.5 0,-30.5 98,-30.5 98,-.5 0,-.5"/>
<text text-anchor="start" x="8" y="-18.5" font-family="Helvetica,sans-Serif" font-size="10.00" fill="#000000">lib/test/src/test_ck</text>
<text text-anchor="middle" x="49" y="-7.5" font-family="Helvetica,sans-Serif" font-size="10.00" fill="#000000">_plane.cpp</text>
</a>
</g>
</g>
<!-- Node7&#45;&gt;Node8 -->
<g id="edge1" class="edge">
<title>Node7&#45;&gt;Node8</title>
<path fill="none" stroke="#191970" d="M235.657,-65.9275C193.2437,-54.4691 137.5644,-39.4267 98.0877,-28.7616"/>
<polygon fill="#191970" stroke="#191970" points="234.7462,-69.3068 245.3129,-68.5362 236.5719,-62.5491 234.7462,-69.3068"/>
</g>
<!-- Node9 -->
<g id="node3" class="node">
<title>Node9</title>
<g id="a_node3"><a xlink:href="test__ell__plane_8cpp.html" target="_top" xlink:title="lib/test/src/test_ell\l_plane.cpp">
<polygon fill="#ffffff" stroke="#000000" points="116.5,-.5 116.5,-30.5 213.5,-30.5 213.5,-.5 116.5,-.5"/>
<text text-anchor="start" x="124.5" y="-18.5" font-family="Helvetica,sans-Serif" font-size="10.00" fill="#000000">lib/test/src/test_ell</text>
<text text-anchor="middle" x="165" y="-7.5" font-family="Helvetica,sans-Serif" font-size="10.00" fill="#000000">_plane.cpp</text>
</a>
</g>
</g>
<!-- Node7&#45;&gt;Node9 -->
<g id="edge2" class="edge">
<title>Node7&#45;&gt;Node9</title>
<path fill="none" stroke="#191970" d="M258.411,-62.9132C238.1813,-52.645 213.7733,-40.2561 194.9812,-30.7177"/>
<polygon fill="#191970" stroke="#191970" points="256.8754,-66.0587 267.3766,-67.4639 260.0437,-59.8168 256.8754,-66.0587"/>
</g>
<!-- Node10 -->
<g id="node4" class="node">
<title>Node10</title>
<g id="a_node4"><a xlink:href="test__euclid_8cpp.html" target="_top" xlink:title="lib/test/src/test_euclid.cpp">
<polygon fill="#ffffff" stroke="#000000" points="231.5,-6 231.5,-25 362.5,-25 362.5,-6 231.5,-6"/>
<text text-anchor="middle" x="297" y="-13" font-family="Helvetica,sans-Serif" font-size="10.00" fill="#000000">lib/test/src/test_euclid.cpp</text>
</a>
</g>
</g>
<!-- Node7&#45;&gt;Node10 -->
<g id="edge3" class="edge">
<title>Node7&#45;&gt;Node10</title>
<path fill="none" stroke="#191970" d="M297,-57.1199C297,-45.9072 297,-33.4031 297,-25.055"/>
<polygon fill="#191970" stroke="#191970" points="293.5001,-57.2966 297,-67.2967 300.5001,-57.2967 293.5001,-57.2966"/>
</g>
<!-- Node11 -->
<g id="node5" class="node">
<title>Node11</title>
<g id="a_node5"><a xlink:href="test__persp__plane_8cpp.html" target="_top" xlink:title="lib/test/src/test_persp\l_plane.cpp">
<polygon fill="#ffffff" stroke="#000000" points="380.5,-.5 380.5,-30.5 491.5,-30.5 491.5,-.5 380.5,-.5"/>
<text text-anchor="start" x="388.5" y="-18.5" font-family="Helvetica,sans-Serif" font-size="10.00" fill="#000000">lib/test/src/test_persp</text>
<text text-anchor="middle" x="436" y="-7.5" font-family="Helvetica,sans-Serif" font-size="10.00" fill="#000000">_plane.cpp</text>
</a>
</g>
</g>
<!-- Node7&#45;&gt;Node11 -->
<g id="edge4" class="edge">
<title>Node7&#45;&gt;Node11</title>
<path fill="none" stroke="#191970" d="M337.3477,-63.0518C358.7062,-52.7567 384.5511,-40.2991 404.4289,-30.7177"/>
<polygon fill="#191970" stroke="#191970" points="335.6827,-59.9689 328.1943,-67.4639 338.7222,-66.2746 335.6827,-59.9689"/>
</g>
<!-- Node12 -->
<g id="node6" class="node">
<title>Node12</title>
<g id="a_node6"><a xlink:href="test__proj__plane_8cpp.html" target="_top" xlink:title="lib/test/src/test_proj\l_plane.cpp">
<polygon fill="#ffffff" stroke="#000000" points="509.5,-.5 509.5,-30.5 612.5,-30.5 612.5,-.5 509.5,-.5"/>
<text text-anchor="start" x="517.5" y="-18.5" font-family="Helvetica,sans-Serif" font-size="10.00" fill="#000000">lib/test/src/test_proj</text>
<text text-anchor="middle" x="561" y="-7.5" font-family="Helvetica,sans-Serif" font-size="10.00" fill="#000000">_plane.cpp</text>
</a>
</g>
</g>
<!-- Node7&#45;&gt;Node12 -->
<g id="edge5" class="edge">
<title>Node7&#45;&gt;Node12</title>
<path fill="none" stroke="#191970" d="M358.3128,-67.1154C398.83,-56.9256 453.1004,-43.2331 501,-31 503.7103,-30.3078 506.4889,-29.5964 509.294,-28.8767"/>
<polygon fill="#191970" stroke="#191970" points="357.4271,-63.729 348.5823,-69.5616 359.1339,-70.5178 357.4271,-63.729"/>
</g>
</g>
</svg>
