<?xml version="1.0" encoding="UTF-8" standalone="no"?>
<!DOCTYPE svg PUBLIC "-//W3C//DTD SVG 1.1//EN"
 "http://www.w3.org/Graphics/SVG/1.1/DTD/svg11.dtd">
<!-- Generated by graphviz version 2.40.1 (20161225.0304)
 -->
<!-- Title: lib/include/pgcpp/pg_object.hpp Pages: 1 -->
<svg width="258pt" height="207pt"
 viewBox="0.00 0.00 257.50 207.00" xmlns="http://www.w3.org/2000/svg" xmlns:xlink="http://www.w3.org/1999/xlink">
<g id="graph0" class="graph" transform="scale(1 1) rotate(0) translate(4 203)">
<title>lib/include/pgcpp/pg_object.hpp</title>
<polygon fill="#ffffff" stroke="transparent" points="-4,4 -4,-203 253.5,-203 253.5,4 -4,4"/>
<!-- Node0 -->
<g id="node1" class="node">
<title>Node0</title>
<polygon fill="#bfbfbf" stroke="#000000" points="123,-168.5 123,-198.5 226,-198.5 226,-168.5 123,-168.5"/>
<text text-anchor="start" x="131" y="-186.5" font-family="Helvetica,sans-Serif" font-size="10.00" fill="#000000">lib/include/pgcpp/pg</text>
<text text-anchor="middle" x="174.5" y="-175.5" font-family="Helvetica,sans-Serif" font-size="10.00" fill="#000000">_object.hpp</text>
</g>
<!-- Node1 -->
<g id="node2" class="node">
<title>Node1</title>
<g id="a_node2"><a xlink:href="pg__common_8hpp.html" target="_top" xlink:title="pgcpp/pg_common.hpp">
<polygon fill="#ffffff" stroke="#000000" points="115.5,-112.5 115.5,-131.5 233.5,-131.5 233.5,-112.5 115.5,-112.5"/>
<text text-anchor="middle" x="174.5" y="-119.5" font-family="Helvetica,sans-Serif" font-size="10.00" fill="#000000">pgcpp/pg_common.hpp</text>
</a>
</g>
</g>
<!-- Node0&#45;&gt;Node1 -->
<g id="edge1" class="edge">
<title>Node0&#45;&gt;Node1</title>
<path fill="none" stroke="#191970" d="M174.5,-168.2977C174.5,-160.3834 174.5,-150.6043 174.5,-142.0759"/>
<polygon fill="#191970" stroke="#191970" points="178.0001,-141.8469 174.5,-131.8469 171.0001,-141.847 178.0001,-141.8469"/>
</g>
<!-- Node2 -->
<g id="node3" class="node">
<title>Node2</title>
<g id="a_node3"><a xlink:href="common__concepts_8h.html" target="_top" xlink:title="pgcpp/common_concepts.h">
<polygon fill="#ffffff" stroke="#000000" points="0,-56.5 0,-75.5 137,-75.5 137,-56.5 0,-56.5"/>
<text text-anchor="middle" x="68.5" y="-63.5" font-family="Helvetica,sans-Serif" font-size="10.00" fill="#000000">pgcpp/common_concepts.h</text>
</a>
</g>
</g>
<!-- Node1&#45;&gt;Node2 -->
<g id="edge2" class="edge">
<title>Node1&#45;&gt;Node2</title>
<path fill="none" stroke="#191970" d="M156.0362,-112.2455C139.3926,-103.4527 114.7007,-90.4079 95.7808,-80.4125"/>
<polygon fill="#191970" stroke="#191970" points="97.2291,-77.2193 86.7522,-75.6427 93.9592,-83.4086 97.2291,-77.2193"/>
</g>
<!-- Node4 -->
<g id="node5" class="node">
<title>Node4</title>
<polygon fill="#ffffff" stroke="#bfbfbf" points="155.5,-56.5 155.5,-75.5 193.5,-75.5 193.5,-56.5 155.5,-56.5"/>
<text text-anchor="middle" x="174.5" y="-63.5" font-family="Helvetica,sans-Serif" font-size="10.00" fill="#000000">array</text>
</g>
<!-- Node1&#45;&gt;Node4 -->
<g id="edge4" class="edge">
<title>Node1&#45;&gt;Node4</title>
<path fill="none" stroke="#191970" d="M174.5,-112.2455C174.5,-104.9382 174.5,-94.6944 174.5,-85.7046"/>
<polygon fill="#191970" stroke="#191970" points="178.0001,-85.6426 174.5,-75.6427 171.0001,-85.6427 178.0001,-85.6426"/>
</g>
<!-- Node5 -->
<g id="node6" class="node">
<title>Node5</title>
<polygon fill="#ffffff" stroke="#bfbfbf" points="211.5,-56.5 211.5,-75.5 249.5,-75.5 249.5,-56.5 211.5,-56.5"/>
<text text-anchor="middle" x="230.5" y="-63.5" font-family="Helvetica,sans-Serif" font-size="10.00" fill="#000000">tuple</text>
</g>
<!-- Node1&#45;&gt;Node5 -->
<g id="edge5" class="edge">
<title>Node1&#45;&gt;Node5</title>
<path fill="none" stroke="#191970" d="M184.2545,-112.2455C192.3648,-104.1352 204.0925,-92.4075 213.7081,-82.7919"/>
<polygon fill="#191970" stroke="#191970" points="216.2611,-85.1887 220.8573,-75.6427 211.3113,-80.2389 216.2611,-85.1887"/>
</g>
<!-- Node3 -->
<g id="node4" class="node">
<title>Node3</title>
<polygon fill="#ffffff" stroke="#bfbfbf" points="48.5,-.5 48.5,-19.5 88.5,-19.5 88.5,-.5 48.5,-.5"/>
<text text-anchor="middle" x="68.5" y="-7.5" font-family="Helvetica,sans-Serif" font-size="10.00" fill="#000000">utility</text>
</g>
<!-- Node2&#45;&gt;Node3 -->
<g id="edge3" class="edge">
<title>Node2&#45;&gt;Node3</title>
<path fill="none" stroke="#191970" d="M68.5,-56.2455C68.5,-48.9382 68.5,-38.6944 68.5,-29.7046"/>
<polygon fill="#191970" stroke="#191970" points="72.0001,-29.6426 68.5,-19.6427 65.0001,-29.6427 72.0001,-29.6426"/>
</g>
</g>
</svg>
