<?xml version="1.0" encoding="UTF-8" standalone="no"?>
<!DOCTYPE svg PUBLIC "-//W3C//DTD SVG 1.1//EN"
 "http://www.w3.org/Graphics/SVG/1.1/DTD/svg11.dtd">
<!-- Generated by graphviz version 2.40.1 (20161225.0304)
 -->
<!-- Title: fun::pg_line&lt; _K &gt; Pages: 1 -->
<svg width="110pt" height="364pt"
 viewBox="0.00 0.00 110.00 364.00" xmlns="http://www.w3.org/2000/svg" xmlns:xlink="http://www.w3.org/1999/xlink">
<g id="graph0" class="graph" transform="scale(1 1) rotate(0) translate(4 360)">
<title>fun::pg_line&lt; _K &gt;</title>
<polygon fill="#ffffff" stroke="transparent" points="-4,4 -4,-360 106,-360 106,4 -4,4"/>
<!-- Node0 -->
<g id="node1" class="node">
<title>Node0</title>
<polygon fill="#bfbfbf" stroke="#000000" points="2.5,-.5 2.5,-90.5 99.5,-90.5 99.5,-.5 2.5,-.5"/>
<text text-anchor="middle" x="51" y="-78.5" font-family="Helvetica,sans-Serif" font-size="10.00" fill="#000000">fun::pg_line&lt; _K &gt;</text>
<polyline fill="none" stroke="#000000" points="2.5,-71.5 99.5,-71.5 "/>
<text text-anchor="middle" x="51" y="-59.5" font-family="Helvetica,sans-Serif" font-size="10.00" fill="#000000"> </text>
<polyline fill="none" stroke="#000000" points="2.5,-52.5 99.5,-52.5 "/>
<text text-anchor="start" x="10.5" y="-40.5" font-family="Helvetica,sans-Serif" font-size="10.00" fill="#000000">+ pg_line()</text>
<text text-anchor="start" x="10.5" y="-29.5" font-family="Helvetica,sans-Serif" font-size="10.00" fill="#000000">+ pg_line()</text>
<text text-anchor="start" x="10.5" y="-18.5" font-family="Helvetica,sans-Serif" font-size="10.00" fill="#000000">+ pg_line()</text>
<text text-anchor="start" x="10.5" y="-7.5" font-family="Helvetica,sans-Serif" font-size="10.00" fill="#000000">+ pg_line()</text>
</g>
<!-- Node1 -->
<g id="node2" class="node">
<title>Node1</title>
<g id="a_node2"><a xlink:href="classfun_1_1pg__object.html" target="_top" xlink:title="{fun::pg_object\&lt; _K,\l pg_point\&lt; _K \&gt; \&gt;\n||+ pg_object()\l+ operator==()\l+ operator!=()\l+ is_NaN()\l+ dot()\l+ operator*()\l+ aux()\l}">
<polygon fill="#ffffff" stroke="#000000" points="0,-127.5 0,-261.5 102,-261.5 102,-127.5 0,-127.5"/>
<text text-anchor="start" x="8" y="-249.5" font-family="Helvetica,sans-Serif" font-size="10.00" fill="#000000">fun::pg_object&lt; _K,</text>
<text text-anchor="middle" x="51" y="-238.5" font-family="Helvetica,sans-Serif" font-size="10.00" fill="#000000"> pg_point&lt; _K &gt; &gt;</text>
<polyline fill="none" stroke="#000000" points="0,-231.5 102,-231.5 "/>
<text text-anchor="middle" x="51" y="-219.5" font-family="Helvetica,sans-Serif" font-size="10.00" fill="#000000"> </text>
<polyline fill="none" stroke="#000000" points="0,-212.5 102,-212.5 "/>
<text text-anchor="start" x="8" y="-200.5" font-family="Helvetica,sans-Serif" font-size="10.00" fill="#000000">+ pg_object()</text>
<text text-anchor="start" x="8" y="-189.5" font-family="Helvetica,sans-Serif" font-size="10.00" fill="#000000">+ operator==()</text>
<text text-anchor="start" x="8" y="-178.5" font-family="Helvetica,sans-Serif" font-size="10.00" fill="#000000">+ operator!=()</text>
<text text-anchor="start" x="8" y="-167.5" font-family="Helvetica,sans-Serif" font-size="10.00" fill="#000000">+ is_NaN()</text>
<text text-anchor="start" x="8" y="-156.5" font-family="Helvetica,sans-Serif" font-size="10.00" fill="#000000">+ dot()</text>
<text text-anchor="start" x="8" y="-145.5" font-family="Helvetica,sans-Serif" font-size="10.00" fill="#000000">+ operator*()</text>
<text text-anchor="start" x="8" y="-134.5" font-family="Helvetica,sans-Serif" font-size="10.00" fill="#000000">+ aux()</text>
</a>
</g>
</g>
<!-- Node1&#45;&gt;Node0 -->
<g id="edge1" class="edge">
<title>Node1&#45;&gt;Node0</title>
<path fill="none" stroke="#191970" d="M51,-117.2384C51,-108.2246 51,-99.2648 51,-90.8878"/>
<polygon fill="none" stroke="#191970" points="47.5001,-117.41 51,-127.41 54.5001,-117.41 47.5001,-117.41"/>
</g>
<!-- Node2 -->
<g id="node3" class="node">
<title>Node2</title>
<g id="a_node3"><a xlink:title="STL class. ">
<polygon fill="#ffffff" stroke="#bfbfbf" points="1.5,-298.5 1.5,-355.5 100.5,-355.5 100.5,-298.5 1.5,-298.5"/>
<text text-anchor="middle" x="51" y="-343.5" font-family="Helvetica,sans-Serif" font-size="10.00" fill="#000000">std::array&lt; _K, 3 &gt;</text>
<polyline fill="none" stroke="#bfbfbf" points="1.5,-336.5 100.5,-336.5 "/>
<text text-anchor="start" x="9.5" y="-324.5" font-family="Helvetica,sans-Serif" font-size="10.00" fill="#000000">+ elements</text>
<polyline fill="none" stroke="#bfbfbf" points="1.5,-317.5 100.5,-317.5 "/>
<text text-anchor="middle" x="51" y="-305.5" font-family="Helvetica,sans-Serif" font-size="10.00" fill="#000000"> </text>
</a>
</g>
</g>
<!-- Node2&#45;&gt;Node1 -->
<g id="edge2" class="edge">
<title>Node2&#45;&gt;Node1</title>
<path fill="none" stroke="#191970" d="M51,-288.0752C51,-279.7041 51,-270.6273 51,-261.5309"/>
<polygon fill="none" stroke="#191970" points="47.5001,-288.2494 51,-298.2495 54.5001,-288.2495 47.5001,-288.2494"/>
</g>
</g>
</svg>
