<?xml version="1.0" encoding="iso-8859-1" standalone="no"?> 
<?xml-stylesheet href="TE_export636271116697184977.css" type="text/css"?> 
<svg xmlns="http://www.w3.org/2000/svg" xmlns:xlink="http://www.w3.org/1999/xlink" width="199.5692pt" height="284.92743pt" viewBox="-170.91646 -57.10548 199.5692 284.92743 "> 
<g transform="translate(0, 227.82195 ) scale(1,-1) translate(0,57.10548 )"> 
                                                   <g> 
 <g stroke="rgb(0.0%,0.0%,0.0%)"> 
 <g fill="rgb(0.0%,0.0%,0.0%)"> 
 <g stroke-width="0.4pt"> 
 <g> 
 <g> 
 <clipPath id="pgfcp1"> <path d=" M  -85.35823 56.90549 C  -85.35823 56.90549 -125.68336 45.85193 -142.26372 56.90549 C  -158.84407 67.95905 -170.71646 97.23062 -170.71646 113.81097 C  -170.71646 130.39133 -158.84407 142.26372 -142.26372 142.26372 C  -125.68336 142.26372 -96.41179 130.39133 -85.35823 113.81097 C  -74.30467 97.23062 -85.35823 56.90549 -85.35823 56.90549  "/> 
</clipPath> 
 <g clip-path="url(#pgfcp1)"> 
 <g transform="matrix(1,0,0,1,-122.51056,94.05782)"> 
 <g transform="matrix(1.92128,0,0,1.92128,0.0,0.0)"> 
 <g transform="matrix(1.0,0.0,0.0,1.0,0.0,0.0)"> 
  <linearGradient id="pgfsh2" gradientTransform="rotate(90)"> 
 <stop offset=" 0.0" stop-color=" rgb(0.0%,100.0%,100.0%) "/> 
 <stop offset=" 0.25" stop-color=" rgb(0.0%,100.0%,100.0%) "/> 
 <stop offset=" 0.5" stop-color=" rgb(50.0%,100.0%,100.0%) "/> 
 <stop offset=" 0.75" stop-color=" rgb(100.0%,100.0%,100.0%) "/> 
 <stop offset=" 1.0" stop-color=" rgb(100.0%,100.0%,100.0%) "/> 
 </linearGradient> 
 <g transform="translate(-50.1875,-50.1875)"> 
 <rect width="100.375" height="100.375" style="fill:url(#pgfsh2); stroke:none"/> 
 </g> 
 </g> 
 </g> 
 </g> 
 </g> 
 </g> 
 <path d=" M  -85.35823 56.90549 C  -85.35823 56.90549 -125.68336 45.85193 -142.26372 56.90549 C  -158.84407 67.95905 -170.71646 97.23062 -170.71646 113.81097 C  -170.71646 130.39133 -158.84407 142.26372 -142.26372 142.26372 C  -125.68336 142.26372 -96.41179 130.39133 -85.35823 113.81097 C  -74.30467 97.23062 -85.35823 56.90549 -85.35823 56.90549  " style="fill:none"/> 
 <g> 
 <g> 
 <g transform="matrix(1.0,0.0,0.0,1.0,-146.14568,110.39432)"> 
 <g fill="rgb(0.0%,0.0%,0.0%)"> 
 <text style="stroke:none" transform="scale(1,-1) translate(3.88196,0)" text-anchor="middle"  font-size="10"> 
<tspan font-family="cmsy" font-size="10"><img 
src="cmsy10-4b.png" alt="K" class="10x-x-4b" />K</tspan></text> 
</g> 
 </g> 
 </g> 
 </g> 
 <path d=" M  28.45274 227.62195 L  -85.35823 -56.90549  " style="fill:none"/> 
 <g> 
 <g fill="rgb(0.0%,0.0%,100.0%)"> 
 <path d=" M  -28.45274 56.90549 M  -26.95274 56.90549 C  -26.95274 57.73392 -27.62431 58.40549 -28.45274 58.40549 C  -29.28117 58.40549 -29.95274 57.73392 -29.95274 56.90549 C  -29.95274 56.07706 -29.28117 55.40549 -28.45274 55.40549 C  -27.62431 55.40549 -26.95274 56.07706 -26.95274 56.90549 Z M  -28.45274 56.90549  " /> 
 <g> 
 <g> 
 <g transform="matrix(1.0,0.0,0.0,1.0,-24.91977,61.93843)"> 
 <g fill="rgb(0.0%,0.0%,0.0%)"> 
 <text style="stroke:none" transform="scale(1,-1) translate(5.1007,0)" text-anchor="middle"  font-size="10"> 
<tspan font-family="cmmi" font-size="10">x</tspan><tspan baseline-shift="sub"><tspan font-family="cmr" font-size="7">0</tspan></tspan></text> 
</g> 
 </g> 
 </g> 
 </g> 
 </g> 
 </g> 
 </g> 
 </g> 
 </g> 
 </g> 
 </g> 
 
                                                                          </g> 
</svg> 
