<?xml version="1.0" encoding="iso-8859-1" standalone="no"?> 
<?xml-stylesheet href="TE_export636270943546195772.css" type="text/css"?> 
<svg xmlns="http://www.w3.org/2000/svg" xmlns:xlink="http://www.w3.org/1999/xlink" width="258.34662pt" height="165.18025pt" viewBox="-101.17424 -136.52751 258.34662 165.18025 "> 
<g transform="translate(0, 28.65274 ) scale(1,-1) translate(0,136.52751 )"> 
                              <g> 
 <g stroke="rgb(0.0%,0.0%,0.0%)"> 
 <g fill="rgb(0.0%,0.0%,0.0%)"> 
 <g stroke-width="0.4pt"> 
 <g> 
 <path d=" M  142.26372 28.45274 C  142.26372 28.45274 135.9181 -26.50818 113.81097 -56.90549 C  91.70384 -87.3028 61.61345 -119.74716 28.45274 -128.03734 C  -4.70796 -136.32751 -32.03496 -121.69173 -56.90549 -99.5846 C  -81.77602 -77.47746 -99.5846 -14.22636 -99.5846 -14.22636  " style="fill:none"/> 
 <path d=" M  -56.90549 -99.5846 L  113.81097 -56.90549  " style="fill:none"/> 
 <g> 
 <g fill="rgb(0.0%,0.0%,100.0%)"> 
 <path d=" M  -56.90549 -99.5846 M  -55.40549 -99.5846 C  -55.40549 -98.75616 -56.07706 -98.0846 -56.90549 -98.0846 C  -57.73392 -98.0846 -58.40549 -98.75616 -58.40549 -99.5846 C  -58.40549 -100.41302 -57.73392 -101.0846 -56.90549 -101.0846 C  -56.07706 -101.0846 -55.40549 -100.41302 -55.40549 -99.5846 Z M  -56.90549 -99.5846  " /> 
 <g> 
 <g> 
 <g transform="matrix(1.0,0.0,0.0,1.0,-97.84126,-102.0846)"> 
 <g fill="rgb(0.0%,0.0%,0.0%)"> 
 <text style="stroke:none" transform="scale(1,-1) translate(18.7014,0)" text-anchor="middle"  font-size="10"> 
(<tspan font-family="cmmi" font-size="10">x,f</tspan>(<tspan font-family="cmmi" font-size="10">x</tspan>))</text> 
</g> 
 </g> 
 </g> 
 </g> 
 </g> 
 </g> 
 <g> 
 <g fill="rgb(0.0%,0.0%,100.0%)"> 
 <path d=" M  113.81097 -56.90549 M  115.31097 -56.90549 C  115.31097 -56.07706 114.6394 -55.40549 113.81097 -55.40549 C  112.98254 -55.40549 112.31097 -56.07706 112.31097 -56.90549 C  112.31097 -57.73392 112.98254 -58.40549 113.81097 -58.40549 C  114.6394 -58.40549 115.31097 -57.73392 115.31097 -56.90549 Z M  113.81097 -56.90549  " /> 
 <g> 
 <g> 
 <g transform="matrix(1.0,0.0,0.0,1.0,117.34395,-59.40549)"> 
 <g fill="rgb(0.0%,0.0%,0.0%)"> 
 <text style="stroke:none" transform="scale(1,-1) translate(18.24773,0)" text-anchor="middle"  font-size="10"> 
(<tspan font-family="cmmi" font-size="10">y, f</tspan>(<tspan font-family="cmmi" font-size="10">y</tspan>))</text> 
</g> 
 </g> 
 </g> 
 </g> 
 </g> 
 </g> 
 </g> 
 </g> 
 </g> 
 </g> 
 </g> 
 
                                                                              </g> 
</svg> 
