<?xml-stylesheet href="TE_export636271112060657073.css" type="text/css"?><svg xmlns="http://www.w3.org/2000/svg" width="307.2" height="284" viewBox="-99.8 -150.3 230.4 213"><g stroke="#000" stroke-linejoin="bevel" stroke-width=".5"><g transform="matrix(1 0 0 -1 0 -87.7)"><clipPath id="a"><path d="M-99.6-14.2s29.7 65.6 71.1 71.1C13 62.4 97.2 50.2 113.8 14.2 130.4-21.7 90.1-105.9 57-128c-33.2-22.1-83.4 6.3-113.8 28.4-30.4 22.1-42.7 85.4-42.7 85.4"/></clipPath><g clip-path="url(#a)"><g transform="matrix(4.58295 0 0 4.23622 15.4 -43.9)"><linearGradient id="b" gradientTransform="rotate(90)"><stop offset="0" stop-color="#FFF"/><stop offset=".3" stop-color="#FFF"/><stop offset=".5" stop-color="#7FFFFF"/><stop offset=".8" stop-color="#0FF"/><stop offset="1" stop-color="#0FF"/></linearGradient><path fill="url(#b)" d="M0 0h100.4v100.4H0z" transform="translate(-50.2 -50.2)" stroke="none"/></g></g></g><path fill="none" d="M-99.6-73.5s29.7-65.6 71.1-71.1C13-150.1 97.2-138 113.8-102 130.4-66 90.1 18.2 57 40.3 23.7 62.4-26.5 34-56.9 12c-30.4-22.1-42.7-85.4-42.7-85.4m71.1 71L85.4-45"/><g fill="#00F"><path d="M-27-2.4a1.5 1.5 0 1 0-3 0 1.5 1.5 0 0 0 3 0zm-1.5 0"/><text fill="#000" stroke="none" font-size="10" text-anchor="middle" transform="translate(-37 -7.4)"><tspan font-family="cmmi">x</tspan><tspan baseline-shift="sub"><tspan font-family="cmr" font-size="7">1</tspan></tspan></text></g><g fill="#00F"><path d="M86.9-45a1.5 1.5 0 1 0-3 0 1.5 1.5 0 0 0 3 0zm-1.5 0"/><text fill="#000" stroke="none" font-size="10" text-anchor="middle" transform="translate(76.7 -50)"><tspan font-family="cmmi">x</tspan><tspan baseline-shift="sub"><tspan font-family="cmr" font-size="7">2</tspan></tspan></text></g></g></svg>