<?xml version="1.0" encoding="iso-8859-1" standalone="no"?> 
<?xml-stylesheet href="TE_export636271114087415173.css" type="text/css"?> 
<svg xmlns="http://www.w3.org/2000/svg" xmlns:xlink="http://www.w3.org/1999/xlink" width="239.07549pt" height="187.69681pt" viewBox="-99.78459 -122.30115 239.07549 187.69681 "> 
<g transform="translate(0, 65.39566 ) scale(1,-1) translate(0,122.30115 )"> 
                              <g> 
 <g stroke="rgb(0.0%,0.0%,0.0%)"> 
 <g fill="rgb(0.0%,0.0%,0.0%)"> 
 <g stroke-width="0.4pt"> 
 <g> 
 <g stroke-linejoin="bevel"> 
 <g> 
 <clipPath id="pgfcp1"> <path d=" M  -99.5846 -14.22636 C  -99.5846 -14.22636 -72.66702 65.19566 -28.45274 56.90549 C  15.76154 48.61531 116.98378 -34.79836 128.03734 -56.90549 C  139.0909 -79.01262 61.61345 -45.85193 28.45274 -56.90549 C  -4.70796 -67.95905 -17.80858 -122.10115 -42.67911 -113.81097 C  -67.54964 -105.5208 -99.5846 -14.22636 -99.5846 -14.22636  "/> 
</clipPath> 
 <g clip-path="url(#pgfcp1)"> 
 <g transform="matrix(1,0,0,1,19.75314,-28.45274)"> 
 <g transform="matrix(4.75632,0,0,3.73244,0.0,0.0)"> 
 <g transform="matrix(1.0,0.0,0.0,1.0,0.0,0.0)"> 
  <linearGradient id="pgfsh2" gradientTransform="rotate(90)"> 
 <stop offset=" 0.0" stop-color=" rgb(100.0%,100.0%,100.0%) "/> 
 <stop offset=" 0.25" stop-color=" rgb(100.0%,100.0%,100.0%) "/> 
 <stop offset=" 0.5" stop-color=" rgb(50.0%,100.0%,100.0%) "/> 
 <stop offset=" 0.75" stop-color=" rgb(0.0%,100.0%,100.0%) "/> 
 <stop offset=" 1.0" stop-color=" rgb(0.0%,100.0%,100.0%) "/> 
 </linearGradient> 
 <g transform="translate(-50.1875,-50.1875)"> 
 <rect width="100.375" height="100.375" style="fill:url(#pgfsh2); stroke:none"/> 
 </g> 
 </g> 
 </g> 
 </g> 
 </g> 
 </g> 
 <path d=" M  -99.5846 -14.22636 C  -99.5846 -14.22636 -72.66702 65.19566 -28.45274 56.90549 C  15.76154 48.61531 116.98378 -34.79836 128.03734 -56.90549 C  139.0909 -79.01262 61.61345 -45.85193 28.45274 -56.90549 C  -4.70796 -67.95905 -17.80858 -122.10115 -42.67911 -113.81097 C  -67.54964 -105.5208 -99.5846 -14.22636 -99.5846 -14.22636  " style="fill:none"/> 
 <path d=" M  -28.45274 -85.35823 L  85.35823 -42.67911  " style="fill:none"/> 
 <g> 
 <g fill="rgb(0.0%,0.0%,100.0%)"> 
 <path d=" M  -28.45274 -85.35823 M  -26.95274 -85.35823 C  -26.95274 -84.5298 -27.62431 -83.85823 -28.45274 -83.85823 C  -29.28117 -83.85823 -29.95274 -84.5298 -29.95274 -85.35823 C  -29.95274 -86.18666 -29.28117 -86.85823 -28.45274 -86.85823 C  -27.62431 -86.85823 -26.95274 -86.18666 -26.95274 -85.35823 Z M  -28.45274 -85.35823  " /> 
 <g> 
 <g> 
 <g transform="matrix(1.0,0.0,0.0,1.0,-42.1871,-80.32529)"> 
 <g fill="rgb(0.0%,0.0%,0.0%)"> 
 <text style="stroke:none" transform="scale(1,-1) translate(5.1007,0)" text-anchor="middle"  font-size="10"> 
<tspan font-family="cmmi" font-size="10">x</tspan><tspan baseline-shift="sub"><tspan font-family="cmr" font-size="7">1</tspan></tspan></text> 
</g> 
 </g> 
 </g> 
 </g> 
 </g> 
 </g> 
 <g> 
 <g fill="rgb(0.0%,0.0%,100.0%)"> 
 <path d=" M  85.35823 -42.67911 M  86.85823 -42.67911 C  86.85823 -41.85068 86.18666 -41.17911 85.35823 -41.17911 C  84.5298 -41.17911 83.85823 -41.85068 83.85823 -42.67911 C  83.85823 -43.50754 84.5298 -44.17911 85.35823 -44.17911 C  86.18666 -44.17911 86.85823 -43.50754 86.85823 -42.67911 Z M  85.35823 -42.67911  " /> 
 <g> 
 <g> 
 <g transform="matrix(1.0,0.0,0.0,1.0,71.62387,-37.64616)"> 
 <g fill="rgb(0.0%,0.0%,0.0%)"> 
 <text style="stroke:none" transform="scale(1,-1) translate(5.1007,0)" text-anchor="middle"  font-size="10"> 
<tspan font-family="cmmi" font-size="10">x</tspan><tspan baseline-shift="sub"><tspan font-family="cmr" font-size="7">2</tspan></tspan></text> 
</g> 
 </g> 
 </g> 
 </g> 
 </g> 
 </g> 
 </g> 
 </g> 
 </g> 
 </g> 
 </g> 
 </g> 
 
                                                                                         </g> 
</svg> 
