<svg xmlns="http://www.w3.org/2000/svg" width="579" height="549.6" version="1"><text style="line-height:143.684519%;text-align:start" font-family="Times New Roman" font-size="15.1" font-stretch="Condensed" font-weight="400" letter-spacing="0" transform="translate(234.3 138.9)" word-spacing="0"><tspan x="0" y="0"><tspan dx="0" dy="0">E</tspan><tspan dx="0" dy="0">0 </tspan><tspan dx="0" dy="0">= </tspan><tspan dx="0" dy="0">{</tspan><tspan dx="0" dy="0">(</tspan><tspan dx="0" dy="0">c</tspan><tspan dx="0" dy="0">,</tspan><tspan dx="0" dy="0">g</tspan><tspan dx="0" dy="0">)</tspan><tspan dx="0" dy="0">, </tspan><tspan dx="0" dy="0">(</tspan><tspan dx="0" dy="0">d</tspan><tspan dx="0" dy="0">,</tspan><tspan dx="0" dy="0">g</tspan><tspan dx="0" dy="0">)</tspan><tspan dx="0" dy="0">}</tspan></tspan><tspan x="2.8" y="21.7"><tspan dx="0" dy="0">cost</tspan><tspan dx="0" dy="0">0 </tspan><tspan dx="0" dy="0">= </tspan><tspan dx="0" dy="0">8</tspan></tspan></text><path fill="none" stroke="#00f" stroke-linecap="round" stroke-linejoin="round" stroke-width=".9" d="M58.8 241.7h311.7V45.1H58.8v196.6z"/><text style="line-height:125%;text-align:start" font-family="宋体" font-size="17.9" font-stretch="Normal" font-weight="700" letter-spacing="0" transform="translate(9.4 149.3)" word-spacing="0"><tspan x="0" y="0"><tspan dx="0" dy="0">同相</tspan></tspan></text><text style="line-height:125%;text-align:start" x="35.9" font-family="宋体" font-size="17.9" font-stretch="Normal" font-weight="700" letter-spacing="0" transform="translate(9.4 149.3)" word-spacing="0"><tspan x="35.9" y="0"><tspan dx="0" dy="0">：</tspan></tspan></text><text style="line-height:125%;text-align:start" x="250.4" y="175.7" font-family="Times New Roman" font-size="15.1" font-stretch="Condensed" font-weight="400" letter-spacing="0" transform="translate(9.4 149.3)" word-spacing="0"><tspan x="250.4" y="175.7"><tspan dx="0" dy="0">cost</tspan><tspan dx="0" dy="0">180 </tspan><tspan dx="0" dy="0">= </tspan><tspan dx="0" dy="0">11</tspan></tspan></text><path fill="none" stroke="#00f" stroke-linecap="round" stroke-linejoin="round" stroke-width=".9" d="M58.8 452.2h311.7v-200H58.8v200z"/><text style="line-height:125%;text-align:start" font-family="宋体" font-size="17.9" font-stretch="Normal" font-weight="700" letter-spacing="0" transform="translate(9.4 345.8)" word-spacing="0"><tspan x="0" y="0"><tspan dx="0" dy="0">反相</tspan><tspan dx="18.4" dy="0">：</tspan></tspan></text><text style="line-height:125%;text-align:start" x="200.3" y="-46.3" font-family="Times New Roman" font-size="15.1" font-stretch="Condensed" font-weight="400" letter-spacing="0" transform="translate(9.4 345.8)" word-spacing="0"><tspan x="200.3" y="-46.3"><tspan dx="0" dy="0">E</tspan><tspan dx="0" dy="0">180 </tspan><tspan dx="0" dy="0">= </tspan><tspan dx="0" dy="0">{</tspan><tspan dx="0" dy="0">(</tspan><tspan dx="0" dy="0">c</tspan><tspan dx="0" dy="0">,</tspan><tspan dx="0" dy="0">h</tspan><tspan dx="0" dy="0">)</tspan><tspan dx="0" dy="0">, </tspan><tspan dx="0" dy="0">(</tspan><tspan dx="0" dy="0">d</tspan><tspan dx="0" dy="0">,</tspan><tspan dx="0" dy="0">h</tspan><tspan dx="0" dy="0">)</tspan><tspan dx="0" dy="0">, </tspan><tspan dx="0" dy="0">(</tspan><tspan dx="0" dy="0">f</tspan><tspan dx="0" dy="0">,</tspan><tspan dx="0" dy="0">h</tspan><tspan dx="0" dy="0">)</tspan><tspan dx="0" dy="0">}</tspan></tspan></text><text style="line-height:125%;text-align:start" x="87.9" y="131.3" font-family="Times New Roman" font-size="17.9" font-stretch="Condensed" font-weight="400" letter-spacing="0" transform="translate(9.4 345.8)" word-spacing="0"><tspan x="87.9" y="131.3"><tspan dx="0" dy="0">cost</tspan><tspan dx="0" dy="0">_</tspan><tspan dx="0" dy="0">diff </tspan><tspan dx="0" dy="0">= </tspan><tspan dx="0" dy="0">-</tspan><tspan dx="0" dy="0">3</tspan></tspan></text><text style="line-height:125%;text-align:start" x="-9.4" y="132.3" font-family="宋体" font-size="17.9" font-stretch="Normal" font-weight="700" letter-spacing="0" transform="translate(9.4 345.8)" word-spacing="0"><tspan x="-9.4" y="132.3"><tspan dx="0" dy="0">代价差</tspan></tspan></text><text style="line-height:125%;text-align:start" x="44.4" y="132.3" font-family="宋体" font-size="17.9" font-stretch="Normal" font-weight="700" letter-spacing="0" transform="translate(9.4 345.8)" word-spacing="0"><tspan x="44.4" y="132.3"><tspan dx="0" dy="0">：</tspan></tspan></text><path fill="none" stroke="red" stroke-linecap="round" stroke-linejoin="round" stroke-width=".9" d="M526.2 241.5c0-2.7-2-4.8-4.7-4.8a4.8 4.8 0 0 0-4.8 4.8c0 2.6 2.1 4.8 4.8 4.8 2.6 0 4.7-2.2 4.7-4.8m4.8 78.9c0-2.6-2.1-4.8-4.8-4.8a4.8 4.8 0 0 0-4.7 4.8c0 2.7 2.1 4.8 4.7 4.8 2.7 0 4.8-2.1 4.8-4.8"/><text style="line-height:125%;text-align:start" font-family="Times New Roman" font-size="15.1" font-stretch="Condensed" font-weight="400" letter-spacing="0" transform="translate(516.9 235.3)" word-spacing="0"><tspan x="0" y="0"><tspan dx="0" dy="0">b</tspan></tspan></text><text style="line-height:125%;text-align:start" x="5.7" y="102" font-family="Times New Roman" font-size="15.1" font-stretch="Condensed" font-weight="400" letter-spacing="0" transform="translate(516.9 235.3)" word-spacing="0"><tspan x="5.7" y="102"><tspan dx="0" dy="0">h</tspan></tspan></text><text style="line-height:125%;text-align:start" x="35" y="48.2" font-family="Times New Roman" font-size="15.1" font-stretch="Condensed" font-weight="400" letter-spacing="0" transform="translate(516.9 235.3)" word-spacing="0"><tspan x="35" y="48.2"><tspan fill="#00f" dx="0" dy="0">2</tspan></tspan></text><path fill="none" stroke="#000" stroke-linecap="round" stroke-linejoin="round" stroke-width=".9" d="M525.5 244c-.3.6 1.7.7 3.5 1 10.1 2.3 14 14.3 15.7 27 3.3 25.6-2.3 53.7-13.7 48.4"/><path stroke="#000" stroke-linejoin="bevel" stroke-width=".9" d="M524.8 315.8v-1c0-.2.2-.4.5-.4.2 0 .5.1.5.4v1c0 .2-.2.4-.4.4-.3 0-.5-.1-.6-.4zm0-2.9-.1-1c0-.1.2-.4.5-.4.2 0 .4.2.4.5l.1 1c0 .2-.2.4-.5.4a.5.5 0 0 1-.4-.5zm-.2-2.8v-1c0-.2.2-.4.5-.4s.4.2.5.5v.9c0 .2-.2.5-.5.5a.5.5 0 0 1-.5-.5zm0-2.8v-1c0-.2.1-.5.4-.5.2 0 .5.2.5.5v1c0 .2-.2.4-.4.4-.3 0-.5-.1-.5-.4zm-.1-2.9v-1c0-.2.1-.4.4-.4.3 0 .5.2.5.5v1c0 .2-.2.4-.5.4a.5.5 0 0 1-.4-.5zm-.1-2.8v-1c0-.2.1-.4.4-.4.3 0 .5.2.5.4v1c0 .2-.2.5-.4.5-.3 0-.5-.2-.5-.5zm-.1-2.8v-1c0-.2.2-.5.4-.5s.5.2.5.5v1c0 .2-.2.4-.4.4a.5.5 0 0 1-.5-.4zm-.1-2.9v-1c0-.2.2-.4.4-.4.3 0 .5.2.5.5v1c0 .2-.2.4-.5.4a.5.5 0 0 1-.4-.5zm0-2.8-.1-1c0-.2.1-.4.4-.4.3 0 .5.2.5.4v1c0 .2-.2.5-.4.5-.3 0-.5-.2-.5-.5zm-.2-2.8v-1c0-.2.2-.5.4-.5.3 0 .5.3.5.5v1c0 .2-.1.4-.4.4a.5.5 0 0 1-.5-.4zm-.1-2.9v-.9c0-.3.2-.5.5-.5.2 0 .4.2.4.5v1c0 .2-.2.4-.4.4-.3 0-.5-.2-.5-.5zm0-2.8-.1-.9c0-.3.2-.5.4-.5.3 0 .5.2.5.4v1c0 .2-.2.5-.4.5s-.5-.2-.5-.5zm-.2-2.8v-1c0-.2.2-.5.4-.5.3 0 .5.3.5.5v1c0 .2-.1.4-.4.4-.3 0-.5-.2-.5-.4zm0-2.8-.1-1c0-.3.2-.5.5-.5.2 0 .4.2.4.5v1c0 .2-.1.4-.4.4-.3 0-.5-.2-.5-.4zm-.2-2.9v-.9c0-.3.2-.5.4-.5.3 0 .5.2.5.4v1c0 .2-.1.5-.4.5-.2 0-.5-.2-.5-.5zm0-2.8v-1c0-.2 0-.4.4-.5.2 0 .5.3.5.5v1c0 .2-.2.4-.5.4a.4.4 0 0 1-.5-.4zm-.2-2.8v-1c0-.3.2-.4.5-.5.2 0 .4.2.4.5v1c0 .2-.1.4-.4.4-.2 0-.5-.2-.5-.4zm0-2.9v-1c-.1-.2.1-.4.3-.4.3 0 .5.2.6.4v1c0 .3-.2.5-.5.5-.2 0-.5-.2-.5-.5zm-.2-2.8v-1c0-.2.2-.4.5-.5.2 0 .5.3.5.5v1c0 .2-.2.4-.5.4s-.4-.2-.5-.4zm0-2.8-.1-1c0-.3.2-.4.5-.5.2 0 .4.2.4.5l.1 1c0 .2-.2.4-.5.4-.2 0-.4-.2-.4-.4zm-.2-2.9v-1c0-.2.2-.4.4-.4.3 0 .6.2.6.4v1c0 .3-.2.4-.4.4a.4.4 0 0 1-.6-.4zm0-2.8v-1c0-.2 0-.4.4-.4.2 0 .5.2.5.4v1c0 .2-.2.4-.5.5a.5.5 0 0 1-.4-.5zm-.1-2.8v-1c-.1-.3.1-.5.4-.5.3 0 .4.2.5.5v1c0 .2-.2.4-.5.4a.5.5 0 0 1-.4-.4zm-.2-2.9v-1c0-.2.2-.4.5-.4.2 0 .5.2.5.4v1c0 .3-.2.4-.4.5-.3 0-.5-.2-.6-.5zm0-2.8v-1c0-.2.2-.4.4-.4s.5.2.5.4v1c0 .2-.2.4-.4.5a.5.5 0 0 1-.5-.5zm-1.1 71.2-.6-.8c-.2-.2-.2-.5 0-.6.3-.2.6-.2.7 0l.6.8v.7l-.7-.1zm-1.8-2.2-.5-.8a.4.4 0 0 1 0-.6c.2-.2.5-.2.7 0l.6.8c.1.2 0 .5-.1.6-.2.2-.5.1-.7 0zm-1.7-2.3h-.1l-.5-.9c0-.2 0-.5.3-.6.2-.1.4 0 .6.2l.4.8c.2.2.1.5 0 .6-.3.2-.6.2-.7 0zm-1.4-2.6-.5-.8c0-.2 0-.5.2-.6.3-.2.6 0 .7.2l.4.8c.2.3 0 .5-.2.7-.2 0-.5 0-.6-.3zm-1.3-2.5-.4-.9c0-.2 0-.5.3-.6.3-.1.5 0 .6.2l.3 1c.1.2 0 .5-.3.6-.2 0-.5 0-.5-.3zm-1-2.7-.3-1c-.1-.1 0-.4.3-.5.2 0 .5 0 .6.3l.3.9c0 .2 0 .5-.3.6-.2 0-.5 0-.6-.3zm-1-2.7-.2-1c0-.2.1-.5.4-.5.3 0 .5.1.6.3l.2 1c0 .2-.1.5-.3.5-.3.1-.6 0-.6-.3zm-.5-2.8-.3-.9c0-.3.2-.5.5-.6.2 0 .4.1.5.4l.2.9c0 .2-.1.5-.4.5-.2 0-.5 0-.5-.3zm-.6-2.8v-.3l-.2-.6c0-.3.2-.6.4-.6.3 0 .6.2.6.4v.9c.1.3 0 .6-.3.6-.2 0-.5-.1-.5-.4zm-.4-2.8v-1c-.1-.2 0-.4.3-.5.3 0 .5.2.6.4v1c0 .2-.1.5-.3.5a.4.4 0 0 1-.6-.4zm-.3-2.9v-1 .3c-.2-.3 0-.6.2-.7.2-.1.5 0 .6.3v.1l.1 1c0 .2-.1.4-.4.4-.2.1-.5 0-.5-.4zm-.2-2.8v-1c0-.2.1-.4.4-.4.2 0 .5.2.5.4v1c0 .2-.1.4-.4.4-.3 0-.5-.2-.5-.4zm-.2-2.8v-1c0-.2.2-.5.4-.5.3 0 .5.2.5.5v1c.1.2-.1.4-.3.4-.3 0-.5-.2-.6-.4zm-.1-2.9v-1c0-.2.2-.4.5-.4.2 0 .4.2.4.4v1c0 .3-.1.5-.4.5a.5.5 0 0 1-.5-.5zm0-2.8v-1c0-.2.2-.4.4-.4.3 0 .5.2.5.5v.8c0 .3-.2.6-.4.6-.3 0-.5-.3-.6-.5zm0-2.8-.1-.8v-.2c0-.3.2-.5.5-.5s.5.2.4.5v1c0 .2-.1.4-.4.4a.5.5 0 0 1-.5-.4zm0-2.9v-1c0-.2.1-.4.4-.4.3 0 .5.2.5.5v1c0 .2-.2.4-.5.4a.5.5 0 0 1-.5-.5zm0-2.8v-1c0-.2.2-.4.4-.4.3 0 .5.2.5.4v1c0 .2-.2.5-.5.5a.5.5 0 0 1-.5-.5zm0-2.8V269c0-.2.2-.4.5-.4s.4.2.4.5v1c0 .2-.2.4-.5.4a.5.5 0 0 1-.5-.4zm0-3v-.9c0-.2.3-.4.5-.4.3 0 .5.2.5.5v1c0 .2-.2.4-.5.4s-.4-.2-.4-.5zm.1-2.8v-1c0-.2.3-.3.6-.3.2 0 .4.1.4.4v1c0 .2-.3.5-.5.5s-.5-.3-.5-.6zm.1-2.8.1-1c0-.2.2-.4.5-.4s.4.3.4.5v1c0 .3-.3.4-.5.4-.3 0-.5-.2-.5-.5zm.2-2.8v-1c.1-.2.3-.4.6-.4.2 0 .5.2.4.5v1c0 .2-.3.4-.6.4a.5.5 0 0 1-.4-.5zm.4-2.9.1-1c0-.2.3-.3.6-.3.2 0 .4.3.3.6v.9c-.1.2-.4.4-.6.4-.3-.1-.5-.3-.4-.6zm.6-2.8.2-.9c.1-.3.4-.4.6-.3.2 0 .4.3.3.5l-.3 1c0 .2-.3.3-.5.3-.3 0-.5-.4-.3-.6zm.8-2.8.5-.8c.1-.2.4-.3.7-.2.2.1.3.4.1.7l-.4.8c-.1.2-.4.3-.7.2-.2-.2-.3-.4-.2-.7zm1.6-2.5.8-.7h.6c.2.3.2.6 0 .7l-.7.7c-.2.2-.5.2-.7 0-.2-.3-.1-.5 0-.7zm2.5-1.8.8-.2c.3 0 .6 0 .6.3.1.3 0 .5-.3.6l-.9.3a.5.5 0 0 1-.6-.4c0-.2.1-.5.4-.6zm6.7 79-.5.7h-.7a.5.5 0 0 1 0-.7l.6-.7c.1-.2.5-.2.7 0v.7zm-1.8 2-.2.2-.5.5c-.2.2-.5.2-.6 0-.3-.1-.3-.4 0-.6l.5-.5v-.2c.2-.1.6-.2.8 0v.7zm-2 2.1h-.1l-.7.6c-.2.2-.5.2-.7 0a.5.5 0 0 1 .1-.7l.6-.5h.1c.2-.2.5-.2.7 0v.6zm-2.2 1.8-.8.6c-.2.2-.5.1-.6 0-.2-.3-.2-.6 0-.7l.7-.6c.3-.2.6-.2.7 0 .2.3.1.5 0 .7zm-2.4 1.7-1 .4c-.2.1-.4 0-.5-.2-.1-.3 0-.5.2-.6l.8-.5c.2 0 .5 0 .6.2.1.3 0 .6-.1.7zm-2.8 1.2-1 .1c-.1.1-.4 0-.4-.4-.1-.2 0-.4.4-.5l.9-.1c.3 0 .5 0 .5.3s-.1.6-.4.6zm-3 .3-.9-.2a.5.5 0 0 1-.3-.6c0-.2.3-.4.6-.4l.9.3c.3 0 .4.3.3.6 0 .2-.3.4-.6.3zm-2.8-1-.8-.5c-.2-.1-.2-.4-.1-.6.2-.2.5-.3.7-.1l.8.5c.2.1.2.4.1.7-.2.2-.5.2-.7 0zm-2.3-1.8-.6-.7c-.2-.1-.1-.4 0-.6.2-.2.6-.2.7 0l.7.7-.1.7c-.2.2-.5.2-.7 0zm-1.8-2.2-.5-.8c-.1-.3 0-.6.2-.7.2-.1.5 0 .6.2l.5.8c.1.3 0 .6-.2.7-.2 0-.5 0-.6-.2zm-1.4-2.5-.4-.7v-.2c-.2-.2 0-.5.2-.6.2 0 .5 0 .6.3l.4.7c.1.3 0 .6-.2.7-.2.1-.5 0-.6-.2zm-1.2-2.6-.3-.9c-.2-.3 0-.5.2-.6.2-.1.5 0 .6.2l.4.9c0 .2 0 .5-.3.7-.2 0-.5-.1-.6-.3zm-1-2.7-.3-.9c-.1-.2 0-.5.3-.6.2 0 .5 0 .5.3l.3 1c.2.1 0 .4-.3.5-.2.1-.5 0-.5-.3zm-1-2.7-.2-.9c0-.2 0-.5.3-.6.2 0 .5 0 .6.3l.3 1c0 .2-.1.4-.3.5-.3.1-.6 0-.6-.3zm-.8-2.7-.2-1c0-.2.1-.4.4-.5.2 0 .5 0 .5.3l.3 1c0 .2-.1.5-.4.5a.5.5 0 0 1-.6-.3zm-.6-2.8-.2-.9c-.1-.2 0-.5.3-.6.2 0 .5.1.6.4l.2 1c0 .2 0 .4-.4.4-.2.1-.5 0-.5-.3zm-.7-2.8-.1-.9c-.1-.3 0-.5.3-.6.3 0 .5.2.6.4l.2 1c0 .2-.1.5-.4.5-.3 0-.5 0-.6-.4zm-.5-2.8-.2-.9c0-.2.1-.5.4-.5.3 0 .5 0 .6.3l.2 1c0 .2-.2.5-.5.5-.2 0-.4-.1-.5-.4zm-.5-2.8v-1c-.1-.2 0-.4.3-.5.3 0 .5.2.6.4v1c0 .3-.1.5-.3.5-.3 0-.6-.1-.6-.4zm-.3-2.8-.1-1c-.1-.2 0-.4.4-.4.2-.1.4 0 .5.4l.1 1c0 .1-.2.4-.4.4-.3 0-.5-.1-.5-.4zm-.4-2.8v-1c-.1-.2 0-.4.3-.5.3 0 .5.2.6.4v1c0 .2-.1.5-.3.5a.4.4 0 0 1-.6-.4zm-.3-2.8-.1-1c-.1-.2 0-.5.4-.5.2 0 .4.2.5.5l.1.8c0 .3-.2.6-.4.6-.3 0-.5-.1-.5-.4zm-.4-2.8v-1c0-.3.1-.5.4-.5.3 0 .5.2.5.5v.9c0 .2-.1.4-.3.5-.3 0-.6-.2-.6-.4zm-.1-3v-.9c0-.2.1-.4.4-.4.3 0 .5.2.5.4v1c0 .2-.2.5-.4.5a.5.5 0 0 1-.5-.5zm-.1-2.7v-1c0-.2.2-.5.4-.5s.5.2.5.5v1c0 .2-.1.4-.4.4a.5.5 0 0 1-.5-.4zm-.1-2.9v-1c0-.2.1-.4.4-.4.3 0 .5.2.5.5v1c0 .2-.2.4-.5.4a.5.5 0 0 1-.4-.5zm-.2-2.8v-1c0-.2.2-.4.5-.4s.5.1.5.4v1c0 .2-.2.5-.4.5-.3 0-.6-.2-.6-.5zm.1-2.8v-1c0-.3.2-.5.5-.5s.5.3.5.5v1c-.1.2-.3.4-.6.4-.2 0-.5-.2-.4-.4zm.1-2.9v-1c0-.2.3-.4.6-.4.2 0 .4.2.4.5v1c0 .2-.3.4-.6.4-.2 0-.4-.2-.4-.5zm.1-2.8.1-1c0-.3.2-.4.5-.4.2 0 .4.2.4.4v1c0 .3-.2.5-.5.5s-.5-.3-.5-.5zm.2-2.9v-1c0-.2.3-.4.6-.4.2 0 .4.3.4.6l-.1.1v.7c0 .3-.2.5-.5.5a.5.5 0 0 1-.4-.5zm.3-2.8.1-1c0-.2.3-.4.6-.3.2 0 .4.2.3.5l-.1 1c0 .2-.2.3-.5.3s-.4-.2-.4-.5zm.4-2.8v-1c.1-.2.4-.4.6-.4.3 0 .5.3.4.6v.9c-.1.2-.4.4-.6.4-.3 0-.5-.3-.4-.5zm.4-2.9.1-.9c0-.2.3-.4.5-.4.3 0 .4.3.4.6v1c-.1.2-.4.3-.7.3-.2 0-.4-.3-.3-.6zm.4-2.8.2-.9c0-.3.3-.4.6-.3.3 0 .4.3.4.5l-.3 1c0 .2-.3.4-.5.3-.3 0-.4-.3-.4-.6zm.6-2.8.3-.9c0-.2.3-.4.5-.3.3 0 .4.3.4.5l-.2 1c0 .2-.4.4-.6.3a.5.5 0 0 1-.4-.6zm.8-2.7.2-1c.1-.2.4-.3.6-.2.3 0 .5.3.3.6l-.2.9c0 .2-.4.4-.6.3-.2-.1-.4-.3-.3-.6zm.8-2.8.3-.8c.2-.3.4-.4.7-.3.2 0 .3.4.2.6l-.3.9c0 .2-.3.4-.6.2-.3 0-.4-.3-.3-.6zm1-2.6.2-.5.2-.4c.1-.2.4-.4.6-.2.2 0 .3.4.2.6v.2l-.3.6c0 .3-.4.4-.6.3-.3 0-.4-.4-.3-.6zm1.2-2.6.4-.9c.1-.2.4-.3.6-.2.3 0 .4.4.3.6l-.4.9c-.2.2-.5.3-.7.2-.2 0-.3-.4-.2-.6zm1.3-2.6.6-.8c0-.2.4-.3.6-.2.2.2.3.5.1.7l-.4.8c-.2.3-.5.3-.7.2-.2-.1-.3-.4-.2-.7zm1.7-2.4.6-.7c.1-.2.4-.2.6 0 .3.1.3.4 0 .6l-.5.7c-.2.3-.5.3-.7 0-.1 0-.2-.3 0-.6zm2-2.1.6-.6c.2-.2.5-.2.7 0 .2.2.2.5 0 .7l-.7.6c-.3.2-.6.2-.7 0-.2-.2-.2-.5 0-.7zm2.2-1.8.9-.4c.2-.2.5-.1.6.1.1.3 0 .6-.2.7l-.7.5c-.3 0-.6 0-.7-.2-.2-.3 0-.6.1-.7zm2.7-1 .9-.3h.2c.2 0 .5.2.5.4 0 .3-.3.5-.5.5h-.1.2l-.9.3a.5.5 0 0 1-.5-.4c-.1-.2 0-.5.2-.6zm3-.3h.6l.5.1c.2.1.4.4.3.6-.1.3-.3.5-.6.4l-.5-.2h.1-.4a.5.5 0 0 1-.5-.5c0-.2.3-.4.5-.4zm2.9.7h.2l.7.4c.3.1.3.4.2.6-.1.3-.4.4-.6.3l-.7-.4h-.1c-.2 0-.4-.3-.3-.6 0-.3.3-.4.6-.3zm2.6 1.3.2.1c.3.1.4.4.3.6-.2.3-.5.4-.7.3l-.2-.2c-.3-.1-.4-.4-.3-.6.2-.2.5-.3.7-.2z"/><text style="line-height:125%;text-align:start" font-family="Times New Roman" font-size="15.1" font-stretch="Condensed" font-weight="400" letter-spacing="0" transform="translate(526.3 301.4)" word-spacing="0"><tspan x="0" y="0"><tspan fill="#00f" dx="0" dy="0">-</tspan><tspan fill="#00f" dx="0" dy="0">3</tspan></tspan></text><text style="line-height:125%;text-align:start" x="-34" y="-20.8" font-family="Times New Roman" font-size="15.1" font-stretch="Condensed" font-weight="400" letter-spacing="0" transform="translate(526.3 301.4)" word-spacing="0"><tspan x="-34" y="-20.8"><tspan dx="0" dy="0">e</tspan><tspan dx="0" dy="0" font-size="9.4">0</tspan><tspan dx="0" dy="0">&apos;</tspan></tspan></text><text style="line-height:125%;text-align:start" x="-2.8" y="-20.8" font-family="Times New Roman" font-size="15.1" font-stretch="Condensed" font-weight="400" letter-spacing="0" transform="translate(526.3 301.4)" word-spacing="0"><tspan x="-2.8" y="-20.8"><tspan dx="0" dy="0">e</tspan><tspan dx="0" dy="0" font-size="9.4">1</tspan><tspan dx="0" dy="0">&apos;</tspan></tspan></text><text style="line-height:125%;text-align:start" x="-54.8" y="-13.2" font-family="Times New Roman" font-size="15.1" font-stretch="Condensed" font-weight="400" letter-spacing="0" transform="translate(526.3 301.4)" word-spacing="0"><tspan x="-54.8" y="-13.2"><tspan dx="0" dy="0">e</tspan><tspan dx="0" dy="0" font-size="9.4">2</tspan></tspan></text><path stroke="#000" stroke-linejoin="bevel" stroke-width=".9" d="m212.2 469.8 14.2.4c.3 0 .5.2.4.5 0 .2-.1.4-.4.4l-14.2-.3a.5.5 0 0 1-.5-.5c0-.2.2-.5.5-.5zm22.7.4 9.2-.1 5-.1c.2 0 .4.1.4.4 0 .3-.2.5-.4.5l-5 .1-9.2.1a.5.5 0 0 1-.5-.4c0-.3.2-.5.5-.5zm22.6-.5h2.2l12-.8c.2 0 .5.2.5.5 0 .2-.2.4-.5.4l-12 .8h-2.1c-.3 0-.5-.2-.5-.4 0-.3.2-.5.4-.5zm22.7-1.5 10-.8 4-.5c.3 0 .5.2.5.5.1.2 0 .4-.4.4l-4 .5-10 .9a.6.6 0 0 1-.6-.4c0-.3.2-.6.5-.6zm22.5-2.3 2.3-.2 11.7-1.7c.2 0 .5.1.5.4.1.2 0 .5-.4.5l-11.7 1.7-2.3.3a.6.6 0 0 1-.6-.4c0-.3.2-.5.5-.6zm22.4-3.3 8.7-1.5 5.2-1c.3-.1.5 0 .6.3 0 .2-.2.5-.4.5l-5.2 1-8.7 1.6a.5.5 0 0 1-.6-.3c0-.3.1-.6.4-.6zm22.3-4.3h.3l13.4-3.2c.3 0 .6.1.6.3 0 .3-.1.6-.3.6l-13.5 3.2h-.4c-.3 0-.5 0-.6-.3 0-.3.2-.5.5-.6zm22-5.4 5-1.4 8.5-2.6c.2 0 .5.2.6.4 0 .2 0 .5-.3.6l-8.4 2.5-5.2 1.4a.5.5 0 0 1-.6-.3c0-.3 0-.5.3-.6zm21.6-6.5 8.7-3 4.7-1.8c.2 0 .5 0 .5.3.2.2 0 .5-.2.6l-4.7 1.8-8.7 3c-.2 0-.5 0-.6-.3 0-.2 0-.5.3-.6zm21.3-7.8 11-4.6 2-.9c.3-.1.5 0 .6.2.1.2 0 .5-.2.6l-2 1-11 4.6c-.3.1-.6 0-.7-.2 0-.3 0-.6.3-.7zm20.7-9 1.5-.8 10.6-5.4.5-.3c.3-.1.5 0 .7.1.1.3 0 .6-.2.7l-.6.4-10.6 5.4-1.5.6c-.2.2-.5 0-.6-.2-.1-.2 0-.5.2-.6zm20-10.7 2.3-1.3 9.6-6 .2-.1c.1-.2.4-.1.6.1.1.3 0 .5-.1.7h-.2l-9.7 6.1-2.2 1.3c-.3.1-.5 0-.7-.2 0-.2 0-.4.2-.6zm19-12.2 2-1.4 8.7-6.6.6-.6c.2-.1.5 0 .7.1v.7l-.8.6-8.6 6.6-2 1.3c-.2.2-.5.1-.7-.1-.1-.2 0-.5.1-.6zm17.8-14 .8-.8 7.5-7 1.9-2c.1-.2.4-.2.7 0v.6l-2 2-7.4 7.2-.8.7c-.3.1-.6.1-.8 0a.5.5 0 0 1 .1-.7zm16-16 5.3-6.5 3.4-4.6c.2-.2.5-.3.6-.2.3.2.3.5.2.7l-3.4 4.7-5.4 6.4c-.2.3-.5.3-.7.1a.4.4 0 0 1 0-.6zm13.4-18.2 2.4-4 4.3-8 .1-.3c.1-.3.4-.4.7-.3.2.2.2.4.2.6l-.1.3-4.4 8.2-2.4 4c-.2.2-.4.3-.7.2-.2-.2-.3-.4-.1-.7zm10.2-20.1v-.3l3-8.5 1.1-4.7c0-.2.4-.4.6-.3.2 0 .4.3.3.6l-1.1 4.7-3 8.6v.2c-.2.3-.5.4-.7.3-.2 0-.3-.4-.2-.6zm5.8-21.7.7-4.5c0-.3.3-.4.6-.4.2 0 .4.2.3.5l-.7 4.5c0 .2-.2.4-.5.4s-.4-.3-.4-.5z"/><path fill-rule="evenodd" d="m213 473.9-10.3-4 10.5-3-.2 7zm319.9-161 4.1-10.2 2.8 10.6-7-.4z"/><path fill="none" stroke="#000" stroke-linecap="round" stroke-linejoin="round" stroke-width=".9" d="m452.7 255.8-14.3-14.3-3.6 3.6 7.1 7.1h-46.4v7.2h46.4l-7.1 7.1 3.6 3.6 14.3-14.3z"/><text style="line-height:125%;text-align:start" font-family="Times New Roman" font-size="17.9" font-stretch="Condensed" font-weight="700" letter-spacing="0" transform="translate(375.1 260.8)" word-spacing="0"><tspan x="0" y="0"><tspan dx="0" dy="0">R</tspan></tspan></text><text style="line-height:125%;text-align:start" x="83.1" font-family="Times New Roman" font-size="17.9" font-stretch="Condensed" font-weight="700" letter-spacing="0" transform="translate(375.1 260.8)" word-spacing="0"><tspan x="83.1" y="0"><tspan dx="0" dy="0">P</tspan></tspan></text><path fill="none" stroke="red" stroke-linecap="round" stroke-linejoin="round" stroke-width=".9" d="M172.5 57.4c0-2.1-2.1-3.9-4.7-3.9s-4.7 1.8-4.7 3.9c0 2.1 2.1 3.9 4.7 3.9s4.7-1.8 4.7-3.9"/><path fill="red" fill-rule="evenodd" d="M149.1 106c0-2.2-2.1-4-4.7-4s-4.7 1.8-4.7 4c0 2 2 3.8 4.7 3.8 2.6 0 4.7-1.7 4.7-3.9z"/><path fill="none" stroke="red" stroke-linecap="round" stroke-linejoin="round" stroke-width=".9" d="M149.1 106c0-2.2-2.1-4-4.7-4s-4.7 1.8-4.7 4c0 2 2 3.8 4.7 3.8 2.6 0 4.7-1.7 4.7-3.9"/><path fill="red" fill-rule="evenodd" d="M195.9 106c0-2.2-2-4-4.7-4-2.6 0-4.6 1.8-4.6 4 0 2 2 3.8 4.6 3.8 2.6 0 4.7-1.7 4.7-3.9z"/><path fill="none" stroke="red" stroke-linecap="round" stroke-linejoin="round" stroke-width=".9" d="M195.9 106c0-2.2-2-4-4.7-4-2.6 0-4.6 1.8-4.6 4 0 2 2 3.8 4.6 3.8 2.6 0 4.7-1.7 4.7-3.9m-23.4 38.8c0-2-2.1-3.8-4.7-3.8s-4.7 1.7-4.7 3.8c0 2.2 2.1 4 4.7 4s4.7-1.8 4.7-4"/><path fill="red" fill-rule="evenodd" d="M172.5 183.6c0-2.1-2.1-3.9-4.7-3.9s-4.7 1.8-4.7 3.9c0 2.1 2.1 3.9 4.7 3.9s4.7-1.8 4.7-3.9z"/><path fill="none" stroke="red" stroke-linecap="round" stroke-linejoin="round" stroke-width=".9" d="M172.5 183.6c0-2.1-2.1-3.9-4.7-3.9s-4.7 1.8-4.7 3.9c0 2.1 2.1 3.9 4.7 3.9s4.7-1.8 4.7-3.9m0 48.5c0-2.1-2.1-3.9-4.7-3.9s-4.7 1.8-4.7 4c0 2 2.1 3.8 4.7 3.8s4.7-1.7 4.7-3.9"/><path fill="none" stroke="#000" stroke-linecap="round" stroke-linejoin="round" stroke-width=".9" d="M143.5 109.7 128 160.3l39 68m26.2-118.8 16.7 50.8-42.7 68m-22.8-118.5 22.4 31.2"/><path fill="none" stroke="#000" stroke-linecap="round" stroke-linejoin="round" stroke-width=".3" d="M168.3 148.6v31.2m-.5 7.7-1.5 39.7"/><path fill="none" stroke="#000" stroke-linecap="round" stroke-linejoin="round" stroke-width=".9" d="M192.2 109.7 167.3 141m25.8-30.8V151l-24.3 28.8m-25.5-69.3V151l24.8 28.7m24.1-77.5-23.9-41-23 41"/><text style="line-height:125%;text-align:start" font-family="Times New Roman" font-size="15.1" font-stretch="Condensed" font-weight="400" letter-spacing="0" transform="translate(175.7 60.5)" word-spacing="0"><tspan x="0" y="0"><tspan dx="0" dy="0">b</tspan></tspan></text><text style="line-height:125%;text-align:start" x="-25.5" y="51" font-family="Times New Roman" font-size="15.1" font-stretch="Condensed" font-weight="400" letter-spacing="0" transform="translate(175.7 60.5)" word-spacing="0"><tspan x="-25.5" y="51"><tspan dx="0" dy="0">c</tspan></tspan></text><text style="line-height:125%;text-align:start" x=".9" y="51" font-family="Times New Roman" font-size="15.1" font-stretch="Condensed" font-weight="400" letter-spacing="0" transform="translate(175.7 60.5)" word-spacing="0"><tspan x=".9" y="51"><tspan dx="0" dy="0">d</tspan></tspan></text><text style="line-height:125%;text-align:start" x="-11.3" y="74.6" font-family="Times New Roman" font-size="15.1" font-stretch="Condensed" font-weight="400" letter-spacing="0" transform="translate(175.7 60.5)" word-spacing="0"><tspan x="-11.3" y="74.6"><tspan dx="0" dy="0">f</tspan></tspan></text><text style="line-height:337.346261%;text-align:start" x="-1.9" y="125.7" font-family="Times New Roman" font-size="15.1" font-stretch="Condensed" font-weight="400" letter-spacing="0" transform="translate(175.7 60.5)" word-spacing="0"><tspan x="-1.9" y="125.7"><tspan dx="0" dy="0">g</tspan></tspan><tspan x="-.9" y="176.7"><tspan dx="0" dy="0">h</tspan></tspan></text><text style="line-height:125%;text-align:start" x="-52.9" y="85" font-family="Times New Roman" font-size="15.1" font-stretch="Condensed" font-weight="400" letter-spacing="0" transform="translate(175.7 60.5)" word-spacing="0"><tspan x="-52.9" y="85"><tspan fill="#00f" dx="0" dy="0">3</tspan></tspan></text><text style="line-height:125%;text-align:start" x="-31.2" y="89.8" font-family="Times New Roman" font-size="15.1" font-stretch="Condensed" font-weight="400" letter-spacing="0" transform="translate(175.7 60.5)" word-spacing="0"><tspan x="-31.2" y="89.8"><tspan fill="#00f" dx="0" dy="0">4</tspan></tspan></text><text style="line-height:125%;text-align:start" x="7.6" y="89.8" font-family="Times New Roman" font-size="15.1" font-stretch="Condensed" font-weight="400" letter-spacing="0" transform="translate(175.7 60.5)" word-spacing="0"><tspan x="7.6" y="89.8"><tspan fill="#00f" dx="0" dy="0">4</tspan></tspan></text><text style="line-height:125%;text-align:start" x="27.4" y="85" font-family="Times New Roman" font-size="15.1" font-stretch="Condensed" font-weight="400" letter-spacing="0" transform="translate(175.7 60.5)" word-spacing="0"><tspan x="27.4" y="85"><tspan fill="#00f" dx="0" dy="0">3</tspan></tspan></text><text style="line-height:125%;text-align:start" x="-8.5" y="106.8" font-family="Times New Roman" font-size="15.1" font-stretch="Condensed" font-weight="400" letter-spacing="0" transform="translate(175.7 60.5)" word-spacing="0"><tspan x="-8.5" y="106.8"><tspan fill="#00f" dx="0" dy="0">5</tspan></tspan></text><text style="line-height:125%;text-align:start" x="-1.9" y="35" font-family="Times New Roman" font-size="15.1" font-stretch="Condensed" font-weight="400" letter-spacing="0" transform="translate(175.7 60.5)" word-spacing="0"><tspan x="-1.9" y="35"><tspan fill="#00f" dx="0" dy="0">4</tspan></tspan></text><path fill="red" stroke="red" stroke-linejoin="bevel" stroke-width=".9" d="m167.9 63.2-8.9 2.4-8 2.7-4.6 1.8c-.4.2-.8 0-1-.4-.1-.4 0-.8.5-1l4.5-2 8.2-2.6 8.9-2.4c.4-.1.8.1 1 .5 0 .5-.2.9-.6 1zm-33.5 13-3.9 2.3-5.5 4.3-5 4.6-2.8 3c-.3.4-.7.4-1.1.1a.7.7 0 0 1 0-1l2.9-3.2 5-4.7 5.7-4.3 4-2.4c.3-.2.7-.1 1 .2.2.4 0 .8-.3 1zm-25 25.2-1.2 2-3 6-2.4 6.6-1.9 6.1c0 .4-.5.7-1 .6a.8.8 0 0 1-.4-1l1.8-6.2 2.6-6.7 3-6.2 1.2-2c.2-.3.7-.4 1-.3.4.3.5.7.3 1.1zm-11.1 34-.4 2.4-1 8-.4 8.2v3.9c0 .4-.4.7-.8.7a.8.8 0 0 1-.7-.7v-4l.5-8.2.9-8.2.3-2.4c.2-.4.5-.6 1-.6.3 0 .6.4.6.9zm-1.2 36 1.1 6.9 2.5 8.6v-.1l2.7 6c.2.3 0 .8-.3 1-.4.1-.9 0-1-.5l-2.8-5.9-2.6-8.9-1-7c-.1-.4.1-.8.6-.8.4 0 .7.2.8.6zm13.9 32.3 3.7 4 5.4 4.4 5.8 3.7 2.7 1.5c.4.1.6.6.4 1-.3.3-.7.5-1 .3l-2.9-1.5-6-4-5.5-4.4-3.7-4a.7.7 0 0 1 0-1c.4-.4.8-.3 1 0zm30 19 4.7 1.5 7 1.8 6.9 1.2 3.3.3c.4 0 .7.4.7.8s-.4.7-.8.7l-3.5-.3-7-1.2-7-1.8-4.8-1.6c-.4-.1-.7-.5-.5-1 .1-.3.6-.5 1-.4z"/><text style="line-height:125%;text-align:start" font-family="Times New Roman" font-size="15.1" font-stretch="Condensed" font-weight="400" letter-spacing="0" transform="translate(154 95.4)" word-spacing="0"><tspan x="0" y="0"><tspan fill="#00f" dx="0" dy="0">4</tspan></tspan></text><text style="line-height:125%;text-align:start" x="13.2" y="112.4" font-family="Times New Roman" font-size="15.1" font-stretch="Condensed" font-weight="400" letter-spacing="0" transform="translate(154 95.4)" word-spacing="0"><tspan x="13.2" y="112.4"><tspan fill="#00f" dx="0" dy="0">4</tspan></tspan></text><path fill="none" stroke="#00f" stroke-linecap="round" stroke-linejoin="round" stroke-width="1.5" d="m148.6 164 14.5 2.5m-4.7-8.2-5 13.8m30.2-17.9 9 11.8m2.3-8.7-13.7 5.6"/><path fill="red" fill-rule="evenodd" d="M92.7 123.7v10.7h12.8v-10.7H92.7z"/><path fill="none" stroke="red" stroke-linecap="round" stroke-linejoin="round" stroke-width=".9" d="M92.7 134.4h12.8v-10.7H92.7v10.7z"/><text style="line-height:125%;text-align:start" font-family="Times New Roman" font-size="15.1" font-stretch="Condensed" font-weight="700" letter-spacing="0" transform="translate(86 87)" word-spacing="0"><tspan x="0" y="0"><tspan dx="0" dy="0">+</tspan><tspan dx="0" dy="0" font-family="宋体" font-stretch="Normal">∞</tspan></tspan></text><text style="line-height:125%;text-align:start" x="4.7" y="140.8" font-family="Times New Roman" font-size="15.1" font-stretch="Condensed" font-weight="700" letter-spacing="0" transform="translate(86 87)" word-spacing="0"><tspan x="4.7" y="140.8"><tspan dx="0" dy="0">+</tspan><tspan dx="0" dy="0" font-family="宋体" font-stretch="Normal">∞</tspan></tspan></text><path fill="none" stroke="red" stroke-linecap="round" stroke-linejoin="round" stroke-width=".9" d="M171.6 261c0-2.2-2.2-4-4.9-4-2.6 0-4.8 1.8-4.8 4 0 2.3 2.2 4.1 4.8 4.1 2.7 0 4.9-1.8 4.9-4"/><path fill="red" fill-rule="evenodd" d="M147.6 312c0-2.3-2.1-4-4.8-4-2.7 0-4.8 1.7-4.8 4 0 2.2 2.1 4 4.8 4 2.7 0 4.8-1.8 4.8-4z"/><path fill="none" stroke="red" stroke-linecap="round" stroke-linejoin="round" stroke-width=".9" d="M147.6 312c0-2.3-2.1-4-4.8-4-2.7 0-4.8 1.7-4.8 4 0 2.2 2.1 4 4.8 4 2.7 0 4.8-1.8 4.8-4"/><path fill="red" fill-rule="evenodd" d="M195.5 312c0-2.3-2.2-4-4.8-4-2.7 0-4.8 1.7-4.8 4 0 2.2 2.1 4 4.8 4 2.6 0 4.8-1.8 4.8-4z"/><path fill="none" stroke="red" stroke-linecap="round" stroke-linejoin="round" stroke-width=".9" d="M195.5 312c0-2.3-2.2-4-4.8-4-2.7 0-4.8 1.7-4.8 4 0 2.2 2.1 4 4.8 4 2.6 0 4.8-1.8 4.8-4m-23.9 40.7c0-2.2-2.2-4-4.9-4-2.6 0-4.8 1.8-4.8 4 0 2.3 2.2 4.1 4.8 4.1 2.7 0 4.9-1.8 4.9-4m0 40.7c0-2.3-2.2-4-4.9-4-2.6 0-4.8 1.7-4.8 4 0 2.2 2.2 4 4.8 4 2.7 0 4.9-1.8 4.9-4"/><path fill="red" fill-rule="evenodd" d="M171.6 444.4c0-2.2-2.2-4-4.9-4-2.6 0-4.8 1.8-4.8 4 0 2.3 2.2 4.1 4.8 4.1 2.7 0 4.9-1.8 4.9-4z"/><path fill="none" stroke="red" stroke-linecap="round" stroke-linejoin="round" stroke-width=".9" d="M171.6 444.4c0-2.2-2.2-4-4.9-4-2.6 0-4.8 1.8-4.8 4 0 2.3 2.2 4.1 4.8 4.1 2.7 0 4.9-1.8 4.9-4"/><path fill="none" stroke="#000" stroke-linecap="round" stroke-linejoin="round" stroke-width=".9" d="M141.9 316 126 369l39.9 71.4m26.8-124.7 17.1 53.3-43.7 71.4M142.8 316l23 32.8"/><path fill="none" stroke="#000" stroke-linecap="round" stroke-linejoin="round" stroke-width=".3" d="m167.2 356.8.2 32.7m-.7 8.1-1.5 41.7"/><path fill="none" stroke="#000" stroke-linecap="round" stroke-linejoin="round" stroke-width=".9" d="m191.8 316-25.6 32.7m26.4-32.2v42.7l-24.9 30.3m-26.1-72.7v42.4l25.5 30.2m24.7-81.4-24.6-43-23.5 43"/><text style="line-height:125%;text-align:start" font-family="Times New Roman" font-size="15.1" font-stretch="Condensed" font-weight="400" letter-spacing="0" transform="translate(176.7 264.6)" word-spacing="0"><tspan x="0" y="0"><tspan dx="0" dy="0">b</tspan></tspan></text><text style="line-height:125%;text-align:start" x="-27.4" y="52.9" font-family="Times New Roman" font-size="15.1" font-stretch="Condensed" font-weight="400" letter-spacing="0" transform="translate(176.7 264.6)" word-spacing="0"><tspan x="-27.4" y="52.9"><tspan dx="0" dy="0">c</tspan></tspan></text><text style="line-height:125%;text-align:start" x="-.9" y="52.9" font-family="Times New Roman" font-size="15.1" font-stretch="Condensed" font-weight="400" letter-spacing="0" transform="translate(176.7 264.6)" word-spacing="0"><tspan x="-.9" y="52.9"><tspan dx="0" dy="0">d</tspan></tspan></text><text style="line-height:125%;text-align:start" x="-13.2" y="78.4" font-family="Times New Roman" font-size="15.1" font-stretch="Condensed" font-weight="400" letter-spacing="0" transform="translate(176.7 264.6)" word-spacing="0"><tspan x="-13.2" y="78.4"><tspan dx="0" dy="0">f</tspan></tspan></text><text style="line-height:356.08772%;text-align:start" x="-3.8" y="131.3" font-family="Times New Roman" font-size="15.1" font-stretch="Condensed" font-weight="400" letter-spacing="0" transform="translate(176.7 264.6)" word-spacing="0"><tspan x="-3.8" y="131.3"><tspan dx="0" dy="0">g</tspan></tspan><tspan x="-2.8" y="185.2"><tspan dx="0" dy="0">h</tspan></tspan></text><text style="line-height:125%;text-align:start" x="-56.7" y="88.8" font-family="Times New Roman" font-size="15.1" font-stretch="Condensed" font-weight="400" letter-spacing="0" transform="translate(176.7 264.6)" word-spacing="0"><tspan x="-56.7" y="88.8"><tspan fill="#00f" dx="0" dy="0">3</tspan></tspan></text><text style="line-height:125%;text-align:start" x="-34" y="93.5" font-family="Times New Roman" font-size="15.1" font-stretch="Condensed" font-weight="400" letter-spacing="0" transform="translate(176.7 264.6)" word-spacing="0"><tspan x="-34" y="93.5"><tspan fill="#00f" dx="0" dy="0">4</tspan></tspan></text><text style="line-height:125%;text-align:start" x="5.7" y="93.5" font-family="Times New Roman" font-size="15.1" font-stretch="Condensed" font-weight="400" letter-spacing="0" transform="translate(176.7 264.6)" word-spacing="0"><tspan x="5.7" y="93.5"><tspan fill="#00f" dx="0" dy="0">4</tspan></tspan></text><text style="line-height:125%;text-align:start" x="26.5" y="88.8" font-family="Times New Roman" font-size="15.1" font-stretch="Condensed" font-weight="400" letter-spacing="0" transform="translate(176.7 264.6)" word-spacing="0"><tspan x="26.5" y="88.8"><tspan fill="#00f" dx="0" dy="0">3</tspan></tspan></text><text style="line-height:125%;text-align:start" x="-11.3" y="116.2" font-family="Times New Roman" font-size="15.1" font-stretch="Condensed" font-weight="400" letter-spacing="0" transform="translate(176.7 264.6)" word-spacing="0"><tspan x="-11.3" y="116.2"><tspan fill="#00f" dx="0" dy="0">5</tspan></tspan></text><text style="line-height:125%;text-align:start" x="-3.8" y="36.9" font-family="Times New Roman" font-size="15.1" font-stretch="Condensed" font-weight="400" letter-spacing="0" transform="translate(176.7 264.6)" word-spacing="0"><tspan x="-3.8" y="36.9"><tspan fill="#00f" dx="0" dy="0">4</tspan></tspan></text><path fill="red" stroke="red" stroke-linejoin="bevel" stroke-width=".9" d="m166.8 267-8.9 2.5-8 2.9-4.5 1.9c-.4.1-.8 0-1-.4-.1-.4 0-.8.4-1l4.6-2 8.1-2.8 8.9-2.5c.4-.1.8 0 .9.5.1.4-.1.8-.5 1zm-33.3 13.6-4 2.6-5.6 4.5-5 4.8-2.3 2.7c-.3.3-.7.3-1 0-.4-.2-.4-.7-.1-1l2.4-2.8 5.1-5 5.6-4.4 4.1-2.7c.4-.2.8-.1 1 .2.3.4.2.8-.2 1zM109 306.2l-1.8 3.1-3 6.4-2.5 6.9-1.1 4.3c-.2.4-.6.7-1 .6-.4-.2-.6-.6-.5-1l1.2-4.5 2.6-7 3-6.4 1.8-3.2c.2-.3.6-.4 1-.3.4.3.5.7.3 1.1zm-11.3 34-.8 5.3-.9 8.5-.5 8.5v.1c0 .4-.3.8-.7.8-.4 0-.7-.4-.7-.8v-.1l.4-8.7 1-8.5.7-5.4c.1-.4.5-.7.9-.6.4 0 .7.4.6.9zm-2 36 .3 3.6 1.2 8.3 2.5 9v-.2l.4 1.1c.2.4 0 .9-.3 1-.4.2-.8 0-1-.4l-.5-1v-.2l-2.5-9.2-1.3-8.3-.2-3.7c0-.4.3-.7.7-.7.4 0 .8.2.8.7zm10.7 33.8 1.6 2.5v-.1l5.8 6.5 5.3 4.5 3.1 2.2c.4.2.4.7.2 1-.2.4-.7.4-1 .2l-3.3-2.3-5.4-4.6-5.9-6.5v-.1l-1.7-2.5c-.2-.4-.1-.8.2-1 .4-.3.9-.2 1.1.2zm27.5 22.1 4 1.8 6.8 2.3 7 1.8 3.7.7c.4 0 .7.4.6.8-.1.5-.5.8-.9.7l-3.9-.7-7-1.8-7-2.5-3.9-1.7c-.4-.2-.6-.6-.4-1 .2-.4.7-.5 1-.4z"/><text style="line-height:125%;text-align:start" font-family="Times New Roman" font-size="15.1" font-stretch="Condensed" font-weight="400" letter-spacing="0" transform="translate(152.1 301.4)" word-spacing="0"><tspan x="0" y="0"><tspan fill="#00f" dx="0" dy="0">4</tspan></tspan></text><text style="line-height:125%;text-align:start" x="13.2" y="117.2" font-family="Times New Roman" font-size="15.1" font-stretch="Condensed" font-weight="400" letter-spacing="0" transform="translate(152.1 301.4)" word-spacing="0"><tspan x="13.2" y="117.2"><tspan fill="#00f" dx="0" dy="0">4</tspan></tspan></text><path fill="none" stroke="#00f" stroke-linecap="round" stroke-linejoin="round" stroke-width="1.5" d="m134.1 391 9.2 12.2m2.4-9.2-14 6.2m59-7 9.1 12.3m2.5-9.2-14 6.1"/><text style="line-height:125%;text-align:start" font-family="Times New Roman" font-size="15.1" font-stretch="Condensed" font-weight="700" letter-spacing="0" transform="translate(73.7 337.3)" word-spacing="0"><tspan x="0" y="0"><tspan dx="0" dy="0">+</tspan><tspan dx="0" dy="0" font-family="宋体" font-stretch="Normal">∞</tspan></tspan></text><path fill="none" stroke="#00f" stroke-linecap="round" stroke-linejoin="round" stroke-width="1.5" d="m162.2 358.5 9.1 12.2m2.4-9.1-14 6"/><path fill="red" fill-rule="evenodd" d="M93.7 2.2V13h13V2.2h-13z"/><path fill="none" stroke="red" stroke-linecap="round" stroke-linejoin="round" stroke-width=".9" d="M93.7 13h13V2.2h-13V13z"/><text style="line-height:125%;text-align:start" font-family="宋体" font-size="15.1" font-stretch="Normal" font-weight="400" letter-spacing="0" transform="translate(114.3 14.2)" word-spacing="0"><tspan x="0" y="0"><tspan dx="0" dy="0">表示冗余节点</tspan></tspan></text><path fill="red" stroke="red" stroke-linejoin="bevel" stroke-width=".9" d="M63.4 30h10.5c.5 0 .8.4.8.8s-.3.8-.8.8H63.4a.8.8 0 0 1-.8-.8c0-.4.4-.7.8-.7zm18.1 0h10.6c.4 0 .7.4.7.8s-.3.8-.7.8H81.5c-.4 0-.7-.4-.7-.8s.3-.7.7-.7zm18.2 0h6.5c.5 0 .8.4.8.8s-.3.8-.8.8h-6.5a.8.8 0 0 1-.8-.8c0-.4.4-.7.8-.7z"/><text style="line-height:125%;text-align:start" font-family="宋体" font-size="15.1" font-stretch="Normal" font-weight="400" letter-spacing="0" transform="translate(113.4 37.8)" word-spacing="0"><tspan x="0" y="0"><tspan dx="0" dy="0">表示冗余边</tspan></tspan></text></svg>