<svg xmlns="http://www.w3.org/2000/svg" width="476.6" height="377.6" version="1"><path fill="none" stroke="red" stroke-linecap="round" stroke-linejoin="round" stroke-width=".9" d="M145.6 85a5 5 0 0 0-10 0 5 5 0 0 0 5 5 5 5 0 0 0 5-5"/><path fill="red" fill-rule="evenodd" d="M108.3 134.8a5 5 0 0 0-5-5 5 5 0 0 0-5 5 5 5 0 0 0 10 0z"/><path fill="none" stroke="red" stroke-linecap="round" stroke-linejoin="round" stroke-width=".9" d="M108.3 134.8a5 5 0 0 0-5-5 5 5 0 0 0-5 5 5 5 0 0 0 10 0M150.6 167.1a5 5 0 1 0-10 0 5 5 0 1 0 10 0"/><path stroke="#000" stroke-linejoin="bevel" stroke-width=".9" d="M145.3 86.9l.9.2c.2 0 .4.4.3.6-.1.2-.3.4-.6.4l-1-.3c-.2-.1-.3-.3-.2-.6 0-.3.3-.4.6-.3zm2.8.7l.8.4c.3.1.3.4.3.6-.1.3-.4.4-.7.3l-.8-.4c-.3 0-.4-.3-.3-.6.1-.3.4-.4.7-.3zm2.5 1.2h.1l.8.5c.2.1.3.4.2.6-.2.3-.5.3-.7.2l-.8-.5h.1c-.2 0-.4-.4-.2-.6 0-.2.3-.4.5-.2zm2.5 1.5l.8.5c.2.1.3.4.2.6-.1.3-.4.3-.7.2l-.8-.5c-.2-.2-.2-.5-.1-.7.1-.2.4-.3.6-.1zm2.5 1.5l.2.1v.1l.5.4c.2.2.3.5 0 .7-.1.2-.4.2-.6 0l-.5-.4-.2-.1c-.2-.2-.3-.5-.1-.7.1-.2.4-.2.7-.1zm2.1 1.9l.7.6c.2.2.2.5 0 .7 0 .2-.4.2-.6 0l-.7-.6a.5.5 0 0 1 0-.7c.2-.2.5-.2.6 0zm2.2 1.9l.6.5v.1c.2.3.2.6 0 .8l-.6-.1-.2-.2h.1l-.6-.4c-.2-.2-.2-.5 0-.7.1-.2.4-.2.7 0zm1.9 2.1l.5.8c.2.2.2.5 0 .7-.3.1-.5 0-.7-.1l-.6-.8a.4.4 0 0 1 .1-.6c.2-.2.5-.1.7 0zm1.7 2.3l.6.7c.2.2.1.5-.1.7-.2.2-.5.1-.7 0l-.5-.8a.5.5 0 0 1 0-.7c.3-.2.5-.1.7 0zm1.7 2.3l.4.9c.2.2.1.4 0 .6-.3.1-.6 0-.7-.2l-.5-.8c-.2-.2-.1-.5.1-.6.3-.2.6 0 .7.1zm1.5 2.5l.4.8c.1.2 0 .5-.2.6-.1.2-.4.1-.6-.1l-.5-.9c0-.1 0-.4.2-.6.2-.1.5 0 .7.2zm1.4 2.5l.4.8c.1.3 0 .6-.3.7-.2 0-.5 0-.6-.3l-.4-.8c0-.3 0-.6.3-.7.2 0 .5 0 .6.3zm1.2 2.6l.3.8c.1.3 0 .6-.2.7-.3.1-.6 0-.7-.3l-.3-.8c-.2-.3 0-.6.2-.7.2 0 .5 0 .7.3zm1 2.6l.4.7v.2c0 .3 0 .5-.3.6-.3 0-.5 0-.6-.3l-.3-.8c-.1-.3 0-.6.2-.6.3-.2.6 0 .6.2zm1 2.7l.2.9c.1.3 0 .5-.3.6-.2.1-.5 0-.6-.3l-.2-.9c-.1-.3 0-.5.3-.6.2-.1.5 0 .6.3zm.8 2.7l.2 1c0 .2 0 .5-.3.5-.3.1-.5 0-.6-.3l-.3-.9c0-.3.1-.5.4-.6.2 0 .5.1.6.3zm.6 2.9l.2 1c0 .1-.2.4-.5.4a.6.6 0 0 1-.5-.4l-.1-1c0-.2.1-.4.4-.4.2-.1.5 0 .5.4zm.4 2.7l.2 1c0 .3-.2.5-.4.5-.3 0-.5-.1-.6-.4l-.1-.9c0-.3.1-.5.4-.5.3 0 .5.1.5.3zm.5 3v.9c0 .2-.2.5-.5.5a.5.5 0 0 1-.5-.5v-1c0-.2.2-.4.4-.4.3 0 .5.1.6.4zm0 2.8v1c0 .2-.2.4-.4.4-.3 0-.5-.2-.5-.5v-1c0-.2.2-.4.4-.4.3 0 .5.2.5.5zm0 2.8l-.1 1c0 .2-.2.4-.5.4a.4.4 0 0 1-.4-.5v-1c0-.2.3-.4.5-.4.3 0 .5.3.5.5zm-.3 2.9l-.2 1c0 .2-.3.4-.5.3-.3 0-.5-.3-.5-.5l.2-1c0-.2.3-.4.6-.3.2 0 .4.3.4.5zm-.6 2.8l-.1 1c-.1.2-.3.3-.6.3s-.4-.3-.4-.6l.2-.9c0-.2.3-.4.6-.4.2.1.4.3.3.6zm-.5 2.8l-.2.9c0 .3-.3.4-.5.4a.5.5 0 0 1-.4-.6l.2-1c0-.2.3-.3.6-.3.2 0 .4.3.3.6zm-.8 2.8l-.3.9c0 .2-.3.3-.5.3-.3-.2-.5-.4-.3-.6l.3-1c0-.2.3-.3.5-.2.3 0 .5.3.3.6zm-1 2.6l-.2 1c0 .2-.4.3-.6.2-.2 0-.3-.3-.3-.6l.3-.9c.1-.2.4-.4.6-.2.3 0 .4.3.3.5zm-.8 2.7v.1l-.5.8c0 .3-.4.3-.6.2-.3-.1-.3-.4-.2-.6l.4-.7c0-.3.4-.4.6-.4.2.1.4.4.3.6zm-1.4 2.6l-.4.8c0 .3-.4.4-.6.3-.3-.2-.3-.5-.2-.7l.4-.8c.1-.3.4-.4.7-.3.2.2.3.5.1.7zm-1.3 2.5l-.4.9c0 .2-.4.3-.6.1-.3 0-.3-.3-.2-.5l.4-1c.1-.2.4-.2.7-.1.2.1.3.4.1.6zm-1.5 2.5l-.5.7c-.2.3-.5.3-.7.1-.2 0-.3-.4 0-.6l.4-.8c.2-.2.5-.2.7 0 .2 0 .3.4.1.6zm-1.6 2.3l-.6.7c-.1.3-.4.3-.6.1-.3-.1-.3-.4-.1-.6l.5-.8c.2-.2.5-.2.6 0 .3 0 .3.4.2.6zm-1.8 2.3l-.7.6c-.2.2-.5.2-.7 0a.5.5 0 0 1 0-.6l.7-.7c.2-.2.5-.2.7 0 .2.2.2.5 0 .7zm-2 2l-.7.6c-.1.3-.4.3-.7 0a.5.5 0 0 1 0-.6l.7-.7c.2-.2.5-.2.7 0 .2.2.2.5 0 .7zm-2.1 2l-.8.5c-.2.2-.5.1-.7 0-.1-.3 0-.6.2-.8l.7-.5c.2-.2.5-.1.7 0l-.1.7zm-2.4 1.6l-.8.4c-.3.2-.6.1-.7-.1-.1-.3 0-.6.2-.7l.8-.5c.3 0 .5 0 .7.2 0 .3 0 .6-.2.7zm-2.7 1.2l-.3.1-.6.2a.5.5 0 0 1-.6-.4c0-.2.1-.5.4-.5l.6-.2h-.1.3c.2-.2.5 0 .6.2 0 .3 0 .5-.3.6z"/><path fill="none" stroke="#000" stroke-linecap="round" stroke-linejoin="round" stroke-width=".9" d="M136.5 87.8c-17 .4-27.3 13-32.2 24.1-3 6.8-4 13-3.4 18.6M140.7 167.9c-3-.4-6.4-.8-9.6-1.4-16.8-3.2-25.1-10.4-27.8-26.7"/><text style="line-height:125%;text-align:start" font-family="Times New Roman" font-size="15.1" font-stretch="Condensed" font-weight="400" letter-spacing="0" transform="translate(136 78.4)" word-spacing="0"><tspan x="0" y="0"><tspan dx="0" dy="0">b</tspan></tspan></text><text style="line-height:125%;text-align:start" x="4.7" y="84.1" font-family="Times New Roman" font-size="15.1" font-stretch="Condensed" font-weight="400" letter-spacing="0" transform="translate(136 78.4)" word-spacing="0"><tspan x="4.7" y="84.1"><tspan dx="0" dy="0">h</tspan></tspan></text><text style="line-height:125%;text-align:start" x="-48.2" y="60.5" font-family="Times New Roman" font-size="15.1" font-stretch="Condensed" font-weight="400" letter-spacing="0" transform="translate(136 78.4)" word-spacing="0"><tspan x="-48.2" y="60.5"><tspan dx="0" dy="0">e</tspan></tspan></text><text style="line-height:125%;text-align:start" x="39.7" y="54.8" font-family="Times New Roman" font-size="15.1" font-stretch="Condensed" font-weight="400" letter-spacing="0" transform="translate(136 78.4)" word-spacing="0"><tspan x="39.7" y="54.8"><tspan dx="0" dy="0">e</tspan><tspan dx="0" dy="0" font-size="9.4">0</tspan></tspan></text><text style="line-height:125%;text-align:start" x="-35.9" y="27.4" font-family="Times New Roman" font-size="15.1" font-stretch="Condensed" font-weight="400" letter-spacing="0" transform="translate(136 78.4)" word-spacing="0"><tspan x="-35.9" y="27.4"><tspan fill="#00f" dx="0" dy="0">2</tspan></tspan></text><text style="line-height:125%;text-align:start" x="-26.5" y="92.6" font-family="Times New Roman" font-size="15.1" font-stretch="Condensed" font-weight="400" letter-spacing="0" transform="translate(136 78.4)" word-spacing="0"><tspan x="-26.5" y="92.6"><tspan fill="#00f" dx="0" dy="0">3</tspan></tspan></text><path fill="none" stroke="#00f" stroke-linecap="round" stroke-linejoin="round" stroke-width=".9" d="M72.3 176.6h198.2V66H72.3v110.7z"/><text style="line-height:132.170827%;text-align:start" font-family="Times New Roman" font-size="15.1" font-stretch="Condensed" font-weight="400" letter-spacing="0" transform="translate(204 115.3)" word-spacing="0"><tspan x="0" y="0"><tspan dx="0" dy="0">E</tspan><tspan dx="0" dy="0">0 </tspan><tspan dx="0" dy="0">= </tspan><tspan dx="0" dy="0" font-family="宋体" font-stretch="Normal">Φ</tspan></tspan><tspan x="0" y="20.8"><tspan dx="0" dy="0">cost</tspan><tspan dx="0" dy="0">0 </tspan><tspan dx="0" dy="0">= </tspan><tspan dx="0" dy="0">0</tspan></tspan></text><text style="line-height:125%;text-align:start" x="-197.5" y="7.6" font-family="宋体" font-size="17.9" font-stretch="Normal" font-weight="700" letter-spacing="0" transform="translate(204 115.3)" word-spacing="0"><tspan x="-197.5" y="7.6"><tspan dx="0" dy="0">同相</tspan></tspan></text><text style="line-height:125%;text-align:start" x="-161.6" y="7.6" font-family="宋体" font-size="17.9" font-stretch="Normal" font-weight="700" letter-spacing="0" transform="translate(204 115.3)" word-spacing="0"><tspan x="-161.6" y="7.6"><tspan dx="0" dy="0">：</tspan></tspan></text><path fill="none" stroke="red" stroke-linecap="round" stroke-linejoin="round" stroke-width=".9" d="M143.9 215.4a5 5 0 1 0-5 5 5 5 0 0 0 5-5M106.5 265.2a5 5 0 0 0-5-5 5 5 0 1 0 0 10 5 5 0 0 0 5-5"/><path fill="red" fill-rule="evenodd" d="M148.8 297.5a5 5 0 0 0-5-5 5 5 0 0 0-5 5 5 5 0 0 0 10 0z"/><path fill="none" stroke="red" stroke-linecap="round" stroke-linejoin="round" stroke-width=".9" d="M148.8 297.5a5 5 0 0 0-5-5 5 5 0 0 0-5 5 5 5 0 0 0 10 0"/><path stroke="#000" stroke-linejoin="bevel" stroke-width=".9" d="M143.5 217.2l.9.2c.2.1.4.4.3.6 0 .3-.3.4-.5.4l-1-.3c-.2 0-.3-.3-.3-.6 0-.2.3-.4.6-.3zm2.8.8l.9.3c.2.1.3.4.2.7-.1.2-.4.3-.6.2l-.9-.3c-.3-.2-.3-.4-.3-.7.1-.2.4-.3.7-.2zm2.6 1l.1.2.8.4c.1.1.3.4 0 .7 0 .2-.3.3-.6 0l-.7-.4c-.2 0-.3-.3-.2-.6 0-.2.3-.3.6-.2zm2.5 1.6l.7.5c.3.2.3.4.2.7-.1.2-.4.2-.6.1l-.9-.5c-.2-.1-.2-.4 0-.7 0-.1.3-.2.6 0zm2.4 1.5l.2.2.5.5c.2.1.3.4.1.6-.2.2-.5.2-.7 0l-.5-.4h-.2c-.2-.2-.2-.5 0-.7 0-.3.3-.3.6-.2zm2.2 2l.7.5c.2.2.2.5 0 .8h-.7l-.7-.7a.5.5 0 0 1 0-.6c.1-.2.5-.2.7 0zm2 1.8l.6.6.2.2c.1.1.1.4-.1.6-.2.2-.5.1-.7 0v-.2l-.6-.4c-.2-.2-.2-.5 0-.8h.6zm2 2.2l.5.8c.2.2.2.5 0 .6-.2.2-.5.2-.7 0l-.6-.8c-.2-.2-.1-.5 0-.6.3-.2.6-.1.8 0zm1.7 2.3l.6.7c.2.2.1.5 0 .6-.3.2-.6.2-.7 0l-.6-.7a.5.5 0 0 1 0-.7c.3-.2.6-.2.7 0zm1.6 2.3l.6.8c.1.2 0 .5-.2.7-.2.1-.5 0-.6-.2l-.5-.8c-.2-.2 0-.5.1-.6.2-.2.5-.1.6.1zm1.5 2.5l.6.7c0 .3 0 .6-.2.7-.3.2-.6 0-.7-.1l-.4-.9c-.2-.2-.2-.5 0-.6.3-.1.6 0 .7.2zm1.5 2.4l.4 1c0 .2 0 .5-.3.5-.2.1-.5 0-.6-.2l-.4-.8c-.1-.3 0-.6.2-.7.3-.1.6 0 .7.2zm1.1 2.6l.4 1c0 .2 0 .5-.3.6-.2 0-.5 0-.6-.3l-.4-.9c0-.2 0-.5.3-.6.2-.1.5 0 .6.2zm1.1 2.6l.3.7.1.3c0 .2 0 .5-.3.6-.3 0-.5 0-.6-.3v-.1l-.3-.8c-.2-.2 0-.5.2-.6.2 0 .5 0 .6.2zm1 2.8l.2.9c0 .2 0 .5-.3.6-.3 0-.5 0-.6-.3l-.3-1c0-.2.1-.4.3-.5.3-.1.6 0 .6.3zm.8 2.7l.2 1c.1.1 0 .4-.3.5-.2 0-.5 0-.6-.3l-.3-1c0-.2.1-.4.4-.5.2 0 .4 0 .6.3zm.6 2.9l.1.8c0 .3 0 .6-.3.6s-.6-.1-.6-.4l-.1-1c0-.2.1-.5.4-.5.2 0 .4.2.5.5zm.4 2.7l.1 1c.1.2 0 .5-.4.5-.2 0-.4-.1-.5-.4l-.1-1c0-.2.2-.4.4-.5.2 0 .5.2.5.4zm.4 3v.9c0 .2-.1.4-.4.4a.5.5 0 0 1-.5-.4v-1c0-.2.2-.4.4-.4.3 0 .5.1.5.4zm0 2.7v1c.2.2 0 .5-.3.5s-.5-.3-.6-.5v-1c0-.2.2-.4.5-.4s.5.2.5.4zm0 2.9v1c0 .2-.3.4-.6.4-.2 0-.4-.2-.4-.5v-1c0-.2.3-.4.6-.4.2 0 .4.3.4.5zm-.3 2.9l-.1 1c-.1.2-.3.4-.6.3-.3 0-.4-.3-.4-.5l.2-1c0-.2.3-.4.6-.3.2 0 .4.3.3.5zm-.5 2.8l-.2 1c0 .2-.3.3-.5.3-.3 0-.5-.3-.4-.6l.2-1c0-.1.3-.3.6-.3.2.1.4.3.3.6zm-.5 2.7l-.2 1c0 .2-.3.4-.5.3-.3 0-.4-.3-.4-.5l.1-1c0-.2.3-.3.6-.3s.4.3.4.5zm-.8 2.8l-.3 1c-.1.2-.3.3-.6.2-.3 0-.4-.4-.3-.6l.3-.9c0-.2.4-.3.6-.3.2.1.4.4.3.6zm-1 2.7l-.2 1c-.2.2-.4.3-.6.2-.3-.1-.4-.3-.3-.6l.3-.9c0-.3.3-.4.6-.3.2.1.4.4.3.6zm-.9 2.7v.1l-.4.8c-.1.2-.4.3-.6.2-.3-.1-.4-.4-.3-.6l.4-.8c.1-.2.4-.4.6-.3.3 0 .4.4.3.6zm-1.3 2.6l-.4.8c-.1.3-.4.3-.6.2-.3-.1-.4-.4-.3-.6l.5-.9c.1-.2.4-.3.6-.2.2.2.3.5.2.7zm-1.3 2.5l-.5.9c0 .2-.3.3-.5.1-.3 0-.4-.4-.3-.6l.5-.8c.1-.3.3-.3.6-.2.2.1.3.4.2.6zm-1.5 2.5l-.6.7c-.1.3-.4.3-.7.1-.1-.1-.2-.4 0-.6l.5-.8c.1-.2.4-.3.7-.1.2.1.2.4 0 .7zm-1.7 2.3l-.6.7c0 .2-.4.3-.6.1a.6.6 0 0 1-.1-.7l.6-.7c0-.2.4-.3.6 0 .2 0 .2.3.1.6zm-1.8 2.2l-.7.7c-.1.2-.4.2-.6 0-.2-.2-.2-.5 0-.7l.6-.6c.2-.2.5-.2.7 0 .2.1.2.4 0 .6zm-2 2l-.7.7c-.1.2-.4.2-.6 0a.5.5 0 0 1 0-.6l.6-.7c.2-.2.5-.2.7 0 .2.1.2.4 0 .7zm-2.1 2l-.7.6c-.3.1-.6.1-.7-.1-.2-.2-.1-.5 0-.7l.8-.6c.2-.1.5 0 .7.2.2.1.1.4-.1.6zm-2.4 1.6l-.8.5c-.3.2-.6 0-.7-.2 0-.2 0-.5.2-.6l.8-.5c.3-.1.6 0 .7.2.1.2 0 .5-.2.6zm-2.6 1.3h-.3l-.7.2c-.3 0-.5 0-.6-.4 0-.2.1-.4.4-.5l.7-.1h-.1l.2-.1c.3 0 .5 0 .6.3.2.2 0 .5-.2.6z"/><path fill="none" stroke="#000" stroke-linecap="round" stroke-linejoin="round" stroke-width=".9" d="M134.7 218.1c-16.9.5-27.3 13.1-32.2 24.1-3 6.8-4 13.1-3.4 18.6M138.9 298.3l-9.6-1.5c-16.8-3-25-10.3-27.8-26.7"/><text style="line-height:125%;text-align:start" font-family="Times New Roman" font-size="15.1" font-stretch="Condensed" font-weight="400" letter-spacing="0" transform="translate(134.2 208.8)" word-spacing="0"><tspan x="0" y="0"><tspan dx="0" dy="0">b</tspan></tspan></text><text style="line-height:125%;text-align:start" x="4.7" y="84.1" font-family="Times New Roman" font-size="15.1" font-stretch="Condensed" font-weight="400" letter-spacing="0" transform="translate(134.2 208.8)" word-spacing="0"><tspan x="4.7" y="84.1"><tspan dx="0" dy="0">h</tspan></tspan></text><text style="line-height:125%;text-align:start" x="-48.2" y="60.5" font-family="Times New Roman" font-size="15.1" font-stretch="Condensed" font-weight="400" letter-spacing="0" transform="translate(134.2 208.8)" word-spacing="0"><tspan x="-48.2" y="60.5"><tspan dx="0" dy="0">e</tspan></tspan></text><text style="line-height:125%;text-align:start" x="25.5" y="54.8" font-family="Times New Roman" font-size="15.1" font-stretch="Condensed" font-weight="400" letter-spacing="0" transform="translate(134.2 208.8)" word-spacing="0"><tspan x="25.5" y="54.8"><tspan dx="0" dy="0">e</tspan><tspan dx="0" dy="0" font-size="9.4">0</tspan></tspan></text><text style="line-height:125%;text-align:start" x="-26.5" y="92.6" font-family="Times New Roman" font-size="15.1" font-stretch="Condensed" font-weight="400" letter-spacing="0" transform="translate(134.2 208.8)" word-spacing="0"><tspan x="-26.5" y="92.6"><tspan fill="#00f" dx="0" dy="0">3</tspan></tspan></text><path fill="none" stroke="#00f" stroke-linecap="round" stroke-linejoin="round" stroke-width=".9" d="M70.5 307h198.2V196.2H70.5V307z"/><text style="line-height:125%;text-align:start" font-family="Times New Roman" font-size="15.1" font-stretch="Condensed" font-weight="400" letter-spacing="0" transform="translate(185.2 263.6)" word-spacing="0"><tspan x="0" y="0"><tspan dx="0" dy="0">cost</tspan><tspan dx="0" dy="0">180 </tspan><tspan dx="0" dy="0">= </tspan><tspan dx="0" dy="0">2</tspan></tspan></text><text style="line-height:125%;text-align:start" x="-180.5" y="-11.3" font-family="宋体" font-size="17.9" font-stretch="Normal" font-weight="700" letter-spacing="0" transform="translate(185.2 263.6)" word-spacing="0"><tspan x="-180.5" y="-11.3"><tspan dx="0" dy="0">反相</tspan><tspan dx="18.4" dy="0">：</tspan></tspan></text><path fill="none" stroke="#00f" stroke-linecap="round" stroke-linejoin="round" stroke-width="1.5" d="M99.5 235.3l7.2 11.2M109 237.9l-11.8 6"/><text style="line-height:125%;text-align:start" font-family="Times New Roman" font-size="17.9" font-stretch="Condensed" font-weight="400" letter-spacing="0" transform="translate(87.9 344)" word-spacing="0"><tspan x="0" y="0"><tspan dx="0" dy="0">cost</tspan><tspan dx="0" dy="0">_</tspan><tspan dx="0" dy="0">diff </tspan><tspan dx="0" dy="0">= </tspan><tspan dx="0" dy="0">-</tspan><tspan dx="0" dy="0">2</tspan></tspan></text><text style="line-height:125%;text-align:start" x="-87.9" font-family="宋体" font-size="17.9" font-stretch="Normal" font-weight="700" letter-spacing="0" transform="translate(87.9 344)" word-spacing="0"><tspan x="-87.9" y="0"><tspan dx="0" dy="0">代价差</tspan></tspan></text><text style="line-height:125%;text-align:start" x="-35" font-family="宋体" font-size="17.9" font-stretch="Normal" font-weight="700" letter-spacing="0" transform="translate(87.9 344)" word-spacing="0"><tspan x="-35" y="0"><tspan dx="0" dy="0">：</tspan></tspan></text><text style="line-height:125%;text-align:start" x="13.2" y="-115.3" font-family="Times New Roman" font-size="15.1" font-stretch="Condensed" font-weight="400" letter-spacing="0" transform="translate(87.9 344)" word-spacing="0"><tspan x="13.2" y="-115.3"><tspan fill="#00f" dx="0" dy="0">2</tspan></tspan></text><path stroke="#000" stroke-linejoin="bevel" stroke-width=".9" d="M199 337l14.2.6c.2 0 .4.2.4.4 0 .3-.2.5-.5.5L199 338a.5.5 0 0 1-.5-.4c0-.3.2-.5.5-.5zm22.6.6l14.2-.5c.2 0 .5.2.5.5s-.2.5-.5.5l-14.1.5c-.3 0-.5-.3-.5-.5 0-.3.2-.5.4-.5zm22.7-1.2l10.6-1 3.4-.4c.2-.1.5 0 .5.3.1.3 0 .5-.4.5l-3.4.6-10.7 1c-.2 0-.5-.2-.5-.4 0-.3.2-.6.5-.6zm22.4-2.8l6-.9 7.9-1.8c.3 0 .5.1.6.4 0 .2-.2.5-.4.5l-8 1.8-6 1c-.2 0-.5-.2-.5-.5 0-.2.2-.4.4-.5zm22.2-4.5l1-.2 12.6-3.7c.2-.1.5 0 .6.3 0 .2 0 .5-.4.6l-12.7 3.7-1 .2c-.2 0-.4-.1-.5-.4 0-.2.1-.5.4-.5zm21.6-6.6l11.4-4.1 1.8-.9c.3 0 .6 0 .7.3 0 .2 0 .5-.2.6l-2 .9-11.3 4c-.3.2-.6 0-.7-.2 0-.2 0-.5.3-.6zm21-8.4l5.2-2.3 7.5-4c.2-.1.5 0 .6.2.1.2 0 .5-.2.6l-7.5 4.1-5.2 2.2c-.2.2-.5 0-.6-.2-.1-.2 0-.5.2-.6zm20-10.4l11.6-7.5.3-.2c.2-.2.5-.1.7 0 .2.3 0 .6 0 .8l-.4.2-11.6 7.5c-.2.1-.5 0-.7-.1-.1-.3 0-.6.2-.7zm18.7-13l4.5-3.5 6-5.7c.3-.2.6-.2.7 0 .2.2.2.5 0 .7l-6.2 5.8-4.5 3.5c-.2.2-.5.2-.7 0-.1-.2 0-.5.2-.7zm16.6-15.1l2.7-3 4.2-5.3 2-2.7c.1-.2.4-.3.7 0 .2 0 .2.3 0 .6l-2 2.7-4.2 5.3-2.7 3c-.2.2-.5.2-.7 0a.4.4 0 0 1 0-.6zm13.6-18l.7-1.1 3-5.6 2.8-5.8c.1-.3.3-.4.6-.3.3.1.4.4.3.6l-2.8 5.9-3.1 5.7-.7 1c-.2.3-.5.4-.6.2-.3-.1-.3-.4-.2-.7zm9.4-20.5l1.3-4c0-.2.3-.3.6-.2.2 0 .3.3.3.5l-1.3 4c0 .2-.3.4-.6.4-.2-.2-.4-.4-.3-.7z"/><path fill-rule="evenodd" d="M193.7 337.1l7.2-3a7.7 7.7 0 0 0-.5 7l-6.7-4zM412.7 228.2l1.8 7.5a7.8 7.8 0 0 0-6.8-1.6l5-6z"/><path fill="none" stroke="#000" stroke-linecap="round" stroke-linejoin="round" stroke-width=".9" d="M357.1 190.7l-14.3-14.2-3.6 3.5 7.2 7.1h-46.5v7.2h46.5l-7.2 7.1 3.6 3.6 14.3-14.3z"/><path fill="none" stroke="red" stroke-linecap="round" stroke-linejoin="round" stroke-width=".9" d="M426.4 167.3c0-2.4-1.9-4.2-4.2-4.2a4.2 4.2 0 1 0 4.2 4.2M430.6 237a4.2 4.2 0 1 0-8.4 0 4.2 4.2 0 0 0 8.4 0"/><text style="line-height:125%;text-align:start" font-family="Times New Roman" font-size="15.1" font-stretch="Condensed" font-weight="400" letter-spacing="0" transform="translate(418.6 162.5)" word-spacing="0"><tspan x="0" y="0"><tspan dx="0" dy="0">b</tspan></tspan></text><text style="line-height:125%;text-align:start" x="5.7" y="89.8" font-family="Times New Roman" font-size="15.1" font-stretch="Condensed" font-weight="400" letter-spacing="0" transform="translate(418.6 162.5)" word-spacing="0"><tspan x="5.7" y="89.8"><tspan dx="0" dy="0">h</tspan></tspan></text><text style="line-height:125%;text-align:start" x="31.2" y="41.6" font-family="Times New Roman" font-size="15.1" font-stretch="Condensed" font-weight="400" letter-spacing="0" transform="translate(418.6 162.5)" word-spacing="0"><tspan x="31.2" y="41.6"><tspan fill="#00f" dx="0" dy="0">2</tspan></tspan></text><path fill="none" stroke="#000" stroke-linecap="round" stroke-linejoin="round" stroke-width=".9" d="M425.8 169.5c-.3.5 1.6.6 3.4 1 10.1 1.8 13.9 12.4 15.4 23.6 3.2 22.6-2.6 47.4-14 42.9"/><path stroke="#000" stroke-linejoin="bevel" stroke-width=".9" d="M425.1 232.9v-1c0-.3.2-.5.5-.5.2 0 .4.2.4.5v.9c0 .3-.2.5-.4.5s-.5-.2-.5-.4zm0-2.9v-1c0-.2.1-.4.3-.4.3 0 .5.2.6.4v1c0 .3-.2.4-.5.5a.5.5 0 0 1-.5-.5zm-.1-2.8l-.1-1c0-.3.2-.4.5-.4.2 0 .4.1.4.4l.1 1c0 .2-.2.4-.5.5a.5.5 0 0 1-.4-.5zm-.2-2.8v-1c0-.3.2-.5.5-.5s.4.2.4.4v1c0 .3 0 .5-.4.5a.5.5 0 0 1-.5-.4zm0-2.9v-1c0-.2.1-.4.4-.4.2 0 .5.2.5.4v1c0 .3-.2.4-.4.5-.3 0-.5-.2-.6-.5zm-.1-2.8v-1c0-.3.1-.4.4-.4.2-.1.5.1.5.4v1c0 .2-.2.4-.5.5a.5.5 0 0 1-.4-.5zm-.2-2.9v-.9c0-.2.2-.5.5-.5s.4.2.5.4v1c0 .3-.2.5-.5.5a.5.5 0 0 1-.5-.5zm0-2.8v-1c0-.2.1-.4.4-.4.2 0 .5.2.5.4v1c0 .2-.2.5-.4.5a.5.5 0 0 1-.5-.5zm-.1-2.8v-1c0-.2.1-.4.4-.4.3 0 .5.1.5.4v1c0 .2-.2.4-.5.4a.5.5 0 0 1-.4-.4zm-.1-2.9v-.9c0-.2.1-.5.4-.5.3 0 .5.2.5.4v1c0 .3-.2.5-.4.5-.3 0-.5-.2-.5-.5zm-.1-2.8v-1c0-.2.2-.4.4-.4s.5.2.5.4v1c0 .2-.2.5-.4.5a.5.5 0 0 1-.5-.5zm-.1-2.8v-1c0-.2.2-.4.4-.4.3 0 .5.1.5.4v1c0 .2-.2.4-.5.4a.5.5 0 0 1-.4-.4zm0-2.9l-.1-1c0-.1.1-.4.4-.4.3 0 .5.2.5.5v1c0 .2-.2.4-.4.4a.5.5 0 0 1-.5-.5zm-.2-2.8v-1c0-.2.2-.4.4-.4.3 0 .5.2.5.5v.9c0 .2-.1.5-.4.5a.5.5 0 0 1-.5-.5zm-.1-2.8v-1c0-.2.2-.4.5-.4.2 0 .4.1.4.4v1c0 .2-.2.4-.4.4-.3 0-.5-.1-.5-.4zm0-2.9l-.1-1c0-.1.1-.4.4-.4.3 0 .5.2.5.5v1c0 .2-.2.4-.4.4a.5.5 0 0 1-.5-.5zm-.2-2.8v-1c0-.2.2-.4.4-.4.3 0 .5.2.5.5v.9c0 .2-.1.5-.4.5a.5.5 0 0 1-.5-.5zm-.1-2.8v-1c0-.2.2-.5.5-.5.2 0 .4.2.4.5v1c0 .2-.1.4-.4.4-.3 0-.5-.1-.5-.4zm0-2.9l-.1-1c0-.2.2-.4.4-.4.3 0 .5.2.5.5v1c0 .2-.1.4-.4.4a.5.5 0 0 1-.5-.5zm-.2-2.8v-1c0-.2.2-.4.4-.4.3 0 .6.2.6.5v.9c0 .2-.2.5-.5.5s-.5-.2-.5-.5zm0-2.8l-.1-1c0-.2.2-.5.5-.5.2 0 .4.2.4.5v1c0 .2-.1.4-.4.4a.5.5 0 0 1-.5-.4zm-.2-2.9v-1c0-.2.2-.4.4-.4.3 0 .5.2.6.5v1c0 .2-.2.4-.5.4a.5.5 0 0 1-.5-.5zM422.1 235.7l-.6-.7v-.7h.7l.6.8c.2.2.2.5 0 .6-.2.2-.5.2-.7 0zm-1.8-2l-.7-.8a.5.5 0 0 1 .1-.7h.7l.6.8c.2.1.1.5 0 .6-.2.2-.5.2-.7 0zm-1.9-2.3l-.5-.8c0-.3 0-.5.2-.7.2-.1.5 0 .6.2l.5.8c.2.2 0 .5-.1.7-.3 0-.6 0-.7-.2zM417 229l-.4-.9c-.2-.2-.1-.5.1-.6.2-.1.5 0 .7.2l.5.8c0 .2 0 .5-.2.6-.3.2-.6 0-.7-.1zm-1.3-2.6l-.4-1c0-.2 0-.4.3-.5.2-.1.5 0 .6.3l.4.9c0 .2 0 .4-.3.6-.3 0-.5-.1-.6-.3zm-1-2.6l-.4-1c-.1-.2 0-.5.3-.6.2 0 .5 0 .6.3l.4 1c0 .1-.1.4-.3.5-.3.1-.6 0-.6-.2zm-.9-2.8l-.2-1c0-.2.1-.5.4-.6.3 0 .5.2.5.4l.2 1c0 .2 0 .5-.3.5-.3.1-.5 0-.6-.3zm-.6-2.8l-.2-.9v-.1c0-.2.1-.5.4-.5.3 0 .5.2.5.4l.2.9c0 .3 0 .5-.3.6a.5.5 0 0 1-.6-.4zm-.5-2.8l-.1-1c0-.3.2-.5.4-.5.3 0 .5.1.5.4l.2 1c0 .2-.2.4-.5.5a.6.6 0 0 1-.5-.4zm-.3-2.9l-.1-.8v-.1c0-.3.1-.5.4-.5.3 0 .5.1.5.4l.1 1c0 .2-.1.4-.4.5-.2 0-.5-.2-.5-.5zm-.3-2.8v-1c0-.2.2-.4.4-.5.3 0 .5.2.5.5v1c.1.2-.1.4-.3.4a.5.5 0 0 1-.6-.4zm0-2.8l-.1-1c-.1-.3.1-.4.4-.5.3 0 .4.2.5.5v1c0 .1-.2.4-.4.4-.3 0-.5-.2-.5-.4zm-.2-3v-.9c0-.2.2-.4.5-.4s.4.2.4.4v1c0 .3-.1.4-.4.4a.5.5 0 0 1-.5-.4zm0-2.8v-.9c0-.2.2-.5.5-.5s.4.3.4.5v1c0 .2-.1.4-.4.4a.5.5 0 0 1-.5-.5zm0-2.8v-1c0-.2.2-.4.5-.4s.5.2.5.5v1c0 .2-.2.4-.5.4s-.4-.2-.4-.5zm0-2.8v-1c0-.2.3-.4.5-.4.3 0 .5.2.5.4v1c0 .3-.2.4-.5.4a.5.5 0 0 1-.4-.4zm0-2.9l.1-1c0-.1.2-.4.5-.4s.5.3.5.6l-.1.8c0 .3-.2.5-.5.5a.5.5 0 0 1-.4-.5zm.2-2.8v-1c0-.2.2-.4.5-.4.2 0 .5.2.4.5v1c0 .2-.2.4-.5.4s-.4-.2-.4-.5zm0-2.8v-1c0-.2.3-.4.6-.4s.4.2.4.5v1c0 .2-.2.4-.5.3a.5.5 0 0 1-.5-.4zm.2-2.9l.1-1c0-.2.3-.4.5-.3.3 0 .5.2.5.4l-.2 1c0 .3-.2.5-.5.4-.2 0-.4-.2-.4-.5zm.3-2.9l.2-.8c0-.3.3-.5.5-.5.3.1.5.3.4.6l-.2 1c0 .2-.3.3-.5.3-.3 0-.5-.3-.4-.6zm.5-2.7v-.3l.3-.7c0-.2.4-.4.6-.3.3 0 .4.4.3.6l-.2.7v.1c0 .3-.3.5-.6.4-.3 0-.4-.3-.4-.5zm1-2.8v-.4l.4-.6c.1-.1.4-.2.6 0 .3 0 .3.3.2.6l-.3.4-.1.3c0 .3-.4.4-.6.3-.2 0-.4-.3-.3-.6zm1.4-2.5l.1-.2.7-.6c.2-.1.5 0 .7.1v.6l-.7.6v-.1c-.2.3-.5.4-.6.3-.3-.2-.3-.5-.2-.7zm2.5-2l1-.2c.2 0 .4 0 .5.4 0 .2-.1.5-.3.5l-1 .2c-.2.1-.5 0-.5-.3-.1-.2 0-.5.3-.5zM424.5 240.9l-.7.6c-.1.2-.4.2-.6 0a.5.5 0 0 1 0-.6l.7-.7h.6c.2.2.2.5 0 .7zm-2 2l-.7.6c-.2.2-.5.2-.7 0-.2-.2-.2-.5 0-.7l.7-.6c.2-.3.5-.2.7 0 .2.2.2.5 0 .6zm-2.1 1.9l-.8.6-.7-.1a.5.5 0 0 1 .1-.8l.8-.5c.2-.1.5 0 .7.1l-.1.7zm-2.3 1.6l-.9.6c-.2.1-.4 0-.6-.1v-.7l.9-.5c.2-.2.5-.1.6 0 .2.3.1.6 0 .7zm-2.6 1.5l-.9.4c-.2 0-.4 0-.6-.2 0-.2 0-.5.3-.7l.8-.4c.2 0 .5 0 .6.3.2.2 0 .5-.2.6zm-2.8 1l-1 .1a.6.6 0 0 1-.4-.4c-.1-.2 0-.5.4-.5l1-.1c.2 0 .4 0 .4.3s-.1.6-.4.6zm-3 .1l-.9-.2c-.2 0-.4-.3-.3-.5 0-.3.3-.4.5-.4l1 .2c.2 0 .4.3.3.5 0 .3-.3.4-.5.4zm-2.7-1l-.8-.5c-.3-.1-.3-.4-.2-.6.2-.2.5-.3.7-.2l.8.5c.2.2.3.5.2.7-.2.2-.5.2-.7.1zm-2.3-1.8l-.6-.7a.5.5 0 0 1 0-.7h.7l.6.8c.2.1.1.4 0 .6-.2.2-.5.2-.7 0zm-1.8-2.3l-.6-.8c0-.2 0-.5.2-.6.3-.2.6 0 .7.1l.5.8c.1.3 0 .6-.2.7-.2 0-.5 0-.6-.2zm-1.5-2.5l-.4-.8c-.1-.2 0-.5.2-.7.3 0 .6 0 .7.3l.3.9c.1.2 0 .4-.2.6-.2 0-.5 0-.6-.3zm-1.2-2.5l-.3-.7-.1-.2c-.1-.3 0-.5.3-.7.2 0 .5.1.6.3v.2l.3.7c.2.2 0 .5-.2.6-.2.1-.5 0-.6-.2zm-1-2.7l-.3-1c-.2-.2 0-.4.2-.5.3 0 .5 0 .6.3l.3.9c.2.2 0 .5-.3.6-.2 0-.4 0-.5-.3zm-1-2.8l-.2-.8c0-.3 0-.6.3-.6s.6 0 .6.3l.3 1c0 .2-.2.4-.4.5-.2 0-.5 0-.6-.4zm-.7-2.7l-.2-1c-.1-.2 0-.4.3-.4.3-.1.5 0 .6.2l.2 1c.1.2 0 .5-.3.6a.5.5 0 0 1-.6-.4zm-.6-2.7l-.2-1c0-.2 0-.5.3-.5s.5 0 .6.3l.1 1c.1.2 0 .4-.3.5-.3 0-.5-.1-.5-.3zm-.6-2.8l-.2-1c0-.2.1-.4.3-.5.3 0 .5.1.6.4l.2.9c0 .2-.1.5-.4.5-.2 0-.5 0-.5-.3zm-.5-2.9l-.1-.9c0-.2 0-.5.4-.5.2 0 .5.1.5.4l.1 1c0 .2-.1.4-.4.5a.6.6 0 0 1-.5-.5zm-.4-2.8l-.1-.9c0-.3.1-.5.4-.5.2 0 .5.1.5.3l.1 1c0 .3-.1.5-.4.5-.2 0-.5-.1-.5-.4zm-.4-2.8l-.1-1c0-.1.1-.4.4-.4.3-.1.5.1.5.4l.2 1c0 .2-.2.4-.4.4a.6.6 0 0 1-.6-.4zm-.4-2.8v-.8l-.1-.1c0-.3.2-.5.5-.6.3 0 .4.3.4.5l.2.9c0 .3-.2.5-.5.5-.2 0-.4-.1-.5-.4zm-.2-2.8v-1c0-.3.2-.5.4-.5.3 0 .5.2.6.5v.9c0 .3-.2.5-.5.5-.2 0-.5-.2-.5-.4zm0-2.9v-1c0-.2 0-.4.3-.4s.6.2.6.4v1c0 .3-.2.4-.5.4-.3.1-.4-.1-.5-.4zm-.1-2.8l-.1-1c0-.2.2-.4.5-.4.2 0 .4.2.4.4l.1 1c0 .2-.2.4-.5.5a.5.5 0 0 1-.4-.5zm-.2-2.8v-1c0-.3.3-.5.6-.5.2 0 .4.3.4.5v.9c0 .3-.3.5-.5.5a.5.5 0 0 1-.5-.4zm.2-3v-.9c0-.2.2-.5.5-.4.3 0 .5.2.5.5l-.1 1c0 .2-.2.4-.5.4s-.4-.2-.4-.5zm.1-2.8v-1c0-.2.3-.4.6-.3.3 0 .4.2.4.4v1c0 .3-.3.5-.6.5a.5.5 0 0 1-.4-.6zm.2-2.8v-1c0-.2.3-.4.5-.4.3 0 .5.3.5.5v1c0 .3-.3.4-.6.4-.2 0-.4-.2-.4-.5zm.3-2.8l.2-1c0-.2.3-.4.5-.4s.4.3.4.6l-.2.9c0 .3-.2.5-.5.4a.6.6 0 0 1-.4-.5zm.5-2.8l.2-1c0-.3.2-.4.5-.4.2 0 .4.3.3.6v.9c-.1.2-.4.4-.6.4-.3 0-.5-.3-.4-.5zm.4-2.8l.2-1c0-.2.3-.4.6-.3.2 0 .4.2.3.5l-.1 1c0 .2-.3.3-.6.3-.2 0-.4-.3-.4-.5zm.6-2.9l.3-.9c0-.2.3-.4.6-.3.3 0 .4.3.3.6l-.3 1c0 .1-.3.3-.5.2-.3 0-.4-.3-.4-.6zm.9-2.7l.2-.9c.1-.2.4-.4.6-.3.3 0 .4.3.3.6l-.3.9c0 .2-.2.4-.5.3-.3 0-.4-.3-.3-.6zm.8-2.7l.2-.9c.1-.2.4-.4.6-.3.3 0 .4.3.4.6l-.3.9c0 .2-.4.4-.6.3-.3 0-.4-.3-.3-.6zm1-2.7l.4-.9c0-.2.4-.3.6-.2.2.1.4.4.2.6l-.3.9c-.1.2-.4.3-.7.2-.2-.1-.3-.3-.2-.6zm1.2-2.6l.4-.8c.2-.2.5-.4.7-.2.2 0 .4.4.2.6l-.4.8c-.2.3-.5.4-.7.3-.2-.2-.3-.4-.2-.7zm1.5-2.5l.5-.8c.2-.2.5-.3.6-.1.3.1.3.4.2.7l-.6.7c-.1.3-.4.3-.6.1-.3 0-.3-.4-.1-.6zm1.7-2.4l.6-.6c.2-.2.5-.3.7 0v.6l-.7.7c-.2.2-.5.2-.6 0-.2-.1-.2-.4 0-.7zm2-2l.7-.6h.7c.2.3.1.6 0 .7l-.8.6c-.2.2-.5.1-.7 0-.2-.3-.1-.6 0-.7zm2.4-1.7l.8-.4c.3-.1.6 0 .7.2 0 .3 0 .5-.3.6l-.8.5c-.2.1-.5 0-.6-.2-.2-.3 0-.6.2-.7zm2.7-1l1-.3c.2 0 .4.1.5.4 0 .3 0 .5-.3.6l-1 .2a.5.5 0 0 1-.5-.4c-.1-.2 0-.4.3-.6zm2.9-.4h.7v.1h.4c.2.1.4.4.3.6 0 .3-.3.4-.6.4l-.2-.1h-.6a.5.5 0 0 1-.5-.5c0-.2.3-.5.5-.5zm2.9.6l.4.1.6.2c.2.2.3.4.2.7 0 .2-.4.3-.6.2l-.5-.2h-.3c-.3-.1-.4-.4-.3-.7 0-.2.3-.4.5-.3zm2.7 1.1l.4.2c.2.1.3.4.2.6-.1.3-.4.4-.6.3l-.4-.2c-.2-.1-.4-.4-.2-.7 0-.2.4-.3.6-.2z"/><text style="line-height:125%;text-align:start" font-family="Times New Roman" font-size="15.1" font-stretch="Condensed" font-weight="400" letter-spacing="0" transform="translate(403.5 227.7)" word-spacing="0"><tspan x="0" y="0"><tspan fill="#00f" dx="0" dy="0">-</tspan><tspan fill="#00f" dx="0" dy="0">2</tspan></tspan></text><text style="line-height:125%;text-align:start" x="-6.6" y="-23.6" font-family="Times New Roman" font-size="15.1" font-stretch="Condensed" font-weight="400" letter-spacing="0" transform="translate(403.5 227.7)" word-spacing="0"><tspan x="-6.6" y="-23.6"><tspan dx="0" dy="0">e</tspan><tspan dx="0" dy="0" font-size="9.4">0</tspan><tspan dx="0" dy="0">&apos;</tspan></tspan></text><text style="line-height:125%;text-align:start" x="22.7" y="-23.6" font-family="Times New Roman" font-size="15.1" font-stretch="Condensed" font-weight="400" letter-spacing="0" transform="translate(403.5 227.7)" word-spacing="0"><tspan x="22.7" y="-23.6"><tspan dx="0" dy="0">e</tspan><tspan dx="0" dy="0" font-size="9.4">1</tspan><tspan dx="0" dy="0">&apos;</tspan></tspan></text><text style="line-height:125%;text-align:start" x="-25.5" y="-18.9" font-family="Times New Roman" font-size="15.1" font-stretch="Condensed" font-weight="400" letter-spacing="0" transform="translate(403.5 227.7)" word-spacing="0"><tspan x="-25.5" y="-18.9"><tspan dx="0" dy="0">e</tspan><tspan dx="0" dy="0" font-size="9.4">2</tspan></tspan></text><text style="line-height:125%;text-align:start" x="-125.7" y="-32.1" font-family="Times New Roman" font-size="17.9" font-stretch="Condensed" font-weight="700" letter-spacing="0" transform="translate(403.5 227.7)" word-spacing="0"><tspan x="-125.7" y="-32.1"><tspan dx="0" dy="0">S</tspan><tspan dx="0" dy="2.8" font-size="11.3">2</tspan></tspan></text><text style="line-height:125%;text-align:start" x="-40.6" y="-30.2" font-family="Times New Roman" font-size="17.9" font-stretch="Condensed" font-weight="700" letter-spacing="0" transform="translate(403.5 227.7)" word-spacing="0"><tspan x="-40.6" y="-30.2"><tspan dx="0" dy="0">P</tspan></tspan></text><path fill="none" stroke="red" stroke-linecap="round" stroke-linejoin="round" stroke-width=".9" d="M89.4 9a5 5 0 1 0-10 0 5 5 0 0 0 10 0"/><text style="line-height:125%;text-align:start" font-family="宋体" font-size="15.1" font-stretch="Normal" font-weight="400" letter-spacing="0" transform="translate(96.4 14.2)" word-spacing="0"><tspan x="0" y="0"><tspan dx="0" dy="0">表示</tspan></tspan></text><text style="line-height:125%;text-align:start" x="30.2" font-family="Times New Roman" font-size="15.1" font-stretch="Condensed" font-weight="400" letter-spacing="0" transform="translate(96.4 14.2)" word-spacing="0"><tspan x="30.2" y="0"><tspan dx="0" dy="0">0</tspan><tspan dx="0" dy="0">°</tspan></tspan></text><path fill="red" fill-rule="evenodd" d="M89.4 28.6a5 5 0 0 0-5-5 5 5 0 1 0 5 5z"/><path fill="none" stroke="red" stroke-linecap="round" stroke-linejoin="round" stroke-width=".9" d="M89.4 28.6a5 5 0 0 0-5-5 5 5 0 1 0 5 5"/><text style="line-height:125%;text-align:start" font-family="宋体" font-size="15.1" font-stretch="Normal" font-weight="400" letter-spacing="0" transform="translate(96.4 34)" word-spacing="0"><tspan x="0" y="0"><tspan dx="0" dy="0">表示</tspan></tspan></text><text style="line-height:125%;text-align:start" x="30.2" font-family="Times New Roman" font-size="15.1" font-stretch="Condensed" font-weight="400" letter-spacing="0" transform="translate(96.4 34)" word-spacing="0"><tspan x="30.2" y="0"><tspan dx="0" dy="0">180</tspan><tspan dx="0" dy="0">°</tspan></tspan></text><text style="line-height:125%;text-align:start" y="23.6" font-family="宋体" font-size="15.1" font-stretch="Normal" font-weight="400" letter-spacing="0" transform="translate(96.4 34)" word-spacing="0"><tspan x="0" y="23.6"><tspan dx="0" dy="0">表示删除</tspan></tspan></text><path fill="none" stroke="#00f" stroke-linecap="round" stroke-linejoin="round" stroke-width="1.5" d="M80.8 47.2l9.8 9M90.6 47.2l-9.8 9"/><text style="line-height:125%;text-align:start" font-family="Times New Roman" font-size="15.1" font-stretch="Condensed" font-weight="400" letter-spacing="0" transform="translate(179.5 241)" word-spacing="0"><tspan x="0" y="0"><tspan dx="0" dy="0">E</tspan><tspan dx="0" dy="0">180 </tspan><tspan dx="0" dy="0">= </tspan><tspan dx="0" dy="0">{</tspan><tspan dx="0" dy="0">(</tspan><tspan dx="0" dy="0">e</tspan><tspan dx="0" dy="0">,</tspan><tspan dx="0" dy="0">b</tspan><tspan dx="0" dy="0">)</tspan><tspan dx="0" dy="0">}</tspan></tspan></text></svg>
