<svg xmlns="http://www.w3.org/2000/svg" width="236.4" height="330.2" version="1"><path fill="red" fill-rule="evenodd" d="M81.3 25.6a5.5 5.5 0 0 0-11 0c0 3 2.5 5.5 5.6 5.5 3 0 5.4-2.5 5.4-5.5z"/><path fill="none" stroke="red" stroke-linecap="round" stroke-linejoin="round" stroke-width="1.1" d="M81.3 25.6a5.5 5.5 0 0 0-11 0c0 3 2.5 5.5 5.6 5.5 3 0 5.4-2.5 5.4-5.5M149.8 46.1c0-3-2.5-5.5-5.5-5.5a5.5 5.5 0 0 0 0 11c3 0 5.5-2.4 5.5-5.5"/><path fill="red" fill-rule="evenodd" d="M122.4 114.6c0-3-2.4-5.4-5.5-5.4-3 0-5.4 2.4-5.4 5.4 0 3 2.4 5.5 5.4 5.5 3 0 5.5-2.5 5.5-5.5z"/><path fill="none" stroke="red" stroke-linecap="round" stroke-linejoin="round" stroke-width="1.1" d="M122.4 114.6c0-3-2.4-5.4-5.5-5.4-3 0-5.4 2.4-5.4 5.4 0 3 2.4 5.5 5.4 5.5 3 0 5.5-2.5 5.5-5.5"/><path fill="red" fill-rule="evenodd" d="M177.2 114.6c0-3-2.5-5.4-5.5-5.4s-5.4 2.4-5.4 5.4c0 3 2.4 5.5 5.4 5.5 3 0 5.5-2.5 5.5-5.5z"/><path fill="none" stroke="red" stroke-linecap="round" stroke-linejoin="round" stroke-width="1.1" d="M177.2 114.6c0-3-2.5-5.4-5.5-5.4s-5.4 2.4-5.4 5.4c0 3 2.4 5.5 5.4 5.5 3 0 5.5-2.5 5.5-5.5M149.8 169.4c0-3-2.5-5.5-5.5-5.5s-5.5 2.4-5.5 5.5c0 3 2.5 5.5 5.5 5.5s5.5-2.5 5.5-5.5"/><path fill="red" fill-rule="evenodd" d="M149.8 224.2c0-3-2.5-5.5-5.5-5.5s-5.5 2.5-5.5 5.5 2.5 5.4 5.5 5.4 5.5-2.4 5.5-5.4z"/><path fill="none" stroke="red" stroke-linecap="round" stroke-linejoin="round" stroke-width="1.1" d="M149.8 224.2c0-3-2.5-5.5-5.5-5.5s-5.5 2.5-5.5 5.5 2.5 5.4 5.5 5.4 5.5-2.4 5.5-5.4M149.8 292.7c0-3-2.5-5.6-5.5-5.6s-5.5 2.5-5.5 5.6c0 3 2.5 5.4 5.5 5.4s5.5-2.5 5.5-5.4"/><path fill="red" fill-rule="evenodd" d="M62.2 169.4c0-3-2.5-5.5-5.5-5.5s-5.5 2.4-5.5 5.5a5.5 5.5 0 0 0 11 0z"/><path fill="none" stroke="red" stroke-linecap="round" stroke-linejoin="round" stroke-width="1.1" d="M62.2 169.4c0-3-2.5-5.5-5.5-5.5s-5.5 2.4-5.5 5.5a5.5 5.5 0 0 0 11 0"/><path fill="none" stroke="#000" stroke-linecap="round" stroke-linejoin="round" stroke-width=".4" d="M115.9 120l-18.1 71.3 45.6 96M174 119.6l19.6 71.7-50 96M117 120.1l26.1 44M144.8 174.8l.2 44M144.3 229.6l-1.7 56M172.9 120l-29.2 44"/><path fill="none" stroke="#000" stroke-linecap="round" stroke-linejoin="round" stroke-width=".4" d="M173.9 120.6v57.5l-28.4 40.7M115.6 121v57.1l29.1 40.6M74.5 30.9L2 204.9l142.3 81.2M172.9 109.2l-28-57.6-27 57.6M144.2 53L56.7 164M57.3 174.8l86.6 111.8M80.5 28.5L142 41.3"/><path fill="none" stroke="#000" stroke-linecap="round" stroke-linejoin="round" stroke-width=".4" d="M145.7 53.3l89 138-91 94.4"/><text style="line-height:125%;text-align:start" font-family="Times New Roman" font-size="18.1" font-stretch="Condensed" font-weight="400" letter-spacing="0" transform="translate(71.2 17)" word-spacing="0"><tspan x="0" y="0"><tspan dx="0" dy="0">a</tspan></tspan></text><text style="line-height:125%;text-align:start" x="67.8" y="22.6" font-family="Times New Roman" font-size="18.1" font-stretch="Condensed" font-weight="400" letter-spacing="0" transform="translate(71.2 17)" word-spacing="0"><tspan x="67.8" y="22.6"><tspan dx="0" dy="0">b</tspan></tspan></text><text style="line-height:125%;text-align:start" x="53.1" y="104" font-family="Times New Roman" font-size="18.1" font-stretch="Condensed" font-weight="400" letter-spacing="0" transform="translate(71.2 17)" word-spacing="0"><tspan x="53.1" y="104"><tspan dx="0" dy="0">c</tspan></tspan></text><text style="line-height:125%;text-align:start" x="83.7" y="104" font-family="Times New Roman" font-size="18.1" font-stretch="Condensed" font-weight="400" letter-spacing="0" transform="translate(71.2 17)" word-spacing="0"><tspan x="83.7" y="104"><tspan dx="0" dy="0">d</tspan></tspan></text><text style="line-height:125%;text-align:start" x="-22.6" y="145.8" font-family="Times New Roman" font-size="18.1" font-stretch="Condensed" font-weight="400" letter-spacing="0" transform="translate(71.2 17)" word-spacing="0"><tspan x="-22.6" y="145.8"><tspan dx="0" dy="0">e</tspan></tspan></text><text style="line-height:125%;text-align:start" x="70.1" y="142.4" font-family="Times New Roman" font-size="18.1" font-stretch="Condensed" font-weight="400" letter-spacing="0" transform="translate(71.2 17)" word-spacing="0"><tspan x="70.1" y="142.4"><tspan dx="0" dy="0">f</tspan></tspan></text><text style="line-height:125%;text-align:start" x="80.3" y="210.3" font-family="Times New Roman" font-size="18.1" font-stretch="Condensed" font-weight="400" letter-spacing="0" transform="translate(71.2 17)" word-spacing="0"><tspan x="80.3" y="210.3"><tspan dx="0" dy="0">g</tspan></tspan></text><path fill="none" stroke="#00f" stroke-linecap="round" stroke-linejoin="round" stroke-width="1.8" d="M210.4 166.3l17.3 5.3M221 160.1l-4 17.7M118.3 192l17.3 5.3M129 185.8l-4 17.7M151.2 196.4l18 .7M159.8 187.7l.8 18.1"/><text style="line-height:125%;text-align:start" font-family="Times New Roman" font-size="21.5" font-stretch="Condensed" font-weight="700" letter-spacing="0" transform="translate(9 318.8)" word-spacing="0"><tspan x="0" y="0"><tspan dx="0" dy="0">(</tspan><tspan dx="0" dy="0">b</tspan><tspan dx="0" dy="0">)</tspan><tspan dx="0" dy="0" font-family="宋体" font-stretch="Normal">最终相位分配情况</tspan></tspan></text></svg>