<?xml version="1.0" encoding="utf-8" standalone="yes"?>
<!DOCTYPE svg PUBLIC "-//W3C//DTD SVG 1.1//EN" "http://www.w3.org/Graphics/SVG/1.1/DTD/svg11.dtd">
<svg width="732" height="331" viewBox="0 0 732 331" style="fill:none;stroke:none;fill-rule:evenodd;clip-rule:evenodd;stroke-linecap:round;stroke-linejoin:round;stroke-miterlimit:1.5;" version="1.1" xmlns="http://www.w3.org/2000/svg" xmlns:xlink="http://www.w3.org/1999/xlink"><style id="fontImports">@import url("https://fonts.googleapis.com/css2?family=Shantell+Sans:wght@300..800&amp;display=block");</style><rect id="" x="0" y="0" width="732" height="330.118" style="fill: #ffffff;"></rect><g id="items" style="isolation: isolate"><g id="blend" style="mix-blend-mode:multiply"><g id="g-root-4.Vector_sy_940rhm1nowhl4-fill" data-item-order="-93321" data-item-id="4.Vector_sy_940rhm1nowhl4" data-item-class="ScenePart Part Indexed Fill Stroke" data-item-index="4" data-renderer-id="0" transform="translate(163.7030029296875, 57.06298828125)"><g id="4.Vector_sy_940rhm1nowhl4-fill" stroke="none" fill="#fde6cf"><g><path d="M 110.974997 70.788996L 116.622997 88.936996L 98.081997 93.118996L 101.669997 86.903996L 79.046997 73.842996C 68.091997 87.338996 48.651997 91.262996 33.118997 82.294996C 15.899997 72.353996 9.999997 50.336996 19.941997 33.117996C 29.882997 15.899996 51.899997 9.999996 69.118997 19.940996C 84.630997 28.896996 90.955997 47.654996 84.787997 63.874996L 107.421997 76.941996L 110.974997 70.788996Z"></path></g></g></g><g id="g-root-3.Vector_sy_940rhm1nowhl3-fill" data-item-order="-93319" data-item-id="3.Vector_sy_940rhm1nowhl3" data-item-class="ScenePart Part Indexed Fill Stroke" data-item-index="3" data-renderer-id="0" transform="translate(163.3900146484375, 223.967041015625)"><g id="3.Vector_sy_940rhm1nowhl3-fill" stroke="none" fill="#ecf7d5"><g><path d="M 111.028001 32.33099L 116.676001 14.18299L 98.136001 9.99999L 101.724001 16.21499L 79.046001 29.30799C 68.091001 15.81199 48.652001 11.88799 33.118001 20.85599C 15.899001 30.79699 10.000001 52.81399 19.941001 70.03299C 29.882001 87.25199 51.899001 93.15099 69.118001 83.20999C 84.630001 74.25399 90.955001 55.49599 84.788001 39.27699L 107.476001 26.17799L 111.028001 32.33099Z"></path></g></g></g><g id="g-root-2.Vector_sy_940rhm1nowhl2-fill" data-item-order="-93317" data-item-id="2.Vector_sy_940rhm1nowhl2" data-item-class="ScenePart Part Indexed Fill Stroke" data-item-index="2" data-renderer-id="0" transform="translate(429.9339599609375, 223.967041015625)"><g id="2.Vector_sy_940rhm1nowhl2-fill" stroke="none" fill="#d5f7e8"><g><path d="M 28.54001 9.99999L 10.00001 14.18299L 15.64801 32.33099L 19.23601 26.11599L 41.91401 39.20899C 35.70301 55.44399 42.02401 74.24099 57.55801 83.20999C 74.77701 93.15099 96.79401 87.25199 106.73501 70.03299C 116.67601 52.81399 110.77701 30.79699 93.55801 20.85599C 78.04601 11.89999 58.63901 15.80099 47.67601 29.25199L 24.98801 16.15299L 28.54001 9.99999Z"></path></g></g></g><g id="g-root-1.Vector_sy_940rhm1nowhl1-fill" data-item-order="-93315" data-item-id="1.Vector_sy_940rhm1nowhl1" data-item-class="ScenePart Part Indexed Indexed_1 Fill Stroke" data-item-index="1" data-renderer-id="0" transform="translate(429.67401123046875, 57.06298828125)"><g id="1.Vector_sy_940rhm1nowhl1-fill" stroke="none" fill="#cef3ff"><g><path d="M 28.540989 93.119996L 9.999989 88.936996L 15.647989 70.788996L 19.236989 77.003996L 41.859989 63.941996C 35.648989 47.706996 41.970989 28.909996 57.503989 19.940996C 74.722989 9.999996 96.739989 15.899996 106.680989 33.117996C 116.622989 50.336996 110.722989 72.353996 93.503989 82.294996C 77.991989 91.250996 58.584989 87.349996 47.621989 73.898996L 24.987989 86.965996L 28.540989 93.119996Z"></path></g></g></g><g id="g-root-0.cr-big_cr_dju9m21nowgss-fill" data-item-order="-93313" data-item-id="0.cr-big_cr_dju9m21nowgss" data-item-class="Shape Stroke Fill ScenePart Part Indexed_0 ColorFillGray ColorStrokeBlack" data-item-index="0" data-renderer-id="0" transform="translate(278, 109.99609375)"><g id="0.cr-big_cr_dju9m21nowgss-fill" stroke="none" fill="#eaeaea"><g><path d="M 10 82C 10.000001 121.764503 42.235499 154.000001 82.000001 154.000001C 121.764503 154.000001 154.000001 121.764503 154.000001 82.000001C 154.000001 42.235499 121.764503 10.000001 82.000001 10.000001C 42.235499 10.000001 10.000001 42.235499 10.000001 82.000001"></path></g></g></g><g id="g-root-tx_applicat_147drfu1nowiz1-fill" data-item-order="0" data-item-id="tx_applicat_147drfu1nowiz1" data-item-class="Label Stroke SceneTarget SceneTitle Title ColorStrokeBlack" data-item-index="none" data-renderer-id="0" transform="translate(110, 2)"><g id="tx_applicat_147drfu1nowiz1-fill" stroke="none" fill="#484848"><g><text style="font: 20px &quot;Shantell Sans&quot;, cursive; white-space: pre;"><tspan x="12.26" y="35.5" dominant-baseline="ideographic">Applications of n-Dimensional Spherical Sampling</tspan></text></g></g></g><g id="g-root-tx_filterba_4o79d61nowidd-fill" data-item-order="0" data-item-id="tx_filterba_4o79d61nowidd" data-item-class="Label Stroke SceneTarget Indexed ColorStrokeBlack" data-item-index="4" data-renderer-id="0" transform="translate(38, 74)"><g id="tx_filterba_4o79d61nowidd-fill" stroke="none" fill="#484848"><g><text style="font: 20px &quot;Shantell Sans&quot;, cursive; white-space: pre;"><tspan x="22.59" y="35.5" dominant-baseline="ideographic">Filter Bank </tspan><tspan x="64.73" y="59.5" dominant-baseline="ideographic">Design</tspan></text></g></g></g><g id="g-root-2_59dt61np0q32-fill" data-item-order="0" data-item-id="2_59dt61np0q32" data-item-class="Icon Stroke SceneTarget Indexed InsideFill" data-item-index="4" data-renderer-id="0" transform="translate(180, 74)"></g><g id="g-root-1_1lvjei21np0ob3-fill" data-item-order="0" data-item-id="1_1lvjei21np0ob3" data-item-class="Icon Stroke SceneTarget Indexed Indexed_1 InsideFill" data-item-index="1" data-renderer-id="0" transform="translate(472, 74)"></g><g id="g-root-tx_robotmot_1d30roq1nowi6c-fill" data-item-order="0" data-item-id="tx_robotmot_1d30roq1nowi6c" data-item-class="Label Stroke SceneTarget Indexed Indexed_1 ColorStrokeBlack" data-item-index="1" data-renderer-id="0" transform="translate(542, 74)"><g id="tx_robotmot_1d30roq1nowi6c-fill" stroke="none" fill="#484848"><g><text style="font: 20px &quot;Shantell Sans&quot;, cursive; white-space: pre;"><tspan x="12" y="35.5" dominant-baseline="ideographic">Robot Motion </tspan><tspan x="12" y="59.5" dominant-baseline="ideographic">Planning</tspan></text></g></g></g><g id="g-root-chec_mdlulm1np0pvp-fill" data-item-order="0" data-item-id="chec_mdlulm1np0pvp" data-item-class="Icon Stroke SceneTarget SceneEnd InsideFill InsideGrayFill ColorStrokeBlack" data-item-index="none" data-renderer-id="0" transform="translate(314, 145.99609375)"></g><g id="g-root-tx_multivar_1utob3e1nowiyy-fill" data-item-order="0" data-item-id="tx_multivar_1utob3e1nowiyy" data-item-class="Label Stroke SceneTarget Indexed ColorStrokeBlack" data-item-index="3" data-renderer-id="0" transform="translate(2, 230)"><g id="tx_multivar_1utob3e1nowiyy-fill" stroke="none" fill="#484848"><g><text style="font: 20px &quot;Shantell Sans&quot;, cursive; white-space: pre;"><tspan x="45.42" y="35.5" dominant-baseline="ideographic">Multivariate </tspan><tspan x="14.3" y="59.5" dominant-baseline="ideographic">Empirical Mode </tspan><tspan x="24.92" y="83.5" dominant-baseline="ideographic">Decomposition</tspan></text></g></g></g><g id="g-root-laye_qtfcq21np0p3g-fill" data-item-order="0" data-item-id="laye_qtfcq21np0p3g" data-item-class="Icon Stroke SceneTarget Indexed InsideFill" data-item-index="3" data-renderer-id="0" transform="translate(180, 242)"></g><g id="g-root-2_zlbiga1np4wsn-fill" data-item-order="0" data-item-id="2_zlbiga1np4wsn" data-item-class="Icon Stroke SceneTarget Indexed InsideFill" data-item-index="2" data-renderer-id="0" transform="translate(472, 242)"></g><g id="g-root-tx_wireless_1hiu9t61nowhe3-fill" data-item-order="0" data-item-id="tx_wireless_1hiu9t61nowhe3" data-item-class="Label Stroke SceneTarget Indexed ColorStrokeBlack" data-item-index="2" data-renderer-id="0" transform="translate(542, 230)"><g id="tx_wireless_1hiu9t61nowhe3-fill" stroke="none" fill="#484848"><g><text style="font: 20px &quot;Shantell Sans&quot;, cursive; white-space: pre;"><tspan x="12" y="35.5" dominant-baseline="ideographic">Wireless </tspan><tspan x="12" y="59.5" dominant-baseline="ideographic">Communication </tspan><tspan x="12" y="83.5" dominant-baseline="ideographic">Coding</tspan></text></g></g></g><g id="g-root-4.Vector_sy_940rhm1nowhl4-stroke" data-item-order="-93321" data-item-id="4.Vector_sy_940rhm1nowhl4" data-item-class="ScenePart Part Indexed Fill Stroke" data-item-index="4" data-renderer-id="0" transform="translate(163.7030029296875, 57.06298828125)"><g id="4.Vector_sy_940rhm1nowhl4-stroke" fill="none" stroke-linecap="round" stroke-linejoin="round" stroke-miterlimit="4" stroke="#dd8433" stroke-width="2"><g><path d="M 110.974997 70.788996L 116.622997 88.936996L 98.081997 93.118996L 101.669997 86.903996L 79.046997 73.842996C 68.091997 87.338996 48.651997 91.262996 33.118997 82.294996C 15.899997 72.353996 9.999997 50.336996 19.941997 33.117996C 29.882997 15.899996 51.899997 9.999996 69.118997 19.940996C 84.630997 28.896996 90.955997 47.654996 84.787997 63.874996L 107.421997 76.941996L 110.974997 70.788996Z"></path></g></g></g><g id="g-root-3.Vector_sy_940rhm1nowhl3-stroke" data-item-order="-93319" data-item-id="3.Vector_sy_940rhm1nowhl3" data-item-class="ScenePart Part Indexed Fill Stroke" data-item-index="3" data-renderer-id="0" transform="translate(163.3900146484375, 223.967041015625)"><g id="3.Vector_sy_940rhm1nowhl3-stroke" fill="none" stroke-linecap="round" stroke-linejoin="round" stroke-miterlimit="4" stroke="#93c131" stroke-width="2"><g><path d="M 111.028001 32.33099L 116.676001 14.18299L 98.136001 9.99999L 101.724001 16.21499L 79.046001 29.30799C 68.091001 15.81199 48.652001 11.88799 33.118001 20.85599C 15.899001 30.79699 10.000001 52.81399 19.941001 70.03299C 29.882001 87.25199 51.899001 93.15099 69.118001 83.20999C 84.630001 74.25399 90.955001 55.49599 84.788001 39.27699L 107.476001 26.17799L 111.028001 32.33099Z"></path></g></g></g><g id="g-root-2.Vector_sy_940rhm1nowhl2-stroke" data-item-order="-93317" data-item-id="2.Vector_sy_940rhm1nowhl2" data-item-class="ScenePart Part Indexed Fill Stroke" data-item-index="2" data-renderer-id="0" transform="translate(429.9339599609375, 223.967041015625)"><g id="2.Vector_sy_940rhm1nowhl2-stroke" fill="none" stroke-linecap="round" stroke-linejoin="round" stroke-miterlimit="4" stroke="#3bc482" stroke-width="2"><g><path d="M 28.54001 9.99999L 10.00001 14.18299L 15.64801 32.33099L 19.23601 26.11599L 41.91401 39.20899C 35.70301 55.44399 42.02401 74.24099 57.55801 83.20999C 74.77701 93.15099 96.79401 87.25199 106.73501 70.03299C 116.67601 52.81399 110.77701 30.79699 93.55801 20.85599C 78.04601 11.89999 58.63901 15.80099 47.67601 29.25199L 24.98801 16.15299L 28.54001 9.99999Z"></path></g></g></g><g id="g-root-1.Vector_sy_940rhm1nowhl1-stroke" data-item-order="-93315" data-item-id="1.Vector_sy_940rhm1nowhl1" data-item-class="ScenePart Part Indexed Indexed_1 Fill Stroke" data-item-index="1" data-renderer-id="0" transform="translate(429.67401123046875, 57.06298828125)"><g id="1.Vector_sy_940rhm1nowhl1-stroke" fill="none" stroke-linecap="round" stroke-linejoin="round" stroke-miterlimit="4" stroke="#17b0e3" stroke-width="2"><g><path d="M 28.540989 93.119996L 9.999989 88.936996L 15.647989 70.788996L 19.236989 77.003996L 41.859989 63.941996C 35.648989 47.706996 41.970989 28.909996 57.503989 19.940996C 74.722989 9.999996 96.739989 15.899996 106.680989 33.117996C 116.622989 50.336996 110.722989 72.353996 93.503989 82.294996C 77.991989 91.250996 58.584989 87.349996 47.621989 73.898996L 24.987989 86.965996L 28.540989 93.119996Z"></path></g></g></g><g id="g-root-0.cr-big_cr_dju9m21nowgss-stroke" data-item-order="-93313" data-item-id="0.cr-big_cr_dju9m21nowgss" data-item-class="Shape Stroke Fill ScenePart Part Indexed_0 ColorFillGray ColorStrokeBlack" data-item-index="0" data-renderer-id="0" transform="translate(278, 109.99609375)"><g id="0.cr-big_cr_dju9m21nowgss-stroke" fill="none" stroke-linecap="round" stroke-linejoin="round" stroke-miterlimit="4" stroke="#ffffff" stroke-width="2"><g><path d="M 10 82C 10.000001 121.764503 42.235499 154.000001 82.000001 154.000001C 121.764503 154.000001 154.000001 121.764503 154.000001 82.000001C 154.000001 42.235499 121.764503 10.000001 82.000001 10.000001C 42.235499 10.000001 10.000001 42.235499 10.000001 82.000001"></path></g></g></g><g id="g-root-tx_applicat_147drfu1nowiz1-stroke" data-item-order="0" data-item-id="tx_applicat_147drfu1nowiz1" data-item-class="Label Stroke SceneTarget SceneTitle Title ColorStrokeBlack" data-item-index="none" data-renderer-id="0" transform="translate(110, 2)"></g><g id="g-root-tx_filterba_4o79d61nowidd-stroke" data-item-order="0" data-item-id="tx_filterba_4o79d61nowidd" data-item-class="Label Stroke SceneTarget Indexed ColorStrokeBlack" data-item-index="4" data-renderer-id="0" transform="translate(38, 74)"></g><g id="g-root-2_59dt61np0q32-stroke" data-item-order="0" data-item-id="2_59dt61np0q32" data-item-class="Icon Stroke SceneTarget Indexed InsideFill" data-item-index="4" data-renderer-id="0" transform="translate(180, 74)"><g id="2_59dt61np0q32-stroke" fill="none" stroke-linecap="round" stroke-linejoin="round" stroke-miterlimit="4" stroke="#dd8433" stroke-width="2"><g><path d="M 53.622002 14.2C 54.076527 13.593965 54.149639 12.783141 53.810856 12.105573C 53.472069 11.428005 52.779545 11 52.021999 11L 15.98 11C 15.222456 11 14.52993 11.428005 14.191145 12.105573C 13.852362 12.783141 13.925473 13.593965 14.38 14.2L 30 35.183998L 30 55C 30 56.104568 30.89543 57 32 57L 36 57C 37.104568 57 38 56.104568 38 55L 38 35.183998Z"></path></g></g></g><g id="g-root-1_1lvjei21np0ob3-stroke" data-item-order="0" data-item-id="1_1lvjei21np0ob3" data-item-class="Icon Stroke SceneTarget Indexed Indexed_1 InsideFill" data-item-index="1" data-renderer-id="0" transform="translate(472, 74)"><g id="1_1lvjei21np0ob3-stroke" fill="none" stroke-linecap="round" stroke-linejoin="round" stroke-miterlimit="4" stroke="#17b0e3" stroke-width="2"><g><path d="M 29.521999 47.594002L 19.062 40.073997M 24.091999 34.346001L 32.690002 40.720001M 11.642 33.767998C 11.642 37.21315 14.434848 40.006001 17.880001 40.006001C 21.325153 40.006001 24.118 37.21315 24.118 33.767998C 24.118 30.322847 21.325153 27.530001 17.880001 27.530001C 14.434848 27.530001 11.642 30.322847 11.642 33.767998M 23.594 31.266001L 32.93 22.174M 30.063999 15.618L 17.504 27.542M 29.879999 17.274C 29.879478 20.290947 32.32505 22.736942 35.341999 22.736942C 38.358948 22.736942 40.80452 20.290947 40.804001 17.274C 40.80452 14.257052 38.358948 11.811057 35.341999 11.811057C 32.32505 11.811057 29.879478 14.257052 29.879999 17.274M 40.400002 19.338001L 45.348 24.4C 46.378819 25.452827 46.401703 27.129435 45.400002 28.210001L 45.400002 28.209999C 44.885574 28.763903 44.166599 29.08275 43.410717 29.092199C 42.654835 29.101646 41.928116 28.800871 41.400002 28.260002L 35.959999 22.702M 12.164 56.189999L 56.164001 56.189999M 29.521999 51.338001L 29.521999 45.894001C 29.580809 42.721199 32.169655 40.179893 35.343002 40.179893C 38.51635 40.179893 41.105194 42.721199 41.164001 45.894001L 41.164001 51.254002M 16.880001 33.436001C 16.880001 33.988285 17.327715 34.436001 17.880001 34.436001C 18.432285 34.436001 18.880001 33.988285 18.880001 33.436001C 18.880001 32.883713 18.432285 32.436001 17.880001 32.436001C 17.327715 32.436001 16.880001 32.883713 16.880001 33.436001M 34.341999 45.849998C 34.341999 46.402287 34.789715 46.849998 35.341999 46.849998C 35.894287 46.849998 36.341999 46.402287 36.341999 45.849998C 36.341999 45.297714 35.894287 44.849998 35.341999 44.849998C 34.789715 44.849998 34.341999 45.297714 34.341999 45.849998M 28.358 51.338001L 42.231998 51.338001C 43.336571 51.338001 44.231998 52.233429 44.231998 53.338001L 44.231998 56.189999L 44.231998 56.189999L 26.358 56.189999L 26.358 56.189999L 26.358 53.338001C 26.358 52.233429 27.253431 51.338001 28.358 51.338001ZM 44.799999 23.818001C 45.17907 23.343254 45.717918 23.022644 46.316002 22.916C 48.798683 22.461636 51.354969 23.132736 53.294308 24.748016C 55.233646 26.363295 56.355934 28.756084 56.358002 31.280001C 56.358002 32.660713 55.238712 33.779999 53.858002 33.779999C 52.477287 33.779999 51.358002 32.660713 51.358002 31.280001C 51.35656 30.23682 50.890659 29.248459 50.086891 28.583487C 49.283123 27.918514 48.224987 27.646002 47.200001 27.84C 46.818302 27.907465 46.426197 27.886251 46.054001 27.778002M 44.243999 28.851999C 44.328419 29.323595 44.275661 29.809511 44.092003 30.252001C 43.681549 31.211271 43.719944 32.303558 44.196747 33.231644C 44.67355 34.159721 45.539146 34.827038 46.558002 35.052002C 47.906677 35.349129 48.759129 36.683319 48.461998 38.031998C 48.164871 39.38068 46.830681 40.233131 45.481998 39.935997C 43.019894 39.389999 40.92701 37.77961 39.768383 35.539597C 38.609756 33.299583 38.504852 30.660921 39.481998 28.335999C 39.621155 27.998751 39.832825 27.696262 40.102001 27.450001"></path></g></g></g><g id="g-root-tx_robotmot_1d30roq1nowi6c-stroke" data-item-order="0" data-item-id="tx_robotmot_1d30roq1nowi6c" data-item-class="Label Stroke SceneTarget Indexed Indexed_1 ColorStrokeBlack" data-item-index="1" data-renderer-id="0" transform="translate(542, 74)"></g><g id="g-root-chec_mdlulm1np0pvp-stroke" data-item-order="0" data-item-id="chec_mdlulm1np0pvp" data-item-class="Icon Stroke SceneTarget SceneEnd InsideFill InsideGrayFill ColorStrokeBlack" data-item-index="none" data-renderer-id="0" transform="translate(314, 145.99609375)"><g id="chec_mdlulm1np0pvp-stroke" fill="none" stroke-linecap="round" stroke-linejoin="round" stroke-miterlimit="4" stroke="#484848" stroke-width="2"><g><path d="M 15.142857 20.285713L 76.85714 20.285713C 76.85714 20.285713 79.428574 20.285713 79.428574 22.857143L 79.428574 64C 79.428574 64 79.428574 66.571426 76.85714 66.571426L 15.142857 66.571426C 15.142857 66.571426 12.571428 66.571426 12.571428 64L 12.571428 22.857143C 12.571428 22.857143 12.571428 20.285713 15.142857 20.285713M 40.857143 66.571426L 35.714287 79.428574M 51.142857 66.571426L 56.285713 79.428574M 30.571428 79.428574L 61.42857 79.428574M 33.142857 46L 43.42857 53.714287L 61.42857 33.142857"></path></g></g></g><g id="g-root-tx_multivar_1utob3e1nowiyy-stroke" data-item-order="0" data-item-id="tx_multivar_1utob3e1nowiyy" data-item-class="Label Stroke SceneTarget Indexed ColorStrokeBlack" data-item-index="3" data-renderer-id="0" transform="translate(2, 230)"></g><g id="g-root-laye_qtfcq21np0p3g-stroke" data-item-order="0" data-item-id="laye_qtfcq21np0p3g" data-item-class="Icon Stroke SceneTarget Indexed InsideFill" data-item-index="3" data-renderer-id="0" transform="translate(180, 242)"><g id="laye_qtfcq21np0p3g-stroke" fill="none" stroke-linecap="round" stroke-linejoin="round" stroke-miterlimit="4" stroke="#93c131" stroke-width="2"><g><path d="M 34.419998 34.879997C 34.152996 35.000645 33.847004 35.000645 33.580002 34.879997L 11.64 25.34C 11.2493 25.171404 10.997291 24.785515 11 24.359999C 11.007405 23.937527 11.256151 23.556633 11.64 23.380001L 33.639999 13.86C 33.907005 13.739355 34.212997 13.739355 34.48 13.86L 56.48 23.380001C 56.86385 23.556633 57.112598 23.937527 57.120003 24.360001C 57.122707 24.785515 56.870697 25.171404 56.479996 25.34ZM 56.360001 31.76L 34.360001 41.299999C 34.092995 41.420647 33.787003 41.420647 33.52 41.299999L 11.52 31.76M 56.360001 38.200001L 34.360001 47.720001C 34.092995 47.840645 33.787003 47.840645 33.52 47.720001L 11.64 38.200001M 56.360001 44.619999L 34.360001 54.139999C 34.092995 54.260643 33.787003 54.260643 33.52 54.139999L 11.52 44.619999"></path></g></g></g><g id="g-root-2_zlbiga1np4wsn-stroke" data-item-order="0" data-item-id="2_zlbiga1np4wsn" data-item-class="Icon Stroke SceneTarget Indexed InsideFill" data-item-index="2" data-renderer-id="0" transform="translate(472, 242)"><g id="2_zlbiga1np4wsn-stroke" fill="none" stroke-linecap="round" stroke-linejoin="round" stroke-miterlimit="4" stroke="#3bc482" stroke-width="2"><g><path d="M 34 39.996002L 34 56.995998M 49.264 18C 58.246784 26.982183 58.246784 41.545818 49.264 50.528M 43.599998 23.653999C 49.458397 29.511957 49.458397 39.010048 43.600002 44.868M 18.736 18C 9.753216 26.982183 9.753216 41.545818 18.736 50.528M 24.4 23.653999C 18.541605 29.511957 18.541605 39.010048 24.400002 44.868M 28 33.996002C 28 37.309708 30.686293 39.996002 34 39.996002C 37.313709 39.996002 40 37.309708 40 33.996002C 40 30.682293 37.313709 27.996 34 27.996C 30.686293 27.996 28 30.682293 28 33.996002Z"></path></g></g></g><g id="g-root-tx_wireless_1hiu9t61nowhe3-stroke" data-item-order="0" data-item-id="tx_wireless_1hiu9t61nowhe3" data-item-class="Label Stroke SceneTarget Indexed ColorStrokeBlack" data-item-index="2" data-renderer-id="0" transform="translate(542, 230)"></g></g></g></svg>