<svg xmlns="http://www.w3.org/2000/svg" width="545.3" height="410.7"><defs><clipPath id="a"><path d="M0 7v3073h4090V7z"/></clipPath><clipPath id="b"><path d="M532.5 1800.8h1371.7v1048.4H532.5z"/></clipPath><clipPath id="c"><path d="M0 7h4090v3073H0z"/></clipPath><clipPath id="d"><path d="M2335.8 1800.8h1371.7v1048.4H2335.8z"/></clipPath><clipPath id="e"><path d="M0 7h4090v3073H0z"/></clipPath><clipPath id="f"><path d="M532.5 345h1371.7v1048.3H532.5z"/></clipPath><clipPath id="g"><path d="M0 7h4090v3073H0z"/></clipPath><clipPath id="h"><path d="M2335.8 345h1371.7v1048.3H2335.8z"/></clipPath><clipPath id="i"><path d="M0 7h4090v3073H0z"/></clipPath></defs><g clip-path="url(#a)" transform="matrix(.13333 0 0 -.13333 0 410.7)"><path fill="#fff" d="M0 7h4090v3073H0z"/><path fill="#fff" fill-rule="evenodd" d="M532.5 1801.7h1370.8v1047.5H532.5z"/><path fill="none" stroke="#fff" stroke-linejoin="round" stroke-miterlimit="10" stroke-width="5" d="M532.5 1801.7v1047.5h1370.8V1801.7H532.5"/></g><g clip-path="url(#b)" transform="matrix(.13333 0 0 -.13333 0 410.7)"><path fill="#00008f" fill-rule="evenodd" d="M532.5 2850h1370.8V1801.7H531.7v1047.5l.8.8"/><path fill="none" stroke="#000" stroke-linejoin="round" stroke-miterlimit="10" stroke-width="5" d="M532.5 2850h1370.8V1801.7H531.7v1047.5l.8.8"/><path fill="#0000af" fill-rule="evenodd" d="M532.5 2850h1370.8V1801.7H531.7v1047.5l.8.8"/><path fill="none" stroke="#000" stroke-linejoin="round" stroke-miterlimit="10" stroke-width="5" d="M532.5 2850h1370.8V1801.7H531.7v1047.5l.8.8"/><path fill="#0010ff" fill-rule="evenodd" d="M532.5 2850h1370.8V1801.7H531.7v1047.5l.8.8"/><path fill="none" stroke="#000" stroke-linejoin="round" stroke-miterlimit="10" stroke-width="5" d="M532.5 2850h1370.8V1801.7H531.7v1047.5l.8.8"/><path fill="#0080ff" fill-rule="evenodd" d="M532.5 2850h1370.8V1801.7H531.7v1047.5l.8.8"/><path fill="none" stroke="#000" stroke-linejoin="round" stroke-miterlimit="10" stroke-width="5" d="M532.5 2850h1370.8V1801.7H531.7v1047.5l.8.8"/><path fill="#00dfff" fill-rule="evenodd" d="M532.5 2850h805.8l60.9-.8-15-104.2 35-25 79.1 25-69.1 104.2 70.8.8h322.5l47.5-.8 33.3-10V2235l-80.8.8-21.7-15 21.7-59.1 80.8 28.3v-388.3H531.7v1047.5l.8.8"/><path fill="none" stroke="#000" stroke-linejoin="round" stroke-miterlimit="10" stroke-width="5" d="M532.5 2850h805.8l60.9-.8-15-104.2 35-25 79.1 25-69.1 104.2 70.8.8h322.5l47.5-.8 33.3-10V2235l-80.8.8-21.7-15 21.7-59.1 80.8 28.3v-388.3H531.7v1047.5l.8.8"/><path fill="#40ffbf" fill-rule="evenodd" d="M532.5 2850h483.3l55.9-.8 25-61.7 80 61.7h.8l80-95 80.8 43.3 19.2-52.5 61.7-44.2 80.8-44.1 80 7.5 80.8 20.8 80.9 57.5 7.5 2.5-7.5 6.7-80.9 54.1-80.8-18.3-74.2 61.7 74.2.8h161.7l42.5-.8 38.3-58.4 80.8 22.5v-557.5l-80.8 2.5-55-37.5-12.5-104.1 67.5-20 36.7 20 44.1 27.5v-220l-16.6-17.5 16.6-35.9v-69.1H1186.7l15.8 105 55 77.5 80.8 13.3 33.4 14.2-33.4 15.8-80.8 80-17.5 9.2-62.5 29.1-19.2-29.1-46.6-105-15-35.9-79.2-69.1-1.7-15.9-80.8-27.5-35-61.6H531.7v629.1l.8 94.2 80-23.3 80.8-19.2 80.9 20.8 80.8-11.6 80-10.9 80.8 23.4 22.5 30.8-22.5 48.3-28.3 56.7-52.5 46.7-80-41.7-80.8 24.2-80.9 2.5-80.8 2.5-80-27.5-.8 98.3v104.2l.8.8"/><path fill="none" stroke="#000" stroke-linejoin="round" stroke-miterlimit="10" stroke-width="5" d="M532.5 2850h483.3l55.9-.8 25-61.7 80 61.7h.8l80-95 80.8 43.3 19.2-52.5 61.7-44.2 80.8-44.1 80 7.5 80.8 20.8 80.9 57.5 7.5 2.5-7.5 6.7-80.9 54.1-80.8-18.3-74.2 61.7 74.2.8h161.7l42.5-.8 38.3-58.4 80.8 22.5v-557.5l-80.8 2.5-55-37.5-12.5-104.1 67.5-20 36.7 20 44.1 27.5v-220l-16.6-17.5 16.6-35.9v-69.1H1186.7l15.8 105 55 77.5 80.8 13.3 33.4 14.2-33.4 15.8-80.8 80-17.5 9.2-62.5 29.1-19.2-29.1-46.6-105-15-35.9-79.2-69.1-1.7-15.9-80.8-27.5-35-61.6H531.7v629.1l.8 94.2 80-23.3 80.8-19.2 80.9 20.8 80.8-11.6 80-10.9 80.8 23.4 22.5 30.8-22.5 48.3-28.3 56.7-52.5 46.7-80-41.7-80.8 24.2-80.9 2.5-80.8 2.5-80-27.5-.8 98.3v104.2l.8.8"/><path fill="#9fff60" fill-rule="evenodd" d="M532.5 2485l80-5 80.8-10 80.9 15.8 80.8-18.3 80-30 80.8 30.8 29.2-37.5 29.2-105 22.5-17.5 75-87.5-75-104.1v-.9.9l-46.7 104.1-34.2 60.9-80.8-27.5-43.3-33.4 43.3-61.6 35-42.5 43.3-105-78.3-52.5-31.7-52.5-48.3-67.5-53.3 67.5-27.5 18.3-80.9 42.5-41.6 44.2-39.2 68.3-22.5 36.7-57.5 38.3-.8 65.8v210l.8 54.2"/><path fill="none" stroke="#000" stroke-linejoin="round" stroke-miterlimit="10" stroke-width="5" d="M532.5 2485l80-5 80.8-10 80.9 15.8 80.8-18.3 80-30 80.8 30.8 29.2-37.5 29.2-105 22.5-17.5 75-87.5-75-104.1v-.9.9l-46.7 104.1-34.2 60.9-80.8-27.5-43.3-33.4 43.3-61.6 35-42.5 43.3-105-78.3-52.5-31.7-52.5-48.3-67.5-53.3 67.5-27.5 18.3-80.9 42.5-41.6 44.2-39.2 68.3-22.5 36.7-57.5 38.3-.8 65.8v210l.8 54.2"/><path fill="#9fff60" fill-rule="evenodd" d="M1903.3 2104.2v-157.5l-36.6-40 36.6-80.9v-24.1H1214.2l8.3 105 35 49.1 80.8.9 80.9 40.8 66.6 14.2-66.6 32.5-80.9 28.3-40.8 44.2-40 71.6-53.3 32.5 53.3 50.9 46.7-50.9 34.1-25 49.2 25 3.3 105 28.4 17.5 80.8 1.7 28.3-19.2-28.3-35.8-65-69.2 65-41.6 34.2-62.5 45.8-51.7 80.8 29.2 80.9 1.6 80.8-36.6 80.8 45"/><path fill="none" stroke="#000" stroke-linejoin="round" stroke-miterlimit="10" stroke-width="5" d="M1903.3 2104.2v-157.5l-36.6-40 36.6-80.9v-24.1H1214.2l8.3 105 35 49.1 80.8.9 80.9 40.8 66.6 14.2-66.6 32.5-80.9 28.3-40.8 44.2-40 71.6-53.3 32.5 53.3 50.9 46.7-50.9 34.1-25 49.2 25 3.3 105 28.4 17.5 80.8 1.7 28.3-19.2-28.3-35.8-65-69.2 65-41.6 34.2-62.5 45.8-51.7 80.8 29.2 80.9 1.6 80.8-36.6 80.8 45"/><path fill="#ff0" fill-rule="evenodd" d="M1903.3 2072.5v-104.2l-57.5-61.6 40.9-105H1241.7l1.6 105 14.2 20 80.8-10 80.9 52.5 80.8 3.3 46.7 39.2 33.3 20.8 80.8 30.8 80.9 9.2 80.8-51.7 80.8 51.7"/><path fill="none" stroke="#000" stroke-linejoin="round" stroke-miterlimit="10" stroke-width="5" d="M1903.3 2072.5v-104.2l-57.5-61.6 40.9-105H1241.7l1.6 105 14.2 20 80.8-10 80.9 52.5 80.8 3.3 46.7 39.2 33.3 20.8 80.8 30.8 80.9 9.2 80.8-51.7 80.8 51.7"/><path fill="#ff0" fill-rule="evenodd" d="M532.5 2445.8l80 11.7 80.8.8 80.9 9.2 80.8-25 29.2-11.7 50.8-41.6 75.8 41.6 5 1.7 1.7-1.7 18.3-105-20-15-80.8-25-80-60.8-80.8 10-80.9 19.2-39.1-33.4-41.7-73.3-80 51.7-.8 21.6v210l.8 15"/><path fill="none" stroke="#000" stroke-linejoin="round" stroke-miterlimit="10" stroke-width="5" d="M532.5 2445.8l80 11.7 80.8.8 80.9 9.2 80.8-25 29.2-11.7 50.8-41.6 75.8 41.6 5 1.7 1.7-1.7 18.3-105-20-15-80.8-25-80-60.8-80.8 10-80.9 19.2-39.1-33.4-41.7-73.3-80 51.7-.8 21.6v210l.8 15"/><path fill="#ff9f00" fill-rule="evenodd" d="M1903.3 2041.7v-50.9l-77.5-84.1 28.4-105h-577.5l61.6 67.5 30.9 37.5 50 35 80.8-12.5 80 72.5 28.3 10 52.5 20.8 80.9 17.5 55-38.3 25.8-85.9 35.8 85.9 45 30"/><path fill="none" stroke="#000" stroke-linejoin="round" stroke-miterlimit="10" stroke-width="5" d="M1903.3 2041.7v-50.9l-77.5-84.1 28.4-105h-577.5l61.6 67.5 30.9 37.5 50 35 80.8-12.5 80 72.5 28.3 10 52.5 20.8 80.9 17.5 55-38.3 25.8-85.9 35.8 85.9 45 30"/><path fill="#9fff60" fill-rule="evenodd" d="M532.5 2850h483.3l20.9-.8-20.9-58.4-19.1-45.8-61.7-35-80-40.8-80.8 14.1h-80.9l-80.8 5-80-27.5-.8 84.2v104.2l.8.8"/><path fill="none" stroke="#000" stroke-linejoin="round" stroke-miterlimit="10" stroke-width="5" d="M532.5 2850h483.3l20.9-.8-20.9-58.4-19.1-45.8-61.7-35-80-40.8-80.8 14.1h-80.9l-80.8 5-80-27.5-.8 84.2v104.2l.8.8"/><path fill="#00dfff" fill-rule="evenodd" d="M1660.8 2594.2L1580 2620l-80 1.7-44.2-86.7-36.6-61.7-80.9-5-80.8-21.6-35.8-15.9-44.2-46.6-35.8 46.6-45 28.4-24.2-28.4 24.2-70 27.5-35 53.3-54.1 48.3 54.1 31.7 52.5 80.8-18.3 80.9 40.8 80.8-10 56.7 40 23.3 14.2 80.8 19.2 53.4 70.8-53.4 59.2"/><path fill="none" stroke="#000" stroke-linejoin="round" stroke-miterlimit="10" stroke-width="5" d="M1660.8 2594.2L1580 2620l-80 1.7-44.2-86.7-36.6-61.7-80.9-5-80.8-21.6-35.8-15.9-44.2-46.6-35.8 46.6-45 28.4-24.2-28.4 24.2-70 27.5-35 53.3-54.1 48.3 54.1 31.7 52.5 80.8-18.3 80.9 40.8 80.8-10 56.7 40 23.3 14.2 80.8 19.2 53.4 70.8-53.4 59.2"/><path fill="#ff9f00" fill-rule="evenodd" d="M532.5 2384.2l59.2 46.6 20.8 4.2 80.8 11.7 80.9 3.3 54.1-19.2 26.7-28.3 80-62.5 30-14.2-30-9.1-80-49.2-80.8-11.7-80.9 21.7-65.8-56.7-15-25.8-41.7 25.8-38.3 41.7-.8 63.3.8 58.4"/><path fill="none" stroke="#000" stroke-linejoin="round" stroke-miterlimit="10" stroke-width="5" d="M532.5 2384.2l59.2 46.6 20.8 4.2 80.8 11.7 80.9 3.3 54.1-19.2 26.7-28.3 80-62.5 30-14.2-30-9.1-80-49.2-80.8-11.7-80.9 21.7-65.8-56.7-15-25.8-41.7 25.8-38.3 41.7-.8 63.3.8 58.4"/><path fill="#ff0" fill-rule="evenodd" d="M532.5 2850H935l65-.8-45.8-104.2-19.2-10.8-80-40.9-80.8 3.4-80.9-.9-80.8 7.5-80-28.3-.8 70v104.2l.8.8"/><path fill="none" stroke="#000" stroke-linejoin="round" stroke-miterlimit="10" stroke-width="5" d="M532.5 2850H935l65-.8-45.8-104.2-19.2-10.8-80-40.9-80.8 3.4-80.9-.9-80.8 7.5-80-28.3-.8 70v104.2l.8.8"/><path fill="#9fff60" fill-rule="evenodd" d="M1015.8 2650.8l80.9 55 53.3-65.8 27.5-25.8 45.8 25.8 34.2 29.2 27.5-29.2 53.3-52.5 19.2 52.5 61.7 40.8 58.3-40.8-58.3-94.2-21.7-10.8-59.2-26.7-80.8-33.3-80-24.2-80.8 40.9-33.4 43.3-47.5 102.5-1.6 2.5 1.6 10.8"/><path fill="none" stroke="#000" stroke-linejoin="round" stroke-miterlimit="10" stroke-width="5" d="M1015.8 2650.8l80.9 55 53.3-65.8 27.5-25.8 45.8 25.8 34.2 29.2 27.5-29.2 53.3-52.5 19.2 52.5 61.7 40.8 58.3-40.8-58.3-94.2-21.7-10.8-59.2-26.7-80.8-33.3-80-24.2-80.8 40.9-33.4 43.3-47.5 102.5-1.6 2.5 1.6 10.8"/><path fill="#ff4000" fill-rule="evenodd" d="M1741.7 2026.7l21.6-15 5-105 52.5-105h-498.3l15.8 17.5 71.7 87.5 9.2 6.6 25.8-6.6 55-23.4 12.5 23.4 67.5 69.1 80.8-16.6 26.7 52.5 54.2 15"/><path fill="none" stroke="#000" stroke-linejoin="round" stroke-miterlimit="10" stroke-width="5" d="M1741.7 2026.7l21.6-15 5-105 52.5-105h-498.3l15.8 17.5 71.7 87.5 9.2 6.6 25.8-6.6 55-23.4 12.5 23.4 67.5 69.1 80.8-16.6 26.7 52.5 54.2 15"/><path fill="#ff9f00" fill-rule="evenodd" d="M532.5 2841.7l79.2 7.5h.8l80.8.8 20.9-.8 60-11.7 80.8 4.2 10 7.5 70 .8 25-.8-25-55-26.7-49.2-53.3-27.5-80.8-7.5-80.9-2.5-80.8 10.8-80-29.1-.8 55.8.8 96.7"/><path fill="none" stroke="#000" stroke-linejoin="round" stroke-miterlimit="10" stroke-width="5" d="M532.5 2841.7l79.2 7.5h.8l80.8.8 20.9-.8 60-11.7 80.8 4.2 10 7.5 70 .8 25-.8-25-55-26.7-49.2-53.3-27.5-80.8-7.5-80.9-2.5-80.8 10.8-80-29.1-.8 55.8.8 96.7"/><path fill="#0080ff" fill-rule="evenodd" d="M612.5 2659.2l-56.7-19.2 24.2-105 32.5-10.8 80.8-30 80.9 27.5 80.8-5.9 80 9.2 54.2 10-28.4 105-25.8 22.5-43.3-22.5-36.7-52.5-32.5 52.5-48.3 15.8-80.9 4.2-80.8-.8"/><path fill="none" stroke="#000" stroke-linejoin="round" stroke-miterlimit="10" stroke-width="5" d="M612.5 2659.2l-56.7-19.2 24.2-105 32.5-10.8 80.8-30 80.9 27.5 80.8-5.9 80 9.2 54.2 10-28.4 105-25.8 22.5-43.3-22.5-36.7-52.5-32.5 52.5-48.3 15.8-80.9 4.2-80.8-.8"/><path fill="#9fff60" fill-rule="evenodd" d="M1903.3 2786.7v-324.2l-54.1 72.5-26.7 15-80.8 20.8-80.9 65.9-10.8 3.3 10.8 3.3 80.9 35 80.8 45.9 23.3 20.8 57.5 41.7"/><path fill="none" stroke="#000" stroke-linejoin="round" stroke-miterlimit="10" stroke-width="5" d="M1903.3 2786.7v-324.2l-54.1 72.5-26.7 15-80.8 20.8-80.9 65.9-10.8 3.3 10.8 3.3 80.9 35 80.8 45.9 23.3 20.8 57.5 41.7"/><path fill="#9fff60" fill-rule="evenodd" d="M1903.3 2416.7v-140l-80.8 4.1-80.8-50.8-80.9 70.8-24.1 25 24.1 50.9 80.9 50.8 80.8-55.8 80.8 45"/><path fill="none" stroke="#000" stroke-linejoin="round" stroke-miterlimit="10" stroke-width="5" d="M1903.3 2416.7v-140l-80.8 4.1-80.8-50.8-80.9 70.8-24.1 25 24.1 50.9 80.9 50.8 80.8-55.8 80.8 45"/><path fill="#ff0" fill-rule="evenodd" d="M774.2 2159.2l26.6-42.5 54.2-60.9 64.2-44.1-54.2-105-10-14.2-11.7 14.2-69.1 45.8-70 59.2 48.3 105 21.7 42.5"/><path fill="none" stroke="#000" stroke-linejoin="round" stroke-miterlimit="10" stroke-width="5" d="M774.2 2159.2l26.6-42.5 54.2-60.9 64.2-44.1-54.2-105-10-14.2-11.7 14.2-69.1 45.8-70 59.2 48.3 105 21.7 42.5"/><path fill="#ff4000" fill-rule="evenodd" d="M693.3 2434.2l80.9-2.5 3.3-.9 77.5-84.1 26.7-20.9L855 2310l-80.8-33.3-80.9 24.1-45.8 25 21.7 105 24.1 3.4"/><path fill="none" stroke="#000" stroke-linejoin="round" stroke-miterlimit="10" stroke-width="5" d="M693.3 2434.2l80.9-2.5 3.3-.9 77.5-84.1 26.7-20.9L855 2310l-80.8-33.3-80.9 24.1-45.8 25 21.7 105 24.1 3.4"/><path fill="#ff4000" fill-rule="evenodd" d="M532.5 2817.5l80-26.7 80.8 27.5 80.9-16.6 80.8-47.5 5-9.2-5-2.5-80.8-19.2-80.9-4.1-80.8 14.1-80-30-.8 41.7.8 72.5"/><path fill="none" stroke="#000" stroke-linejoin="round" stroke-miterlimit="10" stroke-width="5" d="M532.5 2817.5l80-26.7 80.8 27.5 80.9-16.6 80.8-47.5 5-9.2-5-2.5-80.8-19.2-80.9-4.1-80.8 14.1-80-30-.8 41.7.8 72.5"/><path fill="#df0000" fill-rule="evenodd" d="M1741.7 1838.3l19.1-36.6H1465l35 32.5 38.3 72.5 41.7 42.5 56.7-42.5 24.1-26.7 80.9-41.7"/><path fill="none" stroke="#000" stroke-linejoin="round" stroke-miterlimit="10" stroke-width="5" d="M1741.7 1838.3l19.1-36.6H1465l35 32.5 38.3 72.5 41.7 42.5 56.7-42.5 24.1-26.7 80.9-41.7"/><path fill="#0010ff" fill-rule="evenodd" d="M612.5 2644.2l-11.7-4.2 11.7-36.7 13.3-68.3 67.5-29.2 73.4 29.2 7.5 59.2 7.5 45.8-7.5 2.5-80.9 5.8-80.8-4.1"/><path fill="none" stroke="#000" stroke-linejoin="round" stroke-miterlimit="10" stroke-width="5" d="M612.5 2644.2l-11.7-4.2 11.7-36.7 13.3-68.3 67.5-29.2 73.4 29.2 7.5 59.2 7.5 45.8-7.5 2.5-80.9 5.8-80.8-4.1"/><path fill="#ff0" fill-rule="evenodd" d="M1903.3 2760v-215.8l-80.8 39.1-65 56.7 65 53.3 59.2 51.7 21.6 15"/><path fill="none" stroke="#000" stroke-linejoin="round" stroke-miterlimit="10" stroke-width="5" d="M1903.3 2760v-215.8l-80.8 39.1-65 56.7 65 53.3 59.2 51.7 21.6 15"/><path fill="#9fff60" fill-rule="evenodd" d="M532.5 1845l80 50 80.8-19.2 77.5-74.1H531.7l.8 43.3"/><path fill="none" stroke="#000" stroke-linejoin="round" stroke-miterlimit="10" stroke-width="5" d="M532.5 1845l80 50 80.8-19.2 77.5-74.1H531.7l.8 43.3"/><path fill="#ff0" fill-rule="evenodd" d="M1096.7 2613.3l80.8-57.5 80 45 61.7-65.8-61.7-30.8-80 8.3-80.8 12.5-8.4 10 8.4 78.3"/><path fill="none" stroke="#000" stroke-linejoin="round" stroke-miterlimit="10" stroke-width="5" d="M1096.7 2613.3l80.8-57.5 80 45 61.7-65.8-61.7-30.8-80 8.3-80.8 12.5-8.4 10 8.4 78.3"/><path fill="#ff0" fill-rule="evenodd" d="M1903.3 2379.2v-82.5l-80.8 6.6-80.8-30-52.5 52.5 52.5 55.9 80.8-33.4 80.8 30.9"/><path fill="none" stroke="#000" stroke-linejoin="round" stroke-miterlimit="10" stroke-width="5" d="M1903.3 2379.2v-82.5l-80.8 6.6-80.8-30-52.5 52.5 52.5 55.9 80.8-33.4 80.8 30.9"/><path fill="#0080ff" fill-rule="evenodd" d="M1660.8 2551.7l-80.8 30-74.2-46.7 74.2-49.2 80.8 30 15 19.2-15 16.7"/><path fill="none" stroke="#000" stroke-linejoin="round" stroke-miterlimit="10" stroke-width="5" d="M1660.8 2551.7l-80.8 30-74.2-46.7 74.2-49.2 80.8 30 15 19.2-15 16.7"/><path fill="maroon" fill-rule="evenodd" d="M1660.8 1840l47.5-38.3h-137.5l-5.8 105 15 15.8 21.7-15.8 59.1-66.7"/><path fill="none" stroke="#000" stroke-linejoin="round" stroke-miterlimit="10" stroke-width="5" d="M1660.8 1840l47.5-38.3h-137.5l-5.8 105 15 15.8 21.7-15.8 59.1-66.7"/><path fill="#ff0" fill-rule="evenodd" d="M612.5 1865.8l80.8-23.3 42.5-40.8H546.7l65.8 64.1"/><path fill="none" stroke="#000" stroke-linejoin="round" stroke-miterlimit="10" stroke-width="5" d="M612.5 1865.8l80.8-23.3 42.5-40.8H546.7l65.8 64.1"/><path fill="#00dfff" fill-rule="evenodd" d="M935 2223.3l-2.5-2.5 2.5-4.1 80.8-99.2 17.5 103.3-17.5 32.5-80.8-30"/><path fill="none" stroke="#000" stroke-linejoin="round" stroke-miterlimit="10" stroke-width="5" d="M935 2223.3l-2.5-2.5 2.5-4.1 80.8-99.2 17.5 103.3-17.5 32.5-80.8-30"/><path fill="#40ffbf" fill-rule="evenodd" d="M693.3 2231.7l-12.5-10.9-24.1-104.1 36.6-31.7 12.5 31.7 35 104.1-47.5 10.9"/><path fill="none" stroke="#000" stroke-linejoin="round" stroke-miterlimit="10" stroke-width="5" d="M693.3 2231.7l-12.5-10.9-24.1-104.1 36.6-31.7 12.5 31.7 35 104.1-47.5 10.9"/><path fill="#df0000" fill-rule="evenodd" d="M693.3 2339.2l80.9 48.3 55-61.7-55-28.3-80.9 25.8-4.1 2.5 4.1 13.4"/><path fill="none" stroke="#000" stroke-linejoin="round" stroke-miterlimit="10" stroke-width="5" d="M693.3 2339.2l80.9 48.3 55-61.7-55-28.3-80.9 25.8-4.1 2.5 4.1 13.4"/><path fill="#ff9f00" fill-rule="evenodd" d="M1903.3 2701.7V2605l-80.8 11.7-26.7 23.3 26.7 21.7 80.8 40"/><path fill="none" stroke="#000" stroke-linejoin="round" stroke-miterlimit="10" stroke-width="5" d="M1903.3 2701.7V2605l-80.8 11.7-26.7 23.3 26.7 21.7 80.8 40"/><path fill="#0080ff" fill-rule="evenodd" d="M1177.5 2028.3l-7.5-16.6-18.3-105 25.8-26.7 4.2 26.7 58.3 105-62.5 16.6"/><path fill="none" stroke="#000" stroke-linejoin="round" stroke-miterlimit="10" stroke-width="5" d="M1177.5 2028.3l-7.5-16.6-18.3-105 25.8-26.7 4.2 26.7 58.3 105-62.5 16.6"/><path fill="#0080ff" fill-rule="evenodd" d="M1660.8 2763.3H1580l-78.3-18.3 78.3-35 80.8 16.7 25 18.3-25 18.3"/><path fill="none" stroke="#000" stroke-linejoin="round" stroke-miterlimit="10" stroke-width="5" d="M1660.8 2763.3H1580l-78.3-18.3 78.3-35 80.8 16.7 25 18.3-25 18.3"/><path fill="#00dfff" fill-rule="evenodd" d="M1822.5 2507.5l-50.8-76.7 50.8-36.6 57.5 36.6-57.5 76.7"/><path fill="none" stroke="#000" stroke-linejoin="round" stroke-miterlimit="10" stroke-width="5" d="M1822.5 2507.5l-50.8-76.7 50.8-36.6 57.5 36.6-57.5 76.7"/><path fill="#40ffbf" fill-rule="evenodd" d="M1096.7 1884.2l67.5-82.5h-145.9z"/><path fill="none" stroke="#000" stroke-linejoin="round" stroke-miterlimit="10" stroke-width="5" d="M1096.7 1884.2l67.5-82.5h-145.9l78.4 82.5"/><path fill="#df0000" fill-rule="evenodd" d="M693.3 2784.2l80.9-17.5 32.5-21.7-32.5-8.3-80.9-5-67.5 13.3 67.5 39.2"/><path fill="none" stroke="#000" stroke-linejoin="round" stroke-miterlimit="10" stroke-width="5" d="M693.3 2784.2l80.9-17.5 32.5-21.7-32.5-8.3-80.9-5-67.5 13.3 67.5 39.2"/><path fill="#ff9f00" fill-rule="evenodd" d="M774.2 2084.2l64.1-72.5-64.1-31.7-37.5 31.7 37.5 72.5"/><path fill="none" stroke="#000" stroke-linejoin="round" stroke-miterlimit="10" stroke-width="5" d="M774.2 2084.2l64.1-72.5-64.1-31.7-37.5 31.7 37.5 72.5"/><path fill="#ff0" fill-rule="evenodd" d="M1096.7 2278.3l49.1-57.5-49.1-68.3-30.9 68.3 30.9 57.5"/><path fill="none" stroke="#000" stroke-linejoin="round" stroke-miterlimit="10" stroke-width="5" d="M1096.7 2278.3l49.1-57.5-49.1-68.3-30.9 68.3 30.9 57.5"/><path fill="#0000af" fill-rule="evenodd" d="M693.3 2620.8l-40-85.8 40-17.5 44.2 17.5-44.2 85.8"/><path fill="none" stroke="#000" stroke-linejoin="round" stroke-miterlimit="10" stroke-width="5" d="M693.3 2620.8l-40-85.8 40-17.5 44.2 17.5-44.2 85.8"/><path fill="#ff0" fill-rule="evenodd" d="M1500 2126.7l5.8-10-5.8-19.2-80.8 8.3-64.2 10.9 64.2 18.3 80.8-8.3"/><path fill="none" stroke="#000" stroke-linejoin="round" stroke-miterlimit="10" stroke-width="5" d="M1500 2126.7l5.8-10-5.8-19.2-80.8 8.3-64.2 10.9 64.2 18.3 80.8-8.3"/><path fill="#00dfff" fill-rule="evenodd" d="M1580 2173.3l-16.7-56.6 16.7-20 55.8 20-55.8 56.6"/><path fill="none" stroke="#000" stroke-linejoin="round" stroke-miterlimit="10" stroke-width="5" d="M1580 2173.3l-16.7-56.6 16.7-20 55.8 20-55.8 56.6"/><path fill="#df0000" fill-rule="evenodd" d="M532.5 2793.3l71.7-48.3-71.7-27.5-.8 27.5.8 48.3"/><path fill="none" stroke="#000" stroke-linejoin="round" stroke-miterlimit="10" stroke-width="5" d="M532.5 2793.3l71.7-48.3-71.7-27.5-.8 27.5.8 48.3"/><path fill="#9fff60" fill-rule="evenodd" d="M1660.8 2850l5-.8-5-.9-80.8-35.8-44.2 36.7 44.2.8h80.8"/><path fill="none" stroke="#000" stroke-linejoin="round" stroke-miterlimit="10" stroke-width="5" d="M1660.8 2850l5-.8-5-.9-80.8-35.8-44.2 36.7 44.2.8h80.8"/><path fill="#ff9f00" fill-rule="evenodd" d="M612.5 1837.5l80.8-28.3 7.5-7.5h-125l36.7 35.8"/><path fill="none" stroke="#000" stroke-linejoin="round" stroke-miterlimit="10" stroke-width="5" d="M612.5 1837.5l80.8-28.3 7.5-7.5h-125l36.7 35.8"/><path fill="#ff0" fill-rule="evenodd" d="M1419.2 2661.7l30.8-21.7-30.8-49.2-32.5 49.2 32.5 21.7"/><path fill="none" stroke="#000" stroke-linejoin="round" stroke-miterlimit="10" stroke-width="5" d="M1419.2 2661.7l30.8-21.7-30.8-49.2-32.5 49.2 32.5 21.7"/><path fill="#ff9f00" fill-rule="evenodd" d="M1096.7 2248.3l23.3-27.5-23.3-32.5-15 32.5 15 27.5"/><path fill="none" stroke="#000" stroke-linejoin="round" stroke-miterlimit="10" stroke-width="5" d="M1096.7 2248.3l23.3-27.5-23.3-32.5-15 32.5 15 27.5"/><path fill="#9fff60" fill-rule="evenodd" d="M1096.7 1837.5l30-35.8h-64.2z"/><path fill="none" stroke="#000" stroke-linejoin="round" stroke-miterlimit="10" stroke-width="5" d="M1096.7 1837.5l30-35.8h-64.2l34.2 35.8"/><path fill="#ff9f00" fill-rule="evenodd" d="M1903.3 2341.7v-24.2l-78.3 8.3z"/><path fill="none" stroke="#000" stroke-linejoin="round" stroke-miterlimit="10" stroke-width="5" d="M1903.3 2341.7v-24.2l-78.3 8.3 78.3 15.9"/><path fill="#0080ff" fill-rule="evenodd" d="M1822.5 2459.2l-19.2-28.4 19.2-13.3 20.8 13.3-20.8 28.4"/><path fill="none" stroke="#000" stroke-linejoin="round" stroke-miterlimit="10" stroke-width="5" d="M1822.5 2459.2l-19.2-28.4 19.2-13.3 20.8 13.3-20.8 28.4"/><path fill="#9fff60" fill-rule="evenodd" d="M532.5 2040l27.5-28.3-27.5-31.7-.8 31.7.8 28.3"/><path fill="none" stroke="#000" stroke-linejoin="round" stroke-miterlimit="10" stroke-width="5" d="M532.5 2040l27.5-28.3-27.5-31.7-.8 31.7.8 28.3"/><path fill="#ff9f00" fill-rule="evenodd" d="M1741.7 2335.8l75.8-10-75.8-9.1-9.2 9.1 9.2 10"/><path fill="none" stroke="#000" stroke-linejoin="round" stroke-miterlimit="10" stroke-width="5" d="M1741.7 2335.8l75.8-10-75.8-9.1-9.2 9.1 9.2 10"/><path fill="maroon" fill-rule="evenodd" d="M532.5 2768.3l35-23.3-35-14.2-.8 14.2.8 23.3"/><path fill="none" stroke="#000" stroke-linejoin="round" stroke-miterlimit="10" stroke-width="5" d="M532.5 2768.3l35-23.3-35-14.2-.8 14.2.8 23.3"/><path fill="#00008f" fill-rule="evenodd" d="M693.3 2562.5l-12.5-27.5 12.5-5 14.2 5-14.2 27.5"/><path fill="none" stroke="#000" stroke-linejoin="round" stroke-miterlimit="10" stroke-width="5" d="M693.3 2562.5l-12.5-27.5 12.5-5 14.2 5-14.2 27.5"/><path fill="maroon" fill-rule="evenodd" d="M774.2 2342.5l14.1-16.7-14.1-7.5-23.4 7.5 23.4 16.7"/><path fill="none" stroke="#000" stroke-linejoin="round" stroke-miterlimit="10" stroke-width="5" d="M774.2 2342.5l14.1-16.7-14.1-7.5-23.4 7.5 23.4 16.7"/><path fill="#0010ff" fill-rule="evenodd" d="M1419.2 2769.2l-7.5-24.2 7.5-5 16.6 5-16.6 24.2"/><path fill="none" stroke="#000" stroke-linejoin="round" stroke-miterlimit="10" stroke-width="5" d="M1419.2 2769.2l-7.5-24.2 7.5-5 16.6 5-16.6 24.2"/><path fill="#0010ff" fill-rule="evenodd" d="M1580 2543.3l-12.5-8.3 12.5-8.3 20.8 8.3-20.8 8.3"/><path fill="none" stroke="#000" stroke-linejoin="round" stroke-miterlimit="10" stroke-width="5" d="M1580 2543.3l-12.5-8.3 12.5-8.3 20.8 8.3-20.8 8.3"/><path fill="#ff0" fill-rule="evenodd" d="M1580 2850l29.2-.8-29.2-12.5-15 12.5 15 .8"/><path fill="none" stroke="#000" stroke-linejoin="round" stroke-miterlimit="10" stroke-width="5" d="M1580 2850l29.2-.8-29.2-12.5-15 12.5 15 .8"/><path fill="#00dfff" fill-rule="evenodd" d="M1660.8 2226.7l-10-5.9 10-21.6 6.7 21.6-6.7 5.9"/><path fill="none" stroke="#000" stroke-linejoin="round" stroke-miterlimit="10" stroke-width="5" d="M1660.8 2226.7l-10-5.9 10-21.6 6.7 21.6-6.7 5.9"/><path fill="#ff4000" fill-rule="evenodd" d="M774.2 2021.7l9.1-10-9.1-4.2-5 4.2 5 10"/><path fill="none" stroke="#000" stroke-linejoin="round" stroke-miterlimit="10" stroke-width="5" d="M774.2 2021.7l9.1-10-9.1-4.2-5 4.2 5 10"/><path fill="maroon" fill-rule="evenodd" d="M693.3 2749.2l19.2-4.2-19.2-1.7-7.5 1.7 7.5 4.2"/><path fill="none" stroke="#000" stroke-linejoin="round" stroke-miterlimit="10" stroke-width="5" d="M693.3 2749.2l19.2-4.2-19.2-1.7-7.5 1.7 7.5 4.2"/><path fill="#ff4000" fill-rule="evenodd" d="M612.5 1808.3l18.3-6.6h-25z"/><path fill="none" stroke="#000" stroke-linejoin="round" stroke-miterlimit="10" stroke-width="5" d="M612.5 1808.3l18.3-6.6h-25l6.7 6.6"/><path fill="#0080ff" fill-rule="evenodd" d="M1015.8 2224.2l-7.5-3.4 7.5-8.3 1.7 8.3-1.7 3.4"/><path fill="none" stroke="#000" stroke-linejoin="round" stroke-miterlimit="10" stroke-width="5" d="M1015.8 2224.2l-7.5-3.4 7.5-8.3 1.7 8.3-1.7 3.4"/><path fill="#ff9f00" fill-rule="evenodd" d="M1257.5 2540l5-5-5-1.7-9.2 1.7 9.2 5"/><path fill="none" stroke="#000" stroke-linejoin="round" stroke-miterlimit="10" stroke-width="5" d="M1257.5 2540l5-5-5-1.7-9.2 1.7 9.2 5"/><path fill="#ff9f00" fill-rule="evenodd" d="M1419.2 2642.5l3.3-2.5-3.3-5-3.4 5 3.4 2.5"/><path fill="none" stroke="#000" stroke-linejoin="round" stroke-miterlimit="10" stroke-width="5" d="M1419.2 2642.5l3.3-2.5-3.3-5-3.4 5 3.4 2.5"/><path fill="#9fff60" fill-rule="evenodd" d="M1177.5 2746.7l.8-1.7-.8-3.3-2.5 3.3 2.5 1.7"/><path fill="none" stroke="#000" stroke-linejoin="round" stroke-miterlimit="10" stroke-width="5" d="M1177.5 2746.7l.8-1.7-.8-3.3-2.5 3.3 2.5 1.7"/></g><g clip-path="url(#c)" transform="matrix(.13333 0 0 -.13333 0 410.7)"><path fill="none" stroke="#000" stroke-linejoin="round" stroke-miterlimit="10" stroke-width="5" d="M532.5 1801.7h1370.8M532.5 2849.2h1370.8M532.5 1801.7v1047.5M1903.3 1801.7v1047.5M532.5 1801.7h1370.8M532.5 1801.7v1047.5M836.7 1801.7v14.1M836.7 2849.2v-13.4"/><text style="-inkscape-font-specification:Helvetica" font-family="Helvetica" font-size="10" font-weight="400" transform="matrix(10 0 0 -10 809.2 1680.8)"><tspan x="0" y="0">5</tspan></text><path fill="none" stroke="#000" stroke-linejoin="round" stroke-miterlimit="10" stroke-width="5" d="M1217.5 1801.7v14.1M1217.5 2849.2v-13.4"/><text style="-inkscape-font-specification:Helvetica" font-family="Helvetica" font-size="10" font-weight="400" transform="matrix(10 0 0 -10 1162.5 1680.8)"><tspan x="0 5.56" y="0">10</tspan></text><path fill="none" stroke="#000" stroke-linejoin="round" stroke-miterlimit="10" stroke-width="5" d="M1598.3 1801.7v14.1M1598.3 2849.2v-13.4"/><text style="-inkscape-font-specification:Helvetica" font-family="Helvetica" font-size="10" font-weight="400" transform="matrix(10 0 0 -10 1543.3 1680.8)"><tspan x="0 5.56" y="0">15</tspan></text><path fill="none" stroke="#000" stroke-linejoin="round" stroke-miterlimit="10" stroke-width="5" d="M532.5 1897.5h13.3M1903.3 1897.5h-14.1"/><text style="-inkscape-font-specification:Helvetica" font-family="Helvetica" font-size="10" font-weight="400" transform="matrix(10 0 0 -10 448.3 1860.8)"><tspan x="0" y="0">2</tspan></text><path fill="none" stroke="#000" stroke-linejoin="round" stroke-miterlimit="10" stroke-width="5" d="M532.5 2087.5h13.3M1903.3 2087.5h-14.1"/><text style="-inkscape-font-specification:Helvetica" font-family="Helvetica" font-size="10" font-weight="400" transform="matrix(10 0 0 -10 448.3 2050.8)"><tspan x="0" y="0">4</tspan></text><path fill="none" stroke="#000" stroke-linejoin="round" stroke-miterlimit="10" stroke-width="5" d="M532.5 2278.3h13.3M1903.3 2278.3h-14.1"/><text style="-inkscape-font-specification:Helvetica" font-family="Helvetica" font-size="10" font-weight="400" transform="matrix(10 0 0 -10 448.3 2241.7)"><tspan x="0" y="0">6</tspan></text><path fill="none" stroke="#000" stroke-linejoin="round" stroke-miterlimit="10" stroke-width="5" d="M532.5 2468.3h13.3M1903.3 2468.3h-14.1"/><text style="-inkscape-font-specification:Helvetica" font-family="Helvetica" font-size="10" font-weight="400" transform="matrix(10 0 0 -10 448.3 2431.7)"><tspan x="0" y="0">8</tspan></text><path fill="none" stroke="#000" stroke-linejoin="round" stroke-miterlimit="10" stroke-width="5" d="M532.5 2659.2h13.3M1903.3 2659.2h-14.1"/><text style="-inkscape-font-specification:Helvetica" font-family="Helvetica" font-size="10" font-weight="400" transform="matrix(10 0 0 -10 392.5 2622.5)"><tspan x="0 5.56" y="0">10</tspan></text><path fill="none" stroke="#000" stroke-linejoin="round" stroke-miterlimit="10" stroke-width="5" d="M532.5 2849.2h13.3M1903.3 2849.2h-14.1"/><text style="-inkscape-font-specification:Helvetica" font-family="Helvetica" font-size="10" font-weight="400" transform="matrix(10 0 0 -10 392.5 2812.5)"><tspan x="0 5.56" y="0">12</tspan></text><path fill="none" stroke="#000" stroke-linejoin="round" stroke-miterlimit="10" stroke-width="5" d="M532.5 1801.7h1370.8M532.5 2849.2h1370.8M532.5 1801.7v1047.5M1903.3 1801.7v1047.5"/><path fill="#fff" fill-rule="evenodd" d="M2335.8 1801.7h1370.9v1047.5H2335.8z"/><path fill="none" stroke="#fff" stroke-linejoin="round" stroke-miterlimit="10" stroke-width="5" d="M2335.8 1801.7v1047.5h1370.9V1801.7H2335.8"/></g><g clip-path="url(#d)" transform="matrix(.13333 0 0 -.13333 0 410.7)"><path fill="#00008f" fill-rule="evenodd" d="M2335.8 2850h1370.9V1801.7H2335v1047.5l.8.8"/><path fill="none" stroke="#000" stroke-linejoin="round" stroke-miterlimit="10" stroke-width="5" d="M2335.8 2850h1370.9V1801.7H2335v1047.5l.8.8"/><path fill="#0000cf" fill-rule="evenodd" d="M2335.8 2850h1370.9V1801.7H2335v1047.5l.8.8"/><path fill="none" stroke="#000" stroke-linejoin="round" stroke-miterlimit="10" stroke-width="5" d="M2335.8 2850h1370.9V1801.7H2335v1047.5l.8.8"/><path fill="#0070ff" fill-rule="evenodd" d="M2335.8 2850h1370.9V1801.7H2335V2535l.8 90 16.7 15-16.7 15-.8 90v104.2l.8.8"/><path fill="none" stroke="#000" stroke-linejoin="round" stroke-miterlimit="10" stroke-width="5" d="M2335.8 2850h1370.9V1801.7H2335V2535l.8 90 16.7 15-16.7 15-.8 90v104.2l.8.8"/><path fill="#10ffef" fill-rule="evenodd" d="M2335.8 2574.2l77.5 65.8 2.5 9.2 80.9 52.5 64.1 43.3 1.7 104.2 15 .8h1129.2v-596.7l-51.7-32.5-29.2-63.3-80.8 45.8-80.8-55-79.2-31.6 79.2-80 49.1-25 31.7-6.7 80.8-4.2 80.9-5.8v-193.3H3675l-49.2 42.5-25-42.5h-520l-20 28.3-35.8-28.3h-690v524.1l.8 53.4 80-16.7 80.9-20.8 80.8 4.1 80.8 25.9 80 6.6 80.9-10.8 80 63.3-30 104.2-50 36.7-75-36.7-5.9-5-3.3 5-76.7 84.2-80.8-8.4-50.8-75.8-30-20.8-80.9.8-80-28.3-.8 48.3.8 39.2"/><path fill="none" stroke="#000" stroke-linejoin="round" stroke-miterlimit="10" stroke-width="5" d="M2335.8 2574.2l77.5 65.8 2.5 9.2 80.9 52.5 64.1 43.3 1.7 104.2 15 .8h1129.2v-596.7l-51.7-32.5-29.2-63.3-80.8 45.8-80.8-55-79.2-31.6 79.2-80 49.1-25 31.7-6.7 80.8-4.2 80.9-5.8v-193.3H3675l-49.2 42.5-25-42.5h-520l-20 28.3-35.8-28.3h-690v524.1l.8 53.4 80-16.7 80.9-20.8 80.8 4.1 80.8 25.9 80 6.6 80.9-10.8 80 63.3-30 104.2-50 36.7-75-36.7-5.9-5-3.3 5-76.7 84.2-80.8-8.4-50.8-75.8-30-20.8-80.9.8-80-28.3-.8 48.3.8 39.2"/><path fill="#afff50" fill-rule="evenodd" d="M2335.8 2180l79.2 40.8.8 2.5 80.9 43.4 80.8-7.5 42.5-38.4 10.8-104.1.9-105 26.6-15.9 65 15.9-3.3 105 18.3 14.1 18.4-14.1 62.5-85 80.8 72.5 13.3 12.5-13.3 45.8-80.8 25.8-16.7 32.5 16.7 28.4 80.8 27.5 80.8-22.5 45 71.6 35 49.2 30 55.8-30 62.5-39.1 41.7-40.9 32.5-80.8 23.3-80.8 41.7-25 7.5-55.9 35-80 28.3-28.3 41.7-12.5 104.2 40.8.8H3383.3l27.5-.8 53.4-42.5 32.5 42.5 48.3.8h80.8l64.2-.8 16.7-28.4v-273.3l-15-12.5 15-3.3v-235.9l-80.9-55.8-80.8 12.5-75-31.7-5.8-4.1-9.2 4.1-71.7 15-80-14.1-80.8 24.1-80.8 16.7-70.9-41.7-10-30-23.3-74.1 23.3-22.5 80-82.5-40.8-105-39.2-33.4-68.3 33.4-11.7 10-80.8-5-4.2-5-42.5-105H2335l.8 45 65 60 5 105-70 30.8-.8 74.2.8 63.3"/><path fill="none" stroke="#000" stroke-linejoin="round" stroke-miterlimit="10" stroke-width="5" d="M2335.8 2180l79.2 40.8.8 2.5 80.9 43.4 80.8-7.5 42.5-38.4 10.8-104.1.9-105 26.6-15.9 65 15.9-3.3 105 18.3 14.1 18.4-14.1 62.5-85 80.8 72.5 13.3 12.5-13.3 45.8-80.8 25.8-16.7 32.5 16.7 28.4 80.8 27.5 80.8-22.5 45 71.6 35 49.2 30 55.8-30 62.5-39.1 41.7-40.9 32.5-80.8 23.3-80.8 41.7-25 7.5-55.9 35-80 28.3-28.3 41.7-12.5 104.2 40.8.8H3383.3l27.5-.8 53.4-42.5 32.5 42.5 48.3.8h80.8l64.2-.8 16.7-28.4v-273.3l-15-12.5 15-3.3v-235.9l-80.9-55.8-80.8 12.5-75-31.7-5.8-4.1-9.2 4.1-71.7 15-80-14.1-80.8 24.1-80.8 16.7-70.9-41.7-10-30-23.3-74.1 23.3-22.5 80-82.5-40.8-105-39.2-33.4-68.3 33.4-11.7 10-80.8-5-4.2-5-42.5-105H2335l.8 45 65 60 5 105-70 30.8-.8 74.2.8 63.3"/><path fill="#ffaf00" fill-rule="evenodd" d="M3706.7 2474.2v-120l-13.4-28.4-67.5-51.6-80.8 17.5-80.8-44.2-80.9 20-80-.8-80.8 35-80.8 8.3-33.4 15.8 33.4 98.4 80.8-43.4 29.2 50-29.2 44.2-52.5 60-28.3 42.5-50.9 62.5 50.9 96.7 9.1 8.3 17.5 104.2 54.2.8 57.5-.8 23.3-28.4 80-13.3 80.9-55.8 74.1 97.5 6.7.8h80.8l1.7-.8 65.8-104.2-67.5-103.3-80.8 5-18.3-6.7-26.7-105 45-22.5 80.8-25.8 80.9-12.5"/><path fill="none" stroke="#000" stroke-linejoin="round" stroke-miterlimit="10" stroke-width="5" d="M3706.7 2474.2v-120l-13.4-28.4-67.5-51.6-80.8 17.5-80.8-44.2-80.9 20-80-.8-80.8 35-80.8 8.3-33.4 15.8 33.4 98.4 80.8-43.4 29.2 50-29.2 44.2-52.5 60-28.3 42.5-50.9 62.5 50.9 96.7 9.1 8.3 17.5 104.2 54.2.8 57.5-.8 23.3-28.4 80-13.3 80.9-55.8 74.1 97.5 6.7.8h80.8l1.7-.8 65.8-104.2-67.5-103.3-80.8 5-18.3-6.7-26.7-105 45-22.5 80.8-25.8 80.9-12.5"/><path fill="#afff50" fill-rule="evenodd" d="M3706.7 1954.2v-120.9l-80.9 63.4-55-95h-72.5l-34.1 28.3-27.5-28.3h-325l30 55.8 29.1 49.2 51.7 82.5 80.8-41.7 80 5.8 80.9 22.5 80.8-35.8 80.8-18.3 80.9 32.5"/><path fill="none" stroke="#000" stroke-linejoin="round" stroke-miterlimit="10" stroke-width="5" d="M3706.7 1954.2v-120.9l-80.9 63.4-55-95h-72.5l-34.1 28.3-27.5-28.3h-325l30 55.8 29.1 49.2 51.7 82.5 80.8-41.7 80 5.8 80.9 22.5 80.8-35.8 80.8-18.3 80.9 32.5"/><path fill="#ff1000" fill-rule="evenodd" d="M3625.8 2399.2l23.4-73.4-23.4-17.5-66.6 17.5-14.2 8.4-5-8.4-75.8-50-80.9 23.4-80 13.3-28.3 13.3 28.3 50.9 65 54.1 15 13.4 80.9 14.1 80.8 19.2 69.2-46.7 11.6-31.6"/><path fill="none" stroke="#000" stroke-linejoin="round" stroke-miterlimit="10" stroke-width="5" d="M3625.8 2399.2l23.4-73.4-23.4-17.5-66.6 17.5-14.2 8.4-5-8.4-75.8-50-80.9 23.4-80 13.3-28.3 13.3 28.3 50.9 65 54.1 15 13.4 80.9 14.1 80.8 19.2 69.2-46.7 11.6-31.6"/><path fill="#10ffef" fill-rule="evenodd" d="M2819.2 2766.7l-30.9-21.7 30.9-76.7 80.8 7.5 80.8 8.4 80-.9 42.5 61.7-42.5 84.2-80-21.7-80.8 31.7-80.8-72.5"/><path fill="none" stroke="#000" stroke-linejoin="round" stroke-miterlimit="10" stroke-width="5" d="M2819.2 2766.7l-30.9-21.7 30.9-76.7 80.8 7.5 80.8 8.4 80-.9 42.5 61.7-42.5 84.2-80-21.7-80.8 31.7-80.8-72.5"/><path fill="#0000cf" fill-rule="evenodd" d="M2415.8 2436.7l-29.1-5.9 29.1-5 80.9-48.3 80.8 12.5 80.8 35.8 29.2 5-24.2 104.2-5 6.7-80.8-.9-4.2-5.8-76.6-55-80.9-43.3"/><path fill="none" stroke="#000" stroke-linejoin="round" stroke-miterlimit="10" stroke-width="5" d="M2415.8 2436.7l-29.1-5.9 29.1-5 80.9-48.3 80.8 12.5 80.8 35.8 29.2 5-24.2 104.2-5 6.7-80.8-.9-4.2-5.8-76.6-55-80.9-43.3"/><path fill="#ffaf00" fill-rule="evenodd" d="M3383.3 1834.2l8.4-32.5h-120l-49.2 38.3-17.5 66.7 17.5 27.5 61.7-27.5 19.1-48.4 80-24.1"/><path fill="none" stroke="#000" stroke-linejoin="round" stroke-miterlimit="10" stroke-width="5" d="M3383.3 1834.2l8.4-32.5h-120l-49.2 38.3-17.5 66.7 17.5 27.5 61.7-27.5 19.1-48.4 80-24.1"/><path fill="#0070ff" fill-rule="evenodd" d="M2980.8 2492.5l-80.8-61.7 80.8-75 54.2 75-54.2 61.7"/><path fill="none" stroke="#000" stroke-linejoin="round" stroke-miterlimit="10" stroke-width="5" d="M2980.8 2492.5l-80.8-61.7 80.8-75 54.2 75-54.2 61.7"/><path fill="#ffaf00" fill-rule="evenodd" d="M2415.8 2123.3l80.9 49.2 80.8-49.2 2.5-6.6-2.5-7.5-80.8-21.7-80.9 21.7-50.8 7.5 50.8 6.6"/><path fill="none" stroke="#000" stroke-linejoin="round" stroke-miterlimit="10" stroke-width="5" d="M2415.8 2123.3l80.9 49.2 80.8-49.2 2.5-6.6-2.5-7.5-80.8-21.7-80.9 21.7-50.8 7.5 50.8 6.6"/><path fill="#ffaf00" fill-rule="evenodd" d="M2900 2016.7l80.8 49.1 80-47.5 6.7-6.6-6.7-29.2-80 6.7-80.8 16.6-5 5.9 5 5"/><path fill="none" stroke="#000" stroke-linejoin="round" stroke-miterlimit="10" stroke-width="5" d="M2900 2016.7l80.8 49.1 80-47.5 6.7-6.6-6.7-29.2-80 6.7-80.8 16.6-5 5.9 5 5"/><path fill="#ffaf00" fill-rule="evenodd" d="M2496.7 1929.2l16.6-22.5 20-105h-90l25.9 105 27.5 22.5"/><path fill="none" stroke="#000" stroke-linejoin="round" stroke-miterlimit="10" stroke-width="5" d="M2496.7 1929.2l16.6-22.5 20-105h-90l25.9 105 27.5 22.5"/><path fill="#10ffef" fill-rule="evenodd" d="M2496.7 2044.2l-75-32.5 75-35 54.1 35-54.1 32.5"/><path fill="none" stroke="#000" stroke-linejoin="round" stroke-miterlimit="10" stroke-width="5" d="M2496.7 2044.2l-75-32.5 75-35 54.1 35-54.1 32.5"/><path fill="#10ffef" fill-rule="evenodd" d="M2577.5 1977.5l-27.5-70.8 27.5-67.5 35 67.5-35 70.8"/><path fill="none" stroke="#000" stroke-linejoin="round" stroke-miterlimit="10" stroke-width="5" d="M2577.5 1977.5l-27.5-70.8 27.5-67.5 35 67.5-35 70.8"/><path fill="maroon" fill-rule="evenodd" d="M3464.2 2376.7l33.3-50.9-33.3-21.6-66.7 21.6 66.7 50.9"/><path fill="none" stroke="#000" stroke-linejoin="round" stroke-miterlimit="10" stroke-width="5" d="M3464.2 2376.7l33.3-50.9-33.3-21.6-66.7 21.6 66.7 50.9"/><path fill="#ffaf00" fill-rule="evenodd" d="M3464.2 1935l46.6-28.3-46.6-30.9-50.9 30.9 50.9 28.3"/><path fill="none" stroke="#000" stroke-linejoin="round" stroke-miterlimit="10" stroke-width="5" d="M3464.2 1935l46.6-28.3-46.6-30.9-50.9 30.9 50.9 28.3"/><path fill="#ff1000" fill-rule="evenodd" d="M3625.8 2780l21.7-35-21.7-34.2-58.3 34.2 58.3 35"/><path fill="none" stroke="#000" stroke-linejoin="round" stroke-miterlimit="10" stroke-width="5" d="M3625.8 2780l21.7-35-21.7-34.2-58.3 34.2 58.3 35"/><path fill="#10ffef" fill-rule="evenodd" d="M2335.8 2825.8l45-80.8-45-36.7-.8 36.7.8 80.8"/><path fill="none" stroke="#000" stroke-linejoin="round" stroke-miterlimit="10" stroke-width="5" d="M2335.8 2825.8l45-80.8-45-36.7-.8 36.7.8 80.8"/><path fill="#0070ff" fill-rule="evenodd" d="M2900 2751.7l-8.3-6.7 8.3-5 80.8-5 80 5.8 3.4 4.2-3.4 5-80 5-80.8-3.3"/><path fill="none" stroke="#000" stroke-linejoin="round" stroke-miterlimit="10" stroke-width="5" d="M2900 2751.7l-8.3-6.7 8.3-5 80.8-5 80 5.8 3.4 4.2-3.4 5-80 5-80.8-3.3"/><path fill="#ff1000" fill-rule="evenodd" d="M3303.3 2763.3l60-18.3-60-41.7-25 41.7 25 18.3"/><path fill="none" stroke="#000" stroke-linejoin="round" stroke-miterlimit="10" stroke-width="5" d="M3303.3 2763.3l60-18.3-60-41.7-25 41.7 25 18.3"/><path fill="#ffaf00" fill-rule="evenodd" d="M2658.3 1895l35.9-93.3h-50.9z"/><path fill="none" stroke="#000" stroke-linejoin="round" stroke-miterlimit="10" stroke-width="5" d="M2658.3 1895l35.9-93.3h-50.9l15 93.3"/><path fill="#0070ff" fill-rule="evenodd" d="M3303.3 2057.5l-28.3-45.8 28.3-15 44.2 15-44.2 45.8"/><path fill="none" stroke="#000" stroke-linejoin="round" stroke-miterlimit="10" stroke-width="5" d="M3303.3 2057.5l-28.3-45.8 28.3-15 44.2 15-44.2 45.8"/><path fill="#afff50" fill-rule="evenodd" d="M3303.3 2570l-26.6-35 26.6-27.5 25.9 27.5-25.9 35"/><path fill="none" stroke="#000" stroke-linejoin="round" stroke-miterlimit="10" stroke-width="5" d="M3303.3 2570l-26.6-35 26.6-27.5 25.9 27.5-25.9 35"/><path fill="#00008f" fill-rule="evenodd" d="M2496.7 2446.7l-26.7-15.9 26.7-17.5 66.6 17.5-66.6 15.9"/><path fill="none" stroke="#000" stroke-linejoin="round" stroke-miterlimit="10" stroke-width="5" d="M2496.7 2446.7l-26.7-15.9 26.7-17.5 66.6 17.5-66.6 15.9"/><path fill="#ff1000" fill-rule="evenodd" d="M3383.3 2695l10-55-10-20-15 20 15 55"/><path fill="none" stroke="#000" stroke-linejoin="round" stroke-miterlimit="10" stroke-width="5" d="M3383.3 2695l10-55-10-20-15 20 15 55"/><path fill="maroon" fill-rule="evenodd" d="M3545 2442.5l17.5-11.7-17.5-25-24.2 25 24.2 11.7"/><path fill="none" stroke="#000" stroke-linejoin="round" stroke-miterlimit="10" stroke-width="5" d="M3545 2442.5l17.5-11.7-17.5-25-24.2 25 24.2 11.7"/><path fill="#ffaf00" fill-rule="evenodd" d="M2819.2 2850l23.3-.8-23.3-21.7-40 21.7 40 .8"/><path fill="none" stroke="#000" stroke-linejoin="round" stroke-miterlimit="10" stroke-width="5" d="M2819.2 2850l23.3-.8-23.3-21.7-40 21.7 40 .8"/><path fill="#ffaf00" fill-rule="evenodd" d="M2819.2 1918.3l7.5-11.6-7.5-13.4-40.9 13.4 40.9 11.6"/><path fill="none" stroke="#000" stroke-linejoin="round" stroke-miterlimit="10" stroke-width="5" d="M2819.2 1918.3l7.5-11.6-7.5-13.4-40.9 13.4 40.9 11.6"/><path fill="#ff1000" fill-rule="evenodd" d="M3222.5 2850l10.8-.8-10.8-25-10 25 10 .8"/><path fill="none" stroke="#000" stroke-linejoin="round" stroke-miterlimit="10" stroke-width="5" d="M3222.5 2850l10.8-.8-10.8-25-10 25 10 .8"/><path fill="#afff50" fill-rule="evenodd" d="M3222.5 2126.7l5.8-10-5.8-10.9-4.2 10.9 4.2 10"/><path fill="none" stroke="#000" stroke-linejoin="round" stroke-miterlimit="10" stroke-width="5" d="M3222.5 2126.7l5.8-10-5.8-10.9-4.2 10.9 4.2 10"/><path fill="#ffaf00" fill-rule="evenodd" d="M3706.7 1913.3v-15.8l-13.4 9.2z"/><path fill="none" stroke="#000" stroke-linejoin="round" stroke-miterlimit="10" stroke-width="5" d="M3706.7 1913.3v-15.8l-13.4 9.2 13.4 6.6"/><path fill="#ff1000" fill-rule="evenodd" d="M3222.5 2644.2l4.2-4.2-4.2-5.8-4.2 5.8 4.2 4.2"/><path fill="none" stroke="#000" stroke-linejoin="round" stroke-miterlimit="10" stroke-width="5" d="M3222.5 2644.2l4.2-4.2-4.2-5.8-4.2 5.8 4.2 4.2"/></g><g clip-path="url(#e)" transform="matrix(.13333 0 0 -.13333 0 410.7)"><path fill="none" stroke="#000" stroke-linejoin="round" stroke-miterlimit="10" stroke-width="5" d="M2335.8 1801.7h1370.9M2335.8 2849.2h1370.9M2335.8 1801.7v1047.5M3706.7 1801.7v1047.5M2335.8 1801.7h1370.9M2335.8 1801.7v1047.5M2640 1801.7v14.1M2640 2849.2v-13.4"/><text style="-inkscape-font-specification:Helvetica" font-family="Helvetica" font-size="10" font-weight="400" transform="matrix(10 0 0 -10 2612.5 1680.8)"><tspan x="0" y="0">5</tspan></text><path fill="none" stroke="#000" stroke-linejoin="round" stroke-miterlimit="10" stroke-width="5" d="M3020.8 1801.7v14.1M3020.8 2849.2v-13.4"/><text style="-inkscape-font-specification:Helvetica" font-family="Helvetica" font-size="10" font-weight="400" transform="matrix(10 0 0 -10 2965.8 1680.8)"><tspan x="0 5.56" y="0">10</tspan></text><path fill="none" stroke="#000" stroke-linejoin="round" stroke-miterlimit="10" stroke-width="5" d="M3401.7 1801.7v14.1M3401.7 2849.2v-13.4"/><text style="-inkscape-font-specification:Helvetica" font-family="Helvetica" font-size="10" font-weight="400" transform="matrix(10 0 0 -10 3346.7 1680.8)"><tspan x="0 5.56" y="0">15</tspan></text><path fill="none" stroke="#000" stroke-linejoin="round" stroke-miterlimit="10" stroke-width="5" d="M2335.8 1897.5h13.4M3706.7 1897.5h-14.2"/><text style="-inkscape-font-specification:Helvetica" font-family="Helvetica" font-size="10" font-weight="400" transform="matrix(10 0 0 -10 2251.7 1860.8)"><tspan x="0" y="0">2</tspan></text><path fill="none" stroke="#000" stroke-linejoin="round" stroke-miterlimit="10" stroke-width="5" d="M2335.8 2087.5h13.4M3706.7 2087.5h-14.2"/><text style="-inkscape-font-specification:Helvetica" font-family="Helvetica" font-size="10" font-weight="400" transform="matrix(10 0 0 -10 2251.7 2050.8)"><tspan x="0" y="0">4</tspan></text><path fill="none" stroke="#000" stroke-linejoin="round" stroke-miterlimit="10" stroke-width="5" d="M2335.8 2278.3h13.4M3706.7 2278.3h-14.2"/><text style="-inkscape-font-specification:Helvetica" font-family="Helvetica" font-size="10" font-weight="400" transform="matrix(10 0 0 -10 2251.7 2241.7)"><tspan x="0" y="0">6</tspan></text><path fill="none" stroke="#000" stroke-linejoin="round" stroke-miterlimit="10" stroke-width="5" d="M2335.8 2468.3h13.4M3706.7 2468.3h-14.2"/><text style="-inkscape-font-specification:Helvetica" font-family="Helvetica" font-size="10" font-weight="400" transform="matrix(10 0 0 -10 2251.7 2431.7)"><tspan x="0" y="0">8</tspan></text><path fill="none" stroke="#000" stroke-linejoin="round" stroke-miterlimit="10" stroke-width="5" d="M2335.8 2659.2h13.4M3706.7 2659.2h-14.2"/><text style="-inkscape-font-specification:Helvetica" font-family="Helvetica" font-size="10" font-weight="400" transform="matrix(10 0 0 -10 2195.8 2622.5)"><tspan x="0 5.56" y="0">10</tspan></text><path fill="none" stroke="#000" stroke-linejoin="round" stroke-miterlimit="10" stroke-width="5" d="M2335.8 2849.2h13.4M3706.7 2849.2h-14.2"/><text style="-inkscape-font-specification:Helvetica" font-family="Helvetica" font-size="10" font-weight="400" transform="matrix(10 0 0 -10 2195.8 2812.5)"><tspan x="0 5.56" y="0">12</tspan></text><path fill="none" stroke="#000" stroke-linejoin="round" stroke-miterlimit="10" stroke-width="5" d="M2335.8 1801.7h1370.9M2335.8 2849.2h1370.9M2335.8 1801.7v1047.5M3706.7 1801.7v1047.5"/><path fill="#fff" fill-rule="evenodd" d="M532.5 345.8h1370.8v1047.5H532.5z"/><path fill="none" stroke="#fff" stroke-linejoin="round" stroke-miterlimit="10" stroke-width="5" d="M532.5 345.8v1047.5h1370.8V345.8H532.5"/></g><g clip-path="url(#f)" transform="matrix(.13333 0 0 -.13333 0 410.7)"><path fill="#00008f" fill-rule="evenodd" d="M532.5 1394.2h1370.8V345.8H531.7v1047.5l.8.9"/><path fill="none" stroke="#000" stroke-linejoin="round" stroke-miterlimit="10" stroke-width="5" d="M532.5 1394.2h1370.8V345.8H531.7v1047.5l.8.9"/><path fill="#00009f" fill-rule="evenodd" d="M532.5 1394.2h1370.8V345.8H531.7v1047.5l.8.9"/><path fill="none" stroke="#000" stroke-linejoin="round" stroke-miterlimit="10" stroke-width="5" d="M532.5 1394.2h1370.8V345.8H531.7v1047.5l.8.9"/><path fill="#00f" fill-rule="evenodd" d="M532.5 1394.2h1370.8V345.8H531.7v1047.5l.8.9"/><path fill="none" stroke="#000" stroke-linejoin="round" stroke-miterlimit="10" stroke-width="5" d="M532.5 1394.2h1370.8V345.8H531.7v1047.5l.8.9"/><path fill="#0050ff" fill-rule="evenodd" d="M532.5 1394.2h1370.8V345.8H531.7v1047.5l.8.9"/><path fill="none" stroke="#000" stroke-linejoin="round" stroke-miterlimit="10" stroke-width="5" d="M532.5 1394.2h1370.8V345.8H531.7v1047.5l.8.9"/><path fill="#00afff" fill-rule="evenodd" d="M532.5 1394.2h1370.8V1195l-19.1-10.8 19.1-27.5V345.8h-75.8l-5 5-3.3-5H531.7v315l.8 82.5 40 21.7-40 25.8-.8 79.2v523.3l.8.9"/><path fill="none" stroke="#000" stroke-linejoin="round" stroke-miterlimit="10" stroke-width="5" d="M532.5 1394.2h1370.8V1195l-19.1-10.8 19.1-27.5V345.8h-75.8l-5 5-3.3-5H531.7v315l.8 82.5 40 21.7-40 25.8-.8 79.2v523.3l.8.9"/><path fill="#10ffef" fill-rule="evenodd" d="M532.5 1394.2h1370.8v-181.7l-50-28.3 50-74.2V345.8h-29.1l-51.7 46.7-30-46.7H531.7l.8 23.4 75 81.6-75 26.7-.8 78.3v105l.8 53.4 80 23.3 31.7 27.5 5 105-36.7 29.2-34.2-29.2-45.8-45.8-.8 45.8v523.3l.8.9"/><path fill="none" stroke="#000" stroke-linejoin="round" stroke-miterlimit="10" stroke-width="5" d="M532.5 1394.2h1370.8v-181.7l-50-28.3 50-74.2V345.8h-29.1l-51.7 46.7-30-46.7H531.7l.8 23.4 75 81.6-75 26.7-.8 78.3v105l.8 53.4 80 23.3 31.7 27.5 5 105-36.7 29.2-34.2-29.2-45.8-45.8-.8 45.8v523.3l.8.9"/><path fill="#60ff9f" fill-rule="evenodd" d="M532.5 685.8l56.7-25 23.3-80 17.5 80 63.3 70.9 27.5 33.3 53.4 41.7 80.8-10.9 80 42.5 80.8-5 80.9 25.9 80.8-9.2 80-45 80.8 11.7 53.4-51.7 27.5-45.8 43.3-58.4-43.3-16.6-80.9-15-80.8-6.7-80-46.7-80.8 9.2-80.9-21.7-7.5-7.5 7.5-22.5 80.9-55.8 80.8 41.7 80-15.9 80.8 5 80.9-10 80.8-8.3 80-25.8 25-13.4 55.8-18.3 74.2 18.3-43.3 105 26.6 105-54.1 104.2 77.5 27.5 70 77.5-70 46.7-80.9 14.1L1615 975l45.8 73.3 80.9 14.2 80.8-15 80.8 21.7V681.7l-80.8 17.5-34.2-38.4 34.2-17.5 71.7-87.5 9.1-10V360l-80.8 74.2-56.7-88.4H650.8l.9 105-39.2 93.4-80-31.7-.8 43.3v105l.8 25"/><path fill="none" stroke="#000" stroke-linejoin="round" stroke-miterlimit="10" stroke-width="5" d="M532.5 685.8l56.7-25 23.3-80 17.5 80 63.3 70.9 27.5 33.3 53.4 41.7 80.8-10.9 80 42.5 80.8-5 80.9 25.9 80.8-9.2 80-45 80.8 11.7 53.4-51.7 27.5-45.8 43.3-58.4-43.3-16.6-80.9-15-80.8-6.7-80-46.7-80.8 9.2-80.9-21.7-7.5-7.5 7.5-22.5 80.9-55.8 80.8 41.7 80-15.9 80.8 5 80.9-10 80.8-8.3 80-25.8 25-13.4 55.8-18.3 74.2 18.3-43.3 105 26.6 105-54.1 104.2 77.5 27.5 70 77.5-70 46.7-80.9 14.1L1615 975l45.8 73.3 80.9 14.2 80.8-15 80.8 21.7V681.7l-80.8 17.5-34.2-38.4 34.2-17.5 71.7-87.5 9.1-10V360l-80.8 74.2-56.7-88.4H650.8l.9 105-39.2 93.4-80-31.7-.8 43.3v105l.8 25"/><path fill="#60ff9f" fill-rule="evenodd" d="M532.5 1394.2h160.8l52.5-.9 28.4-22.5 31.6 22.5 49.2.9h1048.3V1230l-80.8-45.8v-1.7l-1.7 1.7-79.1 25.8-80.9 1.7-17.5-27.5-63.3-53.4-46.7-51.6-33.3-44.2-80.8 36.7-80.9-29.2-61.6 36.7 61.6 91.6 16.7 13.4 32.5 105-49.2 46.6-80.8-43.3-80 7.5-40-10.8 40-65 38.3-40-5-105-33.3-12.5-80.8-8.4-80.9-3.3-80.8 14.2-21.7 10 5 105-63.3 58.3-80.8-45.8-32.5-12.5 32.5-14.2 55.8-90.8 25-74.2 8.3-30-8.3-13.3-80.8-34.2-72.5-57.5-8.4-25.8-7.5 25.8-73.3 58.3L545 870l-12.5-12.5-.8 12.5v523.3l.8.9"/><path fill="none" stroke="#000" stroke-linejoin="round" stroke-miterlimit="10" stroke-width="5" d="M532.5 1394.2h160.8l52.5-.9 28.4-22.5 31.6 22.5 49.2.9h1048.3V1230l-80.8-45.8v-1.7l-1.7 1.7-79.1 25.8-80.9 1.7-17.5-27.5-63.3-53.4-46.7-51.6-33.3-44.2-80.8 36.7-80.9-29.2-61.6 36.7 61.6 91.6 16.7 13.4 32.5 105-49.2 46.6-80.8-43.3-80 7.5-40-10.8 40-65 38.3-40-5-105-33.3-12.5-80.8-8.4-80.9-3.3-80.8 14.2-21.7 10 5 105-63.3 58.3-80.8-45.8-32.5-12.5 32.5-14.2 55.8-90.8 25-74.2 8.3-30-8.3-13.3-80.8-34.2-72.5-57.5-8.4-25.8-7.5 25.8-73.3 58.3L545 870l-12.5-12.5-.8 12.5v523.3l.8.9"/><path fill="#bfff40" fill-rule="evenodd" d="M693.3 679.2l70.9 85.8 10 7.5L855 770l80 50h80.8l80.9 22.5 80.8-18.3 78.3-59.2-75-104.2-3.3-.8-80.8-26.7-80.9-34.1-42.5-43.4 20.9-105 21.6-20 80.9-3.3 80.8 5.8 45.8 17.5 34.2 15.9 80.8 26.6 80.9-7.5 80.8-18.3 42.5-16.7L1580 425l80.8-15.8 78.4-63.4H790.8l64.2 85.9 20.8 19.1-20.8 55-80.8-.8-79.2-54.2-1.7-3.3-.8 3.3-28.3 105 12.5 105 16.6 18.4"/><path fill="none" stroke="#000" stroke-linejoin="round" stroke-miterlimit="10" stroke-width="5" d="M693.3 679.2l70.9 85.8 10 7.5L855 770l80 50h80.8l80.9 22.5 80.8-18.3 78.3-59.2-75-104.2-3.3-.8-80.8-26.7-80.9-34.1-42.5-43.4 20.9-105 21.6-20 80.9-3.3 80.8 5.8 45.8 17.5 34.2 15.9 80.8 26.6 80.9-7.5 80.8-18.3 42.5-16.7L1580 425l80.8-15.8 78.4-63.4H790.8l64.2 85.9 20.8 19.1-20.8 55-80.8-.8-79.2-54.2-1.7-3.3-.8 3.3-28.3 105 12.5 105 16.6 18.4"/><path fill="#bfff40" fill-rule="evenodd" d="M532.5 1394.2h160.8l17.5-.9 63.4-52.5 71.6 52.5 9.2.9h1048.3v-146.7l-80.8-35.8-80.8 19.1-80.9 22.5-44.1-69.1-36.7-30.9-66.7-74.1-13.3-17.5-42.5 17.5-38.3 55.8-20-55.8-60.9-23.4-40 23.4 40 60 58.4 45 22.5 63.3 80.8-17.5 80 36.7 25 22.5-25 24.1-80 71.7-80.8-3.3h-80.9l-80.8-52.5-80-10.9-80.8 3.4-80.9-2.5-80.8 34.1-61.7-64.1-18.3-9.2-80.8-50-80.9-18.3-24.1-27.5 2.5-105-2.5-104.2-56.7-17.5-54.2 17.5-25.8 17.5-.8 86.7v314.1l.8.9"/><path fill="none" stroke="#000" stroke-linejoin="round" stroke-miterlimit="10" stroke-width="5" d="M532.5 1394.2h160.8l17.5-.9 63.4-52.5 71.6 52.5 9.2.9h1048.3v-146.7l-80.8-35.8-80.8 19.1-80.9 22.5-44.1-69.1-36.7-30.9-66.7-74.1-13.3-17.5-42.5 17.5-38.3 55.8-20-55.8-60.9-23.4-40 23.4 40 60 58.4 45 22.5 63.3 80.8-17.5 80 36.7 25 22.5-25 24.1-80 71.7-80.8-3.3h-80.9l-80.8-52.5-80-10.9-80.8 3.4-80.9-2.5-80.8 34.1-61.7-64.1-18.3-9.2-80.8-50-80.9-18.3-24.1-27.5 2.5-105-2.5-104.2-56.7-17.5-54.2 17.5-25.8 17.5-.8 86.7v314.1l.8.9"/><path fill="#00afff" fill-rule="evenodd" d="M1741.7 901.7l-80.9 9.1L1595 975l63.3 104.2-78.3 29.1-25.8-29.1-54.2-70.9-80.8 44.2-80.9-22.5-80.8 37.5-80-20.8-80.8-10.9-80.9-1.6-80.8 8.3-51.7-67.5-28.3-45-80.8-33.3L740 870l34.2-29.2 80.8-20 80 35 80.8-8.3 67.5 22.5 13.4 11.7 80.8-5 22.5-6.7 57.5-24.2 80.8 9.2 80.9-50.8 8.3-39.2 72.5-95.8 80 61.6 21.7 34.2 59.1 33.3 80.9 20 46.6 51.7-46.6 31.7"/><path fill="none" stroke="#000" stroke-linejoin="round" stroke-miterlimit="10" stroke-width="5" d="M1741.7 901.7l-80.9 9.1L1595 975l63.3 104.2-78.3 29.1-25.8-29.1-54.2-70.9-80.8 44.2-80.9-22.5-80.8 37.5-80-20.8-80.8-10.9-80.9-1.6-80.8 8.3-51.7-67.5-28.3-45-80.8-33.3L740 870l34.2-29.2 80.8-20 80 35 80.8-8.3 67.5 22.5 13.4 11.7 80.8-5 22.5-6.7 57.5-24.2 80.8 9.2 80.9-50.8 8.3-39.2 72.5-95.8 80 61.6 21.7 34.2 59.1 33.3 80.9 20 46.6 51.7-46.6 31.7"/><path fill="#0050ff" fill-rule="evenodd" d="M1741.7 885.8l-80.9 5L1580 965l-41.7 10-38.3 6.7-80.8 50.8-80.9-15.8-79.1-41.7 79.1-88.3 80.9-2.5L1435 870l18.3-105 46.7-61.7 59.2 61.7 20.8 19.2 80.8 49.1 80.9 10.9L1765 870l-23.3 15.8"/><path fill="none" stroke="#000" stroke-linejoin="round" stroke-miterlimit="10" stroke-width="5" d="M1741.7 885.8l-80.9 5L1580 965l-41.7 10-38.3 6.7-80.8 50.8-80.9-15.8-79.1-41.7 79.1-88.3 80.9-2.5L1435 870l18.3-105 46.7-61.7 59.2 61.7 20.8 19.2 80.8 49.1 80.9 10.9L1765 870l-23.3 15.8"/><path fill="#ffdf00" fill-rule="evenodd" d="M1660.8 385.8l49.2-40h-692.5l79.2 53.4 80.8 1.6 80 37.5 20 12.5 60.8 28.4 80.9-5 70.8-23.4 10-7.5 80-57.5h80.8"/><path fill="none" stroke="#000" stroke-linejoin="round" stroke-miterlimit="10" stroke-width="5" d="M1660.8 385.8l49.2-40h-692.5l79.2 53.4 80.8 1.6 80 37.5 20 12.5 60.8 28.4 80.9-5 70.8-23.4 10-7.5 80-57.5h80.8"/><path fill="#ffdf00" fill-rule="evenodd" d="M855 679.2l22.5 85.8 57.5 37.5 80.8 4.2 80.9 19.1 80.8-27.5 44.2-33.3-44.2-59.2-80.8-34.1-30.9-10.9-50-25.8-78.3-79.2L935 540l-5.8 15.8L935 580l18.3 80.8L935 670l-44.2-9.2-35.8-19.1-16.7 19.1 16.7 18.4"/><path fill="none" stroke="#000" stroke-linejoin="round" stroke-miterlimit="10" stroke-width="5" d="M855 679.2l22.5 85.8 57.5 37.5 80.8 4.2 80.9 19.1 80.8-27.5 44.2-33.3-44.2-59.2-80.8-34.1-30.9-10.9-50-25.8-78.3-79.2L935 540l-5.8 15.8L935 580l18.3 80.8L935 670l-44.2-9.2-35.8-19.1-16.7 19.1 16.7 18.4"/><path fill="#ffdf00" fill-rule="evenodd" d="M532.5 1394.2h80l55.8-.9 25-67.5 80.9-14.1 40-22.5-40-25-80.9 8.3-77.5-88.3 28.4-105-31.7-76.7-80 53.3-.8 23.4v314.1l.8.9"/><path fill="none" stroke="#000" stroke-linejoin="round" stroke-miterlimit="10" stroke-width="5" d="M532.5 1394.2h80l55.8-.9 25-67.5 80.9-14.1 40-22.5-40-25-80.9 8.3-77.5-88.3 28.4-105-31.7-76.7-80 53.3-.8 23.4v314.1l.8.9"/><path fill="#00afff" fill-rule="evenodd" d="M1660.8 694.2l-31.6-33.4L1580 625l-80 24.2-80.8-24.2-80.9-19.2-80.8-30.8-27.5-19.2 27.5-15 80.8-17.5 80.9-12.5 80.8.9 80-8.4 52.5 52.5 28.3 65 17.5 40-17.5 33.4"/><path fill="none" stroke="#000" stroke-linejoin="round" stroke-miterlimit="10" stroke-width="5" d="M1660.8 694.2l-31.6-33.4L1580 625l-80 24.2-80.8-24.2-80.9-19.2-80.8-30.8-27.5-19.2 27.5-15 80.8-17.5 80.9-12.5 80.8.9 80-8.4 52.5 52.5 28.3 65 17.5 40-17.5 33.4"/><path fill="#00f" fill-rule="evenodd" d="M1660.8 870.8l-80.8 62.5-80-5.8-22.5 47.5-58.3 37.5-80.9-8.3-55-29.2 55-61.7 80.9 1.7 50-45 9.1-105 21.7-27.5 25.8 27.5 54.2 48.3 80.8 54.2 69.2 2.5-69.2.8"/><path fill="none" stroke="#000" stroke-linejoin="round" stroke-miterlimit="10" stroke-width="5" d="M1660.8 870.8l-80.8 62.5-80-5.8-22.5 47.5-58.3 37.5-80.9-8.3-55-29.2 55-61.7 80.9 1.7 50-45 9.1-105 21.7-27.5 25.8 27.5 54.2 48.3 80.8 54.2 69.2 2.5-69.2.8"/><path fill="#0050ff" fill-rule="evenodd" d="M935 1016.7L903.3 975l31.7-93.3 18.3-11.7 62.5-9.2 28.4 9.2 52.5 45.8 80.8-11.6 78.3 70.8-78.3 50.8-80.8-12.5h-80.9l-80.8 3.4"/><path fill="none" stroke="#000" stroke-linejoin="round" stroke-miterlimit="10" stroke-width="5" d="M935 1016.7L903.3 975l31.7-93.3 18.3-11.7 62.5-9.2 28.4 9.2 52.5 45.8 80.8-11.6 78.3 70.8-78.3 50.8-80.8-12.5h-80.9l-80.8 3.4"/><path fill="#ff8f00" fill-rule="evenodd" d="M1660.8 362.5l20-16.7h-620l35.9 24.2 80.8-.8 80 48.3 52.5 33.3 28.3 13.4 80.9-2.5 33.3-10.9L1500 410l80-63.3 80.8 15.8"/><path fill="none" stroke="#000" stroke-linejoin="round" stroke-miterlimit="10" stroke-width="5" d="M1660.8 362.5l20-16.7h-620l35.9 24.2 80.8-.8 80 48.3 52.5 33.3 28.3 13.4 80.9-2.5 33.3-10.9L1500 410l80-63.3 80.8 15.8"/><path fill="#ffdf00" fill-rule="evenodd" d="M1903.3 1394.2V1265l-80.8-25-80.8 10.8-75 38.4 2.5 104.1 72.5.9h161.6"/><path fill="none" stroke="#000" stroke-linejoin="round" stroke-miterlimit="10" stroke-width="5" d="M1903.3 1394.2V1265l-80.8-25-80.8 10.8-75 38.4 2.5 104.1 72.5.9h161.6"/><path fill="#bfff40" fill-rule="evenodd" d="M1903.3 1038.3V891.7l-80.8 8.3-80.8 32.5-80.9 18.3-25 24.2 25 40 80.9 23.3 80.8-21.6 80.8 21.6"/><path fill="none" stroke="#000" stroke-linejoin="round" stroke-miterlimit="10" stroke-width="5" d="M1903.3 1038.3V891.7l-80.8 8.3-80.8 32.5-80.9 18.3-25 24.2 25 40 80.9 23.3 80.8-21.6 80.8 21.6"/><path fill="#ff8f00" fill-rule="evenodd" d="M935 785l80.8 8.3 80.9 15.9 80.8-35.9 10-8.3-10-13.3-80.8-54.2-80.9-25-80.8 43.3-30 49.2 30 20"/><path fill="none" stroke="#000" stroke-linejoin="round" stroke-miterlimit="10" stroke-width="5" d="M935 785l80.8 8.3 80.9 15.9 80.8-35.9 10-8.3-10-13.3-80.8-54.2-80.9-25-80.8 43.3-30 49.2 30 20"/><path fill="#ff3000" fill-rule="evenodd" d="M1500 377.5l40-31.7h-354.2l71.7 50.9 80.8 49.1 80.9-3.3 80.8-65"/><path fill="none" stroke="#000" stroke-linejoin="round" stroke-miterlimit="10" stroke-width="5" d="M1500 377.5l40-31.7h-354.2l71.7 50.9 80.8 49.1 80.9-3.3 80.8-65"/><path fill="#00f" fill-rule="evenodd" d="M935 990l-11.7-15 11.7-35 80.8-43.3 80.9 54.1 80.8-18.3L1225 975l-47.5 30.8-80.8-15-80.9 1.7L935 990"/><path fill="none" stroke="#000" stroke-linejoin="round" stroke-miterlimit="10" stroke-width="5" d="M935 990l-11.7-15 11.7-35 80.8-43.3 80.9 54.1 80.8-18.3L1225 975l-47.5 30.8-80.8-15-80.9 1.7L935 990"/><path fill="#0050ff" fill-rule="evenodd" d="M1580 574.2l-80 28.3-80.8 4.2-80.9-24.2-53.3-26.7 53.3-17.5 80.9-15 80.8 10 80 8.4 14.2 14.1-14.2 18.4"/><path fill="none" stroke="#000" stroke-linejoin="round" stroke-miterlimit="10" stroke-width="5" d="M1580 574.2l-80 28.3-80.8 4.2-80.9-24.2-53.3-26.7 53.3-17.5 80.9-15 80.8 10 80 8.4 14.2 14.1-14.2 18.4"/><path fill="#ff8f00" fill-rule="evenodd" d="M1903.3 1330.8v-48.3l-80.8-14.2-80.8 2.5-35 18.4 35 77.5 80.8 4.1 80.8-40"/><path fill="none" stroke="#000" stroke-linejoin="round" stroke-miterlimit="10" stroke-width="5" d="M1903.3 1330.8v-48.3l-80.8-14.2-80.8 2.5-35 18.4 35 77.5 80.8 4.1 80.8-40"/><path fill="#bfff40" fill-rule="evenodd" d="M1903.3 510V394.2l-60 56.6-20.8 35-54.2 70 54.2 46.7 38.3-46.7 42.5-45.8"/><path fill="none" stroke="#000" stroke-linejoin="round" stroke-miterlimit="10" stroke-width="5" d="M1903.3 510V394.2l-60 56.6-20.8 35-54.2 70 54.2 46.7 38.3-46.7 42.5-45.8"/><path fill="#bfff40" fill-rule="evenodd" d="M774.2 1132.5l32.5-53.3 5.8-104.2-38.3-16.7-55 16.7 3.3 104.2 51.7 53.3"/><path fill="none" stroke="#000" stroke-linejoin="round" stroke-miterlimit="10" stroke-width="5" d="M774.2 1132.5l32.5-53.3 5.8-104.2-38.3-16.7-55 16.7 3.3 104.2 51.7 53.3"/><path fill="#10ffef" fill-rule="evenodd" d="M1015.8 1293.3l-30-4.1-25-105 55-43.4 73.4 43.4-56.7 105-16.7 4.1"/><path fill="none" stroke="#000" stroke-linejoin="round" stroke-miterlimit="10" stroke-width="5" d="M1015.8 1293.3l-30-4.1-25-105 55-43.4 73.4 43.4-56.7 105-16.7 4.1"/><path fill="#ffdf00" fill-rule="evenodd" d="M1903.3 1007.5v-75l-80.8 21.7-80.8-5.9-80.9 21.7-4.1 5 4.1 6.7 80.9 32.5 80.8-28.4 80.8 21.7"/><path fill="none" stroke="#000" stroke-linejoin="round" stroke-miterlimit="10" stroke-width="5" d="M1903.3 1007.5v-75l-80.8 21.7-80.8-5.9-80.9 21.7-4.1 5 4.1 6.7 80.9 32.5 80.8-28.4 80.8 21.7"/><path fill="#bfff40" fill-rule="evenodd" d="M1338.3 778.3l14.2-13.3 44.2-104.2-58.4-8.3-52.5 8.3-17.5 104.2 70 13.3"/><path fill="none" stroke="#000" stroke-linejoin="round" stroke-miterlimit="10" stroke-width="5" d="M1338.3 778.3l14.2-13.3 44.2-104.2-58.4-8.3-52.5 8.3-17.5 104.2 70 13.3"/><path fill="#ff3000" fill-rule="evenodd" d="M935 766.7l80.8 13.3 80.9 12.5 56.6-27.5-56.6-41.7-80.9-6.6-80.8 44.1-2.5 4.2 2.5 1.7"/><path fill="none" stroke="#000" stroke-linejoin="round" stroke-miterlimit="10" stroke-width="5" d="M935 766.7l80.8 13.3 80.9 12.5 56.6-27.5-56.6-41.7-80.9-6.6-80.8 44.1-2.5 4.2 2.5 1.7"/><path fill="#cf0000" fill-rule="evenodd" d="M1419.2 381.7l76.6-35.9h-280l41.7 30 80.8 30 80.9-24.1"/><path fill="none" stroke="#000" stroke-linejoin="round" stroke-miterlimit="10" stroke-width="5" d="M1419.2 381.7l76.6-35.9h-280l41.7 30 80.8 30 80.9-24.1"/><path fill="#ff8f00" fill-rule="evenodd" d="M532.5 1315l69.2 78.3 10.8.9 5.8-.9 17.5-104.1-23.3-25-80 2.5-.8 22.5.8 25.8"/><path fill="none" stroke="#000" stroke-linejoin="round" stroke-miterlimit="10" stroke-width="5" d="M532.5 1315l69.2 78.3 10.8.9 5.8-.9 17.5-104.1-23.3-25-80 2.5-.8 22.5.8 25.8"/><path fill="#ffdf00" fill-rule="evenodd" d="M1177.5 1394.2h80l42.5-.9-42.5-28.3-80-28.3-77.5 56.6 77.5.9"/><path fill="none" stroke="#000" stroke-linejoin="round" stroke-miterlimit="10" stroke-width="5" d="M1177.5 1394.2h80l42.5-.9-42.5-28.3-80-28.3-77.5 56.6 77.5.9"/><path fill="#00009f" fill-rule="evenodd" d="M1419.2 993.3l-80.9-2.5-30-15.8 30-34.2 80.9 5.9 28.3 28.3-28.3 18.3"/><path fill="none" stroke="#000" stroke-linejoin="round" stroke-miterlimit="10" stroke-width="5" d="M1419.2 993.3l-80.9-2.5-30-15.8 30-34.2 80.9 5.9 28.3 28.3-28.3 18.3"/><path fill="#00f" fill-rule="evenodd" d="M1419.2 587.5l-80.9-28.3-6.6-3.4 6.6-2.5 80.9-18.3 80.8 20.8-80.8 31.7"/><path fill="none" stroke="#000" stroke-linejoin="round" stroke-miterlimit="10" stroke-width="5" d="M1419.2 587.5l-80.9-28.3-6.6-3.4 6.6-2.5 80.9-18.3 80.8 20.8-80.8 31.7"/><path fill="#00afff" fill-rule="evenodd" d="M855 1204.2l-37.5-20 35.8-105 1.7-3.4 2.5 3.4 19.2 105-21.7 20"/><path fill="none" stroke="#000" stroke-linejoin="round" stroke-miterlimit="10" stroke-width="5" d="M855 1204.2l-37.5-20 35.8-105 1.7-3.4 2.5 3.4 19.2 105-21.7 20"/><path fill="#0050ff" fill-rule="evenodd" d="M855 898.3L785 870l70-23.3 65 23.3-65 28.3"/><path fill="none" stroke="#000" stroke-linejoin="round" stroke-miterlimit="10" stroke-width="5" d="M855 898.3L785 870l70-23.3 65 23.3-65 28.3"/><path fill="#ffdf00" fill-rule="evenodd" d="M1015.8 1394.2l75.9-.9-75.9-48.3-62.5 48.3 62.5.9"/><path fill="none" stroke="#000" stroke-linejoin="round" stroke-miterlimit="10" stroke-width="5" d="M1015.8 1394.2l75.9-.9-75.9-48.3-62.5 48.3 62.5.9"/><path fill="#00009f" fill-rule="evenodd" d="M1580 900.8l-72.5-30.8 72.5-27.5 40.8 27.5-40.8 30.8"/><path fill="none" stroke="#000" stroke-linejoin="round" stroke-miterlimit="10" stroke-width="5" d="M1580 900.8l-72.5-30.8 72.5-27.5 40.8 27.5-40.8 30.8"/><path fill="#ff8f00" fill-rule="evenodd" d="M1177.5 1394.2l72.5-.9-72.5-38.3-53.3 38.3 53.3.9"/><path fill="none" stroke="#000" stroke-linejoin="round" stroke-miterlimit="10" stroke-width="5" d="M1177.5 1394.2l72.5-.9-72.5-38.3-53.3 38.3 53.3.9"/><path fill="maroon" fill-rule="evenodd" d="M1338.3 366.7l45-20.9h-137.5l11.7 9.2 80.8 11.7"/><path fill="none" stroke="#000" stroke-linejoin="round" stroke-miterlimit="10" stroke-width="5" d="M1338.3 366.7l45-20.9h-137.5l11.7 9.2 80.8 11.7"/><path fill="#cf0000" fill-rule="evenodd" d="M1015.8 766.7l80.9 9.1 22.5-10.8-22.5-16.7-80.9 12.5-7.5 4.2 7.5 1.7"/><path fill="none" stroke="#000" stroke-linejoin="round" stroke-miterlimit="10" stroke-width="5" d="M1015.8 766.7l80.9 9.1 22.5-10.8-22.5-16.7-80.9 12.5-7.5 4.2 7.5 1.7"/><path fill="#00afff" fill-rule="evenodd" d="M1741.7 1190l-35.9-5.8 35.9-52.5 16.6 52.5-16.6 5.8"/><path fill="none" stroke="#000" stroke-linejoin="round" stroke-miterlimit="10" stroke-width="5" d="M1741.7 1190l-35.9-5.8 35.9-52.5 16.6 52.5-16.6 5.8"/><path fill="#ff8f00" fill-rule="evenodd" d="M1741.7 990.8l41.6-15.8-41.6-10.8-37.5 10.8 37.5 15.8"/><path fill="none" stroke="#000" stroke-linejoin="round" stroke-miterlimit="10" stroke-width="5" d="M1741.7 990.8l41.6-15.8-41.6-10.8-37.5 10.8 37.5 15.8"/><path fill="#ffdf00" fill-rule="evenodd" d="M1338.3 1106.7l27.5-27.5-27.5-10.9-18.3 10.9 18.3 27.5"/><path fill="none" stroke="#000" stroke-linejoin="round" stroke-miterlimit="10" stroke-width="5" d="M1338.3 1106.7l27.5-27.5-27.5-10.9-18.3 10.9 18.3 27.5"/><path fill="#00009f" fill-rule="evenodd" d="M1177.5 985l-50.8-10 50.8-15 15.8 15-15.8 10"/><path fill="none" stroke="#000" stroke-linejoin="round" stroke-miterlimit="10" stroke-width="5" d="M1177.5 985l-50.8-10 50.8-15 15.8 15-15.8 10"/><path fill="#ffdf00" fill-rule="evenodd" d="M855 346.7l80 11.6 48.3-12.5H854.2l.8.9"/><path fill="none" stroke="#000" stroke-linejoin="round" stroke-miterlimit="10" stroke-width="5" d="M855 346.7l80 11.6 48.3-12.5H854.2l.8.9"/><path fill="#ffdf00" fill-rule="evenodd" d="M774.2 1094.2l9.1-15-9.1-48.4-15 48.4 15 15"/><path fill="none" stroke="#000" stroke-linejoin="round" stroke-miterlimit="10" stroke-width="5" d="M774.2 1094.2l9.1-15-9.1-48.4-15 48.4 15 15"/><path fill="#0050ff" fill-rule="evenodd" d="M1580 1086.7l-5.8-7.5 5.8-53.4 19.2 53.4-19.2 7.5"/><path fill="none" stroke="#000" stroke-linejoin="round" stroke-miterlimit="10" stroke-width="5" d="M1580 1086.7l-5.8-7.5 5.8-53.4 19.2 53.4-19.2 7.5"/><path fill="#ff8f00" fill-rule="evenodd" d="M1015.8 1394.2l35.9-.9-35.9-22.5-29.1 22.5 29.1.9"/><path fill="none" stroke="#000" stroke-linejoin="round" stroke-miterlimit="10" stroke-width="5" d="M1015.8 1394.2l35.9-.9-35.9-22.5-29.1 22.5 29.1.9"/><path fill="#ffdf00" fill-rule="evenodd" d="M1580 1207.5l10.8-23.3-10.8-8.4-36.7 8.4 36.7 23.3"/><path fill="none" stroke="#000" stroke-linejoin="round" stroke-miterlimit="10" stroke-width="5" d="M1580 1207.5l10.8-23.3-10.8-8.4-36.7 8.4 36.7 23.3"/><path fill="#00009f" fill-rule="evenodd" d="M1419.2 568.3l-35.9-12.5 35.9-8.3 32.5 8.3-32.5 12.5"/><path fill="none" stroke="#000" stroke-linejoin="round" stroke-miterlimit="10" stroke-width="5" d="M1419.2 568.3l-35.9-12.5 35.9-8.3 32.5 8.3-32.5 12.5"/><path fill="#ffdf00" fill-rule="evenodd" d="M1580 1394.2l63.3-.9-63.3-16.6-18.3 16.6 18.3.9"/><path fill="none" stroke="#000" stroke-linejoin="round" stroke-miterlimit="10" stroke-width="5" d="M1580 1394.2l63.3-.9-63.3-16.6-18.3 16.6 18.3.9"/><path fill="#bfff40" fill-rule="evenodd" d="M532.5 625.8l17.5-70-17.5-9.1-.8 9.1.8 70"/><path fill="none" stroke="#000" stroke-linejoin="round" stroke-miterlimit="10" stroke-width="5" d="M532.5 625.8l17.5-70-17.5-9.1-.8 9.1.8 70"/><path fill="#ff3000" fill-rule="evenodd" d="M1177.5 1394.2l38.3-.9-38.3-20-28.3 20 28.3.9"/><path fill="none" stroke="#000" stroke-linejoin="round" stroke-miterlimit="10" stroke-width="5" d="M1177.5 1394.2l38.3-.9-38.3-20-28.3 20 28.3.9"/><path fill="#bfff40" fill-rule="evenodd" d="M1903.3 790v-36.7l-29.1 11.7z"/><path fill="none" stroke="#000" stroke-linejoin="round" stroke-miterlimit="10" stroke-width="5" d="M1903.3 790v-36.7l-29.1 11.7 29.1 25"/><path fill="#bfff40" fill-rule="evenodd" d="M1015.8 1089.2l59.2-10-59.2-3.4-19.1 3.4 19.1 10"/><path fill="none" stroke="#000" stroke-linejoin="round" stroke-miterlimit="10" stroke-width="5" d="M1015.8 1089.2l59.2-10-59.2-3.4-19.1 3.4 19.1 10"/><path fill="#ffdf00" fill-rule="evenodd" d="M1903.3 474.2v-45l-23.3 21.6z"/><path fill="none" stroke="#000" stroke-linejoin="round" stroke-miterlimit="10" stroke-width="5" d="M1903.3 474.2v-45l-23.3 21.6 23.3 23.4"/><path fill="#00008f" fill-rule="evenodd" d="M1338.3 978.3l-5.8-3.3 5.8-7.5 61.7 7.5-61.7 3.3"/><path fill="none" stroke="#000" stroke-linejoin="round" stroke-miterlimit="10" stroke-width="5" d="M1338.3 978.3l-5.8-3.3 5.8-7.5 61.7 7.5-61.7 3.3"/><path fill="#ff8f00" fill-rule="evenodd" d="M612.5 1093.3l4.2-14.1-4.2-9.2-15 9.2 15 14.1"/><path fill="none" stroke="#000" stroke-linejoin="round" stroke-miterlimit="10" stroke-width="5" d="M612.5 1093.3l4.2-14.1-4.2-9.2-15 9.2 15 14.1"/><path fill="#bfff40" fill-rule="evenodd" d="M1741.7 767.5l15.8-2.5-15.8-15-5 15 5 2.5"/><path fill="none" stroke="#000" stroke-linejoin="round" stroke-miterlimit="10" stroke-width="5" d="M1741.7 767.5l15.8-2.5-15.8-15-5 15 5 2.5"/><path fill="#ffdf00" fill-rule="evenodd" d="M1822.5 562.5l5-6.7-5-10-7.5 10 7.5 6.7"/><path fill="none" stroke="#000" stroke-linejoin="round" stroke-miterlimit="10" stroke-width="5" d="M1822.5 562.5l5-6.7-5-10-7.5 10 7.5 6.7"/><path fill="#00afff" fill-rule="evenodd" d="M1822.5 1084.2l-11.7-5 11.7-.9 5 .9-5 5"/><path fill="none" stroke="#000" stroke-linejoin="round" stroke-miterlimit="10" stroke-width="5" d="M1822.5 1084.2l-11.7-5 11.7-.9 5 .9-5 5"/><path fill="#10ffef" fill-rule="evenodd" d="M774.2 452.5l-2.5-1.7 2.5-3.3 2.5 3.3-2.5 1.7"/><path fill="none" stroke="#000" stroke-linejoin="round" stroke-miterlimit="10" stroke-width="5" d="M774.2 452.5l-2.5-1.7 2.5-3.3 2.5 3.3-2.5 1.7"/><path fill="#ff8f00" fill-rule="evenodd" d="M1903.3 976.7v-4.2l-6.6 2.5z"/><path fill="none" stroke="#000" stroke-linejoin="round" stroke-miterlimit="10" stroke-width="5" d="M1903.3 976.7v-4.2l-6.6 2.5 6.6 1.7"/><path fill="#cf0000" fill-rule="evenodd" d="M1177.5 1394.2l3.3-.9-3.3-1.6-3.3 1.6 3.3.9"/><path fill="none" stroke="#000" stroke-linejoin="round" stroke-miterlimit="10" stroke-width="5" d="M1177.5 1394.2l3.3-.9-3.3-1.6-3.3 1.6 3.3.9"/><path fill="#00afff" fill-rule="evenodd" d="M1338.3 1290l-1.6-.8 1.6-3.4.9 3.4-.9.8"/><path fill="none" stroke="#000" stroke-linejoin="round" stroke-miterlimit="10" stroke-width="5" d="M1338.3 1290l-1.6-.8 1.6-3.4.9 3.4-.9.8"/><path fill="#0050ff" fill-rule="evenodd" d="M612.5 870v-.8l.8.8h-.8"/><path fill="none" stroke="#000" stroke-linejoin="round" stroke-miterlimit="10" stroke-width="5" d="M612.5 870v-.8l.8.8h-.8"/></g><g clip-path="url(#g)" transform="matrix(.13333 0 0 -.13333 0 410.7)"><path fill="none" stroke="#000" stroke-linejoin="round" stroke-miterlimit="10" stroke-width="5" d="M532.5 345.8h1370.8M532.5 1393.3h1370.8M532.5 345.8v1047.5M1903.3 345.8v1047.5M532.5 345.8h1370.8M532.5 345.8v1047.5M836.7 345.8V360M836.7 1393.3V1380"/><text style="-inkscape-font-specification:Helvetica" font-family="Helvetica" font-size="10" font-weight="400" transform="matrix(10 0 0 -10 809.2 225)"><tspan x="0" y="0">5</tspan></text><path fill="none" stroke="#000" stroke-linejoin="round" stroke-miterlimit="10" stroke-width="5" d="M1217.5 345.8V360M1217.5 1393.3V1380"/><text style="-inkscape-font-specification:Helvetica" font-family="Helvetica" font-size="10" font-weight="400" transform="matrix(10 0 0 -10 1162.5 225)"><tspan x="0 5.56" y="0">10</tspan></text><path fill="none" stroke="#000" stroke-linejoin="round" stroke-miterlimit="10" stroke-width="5" d="M1598.3 345.8V360M1598.3 1393.3V1380"/><text style="-inkscape-font-specification:Helvetica" font-family="Helvetica" font-size="10" font-weight="400" transform="matrix(10 0 0 -10 1543.3 225)"><tspan x="0 5.56" y="0">15</tspan></text><path fill="none" stroke="#000" stroke-linejoin="round" stroke-miterlimit="10" stroke-width="5" d="M532.5 441.7h13.3M1903.3 441.7h-14.1"/><text style="-inkscape-font-specification:Helvetica" font-family="Helvetica" font-size="10" font-weight="400" transform="matrix(10 0 0 -10 448.3 405)"><tspan x="0" y="0">2</tspan></text><path fill="none" stroke="#000" stroke-linejoin="round" stroke-miterlimit="10" stroke-width="5" d="M532.5 631.7h13.3M1903.3 631.7h-14.1"/><text style="-inkscape-font-specification:Helvetica" font-family="Helvetica" font-size="10" font-weight="400" transform="matrix(10 0 0 -10 448.3 595)"><tspan x="0" y="0">4</tspan></text><path fill="none" stroke="#000" stroke-linejoin="round" stroke-miterlimit="10" stroke-width="5" d="M532.5 822.5h13.3M1903.3 822.5h-14.1"/><text style="-inkscape-font-specification:Helvetica" font-family="Helvetica" font-size="10" font-weight="400" transform="matrix(10 0 0 -10 448.3 785.8)"><tspan x="0" y="0">6</tspan></text><path fill="none" stroke="#000" stroke-linejoin="round" stroke-miterlimit="10" stroke-width="5" d="M532.5 1012.5h13.3M1903.3 1012.5h-14.1"/><text style="-inkscape-font-specification:Helvetica" font-family="Helvetica" font-size="10" font-weight="400" transform="matrix(10 0 0 -10 448.3 975.8)"><tspan x="0" y="0">8</tspan></text><path fill="none" stroke="#000" stroke-linejoin="round" stroke-miterlimit="10" stroke-width="5" d="M532.5 1203.3h13.3M1903.3 1203.3h-14.1"/><text style="-inkscape-font-specification:Helvetica" font-family="Helvetica" font-size="10" font-weight="400" transform="matrix(10 0 0 -10 392.5 1166.7)"><tspan x="0 5.56" y="0">10</tspan></text><path fill="none" stroke="#000" stroke-linejoin="round" stroke-miterlimit="10" stroke-width="5" d="M532.5 1393.3h13.3M1903.3 1393.3h-14.1"/><text style="-inkscape-font-specification:Helvetica" font-family="Helvetica" font-size="10" font-weight="400" transform="matrix(10 0 0 -10 392.5 1356.7)"><tspan x="0 5.56" y="0">12</tspan></text><path fill="none" stroke="#000" stroke-linejoin="round" stroke-miterlimit="10" stroke-width="5" d="M532.5 345.8h1370.8M532.5 1393.3h1370.8M532.5 345.8v1047.5M1903.3 345.8v1047.5"/><path fill="#fff" fill-rule="evenodd" d="M2335.8 345.8h1370.9v1047.5H2335.8z"/><path fill="none" stroke="#fff" stroke-linejoin="round" stroke-miterlimit="10" stroke-width="5" d="M2335.8 345.8v1047.5h1370.9V345.8H2335.8"/></g><g clip-path="url(#h)" transform="matrix(.13333 0 0 -.13333 0 410.7)"><path fill="#00008f" fill-rule="evenodd" d="M2335.8 1394.2h1370.9V345.8H2335v1047.5l.8.9"/><path fill="none" stroke="#000" stroke-linejoin="round" stroke-miterlimit="10" stroke-width="5" d="M2335.8 1394.2h1370.9V345.8H2335v1047.5l.8.9"/><path fill="#0000bf" fill-rule="evenodd" d="M2335.8 1394.2h1370.9V345.8H2335v1047.5l.8.9"/><path fill="none" stroke="#000" stroke-linejoin="round" stroke-miterlimit="10" stroke-width="5" d="M2335.8 1394.2h1370.9V345.8H2335v1047.5l.8.9"/><path fill="#0020ff" fill-rule="evenodd" d="M2335.8 1394.2h1370.9V345.8H2335v1047.5l.8.9"/><path fill="none" stroke="#000" stroke-linejoin="round" stroke-miterlimit="10" stroke-width="5" d="M2335.8 1394.2h1370.9V345.8H2335v1047.5l.8.9"/><path fill="#008fff" fill-rule="evenodd" d="M2335.8 1394.2h1370.9v-202.5l-10-7.5 10-8.4v-830H2335V1079.2l.8 104.1 1.7.9-1.7.8-.8 104.2v104.1l.8.9"/><path fill="none" stroke="#000" stroke-linejoin="round" stroke-miterlimit="10" stroke-width="5" d="M2335.8 1394.2h1370.9v-202.5l-10-7.5 10-8.4v-830H2335V1079.2l.8 104.1 1.7.9-1.7.8-.8 104.2v104.1l.8.9"/><path fill="#0ff" fill-rule="evenodd" d="M2335.8 1394.2h1370.9V1210l-34.2-25.8 34.2-30v-160l-80.9 23.3-80.8 16.7-80.8-29.2-80.9 14.2-80-23.4-80.8-4.1-80.8-3.4-80.9 5.9-41.6-19.2 41.6-67.5 80.9 30L3195 870l27.5-23.3 80.8 13.3 61.7-95 18.3-11.7L3430 765l34.2 14.2 80.8 16.6 80.8 50.9 22.5 23.3 58.4 66.7V349.2l-9.2-3.4H2335v105l.8 88.4 20.9 16.6-20.9 9.2-.8 95.8v418.4l.8 83.3 32.5 21.7-32.5 16.6-.8 88.4v104.1l.8.9"/><path fill="none" stroke="#000" stroke-linejoin="round" stroke-miterlimit="10" stroke-width="5" d="M2335.8 1394.2h1370.9V1210l-34.2-25.8 34.2-30v-160l-80.9 23.3-80.8 16.7-80.8-29.2-80.9 14.2-80-23.4-80.8-4.1-80.8-3.4-80.9 5.9-41.6-19.2 41.6-67.5 80.9 30L3195 870l27.5-23.3 80.8 13.3 61.7-95 18.3-11.7L3430 765l34.2 14.2 80.8 16.6 80.8 50.9 22.5 23.3 58.4 66.7V349.2l-9.2-3.4H2335v105l.8 88.4 20.9 16.6-20.9 9.2-.8 95.8v418.4l.8 83.3 32.5 21.7-32.5 16.6-.8 88.4v104.1l.8.9"/><path fill="#70ff8f" fill-rule="evenodd" d="M2335.8 1394.2h322.5l43.4-.9-43.4-25.8-80.8-13.3-69.2-65 69.2-46.7 80.8-14.2 80 52.5 16.7 8.4 23.3 104.1 40.9.9h80.8l49.2-.9 31.6-20.8 16.7 20.8 63.3.9h645.9v-165l-58.4-45 58.4-51.7v-113.3l-80.9 12.5-80.8 20.8-80.8-35.8-80.9 15-80-21.7-80.8-3.3-80.8.8-80.9 1.7-74.1-34.2-5.9-15-80.8-40.8-80.8-41.7-80.9 1.7-16.6-9.2.8-105 15.8-15.8 20.9 15.8 60 85 80.8-50.8 80.8 25.8 78.4-60 1.6-.8 2.5.8 36.7 105 41.7 15.8 12.5-15.8 68.3-57.5 80.8-.8 30-46.7 50-31.7 80.9 18.4 80.8-10.9 25.8 24.2 55 37.5L3690 870l16.7 18.3V637.5l-80.9-20.8L3545 630l-80.8-27.5-80.9 5.8-80-6.6-80.8-10-36.7-35.9 36.7-33.3 80.8-23.3 80 8.3 80.9-10 80.8 5 80.8-39.2 80.9 22.5v-68.3l-80.9.8-80.8-65.8-80.8 17.5-59.2-24.2H2915.8l14.2 105-30 22.5-80.8 19.2-43.4-41.7-.8-105H2335v105l.8 60 57.5 45-57.5 25-.8 80v418.4l.8 62.5 63.4 42.5-63.4 31.6-.8 73.4v104.1l.8.9"/><path fill="none" stroke="#000" stroke-linejoin="round" stroke-miterlimit="10" stroke-width="5" d="M2335.8 1394.2h322.5l43.4-.9-43.4-25.8-80.8-13.3-69.2-65 69.2-46.7 80.8-14.2 80 52.5 16.7 8.4 23.3 104.1 40.9.9h80.8l49.2-.9 31.6-20.8 16.7 20.8 63.3.9h645.9v-165l-58.4-45 58.4-51.7v-113.3l-80.9 12.5-80.8 20.8-80.8-35.8-80.9 15-80-21.7-80.8-3.3-80.8.8-80.9 1.7-74.1-34.2-5.9-15-80.8-40.8-80.8-41.7-80.9 1.7-16.6-9.2.8-105 15.8-15.8 20.9 15.8 60 85 80.8-50.8 80.8 25.8 78.4-60 1.6-.8 2.5.8 36.7 105 41.7 15.8 12.5-15.8 68.3-57.5 80.8-.8 30-46.7 50-31.7 80.9 18.4 80.8-10.9 25.8 24.2 55 37.5L3690 870l16.7 18.3V637.5l-80.9-20.8L3545 630l-80.8-27.5-80.9 5.8-80-6.6-80.8-10-36.7-35.9 36.7-33.3 80.8-23.3 80 8.3 80.9-10 80.8 5 80.8-39.2 80.9 22.5v-68.3l-80.9.8-80.8-65.8-80.8 17.5-59.2-24.2H2915.8l14.2 105-30 22.5-80.8 19.2-43.4-41.7-.8-105H2335v105l.8 60 57.5 45-57.5 25-.8 80v418.4l.8 62.5 63.4 42.5-63.4 31.6-.8 73.4v104.1l.8.9"/><path fill="#cfff30" fill-rule="evenodd" d="M2335.8 1120.8l80 30 80.9-14.1 40.8 47.5 40 37.5 80.8-15.9 80 46.7 72.5 36.7 8.4 45.8 59.1 58.3 21.7.9 3.3-.9 77.5-53.3 40.9 53.3 39.1.9 53.4-.9 27.5-49.1 50.8 49.1 30 .9H3706.7v-146.7l-80.9-61.7-80.8 45-47.5-46.6 47.5-71.7 80.8 69.2 80.9-70.9v-67.5l-80.9 3.4-80.8 24.1-80.8-42.5-80.9 15.9-80-20.9-80.8-1.6-80.8 5-80.9-2.5-80-30.9-79.1-18.3-1.7-.8-80.8-72.5-80.9.8-64.1-32.5 11.6-105 52.5-54.2 70-50 10.9-12.5 80.8-55 80.8 28.4 25 39.1-25 63.4-41.6 40.8 41.6 22.5L3010 765l50.8-35.8 76.7 35.8 4.2 9.2 80.8 4.1 71.7-13.3 9.1-.8 80-50.9 80.9 13.4 80.8-44.2 80.8 65 11.7 17.5 69.2 60V710l-40.9-49.2-40-18.3-80.8 10-80.8-34.2-80.9 5-80-9.1-80.8 1.6-61.7-60 61.7-55 80.8-17.5 80 11.7 80.9-17.5 80.8 9.2 61.7-35.9-61.7-68.3-80.8 21.7-80.9-39.2-48.3-19.2H2960.8l10 105-70.8 53.4-80.8 11.6-67.5-65-13.4-69.1-14.1-35.9H2335v105l.8 30.9 80 55.8 80.9-40.8 52.5 59.1-52.5 66.7-80.9-52.5-80 26.7-.8 64.1v418.4l.8 41.6"/><path fill="none" stroke="#000" stroke-linejoin="round" stroke-miterlimit="10" stroke-width="5" d="M2335.8 1120.8l80 30 80.9-14.1 40.8 47.5 40 37.5 80.8-15.9 80 46.7 72.5 36.7 8.4 45.8 59.1 58.3 21.7.9 3.3-.9 77.5-53.3 40.9 53.3 39.1.9 53.4-.9 27.5-49.1 50.8 49.1 30 .9H3706.7v-146.7l-80.9-61.7-80.8 45-47.5-46.6 47.5-71.7 80.8 69.2 80.9-70.9v-67.5l-80.9 3.4-80.8 24.1-80.8-42.5-80.9 15.9-80-20.9-80.8-1.6-80.8 5-80.9-2.5-80-30.9-79.1-18.3-1.7-.8-80.8-72.5-80.9.8-64.1-32.5 11.6-105 52.5-54.2 70-50 10.9-12.5 80.8-55 80.8 28.4 25 39.1-25 63.4-41.6 40.8 41.6 22.5L3010 765l50.8-35.8 76.7 35.8 4.2 9.2 80.8 4.1 71.7-13.3 9.1-.8 80-50.9 80.9 13.4 80.8-44.2 80.8 65 11.7 17.5 69.2 60V710l-40.9-49.2-40-18.3-80.8 10-80.8-34.2-80.9 5-80-9.1-80.8 1.6-61.7-60 61.7-55 80.8-17.5 80 11.7 80.9-17.5 80.8 9.2 61.7-35.9-61.7-68.3-80.8 21.7-80.9-39.2-48.3-19.2H2960.8l10 105-70.8 53.4-80.8 11.6-67.5-65-13.4-69.1-14.1-35.9H2335v105l.8 30.9 80 55.8 80.9-40.8 52.5 59.1-52.5 66.7-80.9-52.5-80 26.7-.8 64.1v418.4l.8 41.6"/><path fill="#ffbf00" fill-rule="evenodd" d="M2335.8 1100l76.7-20.8 3.3-4.2 3.4 4.2 77.5 30.8 63.3 74.2 17.5 16.6 77.5-16.6 3.3-.9 1.7.9 78.3 39.1 80.9 20.9 43.3 45 37.5 45.8 80.8-26.7 40-19.1 34.2-105 5.8-1.7 3.4 1.7 77.5 100 80.8-24.2 57.5 29.2 23.3 34.1 80-20.8 80.9 53.3 35.8 37.5 45 .9h161.7v-127.5l-80.9-55.9-80.8 66.7-80.8-78.3-13.4-15 13.4-8.4 70-96.6-70-39.2-80.9 17.5-80-20.8h-80.8l-80.8 8.3-80.9-5.8-80-22.5-80.8-12.5-26.7-29.2-54.1-49.2-80.9.9-80-15.9-20.8-40.8-60-50.8-80.8 35.8-72.5-90 72.5-90.8 32.5-13.4-32.5-8.3-80.9-47.5-80 7.5-.8 48.3v418.4l.8 20.8"/><path fill="none" stroke="#000" stroke-linejoin="round" stroke-miterlimit="10" stroke-width="5" d="M2335.8 1100l76.7-20.8 3.3-4.2 3.4 4.2 77.5 30.8 63.3 74.2 17.5 16.6 77.5-16.6 3.3-.9 1.7.9 78.3 39.1 80.9 20.9 43.3 45 37.5 45.8 80.8-26.7 40-19.1 34.2-105 5.8-1.7 3.4 1.7 77.5 100 80.8-24.2 57.5 29.2 23.3 34.1 80-20.8 80.9 53.3 35.8 37.5 45 .9h161.7v-127.5l-80.9-55.9-80.8 66.7-80.8-78.3-13.4-15 13.4-8.4 70-96.6-70-39.2-80.9 17.5-80-20.8h-80.8l-80.8 8.3-80.9-5.8-80-22.5-80.8-12.5-26.7-29.2-54.1-49.2-80.9.9-80-15.9-20.8-40.8-60-50.8-80.8 35.8-72.5-90 72.5-90.8 32.5-13.4-32.5-8.3-80.9-47.5-80 7.5-.8 48.3v418.4l.8 20.8"/><path fill="#ff5000" fill-rule="evenodd" d="M2335.8 1080v-.8l80-90.9 70 90.9 10.9 5 80.8 85.8 80.8-23.3 58.4 37.5 21.6 10.8 80.9-4.2h80.8l3.3-6.6 77.5-21.7 80-18.3 59.2 40 21.7 27.5 80.8 6.6 80.8 17.5 80-14.1 22.5-37.5 58.4-37.5 49.1-67.5-49.1-27.5-80.9 18.3-80-20-80.8 1.7-80.8 12.5-80.9-10-80-14.2-80.8-5.8-53.3-59.2-27.5-25-80.9.8-80 22.5-52.5-103.3-28.3-24.2-45 24.2-35.8 32.5-35.9-32.5-45-55-23.3-50 23.3-62.5 34.2-41.7-34.2-20-80-12.5-.8 32.5v418.4l.8.8"/><path fill="none" stroke="#000" stroke-linejoin="round" stroke-miterlimit="10" stroke-width="5" d="M2335.8 1080v-.8l80-90.9 70 90.9 10.9 5 80.8 85.8 80.8-23.3 58.4 37.5 21.6 10.8 80.9-4.2h80.8l3.3-6.6 77.5-21.7 80-18.3 59.2 40 21.7 27.5 80.8 6.6 80.8 17.5 80-14.1 22.5-37.5 58.4-37.5 49.1-67.5-49.1-27.5-80.9 18.3-80-20-80.8 1.7-80.8 12.5-80.9-10-80-14.2-80.8-5.8-53.3-59.2-27.5-25-80.9.8-80 22.5-52.5-103.3-28.3-24.2-45 24.2-35.8 32.5-35.9-32.5-45-55-23.3-50 23.3-62.5 34.2-41.7-34.2-20-80-12.5-.8 32.5v418.4l.8.8"/><path fill="#ffbf00" fill-rule="evenodd" d="M2335.8 452.5l80 40.8 80.9-23.3 75.8 85.8 5 35.9 34.2 69.1 46.6 73.4 80-60.9 18.4-12.5 62.5-67.5 80.8-22.5 80.8 8.4 64.2-23.4 15.8-14.1 33.4-90.9 47.5-71.6 41.6 71.6 39.2 27.5 80.8-10 80 13.4 80.9-24.2 80.8 13.3 35-20-35-38.3-80.8 26.7-80.9-48.4-80-11.6-36.6-33.4H2995l23.3 105-37.5 60.9L2900 535l-80.8 4.2-80.9-73.4-72.5 90-7.5 39.2-50-39.2-28.3-105 78.3-89.1 13.4-15.9H2335v105l.8 1.7"/><path fill="none" stroke="#000" stroke-linejoin="round" stroke-miterlimit="10" stroke-width="5" d="M2335.8 452.5l80 40.8 80.9-23.3 75.8 85.8 5 35.9 34.2 69.1 46.6 73.4 80-60.9 18.4-12.5 62.5-67.5 80.8-22.5 80.8 8.4 64.2-23.4 15.8-14.1 33.4-90.9 47.5-71.6 41.6 71.6 39.2 27.5 80.8-10 80 13.4 80.9-24.2 80.8 13.3 35-20-35-38.3-80.8 26.7-80.9-48.4-80-11.6-36.6-33.4H2995l23.3 105-37.5 60.9L2900 535l-80.8 4.2-80.9-73.4-72.5 90-7.5 39.2-50-39.2-28.3-105 78.3-89.1 13.4-15.9H2335v105l.8 1.7"/><path fill="#0020ff" fill-rule="evenodd" d="M3625.8 1003.3l-80.8 12.5-80.8-22.5-80.9 12.5-80-23.3-80.8-5.8-25-1.7 25-29.2 80.8-16.6 80-31.7 27.5-27.5 53.4-58.3 80.8 35 40 23.3 40.8 20 72.5 85-72.5 28.3"/><path fill="none" stroke="#000" stroke-linejoin="round" stroke-miterlimit="10" stroke-width="5" d="M3625.8 1003.3l-80.8 12.5-80.8-22.5-80.9 12.5-80-23.3-80.8-5.8-25-1.7 25-29.2 80.8-16.6 80-31.7 27.5-27.5 53.4-58.3 80.8 35 40 23.3 40.8 20 72.5 85-72.5 28.3"/><path fill="#ffbf00" fill-rule="evenodd" d="M3464.2 702.5l59.1-41.7-59.1-26.6-80.9 3.3-80-10.8-80.8 13.3-80.8-68.3-80.9-3.4-27.5 92.5 27.5 34.2 80.9 25.8h80.8l80.8 15 80-42.5 80.9 9.2"/><path fill="none" stroke="#000" stroke-linejoin="round" stroke-miterlimit="10" stroke-width="5" d="M3464.2 702.5l59.1-41.7-59.1-26.6-80.9 3.3-80-10.8-80.8 13.3-80.8-68.3-80.9-3.4-27.5 92.5 27.5 34.2 80.9 25.8h80.8l80.8 15 80-42.5 80.9 9.2"/><path fill="#008fff" fill-rule="evenodd" d="M3625.8 590.8l-80.8 16.7-80.8-20.8-80.9 7.5-80-5.9-80.8-20.8-11.7-11.7 11.7-10.8 80.8-30 80 5.8 80.9-4.1 80.8 1.6 80.8-15.8 80 53.3-80 35"/><path fill="none" stroke="#000" stroke-linejoin="round" stroke-miterlimit="10" stroke-width="5" d="M3625.8 590.8l-80.8 16.7-80.8-20.8-80.9 7.5-80-5.9-80.8-20.8-11.7-11.7 11.7-10.8 80.8-30 80 5.8 80.9-4.1 80.8 1.6 80.8-15.8 80 53.3-80 35"/><path fill="#df0000" fill-rule="evenodd" d="M2496.7 1018.3l55.8 60.9 25 25 80.8 5.8 71.7-30.8-71.7-48.4-37.5-55.8-43.3-96.7-80.8 70-32.5 26.7 32.5 43.3"/><path fill="none" stroke="#000" stroke-linejoin="round" stroke-miterlimit="10" stroke-width="5" d="M2496.7 1018.3l55.8 60.9 25 25 80.8 5.8 71.7-30.8-71.7-48.4-37.5-55.8-43.3-96.7-80.8 70-32.5 26.7 32.5 43.3"/><path fill="#0000bf" fill-rule="evenodd" d="M3625.8 988.3l-80.8 9.2-80.8-15.8-80.9 11.6L3320 975l63.3-45.8 57.5-59.2 23.4-25.8 48.3 25.8 32.5 32.5 80.8 30.8 35 41.7-35 13.3"/><path fill="none" stroke="#000" stroke-linejoin="round" stroke-miterlimit="10" stroke-width="5" d="M3625.8 988.3l-80.8 9.2-80.8-15.8-80.9 11.6L3320 975l63.3-45.8 57.5-59.2 23.4-25.8 48.3 25.8 32.5 32.5 80.8 30.8 35 41.7-35 13.3"/><path fill="#df0000" fill-rule="evenodd" d="M2819.2 1135.8l80.8-20 80.8-3.3 80-7.5 62.5-25.8-62.5-10-80-5H2900l-80-89.2-.8-.8-56.7.8-16.7 104.2 73.4 56.6"/><path fill="none" stroke="#000" stroke-linejoin="round" stroke-miterlimit="10" stroke-width="5" d="M2819.2 1135.8l80.8-20 80.8-3.3 80-7.5 62.5-25.8-62.5-10-80-5H2900l-80-89.2-.8-.8-56.7.8-16.7 104.2 73.4 56.6"/><path fill="#cfff30" fill-rule="evenodd" d="M2335.8 1379.2l35 14.1 45 .9 69.2-.9-5-104.1-64.2-89.2-80 31.7-.8 57.5.8 90"/><path fill="none" stroke="#000" stroke-linejoin="round" stroke-miterlimit="10" stroke-width="5" d="M2335.8 1379.2l35 14.1 45 .9 69.2-.9-5-104.1-64.2-89.2-80 31.7-.8 57.5.8 90"/><path fill="#0020ff" fill-rule="evenodd" d="M3625.8 565.8l-80.8 20-80.8-15-80.9 9.2-80-4.2-60.8-20 60.8-25.8 80 4.2 80.9 2.5 80.8-2.5 80.8 6.6 21.7 15-21.7 10"/><path fill="none" stroke="#000" stroke-linejoin="round" stroke-miterlimit="10" stroke-width="5" d="M3625.8 565.8l-80.8 20-80.8-15-80.9 9.2-80-4.2-60.8-20 60.8-25.8 80 4.2 80.9 2.5 80.8-2.5 80.8 6.6 21.7 15-21.7 10"/><path fill="#ff5000" fill-rule="evenodd" d="M3706.7 1394.2V1285l-80.9-48.3-60 52.5 60 95 12.5 9.1 68.4.9"/><path fill="none" stroke="#000" stroke-linejoin="round" stroke-miterlimit="10" stroke-width="5" d="M3706.7 1394.2V1285l-80.9-48.3-60 52.5 60 95 12.5 9.1 68.4.9"/><path fill="#df0000" fill-rule="evenodd" d="M3303.3 1164.2l66.7-85-66.7-15.9-80.8 3.4-65 12.5 65 87.5 80.8-2.5"/><path fill="none" stroke="#000" stroke-linejoin="round" stroke-miterlimit="10" stroke-width="5" d="M3303.3 1164.2l66.7-85-66.7-15.9-80.8 3.4-65 12.5 65 87.5 80.8-2.5"/><path fill="#ffbf00" fill-rule="evenodd" d="M2335.8 1355l80 23.3 38.4-89.1-38.4-52.5-80 10.8-.8 41.7.8 65.8"/><path fill="none" stroke="#000" stroke-linejoin="round" stroke-miterlimit="10" stroke-width="5" d="M2335.8 1355l80 23.3 38.4-89.1-38.4-52.5-80 10.8-.8 41.7.8 65.8"/><path fill="#70ff8f" fill-rule="evenodd" d="M2496.7 802.5l-30-37.5 30-37.5 80.8-26.7 45 64.2-45 26.7-80.8 10.8"/><path fill="none" stroke="#000" stroke-linejoin="round" stroke-miterlimit="10" stroke-width="5" d="M2496.7 802.5l-30-37.5 30-37.5 80.8-26.7 45 64.2-45 26.7-80.8 10.8"/><path fill="#008fff" fill-rule="evenodd" d="M2577.5 1325l-38.3-35.8 38.3-25.9 80.8-13.3 56.7 39.2-56.7 50-80.8-14.2"/><path fill="none" stroke="#000" stroke-linejoin="round" stroke-miterlimit="10" stroke-width="5" d="M2577.5 1325l-38.3-35.8 38.3-25.9 80.8-13.3 56.7 39.2-56.7 50-80.8-14.2"/><path fill="#0ff" fill-rule="evenodd" d="M2900 747.5l-58.3-86.7L2900 615l77.5 45.8-77.5 86.7"/><path fill="none" stroke="#000" stroke-linejoin="round" stroke-miterlimit="10" stroke-width="5" d="M2900 747.5l-58.3-86.7L2900 615l77.5 45.8-77.5 86.7"/><path fill="#ff5000" fill-rule="evenodd" d="M3464.2 677.5l24.1-16.7-24.1-11.6-80.9 2.5-80-12.5-74.1 21.6 74.1 47.5 80-35.8 80.9 5"/><path fill="none" stroke="#000" stroke-linejoin="round" stroke-miterlimit="10" stroke-width="5" d="M3464.2 677.5l24.1-16.7-24.1-11.6-80.9 2.5-80-12.5-74.1 21.6 74.1 47.5 80-35.8 80.9 5"/><path fill="#ff5000" fill-rule="evenodd" d="M2738.3 635l70-79.2-70-60-48.3 60 48.3 79.2"/><path fill="none" stroke="#000" stroke-linejoin="round" stroke-miterlimit="10" stroke-width="5" d="M2738.3 635l70-79.2-70-60-48.3 60 48.3 79.2"/><path fill="#ff5000" fill-rule="evenodd" d="M2496.7 434.2l80.8-50.9 32.5-37.5h-167.5l54.2 88.4"/><path fill="none" stroke="#000" stroke-linejoin="round" stroke-miterlimit="10" stroke-width="5" d="M2496.7 434.2l80.8-50.9 32.5-37.5h-167.5l54.2 88.4"/><path fill="#ffbf00" fill-rule="evenodd" d="M3706.7 1089.2v-20.9l-80.9-7.5-57.5 18.4 57.5 58.3 80.9-48.3"/><path fill="none" stroke="#000" stroke-linejoin="round" stroke-miterlimit="10" stroke-width="5" d="M3706.7 1089.2v-20.9l-80.9-7.5-57.5 18.4 57.5 58.3 80.9-48.3"/><path fill="#ff5000" fill-rule="evenodd" d="M3383.3 469.2l55-18.4-55-35-80 29.2-80.8-31.7-7.5 37.5 7.5 5 80.8-3.3 80 16.7"/><path fill="none" stroke="#000" stroke-linejoin="round" stroke-miterlimit="10" stroke-width="5" d="M3383.3 469.2l55-18.4-55-35-80 29.2-80.8-31.7-7.5 37.5 7.5 5 80.8-3.3 80 16.7"/><path fill="#df0000" fill-rule="evenodd" d="M2335.8 847.5l26.7-82.5 28.3-104.2-55-15.8-.8 15.8V765l.8 82.5"/><path fill="none" stroke="#000" stroke-linejoin="round" stroke-miterlimit="10" stroke-width="5" d="M2335.8 847.5l26.7-82.5 28.3-104.2-55-15.8-.8 15.8V765l.8 82.5"/><path fill="#ff5000" fill-rule="evenodd" d="M3060.8 443.3l63.4-97.5h-103.4z"/><path fill="none" stroke="#000" stroke-linejoin="round" stroke-miterlimit="10" stroke-width="5" d="M3060.8 443.3l63.4-97.5h-103.4l40 97.5"/><path fill="#ff5000" fill-rule="evenodd" d="M2335.8 1330.8l80-13.3 12.5-28.3-12.5-16.7-80-10-.8 26.7.8 41.6"/><path fill="none" stroke="#000" stroke-linejoin="round" stroke-miterlimit="10" stroke-width="5" d="M2335.8 1330.8l80-13.3 12.5-28.3-12.5-16.7-80-10-.8 26.7.8 41.6"/><path fill="#008fff" fill-rule="evenodd" d="M2819.2 469.2l-19.2-18.4 19.2-90.8 60 90.8-60 18.4"/><path fill="none" stroke="#000" stroke-linejoin="round" stroke-miterlimit="10" stroke-width="5" d="M2819.2 469.2l-19.2-18.4 19.2-90.8 60 90.8-60 18.4"/><path fill="#0ff" fill-rule="evenodd" d="M2496.7 1255.8l-47.5-71.6 47.5-20.9 18.3 20.9-18.3 71.6"/><path fill="none" stroke="#000" stroke-linejoin="round" stroke-miterlimit="10" stroke-width="5" d="M2496.7 1255.8l-47.5-71.6 47.5-20.9 18.3 20.9-18.3 71.6"/><path fill="#df0000" fill-rule="evenodd" d="M3625.8 1338.3l46.7-49.1-46.7-27.5-30.8 27.5 30.8 49.1"/><path fill="none" stroke="#000" stroke-linejoin="round" stroke-miterlimit="10" stroke-width="5" d="M3625.8 1338.3l46.7-49.1-46.7-27.5-30.8 27.5 30.8 49.1"/><path fill="#0ff" fill-rule="evenodd" d="M2496.7 591.7l-53.4-35.9 53.4-32.5 28.3 32.5-28.3 35.9"/><path fill="none" stroke="#000" stroke-linejoin="round" stroke-miterlimit="10" stroke-width="5" d="M2496.7 591.7l-53.4-35.9 53.4-32.5 28.3 32.5-28.3 35.9"/><path fill="#df0000" fill-rule="evenodd" d="M3464.2 1118.3l28.3-39.1-28.3-15.9-68.4 15.9 68.4 39.1"/><path fill="none" stroke="#000" stroke-linejoin="round" stroke-miterlimit="10" stroke-width="5" d="M3464.2 1118.3l28.3-39.1-28.3-15.9-68.4 15.9 68.4 39.1"/><path fill="#ff5000" fill-rule="evenodd" d="M3464.2 1317.5l40.8-28.3-40.8-38.4-36.7 38.4 36.7 28.3"/><path fill="none" stroke="#000" stroke-linejoin="round" stroke-miterlimit="10" stroke-width="5" d="M3464.2 1317.5l40.8-28.3-40.8-38.4-36.7 38.4 36.7 28.3"/><path fill="#0020ff" fill-rule="evenodd" d="M2577.5 1295.8l-7.5-6.6 7.5-5 80.8-11.7 24.2 16.7-24.2 20.8-80.8-14.2"/><path fill="none" stroke="#000" stroke-linejoin="round" stroke-miterlimit="10" stroke-width="5" d="M2577.5 1295.8l-7.5-6.6 7.5-5 80.8-11.7 24.2 16.7-24.2 20.8-80.8-14.2"/><path fill="#0000bf" fill-rule="evenodd" d="M3383.3 565.8l-80-2.5-23.3-7.5 23.3-10 80 .9 78.4 9.1-78.4 10"/><path fill="none" stroke="#000" stroke-linejoin="round" stroke-miterlimit="10" stroke-width="5" d="M3383.3 565.8l-80-2.5-23.3-7.5 23.3-10 80 .9 78.4 9.1-78.4 10"/><path fill="#008fff" fill-rule="evenodd" d="M2900 705l-30-44.2 30-24.1 40 24.1-40 44.2"/><path fill="none" stroke="#000" stroke-linejoin="round" stroke-miterlimit="10" stroke-width="5" d="M2900 705l-30-44.2 30-24.1 40 24.1-40 44.2"/><path fill="#70ff8f" fill-rule="evenodd" d="M2658.3 492.5l-24.1-41.7 24.1-27.5 37.5 27.5-37.5 41.7"/><path fill="none" stroke="#000" stroke-linejoin="round" stroke-miterlimit="10" stroke-width="5" d="M2658.3 492.5l-24.1-41.7 24.1-27.5 37.5 27.5-37.5 41.7"/><path fill="#df0000" fill-rule="evenodd" d="M2738.3 595l35-39.2-35-30-24.1 30 24.1 39.2"/><path fill="none" stroke="#000" stroke-linejoin="round" stroke-miterlimit="10" stroke-width="5" d="M2738.3 595l35-39.2-35-30-24.1 30 24.1 39.2"/><path fill="#ff5000" fill-rule="evenodd" d="M3141.7 673.3l50.8-12.5-50.8-19.1-80.9 19.1 80.9 12.5"/><path fill="none" stroke="#000" stroke-linejoin="round" stroke-miterlimit="10" stroke-width="5" d="M3141.7 673.3l50.8-12.5-50.8-19.1-80.9 19.1 80.9 12.5"/><path fill="#cfff30" fill-rule="evenodd" d="M2819.2 785l27.5-20-27.5-60-14.2 60 14.2 20"/><path fill="none" stroke="#000" stroke-linejoin="round" stroke-miterlimit="10" stroke-width="5" d="M2819.2 785l27.5-20-27.5-60-14.2 60 14.2 20"/><path fill="#df0000" fill-rule="evenodd" d="M3303.3 680l51.7-19.2-51.7-9.1-30.8 9.1 30.8 19.2"/><path fill="none" stroke="#000" stroke-linejoin="round" stroke-miterlimit="10" stroke-width="5" d="M3303.3 680l51.7-19.2-51.7-9.1-30.8 9.1 30.8 19.2"/><path fill="#df0000" fill-rule="evenodd" d="M2496.7 377.5l43.3-31.7h-62.5z"/><path fill="none" stroke="#000" stroke-linejoin="round" stroke-miterlimit="10" stroke-width="5" d="M2496.7 377.5l43.3-31.7h-62.5l19.2 31.7"/><path fill="#008fff" fill-rule="evenodd" d="M2980.8 885.8l-57.5-15.8 57.5-7.5 18.4 7.5-18.4 15.8"/><path fill="none" stroke="#000" stroke-linejoin="round" stroke-miterlimit="10" stroke-width="5" d="M2980.8 885.8l-57.5-15.8 57.5-7.5 18.4 7.5-18.4 15.8"/><path fill="#ffbf00" fill-rule="evenodd" d="M3060.8 1394.2l19.2-.9-19.2-50.8-14.1 50.8 14.1.9"/><path fill="none" stroke="#000" stroke-linejoin="round" stroke-miterlimit="10" stroke-width="5" d="M3060.8 1394.2l19.2-.9-19.2-50.8-14.1 50.8 14.1.9"/><path fill="#00008f" fill-rule="evenodd" d="M3545 979.2l-27.5-4.2 27.5-13.3 67.5 13.3-67.5 4.2"/><path fill="none" stroke="#000" stroke-linejoin="round" stroke-miterlimit="10" stroke-width="5" d="M3545 979.2l-27.5-4.2 27.5-13.3 67.5 13.3-67.5 4.2"/><path fill="#0000bf" fill-rule="evenodd" d="M3545 563.3l-75-7.5 75-5.8 29.2 5.8-29.2 7.5"/><path fill="none" stroke="#000" stroke-linejoin="round" stroke-miterlimit="10" stroke-width="5" d="M3545 563.3l-75-7.5 75-5.8 29.2 5.8-29.2 7.5"/><path fill="#00008f" fill-rule="evenodd" d="M3383.3 980.8l-20-5.8 20-15 41.7 15-41.7 5.8"/><path fill="none" stroke="#000" stroke-linejoin="round" stroke-miterlimit="10" stroke-width="5" d="M3383.3 980.8l-20-5.8 20-15 41.7 15-41.7 5.8"/><path fill="#cfff30" fill-rule="evenodd" d="M2577.5 1394.2l65-.9-65-10-60 10 60 .9"/><path fill="none" stroke="#000" stroke-linejoin="round" stroke-miterlimit="10" stroke-width="5" d="M2577.5 1394.2l65-.9-65-10-60 10 60 .9"/><path fill="#df0000" fill-rule="evenodd" d="M2335.8 1305.8l45-16.6-45-10.9-.8 10.9.8 16.6"/><path fill="none" stroke="#000" stroke-linejoin="round" stroke-miterlimit="10" stroke-width="5" d="M2335.8 1305.8l45-16.6-45-10.9-.8 10.9.8 16.6"/><path fill="#df0000" fill-rule="evenodd" d="M3060.8 380l22.5-34.2h-35.8z"/><path fill="none" stroke="#000" stroke-linejoin="round" stroke-miterlimit="10" stroke-width="5" d="M3060.8 380l22.5-34.2h-35.8l13.3 34.2"/><path fill="#ff5000" fill-rule="evenodd" d="M3545 1394.2l40-.9-40-22.5-7.5 22.5 7.5.9"/><path fill="none" stroke="#000" stroke-linejoin="round" stroke-miterlimit="10" stroke-width="5" d="M3545 1394.2l40-.9-40-22.5-7.5 22.5 7.5.9"/><path fill="#0020ff" fill-rule="evenodd" d="M3060.8 979.2l-9.1-4.2 9.1-15.8 42.5 15.8-42.5 4.2"/><path fill="none" stroke="#000" stroke-linejoin="round" stroke-miterlimit="10" stroke-width="5" d="M3060.8 979.2l-9.1-4.2 9.1-15.8 42.5 15.8-42.5 4.2"/><path fill="maroon" fill-rule="evenodd" d="M3303.3 1094.2l11.7-15-11.7-2.5-45 2.5 45 15"/><path fill="none" stroke="#000" stroke-linejoin="round" stroke-miterlimit="10" stroke-width="5" d="M3303.3 1094.2l11.7-15-11.7-2.5-45 2.5 45 15"/><path fill="#70ff8f" fill-rule="evenodd" d="M3141.7 478.3l-10-27.5 10-15.8 9.1 15.8-9.1 27.5"/><path fill="none" stroke="#000" stroke-linejoin="round" stroke-miterlimit="10" stroke-width="5" d="M3141.7 478.3l-10-27.5 10-15.8 9.1 15.8-9.1 27.5"/><path fill="maroon" fill-rule="evenodd" d="M2577.5 992.5l5-17.5-5-11.7-19.2 11.7 19.2 17.5"/><path fill="none" stroke="#000" stroke-linejoin="round" stroke-miterlimit="10" stroke-width="5" d="M2577.5 992.5l5-17.5-5-11.7-19.2 11.7 19.2 17.5"/><path fill="#ff5000" fill-rule="evenodd" d="M3625.8 1092.5l27.5-13.3-27.5-4.2-12.5 4.2 12.5 13.3"/><path fill="none" stroke="#000" stroke-linejoin="round" stroke-miterlimit="10" stroke-width="5" d="M3625.8 1092.5l27.5-13.3-27.5-4.2-12.5 4.2 12.5 13.3"/><path fill="#df0000" fill-rule="evenodd" d="M3383.3 455.8l15.9-5-15.9-10-24.1 10 24.1 5"/><path fill="none" stroke="#000" stroke-linejoin="round" stroke-miterlimit="10" stroke-width="5" d="M3383.3 455.8l15.9-5-15.9-10-24.1 10 24.1 5"/><path fill="#ff5000" fill-rule="evenodd" d="M3545 455l7.5-4.2-7.5-8.3-23.3 8.3 23.3 4.2"/><path fill="none" stroke="#000" stroke-linejoin="round" stroke-miterlimit="10" stroke-width="5" d="M3545 455l7.5-4.2-7.5-8.3-23.3 8.3 23.3 4.2"/><path fill="maroon" fill-rule="evenodd" d="M3464.2 1089.2l7.5-10-7.5-4.2-17.5 4.2 17.5 10"/><path fill="none" stroke="#000" stroke-linejoin="round" stroke-miterlimit="10" stroke-width="5" d="M3464.2 1089.2l7.5-10-7.5-4.2-17.5 4.2 17.5 10"/><path fill="#df0000" fill-rule="evenodd" d="M3706.7 1394.2v-18.4l-10 17.5z"/><path fill="none" stroke="#000" stroke-linejoin="round" stroke-miterlimit="10" stroke-width="5" d="M3706.7 1394.2v-18.4l-10 17.5 10 .9"/><path fill="#008fff" fill-rule="evenodd" d="M2496.7 561.7l-8.4-5.9 8.4-5 5 5-5 5.9"/><path fill="none" stroke="#000" stroke-linejoin="round" stroke-miterlimit="10" stroke-width="5" d="M2496.7 561.7l-8.4-5.9 8.4-5 5 5-5 5.9"/><path fill="maroon" fill-rule="evenodd" d="M3625.8 1292.5l3.4-3.3-3.4-2.5-2.5 2.5 2.5 3.3"/><path fill="none" stroke="#000" stroke-linejoin="round" stroke-miterlimit="10" stroke-width="5" d="M3625.8 1292.5l3.4-3.3-3.4-2.5-2.5 2.5 2.5 3.3"/><path fill="#0020ff" fill-rule="evenodd" d="M2900 663.3l-2.5-2.5 2.5-1.6 2.5 1.6-2.5 2.5"/><path fill="none" stroke="#000" stroke-linejoin="round" stroke-miterlimit="10" stroke-width="5" d="M2900 663.3l-2.5-2.5 2.5-1.6 2.5 1.6-2.5 2.5"/><path fill="maroon" fill-rule="evenodd" d="M2819.2 1080l1.6-.8-1.6-.9-.9.9.9.8"/><path fill="none" stroke="#000" stroke-linejoin="round" stroke-miterlimit="10" stroke-width="5" d="M2819.2 1080l1.6-.8-1.6-.9-.9.9.9.8"/><path fill="#0ff" fill-rule="evenodd" d="M3545 1185l-.8-.8.8-.9.8.9-.8.8"/><path fill="none" stroke="#000" stroke-linejoin="round" stroke-miterlimit="10" stroke-width="5" d="M3545 1185l-.8-.8.8-.9.8.9-.8.8"/><path fill="maroon" fill-rule="evenodd" d="M2738.3 555.8h.9-.9"/><path fill="none" stroke="#000" stroke-linejoin="round" stroke-miterlimit="10" stroke-width="5" d="M2738.3 555.8h.9-.9"/></g><g clip-path="url(#i)" transform="matrix(.13333 0 0 -.13333 0 410.7)"><path fill="none" stroke="#000" stroke-linejoin="round" stroke-miterlimit="10" stroke-width="5" d="M2335.8 345.8h1370.9M2335.8 1393.3h1370.9M2335.8 345.8v1047.5M3706.7 345.8v1047.5M2335.8 345.8h1370.9M2335.8 345.8v1047.5M2640 345.8V360M2640 1393.3V1380"/><text style="-inkscape-font-specification:Helvetica" font-family="Helvetica" font-size="10" font-weight="400" transform="matrix(10 0 0 -10 2612.5 225)"><tspan x="0" y="0">5</tspan></text><path fill="none" stroke="#000" stroke-linejoin="round" stroke-miterlimit="10" stroke-width="5" d="M3020.8 345.8V360M3020.8 1393.3V1380"/><text style="-inkscape-font-specification:Helvetica" font-family="Helvetica" font-size="10" font-weight="400" transform="matrix(10 0 0 -10 2965.8 225)"><tspan x="0 5.56" y="0">10</tspan></text><path fill="none" stroke="#000" stroke-linejoin="round" stroke-miterlimit="10" stroke-width="5" d="M3401.7 345.8V360M3401.7 1393.3V1380"/><text style="-inkscape-font-specification:Helvetica" font-family="Helvetica" font-size="10" font-weight="400" transform="matrix(10 0 0 -10 3346.7 225)"><tspan x="0 5.56" y="0">15</tspan></text><path fill="none" stroke="#000" stroke-linejoin="round" stroke-miterlimit="10" stroke-width="5" d="M2335.8 441.7h13.4M3706.7 441.7h-14.2"/><text style="-inkscape-font-specification:Helvetica" font-family="Helvetica" font-size="10" font-weight="400" transform="matrix(10 0 0 -10 2251.7 405)"><tspan x="0" y="0">2</tspan></text><path fill="none" stroke="#000" stroke-linejoin="round" stroke-miterlimit="10" stroke-width="5" d="M2335.8 631.7h13.4M3706.7 631.7h-14.2"/><text style="-inkscape-font-specification:Helvetica" font-family="Helvetica" font-size="10" font-weight="400" transform="matrix(10 0 0 -10 2251.7 595)"><tspan x="0" y="0">4</tspan></text><path fill="none" stroke="#000" stroke-linejoin="round" stroke-miterlimit="10" stroke-width="5" d="M2335.8 822.5h13.4M3706.7 822.5h-14.2"/><text style="-inkscape-font-specification:Helvetica" font-family="Helvetica" font-size="10" font-weight="400" transform="matrix(10 0 0 -10 2251.7 785.8)"><tspan x="0" y="0">6</tspan></text><path fill="none" stroke="#000" stroke-linejoin="round" stroke-miterlimit="10" stroke-width="5" d="M2335.8 1012.5h13.4M3706.7 1012.5h-14.2"/><text style="-inkscape-font-specification:Helvetica" font-family="Helvetica" font-size="10" font-weight="400" transform="matrix(10 0 0 -10 2251.7 975.8)"><tspan x="0" y="0">8</tspan></text><path fill="none" stroke="#000" stroke-linejoin="round" stroke-miterlimit="10" stroke-width="5" d="M2335.8 1203.3h13.4M3706.7 1203.3h-14.2"/><text style="-inkscape-font-specification:Helvetica" font-family="Helvetica" font-size="10" font-weight="400" transform="matrix(10 0 0 -10 2195.8 1166.7)"><tspan x="0 5.56" y="0">10</tspan></text><path fill="none" stroke="#000" stroke-linejoin="round" stroke-miterlimit="10" stroke-width="5" d="M2335.8 1393.3h13.4M3706.7 1393.3h-14.2"/><text style="-inkscape-font-specification:Helvetica" font-family="Helvetica" font-size="10" font-weight="400" transform="matrix(10 0 0 -10 2195.8 1356.7)"><tspan x="0 5.56" y="0">12</tspan></text><path fill="none" stroke="#000" stroke-linejoin="round" stroke-miterlimit="10" stroke-width="5" d="M2335.8 345.8h1370.9M2335.8 1393.3h1370.9M2335.8 345.8v1047.5M3706.7 345.8v1047.5"/></g></svg>
