<svg xmlns="http://www.w3.org/2000/svg" xmlns:xlink="http://www.w3.org/1999/xlink" width="460pt" height="460" viewBox="0 0 460 345"><defs><style>*{stroke-linecap:butt;stroke-linejoin:round}</style></defs><g id="figure_1"><path id="patch_1" fill="#fff" d="M0 345.6h460.8V0H0z"/><g id="axes_1"><path id="patch_2" fill="#fff" d="M57.6 307.6h357.1V41.5H57.6z"/><g id="matplotlib.axis_1"><g id="xtick_1"><g id="line2d_1"><defs><path id="md0fe4c54ff" stroke="#000" stroke-width=".8" d="M0 0v3.5"/></defs><use x="73.8" y="307.6" stroke="#000" stroke-width=".8" xlink:href="#md0fe4c54ff"/></g><g id="text_1"><defs><path id="DejaVuSans-30" d="M31.8 66.4q-7.6 0-11.5-7.5-3.8-7.5-3.8-22.5t3.8-22.5q3.9-7.5 11.5-7.5 7.7 0 11.5 7.5T47 36.4q0 15-3.8 22.5t-11.5 7.5zm0 7.8q12.2 0 18.7-9.7T57 36.4Q57 18 50.5 8.3 44-1.4 31.8-1.4 19.5-1.4 13 8.3t-6.5 28q0 18.5 6.5 28.2 6.4 9.7 18.7 9.7z"/></defs><use transform="matrix(.1 0 0 -.1 70.7 322.2)" xlink:href="#DejaVuSans-30"/></g></g><g id="xtick_2"><use id="line2d_2" x="124.5" y="307.6" stroke="#000" stroke-width=".8" xlink:href="#md0fe4c54ff"/><g id="text_2"><defs><path id="DejaVuSans-32" d="M19.2 8.3h34.4V0H7.3v8.3l15.3 15.6q9.7 9.8 12.2 12.6 4.7 5.3 6.6 9 2 3.7 2 7.3 0 5.8-4.2 9.5-4 3.6-10.6 3.6-4.6 0-9.8-1.6-5.1-1.6-11-4.9v10q6 2.4 11.1 3.6 5.2 1.2 9.5 1.2 11.4 0 18-5.7 6.8-5.6 6.8-15 0-4.6-1.7-8.6-1.6-4-6-9.5l-7.9-8.2L19.2 8.3z"/></defs><use transform="matrix(.1 0 0 -.1 121.4 322.2)" xlink:href="#DejaVuSans-32"/></g></g><g id="xtick_3"><use id="line2d_3" x="175.2" y="307.6" stroke="#000" stroke-width=".8" xlink:href="#md0fe4c54ff"/><g id="text_3"><defs><path id="DejaVuSans-34" d="m37.8 64.3-25-39h25zM35.2 73h12.4V25.4H58v-8.2H47.6V0h-9.8v17.2h-33v9.5z"/></defs><use transform="matrix(.1 0 0 -.1 172 322.2)" xlink:href="#DejaVuSans-34"/></g></g><g id="xtick_4"><use id="line2d_4" x="225.9" y="307.6" stroke="#000" stroke-width=".8" xlink:href="#md0fe4c54ff"/><g id="text_4"><defs><path id="DejaVuSans-36" d="M33 40.4q-6.6 0-10.5-4.6-3.9-4.5-3.9-12.4T22.5 11Q26.4 6.4 33 6.4q6.7 0 10.5 4.6 4 4.5 4 12.4t-4 12.4q-3.8 4.6-10.5 4.6zm19.6 30.9v-9Q48.9 64.1 45 65q-3.8 1-7.5 1-9.8 0-15-6.7-5-6.6-5.8-19.9 2.9 4.3 7.2 6.5 4.4 2.3 9.6 2.3 11 0 17.4-6.7 6.3-6.6 6.3-18.1 0-11.2-6.6-18Q44-1.4 33-1.4q-12.6 0-19.3 9.7Q7 18 7 36.3 7 53.8 15.2 64q8.2 10.3 22 10.3 3.7 0 7.5-.7 3.8-.8 7.9-2.2z"/></defs><use transform="matrix(.1 0 0 -.1 222.8 322.2)" xlink:href="#DejaVuSans-36"/></g></g><g id="xtick_5"><use id="line2d_5" x="276.6" y="307.6" stroke="#000" stroke-width=".8" xlink:href="#md0fe4c54ff"/><g id="text_5"><defs><path id="DejaVuSans-38" d="M31.8 34.6q-7 0-11-3.7-4.1-3.8-4.1-10.4 0-6.6 4-10.3 4-3.8 11-3.8 7.1 0 11.2 3.8 4 3.8 4 10.3 0 6.6-4 10.4-4 3.7-11.1 3.7zm-9.9 4.2q-6.3 1.6-9.9 6Q8.5 49 8.5 55.2q0 8.8 6.2 13.8 6.3 5.1 17 5.1 11 0 17.2-5Q55 64 55 55.2q0-6.2-3.6-10.6-3.5-4.3-9.8-5.9 7.1-1.6 11.1-6.5 4-4.8 4-11.8 0-10.6-6.5-16.3-6.5-5.6-18.5-5.6T13.2 4.2Q6.8 10 6.8 20.5q0 7 4 11.8 4 4.9 11.1 6.5zm-3.6 15.6q0-5.7 3.5-8.8 3.6-3.2 10-3.2 6.3 0 10 3.2 3.5 3.1 3.5 8.8 0 5.7-3.6 8.8-3.6 3.2-10 3.2-6.3 0-9.9-3.2-3.5-3.1-3.5-8.8z"/></defs><use transform="matrix(.1 0 0 -.1 273.5 322.2)" xlink:href="#DejaVuSans-38"/></g></g><g id="xtick_6"><use id="line2d_6" x="327.3" y="307.6" stroke="#000" stroke-width=".8" xlink:href="#md0fe4c54ff"/><g id="text_6"><defs><path id="DejaVuSans-31" d="M12.4 8.3h16.1v55.6L11 60.4v9l17.4 3.5h9.9V8.3h16V0H12.5z"/></defs><g transform="matrix(.1 0 0 -.1 321 322.2)"><use xlink:href="#DejaVuSans-31"/><use x="63.6" xlink:href="#DejaVuSans-30"/></g></g></g><g id="xtick_7"><use id="line2d_7" x="378" y="307.6" stroke="#000" stroke-width=".8" xlink:href="#md0fe4c54ff"/><g id="text_7" transform="matrix(.1 0 0 -.1 371.7 322.2)"><use xlink:href="#DejaVuSans-31"/><use x="63.6" xlink:href="#DejaVuSans-32"/></g></g></g><g id="matplotlib.axis_2"><g id="ytick_1"><g id="line2d_8"><defs><path id="mf91dca0207" stroke="#000" stroke-width=".8" d="M0 0h-3.5"/></defs><use x="57.6" y="286.4" stroke="#000" stroke-width=".8" xlink:href="#mf91dca0207"/></g><use id="text_8" transform="matrix(.1 0 0 -.1 44.2 290.2)" xlink:href="#DejaVuSans-30"/></g><g id="ytick_2"><use id="line2d_9" x="57.6" y="239.7" stroke="#000" stroke-width=".8" xlink:href="#mf91dca0207"/><use id="text_9" transform="matrix(.1 0 0 -.1 44.2 243.5)" xlink:href="#DejaVuSans-31"/></g><g id="ytick_3"><use id="line2d_10" x="57.6" y="192.9" stroke="#000" stroke-width=".8" xlink:href="#mf91dca0207"/><use id="text_10" transform="matrix(.1 0 0 -.1 44.2 196.7)" xlink:href="#DejaVuSans-32"/></g><g id="ytick_4"><use id="line2d_11" x="57.6" y="146.2" stroke="#000" stroke-width=".8" xlink:href="#mf91dca0207"/><g id="text_11"><defs><path id="DejaVuSans-33" d="M40.6 39.3q7-1.5 11-6.3t4-11.8q0-10.8-7.4-16.7-7.4-6-21.1-6-4.6 0-9.4 1-4.9.9-10 2.7v9.5q4-2.4 8.9-3.6Q21.5 7 26.8 7q9.3 0 14.1 3.6 4.9 3.7 4.9 10.7 0 6.4-4.5 10Q36.8 35 28.7 35h-8.5v8h9q7.2 0 11 3 3.9 2.8 3.9 8.3 0 5.6-4 8.6t-11.4 3q-4 0-8.7-.9-4.6-.8-10.2-2.7v8.8q5.6 1.6 10.5 2.3 5 .8 9.3.8 11.2 0 17.8-5 6.5-5.2 6.5-13.9 0-6-3.5-10.2-3.4-4.2-9.8-5.8z"/></defs><use transform="matrix(.1 0 0 -.1 44.2 150)" xlink:href="#DejaVuSans-33"/></g></g><g id="ytick_5"><use id="line2d_12" x="57.6" y="99.5" stroke="#000" stroke-width=".8" xlink:href="#mf91dca0207"/><use id="text_12" transform="matrix(.1 0 0 -.1 44.2 103.3)" xlink:href="#DejaVuSans-34"/></g><g id="ytick_6"><use id="line2d_13" x="57.6" y="52.8" stroke="#000" stroke-width=".8" xlink:href="#mf91dca0207"/><g id="text_13"><defs><path id="DejaVuSans-35" d="M10.8 73h38.7v-8.4H19.8V46.7q2.2.8 4.3 1.1 2.2.4 4.3.4 12.2 0 19.4-6.7 7-6.7 7-18.1 0-11.8-7.2-18.3-7.4-6.5-20.7-6.5-4.6 0-9.4.8-4.7.7-9.8 2.3v10q4.4-2.5 9.1-3.6 4.7-1.2 9.9-1.2 8.5 0 13.4 4.4 5 4.5 5 12 0 7.7-5 12.1Q35 40 26.7 40q-4 0-7.9-.9-4-.9-8-2.7z"/></defs><use transform="matrix(.1 0 0 -.1 44.2 56.6)" xlink:href="#DejaVuSans-35"/></g></g></g><path id="line2d_14" fill="none" stroke="green" stroke-linecap="square" stroke-width="1.5" d="M73.8 89.2h3.3l3.3 1.1 3.3 2L87 95l3.2 3.5 3.3 4 3.3 4.7 3.3 5.1 3.2 5.5 3.3 5.9 3.3 6.1 3.3 6.3 3.3 6.5 3.2 6.7 3.3 6.7 3.3 6.7 3.3 6.7 3.3 6.7 3.2 6.6 3.3 6.5 3.3 6.4 3.3 6.3 3.3 6 3.2 6 3.3 5.6 3.3 5.5 3.3 5.3 3.3 5 3.2 4.8 3.3 4.6 3.3 4.3 3.3 4 3.3 3.9 3.2 3.6 3.3 3.3 3.3 3.1 3.3 3 3.2 2.6 3.3 2.4 3.3 2.3 3.3 2 3.3 1.8 3.2 1.7 3.3 1.5 3.3 1.3 3.3 1.2 3.3 1 3.2 1 3.3.7 3.3.7 3.3.5 3.3.5 3.2.4 3.3.4 3.3.2 3.3.2 3.3.2 3.2.2 3.3.1 3.3.1 3.3.1h3.3l3.2.2h3.3l3.3.2h3.3l3.2.2 3.3.1 3.3.2 3.3.1 3.3.2 3.2.2 3.3.1 3.3.2 3.3.2 3.3.2 3.2.1 3.3.1 3.3.1h9.8l3.3-.1 3.3-.3 3.3-.4 3.3-.4 3.2-.7 3.3-.7 3.3-1 3.3-1.1 3.3-1.4 3.2-1.6 3.3-1.9 3.3-2 3.3-2.5 3.2-2.8 3.3-3 3.3-3.5 3.3-3.9" clip-path="url(#pad8f62a6dd)"/><path id="line2d_15" fill="none" stroke="red" stroke-linecap="square" stroke-width="1.5" d="m73.8 53.6 3.3 8.5 3.3 8.3 3.3 8.2 3.3 8 3.2 7.8 3.3 7.7 3.3 7.6 3.3 7.4 3.2 7.2 3.3 7.1 3.3 7 3.3 6.7 3.3 6.6 3.2 6.5 3.3 6.3 3.3 6.1 3.3 6 3.3 5.9 3.2 5.6 3.3 5.6 3.3 5.3 3.3 5.2 3.3 5.1 3.2 5 3.3 4.7 3.3 4.5 3.3 4.5 3.3 4.3 3.2 4 3.3 4 3.3 3.9 3.3 3.6 3.3 3.5 3.2 3.4 3.3 3.2 3.3 3 3.3 2.9 3.2 2.7 3.3 2.6 3.3 2.4 3.3 2.2 3.3 2 3.2 2 3.3 1.6 3.3 1.5 3.3 1.4 3.3 1.1 3.2 1 3.3.7 3.3.6 3.3.5 3.3.2h154.1" clip-path="url(#pad8f62a6dd)"/><path id="patch_3" fill="none" stroke="#000" stroke-linecap="square" stroke-width=".8" d="M57.6 307.6V41.5"/><path id="patch_4" fill="none" stroke="#000" stroke-linecap="square" stroke-width=".8" d="M414.7 307.6V41.5"/><path id="patch_5" fill="none" stroke="#000" stroke-linecap="square" stroke-width=".8" d="M57.6 307.6h357.1"/><path id="patch_6" fill="none" stroke="#000" stroke-linecap="square" stroke-width=".8" d="M57.6 41.5h357.1"/><g id="legend_1"><path id="patch_7" fill="#fff" stroke="#ccc" d="M321 78.8h86.7q2 0 2-2V48.5q0-2-2-2H321q-2 0-2 2v28.3q0 2 2 2z" opacity=".8"/><path id="line2d_16" fill="none" stroke="green" stroke-linecap="square" stroke-width="1.5" d="M323 54.6h20"/><g id="text_14"><defs><path id="DejaVuSans-50" d="M19.7 64.8V37.4H32q6.9 0 10.6 3.6 3.8 3.5 3.8 10.1t-3.8 10.1q-3.7 3.6-10.6 3.6zm-9.9 8.1h22.3q12.2 0 18.5-5.5Q57 61.8 57 51q0-10.8-6.3-16.3t-18.5-5.5H19.7V0H9.8z"/><path id="DejaVuSans-6f" d="M30.6 48.4q-7.2 0-11.4-5.6Q15 37 15 27.3t4.2-15.5q4.1-5.6 11.4-5.6 7.2 0 11.4 5.7 4.2 5.6 4.2 15.4 0 9.7-4.2 15.4-4.2 5.7-11.4 5.7zm0 7.6q11.7 0 18.4-7.6 6.7-7.6 6.7-21.1 0-13.4-6.7-21-6.7-7.7-18.4-7.7-11.8 0-18.4 7.6Q5.5 14 5.5 27.3q0 13.5 6.7 21Q18.8 56 30.6 56z"/><path id="DejaVuSans-6c" d="M9.4 76h9V0h-9z"/><path id="DejaVuSans-79" d="M32.2-5q-3.8-9.8-7.5-12.8-3.6-3-9.6-3H7.9v7.5h5.3q3.7 0 5.7 1.8 2.1 1.7 4.6 8.3l1.6 4L3 54.8h9.5l17-42.8 17.2 42.8h9.5z"/><path id="DejaVuSans-6e" d="M54.9 33V0h-9v32.7q0 7.8-3 11.6-3 3.9-9.1 3.9-7.3 0-11.5-4.7Q18.1 39 18.1 31V0h-9v54.7h9v-8.5q3.2 5 7.6 7.4Q30.1 56 35.8 56q9.4 0 14.2-5.8 5-5.9 5-17.2z"/><path id="DejaVuSans-6d" d="M52 44.2q3.4 6 8 9Q64.9 56 71 56q8.6 0 13.3-6 4.6-6 4.6-17V0h-9v32.7q0 7.9-2.8 11.7-2.8 3.8-8.5 3.8-7 0-11-4.7-4-4.6-4-12.6V0h-9.1v32.7q0 8-2.8 11.7-2.8 3.8-8.6 3.8-6.9 0-11-4.7-4-4.6-4-12.6V0h-9v54.7h9v-8.5q3 5 7.4 7.4Q29.8 56 35.7 56q6 0 10.1-3 4.2-3 6.2-8.8z"/><path id="DejaVuSans-69" d="M9.4 54.7h9V0h-9zm0 21.3h9V64.6h-9z"/><path id="DejaVuSans-61" d="M34.3 27.5q-11 0-15.1-2.5-4.2-2.5-4.2-8.5 0-4.8 3.1-7.6 3.2-2.8 8.6-2.8 7.5 0 12 5.3t4.5 14v2zm17.9 3.7V0h-9v8.3q-3-5-7.7-7.3Q31-1.4 24.3-1.4 16-1.4 11 3.3T6 15.9q0 9.2 6.2 14 6.2 4.6 18.4 4.6h12.6v1q0 6.1-4 9.5-4.1 3.4-11.5 3.4-4.7 0-9.2-1.1-4.4-1.2-8.5-3.4v8.3q5 2 9.6 2.8 4.6 1 9 1 11.9 0 17.7-6.2 5.9-6.1 5.9-18.6z"/></defs><g transform="matrix(.1 0 0 -.1 351 58)"><use xlink:href="#DejaVuSans-50"/><use x="60.3" xlink:href="#DejaVuSans-6f"/><use x="121.4" xlink:href="#DejaVuSans-6c"/><use x="149.2" xlink:href="#DejaVuSans-79"/><use x="208.4" xlink:href="#DejaVuSans-6e"/><use x="271.8" xlink:href="#DejaVuSans-6f"/><use x="333" xlink:href="#DejaVuSans-6d"/><use x="430.4" xlink:href="#DejaVuSans-69"/><use x="458.2" xlink:href="#DejaVuSans-61"/><use x="519.4" xlink:href="#DejaVuSans-6c"/></g></g><path id="line2d_18" fill="none" stroke="red" stroke-linecap="square" stroke-width="1.5" d="M323 69.2h20"/><g id="text_15"><defs><path id="DejaVuSans-42" d="M19.7 34.8V8.1h15.8q8 0 11.8 3.3 3.8 3.3 3.8 10 0 7-3.8 10.2-3.8 3.2-11.8 3.2zm0 30v-22h14.6q7.2 0 10.7 2.7 3.6 2.8 3.6 8.3 0 5.5-3.6 8.3-3.5 2.7-10.7 2.7zm-9.9 8.1H35q11.3 0 17.4-4.7 6.1-4.7 6.1-13.3 0-6.7-3.1-10.7-3.1-4-9.2-4.9 7.3-1.5 11.3-6.5 4-5 4-12.4 0-9.8-6.6-15Q48.3 0 35.9 0H10z"/><path id="DejaVuSans-53" d="M53.5 70.5V61q-5.6 2.7-10.6 4-5 1.3-9.6 1.3-8 0-12.4-3.1t-4.4-8.9q0-4.8 3-7.3 2.8-2.5 11-4l5.9-1.2q11-2.1 16.3-7.4 5.2-5.3 5.2-14.2 0-10.6-7.1-16Q43.7-1.5 30-1.5q-5.2 0-11 1.1Q13 1 6.9 3.3v10.2q6-3.4 11.8-5.1Q24.4 6.6 30 6.6q8.4 0 13 3.3t4.6 9.5q0 5.4-3.3 8.4t-10.8 4.5l-6 1.2q-11 2.2-16 6.9t-5 13q0 9.7 7 15.3 6.7 5.5 18.7 5.5 5.1 0 10.4-1 5.4-.8 11-2.7z"/><path id="DejaVuSans-70" d="M18.1 8.2v-29h-9v75.5h9v-8.3q2.9 4.9 7.2 7.2Q29.6 56 35.6 56q10 0 16.2-8Q58 40.3 58 27.4q0-12.9-6.2-20.8-6.2-8-16.2-8-6 0-10.3 2.5Q21 3.3 18 8.2zm30.6 19.1q0 9.9-4 15.5-4.2 5.7-11.3 5.7-7.1 0-11.2-5.7-4-5.6-4-15.5 0-10 4-15.6t11.2-5.6q7.1 0 11.2 5.7 4 5.6 4 15.5z"/><path id="DejaVuSans-65" d="M56.2 29.6v-4.4H14.9q.6-9.3 5.6-14.1 5-4.9 14-4.9 5 0 10 1.3 4.8 1.2 9.6 3.8V2.8q-4.8-2-10-3.1-5-1.1-10.2-1.1-13.1 0-20.7 7.6-7.7 7.6-7.7 20.6 0 13.4 7.3 21.3Q20 56 32.3 56q11 0 17.5-7.1 6.4-7.1 6.4-19.3zm-9 2.6q0 7.4-4.1 11.8-4 4.4-10.7 4.4-7.5 0-12-4.3-4.5-4.2-5.2-12z"/></defs><g transform="matrix(.1 0 0 -.1 351 72.7)"><use xlink:href="#DejaVuSans-42"/><use x="68.6" xlink:href="#DejaVuSans-53"/><use x="132.1" xlink:href="#DejaVuSans-70"/><use x="195.5" xlink:href="#DejaVuSans-6c"/><use x="223.3" xlink:href="#DejaVuSans-69"/><use x="251.1" xlink:href="#DejaVuSans-6e"/><use x="314.5" xlink:href="#DejaVuSans-65"/></g></g></g></g></g><defs><clipPath id="pad8f62a6dd"><path d="M57.6 41.5h357.1v266.1H57.6z"/></clipPath></defs></svg>