<svg xmlns="http://www.w3.org/2000/svg" xmlns:xlink="http://www.w3.org/1999/xlink" width="460pt" height="460" viewBox="0 0 460 345"><defs><style>*{stroke-linecap:butt;stroke-linejoin:round}</style></defs><g id="figure_1"><path id="patch_1" fill="#fff" d="M0 345.6h460.8V0H0z"/><g id="axes_1"><path id="patch_2" fill="#fff" d="M57.6 307.6h357.1V41.5H57.6z"/><g id="matplotlib.axis_1"><g id="xtick_1"><g id="line2d_1"><defs><path id="m5e947ca6b3" stroke="#000" stroke-width=".8" d="M0 0v3.5"/></defs><use x="73.8" y="307.6" stroke="#000" stroke-width=".8" xlink:href="#m5e947ca6b3"/></g><g id="text_1"><defs><path id="DejaVuSans-30" d="M31.8 66.4q-7.6 0-11.5-7.5-3.8-7.5-3.8-22.5t3.8-22.5q3.9-7.5 11.5-7.5 7.7 0 11.5 7.5T47 36.4q0 15-3.8 22.5t-11.5 7.5zm0 7.8q12.2 0 18.7-9.7T57 36.4Q57 18 50.5 8.3 44-1.4 31.8-1.4 19.5-1.4 13 8.3t-6.5 28q0 18.5 6.5 28.2 6.4 9.7 18.7 9.7z"/></defs><use transform="matrix(.1 0 0 -.1 70.7 322.2)" xlink:href="#DejaVuSans-30"/></g></g><g id="xtick_2"><use id="line2d_2" x="146" y="307.6" stroke="#000" stroke-width=".8" xlink:href="#m5e947ca6b3"/><g id="text_2"><defs><path id="DejaVuSans-32" d="M19.2 8.3h34.4V0H7.3v8.3l15.3 15.6q9.7 9.8 12.2 12.6 4.7 5.3 6.6 9 2 3.7 2 7.3 0 5.8-4.2 9.5-4 3.6-10.6 3.6-4.6 0-9.8-1.6-5.1-1.6-11-4.9v10q6 2.4 11.1 3.6 5.2 1.2 9.5 1.2 11.4 0 18-5.7 6.8-5.6 6.8-15 0-4.6-1.7-8.6-1.6-4-6-9.5l-7.9-8.2L19.2 8.3z"/></defs><use transform="matrix(.1 0 0 -.1 142.8 322.2)" xlink:href="#DejaVuSans-32"/></g></g><g id="xtick_3"><use id="line2d_3" x="218.1" y="307.6" stroke="#000" stroke-width=".8" xlink:href="#m5e947ca6b3"/><g id="text_3"><defs><path id="DejaVuSans-34" d="m37.8 64.3-25-39h25zM35.2 73h12.4V25.4H58v-8.2H47.6V0h-9.8v17.2h-33v9.5z"/></defs><use transform="matrix(.1 0 0 -.1 215 322.2)" xlink:href="#DejaVuSans-34"/></g></g><g id="xtick_4"><use id="line2d_4" x="290.3" y="307.6" stroke="#000" stroke-width=".8" xlink:href="#m5e947ca6b3"/><g id="text_4"><defs><path id="DejaVuSans-36" d="M33 40.4q-6.6 0-10.5-4.6-3.9-4.5-3.9-12.4T22.5 11Q26.4 6.4 33 6.4q6.7 0 10.5 4.6 4 4.5 4 12.4t-4 12.4q-3.8 4.6-10.5 4.6zm19.6 30.9v-9Q48.9 64.1 45 65q-3.8 1-7.5 1-9.8 0-15-6.7-5-6.6-5.8-19.9 2.9 4.3 7.2 6.5 4.4 2.3 9.6 2.3 11 0 17.4-6.7 6.3-6.6 6.3-18.1 0-11.2-6.6-18Q44-1.4 33-1.4q-12.6 0-19.3 9.7Q7 18 7 36.3 7 53.8 15.2 64q8.2 10.3 22 10.3 3.7 0 7.5-.7 3.8-.8 7.9-2.2z"/></defs><use transform="matrix(.1 0 0 -.1 287 322.2)" xlink:href="#DejaVuSans-36"/></g></g><g id="xtick_5"><use id="line2d_5" x="362.4" y="307.6" stroke="#000" stroke-width=".8" xlink:href="#m5e947ca6b3"/><g id="text_5"><defs><path id="DejaVuSans-38" d="M31.8 34.6q-7 0-11-3.7-4.1-3.8-4.1-10.4 0-6.6 4-10.3 4-3.8 11-3.8 7.1 0 11.2 3.8 4 3.8 4 10.3 0 6.6-4 10.4-4 3.7-11.1 3.7zm-9.9 4.2q-6.3 1.6-9.9 6Q8.5 49 8.5 55.2q0 8.8 6.2 13.8 6.3 5.1 17 5.1 11 0 17.2-5Q55 64 55 55.2q0-6.2-3.6-10.6-3.5-4.3-9.8-5.9 7.1-1.6 11.1-6.5 4-4.8 4-11.8 0-10.6-6.5-16.3-6.5-5.6-18.5-5.6T13.2 4.2Q6.8 10 6.8 20.5q0 7 4 11.8 4 4.9 11.1 6.5zm-3.6 15.6q0-5.7 3.5-8.8 3.6-3.2 10-3.2 6.3 0 10 3.2 3.5 3.1 3.5 8.8 0 5.7-3.6 8.8-3.6 3.2-10 3.2-6.3 0-9.9-3.2-3.5-3.1-3.5-8.8z"/></defs><use transform="matrix(.1 0 0 -.1 359.2 322.2)" xlink:href="#DejaVuSans-38"/></g></g></g><g id="matplotlib.axis_2"><g id="ytick_1"><g id="line2d_6"><defs><path id="me7e504a2e2" stroke="#000" stroke-width=".8" d="M0 0h-3.5"/></defs><use x="57.6" y="277.6" stroke="#000" stroke-width=".8" xlink:href="#me7e504a2e2"/></g><g id="text_6"><defs><path id="DejaVuSans-2e" d="M10.7 12.4H21V0H10.7z"/><path id="DejaVuSans-35" d="M10.8 73h38.7v-8.4H19.8V46.7q2.2.8 4.3 1.1 2.2.4 4.3.4 12.2 0 19.4-6.7 7-6.7 7-18.1 0-11.8-7.2-18.3-7.4-6.5-20.7-6.5-4.6 0-9.4.8-4.7.7-9.8 2.3v10q4.4-2.5 9.1-3.6 4.7-1.2 9.9-1.2 8.5 0 13.4 4.4 5 4.5 5 12 0 7.7-5 12.1Q35 40 26.7 40q-4 0-7.9-.9-4-.9-8-2.7z"/></defs><g transform="matrix(.1 0 0 -.1 34.7 281.4)"><use xlink:href="#DejaVuSans-30"/><use x="63.6" xlink:href="#DejaVuSans-2e"/><use x="95.4" xlink:href="#DejaVuSans-35"/></g></g></g><g id="ytick_2"><use id="line2d_7" x="57.6" y="241.7" stroke="#000" stroke-width=".8" xlink:href="#me7e504a2e2"/><g id="text_7"><defs><path id="DejaVuSans-31" d="M12.4 8.3h16.1v55.6L11 60.4v9l17.4 3.5h9.9V8.3h16V0H12.5z"/></defs><g transform="matrix(.1 0 0 -.1 34.7 245.5)"><use xlink:href="#DejaVuSans-31"/><use x="63.6" xlink:href="#DejaVuSans-2e"/><use x="95.4" xlink:href="#DejaVuSans-30"/></g></g></g><g id="ytick_3"><use id="line2d_8" x="57.6" y="205.8" stroke="#000" stroke-width=".8" xlink:href="#me7e504a2e2"/><g id="text_8" transform="matrix(.1 0 0 -.1 34.7 209.6)"><use xlink:href="#DejaVuSans-31"/><use x="63.6" xlink:href="#DejaVuSans-2e"/><use x="95.4" xlink:href="#DejaVuSans-35"/></g></g><g id="ytick_4"><use id="line2d_9" x="57.6" y="169.9" stroke="#000" stroke-width=".8" xlink:href="#me7e504a2e2"/><g id="text_9" transform="matrix(.1 0 0 -.1 34.7 173.7)"><use xlink:href="#DejaVuSans-32"/><use x="63.6" xlink:href="#DejaVuSans-2e"/><use x="95.4" xlink:href="#DejaVuSans-30"/></g></g><g id="ytick_5"><use id="line2d_10" x="57.6" y="133.9" stroke="#000" stroke-width=".8" xlink:href="#me7e504a2e2"/><g id="text_10" transform="matrix(.1 0 0 -.1 34.7 137.7)"><use xlink:href="#DejaVuSans-32"/><use x="63.6" xlink:href="#DejaVuSans-2e"/><use x="95.4" xlink:href="#DejaVuSans-35"/></g></g><g id="ytick_6"><use id="line2d_11" x="57.6" y="98" stroke="#000" stroke-width=".8" xlink:href="#me7e504a2e2"/><g id="text_11"><defs><path id="DejaVuSans-33" d="M40.6 39.3q7-1.5 11-6.3t4-11.8q0-10.8-7.4-16.7-7.4-6-21.1-6-4.6 0-9.4 1-4.9.9-10 2.7v9.5q4-2.4 8.9-3.6Q21.5 7 26.8 7q9.3 0 14.1 3.6 4.9 3.7 4.9 10.7 0 6.4-4.5 10Q36.8 35 28.7 35h-8.5v8h9q7.2 0 11 3 3.9 2.8 3.9 8.3 0 5.6-4 8.6t-11.4 3q-4 0-8.7-.9-4.6-.8-10.2-2.7v8.8q5.6 1.6 10.5 2.3 5 .8 9.3.8 11.2 0 17.8-5 6.5-5.2 6.5-13.9 0-6-3.5-10.2-3.4-4.2-9.8-5.8z"/></defs><g transform="matrix(.1 0 0 -.1 34.7 101.8)"><use xlink:href="#DejaVuSans-33"/><use x="63.6" xlink:href="#DejaVuSans-2e"/><use x="95.4" xlink:href="#DejaVuSans-30"/></g></g></g><g id="ytick_7"><use id="line2d_12" x="57.6" y="62.1" stroke="#000" stroke-width=".8" xlink:href="#me7e504a2e2"/><g id="text_12" transform="matrix(.1 0 0 -.1 34.7 65.9)"><use xlink:href="#DejaVuSans-33"/><use x="63.6" xlink:href="#DejaVuSans-2e"/><use x="95.4" xlink:href="#DejaVuSans-35"/></g></g></g><path id="line2d_13" fill="none" stroke="green" stroke-linecap="square" stroke-width="1.5" d="m73.8 53.6 3.3 5.6 3.3 5.6 3.3 5.5 3.3 5.5 3.2 5.3 3.3 5.4 3.3 5.2L100 97l3.2 5.2 3.3 5 3.3 5 3.3 5 3.3 5 3.2 4.7 3.3 4.8 3.3 4.7 3.3 4.6 3.3 4.6 3.2 4.5 3.3 4.4 3.3 4.4 3.3 4.3 3.3 4.2 3.2 4.2 3.3 4.1 3.3 4 3.3 4 3.3 4 3.2 3.8 3.3 3.7 3.3 3.7 3.3 3.7 3.3 3.6 3.2 3.5 3.3 3.4 3.3 3.4 3.3 3.3 3.2 3.2 3.3 3.2 3.3 3 3.3 3.1 3.3 3 3.2 2.9 3.3 2.8 3.3 2.8 3.3 2.6 3.3 2.7 3.2 2.5 3.3 2.5 3.3 2.4 3.3 2.3 3.3 2.3 3.2 2.2 3.3 2.1 3.3 2 3.3 2 3.3 2 3.2 1.8 3.3 1.8 3.3 1.7 3.3 1.6 3.3 1.6 3.2 1.4 3.3 1.5 3.3 1.3 3.3 1.3 3.2 1.1 3.3 1.2 3.3 1 3.3 1 3.3.9 3.2.8 3.3.8 3.3.6 3.3.6 3.3.6 3.2.4 3.3.4 3.3.3 3.3.2 3.3.2h9.8l3.3-.1 3.3-.3 3.2-.3 3.3-.3 3.3-.5 3.3-.5 3.3-.6 3.2-.7 3.3-.8 3.3-.8 3.3-.9 3.2-1 3.3-1 3.3-1.2 3.3-1.2" clip-path="url(#p1abaea41e1)"/><path id="patch_3" fill="none" stroke="#000" stroke-linecap="square" stroke-width=".8" d="M57.6 307.6V41.5"/><path id="patch_4" fill="none" stroke="#000" stroke-linecap="square" stroke-width=".8" d="M414.7 307.6V41.5"/><path id="patch_5" fill="none" stroke="#000" stroke-linecap="square" stroke-width=".8" d="M57.6 307.6h357.1"/><path id="patch_6" fill="none" stroke="#000" stroke-linecap="square" stroke-width=".8" d="M57.6 41.5h357.1"/></g></g><defs><clipPath id="p1abaea41e1"><path d="M57.6 41.5h357.1v266.1H57.6z"/></clipPath></defs></svg>