<svg xmlns="http://www.w3.org/2000/svg" xmlns:xlink="http://www.w3.org/1999/xlink" width="460pt" height="460" viewBox="0 0 460 345"><defs><style>*{stroke-linecap:butt;stroke-linejoin:round}</style></defs><g id="figure_1"><path id="patch_1" fill="#fff" d="M0 345.6h460.8V0H0z"/><g id="axes_1"><path id="patch_2" fill="#fff" d="M57.6 162.4h162.3v-121H57.6z"/><path id="PathCollection_1" fill="#eff9ec" d="m201.9 148.2.9-3-1-.2v.2z" clip-path="url(#p46845d5eba)"/><path id="PathCollection_2" fill="#dbf1d6" d="M183.9 162.4h29.5l6.5-7.3v-30.9l-9.5 3.7-8.5 4-10.2 13.3-7.8 13.7-1.6 3.5zm17.8-17.2.2-.2.9.2-1 3z" clip-path="url(#p46845d5eba)"/><path d="m183.9 159 7.8-13.8 10.2-13.4 8.5-4 9.5-3.6v-11l-18 7.5-6 7.2-12 14.9-1.8 2.4-7.8 17.2h8zm36.1 3.4v-7.3l-6.6 7.3zm0-89.2V41.5h-1.4l-10.5 17.3z" clip-path="url(#p46845d5eba)" id="PathCollection_3" fill="#bee5b8"/><path id="PathCollection_4" fill="#9cd797" d="m182.1 145.2 1.8-2.4 12-15 6-7 18-7.5V73.2l-11.8-14.4 10.5-17.3h-55.4l2.6 10.7 4.3 6.6 13.8 11.1 7.6 6.1 10.4 5.8L218 93.3 202 110l-.2.6-14.5 17.3-3.3 4.1-9.7 13.2-7.8 17.2h8z" clip-path="url(#p46845d5eba)"/><path id="PathCollection_5" fill="#73c476" d="M165.8 162.4h.6l7.8-17.2 9.7-13.2 3.3-4.1 14.5-17.3.2-.6L218 93.3l-16-11.5-10.5-5.8-7.6-6L170 58.7l-4.3-6.6-2.6-10.7h-17.4l2 5.8 4 11.5 7 17.2 7 6 18 10.2 1.7 1.1 3.6 17.3-5.2 7-6 10.3-11.6 17.3-.5 1-7.3 16.2z" clip-path="url(#p46845d5eba)"/><path d="m75.6 148.6 9.2-3.4-1.5-17.3-7.7-4.4L62 128l3 17.3zm90.2-2.4.5-1 11.6-17.3 6-10.4 5.2-7-3.6-17.2-1.6-1.1-18-10.2-7-6-7.1-17.2-4-11.5-2-5.8h-14.3l6.6 17.3 4.7 17.2 5 8 11.2 9.3 6.8 5.5 9.1 11.8-6.6 17.3-2.5 3.7-10.7 13.6-4.4 17.2h7.8zM58 41.5h-.4v6.2z" clip-path="url(#p46845d5eba)" id="PathCollection_6" fill="#46ae60"/><path d="M75.6 162.4h29l7.1-7.6 10.6-9.6-10.6-11-3-6.3-15-10.2-12.4-7.1-5.7-3.4-18 3v52.2zm-10.5-17.2L62 127.9l13.6-4.4 7.7 4.4 1.5 17.3-9.2 3.4zm82.7 17.2h3l4.3-17.2 10.7-13.6 2.5-3.7 6.6-17.3-9-11.8-6.9-5.5-11.2-9.4-5-7.9-4.7-17.2-6.6-17.3H105l6.8 4.6 10 12.7 8 16.5.3.7 8.6 17.3 9.2 11.3 7.4 6-3 17.3-4.4 7-12.4 10.3 1.7 17.2zM58 76l15.5-17.2.2-17.3H58l-.3 6.2v28.9z" clip-path="url(#p46845d5eba)" id="PathCollection_7" fill="#2a924a"/><path id="PathCollection_8" fill="#0b7734" d="M111.7 162.4h25.4l-1.7-17.2 12.4-10.3 4.4-7 3-17.3-7.4-6-9.2-11.3L130 76l-.3-.7-8-16.5-10-12.7-6.8-4.6H73.7l-.2 17.3L58 76l-.4.6v33.6l18-3 5.7 3.4 12.4 7.1 15 10.2 3 6.4 10.6 10.9-10.6 9.6-7.2 7.6zM80 93.4 81 76l12.7-9.5 18 5 3 4.5 5.8 17.3-8.8 16.5-18-8.6z" clip-path="url(#p46845d5eba)"/><path id="PathCollection_9" fill="#005622" d="m93.7 101.2 18 8.6 8.8-16.5-5.9-17.3-2.9-4.5-18-5L80.9 76 80 93.3z" clip-path="url(#p46845d5eba)"/><g id="matplotlib.axis_1"><g id="xtick_1"><g id="line2d_1"><defs><path id="meee2cf6b70" stroke="#000" stroke-width=".8" d="M0 0v3.5"/></defs><use x="57.6" y="162.4" stroke="#000" stroke-width=".8" xlink:href="#meee2cf6b70"/></g><g id="text_1"><defs><path id="DejaVuSans-30" d="M31.8 66.4q-7.6 0-11.5-7.5-3.8-7.5-3.8-22.5t3.8-22.5q3.9-7.5 11.5-7.5 7.7 0 11.5 7.5T47 36.4q0 15-3.8 22.5t-11.5 7.5zm0 7.8q12.2 0 18.7-9.7T57 36.4Q57 18 50.5 8.3 44-1.4 31.8-1.4 19.5-1.4 13 8.3t-6.5 28q0 18.5 6.5 28.2 6.4 9.7 18.7 9.7z"/></defs><use transform="matrix(.1 0 0 -.1 54.4 177)" xlink:href="#DejaVuSans-30"/></g></g><g id="xtick_2"><use id="line2d_2" x="90.1" y="162.4" stroke="#000" stroke-width=".8" xlink:href="#meee2cf6b70"/><g id="text_2"><defs><path id="DejaVuSans-32" d="M19.2 8.3h34.4V0H7.3v8.3l15.3 15.6q9.7 9.8 12.2 12.6 4.7 5.3 6.6 9 2 3.7 2 7.3 0 5.8-4.2 9.5-4 3.6-10.6 3.6-4.6 0-9.8-1.6-5.1-1.6-11-4.9v10q6 2.4 11.1 3.6 5.2 1.2 9.5 1.2 11.4 0 18-5.7 6.8-5.6 6.8-15 0-4.6-1.7-8.6-1.6-4-6-9.5l-7.9-8.2L19.2 8.3z"/></defs><use transform="matrix(.1 0 0 -.1 86.9 177)" xlink:href="#DejaVuSans-32"/></g></g><g id="xtick_3"><use id="line2d_3" x="122.5" y="162.4" stroke="#000" stroke-width=".8" xlink:href="#meee2cf6b70"/><g id="text_3"><defs><path id="DejaVuSans-34" d="m37.8 64.3-25-39h25zM35.2 73h12.4V25.4H58v-8.2H47.6V0h-9.8v17.2h-33v9.5z"/></defs><use transform="matrix(.1 0 0 -.1 119.3 177)" xlink:href="#DejaVuSans-34"/></g></g><g id="xtick_4"><use id="line2d_4" x="155" y="162.4" stroke="#000" stroke-width=".8" xlink:href="#meee2cf6b70"/><g id="text_4"><defs><path id="DejaVuSans-36" d="M33 40.4q-6.6 0-10.5-4.6-3.9-4.5-3.9-12.4T22.5 11Q26.4 6.4 33 6.4q6.7 0 10.5 4.6 4 4.5 4 12.4t-4 12.4q-3.8 4.6-10.5 4.6zm19.6 30.9v-9Q48.9 64.1 45 65q-3.8 1-7.5 1-9.8 0-15-6.7-5-6.6-5.8-19.9 2.9 4.3 7.2 6.5 4.4 2.3 9.6 2.3 11 0 17.4-6.7 6.3-6.6 6.3-18.1 0-11.2-6.6-18Q44-1.4 33-1.4q-12.6 0-19.3 9.7Q7 18 7 36.3 7 53.8 15.2 64q8.2 10.3 22 10.3 3.7 0 7.5-.7 3.8-.8 7.9-2.2z"/></defs><use transform="matrix(.1 0 0 -.1 151.8 177)" xlink:href="#DejaVuSans-36"/></g></g><g id="xtick_5"><use id="line2d_5" x="187.5" y="162.4" stroke="#000" stroke-width=".8" xlink:href="#meee2cf6b70"/><g id="text_5"><defs><path id="DejaVuSans-38" d="M31.8 34.6q-7 0-11-3.7-4.1-3.8-4.1-10.4 0-6.6 4-10.3 4-3.8 11-3.8 7.1 0 11.2 3.8 4 3.8 4 10.3 0 6.6-4 10.4-4 3.7-11.1 3.7zm-9.9 4.2q-6.3 1.6-9.9 6Q8.5 49 8.5 55.2q0 8.8 6.2 13.8 6.3 5.1 17 5.1 11 0 17.2-5Q55 64 55 55.2q0-6.2-3.6-10.6-3.5-4.3-9.8-5.9 7.1-1.6 11.1-6.5 4-4.8 4-11.8 0-10.6-6.5-16.3-6.5-5.6-18.5-5.6T13.2 4.2Q6.8 10 6.8 20.5q0 7 4 11.8 4 4.9 11.1 6.5zm-3.6 15.6q0-5.7 3.5-8.8 3.6-3.2 10-3.2 6.3 0 10 3.2 3.5 3.1 3.5 8.8 0 5.7-3.6 8.8-3.6 3.2-10 3.2-6.3 0-9.9-3.2-3.5-3.1-3.5-8.8z"/></defs><use transform="matrix(.1 0 0 -.1 184.3 177)" xlink:href="#DejaVuSans-38"/></g></g><g id="xtick_6"><use id="line2d_6" x="219.9" y="162.4" stroke="#000" stroke-width=".8" xlink:href="#meee2cf6b70"/><g id="text_6"><defs><path id="DejaVuSans-31" d="M12.4 8.3h16.1v55.6L11 60.4v9l17.4 3.5h9.9V8.3h16V0H12.5z"/></defs><g transform="matrix(.1 0 0 -.1 213.6 177)"><use xlink:href="#DejaVuSans-31"/><use x="63.6" xlink:href="#DejaVuSans-30"/></g></g></g></g><g id="matplotlib.axis_2"><g id="ytick_1"><g id="line2d_7"><defs><path id="mc813311d67" stroke="#000" stroke-width=".8" d="M0 0h-3.5"/></defs><use x="57.6" y="162.4" stroke="#000" stroke-width=".8" xlink:href="#mc813311d67"/></g><use id="text_7" transform="matrix(.1 0 0 -.1 44.2 166.2)" xlink:href="#DejaVuSans-30"/></g><g id="ytick_2"><use id="line2d_8" x="57.6" y="132.2" stroke="#000" stroke-width=".8" xlink:href="#mc813311d67"/><use id="text_8" transform="matrix(.1 0 0 -.1 44.2 136)" xlink:href="#DejaVuSans-32"/></g><g id="ytick_3"><use id="line2d_9" x="57.6" y="102" stroke="#000" stroke-width=".8" xlink:href="#mc813311d67"/><use id="text_9" transform="matrix(.1 0 0 -.1 44.2 105.8)" xlink:href="#DejaVuSans-34"/></g><g id="ytick_4"><use id="line2d_10" x="57.6" y="71.7" stroke="#000" stroke-width=".8" xlink:href="#mc813311d67"/><use id="text_10" transform="matrix(.1 0 0 -.1 44.2 75.5)" xlink:href="#DejaVuSans-36"/></g><g id="ytick_5"><use id="line2d_11" x="57.6" y="41.5" stroke="#000" stroke-width=".8" xlink:href="#mc813311d67"/><use id="text_11" transform="matrix(.1 0 0 -.1 44.2 45.3)" xlink:href="#DejaVuSans-38"/></g></g><path id="patch_3" fill="none" stroke="#000" stroke-linecap="square" stroke-width=".8" d="M57.6 162.4v-121"/><path id="patch_4" fill="none" stroke="#000" stroke-linecap="square" stroke-width=".8" d="M220 162.4v-121"/><path id="patch_5" fill="none" stroke="#000" stroke-linecap="square" stroke-width=".8" d="M57.6 162.4h162.3"/><path id="patch_6" fill="none" stroke="#000" stroke-linecap="square" stroke-width=".8" d="M57.6 41.5h162.3"/></g><g id="axes_2"><path id="patch_7" fill="#fff" d="M252.4 162.4h162.3v-121H252.4z"/><path d="M270.4 162.4h84.3l5.4-17.2-7.5-17.3-5.2-17.3-4-17.3-.8-1.6-1.7 1.6-2.2 17.3-1.2 17.3-13 12.4-4.8 4.9-13.2 7.6-18 5.4-18 2-18.1-3v5.2zm54.1-100 3.4-3.6 14.7-11.1 5.6-6.2H291l15.5 12.7 14.5 4.6z" clip-path="url(#p4d32d36173)" id="PathCollection_10" fill="#ebf7e7"/><path id="PathCollection_11" fill="#c7e9c0" d="m270.4 160.3 18-2.1 18.1-5.4 13.2-7.6 4.8-5 13-12.3 1.2-17.3 2.2-17.3 1.7-1.6.7 1.6 4.1 17.3 5.2 17.3 7.5 17.3-5.4 17.2h26.4l1.4-17.2-3.9-16-.3-1.3-8-17.3-6-17.3-3.7-13.7-1.5-3.6 1.5-6.6 2.7-10.6L376 41.5h-27.8l-5.6 6.2-14.7 11-3.4 3.7-3.5-3.6-14.5-4.6L291 41.5h-17.7l15.2 11.2 7.3 6 10.7 12.6 4.9 4.7 5 17.3 3.5 17.3-1.8 17.3-11.6 11.3-10.5 6-7.5 3.3-18 2.7-18.1-4v10z" clip-path="url(#p4d32d36173)"/><path d="m270.4 151.2 18-2.7 7.6-3.3 10.5-6 11.6-11.3 1.8-17.3-3.4-17.3-5.1-17.3-4.9-4.7-10.7-12.5-7.3-6.1-15.2-11.2h-20.9v15l18-1.8 6 4 12 7.6 8.8 9.7 7.4 17.3 1.9 7 2.8 10.3-2.8 13.9-.8 3.4-17.2 11.5-18 3.2-18.1-4v8.6zm126.3 11.2h3.3l2.2-17.2.4-17.3-6-8.1-5-9.2-11-17.3L379 76l9.8-17.2 4.7-17.3H376l-12.7 17.3-2.7 10.6-1.5 6.6 1.5 3.6 3.7 13.7 6 17.3 8 17.3.3 1.2 4 16-1.5 17.3z" clip-path="url(#p4d32d36173)" id="PathCollection_12" fill="#92d28f"/><path d="M414.7 162.4V45l-1.5-3.5h-19.8l-4.7 17.3-9.8 17.2 1.8 17.3 11 17.3 5 9.2 5.9 8-.4 17.4-2.2 17.2zm-144.3-19.8 18-3.2 17.3-11.5.8-3.4 2.8-14-2.8-10.3-2-6.9-7.3-17.3-8.7-9.7-12.2-7.5-5.9-4.1-18 1.8v20.7l2-1.2 16-5.8 10 5.8 8 6.8 5.3 10.5 4.8 17.3-5.9 17.3-4.1 2.8-18 4-18.1-4.4v8.3z" clip-path="url(#p4d32d36173)" id="PathCollection_13" fill="#52b365"/><path d="m270.4 134.6 18-4 4.2-2.7 6-17.3-5-17.3-5.1-10.5-8.2-6.8-9.9-5.8-16 5.8-2 1.2v31.9L264 93.3l6.3-4 4.9 4 11.3 17.3-16.2 14-18-13.2v18.9zM414.7 45v-3.5h-1.5z" clip-path="url(#p4d32d36173)" id="PathCollection_14" fill="#228a44"/><path id="PathCollection_15" fill="#005f26" d="m270.4 124.5 16.2-14-11.3-17.2-4.9-4-6.3 4-11.7 15.8v2.3z" clip-path="url(#p4d32d36173)"/><g id="matplotlib.axis_3"><g id="xtick_7"><use id="line2d_12" x="252.4" y="162.4" stroke="#000" stroke-width=".8" xlink:href="#meee2cf6b70"/><use id="text_12" transform="matrix(.1 0 0 -.1 249.2 177)" xlink:href="#DejaVuSans-30"/></g><g id="xtick_8"><use id="line2d_13" x="284.9" y="162.4" stroke="#000" stroke-width=".8" xlink:href="#meee2cf6b70"/><use id="text_13" transform="matrix(.1 0 0 -.1 281.7 177)" xlink:href="#DejaVuSans-32"/></g><g id="xtick_9"><use id="line2d_14" x="317.3" y="162.4" stroke="#000" stroke-width=".8" xlink:href="#meee2cf6b70"/><use id="text_14" transform="matrix(.1 0 0 -.1 314.1 177)" xlink:href="#DejaVuSans-34"/></g><g id="xtick_10"><use id="line2d_15" x="349.8" y="162.4" stroke="#000" stroke-width=".8" xlink:href="#meee2cf6b70"/><use id="text_15" transform="matrix(.1 0 0 -.1 346.6 177)" xlink:href="#DejaVuSans-36"/></g><g id="xtick_11"><use id="line2d_16" x="382.3" y="162.4" stroke="#000" stroke-width=".8" xlink:href="#meee2cf6b70"/><use id="text_16" transform="matrix(.1 0 0 -.1 379 177)" xlink:href="#DejaVuSans-38"/></g><g id="xtick_12"><use id="line2d_17" x="414.7" y="162.4" stroke="#000" stroke-width=".8" xlink:href="#meee2cf6b70"/><g id="text_17" transform="matrix(.1 0 0 -.1 408.4 177)"><use xlink:href="#DejaVuSans-31"/><use x="63.6" xlink:href="#DejaVuSans-30"/></g></g></g><g id="matplotlib.axis_4"><g id="ytick_6"><use id="line2d_18" x="252.4" y="162.4" stroke="#000" stroke-width=".8" xlink:href="#mc813311d67"/><use id="text_18" transform="matrix(.1 0 0 -.1 239 166.2)" xlink:href="#DejaVuSans-30"/></g><g id="ytick_7"><use id="line2d_19" x="252.4" y="132.2" stroke="#000" stroke-width=".8" xlink:href="#mc813311d67"/><use id="text_19" transform="matrix(.1 0 0 -.1 239 136)" xlink:href="#DejaVuSans-32"/></g><g id="ytick_8"><use id="line2d_20" x="252.4" y="102" stroke="#000" stroke-width=".8" xlink:href="#mc813311d67"/><use id="text_20" transform="matrix(.1 0 0 -.1 239 105.8)" xlink:href="#DejaVuSans-34"/></g><g id="ytick_9"><use id="line2d_21" x="252.4" y="71.7" stroke="#000" stroke-width=".8" xlink:href="#mc813311d67"/><use id="text_21" transform="matrix(.1 0 0 -.1 239 75.5)" xlink:href="#DejaVuSans-36"/></g><g id="ytick_10"><use id="line2d_22" x="252.4" y="41.5" stroke="#000" stroke-width=".8" xlink:href="#mc813311d67"/><use id="text_22" transform="matrix(.1 0 0 -.1 239 45.3)" xlink:href="#DejaVuSans-38"/></g></g><path id="patch_8" fill="none" stroke="#000" stroke-linecap="square" stroke-width=".8" d="M252.4 162.4v-121"/><path id="patch_9" fill="none" stroke="#000" stroke-linecap="square" stroke-width=".8" d="M414.7 162.4v-121"/><path id="patch_10" fill="none" stroke="#000" stroke-linecap="square" stroke-width=".8" d="M252.4 162.4h162.3"/><path id="patch_11" fill="none" stroke="#000" stroke-linecap="square" stroke-width=".8" d="M252.4 41.5h162.3"/></g><g id="axes_3"><path id="patch_12" fill="#fff" d="M57.6 307.6h162.3v-121H57.6z"/><path id="PathCollection_16" fill="#eff9ec" d="m75.6 242 4-3.5-4-6.9-18 2.8v8.4z" clip-path="url(#pd5f63c7b9c)"/><path d="M220 281v-30.5l-18.1.5-4.7 4.7 4.7 15.4.8 2zM75.6 250.5l13.2-12-9.2-17.3-4-2.7-13.6 2.7-4.4 1.3v11.9l18-2.8 4 6.9-4 3.6-18 .7v12.6z" clip-path="url(#pd5f63c7b9c)" id="PathCollection_17" fill="#dbf1d6"/><path d="M220 291.1V281l-17.3-8-.8-2-4.7-15.3 4.7-4.7 18-.5v-9.8l-9.8-2.2-8.2-4.8-4.2 4.8-13.8 14.4-1.3 2.8 1.3 9.2 1.8 8.1 16.2 9.6 16.5 7.7zM75.6 257.6l4.8-1.9 13.3-12 3.6-5.2-3.6-11.3-3-6-15-10.4-18.1 2.9v8.8l4.4-1.3 13.6-2.7 4 2.7 9.2 17.3-13.2 12-18 4.9v5.5zm126.3-52.3 1.3-1.4 10.9-17.3h-44.5l14.3 15.4 10.2 1.9z" clip-path="url(#pd5f63c7b9c)" id="PathCollection_18" fill="#bee5b8"/><path d="m147.8 303 8-12.7-8-7.6-8.5 7.6zm54.1-9 18 8.3v-11.2l-1.5-.8-16.5-7.7-16.2-9.6-1.8-8-1.3-9.3 1.3-2.8 13.8-14.4 4.2-4.8 8.2 4.8 9.8 2.2v-17.8l-2.5-1.7 2.5-2.7v-31.9h-5.8L203 204l-1.2 1.4-7.8-1.4-10.2-2-14.3-15.3h-24.2l2.4 2.6 14 14.7 4 2.7 16 14.6-1.7 17.3-7.7 17.2-6.6 16.7-1.5.6 1.5 1.6 18 10.8 11 4.9zM75.6 262.4l17.2-6.7.9-.7 11.1-16.5-4.1-17.3-7-6.9L77.2 204l-1.6-4.3-7.5 4.3-10.5 1.3v8.5l18-3 15.2 10.5 2.9 6 3.6 11.3-3.6 5.3-13.3 12-4.8 1.8-18 3.3v5.4z" clip-path="url(#pd5f63c7b9c)" id="PathCollection_19" fill="#9cd797"/><path d="M129.7 307.6h48l6.2-2.7 7.4 2.7H220v-5.3l-18-8.3-7-3.7-11-4.9-18-10.8-1.6-1.6 1.5-.6 6.6-16.7 7.7-17.2 1.6-17.3-15.9-14.6-4-2.7-14-14.7-2.4-2.6h-23l7.3 4.8 12 12.5 6 4.8 18.1 11.8.8.7 3.6 17.3-4.4 9.5-6 7.7-12 8.6-18 4-5.7 4.7-1.8 17.3 1 17.3zm9.6-17.3 8.5-7.6 8 7.6-8 12.7zm-63.7-23.2 18-4.8 13.9-6.6 4.2-13.1 1.1-4.1-1-6-1.7-11.3L93.7 205l-1.9-1.2.8-17.3h-35v18.6l10.5-1.3 7.5-4.3 1.6 4.3 16.5 10.4 7 6.9 4.1 17.3L93.7 255l-.9.7-17.2 6.7-18 4v5.3zM220 222.9v-4.4l-2.6 2.7z" clip-path="url(#pd5f63c7b9c)" id="PathCollection_20" fill="#73c476"/><path d="M57.6 306.2v1.4h1.2zm64.7-15.9 1.8-17.3 5.6-4.7 18-4 12.1-8.6 6-7.7 4.4-9.5-3.6-17.3-.8-.7-18-11.8-6.1-4.8-12-12.5-7.3-4.8H92.6l-.8 17.3 1.9 1.2 16.4 16 1.6 11.5 1.1 5.9-1 4-4.3 13.2-13.8 6.6-18 4.8-18.1 4.6v9l13.8-7.7 4.2-1 18-2.7 11.6 3.7 6.5 13.6.8 3.7-.2 17.3h11zm3-51.8 4.4-16.2 18 2.3 9 13.9-9 11.4-18 .2zm-14.8-34.6 1.2-1.5 2.6 1.5-2.6 1.2zm73.4 103.7h7.4l-7.4-2.7-6.2 2.7z" clip-path="url(#pd5f63c7b9c)" id="PathCollection_21" fill="#46ae60"/><path d="m58.4 290.3 17.2-10.2 18-1.2 9 11.4-3.4 17.3h13.1l.2-17.3-.8-3.7-6.5-13.6-11.5-3.7-18 2.6-4.3 1.1-13.8 7.7v25.5l1.2 1.4h14.6zm71.3-40.2 18-.2 9-11.4-9-13.9-18-2.3-4.4 16.2zm-18-45 2.6-1.2-2.6-1.5-1.2 1.5z" clip-path="url(#pd5f63c7b9c)" id="PathCollection_22" fill="#2a924a"/><path id="PathCollection_23" fill="#0b7734" d="M75.6 307.6h23.6l3.5-17.3-9-11.4-18 1.2-17.3 10.2 15 17.3zM74 290.3l1.7-1 10.3 1-10.3 2z" clip-path="url(#pd5f63c7b9c)"/><path id="PathCollection_24" fill="#005622" d="m75.6 292.4 10.3-2.1-10.3-1-1.7 1z" clip-path="url(#pd5f63c7b9c)"/><g id="matplotlib.axis_5"><g id="xtick_13"><use id="line2d_23" x="57.6" y="307.6" stroke="#000" stroke-width=".8" xlink:href="#meee2cf6b70"/><use id="text_23" transform="matrix(.1 0 0 -.1 54.4 322.2)" xlink:href="#DejaVuSans-30"/></g><g id="xtick_14"><use id="line2d_24" x="90.1" y="307.6" stroke="#000" stroke-width=".8" xlink:href="#meee2cf6b70"/><use id="text_24" transform="matrix(.1 0 0 -.1 86.9 322.2)" xlink:href="#DejaVuSans-32"/></g><g id="xtick_15"><use id="line2d_25" x="122.5" y="307.6" stroke="#000" stroke-width=".8" xlink:href="#meee2cf6b70"/><use id="text_25" transform="matrix(.1 0 0 -.1 119.3 322.2)" xlink:href="#DejaVuSans-34"/></g><g id="xtick_16"><use id="line2d_26" x="155" y="307.6" stroke="#000" stroke-width=".8" xlink:href="#meee2cf6b70"/><use id="text_26" transform="matrix(.1 0 0 -.1 151.8 322.2)" xlink:href="#DejaVuSans-36"/></g><g id="xtick_17"><use id="line2d_27" x="187.5" y="307.6" stroke="#000" stroke-width=".8" xlink:href="#meee2cf6b70"/><use id="text_27" transform="matrix(.1 0 0 -.1 184.3 322.2)" xlink:href="#DejaVuSans-38"/></g><g id="xtick_18"><use id="line2d_28" x="219.9" y="307.6" stroke="#000" stroke-width=".8" xlink:href="#meee2cf6b70"/><g id="text_28" transform="matrix(.1 0 0 -.1 213.6 322.2)"><use xlink:href="#DejaVuSans-31"/><use x="63.6" xlink:href="#DejaVuSans-30"/></g></g></g><g id="matplotlib.axis_6"><g id="ytick_11"><use id="line2d_29" x="57.6" y="307.6" stroke="#000" stroke-width=".8" xlink:href="#mc813311d67"/><use id="text_29" transform="matrix(.1 0 0 -.1 44.2 311.4)" xlink:href="#DejaVuSans-30"/></g><g id="ytick_12"><use id="line2d_30" x="57.6" y="277.3" stroke="#000" stroke-width=".8" xlink:href="#mc813311d67"/><use id="text_30" transform="matrix(.1 0 0 -.1 44.2 281.1)" xlink:href="#DejaVuSans-32"/></g><g id="ytick_13"><use id="line2d_31" x="57.6" y="247.1" stroke="#000" stroke-width=".8" xlink:href="#mc813311d67"/><use id="text_31" transform="matrix(.1 0 0 -.1 44.2 250.9)" xlink:href="#DejaVuSans-34"/></g><g id="ytick_14"><use id="line2d_32" x="57.6" y="216.9" stroke="#000" stroke-width=".8" xlink:href="#mc813311d67"/><use id="text_32" transform="matrix(.1 0 0 -.1 44.2 220.7)" xlink:href="#DejaVuSans-36"/></g><g id="ytick_15"><use id="line2d_33" x="57.6" y="186.6" stroke="#000" stroke-width=".8" xlink:href="#mc813311d67"/><use id="text_33" transform="matrix(.1 0 0 -.1 44.2 190.4)" xlink:href="#DejaVuSans-38"/></g></g><path id="patch_13" fill="none" stroke="#000" stroke-linecap="square" stroke-width=".8" d="M57.6 307.6v-121"/><path id="patch_14" fill="none" stroke="#000" stroke-linecap="square" stroke-width=".8" d="M220 307.6v-121"/><path id="patch_15" fill="none" stroke="#000" stroke-linecap="square" stroke-width=".8" d="M57.6 307.6h162.3"/><path id="patch_16" fill="none" stroke="#000" stroke-linecap="square" stroke-width=".8" d="M57.6 186.6h162.3"/></g><g id="axes_4"><path id="patch_17" fill="#fff" d="M252.4 307.6h162.3v-121H252.4z"/><path id="PathCollection_25" fill="#edf8e9" d="M342.6 307.6h30.8l5.2-12 1.5-5.3-1.5-.8-18-8.5-18 3-7 6.3-3.5 17.3z" clip-path="url(#p9d4f93f46e)"/><path id="PathCollection_26" fill="#d0edca" d="M324.5 307.6h7.6l3.5-17.3 7-6.2 18-3 18 8.4 1.5.8-1.5 5.3-5.2 12H407l7.8-9.4v-102l-13.3 7.7 4 17.3 5.6 17.3 2.3 17.2-6.6 17.3-10 7.1-17-7-1-.3-18-5-18.1 2-5.2 3.2-12.9 11.7-4.9 5.6-6.3 17.3z" clip-path="url(#p9d4f93f46e)"/><path d="M306.5 307.6h6.8l6.3-17.3 5-5.6 12.8-11.7 5.2-3.1 18-2 18 5 1 .1 17 7.1 10.1-7 6.6-17.4-2.3-17.2-5.7-17.3-3.9-17.3 13.3-7.7v-9.6h-53.5l11.1 17.3 6.3 7.3 10.3 10 7.8 8.2 4.1 9 .4 17.3-4.5 6.2-18 .2-18-3.6-18.1 1.8-18 11-2 1.7-15 17.3-1.1 2.4-6.6 14.9zm108.2 0v-9.4l-7.8 9.4zm-161.4-51.9 2.2-17.2-3.1-4.5v23.7z" clip-path="url(#p9d4f93f46e)" id="PathCollection_27" fill="#a7dba0"/><path d="m256.8 290.3 4-17.3 8.3-17.3 1.3-4 4-13.2-4-13.3-2.3-4-15.7-11V234l3.1 4.5-2.2 17.2-1 2v45.6zm31.7 17.3h11.4l6.6-14.9 1-2.4 15-17.3 2-1.8 18-10.9 18.1-1.8 18 3.6 18-.2 4.6-6.2-.4-17.2-4.1-9.1-7.8-8.2-10.3-10-6.3-7.3-11.1-17.3h-11.8l7.3 17.3 4 8.2 7.5 9 10.4 13.1 4 4.3-4 5-18 1.9-18 4.3-10.2 6-7.9 4.4-14.5 13-3.5 4-12.6 13.2-5.4 14-2.6 3.3z" clip-path="url(#p9d4f93f46e)" id="PathCollection_28" fill="#73c476"/><path id="PathCollection_29" fill="#3da65a" d="M270.4 307.6H286l2.6-3.2 5.4-14.1 12.6-13.2 3.5-4 14.5-13 7.9-4.4 10.2-6 18-4.3 18-2 4-5-4-4.2-10.4-13-7.6-9-4-8.3-7.2-17.3H338l4.6 11 2.6 6.3 5.2 17.3-7.8 16.2-.9 1-17.2 8.8-12.5 8.5-5.5 4.7-17.4 12.6-.6.7-1.2-.7-1.2-17.3 2.2-17.2-3.5-17.3-14.4-16.6-1-.7-15.6-17.3h-1.4v23.6l15.7 11 2.3 4 4 13.3-4 13.2-1.3 4-8.3 17.3-4 17.3-4.4 13v4.3z" clip-path="url(#p9d4f93f46e)"/><path id="PathCollection_30" fill="#18823d" d="m288.5 273.7.6-.7 17.4-12.6 5.5-4.7 12.5-8.5 17.2-8.7.9-1.1 7.8-16.2-5.2-17.3-2.6-6.3-4.6-11h-11.3l5 17.3-1 17.3-6.2 7.2-18 1.7-3.8-9-13.4-17.2-.8-2-8.3-15.3h-26.4l15.7 17.3 1 .7 14.3 16.6 3.5 17.3-2.2 17.2 1.2 17.3z" clip-path="url(#p9d4f93f46e)"/><path id="PathCollection_31" fill="#005b25" d="m306.5 230.1 18-1.7 6.3-7.2.9-17.3-5-17.3h-46.5l8.3 15.4.8 1.9 13.4 17.3z" clip-path="url(#p9d4f93f46e)"/><g id="matplotlib.axis_7"><g id="xtick_19"><use id="line2d_34" x="252.4" y="307.6" stroke="#000" stroke-width=".8" xlink:href="#meee2cf6b70"/><use id="text_34" transform="matrix(.1 0 0 -.1 249.2 322.2)" xlink:href="#DejaVuSans-30"/></g><g id="xtick_20"><use id="line2d_35" x="284.9" y="307.6" stroke="#000" stroke-width=".8" xlink:href="#meee2cf6b70"/><use id="text_35" transform="matrix(.1 0 0 -.1 281.7 322.2)" xlink:href="#DejaVuSans-32"/></g><g id="xtick_21"><use id="line2d_36" x="317.3" y="307.6" stroke="#000" stroke-width=".8" xlink:href="#meee2cf6b70"/><use id="text_36" transform="matrix(.1 0 0 -.1 314.1 322.2)" xlink:href="#DejaVuSans-34"/></g><g id="xtick_22"><use id="line2d_37" x="349.8" y="307.6" stroke="#000" stroke-width=".8" xlink:href="#meee2cf6b70"/><use id="text_37" transform="matrix(.1 0 0 -.1 346.6 322.2)" xlink:href="#DejaVuSans-36"/></g><g id="xtick_23"><use id="line2d_38" x="382.3" y="307.6" stroke="#000" stroke-width=".8" xlink:href="#meee2cf6b70"/><use id="text_38" transform="matrix(.1 0 0 -.1 379 322.2)" xlink:href="#DejaVuSans-38"/></g><g id="xtick_24"><use id="line2d_39" x="414.7" y="307.6" stroke="#000" stroke-width=".8" xlink:href="#meee2cf6b70"/><g id="text_39" transform="matrix(.1 0 0 -.1 408.4 322.2)"><use xlink:href="#DejaVuSans-31"/><use x="63.6" xlink:href="#DejaVuSans-30"/></g></g></g><g id="matplotlib.axis_8"><g id="ytick_16"><use id="line2d_40" x="252.4" y="307.6" stroke="#000" stroke-width=".8" xlink:href="#mc813311d67"/><use id="text_40" transform="matrix(.1 0 0 -.1 239 311.4)" xlink:href="#DejaVuSans-30"/></g><g id="ytick_17"><use id="line2d_41" x="252.4" y="277.3" stroke="#000" stroke-width=".8" xlink:href="#mc813311d67"/><use id="text_41" transform="matrix(.1 0 0 -.1 239 281.1)" xlink:href="#DejaVuSans-32"/></g><g id="ytick_18"><use id="line2d_42" x="252.4" y="247.1" stroke="#000" stroke-width=".8" xlink:href="#mc813311d67"/><use id="text_42" transform="matrix(.1 0 0 -.1 239 250.9)" xlink:href="#DejaVuSans-34"/></g><g id="ytick_19"><use id="line2d_43" x="252.4" y="216.9" stroke="#000" stroke-width=".8" xlink:href="#mc813311d67"/><use id="text_43" transform="matrix(.1 0 0 -.1 239 220.7)" xlink:href="#DejaVuSans-36"/></g><g id="ytick_20"><use id="line2d_44" x="252.4" y="186.6" stroke="#000" stroke-width=".8" xlink:href="#mc813311d67"/><use id="text_44" transform="matrix(.1 0 0 -.1 239 190.4)" xlink:href="#DejaVuSans-38"/></g></g><path id="patch_18" fill="none" stroke="#000" stroke-linecap="square" stroke-width=".8" d="M252.4 307.6v-121"/><path id="patch_19" fill="none" stroke="#000" stroke-linecap="square" stroke-width=".8" d="M414.7 307.6v-121"/><path id="patch_20" fill="none" stroke="#000" stroke-linecap="square" stroke-width=".8" d="M252.4 307.6h162.3"/><path id="patch_21" fill="none" stroke="#000" stroke-linecap="square" stroke-width=".8" d="M252.4 186.6h162.3"/></g></g><defs><clipPath id="p46845d5eba"><path d="M57.6 41.5h162.3v121H57.6z"/></clipPath><clipPath id="p4d32d36173"><path d="M252.4 41.5h162.3v121H252.4z"/></clipPath><clipPath id="pd5f63c7b9c"><path d="M57.6 186.6h162.3v121H57.6z"/></clipPath><clipPath id="p9d4f93f46e"><path d="M252.4 186.6h162.3v121H252.4z"/></clipPath></defs></svg>