<svg xmlns="http://www.w3.org/2000/svg" xmlns:xlink="http://www.w3.org/1999/xlink" width="460pt" height="460" viewBox="0 0 460 345"><defs><style>*{stroke-linecap:butt;stroke-linejoin:round}</style></defs><g id="figure_1"><path id="patch_1" fill="#fff" d="M0 345.6h460.8V0H0z"/><g id="axes_1"><path id="patch_2" fill="#fff" d="M57.6 162.4h162.3v-121H57.6z"/><path id="PathCollection_1" fill="#edf8e9" d="m75.6 128.6 1.5-.7-1.5-1.1-.8 1z" clip-path="url(#p6fbb2d227f)"/><path d="M57.6 154.5v8h4.2zm36.1 7.9h25.5l-2.2-17.2-5.3-3.9-16.8 3.9-1.2 3.6-2.9 13.6zm-18.1-22.9 18 3.6 2.5-15.2-2.4-4.1-18-12.9-12.3 17zm-.8-11.6.8-1.1 1.5 1-1.5.8zM183.9 85l18-7.3.9-1.7-1-2.1-18-7-6.5 9.1z" clip-path="url(#p6fbb2d227f)" id="PathCollection_2" fill="#d0edca"/><path d="M75.6 162.4h15.2l2.9-13.6 1.2-3.6 16.8-3.9 5.3 3.9 2.2 17.2h9l1.5-14.4.7-2.8-.7-.7-18-12.7-4.5-4-11-17.2-2.5-2.3-18-3.2-13.4 5.5-4.7 7.1v36.8l4.2 8zM63.4 128l12.2-17 18 12.9 2.5 4-2.4 15.3-18-3.6zm156.6 0v-3.4l-.3 3.3zm-36.1-33.3 18 2.7 6.5-4 5.8-17.4 5.7-12.5V54l-18-9.7-18 8-18-1.2-3.5 7.7 3.4 4.2 3.7 13 12.8 17.3zM177.3 76l6.6-9 18 6.9.9 2.1-1 1.7-18 7.3zM59.4 41.5h-1.8v1z" clip-path="url(#p6fbb2d227f)" id="PathCollection_3" fill="#a7dba0"/><path d="M129.7 162.4h44.8l-8.7-9.4-16.6-7.8-1.4-1.3-16.1-16-2-1.5-18-5.8-6.9-10-11.1-9.7-18-1.4-18.1-.5v18.7l4.7-7.1 13.3-5.5 18 3.2 2.7 2.3 10.9 17.3 4.5 3.9 18 12.7.7.7-.7 2.8-1.5 14.4zm90.3-23.1v-11.2l-.3-.2.2-3.3V63.5L214.2 76l-5.8 17.3-6.5 4-18-2.6-1.6-1.4L169.5 76l-3.7-13-3.4-4.2 3.4-7.7 18 1.3 18-8.1L220 54V41.5h-84l8.5 17.3 3.4 5.1 11 12.1 7 4.8 9.6 12.5 8.5 7.7 17 9.6 1 1.5 8.6 15.8zm-144.4-93 18 11.3 18.1-8.2 11.7-8h-64l-1.8 1v16.2z" clip-path="url(#p6fbb2d227f)" id="PathCollection_4" fill="#73c476"/><path id="PathCollection_5" fill="#3da65a" d="m165.8 153 8.7 9.4h12.1l-2.7-2-14-15.2-4-5-13.7-12.3-4.4-6-16.4-11.3-1.7-5-18 1.2-18-13.2-18 .3-2.6-.6L65.9 76l7.5-17.2 2.2-1.6 2.4 1.6 15.7 17 18-10.6 7.9-6.4 10.1-7.1 5 7L145 76l2.7 9.2 18 4.6 2.7 3.5 15.4 14 5.8 3.3 11.4 17.3.8 1.5 10.9 15.8 7.1 3.4v-9.3l-9.4-11.4-8.6-15.8-1-1.5-17-9.6-8.5-7.7-9.6-12.5-7-4.8-11-12-3.4-5.2-8.5-17.3h-12.5l-11.7 8-18 8.1-18-11.3-18.1 12.3V99l18 .5 18 1.4 11.2 9.7 7 10 18 5.8 1.9 1.5 16 16 1.5 1.3z" clip-path="url(#p6fbb2d227f)"/><path id="PathCollection_6" fill="#18823d" d="m183.9 160.4 2.7 2H204l16-6.4v-7.3l-7.1-3.4-11-15.8-.7-1.5-11.4-17.3-5.8-3.3-15.4-14-2.7-3.5-18-4.6L145 76l-10.5-17.2-4.9-7.1-10.1 7-7.9 6.5-18 10.6-15.7-17-2.4-1.6-2.2 1.6L65.9 76 73 93.3l2.5.6 18-.3 18.1 13.2 18-1.1 1.7 4.9 16.4 11.3 4.4 6 13.6 12.4 4.2 4.9zm-2-15.2-12.6-17.3-3.5-2.5-10.8-14.8 10.8-9 10.5 9 7.6 8.8 5.4 8.5 1.3 17.3-6.7 2.1zm-55-69.2 2.8-2 1 2-1 1.3z" clip-path="url(#p6fbb2d227f)"/><path d="m183.9 147.3 6.7-2.1-1.3-17.3-5.4-8.5-7.6-8.8-10.5-9-10.8 9 10.8 14.8 3.5 2.5 12.6 17.3zm36.1 15.1V156l-15.9 6.5zm-90.3-85.1 1-1.3-1-2-2.8 2z" clip-path="url(#p6fbb2d227f)" id="PathCollection_7" fill="#005b25"/><g id="matplotlib.axis_1"><g id="xtick_1"><g id="line2d_1"><defs><path id="md7234748fa" stroke="#000" stroke-width=".8" d="M0 0v3.5"/></defs><use x="57.6" y="162.4" stroke="#000" stroke-width=".8" xlink:href="#md7234748fa"/></g><g id="text_1"><defs><path id="DejaVuSans-30" d="M31.8 66.4q-7.6 0-11.5-7.5-3.8-7.5-3.8-22.5t3.8-22.5q3.9-7.5 11.5-7.5 7.7 0 11.5 7.5T47 36.4q0 15-3.8 22.5t-11.5 7.5zm0 7.8q12.2 0 18.7-9.7T57 36.4Q57 18 50.5 8.3 44-1.4 31.8-1.4 19.5-1.4 13 8.3t-6.5 28q0 18.5 6.5 28.2 6.4 9.7 18.7 9.7z"/></defs><use transform="matrix(.1 0 0 -.1 54.4 177)" xlink:href="#DejaVuSans-30"/></g></g><g id="xtick_2"><use id="line2d_2" x="90.1" y="162.4" stroke="#000" stroke-width=".8" xlink:href="#md7234748fa"/><g id="text_2"><defs><path id="DejaVuSans-32" d="M19.2 8.3h34.4V0H7.3v8.3l15.3 15.6q9.7 9.8 12.2 12.6 4.7 5.3 6.6 9 2 3.7 2 7.3 0 5.8-4.2 9.5-4 3.6-10.6 3.6-4.6 0-9.8-1.6-5.1-1.6-11-4.9v10q6 2.4 11.1 3.6 5.2 1.2 9.5 1.2 11.4 0 18-5.7 6.8-5.6 6.8-15 0-4.6-1.7-8.6-1.6-4-6-9.5l-7.9-8.2L19.2 8.3z"/></defs><use transform="matrix(.1 0 0 -.1 86.9 177)" xlink:href="#DejaVuSans-32"/></g></g><g id="xtick_3"><use id="line2d_3" x="122.5" y="162.4" stroke="#000" stroke-width=".8" xlink:href="#md7234748fa"/><g id="text_3"><defs><path id="DejaVuSans-34" d="m37.8 64.3-25-39h25zM35.2 73h12.4V25.4H58v-8.2H47.6V0h-9.8v17.2h-33v9.5z"/></defs><use transform="matrix(.1 0 0 -.1 119.3 177)" xlink:href="#DejaVuSans-34"/></g></g><g id="xtick_4"><use id="line2d_4" x="155" y="162.4" stroke="#000" stroke-width=".8" xlink:href="#md7234748fa"/><g id="text_4"><defs><path id="DejaVuSans-36" d="M33 40.4q-6.6 0-10.5-4.6-3.9-4.5-3.9-12.4T22.5 11Q26.4 6.4 33 6.4q6.7 0 10.5 4.6 4 4.5 4 12.4t-4 12.4q-3.8 4.6-10.5 4.6zm19.6 30.9v-9Q48.9 64.1 45 65q-3.8 1-7.5 1-9.8 0-15-6.7-5-6.6-5.8-19.9 2.9 4.3 7.2 6.5 4.4 2.3 9.6 2.3 11 0 17.4-6.7 6.3-6.6 6.3-18.1 0-11.2-6.6-18Q44-1.4 33-1.4q-12.6 0-19.3 9.7Q7 18 7 36.3 7 53.8 15.2 64q8.2 10.3 22 10.3 3.7 0 7.5-.7 3.8-.8 7.9-2.2z"/></defs><use transform="matrix(.1 0 0 -.1 151.8 177)" xlink:href="#DejaVuSans-36"/></g></g><g id="xtick_5"><use id="line2d_5" x="187.5" y="162.4" stroke="#000" stroke-width=".8" xlink:href="#md7234748fa"/><g id="text_5"><defs><path id="DejaVuSans-38" d="M31.8 34.6q-7 0-11-3.7-4.1-3.8-4.1-10.4 0-6.6 4-10.3 4-3.8 11-3.8 7.1 0 11.2 3.8 4 3.8 4 10.3 0 6.6-4 10.4-4 3.7-11.1 3.7zm-9.9 4.2q-6.3 1.6-9.9 6Q8.5 49 8.5 55.2q0 8.8 6.2 13.8 6.3 5.1 17 5.1 11 0 17.2-5Q55 64 55 55.2q0-6.2-3.6-10.6-3.5-4.3-9.8-5.9 7.1-1.6 11.1-6.5 4-4.8 4-11.8 0-10.6-6.5-16.3-6.5-5.6-18.5-5.6T13.2 4.2Q6.8 10 6.8 20.5q0 7 4 11.8 4 4.9 11.1 6.5zm-3.6 15.6q0-5.7 3.5-8.8 3.6-3.2 10-3.2 6.3 0 10 3.2 3.5 3.1 3.5 8.8 0 5.7-3.6 8.8-3.6 3.2-10 3.2-6.3 0-9.9-3.2-3.5-3.1-3.5-8.8z"/></defs><use transform="matrix(.1 0 0 -.1 184.3 177)" xlink:href="#DejaVuSans-38"/></g></g><g id="xtick_6"><use id="line2d_6" x="219.9" y="162.4" stroke="#000" stroke-width=".8" xlink:href="#md7234748fa"/><g id="text_6"><defs><path id="DejaVuSans-31" d="M12.4 8.3h16.1v55.6L11 60.4v9l17.4 3.5h9.9V8.3h16V0H12.5z"/></defs><g transform="matrix(.1 0 0 -.1 213.6 177)"><use xlink:href="#DejaVuSans-31"/><use x="63.6" xlink:href="#DejaVuSans-30"/></g></g></g></g><g id="matplotlib.axis_2"><g id="ytick_1"><g id="line2d_7"><defs><path id="maea755377c" stroke="#000" stroke-width=".8" d="M0 0h-3.5"/></defs><use x="57.6" y="162.4" stroke="#000" stroke-width=".8" xlink:href="#maea755377c"/></g><use id="text_7" transform="matrix(.1 0 0 -.1 44.2 166.2)" xlink:href="#DejaVuSans-30"/></g><g id="ytick_2"><use id="line2d_8" x="57.6" y="132.2" stroke="#000" stroke-width=".8" xlink:href="#maea755377c"/><use id="text_8" transform="matrix(.1 0 0 -.1 44.2 136)" xlink:href="#DejaVuSans-32"/></g><g id="ytick_3"><use id="line2d_9" x="57.6" y="102" stroke="#000" stroke-width=".8" xlink:href="#maea755377c"/><use id="text_9" transform="matrix(.1 0 0 -.1 44.2 105.8)" xlink:href="#DejaVuSans-34"/></g><g id="ytick_4"><use id="line2d_10" x="57.6" y="71.7" stroke="#000" stroke-width=".8" xlink:href="#maea755377c"/><use id="text_10" transform="matrix(.1 0 0 -.1 44.2 75.5)" xlink:href="#DejaVuSans-36"/></g><g id="ytick_5"><use id="line2d_11" x="57.6" y="41.5" stroke="#000" stroke-width=".8" xlink:href="#maea755377c"/><use id="text_11" transform="matrix(.1 0 0 -.1 44.2 45.3)" xlink:href="#DejaVuSans-38"/></g></g><path id="patch_3" fill="none" stroke="#000" stroke-linecap="square" stroke-width=".8" d="M57.6 162.4v-121"/><path id="patch_4" fill="none" stroke="#000" stroke-linecap="square" stroke-width=".8" d="M220 162.4v-121"/><path id="patch_5" fill="none" stroke="#000" stroke-linecap="square" stroke-width=".8" d="M57.6 162.4h162.3"/><path id="patch_6" fill="none" stroke="#000" stroke-linecap="square" stroke-width=".8" d="M57.6 41.5h162.3"/></g><g id="axes_2"><path id="patch_7" fill="#fff" d="M252.4 162.4h162.3v-121H252.4z"/><path d="m270.4 148.1 18-2 4.3-1-4.2-3.8-18-3.2-7.1 7zm36.1-46.5 7.3-8.3-7.3-15.4-2.4-1.9-15.6-7.5-13 7.5 13 16.3.9 1z" clip-path="url(#pd9bb43c220)" id="PathCollection_8" fill="#edf8e9"/><path d="m270.4 156.3 18-1 18.1-4.4 11.9-5.7 6.1-9.5 6.8-7.8-6.8-11.8-3.7-5.5 3.7-5.1 6.7-12.2-6.7-7.2-5.5-10-12.5-10.8-9.6-6.5-8.4-7.9-13-9.4h-23.1v34.8l18 8 8.8 9 9.3 14.9 4.3 2.4-4.3 3.5-18 10-8.8 3.8-9.3 9.3V149zm-7-11.1 7-7 18 3.1 4.3 3.9-4.2 1-18 2zm26-51.9-1-1L275.7 76l12.9-7.5L304 76l2.4 2 7.3 15.3-7.3 8.3zm89.2-26.9 11-7.6 2-17.3h-50.4l1.4 1.3 18 8.8 6.6 7.2z" clip-path="url(#pd9bb43c220)" id="PathCollection_9" fill="#d0edca"/><g id="PathCollection_10" fill="#a7dba0"><path d="M270.4 162.4h25.8l10.3-2.5 18-6.8 8.8-8 9.3-9.7 18 3.8 18-.8 6.1-10.5-3-17.3-3-8.7-18-4.9-5.7-3.7-12.4-9.5-7.3-7.8-10.8-10-8.7-7.1-9.3-8.1-10-9.2h-21l13 9.4 8.4 7.9 9.6 6.5L319 76l5.5 10 6.7 7.3-6.7 12.2-3.7 5 3.7 5.6 6.8 11.8-6.8 7.8-6.1 9.5-11.9 5.7-18 4.3-18 1-18.1-7.2v9.1l12 4.3z" clip-path="url(#pd9bb43c220)"/><path d="m261.7 127.9 8.7-3.7 18-10.1 4.4-3.5-4.3-2.4-9.3-14.9-8.8-9-18-8v9.9l16.4 7.1 1.6 1.6 8.2 15.7-8.2 5.6-18 6.7v14.3zm98.9-62.2 18 10.2 18-11.1 4.4-6 1-17.3h-10.3l-2.2 17.3-10.9 7.6-11.4-7.6-6.6-7.2-18-8.8-1.4-1.3h-14.4l15.8 15.4 3.6 1.9z" clip-path="url(#pd9bb43c220)"/></g><path d="M252.4 158.1v4.3h12zm54.1 4.3h94.7l-4.5-7.4-7.4-9.8 5.9-17.3 1.4-17.3v-.6l2.1-16.7 1-17.3 10.6-17.2V41.5H402l-1 17.3-4.3 6-18 11.1-18-10.2-14.5-7-3.6-1.8-15.8-15.4h-30.3l10 9.2 9.3 8 8.7 7.2L335.3 76l7.3 7.8 12.4 9.5 5.6 3.7 18 4.9 3.1 8.7 3 17.3-6 10.5-18 .8-18.1-3.8-9.3 9.8-8.8 7.9-18 6.8-10.3 2.5zm-36.1-46.2 8.2-5.6-8.2-15.7-1.6-1.6-16.4-7.1v16.4l8 8-8 2.4v9.9z" clip-path="url(#pd9bb43c220)" id="PathCollection_11" fill="#73c476"/><path d="m396.7 155 4.5 7.4h13.5v-.3L403 145l1.8-17.2 5.4-17.3 4.6-10.8V41.5h-4.5l.1 17.3L399.8 76l-1 17.3-2.1 16.7v.6l-1.5 17.3-5.9 17.3zm-136.3-44.4-8-8V113z" clip-path="url(#pd9bb43c220)" id="PathCollection_12" fill="#3da65a"/><path id="PathCollection_13" fill="#18823d" d="M414.7 162v-15.6l-.9-1.2.2-17.3.7-1.9V99.8l-4.6 10.8-5.4 17.3-1.8 17.3z" clip-path="url(#pd9bb43c220)"/><path id="PathCollection_14" fill="#005b25" d="M414.7 146.4V126l-.7 1.9-.2 17.3z" clip-path="url(#pd9bb43c220)"/><g id="matplotlib.axis_3"><g id="xtick_7"><use id="line2d_12" x="252.4" y="162.4" stroke="#000" stroke-width=".8" xlink:href="#md7234748fa"/><use id="text_12" transform="matrix(.1 0 0 -.1 249.2 177)" xlink:href="#DejaVuSans-30"/></g><g id="xtick_8"><use id="line2d_13" x="284.9" y="162.4" stroke="#000" stroke-width=".8" xlink:href="#md7234748fa"/><use id="text_13" transform="matrix(.1 0 0 -.1 281.7 177)" xlink:href="#DejaVuSans-32"/></g><g id="xtick_9"><use id="line2d_14" x="317.3" y="162.4" stroke="#000" stroke-width=".8" xlink:href="#md7234748fa"/><use id="text_14" transform="matrix(.1 0 0 -.1 314.1 177)" xlink:href="#DejaVuSans-34"/></g><g id="xtick_10"><use id="line2d_15" x="349.8" y="162.4" stroke="#000" stroke-width=".8" xlink:href="#md7234748fa"/><use id="text_15" transform="matrix(.1 0 0 -.1 346.6 177)" xlink:href="#DejaVuSans-36"/></g><g id="xtick_11"><use id="line2d_16" x="382.3" y="162.4" stroke="#000" stroke-width=".8" xlink:href="#md7234748fa"/><use id="text_16" transform="matrix(.1 0 0 -.1 379 177)" xlink:href="#DejaVuSans-38"/></g><g id="xtick_12"><use id="line2d_17" x="414.7" y="162.4" stroke="#000" stroke-width=".8" xlink:href="#md7234748fa"/><g id="text_17" transform="matrix(.1 0 0 -.1 408.4 177)"><use xlink:href="#DejaVuSans-31"/><use x="63.6" xlink:href="#DejaVuSans-30"/></g></g></g><g id="matplotlib.axis_4"><g id="ytick_6"><use id="line2d_18" x="252.4" y="162.4" stroke="#000" stroke-width=".8" xlink:href="#maea755377c"/><use id="text_18" transform="matrix(.1 0 0 -.1 239 166.2)" xlink:href="#DejaVuSans-30"/></g><g id="ytick_7"><use id="line2d_19" x="252.4" y="132.2" stroke="#000" stroke-width=".8" xlink:href="#maea755377c"/><use id="text_19" transform="matrix(.1 0 0 -.1 239 136)" xlink:href="#DejaVuSans-32"/></g><g id="ytick_8"><use id="line2d_20" x="252.4" y="102" stroke="#000" stroke-width=".8" xlink:href="#maea755377c"/><use id="text_20" transform="matrix(.1 0 0 -.1 239 105.8)" xlink:href="#DejaVuSans-34"/></g><g id="ytick_9"><use id="line2d_21" x="252.4" y="71.7" stroke="#000" stroke-width=".8" xlink:href="#maea755377c"/><use id="text_21" transform="matrix(.1 0 0 -.1 239 75.5)" xlink:href="#DejaVuSans-36"/></g><g id="ytick_10"><use id="line2d_22" x="252.4" y="41.5" stroke="#000" stroke-width=".8" xlink:href="#maea755377c"/><use id="text_22" transform="matrix(.1 0 0 -.1 239 45.3)" xlink:href="#DejaVuSans-38"/></g></g><path id="patch_8" fill="none" stroke="#000" stroke-linecap="square" stroke-width=".8" d="M252.4 162.4v-121"/><path id="patch_9" fill="none" stroke="#000" stroke-linecap="square" stroke-width=".8" d="M414.7 162.4v-121"/><path id="patch_10" fill="none" stroke="#000" stroke-linecap="square" stroke-width=".8" d="M252.4 162.4h162.3"/><path id="patch_11" fill="none" stroke="#000" stroke-linecap="square" stroke-width=".8" d="M252.4 41.5h162.3"/></g><g id="axes_3"><path id="patch_12" fill="#fff" d="M57.6 307.6h162.3v-121H57.6z"/><path id="PathCollection_15" fill="#eef8ea" d="m129.7 204.2.5-.3 9-17.3h-14.5l4 17.3z" clip-path="url(#p5cf185351a)"/><path d="M75.6 307.6h1.7l2.6-17.3-4.3-11.8-7.7 11.8-3.6 17.3zM220 226.9v-12.7l-10.6 7zm-108.3-20.4 18 6 12-8.6 6-9.3 7.9-8h-16.4l-9 17.3-.5.3-1-.3-4-17.3H116l-4.3 10.4-1.9 6.9z" clip-path="url(#p5cf185351a)" id="PathCollection_16" fill="#d6efd0"/><path d="m67.9 290.3 7.7-11.8 4.3 11.8-2.6 17.3h14.2L87 290.3 80.8 273l-5.2-5.6-18-2.2v42.4h6.7zm97.9-10.3 18-2 7.7-5-7.6-4.6-18-1.7-12.3 6.3zm-36.1-23.4.5-.9-.5-.3-1.9.3zm72.2-30.9 18 8.7v-7.5l-10.5-5.7 10.5-7V205l-18 11.8-6.5 4.4zm-90.2-11.3 18 6.2 18-10.5 7.4-6.2 10.7-11 3.7-6.3h-13.9l-7.8 8-6.1 9.3-12 8.5-18-5.9-1.9-2.6 2-6.9 4.2-10.4h-7.5l-4.3 17.3z" clip-path="url(#p5cf185351a)" id="PathCollection_17" fill="#b4e1ad"/><path id="PathCollection_18" fill="#8ace88" d="M93.7 307.6H122l-10.3-4.7-16.9-12.6-1.1-2L88 273l5.7-15.9 18 4.6 13.5 11.3 4.5 5.5 18-.6 18.1 11.7 18-2.8 18-10.8 18.1-2v-39.6l-18-8.7-6.5-4.5 6.5-4.4 18-11.8v-6.5l-13.2 5.4-4.8 3.2-18 7.7-5.1 6.4 5 3.2 18 11.2 7 2.9 8.3 17.2-15.2 10.4-18-6.1-18-1.8-12.5-2.5 2.2-17.2-3.5-17.3 13.7-10.8 8.6-6.5 4.4-17.3h-9.3l-3.7 6.3-10.7 11-7.3 6.2-18 10.5-18-6.2-7.6-10.5 4.3-17.3h-6.4L98.6 204l12.1 17.3 1 1.8 18 11 9 4.5-9 4-18 6.5-18 6-2.2.7-15.9 4-18-3.5v9l18 2.2 5.2 5.6 6.3 17.3 4.4 17.3zm59.9-34.6 12.2-6.3 18 1.7 7.7 4.6-7.6 5-18 2zm-25.8-17.3 2-.3.4.3-.5.9z" clip-path="url(#p5cf185351a)"/><path d="m111.7 303 10.3 4.6h12.2l-4.5-14.8-18 1.7-5.5-4.2-7.3-17.3 12.8-3.7 4.5 3.7 13.5 16.2 18-3.8 7.6 4.9 10.5 7.8 18-2.2 13-5.6 5-2.8 18.1 1.6v-15l-18 1.9-18 10.8-18 2.8-18.1-11.7-18 .6-4.6-5.5-13.5-11.3-18-4.6-5.7 16 5.7 15.2 1.1 2zm-36.1-43.3 16-4 2-.7 18.1-6 18-6.5 9-4-9-4.4-18-11.1-1-1.8-12.1-17.3 3.5-17.3h-6.4l-2 12.5-1.2 4.8 1.2 1.3 10.3 16 7.7 14.3 4.7 3-4.7 2-18 4.2-18-2-8.2-4.2-9.9-4.1v21.8zm90.2-1.5 18 1.8 18 6 15.3-10.3-8.3-17.2-7-2.9-18-11.2-5-3.2 5-6.4 18-7.7 5-3.2 13.1-5.4v-6.2l-18 6.6-14.1-12.3h-9l-4.4 17.3-8.6 6.5-13.7 10.8 3.5 17.3-2.2 17.2z" clip-path="url(#p5cf185351a)" id="PathCollection_19" fill="#5ab769"/><path d="m111.7 294.5 18-1.7 4.5 14.8h7.7l5.9-11.9 18 11 18-1.6 6 2.5H220V289l-18-1.6-5.1 2.8-13 5.6-18 2.2-10.5-7.8-7.5-4.9-18 3.8-13.6-16.2-4.5-3.7L99 273l7.3 17.3zm-36.1-51.8 18 2 18.1-4.2 4.7-2-4.7-3-7.7-14.3-10.3-16-1.2-1.3 1.2-4.8 2-12.5H78.3l4.9 17.3 10.5 11.6 3.6 5.7-3.6 10-18-3.9-10-6.1-8.1-4.3v17.5l9.9 4zM201.9 199l18-6.7v-5.7h-1.8l-16.2 5-5.7-5h-8.4z" clip-path="url(#p5cf185351a)" id="PathCollection_20" fill="#319a50"/><path d="M147.8 307.6h42l-6-2.5-18 1.5-18-10.9-6 11.9zm-72.2-80.3 18 4 3.7-10.1-3.6-5.7L83.2 204l-4.9-17.3H57.6v14l6.8 3.3-6.8 1.4V217l8 4.3zm126.3-35.7 16.2-5h-21.9z" clip-path="url(#p5cf185351a)" id="PathCollection_21" fill="#117b38"/><path id="PathCollection_22" fill="#005723" d="m64.4 203.9-6.8-3.3v4.7z" clip-path="url(#p5cf185351a)"/><g id="matplotlib.axis_5"><g id="xtick_13"><use id="line2d_23" x="57.6" y="307.6" stroke="#000" stroke-width=".8" xlink:href="#md7234748fa"/><use id="text_23" transform="matrix(.1 0 0 -.1 54.4 322.2)" xlink:href="#DejaVuSans-30"/></g><g id="xtick_14"><use id="line2d_24" x="90.1" y="307.6" stroke="#000" stroke-width=".8" xlink:href="#md7234748fa"/><use id="text_24" transform="matrix(.1 0 0 -.1 86.9 322.2)" xlink:href="#DejaVuSans-32"/></g><g id="xtick_15"><use id="line2d_25" x="122.5" y="307.6" stroke="#000" stroke-width=".8" xlink:href="#md7234748fa"/><use id="text_25" transform="matrix(.1 0 0 -.1 119.3 322.2)" xlink:href="#DejaVuSans-34"/></g><g id="xtick_16"><use id="line2d_26" x="155" y="307.6" stroke="#000" stroke-width=".8" xlink:href="#md7234748fa"/><use id="text_26" transform="matrix(.1 0 0 -.1 151.8 322.2)" xlink:href="#DejaVuSans-36"/></g><g id="xtick_17"><use id="line2d_27" x="187.5" y="307.6" stroke="#000" stroke-width=".8" xlink:href="#md7234748fa"/><use id="text_27" transform="matrix(.1 0 0 -.1 184.3 322.2)" xlink:href="#DejaVuSans-38"/></g><g id="xtick_18"><use id="line2d_28" x="219.9" y="307.6" stroke="#000" stroke-width=".8" xlink:href="#md7234748fa"/><g id="text_28" transform="matrix(.1 0 0 -.1 213.6 322.2)"><use xlink:href="#DejaVuSans-31"/><use x="63.6" xlink:href="#DejaVuSans-30"/></g></g></g><g id="matplotlib.axis_6"><g id="ytick_11"><use id="line2d_29" x="57.6" y="307.6" stroke="#000" stroke-width=".8" xlink:href="#maea755377c"/><use id="text_29" transform="matrix(.1 0 0 -.1 44.2 311.4)" xlink:href="#DejaVuSans-30"/></g><g id="ytick_12"><use id="line2d_30" x="57.6" y="277.3" stroke="#000" stroke-width=".8" xlink:href="#maea755377c"/><use id="text_30" transform="matrix(.1 0 0 -.1 44.2 281.1)" xlink:href="#DejaVuSans-32"/></g><g id="ytick_13"><use id="line2d_31" x="57.6" y="247.1" stroke="#000" stroke-width=".8" xlink:href="#maea755377c"/><use id="text_31" transform="matrix(.1 0 0 -.1 44.2 250.9)" xlink:href="#DejaVuSans-34"/></g><g id="ytick_14"><use id="line2d_32" x="57.6" y="216.9" stroke="#000" stroke-width=".8" xlink:href="#maea755377c"/><use id="text_32" transform="matrix(.1 0 0 -.1 44.2 220.7)" xlink:href="#DejaVuSans-36"/></g><g id="ytick_15"><use id="line2d_33" x="57.6" y="186.6" stroke="#000" stroke-width=".8" xlink:href="#maea755377c"/><use id="text_33" transform="matrix(.1 0 0 -.1 44.2 190.4)" xlink:href="#DejaVuSans-38"/></g></g><path id="patch_13" fill="none" stroke="#000" stroke-linecap="square" stroke-width=".8" d="M57.6 307.6v-121"/><path id="patch_14" fill="none" stroke="#000" stroke-linecap="square" stroke-width=".8" d="M220 307.6v-121"/><path id="patch_15" fill="none" stroke="#000" stroke-linecap="square" stroke-width=".8" d="M57.6 307.6h162.3"/><path id="patch_16" fill="none" stroke="#000" stroke-linecap="square" stroke-width=".8" d="M57.6 186.6h162.3"/></g><g id="axes_4"><path id="patch_17" fill="#fff" d="M252.4 307.6h162.3v-121H252.4z"/><path d="m288.5 291 .2-.7-.2-.2-.5.2zm18-46 10.2-6.5-10.2-3.8-13.8 3.8z" clip-path="url(#p53dd9c3459)" id="PathCollection_23" fill="#eef8ea"/><path d="M270.4 307.6h22l6-17.3-10-9.2-18 7.6-1 1.6-4.6 17.3zm17.6-17.3.5-.2.2.2-.2.7zm18.5-32.3 2.6-2.3 15.4-10.7 9.3-6.5-9.3-16.8-18 5.6-18 .9-11.7-7-6.4-4-9.2 4-8.8 6.6v14.4l18 4.7 18 5.3 10.1 3.5zm-13.8-19.5 13.8-3.8 10.2 3.8-10.2 6.5z" clip-path="url(#p53dd9c3459)" id="PathCollection_24" fill="#d6efd0"/><path d="m269.3 290.3 1.1-1.6 18-7.6 10 9.2-6 17.3h7.8l6.3-14.5 1.1-2.8-1.1-8.4-11.1-8.9 11.1-2.1 17.8-15.2.2-.1 18-11 9.6 11.1 8.5 6.4 18 6.5 14-12.9-12-17.2-2-1.9-18-3.2-10.3-12.2-7.7-5.9-18-5.4-18.1 8.7-18-4.4-18-9.7-18.1 6.7v16.6l8.8-6.6 9.2-4 6.4 4 11.7 7 18-.9 18-5.6 9.3 16.8-9.3 6.5-15.4 10.7-2.6 2.3-8-2.3-10-3.5-18-5.3-18.1-4.7v7.5l13.5 6 4.5 4.2 16.1 13.1-16 7.3-7 10-5.6 17.3h6.9zm145.4-6.2v-19.5l-17 8.4z" clip-path="url(#p53dd9c3459)" id="PathCollection_25" fill="#b4e1ad"/><g id="PathCollection_26" fill="#8ace88"><path d="m263.4 290.3 7-10 16.1-7.3-16-13.1-4.6-4.2-13.5-6v7.7L269 273l-11.6 17.3-5.1 14.1v3.2h5.5z" clip-path="url(#p53dd9c3459)"/><path d="M306.5 307.6h1.6l6.6-17.3 5-17.3 4.8-4 18-10.8 18.1 13.4 3.2 1.4 14.8 6 18 6 8 5.3 10.1 3.8v-10l-17-11 17-8.5V255l-18-7.7-7-8.7-11-10.5-14.7-6.8-3.4-3.2-18-12.2-5.2-1.9-7.3-17.3h-20.4l-2.1 17.3-1.1.4-1.4-.4-16.6-3-18-2.8-18.1-1.7v14.8l18-6.7 18 9.7 18.1 4.4 18-8.7 18 5.4 7.8 5.9 10.3 12.2 18 3.2 2 1.9 12 17.2-14 13-18-6.6-8.5-6.4-9.5-11-18 10.9-.3.1-17.8 15.2-11.1 2.1 11.1 9 1.1 8.3-1.1 2.8-6.3 14.5zm72.1-114.9 14.7-6h-19z" clip-path="url(#p53dd9c3459)"/></g><path d="M257.5 290.3 269 273l-16.7-15.6v8.5l7.7 7.1-7.7 14.9v16.5zm64.4 0 2.6-6 10.7-11.3 7.4-4.8 6.5 4.8 11.5 6 18 8.4 6.7 2.9 11.4 7.7 18 3.2v-7.1l-10-3.8-8-5.3-18-6-15-6-3-1.4-18.1-13.4-18 10.8-4.8 4-5 17.3-6.7 17.3h8zm74.8-43.1 18 7.7v-7.7l-14.8-8.7-3.2-6-12.4-11.3 7.3-17.3 5-2 14 2 4.1 1v-14.2l-.2-4h-21.2l-14.7 6-4.3-6h-11.9l-1.8 7.9-18-6.7-.8-1.3h-11.7l7.3 17.3 5.2 1.9 18 12.2 3.4 3.2 14.6 6.8 11.1 10.5zm-90.2-42.9 1.1-.4 2.1-17.3H297l-8.4 6.3-18-1-13-5.3h-5.1v9.8l18 1.7 18 2.8 16.7 3z" clip-path="url(#p53dd9c3459)" id="PathCollection_27" fill="#5ab769"/><path d="m324.5 306.7 5.9-16.4 12.2-12.4 18 8 8.8 4.4-8.8 12.3-4.8 5h58.9v-6.4l-18-3.2-11.4-7.7-6.7-2.9-18-8.5-11.5-5.9-6.5-4.8-7.4 4.8-10.7 11.3-2.6 6-5.7 17.3h8zM260 273l-7.6-7.1v22zm154.7-25.8v-7.7l-1.7-1 1.7-4.5v-29l-4.2-1-13.8-2-5 2-7.4 17.3 12.4 11.3 3.2 6zM270.4 192l18 .9 8.5-6.3h-39.4zm72.2-4.1 18 6.7 1.8-8h-20.6zm72.1 2.8v-4h-.2z" clip-path="url(#p53dd9c3459)" id="PathCollection_28" fill="#319a50"/><path d="M324.5 307.6h31.3l4.8-5 8.8-12.3-8.8-4.4-18-8-12.2 12.4-5.9 16.4-.2.9zm15.2-17.3 2.9-3 8.3 3-8.3 9zm75-50.8V234l-1.7 4.5z" clip-path="url(#p53dd9c3459)" id="PathCollection_29" fill="#117b38"/><path id="PathCollection_30" fill="#005723" d="m342.6 299.3 8.3-9-8.3-3-3 3z" clip-path="url(#p53dd9c3459)"/><g id="matplotlib.axis_7"><g id="xtick_19"><use id="line2d_34" x="252.4" y="307.6" stroke="#000" stroke-width=".8" xlink:href="#md7234748fa"/><use id="text_34" transform="matrix(.1 0 0 -.1 249.2 322.2)" xlink:href="#DejaVuSans-30"/></g><g id="xtick_20"><use id="line2d_35" x="284.9" y="307.6" stroke="#000" stroke-width=".8" xlink:href="#md7234748fa"/><use id="text_35" transform="matrix(.1 0 0 -.1 281.7 322.2)" xlink:href="#DejaVuSans-32"/></g><g id="xtick_21"><use id="line2d_36" x="317.3" y="307.6" stroke="#000" stroke-width=".8" xlink:href="#md7234748fa"/><use id="text_36" transform="matrix(.1 0 0 -.1 314.1 322.2)" xlink:href="#DejaVuSans-34"/></g><g id="xtick_22"><use id="line2d_37" x="349.8" y="307.6" stroke="#000" stroke-width=".8" xlink:href="#md7234748fa"/><use id="text_37" transform="matrix(.1 0 0 -.1 346.6 322.2)" xlink:href="#DejaVuSans-36"/></g><g id="xtick_23"><use id="line2d_38" x="382.3" y="307.6" stroke="#000" stroke-width=".8" xlink:href="#md7234748fa"/><use id="text_38" transform="matrix(.1 0 0 -.1 379 322.2)" xlink:href="#DejaVuSans-38"/></g><g id="xtick_24"><use id="line2d_39" x="414.7" y="307.6" stroke="#000" stroke-width=".8" xlink:href="#md7234748fa"/><g id="text_39" transform="matrix(.1 0 0 -.1 408.4 322.2)"><use xlink:href="#DejaVuSans-31"/><use x="63.6" xlink:href="#DejaVuSans-30"/></g></g></g><g id="matplotlib.axis_8"><g id="ytick_16"><use id="line2d_40" x="252.4" y="307.6" stroke="#000" stroke-width=".8" xlink:href="#maea755377c"/><use id="text_40" transform="matrix(.1 0 0 -.1 239 311.4)" xlink:href="#DejaVuSans-30"/></g><g id="ytick_17"><use id="line2d_41" x="252.4" y="277.3" stroke="#000" stroke-width=".8" xlink:href="#maea755377c"/><use id="text_41" transform="matrix(.1 0 0 -.1 239 281.1)" xlink:href="#DejaVuSans-32"/></g><g id="ytick_18"><use id="line2d_42" x="252.4" y="247.1" stroke="#000" stroke-width=".8" xlink:href="#maea755377c"/><use id="text_42" transform="matrix(.1 0 0 -.1 239 250.9)" xlink:href="#DejaVuSans-34"/></g><g id="ytick_19"><use id="line2d_43" x="252.4" y="216.9" stroke="#000" stroke-width=".8" xlink:href="#maea755377c"/><use id="text_43" transform="matrix(.1 0 0 -.1 239 220.7)" xlink:href="#DejaVuSans-36"/></g><g id="ytick_20"><use id="line2d_44" x="252.4" y="186.6" stroke="#000" stroke-width=".8" xlink:href="#maea755377c"/><use id="text_44" transform="matrix(.1 0 0 -.1 239 190.4)" xlink:href="#DejaVuSans-38"/></g></g><path id="patch_18" fill="none" stroke="#000" stroke-linecap="square" stroke-width=".8" d="M252.4 307.6v-121"/><path id="patch_19" fill="none" stroke="#000" stroke-linecap="square" stroke-width=".8" d="M414.7 307.6v-121"/><path id="patch_20" fill="none" stroke="#000" stroke-linecap="square" stroke-width=".8" d="M252.4 307.6h162.3"/><path id="patch_21" fill="none" stroke="#000" stroke-linecap="square" stroke-width=".8" d="M252.4 186.6h162.3"/></g></g><defs><clipPath id="p6fbb2d227f"><path d="M57.6 41.5h162.3v121H57.6z"/></clipPath><clipPath id="pd9bb43c220"><path d="M252.4 41.5h162.3v121H252.4z"/></clipPath><clipPath id="p5cf185351a"><path d="M57.6 186.6h162.3v121H57.6z"/></clipPath><clipPath id="p53dd9c3459"><path d="M252.4 186.6h162.3v121H252.4z"/></clipPath></defs></svg>