<svg xmlns="http://www.w3.org/2000/svg" width="545.3" height="410.7"><defs><clipPath id="a"><path d="M0 7v3073h4090V7z"/></clipPath><clipPath id="b"><path d="M532.5 345h3175v2504.2h-3175z"/></clipPath><clipPath id="c"><path d="M0 7h4090v3073H0z"/></clipPath><clipPath id="d"><path d="M2548.3 2520h1110v279.2h-1110z"/></clipPath><clipPath id="e"><path d="M0 7h4090v3073H0z"/></clipPath><clipPath id="f"><path d="M2548.3 2520h1110v279.2h-1110z"/></clipPath></defs><g clip-path="url(#a)" transform="matrix(.13333 0 0 -.13333 0 410.7)"><path fill="#fff" d="M0 7h4090v3073H0z"/><path fill="#fff" fill-rule="evenodd" d="M532.5 345.8h3174.2v2503.4H532.5z"/><path fill="none" stroke="#fff" stroke-linejoin="round" stroke-miterlimit="10" stroke-width="5" d="M532.5 345.8v2503.4h3174.2V345.8H532.5"/><path fill="none" stroke="#000" stroke-linejoin="round" stroke-miterlimit="10" stroke-width="5" d="M532.5 345.8h3174.2M532.5 345.8v2503.4M532.5 345.8v32.5"/><text style="-inkscape-font-specification:Helvetica" font-family="Helvetica" font-size="10" font-weight="400" transform="matrix(10 0 0 -10 505 225)"><tspan x="0" y="0">0</tspan></text><path fill="none" stroke="#000" stroke-linejoin="round" stroke-miterlimit="10" stroke-width="5" d="M977.5 345.8v32.5"/><text style="-inkscape-font-specification:Helvetica" font-family="Helvetica" font-size="10" font-weight="400" transform="matrix(10 0 0 -10 950 225)"><tspan x="0" y="0">2</tspan></text><path fill="none" stroke="#000" stroke-linejoin="round" stroke-miterlimit="10" stroke-width="5" d="M1422.5 345.8v32.5"/><text style="-inkscape-font-specification:Helvetica" font-family="Helvetica" font-size="10" font-weight="400" transform="matrix(10 0 0 -10 1395 225)"><tspan x="0" y="0">4</tspan></text><path fill="none" stroke="#000" stroke-linejoin="round" stroke-miterlimit="10" stroke-width="5" d="M1867.5 345.8v32.5"/><text style="-inkscape-font-specification:Helvetica" font-family="Helvetica" font-size="10" font-weight="400" transform="matrix(10 0 0 -10 1840 225)"><tspan x="0" y="0">6</tspan></text><path fill="none" stroke="#000" stroke-linejoin="round" stroke-miterlimit="10" stroke-width="5" d="M2312.5 345.8v32.5"/><text style="-inkscape-font-specification:Helvetica" font-family="Helvetica" font-size="10" font-weight="400" transform="matrix(10 0 0 -10 2285 225)"><tspan x="0" y="0">8</tspan></text><path fill="none" stroke="#000" stroke-linejoin="round" stroke-miterlimit="10" stroke-width="5" d="M2757.5 345.8v32.5"/><text style="-inkscape-font-specification:Helvetica" font-family="Helvetica" font-size="10" font-weight="400" transform="matrix(10 0 0 -10 2702.5 225)"><tspan x="0 5.56" y="0">10</tspan></text><path fill="none" stroke="#000" stroke-linejoin="round" stroke-miterlimit="10" stroke-width="5" d="M3202.5 345.8v32.5"/><text style="-inkscape-font-specification:Helvetica" font-family="Helvetica" font-size="10" font-weight="400" transform="matrix(10 0 0 -10 3147.5 225)"><tspan x="0 5.56" y="0">12</tspan></text><path fill="none" stroke="#000" stroke-linejoin="round" stroke-miterlimit="10" stroke-width="5" d="M3647.5 345.8v32.5"/><text style="-inkscape-font-specification:Helvetica" font-family="Helvetica" font-size="10" font-weight="400" transform="matrix(10 0 0 -10 3592.5 225)"><tspan x="0 5.56" y="0">14</tspan></text><path fill="none" stroke="#000" stroke-linejoin="round" stroke-miterlimit="10" stroke-width="5" d="M532.5 345.8h31.7"/><text style="-inkscape-font-specification:Helvetica" font-family="Helvetica" font-size="10" font-weight="400" transform="matrix(10 0 0 -10 448.3 309.2)"><tspan x="0" y="0">0</tspan></text><path fill="none" stroke="#000" stroke-linejoin="round" stroke-miterlimit="10" stroke-width="5" d="M532.5 624.2h31.7"/><text style="-inkscape-font-specification:Helvetica" font-family="Helvetica" font-size="10" font-weight="400" transform="matrix(10 0 0 -10 365 587.5)"><tspan x="0 5.56 8.34" y="0">0.5</tspan></text><path fill="none" stroke="#000" stroke-linejoin="round" stroke-miterlimit="10" stroke-width="5" d="M532.5 902.5h31.7"/><text style="-inkscape-font-specification:Helvetica" font-family="Helvetica" font-size="10" font-weight="400" transform="matrix(10 0 0 -10 448.3 865.8)"><tspan x="0" y="0">1</tspan></text><path fill="none" stroke="#000" stroke-linejoin="round" stroke-miterlimit="10" stroke-width="5" d="M532.5 1180.8h31.7"/><text style="-inkscape-font-specification:Helvetica" font-family="Helvetica" font-size="10" font-weight="400" transform="matrix(10 0 0 -10 365 1144.2)"><tspan x="0 5.56 8.34" y="0">1.5</tspan></text><path fill="none" stroke="#000" stroke-linejoin="round" stroke-miterlimit="10" stroke-width="5" d="M532.5 1459.2h31.7"/><text style="-inkscape-font-specification:Helvetica" font-family="Helvetica" font-size="10" font-weight="400" transform="matrix(10 0 0 -10 448.3 1422.5)"><tspan x="0" y="0">2</tspan></text><path fill="none" stroke="#000" stroke-linejoin="round" stroke-miterlimit="10" stroke-width="5" d="M532.5 1736.7h31.7"/><text style="-inkscape-font-specification:Helvetica" font-family="Helvetica" font-size="10" font-weight="400" transform="matrix(10 0 0 -10 365 1700)"><tspan x="0 5.56 8.34" y="0">2.5</tspan></text><path fill="none" stroke="#000" stroke-linejoin="round" stroke-miterlimit="10" stroke-width="5" d="M532.5 2015h31.7"/><text style="-inkscape-font-specification:Helvetica" font-family="Helvetica" font-size="10" font-weight="400" transform="matrix(10 0 0 -10 448.3 1978.3)"><tspan x="0" y="0">3</tspan></text><path fill="none" stroke="#000" stroke-linejoin="round" stroke-miterlimit="10" stroke-width="5" d="M532.5 2293.3h31.7"/><text style="-inkscape-font-specification:Helvetica" font-family="Helvetica" font-size="10" font-weight="400" transform="matrix(10 0 0 -10 365 2256.7)"><tspan x="0 5.56 8.34" y="0">3.5</tspan></text><path fill="none" stroke="#000" stroke-linejoin="round" stroke-miterlimit="10" stroke-width="5" d="M532.5 2571.7h31.7"/><text style="-inkscape-font-specification:Helvetica" font-family="Helvetica" font-size="10" font-weight="400" transform="matrix(10 0 0 -10 448.3 2535)"><tspan x="0" y="0">4</tspan></text><path fill="none" stroke="#000" stroke-linejoin="round" stroke-miterlimit="10" stroke-width="5" d="M532.5 2849.2h31.7"/><text style="-inkscape-font-specification:Helvetica" font-family="Helvetica" font-size="10" font-weight="400" transform="matrix(10 0 0 -10 365 2812.5)"><tspan x="0 5.56 8.34" y="0">4.5</tspan></text></g><g fill="none" stroke-linejoin="round" stroke-miterlimit="10" stroke-width="20" clip-path="url(#b)" transform="matrix(.13333 0 0 -.13333 0 410.7)"><path stroke="#00f" d="M532.5 1922.5h396.7l47.5-5 63.3-20.8 63.3-37.5 63.4-55 63.3-71.7 64.2-88.3 31.6-50 31.7-52.5 63.3-105.9 63.4-106.6 63.3-106.7 64.2-106.7 63.3-108.3 47.5-80.8 15.8-26.7 63.4-100 63.3-89.2 63.3-77.5 64.2-66.6 63.3-55 63.4-45 63.3-35 63.3-29.2 64.2-23.3 63.3-17.5 63.4-10.9 63.3-4.1H3706.7"/><path stroke="red" stroke-dasharray="60" d="M532.5 2683.3l63.3-10 63.4-31.6 63.3-51.7 63.3-73.3 63.4-93.4 64.1-114.1 15.9-32.5 47.5-97.5 63.3-131.7 63.3-131.7 63.4-133.3 63.3-134.2 64.2-135.8 31.6-67.5 31.7-66.7 63.3-125.8 63.4-116.7 63.3-105.8 64.2-95.8 63.3-85.9 47.5-57.5 15.8-18.3 63.4-66.7 63.3-60 63.3-50.8 64.2-43.3 63.3-35.9 63.4-27.5 63.3-22.5 63.3-20 64.2-17.5 63.3-15.8 63.4-13.3 63.3-11.7 15.8-2.5 47.5-6.7 63.4-7.5 64.1-6.6 63.4-5.9 63.3-3.3 63.3-3.3 31.7-.9 31.7-.8 64.1-.8 63.4-.9 63.3-.8 63.3-.8h508.4"/></g><g clip-path="url(#c)" transform="matrix(.13333 0 0 -.13333 0 410.7)"><g font-family="Helvetica" font-size="10" font-weight="400"><text style="-inkscape-font-specification:Helvetica" transform="matrix(10 0 0 -10 1932.5 105.8)"><tspan x="0 5.56 7.78 12.78 15.56 21.12 26.68 31.68" y="0">distance</tspan></text><text style="-inkscape-font-specification:Helvetica" transform="matrix(0 10 10 0 296.7 1408.3)"><tspan x="0 5 10.56 13.89 16.11 21.67 27.23 32.23" y="0">variance</tspan></text><text style="-inkscape-font-specification:Helvetica" transform="matrix(10 0 0 -10 1282.5 2928.3)"><tspan x="0 2.78 7.78 13.34 16.12 19.45 25.01 30.57 32.79 37.79 40.57 45.57 51.13 56.69 59.47 61.69 67.25 69.47 72.25 77.25 82.81 86.14 89.47 95.03 97.25 102.81 105.59 107.81 113.37 118.93 121.71 127.27 132.27 135.05 137.27 145.6 151.16 153.94 156.16 161.72" y="0">Isotropic spatial correlation estimation</tspan></text></g><path fill="#fff" fill-rule="evenodd" d="M2548.3 2520.8h1109.2v278.4H2548.3z"/><path fill="none" stroke="#fff" stroke-linejoin="round" stroke-miterlimit="10" stroke-width="5" d="M2548.3 2520.8v278.4h1109.2v-278.4H2548.3"/><path fill="none" stroke="#000" stroke-linejoin="round" stroke-miterlimit="10" stroke-width="5" d="M2548.3 2520.8h1109.2M2548.3 2799.2h1109.2M2548.3 2520.8v278.4M3657.5 2520.8v278.4M2548.3 2520.8h1109.2M2548.3 2520.8v278.4M2548.3 2520.8h1109.2M2548.3 2799.2h1109.2M2548.3 2520.8v278.4M3657.5 2520.8v278.4"/><text style="-inkscape-font-specification:Helvetica" font-family="Helvetica" font-size="10" font-weight="400" transform="matrix(10 0 0 -10 2928.3 2687.5)"><tspan x="0 5.56 11.12 16.68 21.68 24.46 27.24 32.24 37.8 43.36 48.92 52.25 57.81" y="0">Least squares</tspan></text></g><g clip-path="url(#d)" transform="matrix(.13333 0 0 -.13333 0 410.7)"><path fill="none" stroke="#00f" stroke-linejoin="round" stroke-miterlimit="10" stroke-width="20" d="M2606.7 2723.3h291.6"/></g><g clip-path="url(#e)" transform="matrix(.13333 0 0 -.13333 0 410.7)"><text style="-inkscape-font-specification:Helvetica" font-family="Helvetica" font-size="10" font-weight="400" transform="matrix(10 0 0 -10 2928.3 2561.7)"><tspan x="0 8.33 13.89 18.89 21.67 24.45 30.01 32.23 37.23 42.79 45.01 47.23 52.79 58.35 63.91" y="0">Max. Likelihood</tspan></text></g><g clip-path="url(#f)" transform="matrix(.13333 0 0 -.13333 0 410.7)"><path fill="none" stroke="red" stroke-dasharray="60" stroke-linejoin="round" stroke-miterlimit="10" stroke-width="20" d="M2606.7 2597.5h291.6"/></g></svg>