<svg viewBox="0 0 2187 2048" xmlns="http://www.w3.org/2000/svg">
  <polygon points=" 1701,1280 1944,1280 1944,128 972,128 972,256 324,256 324,384 81,384 81,1152 1053,1152 1053,1408 1215,1408 1215,1792 1539,1792 1539,1664 1701,1664 "
  fill="#D088C0" stroke="black" opacity="0.3"/>
  <polygon points=" 324,384 81,384 81,1152 243,1152 243,1536 1053,1536 1053,1408 1215,1408 1215,1792 1539,1792 1539,1664 1701,1664 1701,1280 1944,1280 1944,128 1458,128 1458,512 972,512 972,256 810,256 810,640 729,640 729,1024 486,1024 486,768 324,768 "
  fill="#88C0D0" stroke="black" opacity="0.5"/>
  <circle cx="81" cy="1152" r="10" />
  <circle cx="243" cy="1536" r="10" />
  <circle cx="1053" cy="1408" r="10" />
  <circle cx="1215" cy="1792" r="10" />
  <circle cx="1539" cy="1664" r="10" />
  <circle cx="1701" cy="1280" r="10" />
  <circle cx="1944" cy="128" r="10" />
  <circle cx="1458" cy="512" r="10" />
  <circle cx="972" cy="256" r="10" />
  <circle cx="810" cy="640" r="10" />
  <circle cx="729" cy="1024" r="10" />
  <circle cx="486" cy="768" r="10" />
  <circle cx="324" cy="384" r="10" />
</svg>
