<svg viewBox="0 0 2187 2048" xmlns="http://www.w3.org/2000/svg">
  <polygon points=" 351,1824 27,1824 27,1728 162,1728 162,1152 108,1152 108,288 162,288 162,576 189,576 189,1440 837,1440 837,1536 324,1536 324,960 324,960 324,384 837,384 837,1344 432,1344 432,96 486,96 486,768 810,768 810,1056 648,1056 648,672 648,672 648,192 810,192 810,1024 756,1024 756,448 810,448 810,640 837,640 837,1312 1296,1312 1296,1600 972,1600 972,928 972,928 972,256 1296,256 1296,1408 1080,1408 1080,160 1134,160 1134,832 1296,832 1296,1120 1296,1120 1296,544 1296,544 1296,64 1323,64 1323,1696 1458,1696 1458,1216 1458,1216 1458,512 1485,512 1485,1472 1539,1472 1539,1664 1620,1664 1620,800 1620,800 1620,320 1701,320 1701,1280 1728,1280 1728,32 1809,32 1809,896 1809,896 1809,1184 1890,1184 1890,608 1944,608 1944,128 1971,128 1971,1568 2025,1568 2025,1088 2052,1088 2052,416 2106,416 2106,704 1647,704 1647,1856 1647,1856 1647,1952 1215,1952 1215,1792 999,1792 999,1984 567,1984 567,1920 351,1920 "
  fill="#88C0D0" stroke="black" opacity="0.5"/>
  <circle cx="27" cy="1728" r="10" />
  <circle cx="162" cy="1152" r="10" />
  <circle cx="108" cy="288" r="10" />
  <circle cx="162" cy="576" r="10" />
  <circle cx="189" cy="1440" r="10" />
  <circle cx="837" cy="1536" r="10" />
  <circle cx="324" cy="960" r="10" />
  <circle cx="324" cy="384" r="10" />
  <circle cx="837" cy="1344" r="10" />
  <circle cx="432" cy="96" r="10" />
  <circle cx="486" cy="768" r="10" />
  <circle cx="810" cy="1056" r="10" />
  <circle cx="648" cy="672" r="10" />
  <circle cx="648" cy="192" r="10" />
  <circle cx="810" cy="1024" r="10" />
  <circle cx="756" cy="448" r="10" />
  <circle cx="810" cy="640" r="10" />
  <circle cx="837" cy="1312" r="10" />
  <circle cx="1296" cy="1600" r="10" />
  <circle cx="972" cy="928" r="10" />
  <circle cx="972" cy="256" r="10" />
  <circle cx="1296" cy="1408" r="10" />
  <circle cx="1080" cy="160" r="10" />
  <circle cx="1134" cy="832" r="10" />
  <circle cx="1296" cy="1120" r="10" />
  <circle cx="1296" cy="544" r="10" />
  <circle cx="1296" cy="64" r="10" />
  <circle cx="1323" cy="1696" r="10" />
  <circle cx="1458" cy="1216" r="10" />
  <circle cx="1458" cy="512" r="10" />
  <circle cx="1485" cy="1472" r="10" />
  <circle cx="1539" cy="1664" r="10" />
  <circle cx="1620" cy="800" r="10" />
  <circle cx="1620" cy="320" r="10" />
  <circle cx="1701" cy="1280" r="10" />
  <circle cx="1728" cy="32" r="10" />
  <circle cx="1809" cy="896" r="10" />
  <circle cx="1809" cy="1184" r="10" />
  <circle cx="1890" cy="608" r="10" />
  <circle cx="1944" cy="128" r="10" />
  <circle cx="1971" cy="1568" r="10" />
  <circle cx="2025" cy="1088" r="10" />
  <circle cx="2052" cy="416" r="10" />
  <circle cx="2106" cy="704" r="10" />
  <circle cx="1647" cy="1856" r="10" />
  <circle cx="1647" cy="1952" r="10" />
  <circle cx="1215" cy="1792" r="10" />
  <circle cx="999" cy="1984" r="10" />
  <circle cx="567" cy="1920" r="10" />
  <circle cx="351" cy="1824" r="10" />
  <polygon points=" 1701,1280 1728,1280 1728,32 1944,32 1944,128 2052,128 2052,416 2106,416 2106,704 1215,704 1215,1792 999,1792 999,1984 567,1984 567,1920 351,1920 351,1824 27,1824 27,1728 1323,1728 1323,1696 1539,1696 1539,1664 1701,1664 "
  fill="#D088C0" stroke="black" opacity="0.5"/>
</svg>
