<?xml version="1.0" encoding="UTF-8" standalone="no"?>
<!DOCTYPE svg PUBLIC "-//W3C//DTD SVG 1.1//EN"
 "http://www.w3.org/Graphics/SVG/1.1/DTD/svg11.dtd">
<!-- Generated by graphviz version 2.40.1 (20161225.0304)
 -->
<!-- Title: negCycleFinder::cycle_list Pages: 1 -->
<svg width="426pt" height="39pt"
 viewBox="0.00 0.00 426.00 39.00" xmlns="http://www.w3.org/2000/svg" xmlns:xlink="http://www.w3.org/1999/xlink">
<g id="graph0" class="graph" transform="scale(1 1) rotate(0) translate(4 35)">
<title>negCycleFinder::cycle_list</title>
<polygon fill="#ffffff" stroke="transparent" points="-4,4 -4,-35 422,-35 422,4 -4,4"/>
<!-- Node3 -->
<g id="node1" class="node">
<title>Node3</title>
<polygon fill="#bfbfbf" stroke="#000000" points="0,-6 0,-25 132,-25 132,-6 0,-6"/>
<text text-anchor="middle" x="66" y="-13" font-family="Helvetica,sans-Serif" font-size="10.00" fill="#000000">negCycleFinder::cycle_list</text>
</g>
<!-- Node4 -->
<g id="node2" class="node">
<title>Node4</title>
<g id="a_node2"><a xlink:href="classnegCycleFinder.html#af8c8da98b3d527775e2a67733a286210" target="_top" xlink:title="negCycleFinder::neg\l_cycle_relax">
<polygon fill="#ffffff" stroke="#000000" points="168,-.5 168,-30.5 275,-30.5 275,-.5 168,-.5"/>
<text text-anchor="start" x="176" y="-18.5" font-family="Helvetica,sans-Serif" font-size="10.00" fill="#000000">negCycleFinder::neg</text>
<text text-anchor="middle" x="221.5" y="-7.5" font-family="Helvetica,sans-Serif" font-size="10.00" fill="#000000">_cycle_relax</text>
</a>
</g>
</g>
<!-- Node3&#45;&gt;Node4 -->
<g id="edge1" class="edge">
<title>Node3&#45;&gt;Node4</title>
<path fill="none" stroke="#191970" d="M142.487,-15.5C151.112,-15.5 159.7576,-15.5 167.9993,-15.5"/>
<polygon fill="#191970" stroke="#191970" points="142.3971,-12.0001 132.397,-15.5 142.397,-19.0001 142.3971,-12.0001"/>
</g>
<!-- Node5 -->
<g id="node3" class="node">
<title>Node5</title>
<g id="a_node3"><a xlink:href="classnegCycleFinder.html#ac08064e4418f9f2a1be6a11ffb9c5928" target="_top" xlink:title="negCycleFinder::find\l_neg_cycle">
<polygon fill="#ffffff" stroke="#000000" points="311,-.5 311,-30.5 418,-30.5 418,-.5 311,-.5"/>
<text text-anchor="start" x="319" y="-18.5" font-family="Helvetica,sans-Serif" font-size="10.00" fill="#000000">negCycleFinder::find</text>
<text text-anchor="middle" x="364.5" y="-7.5" font-family="Helvetica,sans-Serif" font-size="10.00" fill="#000000">_neg_cycle</text>
</a>
</g>
</g>
<!-- Node4&#45;&gt;Node5 -->
<g id="edge2" class="edge">
<title>Node4&#45;&gt;Node5</title>
<path fill="none" stroke="#191970" d="M285.3238,-15.5C293.7452,-15.5 302.3103,-15.5 310.5445,-15.5"/>
<polygon fill="#191970" stroke="#191970" points="285.1548,-12.0001 275.1548,-15.5 285.1547,-19.0001 285.1548,-12.0001"/>
</g>
</g>
</svg>
