<?xml version="1.0" encoding="UTF-8" standalone="no"?>
<!DOCTYPE svg PUBLIC "-//W3C//DTD SVG 1.1//EN"
 "http://www.w3.org/Graphics/SVG/1.1/DTD/svg11.dtd">
<!-- Generated by graphviz version 2.40.1 (20161225.0304)
 -->
<!-- Title: xn::grAdaptor&lt; Graph &gt; Pages: 1 -->
<svg width="388pt" height="942pt"
 viewBox="0.00 0.00 387.50 942.00" xmlns="http://www.w3.org/2000/svg" xmlns:xlink="http://www.w3.org/1999/xlink">
<g id="graph0" class="graph" transform="scale(1 1) rotate(0) translate(4 938)">
<title>xn::grAdaptor&lt; Graph &gt;</title>
<polygon fill="#ffffff" stroke="transparent" points="-4,4 -4,-938 383.5,-938 383.5,4 -4,4"/>
<!-- Node6 -->
<g id="node1" class="node">
<title>Node6</title>
<polygon fill="#bfbfbf" stroke="#000000" points="126.5,-.5 126.5,-134.5 245.5,-134.5 245.5,-.5 126.5,-.5"/>
<text text-anchor="middle" x="186" y="-122.5" font-family="Helvetica,sans-Serif" font-size="10.00" fill="#000000">xn::grAdaptor&lt; Graph &gt;</text>
<polyline fill="none" stroke="#000000" points="126.5,-115.5 245.5,-115.5 "/>
<text text-anchor="middle" x="186" y="-103.5" font-family="Helvetica,sans-Serif" font-size="10.00" fill="#000000"> </text>
<polyline fill="none" stroke="#000000" points="126.5,-96.5 245.5,-96.5 "/>
<text text-anchor="start" x="134.5" y="-84.5" font-family="Helvetica,sans-Serif" font-size="10.00" fill="#000000">+ grAdaptor()</text>
<text text-anchor="start" x="134.5" y="-73.5" font-family="Helvetica,sans-Serif" font-size="10.00" fill="#000000">+ grAdaptor()</text>
<text text-anchor="start" x="134.5" y="-62.5" font-family="Helvetica,sans-Serif" font-size="10.00" fill="#000000">+ number_of_nodes()</text>
<text text-anchor="start" x="134.5" y="-51.5" font-family="Helvetica,sans-Serif" font-size="10.00" fill="#000000">+ number_of_edges()</text>
<text text-anchor="start" x="134.5" y="-40.5" font-family="Helvetica,sans-Serif" font-size="10.00" fill="#000000">+ edges()</text>
<text text-anchor="start" x="134.5" y="-29.5" font-family="Helvetica,sans-Serif" font-size="10.00" fill="#000000">+ neighbors()</text>
<text text-anchor="start" x="134.5" y="-18.5" font-family="Helvetica,sans-Serif" font-size="10.00" fill="#000000">and 4 more...</text>
<text text-anchor="start" x="134.5" y="-7.5" font-family="Helvetica,sans-Serif" font-size="10.00" fill="#000000">+ null_vertex()</text>
</g>
<!-- Node7 -->
<g id="node2" class="node">
<title>Node7</title>
<g id="a_node2"><a xlink:href="classxn_1_1VertexView.html" target="_top" xlink:title="{xn::VertexView\&lt; Graph \&gt;\n||+ VertexView()\l+ begin()\l+ end()\l+ cbegin()\l+ cend()\l}">
<polygon fill="#ffffff" stroke="#000000" points="122,-172.5 122,-273.5 250,-273.5 250,-172.5 122,-172.5"/>
<text text-anchor="middle" x="186" y="-261.5" font-family="Helvetica,sans-Serif" font-size="10.00" fill="#000000">xn::VertexView&lt; Graph &gt;</text>
<polyline fill="none" stroke="#000000" points="122,-254.5 250,-254.5 "/>
<text text-anchor="middle" x="186" y="-242.5" font-family="Helvetica,sans-Serif" font-size="10.00" fill="#000000"> </text>
<polyline fill="none" stroke="#000000" points="122,-235.5 250,-235.5 "/>
<text text-anchor="start" x="130" y="-223.5" font-family="Helvetica,sans-Serif" font-size="10.00" fill="#000000">+ VertexView()</text>
<text text-anchor="start" x="130" y="-212.5" font-family="Helvetica,sans-Serif" font-size="10.00" fill="#000000">+ begin()</text>
<text text-anchor="start" x="130" y="-201.5" font-family="Helvetica,sans-Serif" font-size="10.00" fill="#000000">+ end()</text>
<text text-anchor="start" x="130" y="-190.5" font-family="Helvetica,sans-Serif" font-size="10.00" fill="#000000">+ cbegin()</text>
<text text-anchor="start" x="130" y="-179.5" font-family="Helvetica,sans-Serif" font-size="10.00" fill="#000000">+ cend()</text>
</a>
</g>
</g>
<!-- Node7&#45;&gt;Node6 -->
<g id="edge1" class="edge">
<title>Node7&#45;&gt;Node6</title>
<path fill="none" stroke="#191970" d="M186,-161.795C186,-152.8865 186,-143.6741 186,-134.6554"/>
<polygon fill="none" stroke="#191970" points="182.5001,-162.0835 186,-172.0835 189.5001,-162.0835 182.5001,-162.0835"/>
</g>
<!-- Node8 -->
<g id="node3" class="node">
<title>Node8</title>
<g id="a_node3"><a xlink:href="classxn_1_1Graph.html" target="_top" xlink:title="{xn::Graph\&lt; __nodeview\l_t, adjlist_t \&gt;\n|+ _num_of_edges\l|+ Graph()\l+ Graph()\l+ adj()\l+ _nodes_nbrs()\l+ null_vertex()\l+ get_name()\land 18 more...\l+ end_points()\l+ end_points()\l}">
<polygon fill="#ffffff" stroke="#000000" points="126,-311.5 126,-467.5 246,-467.5 246,-311.5 126,-311.5"/>
<text text-anchor="start" x="134" y="-455.5" font-family="Helvetica,sans-Serif" font-size="10.00" fill="#000000">xn::Graph&lt; __nodeview</text>
<text text-anchor="middle" x="186" y="-444.5" font-family="Helvetica,sans-Serif" font-size="10.00" fill="#000000">_t, adjlist_t &gt;</text>
<polyline fill="none" stroke="#000000" points="126,-437.5 246,-437.5 "/>
<text text-anchor="start" x="134" y="-425.5" font-family="Helvetica,sans-Serif" font-size="10.00" fill="#000000">+ _num_of_edges</text>
<polyline fill="none" stroke="#000000" points="126,-418.5 246,-418.5 "/>
<text text-anchor="start" x="134" y="-406.5" font-family="Helvetica,sans-Serif" font-size="10.00" fill="#000000">+ Graph()</text>
<text text-anchor="start" x="134" y="-395.5" font-family="Helvetica,sans-Serif" font-size="10.00" fill="#000000">+ Graph()</text>
<text text-anchor="start" x="134" y="-384.5" font-family="Helvetica,sans-Serif" font-size="10.00" fill="#000000">+ adj()</text>
<text text-anchor="start" x="134" y="-373.5" font-family="Helvetica,sans-Serif" font-size="10.00" fill="#000000">+ _nodes_nbrs()</text>
<text text-anchor="start" x="134" y="-362.5" font-family="Helvetica,sans-Serif" font-size="10.00" fill="#000000">+ null_vertex()</text>
<text text-anchor="start" x="134" y="-351.5" font-family="Helvetica,sans-Serif" font-size="10.00" fill="#000000">+ get_name()</text>
<text text-anchor="start" x="134" y="-340.5" font-family="Helvetica,sans-Serif" font-size="10.00" fill="#000000">and 18 more...</text>
<text text-anchor="start" x="134" y="-329.5" font-family="Helvetica,sans-Serif" font-size="10.00" fill="#000000">+ end_points()</text>
<text text-anchor="start" x="134" y="-318.5" font-family="Helvetica,sans-Serif" font-size="10.00" fill="#000000">+ end_points()</text>
</a>
</g>
</g>
<!-- Node8&#45;&gt;Node7 -->
<g id="edge2" class="edge">
<title>Node8&#45;&gt;Node7</title>
<path fill="none" stroke="#191970" d="M186,-301.0336C186,-291.7445 186,-282.5423 186,-273.8921"/>
<polygon fill="none" stroke="#191970" points="182.5001,-301.1254 186,-311.1254 189.5001,-301.1255 182.5001,-301.1254"/>
</g>
<!-- Node9 -->
<g id="node4" class="node">
<title>Node9</title>
<g id="a_node4"><a xlink:href="structxn_1_1object.html" target="_top" xlink:title="{xn::object\n||}">
<polygon fill="#ffffff" stroke="#000000" points="92.5,-515.5 92.5,-572.5 151.5,-572.5 151.5,-515.5 92.5,-515.5"/>
<text text-anchor="middle" x="122" y="-560.5" font-family="Helvetica,sans-Serif" font-size="10.00" fill="#000000">xn::object</text>
<polyline fill="none" stroke="#000000" points="92.5,-553.5 151.5,-553.5 "/>
<text text-anchor="middle" x="122" y="-541.5" font-family="Helvetica,sans-Serif" font-size="10.00" fill="#000000"> </text>
<polyline fill="none" stroke="#000000" points="92.5,-534.5 151.5,-534.5 "/>
<text text-anchor="middle" x="122" y="-522.5" font-family="Helvetica,sans-Serif" font-size="10.00" fill="#000000"> </text>
</a>
</g>
</g>
<!-- Node9&#45;&gt;Node8 -->
<g id="edge3" class="edge">
<title>Node9&#45;&gt;Node8</title>
<path fill="none" stroke="#191970" d="M137.7754,-505.9171C142.6086,-494.2496 148.1132,-480.9612 153.6323,-467.6376"/>
<polygon fill="none" stroke="#191970" points="134.4815,-504.7236 133.8879,-515.3018 140.9486,-507.4026 134.4815,-504.7236"/>
</g>
<!-- Node10 -->
<g id="node5" class="node">
<title>Node10</title>
<g id="a_node5"><a xlink:href="classpy_1_1dict.html" target="_top" xlink:title="{py::dict\&lt; const char\l *, std::any \&gt;\n||+ dict()\l+ dict()\l+ operator=()\l&#45; dict()\l}">
<polygon fill="#ffffff" stroke="#000000" points="0,-610.5 0,-711.5 104,-711.5 104,-610.5 0,-610.5"/>
<text text-anchor="start" x="8" y="-699.5" font-family="Helvetica,sans-Serif" font-size="10.00" fill="#000000">py::dict&lt; const char</text>
<text text-anchor="middle" x="52" y="-688.5" font-family="Helvetica,sans-Serif" font-size="10.00" fill="#000000"> *, std::any &gt;</text>
<polyline fill="none" stroke="#000000" points="0,-681.5 104,-681.5 "/>
<text text-anchor="middle" x="52" y="-669.5" font-family="Helvetica,sans-Serif" font-size="10.00" fill="#000000"> </text>
<polyline fill="none" stroke="#000000" points="0,-662.5 104,-662.5 "/>
<text text-anchor="start" x="8" y="-650.5" font-family="Helvetica,sans-Serif" font-size="10.00" fill="#000000">+ dict()</text>
<text text-anchor="start" x="8" y="-639.5" font-family="Helvetica,sans-Serif" font-size="10.00" fill="#000000">+ dict()</text>
<text text-anchor="start" x="8" y="-628.5" font-family="Helvetica,sans-Serif" font-size="10.00" fill="#000000">+ operator=()</text>
<text text-anchor="start" x="8" y="-617.5" font-family="Helvetica,sans-Serif" font-size="10.00" fill="#000000">&#45; dict()</text>
</a>
</g>
</g>
<!-- Node10&#45;&gt;Node8 -->
<g id="edge10" class="edge">
<title>Node10&#45;&gt;Node8</title>
<path fill="none" stroke="#404040" d="M40.6961,-610.2766C36.6781,-581.2021 35.9281,-544.7021 49,-515 63.1178,-482.9212 89.9316,-455.4648 116.1208,-434.4859"/>
<polygon fill="none" stroke="#404040" points="116.2296,-434.4017 118.5236,-427.5652 125.7165,-427.0533 123.4225,-433.8898 116.2296,-434.4017"/>
<text text-anchor="middle" x="66" y="-541.5" font-family="Helvetica,sans-Serif" font-size="10.00" fill="#000000"> +graph</text>
</g>
<!-- Node10&#45;&gt;Node9 -->
<g id="edge4" class="edge">
<title>Node10&#45;&gt;Node9</title>
<path fill="none" stroke="#191970" d="M87.5495,-601.5816C93.5415,-591.5664 99.512,-581.587 104.7584,-572.8181"/>
<polygon fill="none" stroke="#191970" points="84.4266,-599.9842 82.2959,-610.3626 90.4336,-603.5781 84.4266,-599.9842"/>
</g>
<!-- Node11 -->
<g id="node6" class="node">
<title>Node11</title>
<g id="a_node6"><a xlink:title="STL class. ">
<polygon fill="#ffffff" stroke="#bfbfbf" points=".5,-749.5 .5,-828.5 103.5,-828.5 103.5,-749.5 .5,-749.5"/>
<text text-anchor="start" x="8.5" y="-816.5" font-family="Helvetica,sans-Serif" font-size="10.00" fill="#000000">std::unordered_map</text>
<text text-anchor="start" x="8.5" y="-805.5" font-family="Helvetica,sans-Serif" font-size="10.00" fill="#000000">&lt; const char *, std</text>
<text text-anchor="middle" x="52" y="-794.5" font-family="Helvetica,sans-Serif" font-size="10.00" fill="#000000">::any &gt;</text>
<polyline fill="none" stroke="#bfbfbf" points=".5,-787.5 103.5,-787.5 "/>
<text text-anchor="middle" x="52" y="-775.5" font-family="Helvetica,sans-Serif" font-size="10.00" fill="#000000"> </text>
<polyline fill="none" stroke="#bfbfbf" points=".5,-768.5 103.5,-768.5 "/>
<text text-anchor="middle" x="52" y="-756.5" font-family="Helvetica,sans-Serif" font-size="10.00" fill="#000000"> </text>
</a>
</g>
</g>
<!-- Node11&#45;&gt;Node10 -->
<g id="edge5" class="edge">
<title>Node11&#45;&gt;Node10</title>
<path fill="none" stroke="#191970" d="M52,-739.1972C52,-730.1496 52,-720.7033 52,-711.6321"/>
<polygon fill="none" stroke="#191970" points="48.5001,-739.2016 52,-749.2016 55.5001,-739.2017 48.5001,-739.2016"/>
</g>
<!-- Node12 -->
<g id="node7" class="node">
<title>Node12</title>
<polygon fill="#ffffff" stroke="#bfbfbf" points="10.5,-876.5 10.5,-933.5 39.5,-933.5 39.5,-876.5 10.5,-876.5"/>
<text text-anchor="middle" x="25" y="-921.5" font-family="Helvetica,sans-Serif" font-size="10.00" fill="#000000">K</text>
<polyline fill="none" stroke="#bfbfbf" points="10.5,-914.5 39.5,-914.5 "/>
<text text-anchor="middle" x="25" y="-902.5" font-family="Helvetica,sans-Serif" font-size="10.00" fill="#000000"> </text>
<polyline fill="none" stroke="#bfbfbf" points="10.5,-895.5 39.5,-895.5 "/>
<text text-anchor="middle" x="25" y="-883.5" font-family="Helvetica,sans-Serif" font-size="10.00" fill="#000000"> </text>
</g>
<!-- Node12&#45;&gt;Node11 -->
<g id="edge6" class="edge">
<title>Node12&#45;&gt;Node11</title>
<path fill="none" stroke="#404040" d="M23.2185,-876.4099C23.23,-866.9519 23.8965,-856.4365 26,-847 26.5132,-844.6978 27.122,-842.3757 27.8067,-840.0531"/>
<polygon fill="none" stroke="#404040" points="27.8689,-839.8721 26.039,-832.897 31.7738,-828.5252 33.6037,-835.5002 27.8689,-839.8721"/>
<text text-anchor="middle" x="41.5" y="-850" font-family="Helvetica,sans-Serif" font-size="10.00" fill="#000000"> +keys</text>
</g>
<!-- Node13 -->
<g id="node8" class="node">
<title>Node13</title>
<polygon fill="#ffffff" stroke="#bfbfbf" points="64.5,-876.5 64.5,-933.5 93.5,-933.5 93.5,-876.5 64.5,-876.5"/>
<text text-anchor="middle" x="79" y="-921.5" font-family="Helvetica,sans-Serif" font-size="10.00" fill="#000000">T</text>
<polyline fill="none" stroke="#bfbfbf" points="64.5,-914.5 93.5,-914.5 "/>
<text text-anchor="middle" x="79" y="-902.5" font-family="Helvetica,sans-Serif" font-size="10.00" fill="#000000"> </text>
<polyline fill="none" stroke="#bfbfbf" points="64.5,-895.5 93.5,-895.5 "/>
<text text-anchor="middle" x="79" y="-883.5" font-family="Helvetica,sans-Serif" font-size="10.00" fill="#000000"> </text>
</g>
<!-- Node13&#45;&gt;Node11 -->
<g id="edge7" class="edge">
<title>Node13&#45;&gt;Node11</title>
<path fill="none" stroke="#404040" d="M72.3258,-876.3258C69.8194,-865.5576 66.8871,-852.9593 64.0421,-840.7364"/>
<polygon fill="none" stroke="#404040" points="63.9657,-840.4079 58.7096,-835.4709 61.2452,-828.7203 66.5013,-833.6573 63.9657,-840.4079"/>
<text text-anchor="middle" x="92.5" y="-850" font-family="Helvetica,sans-Serif" font-size="10.00" fill="#000000"> +elements</text>
</g>
<!-- Node14 -->
<g id="node9" class="node">
<title>Node14</title>
<polygon fill="#ffffff" stroke="#bfbfbf" points="169.5,-515.5 169.5,-572.5 246.5,-572.5 246.5,-515.5 169.5,-515.5"/>
<text text-anchor="middle" x="208" y="-560.5" font-family="Helvetica,sans-Serif" font-size="10.00" fill="#000000">__nodeview_t</text>
<polyline fill="none" stroke="#bfbfbf" points="169.5,-553.5 246.5,-553.5 "/>
<text text-anchor="middle" x="208" y="-541.5" font-family="Helvetica,sans-Serif" font-size="10.00" fill="#000000"> </text>
<polyline fill="none" stroke="#bfbfbf" points="169.5,-534.5 246.5,-534.5 "/>
<text text-anchor="middle" x="208" y="-522.5" font-family="Helvetica,sans-Serif" font-size="10.00" fill="#000000"> </text>
</g>
<!-- Node14&#45;&gt;Node8 -->
<g id="edge8" class="edge">
<title>Node14&#45;&gt;Node8</title>
<path fill="none" stroke="#404040" d="M203.9135,-515.3018C202.4294,-504.879 200.6628,-492.4731 198.8264,-479.5765"/>
<polygon fill="none" stroke="#404040" points="198.8181,-479.5177 194.0122,-474.1416 197.1264,-467.6376 201.9323,-473.0137 198.8181,-479.5177"/>
<text text-anchor="middle" x="219" y="-489" font-family="Helvetica,sans-Serif" font-size="10.00" fill="#000000"> +_node</text>
</g>
<!-- Node15 -->
<g id="node10" class="node">
<title>Node15</title>
<polygon fill="#ffffff" stroke="#bfbfbf" points="264.5,-515.5 264.5,-572.5 379.5,-572.5 379.5,-515.5 264.5,-515.5"/>
<text text-anchor="middle" x="322" y="-560.5" font-family="Helvetica,sans-Serif" font-size="10.00" fill="#000000">std::vector&lt; adjlist_t &gt;</text>
<polyline fill="none" stroke="#bfbfbf" points="264.5,-553.5 379.5,-553.5 "/>
<text text-anchor="start" x="272.5" y="-541.5" font-family="Helvetica,sans-Serif" font-size="10.00" fill="#000000">+ elements</text>
<polyline fill="none" stroke="#bfbfbf" points="264.5,-534.5 379.5,-534.5 "/>
<text text-anchor="middle" x="322" y="-522.5" font-family="Helvetica,sans-Serif" font-size="10.00" fill="#000000"> </text>
</g>
<!-- Node15&#45;&gt;Node8 -->
<g id="edge9" class="edge">
<title>Node15&#45;&gt;Node8</title>
<path fill="none" stroke="#404040" d="M296.7382,-515.3018C284.5711,-501.4797 269.3342,-484.1701 254.0911,-466.8535"/>
<polygon fill="none" stroke="#404040" points="254.0645,-466.8233 247.0976,-464.9625 246.1356,-457.8159 253.1026,-459.6766 254.0645,-466.8233"/>
<text text-anchor="middle" x="292" y="-489" font-family="Helvetica,sans-Serif" font-size="10.00" fill="#000000"> +_adj</text>
</g>
</g>
</svg>
