<?xml version="1.0" encoding="UTF-8" standalone="no"?>
<!DOCTYPE svg PUBLIC "-//W3C//DTD SVG 1.1//EN"
 "http://www.w3.org/Graphics/SVG/1.1/DTD/svg11.dtd">
<!-- Generated by graphviz version 2.40.1 (20161225.0304)
 -->
<!-- Title: xn::DiGraphS&lt; nodeview_t, adjlist_t &gt; Pages: 1 -->
<svg width="293pt" height="814pt"
 viewBox="0.00 0.00 292.50 814.00" xmlns="http://www.w3.org/2000/svg" xmlns:xlink="http://www.w3.org/1999/xlink">
<g id="graph0" class="graph" transform="scale(1 1) rotate(0) translate(4 810)">
<title>xn::DiGraphS&lt; nodeview_t, adjlist_t &gt;</title>
<polygon fill="#ffffff" stroke="transparent" points="-4,4 -4,-810 288.5,-810 288.5,4 -4,4"/>
<!-- Node5 -->
<g id="node1" class="node">
<title>Node5</title>
<polygon fill="#bfbfbf" stroke="#000000" points="59,-.5 59,-134.5 185,-134.5 185,-.5 59,-.5"/>
<text text-anchor="start" x="67" y="-122.5" font-family="Helvetica,sans-Serif" font-size="10.00" fill="#000000">xn::DiGraphS&lt; nodeview</text>
<text text-anchor="middle" x="122" y="-111.5" font-family="Helvetica,sans-Serif" font-size="10.00" fill="#000000">_t, adjlist_t &gt;</text>
<polyline fill="none" stroke="#000000" points="59,-104.5 185,-104.5 "/>
<text text-anchor="start" x="67" y="-92.5" font-family="Helvetica,sans-Serif" font-size="10.00" fill="#000000">+ _succ</text>
<polyline fill="none" stroke="#000000" points="59,-85.5 185,-85.5 "/>
<text text-anchor="start" x="67" y="-73.5" font-family="Helvetica,sans-Serif" font-size="10.00" fill="#000000">+ DiGraphS()</text>
<text text-anchor="start" x="67" y="-62.5" font-family="Helvetica,sans-Serif" font-size="10.00" fill="#000000">+ DiGraphS()</text>
<text text-anchor="start" x="67" y="-51.5" font-family="Helvetica,sans-Serif" font-size="10.00" fill="#000000">+ adj()</text>
<text text-anchor="start" x="67" y="-40.5" font-family="Helvetica,sans-Serif" font-size="10.00" fill="#000000">+ succ()</text>
<text text-anchor="start" x="67" y="-29.5" font-family="Helvetica,sans-Serif" font-size="10.00" fill="#000000">+ add_edge()</text>
<text text-anchor="start" x="67" y="-18.5" font-family="Helvetica,sans-Serif" font-size="10.00" fill="#000000">+ add_edge()</text>
<text text-anchor="start" x="67" y="-7.5" font-family="Helvetica,sans-Serif" font-size="10.00" fill="#000000">and 9 more...</text>
</g>
<!-- Node6 -->
<g id="node2" class="node">
<title>Node6</title>
<g id="a_node2"><a xlink:href="classxn_1_1Graph.html" target="_top" xlink:title="{xn::Graph\&lt; nodeview\l_t, adjlist_t \&gt;\n|+ _num_of_edges\l+ _node\l|+ Graph()\l+ Graph()\l+ adj()\l+ _nodes_nbrs()\l+ null_vertex()\l+ get_name()\land 18 more...\l+ end_points()\l+ end_points()\l}">
<polygon fill="#ffffff" stroke="#000000" points="67,-172.5 67,-339.5 177,-339.5 177,-172.5 67,-172.5"/>
<text text-anchor="start" x="75" y="-327.5" font-family="Helvetica,sans-Serif" font-size="10.00" fill="#000000">xn::Graph&lt; nodeview</text>
<text text-anchor="middle" x="122" y="-316.5" font-family="Helvetica,sans-Serif" font-size="10.00" fill="#000000">_t, adjlist_t &gt;</text>
<polyline fill="none" stroke="#000000" points="67,-309.5 177,-309.5 "/>
<text text-anchor="start" x="75" y="-297.5" font-family="Helvetica,sans-Serif" font-size="10.00" fill="#000000">+ _num_of_edges</text>
<text text-anchor="start" x="75" y="-286.5" font-family="Helvetica,sans-Serif" font-size="10.00" fill="#000000">+ _node</text>
<polyline fill="none" stroke="#000000" points="67,-279.5 177,-279.5 "/>
<text text-anchor="start" x="75" y="-267.5" font-family="Helvetica,sans-Serif" font-size="10.00" fill="#000000">+ Graph()</text>
<text text-anchor="start" x="75" y="-256.5" font-family="Helvetica,sans-Serif" font-size="10.00" fill="#000000">+ Graph()</text>
<text text-anchor="start" x="75" y="-245.5" font-family="Helvetica,sans-Serif" font-size="10.00" fill="#000000">+ adj()</text>
<text text-anchor="start" x="75" y="-234.5" font-family="Helvetica,sans-Serif" font-size="10.00" fill="#000000">+ _nodes_nbrs()</text>
<text text-anchor="start" x="75" y="-223.5" font-family="Helvetica,sans-Serif" font-size="10.00" fill="#000000">+ null_vertex()</text>
<text text-anchor="start" x="75" y="-212.5" font-family="Helvetica,sans-Serif" font-size="10.00" fill="#000000">+ get_name()</text>
<text text-anchor="start" x="75" y="-201.5" font-family="Helvetica,sans-Serif" font-size="10.00" fill="#000000">and 18 more...</text>
<text text-anchor="start" x="75" y="-190.5" font-family="Helvetica,sans-Serif" font-size="10.00" fill="#000000">+ end_points()</text>
<text text-anchor="start" x="75" y="-179.5" font-family="Helvetica,sans-Serif" font-size="10.00" fill="#000000">+ end_points()</text>
</a>
</g>
</g>
<!-- Node6&#45;&gt;Node5 -->
<g id="edge1" class="edge">
<title>Node6&#45;&gt;Node5</title>
<path fill="none" stroke="#191970" d="M122,-162.3366C122,-152.9531 122,-143.5619 122,-134.535"/>
<polygon fill="none" stroke="#191970" points="118.5001,-162.4979 122,-172.498 125.5001,-162.498 118.5001,-162.4979"/>
</g>
<!-- Node7 -->
<g id="node3" class="node">
<title>Node7</title>
<g id="a_node3"><a xlink:href="structxn_1_1object.html" target="_top" xlink:title="{xn::object\n||}">
<polygon fill="#ffffff" stroke="#000000" points="92.5,-387.5 92.5,-444.5 151.5,-444.5 151.5,-387.5 92.5,-387.5"/>
<text text-anchor="middle" x="122" y="-432.5" font-family="Helvetica,sans-Serif" font-size="10.00" fill="#000000">xn::object</text>
<polyline fill="none" stroke="#000000" points="92.5,-425.5 151.5,-425.5 "/>
<text text-anchor="middle" x="122" y="-413.5" font-family="Helvetica,sans-Serif" font-size="10.00" fill="#000000"> </text>
<polyline fill="none" stroke="#000000" points="92.5,-406.5 151.5,-406.5 "/>
<text text-anchor="middle" x="122" y="-394.5" font-family="Helvetica,sans-Serif" font-size="10.00" fill="#000000"> </text>
</a>
</g>
</g>
<!-- Node7&#45;&gt;Node6 -->
<g id="edge2" class="edge">
<title>Node7&#45;&gt;Node6</title>
<path fill="none" stroke="#191970" d="M122,-377.329C122,-365.8435 122,-352.7911 122,-339.6079"/>
<polygon fill="none" stroke="#191970" points="118.5001,-377.3952 122,-387.3952 125.5001,-377.3952 118.5001,-377.3952"/>
</g>
<!-- Node8 -->
<g id="node4" class="node">
<title>Node8</title>
<g id="a_node4"><a xlink:href="classpy_1_1dict.html" target="_top" xlink:title="{py::dict\&lt; const char\l *, std::any \&gt;\n||+ dict()\l+ dict()\l+ operator=()\l&#45; dict()\l}">
<polygon fill="#ffffff" stroke="#000000" points="0,-482.5 0,-583.5 104,-583.5 104,-482.5 0,-482.5"/>
<text text-anchor="start" x="8" y="-571.5" font-family="Helvetica,sans-Serif" font-size="10.00" fill="#000000">py::dict&lt; const char</text>
<text text-anchor="middle" x="52" y="-560.5" font-family="Helvetica,sans-Serif" font-size="10.00" fill="#000000"> *, std::any &gt;</text>
<polyline fill="none" stroke="#000000" points="0,-553.5 104,-553.5 "/>
<text text-anchor="middle" x="52" y="-541.5" font-family="Helvetica,sans-Serif" font-size="10.00" fill="#000000"> </text>
<polyline fill="none" stroke="#000000" points="0,-534.5 104,-534.5 "/>
<text text-anchor="start" x="8" y="-522.5" font-family="Helvetica,sans-Serif" font-size="10.00" fill="#000000">+ dict()</text>
<text text-anchor="start" x="8" y="-511.5" font-family="Helvetica,sans-Serif" font-size="10.00" fill="#000000">+ dict()</text>
<text text-anchor="start" x="8" y="-500.5" font-family="Helvetica,sans-Serif" font-size="10.00" fill="#000000">+ operator=()</text>
<text text-anchor="start" x="8" y="-489.5" font-family="Helvetica,sans-Serif" font-size="10.00" fill="#000000">&#45; dict()</text>
</a>
</g>
</g>
<!-- Node8&#45;&gt;Node6 -->
<g id="edge8" class="edge">
<title>Node8&#45;&gt;Node6</title>
<path fill="none" stroke="#404040" d="M44.2504,-482.2078C41.5683,-453.7691 40.967,-417.9177 49,-387 52.1506,-374.8739 56.6961,-362.6778 62.0008,-350.8665"/>
<polygon fill="none" stroke="#404040" points="62.1642,-350.5211 61.116,-343.3866 67.2986,-339.675 68.3468,-346.8095 62.1642,-350.5211"/>
<text text-anchor="middle" x="66" y="-413.5" font-family="Helvetica,sans-Serif" font-size="10.00" fill="#000000"> +graph</text>
</g>
<!-- Node8&#45;&gt;Node7 -->
<g id="edge3" class="edge">
<title>Node8&#45;&gt;Node7</title>
<path fill="none" stroke="#191970" d="M87.5495,-473.5816C93.5415,-463.5664 99.512,-453.587 104.7584,-444.8181"/>
<polygon fill="none" stroke="#191970" points="84.4266,-471.9842 82.2959,-482.3626 90.4336,-475.5781 84.4266,-471.9842"/>
</g>
<!-- Node9 -->
<g id="node5" class="node">
<title>Node9</title>
<g id="a_node5"><a xlink:title="STL class. ">
<polygon fill="#ffffff" stroke="#bfbfbf" points=".5,-621.5 .5,-700.5 103.5,-700.5 103.5,-621.5 .5,-621.5"/>
<text text-anchor="start" x="8.5" y="-688.5" font-family="Helvetica,sans-Serif" font-size="10.00" fill="#000000">std::unordered_map</text>
<text text-anchor="start" x="8.5" y="-677.5" font-family="Helvetica,sans-Serif" font-size="10.00" fill="#000000">&lt; const char *, std</text>
<text text-anchor="middle" x="52" y="-666.5" font-family="Helvetica,sans-Serif" font-size="10.00" fill="#000000">::any &gt;</text>
<polyline fill="none" stroke="#bfbfbf" points=".5,-659.5 103.5,-659.5 "/>
<text text-anchor="middle" x="52" y="-647.5" font-family="Helvetica,sans-Serif" font-size="10.00" fill="#000000"> </text>
<polyline fill="none" stroke="#bfbfbf" points=".5,-640.5 103.5,-640.5 "/>
<text text-anchor="middle" x="52" y="-628.5" font-family="Helvetica,sans-Serif" font-size="10.00" fill="#000000"> </text>
</a>
</g>
</g>
<!-- Node9&#45;&gt;Node8 -->
<g id="edge4" class="edge">
<title>Node9&#45;&gt;Node8</title>
<path fill="none" stroke="#191970" d="M52,-611.1972C52,-602.1496 52,-592.7033 52,-583.6321"/>
<polygon fill="none" stroke="#191970" points="48.5001,-611.2016 52,-621.2016 55.5001,-611.2017 48.5001,-611.2016"/>
</g>
<!-- Node10 -->
<g id="node6" class="node">
<title>Node10</title>
<polygon fill="#ffffff" stroke="#bfbfbf" points="10.5,-748.5 10.5,-805.5 39.5,-805.5 39.5,-748.5 10.5,-748.5"/>
<text text-anchor="middle" x="25" y="-793.5" font-family="Helvetica,sans-Serif" font-size="10.00" fill="#000000">K</text>
<polyline fill="none" stroke="#bfbfbf" points="10.5,-786.5 39.5,-786.5 "/>
<text text-anchor="middle" x="25" y="-774.5" font-family="Helvetica,sans-Serif" font-size="10.00" fill="#000000"> </text>
<polyline fill="none" stroke="#bfbfbf" points="10.5,-767.5 39.5,-767.5 "/>
<text text-anchor="middle" x="25" y="-755.5" font-family="Helvetica,sans-Serif" font-size="10.00" fill="#000000"> </text>
</g>
<!-- Node10&#45;&gt;Node9 -->
<g id="edge5" class="edge">
<title>Node10&#45;&gt;Node9</title>
<path fill="none" stroke="#404040" d="M23.2185,-748.4099C23.23,-738.9519 23.8965,-728.4365 26,-719 26.5132,-716.6978 27.122,-714.3757 27.8067,-712.0531"/>
<polygon fill="none" stroke="#404040" points="27.8689,-711.8721 26.039,-704.897 31.7738,-700.5252 33.6037,-707.5002 27.8689,-711.8721"/>
<text text-anchor="middle" x="41.5" y="-722" font-family="Helvetica,sans-Serif" font-size="10.00" fill="#000000"> +keys</text>
</g>
<!-- Node11 -->
<g id="node7" class="node">
<title>Node11</title>
<polygon fill="#ffffff" stroke="#bfbfbf" points="64.5,-748.5 64.5,-805.5 93.5,-805.5 93.5,-748.5 64.5,-748.5"/>
<text text-anchor="middle" x="79" y="-793.5" font-family="Helvetica,sans-Serif" font-size="10.00" fill="#000000">T</text>
<polyline fill="none" stroke="#bfbfbf" points="64.5,-786.5 93.5,-786.5 "/>
<text text-anchor="middle" x="79" y="-774.5" font-family="Helvetica,sans-Serif" font-size="10.00" fill="#000000"> </text>
<polyline fill="none" stroke="#bfbfbf" points="64.5,-767.5 93.5,-767.5 "/>
<text text-anchor="middle" x="79" y="-755.5" font-family="Helvetica,sans-Serif" font-size="10.00" fill="#000000"> </text>
</g>
<!-- Node11&#45;&gt;Node9 -->
<g id="edge6" class="edge">
<title>Node11&#45;&gt;Node9</title>
<path fill="none" stroke="#404040" d="M72.3258,-748.3258C69.8194,-737.5576 66.8871,-724.9593 64.0421,-712.7364"/>
<polygon fill="none" stroke="#404040" points="63.9657,-712.4079 58.7096,-707.4709 61.2452,-700.7203 66.5013,-705.6573 63.9657,-712.4079"/>
<text text-anchor="middle" x="92.5" y="-722" font-family="Helvetica,sans-Serif" font-size="10.00" fill="#000000"> +elements</text>
</g>
<!-- Node12 -->
<g id="node8" class="node">
<title>Node12</title>
<polygon fill="#ffffff" stroke="#bfbfbf" points="169.5,-387.5 169.5,-444.5 284.5,-444.5 284.5,-387.5 169.5,-387.5"/>
<text text-anchor="middle" x="227" y="-432.5" font-family="Helvetica,sans-Serif" font-size="10.00" fill="#000000">std::vector&lt; adjlist_t &gt;</text>
<polyline fill="none" stroke="#bfbfbf" points="169.5,-425.5 284.5,-425.5 "/>
<text text-anchor="start" x="177.5" y="-413.5" font-family="Helvetica,sans-Serif" font-size="10.00" fill="#000000">+ elements</text>
<polyline fill="none" stroke="#bfbfbf" points="169.5,-406.5 284.5,-406.5 "/>
<text text-anchor="middle" x="227" y="-394.5" font-family="Helvetica,sans-Serif" font-size="10.00" fill="#000000"> </text>
</g>
<!-- Node12&#45;&gt;Node6 -->
<g id="edge7" class="edge">
<title>Node12&#45;&gt;Node6</title>
<path fill="none" stroke="#404040" d="M208.2281,-387.3952C201.0606,-376.4733 192.4387,-363.3352 183.4563,-349.6477"/>
<polygon fill="none" stroke="#404040" points="183.4516,-349.6405 176.8155,-346.8189 176.8677,-339.6079 183.5039,-342.4296 183.4516,-349.6405"/>
<text text-anchor="middle" x="209" y="-361" font-family="Helvetica,sans-Serif" font-size="10.00" fill="#000000"> +_adj</text>
</g>
</g>
</svg>
