<?xml version="1.0" encoding="UTF-8" standalone="no"?>
<!DOCTYPE svg PUBLIC "-//W3C//DTD SVG 1.1//EN"
 "http://www.w3.org/Graphics/SVG/1.1/DTD/svg11.dtd">
<!-- Generated by graphviz version 2.40.1 (20161225.0304)
 -->
<!-- Title: xn::DiGraphS::add_edges_from Pages: 1 -->
<!--zoomable 104 -->
<svg id="main" version="1.1" xmlns="http://www.w3.org/2000/svg" xmlns:xlink="http://www.w3.org/1999/xlink" xml:space="preserve" onload="init(evt)">
<style type="text/css"><![CDATA[
.edge:hover path { stroke: red; }
.edge:hover polygon { stroke: red; fill: red; }
]]></style>
<script type="text/javascript"><![CDATA[
var edges = document.getElementsByTagName('g');
if (edges && edges.length) {
  for (var i=0;i<edges.length;i++) {
    if (edges[i].id.substr(0,4)=='edge') {
      edges[i].setAttribute('class','edge');
    }
  }
}
]]></script>
        <defs>
                <circle id="rim" cx="0" cy="0" r="7"/>
                <circle id="rim2" cx="0" cy="0" r="3.5"/>
                <g id="zoomPlus">
                        <use xlink:href="#rim" fill="#404040">
                                <set attributeName="fill" to="#808080" begin="zoomplus.mouseover" end="zoomplus.mouseout"/>
                        </use>
                        <path d="M-4,0h8M0,-4v8" fill="none" stroke="white" stroke-width="1.5" pointer-events="none"/>
                </g>
                <g id="zoomMin">
                        <use xlink:href="#rim" fill="#404040">
                                <set attributeName="fill" to="#808080" begin="zoomminus.mouseover" end="zoomminus.mouseout"/>
                        </use>
                        <path d="M-4,0h8" fill="none" stroke="white" stroke-width="1.5" pointer-events="none"/>
                </g>
                <g id="dirArrow">
                        <path fill="none" stroke="white" stroke-width="1.5" d="M0,-3.0v7 M-2.5,-0.5L0,-3.0L2.5,-0.5"/>
                </g>
               <g id="resetDef">
                       <use xlink:href="#rim2" fill="#404040">
                               <set attributeName="fill" to="#808080" begin="reset.mouseover" end="reset.mouseout"/>
                       </use>
               </g>
        </defs>

<script type="text/javascript">
var viewWidth = 521;
var viewHeight = 104;
var sectionId = 'dynsection-4';
</script>
<script xlink:href="svgpan.js"/>
<svg id="graph" class="graph">
<g id="viewport">
<title>xn::DiGraphS::add_edges_from</title>
<polygon fill="#ffffff" stroke="transparent" points="-4,4 -4,-100 517,-100 517,4 -4,4"/>
<!-- Node18 -->
<g id="node1" class="node">
<title>Node18</title>
<polygon fill="#bfbfbf" stroke="#000000" points="0,-38.5 0,-57.5 154,-57.5 154,-38.5 0,-38.5"/>
<text text-anchor="middle" x="77" y="-45.5" font-family="Helvetica,sans-Serif" font-size="10.00" fill="#000000">xn::DiGraphS::add_edges_from</text>
</g>
<!-- Node19 -->
<g id="node2" class="node">
<title>Node19</title>
<g id="a_node2"><a xlink:href="test__cycle__ratio_8cpp.html#a9ebab2ae39247b22f28703cf7d718efc" target="_top" xlink:title="Create a test case1 object. ">
<polygon fill="#ffffff" stroke="#000000" points="203,-76.5 203,-95.5 300,-95.5 300,-76.5 203,-76.5"/>
<text text-anchor="middle" x="251.5" y="-83.5" font-family="Helvetica,sans-Serif" font-size="10.00" fill="#000000">create_test_case1</text>
</a>
</g>
</g>
<!-- Node18&#45;&gt;Node19 -->
<g id="edge1" class="edge">
<title>Node18&#45;&gt;Node19</title>
<path fill="none" stroke="#191970" d="M130.9691,-59.7526C155.6433,-65.1258 184.4948,-71.4086 207.7829,-76.4799"/>
<polygon fill="#191970" stroke="#191970" points="131.5495,-56.297 121.0337,-57.589 130.06,-63.1367 131.5495,-56.297"/>
</g>
<!-- Node22 -->
<g id="node5" class="node">
<title>Node22</title>
<g id="a_node5"><a xlink:href="test__neg__cycle_8cpp.html#a49a4a349e098c179cb3d70bd760b4909" target="_top" xlink:title="Create a test case2 object. ">
<polygon fill="#ffffff" stroke="#000000" points="203,-38.5 203,-57.5 300,-57.5 300,-38.5 203,-38.5"/>
<text text-anchor="middle" x="251.5" y="-45.5" font-family="Helvetica,sans-Serif" font-size="10.00" fill="#000000">create_test_case2</text>
</a>
</g>
</g>
<!-- Node18&#45;&gt;Node22 -->
<g id="edge4" class="edge">
<title>Node18&#45;&gt;Node22</title>
<path fill="none" stroke="#191970" d="M164.2134,-48C177.5362,-48 190.8602,-48 202.9427,-48"/>
<polygon fill="#191970" stroke="#191970" points="164.0462,-44.5001 154.0462,-48 164.0462,-51.5001 164.0462,-44.5001"/>
</g>
<!-- Node24 -->
<g id="node7" class="node">
<title>Node24</title>
<g id="a_node7"><a xlink:href="test__cycle__ratio_8cpp.html#ad4404240fd41d384f36191a8940dfd83" target="_top" xlink:title="Create a test case timing object. ">
<polygon fill="#ffffff" stroke="#000000" points="190,-.5 190,-19.5 313,-19.5 313,-.5 190,-.5"/>
<text text-anchor="middle" x="251.5" y="-7.5" font-family="Helvetica,sans-Serif" font-size="10.00" fill="#000000">create_test_case_timing</text>
</a>
</g>
</g>
<!-- Node18&#45;&gt;Node24 -->
<g id="edge6" class="edge">
<title>Node18&#45;&gt;Node24</title>
<path fill="none" stroke="#191970" d="M130.9691,-36.2474C155.6433,-30.8742 184.4948,-24.5914 207.7829,-19.5201"/>
<polygon fill="#191970" stroke="#191970" points="130.06,-32.8633 121.0337,-38.411 131.5495,-39.703 130.06,-32.8633"/>
</g>
<!-- Node20 -->
<g id="node3" class="node">
<title>Node20</title>
<g id="a_node3"><a xlink:href="test__cycle__ratio_8cpp.html#ad13db252bdb1b692e200a73f6ec8a88f" target="_top" xlink:title="TEST_CASE">
<polygon fill="#ffffff" stroke="#000000" points="349,-76.5 349,-95.5 424,-95.5 424,-76.5 349,-76.5"/>
<text text-anchor="middle" x="386.5" y="-83.5" font-family="Helvetica,sans-Serif" font-size="10.00" fill="#000000">TEST_CASE</text>
</a>
</g>
</g>
<!-- Node19&#45;&gt;Node20 -->
<g id="edge2" class="edge">
<title>Node19&#45;&gt;Node20</title>
<path fill="none" stroke="#191970" d="M310.5369,-86C323.5394,-86 336.9675,-86 348.8501,-86"/>
<polygon fill="#191970" stroke="#191970" points="310.2381,-82.5001 300.2381,-86 310.2381,-89.5001 310.2381,-82.5001"/>
</g>
<!-- Node21 -->
<g id="node4" class="node">
<title>Node21</title>
<g id="a_node4"><a xlink:href="test__neg__cycle__boost_8cpp.html#a0502f391b25d1855a3a2fc82dd05f3a0" target="_top" xlink:title="do_case">
<polygon fill="#ffffff" stroke="#000000" points="460,-76.5 460,-95.5 513,-95.5 513,-76.5 460,-76.5"/>
<text text-anchor="middle" x="486.5" y="-83.5" font-family="Helvetica,sans-Serif" font-size="10.00" fill="#000000">do_case</text>
</a>
</g>
</g>
<!-- Node20&#45;&gt;Node21 -->
<g id="edge3" class="edge">
<title>Node20&#45;&gt;Node21</title>
<path fill="none" stroke="#191970" d="M434.2005,-86C442.9641,-86 451.8222,-86 459.6946,-86"/>
<polygon fill="#191970" stroke="#191970" points="434.0209,-82.5001 424.0208,-86 434.0208,-89.5001 434.0209,-82.5001"/>
</g>
<!-- Node23 -->
<g id="node6" class="node">
<title>Node23</title>
<g id="a_node6"><a xlink:href="test__neg__cycle_8cpp.html#ae6fa2f8c859dbb6c8e42a958f8120fc1" target="_top" xlink:title="TEST_CASE">
<polygon fill="#ffffff" stroke="#000000" points="349,-38.5 349,-57.5 424,-57.5 424,-38.5 349,-38.5"/>
<text text-anchor="middle" x="386.5" y="-45.5" font-family="Helvetica,sans-Serif" font-size="10.00" fill="#000000">TEST_CASE</text>
</a>
</g>
</g>
<!-- Node22&#45;&gt;Node23 -->
<g id="edge5" class="edge">
<title>Node22&#45;&gt;Node23</title>
<path fill="none" stroke="#191970" d="M310.5369,-48C323.5394,-48 336.9675,-48 348.8501,-48"/>
<polygon fill="#191970" stroke="#191970" points="310.2381,-44.5001 300.2381,-48 310.2381,-51.5001 310.2381,-44.5001"/>
</g>
<!-- Node25 -->
<g id="node8" class="node">
<title>Node25</title>
<g id="a_node8"><a xlink:href="test__cycle__ratio_8cpp.html#af72fa632f855812145fa177bdc96641e" target="_top" xlink:title="TEST_CASE">
<polygon fill="#ffffff" stroke="#000000" points="349,-.5 349,-19.5 424,-19.5 424,-.5 349,-.5"/>
<text text-anchor="middle" x="386.5" y="-7.5" font-family="Helvetica,sans-Serif" font-size="10.00" fill="#000000">TEST_CASE</text>
</a>
</g>
</g>
<!-- Node24&#45;&gt;Node25 -->
<g id="edge7" class="edge">
<title>Node24&#45;&gt;Node25</title>
<path fill="none" stroke="#191970" d="M323.1396,-10C332.0478,-10 340.8596,-10 348.951,-10"/>
<polygon fill="#191970" stroke="#191970" points="323.0742,-6.5001 313.0742,-10 323.0741,-13.5001 323.0742,-6.5001"/>
</g>
</g>
</svg>
        <g id="navigator" transform="translate(0 0)" fill="#404254">
                <rect fill="#f2f5e9" fill-opacity="0.5" stroke="#606060" stroke-width=".5" x="0" y="0" width="60" height="60"/>
                <use id="zoomplus" xlink:href="#zoomPlus" x="17" y="9" onmousedown="handleZoom(evt,'in')"/>
                <use id="zoomminus" xlink:href="#zoomMin" x="42" y="9" onmousedown="handleZoom(evt,'out')"/>
                <use id="reset" xlink:href="#resetDef" x="30" y="36" onmousedown="handleReset()"/>
                <g id="arrowUp" xlink:href="#dirArrow" transform="translate(30 24)" onmousedown="handlePan(0,-1)">
                  <use xlink:href="#rim" fill="#404040">
                        <set attributeName="fill" to="#808080" begin="arrowUp.mouseover" end="arrowUp.mouseout"/>
                  </use>
                  <path fill="none" stroke="white" stroke-width="1.5" d="M0,-3.0v7 M-2.5,-0.5L0,-3.0L2.5,-0.5"/>
                </g>
                <g id="arrowRight" xlink:href="#dirArrow" transform="rotate(90) translate(36 -43)" onmousedown="handlePan(1,0)">
                  <use xlink:href="#rim" fill="#404040">
                        <set attributeName="fill" to="#808080" begin="arrowRight.mouseover" end="arrowRight.mouseout"/>
                  </use>
                  <path fill="none" stroke="white" stroke-width="1.5" d="M0,-3.0v7 M-2.5,-0.5L0,-3.0L2.5,-0.5"/>
                </g>
                <g id="arrowDown" xlink:href="#dirArrow" transform="rotate(180) translate(-30 -48)" onmousedown="handlePan(0,1)">
                  <use xlink:href="#rim" fill="#404040">
                        <set attributeName="fill" to="#808080" begin="arrowDown.mouseover" end="arrowDown.mouseout"/>
                  </use>
                  <path fill="none" stroke="white" stroke-width="1.5" d="M0,-3.0v7 M-2.5,-0.5L0,-3.0L2.5,-0.5"/>
                </g>
                <g id="arrowLeft" xlink:href="#dirArrow" transform="rotate(270) translate(-36 17)" onmousedown="handlePan(-1,0)">
                  <use xlink:href="#rim" fill="#404040">
                        <set attributeName="fill" to="#808080" begin="arrowLeft.mouseover" end="arrowLeft.mouseout"/>
                  </use>
                  <path fill="none" stroke="white" stroke-width="1.5" d="M0,-3.0v7 M-2.5,-0.5L0,-3.0L2.5,-0.5"/>
                </g>
        </g>
        <svg viewBox="0 0 15 15" width="100%" height="30px" preserveAspectRatio="xMaxYMin meet">
         <g id="arrow_out" transform="scale(0.3 0.3)">
          <a xlink:href="classxn_1_1DiGraphS_aff337f194722ee4d3433cdfc379cbe87_icgraph_org.svg" target="_base">
           <rect id="button" ry="5" rx="5" y="6" x="6" height="38" width="38"
                fill="#f2f5e9" fill-opacity="0.5" stroke="#606060" stroke-width="1.0"/>
           <path id="arrow"
             d="M 11.500037,31.436501 C 11.940474,20.09759 22.043105,11.32322 32.158766,21.979434 L 37.068811,17.246167 C 37.068811,17.246167 37.088388,32 37.088388,32 L 22.160133,31.978069 C 22.160133,31.978069 26.997745,27.140456 26.997745,27.140456 C 18.528582,18.264221 13.291696,25.230495 11.500037,31.436501 z"
             style="fill:#404040;"/>
          </a>
         </g>
        </svg>
</svg>
