<?xml version="1.0" encoding="UTF-8" standalone="no"?>
<!DOCTYPE svg PUBLIC "-//W3C//DTD SVG 1.1//EN"
 "http://www.w3.org/Graphics/SVG/1.1/DTD/svg11.dtd">
<!-- Generated by graphviz version 2.40.1 (20161225.0304)
 -->
<!-- Title: lib/include/xnetwork/classes/digraphs.hpp Pages: 1 -->
<svg width="876pt" height="207pt"
 viewBox="0.00 0.00 876.21 207.00" xmlns="http://www.w3.org/2000/svg" xmlns:xlink="http://www.w3.org/1999/xlink">
<g id="graph0" class="graph" transform="scale(1 1) rotate(0) translate(4 203)">
<title>lib/include/xnetwork/classes/digraphs.hpp</title>
<polygon fill="#ffffff" stroke="transparent" points="-4,4 -4,-203 872.2142,-203 872.2142,4 -4,4"/>
<!-- Node0 -->
<g id="node1" class="node">
<title>Node0</title>
<polygon fill="#bfbfbf" stroke="#000000" points="268.2142,-168.5 268.2142,-198.5 380.2142,-198.5 380.2142,-168.5 268.2142,-168.5"/>
<text text-anchor="start" x="276.2142" y="-186.5" font-family="Helvetica,sans-Serif" font-size="10.00" fill="#000000">lib/include/xnetwork</text>
<text text-anchor="middle" x="324.2142" y="-175.5" font-family="Helvetica,sans-Serif" font-size="10.00" fill="#000000">/classes/digraphs.hpp</text>
</g>
<!-- Node1 -->
<g id="node2" class="node">
<title>Node1</title>
<polygon fill="#ffffff" stroke="#bfbfbf" points="14.2142,-56.5 14.2142,-75.5 46.2142,-75.5 46.2142,-56.5 14.2142,-56.5"/>
<text text-anchor="middle" x="30.2142" y="-63.5" font-family="Helvetica,sans-Serif" font-size="10.00" fill="#000000">any</text>
</g>
<!-- Node0&#45;&gt;Node1 -->
<g id="edge1" class="edge">
<title>Node0&#45;&gt;Node1</title>
<path fill="none" stroke="#191970" d="M280.4479,-168.4129C252.2392,-158.4957 214.8635,-144.9945 182.2142,-132 137.3059,-114.1263 85.8755,-91.2865 55.8258,-77.6971"/>
<polygon fill="#191970" stroke="#191970" points="57.0477,-74.4081 46.495,-73.4637 54.1555,-80.7827 57.0477,-74.4081"/>
</g>
<!-- Node2 -->
<g id="node3" class="node">
<title>Node2</title>
<polygon fill="#ffffff" stroke="#bfbfbf" points="748.2142,-112.5 748.2142,-131.5 868.2142,-131.5 868.2142,-112.5 748.2142,-112.5"/>
<text text-anchor="middle" x="808.2142" y="-119.5" font-family="Helvetica,sans-Serif" font-size="10.00" fill="#000000">boost/coroutine2/all.hpp</text>
</g>
<!-- Node0&#45;&gt;Node2 -->
<g id="edge2" class="edge">
<title>Node0&#45;&gt;Node2</title>
<path fill="none" stroke="#191970" d="M380.2737,-176.6271C459.2513,-166.906 607.7666,-148.4849 734.2142,-132 735.4797,-131.835 736.7572,-131.668 738.044,-131.4992"/>
<polygon fill="#191970" stroke="#191970" points="738.5892,-134.9577 748.0451,-130.1789 737.673,-128.0179 738.5892,-134.9577"/>
</g>
<!-- Node3 -->
<g id="node4" class="node">
<title>Node3</title>
<polygon fill="#ffffff" stroke="#bfbfbf" points="64.7142,-56.5 64.7142,-75.5 113.7142,-75.5 113.7142,-56.5 64.7142,-56.5"/>
<text text-anchor="middle" x="89.2142" y="-63.5" font-family="Helvetica,sans-Serif" font-size="10.00" fill="#000000">cassert</text>
</g>
<!-- Node0&#45;&gt;Node3 -->
<g id="edge3" class="edge">
<title>Node0&#45;&gt;Node3</title>
<path fill="none" stroke="#191970" d="M293.9732,-168.3795C248.2391,-145.5124 162.0999,-102.4428 117.5305,-80.1581"/>
<polygon fill="#191970" stroke="#191970" points="118.933,-76.9463 108.4235,-75.6046 115.8025,-83.2073 118.933,-76.9463"/>
</g>
<!-- Node4 -->
<g id="node5" class="node">
<title>Node4</title>
<g id="a_node5"><a xlink:href="py2cpp_8hpp.html" target="_top" xlink:title="py2cpp/py2cpp.hpp">
<polygon fill="#ffffff" stroke="#000000" points="314.7142,-56.5 314.7142,-75.5 415.7142,-75.5 415.7142,-56.5 314.7142,-56.5"/>
<text text-anchor="middle" x="365.2142" y="-63.5" font-family="Helvetica,sans-Serif" font-size="10.00" fill="#000000">py2cpp/py2cpp.hpp</text>
</a>
</g>
</g>
<!-- Node0&#45;&gt;Node4 -->
<g id="edge4" class="edge">
<title>Node0&#45;&gt;Node4</title>
<path fill="none" stroke="#191970" d="M309.9249,-168.3034C297.864,-153.5426 284.0554,-130.6864 294.2142,-112 301.8519,-97.9511 315.8352,-87.5317 329.3851,-80.1958"/>
<polygon fill="#191970" stroke="#191970" points="331.2202,-83.1921 338.6132,-75.603 328.1012,-76.9253 331.2202,-83.1921"/>
</g>
<!-- Node7 -->
<g id="node8" class="node">
<title>Node7</title>
<polygon fill="#ffffff" stroke="#bfbfbf" points="523.2142,-.5 523.2142,-19.5 585.2142,-19.5 585.2142,-.5 523.2142,-.5"/>
<text text-anchor="middle" x="554.2142" y="-7.5" font-family="Helvetica,sans-Serif" font-size="10.00" fill="#000000">type_traits</text>
</g>
<!-- Node0&#45;&gt;Node7 -->
<g id="edge11" class="edge">
<title>Node0&#45;&gt;Node7</title>
<path fill="none" stroke="#191970" d="M380.3874,-175.8632C475.9328,-161.5927 663.5294,-127.5798 702.2142,-76 732.2654,-35.9319 648.9472,-19.674 595.4045,-13.4873"/>
<polygon fill="#191970" stroke="#191970" points="595.7797,-10.0076 585.4616,-12.413 595.0277,-16.9671 595.7797,-10.0076"/>
</g>
<!-- Node10 -->
<g id="node11" class="node">
<title>Node10</title>
<polygon fill="#ffffff" stroke="#bfbfbf" points="119.2142,-.5 119.2142,-19.5 159.2142,-19.5 159.2142,-.5 119.2142,-.5"/>
<text text-anchor="middle" x="139.2142" y="-7.5" font-family="Helvetica,sans-Serif" font-size="10.00" fill="#000000">utility</text>
</g>
<!-- Node0&#45;&gt;Node10 -->
<g id="edge12" class="edge">
<title>Node0&#45;&gt;Node10</title>
<path fill="none" stroke="#191970" d="M267.972,-173.1203C184.4686,-156.3825 34.3789,-120.7341 5.2142,-76 -21.1856,-35.5067 61.9038,-18.9907 109.0334,-13.0033"/>
<polygon fill="#191970" stroke="#191970" points="109.5268,-16.4694 119.0467,-11.8197 108.705,-9.5178 109.5268,-16.4694"/>
</g>
<!-- Node11 -->
<g id="node12" class="node">
<title>Node11</title>
<polygon fill="#ffffff" stroke="#bfbfbf" points="472.2142,-56.5 472.2142,-75.5 516.2142,-75.5 516.2142,-56.5 472.2142,-56.5"/>
<text text-anchor="middle" x="494.2142" y="-63.5" font-family="Helvetica,sans-Serif" font-size="10.00" fill="#000000">vector</text>
</g>
<!-- Node0&#45;&gt;Node11 -->
<g id="edge13" class="edge">
<title>Node0&#45;&gt;Node11</title>
<path fill="none" stroke="#191970" d="M380.3571,-168.9254C404.0114,-160.8167 430.7424,-148.8722 451.2142,-132 466.6485,-119.2796 478.4819,-99.5527 485.7914,-84.9764"/>
<polygon fill="#191970" stroke="#191970" points="488.9935,-86.3925 490.1177,-75.8574 482.6691,-83.392 488.9935,-86.3925"/>
</g>
<!-- Node12 -->
<g id="node13" class="node">
<title>Node12</title>
<g id="a_node13"><a xlink:href="coreviews_8hpp.html" target="_top" xlink:title="xnetwork/classes/coreviews.hpp">
<polygon fill="#ffffff" stroke="#000000" points="533.7142,-56.5 533.7142,-75.5 692.7142,-75.5 692.7142,-56.5 533.7142,-56.5"/>
<text text-anchor="middle" x="613.2142" y="-63.5" font-family="Helvetica,sans-Serif" font-size="10.00" fill="#000000">xnetwork/classes/coreviews.hpp</text>
</a>
</g>
</g>
<!-- Node0&#45;&gt;Node12 -->
<g id="edge14" class="edge">
<title>Node0&#45;&gt;Node12</title>
<path fill="none" stroke="#191970" d="M372.6873,-168.3922C402.3171,-158.7799 440.8126,-145.6134 474.2142,-132 513.6043,-115.9459 557.768,-94.3298 585.5288,-80.2813"/>
<polygon fill="#191970" stroke="#191970" points="587.3049,-83.3046 594.6293,-75.6493 584.1297,-77.0662 587.3049,-83.3046"/>
</g>
<!-- Node13 -->
<g id="node14" class="node">
<title>Node13</title>
<g id="a_node14"><a xlink:href="graph_8hpp.html" target="_top" xlink:title="xnetwork/classes/graph.hpp">
<polygon fill="#ffffff" stroke="#000000" points="303.7142,-112.5 303.7142,-131.5 442.7142,-131.5 442.7142,-112.5 303.7142,-112.5"/>
<text text-anchor="middle" x="373.2142" y="-119.5" font-family="Helvetica,sans-Serif" font-size="10.00" fill="#000000">xnetwork/classes/graph.hpp</text>
</a>
</g>
</g>
<!-- Node0&#45;&gt;Node13 -->
<g id="edge15" class="edge">
<title>Node0&#45;&gt;Node13</title>
<path fill="none" stroke="#191970" d="M336.3266,-168.2977C343.1992,-159.672 351.8365,-148.8312 359.0252,-139.8087"/>
<polygon fill="#191970" stroke="#191970" points="361.8746,-141.849 365.3687,-131.8469 356.3999,-137.487 361.8746,-141.849"/>
</g>
<!-- Node14 -->
<g id="node15" class="node">
<title>Node14</title>
<g id="a_node15"><a xlink:href="reportviews_8hpp.html" target="_top" xlink:title="xnetwork/classes/reportviews.hpp">
<polygon fill="#ffffff" stroke="#000000" points="131.7142,-56.5 131.7142,-75.5 296.7142,-75.5 296.7142,-56.5 131.7142,-56.5"/>
<text text-anchor="middle" x="214.2142" y="-63.5" font-family="Helvetica,sans-Serif" font-size="10.00" fill="#000000">xnetwork/classes/reportviews.hpp</text>
</a>
</g>
</g>
<!-- Node0&#45;&gt;Node14 -->
<g id="edge25" class="edge">
<title>Node0&#45;&gt;Node14</title>
<path fill="none" stroke="#191970" d="M309.8337,-168.1389C289.2946,-146.1994 251.6801,-106.0203 230.2606,-83.1404"/>
<polygon fill="#191970" stroke="#191970" points="232.5529,-80.4677 223.1635,-75.5595 227.4427,-85.2517 232.5529,-80.4677"/>
</g>
<!-- Node5 -->
<g id="node6" class="node">
<title>Node5</title>
<polygon fill="#ffffff" stroke="#bfbfbf" points="177.7142,-.5 177.7142,-19.5 250.7142,-19.5 250.7142,-.5 177.7142,-.5"/>
<text text-anchor="middle" x="214.2142" y="-7.5" font-family="Helvetica,sans-Serif" font-size="10.00" fill="#000000">initializer_list</text>
</g>
<!-- Node4&#45;&gt;Node5 -->
<g id="edge5" class="edge">
<title>Node4&#45;&gt;Node5</title>
<path fill="none" stroke="#191970" d="M339.2564,-56.3733C314.4735,-47.1822 276.9396,-33.2624 249.4602,-23.0713"/>
<polygon fill="#191970" stroke="#191970" points="250.4264,-19.6968 239.8333,-19.5011 247.9923,-26.26 250.4264,-19.6968"/>
</g>
<!-- Node6 -->
<g id="node7" class="node">
<title>Node6</title>
<polygon fill="#ffffff" stroke="#bfbfbf" points="365.2142,-.5 365.2142,-19.5 403.2142,-19.5 403.2142,-.5 365.2142,-.5"/>
<text text-anchor="middle" x="384.2142" y="-7.5" font-family="Helvetica,sans-Serif" font-size="10.00" fill="#000000">tuple</text>
</g>
<!-- Node4&#45;&gt;Node6 -->
<g id="edge6" class="edge">
<title>Node4&#45;&gt;Node6</title>
<path fill="none" stroke="#191970" d="M368.5238,-56.2455C371.0576,-48.7776 374.6319,-38.2427 377.7292,-29.1137"/>
<polygon fill="#191970" stroke="#191970" points="381.044,-30.237 380.9426,-19.6427 374.4152,-27.9879 381.044,-30.237"/>
</g>
<!-- Node4&#45;&gt;Node7 -->
<g id="edge7" class="edge">
<title>Node4&#45;&gt;Node7</title>
<path fill="none" stroke="#191970" d="M397.7045,-56.3733C429.6926,-46.8953 478.6526,-32.3886 513.2822,-22.128"/>
<polygon fill="#191970" stroke="#191970" points="514.4946,-25.4193 523.0883,-19.2225 512.506,-18.7077 514.4946,-25.4193"/>
</g>
<!-- Node8 -->
<g id="node9" class="node">
<title>Node8</title>
<polygon fill="#ffffff" stroke="#bfbfbf" points="421.7142,-.5 421.7142,-19.5 504.7142,-19.5 504.7142,-.5 421.7142,-.5"/>
<text text-anchor="middle" x="463.2142" y="-7.5" font-family="Helvetica,sans-Serif" font-size="10.00" fill="#000000">unordered_map</text>
</g>
<!-- Node4&#45;&gt;Node8 -->
<g id="edge8" class="edge">
<title>Node4&#45;&gt;Node8</title>
<path fill="none" stroke="#191970" d="M382.2845,-56.2455C397.4613,-47.5731 419.8764,-34.7645 437.2705,-24.825"/>
<polygon fill="#191970" stroke="#191970" points="439.3936,-27.643 446.3396,-19.6427 435.9206,-21.5653 439.3936,-27.643"/>
</g>
<!-- Node9 -->
<g id="node10" class="node">
<title>Node9</title>
<polygon fill="#ffffff" stroke="#bfbfbf" points="269.2142,-.5 269.2142,-19.5 347.2142,-19.5 347.2142,-.5 269.2142,-.5"/>
<text text-anchor="middle" x="308.2142" y="-7.5" font-family="Helvetica,sans-Serif" font-size="10.00" fill="#000000">unordered_set</text>
</g>
<!-- Node4&#45;&gt;Node9 -->
<g id="edge9" class="edge">
<title>Node4&#45;&gt;Node9</title>
<path fill="none" stroke="#191970" d="M355.2856,-56.2455C347.0305,-48.1352 335.0933,-36.4075 325.306,-26.7919"/>
<polygon fill="#191970" stroke="#191970" points="327.6154,-24.1542 318.0291,-19.6427 322.7096,-29.1476 327.6154,-24.1542"/>
</g>
<!-- Node4&#45;&gt;Node10 -->
<g id="edge10" class="edge">
<title>Node4&#45;&gt;Node10</title>
<path fill="none" stroke="#191970" d="M318.2953,-56.4633C280.3562,-48.4331 225.4164,-36.0873 169.181,-20.0763"/>
<polygon fill="#191970" stroke="#191970" points="169.9893,-16.6669 159.4112,-17.2609 168.0509,-23.3931 169.9893,-16.6669"/>
</g>
<!-- Node13&#45;&gt;Node1 -->
<g id="edge16" class="edge">
<title>Node13&#45;&gt;Node1</title>
<path fill="none" stroke="#191970" d="M303.4022,-116.6891C240.6126,-110.8315 145.9365,-99.3206 56.2176,-75.7539"/>
<polygon fill="#191970" stroke="#191970" points="56.9971,-72.3393 46.4318,-73.1295 55.1838,-79.1004 56.9971,-72.3393"/>
</g>
<!-- Node13&#45;&gt;Node3 -->
<g id="edge17" class="edge">
<title>Node13&#45;&gt;Node3</title>
<path fill="none" stroke="#191970" d="M310.1351,-112.4669C261.5139,-104.6563 192.4562,-92.5634 124.0789,-76.2722"/>
<polygon fill="#191970" stroke="#191970" points="124.5401,-72.7831 113.9979,-73.8382 122.8971,-79.5875 124.5401,-72.7831"/>
</g>
<!-- Node13&#45;&gt;Node4 -->
<g id="edge18" class="edge">
<title>Node13&#45;&gt;Node4</title>
<path fill="none" stroke="#191970" d="M371.8208,-112.2455C370.7768,-104.9382 369.3134,-94.6944 368.0292,-85.7046"/>
<polygon fill="#191970" stroke="#191970" points="371.4709,-85.0472 366.5918,-75.6427 364.5412,-86.0372 371.4709,-85.0472"/>
</g>
<!-- Node13&#45;&gt;Node7 -->
<g id="edge19" class="edge">
<title>Node13&#45;&gt;Node7</title>
<path fill="none" stroke="#191970" d="M385.0013,-112.3763C401.7897,-98.9007 433.8182,-74.0387 463.2142,-56 482.5647,-44.1257 505.3659,-32.6039 523.3038,-24.0617"/>
<polygon fill="#191970" stroke="#191970" points="525.1538,-27.0595 532.7161,-19.6392 522.177,-20.724 525.1538,-27.0595"/>
</g>
<!-- Node13&#45;&gt;Node11 -->
<g id="edge20" class="edge">
<title>Node13&#45;&gt;Node11</title>
<path fill="none" stroke="#191970" d="M394.0149,-112.3733C413.4385,-103.3838 442.6366,-89.8706 464.5107,-79.7471"/>
<polygon fill="#191970" stroke="#191970" points="466.0799,-82.8776 473.685,-75.5011 463.1398,-76.5249 466.0799,-82.8776"/>
</g>
<!-- Node13&#45;&gt;Node12 -->
<g id="edge21" class="edge">
<title>Node13&#45;&gt;Node12</title>
<path fill="none" stroke="#191970" d="M414.199,-112.4369C455.1869,-102.8731 518.3147,-88.1432 562.45,-77.845"/>
<polygon fill="#191970" stroke="#191970" points="563.4554,-81.2045 572.3985,-75.5237 561.8648,-74.3876 563.4554,-81.2045"/>
</g>
<!-- Node13&#45;&gt;Node14 -->
<g id="edge22" class="edge">
<title>Node13&#45;&gt;Node14</title>
<path fill="none" stroke="#191970" d="M345.8812,-112.3733C319.6708,-103.1419 279.9159,-89.1402 250.9474,-78.9375"/>
<polygon fill="#191970" stroke="#191970" points="251.7855,-75.5219 241.1906,-75.5011 249.46,-82.1244 251.7855,-75.5219"/>
</g>
<!-- Node14&#45;&gt;Node5 -->
<g id="edge23" class="edge">
<title>Node14&#45;&gt;Node5</title>
<path fill="none" stroke="#191970" d="M214.2142,-56.2455C214.2142,-48.9382 214.2142,-38.6944 214.2142,-29.7046"/>
<polygon fill="#191970" stroke="#191970" points="217.7143,-29.6426 214.2142,-19.6427 210.7143,-29.6427 217.7143,-29.6426"/>
</g>
<!-- Node14&#45;&gt;Node10 -->
<g id="edge24" class="edge">
<title>Node14&#45;&gt;Node10</title>
<path fill="none" stroke="#191970" d="M201.1502,-56.2455C189.858,-47.814 173.3297,-35.4729 160.1871,-25.6598"/>
<polygon fill="#191970" stroke="#191970" points="162.2354,-22.8211 152.1285,-19.6427 158.0473,-28.4301 162.2354,-22.8211"/>
</g>
</g>
</svg>
