<?xml version="1.0" encoding="UTF-8" standalone="no"?>
<!DOCTYPE svg PUBLIC "-//W3C//DTD SVG 1.1//EN"
 "http://www.w3.org/Graphics/SVG/1.1/DTD/svg11.dtd">
<!-- Generated by graphviz version 2.40.1 (20161225.0304)
 -->
<!-- Title: lib/include/xnetwork/classes/digraphs.hpp Pages: 1 -->
<!--zoomable 207 -->
<svg id="main" version="1.1" xmlns="http://www.w3.org/2000/svg" xmlns:xlink="http://www.w3.org/1999/xlink" xml:space="preserve" onload="init(evt)">
<style type="text/css"><![CDATA[
.edge:hover path { stroke: red; }
.edge:hover polygon { stroke: red; fill: red; }
]]></style>
<script type="text/javascript"><![CDATA[
var edges = document.getElementsByTagName('g');
if (edges && edges.length) {
  for (var i=0;i<edges.length;i++) {
    if (edges[i].id.substr(0,4)=='edge') {
      edges[i].setAttribute('class','edge');
    }
  }
}
]]></script>
        <defs>
                <circle id="rim" cx="0" cy="0" r="7"/>
                <circle id="rim2" cx="0" cy="0" r="3.5"/>
                <g id="zoomPlus">
                        <use xlink:href="#rim" fill="#404040">
                                <set attributeName="fill" to="#808080" begin="zoomplus.mouseover" end="zoomplus.mouseout"/>
                        </use>
                        <path d="M-4,0h8M0,-4v8" fill="none" stroke="white" stroke-width="1.5" pointer-events="none"/>
                </g>
                <g id="zoomMin">
                        <use xlink:href="#rim" fill="#404040">
                                <set attributeName="fill" to="#808080" begin="zoomminus.mouseover" end="zoomminus.mouseout"/>
                        </use>
                        <path d="M-4,0h8" fill="none" stroke="white" stroke-width="1.5" pointer-events="none"/>
                </g>
                <g id="dirArrow">
                        <path fill="none" stroke="white" stroke-width="1.5" d="M0,-3.0v7 M-2.5,-0.5L0,-3.0L2.5,-0.5"/>
                </g>
               <g id="resetDef">
                       <use xlink:href="#rim2" fill="#404040">
                               <set attributeName="fill" to="#808080" begin="reset.mouseover" end="reset.mouseout"/>
                       </use>
               </g>
        </defs>

<script type="text/javascript">
var viewWidth = 921;
var viewHeight = 207;
var sectionId = 'dynsection-0';
</script>
<script xlink:href="svgpan.js"/>
<svg id="graph" class="graph">
<g id="viewport">
<title>lib/include/xnetwork/classes/digraphs.hpp</title>
<polygon fill="#ffffff" stroke="transparent" points="-4,4 -4,-203 917.0237,-203 917.0237,4 -4,4"/>
<!-- Node0 -->
<g id="node1" class="node">
<title>Node0</title>
<polygon fill="#bfbfbf" stroke="#000000" points="313.0237,-168.5 313.0237,-198.5 425.0237,-198.5 425.0237,-168.5 313.0237,-168.5"/>
<text text-anchor="start" x="321.0237" y="-186.5" font-family="Helvetica,sans-Serif" font-size="10.00" fill="#000000">lib/include/xnetwork</text>
<text text-anchor="middle" x="369.0237" y="-175.5" font-family="Helvetica,sans-Serif" font-size="10.00" fill="#000000">/classes/digraphs.hpp</text>
</g>
<!-- Node1 -->
<g id="node2" class="node">
<title>Node1</title>
<polygon fill="#ffffff" stroke="#bfbfbf" points="13.0237,-56.5 13.0237,-75.5 91.0237,-75.5 91.0237,-56.5 13.0237,-56.5"/>
<text text-anchor="middle" x="52.0237" y="-63.5" font-family="Helvetica,sans-Serif" font-size="10.00" fill="#000000">boost/any.hpp</text>
</g>
<!-- Node0&#45;&gt;Node1 -->
<g id="edge1" class="edge">
<title>Node0&#45;&gt;Node1</title>
<path fill="none" stroke="#191970" d="M327.032,-168.429C298.7384,-158.2354 260.5965,-144.4183 227.0237,-132 178.1697,-113.9293 121.8257,-92.5898 86.5622,-79.1741"/>
<polygon fill="#191970" stroke="#191970" points="87.7897,-75.8964 77.1988,-75.6095 85.2992,-82.4384 87.7897,-75.8964"/>
</g>
<!-- Node2 -->
<g id="node3" class="node">
<title>Node2</title>
<polygon fill="#ffffff" stroke="#bfbfbf" points="109.5237,-56.5 109.5237,-75.5 158.5237,-75.5 158.5237,-56.5 109.5237,-56.5"/>
<text text-anchor="middle" x="134.0237" y="-63.5" font-family="Helvetica,sans-Serif" font-size="10.00" fill="#000000">cassert</text>
</g>
<!-- Node0&#45;&gt;Node2 -->
<g id="edge2" class="edge">
<title>Node0&#45;&gt;Node2</title>
<path fill="none" stroke="#191970" d="M338.7827,-168.3795C293.0486,-145.5124 206.9094,-102.4428 162.34,-80.1581"/>
<polygon fill="#191970" stroke="#191970" points="163.7425,-76.9463 153.233,-75.6046 160.612,-83.2073 163.7425,-76.9463"/>
</g>
<!-- Node3 -->
<g id="node4" class="node">
<title>Node3</title>
<g id="a_node4"><a xlink:href="py2cpp_8hpp.html" target="_top" xlink:title="py2cpp/py2cpp.hpp">
<polygon fill="#ffffff" stroke="#000000" points="359.5237,-56.5 359.5237,-75.5 460.5237,-75.5 460.5237,-56.5 359.5237,-56.5"/>
<text text-anchor="middle" x="410.0237" y="-63.5" font-family="Helvetica,sans-Serif" font-size="10.00" fill="#000000">py2cpp/py2cpp.hpp</text>
</a>
</g>
</g>
<!-- Node0&#45;&gt;Node3 -->
<g id="edge3" class="edge">
<title>Node0&#45;&gt;Node3</title>
<path fill="none" stroke="#191970" d="M354.7344,-168.3034C342.6735,-153.5426 328.8649,-130.6864 339.0237,-112 346.6614,-97.9511 360.6447,-87.5317 374.1946,-80.1958"/>
<polygon fill="#191970" stroke="#191970" points="376.0297,-83.1921 383.4227,-75.603 372.9107,-76.9253 376.0297,-83.1921"/>
</g>
<!-- Node6 -->
<g id="node7" class="node">
<title>Node6</title>
<polygon fill="#ffffff" stroke="#bfbfbf" points="568.0237,-.5 568.0237,-19.5 630.0237,-19.5 630.0237,-.5 568.0237,-.5"/>
<text text-anchor="middle" x="599.0237" y="-7.5" font-family="Helvetica,sans-Serif" font-size="10.00" fill="#000000">type_traits</text>
</g>
<!-- Node0&#45;&gt;Node6 -->
<g id="edge10" class="edge">
<title>Node0&#45;&gt;Node6</title>
<path fill="none" stroke="#191970" d="M425.1969,-175.8632C520.7423,-161.5927 708.3389,-127.5798 747.0237,-76 777.0749,-35.9319 693.7567,-19.674 640.214,-13.4873"/>
<polygon fill="#191970" stroke="#191970" points="640.5892,-10.0076 630.2711,-12.413 639.8372,-16.9671 640.5892,-10.0076"/>
</g>
<!-- Node9 -->
<g id="node10" class="node">
<title>Node9</title>
<polygon fill="#ffffff" stroke="#bfbfbf" points="164.0237,-.5 164.0237,-19.5 204.0237,-19.5 204.0237,-.5 164.0237,-.5"/>
<text text-anchor="middle" x="184.0237" y="-7.5" font-family="Helvetica,sans-Serif" font-size="10.00" fill="#000000">utility</text>
</g>
<!-- Node0&#45;&gt;Node9 -->
<g id="edge12" class="edge">
<title>Node0&#45;&gt;Node9</title>
<path fill="none" stroke="#191970" d="M312.7499,-175.3859C219.6572,-160.6629 40.2383,-126.3402 4.0237,-76 -1.1672,-68.7843 -1.4283,-63.0205 4.0237,-56 22.2397,-32.5434 107.3934,-19.0303 153.7544,-13.2931"/>
<polygon fill="#191970" stroke="#191970" points="154.3162,-16.751 163.8321,-12.0929 153.4883,-9.8001 154.3162,-16.751"/>
</g>
<!-- Node10 -->
<g id="node11" class="node">
<title>Node10</title>
<polygon fill="#ffffff" stroke="#bfbfbf" points="517.0237,-56.5 517.0237,-75.5 561.0237,-75.5 561.0237,-56.5 517.0237,-56.5"/>
<text text-anchor="middle" x="539.0237" y="-63.5" font-family="Helvetica,sans-Serif" font-size="10.00" fill="#000000">vector</text>
</g>
<!-- Node0&#45;&gt;Node10 -->
<g id="edge11" class="edge">
<title>Node0&#45;&gt;Node10</title>
<path fill="none" stroke="#191970" d="M425.1666,-168.9254C448.8209,-160.8167 475.5519,-148.8722 496.0237,-132 511.458,-119.2796 523.2914,-99.5527 530.6009,-84.9764"/>
<polygon fill="#191970" stroke="#191970" points="533.803,-86.3925 534.9272,-75.8574 527.4786,-83.392 533.803,-86.3925"/>
</g>
<!-- Node11 -->
<g id="node12" class="node">
<title>Node11</title>
<g id="a_node12"><a xlink:href="graph_8hpp.html" target="_top" xlink:title="xnetwork/classes/graph.hpp">
<polygon fill="#ffffff" stroke="#000000" points="348.5237,-112.5 348.5237,-131.5 487.5237,-131.5 487.5237,-112.5 348.5237,-112.5"/>
<text text-anchor="middle" x="418.0237" y="-119.5" font-family="Helvetica,sans-Serif" font-size="10.00" fill="#000000">xnetwork/classes/graph.hpp</text>
</a>
</g>
</g>
<!-- Node0&#45;&gt;Node11 -->
<g id="edge13" class="edge">
<title>Node0&#45;&gt;Node11</title>
<path fill="none" stroke="#191970" d="M381.1361,-168.2977C388.0087,-159.672 396.646,-148.8312 403.8347,-139.8087"/>
<polygon fill="#191970" stroke="#191970" points="406.6841,-141.849 410.1782,-131.8469 401.2094,-137.487 406.6841,-141.849"/>
</g>
<!-- Node12 -->
<g id="node13" class="node">
<title>Node12</title>
<g id="a_node13"><a xlink:href="coreviews_8hpp.html" target="_top" xlink:title="xnetwork/classes/coreviews.hpp">
<polygon fill="#ffffff" stroke="#000000" points="578.5237,-56.5 578.5237,-75.5 737.5237,-75.5 737.5237,-56.5 578.5237,-56.5"/>
<text text-anchor="middle" x="658.0237" y="-63.5" font-family="Helvetica,sans-Serif" font-size="10.00" fill="#000000">xnetwork/classes/coreviews.hpp</text>
</a>
</g>
</g>
<!-- Node0&#45;&gt;Node12 -->
<g id="edge23" class="edge">
<title>Node0&#45;&gt;Node12</title>
<path fill="none" stroke="#191970" d="M417.4968,-168.3922C447.1266,-158.7799 485.6221,-145.6134 519.0237,-132 558.4138,-115.9459 602.5775,-94.3298 630.3383,-80.2813"/>
<polygon fill="#191970" stroke="#191970" points="632.1145,-83.3046 639.4388,-75.6493 628.9392,-77.0662 632.1145,-83.3046"/>
</g>
<!-- Node13 -->
<g id="node14" class="node">
<title>Node13</title>
<g id="a_node14"><a xlink:href="reportviews_8hpp.html" target="_top" xlink:title="xnetwork/classes/reportviews.hpp">
<polygon fill="#ffffff" stroke="#000000" points="176.5237,-56.5 176.5237,-75.5 341.5237,-75.5 341.5237,-56.5 176.5237,-56.5"/>
<text text-anchor="middle" x="259.0237" y="-63.5" font-family="Helvetica,sans-Serif" font-size="10.00" fill="#000000">xnetwork/classes/reportviews.hpp</text>
</a>
</g>
</g>
<!-- Node0&#45;&gt;Node13 -->
<g id="edge24" class="edge">
<title>Node0&#45;&gt;Node13</title>
<path fill="none" stroke="#191970" d="M354.6432,-168.1389C334.1041,-146.1994 296.4896,-106.0203 275.0701,-83.1404"/>
<polygon fill="#191970" stroke="#191970" points="277.3624,-80.4677 267.973,-75.5595 272.2522,-85.2517 277.3624,-80.4677"/>
</g>
<!-- Node14 -->
<g id="node15" class="node">
<title>Node14</title>
<polygon fill="#ffffff" stroke="#bfbfbf" points="793.0237,-112.5 793.0237,-131.5 913.0237,-131.5 913.0237,-112.5 793.0237,-112.5"/>
<text text-anchor="middle" x="853.0237" y="-119.5" font-family="Helvetica,sans-Serif" font-size="10.00" fill="#000000">boost/coroutine2/all.hpp</text>
</g>
<!-- Node0&#45;&gt;Node14 -->
<g id="edge25" class="edge">
<title>Node0&#45;&gt;Node14</title>
<path fill="none" stroke="#191970" d="M425.0832,-176.6271C504.0608,-166.906 652.5761,-148.4849 779.0237,-132 780.2892,-131.835 781.5667,-131.668 782.8535,-131.4992"/>
<polygon fill="#191970" stroke="#191970" points="783.3987,-134.9577 792.8546,-130.1789 782.4825,-128.0179 783.3987,-134.9577"/>
</g>
<!-- Node4 -->
<g id="node5" class="node">
<title>Node4</title>
<polygon fill="#ffffff" stroke="#bfbfbf" points="222.5237,-.5 222.5237,-19.5 295.5237,-19.5 295.5237,-.5 222.5237,-.5"/>
<text text-anchor="middle" x="259.0237" y="-7.5" font-family="Helvetica,sans-Serif" font-size="10.00" fill="#000000">initializer_list</text>
</g>
<!-- Node3&#45;&gt;Node4 -->
<g id="edge4" class="edge">
<title>Node3&#45;&gt;Node4</title>
<path fill="none" stroke="#191970" d="M384.0659,-56.3733C359.283,-47.1822 321.7491,-33.2624 294.2697,-23.0713"/>
<polygon fill="#191970" stroke="#191970" points="295.2359,-19.6968 284.6428,-19.5011 292.8018,-26.26 295.2359,-19.6968"/>
</g>
<!-- Node5 -->
<g id="node6" class="node">
<title>Node5</title>
<polygon fill="#ffffff" stroke="#bfbfbf" points="410.0237,-.5 410.0237,-19.5 448.0237,-19.5 448.0237,-.5 410.0237,-.5"/>
<text text-anchor="middle" x="429.0237" y="-7.5" font-family="Helvetica,sans-Serif" font-size="10.00" fill="#000000">tuple</text>
</g>
<!-- Node3&#45;&gt;Node5 -->
<g id="edge5" class="edge">
<title>Node3&#45;&gt;Node5</title>
<path fill="none" stroke="#191970" d="M413.3333,-56.2455C415.8671,-48.7776 419.4414,-38.2427 422.5387,-29.1137"/>
<polygon fill="#191970" stroke="#191970" points="425.8535,-30.237 425.7521,-19.6427 419.2247,-27.9879 425.8535,-30.237"/>
</g>
<!-- Node3&#45;&gt;Node6 -->
<g id="edge6" class="edge">
<title>Node3&#45;&gt;Node6</title>
<path fill="none" stroke="#191970" d="M442.514,-56.3733C474.5021,-46.8953 523.4621,-32.3886 558.0917,-22.128"/>
<polygon fill="#191970" stroke="#191970" points="559.3041,-25.4193 567.8978,-19.2225 557.3155,-18.7077 559.3041,-25.4193"/>
</g>
<!-- Node7 -->
<g id="node8" class="node">
<title>Node7</title>
<polygon fill="#ffffff" stroke="#bfbfbf" points="466.5237,-.5 466.5237,-19.5 549.5237,-19.5 549.5237,-.5 466.5237,-.5"/>
<text text-anchor="middle" x="508.0237" y="-7.5" font-family="Helvetica,sans-Serif" font-size="10.00" fill="#000000">unordered_map</text>
</g>
<!-- Node3&#45;&gt;Node7 -->
<g id="edge7" class="edge">
<title>Node3&#45;&gt;Node7</title>
<path fill="none" stroke="#191970" d="M427.094,-56.2455C442.2708,-47.5731 464.6859,-34.7645 482.08,-24.825"/>
<polygon fill="#191970" stroke="#191970" points="484.2031,-27.643 491.1491,-19.6427 480.7301,-21.5653 484.2031,-27.643"/>
</g>
<!-- Node8 -->
<g id="node9" class="node">
<title>Node8</title>
<polygon fill="#ffffff" stroke="#bfbfbf" points="314.0237,-.5 314.0237,-19.5 392.0237,-19.5 392.0237,-.5 314.0237,-.5"/>
<text text-anchor="middle" x="353.0237" y="-7.5" font-family="Helvetica,sans-Serif" font-size="10.00" fill="#000000">unordered_set</text>
</g>
<!-- Node3&#45;&gt;Node8 -->
<g id="edge8" class="edge">
<title>Node3&#45;&gt;Node8</title>
<path fill="none" stroke="#191970" d="M400.0951,-56.2455C391.84,-48.1352 379.9028,-36.4075 370.1155,-26.7919"/>
<polygon fill="#191970" stroke="#191970" points="372.4249,-24.1542 362.8386,-19.6427 367.5191,-29.1476 372.4249,-24.1542"/>
</g>
<!-- Node3&#45;&gt;Node9 -->
<g id="edge9" class="edge">
<title>Node3&#45;&gt;Node9</title>
<path fill="none" stroke="#191970" d="M363.1048,-56.4633C325.1657,-48.4331 270.2259,-36.0873 213.9905,-20.0763"/>
<polygon fill="#191970" stroke="#191970" points="214.7988,-16.6669 204.2207,-17.2609 212.8604,-23.3931 214.7988,-16.6669"/>
</g>
<!-- Node11&#45;&gt;Node1 -->
<g id="edge14" class="edge">
<title>Node11&#45;&gt;Node1</title>
<path fill="none" stroke="#191970" d="M348.3483,-113.1803C286.0585,-105.0078 192.0656,-91.9703 101.1973,-76.1269"/>
<polygon fill="#191970" stroke="#191970" points="101.7333,-72.6675 91.2784,-74.3839 100.5218,-79.5619 101.7333,-72.6675"/>
</g>
<!-- Node11&#45;&gt;Node2 -->
<g id="edge15" class="edge">
<title>Node11&#45;&gt;Node2</title>
<path fill="none" stroke="#191970" d="M354.9446,-112.4669C306.3234,-104.6563 237.2657,-92.5634 168.8884,-76.2722"/>
<polygon fill="#191970" stroke="#191970" points="169.3496,-72.7831 158.8074,-73.8382 167.7066,-79.5875 169.3496,-72.7831"/>
</g>
<!-- Node11&#45;&gt;Node3 -->
<g id="edge16" class="edge">
<title>Node11&#45;&gt;Node3</title>
<path fill="none" stroke="#191970" d="M416.6303,-112.2455C415.5864,-104.9382 414.1229,-94.6944 412.8387,-85.7046"/>
<polygon fill="#191970" stroke="#191970" points="416.2804,-85.0472 411.4013,-75.6427 409.3507,-86.0372 416.2804,-85.0472"/>
</g>
<!-- Node11&#45;&gt;Node6 -->
<g id="edge17" class="edge">
<title>Node11&#45;&gt;Node6</title>
<path fill="none" stroke="#191970" d="M429.8108,-112.3763C446.5992,-98.9007 478.6277,-74.0387 508.0237,-56 527.3742,-44.1257 550.1754,-32.6039 568.1133,-24.0617"/>
<polygon fill="#191970" stroke="#191970" points="569.9633,-27.0595 577.5256,-19.6392 566.9865,-20.724 569.9633,-27.0595"/>
</g>
<!-- Node11&#45;&gt;Node10 -->
<g id="edge18" class="edge">
<title>Node11&#45;&gt;Node10</title>
<path fill="none" stroke="#191970" d="M438.8244,-112.3733C458.248,-103.3838 487.4461,-89.8706 509.3202,-79.7471"/>
<polygon fill="#191970" stroke="#191970" points="510.8894,-82.8776 518.4945,-75.5011 507.9493,-76.5249 510.8894,-82.8776"/>
</g>
<!-- Node11&#45;&gt;Node12 -->
<g id="edge19" class="edge">
<title>Node11&#45;&gt;Node12</title>
<path fill="none" stroke="#191970" d="M459.0085,-112.4369C499.9964,-102.8731 563.1242,-88.1432 607.2595,-77.845"/>
<polygon fill="#191970" stroke="#191970" points="608.2649,-81.2045 617.208,-75.5237 606.6743,-74.3876 608.2649,-81.2045"/>
</g>
<!-- Node11&#45;&gt;Node13 -->
<g id="edge20" class="edge">
<title>Node11&#45;&gt;Node13</title>
<path fill="none" stroke="#191970" d="M390.6907,-112.3733C364.4803,-103.1419 324.7254,-89.1402 295.7569,-78.9375"/>
<polygon fill="#191970" stroke="#191970" points="296.595,-75.5219 286.0001,-75.5011 294.2695,-82.1244 296.595,-75.5219"/>
</g>
<!-- Node13&#45;&gt;Node4 -->
<g id="edge21" class="edge">
<title>Node13&#45;&gt;Node4</title>
<path fill="none" stroke="#191970" d="M259.0237,-56.2455C259.0237,-48.9382 259.0237,-38.6944 259.0237,-29.7046"/>
<polygon fill="#191970" stroke="#191970" points="262.5238,-29.6426 259.0237,-19.6427 255.5238,-29.6427 262.5238,-29.6426"/>
</g>
<!-- Node13&#45;&gt;Node9 -->
<g id="edge22" class="edge">
<title>Node13&#45;&gt;Node9</title>
<path fill="none" stroke="#191970" d="M245.9597,-56.2455C234.6675,-47.814 218.1393,-35.4729 204.9966,-25.6598"/>
<polygon fill="#191970" stroke="#191970" points="207.0449,-22.8211 196.938,-19.6427 202.8568,-28.4301 207.0449,-22.8211"/>
</g>
</g>
</svg>
        <g id="navigator" transform="translate(0 0)" fill="#404254">
                <rect fill="#f2f5e9" fill-opacity="0.5" stroke="#606060" stroke-width=".5" x="0" y="0" width="60" height="60"/>
                <use id="zoomplus" xlink:href="#zoomPlus" x="17" y="9" onmousedown="handleZoom(evt,'in')"/>
                <use id="zoomminus" xlink:href="#zoomMin" x="42" y="9" onmousedown="handleZoom(evt,'out')"/>
                <use id="reset" xlink:href="#resetDef" x="30" y="36" onmousedown="handleReset()"/>
                <g id="arrowUp" xlink:href="#dirArrow" transform="translate(30 24)" onmousedown="handlePan(0,-1)">
                  <use xlink:href="#rim" fill="#404040">
                        <set attributeName="fill" to="#808080" begin="arrowUp.mouseover" end="arrowUp.mouseout"/>
                  </use>
                  <path fill="none" stroke="white" stroke-width="1.5" d="M0,-3.0v7 M-2.5,-0.5L0,-3.0L2.5,-0.5"/>
                </g>
                <g id="arrowRight" xlink:href="#dirArrow" transform="rotate(90) translate(36 -43)" onmousedown="handlePan(1,0)">
                  <use xlink:href="#rim" fill="#404040">
                        <set attributeName="fill" to="#808080" begin="arrowRight.mouseover" end="arrowRight.mouseout"/>
                  </use>
                  <path fill="none" stroke="white" stroke-width="1.5" d="M0,-3.0v7 M-2.5,-0.5L0,-3.0L2.5,-0.5"/>
                </g>
                <g id="arrowDown" xlink:href="#dirArrow" transform="rotate(180) translate(-30 -48)" onmousedown="handlePan(0,1)">
                  <use xlink:href="#rim" fill="#404040">
                        <set attributeName="fill" to="#808080" begin="arrowDown.mouseover" end="arrowDown.mouseout"/>
                  </use>
                  <path fill="none" stroke="white" stroke-width="1.5" d="M0,-3.0v7 M-2.5,-0.5L0,-3.0L2.5,-0.5"/>
                </g>
                <g id="arrowLeft" xlink:href="#dirArrow" transform="rotate(270) translate(-36 17)" onmousedown="handlePan(-1,0)">
                  <use xlink:href="#rim" fill="#404040">
                        <set attributeName="fill" to="#808080" begin="arrowLeft.mouseover" end="arrowLeft.mouseout"/>
                  </use>
                  <path fill="none" stroke="white" stroke-width="1.5" d="M0,-3.0v7 M-2.5,-0.5L0,-3.0L2.5,-0.5"/>
                </g>
        </g>
        <svg viewBox="0 0 15 15" width="100%" height="30px" preserveAspectRatio="xMaxYMin meet">
         <g id="arrow_out" transform="scale(0.3 0.3)">
          <a xlink:href="digraphs_8hpp__incl_org.svg" target="_base">
           <rect id="button" ry="5" rx="5" y="6" x="6" height="38" width="38"
                fill="#f2f5e9" fill-opacity="0.5" stroke="#606060" stroke-width="1.0"/>
           <path id="arrow"
             d="M 11.500037,31.436501 C 11.940474,20.09759 22.043105,11.32322 32.158766,21.979434 L 37.068811,17.246167 C 37.068811,17.246167 37.088388,32 37.088388,32 L 22.160133,31.978069 C 22.160133,31.978069 26.997745,27.140456 26.997745,27.140456 C 18.528582,18.264221 13.291696,25.230495 11.500037,31.436501 z"
             style="fill:#404040;"/>
          </a>
         </g>
        </svg>
</svg>
