<?xml version="1.0" encoding="UTF-8" standalone="no"?>
<!DOCTYPE svg PUBLIC "-//W3C//DTD SVG 1.1//EN"
 "http://www.w3.org/Graphics/SVG/1.1/DTD/svg11.dtd">
<!-- Generated by graphviz version 2.40.1 (20161225.0304)
 -->
<!-- Title: lib/include/xnetwork/classes/graph.hpp Pages: 1 -->
<svg width="733pt" height="151pt"
 viewBox="0.00 0.00 732.50 151.00" xmlns="http://www.w3.org/2000/svg" xmlns:xlink="http://www.w3.org/1999/xlink">
<g id="graph0" class="graph" transform="scale(1 1) rotate(0) translate(4 147)">
<title>lib/include/xnetwork/classes/graph.hpp</title>
<polygon fill="#ffffff" stroke="transparent" points="-4,4 -4,-147 728.5,-147 728.5,4 -4,4"/>
<!-- Node0 -->
<g id="node1" class="node">
<title>Node0</title>
<polygon fill="#bfbfbf" stroke="#000000" points="345.5,-112.5 345.5,-142.5 448.5,-142.5 448.5,-112.5 345.5,-112.5"/>
<text text-anchor="start" x="353.5" y="-130.5" font-family="Helvetica,sans-Serif" font-size="10.00" fill="#000000">lib/include/xnetwork</text>
<text text-anchor="middle" x="397" y="-119.5" font-family="Helvetica,sans-Serif" font-size="10.00" fill="#000000">/classes/graph.hpp</text>
</g>
<!-- Node1 -->
<g id="node2" class="node">
<title>Node1</title>
<polygon fill="#ffffff" stroke="#bfbfbf" points="0,-56.5 0,-75.5 78,-75.5 78,-56.5 0,-56.5"/>
<text text-anchor="middle" x="39" y="-63.5" font-family="Helvetica,sans-Serif" font-size="10.00" fill="#000000">boost/any.hpp</text>
</g>
<!-- Node0&#45;&gt;Node1 -->
<g id="edge1" class="edge">
<title>Node0&#45;&gt;Node1</title>
<path fill="none" stroke="#191970" d="M345.3266,-119.5756C285.7449,-110.2911 184.6227,-94.0826 87.9491,-76.1215"/>
<polygon fill="#191970" stroke="#191970" points="88.4789,-72.6601 78.0064,-74.265 87.194,-79.5411 88.4789,-72.6601"/>
</g>
<!-- Node2 -->
<g id="node3" class="node">
<title>Node2</title>
<polygon fill="#ffffff" stroke="#bfbfbf" points="96.5,-56.5 96.5,-75.5 145.5,-75.5 145.5,-56.5 96.5,-56.5"/>
<text text-anchor="middle" x="121" y="-63.5" font-family="Helvetica,sans-Serif" font-size="10.00" fill="#000000">cassert</text>
</g>
<!-- Node0&#45;&gt;Node2 -->
<g id="edge2" class="edge">
<title>Node0&#45;&gt;Node2</title>
<path fill="none" stroke="#191970" d="M345.279,-117.6824C298.3092,-108.499 226.9375,-93.8798 155.8487,-76.0721"/>
<polygon fill="#191970" stroke="#191970" points="156.3749,-72.5951 145.8222,-73.5384 154.6599,-79.3818 156.3749,-72.5951"/>
</g>
<!-- Node3 -->
<g id="node4" class="node">
<title>Node3</title>
<g id="a_node4"><a xlink:href="py2cpp_8hpp.html" target="_top" xlink:title="py2cpp/py2cpp.hpp">
<polygon fill="#ffffff" stroke="#000000" points="346.5,-56.5 346.5,-75.5 447.5,-75.5 447.5,-56.5 346.5,-56.5"/>
<text text-anchor="middle" x="397" y="-63.5" font-family="Helvetica,sans-Serif" font-size="10.00" fill="#000000">py2cpp/py2cpp.hpp</text>
</a>
</g>
</g>
<!-- Node0&#45;&gt;Node3 -->
<g id="edge3" class="edge">
<title>Node0&#45;&gt;Node3</title>
<path fill="none" stroke="#191970" d="M397,-112.2977C397,-104.3834 397,-94.6043 397,-86.0759"/>
<polygon fill="#191970" stroke="#191970" points="400.5001,-85.8469 397,-75.8469 393.5001,-85.847 400.5001,-85.8469"/>
</g>
<!-- Node6 -->
<g id="node7" class="node">
<title>Node6</title>
<polygon fill="#ffffff" stroke="#bfbfbf" points="553,-.5 553,-19.5 615,-19.5 615,-.5 553,-.5"/>
<text text-anchor="middle" x="584" y="-7.5" font-family="Helvetica,sans-Serif" font-size="10.00" fill="#000000">type_traits</text>
</g>
<!-- Node0&#45;&gt;Node6 -->
<g id="edge10" class="edge">
<title>Node0&#45;&gt;Node6</title>
<path fill="none" stroke="#191970" d="M415.9156,-112.352C435.2216,-97.2187 466.3371,-73.7187 495,-56 514.0989,-44.1935 536.5676,-32.5971 554.1508,-24.001"/>
<polygon fill="#191970" stroke="#191970" points="555.8812,-27.0522 563.3642,-19.5519 552.8372,-20.7487 555.8812,-27.0522"/>
</g>
<!-- Node10 -->
<g id="node11" class="node">
<title>Node10</title>
<polygon fill="#ffffff" stroke="#bfbfbf" points="504,-56.5 504,-75.5 548,-75.5 548,-56.5 504,-56.5"/>
<text text-anchor="middle" x="526" y="-63.5" font-family="Helvetica,sans-Serif" font-size="10.00" fill="#000000">vector</text>
</g>
<!-- Node0&#45;&gt;Node10 -->
<g id="edge11" class="edge">
<title>Node0&#45;&gt;Node10</title>
<path fill="none" stroke="#191970" d="M428.557,-112.4554C449.4201,-102.509 476.5691,-89.5659 496.9098,-79.8686"/>
<polygon fill="#191970" stroke="#191970" points="498.4891,-82.9931 506.0096,-75.5303 495.4767,-76.6744 498.4891,-82.9931"/>
</g>
<!-- Node11 -->
<g id="node12" class="node">
<title>Node11</title>
<g id="a_node12"><a xlink:href="coreviews_8hpp.html" target="_top" xlink:title="xnetwork/classes/coreviews.hpp">
<polygon fill="#ffffff" stroke="#000000" points="565.5,-56.5 565.5,-75.5 724.5,-75.5 724.5,-56.5 565.5,-56.5"/>
<text text-anchor="middle" x="645" y="-63.5" font-family="Helvetica,sans-Serif" font-size="10.00" fill="#000000">xnetwork/classes/coreviews.hpp</text>
</a>
</g>
</g>
<!-- Node0&#45;&gt;Node11 -->
<g id="edge12" class="edge">
<title>Node0&#45;&gt;Node11</title>
<path fill="none" stroke="#191970" d="M448.6871,-114.6824C492.1873,-103.8951 553.9379,-88.5819 596.5111,-78.0245"/>
<polygon fill="#191970" stroke="#191970" points="597.4976,-81.3859 606.3612,-75.5818 595.8127,-74.5917 597.4976,-81.3859"/>
</g>
<!-- Node12 -->
<g id="node13" class="node">
<title>Node12</title>
<g id="a_node13"><a xlink:href="reportviews_8hpp.html" target="_top" xlink:title="xnetwork/classes/reportviews.hpp">
<polygon fill="#ffffff" stroke="#000000" points="163.5,-56.5 163.5,-75.5 328.5,-75.5 328.5,-56.5 163.5,-56.5"/>
<text text-anchor="middle" x="246" y="-63.5" font-family="Helvetica,sans-Serif" font-size="10.00" fill="#000000">xnetwork/classes/reportviews.hpp</text>
</a>
</g>
</g>
<!-- Node0&#45;&gt;Node12 -->
<g id="edge13" class="edge">
<title>Node0&#45;&gt;Node12</title>
<path fill="none" stroke="#191970" d="M360.0612,-112.4554C335.198,-102.329 302.7082,-89.0964 278.7664,-79.3453"/>
<polygon fill="#191970" stroke="#191970" points="279.9812,-76.0609 269.3996,-75.5303 277.3407,-82.5438 279.9812,-76.0609"/>
</g>
<!-- Node4 -->
<g id="node5" class="node">
<title>Node4</title>
<polygon fill="#ffffff" stroke="#bfbfbf" points="149.5,-.5 149.5,-19.5 222.5,-19.5 222.5,-.5 149.5,-.5"/>
<text text-anchor="middle" x="186" y="-7.5" font-family="Helvetica,sans-Serif" font-size="10.00" fill="#000000">initializer_list</text>
</g>
<!-- Node3&#45;&gt;Node4 -->
<g id="edge4" class="edge">
<title>Node3&#45;&gt;Node4</title>
<path fill="none" stroke="#191970" d="M360.7278,-56.3733C325.0342,-46.9001 270.4121,-32.4032 231.7549,-22.1435"/>
<polygon fill="#191970" stroke="#191970" points="232.3621,-18.6835 221.7989,-19.5011 230.5664,-25.4493 232.3621,-18.6835"/>
</g>
<!-- Node5 -->
<g id="node6" class="node">
<title>Node5</title>
<polygon fill="#ffffff" stroke="#bfbfbf" points="299,-.5 299,-19.5 337,-19.5 337,-.5 299,-.5"/>
<text text-anchor="middle" x="318" y="-7.5" font-family="Helvetica,sans-Serif" font-size="10.00" fill="#000000">tuple</text>
</g>
<!-- Node3&#45;&gt;Node5 -->
<g id="edge5" class="edge">
<title>Node3&#45;&gt;Node5</title>
<path fill="none" stroke="#191970" d="M383.2393,-56.2455C371.3448,-47.814 353.935,-35.4729 340.0915,-25.6598"/>
<polygon fill="#191970" stroke="#191970" points="341.7854,-22.5704 331.6031,-19.6427 337.7372,-28.2811 341.7854,-22.5704"/>
</g>
<!-- Node3&#45;&gt;Node6 -->
<g id="edge6" class="edge">
<title>Node3&#45;&gt;Node6</title>
<path fill="none" stroke="#191970" d="M429.1464,-56.3733C460.701,-46.9238 508.9472,-32.4757 543.192,-22.2206"/>
<polygon fill="#191970" stroke="#191970" points="544.3188,-25.5368 552.8944,-19.315 542.3106,-18.831 544.3188,-25.5368"/>
</g>
<!-- Node7 -->
<g id="node8" class="node">
<title>Node7</title>
<polygon fill="#ffffff" stroke="#bfbfbf" points="355.5,-.5 355.5,-19.5 438.5,-19.5 438.5,-.5 355.5,-.5"/>
<text text-anchor="middle" x="397" y="-7.5" font-family="Helvetica,sans-Serif" font-size="10.00" fill="#000000">unordered_map</text>
</g>
<!-- Node3&#45;&gt;Node7 -->
<g id="edge7" class="edge">
<title>Node3&#45;&gt;Node7</title>
<path fill="none" stroke="#191970" d="M397,-56.2455C397,-48.9382 397,-38.6944 397,-29.7046"/>
<polygon fill="#191970" stroke="#191970" points="400.5001,-29.6426 397,-19.6427 393.5001,-29.6427 400.5001,-29.6426"/>
</g>
<!-- Node8 -->
<g id="node9" class="node">
<title>Node8</title>
<polygon fill="#ffffff" stroke="#bfbfbf" points="457,-.5 457,-19.5 535,-19.5 535,-.5 457,-.5"/>
<text text-anchor="middle" x="496" y="-7.5" font-family="Helvetica,sans-Serif" font-size="10.00" fill="#000000">unordered_set</text>
</g>
<!-- Node3&#45;&gt;Node8 -->
<g id="edge8" class="edge">
<title>Node3&#45;&gt;Node8</title>
<path fill="none" stroke="#191970" d="M414.2445,-56.2455C429.5761,-47.5731 452.2199,-34.7645 469.7916,-24.825"/>
<polygon fill="#191970" stroke="#191970" points="471.9724,-27.6126 478.9531,-19.6427 468.5259,-21.5198 471.9724,-27.6126"/>
</g>
<!-- Node9 -->
<g id="node10" class="node">
<title>Node9</title>
<polygon fill="#ffffff" stroke="#bfbfbf" points="241,-.5 241,-19.5 281,-19.5 281,-.5 241,-.5"/>
<text text-anchor="middle" x="261" y="-7.5" font-family="Helvetica,sans-Serif" font-size="10.00" fill="#000000">utility</text>
</g>
<!-- Node3&#45;&gt;Node9 -->
<g id="edge9" class="edge">
<title>Node3&#45;&gt;Node9</title>
<path fill="none" stroke="#191970" d="M373.6208,-56.3733C350.691,-46.9316 315.6419,-32.4996 290.7403,-22.246"/>
<polygon fill="#191970" stroke="#191970" points="291.9917,-18.9762 281.4123,-18.4051 289.3264,-25.449 291.9917,-18.9762"/>
</g>
<!-- Node12&#45;&gt;Node4 -->
<g id="edge14" class="edge">
<title>Node12&#45;&gt;Node4</title>
<path fill="none" stroke="#191970" d="M235.5488,-56.2455C226.7731,-48.0549 214.0446,-36.1749 203.686,-26.5069"/>
<polygon fill="#191970" stroke="#191970" points="206.0301,-23.9072 196.3314,-19.6427 201.2539,-29.0246 206.0301,-23.9072"/>
</g>
<!-- Node12&#45;&gt;Node9 -->
<g id="edge15" class="edge">
<title>Node12&#45;&gt;Node9</title>
<path fill="none" stroke="#191970" d="M248.6128,-56.2455C250.5916,-48.8579 253.3744,-38.4689 255.8012,-29.4087"/>
<polygon fill="#191970" stroke="#191970" points="259.2105,-30.2078 258.4171,-19.6427 252.4489,-28.3966 259.2105,-30.2078"/>
</g>
</g>
</svg>
