<?xml version="1.0" encoding="UTF-8" standalone="no"?>
<!DOCTYPE svg PUBLIC "-//W3C//DTD SVG 1.1//EN"
 "http://www.w3.org/Graphics/SVG/1.1/DTD/svg11.dtd">
<!-- Generated by graphviz version 2.40.1 (20161225.0304)
 -->
<!-- Title: Graphical Class Hierarchy Pages: 1 -->
<svg width="855pt" height="229pt"
 viewBox="0.00 0.00 855.00 228.88" xmlns="http://www.w3.org/2000/svg" xmlns:xlink="http://www.w3.org/1999/xlink">
<g id="graph0" class="graph" transform="scale(1 1) rotate(0) translate(4 224.8802)">
<title>Graphical Class Hierarchy</title>
<polygon fill="#ffffff" stroke="transparent" points="-4,4 -4,-224.8802 851,-224.8802 851,4 -4,4"/>
<!-- Node2 -->
<g id="node1" class="node">
<title>Node2</title>
<g id="a_node1"><a xlink:href="classxn_1_1Graph.html" target="_top" xlink:title="STL class. ">
<polygon fill="#ffffff" stroke="#000000" points="0,-78.3802 0,-108.3802 110,-108.3802 110,-78.3802 0,-78.3802"/>
<text text-anchor="start" x="8" y="-96.3802" font-family="Helvetica,sans-Serif" font-size="10.00" fill="#000000">xn::Graph&lt; nodeview</text>
<text text-anchor="middle" x="55" y="-85.3802" font-family="Helvetica,sans-Serif" font-size="10.00" fill="#000000">_t, adjlist_t &gt;</text>
</a>
</g>
</g>
<!-- Node0 -->
<g id="node2" class="node">
<title>Node0</title>
<g id="a_node2"><a xlink:href="classpy_1_1dict.html" target="_top" xlink:title="py::dict\&lt; const char\l *, std::any \&gt;">
<polygon fill="#ffffff" stroke="#000000" points="159.5,-190.3802 159.5,-220.3802 263.5,-220.3802 263.5,-190.3802 159.5,-190.3802"/>
<text text-anchor="start" x="167.5" y="-208.3802" font-family="Helvetica,sans-Serif" font-size="10.00" fill="#000000">py::dict&lt; const char</text>
<text text-anchor="middle" x="211.5" y="-197.3802" font-family="Helvetica,sans-Serif" font-size="10.00" fill="#000000"> *, std::any &gt;</text>
</a>
</g>
</g>
<!-- Node2&#45;&gt;Node0 -->
<g id="edge1" class="edge">
<title>Node2&#45;&gt;Node0</title>
<path fill="none" stroke="#191970" d="M73.7549,-116.269C90.8336,-135.8497 117.6491,-163.6084 146,-181.3802 151.3359,-184.7251 157.2067,-187.7013 163.1748,-190.3207"/>
<polygon fill="#191970" stroke="#191970" points="76.2134,-113.7585 67.0555,-108.4309 70.8923,-118.3067 76.2134,-113.7585"/>
</g>
<!-- Node3 -->
<g id="node4" class="node">
<title>Node3</title>
<g id="a_node4"><a xlink:href="classxn_1_1DiGraphS.html" target="_top" xlink:title="xn::DiGraphS\&lt; nodeview\l_t, adjlist_t \&gt;">
<polygon fill="#ffffff" stroke="#000000" points="148.5,-141.3802 148.5,-171.3802 274.5,-171.3802 274.5,-141.3802 148.5,-141.3802"/>
<text text-anchor="start" x="156.5" y="-159.3802" font-family="Helvetica,sans-Serif" font-size="10.00" fill="#000000">xn::DiGraphS&lt; nodeview</text>
<text text-anchor="middle" x="211.5" y="-148.3802" font-family="Helvetica,sans-Serif" font-size="10.00" fill="#000000">_t, adjlist_t &gt;</text>
</a>
</g>
</g>
<!-- Node2&#45;&gt;Node3 -->
<g id="edge4" class="edge">
<title>Node2&#45;&gt;Node3</title>
<path fill="none" stroke="#191970" d="M99.7116,-112.3746C114.4164,-118.5349 130.8713,-125.336 146,-131.3802 154.2512,-134.6767 163.1227,-138.126 171.5898,-141.373"/>
<polygon fill="#191970" stroke="#191970" points="100.9077,-109.0808 90.3326,-108.4334 98.1958,-115.5342 100.9077,-109.0808"/>
</g>
<!-- Node10 -->
<g id="node8" class="node">
<title>Node10</title>
<g id="a_node8"><a xlink:href="classpy_1_1dict.html" target="_top" xlink:title="py::dict\&lt; node_t, edge_t \&gt;">
<polygon fill="#ffffff" stroke="#000000" points="146,-102.8802 146,-121.8802 277,-121.8802 277,-102.8802 146,-102.8802"/>
<text text-anchor="middle" x="211.5" y="-109.8802" font-family="Helvetica,sans-Serif" font-size="10.00" fill="#000000">py::dict&lt; node_t, edge_t &gt;</text>
</a>
</g>
</g>
<!-- Node2&#45;&gt;Node10 -->
<g id="edge8" class="edge">
<title>Node2&#45;&gt;Node10</title>
<path fill="none" stroke="#191970" d="M120.3299,-101.3116C128.7603,-102.3351 137.3965,-103.3836 145.8323,-104.4078"/>
<polygon fill="#191970" stroke="#191970" points="120.525,-97.8097 110.176,-100.0789 119.6813,-104.7587 120.525,-97.8097"/>
</g>
<!-- Node11 -->
<g id="node9" class="node">
<title>Node11</title>
<g id="a_node9"><a xlink:href="classpy_1_1dict.html" target="_top" xlink:title="py::dict\&lt; node_t, node_t \&gt;">
<polygon fill="#ffffff" stroke="#000000" points="146,-64.8802 146,-83.8802 277,-83.8802 277,-64.8802 146,-64.8802"/>
<text text-anchor="middle" x="211.5" y="-71.8802" font-family="Helvetica,sans-Serif" font-size="10.00" fill="#000000">py::dict&lt; node_t, node_t &gt;</text>
</a>
</g>
</g>
<!-- Node2&#45;&gt;Node11 -->
<g id="edge9" class="edge">
<title>Node2&#45;&gt;Node11</title>
<path fill="none" stroke="#191970" d="M120.3299,-85.4488C128.7603,-84.4253 137.3965,-83.3768 145.8323,-82.3526"/>
<polygon fill="#191970" stroke="#191970" points="119.6813,-82.0017 110.176,-86.6815 120.525,-88.9507 119.6813,-82.0017"/>
</g>
<!-- Node12 -->
<g id="node10" class="node">
<title>Node12</title>
<g id="a_node10"><a xlink:href="classpy_1_1dict.html" target="_top" xlink:title="py::dict\&lt; Key, T \&gt;">
<polygon fill="#ffffff" stroke="#000000" points="163.5,-26.8802 163.5,-45.8802 259.5,-45.8802 259.5,-26.8802 163.5,-26.8802"/>
<text text-anchor="middle" x="211.5" y="-33.8802" font-family="Helvetica,sans-Serif" font-size="10.00" fill="#000000">py::dict&lt; Key, T &gt;</text>
</a>
</g>
</g>
<!-- Node2&#45;&gt;Node12 -->
<g id="edge10" class="edge">
<title>Node2&#45;&gt;Node12</title>
<path fill="none" stroke="#191970" d="M98.2965,-74.1234C113.2651,-67.7815 130.2381,-60.9372 146,-55.3802 155.6033,-51.9945 166.1463,-48.7394 175.9139,-45.9091"/>
<polygon fill="#191970" stroke="#191970" points="96.5957,-71.0443 88.7823,-78.1998 99.3525,-77.4786 96.5957,-71.0443"/>
</g>
<!-- Node1 -->
<g id="node3" class="node">
<title>Node1</title>
<g id="a_node3"><a xlink:href="structxn_1_1object.html" target="_top" xlink:title="xn::object">
<polygon fill="#ffffff" stroke="#000000" points="313,-91.8802 313,-110.8802 372,-110.8802 372,-91.8802 313,-91.8802"/>
<text text-anchor="middle" x="342.5" y="-98.8802" font-family="Helvetica,sans-Serif" font-size="10.00" fill="#000000">xn::object</text>
</a>
</g>
</g>
<!-- Node0&#45;&gt;Node1 -->
<g id="edge2" class="edge">
<title>Node0&#45;&gt;Node1</title>
<path fill="none" stroke="#191970" d="M270.5097,-185.5633C272.7535,-184.247 274.9271,-182.8537 277,-181.3802 304.6516,-161.724 327.1752,-127.4867 337.0709,-110.912"/>
<polygon fill="#191970" stroke="#191970" points="268.7922,-182.512 261.5717,-190.2654 272.0513,-188.7071 268.7922,-182.512"/>
</g>
<!-- Node1&#45;&gt;Node2 -->
<g id="edge3" class="edge">
<title>Node1&#45;&gt;Node2</title>
<path fill="none" stroke="#191970" d="M334.1265,-82.5141C323.9274,-62.1563 304.5784,-30.8473 277,-17.3802 224.6823,8.1675 200.734,2.4697 146,-17.3802 112.7171,-29.4506 83.0793,-59.609 67.2128,-78.1009"/>
<polygon fill="#191970" stroke="#191970" points="331.0614,-84.2192 338.508,-91.7558 337.3866,-81.2205 331.0614,-84.2192"/>
</g>
<!-- Node4 -->
<g id="node5" class="node">
<title>Node4</title>
<g id="a_node5"><a xlink:href="classxn_1_1Graph.html" target="_top" xlink:title="xn::Graph\&lt; __nodeview\l_t, adjlist_t \&gt;">
<polygon fill="#ffffff" stroke="#000000" points="408,-86.3802 408,-116.3802 528,-116.3802 528,-86.3802 408,-86.3802"/>
<text text-anchor="start" x="416" y="-104.3802" font-family="Helvetica,sans-Serif" font-size="10.00" fill="#000000">xn::Graph&lt; __nodeview</text>
<text text-anchor="middle" x="468" y="-93.3802" font-family="Helvetica,sans-Serif" font-size="10.00" fill="#000000">_t, adjlist_t &gt;</text>
</a>
</g>
</g>
<!-- Node1&#45;&gt;Node4 -->
<g id="edge5" class="edge">
<title>Node1&#45;&gt;Node4</title>
<path fill="none" stroke="#191970" d="M382.4939,-101.3802C390.5904,-101.3802 399.2715,-101.3802 407.8862,-101.3802"/>
<polygon fill="#191970" stroke="#191970" points="382.2418,-97.8803 372.2417,-101.3802 382.2417,-104.8803 382.2418,-97.8803"/>
</g>
<!-- Node5 -->
<g id="node6" class="node">
<title>Node5</title>
<g id="a_node6"><a xlink:href="classxn_1_1VertexView.html" target="_top" xlink:title="xn::VertexView\&lt; Graph \&gt;">
<polygon fill="#ffffff" stroke="#000000" points="564,-91.8802 564,-110.8802 692,-110.8802 692,-91.8802 564,-91.8802"/>
<text text-anchor="middle" x="628" y="-98.8802" font-family="Helvetica,sans-Serif" font-size="10.00" fill="#000000">xn::VertexView&lt; Graph &gt;</text>
</a>
</g>
</g>
<!-- Node4&#45;&gt;Node5 -->
<g id="edge6" class="edge">
<title>Node4&#45;&gt;Node5</title>
<path fill="none" stroke="#191970" d="M538.3099,-101.3802C546.8169,-101.3802 555.4722,-101.3802 563.8834,-101.3802"/>
<polygon fill="#191970" stroke="#191970" points="538.0333,-97.8803 528.0333,-101.3802 538.0333,-104.8803 538.0333,-97.8803"/>
</g>
<!-- Node6 -->
<g id="node7" class="node">
<title>Node6</title>
<g id="a_node7"><a xlink:href="classxn_1_1grAdaptor.html" target="_top" xlink:title="xn::grAdaptor\&lt; Graph \&gt;">
<polygon fill="#ffffff" stroke="#000000" points="728,-91.8802 728,-110.8802 847,-110.8802 847,-91.8802 728,-91.8802"/>
<text text-anchor="middle" x="787.5" y="-98.8802" font-family="Helvetica,sans-Serif" font-size="10.00" fill="#000000">xn::grAdaptor&lt; Graph &gt;</text>
</a>
</g>
</g>
<!-- Node5&#45;&gt;Node6 -->
<g id="edge7" class="edge">
<title>Node5&#45;&gt;Node6</title>
<path fill="none" stroke="#191970" d="M702.6256,-101.3802C711.0483,-101.3802 719.5477,-101.3802 727.7456,-101.3802"/>
<polygon fill="#191970" stroke="#191970" points="702.415,-97.8803 692.415,-101.3802 702.415,-104.8803 702.415,-97.8803"/>
</g>
</g>
</svg>
