<?xml version="1.0" encoding="UTF-8" standalone="no"?>
<!DOCTYPE svg PUBLIC "-//W3C//DTD SVG 1.1//EN"
 "http://www.w3.org/Graphics/SVG/1.1/DTD/svg11.dtd">
<!-- Generated by graphviz version 2.40.1 (20161225.0304)
 -->
<!-- Title: lib/include/py2cpp/nx2bgl.hpp Pages: 1 -->
<svg width="522pt" height="106pt"
 viewBox="0.00 0.00 521.50 106.00" xmlns="http://www.w3.org/2000/svg" xmlns:xlink="http://www.w3.org/1999/xlink">
<g id="graph0" class="graph" transform="scale(1 1) rotate(0) translate(4 102)">
<title>lib/include/py2cpp/nx2bgl.hpp</title>
<polygon fill="#ffffff" stroke="transparent" points="-4,4 -4,-102 517.5,-102 517.5,4 -4,4"/>
<!-- Node0 -->
<g id="node1" class="node">
<title>Node0</title>
<polygon fill="#bfbfbf" stroke="#000000" points="235,-67.5 235,-97.5 330,-97.5 330,-67.5 235,-67.5"/>
<text text-anchor="start" x="243" y="-85.5" font-family="Helvetica,sans-Serif" font-size="10.00" fill="#000000">lib/include/py2cpp</text>
<text text-anchor="middle" x="282.5" y="-74.5" font-family="Helvetica,sans-Serif" font-size="10.00" fill="#000000">/nx2bgl.hpp</text>
</g>
<!-- Node1 -->
<g id="node2" class="node">
<title>Node1</title>
<polygon fill="#ffffff" stroke="#bfbfbf" points="0,-.5 0,-30.5 115,-30.5 115,-.5 0,-.5"/>
<text text-anchor="start" x="8" y="-18.5" font-family="Helvetica,sans-Serif" font-size="10.00" fill="#000000">boost/graph/adjacency</text>
<text text-anchor="middle" x="57.5" y="-7.5" font-family="Helvetica,sans-Serif" font-size="10.00" fill="#000000">_list.hpp</text>
</g>
<!-- Node0&#45;&gt;Node1 -->
<g id="edge1" class="edge">
<title>Node0&#45;&gt;Node1</title>
<path fill="none" stroke="#191970" d="M234.7833,-68.291C200.5612,-58.1004 154.2065,-44.297 117.4801,-33.3608"/>
<polygon fill="#191970" stroke="#191970" points="118.4636,-30.0018 107.8806,-30.5022 116.4658,-36.7107 118.4636,-30.0018"/>
</g>
<!-- Node2 -->
<g id="node3" class="node">
<title>Node2</title>
<polygon fill="#ffffff" stroke="#bfbfbf" points="133.5,-6 133.5,-25 273.5,-25 273.5,-6 133.5,-6"/>
<text text-anchor="middle" x="203.5" y="-13" font-family="Helvetica,sans-Serif" font-size="10.00" fill="#000000">boost/graph/graph_traits.hpp</text>
</g>
<!-- Node0&#45;&gt;Node2 -->
<g id="edge2" class="edge">
<title>Node0&#45;&gt;Node2</title>
<path fill="none" stroke="#191970" d="M264.5737,-67.2967C252.0261,-56.6551 235.2889,-42.4602 222.5091,-31.6217"/>
<polygon fill="#191970" stroke="#191970" points="224.6567,-28.8538 214.7663,-25.055 220.129,-34.1924 224.6567,-28.8538"/>
</g>
<!-- Node3 -->
<g id="node4" class="node">
<title>Node3</title>
<polygon fill="#ffffff" stroke="#bfbfbf" points="291.5,-6 291.5,-25 433.5,-25 433.5,-6 291.5,-6"/>
<text text-anchor="middle" x="362.5" y="-13" font-family="Helvetica,sans-Serif" font-size="10.00" fill="#000000">boost/graph/graph_utility.hpp</text>
</g>
<!-- Node0&#45;&gt;Node3 -->
<g id="edge3" class="edge">
<title>Node0&#45;&gt;Node3</title>
<path fill="none" stroke="#191970" d="M300.6532,-67.2967C313.3596,-56.6551 330.3087,-42.4602 343.2502,-31.6217"/>
<polygon fill="#191970" stroke="#191970" points="345.6718,-34.159 351.0911,-25.055 341.1773,-28.7924 345.6718,-34.159"/>
</g>
<!-- Node4 -->
<g id="node5" class="node">
<title>Node4</title>
<polygon fill="#ffffff" stroke="#bfbfbf" points="451.5,-6 451.5,-25 513.5,-25 513.5,-6 451.5,-6"/>
<text text-anchor="middle" x="482.5" y="-13" font-family="Helvetica,sans-Serif" font-size="10.00" fill="#000000">type_traits</text>
</g>
<!-- Node0&#45;&gt;Node4 -->
<g id="edge4" class="edge">
<title>Node0&#45;&gt;Node4</title>
<path fill="none" stroke="#191970" d="M330.3515,-67.8985C362.2743,-57.9615 405.0926,-44.2553 442.5,-31 444.6104,-30.2522 446.7767,-29.4663 448.9567,-28.6615"/>
<polygon fill="#191970" stroke="#191970" points="450.3503,-31.8766 458.4713,-25.0722 447.8796,-25.3271 450.3503,-31.8766"/>
</g>
</g>
</svg>
