<?xml version="1.0" encoding="UTF-8" standalone="no"?>
<!DOCTYPE svg PUBLIC "-//W3C//DTD SVG 1.1//EN"
 "http://www.w3.org/Graphics/SVG/1.1/DTD/svg11.dtd">
<!-- Generated by graphviz version 2.40.1 (20161225.0304)
 -->
<!-- Title: lib/include/py2cpp/py2cpp.hpp Pages: 1 -->
<svg width="456pt" height="307pt"
 viewBox="0.00 0.00 456.41 307.00" xmlns="http://www.w3.org/2000/svg" xmlns:xlink="http://www.w3.org/1999/xlink">
<g id="graph0" class="graph" transform="scale(1 1) rotate(0) translate(4 303)">
<title>lib/include/py2cpp/py2cpp.hpp</title>
<polygon fill="#ffffff" stroke="transparent" points="-4,4 -4,-303 452.4089,-303 452.4089,4 -4,4"/>
<!-- Node7 -->
<g id="node1" class="node">
<title>Node7</title>
<polygon fill="#bfbfbf" stroke="#000000" points="127.5,-268.5 127.5,-298.5 222.5,-298.5 222.5,-268.5 127.5,-268.5"/>
<text text-anchor="start" x="135.5" y="-286.5" font-family="Helvetica,sans-Serif" font-size="10.00" fill="#000000">lib/include/py2cpp</text>
<text text-anchor="middle" x="175" y="-275.5" font-family="Helvetica,sans-Serif" font-size="10.00" fill="#000000">/py2cpp.hpp</text>
</g>
<!-- Node8 -->
<g id="node2" class="node">
<title>Node8</title>
<g id="a_node2"><a xlink:href="neg__cycle_8hpp.html" target="_top" xlink:title="lib/include/netoptim\l/neg_cycle.hpp">
<polygon fill="#ffffff" stroke="#000000" points="164.5,-201.5 164.5,-231.5 265.5,-231.5 265.5,-201.5 164.5,-201.5"/>
<text text-anchor="start" x="172.5" y="-219.5" font-family="Helvetica,sans-Serif" font-size="10.00" fill="#000000">lib/include/netoptim</text>
<text text-anchor="middle" x="215" y="-208.5" font-family="Helvetica,sans-Serif" font-size="10.00" fill="#000000">/neg_cycle.hpp</text>
</a>
</g>
</g>
<!-- Node7&#45;&gt;Node8 -->
<g id="edge1" class="edge">
<title>Node7&#45;&gt;Node8</title>
<path fill="none" stroke="#191970" d="M189.3381,-259.4837C194.8808,-250.1996 201.0558,-239.8565 205.9593,-231.6432"/>
<polygon fill="#191970" stroke="#191970" points="186.1976,-257.9163 184.0766,-268.2967 192.2079,-261.5046 186.1976,-257.9163"/>
</g>
<!-- Node10 -->
<g id="node4" class="node">
<title>Node10</title>
<g id="a_node4"><a xlink:href="min__cycle__ratio_8hpp.html" target="_top" xlink:title="lib/include/netoptim\l/min_cycle_ratio.hpp">
<polygon fill="#ffffff" stroke="#000000" points="309.5,-67.5 309.5,-97.5 416.5,-97.5 416.5,-67.5 309.5,-67.5"/>
<text text-anchor="start" x="317.5" y="-85.5" font-family="Helvetica,sans-Serif" font-size="10.00" fill="#000000">lib/include/netoptim</text>
<text text-anchor="middle" x="363" y="-74.5" font-family="Helvetica,sans-Serif" font-size="10.00" fill="#000000">/min_cycle_ratio.hpp</text>
</a>
</g>
</g>
<!-- Node7&#45;&gt;Node10 -->
<g id="edge10" class="edge">
<title>Node7&#45;&gt;Node10</title>
<path fill="none" stroke="#191970" d="M232.4984,-276.3663C296.3564,-265.0321 396.554,-236.3204 443,-165 450.5187,-153.4546 449.5983,-146.095 443,-134 434.1401,-117.7594 417.7201,-105.872 402.051,-97.6371"/>
<polygon fill="#191970" stroke="#191970" points="231.854,-272.9255 222.5754,-278.04 233.0183,-279.828 231.854,-272.9255"/>
</g>
<!-- Node16 -->
<g id="node10" class="node">
<title>Node16</title>
<g id="a_node10"><a xlink:href="digraphs_8hpp.html" target="_top" xlink:title="lib/include/xnetwork\l/classes/digraphs.hpp">
<polygon fill="#ffffff" stroke="#000000" points="0,-134.5 0,-164.5 112,-164.5 112,-134.5 0,-134.5"/>
<text text-anchor="start" x="8" y="-152.5" font-family="Helvetica,sans-Serif" font-size="10.00" fill="#000000">lib/include/xnetwork</text>
<text text-anchor="middle" x="56" y="-141.5" font-family="Helvetica,sans-Serif" font-size="10.00" fill="#000000">/classes/digraphs.hpp</text>
</a>
</g>
</g>
<!-- Node7&#45;&gt;Node16 -->
<g id="edge11" class="edge">
<title>Node7&#45;&gt;Node16</title>
<path fill="none" stroke="#191970" d="M160.1043,-259.5665C148.9368,-242.4518 132.7514,-219.3034 116,-201 103.7662,-187.6327 88.1963,-174.3582 75.9833,-164.6347"/>
<polygon fill="#191970" stroke="#191970" points="157.4171,-261.8595 165.764,-268.3849 163.3082,-258.0786 157.4171,-261.8595"/>
</g>
<!-- Node17 -->
<g id="node11" class="node">
<title>Node17</title>
<g id="a_node11"><a xlink:href="graph_8hpp.html" target="_top" xlink:title="lib/include/xnetwork\l/classes/graph.hpp">
<polygon fill="#ffffff" stroke="#000000" points="4.5,-201.5 4.5,-231.5 107.5,-231.5 107.5,-201.5 4.5,-201.5"/>
<text text-anchor="start" x="12.5" y="-219.5" font-family="Helvetica,sans-Serif" font-size="10.00" fill="#000000">lib/include/xnetwork</text>
<text text-anchor="middle" x="56" y="-208.5" font-family="Helvetica,sans-Serif" font-size="10.00" fill="#000000">/classes/graph.hpp</text>
</a>
</g>
</g>
<!-- Node7&#45;&gt;Node17 -->
<g id="edge14" class="edge">
<title>Node7&#45;&gt;Node17</title>
<path fill="none" stroke="#191970" d="M139.222,-263.3561C121.1827,-253.1995 99.6646,-241.0843 83.0285,-231.7177"/>
<polygon fill="#191970" stroke="#191970" points="137.8631,-266.6076 148.2941,-268.4639 141.2974,-260.5079 137.8631,-266.6076"/>
</g>
<!-- Node9 -->
<g id="node3" class="node">
<title>Node9</title>
<g id="a_node3"><a xlink:href="parametric_8hpp.html" target="_top" xlink:title="lib/include/netoptim\l/parametric.hpp">
<polygon fill="#ffffff" stroke="#000000" points="333.5,-134.5 333.5,-164.5 434.5,-164.5 434.5,-134.5 333.5,-134.5"/>
<text text-anchor="start" x="341.5" y="-152.5" font-family="Helvetica,sans-Serif" font-size="10.00" fill="#000000">lib/include/netoptim</text>
<text text-anchor="middle" x="384" y="-141.5" font-family="Helvetica,sans-Serif" font-size="10.00" fill="#000000">/parametric.hpp</text>
</a>
</g>
</g>
<!-- Node8&#45;&gt;Node9 -->
<g id="edge2" class="edge">
<title>Node8&#45;&gt;Node9</title>
<path fill="none" stroke="#191970" d="M262.3516,-197.7275C288.7433,-187.2645 321.1713,-174.4084 345.9077,-164.6017"/>
<polygon fill="#191970" stroke="#191970" points="260.9331,-194.5248 252.9269,-201.4639 263.5129,-201.032 260.9331,-194.5248"/>
</g>
<!-- Node13 -->
<g id="node7" class="node">
<title>Node13</title>
<g id="a_node7"><a xlink:href="test__neg__cycle__boost_8cpp.html" target="_top" xlink:title="lib/test/src/test_neg\l_cycle_boost.cpp">
<polygon fill="#ffffff" stroke="#000000" points="146.5,-.5 146.5,-30.5 249.5,-30.5 249.5,-.5 146.5,-.5"/>
<text text-anchor="start" x="154.5" y="-18.5" font-family="Helvetica,sans-Serif" font-size="10.00" fill="#000000">lib/test/src/test_neg</text>
<text text-anchor="middle" x="198" y="-7.5" font-family="Helvetica,sans-Serif" font-size="10.00" fill="#000000">_cycle_boost.cpp</text>
</a>
</g>
</g>
<!-- Node8&#45;&gt;Node13 -->
<g id="edge9" class="edge">
<title>Node8&#45;&gt;Node13</title>
<path fill="none" stroke="#191970" d="M204.4084,-191.6081C201.3886,-183.3025 198.5098,-173.8957 197,-165 188.7915,-116.6359 193.2484,-58.198 196.1436,-30.9223"/>
<polygon fill="#191970" stroke="#191970" points="201.2034,-193.024 208.0793,-201.0846 207.7308,-190.4954 201.2034,-193.024"/>
</g>
<!-- Node14 -->
<g id="node8" class="node">
<title>Node14</title>
<g id="a_node8"><a xlink:href="neg__cycle_8cpp.html" target="_top" xlink:title="lib/src/neg_cycle.cpp">
<polygon fill="#ffffff" stroke="#000000" points="206.5,-140 206.5,-159 315.5,-159 315.5,-140 206.5,-140"/>
<text text-anchor="middle" x="261" y="-147" font-family="Helvetica,sans-Serif" font-size="10.00" fill="#000000">lib/src/neg_cycle.cpp</text>
</a>
</g>
</g>
<!-- Node8&#45;&gt;Node14 -->
<g id="edge7" class="edge">
<title>Node8&#45;&gt;Node14</title>
<path fill="none" stroke="#191970" d="M231.2423,-192.8428C239.2308,-181.2073 248.4129,-167.8334 254.4399,-159.055"/>
<polygon fill="#191970" stroke="#191970" points="228.2128,-191.0716 225.4381,-201.2967 233.9836,-195.0337 228.2128,-191.0716"/>
</g>
<!-- Node15 -->
<g id="node9" class="node">
<title>Node15</title>
<g id="a_node9"><a xlink:href="test__neg__cycle_8cpp.html" target="_top" xlink:title="lib/test/src/test_neg\l_cycle.cpp">
<polygon fill="#ffffff" stroke="#000000" points="46.5,-67.5 46.5,-97.5 149.5,-97.5 149.5,-67.5 46.5,-67.5"/>
<text text-anchor="start" x="54.5" y="-85.5" font-family="Helvetica,sans-Serif" font-size="10.00" fill="#000000">lib/test/src/test_neg</text>
<text text-anchor="middle" x="98" y="-74.5" font-family="Helvetica,sans-Serif" font-size="10.00" fill="#000000">_cycle.cpp</text>
</a>
</g>
</g>
<!-- Node8&#45;&gt;Node15 -->
<g id="edge8" class="edge">
<title>Node8&#45;&gt;Node15</title>
<path fill="none" stroke="#191970" d="M191.7932,-194.1029C182.8858,-185.2409 172.7614,-174.837 164,-165 143.8708,-142.3997 122.2717,-114.6604 109.4595,-97.7952"/>
<polygon fill="#191970" stroke="#191970" points="189.3531,-196.6122 198.9326,-201.1382 194.2663,-191.6262 189.3531,-196.6122"/>
</g>
<!-- Node9&#45;&gt;Node10 -->
<g id="edge3" class="edge">
<title>Node9&#45;&gt;Node10</title>
<path fill="none" stroke="#191970" d="M376.1988,-124.6103C373.3606,-115.5553 370.2403,-105.5998 367.7464,-97.6432"/>
<polygon fill="#191970" stroke="#191970" points="372.9041,-125.8012 379.2348,-134.2967 379.5836,-123.7076 372.9041,-125.8012"/>
</g>
<!-- Node11 -->
<g id="node5" class="node">
<title>Node11</title>
<g id="a_node5"><a xlink:href="test__cycle__ratio_8cpp.html" target="_top" xlink:title="lib/test/src/test_cycle\l_ratio.cpp">
<polygon fill="#ffffff" stroke="#000000" points="1,-.5 1,-30.5 111,-30.5 111,-.5 1,-.5"/>
<text text-anchor="start" x="9" y="-18.5" font-family="Helvetica,sans-Serif" font-size="10.00" fill="#000000">lib/test/src/test_cycle</text>
<text text-anchor="middle" x="56" y="-7.5" font-family="Helvetica,sans-Serif" font-size="10.00" fill="#000000">_ratio.cpp</text>
</a>
</g>
</g>
<!-- Node10&#45;&gt;Node11 -->
<g id="edge4" class="edge">
<title>Node10&#45;&gt;Node11</title>
<path fill="none" stroke="#191970" d="M299.0899,-68.5522C243.5214,-56.4249 163.8539,-39.0381 111.0595,-27.5162"/>
<polygon fill="#191970" stroke="#191970" points="298.657,-72.04 309.1734,-70.7528 300.1496,-65.201 298.657,-72.04"/>
</g>
<!-- Node12 -->
<g id="node6" class="node">
<title>Node12</title>
<g id="a_node6"><a xlink:href="test__cycle__ratio__boost_8cpp.html" target="_top" xlink:title="lib/test/src/test_cycle\l_ratio_boost.cpp">
<polygon fill="#ffffff" stroke="#000000" points="308,-.5 308,-30.5 418,-30.5 418,-.5 308,-.5"/>
<text text-anchor="start" x="316" y="-18.5" font-family="Helvetica,sans-Serif" font-size="10.00" fill="#000000">lib/test/src/test_cycle</text>
<text text-anchor="middle" x="363" y="-7.5" font-family="Helvetica,sans-Serif" font-size="10.00" fill="#000000">_ratio_boost.cpp</text>
</a>
</g>
</g>
<!-- Node10&#45;&gt;Node12 -->
<g id="edge5" class="edge">
<title>Node10&#45;&gt;Node12</title>
<path fill="none" stroke="#191970" d="M363,-57.0249C363,-48.128 363,-38.4287 363,-30.6432"/>
<polygon fill="#191970" stroke="#191970" points="359.5001,-57.2966 363,-67.2967 366.5001,-57.2967 359.5001,-57.2966"/>
</g>
<!-- Node10&#45;&gt;Node13 -->
<g id="edge6" class="edge">
<title>Node10&#45;&gt;Node13</title>
<path fill="none" stroke="#191970" d="M316.4298,-63.5897C290.7245,-53.1518 259.2358,-40.3654 235.1907,-30.6017"/>
<polygon fill="#191970" stroke="#191970" points="315.3887,-66.9444 325.9708,-67.4639 318.0223,-60.4587 315.3887,-66.9444"/>
</g>
<!-- Node16&#45;&gt;Node11 -->
<g id="edge12" class="edge">
<title>Node16&#45;&gt;Node11</title>
<path fill="none" stroke="#191970" d="M44.8228,-124.6574C41.6354,-116.3549 38.5961,-106.9375 37,-98 34.5778,-84.4368 34.5778,-80.5632 37,-67 39.245,-54.4286 44.3455,-40.9076 48.6971,-30.8755"/>
<polygon fill="#191970" stroke="#191970" points="41.6703,-126.1952 48.6971,-134.1245 48.1488,-123.5439 41.6703,-126.1952"/>
</g>
<!-- Node16&#45;&gt;Node15 -->
<g id="edge13" class="edge">
<title>Node16&#45;&gt;Node15</title>
<path fill="none" stroke="#191970" d="M70.8733,-125.7735C76.7396,-116.4154 83.305,-105.9421 88.5073,-97.6432"/>
<polygon fill="#191970" stroke="#191970" points="67.8763,-123.9648 65.5305,-134.2967 73.8074,-127.6828 67.8763,-123.9648"/>
</g>
<!-- Node17&#45;&gt;Node16 -->
<g id="edge15" class="edge">
<title>Node17&#45;&gt;Node16</title>
<path fill="none" stroke="#191970" d="M56,-191.0249C56,-182.128 56,-172.4287 56,-164.6432"/>
<polygon fill="#191970" stroke="#191970" points="52.5001,-191.2966 56,-201.2967 59.5001,-191.2967 52.5001,-191.2966"/>
</g>
</g>
</svg>
