<?xml version="1.0" encoding="UTF-8" standalone="no"?>
<!DOCTYPE svg PUBLIC "-//W3C//DTD SVG 1.1//EN"
 "http://www.w3.org/Graphics/SVG/1.1/DTD/svg11.dtd">
<!-- Generated by graphviz version 2.40.1 (20161225.0304)
 -->
<!-- Title: xn::object Pages: 1 -->
<svg width="280pt" height="899pt"
 viewBox="0.00 0.00 280.00 899.00" xmlns="http://www.w3.org/2000/svg" xmlns:xlink="http://www.w3.org/1999/xlink">
<g id="graph0" class="graph" transform="scale(1 1) rotate(0) translate(4 895)">
<title>xn::object</title>
<polygon fill="#ffffff" stroke="transparent" points="-4,4 -4,-895 276,-895 276,4 -4,4"/>
<!-- Node0 -->
<g id="node1" class="node">
<title>Node0</title>
<polygon fill="#bfbfbf" stroke="#000000" points="105.5,-568.5 105.5,-625.5 164.5,-625.5 164.5,-568.5 105.5,-568.5"/>
<text text-anchor="middle" x="135" y="-613.5" font-family="Helvetica,sans-Serif" font-size="10.00" fill="#000000">xn::object</text>
<polyline fill="none" stroke="#000000" points="105.5,-606.5 164.5,-606.5 "/>
<text text-anchor="middle" x="135" y="-594.5" font-family="Helvetica,sans-Serif" font-size="10.00" fill="#000000"> </text>
<polyline fill="none" stroke="#000000" points="105.5,-587.5 164.5,-587.5 "/>
<text text-anchor="middle" x="135" y="-575.5" font-family="Helvetica,sans-Serif" font-size="10.00" fill="#000000"> </text>
</g>
<!-- Node3 -->
<g id="node4" class="node">
<title>Node3</title>
<g id="a_node4"><a xlink:href="classxn_1_1Graph.html" target="_top" xlink:title="{xn::Graph\&lt; nodeview\l_t, adjlist_t \&gt;\n|+ _num_of_edges\l+ _node\l+ graph\l+ _adj\l|+ Graph()\l+ Graph()\l+ adj()\l+ _nodes_nbrs()\l+ null_vertex()\l+ get_name()\land 18 more...\l+ end_points()\l+ end_points()\l}">
<polygon fill="#ffffff" stroke="#000000" points="14,-342.5 14,-531.5 124,-531.5 124,-342.5 14,-342.5"/>
<text text-anchor="start" x="22" y="-519.5" font-family="Helvetica,sans-Serif" font-size="10.00" fill="#000000">xn::Graph&lt; nodeview</text>
<text text-anchor="middle" x="69" y="-508.5" font-family="Helvetica,sans-Serif" font-size="10.00" fill="#000000">_t, adjlist_t &gt;</text>
<polyline fill="none" stroke="#000000" points="14,-501.5 124,-501.5 "/>
<text text-anchor="start" x="22" y="-489.5" font-family="Helvetica,sans-Serif" font-size="10.00" fill="#000000">+ _num_of_edges</text>
<text text-anchor="start" x="22" y="-478.5" font-family="Helvetica,sans-Serif" font-size="10.00" fill="#000000">+ _node</text>
<text text-anchor="start" x="22" y="-467.5" font-family="Helvetica,sans-Serif" font-size="10.00" fill="#000000">+ graph</text>
<text text-anchor="start" x="22" y="-456.5" font-family="Helvetica,sans-Serif" font-size="10.00" fill="#000000">+ _adj</text>
<polyline fill="none" stroke="#000000" points="14,-449.5 124,-449.5 "/>
<text text-anchor="start" x="22" y="-437.5" font-family="Helvetica,sans-Serif" font-size="10.00" fill="#000000">+ Graph()</text>
<text text-anchor="start" x="22" y="-426.5" font-family="Helvetica,sans-Serif" font-size="10.00" fill="#000000">+ Graph()</text>
<text text-anchor="start" x="22" y="-415.5" font-family="Helvetica,sans-Serif" font-size="10.00" fill="#000000">+ adj()</text>
<text text-anchor="start" x="22" y="-404.5" font-family="Helvetica,sans-Serif" font-size="10.00" fill="#000000">+ _nodes_nbrs()</text>
<text text-anchor="start" x="22" y="-393.5" font-family="Helvetica,sans-Serif" font-size="10.00" fill="#000000">+ null_vertex()</text>
<text text-anchor="start" x="22" y="-382.5" font-family="Helvetica,sans-Serif" font-size="10.00" fill="#000000">+ get_name()</text>
<text text-anchor="start" x="22" y="-371.5" font-family="Helvetica,sans-Serif" font-size="10.00" fill="#000000">and 18 more...</text>
<text text-anchor="start" x="22" y="-360.5" font-family="Helvetica,sans-Serif" font-size="10.00" fill="#000000">+ end_points()</text>
<text text-anchor="start" x="22" y="-349.5" font-family="Helvetica,sans-Serif" font-size="10.00" fill="#000000">+ end_points()</text>
</a>
</g>
</g>
<!-- Node0&#45;&gt;Node3 -->
<g id="edge3" class="edge">
<title>Node0&#45;&gt;Node3</title>
<path fill="none" stroke="#191970" d="M119.3183,-558.9839C115.8609,-550.6022 112.0495,-541.3625 108.1181,-531.8317"/>
<polygon fill="none" stroke="#191970" points="116.1516,-560.4855 123.2005,-568.3952 122.6227,-557.8161 116.1516,-560.4855"/>
</g>
<!-- Node5 -->
<g id="node6" class="node">
<title>Node5</title>
<g id="a_node6"><a xlink:href="classxn_1_1Graph.html" target="_top" xlink:title="{xn::Graph\&lt; __nodeview\l_t, adjlist_t \&gt;\n|+ _num_of_edges\l+ _node\l+ graph\l+ _adj\l|+ Graph()\l+ Graph()\l+ adj()\l+ _nodes_nbrs()\l+ null_vertex()\l+ get_name()\land 18 more...\l+ end_points()\l+ end_points()\l}">
<polygon fill="#ffffff" stroke="#000000" points="145,-342.5 145,-531.5 265,-531.5 265,-342.5 145,-342.5"/>
<text text-anchor="start" x="153" y="-519.5" font-family="Helvetica,sans-Serif" font-size="10.00" fill="#000000">xn::Graph&lt; __nodeview</text>
<text text-anchor="middle" x="205" y="-508.5" font-family="Helvetica,sans-Serif" font-size="10.00" fill="#000000">_t, adjlist_t &gt;</text>
<polyline fill="none" stroke="#000000" points="145,-501.5 265,-501.5 "/>
<text text-anchor="start" x="153" y="-489.5" font-family="Helvetica,sans-Serif" font-size="10.00" fill="#000000">+ _num_of_edges</text>
<text text-anchor="start" x="153" y="-478.5" font-family="Helvetica,sans-Serif" font-size="10.00" fill="#000000">+ _node</text>
<text text-anchor="start" x="153" y="-467.5" font-family="Helvetica,sans-Serif" font-size="10.00" fill="#000000">+ graph</text>
<text text-anchor="start" x="153" y="-456.5" font-family="Helvetica,sans-Serif" font-size="10.00" fill="#000000">+ _adj</text>
<polyline fill="none" stroke="#000000" points="145,-449.5 265,-449.5 "/>
<text text-anchor="start" x="153" y="-437.5" font-family="Helvetica,sans-Serif" font-size="10.00" fill="#000000">+ Graph()</text>
<text text-anchor="start" x="153" y="-426.5" font-family="Helvetica,sans-Serif" font-size="10.00" fill="#000000">+ Graph()</text>
<text text-anchor="start" x="153" y="-415.5" font-family="Helvetica,sans-Serif" font-size="10.00" fill="#000000">+ adj()</text>
<text text-anchor="start" x="153" y="-404.5" font-family="Helvetica,sans-Serif" font-size="10.00" fill="#000000">+ _nodes_nbrs()</text>
<text text-anchor="start" x="153" y="-393.5" font-family="Helvetica,sans-Serif" font-size="10.00" fill="#000000">+ null_vertex()</text>
<text text-anchor="start" x="153" y="-382.5" font-family="Helvetica,sans-Serif" font-size="10.00" fill="#000000">+ get_name()</text>
<text text-anchor="start" x="153" y="-371.5" font-family="Helvetica,sans-Serif" font-size="10.00" fill="#000000">and 18 more...</text>
<text text-anchor="start" x="153" y="-360.5" font-family="Helvetica,sans-Serif" font-size="10.00" fill="#000000">+ end_points()</text>
<text text-anchor="start" x="153" y="-349.5" font-family="Helvetica,sans-Serif" font-size="10.00" fill="#000000">+ end_points()</text>
</a>
</g>
</g>
<!-- Node0&#45;&gt;Node5 -->
<g id="edge5" class="edge">
<title>Node0&#45;&gt;Node5</title>
<path fill="none" stroke="#191970" d="M151.6321,-558.9839C155.2991,-550.6022 159.3414,-541.3625 163.5111,-531.8317"/>
<polygon fill="none" stroke="#191970" points="148.3163,-557.8307 147.5146,-568.3952 154.7294,-560.6365 148.3163,-557.8307"/>
</g>
<!-- Node1 -->
<g id="node2" class="node">
<title>Node1</title>
<g id="a_node2"><a xlink:href="classpy_1_1dict.html" target="_top" xlink:title="{py::dict\&lt; const char\l *, std::any \&gt;\n||+ dict()\l+ dict()\l+ operator=()\l&#45; dict()\l}">
<polygon fill="#ffffff" stroke="#000000" points="83,-662.5 83,-763.5 187,-763.5 187,-662.5 83,-662.5"/>
<text text-anchor="start" x="91" y="-751.5" font-family="Helvetica,sans-Serif" font-size="10.00" fill="#000000">py::dict&lt; const char</text>
<text text-anchor="middle" x="135" y="-740.5" font-family="Helvetica,sans-Serif" font-size="10.00" fill="#000000"> *, std::any &gt;</text>
<polyline fill="none" stroke="#000000" points="83,-733.5 187,-733.5 "/>
<text text-anchor="middle" x="135" y="-721.5" font-family="Helvetica,sans-Serif" font-size="10.00" fill="#000000"> </text>
<polyline fill="none" stroke="#000000" points="83,-714.5 187,-714.5 "/>
<text text-anchor="start" x="91" y="-702.5" font-family="Helvetica,sans-Serif" font-size="10.00" fill="#000000">+ dict()</text>
<text text-anchor="start" x="91" y="-691.5" font-family="Helvetica,sans-Serif" font-size="10.00" fill="#000000">+ dict()</text>
<text text-anchor="start" x="91" y="-680.5" font-family="Helvetica,sans-Serif" font-size="10.00" fill="#000000">+ operator=()</text>
<text text-anchor="start" x="91" y="-669.5" font-family="Helvetica,sans-Serif" font-size="10.00" fill="#000000">&#45; dict()</text>
</a>
</g>
</g>
<!-- Node1&#45;&gt;Node0 -->
<g id="edge1" class="edge">
<title>Node1&#45;&gt;Node0</title>
<path fill="none" stroke="#191970" d="M135,-652.3804C135,-643.0838 135,-633.8771 135,-625.7184"/>
<polygon fill="none" stroke="#191970" points="131.5001,-652.4581 135,-662.4582 138.5001,-652.4582 131.5001,-652.4581"/>
</g>
<!-- Node2 -->
<g id="node3" class="node">
<title>Node2</title>
<g id="a_node3"><a xlink:title="STL class. ">
<polygon fill="#ffffff" stroke="#bfbfbf" points="83.5,-800.5 83.5,-890.5 186.5,-890.5 186.5,-800.5 83.5,-800.5"/>
<text text-anchor="start" x="91.5" y="-878.5" font-family="Helvetica,sans-Serif" font-size="10.00" fill="#000000">std::unordered_map</text>
<text text-anchor="start" x="91.5" y="-867.5" font-family="Helvetica,sans-Serif" font-size="10.00" fill="#000000">&lt; const char *, std</text>
<text text-anchor="middle" x="135" y="-856.5" font-family="Helvetica,sans-Serif" font-size="10.00" fill="#000000">::any &gt;</text>
<polyline fill="none" stroke="#bfbfbf" points="83.5,-849.5 186.5,-849.5 "/>
<text text-anchor="start" x="91.5" y="-837.5" font-family="Helvetica,sans-Serif" font-size="10.00" fill="#000000">+ keys</text>
<text text-anchor="start" x="91.5" y="-826.5" font-family="Helvetica,sans-Serif" font-size="10.00" fill="#000000">+ elements</text>
<polyline fill="none" stroke="#bfbfbf" points="83.5,-819.5 186.5,-819.5 "/>
<text text-anchor="middle" x="135" y="-807.5" font-family="Helvetica,sans-Serif" font-size="10.00" fill="#000000"> </text>
</a>
</g>
</g>
<!-- Node2&#45;&gt;Node1 -->
<g id="edge2" class="edge">
<title>Node2&#45;&gt;Node1</title>
<path fill="none" stroke="#191970" d="M135,-790.2098C135,-781.5051 135,-772.5409 135,-763.9407"/>
<polygon fill="none" stroke="#191970" points="131.5001,-790.2716 135,-800.2716 138.5001,-790.2716 131.5001,-790.2716"/>
</g>
<!-- Node4 -->
<g id="node5" class="node">
<title>Node4</title>
<g id="a_node5"><a xlink:href="classxn_1_1DiGraphS.html" target="_top" xlink:title="{xn::DiGraphS\&lt; nodeview\l_t, adjlist_t \&gt;\n|+ _succ\l|+ DiGraphS()\l+ DiGraphS()\l+ adj()\l+ succ()\l+ add_edge()\l+ add_edge()\land 9 more...\l}">
<polygon fill="#ffffff" stroke="#000000" points="0,-171.5 0,-305.5 126,-305.5 126,-171.5 0,-171.5"/>
<text text-anchor="start" x="8" y="-293.5" font-family="Helvetica,sans-Serif" font-size="10.00" fill="#000000">xn::DiGraphS&lt; nodeview</text>
<text text-anchor="middle" x="63" y="-282.5" font-family="Helvetica,sans-Serif" font-size="10.00" fill="#000000">_t, adjlist_t &gt;</text>
<polyline fill="none" stroke="#000000" points="0,-275.5 126,-275.5 "/>
<text text-anchor="start" x="8" y="-263.5" font-family="Helvetica,sans-Serif" font-size="10.00" fill="#000000">+ _succ</text>
<polyline fill="none" stroke="#000000" points="0,-256.5 126,-256.5 "/>
<text text-anchor="start" x="8" y="-244.5" font-family="Helvetica,sans-Serif" font-size="10.00" fill="#000000">+ DiGraphS()</text>
<text text-anchor="start" x="8" y="-233.5" font-family="Helvetica,sans-Serif" font-size="10.00" fill="#000000">+ DiGraphS()</text>
<text text-anchor="start" x="8" y="-222.5" font-family="Helvetica,sans-Serif" font-size="10.00" fill="#000000">+ adj()</text>
<text text-anchor="start" x="8" y="-211.5" font-family="Helvetica,sans-Serif" font-size="10.00" fill="#000000">+ succ()</text>
<text text-anchor="start" x="8" y="-200.5" font-family="Helvetica,sans-Serif" font-size="10.00" fill="#000000">+ add_edge()</text>
<text text-anchor="start" x="8" y="-189.5" font-family="Helvetica,sans-Serif" font-size="10.00" fill="#000000">+ add_edge()</text>
<text text-anchor="start" x="8" y="-178.5" font-family="Helvetica,sans-Serif" font-size="10.00" fill="#000000">and 9 more...</text>
</a>
</g>
</g>
<!-- Node3&#45;&gt;Node4 -->
<g id="edge4" class="edge">
<title>Node3&#45;&gt;Node4</title>
<path fill="none" stroke="#191970" d="M65.8334,-332.2378C65.5616,-323.245 65.2916,-314.3128 65.0324,-305.7377"/>
<polygon fill="none" stroke="#191970" points="62.34,-332.5112 66.1406,-342.4008 69.3368,-332.2996 62.34,-332.5112"/>
</g>
<!-- Node6 -->
<g id="node7" class="node">
<title>Node6</title>
<g id="a_node7"><a xlink:href="classxn_1_1VertexView.html" target="_top" xlink:title="{xn::VertexView\&lt; Graph \&gt;\n||+ VertexView()\l+ begin()\l+ end()\l+ cbegin()\l+ cend()\l}">
<polygon fill="#ffffff" stroke="#000000" points="144,-188 144,-289 272,-289 272,-188 144,-188"/>
<text text-anchor="middle" x="208" y="-277" font-family="Helvetica,sans-Serif" font-size="10.00" fill="#000000">xn::VertexView&lt; Graph &gt;</text>
<polyline fill="none" stroke="#000000" points="144,-270 272,-270 "/>
<text text-anchor="middle" x="208" y="-258" font-family="Helvetica,sans-Serif" font-size="10.00" fill="#000000"> </text>
<polyline fill="none" stroke="#000000" points="144,-251 272,-251 "/>
<text text-anchor="start" x="152" y="-239" font-family="Helvetica,sans-Serif" font-size="10.00" fill="#000000">+ VertexView()</text>
<text text-anchor="start" x="152" y="-228" font-family="Helvetica,sans-Serif" font-size="10.00" fill="#000000">+ begin()</text>
<text text-anchor="start" x="152" y="-217" font-family="Helvetica,sans-Serif" font-size="10.00" fill="#000000">+ end()</text>
<text text-anchor="start" x="152" y="-206" font-family="Helvetica,sans-Serif" font-size="10.00" fill="#000000">+ cbegin()</text>
<text text-anchor="start" x="152" y="-195" font-family="Helvetica,sans-Serif" font-size="10.00" fill="#000000">+ cend()</text>
</a>
</g>
</g>
<!-- Node5&#45;&gt;Node6 -->
<g id="edge6" class="edge">
<title>Node5&#45;&gt;Node6</title>
<path fill="none" stroke="#191970" d="M206.586,-332.06C206.8115,-317.1389 207.0344,-302.3899 207.2342,-289.1678"/>
<polygon fill="none" stroke="#191970" points="203.0813,-332.349 206.4297,-342.4008 210.0805,-332.4549 203.0813,-332.349"/>
</g>
<!-- Node7 -->
<g id="node8" class="node">
<title>Node7</title>
<g id="a_node8"><a xlink:href="classxn_1_1grAdaptor.html" target="_top" xlink:title="{xn::grAdaptor\&lt; Graph \&gt;\n||+ grAdaptor()\l+ grAdaptor()\l+ number_of_nodes()\l+ number_of_edges()\l+ edges()\l+ neighbors()\land 4 more...\l+ null_vertex()\l}">
<polygon fill="#ffffff" stroke="#000000" points="148.5,-.5 148.5,-134.5 267.5,-134.5 267.5,-.5 148.5,-.5"/>
<text text-anchor="middle" x="208" y="-122.5" font-family="Helvetica,sans-Serif" font-size="10.00" fill="#000000">xn::grAdaptor&lt; Graph &gt;</text>
<polyline fill="none" stroke="#000000" points="148.5,-115.5 267.5,-115.5 "/>
<text text-anchor="middle" x="208" y="-103.5" font-family="Helvetica,sans-Serif" font-size="10.00" fill="#000000"> </text>
<polyline fill="none" stroke="#000000" points="148.5,-96.5 267.5,-96.5 "/>
<text text-anchor="start" x="156.5" y="-84.5" font-family="Helvetica,sans-Serif" font-size="10.00" fill="#000000">+ grAdaptor()</text>
<text text-anchor="start" x="156.5" y="-73.5" font-family="Helvetica,sans-Serif" font-size="10.00" fill="#000000">+ grAdaptor()</text>
<text text-anchor="start" x="156.5" y="-62.5" font-family="Helvetica,sans-Serif" font-size="10.00" fill="#000000">+ number_of_nodes()</text>
<text text-anchor="start" x="156.5" y="-51.5" font-family="Helvetica,sans-Serif" font-size="10.00" fill="#000000">+ number_of_edges()</text>
<text text-anchor="start" x="156.5" y="-40.5" font-family="Helvetica,sans-Serif" font-size="10.00" fill="#000000">+ edges()</text>
<text text-anchor="start" x="156.5" y="-29.5" font-family="Helvetica,sans-Serif" font-size="10.00" fill="#000000">+ neighbors()</text>
<text text-anchor="start" x="156.5" y="-18.5" font-family="Helvetica,sans-Serif" font-size="10.00" fill="#000000">and 4 more...</text>
<text text-anchor="start" x="156.5" y="-7.5" font-family="Helvetica,sans-Serif" font-size="10.00" fill="#000000">+ null_vertex()</text>
</a>
</g>
</g>
<!-- Node6&#45;&gt;Node7 -->
<g id="edge7" class="edge">
<title>Node6&#45;&gt;Node7</title>
<path fill="none" stroke="#191970" d="M208,-177.2846C208,-163.4492 208,-148.6887 208,-134.6246"/>
<polygon fill="none" stroke="#191970" points="204.5001,-177.6573 208,-187.6573 211.5001,-177.6574 204.5001,-177.6573"/>
</g>
</g>
</svg>
