<?xml-stylesheet href="TE_export636286462190250944.css" type="text/css"?>
<svg xmlns="http://www.w3.org/2000/svg" width="413pt" height="460" viewBox="-10 -77.2 206.7 172.6">
  <g stroke-width=".5" stroke="#000">
    <g fill="#BFBFBF">
      <path d="M10-67.2a10 10 0 1 0-20 0 10 10 0 0 0 20 0zm-10 0" stroke="none"/>
      <text transform="translate(0 -65)" text-anchor="middle" font-size="10" stroke="none" fill="#000">
        <tspan font-family="cmmi">a</tspan>
      </text>
    </g>
    <g fill="#BFBFBF">
      <path d="M95.4-24.5a10 10 0 1 0-20 0 10 10 0 0 0 20 0zm-10 0" stroke="none"/>
      <text transform="translate(85.4 -21)" text-anchor="middle" font-size="10" stroke="none" fill="#000">
        <tspan font-family="cmmi">b</tspan>
      </text>
    </g>
    <g fill="#BFBFBF">
      <path d="M180.7-24.5a10 10 0 1 0-20 0 10 10 0 0 0 20 0zm-10 0" stroke="none"/>
      <text transform="translate(170.7 -22.4)" text-anchor="middle" font-size="10" stroke="none" fill="#000">
        <tspan font-family="cmmi">c</tspan>
      </text>
    </g>
    <g fill="#BFBFBF">
      <path d="M10 18.1a10 10 0 1 0-20 0 10 10 0 0 0 20 0zm-10 0" stroke="none"/>
      <text transform="translate(0 21.6)" text-anchor="middle" font-size="10" stroke="none" fill="#000">
        <tspan font-family="cmmi">d</tspan>
      </text>
    </g>
    <g fill="#BFBFBF">
      <path d="M138 18.1a10 10 0 1 0-20 0 10 10 0 0 0 20 0zm-10 0" stroke="none"/>
      <text transform="translate(128 20.3)" text-anchor="middle" font-size="10" stroke="none" fill="#000">
        <tspan font-family="cmmi">e</tspan>
      </text>
    </g>
    <g fill="#BFBFBF">
      <path d="M95.4 60.8a10 10 0 1 0-20 0 10 10 0 0 0 20 0zm-10 0" stroke="none"/>
      <text transform="translate(85.4 63.3)" text-anchor="middle" font-size="10" stroke="none" fill="#000">
        <tspan font-family="cmmi">f</tspan>
      </text>
    </g>
    <g fill="#BFBFBF">
      <path d="M180.7 60.8a10 10 0 1 0-20 0 10 10 0 0 0 20 0zm-10 0" stroke="none"/>
      <text transform="translate(170.7 62)" text-anchor="middle" font-size="10" stroke="none" fill="#000">
        <tspan font-family="cmmi">g</tspan>
      </text>
    </g>
    <g stroke-width="1.1">
      <path d="M76.2-29.1L9.8-62.3" fill="none"/>
      <path d="M10.3-59.8c.2-.7-.6-2.4-.9-2.7.5 0 2.3-.4 2.7-1" fill="none" stroke-linejoin="round" stroke-linecap="round" stroke-width=".899982"/>
    </g>
    <g stroke-width="1.1">
      <path d="M160.5-24.5H96.3" fill="none"/>
      <path d="M97.8-22.5c0-.7-1.5-2-2-2 .5-.2 2-1.3 2-2.1" fill="none" stroke-linejoin="round" stroke-linecap="round" stroke-width=".9"/>
    </g>
    <g stroke-width="1.1">
      <path d="M0 8v-64.3" fill="none"/>
      <path d="M-2-54.8c.7 0 1.9-1.5 2-2 .1.5 1.3 2 2 2" fill="none" stroke-linejoin="round" stroke-linecap="round" stroke-width=".9"/>
    </g>
    <g stroke-width="1.1">
      <path d="M9.1 13.6l66.5-33.3" fill="none"/>
      <path d="M73.3-20.8c.4.6 2.3 1 2.7 1-.3.2-1 2-.9 2.7" fill="none" stroke-linejoin="round" stroke-linecap="round" stroke-width=".9"/>
    </g>
    <g stroke-width="1.1">
      <path d="M120.8 10.9L93.1-16.8" fill="none"/>
      <path d="M92.8-14.2c.4-.7.2-2.5 0-2.9.4.2 2.3.4 3 0" fill="none" stroke-linejoin="round" stroke-linecap="round" stroke-width=".904491"/>
    </g>
    <g stroke-width="1.1">
      <path d="M135.3 10.9L163-16.8" fill="none"/>
      <path d="M160.4-17.2c.6.5 2.5.3 2.9.1-.2.4-.4 2.2 0 2.9" fill="none" stroke-linejoin="round" stroke-linecap="round" stroke-width=".904491"/>
    </g>
    <g stroke-width="1.1">
      <path d="M117.9 18.1h-107" fill="none"/>
      <path d="M12.5 20.2c-.2-.8-1.6-2-2-2 .4-.2 1.8-1.4 2-2.1" fill="none" stroke-linejoin="round" stroke-linecap="round" stroke-width=".9"/>
    </g>
    <g stroke-width="1.1">
      <path d="M76.2 56.2L9.8 23" fill="none"/>
      <path d="M10.3 25.6c.2-.8-.6-2.4-.9-2.7.5 0 2.3-.4 2.7-1" fill="none" stroke-linejoin="round" stroke-linecap="round" stroke-width=".9036000000000001"/>
    </g>
    <g stroke-width="1.1">
      <path d="M92.6 53.6l27.7-27.7" fill="none"/>
      <path d="M117.7 25.5c.7.5 2.5.3 2.9.1-.2.4-.4 2.2 0 2.9" fill="none" stroke-linejoin="round" stroke-linecap="round" stroke-width=".904491"/>
    </g>
    <g stroke-width="1.1">
      <path d="M163.5 53.6l-27.7-27.7" fill="none"/>
      <path d="M135.4 28.5c.5-.7.3-2.5.1-2.9.4.2 2.2.4 2.9 0" fill="none" stroke-linejoin="round" stroke-linecap="round" stroke-width=".904491"/>
    </g>
    <g stroke-width="1.1">
      <path d="M160.5 60.8H96.3" fill="none"/>
      <path d="M97.8 62.9c0-.8-1.5-2-2-2 .5-.2 2-1.4 2-2.2" fill="none" stroke-linejoin="round" stroke-linecap="round" stroke-width=".9"/>
    </g>
    <g fill="#FFC2C2">
      <path d="M180.7-24.5a10 10 0 1 0-20 0 10 10 0 0 0 20 0zm-10 0" stroke="none" fill="#FFC2C2"/>
      <text transform="translate(170.7 -22.4)" text-anchor="middle" font-size="10" stroke="none" fill="#000">
        <tspan font-family="cmmi">c</tspan>
      </text>
    </g>
    <g fill="#FFC2C2">
      <path d="M138 18.1a10 10 0 1 0-20 0 10 10 0 0 0 20 0zm-10 0" stroke="none" fill="#FFC2C2"/>
      <text transform="translate(128 20.3)" text-anchor="middle" font-size="10" stroke="none" fill="#000">
        <tspan font-family="cmmi">e</tspan>
      </text>
    </g>
    <g fill="#FFC2C2">
      <path d="M180.7 60.8a10 10 0 1 0-20 0 10 10 0 0 0 20 0zm-10 0" stroke="none" fill="#FFC2C2"/>
      <text transform="translate(170.7 62)" text-anchor="middle" font-size="10" stroke="none" fill="#000">
        <tspan font-family="cmmi">g</tspan>
      </text>
    </g>
    <g fill="#FF7F7F" stroke="#FF7F7F" stroke-width="1.1">
      <path d="M160.5-24.5H96.3" fill="none"/>
      <path d="M97.8-22.5c0-.7-1.5-2-2-2 .5-.2 2-1.3 2-2.1" fill="none" stroke-linejoin="round" stroke-linecap="round" stroke-width=".9"/>
    </g>
    <g fill="#FF7F7F" stroke="#FF7F7F" stroke-width="1.1">
      <path d="M120.8 10.9L93.1-16.8" fill="none"/>
      <path d="M92.8-14.2c.4-.7.2-2.5 0-2.9.4.2 2.3.4 3 0" fill="none" stroke-linejoin="round" stroke-linecap="round" stroke-width=".904491"/>
    </g>
    <g fill="#FF7F7F" stroke="#FF7F7F" stroke-width="1.1">
      <path d="M117.9 18.1h-107" fill="none"/>
      <path d="M12.5 20.2c-.2-.8-1.6-2-2-2 .4-.2 1.8-1.4 2-2.1" fill="none" stroke-linejoin="round" stroke-linecap="round" stroke-width=".9"/>
    </g>
    <g fill="#FF7F7F" stroke="#FF7F7F" stroke-width="1.1">
      <path d="M92.6 53.6l27.7-27.7" fill="none"/>
      <path d="M117.7 25.5c.7.5 2.5.3 2.9.1-.2.4-.4 2.2 0 2.9" fill="none" stroke-linejoin="round" stroke-linecap="round" stroke-width=".904491"/>
    </g>
    <g fill="#FF7F7F" stroke="#FF7F7F" stroke-width="1.1">
      <path d="M160.5 60.8H96.3" fill="none"/>
      <path d="M97.8 62.9c0-.8-1.5-2-2-2 .5-.2 2-1.4 2-2.2" fill="none" stroke-linejoin="round" stroke-linecap="round" stroke-width=".9"/>
    </g>
    <path d="M196.3 18.1c0-42.4-19-76.8-42.7-76.8-23.5 0-42.6 34.4-42.6 76.8 0 42.5 19 76.9 42.6 76.9s42.7-34.4 42.7-76.9zm-42.7 0" fill="none" stroke-dasharray="3.0pt,3.0pt" stroke-width="1.1"/>
  </g>
</svg>
