<svg xmlns="http://www.w3.org/2000/svg" width="287pt" height="196pt" viewBox="0 0 287 195.61"><g class="graph"><path fill="#fff" stroke="transparent" d="M0 195.612V0h287v195.612H0z"/><g class="node" transform="translate(4 191.612)"><circle cx="18" cy="-56.612" fill="#d3d3d3" stroke="#000" r="18"/><text x="18" y="-52.912" font-family="Times,serif" font-size="14" text-anchor="middle">1</text></g><g class="node" transform="translate(4 191.612)"><circle cx="139.5" cy="-111.612" fill="#d3d3d3" stroke="#000" r="18"/><text x="139.5" y="-107.912" font-family="Times,serif" font-size="14" text-anchor="middle">2</text></g><g class="edge"><path fill="none" stroke="#000" stroke-dasharray="5 2" d="M33.79 121.393C40.306 114.656 48.908 106.932 58 102c17.853-9.681 40.13-15.235 57.468-18.34"/><path stroke="#000" d="m115.111 80.173 10.431 1.856-9.312 5.054-1.119-6.91z"/><text x="76.5" y="-108.412" font-family="Times,serif" font-size="14" text-anchor="middle" transform="translate(4 191.612)">7</text></g><g class="node" transform="translate(4 191.612)"><circle cx="261" cy="-92.612" fill="#d3d3d3" stroke="#000" r="18"/><text x="261" y="-88.912" font-family="Times,serif" font-size="14" text-anchor="middle">3</text></g><g class="edge"><path fill="none" stroke="#000" d="M40.057 136.719c36.735 2.853 122.327 6.18 188.943-16.72 4.157-1.428 8.368-3.362 12.374-5.48"/><path stroke="#000" d="m239.818 111.376 10.408-1.983-6.9 8.041-3.508-6.058z"/><text x="139.5" y="-60.412" font-family="Times,serif" font-size="14" text-anchor="middle" transform="translate(4 191.612)">5</text></g><g class="edge"><path fill="none" stroke="#000" d="M132.77 94.83c-7.347 9.02-17.886 19.963-29.77 26.17-16.291 8.509-36.691 12-52.943 13.368"/><path stroke="#000" d="m50.26 137.862-10.198-2.87 9.762-4.116.436 6.986z"/><text x="76.5" y="-74.412" font-family="Times,serif" font-size="14" text-anchor="middle" transform="translate(4 191.612)">0</text></g><g class="edge"><path fill="none" stroke="#000" stroke-dasharray="5 2" d="M150.76 63.418C157.375 50.592 168.487 33.756 184 26c17.888-8.945 28.016-10.562 45 0 15.849 9.855 24.926 28.97 30 45.169"/><path stroke="#000" d="m262.501 70.695-.713 10.57-6.035-8.707 6.748-1.863z"/><text x="202.5" y="-176.412" font-family="Times,serif" font-size="14" text-anchor="middle" transform="translate(4 191.612)">3</text></g><g class="edge"><path fill="none" stroke="#000" stroke-dasharray="5 2" d="M159.8 71.676C177.417 63.87 206.053 54.683 229 64c6.837 2.776 13.09 7.543 18.396 12.681"/><path stroke="#000" d="m250.215 74.575 4.236 9.711-9.367-4.951 5.131-4.76z"/><text x="202.5" y="-134.412" font-family="Times,serif" font-size="14" text-anchor="middle" transform="translate(4 191.612)">6</text></g><g class="edge"><path fill="none" stroke="#000" stroke-dasharray="5 2" d="M259.447 116.419c-5.54 14.797-15.411 35.638-30.447 48.58-22.59 19.447-33.648 17.81-63 23-48.327 8.546-65.469 1.488-108-23-5.112-2.942-10.215-6.624-14.906-10.391"/><path stroke="#000" d="m40.533 157.024-5.347-9.146 9.884 3.815-4.537 5.331z"/><text x="139.5" y="-7.412" font-family="Times,serif" font-size="14" text-anchor="middle" transform="translate(4 191.612)">2</text></g><g class="edge"><path fill="none" stroke="#000" d="M246.999 96.185 171.382 84.36"/><path stroke="#000" d="m170.767 87.806-9.339-5.003 10.421-1.913-1.082 6.916z"/><text x="202.5" y="-108.412" font-family="Times,serif" font-size="14" text-anchor="middle" transform="translate(4 191.612)">1</text></g><g class="edge"><path fill="none" stroke="#000" d="M248.452 106.268C231.785 112.53 205.526 119.478 184 112c-7.333-2.548-14.34-7.035-20.403-11.858"/><path stroke="#000" d="m161.22 102.713-5.247-9.205 9.842 3.924-4.595 5.281z"/><text x="202.5" y="-83.412" font-family="Times,serif" font-size="14" text-anchor="middle" transform="translate(4 191.612)">4</text></g></g></svg>