<?xml version="1.0" encoding="utf-8" ?>
<svg xmlns="http://www.w3.org/2000/svg" xmlns:xlink="http://www.w3.org/1999/xlink" width="512" height="512">
	<path fill="#F1FAEE" transform="scale(0.666667 0.666667)" d="M0 81.5443L-0 -0L106.996 0L659.587 0L768 0L768 82.5525L768 707.108L768 768L680.955 768L89.7077 768L-0 768L0 707.667L0 81.5443Z"/>
	<path fill="#1896D1" transform="scale(0.666667 0.666667)" d="M393.852 720.2L399.122 719.579L399.238 720.534L400.045 720.951L394.447 721.728L393.852 720.2Z"/>
	<path fill="#1E9AD5" transform="scale(0.666667 0.666667)" d="M337.169 30.1184L346.706 29.2709C345.316 30.2048 344.915 30.1919 343.219 30.2812L345.44 30.3157L345.628 30.77L340.999 31.2036C339.56 30.9576 338.286 31.0885 337.169 30.1184Z"/>
	<path fill="#1E9AD5" transform="scale(0.666667 0.666667)" d="M399.122 719.579L406.125 718.645C406.918 719.515 407.105 719.529 408.258 719.834L400.045 720.951L399.238 720.534L399.122 719.579Z"/>
	<path fill="#1E9AD5" transform="scale(0.666667 0.666667)" d="M701.108 464.017C701.479 464.955 701.513 465.578 702.4 466.122L700.314 475.468L699.872 474.742C700.408 473.664 699.842 471.682 699.672 470.507L701.108 464.017Z"/>
	<path fill="#098BCD" transform="scale(0.666667 0.666667)" d="M729.113 350.066C729.501 350.699 729.785 351.228 730.312 351.75C730.264 350.836 730.404 350.165 730.646 349.299L730.738 348.978L731.297 356.182C731.19 357.501 731.147 358.415 730.691 359.625C730.402 360.392 730.704 360.658 730.171 361.433C729.437 357.778 729.394 353.788 729.113 350.066Z"/>
	<path fill="#096DB2" transform="scale(0.666667 0.666667)" d="M406.125 718.645L418.26 716.192C418.03 716.45 417.446 717.282 417.18 717.405C416.545 717.699 415.353 717.15 415.125 717.941L417.55 717.68C418.425 717.601 419.325 717.7 420.199 717.759L408.258 719.834C407.105 719.529 406.918 719.515 406.125 718.645Z"/>
	<path fill="#1896D1" transform="scale(0.666667 0.666667)" d="M617.839 652.508L630.985 647.395L632.31 648.084L631.759 648.582C631.04 648.856 630.659 649.154 630.105 649.686L618.259 653.873L617.681 653.526L617.794 653.197L617.839 652.508Z"/>
	<path fill="#1E9AD5" transform="scale(0.666667 0.666667)" d="M697.469 459.468L698.562 432.958C698.678 434.354 698.503 438.82 699.264 439.667L699.721 439.536L698.055 459.452L697.469 459.468Z"/>
	<path fill="#E63946" transform="scale(0.666667 0.666667)" d="M405.484 732.429C407.378 731.989 410.422 732.403 412.427 732.381C417.281 732.327 422.126 732.068 426.981 732.057L427.544 732.908L431.323 733.157C425.659 734.065 419.669 733.951 413.944 733.997C414.729 733.743 415.71 733.67 416.115 732.938C414.14 732.921 406.628 733.469 405.484 732.429Z"/>
	<path fill="#06458F" transform="scale(0.666667 0.666667)" d="M189.996 664.369C190.794 664.389 191.251 664.382 192 664.691L192.75 664.541C193.351 664.498 194.049 664.898 194.681 664.923C198.269 667.667 201.841 670.431 205.449 673.147C206.289 673.779 208.427 675.037 208.757 675.949C202.347 672.331 195.868 668.847 189.996 664.369Z"/>
	<path fill="#098BCD" transform="scale(0.666667 0.666667)" d="M699.672 470.507C699.842 471.682 700.408 473.664 699.872 474.742L700.314 475.468C699.026 481.335 697.425 488.443 694.93 493.933L693.944 494.051L697.6 478.553L699.672 470.507Z"/>
	<path fill="#1896D1" transform="scale(0.666667 0.666667)" d="M731.297 356.182L733.226 382.957C732.598 383.148 732.219 383.184 731.568 383.1L730.171 361.433C730.704 360.658 730.402 360.392 730.691 359.625C731.147 358.415 731.19 357.501 731.297 356.182Z"/>
	<path fill="#098BCD" transform="scale(0.666667 0.666667)" d="M312.099 33.5204C312.811 33.0952 315.134 32.9945 316.107 32.8333C323.051 31.6825 330.14 30.5479 337.169 30.1184C338.286 31.0885 339.56 30.9576 340.999 31.2036L312.779 34.968L312.662 34.4759L312.9 33.9513L312.099 33.5204Z"/>
	<path fill="#098BCD" transform="scale(0.666667 0.666667)" d="M706.973 440.4C706.024 448.759 704.765 458.051 702.4 466.122C701.513 465.578 701.479 464.955 701.108 464.017C703.251 456.636 703.172 448.442 705.612 441.135L706.973 440.4Z"/>
	<path fill="#1896D1" transform="scale(0.666667 0.666667)" d="M726.718 322.189C726.858 321.256 726.834 320.265 726.874 319.321L727.888 318.548L730.738 348.978L730.646 349.299C730.404 350.165 730.264 350.836 730.312 351.75C729.785 351.228 729.501 350.699 729.113 350.066L726.718 322.189Z"/>
	<path fill="#D7C7C7" transform="scale(0.666667 0.666667)" d="M697.469 459.468L698.055 459.452C697.782 466.008 697.038 471.95 697.6 478.553L693.944 494.051L693.202 495.822L693.041 493.875C692.824 491.451 693.474 489.446 693.653 487.077C694.075 481.5 693.987 475.261 695.079 469.789L696.042 464.074C696.305 463.095 696.283 461.62 696.702 460.768L696.94 460.382L697.469 459.468Z"/>
	<path fill="#F81021" transform="scale(0.666667 0.666667)" d="M373.206 731.582L405.484 732.429C406.628 733.469 414.14 732.921 416.115 732.938C415.71 733.67 414.729 733.743 413.944 733.997L363.114 732.742C364.73 731.827 369.247 732.173 371.156 732.329L371.625 732.375L371.812 732L368.463 731.979L368.062 731.55C369.658 731.744 371.096 731.769 372.7 731.629L373.206 731.582Z"/>
	<path fill="#1896D1" transform="scale(0.666667 0.666667)" d="M28.9147 394.995C28.4239 382.332 28.8732 369.603 29.3578 356.95C29.7026 347.95 29.9027 338.51 31.3064 329.614C31.6653 330.386 31.9793 330.941 32.5566 331.57L30.3054 375.906C29.7833 377.907 29.9078 379.927 29.9017 381.979C29.8891 386.252 30.241 390.825 29.8087 395.062L29.4116 395.232L28.9147 394.995Z"/>
	<path fill="#1E9AD5" transform="scale(0.666667 0.666667)" d="M731.568 383.1C732.219 383.184 732.598 383.148 733.226 382.957C734.301 398.748 733.899 415.092 732.911 430.875C732.5 437.425 732.308 443.997 731.282 450.49L730.965 447.203L730.115 446.899L731.568 383.1Z"/>
	<path fill="#1E9AD5" transform="scale(0.666667 0.666667)" d="M552.825 692.846C553.982 691.274 556.509 690.046 558.144 688.98C561.782 686.608 565.393 684.193 569.008 681.786C577.579 676.078 586.246 670.334 594.572 664.275C596.422 662.929 598.417 661.589 600.083 660.023C603.644 656.676 606.668 652.603 609.895 648.938C614.224 644.021 618.618 639.126 623.124 634.372L623.654 634.529L601.57 660.092L617.839 652.508L617.794 653.197L617.681 653.526L618.259 653.873C607.999 658.678 598.368 663.659 588.904 669.923C581.184 675.033 573.641 680.373 565.828 685.349C561.644 688.015 557.373 690.843 552.825 692.846Z"/>
	<path fill="#1E9AD5" transform="scale(0.666667 0.666667)" d="M256.04 706.706C256.61 706.67 257.248 706.608 257.812 706.704C258.83 706.878 260.09 707.546 261.126 707.854C264.44 708.839 267.727 709.903 271.035 710.905C277.865 712.976 284.902 714.594 291.844 716.247C309.211 720.383 327.302 723.288 345.188 723.7C361.342 724.072 377.87 722.457 393.852 720.2L394.447 721.728C393.155 722.204 391.173 722.158 389.751 722.322C385.289 722.836 380.835 723.291 376.358 723.659C366.707 724.454 357.15 725.189 347.447 725.035C325.821 724.689 304.167 720.794 283.297 715.34C274.054 712.924 264.826 710.52 256.04 706.706Z"/>
	<path fill="#E63946" transform="scale(0.666667 0.666667)" d="M256.139 711.668C262.567 713.712 268.775 716.246 275.268 718.16C290.219 722.566 305.883 725.453 321.294 727.689C327.695 728.618 334.183 729.182 340.63 729.706C343.658 729.952 347.027 729.897 349.982 730.464C355.127 730.603 360.263 730.872 365.402 731.134C367.938 731.263 370.722 731.144 373.206 731.582L372.7 731.629C371.096 731.769 369.658 731.744 368.062 731.55L368.463 731.979L371.812 732L371.625 732.375L371.156 732.329C369.247 732.173 364.73 731.827 363.114 732.742C362.2 733.049 360.268 732.741 359.218 732.705C354.662 732.546 350.108 732.208 345.56 731.912C332.128 731.125 318.521 729.075 305.308 726.617C292.081 724.157 278.899 721.259 266.25 716.618C263.123 715.47 258.422 714.172 256.139 711.668Z"/>
	<path fill="#F81021" transform="scale(0.666667 0.666667)" d="M543.45 699.125L543.805 699.072C548.667 698.275 553.718 696.088 558.468 694.649C567.093 692.037 575.929 689.808 584.438 686.857L584.592 687.217C575.746 690.195 566.981 693.35 558.074 696.171C551.622 698.215 544.926 699.896 538.573 702.188C530.095 705.245 522.297 709.862 513.938 713.175C491.215 722.181 467.22 728.81 442.986 732.102C439.581 732.565 434.717 733.564 431.323 733.157L427.544 732.908L426.981 732.057C456.588 730.094 486.018 723.055 513.651 712.222C520.688 709.463 527.407 705.936 534.273 702.783C537.061 701.503 540.423 699.467 543.45 699.125Z"/>
	<path fill="#098BCD" transform="scale(0.666667 0.666667)" d="M366.321 28.1065L384.498 28.1038L415.884 30.1058C420.827 30.2638 426.01 31.1787 430.906 31.8754C446.613 34.1101 462.302 37.4151 477.543 41.8268C479.087 42.2737 482.153 42.7885 483.052 44.0625L482.625 44.4651C476.149 43.1766 469.781 41.0306 463.348 39.4777C453.267 37.0443 442.997 35.2507 432.75 33.687C426.523 32.7367 419.951 31.6202 413.664 31.33C391.007 28.7056 368.332 29.4636 345.628 30.77L345.44 30.3157L343.219 30.2812C344.915 30.1919 345.316 30.2048 346.706 29.2709L366.321 28.1065Z"/>
	<path fill="#096DB2" transform="scale(0.666667 0.666667)" d="M366.321 28.1065L384.498 28.1038L386.441 28.875C385.227 29.4882 382.192 29.0875 380.779 29.0875C375.603 29.0876 370.427 29.0841 365.252 29.0787C365.605 28.6777 365.9 28.4247 366.321 28.1065Z"/>
	<path fill="#E63946" transform="scale(0.666667 0.666667)" d="M693.944 494.051L694.93 493.933L682.826 532.436C668.813 569.483 649.769 604.558 623.654 634.529L623.124 634.372C639.095 613.13 654.554 591.445 666.188 567.435C672.096 555.241 676.604 542.54 681.86 530.088C681.811 529.506 682.334 528.455 682.526 527.891C683.138 526.101 683.745 524.309 684.351 522.518C687.355 513.639 690.416 504.772 693.202 495.822L693.944 494.051Z"/>
	<path fill="#1E9AD5" transform="scale(0.666667 0.666667)" d="M687.523 154.492L689.833 155.817C696.933 170.382 701.988 185.45 706.45 201C715.282 231.782 720.356 263.7 724.872 295.359C725.698 301.148 726.534 306.934 727.292 312.731C727.503 314.345 728.165 317.017 727.888 318.548L726.874 319.321C726.834 320.265 726.858 321.256 726.718 322.189C725.85 318.026 725.699 313.567 725.155 309.337C724.081 300.978 722.907 292.637 721.677 284.299C715.159 240.126 707.141 194.933 687.523 154.492Z"/>
	<path fill="#1E9AD5" transform="scale(0.666667 0.666667)" d="M630.105 649.686C630.659 649.154 631.04 648.856 631.759 648.582L632.404 648.738C637.782 650 642.445 650.331 645.683 655.583C647.65 658.774 648.279 662.572 647.231 666.197C643.562 678.879 630.514 688.013 620.081 694.894C613.13 699.477 605.922 703.763 598.528 707.592C564.785 725.062 528.907 733.73 491.06 735.758C481.739 736.258 471.258 736.772 462 735.55C470.919 735.377 479.956 735.46 488.855 734.901C530.377 732.292 570.061 722.554 606.351 701.776C617.227 695.549 628.532 688.662 637.297 679.606C641.613 675.148 646.348 668.257 646.036 661.791C645.871 658.357 644.541 655.604 641.915 653.347C638.45 650.369 634.414 650.15 630.105 649.686Z"/>
	<path fill="#098BCD" transform="scale(0.666667 0.666667)" d="M730.115 446.899L730.965 447.203L731.282 450.49L729.937 462.274L728.658 472.105C727.579 482.615 725.371 493.066 723.214 503.398C716.574 535.196 706.43 567.607 689.422 595.479C681.497 608.467 671.854 620.669 659.999 630.293C653.887 635.255 647.462 639.988 640.623 643.902C637.932 645.442 635.248 647.059 632.31 648.084L630.985 647.395L653.163 633.871C668.636 622.727 680.797 607.593 690.307 591.188C708.255 560.225 717.886 524.676 724.298 489.696C725.466 483.32 726.268 476.9 727.309 470.506L728.547 460.617C728.586 456.224 729.474 451.248 730.115 446.899Z"/>
	<path fill="#1896D1" transform="scale(0.666667 0.666667)" d="M312.779 34.968L280.176 42.1021C214.373 60.1139 152.225 99.213 109.493 152.625C104.678 158.643 99.8162 164.684 95.5113 171.08C88.7033 181.196 82.5358 191.828 77.2862 202.833C75.6907 206.178 74.1957 209.578 72.7706 212.999C72.0704 214.68 71.6232 216.473 70.7151 218.062C70.4289 215.969 72.1219 212.302 72.9123 210.298C78.7664 195.452 87.121 180.329 96.3685 167.32C146.297 97.0835 227.37 47.9159 312.099 33.5204L312.9 33.9513L312.662 34.4759L312.779 34.968Z"/>
	<path fill="#1896D1" transform="scale(0.666667 0.666667)" d="M687.523 154.492C685.51 151.965 683.976 149.008 682.181 146.312C678.794 141.226 675.176 136.278 671.272 131.576C650.217 106.221 624.571 85.1749 596.532 67.9786C587.759 62.5984 579.099 57.508 569.759 53.1515C560.171 48.6787 550.409 44.4739 540.59 40.5315C532.846 37.4221 524.298 34.8226 517.228 30.3904C521.567 31.5669 525.737 33.3189 529.935 34.92C537.26 37.7132 544.539 40.6307 551.758 43.6849C561.023 47.6042 570.449 51.6662 579.351 56.3631C613.002 74.1182 644.272 98.5516 669.261 127.217C675.382 134.238 680.597 141.704 686.296 149.026C688.763 152.196 691.631 155.01 694.198 158.091C699.358 164.285 703.874 171.167 707.88 178.151C717.981 195.763 723.471 214.982 728.282 234.562C730.154 242.184 732.309 250.411 732.639 258.279C730.401 249.902 728.786 241.355 726.702 232.935C719.833 205.187 710.039 177.417 690.588 155.833L689.833 155.817L687.523 154.492Z"/>
	<path fill="#1E9AD5" transform="scale(0.666667 0.666667)" d="M28.9147 394.995L29.4116 395.232L29.8087 395.062C30.241 390.825 29.8891 386.252 29.9017 381.979C29.9078 379.927 29.7833 377.907 30.3054 375.906C30.3349 392.614 30.5466 409.399 31.6782 426.072C32.7369 441.671 34.7501 457.053 37.0518 472.505C40.7386 497.257 46.1779 522.245 54.9907 545.712C67.9809 580.304 89.9807 613.169 116.118 639.177C127.029 650.034 138.859 659.213 151.692 667.687C155.671 670.315 159.798 672.749 163.856 675.255C165.824 676.47 168.861 677.953 170.215 679.841C155.077 671.467 140.587 662.515 127.292 651.375C115.374 641.388 104.802 629.706 95.1444 617.555C73.2816 590.046 56.8215 560.142 47.0625 526.285C36.2504 488.774 30.672 448.507 29.5285 409.509C29.3881 404.719 28.7619 399.761 28.9147 394.995Z"/>
	<path fill="#1E9AD5" transform="scale(0.666667 0.666667)" d="M31.3064 329.614C34.9953 288.162 45.2583 246.877 60.9778 208.369C73.0136 178.885 87.5702 151.317 107.593 126.406C119.328 111.806 133.412 98.3808 147.753 86.3781C170.302 67.5064 197.367 51.7608 225.262 42.2791C227.633 41.4732 230.003 40.6561 232.395 39.9125C233.292 39.6334 234.571 39.0961 235.5 39.1033L236.198 39.2359C227.782 42.6267 219.15 45.4595 210.81 49.0614C200.026 53.7194 189.556 59.3532 179.407 65.2544C164.66 73.8289 151.564 84.1853 138.995 95.6426C130.796 103.116 122.605 110.947 115.274 119.274C106.927 128.754 99.5644 139.08 92.6313 149.625C84.5436 161.926 77.0327 174.766 71.2504 188.337C67.1881 197.871 62.8453 207.24 59.1486 216.939C49.677 241.792 42.3966 267.591 37.7079 293.774C35.4708 306.266 33.9437 318.957 32.5566 331.57C31.9793 330.941 31.6653 330.386 31.3064 329.614Z"/>
	<path fill="#E63946" transform="scale(0.666667 0.666667)" d="M667.306 521.199C666.911 525.095 665.601 528.859 664.459 532.59C659.839 547.687 653.112 562.315 644.864 575.765C643.27 578.365 641.562 581.559 639.532 583.816C637.445 588.337 633.26 593.059 630.283 597.09C622.81 607.211 614.976 616.833 606.418 626.062C597.376 635.813 587.841 644.419 577.838 653.134C566.502 663.009 553.703 674.454 539.66 680.113C539.157 679.656 539.36 679.941 539.1 679.228C540.269 675.932 545.385 673.868 548.211 671.945C551.858 669.463 555.615 666.939 559.103 664.246L566.625 658.602C583.813 645.472 599.313 630.506 613.123 613.873C614.983 611.633 618.921 607.816 619.315 604.968L638.841 575.616C638.948 574.738 640.197 573.036 640.65 572.224C642.927 568.143 645.316 564.125 647.576 560.036C654.59 547.344 660.689 534.103 667.306 521.199Z"/>
	<path fill="#E63946" transform="scale(0.666667 0.666667)" d="M622.266 149.568C624.468 150.779 626.043 153.065 627.659 154.943C630.922 158.736 634.006 162.655 637.063 166.615C644.225 175.894 651.254 185.214 657.564 195.102C673.34 219.817 685.847 246.898 695.614 274.5C698.245 281.934 701.071 289.342 703.26 296.922L704.065 300.053C707.309 309.406 708.732 320.209 710.074 330.016C710.7 334.971 711.217 339.913 711.589 344.894C711.753 347.095 712.153 349.55 712.04 351.741C712.08 352.881 712.514 355.48 712.179 356.456C713.022 363.523 712.655 371.162 712.576 378.285C712.531 382.368 712.794 386.85 712.169 390.874L712.15 393.984C711.436 405.142 710.36 416.128 708.94 427.218C708.393 431.488 708.058 436.248 706.973 440.4L705.612 441.135L710.568 393.242L710.971 382.768C710.621 381.521 710.973 379.381 710.981 378.02C711.007 373.287 710.981 368.552 710.974 363.818L710.949 359.006L708.668 332.719L702.16 299.904C701.232 298.207 700.764 295.863 700.098 294C698.77 290.283 697.312 286.585 695.796 282.941C693.255 276.833 689.927 271.391 686.975 265.513C684.928 261.437 682.908 257.364 680.736 253.35C680.096 252.168 679.189 249.999 678.235 249.099C678.01 248.887 677.684 248.819 677.409 248.678L622.266 149.568Z"/>
	<path fill="#F1FAEE" transform="scale(0.666667 0.666667)" d="M677.409 248.678C677.684 248.819 678.01 248.887 678.235 249.099C679.189 249.999 680.096 252.168 680.736 253.35C682.908 257.364 684.928 261.437 686.975 265.513C689.927 271.391 693.255 276.833 695.796 282.941C697.312 286.585 698.77 290.283 700.098 294C700.764 295.863 701.232 298.207 702.16 299.904L708.668 332.719L710.949 359.006L710.974 363.818C710.981 368.552 711.007 373.287 710.981 378.02C710.973 379.381 710.621 381.521 710.971 382.768L710.568 393.242L705.612 441.135C703.172 448.442 703.251 456.636 701.108 464.017L699.672 470.507L697.6 478.553C697.038 471.95 697.782 466.008 698.055 459.452L699.721 439.536C700.379 434.33 700.45 429.022 700.465 423.781C700.476 420.143 700.592 416.459 700.167 412.841C700.352 409.155 699.847 405.232 699.662 401.533C698.982 387.924 697.36 374.36 696.135 360.792C693.111 335.853 690.595 310.938 686.398 286.146C684.211 273.229 682.575 260.884 677.409 248.678Z"/>
	<path fill="#A8DADC" transform="scale(0.666667 0.666667)" d="M680.955 768C692.508 761.627 704.46 755.824 715.862 749.209C725.604 743.557 735.251 737.202 744.037 730.152C752.703 723.198 760.513 715.296 768 707.108L768 768L680.955 768Z"/>
	<path fill="#A8DADC" transform="scale(0.666667 0.666667)" d="M0 707.667C2.79025 711.296 6.27161 714.474 9.5773 717.63C25.1205 732.471 42.6849 743.404 61.7472 753.092C68.9117 756.732 75.9247 760.426 82.9539 764.319C85.1835 765.553 87.6077 766.556 89.7077 768L-0 768L0 707.667Z"/>
	<path fill="#E63946" transform="scale(0.666667 0.666667)" d="M139.489 678.639C146.316 676.949 153.902 678.285 160.565 680.12C165.782 681.557 171.045 683.057 176.026 685.192C185.266 689.152 193.966 694.551 202.866 699.219C209.978 702.948 217.207 706.404 224.625 709.478C239.775 715.756 256.364 720.332 272.517 723.044C268.897 723.588 265.084 723.241 261.408 723.523L245.539 724.304C229.821 724.995 213.659 725.694 197.957 724.571C180.188 723.299 160.749 719.292 144.356 712.268L144.224 712.269C142.14 711.649 139.985 710.538 138.032 709.591C132.744 707.027 126.051 703.282 123.111 697.922C121.765 695.469 121.269 693.431 122.017 690.705C122.474 688.874 123.153 687.208 124.338 685.719C127.884 681.262 134.003 679.223 139.489 678.639Z"/>
	<path fill="#D7C7C7" transform="scale(0.666667 0.666667)" d="M139.224 680.278C143.547 679.872 147.878 679.637 152.21 680.088C169.169 681.851 183.812 690.006 198.49 697.957C207.644 702.916 216.952 707.727 226.628 711.597C233.881 714.499 241.28 716.847 248.812 718.893C252.612 719.925 257.311 720.564 260.882 722.126L261.297 722.649C258.92 722.935 256.28 722.363 253.87 722.316C248.637 722.214 243.321 722.558 238.086 722.722C217.324 723.37 196.947 723.502 176.448 719.653C170.147 718.469 164.113 716.269 157.885 714.996L157.232 714.867C154.8 713.502 151.528 712.72 148.875 711.783C141.426 709.15 129.972 704.955 125.513 697.902C123.642 694.942 123.513 692.83 124.247 689.524L125.106 687.949C128.158 682.996 133.912 681.478 139.224 680.278Z"/>
	<path fill="#A8DADC" transform="scale(0.666667 0.666667)" d="M659.587 0L768 0L768 82.5525C744.866 50.1975 711.857 26.3505 676.9 8.1834C671.213 5.22756 665.338 2.78842 659.587 0Z"/>
	<path fill="#A8DADC" transform="scale(0.666667 0.666667)" d="M0 81.5443L-0 -0L106.996 0C103.493 2.6982 99.1687 4.41835 95.2493 6.44355C89.3727 9.48008 83.5689 12.5752 77.9132 16.0102C68.949 21.4548 59.9663 26.9935 51.4927 33.1875C32.38 47.1583 15.388 63.6056 0 81.5443Z"/>
	<path fill="#1D3557" transform="scale(0.666667 0.666667)" d="M677.946 437.011L678.131 436.725C678.781 435.672 678.857 435.107 678.908 433.901C678.959 432.712 679.265 431.271 679.63 430.139C679.848 432.464 679.529 435.222 680.22 437.426C679.651 465.626 675.092 494.156 667.306 521.199C660.689 534.103 654.59 547.344 647.576 560.036C645.316 564.125 642.927 568.143 640.65 572.224C640.197 573.036 638.948 574.738 638.841 575.616L619.315 604.968C618.921 607.816 614.983 611.633 613.123 613.873C599.313 630.506 583.813 645.472 566.625 658.602L559.103 664.246C555.615 666.939 551.858 669.463 548.211 671.945C545.385 673.868 540.269 675.932 539.1 679.228C539.36 679.941 539.157 679.656 539.66 680.113C538.241 681.322 535.755 682.006 534 682.688L534.002 682.219L534.566 681.938C535.472 681.311 535.46 680.539 535.677 679.556L535.249 679.355C533.713 680.234 532.492 681.521 530.64 681.198L529.995 681.478C526.564 682.992 523.282 685.069 519.905 686.732C513.33 689.97 506.588 692.901 499.861 695.808C480.786 704.052 461.403 709.5 441.128 713.814C434.242 715.28 427.186 716.903 420.199 717.759C419.325 717.7 418.425 717.601 417.55 717.68L415.125 717.941C415.353 717.15 416.545 717.699 417.18 717.405C417.446 717.282 418.03 716.45 418.26 716.192C435.379 711.565 452.079 705.755 468.234 698.414C487.695 689.57 506.308 678.599 524.17 666.892C542.381 654.956 560.464 641.804 576.267 626.784C600.993 603.285 621.139 575.39 638.172 545.973C650.679 524.372 661.641 501.831 669.041 477.937C673.198 464.514 675.092 450.717 677.946 437.011Z"/>
	<path fill="#F7A7A4" transform="scale(0.666667 0.666667)" d="M619.315 604.968C618.921 607.816 614.983 611.633 613.123 613.873C599.313 630.506 583.813 645.472 566.625 658.602L559.103 664.246C555.615 666.939 551.858 669.463 548.211 671.945C545.385 673.868 540.269 675.932 539.1 679.228C539.36 679.941 539.157 679.656 539.66 680.113C538.241 681.322 535.755 682.006 534 682.688L534.002 682.219L534.566 681.938C535.472 681.311 535.46 680.539 535.677 679.556L535.249 679.355C533.713 680.234 532.492 681.521 530.64 681.198C533.119 679.23 536.365 677.704 539.099 676.068C544.608 672.772 550.155 669.402 555.375 665.66C579.412 648.43 600.597 627.795 619.315 604.968Z"/>
	<path fill="#1D3557" transform="scale(0.666667 0.666667)" d="M88.0035 251.204C89 247.31 90.7435 243.41 92.262 239.684C94.7236 233.643 97.2716 227.675 100.059 221.776C111.1 198.414 124.641 176.451 141.082 156.495C156.673 137.568 175.244 120.358 194.714 105.493C213.471 91.1729 234.393 79.0694 256.096 69.825C291.336 54.8137 329.764 46.1379 367.878 43.0404C388.902 41.3318 410.516 41.21 431.451 44.019C445.249 45.8703 458.938 48.3489 472.344 52.1386C484.396 55.5458 496.16 60.0142 507.704 64.8445C538.218 77.6119 565.886 94.5886 590.837 116.317C598.77 123.226 606.509 130.349 613.434 138.289C616.56 141.873 619.384 145.785 622.266 149.568L677.409 248.678C682.575 260.884 684.211 273.229 686.398 286.146C690.595 310.938 693.111 335.853 696.135 360.792C697.36 374.36 698.982 387.924 699.662 401.533C699.847 405.232 700.352 409.155 700.167 412.841C700.592 416.459 700.476 420.143 700.465 423.781C700.45 429.022 700.379 434.33 699.721 439.536L699.264 439.667C698.503 438.82 698.678 434.354 698.562 432.958C698.38 432.485 698.51 431.307 698.503 430.778C698.469 428.264 698.509 425.757 698.574 423.244C697.94 421.083 698.367 417.194 698.27 414.85C698.088 410.481 697.682 406.119 697.275 401.765C695.905 387.097 693.782 372.586 691.683 358.01C691.567 357.907 688.534 342.899 688.078 340.964C684.537 325.931 680.263 310.945 675.246 296.332C664.391 264.712 648.684 233.316 629.716 205.779C625.804 200.099 621.485 194.684 617.277 189.223C612.187 182.618 607.124 175.926 601.544 169.721C595.794 163.326 589.588 157.335 583.354 151.417C576.523 144.931 569.66 138.541 562.174 132.809C536.578 113.211 508.392 97.2914 478.784 84.6072C457.979 75.6943 436.313 68.2322 413.812 65.0746C387.37 61.3637 360.308 62.6155 333.91 66.1142L328.956 66.7411C322.43 68.146 315.543 68.5382 309.184 70.6281C292.504 74.2091 276.976 82.7745 262.487 91.5213C225.584 113.799 192.733 141.698 165.074 174.785C157.822 183.46 150.832 192.145 144.673 201.638C126.936 228.974 117.196 259.746 108.182 290.779C104.966 301.851 101.456 313.096 98.9369 324.348C95.3777 333.99 91.4937 343.603 88.4993 353.438C86.1388 361.19 84.3691 369.441 82.8308 377.39C81.9772 378.849 81.9347 380.341 81.5625 381.941C80.6771 385.749 79.9507 389.634 79.3237 393.496C76.8324 408.839 75.1614 424.622 75.2031 440.183C75.2401 453.995 76.6843 468.054 78.3674 481.761C79.5626 491.494 80.803 501.383 83.2749 510.886C90.3341 538.024 104.615 562.665 120.944 585.235C124.774 590.529 129.103 595.482 132.852 600.827L149.027 621.447C152.318 625.954 156.265 630.231 160.073 634.312C162.172 636.563 164.888 638.87 166.511 641.492L194.681 664.923C194.049 664.898 193.351 664.498 192.75 664.541L192 664.691C191.251 664.382 190.794 664.389 189.996 664.369C188.89 664.059 186.977 662.324 185.943 661.586C174.884 653.691 164.071 644.764 154.301 635.332C150.498 632.442 147.034 628.323 143.734 624.869C126.896 607.246 112.679 588.098 100.152 567.211C90.9286 551.551 83.0364 534.926 76.8231 517.85L75.0614 512.563L72.3119 504.465L69.8391 495.925L67.6763 486.943L65.64 477.025L64.3056 468.673C63.9451 468.153 63.853 466.282 63.751 465.598C63.2867 462.483 62.8293 459.367 62.5695 456.227L61.3171 441.534C59.8284 427.404 60.8439 412.858 61.5609 398.696C61.3339 396.229 61.6926 393.478 61.8038 390.99L62.4152 379.909L67.5161 334.535C67.5316 331.537 68.4681 327.996 68.9561 325.011C72.3218 304.419 77.3073 283.466 83.752 263.608C85.0776 259.523 86.2209 255.099 88.0035 251.204Z"/>
	<path fill="#54B8E5" transform="scale(0.666667 0.666667)" d="M700.167 412.841C700.592 416.459 700.476 420.143 700.465 423.781C700.45 429.022 700.379 434.33 699.721 439.536L699.264 439.667C698.503 438.82 698.678 434.354 698.562 432.958C698.38 432.485 698.51 431.307 698.503 430.778C698.469 428.264 698.509 425.757 698.574 423.244C699.424 425.512 699.229 428.795 699.503 431.25L700.13 413.263L700.167 412.841Z"/>
	<path fill="#E63946" transform="scale(0.666667 0.666667)" d="M154.069 149.708C152.19 153.61 148.738 156.906 145.967 160.212C142.309 164.576 138.721 169.004 135.328 173.578C122.685 190.624 112.46 208.787 103.739 228.09C99.3805 240.167 94.5141 251.612 91.4996 264.188C88.8538 275.225 88.9386 286.874 87.2973 298.099C85.8555 307.96 83.0751 317.771 81.1978 327.579C79.2685 337.659 78.2294 347.957 76.0306 357.975C74.1878 366.37 70.6218 374.005 67.8387 382.085C66.3265 386.475 65.4938 391.051 64.1772 395.498C61.9384 375.608 65.6387 354.719 68.4304 335.059C71.6428 314.13 76.5932 293.222 82.6868 272.948C84.8224 265.843 87.4009 258.902 89.7199 251.859C91.5875 247.065 93.2633 241.78 95.739 237.284C97.3208 232.006 100.376 226.6 102.818 221.66C107.386 212.418 112.214 203.325 117.758 194.625C121.413 188.888 125.534 183.428 129.562 177.951C136.926 167.938 144.951 158.187 154.069 149.708Z"/>
	<defs>
		<linearGradient id="gradient_0" gradientUnits="userSpaceOnUse" x1="318.15701" y1="398.73599" x2="84.847298" y2="251.88699">
			<stop offset="0" stop-color="#EA0016"/>
			<stop offset="1" stop-color="#F67577"/>
		</linearGradient>
	</defs>
	<path fill="url(#gradient_0)" transform="scale(0.666667 0.666667)" d="M154.069 149.708C160.483 142.215 168.418 135.463 175.868 129.001C205.93 102.925 241.452 83.0427 280.15 73.3361C290.271 70.7975 300.177 68.8045 310.579 67.898C316.655 67.3685 322.852 66.31 328.956 66.7411C322.43 68.146 315.543 68.5382 309.184 70.6281C292.504 74.2091 276.976 82.7745 262.487 91.5213C225.584 113.799 192.733 141.698 165.074 174.785C157.822 183.46 150.832 192.145 144.673 201.638C126.936 228.974 117.196 259.746 108.182 290.779C104.966 301.851 101.456 313.096 98.9369 324.348C95.3777 333.99 91.4937 343.603 88.4993 353.438C86.1388 361.19 84.3691 369.441 82.8308 377.39C81.9772 378.849 81.9347 380.341 81.5625 381.941C80.6771 385.749 79.9507 389.634 79.3237 393.496C76.8324 408.839 75.1614 424.622 75.2031 440.183C75.2401 453.995 76.6843 468.054 78.3674 481.761C79.5626 491.494 80.803 501.383 83.2749 510.886C90.3341 538.024 104.615 562.665 120.944 585.235C124.774 590.529 129.103 595.482 132.852 600.827L149.027 621.447C152.318 625.954 156.265 630.231 160.073 634.312C162.172 636.563 164.888 638.87 166.511 641.492C162.814 639.786 159.676 636.712 156.346 634.388C154.025 631.8 150.951 629.519 148.425 627.077C140.717 619.629 132.254 611.1 126.128 602.29C125.482 602.05 123.597 599.347 123.107 598.736C115.074 588.713 108.472 578.028 101.527 567.264C92.5006 550.822 84.8278 534.362 78.3759 516.743L76.4502 511.692C76.4803 511.236 75.9363 510.031 75.7728 509.538C75.0633 507.404 74.3821 505.261 73.6988 503.118L71.9427 496.776L69.5631 486.96L67.0074 475.119L65.8106 468.543L64.2397 457.407L62.691 439.099L63.118 405.926C63.5596 402.479 63.3427 398.879 64.1772 395.498C65.4938 391.051 66.3265 386.475 67.8387 382.085C70.6218 374.005 74.1878 366.37 76.0306 357.975C78.2294 347.957 79.2685 337.659 81.1978 327.579C83.0751 317.771 85.8555 307.96 87.2973 298.099C88.9386 286.874 88.8538 275.225 91.4996 264.188C94.5141 251.612 99.3805 240.167 103.739 228.09C112.46 208.787 122.685 190.624 135.328 173.578C138.721 169.004 142.309 164.576 145.967 160.212C148.738 156.906 152.19 153.61 154.069 149.708Z"/>
	<path fill="#F1FAEE" transform="scale(0.666667 0.666667)" d="M328.956 66.7411L333.91 66.1142L334.262 66.9489C338.5 68.0803 342.901 68.2451 347.236 68.7686C351.005 69.2238 354.716 69.9886 358.432 70.748C375.073 74.1481 391.208 78.8727 407.438 83.7934C409.471 84.4098 411.546 84.9601 413.625 85.3946C414.472 85.5715 415.396 85.5458 416.053 86.1166C427.971 89.0116 439.438 92.9367 450.902 97.2502C513.723 120.887 568.941 163.487 610.711 215.718C622.758 230.783 633.457 247.224 643.511 263.668C659.81 290.327 672.233 321.336 678.413 351.938C680.053 360.063 681.581 368.465 681.866 376.768C682.65 381.725 682.556 386.913 682.614 391.926C682.683 398 682.824 404.22 682.172 410.262C681.66 415.001 680.563 419.782 680.201 424.504C679.871 428.81 680.688 433.096 680.22 437.426C679.529 435.222 679.848 432.464 679.63 430.139C679.265 431.271 678.959 432.712 678.908 433.901C678.857 435.107 678.781 435.672 678.131 436.725L677.946 437.011L678.623 428.995C676.375 434.471 674.78 440.23 672.707 445.782C669.204 455.16 665.024 464.378 660.459 473.283C649.323 495.004 636.051 515.075 621.744 534.793C607.718 554.125 593.115 572.91 577.023 590.59C570.563 597.687 563.68 604.437 556.874 611.2C546.844 621.169 536.674 631.018 525.552 639.781C511.821 650.6 496.69 659.942 481.146 667.916C453.347 685.21 422.331 700.311 390.375 708.003C357.855 715.832 322.326 715.887 289.789 708.286C284.367 707.019 278.928 705.553 273.58 703.996C270.69 703.156 267.529 702.43 264.891 700.97C263.001 699.596 259.915 698.822 257.709 698.102C252.998 696.565 248.232 695.143 243.566 693.474C235.225 690.491 227.204 686.662 219.463 682.373C215.854 680.373 212.086 678.389 208.757 675.949C208.427 675.037 206.289 673.779 205.449 673.147C201.841 670.431 198.269 667.667 194.681 664.923L166.511 641.492C164.888 638.87 162.172 636.563 160.073 634.312C156.265 630.231 152.318 625.954 149.027 621.447L132.852 600.827C129.103 595.482 124.774 590.529 120.944 585.235C104.615 562.665 90.3341 538.024 83.2749 510.886C80.803 501.383 79.5626 491.494 78.3674 481.761C76.6843 468.054 75.2401 453.995 75.2031 440.183C75.1614 424.622 76.8324 408.839 79.3237 393.496C79.9507 389.634 80.6771 385.749 81.5625 381.941C81.9347 380.341 81.9772 378.849 82.8308 377.39C84.3691 369.441 86.1388 361.19 88.4993 353.438C91.4937 343.603 95.3777 333.99 98.9369 324.348C101.456 313.096 104.966 301.851 108.182 290.779C117.196 259.746 126.936 228.974 144.673 201.638C150.832 192.145 157.822 183.46 165.074 174.785C192.733 141.698 225.584 113.799 262.487 91.5213C276.976 82.7745 292.504 74.2091 309.184 70.6281C315.543 68.5382 322.43 68.146 328.956 66.7411Z"/>
	<path fill="#06458F" transform="scale(0.666667 0.666667)" d="M586.686 329.983L588.46 329.531L588.708 331.3C588.69 332.542 588.721 333.599 589.011 334.81L588.116 335.706L586.686 329.983Z"/>
	<path fill="#06458F" transform="scale(0.666667 0.666667)" d="M584.416 321.277C585.17 321.872 585.868 322.462 586.716 322.92L587.539 325.857L586.13 327.45L584.416 321.277Z"/>
	<path fill="#075192" transform="scale(0.666667 0.666667)" d="M588.708 331.3L590.406 338.295C590.34 339.29 590.229 339.94 589.863 340.882L589.39 342.12L588.116 335.706L589.011 334.81C588.721 333.599 588.69 332.542 588.708 331.3Z"/>
	<path fill="#54B8E5" transform="scale(0.666667 0.666667)" d="M559.364 390.256L559.716 389.483L560.609 389.505C561.236 395.673 561.113 401.846 560.555 408.014L559.74 407.44L559.45 404.145L559.364 390.256Z"/>
	<path fill="#79CDF4" transform="scale(0.666667 0.666667)" d="M559.45 404.145L559.74 407.44L560.555 408.014C560.404 415.612 559.436 423.918 557.61 431.283L556.295 429.857L559.45 404.145Z"/>
	<path fill="#1E9AD5" transform="scale(0.666667 0.666667)" d="M370.234 602.41C388.47 604.495 407.213 605.016 425.438 602.545C429.68 601.97 433.796 600.841 438 600.126C436.508 601.381 432.82 601.948 430.877 602.387C412.298 606.591 393.052 605.971 374.187 604.362L369.027 603.793L370.234 602.41Z"/>
	<path fill="#A8DADC" transform="scale(0.666667 0.666667)" d="M538.332 306.091C541.799 311.501 544.511 318.087 546.831 324.069C553.211 340.517 557.176 357.348 559.404 374.836C560.012 379.604 560.85 384.699 560.609 389.505L559.716 389.483L559.364 390.256C559.245 390.159 558.916 385.606 558.868 385.042C557.043 363.844 552.835 342.951 544.918 323.129C542.578 317.269 539.7 311.706 536.941 306.041L537.9 306.557L538.332 306.091Z"/>
	<path fill="#A8DADC" transform="scale(0.666667 0.666667)" d="M508.984 516.978C513.082 513.749 516.756 509.889 520.284 506.059C539.79 484.886 550.495 457.681 556.295 429.857L557.61 431.283C553.064 456.034 542.21 482.705 525.69 501.954C522.456 505.723 518.937 509.348 515.347 512.778C513.641 514.408 511.504 516.004 509.963 517.736L508.984 516.978Z"/>
	<path fill="#1E9AD5" transform="scale(0.666667 0.666667)" d="M536.941 306.041C530.962 294.256 522.935 282.731 513.955 273.034C487.579 244.55 449.593 228.137 411.393 223.642C404.253 222.802 396.958 222.851 389.777 222.599C398.902 220.489 407.78 221.85 416.924 223.187C427.237 224.695 437.59 226.691 447.498 229.97C465.329 235.869 483.009 244.665 497.816 256.259C514.54 269.352 528.771 287.142 538.332 306.091L537.9 306.557L536.941 306.041Z"/>
	<path fill="#54B8E5" transform="scale(0.666667 0.666667)" d="M369.027 603.793C353.216 602.054 336.695 598.354 321.75 592.935C314.31 590.237 307.119 586.894 299.952 583.555C291.952 579.828 283.996 575.967 276.43 571.402C262.473 562.982 249.088 553.278 237.321 541.964C236.329 541.009 233.737 538.907 233.438 537.71C236.967 539.37 240.522 543.386 243.595 545.924C249.046 550.427 254.598 554.896 260.348 559.016C270.104 566.007 280.387 571.884 291.061 577.343C299.359 581.588 307.909 585.824 316.611 589.188C333.874 595.862 351.926 599.919 370.234 602.41L369.027 603.793Z"/>
	<path fill="#F7A7A4" transform="scale(0.666667 0.666667)" d="M421.316 215.438C424.364 214.882 428.146 215.199 431.248 215.351C447.653 216.154 462.045 221.223 477.184 227.062C489.678 231.882 501.157 239.593 511.873 247.51C517.231 251.468 522.14 256.24 526.796 260.99C549.023 283.664 563.792 313.076 573.153 343.187C581.596 370.343 584.974 400.04 580.98 428.289C580.18 433.947 578.742 439.545 577.412 445.099C574.476 457.367 570.507 469.084 564.594 480.269C561.96 485.251 548.764 507.811 544.688 509.066C547.916 505.241 550.612 501.009 553.418 496.875C566.573 477.497 575.783 454.631 579.507 431.444C580.911 422.699 581.261 413.947 581.284 405.105C581.401 359.899 565.912 313.556 539.365 277.006C520.793 251.434 492.628 232.357 462.752 222.68C455.866 220.449 448.938 218.449 441.752 217.42L440.625 217.262C438.1 216.707 435.652 216.803 433.125 216.434C430.522 216.054 421.212 216.74 419.816 215.812C420.376 215.252 420.556 215.44 421.316 215.438Z"/>
	<path fill="#1D3557" transform="scale(0.666667 0.666667)" d="M302.95 335.835L304.671 337.068C303.903 344.916 304.697 353.476 305.709 361.264C308.999 386.568 317.002 411.699 331.441 432.918C348.039 457.311 380.876 489.88 410.435 495.452C407.245 495.892 403.995 495.782 400.781 495.778C393.501 495.769 386.362 495.192 379.243 493.603C354.268 488.029 330.556 471.917 316.879 450.284C295.318 416.181 294.423 374.123 302.95 335.835Z"/>
	<path fill="#F36C72" transform="scale(0.666667 0.666667)" d="M82.8308 377.39L83.4335 376.933L84.446 372.706C85.3294 373.924 85.1069 375.239 84.9748 376.639C84.9033 377.397 85.0806 377.622 85.4106 378.259C86.5093 380.378 86.4317 384.837 86.8819 387.269C87.035 388.097 87.0806 389.342 87.5939 390.011C88.1632 397.166 89.2591 404.269 89.9086 411.421C91.8269 432.544 93.5877 453.812 98.0625 474.582C103.803 501.228 114.433 526.708 127.61 550.48C133.4 560.926 139.886 570.99 146.608 580.856C148.71 583.941 150.898 586.958 153.074 589.99C154.151 591.491 155.486 593.04 156.281 594.703L156.702 595.168C158.812 597.524 160.642 600.251 162.634 602.72C167.082 608.233 171.683 613.676 176.573 618.802C197.274 640.499 222.774 659.697 250.875 670.53C258.328 673.403 265.771 675.853 273.7 677.037C273.615 685.982 270.175 693.887 264.891 700.97C263.001 699.596 259.915 698.822 257.709 698.102C252.998 696.565 248.232 695.143 243.566 693.474C235.225 690.491 227.204 686.662 219.463 682.373C215.854 680.373 212.086 678.389 208.757 675.949C208.427 675.037 206.289 673.779 205.449 673.147C201.841 670.431 198.269 667.667 194.681 664.923L166.511 641.492C164.888 638.87 162.172 636.563 160.073 634.312C156.265 630.231 152.318 625.954 149.027 621.447L132.852 600.827C129.103 595.482 124.774 590.529 120.944 585.235C104.615 562.665 90.3341 538.024 83.2749 510.886C80.803 501.383 79.5626 491.494 78.3674 481.761C76.6843 468.054 75.2401 453.995 75.2031 440.183C75.1614 424.622 76.8324 408.839 79.3237 393.496C79.9507 389.634 80.6771 385.749 81.5625 381.941C81.9347 380.341 81.9772 378.849 82.8308 377.39Z"/>
	<path fill="#B0154B" transform="scale(0.666667 0.666667)" d="M302.95 335.835C305.432 318.625 310.676 302.887 319.535 287.914C329.853 270.476 343.19 252.774 359.526 240.589C365.374 236.226 371.252 232.573 378.383 230.783C383.526 229.491 389 229.233 394.289 229.164C418.561 228.85 443.94 236.45 464.707 248.828C486.243 261.663 503.436 277.195 517.676 297.849C525.008 308.486 531.495 320.76 534.696 333.327C533.272 336.138 534.02 341.079 533.828 344.278C533.311 352.916 532.396 361.582 531.043 370.128C529.385 380.593 527.603 391.026 524.546 401.192C518.705 420.611 509.623 439.47 498.292 456.253C494.537 461.813 490.657 467.425 486.188 472.442C481.005 478.261 475.156 483.345 469.125 488.25C458.191 497.144 446.161 504.401 432.723 508.84C426.115 511.023 418.9 512.726 411.938 513.032L411.752 512.719C412.899 512.69 414.011 512.725 415.125 512.438C415.639 512.305 416.11 512.253 416.638 512.209C417.368 512.148 416.982 512.223 417.534 512.016C418.094 511.805 418.561 511.854 419.145 511.819C419.88 511.776 419.207 511.799 420.188 511.5C420.852 511.297 421.696 511.322 422.438 511.125L423.189 511.031L423.562 510.566C424.612 510.738 424.319 510.746 425.25 510.375L426.281 510.281C427.207 510.028 427.81 509.666 428.814 509.531L429.188 509.066L430.031 509.156L430.312 508.691C431.142 508.827 431.275 509.059 432 508.5L432.562 507.941C433.521 508.098 433.39 508.227 434.25 507.75L435.188 507.375L436.354 506.854C436.988 506.565 436.692 506.675 437.244 506.537C438.639 506.188 442.16 504.862 443.062 503.816L443.625 503.812L444 503.533C444.48 503.294 444.998 503.123 445.5 502.875L445.863 502.793C446.409 502.656 446.543 502.42 447 502.125L449.25 501L452.625 499.125L453.75 498.562L453.752 498.002C455.208 497.13 456.011 497.794 456.938 495.941C457.238 495.84 457.545 495.758 457.853 495.681C458.678 495.472 459.097 495.135 459.562 494.441L460.125 494.438L461.373 493.459C462.638 492.424 464.094 491.44 465.469 490.594L466.107 489.903C466.679 489.256 467.02 489.154 467.719 488.719L468.75 487.875L469.266 487.465L470.32 486.48C471.364 485.439 470.206 486.501 471.469 485.719C472.252 485.234 472.877 484.395 473.719 483.844C474.98 483.018 475.689 481.694 477.094 480.844C477.979 480.308 478.922 479.065 479.69 478.298C481.841 476.152 484.715 473.811 486.281 471.281C486.787 470.464 487.603 469.931 488.156 469.031C488.642 468.241 489.748 467.955 489.752 466.969L490.125 466.5L490.312 465.941L490.875 465.938C490.693 465.025 490.495 464.567 489.728 463.985L488.013 462.972L487.32 463.78L487.066 463.417L486.094 462.528C493.359 451.939 499.436 441.112 503.28 428.792C505.89 420.427 507.279 411.756 508.253 403.068C512.264 367.29 502.84 326.543 479.976 298.289C461.102 274.967 429.7 263.606 400.559 260.508C377.396 258.046 351.354 259.964 332.624 275.34C315.659 289.267 306.682 315.881 304.671 337.068L302.95 335.835Z"/>
	<path fill="#096DB2" transform="scale(0.666667 0.666667)" d="M146.271 535.033C154.135 535.42 161.703 538.116 168.956 540.997C194.554 551.165 217.12 567.456 239.951 582.591C249.008 588.595 258.007 594.625 267.591 599.777C277.063 604.867 287.017 609.244 296.965 613.312C316.78 621.417 337.595 627.774 358.873 630.573C373.015 632.433 387.294 632.716 401.54 632.701C412.845 632.69 424.083 632.314 435.375 631.838C441.564 631.576 448.705 631.813 454.688 630.146C455.244 630.405 455.769 630.641 456.285 630.975C441.338 637.012 426.462 643.054 410.94 647.49C368.551 659.602 323.686 658.386 281.273 647.279C264.548 642.899 247.695 636.315 232.763 627.563C195.946 605.985 167.568 571.492 146.271 535.033Z"/>
	<path fill="#E63946" transform="scale(0.666667 0.666667)" d="M534.696 333.327C537.383 340.797 539.082 348.631 540.689 356.392C542.253 363.948 543.672 371.665 544.357 379.355C546.881 407.697 542.201 436.979 530.062 462.784C514.482 495.908 484.238 525.818 449.464 538.166C441.635 540.947 433.65 543.494 425.576 545.473C421.53 546.464 417.25 547.526 413.092 547.879C405.322 548.539 397.341 546.864 389.851 544.955C379.321 542.27 369.044 538.768 359.235 534.064C345.162 527.316 331.474 517.356 320.78 506.038C316.484 501.492 312.217 496.401 309.405 490.776C303.335 477.716 300.272 463.526 297.747 449.438C297.237 446.589 296.174 443.468 296.432 440.584C298.139 445.834 301.511 451.009 304.568 455.577C315.821 472.389 330.928 487.553 349.138 496.77C354.51 499.489 360.252 501.644 365.929 503.637C380.134 508.625 393.032 511.11 408.137 510.135L410.861 509.761C440.127 505.372 468.665 486.036 486.094 462.528L487.066 463.417L487.32 463.78L488.013 462.972L489.728 463.985C490.495 464.567 490.693 465.025 490.875 465.938L490.312 465.941L490.125 466.5L489.752 466.969C489.748 467.955 488.642 468.241 488.156 469.031C487.603 469.931 486.787 470.464 486.281 471.281C484.715 473.811 481.841 476.152 479.69 478.298C478.922 479.065 477.979 480.308 477.094 480.844C475.689 481.694 474.98 483.018 473.719 483.844C472.877 484.395 472.252 485.234 471.469 485.719C470.206 486.501 471.364 485.439 470.32 486.48L469.266 487.465L468.75 487.875L467.719 488.719C467.02 489.154 466.679 489.256 466.107 489.903L465.469 490.594C464.094 491.44 462.638 492.424 461.373 493.459L460.125 494.438L459.562 494.441C459.097 495.135 458.678 495.472 457.853 495.681C457.545 495.758 457.238 495.84 456.938 495.941C456.011 497.794 455.208 497.13 453.752 498.002L453.75 498.562L452.625 499.125L449.25 501L447 502.125C446.543 502.42 446.409 502.656 445.863 502.793L445.5 502.875C444.998 503.123 444.48 503.294 444 503.533L443.625 503.812L443.062 503.816C442.16 504.862 438.639 506.188 437.244 506.537C436.692 506.675 436.988 506.565 436.354 506.854L435.188 507.375L434.25 507.75C433.39 508.227 433.521 508.098 432.562 507.941L432 508.5C431.275 509.059 431.142 508.827 430.312 508.691L430.031 509.156L429.188 509.066L428.814 509.531C427.81 509.666 427.207 510.028 426.281 510.281L425.25 510.375C424.319 510.746 424.612 510.738 423.562 510.566L423.189 511.031L422.438 511.125C421.696 511.322 420.852 511.297 420.188 511.5C419.207 511.799 419.88 511.776 419.145 511.819C418.561 511.854 418.094 511.805 417.534 512.016C416.982 512.223 417.368 512.148 416.638 512.209C416.11 512.253 415.639 512.305 415.125 512.438C414.011 512.725 412.899 512.69 411.752 512.719L411.938 513.032C418.9 512.726 426.115 511.023 432.723 508.84C446.161 504.401 458.191 497.144 469.125 488.25C475.156 483.345 481.005 478.261 486.188 472.442C490.657 467.425 494.537 461.813 498.292 456.253C509.623 439.47 518.705 420.611 524.546 401.192C527.603 391.026 529.385 380.593 531.043 370.128C532.396 361.582 533.311 352.916 533.828 344.278C534.02 341.079 533.272 336.138 534.696 333.327Z"/>
	<path fill="#075192" transform="scale(0.666667 0.666667)" d="M591.68 442.633L592.107 442.015C592.684 441.137 592.665 440.391 592.629 439.379L592.711 440.143C592.763 440.607 592.811 440.936 592.971 441.374C593.365 442.462 593.239 444.101 593.29 445.267C592.473 458.205 591.182 471.497 589.265 484.312C588.985 486.182 588.905 489.262 588.105 490.874L587.632 490.711L587.531 491.439C587.41 491.999 587.183 492.541 587.062 493.125L586.963 493.553C586.846 494.14 586.863 494.686 586.823 495.276C586.766 496.108 586.811 495.137 586.5 496.312L586.406 497.531L585.941 497.812L586.033 498.375C586.148 499.232 586.092 499.134 585.844 499.969C585.685 500.502 585.713 501 585.51 501.54C585.303 502.091 585.353 502.57 585.319 503.145C585.28 503.807 585.291 503.34 585 504.188L584.812 505.125L584.719 505.582C584.569 506.328 584.496 506.998 584.438 507.75C584.389 508.377 584.159 508.761 583.969 509.344C583.685 510.212 584.166 510.631 583.316 511.312C583.492 512.391 583.483 512.092 583.127 513.094C582.987 513.486 583.045 513.821 583.044 514.214C583.043 514.741 582.954 514.966 582.75 515.438C582.369 516.316 582.357 516.953 582.188 517.875L581.754 519.189C581.499 519.866 581.645 520.313 581.252 520.969L581.25 521.438L580.969 522.094C580.406 523.811 580.17 526.527 579.191 528L579.283 528.75L578.966 529.43C578.663 530.093 578.519 530.645 578.438 531.375L578.066 531.75L577.783 532.5C577.331 533.789 577.101 535.706 576.191 536.625L576.281 537.281C575.828 538.01 575.551 538.54 575.252 539.344L575.053 539.73C574.609 540.617 575.109 539.515 574.875 540.562C574.82 540.81 574.398 541.35 574.316 541.5C574.065 541.961 573.911 542.468 573.651 542.944C573.281 543.623 573.398 543.32 573.283 544.125L573.002 544.502C572.486 545.291 572.161 546.239 571.877 547.127C571.537 548.188 571.886 547.205 571.316 548.25C571.078 548.687 571.106 548.863 571.033 549.375L570.717 549.756C570.126 550.515 570.567 549.9 570.191 550.875L569.141 552.961C568.962 553.316 568.865 553.71 568.688 554.066L568.316 554.625C567.924 555.41 567.298 556.541 567.055 557.345C566.768 558.291 567.108 557.326 566.441 558.375L566.252 558.844C565.87 559.602 565.989 559.321 565.59 559.857C565.258 560.303 565.166 560.661 565.031 561.189L564.566 561.562L564.562 561.941L564.191 562.5L564.002 562.969C563.442 564.151 562.576 566.359 561.566 567.188L561.562 567.566C561.35 568.271 561.031 568.667 560.441 569.062L560.438 569.441C560.28 569.964 559.795 570.582 559.496 571.031C559.279 571.357 559.139 571.73 558.938 572.066C558.618 572.6 558.274 572.877 558.002 573.469L556.691 575.625C555.874 576.856 555.076 578.249 554.438 579.566C553.88 580.718 553.013 581.964 552.191 582.938L552.188 583.5L551.832 584.027C551.584 584.401 551.436 584.839 551.156 585.189L550.691 585.562L550.688 585.941L550.35 586.355C549.855 586.974 549.487 587.496 549.16 588.217C548.828 588.946 549.001 588.617 548.476 589.318C547.961 590.005 548.136 589.657 547.924 590.357C547.716 591.042 547.387 591.221 546.941 591.75C546.506 592.266 546.374 592.603 546.188 593.25L545.953 593.449C545.546 593.856 545.353 594.317 545.071 594.805C544.821 595.237 544.351 595.497 544.127 595.877L543.938 596.441C543.618 597.047 543.007 597.415 542.627 598.127C542.316 598.709 541.795 599.243 541.448 599.836C541.109 600.416 540.775 600.632 540.377 601.127C539.619 602.07 539.336 603.225 538.501 604.166C537.692 605.079 538.58 604.036 537.75 605.25C537.388 605.78 536.985 606.158 536.666 606.732C536.394 607.221 536.146 607.385 535.691 607.688L535.688 608.066L535.348 608.383C534.89 608.84 534.731 609.235 534.375 609.75C533.769 610.624 530.444 614.149 530.438 614.816L530.04 615.242C528.883 616.496 527.992 617.892 526.969 619.219L526.752 619.635C526.411 620.248 526.577 619.992 525.939 620.526C525.227 621.121 525.384 621.285 524.906 621.939L523.877 622.969C523.313 623.532 523.272 623.876 522.844 624.469L522.281 624.98C521.735 625.481 521.594 625.561 521.438 626.25C520.63 626.933 519.599 627.598 519.2 628.589C518.913 629.301 518.557 629.376 518.064 629.906L517.5 630.75C516.906 631.596 516.232 632.17 515.441 632.812L515.438 633.375C514.639 634.187 513.469 634.981 512.962 635.992C512.414 637.084 511.064 638.032 510.189 638.906C509.54 639.555 508.981 640.153 508.408 640.875C506.863 642.824 504.605 644.36 503.438 646.5C503.017 647.27 501.642 648.06 500.96 648.644C499.333 650.038 497.724 651.636 496.312 653.25L495.375 653.438C494.831 656.159 489.159 659.978 487.011 662.046C486.677 662.368 485.613 663.212 485.441 663.562C485.276 663.9 485.439 664.315 485.438 664.691L484.877 664.877C484.254 665.183 483.643 665.666 483.002 666.002C482.245 666.398 481.565 666.809 480.907 667.353L481.146 667.916C453.347 685.21 422.331 700.311 390.375 708.003C357.855 715.832 322.326 715.887 289.789 708.286C284.367 707.019 278.928 705.553 273.58 703.996C270.69 703.156 267.529 702.43 264.891 700.97C270.175 693.887 273.615 685.982 273.7 677.037L273.893 677.097C285.13 679.86 297.298 679.337 308.765 678.974C369.049 677.061 427.724 655.827 478.82 624.589C510.25 605.215 538.837 578.398 558.046 546.744C561.915 540.369 565.714 533.685 568.571 526.782C571.266 520.048 574.223 513.433 576.743 506.623C580.58 496.25 583.756 485.393 586.093 474.588C587.568 467.766 588.71 460.912 589.798 454.021C590.362 450.451 590.685 446.645 591.55 443.143L591.68 442.633Z"/>
	<path fill="#1D3557" transform="scale(0.666667 0.666667)" d="M386.207 277.651C406.075 276.363 424.137 281.355 440.326 293.165C458.838 306.67 471.526 327.924 474.98 350.473C478.057 370.562 472.841 390.92 460.736 407.24C448.994 423.071 431.611 432.416 412.314 435.338C391.847 437.528 369.815 431.314 353.627 418.606C336.665 405.289 325.722 385.505 323.199 364.048C320.734 343.078 326.276 319.614 339.507 302.949C351.606 287.712 367.098 279.903 386.207 277.651Z"/>
	<path fill="#F81021" transform="scale(0.666667 0.666667)" d="M380.724 326.128C385.567 319.985 392.871 317.315 400.456 316.381C413.283 314.802 426.801 318.522 436.962 326.541C447.629 334.959 453.846 347.427 455.296 360.875C456.949 376.202 452.967 392.985 443.153 405.083C435.376 414.669 424.719 419.923 412.533 421.129C409.79 421.401 407.287 421.113 404.568 420.767C418.947 418.636 432.821 413.737 441.777 401.571C450.807 389.302 454.245 373.351 451.859 358.394C449.838 345.725 443.565 335.238 433.103 327.724C423.322 320.698 411.398 317.751 399.496 319.724C393.502 320.717 388.517 322.491 383.652 326.254L380.724 326.128Z"/>
	<path fill="#F1FAEE" transform="scale(0.666667 0.666667)" d="M383.652 326.254C391.013 327.668 398.582 331.076 404.229 336.02C413.257 343.924 418.898 355.451 419.629 367.439C420.283 378.146 416.645 389.703 409.407 397.75C403.091 404.771 394.413 408.939 384.938 409.268C375.494 409.595 366.373 405.414 359.642 398.941C350.897 390.531 345.519 378.791 345.377 366.578C345.251 355.719 348.787 344.061 356.515 336.186C362.889 329.691 371.693 326.226 380.724 326.128L383.652 326.254Z"/>
	<path fill="#F36C72" transform="scale(0.666667 0.666667)" d="M377.127 329.755C384.129 329.321 392.137 331.394 398.092 335.122C407.686 341.129 413.222 351.006 415.592 361.809C417.852 372.114 415.695 382.742 409.997 391.553C404.811 399.573 397.463 403.587 388.326 405.584C379.263 406.485 371.694 404.404 364.339 398.99C355.306 392.341 350.239 382.029 348.647 371.097C347.223 361.322 349.69 349.895 355.742 342.006C361.229 334.854 368.265 330.992 377.127 329.755Z"/>
	<path fill="#096DB2" transform="scale(0.666667 0.666667)" d="M565.626 262.319L573.314 271.414C579.808 277.812 584.417 286.191 589.962 293.375C615.05 294.991 639.839 308.576 656.281 327.238C666.465 338.795 674.545 354.919 678.848 369.667C679.338 371.347 680.163 376.431 681.866 376.768C682.65 381.725 682.556 386.913 682.614 391.926C682.683 398 682.824 404.22 682.172 410.262C681.66 415.001 680.563 419.782 680.201 424.504C679.871 428.81 680.688 433.096 680.22 437.426C679.529 435.222 679.848 432.464 679.63 430.139C679.265 431.271 678.959 432.712 678.908 433.901C678.857 435.107 678.781 435.672 678.131 436.725L677.946 437.011L678.623 428.995C676.375 434.471 674.78 440.23 672.707 445.782C669.204 455.16 665.024 464.378 660.459 473.283C649.323 495.004 636.051 515.075 621.744 534.793C607.718 554.125 593.115 572.91 577.023 590.59C570.563 597.687 563.68 604.437 556.874 611.2C546.844 621.169 536.674 631.018 525.552 639.781C511.821 650.6 496.69 659.942 481.146 667.916L480.907 667.353C481.565 666.809 482.245 666.398 483.002 666.002C483.643 665.666 484.254 665.183 484.877 664.877L485.438 664.691C485.439 664.315 485.276 663.9 485.441 663.562C485.613 663.212 486.677 662.368 487.011 662.046C489.159 659.978 494.831 656.159 495.375 653.438L496.312 653.25C497.724 651.636 499.333 650.038 500.96 648.644C501.642 648.06 503.017 647.27 503.438 646.5C504.605 644.36 506.863 642.824 508.408 640.875C508.981 640.153 509.54 639.555 510.189 638.906C511.064 638.032 512.414 637.084 512.962 635.992C513.469 634.981 514.639 634.187 515.438 633.375L515.441 632.812C516.232 632.17 516.906 631.596 517.5 630.75L518.064 629.906C518.557 629.376 518.913 629.301 519.2 628.589C519.599 627.598 520.63 626.933 521.438 626.25C521.594 625.561 521.735 625.481 522.281 624.98L522.844 624.469C523.272 623.876 523.313 623.532 523.877 622.969L524.906 621.939C525.384 621.285 525.227 621.121 525.939 620.526C526.577 619.992 526.411 620.248 526.752 619.635L526.969 619.219C527.992 617.892 528.883 616.496 530.04 615.242L530.438 614.816C530.444 614.149 533.769 610.624 534.375 609.75C534.731 609.235 534.89 608.84 535.348 608.383L535.688 608.066L535.691 607.688C536.146 607.385 536.394 607.221 536.666 606.732C536.985 606.158 537.388 605.78 537.75 605.25C538.58 604.036 537.692 605.079 538.501 604.166C539.336 603.225 539.619 602.07 540.377 601.127C540.775 600.632 541.109 600.416 541.448 599.836C541.795 599.243 542.316 598.709 542.627 598.127C543.007 597.415 543.618 597.047 543.938 596.441L544.127 595.877C544.351 595.497 544.821 595.237 545.071 594.805C545.353 594.317 545.546 593.856 545.953 593.449L546.188 593.25C546.374 592.603 546.506 592.266 546.941 591.75C547.387 591.221 547.716 591.042 547.924 590.357C548.136 589.657 547.961 590.005 548.476 589.318C549.001 588.617 548.828 588.946 549.16 588.217C549.487 587.496 549.855 586.974 550.35 586.355L550.688 585.941L550.691 585.562L551.156 585.189C551.436 584.839 551.584 584.401 551.832 584.027L552.188 583.5L552.191 582.938C553.013 581.964 553.88 580.718 554.438 579.566C555.076 578.249 555.874 576.856 556.691 575.625L558.002 573.469C558.274 572.877 558.618 572.6 558.938 572.066C559.139 571.73 559.279 571.357 559.496 571.031C559.795 570.582 560.28 569.964 560.438 569.441L560.441 569.062C561.031 568.667 561.35 568.271 561.562 567.566L561.566 567.188C562.576 566.359 563.442 564.151 564.002 562.969L564.191 562.5L564.562 561.941L564.566 561.562L565.031 561.189C565.166 560.661 565.258 560.303 565.59 559.857C565.989 559.321 565.87 559.602 566.252 558.844L566.441 558.375C567.108 557.326 566.768 558.291 567.055 557.345C567.298 556.541 567.924 555.41 568.316 554.625L568.688 554.066C568.865 553.71 568.962 553.316 569.141 552.961L570.191 550.875C570.567 549.9 570.126 550.515 570.717 549.756L571.033 549.375C571.106 548.863 571.078 548.687 571.316 548.25C571.886 547.205 571.537 548.188 571.877 547.127C572.161 546.239 572.486 545.291 573.002 544.502L573.283 544.125C573.398 543.32 573.281 543.623 573.651 542.944C573.911 542.468 574.065 541.961 574.316 541.5C574.398 541.35 574.82 540.81 574.875 540.562C575.109 539.515 574.609 540.617 575.053 539.73L575.252 539.344C575.551 538.54 575.828 538.01 576.281 537.281L576.191 536.625C577.101 535.706 577.331 533.789 577.783 532.5L578.066 531.75L578.438 531.375C578.519 530.645 578.663 530.093 578.966 529.43L579.283 528.75L579.191 528C580.17 526.527 580.406 523.811 580.969 522.094L581.25 521.438L581.252 520.969C581.645 520.313 581.499 519.866 581.754 519.189L582.188 517.875C582.357 516.953 582.369 516.316 582.75 515.438C582.954 514.966 583.043 514.741 583.044 514.214C583.045 513.821 582.987 513.486 583.127 513.094C583.483 512.092 583.492 512.391 583.316 511.312C584.166 510.631 583.685 510.212 583.969 509.344C584.159 508.761 584.389 508.377 584.438 507.75C584.496 506.998 584.569 506.328 584.719 505.582L584.812 505.125L585 504.188C585.291 503.34 585.28 503.807 585.319 503.145C585.353 502.57 585.303 502.091 585.51 501.54C585.713 501 585.685 500.502 585.844 499.969C586.092 499.134 586.148 499.232 586.033 498.375L585.941 497.812L586.406 497.531L586.5 496.312C586.811 495.137 586.766 496.108 586.823 495.276C586.863 494.686 586.846 494.14 586.963 493.553L587.062 493.125C587.183 492.541 587.41 491.999 587.531 491.439L587.632 490.711L588.105 490.874C588.905 489.262 588.985 486.182 589.265 484.312C591.182 471.497 592.473 458.205 593.29 445.267C593.239 444.101 593.365 442.462 592.971 441.374C592.811 440.936 592.763 440.607 592.711 440.143L592.629 439.379C592.665 440.391 592.684 441.137 592.107 442.015L591.68 442.633L593.726 419.036L592.589 361.461L589.39 342.12L589.863 340.882C590.229 339.94 590.34 339.29 590.406 338.295L588.708 331.3L588.46 329.531L586.686 329.983L586.13 327.45L587.539 325.857L586.716 322.92L582.716 308.576C579.896 298.417 575.608 288.318 570.914 278.894L564.307 267.803C564.576 265.846 564.916 264.178 565.626 262.319Z"/>
	<defs>
		<linearGradient id="gradient_1" gradientUnits="userSpaceOnUse" x1="427.05801" y1="520.45001" x2="647.08002" y2="386.94101">
			<stop offset="0" stop-color="#FF2B1F"/>
			<stop offset="1" stop-color="#EE3D5D"/>
		</linearGradient>
	</defs>
	<path fill="url(#gradient_1)" transform="scale(0.666667 0.666667)" d="M565.626 262.319L573.314 271.414C579.808 277.812 584.417 286.191 589.962 293.375C598.198 306.553 606.81 319.446 613.307 333.621C627.474 364.53 624.58 398.916 617.109 431.208C612.72 450.179 608.362 468.876 601.949 487.306C598.165 498.18 593.432 508.723 589.165 519.412C585.208 529.321 581.513 539.268 577.101 548.999C564.3 577.232 547.232 603.64 526.311 626.508C519.424 634.037 511.82 642.617 503.466 648.504C506.03 643.835 510.476 640.02 513.99 636.028C519.039 630.293 523.989 624.368 528.73 618.375C539.302 605.011 548.541 591.161 557.24 576.525C565.635 562.4 573.468 547.756 578.825 532.175C581.913 523.193 583.971 513.827 585.678 504.494C586.49 500.058 587.845 495.361 588.105 490.874C588.905 489.262 588.985 486.182 589.265 484.312C591.182 471.497 592.473 458.205 593.29 445.267C593.239 444.101 593.365 442.462 592.971 441.374C592.811 440.936 592.763 440.607 592.711 440.143L592.629 439.379C592.665 440.391 592.684 441.137 592.107 442.015L591.68 442.633L593.726 419.036L592.589 361.461L589.39 342.12L589.863 340.882C590.229 339.94 590.34 339.29 590.406 338.295L588.708 331.3L588.46 329.531L586.686 329.983L586.13 327.45L587.539 325.857L586.716 322.92L582.716 308.576C579.896 298.417 575.608 288.318 570.914 278.894L564.307 267.803C564.576 265.846 564.916 264.178 565.626 262.319Z"/>
	<path fill="#075192" transform="scale(0.666667 0.666667)" d="M587.539 325.857L588.46 329.531L586.686 329.983L586.13 327.45L587.539 325.857Z"/>
	<path fill="#06458F" transform="scale(0.666667 0.666667)" d="M590.406 338.295C591.847 345.662 593.322 353.803 593.089 361.294L592.589 361.461L589.39 342.12L589.863 340.882C590.229 339.94 590.34 339.29 590.406 338.295Z"/>
	<path fill="#1D3557" transform="scale(0.666667 0.666667)" d="M593.726 419.036L594.203 419.25C594.444 425.254 594.241 431.341 593.943 437.343C593.818 439.845 593.877 442.845 593.29 445.267C593.239 444.101 593.365 442.462 592.971 441.374C592.811 440.936 592.763 440.607 592.711 440.143L592.629 439.379C592.665 440.391 592.684 441.137 592.107 442.015L591.68 442.633L593.726 419.036Z"/>
	<defs>
		<linearGradient id="gradient_2" gradientUnits="userSpaceOnUse" x1="609.85901" y1="497.285" x2="166.22301" y2="234.60899">
			<stop offset="0" stop-color="#042A61"/>
			<stop offset="1" stop-color="#065799"/>
		</linearGradient>
	</defs>
	<path fill="url(#gradient_2)" transform="scale(0.666667 0.666667)" d="M328.956 66.7411L333.91 66.1142L334.262 66.9489C338.5 68.0803 342.901 68.2451 347.236 68.7686C351.005 69.2238 354.716 69.9886 358.432 70.748C375.073 74.1481 391.208 78.8727 407.438 83.7934C409.471 84.4098 411.546 84.9601 413.625 85.3946C414.472 85.5715 415.396 85.5458 416.053 86.1166C427.971 89.0116 439.438 92.9367 450.902 97.2502C513.723 120.887 568.941 163.487 610.711 215.718C622.758 230.783 633.457 247.224 643.511 263.668C659.81 290.327 672.233 321.336 678.413 351.938C680.053 360.063 681.581 368.465 681.866 376.768C680.163 376.431 679.338 371.347 678.848 369.667C674.545 354.919 666.465 338.795 656.281 327.238C639.839 308.576 615.05 294.991 589.962 293.375C584.417 286.191 579.808 277.812 573.314 271.414L565.626 262.319C564.916 264.178 564.576 265.846 564.307 267.803L570.914 278.894C575.608 288.318 579.896 298.417 582.716 308.576L586.716 322.92C585.868 322.462 585.17 321.872 584.416 321.277L582.222 313.635C581.657 313.019 581.296 311.306 580.997 310.491C580.14 308.158 579.201 305.855 578.245 303.562C576.53 299.452 574.638 295.406 572.661 291.414C565.578 277.111 557.649 263.372 547.63 250.9C535.908 236.307 521.292 223.763 506.18 212.801C503.329 211.236 500.671 209.243 497.904 207.524C491.982 203.845 485.876 200.283 479.646 197.147C470.792 192.69 461.746 188.395 452.625 184.514C448.596 182.8 444.193 181.563 440.276 179.683L439.74 179.419C435.295 178.703 431.089 177.701 426.562 177.443C412.347 176.635 397.538 178.787 383.815 182.373C364.385 187.449 347.281 194.885 330.962 206.684C321.657 213.41 313.403 221.088 305.645 229.532C301.492 234.051 297.409 238.615 293.864 243.637C274.899 270.5 265.322 302.858 260.195 334.999C258.614 344.907 257.202 354.943 256.613 364.966C254.339 403.665 261.034 441.51 278.209 476.343C282.744 485.54 287.434 494.503 293.496 502.816C308.994 524.067 328.352 539.695 351.719 551.763C359.31 555.683 366.981 559.309 375.082 562.06C384.546 565.273 394.242 567.069 403.878 569.554L411.832 570.514C432.873 572.363 455.642 570.284 475.715 563.586C488.109 559.45 499.761 553.546 510.926 546.822C518.87 542.038 526.549 537.121 533.64 531.093C551.067 516.279 566.45 498.135 576.244 477.384C580.381 468.616 583.606 459.139 584.415 449.438C585.361 451.783 584.67 456.266 584.481 458.796C583.351 473.921 579.647 489.538 574.693 503.845C572.127 511.255 569.009 518.405 566.069 525.663C563.563 530.114 561.378 534.742 558.788 539.145C544.223 563.907 526.101 585.387 503.377 603.053C497.929 607.288 492.365 611.199 486.611 614.999C483.915 616.781 480.561 618.401 478.135 620.439L456.285 630.975C455.769 630.641 455.244 630.405 454.688 630.146C448.705 631.813 441.564 631.576 435.375 631.838C424.083 632.314 412.845 632.69 401.54 632.701C387.294 632.716 373.015 632.433 358.873 630.573C337.595 627.774 316.78 621.417 296.965 613.312C287.017 609.244 277.063 604.867 267.591 599.777C258.007 594.625 249.008 588.595 239.951 582.591C217.12 567.456 194.554 551.165 168.956 540.997C161.703 538.116 154.135 535.42 146.271 535.033C140.306 524.777 135.219 514.089 130.401 503.255C126.572 494.644 122.78 485.868 119.76 476.935C116.353 466.855 113.755 456.576 110.982 446.315C114.326 451.779 117.706 457.13 121.754 462.116C126.784 468.309 132.478 473.904 138.193 479.454C147.11 488.114 156.347 496.472 165.636 504.732C171.459 509.911 177.442 514.899 183.047 520.32C192.048 529.025 200.357 538.297 209.108 547.227C218.185 556.491 227.814 565.404 237.983 573.464C251.233 583.965 265.551 592.86 280.744 600.252C297.085 608.203 314.753 614.973 332.578 618.662C364.662 625.303 398.18 622.077 429 611.294C453.322 602.786 474.969 588.397 491.556 568.663C495.804 563.609 499.76 558.567 502.629 552.596C500.005 554.13 497.887 556.272 495.662 558.313C492.759 560.975 489.828 563.629 486.83 566.184C470.831 579.814 450.254 590.532 429.105 592.172C414.256 593.324 399.936 590.578 385.548 587.263C369.492 583.565 353.815 579.07 338.249 573.673C326.895 569.736 315.718 565.229 304.383 561.211C290.586 556.32 276.477 552.013 262.879 546.612C252.895 542.646 243.223 537.877 233.7 532.925C225.8 528.817 218.272 524.882 211.449 519.068L210.893 518.918C208.326 518.173 205.558 516.225 203.265 514.81C199.351 512.394 195.493 510.004 191.695 507.404C169.657 492.319 149.258 476.043 130.638 456.849C123.565 449.557 116.597 442.02 110.744 433.691C104.553 424.883 98.8427 414.965 94.2797 405.211C92.0503 400.446 90.4524 395.283 87.9507 390.663L87.5939 390.011C87.0806 389.342 87.035 388.097 86.8819 387.269C86.4317 384.837 86.5093 380.378 85.4106 378.259C85.0806 377.622 84.9033 377.397 84.9748 376.639C85.1069 375.239 85.3294 373.924 84.446 372.706L83.4335 376.933L82.8308 377.39C84.3691 369.441 86.1388 361.19 88.4993 353.438C91.4937 343.603 95.3777 333.99 98.9369 324.348C101.456 313.096 104.966 301.851 108.182 290.779C117.196 259.746 126.936 228.974 144.673 201.638C150.832 192.145 157.822 183.46 165.074 174.785C192.733 141.698 225.584 113.799 262.487 91.5213C276.976 82.7745 292.504 74.2091 309.184 70.6281C315.543 68.5382 322.43 68.146 328.956 66.7411Z"/>
	<path fill="#E63946" transform="scale(0.666667 0.666667)" d="M304.065 139.99C307.239 138.651 310.941 137.822 314.274 136.921C330.101 132.647 346.38 130.893 362.65 133.093C378.155 134.51 392.791 138.765 407.36 144.096C413.19 146.229 419.14 148.319 424.78 150.911L479.627 180L478.688 179.815C477.935 179.539 478.138 179.437 477.188 179.437C476.322 179.437 476.661 179.537 476.067 179.293C475.393 179.015 474.692 179.041 473.969 179.009L425.68 153.533C424.44 153.455 422.41 152.312 421.144 151.833C416.906 150.231 412.654 148.657 408.379 147.157C397.171 143.227 385.382 140.02 373.522 139.086C366.411 139.424 359.398 139.832 352.294 140.381C349.507 140.597 346.208 140.546 343.513 141.249L316.229 145.35C311.991 145.99 307.813 146.543 303.599 145.546L302.661 145.607C301.559 145.452 300.339 145.245 299.224 145.377C296.388 145.715 293.137 147.22 290.491 148.281C279.25 152.787 268.195 158.888 258.496 166.159C243.903 177.1 231.664 190.686 221.251 205.613C217.836 210.508 214.63 215.585 211.535 220.688C210.939 221.67 209.504 224.921 208.733 225.341C205.87 231.585 202.374 237.495 199.682 243.832C190.853 264.611 184.82 286.989 181.538 309.315C180.408 317.003 179.836 324.728 179.222 332.468C179.368 342.244 179.215 351.922 179.999 361.687C181.622 381.91 185.488 401.005 191.092 420.482C197.526 442.843 205.552 463.881 216.491 484.417C220.251 491.477 224.269 498.453 228.446 505.276C230.977 509.409 233.612 513.473 236.183 517.58C237.6 519.843 239.75 522.919 240.521 525.452C237.413 522.99 234.688 518.449 232.43 515.182C228.662 509.73 224.996 504.331 221.406 498.757C221.352 497.597 213.441 484.885 212.237 482.668C209.236 477.139 206.482 471.429 203.82 465.728C194.868 446.549 188.557 425.657 184.039 405C182.321 397.146 180.505 389.377 179.332 381.413C177.703 370.344 177.031 358.872 177.015 347.685C177.009 342.93 176.745 337.931 177.333 333.217C176.782 329.157 177.847 323.6 178.267 319.5C179.336 309.038 180.719 298.648 183.04 288.375C186.148 274.613 190.769 260.909 195.759 247.725C198.277 241.072 200.989 233.553 204.869 227.565C204.959 226.589 205.914 225.234 206.376 224.358C208.009 221.265 209.771 218.229 211.505 215.191C215.116 208.867 219.289 203.104 223.679 197.316C229.818 189.222 236.235 181.593 243.671 174.634C253.041 165.866 263.996 158.33 275.196 152.146C284.267 147.138 294.046 142.714 304.065 139.99Z"/>
	<path fill="#1E9AD5" transform="scale(0.666667 0.666667)" d="M303.599 145.546C306.334 144.475 309.377 144.175 312.23 143.515C317.478 142.301 322.678 140.8 328.008 139.978C333.343 139.155 338.861 139.034 344.25 138.746C353.693 138.242 364.16 137.595 373.522 139.086C366.411 139.424 359.398 139.832 352.294 140.381C349.507 140.597 346.208 140.546 343.513 141.249L316.229 145.35C311.991 145.99 307.813 146.543 303.599 145.546Z"/>
	<path fill="#F7A7A4" transform="scale(0.666667 0.666667)" d="M473.969 179.009C474.692 179.041 475.393 179.015 476.067 179.293C476.661 179.537 476.322 179.437 477.188 179.437C478.138 179.437 477.935 179.539 478.688 179.815L479.627 180L495.279 187.998C496.152 188.354 497.05 188.675 497.877 189.129C506.576 191.62 515.164 194.733 523.865 197.295C537.43 201.289 551.362 204.948 564.497 210.206C580.66 216.677 595.668 225.845 608.836 237.229C612.951 240.785 617.634 244.39 620.877 248.776C621.393 249.326 621.807 249.872 622.224 250.5L621.75 250.765L609.571 246.619C603.775 245.07 598.169 242.967 592.312 241.524C581.801 238.933 571.229 237.73 560.435 237.299C555.209 237.091 549.632 236.882 544.465 237.804L565.626 262.319C564.916 264.178 564.576 265.846 564.307 267.803C556.921 256.676 548.615 245.799 539.657 235.873C534.463 230.119 528.882 224.758 523.48 219.208L508.208 205.58C507.391 204.281 505.285 202.914 504.082 201.896C498.684 197.328 493.173 192.868 487.473 188.68C484.401 186.423 480.952 184.536 478.09 182.032L473.969 179.009Z"/>
	<defs>
		<linearGradient id="gradient_3" gradientUnits="userSpaceOnUse" x1="540.47803" y1="262.45001" x2="553.97803" y2="197.974">
			<stop offset="0" stop-color="#E9D5D8"/>
			<stop offset="1" stop-color="white"/>
		</linearGradient>
	</defs>
	<path fill="url(#gradient_3)" transform="scale(0.666667 0.666667)" d="M478.09 182.032C483.266 184.182 487.757 187.999 492.442 191.03C497.74 195.949 503.815 200.026 509.573 204.387C514.43 208.065 518.727 212.512 523.85 215.841C526.133 217.325 528.687 218.359 531.137 219.53L610.369 244.413C612.26 245.027 614.26 245.587 616.056 246.439C617.871 247.3 618.753 248.385 620.877 248.776C621.393 249.326 621.807 249.872 622.224 250.5L621.75 250.765L609.571 246.619C603.775 245.07 598.169 242.967 592.312 241.524C581.801 238.933 571.229 237.73 560.435 237.299C555.209 237.091 549.632 236.882 544.465 237.804L565.626 262.319C564.916 264.178 564.576 265.846 564.307 267.803C556.921 256.676 548.615 245.799 539.657 235.873C534.463 230.119 528.882 224.758 523.48 219.208L508.208 205.58C507.391 204.281 505.285 202.914 504.082 201.896C498.684 197.328 493.173 192.868 487.473 188.68C484.401 186.423 480.952 184.536 478.09 182.032Z"/>
	<path fill="#54B8E5" transform="scale(0.666667 0.666667)" d="M373.522 139.086C385.382 140.02 397.171 143.227 408.379 147.157C412.654 148.657 416.906 150.231 421.144 151.833C422.41 152.312 424.44 153.455 425.68 153.533L473.969 179.009L478.09 182.032C480.952 184.536 484.401 186.423 487.473 188.68C493.173 192.868 498.684 197.328 504.082 201.896C505.285 202.914 507.391 204.281 508.208 205.58L523.48 219.208C528.882 224.758 534.463 230.119 539.657 235.873C548.615 245.799 556.921 256.676 564.307 267.803L570.914 278.894C575.608 288.318 579.896 298.417 582.716 308.576L586.716 322.92C585.868 322.462 585.17 321.872 584.416 321.277L582.222 313.635C581.657 313.019 581.296 311.306 580.997 310.491C580.14 308.158 579.201 305.855 578.245 303.562C576.53 299.452 574.638 295.406 572.661 291.414C565.578 277.111 557.649 263.372 547.63 250.9C535.908 236.307 521.292 223.763 506.18 212.801C503.329 211.236 500.671 209.243 497.904 207.524C491.982 203.845 485.876 200.283 479.646 197.147C470.792 192.69 461.746 188.395 452.625 184.514C448.596 182.8 444.193 181.563 440.276 179.683L439.74 179.419C438.797 178.139 436.161 177.603 434.712 177.109C433.257 176.204 431.508 175.755 429.938 175.089C422.369 171.882 415.231 169.05 407.24 166.989C403.69 166.073 400.099 165.133 396.417 165.004C392.173 164.856 388.151 165.935 384.014 166.711C383.056 165.708 380.116 165.61 378.695 165.142C370.129 162.323 361.873 158.127 352.786 157.087C350.246 155.733 347.303 155.305 344.518 154.653L342.643 154.118L330.188 152.05L330.448 152.488C331.678 152.594 332.932 152.657 334.125 152.999C335.144 153.291 336.067 153.324 337.125 153.375L337.315 153.758L336.566 154.312L336.253 154.247C335.361 154.126 334.546 154.105 333.691 153.786L333.375 153.658L332.812 153.75C332.234 153.411 331.989 153.272 331.301 153.272C330.671 153.272 330.86 153.351 330.305 153.142C329.712 152.918 329.067 153.188 328.439 153.314C327.899 153.432 326.828 153.123 326.25 153.018C323.662 152.545 320.997 152.094 318.49 151.301C313.153 150.463 307.181 148.632 302.661 145.607L303.599 145.546C307.813 146.543 311.991 145.99 316.229 145.35L343.513 141.249C346.208 140.546 349.507 140.597 352.294 140.381C359.398 139.832 366.411 139.424 373.522 139.086Z"/>
	<path fill="#075192" transform="scale(0.666667 0.666667)" d="M582.716 308.576L586.716 322.92C585.868 322.462 585.17 321.872 584.416 321.277L582.222 313.635L582.451 313.405L582.844 313.781C583.071 314.91 583.635 316.892 584.25 317.812C584.375 316.611 583.727 315.192 583.316 314.062C583.113 313.503 583.025 313.111 582.984 312.515L582.941 311.812L582.566 311.25C582.122 310.355 582.452 309.456 582.716 308.576Z"/>
	<path fill="#A8DADC" transform="scale(0.666667 0.666667)" d="M98.9369 324.348L99.0976 324.232C101.777 322.341 103.731 319.831 105.934 317.438C108.878 314.238 111.911 311.102 114.94 307.983C119.005 303.798 123.415 300.099 127.688 296.148C128.819 295.101 130.507 292.935 131.971 292.459L132.479 292.312L133.025 291.012C132.486 307.354 131.994 323.591 132.954 339.935C134.264 362.255 138.171 385.292 145.312 406.499C154.148 432.734 168.18 457.781 183.742 480.579C189.302 488.725 194.98 496.834 200.804 504.792C202.367 506.928 204.143 510.007 206.048 511.783L206.383 511.995C208.019 514.319 210.131 516.574 211.449 519.068L210.893 518.918C208.326 518.173 205.558 516.225 203.265 514.81C199.351 512.394 195.493 510.004 191.695 507.404C169.657 492.319 149.258 476.043 130.638 456.849C123.565 449.557 116.597 442.02 110.744 433.691C104.553 424.883 98.8427 414.965 94.2797 405.211C92.0503 400.446 90.4524 395.283 87.9507 390.663L87.5939 390.011C87.0806 389.342 87.035 388.097 86.8819 387.269C86.4317 384.837 86.5093 380.378 85.4106 378.259C85.0806 377.622 84.9033 377.397 84.9748 376.639C85.1069 375.239 85.3294 373.924 84.446 372.706L83.4335 376.933L82.8308 377.39C84.3691 369.441 86.1388 361.19 88.4993 353.438C91.4937 343.603 95.3777 333.99 98.9369 324.348Z"/>
	<defs>
		<linearGradient id="gradient_4" gradientUnits="userSpaceOnUse" x1="342.73801" y1="65.562202" x2="353.82599" y2="312.186">
			<stop offset="0" stop-color="#C7E5F0"/>
			<stop offset="1" stop-color="white"/>
		</linearGradient>
	</defs>
	<path fill="url(#gradient_4)" transform="scale(0.666667 0.666667)" d="M328.956 66.7411L333.91 66.1142L334.262 66.9489C338.5 68.0803 342.901 68.2451 347.236 68.7686C351.005 69.2238 354.716 69.9886 358.432 70.748C375.073 74.1481 391.208 78.8727 407.438 83.7934C409.471 84.4098 411.546 84.9601 413.625 85.3946C414.472 85.5715 415.396 85.5458 416.053 86.1166C417.153 87.9349 426.865 92.4685 429.338 93.8439C441.416 100.562 453.438 107.38 465.493 114.139C469.238 116.239 474.075 118.25 477.39 120.896C486.163 124.646 494.784 130.079 502.924 135.069C523.485 147.673 542.637 161.372 561.599 176.241C568.36 181.542 575.312 186.638 581.722 192.367C587.975 197.955 593.593 203.913 599.166 210.175C601.343 212.622 604.229 215.27 605.927 218.054C601.495 215.467 597.588 212.165 593.21 209.502C582.684 203.096 571.13 197.778 559.503 193.745C554.915 192.153 550.318 190.49 545.445 190.088C524.954 169.76 502.508 151.242 477.052 137.386L464.733 130.697C454.348 125.639 443.828 120.688 432.938 116.809C398.804 104.652 361.608 101.296 325.638 104.586C317.853 105.299 310.245 106.728 302.511 107.762L301.783 107.973C294.161 110.14 286.479 111.717 278.923 114.239C266.317 118.446 254.674 124.469 243.462 131.553C236.008 136.262 228.938 141.182 222.379 147.099C198.035 176.981 183.345 212.091 167.129 246.655C163.692 253.98 160.66 261.483 157.128 268.765C155.739 271.629 154.306 275.041 152.324 277.549C151.197 278.976 149.346 280.009 147.81 280.956C145.005 282.685 142.133 284.304 139.31 286.003C137.409 287.147 135.703 288.514 133.844 289.707L133.025 291.012L132.479 292.312L131.971 292.459C130.507 292.935 128.819 295.101 127.688 296.148C123.415 300.099 119.005 303.798 114.94 307.983C111.911 311.102 108.878 314.238 105.934 317.438C103.731 319.831 101.777 322.341 99.0976 324.232L98.9369 324.348C101.456 313.096 104.966 301.851 108.182 290.779C117.196 259.746 126.936 228.974 144.673 201.638C150.832 192.145 157.822 183.46 165.074 174.785C192.733 141.698 225.584 113.799 262.487 91.5213C276.976 82.7745 292.504 74.2091 309.184 70.6281C315.543 68.5382 322.43 68.146 328.956 66.7411Z"/>
	<path fill="#A8DADC" transform="scale(0.666667 0.666667)" d="M302.511 107.762C302.801 107.512 303.431 106.808 303.75 106.691C304.629 106.369 305.025 106.964 306 106.316C306.792 106.313 306.796 106.409 307.5 105.941L307.884 105.971C308.828 106.039 309.244 106.029 310.127 105.752L311.062 105.566L311.627 105.377C312.444 105.128 313.046 105.26 313.875 105.283C314.606 105.303 314.762 105.223 315.375 104.816L315.891 104.88C316.595 104.937 316.644 104.836 317.252 104.627C318.763 104.107 320.338 105.004 321.75 104.066C322.56 104.166 322.953 104.41 323.655 103.971C324.618 103.369 326.983 103.645 328.102 103.755C328.64 103.807 328.767 103.662 329.252 103.502C330.099 103.223 330.702 103.388 331.547 103.471C332.511 103.566 333.572 103.381 334.502 103.127C335.786 102.776 337.686 102.824 339 103.038C340.984 103.362 343.708 103.098 345.75 102.938L346.125 102.566C347.369 102.554 348.66 102.463 349.889 102.664C351.525 102.931 353.995 102.063 355.312 102.941C357.785 103.037 360.239 103.223 362.706 102.981L367.687 102.941L368.062 103.316C369.451 103.466 370.615 103.52 372 103.316C372.713 103.741 372.667 103.857 373.5 103.783C374.857 103.662 376.881 103.51 378.158 103.945C378.664 104.118 379.043 104.059 379.57 104.047C380.506 104.026 380.939 104.102 381.75 104.625L382.5 104.533L382.991 104.54C383.917 104.54 385.172 104.59 385.874 103.989C386.726 103.259 387.809 103.164 388.875 102.958C389.622 103.281 390.133 103.48 390.775 103.984L391.392 103.971L392.005 104.5L392.377 104.257C393.515 103.579 394.723 103.75 395.998 103.776C396.448 104.116 396.991 104.283 397.04 104.882C397.084 105.435 396.944 105.734 396.734 106.23L396.469 106.406C397.707 106.686 399.179 106.584 400.312 107.066L401.016 107.362L401.625 107.625C402.669 107.479 402.574 107.377 403.5 107.816L404.378 108.001L405 108.283C405.731 108.454 406.292 108.281 407.062 108.566C407.813 108.844 408.406 109.013 409.206 109.036C409.724 109.051 409.963 109.139 410.438 109.316C411.031 109.538 411.451 109.657 412.077 109.723C412.884 109.808 413.394 110.144 414.118 110.457C414.725 110.72 414.519 110.629 415.311 110.56L415.593 110.768C416.123 111.078 416.583 111.073 417.171 111.141C418.193 111.261 418.961 111.562 419.812 112.125C420.93 111.906 421.115 112.103 422.156 112.52C422.762 112.762 422.462 112.658 423.07 112.734C423.877 112.837 424.981 113.312 425.811 113.56C426.52 113.771 427.011 114.091 427.768 114.238C428.629 114.404 429.169 114.713 429.938 115.125L430.686 115.06L431.288 115.364C431.715 115.576 431.979 115.678 432.447 115.776C433.095 115.913 433.523 116.261 434.062 116.625L434.811 116.56L435.107 116.731C435.896 117.183 436.389 117.333 437.25 117.566L438.188 117.941L439.675 118.489C440.418 118.739 440.103 118.621 440.814 118.983C441.707 119.436 442.7 119.769 443.625 120.191L444.75 120.566C447.068 121.36 449.166 122.727 451.498 123.434L454.125 124.691L454.666 124.971C455.526 125.408 454.985 125.154 455.833 125.47C456.733 125.806 457.291 126.353 458.25 126.658C460.215 127.283 463.646 128.923 464.733 130.697C454.348 125.639 443.828 120.688 432.938 116.809C398.804 104.652 361.608 101.296 325.638 104.586C317.853 105.299 310.245 106.728 302.511 107.762Z"/>
	<path fill="#A8DADC" transform="scale(0.666667 0.666667)" d="M133.844 289.707C133.867 284.793 135.111 279.53 136.058 274.714C139.345 258.013 145.226 241.744 152.456 226.379C159.494 211.422 167.32 197.714 177.709 184.778C181.543 180.004 185.714 175.549 190.13 171.31C195.057 166.581 216.766 147.702 222.379 147.099C198.035 176.981 183.345 212.091 167.129 246.655C163.692 253.98 160.66 261.483 157.128 268.765C155.739 271.629 154.306 275.041 152.324 277.549C151.197 278.976 149.346 280.009 147.81 280.956C145.005 282.685 142.133 284.304 139.31 286.003C137.409 287.147 135.703 288.514 133.844 289.707Z"/>
	<path fill="#E63946" transform="scale(0.666667 0.666667)" d="M328.439 153.314C329.067 153.188 329.712 152.918 330.305 153.142C330.86 153.351 330.671 153.272 331.301 153.272C331.989 153.272 332.234 153.411 332.812 153.75L333.375 153.658L333.691 153.786C334.546 154.105 335.361 154.126 336.253 154.247L336.566 154.312L337.315 153.758L337.125 153.375C336.067 153.324 335.144 153.291 334.125 152.999C332.932 152.657 331.678 152.594 330.448 152.488L330.188 152.05L342.643 154.118L344.518 154.653C347.303 155.305 350.246 155.733 352.786 157.087C361.873 158.127 370.129 162.323 378.695 165.142C380.116 165.61 383.056 165.708 384.014 166.711C388.151 165.935 392.173 164.856 396.417 165.004C400.099 165.133 403.69 166.073 407.24 166.989C415.231 169.05 422.369 171.882 429.938 175.089C431.508 175.755 433.257 176.204 434.712 177.109C436.161 177.603 438.797 178.139 439.74 179.419C435.295 178.703 431.089 177.701 426.562 177.443C412.347 176.635 397.538 178.787 383.815 182.373C364.385 187.449 347.281 194.885 330.962 206.684C321.657 213.41 313.403 221.088 305.645 229.532C301.492 234.051 297.409 238.615 293.864 243.637C274.899 270.5 265.322 302.858 260.195 334.999C258.614 344.907 257.202 354.943 256.613 364.966C254.339 403.665 261.034 441.51 278.209 476.343C282.744 485.54 287.434 494.503 293.496 502.816C308.994 524.067 328.352 539.695 351.719 551.763C359.31 555.683 366.981 559.309 375.082 562.06C384.546 565.273 394.242 567.069 403.878 569.554L403.42 569.64L402.688 569.749C399.577 570.226 396.236 569.548 393.091 569.426C385.945 569.149 378.789 569.037 371.662 568.393C362.529 567.566 353.675 565.793 344.725 563.844C332.061 561.084 318.326 557.066 307.126 550.357C294.594 542.852 284.155 531.623 274.885 520.44C265.52 509.143 258.046 497.458 250.716 484.766C231.463 451.432 218.011 415.345 211.874 377.266C209.576 363.011 208.122 348.45 209.465 334.043L209.144 332.679C208.61 332.469 208.349 332.364 207.976 331.901L207.731 331.557L207.358 331.612L207.079 331.312C209.242 314.176 214.322 296.983 220.467 280.875C226.383 265.367 233.462 250.237 242.685 236.394C259.239 211.545 282.99 190.776 308.31 175.224C317.862 169.356 328.376 163.734 339.048 160.26C342.903 159.005 346.815 158.265 350.783 157.48C347.97 156.712 344.851 156.599 341.958 155.967C340.443 155.939 338.663 155.403 337.164 155.12C334.243 154.567 331.33 154.013 328.439 153.314Z"/>
	<path fill="#1D3557" transform="scale(0.666667 0.666667)" d="M212.478 314.645L213.852 316.385L211.855 322.929L209.465 334.043L209.144 332.679C208.61 332.469 208.349 332.364 207.976 331.901L207.731 331.557L210.405 321.45L212.478 314.645Z"/>
	<path fill="#F1FAEE" transform="scale(0.666667 0.666667)" d="M345.841 185.534L356.71 181.387L360.037 182.482C354.615 184.663 349.091 186.53 343.725 188.851C329.131 195.163 314.961 202.706 301.746 211.566C297.796 214.214 294.108 217.237 290.242 220.003C286.344 222.791 282.294 225.36 278.411 228.173C274.954 230.678 271.647 234.106 267.699 235.734C269.171 233.985 271.22 232.512 272.952 230.998C277.679 226.864 282.593 223.016 287.525 219.135L286.975 218.792L287.812 218.25L287.257 217.685L285.233 218.129C286.165 216.602 288.633 215.218 290.07 213.993C298.954 207.629 308.363 201.309 317.941 196.032C322.559 193.488 327.431 191.378 332.212 189.163C333.721 189.177 334.936 188.922 336.38 188.498L337.576 188.848C338.685 189.067 344.406 186.152 345.841 185.534Z"/>
	<defs>
		<linearGradient id="gradient_5" gradientUnits="userSpaceOnUse" x1="308.694" y1="201.242" x2="311.57901" y2="205.28999">
			<stop offset="0" stop-color="#0079C8"/>
			<stop offset="1" stop-color="#009BE3"/>
		</linearGradient>
	</defs>
	<path fill="url(#gradient_5)" transform="scale(0.666667 0.666667)" d="M332.212 189.163C333.721 189.177 334.936 188.922 336.38 188.498L337.576 188.848C325.964 194.636 314.908 200.318 304.084 207.528C300.064 210.206 296.09 212.978 292.184 215.821C291.117 216.597 288.753 218.805 287.525 219.135L286.975 218.792L287.812 218.25L287.257 217.685L285.233 218.129C286.165 216.602 288.633 215.218 290.07 213.993C298.954 207.629 308.363 201.309 317.941 196.032C322.559 193.488 327.431 191.378 332.212 189.163Z"/>
	<path fill="#1D3557" transform="scale(0.666667 0.666667)" d="M384.014 166.711C388.151 165.935 392.173 164.856 396.417 165.004C400.099 165.133 403.69 166.073 407.24 166.989C415.231 169.05 422.369 171.882 429.938 175.089C431.508 175.755 433.257 176.204 434.712 177.109C431.969 176.78 429.285 175.369 426.562 174.759C419.259 173.125 412.161 172.423 404.698 171.988L394.379 172.941C391.514 174.028 387.962 174.32 384.95 175.065C376.609 177.13 368.051 179.334 360.037 182.482L356.71 181.387L345.841 185.534C344.406 186.152 338.685 189.067 337.576 188.848L336.38 188.498C334.936 188.922 333.721 189.177 332.212 189.163C327.431 191.378 322.559 193.488 317.941 196.032C308.363 201.309 298.954 207.629 290.07 213.993C289.017 214.298 287.649 214.868 286.573 214.823C308.243 197.8 332.305 182.561 358.466 173.438C366.861 170.51 375.317 168.514 384.014 166.711Z"/>
	<path fill="#54B8E5" transform="scale(0.666667 0.666667)" d="M359.531 177.944C360.955 176.911 363.918 176.386 365.668 175.854C370.021 174.529 374.384 173.392 378.783 172.237C383.382 171.029 388.193 169.808 392.985 169.9C395.757 169.953 402.824 170.058 404.698 171.988L394.379 172.941C391.514 174.028 387.962 174.32 384.95 175.065C376.609 177.13 368.051 179.334 360.037 182.482L356.71 181.387L345.841 185.534C344.406 186.152 338.685 189.067 337.576 188.848L336.38 188.498C334.936 188.922 333.721 189.177 332.212 189.163C336.87 186.709 342.1 184.636 346.983 182.661C351.113 180.99 355.249 179.187 359.531 177.944Z"/>
	<path fill="#A8DADC" transform="scale(0.666667 0.666667)" d="M356.71 181.387C359.713 180.177 362.985 179.566 366.105 178.73C373.164 176.838 380.308 175.034 387.511 173.788C389.675 173.413 392.196 172.723 394.379 172.941C391.514 174.028 387.962 174.32 384.95 175.065C376.609 177.13 368.051 179.334 360.037 182.482L356.71 181.387Z"/>
	<path fill="#F1FAEE" transform="scale(0.666667 0.666667)" d="M328.439 153.314C329.067 153.188 329.712 152.918 330.305 153.142C330.86 153.351 330.671 153.272 331.301 153.272C331.989 153.272 332.234 153.411 332.812 153.75L333.375 153.658L333.691 153.786C334.546 154.105 335.361 154.126 336.253 154.247L336.566 154.312L337.315 153.758L337.125 153.375C336.067 153.324 335.144 153.291 334.125 152.999C332.932 152.657 331.678 152.594 330.448 152.488L330.188 152.05L342.643 154.118L344.518 154.653C347.303 155.305 350.246 155.733 352.786 157.087C361.873 158.127 370.129 162.323 378.695 165.142C380.116 165.61 383.056 165.708 384.014 166.711C375.317 168.514 366.861 170.51 358.466 173.438C332.305 182.561 308.243 197.8 286.573 214.823C287.649 214.868 289.017 214.298 290.07 213.993C288.633 215.218 286.165 216.602 285.233 218.129L287.257 217.685L287.812 218.25L286.975 218.792L287.525 219.135C282.593 223.016 277.679 226.864 272.952 230.998C271.22 232.512 269.171 233.985 267.699 235.734C261.692 240.422 255.816 246.246 250.688 251.894C249.089 253.655 247.539 255.464 246.029 257.301C245.593 257.833 244.634 259.316 244.083 259.594C235.626 271.282 228.168 283.186 221.91 296.202C218.823 302.622 215.74 309.49 213.852 316.385L212.478 314.645L210.405 321.45L207.731 331.557L207.358 331.612L207.079 331.312C209.242 314.176 214.322 296.983 220.467 280.875C226.383 265.367 233.462 250.237 242.685 236.394C259.239 211.545 282.99 190.776 308.31 175.224C317.862 169.356 328.376 163.734 339.048 160.26C342.903 159.005 346.815 158.265 350.783 157.48C347.97 156.712 344.851 156.599 341.958 155.967C340.443 155.939 338.663 155.403 337.164 155.12C334.243 154.567 331.33 154.013 328.439 153.314Z"/>
	<path fill="#075192" transform="scale(0.666667 0.666667)" d="M286.573 214.823C287.649 214.868 289.017 214.298 290.07 213.993C288.633 215.218 286.165 216.602 285.233 218.129L287.257 217.685L287.812 218.25L286.975 218.792L287.525 219.135C282.593 223.016 277.679 226.864 272.952 230.998C271.22 232.512 269.171 233.985 267.699 235.734C261.692 240.422 255.816 246.246 250.688 251.894C249.089 253.655 247.539 255.464 246.029 257.301C245.593 257.833 244.634 259.316 244.083 259.594C235.626 271.282 228.168 283.186 221.91 296.202C218.823 302.622 215.74 309.49 213.852 316.385L212.478 314.645C217.656 297.126 226.351 281.157 236.741 266.227C238.94 263.066 241.129 259.515 243.836 256.781C245.018 254.428 247.48 252.043 249.208 250.029C260.397 237 272.874 225.175 286.573 214.823Z"/>
	<defs>
		<linearGradient id="gradient_6" gradientUnits="userSpaceOnUse" x1="220.60001" y1="300.784" x2="217.77499" y2="299.216">
			<stop offset="0" stop-color="#022374"/>
			<stop offset="1" stop-color="#013F83"/>
		</linearGradient>
	</defs>
	<path fill="url(#gradient_6)" transform="scale(0.666667 0.666667)" d="M212.478 314.645C217.656 297.126 226.351 281.157 236.741 266.227C238.94 263.066 241.129 259.515 243.836 256.781L244.31 257.238C237.203 266.47 230.285 276.285 225 286.688L225.566 286.688L227.006 284.613C227.368 284.127 227.201 283.753 227.441 283.312L227.908 282.75L228.032 282.41C228.253 281.824 228.592 281.39 228.941 280.875C229.908 279.451 228.824 281.136 229.502 279.752C230.313 278.096 231.615 276.54 232.502 274.877L237.555 267.187C238.436 265.866 239.709 264.644 240.377 263.252L240.941 262.5L241.293 261.961C242.182 260.627 242.613 260.162 244.083 259.594C235.626 271.282 228.168 283.186 221.91 296.202C218.823 302.622 215.74 309.49 213.852 316.385L212.478 314.645Z"/>
</svg>
