<?xml version="1.0" encoding="iso-8859-1" standalone="no"?> 
<?xml-stylesheet href="TE_export636287504893604589.css" type="text/css"?> 
<svg xmlns="http://www.w3.org/2000/svg" xmlns:xlink="http://www.w3.org/1999/xlink" width="200pt" height="285pt" viewBox="-85.55823 -28.65274 99.98459 142.66371 "> 
<g transform="translate(0, 114.01097 ) scale(1,-1) translate(0,28.65274 )"> 
                          <g> 
 <g stroke="rgb(0.0%,0.0%,0.0%)"> 
 <g fill="rgb(0.0%,0.0%,0.0%)"> 
 <g stroke-width="0.4pt"> 
 <g> 
 <g> 
 <clipPath id="pgfcp1"> <path d=" M  -42.67911 28.45274 C  -42.67911 28.45274 -62.84167 22.92596 -71.13185 28.45274 C  -79.42203 33.97952 -85.35823 48.61531 -85.35823 56.90549 C  -85.35823 65.19566 -79.42203 71.13185 -71.13185 71.13185 C  -62.84167 71.13185 -48.20589 65.19566 -42.67911 56.90549 C  -37.15233 48.61531 -42.67911 28.45274 -42.67911 28.45274  "/> 
</clipPath> 
 <g clip-path="url(#pgfcp1)"> 
 <g transform="matrix(1,0,0,1,-61.25526,47.0289)"> 
 <g transform="matrix(0.96063,0,0,0.96063,0.0,0.0)"> 
 <g transform="matrix(1.0,0.0,0.0,1.0,0.0,0.0)"> 
  <linearGradient id="pgfsh2" gradientTransform="rotate(90)"> 
 <stop offset=" 0.0" stop-color=" rgb(0.0%,100.0%,100.0%) "/> 
 <stop offset=" 0.25" stop-color=" rgb(0.0%,100.0%,100.0%) "/> 
 <stop offset=" 0.5" stop-color=" rgb(50.0%,100.0%,100.0%) "/> 
 <stop offset=" 0.75" stop-color=" rgb(100.0%,100.0%,100.0%) "/> 
 <stop offset=" 1.0" stop-color=" rgb(100.0%,100.0%,100.0%) "/> 
 </linearGradient> 
 <g transform="translate(-50.1875,-50.1875)"> 
 <rect width="100.375" height="100.375" style="fill:url(#pgfsh2); stroke:none"/> 
 </g> 
 </g> 
 </g> 
 </g> 
 </g> 
 </g> 
 <path d=" M  -42.67911 28.45274 C  -42.67911 28.45274 -62.84167 22.92596 -71.13185 28.45274 C  -79.42203 33.97952 -85.35823 48.61531 -85.35823 56.90549 C  -85.35823 65.19566 -79.42203 71.13185 -71.13185 71.13185 C  -62.84167 71.13185 -48.20589 65.19566 -42.67911 56.90549 C  -37.15233 48.61531 -42.67911 28.45274 -42.67911 28.45274  " style="fill:none"/> 
 <g> 
 <g> 
 <g transform="matrix(1.0,0.0,0.0,1.0,-75.01381,53.48883)"> 
 <g fill="rgb(0.0%,0.0%,0.0%)"> 
 <text style="stroke:none" transform="scale(1,-1) translate(3.88196,0)" text-anchor="middle"  font-size="10"> 
<tspan font-family="cmsy" font-size="10"><img 
src="cmsy10-4b.png" alt="K" class="10x-x-4b" /></tspan></text> 
</g> 
 </g> 
 </g> 
 </g> 
 <path d=" M  14.22636 113.81097 L  -42.67911 -28.45274  " style="fill:none"/> 
 <g> 
 <g fill="rgb(0.0%,0.0%,100.0%)"> 
 <path d=" M  -14.22636 28.45274 M  -13.47636 28.45274 C  -13.47636 28.86696 -13.81215 29.20274 -14.22636 29.20274 C  -14.64058 29.20274 -14.97636 28.86696 -14.97636 28.45274 C  -14.97636 28.03853 -14.64058 27.70274 -14.22636 27.70274 C  -13.81215 27.70274 -13.47636 28.03853 -13.47636 28.45274 Z M  -14.22636 28.45274  " /> 
 <g> 
 <g> 
 <g transform="matrix(1.0,0.0,0.0,1.0,-10.69339,33.48569)"> 
 <g fill="rgb(0.0%,0.0%,0.0%)"> 
 <text style="stroke:none" transform="scale(1,-1) translate(5.1007,0)" text-anchor="middle"  font-size="10"> 
<tspan font-family="cmmi" font-size="10">x</tspan><tspan baseline-shift="sub"><tspan font-family="cmr" font-size="7">0</tspan></tspan></text> 
</g> 
 </g> 
 </g> 
 </g> 
 </g> 
 </g> 
 </g> 
 </g> 
 </g> 
 </g> 
 </g> 
 
                                     </g> 
</svg> 
