<svg xmlns="http://www.w3.org/2000/svg" height="420" width="558.7">
  <defs>
    <clipPath id="a">
      <path d="M545.8 345.8h3255v2568.4h-3255z"/>
    </clipPath>
  </defs>
  <path d="M0 420h558.7V0H0z" fill="#fff"/>
  <path d="M72.8 373.8h433.9V31.4h-434z" fill="#fff" fill-rule="evenodd"/>
  <path d="M72.8 373.8V31.4h433.9v342.4h-434" fill="none" stroke="#fff" stroke-width=".66665" stroke-linejoin="round" stroke-miterlimit="10"/>
  <path d="M72.8 31.4h433.9M72.8 373.8h433.9M506.7 373.8V31.4M72.8 373.8V31.4M72.8 373.8h433.9M72.8 373.8V31.4M72.8 373.8v-4.5M72.8 31.4v4.4" fill="none" stroke="#000" stroke-width=".66665" stroke-linejoin="round" stroke-miterlimit="10"/>
  <text style="-inkscape-font-specification:Helvetica" transform="matrix(1.33333 0 0 1.33333 69.1 389.9)" font-weight="400" font-size="10" font-family="Helvetica">
    <tspan y="0" x="0">0</tspan>
  </text>
  <path d="M159.6 373.8v-4.5M159.6 31.4v4.4" fill="none" stroke="#000" stroke-width=".66665" stroke-linejoin="round" stroke-miterlimit="10"/>
  <text style="-inkscape-font-specification:Helvetica" transform="matrix(1.33333 0 0 1.33333 150.3 389.9)" font-weight="400" font-size="10" font-family="Helvetica">
    <tspan y="0" x="0 5.5599999 8.3400002">0.2</tspan>
  </text>
  <path d="M246.3 373.8v-4.5M246.3 31.4v4.4" fill="none" stroke="#000" stroke-width=".66665" stroke-linejoin="round" stroke-miterlimit="10"/>
  <text style="-inkscape-font-specification:Helvetica" transform="matrix(1.33333 0 0 1.33333 237.1 389.9)" font-weight="400" font-size="10" font-family="Helvetica">
    <tspan y="0" x="0 5.5599999 8.3400002">0.4</tspan>
  </text>
  <path d="M333.1 373.8v-4.5M333.1 31.4v4.4" fill="none" stroke="#000" stroke-width=".66665" stroke-linejoin="round" stroke-miterlimit="10"/>
  <text style="-inkscape-font-specification:Helvetica" transform="matrix(1.33333 0 0 1.33333 323.9 389.9)" font-weight="400" font-size="10" font-family="Helvetica">
    <tspan y="0" x="0 5.5599999 8.3400002">0.6</tspan>
  </text>
  <path d="M419.9 373.8v-4.5M419.9 31.4v4.4" fill="none" stroke="#000" stroke-width=".66665" stroke-linejoin="round" stroke-miterlimit="10"/>
  <text style="-inkscape-font-specification:Helvetica" transform="matrix(1.33333 0 0 1.33333 410.7 389.9)" font-weight="400" font-size="10" font-family="Helvetica">
    <tspan y="0" x="0 5.5599999 8.3400002">0.8</tspan>
  </text>
  <path d="M506.7 373.8v-4.5M506.7 31.4v4.4" fill="none" stroke="#000" stroke-width=".66665" stroke-linejoin="round" stroke-miterlimit="10"/>
  <text style="-inkscape-font-specification:Helvetica" transform="matrix(1.33333 0 0 1.33333 503 389.9)" font-weight="400" font-size="10" font-family="Helvetica">
    <tspan y="0" x="0">1</tspan>
  </text>
  <path d="M72.8 373.8H77M506.7 373.8h-4.5" fill="none" stroke="#000" stroke-width=".66665" stroke-linejoin="round" stroke-miterlimit="10"/>
  <text style="-inkscape-font-specification:Helvetica" transform="matrix(1.33333 0 0 1.33333 61.6 378.7)" font-weight="400" font-size="10" font-family="Helvetica">
    <tspan y="0" x="0">0</tspan>
  </text>
  <path d="M72.8 305.2H77M506.7 305.2h-4.5" fill="none" stroke="#000" stroke-width=".66665" stroke-linejoin="round" stroke-miterlimit="10"/>
  <text style="-inkscape-font-specification:Helvetica" transform="matrix(1.33333 0 0 1.33333 61.6 310.1)" font-weight="400" font-size="10" font-family="Helvetica">
    <tspan y="0" x="0">5</tspan>
  </text>
  <path d="M72.8 236.8H77M506.7 236.8h-4.5" fill="none" stroke="#000" stroke-width=".66665" stroke-linejoin="round" stroke-miterlimit="10"/>
  <text style="-inkscape-font-specification:Helvetica" transform="matrix(1.33333 0 0 1.33333 54.1 241.7)" font-weight="400" font-size="10" font-family="Helvetica">
    <tspan y="0" x="0 5.5599999">10</tspan>
  </text>
  <path d="M72.8 168.3H77M506.7 168.3h-4.5" fill="none" stroke="#000" stroke-width=".66665" stroke-linejoin="round" stroke-miterlimit="10"/>
  <text style="-inkscape-font-specification:Helvetica" transform="matrix(1.33333 0 0 1.33333 54.1 173.2)" font-weight="400" font-size="10" font-family="Helvetica">
    <tspan y="0" x="0 5.5599999">15</tspan>
  </text>
  <path d="M72.8 99.9H77M506.7 99.9h-4.5" fill="none" stroke="#000" stroke-width=".66665" stroke-linejoin="round" stroke-miterlimit="10"/>
  <text style="-inkscape-font-specification:Helvetica" transform="matrix(1.33333 0 0 1.33333 54.1 104.8)" font-weight="400" font-size="10" font-family="Helvetica">
    <tspan y="0" x="0 5.5599999">20</tspan>
  </text>
  <path d="M72.8 31.4H77M506.7 31.4h-4.5" fill="none" stroke="#000" stroke-width=".66665" stroke-linejoin="round" stroke-miterlimit="10"/>
  <text style="-inkscape-font-specification:Helvetica" transform="matrix(1.33333 0 0 1.33333 54.1 36.3)" font-weight="400" font-size="10" font-family="Helvetica">
    <tspan y="0" x="0 5.5599999">25</tspan>
  </text>
  <path d="M72.8 31.4h433.9M72.8 373.8h433.9M506.7 373.8V31.4M72.8 373.8V31.4" fill="none" stroke="#000" stroke-width=".66665" stroke-linejoin="round" stroke-miterlimit="10"/>
  <g clip-path="url(#a)" fill="none" stroke-linejoin="round" stroke-miterlimit="10" transform="matrix(.13333 0 0 -.13333 0 420)">
    <path d="M561.7 433.3l16.6 115 15.9 37.5 16.6 19.2 15.9 12.5 16.6 9.2 15.9 7.5 16.6 5.8 15.9 5.8 16.6 5 15.9 4.2 16.6 4.2 15.9 3.3 16.6 3.3 15.9 3.4 16.6 3.3 15.9 2.5 16.6 2.5 15.9 2.5 16.6 2.5 16.7 2.5 15.8 2.5L920 690l15.8 1.7 16.7 2.5 15.8 1.6 16.7 1.7 15.8 2.5 16.7 1.7 15.8 1.6 16.7 1.7 15.8 2.5 16.7 1.7 15.8 1.6 16.7 1.7 15.8 1.7 16.7 1.6 15.8.9 16.7 1.6 16.7 1.7 15.8 1.7 16.7 1.6 15.8 1.7 16.7.8 15.8 1.7 16.7 1.7 15.8 1.6 16.7.9 15.8 1.6 16.7 1.7 15.8.8 16.7 1.7 15.8 1.7 16.7.8 15.8 1.7 16.7 1.6 15.8.9 16.7 1.6 15.8.9 16.7 1.6 16.6.9 15.9 1.6 16.6 1.7 15.9.8 16.6 1.7 15.9.8 16.6 1.7 15.9.8 16.6 1.7 15.9.8 16.6 1.7 15.9.8 16.6 1.7 15.9 1.7 16.6.8 15.9 1.7 16.6.8 15.9 1.7 16.6.8 16.7 1.7 15.8.8 16.7 1.7 15.8.8 16.7 1.7 15.8.8 16.7 1.7 15.8.8 16.7 1.7 15.8 1.6 16.7.9 15.8 1.6 16.7.9 15.8 1.6 16.7.9 15.8 1.6 16.7 1.7 15.8.8 16.7 1.7 15.8.8 16.7 1.7 16.7 1.7 15.8.8 16.7 1.7 15.8 1.6 16.7.9 15.8 1.6 16.7 1.7 15.8.8 16.7 1.7 15.8 1.7 16.7 1.6 15.8.9 16.7 1.6 15.8 1.7 16.7 1.7 15.8 1.6 16.7.9 15.8 1.6 16.7 1.7 16.6 1.7 15.9 1.6 16.6 1.7 15.9 1.7 16.6 1.6 15.9 1.7 16.6 1.7 15.9 1.6 16.6 1.7 15.9 1.7 16.6 1.6 15.9 1.7 16.6 1.7 15.9 1.6 16.6 2.5 15.9 1.7 16.6 1.7 15.9 2.5 16.6 1.6 15.9 1.7 16.6 2.5 16.7 1.7 15.8 2.5 16.7 1.6 15.8 2.5 16.7 2.5 15.8 1.7 16.7 2.5 15.8 2.5 16.7 2.5 15.8 2.5 16.7 2.5 15.8 2.5 16.7 2.5 15.8 3.3 16.7 2.5 15.8 2.5 16.7 3.4 15.8 3.3 16.7 2.5 16.7 3.3 15.8 3.4 16.7 3.3 15.8 4.2 16.7 3.3 15.8 3.3 16.7 4.2 15.8 4.2 16.7 4.1 15.8 5 16.7 4.2 15.8 5 16.7 5 15.8 5 16.7 5.8 15.8 5.9 16.7 6.6 15.8 6.7 16.7 6.7 15.8 7.5 16.7 8.3 16.6 9.2 15.9 9.1 16.6 10 15.9 11.7 16.6 12.5 15.9 13.3 16.6 15.9 15.9 16.6 16.6 20 15.9 23.4 16.6 26.6 15.9 32.5 16.6 39.2 15.9 50.8 16.6 66.7 15.9 93.3 16.6 144.2 15.9 259.2 16.6 657.5" stroke="#00f" stroke-width="5" stroke-dasharray="60"/>
    <path d="M558.3 378.3l13.4 140.9 12.5 48.3 13.3 22.5 13.3 15 12.5 10 13.4 8.3 12.5 6.7 13.3 5.8 13.3 4.2 12.5 5 13.4 4.2 13.3 3.3 12.5 3.3 13.3 3.4 12.5 2.5 13.4 3.3 13.3 2.5 12.5 2.5 13.3 2.5 13.4 1.7 12.5 2.5 13.3 1.6 12.5 2.5 13.3 1.7 13.4 2.5 12.5 1.7 13.3 1.6 12.5 1.7 13.3 1.7 13.4 1.6 12.5 1.7 13.3 1.7 13.3 1.6 12.5 1.7 13.4 1.7 12.5.8 13.3 1.7 13.3 1.6 12.5 1.7 13.4.8 13.3 1.7 12.5.8 13.3 1.7 12.5 1.7 13.4.8 13.3 1.7 12.5.8 13.3 1.7 13.4.8" stroke="red" stroke-width="20"/>
  </g>
</svg>
