<?xml version="1.0" encoding="UTF-8" standalone="no"?>
<svg
   xmlns:dc="http://purl.org/dc/elements/1.1/"
   xmlns:cc="http://creativecommons.org/ns#"
   xmlns:rdf="http://www.w3.org/1999/02/22-rdf-syntax-ns#"
   xmlns:svg="http://www.w3.org/2000/svg"
   xmlns="http://www.w3.org/2000/svg"
   viewBox="0 0 558.66669 420"
   height="420"
   width="558.66669"
   xml:space="preserve"
   id="svg2"
   version="1.1"><metadata
     id="metadata8"><rdf:RDF><cc:Work
         rdf:about=""><dc:format>image/svg+xml</dc:format><dc:type
           rdf:resource="http://purl.org/dc/dcmitype/StillImage" /></cc:Work></rdf:RDF></metadata><defs
     id="defs6"><clipPath
       id="clipPath166"
       clipPathUnits="userSpaceOnUse"><path
         id="path164"
         d="m 545.832,345.832 h 3255 v 2568.34 h -3255 z" /></clipPath></defs><g
     transform="matrix(1.3333333,0,0,-1.3333333,0,420)"
     id="g10"><g
       transform="scale(0.1)"
       id="g12"><path
         id="path14"
         style="fill:#ffffff;fill-opacity:1;fill-rule:nonzero;stroke:none"
         d="M 0,0 H 4190 V 3150 H 0 Z" /><path
         id="path16"
         style="fill:#ffffff;fill-opacity:1;fill-rule:evenodd;stroke:none"
         d="m 545.832,346.668 h 3254.17 v 2567.5 H 545.832 Z" /><path
         id="path18"
         style="fill:none;stroke:#ffffff;stroke-width:5;stroke-linecap:butt;stroke-linejoin:round;stroke-miterlimit:10;stroke-dasharray:none;stroke-opacity:1"
         d="M 545.832,346.668 V 2914.17 H 3800 V 346.668 H 545.832" /><path
         id="path20"
         style="fill:none;stroke:#000000;stroke-width:5;stroke-linecap:butt;stroke-linejoin:round;stroke-miterlimit:10;stroke-dasharray:none;stroke-opacity:1"
         d="M 545.832,2914.17 H 3800" /><path
         id="path22"
         style="fill:none;stroke:#000000;stroke-width:5;stroke-linecap:butt;stroke-linejoin:round;stroke-miterlimit:10;stroke-dasharray:none;stroke-opacity:1"
         d="M 545.832,346.668 H 3800" /><path
         id="path24"
         style="fill:none;stroke:#000000;stroke-width:5;stroke-linecap:butt;stroke-linejoin:round;stroke-miterlimit:10;stroke-dasharray:none;stroke-opacity:1"
         d="M 3800,346.668 V 2914.17" /><path
         id="path26"
         style="fill:none;stroke:#000000;stroke-width:5;stroke-linecap:butt;stroke-linejoin:round;stroke-miterlimit:10;stroke-dasharray:none;stroke-opacity:1"
         d="M 545.832,346.668 V 2914.17" /><path
         id="path28"
         style="fill:none;stroke:#000000;stroke-width:5;stroke-linecap:butt;stroke-linejoin:round;stroke-miterlimit:10;stroke-dasharray:none;stroke-opacity:1"
         d="M 545.832,346.668 H 3800" /><path
         id="path30"
         style="fill:none;stroke:#000000;stroke-width:5;stroke-linecap:butt;stroke-linejoin:round;stroke-miterlimit:10;stroke-dasharray:none;stroke-opacity:1"
         d="M 545.832,346.668 V 2914.17" /><path
         id="path32"
         style="fill:none;stroke:#000000;stroke-width:5;stroke-linecap:butt;stroke-linejoin:round;stroke-miterlimit:10;stroke-dasharray:none;stroke-opacity:1"
         d="M 545.832,346.668 V 380" /><path
         id="path34"
         style="fill:none;stroke:#000000;stroke-width:5;stroke-linecap:butt;stroke-linejoin:round;stroke-miterlimit:10;stroke-dasharray:none;stroke-opacity:1"
         d="m 545.832,2914.17 v -32.5" /><g
         transform="scale(10)"
         id="g36"><text
           id="text40"
           style="font-variant:normal;font-weight:normal;font-size:10px;font-family:Helvetica;-inkscape-font-specification:Helvetica;writing-mode:lr-tb;fill:#000000;fill-opacity:1;fill-rule:nonzero;stroke:none"
           transform="matrix(1,0,0,-1,51.8332,22.5832)"><tspan
             id="tspan38"
             y="0"
             x="0">0</tspan></text>
</g><path
         id="path42"
         style="fill:none;stroke:#000000;stroke-width:5;stroke-linecap:butt;stroke-linejoin:round;stroke-miterlimit:10;stroke-dasharray:none;stroke-opacity:1"
         d="M 1196.67,346.668 V 380" /><path
         id="path44"
         style="fill:none;stroke:#000000;stroke-width:5;stroke-linecap:butt;stroke-linejoin:round;stroke-miterlimit:10;stroke-dasharray:none;stroke-opacity:1"
         d="m 1196.67,2914.17 v -32.5" /><g
         transform="scale(10)"
         id="g46"><text
           id="text50"
           style="font-variant:normal;font-weight:normal;font-size:10px;font-family:Helvetica;-inkscape-font-specification:Helvetica;writing-mode:lr-tb;fill:#000000;fill-opacity:1;fill-rule:nonzero;stroke:none"
           transform="matrix(1,0,0,-1,112.75,22.5832)"><tspan
             id="tspan48"
             y="0"
             x="0 5.5599999 8.3400002">0.2</tspan></text>
</g><path
         id="path52"
         style="fill:none;stroke:#000000;stroke-width:5;stroke-linecap:butt;stroke-linejoin:round;stroke-miterlimit:10;stroke-dasharray:none;stroke-opacity:1"
         d="M 1847.5,346.668 V 380" /><path
         id="path54"
         style="fill:none;stroke:#000000;stroke-width:5;stroke-linecap:butt;stroke-linejoin:round;stroke-miterlimit:10;stroke-dasharray:none;stroke-opacity:1"
         d="m 1847.5,2914.17 v -32.5" /><g
         transform="scale(10)"
         id="g56"><text
           id="text60"
           style="font-variant:normal;font-weight:normal;font-size:10px;font-family:Helvetica;-inkscape-font-specification:Helvetica;writing-mode:lr-tb;fill:#000000;fill-opacity:1;fill-rule:nonzero;stroke:none"
           transform="matrix(1,0,0,-1,177.833,22.5832)"><tspan
             id="tspan58"
             y="0"
             x="0 5.5599999 8.3400002">0.4</tspan></text>
</g><path
         id="path62"
         style="fill:none;stroke:#000000;stroke-width:5;stroke-linecap:butt;stroke-linejoin:round;stroke-miterlimit:10;stroke-dasharray:none;stroke-opacity:1"
         d="M 2498.33,346.668 V 380" /><path
         id="path64"
         style="fill:none;stroke:#000000;stroke-width:5;stroke-linecap:butt;stroke-linejoin:round;stroke-miterlimit:10;stroke-dasharray:none;stroke-opacity:1"
         d="m 2498.33,2914.17 v -32.5" /><g
         transform="scale(10)"
         id="g66"><text
           id="text70"
           style="font-variant:normal;font-weight:normal;font-size:10px;font-family:Helvetica;-inkscape-font-specification:Helvetica;writing-mode:lr-tb;fill:#000000;fill-opacity:1;fill-rule:nonzero;stroke:none"
           transform="matrix(1,0,0,-1,242.917,22.5832)"><tspan
             id="tspan68"
             y="0"
             x="0 5.5599999 8.3400002">0.6</tspan></text>
</g><path
         id="path72"
         style="fill:none;stroke:#000000;stroke-width:5;stroke-linecap:butt;stroke-linejoin:round;stroke-miterlimit:10;stroke-dasharray:none;stroke-opacity:1"
         d="M 3149.17,346.668 V 380" /><path
         id="path74"
         style="fill:none;stroke:#000000;stroke-width:5;stroke-linecap:butt;stroke-linejoin:round;stroke-miterlimit:10;stroke-dasharray:none;stroke-opacity:1"
         d="m 3149.17,2914.17 v -32.5" /><g
         transform="scale(10)"
         id="g76"><text
           id="text80"
           style="font-variant:normal;font-weight:normal;font-size:10px;font-family:Helvetica;-inkscape-font-specification:Helvetica;writing-mode:lr-tb;fill:#000000;fill-opacity:1;fill-rule:nonzero;stroke:none"
           transform="matrix(1,0,0,-1,308,22.5832)"><tspan
             id="tspan78"
             y="0"
             x="0 5.5599999 8.3400002">0.8</tspan></text>
</g><path
         id="path82"
         style="fill:none;stroke:#000000;stroke-width:5;stroke-linecap:butt;stroke-linejoin:round;stroke-miterlimit:10;stroke-dasharray:none;stroke-opacity:1"
         d="M 3800,346.668 V 380" /><path
         id="path84"
         style="fill:none;stroke:#000000;stroke-width:5;stroke-linecap:butt;stroke-linejoin:round;stroke-miterlimit:10;stroke-dasharray:none;stroke-opacity:1"
         d="m 3800,2914.17 v -32.5" /><g
         transform="scale(10)"
         id="g86"><text
           id="text90"
           style="font-variant:normal;font-weight:normal;font-size:10px;font-family:Helvetica;-inkscape-font-specification:Helvetica;writing-mode:lr-tb;fill:#000000;fill-opacity:1;fill-rule:nonzero;stroke:none"
           transform="matrix(1,0,0,-1,377.25,22.5832)"><tspan
             id="tspan88"
             y="0"
             x="0">1</tspan></text>
</g><path
         id="path92"
         style="fill:none;stroke:#000000;stroke-width:5;stroke-linecap:butt;stroke-linejoin:round;stroke-miterlimit:10;stroke-dasharray:none;stroke-opacity:1"
         d="m 545.832,346.668 h 32.5" /><path
         id="path94"
         style="fill:none;stroke:#000000;stroke-width:5;stroke-linecap:butt;stroke-linejoin:round;stroke-miterlimit:10;stroke-dasharray:none;stroke-opacity:1"
         d="m 3800,346.668 h -33.33" /><g
         transform="scale(10)"
         id="g96"><text
           id="text100"
           style="font-variant:normal;font-weight:normal;font-size:10px;font-family:Helvetica;-inkscape-font-specification:Helvetica;writing-mode:lr-tb;fill:#000000;fill-opacity:1;fill-rule:nonzero;stroke:none"
           transform="matrix(1,0,0,-1,46.1668,31)"><tspan
             id="tspan98"
             y="0"
             x="0">0</tspan></text>
</g><path
         id="path102"
         style="fill:none;stroke:#000000;stroke-width:5;stroke-linecap:butt;stroke-linejoin:round;stroke-miterlimit:10;stroke-dasharray:none;stroke-opacity:1"
         d="m 545.832,860.832 h 32.5" /><path
         id="path104"
         style="fill:none;stroke:#000000;stroke-width:5;stroke-linecap:butt;stroke-linejoin:round;stroke-miterlimit:10;stroke-dasharray:none;stroke-opacity:1"
         d="m 3800,860.832 h -33.33" /><g
         transform="scale(10)"
         id="g106"><text
           id="text110"
           style="font-variant:normal;font-weight:normal;font-size:10px;font-family:Helvetica;-inkscape-font-specification:Helvetica;writing-mode:lr-tb;fill:#000000;fill-opacity:1;fill-rule:nonzero;stroke:none"
           transform="matrix(1,0,0,-1,46.1668,82.4168)"><tspan
             id="tspan108"
             y="0"
             x="0">5</tspan></text>
</g><path
         id="path112"
         style="fill:none;stroke:#000000;stroke-width:5;stroke-linecap:butt;stroke-linejoin:round;stroke-miterlimit:10;stroke-dasharray:none;stroke-opacity:1"
         d="m 545.832,1374.17 h 32.5" /><path
         id="path114"
         style="fill:none;stroke:#000000;stroke-width:5;stroke-linecap:butt;stroke-linejoin:round;stroke-miterlimit:10;stroke-dasharray:none;stroke-opacity:1"
         d="m 3800,1374.17 h -33.33" /><g
         transform="scale(10)"
         id="g116"><text
           id="text120"
           style="font-variant:normal;font-weight:normal;font-size:10px;font-family:Helvetica;-inkscape-font-specification:Helvetica;writing-mode:lr-tb;fill:#000000;fill-opacity:1;fill-rule:nonzero;stroke:none"
           transform="matrix(1,0,0,-1,40.5832,133.75)"><tspan
             id="tspan118"
             y="0"
             x="0 5.5599999">10</tspan></text>
</g><path
         id="path122"
         style="fill:none;stroke:#000000;stroke-width:5;stroke-linecap:butt;stroke-linejoin:round;stroke-miterlimit:10;stroke-dasharray:none;stroke-opacity:1"
         d="m 545.832,1887.5 h 32.5" /><path
         id="path124"
         style="fill:none;stroke:#000000;stroke-width:5;stroke-linecap:butt;stroke-linejoin:round;stroke-miterlimit:10;stroke-dasharray:none;stroke-opacity:1"
         d="m 3800,1887.5 h -33.33" /><g
         transform="scale(10)"
         id="g126"><text
           id="text130"
           style="font-variant:normal;font-weight:normal;font-size:10px;font-family:Helvetica;-inkscape-font-specification:Helvetica;writing-mode:lr-tb;fill:#000000;fill-opacity:1;fill-rule:nonzero;stroke:none"
           transform="matrix(1,0,0,-1,40.5832,185.083)"><tspan
             id="tspan128"
             y="0"
             x="0 5.5599999">15</tspan></text>
</g><path
         id="path132"
         style="fill:none;stroke:#000000;stroke-width:5;stroke-linecap:butt;stroke-linejoin:round;stroke-miterlimit:10;stroke-dasharray:none;stroke-opacity:1"
         d="m 545.832,2400.83 h 32.5" /><path
         id="path134"
         style="fill:none;stroke:#000000;stroke-width:5;stroke-linecap:butt;stroke-linejoin:round;stroke-miterlimit:10;stroke-dasharray:none;stroke-opacity:1"
         d="m 3800,2400.83 h -33.33" /><g
         transform="scale(10)"
         id="g136"><text
           id="text140"
           style="font-variant:normal;font-weight:normal;font-size:10px;font-family:Helvetica;-inkscape-font-specification:Helvetica;writing-mode:lr-tb;fill:#000000;fill-opacity:1;fill-rule:nonzero;stroke:none"
           transform="matrix(1,0,0,-1,40.5832,236.417)"><tspan
             id="tspan138"
             y="0"
             x="0 5.5599999">20</tspan></text>
</g><path
         id="path142"
         style="fill:none;stroke:#000000;stroke-width:5;stroke-linecap:butt;stroke-linejoin:round;stroke-miterlimit:10;stroke-dasharray:none;stroke-opacity:1"
         d="m 545.832,2914.17 h 32.5" /><path
         id="path144"
         style="fill:none;stroke:#000000;stroke-width:5;stroke-linecap:butt;stroke-linejoin:round;stroke-miterlimit:10;stroke-dasharray:none;stroke-opacity:1"
         d="m 3800,2914.17 h -33.33" /><g
         transform="scale(10)"
         id="g146"><text
           id="text150"
           style="font-variant:normal;font-weight:normal;font-size:10px;font-family:Helvetica;-inkscape-font-specification:Helvetica;writing-mode:lr-tb;fill:#000000;fill-opacity:1;fill-rule:nonzero;stroke:none"
           transform="matrix(1,0,0,-1,40.5832,287.75)"><tspan
             id="tspan148"
             y="0"
             x="0 5.5599999">25</tspan></text>
</g><path
         id="path152"
         style="fill:none;stroke:#000000;stroke-width:5;stroke-linecap:butt;stroke-linejoin:round;stroke-miterlimit:10;stroke-dasharray:none;stroke-opacity:1"
         d="M 545.832,2914.17 H 3800" /><path
         id="path154"
         style="fill:none;stroke:#000000;stroke-width:5;stroke-linecap:butt;stroke-linejoin:round;stroke-miterlimit:10;stroke-dasharray:none;stroke-opacity:1"
         d="M 545.832,346.668 H 3800" /><path
         id="path156"
         style="fill:none;stroke:#000000;stroke-width:5;stroke-linecap:butt;stroke-linejoin:round;stroke-miterlimit:10;stroke-dasharray:none;stroke-opacity:1"
         d="M 3800,346.668 V 2914.17" /><path
         id="path158"
         style="fill:none;stroke:#000000;stroke-width:5;stroke-linecap:butt;stroke-linejoin:round;stroke-miterlimit:10;stroke-dasharray:none;stroke-opacity:1"
         d="M 545.832,346.668 V 2914.17" /><g
         id="g160"><g
           clip-path="url(#clipPath166)"
           id="g162"><path
             id="path168"
             style="fill:none;stroke:#0000ff;stroke-width:5;stroke-linecap:butt;stroke-linejoin:round;stroke-miterlimit:10;stroke-dasharray:60;stroke-dashoffset:0;stroke-opacity:1"
             d="m 561.668,433.332 16.664,115 15.836,37.5 16.664,19.168 15.836,12.5 16.664,9.168 15.836,7.5 16.664,5.832 15.836,5.832 16.664,5 15.836,4.168 16.664,4.168 15.836,3.332 16.664,3.332 15.836,3.336 16.664,3.332 15.836,2.5 16.664,2.5 15.836,2.5 16.664,2.5 16.668,2.5 15.832,2.5 16.668,2.5 15.832,1.668 16.668,2.5 15.832,1.664 16.668,1.668 15.83,2.5 16.67,1.668 15.83,1.664 16.67,1.668 15.83,2.5 16.67,1.668 15.83,1.664 16.67,1.668 15.83,1.668 16.67,1.664 15.83,0.836 16.67,1.664 16.67,1.668 15.83,1.668 16.67,1.664 15.83,1.668 16.67,0.832 15.83,1.668 16.67,1.668 15.83,1.664 16.67,0.836 15.83,1.664 16.67,1.668 15.83,0.832 16.67,1.668 15.83,1.668 16.67,0.832 15.83,1.668 16.67,1.664 15.83,0.836 16.67,1.664 15.83,0.836 16.67,1.664 16.66,0.836 15.84,1.664 16.66,1.668 15.84,0.832 16.66,1.668 15.84,0.832 16.66,1.668 15.84,0.832 16.66,1.668 15.84,0.832 16.66,1.668 15.84,0.832 16.66,1.668 15.84,1.668 16.66,0.832 15.84,1.668 16.66,0.832 15.84,1.668 16.66,0.832 16.67,1.668 15.83,0.832 16.67,1.668 15.83,0.832 16.67,1.668 15.83,0.832 16.67,1.668 15.83,0.832 16.67,1.668 15.83,1.664 16.67,0.836 15.83,1.664 16.67,0.836 15.83,1.664 16.67,0.836 15.83,1.664 16.67,1.668 15.83,0.832 16.67,1.668 15.83,0.832 16.67,1.668 16.67,1.668 15.83,0.832 16.67,1.668 15.83,1.664 16.67,0.836 15.83,1.664 16.67,1.668 15.83,0.832 16.67,1.668 15.83,1.668 16.67,1.664 15.83,0.836 16.67,1.664 15.83,1.668 16.67,1.668 15.83,1.664 16.67,0.836 15.83,1.664 16.67,1.668 16.66,1.668 15.84,1.664 16.66,1.668 15.84,1.668 16.66,1.664 15.84,1.668 16.66,1.668 15.84,1.664 16.66,1.668 15.84,1.668 16.66,1.664 15.84,1.668 16.66,1.668 15.84,1.664 16.66,2.5 15.84,1.668 16.66,1.668 15.84,2.5 16.66,1.664 15.84,1.668 16.66,2.5 16.67,1.668 15.83,2.5 16.67,1.664 15.83,2.5 16.67,2.5 15.83,1.668 16.67,2.5 15.83,2.5 16.67,2.5 15.83,2.5 16.67,2.5 15.83,2.5 16.67,2.5 15.83,3.332 16.67,2.5 15.83,2.5 16.67,3.336 15.83,3.332 16.67,2.5 16.67,3.332 15.83,3.336 16.67,3.332 15.83,4.168 16.67,3.332 15.83,3.332 16.67,4.168 15.83,4.168 16.67,4.164 15.83,5 16.67,4.168 15.83,5 16.67,5 15.83,5 16.67,5.832 15.83,5.836 16.67,6.664 15.83,6.668 16.67,6.67 15.83,7.5 16.67,8.33 16.66,9.17 15.84,9.16 16.66,10 15.84,11.67 16.66,12.5 15.84,13.33 16.66,15.84 15.84,16.66 16.66,20 15.84,23.34 16.66,26.66 15.84,32.5 16.66,39.17 15.84,50.83 16.66,66.67 15.84,93.33 16.66,144.17 15.84,259.17 16.66,657.5" /><path
             id="path170"
             style="fill:none;stroke:#ff0000;stroke-width:20;stroke-linecap:butt;stroke-linejoin:round;stroke-miterlimit:10;stroke-dasharray:none;stroke-opacity:1"
             d="m 558.332,378.332 13.336,140.836 12.5,48.332 13.332,22.5 13.332,15 12.5,10 13.336,8.332 12.5,6.668 13.332,5.832 13.332,4.168 12.5,5 13.336,4.168 13.332,3.332 12.5,3.332 13.332,3.336 12.5,2.5 13.336,3.332 13.332,2.5 12.5,2.5 13.332,2.5 13.336,1.668 12.5,2.5 13.332,1.664 12.5,2.5 13.332,1.668 13.336,2.5 12.5,1.668 13.332,1.664 12.5,1.668 13.332,1.668 13.336,1.664 12.5,1.668 13.332,1.668 13.332,1.664 12.498,1.668 13.34,1.668 12.5,0.832 13.33,1.668 13.33,1.664 12.5,1.668 13.34,0.832 13.33,1.668 12.5,0.832 13.33,1.668 12.5,1.668 13.34,0.832 13.33,1.668 12.5,0.832 13.33,1.668 13.34,0.832" /></g></g></g></g></svg>