<?xml version="1.0" encoding="UTF-8" standalone="no"?>
<svg
   xmlns:dc="http://purl.org/dc/elements/1.1/"
   xmlns:cc="http://creativecommons.org/ns#"
   xmlns:rdf="http://www.w3.org/1999/02/22-rdf-syntax-ns#"
   xmlns:svg="http://www.w3.org/2000/svg"
   xmlns="http://www.w3.org/2000/svg"
   viewBox="0 0 709.04785 185.67467"
   height="185.67467"
   width="709.04785"
   xml:space="preserve"
   id="svg2"
   version="1.1"><metadata
     id="metadata8"><rdf:RDF><cc:Work
         rdf:about=""><dc:format>image/svg+xml</dc:format><dc:type
           rdf:resource="http://purl.org/dc/dcmitype/StillImage" /></cc:Work></rdf:RDF></metadata><defs
     id="defs6"><clipPath
       id="clipPath14"
       clipPathUnits="userSpaceOnUse"><path
         id="path12"
         d="M 0,0 H 596.25 V 843 H 0 Z" /></clipPath></defs><g
     clip-path="url(#clipPath14)"
     transform="matrix(1.3333333,0,0,-1.3333333,-63.157467,913.888)"
     id="g10"><path
       id="path16"
       style="fill:#ffffff;fill-opacity:1;fill-rule:evenodd;stroke:none"
       d="m 421.23,645.14 h 35.433 v 35.433 H 421.23 Z" /><path
       id="path18"
       style="fill:none;stroke:#000000;stroke-width:1.5;stroke-linecap:round;stroke-linejoin:round;stroke-miterlimit:10;stroke-dasharray:none;stroke-opacity:1"
       d="m 421.23,645.14 h 35.433 v 35.433 H 421.23 Z" /><text
       id="text22"
       style="font-style:italic;font-variant:normal;font-weight:normal;font-size:12.00024033px;font-family:'Times New Roman';-inkscape-font-specification:'Times New Roman, Italic';writing-mode:lr-tb;fill:#000000;fill-opacity:1;fill-rule:nonzero;stroke:none"
       transform="matrix(1,0,0,-1,429.78,658.06)"><tspan
         id="tspan20"
         y="0"
         x="0 6.6738958">Z </tspan></text>
<text
       id="text26"
       style="font-style:italic;font-variant:normal;font-weight:normal;font-size:10.39824009px;font-family:'Times New Roman';-inkscape-font-specification:'Times New Roman, Italic';writing-mode:lr-tb;fill:#000000;fill-opacity:1;fill-rule:nonzero;stroke:none"
       transform="matrix(1,0,0,-1,439.45,665.31)"><tspan
         id="tspan24"
         y="0"
         x="0">-</tspan></text>
<text
       id="text30"
       style="font-variant:normal;font-weight:normal;font-size:10.39824009px;font-family:'Times New Roman';-inkscape-font-specification:'Times New';writing-mode:lr-tb;fill:#000000;fill-opacity:1;fill-rule:nonzero;stroke:none"
       transform="matrix(1,0,0,-1,442.91,665.31)"><tspan
         id="tspan28"
         y="0"
         x="0">1</tspan></text>
<path
       id="path32"
       style="fill:none;stroke:#000000;stroke-width:1.5;stroke-linecap:round;stroke-linejoin:round;stroke-miterlimit:10;stroke-dasharray:none;stroke-opacity:1"
       d="m 392.88,663.57 h 22.26" /><path
       id="path34"
       style="fill:#000000;fill-opacity:1;fill-rule:evenodd;stroke:none"
       d="m 421.23,663.57 -8.04,-4.02 c 1.26,2.53 1.26,5.51 0,8.04 z" /><path
       id="path36"
       style="fill:none;stroke:#000000;stroke-width:1.5;stroke-linecap:round;stroke-linejoin:round;stroke-miterlimit:10;stroke-dasharray:none;stroke-opacity:1"
       d="m 485.86,624.58 v 38.7 h -28.35" /><path
       id="path38"
       style="fill:#000000;fill-opacity:1;fill-rule:evenodd;stroke:none"
       d="m 485.86,618.5 -4.02,8.04 c 2.53,-1.27 5.51,-1.27 8.04,0 z" /><path
       id="path40"
       style="fill:#ffffff;fill-opacity:1;fill-rule:evenodd;stroke:none"
       d="m 476.26,557.53 c 0,5.32 4.3,9.62 9.62,9.62 5.31,0 9.62,-4.3 9.62,-9.62 0,0 0,0 0,0 0,-5.31 -4.31,-9.62 -9.62,-9.62 -5.32,0 -9.62,4.31 -9.62,9.62 z" /><path
       id="path42"
       style="fill:none;stroke:#000000;stroke-width:1.5;stroke-linecap:round;stroke-linejoin:round;stroke-miterlimit:10;stroke-dasharray:none;stroke-opacity:1"
       d="m 476.26,557.53 c 0,5.32 4.3,9.62 9.62,9.62 5.31,0 9.62,-4.3 9.62,-9.62 0,0 0,0 0,0 0,-5.31 -4.31,-9.62 -9.62,-9.62 -5.32,0 -9.62,4.31 -9.62,9.62 z" /><path
       id="path44"
       style="fill:none;stroke:#000000;stroke-width:1.5;stroke-linecap:butt;stroke-linejoin:miter;stroke-miterlimit:2;stroke-dasharray:none;stroke-opacity:1"
       d="m 485.88,550.05 v 14.97" /><path
       id="path46"
       style="fill:none;stroke:#000000;stroke-width:1.5;stroke-linecap:butt;stroke-linejoin:miter;stroke-miterlimit:2;stroke-dasharray:none;stroke-opacity:1"
       d="M 492.82,557.53 H 478.93" /><path
       id="path48"
       style="fill:none;stroke:#000000;stroke-width:1.5;stroke-linecap:round;stroke-linejoin:round;stroke-miterlimit:2;stroke-dasharray:none;stroke-opacity:1"
       d="m 401.39,557.83 68.74,-0.26" /><path
       id="path50"
       style="fill:#000000;fill-opacity:1;fill-rule:evenodd;stroke:none"
       d="m 476.22,557.55 -8.05,-3.99 c 1.27,2.53 1.28,5.51 0.03,8.04 z" /><text
       id="text54"
       style="font-variant:normal;font-weight:normal;font-size:12.00024033px;writing-mode:lr-tb;fill:#000000;fill-opacity:1;fill-rule:nonzero;stroke:none"
       transform="matrix(1,0,0,-1,339.5,603.78)"><tspan
         id="tspan52"
         y="0"
         x="0 12.00024">……</tspan></text>
<path
       id="path56"
       style="fill:none;stroke:#000000;stroke-width:1.5;stroke-linecap:round;stroke-linejoin:round;stroke-miterlimit:2;stroke-dasharray:none;stroke-opacity:1"
       d="m 496.06,557.27 h 34.17" /><path
       id="path58"
       style="fill:#000000;fill-opacity:1;fill-rule:evenodd;stroke:none"
       d="m 536.31,557.27 -8.04,-4.02 c 1.27,2.53 1.27,5.51 0,8.04 z" /><path
       id="path60"
       style="fill:#ffffff;fill-opacity:1;fill-rule:evenodd;stroke:none"
       d="m 141.73,645.99 h 35.433 v 35.433 H 141.73 Z" /><path
       id="path62"
       style="fill:none;stroke:#000000;stroke-width:1.5;stroke-linecap:round;stroke-linejoin:round;stroke-miterlimit:2;stroke-dasharray:none;stroke-opacity:1"
       d="m 141.73,645.99 h 35.433 v 35.433 H 141.73 Z" /><text
       id="text66"
       style="font-style:italic;font-variant:normal;font-weight:normal;font-size:12.00024033px;font-family:'Times New Roman';-inkscape-font-specification:'Times New Roman, Italic';writing-mode:lr-tb;fill:#000000;fill-opacity:1;fill-rule:nonzero;stroke:none"
       transform="matrix(1,0,0,-1,150.28,658.91)"><tspan
         id="tspan64"
         y="0"
         x="0 6.6738958">Z </tspan></text>
<text
       id="text70"
       style="font-style:italic;font-variant:normal;font-weight:normal;font-size:10.39824009px;font-family:'Times New Roman';-inkscape-font-specification:'Times New Roman, Italic';writing-mode:lr-tb;fill:#000000;fill-opacity:1;fill-rule:nonzero;stroke:none"
       transform="matrix(1,0,0,-1,159.96,666.16)"><tspan
         id="tspan68"
         y="0"
         x="0">-</tspan></text>
<text
       id="text74"
       style="font-variant:normal;font-weight:normal;font-size:10.39824009px;font-family:'Times New Roman';-inkscape-font-specification:'Times New';writing-mode:lr-tb;fill:#000000;fill-opacity:1;fill-rule:nonzero;stroke:none"
       transform="matrix(1,0,0,-1,163.42,666.16)"><tspan
         id="tspan72"
         y="0"
         x="0">1</tspan></text>
<path
       id="path76"
       style="fill:#ffffff;fill-opacity:1;fill-rule:evenodd;stroke:none"
       d="m 196.76,558.38 c 0,5.32 4.31,9.62 9.62,9.62 5.31,0 9.62,-4.3 9.62,-9.62 0,0 0,0 0,0 0,-5.31 -4.31,-9.62 -9.62,-9.62 -5.31,0 -9.62,4.31 -9.62,9.62 z" /><path
       id="path78"
       style="fill:none;stroke:#000000;stroke-width:1.5;stroke-linecap:round;stroke-linejoin:round;stroke-miterlimit:2;stroke-dasharray:none;stroke-opacity:1"
       d="m 196.76,558.38 c 0,5.32 4.31,9.62 9.62,9.62 5.31,0 9.62,-4.3 9.62,-9.62 0,0 0,0 0,0 0,-5.31 -4.31,-9.62 -9.62,-9.62 -5.31,0 -9.62,4.31 -9.62,9.62 z" /><path
       id="path80"
       style="fill:none;stroke:#000000;stroke-width:1.5;stroke-linecap:butt;stroke-linejoin:miter;stroke-miterlimit:2;stroke-dasharray:none;stroke-opacity:1"
       d="m 206.38,550.9 v 14.97" /><path
       id="path82"
       style="fill:none;stroke:#000000;stroke-width:1.5;stroke-linecap:butt;stroke-linejoin:miter;stroke-miterlimit:2;stroke-dasharray:none;stroke-opacity:1"
       d="m 213.33,558.38 h -13.9" /><path
       id="path84"
       style="fill:none;stroke:#000000;stroke-width:1.5;stroke-linecap:round;stroke-linejoin:round;stroke-miterlimit:2;stroke-dasharray:none;stroke-opacity:1"
       d="m 113.39,558.4 h 77.25" /><path
       id="path86"
       style="fill:#000000;fill-opacity:1;fill-rule:evenodd;stroke:none"
       d="m 196.72,558.4 -8.04,-4.02 c 1.27,2.53 1.27,5.51 0,8.04 z" /><path
       id="path88"
       style="fill:none;stroke:#000000;stroke-width:1.5;stroke-linecap:round;stroke-linejoin:round;stroke-miterlimit:2;stroke-dasharray:none;stroke-opacity:1"
       d="m 113.39,558.4 h 0.12 v 36.57" /><text
       id="text92"
       style="font-style:italic;font-variant:normal;font-weight:normal;font-size:12.00024033px;font-family:'Times New Roman';-inkscape-font-specification:'Times New Roman, Italic';writing-mode:lr-tb;fill:#000000;fill-opacity:1;fill-rule:nonzero;stroke:none"
       transform="matrix(1,0,0,-1,56.634,602.78)"><tspan
         id="tspan90"
         y="0"
         x="0">h</tspan></text>
<text
       id="text96"
       style="font-variant:normal;font-weight:normal;font-size:12.00024033px;font-family:'Times New Roman';-inkscape-font-specification:'Times New';writing-mode:lr-tb;fill:#000000;fill-opacity:1;fill-rule:nonzero;stroke:none"
       transform="matrix(1,0,0,-1,62.634,602.78)"><tspan
         id="tspan94"
         y="0"
         x="0">[</tspan></text>
<text
       id="text100"
       style="font-variant:normal;font-weight:normal;font-size:12.00024033px;font-family:'Times New Roman';-inkscape-font-specification:'Times New';writing-mode:lr-tb;fill:#000000;fill-opacity:1;fill-rule:nonzero;stroke:none"
       transform="matrix(1,0,0,-1,66.63,602.78)"><tspan
         id="tspan98"
         y="0"
         x="0">0</tspan></text>
<text
       id="text104"
       style="font-variant:normal;font-weight:normal;font-size:12.00024033px;font-family:'Times New Roman';-inkscape-font-specification:'Times New';writing-mode:lr-tb;fill:#000000;fill-opacity:1;fill-rule:nonzero;stroke:none"
       transform="matrix(1,0,0,-1,72.63,602.78)"><tspan
         id="tspan102"
         y="0"
         x="0">]</tspan></text>
<path
       id="path106"
       style="fill:none;stroke:#000000;stroke-width:1.5;stroke-linecap:round;stroke-linejoin:round;stroke-miterlimit:2;stroke-dasharray:none;stroke-opacity:1"
       d="M 135.65,664.42 H 79.37" /><path
       id="path108"
       style="fill:#000000;fill-opacity:1;fill-rule:evenodd;stroke:none"
       d="m 141.73,664.42 -8.04,-4.02 c 1.27,2.53 1.27,5.51 0,8.04 z" /><path
       id="path110"
       style="fill:none;stroke:#000000;stroke-width:1.5;stroke-linecap:round;stroke-linejoin:round;stroke-miterlimit:2;stroke-dasharray:none;stroke-opacity:1"
       d="m 113.49,624.55 -0.1,39.87" /><path
       id="path112"
       style="fill:#000000;fill-opacity:1;fill-rule:evenodd;stroke:none"
       d="m 113.51,618.46 -4.04,8.03 c 2.53,-1.26 5.51,-1.25 8.04,0.02 z" /><path
       id="path114"
       style="fill:#ffffff;fill-opacity:1;fill-rule:evenodd;stroke:none"
       d="m 234.71,645.99 h 35.433 v 35.433 H 234.71 Z" /><path
       id="path116"
       style="fill:none;stroke:#000000;stroke-width:1.5;stroke-linecap:round;stroke-linejoin:round;stroke-miterlimit:2;stroke-dasharray:none;stroke-opacity:1"
       d="m 234.71,645.99 h 35.433 v 35.433 H 234.71 Z" /><text
       id="text120"
       style="font-style:italic;font-variant:normal;font-weight:normal;font-size:12.00024033px;font-family:'Times New Roman';-inkscape-font-specification:'Times New Roman, Italic';writing-mode:lr-tb;fill:#000000;fill-opacity:1;fill-rule:nonzero;stroke:none"
       transform="matrix(1,0,0,-1,243.26,658.91)"><tspan
         id="tspan118"
         y="0"
         x="0 6.6738958">Z </tspan></text>
<text
       id="text124"
       style="font-style:italic;font-variant:normal;font-weight:normal;font-size:10.39824009px;font-family:'Times New Roman';-inkscape-font-specification:'Times New Roman, Italic';writing-mode:lr-tb;fill:#000000;fill-opacity:1;fill-rule:nonzero;stroke:none"
       transform="matrix(1,0,0,-1,252.93,666.16)"><tspan
         id="tspan122"
         y="0"
         x="0">-</tspan></text>
<text
       id="text128"
       style="font-variant:normal;font-weight:normal;font-size:10.39824009px;font-family:'Times New Roman';-inkscape-font-specification:'Times New';writing-mode:lr-tb;fill:#000000;fill-opacity:1;fill-rule:nonzero;stroke:none"
       transform="matrix(1,0,0,-1,256.39,666.16)"><tspan
         id="tspan126"
         y="0"
         x="0">1</tspan></text>
<path
       id="path130"
       style="fill:#ffffff;fill-opacity:1;fill-rule:evenodd;stroke:none"
       d="m 289.74,558.38 c 0,5.32 4.3,9.62 9.62,9.62 5.31,0 9.62,-4.3 9.62,-9.62 0,0 0,0 0,0 0,-5.31 -4.31,-9.62 -9.62,-9.62 -5.32,0 -9.62,4.31 -9.62,9.62 z" /><path
       id="path132"
       style="fill:none;stroke:#000000;stroke-width:1.5;stroke-linecap:round;stroke-linejoin:round;stroke-miterlimit:2;stroke-dasharray:none;stroke-opacity:1"
       d="m 289.74,558.38 c 0,5.32 4.3,9.62 9.62,9.62 5.31,0 9.62,-4.3 9.62,-9.62 0,0 0,0 0,0 0,-5.31 -4.31,-9.62 -9.62,-9.62 -5.32,0 -9.62,4.31 -9.62,9.62 z" /><path
       id="path134"
       style="fill:none;stroke:#000000;stroke-width:1.5;stroke-linecap:butt;stroke-linejoin:miter;stroke-miterlimit:2;stroke-dasharray:none;stroke-opacity:1"
       d="m 299.36,550.9 v 14.97" /><path
       id="path136"
       style="fill:none;stroke:#000000;stroke-width:1.5;stroke-linecap:butt;stroke-linejoin:miter;stroke-miterlimit:2;stroke-dasharray:none;stroke-opacity:1"
       d="M 306.3,558.38 H 292.41" /><path
       id="path138"
       style="fill:none;stroke:#000000;stroke-width:1.5;stroke-linecap:round;stroke-linejoin:round;stroke-miterlimit:2;stroke-dasharray:none;stroke-opacity:1"
       d="m 206.49,574.13 v 20.84" /><path
       id="path140"
       style="fill:#000000;fill-opacity:1;fill-rule:evenodd;stroke:none"
       d="m 206.49,568.04 -4.02,8.04 c 2.53,-1.27 5.51,-1.27 8.04,0 v 0 z" /><path
       id="path142"
       style="fill:none;stroke:#000000;stroke-width:1.5;stroke-linecap:round;stroke-linejoin:round;stroke-miterlimit:2;stroke-dasharray:none;stroke-opacity:1"
       d="M 228.62,664.42 H 177.17" /><path
       id="path144"
       style="fill:#000000;fill-opacity:1;fill-rule:evenodd;stroke:none"
       d="m 234.71,664.42 -8.04,-4.02 c 1.26,2.53 1.26,5.51 0,8.04 z" /><path
       id="path146"
       style="fill:none;stroke:#000000;stroke-width:1.5;stroke-linecap:round;stroke-linejoin:round;stroke-miterlimit:2;stroke-dasharray:none;stroke-opacity:1"
       d="m 206.36,624.3 v 40.12" /><path
       id="path148"
       style="fill:#000000;fill-opacity:1;fill-rule:evenodd;stroke:none"
       d="m 206.36,618.21 -4.02,8.04 c 2.53,-1.26 5.51,-1.26 8.04,0 v 0 z" /><path
       id="path150"
       style="fill:none;stroke:#000000;stroke-width:1.5;stroke-linecap:round;stroke-linejoin:round;stroke-miterlimit:2;stroke-dasharray:none;stroke-opacity:1"
       d="m 216,558.4 h 67.61" /><path
       id="path152"
       style="fill:#000000;fill-opacity:1;fill-rule:evenodd;stroke:none"
       d="m 289.7,558.4 -8.04,-4.02 c 1.27,2.53 1.27,5.51 0,8.04 z" /><path
       id="path154"
       style="fill:none;stroke:#000000;stroke-width:1.5;stroke-linecap:round;stroke-linejoin:round;stroke-miterlimit:2;stroke-dasharray:none;stroke-opacity:1"
       d="M 299.46,573.56 V 594.4" /><path
       id="path156"
       style="fill:#000000;fill-opacity:1;fill-rule:evenodd;stroke:none"
       d="m 299.46,567.47 -4.02,8.04 c 2.53,-1.26 5.51,-1.26 8.04,0 v 0 z" /><path
       id="path158"
       style="fill:none;stroke:#000000;stroke-width:1.5;stroke-linecap:round;stroke-linejoin:round;stroke-miterlimit:2;stroke-dasharray:none;stroke-opacity:1"
       d="m 299.34,624.58 v 39.27" /><path
       id="path160"
       style="fill:#000000;fill-opacity:1;fill-rule:evenodd;stroke:none"
       d="m 299.34,618.5 -4.02,8.04 c 2.53,-1.27 5.51,-1.27 8.04,0 z" /><path
       id="path162"
       style="fill:none;stroke:#000000;stroke-width:1.5;stroke-linecap:round;stroke-linejoin:round;stroke-miterlimit:2;stroke-dasharray:none;stroke-opacity:1"
       d="m 270.14,664.42 h 51.59" /><path
       id="path164"
       style="fill:none;stroke:#000000;stroke-width:1.5;stroke-linecap:round;stroke-linejoin:round;stroke-miterlimit:2;stroke-dasharray:none;stroke-opacity:1"
       d="m 308.98,558.4 h 14.17" /><text
       id="text168"
       style="font-style:italic;font-variant:normal;font-weight:normal;font-size:12.00024033px;font-family:'Times New Roman';-inkscape-font-specification:'Times New Roman, Italic';writing-mode:lr-tb;fill:#000000;fill-opacity:1;fill-rule:nonzero;stroke:none"
       transform="matrix(1,0,0,-1,60.351,661.48)"><tspan
         id="tspan166"
         y="0"
         x="0">x</tspan></text>
<text
       id="text172"
       style="font-variant:normal;font-weight:normal;font-size:12.00024033px;font-family:'Times New Roman';-inkscape-font-specification:'Times New';writing-mode:lr-tb;fill:#000000;fill-opacity:1;fill-rule:nonzero;stroke:none"
       transform="matrix(1,0,0,-1,65.677,661.48)"><tspan
         id="tspan170"
         y="0"
         x="0">[</tspan></text>
<text
       id="text176"
       style="font-variant:normal;font-weight:normal;font-size:12.00024033px;font-family:'Times New Roman';-inkscape-font-specification:'Times New';writing-mode:lr-tb;fill:#000000;fill-opacity:1;fill-rule:nonzero;stroke:none"
       transform="matrix(1,0,0,-1,69.673,661.48)"><tspan
         id="tspan174"
         y="0"
         x="0">t</tspan></text>
<text
       id="text180"
       style="font-variant:normal;font-weight:normal;font-size:12.00024033px;font-family:'Times New Roman';-inkscape-font-specification:'Times New';writing-mode:lr-tb;fill:#000000;fill-opacity:1;fill-rule:nonzero;stroke:none"
       transform="matrix(1,0,0,-1,73.007,661.48)"><tspan
         id="tspan178"
         y="0"
         x="0">]</tspan></text>
<text
       id="text184"
       style="font-style:italic;font-variant:normal;font-weight:normal;font-size:12.00024033px;font-family:'Times New Roman';-inkscape-font-specification:'Times New Roman, Italic';writing-mode:lr-tb;fill:#000000;fill-opacity:1;fill-rule:nonzero;stroke:none"
       transform="matrix(1,0,0,-1,192.19,670.74)"><tspan
         id="tspan182"
         y="0"
         x="0">x</tspan></text>
<text
       id="text188"
       style="font-variant:normal;font-weight:normal;font-size:12.00024033px;font-family:'Times New Roman';-inkscape-font-specification:'Times New';writing-mode:lr-tb;fill:#000000;fill-opacity:1;fill-rule:nonzero;stroke:none"
       transform="matrix(1,0,0,-1,197.51,670.74)"><tspan
         id="tspan186"
         y="0"
         x="0">[</tspan></text>
<text
       id="text192"
       style="font-variant:normal;font-weight:normal;font-size:12.00024033px;font-family:'Times New Roman';-inkscape-font-specification:'Times New';writing-mode:lr-tb;fill:#000000;fill-opacity:1;fill-rule:nonzero;stroke:none"
       transform="matrix(1,0,0,-1,201.51,670.74)"><tspan
         id="tspan190"
         y="0"
         x="0">t</tspan></text>
<text
       id="text196"
       style="font-variant:normal;font-weight:normal;font-size:12.00024033px;font-family:'Times New Roman';-inkscape-font-specification:'Times New';writing-mode:lr-tb;fill:#000000;fill-opacity:1;fill-rule:nonzero;stroke:none"
       transform="matrix(1,0,0,-1,204.84,670.74)"><tspan
         id="tspan194"
         y="0"
         x="0">-</tspan></text>
<text
       id="text200"
       style="font-variant:normal;font-weight:normal;font-size:12.00024033px;font-family:'Times New Roman';-inkscape-font-specification:'Times New';writing-mode:lr-tb;fill:#000000;fill-opacity:1;fill-rule:nonzero;stroke:none"
       transform="matrix(1,0,0,-1,208.84,670.74)"><tspan
         id="tspan198"
         y="0"
         x="0">1</tspan></text>
<text
       id="text204"
       style="font-variant:normal;font-weight:normal;font-size:12.00024033px;font-family:'Times New Roman';-inkscape-font-specification:'Times New';writing-mode:lr-tb;fill:#000000;fill-opacity:1;fill-rule:nonzero;stroke:none"
       transform="matrix(1,0,0,-1,214.84,670.74)"><tspan
         id="tspan202"
         y="0"
         x="0">]</tspan></text>
<text
       id="text208"
       style="font-style:italic;font-variant:normal;font-weight:normal;font-size:12.00024033px;font-family:'Times New Roman';-inkscape-font-specification:'Times New Roman, Italic';writing-mode:lr-tb;fill:#000000;fill-opacity:1;fill-rule:nonzero;stroke:none"
       transform="matrix(1,0,0,-1,284.31,670.74)"><tspan
         id="tspan206"
         y="0"
         x="0">x</tspan></text>
<text
       id="text212"
       style="font-variant:normal;font-weight:normal;font-size:12.00024033px;font-family:'Times New Roman';-inkscape-font-specification:'Times New';writing-mode:lr-tb;fill:#000000;fill-opacity:1;fill-rule:nonzero;stroke:none"
       transform="matrix(1,0,0,-1,289.64,670.74)"><tspan
         id="tspan210"
         y="0"
         x="0">[</tspan></text>
<text
       id="text216"
       style="font-variant:normal;font-weight:normal;font-size:12.00024033px;font-family:'Times New Roman';-inkscape-font-specification:'Times New';writing-mode:lr-tb;fill:#000000;fill-opacity:1;fill-rule:nonzero;stroke:none"
       transform="matrix(1,0,0,-1,293.64,670.74)"><tspan
         id="tspan214"
         y="0"
         x="0">t</tspan></text>
<text
       id="text220"
       style="font-variant:normal;font-weight:normal;font-size:12.00024033px;font-family:'Times New Roman';-inkscape-font-specification:'Times New';writing-mode:lr-tb;fill:#000000;fill-opacity:1;fill-rule:nonzero;stroke:none"
       transform="matrix(1,0,0,-1,296.97,670.74)"><tspan
         id="tspan218"
         y="0"
         x="0">-</tspan></text>
<text
       id="text224"
       style="font-variant:normal;font-weight:normal;font-size:12.00024033px;font-family:'Times New Roman';-inkscape-font-specification:'Times New';writing-mode:lr-tb;fill:#000000;fill-opacity:1;fill-rule:nonzero;stroke:none"
       transform="matrix(1,0,0,-1,300.97,670.74)"><tspan
         id="tspan222"
         y="0"
         x="0">2</tspan></text>
<text
       id="text228"
       style="font-variant:normal;font-weight:normal;font-size:12.00024033px;font-family:'Times New Roman';-inkscape-font-specification:'Times New';writing-mode:lr-tb;fill:#000000;fill-opacity:1;fill-rule:nonzero;stroke:none"
       transform="matrix(1,0,0,-1,306.97,670.74)"><tspan
         id="tspan226"
         y="0"
         x="0">]</tspan></text>
<text
       id="text232"
       style="font-style:italic;font-variant:normal;font-weight:normal;font-size:12.00024033px;font-family:'Times New Roman';-inkscape-font-specification:'Times New Roman, Italic';writing-mode:lr-tb;fill:#000000;fill-opacity:1;fill-rule:nonzero;stroke:none"
       transform="matrix(1,0,0,-1,470.34,667.9)"><tspan
         id="tspan230"
         y="0"
         x="0">x</tspan></text>
<text
       id="text236"
       style="font-variant:normal;font-weight:normal;font-size:12.00024033px;font-family:'Times New Roman';-inkscape-font-specification:'Times New';writing-mode:lr-tb;fill:#000000;fill-opacity:1;fill-rule:nonzero;stroke:none"
       transform="matrix(1,0,0,-1,475.66,667.9)"><tspan
         id="tspan234"
         y="0"
         x="0">[</tspan></text>
<text
       id="text240"
       style="font-variant:normal;font-weight:normal;font-size:12.00024033px;font-family:'Times New Roman';-inkscape-font-specification:'Times New';writing-mode:lr-tb;fill:#000000;fill-opacity:1;fill-rule:nonzero;stroke:none"
       transform="matrix(1,0,0,-1,479.66,667.9)"><tspan
         id="tspan238"
         y="0"
         x="0">t</tspan></text>
<text
       id="text244"
       style="font-variant:normal;font-weight:normal;font-size:12.00024033px;font-family:'Times New Roman';-inkscape-font-specification:'Times New';writing-mode:lr-tb;fill:#000000;fill-opacity:1;fill-rule:nonzero;stroke:none"
       transform="matrix(1,0,0,-1,482.99,667.9)"><tspan
         id="tspan242"
         y="0"
         x="0">-</tspan></text>
<text
       id="text248"
       style="font-variant:normal;font-weight:normal;font-size:12.00024033px;font-family:'Times New Roman';-inkscape-font-specification:'Times New';writing-mode:lr-tb;fill:#000000;fill-opacity:1;fill-rule:nonzero;stroke:none"
       transform="matrix(1,0,0,-1,486.99,667.9)"><tspan
         id="tspan246"
         y="0"
         x="0">n</tspan></text>
<text
       id="text252"
       style="font-variant:normal;font-weight:normal;font-size:12.00024033px;font-family:'Times New Roman';-inkscape-font-specification:'Times New';writing-mode:lr-tb;fill:#000000;fill-opacity:1;fill-rule:nonzero;stroke:none"
       transform="matrix(1,0,0,-1,492.99,667.9)"><tspan
         id="tspan250"
         y="0"
         x="0">]</tspan></text>
<text
       id="text256"
       style="font-style:italic;font-variant:normal;font-weight:normal;font-size:12.00024033px;font-family:'Times New Roman';-inkscape-font-specification:'Times New Roman, Italic';writing-mode:lr-tb;fill:#000000;fill-opacity:1;fill-rule:nonzero;stroke:none"
       transform="matrix(1,0,0,-1,537.87,554.33)"><tspan
         id="tspan254"
         y="0"
         x="0">y</tspan></text>
<text
       id="text260"
       style="font-variant:normal;font-weight:normal;font-size:12.00024033px;font-family:'Times New Roman';-inkscape-font-specification:'Times New';writing-mode:lr-tb;fill:#000000;fill-opacity:1;fill-rule:nonzero;stroke:none"
       transform="matrix(1,0,0,-1,543.2,554.33)"><tspan
         id="tspan258"
         y="0"
         x="0">[</tspan></text>
<text
       id="text264"
       style="font-variant:normal;font-weight:normal;font-size:12.00024033px;font-family:'Times New Roman';-inkscape-font-specification:'Times New';writing-mode:lr-tb;fill:#000000;fill-opacity:1;fill-rule:nonzero;stroke:none"
       transform="matrix(1,0,0,-1,547.19,554.33)"><tspan
         id="tspan262"
         y="0"
         x="0">t</tspan></text>
<text
       id="text268"
       style="font-variant:normal;font-weight:normal;font-size:12.00024033px;font-family:'Times New Roman';-inkscape-font-specification:'Times New';writing-mode:lr-tb;fill:#000000;fill-opacity:1;fill-rule:nonzero;stroke:none"
       transform="matrix(1,0,0,-1,550.53,554.33)"><tspan
         id="tspan266"
         y="0"
         x="0">]</tspan></text>
<path
       id="path270"
       style="fill:none;stroke:#000000;stroke-width:1.5;stroke-linecap:round;stroke-linejoin:round;stroke-miterlimit:2;stroke-dasharray:none;stroke-opacity:1"
       d="M 485.73,593.83 V 572.71" /><path
       id="path272"
       style="fill:#000000;fill-opacity:1;fill-rule:evenodd;stroke:none"
       d="m 485.73,566.62 -4.02,8.04 c 2.53,-1.26 5.51,-1.26 8.04,0 z" /><path
       id="path274"
       style="fill:none;stroke:#000000;stroke-width:1.5;stroke-linecap:round;stroke-linejoin:round;stroke-miterlimit:2;stroke-dasharray:none;stroke-opacity:1"
       d="M 95.961,606.59 H 76.535" /><path
       id="path276"
       style="fill:#000000;fill-opacity:1;fill-rule:evenodd;stroke:none"
       d="m 102.05,606.59 -8.043,-4.02 c 1.266,2.53 1.266,5.51 0,8.04 v 0 z" /><path
       id="path278"
       style="fill:#ffffff;fill-opacity:1;fill-rule:evenodd;stroke:none"
       d="m 101.76,606.71 c 0,6.49 5.26,11.75 11.75,11.75 6.49,0 11.75,-5.26 11.75,-11.75 0,0 0,0 0,0 0,-6.48 -5.26,-11.74 -11.75,-11.74 -6.49,0 -11.75,5.26 -11.75,11.74 z" /><path
       id="path280"
       style="fill:none;stroke:#000000;stroke-width:2.16000009;stroke-linecap:round;stroke-linejoin:round;stroke-miterlimit:2;stroke-dasharray:none;stroke-opacity:1"
       d="m 101.76,606.71 c 0,6.49 5.26,11.75 11.75,11.75 6.49,0 11.75,-5.26 11.75,-11.75 0,0 0,0 0,0 0,-6.48 -5.26,-11.74 -11.75,-11.74 -6.49,0 -11.75,5.26 -11.75,11.74 z" /><path
       id="path282"
       style="fill:none;stroke:#000000;stroke-width:2.16000009;stroke-linecap:round;stroke-linejoin:round;stroke-miterlimit:2;stroke-dasharray:none;stroke-opacity:1"
       d="m 121.34,598.88 -15.66,15.67" /><path
       id="path284"
       style="fill:none;stroke:#000000;stroke-width:2.16000009;stroke-linecap:round;stroke-linejoin:round;stroke-miterlimit:2;stroke-dasharray:none;stroke-opacity:1"
       d="m 105.68,598.88 15.66,15.67" /><path
       id="path286"
       style="fill:#ffffff;fill-opacity:1;fill-rule:evenodd;stroke:none"
       d="m 194.74,606.71 c 0,6.49 5.26,11.75 11.75,11.75 6.48,0 11.74,-5.26 11.74,-11.75 0,0 0,0 0,0 0,-6.48 -5.26,-11.74 -11.74,-11.74 -6.49,0 -11.75,5.26 -11.75,11.74 z" /><path
       id="path288"
       style="fill:none;stroke:#000000;stroke-width:2.16000009;stroke-linecap:round;stroke-linejoin:round;stroke-miterlimit:2;stroke-dasharray:none;stroke-opacity:1"
       d="m 194.74,606.71 c 0,6.49 5.26,11.75 11.75,11.75 6.48,0 11.74,-5.26 11.74,-11.75 0,0 0,0 0,0 0,-6.48 -5.26,-11.74 -11.74,-11.74 -6.49,0 -11.75,5.26 -11.75,11.74 z" /><path
       id="path290"
       style="fill:none;stroke:#000000;stroke-width:2.16000009;stroke-linecap:round;stroke-linejoin:round;stroke-miterlimit:2;stroke-dasharray:none;stroke-opacity:1"
       d="m 214.32,598.88 -15.66,15.67" /><path
       id="path292"
       style="fill:none;stroke:#000000;stroke-width:2.16000009;stroke-linecap:round;stroke-linejoin:round;stroke-miterlimit:2;stroke-dasharray:none;stroke-opacity:1"
       d="m 198.66,598.88 15.66,15.67" /><text
       id="text296"
       style="font-style:italic;font-variant:normal;font-weight:normal;font-size:12.00024033px;font-family:'Times New Roman';-inkscape-font-specification:'Times New Roman, Italic';writing-mode:lr-tb;fill:#000000;fill-opacity:1;fill-rule:nonzero;stroke:none"
       transform="matrix(1,0,0,-1,149.04,602.78)"><tspan
         id="tspan294"
         y="0"
         x="0">h</tspan></text>
<text
       id="text300"
       style="font-variant:normal;font-weight:normal;font-size:12.00024033px;font-family:'Times New Roman';-inkscape-font-specification:'Times New';writing-mode:lr-tb;fill:#000000;fill-opacity:1;fill-rule:nonzero;stroke:none"
       transform="matrix(1,0,0,-1,155.04,602.78)"><tspan
         id="tspan298"
         y="0"
         x="0">[</tspan></text>
<text
       id="text304"
       style="font-variant:normal;font-weight:normal;font-size:12.00024033px;font-family:'Times New Roman';-inkscape-font-specification:'Times New';writing-mode:lr-tb;fill:#000000;fill-opacity:1;fill-rule:nonzero;stroke:none"
       transform="matrix(1,0,0,-1,159.04,602.78)"><tspan
         id="tspan302"
         y="0"
         x="0">1</tspan></text>
<text
       id="text308"
       style="font-variant:normal;font-weight:normal;font-size:12.00024033px;font-family:'Times New Roman';-inkscape-font-specification:'Times New';writing-mode:lr-tb;fill:#000000;fill-opacity:1;fill-rule:nonzero;stroke:none"
       transform="matrix(1,0,0,-1,165.04,602.78)"><tspan
         id="tspan306"
         y="0"
         x="0">]</tspan></text>
<path
       id="path310"
       style="fill:none;stroke:#000000;stroke-width:1.5;stroke-linecap:round;stroke-linejoin:round;stroke-miterlimit:2;stroke-dasharray:none;stroke-opacity:1"
       d="M 188.37,606.59 H 168.94" /><path
       id="path312"
       style="fill:#000000;fill-opacity:1;fill-rule:evenodd;stroke:none"
       d="m 194.46,606.59 -8.04,-4.02 c 1.26,2.53 1.26,5.51 0,8.04 v 0 z" /><path
       id="path314"
       style="fill:#ffffff;fill-opacity:1;fill-rule:evenodd;stroke:none"
       d="m 287.59,606.75 c 0,6.49 5.26,11.75 11.75,11.75 6.49,0 11.74,-5.26 11.74,-11.75 0,0 0,0 0,0 0,-6.49 -5.25,-11.75 -11.74,-11.75 -6.49,0 -11.75,5.26 -11.75,11.75 z" /><path
       id="path316"
       style="fill:none;stroke:#000000;stroke-width:2.16000009;stroke-linecap:round;stroke-linejoin:round;stroke-miterlimit:2;stroke-dasharray:none;stroke-opacity:1"
       d="m 287.59,606.75 c 0,6.49 5.26,11.75 11.75,11.75 6.49,0 11.74,-5.26 11.74,-11.75 0,0 0,0 0,0 0,-6.49 -5.25,-11.75 -11.74,-11.75 -6.49,0 -11.75,5.26 -11.75,11.75 z" /><path
       id="path318"
       style="fill:none;stroke:#000000;stroke-width:2.16000009;stroke-linecap:round;stroke-linejoin:round;stroke-miterlimit:2;stroke-dasharray:none;stroke-opacity:1"
       d="m 307.17,598.92 -15.66,15.66" /><path
       id="path320"
       style="fill:none;stroke:#000000;stroke-width:2.16000009;stroke-linecap:round;stroke-linejoin:round;stroke-miterlimit:2;stroke-dasharray:none;stroke-opacity:1"
       d="m 291.51,598.92 15.66,15.66" /><text
       id="text324"
       style="font-style:italic;font-variant:normal;font-weight:normal;font-size:12.00024033px;font-family:'Times New Roman';-inkscape-font-specification:'Times New Roman, Italic';writing-mode:lr-tb;fill:#000000;fill-opacity:1;fill-rule:nonzero;stroke:none"
       transform="matrix(1,0,0,-1,241.49,602.82)"><tspan
         id="tspan322"
         y="0"
         x="0">h</tspan></text>
<text
       id="text328"
       style="font-variant:normal;font-weight:normal;font-size:12.00024033px;font-family:'Times New Roman';-inkscape-font-specification:'Times New';writing-mode:lr-tb;fill:#000000;fill-opacity:1;fill-rule:nonzero;stroke:none"
       transform="matrix(1,0,0,-1,247.49,602.82)"><tspan
         id="tspan326"
         y="0"
         x="0">[</tspan></text>
<text
       id="text332"
       style="font-variant:normal;font-weight:normal;font-size:12.00024033px;font-family:'Times New Roman';-inkscape-font-specification:'Times New';writing-mode:lr-tb;fill:#000000;fill-opacity:1;fill-rule:nonzero;stroke:none"
       transform="matrix(1,0,0,-1,251.48,602.82)"><tspan
         id="tspan330"
         y="0"
         x="0">2</tspan></text>
<text
       id="text336"
       style="font-variant:normal;font-weight:normal;font-size:12.00024033px;font-family:'Times New Roman';-inkscape-font-specification:'Times New';writing-mode:lr-tb;fill:#000000;fill-opacity:1;fill-rule:nonzero;stroke:none"
       transform="matrix(1,0,0,-1,257.48,602.82)"><tspan
         id="tspan334"
         y="0"
         x="0">]</tspan></text>
<path
       id="path338"
       style="fill:none;stroke:#000000;stroke-width:1.5;stroke-linecap:round;stroke-linejoin:round;stroke-miterlimit:2;stroke-dasharray:none;stroke-opacity:1"
       d="M 280.82,606.63 H 261.39" /><path
       id="path340"
       style="fill:#000000;fill-opacity:1;fill-rule:evenodd;stroke:none"
       d="m 286.9,606.63 -8.04,-4.02 c 1.27,2.53 1.27,5.51 0,8.04 v 0 z" /><path
       id="path342"
       style="fill:#ffffff;fill-opacity:1;fill-rule:evenodd;stroke:none"
       d="m 474.08,606.75 c 0,6.49 5.26,11.75 11.74,11.75 6.49,0 11.75,-5.26 11.75,-11.75 0,0 0,0 0,0 0,-6.49 -5.26,-11.75 -11.75,-11.75 -6.48,0 -11.74,5.26 -11.74,11.75 z" /><path
       id="path344"
       style="fill:none;stroke:#000000;stroke-width:2.16000009;stroke-linecap:round;stroke-linejoin:round;stroke-miterlimit:2;stroke-dasharray:none;stroke-opacity:1"
       d="m 474.08,606.75 c 0,6.49 5.26,11.75 11.74,11.75 6.49,0 11.75,-5.26 11.75,-11.75 0,0 0,0 0,0 0,-6.49 -5.26,-11.75 -11.75,-11.75 -6.48,0 -11.74,5.26 -11.74,11.75 z" /><path
       id="path346"
       style="fill:none;stroke:#000000;stroke-width:2.16000009;stroke-linecap:round;stroke-linejoin:round;stroke-miterlimit:2;stroke-dasharray:none;stroke-opacity:1"
       d="m 493.65,598.92 -15.66,15.66" /><path
       id="path348"
       style="fill:none;stroke:#000000;stroke-width:2.16000009;stroke-linecap:round;stroke-linejoin:round;stroke-miterlimit:2;stroke-dasharray:none;stroke-opacity:1"
       d="m 477.99,598.92 15.66,15.66" /><text
       id="text352"
       style="font-style:italic;font-variant:normal;font-weight:normal;font-size:12.00024033px;font-family:'Times New Roman';-inkscape-font-specification:'Times New Roman, Italic';writing-mode:lr-tb;fill:#000000;fill-opacity:1;fill-rule:nonzero;stroke:none"
       transform="matrix(1,0,0,-1,416.6,602.82)"><tspan
         id="tspan350"
         y="0"
         x="0">h</tspan></text>
<text
       id="text356"
       style="font-variant:normal;font-weight:normal;font-size:12.00024033px;font-family:'Times New Roman';-inkscape-font-specification:'Times New';writing-mode:lr-tb;fill:#000000;fill-opacity:1;fill-rule:nonzero;stroke:none"
       transform="matrix(1,0,0,-1,422.6,602.82)"><tspan
         id="tspan354"
         y="0"
         x="0">[</tspan></text>
<text
       id="text360"
       style="font-variant:normal;font-weight:normal;font-size:12.00024033px;font-family:'Times New Roman';-inkscape-font-specification:'Times New';writing-mode:lr-tb;fill:#000000;fill-opacity:1;fill-rule:nonzero;stroke:none"
       transform="matrix(1,0,0,-1,426.59,602.82)"><tspan
         id="tspan358"
         y="0"
         x="0">n</tspan></text>
<text
       id="text364"
       style="font-variant:normal;font-weight:normal;font-size:12.00024033px;font-family:'Times New Roman';-inkscape-font-specification:'Times New';writing-mode:lr-tb;fill:#000000;fill-opacity:1;fill-rule:nonzero;stroke:none"
       transform="matrix(1,0,0,-1,432.59,602.82)"><tspan
         id="tspan362"
         y="0"
         x="0">-</tspan></text>
<text
       id="text368"
       style="font-variant:normal;font-weight:normal;font-size:12.00024033px;font-family:'Times New Roman';-inkscape-font-specification:'Times New';writing-mode:lr-tb;fill:#000000;fill-opacity:1;fill-rule:nonzero;stroke:none"
       transform="matrix(1,0,0,-1,436.59,602.82)"><tspan
         id="tspan366"
         y="0"
         x="0">1</tspan></text>
<text
       id="text372"
       style="font-variant:normal;font-weight:normal;font-size:12.00024033px;font-family:'Times New Roman';-inkscape-font-specification:'Times New';writing-mode:lr-tb;fill:#000000;fill-opacity:1;fill-rule:nonzero;stroke:none"
       transform="matrix(1,0,0,-1,442.59,602.82)"><tspan
         id="tspan370"
         y="0"
         x="0">]</tspan></text>
<path
       id="path374"
       style="fill:none;stroke:#000000;stroke-width:1.5;stroke-linecap:round;stroke-linejoin:round;stroke-miterlimit:2;stroke-dasharray:none;stroke-opacity:1"
       d="M 467.3,606.63 H 447.87" /><path
       id="path376"
       style="fill:#000000;fill-opacity:1;fill-rule:evenodd;stroke:none"
       d="m 473.39,606.63 -8.04,-4.02 c 1.26,2.53 1.26,5.51 0,8.04 v 0 z" /></g></svg>