<?xml version="1.0" encoding="UTF-8" standalone="no"?>
<svg
   xmlns:dc="http://purl.org/dc/elements/1.1/"
   xmlns:cc="http://creativecommons.org/ns#"
   xmlns:rdf="http://www.w3.org/1999/02/22-rdf-syntax-ns#"
   xmlns:svg="http://www.w3.org/2000/svg"
   xmlns="http://www.w3.org/2000/svg"
   viewBox="0 0 491.06934 392.064"
   height="392.064"
   width="491.06934"
   xml:space="preserve"
   id="svg2"
   version="1.1"><metadata
     id="metadata8"><rdf:RDF><cc:Work
         rdf:about=""><dc:format>image/svg+xml</dc:format><dc:type
           rdf:resource="http://purl.org/dc/dcmitype/StillImage" /></cc:Work></rdf:RDF></metadata><defs
     id="defs6"><clipPath
       id="clipPath14"
       clipPathUnits="userSpaceOnUse"><path
         id="path12"
         d="M 0,0 H 595 V 842 H 0 Z" /></clipPath><clipPath
       id="clipPath24"
       clipPathUnits="userSpaceOnUse"><path
         id="path22"
         d="M 870,5775.01 V 2625 h 4200.01 v 3150.01 z" /></clipPath><clipPath
       id="clipPath224"
       clipPathUnits="userSpaceOnUse"><path
         id="path222"
         d="M 1417.5,5535.01 V 2962.5 h 3262.51 v 2572.51 z" /></clipPath><clipPath
       id="clipPath252"
       clipPathUnits="userSpaceOnUse"><path
         id="path250"
         d="M 870,5775.01 V 2625 h 4200.01 v 3150.01 z" /></clipPath></defs><g
     clip-path="url(#clipPath14)"
     transform="matrix(1.3333333,0,0,-1.3333333,-140.928,749.07333)"
     id="g10"><g
       transform="scale(0.1)"
       id="g16"><g
         id="g18"><g
           clip-path="url(#clipPath24)"
           id="g20"><path
             id="path26"
             style="fill:none;stroke:#ffffff;stroke-width:5.00001001;stroke-linecap:butt;stroke-linejoin:round;stroke-miterlimit:10;stroke-dasharray:none;stroke-opacity:1"
             d="M 1417.5,2970 V 5535.01 H 4672.51 V 2970 H 1417.5" /><path
             id="path28"
             style="fill:none;stroke:#000000;stroke-width:5.00001001;stroke-linecap:butt;stroke-linejoin:round;stroke-miterlimit:10;stroke-dasharray:none;stroke-opacity:1"
             d="M 1417.5,5535.01 H 4672.51" /><path
             id="path30"
             style="fill:none;stroke:#000000;stroke-width:5.00001001;stroke-linecap:butt;stroke-linejoin:round;stroke-miterlimit:10;stroke-dasharray:none;stroke-opacity:1"
             d="M 1417.5,2970 H 4672.51" /><path
             id="path32"
             style="fill:none;stroke:#000000;stroke-width:5.00001001;stroke-linecap:butt;stroke-linejoin:round;stroke-miterlimit:10;stroke-dasharray:none;stroke-opacity:1"
             d="M 4672.51,2970 V 5535.01" /><path
             id="path34"
             style="fill:none;stroke:#000000;stroke-width:5.00001001;stroke-linecap:butt;stroke-linejoin:round;stroke-miterlimit:10;stroke-dasharray:none;stroke-opacity:1"
             d="M 1417.5,2970 V 5535.01" /><path
             id="path36"
             style="fill:none;stroke:#000000;stroke-width:5.00001001;stroke-linecap:butt;stroke-linejoin:round;stroke-miterlimit:10;stroke-dasharray:none;stroke-opacity:1"
             d="M 1417.5,2970 H 4672.51" /><path
             id="path38"
             style="fill:none;stroke:#000000;stroke-width:5.00001001;stroke-linecap:butt;stroke-linejoin:round;stroke-miterlimit:10;stroke-dasharray:none;stroke-opacity:1"
             d="M 1417.5,2970 V 5535.01" /><path
             id="path40"
             style="fill:none;stroke:#000000;stroke-width:5.00001001;stroke-linecap:butt;stroke-linejoin:round;stroke-miterlimit:10;stroke-dasharray:none;stroke-opacity:1"
             d="m 1417.5,2970 v 37.5" /><path
             id="path42"
             style="fill:none;stroke:#000000;stroke-width:5.00001001;stroke-linecap:butt;stroke-linejoin:round;stroke-miterlimit:10;stroke-dasharray:none;stroke-opacity:1"
             d="m 1417.5,5535.01 v -30" /><g
             transform="scale(10)"
             id="g44"><text
               id="text48"
               style="font-variant:normal;font-weight:normal;font-size:10px;font-family:Helvetica;-inkscape-font-specification:Helvetica;writing-mode:lr-tb;fill:#000000;fill-opacity:1;fill-rule:nonzero;stroke:none"
               transform="matrix(1,0,0,-1,139.5,285)"><tspan
                 id="tspan46"
                 y="0"
                 x="0">0</tspan></text>
</g><path
             id="path50"
             style="fill:none;stroke:#000000;stroke-width:5.00001001;stroke-linecap:butt;stroke-linejoin:round;stroke-miterlimit:10;stroke-dasharray:none;stroke-opacity:1"
             d="m 1935,2970 v 37.5" /><path
             id="path52"
             style="fill:none;stroke:#000000;stroke-width:5.00001001;stroke-linecap:butt;stroke-linejoin:round;stroke-miterlimit:10;stroke-dasharray:none;stroke-opacity:1"
             d="m 1935,5535.01 v -30" /><g
             transform="scale(10)"
             id="g54"><text
               id="text58"
               style="font-variant:normal;font-weight:normal;font-size:10px;font-family:Helvetica;-inkscape-font-specification:Helvetica;writing-mode:lr-tb;fill:#000000;fill-opacity:1;fill-rule:nonzero;stroke:none"
               transform="matrix(1,0,0,-1,186.75,285)"><tspan
                 id="tspan56"
                 y="0"
                 x="0 5.5599999 8.3400002">0.5</tspan></text>
</g><path
             id="path60"
             style="fill:none;stroke:#000000;stroke-width:5.00001001;stroke-linecap:butt;stroke-linejoin:round;stroke-miterlimit:10;stroke-dasharray:none;stroke-opacity:1"
             d="m 2452.5,2970 v 37.5" /><path
             id="path62"
             style="fill:none;stroke:#000000;stroke-width:5.00001001;stroke-linecap:butt;stroke-linejoin:round;stroke-miterlimit:10;stroke-dasharray:none;stroke-opacity:1"
             d="m 2452.5,5535.01 v -30" /><g
             transform="scale(10)"
             id="g64"><text
               id="text68"
               style="font-variant:normal;font-weight:normal;font-size:10px;font-family:Helvetica;-inkscape-font-specification:Helvetica;writing-mode:lr-tb;fill:#000000;fill-opacity:1;fill-rule:nonzero;stroke:none"
               transform="matrix(1,0,0,-1,243,285)"><tspan
                 id="tspan66"
                 y="0"
                 x="0">1</tspan></text>
</g><path
             id="path70"
             style="fill:none;stroke:#000000;stroke-width:5.00001001;stroke-linecap:butt;stroke-linejoin:round;stroke-miterlimit:10;stroke-dasharray:none;stroke-opacity:1"
             d="m 2970,2970 v 37.5" /><path
             id="path72"
             style="fill:none;stroke:#000000;stroke-width:5.00001001;stroke-linecap:butt;stroke-linejoin:round;stroke-miterlimit:10;stroke-dasharray:none;stroke-opacity:1"
             d="m 2970,5535.01 v -30" /><g
             transform="scale(10)"
             id="g74"><text
               id="text78"
               style="font-variant:normal;font-weight:normal;font-size:10px;font-family:Helvetica;-inkscape-font-specification:Helvetica;writing-mode:lr-tb;fill:#000000;fill-opacity:1;fill-rule:nonzero;stroke:none"
               transform="matrix(1,0,0,-1,290.25,285)"><tspan
                 id="tspan76"
                 y="0"
                 x="0 5.5599999 8.3400002">1.5</tspan></text>
</g><path
             id="path80"
             style="fill:none;stroke:#000000;stroke-width:5.00001001;stroke-linecap:butt;stroke-linejoin:round;stroke-miterlimit:10;stroke-dasharray:none;stroke-opacity:1"
             d="m 3487.51,2970 v 37.5" /><path
             id="path82"
             style="fill:none;stroke:#000000;stroke-width:5.00001001;stroke-linecap:butt;stroke-linejoin:round;stroke-miterlimit:10;stroke-dasharray:none;stroke-opacity:1"
             d="m 3487.51,5535.01 v -30" /><g
             transform="scale(10)"
             id="g84"><text
               id="text88"
               style="font-variant:normal;font-weight:normal;font-size:10px;font-family:Helvetica;-inkscape-font-specification:Helvetica;writing-mode:lr-tb;fill:#000000;fill-opacity:1;fill-rule:nonzero;stroke:none"
               transform="matrix(1,0,0,-1,346.501,285)"><tspan
                 id="tspan86"
                 y="0"
                 x="0">2</tspan></text>
</g><path
             id="path90"
             style="fill:none;stroke:#000000;stroke-width:5.00001001;stroke-linecap:butt;stroke-linejoin:round;stroke-miterlimit:10;stroke-dasharray:none;stroke-opacity:1"
             d="m 4005.01,2970 v 37.5" /><path
             id="path92"
             style="fill:none;stroke:#000000;stroke-width:5.00001001;stroke-linecap:butt;stroke-linejoin:round;stroke-miterlimit:10;stroke-dasharray:none;stroke-opacity:1"
             d="m 4005.01,5535.01 v -30" /><g
             transform="scale(10)"
             id="g94"><text
               id="text98"
               style="font-variant:normal;font-weight:normal;font-size:10px;font-family:Helvetica;-inkscape-font-specification:Helvetica;writing-mode:lr-tb;fill:#000000;fill-opacity:1;fill-rule:nonzero;stroke:none"
               transform="matrix(1,0,0,-1,393.751,285)"><tspan
                 id="tspan96"
                 y="0"
                 x="0 5.5599999 8.3400002">2.5</tspan></text>
</g><path
             id="path100"
             style="fill:none;stroke:#000000;stroke-width:5.00001001;stroke-linecap:butt;stroke-linejoin:round;stroke-miterlimit:10;stroke-dasharray:none;stroke-opacity:1"
             d="m 4522.51,2970 v 37.5" /><path
             id="path102"
             style="fill:none;stroke:#000000;stroke-width:5.00001001;stroke-linecap:butt;stroke-linejoin:round;stroke-miterlimit:10;stroke-dasharray:none;stroke-opacity:1"
             d="m 4522.51,5535.01 v -30" /><g
             transform="scale(10)"
             id="g104"><text
               id="text108"
               style="font-variant:normal;font-weight:normal;font-size:10px;font-family:Helvetica;-inkscape-font-specification:Helvetica;writing-mode:lr-tb;fill:#000000;fill-opacity:1;fill-rule:nonzero;stroke:none"
               transform="matrix(1,0,0,-1,450.001,285)"><tspan
                 id="tspan106"
                 y="0"
                 x="0">3</tspan></text>
</g><path
             id="path110"
             style="fill:none;stroke:#000000;stroke-width:5.00001001;stroke-linecap:butt;stroke-linejoin:round;stroke-miterlimit:10;stroke-dasharray:none;stroke-opacity:1"
             d="m 1417.5,2970 h 30" /><path
             id="path112"
             style="fill:none;stroke:#000000;stroke-width:5.00001001;stroke-linecap:butt;stroke-linejoin:round;stroke-miterlimit:10;stroke-dasharray:none;stroke-opacity:1"
             d="m 4672.51,2970 h -37.5" /><g
             transform="scale(10)"
             id="g114"><text
               id="text118"
               style="font-variant:normal;font-weight:normal;font-size:10px;font-family:Helvetica;-inkscape-font-specification:Helvetica;writing-mode:lr-tb;fill:#000000;fill-opacity:1;fill-rule:nonzero;stroke:none"
               transform="matrix(1,0,0,-1,125.25,293.25)"><tspan
                 id="tspan116"
                 y="0"
                 x="0 5.8400002 11.4">−40</tspan></text>
</g><path
             id="path120"
             style="fill:none;stroke:#000000;stroke-width:5.00001001;stroke-linecap:butt;stroke-linejoin:round;stroke-miterlimit:10;stroke-dasharray:none;stroke-opacity:1"
             d="m 1417.5,3255 h 30" /><path
             id="path122"
             style="fill:none;stroke:#000000;stroke-width:5.00001001;stroke-linecap:butt;stroke-linejoin:round;stroke-miterlimit:10;stroke-dasharray:none;stroke-opacity:1"
             d="m 4672.51,3255 h -37.5" /><g
             transform="scale(10)"
             id="g124"><text
               id="text128"
               style="font-variant:normal;font-weight:normal;font-size:10px;font-family:Helvetica;-inkscape-font-specification:Helvetica;writing-mode:lr-tb;fill:#000000;fill-opacity:1;fill-rule:nonzero;stroke:none"
               transform="matrix(1,0,0,-1,125.25,321.75)"><tspan
                 id="tspan126"
                 y="0"
                 x="0 5.8400002 11.4">−35</tspan></text>
</g><path
             id="path130"
             style="fill:none;stroke:#000000;stroke-width:5.00001001;stroke-linecap:butt;stroke-linejoin:round;stroke-miterlimit:10;stroke-dasharray:none;stroke-opacity:1"
             d="m 1417.5,3540.01 h 30" /><path
             id="path132"
             style="fill:none;stroke:#000000;stroke-width:5.00001001;stroke-linecap:butt;stroke-linejoin:round;stroke-miterlimit:10;stroke-dasharray:none;stroke-opacity:1"
             d="m 4672.51,3540.01 h -37.5" /><g
             transform="scale(10)"
             id="g134"><text
               id="text138"
               style="font-variant:normal;font-weight:normal;font-size:10px;font-family:Helvetica;-inkscape-font-specification:Helvetica;writing-mode:lr-tb;fill:#000000;fill-opacity:1;fill-rule:nonzero;stroke:none"
               transform="matrix(1,0,0,-1,125.25,350.251)"><tspan
                 id="tspan136"
                 y="0"
                 x="0 5.8400002 11.4">−30</tspan></text>
</g><path
             id="path140"
             style="fill:none;stroke:#000000;stroke-width:5.00001001;stroke-linecap:butt;stroke-linejoin:round;stroke-miterlimit:10;stroke-dasharray:none;stroke-opacity:1"
             d="m 1417.5,3825.01 h 30" /><path
             id="path142"
             style="fill:none;stroke:#000000;stroke-width:5.00001001;stroke-linecap:butt;stroke-linejoin:round;stroke-miterlimit:10;stroke-dasharray:none;stroke-opacity:1"
             d="m 4672.51,3825.01 h -37.5" /><g
             transform="scale(10)"
             id="g144"><text
               id="text148"
               style="font-variant:normal;font-weight:normal;font-size:10px;font-family:Helvetica;-inkscape-font-specification:Helvetica;writing-mode:lr-tb;fill:#000000;fill-opacity:1;fill-rule:nonzero;stroke:none"
               transform="matrix(1,0,0,-1,125.25,378.751)"><tspan
                 id="tspan146"
                 y="0"
                 x="0 5.8400002 11.4">−25</tspan></text>
</g><path
             id="path150"
             style="fill:none;stroke:#000000;stroke-width:5.00001001;stroke-linecap:butt;stroke-linejoin:round;stroke-miterlimit:10;stroke-dasharray:none;stroke-opacity:1"
             d="m 1417.5,4110.01 h 30" /><path
             id="path152"
             style="fill:none;stroke:#000000;stroke-width:5.00001001;stroke-linecap:butt;stroke-linejoin:round;stroke-miterlimit:10;stroke-dasharray:none;stroke-opacity:1"
             d="m 4672.51,4110.01 h -37.5" /><g
             transform="scale(10)"
             id="g154"><text
               id="text158"
               style="font-variant:normal;font-weight:normal;font-size:10px;font-family:Helvetica;-inkscape-font-specification:Helvetica;writing-mode:lr-tb;fill:#000000;fill-opacity:1;fill-rule:nonzero;stroke:none"
               transform="matrix(1,0,0,-1,125.25,407.251)"><tspan
                 id="tspan156"
                 y="0"
                 x="0 5.8400002 11.4">−20</tspan></text>
</g><path
             id="path160"
             style="fill:none;stroke:#000000;stroke-width:5.00001001;stroke-linecap:butt;stroke-linejoin:round;stroke-miterlimit:10;stroke-dasharray:none;stroke-opacity:1"
             d="m 1417.5,4395.01 h 30" /><path
             id="path162"
             style="fill:none;stroke:#000000;stroke-width:5.00001001;stroke-linecap:butt;stroke-linejoin:round;stroke-miterlimit:10;stroke-dasharray:none;stroke-opacity:1"
             d="m 4672.51,4395.01 h -37.5" /><g
             transform="scale(10)"
             id="g164"><text
               id="text168"
               style="font-variant:normal;font-weight:normal;font-size:10px;font-family:Helvetica;-inkscape-font-specification:Helvetica;writing-mode:lr-tb;fill:#000000;fill-opacity:1;fill-rule:nonzero;stroke:none"
               transform="matrix(1,0,0,-1,125.25,435.751)"><tspan
                 id="tspan166"
                 y="0"
                 x="0 5.8400002 11.4">−15</tspan></text>
</g><path
             id="path170"
             style="fill:none;stroke:#000000;stroke-width:5.00001001;stroke-linecap:butt;stroke-linejoin:round;stroke-miterlimit:10;stroke-dasharray:none;stroke-opacity:1"
             d="m 1417.5,4680.01 h 30" /><path
             id="path172"
             style="fill:none;stroke:#000000;stroke-width:5.00001001;stroke-linecap:butt;stroke-linejoin:round;stroke-miterlimit:10;stroke-dasharray:none;stroke-opacity:1"
             d="m 4672.51,4680.01 h -37.5" /><g
             transform="scale(10)"
             id="g174"><text
               id="text178"
               style="font-variant:normal;font-weight:normal;font-size:10px;font-family:Helvetica;-inkscape-font-specification:Helvetica;writing-mode:lr-tb;fill:#000000;fill-opacity:1;fill-rule:nonzero;stroke:none"
               transform="matrix(1,0,0,-1,125.25,464.251)"><tspan
                 id="tspan176"
                 y="0"
                 x="0 5.8400002 11.4">−10</tspan></text>
</g><path
             id="path180"
             style="fill:none;stroke:#000000;stroke-width:5.00001001;stroke-linecap:butt;stroke-linejoin:round;stroke-miterlimit:10;stroke-dasharray:none;stroke-opacity:1"
             d="m 1417.5,4965.01 h 30" /><path
             id="path182"
             style="fill:none;stroke:#000000;stroke-width:5.00001001;stroke-linecap:butt;stroke-linejoin:round;stroke-miterlimit:10;stroke-dasharray:none;stroke-opacity:1"
             d="m 4672.51,4965.01 h -37.5" /><g
             transform="scale(10)"
             id="g184"><text
               id="text188"
               style="font-variant:normal;font-weight:normal;font-size:10px;font-family:Helvetica;-inkscape-font-specification:Helvetica;writing-mode:lr-tb;fill:#000000;fill-opacity:1;fill-rule:nonzero;stroke:none"
               transform="matrix(1,0,0,-1,130.5,492.751)"><tspan
                 id="tspan186"
                 y="0"
                 x="0 5.8400002">−5</tspan></text>
</g><path
             id="path190"
             style="fill:none;stroke:#000000;stroke-width:5.00001001;stroke-linecap:butt;stroke-linejoin:round;stroke-miterlimit:10;stroke-dasharray:none;stroke-opacity:1"
             d="m 1417.5,5250.01 h 30" /><path
             id="path192"
             style="fill:none;stroke:#000000;stroke-width:5.00001001;stroke-linecap:butt;stroke-linejoin:round;stroke-miterlimit:10;stroke-dasharray:none;stroke-opacity:1"
             d="m 4672.51,5250.01 h -37.5" /><g
             transform="scale(10)"
             id="g194"><text
               id="text198"
               style="font-variant:normal;font-weight:normal;font-size:10px;font-family:Helvetica;-inkscape-font-specification:Helvetica;writing-mode:lr-tb;fill:#000000;fill-opacity:1;fill-rule:nonzero;stroke:none"
               transform="matrix(1,0,0,-1,133.5,521.251)"><tspan
                 id="tspan196"
                 y="0"
                 x="0">0</tspan></text>
</g><path
             id="path200"
             style="fill:none;stroke:#000000;stroke-width:5.00001001;stroke-linecap:butt;stroke-linejoin:round;stroke-miterlimit:10;stroke-dasharray:none;stroke-opacity:1"
             d="m 1417.5,5535.01 h 30" /><path
             id="path202"
             style="fill:none;stroke:#000000;stroke-width:5.00001001;stroke-linecap:butt;stroke-linejoin:round;stroke-miterlimit:10;stroke-dasharray:none;stroke-opacity:1"
             d="m 4672.51,5535.01 h -37.5" /><g
             transform="scale(10)"
             id="g204"><text
               id="text208"
               style="font-variant:normal;font-weight:normal;font-size:10px;font-family:Helvetica;-inkscape-font-specification:Helvetica;writing-mode:lr-tb;fill:#000000;fill-opacity:1;fill-rule:nonzero;stroke:none"
               transform="matrix(1,0,0,-1,133.5,549.751)"><tspan
                 id="tspan206"
                 y="0"
                 x="0">5</tspan></text>
</g><path
             id="path210"
             style="fill:none;stroke:#000000;stroke-width:5.00001001;stroke-linecap:butt;stroke-linejoin:round;stroke-miterlimit:10;stroke-dasharray:none;stroke-opacity:1"
             d="M 1417.5,5535.01 H 4672.51" /><path
             id="path212"
             style="fill:none;stroke:#000000;stroke-width:5.00001001;stroke-linecap:butt;stroke-linejoin:round;stroke-miterlimit:10;stroke-dasharray:none;stroke-opacity:1"
             d="M 1417.5,2970 H 4672.51" /><path
             id="path214"
             style="fill:none;stroke:#000000;stroke-width:5.00001001;stroke-linecap:butt;stroke-linejoin:round;stroke-miterlimit:10;stroke-dasharray:none;stroke-opacity:1"
             d="M 4672.51,2970 V 5535.01" /><path
             id="path216"
             style="fill:none;stroke:#000000;stroke-width:5.00001001;stroke-linecap:butt;stroke-linejoin:round;stroke-miterlimit:10;stroke-dasharray:none;stroke-opacity:1"
             d="M 1417.5,2970 V 5535.01" /></g></g><g
         id="g218"><g
           clip-path="url(#clipPath224)"
           id="g220"><path
             id="path226"
             style="fill:none;stroke:#0000ff;stroke-width:5.00001001;stroke-linecap:butt;stroke-linejoin:round;stroke-miterlimit:10;stroke-dasharray:none;stroke-opacity:1"
             d="m 1522.5,5257.51 h 75 l 7.5,-7.5 h 97.5 l 7.5,7.5 h 75 l 7.5,-7.5 h 7.5 l 7.5,-7.5 h 7.5 l 7.5,-7.5 7.5,-7.5 7.5,-7.5 7.5,-7.5 v -7.5 l 7.5,-15 7.5,-7.5 7.5,-15 7.5,-15 7.5,-15 7.5,-15 7.5,-15 7.5,-22.5 7.5,-15 7.5,-22.5 v -22.5 l 7.5,-30 7.5,-22.5 7.5,-30 7.5,-30 7.5,-37.5 7.5,-30 7.5,-37.5 7.5,-37.5 7.5,-45 7.5,-45 v -52.5 l 7.5,-52.5 7.5,-60 7.5,-60 7.5,-67.5 7.5,-75 7.5,-82.5 7.5,-97.5 7.5,-105 7.5,-127.5 v -150 l 7.5,-187.5 7.5,-255.01 7.5,-277.5 7.5,82.5 7.5,225 7.5,150.01 7.5,105 7.5,67.5 7.5,52.5 7.5,30 v 15 l 7.5,7.5 7.5,-7.5 7.5,-15 7.5,-22.5 7.5,-37.5 7.5,-45 7.5,-60 7.5,-67.5 7.5,-97.5 7.5,-120.01 v -150 l 7.5,-180" /><path
             id="path228"
             style="fill:none;stroke:#0000ff;stroke-width:5.00001001;stroke-linecap:butt;stroke-linejoin:round;stroke-miterlimit:10;stroke-dasharray:none;stroke-opacity:1"
             d="m 1417.5,5250.01 h 45 l 7.5,7.5 h 52.5" /><path
             id="path230"
             style="fill:none;stroke:#0000ff;stroke-width:5.00001001;stroke-linecap:butt;stroke-linejoin:round;stroke-miterlimit:10;stroke-dasharray:none;stroke-opacity:1"
             d="m 2235,2962.5 7.5,142.5 7.5,157.5 7.5,112.5 7.5,90.01 7.5,75 7.5,52.5 v 45 l 7.5,37.5 7.5,22.5 7.5,22.5 7.5,7.5 7.5,7.5 h 7.5 l 7.5,-7.5 7.5,-15 7.5,-22.5 7.5,-22.5 v -37.5 l 7.5,-45 7.5,-45 7.5,-67.5 7.5,-75.01 7.5,-90 7.5,-105 7.5,-120 7.5,-105 v -15" /><path
             id="path232"
             style="fill:none;stroke:#0000ff;stroke-width:5.00001001;stroke-linecap:butt;stroke-linejoin:round;stroke-miterlimit:10;stroke-dasharray:none;stroke-opacity:1"
             d="m 3562.51,3547.51 7.5,-7.5 h 7.5 l 7.5,-7.5 h 15 l 7.5,7.5 7.5,7.5 7.5,7.5 7.5,15 7.5,15 7.5,15 7.5,15 v 22.5 l 7.5,15 7.5,15 7.5,22.5 7.5,7.5 7.5,15 7.5,7.5 7.5,7.5 7.5,7.5 7.5,7.5 7.5,-7.5 h 7.5 l 7.5,-7.5 7.5,-15 7.5,-7.5 7.5,-15 7.5,-22.5 7.5,-15 7.5,-22.5 7.5,-22.5 7.5,-22.5 v -22.5 l 7.5,-22.5 7.5,-15 7.5,-7.5 7.5,-7.5 7.5,7.5 7.5,7.5 7.5,15 7.5,22.5 7.5,22.5 v 22.5 l 7.5,15 7.5,22.5 7.5,22.5 7.5,15 7.5,15 7.5,15 7.5,7.5 7.5,7.5 h 22.5 l 7.5,-7.5 7.5,-15 7.5,-7.5 7.5,-15 7.5,-15 7.5,-15 7.5,-22.5 7.5,-15 7.5,-15 v -7.5 l 7.5,-15 h 15 l 7.5,7.5 7.5,15 7.5,15 7.5,15 7.5,15 7.5,22.5 v 15 l 7.5,15 7.5,15 7.5,15 7.5,7.5 7.5,7.5 h 22.5 l 7.5,-7.5 7.5,-15 v -7.5 l 7.5,-22.5 7.5,-22.5 7.5,-30 7.5,-37.5 7.5,-37.5 7.5,-52.5 7.5,-52.5 7.5,-67.51 7.5,-82.5 7.5,-97.5 v -112.5 l 7.5,-120 v -15" /><path
             id="path234"
             style="fill:none;stroke:#0000ff;stroke-width:5.00001001;stroke-linecap:butt;stroke-linejoin:round;stroke-miterlimit:10;stroke-dasharray:none;stroke-opacity:1"
             d="m 2887.5,3637.51 7.5,22.5 7.5,15 7.5,7.5 7.5,7.5 h 7.5 l 7.5,-7.5 v -7.5 l 7.5,-7.5 7.5,-22.5 7.5,-15 7.5,-30 7.5,-30 7.5,-37.5 7.5,-37.5 7.5,-37.5 7.5,-37.5 7.5,-30.01 v -30 l 7.5,-7.5 7.5,7.5 7.5,22.5 7.5,37.51 7.5,45 7.5,37.5 7.5,45 7.5,37.5 7.5,37.5 v 30 l 7.5,22.5 7.5,22.5 7.5,22.5 7.5,15 7.5,7.5 7.5,7.5 7.5,7.5 h 7.5 l 7.5,-7.5 h 7.5 v -15 l 7.5,-7.5 7.5,-15 7.5,-22.5 7.5,-22.5 7.5,-22.5 7.5,-22.5 7.5,-22.5 7.5,-22.5 7.5,-22.5 7.5,-15 v -15 h 15.01 l 7.5,15 7.5,15 7.5,15 7.5,22.5 7.5,22.5 7.5,22.5 7.5,22.5 v 22.5 l 7.5,15 7.5,15 7.5,7.5 7.5,7.5 7.5,7.5 h 22.5 l 7.5,-7.5 7.5,-7.5 v -15 l 7.5,-15 7.5,-15 7.5,-22.5 7.5,-15 7.5,-30 7.5,-22.5 7.5,-22.5 7.5,-22.5 7.5,-22.5 7.5,-22.5 v -15 l 7.5,-7.5 7.5,-7.5 h 15 l 7.5,7.5 7.5,15 7.5,7.5 7.5,15 7.5,7.5 v 15 l 7.5,7.5 7.5,7.5 h 37.5" /><path
             id="path236"
             style="fill:none;stroke:#0000ff;stroke-width:5.00001001;stroke-linecap:butt;stroke-linejoin:round;stroke-miterlimit:10;stroke-dasharray:none;stroke-opacity:1"
             d="m 2422.5,2962.5 7.5,82.5 v 112.5 l 7.5,112.5 7.5,90 7.5,75.01 7.5,60 7.5,52.5 7.5,45 7.5,30 7.5,30 7.5,15 v 15 l 7.5,7.5 7.5,7.5 7.5,-7.5 7.5,-7.5 7.5,-7.5 7.5,-22.5 7.5,-22.5 7.5,-22.5 7.5,-30 7.5,-37.5 v -37.5 l 7.5,-45 7.5,-30 7.5,-30.01 7.5,-22.5 h 7.5 l 7.5,22.5 7.5,30.01 7.5,37.5 7.5,45 v 45 l 7.5,37.5 7.5,37.5 7.5,30 7.5,30 7.5,22.5 7.5,15 7.5,15 7.5,7.5 7.5,7.5 h 7.5 l 7.5,-7.5 7.5,-7.5 7.5,-15 7.5,-22.5 7.5,-22.5 7.5,-30 7.5,-37.5 7.5,-37.5 7.5,-45 7.5,-52.5 v -52.5 l 7.5,-52.51 7.5,-52.5 7.5,-30 7.5,-15 7.5,7.5 7.5,37.5 7.5,45 7.5,52.51 7.5,45 v 45 l 7.5,45 7.5,30 7.5,30 7.5,22.5" /><path
             id="path238"
             style="fill:none;stroke:#0000ff;stroke-width:5.00001001;stroke-linecap:butt;stroke-linejoin:round;stroke-miterlimit:10;stroke-dasharray:none;stroke-opacity:1"
             d="m 4260.01,2962.5 7.5,82.5 7.5,120 7.5,105 7.5,82.5 7.5,75.01 7.5,67.5 v 52.5 l 7.5,45 7.5,37.5 7.5,30 7.5,30 7.5,22.5 7.5,15 7.5,15 7.5,7.5 7.5,7.5 7.5,7.5 7.5,-7.5 h 7.5 l 7.5,-7.5 7.5,-7.5 7.5,-7.5 7.5,-15 7.5,-7.5 7.5,-15 7.5,-7.5 15,-22.5 h -7.5 7.5 l 7.5,-7.5 h 15 l 7.5,7.5 h 7.5 l 7.5,7.5 7.5,7.5 7.5,7.5 v 7.5 l 7.5,7.5 h 7.5 l 7.5,7.5 h 15 l 7.5,-7.5 7.5,-7.5 7.5,-7.5 7.5,-15 7.5,-15 v -15 l 7.5,-22.5 7.5,-22.5 7.5,-22.5 7.5,-30 7.5,-22.5 7.5,-30 7.5,-22.5 7.5,-22.5 7.5,-7.5 7.5,-7.5" /><path
             id="path240"
             style="fill:none;stroke:#ff0000;stroke-width:5.00001001;stroke-linecap:butt;stroke-linejoin:round;stroke-miterlimit:10;stroke-dasharray:60;stroke-dashoffset:0;stroke-opacity:1"
             d="m 1417.5,5257.51 h 390" /><path
             id="path242"
             style="fill:none;stroke:#ff0000;stroke-width:5.00001001;stroke-linecap:butt;stroke-linejoin:round;stroke-miterlimit:10;stroke-dasharray:60;stroke-dashoffset:0;stroke-opacity:1"
             d="m 1417.5,5250.01 h 390" /><path
             id="path244"
             style="fill:none;stroke:#ff0000;stroke-width:5.00001001;stroke-linecap:butt;stroke-linejoin:round;stroke-miterlimit:10;stroke-dasharray:60;stroke-dashoffset:0;stroke-opacity:1"
             d="M 2062.5,3772.51 H 4672.51" /></g></g><g
         id="g246"><g
           clip-path="url(#clipPath252)"
           id="g248"><g
             transform="scale(10)"
             id="g254"><text
               id="text258"
               style="font-variant:normal;font-weight:normal;font-size:10px;font-family:Helvetica;-inkscape-font-specification:Helvetica;writing-mode:lr-tb;fill:#000000;fill-opacity:1;fill-rule:nonzero;stroke:none"
               transform="matrix(1,0,0,-1,300,273)"><tspan
                 id="tspan256"
                 y="0"
                 x="0">w</tspan></text>
<text
               id="text262"
               style="font-variant:normal;font-weight:normal;font-size:10px;font-family:Helvetica;-inkscape-font-specification:Helvetica;writing-mode:lr-tb;fill:#000000;fill-opacity:1;fill-rule:nonzero;stroke:none"
               transform="matrix(0,1,1,0,117.75,390.001)"><tspan
                 id="tspan260"
                 y="0"
                 x="0 8.3299999 13.89 19.450001 22.23 29.450001 32.779999 40 43.330002 46.110001 48.330002 53.889999 56.669998 62.23">mag H(w) in dB</tspan></text>
</g></g></g></g></g></svg>