<svg width="560" height="376" style="width:560px;height:376px" xmlns="http://www.w3.org/2000/svg" viewBox="0 0 560 376"><path d="M0 0h560v376H0z" fill="#fff"/><g fill="none"><text paint-order="stroke" style="stroke-linecap:butt;stroke-linejoin:miter" alignment-baseline="auto" text-anchor="left" x="24" y="42" font-size="18" font-family="PingFang SC" fill="#000">雷达图</text><text paint-order="stroke" style="stroke-linecap:butt;stroke-linejoin:miter" alignment-baseline="auto" text-anchor="left" x="24" y="64.5" font-size="12" font-family="PingFang SC" fill="gray">一个简单的雷达图</text><path d="M0 89h560v287H0z"/><path d="M321.75 226.5V101m0 125.5 29.84-9.695 29.839-9.696 29.84-9.695 29.839-9.696M321.75 226.5l18.442 25.383 18.442 25.383 18.441 25.383 18.442 25.383M321.75 226.5l-18.442 25.383-18.442 25.383-18.441 25.383-18.442 25.383M321.75 226.5l-29.84-9.695-29.839-9.696-29.84-9.695-29.839-9.696M321.75 226.5V101" stroke="#E9E9E9" stroke-dasharray="0,0"/><text paint-order="stroke" style="stroke-linecap:butt;stroke-linejoin:miter" alignment-baseline="auto" text-anchor="middle" opacity=".65" x="321.75" y="85" font-size="12" font-family="&quot;-apple-system&quot;, BlinkMacSystemFont, &quot;Segoe UI&quot;, Roboto,&quot;Helvetica Neue&quot;, Helvetica, &quot;PingFang SC&quot;, &quot;Hiragino Sans GB&quot;, &quot;Microsoft YaHei&quot;,SimSun, &quot;sans-serif&quot;" fill="#000">防御</text><text paint-order="stroke" style="stroke-linecap:butt;stroke-linejoin:miter" alignment-baseline="auto" text-anchor="left" opacity=".65" x="456.324" y="182.774" font-size="12" font-family="&quot;-apple-system&quot;, BlinkMacSystemFont, &quot;Segoe UI&quot;, Roboto,&quot;Helvetica Neue&quot;, Helvetica, &quot;PingFang SC&quot;, &quot;Hiragino Sans GB&quot;, &quot;Microsoft YaHei&quot;,SimSun, &quot;sans-serif&quot;" fill="#000">速度</text><text paint-order="stroke" style="stroke-linecap:butt;stroke-linejoin:miter" alignment-baseline="auto" text-anchor="left" opacity=".65" x="404.922" y="340.976" font-size="12" font-family="&quot;-apple-system&quot;, BlinkMacSystemFont, &quot;Segoe UI&quot;, Roboto,&quot;Helvetica Neue&quot;, Helvetica, &quot;PingFang SC&quot;, &quot;Hiragino Sans GB&quot;, &quot;Microsoft YaHei&quot;,SimSun, &quot;sans-serif&quot;" fill="#000">攻击</text><text paint-order="stroke" style="stroke-linecap:butt;stroke-linejoin:miter" alignment-baseline="auto" text-anchor="end" opacity=".65" x="238.578" y="340.976" font-size="12" font-family="&quot;-apple-system&quot;, BlinkMacSystemFont, &quot;Segoe UI&quot;, Roboto,&quot;Helvetica Neue&quot;, Helvetica, &quot;PingFang SC&quot;, &quot;Hiragino Sans GB&quot;, &quot;Microsoft YaHei&quot;,SimSun, &quot;sans-serif&quot;" fill="#000">躲闪</text><text paint-order="stroke" style="stroke-linecap:butt;stroke-linejoin:miter" alignment-baseline="auto" text-anchor="end" opacity=".65" x="187.176" y="182.774" font-size="12" font-family="&quot;-apple-system&quot;, BlinkMacSystemFont, &quot;Segoe UI&quot;, Roboto,&quot;Helvetica Neue&quot;, Helvetica, &quot;PingFang SC&quot;, &quot;Hiragino Sans GB&quot;, &quot;Microsoft YaHei&quot;,SimSun, &quot;sans-serif&quot;" fill="#000">穿透</text><g stroke="#E9E9E9" stroke-dasharray="0,0"><path d="m321.75 195.125 29.84 21.68-11.398 35.078h-36.884l-11.397-35.078 29.839-21.68"/><path d="m321.75 163.75 59.679 43.36-22.795 70.156h-73.768l-22.795-70.157 59.679-43.359"/><path d="m321.75 132.375 89.518 65.039-34.193 105.235h-110.65l-34.193-105.235 89.518-65.039"/><path d="m321.75 101 119.358 86.718-45.591 140.314H247.983l-45.59-140.314L321.75 101"/></g><path d="M321.75 226.5V101m0 125.5h-4m4-31.375h-4m4-31.375h-4m4-31.375h-4m4-31.375h-4" stroke="#BFBFBF"/><text paint-order="stroke" style="stroke-linecap:butt;stroke-linejoin:miter" alignment-baseline="auto" text-anchor="end" x="309.75" y="231.5" font-size="12" font-family="&quot;-apple-system&quot;, BlinkMacSystemFont, &quot;Segoe UI&quot;, Roboto,&quot;Helvetica Neue&quot;, Helvetica, &quot;PingFang SC&quot;, &quot;Hiragino Sans GB&quot;, &quot;Microsoft YaHei&quot;,SimSun, &quot;sans-serif&quot;" fill="#545454">0</text><text paint-order="stroke" style="stroke-linecap:butt;stroke-linejoin:miter" alignment-baseline="auto" text-anchor="end" x="309.75" y="200.125" font-size="12" font-family="&quot;-apple-system&quot;, BlinkMacSystemFont, &quot;Segoe UI&quot;, Roboto,&quot;Helvetica Neue&quot;, Helvetica, &quot;PingFang SC&quot;, &quot;Hiragino Sans GB&quot;, &quot;Microsoft YaHei&quot;,SimSun, &quot;sans-serif&quot;" fill="#545454">250</text><text paint-order="stroke" style="stroke-linecap:butt;stroke-linejoin:miter" alignment-baseline="auto" text-anchor="end" x="309.75" y="168.75" font-size="12" font-family="&quot;-apple-system&quot;, BlinkMacSystemFont, &quot;Segoe UI&quot;, Roboto,&quot;Helvetica Neue&quot;, Helvetica, &quot;PingFang SC&quot;, &quot;Hiragino Sans GB&quot;, &quot;Microsoft YaHei&quot;,SimSun, &quot;sans-serif&quot;" fill="#545454">500</text><text paint-order="stroke" style="stroke-linecap:butt;stroke-linejoin:miter" alignment-baseline="auto" text-anchor="end" x="309.75" y="137.375" font-size="12" font-family="&quot;-apple-system&quot;, BlinkMacSystemFont, &quot;Segoe UI&quot;, Roboto,&quot;Helvetica Neue&quot;, Helvetica, &quot;PingFang SC&quot;, &quot;Hiragino Sans GB&quot;, &quot;Microsoft YaHei&quot;,SimSun, &quot;sans-serif&quot;" fill="#545454">750</text><text paint-order="stroke" style="stroke-linecap:butt;stroke-linejoin:miter" alignment-baseline="auto" text-anchor="end" x="309.75" y="106" font-size="12" font-family="&quot;-apple-system&quot;, BlinkMacSystemFont, &quot;Segoe UI&quot;, Roboto,&quot;Helvetica Neue&quot;, Helvetica, &quot;PingFang SC&quot;, &quot;Hiragino Sans GB&quot;, &quot;Microsoft YaHei&quot;,SimSun, &quot;sans-serif&quot;" fill="#545454">1000</text><path d="M107.5 101H536v251H107.5z"/><g fill-opacity=".6"><path opacity=".25" d="m321.75 156.094 95.486 39.38-29.096 122.404-84.832-65.995-29.301-40.896 47.743-54.893V226.5Z" fill="#5B8FF9"/><path opacity=".25" d="m321.75 185.964 101.454 7.572-35.064 124.342-73.767-81.225-58.27-31.483 65.647-19.206V226.5Z" fill="#5AD8A6"/></g><g stroke-width="2"><path d="m321.75 156.094 95.486 39.38-29.096 122.404-84.832-65.995-29.301-40.896Z" stroke="#5B8FF9"/><path d="m321.75 185.964 101.454 7.572-35.064 124.342-73.767-81.225-58.27-31.483Z" stroke="#5AD8A6"/></g><path d="M23.5 100h11v8h-11Z" fill-opacity=".6" fill="#5B8FF9"/><text paint-order="stroke" style="stroke-linecap:butt;stroke-linejoin:miter" alignment-baseline="auto" text-anchor="left" x="18" y="20.5" font-size="12" font-family="&quot;-apple-system&quot;, BlinkMacSystemFont, &quot;Segoe UI&quot;, Roboto,&quot;Helvetica Neue&quot;, Helvetica, &quot;PingFang SC&quot;, &quot;Hiragino Sans GB&quot;, &quot;Microsoft YaHei&quot;,SimSun, &quot;sans-serif&quot;" fill="#8C8C8C" transform="translate(24 89)">马可波罗</text><path d="M24 97.5h66.5v13H24z"/><path d="M23.5 122h11v8h-11Z" fill-opacity=".6" fill="#5AD8A6"/><text paint-order="stroke" style="stroke-linecap:butt;stroke-linejoin:miter" alignment-baseline="auto" text-anchor="left" x="18" y="42.5" font-size="12" font-family="&quot;-apple-system&quot;, BlinkMacSystemFont, &quot;Segoe UI&quot;, Roboto,&quot;Helvetica Neue&quot;, Helvetica, &quot;PingFang SC&quot;, &quot;Hiragino Sans GB&quot;, &quot;Microsoft YaHei&quot;,SimSun, &quot;sans-serif&quot;" fill="#8C8C8C" transform="translate(24 89)">孙尚香</text><path d="M24 119.5h54.5v13H24z"/></g></svg>