<svg xmlns="http://www.w3.org/2000/svg" width="780" height="470" viewBox="0 0 780 470" font-family="Segoe UI, Helvetica, Arial, sans-serif">
<title>Runtime scaling - Python (netlistx)</title>
<rect width="780" height="470" fill="#ffffff"/>
<defs>
<marker id="arrow" viewBox="0 0 10 10" refX="9" refY="5" markerWidth="7" markerHeight="7" orient="auto-start-reverse"><path d="M0,0 L10,5 L0,10 z" fill="#5d6d7e"/></marker>
</defs>
<text x="390.0" y="34.0" font-size="21" text-anchor="middle" fill="#1b2631" font-weight="bold">Odd cycle cover runtime - Python (netlistx)</text><text x="390.0" y="58.0" font-size="13" text-anchor="middle" fill="#5d6d7e" font-weight="normal">lower is better</text><line x1="118.0" y1="390.0" x2="735.0" y2="390.0" stroke="#e8ebed" stroke-width="1.0" stroke-linecap="round"/><text x="106.0" y="394.0" font-size="12" text-anchor="end" fill="#5d6d7e" font-weight="normal">1</text><line x1="118.0" y1="320.5" x2="735.0" y2="320.5" stroke="#e8ebed" stroke-width="1.0" stroke-linecap="round"/><text x="106.0" y="324.5" font-size="12" text-anchor="end" fill="#5d6d7e" font-weight="normal">10</text><line x1="118.0" y1="251.0" x2="735.0" y2="251.0" stroke="#e8ebed" stroke-width="1.0" stroke-linecap="round"/><text x="106.0" y="255.0" font-size="12" text-anchor="end" fill="#5d6d7e" font-weight="normal">100</text><line x1="118.0" y1="181.5" x2="735.0" y2="181.5" stroke="#e8ebed" stroke-width="1.0" stroke-linecap="round"/><text x="106.0" y="185.5" font-size="12" text-anchor="end" fill="#5d6d7e" font-weight="normal">1,000</text><line x1="118.0" y1="112.0" x2="735.0" y2="112.0" stroke="#e8ebed" stroke-width="1.0" stroke-linecap="round"/><text x="106.0" y="116.0" font-size="12" text-anchor="end" fill="#5d6d7e" font-weight="normal">10,000</text><line x1="118.0" y1="112.0" x2="118.0" y2="390.0" stroke="#5d6d7e" stroke-width="1.5" stroke-linecap="round"/><line x1="118.0" y1="390.0" x2="735.0" y2="390.0" stroke="#5d6d7e" stroke-width="1.5" stroke-linecap="round"/><text x="118.0" y="414.0" font-size="12" text-anchor="middle" fill="#5d6d7e" font-weight="normal">50</text><text x="323.7" y="414.0" font-size="12" text-anchor="middle" fill="#5d6d7e" font-weight="normal">100</text><text x="529.3" y="414.0" font-size="12" text-anchor="middle" fill="#5d6d7e" font-weight="normal">200</text><text x="735.0" y="414.0" font-size="12" text-anchor="middle" fill="#5d6d7e" font-weight="normal">400</text><text x="426.5" y="438.0" font-size="13" text-anchor="middle" fill="#1b2631" font-weight="normal">nodes (n)</text><text x="34.0" y="251.0" font-size="13" text-anchor="middle" fill="#1b2631" font-weight="normal" transform="rotate(-90 34.0 251.0)">time (ms, log scale)</text><polyline points="118.0,249.0 323.7,218.2 529.3,169.2 735.0,113.5" fill="none" stroke="#c0392b" stroke-width="3.0" stroke-linejoin="round" stroke-linecap="round"/><circle cx="118.0" cy="249.0" r="5.5" fill="#ffffff" stroke="#c0392b" stroke-width="3.0"/><circle cx="323.7" cy="218.2" r="5.5" fill="#ffffff" stroke="#c0392b" stroke-width="3.0"/><circle cx="529.3" cy="169.2" r="5.5" fill="#ffffff" stroke="#c0392b" stroke-width="3.0"/><circle cx="735.0" cy="113.5" r="5.5" fill="#ffffff" stroke="#c0392b" stroke-width="3.0"/><text x="125.0" y="269.0" font-size="11" text-anchor="start" fill="#c0392b" font-weight="bold">107</text><text x="323.7" y="238.2" font-size="11" text-anchor="middle" fill="#c0392b" font-weight="bold">297</text><text x="529.3" y="189.2" font-size="11" text-anchor="middle" fill="#c0392b" font-weight="bold">1,503</text><text x="728.0" y="133.5" font-size="11" text-anchor="end" fill="#c0392b" font-weight="bold">9,507</text><polyline points="118.0,384.6 323.7,358.3 529.3,317.7 735.0,274.0" fill="none" stroke="#1e8449" stroke-width="3.0" stroke-linejoin="round" stroke-linecap="round"/><circle cx="118.0" cy="384.6" r="5.5" fill="#ffffff" stroke="#1e8449" stroke-width="3.0"/><circle cx="323.7" cy="358.3" r="5.5" fill="#ffffff" stroke="#1e8449" stroke-width="3.0"/><circle cx="529.3" cy="317.7" r="5.5" fill="#ffffff" stroke="#1e8449" stroke-width="3.0"/><circle cx="735.0" cy="274.0" r="5.5" fill="#ffffff" stroke="#1e8449" stroke-width="3.0"/><text x="125.0" y="371.6" font-size="11" text-anchor="start" fill="#1e8449" font-weight="bold">1.20</text><text x="323.7" y="345.3" font-size="11" text-anchor="middle" fill="#1e8449" font-weight="bold">2.86</text><text x="529.3" y="304.7" font-size="11" text-anchor="middle" fill="#1e8449" font-weight="bold">10.98</text><text x="728.0" y="261.0" font-size="11" text-anchor="end" fill="#1e8449" font-weight="bold">46.73</text><line x1="130.0" y1="86.0" x2="162.0" y2="86.0" stroke="#c0392b" stroke-width="3.0" stroke-linecap="round"/><text x="170.0" y="90.0" font-size="12.5" text-anchor="start" fill="#1b2631" font-weight="normal">before</text><line x1="242.0" y1="86.0" x2="274.0" y2="86.0" stroke="#1e8449" stroke-width="3.0" stroke-linecap="round"/><text x="282.0" y="90.0" font-size="12.5" text-anchor="start" fill="#1b2631" font-weight="normal">after</text></svg>
