<?xml version="1.0" encoding="UTF-8" standalone="no"?>
<!DOCTYPE svg PUBLIC "-//W3C//DTD SVG 1.1//EN"
 "http://www.w3.org/Graphics/SVG/1.1/DTD/svg11.dtd">
<!-- Generated by graphviz version 2.40.1 (20161225.0304)
 -->
<!-- Title: G Pages: 1 -->
<svg width="287pt" height="196pt"
 viewBox="0.00 0.00 287.00 195.61" xmlns="http://www.w3.org/2000/svg" xmlns:xlink="http://www.w3.org/1999/xlink">
<g id="graph0" class="graph" transform="scale(1 1) rotate(0) translate(4 191.6123)">
<title>G</title>
<polygon fill="#ffffff" stroke="transparent" points="-4,4 -4,-191.6123 283,-191.6123 283,4 -4,4"/>
<!-- 1 -->
<g id="node1" class="node">
<title>1</title>
<ellipse fill="#d3d3d3" stroke="#000000" cx="18" cy="-56.6123" rx="18" ry="18"/>
<text text-anchor="middle" x="18" y="-52.9123" font-family="Times,serif" font-size="14.00" fill="#000000">1</text>
</g>
<!-- 2 -->
<g id="node2" class="node">
<title>2</title>
<ellipse fill="#d3d3d3" stroke="#000000" cx="139.5" cy="-111.6123" rx="18" ry="18"/>
<text text-anchor="middle" x="139.5" y="-107.9123" font-family="Times,serif" font-size="14.00" fill="#000000">2</text>
</g>
<!-- 1&#45;&gt;2 -->
<g id="edge1" class="edge">
<title>1&#45;&gt;2</title>
<path fill="none" stroke="#000000" stroke-dasharray="5,2" d="M29.7907,-70.2186C36.3048,-76.9556 44.9071,-84.6814 54,-89.6123 71.8526,-99.2934 94.1293,-104.8466 111.468,-107.9514"/>
<polygon fill="#000000" stroke="#000000" points="111.111,-111.4391 121.542,-109.5833 112.2303,-104.5292 111.111,-111.4391"/>
<text text-anchor="middle" x="76.5" y="-108.4123" font-family="Times,serif" font-size="14.00" fill="#000000"> &#160;&#160;&#160;&#160;7 &#160;&#160;&#160;&#160;</text>
</g>
<!-- 3 -->
<g id="node3" class="node">
<title>3</title>
<ellipse fill="#d3d3d3" stroke="#000000" cx="261" cy="-92.6123" rx="18" ry="18"/>
<text text-anchor="middle" x="261" y="-88.9123" font-family="Times,serif" font-size="14.00" fill="#000000">3</text>
</g>
<!-- 1&#45;&gt;3 -->
<g id="edge8" class="edge">
<title>1&#45;&gt;3</title>
<path fill="none" stroke="#000000" d="M36.0573,-54.8928C72.7921,-52.041 158.3838,-48.7132 225,-71.6123 229.1569,-73.0412 233.3682,-74.9745 237.374,-77.0924"/>
<polygon fill="#000000" stroke="#000000" points="235.8178,-80.2358 246.2255,-82.2185 239.3259,-74.1782 235.8178,-80.2358"/>
<text text-anchor="middle" x="139.5" y="-60.4123" font-family="Times,serif" font-size="14.00" fill="#000000"> &#160;&#160;&#160;&#160;5 &#160;&#160;&#160;&#160;</text>
</g>
<!-- 2&#45;&gt;1 -->
<g id="edge5" class="edge">
<title>2&#45;&gt;1</title>
<path fill="none" stroke="#000000" d="M128.7696,-96.7817C121.4231,-87.7618 110.8837,-76.8193 99,-70.6123 82.7089,-62.1032 62.3089,-58.6123 46.0573,-57.2442"/>
<polygon fill="#000000" stroke="#000000" points="46.2604,-53.7501 36.0617,-56.6202 45.8242,-60.7365 46.2604,-53.7501"/>
<text text-anchor="middle" x="76.5" y="-74.4123" font-family="Times,serif" font-size="14.00" fill="#000000"> &#160;&#160;&#160;&#160;0 &#160;&#160;&#160;&#160;</text>
</g>
<!-- 2&#45;&gt;3 -->
<g id="edge2" class="edge">
<title>2&#45;&gt;3</title>
<path fill="none" stroke="#000000" stroke-dasharray="5,2" d="M146.7597,-128.1943C153.3749,-141.0195 164.4873,-157.8559 180,-165.6123 197.8885,-174.5566 208.0159,-176.1736 225,-165.6123 240.8485,-155.7571 249.926,-136.6414 255.0007,-120.4431"/>
<polygon fill="#000000" stroke="#000000" points="258.5007,-120.9173 257.7884,-110.3465 251.7531,-119.0543 258.5007,-120.9173"/>
<text text-anchor="middle" x="202.5" y="-176.4123" font-family="Times,serif" font-size="14.00" fill="#000000"> &#160;&#160;&#160;&#160;3 &#160;&#160;&#160;&#160;</text>
</g>
<!-- 2&#45;&gt;3 -->
<g id="edge3" class="edge">
<title>2&#45;&gt;3</title>
<path fill="none" stroke="#000000" stroke-dasharray="5,2" d="M155.7994,-119.9359C173.4174,-127.742 202.0527,-136.9286 225,-127.6123 231.8374,-124.8364 238.0895,-120.069 243.3957,-114.9308"/>
<polygon fill="#000000" stroke="#000000" points="246.2154,-117.0375 250.451,-107.3261 241.0838,-112.2766 246.2154,-117.0375"/>
<text text-anchor="middle" x="202.5" y="-134.4123" font-family="Times,serif" font-size="14.00" fill="#000000"> &#160;&#160;&#160;&#160;6 &#160;&#160;&#160;&#160;</text>
</g>
<!-- 3&#45;&gt;1 -->
<g id="edge4" class="edge">
<title>3&#45;&gt;1</title>
<path fill="none" stroke="#000000" stroke-dasharray="5,2" d="M255.4475,-75.1931C249.9078,-60.3961 240.0356,-39.5553 225,-26.6123 202.4096,-7.1658 191.3522,-8.8027 162,-3.6123 113.6734,4.9334 96.531,-2.1254 54,-26.6123 48.8883,-29.5553 43.7846,-33.2375 39.0943,-37.0042"/>
<polygon fill="#000000" stroke="#000000" points="36.5333,-34.5877 31.1858,-43.7339 41.0698,-39.9187 36.5333,-34.5877"/>
<text text-anchor="middle" x="139.5" y="-7.4123" font-family="Times,serif" font-size="14.00" fill="#000000"> &#160;&#160;&#160;&#160;2 &#160;&#160;&#160;&#160;</text>
</g>
<!-- 3&#45;&gt;2 -->
<g id="edge6" class="edge">
<title>3&#45;&gt;2</title>
<path fill="none" stroke="#000000" d="M242.9987,-95.4273C223.0473,-98.5473 190.6235,-103.6177 167.3822,-107.2521"/>
<polygon fill="#000000" stroke="#000000" points="166.7669,-103.8057 157.4277,-108.8088 167.8485,-110.7217 166.7669,-103.8057"/>
<text text-anchor="middle" x="202.5" y="-108.4123" font-family="Times,serif" font-size="14.00" fill="#000000"> &#160;&#160;&#160;&#160;1 &#160;&#160;&#160;&#160;</text>
</g>
<!-- 3&#45;&gt;2 -->
<g id="edge7" class="edge">
<title>3&#45;&gt;2</title>
<path fill="none" stroke="#000000" d="M244.4524,-85.3443C227.7852,-79.082 201.5261,-72.1344 180,-79.6123 172.6672,-82.1596 165.6597,-86.647 159.5969,-91.4699"/>
<polygon fill="#000000" stroke="#000000" points="157.2196,-88.899 151.9733,-98.1037 161.8146,-94.1797 157.2196,-88.899"/>
<text text-anchor="middle" x="202.5" y="-83.4123" font-family="Times,serif" font-size="14.00" fill="#000000"> &#160;&#160;&#160;&#160;4 &#160;&#160;&#160;&#160;</text>
</g>
</g>
</svg>
