<svg xmlns="http://www.w3.org/2000/svg" width="605" height="383">
  <defs>
    <clipPath id="a">
      <path fill="none" d="M0 0h605v383H0V0z"/>
    </clipPath>
  </defs>
  <g clip-path="url(#a)">
    <path fill="#FFF" d="M0 0h605v383H0z"/>
    <path fill="none" stroke="#000" paint-order="fill stroke markers" d="M119.5 252.5l84.8-42.4" stroke-opacity=".7" stroke-linecap="round" stroke-linejoin="round" stroke-miterlimit="10" stroke-width="2.5"/>
    <path paint-order="stroke fill markers" fill-rule="evenodd" d="M219.5 202.5l-13.3 11.4-3.8-7.6z" fill-opacity=".7"/>
    <path fill="none" stroke="#000" paint-order="fill stroke markers" d="M219.5 202.5l42.4-84.8" stroke-opacity=".7" stroke-linecap="round" stroke-linejoin="round" stroke-miterlimit="10" stroke-width="2.5"/>
    <path paint-order="stroke fill markers" fill-rule="evenodd" d="M269.5 102.5l-3.8 17.1-7.6-3.8z" fill-opacity=".7"/>
    <path fill="none" stroke="#000" paint-order="fill stroke markers" d="M219.5 202.5l84.8 42.4" stroke-opacity=".7" stroke-linecap="round" stroke-linejoin="round" stroke-miterlimit="10" stroke-width="2.5"/>
    <path paint-order="stroke fill markers" fill-rule="evenodd" d="M319.5 252.5l-17.1-3.8 3.8-7.6z" fill-opacity=".7"/>
    <path fill="none" stroke="#000" paint-order="fill stroke markers" d="M319.5 252.5l42.4-84.8" stroke-opacity=".7" stroke-linecap="round" stroke-linejoin="round" stroke-miterlimit="10" stroke-width="2.5"/>
    <path paint-order="stroke fill markers" fill-rule="evenodd" d="M369.5 152.5l-3.8 17.1-7.6-3.8z" fill-opacity=".7"/>
    <path fill="none" stroke="#000" paint-order="fill stroke markers" d="M369.5 152.5h83" stroke-opacity=".7" stroke-linecap="round" stroke-linejoin="round" stroke-miterlimit="10" stroke-width="2.5"/>
    <path paint-order="stroke fill markers" fill-rule="evenodd" d="M469.5 152.5l-17 4.2v-8.5z" fill-opacity=".7"/>
    <path fill="none" stroke="#000" paint-order="fill stroke markers" d="M269.5 102.5l84.8 42.4" stroke-opacity=".7" stroke-linecap="round" stroke-linejoin="round" stroke-miterlimit="10" stroke-width="2.5"/>
    <path paint-order="stroke fill markers" fill-rule="evenodd" d="M369.5 152.5l-17.1-3.8 3.8-7.6z" fill-opacity=".7"/>
    <path fill="none" stroke="#000" paint-order="fill stroke markers" d="M119.5 102.5l88 88" stroke-opacity=".7" stroke-linecap="round" stroke-linejoin="round" stroke-miterlimit="10" stroke-width="2.5"/>
    <path paint-order="stroke fill markers" fill-rule="evenodd" d="M219.5 202.5l-15-9 6-6z" fill-opacity=".7"/>
    <path fill="#C00" paint-order="stroke fill markers" d="M124.5 252.5a5 5 0 1 1-10 0 5 5 0 0 1 10 0z"/>
    <path fill="none" stroke="#000" paint-order="fill stroke markers" d="M124.5 252.5a5 5 0 1 1-10 0 5 5 0 0 1 10 0z" stroke-linecap="round" stroke-linejoin="round" stroke-miterlimit="10"/>
    <path fill="#00F" paint-order="stroke fill markers" d="M224.5 202.5a5 5 0 1 1-10 0 5 5 0 0 1 10 0z"/>
    <path fill="none" stroke="#000" paint-order="fill stroke markers" d="M224.5 202.5a5 5 0 1 1-10 0 5 5 0 0 1 10 0z" stroke-linecap="round" stroke-linejoin="round" stroke-miterlimit="10"/>
    <path fill="#4D4DFF" paint-order="stroke fill markers" d="M274.5 102.5a5 5 0 1 1-10 0 5 5 0 0 1 10 0z"/>
    <path fill="none" stroke="#000" paint-order="fill stroke markers" d="M274.5 102.5a5 5 0 1 1-10 0 5 5 0 0 1 10 0z" stroke-linecap="round" stroke-linejoin="round" stroke-miterlimit="10"/>
    <path fill="#4D4DFF" paint-order="stroke fill markers" d="M324.5 252.5a5 5 0 1 1-10 0 5 5 0 0 1 10 0z"/>
    <path fill="none" stroke="#000" paint-order="fill stroke markers" d="M324.5 252.5a5 5 0 1 1-10 0 5 5 0 0 1 10 0z" stroke-linecap="round" stroke-linejoin="round" stroke-miterlimit="10"/>
    <path fill="#C00" paint-order="stroke fill markers" d="M374.5 152.5a5 5 0 1 1-10 0 5 5 0 0 1 10 0z"/>
    <path fill="none" stroke="#000" paint-order="fill stroke markers" d="M374.5 152.5a5 5 0 1 1-10 0 5 5 0 0 1 10 0z" stroke-linecap="round" stroke-linejoin="round" stroke-miterlimit="10"/>
    <path fill="#C00" paint-order="stroke fill markers" d="M474.5 152.5a5 5 0 1 1-10 0 5 5 0 0 1 10 0z"/>
    <path fill="none" stroke="#000" paint-order="fill stroke markers" d="M474.5 152.5a5 5 0 1 1-10 0 5 5 0 0 1 10 0z" stroke-linecap="round" stroke-linejoin="round" stroke-miterlimit="10"/>
    <path fill="#C00" paint-order="stroke fill markers" d="M124.5 102.5a5 5 0 1 1-10 0 5 5 0 0 1 10 0z"/>
    <path fill="none" stroke="#000" paint-order="fill stroke markers" d="M124.5 102.5a5 5 0 1 1-10 0 5 5 0 0 1 10 0z" stroke-linecap="round" stroke-linejoin="round" stroke-miterlimit="10"/>
  </g>
</svg>
