<svg version="1.1" xmlns="http://www.w3.org/2000/svg" xmlns:xlink="http://www.w3.org/1999/xlink" width="1187" height="755"><defs><clipPath id="LschkmtMzHXR"><path fill="none" stroke="none" d=" M 0 0 L 1187 0 L 1187 755 L 0 755 L 0 0 Z"/></clipPath></defs><g transform="scale(1,1)" clip-path="url(#LschkmtMzHXR)"><g><rect fill="rgb(255,255,255)" stroke="none" x="0" y="0" width="1187" height="755" fill-opacity="1"/><path fill="none" stroke="rgb(255,0,0)" paint-order="fill stroke markers" d=" M 895.7589302570193 265.2920232476603 C 843.9582519766092 109.88998840642944 652.0530097970895 33.88257995590692 467.1265749664811 95.52472489944296 C 282.2001401358726 157.16686984297903 174.28039146257015 333.11594191110873 226.08106974298033 488.5179767523396 C 277.8817480233905 643.9200115935705 469.78699020291015 719.927420044093 654.7134250335187 658.285275100557 C 839.6398598641272 596.6431301570209 947.5596085374295 420.69405808889127 895.7589302570193 265.2920232476603 Z" stroke-opacity="0.6980392156862745" stroke-linecap="round" stroke-linejoin="round" stroke-miterlimit="10" stroke-width="2.5"/><path fill="none" stroke="rgb(127,0,255)" paint-order="fill stroke markers" d=" M 421.93655954935946 725.0946725723919 C 552.551595457474 736.6162432608121 671.7956183318755 594.5041720187792 688.2755391336714 407.67847737170587 C 704.7554599354673 220.85278272463253 612.2306679172693 60.060554535703545 481.61563200915475 48.53898384728336 C 351.0005961010402 37.01741315886318 231.75657322663872 179.12948440089608 215.2766524248428 365.9551790479694 C 198.7967316230469 552.7808736950427 291.3215236412449 713.5731018839717 421.93655954935946 725.0946725723919 Z" stroke-opacity="0.6980392156862745" stroke-linecap="round" stroke-linejoin="round" stroke-miterlimit="10" stroke-width="2.5"/><path fill="none" stroke="rgb(0,100,0)" paint-order="fill stroke markers" d=" M 560.4199999999998 760 L 560.4199999999998 -5" stroke-opacity="0.6980392156862745" stroke-linecap="round" stroke-linejoin="round" stroke-miterlimit="10" stroke-width="2.5"/><path fill="rgb(97,97,97)" stroke="none" paint-order="stroke fill markers" d=" M 565.4199999999998 75.8940682745822 C 565.4199999999998 78.65549202373616 563.1814237491539 80.8940682745822 560.4199999999998 80.8940682745822 C 557.6585762508458 80.8940682745822 555.4199999999998 78.65549202373616 555.4199999999998 75.8940682745822 C 555.4199999999998 73.13264452542823 557.6585762508458 70.8940682745822 560.4199999999998 70.8940682745822 C 563.1814237491539 70.8940682745822 565.4199999999998 73.13264452542823 565.4199999999998 75.8940682745822 Z" fill-opacity="1"/><path fill="none" stroke="rgb(0,0,0)" paint-order="fill stroke markers" d=" M 565.4199999999998 75.8940682745822 C 565.4199999999998 78.65549202373616 563.1814237491539 80.8940682745822 560.4199999999998 80.8940682745822 C 557.6585762508458 80.8940682745822 555.4199999999998 78.65549202373616 555.4199999999998 75.8940682745822 C 555.4199999999998 73.13264452542823 557.6585762508458 70.8940682745822 560.4199999999998 70.8940682745822 C 563.1814237491539 70.8940682745822 565.4199999999998 73.13264452542823 565.4199999999998 75.8940682745822 Z" stroke-opacity="1" stroke-linecap="round" stroke-linejoin="round" stroke-miterlimit="10"/><path fill="rgb(97,97,97)" stroke="none" paint-order="stroke fill markers" d=" M 565.4199999999998 678.0067460341105 C 565.4199999999998 680.7681697832645 563.1814237491539 683.0067460341105 560.4199999999998 683.0067460341105 C 557.6585762508458 683.0067460341105 555.4199999999998 680.7681697832645 555.4199999999998 678.0067460341105 C 555.4199999999998 675.2453222849565 557.6585762508458 673.0067460341105 560.4199999999998 673.0067460341105 C 563.1814237491539 673.0067460341105 565.4199999999998 675.2453222849565 565.4199999999998 678.0067460341105 Z" fill-opacity="1"/><path fill="none" stroke="rgb(0,0,0)" paint-order="fill stroke markers" d=" M 565.4199999999998 678.0067460341105 C 565.4199999999998 680.7681697832645 563.1814237491539 683.0067460341105 560.4199999999998 683.0067460341105 C 557.6585762508458 683.0067460341105 555.4199999999998 680.7681697832645 555.4199999999998 678.0067460341105 C 555.4199999999998 675.2453222849565 557.6585762508458 673.0067460341105 560.4199999999998 673.0067460341105 C 563.1814237491539 673.0067460341105 565.4199999999998 675.2453222849565 565.4199999999998 678.0067460341105 Z" stroke-opacity="1" stroke-linecap="round" stroke-linejoin="round" stroke-miterlimit="10"/><path fill="rgb(255,153,51)" stroke="none" paint-order="stroke fill markers" d=" M 565.9199999999998 376.905 C 565.9199999999998 379.6664237491539 563.6814237491539 381.905 560.9199999999998 381.905 C 558.1585762508458 381.905 555.9199999999998 379.6664237491539 555.9199999999998 376.905 C 555.9199999999998 374.143576250846 558.1585762508458 371.905 560.9199999999998 371.905 C 563.6814237491539 371.905 565.9199999999998 374.143576250846 565.9199999999998 376.905 Z" fill-opacity="1"/><path fill="none" stroke="rgb(0,0,0)" paint-order="fill stroke markers" d=" M 565.9199999999998 376.905 C 565.9199999999998 379.6664237491539 563.6814237491539 381.905 560.9199999999998 381.905 C 558.1585762508458 381.905 555.9199999999998 379.6664237491539 555.9199999999998 376.905 C 555.9199999999998 374.143576250846 558.1585762508458 371.905 560.9199999999998 371.905 C 563.6814237491539 371.905 565.9199999999998 374.143576250846 565.9199999999998 376.905 Z" stroke-opacity="1" stroke-linecap="round" stroke-linejoin="round" stroke-miterlimit="10"/></g></g></svg>
