<svg xmlns="http://www.w3.org/2000/svg" xmlns:xlink="http://www.w3.org/1999/xlink" width="614.4" height="460.8" version="1.1" viewBox="0 0 460.8 345.6"><defs><style type="text/css">*{stroke-linecap:butt;stroke-linejoin:round}</style></defs><g id="figure_1"><g id="patch_1"><path d="M 0 345.6 L 460.8 345.6 L 460.8 0 L 0 0 z" style="fill:#fff"/></g><g id="axes_1"><g id="patch_2"><path d="M 62.3 134.26 L 221.76 134.26 L 221.76 10.8 L 62.3 10.8 z" style="fill:#fff"/></g><g id="PolyCollection_1"><defs><path id="m690e2b879b" d="M 62.427568 -329.188182 L 62.427568 -216.951818 L 62.512613 -216.951818 L 62.512613 -329.188182 L 62.512613 -329.188182 L 62.427568 -329.188182 z" style="stroke:#fea"/></defs><g clip-path="url(#p31d2ef5f29)"><use style="fill:#fea;stroke:#fea" x="0" y="345.6" xlink:href="#m690e2b879b"/></g></g><g id="matplotlib.axis_1"><g id="xtick_1"><g id="line2d_1"><path d="M 62.3 134.26 L 62.3 10.8" clip-path="url(#p31d2ef5f29)" style="fill:none;stroke:gray;stroke-linecap:square;stroke-width:.8"/></g><g id="line2d_2"><defs><path id="mf0dcd7ad92" d="M 0 0 L 0 3.5" style="stroke:#000;stroke-width:.8"/></defs><g><use style="stroke:#000;stroke-width:.8" x="62.3" y="134.26" xlink:href="#mf0dcd7ad92"/></g></g><g id="text_1"><defs><path id="DejaVuSans-48" d="M 31.78125 66.40625 Q 24.171875 66.40625 20.328125 58.90625 Q 16.5 51.421875 16.5 36.375 Q 16.5 21.390625 20.328125 13.890625 Q 24.171875 6.390625 31.78125 6.390625 Q 39.453125 6.390625 43.28125 13.890625 Q 47.125 21.390625 47.125 36.375 Q 47.125 51.421875 43.28125 58.90625 Q 39.453125 66.40625 31.78125 66.40625 z M 31.78125 74.21875 Q 44.046875 74.21875 50.515625 64.515625 Q 56.984375 54.828125 56.984375 36.375 Q 56.984375 17.96875 50.515625 8.265625 Q 44.046875 -1.421875 31.78125 -1.421875 Q 19.53125 -1.421875 13.0625 8.265625 Q 6.59375 17.96875 6.59375 36.375 Q 6.59375 54.828125 13.0625 64.515625 Q 19.53125 74.21875 31.78125 74.21875 z"/></defs><g transform="translate(59.11875 148.858437)scale(0.1 -0.1)"><use xlink:href="#DejaVuSans-48"/></g></g></g><g id="xtick_2"><g id="line2d_3"><path d="M 115.453333 134.26 L 115.453333 10.8" clip-path="url(#p31d2ef5f29)" style="fill:none;stroke:gray;stroke-linecap:square;stroke-width:.8"/></g><g id="line2d_4"><g><use style="stroke:#000;stroke-width:.8" x="115.453" y="134.26" xlink:href="#mf0dcd7ad92"/></g></g><g id="text_2"><defs><path id="DejaVuSans-53" d="M 10.796875 72.90625 L 49.515625 72.90625 L 49.515625 64.59375 L 19.828125 64.59375 L 19.828125 46.734375 Q 21.96875 47.46875 24.109375 47.828125 Q 26.265625 48.1875 28.421875 48.1875 Q 40.625 48.1875 47.75 41.5 Q 54.890625 34.8125 54.890625 23.390625 Q 54.890625 11.625 47.5625 5.09375 Q 40.234375 -1.421875 26.90625 -1.421875 Q 22.3125 -1.421875 17.546875 -0.640625 Q 12.796875 0.140625 7.71875 1.703125 L 7.71875 11.625 Q 12.109375 9.234375 16.796875 8.0625 Q 21.484375 6.890625 26.703125 6.890625 Q 35.15625 6.890625 40.078125 11.328125 Q 45.015625 15.765625 45.015625 23.390625 Q 45.015625 31 40.078125 35.4375 Q 35.15625 39.890625 26.703125 39.890625 Q 22.75 39.890625 18.8125 39.015625 Q 14.890625 38.140625 10.796875 36.28125 z"/></defs><g transform="translate(109.090833 148.858437)scale(0.1 -0.1)"><use xlink:href="#DejaVuSans-53"/><use x="63.623" xlink:href="#DejaVuSans-48"/></g></g></g><g id="xtick_3"><g id="line2d_5"><path d="M 168.606667 134.26 L 168.606667 10.8" clip-path="url(#p31d2ef5f29)" style="fill:none;stroke:gray;stroke-linecap:square;stroke-width:.8"/></g><g id="line2d_6"><g><use style="stroke:#000;stroke-width:.8" x="168.607" y="134.26" xlink:href="#mf0dcd7ad92"/></g></g><g id="text_3"><defs><path id="DejaVuSans-49" d="M 12.40625 8.296875 L 28.515625 8.296875 L 28.515625 63.921875 L 10.984375 60.40625 L 10.984375 69.390625 L 28.421875 72.90625 L 38.28125 72.90625 L 38.28125 8.296875 L 54.390625 8.296875 L 54.390625 0 L 12.40625 0 z"/></defs><g transform="translate(159.062917 148.858437)scale(0.1 -0.1)"><use xlink:href="#DejaVuSans-49"/><use x="63.623" xlink:href="#DejaVuSans-48"/><use x="127.246" xlink:href="#DejaVuSans-48"/></g></g></g><g id="xtick_4"><g id="line2d_7"><path d="M 221.76 134.26 L 221.76 10.8" clip-path="url(#p31d2ef5f29)" style="fill:none;stroke:gray;stroke-linecap:square;stroke-width:.8"/></g><g id="line2d_8"><g><use style="stroke:#000;stroke-width:.8" x="221.76" y="134.26" xlink:href="#mf0dcd7ad92"/></g></g><g id="text_4"><g transform="translate(212.21625 148.858437)scale(0.1 -0.1)"><use xlink:href="#DejaVuSans-49"/><use x="63.623" xlink:href="#DejaVuSans-53"/><use x="127.246" xlink:href="#DejaVuSans-48"/></g></g></g><g id="text_5"><defs><path id="DejaVuSans-83" d="M 53.515625 70.515625 L 53.515625 60.890625 Q 47.90625 63.578125 42.921875 64.890625 Q 37.9375 66.21875 33.296875 66.21875 Q 25.25 66.21875 20.875 63.09375 Q 16.5 59.96875 16.5 54.203125 Q 16.5 49.359375 19.40625 46.890625 Q 22.3125 44.4375 30.421875 42.921875 L 36.375 41.703125 Q 47.40625 39.59375 52.65625 34.296875 Q 57.90625 29 57.90625 20.125 Q 57.90625 9.515625 50.796875 4.046875 Q 43.703125 -1.421875 29.984375 -1.421875 Q 24.8125 -1.421875 18.96875 -0.25 Q 13.140625 0.921875 6.890625 3.21875 L 6.890625 13.375 Q 12.890625 10.015625 18.65625 8.296875 Q 24.421875 6.59375 29.984375 6.59375 Q 38.421875 6.59375 43.015625 9.90625 Q 47.609375 13.234375 47.609375 19.390625 Q 47.609375 24.75 44.3125 27.78125 Q 41.015625 30.8125 33.5 32.328125 L 27.484375 33.5 Q 16.453125 35.6875 11.515625 40.375 Q 6.59375 45.0625 6.59375 53.421875 Q 6.59375 63.09375 13.40625 68.65625 Q 20.21875 74.21875 32.171875 74.21875 Q 37.3125 74.21875 42.625 73.28125 Q 47.953125 72.359375 53.515625 70.515625 z"/><path id="DejaVuSans-97" d="M 34.28125 27.484375 Q 23.390625 27.484375 19.1875 25 Q 14.984375 22.515625 14.984375 16.5 Q 14.984375 11.71875 18.140625 8.90625 Q 21.296875 6.109375 26.703125 6.109375 Q 34.1875 6.109375 38.703125 11.40625 Q 43.21875 16.703125 43.21875 25.484375 L 43.21875 27.484375 z M 52.203125 31.203125 L 52.203125 0 L 43.21875 0 L 43.21875 8.296875 Q 40.140625 3.328125 35.546875 0.953125 Q 30.953125 -1.421875 24.3125 -1.421875 Q 15.921875 -1.421875 10.953125 3.296875 Q 6 8.015625 6 15.921875 Q 6 25.140625 12.171875 29.828125 Q 18.359375 34.515625 30.609375 34.515625 L 43.21875 34.515625 L 43.21875 35.40625 Q 43.21875 41.609375 39.140625 45 Q 35.0625 48.390625 27.6875 48.390625 Q 23 48.390625 18.546875 47.265625 Q 14.109375 46.140625 10.015625 43.890625 L 10.015625 52.203125 Q 14.9375 54.109375 19.578125 55.046875 Q 24.21875 56 28.609375 56 Q 40.484375 56 46.34375 49.84375 Q 52.203125 43.703125 52.203125 31.203125 z"/><path id="DejaVuSans-109" d="M 52 44.1875 Q 55.375 50.25 60.0625 53.125 Q 64.75 56 71.09375 56 Q 79.640625 56 84.28125 50.015625 Q 88.921875 44.046875 88.921875 33.015625 L 88.921875 0 L 79.890625 0 L 79.890625 32.71875 Q 79.890625 40.578125 77.09375 44.375 Q 74.3125 48.1875 68.609375 48.1875 Q 61.625 48.1875 57.5625 43.546875 Q 53.515625 38.921875 53.515625 30.90625 L 53.515625 0 L 44.484375 0 L 44.484375 32.71875 Q 44.484375 40.625 41.703125 44.40625 Q 38.921875 48.1875 33.109375 48.1875 Q 26.21875 48.1875 22.15625 43.53125 Q 18.109375 38.875 18.109375 30.90625 L 18.109375 0 L 9.078125 0 L 9.078125 54.6875 L 18.109375 54.6875 L 18.109375 46.1875 Q 21.1875 51.21875 25.484375 53.609375 Q 29.78125 56 35.6875 56 Q 41.65625 56 45.828125 52.96875 Q 50 49.953125 52 44.1875 z"/><path id="DejaVuSans-112" d="M 18.109375 8.203125 L 18.109375 -20.796875 L 9.078125 -20.796875 L 9.078125 54.6875 L 18.109375 54.6875 L 18.109375 46.390625 Q 20.953125 51.265625 25.265625 53.625 Q 29.59375 56 35.59375 56 Q 45.5625 56 51.78125 48.09375 Q 58.015625 40.1875 58.015625 27.296875 Q 58.015625 14.40625 51.78125 6.484375 Q 45.5625 -1.421875 35.59375 -1.421875 Q 29.59375 -1.421875 25.265625 0.953125 Q 20.953125 3.328125 18.109375 8.203125 z M 48.6875 27.296875 Q 48.6875 37.203125 44.609375 42.84375 Q 40.53125 48.484375 33.40625 48.484375 Q 26.265625 48.484375 22.1875 42.84375 Q 18.109375 37.203125 18.109375 27.296875 Q 18.109375 17.390625 22.1875 11.75 Q 26.265625 6.109375 33.40625 6.109375 Q 40.53125 6.109375 44.609375 11.75 Q 48.6875 17.390625 48.6875 27.296875 z"/><path id="DejaVuSans-108" d="M 9.421875 75.984375 L 18.40625 75.984375 L 18.40625 0 L 9.421875 0 z"/><path id="DejaVuSans-101" d="M 56.203125 29.59375 L 56.203125 25.203125 L 14.890625 25.203125 Q 15.484375 15.921875 20.484375 11.0625 Q 25.484375 6.203125 34.421875 6.203125 Q 39.59375 6.203125 44.453125 7.46875 Q 49.3125 8.734375 54.109375 11.28125 L 54.109375 2.78125 Q 49.265625 0.734375 44.1875 -0.34375 Q 39.109375 -1.421875 33.890625 -1.421875 Q 20.796875 -1.421875 13.15625 6.1875 Q 5.515625 13.8125 5.515625 26.8125 Q 5.515625 40.234375 12.765625 48.109375 Q 20.015625 56 32.328125 56 Q 43.359375 56 49.78125 48.890625 Q 56.203125 41.796875 56.203125 29.59375 z M 47.21875 32.234375 Q 47.125 39.59375 43.09375 43.984375 Q 39.0625 48.390625 32.421875 48.390625 Q 24.90625 48.390625 20.390625 44.140625 Q 15.875 39.890625 15.1875 32.171875 z"/><path id="DejaVuSans-115" d="M 44.28125 53.078125 L 44.28125 44.578125 Q 40.484375 46.53125 36.375 47.5 Q 32.28125 48.484375 27.875 48.484375 Q 21.1875 48.484375 17.84375 46.4375 Q 14.5 44.390625 14.5 40.28125 Q 14.5 37.15625 16.890625 35.375 Q 19.28125 33.59375 26.515625 31.984375 L 29.59375 31.296875 Q 39.15625 29.25 43.1875 25.515625 Q 47.21875 21.78125 47.21875 15.09375 Q 47.21875 7.46875 41.1875 3.015625 Q 35.15625 -1.421875 24.609375 -1.421875 Q 20.21875 -1.421875 15.453125 -0.5625 Q 10.6875 0.296875 5.421875 2 L 5.421875 11.28125 Q 10.40625 8.6875 15.234375 7.390625 Q 20.0625 6.109375 24.8125 6.109375 Q 31.15625 6.109375 34.5625 8.28125 Q 37.984375 10.453125 37.984375 14.40625 Q 37.984375 18.0625 35.515625 20.015625 Q 33.0625 21.96875 24.703125 23.78125 L 21.578125 24.515625 Q 13.234375 26.265625 9.515625 29.90625 Q 5.8125 33.546875 5.8125 39.890625 Q 5.8125 47.609375 11.28125 51.796875 Q 16.75 56 26.8125 56 Q 31.78125 56 36.171875 55.265625 Q 40.578125 54.546875 44.28125 53.078125 z"/></defs><g transform="translate(120.676875 162.536562)scale(0.1 -0.1)"><use xlink:href="#DejaVuSans-83"/><use x="63.477" xlink:href="#DejaVuSans-97"/><use x="124.756" xlink:href="#DejaVuSans-109"/><use x="222.168" xlink:href="#DejaVuSans-112"/><use x="285.645" xlink:href="#DejaVuSans-108"/><use x="313.428" xlink:href="#DejaVuSans-101"/><use x="374.951" xlink:href="#DejaVuSans-115"/></g></g></g><g id="matplotlib.axis_2"><g id="ytick_1"><g id="line2d_9"><path d="M 62.3 120.603386 L 221.76 120.603386" clip-path="url(#p31d2ef5f29)" style="fill:none;stroke:gray;stroke-linecap:square;stroke-width:.8"/></g><g id="line2d_10"><defs><path id="m11813d1505" d="M 0 0 L -3.5 0" style="stroke:#000;stroke-width:.8"/></defs><g><use style="stroke:#000;stroke-width:.8" x="62.3" y="120.603" xlink:href="#m11813d1505"/></g></g><g id="text_6"><defs><path id="DejaVuSans-8722" d="M 10.59375 35.5 L 73.1875 35.5 L 73.1875 27.203125 L 10.59375 27.203125 z"/><path id="DejaVuSans-46" d="M 10.6875 12.40625 L 21 12.40625 L 21 0 L 10.6875 0 z"/></defs><g transform="translate(24.654688 124.402604)scale(0.1 -0.1)"><use xlink:href="#DejaVuSans-8722"/><use x="83.789" xlink:href="#DejaVuSans-48"/><use x="147.412" xlink:href="#DejaVuSans-46"/><use x="179.199" xlink:href="#DejaVuSans-48"/><use x="242.822" xlink:href="#DejaVuSans-53"/></g></g></g><g id="ytick_2"><g id="line2d_11"><path d="M 62.3 95.138996 L 221.76 95.138996" clip-path="url(#p31d2ef5f29)" style="fill:none;stroke:gray;stroke-linecap:square;stroke-width:.8"/></g><g id="line2d_12"><g><use style="stroke:#000;stroke-width:.8" x="62.3" y="95.139" xlink:href="#m11813d1505"/></g></g><g id="text_7"><g transform="translate(33.034375 98.938214)scale(0.1 -0.1)"><use xlink:href="#DejaVuSans-48"/><use x="63.623" xlink:href="#DejaVuSans-46"/><use x="95.41" xlink:href="#DejaVuSans-48"/><use x="159.033" xlink:href="#DejaVuSans-48"/></g></g></g><g id="ytick_3"><g id="line2d_13"><path d="M 62.3 69.674605 L 221.76 69.674605" clip-path="url(#p31d2ef5f29)" style="fill:none;stroke:gray;stroke-linecap:square;stroke-width:.8"/></g><g id="line2d_14"><g><use style="stroke:#000;stroke-width:.8" x="62.3" y="69.675" xlink:href="#m11813d1505"/></g></g><g id="text_8"><g transform="translate(33.034375 73.473824)scale(0.1 -0.1)"><use xlink:href="#DejaVuSans-48"/><use x="63.623" xlink:href="#DejaVuSans-46"/><use x="95.41" xlink:href="#DejaVuSans-48"/><use x="159.033" xlink:href="#DejaVuSans-53"/></g></g></g><g id="ytick_4"><g id="line2d_15"><path d="M 62.3 44.210215 L 221.76 44.210215" clip-path="url(#p31d2ef5f29)" style="fill:none;stroke:gray;stroke-linecap:square;stroke-width:.8"/></g><g id="line2d_16"><g><use style="stroke:#000;stroke-width:.8" x="62.3" y="44.21" xlink:href="#m11813d1505"/></g></g><g id="text_9"><g transform="translate(33.034375 48.009434)scale(0.1 -0.1)"><use xlink:href="#DejaVuSans-48"/><use x="63.623" xlink:href="#DejaVuSans-46"/><use x="95.41" xlink:href="#DejaVuSans-49"/><use x="159.033" xlink:href="#DejaVuSans-48"/></g></g></g><g id="ytick_5"><g id="line2d_17"><path d="M 62.3 18.745825 L 221.76 18.745825" clip-path="url(#p31d2ef5f29)" style="fill:none;stroke:gray;stroke-linecap:square;stroke-width:.8"/></g><g id="line2d_18"><g><use style="stroke:#000;stroke-width:.8" x="62.3" y="18.746" xlink:href="#m11813d1505"/></g></g><g id="text_10"><g transform="translate(33.034375 22.545044)scale(0.1 -0.1)"><use xlink:href="#DejaVuSans-48"/><use x="63.623" xlink:href="#DejaVuSans-46"/><use x="95.41" xlink:href="#DejaVuSans-49"/><use x="159.033" xlink:href="#DejaVuSans-53"/></g></g></g><g id="text_11"><defs><path id="DejaVuSans-65" d="M 34.1875 63.1875 L 20.796875 26.90625 L 47.609375 26.90625 z M 28.609375 72.90625 L 39.796875 72.90625 L 67.578125 0 L 57.328125 0 L 50.6875 18.703125 L 17.828125 18.703125 L 11.1875 0 L 0.78125 0 z"/><path id="DejaVuSans-105" d="M 9.421875 54.6875 L 18.40625 54.6875 L 18.40625 0 L 9.421875 0 z M 9.421875 75.984375 L 18.40625 75.984375 L 18.40625 64.59375 L 9.421875 64.59375 z"/><path id="DejaVuSans-116" d="M 18.3125 70.21875 L 18.3125 54.6875 L 36.8125 54.6875 L 36.8125 47.703125 L 18.3125 47.703125 L 18.3125 18.015625 Q 18.3125 11.328125 20.140625 9.421875 Q 21.96875 7.515625 27.59375 7.515625 L 36.8125 7.515625 L 36.8125 0 L 27.59375 0 Q 17.1875 0 13.234375 3.875 Q 9.28125 7.765625 9.28125 18.015625 L 9.28125 47.703125 L 2.6875 47.703125 L 2.6875 54.6875 L 9.28125 54.6875 L 9.28125 70.21875 z"/><path id="DejaVuSans-117" d="M 8.5 21.578125 L 8.5 54.6875 L 17.484375 54.6875 L 17.484375 21.921875 Q 17.484375 14.15625 20.5 10.265625 Q 23.53125 6.390625 29.59375 6.390625 Q 36.859375 6.390625 41.078125 11.03125 Q 45.3125 15.671875 45.3125 23.6875 L 45.3125 54.6875 L 54.296875 54.6875 L 54.296875 0 L 45.3125 0 L 45.3125 8.40625 Q 42.046875 3.421875 37.71875 1 Q 33.40625 -1.421875 27.6875 -1.421875 Q 18.265625 -1.421875 13.375 4.4375 Q 8.5 10.296875 8.5 21.578125 z M 31.109375 56 z"/><path id="DejaVuSans-100" d="M 45.40625 46.390625 L 45.40625 75.984375 L 54.390625 75.984375 L 54.390625 0 L 45.40625 0 L 45.40625 8.203125 Q 42.578125 3.328125 38.25 0.953125 Q 33.9375 -1.421875 27.875 -1.421875 Q 17.96875 -1.421875 11.734375 6.484375 Q 5.515625 14.40625 5.515625 27.296875 Q 5.515625 40.1875 11.734375 48.09375 Q 17.96875 56 27.875 56 Q 33.9375 56 38.25 53.625 Q 42.578125 51.265625 45.40625 46.390625 z M 14.796875 27.296875 Q 14.796875 17.390625 18.875 11.75 Q 22.953125 6.109375 30.078125 6.109375 Q 37.203125 6.109375 41.296875 11.75 Q 45.40625 17.390625 45.40625 27.296875 Q 45.40625 37.203125 41.296875 42.84375 Q 37.203125 48.484375 30.078125 48.484375 Q 22.953125 48.484375 18.875 42.84375 Q 14.796875 37.203125 14.796875 27.296875 z"/></defs><g transform="translate(18.575 98.152656)rotate(-90)scale(0.1 -0.1)"><use xlink:href="#DejaVuSans-65"/><use x="68.408" xlink:href="#DejaVuSans-109"/><use x="165.82" xlink:href="#DejaVuSans-112"/><use x="229.297" xlink:href="#DejaVuSans-108"/><use x="257.08" xlink:href="#DejaVuSans-105"/><use x="284.863" xlink:href="#DejaVuSans-116"/><use x="324.072" xlink:href="#DejaVuSans-117"/><use x="387.451" xlink:href="#DejaVuSans-100"/><use x="450.928" xlink:href="#DejaVuSans-101"/></g></g></g><g id="line2d_19"><path d="M 62.3 88.608343 L 63.363067 83.512076 L 64.426133 74.463363 L 65.4892 63.729073 L 66.552267 51.06037 L 67.615333 39.184134 L 68.6784 29.292769 L 69.741467 22.39765 L 70.804533 21.513471 L 71.8676 24.644892 L 72.930667 34.754951 L 73.993733 48.824215 L 75.0568 66.804479 L 76.119867 84.68876 L 77.182933 101.238391 L 78.246 114.26653 L 79.309067 122.07991 L 80.372133 123.446415 L 81.4352 119.855283 L 82.498267 113.062759 L 83.561333 103.38797 L 84.6244 93.617039 L 85.687467 85.862327 L 86.750533 80.6256 L 87.8136 79.161995 L 88.876667 80.842096 L 89.939733 85.370065 L 91.0028 90.951217 L 92.065867 96.066551 L 93.128933 100.676346 L 94.192 102.867175 L 95.255067 103.237302 L 96.318133 101.803454 L 97.3812 99.663422 L 98.444267 96.802834 L 99.507333 94.290037 L 100.5704 92.363699 L 101.633467 91.14423 L 102.696533 91.055582 L 103.7596 92.130774 L 104.822667 93.050205 L 105.885733 94.391514 L 106.9488 95.42342 L 108.011867 96.079002 L 109.074933 95.942319 L 110.138 95.995725 L 111.201067 95.703574 L 112.264133 95.565994" clip-path="url(#p31d2ef5f29)" style="fill:none;stroke:#000;stroke-linecap:square;stroke-width:1.5"/></g><g id="line2d_20"><path d="M 62.3 89.685266 L 63.363067 85.098388 L 64.426133 77.403622 L 65.4892 67.264421 L 66.552267 55.776129 L 67.615333 43.913268 L 68.6784 33.23933 L 69.741467 25.413441 L 70.804533 21.828647 L 71.8676 23.565889 L 72.930667 30.981304 L 73.993733 43.504617 L 75.0568 59.585472 L 76.119867 77.402326 L 77.182933 94.669053 L 78.246 109.05079 L 79.309067 119.005546 L 80.372133 123.546529 L 81.4352 122.643204 L 82.498267 117.074177 L 83.561333 108.452561 L 84.6244 98.784458 L 85.687467 89.977048 L 86.750533 83.345758 L 87.8136 79.984041 L 88.876667 79.912757 L 89.939733 82.8157 L 91.0028 87.559616 L 92.065867 93.164177 L 93.128933 98.073042 L 94.192 101.719783 L 95.255067 103.50758 L 96.318133 103.498885 L 97.3812 101.871923 L 98.444267 99.347628 L 99.507333 96.562057 L 100.5704 94.130835 L 101.633467 92.362166 L 102.696533 91.529972 L 103.7596 91.549735 L 104.822667 92.134322 L 105.885733 92.975969 L 106.9488 93.913327 L 108.011867 94.705826 L 109.074933 95.218156 L 110.138 95.509767 L 111.201067 95.470012 L 112.264133 95.387402" clip-path="url(#p31d2ef5f29)" style="fill:none;stroke:red;stroke-linecap:square;stroke-width:1.5"/></g><g id="patch_3"><path d="M 62.3 134.26 L 62.3 10.8" style="fill:none;stroke:#000;stroke-linecap:square;stroke-linejoin:miter;stroke-width:.8"/></g><g id="patch_4"><path d="M 221.76 134.26 L 221.76 10.8" style="fill:none;stroke:#000;stroke-linecap:square;stroke-linejoin:miter;stroke-width:.8"/></g><g id="patch_5"><path d="M 62.3 134.26 L 221.76 134.26" style="fill:none;stroke:#000;stroke-linecap:square;stroke-linejoin:miter;stroke-width:.8"/></g><g id="patch_6"><path d="M 62.3 10.8 L 221.76 10.8" style="fill:none;stroke:#000;stroke-linecap:square;stroke-linejoin:miter;stroke-width:.8"/></g></g><g id="axes_2"><g id="patch_7"><path d="M 282.62 134.26 L 442.08 134.26 L 442.08 10.8 L 282.62 10.8 z" style="fill:#fff"/></g><g id="PolyCollection_2"><defs><path id="m0be808bea2" d="M 301.7552 -331.899204 L 301.7552 -205.666592 L 314.512 -205.666592 L 314.512 -331.899204 L 314.512 -331.899204 L 301.7552 -331.899204 z" style="stroke:#fea"/></defs><g clip-path="url(#pe729a18ff6)"><use style="fill:#fea;stroke:#fea" x="0" y="345.6" xlink:href="#m0be808bea2"/></g></g><g id="matplotlib.axis_3"><g id="xtick_5"><g id="line2d_21"><path d="M 282.62 134.26 L 282.62 10.8" clip-path="url(#pe729a18ff6)" style="fill:none;stroke:gray;stroke-linecap:square;stroke-width:.8"/></g><g id="line2d_22"><g><use style="stroke:#000;stroke-width:.8" x="282.62" y="134.26" xlink:href="#mf0dcd7ad92"/></g></g><g id="text_12"><g transform="translate(274.668437 148.858437)scale(0.1 -0.1)"><use xlink:href="#DejaVuSans-48"/><use x="63.623" xlink:href="#DejaVuSans-46"/><use x="95.41" xlink:href="#DejaVuSans-48"/></g></g></g><g id="xtick_6"><g id="line2d_23"><path d="M 314.512 134.26 L 314.512 10.8" clip-path="url(#pe729a18ff6)" style="fill:none;stroke:gray;stroke-linecap:square;stroke-width:.8"/></g><g id="line2d_24"><g><use style="stroke:#000;stroke-width:.8" x="314.512" y="134.26" xlink:href="#mf0dcd7ad92"/></g></g><g id="text_13"><defs><path id="DejaVuSans-50" d="M 19.1875 8.296875 L 53.609375 8.296875 L 53.609375 0 L 7.328125 0 L 7.328125 8.296875 Q 12.9375 14.109375 22.625 23.890625 Q 32.328125 33.6875 34.8125 36.53125 Q 39.546875 41.84375 41.421875 45.53125 Q 43.3125 49.21875 43.3125 52.78125 Q 43.3125 58.59375 39.234375 62.25 Q 35.15625 65.921875 28.609375 65.921875 Q 23.96875 65.921875 18.8125 64.3125 Q 13.671875 62.703125 7.8125 59.421875 L 7.8125 69.390625 Q 13.765625 71.78125 18.9375 73 Q 24.125 74.21875 28.421875 74.21875 Q 39.75 74.21875 46.484375 68.546875 Q 53.21875 62.890625 53.21875 53.421875 Q 53.21875 48.921875 51.53125 44.890625 Q 49.859375 40.875 45.40625 35.40625 Q 44.1875 33.984375 37.640625 27.21875 Q 31.109375 20.453125 19.1875 8.296875 z"/></defs><g transform="translate(306.560437 148.858437)scale(0.1 -0.1)"><use xlink:href="#DejaVuSans-48"/><use x="63.623" xlink:href="#DejaVuSans-46"/><use x="95.41" xlink:href="#DejaVuSans-50"/></g></g></g><g id="xtick_7"><g id="line2d_25"><path d="M 346.404 134.26 L 346.404 10.8" clip-path="url(#pe729a18ff6)" style="fill:none;stroke:gray;stroke-linecap:square;stroke-width:.8"/></g><g id="line2d_26"><g><use style="stroke:#000;stroke-width:.8" x="346.404" y="134.26" xlink:href="#mf0dcd7ad92"/></g></g><g id="text_14"><defs><path id="DejaVuSans-52" d="M 37.796875 64.3125 L 12.890625 25.390625 L 37.796875 25.390625 z M 35.203125 72.90625 L 47.609375 72.90625 L 47.609375 25.390625 L 58.015625 25.390625 L 58.015625 17.1875 L 47.609375 17.1875 L 47.609375 0 L 37.796875 0 L 37.796875 17.1875 L 4.890625 17.1875 L 4.890625 26.703125 z"/></defs><g transform="translate(338.452437 148.858437)scale(0.1 -0.1)"><use xlink:href="#DejaVuSans-48"/><use x="63.623" xlink:href="#DejaVuSans-46"/><use x="95.41" xlink:href="#DejaVuSans-52"/></g></g></g><g id="xtick_8"><g id="line2d_27"><path d="M 378.296 134.26 L 378.296 10.8" clip-path="url(#pe729a18ff6)" style="fill:none;stroke:gray;stroke-linecap:square;stroke-width:.8"/></g><g id="line2d_28"><g><use style="stroke:#000;stroke-width:.8" x="378.296" y="134.26" xlink:href="#mf0dcd7ad92"/></g></g><g id="text_15"><defs><path id="DejaVuSans-54" d="M 33.015625 40.375 Q 26.375 40.375 22.484375 35.828125 Q 18.609375 31.296875 18.609375 23.390625 Q 18.609375 15.53125 22.484375 10.953125 Q 26.375 6.390625 33.015625 6.390625 Q 39.65625 6.390625 43.53125 10.953125 Q 47.40625 15.53125 47.40625 23.390625 Q 47.40625 31.296875 43.53125 35.828125 Q 39.65625 40.375 33.015625 40.375 z M 52.59375 71.296875 L 52.59375 62.3125 Q 48.875 64.0625 45.09375 64.984375 Q 41.3125 65.921875 37.59375 65.921875 Q 27.828125 65.921875 22.671875 59.328125 Q 17.53125 52.734375 16.796875 39.40625 Q 19.671875 43.65625 24.015625 45.921875 Q 28.375 48.1875 33.59375 48.1875 Q 44.578125 48.1875 50.953125 41.515625 Q 57.328125 34.859375 57.328125 23.390625 Q 57.328125 12.15625 50.6875 5.359375 Q 44.046875 -1.421875 33.015625 -1.421875 Q 20.359375 -1.421875 13.671875 8.265625 Q 6.984375 17.96875 6.984375 36.375 Q 6.984375 53.65625 15.1875 63.9375 Q 23.390625 74.21875 37.203125 74.21875 Q 40.921875 74.21875 44.703125 73.484375 Q 48.484375 72.75 52.59375 71.296875 z"/></defs><g transform="translate(370.344437 148.858437)scale(0.1 -0.1)"><use xlink:href="#DejaVuSans-48"/><use x="63.623" xlink:href="#DejaVuSans-46"/><use x="95.41" xlink:href="#DejaVuSans-54"/></g></g></g><g id="xtick_9"><g id="line2d_29"><path d="M 410.188 134.26 L 410.188 10.8" clip-path="url(#pe729a18ff6)" style="fill:none;stroke:gray;stroke-linecap:square;stroke-width:.8"/></g><g id="line2d_30"><g><use style="stroke:#000;stroke-width:.8" x="410.188" y="134.26" xlink:href="#mf0dcd7ad92"/></g></g><g id="text_16"><defs><path id="DejaVuSans-56" d="M 31.78125 34.625 Q 24.75 34.625 20.71875 30.859375 Q 16.703125 27.09375 16.703125 20.515625 Q 16.703125 13.921875 20.71875 10.15625 Q 24.75 6.390625 31.78125 6.390625 Q 38.8125 6.390625 42.859375 10.171875 Q 46.921875 13.96875 46.921875 20.515625 Q 46.921875 27.09375 42.890625 30.859375 Q 38.875 34.625 31.78125 34.625 z M 21.921875 38.8125 Q 15.578125 40.375 12.03125 44.71875 Q 8.5 49.078125 8.5 55.328125 Q 8.5 64.0625 14.71875 69.140625 Q 20.953125 74.21875 31.78125 74.21875 Q 42.671875 74.21875 48.875 69.140625 Q 55.078125 64.0625 55.078125 55.328125 Q 55.078125 49.078125 51.53125 44.71875 Q 48 40.375 41.703125 38.8125 Q 48.828125 37.15625 52.796875 32.3125 Q 56.78125 27.484375 56.78125 20.515625 Q 56.78125 9.90625 50.3125 4.234375 Q 43.84375 -1.421875 31.78125 -1.421875 Q 19.734375 -1.421875 13.25 4.234375 Q 6.78125 9.90625 6.78125 20.515625 Q 6.78125 27.484375 10.78125 32.3125 Q 14.796875 37.15625 21.921875 38.8125 z M 18.3125 54.390625 Q 18.3125 48.734375 21.84375 45.5625 Q 25.390625 42.390625 31.78125 42.390625 Q 38.140625 42.390625 41.71875 45.5625 Q 45.3125 48.734375 45.3125 54.390625 Q 45.3125 60.0625 41.71875 63.234375 Q 38.140625 66.40625 31.78125 66.40625 Q 25.390625 66.40625 21.84375 63.234375 Q 18.3125 60.0625 18.3125 54.390625 z"/></defs><g transform="translate(402.236437 148.858437)scale(0.1 -0.1)"><use xlink:href="#DejaVuSans-48"/><use x="63.623" xlink:href="#DejaVuSans-46"/><use x="95.41" xlink:href="#DejaVuSans-56"/></g></g></g><g id="xtick_10"><g id="line2d_31"><path d="M 442.08 134.26 L 442.08 10.8" clip-path="url(#pe729a18ff6)" style="fill:none;stroke:gray;stroke-linecap:square;stroke-width:.8"/></g><g id="line2d_32"><g><use style="stroke:#000;stroke-width:.8" x="442.08" y="134.26" xlink:href="#mf0dcd7ad92"/></g></g><g id="text_17"><g transform="translate(434.128437 148.858437)scale(0.1 -0.1)"><use xlink:href="#DejaVuSans-49"/><use x="63.623" xlink:href="#DejaVuSans-46"/><use x="95.41" xlink:href="#DejaVuSans-48"/></g></g></g><g id="text_18"><defs><path id="DejaVuSans-70" d="M 9.8125 72.90625 L 51.703125 72.90625 L 51.703125 64.59375 L 19.671875 64.59375 L 19.671875 43.109375 L 48.578125 43.109375 L 48.578125 34.8125 L 19.671875 34.8125 L 19.671875 0 L 9.8125 0 z"/><path id="DejaVuSans-114" d="M 41.109375 46.296875 Q 39.59375 47.171875 37.8125 47.578125 Q 36.03125 48 33.890625 48 Q 26.265625 48 22.1875 43.046875 Q 18.109375 38.09375 18.109375 28.8125 L 18.109375 0 L 9.078125 0 L 9.078125 54.6875 L 18.109375 54.6875 L 18.109375 46.1875 Q 20.953125 51.171875 25.484375 53.578125 Q 30.03125 56 36.53125 56 Q 37.453125 56 38.578125 55.875 Q 39.703125 55.765625 41.0625 55.515625 z"/><path id="DejaVuSans-113" d="M 14.796875 27.296875 Q 14.796875 17.390625 18.875 11.75 Q 22.953125 6.109375 30.078125 6.109375 Q 37.203125 6.109375 41.296875 11.75 Q 45.40625 17.390625 45.40625 27.296875 Q 45.40625 37.203125 41.296875 42.84375 Q 37.203125 48.484375 30.078125 48.484375 Q 22.953125 48.484375 18.875 42.84375 Q 14.796875 37.203125 14.796875 27.296875 z M 45.40625 8.203125 Q 42.578125 3.328125 38.25 0.953125 Q 33.9375 -1.421875 27.875 -1.421875 Q 17.96875 -1.421875 11.734375 6.484375 Q 5.515625 14.40625 5.515625 27.296875 Q 5.515625 40.1875 11.734375 48.09375 Q 17.96875 56 27.875 56 Q 33.9375 56 38.25 53.625 Q 42.578125 51.265625 45.40625 46.390625 L 45.40625 54.6875 L 54.390625 54.6875 L 54.390625 -20.796875 L 45.40625 -20.796875 z"/><path id="DejaVuSans-110" d="M 54.890625 33.015625 L 54.890625 0 L 45.90625 0 L 45.90625 32.71875 Q 45.90625 40.484375 42.875 44.328125 Q 39.84375 48.1875 33.796875 48.1875 Q 26.515625 48.1875 22.3125 43.546875 Q 18.109375 38.921875 18.109375 30.90625 L 18.109375 0 L 9.078125 0 L 9.078125 54.6875 L 18.109375 54.6875 L 18.109375 46.1875 Q 21.34375 51.125 25.703125 53.5625 Q 30.078125 56 35.796875 56 Q 45.21875 56 50.046875 50.171875 Q 54.890625 44.34375 54.890625 33.015625 z"/><path id="DejaVuSans-99" d="M 48.78125 52.59375 L 48.78125 44.1875 Q 44.96875 46.296875 41.140625 47.34375 Q 37.3125 48.390625 33.40625 48.390625 Q 24.65625 48.390625 19.8125 42.84375 Q 14.984375 37.3125 14.984375 27.296875 Q 14.984375 17.28125 19.8125 11.734375 Q 24.65625 6.203125 33.40625 6.203125 Q 37.3125 6.203125 41.140625 7.25 Q 44.96875 8.296875 48.78125 10.40625 L 48.78125 2.09375 Q 45.015625 0.34375 40.984375 -0.53125 Q 36.96875 -1.421875 32.421875 -1.421875 Q 20.0625 -1.421875 12.78125 6.34375 Q 5.515625 14.109375 5.515625 27.296875 Q 5.515625 40.671875 12.859375 48.328125 Q 20.21875 56 33.015625 56 Q 37.15625 56 41.109375 55.140625 Q 45.0625 54.296875 48.78125 52.59375 z"/><path id="DejaVuSans-121" d="M 32.171875 -5.078125 Q 28.375 -14.84375 24.75 -17.8125 Q 21.140625 -20.796875 15.09375 -20.796875 L 7.90625 -20.796875 L 7.90625 -13.28125 L 13.1875 -13.28125 Q 16.890625 -13.28125 18.9375 -11.515625 Q 21 -9.765625 23.484375 -3.21875 L 25.09375 0.875 L 2.984375 54.6875 L 12.5 54.6875 L 29.59375 11.921875 L 46.6875 54.6875 L 56.203125 54.6875 z"/></defs><g transform="translate(336.052344 162.536562)scale(0.1 -0.1)"><use xlink:href="#DejaVuSans-70"/><use x="57.41" xlink:href="#DejaVuSans-114"/><use x="98.492" xlink:href="#DejaVuSans-101"/><use x="160.016" xlink:href="#DejaVuSans-113"/><use x="223.492" xlink:href="#DejaVuSans-117"/><use x="286.871" xlink:href="#DejaVuSans-101"/><use x="348.395" xlink:href="#DejaVuSans-110"/><use x="411.773" xlink:href="#DejaVuSans-99"/><use x="466.754" xlink:href="#DejaVuSans-121"/></g></g></g><g id="matplotlib.axis_4"><g id="ytick_6"><g id="line2d_33"><path d="M 282.62 134.26 L 442.08 134.26" clip-path="url(#pe729a18ff6)" style="fill:none;stroke:gray;stroke-linecap:square;stroke-width:.8"/></g><g id="line2d_34"><g><use style="stroke:#000;stroke-width:.8" x="282.62" y="134.26" xlink:href="#m11813d1505"/></g></g><g id="text_19"><g transform="translate(259.716875 138.059219)scale(0.1 -0.1)"><use xlink:href="#DejaVuSans-48"/><use x="63.623" xlink:href="#DejaVuSans-46"/><use x="95.41" xlink:href="#DejaVuSans-48"/></g></g></g><g id="ytick_7"><g id="line2d_35"><path d="M 282.62 111.812727 L 442.08 111.812727" clip-path="url(#pe729a18ff6)" style="fill:none;stroke:gray;stroke-linecap:square;stroke-width:.8"/></g><g id="line2d_36"><g><use style="stroke:#000;stroke-width:.8" x="282.62" y="111.813" xlink:href="#m11813d1505"/></g></g><g id="text_20"><g transform="translate(259.716875 115.611946)scale(0.1 -0.1)"><use xlink:href="#DejaVuSans-48"/><use x="63.623" xlink:href="#DejaVuSans-46"/><use x="95.41" xlink:href="#DejaVuSans-50"/></g></g></g><g id="ytick_8"><g id="line2d_37"><path d="M 282.62 89.365455 L 442.08 89.365455" clip-path="url(#pe729a18ff6)" style="fill:none;stroke:gray;stroke-linecap:square;stroke-width:.8"/></g><g id="line2d_38"><g><use style="stroke:#000;stroke-width:.8" x="282.62" y="89.365" xlink:href="#m11813d1505"/></g></g><g id="text_21"><g transform="translate(259.716875 93.164673)scale(0.1 -0.1)"><use xlink:href="#DejaVuSans-48"/><use x="63.623" xlink:href="#DejaVuSans-46"/><use x="95.41" xlink:href="#DejaVuSans-52"/></g></g></g><g id="ytick_9"><g id="line2d_39"><path d="M 282.62 66.918182 L 442.08 66.918182" clip-path="url(#pe729a18ff6)" style="fill:none;stroke:gray;stroke-linecap:square;stroke-width:.8"/></g><g id="line2d_40"><g><use style="stroke:#000;stroke-width:.8" x="282.62" y="66.918" xlink:href="#m11813d1505"/></g></g><g id="text_22"><g transform="translate(259.716875 70.717401)scale(0.1 -0.1)"><use xlink:href="#DejaVuSans-48"/><use x="63.623" xlink:href="#DejaVuSans-46"/><use x="95.41" xlink:href="#DejaVuSans-54"/></g></g></g><g id="ytick_10"><g id="line2d_41"><path d="M 282.62 44.470909 L 442.08 44.470909" clip-path="url(#pe729a18ff6)" style="fill:none;stroke:gray;stroke-linecap:square;stroke-width:.8"/></g><g id="line2d_42"><g><use style="stroke:#000;stroke-width:.8" x="282.62" y="44.471" xlink:href="#m11813d1505"/></g></g><g id="text_23"><g transform="translate(259.716875 48.270128)scale(0.1 -0.1)"><use xlink:href="#DejaVuSans-48"/><use x="63.623" xlink:href="#DejaVuSans-46"/><use x="95.41" xlink:href="#DejaVuSans-56"/></g></g></g><g id="ytick_11"><g id="line2d_43"><path d="M 282.62 22.023636 L 442.08 22.023636" clip-path="url(#pe729a18ff6)" style="fill:none;stroke:gray;stroke-linecap:square;stroke-width:.8"/></g><g id="line2d_44"><g><use style="stroke:#000;stroke-width:.8" x="282.62" y="22.024" xlink:href="#m11813d1505"/></g></g><g id="text_24"><g transform="translate(259.716875 25.822855)scale(0.1 -0.1)"><use xlink:href="#DejaVuSans-49"/><use x="63.623" xlink:href="#DejaVuSans-46"/><use x="95.41" xlink:href="#DejaVuSans-48"/></g></g></g><g id="text_25"><defs><path id="DejaVuSans-77" d="M 9.8125 72.90625 L 24.515625 72.90625 L 43.109375 23.296875 L 61.8125 72.90625 L 76.515625 72.90625 L 76.515625 0 L 66.890625 0 L 66.890625 64.015625 L 48.09375 14.015625 L 38.1875 14.015625 L 19.390625 64.015625 L 19.390625 0 L 9.8125 0 z"/><path id="DejaVuSans-103" d="M 45.40625 27.984375 Q 45.40625 37.75 41.375 43.109375 Q 37.359375 48.484375 30.078125 48.484375 Q 22.859375 48.484375 18.828125 43.109375 Q 14.796875 37.75 14.796875 27.984375 Q 14.796875 18.265625 18.828125 12.890625 Q 22.859375 7.515625 30.078125 7.515625 Q 37.359375 7.515625 41.375 12.890625 Q 45.40625 18.265625 45.40625 27.984375 z M 54.390625 6.78125 Q 54.390625 -7.171875 48.1875 -13.984375 Q 42 -20.796875 29.203125 -20.796875 Q 24.46875 -20.796875 20.265625 -20.09375 Q 16.0625 -19.390625 12.109375 -17.921875 L 12.109375 -9.1875 Q 16.0625 -11.328125 19.921875 -12.34375 Q 23.78125 -13.375 27.78125 -13.375 Q 36.625 -13.375 41.015625 -8.765625 Q 45.40625 -4.15625 45.40625 5.171875 L 45.40625 9.625 Q 42.625 4.78125 38.28125 2.390625 Q 33.9375 0 27.875 0 Q 17.828125 0 11.671875 7.65625 Q 5.515625 15.328125 5.515625 27.984375 Q 5.515625 40.671875 11.671875 48.328125 Q 17.828125 56 27.875 56 Q 33.9375 56 38.28125 53.609375 Q 42.625 51.21875 45.40625 46.390625 L 45.40625 54.6875 L 54.390625 54.6875 z"/></defs><g transform="translate(253.637187 99.019844)rotate(-90)scale(0.1 -0.1)"><use xlink:href="#DejaVuSans-77"/><use x="86.279" xlink:href="#DejaVuSans-97"/><use x="147.559" xlink:href="#DejaVuSans-103"/><use x="211.035" xlink:href="#DejaVuSans-110"/><use x="274.414" xlink:href="#DejaVuSans-105"/><use x="302.197" xlink:href="#DejaVuSans-116"/><use x="341.406" xlink:href="#DejaVuSans-117"/><use x="404.785" xlink:href="#DejaVuSans-100"/><use x="468.262" xlink:href="#DejaVuSans-101"/></g></g></g><g id="line2d_45"><path d="M 282.62 20.726777 L 283.554336 20.831857 L 284.800117 21.259098 L 287.603125 22.478692 L 288.537461 22.594892 L 289.471797 22.491906 L 291.963359 21.999924 L 292.897695 22.160259 L 293.832031 22.574796 L 295.389258 23.339133 L 296.012148 23.434839 L 296.635039 23.31006 L 297.25793 22.950034 L 298.192266 22.0794 L 299.126602 21.181803 L 299.749492 20.864542 L 300.060937 20.865929 L 300.372383 21.007424 L 300.683828 21.312627 L 301.306719 22.498622 L 301.929609 24.56657 L 302.5525 27.609817 L 303.175391 31.666059 L 304.109727 39.592631 L 305.044062 49.455674 L 306.601289 68.758945 L 309.092852 100.192005 L 310.338633 113.082237 L 311.272969 120.7569 L 312.207305 126.593251 L 312.830195 129.492356 L 313.453086 131.660639 L 314.075977 133.170882 L 314.387422 133.693049 L 314.698867 133.996825 L 315.321758 133.740566 L 315.944648 133.550901 L 316.878984 133.592947 L 317.81332 133.661752 L 319.059102 133.448366 L 320.304883 133.316213 L 321.550664 133.482532 L 323.419336 133.837255 L 324.353672 133.637665 L 326.222344 133.18962 L 327.468125 133.13417 L 329.025352 133.343889 L 331.516914 134.000347 L 332.45125 134.195562 L 334.319922 133.876008 L 336.188594 133.744774 L 338.680156 133.874931 L 340.237383 133.850581 L 343.351836 133.674836 L 349.580742 133.760113 L 356.432539 133.454227 L 359.858437 133.626365 L 362.972891 133.523305 L 364.530117 133.728709 L 367.02168 134.106172 L 370.759023 133.778372 L 372.627695 133.659378 L 376.676484 133.21106 L 378.233711 133.34538 L 382.2825 133.896887 L 386.642734 133.698118 L 390.691523 133.763501 L 395.051758 133.563742 L 397.854766 133.794032 L 400.346328 133.921562 L 405.952344 133.878873 L 408.755352 133.676018 L 411.246914 133.770612 L 414.361367 133.883623 L 416.541484 133.696303 L 420.590273 133.216653 L 422.770391 133.281143 L 425.573398 133.370392 L 428.999297 133.330038 L 432.425195 133.436765 L 435.228203 133.423432 L 436.78543 133.664628 L 438.965547 134.108075 L 440.211328 133.912359 L 441.768555 133.7292 L 441.768555 133.7292" clip-path="url(#pe729a18ff6)" style="fill:none;stroke:#000;stroke-linecap:square;stroke-width:1.5"/></g><g id="line2d_46"><path d="M 282.62 21.303425 L 283.242891 21.386995 L 284.177227 21.775385 L 285.734453 22.577649 L 286.357344 22.721027 L 286.980234 22.677006 L 287.603125 22.437061 L 288.537461 21.797445 L 289.783242 20.871635 L 290.406133 20.606853 L 291.029023 20.585374 L 291.651914 20.845278 L 292.274805 21.374765 L 293.209141 22.519921 L 294.454922 24.036218 L 295.077812 24.458335 L 295.700703 24.499147 L 296.323594 24.113631 L 296.946484 23.337312 L 298.192266 21.149309 L 298.815156 20.150346 L 299.438047 19.532264 L 299.749492 19.438642 L 300.060937 19.523713 L 300.372383 19.810531 L 300.683828 20.319043 L 301.306719 22.063695 L 301.929609 24.846007 L 302.5525 28.694512 L 303.486836 36.387062 L 304.421172 46.084649 L 305.978398 65.232743 L 308.781406 100.35523 L 310.027187 112.8939 L 310.961523 120.341847 L 311.895859 126.028333 L 312.830195 130.045047 L 313.453086 131.894268 L 314.075977 133.167248 L 314.698867 133.890561 L 315.010312 133.966446 L 316.256094 133.752942 L 319.059102 133.865428 L 320.616328 133.78428 L 324.042227 133.859924 L 326.222344 133.826814 L 328.713906 133.884073 L 331.828359 133.751623 L 335.565703 133.825835 L 338.057266 133.76819 L 342.4175 133.917679 L 345.220508 133.809747 L 355.498203 133.839288 L 359.858437 133.766785 L 371.381914 133.830725 L 373.873477 133.874995 L 379.479492 133.783757 L 430.556523 133.874896 L 433.048086 133.847447 L 436.473984 133.740617 L 441.768555 133.870631 L 441.768555 133.870631" clip-path="url(#pe729a18ff6)" style="fill:none;stroke:red;stroke-linecap:square;stroke-width:1.5"/></g><g id="patch_8"><path d="M 282.62 134.26 L 282.62 10.8" style="fill:none;stroke:#000;stroke-linecap:square;stroke-linejoin:miter;stroke-width:.8"/></g><g id="patch_9"><path d="M 442.08 134.26 L 442.08 10.8" style="fill:none;stroke:#000;stroke-linecap:square;stroke-linejoin:miter;stroke-width:.8"/></g><g id="patch_10"><path d="M 282.62 134.26 L 442.08 134.26" style="fill:none;stroke:#000;stroke-linecap:square;stroke-linejoin:miter;stroke-width:.8"/></g><g id="patch_11"><path d="M 282.62 10.8 L 442.08 10.8" style="fill:none;stroke:#000;stroke-linecap:square;stroke-linejoin:miter;stroke-width:.8"/></g><g id="legend_1"><g id="patch_12"><path d="M 359.900312 62.834375 L 435.08 62.834375 Q 437.08 62.834375 437.08 60.834375 L 437.08 17.8 Q 437.08 15.8 435.08 15.8 L 359.900312 15.8 Q 357.900312 15.8 357.900312 17.8 L 357.900312 60.834375 Q 357.900312 62.834375 359.900312 62.834375 z" style="fill:#fff;opacity:.8;stroke:#ccc;stroke-linejoin:miter"/></g><g id="text_26"><defs><path id="DejaVuSans-80" d="M 19.671875 64.796875 L 19.671875 37.40625 L 32.078125 37.40625 Q 38.96875 37.40625 42.71875 40.96875 Q 46.484375 44.53125 46.484375 51.125 Q 46.484375 57.671875 42.71875 61.234375 Q 38.96875 64.796875 32.078125 64.796875 z M 9.8125 72.90625 L 32.078125 72.90625 Q 44.34375 72.90625 50.609375 67.359375 Q 56.890625 61.8125 56.890625 51.125 Q 56.890625 40.328125 50.609375 34.8125 Q 44.34375 29.296875 32.078125 29.296875 L 19.671875 29.296875 L 19.671875 0 L 9.8125 0 z"/><path id="DejaVuSans-104" d="M 54.890625 33.015625 L 54.890625 0 L 45.90625 0 L 45.90625 32.71875 Q 45.90625 40.484375 42.875 44.328125 Q 39.84375 48.1875 33.796875 48.1875 Q 26.515625 48.1875 22.3125 43.546875 Q 18.109375 38.921875 18.109375 30.90625 L 18.109375 0 L 9.078125 0 L 9.078125 75.984375 L 18.109375 75.984375 L 18.109375 46.1875 Q 21.34375 51.125 25.703125 53.5625 Q 30.078125 56 35.796875 56 Q 45.21875 56 50.046875 50.171875 Q 54.890625 44.34375 54.890625 33.015625 z"/></defs><g transform="translate(382.56125 27.398438)scale(0.1 -0.1)"><use xlink:href="#DejaVuSans-80"/><use x="60.303" xlink:href="#DejaVuSans-104"/><use x="123.682" xlink:href="#DejaVuSans-97"/><use x="184.961" xlink:href="#DejaVuSans-115"/><use x="237.061" xlink:href="#DejaVuSans-101"/></g></g><g id="line2d_47"><path d="M 361.900312 38.576563 L 381.900312 38.576563" style="fill:none;stroke:#000;stroke-linecap:square;stroke-width:1.5"/></g><g id="text_27"><defs><path id="DejaVuSans-79" d="M 39.40625 66.21875 Q 28.65625 66.21875 22.328125 58.203125 Q 16.015625 50.203125 16.015625 36.375 Q 16.015625 22.609375 22.328125 14.59375 Q 28.65625 6.59375 39.40625 6.59375 Q 50.140625 6.59375 56.421875 14.59375 Q 62.703125 22.609375 62.703125 36.375 Q 62.703125 50.203125 56.421875 58.203125 Q 50.140625 66.21875 39.40625 66.21875 z M 39.40625 74.21875 Q 54.734375 74.21875 63.90625 63.9375 Q 73.09375 53.65625 73.09375 36.375 Q 73.09375 19.140625 63.90625 8.859375 Q 54.734375 -1.421875 39.40625 -1.421875 Q 24.03125 -1.421875 14.8125 8.828125 Q 5.609375 19.09375 5.609375 36.375 Q 5.609375 53.65625 14.8125 63.9375 Q 24.03125 74.21875 39.40625 74.21875 z"/><path id="DejaVuSans-40" d="M 31 75.875 Q 24.46875 64.65625 21.28125 53.65625 Q 18.109375 42.671875 18.109375 31.390625 Q 18.109375 20.125 21.3125 9.0625 Q 24.515625 -2 31 -13.1875 L 23.1875 -13.1875 Q 15.875 -1.703125 12.234375 9.375 Q 8.59375 20.453125 8.59375 31.390625 Q 8.59375 42.28125 12.203125 53.3125 Q 15.828125 64.359375 23.1875 75.875 z"/><path id="DejaVuSans-41" d="M 8.015625 75.875 L 15.828125 75.875 Q 23.140625 64.359375 26.78125 53.3125 Q 30.421875 42.28125 30.421875 31.390625 Q 30.421875 20.453125 26.78125 9.375 Q 23.140625 -1.703125 15.828125 -13.1875 L 8.015625 -13.1875 Q 14.5 -2 17.703125 9.0625 Q 20.90625 20.125 20.90625 31.390625 Q 20.90625 42.671875 17.703125 53.65625 Q 14.5 64.65625 8.015625 75.875 z"/></defs><g transform="translate(389.900312 42.076563)scale(0.1 -0.1)"><use xlink:href="#DejaVuSans-79"/><use x="78.711" xlink:href="#DejaVuSans-117"/><use x="142.09" xlink:href="#DejaVuSans-114"/><use x="183.203" xlink:href="#DejaVuSans-40"/><use x="222.217" xlink:href="#DejaVuSans-99"/><use x="277.197" xlink:href="#DejaVuSans-115"/><use x="329.297" xlink:href="#DejaVuSans-100"/><use x="392.773" xlink:href="#DejaVuSans-41"/></g></g><g id="line2d_49"><path d="M 361.900312 53.254688 L 381.900312 53.254688" style="fill:none;stroke:red;stroke-linecap:square;stroke-width:1.5"/></g><g id="text_28"><g transform="translate(389.900312 56.754688)scale(0.1 -0.1)"><use xlink:href="#DejaVuSans-79"/><use x="78.711" xlink:href="#DejaVuSans-117"/><use x="142.09" xlink:href="#DejaVuSans-114"/></g></g></g></g><g id="axes_3"><g id="patch_13"><path d="M 62.3 303.64 L 221.76 303.64 L 221.76 180.18 L 62.3 180.18 z" style="fill:#fff"/></g><g id="PolyCollection_3"><defs><path id="m5d44278403" d="M 81.4352 -156.433019 L 81.4352 -58.324378 L 94.192 -58.324378 L 94.192 -156.433019 L 94.192 -156.433019 L 81.4352 -156.433019 z" style="stroke:#fea"/></defs><g clip-path="url(#p23cea4dd56)"><use style="fill:#fea;stroke:#fea" x="0" y="345.6" xlink:href="#m5d44278403"/></g></g><g id="matplotlib.axis_5"><g id="xtick_11"><g id="line2d_51"><path d="M 62.3 303.64 L 62.3 180.18" clip-path="url(#p23cea4dd56)" style="fill:none;stroke:gray;stroke-linecap:square;stroke-width:.8"/></g><g id="line2d_52"><g><use style="stroke:#000;stroke-width:.8" x="62.3" y="303.64" xlink:href="#mf0dcd7ad92"/></g></g><g id="text_29"><g transform="translate(54.348438 318.238437)scale(0.1 -0.1)"><use xlink:href="#DejaVuSans-48"/><use x="63.623" xlink:href="#DejaVuSans-46"/><use x="95.41" xlink:href="#DejaVuSans-48"/></g></g></g><g id="xtick_12"><g id="line2d_53"><path d="M 94.192 303.64 L 94.192 180.18" clip-path="url(#p23cea4dd56)" style="fill:none;stroke:gray;stroke-linecap:square;stroke-width:.8"/></g><g id="line2d_54"><g><use style="stroke:#000;stroke-width:.8" x="94.192" y="303.64" xlink:href="#mf0dcd7ad92"/></g></g><g id="text_30"><g transform="translate(86.240437 318.238437)scale(0.1 -0.1)"><use xlink:href="#DejaVuSans-48"/><use x="63.623" xlink:href="#DejaVuSans-46"/><use x="95.41" xlink:href="#DejaVuSans-50"/></g></g></g><g id="xtick_13"><g id="line2d_55"><path d="M 126.084 303.64 L 126.084 180.18" clip-path="url(#p23cea4dd56)" style="fill:none;stroke:gray;stroke-linecap:square;stroke-width:.8"/></g><g id="line2d_56"><g><use style="stroke:#000;stroke-width:.8" x="126.084" y="303.64" xlink:href="#mf0dcd7ad92"/></g></g><g id="text_31"><g transform="translate(118.132437 318.238437)scale(0.1 -0.1)"><use xlink:href="#DejaVuSans-48"/><use x="63.623" xlink:href="#DejaVuSans-46"/><use x="95.41" xlink:href="#DejaVuSans-52"/></g></g></g><g id="xtick_14"><g id="line2d_57"><path d="M 157.976 303.64 L 157.976 180.18" clip-path="url(#p23cea4dd56)" style="fill:none;stroke:gray;stroke-linecap:square;stroke-width:.8"/></g><g id="line2d_58"><g><use style="stroke:#000;stroke-width:.8" x="157.976" y="303.64" xlink:href="#mf0dcd7ad92"/></g></g><g id="text_32"><g transform="translate(150.024438 318.238437)scale(0.1 -0.1)"><use xlink:href="#DejaVuSans-48"/><use x="63.623" xlink:href="#DejaVuSans-46"/><use x="95.41" xlink:href="#DejaVuSans-54"/></g></g></g><g id="xtick_15"><g id="line2d_59"><path d="M 189.868 303.64 L 189.868 180.18" clip-path="url(#p23cea4dd56)" style="fill:none;stroke:gray;stroke-linecap:square;stroke-width:.8"/></g><g id="line2d_60"><g><use style="stroke:#000;stroke-width:.8" x="189.868" y="303.64" xlink:href="#mf0dcd7ad92"/></g></g><g id="text_33"><g transform="translate(181.916437 318.238437)scale(0.1 -0.1)"><use xlink:href="#DejaVuSans-48"/><use x="63.623" xlink:href="#DejaVuSans-46"/><use x="95.41" xlink:href="#DejaVuSans-56"/></g></g></g><g id="xtick_16"><g id="line2d_61"><path d="M 221.76 303.64 L 221.76 180.18" clip-path="url(#p23cea4dd56)" style="fill:none;stroke:gray;stroke-linecap:square;stroke-width:.8"/></g><g id="line2d_62"><g><use style="stroke:#000;stroke-width:.8" x="221.76" y="303.64" xlink:href="#mf0dcd7ad92"/></g></g><g id="text_34"><g transform="translate(213.808437 318.238437)scale(0.1 -0.1)"><use xlink:href="#DejaVuSans-49"/><use x="63.623" xlink:href="#DejaVuSans-46"/><use x="95.41" xlink:href="#DejaVuSans-48"/></g></g></g><g id="text_35"><g transform="translate(115.732344 331.916562)scale(0.1 -0.1)"><use xlink:href="#DejaVuSans-70"/><use x="57.41" xlink:href="#DejaVuSans-114"/><use x="98.492" xlink:href="#DejaVuSans-101"/><use x="160.016" xlink:href="#DejaVuSans-113"/><use x="223.492" xlink:href="#DejaVuSans-117"/><use x="286.871" xlink:href="#DejaVuSans-101"/><use x="348.395" xlink:href="#DejaVuSans-110"/><use x="411.773" xlink:href="#DejaVuSans-99"/><use x="466.754" xlink:href="#DejaVuSans-121"/></g></g></g><g id="matplotlib.axis_6"><g id="ytick_12"><g id="line2d_63"><path d="M 62.3 303.64 L 221.76 303.64" clip-path="url(#p23cea4dd56)" style="fill:none;stroke:gray;stroke-linecap:square;stroke-width:.8"/></g><g id="line2d_64"><g><use style="stroke:#000;stroke-width:.8" x="62.3" y="303.64" xlink:href="#m11813d1505"/></g></g><g id="text_36"><g transform="translate(34.195312 307.439219)scale(0.1 -0.1)"><use xlink:href="#DejaVuSans-8722"/><use x="83.789" xlink:href="#DejaVuSans-56"/><use x="147.412" xlink:href="#DejaVuSans-48"/></g></g></g><g id="ytick_13"><g id="line2d_65"><path d="M 62.3 276.204444 L 221.76 276.204444" clip-path="url(#p23cea4dd56)" style="fill:none;stroke:gray;stroke-linecap:square;stroke-width:.8"/></g><g id="line2d_66"><g><use style="stroke:#000;stroke-width:.8" x="62.3" y="276.204" xlink:href="#m11813d1505"/></g></g><g id="text_37"><g transform="translate(34.195312 280.003663)scale(0.1 -0.1)"><use xlink:href="#DejaVuSans-8722"/><use x="83.789" xlink:href="#DejaVuSans-54"/><use x="147.412" xlink:href="#DejaVuSans-48"/></g></g></g><g id="ytick_14"><g id="line2d_67"><path d="M 62.3 248.768889 L 221.76 248.768889" clip-path="url(#p23cea4dd56)" style="fill:none;stroke:gray;stroke-linecap:square;stroke-width:.8"/></g><g id="line2d_68"><g><use style="stroke:#000;stroke-width:.8" x="62.3" y="248.769" xlink:href="#m11813d1505"/></g></g><g id="text_38"><g transform="translate(34.195312 252.568108)scale(0.1 -0.1)"><use xlink:href="#DejaVuSans-8722"/><use x="83.789" xlink:href="#DejaVuSans-52"/><use x="147.412" xlink:href="#DejaVuSans-48"/></g></g></g><g id="ytick_15"><g id="line2d_69"><path d="M 62.3 221.333333 L 221.76 221.333333" clip-path="url(#p23cea4dd56)" style="fill:none;stroke:gray;stroke-linecap:square;stroke-width:.8"/></g><g id="line2d_70"><g><use style="stroke:#000;stroke-width:.8" x="62.3" y="221.333" xlink:href="#m11813d1505"/></g></g><g id="text_39"><g transform="translate(34.195312 225.132552)scale(0.1 -0.1)"><use xlink:href="#DejaVuSans-8722"/><use x="83.789" xlink:href="#DejaVuSans-50"/><use x="147.412" xlink:href="#DejaVuSans-48"/></g></g></g><g id="ytick_16"><g id="line2d_71"><path d="M 62.3 193.897778 L 221.76 193.897778" clip-path="url(#p23cea4dd56)" style="fill:none;stroke:gray;stroke-linecap:square;stroke-width:.8"/></g><g id="line2d_72"><g><use style="stroke:#000;stroke-width:.8" x="62.3" y="193.898" xlink:href="#m11813d1505"/></g></g><g id="text_40"><g transform="translate(48.9375 197.696997)scale(0.1 -0.1)"><use xlink:href="#DejaVuSans-48"/></g></g></g><g id="text_41"><defs><path id="DejaVuSans-32"/><path id="DejaVuSans-66" d="M 19.671875 34.8125 L 19.671875 8.109375 L 35.5 8.109375 Q 43.453125 8.109375 47.28125 11.40625 Q 51.125 14.703125 51.125 21.484375 Q 51.125 28.328125 47.28125 31.5625 Q 43.453125 34.8125 35.5 34.8125 z M 19.671875 64.796875 L 19.671875 42.828125 L 34.28125 42.828125 Q 41.5 42.828125 45.03125 45.53125 Q 48.578125 48.25 48.578125 53.8125 Q 48.578125 59.328125 45.03125 62.0625 Q 41.5 64.796875 34.28125 64.796875 z M 9.8125 72.90625 L 35.015625 72.90625 Q 46.296875 72.90625 52.390625 68.21875 Q 58.5 63.53125 58.5 54.890625 Q 58.5 48.1875 55.375 44.234375 Q 52.25 40.28125 46.1875 39.3125 Q 53.46875 37.75 57.5 32.78125 Q 61.53125 27.828125 61.53125 20.40625 Q 61.53125 10.640625 54.890625 5.3125 Q 48.25 0 35.984375 0 L 9.8125 0 z"/></defs><g transform="translate(28.115625 280.495156)rotate(-90)scale(0.1 -0.1)"><use xlink:href="#DejaVuSans-77"/><use x="86.279" xlink:href="#DejaVuSans-97"/><use x="147.559" xlink:href="#DejaVuSans-103"/><use x="211.035" xlink:href="#DejaVuSans-110"/><use x="274.414" xlink:href="#DejaVuSans-105"/><use x="302.197" xlink:href="#DejaVuSans-116"/><use x="341.406" xlink:href="#DejaVuSans-117"/><use x="404.785" xlink:href="#DejaVuSans-100"/><use x="468.262" xlink:href="#DejaVuSans-101"/><use x="529.785" xlink:href="#DejaVuSans-32"/><use x="561.572" xlink:href="#DejaVuSans-40"/><use x="600.586" xlink:href="#DejaVuSans-100"/><use x="664.063" xlink:href="#DejaVuSans-66"/><use x="732.666" xlink:href="#DejaVuSans-41"/></g></g></g><g id="line2d_73"><path d="M 62.3 193.760891 L 65.725898 193.880835 L 69.151797 193.947594 L 73.200586 193.939433 L 76.626484 194.018839 L 80.363828 193.822534 L 81.298164 194.046437 L 82.2325 194.506078 L 83.166836 195.250627 L 84.101172 196.322055 L 85.035508 197.759196 L 85.969844 199.602248 L 86.90418 201.897729 L 87.838516 204.704653 L 88.772852 208.103552 L 89.707187 212.211922 L 90.641523 217.214657 L 91.575859 223.434444 L 92.510195 231.53469 L 93.133086 238.762235 L 93.755977 249.127158 L 94.378867 266.050221 L 94.690313 262.885856 L 95.001758 257.948913 L 95.313203 255.390523 L 95.624648 254.24027 L 95.936094 253.972638 L 96.247539 254.293001 L 97.181875 256.263306 L 97.49332 256.265726 L 97.804766 255.682317 L 99.050547 251.81927 L 99.361992 251.240135 L 99.673437 250.90996 L 99.984883 250.833679 L 100.296328 251.013676 L 100.607773 251.453841 L 101.230664 253.143525 L 101.853555 255.932843 L 102.476445 259.295703 L 102.787891 260.399231 L 103.099336 260.403064 L 103.410781 259.288 L 104.656562 252.746403 L 105.279453 250.628444 L 105.902344 249.333944 L 106.525234 248.730968 L 106.83668 248.659741 L 107.148125 248.732146 L 107.45957 248.943946 L 108.082461 249.781017 L 108.705352 251.188313 L 109.328242 253.237665 L 109.951133 256.093176 L 110.574023 260.11601 L 111.196914 266.210781 L 111.508359 270.760406 L 112.13125 282.816139 L 113.065586 267.941672 L 113.688477 263.107796 L 114.311367 260.361058 L 114.934258 258.817779 L 115.557148 258.126939 L 115.868594 258.045824 L 116.180039 258.122359 L 116.80293 258.701266 L 117.42582 259.740118 L 118.360156 261.515323 L 118.671602 261.883772 L 118.983047 262.003424 L 119.294492 261.836924 L 119.605937 261.406984 L 120.540273 259.309566 L 121.474609 257.421468 L 122.0975 256.69412 L 122.720391 256.459953 L 123.031836 256.529194 L 123.654727 257.029288 L 124.277617 257.972277 L 126.146289 261.609054 L 126.457734 261.830227 L 126.76918 261.828158 L 127.080625 261.621531 L 127.703516 260.796974 L 129.260742 258.40595 L 131.752305 255.090852 L 133.309531 252.884352 L 133.932422 252.301478 L 134.555312 252.004058 L 135.178203 252.03346 L 135.801094 252.40601 L 136.423984 253.104422 L 138.292656 255.829639 L 138.604102 256.01018 L 138.915547 256.02159 L 139.226992 255.868675 L 139.849883 255.20362 L 141.095664 253.696093 L 141.718555 253.371919 L 142.03 253.379072 L 142.341445 253.513527 L 142.652891 253.785371 L 143.275781 254.786689 L 143.898672 256.500331 L 144.521562 259.119411 L 145.144453 262.978553 L 145.767344 268.486537 L 146.078789 271.53051 L 146.390234 273.325786 L 146.70168 272.448477 L 147.636016 265.253169 L 148.258906 262.193377 L 148.881797 260.395053 L 149.504687 259.445065 L 150.127578 258.999066 L 151.061914 258.43525 L 151.684805 257.583011 L 152.307695 256.218533 L 154.176367 251.573302 L 154.799258 250.52152 L 155.422148 249.846249 L 156.045039 249.564785 L 156.66793 249.687777 L 157.29082 250.22858 L 157.913711 251.20772 L 158.536602 252.653304 L 159.159492 254.592152 L 160.093828 258.350257 L 161.028164 261.966643 L 161.339609 262.543662 L 161.651055 262.608133 L 161.9625 262.214822 L 162.585391 260.69217 L 163.519727 258.391717 L 164.142617 257.367497 L 164.765508 256.792812 L 165.388398 256.624892 L 166.011289 256.808658 L 166.63418 257.279695 L 168.814297 259.464072 L 169.125742 259.522313 L 169.437187 259.447796 L 170.060078 258.911363 L 170.994414 257.470013 L 172.240195 255.488305 L 172.863086 254.786145 L 173.485977 254.362761 L 174.108867 254.247736 L 174.731758 254.458027 L 175.354648 255.002104 L 175.977539 255.877513 L 176.911875 257.748485 L 178.780547 261.937951 L 179.403437 262.692951 L 180.026328 263.05333 L 180.960664 263.459912 L 181.583555 264.026723 L 182.206445 264.967474 L 183.140781 266.677175 L 183.452227 267.018312 L 183.763672 267.05023 L 184.075117 266.700198 L 184.698008 265.009534 L 186.255234 259.701537 L 186.878125 258.227098 L 187.501016 257.226324 L 188.123906 256.672972 L 188.746797 256.532205 L 189.369687 256.766132 L 189.992578 257.330289 L 190.926914 258.658875 L 192.795586 261.599969 L 193.418477 261.99499 L 193.729922 261.972966 L 194.041367 261.787355 L 194.664258 260.934602 L 195.287148 259.554225 L 198.401602 251.638062 L 199.024492 250.672525 L 199.647383 250.005745 L 200.270273 249.638729 L 200.893164 249.560857 L 201.516055 249.746141 L 202.450391 250.398951 L 203.696172 251.415267 L 204.319062 251.671394 L 204.941953 251.645171 L 205.876289 251.214682 L 206.810625 250.740286 L 207.433516 250.60682 L 208.056406 250.694528 L 208.679297 251.009506 L 209.925078 252.065449 L 210.547969 252.53092 L 211.170859 252.735684 L 211.79375 252.617684 L 213.662422 251.662189 L 214.285312 251.749451 L 214.908203 252.270546 L 215.531094 253.341557 L 216.153984 255.110014 L 216.776875 257.809379 L 217.399766 261.854818 L 218.022656 267.832034 L 218.334102 271.142192 L 218.645547 272.596782 L 218.956992 270.781222 L 219.579883 264.956505 L 220.202773 261.008464 L 220.825664 258.73509 L 221.137109 258.075901 L 221.448555 257.691013 L 221.448555 257.691013" clip-path="url(#p23cea4dd56)" style="fill:none;stroke:#000;stroke-linecap:square;stroke-width:1.5"/></g><g id="line2d_74"><path d="M 62.3 193.821564 L 65.103008 193.943063 L 67.283125 193.941748 L 71.331914 193.773334 L 73.823477 194.078636 L 75.380703 194.163522 L 76.93793 193.984373 L 79.429492 193.626465 L 80.363828 193.718177 L 81.298164 194.036412 L 82.2325 194.627883 L 83.166836 195.529397 L 84.101172 196.772651 L 85.035508 198.38865 L 85.969844 200.411776 L 86.90418 202.884027 L 87.838516 205.860332 L 88.772852 209.416461 L 89.707187 213.66258 L 90.641523 218.769535 L 91.575859 225.027415 L 92.510195 233.002795 L 93.133086 239.884382 L 93.755977 249.087467 L 94.378867 262.009042 L 94.690313 264.748625 L 95.313203 259.660322 L 95.624648 258.478933 L 95.936094 258.236244 L 96.247539 258.706431 L 96.558984 259.728938 L 97.49332 263.830094 L 97.804766 264.15218 L 98.116211 263.542945 L 99.050547 260.214782 L 99.361992 259.479503 L 99.673437 259.038806 L 99.984883 258.884192 L 100.296328 258.996369 L 100.607773 259.349401 L 101.230664 260.618538 L 102.165 262.677748 L 102.476445 262.901394 L 102.787891 262.761022 L 103.410781 261.709158 L 104.345117 260.002953 L 104.656562 259.689638 L 104.968008 259.545413 L 105.279453 259.573236 L 105.590898 259.767208 L 106.213789 260.581792 L 107.148125 262.180821 L 107.45957 262.488136 L 107.771016 262.533734 L 108.082461 262.290746 L 108.705352 261.154982 L 109.639687 259.150551 L 110.262578 258.279457 L 110.574023 258.048484 L 110.885469 257.960506 L 111.196914 258.014447 L 111.819805 258.523324 L 112.442695 259.466979 L 113.377031 261.058711 L 113.688477 261.384824 L 113.999922 261.501932 L 114.311367 261.389294 L 114.934258 260.613775 L 116.180039 258.679449 L 116.80293 258.236279 L 117.114375 258.213434 L 117.42582 258.333162 L 117.737266 258.600045 L 118.360156 259.584351 L 118.983047 261.149526 L 120.228828 264.967416 L 120.540273 265.493474 L 120.851719 265.593129 L 121.163164 265.261822 L 121.786055 263.781901 L 122.720391 261.382807 L 123.343281 260.313937 L 123.966172 259.743574 L 124.589062 259.600992 L 125.211953 259.75708 L 126.457734 260.19855 L 127.080625 260.10658 L 127.703516 259.740233 L 129.260742 258.625578 L 129.883633 258.506468 L 130.506523 258.691661 L 131.129414 259.179404 L 132.06375 260.312794 L 132.998086 261.378248 L 133.620977 261.638144 L 133.932422 261.578548 L 134.555312 261.137449 L 136.423984 259.229348 L 137.046875 258.86836 L 137.981211 258.635285 L 142.341445 258.387033 L 143.275781 258.663823 L 144.833008 259.228194 L 145.455898 259.228723 L 146.078789 259.026979 L 148.258906 257.963915 L 148.881797 258.006717 L 149.504687 258.324496 L 150.127578 258.922225 L 151.061914 260.220429 L 151.99625 261.507466 L 152.619141 261.921738 L 152.930586 261.918433 L 153.553477 261.517295 L 156.045039 258.915262 L 156.66793 258.705853 L 157.602266 258.726216 L 159.470937 258.980769 L 160.405273 258.820544 L 161.9625 258.450387 L 162.896836 258.466508 L 164.142617 258.786647 L 165.388398 259.04329 L 166.322734 258.937057 L 169.437187 258.097686 L 170.994414 258.223633 L 172.551641 258.286453 L 174.108867 258.316422 L 175.043203 258.572076 L 175.977539 259.071865 L 177.534766 259.960065 L 178.157656 260.061211 L 178.780547 259.938298 L 179.714883 259.468106 L 180.960664 258.885582 L 181.583555 258.802219 L 182.206445 258.892302 L 183.140781 259.27259 L 184.386562 259.759134 L 185.009453 259.76304 L 185.632344 259.563434 L 187.812461 258.536823 L 188.435352 258.516559 L 189.369687 258.796284 L 190.926914 259.478748 L 191.549805 259.518676 L 192.172695 259.350543 L 194.352812 258.450715 L 194.975703 258.534579 L 195.598594 258.859868 L 196.53293 259.72469 L 197.778711 260.93373 L 198.401602 261.146615 L 199.024492 260.965706 L 199.958828 260.218216 L 200.893164 259.479032 L 201.516055 259.215593 L 202.138945 259.190972 L 202.761836 259.385841 L 204.941953 260.390087 L 205.564844 260.304926 L 207.744961 259.539639 L 208.367852 259.694118 L 208.990742 260.121098 L 209.925078 261.148333 L 210.547969 261.836282 L 211.170859 262.187137 L 211.482305 262.151703 L 211.79375 261.961057 L 212.416641 261.195182 L 214.285312 258.391398 L 214.908203 257.915862 L 215.531094 257.77175 L 216.153984 257.950086 L 216.776875 258.412646 L 217.711211 259.470269 L 218.956992 260.878081 L 219.579883 261.278552 L 220.202773 261.430159 L 221.448555 261.382983 L 221.448555 261.382983" clip-path="url(#p23cea4dd56)" style="fill:none;stroke:red;stroke-linecap:square;stroke-width:1.5"/></g><g id="patch_14"><path d="M 62.3 303.64 L 62.3 180.18" style="fill:none;stroke:#000;stroke-linecap:square;stroke-linejoin:miter;stroke-width:.8"/></g><g id="patch_15"><path d="M 221.76 303.64 L 221.76 180.18" style="fill:none;stroke:#000;stroke-linecap:square;stroke-linejoin:miter;stroke-width:.8"/></g><g id="patch_16"><path d="M 62.3 303.64 L 221.76 303.64" style="fill:none;stroke:#000;stroke-linecap:square;stroke-linejoin:miter;stroke-width:.8"/></g><g id="patch_17"><path d="M 62.3 180.18 L 221.76 180.18" style="fill:none;stroke:#000;stroke-linecap:square;stroke-linejoin:miter;stroke-width:.8"/></g></g><g id="axes_4"><g id="patch_18"><path d="M 282.62 303.64 L 442.08 303.64 L 442.08 180.18 L 282.62 180.18 z" style="fill:#fff"/></g><g id="PolyCollection_4"><defs><path id="mbbd147ea62" d="M 301.7552 -132.682978 L 301.7552 120.683309 L 314.512 120.683309 L 314.512 -132.682978 L 314.512 -132.682978 L 301.7552 -132.682978 z" style="stroke:#fea"/></defs><g clip-path="url(#p456abc42d8)"><use style="fill:#fea;stroke:#fea" x="0" y="345.6" xlink:href="#mbbd147ea62"/></g></g><g id="matplotlib.axis_7"><g id="xtick_17"><g id="line2d_75"><path d="M 282.62 303.64 L 282.62 180.18" clip-path="url(#p456abc42d8)" style="fill:none;stroke:gray;stroke-linecap:square;stroke-width:.8"/></g><g id="line2d_76"><g><use style="stroke:#000;stroke-width:.8" x="282.62" y="303.64" xlink:href="#mf0dcd7ad92"/></g></g><g id="text_42"><g transform="translate(274.668437 318.238437)scale(0.1 -0.1)"><use xlink:href="#DejaVuSans-48"/><use x="63.623" xlink:href="#DejaVuSans-46"/><use x="95.41" xlink:href="#DejaVuSans-48"/></g></g></g><g id="xtick_18"><g id="line2d_77"><path d="M 314.512 303.64 L 314.512 180.18" clip-path="url(#p456abc42d8)" style="fill:none;stroke:gray;stroke-linecap:square;stroke-width:.8"/></g><g id="line2d_78"><g><use style="stroke:#000;stroke-width:.8" x="314.512" y="303.64" xlink:href="#mf0dcd7ad92"/></g></g><g id="text_43"><g transform="translate(306.560437 318.238437)scale(0.1 -0.1)"><use xlink:href="#DejaVuSans-48"/><use x="63.623" xlink:href="#DejaVuSans-46"/><use x="95.41" xlink:href="#DejaVuSans-50"/></g></g></g><g id="xtick_19"><g id="line2d_79"><path d="M 346.404 303.64 L 346.404 180.18" clip-path="url(#p456abc42d8)" style="fill:none;stroke:gray;stroke-linecap:square;stroke-width:.8"/></g><g id="line2d_80"><g><use style="stroke:#000;stroke-width:.8" x="346.404" y="303.64" xlink:href="#mf0dcd7ad92"/></g></g><g id="text_44"><g transform="translate(338.452437 318.238437)scale(0.1 -0.1)"><use xlink:href="#DejaVuSans-48"/><use x="63.623" xlink:href="#DejaVuSans-46"/><use x="95.41" xlink:href="#DejaVuSans-52"/></g></g></g><g id="xtick_20"><g id="line2d_81"><path d="M 378.296 303.64 L 378.296 180.18" clip-path="url(#p456abc42d8)" style="fill:none;stroke:gray;stroke-linecap:square;stroke-width:.8"/></g><g id="line2d_82"><g><use style="stroke:#000;stroke-width:.8" x="378.296" y="303.64" xlink:href="#mf0dcd7ad92"/></g></g><g id="text_45"><g transform="translate(370.344437 318.238437)scale(0.1 -0.1)"><use xlink:href="#DejaVuSans-48"/><use x="63.623" xlink:href="#DejaVuSans-46"/><use x="95.41" xlink:href="#DejaVuSans-54"/></g></g></g><g id="xtick_21"><g id="line2d_83"><path d="M 410.188 303.64 L 410.188 180.18" clip-path="url(#p456abc42d8)" style="fill:none;stroke:gray;stroke-linecap:square;stroke-width:.8"/></g><g id="line2d_84"><g><use style="stroke:#000;stroke-width:.8" x="410.188" y="303.64" xlink:href="#mf0dcd7ad92"/></g></g><g id="text_46"><g transform="translate(402.236437 318.238437)scale(0.1 -0.1)"><use xlink:href="#DejaVuSans-48"/><use x="63.623" xlink:href="#DejaVuSans-46"/><use x="95.41" xlink:href="#DejaVuSans-56"/></g></g></g><g id="xtick_22"><g id="line2d_85"><path d="M 442.08 303.64 L 442.08 180.18" clip-path="url(#p456abc42d8)" style="fill:none;stroke:gray;stroke-linecap:square;stroke-width:.8"/></g><g id="line2d_86"><g><use style="stroke:#000;stroke-width:.8" x="442.08" y="303.64" xlink:href="#mf0dcd7ad92"/></g></g><g id="text_47"><g transform="translate(434.128437 318.238437)scale(0.1 -0.1)"><use xlink:href="#DejaVuSans-49"/><use x="63.623" xlink:href="#DejaVuSans-46"/><use x="95.41" xlink:href="#DejaVuSans-48"/></g></g></g><g id="text_48"><g transform="translate(336.052344 331.916562)scale(0.1 -0.1)"><use xlink:href="#DejaVuSans-70"/><use x="57.41" xlink:href="#DejaVuSans-114"/><use x="98.492" xlink:href="#DejaVuSans-101"/><use x="160.016" xlink:href="#DejaVuSans-113"/><use x="223.492" xlink:href="#DejaVuSans-117"/><use x="286.871" xlink:href="#DejaVuSans-101"/><use x="348.395" xlink:href="#DejaVuSans-110"/><use x="411.773" xlink:href="#DejaVuSans-99"/><use x="466.754" xlink:href="#DejaVuSans-121"/></g></g></g><g id="matplotlib.axis_8"><g id="ytick_17"><g id="line2d_87"><path d="M 282.62 303.64 L 442.08 303.64" clip-path="url(#p456abc42d8)" style="fill:none;stroke:gray;stroke-linecap:square;stroke-width:.8"/></g><g id="line2d_88"><g><use style="stroke:#000;stroke-width:.8" x="282.62" y="303.64" xlink:href="#m11813d1505"/></g></g><g id="text_49"><g transform="translate(254.515312 307.439219)scale(0.1 -0.1)"><use xlink:href="#DejaVuSans-8722"/><use x="83.789" xlink:href="#DejaVuSans-54"/><use x="147.412" xlink:href="#DejaVuSans-48"/></g></g></g><g id="ytick_18"><g id="line2d_89"><path d="M 282.62 283.063333 L 442.08 283.063333" clip-path="url(#p456abc42d8)" style="fill:none;stroke:gray;stroke-linecap:square;stroke-width:.8"/></g><g id="line2d_90"><g><use style="stroke:#000;stroke-width:.8" x="282.62" y="283.063" xlink:href="#m11813d1505"/></g></g><g id="text_50"><g transform="translate(254.515312 286.862552)scale(0.1 -0.1)"><use xlink:href="#DejaVuSans-8722"/><use x="83.789" xlink:href="#DejaVuSans-52"/><use x="147.412" xlink:href="#DejaVuSans-48"/></g></g></g><g id="ytick_19"><g id="line2d_91"><path d="M 282.62 262.486667 L 442.08 262.486667" clip-path="url(#p456abc42d8)" style="fill:none;stroke:gray;stroke-linecap:square;stroke-width:.8"/></g><g id="line2d_92"><g><use style="stroke:#000;stroke-width:.8" x="282.62" y="262.487" xlink:href="#m11813d1505"/></g></g><g id="text_51"><g transform="translate(254.515312 266.285885)scale(0.1 -0.1)"><use xlink:href="#DejaVuSans-8722"/><use x="83.789" xlink:href="#DejaVuSans-50"/><use x="147.412" xlink:href="#DejaVuSans-48"/></g></g></g><g id="ytick_20"><g id="line2d_93"><path d="M 282.62 241.91 L 442.08 241.91" clip-path="url(#p456abc42d8)" style="fill:none;stroke:gray;stroke-linecap:square;stroke-width:.8"/></g><g id="line2d_94"><g><use style="stroke:#000;stroke-width:.8" x="282.62" y="241.91" xlink:href="#m11813d1505"/></g></g><g id="text_52"><g transform="translate(269.2575 245.709219)scale(0.1 -0.1)"><use xlink:href="#DejaVuSans-48"/></g></g></g><g id="ytick_21"><g id="line2d_95"><path d="M 282.62 221.333333 L 442.08 221.333333" clip-path="url(#p456abc42d8)" style="fill:none;stroke:gray;stroke-linecap:square;stroke-width:.8"/></g><g id="line2d_96"><g><use style="stroke:#000;stroke-width:.8" x="282.62" y="221.333" xlink:href="#m11813d1505"/></g></g><g id="text_53"><g transform="translate(262.895 225.132552)scale(0.1 -0.1)"><use xlink:href="#DejaVuSans-50"/><use x="63.623" xlink:href="#DejaVuSans-48"/></g></g></g><g id="ytick_22"><g id="line2d_97"><path d="M 282.62 200.756667 L 442.08 200.756667" clip-path="url(#p456abc42d8)" style="fill:none;stroke:gray;stroke-linecap:square;stroke-width:.8"/></g><g id="line2d_98"><g><use style="stroke:#000;stroke-width:.8" x="282.62" y="200.757" xlink:href="#m11813d1505"/></g></g><g id="text_54"><g transform="translate(262.895 204.555885)scale(0.1 -0.1)"><use xlink:href="#DejaVuSans-52"/><use x="63.623" xlink:href="#DejaVuSans-48"/></g></g></g><g id="ytick_23"><g id="line2d_99"><path d="M 282.62 180.18 L 442.08 180.18" clip-path="url(#p456abc42d8)" style="fill:none;stroke:gray;stroke-linecap:square;stroke-width:.8"/></g><g id="line2d_100"><g><use style="stroke:#000;stroke-width:.8" x="282.62" y="180.18" xlink:href="#m11813d1505"/></g></g><g id="text_55"><g transform="translate(262.895 183.979219)scale(0.1 -0.1)"><use xlink:href="#DejaVuSans-54"/><use x="63.623" xlink:href="#DejaVuSans-48"/></g></g></g><g id="text_56"><defs><path id="DejaVuSans-71" d="M 59.515625 10.40625 L 59.515625 29.984375 L 43.40625 29.984375 L 43.40625 38.09375 L 69.28125 38.09375 L 69.28125 6.78125 Q 63.578125 2.734375 56.6875 0.65625 Q 49.8125 -1.421875 42 -1.421875 Q 24.90625 -1.421875 15.25 8.5625 Q 5.609375 18.5625 5.609375 36.375 Q 5.609375 54.25 15.25 64.234375 Q 24.90625 74.21875 42 74.21875 Q 49.125 74.21875 55.546875 72.453125 Q 61.96875 70.703125 67.390625 67.28125 L 67.390625 56.78125 Q 61.921875 61.421875 55.765625 63.765625 Q 49.609375 66.109375 42.828125 66.109375 Q 29.4375 66.109375 22.71875 58.640625 Q 16.015625 51.171875 16.015625 36.375 Q 16.015625 21.625 22.71875 14.15625 Q 29.4375 6.6875 42.828125 6.6875 Q 48.046875 6.6875 52.140625 7.59375 Q 56.25 8.5 59.515625 10.40625 z"/><path id="DejaVuSans-111" d="M 30.609375 48.390625 Q 23.390625 48.390625 19.1875 42.75 Q 14.984375 37.109375 14.984375 27.296875 Q 14.984375 17.484375 19.15625 11.84375 Q 23.34375 6.203125 30.609375 6.203125 Q 37.796875 6.203125 41.984375 11.859375 Q 46.1875 17.53125 46.1875 27.296875 Q 46.1875 37.015625 41.984375 42.703125 Q 37.796875 48.390625 30.609375 48.390625 z M 30.609375 56 Q 42.328125 56 49.015625 48.375 Q 55.71875 40.765625 55.71875 27.296875 Q 55.71875 13.875 49.015625 6.21875 Q 42.328125 -1.421875 30.609375 -1.421875 Q 18.84375 -1.421875 12.171875 6.21875 Q 5.515625 13.875 5.515625 27.296875 Q 5.515625 40.765625 12.171875 48.375 Q 18.84375 56 30.609375 56 z"/></defs><g transform="translate(248.435625 272.492812)rotate(-90)scale(0.1 -0.1)"><use xlink:href="#DejaVuSans-71"/><use x="77.49" xlink:href="#DejaVuSans-114"/><use x="118.572" xlink:href="#DejaVuSans-111"/><use x="179.754" xlink:href="#DejaVuSans-117"/><use x="243.133" xlink:href="#DejaVuSans-112"/><use x="306.609" xlink:href="#DejaVuSans-32"/><use x="338.396" xlink:href="#DejaVuSans-100"/><use x="401.873" xlink:href="#DejaVuSans-101"/><use x="463.396" xlink:href="#DejaVuSans-108"/><use x="491.18" xlink:href="#DejaVuSans-97"/><use x="552.459" xlink:href="#DejaVuSans-121"/></g></g></g><g id="line2d_101"><path d="M 282.62 235.586907 L 285.423008 235.71098 L 287.603125 235.786473 L 289.160352 235.600407 L 291.340469 235.026517 L 293.209141 234.651541 L 295.700703 234.326561 L 296.635039 233.945835 L 297.569375 233.281739 L 298.503711 232.346283 L 300.683828 229.67562 L 302.241055 227.91917 L 303.486836 226.783154 L 304.732617 225.901396 L 305.978398 225.256544 L 307.22418 224.832577 L 308.469961 224.633017 L 309.404297 224.655863 L 310.338633 224.882586 L 310.961523 225.204293 L 311.584414 225.750265 L 312.207305 226.696185 L 312.51875 227.43954 L 312.830195 228.505031 L 313.141641 230.129295 L 313.453086 232.841068 L 313.764531 238.039585 L 314.075977 250.463895 L 314.387422 293.184697 L 314.490379 346.6 M 314.963281 346.6 L 315.010312 327.360248 L 315.321758 262.26209 L 315.633203 247.936152 L 315.944648 244.874853 L 316.256094 246.096067 L 316.567539 249.968843 L 317.501875 268.100622 L 317.81332 268.701126 L 318.124766 264.079257 L 319.059102 244.785489 L 319.681992 238.280862 L 319.993437 236.625657 L 320.304883 235.759815 L 320.616328 235.591982 L 320.927773 236.125384 L 321.239219 237.46959 L 321.550664 239.874275 L 321.862109 243.788539 L 322.173555 249.912789 L 322.796445 270.807112 L 323.107891 280.792564 L 323.419336 280.976956 L 324.665117 243.055325 L 325.288008 235.778986 L 325.910898 232.398437 L 326.533789 230.75774 L 327.15668 229.993149 L 327.77957 229.73253 L 328.402461 229.809951 L 329.025352 230.170263 L 329.648242 230.862061 L 330.271133 232.138342 L 330.582578 233.226148 L 330.894023 234.944 L 331.205469 237.953723 L 331.516914 244.063672 L 331.828359 259.526445 L 332.224712 346.6 M 332.6742 346.6 L 332.762695 311.298921 L 333.074141 259.424311 L 333.385586 244.570447 L 333.697031 238.83391 L 334.008477 236.159633 L 334.319922 234.792146 L 334.631367 234.0934 L 334.942812 233.796215 L 335.254258 233.781363 L 335.565703 233.998505 L 335.877148 234.434713 L 336.500039 236.027147 L 337.12293 238.847978 L 337.74582 243.328535 L 338.991602 254.956916 L 339.303047 256.018753 L 339.614492 255.390507 L 339.925937 253.291286 L 341.171719 241.806135 L 341.794609 238.322572 L 342.4175 236.521151 L 342.728945 236.138961 L 343.040391 236.064792 L 343.351836 236.288021 L 343.663281 236.811468 L 343.974727 237.649984 L 344.597617 240.372786 L 345.220508 244.615584 L 346.466289 254.38077 L 346.777734 255.260522 L 347.08918 254.985078 L 347.400625 253.738898 L 348.646406 246.687913 L 349.269297 244.833033 L 349.580742 244.370836 L 350.203633 243.975619 L 350.826523 243.676255 L 351.137969 243.367001 L 351.760859 242.243831 L 352.695195 239.588837 L 353.629531 236.91582 L 354.252422 235.651004 L 354.875312 234.993341 L 355.186758 234.925929 L 355.498203 235.051446 L 355.809648 235.386792 L 356.121094 235.951669 L 356.743984 237.853159 L 357.366875 240.848651 L 358.612656 247.708344 L 358.924102 248.339374 L 359.235547 248.09077 L 359.546992 246.990743 L 360.169883 243.158724 L 361.104219 237.091609 L 361.727109 234.199086 L 362.35 232.314743 L 362.972891 231.31468 L 363.284336 231.131219 L 363.595781 231.175011 L 363.907227 231.483129 L 364.218672 232.126012 L 364.530117 233.230646 L 364.841562 235.027079 L 365.153008 237.946335 L 365.464453 242.834403 L 365.775898 251.410068 L 366.087344 266.949302 L 366.710234 312.746741 L 367.02168 298.195248 L 367.333125 272.060487 L 367.64457 255.321078 L 367.956016 246.376046 L 368.267461 241.670029 L 368.578906 239.260989 L 368.890352 238.204746 L 369.201797 238.033464 L 369.513242 238.502617 L 369.824687 239.46892 L 370.447578 242.439675 L 371.070469 245.711641 L 371.381914 246.84822 L 371.693359 247.304826 L 372.004805 246.9511 L 372.31625 245.836918 L 372.939141 242.197577 L 373.873477 236.536787 L 374.496367 233.805216 L 375.119258 231.95444 L 375.742148 230.819904 L 376.365039 230.263341 L 376.676484 230.176731 L 376.98793 230.213912 L 377.299375 230.378318 L 377.922266 231.133595 L 378.545156 232.61666 L 379.168047 235.202674 L 379.790937 239.61048 L 380.413828 246.941541 L 381.348164 261.915011 L 381.659609 264.206585 L 381.971055 263.150095 L 382.593945 254.530698 L 383.216836 246.07036 L 383.839727 240.993504 L 384.462617 238.458954 L 384.774062 237.827915 L 385.085508 237.50923 L 385.396953 237.449779 L 385.708398 237.614311 L 386.019844 237.980883 L 386.642734 239.277131 L 387.265625 241.2926 L 388.199961 245.393536 L 388.822852 248.107179 L 389.134297 249.072245 L 389.445742 249.575402 L 389.757187 249.522294 L 390.068633 248.906923 L 390.691523 246.389305 L 392.24875 238.880175 L 392.871641 236.833536 L 393.494531 235.434441 L 394.117422 234.621013 L 394.428867 234.420975 L 394.740312 234.357426 L 395.051758 234.43349 L 395.363203 234.655748 L 395.986094 235.58224 L 396.608984 237.250549 L 397.231875 239.77362 L 399.100547 249.146467 L 399.411992 249.549753 L 399.723437 249.329192 L 400.034883 248.601543 L 400.969219 245.555928 L 401.280664 244.938767 L 401.592109 244.768452 L 401.903555 245.152029 L 402.215 246.188015 L 402.526445 247.964869 L 403.149336 253.789088 L 403.772227 260.472472 L 404.083672 262.001165 L 404.395117 261.206408 L 404.706562 258.282036 L 405.952344 242.974489 L 406.575234 238.592397 L 407.198125 236.135077 L 407.821016 234.962578 L 408.132461 234.731505 L 408.443906 234.696703 L 408.755352 234.839723 L 409.066797 235.149032 L 409.689687 236.245178 L 410.312578 237.973146 L 410.935469 240.338817 L 411.869805 244.978094 L 413.115586 251.752909 L 413.738477 253.974892 L 414.049922 254.435334 L 414.361367 254.370385 L 414.672812 253.771991 L 415.295703 251.220445 L 417.47582 239.219783 L 418.098711 236.944684 L 418.721602 235.323762 L 419.344492 234.296024 L 419.967383 233.813279 L 420.278828 233.768632 L 420.590273 233.854692 L 421.213164 234.426113 L 421.836055 235.544393 L 422.458945 237.194457 L 424.016172 242.154268 L 424.327617 242.759692 L 424.639062 243.05544 L 424.950508 243.011526 L 425.261953 242.64555 L 425.884844 241.217336 L 427.130625 238.007327 L 427.753516 237.18229 L 428.064961 237.057393 L 428.376406 237.135159 L 428.687852 237.416954 L 429.310742 238.56325 L 431.179414 243.228457 L 431.490859 243.210175 L 431.802305 242.762243 L 432.425195 240.775525 L 434.293867 233.15651 L 434.916758 231.606313 L 435.539648 230.758524 L 435.851094 230.635787 L 436.162539 230.763112 L 436.473984 231.215685 L 436.78543 232.128877 L 437.096875 233.753278 L 437.40832 236.575996 L 437.719766 241.605231 L 438.031211 251.049787 L 438.342656 269.573875 L 438.654102 301.556499 L 438.965547 320.291475 L 439.588437 263.392811 L 439.899883 247.513519 L 440.211328 239.280105 L 440.522773 234.743569 L 440.834219 232.091292 L 441.145664 230.48978 L 441.457109 229.535018 L 441.768555 229.025061 L 441.768555 229.025061" clip-path="url(#p456abc42d8)" style="fill:none;stroke:#000;stroke-linecap:square;stroke-width:1.5"/></g><g id="line2d_102"><path d="M 282.62 235.263763 L 283.865781 235.364104 L 286.357344 235.685576 L 287.29168 235.586338 L 288.537461 235.203034 L 290.717578 234.412264 L 291.651914 234.273134 L 292.897695 234.340099 L 294.766367 234.518938 L 295.389258 234.399262 L 296.012148 234.11374 L 296.946484 233.35257 L 298.192266 231.858677 L 300.995273 228.240003 L 302.241055 227.000631 L 303.486836 226.0397 L 304.732617 225.32551 L 305.978398 224.826228 L 307.22418 224.525431 L 308.469961 224.433671 L 309.404297 224.535527 L 310.338633 224.852206 L 310.961523 225.251487 L 311.584414 225.906075 L 312.207305 227.022771 L 312.51875 227.892675 L 312.830195 229.126826 L 313.141641 230.971609 L 313.453086 233.934415 L 313.764531 239.193208 L 314.075977 249.93014 L 314.387422 276.184611 L 314.77472 346.6 M 315.068372 346.6 L 315.321758 288.683857 L 315.633203 258.568866 L 315.944648 248.503458 L 316.256094 245.942933 L 316.567539 247.338325 L 316.878984 251.895394 L 317.501875 269.954501 L 317.81332 278.990535 L 318.124766 280.1182 L 318.747656 261.788276 L 319.370547 247.309086 L 319.681992 243.731834 L 319.993437 241.832604 L 320.304883 241.208985 L 320.616328 241.645483 L 320.927773 243.057698 L 321.239219 245.430292 L 321.862109 252.748168 L 322.485 260.087438 L 322.796445 261.121822 L 323.107891 259.552465 L 324.665117 242.868956 L 324.976562 241.488178 L 325.288008 240.865308 L 325.599453 240.949748 L 325.910898 241.721102 L 326.222344 243.181176 L 326.845234 248.085721 L 327.77957 256.441485 L 328.091016 257.025088 L 328.402461 255.769507 L 329.025352 249.76693 L 329.648242 243.598203 L 330.271133 239.593046 L 330.582578 238.433095 L 330.894023 237.772762 L 331.205469 237.575121 L 331.516914 237.821646 L 331.828359 238.511971 L 332.139805 239.658556 L 332.762695 243.348228 L 334.008477 252.61062 L 334.319922 253.164092 L 334.631367 252.356929 L 335.254258 247.835096 L 336.188594 240.43243 L 336.811484 237.444251 L 337.12293 236.580583 L 337.434375 236.107693 L 337.74582 236.016456 L 338.057266 236.317069 L 338.368711 237.043737 L 338.680156 238.258684 L 338.991602 240.05421 L 339.614492 245.847348 L 340.860273 262.103999 L 341.171719 262.318991 L 341.483164 259.761237 L 342.728945 244.16069 L 343.351836 240.382816 L 343.663281 239.444324 L 343.974727 238.99696 L 344.286172 238.961543 L 344.597617 239.27633 L 345.220508 240.742126 L 346.777734 245.557577 L 347.08918 245.815469 L 347.400625 245.647703 L 347.71207 245.088915 L 348.334961 243.210219 L 349.269297 240.269049 L 349.892187 239.131588 L 350.203633 238.911239 L 350.515078 238.941023 L 350.826523 239.229265 L 351.137969 239.781895 L 351.760859 241.678364 L 352.695195 246.050689 L 353.318086 248.806611 L 353.629531 249.618145 L 353.940977 249.858344 L 354.252422 249.502493 L 354.563867 248.642436 L 356.432539 241.872588 L 357.05543 241.020151 L 357.366875 240.888244 L 357.67832 240.91435 L 358.301211 241.297592 L 359.546992 242.27356 L 360.169883 242.34476 L 360.792773 242.062592 L 362.038555 241.27569 L 362.661445 241.280865 L 363.284336 241.757937 L 363.907227 242.675532 L 364.841562 244.292017 L 365.153008 244.661142 L 365.464453 244.840091 L 365.775898 244.787682 L 366.087344 244.492342 L 366.710234 243.284504 L 368.267461 239.474051 L 368.890352 238.699486 L 369.201797 238.58594 L 369.513242 238.676611 L 369.824687 238.986522 L 370.136133 239.53028 L 370.759023 241.364348 L 371.381914 244.160086 L 372.31625 248.958499 L 372.627695 250.061238 L 372.939141 250.585882 L 373.250586 250.438505 L 373.562031 249.662559 L 374.184922 246.925521 L 375.119258 242.691939 L 375.742148 240.92343 L 376.053594 240.409504 L 376.365039 240.124087 L 376.676484 240.045598 L 376.98793 240.149097 L 377.61082 240.785291 L 379.168047 243.053559 L 379.479492 243.274633 L 379.790937 243.346808 L 380.102383 243.270359 L 380.725273 242.7608 L 381.971055 241.413673 L 382.593945 241.138262 L 382.905391 241.166073 L 383.528281 241.553054 L 384.462617 242.718569 L 385.396953 243.811957 L 385.708398 243.982938 L 386.019844 244.015166 L 386.331289 243.905799 L 386.95418 243.332085 L 388.511406 241.433445 L 389.134297 241.092494 L 389.757187 241.103281 L 390.380078 241.385613 L 391.625859 242.077309 L 392.24875 242.128115 L 392.871641 241.889898 L 394.428867 240.938188 L 395.051758 240.950467 L 395.674648 241.414072 L 396.297539 242.348534 L 397.854766 245.31674 L 398.166211 245.584543 L 398.477656 245.620997 L 398.789102 245.415267 L 399.411992 244.391356 L 400.969219 241.079225 L 401.592109 240.488733 L 401.903555 240.440841 L 402.215 240.561207 L 402.837891 241.273204 L 403.772227 243.142154 L 404.395117 244.350489 L 404.706562 244.744953 L 405.018008 244.923617 L 405.329453 244.859369 L 405.640898 244.558146 L 406.263789 243.417273 L 407.50957 240.788615 L 408.132461 240.106758 L 408.443906 240.01012 L 408.755352 240.083962 L 409.066797 240.324667 L 409.689687 241.250015 L 411.246914 244.261628 L 411.558359 244.482282 L 411.869805 244.449762 L 412.18125 244.161316 L 412.804141 242.972183 L 414.049922 240.029411 L 414.672812 239.177874 L 414.984258 239.018076 L 415.295703 239.056272 L 415.607148 239.302408 L 415.918594 239.762254 L 416.541484 241.311921 L 418.410156 247.430248 L 418.721602 247.573397 L 419.033047 247.250333 L 419.344492 246.518816 L 420.278828 243.143217 L 420.901719 241.109717 L 421.524609 239.854962 L 421.836055 239.564792 L 422.1475 239.499736 L 422.458945 239.651705 L 422.770391 240.00664 L 423.393281 241.227292 L 424.639062 244.25846 L 424.950508 244.684205 L 425.261953 244.828782 L 425.573398 244.669026 L 425.884844 244.227537 L 426.507734 242.771958 L 427.44207 240.454411 L 428.064961 239.604401 L 428.376406 239.507721 L 428.687852 239.662792 L 428.999297 240.088806 L 429.310742 240.80023 L 429.933633 243.081947 L 431.179414 249.169168 L 431.490859 249.985613 L 431.802305 250.096748 L 432.11375 249.456126 L 432.736641 246.490371 L 433.982422 239.737125 L 434.605312 237.679993 L 435.228203 236.61986 L 435.539648 236.42753 L 435.851094 236.443116 L 436.162539 236.656925 L 436.473984 237.061078 L 437.096875 238.406676 L 438.031211 241.494565 L 438.965547 244.723494 L 439.588437 245.928035 L 439.899883 246.085875 L 440.211328 245.969016 L 440.834219 245.211013 L 441.457109 244.372902 L 441.768555 244.116402 L 441.768555 244.116402" clip-path="url(#p456abc42d8)" style="fill:none;stroke:red;stroke-linecap:square;stroke-width:1.5"/></g><g id="patch_19"><path d="M 282.62 303.64 L 282.62 180.18" style="fill:none;stroke:#000;stroke-linecap:square;stroke-linejoin:miter;stroke-width:.8"/></g><g id="patch_20"><path d="M 442.08 303.64 L 442.08 180.18" style="fill:none;stroke:#000;stroke-linecap:square;stroke-linejoin:miter;stroke-width:.8"/></g><g id="patch_21"><path d="M 282.62 303.64 L 442.08 303.64" style="fill:none;stroke:#000;stroke-linecap:square;stroke-linejoin:miter;stroke-width:.8"/></g><g id="patch_22"><path d="M 282.62 180.18 L 442.08 180.18" style="fill:none;stroke:#000;stroke-linecap:square;stroke-linejoin:miter;stroke-width:.8"/></g></g></g><defs><clipPath id="p31d2ef5f29"><rect width="159.46" height="123.46" x="62.3" y="10.8"/></clipPath><clipPath id="pe729a18ff6"><rect width="159.46" height="123.46" x="282.62" y="10.8"/></clipPath><clipPath id="p23cea4dd56"><rect width="159.46" height="123.46" x="62.3" y="180.18"/></clipPath><clipPath id="p456abc42d8"><rect width="159.46" height="123.46" x="282.62" y="180.18"/></clipPath></defs></svg>