<svg version="1.1" xmlns="http://www.w3.org/2000/svg" xmlns:xlink="http://www.w3.org/1999/xlink" width="1187" height="811"><defs><clipPath id="PHirIzqRZWqh"><path fill="none" stroke="none" d=" M 0 0 L 1187 0 L 1187 811 L 0 811 L 0 0 Z"/></clipPath></defs><g transform="scale(1,1)" clip-path="url(#PHirIzqRZWqh)"><g><rect fill="rgb(255,255,255)" stroke="none" x="0" y="0" width="1187" height="811" fill-opacity="1"/><path fill="none" stroke="rgb(255,0,0)" paint-order="fill stroke markers" d=" M 895.7589302570193 265.2920232476603 C 843.9582519766092 109.88998840642944 652.0530097970895 33.88257995590692 467.1265749664811 95.52472489944296 C 282.2001401358726 157.16686984297903 174.28039146257015 333.11594191110873 226.08106974298033 488.5179767523396 C 277.8817480233905 643.9200115935705 469.78699020291015 719.927420044093 654.7134250335187 658.285275100557 C 839.6398598641272 596.6431301570209 947.5596085374295 420.69405808889127 895.7589302570193 265.2920232476603 Z" stroke-opacity="0.6980392156862745" stroke-linecap="round" stroke-linejoin="round" stroke-miterlimit="10" stroke-width="2.5"/><path fill="none" stroke="rgb(127,0,255)" paint-order="fill stroke markers" d=" M 404.4193162058986 702.2637574774909 C 523.3037559805464 712.0339807510023 631.2131526610654 579.6018886283115 645.4416996063668 406.4684007800358 C 659.6702465516681 233.33491293176007 574.8298824928595 85.06215905460533 455.94544271821184 75.29193578109391 C 337.06100294356406 65.52171250758249 229.15160626304504 197.95380463027334 214.92305931774368 371.08729247854905 C 200.69451237244232 544.2207803268248 285.53487643125084 692.4935342039795 404.4193162058986 702.2637574774909 Z" stroke-opacity="0.6980392156862745" stroke-linecap="round" stroke-linejoin="round" stroke-miterlimit="10" stroke-width="2.5"/><path fill="none" stroke="rgb(0,100,0)" paint-order="fill stroke markers" d=" M 500.41999999999985 816 L 500.41999999999985 -5" stroke-opacity="0.6980392156862745" stroke-linecap="round" stroke-linejoin="round" stroke-miterlimit="10" stroke-width="2.5"/><path fill="rgb(97,97,97)" stroke="none" paint-order="stroke fill markers" d=" M 505.41999999999985 85.9343407251919 C 505.41999999999985 88.69576447434586 503.1814237491538 90.9343407251919 500.41999999999985 90.9343407251919 C 497.6585762508459 90.9343407251919 495.41999999999985 88.69576447434586 495.41999999999985 85.9343407251919 C 495.41999999999985 83.17291697603794 497.6585762508459 80.9343407251919 500.41999999999985 80.9343407251919 C 503.1814237491538 80.9343407251919 505.41999999999985 83.17291697603794 505.41999999999985 85.9343407251919 Z" fill-opacity="1"/><path fill="none" stroke="rgb(0,0,0)" paint-order="fill stroke markers" d=" M 505.41999999999985 85.9343407251919 C 505.41999999999985 88.69576447434586 503.1814237491538 90.9343407251919 500.41999999999985 90.9343407251919 C 497.6585762508459 90.9343407251919 495.41999999999985 88.69576447434586 495.41999999999985 85.9343407251919 C 495.41999999999985 83.17291697603794 497.6585762508459 80.9343407251919 500.41999999999985 80.9343407251919 C 503.1814237491538 80.9343407251919 505.41999999999985 83.17291697603794 505.41999999999985 85.9343407251919 Z" stroke-opacity="1" stroke-linecap="round" stroke-linejoin="round" stroke-miterlimit="10"/><path fill="rgb(97,97,97)" stroke="none" paint-order="stroke fill markers" d=" M 505.41999999999985 678.8641906266345 C 505.41999999999985 681.6256143757885 503.1814237491538 683.8641906266345 500.41999999999985 683.8641906266345 C 497.6585762508459 683.8641906266345 495.41999999999985 681.6256143757885 495.41999999999985 678.8641906266345 C 495.41999999999985 676.1027668774805 497.6585762508459 673.8641906266345 500.41999999999985 673.8641906266345 C 503.1814237491538 673.8641906266345 505.41999999999985 676.1027668774805 505.41999999999985 678.8641906266345 Z" fill-opacity="1"/><path fill="none" stroke="rgb(0,0,0)" paint-order="fill stroke markers" d=" M 505.41999999999985 678.8641906266345 C 505.41999999999985 681.6256143757885 503.1814237491538 683.8641906266345 500.41999999999985 683.8641906266345 C 497.6585762508459 683.8641906266345 495.41999999999985 681.6256143757885 495.41999999999985 678.8641906266345 C 495.41999999999985 676.1027668774805 497.6585762508459 673.8641906266345 500.41999999999985 673.8641906266345 C 503.1814237491538 673.8641906266345 505.41999999999985 676.1027668774805 505.41999999999985 678.8641906266345 Z" stroke-opacity="1" stroke-linecap="round" stroke-linejoin="round" stroke-miterlimit="10"/><path fill="rgb(255,153,51)" stroke="none" paint-order="stroke fill markers" d=" M 565.9199999999998 376.905 C 565.9199999999998 379.6664237491539 563.6814237491539 381.905 560.9199999999998 381.905 C 558.1585762508458 381.905 555.9199999999998 379.6664237491539 555.9199999999998 376.905 C 555.9199999999998 374.143576250846 558.1585762508458 371.905 560.9199999999998 371.905 C 563.6814237491539 371.905 565.9199999999998 374.143576250846 565.9199999999998 376.905 Z" fill-opacity="1"/><path fill="none" stroke="rgb(0,0,0)" paint-order="fill stroke markers" d=" M 565.9199999999998 376.905 C 565.9199999999998 379.6664237491539 563.6814237491539 381.905 560.9199999999998 381.905 C 558.1585762508458 381.905 555.9199999999998 379.6664237491539 555.9199999999998 376.905 C 555.9199999999998 374.143576250846 558.1585762508458 371.905 560.9199999999998 371.905 C 563.6814237491539 371.905 565.9199999999998 374.143576250846 565.9199999999998 376.905 Z" stroke-opacity="1" stroke-linecap="round" stroke-linejoin="round" stroke-miterlimit="10"/></g></g></svg>
