<svg version="1.1" xmlns="http://www.w3.org/2000/svg" xmlns:xlink="http://www.w3.org/1999/xlink" width="1204" height="813"><defs><clipPath id="IzzAKUiRXmyG"><path fill="none" stroke="none" d=" M 0 0 L 1204 0 L 1204 813 L 0 813 L 0 0 Z"/></clipPath></defs><g transform="scale(1,1)" clip-path="url(#IzzAKUiRXmyG)"><g><rect fill="rgb(255,255,255)" stroke="none" x="0" y="0" width="1204" height="813" fill-opacity="1"/><path fill="none" stroke="rgb(211,47,47)" paint-order="fill stroke markers" d=" M 901.8783000000002 410.7093500000002 C 901.8783000000002 572.429370445453 770.7783204454531 703.52935 609.0583000000001 703.52935 C 447.33827955454717 703.52935 316.2383000000001 572.429370445453 316.2383000000001 410.7093500000002 C 316.2383000000001 248.98932955454742 447.33827955454717 117.88935000000043 609.0583000000001 117.88935000000043 C 770.7783204454531 117.88935000000043 901.8783000000002 248.98932955454742 901.8783000000002 410.7093500000002 Z" stroke-opacity="0.6980392156862745" stroke-linecap="round" stroke-linejoin="round" stroke-miterlimit="10" stroke-width="2.5"/><text fill="rgb(211,47,47)" stroke="none" font-family="geogebra-sans-serif, sans-serif" font-size="16px" font-style="normal" font-weight="normal" text-decoration="normal" x="462" y="181" text-anchor="start" dominant-baseline="alphabetic" fill-opacity="1">E0</text><path fill="none" stroke="rgb(151,95,168)" paint-order="fill stroke markers" d=" M 803.9391499999998 118.87336939406237 C 749.8488510436093 118.87336939406237 706 249.53278845942566 706 410.70935000000026 C 706 571.8859115405749 749.8488510436093 702.5453306059381 803.9391499999998 702.5453306059381 C 858.0294489563903 702.5453306059381 901.8782999999996 571.8859115405749 901.8782999999996 410.70935000000026 C 901.8782999999996 249.53278845942566 858.0294489563903 118.87336939406237 803.9391499999998 118.87336939406237 Z" stroke-opacity="0.6980392156862745" stroke-linecap="round" stroke-linejoin="round" stroke-miterlimit="10" stroke-width="2.5"/><text fill="rgb(151,95,168)" stroke="none" font-family="geogebra-sans-serif, sans-serif" font-size="16px" font-style="normal" font-weight="normal" text-decoration="normal" x="740" y="556" text-anchor="start" dominant-baseline="alphabetic" fill-opacity="1">E1</text><path fill="none" stroke="rgb(21,101,192)" paint-order="fill stroke markers" d=" M 901.8782999999994 818 L 901.8782999999994 -5" stroke-opacity="0.8" stroke-linecap="round" stroke-linejoin="round" stroke-miterlimit="10" stroke-width="2.5"/><text fill="rgb(21,101,192)" stroke="none" font-family="geogebra-sans-serif, sans-serif" font-size="16px" font-style="normal" font-weight="normal" text-decoration="normal" x="885" y="24" text-anchor="start" dominant-baseline="alphabetic" fill-opacity="1">g1</text><path fill="none" stroke="rgb(0,103,88)" paint-order="fill stroke markers" d=" M 755.4683000000002 818 L 755.4683000000002 -5" stroke-opacity="0.8" stroke-linecap="round" stroke-linejoin="round" stroke-miterlimit="10" stroke-width="2.5"/><text fill="rgb(0,103,88)" stroke="none" font-family="geogebra-sans-serif, sans-serif" font-size="16px" font-style="normal" font-weight="normal" text-decoration="normal" x="739" y="24" text-anchor="start" dominant-baseline="alphabetic" fill-opacity="1">g0</text><path fill="none" stroke="rgb(0,0,0)" paint-order="fill stroke markers" d=" M 54.5 98.5 L 254.5 98.5" stroke-opacity="0.39215686274509803" stroke-linecap="round" stroke-linejoin="round" stroke-miterlimit="10" stroke-width="5"/><path fill="rgb(0,0,0)" stroke="none" paint-order="stroke fill markers" d=" M 242.99999999999983 98.49999999999994 C 242.99999999999983 103.19442037356168 239.19442037356157 106.99999999999994 234.49999999999983 106.99999999999994 C 229.8055796264381 106.99999999999994 225.99999999999983 103.19442037356168 225.99999999999983 98.49999999999994 C 225.99999999999983 93.8055796264382 229.8055796264381 89.99999999999994 234.49999999999983 89.99999999999994 C 239.19442037356157 89.99999999999994 242.99999999999983 93.8055796264382 242.99999999999983 98.49999999999994 Z" fill-opacity="0.39215686274509803"/><path fill="none" stroke="rgb(0,0,0)" paint-order="fill stroke markers" d=" M 242.99999999999983 98.49999999999994 C 242.99999999999983 103.19442037356168 239.19442037356157 106.99999999999994 234.49999999999983 106.99999999999994 C 229.8055796264381 106.99999999999994 225.99999999999983 103.19442037356168 225.99999999999983 98.49999999999994 C 225.99999999999983 93.8055796264382 229.8055796264381 89.99999999999994 234.49999999999983 89.99999999999994 C 239.19442037356157 89.99999999999994 242.99999999999983 93.8055796264382 242.99999999999983 98.49999999999994 Z" stroke-opacity="0.39215686274509803" stroke-linecap="round" stroke-linejoin="round" stroke-miterlimit="10"/><path fill="rgb(0,0,0)" stroke="none" paint-order="stroke fill markers" d=" M 239.99999999999983 98.49999999999994 C 239.99999999999983 101.5375661240693 237.5375661240692 103.99999999999994 234.49999999999983 103.99999999999994 C 231.46243387593046 103.99999999999994 228.99999999999983 101.5375661240693 228.99999999999983 98.49999999999994 C 228.99999999999983 95.46243387593059 231.46243387593046 92.99999999999994 234.49999999999983 92.99999999999994 C 237.5375661240692 92.99999999999994 239.99999999999983 95.46243387593059 239.99999999999983 98.49999999999994 Z" fill-opacity="1"/><path fill="none" stroke="rgb(0,0,0)" paint-order="fill stroke markers" d=" M 239.99999999999983 98.49999999999994 C 239.99999999999983 101.5375661240693 237.5375661240692 103.99999999999994 234.49999999999983 103.99999999999994 C 231.46243387593046 103.99999999999994 228.99999999999983 101.5375661240693 228.99999999999983 98.49999999999994 C 228.99999999999983 95.46243387593059 231.46243387593046 92.99999999999994 234.49999999999983 92.99999999999994 C 237.5375661240692 92.99999999999994 239.99999999999983 95.46243387593059 239.99999999999983 98.49999999999994 Z" stroke-opacity="1" stroke-linecap="round" stroke-linejoin="round" stroke-miterlimit="10"/><text fill="rgb(0,0,0)" stroke="none" font-family="geogebra-sans-serif, sans-serif" font-size="16px" font-style="normal" font-weight="normal" text-decoration="normal" x="223" y="83" text-anchor="start" dominant-baseline="alphabetic" fill-opacity="1">k = 4</text><path fill="none" stroke="rgb(0,0,0)" paint-order="fill stroke markers" d=" M 54.5 138.5 L 254.5 138.5" stroke-opacity="0.39215686274509803" stroke-linecap="round" stroke-linejoin="round" stroke-miterlimit="10" stroke-width="5"/><path fill="rgb(0,0,0)" stroke="none" paint-order="stroke fill markers" d=" M 203.00000000000006 138.5 C 203.00000000000006 143.19442037356174 199.1944203735618 147 194.50000000000006 147 C 189.80557962643832 147 186.00000000000006 143.19442037356174 186.00000000000006 138.5 C 186.00000000000006 133.80557962643826 189.80557962643832 130 194.50000000000006 130 C 199.1944203735618 130 203.00000000000006 133.80557962643826 203.00000000000006 138.5 Z" fill-opacity="0.39215686274509803"/><path fill="none" stroke="rgb(0,0,0)" paint-order="fill stroke markers" d=" M 203.00000000000006 138.5 C 203.00000000000006 143.19442037356174 199.1944203735618 147 194.50000000000006 147 C 189.80557962643832 147 186.00000000000006 143.19442037356174 186.00000000000006 138.5 C 186.00000000000006 133.80557962643826 189.80557962643832 130 194.50000000000006 130 C 199.1944203735618 130 203.00000000000006 133.80557962643826 203.00000000000006 138.5 Z" stroke-opacity="0.39215686274509803" stroke-linecap="round" stroke-linejoin="round" stroke-miterlimit="10"/><path fill="rgb(0,0,0)" stroke="none" paint-order="stroke fill markers" d=" M 200.00000000000006 138.5 C 200.00000000000006 141.53756612406937 197.53756612406943 144 194.50000000000006 144 C 191.46243387593069 144 189.00000000000006 141.53756612406937 189.00000000000006 138.5 C 189.00000000000006 135.46243387593063 191.46243387593069 133 194.50000000000006 133 C 197.53756612406943 133 200.00000000000006 135.46243387593063 200.00000000000006 138.5 Z" fill-opacity="1"/><path fill="none" stroke="rgb(0,0,0)" paint-order="fill stroke markers" d=" M 200.00000000000006 138.5 C 200.00000000000006 141.53756612406937 197.53756612406943 144 194.50000000000006 144 C 191.46243387593069 144 189.00000000000006 141.53756612406937 189.00000000000006 138.5 C 189.00000000000006 135.46243387593063 191.46243387593069 133 194.50000000000006 133 C 197.53756612406943 133 200.00000000000006 135.46243387593063 200.00000000000006 138.5 Z" stroke-opacity="1" stroke-linecap="round" stroke-linejoin="round" stroke-miterlimit="10"/><text fill="rgb(0,0,0)" stroke="none" font-family="geogebra-sans-serif, sans-serif" font-size="16px" font-style="normal" font-weight="normal" text-decoration="normal" x="183" y="123" text-anchor="start" dominant-baseline="alphabetic" fill-opacity="1">l = 2</text><path fill="rgb(255,127,0)" stroke="none" paint-order="stroke fill markers" d=" M 614.0583000000001 410.7093500000002 C 614.0583000000001 413.47077374915415 611.8197237491542 415.7093500000002 609.0583000000001 415.7093500000002 C 606.2968762508461 415.7093500000002 604.0583000000001 413.47077374915415 604.0583000000001 410.7093500000002 C 604.0583000000001 407.94792625084625 606.2968762508461 405.7093500000002 609.0583000000001 405.7093500000002 C 611.8197237491542 405.7093500000002 614.0583000000001 407.94792625084625 614.0583000000001 410.7093500000002 Z" fill-opacity="1"/><path fill="none" stroke="rgb(0,0,0)" paint-order="fill stroke markers" d=" M 614.0583000000001 410.7093500000002 C 614.0583000000001 413.47077374915415 611.8197237491542 415.7093500000002 609.0583000000001 415.7093500000002 C 606.2968762508461 415.7093500000002 604.0583000000001 413.47077374915415 604.0583000000001 410.7093500000002 C 604.0583000000001 407.94792625084625 606.2968762508461 405.7093500000002 609.0583000000001 405.7093500000002 C 611.8197237491542 405.7093500000002 614.0583000000001 407.94792625084625 614.0583000000001 410.7093500000002 Z" stroke-opacity="1" stroke-linecap="round" stroke-linejoin="round" stroke-miterlimit="10"/><text fill="rgb(255,127,0)" stroke="none" font-family="geogebra-sans-serif, sans-serif" font-size="16px" font-style="normal" font-weight="normal" text-decoration="normal" x="613" y="401" text-anchor="start" dominant-baseline="alphabetic" fill-opacity="1">xc</text><path fill="rgb(21,101,192)" stroke="none" paint-order="stroke fill markers" d=" M 711 410.7093500000002 C 711 413.47077374915415 708.761423749154 415.7093500000002 706 415.7093500000002 C 703.238576250846 415.7093500000002 701 413.47077374915415 701 410.7093500000002 C 701 407.94792625084625 703.238576250846 405.7093500000002 706 405.7093500000002 C 708.761423749154 405.7093500000002 711 407.94792625084625 711 410.7093500000002 Z" fill-opacity="1"/><path fill="none" stroke="rgb(0,0,0)" paint-order="fill stroke markers" d=" M 711 410.7093500000002 C 711 413.47077374915415 708.761423749154 415.7093500000002 706 415.7093500000002 C 703.238576250846 415.7093500000002 701 413.47077374915415 701 410.7093500000002 C 701 407.94792625084625 703.238576250846 405.7093500000002 706 405.7093500000002 C 708.761423749154 405.7093500000002 711 407.94792625084625 711 410.7093500000002 Z" stroke-opacity="1" stroke-linecap="round" stroke-linejoin="round" stroke-miterlimit="10"/><text fill="rgb(21,101,192)" stroke="none" font-family="geogebra-sans-serif, sans-serif" font-size="16px" font-style="normal" font-weight="normal" text-decoration="normal" x="710" y="401" text-anchor="start" dominant-baseline="alphabetic" fill-opacity="1">mu</text></g></g></svg>