<svg version="1.1" xmlns="http://www.w3.org/2000/svg" xmlns:xlink="http://www.w3.org/1999/xlink" width="1191" height="800"><defs><clipPath id="nlfDTFcxgZPt"><path fill="none" stroke="none" d=" M 0 0 L 1191 0 L 1191 800 L 0 800 L 0 0 Z"/></clipPath></defs><g transform="scale(1,1)" clip-path="url(#nlfDTFcxgZPt)"><g><rect fill="rgb(255,255,255)" stroke="none" x="0" y="0" width="1191" height="800" fill-opacity="1"/><path fill="none" stroke="rgb(211,47,47)" paint-order="fill stroke markers" d=" M 894.8782999999999 406.7093500000003 C 894.8782999999999 568.4293704454531 763.7783204454528 699.52935 602.0582999999999 699.52935 C 440.33827955454706 699.52935 309.2382999999999 568.4293704454531 309.2382999999999 406.7093500000003 C 309.2382999999999 244.98932955454754 440.33827955454706 113.88935000000055 602.0582999999999 113.88935000000055 C 763.7783204454528 113.88935000000055 894.8782999999999 244.98932955454754 894.8782999999999 406.7093500000003 Z" stroke-opacity="0.6980392156862745" stroke-linecap="round" stroke-linejoin="round" stroke-miterlimit="10" stroke-width="2.5"/><text fill="rgb(211,47,47)" stroke="none" font-family="geogebra-sans-serif, sans-serif" font-size="16px" font-style="normal" font-weight="normal" text-decoration="normal" x="455" y="177" text-anchor="start" dominant-baseline="alphabetic" fill-opacity="1">E0</text><path fill="none" stroke="rgb(151,95,168)" paint-order="fill stroke markers" d=" M 407.1191500000002 114.7027475851068 C 353.06104924452495 114.7027475851068 309.2383000000005 245.43855663635094 309.2383000000005 406.7093500000003 C 309.2383000000005 567.9801433636496 353.06104924452495 698.7159524148938 407.1191500000002 698.7159524148938 C 461.1772507554755 698.7159524148938 504.99999999999994 567.9801433636496 504.99999999999994 406.7093500000003 C 504.99999999999994 245.43855663635094 461.1772507554755 114.7027475851068 407.1191500000002 114.7027475851068 Z" stroke-opacity="0.6980392156862745" stroke-linecap="round" stroke-linejoin="round" stroke-miterlimit="10" stroke-width="2.5"/><text fill="rgb(151,95,168)" stroke="none" font-family="geogebra-sans-serif, sans-serif" font-size="16px" font-style="normal" font-weight="normal" text-decoration="normal" x="343" y="552" text-anchor="start" dominant-baseline="alphabetic" fill-opacity="1">E1</text><path fill="none" stroke="rgb(21,101,192)" paint-order="fill stroke markers" d=" M 309.23830000000066 805 L 309.23830000000066 -5" stroke-opacity="0.8" stroke-linecap="round" stroke-linejoin="round" stroke-miterlimit="10" stroke-width="2.5"/><text fill="rgb(21,101,192)" stroke="none" font-family="geogebra-sans-serif, sans-serif" font-size="16px" font-style="normal" font-weight="normal" text-decoration="normal" x="317" y="24" text-anchor="start" dominant-baseline="alphabetic" fill-opacity="1">g1</text><path fill="none" stroke="rgb(0,103,88)" paint-order="fill stroke markers" d=" M 455.64829999999995 805 L 455.64829999999995 -5" stroke-opacity="0.8" stroke-linecap="round" stroke-linejoin="round" stroke-miterlimit="10" stroke-width="2.5"/><text fill="rgb(0,103,88)" stroke="none" font-family="geogebra-sans-serif, sans-serif" font-size="16px" font-style="normal" font-weight="normal" text-decoration="normal" x="463" y="24" text-anchor="start" dominant-baseline="alphabetic" fill-opacity="1">g0</text><path fill="none" stroke="rgb(0,0,0)" paint-order="fill stroke markers" d=" M 54.5 98.5 L 254.5 98.5" stroke-opacity="0.39215686274509803" stroke-linecap="round" stroke-linejoin="round" stroke-miterlimit="10" stroke-width="5"/><path fill="rgb(0,0,0)" stroke="none" paint-order="stroke fill markers" d=" M 242.99999999999977 98.5 C 242.99999999999977 103.19442037356174 239.1944203735615 107 234.49999999999977 107 C 229.80557962643803 107 225.99999999999977 103.19442037356174 225.99999999999977 98.5 C 225.99999999999977 93.80557962643826 229.80557962643803 90 234.49999999999977 90 C 239.1944203735615 90 242.99999999999977 93.80557962643826 242.99999999999977 98.5 Z" fill-opacity="0.39215686274509803"/><path fill="none" stroke="rgb(0,0,0)" paint-order="fill stroke markers" d=" M 242.99999999999977 98.5 C 242.99999999999977 103.19442037356174 239.1944203735615 107 234.49999999999977 107 C 229.80557962643803 107 225.99999999999977 103.19442037356174 225.99999999999977 98.5 C 225.99999999999977 93.80557962643826 229.80557962643803 90 234.49999999999977 90 C 239.1944203735615 90 242.99999999999977 93.80557962643826 242.99999999999977 98.5 Z" stroke-opacity="0.39215686274509803" stroke-linecap="round" stroke-linejoin="round" stroke-miterlimit="10"/><path fill="rgb(0,0,0)" stroke="none" paint-order="stroke fill markers" d=" M 239.99999999999977 98.5 C 239.99999999999977 101.53756612406936 237.53756612406914 104 234.49999999999977 104 C 231.4624338759304 104 228.99999999999977 101.53756612406936 228.99999999999977 98.5 C 228.99999999999977 95.46243387593064 231.4624338759304 93 234.49999999999977 93 C 237.53756612406914 93 239.99999999999977 95.46243387593064 239.99999999999977 98.5 Z" fill-opacity="1"/><path fill="none" stroke="rgb(0,0,0)" paint-order="fill stroke markers" d=" M 239.99999999999977 98.5 C 239.99999999999977 101.53756612406936 237.53756612406914 104 234.49999999999977 104 C 231.4624338759304 104 228.99999999999977 101.53756612406936 228.99999999999977 98.5 C 228.99999999999977 95.46243387593064 231.4624338759304 93 234.49999999999977 93 C 237.53756612406914 93 239.99999999999977 95.46243387593064 239.99999999999977 98.5 Z" stroke-opacity="1" stroke-linecap="round" stroke-linejoin="round" stroke-miterlimit="10"/><text fill="rgb(0,0,0)" stroke="none" font-family="geogebra-sans-serif, sans-serif" font-size="16px" font-style="normal" font-weight="normal" text-decoration="normal" x="223" y="83" text-anchor="start" dominant-baseline="alphabetic" fill-opacity="1">k = 4</text><path fill="none" stroke="rgb(0,0,0)" paint-order="fill stroke markers" d=" M 54.5 138.5 L 254.5 138.5" stroke-opacity="0.39215686274509803" stroke-linecap="round" stroke-linejoin="round" stroke-miterlimit="10" stroke-width="5"/><path fill="rgb(0,0,0)" stroke="none" paint-order="stroke fill markers" d=" M 203 138.5 C 203 143.19442037356174 199.19442037356174 147 194.5 147 C 189.80557962643826 147 186 143.19442037356174 186 138.5 C 186 133.80557962643826 189.80557962643826 130 194.5 130 C 199.19442037356174 130 203 133.80557962643826 203 138.5 Z" fill-opacity="0.39215686274509803"/><path fill="none" stroke="rgb(0,0,0)" paint-order="fill stroke markers" d=" M 203 138.5 C 203 143.19442037356174 199.19442037356174 147 194.5 147 C 189.80557962643826 147 186 143.19442037356174 186 138.5 C 186 133.80557962643826 189.80557962643826 130 194.5 130 C 199.19442037356174 130 203 133.80557962643826 203 138.5 Z" stroke-opacity="0.39215686274509803" stroke-linecap="round" stroke-linejoin="round" stroke-miterlimit="10"/><path fill="rgb(0,0,0)" stroke="none" paint-order="stroke fill markers" d=" M 200 138.5 C 200 141.53756612406937 197.53756612406937 144 194.5 144 C 191.46243387593063 144 189 141.53756612406937 189 138.5 C 189 135.46243387593063 191.46243387593063 133 194.5 133 C 197.53756612406937 133 200 135.46243387593063 200 138.5 Z" fill-opacity="1"/><path fill="none" stroke="rgb(0,0,0)" paint-order="fill stroke markers" d=" M 200 138.5 C 200 141.53756612406937 197.53756612406937 144 194.5 144 C 191.46243387593063 144 189 141.53756612406937 189 138.5 C 189 135.46243387593063 191.46243387593063 133 194.5 133 C 197.53756612406937 133 200 135.46243387593063 200 138.5 Z" stroke-opacity="1" stroke-linecap="round" stroke-linejoin="round" stroke-miterlimit="10"/><text fill="rgb(0,0,0)" stroke="none" font-family="geogebra-sans-serif, sans-serif" font-size="16px" font-style="normal" font-weight="normal" text-decoration="normal" x="183" y="123" text-anchor="start" dominant-baseline="alphabetic" fill-opacity="1">l = 2</text><path fill="rgb(255,127,0)" stroke="none" paint-order="stroke fill markers" d=" M 607.0582999999999 406.7093500000003 C 607.0582999999999 409.47077374915426 604.8197237491539 411.7093500000003 602.0582999999999 411.7093500000003 C 599.2968762508459 411.7093500000003 597.0582999999999 409.47077374915426 597.0582999999999 406.7093500000003 C 597.0582999999999 403.94792625084636 599.2968762508459 401.7093500000003 602.0582999999999 401.7093500000003 C 604.8197237491539 401.7093500000003 607.0582999999999 403.94792625084636 607.0582999999999 406.7093500000003 Z" fill-opacity="1"/><path fill="none" stroke="rgb(0,0,0)" paint-order="fill stroke markers" d=" M 607.0582999999999 406.7093500000003 C 607.0582999999999 409.47077374915426 604.8197237491539 411.7093500000003 602.0582999999999 411.7093500000003 C 599.2968762508459 411.7093500000003 597.0582999999999 409.47077374915426 597.0582999999999 406.7093500000003 C 597.0582999999999 403.94792625084636 599.2968762508459 401.7093500000003 602.0582999999999 401.7093500000003 C 604.8197237491539 401.7093500000003 607.0582999999999 403.94792625084636 607.0582999999999 406.7093500000003 Z" stroke-opacity="1" stroke-linecap="round" stroke-linejoin="round" stroke-miterlimit="10"/><text fill="rgb(255,127,0)" stroke="none" font-family="geogebra-sans-serif, sans-serif" font-size="16px" font-style="normal" font-weight="normal" text-decoration="normal" x="606" y="397" text-anchor="start" dominant-baseline="alphabetic" fill-opacity="1">xc</text><path fill="rgb(21,101,192)" stroke="none" paint-order="stroke fill markers" d=" M 510 406.7093500000003 C 510 409.47077374915426 507.76142374915395 411.7093500000003 505 411.7093500000003 C 502.23857625084605 411.7093500000003 500 409.47077374915426 500 406.7093500000003 C 500 403.94792625084636 502.23857625084605 401.7093500000003 505 401.7093500000003 C 507.76142374915395 401.7093500000003 510 403.94792625084636 510 406.7093500000003 Z" fill-opacity="1"/><path fill="none" stroke="rgb(0,0,0)" paint-order="fill stroke markers" d=" M 510 406.7093500000003 C 510 409.47077374915426 507.76142374915395 411.7093500000003 505 411.7093500000003 C 502.23857625084605 411.7093500000003 500 409.47077374915426 500 406.7093500000003 C 500 403.94792625084636 502.23857625084605 401.7093500000003 505 401.7093500000003 C 507.76142374915395 401.7093500000003 510 403.94792625084636 510 406.7093500000003 Z" stroke-opacity="1" stroke-linecap="round" stroke-linejoin="round" stroke-miterlimit="10"/><text fill="rgb(21,101,192)" stroke="none" font-family="geogebra-sans-serif, sans-serif" font-size="16px" font-style="normal" font-weight="normal" text-decoration="normal" x="509" y="397" text-anchor="start" dominant-baseline="alphabetic" fill-opacity="1">mu</text></g></g></svg>