<svg version="1.1" xmlns="http://www.w3.org/2000/svg" xmlns:xlink="http://www.w3.org/1999/xlink" width="1187" height="755"><defs><clipPath id="DQqkyaBHaOcO"><path fill="none" stroke="none" d=" M 0 0 L 1187 0 L 1187 755 L 0 755 L 0 0 Z"/></clipPath></defs><g transform="scale(1,1)" clip-path="url(#DQqkyaBHaOcO)"><g><rect fill="rgb(255,255,255)" stroke="none" x="0" y="0" width="1187" height="755" fill-opacity="1"/><path fill="none" stroke="rgb(192,192,192)" paint-order="fill stroke markers" d=" M 5.5 0.5 L 5.5 755.5 M 5.5 0.5 L 5.5 755.5 M 65.5 0.5 L 65.5 755.5 M 126.5 0.5 L 126.5 755.5 M 186.5 0.5 L 186.5 755.5 M 247.5 0.5 L 247.5 755.5 M 307.5 0.5 L 307.5 755.5 M 368.5 0.5 L 368.5 755.5 M 428.5 0.5 L 428.5 755.5 M 489.5 0.5 L 489.5 755.5 M 549.5 0.5 L 549.5 755.5 M 610.5 0.5 L 610.5 755.5 M 670.5 0.5 L 670.5 755.5 M 731.5 0.5 L 731.5 755.5 M 791.5 0.5 L 791.5 755.5 M 852.5 0.5 L 852.5 755.5 M 912.5 0.5 L 912.5 755.5 M 973.5 0.5 L 973.5 755.5 M 1033.5 0.5 L 1033.5 755.5 M 1094.5 0.5 L 1094.5 755.5 M 1154.5 0.5 L 1154.5 755.5" stroke-opacity="1" stroke-linecap="round" stroke-linejoin="round" stroke-miterlimit="10"/><path fill="none" stroke="rgb(192,192,192)" paint-order="fill stroke markers" d="" stroke-opacity="0.23529411764705882" stroke-linecap="round" stroke-linejoin="round" stroke-miterlimit="10"/><path fill="none" stroke="rgb(192,192,192)" paint-order="fill stroke markers" d=" M 0.5 12.5 L 1187.5 12.5 M 0.5 12.5 L 1187.5 12.5 M 0.5 73.5 L 1187.5 73.5 M 0.5 133.5 L 1187.5 133.5 M 0.5 194.5 L 1187.5 194.5 M 0.5 254.5 L 1187.5 254.5 M 0.5 315.5 L 1187.5 315.5 M 0.5 375.5 L 1187.5 375.5 M 0.5 436.5 L 1187.5 436.5 M 0.5 496.5 L 1187.5 496.5 M 0.5 557.5 L 1187.5 557.5 M 0.5 617.5 L 1187.5 617.5 M 0.5 678.5 L 1187.5 678.5 M 0.5 738.5 L 1187.5 738.5" stroke-opacity="1" stroke-linecap="round" stroke-linejoin="round" stroke-miterlimit="10"/><path fill="none" stroke="rgb(192,192,192)" paint-order="fill stroke markers" d="" stroke-opacity="0.23529411764705882" stroke-linecap="round" stroke-linejoin="round" stroke-miterlimit="10"/><path fill="none" stroke="rgb(255,0,0)" paint-order="fill stroke markers" d=" M 851.7589302570193 242.29202324766013 C 799.9582519766091 86.88998840642915 608.0530097970893 10.882579955906749 423.12657496648086 72.5247248994429 C 238.2001401358724 134.16686984297905 130.28039146257004 310.11594191110885 182.08106974298033 465.5179767523398 C 233.88174802339063 620.9200115935707 425.7869902029104 696.9274200440932 610.7134250335189 635.2852751005571 C 795.6398598641273 573.6431301570209 903.5596085374297 397.6940580888911 851.7589302570193 242.29202324766013 Z" stroke-opacity="0.6980392156862745" stroke-linecap="round" stroke-linejoin="round" stroke-miterlimit="10" stroke-width="2.5"/><path fill="none" stroke="rgb(127,0,255)" paint-order="fill stroke markers" d=" M 382.4489990862179 692.1567517831594 C 522.7475887452808 711.2345288823456 656.579635492995 578.9019583611879 681.3712419562887 396.5836828042835 C 706.1628484195824 214.26540724737916 612.525937580331 51.0016486054148 472.227347921268 31.923871506228693 C 331.92875826220506 12.846094407042585 198.09671151449092 145.17866492820016 173.30510505119724 327.4969404851046 C 148.51349858790354 509.81521604200884 242.15040942715487 673.0789746839732 382.4489990862179 692.1567517831594 Z" stroke-opacity="0.6980392156862745" stroke-linecap="round" stroke-linejoin="round" stroke-miterlimit="10" stroke-width="2.5"/><path fill="none" stroke="rgb(0,100,0)" paint-order="fill stroke markers" d=" M 535.42 760 L 535.42 -5" stroke-opacity="0.6980392156862745" stroke-linecap="round" stroke-linejoin="round" stroke-miterlimit="10" stroke-width="2.5"/><path fill="rgb(97,97,97)" stroke="none" paint-order="stroke fill markers" d=" M 540.42 51.5946600592292 C 540.42 54.35608380838316 538.181423749154 56.5946600592292 535.42 56.5946600592292 C 532.658576250846 56.5946600592292 530.42 54.35608380838316 530.42 51.5946600592292 C 530.42 48.83323631007523 532.658576250846 46.5946600592292 535.42 46.5946600592292 C 538.181423749154 46.5946600592292 540.42 48.83323631007523 540.42 51.5946600592292 Z" fill-opacity="1"/><path fill="none" stroke="rgb(0,0,0)" paint-order="fill stroke markers" d=" M 540.42 51.5946600592292 C 540.42 54.35608380838316 538.181423749154 56.5946600592292 535.42 56.5946600592292 C 532.658576250846 56.5946600592292 530.42 54.35608380838316 530.42 51.5946600592292 C 530.42 48.83323631007523 532.658576250846 46.5946600592292 535.42 46.5946600592292 C 538.181423749154 46.5946600592292 540.42 48.83323631007523 540.42 51.5946600592292 Z" stroke-opacity="1" stroke-linecap="round" stroke-linejoin="round" stroke-miterlimit="10"/><path fill="rgb(97,97,97)" stroke="none" paint-order="stroke fill markers" d=" M 540.42 652.8552105191377 C 540.42 655.6166342682917 538.181423749154 657.8552105191377 535.42 657.8552105191377 C 532.658576250846 657.8552105191377 530.42 655.6166342682917 530.42 652.8552105191377 C 530.42 650.0937867699837 532.658576250846 647.8552105191377 535.42 647.8552105191377 C 538.181423749154 647.8552105191377 540.42 650.0937867699837 540.42 652.8552105191377 Z" fill-opacity="1"/><path fill="none" stroke="rgb(0,0,0)" paint-order="fill stroke markers" d=" M 540.42 652.8552105191377 C 540.42 655.6166342682917 538.181423749154 657.8552105191377 535.42 657.8552105191377 C 532.658576250846 657.8552105191377 530.42 655.6166342682917 530.42 652.8552105191377 C 530.42 650.0937867699837 532.658576250846 647.8552105191377 535.42 647.8552105191377 C 538.181423749154 647.8552105191377 540.42 650.0937867699837 540.42 652.8552105191377 Z" stroke-opacity="1" stroke-linecap="round" stroke-linejoin="round" stroke-miterlimit="10"/><path fill="rgb(255,153,51)" stroke="none" paint-order="stroke fill markers" d=" M 521.92 353.905 C 521.92 356.6664237491539 519.681423749154 358.905 516.92 358.905 C 514.158576250846 358.905 511.91999999999996 356.6664237491539 511.91999999999996 353.905 C 511.91999999999996 351.143576250846 514.158576250846 348.905 516.92 348.905 C 519.681423749154 348.905 521.92 351.143576250846 521.92 353.905 Z" fill-opacity="1"/><path fill="none" stroke="rgb(0,0,0)" paint-order="fill stroke markers" d=" M 521.92 353.905 C 521.92 356.6664237491539 519.681423749154 358.905 516.92 358.905 C 514.158576250846 358.905 511.91999999999996 356.6664237491539 511.91999999999996 353.905 C 511.91999999999996 351.143576250846 514.158576250846 348.905 516.92 348.905 C 519.681423749154 348.905 521.92 351.143576250846 521.92 353.905 Z" stroke-opacity="1" stroke-linecap="round" stroke-linejoin="round" stroke-miterlimit="10"/><path fill="rgb(255,0,255)" stroke="none" paint-order="stroke fill markers" d=" M 554.92 375.905 C 554.92 378.6664237491539 552.681423749154 380.905 549.92 380.905 C 547.158576250846 380.905 544.92 378.6664237491539 544.92 375.905 C 544.92 373.143576250846 547.158576250846 370.905 549.92 370.905 C 552.681423749154 370.905 554.92 373.143576250846 554.92 375.905 Z" fill-opacity="1"/><path fill="none" stroke="rgb(0,0,0)" paint-order="fill stroke markers" d=" M 554.92 375.905 C 554.92 378.6664237491539 552.681423749154 380.905 549.92 380.905 C 547.158576250846 380.905 544.92 378.6664237491539 544.92 375.905 C 544.92 373.143576250846 547.158576250846 370.905 549.92 370.905 C 552.681423749154 370.905 554.92 373.143576250846 554.92 375.905 Z" stroke-opacity="1" stroke-linecap="round" stroke-linejoin="round" stroke-miterlimit="10"/></g></g></svg>
