<svg xmlns="http://www.w3.org/2000/svg" xmlns:xlink="http://www.w3.org/1999/xlink" width="614.4" height="460.8" viewBox="0 0 460.8 345.6"><defs><style>*{stroke-linecap:butt;stroke-linejoin:round}</style></defs><g id="figure_1"><path d="M0 345.6h460.8V0H0z" style="fill:#fff" id="patch_1"/><g id="axes_1"><path d="M57.6 307.584h357.12V41.472H57.6z" style="fill:#fff" id="patch_2"/><g id="matplotlib.axis_1"><g id="xtick_1"><g id="line2d_1"><defs><path id="ma31a552662" d="M0 0v3.5" style="stroke:#000;stroke-width:.8"/></defs><use style="stroke:#000;stroke-width:.8" x="73.833" y="307.584" xlink:href="#ma31a552662"/></g><g id="text_1"><defs><path id="DejaVuSans-30" d="M31.781 66.406q-7.61 0-11.453-7.5Q16.5 51.422 16.5 36.375q0-14.984 3.828-22.484 3.844-7.5 11.453-7.5 7.672 0 11.5 7.5 3.844 7.5 3.844 22.484 0 15.047-3.844 22.531-3.828 7.5-11.5 7.5zm0 7.813q12.266 0 18.735-9.703 6.468-9.688 6.468-28.141 0-18.406-6.468-28.11-6.47-9.687-18.735-9.687-12.25 0-18.718 9.688-6.47 9.703-6.47 28.109 0 18.453 6.47 28.14Q19.53 74.22 31.78 74.22z"/></defs><use xlink:href="#DejaVuSans-30" transform="matrix(.1 0 0 -.1 70.651 322.182)"/></g></g><g id="xtick_2"><use style="stroke:#000;stroke-width:.8" x="124.535" y="307.584" xlink:href="#ma31a552662" id="line2d_2"/><g id="text_2"><defs><path id="DejaVuSans-32" d="M19.188 8.297h34.421V0H7.33v8.297q5.609 5.812 15.296 15.594 9.703 9.797 12.188 12.64 4.734 5.313 6.609 9 1.89 3.688 1.89 7.25 0 5.813-4.078 9.469-4.078 3.672-10.625 3.672-4.64 0-9.797-1.61-5.14-1.609-11-4.89v9.969Q13.767 71.78 18.938 73q5.188 1.219 9.485 1.219 11.328 0 18.062-5.672 6.735-5.656 6.735-15.125 0-4.5-1.688-8.531-1.672-4.016-6.125-9.485-1.218-1.422-7.765-8.187-6.532-6.766-18.453-18.922z"/></defs><use xlink:href="#DejaVuSans-32" transform="matrix(.1 0 0 -.1 121.354 322.182)"/></g></g><g id="xtick_3"><use style="stroke:#000;stroke-width:.8" x="175.238" y="307.584" xlink:href="#ma31a552662" id="line2d_3"/><g id="text_3"><defs><path id="DejaVuSans-34" d="M37.797 64.313 12.89 25.39h24.906zm-2.594 8.593H47.61V25.391h10.407v-8.203H47.609V0h-9.812v17.188H4.89v9.515z"/></defs><use xlink:href="#DejaVuSans-34" transform="matrix(.1 0 0 -.1 172.057 322.182)"/></g></g><g id="xtick_4"><use style="stroke:#000;stroke-width:.8" x="225.94" y="307.584" xlink:href="#ma31a552662" id="line2d_4"/><g id="text_4"><defs><path id="DejaVuSans-36" d="M33.016 40.375q-6.641 0-10.532-4.547-3.875-4.531-3.875-12.437 0-7.86 3.875-12.438 3.891-4.562 10.532-4.562 6.64 0 10.515 4.562 3.875 4.578 3.875 12.438 0 7.906-3.875 12.437-3.875 4.547-10.515 4.547zm19.578 30.922v-8.984q-3.719 1.75-7.5 2.671-3.782.938-7.5.938-9.766 0-14.922-6.594-5.14-6.594-5.875-19.922 2.875 4.25 7.219 6.516 4.359 2.266 9.578 2.266 10.984 0 17.36-6.672 6.374-6.657 6.374-18.125 0-11.235-6.64-18.032-6.641-6.78-17.672-6.78-12.657 0-19.344 9.687-6.688 9.703-6.688 28.109 0 17.281 8.204 27.563 8.203 10.28 22.015 10.28 3.719 0 7.5-.734t7.89-2.187z"/></defs><use xlink:href="#DejaVuSans-36" transform="matrix(.1 0 0 -.1 222.759 322.182)"/></g></g><g id="xtick_5"><use style="stroke:#000;stroke-width:.8" x="276.643" y="307.584" xlink:href="#ma31a552662" id="line2d_5"/><g id="text_5"><defs><path id="DejaVuSans-38" d="M31.781 34.625q-7.031 0-11.062-3.766-4.016-3.765-4.016-10.343 0-6.594 4.016-10.36Q24.75 6.391 31.78 6.391q7.032 0 11.078 3.78 4.063 3.798 4.063 10.345 0 6.578-4.031 10.343-4.016 3.766-11.11 3.766zm-9.86 4.188q-6.343 1.562-9.89 5.906Q8.5 49.079 8.5 55.329q0 8.733 6.219 13.812 6.234 5.078 17.062 5.078 10.89 0 17.094-5.078 6.203-5.079 6.203-13.813 0-6.25-3.547-10.61-3.531-4.343-9.828-5.906 7.125-1.656 11.094-6.5 3.984-4.828 3.984-11.796 0-10.61-6.468-16.282-6.47-5.656-18.532-5.656-12.047 0-18.531 5.656-6.469 5.672-6.469 16.282 0 6.968 4 11.797 4.016 4.843 11.14 6.5zM18.314 54.39q0-5.657 3.53-8.828 3.548-3.172 9.938-3.172 6.36 0 9.938 3.172 3.593 3.171 3.593 8.828 0 5.672-3.593 8.843-3.578 3.172-9.938 3.172-6.39 0-9.937-3.172-3.532-3.172-3.532-8.843z"/></defs><use xlink:href="#DejaVuSans-38" transform="matrix(.1 0 0 -.1 273.462 322.182)"/></g></g><g id="xtick_6"><use style="stroke:#000;stroke-width:.8" x="327.345" y="307.584" xlink:href="#ma31a552662" id="line2d_6"/><g id="text_6"><defs><path id="DejaVuSans-31" d="M12.406 8.297h16.11v55.625l-17.532-3.516v8.985l17.438 3.515h9.86V8.296H54.39V0H12.406z"/></defs><g transform="matrix(.1 0 0 -.1 320.983 322.182)"><use xlink:href="#DejaVuSans-31"/><use x="63.623" xlink:href="#DejaVuSans-30"/></g></g></g><g id="xtick_7"><use style="stroke:#000;stroke-width:.8" x="378.048" y="307.584" xlink:href="#ma31a552662" id="line2d_7"/><g transform="matrix(.1 0 0 -.1 371.685 322.182)" id="text_7"><use xlink:href="#DejaVuSans-31"/><use x="63.623" xlink:href="#DejaVuSans-32"/></g></g></g><g id="matplotlib.axis_2"><g id="ytick_1"><g id="line2d_8"><defs><path id="meeba2a129e" d="M0 0h-3.5" style="stroke:#000;stroke-width:.8"/></defs><use style="stroke:#000;stroke-width:.8" x="57.6" y="301.575" xlink:href="#meeba2a129e"/></g><g id="text_8"><defs><path id="DejaVuSans-2e" d="M10.688 12.406H21V0H10.687z"/></defs><g transform="matrix(.1 0 0 -.1 34.697 305.375)"><use xlink:href="#DejaVuSans-30"/><use x="63.623" xlink:href="#DejaVuSans-2e"/><use x="95.41" xlink:href="#DejaVuSans-30"/></g></g></g><g id="ytick_2"><use style="stroke:#000;stroke-width:.8" x="57.6" y="269.922" xlink:href="#meeba2a129e" id="line2d_9"/><g id="text_9"><defs><path id="DejaVuSans-35" d="M10.797 72.906h38.719v-8.312H19.828v-17.86q2.14.735 4.281 1.094 2.157.36 4.313.36 12.203 0 19.328-6.688 7.14-6.688 7.14-18.11 0-11.765-7.328-18.296-7.328-6.516-20.656-6.516-4.593 0-9.36.781-4.75.782-9.827 2.344v9.922q4.39-2.39 9.078-3.563 4.687-1.171 9.906-1.171 8.453 0 13.375 4.437 4.938 4.438 4.938 12.063 0 7.609-4.938 12.047-4.922 4.453-13.375 4.453-3.953 0-7.89-.875-3.922-.875-8.016-2.735z"/></defs><g transform="matrix(.1 0 0 -.1 34.697 273.721)"><use xlink:href="#DejaVuSans-30"/><use x="63.623" xlink:href="#DejaVuSans-2e"/><use x="95.41" xlink:href="#DejaVuSans-35"/></g></g></g><g id="ytick_3"><use style="stroke:#000;stroke-width:.8" x="57.6" y="238.268" xlink:href="#meeba2a129e" id="line2d_10"/><g transform="matrix(.1 0 0 -.1 34.697 242.068)" id="text_10"><use xlink:href="#DejaVuSans-31"/><use x="63.623" xlink:href="#DejaVuSans-2e"/><use x="95.41" xlink:href="#DejaVuSans-30"/></g></g><g id="ytick_4"><use style="stroke:#000;stroke-width:.8" x="57.6" y="206.615" xlink:href="#meeba2a129e" id="line2d_11"/><g transform="matrix(.1 0 0 -.1 34.697 210.414)" id="text_11"><use xlink:href="#DejaVuSans-31"/><use x="63.623" xlink:href="#DejaVuSans-2e"/><use x="95.41" xlink:href="#DejaVuSans-35"/></g></g><g id="ytick_5"><use style="stroke:#000;stroke-width:.8" x="57.6" y="174.962" xlink:href="#meeba2a129e" id="line2d_12"/><g transform="matrix(.1 0 0 -.1 34.697 178.76)" id="text_12"><use xlink:href="#DejaVuSans-32"/><use x="63.623" xlink:href="#DejaVuSans-2e"/><use x="95.41" xlink:href="#DejaVuSans-30"/></g></g><g id="ytick_6"><use style="stroke:#000;stroke-width:.8" x="57.6" y="143.308" xlink:href="#meeba2a129e" id="line2d_13"/><g transform="matrix(.1 0 0 -.1 34.697 147.107)" id="text_13"><use xlink:href="#DejaVuSans-32"/><use x="63.623" xlink:href="#DejaVuSans-2e"/><use x="95.41" xlink:href="#DejaVuSans-35"/></g></g><g id="ytick_7"><use style="stroke:#000;stroke-width:.8" x="57.6" y="111.655" xlink:href="#meeba2a129e" id="line2d_14"/><g id="text_14"><defs><path id="DejaVuSans-33" d="M40.578 39.313Q47.656 37.797 51.625 33q3.984-4.781 3.984-11.813 0-10.78-7.422-16.703-7.421-5.906-21.093-5.906-4.578 0-9.438.906-4.86.907-10.031 2.72v9.515q4.094-2.39 8.969-3.61 4.89-1.218 10.218-1.218 9.266 0 14.125 3.656 4.86 3.656 4.86 10.64 0 6.454-4.516 10.079-4.515 3.64-12.562 3.64h-8.5v8.11h8.89q7.266 0 11.125 2.906 3.86 2.906 3.86 8.375 0 5.61-3.985 8.61-3.968 3.015-11.39 3.015-4.063 0-8.703-.89-4.641-.876-10.203-2.72v8.782q5.624 1.562 10.53 2.344 4.907.78 9.25.78 11.235 0 17.766-5.109 6.547-5.093 6.547-13.78 0-6.063-3.468-10.235-3.47-4.172-9.86-5.782z"/></defs><g transform="matrix(.1 0 0 -.1 34.697 115.454)"><use xlink:href="#DejaVuSans-33"/><use x="63.623" xlink:href="#DejaVuSans-2e"/><use x="95.41" xlink:href="#DejaVuSans-30"/></g></g></g><g id="ytick_8"><use style="stroke:#000;stroke-width:.8" x="57.6" y="80.001" xlink:href="#meeba2a129e" id="line2d_15"/><g transform="matrix(.1 0 0 -.1 34.697 83.8)" id="text_15"><use xlink:href="#DejaVuSans-33"/><use x="63.623" xlink:href="#DejaVuSans-2e"/><use x="95.41" xlink:href="#DejaVuSans-35"/></g></g><g id="ytick_9"><use style="stroke:#000;stroke-width:.8" x="57.6" y="48.348" xlink:href="#meeba2a129e" id="line2d_16"/><g transform="matrix(.1 0 0 -.1 34.697 52.147)" id="text_16"><use xlink:href="#DejaVuSans-34"/><use x="63.623" xlink:href="#DejaVuSans-2e"/><use x="95.41" xlink:href="#DejaVuSans-30"/></g></g></g><path d="m73.833 53.568 3.28 8.283 3.278 8.127 3.28 7.971 3.28 7.815 3.278 7.66 3.28 7.502 3.28 7.347 3.278 7.19 3.28 7.035 3.28 6.878 3.278 6.722 3.28 6.566 3.28 6.41 3.278 6.254 3.28 6.098 3.28 5.942 3.278 5.786 3.28 5.63 3.28 5.473 3.279 5.317 3.279 5.162 3.28 5.005 3.279 4.849 3.279 4.693 3.28 4.537 3.279 4.38 3.279 4.226 3.28 4.068 3.279 3.913 3.279 3.756 3.28 3.6 3.279 3.445 3.279 3.288 3.28 3.132 3.279 2.976 3.279 2.82 3.28 2.664 3.279 2.508 3.279 2.351 3.28 2.196 3.279 2.039 3.279 1.883 3.28 1.728 3.279 1.57 3.279 1.416 3.28 1.259 3.279 1.103 3.279.946 3.28.791 3.279.635 3.279.479 3.28.41 3.279.402 3.279.395 3.28.389 3.279.381 3.279.375 3.28.367 3.279.36 3.28.353 3.278.346 3.28.34 3.28.331 3.278.325 3.28.318 3.28.31 3.278.304 3.28.297 3.28.291 3.278.288 3.28.285 3.28.28 3.278.277 3.28.274 3.28.27 3.278.266 3.28.262 3.28.259 3.278.255 3.28.252 3.28.247 3.279.245 3.279.24 3.28.237 3.279.234 3.279.23 3.28.225 3.279.223 3.279.218 3.28.216 3.279.211 3.279.208 3.28.204 3.279.2 3.279.197 3.28.194 3.279.19 3.279.185 3.28.183" clip-path="url(#p0fe2758413)" style="fill:none;stroke:green;stroke-linecap:square;stroke-width:1.5" id="line2d_17"/><path d="m73.833 66.243 3.28 7.045 3.278 6.92 3.28 6.796 3.28 6.67 3.278 6.544 3.28 6.42 3.28 6.294 3.278 6.169 3.28 6.044 3.28 5.918 3.278 5.793 3.28 5.669 3.28 5.543 3.278 5.417 3.28 5.293 3.28 5.167 3.278 5.042 3.28 4.917 3.28 4.792 3.279 4.666 3.279 4.541 3.28 4.417 3.279 4.29 3.279 4.166 3.28 4.04 3.279 3.916 3.279 3.79 3.28 3.664 3.279 3.54 3.279 3.414 3.28 3.29 3.279 3.163 3.279 3.04 3.28 2.913 3.279 2.788 3.279 2.663 3.28 2.538 3.279 2.413 3.279 2.287 3.28 2.162 3.279 2.037 3.279 1.912 3.28 1.787 3.279 1.661 3.279 1.536 3.28 1.411 3.279 1.286 3.279 1.16 3.28 1.036 3.279.91 3.279.786 3.28.754 3.279.792 3.279.829 3.28.865 3.279.903 3.279.94 3.28.976 3.279 1.014 3.28 1.05 3.278 1.088 3.28 1.124 3.28 1.162 3.278 1.198 3.28 1.236 3.28 1.272 3.278 1.31 3.28 1.345 3.28 1.313 3.278 1.235 3.28 1.156 3.28 1.08 3.278 1 3.28.923 3.28.845 3.278.766 3.28.69 3.28.61 3.278.533 3.28.455 3.28.377 3.279.299 3.279.221 3.28.143 3.279.065 3.279-.013 3.28-.09 3.279-.17 3.279-.247 3.28-.325 3.279-.403 3.279-.48 3.28-.56 3.279-.636 3.279-.715 3.28-.793 3.279-.87 3.279-.95 3.28-1.026" clip-path="url(#p0fe2758413)" style="fill:none;stroke:#00f;stroke-linecap:square;stroke-width:1.5" id="line2d_18"/><path d="M57.6 307.584V41.472" style="fill:none;stroke:#000;stroke-linecap:square;stroke-linejoin:miter;stroke-width:.8" id="patch_3"/><path d="M414.72 307.584V41.472" style="fill:none;stroke:#000;stroke-linecap:square;stroke-linejoin:miter;stroke-width:.8" id="patch_4"/><path d="M57.6 307.584h357.12" style="fill:none;stroke:#000;stroke-linecap:square;stroke-linejoin:miter;stroke-width:.8" id="patch_5"/><path d="M57.6 41.472h357.12" style="fill:none;stroke:#000;stroke-linecap:square;stroke-linejoin:miter;stroke-width:.8" id="patch_6"/><g id="legend_1"><path d="M314.265 78.828h93.455q2 0 2-2V48.472q0-2-2-2h-93.455q-2 0-2 2v28.356q0 2 2 2z" style="fill:#fff;opacity:.8;stroke:#ccc;stroke-linejoin:miter" id="patch_7"/><path d="M316.265 54.57h20" style="fill:none;stroke:green;stroke-linecap:square;stroke-width:1.5" id="line2d_19"/><g id="text_17"><defs><path id="DejaVuSans-42" d="M19.672 34.813V8.108H35.5q7.953 0 11.781 3.297 3.844 3.297 3.844 10.078 0 6.844-3.844 10.078-3.828 3.25-11.781 3.25zm0 29.984V42.828h14.61q7.218 0 10.75 2.703 3.546 2.719 3.546 8.282 0 5.515-3.547 8.25-3.531 2.734-10.75 2.734zm-9.86 8.11h25.204q11.28 0 17.375-4.688Q58.5 63.53 58.5 54.89q0-6.703-3.125-10.657-3.125-3.953-9.188-4.922 7.282-1.562 11.313-6.53 4.031-4.954 4.031-12.376 0-9.765-6.64-15.093Q48.25 0 35.984 0H9.812z"/><path id="DejaVuSans-53" d="M53.516 70.516V60.89q-5.61 2.687-10.594 4-4.984 1.328-9.625 1.328-8.047 0-12.422-3.125t-4.375-8.89q0-4.845 2.906-7.313 2.907-2.453 11.016-3.97l5.953-1.218q11.031-2.11 16.281-7.406 5.25-5.297 5.25-14.172 0-10.61-7.11-16.078-7.093-5.469-20.812-5.469-5.172 0-11.015 1.172Q13.14.922 6.89 3.219v10.156q6-3.36 11.765-5.078 5.766-1.703 11.328-1.703 8.438 0 13.032 3.312 4.593 3.328 4.593 9.485 0 5.359-3.297 8.39-3.296 3.032-10.812 4.547L27.484 33.5q-11.03 2.188-15.968 6.875-4.922 4.688-4.922 13.047 0 9.672 6.812 15.234 6.813 5.563 18.766 5.563 5.14 0 10.453-.938 5.328-.922 10.89-2.765z"/><path id="DejaVuSans-70" d="M18.11 8.203v-29H9.077v75.484h9.031v-8.296q2.844 4.875 7.157 7.234Q29.594 56 35.594 56q9.968 0 16.187-7.906 6.235-7.907 6.235-20.797T51.78 6.484q-6.218-7.906-16.187-7.906-6 0-10.328 2.375-4.313 2.375-7.157 7.25zm30.578 19.094q0 9.906-4.079 15.547-4.078 5.64-11.203 5.64-7.14 0-11.218-5.64-4.079-5.64-4.079-15.547 0-9.906 4.078-15.547 4.079-5.64 11.22-5.64 7.124 0 11.202 5.64t4.078 15.547z"/><path id="DejaVuSans-6c" d="M9.422 75.984h8.984V0H9.422z"/><path id="DejaVuSans-69" d="M9.422 54.688h8.984V0H9.422zm0 21.296h8.984v-11.39H9.422z"/><path id="DejaVuSans-6e" d="M54.89 33.016V0h-8.984v32.719q0 7.765-3.031 11.61-3.031 3.858-9.078 3.858-7.281 0-11.484-4.64-4.204-4.625-4.204-12.64V0H9.08v54.688h9.03v-8.5q3.235 4.937 7.594 7.374Q30.078 56 35.797 56q9.422 0 14.25-5.828 4.844-5.828 4.844-17.156z"/><path id="DejaVuSans-65" d="M56.203 29.594v-4.39H14.891q.593-9.282 5.593-14.142 5-4.859 13.938-4.859 5.172 0 10.031 1.266 4.86 1.265 9.656 3.812v-8.5Q49.266.734 44.187-.344 39.11-1.422 33.892-1.422q-13.094 0-20.735 7.61-7.64 7.625-7.64 20.625 0 13.421 7.25 21.296Q20.016 56 32.328 56q11.031 0 17.453-7.11 6.422-7.093 6.422-19.296zm-8.984 2.64q-.094 7.36-4.125 11.75-4.032 4.407-10.672 4.407-7.516 0-12.031-4.25-4.516-4.25-5.203-11.97z"/></defs><g transform="matrix(.1 0 0 -.1 344.265 58.07)"><use xlink:href="#DejaVuSans-42"/><use x="68.588" xlink:href="#DejaVuSans-53"/><use x="132.064" xlink:href="#DejaVuSans-70"/><use x="195.541" xlink:href="#DejaVuSans-6c"/><use x="223.324" xlink:href="#DejaVuSans-69"/><use x="251.107" xlink:href="#DejaVuSans-6e"/><use x="314.486" xlink:href="#DejaVuSans-65"/></g></g><path d="M316.265 69.249h20" style="fill:none;stroke:#00f;stroke-linecap:square;stroke-width:1.5" id="line2d_21"/><g id="text_18"><defs><path id="DejaVuSans-43" d="M64.406 67.281v-10.39q-4.984 4.64-10.625 6.922-5.64 2.296-11.984 2.296-12.5 0-19.14-7.64-6.641-7.64-6.641-22.094 0-14.406 6.64-22.047 6.64-7.64 19.14-7.64 6.345 0 11.985 2.296 5.64 2.297 10.625 6.938V5.609Q59.234 2.094 53.437.33q-5.78-1.75-12.218-1.75-16.563 0-26.094 10.124-9.516 10.14-9.516 27.672 0 17.578 9.516 27.703 9.531 10.14 26.094 10.14 6.531 0 12.312-1.734 5.797-1.734 10.875-5.203z"/><path id="DejaVuSans-56" d="M28.61 0 .78 72.906h10.297l23.11-61.375 23.14 61.375h10.25L39.797 0z"/><path id="DejaVuSans-58" d="M6.297 72.906H16.89l18.125-27.11 18.203 27.11h10.593L40.376 37.891 65.375 0H54.781l-20.5 31L13.625 0H2.985L29 38.922z"/></defs><g transform="matrix(.1 0 0 -.1 344.265 72.749)"><use xlink:href="#DejaVuSans-42"/><use x="68.588" xlink:href="#DejaVuSans-53"/><use x="132.064" xlink:href="#DejaVuSans-70"/><use x="195.541" xlink:href="#DejaVuSans-6c"/><use x="223.324" xlink:href="#DejaVuSans-69"/><use x="251.107" xlink:href="#DejaVuSans-6e"/><use x="314.486" xlink:href="#DejaVuSans-65"/><use x="376.01" xlink:href="#DejaVuSans-20"/><use x="407.797" xlink:href="#DejaVuSans-43"/><use x="477.621" xlink:href="#DejaVuSans-56"/><use x="546.029" xlink:href="#DejaVuSans-58"/></g></g></g></g></g><defs><clipPath id="p0fe2758413"><path d="M57.6 41.472h357.12v266.112H57.6z"/></clipPath></defs></svg>