<svg xmlns="http://www.w3.org/2000/svg" height="185.7" width="709">
  <defs>
    <clipPath id="a">
      <path d="M0 0h596.3v843H0z"/>
    </clipPath>
  </defs>
  <g clip-path="url(#a)" transform="matrix(1.33333 0 0 -1.33333 -63.2 913.9)">
    <path d="M421.2 645.1h35.5v35.5h-35.5z" fill="#fff" fill-rule="evenodd"/>
    <path d="M421.2 645.1h35.5v35.5h-35.5z" fill="none" stroke="#000" stroke-width="1.5" stroke-linecap="round" stroke-linejoin="round" stroke-miterlimit="10"/>
    <text style="-inkscape-font-specification:'Times New Roman, Italic'" transform="matrix(1 0 0 -1 429.8 658)" font-style="italic" font-weight="400" font-size="12" font-family="Times New Roman">
      <tspan y="0" x="0 6.6738958">Z</tspan>
    </text>
    <text style="-inkscape-font-specification:'Times New Roman, Italic'" transform="matrix(1 0 0 -1 439.4 665.3)" font-style="italic" font-weight="400" font-size="10.4" font-family="Times New Roman">
      <tspan y="0" x="0">-</tspan>
    </text>
    <text style="-inkscape-font-specification:'Times New'" transform="matrix(1 0 0 -1 443 665.3)" font-weight="400" font-size="10.4" font-family="Times New Roman">
      <tspan y="0" x="0">1</tspan>
    </text>
    <path d="M392.9 663.6H415" fill="none" stroke="#000" stroke-width="1.5" stroke-linecap="round" stroke-linejoin="round" stroke-miterlimit="10"/>
    <path d="M421.2 663.6l-8-4a9 9 0 0 1 0 8z" fill-rule="evenodd"/>
    <path d="M485.9 624.6v38.7h-28.4" fill="none" stroke="#000" stroke-width="1.5" stroke-linecap="round" stroke-linejoin="round" stroke-miterlimit="10"/>
    <path d="M485.9 618.5l-4 8a9 9 0 0 1 8 0z" fill-rule="evenodd"/>
    <path d="M476.3 557.5a9.6 9.6 0 1 0 19.2 0 9.6 9.6 0 0 0-19.2 0z" fill="#fff" fill-rule="evenodd"/>
    <path d="M476.3 557.5a9.6 9.6 0 1 0 19.2 0 9.6 9.6 0 0 0-19.2 0z" fill="none" stroke="#000" stroke-width="1.5" stroke-linecap="round" stroke-linejoin="round" stroke-miterlimit="10"/>
    <path d="M485.9 550v15M492.8 557.5H479" fill="none" stroke="#000" stroke-width="1.5" stroke-miterlimit="2"/>
    <path d="M401.4 557.8l68.7-.2" fill="none" stroke="#000" stroke-width="1.5" stroke-linecap="round" stroke-linejoin="round" stroke-miterlimit="2"/>
    <path d="M476.2 557.5l-8-4a9 9 0 0 1 0 8.1z" fill-rule="evenodd"/>
    <text transform="matrix(1 0 0 -1 339.5 603.8)" font-weight="400" font-size="12">
      <tspan y="0" x="0 12.00024">……</tspan>
    </text>
    <path d="M496 557.3h34.2" fill="none" stroke="#000" stroke-width="1.5" stroke-linecap="round" stroke-linejoin="round" stroke-miterlimit="2"/>
    <path d="M536.3 557.3l-8-4a9 9 0 0 1 0 8z" fill-rule="evenodd"/>
    <path d="M141.7 646h35.5v35.4h-35.5z" fill="#fff" fill-rule="evenodd"/>
    <path d="M141.7 646h35.5v35.4h-35.5z" fill="none" stroke="#000" stroke-width="1.5" stroke-linecap="round" stroke-linejoin="round" stroke-miterlimit="2"/>
    <text style="-inkscape-font-specification:'Times New Roman, Italic'" transform="matrix(1 0 0 -1 150.3 659)" font-style="italic" font-weight="400" font-size="12" font-family="Times New Roman">
      <tspan y="0" x="0 6.6738958">Z</tspan>
    </text>
    <text style="-inkscape-font-specification:'Times New Roman, Italic'" transform="matrix(1 0 0 -1 160 666.2)" font-style="italic" font-weight="400" font-size="10.4" font-family="Times New Roman">
      <tspan y="0" x="0">-</tspan>
    </text>
    <text style="-inkscape-font-specification:'Times New'" transform="matrix(1 0 0 -1 163.4 666.2)" font-weight="400" font-size="10.4" font-family="Times New Roman">
      <tspan y="0" x="0">1</tspan>
    </text>
    <path d="M196.8 558.4a9.6 9.6 0 1 0 19.2 0 9.6 9.6 0 0 0-19.2 0z" fill="#fff" fill-rule="evenodd"/>
    <path d="M196.8 558.4a9.6 9.6 0 1 0 19.2 0 9.6 9.6 0 0 0-19.2 0z" fill="none" stroke="#000" stroke-width="1.5" stroke-linecap="round" stroke-linejoin="round" stroke-miterlimit="2"/>
    <path d="M206.4 550.9v15M213.3 558.4h-13.9" fill="none" stroke="#000" stroke-width="1.5" stroke-miterlimit="2"/>
    <path d="M113.4 558.4h77.2" fill="none" stroke="#000" stroke-width="1.5" stroke-linecap="round" stroke-linejoin="round" stroke-miterlimit="2"/>
    <path d="M196.7 558.4l-8-4a9 9 0 0 1 0 8z" fill-rule="evenodd"/>
    <path d="M113.4 558.4h.1V595" fill="none" stroke="#000" stroke-width="1.5" stroke-linecap="round" stroke-linejoin="round" stroke-miterlimit="2"/>
    <text style="-inkscape-font-specification:'Times New Roman, Italic'" transform="matrix(1 0 0 -1 56.6 602.8)" font-style="italic" font-weight="400" font-size="12" font-family="Times New Roman">
      <tspan y="0" x="0">h</tspan>
    </text>
    <text style="-inkscape-font-specification:'Times New'" transform="matrix(1 0 0 -1 62.6 602.8)" font-weight="400" font-size="12" font-family="Times New Roman">
      <tspan y="0" x="0">[</tspan>
    </text>
    <text style="-inkscape-font-specification:'Times New'" transform="matrix(1 0 0 -1 66.6 602.8)" font-weight="400" font-size="12" font-family="Times New Roman">
      <tspan y="0" x="0">0</tspan>
    </text>
    <text style="-inkscape-font-specification:'Times New'" transform="matrix(1 0 0 -1 72.6 602.8)" font-weight="400" font-size="12" font-family="Times New Roman">
      <tspan y="0" x="0">]</tspan>
    </text>
    <path d="M135.7 664.4H79.4" fill="none" stroke="#000" stroke-width="1.5" stroke-linecap="round" stroke-linejoin="round" stroke-miterlimit="2"/>
    <path d="M141.7 664.4l-8-4a9 9 0 0 1 0 8z" fill-rule="evenodd"/>
    <path d="M113.5 624.5l-.1 40" fill="none" stroke="#000" stroke-width="1.5" stroke-linecap="round" stroke-linejoin="round" stroke-miterlimit="2"/>
    <path d="M113.5 618.5l-4 8a9 9 0 0 1 8 0z" fill-rule="evenodd"/>
    <path d="M234.7 646h35.4v35.4h-35.4z" fill="#fff" fill-rule="evenodd"/>
    <path d="M234.7 646h35.4v35.4h-35.4z" fill="none" stroke="#000" stroke-width="1.5" stroke-linecap="round" stroke-linejoin="round" stroke-miterlimit="2"/>
    <text style="-inkscape-font-specification:'Times New Roman, Italic'" transform="matrix(1 0 0 -1 243.3 659)" font-style="italic" font-weight="400" font-size="12" font-family="Times New Roman">
      <tspan y="0" x="0 6.6738958">Z</tspan>
    </text>
    <text style="-inkscape-font-specification:'Times New Roman, Italic'" transform="matrix(1 0 0 -1 253 666.2)" font-style="italic" font-weight="400" font-size="10.4" font-family="Times New Roman">
      <tspan y="0" x="0">-</tspan>
    </text>
    <text style="-inkscape-font-specification:'Times New'" transform="matrix(1 0 0 -1 256.4 666.2)" font-weight="400" font-size="10.4" font-family="Times New Roman">
      <tspan y="0" x="0">1</tspan>
    </text>
    <path d="M289.7 558.4a9.6 9.6 0 1 0 19.3 0 9.6 9.6 0 0 0-19.3 0z" fill="#fff" fill-rule="evenodd"/>
    <path d="M289.7 558.4a9.6 9.6 0 1 0 19.3 0 9.6 9.6 0 0 0-19.3 0z" fill="none" stroke="#000" stroke-width="1.5" stroke-linecap="round" stroke-linejoin="round" stroke-miterlimit="2"/>
    <path d="M299.4 550.9v15M306.3 558.4h-13.9" fill="none" stroke="#000" stroke-width="1.5" stroke-miterlimit="2"/>
    <path d="M206.5 574.1V595" fill="none" stroke="#000" stroke-width="1.5" stroke-linecap="round" stroke-linejoin="round" stroke-miterlimit="2"/>
    <path d="M206.5 568l-4 8a9 9 0 0 1 8 0z" fill-rule="evenodd"/>
    <path d="M228.6 664.4h-51.4" fill="none" stroke="#000" stroke-width="1.5" stroke-linecap="round" stroke-linejoin="round" stroke-miterlimit="2"/>
    <path d="M234.7 664.4l-8-4a9 9 0 0 1 0 8z" fill-rule="evenodd"/>
    <path d="M206.4 624.3v40.1" fill="none" stroke="#000" stroke-width="1.5" stroke-linecap="round" stroke-linejoin="round" stroke-miterlimit="2"/>
    <path d="M206.4 618.2l-4 8a9 9 0 0 1 8 0z" fill-rule="evenodd"/>
    <path d="M216 558.4h67.6" fill="none" stroke="#000" stroke-width="1.5" stroke-linecap="round" stroke-linejoin="round" stroke-miterlimit="2"/>
    <path d="M289.7 558.4l-8-4a9 9 0 0 1 0 8z" fill-rule="evenodd"/>
    <path d="M299.5 573.6v20.8" fill="none" stroke="#000" stroke-width="1.5" stroke-linecap="round" stroke-linejoin="round" stroke-miterlimit="2"/>
    <path d="M299.5 567.5l-4 8a9 9 0 0 1 8 0z" fill-rule="evenodd"/>
    <path d="M299.3 624.6v39.3" fill="none" stroke="#000" stroke-width="1.5" stroke-linecap="round" stroke-linejoin="round" stroke-miterlimit="2"/>
    <path d="M299.3 618.5l-4 8a9 9 0 0 1 8 0z" fill-rule="evenodd"/>
    <path d="M270.1 664.4h51.6M309 558.4h14.2" fill="none" stroke="#000" stroke-width="1.5" stroke-linecap="round" stroke-linejoin="round" stroke-miterlimit="2"/>
    <text style="-inkscape-font-specification:'Times New Roman, Italic'" transform="matrix(1 0 0 -1 60.4 661.5)" font-style="italic" font-weight="400" font-size="12" font-family="Times New Roman">
      <tspan y="0" x="0">x</tspan>
    </text>
    <text style="-inkscape-font-specification:'Times New'" transform="matrix(1 0 0 -1 65.7 661.5)" font-weight="400" font-size="12" font-family="Times New Roman">
      <tspan y="0" x="0">[</tspan>
    </text>
    <text style="-inkscape-font-specification:'Times New'" transform="matrix(1 0 0 -1 69.7 661.5)" font-weight="400" font-size="12" font-family="Times New Roman">
      <tspan y="0" x="0">t</tspan>
    </text>
    <text style="-inkscape-font-specification:'Times New'" transform="matrix(1 0 0 -1 73 661.5)" font-weight="400" font-size="12" font-family="Times New Roman">
      <tspan y="0" x="0">]</tspan>
    </text>
    <text style="-inkscape-font-specification:'Times New Roman, Italic'" transform="matrix(1 0 0 -1 192.2 670.7)" font-style="italic" font-weight="400" font-size="12" font-family="Times New Roman">
      <tspan y="0" x="0">x</tspan>
    </text>
    <text style="-inkscape-font-specification:'Times New'" transform="matrix(1 0 0 -1 197.5 670.7)" font-weight="400" font-size="12" font-family="Times New Roman">
      <tspan y="0" x="0">[</tspan>
    </text>
    <text style="-inkscape-font-specification:'Times New'" transform="matrix(1 0 0 -1 201.5 670.7)" font-weight="400" font-size="12" font-family="Times New Roman">
      <tspan y="0" x="0">t</tspan>
    </text>
    <text style="-inkscape-font-specification:'Times New'" transform="matrix(1 0 0 -1 204.8 670.7)" font-weight="400" font-size="12" font-family="Times New Roman">
      <tspan y="0" x="0">-</tspan>
    </text>
    <text style="-inkscape-font-specification:'Times New'" transform="matrix(1 0 0 -1 208.8 670.7)" font-weight="400" font-size="12" font-family="Times New Roman">
      <tspan y="0" x="0">1</tspan>
    </text>
    <text style="-inkscape-font-specification:'Times New'" transform="matrix(1 0 0 -1 214.8 670.7)" font-weight="400" font-size="12" font-family="Times New Roman">
      <tspan y="0" x="0">]</tspan>
    </text>
    <text style="-inkscape-font-specification:'Times New Roman, Italic'" transform="matrix(1 0 0 -1 284.3 670.7)" font-style="italic" font-weight="400" font-size="12" font-family="Times New Roman">
      <tspan y="0" x="0">x</tspan>
    </text>
    <text style="-inkscape-font-specification:'Times New'" transform="matrix(1 0 0 -1 289.6 670.7)" font-weight="400" font-size="12" font-family="Times New Roman">
      <tspan y="0" x="0">[</tspan>
    </text>
    <text style="-inkscape-font-specification:'Times New'" transform="matrix(1 0 0 -1 293.6 670.7)" font-weight="400" font-size="12" font-family="Times New Roman">
      <tspan y="0" x="0">t</tspan>
    </text>
    <text style="-inkscape-font-specification:'Times New'" transform="matrix(1 0 0 -1 297 670.7)" font-weight="400" font-size="12" font-family="Times New Roman">
      <tspan y="0" x="0">-</tspan>
    </text>
    <text style="-inkscape-font-specification:'Times New'" transform="matrix(1 0 0 -1 301 670.7)" font-weight="400" font-size="12" font-family="Times New Roman">
      <tspan y="0" x="0">2</tspan>
    </text>
    <text style="-inkscape-font-specification:'Times New'" transform="matrix(1 0 0 -1 307 670.7)" font-weight="400" font-size="12" font-family="Times New Roman">
      <tspan y="0" x="0">]</tspan>
    </text>
    <text style="-inkscape-font-specification:'Times New Roman, Italic'" transform="matrix(1 0 0 -1 470.3 667.9)" font-style="italic" font-weight="400" font-size="12" font-family="Times New Roman">
      <tspan y="0" x="0">x</tspan>
    </text>
    <text style="-inkscape-font-specification:'Times New'" transform="matrix(1 0 0 -1 475.7 667.9)" font-weight="400" font-size="12" font-family="Times New Roman">
      <tspan y="0" x="0">[</tspan>
    </text>
    <text style="-inkscape-font-specification:'Times New'" transform="matrix(1 0 0 -1 479.7 667.9)" font-weight="400" font-size="12" font-family="Times New Roman">
      <tspan y="0" x="0">t</tspan>
    </text>
    <text style="-inkscape-font-specification:'Times New'" transform="matrix(1 0 0 -1 483 667.9)" font-weight="400" font-size="12" font-family="Times New Roman">
      <tspan y="0" x="0">-</tspan>
    </text>
    <text style="-inkscape-font-specification:'Times New'" transform="matrix(1 0 0 -1 487 667.9)" font-weight="400" font-size="12" font-family="Times New Roman">
      <tspan y="0" x="0">n</tspan>
    </text>
    <text style="-inkscape-font-specification:'Times New'" transform="matrix(1 0 0 -1 493 667.9)" font-weight="400" font-size="12" font-family="Times New Roman">
      <tspan y="0" x="0">]</tspan>
    </text>
    <text style="-inkscape-font-specification:'Times New Roman, Italic'" transform="matrix(1 0 0 -1 537.9 554.3)" font-style="italic" font-weight="400" font-size="12" font-family="Times New Roman">
      <tspan y="0" x="0">y</tspan>
    </text>
    <text style="-inkscape-font-specification:'Times New'" transform="matrix(1 0 0 -1 543.2 554.3)" font-weight="400" font-size="12" font-family="Times New Roman">
      <tspan y="0" x="0">[</tspan>
    </text>
    <text style="-inkscape-font-specification:'Times New'" transform="matrix(1 0 0 -1 547.2 554.3)" font-weight="400" font-size="12" font-family="Times New Roman">
      <tspan y="0" x="0">t</tspan>
    </text>
    <text style="-inkscape-font-specification:'Times New'" transform="matrix(1 0 0 -1 550.5 554.3)" font-weight="400" font-size="12" font-family="Times New Roman">
      <tspan y="0" x="0">]</tspan>
    </text>
    <path d="M485.7 593.8v-21" fill="none" stroke="#000" stroke-width="1.5" stroke-linecap="round" stroke-linejoin="round" stroke-miterlimit="2"/>
    <path d="M485.7 566.6l-4 8a9 9 0 0 1 8 0z" fill-rule="evenodd"/>
    <path d="M96 606.6H76.5" fill="none" stroke="#000" stroke-width="1.5" stroke-linecap="round" stroke-linejoin="round" stroke-miterlimit="2"/>
    <path d="M102 606.6l-8-4a9 9 0 0 1 0 8z" fill-rule="evenodd"/>
    <path d="M101.8 606.7a11.7 11.7 0 1 0 23.5 0 11.7 11.7 0 0 0-23.5 0z" fill="#fff" fill-rule="evenodd"/>
    <path d="M101.8 606.7a11.7 11.7 0 1 0 23.5 0 11.7 11.7 0 0 0-23.5 0zM121.3 598.9l-15.6 15.7M105.7 598.9l15.6 15.7" fill="none" stroke="#000" stroke-width="2.2" stroke-linecap="round" stroke-linejoin="round" stroke-miterlimit="2"/>
    <path d="M194.7 606.7a11.7 11.7 0 1 0 23.5 0 11.7 11.7 0 0 0-23.5 0z" fill="#fff" fill-rule="evenodd"/>
    <path d="M194.7 606.7a11.7 11.7 0 1 0 23.5 0 11.7 11.7 0 0 0-23.5 0zM214.3 598.9l-15.6 15.7M198.7 598.9l15.6 15.7" fill="none" stroke="#000" stroke-width="2.2" stroke-linecap="round" stroke-linejoin="round" stroke-miterlimit="2"/>
    <text style="-inkscape-font-specification:'Times New Roman, Italic'" transform="matrix(1 0 0 -1 149 602.8)" font-style="italic" font-weight="400" font-size="12" font-family="Times New Roman">
      <tspan y="0" x="0">h</tspan>
    </text>
    <text style="-inkscape-font-specification:'Times New'" transform="matrix(1 0 0 -1 155 602.8)" font-weight="400" font-size="12" font-family="Times New Roman">
      <tspan y="0" x="0">[</tspan>
    </text>
    <text style="-inkscape-font-specification:'Times New'" transform="matrix(1 0 0 -1 159 602.8)" font-weight="400" font-size="12" font-family="Times New Roman">
      <tspan y="0" x="0">1</tspan>
    </text>
    <text style="-inkscape-font-specification:'Times New'" transform="matrix(1 0 0 -1 165 602.8)" font-weight="400" font-size="12" font-family="Times New Roman">
      <tspan y="0" x="0">]</tspan>
    </text>
    <path d="M188.4 606.6h-19.5" fill="none" stroke="#000" stroke-width="1.5" stroke-linecap="round" stroke-linejoin="round" stroke-miterlimit="2"/>
    <path d="M194.5 606.6l-8-4a9 9 0 0 1 0 8z" fill-rule="evenodd"/>
    <path d="M287.6 606.8a11.7 11.7 0 1 0 23.5 0 11.7 11.7 0 1 0-23.5 0z" fill="#fff" fill-rule="evenodd"/>
    <path d="M287.6 606.8a11.7 11.7 0 1 0 23.5 0 11.7 11.7 0 1 0-23.5 0zM307.2 599l-15.7 15.6M291.5 599l15.7 15.6" fill="none" stroke="#000" stroke-width="2.2" stroke-linecap="round" stroke-linejoin="round" stroke-miterlimit="2"/>
    <text style="-inkscape-font-specification:'Times New Roman, Italic'" transform="matrix(1 0 0 -1 241.5 602.8)" font-style="italic" font-weight="400" font-size="12" font-family="Times New Roman">
      <tspan y="0" x="0">h</tspan>
    </text>
    <text style="-inkscape-font-specification:'Times New'" transform="matrix(1 0 0 -1 247.5 602.8)" font-weight="400" font-size="12" font-family="Times New Roman">
      <tspan y="0" x="0">[</tspan>
    </text>
    <text style="-inkscape-font-specification:'Times New'" transform="matrix(1 0 0 -1 251.5 602.8)" font-weight="400" font-size="12" font-family="Times New Roman">
      <tspan y="0" x="0">2</tspan>
    </text>
    <text style="-inkscape-font-specification:'Times New'" transform="matrix(1 0 0 -1 257.5 602.8)" font-weight="400" font-size="12" font-family="Times New Roman">
      <tspan y="0" x="0">]</tspan>
    </text>
    <path d="M280.8 606.6h-19.4" fill="none" stroke="#000" stroke-width="1.5" stroke-linecap="round" stroke-linejoin="round" stroke-miterlimit="2"/>
    <path d="M286.9 606.6l-8-4a9 9 0 0 1 0 8z" fill-rule="evenodd"/>
    <path d="M474 606.8a11.7 11.7 0 1 0 23.6 0 11.7 11.7 0 1 0-23.5 0z" fill="#fff" fill-rule="evenodd"/>
    <path d="M474 606.8a11.7 11.7 0 1 0 23.6 0 11.7 11.7 0 1 0-23.5 0zM493.6 599L478 614.5M478 599l15.7 15.6" fill="none" stroke="#000" stroke-width="2.2" stroke-linecap="round" stroke-linejoin="round" stroke-miterlimit="2"/>
    <text style="-inkscape-font-specification:'Times New Roman, Italic'" transform="matrix(1 0 0 -1 416.6 602.8)" font-style="italic" font-weight="400" font-size="12" font-family="Times New Roman">
      <tspan y="0" x="0">h</tspan>
    </text>
    <text style="-inkscape-font-specification:'Times New'" transform="matrix(1 0 0 -1 422.6 602.8)" font-weight="400" font-size="12" font-family="Times New Roman">
      <tspan y="0" x="0">[</tspan>
    </text>
    <text style="-inkscape-font-specification:'Times New'" transform="matrix(1 0 0 -1 426.6 602.8)" font-weight="400" font-size="12" font-family="Times New Roman">
      <tspan y="0" x="0">n</tspan>
    </text>
    <text style="-inkscape-font-specification:'Times New'" transform="matrix(1 0 0 -1 432.6 602.8)" font-weight="400" font-size="12" font-family="Times New Roman">
      <tspan y="0" x="0">-</tspan>
    </text>
    <text style="-inkscape-font-specification:'Times New'" transform="matrix(1 0 0 -1 436.6 602.8)" font-weight="400" font-size="12" font-family="Times New Roman">
      <tspan y="0" x="0">1</tspan>
    </text>
    <text style="-inkscape-font-specification:'Times New'" transform="matrix(1 0 0 -1 442.6 602.8)" font-weight="400" font-size="12" font-family="Times New Roman">
      <tspan y="0" x="0">]</tspan>
    </text>
    <path d="M467.3 606.6h-19.4" fill="none" stroke="#000" stroke-width="1.5" stroke-linecap="round" stroke-linejoin="round" stroke-miterlimit="2"/>
    <path d="M473.4 606.6l-8-4a9 9 0 0 1 0 8z" fill-rule="evenodd"/>
  </g>
</svg>
