<svg version="1.1" xmlns="http://www.w3.org/2000/svg" xmlns:xlink="http://www.w3.org/1999/xlink" width="1191" height="800"><defs><clipPath id="yvEethRTbAfF"><path fill="none" stroke="none" d=" M 0 0 L 1191 0 L 1191 800 L 0 800 L 0 0 Z"/></clipPath></defs><g transform="scale(1,1)" clip-path="url(#yvEethRTbAfF)"><g><rect fill="rgb(255,255,255)" stroke="none" x="0" y="0" width="1191" height="800" fill-opacity="1"/><path fill="none" stroke="rgb(211,47,47)" paint-order="fill stroke markers" d=" M 894.8782999999999 406.7093500000003 C 894.8782999999999 568.4293704454531 763.7783204454528 699.52935 602.0582999999999 699.52935 C 440.33827955454706 699.52935 309.2382999999999 568.4293704454531 309.2382999999999 406.7093500000003 C 309.2382999999999 244.98932955454754 440.33827955454706 113.88935000000055 602.0582999999999 113.88935000000055 C 763.7783204454528 113.88935000000055 894.8782999999999 244.98932955454754 894.8782999999999 406.7093500000003 Z" stroke-opacity="0.6980392156862745" stroke-linecap="round" stroke-linejoin="round" stroke-miterlimit="10" stroke-width="2.5"/><text fill="rgb(211,47,47)" stroke="none" font-family="geogebra-sans-serif, sans-serif" font-size="16px" font-style="normal" font-weight="normal" text-decoration="normal" x="455" y="177" text-anchor="start" dominant-baseline="alphabetic" fill-opacity="1">E0</text><path fill="none" stroke="rgb(151,95,168)" paint-order="fill stroke markers" d=" M 602.0582999999999 36.08263708787359 C 499.36553473238746 36.08263708787359 416.11659999999983 202.01786857871718 416.11659999999983 406.7093500000003 C 416.11659999999983 611.4008314212834 499.36553473238746 777.3360629121271 602.0582999999999 777.3360629121271 C 704.7510652676124 777.3360629121271 788 611.4008314212834 788 406.7093500000003 C 788 202.01786857871718 704.7510652676124 36.08263708787359 602.0582999999999 36.08263708787359 Z" stroke-opacity="0.6980392156862745" stroke-linecap="round" stroke-linejoin="round" stroke-miterlimit="10" stroke-width="2.5"/><text fill="rgb(151,95,168)" stroke="none" font-family="geogebra-sans-serif, sans-serif" font-size="16px" font-style="normal" font-weight="normal" text-decoration="normal" x="464" y="592" text-anchor="start" dominant-baseline="alphabetic" fill-opacity="1">E1</text><path fill="none" stroke="rgb(21,101,192)" paint-order="fill stroke markers" d=" M 470.2892999999999 805 L 470.2892999999999 -5" stroke-opacity="0.8" stroke-linecap="round" stroke-linejoin="round" stroke-miterlimit="10" stroke-width="2.5"/><text fill="rgb(21,101,192)" stroke="none" font-family="geogebra-sans-serif, sans-serif" font-size="16px" font-style="normal" font-weight="normal" text-decoration="normal" x="478" y="24" text-anchor="start" dominant-baseline="alphabetic" fill-opacity="1">g1</text><path fill="none" stroke="rgb(0,103,88)" paint-order="fill stroke markers" d=" M 733.8272999999999 805 L 733.8272999999999 -5" stroke-opacity="0.8" stroke-linecap="round" stroke-linejoin="round" stroke-miterlimit="10" stroke-width="2.5"/><text fill="rgb(0,103,88)" stroke="none" font-family="geogebra-sans-serif, sans-serif" font-size="16px" font-style="normal" font-weight="normal" text-decoration="normal" x="717" y="24" text-anchor="start" dominant-baseline="alphabetic" fill-opacity="1">g0</text><path fill="none" stroke="rgb(0,0,0)" paint-order="fill stroke markers" d=" M 54.5 98.5 L 254.5 98.5" stroke-opacity="0.39215686274509803" stroke-linecap="round" stroke-linejoin="round" stroke-miterlimit="10" stroke-width="5"/><path fill="rgb(0,0,0)" stroke="none" paint-order="stroke fill markers" d=" M 199 98.5 C 199 103.19442037356174 195.19442037356174 107 190.5 107 C 185.80557962643826 107 182 103.19442037356174 182 98.5 C 182 93.80557962643826 185.80557962643826 90 190.5 90 C 195.19442037356174 90 199 93.80557962643826 199 98.5 Z" fill-opacity="0.39215686274509803"/><path fill="none" stroke="rgb(0,0,0)" paint-order="fill stroke markers" d=" M 199 98.5 C 199 103.19442037356174 195.19442037356174 107 190.5 107 C 185.80557962643826 107 182 103.19442037356174 182 98.5 C 182 93.80557962643826 185.80557962643826 90 190.5 90 C 195.19442037356174 90 199 93.80557962643826 199 98.5 Z" stroke-opacity="0.39215686274509803" stroke-linecap="round" stroke-linejoin="round" stroke-miterlimit="10"/><path fill="rgb(0,0,0)" stroke="none" paint-order="stroke fill markers" d=" M 196 98.5 C 196 101.53756612406936 193.53756612406937 104 190.5 104 C 187.46243387593063 104 185 101.53756612406936 185 98.5 C 185 95.46243387593064 187.46243387593063 93 190.5 93 C 193.53756612406937 93 196 95.46243387593064 196 98.5 Z" fill-opacity="1"/><path fill="none" stroke="rgb(0,0,0)" paint-order="fill stroke markers" d=" M 196 98.5 C 196 101.53756612406936 193.53756612406937 104 190.5 104 C 187.46243387593063 104 185 101.53756612406936 185 98.5 C 185 95.46243387593064 187.46243387593063 93 190.5 93 C 193.53756612406937 93 196 95.46243387593064 196 98.5 Z" stroke-opacity="1" stroke-linecap="round" stroke-linejoin="round" stroke-miterlimit="10"/><text fill="rgb(0,0,0)" stroke="none" font-family="geogebra-sans-serif, sans-serif" font-size="16px" font-style="normal" font-weight="normal" text-decoration="normal" x="179" y="83" text-anchor="start" dominant-baseline="alphabetic" fill-opacity="1">k = 1.8</text><path fill="none" stroke="rgb(0,0,0)" paint-order="fill stroke markers" d=" M 54.5 138.5 L 254.5 138.5" stroke-opacity="0.39215686274509803" stroke-linecap="round" stroke-linejoin="round" stroke-miterlimit="10" stroke-width="5"/><path fill="rgb(0,0,0)" stroke="none" paint-order="stroke fill markers" d=" M 127.00000000000006 138.5 C 127.00000000000006 143.19442037356174 123.1944203735618 147 118.50000000000006 147 C 113.80557962643832 147 110.00000000000006 143.19442037356174 110.00000000000006 138.5 C 110.00000000000006 133.80557962643826 113.80557962643832 130 118.50000000000006 130 C 123.1944203735618 130 127.00000000000006 133.80557962643826 127.00000000000006 138.5 Z" fill-opacity="0.39215686274509803"/><path fill="none" stroke="rgb(0,0,0)" paint-order="fill stroke markers" d=" M 127.00000000000006 138.5 C 127.00000000000006 143.19442037356174 123.1944203735618 147 118.50000000000006 147 C 113.80557962643832 147 110.00000000000006 143.19442037356174 110.00000000000006 138.5 C 110.00000000000006 133.80557962643826 113.80557962643832 130 118.50000000000006 130 C 123.1944203735618 130 127.00000000000006 133.80557962643826 127.00000000000006 138.5 Z" stroke-opacity="0.39215686274509803" stroke-linecap="round" stroke-linejoin="round" stroke-miterlimit="10"/><path fill="rgb(0,0,0)" stroke="none" paint-order="stroke fill markers" d=" M 124.00000000000006 138.5 C 124.00000000000006 141.53756612406937 121.53756612406941 144 118.50000000000006 144 C 115.4624338759307 144 113.00000000000006 141.53756612406937 113.00000000000006 138.5 C 113.00000000000006 135.46243387593063 115.4624338759307 133 118.50000000000006 133 C 121.53756612406941 133 124.00000000000006 135.46243387593063 124.00000000000006 138.5 Z" fill-opacity="1"/><path fill="none" stroke="rgb(0,0,0)" paint-order="fill stroke markers" d=" M 124.00000000000006 138.5 C 124.00000000000006 141.53756612406937 121.53756612406941 144 118.50000000000006 144 C 115.4624338759307 144 113.00000000000006 141.53756612406937 113.00000000000006 138.5 C 113.00000000000006 135.46243387593063 115.4624338759307 133 118.50000000000006 133 C 121.53756612406941 133 124.00000000000006 135.46243387593063 124.00000000000006 138.5 Z" stroke-opacity="1" stroke-linecap="round" stroke-linejoin="round" stroke-miterlimit="10"/><text fill="rgb(0,0,0)" stroke="none" font-family="geogebra-sans-serif, sans-serif" font-size="16px" font-style="normal" font-weight="normal" text-decoration="normal" x="107" y="123" text-anchor="start" dominant-baseline="alphabetic" fill-opacity="1">l = -1.8</text><path fill="rgb(255,127,0)" stroke="none" paint-order="stroke fill markers" d=" M 607.0582999999999 406.7093500000003 C 607.0582999999999 409.47077374915426 604.8197237491539 411.7093500000003 602.0582999999999 411.7093500000003 C 599.2968762508459 411.7093500000003 597.0582999999999 409.47077374915426 597.0582999999999 406.7093500000003 C 597.0582999999999 403.94792625084636 599.2968762508459 401.7093500000003 602.0582999999999 401.7093500000003 C 604.8197237491539 401.7093500000003 607.0582999999999 403.94792625084636 607.0582999999999 406.7093500000003 Z" fill-opacity="1"/><path fill="none" stroke="rgb(0,0,0)" paint-order="fill stroke markers" d=" M 607.0582999999999 406.7093500000003 C 607.0582999999999 409.47077374915426 604.8197237491539 411.7093500000003 602.0582999999999 411.7093500000003 C 599.2968762508459 411.7093500000003 597.0582999999999 409.47077374915426 597.0582999999999 406.7093500000003 C 597.0582999999999 403.94792625084636 599.2968762508459 401.7093500000003 602.0582999999999 401.7093500000003 C 604.8197237491539 401.7093500000003 607.0582999999999 403.94792625084636 607.0582999999999 406.7093500000003 Z" stroke-opacity="1" stroke-linecap="round" stroke-linejoin="round" stroke-miterlimit="10"/><text fill="rgb(255,127,0)" stroke="none" font-family="geogebra-sans-serif, sans-serif" font-size="16px" font-style="normal" font-weight="normal" text-decoration="normal" x="606" y="397" text-anchor="start" dominant-baseline="alphabetic" fill-opacity="1">xc</text><path fill="rgb(21,101,192)" stroke="none" paint-order="stroke fill markers" d=" M 793 406.7093500000003 C 793 409.47077374915426 790.761423749154 411.7093500000003 788 411.7093500000003 C 785.238576250846 411.7093500000003 783 409.47077374915426 783 406.7093500000003 C 783 403.94792625084636 785.238576250846 401.7093500000003 788 401.7093500000003 C 790.761423749154 401.7093500000003 793 403.94792625084636 793 406.7093500000003 Z" fill-opacity="1"/><path fill="none" stroke="rgb(0,0,0)" paint-order="fill stroke markers" d=" M 793 406.7093500000003 C 793 409.47077374915426 790.761423749154 411.7093500000003 788 411.7093500000003 C 785.238576250846 411.7093500000003 783 409.47077374915426 783 406.7093500000003 C 783 403.94792625084636 785.238576250846 401.7093500000003 788 401.7093500000003 C 790.761423749154 401.7093500000003 793 403.94792625084636 793 406.7093500000003 Z" stroke-opacity="1" stroke-linecap="round" stroke-linejoin="round" stroke-miterlimit="10"/><text fill="rgb(21,101,192)" stroke="none" font-family="geogebra-sans-serif, sans-serif" font-size="16px" font-style="normal" font-weight="normal" text-decoration="normal" x="792" y="397" text-anchor="start" dominant-baseline="alphabetic" fill-opacity="1">mu</text></g></g></svg>