<svg version="1.1" xmlns="http://www.w3.org/2000/svg" xmlns:xlink="http://www.w3.org/1999/xlink" width="1187" height="755"><defs><clipPath id="CeAnaFOprUen"><path fill="none" stroke="none" d=" M 0 0 L 1187 0 L 1187 755 L 0 755 L 0 0 Z"/></clipPath></defs><g transform="scale(1,1)" clip-path="url(#CeAnaFOprUen)"><g><rect fill="rgb(255,255,255)" stroke="none" x="0" y="0" width="1187" height="755" fill-opacity="1"/><path fill="none" stroke="rgb(255,0,0)" paint-order="fill stroke markers" d=" M 895.7589302570193 265.2920232476603 C 843.9582519766092 109.88998840642944 652.0530097970895 33.88257995590692 467.1265749664811 95.52472489944296 C 282.2001401358726 157.16686984297903 174.28039146257015 333.11594191110873 226.08106974298033 488.5179767523396 C 277.8817480233905 643.9200115935705 469.78699020291015 719.927420044093 654.7134250335187 658.285275100557 C 839.6398598641272 596.6431301570209 947.5596085374295 420.69405808889127 895.7589302570193 265.2920232476603 Z" stroke-opacity="0.6980392156862745" stroke-linecap="round" stroke-linejoin="round" stroke-miterlimit="10" stroke-width="2.5"/><path fill="none" stroke="rgb(127,0,255)" paint-order="fill stroke markers" d=" M 425.5790229762113 707.6464913599854 C 524.1132459401352 711.7177425134814 609.9041458019037 571.9059594814679 617.1983610026583 395.3681336780127 C 624.4925762034129 218.83030787455746 550.5279358369298 72.4177225236403 451.9937128730059 68.34647137014429 C 353.459489909082 64.27522021664828 267.6685900473135 204.08700324866166 260.3743748465589 380.6248290521169 C 253.08015964580432 557.1626548555721 327.0448000122874 703.5752402064893 425.5790229762113 707.6464913599854 Z" stroke-opacity="0.6980392156862745" stroke-linecap="round" stroke-linejoin="round" stroke-miterlimit="10" stroke-width="2.5"/><path fill="none" stroke="rgb(0,100,0)" paint-order="fill stroke markers" d=" M 504.41999999999985 760 L 504.41999999999985 -5" stroke-opacity="0.6980392156862745" stroke-linecap="round" stroke-linejoin="round" stroke-miterlimit="10" stroke-width="2.5"/><path fill="none" stroke="rgb(0,51,204)" paint-order="fill stroke markers" d=" M 298 760 L 298 -5" stroke-opacity="0.6980392156862745" stroke-linecap="round" stroke-linejoin="round" stroke-miterlimit="10" stroke-width="2.5"/><path fill="rgb(97,97,97)" stroke="none" paint-order="stroke fill markers" d=" M 303 203.7568813813105 C 303 206.51830513046448 300.76142374915395 208.7568813813105 298 208.7568813813105 C 295.23857625084605 208.7568813813105 293 206.51830513046448 293 203.7568813813105 C 293 200.99545763215653 295.23857625084605 198.7568813813105 298 198.7568813813105 C 300.76142374915395 198.7568813813105 303 200.99545763215653 303 203.7568813813105 Z" fill-opacity="1"/><path fill="none" stroke="rgb(0,0,0)" paint-order="fill stroke markers" d=" M 303 203.7568813813105 C 303 206.51830513046448 300.76142374915395 208.7568813813105 298 208.7568813813105 C 295.23857625084605 208.7568813813105 293 206.51830513046448 293 203.7568813813105 C 293 200.99545763215653 295.23857625084605 198.7568813813105 298 198.7568813813105 C 300.76142374915395 198.7568813813105 303 200.99545763215653 303 203.7568813813105 Z" stroke-opacity="1" stroke-linecap="round" stroke-linejoin="round" stroke-miterlimit="10"/><path fill="rgb(97,97,97)" stroke="none" paint-order="stroke fill markers" d=" M 509.41999999999985 84.98002758720642 C 509.41999999999985 87.74145133636038 507.1814237491538 89.98002758720642 504.41999999999985 89.98002758720642 C 501.6585762508459 89.98002758720642 499.41999999999985 87.74145133636038 499.41999999999985 84.98002758720642 C 499.41999999999985 82.21860383805246 501.6585762508459 79.98002758720642 504.41999999999985 79.98002758720642 C 507.1814237491538 79.98002758720642 509.41999999999985 82.21860383805246 509.41999999999985 84.98002758720642 Z" fill-opacity="1"/><path fill="none" stroke="rgb(0,0,0)" paint-order="fill stroke markers" d=" M 509.41999999999985 84.98002758720642 C 509.41999999999985 87.74145133636038 507.1814237491538 89.98002758720642 504.41999999999985 89.98002758720642 C 501.6585762508459 89.98002758720642 499.41999999999985 87.74145133636038 499.41999999999985 84.98002758720642 C 499.41999999999985 82.21860383805246 501.6585762508459 79.98002758720642 504.41999999999985 79.98002758720642 C 507.1814237491538 79.98002758720642 509.41999999999985 82.21860383805246 509.41999999999985 84.98002758720642 Z" stroke-opacity="1" stroke-linecap="round" stroke-linejoin="round" stroke-miterlimit="10"/><path fill="rgb(97,97,97)" stroke="none" paint-order="stroke fill markers" d=" M 303 597.8069147017005 C 303 600.5683384508545 300.76142374915395 602.8069147017005 298 602.8069147017005 C 295.23857625084605 602.8069147017005 293 600.5683384508545 293 597.8069147017005 C 293 595.0454909525465 295.23857625084605 592.8069147017005 298 592.8069147017005 C 300.76142374915395 592.8069147017005 303 595.0454909525465 303 597.8069147017005 Z" fill-opacity="1"/><path fill="none" stroke="rgb(0,0,0)" paint-order="fill stroke markers" d=" M 303 597.8069147017005 C 303 600.5683384508545 300.76142374915395 602.8069147017005 298 602.8069147017005 C 295.23857625084605 602.8069147017005 293 600.5683384508545 293 597.8069147017005 C 293 595.0454909525465 295.23857625084605 592.8069147017005 298 592.8069147017005 C 300.76142374915395 592.8069147017005 303 595.0454909525465 303 597.8069147017005 Z" stroke-opacity="1" stroke-linecap="round" stroke-linejoin="round" stroke-miterlimit="10"/><path fill="rgb(97,97,97)" stroke="none" paint-order="stroke fill markers" d=" M 509.41999999999985 679.0919892950776 C 509.41999999999985 681.8534130442316 507.1814237491538 684.0919892950776 504.41999999999985 684.0919892950776 C 501.6585762508459 684.0919892950776 499.41999999999985 681.8534130442316 499.41999999999985 679.0919892950776 C 499.41999999999985 676.3305655459236 501.6585762508459 674.0919892950776 504.41999999999985 674.0919892950776 C 507.1814237491538 674.0919892950776 509.41999999999985 676.3305655459236 509.41999999999985 679.0919892950776 Z" fill-opacity="1"/><path fill="none" stroke="rgb(0,0,0)" paint-order="fill stroke markers" d=" M 509.41999999999985 679.0919892950776 C 509.41999999999985 681.8534130442316 507.1814237491538 684.0919892950776 504.41999999999985 684.0919892950776 C 501.6585762508459 684.0919892950776 499.41999999999985 681.8534130442316 499.41999999999985 679.0919892950776 C 499.41999999999985 676.3305655459236 501.6585762508459 674.0919892950776 504.41999999999985 674.0919892950776 C 507.1814237491538 674.0919892950776 509.41999999999985 676.3305655459236 509.41999999999985 679.0919892950776 Z" stroke-opacity="1" stroke-linecap="round" stroke-linejoin="round" stroke-miterlimit="10"/><path fill="rgb(255,153,51)" stroke="none" paint-order="stroke fill markers" d=" M 565.9199999999998 376.905 C 565.9199999999998 379.6664237491539 563.6814237491539 381.905 560.9199999999998 381.905 C 558.1585762508458 381.905 555.9199999999998 379.6664237491539 555.9199999999998 376.905 C 555.9199999999998 374.143576250846 558.1585762508458 371.905 560.9199999999998 371.905 C 563.6814237491539 371.905 565.9199999999998 374.143576250846 565.9199999999998 376.905 Z" fill-opacity="1"/><path fill="none" stroke="rgb(0,0,0)" paint-order="fill stroke markers" d=" M 565.9199999999998 376.905 C 565.9199999999998 379.6664237491539 563.6814237491539 381.905 560.9199999999998 381.905 C 558.1585762508458 381.905 555.9199999999998 379.6664237491539 555.9199999999998 376.905 C 555.9199999999998 374.143576250846 558.1585762508458 371.905 560.9199999999998 371.905 C 563.6814237491539 371.905 565.9199999999998 374.143576250846 565.9199999999998 376.905 Z" stroke-opacity="1" stroke-linecap="round" stroke-linejoin="round" stroke-miterlimit="10"/></g></g></svg>