<svg version="1.1" xmlns="http://www.w3.org/2000/svg" xmlns:xlink="http://www.w3.org/1999/xlink" width="1204" height="813"><defs><clipPath id="ilckueeFoWNJ"><path fill="none" stroke="none" d=" M 0 0 L 1204 0 L 1204 813 L 0 813 L 0 0 Z"/></clipPath></defs><g transform="scale(1,1)" clip-path="url(#ilckueeFoWNJ)"><g><rect fill="rgb(255,255,255)" stroke="none" x="0" y="0" width="1204" height="813" fill-opacity="1"/><path fill="none" stroke="rgb(211,47,47)" paint-order="fill stroke markers" d=" M 901.8783000000002 410.7093500000002 C 901.8783000000002 572.429370445453 770.7783204454531 703.52935 609.0583000000001 703.52935 C 447.33827955454717 703.52935 316.2383000000001 572.429370445453 316.2383000000001 410.7093500000002 C 316.2383000000001 248.98932955454742 447.33827955454717 117.88935000000043 609.0583000000001 117.88935000000043 C 770.7783204454531 117.88935000000043 901.8783000000002 248.98932955454742 901.8783000000002 410.7093500000002 Z" stroke-opacity="0.6980392156862745" stroke-linecap="round" stroke-linejoin="round" stroke-miterlimit="10" stroke-width="2.5"/><text fill="rgb(211,47,47)" stroke="none" font-family="geogebra-sans-serif, sans-serif" font-size="16px" font-style="normal" font-weight="normal" text-decoration="normal" x="462" y="181" text-anchor="start" dominant-baseline="alphabetic" fill-opacity="1">E0</text><path fill="none" stroke="rgb(151,95,168)" paint-order="fill stroke markers" d=" M 699.2125600211629 48.55534475005135 C 614.5955996389396 48.55534475005135 546 210.69721581031243 546 410.7093500000002 C 546 610.721484189688 614.5955996389396 772.8633552499491 699.2125600211629 772.8633552499491 C 783.8295204033861 772.8633552499491 852.4251200423257 610.721484189688 852.4251200423257 410.7093500000002 C 852.4251200423257 210.69721581031243 783.8295204033861 48.55534475005135 699.2125600211629 48.55534475005135 Z" stroke-opacity="0.6980392156862745" stroke-linecap="round" stroke-linejoin="round" stroke-miterlimit="10" stroke-width="2.5"/><text fill="rgb(151,95,168)" stroke="none" font-family="geogebra-sans-serif, sans-serif" font-size="16px" font-style="normal" font-weight="normal" text-decoration="normal" x="588" y="591" text-anchor="start" dominant-baseline="alphabetic" fill-opacity="1">E1</text><path fill="none" stroke="rgb(21,101,192)" paint-order="fill stroke markers" d=" M 828.6733000000002 818 L 828.6733000000002 -5" stroke-opacity="0.8" stroke-linecap="round" stroke-linejoin="round" stroke-miterlimit="10" stroke-width="2.5"/><text fill="rgb(21,101,192)" stroke="none" font-family="geogebra-sans-serif, sans-serif" font-size="16px" font-style="normal" font-weight="normal" text-decoration="normal" x="812" y="24" text-anchor="start" dominant-baseline="alphabetic" fill-opacity="1">g1</text><path fill="none" stroke="rgb(0,103,88)" paint-order="fill stroke markers" d=" M 609.0583000000001 818 L 609.0583000000001 -5" stroke-opacity="0.8" stroke-linecap="round" stroke-linejoin="round" stroke-miterlimit="10" stroke-width="2.5"/><text fill="rgb(0,103,88)" stroke="none" font-family="geogebra-sans-serif, sans-serif" font-size="16px" font-style="normal" font-weight="normal" text-decoration="normal" x="593" y="24" text-anchor="start" dominant-baseline="alphabetic" fill-opacity="1">g0</text><path fill="none" stroke="rgb(0,0,0)" paint-order="fill stroke markers" d=" M 54.5 98.5 L 254.5 98.5" stroke-opacity="0.39215686274509803" stroke-linecap="round" stroke-linejoin="round" stroke-miterlimit="10" stroke-width="5"/><path fill="rgb(0,0,0)" stroke="none" paint-order="stroke fill markers" d=" M 223 98.49999999999994 C 223 103.19442037356168 219.19442037356174 106.99999999999994 214.5 106.99999999999994 C 209.80557962643826 106.99999999999994 206 103.19442037356168 206 98.49999999999994 C 206 93.8055796264382 209.80557962643826 89.99999999999994 214.5 89.99999999999994 C 219.19442037356174 89.99999999999994 223 93.8055796264382 223 98.49999999999994 Z" fill-opacity="0.39215686274509803"/><path fill="none" stroke="rgb(0,0,0)" paint-order="fill stroke markers" d=" M 223 98.49999999999994 C 223 103.19442037356168 219.19442037356174 106.99999999999994 214.5 106.99999999999994 C 209.80557962643826 106.99999999999994 206 103.19442037356168 206 98.49999999999994 C 206 93.8055796264382 209.80557962643826 89.99999999999994 214.5 89.99999999999994 C 219.19442037356174 89.99999999999994 223 93.8055796264382 223 98.49999999999994 Z" stroke-opacity="0.39215686274509803" stroke-linecap="round" stroke-linejoin="round" stroke-miterlimit="10"/><path fill="rgb(0,0,0)" stroke="none" paint-order="stroke fill markers" d=" M 220 98.49999999999994 C 220 101.5375661240693 217.53756612406937 103.99999999999994 214.5 103.99999999999994 C 211.46243387593063 103.99999999999994 209 101.5375661240693 209 98.49999999999994 C 209 95.46243387593059 211.46243387593063 92.99999999999994 214.5 92.99999999999994 C 217.53756612406937 92.99999999999994 220 95.46243387593059 220 98.49999999999994 Z" fill-opacity="1"/><path fill="none" stroke="rgb(0,0,0)" paint-order="fill stroke markers" d=" M 220 98.49999999999994 C 220 101.5375661240693 217.53756612406937 103.99999999999994 214.5 103.99999999999994 C 211.46243387593063 103.99999999999994 209 101.5375661240693 209 98.49999999999994 C 209 95.46243387593059 211.46243387593063 92.99999999999994 214.5 92.99999999999994 C 217.53756612406937 92.99999999999994 220 95.46243387593059 220 98.49999999999994 Z" stroke-opacity="1" stroke-linecap="round" stroke-linejoin="round" stroke-miterlimit="10"/><text fill="rgb(0,0,0)" stroke="none" font-family="geogebra-sans-serif, sans-serif" font-size="16px" font-style="normal" font-weight="normal" text-decoration="normal" x="203" y="83" text-anchor="start" dominant-baseline="alphabetic" fill-opacity="1">k = 3</text><path fill="none" stroke="rgb(0,0,0)" paint-order="fill stroke markers" d=" M 54.5 138.5 L 254.5 138.5" stroke-opacity="0.39215686274509803" stroke-linecap="round" stroke-linejoin="round" stroke-miterlimit="10" stroke-width="5"/><path fill="rgb(0,0,0)" stroke="none" paint-order="stroke fill markers" d=" M 163 138.5 C 163 143.19442037356174 159.19442037356174 147 154.5 147 C 149.80557962643826 147 146 143.19442037356174 146 138.5 C 146 133.80557962643826 149.80557962643826 130 154.5 130 C 159.19442037356174 130 163 133.80557962643826 163 138.5 Z" fill-opacity="0.39215686274509803"/><path fill="none" stroke="rgb(0,0,0)" paint-order="fill stroke markers" d=" M 163 138.5 C 163 143.19442037356174 159.19442037356174 147 154.5 147 C 149.80557962643826 147 146 143.19442037356174 146 138.5 C 146 133.80557962643826 149.80557962643826 130 154.5 130 C 159.19442037356174 130 163 133.80557962643826 163 138.5 Z" stroke-opacity="0.39215686274509803" stroke-linecap="round" stroke-linejoin="round" stroke-miterlimit="10"/><path fill="rgb(0,0,0)" stroke="none" paint-order="stroke fill markers" d=" M 160 138.5 C 160 141.53756612406937 157.53756612406937 144 154.5 144 C 151.46243387593063 144 149 141.53756612406937 149 138.5 C 149 135.46243387593063 151.46243387593063 133 154.5 133 C 157.53756612406937 133 160 135.46243387593063 160 138.5 Z" fill-opacity="1"/><path fill="none" stroke="rgb(0,0,0)" paint-order="fill stroke markers" d=" M 160 138.5 C 160 141.53756612406937 157.53756612406937 144 154.5 144 C 151.46243387593063 144 149 141.53756612406937 149 138.5 C 149 135.46243387593063 151.46243387593063 133 154.5 133 C 157.53756612406937 133 160 135.46243387593063 160 138.5 Z" stroke-opacity="1" stroke-linecap="round" stroke-linejoin="round" stroke-miterlimit="10"/><text fill="rgb(0,0,0)" stroke="none" font-family="geogebra-sans-serif, sans-serif" font-size="16px" font-style="normal" font-weight="normal" text-decoration="normal" x="143" y="123" text-anchor="start" dominant-baseline="alphabetic" fill-opacity="1">l = 0</text><path fill="rgb(255,127,0)" stroke="none" paint-order="stroke fill markers" d=" M 614.0583000000001 410.7093500000002 C 614.0583000000001 413.47077374915415 611.8197237491542 415.7093500000002 609.0583000000001 415.7093500000002 C 606.2968762508461 415.7093500000002 604.0583000000001 413.47077374915415 604.0583000000001 410.7093500000002 C 604.0583000000001 407.94792625084625 606.2968762508461 405.7093500000002 609.0583000000001 405.7093500000002 C 611.8197237491542 405.7093500000002 614.0583000000001 407.94792625084625 614.0583000000001 410.7093500000002 Z" fill-opacity="1"/><path fill="none" stroke="rgb(0,0,0)" paint-order="fill stroke markers" d=" M 614.0583000000001 410.7093500000002 C 614.0583000000001 413.47077374915415 611.8197237491542 415.7093500000002 609.0583000000001 415.7093500000002 C 606.2968762508461 415.7093500000002 604.0583000000001 413.47077374915415 604.0583000000001 410.7093500000002 C 604.0583000000001 407.94792625084625 606.2968762508461 405.7093500000002 609.0583000000001 405.7093500000002 C 611.8197237491542 405.7093500000002 614.0583000000001 407.94792625084625 614.0583000000001 410.7093500000002 Z" stroke-opacity="1" stroke-linecap="round" stroke-linejoin="round" stroke-miterlimit="10"/><text fill="rgb(255,127,0)" stroke="none" font-family="geogebra-sans-serif, sans-serif" font-size="16px" font-style="normal" font-weight="normal" text-decoration="normal" x="613" y="401" text-anchor="start" dominant-baseline="alphabetic" fill-opacity="1">xc</text><path fill="rgb(21,101,192)" stroke="none" paint-order="stroke fill markers" d=" M 551 410.7093500000002 C 551 413.47077374915415 548.761423749154 415.7093500000002 546 415.7093500000002 C 543.238576250846 415.7093500000002 541 413.47077374915415 541 410.7093500000002 C 541 407.94792625084625 543.238576250846 405.7093500000002 546 405.7093500000002 C 548.761423749154 405.7093500000002 551 407.94792625084625 551 410.7093500000002 Z" fill-opacity="1"/><path fill="none" stroke="rgb(0,0,0)" paint-order="fill stroke markers" d=" M 551 410.7093500000002 C 551 413.47077374915415 548.761423749154 415.7093500000002 546 415.7093500000002 C 543.238576250846 415.7093500000002 541 413.47077374915415 541 410.7093500000002 C 541 407.94792625084625 543.238576250846 405.7093500000002 546 405.7093500000002 C 548.761423749154 405.7093500000002 551 407.94792625084625 551 410.7093500000002 Z" stroke-opacity="1" stroke-linecap="round" stroke-linejoin="round" stroke-miterlimit="10"/><text fill="rgb(21,101,192)" stroke="none" font-family="geogebra-sans-serif, sans-serif" font-size="16px" font-style="normal" font-weight="normal" text-decoration="normal" x="550" y="401" text-anchor="start" dominant-baseline="alphabetic" fill-opacity="1">mu</text></g></g></svg>