<svg version="1.1" xmlns="http://www.w3.org/2000/svg" xmlns:xlink="http://www.w3.org/1999/xlink" width="1204" height="813"><defs><clipPath id="UfHkyfDRGiZr"><path fill="none" stroke="none" d=" M 0 0 L 1204 0 L 1204 813 L 0 813 L 0 0 Z"/></clipPath></defs><g transform="scale(1,1)" clip-path="url(#UfHkyfDRGiZr)"><g><rect fill="rgb(255,255,255)" stroke="none" x="0" y="0" width="1204" height="813" fill-opacity="1"/><path fill="none" stroke="rgb(211,47,47)" paint-order="fill stroke markers" d=" M 894.8783000000002 406.70935000000026 C 894.8783000000002 568.4293704454531 763.7783204454531 699.52935 602.0583000000001 699.52935 C 440.33827955454717 699.52935 309.2383000000001 568.4293704454531 309.2383000000001 406.70935000000026 C 309.2383000000001 244.98932955454748 440.33827955454717 113.88935000000049 602.0583000000001 113.88935000000049 C 763.7783204454531 113.88935000000049 894.8783000000002 244.98932955454748 894.8783000000002 406.70935000000026 Z" stroke-opacity="0.6980392156862745" stroke-linecap="round" stroke-linejoin="round" stroke-miterlimit="10" stroke-width="2.5"/><text fill="rgb(211,47,47)" stroke="none" font-family="geogebra-sans-serif, sans-serif" font-size="16px" font-style="normal" font-weight="normal" text-decoration="normal" x="455" y="177" text-anchor="start" dominant-baseline="alphabetic" fill-opacity="1">E0</text><path fill="none" stroke="rgb(151,95,168)" paint-order="fill stroke markers" d=" M 654.9391499999999 73.46767837072412 C 522.4244165676367 73.46767837072412 415 222.6650567510301 415 406.70935000000026 C 415 590.7536432489704 522.4244165676367 739.9510216292764 654.9391499999999 739.9510216292764 C 787.4538834323631 739.9510216292764 894.8782999999999 590.7536432489704 894.8782999999999 406.70935000000026 C 894.8782999999999 222.6650567510301 787.4538834323631 73.46767837072412 654.9391499999999 73.46767837072412 Z" stroke-opacity="0.6980392156862745" stroke-linecap="round" stroke-linejoin="round" stroke-miterlimit="10" stroke-width="2.5"/><text fill="rgb(151,95,168)" stroke="none" font-family="geogebra-sans-serif, sans-serif" font-size="16px" font-style="normal" font-weight="normal" text-decoration="normal" x="470" y="573" text-anchor="start" dominant-baseline="alphabetic" fill-opacity="1">E1</text><path fill="none" stroke="rgb(21,101,192)" paint-order="fill stroke markers" d=" M 894.8782999999994 818 L 894.8782999999994 -5" stroke-opacity="0.8" stroke-linecap="round" stroke-linejoin="round" stroke-miterlimit="10" stroke-width="2.5"/><text fill="rgb(21,101,192)" stroke="none" font-family="geogebra-sans-serif, sans-serif" font-size="16px" font-style="normal" font-weight="normal" text-decoration="normal" x="878" y="24" text-anchor="start" dominant-baseline="alphabetic" fill-opacity="1">g1</text><path fill="none" stroke="rgb(0,103,88)" paint-order="fill stroke markers" d=" M 528.8533000000001 818 L 528.8533000000001 -5" stroke-opacity="0.8" stroke-linecap="round" stroke-linejoin="round" stroke-miterlimit="10" stroke-width="2.5"/><text fill="rgb(0,103,88)" stroke="none" font-family="geogebra-sans-serif, sans-serif" font-size="16px" font-style="normal" font-weight="normal" text-decoration="normal" x="536" y="24" text-anchor="start" dominant-baseline="alphabetic" fill-opacity="1">g0</text><path fill="none" stroke="rgb(0,0,0)" paint-order="fill stroke markers" d=" M 54.5 98.5 L 254.5 98.5" stroke-opacity="0.39215686274509803" stroke-linecap="round" stroke-linejoin="round" stroke-miterlimit="10" stroke-width="5"/><path fill="rgb(0,0,0)" stroke="none" paint-order="stroke fill markers" d=" M 242.99999999999983 98.5 C 242.99999999999983 103.19442037356174 239.19442037356157 107 234.49999999999983 107 C 229.8055796264381 107 225.99999999999983 103.19442037356174 225.99999999999983 98.5 C 225.99999999999983 93.80557962643826 229.8055796264381 90 234.49999999999983 90 C 239.19442037356157 90 242.99999999999983 93.80557962643826 242.99999999999983 98.5 Z" fill-opacity="0.39215686274509803"/><path fill="none" stroke="rgb(0,0,0)" paint-order="fill stroke markers" d=" M 242.99999999999983 98.5 C 242.99999999999983 103.19442037356174 239.19442037356157 107 234.49999999999983 107 C 229.8055796264381 107 225.99999999999983 103.19442037356174 225.99999999999983 98.5 C 225.99999999999983 93.80557962643826 229.8055796264381 90 234.49999999999983 90 C 239.19442037356157 90 242.99999999999983 93.80557962643826 242.99999999999983 98.5 Z" stroke-opacity="0.39215686274509803" stroke-linecap="round" stroke-linejoin="round" stroke-miterlimit="10"/><path fill="rgb(0,0,0)" stroke="none" paint-order="stroke fill markers" d=" M 239.99999999999983 98.5 C 239.99999999999983 101.53756612406936 237.5375661240692 104 234.49999999999983 104 C 231.46243387593046 104 228.99999999999983 101.53756612406936 228.99999999999983 98.5 C 228.99999999999983 95.46243387593064 231.46243387593046 93 234.49999999999983 93 C 237.5375661240692 93 239.99999999999983 95.46243387593064 239.99999999999983 98.5 Z" fill-opacity="1"/><path fill="none" stroke="rgb(0,0,0)" paint-order="fill stroke markers" d=" M 239.99999999999983 98.5 C 239.99999999999983 101.53756612406936 237.5375661240692 104 234.49999999999983 104 C 231.46243387593046 104 228.99999999999983 101.53756612406936 228.99999999999983 98.5 C 228.99999999999983 95.46243387593064 231.46243387593046 93 234.49999999999983 93 C 237.5375661240692 93 239.99999999999983 95.46243387593064 239.99999999999983 98.5 Z" stroke-opacity="1" stroke-linecap="round" stroke-linejoin="round" stroke-miterlimit="10"/><text fill="rgb(0,0,0)" stroke="none" font-family="geogebra-sans-serif, sans-serif" font-size="16px" font-style="normal" font-weight="normal" text-decoration="normal" x="223" y="83" text-anchor="start" dominant-baseline="alphabetic" fill-opacity="1">k = 4</text><path fill="none" stroke="rgb(0,0,0)" paint-order="fill stroke markers" d=" M 54.5 138.5 L 254.5 138.5" stroke-opacity="0.39215686274509803" stroke-linecap="round" stroke-linejoin="round" stroke-miterlimit="10" stroke-width="5"/><path fill="rgb(0,0,0)" stroke="none" paint-order="stroke fill markers" d=" M 143.00000000000006 138.49999999999994 C 143.00000000000006 143.19442037356168 139.1944203735618 146.99999999999994 134.50000000000006 146.99999999999994 C 129.80557962643832 146.99999999999994 126.00000000000006 143.19442037356168 126.00000000000006 138.49999999999994 C 126.00000000000006 133.8055796264382 129.80557962643832 129.99999999999994 134.50000000000006 129.99999999999994 C 139.1944203735618 129.99999999999994 143.00000000000006 133.8055796264382 143.00000000000006 138.49999999999994 Z" fill-opacity="0.39215686274509803"/><path fill="none" stroke="rgb(0,0,0)" paint-order="fill stroke markers" d=" M 143.00000000000006 138.49999999999994 C 143.00000000000006 143.19442037356168 139.1944203735618 146.99999999999994 134.50000000000006 146.99999999999994 C 129.80557962643832 146.99999999999994 126.00000000000006 143.19442037356168 126.00000000000006 138.49999999999994 C 126.00000000000006 133.8055796264382 129.80557962643832 129.99999999999994 134.50000000000006 129.99999999999994 C 139.1944203735618 129.99999999999994 143.00000000000006 133.8055796264382 143.00000000000006 138.49999999999994 Z" stroke-opacity="0.39215686274509803" stroke-linecap="round" stroke-linejoin="round" stroke-miterlimit="10"/><path fill="rgb(0,0,0)" stroke="none" paint-order="stroke fill markers" d=" M 140.00000000000006 138.49999999999994 C 140.00000000000006 141.53756612406931 137.53756612406943 143.99999999999994 134.50000000000006 143.99999999999994 C 131.46243387593069 143.99999999999994 129.00000000000006 141.53756612406931 129.00000000000006 138.49999999999994 C 129.00000000000006 135.46243387593057 131.46243387593069 132.99999999999994 134.50000000000006 132.99999999999994 C 137.53756612406943 132.99999999999994 140.00000000000006 135.46243387593057 140.00000000000006 138.49999999999994 Z" fill-opacity="1"/><path fill="none" stroke="rgb(0,0,0)" paint-order="fill stroke markers" d=" M 140.00000000000006 138.49999999999994 C 140.00000000000006 141.53756612406931 137.53756612406943 143.99999999999994 134.50000000000006 143.99999999999994 C 131.46243387593069 143.99999999999994 129.00000000000006 141.53756612406931 129.00000000000006 138.49999999999994 C 129.00000000000006 135.46243387593057 131.46243387593069 132.99999999999994 134.50000000000006 132.99999999999994 C 137.53756612406943 132.99999999999994 140.00000000000006 135.46243387593057 140.00000000000006 138.49999999999994 Z" stroke-opacity="1" stroke-linecap="round" stroke-linejoin="round" stroke-miterlimit="10"/><text fill="rgb(0,0,0)" stroke="none" font-family="geogebra-sans-serif, sans-serif" font-size="16px" font-style="normal" font-weight="normal" text-decoration="normal" x="123" y="123" text-anchor="start" dominant-baseline="alphabetic" fill-opacity="1">l = -1</text><path fill="rgb(255,127,0)" stroke="none" paint-order="stroke fill markers" d=" M 607.0583000000001 406.70935000000026 C 607.0583000000001 409.4707737491542 604.8197237491542 411.70935000000026 602.0583000000001 411.70935000000026 C 599.2968762508461 411.70935000000026 597.0583000000001 409.4707737491542 597.0583000000001 406.70935000000026 C 597.0583000000001 403.9479262508463 599.2968762508461 401.70935000000026 602.0583000000001 401.70935000000026 C 604.8197237491542 401.70935000000026 607.0583000000001 403.9479262508463 607.0583000000001 406.70935000000026 Z" fill-opacity="1"/><path fill="none" stroke="rgb(0,0,0)" paint-order="fill stroke markers" d=" M 607.0583000000001 406.70935000000026 C 607.0583000000001 409.4707737491542 604.8197237491542 411.70935000000026 602.0583000000001 411.70935000000026 C 599.2968762508461 411.70935000000026 597.0583000000001 409.4707737491542 597.0583000000001 406.70935000000026 C 597.0583000000001 403.9479262508463 599.2968762508461 401.70935000000026 602.0583000000001 401.70935000000026 C 604.8197237491542 401.70935000000026 607.0583000000001 403.9479262508463 607.0583000000001 406.70935000000026 Z" stroke-opacity="1" stroke-linecap="round" stroke-linejoin="round" stroke-miterlimit="10"/><text fill="rgb(255,127,0)" stroke="none" font-family="geogebra-sans-serif, sans-serif" font-size="16px" font-style="normal" font-weight="normal" text-decoration="normal" x="606" y="397" text-anchor="start" dominant-baseline="alphabetic" fill-opacity="1">xc</text><path fill="rgb(21,101,192)" stroke="none" paint-order="stroke fill markers" d=" M 420 406.70935000000026 C 420 409.4707737491542 417.76142374915395 411.70935000000026 415 411.70935000000026 C 412.23857625084605 411.70935000000026 410 409.4707737491542 410 406.70935000000026 C 410 403.9479262508463 412.23857625084605 401.70935000000026 415 401.70935000000026 C 417.76142374915395 401.70935000000026 420 403.9479262508463 420 406.70935000000026 Z" fill-opacity="1"/><path fill="none" stroke="rgb(0,0,0)" paint-order="fill stroke markers" d=" M 420 406.70935000000026 C 420 409.4707737491542 417.76142374915395 411.70935000000026 415 411.70935000000026 C 412.23857625084605 411.70935000000026 410 409.4707737491542 410 406.70935000000026 C 410 403.9479262508463 412.23857625084605 401.70935000000026 415 401.70935000000026 C 417.76142374915395 401.70935000000026 420 403.9479262508463 420 406.70935000000026 Z" stroke-opacity="1" stroke-linecap="round" stroke-linejoin="round" stroke-miterlimit="10"/><text fill="rgb(21,101,192)" stroke="none" font-family="geogebra-sans-serif, sans-serif" font-size="16px" font-style="normal" font-weight="normal" text-decoration="normal" x="419" y="397" text-anchor="start" dominant-baseline="alphabetic" fill-opacity="1">mu</text></g></g></svg>