<svg version="1.1" xmlns="http://www.w3.org/2000/svg" xmlns:xlink="http://www.w3.org/1999/xlink" width="1191" height="800"><defs><clipPath id="phCLlwKOpQLp"><path fill="none" stroke="none" d=" M 0 0 L 1191 0 L 1191 800 L 0 800 L 0 0 Z"/></clipPath></defs><g transform="scale(1,1)" clip-path="url(#phCLlwKOpQLp)"><g><rect fill="rgb(255,255,255)" stroke="none" x="0" y="0" width="1191" height="800" fill-opacity="1"/><path fill="none" stroke="rgb(211,47,47)" paint-order="fill stroke markers" d=" M 894.8782999999999 406.7093500000003 C 894.8782999999999 568.4293704454531 763.7783204454528 699.52935 602.0582999999999 699.52935 C 440.33827955454706 699.52935 309.2382999999999 568.4293704454531 309.2382999999999 406.7093500000003 C 309.2382999999999 244.98932955454754 440.33827955454706 113.88935000000055 602.0582999999999 113.88935000000055 C 763.7783204454528 113.88935000000055 894.8782999999999 244.98932955454754 894.8782999999999 406.7093500000003 Z" stroke-opacity="0.6980392156862745" stroke-linecap="round" stroke-linejoin="round" stroke-miterlimit="10" stroke-width="2.5"/><text fill="rgb(211,47,47)" stroke="none" font-family="geogebra-sans-serif, sans-serif" font-size="16px" font-style="normal" font-weight="normal" text-decoration="normal" x="455" y="177" text-anchor="start" dominant-baseline="alphabetic" fill-opacity="1">E0</text><path fill="none" stroke="rgb(151,95,168)" paint-order="fill stroke markers" d=" M 555.6191500000001 82.37962659900649 C 419.54676389465203 82.37962659900649 309.2383000000002 227.5869898487921 309.2383000000002 406.7093500000003 C 309.2383000000002 585.8317101512087 419.54676389465203 731.0390734009941 555.6191500000001 731.0390734009941 C 691.6915361053483 731.0390734009941 802 585.8317101512087 802 406.7093500000003 C 802 227.5869898487921 691.6915361053483 82.37962659900649 555.6191500000001 82.37962659900649 Z" stroke-opacity="0.6980392156862745" stroke-linecap="round" stroke-linejoin="round" stroke-miterlimit="10" stroke-width="2.5"/><text fill="rgb(151,95,168)" stroke="none" font-family="geogebra-sans-serif, sans-serif" font-size="16px" font-style="normal" font-weight="normal" text-decoration="normal" x="366" y="568" text-anchor="start" dominant-baseline="alphabetic" fill-opacity="1">E1</text><path fill="none" stroke="rgb(21,101,192)" paint-order="fill stroke markers" d=" M 309.23830000000066 805 L 309.23830000000066 -5" stroke-opacity="0.8" stroke-linecap="round" stroke-linejoin="round" stroke-miterlimit="10" stroke-width="2.5"/><text fill="rgb(21,101,192)" stroke="none" font-family="geogebra-sans-serif, sans-serif" font-size="16px" font-style="normal" font-weight="normal" text-decoration="normal" x="317" y="24" text-anchor="start" dominant-baseline="alphabetic" fill-opacity="1">g1</text><path fill="none" stroke="rgb(0,103,88)" paint-order="fill stroke markers" d=" M 675.2633 805 L 675.2633 -5" stroke-opacity="0.8" stroke-linecap="round" stroke-linejoin="round" stroke-miterlimit="10" stroke-width="2.5"/><text fill="rgb(0,103,88)" stroke="none" font-family="geogebra-sans-serif, sans-serif" font-size="16px" font-style="normal" font-weight="normal" text-decoration="normal" x="659" y="24" text-anchor="start" dominant-baseline="alphabetic" fill-opacity="1">g0</text><path fill="none" stroke="rgb(0,0,0)" paint-order="fill stroke markers" d=" M 54.5 98.5 L 254.5 98.5" stroke-opacity="0.39215686274509803" stroke-linecap="round" stroke-linejoin="round" stroke-miterlimit="10" stroke-width="5"/><path fill="rgb(0,0,0)" stroke="none" paint-order="stroke fill markers" d=" M 242.99999999999977 98.5 C 242.99999999999977 103.19442037356174 239.1944203735615 107 234.49999999999977 107 C 229.80557962643803 107 225.99999999999977 103.19442037356174 225.99999999999977 98.5 C 225.99999999999977 93.80557962643826 229.80557962643803 90 234.49999999999977 90 C 239.1944203735615 90 242.99999999999977 93.80557962643826 242.99999999999977 98.5 Z" fill-opacity="0.39215686274509803"/><path fill="none" stroke="rgb(0,0,0)" paint-order="fill stroke markers" d=" M 242.99999999999977 98.5 C 242.99999999999977 103.19442037356174 239.1944203735615 107 234.49999999999977 107 C 229.80557962643803 107 225.99999999999977 103.19442037356174 225.99999999999977 98.5 C 225.99999999999977 93.80557962643826 229.80557962643803 90 234.49999999999977 90 C 239.1944203735615 90 242.99999999999977 93.80557962643826 242.99999999999977 98.5 Z" stroke-opacity="0.39215686274509803" stroke-linecap="round" stroke-linejoin="round" stroke-miterlimit="10"/><path fill="rgb(0,0,0)" stroke="none" paint-order="stroke fill markers" d=" M 239.99999999999977 98.5 C 239.99999999999977 101.53756612406936 237.53756612406914 104 234.49999999999977 104 C 231.4624338759304 104 228.99999999999977 101.53756612406936 228.99999999999977 98.5 C 228.99999999999977 95.46243387593064 231.4624338759304 93 234.49999999999977 93 C 237.53756612406914 93 239.99999999999977 95.46243387593064 239.99999999999977 98.5 Z" fill-opacity="1"/><path fill="none" stroke="rgb(0,0,0)" paint-order="fill stroke markers" d=" M 239.99999999999977 98.5 C 239.99999999999977 101.53756612406936 237.53756612406914 104 234.49999999999977 104 C 231.4624338759304 104 228.99999999999977 101.53756612406936 228.99999999999977 98.5 C 228.99999999999977 95.46243387593064 231.4624338759304 93 234.49999999999977 93 C 237.53756612406914 93 239.99999999999977 95.46243387593064 239.99999999999977 98.5 Z" stroke-opacity="1" stroke-linecap="round" stroke-linejoin="round" stroke-miterlimit="10"/><text fill="rgb(0,0,0)" stroke="none" font-family="geogebra-sans-serif, sans-serif" font-size="16px" font-style="normal" font-weight="normal" text-decoration="normal" x="223" y="83" text-anchor="start" dominant-baseline="alphabetic" fill-opacity="1">k = 4</text><path fill="none" stroke="rgb(0,0,0)" paint-order="fill stroke markers" d=" M 54.5 138.5 L 254.5 138.5" stroke-opacity="0.39215686274509803" stroke-linecap="round" stroke-linejoin="round" stroke-miterlimit="10" stroke-width="5"/><path fill="rgb(0,0,0)" stroke="none" paint-order="stroke fill markers" d=" M 143.00000000000006 138.5 C 143.00000000000006 143.19442037356174 139.1944203735618 147 134.50000000000006 147 C 129.80557962643832 147 126.00000000000006 143.19442037356174 126.00000000000006 138.5 C 126.00000000000006 133.80557962643826 129.80557962643832 130 134.50000000000006 130 C 139.1944203735618 130 143.00000000000006 133.80557962643826 143.00000000000006 138.5 Z" fill-opacity="0.39215686274509803"/><path fill="none" stroke="rgb(0,0,0)" paint-order="fill stroke markers" d=" M 143.00000000000006 138.5 C 143.00000000000006 143.19442037356174 139.1944203735618 147 134.50000000000006 147 C 129.80557962643832 147 126.00000000000006 143.19442037356174 126.00000000000006 138.5 C 126.00000000000006 133.80557962643826 129.80557962643832 130 134.50000000000006 130 C 139.1944203735618 130 143.00000000000006 133.80557962643826 143.00000000000006 138.5 Z" stroke-opacity="0.39215686274509803" stroke-linecap="round" stroke-linejoin="round" stroke-miterlimit="10"/><path fill="rgb(0,0,0)" stroke="none" paint-order="stroke fill markers" d=" M 140.00000000000006 138.5 C 140.00000000000006 141.53756612406937 137.53756612406943 144 134.50000000000006 144 C 131.46243387593069 144 129.00000000000006 141.53756612406937 129.00000000000006 138.5 C 129.00000000000006 135.46243387593063 131.46243387593069 133 134.50000000000006 133 C 137.53756612406943 133 140.00000000000006 135.46243387593063 140.00000000000006 138.5 Z" fill-opacity="1"/><path fill="none" stroke="rgb(0,0,0)" paint-order="fill stroke markers" d=" M 140.00000000000006 138.5 C 140.00000000000006 141.53756612406937 137.53756612406943 144 134.50000000000006 144 C 131.46243387593069 144 129.00000000000006 141.53756612406937 129.00000000000006 138.5 C 129.00000000000006 135.46243387593063 131.46243387593069 133 134.50000000000006 133 C 137.53756612406943 133 140.00000000000006 135.46243387593063 140.00000000000006 138.5 Z" stroke-opacity="1" stroke-linecap="round" stroke-linejoin="round" stroke-miterlimit="10"/><text fill="rgb(0,0,0)" stroke="none" font-family="geogebra-sans-serif, sans-serif" font-size="16px" font-style="normal" font-weight="normal" text-decoration="normal" x="123" y="123" text-anchor="start" dominant-baseline="alphabetic" fill-opacity="1">l = -1</text><path fill="rgb(255,127,0)" stroke="none" paint-order="stroke fill markers" d=" M 607.0582999999999 406.7093500000003 C 607.0582999999999 409.47077374915426 604.8197237491539 411.7093500000003 602.0582999999999 411.7093500000003 C 599.2968762508459 411.7093500000003 597.0582999999999 409.47077374915426 597.0582999999999 406.7093500000003 C 597.0582999999999 403.94792625084636 599.2968762508459 401.7093500000003 602.0582999999999 401.7093500000003 C 604.8197237491539 401.7093500000003 607.0582999999999 403.94792625084636 607.0582999999999 406.7093500000003 Z" fill-opacity="1"/><path fill="none" stroke="rgb(0,0,0)" paint-order="fill stroke markers" d=" M 607.0582999999999 406.7093500000003 C 607.0582999999999 409.47077374915426 604.8197237491539 411.7093500000003 602.0582999999999 411.7093500000003 C 599.2968762508459 411.7093500000003 597.0582999999999 409.47077374915426 597.0582999999999 406.7093500000003 C 597.0582999999999 403.94792625084636 599.2968762508459 401.7093500000003 602.0582999999999 401.7093500000003 C 604.8197237491539 401.7093500000003 607.0582999999999 403.94792625084636 607.0582999999999 406.7093500000003 Z" stroke-opacity="1" stroke-linecap="round" stroke-linejoin="round" stroke-miterlimit="10"/><text fill="rgb(255,127,0)" stroke="none" font-family="geogebra-sans-serif, sans-serif" font-size="16px" font-style="normal" font-weight="normal" text-decoration="normal" x="606" y="397" text-anchor="start" dominant-baseline="alphabetic" fill-opacity="1">xc</text><path fill="rgb(21,101,192)" stroke="none" paint-order="stroke fill markers" d=" M 807 406.7093500000003 C 807 409.47077374915426 804.761423749154 411.7093500000003 802 411.7093500000003 C 799.238576250846 411.7093500000003 797 409.47077374915426 797 406.7093500000003 C 797 403.94792625084636 799.238576250846 401.7093500000003 802 401.7093500000003 C 804.761423749154 401.7093500000003 807 403.94792625084636 807 406.7093500000003 Z" fill-opacity="1"/><path fill="none" stroke="rgb(0,0,0)" paint-order="fill stroke markers" d=" M 807 406.7093500000003 C 807 409.47077374915426 804.761423749154 411.7093500000003 802 411.7093500000003 C 799.238576250846 411.7093500000003 797 409.47077374915426 797 406.7093500000003 C 797 403.94792625084636 799.238576250846 401.7093500000003 802 401.7093500000003 C 804.761423749154 401.7093500000003 807 403.94792625084636 807 406.7093500000003 Z" stroke-opacity="1" stroke-linecap="round" stroke-linejoin="round" stroke-miterlimit="10"/><text fill="rgb(21,101,192)" stroke="none" font-family="geogebra-sans-serif, sans-serif" font-size="16px" font-style="normal" font-weight="normal" text-decoration="normal" x="806" y="397" text-anchor="start" dominant-baseline="alphabetic" fill-opacity="1">mu</text></g></g></svg>
