<?xml version="1.0" encoding="UTF-8" standalone="no"?>
<!DOCTYPE svg PUBLIC "-//W3C//DTD SVG 1.1//EN"
 "http://www.w3.org/Graphics/SVG/1.1/DTD/svg11.dtd">
<!-- Generated by graphviz version 2.40.1 (20161225.0304)
 -->
<!-- Title: iter::impl::Dropper::Iterator::skip_passes Pages: 1 -->
<svg width="439pt" height="78pt"
 viewBox="0.00 0.00 439.00 77.50" xmlns="http://www.w3.org/2000/svg" xmlns:xlink="http://www.w3.org/1999/xlink">
<g id="graph0" class="graph" transform="scale(1 1) rotate(0) translate(4 73.5)">
<title>iter::impl::Dropper::Iterator::skip_passes</title>
<polygon fill="#ffffff" stroke="transparent" points="-4,4 -4,-73.5 435,-73.5 435,4 -4,4"/>
<!-- Node28 -->
<g id="node1" class="node">
<title>Node28</title>
<polygon fill="#bfbfbf" stroke="#000000" points="0,-22.5 0,-52.5 114,-52.5 114,-22.5 0,-22.5"/>
<text text-anchor="start" x="8" y="-40.5" font-family="Helvetica,sans-Serif" font-size="10.00" fill="#000000">iter::impl::Dropper</text>
<text text-anchor="middle" x="57" y="-29.5" font-family="Helvetica,sans-Serif" font-size="10.00" fill="#000000">::Iterator::skip_passes</text>
</g>
<!-- Node29 -->
<g id="node2" class="node">
<title>Node29</title>
<g id="a_node2"><a xlink:href="classiter_1_1impl_1_1DerefHolder.html#afd546af01ab32729654712885955c300" target="_top" xlink:title="iter::impl::DerefHolder::get">
<polygon fill="#ffffff" stroke="#000000" points="150,-50 150,-69 282,-69 282,-50 150,-50"/>
<text text-anchor="middle" x="216" y="-57" font-family="Helvetica,sans-Serif" font-size="10.00" fill="#000000">iter::impl::DerefHolder::get</text>
</a>
</g>
</g>
<!-- Node28&#45;&gt;Node29 -->
<g id="edge1" class="edge">
<title>Node28&#45;&gt;Node29</title>
<path fill="none" stroke="#191970" d="M114.4026,-45.4425C122.6502,-46.5837 131.2424,-47.7725 139.784,-48.9544"/>
<polygon fill="#191970" stroke="#191970" points="139.3788,-52.4316 149.7642,-50.3353 140.3383,-45.4976 139.3788,-52.4316"/>
</g>
<!-- Node30 -->
<g id="node3" class="node">
<title>Node30</title>
<g id="a_node3"><a xlink:href="classiter_1_1impl_1_1Dropper_1_1Iterator.html#a8fd7a7915ab91e99bdc72a5ada37e6b1" target="_top" xlink:title="iter::impl::Dropper\l::Iterator::inc_sub_iter">
<polygon fill="#ffffff" stroke="#000000" points="160,-.5 160,-30.5 272,-30.5 272,-.5 160,-.5"/>
<text text-anchor="start" x="168" y="-18.5" font-family="Helvetica,sans-Serif" font-size="10.00" fill="#000000">iter::impl::Dropper</text>
<text text-anchor="middle" x="216" y="-7.5" font-family="Helvetica,sans-Serif" font-size="10.00" fill="#000000">::Iterator::inc_sub_iter</text>
</a>
</g>
</g>
<!-- Node28&#45;&gt;Node30 -->
<g id="edge2" class="edge">
<title>Node28&#45;&gt;Node30</title>
<path fill="none" stroke="#191970" d="M114.4026,-29.5575C125.8233,-27.9773 137.9049,-26.3056 149.5977,-24.6877"/>
<polygon fill="#191970" stroke="#191970" points="150.3209,-28.1211 159.7468,-23.2835 149.3614,-21.1872 150.3209,-28.1211"/>
</g>
<!-- Node31 -->
<g id="node4" class="node">
<title>Node31</title>
<g id="a_node4"><a xlink:href="classiter_1_1impl_1_1DerefHolder.html#a4a12f16da7c4abfcce96d056604e59f3" target="_top" xlink:title="iter::impl::DerefHolder\l::reset">
<polygon fill="#ffffff" stroke="#000000" points="318,-.5 318,-30.5 431,-30.5 431,-.5 318,-.5"/>
<text text-anchor="start" x="326" y="-18.5" font-family="Helvetica,sans-Serif" font-size="10.00" fill="#000000">iter::impl::DerefHolder</text>
<text text-anchor="middle" x="374.5" y="-7.5" font-family="Helvetica,sans-Serif" font-size="10.00" fill="#000000">::reset</text>
</a>
</g>
</g>
<!-- Node30&#45;&gt;Node31 -->
<g id="edge3" class="edge">
<title>Node30&#45;&gt;Node31</title>
<path fill="none" stroke="#191970" d="M272.3275,-15.5C283.7516,-15.5 295.871,-15.5 307.6187,-15.5"/>
<polygon fill="#191970" stroke="#191970" points="307.8199,-19.0001 317.8199,-15.5 307.8199,-12.0001 307.8199,-19.0001"/>
</g>
</g>
</svg>
