<?xml version="1.0" encoding="UTF-8" standalone="no"?>
<!DOCTYPE svg PUBLIC "-//W3C//DTD SVG 1.1//EN"
 "http://www.w3.org/Graphics/SVG/1.1/DTD/svg11.dtd">
<!-- Generated by graphviz version 2.40.1 (20161225.0304)
 -->
<!-- Title: iter::impl::Powersetter::Iterator::operator!= Pages: 1 -->
<svg width="270pt" height="39pt"
 viewBox="0.00 0.00 270.00 39.00" xmlns="http://www.w3.org/2000/svg" xmlns:xlink="http://www.w3.org/1999/xlink">
<g id="graph0" class="graph" transform="scale(1 1) rotate(0) translate(4 35)">
<title>iter::impl::Powersetter::Iterator::operator!=</title>
<polygon fill="#ffffff" stroke="transparent" points="-4,4 -4,-35 266,-35 266,4 -4,4"/>
<!-- Node7 -->
<g id="node1" class="node">
<title>Node7</title>
<polygon fill="#bfbfbf" stroke="#000000" points="0,-.5 0,-30.5 113,-30.5 113,-.5 0,-.5"/>
<text text-anchor="start" x="8" y="-18.5" font-family="Helvetica,sans-Serif" font-size="10.00" fill="#000000">iter::impl::Powersetter</text>
<text text-anchor="middle" x="56.5" y="-7.5" font-family="Helvetica,sans-Serif" font-size="10.00" fill="#000000">::Iterator::operator!=</text>
</g>
<!-- Node8 -->
<g id="node2" class="node">
<title>Node8</title>
<g id="a_node2"><a xlink:href="classiter_1_1impl_1_1Powersetter_1_1Iterator.html#a6b399099b15795a21aa12ad9d4d37cc1" target="_top" xlink:title="iter::impl::Powersetter\l::Iterator::operator==">
<polygon fill="#ffffff" stroke="#000000" points="149,-.5 149,-30.5 262,-30.5 262,-.5 149,-.5"/>
<text text-anchor="start" x="157" y="-18.5" font-family="Helvetica,sans-Serif" font-size="10.00" fill="#000000">iter::impl::Powersetter</text>
<text text-anchor="middle" x="205.5" y="-7.5" font-family="Helvetica,sans-Serif" font-size="10.00" fill="#000000">::Iterator::operator==</text>
</a>
</g>
</g>
<!-- Node7&#45;&gt;Node8 -->
<g id="edge1" class="edge">
<title>Node7&#45;&gt;Node8</title>
<path fill="none" stroke="#191970" d="M123.5076,-15.5C131.9902,-15.5 140.6037,-15.5 148.9022,-15.5"/>
<polygon fill="#191970" stroke="#191970" points="123.2556,-12.0001 113.2556,-15.5 123.2555,-19.0001 123.2556,-12.0001"/>
</g>
</g>
</svg>
