<?xml version="1.0" encoding="UTF-8" standalone="no"?>
<!DOCTYPE svg PUBLIC "-//W3C//DTD SVG 1.1//EN"
 "http://www.w3.org/Graphics/SVG/1.1/DTD/svg11.dtd">
<!-- Generated by graphviz version 2.40.1 (20161225.0304)
 -->
<!-- Title: FMKWayGainMgr::modify_key Pages: 1 -->
<svg width="325pt" height="78pt"
 viewBox="0.00 0.00 325.00 77.50" xmlns="http://www.w3.org/2000/svg" xmlns:xlink="http://www.w3.org/1999/xlink">
<g id="graph0" class="graph" transform="scale(1 1) rotate(0) translate(4 73.5)">
<title>FMKWayGainMgr::modify_key</title>
<polygon fill="#ffffff" stroke="transparent" points="-4,4 -4,-73.5 321,-73.5 321,4 -4,4"/>
<!-- Node14 -->
<g id="node1" class="node">
<title>Node14</title>
<polygon fill="#bfbfbf" stroke="#000000" points="0,-28 0,-47 151,-47 151,-28 0,-28"/>
<text text-anchor="middle" x="75.5" y="-35" font-family="Helvetica,sans-Serif" font-size="10.00" fill="#000000">FMKWayGainMgr::modify_key</text>
</g>
<!-- Node15 -->
<g id="node2" class="node">
<title>Node15</title>
<g id="a_node2"><a xlink:href="classrobin.html#a611dc76ad105db9eb9d388916f080ac6" target="_top" xlink:title="robin::exclude">
<polygon fill="#ffffff" stroke="#000000" points="213.5,-50 213.5,-69 290.5,-69 290.5,-50 213.5,-50"/>
<text text-anchor="middle" x="252" y="-57" font-family="Helvetica,sans-Serif" font-size="10.00" fill="#000000">robin::exclude</text>
</a>
</g>
</g>
<!-- Node14&#45;&gt;Node15 -->
<g id="edge1" class="edge">
<title>Node14&#45;&gt;Node15</title>
<path fill="none" stroke="#191970" d="M151.12,-46.9257C168.773,-49.1261 187.1144,-51.4123 203.2398,-53.4222"/>
<polygon fill="#191970" stroke="#191970" points="203.1308,-56.9357 213.487,-54.6995 203.9967,-49.9894 203.1308,-56.9357"/>
</g>
<!-- Node16 -->
<g id="node3" class="node">
<title>Node16</title>
<g id="a_node3"><a xlink:href="classFMKWayGainMgr.html#ace48d7ff85b2692ab8407d0d5c2f98c7" target="_top" xlink:title="FMKWayGainMgr::update\l_move_v">
<polygon fill="#ffffff" stroke="#000000" points="187,-.5 187,-30.5 317,-30.5 317,-.5 187,-.5"/>
<text text-anchor="start" x="195" y="-18.5" font-family="Helvetica,sans-Serif" font-size="10.00" fill="#000000">FMKWayGainMgr::update</text>
<text text-anchor="middle" x="252" y="-7.5" font-family="Helvetica,sans-Serif" font-size="10.00" fill="#000000">_move_v</text>
</a>
</g>
</g>
<!-- Node14&#45;&gt;Node16 -->
<g id="edge2" class="edge">
<title>Node14&#45;&gt;Node16</title>
<path fill="none" stroke="#191970" d="M151.12,-28.0743C159.5678,-27.0213 168.1734,-25.9486 176.6182,-24.896"/>
<polygon fill="#191970" stroke="#191970" points="177.3278,-28.3348 186.818,-23.6247 176.4619,-21.3885 177.3278,-28.3348"/>
</g>
</g>
</svg>
