<?xml version="1.0" encoding="UTF-8" standalone="no"?>
<!DOCTYPE svg PUBLIC "-//W3C//DTD SVG 1.1//EN"
 "http://www.w3.org/Graphics/SVG/1.1/DTD/svg11.dtd">
<!-- Generated by graphviz version 2.40.1 (20161225.0304)
 -->
<!-- Title: iter::impl::Sliced::begin Pages: 1 -->
<!--zoomable 127 -->
<svg id="main" version="1.1" xmlns="http://www.w3.org/2000/svg" xmlns:xlink="http://www.w3.org/1999/xlink" xml:space="preserve" onload="init(evt)">
<style type="text/css"><![CDATA[
.edge:hover path { stroke: red; }
.edge:hover polygon { stroke: red; fill: red; }
]]></style>
<script type="text/javascript"><![CDATA[
var edges = document.getElementsByTagName('g');
if (edges && edges.length) {
  for (var i=0;i<edges.length;i++) {
    if (edges[i].id.substr(0,4)=='edge') {
      edges[i].setAttribute('class','edge');
    }
  }
}
]]></script>
        <defs>
                <circle id="rim" cx="0" cy="0" r="7"/>
                <circle id="rim2" cx="0" cy="0" r="3.5"/>
                <g id="zoomPlus">
                        <use xlink:href="#rim" fill="#404040">
                                <set attributeName="fill" to="#808080" begin="zoomplus.mouseover" end="zoomplus.mouseout"/>
                        </use>
                        <path d="M-4,0h8M0,-4v8" fill="none" stroke="white" stroke-width="1.5" pointer-events="none"/>
                </g>
                <g id="zoomMin">
                        <use xlink:href="#rim" fill="#404040">
                                <set attributeName="fill" to="#808080" begin="zoomminus.mouseover" end="zoomminus.mouseout"/>
                        </use>
                        <path d="M-4,0h8" fill="none" stroke="white" stroke-width="1.5" pointer-events="none"/>
                </g>
                <g id="dirArrow">
                        <path fill="none" stroke="white" stroke-width="1.5" d="M0,-3.0v7 M-2.5,-0.5L0,-3.0L2.5,-0.5"/>
                </g>
               <g id="resetDef">
                       <use xlink:href="#rim2" fill="#404040">
                               <set attributeName="fill" to="#808080" begin="reset.mouseover" end="reset.mouseout"/>
                       </use>
               </g>
        </defs>

<script type="text/javascript">
var viewWidth = 576;
var viewHeight = 127;
var sectionId = 'dynsection-1';
</script>
<script xlink:href="svgpan.js"/>
<svg id="graph" class="graph">
<g id="viewport">
<title>iter::impl::Sliced::begin</title>
<polygon fill="#ffffff" stroke="transparent" points="-4,4 -4,-122.5 572,-122.5 572,4 -4,4"/>
<!-- Node4 -->
<g id="node1" class="node">
<title>Node4</title>
<polygon fill="#bfbfbf" stroke="#000000" points="0,-50.5 0,-80.5 87,-80.5 87,-50.5 0,-50.5"/>
<text text-anchor="start" x="8" y="-68.5" font-family="Helvetica,sans-Serif" font-size="10.00" fill="#000000">iter::impl::Sliced</text>
<text text-anchor="middle" x="43.5" y="-57.5" font-family="Helvetica,sans-Serif" font-size="10.00" fill="#000000">::begin</text>
</g>
<!-- Node5 -->
<g id="node2" class="node">
<title>Node5</title>
<g id="a_node2"><a xlink:href="namespaceiter_1_1impl.html#a7d5cb87a6b785b041ef2a0d9f4444ea4" target="_top" xlink:title="iter::impl::dumb_advance">
<polygon fill="#ffffff" stroke="#000000" points="123,-97 123,-116 249,-116 249,-97 123,-97"/>
<text text-anchor="middle" x="186" y="-104" font-family="Helvetica,sans-Serif" font-size="10.00" fill="#000000">iter::impl::dumb_advance</text>
</a>
</g>
</g>
<!-- Node4&#45;&gt;Node5 -->
<g id="edge1" class="edge">
<title>Node4&#45;&gt;Node5</title>
<path fill="none" stroke="#191970" d="M87.029,-78.0241C104.6815,-83.1031 125.0236,-88.9559 142.6571,-94.0294"/>
<polygon fill="#191970" stroke="#191970" points="142.1077,-97.5133 152.6857,-96.9148 144.0433,-90.7862 142.1077,-97.5133"/>
</g>
<!-- Node8 -->
<g id="node5" class="node">
<title>Node8</title>
<g id="a_node5"><a xlink:href="namespaceiter_1_1impl_1_1get__iters.html#ad5958ccc2e23ff7927ae127847a39dbc" target="_top" xlink:title="iter::impl::get_iters\l::get_begin">
<polygon fill="#ffffff" stroke="#000000" points="310.5,-49.5 310.5,-79.5 408.5,-79.5 408.5,-49.5 310.5,-49.5"/>
<text text-anchor="start" x="318.5" y="-67.5" font-family="Helvetica,sans-Serif" font-size="10.00" fill="#000000">iter::impl::get_iters</text>
<text text-anchor="middle" x="359.5" y="-56.5" font-family="Helvetica,sans-Serif" font-size="10.00" fill="#000000">::get_begin</text>
</a>
</g>
</g>
<!-- Node4&#45;&gt;Node8 -->
<g id="edge4" class="edge">
<title>Node4&#45;&gt;Node8</title>
<path fill="none" stroke="#191970" d="M87.1067,-65.362C142.5187,-65.1866 238.3901,-64.8833 300.3547,-64.6872"/>
<polygon fill="#191970" stroke="#191970" points="300.3865,-68.1872 310.3753,-64.6555 300.3642,-61.1872 300.3865,-68.1872"/>
</g>
<!-- Node10 -->
<g id="node7" class="node">
<title>Node10</title>
<g id="a_node7"><a xlink:href="namespaceiter_1_1impl_1_1get__iters.html#a33bba16eb5615048756ebb04c94629bd" target="_top" xlink:title="iter::impl::get_iters\l::get_end">
<polygon fill="#ffffff" stroke="#000000" points="137,-6.5 137,-36.5 235,-36.5 235,-6.5 137,-6.5"/>
<text text-anchor="start" x="145" y="-24.5" font-family="Helvetica,sans-Serif" font-size="10.00" fill="#000000">iter::impl::get_iters</text>
<text text-anchor="middle" x="186" y="-13.5" font-family="Helvetica,sans-Serif" font-size="10.00" fill="#000000">::get_end</text>
</a>
</g>
</g>
<!-- Node4&#45;&gt;Node10 -->
<g id="edge6" class="edge">
<title>Node4&#45;&gt;Node10</title>
<path fill="none" stroke="#191970" d="M87.029,-52.0595C99.8064,-48.1142 113.9929,-43.7338 127.5414,-39.5504"/>
<polygon fill="#191970" stroke="#191970" points="128.7425,-42.8426 137.2648,-36.5481 126.6773,-36.1542 128.7425,-42.8426"/>
</g>
<!-- Node6 -->
<g id="node3" class="node">
<title>Node6</title>
<g id="a_node3"><a xlink:href="namespaceiter_1_1impl.html#a5c9c919a6e85973d6a9f031d68bb37d1" target="_top" xlink:title="iter::impl::dumb_advance_impl">
<polygon fill="#ffffff" stroke="#000000" points="285,-99 285,-118 434,-118 434,-99 285,-99"/>
<text text-anchor="middle" x="359.5" y="-106" font-family="Helvetica,sans-Serif" font-size="10.00" fill="#000000">iter::impl::dumb_advance_impl</text>
</a>
</g>
</g>
<!-- Node5&#45;&gt;Node6 -->
<g id="edge2" class="edge">
<title>Node5&#45;&gt;Node6</title>
<path fill="none" stroke="#191970" d="M249.1283,-107.2277C257.4851,-107.324 266.1585,-107.424 274.8046,-107.5237"/>
<polygon fill="#191970" stroke="#191970" points="274.8816,-111.0247 284.9214,-107.6403 274.9624,-104.0252 274.8816,-111.0247"/>
</g>
<!-- Node7 -->
<g id="node4" class="node">
<title>Node7</title>
<g id="a_node4"><a xlink:href="namespaceNS1.html#adffa3fd87b6626df9eda704de5f7fceb" target="_top" xlink:title="NS1::end">
<polygon fill="#ffffff" stroke="#000000" points="490,-99 490,-118 548,-118 548,-99 490,-99"/>
<text text-anchor="middle" x="519" y="-106" font-family="Helvetica,sans-Serif" font-size="10.00" fill="#000000">NS1::end</text>
</a>
</g>
</g>
<!-- Node6&#45;&gt;Node7 -->
<g id="edge3" class="edge">
<title>Node6&#45;&gt;Node7</title>
<path fill="none" stroke="#191970" d="M434.113,-108.5C449.8775,-108.5 465.9108,-108.5 479.7351,-108.5"/>
<polygon fill="#191970" stroke="#191970" points="479.8352,-112.0001 489.8351,-108.5 479.8351,-105.0001 479.8352,-112.0001"/>
</g>
<!-- Node9 -->
<g id="node6" class="node">
<title>Node9</title>
<g id="a_node6"><a xlink:href="namespaceiter_1_1impl_1_1get__iters.html#aa42232a4051a50a8ffd16207aa031ff5" target="_top" xlink:title="iter::impl::get_iters\l::get_begin_impl">
<polygon fill="#ffffff" stroke="#000000" points="470,-49.5 470,-79.5 568,-79.5 568,-49.5 470,-49.5"/>
<text text-anchor="start" x="478" y="-67.5" font-family="Helvetica,sans-Serif" font-size="10.00" fill="#000000">iter::impl::get_iters</text>
<text text-anchor="middle" x="519" y="-56.5" font-family="Helvetica,sans-Serif" font-size="10.00" fill="#000000">::get_begin_impl</text>
</a>
</g>
</g>
<!-- Node8&#45;&gt;Node9 -->
<g id="edge5" class="edge">
<title>Node8&#45;&gt;Node9</title>
<path fill="none" stroke="#191970" d="M408.6567,-64.5C424.7265,-64.5 442.7496,-64.5 459.4971,-64.5"/>
<polygon fill="#191970" stroke="#191970" points="459.7311,-68.0001 469.731,-64.5 459.731,-61.0001 459.7311,-68.0001"/>
</g>
<!-- Node10&#45;&gt;Node8 -->
<g id="edge8" class="edge">
<title>Node10&#45;&gt;Node8</title>
<path fill="none" stroke="#191970" d="M235.254,-33.7071C255.5785,-38.7442 279.3032,-44.6241 300.5426,-49.8881"/>
<polygon fill="#191970" stroke="#191970" points="299.875,-53.3284 310.4233,-52.3369 301.5589,-46.534 299.875,-53.3284"/>
</g>
<!-- Node11 -->
<g id="node8" class="node">
<title>Node11</title>
<g id="a_node8"><a xlink:href="namespaceiter_1_1impl_1_1get__iters.html#a4195fc28d6c53e02d7cb825ce26d75d5" target="_top" xlink:title="iter::impl::get_iters\l::get_end_impl">
<polygon fill="#ffffff" stroke="#000000" points="310.5,-.5 310.5,-30.5 408.5,-30.5 408.5,-.5 310.5,-.5"/>
<text text-anchor="start" x="318.5" y="-18.5" font-family="Helvetica,sans-Serif" font-size="10.00" fill="#000000">iter::impl::get_iters</text>
<text text-anchor="middle" x="359.5" y="-7.5" font-family="Helvetica,sans-Serif" font-size="10.00" fill="#000000">::get_end_impl</text>
</a>
</g>
</g>
<!-- Node10&#45;&gt;Node11 -->
<g id="edge7" class="edge">
<title>Node10&#45;&gt;Node11</title>
<path fill="none" stroke="#191970" d="M235.254,-19.7967C255.4865,-19.097 279.0885,-18.2808 300.2541,-17.5488"/>
<polygon fill="#191970" stroke="#191970" points="300.5503,-21.0408 310.4233,-17.1972 300.3083,-14.045 300.5503,-21.0408"/>
</g>
</g>
</svg>
        <g id="navigator" transform="translate(0 0)" fill="#404254">
                <rect fill="#f2f5e9" fill-opacity="0.5" stroke="#606060" stroke-width=".5" x="0" y="0" width="60" height="60"/>
                <use id="zoomplus" xlink:href="#zoomPlus" x="17" y="9" onmousedown="handleZoom(evt,'in')"/>
                <use id="zoomminus" xlink:href="#zoomMin" x="42" y="9" onmousedown="handleZoom(evt,'out')"/>
                <use id="reset" xlink:href="#resetDef" x="30" y="36" onmousedown="handleReset()"/>
                <g id="arrowUp" xlink:href="#dirArrow" transform="translate(30 24)" onmousedown="handlePan(0,-1)">
                  <use xlink:href="#rim" fill="#404040">
                        <set attributeName="fill" to="#808080" begin="arrowUp.mouseover" end="arrowUp.mouseout"/>
                  </use>
                  <path fill="none" stroke="white" stroke-width="1.5" d="M0,-3.0v7 M-2.5,-0.5L0,-3.0L2.5,-0.5"/>
                </g>
                <g id="arrowRight" xlink:href="#dirArrow" transform="rotate(90) translate(36 -43)" onmousedown="handlePan(1,0)">
                  <use xlink:href="#rim" fill="#404040">
                        <set attributeName="fill" to="#808080" begin="arrowRight.mouseover" end="arrowRight.mouseout"/>
                  </use>
                  <path fill="none" stroke="white" stroke-width="1.5" d="M0,-3.0v7 M-2.5,-0.5L0,-3.0L2.5,-0.5"/>
                </g>
                <g id="arrowDown" xlink:href="#dirArrow" transform="rotate(180) translate(-30 -48)" onmousedown="handlePan(0,1)">
                  <use xlink:href="#rim" fill="#404040">
                        <set attributeName="fill" to="#808080" begin="arrowDown.mouseover" end="arrowDown.mouseout"/>
                  </use>
                  <path fill="none" stroke="white" stroke-width="1.5" d="M0,-3.0v7 M-2.5,-0.5L0,-3.0L2.5,-0.5"/>
                </g>
                <g id="arrowLeft" xlink:href="#dirArrow" transform="rotate(270) translate(-36 17)" onmousedown="handlePan(-1,0)">
                  <use xlink:href="#rim" fill="#404040">
                        <set attributeName="fill" to="#808080" begin="arrowLeft.mouseover" end="arrowLeft.mouseout"/>
                  </use>
                  <path fill="none" stroke="white" stroke-width="1.5" d="M0,-3.0v7 M-2.5,-0.5L0,-3.0L2.5,-0.5"/>
                </g>
        </g>
        <svg viewBox="0 0 15 15" width="100%" height="30px" preserveAspectRatio="xMaxYMin meet">
         <g id="arrow_out" transform="scale(0.3 0.3)">
          <a xlink:href="classiter_1_1impl_1_1Sliced_a2cb9d33e36c5732d5bdc62c93c053fc6_cgraph_org.svg" target="_base">
           <rect id="button" ry="5" rx="5" y="6" x="6" height="38" width="38"
                fill="#f2f5e9" fill-opacity="0.5" stroke="#606060" stroke-width="1.0"/>
           <path id="arrow"
             d="M 11.500037,31.436501 C 11.940474,20.09759 22.043105,11.32322 32.158766,21.979434 L 37.068811,17.246167 C 37.068811,17.246167 37.088388,32 37.088388,32 L 22.160133,31.978069 C 22.160133,31.978069 26.997745,27.140456 26.997745,27.140456 C 18.528582,18.264221 13.291696,25.230495 11.500037,31.436501 z"
             style="fill:#404040;"/>
          </a>
         </g>
        </svg>
</svg>
