<?xml version="1.0" encoding="UTF-8" standalone="no"?>
<!DOCTYPE svg PUBLIC "-//W3C//DTD SVG 1.1//EN"
 "http://www.w3.org/Graphics/SVG/1.1/DTD/svg11.dtd">
<!-- Generated by graphviz version 2.40.1 (20161225.0304)
 -->
<!-- Title: std::tuple_element&lt; N, iter::impl::EnumIterYield&lt; Index, Elem &gt; &gt; Pages: 1 -->
<svg width="152pt" height="204pt"
 viewBox="0.00 0.00 152.00 204.00" xmlns="http://www.w3.org/2000/svg" xmlns:xlink="http://www.w3.org/1999/xlink">
<g id="graph0" class="graph" transform="scale(1 1) rotate(0) translate(4 200)">
<title>std::tuple_element&lt; N, iter::impl::EnumIterYield&lt; Index, Elem &gt; &gt;</title>
<polygon fill="#ffffff" stroke="transparent" points="-4,4 -4,-200 148,-200 148,4 -4,4"/>
<!-- Node2 -->
<g id="node1" class="node">
<title>Node2</title>
<polygon fill="#bfbfbf" stroke="#000000" points="0,-.5 0,-79.5 144,-79.5 144,-.5 0,-.5"/>
<text text-anchor="start" x="8" y="-67.5" font-family="Helvetica,sans-Serif" font-size="10.00" fill="#000000">std::tuple_element</text>
<text text-anchor="start" x="8" y="-56.5" font-family="Helvetica,sans-Serif" font-size="10.00" fill="#000000">&lt; N, iter::impl::EnumIterYield</text>
<text text-anchor="middle" x="72" y="-45.5" font-family="Helvetica,sans-Serif" font-size="10.00" fill="#000000">&lt; Index, Elem &gt; &gt;</text>
<polyline fill="none" stroke="#000000" points="0,-38.5 144,-38.5 "/>
<text text-anchor="middle" x="72" y="-26.5" font-family="Helvetica,sans-Serif" font-size="10.00" fill="#000000"> </text>
<polyline fill="none" stroke="#000000" points="0,-19.5 144,-19.5 "/>
<text text-anchor="middle" x="72" y="-7.5" font-family="Helvetica,sans-Serif" font-size="10.00" fill="#000000"> </text>
</g>
<!-- Node3 -->
<g id="node2" class="node">
<title>Node3</title>
<polygon fill="#ffffff" stroke="#bfbfbf" points="13,-116.5 13,-195.5 131,-195.5 131,-116.5 13,-116.5"/>
<text text-anchor="start" x="21" y="-183.5" font-family="Helvetica,sans-Serif" font-size="10.00" fill="#000000">tuple_element&lt; N, iter</text>
<text text-anchor="start" x="21" y="-172.5" font-family="Helvetica,sans-Serif" font-size="10.00" fill="#000000">::impl::EnumBasePair&lt;</text>
<text text-anchor="middle" x="72" y="-161.5" font-family="Helvetica,sans-Serif" font-size="10.00" fill="#000000"> Index, Elem &gt; &gt;</text>
<polyline fill="none" stroke="#bfbfbf" points="13,-154.5 131,-154.5 "/>
<text text-anchor="middle" x="72" y="-142.5" font-family="Helvetica,sans-Serif" font-size="10.00" fill="#000000"> </text>
<polyline fill="none" stroke="#bfbfbf" points="13,-135.5 131,-135.5 "/>
<text text-anchor="middle" x="72" y="-123.5" font-family="Helvetica,sans-Serif" font-size="10.00" fill="#000000"> </text>
</g>
<!-- Node3&#45;&gt;Node2 -->
<g id="edge1" class="edge">
<title>Node3&#45;&gt;Node2</title>
<path fill="none" stroke="#191970" d="M72,-106.2163C72,-97.394 72,-88.3127 72,-79.8116"/>
<polygon fill="none" stroke="#191970" points="68.5001,-106.4038 72,-116.4038 75.5001,-106.4039 68.5001,-106.4038"/>
</g>
</g>
</svg>
