<?xml version="1.0" encoding="UTF-8" standalone="no"?>
<!DOCTYPE svg PUBLIC "-//W3C//DTD SVG 1.1//EN"
 "http://www.w3.org/Graphics/SVG/1.1/DTD/svg11.dtd">
<!-- Generated by graphviz version 2.40.1 (20161225.0304)
 -->
<!-- Title: iter::impl::Compressed::Iterator::operator++ Pages: 1 -->
<svg width="428pt" height="67pt"
 viewBox="0.00 0.00 428.00 66.50" xmlns="http://www.w3.org/2000/svg" xmlns:xlink="http://www.w3.org/1999/xlink">
<g id="graph0" class="graph" transform="scale(1 1) rotate(0) translate(4 62.5)">
<title>iter::impl::Compressed::Iterator::operator++</title>
<polygon fill="#ffffff" stroke="transparent" points="-4,4 -4,-62.5 424,-62.5 424,4 -4,4"/>
<!-- Node13 -->
<g id="node1" class="node">
<title>Node13</title>
<polygon fill="#bfbfbf" stroke="#000000" points="0,-22.5 0,-52.5 116,-52.5 116,-22.5 0,-22.5"/>
<text text-anchor="start" x="8" y="-40.5" font-family="Helvetica,sans-Serif" font-size="10.00" fill="#000000">iter::impl::Compressed</text>
<text text-anchor="middle" x="58" y="-29.5" font-family="Helvetica,sans-Serif" font-size="10.00" fill="#000000">::Iterator::operator++</text>
</g>
<!-- Node14 -->
<g id="node2" class="node">
<title>Node14</title>
<g id="a_node2"><a xlink:href="classiter_1_1impl_1_1Compressed_1_1Iterator.html#a113a04991f7d684541bae465644254fc" target="_top" xlink:title="iter::impl::Compressed\l::Iterator::increment\l_iterators">
<polygon fill="#ffffff" stroke="#000000" points="304,-17 304,-58 420,-58 420,-17 304,-17"/>
<text text-anchor="start" x="312" y="-46" font-family="Helvetica,sans-Serif" font-size="10.00" fill="#000000">iter::impl::Compressed</text>
<text text-anchor="start" x="312" y="-35" font-family="Helvetica,sans-Serif" font-size="10.00" fill="#000000">::Iterator::increment</text>
<text text-anchor="middle" x="362" y="-24" font-family="Helvetica,sans-Serif" font-size="10.00" fill="#000000">_iterators</text>
</a>
</g>
</g>
<!-- Node13&#45;&gt;Node14 -->
<g id="edge1" class="edge">
<title>Node13&#45;&gt;Node14</title>
<path fill="none" stroke="#191970" d="M116.1594,-39.646C128.0166,-40.002 140.4088,-40.3151 152,-40.5 203.549,-41.3224 216.451,-41.3224 268,-40.5 276.3312,-40.3671 285.0762,-40.168 293.7389,-39.9343"/>
<polygon fill="#191970" stroke="#191970" points="293.9446,-43.4299 303.8406,-39.646 293.7448,-36.4328 293.9446,-43.4299"/>
</g>
<!-- Node15 -->
<g id="node3" class="node">
<title>Node15</title>
<g id="a_node3"><a xlink:href="classiter_1_1impl_1_1Compressed_1_1Iterator.html#a5edb1bd9c65935579e9cb7ebe04b4ab0" target="_top" xlink:title="iter::impl::Compressed\l::Iterator::skip_failures">
<polygon fill="#ffffff" stroke="#000000" points="152,-.5 152,-30.5 268,-30.5 268,-.5 152,-.5"/>
<text text-anchor="start" x="160" y="-18.5" font-family="Helvetica,sans-Serif" font-size="10.00" fill="#000000">iter::impl::Compressed</text>
<text text-anchor="middle" x="210" y="-7.5" font-family="Helvetica,sans-Serif" font-size="10.00" fill="#000000">::Iterator::skip_failures</text>
</a>
</g>
</g>
<!-- Node13&#45;&gt;Node15 -->
<g id="edge2" class="edge">
<title>Node13&#45;&gt;Node15</title>
<path fill="none" stroke="#191970" d="M116.3325,-29.0571C124.6966,-27.8465 133.3631,-26.5922 141.8953,-25.3573"/>
<polygon fill="#191970" stroke="#191970" points="142.4281,-28.8167 151.8236,-23.9203 141.4254,-21.8889 142.4281,-28.8167"/>
</g>
<!-- Node15&#45;&gt;Node14 -->
<g id="edge3" class="edge">
<title>Node15&#45;&gt;Node14</title>
<path fill="none" stroke="#191970" d="M268.3325,-23.9429C276.6966,-25.1535 285.3631,-26.4078 293.8953,-27.6427"/>
<polygon fill="#191970" stroke="#191970" points="293.4254,-31.1111 303.8236,-29.0797 294.4281,-24.1833 293.4254,-31.1111"/>
</g>
</g>
</svg>
