<?xml version="1.0" encoding="UTF-8" standalone="no"?>
<!DOCTYPE svg PUBLIC "-//W3C//DTD SVG 1.1//EN"
 "http://www.w3.org/Graphics/SVG/1.1/DTD/svg11.dtd">
<!-- Generated by graphviz version 2.40.1 (20161225.0304)
 -->
<!-- Title: iter::impl::FilterFalsed&lt; FilterFunc, Container &gt; Pages: 1 -->
<svg width="157pt" height="365pt"
 viewBox="0.00 0.00 157.00 365.00" xmlns="http://www.w3.org/2000/svg" xmlns:xlink="http://www.w3.org/1999/xlink">
<g id="graph0" class="graph" transform="scale(1 1) rotate(0) translate(4 361)">
<title>iter::impl::FilterFalsed&lt; FilterFunc, Container &gt;</title>
<polygon fill="#ffffff" stroke="transparent" points="-4,4 -4,-361 153,-361 153,4 -4,4"/>
<!-- Node2 -->
<g id="node1" class="node">
<title>Node2</title>
<polygon fill="#bfbfbf" stroke="#000000" points="11.5,-.5 11.5,-68.5 137.5,-68.5 137.5,-.5 11.5,-.5"/>
<text text-anchor="start" x="19.5" y="-56.5" font-family="Helvetica,sans-Serif" font-size="10.00" fill="#000000">iter::impl::FilterFalsed</text>
<text text-anchor="middle" x="74.5" y="-45.5" font-family="Helvetica,sans-Serif" font-size="10.00" fill="#000000">&lt; FilterFunc, Container &gt;</text>
<polyline fill="none" stroke="#000000" points="11.5,-38.5 137.5,-38.5 "/>
<text text-anchor="start" x="19.5" y="-26.5" font-family="Helvetica,sans-Serif" font-size="10.00" fill="#000000">&#45; FilterFalseFn</text>
<polyline fill="none" stroke="#000000" points="11.5,-19.5 137.5,-19.5 "/>
<text text-anchor="start" x="19.5" y="-7.5" font-family="Helvetica,sans-Serif" font-size="10.00" fill="#000000">&#45; FilterFalsed()</text>
</g>
<!-- Node3 -->
<g id="node2" class="node">
<title>Node3</title>
<g id="a_node2"><a xlink:href="classiter_1_1impl_1_1Filtered.html" target="_top" xlink:title="{iter::impl::Filtered\l\&lt; PredicateFlipper\&lt; FilterFunc\l \&gt;, Container \&gt;\n|&#45; filter_func_\l&#45; FilterFn\l|+ Filtered()\l+ begin()\l+ begin()\l+ end()\l+ end()\l# Filtered()\l}">
<polygon fill="#ffffff" stroke="#000000" points="0,-106.5 0,-251.5 149,-251.5 149,-106.5 0,-106.5"/>
<text text-anchor="start" x="8" y="-239.5" font-family="Helvetica,sans-Serif" font-size="10.00" fill="#000000">iter::impl::Filtered</text>
<text text-anchor="start" x="8" y="-228.5" font-family="Helvetica,sans-Serif" font-size="10.00" fill="#000000">&lt; PredicateFlipper&lt; FilterFunc</text>
<text text-anchor="middle" x="74.5" y="-217.5" font-family="Helvetica,sans-Serif" font-size="10.00" fill="#000000"> &gt;, Container &gt;</text>
<polyline fill="none" stroke="#000000" points="0,-210.5 149,-210.5 "/>
<text text-anchor="start" x="8" y="-198.5" font-family="Helvetica,sans-Serif" font-size="10.00" fill="#000000">&#45; filter_func_</text>
<text text-anchor="start" x="8" y="-187.5" font-family="Helvetica,sans-Serif" font-size="10.00" fill="#000000">&#45; FilterFn</text>
<polyline fill="none" stroke="#000000" points="0,-180.5 149,-180.5 "/>
<text text-anchor="start" x="8" y="-168.5" font-family="Helvetica,sans-Serif" font-size="10.00" fill="#000000">+ Filtered()</text>
<text text-anchor="start" x="8" y="-157.5" font-family="Helvetica,sans-Serif" font-size="10.00" fill="#000000">+ begin()</text>
<text text-anchor="start" x="8" y="-146.5" font-family="Helvetica,sans-Serif" font-size="10.00" fill="#000000">+ begin()</text>
<text text-anchor="start" x="8" y="-135.5" font-family="Helvetica,sans-Serif" font-size="10.00" fill="#000000">+ end()</text>
<text text-anchor="start" x="8" y="-124.5" font-family="Helvetica,sans-Serif" font-size="10.00" fill="#000000">+ end()</text>
<text text-anchor="start" x="8" y="-113.5" font-family="Helvetica,sans-Serif" font-size="10.00" fill="#000000"># Filtered()</text>
</a>
</g>
</g>
<!-- Node3&#45;&gt;Node2 -->
<g id="edge1" class="edge">
<title>Node3&#45;&gt;Node2</title>
<path fill="none" stroke="#191970" d="M74.5,-96.1416C74.5,-86.4297 74.5,-76.9793 74.5,-68.513"/>
<polygon fill="none" stroke="#191970" points="71.0001,-96.3266 74.5,-106.3267 78.0001,-96.3267 71.0001,-96.3266"/>
</g>
<!-- Node4 -->
<g id="node3" class="node">
<title>Node4</title>
<polygon fill="#ffffff" stroke="#bfbfbf" points="45,-299.5 45,-356.5 104,-356.5 104,-299.5 45,-299.5"/>
<text text-anchor="middle" x="74.5" y="-344.5" font-family="Helvetica,sans-Serif" font-size="10.00" fill="#000000">Container</text>
<polyline fill="none" stroke="#bfbfbf" points="45,-337.5 104,-337.5 "/>
<text text-anchor="middle" x="74.5" y="-325.5" font-family="Helvetica,sans-Serif" font-size="10.00" fill="#000000"> </text>
<polyline fill="none" stroke="#bfbfbf" points="45,-318.5 104,-318.5 "/>
<text text-anchor="middle" x="74.5" y="-306.5" font-family="Helvetica,sans-Serif" font-size="10.00" fill="#000000"> </text>
</g>
<!-- Node4&#45;&gt;Node3 -->
<g id="edge2" class="edge">
<title>Node4&#45;&gt;Node3</title>
<path fill="none" stroke="#404040" d="M74.5,-299.2713C74.5,-288.8895 74.5,-276.5716 74.5,-263.843"/>
<polygon fill="none" stroke="#404040" points="74.5001,-263.5631 70.5,-257.5632 74.5,-251.5631 78.5,-257.5631 74.5001,-263.5631"/>
<text text-anchor="middle" x="100.5" y="-273" font-family="Helvetica,sans-Serif" font-size="10.00" fill="#000000"> &#45;container_</text>
</g>
</g>
</svg>
