<?xml version="1.0" encoding="UTF-8" standalone="no"?>
<!DOCTYPE svg PUBLIC "-//W3C//DTD SVG 1.1//EN"
 "http://www.w3.org/Graphics/SVG/1.1/DTD/svg11.dtd">
<!-- Generated by graphviz version 2.40.1 (20161225.0304)
 -->
<!-- Title: /media/lubuntu/USBDISK/github/ckpttncpp/third_party/cppitertools/combinations.hpp Pages: 1 -->
<svg width="532pt" height="317pt"
 viewBox="0.00 0.00 532.00 317.00" xmlns="http://www.w3.org/2000/svg" xmlns:xlink="http://www.w3.org/1999/xlink">
<g id="graph0" class="graph" transform="scale(1 1) rotate(0) translate(4 313)">
<title>/media/lubuntu/USBDISK/github/ckpttncpp/third_party/cppitertools/combinations.hpp</title>
<polygon fill="#ffffff" stroke="transparent" points="-4,4 -4,-313 528,-313 528,4 -4,4"/>
<!-- Node11 -->
<g id="node1" class="node">
<title>Node11</title>
<polygon fill="#bfbfbf" stroke="#000000" points="189,-267.5 189,-308.5 365,-308.5 365,-267.5 189,-267.5"/>
<text text-anchor="start" x="197" y="-296.5" font-family="Helvetica,sans-Serif" font-size="10.00" fill="#000000">/media/lubuntu/USBDISK</text>
<text text-anchor="start" x="197" y="-285.5" font-family="Helvetica,sans-Serif" font-size="10.00" fill="#000000">/github/ckpttncpp/third</text>
<text text-anchor="middle" x="277" y="-274.5" font-family="Helvetica,sans-Serif" font-size="10.00" fill="#000000">_party/cppitertools/combinations.hpp</text>
</g>
<!-- Node12 -->
<g id="node2" class="node">
<title>Node12</title>
<g id="a_node2"><a xlink:href="combinatoric__examples_8cpp.html" target="_top" xlink:title="/media/lubuntu/USBDISK\l/github/ckpttncpp/third\l_party/cppitertools/examples\l/combinatoric_examples.cpp">
<polygon fill="#ffffff" stroke="#000000" points="0,-89.5 0,-141.5 142,-141.5 142,-89.5 0,-89.5"/>
<text text-anchor="start" x="8" y="-129.5" font-family="Helvetica,sans-Serif" font-size="10.00" fill="#000000">/media/lubuntu/USBDISK</text>
<text text-anchor="start" x="8" y="-118.5" font-family="Helvetica,sans-Serif" font-size="10.00" fill="#000000">/github/ckpttncpp/third</text>
<text text-anchor="start" x="8" y="-107.5" font-family="Helvetica,sans-Serif" font-size="10.00" fill="#000000">_party/cppitertools/examples</text>
<text text-anchor="middle" x="71" y="-96.5" font-family="Helvetica,sans-Serif" font-size="10.00" fill="#000000">/combinatoric_examples.cpp</text>
</a>
</g>
</g>
<!-- Node11&#45;&gt;Node12 -->
<g id="edge1" class="edge">
<title>Node11&#45;&gt;Node12</title>
<path fill="none" stroke="#191970" d="M190.1914,-263.5712C170.9095,-255.3736 151.5928,-244.7086 136,-231 108.3511,-206.692 89.8727,-167.6518 79.902,-141.79"/>
<polygon fill="#191970" stroke="#191970" points="189.0553,-266.8873 199.6378,-267.3999 191.6847,-260.3999 189.0553,-266.8873"/>
</g>
<!-- Node13 -->
<g id="node3" class="node">
<title>Node13</title>
<g id="a_node3"><a xlink:href="itertools_8hpp.html" target="_top" xlink:title="/media/lubuntu/USBDISK\l/github/ckpttncpp/third\l_party/cppitertools/itertools.hpp">
<polygon fill="#ffffff" stroke="#000000" points="306.5,-95 306.5,-136 459.5,-136 459.5,-95 306.5,-95"/>
<text text-anchor="start" x="314.5" y="-124" font-family="Helvetica,sans-Serif" font-size="10.00" fill="#000000">/media/lubuntu/USBDISK</text>
<text text-anchor="start" x="314.5" y="-113" font-family="Helvetica,sans-Serif" font-size="10.00" fill="#000000">/github/ckpttncpp/third</text>
<text text-anchor="middle" x="383" y="-102" font-family="Helvetica,sans-Serif" font-size="10.00" fill="#000000">_party/cppitertools/itertools.hpp</text>
</a>
</g>
</g>
<!-- Node11&#45;&gt;Node13 -->
<g id="edge2" class="edge">
<title>Node11&#45;&gt;Node13</title>
<path fill="none" stroke="#191970" d="M295.1824,-258.4107C316.6083,-223.5432 351.6502,-166.5173 370.3336,-136.1128"/>
<polygon fill="#191970" stroke="#191970" points="292.0396,-256.8401 289.7861,-267.1925 298.0036,-260.5049 292.0396,-256.8401"/>
</g>
<!-- Node16 -->
<g id="node6" class="node">
<title>Node16</title>
<g id="a_node6"><a xlink:href="powerset_8hpp.html" target="_top" xlink:title="/media/lubuntu/USBDISK\l/github/ckpttncpp/third\l_party/cppitertools/powerset.hpp">
<polygon fill="#ffffff" stroke="#000000" points="145,-184 145,-225 303,-225 303,-184 145,-184"/>
<text text-anchor="start" x="153" y="-213" font-family="Helvetica,sans-Serif" font-size="10.00" fill="#000000">/media/lubuntu/USBDISK</text>
<text text-anchor="start" x="153" y="-202" font-family="Helvetica,sans-Serif" font-size="10.00" fill="#000000">/github/ckpttncpp/third</text>
<text text-anchor="middle" x="224" y="-191" font-family="Helvetica,sans-Serif" font-size="10.00" fill="#000000">_party/cppitertools/powerset.hpp</text>
</a>
</g>
</g>
<!-- Node11&#45;&gt;Node16 -->
<g id="edge5" class="edge">
<title>Node11&#45;&gt;Node16</title>
<path fill="none" stroke="#191970" d="M258.4754,-258.8151C251.438,-247.7277 243.5729,-235.3366 237.1341,-225.1924"/>
<polygon fill="#191970" stroke="#191970" points="255.5849,-260.7923 263.8989,-267.3595 261.4949,-257.041 255.5849,-260.7923"/>
</g>
<!-- Node18 -->
<g id="node8" class="node">
<title>Node18</title>
<g id="a_node8"><a xlink:href="test__combinations_8cpp.html" target="_top" xlink:title="/media/lubuntu/USBDISK\l/github/ckpttncpp/third\l_party/cppitertools/test\l/test_combinations.cpp">
<polygon fill="#ffffff" stroke="#000000" points="359,-178.5 359,-230.5 487,-230.5 487,-178.5 359,-178.5"/>
<text text-anchor="start" x="367" y="-218.5" font-family="Helvetica,sans-Serif" font-size="10.00" fill="#000000">/media/lubuntu/USBDISK</text>
<text text-anchor="start" x="367" y="-207.5" font-family="Helvetica,sans-Serif" font-size="10.00" fill="#000000">/github/ckpttncpp/third</text>
<text text-anchor="start" x="367" y="-196.5" font-family="Helvetica,sans-Serif" font-size="10.00" fill="#000000">_party/cppitertools/test</text>
<text text-anchor="middle" x="423" y="-185.5" font-family="Helvetica,sans-Serif" font-size="10.00" fill="#000000">/test_combinations.cpp</text>
</a>
</g>
</g>
<!-- Node11&#45;&gt;Node18 -->
<g id="edge9" class="edge">
<title>Node11&#45;&gt;Node18</title>
<path fill="none" stroke="#191970" d="M322.0247,-262.2496C339.6062,-252.1944 359.7385,-240.6804 377.3771,-230.5925"/>
<polygon fill="#191970" stroke="#191970" points="320.0329,-259.3567 313.0899,-267.3595 323.5081,-265.4331 320.0329,-259.3567"/>
</g>
<!-- Node14 -->
<g id="node4" class="node">
<title>Node14</title>
<g id="a_node4"><a xlink:href="mixed__examples_8cpp.html" target="_top" xlink:title="/media/lubuntu/USBDISK\l/github/ckpttncpp/third\l_party/cppitertools/examples\l/mixed_examples.cpp">
<polygon fill="#ffffff" stroke="#000000" points="236,-.5 236,-52.5 378,-52.5 378,-.5 236,-.5"/>
<text text-anchor="start" x="244" y="-40.5" font-family="Helvetica,sans-Serif" font-size="10.00" fill="#000000">/media/lubuntu/USBDISK</text>
<text text-anchor="start" x="244" y="-29.5" font-family="Helvetica,sans-Serif" font-size="10.00" fill="#000000">/github/ckpttncpp/third</text>
<text text-anchor="start" x="244" y="-18.5" font-family="Helvetica,sans-Serif" font-size="10.00" fill="#000000">_party/cppitertools/examples</text>
<text text-anchor="middle" x="307" y="-7.5" font-family="Helvetica,sans-Serif" font-size="10.00" fill="#000000">/mixed_examples.cpp</text>
</a>
</g>
</g>
<!-- Node13&#45;&gt;Node14 -->
<g id="edge3" class="edge">
<title>Node13&#45;&gt;Node14</title>
<path fill="none" stroke="#191970" d="M358.7936,-87.153C349.3864,-76.1367 338.6743,-63.5922 329.4427,-52.7816"/>
<polygon fill="#191970" stroke="#191970" points="356.2176,-89.5261 365.373,-94.8579 361.5408,-84.9804 356.2176,-89.5261"/>
</g>
<!-- Node15 -->
<g id="node5" class="node">
<title>Node15</title>
<g id="a_node5"><a xlink:href="test__mixed_8cpp.html" target="_top" xlink:title="/media/lubuntu/USBDISK\l/github/ckpttncpp/third\l_party/cppitertools/test\l/test_mixed.cpp">
<polygon fill="#ffffff" stroke="#000000" points="396,-.5 396,-52.5 524,-52.5 524,-.5 396,-.5"/>
<text text-anchor="start" x="404" y="-40.5" font-family="Helvetica,sans-Serif" font-size="10.00" fill="#000000">/media/lubuntu/USBDISK</text>
<text text-anchor="start" x="404" y="-29.5" font-family="Helvetica,sans-Serif" font-size="10.00" fill="#000000">/github/ckpttncpp/third</text>
<text text-anchor="start" x="404" y="-18.5" font-family="Helvetica,sans-Serif" font-size="10.00" fill="#000000">_party/cppitertools/test</text>
<text text-anchor="middle" x="460" y="-7.5" font-family="Helvetica,sans-Serif" font-size="10.00" fill="#000000">/test_mixed.cpp</text>
</a>
</g>
</g>
<!-- Node13&#45;&gt;Node15 -->
<g id="edge4" class="edge">
<title>Node13&#45;&gt;Node15</title>
<path fill="none" stroke="#191970" d="M407.5249,-87.153C417.0559,-76.1367 427.909,-63.5922 437.262,-52.7816"/>
<polygon fill="#191970" stroke="#191970" points="404.7549,-85.0054 400.8589,-94.8579 410.0486,-89.5854 404.7549,-85.0054"/>
</g>
<!-- Node16&#45;&gt;Node12 -->
<g id="edge6" class="edge">
<title>Node16&#45;&gt;Node12</title>
<path fill="none" stroke="#191970" d="M179.8641,-178.8262C159.7874,-167.1475 136.0645,-153.348 115.897,-141.6166"/>
<polygon fill="#191970" stroke="#191970" points="178.1103,-181.8551 188.5142,-183.8579 181.6301,-175.8043 178.1103,-181.8551"/>
</g>
<!-- Node16&#45;&gt;Node13 -->
<g id="edge7" class="edge">
<title>Node16&#45;&gt;Node13</title>
<path fill="none" stroke="#191970" d="M269.9069,-178.8037C294.1848,-165.2142 323.5845,-148.7577 346.3225,-136.0301"/>
<polygon fill="#191970" stroke="#191970" points="267.8939,-175.9194 260.8774,-183.8579 271.313,-182.0276 267.8939,-175.9194"/>
</g>
<!-- Node17 -->
<g id="node7" class="node">
<title>Node17</title>
<g id="a_node7"><a xlink:href="test__powerset_8cpp.html" target="_top" xlink:title="/media/lubuntu/USBDISK\l/github/ckpttncpp/third\l_party/cppitertools/test\l/test_powerset.cpp">
<polygon fill="#ffffff" stroke="#000000" points="160,-89.5 160,-141.5 288,-141.5 288,-89.5 160,-89.5"/>
<text text-anchor="start" x="168" y="-129.5" font-family="Helvetica,sans-Serif" font-size="10.00" fill="#000000">/media/lubuntu/USBDISK</text>
<text text-anchor="start" x="168" y="-118.5" font-family="Helvetica,sans-Serif" font-size="10.00" fill="#000000">/github/ckpttncpp/third</text>
<text text-anchor="start" x="168" y="-107.5" font-family="Helvetica,sans-Serif" font-size="10.00" fill="#000000">_party/cppitertools/test</text>
<text text-anchor="middle" x="224" y="-96.5" font-family="Helvetica,sans-Serif" font-size="10.00" fill="#000000">/test_powerset.cpp</text>
</a>
</g>
</g>
<!-- Node16&#45;&gt;Node17 -->
<g id="edge8" class="edge">
<title>Node16&#45;&gt;Node17</title>
<path fill="none" stroke="#191970" d="M224,-173.56C224,-163.1985 224,-151.7526 224,-141.7816"/>
<polygon fill="#191970" stroke="#191970" points="220.5001,-173.8579 224,-183.8579 227.5001,-173.8579 220.5001,-173.8579"/>
</g>
</g>
</svg>
