<?xml version="1.0" encoding="UTF-8" standalone="no"?>
<!DOCTYPE svg PUBLIC "-//W3C//DTD SVG 1.1//EN"
 "http://www.w3.org/Graphics/SVG/1.1/DTD/svg11.dtd">
<!-- Generated by graphviz version 2.40.1 (20161225.0304)
 -->
<!-- Title: /media/lubuntu/USBDISK/github/ckpttncpp/third_party/cppitertools/compress.hpp Pages: 1 -->
<svg width="463pt" height="218pt"
 viewBox="0.00 0.00 462.50 218.00" xmlns="http://www.w3.org/2000/svg" xmlns:xlink="http://www.w3.org/1999/xlink">
<g id="graph0" class="graph" transform="scale(1 1) rotate(0) translate(4 214)">
<title>/media/lubuntu/USBDISK/github/ckpttncpp/third_party/cppitertools/compress.hpp</title>
<polygon fill="#ffffff" stroke="transparent" points="-4,4 -4,-214 458.5,-214 458.5,4 -4,4"/>
<!-- Node0 -->
<g id="node1" class="node">
<title>Node0</title>
<polygon fill="#bfbfbf" stroke="#000000" points="230,-168.5 230,-209.5 391,-209.5 391,-168.5 230,-168.5"/>
<text text-anchor="start" x="238" y="-197.5" font-family="Helvetica,sans-Serif" font-size="10.00" fill="#000000">/media/lubuntu/USBDISK</text>
<text text-anchor="start" x="238" y="-186.5" font-family="Helvetica,sans-Serif" font-size="10.00" fill="#000000">/github/ckpttncpp/third</text>
<text text-anchor="middle" x="310.5" y="-175.5" font-family="Helvetica,sans-Serif" font-size="10.00" fill="#000000">_party/cppitertools/compress.hpp</text>
</g>
<!-- Node1 -->
<g id="node2" class="node">
<title>Node1</title>
<g id="a_node2"><a xlink:href="iterator__wrapper_8hpp.html" target="_top" xlink:title="internal/iterator_wrapper.hpp">
<polygon fill="#ffffff" stroke="#000000" points="102.5,-112.5 102.5,-131.5 242.5,-131.5 242.5,-112.5 102.5,-112.5"/>
<text text-anchor="middle" x="172.5" y="-119.5" font-family="Helvetica,sans-Serif" font-size="10.00" fill="#000000">internal/iterator_wrapper.hpp</text>
</a>
</g>
</g>
<!-- Node0&#45;&gt;Node1 -->
<g id="edge1" class="edge">
<title>Node0&#45;&gt;Node1</title>
<path fill="none" stroke="#191970" d="M267.9694,-168.3511C246.4254,-157.8913 220.8234,-145.4614 201.5577,-136.1077"/>
<polygon fill="#191970" stroke="#191970" points="202.9101,-132.8737 192.3857,-131.6546 199.8528,-139.1708 202.9101,-132.8737"/>
</g>
<!-- Node5 -->
<g id="node6" class="node">
<title>Node5</title>
<g id="a_node6"><a xlink:href="iterbase_8hpp.html" target="_top" xlink:title="iterbase.hpp">
<polygon fill="#ffffff" stroke="#000000" points="213.5,-56.5 213.5,-75.5 283.5,-75.5 283.5,-56.5 213.5,-56.5"/>
<text text-anchor="middle" x="248.5" y="-63.5" font-family="Helvetica,sans-Serif" font-size="10.00" fill="#000000">iterbase.hpp</text>
</a>
</g>
</g>
<!-- Node0&#45;&gt;Node5 -->
<g id="edge13" class="edge">
<title>Node0&#45;&gt;Node5</title>
<path fill="none" stroke="#191970" d="M300.1226,-168.4126C288.3443,-145.046 269.2971,-107.2587 257.9276,-84.7032"/>
<polygon fill="#191970" stroke="#191970" points="260.9244,-82.8725 253.2978,-75.5182 254.6736,-86.0233 260.9244,-82.8725"/>
</g>
<!-- Node7 -->
<g id="node8" class="node">
<title>Node7</title>
<polygon fill="#ffffff" stroke="#bfbfbf" points="349,-.5 349,-19.5 396,-19.5 396,-.5 349,-.5"/>
<text text-anchor="middle" x="372.5" y="-7.5" font-family="Helvetica,sans-Serif" font-size="10.00" fill="#000000">iterator</text>
</g>
<!-- Node0&#45;&gt;Node7 -->
<g id="edge14" class="edge">
<title>Node0&#45;&gt;Node7</title>
<path fill="none" stroke="#191970" d="M317.6122,-168.4664C329.6667,-133.6639 353.9487,-63.5593 365.7519,-29.4824"/>
<polygon fill="#191970" stroke="#191970" points="369.1485,-30.3696 369.1143,-19.7749 362.5341,-28.0785 369.1485,-30.3696"/>
</g>
<!-- Node11 -->
<g id="node12" class="node">
<title>Node11</title>
<polygon fill="#ffffff" stroke="#bfbfbf" points="414.5,-.5 414.5,-19.5 454.5,-19.5 454.5,-.5 414.5,-.5"/>
<text text-anchor="middle" x="434.5" y="-7.5" font-family="Helvetica,sans-Serif" font-size="10.00" fill="#000000">utility</text>
</g>
<!-- Node0&#45;&gt;Node11 -->
<g id="edge15" class="edge">
<title>Node0&#45;&gt;Node11</title>
<path fill="none" stroke="#191970" d="M324.7244,-168.4664C349.1465,-133.2119 398.663,-61.7324 421.9108,-28.1731"/>
<polygon fill="#191970" stroke="#191970" points="424.9112,-29.9882 427.7286,-19.7749 419.157,-26.0021 424.9112,-29.9882"/>
</g>
<!-- Node2 -->
<g id="node3" class="node">
<title>Node2</title>
<polygon fill="#ffffff" stroke="#bfbfbf" points="44,-56.5 44,-75.5 93,-75.5 93,-56.5 44,-56.5"/>
<text text-anchor="middle" x="68.5" y="-63.5" font-family="Helvetica,sans-Serif" font-size="10.00" fill="#000000">cassert</text>
</g>
<!-- Node1&#45;&gt;Node2 -->
<g id="edge2" class="edge">
<title>Node1&#45;&gt;Node2</title>
<path fill="none" stroke="#191970" d="M154.3846,-112.2455C138.055,-103.4527 113.829,-90.4079 95.2661,-80.4125"/>
<polygon fill="#191970" stroke="#191970" points="96.8719,-77.3021 86.4078,-75.6427 93.5532,-83.4654 96.8719,-77.3021"/>
</g>
<!-- Node3 -->
<g id="node4" class="node">
<title>Node3</title>
<polygon fill="#ffffff" stroke="#bfbfbf" points="0,-.5 0,-19.5 59,-19.5 59,-.5 0,-.5"/>
<text text-anchor="middle" x="29.5" y="-7.5" font-family="Helvetica,sans-Serif" font-size="10.00" fill="#000000">functional</text>
</g>
<!-- Node1&#45;&gt;Node3 -->
<g id="edge3" class="edge">
<title>Node1&#45;&gt;Node3</title>
<path fill="none" stroke="#191970" d="M163.3402,-112.4593C150.2611,-99.0822 125.1889,-74.3366 101.5,-56 86.7781,-44.6044 69.1856,-33.326 55.0757,-24.7889"/>
<polygon fill="#191970" stroke="#191970" points="56.7535,-21.7144 46.3716,-19.601 53.1696,-27.7274 56.7535,-21.7144"/>
</g>
<!-- Node4 -->
<g id="node5" class="node">
<title>Node4</title>
<polygon fill="#ffffff" stroke="#bfbfbf" points="149.5,-56.5 149.5,-75.5 195.5,-75.5 195.5,-56.5 149.5,-56.5"/>
<text text-anchor="middle" x="172.5" y="-63.5" font-family="Helvetica,sans-Serif" font-size="10.00" fill="#000000">variant</text>
</g>
<!-- Node1&#45;&gt;Node4 -->
<g id="edge4" class="edge">
<title>Node1&#45;&gt;Node4</title>
<path fill="none" stroke="#191970" d="M172.5,-112.2455C172.5,-104.9382 172.5,-94.6944 172.5,-85.7046"/>
<polygon fill="#191970" stroke="#191970" points="176.0001,-85.6426 172.5,-75.6427 169.0001,-85.6427 176.0001,-85.6426"/>
</g>
<!-- Node1&#45;&gt;Node5 -->
<g id="edge5" class="edge">
<title>Node1&#45;&gt;Node5</title>
<path fill="none" stroke="#191970" d="M185.7382,-112.2455C197.181,-103.814 213.9296,-91.4729 227.2475,-81.6598"/>
<polygon fill="#191970" stroke="#191970" points="229.4391,-84.3924 235.4135,-75.6427 225.2867,-78.757 229.4391,-84.3924"/>
</g>
<!-- Node5&#45;&gt;Node3 -->
<g id="edge7" class="edge">
<title>Node5&#45;&gt;Node3</title>
<path fill="none" stroke="#191970" d="M213.3171,-57.0177C179.016,-48.2585 125.11,-34.4879 69.0564,-20.141"/>
<polygon fill="#191970" stroke="#191970" points="69.8655,-16.7354 59.3098,-17.6462 68.1295,-23.5167 69.8655,-16.7354"/>
</g>
<!-- Node6 -->
<g id="node7" class="node">
<title>Node6</title>
<polygon fill="#ffffff" stroke="#bfbfbf" points="282,-.5 282,-19.5 331,-19.5 331,-.5 282,-.5"/>
<text text-anchor="middle" x="306.5" y="-7.5" font-family="Helvetica,sans-Serif" font-size="10.00" fill="#000000">cstddef</text>
</g>
<!-- Node5&#45;&gt;Node6 -->
<g id="edge6" class="edge">
<title>Node5&#45;&gt;Node6</title>
<path fill="none" stroke="#191970" d="M258.6028,-56.2455C267.0028,-48.1352 279.1494,-36.4075 289.1084,-26.7919"/>
<polygon fill="#191970" stroke="#191970" points="291.75,-29.1066 296.5129,-19.6427 286.8878,-24.0707 291.75,-29.1066"/>
</g>
<!-- Node5&#45;&gt;Node7 -->
<g id="edge8" class="edge">
<title>Node5&#45;&gt;Node7</title>
<path fill="none" stroke="#191970" d="M269.8164,-56.3733C289.7216,-47.3838 319.6436,-33.8706 342.06,-23.7471"/>
<polygon fill="#191970" stroke="#191970" points="343.7887,-26.8068 351.4618,-19.5011 340.9075,-20.4272 343.7887,-26.8068"/>
</g>
<!-- Node8 -->
<g id="node9" class="node">
<title>Node8</title>
<polygon fill="#ffffff" stroke="#bfbfbf" points="77.5,-.5 77.5,-19.5 127.5,-19.5 127.5,-.5 77.5,-.5"/>
<text text-anchor="middle" x="102.5" y="-7.5" font-family="Helvetica,sans-Serif" font-size="10.00" fill="#000000">optional</text>
</g>
<!-- Node5&#45;&gt;Node8 -->
<g id="edge9" class="edge">
<title>Node5&#45;&gt;Node8</title>
<path fill="none" stroke="#191970" d="M223.4017,-56.3733C199.5445,-47.2226 163.4665,-33.3844 136.929,-23.2057"/>
<polygon fill="#191970" stroke="#191970" points="137.861,-19.8145 127.2708,-19.5011 135.3541,-26.3503 137.861,-19.8145"/>
</g>
<!-- Node9 -->
<g id="node10" class="node">
<title>Node9</title>
<polygon fill="#ffffff" stroke="#bfbfbf" points="145.5,-.5 145.5,-19.5 183.5,-19.5 183.5,-.5 145.5,-.5"/>
<text text-anchor="middle" x="164.5" y="-7.5" font-family="Helvetica,sans-Serif" font-size="10.00" fill="#000000">tuple</text>
</g>
<!-- Node5&#45;&gt;Node9 -->
<g id="edge10" class="edge">
<title>Node5&#45;&gt;Node9</title>
<path fill="none" stroke="#191970" d="M233.8683,-56.2455C221.1006,-47.7337 202.3562,-35.2375 187.5701,-25.3801"/>
<polygon fill="#191970" stroke="#191970" points="189.226,-22.2775 178.964,-19.6427 185.3431,-28.1019 189.226,-22.2775"/>
</g>
<!-- Node10 -->
<g id="node11" class="node">
<title>Node10</title>
<polygon fill="#ffffff" stroke="#bfbfbf" points="201.5,-.5 201.5,-19.5 263.5,-19.5 263.5,-.5 201.5,-.5"/>
<text text-anchor="middle" x="232.5" y="-7.5" font-family="Helvetica,sans-Serif" font-size="10.00" fill="#000000">type_traits</text>
</g>
<!-- Node5&#45;&gt;Node10 -->
<g id="edge11" class="edge">
<title>Node5&#45;&gt;Node10</title>
<path fill="none" stroke="#191970" d="M245.713,-56.2455C243.6023,-48.8579 240.634,-38.4689 238.0453,-29.4087"/>
<polygon fill="#191970" stroke="#191970" points="241.3677,-28.2964 235.255,-19.6427 234.637,-30.2195 241.3677,-28.2964"/>
</g>
<!-- Node5&#45;&gt;Node11 -->
<g id="edge12" class="edge">
<title>Node5&#45;&gt;Node11</title>
<path fill="none" stroke="#191970" d="M282.6352,-56.4991C312.4772,-48.0824 357.1881,-35.207 404.457,-20.2383"/>
<polygon fill="#191970" stroke="#191970" points="405.7933,-23.486 414.259,-17.1155 403.6684,-16.8163 405.7933,-23.486"/>
</g>
</g>
</svg>
