<?xml version="1.0" encoding="UTF-8" standalone="no"?>
<!DOCTYPE svg PUBLIC "-//W3C//DTD SVG 1.1//EN"
 "http://www.w3.org/Graphics/SVG/1.1/DTD/svg11.dtd">
<!-- Generated by graphviz version 2.40.1 (20161225.0304)
 -->
<!-- Title: lib/include/ckpttncpp/dllist.hpp Pages: 1 -->
<svg width="196pt" height="95pt"
 viewBox="0.00 0.00 195.50 95.00" xmlns="http://www.w3.org/2000/svg" xmlns:xlink="http://www.w3.org/1999/xlink">
<g id="graph0" class="graph" transform="scale(1 1) rotate(0) translate(4 91)">
<title>lib/include/ckpttncpp/dllist.hpp</title>
<polygon fill="#ffffff" stroke="transparent" points="-4,4 -4,-91 191.5,-91 191.5,4 -4,4"/>
<!-- Node0 -->
<g id="node1" class="node">
<title>Node0</title>
<polygon fill="#bfbfbf" stroke="#000000" points="58,-56.5 58,-86.5 164,-86.5 164,-56.5 58,-56.5"/>
<text text-anchor="start" x="66" y="-74.5" font-family="Helvetica,sans-Serif" font-size="10.00" fill="#000000">lib/include/ckpttncpp</text>
<text text-anchor="middle" x="111" y="-63.5" font-family="Helvetica,sans-Serif" font-size="10.00" fill="#000000">/dllist.hpp</text>
</g>
<!-- Node1 -->
<g id="node2" class="node">
<title>Node1</title>
<polygon fill="#ffffff" stroke="#bfbfbf" points="0,-.5 0,-19.5 120,-19.5 120,-.5 0,-.5"/>
<text text-anchor="middle" x="60" y="-7.5" font-family="Helvetica,sans-Serif" font-size="10.00" fill="#000000">boost/coroutine2/all.hpp</text>
</g>
<!-- Node0&#45;&gt;Node1 -->
<g id="edge1" class="edge">
<title>Node0&#45;&gt;Node1</title>
<path fill="none" stroke="#191970" d="M98.3933,-56.2977C91.2402,-47.672 82.2503,-36.8312 74.7682,-27.8087"/>
<polygon fill="#191970" stroke="#191970" points="77.2433,-25.3103 68.1657,-19.8469 71.855,-29.7787 77.2433,-25.3103"/>
</g>
<!-- Node2 -->
<g id="node3" class="node">
<title>Node2</title>
<polygon fill="#ffffff" stroke="#bfbfbf" points="138.5,-.5 138.5,-19.5 187.5,-19.5 187.5,-.5 138.5,-.5"/>
<text text-anchor="middle" x="163" y="-7.5" font-family="Helvetica,sans-Serif" font-size="10.00" fill="#000000">cassert</text>
</g>
<!-- Node0&#45;&gt;Node2 -->
<g id="edge2" class="edge">
<title>Node0&#45;&gt;Node2</title>
<path fill="none" stroke="#191970" d="M123.8539,-56.2977C131.2224,-47.5831 140.5026,-36.6075 148.1777,-27.5302"/>
<polygon fill="#191970" stroke="#191970" points="150.8902,-29.743 154.6741,-19.8469 145.5448,-25.2233 150.8902,-29.743"/>
</g>
</g>
</svg>
