<?xml version="1.0" encoding="UTF-8" standalone="no"?>
<!DOCTYPE svg PUBLIC "-//W3C//DTD SVG 1.1//EN"
 "http://www.w3.org/Graphics/SVG/1.1/DTD/svg11.dtd">
<!-- Generated by graphviz version 2.40.1 (20161225.0304)
 -->
<!-- Title: /media/lubuntu/USBDISK/github/ckpttncpp/third_party/cppitertools/enumerate.hpp Pages: 1 -->
<svg width="614pt" height="228pt"
 viewBox="0.00 0.00 614.00 228.00" xmlns="http://www.w3.org/2000/svg" xmlns:xlink="http://www.w3.org/1999/xlink">
<g id="graph0" class="graph" transform="scale(1 1) rotate(0) translate(4 224)">
<title>/media/lubuntu/USBDISK/github/ckpttncpp/third_party/cppitertools/enumerate.hpp</title>
<polygon fill="#ffffff" stroke="transparent" points="-4,4 -4,-224 610,-224 610,4 -4,4"/>
<!-- Node13 -->
<g id="node1" class="node">
<title>Node13</title>
<polygon fill="#bfbfbf" stroke="#000000" points="234,-178.5 234,-219.5 398,-219.5 398,-178.5 234,-178.5"/>
<text text-anchor="start" x="242" y="-207.5" font-family="Helvetica,sans-Serif" font-size="10.00" fill="#000000">/media/lubuntu/USBDISK</text>
<text text-anchor="start" x="242" y="-196.5" font-family="Helvetica,sans-Serif" font-size="10.00" fill="#000000">/github/ckpttncpp/third</text>
<text text-anchor="middle" x="316" y="-185.5" font-family="Helvetica,sans-Serif" font-size="10.00" fill="#000000">_party/cppitertools/enumerate.hpp</text>
</g>
<!-- Node14 -->
<g id="node2" class="node">
<title>Node14</title>
<g id="a_node2"><a xlink:href="enumerate__examples_8cpp.html" target="_top" xlink:title="/media/lubuntu/USBDISK\l/github/ckpttncpp/third\l_party/cppitertools/examples\l/enumerate_examples.cpp">
<polygon fill="#ffffff" stroke="#000000" points="0,-89.5 0,-141.5 142,-141.5 142,-89.5 0,-89.5"/>
<text text-anchor="start" x="8" y="-129.5" font-family="Helvetica,sans-Serif" font-size="10.00" fill="#000000">/media/lubuntu/USBDISK</text>
<text text-anchor="start" x="8" y="-118.5" font-family="Helvetica,sans-Serif" font-size="10.00" fill="#000000">/github/ckpttncpp/third</text>
<text text-anchor="start" x="8" y="-107.5" font-family="Helvetica,sans-Serif" font-size="10.00" fill="#000000">_party/cppitertools/examples</text>
<text text-anchor="middle" x="71" y="-96.5" font-family="Helvetica,sans-Serif" font-size="10.00" fill="#000000">/enumerate_examples.cpp</text>
</a>
</g>
</g>
<!-- Node13&#45;&gt;Node14 -->
<g id="edge1" class="edge">
<title>Node13&#45;&gt;Node14</title>
<path fill="none" stroke="#191970" d="M245.8887,-175.1049C213.4375,-164.045 174.9428,-150.9254 142.3412,-139.8143"/>
<polygon fill="#191970" stroke="#191970" points="245.158,-178.5535 255.7525,-178.4667 247.4162,-171.9278 245.158,-178.5535"/>
</g>
<!-- Node15 -->
<g id="node3" class="node">
<title>Node15</title>
<g id="a_node3"><a xlink:href="itertools_8hpp.html" target="_top" xlink:title="/media/lubuntu/USBDISK\l/github/ckpttncpp/third\l_party/cppitertools/itertools.hpp">
<polygon fill="#ffffff" stroke="#000000" points="160.5,-95 160.5,-136 313.5,-136 313.5,-95 160.5,-95"/>
<text text-anchor="start" x="168.5" y="-124" font-family="Helvetica,sans-Serif" font-size="10.00" fill="#000000">/media/lubuntu/USBDISK</text>
<text text-anchor="start" x="168.5" y="-113" font-family="Helvetica,sans-Serif" font-size="10.00" fill="#000000">/github/ckpttncpp/third</text>
<text text-anchor="middle" x="237" y="-102" font-family="Helvetica,sans-Serif" font-size="10.00" fill="#000000">_party/cppitertools/itertools.hpp</text>
</a>
</g>
</g>
<!-- Node13&#45;&gt;Node15 -->
<g id="edge2" class="edge">
<title>Node13&#45;&gt;Node15</title>
<path fill="none" stroke="#191970" d="M289.3193,-170.7995C278.5964,-159.4658 266.4598,-146.6379 256.5772,-136.1924"/>
<polygon fill="#191970" stroke="#191970" points="287.0568,-173.5008 296.4719,-178.3595 292.1417,-168.69 287.0568,-173.5008"/>
</g>
<!-- Node18 -->
<g id="node6" class="node">
<title>Node18</title>
<g id="a_node6"><a xlink:href="test__enumerate_8cpp.html" target="_top" xlink:title="/media/lubuntu/USBDISK\l/github/ckpttncpp/third\l_party/cppitertools/test\l/test_enumerate.cpp">
<polygon fill="#ffffff" stroke="#000000" points="332,-89.5 332,-141.5 460,-141.5 460,-89.5 332,-89.5"/>
<text text-anchor="start" x="340" y="-129.5" font-family="Helvetica,sans-Serif" font-size="10.00" fill="#000000">/media/lubuntu/USBDISK</text>
<text text-anchor="start" x="340" y="-118.5" font-family="Helvetica,sans-Serif" font-size="10.00" fill="#000000">/github/ckpttncpp/third</text>
<text text-anchor="start" x="340" y="-107.5" font-family="Helvetica,sans-Serif" font-size="10.00" fill="#000000">_party/cppitertools/test</text>
<text text-anchor="middle" x="396" y="-96.5" font-family="Helvetica,sans-Serif" font-size="10.00" fill="#000000">/test_enumerate.cpp</text>
</a>
</g>
</g>
<!-- Node13&#45;&gt;Node18 -->
<g id="edge5" class="edge">
<title>Node13&#45;&gt;Node18</title>
<path fill="none" stroke="#191970" d="M342.8137,-171.0132C351.9167,-161.512 362.0455,-150.94 371.0012,-141.5925"/>
<polygon fill="#191970" stroke="#191970" points="340.1661,-168.7174 335.7753,-178.3595 345.2207,-173.5601 340.1661,-168.7174"/>
</g>
<!-- Node19 -->
<g id="node7" class="node">
<title>Node19</title>
<g id="a_node7"><a xlink:href="test__iterbase_8cpp.html" target="_top" xlink:title="/media/lubuntu/USBDISK\l/github/ckpttncpp/third\l_party/cppitertools/test\l/test_iterbase.cpp">
<polygon fill="#ffffff" stroke="#000000" points="478,-89.5 478,-141.5 606,-141.5 606,-89.5 478,-89.5"/>
<text text-anchor="start" x="486" y="-129.5" font-family="Helvetica,sans-Serif" font-size="10.00" fill="#000000">/media/lubuntu/USBDISK</text>
<text text-anchor="start" x="486" y="-118.5" font-family="Helvetica,sans-Serif" font-size="10.00" fill="#000000">/github/ckpttncpp/third</text>
<text text-anchor="start" x="486" y="-107.5" font-family="Helvetica,sans-Serif" font-size="10.00" fill="#000000">_party/cppitertools/test</text>
<text text-anchor="middle" x="542" y="-96.5" font-family="Helvetica,sans-Serif" font-size="10.00" fill="#000000">/test_iterbase.cpp</text>
</a>
</g>
</g>
<!-- Node13&#45;&gt;Node19 -->
<g id="edge6" class="edge">
<title>Node13&#45;&gt;Node19</title>
<path fill="none" stroke="#191970" d="M381.2218,-174.9026C411.5883,-163.6831 447.5971,-150.3789 477.8314,-139.2083"/>
<polygon fill="#191970" stroke="#191970" points="379.7425,-171.7178 371.5753,-178.4667 382.1685,-178.284 379.7425,-171.7178"/>
</g>
<!-- Node16 -->
<g id="node4" class="node">
<title>Node16</title>
<g id="a_node4"><a xlink:href="mixed__examples_8cpp.html" target="_top" xlink:title="/media/lubuntu/USBDISK\l/github/ckpttncpp/third\l_party/cppitertools/examples\l/mixed_examples.cpp">
<polygon fill="#ffffff" stroke="#000000" points="89,-.5 89,-52.5 231,-52.5 231,-.5 89,-.5"/>
<text text-anchor="start" x="97" y="-40.5" font-family="Helvetica,sans-Serif" font-size="10.00" fill="#000000">/media/lubuntu/USBDISK</text>
<text text-anchor="start" x="97" y="-29.5" font-family="Helvetica,sans-Serif" font-size="10.00" fill="#000000">/github/ckpttncpp/third</text>
<text text-anchor="start" x="97" y="-18.5" font-family="Helvetica,sans-Serif" font-size="10.00" fill="#000000">_party/cppitertools/examples</text>
<text text-anchor="middle" x="160" y="-7.5" font-family="Helvetica,sans-Serif" font-size="10.00" fill="#000000">/mixed_examples.cpp</text>
</a>
</g>
</g>
<!-- Node15&#45;&gt;Node16 -->
<g id="edge3" class="edge">
<title>Node15&#45;&gt;Node16</title>
<path fill="none" stroke="#191970" d="M212.4751,-87.153C202.9441,-76.1367 192.091,-63.5922 182.738,-52.7816"/>
<polygon fill="#191970" stroke="#191970" points="209.9514,-89.5854 219.1411,-94.8579 215.2451,-85.0054 209.9514,-89.5854"/>
</g>
<!-- Node17 -->
<g id="node5" class="node">
<title>Node17</title>
<g id="a_node5"><a xlink:href="test__mixed_8cpp.html" target="_top" xlink:title="/media/lubuntu/USBDISK\l/github/ckpttncpp/third\l_party/cppitertools/test\l/test_mixed.cpp">
<polygon fill="#ffffff" stroke="#000000" points="249,-.5 249,-52.5 377,-52.5 377,-.5 249,-.5"/>
<text text-anchor="start" x="257" y="-40.5" font-family="Helvetica,sans-Serif" font-size="10.00" fill="#000000">/media/lubuntu/USBDISK</text>
<text text-anchor="start" x="257" y="-29.5" font-family="Helvetica,sans-Serif" font-size="10.00" fill="#000000">/github/ckpttncpp/third</text>
<text text-anchor="start" x="257" y="-18.5" font-family="Helvetica,sans-Serif" font-size="10.00" fill="#000000">_party/cppitertools/test</text>
<text text-anchor="middle" x="313" y="-7.5" font-family="Helvetica,sans-Serif" font-size="10.00" fill="#000000">/test_mixed.cpp</text>
</a>
</g>
</g>
<!-- Node15&#45;&gt;Node17 -->
<g id="edge4" class="edge">
<title>Node15&#45;&gt;Node17</title>
<path fill="none" stroke="#191970" d="M261.2064,-87.153C270.6136,-76.1367 281.3257,-63.5922 290.5573,-52.7816"/>
<polygon fill="#191970" stroke="#191970" points="258.4592,-84.9804 254.627,-94.8579 263.7824,-89.5261 258.4592,-84.9804"/>
</g>
</g>
</svg>
