<?xml version="1.0" encoding="UTF-8" standalone="no"?>
<!DOCTYPE svg PUBLIC "-//W3C//DTD SVG 1.1//EN"
 "http://www.w3.org/Graphics/SVG/1.1/DTD/svg11.dtd">
<!-- Generated by graphviz version 2.40.1 (20161225.0304)
 -->
<!-- Title: /media/lubuntu/USBDISK/github/ckpttncpp/third_party/cppitertools/itertools.hpp Pages: 1 -->
<svg width="296pt" height="139pt"
 viewBox="0.00 0.00 296.00 139.00" xmlns="http://www.w3.org/2000/svg" xmlns:xlink="http://www.w3.org/1999/xlink">
<g id="graph0" class="graph" transform="scale(1 1) rotate(0) translate(4 135)">
<title>/media/lubuntu/USBDISK/github/ckpttncpp/third_party/cppitertools/itertools.hpp</title>
<polygon fill="#ffffff" stroke="transparent" points="-4,4 -4,-135 292,-135 292,4 -4,4"/>
<!-- Node51 -->
<g id="node1" class="node">
<title>Node51</title>
<polygon fill="#bfbfbf" stroke="#000000" points="70.5,-89.5 70.5,-130.5 223.5,-130.5 223.5,-89.5 70.5,-89.5"/>
<text text-anchor="start" x="78.5" y="-118.5" font-family="Helvetica,sans-Serif" font-size="10.00" fill="#000000">/media/lubuntu/USBDISK</text>
<text text-anchor="start" x="78.5" y="-107.5" font-family="Helvetica,sans-Serif" font-size="10.00" fill="#000000">/github/ckpttncpp/third</text>
<text text-anchor="middle" x="147" y="-96.5" font-family="Helvetica,sans-Serif" font-size="10.00" fill="#000000">_party/cppitertools/itertools.hpp</text>
</g>
<!-- Node52 -->
<g id="node2" class="node">
<title>Node52</title>
<g id="a_node2"><a xlink:href="mixed__examples_8cpp.html" target="_top" xlink:title="/media/lubuntu/USBDISK\l/github/ckpttncpp/third\l_party/cppitertools/examples\l/mixed_examples.cpp">
<polygon fill="#ffffff" stroke="#000000" points="0,-.5 0,-52.5 142,-52.5 142,-.5 0,-.5"/>
<text text-anchor="start" x="8" y="-40.5" font-family="Helvetica,sans-Serif" font-size="10.00" fill="#000000">/media/lubuntu/USBDISK</text>
<text text-anchor="start" x="8" y="-29.5" font-family="Helvetica,sans-Serif" font-size="10.00" fill="#000000">/github/ckpttncpp/third</text>
<text text-anchor="start" x="8" y="-18.5" font-family="Helvetica,sans-Serif" font-size="10.00" fill="#000000">_party/cppitertools/examples</text>
<text text-anchor="middle" x="71" y="-7.5" font-family="Helvetica,sans-Serif" font-size="10.00" fill="#000000">/mixed_examples.cpp</text>
</a>
</g>
</g>
<!-- Node51&#45;&gt;Node52 -->
<g id="edge1" class="edge">
<title>Node51&#45;&gt;Node52</title>
<path fill="none" stroke="#191970" d="M121.2698,-81.7307C112.6887,-72.3027 103.1725,-61.8474 94.7489,-52.5925"/>
<polygon fill="#191970" stroke="#191970" points="118.8939,-84.32 128.2135,-89.3595 124.0707,-79.6082 118.8939,-84.32"/>
</g>
<!-- Node53 -->
<g id="node3" class="node">
<title>Node53</title>
<g id="a_node3"><a xlink:href="test__mixed_8cpp.html" target="_top" xlink:title="/media/lubuntu/USBDISK\l/github/ckpttncpp/third\l_party/cppitertools/test\l/test_mixed.cpp">
<polygon fill="#ffffff" stroke="#000000" points="160,-.5 160,-52.5 288,-52.5 288,-.5 160,-.5"/>
<text text-anchor="start" x="168" y="-40.5" font-family="Helvetica,sans-Serif" font-size="10.00" fill="#000000">/media/lubuntu/USBDISK</text>
<text text-anchor="start" x="168" y="-29.5" font-family="Helvetica,sans-Serif" font-size="10.00" fill="#000000">/github/ckpttncpp/third</text>
<text text-anchor="start" x="168" y="-18.5" font-family="Helvetica,sans-Serif" font-size="10.00" fill="#000000">_party/cppitertools/test</text>
<text text-anchor="middle" x="224" y="-7.5" font-family="Helvetica,sans-Serif" font-size="10.00" fill="#000000">/test_mixed.cpp</text>
</a>
</g>
</g>
<!-- Node51&#45;&gt;Node53 -->
<g id="edge2" class="edge">
<title>Node51&#45;&gt;Node53</title>
<path fill="none" stroke="#191970" d="M173.0687,-81.7307C181.7627,-72.3027 191.4042,-61.8474 199.9386,-52.5925"/>
<polygon fill="#191970" stroke="#191970" points="170.2399,-79.6354 166.0337,-89.3595 175.3859,-84.3808 170.2399,-79.6354"/>
</g>
</g>
</svg>
