<?xml version="1.0" encoding="UTF-8" standalone="no"?>
<!DOCTYPE svg PUBLIC "-//W3C//DTD SVG 1.1//EN"
 "http://www.w3.org/Graphics/SVG/1.1/DTD/svg11.dtd">
<!-- Generated by graphviz version 2.40.1 (20161225.0304)
 -->
<!-- Title: iter::impl::zip_longest_impl Pages: 1 -->
<svg width="434pt" height="85pt"
 viewBox="0.00 0.00 434.00 85.00" xmlns="http://www.w3.org/2000/svg" xmlns:xlink="http://www.w3.org/1999/xlink">
<g id="graph0" class="graph" transform="scale(1 1) rotate(0) translate(4 81)">
<title>iter::impl::zip_longest_impl</title>
<polygon fill="#ffffff" stroke="transparent" points="-4,4 -4,-81 430,-81 430,4 -4,4"/>
<!-- Node87 -->
<g id="node1" class="node">
<title>Node87</title>
<polygon fill="#bfbfbf" stroke="#000000" points="0,-38.5 0,-57.5 133,-57.5 133,-38.5 0,-38.5"/>
<text text-anchor="middle" x="66.5" y="-45.5" font-family="Helvetica,sans-Serif" font-size="10.00" fill="#000000">iter::impl::zip_longest_impl</text>
</g>
<!-- Node88 -->
<g id="node2" class="node">
<title>Node88</title>
<g id="a_node2"><a xlink:href="classiter_1_1impl_1_1ZippedLongest.html#a2fb72948cfe01334a66b534def415bf5" target="_top" xlink:title="iter::impl::ZippedLongest::end">
<polygon fill="#ffffff" stroke="#000000" points="169,-57.5 169,-76.5 315,-76.5 315,-57.5 169,-57.5"/>
<text text-anchor="middle" x="242" y="-64.5" font-family="Helvetica,sans-Serif" font-size="10.00" fill="#000000">iter::impl::ZippedLongest::end</text>
</a>
</g>
</g>
<!-- Node87&#45;&gt;Node88 -->
<g id="edge1" class="edge">
<title>Node87&#45;&gt;Node88</title>
<path fill="none" stroke="#191970" d="M143.1062,-56.2935C151.7046,-57.2244 160.4481,-58.171 168.9992,-59.0968"/>
<polygon fill="#191970" stroke="#191970" points="143.4179,-52.8069 133.0993,-55.2102 142.6644,-59.7663 143.4179,-52.8069"/>
</g>
<!-- Node89 -->
<g id="node3" class="node">
<title>Node89</title>
<g id="a_node3"><a xlink:href="namespaceiter.html#a0934e5348a3d17ca80bf4bc9d9a2b76b" target="_top" xlink:title="iter::zip_longest">
<polygon fill="#ffffff" stroke="#000000" points="199,-19.5 199,-38.5 285,-38.5 285,-19.5 199,-19.5"/>
<text text-anchor="middle" x="242" y="-26.5" font-family="Helvetica,sans-Serif" font-size="10.00" fill="#000000">iter::zip_longest</text>
</a>
</g>
</g>
<!-- Node87&#45;&gt;Node89 -->
<g id="edge2" class="edge">
<title>Node87&#45;&gt;Node89</title>
<path fill="none" stroke="#191970" d="M143.2696,-39.6888C162.2975,-37.6288 182.0253,-35.493 198.7978,-33.6772"/>
<polygon fill="#191970" stroke="#191970" points="142.6644,-36.2337 133.0993,-40.7898 143.4179,-43.1931 142.6644,-36.2337"/>
</g>
<!-- Node90 -->
<g id="node4" class="node">
<title>Node90</title>
<g id="a_node4"><a xlink:href="mixed__examples_8cpp.html#ae66f6b31b5ad750f1fe042a706a4e3d4" target="_top" xlink:title="main">
<polygon fill="#ffffff" stroke="#000000" points="369.5,-38.5 369.5,-57.5 407.5,-57.5 407.5,-38.5 369.5,-38.5"/>
<text text-anchor="middle" x="388.5" y="-45.5" font-family="Helvetica,sans-Serif" font-size="10.00" fill="#000000">main</text>
</a>
</g>
</g>
<!-- Node89&#45;&gt;Node90 -->
<g id="edge3" class="edge">
<title>Node89&#45;&gt;Node90</title>
<path fill="none" stroke="#191970" d="M295.2106,-35.901C321.0028,-39.2461 350.3858,-43.0569 369.1687,-45.4929"/>
<polygon fill="#191970" stroke="#191970" points="295.5296,-32.4132 285.1625,-34.5979 294.6292,-39.355 295.5296,-32.4132"/>
</g>
<!-- Node91 -->
<g id="node5" class="node">
<title>Node91</title>
<g id="a_node5"><a xlink:href="test__zip__longest_8cpp.html#a2c76522535bdfa8b831052429c7e868e" target="_top" xlink:title="TEST_CASE">
<polygon fill="#ffffff" stroke="#000000" points="351,-.5 351,-19.5 426,-19.5 426,-.5 351,-.5"/>
<text text-anchor="middle" x="388.5" y="-7.5" font-family="Helvetica,sans-Serif" font-size="10.00" fill="#000000">TEST_CASE</text>
</a>
</g>
</g>
<!-- Node89&#45;&gt;Node91 -->
<g id="edge4" class="edge">
<title>Node89&#45;&gt;Node91</title>
<path fill="none" stroke="#191970" d="M295.1484,-22.107C313.5204,-19.7243 333.721,-17.1044 350.6178,-14.913"/>
<polygon fill="#191970" stroke="#191970" points="294.6292,-18.645 285.1625,-23.4021 295.5296,-25.5868 294.6292,-18.645"/>
</g>
</g>
</svg>
