<?xml version="1.0" encoding="UTF-8" standalone="no"?>
<!DOCTYPE svg PUBLIC "-//W3C//DTD SVG 1.1//EN"
 "http://www.w3.org/Graphics/SVG/1.1/DTD/svg11.dtd">
<!-- Generated by graphviz version 2.40.1 (20161225.0304)
 -->
<!-- Title: iter::impl::dumb_size Pages: 1 -->
<svg width="517pt" height="88pt"
 viewBox="0.00 0.00 517.00 88.00" xmlns="http://www.w3.org/2000/svg" xmlns:xlink="http://www.w3.org/1999/xlink">
<g id="graph0" class="graph" transform="scale(1 1) rotate(0) translate(4 84)">
<title>iter::impl::dumb_size</title>
<polygon fill="#ffffff" stroke="transparent" points="-4,4 -4,-84 513,-84 513,4 -4,4"/>
<!-- Node51 -->
<g id="node1" class="node">
<title>Node51</title>
<polygon fill="#bfbfbf" stroke="#000000" points="0,-33 0,-52 107,-52 107,-33 0,-33"/>
<text text-anchor="middle" x="53.5" y="-40" font-family="Helvetica,sans-Serif" font-size="10.00" fill="#000000">iter::impl::dumb_size</text>
</g>
<!-- Node52 -->
<g id="node2" class="node">
<title>Node52</title>
<g id="a_node2"><a xlink:href="namespaceiter_1_1impl_1_1get__iters.html#ad5958ccc2e23ff7927ae127847a39dbc" target="_top" xlink:title="iter::impl::get_iters\l::get_begin">
<polygon fill="#ffffff" stroke="#000000" points="277,-49.5 277,-79.5 375,-79.5 375,-49.5 277,-49.5"/>
<text text-anchor="start" x="285" y="-67.5" font-family="Helvetica,sans-Serif" font-size="10.00" fill="#000000">iter::impl::get_iters</text>
<text text-anchor="middle" x="326" y="-56.5" font-family="Helvetica,sans-Serif" font-size="10.00" fill="#000000">::get_begin</text>
</a>
</g>
</g>
<!-- Node51&#45;&gt;Node52 -->
<g id="edge1" class="edge">
<title>Node51&#45;&gt;Node52</title>
<path fill="none" stroke="#191970" d="M107.0121,-46.8202C152.9322,-50.5276 219.0318,-55.864 266.5826,-59.703"/>
<polygon fill="#191970" stroke="#191970" points="266.4857,-63.2065 276.7349,-60.5226 267.049,-56.2292 266.4857,-63.2065"/>
</g>
<!-- Node54 -->
<g id="node4" class="node">
<title>Node54</title>
<g id="a_node4"><a xlink:href="namespaceiter_1_1impl_1_1get__iters.html#a33bba16eb5615048756ebb04c94629bd" target="_top" xlink:title="iter::impl::get_iters\l::get_end">
<polygon fill="#ffffff" stroke="#000000" points="143,-5.5 143,-35.5 241,-35.5 241,-5.5 143,-5.5"/>
<text text-anchor="start" x="151" y="-23.5" font-family="Helvetica,sans-Serif" font-size="10.00" fill="#000000">iter::impl::get_iters</text>
<text text-anchor="middle" x="192" y="-12.5" font-family="Helvetica,sans-Serif" font-size="10.00" fill="#000000">::get_end</text>
</a>
</g>
</g>
<!-- Node51&#45;&gt;Node54 -->
<g id="edge3" class="edge">
<title>Node51&#45;&gt;Node54</title>
<path fill="none" stroke="#191970" d="M107.0477,-33.9942C115.4733,-32.6559 124.2263,-31.2655 132.7714,-29.9082"/>
<polygon fill="#191970" stroke="#191970" points="133.3478,-33.3606 142.6749,-28.335 132.2496,-26.4472 133.3478,-33.3606"/>
</g>
<!-- Node53 -->
<g id="node3" class="node">
<title>Node53</title>
<g id="a_node3"><a xlink:href="namespaceiter_1_1impl_1_1get__iters.html#aa42232a4051a50a8ffd16207aa031ff5" target="_top" xlink:title="iter::impl::get_iters\l::get_begin_impl">
<polygon fill="#ffffff" stroke="#000000" points="411,-49.5 411,-79.5 509,-79.5 509,-49.5 411,-49.5"/>
<text text-anchor="start" x="419" y="-67.5" font-family="Helvetica,sans-Serif" font-size="10.00" fill="#000000">iter::impl::get_iters</text>
<text text-anchor="middle" x="460" y="-56.5" font-family="Helvetica,sans-Serif" font-size="10.00" fill="#000000">::get_begin_impl</text>
</a>
</g>
</g>
<!-- Node52&#45;&gt;Node53 -->
<g id="edge2" class="edge">
<title>Node52&#45;&gt;Node53</title>
<path fill="none" stroke="#191970" d="M375.1358,-64.5C383.4198,-64.5 392.097,-64.5 400.6082,-64.5"/>
<polygon fill="#191970" stroke="#191970" points="400.8702,-68.0001 410.8702,-64.5 400.8701,-61.0001 400.8702,-68.0001"/>
</g>
<!-- Node54&#45;&gt;Node52 -->
<g id="edge5" class="edge">
<title>Node54&#45;&gt;Node52</title>
<path fill="none" stroke="#191970" d="M237.7404,-35.5192C248.1891,-38.9501 259.4073,-42.6337 270.2238,-46.1854"/>
<polygon fill="#191970" stroke="#191970" points="269.4179,-49.6046 280.0108,-49.3991 271.6018,-42.954 269.4179,-49.6046"/>
</g>
<!-- Node55 -->
<g id="node5" class="node">
<title>Node55</title>
<g id="a_node5"><a xlink:href="namespaceiter_1_1impl_1_1get__iters.html#a4195fc28d6c53e02d7cb825ce26d75d5" target="_top" xlink:title="iter::impl::get_iters\l::get_end_impl">
<polygon fill="#ffffff" stroke="#000000" points="277,-.5 277,-30.5 375,-30.5 375,-.5 277,-.5"/>
<text text-anchor="start" x="285" y="-18.5" font-family="Helvetica,sans-Serif" font-size="10.00" fill="#000000">iter::impl::get_iters</text>
<text text-anchor="middle" x="326" y="-7.5" font-family="Helvetica,sans-Serif" font-size="10.00" fill="#000000">::get_end_impl</text>
</a>
</g>
</g>
<!-- Node54&#45;&gt;Node55 -->
<g id="edge4" class="edge">
<title>Node54&#45;&gt;Node55</title>
<path fill="none" stroke="#191970" d="M241.1358,-18.6666C249.4198,-18.3575 258.097,-18.0337 266.6082,-17.7161"/>
<polygon fill="#191970" stroke="#191970" points="267.0077,-21.2037 276.8702,-17.3332 266.7466,-14.2086 267.0077,-21.2037"/>
</g>
</g>
</svg>
