<?xml version="1.0" encoding="UTF-8" standalone="no"?>
<!DOCTYPE svg PUBLIC "-//W3C//DTD SVG 1.1//EN"
 "http://www.w3.org/Graphics/SVG/1.1/DTD/svg11.dtd">
<!-- Generated by graphviz version 2.40.1 (20161225.0304)
 -->
<!-- Title: main Pages: 1 -->
<svg width="336pt" height="66pt"
 viewBox="0.00 0.00 336.00 66.00" xmlns="http://www.w3.org/2000/svg" xmlns:xlink="http://www.w3.org/1999/xlink">
<g id="graph0" class="graph" transform="scale(1 1) rotate(0) translate(4 62)">
<title>main</title>
<polygon fill="#ffffff" stroke="transparent" points="-4,4 -4,-62 332,-62 332,4 -4,4"/>
<!-- Node0 -->
<g id="node1" class="node">
<title>Node0</title>
<polygon fill="#bfbfbf" stroke="#000000" points="0,-19.5 0,-38.5 38,-38.5 38,-19.5 0,-19.5"/>
<text text-anchor="middle" x="19" y="-26.5" font-family="Helvetica,sans-Serif" font-size="10.00" fill="#000000">main</text>
</g>
<!-- Node1 -->
<g id="node2" class="node">
<title>Node1</title>
<g id="a_node2"><a xlink:href="namespaceiter.html#a2fc0d8e0478df685e9eeba97cb2c96da" target="_top" xlink:title="iter::range">
<polygon fill="#ffffff" stroke="#000000" points="74,-19.5 74,-38.5 134,-38.5 134,-19.5 74,-19.5"/>
<text text-anchor="middle" x="104" y="-26.5" font-family="Helvetica,sans-Serif" font-size="10.00" fill="#000000">iter::range</text>
</a>
</g>
</g>
<!-- Node0&#45;&gt;Node1 -->
<g id="edge1" class="edge">
<title>Node0&#45;&gt;Node1</title>
<path fill="none" stroke="#191970" d="M38.2878,-29C45.8218,-29 54.7596,-29 63.5778,-29"/>
<polygon fill="#191970" stroke="#191970" points="63.7835,-32.5001 73.7835,-29 63.7835,-25.5001 63.7835,-32.5001"/>
</g>
<!-- Node2 -->
<g id="node3" class="node">
<title>Node2</title>
<g id="a_node3"><a xlink:href="namespacepy.html#a6c0a41716a24bed07cbf8b2d84132f96" target="_top" xlink:title="py::range">
<polygon fill="#ffffff" stroke="#000000" points="170,-19.5 170,-38.5 227,-38.5 227,-19.5 170,-19.5"/>
<text text-anchor="middle" x="198.5" y="-26.5" font-family="Helvetica,sans-Serif" font-size="10.00" fill="#000000">py::range</text>
</a>
</g>
</g>
<!-- Node1&#45;&gt;Node2 -->
<g id="edge2" class="edge">
<title>Node1&#45;&gt;Node2</title>
<path fill="none" stroke="#191970" d="M134.1602,-29C142.3014,-29 151.2249,-29 159.7646,-29"/>
<polygon fill="#191970" stroke="#191970" points="159.9125,-32.5001 169.9125,-29 159.9125,-25.5001 159.9125,-32.5001"/>
</g>
<!-- Node3 -->
<g id="node4" class="node">
<title>Node3</title>
<g id="a_node4"><a xlink:href="namespaceNS1.html#af1987d9af5bebeef203a21bd4548d0bf" target="_top" xlink:title="NS1::begin">
<polygon fill="#ffffff" stroke="#000000" points="263,-38.5 263,-57.5 328,-57.5 328,-38.5 263,-38.5"/>
<text text-anchor="middle" x="295.5" y="-45.5" font-family="Helvetica,sans-Serif" font-size="10.00" fill="#000000">NS1::begin</text>
</a>
</g>
</g>
<!-- Node2&#45;&gt;Node3 -->
<g id="edge3" class="edge">
<title>Node2&#45;&gt;Node3</title>
<path fill="none" stroke="#191970" d="M227.0786,-34.5979C235.1119,-36.1714 244.0278,-37.9178 252.6974,-39.616"/>
<polygon fill="#191970" stroke="#191970" points="252.2077,-43.0865 262.694,-41.5741 253.5533,-36.217 252.2077,-43.0865"/>
</g>
<!-- Node4 -->
<g id="node5" class="node">
<title>Node4</title>
<g id="a_node5"><a xlink:href="namespaceNS1.html#adffa3fd87b6626df9eda704de5f7fceb" target="_top" xlink:title="NS1::end">
<polygon fill="#ffffff" stroke="#000000" points="266.5,-.5 266.5,-19.5 324.5,-19.5 324.5,-.5 266.5,-.5"/>
<text text-anchor="middle" x="295.5" y="-7.5" font-family="Helvetica,sans-Serif" font-size="10.00" fill="#000000">NS1::end</text>
</a>
</g>
</g>
<!-- Node2&#45;&gt;Node4 -->
<g id="edge4" class="edge">
<title>Node2&#45;&gt;Node4</title>
<path fill="none" stroke="#191970" d="M227.0786,-23.4021C236.2863,-21.5986 246.6536,-19.5679 256.4805,-17.643"/>
<polygon fill="#191970" stroke="#191970" points="257.3136,-21.0464 266.4543,-15.6894 255.968,-14.1769 257.3136,-21.0464"/>
</g>
</g>
</svg>
