<?xml version="1.0" encoding="UTF-8" standalone="no"?>
<!DOCTYPE svg PUBLIC "-//W3C//DTD SVG 1.1//EN"
 "http://www.w3.org/Graphics/SVG/1.1/DTD/svg11.dtd">
<!-- Generated by graphviz version 2.40.1 (20161225.0304)
 -->
<!-- Title: /media/lubuntu/USBDISK/github/ckpttncpp/third_party/cppitertools/examples/slice_examples.cpp Pages: 1 -->
<svg width="463pt" height="285pt"
 viewBox="0.00 0.00 462.50 285.00" xmlns="http://www.w3.org/2000/svg" xmlns:xlink="http://www.w3.org/1999/xlink">
<g id="graph0" class="graph" transform="scale(1 1) rotate(0) translate(4 281)">
<title>/media/lubuntu/USBDISK/github/ckpttncpp/third_party/cppitertools/examples/slice_examples.cpp</title>
<polygon fill="#ffffff" stroke="transparent" points="-4,4 -4,-281 458.5,-281 458.5,4 -4,4"/>
<!-- Node0 -->
<g id="node1" class="node">
<title>Node0</title>
<polygon fill="#bfbfbf" stroke="#000000" points="156.5,-224.5 156.5,-276.5 298.5,-276.5 298.5,-224.5 156.5,-224.5"/>
<text text-anchor="start" x="164.5" y="-264.5" font-family="Helvetica,sans-Serif" font-size="10.00" fill="#000000">/media/lubuntu/USBDISK</text>
<text text-anchor="start" x="164.5" y="-253.5" font-family="Helvetica,sans-Serif" font-size="10.00" fill="#000000">/github/ckpttncpp/third</text>
<text text-anchor="start" x="164.5" y="-242.5" font-family="Helvetica,sans-Serif" font-size="10.00" fill="#000000">_party/cppitertools/examples</text>
<text text-anchor="middle" x="227.5" y="-231.5" font-family="Helvetica,sans-Serif" font-size="10.00" fill="#000000">/slice_examples.cpp</text>
</g>
<!-- Node1 -->
<g id="node2" class="node">
<title>Node1</title>
<polygon fill="#ffffff" stroke="#bfbfbf" points="89.5,-168.5 89.5,-187.5 143.5,-187.5 143.5,-168.5 89.5,-168.5"/>
<text text-anchor="middle" x="116.5" y="-175.5" font-family="Helvetica,sans-Serif" font-size="10.00" fill="#000000">iostream</text>
</g>
<!-- Node0&#45;&gt;Node1 -->
<g id="edge1" class="edge">
<title>Node0&#45;&gt;Node1</title>
<path fill="none" stroke="#191970" d="M187.4265,-224.3258C171.3293,-213.8119 153.3514,-202.0696 139.5232,-193.0377"/>
<polygon fill="#191970" stroke="#191970" points="141.3832,-190.0721 131.0969,-187.534 137.5553,-195.9328 141.3832,-190.0721"/>
</g>
<!-- Node2 -->
<g id="node3" class="node">
<title>Node2</title>
<g id="a_node3"><a xlink:href="slice_8hpp.html" target="_top" xlink:title="slice.hpp">
<polygon fill="#ffffff" stroke="#000000" points="199.5,-168.5 199.5,-187.5 255.5,-187.5 255.5,-168.5 199.5,-168.5"/>
<text text-anchor="middle" x="227.5" y="-175.5" font-family="Helvetica,sans-Serif" font-size="10.00" fill="#000000">slice.hpp</text>
</a>
</g>
</g>
<!-- Node0&#45;&gt;Node2 -->
<g id="edge2" class="edge">
<title>Node0&#45;&gt;Node2</title>
<path fill="none" stroke="#191970" d="M227.5,-224.3258C227.5,-215.5142 227.5,-205.8397 227.5,-197.621"/>
<polygon fill="#191970" stroke="#191970" points="231.0001,-197.534 227.5,-187.534 224.0001,-197.534 231.0001,-197.534"/>
</g>
<!-- Node14 -->
<g id="node15" class="node">
<title>Node14</title>
<g id="a_node15"><a xlink:href="range_8hpp.html" target="_top" xlink:title="range.hpp">
<polygon fill="#ffffff" stroke="#000000" points="140,-112.5 140,-131.5 199,-131.5 199,-112.5 140,-112.5"/>
<text text-anchor="middle" x="169.5" y="-119.5" font-family="Helvetica,sans-Serif" font-size="10.00" fill="#000000">range.hpp</text>
</a>
</g>
</g>
<!-- Node0&#45;&gt;Node14 -->
<g id="edge18" class="edge">
<title>Node0&#45;&gt;Node14</title>
<path fill="none" stroke="#191970" d="M210.2833,-224.4463C203.5243,-213.493 196.069,-200.4276 190.5,-188 183.7389,-172.9121 178.1825,-154.9918 174.4871,-141.6344"/>
<polygon fill="#191970" stroke="#191970" points="177.785,-140.4161 171.8352,-131.6497 171.0196,-142.213 177.785,-140.4161"/>
</g>
<!-- Node16 -->
<g id="node17" class="node">
<title>Node16</title>
<polygon fill="#ffffff" stroke="#bfbfbf" points="273.5,-168.5 273.5,-187.5 317.5,-187.5 317.5,-168.5 273.5,-168.5"/>
<text text-anchor="middle" x="295.5" y="-175.5" font-family="Helvetica,sans-Serif" font-size="10.00" fill="#000000">vector</text>
</g>
<!-- Node0&#45;&gt;Node16 -->
<g id="edge24" class="edge">
<title>Node0&#45;&gt;Node16</title>
<path fill="none" stroke="#191970" d="M252.0496,-224.3258C261.2535,-214.5128 271.4611,-203.6298 279.6686,-194.879"/>
<polygon fill="#191970" stroke="#191970" points="282.2695,-197.2222 286.5578,-187.534 277.1638,-192.4334 282.2695,-197.2222"/>
</g>
<!-- Node17 -->
<g id="node18" class="node">
<title>Node17</title>
<polygon fill="#ffffff" stroke="#bfbfbf" points="335.5,-168.5 335.5,-187.5 373.5,-187.5 373.5,-168.5 335.5,-168.5"/>
<text text-anchor="middle" x="354.5" y="-175.5" font-family="Helvetica,sans-Serif" font-size="10.00" fill="#000000">array</text>
</g>
<!-- Node0&#45;&gt;Node17 -->
<g id="edge25" class="edge">
<title>Node0&#45;&gt;Node17</title>
<path fill="none" stroke="#191970" d="M273.3499,-224.3258C292.1182,-213.6116 313.1211,-201.6218 329.057,-192.5246"/>
<polygon fill="#191970" stroke="#191970" points="330.8497,-195.5314 337.7991,-187.534 327.3793,-189.4522 330.8497,-195.5314"/>
</g>
<!-- Node3 -->
<g id="node4" class="node">
<title>Node3</title>
<g id="a_node4"><a xlink:href="iterator__wrapper_8hpp.html" target="_top" xlink:title="internal/iterator_wrapper.hpp">
<polygon fill="#ffffff" stroke="#000000" points="255.5,-112.5 255.5,-131.5 395.5,-131.5 395.5,-112.5 255.5,-112.5"/>
<text text-anchor="middle" x="325.5" y="-119.5" font-family="Helvetica,sans-Serif" font-size="10.00" fill="#000000">internal/iterator_wrapper.hpp</text>
</a>
</g>
</g>
<!-- Node2&#45;&gt;Node3 -->
<g id="edge3" class="edge">
<title>Node2&#45;&gt;Node3</title>
<path fill="none" stroke="#191970" d="M244.5703,-168.2455C259.747,-159.5731 282.1621,-146.7645 299.5563,-136.825"/>
<polygon fill="#191970" stroke="#191970" points="301.6794,-139.643 308.6253,-131.6427 298.2064,-133.5653 301.6794,-139.643"/>
</g>
<!-- Node7 -->
<g id="node8" class="node">
<title>Node7</title>
<g id="a_node8"><a xlink:href="iterbase_8hpp.html" target="_top" xlink:title="iterbase.hpp">
<polygon fill="#ffffff" stroke="#000000" points="154.5,-56.5 154.5,-75.5 224.5,-75.5 224.5,-56.5 154.5,-56.5"/>
<text text-anchor="middle" x="189.5" y="-63.5" font-family="Helvetica,sans-Serif" font-size="10.00" fill="#000000">iterbase.hpp</text>
</a>
</g>
</g>
<!-- Node2&#45;&gt;Node7 -->
<g id="edge15" class="edge">
<title>Node2&#45;&gt;Node7</title>
<path fill="none" stroke="#191970" d="M224.7583,-168.082C221.1098,-155.1006 214.3219,-131.6842 207.5,-112 204.4198,-103.1121 200.6746,-93.3957 197.3997,-85.1924"/>
<polygon fill="#191970" stroke="#191970" points="200.588,-83.7407 193.5886,-75.7871 194.1004,-86.3696 200.588,-83.7407"/>
</g>
<!-- Node9 -->
<g id="node10" class="node">
<title>Node9</title>
<polygon fill="#ffffff" stroke="#bfbfbf" points="0,-.5 0,-19.5 47,-19.5 47,-.5 0,-.5"/>
<text text-anchor="middle" x="23.5" y="-7.5" font-family="Helvetica,sans-Serif" font-size="10.00" fill="#000000">iterator</text>
</g>
<!-- Node2&#45;&gt;Node9 -->
<g id="edge16" class="edge">
<title>Node2&#45;&gt;Node9</title>
<path fill="none" stroke="#191970" d="M199.2711,-172.6442C154.5679,-162.5108 68.5597,-135.9312 29.5,-76 20.6764,-62.4616 19.7288,-43.912 20.6709,-29.9251"/>
<polygon fill="#191970" stroke="#191970" points="24.1635,-30.1776 21.7173,-19.8691 17.2011,-29.4531 24.1635,-30.1776"/>
</g>
<!-- Node12 -->
<g id="node13" class="node">
<title>Node12</title>
<polygon fill="#ffffff" stroke="#bfbfbf" points="392.5,-.5 392.5,-19.5 454.5,-19.5 454.5,-.5 392.5,-.5"/>
<text text-anchor="middle" x="423.5" y="-7.5" font-family="Helvetica,sans-Serif" font-size="10.00" fill="#000000">type_traits</text>
</g>
<!-- Node2&#45;&gt;Node12 -->
<g id="edge17" class="edge">
<title>Node2&#45;&gt;Node12</title>
<path fill="none" stroke="#191970" d="M255.7722,-170.3206C258.7181,-169.5318 261.669,-168.7465 264.5,-168 326.6229,-151.6185 352.1854,-169.2932 404.5,-132 428.7906,-114.6841 432.9145,-104.5686 441.5,-76 446.2396,-60.2288 440.5645,-42.1801 434.3661,-28.9477"/>
<polygon fill="#191970" stroke="#191970" points="437.3851,-27.1655 429.688,-19.885 431.1649,-30.3764 437.3851,-27.1655"/>
</g>
<!-- Node4 -->
<g id="node5" class="node">
<title>Node4</title>
<polygon fill="#ffffff" stroke="#bfbfbf" points="281,-56.5 281,-75.5 330,-75.5 330,-56.5 281,-56.5"/>
<text text-anchor="middle" x="305.5" y="-63.5" font-family="Helvetica,sans-Serif" font-size="10.00" fill="#000000">cassert</text>
</g>
<!-- Node3&#45;&gt;Node4 -->
<g id="edge4" class="edge">
<title>Node3&#45;&gt;Node4</title>
<path fill="none" stroke="#191970" d="M322.0163,-112.2455C319.3492,-104.7776 315.5867,-94.2427 312.3263,-85.1137"/>
<polygon fill="#191970" stroke="#191970" points="315.6033,-83.8829 308.9438,-75.6427 309.0111,-86.2373 315.6033,-83.8829"/>
</g>
<!-- Node5 -->
<g id="node6" class="node">
<title>Node5</title>
<polygon fill="#ffffff" stroke="#bfbfbf" points="315,-.5 315,-19.5 374,-19.5 374,-.5 315,-.5"/>
<text text-anchor="middle" x="344.5" y="-7.5" font-family="Helvetica,sans-Serif" font-size="10.00" fill="#000000">functional</text>
</g>
<!-- Node3&#45;&gt;Node5 -->
<g id="edge5" class="edge">
<title>Node3&#45;&gt;Node5</title>
<path fill="none" stroke="#191970" d="M329.1401,-112.2854C332.4246,-103.0808 337.0978,-88.7991 339.5,-76 342.3527,-60.8008 343.5878,-43.3424 344.1178,-30.2005"/>
<polygon fill="#191970" stroke="#191970" points="347.6244,-30.0282 344.4249,-19.928 340.6275,-29.8189 347.6244,-30.0282"/>
</g>
<!-- Node6 -->
<g id="node7" class="node">
<title>Node6</title>
<polygon fill="#ffffff" stroke="#bfbfbf" points="386.5,-56.5 386.5,-75.5 432.5,-75.5 432.5,-56.5 386.5,-56.5"/>
<text text-anchor="middle" x="409.5" y="-63.5" font-family="Helvetica,sans-Serif" font-size="10.00" fill="#000000">variant</text>
</g>
<!-- Node3&#45;&gt;Node6 -->
<g id="edge6" class="edge">
<title>Node3&#45;&gt;Node6</title>
<path fill="none" stroke="#191970" d="M340.1317,-112.2455C352.8994,-103.7337 371.6438,-91.2375 386.4299,-81.3801"/>
<polygon fill="#191970" stroke="#191970" points="388.6569,-84.1019 395.036,-75.6427 384.774,-78.2775 388.6569,-84.1019"/>
</g>
<!-- Node3&#45;&gt;Node7 -->
<g id="edge7" class="edge">
<title>Node3&#45;&gt;Node7</title>
<path fill="none" stroke="#191970" d="M302.1208,-112.3733C279.9955,-103.2629 246.5866,-89.5062 221.8981,-79.3404"/>
<polygon fill="#191970" stroke="#191970" points="223.1536,-76.0723 212.5742,-75.5011 220.4883,-82.5451 223.1536,-76.0723"/>
</g>
<!-- Node7&#45;&gt;Node5 -->
<g id="edge9" class="edge">
<title>Node7&#45;&gt;Node5</title>
<path fill="none" stroke="#191970" d="M216.1454,-56.3733C241.6964,-47.1419 280.4512,-33.1402 308.6909,-22.9375"/>
<polygon fill="#191970" stroke="#191970" points="309.9865,-26.1909 318.2022,-19.5011 307.6079,-19.6074 309.9865,-26.1909"/>
</g>
<!-- Node8 -->
<g id="node9" class="node">
<title>Node8</title>
<polygon fill="#ffffff" stroke="#bfbfbf" points="65,-.5 65,-19.5 114,-19.5 114,-.5 65,-.5"/>
<text text-anchor="middle" x="89.5" y="-7.5" font-family="Helvetica,sans-Serif" font-size="10.00" fill="#000000">cstddef</text>
</g>
<!-- Node7&#45;&gt;Node8 -->
<g id="edge8" class="edge">
<title>Node7&#45;&gt;Node8</title>
<path fill="none" stroke="#191970" d="M172.0813,-56.2455C156.4515,-47.4928 133.2981,-34.527 115.4815,-24.5496"/>
<polygon fill="#191970" stroke="#191970" points="117.1543,-21.475 106.7191,-19.6427 113.734,-27.5825 117.1543,-21.475"/>
</g>
<!-- Node7&#45;&gt;Node9 -->
<g id="edge10" class="edge">
<title>Node7&#45;&gt;Node9</title>
<path fill="none" stroke="#191970" d="M160.9636,-56.3733C132.064,-46.624 87.3922,-31.554 56.8705,-21.2575"/>
<polygon fill="#191970" stroke="#191970" points="57.6996,-17.8435 47.1054,-17.9633 55.462,-24.4762 57.6996,-17.8435"/>
</g>
<!-- Node10 -->
<g id="node11" class="node">
<title>Node10</title>
<polygon fill="#ffffff" stroke="#bfbfbf" points="132.5,-.5 132.5,-19.5 182.5,-19.5 182.5,-.5 132.5,-.5"/>
<text text-anchor="middle" x="157.5" y="-7.5" font-family="Helvetica,sans-Serif" font-size="10.00" fill="#000000">optional</text>
</g>
<!-- Node7&#45;&gt;Node10 -->
<g id="edge11" class="edge">
<title>Node7&#45;&gt;Node10</title>
<path fill="none" stroke="#191970" d="M183.926,-56.2455C179.5669,-48.617 173.3789,-37.7881 168.0867,-28.5267"/>
<polygon fill="#191970" stroke="#191970" points="171.0104,-26.5886 163.0101,-19.6427 164.9327,-30.0616 171.0104,-26.5886"/>
</g>
<!-- Node11 -->
<g id="node12" class="node">
<title>Node11</title>
<polygon fill="#ffffff" stroke="#bfbfbf" points="200.5,-.5 200.5,-19.5 238.5,-19.5 238.5,-.5 200.5,-.5"/>
<text text-anchor="middle" x="219.5" y="-7.5" font-family="Helvetica,sans-Serif" font-size="10.00" fill="#000000">tuple</text>
</g>
<!-- Node7&#45;&gt;Node11 -->
<g id="edge12" class="edge">
<title>Node7&#45;&gt;Node11</title>
<path fill="none" stroke="#191970" d="M194.7256,-56.2455C198.8123,-48.617 204.6135,-37.7881 209.575,-28.5267"/>
<polygon fill="#191970" stroke="#191970" points="212.6972,-30.1103 214.3343,-19.6427 206.5268,-26.8047 212.6972,-30.1103"/>
</g>
<!-- Node7&#45;&gt;Node12 -->
<g id="edge13" class="edge">
<title>Node7&#45;&gt;Node12</title>
<path fill="none" stroke="#191970" d="M224.5774,-57.818C261.4829,-49.1797 321.5185,-35.0431 382.3068,-20.2722"/>
<polygon fill="#191970" stroke="#191970" points="383.1775,-23.6625 392.066,-17.8968 381.522,-16.8611 383.1775,-23.6625"/>
</g>
<!-- Node13 -->
<g id="node14" class="node">
<title>Node13</title>
<polygon fill="#ffffff" stroke="#bfbfbf" points="256.5,-.5 256.5,-19.5 296.5,-19.5 296.5,-.5 256.5,-.5"/>
<text text-anchor="middle" x="276.5" y="-7.5" font-family="Helvetica,sans-Serif" font-size="10.00" fill="#000000">utility</text>
</g>
<!-- Node7&#45;&gt;Node13 -->
<g id="edge14" class="edge">
<title>Node7&#45;&gt;Node13</title>
<path fill="none" stroke="#191970" d="M204.6542,-56.2455C218.0027,-47.6534 237.6586,-35.0014 253.0383,-25.1018"/>
<polygon fill="#191970" stroke="#191970" points="255.0051,-27.9982 261.5194,-19.6427 251.2164,-22.1121 255.0051,-27.9982"/>
</g>
<!-- Node14&#45;&gt;Node4 -->
<g id="edge20" class="edge">
<title>Node14&#45;&gt;Node4</title>
<path fill="none" stroke="#191970" d="M192.8792,-112.3733C215.0045,-103.2629 248.4134,-89.5062 273.1019,-79.3404"/>
<polygon fill="#191970" stroke="#191970" points="274.5117,-82.5451 282.4258,-75.5011 271.8464,-76.0723 274.5117,-82.5451"/>
</g>
<!-- Node14&#45;&gt;Node7 -->
<g id="edge19" class="edge">
<title>Node14&#45;&gt;Node7</title>
<path fill="none" stroke="#191970" d="M172.9837,-112.2455C175.6508,-104.7776 179.4133,-94.2427 182.6737,-85.1137"/>
<polygon fill="#191970" stroke="#191970" points="185.9889,-86.2373 186.0562,-75.6427 179.3967,-83.8829 185.9889,-86.2373"/>
</g>
<!-- Node14&#45;&gt;Node9 -->
<g id="edge22" class="edge">
<title>Node14&#45;&gt;Node9</title>
<path fill="none" stroke="#191970" d="M161.7345,-112.1507C150.5593,-98.4071 128.8203,-73.2287 106.5,-56 90.2562,-43.4616 70.1709,-32.2348 53.8276,-24.0115"/>
<polygon fill="#191970" stroke="#191970" points="55.2138,-20.7931 44.6946,-19.5296 52.13,-27.0772 55.2138,-20.7931"/>
</g>
<!-- Node14&#45;&gt;Node12 -->
<g id="edge23" class="edge">
<title>Node14&#45;&gt;Node12</title>
<path fill="none" stroke="#191970" d="M181.856,-112.4761C200.5637,-98.4395 237.6032,-72.1221 272.5,-56 292.1401,-46.9264 344.9931,-31.5472 382.6192,-21.092"/>
<polygon fill="#191970" stroke="#191970" points="383.6003,-24.4521 392.3069,-18.4151 381.7359,-17.705 383.6003,-24.4521"/>
</g>
<!-- Node15 -->
<g id="node16" class="node">
<title>Node15</title>
<polygon fill="#ffffff" stroke="#bfbfbf" points="39,-56.5 39,-75.5 98,-75.5 98,-56.5 39,-56.5"/>
<text text-anchor="middle" x="68.5" y="-63.5" font-family="Helvetica,sans-Serif" font-size="10.00" fill="#000000">exception</text>
</g>
<!-- Node14&#45;&gt;Node15 -->
<g id="edge21" class="edge">
<title>Node14&#45;&gt;Node15</title>
<path fill="none" stroke="#191970" d="M151.9071,-112.2455C136.121,-103.4928 112.7361,-90.527 94.7413,-80.5496"/>
<polygon fill="#191970" stroke="#191970" points="96.3341,-77.4308 85.8913,-75.6427 92.9397,-83.5528 96.3341,-77.4308"/>
</g>
</g>
</svg>
