<?xml version="1.0" encoding="UTF-8" standalone="no"?>
<!DOCTYPE svg PUBLIC "-//W3C//DTD SVG 1.1//EN"
 "http://www.w3.org/Graphics/SVG/1.1/DTD/svg11.dtd">
<!-- Generated by graphviz version 2.40.1 (20161225.0304)
 -->
<!-- Title: /media/lubuntu/USBDISK/github/ckpttncpp/third_party/cppitertools/sliding_window.hpp Pages: 1 -->
<svg width="530pt" height="229pt"
 viewBox="0.00 0.00 530.00 229.00" xmlns="http://www.w3.org/2000/svg" xmlns:xlink="http://www.w3.org/1999/xlink">
<g id="graph0" class="graph" transform="scale(1 1) rotate(0) translate(4 225)">
<title>/media/lubuntu/USBDISK/github/ckpttncpp/third_party/cppitertools/sliding_window.hpp</title>
<polygon fill="#ffffff" stroke="transparent" points="-4,4 -4,-225 526,-225 526,4 -4,4"/>
<!-- Node0 -->
<g id="node1" class="node">
<title>Node0</title>
<polygon fill="#bfbfbf" stroke="#000000" points="301.5,-168.5 301.5,-220.5 429.5,-220.5 429.5,-168.5 301.5,-168.5"/>
<text text-anchor="start" x="309.5" y="-208.5" font-family="Helvetica,sans-Serif" font-size="10.00" fill="#000000">/media/lubuntu/USBDISK</text>
<text text-anchor="start" x="309.5" y="-197.5" font-family="Helvetica,sans-Serif" font-size="10.00" fill="#000000">/github/ckpttncpp/third</text>
<text text-anchor="start" x="309.5" y="-186.5" font-family="Helvetica,sans-Serif" font-size="10.00" fill="#000000">_party/cppitertools/sliding</text>
<text text-anchor="middle" x="365.5" y="-175.5" font-family="Helvetica,sans-Serif" font-size="10.00" fill="#000000">_window.hpp</text>
</g>
<!-- Node1 -->
<g id="node2" class="node">
<title>Node1</title>
<g id="a_node2"><a xlink:href="iterator__wrapper_8hpp.html" target="_top" xlink:title="internal/iterator_wrapper.hpp">
<polygon fill="#ffffff" stroke="#000000" points="58.5,-112.5 58.5,-131.5 198.5,-131.5 198.5,-112.5 58.5,-112.5"/>
<text text-anchor="middle" x="128.5" y="-119.5" font-family="Helvetica,sans-Serif" font-size="10.00" fill="#000000">internal/iterator_wrapper.hpp</text>
</a>
</g>
</g>
<!-- Node0&#45;&gt;Node1 -->
<g id="edge1" class="edge">
<title>Node0&#45;&gt;Node1</title>
<path fill="none" stroke="#191970" d="M301.3644,-174.8805C259.3868,-162.0392 205.7891,-145.6433 169.4852,-134.5377"/>
<polygon fill="#191970" stroke="#191970" points="170.3147,-131.1314 159.7283,-131.553 168.267,-137.8252 170.3147,-131.1314"/>
</g>
<!-- Node5 -->
<g id="node6" class="node">
<title>Node5</title>
<g id="a_node6"><a xlink:href="iterbase_8hpp.html" target="_top" xlink:title="iterbase.hpp">
<polygon fill="#ffffff" stroke="#000000" points="191.5,-56.5 191.5,-75.5 261.5,-75.5 261.5,-56.5 191.5,-56.5"/>
<text text-anchor="middle" x="226.5" y="-63.5" font-family="Helvetica,sans-Serif" font-size="10.00" fill="#000000">iterbase.hpp</text>
</a>
</g>
</g>
<!-- Node0&#45;&gt;Node5 -->
<g id="edge18" class="edge">
<title>Node0&#45;&gt;Node5</title>
<path fill="none" stroke="#191970" d="M301.4451,-172.8292C281.0731,-163.1561 260.0723,-149.8203 245.5,-132 234.7794,-118.8899 230.1061,-100.0113 228.0699,-85.8005"/>
<polygon fill="#191970" stroke="#191970" points="231.5199,-85.1562 226.9371,-75.6039 224.5628,-85.9292 231.5199,-85.1562"/>
</g>
<!-- Node7 -->
<g id="node8" class="node">
<title>Node7</title>
<polygon fill="#ffffff" stroke="#bfbfbf" points="350,-.5 350,-19.5 397,-19.5 397,-.5 350,-.5"/>
<text text-anchor="middle" x="373.5" y="-7.5" font-family="Helvetica,sans-Serif" font-size="10.00" fill="#000000">iterator</text>
</g>
<!-- Node0&#45;&gt;Node7 -->
<g id="edge20" class="edge">
<title>Node0&#45;&gt;Node7</title>
<path fill="none" stroke="#191970" d="M380.2117,-168.2722C385.5127,-157.4008 390.8405,-144.441 393.5,-132 401.2385,-95.7987 389.4712,-52.9994 380.9689,-28.9251"/>
<polygon fill="#191970" stroke="#191970" points="384.2486,-27.7028 377.4827,-19.5497 377.6875,-30.1426 384.2486,-27.7028"/>
</g>
<!-- Node11 -->
<g id="node12" class="node">
<title>Node11</title>
<polygon fill="#ffffff" stroke="#bfbfbf" points="415.5,-.5 415.5,-19.5 455.5,-19.5 455.5,-.5 415.5,-.5"/>
<text text-anchor="middle" x="435.5" y="-7.5" font-family="Helvetica,sans-Serif" font-size="10.00" fill="#000000">utility</text>
</g>
<!-- Node0&#45;&gt;Node11 -->
<g id="edge21" class="edge">
<title>Node0&#45;&gt;Node11</title>
<path fill="none" stroke="#191970" d="M387.5464,-168.2456C395.5205,-157.5779 403.9244,-144.7692 409.5,-132 424.3874,-97.9047 431.0025,-54.6296 433.7436,-29.8493"/>
<polygon fill="#191970" stroke="#191970" points="437.2583,-29.8763 434.7719,-19.5774 430.2931,-29.179 437.2583,-29.8763"/>
</g>
<!-- Node12 -->
<g id="node13" class="node">
<title>Node12</title>
<g id="a_node13"><a xlink:href="iteratoriterator_8hpp.html" target="_top" xlink:title="internal/iteratoriterator.hpp">
<polygon fill="#ffffff" stroke="#000000" points="254.5,-112.5 254.5,-131.5 384.5,-131.5 384.5,-112.5 254.5,-112.5"/>
<text text-anchor="middle" x="319.5" y="-119.5" font-family="Helvetica,sans-Serif" font-size="10.00" fill="#000000">internal/iteratoriterator.hpp</text>
</a>
</g>
</g>
<!-- Node0&#45;&gt;Node12 -->
<g id="edge13" class="edge">
<title>Node0&#45;&gt;Node12</title>
<path fill="none" stroke="#191970" d="M348.8929,-168.3258C342.9844,-159.0135 336.4645,-148.7375 331.0696,-140.2347"/>
<polygon fill="#191970" stroke="#191970" points="333.862,-138.1027 325.5492,-131.534 327.9513,-141.8529 333.862,-138.1027"/>
</g>
<!-- Node13 -->
<g id="node14" class="node">
<title>Node13</title>
<polygon fill="#ffffff" stroke="#bfbfbf" points="479,-112.5 479,-131.5 522,-131.5 522,-112.5 479,-112.5"/>
<text text-anchor="middle" x="500.5" y="-119.5" font-family="Helvetica,sans-Serif" font-size="10.00" fill="#000000">deque</text>
</g>
<!-- Node0&#45;&gt;Node13 -->
<g id="edge19" class="edge">
<title>Node0&#45;&gt;Node13</title>
<path fill="none" stroke="#191970" d="M414.2381,-168.3258C434.3751,-157.5115 456.9321,-145.3976 473.9278,-136.2703"/>
<polygon fill="#191970" stroke="#191970" points="475.593,-139.3488 482.747,-131.534 472.2811,-133.1818 475.593,-139.3488"/>
</g>
<!-- Node2 -->
<g id="node3" class="node">
<title>Node2</title>
<polygon fill="#ffffff" stroke="#bfbfbf" points="11,-56.5 11,-75.5 60,-75.5 60,-56.5 11,-56.5"/>
<text text-anchor="middle" x="35.5" y="-63.5" font-family="Helvetica,sans-Serif" font-size="10.00" fill="#000000">cassert</text>
</g>
<!-- Node1&#45;&gt;Node2 -->
<g id="edge2" class="edge">
<title>Node1&#45;&gt;Node2</title>
<path fill="none" stroke="#191970" d="M112.3006,-112.2455C97.8982,-103.5731 76.6268,-90.7645 60.1201,-80.825"/>
<polygon fill="#191970" stroke="#191970" points="61.886,-77.8028 51.5137,-75.6427 58.275,-83.7996 61.886,-77.8028"/>
</g>
<!-- Node3 -->
<g id="node4" class="node">
<title>Node3</title>
<polygon fill="#ffffff" stroke="#bfbfbf" points="0,-.5 0,-19.5 59,-19.5 59,-.5 0,-.5"/>
<text text-anchor="middle" x="29.5" y="-7.5" font-family="Helvetica,sans-Serif" font-size="10.00" fill="#000000">functional</text>
</g>
<!-- Node1&#45;&gt;Node3 -->
<g id="edge3" class="edge">
<title>Node1&#45;&gt;Node3</title>
<path fill="none" stroke="#191970" d="M120.0593,-112.4509C103.3281,-93.5227 65.7535,-51.014 44.6398,-27.1279"/>
<polygon fill="#191970" stroke="#191970" points="47.1646,-24.6994 37.9193,-19.5249 41.9198,-29.3354 47.1646,-24.6994"/>
</g>
<!-- Node4 -->
<g id="node5" class="node">
<title>Node4</title>
<polygon fill="#ffffff" stroke="#bfbfbf" points="116.5,-56.5 116.5,-75.5 162.5,-75.5 162.5,-56.5 116.5,-56.5"/>
<text text-anchor="middle" x="139.5" y="-63.5" font-family="Helvetica,sans-Serif" font-size="10.00" fill="#000000">variant</text>
</g>
<!-- Node1&#45;&gt;Node4 -->
<g id="edge4" class="edge">
<title>Node1&#45;&gt;Node4</title>
<path fill="none" stroke="#191970" d="M130.4161,-112.2455C131.8514,-104.9382 133.8636,-94.6944 135.6295,-85.7046"/>
<polygon fill="#191970" stroke="#191970" points="139.1127,-86.1298 137.6059,-75.6427 132.244,-84.7805 139.1127,-86.1298"/>
</g>
<!-- Node1&#45;&gt;Node5 -->
<g id="edge5" class="edge">
<title>Node1&#45;&gt;Node5</title>
<path fill="none" stroke="#191970" d="M145.5703,-112.2455C160.747,-103.5731 183.1621,-90.7645 200.5563,-80.825"/>
<polygon fill="#191970" stroke="#191970" points="202.6794,-83.643 209.6253,-75.6427 199.2064,-77.5653 202.6794,-83.643"/>
</g>
<!-- Node5&#45;&gt;Node3 -->
<g id="edge7" class="edge">
<title>Node5&#45;&gt;Node3</title>
<path fill="none" stroke="#191970" d="M192.6345,-56.3733C158.2443,-46.5974 105.0341,-31.4716 68.8059,-21.1733"/>
<polygon fill="#191970" stroke="#191970" points="69.6438,-17.7728 59.0678,-18.4051 67.7297,-24.5061 69.6438,-17.7728"/>
</g>
<!-- Node6 -->
<g id="node7" class="node">
<title>Node6</title>
<polygon fill="#ffffff" stroke="#bfbfbf" points="202,-.5 202,-19.5 251,-19.5 251,-.5 202,-.5"/>
<text text-anchor="middle" x="226.5" y="-7.5" font-family="Helvetica,sans-Serif" font-size="10.00" fill="#000000">cstddef</text>
</g>
<!-- Node5&#45;&gt;Node6 -->
<g id="edge6" class="edge">
<title>Node5&#45;&gt;Node6</title>
<path fill="none" stroke="#191970" d="M226.5,-56.2455C226.5,-48.9382 226.5,-38.6944 226.5,-29.7046"/>
<polygon fill="#191970" stroke="#191970" points="230.0001,-29.6426 226.5,-19.6427 223.0001,-29.6427 230.0001,-29.6426"/>
</g>
<!-- Node5&#45;&gt;Node7 -->
<g id="edge8" class="edge">
<title>Node5&#45;&gt;Node7</title>
<path fill="none" stroke="#191970" d="M251.7702,-56.3733C276.1891,-47.0708 313.3238,-32.9242 340.1561,-22.7024"/>
<polygon fill="#191970" stroke="#191970" points="341.4341,-25.961 349.533,-19.1303 338.9421,-19.4196 341.4341,-25.961"/>
</g>
<!-- Node8 -->
<g id="node9" class="node">
<title>Node8</title>
<polygon fill="#ffffff" stroke="#bfbfbf" points="77.5,-.5 77.5,-19.5 127.5,-19.5 127.5,-.5 77.5,-.5"/>
<text text-anchor="middle" x="102.5" y="-7.5" font-family="Helvetica,sans-Serif" font-size="10.00" fill="#000000">optional</text>
</g>
<!-- Node5&#45;&gt;Node8 -->
<g id="edge9" class="edge">
<title>Node5&#45;&gt;Node8</title>
<path fill="none" stroke="#191970" d="M205.1836,-56.3733C185.2784,-47.3838 155.3564,-33.8706 132.94,-23.7471"/>
<polygon fill="#191970" stroke="#191970" points="134.0925,-20.4272 123.5382,-19.5011 131.2113,-26.8068 134.0925,-20.4272"/>
</g>
<!-- Node9 -->
<g id="node10" class="node">
<title>Node9</title>
<polygon fill="#ffffff" stroke="#bfbfbf" points="145.5,-.5 145.5,-19.5 183.5,-19.5 183.5,-.5 145.5,-.5"/>
<text text-anchor="middle" x="164.5" y="-7.5" font-family="Helvetica,sans-Serif" font-size="10.00" fill="#000000">tuple</text>
</g>
<!-- Node5&#45;&gt;Node9 -->
<g id="edge10" class="edge">
<title>Node5&#45;&gt;Node9</title>
<path fill="none" stroke="#191970" d="M215.7004,-56.2455C206.6322,-48.0549 193.4794,-36.1749 182.7755,-26.5069"/>
<polygon fill="#191970" stroke="#191970" points="184.9429,-23.7482 175.1758,-19.6427 180.2509,-28.9429 184.9429,-23.7482"/>
</g>
<!-- Node10 -->
<g id="node11" class="node">
<title>Node10</title>
<polygon fill="#ffffff" stroke="#bfbfbf" points="269.5,-.5 269.5,-19.5 331.5,-19.5 331.5,-.5 269.5,-.5"/>
<text text-anchor="middle" x="300.5" y="-7.5" font-family="Helvetica,sans-Serif" font-size="10.00" fill="#000000">type_traits</text>
</g>
<!-- Node5&#45;&gt;Node10 -->
<g id="edge11" class="edge">
<title>Node5&#45;&gt;Node10</title>
<path fill="none" stroke="#191970" d="M239.3898,-56.2455C250.4254,-47.8943 266.5292,-35.7076 279.4353,-25.9408"/>
<polygon fill="#191970" stroke="#191970" points="281.8959,-28.4681 287.7579,-19.6427 277.6717,-22.8862 281.8959,-28.4681"/>
</g>
<!-- Node5&#45;&gt;Node11 -->
<g id="edge12" class="edge">
<title>Node5&#45;&gt;Node11</title>
<path fill="none" stroke="#191970" d="M261.6845,-57.7316C297.9253,-49.0343 355.9491,-34.6058 405.5,-20 405.5987,-19.9709 405.6976,-19.9417 405.7967,-19.9124"/>
<polygon fill="#191970" stroke="#191970" points="406.7229,-23.2898 415.2277,-16.9717 404.6392,-16.6071 406.7229,-23.2898"/>
</g>
<!-- Node12&#45;&gt;Node5 -->
<g id="edge17" class="edge">
<title>Node12&#45;&gt;Node5</title>
<path fill="none" stroke="#191970" d="M303.3006,-112.2455C288.8982,-103.5731 267.6268,-90.7645 251.1201,-80.825"/>
<polygon fill="#191970" stroke="#191970" points="252.886,-77.8028 242.5137,-75.6427 249.275,-83.7996 252.886,-77.8028"/>
</g>
<!-- Node12&#45;&gt;Node7 -->
<g id="edge14" class="edge">
<title>Node12&#45;&gt;Node7</title>
<path fill="none" stroke="#191970" d="M324.104,-112.4509C333.0309,-93.936 352.8358,-52.8591 364.4749,-28.7187"/>
<polygon fill="#191970" stroke="#191970" points="367.7173,-30.0527 368.9076,-19.5249 361.4119,-27.0125 367.7173,-30.0527"/>
</g>
<!-- Node12&#45;&gt;Node10 -->
<g id="edge15" class="edge">
<title>Node12&#45;&gt;Node10</title>
<path fill="none" stroke="#191970" d="M317.8801,-112.4509C314.7812,-94.184 307.9567,-53.9553 303.8416,-29.6976"/>
<polygon fill="#191970" stroke="#191970" points="307.2391,-28.7986 302.1158,-19.5249 300.3377,-29.9694 307.2391,-28.7986"/>
</g>
<!-- Node12&#45;&gt;Node11 -->
<g id="edge16" class="edge">
<title>Node12&#45;&gt;Node11</title>
<path fill="none" stroke="#191970" d="M329.3901,-112.4509C349.1656,-93.3574 393.7921,-50.2697 418.4041,-26.5063"/>
<polygon fill="#191970" stroke="#191970" points="420.872,-28.9888 425.6349,-19.5249 416.0098,-23.9529 420.872,-28.9888"/>
</g>
</g>
</svg>
