<?xml version="1.0" encoding="UTF-8" standalone="no"?>
<!DOCTYPE svg PUBLIC "-//W3C//DTD SVG 1.1//EN"
 "http://www.w3.org/Graphics/SVG/1.1/DTD/svg11.dtd">
<!-- Generated by graphviz version 2.40.1 (20161225.0304)
 -->
<!-- Title: /media/lubuntu/USBDISK/github/ckpttncpp/third_party/cppitertools/starmap.hpp Pages: 1 -->
<!--zoomable 406 -->
<svg id="main" version="1.1" xmlns="http://www.w3.org/2000/svg" xmlns:xlink="http://www.w3.org/1999/xlink" xml:space="preserve" onload="init(evt)">
<style type="text/css"><![CDATA[
.edge:hover path { stroke: red; }
.edge:hover polygon { stroke: red; fill: red; }
]]></style>
<script type="text/javascript"><![CDATA[
var edges = document.getElementsByTagName('g');
if (edges && edges.length) {
  for (var i=0;i<edges.length;i++) {
    if (edges[i].id.substr(0,4)=='edge') {
      edges[i].setAttribute('class','edge');
    }
  }
}
]]></script>
        <defs>
                <circle id="rim" cx="0" cy="0" r="7"/>
                <circle id="rim2" cx="0" cy="0" r="3.5"/>
                <g id="zoomPlus">
                        <use xlink:href="#rim" fill="#404040">
                                <set attributeName="fill" to="#808080" begin="zoomplus.mouseover" end="zoomplus.mouseout"/>
                        </use>
                        <path d="M-4,0h8M0,-4v8" fill="none" stroke="white" stroke-width="1.5" pointer-events="none"/>
                </g>
                <g id="zoomMin">
                        <use xlink:href="#rim" fill="#404040">
                                <set attributeName="fill" to="#808080" begin="zoomminus.mouseover" end="zoomminus.mouseout"/>
                        </use>
                        <path d="M-4,0h8" fill="none" stroke="white" stroke-width="1.5" pointer-events="none"/>
                </g>
                <g id="dirArrow">
                        <path fill="none" stroke="white" stroke-width="1.5" d="M0,-3.0v7 M-2.5,-0.5L0,-3.0L2.5,-0.5"/>
                </g>
               <g id="resetDef">
                       <use xlink:href="#rim2" fill="#404040">
                               <set attributeName="fill" to="#808080" begin="reset.mouseover" end="reset.mouseout"/>
                       </use>
               </g>
        </defs>

<script type="text/javascript">
var viewWidth = 761;
var viewHeight = 406;
var sectionId = 'dynsection-1';
</script>
<script xlink:href="svgpan.js"/>
<svg id="graph" class="graph">
<g id="viewport">
<title>/media/lubuntu/USBDISK/github/ckpttncpp/third_party/cppitertools/starmap.hpp</title>
<polygon fill="#ffffff" stroke="transparent" points="-4,4 -4,-402 756.5,-402 756.5,4 -4,4"/>
<!-- Node15 -->
<g id="node1" class="node">
<title>Node15</title>
<polygon fill="#bfbfbf" stroke="#000000" points="150,-356.5 150,-397.5 304,-397.5 304,-356.5 150,-356.5"/>
<text text-anchor="start" x="158" y="-385.5" font-family="Helvetica,sans-Serif" font-size="10.00" fill="#000000">/media/lubuntu/USBDISK</text>
<text text-anchor="start" x="158" y="-374.5" font-family="Helvetica,sans-Serif" font-size="10.00" fill="#000000">/github/ckpttncpp/third</text>
<text text-anchor="middle" x="227" y="-363.5" font-family="Helvetica,sans-Serif" font-size="10.00" fill="#000000">_party/cppitertools/starmap.hpp</text>
</g>
<!-- Node16 -->
<g id="node2" class="node">
<title>Node16</title>
<g id="a_node2"><a xlink:href="starmap__examples_8cpp.html" target="_top" xlink:title="/media/lubuntu/USBDISK\l/github/ckpttncpp/third\l_party/cppitertools/examples\l/starmap_examples.cpp">
<polygon fill="#ffffff" stroke="#000000" points="0,-267.5 0,-319.5 142,-319.5 142,-267.5 0,-267.5"/>
<text text-anchor="start" x="8" y="-307.5" font-family="Helvetica,sans-Serif" font-size="10.00" fill="#000000">/media/lubuntu/USBDISK</text>
<text text-anchor="start" x="8" y="-296.5" font-family="Helvetica,sans-Serif" font-size="10.00" fill="#000000">/github/ckpttncpp/third</text>
<text text-anchor="start" x="8" y="-285.5" font-family="Helvetica,sans-Serif" font-size="10.00" fill="#000000">_party/cppitertools/examples</text>
<text text-anchor="middle" x="71" y="-274.5" font-family="Helvetica,sans-Serif" font-size="10.00" fill="#000000">/starmap_examples.cpp</text>
</a>
</g>
</g>
<!-- Node15&#45;&gt;Node16 -->
<g id="edge1" class="edge">
<title>Node15&#45;&gt;Node16</title>
<path fill="none" stroke="#191970" d="M179.4078,-351.526C160.5007,-341.4058 138.7674,-329.7729 119.7477,-319.5925"/>
<polygon fill="#191970" stroke="#191970" points="177.97,-354.7262 188.4382,-356.3595 181.2734,-348.5546 177.97,-354.7262"/>
</g>
<!-- Node17 -->
<g id="node3" class="node">
<title>Node17</title>
<g id="a_node3"><a xlink:href="imap_8hpp.html" target="_top" xlink:title="/media/lubuntu/USBDISK\l/github/ckpttncpp/third\l_party/cppitertools/imap.hpp">
<polygon fill="#ffffff" stroke="#000000" points="214,-273 214,-314 354,-314 354,-273 214,-273"/>
<text text-anchor="start" x="222" y="-302" font-family="Helvetica,sans-Serif" font-size="10.00" fill="#000000">/media/lubuntu/USBDISK</text>
<text text-anchor="start" x="222" y="-291" font-family="Helvetica,sans-Serif" font-size="10.00" fill="#000000">/github/ckpttncpp/third</text>
<text text-anchor="middle" x="284" y="-280" font-family="Helvetica,sans-Serif" font-size="10.00" fill="#000000">_party/cppitertools/imap.hpp</text>
</a>
</g>
</g>
<!-- Node15&#45;&gt;Node17 -->
<g id="edge2" class="edge">
<title>Node15&#45;&gt;Node17</title>
<path fill="none" stroke="#191970" d="M246.9227,-347.8151C254.4913,-336.7277 262.9498,-324.3366 269.8747,-314.1924"/>
<polygon fill="#191970" stroke="#191970" points="243.8372,-346.1271 241.0899,-356.3595 249.6186,-350.0737 243.8372,-346.1271"/>
</g>
<!-- Node19 -->
<g id="node5" class="node">
<title>Node19</title>
<g id="a_node5"><a xlink:href="itertools_8hpp.html" target="_top" xlink:title="/media/lubuntu/USBDISK\l/github/ckpttncpp/third\l_party/cppitertools/itertools.hpp">
<polygon fill="#ffffff" stroke="#000000" points="131.5,-95 131.5,-136 284.5,-136 284.5,-95 131.5,-95"/>
<text text-anchor="start" x="139.5" y="-124" font-family="Helvetica,sans-Serif" font-size="10.00" fill="#000000">/media/lubuntu/USBDISK</text>
<text text-anchor="start" x="139.5" y="-113" font-family="Helvetica,sans-Serif" font-size="10.00" fill="#000000">/github/ckpttncpp/third</text>
<text text-anchor="middle" x="208" y="-102" font-family="Helvetica,sans-Serif" font-size="10.00" fill="#000000">_party/cppitertools/itertools.hpp</text>
</a>
</g>
</g>
<!-- Node15&#45;&gt;Node19 -->
<g id="edge12" class="edge">
<title>Node15&#45;&gt;Node19</title>
<path fill="none" stroke="#191970" d="M213.019,-346.9143C209.7192,-338.3979 206.6755,-328.9941 205,-320 192.645,-253.6771 200.282,-173.155 205.041,-136.0441"/>
<polygon fill="#191970" stroke="#191970" points="209.8942,-348.5174 216.9438,-356.4266 216.3651,-345.8475 209.8942,-348.5174"/>
</g>
<!-- Node26 -->
<g id="node12" class="node">
<title>Node26</title>
<g id="a_node12"><a xlink:href="test__starmap_8cpp.html" target="_top" xlink:title="/media/lubuntu/USBDISK\l/github/ckpttncpp/third\l_party/cppitertools/test\l/test_starmap.cpp">
<polygon fill="#ffffff" stroke="#000000" points="372,-267.5 372,-319.5 500,-319.5 500,-267.5 372,-267.5"/>
<text text-anchor="start" x="380" y="-307.5" font-family="Helvetica,sans-Serif" font-size="10.00" fill="#000000">/media/lubuntu/USBDISK</text>
<text text-anchor="start" x="380" y="-296.5" font-family="Helvetica,sans-Serif" font-size="10.00" fill="#000000">/github/ckpttncpp/third</text>
<text text-anchor="start" x="380" y="-285.5" font-family="Helvetica,sans-Serif" font-size="10.00" fill="#000000">_party/cppitertools/test</text>
<text text-anchor="middle" x="436" y="-274.5" font-family="Helvetica,sans-Serif" font-size="10.00" fill="#000000">/test_starmap.cpp</text>
</a>
</g>
</g>
<!-- Node15&#45;&gt;Node26 -->
<g id="edge13" class="edge">
<title>Node15&#45;&gt;Node26</title>
<path fill="none" stroke="#191970" d="M287.8709,-352.6808C314.1875,-342.1667 345.0036,-329.855 371.693,-319.192"/>
<polygon fill="#191970" stroke="#191970" points="286.3826,-349.5063 278.3948,-356.4667 288.9797,-356.0067 286.3826,-349.5063"/>
</g>
<!-- Node18 -->
<g id="node4" class="node">
<title>Node18</title>
<g id="a_node4"><a xlink:href="imap__examples_8cpp.html" target="_top" xlink:title="/media/lubuntu/USBDISK\l/github/ckpttncpp/third\l_party/cppitertools/examples\l/imap_examples.cpp">
<polygon fill="#ffffff" stroke="#000000" points="382,-178.5 382,-230.5 524,-230.5 524,-178.5 382,-178.5"/>
<text text-anchor="start" x="390" y="-218.5" font-family="Helvetica,sans-Serif" font-size="10.00" fill="#000000">/media/lubuntu/USBDISK</text>
<text text-anchor="start" x="390" y="-207.5" font-family="Helvetica,sans-Serif" font-size="10.00" fill="#000000">/github/ckpttncpp/third</text>
<text text-anchor="start" x="390" y="-196.5" font-family="Helvetica,sans-Serif" font-size="10.00" fill="#000000">_party/cppitertools/examples</text>
<text text-anchor="middle" x="453" y="-185.5" font-family="Helvetica,sans-Serif" font-size="10.00" fill="#000000">/imap_examples.cpp</text>
</a>
</g>
</g>
<!-- Node17&#45;&gt;Node18 -->
<g id="edge3" class="edge">
<title>Node17&#45;&gt;Node18</title>
<path fill="none" stroke="#191970" d="M332.1558,-268.1399C354.4574,-256.3952 380.9316,-242.4532 403.4079,-230.6166"/>
<polygon fill="#191970" stroke="#191970" points="330.4139,-265.1014 323.1968,-272.8579 333.6757,-271.2951 330.4139,-265.1014"/>
</g>
<!-- Node17&#45;&gt;Node19 -->
<g id="edge4" class="edge">
<title>Node17&#45;&gt;Node19</title>
<path fill="none" stroke="#191970" d="M252.1277,-265.5259C242.6257,-255.5545 233.1237,-243.6375 227,-231 212.1126,-200.2767 208.5823,-160.136 207.9143,-136.1697"/>
<polygon fill="#191970" stroke="#191970" points="249.797,-268.1452 259.338,-272.7515 254.752,-263.2007 249.797,-268.1452"/>
</g>
<!-- Node22 -->
<g id="node8" class="node">
<title>Node22</title>
<g id="a_node8"><a xlink:href="unique__justseen_8hpp.html" target="_top" xlink:title="/media/lubuntu/USBDISK\l/github/ckpttncpp/third\l_party/cppitertools/unique\l_justseen.hpp">
<polygon fill="#ffffff" stroke="#000000" points="542,-178.5 542,-230.5 670,-230.5 670,-178.5 542,-178.5"/>
<text text-anchor="start" x="550" y="-218.5" font-family="Helvetica,sans-Serif" font-size="10.00" fill="#000000">/media/lubuntu/USBDISK</text>
<text text-anchor="start" x="550" y="-207.5" font-family="Helvetica,sans-Serif" font-size="10.00" fill="#000000">/github/ckpttncpp/third</text>
<text text-anchor="start" x="550" y="-196.5" font-family="Helvetica,sans-Serif" font-size="10.00" fill="#000000">_party/cppitertools/unique</text>
<text text-anchor="middle" x="606" y="-185.5" font-family="Helvetica,sans-Serif" font-size="10.00" fill="#000000">_justseen.hpp</text>
</a>
</g>
</g>
<!-- Node17&#45;&gt;Node22 -->
<g id="edge7" class="edge">
<title>Node17&#45;&gt;Node22</title>
<path fill="none" stroke="#191970" d="M352.6933,-269.9349C356.1677,-268.9072 359.6176,-267.9221 363,-267 437.5115,-246.6856 458.7437,-252.2283 533,-231 535.852,-230.1847 538.7529,-229.3138 541.6733,-228.4029"/>
<polygon fill="#191970" stroke="#191970" points="351.418,-266.6646 342.8727,-272.9277 353.4586,-273.3606 351.418,-266.6646"/>
</g>
<!-- Node25 -->
<g id="node11" class="node">
<title>Node25</title>
<g id="a_node11"><a xlink:href="test__imap_8cpp.html" target="_top" xlink:title="/media/lubuntu/USBDISK\l/github/ckpttncpp/third\l_party/cppitertools/test\l/test_imap.cpp">
<polygon fill="#ffffff" stroke="#000000" points="236,-178.5 236,-230.5 364,-230.5 364,-178.5 236,-178.5"/>
<text text-anchor="start" x="244" y="-218.5" font-family="Helvetica,sans-Serif" font-size="10.00" fill="#000000">/media/lubuntu/USBDISK</text>
<text text-anchor="start" x="244" y="-207.5" font-family="Helvetica,sans-Serif" font-size="10.00" fill="#000000">/github/ckpttncpp/third</text>
<text text-anchor="start" x="244" y="-196.5" font-family="Helvetica,sans-Serif" font-size="10.00" fill="#000000">_party/cppitertools/test</text>
<text text-anchor="middle" x="300" y="-185.5" font-family="Helvetica,sans-Serif" font-size="10.00" fill="#000000">/test_imap.cpp</text>
</a>
</g>
</g>
<!-- Node17&#45;&gt;Node25 -->
<g id="edge11" class="edge">
<title>Node17&#45;&gt;Node25</title>
<path fill="none" stroke="#191970" d="M289.5035,-262.8868C291.3816,-252.4396 293.4638,-240.8575 295.2752,-230.7816"/>
<polygon fill="#191970" stroke="#191970" points="286.0356,-262.3964 287.7109,-272.8579 292.9252,-263.635 286.0356,-262.3964"/>
</g>
<!-- Node20 -->
<g id="node6" class="node">
<title>Node20</title>
<g id="a_node6"><a xlink:href="mixed__examples_8cpp.html" target="_top" xlink:title="/media/lubuntu/USBDISK\l/github/ckpttncpp/third\l_party/cppitertools/examples\l/mixed_examples.cpp">
<polygon fill="#ffffff" stroke="#000000" points="61,-.5 61,-52.5 203,-52.5 203,-.5 61,-.5"/>
<text text-anchor="start" x="69" y="-40.5" font-family="Helvetica,sans-Serif" font-size="10.00" fill="#000000">/media/lubuntu/USBDISK</text>
<text text-anchor="start" x="69" y="-29.5" font-family="Helvetica,sans-Serif" font-size="10.00" fill="#000000">/github/ckpttncpp/third</text>
<text text-anchor="start" x="69" y="-18.5" font-family="Helvetica,sans-Serif" font-size="10.00" fill="#000000">_party/cppitertools/examples</text>
<text text-anchor="middle" x="132" y="-7.5" font-family="Helvetica,sans-Serif" font-size="10.00" fill="#000000">/mixed_examples.cpp</text>
</a>
</g>
</g>
<!-- Node19&#45;&gt;Node20 -->
<g id="edge5" class="edge">
<title>Node19&#45;&gt;Node20</title>
<path fill="none" stroke="#191970" d="M183.7936,-87.153C174.3864,-76.1367 163.6743,-63.5922 154.4427,-52.7816"/>
<polygon fill="#191970" stroke="#191970" points="181.2176,-89.5261 190.373,-94.8579 186.5408,-84.9804 181.2176,-89.5261"/>
</g>
<!-- Node21 -->
<g id="node7" class="node">
<title>Node21</title>
<g id="a_node7"><a xlink:href="test__mixed_8cpp.html" target="_top" xlink:title="/media/lubuntu/USBDISK\l/github/ckpttncpp/third\l_party/cppitertools/test\l/test_mixed.cpp">
<polygon fill="#ffffff" stroke="#000000" points="221,-.5 221,-52.5 349,-52.5 349,-.5 221,-.5"/>
<text text-anchor="start" x="229" y="-40.5" font-family="Helvetica,sans-Serif" font-size="10.00" fill="#000000">/media/lubuntu/USBDISK</text>
<text text-anchor="start" x="229" y="-29.5" font-family="Helvetica,sans-Serif" font-size="10.00" fill="#000000">/github/ckpttncpp/third</text>
<text text-anchor="start" x="229" y="-18.5" font-family="Helvetica,sans-Serif" font-size="10.00" fill="#000000">_party/cppitertools/test</text>
<text text-anchor="middle" x="285" y="-7.5" font-family="Helvetica,sans-Serif" font-size="10.00" fill="#000000">/test_mixed.cpp</text>
</a>
</g>
</g>
<!-- Node19&#45;&gt;Node21 -->
<g id="edge6" class="edge">
<title>Node19&#45;&gt;Node21</title>
<path fill="none" stroke="#191970" d="M232.5249,-87.153C242.0559,-76.1367 252.909,-63.5922 262.262,-52.7816"/>
<polygon fill="#191970" stroke="#191970" points="229.7549,-85.0054 225.8589,-94.8579 235.0486,-89.5854 229.7549,-85.0054"/>
</g>
<!-- Node22&#45;&gt;Node19 -->
<g id="edge9" class="edge">
<title>Node22&#45;&gt;Node19</title>
<path fill="none" stroke="#191970" d="M531.9198,-177.8562C442.3559,-153.6647 348.6603,-136.904 284.6323,-126.7239"/>
<polygon fill="#191970" stroke="#191970" points="531.1228,-181.2667 541.6921,-180.5302 532.9704,-174.5149 531.1228,-181.2667"/>
</g>
<!-- Node23 -->
<g id="node9" class="node">
<title>Node23</title>
<g id="a_node9"><a xlink:href="unique__justseen__examples_8cpp.html" target="_top" xlink:title="/media/lubuntu/USBDISK\l/github/ckpttncpp/third\l_party/cppitertools/examples\l/unique_justseen_examples.cpp">
<polygon fill="#ffffff" stroke="#000000" points="447,-89.5 447,-141.5 603,-141.5 603,-89.5 447,-89.5"/>
<text text-anchor="start" x="455" y="-129.5" font-family="Helvetica,sans-Serif" font-size="10.00" fill="#000000">/media/lubuntu/USBDISK</text>
<text text-anchor="start" x="455" y="-118.5" font-family="Helvetica,sans-Serif" font-size="10.00" fill="#000000">/github/ckpttncpp/third</text>
<text text-anchor="start" x="455" y="-107.5" font-family="Helvetica,sans-Serif" font-size="10.00" fill="#000000">_party/cppitertools/examples</text>
<text text-anchor="middle" x="525" y="-96.5" font-family="Helvetica,sans-Serif" font-size="10.00" fill="#000000">/unique_justseen_examples.cpp</text>
</a>
</g>
</g>
<!-- Node22&#45;&gt;Node23 -->
<g id="edge8" class="edge">
<title>Node22&#45;&gt;Node23</title>
<path fill="none" stroke="#191970" d="M575.2527,-170.7159C566.453,-161.0472 557.0003,-150.6608 548.694,-141.5341"/>
<polygon fill="#191970" stroke="#191970" points="572.8161,-173.2386 582.1354,-178.2784 577.993,-168.527 572.8161,-173.2386"/>
</g>
<!-- Node24 -->
<g id="node10" class="node">
<title>Node24</title>
<g id="a_node10"><a xlink:href="test__unique__justseen_8cpp.html" target="_top" xlink:title="/media/lubuntu/USBDISK\l/github/ckpttncpp/third\l_party/cppitertools/test\l/test_unique_justseen.cpp">
<polygon fill="#ffffff" stroke="#000000" points="621.5,-89.5 621.5,-141.5 752.5,-141.5 752.5,-89.5 621.5,-89.5"/>
<text text-anchor="start" x="629.5" y="-129.5" font-family="Helvetica,sans-Serif" font-size="10.00" fill="#000000">/media/lubuntu/USBDISK</text>
<text text-anchor="start" x="629.5" y="-118.5" font-family="Helvetica,sans-Serif" font-size="10.00" fill="#000000">/github/ckpttncpp/third</text>
<text text-anchor="start" x="629.5" y="-107.5" font-family="Helvetica,sans-Serif" font-size="10.00" fill="#000000">_party/cppitertools/test</text>
<text text-anchor="middle" x="687" y="-96.5" font-family="Helvetica,sans-Serif" font-size="10.00" fill="#000000">/test_unique_justseen.cpp</text>
</a>
</g>
</g>
<!-- Node22&#45;&gt;Node24 -->
<g id="edge10" class="edge">
<title>Node22&#45;&gt;Node24</title>
<path fill="none" stroke="#191970" d="M636.7473,-170.7159C645.547,-161.0472 654.9997,-150.6608 663.306,-141.5341"/>
<polygon fill="#191970" stroke="#191970" points="634.007,-168.527 629.8646,-178.2784 639.1839,-173.2386 634.007,-168.527"/>
</g>
</g>
</svg>
        <g id="navigator" transform="translate(0 0)" fill="#404254">
                <rect fill="#f2f5e9" fill-opacity="0.5" stroke="#606060" stroke-width=".5" x="0" y="0" width="60" height="60"/>
                <use id="zoomplus" xlink:href="#zoomPlus" x="17" y="9" onmousedown="handleZoom(evt,'in')"/>
                <use id="zoomminus" xlink:href="#zoomMin" x="42" y="9" onmousedown="handleZoom(evt,'out')"/>
                <use id="reset" xlink:href="#resetDef" x="30" y="36" onmousedown="handleReset()"/>
                <g id="arrowUp" xlink:href="#dirArrow" transform="translate(30 24)" onmousedown="handlePan(0,-1)">
                  <use xlink:href="#rim" fill="#404040">
                        <set attributeName="fill" to="#808080" begin="arrowUp.mouseover" end="arrowUp.mouseout"/>
                  </use>
                  <path fill="none" stroke="white" stroke-width="1.5" d="M0,-3.0v7 M-2.5,-0.5L0,-3.0L2.5,-0.5"/>
                </g>
                <g id="arrowRight" xlink:href="#dirArrow" transform="rotate(90) translate(36 -43)" onmousedown="handlePan(1,0)">
                  <use xlink:href="#rim" fill="#404040">
                        <set attributeName="fill" to="#808080" begin="arrowRight.mouseover" end="arrowRight.mouseout"/>
                  </use>
                  <path fill="none" stroke="white" stroke-width="1.5" d="M0,-3.0v7 M-2.5,-0.5L0,-3.0L2.5,-0.5"/>
                </g>
                <g id="arrowDown" xlink:href="#dirArrow" transform="rotate(180) translate(-30 -48)" onmousedown="handlePan(0,1)">
                  <use xlink:href="#rim" fill="#404040">
                        <set attributeName="fill" to="#808080" begin="arrowDown.mouseover" end="arrowDown.mouseout"/>
                  </use>
                  <path fill="none" stroke="white" stroke-width="1.5" d="M0,-3.0v7 M-2.5,-0.5L0,-3.0L2.5,-0.5"/>
                </g>
                <g id="arrowLeft" xlink:href="#dirArrow" transform="rotate(270) translate(-36 17)" onmousedown="handlePan(-1,0)">
                  <use xlink:href="#rim" fill="#404040">
                        <set attributeName="fill" to="#808080" begin="arrowLeft.mouseover" end="arrowLeft.mouseout"/>
                  </use>
                  <path fill="none" stroke="white" stroke-width="1.5" d="M0,-3.0v7 M-2.5,-0.5L0,-3.0L2.5,-0.5"/>
                </g>
        </g>
        <svg viewBox="0 0 15 15" width="100%" height="30px" preserveAspectRatio="xMaxYMin meet">
         <g id="arrow_out" transform="scale(0.3 0.3)">
          <a xlink:href="starmap_8hpp__dep__incl_org.svg" target="_base">
           <rect id="button" ry="5" rx="5" y="6" x="6" height="38" width="38"
                fill="#f2f5e9" fill-opacity="0.5" stroke="#606060" stroke-width="1.0"/>
           <path id="arrow"
             d="M 11.500037,31.436501 C 11.940474,20.09759 22.043105,11.32322 32.158766,21.979434 L 37.068811,17.246167 C 37.068811,17.246167 37.088388,32 37.088388,32 L 22.160133,31.978069 C 22.160133,31.978069 26.997745,27.140456 26.997745,27.140456 C 18.528582,18.264221 13.291696,25.230495 11.500037,31.436501 z"
             style="fill:#404040;"/>
          </a>
         </g>
        </svg>
</svg>
