<?xml version="1.0" encoding="UTF-8" standalone="no"?>
<!DOCTYPE svg PUBLIC "-//W3C//DTD SVG 1.1//EN"
 "http://www.w3.org/Graphics/SVG/1.1/DTD/svg11.dtd">
<!-- Generated by graphviz version 2.40.1 (20161225.0304)
 -->
<!-- Title: Netlist::get_max_net_degree Pages: 1 -->
<svg width="507pt" height="78pt"
 viewBox="0.00 0.00 507.00 77.50" xmlns="http://www.w3.org/2000/svg" xmlns:xlink="http://www.w3.org/1999/xlink">
<g id="graph0" class="graph" transform="scale(1 1) rotate(0) translate(4 73.5)">
<title>Netlist::get_max_net_degree</title>
<polygon fill="#ffffff" stroke="transparent" points="-4,4 -4,-73.5 503,-73.5 503,4 -4,4"/>
<!-- Node9 -->
<g id="node1" class="node">
<title>Node9</title>
<polygon fill="#bfbfbf" stroke="#000000" points="0,-17 0,-47 107,-47 107,-17 0,-17"/>
<text text-anchor="start" x="8" y="-35" font-family="Helvetica,sans-Serif" font-size="10.00" fill="#000000">Netlist::get_max_net</text>
<text text-anchor="middle" x="53.5" y="-24" font-family="Helvetica,sans-Serif" font-size="10.00" fill="#000000">_degree</text>
</g>
<!-- Node10 -->
<g id="node2" class="node">
<title>Node10</title>
<g id="a_node2"><a xlink:href="test__min__cover_8cpp.html#ad836445999b15b0024ec8d9a8a28f83c" target="_top" xlink:title="max_independent_net">
<polygon fill="#ffffff" stroke="#000000" points="143,-22.5 143,-41.5 255,-41.5 255,-22.5 143,-22.5"/>
<text text-anchor="middle" x="199" y="-29.5" font-family="Helvetica,sans-Serif" font-size="10.00" fill="#000000">max_independent_net</text>
</a>
</g>
</g>
<!-- Node9&#45;&gt;Node10 -->
<g id="edge1" class="edge">
<title>Node9&#45;&gt;Node10</title>
<path fill="none" stroke="#191970" d="M117.3739,-32C125.7508,-32 134.2871,-32 142.5295,-32"/>
<polygon fill="#191970" stroke="#191970" points="117.2655,-28.5001 107.2654,-32 117.2654,-35.5001 117.2655,-28.5001"/>
</g>
<!-- Node11 -->
<g id="node3" class="node">
<title>Node11</title>
<g id="a_node3"><a xlink:href="test__min__cover_8cpp.html#ad62682eeb6c222acc3558269eefe9735" target="_top" xlink:title="Create a contraction subgraph object. ">
<polygon fill="#ffffff" stroke="#000000" points="291,-39 291,-69 388,-69 388,-39 291,-39"/>
<text text-anchor="start" x="299" y="-57" font-family="Helvetica,sans-Serif" font-size="10.00" fill="#000000">create_contraction</text>
<text text-anchor="middle" x="339.5" y="-46" font-family="Helvetica,sans-Serif" font-size="10.00" fill="#000000">_subgraph</text>
</a>
</g>
</g>
<!-- Node10&#45;&gt;Node11 -->
<g id="edge2" class="edge">
<title>Node10&#45;&gt;Node11</title>
<path fill="none" stroke="#191970" d="M265.3547,-42.3901C273.945,-43.7352 282.6133,-45.0925 290.8435,-46.3812"/>
<polygon fill="#191970" stroke="#191970" points="265.7583,-38.9107 255.3372,-40.8215 264.6753,-45.8264 265.7583,-38.9107"/>
</g>
<!-- Node13 -->
<g id="node5" class="node">
<title>Node13</title>
<g id="a_node5"><a xlink:href="test__min__cover_8cpp.html#a7e72cb88ccf2fd9e5a2407385216081c" target="_top" xlink:title="TEST_CASE">
<polygon fill="#ffffff" stroke="#000000" points="302,-.5 302,-19.5 377,-19.5 377,-.5 302,-.5"/>
<text text-anchor="middle" x="339.5" y="-7.5" font-family="Helvetica,sans-Serif" font-size="10.00" fill="#000000">TEST_CASE</text>
</a>
</g>
</g>
<!-- Node10&#45;&gt;Node13 -->
<g id="edge4" class="edge">
<title>Node10&#45;&gt;Node13</title>
<path fill="none" stroke="#191970" d="M265.2893,-21.6202C277.7812,-19.6641 290.4408,-17.6819 301.6811,-15.9218"/>
<polygon fill="#191970" stroke="#191970" points="264.6753,-18.1736 255.3372,-23.1785 265.7583,-25.0893 264.6753,-18.1736"/>
</g>
<!-- Node12 -->
<g id="node4" class="node">
<title>Node12</title>
<g id="a_node4"><a xlink:href="test__min__cover_8cpp.html#a05c317144ac7688afb67dabb457b9910" target="_top" xlink:title="TEST_CASE">
<polygon fill="#ffffff" stroke="#000000" points="424,-44.5 424,-63.5 499,-63.5 499,-44.5 424,-44.5"/>
<text text-anchor="middle" x="461.5" y="-51.5" font-family="Helvetica,sans-Serif" font-size="10.00" fill="#000000">TEST_CASE</text>
</a>
</g>
</g>
<!-- Node11&#45;&gt;Node12 -->
<g id="edge3" class="edge">
<title>Node11&#45;&gt;Node12</title>
<path fill="none" stroke="#191970" d="M398.1606,-54C406.8182,-54 415.5387,-54 423.6232,-54"/>
<polygon fill="#191970" stroke="#191970" points="398.0682,-50.5001 388.0682,-54 398.0681,-57.5001 398.0682,-50.5001"/>
</g>
</g>
</svg>
