<?xml version="1.0" encoding="UTF-8" standalone="no"?>
<!DOCTYPE svg PUBLIC "-//W3C//DTD SVG 1.1//EN"
 "http://www.w3.org/Graphics/SVG/1.1/DTD/svg11.dtd">
<!-- Generated by graphviz version 2.40.1 (20161225.0304)
 -->
<!-- Title: xn::object Pages: 1 -->
<svg width="255pt" height="789pt"
 viewBox="0.00 0.00 255.00 789.00" xmlns="http://www.w3.org/2000/svg" xmlns:xlink="http://www.w3.org/1999/xlink">
<g id="graph0" class="graph" transform="scale(1 1) rotate(0) translate(4 785)">
<title>xn::object</title>
<polygon fill="#ffffff" stroke="transparent" points="-4,4 -4,-785 251,-785 251,4 -4,4"/>
<!-- Node0 -->
<g id="node1" class="node">
<title>Node0</title>
<polygon fill="#bfbfbf" stroke="#000000" points="89.5,-458.5 89.5,-515.5 148.5,-515.5 148.5,-458.5 89.5,-458.5"/>
<text text-anchor="middle" x="119" y="-503.5" font-family="Helvetica,sans-Serif" font-size="10.00" fill="#000000">xn::object</text>
<polyline fill="none" stroke="#000000" points="89.5,-496.5 148.5,-496.5 "/>
<text text-anchor="middle" x="119" y="-484.5" font-family="Helvetica,sans-Serif" font-size="10.00" fill="#000000"> </text>
<polyline fill="none" stroke="#000000" points="89.5,-477.5 148.5,-477.5 "/>
<text text-anchor="middle" x="119" y="-465.5" font-family="Helvetica,sans-Serif" font-size="10.00" fill="#000000"> </text>
</g>
<!-- Node3 -->
<g id="node4" class="node">
<title>Node3</title>
<g id="a_node4"><a xlink:href="classxn_1_1Graph.html" target="_top" xlink:title="{xn::Graph\&lt; nodeview\l_t, nodemap_t \&gt;\n|+ _node\l+ _node_map\l+ graph\l+ _adj\l|+ Graph()\l+ Graph()\l+ adj()\l+ get_name()\l+ set_name()\l+ begin()\land 13 more...\l}">
<polygon fill="#ffffff" stroke="#000000" points="0,-249 0,-416 110,-416 110,-249 0,-249"/>
<text text-anchor="start" x="8" y="-404" font-family="Helvetica,sans-Serif" font-size="10.00" fill="#000000">xn::Graph&lt; nodeview</text>
<text text-anchor="middle" x="55" y="-393" font-family="Helvetica,sans-Serif" font-size="10.00" fill="#000000">_t, nodemap_t &gt;</text>
<polyline fill="none" stroke="#000000" points="0,-386 110,-386 "/>
<text text-anchor="start" x="8" y="-374" font-family="Helvetica,sans-Serif" font-size="10.00" fill="#000000">+ _node</text>
<text text-anchor="start" x="8" y="-363" font-family="Helvetica,sans-Serif" font-size="10.00" fill="#000000">+ _node_map</text>
<text text-anchor="start" x="8" y="-352" font-family="Helvetica,sans-Serif" font-size="10.00" fill="#000000">+ graph</text>
<text text-anchor="start" x="8" y="-341" font-family="Helvetica,sans-Serif" font-size="10.00" fill="#000000">+ _adj</text>
<polyline fill="none" stroke="#000000" points="0,-334 110,-334 "/>
<text text-anchor="start" x="8" y="-322" font-family="Helvetica,sans-Serif" font-size="10.00" fill="#000000">+ Graph()</text>
<text text-anchor="start" x="8" y="-311" font-family="Helvetica,sans-Serif" font-size="10.00" fill="#000000">+ Graph()</text>
<text text-anchor="start" x="8" y="-300" font-family="Helvetica,sans-Serif" font-size="10.00" fill="#000000">+ adj()</text>
<text text-anchor="start" x="8" y="-289" font-family="Helvetica,sans-Serif" font-size="10.00" fill="#000000">+ get_name()</text>
<text text-anchor="start" x="8" y="-278" font-family="Helvetica,sans-Serif" font-size="10.00" fill="#000000">+ set_name()</text>
<text text-anchor="start" x="8" y="-267" font-family="Helvetica,sans-Serif" font-size="10.00" fill="#000000">+ begin()</text>
<text text-anchor="start" x="8" y="-256" font-family="Helvetica,sans-Serif" font-size="10.00" fill="#000000">and 13 more...</text>
</a>
</g>
</g>
<!-- Node0&#45;&gt;Node3 -->
<g id="edge3" class="edge">
<title>Node0&#45;&gt;Node3</title>
<path fill="none" stroke="#191970" d="M103.2794,-449.0494C99.1065,-438.9758 94.4302,-427.687 89.6746,-416.2066"/>
<polygon fill="none" stroke="#191970" points="100.0514,-450.4026 107.1121,-458.3018 106.5185,-447.7236 100.0514,-450.4026"/>
</g>
<!-- Node4 -->
<g id="node5" class="node">
<title>Node4</title>
<g id="a_node5"><a xlink:href="classxn_1_1Graph.html" target="_top" xlink:title="{xn::Graph\&lt; nodeview\l_t, nodemap_t, adjlist\l_inner_dict_factory \&gt;\n|+ _node\l+ _node_map\l+ graph\l+ _adj\l|+ Graph()\l+ Graph()\l+ adj()\l+ get_name()\l+ set_name()\l+ begin()\land 13 more...\l}">
<polygon fill="#ffffff" stroke="#000000" points="128,-243.5 128,-421.5 238,-421.5 238,-243.5 128,-243.5"/>
<text text-anchor="start" x="136" y="-409.5" font-family="Helvetica,sans-Serif" font-size="10.00" fill="#000000">xn::Graph&lt; nodeview</text>
<text text-anchor="start" x="136" y="-398.5" font-family="Helvetica,sans-Serif" font-size="10.00" fill="#000000">_t, nodemap_t, adjlist</text>
<text text-anchor="middle" x="183" y="-387.5" font-family="Helvetica,sans-Serif" font-size="10.00" fill="#000000">_inner_dict_factory &gt;</text>
<polyline fill="none" stroke="#000000" points="128,-380.5 238,-380.5 "/>
<text text-anchor="start" x="136" y="-368.5" font-family="Helvetica,sans-Serif" font-size="10.00" fill="#000000">+ _node</text>
<text text-anchor="start" x="136" y="-357.5" font-family="Helvetica,sans-Serif" font-size="10.00" fill="#000000">+ _node_map</text>
<text text-anchor="start" x="136" y="-346.5" font-family="Helvetica,sans-Serif" font-size="10.00" fill="#000000">+ graph</text>
<text text-anchor="start" x="136" y="-335.5" font-family="Helvetica,sans-Serif" font-size="10.00" fill="#000000">+ _adj</text>
<polyline fill="none" stroke="#000000" points="128,-328.5 238,-328.5 "/>
<text text-anchor="start" x="136" y="-316.5" font-family="Helvetica,sans-Serif" font-size="10.00" fill="#000000">+ Graph()</text>
<text text-anchor="start" x="136" y="-305.5" font-family="Helvetica,sans-Serif" font-size="10.00" fill="#000000">+ Graph()</text>
<text text-anchor="start" x="136" y="-294.5" font-family="Helvetica,sans-Serif" font-size="10.00" fill="#000000">+ adj()</text>
<text text-anchor="start" x="136" y="-283.5" font-family="Helvetica,sans-Serif" font-size="10.00" fill="#000000">+ get_name()</text>
<text text-anchor="start" x="136" y="-272.5" font-family="Helvetica,sans-Serif" font-size="10.00" fill="#000000">+ set_name()</text>
<text text-anchor="start" x="136" y="-261.5" font-family="Helvetica,sans-Serif" font-size="10.00" fill="#000000">+ begin()</text>
<text text-anchor="start" x="136" y="-250.5" font-family="Helvetica,sans-Serif" font-size="10.00" fill="#000000">and 13 more...</text>
</a>
</g>
</g>
<!-- Node0&#45;&gt;Node4 -->
<g id="edge4" class="edge">
<title>Node0&#45;&gt;Node4</title>
<path fill="none" stroke="#191970" d="M134.7977,-448.8633C138.2766,-440.465 142.1026,-431.229 146.0309,-421.7458"/>
<polygon fill="none" stroke="#191970" points="131.4815,-447.7236 130.8879,-458.3018 137.9486,-450.4026 131.4815,-447.7236"/>
</g>
<!-- Node1 -->
<g id="node2" class="node">
<title>Node1</title>
<g id="a_node2"><a xlink:href="classpy_1_1dict.html" target="_top" xlink:title="{py::dict\&lt; const char\l *, boost::any \&gt;\n||+ dict()\l+ dict()\l+ operator=()\l&#45; dict()\l}">
<polygon fill="#ffffff" stroke="#000000" points="67,-552.5 67,-653.5 171,-653.5 171,-552.5 67,-552.5"/>
<text text-anchor="start" x="75" y="-641.5" font-family="Helvetica,sans-Serif" font-size="10.00" fill="#000000">py::dict&lt; const char</text>
<text text-anchor="middle" x="119" y="-630.5" font-family="Helvetica,sans-Serif" font-size="10.00" fill="#000000"> *, boost::any &gt;</text>
<polyline fill="none" stroke="#000000" points="67,-623.5 171,-623.5 "/>
<text text-anchor="middle" x="119" y="-611.5" font-family="Helvetica,sans-Serif" font-size="10.00" fill="#000000"> </text>
<polyline fill="none" stroke="#000000" points="67,-604.5 171,-604.5 "/>
<text text-anchor="start" x="75" y="-592.5" font-family="Helvetica,sans-Serif" font-size="10.00" fill="#000000">+ dict()</text>
<text text-anchor="start" x="75" y="-581.5" font-family="Helvetica,sans-Serif" font-size="10.00" fill="#000000">+ dict()</text>
<text text-anchor="start" x="75" y="-570.5" font-family="Helvetica,sans-Serif" font-size="10.00" fill="#000000">+ operator=()</text>
<text text-anchor="start" x="75" y="-559.5" font-family="Helvetica,sans-Serif" font-size="10.00" fill="#000000">&#45; dict()</text>
</a>
</g>
</g>
<!-- Node1&#45;&gt;Node0 -->
<g id="edge1" class="edge">
<title>Node1&#45;&gt;Node0</title>
<path fill="none" stroke="#191970" d="M119,-542.3804C119,-533.0838 119,-523.8771 119,-515.7184"/>
<polygon fill="none" stroke="#191970" points="115.5001,-542.4581 119,-552.4582 122.5001,-542.4582 115.5001,-542.4581"/>
</g>
<!-- Node2 -->
<g id="node3" class="node">
<title>Node2</title>
<g id="a_node3"><a xlink:title="STL class. ">
<polygon fill="#ffffff" stroke="#bfbfbf" points="65,-690.5 65,-780.5 173,-780.5 173,-690.5 65,-690.5"/>
<text text-anchor="start" x="73" y="-768.5" font-family="Helvetica,sans-Serif" font-size="10.00" fill="#000000">std::unordered_map</text>
<text text-anchor="start" x="73" y="-757.5" font-family="Helvetica,sans-Serif" font-size="10.00" fill="#000000">&lt; const char *, boost</text>
<text text-anchor="middle" x="119" y="-746.5" font-family="Helvetica,sans-Serif" font-size="10.00" fill="#000000">::any &gt;</text>
<polyline fill="none" stroke="#bfbfbf" points="65,-739.5 173,-739.5 "/>
<text text-anchor="start" x="73" y="-727.5" font-family="Helvetica,sans-Serif" font-size="10.00" fill="#000000">+ keys</text>
<text text-anchor="start" x="73" y="-716.5" font-family="Helvetica,sans-Serif" font-size="10.00" fill="#000000">+ elements</text>
<polyline fill="none" stroke="#bfbfbf" points="65,-709.5 173,-709.5 "/>
<text text-anchor="middle" x="119" y="-697.5" font-family="Helvetica,sans-Serif" font-size="10.00" fill="#000000"> </text>
</a>
</g>
</g>
<!-- Node2&#45;&gt;Node1 -->
<g id="edge2" class="edge">
<title>Node2&#45;&gt;Node1</title>
<path fill="none" stroke="#191970" d="M119,-680.2098C119,-671.5051 119,-662.5409 119,-653.9407"/>
<polygon fill="none" stroke="#191970" points="115.5001,-680.2716 119,-690.2716 122.5001,-680.2716 115.5001,-680.2716"/>
</g>
<!-- Node5 -->
<g id="node6" class="node">
<title>Node5</title>
<g id="a_node6"><a xlink:href="classxn_1_1VertexView.html" target="_top" xlink:title="VertexView. ">
<polygon fill="#ffffff" stroke="#000000" points="119,-105.5 119,-206.5 247,-206.5 247,-105.5 119,-105.5"/>
<text text-anchor="middle" x="183" y="-194.5" font-family="Helvetica,sans-Serif" font-size="10.00" fill="#000000">xn::VertexView&lt; Graph &gt;</text>
<polyline fill="none" stroke="#000000" points="119,-187.5 247,-187.5 "/>
<text text-anchor="middle" x="183" y="-175.5" font-family="Helvetica,sans-Serif" font-size="10.00" fill="#000000"> </text>
<polyline fill="none" stroke="#000000" points="119,-168.5 247,-168.5 "/>
<text text-anchor="start" x="127" y="-156.5" font-family="Helvetica,sans-Serif" font-size="10.00" fill="#000000">+ VertexView()</text>
<text text-anchor="start" x="127" y="-145.5" font-family="Helvetica,sans-Serif" font-size="10.00" fill="#000000">+ begin()</text>
<text text-anchor="start" x="127" y="-134.5" font-family="Helvetica,sans-Serif" font-size="10.00" fill="#000000">+ end()</text>
<text text-anchor="start" x="127" y="-123.5" font-family="Helvetica,sans-Serif" font-size="10.00" fill="#000000">+ cbegin()</text>
<text text-anchor="start" x="127" y="-112.5" font-family="Helvetica,sans-Serif" font-size="10.00" fill="#000000">+ cend()</text>
</a>
</g>
</g>
<!-- Node4&#45;&gt;Node5 -->
<g id="edge5" class="edge">
<title>Node4&#45;&gt;Node5</title>
<path fill="none" stroke="#191970" d="M183,-233.3944C183,-224.1453 183,-215.0577 183,-206.5464"/>
<polygon fill="none" stroke="#191970" points="179.5001,-233.4743 183,-243.4744 186.5001,-233.4744 179.5001,-233.4743"/>
</g>
<!-- Node6 -->
<g id="node7" class="node">
<title>Node6</title>
<g id="a_node7"><a xlink:href="classxn_1_1grAdaptor.html" target="_top" xlink:title="grAdaptor ">
<polygon fill="#ffffff" stroke="#000000" points="123.5,-.5 123.5,-68.5 242.5,-68.5 242.5,-.5 123.5,-.5"/>
<text text-anchor="middle" x="183" y="-56.5" font-family="Helvetica,sans-Serif" font-size="10.00" fill="#000000">xn::grAdaptor&lt; Graph &gt;</text>
<polyline fill="none" stroke="#000000" points="123.5,-49.5 242.5,-49.5 "/>
<text text-anchor="middle" x="183" y="-37.5" font-family="Helvetica,sans-Serif" font-size="10.00" fill="#000000"> </text>
<polyline fill="none" stroke="#000000" points="123.5,-30.5 242.5,-30.5 "/>
<text text-anchor="start" x="131.5" y="-18.5" font-family="Helvetica,sans-Serif" font-size="10.00" fill="#000000">+ grAdaptor()</text>
<text text-anchor="start" x="131.5" y="-7.5" font-family="Helvetica,sans-Serif" font-size="10.00" fill="#000000">+ grAdaptor()</text>
</a>
</g>
</g>
<!-- Node5&#45;&gt;Node6 -->
<g id="edge6" class="edge">
<title>Node5&#45;&gt;Node6</title>
<path fill="none" stroke="#191970" d="M183,-94.9589C183,-85.8735 183,-76.7967 183,-68.5415"/>
<polygon fill="none" stroke="#191970" points="179.5001,-95.177 183,-105.1771 186.5001,-95.1771 179.5001,-95.177"/>
</g>
</g>
</svg>
