<?xml version="1.0" encoding="UTF-8" standalone="no"?>
<!DOCTYPE svg PUBLIC "-//W3C//DTD SVG 1.1//EN"
 "http://www.w3.org/Graphics/SVG/1.1/DTD/svg11.dtd">
<!-- Generated by graphviz version 2.40.1 (20161225.0304)
 -->
<!-- Title: itertest::IsIterator&lt; typename, typename &gt; Pages: 1 -->
<svg width="134pt" height="171pt"
 viewBox="0.00 0.00 134.00 171.00" xmlns="http://www.w3.org/2000/svg" xmlns:xlink="http://www.w3.org/1999/xlink">
<g id="graph0" class="graph" transform="scale(1 1) rotate(0) translate(4 167)">
<title>itertest::IsIterator&lt; typename, typename &gt;</title>
<polygon fill="#ffffff" stroke="transparent" points="-4,4 -4,-167 130,-167 130,4 -4,4"/>
<!-- Node2 -->
<g id="node1" class="node">
<title>Node2</title>
<polygon fill="#bfbfbf" stroke="#000000" points="0,-.5 0,-68.5 126,-68.5 126,-.5 0,-.5"/>
<text text-anchor="start" x="8" y="-56.5" font-family="Helvetica,sans-Serif" font-size="10.00" fill="#000000">itertest::IsIterator</text>
<text text-anchor="middle" x="63" y="-45.5" font-family="Helvetica,sans-Serif" font-size="10.00" fill="#000000">&lt; typename, typename &gt;</text>
<polyline fill="none" stroke="#000000" points="0,-38.5 126,-38.5 "/>
<text text-anchor="middle" x="63" y="-26.5" font-family="Helvetica,sans-Serif" font-size="10.00" fill="#000000"> </text>
<polyline fill="none" stroke="#000000" points="0,-19.5 126,-19.5 "/>
<text text-anchor="middle" x="63" y="-7.5" font-family="Helvetica,sans-Serif" font-size="10.00" fill="#000000"> </text>
</g>
<!-- Node3 -->
<g id="node2" class="node">
<title>Node3</title>
<polygon fill="#ffffff" stroke="#bfbfbf" points="22.5,-105.5 22.5,-162.5 103.5,-162.5 103.5,-105.5 22.5,-105.5"/>
<text text-anchor="middle" x="63" y="-150.5" font-family="Helvetica,sans-Serif" font-size="10.00" fill="#000000">std::false_type</text>
<polyline fill="none" stroke="#bfbfbf" points="22.5,-143.5 103.5,-143.5 "/>
<text text-anchor="middle" x="63" y="-131.5" font-family="Helvetica,sans-Serif" font-size="10.00" fill="#000000"> </text>
<polyline fill="none" stroke="#bfbfbf" points="22.5,-124.5 103.5,-124.5 "/>
<text text-anchor="middle" x="63" y="-112.5" font-family="Helvetica,sans-Serif" font-size="10.00" fill="#000000"> </text>
</g>
<!-- Node3&#45;&gt;Node2 -->
<g id="edge1" class="edge">
<title>Node3&#45;&gt;Node2</title>
<path fill="none" stroke="#191970" d="M63,-95.4268C63,-86.6025 63,-77.2834 63,-68.6596"/>
<polygon fill="none" stroke="#191970" points="59.5001,-95.4873 63,-105.4873 66.5001,-95.4873 59.5001,-95.4873"/>
</g>
</g>
</svg>
