<svg xmlns="http://www.w3.org/2000/svg" width="708" height="419">
  <defs>
    <clipPath id="a">
      <path fill="none" d="M0 0h708v419H0V0z"/>
    </clipPath>
  </defs>
  <g clip-path="url(#a)">
    <path fill="#FFF" d="M0 0h708v419H0z"/>
    <path fill="none" stroke="#000" paint-order="fill stroke markers" d="M74.5 225l42.4-84.8" stroke-opacity=".7" stroke-linecap="round" stroke-linejoin="round" stroke-miterlimit="10" stroke-width="2.5"/>
    <path paint-order="stroke fill markers" fill-rule="evenodd" d="M124.5 125l-3.8 17.1-7.6-3.8z" fill-opacity=".7"/>
    <path fill="none" stroke="#000" paint-order="fill stroke markers" d="M124.5 125l84.8-42.4" stroke-opacity=".7" stroke-linecap="round" stroke-linejoin="round" stroke-miterlimit="10" stroke-width="2.5"/>
    <path paint-order="stroke fill markers" fill-rule="evenodd" d="M224.5 75l-13.3 11.4-3.8-7.6z" fill-opacity=".7"/>
    <path fill="none" stroke="#000" paint-order="fill stroke markers" d="M224.5 75l84.8 42.4" stroke-opacity=".7" stroke-linecap="round" stroke-linejoin="round" stroke-miterlimit="10" stroke-width="2.5"/>
    <path paint-order="stroke fill markers" fill-rule="evenodd" d="M324.5 125l-17.1-3.8 3.8-7.6z" fill-opacity=".7"/>
    <path fill="none" stroke="#000" paint-order="fill stroke markers" d="M324.5 125l42.4 84.8" stroke-opacity=".7" stroke-linecap="round" stroke-linejoin="round" stroke-miterlimit="10" stroke-width="2.5"/>
    <path paint-order="stroke fill markers" fill-rule="evenodd" d="M374.5 225l-11.4-13.3 7.6-3.8z" fill-opacity=".7"/>
    <path fill="none" stroke="#000" paint-order="fill stroke markers" d="M374.5 225l42.4 84.8" stroke-opacity=".7" stroke-linecap="round" stroke-linejoin="round" stroke-miterlimit="10" stroke-width="2.5"/>
    <path paint-order="stroke fill markers" fill-rule="evenodd" d="M424.5 325l-11.4-13.3 7.6-3.8z" fill-opacity=".7"/>
    <path fill="none" stroke="#000" paint-order="fill stroke markers" d="M424.5 325l133.9-44.6" stroke-opacity=".7" stroke-linecap="round" stroke-linejoin="round" stroke-miterlimit="10" stroke-width="2.5"/>
    <path paint-order="stroke fill markers" fill-rule="evenodd" d="M574.5 275l-14.8 9.4-2.7-8z" fill-opacity=".7"/>
    <path fill="none" stroke="#000" paint-order="fill stroke markers" d="M574.5 275v-83" stroke-opacity=".7" stroke-linecap="round" stroke-linejoin="round" stroke-miterlimit="10" stroke-width="2.5"/>
    <path paint-order="stroke fill markers" fill-rule="evenodd" d="M574.5 175l4.2 17h-8.5z" fill-opacity=".7"/>
    <path fill="none" stroke="#000" paint-order="fill stroke markers" d="M574.5 175l-84.8-42.4" stroke-opacity=".7" stroke-linecap="round" stroke-linejoin="round" stroke-miterlimit="10" stroke-width="2.5"/>
    <path paint-order="stroke fill markers" fill-rule="evenodd" d="M474.5 125l17.1 3.8-3.8 7.6z" fill-opacity=".7"/>
    <path fill="none" stroke="#000" paint-order="fill stroke markers" d="M474.5 125l-88 88" stroke-opacity=".7" stroke-linecap="round" stroke-linejoin="round" stroke-miterlimit="10" stroke-width="2.5"/>
    <path paint-order="stroke fill markers" fill-rule="evenodd" d="M374.5 225l9-15 6 6z" fill-opacity=".7"/>
    <path fill="none" stroke="#000" paint-order="fill stroke markers" d="M374.5 225l-88 88" stroke-opacity=".7" stroke-linecap="round" stroke-linejoin="round" stroke-miterlimit="10" stroke-width="2.5"/>
    <path paint-order="stroke fill markers" fill-rule="evenodd" d="M274.5 325l9-15 6 6z" fill-opacity=".7"/>
    <path fill="none" stroke="#000" paint-order="fill stroke markers" d="M274.5 325h-83" stroke-opacity=".7" stroke-linecap="round" stroke-linejoin="round" stroke-miterlimit="10" stroke-width="2.5"/>
    <path paint-order="stroke fill markers" fill-rule="evenodd" d="M174.5 325l17-4.2v8.5z" fill-opacity=".7"/>
    <path fill="none" stroke="#000" paint-order="fill stroke markers" d="M174.5 325l-88-88" stroke-opacity=".7" stroke-linecap="round" stroke-linejoin="round" stroke-miterlimit="10" stroke-width="2.5"/>
    <path paint-order="stroke fill markers" fill-rule="evenodd" d="M74.5 225l15 9-6 6z" fill-opacity=".7"/>
    <path fill="#4D4DFF" paint-order="stroke fill markers" d="M79.5 225a5 5 0 1 1-10 0 5 5 0 0 1 10 0z"/>
    <path fill="none" stroke="#000" paint-order="fill stroke markers" d="M79.5 225a5 5 0 1 1-10 0 5 5 0 0 1 10 0z" stroke-linecap="round" stroke-linejoin="round" stroke-miterlimit="10"/>
    <path fill="#4D4DFF" paint-order="stroke fill markers" d="M129.5 125a5 5 0 1 1-10 0 5 5 0 0 1 10 0z"/>
    <path fill="none" stroke="#000" paint-order="fill stroke markers" d="M129.5 125a5 5 0 1 1-10 0 5 5 0 0 1 10 0z" stroke-linecap="round" stroke-linejoin="round" stroke-miterlimit="10"/>
    <path fill="#4D4DFF" paint-order="stroke fill markers" d="M229.5 75a5 5 0 1 1-10 0 5 5 0 0 1 10 0z"/>
    <path fill="none" stroke="#000" paint-order="fill stroke markers" d="M229.5 75a5 5 0 1 1-10 0 5 5 0 0 1 10 0z" stroke-linecap="round" stroke-linejoin="round" stroke-miterlimit="10"/>
    <path fill="#4D4DFF" paint-order="stroke fill markers" d="M329.5 125a5 5 0 1 1-10 0 5 5 0 0 1 10 0z"/>
    <path fill="none" stroke="#000" paint-order="fill stroke markers" d="M329.5 125a5 5 0 1 1-10 0 5 5 0 0 1 10 0z" stroke-linecap="round" stroke-linejoin="round" stroke-miterlimit="10"/>
    <path fill="#4D4DFF" paint-order="stroke fill markers" d="M379.5 225a5 5 0 1 1-10 0 5 5 0 0 1 10 0z"/>
    <path fill="none" stroke="#000" paint-order="fill stroke markers" d="M379.5 225a5 5 0 1 1-10 0 5 5 0 0 1 10 0z" stroke-linecap="round" stroke-linejoin="round" stroke-miterlimit="10"/>
    <path fill="#4D4DFF" paint-order="stroke fill markers" d="M429.5 325a5 5 0 1 1-10 0 5 5 0 0 1 10 0z"/>
    <path fill="none" stroke="#000" paint-order="fill stroke markers" d="M429.5 325a5 5 0 1 1-10 0 5 5 0 0 1 10 0z" stroke-linecap="round" stroke-linejoin="round" stroke-miterlimit="10"/>
    <path fill="#4D4DFF" paint-order="stroke fill markers" d="M579.5 275a5 5 0 1 1-10 0 5 5 0 0 1 10 0z"/>
    <path fill="none" stroke="#000" paint-order="fill stroke markers" d="M579.5 275a5 5 0 1 1-10 0 5 5 0 0 1 10 0z" stroke-linecap="round" stroke-linejoin="round" stroke-miterlimit="10"/>
    <path fill="#4D4DFF" paint-order="stroke fill markers" d="M579.5 175a5 5 0 1 1-10 0 5 5 0 0 1 10 0z"/>
    <path fill="none" stroke="#000" paint-order="fill stroke markers" d="M579.5 175a5 5 0 1 1-10 0 5 5 0 0 1 10 0z" stroke-linecap="round" stroke-linejoin="round" stroke-miterlimit="10"/>
    <path fill="#4D4DFF" paint-order="stroke fill markers" d="M479.5 125a5 5 0 1 1-10 0 5 5 0 0 1 10 0z"/>
    <path fill="none" stroke="#000" paint-order="fill stroke markers" d="M479.5 125a5 5 0 1 1-10 0 5 5 0 0 1 10 0z" stroke-linecap="round" stroke-linejoin="round" stroke-miterlimit="10"/>
    <path fill="#4D4DFF" paint-order="stroke fill markers" d="M279.5 325a5 5 0 1 1-10 0 5 5 0 0 1 10 0z"/>
    <path fill="none" stroke="#000" paint-order="fill stroke markers" d="M279.5 325a5 5 0 1 1-10 0 5 5 0 0 1 10 0z" stroke-linecap="round" stroke-linejoin="round" stroke-miterlimit="10"/>
    <path fill="#4D4DFF" paint-order="stroke fill markers" d="M179.5 325a5 5 0 1 1-10 0 5 5 0 0 1 10 0z"/>
    <path fill="none" stroke="#000" paint-order="fill stroke markers" d="M179.5 325a5 5 0 1 1-10 0 5 5 0 0 1 10 0z" stroke-linecap="round" stroke-linejoin="round" stroke-miterlimit="10"/>
  </g>
</svg>
