<svg xmlns="http://www.w3.org/2000/svg" width="708" height="419"><defs><clipPath id="a"><path fill="none" d="M0 0h708v419H0V0z"/></clipPath></defs><g clip-path="url(#a)"><path fill="#FFF" d="M0 0h708v419H0z"/><path fill="none" stroke="#000" stroke-linecap="round" stroke-linejoin="round" stroke-miterlimit="10" stroke-opacity=".7" stroke-width="2.5" d="m74.5 225 42.4-84.8" paint-order="fill stroke markers"/><path fill-opacity=".7" fill-rule="evenodd" d="m124.5 125-3.8 17.1-7.6-3.8z" paint-order="stroke fill markers"/><path fill="none" stroke="#000" stroke-linecap="round" stroke-linejoin="round" stroke-miterlimit="10" stroke-opacity=".7" stroke-width="2.5" d="m124.5 125 84.8-42.4" paint-order="fill stroke markers"/><path fill-opacity=".7" fill-rule="evenodd" d="m224.5 75-13.3 11.4-3.8-7.6z" paint-order="stroke fill markers"/><path fill="none" stroke="#000" stroke-linecap="round" stroke-linejoin="round" stroke-miterlimit="10" stroke-opacity=".7" stroke-width="2.5" d="m224.5 75 84.8 42.4" paint-order="fill stroke markers"/><path fill-opacity=".7" fill-rule="evenodd" d="m324.5 125-17.1-3.8 3.8-7.6z" paint-order="stroke fill markers"/><path fill="none" stroke="#000" stroke-linecap="round" stroke-linejoin="round" stroke-miterlimit="10" stroke-opacity=".7" stroke-width="2.5" d="m324.5 125 42.4 84.8" paint-order="fill stroke markers"/><path fill-opacity=".7" fill-rule="evenodd" d="m374.5 225-11.4-13.3 7.6-3.8z" paint-order="stroke fill markers"/><path fill="none" stroke="#000" stroke-linecap="round" stroke-linejoin="round" stroke-miterlimit="10" stroke-opacity=".7" stroke-width="2.5" d="m374.5 225 42.4 84.8" paint-order="fill stroke markers"/><path fill-opacity=".7" fill-rule="evenodd" d="m424.5 325-11.4-13.3 7.6-3.8z" paint-order="stroke fill markers"/><path fill="none" stroke="#000" stroke-linecap="round" stroke-linejoin="round" stroke-miterlimit="10" stroke-opacity=".7" stroke-width="2.5" d="m424.5 325 133.9-44.6" paint-order="fill stroke markers"/><path fill-opacity=".7" fill-rule="evenodd" d="m574.5 275-14.8 9.4-2.7-8z" paint-order="stroke fill markers"/><path fill="none" stroke="#000" stroke-linecap="round" stroke-linejoin="round" stroke-miterlimit="10" stroke-opacity=".7" stroke-width="2.5" d="M574.5 275v-83" paint-order="fill stroke markers"/><path fill-opacity=".7" fill-rule="evenodd" d="m574.5 175 4.2 17h-8.5z" paint-order="stroke fill markers"/><path fill="none" stroke="#000" stroke-linecap="round" stroke-linejoin="round" stroke-miterlimit="10" stroke-opacity=".7" stroke-width="2.5" d="m574.5 175-84.8-42.4" paint-order="fill stroke markers"/><path fill-opacity=".7" fill-rule="evenodd" d="m474.5 125 17.1 3.8-3.8 7.6z" paint-order="stroke fill markers"/><path fill="none" stroke="#000" stroke-linecap="round" stroke-linejoin="round" stroke-miterlimit="10" stroke-opacity=".7" stroke-width="2.5" d="m474.5 125-88 88" paint-order="fill stroke markers"/><path fill-opacity=".7" fill-rule="evenodd" d="m374.5 225 9-15 6 6z" paint-order="stroke fill markers"/><path fill="none" stroke="#000" stroke-linecap="round" stroke-linejoin="round" stroke-miterlimit="10" stroke-opacity=".7" stroke-width="2.5" d="m374.5 225-88 88" paint-order="fill stroke markers"/><path fill-opacity=".7" fill-rule="evenodd" d="m274.5 325 9-15 6 6z" paint-order="stroke fill markers"/><path fill="none" stroke="#000" stroke-linecap="round" stroke-linejoin="round" stroke-miterlimit="10" stroke-opacity=".7" stroke-width="2.5" d="M274.5 325h-83" paint-order="fill stroke markers"/><path fill-opacity=".7" fill-rule="evenodd" d="m174.5 325 17-4.2v8.5z" paint-order="stroke fill markers"/><path fill="none" stroke="#000" stroke-linecap="round" stroke-linejoin="round" stroke-miterlimit="10" stroke-opacity=".7" stroke-width="2.5" d="m174.5 325-88-88" paint-order="fill stroke markers"/><path fill-opacity=".7" fill-rule="evenodd" d="m74.5 225 15 9-6 6z" paint-order="stroke fill markers"/><path fill="#4D4DFF" d="M79.5 225a5 5 0 1 1-10 0 5 5 0 0 1 10 0z" paint-order="stroke fill markers"/><path fill="none" stroke="#000" stroke-linecap="round" stroke-linejoin="round" stroke-miterlimit="10" d="M79.5 225a5 5 0 1 1-10 0 5 5 0 0 1 10 0z" paint-order="fill stroke markers"/><path fill="#4D4DFF" d="M129.5 125a5 5 0 1 1-10 0 5 5 0 0 1 10 0z" paint-order="stroke fill markers"/><path fill="none" stroke="#000" stroke-linecap="round" stroke-linejoin="round" stroke-miterlimit="10" d="M129.5 125a5 5 0 1 1-10 0 5 5 0 0 1 10 0z" paint-order="fill stroke markers"/><path fill="#4D4DFF" d="M229.5 75a5 5 0 1 1-10 0 5 5 0 0 1 10 0z" paint-order="stroke fill markers"/><path fill="none" stroke="#000" stroke-linecap="round" stroke-linejoin="round" stroke-miterlimit="10" d="M229.5 75a5 5 0 1 1-10 0 5 5 0 0 1 10 0z" paint-order="fill stroke markers"/><path fill="#4D4DFF" d="M329.5 125a5 5 0 1 1-10 0 5 5 0 0 1 10 0z" paint-order="stroke fill markers"/><path fill="none" stroke="#000" stroke-linecap="round" stroke-linejoin="round" stroke-miterlimit="10" d="M329.5 125a5 5 0 1 1-10 0 5 5 0 0 1 10 0z" paint-order="fill stroke markers"/><path fill="#4D4DFF" d="M379.5 225a5 5 0 1 1-10 0 5 5 0 0 1 10 0z" paint-order="stroke fill markers"/><path fill="none" stroke="#000" stroke-linecap="round" stroke-linejoin="round" stroke-miterlimit="10" d="M379.5 225a5 5 0 1 1-10 0 5 5 0 0 1 10 0z" paint-order="fill stroke markers"/><path fill="#4D4DFF" d="M429.5 325a5 5 0 1 1-10 0 5 5 0 0 1 10 0z" paint-order="stroke fill markers"/><path fill="none" stroke="#000" stroke-linecap="round" stroke-linejoin="round" stroke-miterlimit="10" d="M429.5 325a5 5 0 1 1-10 0 5 5 0 0 1 10 0z" paint-order="fill stroke markers"/><path fill="#4D4DFF" d="M579.5 275a5 5 0 1 1-10 0 5 5 0 0 1 10 0z" paint-order="stroke fill markers"/><path fill="none" stroke="#000" stroke-linecap="round" stroke-linejoin="round" stroke-miterlimit="10" d="M579.5 275a5 5 0 1 1-10 0 5 5 0 0 1 10 0z" paint-order="fill stroke markers"/><path fill="#4D4DFF" d="M579.5 175a5 5 0 1 1-10 0 5 5 0 0 1 10 0z" paint-order="stroke fill markers"/><path fill="none" stroke="#000" stroke-linecap="round" stroke-linejoin="round" stroke-miterlimit="10" d="M579.5 175a5 5 0 1 1-10 0 5 5 0 0 1 10 0z" paint-order="fill stroke markers"/><path fill="#4D4DFF" d="M479.5 125a5 5 0 1 1-10 0 5 5 0 0 1 10 0z" paint-order="stroke fill markers"/><path fill="none" stroke="#000" stroke-linecap="round" stroke-linejoin="round" stroke-miterlimit="10" d="M479.5 125a5 5 0 1 1-10 0 5 5 0 0 1 10 0z" paint-order="fill stroke markers"/><path fill="#4D4DFF" d="M279.5 325a5 5 0 1 1-10 0 5 5 0 0 1 10 0z" paint-order="stroke fill markers"/><path fill="none" stroke="#000" stroke-linecap="round" stroke-linejoin="round" stroke-miterlimit="10" d="M279.5 325a5 5 0 1 1-10 0 5 5 0 0 1 10 0z" paint-order="fill stroke markers"/><path fill="#4D4DFF" d="M179.5 325a5 5 0 1 1-10 0 5 5 0 0 1 10 0z" paint-order="stroke fill markers"/><path fill="none" stroke="#000" stroke-linecap="round" stroke-linejoin="round" stroke-miterlimit="10" d="M179.5 325a5 5 0 1 1-10 0 5 5 0 0 1 10 0z" paint-order="fill stroke markers"/></g></svg>