<?xml-stylesheet href="TE_export636286493926955278.css" type="text/css"?><svg xmlns="http://www.w3.org/2000/svg" width="247pt" height="145pt" viewBox="-61.4 -31.9 123.6 72.4"><g stroke="#000" stroke-width=".5"><g fill="#CFF"><path d="M62 8.5a10.8 10.8 0 1 0-21.6 0 10.8 10.8 0 0 0 21.6 0zm-10.8 0"/><text fill="#000" stroke="none" font-size="10" text-anchor="middle" transform="translate(51.2 9.2)"><tspan font-family="cmmi">j</tspan></text></g><g fill="#CFF"><path d="M-41.2 8.5a10 10 0 1 0-20 0 10 10 0 0 0 20 0zm-10 0"/><text fill="#000" stroke="none" font-size="10" text-anchor="middle" transform="translate(-51.2 9.9)"><tspan font-family="cmmi">i</tspan></text></g><path fill="none" d="M-44 1.2c24-24.2 63.2-24.5 84.8-3"/><path stroke="none" d="M43.4.7c-.6-1-1.4-2.6-1.8-4L39.5-1c1.3.4 3 1.2 4 1.8"/><text stroke="none" font-size="10" text-anchor="middle" transform="translate(-.4 -20.7)"><tspan font-family="cmmi">d</tspan><tspan baseline-shift="sub"><tspan font-family="cmr" font-size="7">+</tspan></tspan></text><g><g stroke-dasharray="4 4"><path fill="none" d="M43.4 16.3c-24.2 24-63.4 23.7-84.8 2"/><path stroke="none" d="M-44 15.7c.6 1 1.4 2.6 1.8 4l2.1-2.2c-1.3-.3-3-1.1-3.9-1.8"/><text stroke="none" font-size="10" text-anchor="middle" transform="translate(-.4 29.7)"><tspan font-family="cmsy">-</tspan><tspan font-family="cmmi">d</tspan><tspan baseline-shift="sub"><tspan font-family="cmsy" font-size="7">-</tspan></tspan></text></g></g></g></svg>
