<?xml version="1.0" encoding="UTF-8" standalone="no"?>
<!DOCTYPE svg PUBLIC "-//W3C//DTD SVG 1.1//EN"
 "http://www.w3.org/Graphics/SVG/1.1/DTD/svg11.dtd">
<!-- Generated by graphviz version 2.40.1 (20161225.0304)
 -->
<!-- Title: xn::VertexView&lt; Graph &gt; Pages: 1 -->
<!--zoomable 781 -->
<svg id="main" version="1.1" xmlns="http://www.w3.org/2000/svg" xmlns:xlink="http://www.w3.org/1999/xlink" xml:space="preserve" onload="init(evt)">
<style type="text/css"><![CDATA[
.edge:hover path { stroke: red; }
.edge:hover polygon { stroke: red; fill: red; }
]]></style>
<script type="text/javascript"><![CDATA[
var edges = document.getElementsByTagName('g');
if (edges && edges.length) {
  for (var i=0;i<edges.length;i++) {
    if (edges[i].id.substr(0,4)=='edge') {
      edges[i].setAttribute('class','edge');
    }
  }
}
]]></script>
        <defs>
                <circle id="rim" cx="0" cy="0" r="7"/>
                <circle id="rim2" cx="0" cy="0" r="3.5"/>
                <g id="zoomPlus">
                        <use xlink:href="#rim" fill="#404040">
                                <set attributeName="fill" to="#808080" begin="zoomplus.mouseover" end="zoomplus.mouseout"/>
                        </use>
                        <path d="M-4,0h8M0,-4v8" fill="none" stroke="white" stroke-width="1.5" pointer-events="none"/>
                </g>
                <g id="zoomMin">
                        <use xlink:href="#rim" fill="#404040">
                                <set attributeName="fill" to="#808080" begin="zoomminus.mouseover" end="zoomminus.mouseout"/>
                        </use>
                        <path d="M-4,0h8" fill="none" stroke="white" stroke-width="1.5" pointer-events="none"/>
                </g>
                <g id="dirArrow">
                        <path fill="none" stroke="white" stroke-width="1.5" d="M0,-3.0v7 M-2.5,-0.5L0,-3.0L2.5,-0.5"/>
                </g>
               <g id="resetDef">
                       <use xlink:href="#rim2" fill="#404040">
                               <set attributeName="fill" to="#808080" begin="reset.mouseover" end="reset.mouseout"/>
                       </use>
               </g>
        </defs>

<script type="text/javascript">
var viewWidth = 390;
var viewHeight = 781;
var sectionId = 'dynsection-1';
</script>
<script xlink:href="svgpan.js"/>
<svg id="graph" class="graph">
<g id="viewport">
<title>xn::VertexView&lt; Graph &gt;</title>
<polygon fill="#ffffff" stroke="transparent" points="-4,4 -4,-777 385.5,-777 385.5,4 -4,4"/>
<!-- Node6 -->
<g id="node1" class="node">
<title>Node6</title>
<polygon fill="#bfbfbf" stroke="#000000" points="124,-.5 124,-101.5 252,-101.5 252,-.5 124,-.5"/>
<text text-anchor="middle" x="188" y="-89.5" font-family="Helvetica,sans-Serif" font-size="10.00" fill="#000000">xn::VertexView&lt; Graph &gt;</text>
<polyline fill="none" stroke="#000000" points="124,-82.5 252,-82.5 "/>
<text text-anchor="middle" x="188" y="-70.5" font-family="Helvetica,sans-Serif" font-size="10.00" fill="#000000"> </text>
<polyline fill="none" stroke="#000000" points="124,-63.5 252,-63.5 "/>
<text text-anchor="start" x="132" y="-51.5" font-family="Helvetica,sans-Serif" font-size="10.00" fill="#000000">+ VertexView()</text>
<text text-anchor="start" x="132" y="-40.5" font-family="Helvetica,sans-Serif" font-size="10.00" fill="#000000">+ begin()</text>
<text text-anchor="start" x="132" y="-29.5" font-family="Helvetica,sans-Serif" font-size="10.00" fill="#000000">+ end()</text>
<text text-anchor="start" x="132" y="-18.5" font-family="Helvetica,sans-Serif" font-size="10.00" fill="#000000">+ cbegin()</text>
<text text-anchor="start" x="132" y="-7.5" font-family="Helvetica,sans-Serif" font-size="10.00" fill="#000000">+ cend()</text>
</g>
<!-- Node7 -->
<g id="node2" class="node">
<title>Node7</title>
<g id="a_node2"><a xlink:href="classxn_1_1Graph.html" target="_top" xlink:title="{xn::Graph\&lt; __nodeview\l_t, adjlist_t \&gt;\n|+ _num_of_edges\l|+ Graph()\l+ Graph()\l+ adj()\l+ _nodes_nbrs()\l+ get_name()\l+ set_name()\land 17 more...\l+ end_points()\l+ end_points()\l+ null_vertex()\l}">
<polygon fill="#ffffff" stroke="#000000" points="128,-139.5 128,-306.5 248,-306.5 248,-139.5 128,-139.5"/>
<text text-anchor="start" x="136" y="-294.5" font-family="Helvetica,sans-Serif" font-size="10.00" fill="#000000">xn::Graph&lt; __nodeview</text>
<text text-anchor="middle" x="188" y="-283.5" font-family="Helvetica,sans-Serif" font-size="10.00" fill="#000000">_t, adjlist_t &gt;</text>
<polyline fill="none" stroke="#000000" points="128,-276.5 248,-276.5 "/>
<text text-anchor="start" x="136" y="-264.5" font-family="Helvetica,sans-Serif" font-size="10.00" fill="#000000">+ _num_of_edges</text>
<polyline fill="none" stroke="#000000" points="128,-257.5 248,-257.5 "/>
<text text-anchor="start" x="136" y="-245.5" font-family="Helvetica,sans-Serif" font-size="10.00" fill="#000000">+ Graph()</text>
<text text-anchor="start" x="136" y="-234.5" font-family="Helvetica,sans-Serif" font-size="10.00" fill="#000000">+ Graph()</text>
<text text-anchor="start" x="136" y="-223.5" font-family="Helvetica,sans-Serif" font-size="10.00" fill="#000000">+ adj()</text>
<text text-anchor="start" x="136" y="-212.5" font-family="Helvetica,sans-Serif" font-size="10.00" fill="#000000">+ _nodes_nbrs()</text>
<text text-anchor="start" x="136" y="-201.5" font-family="Helvetica,sans-Serif" font-size="10.00" fill="#000000">+ get_name()</text>
<text text-anchor="start" x="136" y="-190.5" font-family="Helvetica,sans-Serif" font-size="10.00" fill="#000000">+ set_name()</text>
<text text-anchor="start" x="136" y="-179.5" font-family="Helvetica,sans-Serif" font-size="10.00" fill="#000000">and 17 more...</text>
<text text-anchor="start" x="136" y="-168.5" font-family="Helvetica,sans-Serif" font-size="10.00" fill="#000000">+ end_points()</text>
<text text-anchor="start" x="136" y="-157.5" font-family="Helvetica,sans-Serif" font-size="10.00" fill="#000000">+ end_points()</text>
<text text-anchor="start" x="136" y="-146.5" font-family="Helvetica,sans-Serif" font-size="10.00" fill="#000000">+ null_vertex()</text>
</a>
</g>
</g>
<!-- Node7&#45;&gt;Node6 -->
<g id="edge1" class="edge">
<title>Node7&#45;&gt;Node6</title>
<path fill="none" stroke="#191970" d="M188,-129.0624C188,-119.6841 188,-110.4328 188,-101.7597"/>
<polygon fill="none" stroke="#191970" points="184.5001,-129.2673 188,-139.2673 191.5001,-129.2674 184.5001,-129.2673"/>
</g>
<!-- Node8 -->
<g id="node3" class="node">
<title>Node8</title>
<g id="a_node3"><a xlink:href="structxn_1_1object.html" target="_top" xlink:title="{xn::object\n||}">
<polygon fill="#ffffff" stroke="#000000" points="94.5,-354.5 94.5,-411.5 153.5,-411.5 153.5,-354.5 94.5,-354.5"/>
<text text-anchor="middle" x="124" y="-399.5" font-family="Helvetica,sans-Serif" font-size="10.00" fill="#000000">xn::object</text>
<polyline fill="none" stroke="#000000" points="94.5,-392.5 153.5,-392.5 "/>
<text text-anchor="middle" x="124" y="-380.5" font-family="Helvetica,sans-Serif" font-size="10.00" fill="#000000"> </text>
<polyline fill="none" stroke="#000000" points="94.5,-373.5 153.5,-373.5 "/>
<text text-anchor="middle" x="124" y="-361.5" font-family="Helvetica,sans-Serif" font-size="10.00" fill="#000000"> </text>
</a>
</g>
</g>
<!-- Node8&#45;&gt;Node7 -->
<g id="edge2" class="edge">
<title>Node8&#45;&gt;Node7</title>
<path fill="none" stroke="#191970" d="M139.1879,-345.0302C143.8495,-333.3762 149.1759,-320.0602 154.5568,-306.6079"/>
<polygon fill="none" stroke="#191970" points="135.9062,-343.8105 135.4419,-354.3952 142.4056,-346.4103 135.9062,-343.8105"/>
</g>
<!-- Node9 -->
<g id="node4" class="node">
<title>Node9</title>
<g id="a_node4"><a xlink:href="classpy_1_1dict.html" target="_top" xlink:title="{py::dict\&lt; const char\l *, boost::any \&gt;\n||+ dict()\l+ dict()\l+ operator=()\l&#45; dict()\l}">
<polygon fill="#ffffff" stroke="#000000" points="2,-449.5 2,-550.5 106,-550.5 106,-449.5 2,-449.5"/>
<text text-anchor="start" x="10" y="-538.5" font-family="Helvetica,sans-Serif" font-size="10.00" fill="#000000">py::dict&lt; const char</text>
<text text-anchor="middle" x="54" y="-527.5" font-family="Helvetica,sans-Serif" font-size="10.00" fill="#000000"> *, boost::any &gt;</text>
<polyline fill="none" stroke="#000000" points="2,-520.5 106,-520.5 "/>
<text text-anchor="middle" x="54" y="-508.5" font-family="Helvetica,sans-Serif" font-size="10.00" fill="#000000"> </text>
<polyline fill="none" stroke="#000000" points="2,-501.5 106,-501.5 "/>
<text text-anchor="start" x="10" y="-489.5" font-family="Helvetica,sans-Serif" font-size="10.00" fill="#000000">+ dict()</text>
<text text-anchor="start" x="10" y="-478.5" font-family="Helvetica,sans-Serif" font-size="10.00" fill="#000000">+ dict()</text>
<text text-anchor="start" x="10" y="-467.5" font-family="Helvetica,sans-Serif" font-size="10.00" fill="#000000">+ operator=()</text>
<text text-anchor="start" x="10" y="-456.5" font-family="Helvetica,sans-Serif" font-size="10.00" fill="#000000">&#45; dict()</text>
</a>
</g>
</g>
<!-- Node9&#45;&gt;Node7 -->
<g id="edge9" class="edge">
<title>Node9&#45;&gt;Node7</title>
<path fill="none" stroke="#404040" d="M42.935,-449.3802C38.9967,-420.3402 38.2467,-383.8402 51,-354 65.0525,-321.1201 91.8564,-292.5518 118.0559,-270.5583"/>
<polygon fill="none" stroke="#404040" points="118.3432,-270.3248 120.4772,-263.4366 127.6562,-262.7571 125.5223,-269.6453 118.3432,-270.3248"/>
<text text-anchor="middle" x="68" y="-380.5" font-family="Helvetica,sans-Serif" font-size="10.00" fill="#000000"> +graph</text>
</g>
<!-- Node9&#45;&gt;Node8 -->
<g id="edge3" class="edge">
<title>Node9&#45;&gt;Node8</title>
<path fill="none" stroke="#191970" d="M89.5495,-440.5816C95.5415,-430.5664 101.512,-420.587 106.7584,-411.8181"/>
<polygon fill="none" stroke="#191970" points="86.4266,-438.9842 84.2959,-449.3626 92.4336,-442.5781 86.4266,-438.9842"/>
</g>
<!-- Node10 -->
<g id="node5" class="node">
<title>Node10</title>
<g id="a_node5"><a xlink:title="STL class. ">
<polygon fill="#ffffff" stroke="#bfbfbf" points="0,-588.5 0,-667.5 108,-667.5 108,-588.5 0,-588.5"/>
<text text-anchor="start" x="8" y="-655.5" font-family="Helvetica,sans-Serif" font-size="10.00" fill="#000000">std::unordered_map</text>
<text text-anchor="start" x="8" y="-644.5" font-family="Helvetica,sans-Serif" font-size="10.00" fill="#000000">&lt; const char *, boost</text>
<text text-anchor="middle" x="54" y="-633.5" font-family="Helvetica,sans-Serif" font-size="10.00" fill="#000000">::any &gt;</text>
<polyline fill="none" stroke="#bfbfbf" points="0,-626.5 108,-626.5 "/>
<text text-anchor="middle" x="54" y="-614.5" font-family="Helvetica,sans-Serif" font-size="10.00" fill="#000000"> </text>
<polyline fill="none" stroke="#bfbfbf" points="0,-607.5 108,-607.5 "/>
<text text-anchor="middle" x="54" y="-595.5" font-family="Helvetica,sans-Serif" font-size="10.00" fill="#000000"> </text>
</a>
</g>
</g>
<!-- Node10&#45;&gt;Node9 -->
<g id="edge4" class="edge">
<title>Node10&#45;&gt;Node9</title>
<path fill="none" stroke="#191970" d="M54,-578.1972C54,-569.1496 54,-559.7033 54,-550.6321"/>
<polygon fill="none" stroke="#191970" points="50.5001,-578.2016 54,-588.2016 57.5001,-578.2017 50.5001,-578.2016"/>
</g>
<!-- Node11 -->
<g id="node6" class="node">
<title>Node11</title>
<polygon fill="#ffffff" stroke="#bfbfbf" points="12.5,-715.5 12.5,-772.5 41.5,-772.5 41.5,-715.5 12.5,-715.5"/>
<text text-anchor="middle" x="27" y="-760.5" font-family="Helvetica,sans-Serif" font-size="10.00" fill="#000000">K</text>
<polyline fill="none" stroke="#bfbfbf" points="12.5,-753.5 41.5,-753.5 "/>
<text text-anchor="middle" x="27" y="-741.5" font-family="Helvetica,sans-Serif" font-size="10.00" fill="#000000"> </text>
<polyline fill="none" stroke="#bfbfbf" points="12.5,-734.5 41.5,-734.5 "/>
<text text-anchor="middle" x="27" y="-722.5" font-family="Helvetica,sans-Serif" font-size="10.00" fill="#000000"> </text>
</g>
<!-- Node11&#45;&gt;Node10 -->
<g id="edge5" class="edge">
<title>Node11&#45;&gt;Node10</title>
<path fill="none" stroke="#404040" d="M25.2185,-715.4099C25.23,-705.9519 25.8965,-695.4365 28,-686 28.5132,-683.6978 29.122,-681.3757 29.8067,-679.0531"/>
<polygon fill="none" stroke="#404040" points="29.8689,-678.8721 28.039,-671.897 33.7738,-667.5252 35.6037,-674.5002 29.8689,-678.8721"/>
<text text-anchor="middle" x="43.5" y="-689" font-family="Helvetica,sans-Serif" font-size="10.00" fill="#000000"> +keys</text>
</g>
<!-- Node12 -->
<g id="node7" class="node">
<title>Node12</title>
<polygon fill="#ffffff" stroke="#bfbfbf" points="66.5,-715.5 66.5,-772.5 95.5,-772.5 95.5,-715.5 66.5,-715.5"/>
<text text-anchor="middle" x="81" y="-760.5" font-family="Helvetica,sans-Serif" font-size="10.00" fill="#000000">T</text>
<polyline fill="none" stroke="#bfbfbf" points="66.5,-753.5 95.5,-753.5 "/>
<text text-anchor="middle" x="81" y="-741.5" font-family="Helvetica,sans-Serif" font-size="10.00" fill="#000000"> </text>
<polyline fill="none" stroke="#bfbfbf" points="66.5,-734.5 95.5,-734.5 "/>
<text text-anchor="middle" x="81" y="-722.5" font-family="Helvetica,sans-Serif" font-size="10.00" fill="#000000"> </text>
</g>
<!-- Node12&#45;&gt;Node10 -->
<g id="edge6" class="edge">
<title>Node12&#45;&gt;Node10</title>
<path fill="none" stroke="#404040" d="M74.3258,-715.3258C71.8194,-704.5576 68.8871,-691.9593 66.0421,-679.7364"/>
<polygon fill="none" stroke="#404040" points="65.9657,-679.4079 60.7096,-674.4709 63.2452,-667.7203 68.5013,-672.6573 65.9657,-679.4079"/>
<text text-anchor="middle" x="94.5" y="-689" font-family="Helvetica,sans-Serif" font-size="10.00" fill="#000000"> +elements</text>
</g>
<!-- Node13 -->
<g id="node8" class="node">
<title>Node13</title>
<polygon fill="#ffffff" stroke="#bfbfbf" points="171.5,-354.5 171.5,-411.5 248.5,-411.5 248.5,-354.5 171.5,-354.5"/>
<text text-anchor="middle" x="210" y="-399.5" font-family="Helvetica,sans-Serif" font-size="10.00" fill="#000000">__nodeview_t</text>
<polyline fill="none" stroke="#bfbfbf" points="171.5,-392.5 248.5,-392.5 "/>
<text text-anchor="middle" x="210" y="-380.5" font-family="Helvetica,sans-Serif" font-size="10.00" fill="#000000"> </text>
<polyline fill="none" stroke="#bfbfbf" points="171.5,-373.5 248.5,-373.5 "/>
<text text-anchor="middle" x="210" y="-361.5" font-family="Helvetica,sans-Serif" font-size="10.00" fill="#000000"> </text>
</g>
<!-- Node13&#45;&gt;Node7 -->
<g id="edge7" class="edge">
<title>Node13&#45;&gt;Node7</title>
<path fill="none" stroke="#404040" d="M206.0668,-354.3952C204.638,-344.0035 202.9333,-331.6055 201.1501,-318.637"/>
<polygon fill="none" stroke="#404040" points="201.1308,-318.4961 196.3507,-313.0969 199.4961,-306.6079 204.2762,-312.0071 201.1308,-318.4961"/>
<text text-anchor="middle" x="222" y="-328" font-family="Helvetica,sans-Serif" font-size="10.00" fill="#000000"> +_node</text>
</g>
<!-- Node14 -->
<g id="node9" class="node">
<title>Node14</title>
<polygon fill="#ffffff" stroke="#bfbfbf" points="266.5,-354.5 266.5,-411.5 381.5,-411.5 381.5,-354.5 266.5,-354.5"/>
<text text-anchor="middle" x="324" y="-399.5" font-family="Helvetica,sans-Serif" font-size="10.00" fill="#000000">std::vector&lt; adjlist_t &gt;</text>
<polyline fill="none" stroke="#bfbfbf" points="266.5,-392.5 381.5,-392.5 "/>
<text text-anchor="start" x="274.5" y="-380.5" font-family="Helvetica,sans-Serif" font-size="10.00" fill="#000000">+ elements</text>
<polyline fill="none" stroke="#bfbfbf" points="266.5,-373.5 381.5,-373.5 "/>
<text text-anchor="middle" x="324" y="-361.5" font-family="Helvetica,sans-Serif" font-size="10.00" fill="#000000"> </text>
</g>
<!-- Node14&#45;&gt;Node7 -->
<g id="edge8" class="edge">
<title>Node14&#45;&gt;Node7</title>
<path fill="none" stroke="#404040" d="M299.6859,-354.3952C287.3328,-339.8621 271.644,-321.4047 255.9582,-302.9509"/>
<polygon fill="none" stroke="#404040" points="255.7961,-302.7601 248.8624,-300.779 248.0243,-293.6168 254.9579,-295.5978 255.7961,-302.7601"/>
<text text-anchor="middle" x="297" y="-328" font-family="Helvetica,sans-Serif" font-size="10.00" fill="#000000"> +_adj</text>
</g>
</g>
</svg>
        <g id="navigator" transform="translate(0 0)" fill="#404254">
                <rect fill="#f2f5e9" fill-opacity="0.5" stroke="#606060" stroke-width=".5" x="0" y="0" width="60" height="60"/>
                <use id="zoomplus" xlink:href="#zoomPlus" x="17" y="9" onmousedown="handleZoom(evt,'in')"/>
                <use id="zoomminus" xlink:href="#zoomMin" x="42" y="9" onmousedown="handleZoom(evt,'out')"/>
                <use id="reset" xlink:href="#resetDef" x="30" y="36" onmousedown="handleReset()"/>
                <g id="arrowUp" xlink:href="#dirArrow" transform="translate(30 24)" onmousedown="handlePan(0,-1)">
                  <use xlink:href="#rim" fill="#404040">
                        <set attributeName="fill" to="#808080" begin="arrowUp.mouseover" end="arrowUp.mouseout"/>
                  </use>
                  <path fill="none" stroke="white" stroke-width="1.5" d="M0,-3.0v7 M-2.5,-0.5L0,-3.0L2.5,-0.5"/>
                </g>
                <g id="arrowRight" xlink:href="#dirArrow" transform="rotate(90) translate(36 -43)" onmousedown="handlePan(1,0)">
                  <use xlink:href="#rim" fill="#404040">
                        <set attributeName="fill" to="#808080" begin="arrowRight.mouseover" end="arrowRight.mouseout"/>
                  </use>
                  <path fill="none" stroke="white" stroke-width="1.5" d="M0,-3.0v7 M-2.5,-0.5L0,-3.0L2.5,-0.5"/>
                </g>
                <g id="arrowDown" xlink:href="#dirArrow" transform="rotate(180) translate(-30 -48)" onmousedown="handlePan(0,1)">
                  <use xlink:href="#rim" fill="#404040">
                        <set attributeName="fill" to="#808080" begin="arrowDown.mouseover" end="arrowDown.mouseout"/>
                  </use>
                  <path fill="none" stroke="white" stroke-width="1.5" d="M0,-3.0v7 M-2.5,-0.5L0,-3.0L2.5,-0.5"/>
                </g>
                <g id="arrowLeft" xlink:href="#dirArrow" transform="rotate(270) translate(-36 17)" onmousedown="handlePan(-1,0)">
                  <use xlink:href="#rim" fill="#404040">
                        <set attributeName="fill" to="#808080" begin="arrowLeft.mouseover" end="arrowLeft.mouseout"/>
                  </use>
                  <path fill="none" stroke="white" stroke-width="1.5" d="M0,-3.0v7 M-2.5,-0.5L0,-3.0L2.5,-0.5"/>
                </g>
        </g>
        <svg viewBox="0 0 15 15" width="100%" height="30px" preserveAspectRatio="xMaxYMin meet">
         <g id="arrow_out" transform="scale(0.3 0.3)">
          <a xlink:href="classxn_1_1VertexView__coll__graph_org.svg" target="_base">
           <rect id="button" ry="5" rx="5" y="6" x="6" height="38" width="38"
                fill="#f2f5e9" fill-opacity="0.5" stroke="#606060" stroke-width="1.0"/>
           <path id="arrow"
             d="M 11.500037,31.436501 C 11.940474,20.09759 22.043105,11.32322 32.158766,21.979434 L 37.068811,17.246167 C 37.068811,17.246167 37.088388,32 37.088388,32 L 22.160133,31.978069 C 22.160133,31.978069 26.997745,27.140456 26.997745,27.140456 C 18.528582,18.264221 13.291696,25.230495 11.500037,31.436501 z"
             style="fill:#404040;"/>
          </a>
         </g>
        </svg>
</svg>
