<?xml version="1.0" encoding="UTF-8" standalone="no"?>
<!DOCTYPE svg PUBLIC "-//W3C//DTD SVG 1.1//EN"
 "http://www.w3.org/Graphics/SVG/1.1/DTD/svg11.dtd">
<!-- Generated by graphviz version 2.40.1 (20161225.0304)
 -->
<!-- Title: fun::operator* Pages: 1 -->
<svg width="563pt" height="110pt"
 viewBox="0.00 0.00 563.00 109.50" xmlns="http://www.w3.org/2000/svg" xmlns:xlink="http://www.w3.org/1999/xlink">
<g id="graph0" class="graph" transform="scale(1 1) rotate(0) translate(4 105.5)">
<title>fun::operator*</title>
<polygon fill="#ffffff" stroke="transparent" points="-4,4 -4,-105.5 559,-105.5 559,4 -4,4"/>
<!-- Node10 -->
<g id="node1" class="node">
<title>Node10</title>
<polygon fill="#bfbfbf" stroke="#000000" points="0,-38.5 0,-57.5 75,-57.5 75,-38.5 0,-38.5"/>
<text text-anchor="middle" x="37.5" y="-45.5" font-family="Helvetica,sans-Serif" font-size="10.00" fill="#000000">fun::operator*</text>
</g>
<!-- Node11 -->
<g id="node2" class="node">
<title>Node11</title>
<g id="a_node2"><a xlink:href="namespacepy.html#a13b079f9cc2ef2797f2908169c6e24c4" target="_top" xlink:title="py::enumerate">
<polygon fill="#ffffff" stroke="#000000" points="136,-76.5 136,-95.5 215,-95.5 215,-76.5 136,-76.5"/>
<text text-anchor="middle" x="175.5" y="-83.5" font-family="Helvetica,sans-Serif" font-size="10.00" fill="#000000">py::enumerate</text>
</a>
</g>
</g>
<!-- Node10&#45;&gt;Node11 -->
<g id="edge1" class="edge">
<title>Node10&#45;&gt;Node11</title>
<path fill="none" stroke="#191970" d="M81.973,-60.2462C100.9946,-65.484 122.8751,-71.5091 140.6879,-76.4141"/>
<polygon fill="#191970" stroke="#191970" points="82.8936,-56.8695 72.3232,-57.589 81.0352,-63.6183 82.8936,-56.8695"/>
</g>
<!-- Node14 -->
<g id="node5" class="node">
<title>Node14</title>
<g id="a_node5"><a xlink:href="structpy_1_1key__iterator.html#aa3d0870a9e5960e863d56d908be2ef66" target="_top" xlink:title="py::key_iterator::operator*">
<polygon fill="#ffffff" stroke="#000000" points="111,-38.5 111,-57.5 240,-57.5 240,-38.5 111,-38.5"/>
<text text-anchor="middle" x="175.5" y="-45.5" font-family="Helvetica,sans-Serif" font-size="10.00" fill="#000000">py::key_iterator::operator*</text>
</a>
</g>
</g>
<!-- Node10&#45;&gt;Node14 -->
<g id="edge4" class="edge">
<title>Node10&#45;&gt;Node14</title>
<path fill="none" stroke="#191970" d="M85.3342,-48C93.5462,-48 102.2011,-48 110.768,-48"/>
<polygon fill="#191970" stroke="#191970" points="85.2091,-44.5001 75.2091,-48 85.2091,-51.5001 85.2091,-44.5001"/>
</g>
<!-- Node15 -->
<g id="node6" class="node">
<title>Node15</title>
<g id="a_node6"><a xlink:href="namespacepy.html#a6c0a41716a24bed07cbf8b2d84132f96" target="_top" xlink:title="py::range">
<polygon fill="#ffffff" stroke="#000000" points="147,-.5 147,-19.5 204,-19.5 204,-.5 147,-.5"/>
<text text-anchor="middle" x="175.5" y="-7.5" font-family="Helvetica,sans-Serif" font-size="10.00" fill="#000000">py::range</text>
</a>
</g>
</g>
<!-- Node10&#45;&gt;Node15 -->
<g id="edge5" class="edge">
<title>Node10&#45;&gt;Node15</title>
<path fill="none" stroke="#191970" d="M82.097,-35.7197C103.3078,-29.879 128.05,-23.0659 146.7387,-17.9198"/>
<polygon fill="#191970" stroke="#191970" points="81.0352,-32.3817 72.3232,-38.411 82.8936,-39.1305 81.0352,-32.3817"/>
</g>
<!-- Node12 -->
<g id="node3" class="node">
<title>Node12</title>
<g id="a_node3"><a xlink:href="classxn_1_1Graph.html#ac61f2ed63257c380e07e073a99c05659" target="_top" xlink:title="xn::Graph\&lt; nodeview\l_t, adjlist_t \&gt;::_nodes_nbrs">
<polygon fill="#ffffff" stroke="#000000" points="276,-71 276,-101 411,-101 411,-71 276,-71"/>
<text text-anchor="start" x="284" y="-89" font-family="Helvetica,sans-Serif" font-size="10.00" fill="#000000">xn::Graph&lt; nodeview</text>
<text text-anchor="middle" x="343.5" y="-78" font-family="Helvetica,sans-Serif" font-size="10.00" fill="#000000">_t, adjlist_t &gt;::_nodes_nbrs</text>
</a>
</g>
</g>
<!-- Node11&#45;&gt;Node12 -->
<g id="edge2" class="edge">
<title>Node11&#45;&gt;Node12</title>
<path fill="none" stroke="#191970" d="M225.3812,-86C241.1712,-86 258.899,-86 275.7241,-86"/>
<polygon fill="#191970" stroke="#191970" points="225.3137,-82.5001 215.3137,-86 225.3136,-89.5001 225.3137,-82.5001"/>
</g>
<!-- Node13 -->
<g id="node4" class="node">
<title>Node13</title>
<g id="a_node4"><a xlink:href="classxn_1_1DiGraphS.html#acdf360190e9b12ba1058d6bcf594d8eb" target="_top" xlink:title="xn::DiGraphS::edges">
<polygon fill="#ffffff" stroke="#000000" points="447,-76.5 447,-95.5 555,-95.5 555,-76.5 447,-76.5"/>
<text text-anchor="middle" x="501" y="-83.5" font-family="Helvetica,sans-Serif" font-size="10.00" fill="#000000">xn::DiGraphS::edges</text>
</a>
</g>
</g>
<!-- Node12&#45;&gt;Node13 -->
<g id="edge3" class="edge">
<title>Node12&#45;&gt;Node13</title>
<path fill="none" stroke="#191970" d="M421.2537,-86C429.838,-86 438.4381,-86 446.6458,-86"/>
<polygon fill="#191970" stroke="#191970" points="421.2083,-82.5001 411.2082,-86 421.2082,-89.5001 421.2083,-82.5001"/>
</g>
<!-- Node16 -->
<g id="node7" class="node">
<title>Node16</title>
<g id="a_node7"><a xlink:href="namespacepy.html#a60b1464018ad9d097a2657f82cd62da7" target="_top" xlink:title="py::range">
<polygon fill="#ffffff" stroke="#000000" points="315,-.5 315,-19.5 372,-19.5 372,-.5 315,-.5"/>
<text text-anchor="middle" x="343.5" y="-7.5" font-family="Helvetica,sans-Serif" font-size="10.00" fill="#000000">py::range</text>
</a>
</g>
</g>
<!-- Node15&#45;&gt;Node16 -->
<g id="edge6" class="edge">
<title>Node15&#45;&gt;Node16</title>
<path fill="none" stroke="#191970" d="M214.7306,-10C245.4419,-10 287.4333,-10 314.9966,-10"/>
<polygon fill="#191970" stroke="#191970" points="214.3803,-6.5001 204.3802,-10 214.3802,-13.5001 214.3803,-6.5001"/>
</g>
</g>
</svg>
