<svg xmlns="http://www.w3.org/2000/svg" xmlns:xlink="http://www.w3.org/1999/xlink" width="768" height="576" viewBox="0 0 576 432"><defs><style>*{stroke-linecap:butt;stroke-linejoin:round}</style></defs><g id="figure_1"><path d="M0 432h576V0H0z" style="fill:#fff" id="patch_1"/><g id="axes_1"><path d="m144 369.36 21.262-29.867M144 369.36l42.525-14.933M295.2 268.56l4.725 29.867M295.2 268.56l40.163 14.933M295.2 268.56l-37.8 33.6m37.8-33.6 21.262-29.867M295.2 268.56l-14.175-26.133M295.2 268.56l-16.537 3.733m16.537-3.733-7.087-46.044m7.087 46.044 42.525-14.933M219.6 167.76l4.725 29.867M219.6 167.76l40.162 14.933M219.6 167.76l42.525-14.933M219.6 167.76l21.263-29.867M219.6 167.76l-16.537 37.333M219.6 167.76l-23.625 7.467m23.625-7.467-42.525-7.467m42.525 7.467-28.35-22.4m28.35 22.4-7.088-12.444M370.8 335.76l42.525-14.933M370.8 335.76l21.262-29.867M370.8 335.76l-14.175 7.467m14.175-7.467-28.35-22.4m28.35 22.4-42.525-7.467m42.525 7.467 28.35 29.867M370.8 335.76l-7.088-12.444M181.8 234.96l-35.438 14.933M181.8 234.96l-14.175-14.933M181.8 234.96l21.262-29.867M181.8 234.96l-28.35-44.8m28.35 44.8-7.088-34.844m7.088 34.844-9.45 44.8m9.45-44.8 28.35 29.867M333 134.16l-35.438 14.933M333 134.16l-14.175-14.933M333 134.16l21.262-29.867M333 134.16l-28.35-44.8m28.35 44.8-7.087-34.844M333 134.16l-9.45 44.8m9.45-44.8 28.35 29.867M257.4 302.16l37.8-33.6m-37.8 33.6-35.437 14.933M257.4 302.16l42.525-3.733M257.4 302.16l-18.9-44.8m18.9 44.8-28.35 44.8m28.35-44.8 21.263-29.867M257.4 302.16l-25.987-34.844M257.4 302.16l-42.525-7.467m42.525 7.467-14.175-14.933M257.4 302.16l28.35 29.867M408.6 201.36l-28.35 44.8m28.35-44.8-25.988-34.844M408.6 201.36l-14.175-14.933M408.6 201.36l-18.9-44.8m18.9 44.8 21.262-29.867M408.6 201.36l-35.438 14.933M408.6 201.36l-42.525-7.467m42.525 7.467 28.35 29.867M162.9 100.56l-14.175 29.867M162.9 100.56l21.262 14.933M162.9 100.56l28.35 44.8m-28.35-44.8-7.088-29.867m7.088 29.867 42.525-14.933M314.1 358.16l42.525-14.933M314.1 358.16l-7.088 9.956m7.088-9.956 28.35-44.8m-28.35 44.8-42.525 3.733m42.525-3.733 14.175-29.867M314.1 358.16l-28.35-26.133M238.5 257.36l18.9 44.8m-18.9-44.8-23.625 37.333M238.5 257.36l4.725 29.867M238.5 257.36l40.163 14.933M238.5 257.36l-7.088 9.956m7.088-9.956 42.525-14.933M238.5 257.36l28.35-44.8m-28.35 44.8 14.175-29.867M238.5 257.36l-28.35 7.467M389.7 156.56l18.9 44.8m-18.9-44.8 42.525-14.933M389.7 156.56l4.725 29.867M389.7 156.56l-28.35 7.467m28.35-7.467 40.163 14.933M389.7 156.56l-7.087 9.956m7.087-9.956 28.35-44.8m-28.35 44.8 14.175-29.867M389.7 156.56l-23.625 37.333M200.7 324.56l21.263-7.467M200.7 324.56l-14.175 29.867M200.7 324.56l-35.438 14.933M200.7 324.56l-42.525-14.933M200.7 324.56l28.35 22.4m-28.35-22.4-7.087 9.956m7.087-9.956-28.35-44.8m28.35 44.8 14.175-29.867M351.9 223.76l21.263-7.467M351.9 223.76l-14.175 29.867M351.9 223.76l-35.438 14.933M351.9 223.76l-42.525-14.933M351.9 223.76l28.35 22.4m-28.35-22.4-7.087 9.956m7.087-9.956-28.35-44.8m28.35 44.8 14.175-29.867M276.3 122.96l21.262 26.133M276.3 122.96l-14.175 29.867M276.3 122.96l42.525-3.733M276.3 122.96l-35.438 14.933M276.3 122.96l28.35-33.6m-28.35 33.6-42.525-14.933M276.3 122.96l-7.088 9.956m7.088-9.956-28.35-44.8m28.35 44.8 14.175-29.867M427.5 290.96l-14.175 29.867M427.5 290.96l-35.438 14.933M427.5 290.96l-42.525-14.933M427.5 290.96l-7.087 9.956m7.087-9.956-4.725-29.867m4.725 29.867-25.988-34.844M153.45 190.16l28.35 44.8m-28.35-44.8 14.175 29.867M153.45 190.16l49.613 14.933M153.45 190.16l23.625-29.867M153.45 190.16l42.525-14.933M153.45 190.16l21.263 9.956M304.65 89.36l28.35 44.8m-28.35-44.8 14.175 29.867M304.65 89.36l49.613 14.933M304.65 89.36l-28.35 33.6m28.35-33.6 42.525-14.933M304.65 89.36l21.263 9.956M304.65 89.36l-14.175 3.733M229.05 346.96l-7.088-29.867m7.088 29.867-42.525 7.467m42.525-7.467 28.35-44.8m-28.35 44.8-28.35-22.4m28.35 22.4-35.438-12.444m35.438 12.444 42.525 14.933M229.05 346.96l21.262 9.956m-21.262-9.956-14.175-52.267M380.25 246.16l-7.087-29.867m7.087 29.867-42.525 7.467m42.525-7.467 28.35-44.8m-28.35 44.8-28.35-22.4m28.35 22.4 4.725 29.867m-4.725-29.867-35.438-12.444m35.438 12.444 42.525 14.933M380.25 246.16l21.262 9.956m-21.262-9.956-14.175-52.267M191.25 145.36l-42.525-14.933m42.525 14.933 28.35 22.4m-28.35-22.4-7.088-29.867m7.088 29.867-28.35-44.8m28.35 44.8 49.613-7.467m-49.613 7.467 4.725 29.867m-4.725-29.867-14.175 14.933m14.175-14.933 21.262 9.956M342.45 313.36l-42.525-14.933m42.525 14.933 28.35 22.4m-28.35-22.4-7.087-29.867m7.087 29.867-28.35 44.8m28.35-44.8 49.613-7.467m-49.613 7.467 14.175 29.867M342.45 313.36l-14.175 14.933m14.175-14.933 21.262 9.956M266.85 212.56l35.438-23.644M266.85 212.56l-42.525-14.933m42.525 14.933-7.088-29.867m7.088 29.867-28.35 44.8m28.35-44.8 14.175 29.867M266.85 212.56l42.525-3.733m-42.525 3.733-14.175 14.933m14.175-14.933 21.262 9.956M418.05 111.76l-42.525-14.933m42.525 14.933-7.088-29.867m7.088 29.867-28.35 44.8m28.35-44.8 14.175 29.867M418.05 111.76l-14.175 14.933m14.175-14.933 21.262 9.956M172.35 279.76l-21.262 9.956m21.262-9.956-25.987-29.867m25.987 29.867 9.45-44.8m-9.45 44.8 37.8-14.933m-37.8 14.933 28.35 44.8m-28.35-44.8-14.175 29.867m14.175-29.867 42.525 14.933M323.55 178.96l-25.988-29.867m25.988 29.867 9.45-44.8m-9.45 44.8-21.262 9.956m21.262-9.956 28.35 44.8m-28.35-44.8 37.8-14.933m-37.8 14.933-14.175 29.867m14.175-29.867 42.525 14.933M247.95 78.16l-14.175 29.867M247.95 78.16l-42.525 7.467m42.525-7.467 28.35 44.8m-28.35-44.8 42.525 14.933M399.15 365.627l14.175-44.8m-14.175 44.8L370.8 335.76m28.35 29.867-42.525-22.4m42.525 22.4 42.525-14.934M210.15 264.827l11.813 52.266m-11.813-52.266L181.8 234.96m28.35 29.867 33.075 22.4m-33.075-22.4 21.262 2.489m-21.262-2.489-37.8 14.933m37.8-14.933 4.725 29.866m-4.725-29.866 28.35-7.467m122.85-93.333 11.813 52.266m-11.813-52.266 33.075 22.4m-33.075-22.4L333 134.16m28.35 29.867 28.35-7.467m-28.35 7.467 21.262 2.489m-21.262-2.489-37.8 14.933m37.8-14.933 4.725 29.866M285.75 332.027l14.175-33.6m-14.175 33.6L257.4 302.16m28.35 29.867 28.35 26.133m-28.35-26.133 21.262 36.089m-21.262-36.089-14.175 29.866m14.175-29.866 42.525-3.734m-42.525 3.734-35.438 24.889M436.95 231.227l-14.175 29.866m14.175-29.866-35.438 24.889m35.438-24.889L408.6 201.36m-259.875-70.933L162.9 100.56m-14.175 29.867 42.525 14.933m-42.525-14.933 35.438-14.934m-35.438 14.934 28.35 29.866m122.85 138.134L295.2 268.56m4.725 29.867 35.438-14.934m-35.438 14.934L257.4 302.16m42.525-3.733-21.262-26.134m21.262 26.134 42.525 14.933m-42.525-14.933 28.35 29.866m-28.35-29.866-14.175 33.6m-61.425-134.4L219.6 167.76m4.725 29.867 35.438-14.934m-35.438 14.934-21.262 7.466m21.262-7.466-28.35-22.4m28.35 22.4 42.525 14.933m-42.525-14.933-49.612 2.489m49.612-2.489 28.35 29.866m-28.35-29.866-11.813-42.311m163.013-58.489 35.438-14.934m-35.438 14.934-21.262 7.466m21.262-7.466-28.35-22.4m28.35 22.4 42.525 14.933m-42.525-14.933-49.612 2.489m49.612-2.489 28.35 29.866m-217.35 227.734L144 369.36m42.525-14.933 35.438-37.334m-35.438 37.334-21.263-14.934m21.263 14.934L200.7 324.56m-14.175 29.867-28.35-44.8m28.35 44.8 42.525-7.467m-42.525 7.467 7.088-19.911m144.112-80.889L295.2 268.56m42.525-14.933 35.438-37.334m-35.438 37.334-2.363 29.866m2.363-29.866 47.25 22.4m-47.25-22.4-21.263-14.934m21.263 14.934L351.9 223.76m-14.175 29.867-28.35-44.8m28.35 44.8 42.525-7.467m-42.525 7.467 7.087-19.911m-82.687-80.889 40.163 36.089m-40.163-36.089L219.6 167.76m42.525-14.933-2.363 29.866m2.363-29.866 35.438-3.734m-35.438 3.734-21.262-14.934m21.262 14.934L276.3 122.96m-14.175 29.867-28.35-44.8m28.35 44.8 7.087-19.911m-7.087 19.911-49.613 2.489m200.813 165.511L370.8 335.76m42.525-14.933-21.262-14.934m21.262 14.934L427.5 290.96m-14.175 29.867-28.35-44.8m28.35 44.8 7.088-19.911m-7.088 19.911-14.175 44.8m14.175-44.8-49.613 2.489m49.613-2.489 28.35 29.866m-274.05-130.666-21.262 29.866m21.262-29.866L181.8 234.96m-14.175-14.933 35.438-14.934m-35.438 14.934L153.45 190.16m14.175 29.867 28.35-44.8m-28.35 44.8 7.088-19.911m144.112-80.889-21.262 29.866m21.262-29.866L333 134.16m-14.175-14.933 35.438-14.934m-35.438 14.934L276.3 122.96m42.525-3.733L304.65 89.36m14.175 29.867 28.35-44.8m-28.35 44.8-49.613 13.689m49.613-13.689 7.088-19.911m-7.088 19.911-28.35-26.134m-47.25 194.134-21.262 29.866m21.262-29.866L257.4 302.16m-14.175-14.933-33.075-22.4m33.075 22.4L238.5 257.36m4.725 29.867 35.438-14.934m-35.438 14.934-11.813-19.911m11.813 19.911-28.35 7.466m179.55-108.266-21.262 29.866m21.262-29.866L408.6 201.36m-14.175-14.933L389.7 156.56m4.725 29.867-28.35 7.466m28.35-7.466 35.438-14.934m-35.438 14.934-11.813-19.911m11.813 19.911-33.075-22.4m-155.925-78.4-49.613-14.934m49.613 14.934L162.9 100.56m42.525-14.933 42.525-7.467m-42.525 7.467-21.263 29.866m21.263-29.866 28.35 22.4m122.85 235.2 14.175-7.467m-14.175 7.467L314.1 358.16m42.525-14.933 35.438-37.334m-35.438 37.334L342.45 313.36m14.175 29.867-28.35-14.934m28.35 14.934 42.525 22.4m-42.525-22.4 7.087-19.911m-82.687-80.889L295.2 268.56m-14.175-26.133 35.438-3.734m-35.438 3.734L238.5 257.36m42.525-14.933-2.362 29.866m2.362-29.866 28.35-33.6m-28.35 33.6L266.85 212.56m14.175 29.867-28.35-14.934m28.35 14.934 7.088-19.911m144.112-80.889L418.05 111.76m14.175 29.867-28.35-14.934m28.35 14.934 7.087-19.911m-7.087 19.911L389.7 156.56m42.525-14.933-2.363 29.866M158.175 309.627l-7.088-19.911m7.088 19.911 28.35 44.8m-28.35-44.8 7.087 29.866m-7.087-29.866L200.7 324.56m-42.525-14.933 35.438 24.889m-35.438-24.889 14.175-29.867m137.025-70.933-7.087-19.911m7.087 19.911 28.35 44.8m-28.35-44.8 7.087 29.866m-7.087-29.866L351.9 223.76m-42.525-14.933-28.35 33.6m28.35-33.6 35.438 24.889m-35.438-24.889-42.525 3.733m42.525-3.733 14.175-29.867m-14.175 29.867-21.262 13.689m-54.338-114.489-49.613 7.466m49.613-7.466 28.35 44.8m-28.35-44.8 7.088 29.866m-7.088-29.866-28.35-22.4m28.35 22.4L276.3 122.96m-42.525-14.933 35.437 24.889m-35.437-24.889L247.95 78.16m-14.175 29.867-21.263 47.289m172.463 120.711-47.25-22.4m47.25 22.4 28.35 44.8m-28.35-44.8 7.087 29.866m-7.087-29.866L427.5 290.96m-42.525-14.933-4.725-29.867m4.725 29.867 35.438 24.889m-35.438-24.889 37.8-14.934m-37.8 14.934 16.537-19.911m-16.537 19.911-21.263 47.289m21.263-47.289-49.613 7.466M195.975 175.227l28.35 22.4m-28.35-22.4-28.35 44.8m28.35-44.8 7.088 29.866m-7.088-29.866 23.625-7.467m-23.625 7.467L153.45 190.16m42.525-14.933-21.262 24.889m21.262-24.889-4.725-29.867m4.725 29.867-18.9-14.934m18.9 14.934 16.537-19.911m134.663-80.889-21.262 24.889m21.262-24.889-28.35 44.8m28.35-44.8 28.35 22.4m-28.35-22.4 7.087 29.866m-7.087-29.866L304.65 89.36m-33.075 272.533 42.525-3.733m-42.525 3.733-21.262-4.977m21.262 4.977L229.05 346.96m42.525 14.933 14.175-29.866m-14.175 29.866 35.438 6.223m115.762-107.023-37.8 14.934m37.8-14.934-30.712 44.8m30.712-44.8 4.725 29.867m-4.725-29.867L380.25 246.16m42.525 14.933-2.362 39.823m2.362-39.823-21.262-4.977m21.262 4.977 14.175-29.866m-259.875-70.934-28.35-29.866m28.35 29.866 42.525 7.467m-42.525-7.467 7.088-44.8m-7.088 44.8 25.988 44.8m-25.988-44.8L153.45 190.16m23.625-29.867 18.9 14.934m-18.9-14.934-2.362 39.823m2.362-39.823 14.175-14.933m-14.175 14.933 35.438-4.977m115.762 172.977-28.35-29.866m28.35 29.866 42.525 7.467m-42.525-7.467 7.088-44.8m-7.088 44.8L314.1 358.16m14.175-29.867 28.35 14.934m-28.35-14.934-21.262 39.823m21.262-39.823 14.175-14.933m-14.175 14.933 35.438-4.977m-35.438 4.977-42.525 3.734m-33.075-104.534-28.35-29.866m28.35 29.866 7.087-44.8m-7.087 44.8L238.5 257.36m14.175-29.867 28.35 14.934m-28.35-14.934-21.263 39.823m21.263-39.823 25.988 44.8m-25.988-44.8 14.175-14.933m-14.175 14.933 35.438-4.977m115.762-95.823-28.35-29.866m28.35 29.866 7.087-44.8m-7.087 44.8L389.7 156.56m14.175-29.867 28.35 14.934m-28.35-14.934-21.262 39.823m21.262-39.823 14.175-14.933m-14.175 14.933 25.988 44.8m-25.988-44.8 35.438-4.977M214.875 294.693l7.088 22.4m-7.088-22.4 42.525 7.467m-42.525-7.467L238.5 257.36m-23.625 37.333L200.7 324.56m14.175-29.867 16.537-27.377m-16.537 27.377 14.175 52.267m-14.175-52.267-21.262 39.823m21.262-39.823L172.35 279.76m42.525 14.933-4.725-29.866m4.725 29.866 28.35-7.466m122.85-93.334 14.175 52.267m-14.175-52.267 16.538-27.377m-16.538 27.377 28.35-7.466m-28.35 7.466 42.525 7.467m-42.525-7.467L389.7 156.56m-23.625 37.333L351.9 223.76m14.175-29.867 7.088 22.4m-7.088-22.4-21.262 39.823m21.262-39.823L323.55 178.96m42.525 14.933-4.725-29.866m-70.875-70.934 28.35 26.134m-28.35-26.134L276.3 122.96m14.175-29.867 14.175-3.733m-14.175 3.733-21.263 39.823m21.263-39.823 35.438 6.223m-35.438-6.223L247.95 78.16m193.725 272.533-21.262-49.777m21.262 49.777-42.525 14.934m42.525-14.934-28.35-29.866m-266.962-70.934 25.987 29.867m-25.987-29.867 21.262-29.866m-21.262 29.866L181.8 234.96m-35.437 14.933 4.725 39.823m146.475-140.623 4.725 39.823m-4.725-39.823-37.8 33.6m37.8-33.6-35.438 3.734m35.438-3.734 21.262-29.866m-21.262 29.866L276.3 122.96m21.263 26.133-28.35-16.177m28.35 16.177 25.987 29.867m-25.987-29.867L333 134.16M221.963 317.093l-35.438 37.334m35.438-37.334L257.4 302.16m-35.437 14.933-7.088-22.4m7.088 22.4 21.262-29.866m-21.262 29.866L200.7 324.56m21.263-7.467 9.45-49.777m-9.45 49.777 7.087 29.867m-7.087-29.867-28.35 17.423m28.35-17.423 28.35 39.823m-28.35-39.823-11.813-52.266m163.013-48.534 9.45-49.777m-9.45 49.777-35.438 37.334m35.438-37.334L408.6 201.36m-35.437 14.933 21.262-29.866m-21.262 29.866L351.9 223.76m21.263-7.467-7.088-22.4m7.088 22.4 7.087 29.867m-7.087-29.867-28.35 17.423m28.35-17.423 28.35 39.823m-28.35-39.823-11.813-52.266m-177.188-48.534-35.437 14.934m35.437-14.934L162.9 100.56m21.262 14.933 21.263-29.866m-21.263 29.866-28.35-44.8m28.35 44.8 49.613-7.466m-49.613 7.466 7.088 29.867m-7.088-29.867-7.087 44.8m7.087-44.8 28.35 39.823m122.851 128.177-35.438 14.934m35.438-14.934 2.362-29.866m-2.362 29.866L295.2 268.56m40.163 14.933-18.9-44.8m18.9 44.8 49.612-7.466m-49.612 7.466 7.087 29.867m-7.087-29.867-7.088 44.8m7.088-44.8 28.35 39.823m-28.35-39.823 9.45-49.777m-85.051-51.023 37.8-33.6m-37.8 33.6-35.437 14.934m35.437-14.934 7.088 29.867m-7.088-29.867 2.363-29.866m-2.363 29.866 42.526 6.223m-42.526-6.223-18.9-44.8m18.9 44.8L219.6 167.76m40.162 14.933 9.45-49.777m-9.45 49.777-7.087 44.8m7.087-44.8 28.35 39.823m122.85-140.623-7.087 44.8m7.087-44.8 28.35 39.823m-28.35-39.823-35.437 14.934m35.437-14.934 7.088 29.867M165.262 339.493 144 369.36m21.262-29.867-14.174-49.777m14.174 49.777 21.263 14.934m-21.263-14.934L200.7 324.56m-35.438 14.933-7.087-29.866m7.087 29.866 28.35-4.977m122.85-95.823-14.174-49.777m14.174 49.777 21.263 14.934m-21.263-14.934L295.2 268.56m21.262-29.867L351.9 223.76m-35.438 14.933-37.8 33.6m37.8-33.6-7.087-29.866m7.087 29.866-35.437 3.734m35.437-3.734 18.9 44.8m-18.9-44.8-28.35-16.177m28.35 16.177 28.35-4.977m-103.949-95.823L219.6 167.76m21.263-29.867 18.9 44.8m-18.9-44.8 21.262 14.934m-21.262-14.934L276.3 122.96m-35.437 14.933-7.088-29.866m7.088 29.866-49.613 7.467m49.613-7.467 28.35-4.977m-28.35 4.977-28.35 17.423m179.55 150.577L370.8 335.76m21.263-29.867 21.262 14.934m-21.262-14.934 30.712-44.8m-30.712 44.8-35.438 37.334m35.438-37.334L427.5 290.96m-35.437 14.933-7.088-29.866m7.088 29.866-49.613 7.467m49.613-7.467 28.35-4.977m-28.35 4.977 9.45-49.777m-9.45 49.777-28.35 17.423m-160.65-118.223L219.6 167.76m-16.537 37.333L181.8 234.96m21.263-29.867-35.438 14.934m35.438-14.934 21.262-7.466m-21.262 7.466L153.45 190.16m49.613 14.933-28.35-4.977m28.35 4.977-7.088-29.866m7.088 29.866-25.988-44.8m25.988 44.8 9.45-49.777m141.749-51.023 21.263-7.466m-21.263 7.466L333 134.16m21.262-29.867-35.437 14.934m35.437-14.934L304.65 89.36m49.612 14.933-7.087-29.866m7.087 29.866-28.35-4.977m-47.249 172.977 16.537-3.733m-16.537 3.733L257.4 302.16m21.263-29.867 21.262 26.134m-21.262-26.134 37.8-33.6m-37.8 33.6-35.438 14.934m35.438-14.934 2.362-29.866m-2.362 29.866-47.25-4.977m47.25 4.977-25.988-44.8m25.988 44.8L238.5 257.36m40.163 14.933 9.45-49.777m141.75-51.023L389.7 156.56m40.163 14.933L408.6 201.36m21.263-29.867-35.438 14.934m35.438-14.934 2.362-29.866m-2.362 29.866-47.25-4.977m47.25 4.977-25.988-44.8m25.988 44.8 9.45-49.777m-283.5-51.023 7.087 29.867m-7.087-29.867 49.612 14.934m-49.612-14.934 28.35 44.8m122.849 252.623 7.088-9.956m-7.088 9.956-21.262-36.09m21.262 36.09-35.437-6.223m35.437 6.223 21.263-39.823m-96.863-60.977-9.45 49.777m9.45-49.777L257.4 302.16m-25.988-34.844-16.537 27.377m16.537-27.377 7.088-9.956m-7.088 9.956 47.25 4.977m-47.25-4.977 21.263-39.823m-21.263 39.823-21.262-2.49m21.262 2.49 11.813 19.91m139.388-120.71 11.812 19.91m-11.812-19.91L408.6 201.36m-25.987-34.844 7.087-9.956m-7.087 9.956-16.538 27.377m16.538-27.377 47.25 4.977m-47.25-4.977-9.45 49.777m9.45-49.777 21.262-39.823m-21.262 39.823-21.263-2.49m-167.737 170.49 28.35-17.423m-28.35 17.423-7.088 19.91m7.088-19.91-28.35 4.977m28.35-4.977 7.087-9.956m-7.087 9.956-35.438-24.89m35.438 24.89 35.437 12.444m-35.437-12.444 21.262-39.823m129.938-60.977 28.35-17.423m-28.35 17.423-7.088 19.91m7.088-19.91-28.35 4.977m28.35-4.977 7.087-9.956m-7.087 9.956-35.438-24.89m35.438 24.89 35.437 12.444m-35.437-12.444 21.262-39.823m-21.262 39.823-9.45 49.777m-66.151-150.577 28.35 16.177m-28.35-16.177-7.087 19.91m7.087-19.91-9.45 49.777m9.45-49.777 49.613-13.69m-49.613 13.69-28.35 4.977m28.35-4.977 7.088-9.956m-7.088 9.956-35.437-24.89m35.437 24.89 21.263-39.823m129.938 207.823-7.088 19.91m7.088-19.91-28.35 4.977m28.35-4.977 7.087-9.956m-7.087 9.956-35.438-24.89m35.438 24.89 2.362-39.823m-2.362 39.823-18.9-44.8m18.9 44.8 21.262 49.777M174.713 200.116l49.612-2.49m-49.612 2.49 7.087 34.844m-7.087-34.844-7.088 19.91m7.088-19.91 28.35 4.977m-28.35-4.977-21.263-9.956m21.263 9.956 21.262-24.89m-21.262 24.89 2.362-39.823m148.838-60.977 49.612-2.49m-49.612 2.49L333 134.16m-7.087-34.844-7.088 19.91m7.088-19.91 28.35 4.977m-28.35-4.977L304.65 89.36m21.263 9.956 21.262-24.89m-21.262 24.89-35.438-6.223m-40.162 263.823-21.263-9.956m21.263 9.956 35.437-24.89m-35.437 24.89-28.35-39.823m28.35 39.823 21.262 4.977m129.937-105.777-16.537 19.91m16.537-19.91-28.35-39.823m28.35 39.823-9.45 49.777m9.45-49.777L427.5 290.96m-25.988-34.844-21.262-9.956m21.262 9.956 18.9 44.8m-18.9-44.8 21.263 4.977m-21.263-4.977 35.438-24.89m-224.438-75.91 7.088 12.444m-7.088-12.444-28.35-39.823m28.35 39.823 49.613-2.49m-49.613 2.49 28.35-17.423m-28.35 17.423-9.45 49.777m9.45-49.777 11.813 42.31m-11.813-42.31 21.263-47.29m-21.263 47.29-21.262-9.956m21.262 9.956-35.437 4.977m35.437-4.977-16.537 19.91m167.737 148.09 7.088 12.444m-7.088-12.444-28.35-39.823m28.35 39.823 49.613-2.49m-49.613 2.49 28.35-17.423m-28.35 17.423-7.087 19.91m7.087-19.91 21.263-47.29m-21.263 47.29-21.262-9.956m21.262 9.956-35.437 4.977m-40.162-105.777 14.175-33.6m-14.175 33.6-28.35-39.823m28.35 39.823 7.087 46.044m-7.087-46.044 28.35 16.177m-28.35-16.177-7.088 19.91m7.088-19.91 21.262-13.69m-21.262 13.69-9.45 49.777m9.45-49.777-21.263-9.956m21.263 9.956-35.438 4.977m186.638-105.777-28.35-39.823m28.35 39.823-7.088 19.91m7.088-19.91-9.45 49.777m9.45-49.777-21.263-9.956m21.263 9.956-35.438 4.977M151.088 289.716l7.087 19.91m-7.087-19.91 21.262-9.956m-21.262 9.956 14.174 49.777m-14.174-49.777-4.725-39.823m155.925-60.977-4.726-39.823m4.726 39.823-42.526-6.223m42.526 6.223-40.163-36.09m40.163 36.09 14.174 49.777m-14.174-49.777 7.087 19.91m-7.087-19.91L266.85 212.56m35.438-23.644 21.262-9.956m-21.262 9.956-14.175 33.6" clip-path="url(#p684c6e7c3d)" style="fill:none;stroke:#006837;stroke-opacity:.15" id="LineCollection_1"/><path d="m144 369.36 21.262-29.867M295.2 268.56l-16.537 3.733M219.6 167.76l40.162 14.933M370.8 335.76l-7.088-12.444M181.8 234.96l-35.438 14.933M333 134.16l28.35 29.867M257.4 302.16l21.263-29.867M408.6 201.36l21.262-29.867M162.9 100.56l-7.088-29.867M314.1 358.16l-7.088 9.956M238.5 257.36l40.163 14.933M389.7 156.56l40.163 14.933M200.7 324.56l-7.087 9.956M351.9 223.76l-7.087 9.956M276.3 122.96l-7.088 9.956M427.5 290.96l-7.087 9.956M153.45 190.16l21.263 9.956M304.65 89.36l21.263 9.956M229.05 346.96l21.262 9.956M380.25 246.16l-35.438-12.444M191.25 145.36l21.262 9.956M342.45 313.36l21.262 9.956M266.85 212.56l35.438-23.644M418.05 111.76l21.262 9.956M172.35 279.76l-21.262 9.956M323.55 178.96l-21.262 9.956M247.95 78.16l-14.175 29.867m165.375 257.6 14.175-44.8m-203.175-56 21.262 2.489M361.35 164.027l21.262 2.489M285.75 332.027l21.262 36.089M436.95 231.227l-35.438 24.889M148.725 130.427 162.9 100.56m137.025 197.867-21.262-26.134m-54.338-74.666-11.813-42.311m163.013-58.489 35.438-14.934M186.525 354.427l7.088-19.911m144.112-80.889 7.087-19.911m-82.687-80.889 40.163 36.089m111.037 131.911 7.088-19.911m-252.788-80.889 7.088-19.911m144.112-80.889 7.088-19.911m-82.688 187.911-11.813-19.911m163.013-80.889 35.438-14.934M205.425 85.627l-49.613-14.934m200.813 272.534 7.087-19.911m-82.687-80.889 7.088-19.911m144.112-80.889 7.087-19.911M158.175 309.627l-7.088-19.911m158.288-80.889-21.262 13.689m-54.338-114.489 35.437 24.889m115.763 143.111 16.537-19.911m-205.537-80.889-21.262 24.889M347.175 74.427l-21.262 24.889m-54.338 262.577-21.262-4.977m172.462-95.823-21.262-4.977m-224.438-95.823-2.362 39.823m153.562 128.177-21.262 39.823m-54.338-140.623-21.263 39.823m172.463-140.623 25.988 44.8m-214.988 123.2 16.537-27.377m134.663-73.423 16.538-27.377m-92.138-73.423-21.263 39.823m172.463 217.777-21.262-49.777m-274.05-51.023 4.725 39.823m146.475-140.623 4.725 39.823m-80.325 128.177 28.35 39.823m122.85-140.623 9.45-49.777m-198.451-51.023-28.35-44.8m179.551 212.8 28.35 39.823M259.762 182.693l28.35 39.823m122.85-140.623 28.35 39.823m-274.05 217.777 28.35-4.977m122.85-95.823 28.35-4.977m-103.949-95.823-28.35 17.423m179.55 150.577 9.45-49.777m-198.45-51.023 9.45-49.777m141.749-51.023-28.35-4.977" clip-path="url(#p684c6e7c3d)" style="fill:none;stroke:green;stroke-width:2" id="LineCollection_2"/><g id="PathCollection_1"><defs><path id="m43e3c3cf37" d="M0 3.536a3.536 3.536 0 1 0 0-7.072 3.536 3.536 0 0 0 0 7.072z" style="stroke:#00bfbf"/></defs><g clip-path="url(#p684c6e7c3d)"><use style="fill:#00bfbf;stroke:#00bfbf" x="144" y="369.36" xlink:href="#m43e3c3cf37"/><use style="fill:#00bfbf;stroke:#00bfbf" x="295.2" y="268.56" xlink:href="#m43e3c3cf37"/><use style="fill:#00bfbf;stroke:#00bfbf" x="219.6" y="167.76" xlink:href="#m43e3c3cf37"/><use style="fill:#00bfbf;stroke:#00bfbf" x="370.8" y="335.76" xlink:href="#m43e3c3cf37"/><use style="fill:#00bfbf;stroke:#00bfbf" x="181.8" y="234.96" xlink:href="#m43e3c3cf37"/><use style="fill:#00bfbf;stroke:#00bfbf" x="333" y="134.16" xlink:href="#m43e3c3cf37"/><use style="fill:#00bfbf;stroke:#00bfbf" x="257.4" y="302.16" xlink:href="#m43e3c3cf37"/><use style="fill:#00bfbf;stroke:#00bfbf" x="408.6" y="201.36" xlink:href="#m43e3c3cf37"/><use style="fill:#00bfbf;stroke:#00bfbf" x="162.9" y="100.56" xlink:href="#m43e3c3cf37"/><use style="fill:#00bfbf;stroke:#00bfbf" x="314.1" y="358.16" xlink:href="#m43e3c3cf37"/><use style="fill:#00bfbf;stroke:#00bfbf" x="238.5" y="257.36" xlink:href="#m43e3c3cf37"/><use style="fill:#00bfbf;stroke:#00bfbf" x="389.7" y="156.56" xlink:href="#m43e3c3cf37"/><use style="fill:#00bfbf;stroke:#00bfbf" x="200.7" y="324.56" xlink:href="#m43e3c3cf37"/><use style="fill:#00bfbf;stroke:#00bfbf" x="351.9" y="223.76" xlink:href="#m43e3c3cf37"/><use style="fill:#00bfbf;stroke:#00bfbf" x="276.3" y="122.96" xlink:href="#m43e3c3cf37"/><use style="fill:#00bfbf;stroke:#00bfbf" x="427.5" y="290.96" xlink:href="#m43e3c3cf37"/><use style="fill:#00bfbf;stroke:#00bfbf" x="153.45" y="190.16" xlink:href="#m43e3c3cf37"/><use style="fill:#00bfbf;stroke:#00bfbf" x="304.65" y="89.36" xlink:href="#m43e3c3cf37"/><use style="fill:#00bfbf;stroke:#00bfbf" x="229.05" y="346.96" xlink:href="#m43e3c3cf37"/><use style="fill:#00bfbf;stroke:#00bfbf" x="380.25" y="246.16" xlink:href="#m43e3c3cf37"/><use style="fill:#00bfbf;stroke:#00bfbf" x="191.25" y="145.36" xlink:href="#m43e3c3cf37"/><use style="fill:#00bfbf;stroke:#00bfbf" x="342.45" y="313.36" xlink:href="#m43e3c3cf37"/><use style="fill:#00bfbf;stroke:#00bfbf" x="266.85" y="212.56" xlink:href="#m43e3c3cf37"/><use style="fill:#00bfbf;stroke:#00bfbf" x="418.05" y="111.76" xlink:href="#m43e3c3cf37"/><use style="fill:#00bfbf;stroke:#00bfbf" x="172.35" y="279.76" xlink:href="#m43e3c3cf37"/><use style="fill:#00bfbf;stroke:#00bfbf" x="323.55" y="178.96" xlink:href="#m43e3c3cf37"/><use style="fill:#00bfbf;stroke:#00bfbf" x="247.95" y="78.16" xlink:href="#m43e3c3cf37"/><use style="fill:#00bfbf;stroke:#00bfbf" x="399.15" y="365.627" xlink:href="#m43e3c3cf37"/><use style="fill:#00bfbf;stroke:#00bfbf" x="210.15" y="264.827" xlink:href="#m43e3c3cf37"/><use style="fill:#00bfbf;stroke:#00bfbf" x="361.35" y="164.027" xlink:href="#m43e3c3cf37"/><use style="fill:#00bfbf;stroke:#00bfbf" x="285.75" y="332.027" xlink:href="#m43e3c3cf37"/><use style="fill:#00bfbf;stroke:#00bfbf" x="436.95" y="231.227" xlink:href="#m43e3c3cf37"/><use style="fill:#00bfbf;stroke:#00bfbf" x="148.725" y="130.427" xlink:href="#m43e3c3cf37"/><use style="fill:#00bfbf;stroke:#00bfbf" x="299.925" y="298.427" xlink:href="#m43e3c3cf37"/><use style="fill:#00bfbf;stroke:#00bfbf" x="224.325" y="197.627" xlink:href="#m43e3c3cf37"/><use style="fill:#00bfbf;stroke:#00bfbf" x="375.525" y="96.827" xlink:href="#m43e3c3cf37"/><use style="fill:#00bfbf;stroke:#00bfbf" x="186.525" y="354.427" xlink:href="#m43e3c3cf37"/><use style="fill:#00bfbf;stroke:#00bfbf" x="337.725" y="253.627" xlink:href="#m43e3c3cf37"/><use style="fill:#00bfbf;stroke:#00bfbf" x="262.125" y="152.827" xlink:href="#m43e3c3cf37"/><use style="fill:#00bfbf;stroke:#00bfbf" x="413.325" y="320.827" xlink:href="#m43e3c3cf37"/><use style="fill:#00bfbf;stroke:#00bfbf" x="167.625" y="220.027" xlink:href="#m43e3c3cf37"/><use style="fill:#00bfbf;stroke:#00bfbf" x="318.825" y="119.227" xlink:href="#m43e3c3cf37"/><use style="fill:#00bfbf;stroke:#00bfbf" x="243.225" y="287.227" xlink:href="#m43e3c3cf37"/><use style="fill:#00bfbf;stroke:#00bfbf" x="394.425" y="186.427" xlink:href="#m43e3c3cf37"/><use style="fill:#00bfbf;stroke:#00bfbf" x="205.425" y="85.627" xlink:href="#m43e3c3cf37"/><use style="fill:#00bfbf;stroke:#00bfbf" x="356.625" y="343.227" xlink:href="#m43e3c3cf37"/><use style="fill:#00bfbf;stroke:#00bfbf" x="281.025" y="242.427" xlink:href="#m43e3c3cf37"/><use style="fill:#00bfbf;stroke:#00bfbf" x="432.225" y="141.627" xlink:href="#m43e3c3cf37"/><use style="fill:#00bfbf;stroke:#00bfbf" x="158.175" y="309.627" xlink:href="#m43e3c3cf37"/><use style="fill:#00bfbf;stroke:#00bfbf" x="309.375" y="208.827" xlink:href="#m43e3c3cf37"/><use style="fill:#00bfbf;stroke:#00bfbf" x="233.775" y="108.027" xlink:href="#m43e3c3cf37"/><use style="fill:#00bfbf;stroke:#00bfbf" x="384.975" y="276.027" xlink:href="#m43e3c3cf37"/><use style="fill:#00bfbf;stroke:#00bfbf" x="195.975" y="175.227" xlink:href="#m43e3c3cf37"/><use style="fill:#00bfbf;stroke:#00bfbf" x="347.175" y="74.427" xlink:href="#m43e3c3cf37"/><use style="fill:#00bfbf;stroke:#00bfbf" x="271.575" y="361.893" xlink:href="#m43e3c3cf37"/><use style="fill:#00bfbf;stroke:#00bfbf" x="422.775" y="261.093" xlink:href="#m43e3c3cf37"/><use style="fill:#00bfbf;stroke:#00bfbf" x="177.075" y="160.293" xlink:href="#m43e3c3cf37"/><use style="fill:#00bfbf;stroke:#00bfbf" x="328.275" y="328.293" xlink:href="#m43e3c3cf37"/><use style="fill:#00bfbf;stroke:#00bfbf" x="252.675" y="227.493" xlink:href="#m43e3c3cf37"/><use style="fill:#00bfbf;stroke:#00bfbf" x="403.875" y="126.693" xlink:href="#m43e3c3cf37"/><use style="fill:#00bfbf;stroke:#00bfbf" x="214.875" y="294.693" xlink:href="#m43e3c3cf37"/><use style="fill:#00bfbf;stroke:#00bfbf" x="366.075" y="193.893" xlink:href="#m43e3c3cf37"/><use style="fill:#00bfbf;stroke:#00bfbf" x="290.475" y="93.093" xlink:href="#m43e3c3cf37"/><use style="fill:#00bfbf;stroke:#00bfbf" x="441.675" y="350.693" xlink:href="#m43e3c3cf37"/><use style="fill:#00bfbf;stroke:#00bfbf" x="146.363" y="249.893" xlink:href="#m43e3c3cf37"/><use style="fill:#00bfbf;stroke:#00bfbf" x="297.563" y="149.093" xlink:href="#m43e3c3cf37"/><use style="fill:#00bfbf;stroke:#00bfbf" x="221.963" y="317.093" xlink:href="#m43e3c3cf37"/><use style="fill:#00bfbf;stroke:#00bfbf" x="373.163" y="216.293" xlink:href="#m43e3c3cf37"/><use style="fill:#00bfbf;stroke:#00bfbf" x="184.162" y="115.493" xlink:href="#m43e3c3cf37"/><use style="fill:#00bfbf;stroke:#00bfbf" x="335.363" y="283.493" xlink:href="#m43e3c3cf37"/><use style="fill:#00bfbf;stroke:#00bfbf" x="259.762" y="182.693" xlink:href="#m43e3c3cf37"/><use style="fill:#00bfbf;stroke:#00bfbf" x="410.962" y="81.893" xlink:href="#m43e3c3cf37"/><use style="fill:#00bfbf;stroke:#00bfbf" x="165.262" y="339.493" xlink:href="#m43e3c3cf37"/><use style="fill:#00bfbf;stroke:#00bfbf" x="316.462" y="238.693" xlink:href="#m43e3c3cf37"/><use style="fill:#00bfbf;stroke:#00bfbf" x="240.863" y="137.893" xlink:href="#m43e3c3cf37"/><use style="fill:#00bfbf;stroke:#00bfbf" x="392.063" y="305.893" xlink:href="#m43e3c3cf37"/><use style="fill:#00bfbf;stroke:#00bfbf" x="203.063" y="205.093" xlink:href="#m43e3c3cf37"/><use style="fill:#00bfbf;stroke:#00bfbf" x="354.262" y="104.293" xlink:href="#m43e3c3cf37"/></g></g><g id="PathCollection_2"><defs><path id="mad77e8911d" d="M0 3.536a3.536 3.536 0 1 0 0-7.072 3.536 3.536 0 0 0 0 7.072z" style="stroke:red"/></defs><g clip-path="url(#p684c6e7c3d)"><use style="fill:red;stroke:red" x="278.663" y="272.293" xlink:href="#mad77e8911d"/><use style="fill:red;stroke:red" x="429.863" y="171.493" xlink:href="#mad77e8911d"/><use style="fill:red;stroke:red" x="155.813" y="70.693" xlink:href="#mad77e8911d"/><use style="fill:red;stroke:red" x="307.012" y="368.116" xlink:href="#mad77e8911d"/><use style="fill:red;stroke:red" x="231.412" y="267.316" xlink:href="#mad77e8911d"/><use style="fill:red;stroke:red" x="382.613" y="166.516" xlink:href="#mad77e8911d"/><use style="fill:red;stroke:red" x="193.613" y="334.516" xlink:href="#mad77e8911d"/><use style="fill:red;stroke:red" x="344.813" y="233.716" xlink:href="#mad77e8911d"/><use style="fill:red;stroke:red" x="269.212" y="132.916" xlink:href="#mad77e8911d"/><use style="fill:red;stroke:red" x="420.413" y="300.916" xlink:href="#mad77e8911d"/><use style="fill:red;stroke:red" x="174.713" y="200.116" xlink:href="#mad77e8911d"/><use style="fill:red;stroke:red" x="325.913" y="99.316" xlink:href="#mad77e8911d"/><use style="fill:red;stroke:red" x="250.313" y="356.916" xlink:href="#mad77e8911d"/><use style="fill:red;stroke:red" x="401.512" y="256.116" xlink:href="#mad77e8911d"/><use style="fill:red;stroke:red" x="212.512" y="155.316" xlink:href="#mad77e8911d"/><use style="fill:red;stroke:red" x="363.712" y="323.316" xlink:href="#mad77e8911d"/><use style="fill:red;stroke:red" x="288.113" y="222.516" xlink:href="#mad77e8911d"/><use style="fill:red;stroke:red" x="439.313" y="121.716" xlink:href="#mad77e8911d"/><use style="fill:red;stroke:red" x="151.088" y="289.716" xlink:href="#mad77e8911d"/><use style="fill:red;stroke:red" x="302.288" y="188.916" xlink:href="#mad77e8911d"/></g></g></g></g><defs><clipPath id="p684c6e7c3d"><path d="M128.88 51.84h332.64v332.64H128.88z"/></clipPath></defs></svg>