<?xml version="1.0" encoding="iso-8859-1" standalone="no"?> 
<?xml-stylesheet href="TE_export636286484618233452.css" type="text/css"?> 
<svg xmlns="http://www.w3.org/2000/svg" xmlns:xlink="http://www.w3.org/1999/xlink" width="241pt" height="51pt" viewBox="-59.73602 -9.648 120.59949 25.30954 "> 
<g transform="translate(0, 15.66154 ) scale(1,-1) translate(0,9.648 )"> 
                  <g> 
 <g stroke="rgb(0.0%,0.0%,0.0%)"> 
 <g fill="rgb(0.0%,0.0%,0.0%)"> 
 <g stroke-width="0.4pt"> 
 <g> 
 <g> 
 <g fill="rgb(80.0003%,100.0%,100.0%)"> 
 <g> 
 <g fill="rgb(80.0003%,100.0%,100.0%)"> 
 <path d=" M  60.66347 0.0 C  60.66347 5.21805 56.43352 9.448 51.21547 9.448 C  45.99742 9.448 41.76747 5.21805 41.76747 0.0 C  41.76747 -5.21805 45.99742 -9.448 51.21547 -9.448 C  56.43352 -9.448 60.66347 -5.21805 60.66347 0.0 Z M  51.21547 0.0  " /> 
 </g> 
 </g> 
 <g> 
 <g transform="matrix(1.0,0.0,0.0,1.0,48.87022,-2.32541)"> 
 <g fill="rgb(0.0%,0.0%,0.0%)"> 
 <text style="stroke:none" transform="scale(1,-1) translate(2.34525,0)" text-anchor="middle"  font-size="10"> 
<tspan font-family="cmmi" font-size="10">j</tspan></text> 
</g> 
 </g> 
 </g> 
 </g> 
 </g> 
 <g> 
 <g fill="rgb(80.0003%,100.0%,100.0%)"> 
 <g> 
 <g fill="rgb(80.0003%,100.0%,100.0%)"> 
 <path d=" M  -42.89491 0.0 C  -42.89491 4.59537 -46.6201 8.32056 -51.21547 8.32056 C  -55.81084 8.32056 -59.53603 4.59537 -59.53603 0.0 C  -59.53603 -4.59537 -55.81084 -8.32056 -51.21547 -8.32056 C  -46.6201 -8.32056 -42.89491 -4.59537 -42.89491 0.0 Z M  -51.21547 0.0  " /> 
 </g> 
 </g> 
 <g> 
 <g transform="matrix(1.0,0.0,0.0,1.0,-52.93803,-3.29762)"> 
 <g fill="rgb(0.0%,0.0%,0.0%)"> 
 <text style="stroke:none" transform="scale(1,-1) translate(1.72256,0)" text-anchor="middle"  font-size="10"> 
<tspan font-family="cmmi" font-size="10">i</tspan></text> 
</g> 
 </g> 
 </g> 
 </g> 
 </g> 
 <g> 
 <g fill="rgb(100.0%,80.0003%,80.0003%)"> 
 <g> 
 <g fill="rgb(100.0%,80.0003%,80.0003%)"> 
 <path d=" M  9.1211 0.0 C  9.1211 5.03749 5.03749 9.1211 0.0 9.1211 C  -5.03749 9.1211 -9.1211 5.03749 -9.1211 0.0 C  -9.1211 -5.03749 -5.03749 -9.1211 0.0 -9.1211 C  5.03749 -9.1211 9.1211 -5.03749 9.1211 0.0 Z M  0.0 0.0  " /> 
 </g> 
 </g> 
 <g> 
 <g transform="matrix(1.0,0.0,0.0,1.0,-2.76042,-3.47221)"> 
 <g fill="rgb(0.0%,0.0%,0.0%)"> 
 <text style="stroke:none" transform="scale(1,-1) translate(2.76042,0)" text-anchor="middle"  font-size="10"> 
<tspan font-family="cmmi" font-size="10">k</tspan></text> 
</g> 
 </g> 
 </g> 
 </g> 
 </g> 
 <g> 
 <path d=" M  -42.69586 0.0 L  -12.92123 0.0  " style="fill:none"/> 
 <g> 
 <g transform="matrix(1.0,0.0,0.0,1.0,-12.92123,0.0)"> 
 <g> 
 <path d=" M  3.59995 0.0 C  2.53328 0.2 0.79999 0.79999 -0.4 1.49997 L  -0.4 -1.49997 C  0.79999 -0.79999 2.53328 -0.2 3.59995 0.0  " style="stroke:none"/> 
 </g> 
 </g> 
 </g> 
 <g> 
 <g> 
 <g transform="matrix(1.0,0.0,0.0,1.0,-31.54736,3.53297)"> 
 <g fill="rgb(0.0%,0.0%,0.0%)"> 
 <text style="stroke:none" transform="scale(1,-1) translate(5.53879,0)" text-anchor="middle"  font-size="10"> 
<tspan font-family="cmmi" font-size="10">c</tspan><tspan baseline-shift="sub"><tspan font-family="cmsy" font-size="7">-</tspan></tspan></text> 
</g> 
 </g> 
 </g> 
 </g> 
 </g> 
 <g> 
 <path d=" M  41.56839 0.0 L  12.92123 0.0  " style="fill:none"/> 
 <g> 
 <g transform="matrix(-1.0,0.0,0.0,-1.0,12.92123,0.0)"> 
 <g> 
 <path d=" M  3.59995 0.0 C  2.53328 0.2 0.79999 0.79999 -0.4 1.49997 L  -0.4 -1.49997 C  0.79999 -0.79999 2.53328 -0.2 3.59995 0.0  " style="stroke:none"/> 
 </g> 
 </g> 
 </g> 
 <g> 
 <g> 
 <g transform="matrix(1.0,0.0,0.0,1.0,13.85054,4.3663)"> 
 <g fill="rgb(0.0%,0.0%,0.0%)"> 
 <text style="stroke:none" transform="scale(1,-1) translate(11.5943,0)" text-anchor="middle"  font-size="10"> 
 <tspan font-family="cmsy" font-size="10">-</tspan><tspan font-family="cmmi" font-size="10">c</tspan><tspan baseline-shift="sub"><tspan font-family="cmr" font-size="7">+</tspan></tspan></text> 
</g> 
 </g> 
 </g> 
 </g> 
 </g> 
 </g> 
 </g> 
 </g> 
 </g> 
 </g> 
 
                                             </g> 
</svg> 
