<?xml version="1.0" encoding="iso-8859-1" standalone="no"?> 
<?xml-stylesheet href="TE_export636288101759872586.css" type="text/css"?> 
<svg xmlns="http://www.w3.org/2000/svg" xmlns:xlink="http://www.w3.org/1999/xlink" width="307pt" height="121pt" viewBox="-61.42596 -30.2668 153.70164 60.5782 "> 
<g transform="translate(0, 30.3114 ) scale(1,-1) translate(0,30.2668 )"> 
                  <g> 
 <g stroke="rgb(0.0%,0.0%,0.0%)"> 
 <g fill="rgb(0.0%,0.0%,0.0%)"> 
 <g stroke-width="0.4pt"> 
 <g> 
 <g> 
 <g fill="rgb(80.0003%,100.0%,100.0%)"> 
 <g> 
 <g fill="rgb(80.0003%,100.0%,100.0%)"> 
 <path d=" M  62.0038 0.0 C  62.0038 5.9583 57.17377 10.78833 51.21547 10.78833 C  45.25717 10.78833 40.42714 5.9583 40.42714 0.0 C  40.42714 -5.9583 45.25717 -10.78833 51.21547 -10.78833 C  57.17377 -10.78833 62.0038 -5.9583 62.0038 0.0 Z M  51.21547 0.0  " /> 
 </g> 
 </g> 
 <g> 
 <g transform="matrix(1.0,0.0,0.0,1.0,46.2464,-0.72223)"> 
 <g fill="rgb(0.0%,0.0%,0.0%)"> 
 <text style="stroke:none" transform="scale(1,-1) translate(4.96907,0)" text-anchor="middle"  font-size="10"> 
<tspan font-family="cmmi" font-size="10">u</tspan><tspan baseline-shift="sub"><tspan font-family="cmmi" font-size="7">j</tspan></tspan></text> 
</g> 
 </g> 
 </g> 
 </g> 
 </g> 
 <g> 
 <g fill="rgb(80.0003%,100.0%,100.0%)"> 
 <g> 
 <g fill="rgb(80.0003%,100.0%,100.0%)"> 
 <path d=" M  -41.20497 0.0 C  -41.20497 5.5287 -45.68677 10.0105 -51.21547 10.0105 C  -56.74417 10.0105 -61.22597 5.5287 -61.22597 0.0 C  -61.22597 -5.5287 -56.74417 -10.0105 -51.21547 -10.0105 C  -45.68677 -10.0105 -41.20497 -5.5287 -41.20497 0.0 Z M  -51.21547 0.0  " /> 
 </g> 
 </g> 
 <g> 
 <g transform="matrix(1.0,0.0,0.0,1.0,-55.7424,-1.40279)"> 
 <g fill="rgb(0.0%,0.0%,0.0%)"> 
 <text style="stroke:none" transform="scale(1,-1) translate(4.52693,0)" text-anchor="middle"  font-size="10"> 
<tspan font-family="cmmi" font-size="10">u</tspan><tspan baseline-shift="sub"><tspan font-family="cmmi" font-size="7">i</tspan> </tspan></text> 
</g> 
 </g> 
 </g> 
 </g> 
 </g> 
 <g> 
 <g fill="rgb(100.0%,80.0003%,80.0003%)"> 
 <g> 
 <g fill="rgb(100.0%,80.0003%,80.0003%)"> 
 <path d=" M  10.35474 17.07181 C  10.35474 22.79063 5.71883 27.42654 0.0 27.42654 C  -5.71883 27.42654 -10.35474 22.79063 -10.35474 17.07181 C  -10.35474 11.35298 -5.71883 6.71707 0.0 6.71707 C  5.71883 6.71707 10.35474 11.35298 10.35474 17.07181 Z M  0.0 17.07181  " /> 
 </g> 
 </g> 
 <g> 
 <g transform="matrix(1.0,0.0,0.0,1.0,-4.99945,15.66902)"> 
 <g fill="rgb(0.0%,0.0%,0.0%)"> 
 <text style="stroke:none" transform="scale(1,-1) translate(4.99945,0)" text-anchor="middle"  font-size="10"> 
<tspan font-family="cmmi" font-size="10">u</tspan><tspan baseline-shift="sub"><tspan font-family="cmmi" font-size="7">s</tspan></tspan></text> 
</g> 
 </g> 
 </g> 
 </g> 
 </g> 
 <g> 
 <g fill="rgb(100.0%,80.0003%,80.0003%)"> 
 <g> 
 <g fill="rgb(100.0%,80.0003%,80.0003%)"> 
 <path d=" M  10.7107 -17.07181 C  10.7107 -11.15639 5.91542 -6.36111 0.0 -6.36111 C  -5.91542 -6.36111 -10.7107 -11.15639 -10.7107 -17.07181 C  -10.7107 -22.98723 -5.91542 -27.7825 0.0 -27.7825 C  5.91542 -27.7825 10.7107 -22.98723 10.7107 -17.07181 Z M  0.0 -17.07181  " /> 
 </g> 
 </g> 
 <g> 
 <g transform="matrix(1.0,0.0,0.0,1.0,-5.45316,-18.4746)"> 
 <g fill="rgb(0.0%,0.0%,0.0%)"> 
 <text style="stroke:none" transform="scale(1,-1) translate(5.45316,0)" text-anchor="middle"  font-size="10"> 
<tspan font-family="cmmi" font-size="10">u</tspan><tspan baseline-shift="sub"><tspan font-family="cmmi" font-size="7">h</tspan></tspan></text> 
</g> 
 </g> 
 </g> 
 </g> 
 </g> 
 <g> 
 <path d=" M  -10.54175 16.43956 C  -23.74744 15.61206 -31.67194 12.94646 -39.6901 7.62222  " style="fill:none"/> 
 <g> 
 <g transform="matrix(-0.83461,-0.55424,0.55424,-0.83461,-39.6901,7.62222)"> 
 <g> 
 <path d=" M  3.59995 0.0 C  2.53328 0.2 0.79999 0.79999 -0.4 1.49997 L  -0.4 -1.49997 C  0.79999 -0.79999 2.53328 -0.2 3.59995 0.0  " style="stroke:none"/> 
 </g> 
 </g> 
 </g> 
 <g> 
 <g> 
 <g transform="matrix(1.0,0.0,0.0,1.0,-29.9368,17.00073)"> 
 <g fill="rgb(0.0%,0.0%,0.0%)"> 
 <text style="stroke:none" transform="scale(1,-1) translate(2.5,0)" text-anchor="middle"  font-size="10"> 
0</text> 
</g> 
 </g> 
 </g> 
 </g> 
 </g> 
 <g> 
 <path d=" M  10.54175 16.43956 C  23.4977 15.70526 31.19241 13.16954 39.02711 8.03418  " style="fill:none"/> 
 <g> 
 <g transform="matrix(0.83844,-0.5496,0.5496,0.83844,39.02711,8.03418)"> 
 <g> 
 <path d=" M  3.59995 0.0 C  2.53328 0.2 0.79999 0.79999 -0.4 1.49997 L  -0.4 -1.49997 C  0.79999 -0.79999 2.53328 -0.2 3.59995 0.0  " style="stroke:none"/> 
 </g> 
 </g> 
 </g> 
 <g> 
 <g> 
 <g transform="matrix(1.0,0.0,0.0,1.0,30.61516,20.034)"> 
 <g fill="rgb(0.0%,0.0%,0.0%)"> 
 <text style="stroke:none" transform="scale(1,-1) translate(29.16377,0)" text-anchor="middle"  font-size="10"> 
CP - 4 - <tspan font-family="cmmi" font-size="10">&#x03C3;</tspan><tspan baseline-shift="sub"><tspan font-family="cmmi" font-size="7">ij</tspan></tspan><tspan font-family="cmmi" font-size="10">&#x03B2;</tspan></text> 
</g> 
 </g> 
 </g> 
 </g> 
 </g> 
 <g> 
 <path d=" M  42.04544 -6.05563 C  31.3559 -13.10434 23.67903 -15.65863 14.49269 -16.20459  " style="fill:none"/> 
 <g> 
 <g transform="matrix(-0.99875,-0.05934,0.05934,-0.99875,14.49269,-16.20459)"> 
 <g> 
 <path d=" M  3.59995 0.0 C  2.53328 0.2 0.79999 0.79999 -0.4 1.49997 L  -0.4 -1.49997 C  0.79999 -0.79999 2.53328 -0.2 3.59995 0.0  " style="stroke:none"/> 
 </g> 
 </g> 
 </g> 
 <g> 
 <g> 
 <g transform="matrix(1.0,0.0,0.0,1.0,30.78891,-24.07274)"> 
 <g fill="rgb(0.0%,0.0%,0.0%)"> 
 <text style="stroke:none" transform="scale(1,-1) translate(24.92769,0)" text-anchor="middle"  font-size="10"> 
-1.5 +  <tspan font-family="cmmi" font-size="10">&#x03C3;</tspan><tspan baseline-shift="sub"><tspan font-family="cmmi" font-size="7">ji</tspan> </tspan> <tspan font-family="cmmi" font-size="10">&#x03B2;</tspan></text> 
</g> 
 </g> 
 </g> 
 </g> 
 </g> 
 <g> 
 <path d=" M  -10.89726 -16.41821 C  -23.96689 -15.56271 -31.80377 -12.90268 -39.6901 -7.63431  " style="fill:none"/> 
 <g> 
 <g transform="matrix(-0.83461,0.5576,-0.5576,-0.83461,-39.6901,-7.63431)"> 
 <g> 
 <path d=" M  3.59995 0.0 C  2.53328 0.2 0.79999 0.79999 -0.4 1.49997 L  -0.4 -1.49997 C  0.79999 -0.79999 2.53328 -0.2 3.59995 0.0  " style="stroke:none"/> 
 </g> 
 </g> 
 </g> 
 <g> 
 <g> 
 <g transform="matrix(1.0,0.0,0.0,1.0,-30.11298,-9.89719)"> 
 <g fill="rgb(0.0%,0.0%,0.0%)"> 
 <text style="stroke:none" transform="scale(1,-1) translate(2.5,0)" text-anchor="middle"  font-size="10"> 
0</text> 
</g> 
 </g> 
 </g> 
 </g> 
 </g> 
 <g> 
 <path d=" M  2.7368 6.85687 C  4.12093 1.83023 4.14377 -1.46712 3.7369 -3.02829  " style="fill:none"/> 
 <g> 
 <g transform="matrix(-0.25217,-0.96782,0.96782,-0.25217,3.7369,-3.02829)"> 
 <g> 
 <path d=" M  3.59995 0.0 C  2.53328 0.2 0.79999 0.79999 -0.4 1.49997 L  -0.4 -1.49997 C  0.79999 -0.79999 2.53328 -0.2 3.59995 0.0  " style="stroke:none"/> 
 </g> 
 </g> 
 </g> 
 <g> 
 <g> 
 <g transform="matrix(1.0,0.0,0.0,1.0,7.32796,-3.043)"> 
 <g fill="rgb(0.0%,0.0%,0.0%)"> 
 <text style="stroke:none" transform="scale(1,-1) translate(2.5,0)" text-anchor="middle"  font-size="10"> 
0</text> 
</g> 
 </g> 
 </g> 
 </g> 
 </g> 
 </g> 
 </g> 
 </g> 
 </g> 
 </g> 
 
                                              </g> 
</svg> 
